<svg id="Layer_1" data-name="Layer 1" xmlns="http://www.w3.org/2000/svg" viewBox="0 0 1290 699"><title>Cap 4 -</title><circle cx="434.16" cy="275.64" r="15.42" style="fill:#4fc2c9"/><line x1="450" y1="276" x2="498.87" y2="275.64" style="fill:none;stroke:#4fc2c9;stroke-miterlimit:10;stroke-width:7px"/><circle cx="434.16" cy="98.64" r="15.42" style="fill:none;stroke:#91c54f;stroke-miterlimit:10;stroke-width:7px"/><line x1="450" y1="99" x2="498.87" y2="98.64" style="fill:none;stroke:#91c54f;stroke-miterlimit:10;stroke-width:7px"/><circle cx="434.16" cy="187.14" r="15.42" style="fill:none;stroke:#91c54f;stroke-miterlimit:10;stroke-width:7px"/><line x1="450" y1="187.5" x2="498.87" y2="187.14" style="fill:none;stroke:#91c54f;stroke-miterlimit:10;stroke-width:7px"/><circle cx="842.45" cy="275.64" r="15.42" style="fill:#4fc2c9"/><line x1="826.61" y1="275.28" x2="777.73" y2="275.64" style="fill:none;stroke:#4fc2c9;stroke-miterlimit:10;stroke-width:7px"/><circle cx="842.45" cy="98.64" r="15.42" style="fill:none;stroke:#91c54f;stroke-miterlimit:10;stroke-width:7px"/><line x1="826.61" y1="98.28" x2="777.73" y2="98.64" style="fill:none;stroke:#91c54f;stroke-miterlimit:10;stroke-width:7px"/><circle cx="842.45" cy="187.14" r="15.42" style="fill:none;stroke:#91c54f;stroke-miterlimit:10;stroke-width:7px"/><line x1="826.61" y1="186.78" x2="777.73" y2="187.14" style="fill:none;stroke:#91c54f;stroke-miterlimit:10;stroke-width:7px"/><circle cx="638.3" cy="397.29" r="15.42" style="fill:#c13018"/><line x1="638.67" y1="381.44" x2="638.3" y2="332.57" style="fill:none;stroke:#c13018;stroke-miterlimit:10;stroke-width:7px"/><circle cx="545.8" cy="397.29" r="15.42" style="fill:#c13018"/><line x1="546.17" y1="381.44" x2="545.8" y2="332.57" style="fill:none;stroke:#c13018;stroke-miterlimit:10;stroke-width:7px"/><circle cx="730.8" cy="397.29" r="15.42" style="fill:none;stroke:#91c54f;stroke-miterlimit:10;stroke-width:7px"/><line x1="731.17" y1="381.44" x2="730.8" y2="332.57" style="fill:none;stroke:#91c54f;stroke-miterlimit:10;stroke-width:7px"/><path d="M83.24,262.34v23.35H77.18V262.34Z"/><path d="M87.61,270h5.6v2a5.91,5.91,0,0,1,5-2.31,6.34,6.34,0,0,1,4.62,1.68c1.33,1.33,1.48,2.66,1.48,4.38v9.94H98.67v-7.91c0-.91,0-2.28-.7-3a2.32,2.32,0,0,0-1.78-.66,3.08,3.08,0,0,0-2.07.73,3.61,3.61,0,0,0-.91,2.49v8.4h-5.6Z"/><path d="M114.28,274.63v11.06h-5.6V274.63H106.9V270h1.78V264.9h5.6V270h3.19v4.59Z"/><path d="M119.57,270h5.6v2.56a5,5,0,0,1,2.2-2.17,6.07,6.07,0,0,1,2.91-.63l1.12.07v5.28a5,5,0,0,0-2.42-.56,3.68,3.68,0,0,0-2.55.84,4.73,4.73,0,0,0-1.26,3.57v6.69h-5.6Z"/><path d="M146,270h5.6v15.65H146V284a5.82,5.82,0,0,1-4.86,2.24,7.51,7.51,0,0,1-5.64-2.48,7.92,7.92,0,0,1-2.24-5.74,8.67,8.67,0,0,1,2.42-6.27,8,8,0,0,1,5.63-2.2,6.16,6.16,0,0,1,4.69,2Zm-5.88,5.25a3.67,3.67,0,0,0-1.12,2.56,3.59,3.59,0,0,0,1.09,2.55,3.91,3.91,0,0,0,2.52,1.05,3.59,3.59,0,0,0,2.52-1.08,3.4,3.4,0,0,0,1-2.52,3.45,3.45,0,0,0-1.09-2.56,3.56,3.56,0,0,0-5,0Z"/><path d="M155.44,270H161v2.56a5.06,5.06,0,0,1,2.21-2.17,6,6,0,0,1,2.9-.63l1.12.07v5.28a4.93,4.93,0,0,0-2.41-.56,3.71,3.71,0,0,0-2.56.84A4.73,4.73,0,0,0,161,279v6.69h-5.6Z"/><path d="M186.35,278.9H174.69a4,4,0,0,0,1,2.62,3.15,3.15,0,0,0,2.31.77,4.33,4.33,0,0,0,1.82-.42,2.57,2.57,0,0,0,1-1.05h5.36a7.1,7.1,0,0,1-1.89,3.22c-1.16,1.12-3,2.17-6.37,2.17a8.86,8.86,0,0,1-6.48-2.38,8.2,8.2,0,0,1-2.31-5.91,8.34,8.34,0,0,1,2.35-6.06,8.79,8.79,0,0,1,6.4-2.27,8.56,8.56,0,0,1,6,2.13,8.75,8.75,0,0,1,2.49,6.58Zm-5.15-3.22a3.73,3.73,0,0,0-.91-1.68,3.23,3.23,0,0,0-2.31-.84,3,3,0,0,0-2.27.84,3.12,3.12,0,0,0-.84,1.68Z"/><rect x="32.27" y="232.28" width="199" height="84" rx="12" ry="12" style="fill:none;stroke:#4fc2c9;stroke-miterlimit:10;stroke-width:7px"/><line x1="44.77" y1="248.28" x2="44.77" y2="300.28" style="fill:none;stroke:#4fc2c9;stroke-miterlimit:10;stroke-width:7px"/><path d="M1116.51,258.84v23.35h-6.06V258.84Z"/><path d="M1137.47,275.4h-11.65a3.94,3.94,0,0,0,1,2.62,3.15,3.15,0,0,0,2.32.77,4.44,4.44,0,0,0,1.82-.41,2.67,2.67,0,0,0,1-1.06h5.35a6.94,6.94,0,0,1-1.89,3.23c-1.15,1.12-3,2.17-6.37,2.17a8.88,8.88,0,0,1-6.47-2.38,8.19,8.19,0,0,1-2.32-5.92,8.38,8.38,0,0,1,2.35-6.06,8.81,8.81,0,0,1,6.41-2.27,8.59,8.59,0,0,1,6,2.13,8.77,8.77,0,0,1,2.48,6.58Zm-5.14-3.22a3.73,3.73,0,0,0-.91-1.68,3.25,3.25,0,0,0-2.31-.84,3,3,0,0,0-2.28.84,3.27,3.27,0,0,0-.84,1.68Z"/><path d="M1141.7,277a8.15,8.15,0,0,0,2.25,1.16,7.34,7.34,0,0,0,2.16.38,2.42,2.42,0,0,0,1.44-.42.92.92,0,0,0,.28-.73.86.86,0,0,0-.28-.71,3.56,3.56,0,0,0-1.47-.56l-1.47-.35a5,5,0,0,1-2.73-1.36,3.78,3.78,0,0,1-1-2.7,5.61,5.61,0,0,1,1.47-3.81,7.89,7.89,0,0,1,5.61-1.89,13,13,0,0,1,5,1l-1.89,3.57a7.77,7.77,0,0,0-2.94-.77,2.38,2.38,0,0,0-1.3.32.84.84,0,0,0-.49.77.91.91,0,0,0,.67.87c.53.21,1,.21,1.86.46l1,.28a6.69,6.69,0,0,1,2.31,1.22,4.44,4.44,0,0,1,1.19,3.12,5.21,5.21,0,0,1-1.58,3.89c-1.82,1.82-4.48,2-5.77,2a11.58,11.58,0,0,1-6.3-1.82Zm2.73,6.93,5.26.56-3.58,6.44-3.5-.42Z"/><path d="M1159,256.88a3.15,3.15,0,1,1-3.15,3.15A3.14,3.14,0,0,1,1159,256.88Zm2.8,9.66v15.65h-5.6V266.54Z"/><path d="M1165.64,266.54h5.6v2.56a5.06,5.06,0,0,1,2.21-2.17,6,6,0,0,1,2.91-.63l1.11.07v5.28a4.86,4.86,0,0,0-2.41-.56,3.71,3.71,0,0,0-2.56.84,4.73,4.73,0,0,0-1.26,3.57v6.69h-5.6Z"/><path d="M1196.55,275.4h-11.66a4,4,0,0,0,1,2.62,3.1,3.1,0,0,0,2.31.77,4.44,4.44,0,0,0,1.82-.41,2.54,2.54,0,0,0,1-1.06h5.36a6.94,6.94,0,0,1-1.89,3.23c-1.16,1.12-3,2.17-6.37,2.17a8.9,8.9,0,0,1-6.48-2.38,8.23,8.23,0,0,1-2.31-5.92,8.34,8.34,0,0,1,2.35-6.06,8.79,8.79,0,0,1,6.4-2.27,8.59,8.59,0,0,1,6,2.13,8.77,8.77,0,0,1,2.48,6.58Zm-5.14-3.22a3.75,3.75,0,0,0-.92-1.68,3.23,3.23,0,0,0-2.31-.84,3,3,0,0,0-2.27.84,3.12,3.12,0,0,0-.84,1.68Z"/><rect x="1054" y="231.91" width="199" height="84" rx="12" ry="12" transform="translate(2307 547.82) rotate(180)" style="fill:none;stroke:#4fc2c9;stroke-miterlimit:10;stroke-width:7px"/><line x1="1239.5" y1="299.91" x2="1239.5" y2="247.91" style="fill:none;stroke:#4fc2c9;stroke-miterlimit:10;stroke-width:7px"/><path d="M621.28,92.83a16,16,0,0,1-5.85,1.29,14.11,14.11,0,0,1-10.06-3.9,13.61,13.61,0,0,1-3.94-9.48,13.66,13.66,0,0,1,13.76-13.65,16.2,16.2,0,0,1,6.09,1.33v8.07a7.24,7.24,0,0,0-5.89-2.84,6.59,6.59,0,0,0-4.68,1.71,6.93,6.93,0,0,0,4.68,12.21,7.65,7.65,0,0,0,5.89-2.73Z"/><path d="M632.32,84.92v8.62h-6.75v-26h10.76a9,9,0,0,1,6.59,2.34,8.07,8.07,0,0,1,2.42,6.32,8.46,8.46,0,0,1-2.3,6.48,8.7,8.7,0,0,1-6.47,2.26Zm0-5.46h2.26a4.38,4.38,0,0,0,2.84-.82,3,3,0,0,0,.86-2.38,3.17,3.17,0,0,0-.78-2.34,4,4,0,0,0-2.88-.94h-2.3Z"/><path d="M655.68,67.52V82.93A5.29,5.29,0,0,0,657,87a4.81,4.81,0,0,0,6.32.11c1.56-1.36,1.52-3.27,1.52-4.72V67.52h6.75V82.46c0,2.73-.12,5.58-2.93,8.42-2.18,2.23-4.91,3.24-8.58,3.24-4.09,0-7-1.4-8.61-3.12-2.27-2.46-2.54-5.77-2.54-8.54V67.52Z"/><path d="M610.85,137.26v13.83a4.73,4.73,0,0,0,1.19,3.6,4.31,4.31,0,0,0,5.67.11c1.4-1.23,1.37-2.94,1.37-4.24v-13.3h6v13.41c0,2.45-.1,5-2.62,7.56a10.07,10.07,0,0,1-7.7,2.91c-3.68,0-6.3-1.26-7.74-2.81-2-2.2-2.27-5.18-2.27-7.66V137.26Z"/><path d="M644.28,156.69h-8.47l-1.58,3.92h-6.4l9-23.35h6.61l8.79,23.35h-6.48Zm-1.61-4.62L640,144.51l-2.55,7.56Z"/><path d="M660.94,137.26v18.2h7.28v5.15H654.88V137.26Z"/><path d="M621.56,263.26v13.83a4.73,4.73,0,0,0,1.19,3.6,4.31,4.31,0,0,0,5.67.11c1.4-1.23,1.37-2.94,1.37-4.24v-13.3h6.05v13.41c0,2.45-.1,5-2.62,7.56a10.07,10.07,0,0,1-7.7,2.91c-3.68,0-6.3-1.26-7.74-2.81-2-2.2-2.27-5.18-2.27-7.66V263.26Z"/><path d="M657.51,286a14.38,14.38,0,0,1-5.25,1.16,12.69,12.69,0,0,1-9-3.5,12.26,12.26,0,0,1-3.54-8.51,12.26,12.26,0,0,1,12.36-12.25,14.37,14.37,0,0,1,5.46,1.19v7.24a6.51,6.51,0,0,0-5.29-2.55,5.89,5.89,0,0,0-4.2,1.54,6.54,6.54,0,0,0-2,4.79,6,6,0,0,0,6.23,6.16,6.85,6.85,0,0,0,5.29-2.45Z"/><rect x="512.77" y="115" width="246" height="66" rx="12" ry="12" style="fill:none;stroke:#a2b969;stroke-miterlimit:10;stroke-width:7px"/><rect x="512.77" y="242" width="246" height="66" rx="12" ry="12" style="fill:none;stroke:#a2b969;stroke-miterlimit:10;stroke-width:7px"/><rect x="685.75" y="531" width="58" height="14" style="fill:none;stroke:#c13018;stroke-miterlimit:10;stroke-width:7px"/><rect x="525.75" y="531" width="143" height="14" style="fill:none;stroke:#c13018;stroke-miterlimit:10;stroke-width:7px"/><rect x="709" y="573.45" width="23" height="37.1" rx="3.02" ry="3.02" transform="translate(1441 1184) rotate(180)" style="fill:none;stroke:#c13018;stroke-miterlimit:10;stroke-width:7px"/><rect x="666.25" y="573.45" width="23" height="37.1" rx="4.38" ry="4.38" transform="translate(1355.5 1184) rotate(180)" style="fill:none;stroke:#c13018;stroke-miterlimit:10;stroke-width:7px"/><rect x="623.5" y="573.45" width="23" height="37.1" rx="4.38" ry="4.38" transform="translate(1270 1184) rotate(180)" style="fill:none;stroke:#c13018;stroke-miterlimit:10;stroke-width:7px"/><rect x="580.75" y="573.45" width="23" height="37.1" rx="4.38" ry="4.38" transform="translate(1184.5 1184) rotate(180)" style="fill:none;stroke:#c13018;stroke-miterlimit:10;stroke-width:7px"/><rect x="538" y="573.45" width="23" height="37.1" rx="4.38" ry="4.38" transform="translate(1099 1184) rotate(180)" style="fill:none;stroke:#c13018;stroke-miterlimit:10;stroke-width:7px"/><path d="M520.5,606.5a15,15,0,0,1-7.5,13v6.4a5.14,5.14,0,0,0,5.13,5.12H756.88a5.14,5.14,0,0,0,5.12-5.12v-6.4a15,15,0,0,1,0-26V552.13a5.14,5.14,0,0,0-5.12-5.13H518.13a5.15,5.15,0,0,0-5.13,5.13v41.39A15,15,0,0,1,520.5,606.5Z" style="fill:none;stroke:#c13018;stroke-miterlimit:10;stroke-width:7px"/><polygon points="260.5 292.28 371.5 292.28 371.5 308.28 405.5 274.28 371.5 240.28 371.5 256.28 260.5 256.28 260.5 292.28" style="fill:none;stroke:#4fc2c9;stroke-miterlimit:10;stroke-width:7px"/><polygon points="886.5 291.91 997.5 291.91 997.5 307.91 1031.5 273.91 997.5 239.91 997.5 255.91 886.5 255.91 886.5 291.91" style="fill:none;stroke:#4fc2c9;stroke-miterlimit:10;stroke-width:7px"/><polygon points="556.59 509.65 556.59 444.35 566 444.35 546 424.35 526 444.35 535.41 444.35 535.41 509.65 556.59 509.65" style="fill:none;stroke:#c13018;stroke-miterlimit:10;stroke-width:7px"/><polygon points="628.41 424.35 628.41 489.65 619 489.65 639 509.65 659 489.65 649.59 489.65 649.59 424.35 628.41 424.35" style="fill:none;stroke:#c13018;stroke-miterlimit:10;stroke-width:7px"/><polygon points="623.62 227.7 623.62 202.9 627.19 202.9 619.6 195.3 612 202.9 615.58 202.9 615.58 227.7 623.62 227.7" style="fill:none;stroke:#a2b969;stroke-miterlimit:10;stroke-width:8px"/><polygon points="649.38 195.3 649.38 220.1 645.81 220.1 653.4 227.7 661 220.1 657.42 220.1 657.42 195.3 649.38 195.3" style="fill:none;stroke:#a2b969;stroke-miterlimit:10;stroke-width:8px"/><path d="M499.46,672.2l3.39-20H508l4,10.68,4.29-10.68h5.19l3,20h-5.19l-1.47-11.52L513,672.2H511l-4.62-11.52-1.71,11.52Z"/><path d="M541.58,666.38h-10a3.39,3.39,0,0,0,.84,2.25,2.7,2.7,0,0,0,2,.66,3.79,3.79,0,0,0,1.56-.36,2.23,2.23,0,0,0,.84-.9h4.59a6,6,0,0,1-1.62,2.76c-1,1-2.55,1.86-5.46,1.86a7.61,7.61,0,0,1-5.55-2,7,7,0,0,1-2-5.07,7.16,7.16,0,0,1,2-5.19,7.55,7.55,0,0,1,5.49-2,7.35,7.35,0,0,1,5.16,1.83,7.51,7.51,0,0,1,2.13,5.64Zm-4.41-2.76a3.22,3.22,0,0,0-.78-1.44,2.8,2.8,0,0,0-2-.72,2.58,2.58,0,0,0-1.95.72,2.74,2.74,0,0,0-.72,1.44Z"/><path d="M544.34,658.79h4.8v1.62a5.15,5.15,0,0,1,4-1.86,5.46,5.46,0,0,1,2.58.6,4.19,4.19,0,0,1,1.86,1.92,4.71,4.71,0,0,1,1.83-1.86,5.44,5.44,0,0,1,2.79-.66,5.33,5.33,0,0,1,3.72,1.23,4.91,4.91,0,0,1,1.25,3.69v8.73H562.4v-6.63c0-1.41-.15-2.37-.69-2.88a1.75,1.75,0,0,0-1.26-.45,1.94,1.94,0,0,0-1.41.54,3.43,3.43,0,0,0-.87,2.55v6.87h-4.8v-6.63a4.29,4.29,0,0,0-.63-2.88,1.86,1.86,0,0,0-1.44-.54,1.69,1.69,0,0,0-1.32.48,4,4,0,0,0-.84,2.94v6.63h-4.8Z"/><path d="M584,670.43a9.16,9.16,0,0,1-12,0,6.92,6.92,0,0,1,0-9.87,9.16,9.16,0,0,1,12,0,6.92,6.92,0,0,1,0,9.87Zm-8.12-7.14a3,3,0,1,0,4.29,4.32,3,3,0,0,0,.93-2.13,3.26,3.26,0,0,0-.93-2.19,3.08,3.08,0,0,0-4.29,0Z"/><path d="M588.85,658.79h4.8V661a4.33,4.33,0,0,1,1.89-1.86,5.24,5.24,0,0,1,2.49-.54l1,.06v4.53a4.23,4.23,0,0,0-2.07-.48,3.14,3.14,0,0,0-2.19.72,4,4,0,0,0-1.08,3.06v5.73h-4.8Z"/><path d="M603.52,650.51a2.7,2.7,0,1,1-2.69,2.7A2.69,2.69,0,0,1,603.52,650.51Zm2.4,8.28V672.2h-4.79V658.79Z"/><path d="M623.41,666.38h-10a3.39,3.39,0,0,0,.84,2.25,2.72,2.72,0,0,0,2,.66,3.79,3.79,0,0,0,1.56-.36,2.23,2.23,0,0,0,.84-.9h4.59a6,6,0,0,1-1.62,2.76c-1,1-2.55,1.86-5.46,1.86a7.61,7.61,0,0,1-5.55-2,7,7,0,0,1-2-5.07,7.15,7.15,0,0,1,2-5.19,7.58,7.58,0,0,1,5.5-2,7.34,7.34,0,0,1,5.15,1.83,7.51,7.51,0,0,1,2.13,5.64ZM619,663.62a3.22,3.22,0,0,0-.78-1.44,2.8,2.8,0,0,0-2-.72,2.58,2.58,0,0,0-2,.72,2.81,2.81,0,0,0-.72,1.44Z"/><path d="M638,679.07h-4.8V658.79H638v1.47a5,5,0,0,1,4.11-1.92,6.67,6.67,0,0,1,4.77,1.95,7.61,7.61,0,0,1-.12,10.5,6.44,6.44,0,0,1-4.59,1.86,5.71,5.71,0,0,1-4.17-1.74Zm.78-15.75a3.27,3.27,0,0,0-.93,2.22,3.24,3.24,0,0,0,.93,2.13,3.07,3.07,0,0,0,2.16.9,2.9,2.9,0,0,0,2.13-.9,3.17,3.17,0,0,0,.93-2.13,3.27,3.27,0,0,0-.93-2.22,2.9,2.9,0,0,0-2.13-.9A3.07,3.07,0,0,0,638.74,663.32Z"/><path d="M651.64,658.79h4.8V661a4.33,4.33,0,0,1,1.89-1.86,5.24,5.24,0,0,1,2.49-.54l1,.06v4.53a4.23,4.23,0,0,0-2.07-.48,3.14,3.14,0,0,0-2.19.72,4,4,0,0,0-1.08,3.06v5.73h-4.8Z"/><path d="M666.31,650.51a2.7,2.7,0,1,1-2.7,2.7A2.69,2.69,0,0,1,666.31,650.51Zm2.4,8.28V672.2h-4.8V658.79Z"/><path d="M672,658.79h4.8v1.68a5.06,5.06,0,0,1,4.26-2,5.42,5.42,0,0,1,4,1.44,4.62,4.62,0,0,1,1.26,3.75v8.52h-4.8v-6.78a3.85,3.85,0,0,0-.6-2.61,2,2,0,0,0-1.53-.57,2.63,2.63,0,0,0-1.77.63,3.08,3.08,0,0,0-.78,2.13v7.2H672Z"/><path d="M699.67,671.9a7.12,7.12,0,0,1-3.33.75,7.41,7.41,0,0,1-5.28-2,7,7,0,0,1-2.07-5,7.3,7.3,0,0,1,2.16-5.19,7.73,7.73,0,0,1,5.4-2,6.88,6.88,0,0,1,3.12.75v4a4.28,4.28,0,0,0-2.49-.87,3.15,3.15,0,0,0-2.34.93,3.26,3.26,0,0,0-.93,2.31,3.44,3.44,0,0,0,.84,2.25,3.26,3.26,0,0,0,2.46,1,3.63,3.63,0,0,0,2.46-.9Z"/><path d="M704.8,650.51a2.7,2.7,0,1,1-2.7,2.7A2.69,2.69,0,0,1,704.8,650.51Zm2.4,8.28V672.2h-4.8V658.79Z"/><path d="M715.27,679.07h-4.8V658.79h4.8v1.47a5,5,0,0,1,4.11-1.92,6.67,6.67,0,0,1,4.77,1.95,7.61,7.61,0,0,1-.12,10.5,6.44,6.44,0,0,1-4.59,1.86,5.71,5.71,0,0,1-4.17-1.74Zm.78-15.75a3.27,3.27,0,0,0-.93,2.22,3.24,3.24,0,0,0,.93,2.13,3.07,3.07,0,0,0,2.16.9,2.9,2.9,0,0,0,2.13-.9,3.17,3.17,0,0,0,.93-2.13,3.27,3.27,0,0,0-.93-2.22,2.9,2.9,0,0,0-2.13-.9A3.07,3.07,0,0,0,716.05,663.32Z"/><path d="M739.33,658.79h4.8V672.2h-4.8v-1.47a5,5,0,0,1-4.17,1.92,6.42,6.42,0,0,1-4.83-2.13,6.76,6.76,0,0,1-1.92-4.92,7.42,7.42,0,0,1,2.07-5.37,6.9,6.9,0,0,1,4.83-1.89,5.31,5.31,0,0,1,4,1.74Zm-5,4.5a3.14,3.14,0,0,0-1,2.19,3.09,3.09,0,0,0,.93,2.19,3.37,3.37,0,0,0,2.16.9,3.08,3.08,0,0,0,2.16-.93,2.91,2.91,0,0,0,.9-2.16,3,3,0,0,0-.93-2.19,3,3,0,0,0-4.26,0Z"/><path d="M752.23,650.33V672.2h-4.8V650.33Z"/><path d="M765.88,658.79h4.8V672.2h-4.8v-1.47a5,5,0,0,1-4.17,1.92,6.42,6.42,0,0,1-4.83-2.13A6.76,6.76,0,0,1,755,665.6a7.42,7.42,0,0,1,2.07-5.37,6.9,6.9,0,0,1,4.83-1.89,5.31,5.31,0,0,1,4,1.74Zm2.64-6.9a4.73,4.73,0,0,1-1.32,3.27,6.31,6.31,0,0,1-7.8,0,4.73,4.73,0,0,1-1.32-3.27h3.09a2.08,2.08,0,0,0,.6,1.23,2.44,2.44,0,0,0,3.06,0,2.08,2.08,0,0,0,.6-1.23Zm-7.68,11.4a3.14,3.14,0,0,0-1,2.19,3.09,3.09,0,0,0,.93,2.19,3.37,3.37,0,0,0,2.16.9,3.08,3.08,0,0,0,2.16-.93,2.91,2.91,0,0,0,.9-2.16,3,3,0,0,0-.93-2.19,3,3,0,0,0-4.26,0Z"/><rect x="496.27" y="54" width="279" height="279" rx="12" ry="12" style="fill:none;stroke:#91c54f;stroke-miterlimit:10;stroke-width:7px"/></svg>