<svg id="Layer_1" data-name="Layer 1" xmlns="http://www.w3.org/2000/svg" viewBox="0 0 768 1004"><title>Cap 8 -</title><polygon points="377.37 148.41 377.37 213.71 367.96 213.71 387.96 233.71 407.96 213.71 398.55 213.71 398.55 148.41 377.37 148.41" style="fill:none;stroke:#4fc2c9;stroke-miterlimit:10;stroke-width:5px"/><rect x="316.64" y="32.06" width="142.83" height="96" rx="12" ry="12" style="fill:none;stroke:#4fc2c9;stroke-miterlimit:10;stroke-width:5px"/><line x1="316.45" y1="52.94" x2="459.28" y2="52.94" style="fill:none;stroke:#4fc2c9;stroke-miterlimit:10;stroke-width:5px"/><circle cx="428.64" cy="42.21" r="3.12" style="fill:#4fc2c9"/><circle cx="438.79" cy="42.21" r="3.12" style="fill:#4fc2c9"/><circle cx="448.16" cy="42.21" r="3.12" style="fill:#4fc2c9"/><path d="M178.39,83.44v6.63H173.2v-20h8.28a6.89,6.89,0,0,1,5.07,1.8,6.2,6.2,0,0,1,1.86,4.86,6.5,6.5,0,0,1-1.77,5,6.66,6.66,0,0,1-5,1.74Zm0-4.2h1.74a3.39,3.39,0,0,0,2.19-.63,2.29,2.29,0,0,0,.66-1.83,2.43,2.43,0,0,0-.6-1.8,3,3,0,0,0-2.22-.72h-1.77Z"/><path d="M190.72,76.66h4.8v2.19A4.33,4.33,0,0,1,197.41,77a5.24,5.24,0,0,1,2.49-.54l1,.06V81a4.23,4.23,0,0,0-2.07-.48,3.14,3.14,0,0,0-2.19.72,4,4,0,0,0-1.08,3.06v5.73h-4.8Z"/><path d="M215.89,88.3a9.18,9.18,0,0,1-12,0,6.92,6.92,0,0,1,0-9.87,8.37,8.37,0,0,1,6-2.22,8.47,8.47,0,0,1,6,2.22,6.92,6.92,0,0,1,0,9.87Zm-8.13-7.14a3.06,3.06,0,0,0,2.16,5.22,3.05,3.05,0,0,0,2.13-.9,3,3,0,0,0,.93-2.13,3.26,3.26,0,0,0-.93-2.19,3.08,3.08,0,0,0-4.29,0Z"/><path d="M235.81,76.66V89.23c0,2-.18,3.84-1.83,5.55a8,8,0,0,1-5.91,2.16,8.22,8.22,0,0,1-6.27-2.37,4.88,4.88,0,0,1-1.47-2.79h5.34a2.06,2.06,0,0,0,2.25,1.38,2.92,2.92,0,0,0,2.13-.75,3.23,3.23,0,0,0,1-2.49V88.57a5.1,5.1,0,0,1-4,1.77,6.68,6.68,0,0,1-5-1.89,7.08,7.08,0,0,1-1.86-4.89,7.73,7.73,0,0,1,2-5.25,6.74,6.74,0,0,1,4.86-2A5.24,5.24,0,0,1,231,78V76.66ZM226,81.16a3,3,0,0,0,0,4.35,3,3,0,0,0,2.16.87,3.07,3.07,0,0,0,3.06-3.06,3.44,3.44,0,0,0-1-2.19,3,3,0,0,0-2.13-.87A2.86,2.86,0,0,0,226,81.16Z"/><path d="M239.11,76.66h4.8v2.19A4.33,4.33,0,0,1,245.8,77a5.24,5.24,0,0,1,2.49-.54l1,.06V81a4.23,4.23,0,0,0-2.07-.48,3.14,3.14,0,0,0-2.19.72,4,4,0,0,0-1.08,3.06v5.73h-4.8Z"/><path d="M261.76,76.66h4.8V90.07h-4.8V88.6a5,5,0,0,1-4.17,1.92,6.42,6.42,0,0,1-4.83-2.13,6.76,6.76,0,0,1-1.92-4.92,7.42,7.42,0,0,1,2.07-5.37,6.9,6.9,0,0,1,4.83-1.89,5.31,5.31,0,0,1,4,1.74Zm-5,4.5a3.14,3.14,0,0,0-1,2.19,3.09,3.09,0,0,0,.93,2.19,3.37,3.37,0,0,0,2.16.9,3.08,3.08,0,0,0,2.16-.93,2.91,2.91,0,0,0,.9-2.16,3,3,0,0,0-.93-2.19,3,3,0,0,0-4.26,0Z"/><path d="M269.86,76.66h4.8v1.62a5.15,5.15,0,0,1,4-1.86,5.46,5.46,0,0,1,2.58.6,4.19,4.19,0,0,1,1.86,1.92A4.71,4.71,0,0,1,285,77.08a5.44,5.44,0,0,1,2.79-.66,5.33,5.33,0,0,1,3.72,1.23,4.93,4.93,0,0,1,1.26,3.69v8.73h-4.8V83.44c0-1.41-.15-2.37-.69-2.88a1.75,1.75,0,0,0-1.26-.45,1.94,1.94,0,0,0-1.41.54,3.43,3.43,0,0,0-.87,2.55v6.87h-4.8V83.44a4.29,4.29,0,0,0-.63-2.88,1.86,1.86,0,0,0-1.44-.54,1.69,1.69,0,0,0-1.32.48,4,4,0,0,0-.84,2.94v6.63h-4.8Z"/><rect x="203.03" y="253.56" width="365" height="83" rx="12" ry="12" style="fill:none;stroke:#91c54f;stroke-miterlimit:10;stroke-width:5px"/><polygon points="250.44 575.62 250.44 640.91 241.03 640.91 261.03 660.91 281.03 640.91 271.62 640.91 271.62 575.62 250.44 575.62" style="fill:none;stroke:#3a5c84;stroke-miterlimit:10;stroke-width:5px"/><rect x="213.53" y="676.56" width="96" height="96" rx="12" ry="12" style="fill:none;stroke:#f7931f;stroke-miterlimit:10;stroke-width:5px"/><path d="M257.65,700.26l23,23a6.11,6.11,0,0,1,0,8.62l-23,23a6.11,6.11,0,0,1-8.62,0V700.26A6.1,6.1,0,0,1,257.65,700.26Z" style="fill:#f7931f"/><polygon points="251.44 356.71 251.44 422.01 242.03 422.01 262.03 442.01 282.03 422.01 272.62 422.01 272.62 356.71 251.44 356.71" style="fill:none;stroke:#91c54f;stroke-miterlimit:10;stroke-width:5px"/><polygon points="498.44 356.71 498.44 422.01 489.03 422.01 509.03 442.01 529.03 422.01 519.62 422.01 519.62 356.71 498.44 356.71" style="fill:none;stroke:#91c54f;stroke-miterlimit:10;stroke-width:5px"/><polygon points="497.44 575.62 497.44 640.91 488.03 640.91 508.03 660.91 528.03 640.91 518.62 640.91 518.62 575.62 497.44 575.62" style="fill:none;stroke:#3a5c84;stroke-miterlimit:10;stroke-width:5px"/><polygon points="250.44 789.41 250.44 854.71 241.03 854.71 261.03 874.71 281.03 854.71 271.62 854.71 271.62 789.41 250.44 789.41" style="fill:none;stroke:#f7931f;stroke-miterlimit:10;stroke-width:5px"/><polygon points="497.44 789.41 497.44 854.71 488.03 854.71 508.03 874.71 528.03 854.71 518.62 854.71 518.62 789.41 497.44 789.41" style="fill:none;stroke:#f7931f;stroke-miterlimit:10;stroke-width:5px"/><rect x="460.53" y="676.56" width="96" height="96" rx="12" ry="12" style="fill:none;stroke:#f7931f;stroke-miterlimit:10;stroke-width:5px"/><path d="M510.86,508.28a9.7,9.7,0,1,0,9.7,9.7A9.69,9.69,0,0,0,510.86,508.28Z" style="fill:none;stroke:#3a5c84;stroke-miterlimit:10;stroke-width:5px"/><path d="M533,513.82a1.38,1.38,0,0,0-1.38-1.38H528a18,18,0,0,0-1.09-2.65l2.59-2.59a1.39,1.39,0,0,0,0-2l-5.88-5.87a1.39,1.39,0,0,0-2,0L519.05,502a17.88,17.88,0,0,0-2.64-1.09V497.2a1.39,1.39,0,0,0-1.39-1.39h-8.31a1.39,1.39,0,0,0-1.39,1.39v3.66a17.88,17.88,0,0,0-2.64,1.09l-2.59-2.58a1.39,1.39,0,0,0-2,0l-5.88,5.87a1.39,1.39,0,0,0,0,2l2.59,2.59q-.18.34-.33.69a16.61,16.61,0,0,0-.77,2h-3.66a1.38,1.38,0,0,0-1.38,1.38v8.32a1.38,1.38,0,0,0,1.38,1.38h3.66a18,18,0,0,0,1.1,2.65l-2.59,2.58a1.39,1.39,0,0,0,0,2l5.88,5.88a1.39,1.39,0,0,0,2,0l2.59-2.59a17.93,17.93,0,0,0,2.64,1.1v3.66a1.39,1.39,0,0,0,1.39,1.39H515a1.39,1.39,0,0,0,1.39-1.39V535.1a17.93,17.93,0,0,0,2.64-1.1l2.59,2.59a1.39,1.39,0,0,0,2,0l5.88-5.88a1.39,1.39,0,0,0,0-2l-2.59-2.58a18,18,0,0,0,1.09-2.65h3.67a1.38,1.38,0,0,0,1.38-1.38Z" style="fill:none;stroke:#3a5c84;stroke-miterlimit:10;stroke-width:5px"/><rect x="460.53" y="462.06" width="96" height="96" rx="12" ry="12" style="fill:none;stroke:#3a5c84;stroke-miterlimit:10;stroke-width:5px"/><circle cx="468.03" cy="470.56" r="3" style="fill:#3a5c84"/><circle cx="477.53" cy="470.56" r="3" style="fill:#3a5c84"/><circle cx="487.03" cy="470.56" r="3" style="fill:#3a5c84"/><line x1="470.03" y1="480.56" x2="534.03" y2="480.56" style="fill:none;stroke:#3a5c84;stroke-miterlimit:10;stroke-width:5px"/><line x1="470.03" y1="487.06" x2="484.53" y2="487.06" style="fill:none;stroke:#3a5c84;stroke-miterlimit:10;stroke-width:5px"/><line x1="470.03" y1="493.06" x2="484.53" y2="493.06" style="fill:none;stroke:#3a5c84;stroke-miterlimit:10;stroke-width:5px"/><line x1="533.03" y1="550.06" x2="547.53" y2="550.06" style="fill:none;stroke:#3a5c84;stroke-miterlimit:10;stroke-width:5px"/><path d="M263.86,508.28a9.7,9.7,0,1,0,9.7,9.7A9.69,9.69,0,0,0,263.86,508.28Z" style="fill:none;stroke:#3a5c84;stroke-miterlimit:10;stroke-width:5px"/><path d="M286,513.82a1.38,1.38,0,0,0-1.38-1.38H281a18,18,0,0,0-1.09-2.65l2.59-2.59a1.39,1.39,0,0,0,0-2l-5.88-5.87a1.39,1.39,0,0,0-2,0L272.05,502a17.88,17.88,0,0,0-2.64-1.09V497.2a1.39,1.39,0,0,0-1.39-1.39h-8.31a1.39,1.39,0,0,0-1.39,1.39v3.66a17.88,17.88,0,0,0-2.64,1.09l-2.59-2.58a1.39,1.39,0,0,0-2,0l-5.88,5.87a1.39,1.39,0,0,0,0,2l2.59,2.59q-.18.34-.33.69a16.61,16.61,0,0,0-.77,2h-3.66a1.38,1.38,0,0,0-1.38,1.38v8.32a1.38,1.38,0,0,0,1.38,1.38h3.66a18,18,0,0,0,1.1,2.65l-2.59,2.58a1.39,1.39,0,0,0,0,2l5.88,5.88a1.39,1.39,0,0,0,2,0l2.59-2.59a17.93,17.93,0,0,0,2.64,1.1v3.66a1.39,1.39,0,0,0,1.39,1.39H268a1.39,1.39,0,0,0,1.39-1.39V535.1a17.93,17.93,0,0,0,2.64-1.1l2.59,2.59a1.39,1.39,0,0,0,2,0l5.88-5.88a1.39,1.39,0,0,0,0-2l-2.59-2.58a18,18,0,0,0,1.09-2.65h3.67a1.38,1.38,0,0,0,1.38-1.38Z" style="fill:none;stroke:#3a5c84;stroke-miterlimit:10;stroke-width:5px"/><rect x="213.53" y="462.06" width="96" height="96" rx="12" ry="12" style="fill:none;stroke:#3a5c84;stroke-miterlimit:10;stroke-width:5px"/><circle cx="221.03" cy="470.56" r="3" style="fill:#3a5c84"/><circle cx="230.53" cy="470.56" r="3" style="fill:#3a5c84"/><circle cx="240.03" cy="470.56" r="3" style="fill:#3a5c84"/><line x1="223.03" y1="480.56" x2="287.03" y2="480.56" style="fill:none;stroke:#3a5c84;stroke-miterlimit:10;stroke-width:5px"/><line x1="223.03" y1="487.06" x2="237.53" y2="487.06" style="fill:none;stroke:#3a5c84;stroke-miterlimit:10;stroke-width:5px"/><line x1="223.03" y1="493.06" x2="237.53" y2="493.06" style="fill:none;stroke:#3a5c84;stroke-miterlimit:10;stroke-width:5px"/><line x1="286.03" y1="550.06" x2="300.53" y2="550.06" style="fill:none;stroke:#3a5c84;stroke-miterlimit:10;stroke-width:5px"/><path d="M504.65,700.26l23,23a6.11,6.11,0,0,1,0,8.62l-23,23a6.11,6.11,0,0,1-8.62,0V700.26A6.1,6.1,0,0,1,504.65,700.26Z" style="fill:#f7931f"/><rect x="147.53" y="888.94" width="227" height="83" rx="12" ry="12" style="fill:none;stroke:#636868;stroke-miterlimit:10;stroke-width:5px"/><rect x="394.53" y="888.94" width="227" height="83" rx="12" ry="12" style="fill:none;stroke:#636868;stroke-miterlimit:10;stroke-width:5px"/><path d="M183.62,937.85v-20h6.81a11.16,11.16,0,0,1,7.95,2.76,9.77,9.77,0,0,1,2.79,7.29,9.23,9.23,0,0,1-2.61,6.93,10.87,10.87,0,0,1-7.68,3Zm5.19-4.41h1.05a6,6,0,0,0,4.38-1.44,5.45,5.45,0,0,0,1.53-4.11,6,6,0,0,0-1.56-4.38,5.83,5.83,0,0,0-4.14-1.26h-1.26Z"/><path d="M206.42,916.16a2.7,2.7,0,1,1-2.7,2.7A2.69,2.69,0,0,1,206.42,916.16Zm2.4,8.28v13.41H204V924.44Z"/><path d="M213,933.41a6.87,6.87,0,0,0,1.92,1,6.25,6.25,0,0,0,1.86.33,2,2,0,0,0,1.23-.36.77.77,0,0,0,.24-.63.71.71,0,0,0-.24-.6,3,3,0,0,0-1.26-.48l-1.26-.3a4.31,4.31,0,0,1-2.34-1.17,3.24,3.24,0,0,1-.87-2.31,4.79,4.79,0,0,1,1.26-3.27,6.77,6.77,0,0,1,4.8-1.62,11.07,11.07,0,0,1,4.29.87L221,927.92a6.64,6.64,0,0,0-2.52-.66,2,2,0,0,0-1.11.27.72.72,0,0,0-.42.66.78.78,0,0,0,.57.75c.45.18.84.18,1.59.39l.87.24a5.67,5.67,0,0,1,2,1,3.79,3.79,0,0,1,1,2.67,4.48,4.48,0,0,1-1.35,3.33,7,7,0,0,1-4.95,1.68,9.89,9.89,0,0,1-5.4-1.56Z"/><path d="M230.21,944.72h-4.8V924.44h4.8v1.47a5,5,0,0,1,4.11-1.92,6.67,6.67,0,0,1,4.77,2,7.61,7.61,0,0,1-.12,10.5,6.44,6.44,0,0,1-4.59,1.86,5.71,5.71,0,0,1-4.17-1.74ZM231,929a3.27,3.27,0,0,0-.93,2.22,3.24,3.24,0,0,0,.93,2.13,3.07,3.07,0,0,0,2.16.9,2.9,2.9,0,0,0,2.13-.9,3.17,3.17,0,0,0,.93-2.13,3.27,3.27,0,0,0-.93-2.22,2.9,2.9,0,0,0-2.13-.9A3.07,3.07,0,0,0,231,929Z"/><path d="M257.39,936.08a9.18,9.18,0,0,1-12,0,6.92,6.92,0,0,1,0-9.87,8.37,8.37,0,0,1,6-2.22,8.47,8.47,0,0,1,6,2.22,6.92,6.92,0,0,1,0,9.87Zm-8.13-7.14a3.06,3.06,0,0,0,2.16,5.22,3.05,3.05,0,0,0,2.13-.9,3,3,0,0,0,.93-2.13,3.26,3.26,0,0,0-.93-2.19,3.08,3.08,0,0,0-4.29,0Z"/><path d="M269.21,933.92h5.61v3.93H261.17l6.33-9.48h-5.4v-3.93h13.37Z"/><path d="M280.13,916.16a2.7,2.7,0,1,1-2.7,2.7A2.68,2.68,0,0,1,280.13,916.16Zm2.4,8.28v13.41h-4.8V924.44Z"/><path d="M291.1,928.37v9.48h-4.8v-9.48h-1.52v-3.93h1.52V920h4.8v4.41h2.73v3.93Z"/><path d="M298,916.16a2.7,2.7,0,1,1-2.69,2.7A2.69,2.69,0,0,1,298,916.16Zm2.4,8.28v13.41h-4.8V924.44Z"/><path d="M307.42,924.44l3.21,6.87,3.27-6.87h5.34l-7,13.41H309l-6.93-13.41Z"/><path d="M333.25,922.25H330.4v-4.41h8v20h-5.19Z"/><path d="M428.31,937.85v-20h6.81a11.16,11.16,0,0,1,7.95,2.76,9.77,9.77,0,0,1,2.79,7.29,9.23,9.23,0,0,1-2.61,6.93,10.87,10.87,0,0,1-7.68,3Zm5.19-4.41h1.05a6,6,0,0,0,4.38-1.44,5.45,5.45,0,0,0,1.53-4.11,6,6,0,0,0-1.56-4.38,5.83,5.83,0,0,0-4.14-1.26H433.5Z"/><path d="M451.11,916.16a2.7,2.7,0,1,1-2.7,2.7A2.69,2.69,0,0,1,451.11,916.16Zm2.4,8.28v13.41h-4.8V924.44Z"/><path d="M457.65,933.41a6.87,6.87,0,0,0,1.92,1,6.25,6.25,0,0,0,1.86.33,2,2,0,0,0,1.23-.36.77.77,0,0,0,.24-.63.71.71,0,0,0-.24-.6,3,3,0,0,0-1.26-.48l-1.26-.3a4.31,4.31,0,0,1-2.34-1.17,3.24,3.24,0,0,1-.87-2.31,4.79,4.79,0,0,1,1.26-3.27A6.77,6.77,0,0,1,463,924a11.07,11.07,0,0,1,4.29.87l-1.62,3.06a6.64,6.64,0,0,0-2.52-.66,2,2,0,0,0-1.11.27.72.72,0,0,0-.42.66.78.78,0,0,0,.57.75c.45.18.84.18,1.59.39l.87.24a5.67,5.67,0,0,1,2,1,3.79,3.79,0,0,1,1,2.67,4.48,4.48,0,0,1-1.35,3.33,7,7,0,0,1-5,1.68,9.89,9.89,0,0,1-5.4-1.56Z"/><path d="M474.9,944.72h-4.8V924.44h4.8v1.47A5,5,0,0,1,479,924a6.67,6.67,0,0,1,4.77,2,7.61,7.61,0,0,1-.12,10.5,6.44,6.44,0,0,1-4.59,1.86,5.71,5.71,0,0,1-4.17-1.74Zm.78-15.75a3.27,3.27,0,0,0-.93,2.22,3.24,3.24,0,0,0,.93,2.13,3.07,3.07,0,0,0,2.16.9,2.9,2.9,0,0,0,2.13-.9,3.17,3.17,0,0,0,.93-2.13A3.27,3.27,0,0,0,480,929a2.9,2.9,0,0,0-2.13-.9A3.07,3.07,0,0,0,475.68,929Z"/><path d="M502.08,936.08a9.18,9.18,0,0,1-12,0,6.92,6.92,0,0,1,0-9.87,8.37,8.37,0,0,1,6-2.22,8.47,8.47,0,0,1,6,2.22,6.63,6.63,0,0,1,2.07,4.92A6.73,6.73,0,0,1,502.08,936.08ZM494,928.94a3.06,3.06,0,0,0,2.16,5.22,3.05,3.05,0,0,0,2.13-.9,3,3,0,0,0,.93-2.13,3.26,3.26,0,0,0-.93-2.19,3.08,3.08,0,0,0-4.29,0Z"/><path d="M513.9,933.92h5.61v3.93H505.86l6.33-9.48h-5.4v-3.93h13.38Z"/><path d="M524.82,916.16a2.7,2.7,0,1,1-2.7,2.7A2.69,2.69,0,0,1,524.82,916.16Zm2.39,8.28v13.41h-4.79V924.44Z"/><path d="M535.79,928.37v9.48H531v-9.48h-1.54v-3.93H531V920h4.79v4.41h2.74v3.93Z"/><path d="M542.72,916.16a2.7,2.7,0,1,1-2.69,2.7A2.69,2.69,0,0,1,542.72,916.16Zm2.4,8.28v13.41h-4.79V924.44Z"/><path d="M552.12,924.44l3.2,6.87,3.27-6.87h5.34l-7,13.41h-3.28l-6.92-13.41Z"/><path d="M587.75,937.85h-16l5.06-5.31a33.14,33.14,0,0,0,4.11-5.07,5.63,5.63,0,0,0,1.08-3.12,3,3,0,0,0-.6-1.92,2,2,0,0,0-1.47-.6,2.15,2.15,0,0,0-1.74.81,5,5,0,0,0-.72,2.46h-5.37a7.92,7.92,0,0,1,2.23-5.55,8.61,8.61,0,0,1,11.3-.09,6.68,6.68,0,0,1,1.95,4.92c0,2.52-1.17,4.26-3,5.94l-3.36,3.12h6.54Z"/><path d="M261.53,296.56a7,7,0,0,0,4.59,2,2.63,2.63,0,0,0,2-.69,1.79,1.79,0,0,0,.51-1.26,1.56,1.56,0,0,0-.57-1.2,7.21,7.21,0,0,0-2.58-1.05l-1.35-.42a6.54,6.54,0,0,1-2.88-1.62,5,5,0,0,1-1.14-3.54A6.54,6.54,0,0,1,262,284a7.05,7.05,0,0,1,5.13-1.89,14.06,14.06,0,0,1,6.18,1.62l-2.07,4a5.28,5.28,0,0,0-3.42-1.35,2.49,2.49,0,0,0-1.71.6,1.48,1.48,0,0,0-.51,1.08,1.34,1.34,0,0,0,.27.9,3.28,3.28,0,0,0,1.74.9l1.59.48a7.64,7.64,0,0,1,3.63,2,4.72,4.72,0,0,1,1.29,3.57,6.78,6.78,0,0,1-1.89,5,7.76,7.76,0,0,1-5.91,2,10.7,10.7,0,0,1-3.93-.66,14,14,0,0,1-3-1.59Z"/><path d="M279.29,280.87a2.7,2.7,0,1,1-2.7,2.7A2.69,2.69,0,0,1,279.29,280.87Zm2.4,8.28v13.41h-4.8V289.15Z"/><path d="M285.83,298.12a6.87,6.87,0,0,0,1.92,1,6.25,6.25,0,0,0,1.86.33,2,2,0,0,0,1.23-.36.77.77,0,0,0,.24-.63.71.71,0,0,0-.24-.6,3,3,0,0,0-1.26-.48l-1.26-.3A4.31,4.31,0,0,1,286,295.9a3.24,3.24,0,0,1-.87-2.31,4.79,4.79,0,0,1,1.26-3.27,6.77,6.77,0,0,1,4.8-1.62,11.07,11.07,0,0,1,4.29.87l-1.62,3.06a6.64,6.64,0,0,0-2.52-.66,2,2,0,0,0-1.11.27.72.72,0,0,0-.42.66.78.78,0,0,0,.57.75c.45.18.84.18,1.59.39l.87.24a5.67,5.67,0,0,1,2,1.05,3.79,3.79,0,0,1,1,2.67,4.48,4.48,0,0,1-1.35,3.33,7,7,0,0,1-5,1.68,9.89,9.89,0,0,1-5.4-1.56Z"/><path d="M303.59,293.08v9.48h-4.8v-9.48h-1.53v-3.93h1.53v-4.41h4.8v4.41h2.73v3.93Z"/><path d="M322.34,296.74h-10a3.39,3.39,0,0,0,.84,2.25,2.7,2.7,0,0,0,2,.66,3.79,3.79,0,0,0,1.56-.36,2.23,2.23,0,0,0,.84-.9h4.59a6,6,0,0,1-1.62,2.76c-1,1-2.55,1.86-5.46,1.86a7.61,7.61,0,0,1-5.55-2,7,7,0,0,1-2-5.07,7.16,7.16,0,0,1,2-5.19,7.55,7.55,0,0,1,5.49-1.95,7.35,7.35,0,0,1,5.16,1.83,7.51,7.51,0,0,1,2.13,5.64ZM317.93,294a3.22,3.22,0,0,0-.78-1.44,2.8,2.8,0,0,0-2-.72,2.58,2.58,0,0,0-1.95.72,2.74,2.74,0,0,0-.72,1.44Z"/><path d="M325.1,289.15h4.8v1.62a5.15,5.15,0,0,1,4-1.86,5.46,5.46,0,0,1,2.58.6,4.19,4.19,0,0,1,1.86,1.92,4.71,4.71,0,0,1,1.83-1.86,5.44,5.44,0,0,1,2.79-.66,5.33,5.33,0,0,1,3.72,1.23,4.93,4.93,0,0,1,1.26,3.69v8.73h-4.8v-6.63c0-1.41-.15-2.37-.69-2.88a1.75,1.75,0,0,0-1.26-.45,1.94,1.94,0,0,0-1.41.54,3.43,3.43,0,0,0-.87,2.55v6.87h-4.8v-6.63a4.29,4.29,0,0,0-.63-2.88,1.86,1.86,0,0,0-1.44-.54,1.69,1.69,0,0,0-1.32.48,4,4,0,0,0-.84,2.94v6.63h-4.8Z"/><path d="M373.46,302.56h-4.8v-1.47a4.92,4.92,0,0,1-4.05,1.92,6.42,6.42,0,0,1-4.71-1.86,7.4,7.4,0,0,1-2.16-5.34,7.31,7.31,0,0,1,2.19-5.31,6.86,6.86,0,0,1,4.74-1.8,5.31,5.31,0,0,1,4,1.74v-9.75h4.8Zm-5.67-4.44a3.22,3.22,0,0,0,1-2.28,3.51,3.51,0,0,0-.9-2.16,3.08,3.08,0,0,0-4.32,0,3.29,3.29,0,0,0-.93,2.28,3,3,0,0,0,.93,2.1,3,3,0,0,0,2.13.9A3.28,3.28,0,0,0,367.79,298.12Z"/><path d="M391,296.74H381a3.39,3.39,0,0,0,.84,2.25,2.7,2.7,0,0,0,2,.66,3.79,3.79,0,0,0,1.56-.36,2.23,2.23,0,0,0,.84-.9h4.59a6,6,0,0,1-1.62,2.76c-1,1-2.55,1.86-5.46,1.86a7.61,7.61,0,0,1-5.55-2,7,7,0,0,1-2-5.07,7.16,7.16,0,0,1,2-5.19,7.55,7.55,0,0,1,5.49-1.95,7.35,7.35,0,0,1,5.16,1.83,7.51,7.51,0,0,1,2.13,5.64ZM386.57,294a3.22,3.22,0,0,0-.78-1.44,2.8,2.8,0,0,0-2-.72,2.58,2.58,0,0,0-1.95.72,2.74,2.74,0,0,0-.72,1.44Z"/><path d="M414.22,300.79a9.18,9.18,0,0,1-12,0,6.72,6.72,0,0,1-2.06-5,6.63,6.63,0,0,1,2.06-4.92,9.18,9.18,0,0,1,12,0,6.92,6.92,0,0,1,0,9.87Zm-8.13-7.14a3.12,3.12,0,0,0-.92,2.19,3.11,3.11,0,0,0,3.08,3,3,3,0,0,0,2.13-.9,3,3,0,0,0,.93-2.13,3.26,3.26,0,0,0-.93-2.19,3.08,3.08,0,0,0-4.29,0Z"/><path d="M423.86,309.43h-4.8V289.15h4.8v1.47a5,5,0,0,1,4.1-1.92,6.65,6.65,0,0,1,4.77,1.95,7.61,7.61,0,0,1-.12,10.5A6.44,6.44,0,0,1,428,303a5.69,5.69,0,0,1-4.16-1.74Zm.77-15.75a3.31,3.31,0,0,0-.92,2.22,3.23,3.23,0,0,0,.92,2.13,3.1,3.1,0,0,0,2.16.9,2.9,2.9,0,0,0,2.13-.9,3.17,3.17,0,0,0,.93-2.13,3.27,3.27,0,0,0-.93-2.22,2.9,2.9,0,0,0-2.13-.9A3.1,3.1,0,0,0,424.63,293.68Z"/><path d="M451.75,296.74h-10a3.39,3.39,0,0,0,.84,2.25,2.7,2.7,0,0,0,2,.66,3.79,3.79,0,0,0,1.56-.36,2.23,2.23,0,0,0,.84-.9h4.59a6,6,0,0,1-1.62,2.76c-1,1-2.55,1.86-5.46,1.86a7.61,7.61,0,0,1-5.55-2,7,7,0,0,1-2-5.07,7.16,7.16,0,0,1,2-5.19,7.55,7.55,0,0,1,5.49-1.95,7.35,7.35,0,0,1,5.16,1.83,7.51,7.51,0,0,1,2.13,5.64ZM447.34,294a3.22,3.22,0,0,0-.78-1.44,2.8,2.8,0,0,0-2-.72,2.58,2.58,0,0,0-1.95.72,2.74,2.74,0,0,0-.72,1.44Z"/><path d="M454.51,289.15h4.8v2.19a4.33,4.33,0,0,1,1.89-1.86,5.24,5.24,0,0,1,2.49-.54l1,.06v4.53a4.23,4.23,0,0,0-2.07-.48,3.14,3.14,0,0,0-2.19.72,4,4,0,0,0-1.08,3.06v5.73h-4.8Z"/><path d="M477.16,289.15H482v13.41h-4.8v-1.47A5,5,0,0,1,473,303a6.42,6.42,0,0,1-4.83-2.13,6.76,6.76,0,0,1-1.92-4.92,7.42,7.42,0,0,1,2.07-5.37,6.9,6.9,0,0,1,4.83-1.89,5.31,5.31,0,0,1,4,1.74Zm-5,4.5a3.14,3.14,0,0,0-1,2.19,3.09,3.09,0,0,0,.93,2.19,3.37,3.37,0,0,0,2.16.9,3.08,3.08,0,0,0,2.16-.93,2.91,2.91,0,0,0,.9-2.16,3,3,0,0,0-.93-2.19,3,3,0,0,0-4.26,0Z"/><path d="M485.26,289.15h4.8v2.19a4.33,4.33,0,0,1,1.89-1.86,5.24,5.24,0,0,1,2.49-.54l1,.06v4.53a4.23,4.23,0,0,0-2.07-.48,3.14,3.14,0,0,0-2.19.72,4,4,0,0,0-1.08,3.06v5.73h-4.8Z"/><path d="M511.75,296.74h-10a3.39,3.39,0,0,0,.84,2.25,2.7,2.7,0,0,0,2,.66,3.79,3.79,0,0,0,1.56-.36,2.23,2.23,0,0,0,.84-.9h4.59a6,6,0,0,1-1.62,2.76c-1,1-2.55,1.86-5.46,1.86a7.61,7.61,0,0,1-5.55-2,7,7,0,0,1-2-5.07,7.16,7.16,0,0,1,2-5.19,7.55,7.55,0,0,1,5.49-1.95,7.35,7.35,0,0,1,5.16,1.83,7.51,7.51,0,0,1,2.13,5.64ZM507.34,294a3.22,3.22,0,0,0-.78-1.44,2.8,2.8,0,0,0-2-.72,2.58,2.58,0,0,0-1.95.72,2.74,2.74,0,0,0-.72,1.44Z"/><path d="M113.25,499.7v-20h6.81a11.16,11.16,0,0,1,7.95,2.76,9.77,9.77,0,0,1,2.79,7.29,9.23,9.23,0,0,1-2.61,6.93,10.87,10.87,0,0,1-7.68,3Zm5.19-4.41h1a6,6,0,0,0,4.38-1.44,5.45,5.45,0,0,0,1.53-4.11,6,6,0,0,0-1.56-4.38,5.83,5.83,0,0,0-4.14-1.26h-1.26Z"/><path d="M133.65,486.29h4.8v2.19a4.33,4.33,0,0,1,1.89-1.86,5.24,5.24,0,0,1,2.49-.54l1,.06v4.53a4.23,4.23,0,0,0-2.07-.48,3.14,3.14,0,0,0-2.19.72,4,4,0,0,0-1.08,3.06v5.73h-4.8Z"/><path d="M148.32,478a2.7,2.7,0,1,1-2.7,2.7A2.69,2.69,0,0,1,148.32,478Zm2.4,8.28V499.7h-4.8V486.29Z"/><path d="M157.71,486.29l3.21,6.87,3.27-6.87h5.34l-7,13.41h-3.27l-6.93-13.41Z"/><path d="M184.65,493.88h-10a3.39,3.39,0,0,0,.84,2.25,2.7,2.7,0,0,0,2,.66,3.79,3.79,0,0,0,1.56-.36,2.23,2.23,0,0,0,.84-.9h4.59a6,6,0,0,1-1.62,2.76c-1,1-2.55,1.86-5.46,1.86a7.61,7.61,0,0,1-5.55-2,7,7,0,0,1-2-5.07,7.16,7.16,0,0,1,2-5.19,7.55,7.55,0,0,1,5.49-2,7.35,7.35,0,0,1,5.16,1.83,7.51,7.51,0,0,1,2.13,5.64Zm-4.41-2.76a3.22,3.22,0,0,0-.78-1.44,2.8,2.8,0,0,0-2-.72,2.58,2.58,0,0,0-1.95.72,2.74,2.74,0,0,0-.72,1.44Z"/><path d="M187.41,486.29h4.8v2.19a4.33,4.33,0,0,1,1.89-1.86,5.24,5.24,0,0,1,2.49-.54l1,.06v4.53a4.23,4.23,0,0,0-2.07-.48,3.14,3.14,0,0,0-2.19.72,4,4,0,0,0-1.08,3.06v5.73h-4.8Z"/><path d="M54.51,535.7h-4.8v-1.47a4.92,4.92,0,0,1-4.05,1.92A6.42,6.42,0,0,1,41,534.29,7.4,7.4,0,0,1,38.79,529,7.31,7.31,0,0,1,41,523.64a6.86,6.86,0,0,1,4.74-1.8,5.31,5.31,0,0,1,4,1.74v-9.75h4.8Zm-5.67-4.44a3.22,3.22,0,0,0,1-2.28,3.51,3.51,0,0,0-.9-2.16,3.08,3.08,0,0,0-4.32,0,3.29,3.29,0,0,0-.93,2.28,3,3,0,0,0,.93,2.1,3,3,0,0,0,2.13.9A3.28,3.28,0,0,0,48.84,531.26Z"/><path d="M60.21,514a2.7,2.7,0,1,1-2.7,2.7A2.69,2.69,0,0,1,60.21,514Zm2.4,8.28V535.7h-4.8V522.29Z"/><path d="M66.75,531.26a6.87,6.87,0,0,0,1.92,1,6.25,6.25,0,0,0,1.86.33,2,2,0,0,0,1.23-.36.77.77,0,0,0,.24-.63.71.71,0,0,0-.24-.6,3,3,0,0,0-1.26-.48l-1.26-.3A4.31,4.31,0,0,1,66.9,529a3.24,3.24,0,0,1-.87-2.31,4.79,4.79,0,0,1,1.26-3.27,6.77,6.77,0,0,1,4.8-1.62,11.07,11.07,0,0,1,4.29.87l-1.62,3.06a6.64,6.64,0,0,0-2.52-.66,2,2,0,0,0-1.11.27.72.72,0,0,0-.42.66.78.78,0,0,0,.57.75c.45.18.84.18,1.59.39l.87.24a5.67,5.67,0,0,1,2,1.05,3.79,3.79,0,0,1,1,2.67,4.48,4.48,0,0,1-1.35,3.33,7,7,0,0,1-5,1.68,9.89,9.89,0,0,1-5.4-1.56Z"/><path d="M84,542.57H79.2V522.29H84v1.47a5,5,0,0,1,4.11-1.92,6.67,6.67,0,0,1,4.77,1.95,7.61,7.61,0,0,1-.12,10.5,6.44,6.44,0,0,1-4.59,1.86A5.71,5.71,0,0,1,84,534.41Zm.78-15.75a3.27,3.27,0,0,0-.93,2.22,3.24,3.24,0,0,0,.93,2.13,3.07,3.07,0,0,0,2.16.9,2.9,2.9,0,0,0,2.13-.9A3.17,3.17,0,0,0,90,529a3.27,3.27,0,0,0-.93-2.22,2.9,2.9,0,0,0-2.13-.9A3.07,3.07,0,0,0,84.78,526.82Z"/><path d="M111.18,533.93a9.18,9.18,0,0,1-12,0,6.92,6.92,0,0,1,0-9.87,8.37,8.37,0,0,1,6-2.22,8.47,8.47,0,0,1,6,2.22,6.92,6.92,0,0,1,0,9.87Zm-8.13-7.14a3.06,3.06,0,0,0,2.16,5.22,3.05,3.05,0,0,0,2.13-.9,3,3,0,0,0,.93-2.13,3.26,3.26,0,0,0-.93-2.19,3.08,3.08,0,0,0-4.29,0Z"/><path d="M123,531.77h5.61v3.93H115l6.33-9.48h-5.4v-3.93h13.38Z"/><path d="M133.92,514a2.7,2.7,0,1,1-2.7,2.7A2.69,2.69,0,0,1,133.92,514Zm2.4,8.28V535.7h-4.8V522.29Z"/><path d="M144.9,526.22v9.48h-4.8v-9.48h-1.53v-3.93h1.53v-4.41h4.8v4.41h2.73v3.93Z"/><path d="M151.83,514a2.7,2.7,0,1,1-2.7,2.7A2.69,2.69,0,0,1,151.83,514Zm2.4,8.28V535.7h-4.8V522.29Z"/><path d="M161.22,522.29l3.21,6.87,3.27-6.87H173l-7,13.41h-3.27l-6.93-13.41Z"/><path d="M187.05,520.1H184.2v-4.41h8v20h-5.19Z"/><path d="M572.13,499.7v-20h6.81a11.16,11.16,0,0,1,7.95,2.76,9.77,9.77,0,0,1,2.79,7.29,9.23,9.23,0,0,1-2.61,6.93,10.87,10.87,0,0,1-7.68,3Zm5.19-4.41h1a6,6,0,0,0,4.38-1.44,5.45,5.45,0,0,0,1.53-4.11,6,6,0,0,0-1.56-4.38,5.83,5.83,0,0,0-4.14-1.26h-1.26Z"/><path d="M592.53,486.29h4.8v2.19a4.33,4.33,0,0,1,1.89-1.86,5.24,5.24,0,0,1,2.49-.54l1,.06v4.53a4.23,4.23,0,0,0-2.07-.48,3.14,3.14,0,0,0-2.19.72,4,4,0,0,0-1.08,3.06v5.73h-4.8Z"/><path d="M607.2,478a2.7,2.7,0,1,1-2.7,2.7A2.69,2.69,0,0,1,607.2,478Zm2.4,8.28V499.7h-4.8V486.29Z"/><path d="M616.59,486.29l3.21,6.87,3.27-6.87h5.34l-7,13.41h-3.27l-6.93-13.41Z"/><path d="M643.53,493.88h-10a3.39,3.39,0,0,0,.84,2.25,2.7,2.7,0,0,0,2,.66,3.79,3.79,0,0,0,1.56-.36,2.23,2.23,0,0,0,.84-.9h4.59a6,6,0,0,1-1.62,2.76c-1,1-2.55,1.86-5.46,1.86a7.61,7.61,0,0,1-5.55-2,7,7,0,0,1-2-5.07,7.16,7.16,0,0,1,2-5.19,7.55,7.55,0,0,1,5.49-2,7.35,7.35,0,0,1,5.16,1.83,7.51,7.51,0,0,1,2.13,5.64Zm-4.41-2.76a3.22,3.22,0,0,0-.78-1.44,2.8,2.8,0,0,0-2-.72,2.58,2.58,0,0,0-2,.72,2.74,2.74,0,0,0-.72,1.44Z"/><path d="M646.29,486.29h4.8v2.19a4.33,4.33,0,0,1,1.89-1.86,5.24,5.24,0,0,1,2.49-.54l1,.06v4.53a4.23,4.23,0,0,0-2.07-.48,3.14,3.14,0,0,0-2.19.72,4,4,0,0,0-1.08,3.06v5.73h-4.8Z"/><path d="M586.86,535.7h-4.8v-1.47a4.92,4.92,0,0,1-4,1.92,6.42,6.42,0,0,1-4.71-1.86,7.4,7.4,0,0,1-2.16-5.34,7.31,7.31,0,0,1,2.19-5.31,6.86,6.86,0,0,1,4.74-1.8,5.31,5.31,0,0,1,4,1.74v-9.75h4.8Zm-5.67-4.44a3.22,3.22,0,0,0,1-2.28,3.51,3.51,0,0,0-.9-2.16,3.08,3.08,0,0,0-4.32,0,3.29,3.29,0,0,0-.93,2.28,3,3,0,0,0,.93,2.1,3,3,0,0,0,2.13.9A3.28,3.28,0,0,0,581.19,531.26Z"/><path d="M592.56,514a2.7,2.7,0,1,1-2.7,2.7A2.69,2.69,0,0,1,592.56,514Zm2.4,8.28V535.7h-4.8V522.29Z"/><path d="M599.1,531.26a6.87,6.87,0,0,0,1.92,1,6.25,6.25,0,0,0,1.86.33,2,2,0,0,0,1.23-.36.77.77,0,0,0,.24-.63.71.71,0,0,0-.24-.6,3,3,0,0,0-1.26-.48l-1.26-.3a4.31,4.31,0,0,1-2.34-1.17,3.24,3.24,0,0,1-.87-2.31,4.79,4.79,0,0,1,1.26-3.27,6.77,6.77,0,0,1,4.8-1.62,11.07,11.07,0,0,1,4.29.87l-1.62,3.06a6.64,6.64,0,0,0-2.52-.66,2,2,0,0,0-1.11.27.72.72,0,0,0-.42.66.78.78,0,0,0,.57.75c.45.18.84.18,1.59.39l.87.24a5.67,5.67,0,0,1,2,1.05,3.79,3.79,0,0,1,1,2.67,4.48,4.48,0,0,1-1.35,3.33,7,7,0,0,1-5,1.68,9.89,9.89,0,0,1-5.4-1.56Z"/><path d="M616.35,542.57h-4.8V522.29h4.8v1.47a5,5,0,0,1,4.11-1.92,6.67,6.67,0,0,1,4.77,1.95,7.61,7.61,0,0,1-.12,10.5,6.44,6.44,0,0,1-4.59,1.86,5.71,5.71,0,0,1-4.17-1.74Zm.78-15.75a3.27,3.27,0,0,0-.93,2.22,3.24,3.24,0,0,0,.93,2.13,3.07,3.07,0,0,0,2.16.9,2.9,2.9,0,0,0,2.13-.9,3.17,3.17,0,0,0,.93-2.13,3.27,3.27,0,0,0-.93-2.22,2.9,2.9,0,0,0-2.13-.9A3.07,3.07,0,0,0,617.13,526.82Z"/><path d="M643.53,533.93a9.18,9.18,0,0,1-12,0,6.92,6.92,0,0,1,0-9.87,8.37,8.37,0,0,1,6-2.22,8.47,8.47,0,0,1,6,2.22,6.92,6.92,0,0,1,0,9.87Zm-8.13-7.14a3.06,3.06,0,0,0,2.16,5.22,3.05,3.05,0,0,0,2.13-.9,3,3,0,0,0,.93-2.13,3.26,3.26,0,0,0-.93-2.19,3.08,3.08,0,0,0-4.29,0Z"/><path d="M655.35,531.77H661v3.93H647.31l6.33-9.48h-5.4v-3.93h13.38Z"/><path d="M666.27,514a2.7,2.7,0,1,1-2.7,2.7A2.69,2.69,0,0,1,666.27,514Zm2.4,8.28V535.7h-4.8V522.29Z"/><path d="M677.25,526.22v9.48h-4.8v-9.48h-1.53v-3.93h1.53v-4.41h4.8v4.41H680v3.93Z"/><path d="M684.18,514a2.7,2.7,0,1,1-2.7,2.7A2.69,2.69,0,0,1,684.18,514Zm2.4,8.28V535.7h-4.8V522.29Z"/><path d="M693.57,522.29l3.21,6.87,3.27-6.87h5.34l-7,13.41h-3.27l-6.93-13.41Z"/><path d="M719.4,520.1h-2.85v-4.41h8v20H719.4Z"/><path d="M586.5,713.46a12.36,12.36,0,0,1-4.5,1,10.88,10.88,0,0,1-7.74-3,10.5,10.5,0,0,1-3-7.29,10.5,10.5,0,0,1,10.59-10.5,12.4,12.4,0,0,1,4.68,1v6.21A5.57,5.57,0,0,0,582,698.7a5.07,5.07,0,0,0-3.6,1.32,5.59,5.59,0,0,0-1.74,4.11,5.52,5.52,0,0,0,1.62,3.9,5.59,5.59,0,0,0,3.72,1.38,5.87,5.87,0,0,0,4.53-2.1Z"/><path d="M602.85,712.23a9.18,9.18,0,0,1-12,0,6.92,6.92,0,0,1,0-9.87,8.37,8.37,0,0,1,6-2.22,8.47,8.47,0,0,1,6,2.22,6.92,6.92,0,0,1,0,9.87Zm-8.13-7.14a3.06,3.06,0,0,0,2.16,5.22,3.05,3.05,0,0,0,2.13-.9,3,3,0,0,0,.93-2.13,3.26,3.26,0,0,0-.93-2.19,3.08,3.08,0,0,0-4.29,0Z"/><path d="M607.68,700.59h4.8v1.68a5.06,5.06,0,0,1,4.26-2,5.42,5.42,0,0,1,4,1.44,4.62,4.62,0,0,1,1.26,3.75V714h-4.8v-6.78a3.85,3.85,0,0,0-.6-2.61A2,2,0,0,0,615,704a2.63,2.63,0,0,0-1.77.63,3.08,3.08,0,0,0-.78,2.13V714h-4.8Z"/><path d="M630.54,704.52V714h-4.8v-9.48h-1.53v-3.93h1.53v-4.41h4.8v4.41h2.73v3.93Z"/><path d="M635.07,700.59h4.8v2.19a4.33,4.33,0,0,1,1.89-1.86,5.24,5.24,0,0,1,2.49-.54l1,.06V705a4.23,4.23,0,0,0-2.07-.48,3.14,3.14,0,0,0-2.19.72,4,4,0,0,0-1.08,3.06V714h-4.8Z"/><path d="M660.24,712.23a9.18,9.18,0,0,1-12,0,6.92,6.92,0,0,1,0-9.87,8.37,8.37,0,0,1,6-2.22,8.47,8.47,0,0,1,6,2.22,6.92,6.92,0,0,1,0,9.87Zm-8.13-7.14a3.06,3.06,0,0,0,2.16,5.22,3.05,3.05,0,0,0,2.13-.9,3,3,0,0,0,.93-2.13,3.26,3.26,0,0,0-.93-2.19,3.08,3.08,0,0,0-4.29,0Z"/><path d="M669.87,692.13V714h-4.8V692.13Z"/><path d="M677.94,692.13V714h-4.8V692.13Z"/><path d="M695.43,708.18h-10a3.39,3.39,0,0,0,.84,2.25,2.7,2.7,0,0,0,2,.66,3.79,3.79,0,0,0,1.56-.36,2.23,2.23,0,0,0,.84-.9h4.59a6,6,0,0,1-1.62,2.76c-1,1-2.55,1.86-5.46,1.86a7.61,7.61,0,0,1-5.55-2,7,7,0,0,1-2-5.07,7.16,7.16,0,0,1,2-5.19,7.55,7.55,0,0,1,5.49-1.95A7.35,7.35,0,0,1,693.3,702a7.51,7.51,0,0,1,2.13,5.64ZM691,705.42a3.22,3.22,0,0,0-.78-1.44,2.8,2.8,0,0,0-2-.72,2.58,2.58,0,0,0-2,.72,2.74,2.74,0,0,0-.72,1.44Z"/><path d="M698.19,700.59H703v2.19a4.33,4.33,0,0,1,1.89-1.86,5.24,5.24,0,0,1,2.49-.54l1,.06V705a4.23,4.23,0,0,0-2.07-.48,3.14,3.14,0,0,0-2.19.72,4,4,0,0,0-1.08,3.06V714h-4.8Z"/><path d="M586.86,750h-4.8v-1.47a4.92,4.92,0,0,1-4,1.92,6.42,6.42,0,0,1-4.71-1.86,7.4,7.4,0,0,1-2.16-5.34,7.31,7.31,0,0,1,2.19-5.31,6.86,6.86,0,0,1,4.74-1.8,5.31,5.31,0,0,1,4,1.74v-9.75h4.8Zm-5.67-4.44a3.22,3.22,0,0,0,1-2.28,3.51,3.51,0,0,0-.9-2.16,3.08,3.08,0,0,0-4.32,0,3.29,3.29,0,0,0-.93,2.28,3,3,0,0,0,.93,2.1,3,3,0,0,0,2.13.9A3.28,3.28,0,0,0,581.19,745.56Z"/><path d="M592.56,728.31a2.7,2.7,0,1,1-2.7,2.7A2.69,2.69,0,0,1,592.56,728.31Zm2.4,8.28V750h-4.8V736.59Z"/><path d="M599.1,745.56a6.87,6.87,0,0,0,1.92,1,6.25,6.25,0,0,0,1.86.33,2,2,0,0,0,1.23-.36.77.77,0,0,0,.24-.63.71.71,0,0,0-.24-.6,3,3,0,0,0-1.26-.48l-1.26-.3a4.31,4.31,0,0,1-2.34-1.17,3.24,3.24,0,0,1-.87-2.31,4.79,4.79,0,0,1,1.26-3.27,6.77,6.77,0,0,1,4.8-1.62,11.07,11.07,0,0,1,4.29.87l-1.62,3.06a6.64,6.64,0,0,0-2.52-.66,2,2,0,0,0-1.11.27.72.72,0,0,0-.42.66.78.78,0,0,0,.57.75c.45.18.84.18,1.59.39l.87.24a5.67,5.67,0,0,1,2,1,3.79,3.79,0,0,1,1,2.67,4.48,4.48,0,0,1-1.35,3.33,7,7,0,0,1-5,1.68,9.89,9.89,0,0,1-5.4-1.56Z"/><path d="M616.35,756.87h-4.8V736.59h4.8v1.47a5,5,0,0,1,4.11-1.92,6.67,6.67,0,0,1,4.77,2,7.61,7.61,0,0,1-.12,10.5,6.44,6.44,0,0,1-4.59,1.86,5.71,5.71,0,0,1-4.17-1.74Zm.78-15.75a3.27,3.27,0,0,0-.93,2.22,3.24,3.24,0,0,0,.93,2.13,3.07,3.07,0,0,0,2.16.9,2.9,2.9,0,0,0,2.13-.9,3.17,3.17,0,0,0,.93-2.13,3.27,3.27,0,0,0-.93-2.22,2.9,2.9,0,0,0-2.13-.9A3.07,3.07,0,0,0,617.13,741.12Z"/><path d="M643.53,748.23a9.18,9.18,0,0,1-12,0,6.92,6.92,0,0,1,0-9.87,8.37,8.37,0,0,1,6-2.22,8.47,8.47,0,0,1,6,2.22,6.92,6.92,0,0,1,0,9.87Zm-8.13-7.14a3.06,3.06,0,0,0,2.16,5.22,3.05,3.05,0,0,0,2.13-.9,3,3,0,0,0,.93-2.13,3.26,3.26,0,0,0-.93-2.19,3.08,3.08,0,0,0-4.29,0Z"/><path d="M655.35,746.07H661V750H647.31l6.33-9.48h-5.4v-3.93h13.38Z"/><path d="M666.27,728.31a2.7,2.7,0,1,1-2.7,2.7A2.69,2.69,0,0,1,666.27,728.31Zm2.4,8.28V750h-4.8V736.59Z"/><path d="M677.25,740.52V750h-4.8v-9.48h-1.53v-3.93h1.53v-4.41h4.8v4.41H680v3.93Z"/><path d="M684.18,728.31a2.7,2.7,0,1,1-2.7,2.7A2.69,2.69,0,0,1,684.18,728.31Zm2.4,8.28V750h-4.8V736.59Z"/><path d="M693.57,736.59l3.21,6.87,3.27-6.87h5.34l-7,13.41h-3.27l-6.93-13.41Z"/><path d="M729.21,750H713.16l5.07-5.31a33.14,33.14,0,0,0,4.11-5.07,5.63,5.63,0,0,0,1.08-3.12,3,3,0,0,0-.6-1.92,2,2,0,0,0-1.47-.6,2.15,2.15,0,0,0-1.74.81,5,5,0,0,0-.72,2.46h-5.37a8,8,0,0,1,2.22-5.55,8.62,8.62,0,0,1,11.31-.09,6.68,6.68,0,0,1,2,4.92c0,2.52-1.17,4.26-3,5.94l-3.36,3.12h6.54Z"/><path d="M75.72,713.46a12.36,12.36,0,0,1-4.5,1,10.88,10.88,0,0,1-7.74-3,10.5,10.5,0,0,1-3-7.29A10.5,10.5,0,0,1,71,693.66a12.4,12.4,0,0,1,4.68,1v6.21a5.57,5.57,0,0,0-4.53-2.19,5.07,5.07,0,0,0-3.6,1.32,5.59,5.59,0,0,0-1.74,4.11,5.52,5.52,0,0,0,1.62,3.9,5.59,5.59,0,0,0,3.72,1.38,5.87,5.87,0,0,0,4.53-2.1Z"/><path d="M92.07,712.23a9.18,9.18,0,0,1-12,0,6.92,6.92,0,0,1,0-9.87,8.37,8.37,0,0,1,6-2.22,8.47,8.47,0,0,1,6,2.22,6.92,6.92,0,0,1,0,9.87Zm-8.13-7.14a3.06,3.06,0,0,0,2.16,5.22,3.05,3.05,0,0,0,2.13-.9,3,3,0,0,0,.93-2.13,3.26,3.26,0,0,0-.93-2.19,3.08,3.08,0,0,0-4.29,0Z"/><path d="M96.9,700.59h4.8v1.68a5.06,5.06,0,0,1,4.26-2,5.42,5.42,0,0,1,4,1.44,4.62,4.62,0,0,1,1.26,3.75V714h-4.8v-6.78a3.85,3.85,0,0,0-.6-2.61,2,2,0,0,0-1.53-.57,2.63,2.63,0,0,0-1.77.63,3.08,3.08,0,0,0-.78,2.13V714H96.9Z"/><path d="M119.76,704.52V714H115v-9.48h-1.53v-3.93H115v-4.41h4.8v4.41h2.73v3.93Z"/><path d="M124.29,700.59h4.8v2.19a4.33,4.33,0,0,1,1.89-1.86,5.24,5.24,0,0,1,2.49-.54l1,.06V705a4.23,4.23,0,0,0-2.07-.48,3.14,3.14,0,0,0-2.19.72,4,4,0,0,0-1.08,3.06V714h-4.8Z"/><path d="M149.46,712.23a9.18,9.18,0,0,1-12,0,6.92,6.92,0,0,1,0-9.87,8.37,8.37,0,0,1,6-2.22,8.47,8.47,0,0,1,6,2.22,6.92,6.92,0,0,1,0,9.87Zm-8.13-7.14a3.06,3.06,0,0,0,2.16,5.22,3.05,3.05,0,0,0,2.13-.9,3,3,0,0,0,.93-2.13,3.26,3.26,0,0,0-.93-2.19,3.08,3.08,0,0,0-4.29,0Z"/><path d="M159.09,692.13V714h-4.8V692.13Z"/><path d="M167.16,692.13V714h-4.8V692.13Z"/><path d="M184.65,708.18h-10a3.39,3.39,0,0,0,.84,2.25,2.7,2.7,0,0,0,2,.66,3.79,3.79,0,0,0,1.56-.36,2.23,2.23,0,0,0,.84-.9h4.59a6,6,0,0,1-1.62,2.76c-1,1-2.55,1.86-5.46,1.86a7.61,7.61,0,0,1-5.55-2,7,7,0,0,1-2-5.07,7.16,7.16,0,0,1,2-5.19,7.55,7.55,0,0,1,5.49-1.95,7.35,7.35,0,0,1,5.16,1.83,7.51,7.51,0,0,1,2.13,5.64Zm-4.41-2.76a3.22,3.22,0,0,0-.78-1.44,2.8,2.8,0,0,0-2-.72,2.58,2.58,0,0,0-1.95.72,2.74,2.74,0,0,0-.72,1.44Z"/><path d="M187.41,700.59h4.8v2.19a4.33,4.33,0,0,1,1.89-1.86,5.24,5.24,0,0,1,2.49-.54l1,.06V705a4.23,4.23,0,0,0-2.07-.48,3.14,3.14,0,0,0-2.19.72,4,4,0,0,0-1.08,3.06V714h-4.8Z"/><path d="M54.51,750h-4.8v-1.47a4.92,4.92,0,0,1-4.05,1.92A6.42,6.42,0,0,1,41,748.59a7.4,7.4,0,0,1-2.16-5.34A7.31,7.31,0,0,1,41,737.94a6.86,6.86,0,0,1,4.74-1.8,5.31,5.31,0,0,1,4,1.74v-9.75h4.8Zm-5.67-4.44a3.22,3.22,0,0,0,1-2.28,3.51,3.51,0,0,0-.9-2.16,3.08,3.08,0,0,0-4.32,0,3.29,3.29,0,0,0-.93,2.28,3,3,0,0,0,.93,2.1,3,3,0,0,0,2.13.9A3.28,3.28,0,0,0,48.84,745.56Z"/><path d="M60.21,728.31a2.7,2.7,0,1,1-2.7,2.7A2.69,2.69,0,0,1,60.21,728.31Zm2.4,8.28V750h-4.8V736.59Z"/><path d="M66.75,745.56a6.87,6.87,0,0,0,1.92,1,6.25,6.25,0,0,0,1.86.33,2,2,0,0,0,1.23-.36.77.77,0,0,0,.24-.63.71.71,0,0,0-.24-.6,3,3,0,0,0-1.26-.48l-1.26-.3a4.31,4.31,0,0,1-2.34-1.17A3.24,3.24,0,0,1,66,741a4.79,4.79,0,0,1,1.26-3.27,6.77,6.77,0,0,1,4.8-1.62,11.07,11.07,0,0,1,4.29.87l-1.62,3.06a6.64,6.64,0,0,0-2.52-.66,2,2,0,0,0-1.11.27.72.72,0,0,0-.42.66.78.78,0,0,0,.57.75c.45.18.84.18,1.59.39l.87.24a5.67,5.67,0,0,1,2,1,3.79,3.79,0,0,1,1,2.67,4.48,4.48,0,0,1-1.35,3.33,7,7,0,0,1-5,1.68,9.89,9.89,0,0,1-5.4-1.56Z"/><path d="M84,756.87H79.2V736.59H84v1.47a5,5,0,0,1,4.11-1.92,6.67,6.67,0,0,1,4.77,2,7.61,7.61,0,0,1-.12,10.5,6.44,6.44,0,0,1-4.59,1.86A5.71,5.71,0,0,1,84,748.71Zm.78-15.75a3.27,3.27,0,0,0-.93,2.22,3.24,3.24,0,0,0,.93,2.13,3.07,3.07,0,0,0,2.16.9,2.9,2.9,0,0,0,2.13-.9,3.17,3.17,0,0,0,.93-2.13,3.27,3.27,0,0,0-.93-2.22,2.9,2.9,0,0,0-2.13-.9A3.07,3.07,0,0,0,84.78,741.12Z"/><path d="M111.18,748.23a9.18,9.18,0,0,1-12,0,6.92,6.92,0,0,1,0-9.87,8.37,8.37,0,0,1,6-2.22,8.47,8.47,0,0,1,6,2.22,6.92,6.92,0,0,1,0,9.87Zm-8.13-7.14a3.06,3.06,0,0,0,2.16,5.22,3.05,3.05,0,0,0,2.13-.9,3,3,0,0,0,.93-2.13,3.26,3.26,0,0,0-.93-2.19,3.08,3.08,0,0,0-4.29,0Z"/><path d="M123,746.07h5.61V750H115l6.33-9.48h-5.4v-3.93h13.38Z"/><path d="M133.92,728.31a2.7,2.7,0,1,1-2.7,2.7A2.69,2.69,0,0,1,133.92,728.31Zm2.4,8.28V750h-4.8V736.59Z"/><path d="M144.9,740.52V750h-4.8v-9.48h-1.53v-3.93h1.53v-4.41h4.8v4.41h2.73v3.93Z"/><path d="M151.83,728.31a2.7,2.7,0,1,1-2.7,2.7A2.69,2.69,0,0,1,151.83,728.31Zm2.4,8.28V750h-4.8V736.59Z"/><path d="M161.22,736.59l3.21,6.87,3.27-6.87H173l-7,13.41h-3.27l-6.93-13.41Z"/><path d="M187.05,734.4H184.2V730h8v20h-5.19Z"/></svg>