<svg id="Layer_1" data-name="Layer 1" xmlns="http://www.w3.org/2000/svg" viewBox="0 0 794 1280"><title>Capitolul0</title><path d="M302.05,1201.46c-.44.31-.89.62-1.34.91l-.62.41c-.59.36-1.19.71-1.81,1-.13.08-.27.14-.4.21a32.9,32.9,0,0,1-4.37,1.85l-.16.05c-.78.26-1.57.49-2.38.69h0c-.81.2-1.64.37-2.46.51h-.07c-.77.13-1.56.22-2.34.29l-.42,0q-1.17.09-2.34.09c-.79,0-1.59,0-2.37-.09l-.41,0c-.79-.07-1.58-.16-2.36-.29l-.11,0a31.11,31.11,0,0,1-4.86-1.21l-.15-.05c-.79-.27-1.57-.56-2.33-.89h0c-.72-.31-1.43-.66-2.13-1l-.27-.14c-.64-.34-1.27-.71-1.88-1.1-.19-.11-.37-.23-.55-.35-.56-.37-1.13-.75-1.67-1.16l-.17-.13.12-.07,9.89-5.39a5.3,5.3,0,0,0,2.76-4.65v-4.5l-.29-.35a20.81,20.81,0,0,1-3.75-7.78l-.12-.49-.42-.28a2.08,2.08,0,0,1-1-1.74v-4.43a2,2,0,0,1,.69-1.53l.41-.37v-7.13a7.58,7.58,0,0,1,1.75-5.46c1.81-2.06,4.91-3.1,9.21-3.1s7.37,1,9.19,3.08a7.68,7.68,0,0,1,1.76,5.48v7.13l.41.37a2.06,2.06,0,0,1,.7,1.53v4.43a2.08,2.08,0,0,1-1.48,2l-.62.2-.2.61a23.31,23.31,0,0,1-3.12,6.3c-.33.46-.65.87-.92,1.18l-.31.36V1191a5.26,5.26,0,0,0,2.92,4.73l10.59,5.3.2.1Z" style="fill:none;stroke:#636868;stroke-miterlimit:10;stroke-width:5.236px"/><rect x="228.81" y="1002.53" width="112" height="69.85" rx="12" ry="12" style="fill:none;stroke:#eb6a38;stroke-miterlimit:10;stroke-width:5.236px"/><line x1="231.22" y1="1026.62" x2="338.4" y2="1026.62" style="fill:none;stroke:#eb6a38;stroke-miterlimit:10;stroke-width:5.236px"/><circle cx="309.5" cy="1015.18" r="3.61" style="fill:#eb6a38"/><ellipse cx="318.73" cy="1015.18" rx="3.42" ry="3.61" style="fill:#eb6a38"/><circle cx="327.56" cy="1015.18" r="3.61" style="fill:#eb6a38"/><rect x="269.15" y="1032.78" width="7.23" height="20.47" rx="3" ry="3" transform="translate(-657.63 498.37) rotate(-45)" style="fill:#eb6a38"/><rect x="262.53" y="1049.04" width="20.47" height="7.23" rx="3" ry="3" transform="translate(-664.44 501.19) rotate(-45)" style="fill:#eb6a38"/><rect x="288.42" y="1053.71" width="20.47" height="7.23" rx="3" ry="3" style="fill:#eb6a38"/><rect x="464.81" y="1002.53" width="112" height="69.85" rx="12" ry="12" style="fill:none;stroke:#eb6a38;stroke-miterlimit:10;stroke-width:5.236px"/><line x1="467.22" y1="1026.62" x2="574.4" y2="1026.62" style="fill:none;stroke:#eb6a38;stroke-miterlimit:10;stroke-width:5.236px"/><circle cx="545.5" cy="1015.18" r="3.61" style="fill:#eb6a38"/><ellipse cx="554.73" cy="1015.18" rx="3.42" ry="3.61" style="fill:#eb6a38"/><circle cx="563.56" cy="1015.18" r="3.61" style="fill:#eb6a38"/><circle cx="283.26" cy="1171.79" r="35.55" style="fill:none;stroke:#636868;stroke-miterlimit:10;stroke-width:5.236px"/><rect x="280.81" y="1085.26" width="9" height="38" rx="4.5" ry="4.5" style="fill:#3a5c84"/><path d="M48.82,1160.92v13.83a4.71,4.71,0,0,0,1.19,3.61,4.29,4.29,0,0,0,5.67.1c1.4-1.22,1.36-2.94,1.36-4.23v-13.31H63.1v13.41c0,2.45-.11,5-2.63,7.56a10.07,10.07,0,0,1-7.7,2.91c-3.67,0-6.3-1.26-7.73-2.8-2-2.21-2.28-5.18-2.28-7.67v-13.41Z"/><path d="M73.67,1173.21v11.06H68.06v-11.06H66.28v-4.58h1.78v-5.15h5.61v5.15h3.18v4.58Z"/><path d="M81.75,1159a3.16,3.16,0,1,1-3.15,3.16A3.15,3.15,0,0,1,81.75,1159Zm2.8,9.67v15.64H79v-15.64Z"/><path d="M94,1158.75v25.52H88.36v-25.52Z"/><path d="M100.58,1159a3.16,3.16,0,1,1-3.15,3.16A3.15,3.15,0,0,1,100.58,1159Zm2.8,9.67v15.64h-5.6v-15.64Z"/><path d="M115.35,1179.69h6.55v4.58H106l7.38-11.06h-6.3v-4.58h15.62Z"/><path d="M137.4,1168.63H143v15.64h-5.6v-1.71a5.86,5.86,0,0,1-4.87,2.24,7.47,7.47,0,0,1-5.63-2.49,7.86,7.86,0,0,1-2.24-5.74,8.64,8.64,0,0,1,2.41-6.26,8.07,8.07,0,0,1,5.64-2.21,6.2,6.2,0,0,1,4.69,2Zm-5.88,5.25a3.52,3.52,0,0,0,0,5.11,4,4,0,0,0,2.53,1,3.6,3.6,0,0,0,2.52-1.09,3.54,3.54,0,0,0,0-5.07,3.54,3.54,0,0,0-5,0Z"/><path d="M153.05,1173.21v11.06h-5.61v-11.06h-1.78v-4.58h1.78v-5.15h5.61v5.15h3.18v4.58Z"/><path d="M174.08,1182.21a10.71,10.71,0,0,1-14,0,7.83,7.83,0,0,1-2.41-5.78,7.75,7.75,0,0,1,2.41-5.74,9.78,9.78,0,0,1,7-2.59,9.89,9.89,0,0,1,7,2.59,7.72,7.72,0,0,1,2.42,5.74A7.8,7.8,0,0,1,174.08,1182.21Zm-9.49-8.33a3.55,3.55,0,1,0,5,5,3.47,3.47,0,0,0,1.08-2.49,3.78,3.78,0,0,0-1.08-2.55,3.59,3.59,0,0,0-5,0Z"/><path d="M179.71,1168.63h5.6v2.55a5.06,5.06,0,0,1,2.21-2.17,6.16,6.16,0,0,1,2.91-.63c.13,0,.38,0,1.12.07v5.29a5,5,0,0,0-2.42-.56,3.66,3.66,0,0,0-2.56.84,4.72,4.72,0,0,0-1.26,3.57v6.68h-5.6Z"/><path d="M215.12,93.32h8.75V84.61H230V108h-6.09V98.5h-8.75V108h-6.06V84.61h6.06Z"/><path d="M246.44,92.31h5.61V108h-5.61v-1.71a5.84,5.84,0,0,1-4.86,2.24,7.49,7.49,0,0,1-5.64-2.49,7.9,7.9,0,0,1-2.24-5.74A8.64,8.64,0,0,1,236.12,94a8,8,0,0,1,5.63-2.21,6.2,6.2,0,0,1,4.69,2Zm-5.88,5.25a3.51,3.51,0,0,0,0,5.11,3.91,3.91,0,0,0,2.52,1,3.6,3.6,0,0,0,2.52-1.09,3.4,3.4,0,0,0,1.05-2.52,3.45,3.45,0,0,0-1.09-2.55,3.54,3.54,0,0,0-5,0Z"/><path d="M255.89,92.31h5.6v2.55a5.06,5.06,0,0,1,2.21-2.17,6.15,6.15,0,0,1,2.9-.63c.14,0,.39,0,1.12.07v5.29a4.93,4.93,0,0,0-2.41-.56,3.66,3.66,0,0,0-2.56.84,4.72,4.72,0,0,0-1.26,3.57V108h-5.6Z"/><path d="M287.92,108h-5.6v-1.71a5.75,5.75,0,0,1-4.73,2.24,7.5,7.5,0,0,1-5.49-2.17,8.89,8.89,0,0,1,0-12.43,8,8,0,0,1,5.53-2.1,6.22,6.22,0,0,1,4.66,2V82.44h5.6Zm-6.62-5.18a3.71,3.71,0,0,0,1.19-2.66,4.12,4.12,0,0,0-1.05-2.52,3.59,3.59,0,0,0-5,0,3.84,3.84,0,0,0-1.08,2.66,3.57,3.57,0,0,0,1.08,2.45,3.48,3.48,0,0,0,2.49,1A3.78,3.78,0,0,0,281.3,102.77Z"/><path d="M296.11,92.31l3.71,8.26,3.95-8.26h3.43l4,8.5,3.92-8.5h6.23L313.12,108h-3.78l-3.92-8.61L301.67,108h-3.78l-8.05-15.64Z"/><path d="M334.05,92.31h5.6V108h-5.6v-1.71a5.87,5.87,0,0,1-4.87,2.24,7.47,7.47,0,0,1-5.63-2.49,7.86,7.86,0,0,1-2.24-5.74A8.64,8.64,0,0,1,323.72,94a8.07,8.07,0,0,1,5.64-2.21,6.22,6.22,0,0,1,4.69,2Zm-5.88,5.25a3.52,3.52,0,0,0,0,5.11,4,4,0,0,0,2.52,1,3.6,3.6,0,0,0,2.52-1.09,3.4,3.4,0,0,0,1.05-2.52,3.47,3.47,0,0,0-1.08-2.55,3.54,3.54,0,0,0-5,0Z"/><path d="M343.5,92.31h5.6v2.55a5,5,0,0,1,2.2-2.17,6.19,6.19,0,0,1,2.91-.63c.14,0,.38,0,1.12.07v5.29a5,5,0,0,0-2.42-.56,3.63,3.63,0,0,0-2.55.84,4.72,4.72,0,0,0-1.26,3.57V108h-5.6Z"/><path d="M374.41,101.16H362.75a4,4,0,0,0,1,2.63,3.15,3.15,0,0,0,2.31.77,4.51,4.51,0,0,0,1.82-.42,2.64,2.64,0,0,0,1-1h5.36a7.09,7.09,0,0,1-1.9,3.22c-1.15,1.12-3,2.17-6.37,2.17a8.88,8.88,0,0,1-6.47-2.38,8.19,8.19,0,0,1-2.31-5.92,8.36,8.36,0,0,1,2.34-6.05,8.83,8.83,0,0,1,6.41-2.28,8.58,8.58,0,0,1,6,2.14,8.79,8.79,0,0,1,2.49,6.58Zm-5.15-3.22a3.78,3.78,0,0,0-.91-1.68,3.29,3.29,0,0,0-2.31-.84,3,3,0,0,0-2.28.84,3.27,3.27,0,0,0-.84,1.68Z"/><rect x="388.56" y="53.46" width="84" height="84" rx="12" ry="12" style="fill:none;stroke:#a2b969;stroke-miterlimit:10;stroke-width:5.236px"/><line x1="425.14" y1="53.46" x2="412.94" y2="84.62" style="fill:none;stroke:#a2b969;stroke-miterlimit:10;stroke-width:5.236px"/><circle cx="411.59" cy="88.68" r="6.77" style="fill:none;stroke:#a2b969;stroke-miterlimit:10;stroke-width:5.236px"/><circle cx="450.88" cy="83.26" r="6.77" style="fill:none;stroke:#a2b969;stroke-miterlimit:10;stroke-width:5.236px"/><circle cx="444.1" cy="111.71" r="6.77" style="fill:none;stroke:#a2b969;stroke-miterlimit:10;stroke-width:5.236px"/><line x1="472.56" y1="111.71" x2="448.17" y2="111.71" style="fill:none;stroke:#a2b969;stroke-miterlimit:10;stroke-width:5.236px"/><line x1="471.2" y1="64.3" x2="450.88" y2="64.3" style="fill:none;stroke:#a2b969;stroke-miterlimit:10;stroke-width:5.236px"/><line x1="450.88" y1="79.2" x2="450.88" y2="61.59" style="fill:none;stroke:#a2b969;stroke-miterlimit:10;stroke-width:5.236px"/><rect x="425.81" y="147.26" width="9" height="38" rx="4.5" ry="4.5" style="fill:#3a5c84"/><rect x="193.54" y="195.76" width="454.92" height="200" rx="12" ry="12" style="fill:none;stroke:#f4c240;stroke-miterlimit:10;stroke-width:5.236px"/><path d="M276.33,301.77a8.18,8.18,0,0,0,5.36,2.38,3.06,3.06,0,0,0,2.34-.8,2.1,2.1,0,0,0,.6-1.47,1.82,1.82,0,0,0-.67-1.4,8.31,8.31,0,0,0-3-1.23l-1.57-.49a7.55,7.55,0,0,1-3.36-1.89,5.87,5.87,0,0,1-1.33-4.13,7.63,7.63,0,0,1,2.13-5.63,8.19,8.19,0,0,1,6-2.21,16.35,16.35,0,0,1,7.21,1.89l-2.42,4.73a6.14,6.14,0,0,0-4-1.58,2.9,2.9,0,0,0-2,.7,1.74,1.74,0,0,0-.6,1.26,1.53,1.53,0,0,0,.32,1.05,3.78,3.78,0,0,0,2,1.05l1.85.56a9,9,0,0,1,4.24,2.31A5.52,5.52,0,0,1,291,301a7.91,7.91,0,0,1-2.2,5.88c-2,2-4.41,2.38-6.9,2.38a12.44,12.44,0,0,1-4.58-.77,16,16,0,0,1-3.54-1.86Z"/><path d="M297.05,283.46a3.16,3.16,0,1,1-3.15,3.16A3.15,3.15,0,0,1,297.05,283.46Zm2.8,9.67v15.64h-5.6V293.13Z"/><path d="M304.68,303.59a8.23,8.23,0,0,0,2.24,1.16,7.46,7.46,0,0,0,2.17.38,2.36,2.36,0,0,0,1.44-.42.9.9,0,0,0,.28-.73.84.84,0,0,0-.28-.7,3.43,3.43,0,0,0-1.47-.56l-1.47-.35a5.14,5.14,0,0,1-2.74-1.37,3.79,3.79,0,0,1-1-2.69,5.62,5.62,0,0,1,1.47-3.82,7.92,7.92,0,0,1,5.6-1.89,12.83,12.83,0,0,1,5,1L314,297.19a7.77,7.77,0,0,0-2.94-.77,2.38,2.38,0,0,0-1.3.31.85.85,0,0,0-.49.77.92.92,0,0,0,.67.88c.52.21,1,.21,1.85.45l1,.28a6.63,6.63,0,0,1,2.31,1.23,4.41,4.41,0,0,1,1.19,3.11,5.25,5.25,0,0,1-1.58,3.89c-1.82,1.82-4.48,2-5.77,2a11.58,11.58,0,0,1-6.3-1.82Z"/><path d="M325.4,297.71v11.06h-5.6V297.71H318v-4.58h1.79V288h5.6v5.15h3.19v4.58Z"/><path d="M347.28,302H335.62a4,4,0,0,0,1,2.63,3.15,3.15,0,0,0,2.31.77,4.51,4.51,0,0,0,1.82-.42,2.57,2.57,0,0,0,1-1h5.36a7.15,7.15,0,0,1-1.89,3.22c-1.16,1.12-3,2.17-6.38,2.17a8.88,8.88,0,0,1-6.47-2.38A8.19,8.19,0,0,1,330,301a8.36,8.36,0,0,1,2.34-6.05,8.83,8.83,0,0,1,6.41-2.28,8.57,8.57,0,0,1,6,2.14,8.75,8.75,0,0,1,2.49,6.58Zm-5.15-3.22a3.78,3.78,0,0,0-.91-1.68,3.29,3.29,0,0,0-2.31-.84,3,3,0,0,0-2.28.84,3.27,3.27,0,0,0-.84,1.68Z"/><path d="M350.49,293.13h5.6V295a6,6,0,0,1,4.69-2.17,6.35,6.35,0,0,1,3,.7,4.91,4.91,0,0,1,2.17,2.24,5.46,5.46,0,0,1,2.13-2.17,6.36,6.36,0,0,1,3.26-.77,6.23,6.23,0,0,1,4.34,1.43,5.76,5.76,0,0,1,1.47,4.31v10.18h-5.6V301c0-1.65-.18-2.77-.81-3.36a2,2,0,0,0-1.47-.53,2.28,2.28,0,0,0-1.64.63,4,4,0,0,0-1,3v8H361V301c0-1.51-.1-2.7-.73-3.36a2.16,2.16,0,0,0-1.69-.63,2,2,0,0,0-1.54.56c-1,.94-1,2.45-1,3.43v7.73h-5.6Z"/><path d="M406.91,308.77h-5.6v-1.71a5.73,5.73,0,0,1-4.72,2.24,7.52,7.52,0,0,1-5.5-2.17,8.66,8.66,0,0,1-2.52-6.23,8.53,8.53,0,0,1,2.56-6.2,8,8,0,0,1,5.53-2.1,6.2,6.2,0,0,1,4.65,2V283.25h5.6Zm-6.61-5.18a3.75,3.75,0,0,0,1.19-2.66,4.12,4.12,0,0,0-1.05-2.52,3.45,3.45,0,0,0-2.56-1.05,3.42,3.42,0,0,0-2.48,1,3.85,3.85,0,0,0-1.09,2.66,3.54,3.54,0,0,0,1.09,2.45,3.47,3.47,0,0,0,2.48,1.05A3.83,3.83,0,0,0,400.3,303.59Z"/><path d="M427.35,302H415.7a4,4,0,0,0,1,2.63,3.15,3.15,0,0,0,2.31.77,4.51,4.51,0,0,0,1.82-.42,2.64,2.64,0,0,0,1-1h5.35a7,7,0,0,1-1.89,3.22c-1.15,1.12-3,2.17-6.37,2.17a8.88,8.88,0,0,1-6.47-2.38A8.19,8.19,0,0,1,410.1,301a8.36,8.36,0,0,1,2.34-6.05,8.83,8.83,0,0,1,6.41-2.28,8.58,8.58,0,0,1,6,2.14,8.77,8.77,0,0,1,2.48,6.58Zm-5.14-3.22a3.78,3.78,0,0,0-.91-1.68,3.29,3.29,0,0,0-2.31-.84,3,3,0,0,0-2.28.84,3.27,3.27,0,0,0-.84,1.68Z"/><path d="M454.48,306.71a10.71,10.71,0,0,1-14,0,7.83,7.83,0,0,1-2.41-5.78,7.75,7.75,0,0,1,2.41-5.74,9.78,9.78,0,0,1,7-2.59,9.92,9.92,0,0,1,7,2.59,7.75,7.75,0,0,1,2.41,5.74A7.83,7.83,0,0,1,454.48,306.71ZM445,298.38a3.55,3.55,0,1,0,5,5,3.47,3.47,0,0,0,1.08-2.49,3.78,3.78,0,0,0-1.08-2.55,3.59,3.59,0,0,0-5,0Z"/><path d="M465.71,316.79h-5.6V293.13h5.6v1.71a5.87,5.87,0,0,1,4.8-2.24,7.78,7.78,0,0,1,5.56,2.28,8.88,8.88,0,0,1-.14,12.25,7.53,7.53,0,0,1-5.35,2.17,6.66,6.66,0,0,1-4.87-2Zm.91-18.38a3.53,3.53,0,0,0,0,5.08,3.62,3.62,0,0,0,2.52,1.05,3.41,3.41,0,0,0,2.49-1.05,3.73,3.73,0,0,0,1.08-2.49,3.82,3.82,0,0,0-1.08-2.59,3.41,3.41,0,0,0-2.49-1.05A3.62,3.62,0,0,0,466.62,298.41Z"/><path d="M498.26,302H486.61a4,4,0,0,0,1,2.63,3.15,3.15,0,0,0,2.31.77,4.51,4.51,0,0,0,1.82-.42,2.64,2.64,0,0,0,1-1h5.35a7,7,0,0,1-1.89,3.22c-1.15,1.12-3,2.17-6.37,2.17a8.88,8.88,0,0,1-6.47-2.38A8.19,8.19,0,0,1,481,301a8.36,8.36,0,0,1,2.34-6.05,8.83,8.83,0,0,1,6.41-2.28,8.58,8.58,0,0,1,6,2.14,8.77,8.77,0,0,1,2.48,6.58Zm-5.14-3.22a3.78,3.78,0,0,0-.91-1.68,3.29,3.29,0,0,0-2.31-.84,3,3,0,0,0-2.28.84,3.27,3.27,0,0,0-.84,1.68Z"/><path d="M501.48,293.13h5.6v2.55a5.06,5.06,0,0,1,2.21-2.17,6.15,6.15,0,0,1,2.9-.63c.14,0,.39,0,1.12.07v5.29a4.93,4.93,0,0,0-2.41-.56,3.66,3.66,0,0,0-2.56.84,4.72,4.72,0,0,0-1.26,3.57v6.68h-5.6Z"/><path d="M527.91,293.13h5.6v15.64h-5.6v-1.71A5.87,5.87,0,0,1,523,309.3a7.5,7.5,0,0,1-5.64-2.49,7.9,7.9,0,0,1-2.24-5.74,8.64,8.64,0,0,1,2.42-6.26,8.07,8.07,0,0,1,5.64-2.21,6.22,6.22,0,0,1,4.69,2ZM522,298.38a3.52,3.52,0,0,0,0,5.11,4,4,0,0,0,2.52,1.05,3.6,3.6,0,0,0,2.52-1.09,3.4,3.4,0,0,0,1.05-2.52,3.47,3.47,0,0,0-1.08-2.55,3.54,3.54,0,0,0-5,0Z"/><path d="M537.35,293.13H543v2.55a5.11,5.11,0,0,1,2.21-2.17,6.19,6.19,0,0,1,2.91-.63c.14,0,.38,0,1.12.07v5.29a5,5,0,0,0-2.42-.56,3.63,3.63,0,0,0-2.55.84,4.69,4.69,0,0,0-1.27,3.57v6.68h-5.6Z"/><path d="M568.26,302H556.6a4,4,0,0,0,1,2.63,3.16,3.16,0,0,0,2.32.77,4.54,4.54,0,0,0,1.82-.42,2.62,2.62,0,0,0,1-1h5.36a7,7,0,0,1-1.89,3.22c-1.15,1.12-3,2.17-6.37,2.17a8.9,8.9,0,0,1-6.48-2.38A8.23,8.23,0,0,1,551,301a8.33,8.33,0,0,1,2.35-6.05,8.79,8.79,0,0,1,6.4-2.28,8.57,8.57,0,0,1,6,2.14,8.75,8.75,0,0,1,2.49,6.58Zm-5.15-3.22a3.68,3.68,0,0,0-.91-1.68,3.27,3.27,0,0,0-2.3-.84,3,3,0,0,0-2.28.84,3.12,3.12,0,0,0-.84,1.68Z"/><path d="M67.31,1044.18H58.84l-1.57,3.92H50.86l9-23.35h6.62l8.78,23.35H68.75Zm-1.61-4.62L63.08,1032l-2.56,7.56Z"/><path d="M83,1056.12h-5.6v-23.66H83v1.71a5.87,5.87,0,0,1,4.8-2.24,7.78,7.78,0,0,1,5.56,2.28,8.88,8.88,0,0,1-.14,12.25,7.53,7.53,0,0,1-5.35,2.17,6.66,6.66,0,0,1-4.87-2Zm.91-18.38a3.53,3.53,0,0,0,0,5.08,3.62,3.62,0,0,0,2.52,1,3.41,3.41,0,0,0,2.49-1,3.73,3.73,0,0,0,1.08-2.49,3.82,3.82,0,0,0-1.08-2.59,3.41,3.41,0,0,0-2.49-1A3.62,3.62,0,0,0,83.9,1037.74Z"/><path d="M104.55,1022.58v25.52H99v-25.52Z"/><path d="M111.17,1022.79a3.15,3.15,0,1,1-3.15,3.15A3.14,3.14,0,0,1,111.17,1022.79Zm2.8,9.67v15.64h-5.6v-15.64Z"/><path d="M129.61,1047.75a8.24,8.24,0,0,1-3.88.88,8.65,8.65,0,0,1-6.16-2.38,8.21,8.21,0,0,1-2.42-5.85,8.57,8.57,0,0,1,2.52-6.06A9.07,9.07,0,0,1,126,1032a8,8,0,0,1,3.64.88v4.69a5,5,0,0,0-2.9-1,3.67,3.67,0,0,0-2.73,1.08,3.83,3.83,0,0,0-1.09,2.7,4,4,0,0,0,1,2.62,3.82,3.82,0,0,0,2.87,1.19,4.2,4.2,0,0,0,2.87-1Z"/><path d="M144.91,1032.46h5.6v15.64h-5.6v-1.71a5.87,5.87,0,0,1-4.87,2.24,7.47,7.47,0,0,1-5.63-2.49,7.86,7.86,0,0,1-2.24-5.74,8.69,8.69,0,0,1,2.41-6.27,8.06,8.06,0,0,1,5.64-2.2,6.18,6.18,0,0,1,4.69,2Zm-5.88,5.25a3.52,3.52,0,0,0,0,5.11,4,4,0,0,0,2.52,1,3.6,3.6,0,0,0,2.52-1.09,3.4,3.4,0,0,0,1.05-2.52,3.47,3.47,0,0,0-1.08-2.55,3.54,3.54,0,0,0-5,0Z"/><path d="M160.55,1037v11.06H155V1037h-1.78v-4.58H155v-5.15h5.6v5.15h3.19V1037Zm-5.39,12.81,5.25.56-3.57,6.44-3.5-.42Z"/><path d="M168.64,1022.79a3.15,3.15,0,1,1-3.16,3.15A3.14,3.14,0,0,1,168.64,1022.79Zm2.8,9.67v15.64h-5.61v-15.64Z"/><path d="M191.84,1041.31H180.19a4,4,0,0,0,1,2.63,3.15,3.15,0,0,0,2.31.77,4.51,4.51,0,0,0,1.82-.42,2.64,2.64,0,0,0,1-1h5.35a7,7,0,0,1-1.89,3.22c-1.15,1.12-3,2.17-6.37,2.17a8.88,8.88,0,0,1-6.47-2.38,8.19,8.19,0,0,1-2.32-5.92,8.33,8.33,0,0,1,2.35-6,8.79,8.79,0,0,1,6.41-2.28,8.57,8.57,0,0,1,6,2.13,8.81,8.81,0,0,1,2.48,6.59Zm-5.14-3.22a3.78,3.78,0,0,0-.91-1.68,3.25,3.25,0,0,0-2.31-.84,3,3,0,0,0-2.28.84,3.27,3.27,0,0,0-.84,1.68Z"/><path d="M625.87,1029.3v18.2h-6v-18.2h-5v-5.15h16v5.15Z"/><path d="M647.85,1040.71H636.2a3.91,3.91,0,0,0,1,2.62,3.15,3.15,0,0,0,2.31.77,4.33,4.33,0,0,0,1.82-.42,2.64,2.64,0,0,0,1-1h5.35a6.92,6.92,0,0,1-1.89,3.22c-1.15,1.12-3,2.17-6.37,2.17a8.84,8.84,0,0,1-6.47-2.38,8.16,8.16,0,0,1-2.31-5.91,8.37,8.37,0,0,1,2.34-6.06,8.83,8.83,0,0,1,6.41-2.27,8.57,8.57,0,0,1,6,2.13,8.77,8.77,0,0,1,2.48,6.58Zm-5.14-3.22a3.73,3.73,0,0,0-.91-1.68,3.25,3.25,0,0,0-2.31-.84,3,3,0,0,0-2.28.84,3.27,3.27,0,0,0-.84,1.68Z"/><path d="M651.07,1031.85h5.6v2.56a5.06,5.06,0,0,1,2.21-2.17,6,6,0,0,1,2.9-.63l1.12.07V1037a4.93,4.93,0,0,0-2.41-.56,3.71,3.71,0,0,0-2.56.84,4.73,4.73,0,0,0-1.26,3.57v6.69h-5.6Z"/><path d="M665.39,1031.85H671v1.89a6,6,0,0,1,4.69-2.17,6.43,6.43,0,0,1,3,.7,5,5,0,0,1,2.17,2.24,5.52,5.52,0,0,1,2.13-2.17,6.36,6.36,0,0,1,3.26-.77,6.24,6.24,0,0,1,4.34,1.44,5.74,5.74,0,0,1,1.47,4.3v10.19h-5.6v-7.74c0-1.64-.18-2.76-.81-3.36a2,2,0,0,0-1.47-.52,2.23,2.23,0,0,0-1.64.63,4,4,0,0,0-1,3v8h-5.6v-7.74c0-1.5-.1-2.69-.73-3.36a2.19,2.19,0,0,0-1.68-.63,2,2,0,0,0-1.54.56,4.63,4.63,0,0,0-1,3.43v7.74h-5.6Z"/><path d="M698.74,1022.19a3.15,3.15,0,1,1-3.15,3.15A3.14,3.14,0,0,1,698.74,1022.19Zm2.8,9.66v15.65h-5.6v-15.65Z"/><path d="M705.36,1031.85H711v2a5.9,5.9,0,0,1,5-2.31,6.35,6.35,0,0,1,4.62,1.68c1.33,1.33,1.47,2.66,1.47,4.38v9.94h-5.6v-7.91c0-.91,0-2.28-.7-3a2.36,2.36,0,0,0-1.79-.66,3,3,0,0,0-2.06.73,3.61,3.61,0,0,0-.91,2.49v8.4h-5.6Z"/><path d="M737.94,1031.85h5.6v15.65h-5.6v-1.72a5.82,5.82,0,0,1-4.86,2.24,7.51,7.51,0,0,1-5.64-2.48,7.92,7.92,0,0,1-2.24-5.74,8.67,8.67,0,0,1,2.42-6.27,8,8,0,0,1,5.63-2.2,6.16,6.16,0,0,1,4.69,2Zm-5.88,5.25a3.67,3.67,0,0,0-1.12,2.56,3.59,3.59,0,0,0,1.09,2.55,3.91,3.91,0,0,0,2.52,1,3.59,3.59,0,0,0,2.52-1.08,3.4,3.4,0,0,0,1-2.52,3.45,3.45,0,0,0-1.09-2.56,3.56,3.56,0,0,0-5,0Z"/><path d="M753,1022v25.52h-5.6V1022Z"/><rect x="425.5" y="475.5" width="198.5" height="93.04" rx="12" ry="12" style="fill:none;stroke:#f4c240;stroke-miterlimit:10;stroke-width:6.13250733954603px"/><rect x="437.25" y="806.47" width="175" height="76.94" rx="12" ry="12" style="fill:none;stroke:#f4c240;stroke-miterlimit:10;stroke-width:5.236px"/><path d="M515.47,853.32a7.12,7.12,0,0,1-3.33.75,7.41,7.41,0,0,1-5.28-2,7,7,0,0,1-2.07-5,7.3,7.3,0,0,1,2.16-5.19,7.73,7.73,0,0,1,5.39-2,6.92,6.92,0,0,1,3.13.75v4a4.28,4.28,0,0,0-2.49-.87,3.15,3.15,0,0,0-2.34.93,3.26,3.26,0,0,0-.93,2.31,3.44,3.44,0,0,0,.84,2.25,3.26,3.26,0,0,0,2.46,1,3.65,3.65,0,0,0,2.46-.9Z"/><path d="M528.57,840.21h4.8v13.41h-4.8v-1.47a5,5,0,0,1-4.16,1.92,6.45,6.45,0,0,1-4.84-2.13,6.76,6.76,0,0,1-1.91-4.92,7.46,7.46,0,0,1,2.06-5.37,6.92,6.92,0,0,1,4.83-1.89,5.31,5.31,0,0,1,4,1.74Zm-5,4.5a3.14,3.14,0,0,0-1,2.19,3.1,3.1,0,0,0,.94,2.19,3.32,3.32,0,0,0,2.15.9,3.08,3.08,0,0,0,2.16-.93,2.91,2.91,0,0,0,.9-2.16,3,3,0,0,0-.93-2.19,3,3,0,0,0-4.26,0Z"/><path d="M542,844.14v9.48h-4.8v-9.48h-1.52v-3.93h1.52V835.8H542v4.41h2.73v3.93Z"/><rect x="437.25" y="645.01" width="175" height="76.94" rx="12" ry="12" style="fill:none;stroke:#f4c240;stroke-miterlimit:10;stroke-width:5.236px"/><path d="M496,689.75a6.87,6.87,0,0,0,1.92,1,6.25,6.25,0,0,0,1.86.33,2,2,0,0,0,1.23-.36.77.77,0,0,0,.24-.63.71.71,0,0,0-.24-.6,3,3,0,0,0-1.26-.48l-1.26-.3a4.31,4.31,0,0,1-2.34-1.17,3.24,3.24,0,0,1-.87-2.31,4.79,4.79,0,0,1,1.26-3.27,6.77,6.77,0,0,1,4.8-1.62,11.07,11.07,0,0,1,4.29.87L504,684.26a6.64,6.64,0,0,0-2.52-.66,2,2,0,0,0-1.11.27.72.72,0,0,0-.42.66.78.78,0,0,0,.57.75c.45.18.84.18,1.59.39l.87.24a5.67,5.67,0,0,1,2,1.05,3.79,3.79,0,0,1,1,2.67,4.48,4.48,0,0,1-1.35,3.33,7,7,0,0,1-4.95,1.68,9.89,9.89,0,0,1-5.4-1.56Z"/><path d="M508.43,672.32h4.8v10.14a5.85,5.85,0,0,1,1.5-1.32,6.14,6.14,0,0,1,6.72.78,4.68,4.68,0,0,1,1.26,3.75v8.52h-4.8v-6.78a4,4,0,0,0-.6-2.61,1.9,1.9,0,0,0-1.53-.57,2.57,2.57,0,0,0-1.74.57,2.92,2.92,0,0,0-.81,2.19v7.2h-4.8Z"/><path d="M539.6,688.37h-10a3.39,3.39,0,0,0,.84,2.25,2.7,2.7,0,0,0,2,.66,3.79,3.79,0,0,0,1.56-.36,2.23,2.23,0,0,0,.84-.9h4.59a6,6,0,0,1-1.62,2.76c-1,1-2.55,1.86-5.46,1.86a7.61,7.61,0,0,1-5.55-2,7,7,0,0,1-2-5.07,7.16,7.16,0,0,1,2-5.19,7.55,7.55,0,0,1,5.49-2,7.35,7.35,0,0,1,5.16,1.83,7.51,7.51,0,0,1,2.13,5.64Zm-4.41-2.76a3.22,3.22,0,0,0-.78-1.44,2.8,2.8,0,0,0-2-.72,2.58,2.58,0,0,0-1.95.72,2.74,2.74,0,0,0-.72,1.44Z"/><path d="M547.16,672.32v21.87h-4.8V672.32Z"/><path d="M555.23,672.32v21.87h-4.8V672.32Z"/><path d="M485.74,510.36a5.84,5.84,0,0,0,3.82,1.7,2.21,2.21,0,0,0,1.68-.58,1.48,1.48,0,0,0,.42-1.05,1.3,1.3,0,0,0-.47-1,6.1,6.1,0,0,0-2.15-.87l-1.13-.35a5.42,5.42,0,0,1-2.4-1.35,4.2,4.2,0,0,1-.95-2.95,5.41,5.41,0,0,1,1.53-4,5.88,5.88,0,0,1,4.27-1.58,11.76,11.76,0,0,1,5.15,1.35L493.79,503a4.39,4.39,0,0,0-2.85-1.13,2.09,2.09,0,0,0-1.43.5,1.24,1.24,0,0,0-.42.9,1.13,1.13,0,0,0,.22.75,2.79,2.79,0,0,0,1.45.75l1.33.4a6.29,6.29,0,0,1,3,1.65,3.93,3.93,0,0,1,1.08,3,5.65,5.65,0,0,1-1.58,4.2,6.43,6.43,0,0,1-4.92,1.7,9,9,0,0,1-3.28-.55,11.91,11.91,0,0,1-2.52-1.32Z"/><path d="M502.56,513.83l-5.39-9.64h4.64l3,5.72,2.9-5.72h4.57l-9,16.89h-4.48Z"/><path d="M513.44,511.66a5.52,5.52,0,0,0,1.6.82,5,5,0,0,0,1.55.28,1.72,1.72,0,0,0,1-.3.64.64,0,0,0,.2-.53.58.58,0,0,0-.2-.5,2.56,2.56,0,0,0-1.05-.4l-1-.25a3.55,3.55,0,0,1-2-1,2.74,2.74,0,0,1-.72-1.93,4,4,0,0,1,1-2.72,5.67,5.67,0,0,1,4-1.35,9.08,9.08,0,0,1,3.57.73l-1.35,2.54a5.51,5.51,0,0,0-2.1-.55,1.67,1.67,0,0,0-.92.23.59.59,0,0,0-.35.55.64.64,0,0,0,.47.62c.38.15.7.15,1.33.33l.72.2a4.71,4.71,0,0,1,1.65.87,3.17,3.17,0,0,1,.85,2.23,3.71,3.71,0,0,1-1.12,2.77,5.81,5.81,0,0,1-4.13,1.4,8.16,8.16,0,0,1-4.49-1.3Z"/><path d="M528.24,507.46v7.9h-4v-7.9H523v-3.27h1.28v-3.68h4v3.68h2.27v3.27Z"/><path d="M543.86,510.51h-8.32a2.78,2.78,0,0,0,.7,1.87,2.25,2.25,0,0,0,1.65.55,3.07,3.07,0,0,0,1.3-.3,1.9,1.9,0,0,0,.7-.75h3.82a4.91,4.91,0,0,1-1.35,2.3,6.06,6.06,0,0,1-4.55,1.55,6.31,6.31,0,0,1-4.62-1.7,5.82,5.82,0,0,1-1.65-4.22,5.94,5.94,0,0,1,1.67-4.32,6.27,6.27,0,0,1,4.58-1.63,6.14,6.14,0,0,1,4.3,1.53,6.24,6.24,0,0,1,1.77,4.69Zm-3.67-2.3a2.66,2.66,0,0,0-.65-1.2,2.36,2.36,0,0,0-1.65-.6,2.14,2.14,0,0,0-1.63.6,2.36,2.36,0,0,0-.6,1.2Z"/><path d="M546.16,504.19h4v1.34a4.31,4.31,0,0,1,3.35-1.54,4.49,4.49,0,0,1,2.15.5,3.4,3.4,0,0,1,1.55,1.59,3.85,3.85,0,0,1,1.52-1.54,5.22,5.22,0,0,1,5.43.47,4.11,4.11,0,0,1,1.05,3.07v7.28h-4v-5.53a3.33,3.33,0,0,0-.58-2.4,1.48,1.48,0,0,0-1-.37,1.61,1.61,0,0,0-1.18.45,2.86,2.86,0,0,0-.72,2.12v5.73h-4v-5.53a3.59,3.59,0,0,0-.53-2.4A1.56,1.56,0,0,0,552,507a1.43,1.43,0,0,0-1.1.39,3.31,3.31,0,0,0-.7,2.45v5.53h-4Z"/><path d="M460.15,545.11a6,6,0,0,1-2.77.62A6.14,6.14,0,0,1,453,544a5.83,5.83,0,0,1-1.73-4.17,6.14,6.14,0,0,1,1.8-4.33,6.49,6.49,0,0,1,4.5-1.69,5.72,5.72,0,0,1,2.6.62v3.35a3.51,3.51,0,0,0-2.07-.73,2.62,2.62,0,0,0-1.95.78,2.71,2.71,0,0,0-.78,1.92,2.91,2.91,0,0,0,.7,1.88,2.73,2.73,0,0,0,2.05.85,3,3,0,0,0,2-.75Z"/><path d="M471.08,534.19h4v11.17h-4v-1.23a4.17,4.17,0,0,1-3.48,1.6,5.35,5.35,0,0,1-4-1.77,5.63,5.63,0,0,1-1.6-4.1,6.15,6.15,0,0,1,1.72-4.47,5.77,5.77,0,0,1,4-1.58,4.45,4.45,0,0,1,3.35,1.45Zm-4.2,3.74a2.63,2.63,0,0,0-.8,1.83,2.55,2.55,0,0,0,.77,1.82,2.83,2.83,0,0,0,1.8.75,2.56,2.56,0,0,0,1.8-.77,2.43,2.43,0,0,0,.75-1.8,2.49,2.49,0,0,0-.77-1.83,2.57,2.57,0,0,0-1.8-.72A2.54,2.54,0,0,0,466.88,537.93Z"/><path d="M481.83,527.14v18.22h-4V527.14Z"/><path d="M488.55,527.14v18.22h-4V527.14Z"/><path d="M499.1,527.29a2.25,2.25,0,1,1-2.25,2.25A2.24,2.24,0,0,1,499.1,527.29Zm2,6.9v11.17h-4V534.19Z"/><path d="M503.83,534.19h4v1.39a4.22,4.22,0,0,1,3.54-1.64,4.49,4.49,0,0,1,3.3,1.2,3.82,3.82,0,0,1,1.05,3.12v7.1h-4v-5.65a3.19,3.19,0,0,0-.5-2.18,1.65,1.65,0,0,0-1.27-.47,2.15,2.15,0,0,0-1.47.52,2.58,2.58,0,0,0-.65,1.78v6h-4Z"/><path d="M522.88,537.46v7.9h-4v-7.9H517.6v-3.27h1.28v-3.68h4v3.68h2.27v3.27Z"/><path d="M538.5,540.51h-8.33a2.83,2.83,0,0,0,.7,1.87,2.25,2.25,0,0,0,1.65.55,3.07,3.07,0,0,0,1.3-.3,1.83,1.83,0,0,0,.7-.75h3.83a5.09,5.09,0,0,1-1.35,2.3,6.09,6.09,0,0,1-4.55,1.55,6.29,6.29,0,0,1-4.62-1.7,5.82,5.82,0,0,1-1.65-4.22,5.94,5.94,0,0,1,1.67-4.32,6.25,6.25,0,0,1,4.57-1.63,6.12,6.12,0,0,1,4.3,1.53,6.21,6.21,0,0,1,1.78,4.69Zm-3.68-2.3a2.66,2.66,0,0,0-.65-1.2,2.35,2.35,0,0,0-1.65-.6,2.12,2.12,0,0,0-1.62.6,2.21,2.21,0,0,0-.6,1.2Z"/><path d="M540.8,534.19h4V536a3.6,3.6,0,0,1,1.57-1.55,4.44,4.44,0,0,1,2.08-.45c.1,0,.27,0,.8,0v3.77a3.66,3.66,0,0,0-1.73-.4,2.63,2.63,0,0,0-1.82.6,3.38,3.38,0,0,0-.9,2.55v4.78h-4Z"/><path d="M556,537.46v7.9h-4v-7.9h-1.4v-3.27H552v-1.88a5.73,5.73,0,0,1,1-3.67,4.65,4.65,0,0,1,3.88-1.78,4.94,4.94,0,0,1,1.92.38v3.45a2.47,2.47,0,0,0-1.25-.38,1.42,1.42,0,0,0-1.12.43,2.9,2.9,0,0,0-.45,1.87v1.58h2.8v3.27Z"/><path d="M568.92,534.19h4v11.17h-4v-1.23a4.15,4.15,0,0,1-3.47,1.6,5.37,5.37,0,0,1-4-1.77,5.67,5.67,0,0,1-1.6-4.1,6.15,6.15,0,0,1,1.73-4.47,5.74,5.74,0,0,1,4-1.58,4.43,4.43,0,0,1,3.35,1.45Zm-4.2,3.74a2.63,2.63,0,0,0-.8,1.83,2.56,2.56,0,0,0,.78,1.82,2.79,2.79,0,0,0,1.8.75,2.56,2.56,0,0,0,1.8-.77,2.43,2.43,0,0,0,.75-1.8,2.46,2.46,0,0,0-.78-1.83,2.55,2.55,0,0,0-3.55,0Z"/><path d="M584.12,545.11a6,6,0,0,1-2.77.62A6.14,6.14,0,0,1,577,544a5.82,5.82,0,0,1-1.72-4.17,6.13,6.13,0,0,1,1.79-4.33,6.49,6.49,0,0,1,4.5-1.69,5.72,5.72,0,0,1,2.6.62v3.35a3.51,3.51,0,0,0-2.07-.73,2.62,2.62,0,0,0-1.95.78,2.71,2.71,0,0,0-.78,1.92,2.91,2.91,0,0,0,.7,1.88,2.73,2.73,0,0,0,2.05.85,3,3,0,0,0,2-.75Z"/><path d="M598.25,540.51h-8.33a2.83,2.83,0,0,0,.7,1.87,2.25,2.25,0,0,0,1.65.55,3.07,3.07,0,0,0,1.3-.3,1.83,1.83,0,0,0,.7-.75h3.83a5.09,5.09,0,0,1-1.35,2.3,6.09,6.09,0,0,1-4.55,1.55,6.33,6.33,0,0,1-4.63-1.7,6.31,6.31,0,0,1,0-8.54,6.23,6.23,0,0,1,4.57-1.63,6.12,6.12,0,0,1,4.3,1.53,6.21,6.21,0,0,1,1.78,4.69Zm-3.68-2.3a2.66,2.66,0,0,0-.65-1.2,2.35,2.35,0,0,0-1.65-.6,2.12,2.12,0,0,0-1.62.6,2.21,2.21,0,0,0-.6,1.2Z"/><rect x="398.5" y="1009.5" width="9" height="68" rx="4.5" ry="4.5" transform="translate(1446.5 640.5) rotate(90)" style="fill:#eb6a38"/><polygon points="296.89 947.79 296.5 878.68 306.47 878.62 285.18 857.57 264.13 878.86 274.09 878.8 274.48 947.92 296.89 947.79" style="fill:none;stroke:#eb6a38;stroke-miterlimit:10;stroke-width:5px"/><polygon points="530.71 975.28 530.43 925.35 537.63 925.31 522.25 910.1 507.04 925.48 514.24 925.44 514.52 975.37 530.71 975.28" style="fill:none;stroke:#eb6a38;stroke-miterlimit:10;stroke-width:3.61234784126282px"/><polygon points="532.42 787.28 532.22 751.15 537.43 751.12 526.3 740.12 515.29 751.24 520.5 751.22 520.7 787.34 532.42 787.28" style="fill:none;stroke:#eb6a38;stroke-miterlimit:10;stroke-width:2.61364191770554px"/><polygon points="532.42 630.28 532.22 594.15 537.43 594.12 526.3 583.12 515.29 594.24 520.5 594.22 520.7 630.34 532.42 630.28" style="fill:none;stroke:#eb6a38;stroke-miterlimit:10;stroke-width:2.61364191770554px"/><polygon points="532.42 459.28 532.22 423.15 537.43 423.12 526.3 412.12 515.29 423.24 520.5 423.21 520.7 459.34 532.42 459.28" style="fill:none;stroke:#eb6a38;stroke-miterlimit:10;stroke-width:2.61364191770554px"/><polygon points="296.89 811.12 296.5 742.01 306.47 741.96 285.18 720.9 264.13 742.19 274.09 742.14 274.48 811.25 296.89 811.12" style="fill:none;stroke:#eb6a38;stroke-miterlimit:10;stroke-width:5px"/><polygon points="296.89 674.46 296.5 605.35 306.47 605.29 285.18 584.24 264.13 605.53 274.09 605.47 274.48 674.58 296.89 674.46" style="fill:none;stroke:#eb6a38;stroke-miterlimit:10;stroke-width:5px"/><polygon points="296.89 537.79 296.5 468.68 306.47 468.62 285.18 447.57 264.13 468.86 274.09 468.8 274.48 537.92 296.89 537.79" style="fill:none;stroke:#eb6a38;stroke-miterlimit:10;stroke-width:5px"/></svg>