<svg id="Layer_1" data-name="Layer 1" xmlns="http://www.w3.org/2000/svg" viewBox="0 0 1730 596"><title>Cap 14 -</title><rect x="34" y="36.34" width="601.5" height="481" rx="12" ry="12" style="fill:none;stroke:#636868;stroke-miterlimit:10;stroke-width:4.81347756664347px"/><rect x="65" y="63.09" width="539.5" height="372.75" rx="12" ry="12" style="fill:none;stroke:#e34758;stroke-miterlimit:10;stroke-width:5px"/><rect x="279.5" y="82.09" width="297.5" height="334.75" rx="12" ry="12" style="fill:none;stroke:#3a5c84;stroke-miterlimit:10;stroke-width:5px"/><rect x="292" y="96.15" width="272.5" height="104.19" rx="12" ry="12" style="fill:none;stroke:#f7931f;stroke-miterlimit:10;stroke-width:5px"/><rect x="80.5" y="82.34" width="188" height="334" rx="12" ry="12" style="fill:none;stroke:#f7931f;stroke-miterlimit:10;stroke-width:5px"/><path d="M183,320.15v8.47l3.92,1.58v6.4l-23.35-9V321l23.35-8.78v6.47Zm-4.62,1.61-7.56,2.63,7.56,2.55Z"/><path d="M195,304.47v5.6H171.28v-5.6H173a5.82,5.82,0,0,1-2.24-4.79,7.78,7.78,0,0,1,2.27-5.57,8.88,8.88,0,0,1,12.25.14,7.49,7.49,0,0,1,2.17,5.35,6.66,6.66,0,0,1-2,4.87Zm-18.38-.91a3.81,3.81,0,0,0,2.59,1.09,3.73,3.73,0,0,0,2.48-1.09,3.54,3.54,0,0,0,1.05-2.52,3.37,3.37,0,0,0-1.05-2.49,3.71,3.71,0,0,0-2.48-1.08,3.8,3.8,0,0,0-2.59,1.08,3.37,3.37,0,0,0-1,2.49A3.54,3.54,0,0,0,176.57,303.56Z"/><path d="M195,282.91v5.6H171.28v-5.6H173a5.82,5.82,0,0,1-2.24-4.79,7.78,7.78,0,0,1,2.27-5.57,8.88,8.88,0,0,1,12.25.14,7.5,7.5,0,0,1,2.17,5.36,6.66,6.66,0,0,1-2,4.86ZM176.57,282a3.81,3.81,0,0,0,2.59,1.09,3.73,3.73,0,0,0,2.48-1.09,3.54,3.54,0,0,0,1.05-2.52,3.35,3.35,0,0,0-1.05-2.48,3.67,3.67,0,0,0-2.48-1.09,3.81,3.81,0,0,0-2.59,1.09,3.35,3.35,0,0,0-1,2.48A3.54,3.54,0,0,0,176.57,282Z"/><path d="M161.41,261.35h25.52V267H161.41Z"/><path d="M161.62,254.74a3.15,3.15,0,1,1,3.15,3.15A3.14,3.14,0,0,1,161.62,254.74Zm9.66-2.8h15.65v5.6H171.28Z"/><path d="M186.58,236.29a8.37,8.37,0,0,1,.87,3.89,8.63,8.63,0,0,1-2.38,6.16,8.16,8.16,0,0,1-5.84,2.41,8.51,8.51,0,0,1-6.06-2.52,9,9,0,0,1-2.38-6.3,8,8,0,0,1,.88-3.64h4.69a5,5,0,0,0-1,2.91,3.67,3.67,0,0,0,1.09,2.73,3.79,3.79,0,0,0,2.69,1.08,4,4,0,0,0,2.63-1,3.78,3.78,0,0,0,1.19-2.87,4.28,4.28,0,0,0-1.05-2.87Z"/><path d="M171.28,221v-5.6h15.65V221h-1.72a5.82,5.82,0,0,1,2.24,4.86A7.51,7.51,0,0,1,185,231.5a7.92,7.92,0,0,1-5.74,2.24,8.67,8.67,0,0,1-6.27-2.42,8,8,0,0,1-2.2-5.63,6.16,6.16,0,0,1,2-4.69Zm5.25,5.88a3.67,3.67,0,0,0,2.56,1.12,3.59,3.59,0,0,0,2.55-1.09,3.91,3.91,0,0,0,1.05-2.52,3.59,3.59,0,0,0-1.08-2.52,3.4,3.4,0,0,0-2.52-1.05,3.45,3.45,0,0,0-2.56,1.09,3.56,3.56,0,0,0,0,5Z"/><path d="M175.87,205.35h11.06V211H175.87v1.79h-4.59V211h-5.14v-5.6h5.14v-3.18h4.59Z"/><path d="M161.62,197.27a3.15,3.15,0,1,1,3.15,3.15A3.14,3.14,0,0,1,161.62,197.27Zm9.66-2.8h15.65v5.6H171.28Z"/><path d="M184.86,174.9a10.71,10.71,0,0,1,0,14,8.08,8.08,0,0,1-11.51,0,9.78,9.78,0,0,1-2.59-7,9.88,9.88,0,0,1,2.59-7,8.08,8.08,0,0,1,11.51,0Zm-8.33,9.49a3.48,3.48,0,0,0,5,0,3.51,3.51,0,0,0,0-5,3.43,3.43,0,0,0-2.48-1.08,3.81,3.81,0,0,0-2.56,1.08,3.61,3.61,0,0,0,0,5Z"/><path d="M171.28,169.27v-5.6h2a5.91,5.91,0,0,1-2.31-5,6.34,6.34,0,0,1,1.68-4.62c1.33-1.33,2.66-1.47,4.38-1.47h9.94v5.6H179c-.91,0-2.28,0-3.05.7a2.32,2.32,0,0,0-.66,1.78,3.08,3.08,0,0,0,.73,2.07,3.61,3.61,0,0,0,2.49.91h8.4v5.6Z"/><path d="M352.7,153.08h-8.47L342.66,157h-6.41l9-23.35h6.62L360.62,157h-6.48Zm-1.61-4.62-2.62-7.56-2.56,7.56Z"/><path d="M368.38,165h-5.6V141.35h5.6v1.72a5.85,5.85,0,0,1,4.8-2.25,7.78,7.78,0,0,1,5.56,2.28,8.86,8.86,0,0,1-.14,12.25,7.49,7.49,0,0,1-5.35,2.17,6.66,6.66,0,0,1-4.87-2Zm.91-18.37a3.51,3.51,0,0,0,0,5.07,3.57,3.57,0,0,0,2.52,1,3.37,3.37,0,0,0,2.49-1,3.71,3.71,0,0,0,1.08-2.48,3.8,3.8,0,0,0-1.08-2.59,3.37,3.37,0,0,0-2.49-1A3.57,3.57,0,0,0,369.29,146.64Z"/><path d="M389.94,165h-5.6V141.35h5.6v1.72a5.85,5.85,0,0,1,4.8-2.25,7.78,7.78,0,0,1,5.56,2.28,8.88,8.88,0,0,1-.14,12.25,7.49,7.49,0,0,1-5.35,2.17,6.66,6.66,0,0,1-4.87-2Zm.91-18.37a3.51,3.51,0,0,0,0,5.07,3.57,3.57,0,0,0,2.52,1,3.37,3.37,0,0,0,2.49-1,3.71,3.71,0,0,0,1.08-2.48,3.8,3.8,0,0,0-1.08-2.59,3.37,3.37,0,0,0-2.49-1A3.57,3.57,0,0,0,390.85,146.64Z"/><path d="M411.5,131.48V157h-5.6V131.48Z"/><path d="M418.12,131.69a3.15,3.15,0,1,1-3.15,3.15A3.14,3.14,0,0,1,418.12,131.69Zm2.8,9.66V157h-5.6V141.35Z"/><path d="M436.56,156.65a8.34,8.34,0,0,1-3.88.87,8.61,8.61,0,0,1-6.16-2.38,8.17,8.17,0,0,1-2.42-5.84,8.55,8.55,0,0,1,2.52-6.06,9,9,0,0,1,6.3-2.38,7.91,7.91,0,0,1,3.64.88v4.69a4.93,4.93,0,0,0-2.9-1,3.67,3.67,0,0,0-2.73,1.09,3.8,3.8,0,0,0-1.09,2.69,4.06,4.06,0,0,0,1,2.63,3.82,3.82,0,0,0,2.87,1.19,4.25,4.25,0,0,0,2.87-1Z"/><path d="M451.86,141.35h5.6V157h-5.6v-1.72a5.84,5.84,0,0,1-4.87,2.24,7.49,7.49,0,0,1-5.63-2.48,7.88,7.88,0,0,1-2.24-5.74,8.67,8.67,0,0,1,2.41-6.27,8.07,8.07,0,0,1,5.64-2.21,6.18,6.18,0,0,1,4.69,2ZM446,146.6a3.67,3.67,0,0,0-1.12,2.56,3.58,3.58,0,0,0,1.08,2.55,4,4,0,0,0,2.52,1,3.59,3.59,0,0,0,2.52-1.08,3.4,3.4,0,0,0,1-2.52A3.48,3.48,0,0,0,451,146.6a3.56,3.56,0,0,0-5,0Z"/><path d="M467.5,145.94V157h-5.6V145.94h-1.78v-4.59h1.78V136.2h5.6v5.15h3.19v4.59Z"/><path d="M475.59,131.69a3.15,3.15,0,1,1-3.15,3.15A3.14,3.14,0,0,1,475.59,131.69Zm2.8,9.66V157h-5.6V141.35Z"/><path d="M498,154.93a10.7,10.7,0,0,1-14,0,8.05,8.05,0,0,1,0-11.51,9.71,9.71,0,0,1,7-2.6,9.84,9.84,0,0,1,7,2.6,8.05,8.05,0,0,1,0,11.51Zm-9.48-8.33a3.46,3.46,0,0,0,0,5,3.5,3.5,0,0,0,5,0,3.44,3.44,0,0,0,1.09-2.48,3.82,3.82,0,0,0-1.09-2.56,3.6,3.6,0,0,0-5,0Z"/><path d="M503.58,141.35h5.61v2a5.9,5.9,0,0,1,5-2.31,6.31,6.31,0,0,1,4.62,1.68c1.33,1.33,1.47,2.66,1.47,4.38V157h-5.6v-7.91c0-.91,0-2.28-.7-3.05a2.36,2.36,0,0,0-1.79-.66,3,3,0,0,0-2.06.73,3.61,3.61,0,0,0-.91,2.49V157h-5.61Z"/><path d="M400.17,237.37h10.32c0,4-.81,6.78-3.21,9a9.77,9.77,0,0,1-7,2.52,10.33,10.33,0,0,1-7.68-3,10.08,10.08,0,0,1-2.88-7.23,10.43,10.43,0,0,1,3-7.5,11.63,11.63,0,0,1,13.17-1.59,9.8,9.8,0,0,1,3.57,4.11l-5,2a4.9,4.9,0,0,0-1.44-2,4.2,4.2,0,0,0-2.79-1,4.83,4.83,0,0,0-3.42,1.38,6.75,6.75,0,0,0-1.74,4.59,6.26,6.26,0,0,0,1.59,4.32,4.73,4.73,0,0,0,3.66,1.53,4.29,4.29,0,0,0,2.88-.93,3.56,3.56,0,0,0,1.23-2.22h-4.26Z"/><path d="M418.14,235.3v7.5a2.57,2.57,0,0,0,.72,1.95,2.48,2.48,0,0,0,1.68.51,2.24,2.24,0,0,0,1.71-.57,2.49,2.49,0,0,0,.69-1.89v-7.5h4.8v8.37a4.6,4.6,0,0,1-1.29,3.6c-1.65,1.71-4,1.89-5.79,1.89-2,0-4.47-.21-6.06-1.92a4.82,4.82,0,0,1-1.26-3.57V235.3Z"/><path d="M445.26,242.89h-10a3.39,3.39,0,0,0,.84,2.25,2.7,2.7,0,0,0,2,.66,3.79,3.79,0,0,0,1.56-.36,2.23,2.23,0,0,0,.84-.9h4.59a6,6,0,0,1-1.62,2.76c-1,1-2.55,1.86-5.46,1.86a7.61,7.61,0,0,1-5.55-2,7,7,0,0,1-2-5.07,7.16,7.16,0,0,1,2-5.19,7.55,7.55,0,0,1,5.49-2,7.35,7.35,0,0,1,5.16,1.83,7.51,7.51,0,0,1,2.13,5.64Zm-4.41-2.76a3.22,3.22,0,0,0-.78-1.44,2.8,2.8,0,0,0-2-.72,2.58,2.58,0,0,0-1.95.72,2.74,2.74,0,0,0-.72,1.44Z"/><path d="M448.89,244.27a6.87,6.87,0,0,0,1.92,1,6.25,6.25,0,0,0,1.86.33,2,2,0,0,0,1.23-.36.77.77,0,0,0,.24-.63.71.71,0,0,0-.24-.6,3,3,0,0,0-1.26-.48l-1.26-.3a4.31,4.31,0,0,1-2.34-1.17,3.24,3.24,0,0,1-.87-2.31,4.79,4.79,0,0,1,1.26-3.27,6.77,6.77,0,0,1,4.8-1.62,11.07,11.07,0,0,1,4.29.87l-1.62,3.06a6.64,6.64,0,0,0-2.52-.66,2,2,0,0,0-1.11.27.72.72,0,0,0-.42.66.78.78,0,0,0,.57.75c.45.18.84.18,1.59.39l.87.24a5.67,5.67,0,0,1,2,1,3.79,3.79,0,0,1,1,2.67,4.48,4.48,0,0,1-1.35,3.33,7,7,0,0,1-4.95,1.68,9.89,9.89,0,0,1-5.4-1.56Z"/><path d="M466.65,239.23v9.48h-4.8v-9.48h-1.53V235.3h1.53v-4.41h4.8v4.41h2.73v3.93Z"/><path d="M323.13,282.19a12,12,0,0,1-15.78,0,10.47,10.47,0,0,1,0-15,12,12,0,0,1,15.78,0,10.47,10.47,0,0,1,0,15Zm-11.94-11.31a5.49,5.49,0,0,0-1.59,3.93,5.09,5.09,0,0,0,1.59,3.72,5.68,5.68,0,0,0,4.05,1.59,5.44,5.44,0,0,0,5.64-5.4,5.4,5.4,0,0,0-1.62-3.84,6,6,0,0,0-4-1.59A5.76,5.76,0,0,0,311.19,270.88Z"/><path d="M333.93,291.58h-4.8V271.3h4.8v1.47a5,5,0,0,1,4.11-1.92,6.67,6.67,0,0,1,4.77,1.95,7.61,7.61,0,0,1-.12,10.5,6.44,6.44,0,0,1-4.59,1.86,5.71,5.71,0,0,1-4.17-1.74Zm.78-15.75a3.27,3.27,0,0,0-.93,2.22,3.24,3.24,0,0,0,.93,2.13,3.07,3.07,0,0,0,2.16.9,2.9,2.9,0,0,0,2.13-.9,3.17,3.17,0,0,0,.93-2.13,3.27,3.27,0,0,0-.93-2.22,2.9,2.9,0,0,0-2.13-.9A3.07,3.07,0,0,0,334.71,275.83Z"/><path d="M361.83,278.89h-10a3.39,3.39,0,0,0,.84,2.25,2.7,2.7,0,0,0,2,.66,3.79,3.79,0,0,0,1.56-.36,2.23,2.23,0,0,0,.84-.9h4.59A6,6,0,0,1,360,283.3c-1,1-2.55,1.86-5.46,1.86a7.61,7.61,0,0,1-5.55-2,7,7,0,0,1-2-5.07,7.16,7.16,0,0,1,2-5.19,7.55,7.55,0,0,1,5.49-1.95,7.35,7.35,0,0,1,5.16,1.83,7.51,7.51,0,0,1,2.13,5.64Zm-4.41-2.76a3.22,3.22,0,0,0-.78-1.44,2.8,2.8,0,0,0-2-.72,2.58,2.58,0,0,0-2,.72,2.74,2.74,0,0,0-.72,1.44Z"/><path d="M364.59,271.3h4.8v2.19a4.33,4.33,0,0,1,1.89-1.86,5.24,5.24,0,0,1,2.49-.54l1,.06v4.53a4.23,4.23,0,0,0-2.07-.48,3.14,3.14,0,0,0-2.19.72,4,4,0,0,0-1.08,3.06v5.73h-4.8Z"/><path d="M387.24,271.3H392v13.41h-4.8v-1.47a5,5,0,0,1-4.17,1.92,6.42,6.42,0,0,1-4.83-2.13,6.76,6.76,0,0,1-1.92-4.92,7.42,7.42,0,0,1,2.07-5.37,6.9,6.9,0,0,1,4.83-1.89,5.31,5.31,0,0,1,4,1.74Zm-5,4.5a3.14,3.14,0,0,0-1,2.19,3.09,3.09,0,0,0,.93,2.19,3.37,3.37,0,0,0,2.16.9,3.08,3.08,0,0,0,2.16-.93,2.91,2.91,0,0,0,.9-2.16,3,3,0,0,0-.93-2.19,3,3,0,0,0-4.26,0Z"/><path d="M400.65,275.23v9.48h-4.8v-9.48h-1.53V271.3h1.53v-4.41h4.8v4.41h2.73v3.93Z"/><path d="M407.58,263a2.7,2.7,0,1,1-2.7,2.7A2.69,2.69,0,0,1,407.58,263Zm2.4,8.28v13.41h-4.8V271.3Z"/><path d="M413.25,271.3h4.8V273a5.06,5.06,0,0,1,4.26-2,5.42,5.42,0,0,1,4,1.44,4.62,4.62,0,0,1,1.26,3.75v8.52h-4.8v-6.78a3.85,3.85,0,0,0-.6-2.61,2,2,0,0,0-1.53-.57,2.63,2.63,0,0,0-1.77.63,3.08,3.08,0,0,0-.78,2.13v7.2h-4.8Z"/><path d="M445.89,271.3v12.57c0,2-.18,3.84-1.83,5.55a8,8,0,0,1-5.91,2.16,8.22,8.22,0,0,1-6.27-2.37,4.88,4.88,0,0,1-1.47-2.79h5.34A2.06,2.06,0,0,0,438,287.8a2.92,2.92,0,0,0,2.13-.75,3.23,3.23,0,0,0,1-2.49v-1.35a5.1,5.1,0,0,1-4,1.77,6.68,6.68,0,0,1-4.95-1.89,7.08,7.08,0,0,1-1.86-4.89,7.73,7.73,0,0,1,2-5.25,6.74,6.74,0,0,1,4.86-2,5.24,5.24,0,0,1,4,1.77V271.3Zm-9.78,4.5a3,3,0,0,0,0,4.35,3,3,0,0,0,2.16.87,3.07,3.07,0,0,0,3.06-3.06,3.44,3.44,0,0,0-1-2.19,3,3,0,0,0-2.13-.87A2.86,2.86,0,0,0,436.11,275.8Z"/><path d="M458,278.71a7,7,0,0,0,4.59,2,2.63,2.63,0,0,0,2-.69,1.79,1.79,0,0,0,.51-1.26,1.56,1.56,0,0,0-.57-1.2,7.21,7.21,0,0,0-2.58-1.05l-1.35-.42a6.54,6.54,0,0,1-2.88-1.62,5,5,0,0,1-1.14-3.54,6.54,6.54,0,0,1,1.83-4.83,7.05,7.05,0,0,1,5.13-1.89,14.06,14.06,0,0,1,6.18,1.62l-2.07,4.05a5.28,5.28,0,0,0-3.42-1.35,2.49,2.49,0,0,0-1.71.6,1.48,1.48,0,0,0-.51,1.08,1.34,1.34,0,0,0,.27.9,3.28,3.28,0,0,0,1.74.9l1.59.48a7.64,7.64,0,0,1,3.63,2,4.72,4.72,0,0,1,1.29,3.57,6.78,6.78,0,0,1-1.89,5,7.76,7.76,0,0,1-5.91,2,10.7,10.7,0,0,1-3.93-.66,14,14,0,0,1-3-1.59Z"/><path d="M478.14,282.88l-6.48-11.58h5.58l3.57,6.87,3.48-6.87h5.49L479,291.58h-5.37Z"/><path d="M491.19,280.27a6.87,6.87,0,0,0,1.92,1,6.25,6.25,0,0,0,1.86.33,2,2,0,0,0,1.23-.36.77.77,0,0,0,.24-.63.71.71,0,0,0-.24-.6,3,3,0,0,0-1.26-.48l-1.26-.3a4.31,4.31,0,0,1-2.34-1.17,3.24,3.24,0,0,1-.87-2.31,4.79,4.79,0,0,1,1.26-3.27,6.77,6.77,0,0,1,4.8-1.62,11.07,11.07,0,0,1,4.29.87l-1.62,3.06a6.64,6.64,0,0,0-2.52-.66,2,2,0,0,0-1.11.27.72.72,0,0,0-.42.66.78.78,0,0,0,.57.75c.45.18.84.18,1.59.39l.87.24a5.67,5.67,0,0,1,2,1.05,3.79,3.79,0,0,1,1,2.67,4.48,4.48,0,0,1-1.35,3.33,7,7,0,0,1-4.95,1.68,9.89,9.89,0,0,1-5.4-1.56Z"/><path d="M509,275.23v9.48h-4.8v-9.48h-1.53V271.3h1.53v-4.41H509v4.41h2.73v3.93Z"/><path d="M527.7,278.89h-10a3.39,3.39,0,0,0,.84,2.25,2.7,2.7,0,0,0,2,.66,3.79,3.79,0,0,0,1.56-.36,2.23,2.23,0,0,0,.84-.9h4.59a6,6,0,0,1-1.62,2.76c-1,1-2.55,1.86-5.46,1.86a7.61,7.61,0,0,1-5.55-2,7,7,0,0,1-2-5.07,7.16,7.16,0,0,1,2-5.19,7.55,7.55,0,0,1,5.49-1.95,7.35,7.35,0,0,1,5.16,1.83,7.51,7.51,0,0,1,2.13,5.64Zm-4.41-2.76a3.22,3.22,0,0,0-.78-1.44,2.8,2.8,0,0,0-2-.72,2.58,2.58,0,0,0-1.95.72,2.74,2.74,0,0,0-.72,1.44Z"/><path d="M530.46,271.3h4.8v1.62a5.15,5.15,0,0,1,4-1.86,5.46,5.46,0,0,1,2.58.6,4.19,4.19,0,0,1,1.86,1.92,4.71,4.71,0,0,1,1.83-1.86,5.44,5.44,0,0,1,2.79-.66,5.33,5.33,0,0,1,3.72,1.23,4.93,4.93,0,0,1,1.26,3.69v8.73h-4.8v-6.63c0-1.41-.15-2.37-.69-2.88a1.75,1.75,0,0,0-1.26-.45,1.94,1.94,0,0,0-1.41.54,3.43,3.43,0,0,0-.87,2.55v6.87h-4.8v-6.63a4.29,4.29,0,0,0-.63-2.88,1.86,1.86,0,0,0-1.44-.54,1.69,1.69,0,0,0-1.32.48,4,4,0,0,0-.84,2.94v6.63h-4.8Z"/><path d="M340.82,339.7l4.8,12.18,4.86-12.18h5.64l-8.52,20h-4.05l-8.4-20Z"/><path d="M360.17,338a2.7,2.7,0,1,1-2.7,2.7A2.69,2.69,0,0,1,360.17,338Zm2.4,8.28v13.41h-4.8V346.3Z"/><path d="M365.84,346.3h4.8v2.19a4.33,4.33,0,0,1,1.89-1.86,5.24,5.24,0,0,1,2.49-.54l1,.06v4.53a4.23,4.23,0,0,0-2.07-.48,3.14,3.14,0,0,0-2.19.72,4,4,0,0,0-1.08,3.06v5.73h-4.8Z"/><path d="M383.87,350.23v9.48h-4.8v-9.48h-1.53V346.3h1.53v-4.41h4.8v4.41h2.73v3.93Z"/><path d="M393.2,346.3v7.5a2.57,2.57,0,0,0,.72,1.95,2.48,2.48,0,0,0,1.68.51,2.24,2.24,0,0,0,1.71-.57,2.49,2.49,0,0,0,.69-1.89v-7.5h4.8v8.37a4.6,4.6,0,0,1-1.29,3.6c-1.65,1.71-4,1.89-5.79,1.89-2,0-4.47-.21-6.06-1.92a4.82,4.82,0,0,1-1.26-3.57V346.3Z"/><path d="M416.48,346.3h4.8v13.41h-4.8v-1.47a5,5,0,0,1-4.17,1.92,6.42,6.42,0,0,1-4.83-2.13,6.76,6.76,0,0,1-1.92-4.92,7.42,7.42,0,0,1,2.07-5.37,6.9,6.9,0,0,1,4.83-1.89,5.31,5.31,0,0,1,4,1.74Zm-5,4.5a3.14,3.14,0,0,0-1,2.19,3.09,3.09,0,0,0,.93,2.19,3.37,3.37,0,0,0,2.16.9,3.08,3.08,0,0,0,2.16-.93,2.91,2.91,0,0,0,.9-2.16,3,3,0,0,0-.93-2.19,3,3,0,0,0-4.26,0Z"/><path d="M429.38,337.84v21.87h-4.8V337.84Z"/><path d="M435.05,338a2.7,2.7,0,1,1-2.7,2.7A2.69,2.69,0,0,1,435.05,338Zm2.4,8.28v13.41h-4.8V346.3Z"/><path d="M447.71,355.78h5.61v3.93H439.67l6.33-9.48h-5.4V346.3H454Z"/><path d="M466.61,346.3h4.8v13.41h-4.8v-1.47a5,5,0,0,1-4.17,1.92,6.42,6.42,0,0,1-4.83-2.13,6.76,6.76,0,0,1-1.92-4.92,7.42,7.42,0,0,1,2.07-5.37,6.9,6.9,0,0,1,4.83-1.89,5.31,5.31,0,0,1,4,1.74Zm-5,4.5a3.14,3.14,0,0,0-1,2.19,3.09,3.09,0,0,0,.93,2.19,3.37,3.37,0,0,0,2.16.9,3.08,3.08,0,0,0,2.16-.93,2.91,2.91,0,0,0,.9-2.16,3,3,0,0,0-.93-2.19,3,3,0,0,0-4.26,0Z"/><path d="M480,350.23v9.48h-4.8v-9.48h-1.53V346.3h1.53v-4.41H480v4.41h2.73v3.93Z"/><path d="M487,338a2.7,2.7,0,1,1-2.7,2.7A2.69,2.69,0,0,1,487,338Zm2.4,8.28v13.41h-4.8V346.3Z"/><path d="M506.12,357.94a9.18,9.18,0,0,1-12,0,6.92,6.92,0,0,1,0-9.87,8.37,8.37,0,0,1,6-2.22,8.47,8.47,0,0,1,6,2.22,6.92,6.92,0,0,1,0,9.87ZM498,350.8a3.06,3.06,0,0,0,2.16,5.22,3.05,3.05,0,0,0,2.13-.9,3,3,0,0,0,.93-2.13,3.26,3.26,0,0,0-.93-2.19,3.08,3.08,0,0,0-4.29,0Z"/><path d="M511,346.3h4.8V348a5.06,5.06,0,0,1,4.26-2,5.42,5.42,0,0,1,4,1.44,4.62,4.62,0,0,1,1.26,3.75v8.52h-4.8v-6.78a3.85,3.85,0,0,0-.6-2.61,2,2,0,0,0-1.53-.57,2.63,2.63,0,0,0-1.77.63,3.08,3.08,0,0,0-.78,2.13v7.2H511Z"/><path d="M398.32,375.7v15.6h6.23v4.41H393.13v-20Z"/><path d="M417.15,382.3H422v13.41h-4.8v-1.47a5,5,0,0,1-4.17,1.92,6.39,6.39,0,0,1-4.82-2.13,6.76,6.76,0,0,1-1.92-4.92,7.42,7.42,0,0,1,2.06-5.37,6.92,6.92,0,0,1,4.83-1.89,5.31,5.31,0,0,1,4,1.74Zm-5,4.5a3.18,3.18,0,0,0-1,2.19,3.09,3.09,0,0,0,.93,2.19,3.37,3.37,0,0,0,2.16.9,3.08,3.08,0,0,0,2.16-.93,2.91,2.91,0,0,0,.9-2.16,3,3,0,0,0-.92-2.19,3.12,3.12,0,0,0-2.17-.87A3.07,3.07,0,0,0,412.11,386.8Z"/><path d="M430.08,393.88,423.6,382.3h5.58l3.57,6.87,3.48-6.87h5.49L431,402.58h-5.37Z"/><path d="M457.59,389.89h-10a3.39,3.39,0,0,0,.84,2.25,2.7,2.7,0,0,0,2,.66,3.79,3.79,0,0,0,1.56-.36,2.23,2.23,0,0,0,.84-.9h4.59a6,6,0,0,1-1.62,2.76c-1,1-2.55,1.86-5.46,1.86a7.61,7.61,0,0,1-5.55-2,7,7,0,0,1-2-5.07,7.16,7.16,0,0,1,2-5.19,7.55,7.55,0,0,1,5.49-1.95,7.35,7.35,0,0,1,5.16,1.83,7.51,7.51,0,0,1,2.13,5.64Zm-4.41-2.76a3.22,3.22,0,0,0-.78-1.44,2.8,2.8,0,0,0-2-.72,2.58,2.58,0,0,0-1.95.72,2.74,2.74,0,0,0-.72,1.44Z"/><path d="M460.35,382.3h4.8v2.19a4.33,4.33,0,0,1,1.89-1.86,5.24,5.24,0,0,1,2.49-.54l1,.06v4.53a4.23,4.23,0,0,0-2.07-.48,3.14,3.14,0,0,0-2.19.72,4,4,0,0,0-1.08,3.06v5.73h-4.8Z"/><path d="M180.54,472.17H188V464.7h5.22v20H188v-8.1h-7.5v8.1h-5.19v-20h5.19Z"/><path d="M210.51,482.94a9.18,9.18,0,0,1-12,0,6.92,6.92,0,0,1,0-9.87,8.37,8.37,0,0,1,6-2.22,8.47,8.47,0,0,1,6,2.22,6.92,6.92,0,0,1,0,9.87Zm-8.13-7.14a3.06,3.06,0,0,0,2.16,5.22,3.05,3.05,0,0,0,2.13-.9,3,3,0,0,0,.93-2.13,3.26,3.26,0,0,0-.93-2.19,3.08,3.08,0,0,0-4.29,0Z"/><path d="M216.21,480.27a6.87,6.87,0,0,0,1.92,1,6.25,6.25,0,0,0,1.86.33,2,2,0,0,0,1.23-.36.77.77,0,0,0,.24-.63.71.71,0,0,0-.24-.6,3,3,0,0,0-1.26-.48l-1.26-.3a4.31,4.31,0,0,1-2.34-1.17,3.24,3.24,0,0,1-.87-2.31,4.79,4.79,0,0,1,1.26-3.27,6.77,6.77,0,0,1,4.8-1.62,11.07,11.07,0,0,1,4.29.87l-1.62,3.06a6.64,6.64,0,0,0-2.52-.66,2,2,0,0,0-1.11.27.72.72,0,0,0-.42.66.78.78,0,0,0,.57.75c.45.18.84.18,1.59.39l.87.24a5.67,5.67,0,0,1,2,1.05,3.79,3.79,0,0,1,1,2.67,4.48,4.48,0,0,1-1.35,3.33,7,7,0,0,1-4.95,1.68,9.89,9.89,0,0,1-5.4-1.56Z"/><path d="M234,475.23v9.48h-4.8v-9.48h-1.53V471.3h1.53v-4.41H234v4.41h2.73v3.93Z"/><path d="M264,482.19a12,12,0,0,1-15.78,0,10.47,10.47,0,0,1,0-15,12,12,0,0,1,15.78,0,10.47,10.47,0,0,1,0,15ZM252,470.88a5.49,5.49,0,0,0-1.59,3.93,5.09,5.09,0,0,0,1.59,3.72,5.68,5.68,0,0,0,4,1.59,5.44,5.44,0,0,0,5.64-5.4,5.4,5.4,0,0,0-1.62-3.84,6,6,0,0,0-4-1.59A5.76,5.76,0,0,0,252,470.88Z"/><path d="M274.77,491.58H270V471.3h4.8v1.47a5,5,0,0,1,4.11-1.92,6.67,6.67,0,0,1,4.77,1.95,7.61,7.61,0,0,1-.12,10.5,6.44,6.44,0,0,1-4.59,1.86,5.71,5.71,0,0,1-4.17-1.74Zm.78-15.75a3.27,3.27,0,0,0-.93,2.22,3.24,3.24,0,0,0,.93,2.13,3.07,3.07,0,0,0,2.16.9,2.9,2.9,0,0,0,2.13-.9,3.17,3.17,0,0,0,.93-2.13,3.27,3.27,0,0,0-.93-2.22,2.9,2.9,0,0,0-2.13-.9A3.07,3.07,0,0,0,275.55,475.83Z"/><path d="M302.67,478.89h-10a3.39,3.39,0,0,0,.84,2.25,2.7,2.7,0,0,0,2,.66,3.79,3.79,0,0,0,1.56-.36,2.23,2.23,0,0,0,.84-.9h4.59a6,6,0,0,1-1.62,2.76c-1,1-2.55,1.86-5.46,1.86a7.61,7.61,0,0,1-5.55-2,7,7,0,0,1-2-5.07,7.16,7.16,0,0,1,2-5.19,7.55,7.55,0,0,1,5.49-1.95,7.35,7.35,0,0,1,5.16,1.83,7.51,7.51,0,0,1,2.13,5.64Zm-4.41-2.76a3.22,3.22,0,0,0-.78-1.44,2.8,2.8,0,0,0-2-.72,2.58,2.58,0,0,0-1.95.72,2.74,2.74,0,0,0-.72,1.44Z"/><path d="M305.43,471.3h4.8v2.19a4.33,4.33,0,0,1,1.89-1.86,5.22,5.22,0,0,1,2.48-.54l1,.06v4.53a4.14,4.14,0,0,0-2.06-.48,3.14,3.14,0,0,0-2.19.72,4,4,0,0,0-1.08,3.06v5.73h-4.8Z"/><path d="M328.07,471.3h4.8v13.41h-4.8v-1.47a5,5,0,0,1-4.17,1.92,6.4,6.4,0,0,1-4.82-2.13,6.76,6.76,0,0,1-1.92-4.92,7.42,7.42,0,0,1,2.07-5.37,6.9,6.9,0,0,1,4.83-1.89,5.26,5.26,0,0,1,4,1.74Zm-5,4.5a3.18,3.18,0,0,0-1,2.19,3.06,3.06,0,0,0,.94,2.19,3.34,3.34,0,0,0,2.15.9,3.06,3.06,0,0,0,2.16-.93,2.91,2.91,0,0,0,.91-2.16,3,3,0,0,0-.93-2.19,3.05,3.05,0,0,0-4.27,0Z"/><path d="M341.48,475.23v9.48h-4.79v-9.48h-1.54V471.3h1.54v-4.41h4.79v4.41h2.73v3.93Z"/><path d="M348.41,463a2.7,2.7,0,1,1-2.7,2.7A2.69,2.69,0,0,1,348.41,463Zm2.4,8.28v13.41H346V471.3Z"/><path d="M354.09,471.3h4.8V473a5,5,0,0,1,4.26-2,5.41,5.41,0,0,1,4,1.44,4.62,4.62,0,0,1,1.26,3.75v8.52h-4.8v-6.78a3.85,3.85,0,0,0-.6-2.61,2,2,0,0,0-1.52-.57,2.67,2.67,0,0,0-1.78.63,3.13,3.13,0,0,0-.77,2.13v7.2h-4.8Z"/><path d="M386.72,471.3v12.57c0,2-.18,3.84-1.83,5.55a8,8,0,0,1-5.91,2.16,8.22,8.22,0,0,1-6.27-2.37,4.93,4.93,0,0,1-1.47-2.79h5.34a2.06,2.06,0,0,0,2.25,1.38,2.92,2.92,0,0,0,2.13-.75,3.23,3.23,0,0,0,1-2.49v-1.35a5.1,5.1,0,0,1-4,1.77,6.68,6.68,0,0,1-4.95-1.89,7.07,7.07,0,0,1-1.85-4.89,7.72,7.72,0,0,1,2-5.25,6.74,6.74,0,0,1,4.86-2,5.24,5.24,0,0,1,4,1.77V471.3Zm-9.78,4.5a3,3,0,0,0,0,4.35,3,3,0,0,0,2.16.87,3.07,3.07,0,0,0,3.06-3.06,3.44,3.44,0,0,0-1-2.19,3,3,0,0,0-2.13-.87A2.86,2.86,0,0,0,376.94,475.8Z"/><path d="M398.78,478.71a7,7,0,0,0,4.59,2,2.63,2.63,0,0,0,2-.69,1.79,1.79,0,0,0,.51-1.26,1.56,1.56,0,0,0-.57-1.2,7.21,7.21,0,0,0-2.58-1.05l-1.35-.42a6.54,6.54,0,0,1-2.88-1.62,5,5,0,0,1-1.14-3.54,6.54,6.54,0,0,1,1.83-4.83,7.05,7.05,0,0,1,5.13-1.89,14.06,14.06,0,0,1,6.18,1.62l-2.07,4.05a5.28,5.28,0,0,0-3.42-1.35,2.49,2.49,0,0,0-1.71.6,1.48,1.48,0,0,0-.51,1.08,1.34,1.34,0,0,0,.27.9,3.28,3.28,0,0,0,1.74.9l1.59.48a7.64,7.64,0,0,1,3.63,2,4.72,4.72,0,0,1,1.29,3.57,6.78,6.78,0,0,1-1.89,5,7.76,7.76,0,0,1-5.91,2,10.7,10.7,0,0,1-3.93-.66,14,14,0,0,1-3-1.59Z"/><path d="M419,482.88l-6.48-11.58h5.58l3.57,6.87,3.48-6.87h5.49l-10.77,20.28h-5.37Z"/><path d="M432,480.27a6.87,6.87,0,0,0,1.92,1,6.25,6.25,0,0,0,1.86.33,2,2,0,0,0,1.23-.36.77.77,0,0,0,.24-.63.71.71,0,0,0-.24-.6,3,3,0,0,0-1.26-.48l-1.26-.3a4.31,4.31,0,0,1-2.34-1.17,3.24,3.24,0,0,1-.87-2.31,4.79,4.79,0,0,1,1.26-3.27,6.77,6.77,0,0,1,4.8-1.62,11.07,11.07,0,0,1,4.29.87L440,474.78a6.64,6.64,0,0,0-2.52-.66,2,2,0,0,0-1.11.27.72.72,0,0,0-.42.66.78.78,0,0,0,.57.75c.45.18.84.18,1.59.39l.87.24a5.67,5.67,0,0,1,2,1.05,3.79,3.79,0,0,1,1,2.67,4.48,4.48,0,0,1-1.35,3.33,7,7,0,0,1-5,1.68,9.89,9.89,0,0,1-5.4-1.56Z"/><path d="M449.78,475.23v9.48H445v-9.48h-1.53V471.3H445v-4.41h4.8v4.41h2.73v3.93Z"/><path d="M468.53,478.89h-10a3.39,3.39,0,0,0,.84,2.25,2.7,2.7,0,0,0,2,.66,3.79,3.79,0,0,0,1.56-.36,2.23,2.23,0,0,0,.84-.9h4.59a6,6,0,0,1-1.62,2.76c-1,1-2.55,1.86-5.46,1.86a7.61,7.61,0,0,1-5.55-2,7,7,0,0,1-2-5.07,7.16,7.16,0,0,1,2-5.19,7.55,7.55,0,0,1,5.49-1.95,7.35,7.35,0,0,1,5.16,1.83,7.51,7.51,0,0,1,2.13,5.64Zm-4.41-2.76a3.22,3.22,0,0,0-.78-1.44,2.8,2.8,0,0,0-2-.72,2.58,2.58,0,0,0-1.95.72,2.74,2.74,0,0,0-.72,1.44Z"/><path d="M471.29,471.3h4.8v1.62a5.15,5.15,0,0,1,4-1.86,5.46,5.46,0,0,1,2.58.6,4.19,4.19,0,0,1,1.86,1.92,4.71,4.71,0,0,1,1.83-1.86,5.44,5.44,0,0,1,2.79-.66,5.33,5.33,0,0,1,3.72,1.23,4.93,4.93,0,0,1,1.26,3.69v8.73h-4.8v-6.63c0-1.41-.15-2.37-.69-2.88a1.75,1.75,0,0,0-1.26-.45,1.94,1.94,0,0,0-1.41.54,3.43,3.43,0,0,0-.87,2.55v6.87h-4.8v-6.63a4.29,4.29,0,0,0-.63-2.88,1.86,1.86,0,0,0-1.44-.54,1.69,1.69,0,0,0-1.32.48,4,4,0,0,0-.84,2.94v6.63h-4.8Z"/><path d="M174.22,552.42l-5.43-6.12H175l2.31,2.76,2.37-2.76h6.21l-5.55,6.12,6.72,7.29h-6.36l-3.42-4-3.42,4h-6.36Z"/><path d="M202.21,550.71a4.86,4.86,0,0,1,1.53,3.54,5.4,5.4,0,0,1-1.62,3.78c-.69.69-2.49,2.13-6.06,2.13a8,8,0,0,1-6-2.1,5.54,5.54,0,0,1-1.65-3.81,5.43,5.43,0,0,1,1.47-3.6,6.65,6.65,0,0,1,2.52-1.47,5.44,5.44,0,0,1-1.8-1.14,4.38,4.38,0,0,1-1.35-3.18,5.2,5.2,0,0,1,1.65-3.78,7.87,7.87,0,0,1,5.34-1.83,7.12,7.12,0,0,1,5.16,1.92,5.06,5.06,0,0,1,1.47,3.66,4.22,4.22,0,0,1-1.23,3.12,5.7,5.7,0,0,1-2,1.23A6.22,6.22,0,0,1,202.21,550.71Zm-7.8,1.26a2.32,2.32,0,0,0,0,3.33,2.42,2.42,0,0,0,1.71.72,2.21,2.21,0,0,0,1.68-.69,2.29,2.29,0,0,0,.72-1.71,2.16,2.16,0,0,0-.72-1.65,2.46,2.46,0,0,0-1.68-.69A2.52,2.52,0,0,0,194.41,552Zm.09-8.55a2.29,2.29,0,0,0-.6,1.53,2.25,2.25,0,0,0,.63,1.44,2.15,2.15,0,0,0,1.59.66,2,2,0,0,0,1.47-.6,2.23,2.23,0,0,0,.69-1.53,2.26,2.26,0,0,0-.69-1.59,2,2,0,0,0-1.44-.6A2.17,2.17,0,0,0,194.5,543.42Z"/><path d="M219,539.7l-5.7,6.81a7,7,0,0,1,2.79-.63,6.5,6.5,0,0,1,4.53,1.92,6.43,6.43,0,0,1,1.89,4.77,7,7,0,0,1-2.07,5.22,9.95,9.95,0,0,1-13-.06,6.55,6.55,0,0,1-1.83-4.68,12.92,12.92,0,0,1,3-7.47l4.47-5.88Zm-2.73,15.42a3.22,3.22,0,0,0,.93-2.28,2.86,2.86,0,0,0-.93-2.1,3.26,3.26,0,0,0-2.31-.93,3.52,3.52,0,0,0-2.25.87,2.94,2.94,0,0,0-1,2.07,3.33,3.33,0,0,0,.87,2.28,3.27,3.27,0,0,0,2.37,1A3.19,3.19,0,0,0,216.28,555.12Z"/><path d="M244.39,556.35h-7.26l-1.35,3.36h-5.49l7.68-20h5.67l7.53,20h-5.55Zm-1.38-4-2.25-6.48-2.19,6.48Z"/><path d="M253,546.3h4.8v2.19a4.33,4.33,0,0,1,1.89-1.86,5.24,5.24,0,0,1,2.49-.54l1,.06v4.53a4.23,4.23,0,0,0-2.07-.48,3.14,3.14,0,0,0-2.19.72,4,4,0,0,0-1.08,3.06v5.73H253Z"/><path d="M274.84,559.41a7.12,7.12,0,0,1-3.33.75,7.41,7.41,0,0,1-5.28-2,7,7,0,0,1-2.07-5,7.3,7.3,0,0,1,2.16-5.19,7.73,7.73,0,0,1,5.4-2,6.88,6.88,0,0,1,3.12.75v4a4.28,4.28,0,0,0-2.49-.87,3.15,3.15,0,0,0-2.34.93,3.26,3.26,0,0,0-.93,2.31,3.44,3.44,0,0,0,.84,2.25,3.26,3.26,0,0,0,2.46,1,3.63,3.63,0,0,0,2.46-.9Z"/><path d="M277.57,537.84h4.8V548a5.85,5.85,0,0,1,1.5-1.32,6.14,6.14,0,0,1,6.72.78,4.68,4.68,0,0,1,1.26,3.75v8.52h-4.8v-6.78a4,4,0,0,0-.6-2.61,1.9,1.9,0,0,0-1.53-.57,2.57,2.57,0,0,0-1.74.57,2.92,2.92,0,0,0-.81,2.19v7.2h-4.8Z"/><path d="M296.77,538a2.7,2.7,0,1,1-2.7,2.7A2.69,2.69,0,0,1,296.77,538Zm2.4,8.28v13.41h-4.8V546.3Z"/><path d="M307.75,550.23v9.48H303v-9.48h-1.53V546.3H303v-4.41h4.8v4.41h2.73v3.93Z"/><path d="M326.5,553.89h-10a3.39,3.39,0,0,0,.84,2.25,2.7,2.7,0,0,0,2,.66,3.79,3.79,0,0,0,1.56-.36,2.23,2.23,0,0,0,.84-.9h4.59a6,6,0,0,1-1.62,2.76c-1,1-2.55,1.86-5.46,1.86a7.61,7.61,0,0,1-5.55-2,7,7,0,0,1-2-5.07,7.16,7.16,0,0,1,2-5.19,7.55,7.55,0,0,1,5.49-2,7.35,7.35,0,0,1,5.16,1.83,7.51,7.51,0,0,1,2.13,5.64Zm-4.41-2.76a3.22,3.22,0,0,0-.78-1.44,2.8,2.8,0,0,0-2-.72,2.58,2.58,0,0,0-1.95.72,2.74,2.74,0,0,0-.72,1.44Z"/><path d="M339.4,559.41a7.12,7.12,0,0,1-3.33.75,7.41,7.41,0,0,1-5.28-2,7,7,0,0,1-2.07-5,7.3,7.3,0,0,1,2.16-5.19,7.73,7.73,0,0,1,5.4-2,6.88,6.88,0,0,1,3.12.75v4a4.28,4.28,0,0,0-2.49-.87,3.15,3.15,0,0,0-2.34.93,3.26,3.26,0,0,0-.93,2.31,3.44,3.44,0,0,0,.84,2.25,3.26,3.26,0,0,0,2.46,1,3.63,3.63,0,0,0,2.46-.9Z"/><path d="M347.74,550.23v9.48h-4.8v-9.48h-1.53V546.3h1.53v-4.41h4.8v4.41h2.73v3.93Z"/><path d="M357.07,546.3v7.5a2.57,2.57,0,0,0,.72,2,2.48,2.48,0,0,0,1.68.51,2.24,2.24,0,0,0,1.71-.57,2.49,2.49,0,0,0,.69-1.89v-7.5h4.8v8.37a4.6,4.6,0,0,1-1.29,3.6c-1.65,1.71-4,1.89-5.79,1.89-2,0-4.47-.21-6.06-1.92a4.82,4.82,0,0,1-1.26-3.57V546.3Z"/><path d="M370,546.3h4.8v2.19a4.33,4.33,0,0,1,1.89-1.86,5.24,5.24,0,0,1,2.49-.54l1,.06v4.53a4.23,4.23,0,0,0-2.07-.48,3.14,3.14,0,0,0-2.19.72,4,4,0,0,0-1.08,3.06v5.73H370Z"/><path d="M396.46,553.89h-10a3.39,3.39,0,0,0,.84,2.25,2.7,2.7,0,0,0,2,.66,3.79,3.79,0,0,0,1.56-.36,2.23,2.23,0,0,0,.84-.9h4.59a6,6,0,0,1-1.62,2.76c-1,1-2.55,1.86-5.46,1.86a7.61,7.61,0,0,1-5.55-2,7,7,0,0,1-2-5.07,7.16,7.16,0,0,1,2-5.19,7.55,7.55,0,0,1,5.49-2,7.35,7.35,0,0,1,5.16,1.83,7.51,7.51,0,0,1,2.13,5.64Zm-4.41-2.76a3.22,3.22,0,0,0-.78-1.44,2.8,2.8,0,0,0-2-.72,2.58,2.58,0,0,0-2,.72,2.74,2.74,0,0,0-.72,1.44Z"/><path d="M411.85,547.17h7.5V539.7h5.22v20h-5.22v-8.1h-7.5v8.1h-5.19v-20h5.19Z"/><path d="M441.82,557.94a9.18,9.18,0,0,1-12,0,6.92,6.92,0,0,1,0-9.87,8.37,8.37,0,0,1,6-2.22,8.47,8.47,0,0,1,6,2.22,6.92,6.92,0,0,1,0,9.87Zm-8.13-7.14a3.06,3.06,0,0,0,2.16,5.22,3.05,3.05,0,0,0,2.13-.9,3,3,0,0,0,.93-2.13,3.26,3.26,0,0,0-.93-2.19,3.08,3.08,0,0,0-4.29,0Z"/><path d="M447.52,555.27a6.87,6.87,0,0,0,1.92,1,6.25,6.25,0,0,0,1.86.33,2,2,0,0,0,1.23-.36.77.77,0,0,0,.24-.63.71.71,0,0,0-.24-.6,3,3,0,0,0-1.26-.48l-1.26-.3a4.31,4.31,0,0,1-2.34-1.17,3.24,3.24,0,0,1-.87-2.31,4.79,4.79,0,0,1,1.26-3.27,6.77,6.77,0,0,1,4.8-1.62,11.07,11.07,0,0,1,4.29.87l-1.62,3.06a6.64,6.64,0,0,0-2.52-.66,2,2,0,0,0-1.11.27.72.72,0,0,0-.42.66.78.78,0,0,0,.57.75c.45.18.84.18,1.59.39l.87.24a5.67,5.67,0,0,1,2,1.05,3.79,3.79,0,0,1,1,2.67,4.48,4.48,0,0,1-1.35,3.33,7,7,0,0,1-5,1.68,9.89,9.89,0,0,1-5.4-1.56Z"/><path d="M465.28,550.23v9.48h-4.8v-9.48H459V546.3h1.53v-4.41h4.8v4.41H468v3.93Z"/><path d="M484,553.89H474a3.39,3.39,0,0,0,.84,2.25,2.7,2.7,0,0,0,2,.66,3.79,3.79,0,0,0,1.56-.36,2.23,2.23,0,0,0,.84-.9h4.59a6,6,0,0,1-1.62,2.76c-1,1-2.55,1.86-5.46,1.86a7.61,7.61,0,0,1-5.55-2,7,7,0,0,1-2-5.07,7.16,7.16,0,0,1,2-5.19,7.55,7.55,0,0,1,5.49-2,7.35,7.35,0,0,1,5.16,1.83,7.51,7.51,0,0,1,2.13,5.64Zm-4.41-2.76a3.22,3.22,0,0,0-.78-1.44,2.8,2.8,0,0,0-2-.72,2.58,2.58,0,0,0-1.95.72,2.74,2.74,0,0,0-.72,1.44Z"/><path d="M502,559.71h-4.8v-1.47a4.92,4.92,0,0,1-4.05,1.92,6.42,6.42,0,0,1-4.71-1.86,7.4,7.4,0,0,1-2.16-5.34,7.31,7.31,0,0,1,2.19-5.31,6.86,6.86,0,0,1,4.74-1.8,5.31,5.31,0,0,1,4,1.74v-9.75H502Zm-5.67-4.44a3.22,3.22,0,0,0,1-2.28,3.51,3.51,0,0,0-.9-2.16,3.08,3.08,0,0,0-4.32,0,3.29,3.29,0,0,0-.93,2.28,3,3,0,0,0,.93,2.1,3,3,0,0,0,2.13.9A3.28,3.28,0,0,0,496.3,555.27Z"/><path d="M1032.07,552.42l-5.43-6.12h6.24l2.31,2.76,2.37-2.76h6.21l-5.55,6.12,6.72,7.29h-6.36l-3.42-4-3.42,4h-6.36Z"/><path d="M1060.06,550.71a4.86,4.86,0,0,1,1.53,3.54A5.4,5.4,0,0,1,1060,558c-.69.69-2.49,2.13-6.06,2.13a8,8,0,0,1-6-2.1,5.54,5.54,0,0,1-1.65-3.81,5.43,5.43,0,0,1,1.47-3.6,6.65,6.65,0,0,1,2.52-1.47,5.44,5.44,0,0,1-1.8-1.14,4.38,4.38,0,0,1-1.35-3.18,5.2,5.2,0,0,1,1.65-3.78,7.87,7.87,0,0,1,5.34-1.83,7.12,7.12,0,0,1,5.16,1.92,5.06,5.06,0,0,1,1.47,3.66,4.22,4.22,0,0,1-1.23,3.12,5.7,5.7,0,0,1-2,1.23A6.22,6.22,0,0,1,1060.06,550.71Zm-7.8,1.26a2.32,2.32,0,0,0,0,3.33,2.42,2.42,0,0,0,1.71.72,2.21,2.21,0,0,0,1.68-.69,2.29,2.29,0,0,0,.72-1.71,2.16,2.16,0,0,0-.72-1.65,2.46,2.46,0,0,0-1.68-.69A2.52,2.52,0,0,0,1052.26,552Zm.09-8.55a2.29,2.29,0,0,0-.6,1.53,2.25,2.25,0,0,0,.63,1.44,2.15,2.15,0,0,0,1.59.66,2,2,0,0,0,1.47-.6,2.23,2.23,0,0,0,.69-1.53,2.26,2.26,0,0,0-.69-1.59,2,2,0,0,0-1.44-.6A2.17,2.17,0,0,0,1052.35,543.42Z"/><path d="M1076.86,539.7l-5.7,6.81a7,7,0,0,1,2.79-.63,6.5,6.5,0,0,1,4.53,1.92,6.43,6.43,0,0,1,1.89,4.77,7,7,0,0,1-2.07,5.22,9.95,9.95,0,0,1-13-.06,6.55,6.55,0,0,1-1.83-4.68,12.92,12.92,0,0,1,3-7.47l4.47-5.88Zm-2.73,15.42a3.22,3.22,0,0,0,.93-2.28,2.86,2.86,0,0,0-.93-2.1,3.26,3.26,0,0,0-2.31-.93,3.52,3.52,0,0,0-2.25.87,2.94,2.94,0,0,0-1,2.07,3.33,3.33,0,0,0,.87,2.28,3.27,3.27,0,0,0,2.37,1A3.19,3.19,0,0,0,1074.13,555.12Z"/><path d="M1102.24,556.35H1095l-1.35,3.36h-5.49l7.68-20h5.67l7.53,20h-5.55Zm-1.38-4-2.25-6.48-2.19,6.48Z"/><path d="M1110.88,546.3h4.8v2.19a4.33,4.33,0,0,1,1.89-1.86,5.24,5.24,0,0,1,2.49-.54l1,.06v4.53a4.23,4.23,0,0,0-2.07-.48,3.14,3.14,0,0,0-2.19.72,4,4,0,0,0-1.08,3.06v5.73h-4.8Z"/><path d="M1132.69,559.41a7.12,7.12,0,0,1-3.33.75,7.41,7.41,0,0,1-5.28-2,7,7,0,0,1-2.07-5,7.3,7.3,0,0,1,2.16-5.19,7.73,7.73,0,0,1,5.4-2,6.88,6.88,0,0,1,3.12.75v4a4.28,4.28,0,0,0-2.49-.87,3.15,3.15,0,0,0-2.34.93,3.26,3.26,0,0,0-.93,2.31,3.44,3.44,0,0,0,.84,2.25,3.26,3.26,0,0,0,2.46,1,3.63,3.63,0,0,0,2.46-.9Z"/><path d="M1135.42,537.84h4.8V548a5.85,5.85,0,0,1,1.5-1.32,6.14,6.14,0,0,1,6.72.78,4.68,4.68,0,0,1,1.26,3.75v8.52h-4.8v-6.78a4,4,0,0,0-.6-2.61,1.9,1.9,0,0,0-1.53-.57,2.57,2.57,0,0,0-1.74.57,2.92,2.92,0,0,0-.81,2.19v7.2h-4.8Z"/><path d="M1154.62,538a2.7,2.7,0,1,1-2.7,2.7A2.69,2.69,0,0,1,1154.62,538Zm2.4,8.28v13.41h-4.8V546.3Z"/><path d="M1165.6,550.23v9.48h-4.8v-9.48h-1.53V546.3h1.53v-4.41h4.8v4.41h2.73v3.93Z"/><path d="M1184.35,553.89h-10a3.39,3.39,0,0,0,.84,2.25,2.7,2.7,0,0,0,2,.66,3.79,3.79,0,0,0,1.56-.36,2.23,2.23,0,0,0,.84-.9h4.59a6,6,0,0,1-1.62,2.76c-1,1-2.55,1.86-5.46,1.86a7.61,7.61,0,0,1-5.55-2,7,7,0,0,1-2-5.07,7.16,7.16,0,0,1,2-5.19,7.55,7.55,0,0,1,5.49-2,7.35,7.35,0,0,1,5.16,1.83,7.51,7.51,0,0,1,2.13,5.64Zm-4.41-2.76a3.22,3.22,0,0,0-.78-1.44,2.8,2.8,0,0,0-2-.72,2.58,2.58,0,0,0-2,.72,2.74,2.74,0,0,0-.72,1.44Z"/><path d="M1197.25,559.41a7.12,7.12,0,0,1-3.33.75,7.41,7.41,0,0,1-5.28-2,7,7,0,0,1-2.07-5,7.3,7.3,0,0,1,2.16-5.19,7.73,7.73,0,0,1,5.4-2,6.88,6.88,0,0,1,3.12.75v4a4.28,4.28,0,0,0-2.49-.87,3.15,3.15,0,0,0-2.34.93,3.26,3.26,0,0,0-.93,2.31,3.44,3.44,0,0,0,.84,2.25,3.26,3.26,0,0,0,2.46,1,3.63,3.63,0,0,0,2.46-.9Z"/><path d="M1205.59,550.23v9.48h-4.8v-9.48h-1.53V546.3h1.53v-4.41h4.8v4.41h2.73v3.93Z"/><path d="M1214.92,546.3v7.5a2.57,2.57,0,0,0,.72,2,2.48,2.48,0,0,0,1.68.51,2.24,2.24,0,0,0,1.71-.57,2.49,2.49,0,0,0,.69-1.89v-7.5h4.8v8.37a4.6,4.6,0,0,1-1.29,3.6c-1.65,1.71-4,1.89-5.79,1.89-2,0-4.47-.21-6.06-1.92a4.82,4.82,0,0,1-1.26-3.57V546.3Z"/><path d="M1227.82,546.3h4.8v2.19a4.33,4.33,0,0,1,1.89-1.86,5.24,5.24,0,0,1,2.49-.54l1,.06v4.53a4.23,4.23,0,0,0-2.07-.48,3.14,3.14,0,0,0-2.19.72,4,4,0,0,0-1.08,3.06v5.73h-4.8Z"/><path d="M1254.31,553.89h-10a3.39,3.39,0,0,0,.84,2.25,2.7,2.7,0,0,0,2,.66,3.79,3.79,0,0,0,1.56-.36,2.23,2.23,0,0,0,.84-.9h4.59a6,6,0,0,1-1.62,2.76c-1,1-2.55,1.86-5.46,1.86a7.61,7.61,0,0,1-5.55-2,7,7,0,0,1-2-5.07,7.16,7.16,0,0,1,2-5.19,7.55,7.55,0,0,1,5.49-2,7.35,7.35,0,0,1,5.16,1.83,7.51,7.51,0,0,1,2.13,5.64Zm-4.41-2.76a3.22,3.22,0,0,0-.78-1.44,2.8,2.8,0,0,0-2-.72,2.58,2.58,0,0,0-2,.72,2.74,2.74,0,0,0-.72,1.44Z"/><path d="M1264.51,559.71v-20h7.74a5.61,5.61,0,0,1,4.38,1.56,5.41,5.41,0,0,1,1.23,3.75,5.19,5.19,0,0,1-.57,2.46,3.15,3.15,0,0,1-1.62,1.56,5,5,0,0,1,2.73,1.2,5,5,0,0,1,1.35,3.66,5.43,5.43,0,0,1-1.47,3.93,7.52,7.52,0,0,1-5.43,1.89Zm5.19-12.12h1a2.74,2.74,0,0,0,2-.63,1.94,1.94,0,0,0,.48-1.32,2.06,2.06,0,0,0-.48-1.35,2.75,2.75,0,0,0-2-.6h-1Zm0,8.07h1.17c1.44,0,2.64-.15,3.21-.81a2,2,0,0,0,.42-1.29,2,2,0,0,0-.51-1.44c-.63-.63-1.92-.66-3.21-.66h-1.08Z"/><path d="M1293,546.3h4.8v13.41H1293v-1.47a5,5,0,0,1-4.17,1.92A6.42,6.42,0,0,1,1284,558a6.76,6.76,0,0,1-1.92-4.92,7.42,7.42,0,0,1,2.07-5.37,6.9,6.9,0,0,1,4.83-1.89,5.31,5.31,0,0,1,4,1.74Zm-5,4.5a3.14,3.14,0,0,0-1,2.19,3.09,3.09,0,0,0,.93,2.19,3.37,3.37,0,0,0,2.16.9,3.08,3.08,0,0,0,2.16-.93,2.91,2.91,0,0,0,.9-2.16,3,3,0,0,0-.93-2.19,3,3,0,0,0-4.26,0Z"/><path d="M1301.08,546.3h4.8v2.19a4.33,4.33,0,0,1,1.89-1.86,5.24,5.24,0,0,1,2.49-.54l1,.06v4.53a4.23,4.23,0,0,0-2.07-.48,3.14,3.14,0,0,0-2.19.72,4,4,0,0,0-1.08,3.06v5.73h-4.8Z"/><path d="M1327.57,553.89h-10a3.39,3.39,0,0,0,.84,2.25,2.7,2.7,0,0,0,2,.66,3.79,3.79,0,0,0,1.56-.36,2.23,2.23,0,0,0,.84-.9h4.59a6,6,0,0,1-1.62,2.76c-1,1-2.55,1.86-5.46,1.86a7.61,7.61,0,0,1-5.55-2,7,7,0,0,1-2-5.07,7.16,7.16,0,0,1,2-5.19,7.55,7.55,0,0,1,5.49-2,7.35,7.35,0,0,1,5.16,1.83,7.51,7.51,0,0,1,2.13,5.64Zm-4.41-2.76a3.22,3.22,0,0,0-.78-1.44,2.8,2.8,0,0,0-2-.72,2.58,2.58,0,0,0-2,.72,2.74,2.74,0,0,0-.72,1.44Z"/><path d="M1330.33,546.3h4.8v1.62a5.15,5.15,0,0,1,4-1.86,5.46,5.46,0,0,1,2.58.6,4.19,4.19,0,0,1,1.86,1.92,4.71,4.71,0,0,1,1.83-1.86,5.44,5.44,0,0,1,2.79-.66,5.33,5.33,0,0,1,3.72,1.23,4.93,4.93,0,0,1,1.26,3.69v8.73h-4.8v-6.63c0-1.41-.15-2.37-.69-2.88a1.75,1.75,0,0,0-1.26-.45,1.94,1.94,0,0,0-1.41.54,3.43,3.43,0,0,0-.87,2.55v6.87h-4.8v-6.63a4.29,4.29,0,0,0-.63-2.88,1.86,1.86,0,0,0-1.44-.54,1.69,1.69,0,0,0-1.32.48,4,4,0,0,0-.84,2.94v6.63h-4.8Z"/><path d="M1370.74,553.89h-10a3.39,3.39,0,0,0,.84,2.25,2.7,2.7,0,0,0,2,.66,3.79,3.79,0,0,0,1.56-.36,2.23,2.23,0,0,0,.84-.9h4.59a6,6,0,0,1-1.62,2.76c-1,1-2.55,1.86-5.46,1.86a7.61,7.61,0,0,1-5.55-2,7,7,0,0,1-2-5.07,7.16,7.16,0,0,1,2-5.19,7.55,7.55,0,0,1,5.49-2,7.35,7.35,0,0,1,5.16,1.83,7.51,7.51,0,0,1,2.13,5.64Zm-4.41-2.76a3.22,3.22,0,0,0-.78-1.44,2.8,2.8,0,0,0-2-.72,2.58,2.58,0,0,0-2,.72,2.74,2.74,0,0,0-.72,1.44Z"/><path d="M1378.81,550.23v9.48H1374v-9.48h-1.53V546.3H1374v-4.41h4.8v4.41h2.73v3.93Z"/><path d="M1393.72,546.3h4.8v13.41h-4.8v-1.47a5,5,0,0,1-4.17,1.92,6.42,6.42,0,0,1-4.83-2.13,6.76,6.76,0,0,1-1.92-4.92,7.42,7.42,0,0,1,2.07-5.37,6.9,6.9,0,0,1,4.83-1.89,5.31,5.31,0,0,1,4,1.74Zm-5,4.5a3.14,3.14,0,0,0-1,2.19,3.09,3.09,0,0,0,.93,2.19,3.37,3.37,0,0,0,2.16.9,3.08,3.08,0,0,0,2.16-.93,2.91,2.91,0,0,0,.9-2.16,3,3,0,0,0-.93-2.19,3,3,0,0,0-4.26,0Z"/><path d="M1406.62,537.84v21.87h-4.8V537.84Z"/><path d="M1033.92,461.7l4.8,12.18,4.86-12.18h5.64l-8.52,20h-4l-8.4-20Z"/><path d="M1053.27,460a2.7,2.7,0,1,1-2.7,2.7A2.69,2.69,0,0,1,1053.27,460Zm2.4,8.28v13.41h-4.8V468.3Z"/><path d="M1058.94,468.3h4.8v2.19a4.33,4.33,0,0,1,1.89-1.86,5.24,5.24,0,0,1,2.49-.54l1,.06v4.53a4.23,4.23,0,0,0-2.07-.48,3.14,3.14,0,0,0-2.19.72,4,4,0,0,0-1.08,3.06v5.73h-4.8Z"/><path d="M1077,472.23v9.48h-4.8v-9.48h-1.53V468.3h1.53v-4.41h4.8v4.41h2.73v3.93Z"/><path d="M1086.3,468.3v7.5a2.57,2.57,0,0,0,.72,1.95,2.48,2.48,0,0,0,1.68.51,2.24,2.24,0,0,0,1.71-.57,2.49,2.49,0,0,0,.69-1.89v-7.5h4.8v8.37a4.6,4.6,0,0,1-1.29,3.6c-1.65,1.71-4,1.89-5.79,1.89-2,0-4.47-.21-6.06-1.92a4.82,4.82,0,0,1-1.26-3.57V468.3Z"/><path d="M1109.58,468.3h4.8v13.41h-4.8v-1.47a5,5,0,0,1-4.17,1.92,6.42,6.42,0,0,1-4.83-2.13,6.76,6.76,0,0,1-1.92-4.92,7.42,7.42,0,0,1,2.07-5.37,6.9,6.9,0,0,1,4.83-1.89,5.31,5.31,0,0,1,4,1.74Zm-5,4.5a3.14,3.14,0,0,0-1,2.19,3.09,3.09,0,0,0,.93,2.19,3.37,3.37,0,0,0,2.16.9,3.08,3.08,0,0,0,2.16-.93,2.91,2.91,0,0,0,.9-2.16,3,3,0,0,0-.93-2.19,3,3,0,0,0-4.26,0Z"/><path d="M1122.48,459.84v21.87h-4.8V459.84Z"/><path d="M1128.15,460a2.7,2.7,0,1,1-2.7,2.7A2.69,2.69,0,0,1,1128.15,460Zm2.4,8.28v13.41h-4.8V468.3Z"/><path d="M1140.81,477.78h5.61v3.93h-13.65l6.33-9.48h-5.4V468.3h13.38Z"/><path d="M1159.71,468.3h4.8v13.41h-4.8v-1.47a5,5,0,0,1-4.17,1.92,6.42,6.42,0,0,1-4.83-2.13,6.76,6.76,0,0,1-1.92-4.92,7.42,7.42,0,0,1,2.07-5.37,6.9,6.9,0,0,1,4.83-1.89,5.31,5.31,0,0,1,4,1.74Zm-5,4.5a3.14,3.14,0,0,0-1,2.19,3.09,3.09,0,0,0,.93,2.19,3.37,3.37,0,0,0,2.16.9,3.08,3.08,0,0,0,2.16-.93,2.91,2.91,0,0,0,.9-2.16,3,3,0,0,0-.93-2.19,3,3,0,0,0-4.26,0Z"/><path d="M1173.12,472.23v9.48h-4.8v-9.48h-1.53V468.3h1.53v-4.41h4.8v4.41h2.73v3.93Z"/><path d="M1180.05,460a2.7,2.7,0,1,1-2.7,2.7A2.69,2.69,0,0,1,1180.05,460Zm2.4,8.28v13.41h-4.8V468.3Z"/><path d="M1199.22,479.94a9.18,9.18,0,0,1-12,0,6.92,6.92,0,0,1,0-9.87,8.37,8.37,0,0,1,6-2.22,8.47,8.47,0,0,1,6,2.22,6.92,6.92,0,0,1,0,9.87Zm-8.13-7.14a3.06,3.06,0,0,0,2.16,5.22,3.05,3.05,0,0,0,2.13-.9,3,3,0,0,0,.93-2.13,3.26,3.26,0,0,0-.93-2.19,3.08,3.08,0,0,0-4.29,0Z"/><path d="M1204.05,468.3h4.8V470a5.06,5.06,0,0,1,4.26-2,5.42,5.42,0,0,1,4,1.44,4.62,4.62,0,0,1,1.26,3.75v8.52h-4.8v-6.78a3.85,3.85,0,0,0-.6-2.61,2,2,0,0,0-1.53-.57,2.63,2.63,0,0,0-1.77.63,3.08,3.08,0,0,0-.78,2.13v7.2h-4.8Z"/><path d="M1234.23,461.7v15.6h6.24v4.41H1229v-20Z"/><path d="M1253.07,468.3h4.8v13.41h-4.8v-1.47a5,5,0,0,1-4.17,1.92,6.42,6.42,0,0,1-4.83-2.13,6.76,6.76,0,0,1-1.92-4.92,7.42,7.42,0,0,1,2.07-5.37,6.9,6.9,0,0,1,4.83-1.89,5.31,5.31,0,0,1,4,1.74Zm-5,4.5a3.14,3.14,0,0,0-1,2.19,3.09,3.09,0,0,0,.93,2.19,3.37,3.37,0,0,0,2.16.9,3.08,3.08,0,0,0,2.16-.93,2.91,2.91,0,0,0,.9-2.16,3,3,0,0,0-.93-2.19,3,3,0,0,0-4.26,0Z"/><path d="M1266,479.88l-6.48-11.58h5.58l3.57,6.87,3.48-6.87h5.49l-10.77,20.28h-5.37Z"/><path d="M1293.51,475.89h-10a3.39,3.39,0,0,0,.84,2.25,2.7,2.7,0,0,0,2,.66,3.79,3.79,0,0,0,1.56-.36,2.23,2.23,0,0,0,.84-.9h4.59a6,6,0,0,1-1.62,2.76c-1,1-2.55,1.86-5.46,1.86a7.61,7.61,0,0,1-5.55-2,7,7,0,0,1-2-5.07,7.16,7.16,0,0,1,2-5.19,7.55,7.55,0,0,1,5.49-1.95,7.35,7.35,0,0,1,5.16,1.83,7.51,7.51,0,0,1,2.13,5.64Zm-4.41-2.76a3.22,3.22,0,0,0-.78-1.44,2.8,2.8,0,0,0-2-.72,2.58,2.58,0,0,0-1.95.72,2.74,2.74,0,0,0-.72,1.44Z"/><path d="M1296.27,468.3h4.8v2.19a4.33,4.33,0,0,1,1.89-1.86,5.24,5.24,0,0,1,2.49-.54l1,.06v4.53a4.23,4.23,0,0,0-2.07-.48,3.14,3.14,0,0,0-2.19.72,4,4,0,0,0-1.08,3.06v5.73h-4.8Z"/><rect x="292" y="205.34" width="272.5" height="107.5" rx="12" ry="12" style="fill:none;stroke:#4fc2c9;stroke-miterlimit:10;stroke-width:5px"/><rect x="736" y="35.84" width="960" height="481" rx="12" ry="12" style="fill:none;stroke:#636868;stroke-miterlimit:10;stroke-width:5.19554359302321px"/><rect x="764.54" y="50.14" width="902.91" height="379.2" rx="12" ry="12" style="fill:none;stroke:#e34758;stroke-miterlimit:10;stroke-width:5.39687109900271px"/><rect x="801" y="81.84" width="145" height="321" rx="12" ry="12" style="fill:none;stroke:#3a5c84;stroke-miterlimit:10;stroke-width:5px"/><rect x="812" y="99.84" width="123" height="137" rx="12" ry="12" style="fill:none;stroke:#f7931f;stroke-miterlimit:10;stroke-width:5px"/><rect x="812" y="247.84" width="123" height="137" rx="12" ry="12" style="fill:none;stroke:#4fc2c9;stroke-miterlimit:10;stroke-width:5px"/><path d="M859.25,175.54H852l-1.35,3.36h-5.49l7.68-20h5.67l7.53,20h-5.55Zm-1.38-4-2.25-6.47-2.19,6.47Z"/><path d="M872.69,185.77h-4.8V165.49h4.8V167a5,5,0,0,1,4.11-1.92,6.7,6.7,0,0,1,4.77,1.94,7.61,7.61,0,0,1-.12,10.5,6.44,6.44,0,0,1-4.59,1.86,5.71,5.71,0,0,1-4.17-1.74Zm.78-15.75a3.27,3.27,0,0,0-.93,2.22,3.24,3.24,0,0,0,.93,2.13,3.07,3.07,0,0,0,2.16.9,2.9,2.9,0,0,0,2.13-.9,3.17,3.17,0,0,0,.93-2.13,3.27,3.27,0,0,0-.93-2.22,2.9,2.9,0,0,0-2.13-.9A3.07,3.07,0,0,0,873.47,170Z"/><path d="M891.17,185.77h-4.8V165.49h4.8V167a5,5,0,0,1,4.11-1.92,6.7,6.7,0,0,1,4.77,1.94,7.61,7.61,0,0,1-.12,10.5,6.44,6.44,0,0,1-4.59,1.86,5.71,5.71,0,0,1-4.17-1.74ZM892,170a3.27,3.27,0,0,0-.93,2.22,3.24,3.24,0,0,0,.93,2.13,3.07,3.07,0,0,0,2.16.9,2.9,2.9,0,0,0,2.13-.9,3.17,3.17,0,0,0,.93-2.13,3.27,3.27,0,0,0-.93-2.22,2.9,2.9,0,0,0-2.13-.9A3.07,3.07,0,0,0,892,170Z"/><path d="M876.14,323.88a12,12,0,0,1-15.78,0,10.47,10.47,0,0,1,0-15,12,12,0,0,1,15.78,0,10.47,10.47,0,0,1,0,15ZM864.2,312.57a5.49,5.49,0,0,0-1.59,3.93,5.09,5.09,0,0,0,1.59,3.72,5.68,5.68,0,0,0,4,1.59,5.44,5.44,0,0,0,5.64-5.4,5.4,5.4,0,0,0-1.62-3.84,6,6,0,0,0-4-1.59A5.76,5.76,0,0,0,864.2,312.57Z"/><path d="M883.91,320.4a7,7,0,0,0,4.59,2,2.63,2.63,0,0,0,2-.69,1.79,1.79,0,0,0,.51-1.26,1.56,1.56,0,0,0-.57-1.2,7.21,7.21,0,0,0-2.58-1.05l-1.35-.42a6.54,6.54,0,0,1-2.88-1.62,5,5,0,0,1-1.14-3.54,6.54,6.54,0,0,1,1.83-4.83,7.05,7.05,0,0,1,5.13-1.89,14.06,14.06,0,0,1,6.18,1.62l-2.07,4.05a5.28,5.28,0,0,0-3.42-1.35,2.49,2.49,0,0,0-1.71.6,1.48,1.48,0,0,0-.51,1.08,1.34,1.34,0,0,0,.27.9,3.28,3.28,0,0,0,1.74.9l1.59.48a7.64,7.64,0,0,1,3.63,2,4.72,4.72,0,0,1,1.29,3.57,6.78,6.78,0,0,1-1.89,5,7.76,7.76,0,0,1-5.91,2,10.7,10.7,0,0,1-3.93-.66,14,14,0,0,1-3-1.59Z"/><rect x="975" y="81.84" width="145" height="321" rx="12" ry="12" style="fill:none;stroke:#3a5c84;stroke-miterlimit:10;stroke-width:5px"/><rect x="986" y="99.84" width="123" height="137" rx="12" ry="12" style="fill:none;stroke:#f7931f;stroke-miterlimit:10;stroke-width:5px"/><rect x="986" y="247.84" width="123" height="137" rx="12" ry="12" style="fill:none;stroke:#4fc2c9;stroke-miterlimit:10;stroke-width:5px"/><path d="M1033.25,175.54H1026l-1.35,3.36h-5.49l7.68-20h5.67l7.53,20h-5.55Zm-1.38-4-2.25-6.47-2.19,6.47Z"/><path d="M1046.69,185.77h-4.8V165.49h4.8V167a5,5,0,0,1,4.11-1.92,6.7,6.7,0,0,1,4.77,1.94,7.61,7.61,0,0,1-.12,10.5,6.44,6.44,0,0,1-4.59,1.86,5.71,5.71,0,0,1-4.17-1.74Zm.78-15.75a3.27,3.27,0,0,0-.93,2.22,3.24,3.24,0,0,0,.93,2.13,3.07,3.07,0,0,0,2.16.9,2.9,2.9,0,0,0,2.13-.9,3.17,3.17,0,0,0,.93-2.13,3.27,3.27,0,0,0-.93-2.22,2.9,2.9,0,0,0-2.13-.9A3.07,3.07,0,0,0,1047.47,170Z"/><path d="M1065.17,185.77h-4.8V165.49h4.8V167a5,5,0,0,1,4.11-1.92,6.7,6.7,0,0,1,4.77,1.94,7.61,7.61,0,0,1-.12,10.5,6.44,6.44,0,0,1-4.59,1.86,5.71,5.71,0,0,1-4.17-1.74ZM1066,170a3.27,3.27,0,0,0-.93,2.22,3.24,3.24,0,0,0,.93,2.13,3.07,3.07,0,0,0,2.16.9,2.9,2.9,0,0,0,2.13-.9,3.17,3.17,0,0,0,.93-2.13,3.27,3.27,0,0,0-.93-2.22,2.9,2.9,0,0,0-2.13-.9A3.07,3.07,0,0,0,1066,170Z"/><path d="M1050.14,323.88a12,12,0,0,1-15.78,0,10.47,10.47,0,0,1,0-15,12,12,0,0,1,15.78,0,10.47,10.47,0,0,1,0,15Zm-11.94-11.31a5.49,5.49,0,0,0-1.59,3.93,5.09,5.09,0,0,0,1.59,3.72,5.68,5.68,0,0,0,4,1.59,5.44,5.44,0,0,0,5.64-5.4,5.4,5.4,0,0,0-1.62-3.84,6,6,0,0,0-4-1.59A5.76,5.76,0,0,0,1038.2,312.57Z"/><path d="M1057.91,320.4a7,7,0,0,0,4.59,2,2.63,2.63,0,0,0,2-.69,1.79,1.79,0,0,0,.51-1.26,1.56,1.56,0,0,0-.57-1.2,7.21,7.21,0,0,0-2.58-1.05l-1.35-.42a6.54,6.54,0,0,1-2.88-1.62,5,5,0,0,1-1.14-3.54,6.54,6.54,0,0,1,1.83-4.83,7.05,7.05,0,0,1,5.13-1.89,14.06,14.06,0,0,1,6.18,1.62l-2.07,4.05a5.28,5.28,0,0,0-3.42-1.35,2.49,2.49,0,0,0-1.71.6,1.48,1.48,0,0,0-.51,1.08,1.34,1.34,0,0,0,.27.9,3.28,3.28,0,0,0,1.74.9l1.59.48a7.64,7.64,0,0,1,3.63,2,4.72,4.72,0,0,1,1.29,3.57,6.78,6.78,0,0,1-1.89,5,7.76,7.76,0,0,1-5.91,2,10.7,10.7,0,0,1-3.93-.66,14,14,0,0,1-3-1.59Z"/><rect x="1148" y="81.84" width="145" height="321" rx="12" ry="12" style="fill:none;stroke:#3a5c84;stroke-miterlimit:10;stroke-width:5px"/><rect x="1159" y="99.84" width="123" height="137" rx="12" ry="12" style="fill:none;stroke:#f7931f;stroke-miterlimit:10;stroke-width:5px"/><rect x="1159" y="247.84" width="123" height="137" rx="12" ry="12" style="fill:none;stroke:#4fc2c9;stroke-miterlimit:10;stroke-width:5px"/><path d="M1206.25,175.54H1199l-1.35,3.36h-5.49l7.68-20h5.67l7.53,20h-5.55Zm-1.38-4-2.25-6.47-2.19,6.47Z"/><path d="M1219.69,185.77h-4.8V165.49h4.8V167a5,5,0,0,1,4.11-1.92,6.7,6.7,0,0,1,4.77,1.94,7.61,7.61,0,0,1-.12,10.5,6.44,6.44,0,0,1-4.59,1.86,5.71,5.71,0,0,1-4.17-1.74Zm.78-15.75a3.27,3.27,0,0,0-.93,2.22,3.24,3.24,0,0,0,.93,2.13,3.07,3.07,0,0,0,2.16.9,2.9,2.9,0,0,0,2.13-.9,3.17,3.17,0,0,0,.93-2.13,3.27,3.27,0,0,0-.93-2.22,2.9,2.9,0,0,0-2.13-.9A3.07,3.07,0,0,0,1220.47,170Z"/><path d="M1238.17,185.77h-4.8V165.49h4.8V167a5,5,0,0,1,4.11-1.92,6.7,6.7,0,0,1,4.77,1.94,7.61,7.61,0,0,1-.12,10.5,6.44,6.44,0,0,1-4.59,1.86,5.71,5.71,0,0,1-4.17-1.74ZM1239,170a3.27,3.27,0,0,0-.93,2.22,3.24,3.24,0,0,0,.93,2.13,3.07,3.07,0,0,0,2.16.9,2.9,2.9,0,0,0,2.13-.9,3.17,3.17,0,0,0,.93-2.13,3.27,3.27,0,0,0-.93-2.22,2.9,2.9,0,0,0-2.13-.9A3.07,3.07,0,0,0,1239,170Z"/><path d="M1223.14,323.88a12,12,0,0,1-15.78,0,10.47,10.47,0,0,1,0-15,12,12,0,0,1,15.78,0,10.47,10.47,0,0,1,0,15Zm-11.94-11.31a5.49,5.49,0,0,0-1.59,3.93,5.09,5.09,0,0,0,1.59,3.72,5.68,5.68,0,0,0,4,1.59,5.44,5.44,0,0,0,5.64-5.4,5.4,5.4,0,0,0-1.62-3.84,6,6,0,0,0-4-1.59A5.76,5.76,0,0,0,1211.2,312.57Z"/><path d="M1230.91,320.4a7,7,0,0,0,4.59,2,2.63,2.63,0,0,0,2-.69,1.79,1.79,0,0,0,.51-1.26,1.56,1.56,0,0,0-.57-1.2,7.21,7.21,0,0,0-2.58-1.05l-1.35-.42a6.54,6.54,0,0,1-2.88-1.62,5,5,0,0,1-1.14-3.54,6.54,6.54,0,0,1,1.83-4.83,7.05,7.05,0,0,1,5.13-1.89,14.06,14.06,0,0,1,6.18,1.62l-2.07,4.05a5.28,5.28,0,0,0-3.42-1.35,2.49,2.49,0,0,0-1.71.6,1.48,1.48,0,0,0-.51,1.08,1.34,1.34,0,0,0,.27.9,3.28,3.28,0,0,0,1.74.9l1.59.48a7.64,7.64,0,0,1,3.63,2,4.72,4.72,0,0,1,1.29,3.57,6.78,6.78,0,0,1-1.89,5,7.76,7.76,0,0,1-5.91,2,10.7,10.7,0,0,1-3.93-.66,14,14,0,0,1-3-1.59Z"/><rect x="1321" y="81.84" width="145" height="321" rx="12" ry="12" style="fill:none;stroke:#3a5c84;stroke-miterlimit:10;stroke-width:5px"/><rect x="1332" y="99.84" width="123" height="137" rx="12" ry="12" style="fill:none;stroke:#f7931f;stroke-miterlimit:10;stroke-width:5px"/><rect x="1332" y="247.84" width="123" height="137" rx="12" ry="12" style="fill:none;stroke:#4fc2c9;stroke-miterlimit:10;stroke-width:5px"/><path d="M1379.25,175.54H1372l-1.35,3.36h-5.49l7.68-20h5.67l7.53,20h-5.55Zm-1.38-4-2.25-6.47-2.19,6.47Z"/><path d="M1392.69,185.77h-4.8V165.49h4.8V167a5,5,0,0,1,4.11-1.92,6.7,6.7,0,0,1,4.77,1.94,7.61,7.61,0,0,1-.12,10.5,6.44,6.44,0,0,1-4.59,1.86,5.71,5.71,0,0,1-4.17-1.74Zm.78-15.75a3.27,3.27,0,0,0-.93,2.22,3.24,3.24,0,0,0,.93,2.13,3.07,3.07,0,0,0,2.16.9,2.9,2.9,0,0,0,2.13-.9,3.17,3.17,0,0,0,.93-2.13,3.27,3.27,0,0,0-.93-2.22,2.9,2.9,0,0,0-2.13-.9A3.07,3.07,0,0,0,1393.47,170Z"/><path d="M1411.17,185.77h-4.8V165.49h4.8V167a5,5,0,0,1,4.11-1.92,6.7,6.7,0,0,1,4.77,1.94,7.61,7.61,0,0,1-.12,10.5,6.44,6.44,0,0,1-4.59,1.86,5.71,5.71,0,0,1-4.17-1.74ZM1412,170a3.27,3.27,0,0,0-.93,2.22,3.24,3.24,0,0,0,.93,2.13,3.07,3.07,0,0,0,2.16.9,2.9,2.9,0,0,0,2.13-.9,3.17,3.17,0,0,0,.93-2.13,3.27,3.27,0,0,0-.93-2.22,2.9,2.9,0,0,0-2.13-.9A3.07,3.07,0,0,0,1412,170Z"/><path d="M1396.14,323.88a12,12,0,0,1-15.78,0,10.47,10.47,0,0,1,0-15,12,12,0,0,1,15.78,0,10.47,10.47,0,0,1,0,15Zm-11.94-11.31a5.49,5.49,0,0,0-1.59,3.93,5.09,5.09,0,0,0,1.59,3.72,5.68,5.68,0,0,0,4,1.59,5.44,5.44,0,0,0,5.64-5.4,5.4,5.4,0,0,0-1.62-3.84,6,6,0,0,0-4-1.59A5.76,5.76,0,0,0,1384.2,312.57Z"/><path d="M1403.91,320.4a7,7,0,0,0,4.59,2,2.63,2.63,0,0,0,2-.69,1.79,1.79,0,0,0,.51-1.26,1.56,1.56,0,0,0-.57-1.2,7.21,7.21,0,0,0-2.58-1.05l-1.35-.42a6.54,6.54,0,0,1-2.88-1.62,5,5,0,0,1-1.14-3.54,6.54,6.54,0,0,1,1.83-4.83,7.05,7.05,0,0,1,5.13-1.89,14.06,14.06,0,0,1,6.18,1.62l-2.07,4.05a5.28,5.28,0,0,0-3.42-1.35,2.49,2.49,0,0,0-1.71.6,1.48,1.48,0,0,0-.51,1.08,1.34,1.34,0,0,0,.27.9,3.28,3.28,0,0,0,1.74.9l1.59.48a7.64,7.64,0,0,1,3.63,2,4.72,4.72,0,0,1,1.29,3.57,6.78,6.78,0,0,1-1.89,5,7.76,7.76,0,0,1-5.91,2,10.7,10.7,0,0,1-3.93-.66,14,14,0,0,1-3-1.59Z"/><rect x="1497" y="81.84" width="145" height="414.5" rx="12" ry="12" style="fill:none;stroke:#3a5c84;stroke-miterlimit:10;stroke-width:5.68171905889181px"/><rect x="1508" y="99.84" width="123" height="137" rx="12" ry="12" style="fill:none;stroke:#f7931f;stroke-miterlimit:10;stroke-width:5px"/><rect x="1508" y="247.84" width="123" height="237.5" rx="12" ry="12" style="fill:none;stroke:#4fc2c9;stroke-miterlimit:10;stroke-width:6.58326788596622px"/><path d="M1555.25,175.54H1548l-1.35,3.36h-5.49l7.68-20h5.67l7.53,20h-5.55Zm-1.38-4-2.25-6.47-2.19,6.47Z"/><path d="M1568.69,185.77h-4.8V165.49h4.8V167a5,5,0,0,1,4.11-1.92,6.7,6.7,0,0,1,4.77,1.94,7.61,7.61,0,0,1-.12,10.5,6.44,6.44,0,0,1-4.59,1.86,5.71,5.71,0,0,1-4.17-1.74Zm.78-15.75a3.27,3.27,0,0,0-.93,2.22,3.24,3.24,0,0,0,.93,2.13,3.07,3.07,0,0,0,2.16.9,2.9,2.9,0,0,0,2.13-.9,3.17,3.17,0,0,0,.93-2.13,3.27,3.27,0,0,0-.93-2.22,2.9,2.9,0,0,0-2.13-.9A3.07,3.07,0,0,0,1569.47,170Z"/><path d="M1587.17,185.77h-4.8V165.49h4.8V167a5,5,0,0,1,4.11-1.92,6.7,6.7,0,0,1,4.77,1.94,7.61,7.61,0,0,1-.12,10.5,6.44,6.44,0,0,1-4.59,1.86,5.71,5.71,0,0,1-4.17-1.74ZM1588,170a3.27,3.27,0,0,0-.93,2.22,3.24,3.24,0,0,0,.93,2.13,3.07,3.07,0,0,0,2.16.9,2.9,2.9,0,0,0,2.13-.9,3.17,3.17,0,0,0,.93-2.13,3.27,3.27,0,0,0-.93-2.22,2.9,2.9,0,0,0-2.13-.9A3.07,3.07,0,0,0,1588,170Z"/><path d="M1522.68,354.71a7,7,0,0,0,4.59,2,2.63,2.63,0,0,0,2-.69,1.79,1.79,0,0,0,.51-1.26,1.56,1.56,0,0,0-.57-1.2,7.21,7.21,0,0,0-2.58-1.05l-1.35-.42a6.54,6.54,0,0,1-2.88-1.62,5,5,0,0,1-1.14-3.54,6.54,6.54,0,0,1,1.83-4.83,7.05,7.05,0,0,1,5.13-1.89,14.06,14.06,0,0,1,6.18,1.62l-2.08,4.05a5.24,5.24,0,0,0-3.41-1.35,2.49,2.49,0,0,0-1.71.6,1.48,1.48,0,0,0-.51,1.08,1.34,1.34,0,0,0,.27.9,3.28,3.28,0,0,0,1.74.9l1.58.48a7.55,7.55,0,0,1,3.63,2,4.69,4.69,0,0,1,1.29,3.57,6.77,6.77,0,0,1-1.88,5,7.76,7.76,0,0,1-5.91,2,10.7,10.7,0,0,1-3.93-.66,14,14,0,0,1-3-1.59Z"/><path d="M1552.25,354.89h-10a3.39,3.39,0,0,0,.84,2.25,2.69,2.69,0,0,0,2,.66,3.82,3.82,0,0,0,1.57-.36,2.23,2.23,0,0,0,.84-.9h4.59a6,6,0,0,1-1.62,2.76c-1,1-2.55,1.86-5.46,1.86a7.61,7.61,0,0,1-5.55-2,7,7,0,0,1-2-5.07,7.16,7.16,0,0,1,2-5.19,7.55,7.55,0,0,1,5.49-1.95,7.35,7.35,0,0,1,5.16,1.83,7.53,7.53,0,0,1,2.12,5.64Zm-4.4-2.76a3.22,3.22,0,0,0-.78-1.44,2.8,2.8,0,0,0-2-.72,2.57,2.57,0,0,0-1.94.72,2.74,2.74,0,0,0-.72,1.44Z"/><path d="M1555,347.3h4.8v2.19a4.28,4.28,0,0,1,1.89-1.86,5.17,5.17,0,0,1,2.48-.54l1,.06v4.53a4.2,4.2,0,0,0-2.07-.48,3.16,3.16,0,0,0-2.19.72,4.07,4.07,0,0,0-1.07,3.06v5.73H1555Z"/><path d="M1571,347.3l3.21,6.87,3.27-6.87h5.34l-7,13.41h-3.27l-6.93-13.41Z"/><path d="M1586.87,339a2.7,2.7,0,1,1-2.7,2.7A2.69,2.69,0,0,1,1586.87,339Zm2.4,8.28v13.41h-4.8V347.3Z"/><path d="M1602.68,360.41a7.12,7.12,0,0,1-3.33.75,7.41,7.41,0,0,1-5.28-2,7,7,0,0,1-2.07-5,7.3,7.3,0,0,1,2.16-5.19,7.73,7.73,0,0,1,5.4-2,6.88,6.88,0,0,1,3.12.75v4a4.28,4.28,0,0,0-2.49-.87,3.15,3.15,0,0,0-2.34.93,3.26,3.26,0,0,0-.93,2.31,3.44,3.44,0,0,0,.84,2.25,3.26,3.26,0,0,0,2.46,1,3.63,3.63,0,0,0,2.46-.9Z"/><path d="M1619.63,354.89h-10a3.39,3.39,0,0,0,.84,2.25,2.7,2.7,0,0,0,2,.66,3.79,3.79,0,0,0,1.56-.36,2.23,2.23,0,0,0,.84-.9h4.59a6,6,0,0,1-1.62,2.76c-1,1-2.55,1.86-5.46,1.86a7.61,7.61,0,0,1-5.55-2,7,7,0,0,1-2-5.07,7.16,7.16,0,0,1,2-5.19,7.55,7.55,0,0,1,5.49-1.95,7.35,7.35,0,0,1,5.16,1.83,7.51,7.51,0,0,1,2.13,5.64Zm-4.41-2.76a3.22,3.22,0,0,0-.78-1.44,2.8,2.8,0,0,0-2-.72,2.58,2.58,0,0,0-2,.72,2.74,2.74,0,0,0-.72,1.44Z"/><path d="M1531.35,396.17a12.36,12.36,0,0,1-4.5,1,10.88,10.88,0,0,1-7.74-3,10.5,10.5,0,0,1-3-7.29,10.5,10.5,0,0,1,10.59-10.5,12.4,12.4,0,0,1,4.68,1v6.21a5.57,5.57,0,0,0-4.53-2.19,5.07,5.07,0,0,0-3.6,1.32,5.59,5.59,0,0,0-1.74,4.11,5.52,5.52,0,0,0,1.62,3.9,5.59,5.59,0,0,0,3.72,1.38,5.87,5.87,0,0,0,4.53-2.1Z"/><path d="M1547.7,394.94a9.18,9.18,0,0,1-12,0,6.92,6.92,0,0,1,0-9.87,8.37,8.37,0,0,1,6-2.22,8.49,8.49,0,0,1,6,2.22,6.92,6.92,0,0,1,0,9.87Zm-8.13-7.14a3.06,3.06,0,0,0,2.16,5.22,3.05,3.05,0,0,0,2.13-.9,3,3,0,0,0,.93-2.13,3.26,3.26,0,0,0-.93-2.19,3.08,3.08,0,0,0-4.29,0Z"/><path d="M1552.53,383.3h4.8V385a5.06,5.06,0,0,1,4.26-2,5.39,5.39,0,0,1,4,1.44,4.6,4.6,0,0,1,1.27,3.75v8.52H1562v-6.78a3.85,3.85,0,0,0-.6-2.61,2,2,0,0,0-1.53-.57,2.63,2.63,0,0,0-1.77.63,3.08,3.08,0,0,0-.78,2.13v7.2h-4.8Z"/><path d="M1571,392.27a6.87,6.87,0,0,0,1.92,1,6.25,6.25,0,0,0,1.86.33,2,2,0,0,0,1.23-.36.77.77,0,0,0,.24-.63.71.71,0,0,0-.24-.6,3,3,0,0,0-1.26-.48l-1.26-.3a4.31,4.31,0,0,1-2.34-1.17,3.24,3.24,0,0,1-.87-2.31,4.79,4.79,0,0,1,1.26-3.27,6.77,6.77,0,0,1,4.8-1.62,11.11,11.11,0,0,1,4.29.87l-1.62,3.06a6.69,6.69,0,0,0-2.52-.66,2,2,0,0,0-1.11.27.72.72,0,0,0-.42.66.78.78,0,0,0,.57.75c.45.18.84.18,1.59.39l.87.24a5.67,5.67,0,0,1,2,1.05,3.79,3.79,0,0,1,1,2.67,4.45,4.45,0,0,1-1.36,3.33,6.94,6.94,0,0,1-4.94,1.68,9.89,9.89,0,0,1-5.4-1.56Z"/><path d="M1596.89,394.94a9.18,9.18,0,0,1-12,0,6.72,6.72,0,0,1-2.06-4.95,6.63,6.63,0,0,1,2.06-4.92,9.18,9.18,0,0,1,12,0,6.92,6.92,0,0,1,0,9.87Zm-8.13-7.14a3.14,3.14,0,0,0-.93,2.19,3.13,3.13,0,0,0,3.09,3,3,3,0,0,0,2.13-.9A3,3,0,0,0,1594,390a3.26,3.26,0,0,0-.93-2.19,3.08,3.08,0,0,0-4.29,0Z"/><path d="M1606.53,374.84v21.87h-4.8V374.84Z"/><path d="M1624,390.89h-10a3.34,3.34,0,0,0,.84,2.25,2.69,2.69,0,0,0,2,.66,3.85,3.85,0,0,0,1.57-.36,2.23,2.23,0,0,0,.84-.9h4.58a5.85,5.85,0,0,1-1.62,2.76c-1,1-2.54,1.86-5.46,1.86a7.6,7.6,0,0,1-5.54-2,7,7,0,0,1-2-5.07,7.16,7.16,0,0,1,2-5.19,7.53,7.53,0,0,1,5.49-1.95,7.32,7.32,0,0,1,5.15,1.83,7.51,7.51,0,0,1,2.13,5.64Zm-4.4-2.76a3.22,3.22,0,0,0-.78-1.44,2.8,2.8,0,0,0-2-.72,2.57,2.57,0,0,0-1.94.72,2.82,2.82,0,0,0-.73,1.44Z"/></svg>