<svg id="Layer_1" data-name="Layer 1" xmlns="http://www.w3.org/2000/svg" viewBox="0 0 1244 604"><title>Cap 14 -</title><rect x="29.96" y="133.95" width="245.23" height="84" rx="12" ry="12" style="fill:none;stroke:#4fc2c9;stroke-miterlimit:10;stroke-width:7px"/><rect x="302.91" y="133.95" width="245.23" height="84" rx="12" ry="12" style="fill:none;stroke:#4fc2c9;stroke-miterlimit:10;stroke-width:7px"/><path d="M104.76,174.61h10.32c0,4-.81,6.78-3.21,9a9.77,9.77,0,0,1-7.05,2.52,10.33,10.33,0,0,1-7.68-3,10.08,10.08,0,0,1-2.88-7.23,10.43,10.43,0,0,1,3-7.5,11.63,11.63,0,0,1,13.17-1.59A9.8,9.8,0,0,1,114,171l-5,2a4.9,4.9,0,0,0-1.44-2,4.2,4.2,0,0,0-2.79-1,4.83,4.83,0,0,0-3.42,1.38A6.75,6.75,0,0,0,99.66,176a6.26,6.26,0,0,0,1.59,4.32,4.73,4.73,0,0,0,3.66,1.53,4.29,4.29,0,0,0,2.88-.93,3.56,3.56,0,0,0,1.23-2.22h-4.26Z"/><path d="M122.73,172.54V180a2.57,2.57,0,0,0,.72,2,2.48,2.48,0,0,0,1.68.51,2.24,2.24,0,0,0,1.71-.57,2.49,2.49,0,0,0,.69-1.89v-7.5h4.8v8.37a4.6,4.6,0,0,1-1.29,3.6c-1.65,1.71-4,1.89-5.79,1.89-2,0-4.47-.21-6.06-1.92a4.82,4.82,0,0,1-1.26-3.57v-8.37Z"/><path d="M149.85,180.13h-10a3.39,3.39,0,0,0,.84,2.25,2.7,2.7,0,0,0,2,.66,3.79,3.79,0,0,0,1.56-.36,2.23,2.23,0,0,0,.84-.9h4.59a6,6,0,0,1-1.62,2.76c-1,1-2.55,1.86-5.46,1.86a7.61,7.61,0,0,1-5.55-2,7,7,0,0,1-2-5.07,7.16,7.16,0,0,1,2-5.19,7.55,7.55,0,0,1,5.49-1.95,7.35,7.35,0,0,1,5.16,1.83,7.51,7.51,0,0,1,2.13,5.64Zm-4.41-2.76a3.22,3.22,0,0,0-.78-1.44,2.8,2.8,0,0,0-2-.72,2.58,2.58,0,0,0-2,.72,2.74,2.74,0,0,0-.72,1.44Z"/><path d="M153.48,181.51a6.87,6.87,0,0,0,1.92,1,6.25,6.25,0,0,0,1.86.33,2,2,0,0,0,1.23-.36.77.77,0,0,0,.24-.63.71.71,0,0,0-.24-.6,3,3,0,0,0-1.26-.48l-1.26-.3a4.31,4.31,0,0,1-2.34-1.17,3.24,3.24,0,0,1-.87-2.31,4.79,4.79,0,0,1,1.26-3.27,6.77,6.77,0,0,1,4.8-1.62,11.07,11.07,0,0,1,4.29.87L161.49,176a6.64,6.64,0,0,0-2.52-.66,2,2,0,0,0-1.11.27.72.72,0,0,0-.42.66.78.78,0,0,0,.57.75c.45.18.84.18,1.59.39l.87.24a5.67,5.67,0,0,1,2,1.05,3.79,3.79,0,0,1,1,2.67,4.48,4.48,0,0,1-1.35,3.33,7,7,0,0,1-5,1.68,9.89,9.89,0,0,1-5.4-1.56Z"/><path d="M171.23,176.47V186h-4.8v-9.48h-1.52v-3.93h1.52v-4.41h4.8v4.41H174v3.93Z"/><path d="M182.6,175.9h7.59v4H182.6Z"/><path d="M205.7,170.35h-2.85v-4.41h8v20H205.7Z"/><path d="M375.39,174.61h10.32c0,4-.81,6.78-3.21,9a9.77,9.77,0,0,1-7.05,2.52,10.33,10.33,0,0,1-7.68-3,10.13,10.13,0,0,1-2.88-7.23,10.47,10.47,0,0,1,3-7.5,11.63,11.63,0,0,1,13.17-1.59,9.8,9.8,0,0,1,3.57,4.11l-4.95,2a4.9,4.9,0,0,0-1.44-2,4.2,4.2,0,0,0-2.79-1,4.81,4.81,0,0,0-3.41,1.38,6.76,6.76,0,0,0-1.75,4.59,6.26,6.26,0,0,0,1.59,4.32,4.75,4.75,0,0,0,3.66,1.53,4.29,4.29,0,0,0,2.88-.93,3.56,3.56,0,0,0,1.23-2.22h-4.26Z"/><path d="M393.36,172.54V180a2.57,2.57,0,0,0,.72,2,2.48,2.48,0,0,0,1.68.51,2.24,2.24,0,0,0,1.71-.57,2.49,2.49,0,0,0,.69-1.89v-7.5H403v8.37a4.6,4.6,0,0,1-1.29,3.6c-1.65,1.71-4,1.89-5.79,1.89-2,0-4.47-.21-6.06-1.92a4.86,4.86,0,0,1-1.26-3.57v-8.37Z"/><path d="M420.48,180.13h-10a3.39,3.39,0,0,0,.84,2.25,2.7,2.7,0,0,0,2,.66,3.79,3.79,0,0,0,1.56-.36,2.23,2.23,0,0,0,.84-.9h4.59a6,6,0,0,1-1.62,2.76c-1,1-2.55,1.86-5.46,1.86a7.61,7.61,0,0,1-5.55-2,7,7,0,0,1-2-5.07,7.16,7.16,0,0,1,2-5.19,7.55,7.55,0,0,1,5.49-1.95,7.35,7.35,0,0,1,5.16,1.83,7.51,7.51,0,0,1,2.13,5.64Zm-4.41-2.76a3.22,3.22,0,0,0-.78-1.44,2.8,2.8,0,0,0-2-.72,2.58,2.58,0,0,0-1.95.72,2.74,2.74,0,0,0-.72,1.44Z"/><path d="M424.11,181.51a6.87,6.87,0,0,0,1.92,1,6.25,6.25,0,0,0,1.86.33,2,2,0,0,0,1.23-.36.77.77,0,0,0,.24-.63.71.71,0,0,0-.24-.6,3,3,0,0,0-1.26-.48l-1.26-.3a4.31,4.31,0,0,1-2.34-1.17,3.24,3.24,0,0,1-.87-2.31,4.79,4.79,0,0,1,1.26-3.27,6.77,6.77,0,0,1,4.8-1.62,11.07,11.07,0,0,1,4.29.87L432.12,176a6.64,6.64,0,0,0-2.52-.66,2,2,0,0,0-1.11.27.72.72,0,0,0-.42.66.78.78,0,0,0,.57.75c.45.18.84.18,1.59.39l.87.24a5.67,5.67,0,0,1,2,1.05,3.79,3.79,0,0,1,1,2.67,4.48,4.48,0,0,1-1.35,3.33,7,7,0,0,1-4.95,1.68,9.89,9.89,0,0,1-5.4-1.56Z"/><path d="M441.87,176.47V186h-4.8v-9.48h-1.53v-3.93h1.53v-4.41h4.8v4.41h2.73v3.93Z"/><path d="M453.24,175.9h7.59v4h-7.59Z"/><path d="M486.15,186h-16l5.07-5.31a33.14,33.14,0,0,0,4.11-5.07,5.63,5.63,0,0,0,1.08-3.12,3,3,0,0,0-.6-1.92,2,2,0,0,0-1.47-.6,2.15,2.15,0,0,0-1.74.81,5,5,0,0,0-.72,2.46h-5.37a8,8,0,0,1,2.22-5.55,8.62,8.62,0,0,1,11.31-.09,6.68,6.68,0,0,1,1.95,4.92c0,2.52-1.17,4.26-3,5.94l-3.36,3.12h6.54Z"/><rect x="29.75" y="254.45" width="518" height="84" rx="12" ry="12" style="fill:none;stroke:#f7931f;stroke-miterlimit:10;stroke-width:7px"/><path d="M257.64,286.44l4.8,12.18,4.86-12.18h5.64l-8.52,20h-4.05l-8.4-20Z"/><path d="M273,306.45l3.39-20h5.13l4.05,10.68,4.29-10.68h5.19l3,20h-5.19l-1.47-11.52-4.83,11.52h-2.07l-4.62-11.52-1.71,11.52Z"/><path d="M300.48,306.45l3.39-20H309l4.05,10.68,4.29-10.68h5.19l3,20h-5.19l-1.47-11.52L314,306.45H312l-4.62-11.52-1.71,11.52Z"/><rect x="30.25" y="374.95" width="518" height="84" rx="12" ry="12" style="fill:none;stroke:#3a5c84;stroke-miterlimit:10;stroke-width:7px"/><path d="M240,414.41h7.5v-7.47h5.22v20h-5.22v-8.1H240V427h-5.19v-20H240Z"/><path d="M270,425.18a9.18,9.18,0,0,1-12,0,6.92,6.92,0,0,1,0-9.87,8.37,8.37,0,0,1,6-2.22,8.47,8.47,0,0,1,6,2.22,6.92,6.92,0,0,1,0,9.87ZM261.82,418a3.06,3.06,0,0,0,2.16,5.22,3.05,3.05,0,0,0,2.13-.9,3,3,0,0,0,.93-2.13,3.26,3.26,0,0,0-.93-2.19,3.08,3.08,0,0,0-4.29,0Z"/><path d="M275.65,422.51a6.87,6.87,0,0,0,1.92,1,6.25,6.25,0,0,0,1.86.33,2.05,2.05,0,0,0,1.23-.36.77.77,0,0,0,.24-.63.71.71,0,0,0-.24-.6,3,3,0,0,0-1.26-.48l-1.26-.3a4.31,4.31,0,0,1-2.34-1.17,3.24,3.24,0,0,1-.87-2.31,4.79,4.79,0,0,1,1.26-3.27,6.77,6.77,0,0,1,4.8-1.62,11,11,0,0,1,4.28.87L283.66,417a6.69,6.69,0,0,0-2.52-.66,2,2,0,0,0-1.11.27.72.72,0,0,0-.42.66.78.78,0,0,0,.57.75c.45.18.84.18,1.59.39l.87.24a5.67,5.67,0,0,1,2,1.05,3.83,3.83,0,0,1,1,2.67,4.52,4.52,0,0,1-1.34,3.33,7,7,0,0,1-5,1.68,9.89,9.89,0,0,1-5.4-1.56Z"/><path d="M293.4,417.47V427h-4.8v-9.48h-1.53v-3.93h1.53v-4.41h4.8v4.41h2.73v3.93Z"/><path d="M323.4,424.43a12,12,0,0,1-15.78,0,10.47,10.47,0,0,1,0-15,12,12,0,0,1,15.78,0,10.47,10.47,0,0,1,0,15Zm-11.94-11.31a5.49,5.49,0,0,0-1.59,3.93,5.09,5.09,0,0,0,1.59,3.72,5.68,5.68,0,0,0,4.05,1.59,5.44,5.44,0,0,0,5.64-5.4,5.4,5.4,0,0,0-1.62-3.84,6,6,0,0,0-4-1.59A5.76,5.76,0,0,0,311.46,413.12Z"/><path d="M331.17,421a7,7,0,0,0,4.59,2,2.63,2.63,0,0,0,2-.69,1.79,1.79,0,0,0,.51-1.26,1.56,1.56,0,0,0-.57-1.2,7.21,7.21,0,0,0-2.58-1l-1.35-.42a6.54,6.54,0,0,1-2.88-1.62,5,5,0,0,1-1.14-3.54,6.54,6.54,0,0,1,1.83-4.83,7.05,7.05,0,0,1,5.13-1.89,14.06,14.06,0,0,1,6.18,1.62l-2.07,4.05a5.28,5.28,0,0,0-3.42-1.35,2.49,2.49,0,0,0-1.71.6,1.48,1.48,0,0,0-.51,1.08,1.34,1.34,0,0,0,.27.9,3.28,3.28,0,0,0,1.74.9l1.59.48a7.64,7.64,0,0,1,3.63,2,4.72,4.72,0,0,1,1.29,3.57,6.78,6.78,0,0,1-1.89,5,7.76,7.76,0,0,1-5.91,2,10.7,10.7,0,0,1-3.93-.66,14,14,0,0,1-3-1.59Z"/><rect x="30.25" y="495.45" width="518" height="84" rx="12" ry="12" style="fill:none;stroke:#91c54f;stroke-miterlimit:10;stroke-width:7px"/><path d="M223.58,535.62h7.5v-7.47h5.22v20h-5.22v-8.1h-7.5v8.1h-5.19v-20h5.19Z"/><path d="M250.43,534.75h4.8v13.41h-4.8v-1.47a5,5,0,0,1-4.17,1.92,6.46,6.46,0,0,1-4.83-2.13,6.76,6.76,0,0,1-1.92-4.92,7.42,7.42,0,0,1,2.07-5.37,6.9,6.9,0,0,1,4.83-1.89,5.31,5.31,0,0,1,4,1.74Zm-5,4.5a3.14,3.14,0,0,0-1,2.19,3.09,3.09,0,0,0,.93,2.19,3.37,3.37,0,0,0,2.16.9,3.08,3.08,0,0,0,2.16-.93,2.91,2.91,0,0,0,.9-2.16,3,3,0,0,0-.93-2.19,3,3,0,0,0-4.26,0Z"/><path d="M258.53,534.75h4.8v2.19a4.33,4.33,0,0,1,1.89-1.86,5.24,5.24,0,0,1,2.49-.54l1,.06v4.53a4.23,4.23,0,0,0-2.07-.48,3.14,3.14,0,0,0-2.19.72,4,4,0,0,0-1.08,3.06v5.73h-4.8Z"/><path d="M286,548.16h-4.8v-1.47a4.92,4.92,0,0,1-4.05,1.92,6.42,6.42,0,0,1-4.71-1.86,7.4,7.4,0,0,1-2.16-5.34,7.31,7.31,0,0,1,2.19-5.31,6.86,6.86,0,0,1,4.74-1.8,5.31,5.31,0,0,1,4,1.74v-9.75H286Zm-5.67-4.44a3.22,3.22,0,0,0,1-2.28,3.51,3.51,0,0,0-.9-2.16,3.08,3.08,0,0,0-4.32,0,3.29,3.29,0,0,0-.93,2.28,3,3,0,0,0,.93,2.1,3,3,0,0,0,2.13.9A3.28,3.28,0,0,0,280.31,543.72Z"/><path d="M293,534.75l3.18,7.08,3.39-7.08h2.94L305.9,542l3.36-7.29h5.34l-7,13.41h-3.24L301,540.78l-3.21,7.38h-3.24l-6.9-13.41Z"/><path d="M325.52,534.75h4.8v13.41h-4.8v-1.47a5,5,0,0,1-4.17,1.92,6.46,6.46,0,0,1-4.83-2.13,6.76,6.76,0,0,1-1.92-4.92,7.42,7.42,0,0,1,2.07-5.37,6.9,6.9,0,0,1,4.83-1.89,5.31,5.31,0,0,1,4,1.74Zm-5,4.5a3.14,3.14,0,0,0-1,2.19,3.09,3.09,0,0,0,.93,2.19,3.37,3.37,0,0,0,2.16.9,3.08,3.08,0,0,0,2.16-.93,2.91,2.91,0,0,0,.9-2.16,3,3,0,0,0-.93-2.19,3,3,0,0,0-4.26,0Z"/><path d="M333.62,534.75h4.8v2.19a4.33,4.33,0,0,1,1.89-1.86,5.24,5.24,0,0,1,2.49-.54l1,.06v4.53a4.23,4.23,0,0,0-2.07-.48,3.14,3.14,0,0,0-2.19.72,4,4,0,0,0-1.08,3.06v5.73h-4.8Z"/><path d="M360.11,542.34h-10a3.39,3.39,0,0,0,.84,2.25,2.7,2.7,0,0,0,2,.66,3.79,3.79,0,0,0,1.56-.36,2.23,2.23,0,0,0,.84-.9h4.59a6,6,0,0,1-1.62,2.76c-1,1-2.55,1.86-5.46,1.86a7.61,7.61,0,0,1-5.55-2,7,7,0,0,1-2-5.07,7.16,7.16,0,0,1,2-5.19,7.55,7.55,0,0,1,5.49-1.95,7.35,7.35,0,0,1,5.16,1.83,7.51,7.51,0,0,1,2.13,5.64Zm-4.41-2.76a3.22,3.22,0,0,0-.78-1.44,2.8,2.8,0,0,0-2-.72,2.58,2.58,0,0,0-1.95.72,2.74,2.74,0,0,0-.72,1.44Z"/><rect x="687.75" y="375.2" width="526.5" height="84" rx="12" ry="12" style="fill:none;stroke:#f7931f;stroke-miterlimit:10;stroke-width:7.05719840526581px"/><path d="M919.38,407.19l4.88,12.18,4.94-12.18h5.73l-8.66,20h-4.12l-8.53-20Z"/><path d="M935,427.2l3.45-20h5.21l4.12,10.68,4.36-10.68h5.27l3.05,20h-5.27l-1.5-11.52L948.8,427.2h-2.1L942,415.68l-1.73,11.52Z"/><path d="M962.92,427.2l3.45-20h5.21l4.12,10.68,4.36-10.68h5.27l3,20h-5.27l-1.5-11.52-4.9,11.52H974.6l-4.69-11.52-1.74,11.52Z"/><rect x="688.25" y="491.45" width="526" height="84" rx="12" ry="12" style="fill:none;stroke:#91c54f;stroke-miterlimit:10;stroke-width:7.05384719371796px"/><path d="M884.57,531.62h7.61v-7.47h5.3v20h-5.3v-8.1h-7.61v8.1H879.3v-20h5.27Z"/><path d="M911.83,530.75h4.87v13.41h-4.87v-1.47a5.12,5.12,0,0,1-4.23,1.92,6.61,6.61,0,0,1-4.91-2.13,6.71,6.71,0,0,1-2-4.92,7.39,7.39,0,0,1,2.1-5.37,7.09,7.09,0,0,1,4.91-1.89,5.43,5.43,0,0,1,4.08,1.74Zm-5.12,4.5a3.11,3.11,0,0,0-1,2.19,3.06,3.06,0,0,0,.94,2.19,3.46,3.46,0,0,0,2.2.9,3.15,3.15,0,0,0,2.19-.93,2.88,2.88,0,0,0,.91-2.16,2.94,2.94,0,0,0-.94-2.19,3.13,3.13,0,0,0-4.33,0Z"/><path d="M920.06,530.75h4.87v2.19a4.38,4.38,0,0,1,1.92-1.86,5.37,5.37,0,0,1,2.53-.54l1,.06v4.53a4.32,4.32,0,0,0-2.1-.48,3.22,3.22,0,0,0-2.22.72,4,4,0,0,0-1.1,3.06v5.73h-4.87Z"/><path d="M947.93,544.16h-4.87v-1.47a5,5,0,0,1-4.12,1.92,6.57,6.57,0,0,1-4.78-1.86,7.34,7.34,0,0,1-2.19-5.34,7.25,7.25,0,0,1,2.22-5.31,7,7,0,0,1,4.81-1.8,5.45,5.45,0,0,1,4.06,1.74v-9.75h4.87Zm-5.76-4.44a3.2,3.2,0,0,0,1-2.28,3.47,3.47,0,0,0-.92-2.16,3.15,3.15,0,0,0-4.38,0,3.26,3.26,0,0,0-.95,2.28,3.17,3.17,0,0,0,3.11,3A3.36,3.36,0,0,0,942.17,539.72Z"/><path d="M955.06,530.75l3.23,7.08,3.44-7.08h3l3.45,7.29,3.41-7.29H977l-7.13,13.41h-3.29l-3.41-7.38-3.26,7.38h-3.29l-7-13.41Z"/><path d="M988.08,530.75H993v13.41h-4.87v-1.47a5.12,5.12,0,0,1-4.23,1.92,6.61,6.61,0,0,1-4.91-2.13,6.71,6.71,0,0,1-2-4.92,7.39,7.39,0,0,1,2.1-5.37A7.09,7.09,0,0,1,984,530.3a5.43,5.43,0,0,1,4.08,1.74Zm-5.12,4.5a3.11,3.11,0,0,0-1,2.19,3.06,3.06,0,0,0,.94,2.19,3.46,3.46,0,0,0,2.2.9,3.15,3.15,0,0,0,2.19-.93,2.88,2.88,0,0,0,.91-2.16,2.94,2.94,0,0,0-.94-2.19,3.13,3.13,0,0,0-4.33,0Z"/><path d="M996.31,530.75h4.87v2.19a4.38,4.38,0,0,1,1.92-1.86,5.37,5.37,0,0,1,2.53-.54l1,.06v4.53a4.32,4.32,0,0,0-2.1-.48,3.22,3.22,0,0,0-2.22.72,4,4,0,0,0-1.1,3.06v5.73h-4.87Z"/><path d="M1023.2,538.34h-10.14a3.35,3.35,0,0,0,.85,2.25,2.78,2.78,0,0,0,2,.66,3.9,3.9,0,0,0,1.59-.36,2.25,2.25,0,0,0,.85-.9H1023a6,6,0,0,1-1.64,2.76c-1,1-2.59,1.86-5.55,1.86a7.77,7.77,0,0,1-5.63-2,6.94,6.94,0,0,1-2-5.07,7.09,7.09,0,0,1,2-5.19,7.71,7.71,0,0,1,5.57-1.95,7.52,7.52,0,0,1,5.24,1.83,7.43,7.43,0,0,1,2.16,5.64Zm-4.47-2.76a3.25,3.25,0,0,0-.8-1.44,2.86,2.86,0,0,0-2-.72,2.65,2.65,0,0,0-2,.72,2.75,2.75,0,0,0-.73,1.44Z"/><rect x="687.96" y="258.95" width="154.29" height="84" rx="12" ry="12" style="fill:none;stroke:#4fc2c9;stroke-miterlimit:10;stroke-width:7px"/><rect x="873.96" y="258.95" width="154.29" height="84" rx="12" ry="12" style="fill:none;stroke:#4fc2c9;stroke-miterlimit:10;stroke-width:7px"/><rect x="1059.96" y="258.95" width="154.29" height="84" rx="12" ry="12" style="fill:none;stroke:#4fc2c9;stroke-miterlimit:10;stroke-width:7px"/><path d="M903.29,299.61H913.6c0,4-.81,6.78-3.21,9a9.74,9.74,0,0,1-7,2.52,10.33,10.33,0,0,1-7.67-3,10.08,10.08,0,0,1-2.88-7.23,10.43,10.43,0,0,1,3-7.5A11.62,11.62,0,0,1,909,291.84a9.8,9.8,0,0,1,3.57,4.11l-4.94,2a4.91,4.91,0,0,0-1.45-2,4.18,4.18,0,0,0-2.79-1,4.85,4.85,0,0,0-3.42,1.38,6.8,6.8,0,0,0-1.74,4.59,6.26,6.26,0,0,0,1.59,4.32,4.76,4.76,0,0,0,3.66,1.53,4.31,4.31,0,0,0,2.89-.93,3.61,3.61,0,0,0,1.23-2.22h-4.26Z"/><path d="M921.26,297.54V305A2.53,2.53,0,0,0,922,307a2.48,2.48,0,0,0,1.68.51,2.21,2.21,0,0,0,1.7-.57,2.49,2.49,0,0,0,.69-1.89v-7.5h4.8v8.37a4.6,4.6,0,0,1-1.29,3.6c-1.64,1.71-4,1.89-5.79,1.89-2,0-4.46-.21-6.06-1.92a4.85,4.85,0,0,1-1.25-3.57v-8.37Z"/><path d="M948.37,305.13h-10a3.44,3.44,0,0,0,.84,2.25,2.7,2.7,0,0,0,2,.66,3.73,3.73,0,0,0,1.56-.36,2.23,2.23,0,0,0,.84-.9h4.59a6,6,0,0,1-1.62,2.76c-1,1-2.55,1.86-5.46,1.86a7.57,7.57,0,0,1-5.54-2,7,7,0,0,1-2-5.07,7.15,7.15,0,0,1,2-5.19,7.56,7.56,0,0,1,5.5-2,7.34,7.34,0,0,1,5.15,1.83,7.51,7.51,0,0,1,2.13,5.64ZM944,302.37a3.22,3.22,0,0,0-.78-1.44,2.8,2.8,0,0,0-2-.72,2.54,2.54,0,0,0-1.94.72,2.68,2.68,0,0,0-.73,1.44Z"/><path d="M952,306.51a6.81,6.81,0,0,0,1.91,1,6.25,6.25,0,0,0,1.86.33,2,2,0,0,0,1.23-.36.78.78,0,0,0,.25-.63.72.72,0,0,0-.25-.6,3,3,0,0,0-1.25-.48l-1.26-.3a4.28,4.28,0,0,1-2.34-1.17,3.21,3.21,0,0,1-.88-2.31,4.8,4.8,0,0,1,1.27-3.27,6.73,6.73,0,0,1,4.79-1.62,11.07,11.07,0,0,1,4.29.87L960,301a6.64,6.64,0,0,0-2.51-.66,2,2,0,0,0-1.12.27.72.72,0,0,0-.42.66.78.78,0,0,0,.57.75c.45.18.84.18,1.59.39l.88.24a5.62,5.62,0,0,1,2,1.05,3.79,3.79,0,0,1,1,2.67,4.48,4.48,0,0,1-1.35,3.33,7,7,0,0,1-4.95,1.68,9.87,9.87,0,0,1-5.39-1.56Z"/><path d="M969.76,301.47V311H965v-9.48h-1.53v-3.93H965v-4.41h4.8v4.41h2.73v3.93Z"/><path d="M981.13,300.9h7.59v4h-7.59Z"/><path d="M1004.23,295.35h-2.85v-4.41h8v20h-5.19Z"/><path d="M1087,299.61h10.32c0,4-.82,6.78-3.21,9a9.77,9.77,0,0,1-7,2.52,10.33,10.33,0,0,1-7.68-3,10.08,10.08,0,0,1-2.88-7.23,10.43,10.43,0,0,1,3-7.5,11.62,11.62,0,0,1,13.16-1.59,9.67,9.67,0,0,1,3.57,4.11l-4.94,2a4.9,4.9,0,0,0-1.44-2,4.2,4.2,0,0,0-2.79-1,4.83,4.83,0,0,0-3.42,1.38,6.75,6.75,0,0,0-1.74,4.59,6.3,6.3,0,0,0,1.58,4.32,4.77,4.77,0,0,0,3.67,1.53,4.29,4.29,0,0,0,2.88-.93,3.61,3.61,0,0,0,1.23-2.22H1087Z"/><path d="M1105,297.54V305a2.57,2.57,0,0,0,.72,1.95,2.48,2.48,0,0,0,1.68.51,2.21,2.21,0,0,0,1.7-.57,2.46,2.46,0,0,0,.7-1.89v-7.5h4.8v8.37a4.6,4.6,0,0,1-1.29,3.6c-1.65,1.71-4,1.89-5.8,1.89-2,0-4.46-.21-6-1.92a4.82,4.82,0,0,1-1.26-3.57v-8.37Z"/><path d="M1132.06,305.13h-10a3.39,3.39,0,0,0,.84,2.25,2.65,2.65,0,0,0,2,.66,3.79,3.79,0,0,0,1.57-.36,2.23,2.23,0,0,0,.84-.9h4.58a5.94,5.94,0,0,1-1.62,2.76c-1,1-2.55,1.86-5.46,1.86a7.6,7.6,0,0,1-5.54-2,7,7,0,0,1-2-5.07,7.16,7.16,0,0,1,2-5.19,7.52,7.52,0,0,1,5.49-2,7.32,7.32,0,0,1,5.15,1.83,7.51,7.51,0,0,1,2.13,5.64Zm-4.41-2.76a3.2,3.2,0,0,0-.77-1.44,2.8,2.8,0,0,0-2-.72,2.57,2.57,0,0,0-1.94.72,2.75,2.75,0,0,0-.73,1.44Z"/><path d="M1135.7,306.51a6.87,6.87,0,0,0,1.92,1,6.13,6.13,0,0,0,1.85.33,2.06,2.06,0,0,0,1.24-.36.77.77,0,0,0,.24-.63.71.71,0,0,0-.24-.6,3.1,3.1,0,0,0-1.26-.48l-1.26-.3a4.28,4.28,0,0,1-2.34-1.17A3.25,3.25,0,0,1,1135,302a4.8,4.8,0,0,1,1.27-3.27,6.75,6.75,0,0,1,4.8-1.62,11,11,0,0,1,4.28.87l-1.61,3.06a6.69,6.69,0,0,0-2.52-.66,2,2,0,0,0-1.11.27.7.7,0,0,0-.42.66.77.77,0,0,0,.56.75c.45.18.84.18,1.59.39l.88.24a5.76,5.76,0,0,1,2,1.05,3.83,3.83,0,0,1,1,2.67,4.52,4.52,0,0,1-1.34,3.33,7,7,0,0,1-5,1.68,9.89,9.89,0,0,1-5.39-1.56Z"/><path d="M1153.45,301.47V311h-4.8v-9.48h-1.52v-3.93h1.52v-4.41h4.8v4.41h2.73v3.93Z"/><path d="M1164.82,300.9h7.59v4h-7.59Z"/><path d="M1197.73,311h-16l5.07-5.31a33.14,33.14,0,0,0,4.11-5.07,5.63,5.63,0,0,0,1.08-3.12,3,3,0,0,0-.6-1.92,2,2,0,0,0-1.47-.6,2.15,2.15,0,0,0-1.74.81,5,5,0,0,0-.72,2.46H1182a8,8,0,0,1,2.22-5.55,8.62,8.62,0,0,1,11.31-.09,6.68,6.68,0,0,1,2,4.92c0,2.52-1.17,4.26-3,5.94l-3.36,3.12h6.54Z"/><path d="M724.84,307.52l3.39-20h5.13l4,10.68,4.29-10.68h5.19l3,20H744.7L743.23,296l-4.83,11.52h-2.07L731.71,296,730,307.52Z"/><path d="M767.83,294.11v12.57c0,2-.18,3.84-1.83,5.55a8,8,0,0,1-5.91,2.16,8.22,8.22,0,0,1-6.27-2.37,4.93,4.93,0,0,1-1.47-2.79h5.34a2.06,2.06,0,0,0,2.25,1.38,2.92,2.92,0,0,0,2.13-.75,3.23,3.23,0,0,0,1-2.49V306a5.1,5.1,0,0,1-4,1.77,6.68,6.68,0,0,1-5-1.89,7.07,7.07,0,0,1-1.85-4.89,7.72,7.72,0,0,1,2-5.25,6.74,6.74,0,0,1,4.86-2,5.24,5.24,0,0,1,4,1.77v-1.38Zm-9.78,4.5a3,3,0,0,0,0,4.35,3,3,0,0,0,2.16.87,3.07,3.07,0,0,0,3.06-3.06,3.44,3.44,0,0,0-1-2.19,3,3,0,0,0-2.13-.87A2.86,2.86,0,0,0,758.05,298.61Z"/><path d="M771.13,294.11h4.8v1.62a5.15,5.15,0,0,1,4-1.86,5.46,5.46,0,0,1,2.58.6,4.19,4.19,0,0,1,1.86,1.92,4.71,4.71,0,0,1,1.83-1.86,5.44,5.44,0,0,1,2.79-.66,5.33,5.33,0,0,1,3.72,1.23,4.93,4.93,0,0,1,1.26,3.69v8.73h-4.8v-6.63c0-1.41-.15-2.37-.69-2.88a1.75,1.75,0,0,0-1.26-.45,1.94,1.94,0,0,0-1.41.54,3.43,3.43,0,0,0-.87,2.55v6.87h-4.8v-6.63a4.29,4.29,0,0,0-.63-2.88,1.86,1.86,0,0,0-1.44-.54,1.69,1.69,0,0,0-1.32.48,4,4,0,0,0-.84,2.94v6.63h-4.8Z"/><path d="M802.63,298v9.48h-4.8V298H796.3v-3.93h1.53V289.7h4.8v4.41h2.73V298Z"/><path d="M230,30.82v15.6h-5.19V30.82h-4.26V26.41h13.71v4.41Z"/><path d="M238.53,24.73a2.7,2.7,0,1,1-2.7,2.7A2.69,2.69,0,0,1,238.53,24.73Zm2.4,8.28V46.42h-4.8V33Z"/><path d="M249,53.29h-4.8V33H249v1.47a5,5,0,0,1,4.11-1.92,6.67,6.67,0,0,1,4.77,1.95,7.61,7.61,0,0,1-.12,10.5,6.44,6.44,0,0,1-4.59,1.86A5.71,5.71,0,0,1,249,45.13Zm.78-15.75a3.27,3.27,0,0,0-.93,2.22,3.24,3.24,0,0,0,.93,2.13,3.07,3.07,0,0,0,2.16.9,2.9,2.9,0,0,0,2.13-.9,3.17,3.17,0,0,0,.93-2.13,3.27,3.27,0,0,0-.93-2.22,2.9,2.9,0,0,0-2.13-.9A3.07,3.07,0,0,0,249.78,37.54Z"/><path d="M262.53,36.37h7.59v4h-7.59Z"/><path d="M288.45,46.42H272.4l5.07-5.31A33.14,33.14,0,0,0,281.58,36a5.63,5.63,0,0,0,1.08-3.12,3,3,0,0,0-.6-1.92,2,2,0,0,0-1.47-.6,2.15,2.15,0,0,0-1.74.81,5,5,0,0,0-.72,2.46h-5.37A8,8,0,0,1,275,28.12,8.62,8.62,0,0,1,286.29,28,6.68,6.68,0,0,1,288.24,33c0,2.52-1.17,4.26-3,5.94L281.91,42h6.54Z"/><path d="M302.28,26.41l4.8,12.18,4.86-12.18h5.64l-8.52,20H305l-8.4-20Z"/><path d="M317.67,46.42l3.39-20h5.13l4.05,10.68,4.29-10.68h5.19l3,20h-5.19L336.06,34.9l-4.83,11.52h-2.07L324.54,34.9l-1.71,11.52Z"/><path d="M345.12,46.42l3.39-20h5.13l4.05,10.68L362,26.41h5.19l3,20H365L363.51,34.9l-4.83,11.52h-2.07L352,34.9l-1.71,11.52Z"/><path d="M260.66,66h6.24V59.75h4.35V76.42H266.9V69.67h-6.24v6.75h-4.33V59.75h4.33Z"/><path d="M285.63,75a7.64,7.64,0,0,1-10,0,5.57,5.57,0,0,1-1.73-4.13,5.5,5.5,0,0,1,1.73-4.09,7,7,0,0,1,5-1.85,7.06,7.06,0,0,1,5,1.85,5.53,5.53,0,0,1,1.72,4.09A5.6,5.6,0,0,1,285.63,75Zm-6.77-6a2.55,2.55,0,0,0,1.8,4.35,2.54,2.54,0,0,0,1.77-.75,2.49,2.49,0,0,0,.78-1.78,2.71,2.71,0,0,0-.78-1.82,2.57,2.57,0,0,0-3.57,0Z"/><path d="M290.38,72.72a6,6,0,0,0,1.6.83,5.38,5.38,0,0,0,1.55.27,1.68,1.68,0,0,0,1-.3.64.64,0,0,0,.2-.52.6.6,0,0,0-.2-.5,2.43,2.43,0,0,0-1.05-.4l-1.05-.25a3.64,3.64,0,0,1-1.95-1,2.67,2.67,0,0,1-.73-1.92,4,4,0,0,1,1.05-2.72,5.62,5.62,0,0,1,4-1.35,9.31,9.31,0,0,1,3.57.72l-1.34,2.55a5.56,5.56,0,0,0-2.1-.55,1.71,1.71,0,0,0-.93.23.6.6,0,0,0-.35.55.65.65,0,0,0,.48.62c.37.15.7.15,1.32.33l.73.19a4.6,4.6,0,0,1,1.64.88,3.15,3.15,0,0,1,.85,2.22,3.75,3.75,0,0,1-1.12,2.78,5.81,5.81,0,0,1-4.12,1.4,8.28,8.28,0,0,1-4.5-1.3Z"/><path d="M305.18,68.53v7.89h-4V68.53h-1.27V65.25h1.27V61.58h4v3.67h2.28v3.28Z"/><path d="M320.8,71.57h-8.32a2.87,2.87,0,0,0,.7,1.88,2.25,2.25,0,0,0,1.65.55,3.24,3.24,0,0,0,1.3-.3,1.9,1.9,0,0,0,.7-.75h3.82a5,5,0,0,1-1.35,2.3,6.06,6.06,0,0,1-4.55,1.55,6.36,6.36,0,0,1-4.62-1.7,6.32,6.32,0,0,1,0-8.55,6.27,6.27,0,0,1,4.57-1.62,6.12,6.12,0,0,1,4.3,1.52,6.27,6.27,0,0,1,1.77,4.7Zm-3.67-2.3a2.67,2.67,0,0,0-.65-1.19,2.31,2.31,0,0,0-1.65-.6,2.11,2.11,0,0,0-1.62.6,2.22,2.22,0,0,0-.6,1.19Z"/><path d="M335.75,76.42h-4V75.2a4.09,4.09,0,0,1-3.37,1.6,5.36,5.36,0,0,1-3.92-1.55,6.15,6.15,0,0,1-1.8-4.45,6.08,6.08,0,0,1,1.82-4.42,5.72,5.72,0,0,1,3.95-1.5,4.39,4.39,0,0,1,3.32,1.45V58.2h4ZM331,72.72a2.68,2.68,0,0,0,.85-1.9,2.9,2.9,0,0,0-.75-1.79,2.57,2.57,0,0,0-3.6,0,2.74,2.74,0,0,0-.77,1.9,2.56,2.56,0,0,0,.77,1.75,2.48,2.48,0,0,0,1.77.75A2.73,2.73,0,0,0,331,72.72Z"/><path d="M884,154.82v15.6h-5.19v-15.6h-4.26v-4.41h13.71v4.41Z"/><path d="M892.53,148.73a2.7,2.7,0,1,1-2.7,2.7A2.69,2.69,0,0,1,892.53,148.73Zm2.4,8.28v13.41h-4.8V157Z"/><path d="M903,177.29h-4.8V157H903v1.47a5,5,0,0,1,4.11-1.92,6.67,6.67,0,0,1,4.77,1.95,7.61,7.61,0,0,1-.12,10.5,6.44,6.44,0,0,1-4.59,1.86,5.71,5.71,0,0,1-4.17-1.74Zm.78-15.75a3.27,3.27,0,0,0-.93,2.22,3.24,3.24,0,0,0,.93,2.13,3.07,3.07,0,0,0,2.16.9,2.9,2.9,0,0,0,2.13-.9,3.17,3.17,0,0,0,.93-2.13,3.27,3.27,0,0,0-.93-2.22,2.9,2.9,0,0,0-2.13-.9A3.07,3.07,0,0,0,903.78,161.54Z"/><path d="M916.53,160.37h7.59v4h-7.59Z"/><path d="M932.64,154.82h-2.85v-4.41h8v20h-5.19Z"/><path d="M956.28,150.41l4.8,12.18,4.86-12.18h5.64l-8.52,20h-4l-8.4-20Z"/><path d="M971.67,170.42l3.39-20h5.13l4,10.68,4.29-10.68h5.19l3,20h-5.19l-1.47-11.52-4.83,11.52h-2.07l-4.62-11.52-1.71,11.52Z"/><path d="M999.12,170.42l3.39-20h5.13l4.05,10.68,4.28-10.68h5.2l3,20H1019l-1.46-11.52-4.83,11.52h-2.07L1006,158.9l-1.71,11.52Z"/><path d="M834.73,200.42V183.75h4.33l8,10.2v-10.2h4.32v16.67H847l-8-10.19v10.19Z"/><path d="M863.13,189.25h4v11.17h-4V199.2a4.17,4.17,0,0,1-3.47,1.6,5.35,5.35,0,0,1-4-1.78,5.65,5.65,0,0,1-1.6-4.1,6.19,6.19,0,0,1,1.73-4.47,5.74,5.74,0,0,1,4-1.57,4.4,4.4,0,0,1,3.35,1.45Zm-4.2,3.75a2.5,2.5,0,0,0,0,3.65,2.79,2.79,0,0,0,1.8.75,2.57,2.57,0,0,0,1.8-.78,2.43,2.43,0,0,0,.75-1.8,2.46,2.46,0,0,0-.78-1.82,2.55,2.55,0,0,0-3.55,0Z"/><path d="M874.31,192.53v7.89h-4v-7.89H869v-3.28h1.28v-3.67h4v3.67h2.27v3.28Z"/><path d="M880.08,182.35a2.25,2.25,0,1,1-2.25,2.25A2.24,2.24,0,0,1,880.08,182.35Zm2,6.9v11.17h-4V189.25Z"/><path d="M887.91,189.25l2.67,5.72,2.73-5.72h4.44l-5.82,11.17h-2.72l-5.78-11.17Z"/><path d="M910.35,195.57H902a2.87,2.87,0,0,0,.7,1.88,2.25,2.25,0,0,0,1.65.55,3.24,3.24,0,0,0,1.3-.3,1.83,1.83,0,0,0,.7-.75h3.83a5.14,5.14,0,0,1-1.35,2.3,6.09,6.09,0,0,1-4.55,1.55,6.37,6.37,0,0,1-4.63-1.7,6.32,6.32,0,0,1,0-8.55,6.27,6.27,0,0,1,4.57-1.62,6.11,6.11,0,0,1,4.3,1.52,6.27,6.27,0,0,1,1.77,4.7Zm-3.67-2.3a2.67,2.67,0,0,0-.65-1.19,2.3,2.3,0,0,0-1.65-.6,2.12,2.12,0,0,0-1.62.6,2.22,2.22,0,0,0-.6,1.19Z"/><path d="M922,205.12a16.3,16.3,0,0,1-2.45-5.6,20.75,20.75,0,0,1-.73-5.85,21.7,21.7,0,0,1,.93-6.54A22.46,22.46,0,0,1,922,182.2l2.82,1.5a21.53,21.53,0,0,0-1.85,4.53,23.14,23.14,0,0,0-.7,5.32,26.72,26.72,0,0,0,.6,5.17,17.5,17.5,0,0,0,1.95,4.9Z"/><path d="M927.71,200.42V183.75h6.45a4.68,4.68,0,0,1,3.64,1.3,4.5,4.5,0,0,1,1,3.13,4.34,4.34,0,0,1-.48,2,2.63,2.63,0,0,1-1.35,1.3,3.66,3.66,0,0,1,3.4,4,4.56,4.56,0,0,1-1.22,3.28,6.28,6.28,0,0,1-4.53,1.57ZM932,190.33h.8a2.27,2.27,0,0,0,1.65-.53,1.62,1.62,0,0,0,.4-1.1,1.7,1.7,0,0,0-.4-1.12,2.26,2.26,0,0,0-1.65-.5H932Zm0,6.72h1c1.2,0,2.2-.13,2.67-.68a1.61,1.61,0,0,0,.35-1.07,1.69,1.69,0,0,0-.43-1.2c-.52-.52-1.6-.55-2.67-.55H932Z"/><path d="M951.43,189.25h4v11.17h-4V199.2a4.2,4.2,0,0,1-3.47,1.6,5.35,5.35,0,0,1-4-1.78,5.65,5.65,0,0,1-1.6-4.1,6.19,6.19,0,0,1,1.73-4.47,5.74,5.74,0,0,1,4-1.57,4.4,4.4,0,0,1,3.35,1.45Zm-4.2,3.75a2.5,2.5,0,0,0,0,3.65,2.78,2.78,0,0,0,1.79.75,2.57,2.57,0,0,0,1.8-.78,2.43,2.43,0,0,0,.75-1.8,2.48,2.48,0,0,0-.77-1.82,2.57,2.57,0,0,0-1.8-.72A2.54,2.54,0,0,0,947.23,193Z"/><path d="M958.18,189.25h4v1.83a3.65,3.65,0,0,1,1.57-1.55,4.35,4.35,0,0,1,2.08-.45l.8,0v3.77a3.54,3.54,0,0,0-1.73-.4,2.63,2.63,0,0,0-1.82.6,3.38,3.38,0,0,0-.9,2.55v4.77h-4Z"/><path d="M980.25,195.57h-8.32a2.87,2.87,0,0,0,.7,1.88,2.25,2.25,0,0,0,1.65.55,3.24,3.24,0,0,0,1.3-.3,1.9,1.9,0,0,0,.7-.75h3.82a5,5,0,0,1-1.35,2.3,6,6,0,0,1-4.54,1.55,6.37,6.37,0,0,1-4.63-1.7,6.32,6.32,0,0,1,0-8.55,6.27,6.27,0,0,1,4.57-1.62,6.12,6.12,0,0,1,4.3,1.52,6.27,6.27,0,0,1,1.77,4.7Zm-3.67-2.3a2.67,2.67,0,0,0-.65-1.19,2.31,2.31,0,0,0-1.65-.6,2.12,2.12,0,0,0-1.62.6,2.22,2.22,0,0,0-.6,1.19Z"/><path d="M984,192.05h6.32v3.32H984Z"/><path d="M993,189.25h4v1.35a4.26,4.26,0,0,1,3.34-1.55,4.61,4.61,0,0,1,2.15.5,3.46,3.46,0,0,1,1.55,1.6,4,4,0,0,1,1.53-1.55,4.51,4.51,0,0,1,2.32-.55,4.43,4.43,0,0,1,3.1,1,4.09,4.09,0,0,1,1,3.07v7.27h-4V194.9a3.34,3.34,0,0,0-.57-2.4,1.48,1.48,0,0,0-1-.37,1.61,1.61,0,0,0-1.18.45,2.86,2.86,0,0,0-.72,2.12v5.72h-4V194.9a3.59,3.59,0,0,0-.53-2.4,1.57,1.57,0,0,0-1.2-.45,1.44,1.44,0,0,0-1.1.4,3.34,3.34,0,0,0-.69,2.45v5.52h-4Z"/><path d="M1026.63,195.57h-8.33a2.87,2.87,0,0,0,.7,1.88,2.25,2.25,0,0,0,1.65.55,3.24,3.24,0,0,0,1.3-.3,1.83,1.83,0,0,0,.7-.75h3.83a5.14,5.14,0,0,1-1.35,2.3,6.09,6.09,0,0,1-4.55,1.55,6.33,6.33,0,0,1-4.62-1.7,5.85,5.85,0,0,1-1.65-4.23,6,6,0,0,1,1.67-4.32,6.27,6.27,0,0,1,4.57-1.62,6.11,6.11,0,0,1,4.3,1.52,6.24,6.24,0,0,1,1.78,4.7Zm-3.68-2.3a2.67,2.67,0,0,0-.65-1.19,2.3,2.3,0,0,0-1.65-.6,2.12,2.12,0,0,0-1.62.6,2.22,2.22,0,0,0-.6,1.19Z"/><path d="M1033.35,192.53v7.89h-4v-7.89h-1.28v-3.28h1.28v-3.67h4v3.67h2.28v3.28Z"/><path d="M1045.78,189.25h4v11.17h-4V199.2a4.2,4.2,0,0,1-3.48,1.6,5.33,5.33,0,0,1-4-1.78,5.65,5.65,0,0,1-1.6-4.1,6.19,6.19,0,0,1,1.72-4.47,5.76,5.76,0,0,1,4-1.57,4.41,4.41,0,0,1,3.35,1.45Zm-4.2,3.75a2.51,2.51,0,0,0,0,3.65,2.83,2.83,0,0,0,1.8.75,2.57,2.57,0,0,0,1.8-.78,2.43,2.43,0,0,0,.75-1.8,2.48,2.48,0,0,0-.77-1.82,2.57,2.57,0,0,0-1.8-.72A2.54,2.54,0,0,0,1041.58,193Z"/><path d="M1056.53,182.2v18.22h-4V182.2Z"/><path d="M1059.05,203.62a17.2,17.2,0,0,0,2-4.9,26,26,0,0,0,.6-5.17,23.14,23.14,0,0,0-.7-5.32,21,21,0,0,0-1.85-4.53l2.83-1.5a22.93,22.93,0,0,1,2.25,4.93,22.43,22.43,0,0,1,.92,6.57,20.7,20.7,0,0,1-.72,5.82,16.69,16.69,0,0,1-2.45,5.6Z"/></svg>