<svg id="Layer_1" data-name="Layer 1" xmlns="http://www.w3.org/2000/svg" viewBox="0 0 1284 848"><title>Cap 14 -</title><rect x="49.71" y="28.59" width="154.29" height="60.5" rx="12" ry="12" style="fill:none;stroke:#91c54f;stroke-miterlimit:10;stroke-width:7px"/><rect x="235.71" y="28.59" width="154.29" height="60.5" rx="12" ry="12" style="fill:none;stroke:#f7931f;stroke-miterlimit:10;stroke-width:7px"/><rect x="421.71" y="28.59" width="154.29" height="60.5" rx="12" ry="12" style="fill:none;stroke:#c13018;stroke-miterlimit:10;stroke-width:7px"/><path d="M102.33,62.05H95.07l-1.35,3.36H88.23l7.68-20h5.67l7.53,20h-5.55Zm-1.38-4L98.7,51.61l-2.19,6.48Z"/><path d="M115.77,72.28H111V52h4.8v1.47a5,5,0,0,1,4.11-1.92,6.67,6.67,0,0,1,4.77,2,7.61,7.61,0,0,1-.12,10.5,6.44,6.44,0,0,1-4.59,1.86,5.71,5.71,0,0,1-4.17-1.74Zm.78-15.75a3.27,3.27,0,0,0-.93,2.22,3.24,3.24,0,0,0,.93,2.13,3.07,3.07,0,0,0,2.16.9,2.9,2.9,0,0,0,2.13-.9,3.17,3.17,0,0,0,.93-2.13,3.27,3.27,0,0,0-.93-2.22,2.9,2.9,0,0,0-2.13-.9A3.07,3.07,0,0,0,116.55,56.53Z"/><path d="M134.25,72.28h-4.8V52h4.8v1.47a5,5,0,0,1,4.11-1.92,6.67,6.67,0,0,1,4.77,2A7.61,7.61,0,0,1,143,64a6.44,6.44,0,0,1-4.59,1.86,5.71,5.71,0,0,1-4.17-1.74ZM135,56.53a3.27,3.27,0,0,0-.93,2.22,3.24,3.24,0,0,0,.93,2.13,3.07,3.07,0,0,0,2.16.9,2.9,2.9,0,0,0,2.13-.9,3.17,3.17,0,0,0,.93-2.13,3.27,3.27,0,0,0-.93-2.22,2.9,2.9,0,0,0-2.13-.9A3.07,3.07,0,0,0,135,56.53Z"/><path d="M160.29,49.81h-2.85V45.4h8v20h-5.19Z"/><path d="M286,62.27h-7.26l-1.35,3.36h-5.49l7.68-20h5.67l7.53,20h-5.55Zm-1.38-4-2.25-6.48-2.19,6.48Z"/><path d="M299.46,72.5h-4.8V52.23h4.8v1.46a5,5,0,0,1,4.11-1.92,6.67,6.67,0,0,1,4.77,2,7.6,7.6,0,0,1-.12,10.49,6.44,6.44,0,0,1-4.59,1.86,5.71,5.71,0,0,1-4.17-1.74Zm.78-15.75a3.27,3.27,0,0,0-.93,2.22,3.24,3.24,0,0,0,.93,2.13,3.07,3.07,0,0,0,2.16.9,2.9,2.9,0,0,0,2.13-.9,3.17,3.17,0,0,0,.93-2.13,3.27,3.27,0,0,0-.93-2.22,2.94,2.94,0,0,0-2.13-.9A3.11,3.11,0,0,0,300.24,56.75Z"/><path d="M317.94,72.5h-4.8V52.23h4.8v1.46a5,5,0,0,1,4.11-1.92,6.67,6.67,0,0,1,4.77,2,7.6,7.6,0,0,1-.12,10.49,6.44,6.44,0,0,1-4.59,1.86,5.71,5.71,0,0,1-4.17-1.74Zm.78-15.75a3.27,3.27,0,0,0-.93,2.22,3.24,3.24,0,0,0,.93,2.13,3.07,3.07,0,0,0,2.16.9,2.9,2.9,0,0,0,2.13-.9,3.17,3.17,0,0,0,.93-2.13,3.27,3.27,0,0,0-.93-2.22,2.94,2.94,0,0,0-2.13-.9A3.11,3.11,0,0,0,318.72,56.75Z"/><path d="M353.79,65.63H337.74l5.07-5.31a33.14,33.14,0,0,0,4.11-5.07A5.63,5.63,0,0,0,348,52.14a3,3,0,0,0-.6-1.92,2,2,0,0,0-1.47-.61,2.15,2.15,0,0,0-1.74.82,4.93,4.93,0,0,0-.72,2.46H338.1a7.94,7.94,0,0,1,2.22-5.55A7.6,7.6,0,0,1,346,45.18a7.7,7.7,0,0,1,5.64,2.06,6.7,6.7,0,0,1,1.95,4.92c0,2.53-1.17,4.26-3,5.94l-3.36,3.12h6.54Z"/><path d="M472,62.27h-7.26l-1.35,3.36h-5.49l7.68-20h5.67l7.52,20h-5.55Zm-1.38-4-2.25-6.48-2.2,6.48Z"/><path d="M485.48,72.5h-4.8V52.23h4.8v1.46a5,5,0,0,1,4.11-1.92,6.65,6.65,0,0,1,4.76,2,7.6,7.6,0,0,1-.12,10.49,6.43,6.43,0,0,1-4.59,1.86,5.69,5.69,0,0,1-4.16-1.74Zm.78-15.75a3.27,3.27,0,0,0-.93,2.22,3.24,3.24,0,0,0,.93,2.13,3.07,3.07,0,0,0,2.16.9,2.9,2.9,0,0,0,2.13-.9,3.21,3.21,0,0,0,.92-2.13,3.31,3.31,0,0,0-.92-2.22,2.94,2.94,0,0,0-2.13-.9A3.11,3.11,0,0,0,486.26,56.75Z"/><path d="M504,72.5h-4.8V52.23H504v1.46a5,5,0,0,1,4.1-1.92,6.67,6.67,0,0,1,4.77,2,7.6,7.6,0,0,1-.12,10.49,6.44,6.44,0,0,1-4.59,1.86A5.69,5.69,0,0,1,504,64.34Zm.77-15.75A3.27,3.27,0,0,0,503.8,59a3.24,3.24,0,0,0,.93,2.13,3.08,3.08,0,0,0,2.16.9,2.9,2.9,0,0,0,2.13-.9A3.17,3.17,0,0,0,510,59a3.27,3.27,0,0,0-.93-2.22,2.94,2.94,0,0,0-2.13-.9A3.13,3.13,0,0,0,504.73,56.75Z"/><path d="M529.12,58.79a3.12,3.12,0,0,0,.81,2,2.76,2.76,0,0,0,2,.78,2.66,2.66,0,0,0,2-.87,2.35,2.35,0,0,0,.6-1.65,2.29,2.29,0,0,0-.78-1.77,3.13,3.13,0,0,0-1.92-.56,2.66,2.66,0,0,0-.87.11V53.33a2.51,2.51,0,0,0,2.13-.51,1.88,1.88,0,0,0,.66-1.41,1.86,1.86,0,0,0-2-2,2.08,2.08,0,0,0-1.44.5,2.53,2.53,0,0,0-.69,1.78h-4.83a7.06,7.06,0,0,1,1.95-4.59,8,8,0,0,1,10.26-.19,5.46,5.46,0,0,1,1.62,3.87,4.79,4.79,0,0,1-.6,2.46,3.45,3.45,0,0,1-1.53,1.54,4.83,4.83,0,0,1,2.37,1.82,5.08,5.08,0,0,1,.84,2.94A6,6,0,0,1,538,64a8.2,8.2,0,0,1-6,2.13A8.09,8.09,0,0,1,526.3,64a8,8,0,0,1-2.49-5.22Z"/><rect x="49.71" y="106.59" width="154.29" height="60.5" rx="12" ry="12" style="fill:none;stroke:#91c54f;stroke-miterlimit:10;stroke-width:7px"/><rect x="235.71" y="106.59" width="154.29" height="60.5" rx="12" ry="12" style="fill:none;stroke:#f7931f;stroke-miterlimit:10;stroke-width:7px"/><rect x="421.71" y="106.59" width="154.29" height="60.5" rx="12" ry="12" style="fill:none;stroke:#c13018;stroke-miterlimit:10;stroke-width:7px"/><path d="M63,145V125h7.74a5.61,5.61,0,0,1,4.38,1.56,5.39,5.39,0,0,1,1.23,3.75,5.19,5.19,0,0,1-.57,2.46,3.17,3.17,0,0,1-1.62,1.55,4.43,4.43,0,0,1,4.08,4.87,5.42,5.42,0,0,1-1.47,3.92A7.52,7.52,0,0,1,71.29,145Zm5.2-12.11h1a2.76,2.76,0,0,0,2-.63,2,2,0,0,0,.49-1.32,2,2,0,0,0-.49-1.35,2.74,2.74,0,0,0-2-.6h-1Zm0,8.06h1.17c1.43,0,2.63-.15,3.21-.8a2,2,0,0,0,.41-1.29,2,2,0,0,0-.51-1.45c-.63-.63-1.92-.66-3.2-.66H68.15Z"/><path d="M83.44,123.27a2.7,2.7,0,1,1-2.7,2.7A2.7,2.7,0,0,1,83.44,123.27Zm2.41,8.28V145h-4.8v-13.4Z"/><path d="M89.12,131.55h4.8v1.68a5,5,0,0,1,4.26-2,5.34,5.34,0,0,1,3.95,1.44,4.58,4.58,0,0,1,1.27,3.75V145H98.6v-6.77a3.9,3.9,0,0,0-.61-2.62,2,2,0,0,0-1.52-.57,2.73,2.73,0,0,0-1.78.63,3.13,3.13,0,0,0-.77,2.13V145h-4.8Z"/><path d="M107.53,140.52a7.12,7.12,0,0,0,1.92,1,6.36,6.36,0,0,0,1.87.33,2.06,2.06,0,0,0,1.22-.35.78.78,0,0,0,.24-.63.73.73,0,0,0-.24-.61,3.07,3.07,0,0,0-1.26-.47l-1.25-.31a4.25,4.25,0,0,1-2.34-1.17,3.23,3.23,0,0,1-.87-2.31,4.74,4.74,0,0,1,1.25-3.26,6.81,6.81,0,0,1,4.8-1.62,11,11,0,0,1,4.29.87L115.54,135a6.78,6.78,0,0,0-2.51-.66,2,2,0,0,0-1.12.28.71.71,0,0,0-.42.66.79.79,0,0,0,.58.75c.45.18.83.18,1.58.39l.88.24a5.39,5.39,0,0,1,2,1,3.77,3.77,0,0,1,1,2.67,4.5,4.5,0,0,1-1.36,3.33,7,7,0,0,1-4.94,1.67,9.94,9.94,0,0,1-5.41-1.56Z"/><path d="M132.76,123.09h3.93l-15.36,27.5h-3.9Z"/><path d="M145.78,125v15.59H152V145H140.59V125Z"/><path d="M156.64,123.27a2.7,2.7,0,1,1-2.7,2.7A2.69,2.69,0,0,1,156.64,123.27Zm2.4,8.28V145h-4.8v-13.4Z"/><path d="M167.11,123.09v9.75a5.27,5.27,0,0,1,4-1.74,6.86,6.86,0,0,1,4.74,1.8,7.28,7.28,0,0,1,2.19,5.3,7.38,7.38,0,0,1-2.16,5.34,6.42,6.42,0,0,1-4.71,1.86,4.92,4.92,0,0,1-4-1.92V145h-4.79V123.09Zm5.07,17.33a3,3,0,0,0,.93-2.1,3.27,3.27,0,0,0-.93-2.27,2.9,2.9,0,0,0-2.13-.87,3,3,0,0,0-2.19.89,3.51,3.51,0,0,0-.9,2.16,3.26,3.26,0,0,0,1,2.29,3.33,3.33,0,0,0,2.07.8A3,3,0,0,0,172.18,140.42Z"/><path d="M180.76,140.52a6.84,6.84,0,0,0,1.92,1,6.25,6.25,0,0,0,1.86.33,2.1,2.1,0,0,0,1.23-.35.78.78,0,0,0,.24-.63.73.73,0,0,0-.24-.61,3.13,3.13,0,0,0-1.26-.47l-1.26-.31a4.31,4.31,0,0,1-2.34-1.17A3.23,3.23,0,0,1,180,136a4.75,4.75,0,0,1,1.26-3.26,6.77,6.77,0,0,1,4.8-1.62,11.07,11.07,0,0,1,4.29.87L188.77,135a6.83,6.83,0,0,0-2.52-.66,1.94,1.94,0,0,0-1.11.28.7.7,0,0,0-.42.66.78.78,0,0,0,.57.75c.45.18.84.18,1.59.39l.87.24a5.36,5.36,0,0,1,2,1,3.76,3.76,0,0,1,1,2.67,4.5,4.5,0,0,1-1.35,3.33,7,7,0,0,1-5,1.67,9.89,9.89,0,0,1-5.4-1.56Z"/><path d="M249,145V125h7.74a5.61,5.61,0,0,1,4.38,1.56,5.39,5.39,0,0,1,1.23,3.75,5.19,5.19,0,0,1-.57,2.46,3.17,3.17,0,0,1-1.62,1.55,4.43,4.43,0,0,1,4.08,4.87,5.42,5.42,0,0,1-1.47,3.92,7.52,7.52,0,0,1-5.43,1.89Zm5.2-12.11h1a2.76,2.76,0,0,0,2-.63,2,2,0,0,0,.49-1.32,2,2,0,0,0-.49-1.35,2.74,2.74,0,0,0-2-.6h-1Zm0,8.06h1.17c1.43,0,2.63-.15,3.21-.8a2,2,0,0,0,.41-1.29,2,2,0,0,0-.51-1.45c-.63-.63-1.92-.66-3.2-.66h-1.08Z"/><path d="M269.44,123.27a2.7,2.7,0,1,1-2.7,2.7A2.7,2.7,0,0,1,269.44,123.27Zm2.41,8.28V145h-4.8v-13.4Z"/><path d="M275.12,131.55h4.8v1.68a5,5,0,0,1,4.26-2,5.34,5.34,0,0,1,3.95,1.44,4.58,4.58,0,0,1,1.27,3.75V145h-4.8v-6.77a3.9,3.9,0,0,0-.61-2.62,2,2,0,0,0-1.52-.57,2.73,2.73,0,0,0-1.78.63,3.13,3.13,0,0,0-.77,2.13V145h-4.8Z"/><path d="M293.53,140.52a7.12,7.12,0,0,0,1.92,1,6.36,6.36,0,0,0,1.87.33,2.06,2.06,0,0,0,1.22-.35.78.78,0,0,0,.24-.63.73.73,0,0,0-.24-.61,3.07,3.07,0,0,0-1.26-.47l-1.25-.31a4.25,4.25,0,0,1-2.34-1.17,3.23,3.23,0,0,1-.87-2.31,4.74,4.74,0,0,1,1.25-3.26,6.81,6.81,0,0,1,4.8-1.62,11,11,0,0,1,4.29.87L301.54,135a6.78,6.78,0,0,0-2.51-.66,2,2,0,0,0-1.12.28.71.71,0,0,0-.42.66.79.79,0,0,0,.58.75c.45.18.83.18,1.58.39l.88.24a5.39,5.39,0,0,1,2,1,3.77,3.77,0,0,1,1,2.67,4.5,4.5,0,0,1-1.36,3.33,7,7,0,0,1-4.94,1.67,9.94,9.94,0,0,1-5.41-1.56Z"/><path d="M318.76,123.09h3.93l-15.36,27.5h-3.9Z"/><path d="M331.78,125v15.59H338V145H326.59V125Z"/><path d="M342.64,123.27a2.7,2.7,0,1,1-2.7,2.7A2.69,2.69,0,0,1,342.64,123.27Zm2.4,8.28V145h-4.8v-13.4Z"/><path d="M353.11,123.09v9.75a5.27,5.27,0,0,1,4-1.74,6.86,6.86,0,0,1,4.74,1.8,7.28,7.28,0,0,1,2.19,5.3,7.38,7.38,0,0,1-2.16,5.34,6.42,6.42,0,0,1-4.71,1.86,4.92,4.92,0,0,1-4.05-1.92V145h-4.79V123.09Zm5.07,17.33a3,3,0,0,0,.93-2.1,3.27,3.27,0,0,0-.93-2.27,2.9,2.9,0,0,0-2.13-.87,3,3,0,0,0-2.19.89,3.51,3.51,0,0,0-.9,2.16,3.26,3.26,0,0,0,1,2.29,3.33,3.33,0,0,0,2.07.8A3,3,0,0,0,358.18,140.42Z"/><path d="M366.76,140.52a6.84,6.84,0,0,0,1.92,1,6.25,6.25,0,0,0,1.86.33,2.1,2.1,0,0,0,1.23-.35.78.78,0,0,0,.24-.63.73.73,0,0,0-.24-.61,3.13,3.13,0,0,0-1.26-.47l-1.26-.31a4.31,4.31,0,0,1-2.34-1.17A3.23,3.23,0,0,1,366,136a4.75,4.75,0,0,1,1.26-3.26,6.77,6.77,0,0,1,4.8-1.62,11.07,11.07,0,0,1,4.29.87L374.77,135a6.83,6.83,0,0,0-2.52-.66,1.94,1.94,0,0,0-1.11.28.7.7,0,0,0-.42.66.78.78,0,0,0,.57.75c.45.18.84.18,1.59.39l.87.24a5.36,5.36,0,0,1,2,1,3.76,3.76,0,0,1,1,2.67,4.5,4.5,0,0,1-1.35,3.33,7,7,0,0,1-4.95,1.67,9.89,9.89,0,0,1-5.4-1.56Z"/><path d="M435,145V125h7.74a5.61,5.61,0,0,1,4.38,1.56,5.39,5.39,0,0,1,1.23,3.75,5.19,5.19,0,0,1-.57,2.46,3.17,3.17,0,0,1-1.62,1.55,4.43,4.43,0,0,1,4.08,4.87,5.42,5.42,0,0,1-1.47,3.92,7.52,7.52,0,0,1-5.43,1.89Zm5.2-12.11h1a2.76,2.76,0,0,0,2-.63,2,2,0,0,0,.49-1.32,2,2,0,0,0-.49-1.35,2.74,2.74,0,0,0-2-.6h-1Zm0,8.06h1.17c1.43,0,2.63-.15,3.21-.8a2,2,0,0,0,.41-1.29,2,2,0,0,0-.51-1.45c-.63-.63-1.92-.66-3.2-.66h-1.08Z"/><path d="M455.44,123.27a2.7,2.7,0,1,1-2.7,2.7A2.7,2.7,0,0,1,455.44,123.27Zm2.41,8.28V145h-4.8v-13.4Z"/><path d="M461.12,131.55h4.8v1.68a5,5,0,0,1,4.26-2,5.34,5.34,0,0,1,3.95,1.44,4.58,4.58,0,0,1,1.27,3.75V145h-4.8v-6.77a3.9,3.9,0,0,0-.61-2.62,2,2,0,0,0-1.52-.57,2.73,2.73,0,0,0-1.78.63,3.13,3.13,0,0,0-.77,2.13V145h-4.8Z"/><path d="M479.53,140.52a7.12,7.12,0,0,0,1.92,1,6.36,6.36,0,0,0,1.87.33,2.06,2.06,0,0,0,1.22-.35.78.78,0,0,0,.24-.63.73.73,0,0,0-.24-.61,3.07,3.07,0,0,0-1.26-.47l-1.25-.31a4.25,4.25,0,0,1-2.34-1.17,3.23,3.23,0,0,1-.87-2.31,4.74,4.74,0,0,1,1.25-3.26,6.81,6.81,0,0,1,4.8-1.62,11,11,0,0,1,4.29.87L487.54,135a6.78,6.78,0,0,0-2.51-.66,2,2,0,0,0-1.12.28.71.71,0,0,0-.42.66.79.79,0,0,0,.58.75c.45.18.83.18,1.58.39l.88.24a5.39,5.39,0,0,1,2,1,3.77,3.77,0,0,1,1,2.67,4.5,4.5,0,0,1-1.36,3.33,7,7,0,0,1-4.94,1.67,9.94,9.94,0,0,1-5.41-1.56Z"/><path d="M504.76,123.09h3.93l-15.36,27.5h-3.9Z"/><path d="M517.78,125v15.59H524V145H512.59V125Z"/><path d="M528.64,123.27a2.7,2.7,0,1,1-2.7,2.7A2.69,2.69,0,0,1,528.64,123.27Zm2.4,8.28V145h-4.8v-13.4Z"/><path d="M539.11,123.09v9.75a5.27,5.27,0,0,1,4-1.74,6.86,6.86,0,0,1,4.74,1.8,7.28,7.28,0,0,1,2.19,5.3,7.38,7.38,0,0,1-2.16,5.34,6.42,6.42,0,0,1-4.71,1.86,4.92,4.92,0,0,1-4-1.92V145h-4.79V123.09Zm5.07,17.33a3,3,0,0,0,.93-2.1,3.27,3.27,0,0,0-.93-2.27,2.9,2.9,0,0,0-2.13-.87,3,3,0,0,0-2.19.89,3.51,3.51,0,0,0-.9,2.16,3.26,3.26,0,0,0,1,2.29,3.33,3.33,0,0,0,2.07.8A3,3,0,0,0,544.18,140.42Z"/><path d="M552.76,140.52a6.84,6.84,0,0,0,1.92,1,6.25,6.25,0,0,0,1.86.33,2.1,2.1,0,0,0,1.23-.35.78.78,0,0,0,.24-.63.73.73,0,0,0-.24-.61,3.13,3.13,0,0,0-1.26-.47l-1.26-.31a4.31,4.31,0,0,1-2.34-1.17A3.23,3.23,0,0,1,552,136a4.75,4.75,0,0,1,1.26-3.26,6.77,6.77,0,0,1,4.8-1.62,11.07,11.07,0,0,1,4.29.87L560.77,135a6.83,6.83,0,0,0-2.52-.66,1.94,1.94,0,0,0-1.11.28.7.7,0,0,0-.42.66.78.78,0,0,0,.57.75c.45.18.84.18,1.59.39l.87.24a5.36,5.36,0,0,1,2,1,3.76,3.76,0,0,1,1,2.67,4.5,4.5,0,0,1-1.35,3.33,7,7,0,0,1-4.95,1.67,9.89,9.89,0,0,1-5.4-1.56Z"/><rect x="49.5" y="379.59" width="527" height="84" rx="12" ry="12" style="fill:none;stroke:#e34758;stroke-miterlimit:10;stroke-width:7px"/><path d="M240.91,416.46h7.5V409h5.22v20h-5.22v-8.1h-7.5V429h-5.19V409h5.19Z"/><path d="M262.21,427.17l-6.48-11.58h5.58l3.57,6.87,3.48-6.87h5.49l-10.77,20.28h-5.37Z"/><path d="M280.3,435.87h-4.8V415.59h4.8v1.47a5,5,0,0,1,4.11-1.92,6.67,6.67,0,0,1,4.77,1.95,7.61,7.61,0,0,1-.12,10.5,6.44,6.44,0,0,1-4.59,1.86,5.71,5.71,0,0,1-4.17-1.74Zm.78-15.75a3.27,3.27,0,0,0-.93,2.22,3.24,3.24,0,0,0,.93,2.13,3.07,3.07,0,0,0,2.16.9,2.9,2.9,0,0,0,2.13-.9,3.17,3.17,0,0,0,.93-2.13,3.27,3.27,0,0,0-.93-2.22,2.9,2.9,0,0,0-2.13-.9A3.07,3.07,0,0,0,281.08,420.12Z"/><path d="M308.2,423.18h-10a3.39,3.39,0,0,0,.84,2.25,2.7,2.7,0,0,0,2,.66,3.79,3.79,0,0,0,1.56-.36,2.23,2.23,0,0,0,.84-.9H308a6,6,0,0,1-1.62,2.76c-1,1-2.55,1.86-5.46,1.86a7.61,7.61,0,0,1-5.55-2,7,7,0,0,1-2-5.07,7.16,7.16,0,0,1,2-5.19,7.55,7.55,0,0,1,5.49-1.95,7.35,7.35,0,0,1,5.16,1.83,7.51,7.51,0,0,1,2.13,5.64Zm-4.41-2.76A3.22,3.22,0,0,0,303,419a2.8,2.8,0,0,0-2-.72,2.58,2.58,0,0,0-1.95.72,2.74,2.74,0,0,0-.72,1.44Z"/><path d="M311,415.59h4.8v2.19a4.33,4.33,0,0,1,1.89-1.86,5.24,5.24,0,0,1,2.49-.54l1,.06V420a4.23,4.23,0,0,0-2.07-.48,3.14,3.14,0,0,0-2.19.72,4,4,0,0,0-1.08,3.06V429H311Z"/><path d="M327,415.59l3.21,6.87,3.27-6.87h5.34l-7,13.41h-3.27l-6.93-13.41Z"/><path d="M342.82,407.31a2.7,2.7,0,1,1-2.7,2.7A2.69,2.69,0,0,1,342.82,407.31Zm2.4,8.28V429h-4.8V415.59Z"/><path d="M349.36,424.56a6.87,6.87,0,0,0,1.92,1,6.25,6.25,0,0,0,1.86.33,2,2,0,0,0,1.23-.36.77.77,0,0,0,.24-.63.71.71,0,0,0-.24-.6,3,3,0,0,0-1.26-.48l-1.26-.3a4.31,4.31,0,0,1-2.34-1.17,3.24,3.24,0,0,1-.87-2.31,4.79,4.79,0,0,1,1.26-3.27,6.77,6.77,0,0,1,4.8-1.62A11.07,11.07,0,0,1,359,416l-1.62,3.06a6.64,6.64,0,0,0-2.52-.66,2,2,0,0,0-1.11.27.72.72,0,0,0-.42.66.78.78,0,0,0,.57.75c.45.18.84.18,1.59.39l.87.24a5.67,5.67,0,0,1,2,1,3.79,3.79,0,0,1,1,2.67,4.48,4.48,0,0,1-1.35,3.33,7,7,0,0,1-4.95,1.68,9.89,9.89,0,0,1-5.4-1.56Z"/><path d="M375.31,427.23a9.18,9.18,0,0,1-12,0,6.92,6.92,0,0,1,0-9.87,8.37,8.37,0,0,1,6-2.22,8.47,8.47,0,0,1,6,2.22,6.92,6.92,0,0,1,0,9.87Zm-8.13-7.14a3.06,3.06,0,0,0,2.16,5.22,3.05,3.05,0,0,0,2.13-.9,3,3,0,0,0,.93-2.13,3.26,3.26,0,0,0-.93-2.19,3.08,3.08,0,0,0-4.29,0Z"/><path d="M380.14,415.59h4.8v2.19a4.33,4.33,0,0,1,1.89-1.86,5.24,5.24,0,0,1,2.49-.54l1,.06V420a4.23,4.23,0,0,0-2.07-.48,3.14,3.14,0,0,0-2.19.72,4,4,0,0,0-1.08,3.06V429h-4.8Z"/><rect x="49.71" y="183.59" width="154.29" height="172.5" rx="12" ry="12" style="fill:none;stroke:#91c54f;stroke-miterlimit:10;stroke-width:7px"/><rect x="235.71" y="183.59" width="154.29" height="172.5" rx="12" ry="12" style="fill:none;stroke:#f7931f;stroke-miterlimit:10;stroke-width:7px"/><rect x="421.71" y="183.59" width="154.29" height="172.5" rx="12" ry="12" style="fill:none;stroke:#c13018;stroke-miterlimit:10;stroke-width:7px"/><path d="M73.71,268.5H84c0,4-.81,6.78-3.21,9a9.77,9.77,0,0,1-7,2.52,10.33,10.33,0,0,1-7.68-3,10.08,10.08,0,0,1-2.88-7.23,10.44,10.44,0,0,1,3-7.5,11.68,11.68,0,0,1,13.17-1.59A9.77,9.77,0,0,1,83,264.85l-5,2a4.9,4.9,0,0,0-1.44-2,4.18,4.18,0,0,0-2.79-1,4.79,4.79,0,0,0-3.42,1.38,6.72,6.72,0,0,0-1.74,4.58,6.24,6.24,0,0,0,1.59,4.32,4.73,4.73,0,0,0,3.66,1.53,4.29,4.29,0,0,0,2.88-.93A3.56,3.56,0,0,0,78,272.55H73.71Z"/><path d="M91.68,266.44v7.49a2.57,2.57,0,0,0,.72,1.95,2.48,2.48,0,0,0,1.68.51,2.24,2.24,0,0,0,1.71-.57,2.49,2.49,0,0,0,.69-1.89v-7.49h4.8v8.36a4.6,4.6,0,0,1-1.29,3.6c-1.65,1.71-4,1.89-5.79,1.89-2,0-4.47-.21-6.06-1.92a4.82,4.82,0,0,1-1.26-3.57v-8.36Z"/><path d="M118.8,274h-10a3.39,3.39,0,0,0,.84,2.25,2.7,2.7,0,0,0,2,.66,3.79,3.79,0,0,0,1.56-.36,2.23,2.23,0,0,0,.84-.9h4.59a6,6,0,0,1-1.62,2.76c-1,1-2.55,1.86-5.46,1.86a7.61,7.61,0,0,1-5.55-2,7,7,0,0,1-2-5.07,7.17,7.17,0,0,1,2-5.19,7.55,7.55,0,0,1,5.49-1.95,7.35,7.35,0,0,1,5.16,1.83,7.51,7.51,0,0,1,2.13,5.64Zm-4.41-2.76a3.27,3.27,0,0,0-.78-1.44,2.8,2.8,0,0,0-2-.72,2.58,2.58,0,0,0-1.95.72,2.78,2.78,0,0,0-.72,1.44Z"/><path d="M122.43,275.4a6.87,6.87,0,0,0,1.92,1,6.25,6.25,0,0,0,1.86.33,2,2,0,0,0,1.23-.36.77.77,0,0,0,.24-.63.71.71,0,0,0-.24-.6,3,3,0,0,0-1.26-.48l-1.26-.3a4.31,4.31,0,0,1-2.34-1.17,3.23,3.23,0,0,1-.87-2.31A4.79,4.79,0,0,1,123,267.6a6.82,6.82,0,0,1,4.8-1.62,11.07,11.07,0,0,1,4.29.87l-1.62,3.06a6.64,6.64,0,0,0-2.52-.66,2,2,0,0,0-1.11.27.72.72,0,0,0-.42.67.8.8,0,0,0,.57.75c.45.17.84.17,1.59.38l.87.24a5.67,5.67,0,0,1,2,1.05,3.79,3.79,0,0,1,1,2.67,4.48,4.48,0,0,1-1.35,3.33,7,7,0,0,1-4.95,1.68,9.89,9.89,0,0,1-5.4-1.56Z"/><path d="M140.19,270.36v9.48h-4.8v-9.48h-1.53v-3.92h1.53V262h4.8v4.42h2.73v3.92Z"/><path d="M170.19,277.32a12,12,0,0,1-15.78,0,10.47,10.47,0,0,1,0-15,12,12,0,0,1,15.78,0,10.47,10.47,0,0,1,0,15ZM158.25,266a5.45,5.45,0,0,0-1.59,3.92,5.09,5.09,0,0,0,1.59,3.72,5.68,5.68,0,0,0,4.05,1.59,5.44,5.44,0,0,0,5.64-5.4,5.36,5.36,0,0,0-1.62-3.83,5.94,5.94,0,0,0-4-1.59A5.76,5.76,0,0,0,158.25,266Z"/><path d="M178,273.84a7,7,0,0,0,4.59,2,2.63,2.63,0,0,0,2-.69,1.79,1.79,0,0,0,.51-1.26,1.56,1.56,0,0,0-.57-1.2,7.05,7.05,0,0,0-2.58-1l-1.35-.43a6.61,6.61,0,0,1-2.88-1.61,5.07,5.07,0,0,1-1.14-3.55,6.58,6.58,0,0,1,1.83-4.83,7.09,7.09,0,0,1,5.13-1.88,14.06,14.06,0,0,1,6.18,1.62l-2.07,4.05a5.25,5.25,0,0,0-3.42-1.36,2.46,2.46,0,0,0-1.71.61,1.46,1.46,0,0,0-.51,1.08,1.31,1.31,0,0,0,.27.89,3.34,3.34,0,0,0,1.74.91l1.59.47a7.66,7.66,0,0,1,3.63,2,4.69,4.69,0,0,1,1.29,3.56,6.78,6.78,0,0,1-1.89,5,7.76,7.76,0,0,1-5.91,2,10.7,10.7,0,0,1-3.93-.66,14,14,0,0,1-3-1.59Z"/><path d="M259.71,268.5H270c0,4-.81,6.78-3.21,9a9.77,9.77,0,0,1-7.05,2.52,10.33,10.33,0,0,1-7.68-3,10.08,10.08,0,0,1-2.88-7.23,10.44,10.44,0,0,1,3-7.5,11.68,11.68,0,0,1,13.17-1.59,9.77,9.77,0,0,1,3.57,4.12l-4.95,2a4.9,4.9,0,0,0-1.44-2,4.18,4.18,0,0,0-2.79-1,4.79,4.79,0,0,0-3.42,1.38,6.72,6.72,0,0,0-1.74,4.58,6.24,6.24,0,0,0,1.59,4.32,4.73,4.73,0,0,0,3.66,1.53,4.29,4.29,0,0,0,2.88-.93,3.56,3.56,0,0,0,1.23-2.22h-4.26Z"/><path d="M277.68,266.44v7.49a2.57,2.57,0,0,0,.72,1.95,2.48,2.48,0,0,0,1.68.51,2.24,2.24,0,0,0,1.71-.57,2.49,2.49,0,0,0,.69-1.89v-7.49h4.8v8.36a4.6,4.6,0,0,1-1.29,3.6c-1.65,1.71-4,1.89-5.79,1.89-2,0-4.47-.21-6.06-1.92a4.82,4.82,0,0,1-1.26-3.57v-8.36Z"/><path d="M304.8,274h-10a3.39,3.39,0,0,0,.84,2.25,2.7,2.7,0,0,0,2,.66,3.79,3.79,0,0,0,1.56-.36,2.23,2.23,0,0,0,.84-.9h4.59a6,6,0,0,1-1.62,2.76c-1,1-2.55,1.86-5.46,1.86a7.61,7.61,0,0,1-5.55-2,7,7,0,0,1-2-5.07,7.17,7.17,0,0,1,2-5.19,7.55,7.55,0,0,1,5.49-1.95,7.35,7.35,0,0,1,5.16,1.83,7.51,7.51,0,0,1,2.13,5.64Zm-4.41-2.76a3.27,3.27,0,0,0-.78-1.44,2.8,2.8,0,0,0-2-.72,2.58,2.58,0,0,0-1.95.72,2.78,2.78,0,0,0-.72,1.44Z"/><path d="M308.43,275.4a6.87,6.87,0,0,0,1.92,1,6.25,6.25,0,0,0,1.86.33,2,2,0,0,0,1.23-.36.77.77,0,0,0,.24-.63.71.71,0,0,0-.24-.6,3,3,0,0,0-1.26-.48l-1.26-.3a4.31,4.31,0,0,1-2.34-1.17,3.23,3.23,0,0,1-.87-2.31A4.79,4.79,0,0,1,309,267.6a6.82,6.82,0,0,1,4.8-1.62,11.07,11.07,0,0,1,4.29.87l-1.62,3.06a6.64,6.64,0,0,0-2.52-.66,2,2,0,0,0-1.11.27.72.72,0,0,0-.42.67.8.8,0,0,0,.57.75c.45.17.84.17,1.59.38l.87.24a5.67,5.67,0,0,1,2,1.05,3.79,3.79,0,0,1,1,2.67,4.48,4.48,0,0,1-1.35,3.33,7,7,0,0,1-4.95,1.68,9.89,9.89,0,0,1-5.4-1.56Z"/><path d="M326.19,270.36v9.48h-4.8v-9.48h-1.53v-3.92h1.53V262h4.8v4.42h2.73v3.92Z"/><path d="M356.19,277.32a12,12,0,0,1-15.78,0,10.47,10.47,0,0,1,0-15,12,12,0,0,1,15.78,0,10.47,10.47,0,0,1,0,15ZM344.25,266a5.45,5.45,0,0,0-1.59,3.92,5.09,5.09,0,0,0,1.59,3.72,5.68,5.68,0,0,0,4.05,1.59,5.44,5.44,0,0,0,5.64-5.4,5.36,5.36,0,0,0-1.62-3.83,5.94,5.94,0,0,0-4-1.59A5.76,5.76,0,0,0,344.25,266Z"/><path d="M364,273.84a7,7,0,0,0,4.59,2,2.63,2.63,0,0,0,2-.69,1.79,1.79,0,0,0,.51-1.26,1.56,1.56,0,0,0-.57-1.2,7.05,7.05,0,0,0-2.58-1l-1.35-.43a6.61,6.61,0,0,1-2.88-1.61,5.07,5.07,0,0,1-1.14-3.55,6.58,6.58,0,0,1,1.83-4.83,7.09,7.09,0,0,1,5.13-1.88,14.06,14.06,0,0,1,6.18,1.62l-2.07,4.05a5.25,5.25,0,0,0-3.42-1.36,2.46,2.46,0,0,0-1.71.61,1.46,1.46,0,0,0-.51,1.08,1.31,1.31,0,0,0,.27.89,3.34,3.34,0,0,0,1.74.91l1.59.47a7.66,7.66,0,0,1,3.63,2,4.69,4.69,0,0,1,1.29,3.56,6.78,6.78,0,0,1-1.89,5,7.76,7.76,0,0,1-5.91,2,10.7,10.7,0,0,1-3.93-.66,14,14,0,0,1-3-1.59Z"/><path d="M445.71,268.5H456c0,4-.81,6.78-3.21,9a9.77,9.77,0,0,1-7.05,2.52,10.33,10.33,0,0,1-7.68-3,10.08,10.08,0,0,1-2.88-7.23,10.44,10.44,0,0,1,3-7.5,11.68,11.68,0,0,1,13.17-1.59,9.77,9.77,0,0,1,3.57,4.12l-4.95,2a4.9,4.9,0,0,0-1.44-2,4.18,4.18,0,0,0-2.79-1,4.79,4.79,0,0,0-3.42,1.38,6.72,6.72,0,0,0-1.74,4.58,6.24,6.24,0,0,0,1.59,4.32,4.73,4.73,0,0,0,3.66,1.53,4.29,4.29,0,0,0,2.88-.93,3.56,3.56,0,0,0,1.23-2.22h-4.26Z"/><path d="M463.68,266.44v7.49a2.57,2.57,0,0,0,.72,1.95,2.48,2.48,0,0,0,1.68.51,2.24,2.24,0,0,0,1.71-.57,2.49,2.49,0,0,0,.69-1.89v-7.49h4.8v8.36a4.6,4.6,0,0,1-1.29,3.6c-1.65,1.71-4,1.89-5.79,1.89-2,0-4.47-.21-6.06-1.92a4.82,4.82,0,0,1-1.26-3.57v-8.36Z"/><path d="M490.8,274h-10a3.39,3.39,0,0,0,.84,2.25,2.7,2.7,0,0,0,2,.66,3.79,3.79,0,0,0,1.56-.36,2.23,2.23,0,0,0,.84-.9h4.59a6,6,0,0,1-1.62,2.76c-1,1-2.55,1.86-5.46,1.86a7.61,7.61,0,0,1-5.55-2,7,7,0,0,1-2-5.07,7.17,7.17,0,0,1,2-5.19,7.55,7.55,0,0,1,5.49-1.95,7.35,7.35,0,0,1,5.16,1.83,7.51,7.51,0,0,1,2.13,5.64Zm-4.41-2.76a3.27,3.27,0,0,0-.78-1.44,2.8,2.8,0,0,0-2-.72,2.58,2.58,0,0,0-1.95.72,2.78,2.78,0,0,0-.72,1.44Z"/><path d="M494.43,275.4a6.87,6.87,0,0,0,1.92,1,6.25,6.25,0,0,0,1.86.33,2,2,0,0,0,1.23-.36.77.77,0,0,0,.24-.63.71.71,0,0,0-.24-.6,3,3,0,0,0-1.26-.48l-1.26-.3a4.31,4.31,0,0,1-2.34-1.17,3.23,3.23,0,0,1-.87-2.31A4.79,4.79,0,0,1,495,267.6a6.82,6.82,0,0,1,4.8-1.62,11.07,11.07,0,0,1,4.29.87l-1.62,3.06a6.64,6.64,0,0,0-2.52-.66,2,2,0,0,0-1.11.27.72.72,0,0,0-.42.67.8.8,0,0,0,.57.75c.45.17.84.17,1.59.38l.87.24a5.67,5.67,0,0,1,2,1.05,3.79,3.79,0,0,1,1,2.67,4.48,4.48,0,0,1-1.35,3.33,7,7,0,0,1-4.95,1.68,9.89,9.89,0,0,1-5.4-1.56Z"/><path d="M512.19,270.36v9.48h-4.8v-9.48h-1.53v-3.92h1.53V262h4.8v4.42h2.73v3.92Z"/><path d="M542.19,277.32a12,12,0,0,1-15.78,0,10.47,10.47,0,0,1,0-15,12,12,0,0,1,15.78,0,10.47,10.47,0,0,1,0,15ZM530.25,266a5.45,5.45,0,0,0-1.59,3.92,5.09,5.09,0,0,0,1.59,3.72,5.68,5.68,0,0,0,4,1.59,5.44,5.44,0,0,0,5.64-5.4,5.36,5.36,0,0,0-1.62-3.83,5.94,5.94,0,0,0-4-1.59A5.76,5.76,0,0,0,530.25,266Z"/><path d="M550,273.84a7,7,0,0,0,4.59,2,2.63,2.63,0,0,0,2-.69,1.79,1.79,0,0,0,.51-1.26,1.56,1.56,0,0,0-.57-1.2,7.05,7.05,0,0,0-2.58-1l-1.35-.43a6.61,6.61,0,0,1-2.88-1.61,5.07,5.07,0,0,1-1.14-3.55,6.58,6.58,0,0,1,1.83-4.83,7.09,7.09,0,0,1,5.13-1.88,14.06,14.06,0,0,1,6.18,1.62l-2.07,4.05a5.25,5.25,0,0,0-3.42-1.36,2.46,2.46,0,0,0-1.71.61,1.46,1.46,0,0,0-.51,1.08,1.31,1.31,0,0,0,.27.89,3.34,3.34,0,0,0,1.74.91l1.59.47a7.66,7.66,0,0,1,3.63,2,4.69,4.69,0,0,1,1.29,3.56,6.78,6.78,0,0,1-1.89,5,7.76,7.76,0,0,1-5.91,2,10.7,10.7,0,0,1-3.93-.66,14,14,0,0,1-3-1.59Z"/><rect x="50.5" y="496.59" width="526" height="84" rx="12" ry="12" style="fill:none;stroke:#636868;stroke-miterlimit:10;stroke-width:7px"/><path d="M159.29,533.46h7.5V526H172v20h-5.22v-8.1h-7.5V546H154.1V526h5.19Z"/><path d="M189.26,544.23a9.18,9.18,0,0,1-12,0,6.92,6.92,0,0,1,0-9.87,8.37,8.37,0,0,1,6-2.22,8.47,8.47,0,0,1,6,2.22,6.92,6.92,0,0,1,0,9.87Zm-8.13-7.14a3.06,3.06,0,0,0,2.16,5.22,3.05,3.05,0,0,0,2.13-.9,3,3,0,0,0,.93-2.13,3.26,3.26,0,0,0-.93-2.19,3.08,3.08,0,0,0-4.29,0Z"/><path d="M195,541.56a6.87,6.87,0,0,0,1.92,1,6.25,6.25,0,0,0,1.86.33,2,2,0,0,0,1.23-.36.77.77,0,0,0,.24-.63.71.71,0,0,0-.24-.6,3,3,0,0,0-1.26-.48l-1.26-.3a4.31,4.31,0,0,1-2.34-1.17,3.24,3.24,0,0,1-.87-2.31,4.79,4.79,0,0,1,1.26-3.27,6.77,6.77,0,0,1,4.8-1.62,11.07,11.07,0,0,1,4.29.87L203,536.07a6.64,6.64,0,0,0-2.52-.66,2,2,0,0,0-1.11.27.72.72,0,0,0-.42.66.78.78,0,0,0,.57.75c.45.18.84.18,1.59.39l.87.24a5.67,5.67,0,0,1,2,1,3.79,3.79,0,0,1,1,2.67,4.48,4.48,0,0,1-1.35,3.33,7,7,0,0,1-4.95,1.68,9.89,9.89,0,0,1-5.4-1.56Z"/><path d="M212.72,536.52V546h-4.8v-9.48h-1.53v-3.93h1.53v-4.41h4.8v4.41h2.73v3.93Z"/><path d="M242.72,543.48a12,12,0,0,1-15.78,0,10.47,10.47,0,0,1,0-15,12,12,0,0,1,15.78,0,10.47,10.47,0,0,1,0,15Zm-11.94-11.31a5.49,5.49,0,0,0-1.59,3.93,5.09,5.09,0,0,0,1.59,3.72,5.68,5.68,0,0,0,4.05,1.59,5.44,5.44,0,0,0,5.64-5.4,5.4,5.4,0,0,0-1.62-3.84,6,6,0,0,0-4-1.59A5.76,5.76,0,0,0,230.78,532.17Z"/><path d="M253.52,552.87h-4.8V532.59h4.8v1.47a5,5,0,0,1,4.11-1.92,6.67,6.67,0,0,1,4.77,2,7.61,7.61,0,0,1-.12,10.5,6.44,6.44,0,0,1-4.59,1.86,5.71,5.71,0,0,1-4.17-1.74Zm.78-15.75a3.27,3.27,0,0,0-.93,2.22,3.24,3.24,0,0,0,.93,2.13,3.07,3.07,0,0,0,2.16.9,2.9,2.9,0,0,0,2.13-.9,3.17,3.17,0,0,0,.93-2.13,3.27,3.27,0,0,0-.93-2.22,2.9,2.9,0,0,0-2.13-.9A3.07,3.07,0,0,0,254.3,537.12Z"/><path d="M281.42,540.18h-10a3.39,3.39,0,0,0,.84,2.25,2.7,2.7,0,0,0,2,.66,3.79,3.79,0,0,0,1.56-.36,2.23,2.23,0,0,0,.84-.9h4.59a6,6,0,0,1-1.62,2.76c-1,1-2.55,1.86-5.46,1.86a7.61,7.61,0,0,1-5.55-2,7,7,0,0,1-2-5.07,7.16,7.16,0,0,1,2-5.19,7.55,7.55,0,0,1,5.49-1.95,7.35,7.35,0,0,1,5.16,1.83,7.51,7.51,0,0,1,2.13,5.64ZM277,537.42a3.22,3.22,0,0,0-.78-1.44,2.8,2.8,0,0,0-2-.72,2.58,2.58,0,0,0-1.95.72,2.74,2.74,0,0,0-.72,1.44Z"/><path d="M284.18,532.59H289v2.19a4.33,4.33,0,0,1,1.89-1.86,5.22,5.22,0,0,1,2.48-.54l1,.06V537a4.14,4.14,0,0,0-2.06-.48,3.14,3.14,0,0,0-2.19.72,4,4,0,0,0-1.08,3.06V546h-4.8Z"/><path d="M306.82,532.59h4.8V546h-4.8v-1.47a5,5,0,0,1-4.17,1.92,6.4,6.4,0,0,1-4.82-2.13,6.76,6.76,0,0,1-1.92-4.92A7.42,7.42,0,0,1,298,534a6.9,6.9,0,0,1,4.83-1.89,5.26,5.26,0,0,1,4,1.74Zm-5,4.5a3.18,3.18,0,0,0-1,2.19,3.06,3.06,0,0,0,.94,2.19,3.34,3.34,0,0,0,2.15.9,3.06,3.06,0,0,0,2.16-.93,2.91,2.91,0,0,0,.91-2.16,3,3,0,0,0-.93-2.19,3.05,3.05,0,0,0-4.27,0Z"/><path d="M320.23,536.52V546h-4.79v-9.48H313.9v-3.93h1.54v-4.41h4.79v4.41H323v3.93Z"/><path d="M327.16,524.31a2.7,2.7,0,1,1-2.7,2.7A2.69,2.69,0,0,1,327.16,524.31Zm2.4,8.28V546h-4.79V532.59Z"/><path d="M332.84,532.59h4.8v1.68a5,5,0,0,1,4.26-2,5.41,5.41,0,0,1,4,1.44,4.62,4.62,0,0,1,1.26,3.75V546h-4.8v-6.78a3.85,3.85,0,0,0-.6-2.61,2,2,0,0,0-1.52-.57,2.67,2.67,0,0,0-1.78.63,3.13,3.13,0,0,0-.77,2.13V546h-4.8Z"/><path d="M365.47,532.59v12.57c0,2-.18,3.84-1.83,5.55a8,8,0,0,1-5.91,2.16,8.22,8.22,0,0,1-6.27-2.37,4.93,4.93,0,0,1-1.47-2.79h5.34a2.06,2.06,0,0,0,2.25,1.38,2.92,2.92,0,0,0,2.13-.75,3.23,3.23,0,0,0,1-2.49V544.5a5.1,5.1,0,0,1-4,1.77,6.68,6.68,0,0,1-4.95-1.89,7.07,7.07,0,0,1-1.85-4.89,7.72,7.72,0,0,1,2-5.25,6.74,6.74,0,0,1,4.86-2,5.24,5.24,0,0,1,4,1.77v-1.38Zm-9.78,4.5a3,3,0,0,0,0,4.35,3,3,0,0,0,2.16.87,3.07,3.07,0,0,0,3.06-3.06,3.44,3.44,0,0,0-1-2.19,3,3,0,0,0-2.13-.87A2.86,2.86,0,0,0,355.69,537.09Z"/><path d="M377.53,540a7,7,0,0,0,4.59,2,2.63,2.63,0,0,0,2-.69,1.79,1.79,0,0,0,.51-1.26,1.56,1.56,0,0,0-.57-1.2,7.21,7.21,0,0,0-2.58-1l-1.35-.42a6.54,6.54,0,0,1-2.88-1.62,5,5,0,0,1-1.14-3.54,6.54,6.54,0,0,1,1.83-4.83,7.05,7.05,0,0,1,5.13-1.89,14.06,14.06,0,0,1,6.18,1.62l-2.07,4.05a5.28,5.28,0,0,0-3.42-1.35,2.49,2.49,0,0,0-1.71.6,1.48,1.48,0,0,0-.51,1.08,1.34,1.34,0,0,0,.27.9,3.28,3.28,0,0,0,1.74.9l1.59.48a7.64,7.64,0,0,1,3.63,2,4.72,4.72,0,0,1,1.29,3.57,6.78,6.78,0,0,1-1.89,5,7.76,7.76,0,0,1-5.91,2,10.7,10.7,0,0,1-3.93-.66,14,14,0,0,1-3-1.59Z"/><path d="M397.72,544.17l-6.48-11.58h5.58l3.57,6.87,3.48-6.87h5.49l-10.77,20.28h-5.37Z"/><path d="M410.77,541.56a6.87,6.87,0,0,0,1.92,1,6.25,6.25,0,0,0,1.86.33,2,2,0,0,0,1.23-.36.77.77,0,0,0,.24-.63.71.71,0,0,0-.24-.6,3,3,0,0,0-1.26-.48l-1.26-.3a4.31,4.31,0,0,1-2.34-1.17,3.24,3.24,0,0,1-.87-2.31,4.79,4.79,0,0,1,1.26-3.27,6.77,6.77,0,0,1,4.8-1.62,11.07,11.07,0,0,1,4.29.87l-1.62,3.06a6.64,6.64,0,0,0-2.52-.66,2,2,0,0,0-1.11.27.72.72,0,0,0-.42.66.78.78,0,0,0,.57.75c.45.18.84.18,1.59.39l.87.24a5.67,5.67,0,0,1,2,1,3.79,3.79,0,0,1,1,2.67,4.48,4.48,0,0,1-1.35,3.33,7,7,0,0,1-5,1.68,9.89,9.89,0,0,1-5.4-1.56Z"/><path d="M428.53,536.52V546h-4.8v-9.48H422.2v-3.93h1.53v-4.41h4.8v4.41h2.73v3.93Z"/><path d="M447.28,540.18h-10a3.39,3.39,0,0,0,.84,2.25,2.7,2.7,0,0,0,2,.66,3.79,3.79,0,0,0,1.56-.36,2.23,2.23,0,0,0,.84-.9h4.59a6,6,0,0,1-1.62,2.76c-1,1-2.55,1.86-5.46,1.86a7.61,7.61,0,0,1-5.55-2,7,7,0,0,1-2-5.07,7.16,7.16,0,0,1,2-5.19A7.55,7.55,0,0,1,440,532.2a7.35,7.35,0,0,1,5.16,1.83,7.51,7.51,0,0,1,2.13,5.64Zm-4.41-2.76a3.22,3.22,0,0,0-.78-1.44,2.8,2.8,0,0,0-2-.72,2.58,2.58,0,0,0-1.95.72,2.74,2.74,0,0,0-.72,1.44Z"/><path d="M450,532.59h4.8v1.62a5.15,5.15,0,0,1,4-1.86,5.46,5.46,0,0,1,2.58.6,4.19,4.19,0,0,1,1.86,1.92,4.71,4.71,0,0,1,1.83-1.86,5.44,5.44,0,0,1,2.79-.66,5.33,5.33,0,0,1,3.72,1.23,4.93,4.93,0,0,1,1.26,3.69V546h-4.8v-6.63c0-1.41-.15-2.37-.69-2.88a1.75,1.75,0,0,0-1.26-.45,1.94,1.94,0,0,0-1.41.54,3.43,3.43,0,0,0-.87,2.55V546h-4.8v-6.63a4.29,4.29,0,0,0-.63-2.88A1.86,1.86,0,0,0,457,536a1.69,1.69,0,0,0-1.32.48,4,4,0,0,0-.84,2.94V546H450Z"/><rect x="50.5" y="611.59" width="526" height="167" rx="12" ry="12" style="fill:none;stroke:#3a5c84;stroke-miterlimit:10;stroke-width:7px"/><path d="M224.73,632v20h-5.19V632Z"/><path d="M228.48,638.56h4.8v1.67a5,5,0,0,1,4.26-2,5.41,5.41,0,0,1,4,1.43,4.63,4.63,0,0,1,1.26,3.75V652H238v-6.77a3.86,3.86,0,0,0-.6-2.62,2,2,0,0,0-1.53-.57,2.63,2.63,0,0,0-1.77.63,3.08,3.08,0,0,0-.78,2.13V652h-4.8Z"/><path d="M251.19,642.48V652h-4.8v-9.48h-1.68v-3.92h1.68v-2.25a6.88,6.88,0,0,1,1.23-4.41,5.58,5.58,0,0,1,4.65-2.13,5.91,5.91,0,0,1,2.31.45v4.13a3.12,3.12,0,0,0-1.5-.45,1.73,1.73,0,0,0-1.35.52,3.52,3.52,0,0,0-.54,2.24v1.9h3.36v3.92Z"/><path d="M256.38,638.56h4.8v2.18a4.3,4.3,0,0,1,1.89-1.85,5.12,5.12,0,0,1,2.49-.54l1,0v4.54a4.08,4.08,0,0,0-2.07-.49,3.14,3.14,0,0,0-2.19.72,4,4,0,0,0-1.08,3.06V652h-4.8Z"/><path d="M279,638.56h4.8V652H279v-1.47a5,5,0,0,1-4.17,1.92,6.42,6.42,0,0,1-4.83-2.13,6.76,6.76,0,0,1-1.92-4.92,7.42,7.42,0,0,1,2.07-5.37A6.9,6.9,0,0,1,275,638.1a5.31,5.31,0,0,1,4,1.75Zm-5,4.5a3,3,0,0,0,0,4.37,3.37,3.37,0,0,0,2.16.9,3.08,3.08,0,0,0,2.16-.93,3,3,0,0,0,0-4.34,3,3,0,0,0-2.16-.87A3.07,3.07,0,0,0,274,643.06Z"/><path d="M288,647.52a6.87,6.87,0,0,0,1.92,1,6.25,6.25,0,0,0,1.86.33,2,2,0,0,0,1.23-.36.77.77,0,0,0,.24-.63.72.72,0,0,0-.24-.6,3.13,3.13,0,0,0-1.26-.48l-1.26-.3a4.31,4.31,0,0,1-2.34-1.17,3.23,3.23,0,0,1-.87-2.31,4.75,4.75,0,0,1,1.26-3.26,6.77,6.77,0,0,1,4.8-1.63,11,11,0,0,1,4.29.88L296,642a6.64,6.64,0,0,0-2.52-.66,1.94,1.94,0,0,0-1.11.28.7.7,0,0,0-.42.66.78.78,0,0,0,.57.75c.45.17.84.17,1.59.38l.87.25a5.49,5.49,0,0,1,2,1,3.79,3.79,0,0,1,1,2.67,4.48,4.48,0,0,1-1.35,3.33,7,7,0,0,1-4.95,1.68,9.89,9.89,0,0,1-5.4-1.56Z"/><path d="M305.76,642.48V652H301v-9.48h-1.53v-3.92H301v-4.41h4.8v4.41h2.73v3.92Z"/><path d="M310.29,638.56h4.8v2.18a4.3,4.3,0,0,1,1.89-1.85,5.12,5.12,0,0,1,2.49-.54l1,0v4.54a4.08,4.08,0,0,0-2.07-.49,3.14,3.14,0,0,0-2.19.72,4,4,0,0,0-1.08,3.06V652h-4.8Z"/><path d="M327.36,638.56v7.49a2.57,2.57,0,0,0,.72,2,2.48,2.48,0,0,0,1.68.51,2.24,2.24,0,0,0,1.71-.57,2.49,2.49,0,0,0,.69-1.89v-7.49H337v8.36a4.6,4.6,0,0,1-1.29,3.6c-1.65,1.71-4,1.89-5.79,1.89-2,0-4.47-.21-6.06-1.92a4.82,4.82,0,0,1-1.26-3.57v-8.36Z"/><path d="M350.4,651.66a7.12,7.12,0,0,1-3.33.75,7.41,7.41,0,0,1-5.28-2,7,7,0,0,1-2.07-5,7.26,7.26,0,0,1,2.16-5.18,7.73,7.73,0,0,1,5.4-2,6.75,6.75,0,0,1,3.12.75v4a4.28,4.28,0,0,0-2.49-.87,3.15,3.15,0,0,0-2.34.93,3.26,3.26,0,0,0-.93,2.31,3.42,3.42,0,0,0,.84,2.25,3.26,3.26,0,0,0,2.46,1,3.66,3.66,0,0,0,2.46-.89Z"/><path d="M358.74,642.48V652h-4.8v-9.48h-1.53v-3.92h1.53v-4.41h4.8v4.41h2.73v3.92Z"/><path d="M368.07,638.56v7.49a2.57,2.57,0,0,0,.72,2,2.48,2.48,0,0,0,1.68.51,2.24,2.24,0,0,0,1.71-.57,2.49,2.49,0,0,0,.69-1.89v-7.49h4.8v8.36a4.6,4.6,0,0,1-1.29,3.6c-1.65,1.71-4,1.89-5.79,1.89-2,0-4.47-.21-6.06-1.92a4.82,4.82,0,0,1-1.26-3.57v-8.36Z"/><path d="M381,638.56h4.8v2.18a4.3,4.3,0,0,1,1.89-1.85,5.12,5.12,0,0,1,2.49-.54l1,0v4.54a4.08,4.08,0,0,0-2.07-.49,3.14,3.14,0,0,0-2.19.72,4,4,0,0,0-1.08,3.06V652H381Z"/><path d="M407.46,646.15h-10a3.38,3.38,0,0,0,.84,2.24,2.7,2.7,0,0,0,2,.66,3.79,3.79,0,0,0,1.56-.36,2.23,2.23,0,0,0,.84-.9h4.59a6,6,0,0,1-1.62,2.76c-1,1-2.55,1.86-5.46,1.86a7.61,7.61,0,0,1-5.55-2,7,7,0,0,1-2-5.07,7.17,7.17,0,0,1,2-5.19,7.55,7.55,0,0,1,5.49-2,7.35,7.35,0,0,1,5.16,1.83,7.51,7.51,0,0,1,2.13,5.64Zm-4.41-2.77a3.27,3.27,0,0,0-.78-1.44,2.78,2.78,0,0,0-2-.71,2.61,2.61,0,0,0-2,.71,2.78,2.78,0,0,0-.72,1.44Z"/><rect x="707.71" y="212.59" width="154.29" height="60.5" rx="12" ry="12" style="fill:none;stroke:#91c54f;stroke-miterlimit:10;stroke-width:7px"/><rect x="893.71" y="212.59" width="154.29" height="60.5" rx="12" ry="12" style="fill:none;stroke:#f7931f;stroke-miterlimit:10;stroke-width:7px"/><rect x="1079.71" y="212.59" width="154.29" height="60.5" rx="12" ry="12" style="fill:none;stroke:#c13018;stroke-miterlimit:10;stroke-width:7px"/><path d="M760.33,246.05h-7.26l-1.35,3.36h-5.49l7.68-20h5.67l7.53,20h-5.55Zm-1.38-4-2.25-6.48-2.19,6.48Z"/><path d="M773.77,256.28H769V236h4.8v1.47a5,5,0,0,1,4.11-1.92,6.67,6.67,0,0,1,4.77,1.95,7.61,7.61,0,0,1-.12,10.5,6.44,6.44,0,0,1-4.59,1.86,5.71,5.71,0,0,1-4.17-1.74Zm.78-15.75a3.27,3.27,0,0,0-.93,2.22,3.24,3.24,0,0,0,.93,2.13,3.07,3.07,0,0,0,2.16.9,2.9,2.9,0,0,0,2.13-.9,3.17,3.17,0,0,0,.93-2.13,3.27,3.27,0,0,0-.93-2.22,2.9,2.9,0,0,0-2.13-.9A3.07,3.07,0,0,0,774.55,240.53Z"/><path d="M792.25,256.28h-4.8V236h4.8v1.47a5,5,0,0,1,4.11-1.92,6.67,6.67,0,0,1,4.77,1.95A7.61,7.61,0,0,1,801,248a6.44,6.44,0,0,1-4.59,1.86,5.71,5.71,0,0,1-4.17-1.74Zm.78-15.75a3.27,3.27,0,0,0-.93,2.22,3.24,3.24,0,0,0,.93,2.13,3.07,3.07,0,0,0,2.16.9,2.9,2.9,0,0,0,2.13-.9,3.17,3.17,0,0,0,.93-2.13,3.27,3.27,0,0,0-.93-2.22,2.9,2.9,0,0,0-2.13-.9A3.07,3.07,0,0,0,793,240.53Z"/><path d="M818.29,233.81h-2.85V229.4h8v20h-5.19Z"/><path d="M944,246.27h-7.26l-1.35,3.36h-5.49l7.68-20h5.67l7.53,20h-5.55Zm-1.38-4-2.25-6.48-2.19,6.48Z"/><path d="M957.46,256.5h-4.8V236.23h4.8v1.46a5,5,0,0,1,4.11-1.92,6.67,6.67,0,0,1,4.77,2,7.6,7.6,0,0,1-.12,10.49,6.44,6.44,0,0,1-4.59,1.86,5.71,5.71,0,0,1-4.17-1.74Zm.78-15.75a3.27,3.27,0,0,0-.93,2.22,3.24,3.24,0,0,0,.93,2.13,3.07,3.07,0,0,0,2.16.9,2.9,2.9,0,0,0,2.13-.9,3.17,3.17,0,0,0,.93-2.13,3.27,3.27,0,0,0-.93-2.22,2.94,2.94,0,0,0-2.13-.9A3.11,3.11,0,0,0,958.24,240.75Z"/><path d="M975.94,256.5h-4.8V236.23h4.8v1.46a5,5,0,0,1,4.11-1.92,6.67,6.67,0,0,1,4.77,2,7.6,7.6,0,0,1-.12,10.49,6.44,6.44,0,0,1-4.59,1.86,5.71,5.71,0,0,1-4.17-1.74Zm.78-15.75a3.27,3.27,0,0,0-.93,2.22,3.24,3.24,0,0,0,.93,2.13,3.07,3.07,0,0,0,2.16.9,2.9,2.9,0,0,0,2.13-.9,3.17,3.17,0,0,0,.93-2.13,3.27,3.27,0,0,0-.93-2.22,2.94,2.94,0,0,0-2.13-.9A3.11,3.11,0,0,0,976.72,240.75Z"/><path d="M1011.79,249.63h-16l5.07-5.31a33.14,33.14,0,0,0,4.11-5.07,5.63,5.63,0,0,0,1.08-3.11,3,3,0,0,0-.6-1.92,2,2,0,0,0-1.47-.61,2.15,2.15,0,0,0-1.74.82,4.93,4.93,0,0,0-.72,2.46H996.1a7.94,7.94,0,0,1,2.22-5.55,7.6,7.6,0,0,1,5.67-2.16,7.7,7.7,0,0,1,5.64,2.06,6.7,6.7,0,0,1,2,4.92c0,2.53-1.17,4.26-3,5.94l-3.36,3.12h6.54Z"/><path d="M1130,246.27h-7.26l-1.35,3.36h-5.49l7.68-20h5.67l7.52,20h-5.55Zm-1.38-4-2.25-6.48-2.2,6.48Z"/><path d="M1143.48,256.5h-4.8V236.23h4.8v1.46a5,5,0,0,1,4.11-1.92,6.65,6.65,0,0,1,4.76,2,7.6,7.6,0,0,1-.12,10.49,6.43,6.43,0,0,1-4.59,1.86,5.69,5.69,0,0,1-4.16-1.74Zm.78-15.75a3.27,3.27,0,0,0-.93,2.22,3.24,3.24,0,0,0,.93,2.13,3.07,3.07,0,0,0,2.16.9,2.9,2.9,0,0,0,2.13-.9,3.21,3.21,0,0,0,.92-2.13,3.31,3.31,0,0,0-.92-2.22,2.94,2.94,0,0,0-2.13-.9A3.11,3.11,0,0,0,1144.26,240.75Z"/><path d="M1162,256.5h-4.8V236.23h4.8v1.46a5,5,0,0,1,4.1-1.92,6.67,6.67,0,0,1,4.77,2,7.6,7.6,0,0,1-.12,10.49,6.44,6.44,0,0,1-4.59,1.86,5.69,5.69,0,0,1-4.16-1.74Zm.77-15.75a3.27,3.27,0,0,0-.93,2.22,3.24,3.24,0,0,0,.93,2.13,3.08,3.08,0,0,0,2.16.9,2.9,2.9,0,0,0,2.13-.9A3.17,3.17,0,0,0,1168,243a3.27,3.27,0,0,0-.93-2.22,2.94,2.94,0,0,0-2.13-.9A3.13,3.13,0,0,0,1162.73,240.75Z"/><path d="M1187.12,242.79a3.12,3.12,0,0,0,.81,2,2.76,2.76,0,0,0,2,.78,2.66,2.66,0,0,0,2-.87,2.35,2.35,0,0,0,.6-1.65,2.29,2.29,0,0,0-.78-1.77,3.13,3.13,0,0,0-1.92-.56,2.66,2.66,0,0,0-.87.11v-3.51a2.51,2.51,0,0,0,2.13-.51,1.88,1.88,0,0,0,.66-1.41,1.86,1.86,0,0,0-2-2,2.08,2.08,0,0,0-1.44.5,2.53,2.53,0,0,0-.69,1.78h-4.83a7.06,7.06,0,0,1,2-4.59,8,8,0,0,1,10.26-.19,5.46,5.46,0,0,1,1.62,3.87,4.79,4.79,0,0,1-.6,2.46,3.45,3.45,0,0,1-1.53,1.54,4.83,4.83,0,0,1,2.37,1.82,5.08,5.08,0,0,1,.84,2.94A6,6,0,0,1,1196,248a8.2,8.2,0,0,1-6,2.13,8.09,8.09,0,0,1-5.73-2.07,8,8,0,0,1-2.49-5.22Z"/><rect x="707.71" y="290.59" width="154.29" height="60.5" rx="12" ry="12" style="fill:none;stroke:#91c54f;stroke-miterlimit:10;stroke-width:7px"/><rect x="893.71" y="290.59" width="154.29" height="60.5" rx="12" ry="12" style="fill:none;stroke:#f7931f;stroke-miterlimit:10;stroke-width:7px"/><rect x="1079.71" y="290.59" width="154.29" height="60.5" rx="12" ry="12" style="fill:none;stroke:#c13018;stroke-miterlimit:10;stroke-width:7px"/><path d="M721,329V309h7.74a5.61,5.61,0,0,1,4.38,1.56,5.39,5.39,0,0,1,1.23,3.75,5.19,5.19,0,0,1-.57,2.46,3.17,3.17,0,0,1-1.62,1.55,4.43,4.43,0,0,1,4.08,4.87,5.42,5.42,0,0,1-1.47,3.92,7.52,7.52,0,0,1-5.43,1.89Zm5.2-12.11h1a2.76,2.76,0,0,0,2-.63,2,2,0,0,0,.49-1.32,2,2,0,0,0-.49-1.35,2.74,2.74,0,0,0-2-.6h-1Zm0,8.06h1.17c1.43,0,2.63-.15,3.21-.8a2,2,0,0,0,.41-1.29,2,2,0,0,0-.51-1.45c-.63-.63-1.92-.66-3.2-.66h-1.08Z"/><path d="M741.44,307.27a2.7,2.7,0,1,1-2.7,2.7A2.7,2.7,0,0,1,741.44,307.27Zm2.41,8.28V329h-4.8v-13.4Z"/><path d="M747.12,315.55h4.8v1.68a5,5,0,0,1,4.26-2,5.34,5.34,0,0,1,4,1.44,4.58,4.58,0,0,1,1.27,3.75V329h-4.8v-6.77a3.9,3.9,0,0,0-.61-2.62,2,2,0,0,0-1.52-.57,2.73,2.73,0,0,0-1.78.63,3.13,3.13,0,0,0-.77,2.13V329h-4.8Z"/><path d="M765.53,324.52a7.12,7.12,0,0,0,1.92,1,6.36,6.36,0,0,0,1.87.33,2.06,2.06,0,0,0,1.22-.35.78.78,0,0,0,.24-.63.73.73,0,0,0-.24-.61,3.07,3.07,0,0,0-1.26-.47l-1.25-.31a4.25,4.25,0,0,1-2.34-1.17,3.23,3.23,0,0,1-.87-2.31,4.74,4.74,0,0,1,1.25-3.26,6.81,6.81,0,0,1,4.8-1.62,11,11,0,0,1,4.29.87l-1.62,3a6.78,6.78,0,0,0-2.51-.66,2,2,0,0,0-1.12.28.71.71,0,0,0-.42.66.79.79,0,0,0,.58.75c.45.18.83.18,1.58.39l.88.24a5.39,5.39,0,0,1,2,1.05,3.77,3.77,0,0,1,1,2.67,4.5,4.5,0,0,1-1.36,3.33,7,7,0,0,1-4.94,1.67,9.94,9.94,0,0,1-5.41-1.56Z"/><path d="M790.76,307.09h3.93l-15.36,27.5h-3.9Z"/><path d="M803.78,309v15.59H810V329H798.59V309Z"/><path d="M814.64,307.27a2.7,2.7,0,1,1-2.7,2.7A2.69,2.69,0,0,1,814.64,307.27Zm2.4,8.28V329h-4.8v-13.4Z"/><path d="M825.11,307.09v9.75a5.27,5.27,0,0,1,4-1.74,6.86,6.86,0,0,1,4.74,1.8,7.28,7.28,0,0,1,2.19,5.3,7.38,7.38,0,0,1-2.16,5.34,6.42,6.42,0,0,1-4.71,1.86,4.92,4.92,0,0,1-4-1.92V329h-4.79V307.09Zm5.07,17.33a3,3,0,0,0,.93-2.1,3.27,3.27,0,0,0-.93-2.27,2.9,2.9,0,0,0-2.13-.87,3,3,0,0,0-2.19.89,3.51,3.51,0,0,0-.9,2.16,3.26,3.26,0,0,0,1,2.29,3.33,3.33,0,0,0,2.07.8A3,3,0,0,0,830.18,324.42Z"/><path d="M838.76,324.52a6.84,6.84,0,0,0,1.92,1,6.25,6.25,0,0,0,1.86.33,2.1,2.1,0,0,0,1.23-.35.78.78,0,0,0,.24-.63.73.73,0,0,0-.24-.61,3.13,3.13,0,0,0-1.26-.47l-1.26-.31a4.31,4.31,0,0,1-2.34-1.17A3.23,3.23,0,0,1,838,320a4.75,4.75,0,0,1,1.26-3.26,6.77,6.77,0,0,1,4.8-1.62,11.07,11.07,0,0,1,4.29.87l-1.62,3a6.83,6.83,0,0,0-2.52-.66,1.94,1.94,0,0,0-1.11.28.7.7,0,0,0-.42.66.78.78,0,0,0,.57.75c.45.18.84.18,1.59.39l.87.24a5.36,5.36,0,0,1,2,1.05,3.76,3.76,0,0,1,1,2.67,4.5,4.5,0,0,1-1.35,3.33,7,7,0,0,1-4.95,1.67,9.89,9.89,0,0,1-5.4-1.56Z"/><path d="M907,329V309h7.74a5.61,5.61,0,0,1,4.38,1.56,5.39,5.39,0,0,1,1.23,3.75,5.19,5.19,0,0,1-.57,2.46,3.17,3.17,0,0,1-1.62,1.55,4.43,4.43,0,0,1,4.08,4.87,5.42,5.42,0,0,1-1.47,3.92,7.52,7.52,0,0,1-5.43,1.89Zm5.2-12.11h1a2.76,2.76,0,0,0,2-.63,2,2,0,0,0,.49-1.32,2,2,0,0,0-.49-1.35,2.74,2.74,0,0,0-2-.6h-1Zm0,8.06h1.17c1.43,0,2.63-.15,3.21-.8a2,2,0,0,0,.41-1.29,2,2,0,0,0-.51-1.45c-.63-.63-1.92-.66-3.2-.66h-1.08Z"/><path d="M927.44,307.27a2.7,2.7,0,1,1-2.7,2.7A2.7,2.7,0,0,1,927.44,307.27Zm2.41,8.28V329h-4.8v-13.4Z"/><path d="M933.12,315.55h4.8v1.68a5,5,0,0,1,4.26-2,5.34,5.34,0,0,1,4,1.44,4.58,4.58,0,0,1,1.27,3.75V329h-4.8v-6.77a3.9,3.9,0,0,0-.61-2.62,2,2,0,0,0-1.52-.57,2.73,2.73,0,0,0-1.78.63,3.13,3.13,0,0,0-.77,2.13V329h-4.8Z"/><path d="M951.53,324.52a7.12,7.12,0,0,0,1.92,1,6.36,6.36,0,0,0,1.87.33,2.06,2.06,0,0,0,1.22-.35.78.78,0,0,0,.24-.63.73.73,0,0,0-.24-.61,3.07,3.07,0,0,0-1.26-.47l-1.25-.31a4.25,4.25,0,0,1-2.34-1.17,3.23,3.23,0,0,1-.87-2.31,4.74,4.74,0,0,1,1.25-3.26,6.81,6.81,0,0,1,4.8-1.62,11,11,0,0,1,4.29.87l-1.62,3a6.78,6.78,0,0,0-2.51-.66,2,2,0,0,0-1.12.28.71.71,0,0,0-.42.66.79.79,0,0,0,.58.75c.45.18.83.18,1.58.39l.88.24a5.39,5.39,0,0,1,2,1.05,3.77,3.77,0,0,1,1,2.67,4.5,4.5,0,0,1-1.36,3.33,7,7,0,0,1-4.94,1.67,9.94,9.94,0,0,1-5.41-1.56Z"/><path d="M976.76,307.09h3.93l-15.36,27.5h-3.9Z"/><path d="M989.78,309v15.59H996V329H984.59V309Z"/><path d="M1000.64,307.27a2.7,2.7,0,1,1-2.7,2.7A2.69,2.69,0,0,1,1000.64,307.27Zm2.4,8.28V329h-4.8v-13.4Z"/><path d="M1011.11,307.09v9.75a5.27,5.27,0,0,1,4-1.74,6.86,6.86,0,0,1,4.74,1.8,7.28,7.28,0,0,1,2.19,5.3,7.38,7.38,0,0,1-2.16,5.34,6.42,6.42,0,0,1-4.71,1.86,4.92,4.92,0,0,1-4-1.92V329h-4.79V307.09Zm5.07,17.33a3,3,0,0,0,.93-2.1,3.27,3.27,0,0,0-.93-2.27,2.9,2.9,0,0,0-2.13-.87,3,3,0,0,0-2.19.89,3.51,3.51,0,0,0-.9,2.16,3.26,3.26,0,0,0,1,2.29,3.33,3.33,0,0,0,2.07.8A3,3,0,0,0,1016.18,324.42Z"/><path d="M1024.76,324.52a6.84,6.84,0,0,0,1.92,1,6.25,6.25,0,0,0,1.86.33,2.1,2.1,0,0,0,1.23-.35.78.78,0,0,0,.24-.63.73.73,0,0,0-.24-.61,3.13,3.13,0,0,0-1.26-.47l-1.26-.31a4.31,4.31,0,0,1-2.34-1.17A3.23,3.23,0,0,1,1024,320a4.75,4.75,0,0,1,1.26-3.26,6.77,6.77,0,0,1,4.8-1.62,11.07,11.07,0,0,1,4.29.87l-1.62,3a6.83,6.83,0,0,0-2.52-.66,1.94,1.94,0,0,0-1.11.28.7.7,0,0,0-.42.66.78.78,0,0,0,.57.75c.45.18.84.18,1.59.39l.87.24a5.36,5.36,0,0,1,2,1.05,3.76,3.76,0,0,1,1,2.67,4.5,4.5,0,0,1-1.35,3.33,7,7,0,0,1-5,1.67,9.89,9.89,0,0,1-5.4-1.56Z"/><path d="M1093,329V309h7.74a5.61,5.61,0,0,1,4.38,1.56,5.39,5.39,0,0,1,1.23,3.75,5.19,5.19,0,0,1-.57,2.46,3.17,3.17,0,0,1-1.62,1.55,4.43,4.43,0,0,1,4.08,4.87,5.42,5.42,0,0,1-1.47,3.92,7.52,7.52,0,0,1-5.43,1.89Zm5.2-12.11h1a2.76,2.76,0,0,0,2-.63,2,2,0,0,0,.49-1.32,2,2,0,0,0-.49-1.35,2.74,2.74,0,0,0-2-.6h-1Zm0,8.06h1.17c1.43,0,2.63-.15,3.21-.8a2,2,0,0,0,.41-1.29,2,2,0,0,0-.51-1.45c-.63-.63-1.92-.66-3.2-.66h-1.08Z"/><path d="M1113.44,307.27a2.7,2.7,0,1,1-2.7,2.7A2.7,2.7,0,0,1,1113.44,307.27Zm2.41,8.28V329h-4.8v-13.4Z"/><path d="M1119.12,315.55h4.8v1.68a5,5,0,0,1,4.26-2,5.34,5.34,0,0,1,4,1.44,4.58,4.58,0,0,1,1.27,3.75V329h-4.8v-6.77a3.9,3.9,0,0,0-.61-2.62,2,2,0,0,0-1.52-.57,2.73,2.73,0,0,0-1.78.63,3.13,3.13,0,0,0-.77,2.13V329h-4.8Z"/><path d="M1137.53,324.52a7.12,7.12,0,0,0,1.92,1,6.36,6.36,0,0,0,1.87.33,2.06,2.06,0,0,0,1.22-.35.78.78,0,0,0,.24-.63.73.73,0,0,0-.24-.61,3.07,3.07,0,0,0-1.26-.47l-1.25-.31a4.25,4.25,0,0,1-2.34-1.17,3.23,3.23,0,0,1-.87-2.31,4.74,4.74,0,0,1,1.25-3.26,6.81,6.81,0,0,1,4.8-1.62,11,11,0,0,1,4.29.87l-1.62,3a6.78,6.78,0,0,0-2.51-.66,2,2,0,0,0-1.12.28.71.71,0,0,0-.42.66.79.79,0,0,0,.58.75c.45.18.83.18,1.58.39l.88.24a5.39,5.39,0,0,1,2,1.05,3.77,3.77,0,0,1,1,2.67,4.5,4.5,0,0,1-1.36,3.33,7,7,0,0,1-4.94,1.67,9.94,9.94,0,0,1-5.41-1.56Z"/><path d="M1162.76,307.09h3.93l-15.36,27.5h-3.9Z"/><path d="M1175.78,309v15.59H1182V329h-11.43V309Z"/><path d="M1186.64,307.27a2.7,2.7,0,1,1-2.7,2.7A2.69,2.69,0,0,1,1186.64,307.27Zm2.4,8.28V329h-4.8v-13.4Z"/><path d="M1197.11,307.09v9.75a5.27,5.27,0,0,1,4-1.74,6.86,6.86,0,0,1,4.74,1.8,7.28,7.28,0,0,1,2.19,5.3,7.38,7.38,0,0,1-2.16,5.34,6.42,6.42,0,0,1-4.71,1.86,4.92,4.92,0,0,1-4.05-1.92V329h-4.79V307.09Zm5.07,17.33a3,3,0,0,0,.93-2.1,3.27,3.27,0,0,0-.93-2.27,2.9,2.9,0,0,0-2.13-.87,3,3,0,0,0-2.19.89,3.51,3.51,0,0,0-.9,2.16,3.26,3.26,0,0,0,1,2.29,3.33,3.33,0,0,0,2.07.8A3,3,0,0,0,1202.18,324.42Z"/><path d="M1210.76,324.52a6.84,6.84,0,0,0,1.92,1,6.25,6.25,0,0,0,1.86.33,2.1,2.1,0,0,0,1.23-.35.78.78,0,0,0,.24-.63.73.73,0,0,0-.24-.61,3.13,3.13,0,0,0-1.26-.47l-1.26-.31a4.31,4.31,0,0,1-2.34-1.17A3.23,3.23,0,0,1,1210,320a4.75,4.75,0,0,1,1.26-3.26,6.77,6.77,0,0,1,4.8-1.62,11.07,11.07,0,0,1,4.29.87l-1.62,3a6.83,6.83,0,0,0-2.52-.66,1.94,1.94,0,0,0-1.11.28.7.7,0,0,0-.42.66.78.78,0,0,0,.57.75c.45.18.84.18,1.59.39l.87.24a5.36,5.36,0,0,1,2,1.05,3.76,3.76,0,0,1,1,2.67,4.5,4.5,0,0,1-1.35,3.33,7,7,0,0,1-5,1.67,9.89,9.89,0,0,1-5.4-1.56Z"/><rect x="707.5" y="379.59" width="527" height="84" rx="12" ry="12" style="fill:none;stroke:#4fc2c9;stroke-miterlimit:10;stroke-width:7px"/><rect x="708.5" y="496.59" width="526" height="84" rx="12" ry="12" style="fill:none;stroke:#636868;stroke-miterlimit:10;stroke-width:7px"/><rect x="708.5" y="611.59" width="526" height="167" rx="12" ry="12" style="fill:none;stroke:#3a5c84;stroke-miterlimit:10;stroke-width:7px"/><path d="M882.73,634v20h-5.19V634Z"/><path d="M886.48,640.56h4.8v1.67a5,5,0,0,1,4.26-2,5.41,5.41,0,0,1,4,1.43,4.63,4.63,0,0,1,1.26,3.75V654H896v-6.77a3.86,3.86,0,0,0-.6-2.62,2,2,0,0,0-1.53-.57,2.63,2.63,0,0,0-1.77.63,3.08,3.08,0,0,0-.78,2.13V654h-4.8Z"/><path d="M909.19,644.48V654h-4.8v-9.48h-1.68v-3.92h1.68v-2.25a6.88,6.88,0,0,1,1.23-4.41,5.58,5.58,0,0,1,4.65-2.13,5.91,5.91,0,0,1,2.31.45v4.13a3.12,3.12,0,0,0-1.5-.45,1.73,1.73,0,0,0-1.35.52,3.52,3.52,0,0,0-.54,2.24v1.9h3.36v3.92Z"/><path d="M914.38,640.56h4.8v2.18a4.3,4.3,0,0,1,1.89-1.85,5.12,5.12,0,0,1,2.49-.54l1,0v4.54a4.08,4.08,0,0,0-2.07-.49,3.14,3.14,0,0,0-2.19.72,4,4,0,0,0-1.08,3.06V654h-4.8Z"/><path d="M937,640.56h4.8V654H937v-1.47a5,5,0,0,1-4.17,1.92,6.42,6.42,0,0,1-4.83-2.13,6.76,6.76,0,0,1-1.92-4.92,7.42,7.42,0,0,1,2.07-5.37A6.9,6.9,0,0,1,933,640.1a5.31,5.31,0,0,1,4,1.75Zm-5,4.5a3,3,0,0,0,0,4.37,3.37,3.37,0,0,0,2.16.9,3.08,3.08,0,0,0,2.16-.93,3,3,0,0,0,0-4.34,3,3,0,0,0-2.16-.87A3.07,3.07,0,0,0,932,645.06Z"/><path d="M946,649.52a6.87,6.87,0,0,0,1.92,1,6.25,6.25,0,0,0,1.86.33,2,2,0,0,0,1.23-.36.77.77,0,0,0,.24-.63.72.72,0,0,0-.24-.6,3.13,3.13,0,0,0-1.26-.48l-1.26-.3a4.31,4.31,0,0,1-2.34-1.17,3.23,3.23,0,0,1-.87-2.31,4.75,4.75,0,0,1,1.26-3.26,6.77,6.77,0,0,1,4.8-1.63,11,11,0,0,1,4.29.88L954,644a6.64,6.64,0,0,0-2.52-.66,1.94,1.94,0,0,0-1.11.28.7.7,0,0,0-.42.66.78.78,0,0,0,.57.75c.45.17.84.17,1.59.38l.87.25a5.49,5.49,0,0,1,2,1,3.79,3.79,0,0,1,1,2.67,4.48,4.48,0,0,1-1.35,3.33,7,7,0,0,1-4.95,1.68,9.89,9.89,0,0,1-5.4-1.56Z"/><path d="M963.76,644.48V654H959v-9.48h-1.53v-3.92H959v-4.41h4.8v4.41h2.73v3.92Z"/><path d="M968.29,640.56h4.8v2.18a4.3,4.3,0,0,1,1.89-1.85,5.12,5.12,0,0,1,2.49-.54l1,0v4.54a4.08,4.08,0,0,0-2.07-.49,3.14,3.14,0,0,0-2.19.72,4,4,0,0,0-1.08,3.06V654h-4.8Z"/><path d="M985.36,640.56v7.49a2.57,2.57,0,0,0,.72,2,2.48,2.48,0,0,0,1.68.51,2.24,2.24,0,0,0,1.71-.57,2.49,2.49,0,0,0,.69-1.89v-7.49H995v8.36a4.6,4.6,0,0,1-1.29,3.6c-1.65,1.71-4,1.89-5.79,1.89-2,0-4.47-.21-6.06-1.92a4.82,4.82,0,0,1-1.26-3.57v-8.36Z"/><path d="M1008.4,653.66a7.12,7.12,0,0,1-3.33.75,7.41,7.41,0,0,1-5.28-2,7,7,0,0,1-2.07-5,7.26,7.26,0,0,1,2.16-5.18,7.73,7.73,0,0,1,5.4-2,6.75,6.75,0,0,1,3.12.75v4a4.28,4.28,0,0,0-2.49-.87,3.15,3.15,0,0,0-2.34.93,3.26,3.26,0,0,0-.93,2.31,3.42,3.42,0,0,0,.84,2.25,3.26,3.26,0,0,0,2.46,1,3.66,3.66,0,0,0,2.46-.89Z"/><path d="M1016.74,644.48V654h-4.8v-9.48h-1.53v-3.92h1.53v-4.41h4.8v4.41h2.73v3.92Z"/><path d="M1026.07,640.56v7.49a2.57,2.57,0,0,0,.72,2,2.48,2.48,0,0,0,1.68.51,2.24,2.24,0,0,0,1.71-.57,2.49,2.49,0,0,0,.69-1.89v-7.49h4.8v8.36a4.6,4.6,0,0,1-1.29,3.6c-1.65,1.71-4,1.89-5.79,1.89-2,0-4.47-.21-6.06-1.92a4.82,4.82,0,0,1-1.26-3.57v-8.36Z"/><path d="M1039,640.56h4.8v2.18a4.3,4.3,0,0,1,1.89-1.85,5.12,5.12,0,0,1,2.49-.54l1,0v4.54a4.08,4.08,0,0,0-2.07-.49,3.14,3.14,0,0,0-2.19.72,4,4,0,0,0-1.08,3.06V654H1039Z"/><path d="M1065.46,648.15h-10a3.38,3.38,0,0,0,.84,2.24,2.7,2.7,0,0,0,2,.66,3.79,3.79,0,0,0,1.56-.36,2.23,2.23,0,0,0,.84-.9h4.59a6,6,0,0,1-1.62,2.76c-1,1-2.55,1.86-5.46,1.86a7.61,7.61,0,0,1-5.55-2,7,7,0,0,1-2-5.07,7.17,7.17,0,0,1,2-5.19,7.55,7.55,0,0,1,5.49-2,7.35,7.35,0,0,1,5.16,1.83,7.51,7.51,0,0,1,2.13,5.64Zm-4.41-2.77a3.27,3.27,0,0,0-.78-1.44,2.78,2.78,0,0,0-2-.71,2.61,2.61,0,0,0-2,.71,2.78,2.78,0,0,0-.72,1.44Z"/><path d="M873.14,429.09v-20H880a11.16,11.16,0,0,1,7.95,2.76,9.77,9.77,0,0,1,2.79,7.29,9.23,9.23,0,0,1-2.61,6.93,10.87,10.87,0,0,1-7.68,3Zm5.19-4.41h1a6,6,0,0,0,4.38-1.44,5.45,5.45,0,0,0,1.53-4.11,6,6,0,0,0-1.56-4.38,5.83,5.83,0,0,0-4.14-1.26h-1.26Z"/><path d="M907,427.32a9.18,9.18,0,0,1-12,0,6.92,6.92,0,0,1,0-9.87,8.37,8.37,0,0,1,6-2.22,8.47,8.47,0,0,1,6,2.22,6.92,6.92,0,0,1,0,9.87Zm-8.13-7.14a3.06,3.06,0,0,0,2.16,5.22,3.05,3.05,0,0,0,2.13-.9,3,3,0,0,0,.93-2.13,3.26,3.26,0,0,0-.93-2.19,3.08,3.08,0,0,0-4.29,0Z"/><path d="M922,428.79a7.12,7.12,0,0,1-3.33.75,7.41,7.41,0,0,1-5.28-2,7,7,0,0,1-2.07-5,7.3,7.3,0,0,1,2.16-5.19,7.73,7.73,0,0,1,5.4-2A6.88,6.88,0,0,1,922,416v4a4.28,4.28,0,0,0-2.49-.87,3.15,3.15,0,0,0-2.34.93,3.26,3.26,0,0,0-.93,2.31,3.44,3.44,0,0,0,.84,2.25,3.26,3.26,0,0,0,2.46,1,3.63,3.63,0,0,0,2.46-.9Z"/><path d="M929.54,407.22v13.29l4.53-4.83h6.51l-6.33,6.18,6.84,7.23h-6.66l-4.89-5.49v5.49h-4.8V407.22Z"/><path d="M956.39,423.27h-10a3.39,3.39,0,0,0,.84,2.25,2.7,2.7,0,0,0,2,.66,3.79,3.79,0,0,0,1.56-.36,2.23,2.23,0,0,0,.84-.9h4.59a6,6,0,0,1-1.62,2.76c-1,1-2.55,1.86-5.46,1.86a7.61,7.61,0,0,1-5.55-2,7,7,0,0,1-2-5.07,7.16,7.16,0,0,1,2-5.19,7.55,7.55,0,0,1,5.49-1.95,7.35,7.35,0,0,1,5.16,1.83,7.51,7.51,0,0,1,2.13,5.64ZM952,420.51a3.22,3.22,0,0,0-.78-1.44,2.8,2.8,0,0,0-2-.72,2.58,2.58,0,0,0-2,.72,2.74,2.74,0,0,0-.72,1.44Z"/><path d="M959.15,415.68H964v2.19a4.33,4.33,0,0,1,1.89-1.86,5.24,5.24,0,0,1,2.49-.54l1,.06v4.53a4.23,4.23,0,0,0-2.07-.48,3.14,3.14,0,0,0-2.19.72,4,4,0,0,0-1.08,3.06v5.73h-4.8Z"/><path d="M990.23,413.49h-6.18v3.33h5.85v4.41h-5.85v3.45h6.18v4.41H978.86v-20h11.37Z"/><path d="M993.08,415.68h4.8v1.68a5.06,5.06,0,0,1,4.26-2,5.42,5.42,0,0,1,4,1.44,4.62,4.62,0,0,1,1.26,3.75v8.52h-4.8v-6.78a3.85,3.85,0,0,0-.6-2.61,2,2,0,0,0-1.53-.57,2.63,2.63,0,0,0-1.77.63,3.08,3.08,0,0,0-.78,2.13v7.2h-4.8Z"/><path d="M1025.72,415.68v12.57c0,2-.18,3.84-1.83,5.55A8,8,0,0,1,1018,436a8.22,8.22,0,0,1-6.27-2.37,4.88,4.88,0,0,1-1.47-2.79h5.34a2.06,2.06,0,0,0,2.25,1.38,2.92,2.92,0,0,0,2.13-.75,3.23,3.23,0,0,0,1-2.49v-1.35a5.1,5.1,0,0,1-4,1.77,6.68,6.68,0,0,1-4.95-1.89,7.08,7.08,0,0,1-1.86-4.89,7.73,7.73,0,0,1,2-5.25,6.74,6.74,0,0,1,4.86-2,5.24,5.24,0,0,1,4,1.77v-1.38Zm-9.78,4.5a3,3,0,0,0,0,4.35,3,3,0,0,0,2.16.87,3.07,3.07,0,0,0,3.06-3.06,3.44,3.44,0,0,0-1-2.19,3,3,0,0,0-2.13-.87A2.86,2.86,0,0,0,1015.94,420.18Z"/><path d="M1031.42,407.4a2.7,2.7,0,1,1-2.7,2.7A2.69,2.69,0,0,1,1031.42,407.4Zm2.4,8.28v13.41H1029V415.68Z"/><path d="M1037.09,415.68h4.8v1.68a5.06,5.06,0,0,1,4.26-2,5.42,5.42,0,0,1,4,1.44,4.62,4.62,0,0,1,1.26,3.75v8.52h-4.8v-6.78a3.85,3.85,0,0,0-.6-2.61,2,2,0,0,0-1.53-.57,2.63,2.63,0,0,0-1.77.63,3.08,3.08,0,0,0-.78,2.13v7.2h-4.8Z"/><path d="M1068.86,423.27h-10a3.39,3.39,0,0,0,.84,2.25,2.7,2.7,0,0,0,2,.66,3.79,3.79,0,0,0,1.56-.36,2.23,2.23,0,0,0,.84-.9h4.59a6,6,0,0,1-1.62,2.76c-1,1-2.55,1.86-5.46,1.86a7.61,7.61,0,0,1-5.55-2,7,7,0,0,1-2-5.07,7.16,7.16,0,0,1,2-5.19,7.55,7.55,0,0,1,5.49-1.95,7.35,7.35,0,0,1,5.16,1.83,7.51,7.51,0,0,1,2.13,5.64Zm-4.41-2.76a3.22,3.22,0,0,0-.78-1.44,2.8,2.8,0,0,0-2-.72,2.58,2.58,0,0,0-2,.72,2.74,2.74,0,0,0-.72,1.44Z"/><path d="M865.87,543.48a12,12,0,0,1-15.78,0,10.47,10.47,0,0,1,0-15,12,12,0,0,1,15.78,0,10.47,10.47,0,0,1,0,15Zm-11.94-11.31a5.49,5.49,0,0,0-1.59,3.93,5.09,5.09,0,0,0,1.59,3.72,5.68,5.68,0,0,0,4.05,1.59,5.44,5.44,0,0,0,5.64-5.4,5.4,5.4,0,0,0-1.62-3.84,6,6,0,0,0-4-1.59A5.76,5.76,0,0,0,853.93,532.17Z"/><path d="M876.67,552.87h-4.8V532.59h4.8v1.47a5,5,0,0,1,4.11-1.92,6.67,6.67,0,0,1,4.77,2,7.61,7.61,0,0,1-.12,10.5,6.44,6.44,0,0,1-4.59,1.86,5.71,5.71,0,0,1-4.17-1.74Zm.78-15.75a3.27,3.27,0,0,0-.93,2.22,3.24,3.24,0,0,0,.93,2.13,3.07,3.07,0,0,0,2.16.9,2.9,2.9,0,0,0,2.13-.9,3.17,3.17,0,0,0,.93-2.13,3.27,3.27,0,0,0-.93-2.22,2.9,2.9,0,0,0-2.13-.9A3.07,3.07,0,0,0,877.45,537.12Z"/><path d="M904.57,540.18h-10a3.39,3.39,0,0,0,.84,2.25,2.7,2.7,0,0,0,2,.66,3.79,3.79,0,0,0,1.56-.36,2.23,2.23,0,0,0,.84-.9h4.59a6,6,0,0,1-1.62,2.76c-1,1-2.55,1.86-5.46,1.86a7.61,7.61,0,0,1-5.55-2,7,7,0,0,1-2-5.07,7.16,7.16,0,0,1,2-5.19,7.55,7.55,0,0,1,5.49-1.95,7.35,7.35,0,0,1,5.16,1.83,7.51,7.51,0,0,1,2.13,5.64Zm-4.41-2.76a3.22,3.22,0,0,0-.78-1.44,2.8,2.8,0,0,0-2-.72,2.58,2.58,0,0,0-1.95.72,2.74,2.74,0,0,0-.72,1.44Z"/><path d="M907.33,532.59h4.8v2.19a4.33,4.33,0,0,1,1.89-1.86,5.24,5.24,0,0,1,2.49-.54l1,.06V537a4.23,4.23,0,0,0-2.07-.48,3.14,3.14,0,0,0-2.19.72,4,4,0,0,0-1.08,3.06V546h-4.8Z"/><path d="M930,532.59h4.8V546H930v-1.47a5,5,0,0,1-4.17,1.92,6.42,6.42,0,0,1-4.83-2.13,6.76,6.76,0,0,1-1.92-4.92,7.42,7.42,0,0,1,2.07-5.37,6.9,6.9,0,0,1,4.83-1.89,5.31,5.31,0,0,1,4,1.74Zm-5,4.5a3.14,3.14,0,0,0-1,2.19,3.09,3.09,0,0,0,.93,2.19,3.37,3.37,0,0,0,2.16.9,3.08,3.08,0,0,0,2.16-.93,2.91,2.91,0,0,0,.9-2.16,3,3,0,0,0-.93-2.19,3,3,0,0,0-4.26,0Z"/><path d="M943.39,536.52V546h-4.8v-9.48h-1.53v-3.93h1.53v-4.41h4.8v4.41h2.73v3.93Z"/><path d="M950.32,524.31a2.7,2.7,0,1,1-2.7,2.7A2.69,2.69,0,0,1,950.32,524.31Zm2.4,8.28V546h-4.8V532.59Z"/><path d="M956,532.59h4.8v1.68a5.06,5.06,0,0,1,4.26-2,5.42,5.42,0,0,1,4,1.44,4.62,4.62,0,0,1,1.26,3.75V546h-4.8v-6.78a3.85,3.85,0,0,0-.6-2.61,2,2,0,0,0-1.53-.57,2.63,2.63,0,0,0-1.77.63,3.08,3.08,0,0,0-.78,2.13V546H956Z"/><path d="M988.63,532.59v12.57c0,2-.18,3.84-1.83,5.55a8,8,0,0,1-5.91,2.16,8.22,8.22,0,0,1-6.27-2.37,4.88,4.88,0,0,1-1.47-2.79h5.34a2.06,2.06,0,0,0,2.25,1.38,2.92,2.92,0,0,0,2.13-.75,3.23,3.23,0,0,0,1-2.49V544.5a5.1,5.1,0,0,1-4,1.77,6.68,6.68,0,0,1-4.95-1.89,7.08,7.08,0,0,1-1.86-4.89,7.73,7.73,0,0,1,2-5.25,6.74,6.74,0,0,1,4.86-2,5.24,5.24,0,0,1,4,1.77v-1.38Zm-9.78,4.5a3,3,0,0,0,0,4.35,3,3,0,0,0,2.16.87,3.07,3.07,0,0,0,3.06-3.06,3.44,3.44,0,0,0-1-2.19,3,3,0,0,0-2.13-.87A2.86,2.86,0,0,0,978.85,537.09Z"/><path d="M1000.69,540a7,7,0,0,0,4.59,2,2.63,2.63,0,0,0,2-.69,1.79,1.79,0,0,0,.51-1.26,1.56,1.56,0,0,0-.57-1.2,7.21,7.21,0,0,0-2.58-1l-1.35-.42a6.54,6.54,0,0,1-2.88-1.62,5,5,0,0,1-1.14-3.54,6.54,6.54,0,0,1,1.83-4.83,7.05,7.05,0,0,1,5.13-1.89,14.06,14.06,0,0,1,6.18,1.62l-2.07,4.05a5.28,5.28,0,0,0-3.42-1.35,2.49,2.49,0,0,0-1.71.6,1.48,1.48,0,0,0-.51,1.08,1.34,1.34,0,0,0,.27.9,3.28,3.28,0,0,0,1.74.9l1.59.48a7.64,7.64,0,0,1,3.63,2,4.72,4.72,0,0,1,1.29,3.57,6.78,6.78,0,0,1-1.89,5,7.76,7.76,0,0,1-5.91,2,10.7,10.7,0,0,1-3.93-.66,14,14,0,0,1-3-1.59Z"/><path d="M1020.88,544.17l-6.48-11.58H1020l3.57,6.87,3.48-6.87h5.49l-10.77,20.28h-5.37Z"/><path d="M1033.93,541.56a6.87,6.87,0,0,0,1.92,1,6.25,6.25,0,0,0,1.86.33,2,2,0,0,0,1.23-.36.77.77,0,0,0,.24-.63.71.71,0,0,0-.24-.6,3,3,0,0,0-1.26-.48l-1.26-.3a4.31,4.31,0,0,1-2.34-1.17,3.24,3.24,0,0,1-.87-2.31,4.79,4.79,0,0,1,1.26-3.27,6.77,6.77,0,0,1,4.8-1.62,11.07,11.07,0,0,1,4.29.87l-1.62,3.06a6.64,6.64,0,0,0-2.52-.66,2,2,0,0,0-1.11.27.72.72,0,0,0-.42.66.78.78,0,0,0,.57.75c.45.18.84.18,1.59.39l.87.24a5.67,5.67,0,0,1,2,1,3.79,3.79,0,0,1,1,2.67,4.48,4.48,0,0,1-1.35,3.33,7,7,0,0,1-5,1.68,9.89,9.89,0,0,1-5.4-1.56Z"/><path d="M1051.69,536.52V546h-4.8v-9.48h-1.53v-3.93h1.53v-4.41h4.8v4.41h2.73v3.93Z"/><path d="M1070.44,540.18h-10a3.39,3.39,0,0,0,.84,2.25,2.7,2.7,0,0,0,2,.66,3.79,3.79,0,0,0,1.56-.36,2.23,2.23,0,0,0,.84-.9h4.59a6,6,0,0,1-1.62,2.76c-1,1-2.55,1.86-5.46,1.86a7.61,7.61,0,0,1-5.55-2,7,7,0,0,1-2-5.07,7.16,7.16,0,0,1,2-5.19,7.55,7.55,0,0,1,5.49-1.95,7.35,7.35,0,0,1,5.16,1.83,7.51,7.51,0,0,1,2.13,5.64Zm-4.41-2.76a3.22,3.22,0,0,0-.78-1.44,2.8,2.8,0,0,0-2-.72,2.58,2.58,0,0,0-2,.72,2.74,2.74,0,0,0-.72,1.44Z"/><path d="M1073.2,532.59h4.8v1.62a5.15,5.15,0,0,1,4-1.86,5.46,5.46,0,0,1,2.58.6,4.19,4.19,0,0,1,1.86,1.92,4.71,4.71,0,0,1,1.83-1.86,5.44,5.44,0,0,1,2.79-.66,5.33,5.33,0,0,1,3.72,1.23,4.93,4.93,0,0,1,1.26,3.69V546h-4.8v-6.63c0-1.41-.15-2.37-.69-2.88a1.75,1.75,0,0,0-1.26-.45,1.94,1.94,0,0,0-1.41.54,3.43,3.43,0,0,0-.87,2.55V546h-4.8v-6.63a4.29,4.29,0,0,0-.63-2.88,1.86,1.86,0,0,0-1.44-.54,1.69,1.69,0,0,0-1.32.48,4,4,0,0,0-.84,2.94V546h-4.8Z"/><path d="M58.49,799l4.8,12.18L68.15,799h5.64l-8.52,20h-4l-8.4-20Z" style="fill:#e34758"/><path d="M77.84,797.27a2.7,2.7,0,1,1-2.7,2.7A2.69,2.69,0,0,1,77.84,797.27Zm2.4,8.28V819h-4.8V805.55Z" style="fill:#e34758"/><path d="M83.51,805.55h4.8v2.19a4.33,4.33,0,0,1,1.89-1.86,5.24,5.24,0,0,1,2.49-.54l1,.06v4.53a4.23,4.23,0,0,0-2.07-.48,3.14,3.14,0,0,0-2.19.72,4,4,0,0,0-1.08,3.06V819h-4.8Z" style="fill:#e34758"/><path d="M101.54,809.48V819h-4.8v-9.48H95.21v-3.93h1.53v-4.41h4.8v4.41h2.73v3.93Z" style="fill:#e34758"/><path d="M110.87,805.55v7.5a2.57,2.57,0,0,0,.72,2,2.48,2.48,0,0,0,1.68.51,2.24,2.24,0,0,0,1.71-.57,2.49,2.49,0,0,0,.69-1.89v-7.5h4.8v8.37a4.6,4.6,0,0,1-1.29,3.6c-1.65,1.71-4,1.89-5.79,1.89-2,0-4.47-.21-6.06-1.92a4.82,4.82,0,0,1-1.26-3.57v-8.37Z" style="fill:#e34758"/><path d="M134.15,805.55H139V819h-4.8v-1.47a5,5,0,0,1-4.17,1.92,6.42,6.42,0,0,1-4.83-2.13,6.76,6.76,0,0,1-1.92-4.92A7.42,7.42,0,0,1,125.3,807a6.9,6.9,0,0,1,4.83-1.89,5.31,5.31,0,0,1,4,1.74Zm-5,4.5a3.14,3.14,0,0,0-1,2.19,3.09,3.09,0,0,0,.93,2.19,3.37,3.37,0,0,0,2.16.9,3.08,3.08,0,0,0,2.16-.93,2.91,2.91,0,0,0,.9-2.16,3,3,0,0,0-.93-2.19,3,3,0,0,0-4.26,0Z" style="fill:#e34758"/><path d="M147.05,797.09V819h-4.8V797.09Z" style="fill:#e34758"/><path d="M156.86,819l3.39-20h5.13l4.05,10.68L173.72,799h5.19l3,20h-5.19l-1.47-11.52L170.42,819h-2.07l-4.62-11.52L162,819Z" style="fill:#e34758"/><path d="M195.14,805.55h4.8V819h-4.8v-1.47a5,5,0,0,1-4.17,1.92,6.42,6.42,0,0,1-4.83-2.13,6.76,6.76,0,0,1-1.92-4.92,7.42,7.42,0,0,1,2.07-5.37,6.9,6.9,0,0,1,4.83-1.89,5.31,5.31,0,0,1,4,1.74Zm-5,4.5a3.14,3.14,0,0,0-1,2.19,3.09,3.09,0,0,0,.93,2.19,3.37,3.37,0,0,0,2.16.9,3.08,3.08,0,0,0,2.16-.93,2.91,2.91,0,0,0,.9-2.16,3,3,0,0,0-.93-2.19,3,3,0,0,0-4.26,0Z" style="fill:#e34758"/><path d="M213.38,818.66a7.12,7.12,0,0,1-3.33.75,7.41,7.41,0,0,1-5.28-2,7,7,0,0,1-2.07-5,7.3,7.3,0,0,1,2.16-5.19,7.73,7.73,0,0,1,5.4-2,6.88,6.88,0,0,1,3.12.75v4a4.28,4.28,0,0,0-2.49-.87,3.15,3.15,0,0,0-2.34.93,3.26,3.26,0,0,0-.93,2.31,3.44,3.44,0,0,0,.84,2.25,3.26,3.26,0,0,0,2.46,1,3.63,3.63,0,0,0,2.46-.9Z" style="fill:#e34758"/><path d="M216.11,797.09h4.8v10.14a5.85,5.85,0,0,1,1.5-1.32,6.14,6.14,0,0,1,6.72.78,4.68,4.68,0,0,1,1.26,3.75V819h-4.8v-6.78a4,4,0,0,0-.6-2.61,1.9,1.9,0,0,0-1.53-.57,2.57,2.57,0,0,0-1.74.57,2.92,2.92,0,0,0-.81,2.19V819h-4.8Z" style="fill:#e34758"/><path d="M235.31,797.27a2.7,2.7,0,1,1-2.7,2.7A2.69,2.69,0,0,1,235.31,797.27Zm2.4,8.28V819h-4.8V805.55Z" style="fill:#e34758"/><path d="M241,805.55h4.8v1.68a5.06,5.06,0,0,1,4.26-2,5.42,5.42,0,0,1,4,1.44,4.62,4.62,0,0,1,1.26,3.75V819h-4.8v-6.78a3.85,3.85,0,0,0-.6-2.61,2,2,0,0,0-1.53-.57,2.63,2.63,0,0,0-1.77.63,3.08,3.08,0,0,0-.78,2.13V819H241Z" style="fill:#e34758"/><path d="M272.75,813.14h-10a3.39,3.39,0,0,0,.84,2.25,2.7,2.7,0,0,0,2,.66,3.79,3.79,0,0,0,1.56-.36,2.23,2.23,0,0,0,.84-.9h4.59a6,6,0,0,1-1.62,2.76c-1,1-2.55,1.86-5.46,1.86a7.61,7.61,0,0,1-5.55-2,7,7,0,0,1-2-5.07,7.16,7.16,0,0,1,2-5.19,7.55,7.55,0,0,1,5.49-2,7.35,7.35,0,0,1,5.16,1.83,7.51,7.51,0,0,1,2.13,5.64Zm-4.41-2.76a3.22,3.22,0,0,0-.78-1.44,2.8,2.8,0,0,0-2-.72,2.58,2.58,0,0,0-1.95.72,2.74,2.74,0,0,0-.72,1.44Z" style="fill:#e34758"/><path d="M276.38,814.52a6.87,6.87,0,0,0,1.92,1,6.25,6.25,0,0,0,1.86.33,2,2,0,0,0,1.23-.36.77.77,0,0,0,.24-.63.71.71,0,0,0-.24-.6,3,3,0,0,0-1.26-.48l-1.26-.3a4.31,4.31,0,0,1-2.34-1.17,3.24,3.24,0,0,1-.87-2.31,4.79,4.79,0,0,1,1.26-3.27,6.77,6.77,0,0,1,4.8-1.62A11.07,11.07,0,0,1,286,806L284.39,809a6.64,6.64,0,0,0-2.52-.66,2,2,0,0,0-1.11.27.72.72,0,0,0-.42.66.78.78,0,0,0,.57.75c.45.18.84.18,1.59.39l.87.24a5.67,5.67,0,0,1,2,1.05,3.79,3.79,0,0,1,1,2.67,4.48,4.48,0,0,1-1.35,3.33,7,7,0,0,1-4.95,1.68,9.89,9.89,0,0,1-5.4-1.56Z" style="fill:#e34758"/><path d="M1098.44,818.42a12.36,12.36,0,0,1-4.5,1,10.88,10.88,0,0,1-7.74-3,10.5,10.5,0,0,1-3-7.29,10.5,10.5,0,0,1,10.59-10.5,12.4,12.4,0,0,1,4.68,1v6.21a5.57,5.57,0,0,0-4.53-2.19,5.07,5.07,0,0,0-3.6,1.32,5.59,5.59,0,0,0-1.74,4.11,5.52,5.52,0,0,0,1.62,3.9,5.59,5.59,0,0,0,3.72,1.38,5.87,5.87,0,0,0,4.53-2.1Z" style="fill:#4fc2c9"/><path d="M1114.79,817.19a9.18,9.18,0,0,1-12,0,6.92,6.92,0,0,1,0-9.87,8.37,8.37,0,0,1,6-2.22,8.47,8.47,0,0,1,6,2.22,6.92,6.92,0,0,1,0,9.87Zm-8.13-7.14a3.06,3.06,0,0,0,2.16,5.22,3.05,3.05,0,0,0,2.13-.9,3,3,0,0,0,.93-2.13,3.26,3.26,0,0,0-.93-2.19,3.08,3.08,0,0,0-4.29,0Z" style="fill:#4fc2c9"/><path d="M1119.62,805.55h4.8v1.68a5.06,5.06,0,0,1,4.26-2,5.42,5.42,0,0,1,4,1.44,4.62,4.62,0,0,1,1.26,3.75V819h-4.8v-6.78a3.85,3.85,0,0,0-.6-2.61A2,2,0,0,0,1127,809a2.63,2.63,0,0,0-1.77.63,3.08,3.08,0,0,0-.78,2.13V819h-4.8Z" style="fill:#4fc2c9"/><path d="M1142.48,809.48V819h-4.8v-9.48h-1.53v-3.93h1.53v-4.41h4.8v4.41h2.73v3.93Z" style="fill:#4fc2c9"/><path d="M1157.39,805.55h4.8V819h-4.8v-1.47a5,5,0,0,1-4.17,1.92,6.42,6.42,0,0,1-4.83-2.13,6.76,6.76,0,0,1-1.92-4.92,7.42,7.42,0,0,1,2.07-5.37,6.9,6.9,0,0,1,4.83-1.89,5.31,5.31,0,0,1,4,1.74Zm-5,4.5a3.14,3.14,0,0,0-1,2.19,3.09,3.09,0,0,0,.93,2.19,3.37,3.37,0,0,0,2.16.9,3.08,3.08,0,0,0,2.16-.93,2.91,2.91,0,0,0,.9-2.16,3,3,0,0,0-.93-2.19,3,3,0,0,0-4.26,0Z" style="fill:#4fc2c9"/><path d="M1167.89,797.27a2.7,2.7,0,1,1-2.7,2.7A2.69,2.69,0,0,1,1167.89,797.27Zm2.4,8.28V819h-4.8V805.55Z" style="fill:#4fc2c9"/><path d="M1173.56,805.55h4.8v1.68a5.06,5.06,0,0,1,4.26-2,5.42,5.42,0,0,1,4,1.44,4.62,4.62,0,0,1,1.26,3.75V819H1183v-6.78a3.85,3.85,0,0,0-.6-2.61,2,2,0,0,0-1.53-.57,2.63,2.63,0,0,0-1.77.63,3.08,3.08,0,0,0-.78,2.13V819h-4.8Z" style="fill:#4fc2c9"/><path d="M1205.33,813.14h-10a3.39,3.39,0,0,0,.84,2.25,2.7,2.7,0,0,0,2,.66,3.79,3.79,0,0,0,1.56-.36,2.23,2.23,0,0,0,.84-.9h4.59a6,6,0,0,1-1.62,2.76c-1,1-2.55,1.86-5.46,1.86a7.61,7.61,0,0,1-5.55-2,7,7,0,0,1-2-5.07,7.16,7.16,0,0,1,2-5.19,7.55,7.55,0,0,1,5.49-2,7.35,7.35,0,0,1,5.16,1.83,7.51,7.51,0,0,1,2.13,5.64Zm-4.41-2.76a3.22,3.22,0,0,0-.78-1.44,2.8,2.8,0,0,0-2-.72,2.58,2.58,0,0,0-2,.72,2.74,2.74,0,0,0-.72,1.44Z" style="fill:#4fc2c9"/><path d="M1208.09,805.55h4.8v2.19a4.33,4.33,0,0,1,1.89-1.86,5.24,5.24,0,0,1,2.49-.54l1,.06v4.53a4.23,4.23,0,0,0-2.07-.48,3.14,3.14,0,0,0-2.19.72,4,4,0,0,0-1.08,3.06V819h-4.8Z" style="fill:#4fc2c9"/><path d="M1221.23,814.52a6.87,6.87,0,0,0,1.92,1,6.25,6.25,0,0,0,1.86.33,2,2,0,0,0,1.23-.36.77.77,0,0,0,.24-.63.71.71,0,0,0-.24-.6,3,3,0,0,0-1.26-.48l-1.26-.3a4.31,4.31,0,0,1-2.34-1.17,3.24,3.24,0,0,1-.87-2.31,4.79,4.79,0,0,1,1.26-3.27,6.77,6.77,0,0,1,4.8-1.62,11.07,11.07,0,0,1,4.29.87l-1.62,3.06a6.64,6.64,0,0,0-2.52-.66,2,2,0,0,0-1.11.27.72.72,0,0,0-.42.66.78.78,0,0,0,.57.75c.45.18.84.18,1.59.39l.87.24a5.67,5.67,0,0,1,2,1.05,3.79,3.79,0,0,1,1,2.67,4.48,4.48,0,0,1-1.35,3.33,7,7,0,0,1-4.95,1.68,9.89,9.89,0,0,1-5.4-1.56Z" style="fill:#4fc2c9"/><rect x="278.72" y="703.76" width="88.16" height="25.67" rx="5.72" ry="5.72" style="fill:none;stroke:#a2b969;stroke-miterlimit:10;stroke-width:3px"/><circle cx="293.79" cy="716.59" r="5.95" style="fill:none;stroke:#a2b969;stroke-miterlimit:10;stroke-width:3px"/><circle cx="334.89" cy="716.78" r="1.86" style="fill:#a2b969"/><circle cx="341.21" cy="716.78" r="1.86" style="fill:#a2b969"/><circle cx="347.91" cy="716.78" r="1.86" style="fill:#a2b969"/><circle cx="354.61" cy="716.78" r="1.86" style="fill:#a2b969"/><rect x="278.72" y="729.76" width="88.16" height="25.67" rx="5.72" ry="5.72" style="fill:none;stroke:#a2b969;stroke-miterlimit:10;stroke-width:3px"/><circle cx="293.79" cy="742.59" r="5.95" style="fill:none;stroke:#a2b969;stroke-miterlimit:10;stroke-width:3px"/><circle cx="334.89" cy="742.78" r="1.86" style="fill:#a2b969"/><circle cx="341.21" cy="742.78" r="1.86" style="fill:#a2b969"/><circle cx="347.91" cy="742.78" r="1.86" style="fill:#a2b969"/><circle cx="354.61" cy="742.78" r="1.86" style="fill:#a2b969"/><rect x="278.72" y="678.09" width="88.16" height="25.67" rx="5.72" ry="5.72" style="fill:none;stroke:#a2b969;stroke-miterlimit:10;stroke-width:3px"/><circle cx="293.79" cy="690.92" r="5.95" style="fill:none;stroke:#a2b969;stroke-miterlimit:10;stroke-width:3px"/><circle cx="334.89" cy="691.11" r="1.86" style="fill:#a2b969"/><circle cx="341.21" cy="691.11" r="1.86" style="fill:#a2b969"/><circle cx="347.91" cy="691.11" r="1.86" style="fill:#a2b969"/><circle cx="354.61" cy="691.11" r="1.86" style="fill:#a2b969"/><rect x="114" y="681.12" width="80" height="48.22" rx="12" ry="12" style="fill:none;stroke:#a2b969;stroke-miterlimit:10;stroke-width:3px"/><rect x="141.12" y="729.06" width="25.75" height="8.77" rx="4.38" ry="4.38" style="fill:#a2b969"/><rect x="124.41" y="737.01" width="59.18" height="12.05" rx="6.03" ry="6.03" style="fill:none;stroke:#a2b969;stroke-miterlimit:10;stroke-width:3px"/><circle cx="130.99" cy="741.39" r="1.1" style="fill:#a2b969"/><circle cx="134.13" cy="741.39" r="1.1" style="fill:#a2b969"/><circle cx="130.99" cy="744.68" r="1.1" style="fill:#a2b969"/><circle cx="134.13" cy="744.68" r="1.1" style="fill:#a2b969"/><rect x="162.77" y="741.94" width="16.99" height="1.64" rx="0.82" ry="0.82" style="fill:#a2b969"/><path d="M499,710.23v0c0-10.82-9.4-19.6-21-19.6A21.11,21.11,0,0,0,459,702a11.19,11.19,0,0,0-18.77,8.24c0,.15,0,.29,0,.44a14.69,14.69,0,0,0,3.48,29h54.6a14.69,14.69,0,0,0,.7-29.36Z" style="fill:none;stroke:#a2b969;stroke-miterlimit:10;stroke-width:3px"/><rect x="936.72" y="703.76" width="88.16" height="25.67" rx="5.72" ry="5.72" style="fill:none;stroke:#a2b969;stroke-miterlimit:10;stroke-width:3px"/><circle cx="951.79" cy="716.59" r="5.95" style="fill:none;stroke:#a2b969;stroke-miterlimit:10;stroke-width:3px"/><circle cx="992.89" cy="716.78" r="1.86" style="fill:#a2b969"/><circle cx="999.21" cy="716.78" r="1.86" style="fill:#a2b969"/><circle cx="1005.91" cy="716.78" r="1.86" style="fill:#a2b969"/><circle cx="1012.61" cy="716.78" r="1.86" style="fill:#a2b969"/><rect x="936.72" y="729.76" width="88.16" height="25.67" rx="5.72" ry="5.72" style="fill:none;stroke:#a2b969;stroke-miterlimit:10;stroke-width:3px"/><circle cx="951.79" cy="742.59" r="5.95" style="fill:none;stroke:#a2b969;stroke-miterlimit:10;stroke-width:3px"/><circle cx="992.89" cy="742.78" r="1.86" style="fill:#a2b969"/><circle cx="999.21" cy="742.78" r="1.86" style="fill:#a2b969"/><circle cx="1005.91" cy="742.78" r="1.86" style="fill:#a2b969"/><circle cx="1012.61" cy="742.78" r="1.86" style="fill:#a2b969"/><rect x="936.72" y="678.09" width="88.16" height="25.67" rx="5.72" ry="5.72" style="fill:none;stroke:#a2b969;stroke-miterlimit:10;stroke-width:3px"/><circle cx="951.79" cy="690.92" r="5.95" style="fill:none;stroke:#a2b969;stroke-miterlimit:10;stroke-width:3px"/><circle cx="992.89" cy="691.11" r="1.86" style="fill:#a2b969"/><circle cx="999.21" cy="691.11" r="1.86" style="fill:#a2b969"/><circle cx="1005.91" cy="691.11" r="1.86" style="fill:#a2b969"/><circle cx="1012.61" cy="691.11" r="1.86" style="fill:#a2b969"/><rect x="772" y="681.12" width="80" height="48.22" rx="12" ry="12" style="fill:none;stroke:#a2b969;stroke-miterlimit:10;stroke-width:3px"/><rect x="799.12" y="729.06" width="25.75" height="8.77" rx="4.38" ry="4.38" style="fill:#a2b969"/><rect x="782.41" y="737.01" width="59.18" height="12.05" rx="6.03" ry="6.03" style="fill:none;stroke:#a2b969;stroke-miterlimit:10;stroke-width:3px"/><circle cx="788.99" cy="741.39" r="1.1" style="fill:#a2b969"/><circle cx="792.13" cy="741.39" r="1.1" style="fill:#a2b969"/><circle cx="788.99" cy="744.68" r="1.1" style="fill:#a2b969"/><circle cx="792.13" cy="744.68" r="1.1" style="fill:#a2b969"/><rect x="820.77" y="741.94" width="16.99" height="1.64" rx="0.82" ry="0.82" style="fill:#a2b969"/><path d="M1157,710.23v0c0-10.82-9.4-19.6-21-19.6A21.11,21.11,0,0,0,1117,702a11.19,11.19,0,0,0-18.77,8.24c0,.15,0,.29,0,.44a14.69,14.69,0,0,0,3.48,29h54.6a14.69,14.69,0,0,0,.7-29.36Z" style="fill:none;stroke:#a2b969;stroke-miterlimit:10;stroke-width:3px"/></svg>