<svg id="Layer_1" data-name="Layer 1" xmlns="http://www.w3.org/2000/svg" viewBox="0 0 1518 756"><title>Cap 14 -</title><line x1="883.5" y1="603.5" x2="911.5" y2="603.5" style="fill:none;stroke:#91c54f;stroke-miterlimit:10;stroke-width:5px"/><line x1="882.5" y1="476.5" x2="911.5" y2="476.5" style="fill:none;stroke:#91c54f;stroke-miterlimit:10;stroke-width:5px"/><line x1="1180" y1="282.5" x2="1403.5" y2="282.5" style="fill:none;stroke:#c13018;stroke-miterlimit:10;stroke-width:5px"/><line x1="665.5" y1="262.5" x2="1079.5" y2="262.5" style="fill:none;stroke:#4fc2c9;stroke-miterlimit:10;stroke-width:5px"/><line x1="665.5" y1="115.5" x2="1079.5" y2="115.5" style="fill:none;stroke:#c13018;stroke-miterlimit:10;stroke-width:5px"/><rect x="376" y="38" width="753" height="684.5" rx="12" ry="12" style="fill:none;stroke:#636868;stroke-miterlimit:10;stroke-width:7px"/><polygon points="927.5 142.07 843.29 142.07 843.29 129.93 817.5 155.72 843.29 181.52 843.29 169.38 927.5 169.38 927.5 142.07" style="fill:none;stroke:#c13018;stroke-miterlimit:10;stroke-width:5px"/><polygon points="1343 310.07 1258.79 310.07 1258.79 297.93 1233 323.72 1258.79 349.52 1258.79 337.38 1343 337.38 1343 310.07" style="fill:none;stroke:#c13018;stroke-miterlimit:10;stroke-width:5px"/><polygon points="1324.33 144.03 1249.63 143.85 1249.6 154.67 1226.66 131.62 1249.71 108.69 1249.68 118.97 1324.39 119.15 1324.41 108.33 1347.35 131.38 1324.3 154.31 1324.33 144.03" style="fill:none;stroke:#c13018;stroke-miterlimit:10;stroke-width:5px"/><rect x="40.5" y="53.5" width="1363" height="159" rx="12" ry="12" style="fill:none;stroke:#c13018;stroke-miterlimit:10;stroke-width:3px;stroke-dasharray:10.497676849365234,10.497676849365234"/><path d="M130.74,151.8v-30h11.61c2.16,0,4.73.32,6.57,2.34a8.11,8.11,0,0,1,1.85,5.63,7.8,7.8,0,0,1-.86,3.69,4.73,4.73,0,0,1-2.43,2.34,7.48,7.48,0,0,1,4.1,1.8,7.56,7.56,0,0,1,2,5.49,8.17,8.17,0,0,1-2.2,5.89c-1.62,1.66-4.46,2.83-8.15,2.83Zm7.79-18.17H140a4.1,4.1,0,0,0,3-.95,2.91,2.91,0,0,0,.72-2,3.07,3.07,0,0,0-.72-2,4.12,4.12,0,0,0-3-.9h-1.44Zm0,12.1h1.75c2.16,0,4-.23,4.82-1.21a2.93,2.93,0,0,0,.63-1.94,3.06,3.06,0,0,0-.77-2.16c-.94-.94-2.88-1-4.81-1h-1.62Z"/><path d="M157.88,131.69h7.2V135a6.48,6.48,0,0,1,2.83-2.79,7.82,7.82,0,0,1,3.74-.81c.18,0,.49,0,1.44.09v6.79a6.36,6.36,0,0,0-3.11-.72,4.73,4.73,0,0,0-3.28,1.08,6.08,6.08,0,0,0-1.62,4.59v8.59h-7.2Z"/><path d="M179.88,119.27a4,4,0,1,1-4,4A4,4,0,0,1,179.88,119.27Zm3.6,12.42V151.8h-7.2V131.69Z"/><path d="M211.16,151.8H204v-2.2a7.39,7.39,0,0,1-6.08,2.88,9.64,9.64,0,0,1-7.06-2.79,11.07,11.07,0,0,1-3.24-8,11,11,0,0,1,3.28-8A10.29,10.29,0,0,1,198,131a8,8,0,0,1,6,2.61V119h7.2Zm-8.51-6.65a4.82,4.82,0,0,0,1.53-3.42,5.24,5.24,0,0,0-1.35-3.24,4.37,4.37,0,0,0-3.28-1.35,4.42,4.42,0,0,0-3.2,1.3,4.94,4.94,0,0,0-1.39,3.42,4.56,4.56,0,0,0,1.39,3.15,4.47,4.47,0,0,0,3.2,1.35A4.91,4.91,0,0,0,202.65,145.15Z"/><path d="M238.74,131.69v18.85c0,3-.27,5.76-2.74,8.33a12,12,0,0,1-8.87,3.24c-3.73,0-6.84-1-9.4-3.56a7.31,7.31,0,0,1-2.21-4.18h8c.27.81,1,2.07,3.38,2.07a4.37,4.37,0,0,0,3.19-1.13,4.8,4.8,0,0,0,1.44-3.73v-2a7.65,7.65,0,0,1-6,2.66,10,10,0,0,1-7.42-2.83A10.64,10.64,0,0,1,215.3,142a11.55,11.55,0,0,1,3-7.87,10.07,10.07,0,0,1,7.29-3.06,7.85,7.85,0,0,1,6,2.65v-2.07Zm-14.67,6.75a4.76,4.76,0,0,0-1.39,3.24,4.7,4.7,0,0,0,1.39,3.28,4.54,4.54,0,0,0,3.24,1.31,4.77,4.77,0,0,0,3.24-1.35,4.82,4.82,0,0,0,1.35-3.24,5.13,5.13,0,0,0-1.44-3.28,4.57,4.57,0,0,0-3.19-1.31A4.32,4.32,0,0,0,224.07,138.44Z"/><path d="M265,143.08H250a5.07,5.07,0,0,0,1.26,3.37,4,4,0,0,0,3,1,5.6,5.6,0,0,0,2.34-.54,3.38,3.38,0,0,0,1.26-1.35h6.88a9,9,0,0,1-2.43,4.14c-1.48,1.44-3.82,2.79-8.19,2.79a11.42,11.42,0,0,1-8.32-3.06,10.53,10.53,0,0,1-3-7.61,10.75,10.75,0,0,1,3-7.78c1.67-1.62,4.28-2.92,8.24-2.92a11,11,0,0,1,7.74,2.74,11.27,11.27,0,0,1,3.19,8.46Zm-6.61-4.14a4.8,4.8,0,0,0-1.17-2.16,4.18,4.18,0,0,0-3-1.08,3.86,3.86,0,0,0-2.93,1.08,4.18,4.18,0,0,0-1.08,2.16Z"/><path d="M291.93,151.8h-7.2v-2.2a7.37,7.37,0,0,1-6.07,2.88,9.66,9.66,0,0,1-7.07-2.79,11.11,11.11,0,0,1-3.24-8,10.92,10.92,0,0,1,3.29-8,10.28,10.28,0,0,1,7.11-2.7,7.93,7.93,0,0,1,6,2.61V119h7.2Zm-8.5-6.65a4.86,4.86,0,0,0,1.53-3.42,5.24,5.24,0,0,0-1.35-3.24,4.62,4.62,0,0,0-6.48-.05,4.94,4.94,0,0,0-1.4,3.42,4.53,4.53,0,0,0,1.4,3.15,4.46,4.46,0,0,0,3.19,1.35A5,5,0,0,0,283.43,145.15Z"/><rect x="422" y="76" width="244" height="119" rx="12" ry="12" style="fill:none;stroke:#3a5c84;stroke-miterlimit:10;stroke-width:5px"/><path d="M507.87,120.49l7.19,18.27,7.29-18.27h8.46l-12.78,30H512l-12.6-30Z"/><path d="M531,150.51l5.09-30h7.69l6.07,16,6.44-16H564l4.5,30h-7.78l-2.21-17.28-7.24,17.28h-3.11l-6.93-17.28-2.56,17.28Z"/><path d="M580.85,127.11h-4.27v-6.62h12.06v30h-7.79Z"/><rect x="1079.5" y="80.5" width="98" height="98" rx="12" ry="12" style="fill:#fff;stroke:#c13018;stroke-miterlimit:10;stroke-width:5px"/><path d="M1233.5,83.87v-20h7.74a5.64,5.64,0,0,1,4.38,1.56,5.46,5.46,0,0,1,1.22,3.75,5.17,5.17,0,0,1-.56,2.46,3.19,3.19,0,0,1-1.62,1.56,4.41,4.41,0,0,1,4.07,4.86,5.43,5.43,0,0,1-1.47,3.93,7.52,7.52,0,0,1-5.43,1.89Zm5.19-12.12h1a2.75,2.75,0,0,0,2-.63,1.94,1.94,0,0,0,.48-1.32,2.11,2.11,0,0,0-.48-1.35,2.77,2.77,0,0,0-2-.6h-1Zm0,8.07h1.17c1.43,0,2.64-.15,3.21-.81a2.22,2.22,0,0,0-.1-2.73c-.63-.63-1.92-.66-3.2-.66h-1.08Z"/><path d="M1251.59,70.46h4.8v2.19a4.33,4.33,0,0,1,1.89-1.86,5.22,5.22,0,0,1,2.48-.54l1,.06v4.53a4.14,4.14,0,0,0-2.06-.48,3.18,3.18,0,0,0-2.2.72,4.07,4.07,0,0,0-1.07,3.06v5.73h-4.8Z"/><path d="M1266.25,62.18a2.7,2.7,0,1,1-2.7,2.7A2.7,2.7,0,0,1,1266.25,62.18Zm2.41,8.28V83.87h-4.8V70.46Z"/><path d="M1287.1,83.87h-4.8V82.4a4.91,4.91,0,0,1-4,1.92,6.44,6.44,0,0,1-4.71-1.86,7.43,7.43,0,0,1-2.15-5.34,7.31,7.31,0,0,1,2.19-5.31,6.86,6.86,0,0,1,4.74-1.8,5.3,5.3,0,0,1,4,1.74V62h4.8Zm-5.67-4.44a3.23,3.23,0,0,0,1-2.28,3.46,3.46,0,0,0-.91-2.16,3.07,3.07,0,0,0-4.31,0,3.3,3.3,0,0,0-.94,2.28,3,3,0,0,0,.94,2.1,3,3,0,0,0,2.13.9A3.27,3.27,0,0,0,1281.43,79.43Z"/><path d="M1305.49,70.46V83c0,2-.18,3.84-1.83,5.55a8,8,0,0,1-5.91,2.16,8.22,8.22,0,0,1-6.27-2.37,5,5,0,0,1-1.47-2.79h5.34A2.06,2.06,0,0,0,1297.6,87a2.92,2.92,0,0,0,2.13-.75,3.23,3.23,0,0,0,1-2.49V82.37a5.1,5.1,0,0,1-4,1.77,6.7,6.7,0,0,1-5-1.89,7.07,7.07,0,0,1-1.85-4.89,7.72,7.72,0,0,1,2-5.25,6.74,6.74,0,0,1,4.86-2,5.24,5.24,0,0,1,4,1.77V70.46Zm-9.78,4.5a3,3,0,0,0,0,4.35,3,3,0,0,0,2.17.87,3.17,3.17,0,0,0,2.15-.9,3.21,3.21,0,0,0,.9-2.16,3.44,3.44,0,0,0-1-2.19,3,3,0,0,0-2.13-.87A2.86,2.86,0,0,0,1295.71,75Z"/><path d="M1323,78.05h-10a3.39,3.39,0,0,0,.84,2.25,2.7,2.7,0,0,0,2,.66,3.79,3.79,0,0,0,1.56-.36,2.23,2.23,0,0,0,.84-.9h4.59a6,6,0,0,1-1.62,2.76c-1,1-2.55,1.86-5.46,1.86a7.61,7.61,0,0,1-5.55-2,7,7,0,0,1-2-5.07,7.16,7.16,0,0,1,2-5.19,7.55,7.55,0,0,1,5.49-2,7.35,7.35,0,0,1,5.16,1.83,7.51,7.51,0,0,1,2.13,5.64Zm-4.41-2.76a3.22,3.22,0,0,0-.78-1.44,2.8,2.8,0,0,0-2-.72,2.58,2.58,0,0,0-1.95.72,2.74,2.74,0,0,0-.72,1.44Z"/><path d="M1341,83.87h-4.8V82.4a4.92,4.92,0,0,1-4.05,1.92,6.42,6.42,0,0,1-4.71-1.86,7.4,7.4,0,0,1-2.16-5.34,7.31,7.31,0,0,1,2.19-5.31,6.86,6.86,0,0,1,4.74-1.8,5.31,5.31,0,0,1,4,1.74V62h4.8Zm-5.67-4.44a3.22,3.22,0,0,0,1-2.28,3.51,3.51,0,0,0-.9-2.16,3.08,3.08,0,0,0-4.32,0,3.29,3.29,0,0,0-.93,2.28,3,3,0,0,0,.93,2.1,3,3,0,0,0,2.13.9A3.28,3.28,0,0,0,1335.28,79.43Z"/><rect x="40.5" y="220.5" width="1152" height="159" rx="12" ry="12" style="fill:none;stroke:#4fc2c9;stroke-miterlimit:10;stroke-width:3px;stroke-dasharray:9.63455867767334,9.63455867767334"/><path d="M170.14,318.8v-30h7.79l14.35,18.36V288.79h7.78v30h-7.78l-14.35-18.35V318.8Z"/><path d="M224.68,313.76H213.79l-2,5h-8.24l11.52-30h8.5l11.3,30h-8.33Zm-2.07-5.93-3.38-9.72L216,307.83Z"/><path d="M248.3,295.41V318.8h-7.78V295.41h-6.39v-6.62h20.56v6.62Z"/><path d="M504.4,287.83l7.2,18.27,7.29-18.27h8.46l-12.78,30H508.5l-12.6-30Z"/><path d="M527.49,317.84l5.08-30h7.7l6.07,16,6.43-16h7.79l4.5,30h-7.79l-2.2-17.27-7.25,17.27h-3.1l-6.93-17.27-2.56,17.27Z"/><path d="M592.1,317.84H568l7.6-8a50.26,50.26,0,0,0,6.17-7.6,8.46,8.46,0,0,0,1.62-4.68,4.51,4.51,0,0,0-.9-2.88,3,3,0,0,0-2.21-.9,3.19,3.19,0,0,0-2.6,1.21,7.32,7.32,0,0,0-1.08,3.69h-8.06a12,12,0,0,1,3.33-8.32,11.44,11.44,0,0,1,8.5-3.24c4.5,0,7.11,1.75,8.46,3.1a10,10,0,0,1,2.93,7.38c0,3.78-1.76,6.39-4.46,8.91l-5,4.68h9.81Z"/><rect x="1080.5" y="247.5" width="98" height="98" rx="12" ry="12" style="fill:#fff;stroke:#4fc2c9;stroke-miterlimit:10;stroke-width:5px"/><rect x="40.5" y="386.5" width="1075.5" height="319" rx="12" ry="12" style="fill:none;stroke:#f7931f;stroke-miterlimit:10;stroke-width:3px;stroke-dasharray:13.182528495788574,13.182528495788574"/><path d="M174.24,499h11.24V487.79h7.83v30h-7.83V505.66H174.24V517.8h-7.79v-30h7.79Z"/><path d="M219.19,515.15a13.76,13.76,0,0,1-17.95,0,10,10,0,0,1-3.11-7.42,9.93,9.93,0,0,1,3.11-7.38,12.55,12.55,0,0,1,8.95-3.33,12.68,12.68,0,0,1,9,3.33,10.38,10.38,0,0,1,0,14.8ZM207,504.44a4.45,4.45,0,0,0,0,6.48,4.5,4.5,0,0,0,6.43,0,4.44,4.44,0,0,0,1.4-3.19,4.9,4.9,0,0,0-1.4-3.29,4.63,4.63,0,0,0-6.43,0Z"/><path d="M227.74,511.15a10.77,10.77,0,0,0,2.88,1.48,9.58,9.58,0,0,0,2.79.5,3,3,0,0,0,1.84-.55,1.12,1.12,0,0,0,.36-.94,1.06,1.06,0,0,0-.36-.9,4.38,4.38,0,0,0-1.88-.72l-1.89-.45a6.45,6.45,0,0,1-3.51-1.76,4.83,4.83,0,0,1-1.31-3.46,7.21,7.21,0,0,1,1.89-4.9c1.53-1.58,4.23-2.43,7.2-2.43a16.68,16.68,0,0,1,6.43,1.3l-2.43,4.59a9.94,9.94,0,0,0-3.77-1,3,3,0,0,0-1.67.41,1.08,1.08,0,0,0-.63,1,1.16,1.16,0,0,0,.86,1.12c.67.27,1.25.27,2.38.59l1.31.36a8.53,8.53,0,0,1,3,1.57,5.69,5.69,0,0,1,1.53,4,6.72,6.72,0,0,1-2,5c-2.34,2.34-5.76,2.52-7.43,2.52a14.87,14.87,0,0,1-8.09-2.34Z"/><path d="M254.38,503.59V517.8h-7.2V503.59h-2.3v-5.9h2.3v-6.61h7.2v6.61h4.09v5.9Z"/><path d="M190,568a17.93,17.93,0,0,1-23.67,0,15.71,15.71,0,0,1,0-22.45,18,18,0,0,1,23.67,0A15.71,15.71,0,0,1,190,568Zm-17.91-17a8.24,8.24,0,0,0-2.39,5.9,7.66,7.66,0,0,0,2.39,5.58,8.52,8.52,0,0,0,6.07,2.38,8.15,8.15,0,0,0,8.46-8.1,8.08,8.08,0,0,0-2.43-5.76,9,9,0,0,0-6-2.38A8.63,8.63,0,0,0,172.12,551.06Z"/><path d="M199,551.69h7.2v2.52a7.58,7.58,0,0,1,6.39-3,8.16,8.16,0,0,1,5.94,2.16c1.71,1.71,1.89,3.42,1.89,5.63V571.8h-7.2V561.64c0-1.17,0-2.93-.9-3.92a3,3,0,0,0-2.3-.85,3.92,3.92,0,0,0-2.65.94,4.63,4.63,0,0,0-1.17,3.19v10.8H199Z"/><path d="M232.55,539v32.8h-7.2V539Z"/><path d="M244.7,569.06,235,551.69h8.37L248.71,562l5.22-10.31h8.23L246,582.11H238Z"/><path d="M504.42,453.49l7.2,18.27,7.29-18.27h8.46l-12.78,30h-6.07l-12.6-30Z"/><path d="M527.51,483.51l5.08-30h7.7l6.07,16,6.44-16h7.78l4.5,30H557.3l-2.21-17.28-7.24,17.28h-3.11l-6.93-17.28-2.56,17.28Z"/><path d="M576.11,473.25a4.64,4.64,0,0,0,1.21,3,4.15,4.15,0,0,0,3.06,1.17,4,4,0,0,0,3.06-1.3,3.52,3.52,0,0,0,.9-2.48,3.43,3.43,0,0,0-1.17-2.65,4.7,4.7,0,0,0-2.88-.86,4.09,4.09,0,0,0-1.3.18v-5.26a3.83,3.83,0,0,0,3.19-.77,2.81,2.81,0,0,0,1-2.11,3.33,3.33,0,0,0-.81-2.16,3.19,3.19,0,0,0-2.2-.81A3,3,0,0,0,578,460a3.77,3.77,0,0,0-1,2.66h-7.24a10.68,10.68,0,0,1,2.92-6.89c2.21-2.29,5-2.92,7.92-2.92a10.44,10.44,0,0,1,7.47,2.65,8.15,8.15,0,0,1,2.43,5.81,7.2,7.2,0,0,1-.9,3.69,5.12,5.12,0,0,1-2.29,2.29,7.39,7.39,0,0,1,3.55,2.75,7.55,7.55,0,0,1,1.26,4.41,9,9,0,0,1-2.65,6.57c-1.62,1.62-4.5,3.19-9,3.19a12.12,12.12,0,0,1-8.59-3.1,12,12,0,0,1-3.74-7.83Z"/><path d="M504.59,595l7.2,18.27L519.07,595h8.46l-12.78,30h-6.07l-12.6-30Z"/><path d="M527.67,625l5.09-30h7.69l6.07,16L553,595h7.78l4.5,30h-7.78l-2.21-17.28L548,625H544.9L538,607.73,535.41,625Z"/><path d="M589.27,613.35h3.65v6h-3.65V625h-7.2v-5.67H567.54v-5L579.1,595h10.17Zm-7.2,0V601.11L575,613.35Z"/><path d="M1203.76,269.87v-20H1209l9.57,12.24V249.86h5.19v20h-5.19L1209,257.63v12.24Z"/><path d="M1240.12,266.51h-7.26l-1.35,3.36H1226l7.68-20h5.67l7.53,20h-5.55Zm-1.38-4-2.25-6.48-2.19,6.48Z"/><path d="M1255.87,254.27v15.6h-5.19v-15.6h-4.26v-4.41h13.71v4.41Z"/><path d="M1454.42,100.07a12,12,0,0,1,0-15.78,10.47,10.47,0,0,1,15,0,12,12,0,0,1,0,15.78,10.47,10.47,0,0,1-15,0Zm11.31-11.94a5.49,5.49,0,0,0-3.93-1.59,5.09,5.09,0,0,0-3.72,1.59,5.68,5.68,0,0,0-1.59,4.05,5.44,5.44,0,0,0,5.4,5.64,5.4,5.4,0,0,0,3.84-1.62,6,6,0,0,0,1.59-4A5.76,5.76,0,0,0,1465.73,88.13Z"/><path d="M1465.31,110.87h-7.5a2.57,2.57,0,0,0-2,.72,2.48,2.48,0,0,0-.51,1.68,2.24,2.24,0,0,0,.57,1.71,2.49,2.49,0,0,0,1.89.69h7.5v4.8h-8.37a4.6,4.6,0,0,1-3.6-1.29c-1.71-1.65-1.89-4-1.89-5.79,0-2,.21-4.47,1.92-6.06a4.82,4.82,0,0,1,3.57-1.26h8.37Z"/><path d="M1461.38,129.08h-9.48v-4.8h9.48v-1.53h3.93v1.53h4.41v4.8h-4.41v2.73h-3.93Z"/><path d="M1456.34,134.48a6.87,6.87,0,0,0-1,1.92,6.25,6.25,0,0,0-.33,1.86,2,2,0,0,0,.36,1.23.77.77,0,0,0,.63.24.71.71,0,0,0,.6-.24,3,3,0,0,0,.48-1.26l.3-1.26a4.31,4.31,0,0,1,1.17-2.34,3.24,3.24,0,0,1,2.31-.87,4.79,4.79,0,0,1,3.27,1.26,6.77,6.77,0,0,1,1.62,4.8,11.07,11.07,0,0,1-.87,4.29l-3.06-1.62a6.64,6.64,0,0,0,.66-2.52,2,2,0,0,0-.27-1.11.72.72,0,0,0-.66-.42.78.78,0,0,0-.75.57c-.18.45-.18.84-.39,1.59l-.24.87a5.67,5.67,0,0,1-1,2,3.79,3.79,0,0,1-2.67,1,4.48,4.48,0,0,1-3.33-1.35,7,7,0,0,1-1.68-5,9.89,9.89,0,0,1,1.56-5.4Z"/><path d="M1473.59,149.33a2.7,2.7,0,1,1-2.7-2.7A2.69,2.69,0,0,1,1473.59,149.33Zm-8.28,2.4H1451.9v-4.8h13.41Z"/><path d="M1451.9,170.18v-4.8h1.47a4.92,4.92,0,0,1-1.92-4,6.42,6.42,0,0,1,1.86-4.71,7.4,7.4,0,0,1,5.34-2.16,7.31,7.31,0,0,1,5.31,2.19,6.86,6.86,0,0,1,1.8,4.74,5.31,5.31,0,0,1-1.74,4h9.75v4.8Zm4.44-5.67a3.22,3.22,0,0,0,2.28,1,3.51,3.51,0,0,0,2.16-.9,3.08,3.08,0,0,0,0-4.32,3.29,3.29,0,0,0-2.28-.93,3,3,0,0,0-2.1.93,3,3,0,0,0-.9,2.13A3.28,3.28,0,0,0,1456.34,164.51Z"/><path d="M1457.72,187.69v-10a3.39,3.39,0,0,0-2.25.84,2.69,2.69,0,0,0-.66,2,3.82,3.82,0,0,0,.36,1.57,2.23,2.23,0,0,0,.9.84v4.59a6,6,0,0,1-2.76-1.62c-1-1-1.86-2.55-1.86-5.46a7.61,7.61,0,0,1,2-5.55,7,7,0,0,1,5.07-2,7.16,7.16,0,0,1,5.19,2,7.55,7.55,0,0,1,2,5.49,7.31,7.31,0,0,1-1.83,5.15,7.51,7.51,0,0,1-5.64,2.13Zm2.76-4.4a3.22,3.22,0,0,0,1.44-.78,2.8,2.8,0,0,0,.72-2,2.57,2.57,0,0,0-.72-1.94,2.82,2.82,0,0,0-1.44-.73Z"/><path d="M1451.9,197.89h20v5.19l-12.24,9.57h12.24v5.19h-20v-5.19l12.24-9.57H1451.9Z"/><path d="M1457.72,235.81v-10a3.39,3.39,0,0,0-2.25.84,2.7,2.7,0,0,0-.66,2,3.79,3.79,0,0,0,.36,1.56,2.23,2.23,0,0,0,.9.84v4.59a6,6,0,0,1-2.76-1.62c-1-1-1.86-2.55-1.86-5.46a7.61,7.61,0,0,1,2-5.55,7,7,0,0,1,5.07-2,7.16,7.16,0,0,1,5.19,2,7.55,7.55,0,0,1,2,5.49,7.35,7.35,0,0,1-1.83,5.16,7.51,7.51,0,0,1-5.64,2.13Zm2.76-4.41a3.22,3.22,0,0,0,1.44-.78,2.8,2.8,0,0,0,.72-2,2.58,2.58,0,0,0-.72-1.95,2.74,2.74,0,0,0-1.44-.72Z"/><path d="M1461.38,243.88h-9.48v-4.8h9.48v-1.53h3.93v1.53h4.41v4.8h-4.41v2.73h-3.93Z"/><path d="M1465.31,252.43l-7.08,3.18,7.08,3.39v2.94l-7.29,3.39,7.29,3.36V274l-13.41-7v-3.24l7.38-3.36-7.38-3.21V254l13.41-6.9Z"/><path d="M1453.67,288.88a9.18,9.18,0,0,1,0-12,6.92,6.92,0,0,1,9.87,0,8.37,8.37,0,0,1,2.22,6,8.47,8.47,0,0,1-2.22,6,6.92,6.92,0,0,1-9.87,0Zm7.14-8.13a3.06,3.06,0,0,0-5.22,2.16,3.05,3.05,0,0,0,.9,2.13,3,3,0,0,0,2.13.93,3.26,3.26,0,0,0,2.19-.93,3.08,3.08,0,0,0,0-4.29Z"/><path d="M1465.31,293.71v4.8h-2.19a4.33,4.33,0,0,1,1.86,1.89,5.24,5.24,0,0,1,.54,2.49c0,.12,0,.33-.06,1h-4.53a4.23,4.23,0,0,0,.48-2.07,3.14,3.14,0,0,0-.72-2.19,4,4,0,0,0-3.06-1.08h-5.73v-4.8Z"/><path d="M1473.77,310.78h-13.29l4.83,4.53v6.51l-6.18-6.33-7.23,6.84v-6.66l5.49-4.89h-5.49V306h21.87Z"/><path d="M1456.34,324.49a6.87,6.87,0,0,0-1,1.92,6.25,6.25,0,0,0-.33,1.86,2,2,0,0,0,.36,1.23.77.77,0,0,0,.63.24.71.71,0,0,0,.6-.24,3,3,0,0,0,.48-1.26l.3-1.26a4.31,4.31,0,0,1,1.17-2.34,3.24,3.24,0,0,1,2.31-.87,4.79,4.79,0,0,1,3.27,1.26,6.77,6.77,0,0,1,1.62,4.8,11.07,11.07,0,0,1-.87,4.29l-3.06-1.62a6.64,6.64,0,0,0,.66-2.52,2,2,0,0,0-.27-1.11.72.72,0,0,0-.66-.42.78.78,0,0,0-.75.57c-.18.45-.18.84-.39,1.59l-.24.87a5.67,5.67,0,0,1-1,2,3.79,3.79,0,0,1-2.67,1,4.48,4.48,0,0,1-3.33-1.35,7,7,0,0,1-1.68-4.95,9.89,9.89,0,0,1,1.56-5.4Z"/><rect x="729.5" y="423.59" width="153.5" height="89.83" rx="12" ry="12" style="fill:none;stroke:#f7931f;stroke-miterlimit:10;stroke-width:4.16851430687274px"/><path d="M752.49,458.27l4.8,12.18,4.86-12.18h5.64l-8.52,20h-4l-8.4-20Z"/><path d="M767.88,478.28l3.39-20h5.13L780.45,469l4.29-10.68h5.19l3,20h-5.19l-1.47-11.52-4.83,11.52h-2.07l-4.62-11.52L773,478.28Z"/><path d="M796.23,478.28v-20h5.19L811,470.51V458.27h5.19v20H811L801.42,466v12.24Z"/><path d="M834.15,472.46h-10a3.39,3.39,0,0,0,.84,2.25,2.7,2.7,0,0,0,2,.66,3.79,3.79,0,0,0,1.56-.36,2.23,2.23,0,0,0,.84-.9H834a6,6,0,0,1-1.62,2.76c-1,1-2.55,1.86-5.46,1.86a7.61,7.61,0,0,1-5.55-2,7,7,0,0,1-2-5.07,7.16,7.16,0,0,1,2-5.19,7.55,7.55,0,0,1,5.49-1.95,7.35,7.35,0,0,1,5.16,1.83,7.51,7.51,0,0,1,2.13,5.64Zm-4.41-2.76a3.22,3.22,0,0,0-.78-1.44,2.8,2.8,0,0,0-2-.72,2.58,2.58,0,0,0-2,.72,2.74,2.74,0,0,0-.72,1.44Z"/><path d="M842.22,468.8v9.48h-4.8V468.8h-1.53v-3.93h1.53v-4.41h4.8v4.41H845v3.93Z"/><path d="M852.18,467.6l-6.42-9.33h6.42l3,5.19,3.09-5.19h6.39l-6.51,9.33,7.56,10.68h-6.3l-4.26-6.51-4.5,6.51h-6.27Z"/><rect x="730.5" y="565.09" width="153.5" height="89.83" rx="12" ry="12" style="fill:none;stroke:#eb6a38;stroke-miterlimit:10;stroke-width:4.16851430687274px"/><path d="M754.56,599.77l4.8,12.18,4.85-12.18h5.64l-8.52,20h-4l-8.4-20Z"/><path d="M770,619.78l3.39-20h5.13l4,10.68,4.29-10.68H792l3,20h-5.19l-1.48-11.52-4.82,11.52h-2.07l-4.62-11.52-1.71,11.52Z"/><path d="M798.3,619.78v-20h5.19L813.06,612V599.77h5.19v20h-5.19l-9.57-12.24v12.24Z"/><path d="M836.21,614h-10a3.39,3.39,0,0,0,.84,2.25,2.69,2.69,0,0,0,2,.66,3.82,3.82,0,0,0,1.57-.36,2.23,2.23,0,0,0,.84-.9H836a6,6,0,0,1-1.62,2.76c-1,1-2.55,1.86-5.46,1.86a7.61,7.61,0,0,1-5.55-2,7,7,0,0,1-2-5.07,7.16,7.16,0,0,1,2-5.19,7.55,7.55,0,0,1,5.49-1.95,7.31,7.31,0,0,1,5.15,1.83,7.51,7.51,0,0,1,2.13,5.64Zm-4.4-2.76a3.32,3.32,0,0,0-.78-1.44,2.8,2.8,0,0,0-2-.72,2.57,2.57,0,0,0-1.94.72,2.74,2.74,0,0,0-.72,1.44Z"/><path d="M844.29,610.3v9.48h-4.8V610.3H838v-3.93h1.53V602h4.8v4.41H847v3.93Z"/><path d="M852.92,610.18l-7.23-10.41h6.21l3.78,5.46,3.63-5.46h6.3l-7.47,10.41v9.6h-5.22Z"/><rect x="948" y="422" width="156" height="54" rx="12" ry="12" style="fill:none;stroke:#f7931f;stroke-miterlimit:10;stroke-width:5px"/><rect x="948" y="616" width="156" height="54" rx="12" ry="12" style="fill:none;stroke:#eb6a38;stroke-miterlimit:10;stroke-width:5px"/><rect x="875" y="278" width="156" height="88" rx="12" ry="12" style="fill:none;stroke:#91c54f;stroke-miterlimit:10;stroke-width:5px"/><path d="M964.26,436.49l4.8,12.18,4.86-12.18h5.64l-8.52,20h-4l-8.4-20Z"/><path d="M992.37,453.14h-7.26l-1.35,3.36h-5.49l7.68-20h5.67l7.53,20H993.6Zm-1.38-4-2.25-6.48-2.19,6.48Z"/><path d="M1016.19,456.5h-4.8V455a4.92,4.92,0,0,1-4,1.92,6.42,6.42,0,0,1-4.71-1.86,7.4,7.4,0,0,1-2.16-5.34,7.31,7.31,0,0,1,2.19-5.31,6.86,6.86,0,0,1,4.74-1.8,5.31,5.31,0,0,1,4,1.74v-9.75h4.8Zm-5.67-4.44a3.22,3.22,0,0,0,1-2.28,3.51,3.51,0,0,0-.9-2.16,3.08,3.08,0,0,0-4.32,0,3.29,3.29,0,0,0-.93,2.28,3,3,0,0,0,.93,2.1,3,3,0,0,0,2.13.9A3.28,3.28,0,0,0,1010.52,452.06Z"/><path d="M1029.87,443.09h4.8V456.5h-4.8V455a5,5,0,0,1-4.17,1.92,6.42,6.42,0,0,1-4.83-2.13,6.76,6.76,0,0,1-1.92-4.92,7.42,7.42,0,0,1,2.07-5.37,6.9,6.9,0,0,1,4.83-1.89,5.31,5.31,0,0,1,4,1.74Zm-5,4.5a3.14,3.14,0,0,0-1,2.19,3.09,3.09,0,0,0,.93,2.19,3.37,3.37,0,0,0,2.16.9,3.08,3.08,0,0,0,2.16-.93,2.91,2.91,0,0,0,.9-2.16,3,3,0,0,0-.93-2.19,3,3,0,0,0-4.26,0Z"/><path d="M1042.77,463.37H1038V443.09h4.8v1.47a5,5,0,0,1,4.11-1.92,6.67,6.67,0,0,1,4.77,1.95,7.61,7.61,0,0,1-.12,10.5,6.44,6.44,0,0,1-4.59,1.86,5.71,5.71,0,0,1-4.17-1.74Zm.78-15.75a3.27,3.27,0,0,0-.93,2.22,3.24,3.24,0,0,0,.93,2.13,3.07,3.07,0,0,0,2.16.9,2.9,2.9,0,0,0,2.13-.9,3.17,3.17,0,0,0,.93-2.13,3.27,3.27,0,0,0-.93-2.22,2.9,2.9,0,0,0-2.13-.9A3.07,3.07,0,0,0,1043.55,447.62Z"/><path d="M1061.76,447v9.48H1057V447h-1.53v-3.93H1057v-4.41h4.8v4.41h2.73V447Z"/><path d="M1080.51,450.68h-10a3.39,3.39,0,0,0,.84,2.25,2.7,2.7,0,0,0,2,.66,3.79,3.79,0,0,0,1.56-.36,2.23,2.23,0,0,0,.84-.9h4.59a6,6,0,0,1-1.62,2.76c-1,1-2.55,1.86-5.46,1.86a7.61,7.61,0,0,1-5.55-2,7,7,0,0,1-2-5.07,7.16,7.16,0,0,1,2-5.19,7.55,7.55,0,0,1,5.49-1.95,7.35,7.35,0,0,1,5.16,1.83,7.51,7.51,0,0,1,2.13,5.64Zm-4.41-2.76a3.22,3.22,0,0,0-.78-1.44,2.8,2.8,0,0,0-2-.72,2.58,2.58,0,0,0-1.95.72,2.74,2.74,0,0,0-.72,1.44Z"/><path d="M1083.27,443.09h4.8v2.19a4.33,4.33,0,0,1,1.89-1.86,5.24,5.24,0,0,1,2.49-.54l1,.06v4.53a4.23,4.23,0,0,0-2.07-.48,3.14,3.14,0,0,0-2.19.72,4,4,0,0,0-1.08,3.06v5.73h-4.8Z"/><path d="M964.26,630.49l4.8,12.18,4.86-12.18h5.64l-8.52,20h-4l-8.4-20Z"/><path d="M992.37,647.14h-7.26l-1.35,3.36h-5.49l7.68-20h5.67l7.53,20H993.6Zm-1.38-4-2.25-6.48-2.19,6.48Z"/><path d="M1016.19,650.5h-4.8V649a4.92,4.92,0,0,1-4,1.92,6.42,6.42,0,0,1-4.71-1.86,7.4,7.4,0,0,1-2.16-5.34,7.31,7.31,0,0,1,2.19-5.31,6.86,6.86,0,0,1,4.74-1.8,5.31,5.31,0,0,1,4,1.74v-9.75h4.8Zm-5.67-4.44a3.22,3.22,0,0,0,1-2.28,3.51,3.51,0,0,0-.9-2.16,3.08,3.08,0,0,0-4.32,0,3.29,3.29,0,0,0-.93,2.28,3,3,0,0,0,.93,2.1,3,3,0,0,0,2.13.9A3.28,3.28,0,0,0,1010.52,646.06Z"/><path d="M1029.87,637.09h4.8V650.5h-4.8V649a5,5,0,0,1-4.17,1.92,6.42,6.42,0,0,1-4.83-2.13,6.76,6.76,0,0,1-1.92-4.92,7.42,7.42,0,0,1,2.07-5.37,6.9,6.9,0,0,1,4.83-1.89,5.31,5.31,0,0,1,4,1.74Zm-5,4.5a3.14,3.14,0,0,0-1,2.19,3.09,3.09,0,0,0,.93,2.19,3.37,3.37,0,0,0,2.16.9,3.08,3.08,0,0,0,2.16-.93,2.91,2.91,0,0,0,.9-2.16,3,3,0,0,0-.93-2.19,3,3,0,0,0-4.26,0Z"/><path d="M1042.77,657.37H1038V637.09h4.8v1.47a5,5,0,0,1,4.11-1.92,6.67,6.67,0,0,1,4.77,2,7.61,7.61,0,0,1-.12,10.5,6.44,6.44,0,0,1-4.59,1.86,5.71,5.71,0,0,1-4.17-1.74Zm.78-15.75a3.27,3.27,0,0,0-.93,2.22,3.24,3.24,0,0,0,.93,2.13,3.07,3.07,0,0,0,2.16.9,2.9,2.9,0,0,0,2.13-.9,3.17,3.17,0,0,0,.93-2.13,3.27,3.27,0,0,0-.93-2.22,2.9,2.9,0,0,0-2.13-.9A3.07,3.07,0,0,0,1043.55,641.62Z"/><path d="M1061.76,641v9.48H1057V641h-1.53v-3.93H1057v-4.41h4.8v4.41h2.73V641Z"/><path d="M1080.51,644.68h-10a3.39,3.39,0,0,0,.84,2.25,2.7,2.7,0,0,0,2,.66,3.79,3.79,0,0,0,1.56-.36,2.23,2.23,0,0,0,.84-.9h4.59a6,6,0,0,1-1.62,2.76c-1,1-2.55,1.86-5.46,1.86a7.61,7.61,0,0,1-5.55-2,7,7,0,0,1-2-5.07,7.16,7.16,0,0,1,2-5.19,7.55,7.55,0,0,1,5.49-1.95,7.35,7.35,0,0,1,5.16,1.83,7.51,7.51,0,0,1,2.13,5.64Zm-4.41-2.76a3.22,3.22,0,0,0-.78-1.44,2.8,2.8,0,0,0-2-.72,2.58,2.58,0,0,0-1.95.72,2.74,2.74,0,0,0-.72,1.44Z"/><path d="M1083.27,637.09h4.8v2.19a4.33,4.33,0,0,1,1.89-1.86,5.24,5.24,0,0,1,2.49-.54l1,.06v4.53a4.23,4.23,0,0,0-2.07-.48,3.14,3.14,0,0,0-2.19.72,4,4,0,0,0-1.08,3.06v5.73h-4.8Z"/><path d="M915.76,313.94v-20h6.8a11.17,11.17,0,0,1,8,2.76,9.79,9.79,0,0,1,2.79,7.29,9.19,9.19,0,0,1-2.62,6.92,10.84,10.84,0,0,1-7.67,3Zm5.19-4.41h1a6,6,0,0,0,4.38-1.44,5.44,5.44,0,0,0,1.52-4.1,6,6,0,0,0-1.55-4.38,5.83,5.83,0,0,0-4.14-1.26H921Z"/><path d="M941.8,301.41h7.49v-7.47h5.22v20h-5.22v-8.1H941.8v8.1h-5.2v-20h5.2Z"/><path d="M973.09,313.4a12.36,12.36,0,0,1-4.5,1,10.86,10.86,0,0,1-7.74-3,10.47,10.47,0,0,1-3-7.28,10.5,10.5,0,0,1,10.58-10.5,12.44,12.44,0,0,1,4.69,1v6.21a5.58,5.58,0,0,0-4.53-2.19A5,5,0,0,0,965,300a5.57,5.57,0,0,0-1.74,4.1,5.5,5.5,0,0,0,1.62,3.9,5.59,5.59,0,0,0,3.72,1.38,5.87,5.87,0,0,0,4.53-2.1Z"/><path d="M981.58,307.31v6.63h-5.19v-20h8.28a6.87,6.87,0,0,1,5.06,1.8,6.17,6.17,0,0,1,1.87,4.85,6.45,6.45,0,0,1-1.78,5,6.64,6.64,0,0,1-5,1.74Zm0-4.2h1.73a3.46,3.46,0,0,0,2.2-.62,2.29,2.29,0,0,0,.66-1.83,2.43,2.43,0,0,0-.61-1.8,3,3,0,0,0-2.21-.72h-1.77Z"/><path d="M905.63,344a7,7,0,0,0,4.59,2,2.63,2.63,0,0,0,2-.69,1.79,1.79,0,0,0,.51-1.26,1.58,1.58,0,0,0-.57-1.2,7.6,7.6,0,0,0-2.58-1.05l-1.35-.42a6.54,6.54,0,0,1-2.88-1.62,5,5,0,0,1-1.14-3.53,6.54,6.54,0,0,1,1.83-4.83,7.05,7.05,0,0,1,5.13-1.89,14.06,14.06,0,0,1,6.18,1.62l-2.07,4.05a5.28,5.28,0,0,0-3.42-1.35,2.49,2.49,0,0,0-1.71.6,1.48,1.48,0,0,0-.51,1.08,1.37,1.37,0,0,0,.27.9,3.23,3.23,0,0,0,1.74.89l1.59.48a7.82,7.82,0,0,1,3.63,2,4.72,4.72,0,0,1,1.29,3.57,6.78,6.78,0,0,1-1.89,5,7.76,7.76,0,0,1-5.91,2,10.7,10.7,0,0,1-3.93-.66,14,14,0,0,1-3-1.59Z"/><path d="M935.21,344.12h-10a3.39,3.39,0,0,0,.84,2.25,2.7,2.7,0,0,0,2,.66,3.79,3.79,0,0,0,1.56-.36,2.23,2.23,0,0,0,.84-.9H935a6,6,0,0,1-1.62,2.76c-1,1-2.55,1.86-5.46,1.86a7.61,7.61,0,0,1-5.55-2,7,7,0,0,1-2-5.07,7.17,7.17,0,0,1,2-5.19,7.55,7.55,0,0,1,5.49-1.94,7.38,7.38,0,0,1,5.16,1.82,7.52,7.52,0,0,1,2.13,5.64Zm-4.41-2.76a3.13,3.13,0,0,0-.78-1.43,2.81,2.81,0,0,0-2-.73,2.55,2.55,0,0,0-1.95.73,2.67,2.67,0,0,0-.72,1.43Z"/><path d="M938,336.53h4.8v2.19a4.38,4.38,0,0,1,1.89-1.86,5.36,5.36,0,0,1,2.49-.54c.12,0,.33,0,1,.07v4.52a4.36,4.36,0,0,0-2.07-.48,3.16,3.16,0,0,0-2.19.73,4,4,0,0,0-1.08,3v5.73H938Z"/><path d="M954,336.53l3.21,6.88,3.27-6.88h5.34l-7,13.41h-3.27l-6.93-13.41Z"/><path d="M969.83,328.26a2.7,2.7,0,1,1-2.7,2.7A2.69,2.69,0,0,1,969.83,328.26Zm2.4,8.27v13.41h-4.8V336.53Z"/><path d="M985.64,349.64a7.12,7.12,0,0,1-3.33.75,7.41,7.41,0,0,1-5.28-2,7,7,0,0,1-2.07-5,7.26,7.26,0,0,1,2.16-5.18,7.74,7.74,0,0,1,5.4-2.05,7,7,0,0,1,3.12.75v4a4.22,4.22,0,0,0-2.49-.88,3.15,3.15,0,0,0-2.34.94,3.23,3.23,0,0,0-.93,2.3,3.44,3.44,0,0,0,.84,2.25,3.26,3.26,0,0,0,2.46,1,3.63,3.63,0,0,0,2.46-.9Z"/><path d="M1002.59,344.12h-10a3.39,3.39,0,0,0,.84,2.25,2.7,2.7,0,0,0,2,.66,3.79,3.79,0,0,0,1.56-.36,2.23,2.23,0,0,0,.84-.9h4.59a6,6,0,0,1-1.62,2.76c-1,1-2.55,1.86-5.46,1.86a7.61,7.61,0,0,1-5.55-2,7,7,0,0,1-2-5.07,7.17,7.17,0,0,1,2-5.19,7.55,7.55,0,0,1,5.49-1.94,7.38,7.38,0,0,1,5.16,1.82,7.52,7.52,0,0,1,2.13,5.64Zm-4.41-2.76a3.13,3.13,0,0,0-.78-1.43,2.81,2.81,0,0,0-2-.73,2.55,2.55,0,0,0-1.95.73,2.67,2.67,0,0,0-.72,1.43Z"/><rect x="949" y="498" width="156" height="88" rx="12" ry="12" style="fill:none;stroke:#91c54f;stroke-miterlimit:10;stroke-width:5px"/><path d="M989.76,533.94v-20h6.8a11.17,11.17,0,0,1,8,2.76,9.79,9.79,0,0,1,2.79,7.29,9.19,9.19,0,0,1-2.62,6.92,10.84,10.84,0,0,1-7.67,3Zm5.19-4.41h1a6,6,0,0,0,4.38-1.44,5.44,5.44,0,0,0,1.52-4.1,6,6,0,0,0-1.55-4.38,5.83,5.83,0,0,0-4.14-1.26H995Z"/><path d="M1015.8,521.41h7.49v-7.47h5.22v20h-5.22v-8.1h-7.49v8.1h-5.2v-20h5.2Z"/><path d="M1047.09,533.4a12.36,12.36,0,0,1-4.5,1,10.86,10.86,0,0,1-7.74-3,10.47,10.47,0,0,1-3-7.28,10.5,10.5,0,0,1,10.58-10.5,12.44,12.44,0,0,1,4.69,1v6.21a5.58,5.58,0,0,0-4.53-2.19A5,5,0,0,0,1039,520a5.57,5.57,0,0,0-1.74,4.1,5.5,5.5,0,0,0,1.62,3.9,5.59,5.59,0,0,0,3.72,1.38,5.87,5.87,0,0,0,4.53-2.1Z"/><path d="M1055.58,527.31v6.63h-5.19v-20h8.28a6.87,6.87,0,0,1,5.06,1.8,6.17,6.17,0,0,1,1.87,4.85,6.45,6.45,0,0,1-1.78,5,6.64,6.64,0,0,1-5,1.74Zm0-4.2h1.73a3.46,3.46,0,0,0,2.2-.62,2.29,2.29,0,0,0,.66-1.83,2.43,2.43,0,0,0-.61-1.8,3,3,0,0,0-2.21-.72h-1.77Z"/><path d="M979.63,564a7,7,0,0,0,4.59,2,2.63,2.63,0,0,0,2-.69,1.79,1.79,0,0,0,.51-1.26,1.58,1.58,0,0,0-.57-1.2,7.6,7.6,0,0,0-2.58-1.05l-1.35-.42a6.54,6.54,0,0,1-2.88-1.62,5,5,0,0,1-1.14-3.53,6.54,6.54,0,0,1,1.83-4.83,7.05,7.05,0,0,1,5.13-1.89,14.06,14.06,0,0,1,6.18,1.62l-2.07,4a5.28,5.28,0,0,0-3.42-1.35,2.49,2.49,0,0,0-1.71.6,1.48,1.48,0,0,0-.51,1.08,1.37,1.37,0,0,0,.27.9,3.23,3.23,0,0,0,1.74.89l1.59.48a7.82,7.82,0,0,1,3.63,2,4.72,4.72,0,0,1,1.29,3.57,6.78,6.78,0,0,1-1.89,5,7.76,7.76,0,0,1-5.91,2,10.7,10.7,0,0,1-3.93-.66,14,14,0,0,1-3-1.59Z"/><path d="M1009.21,564.12h-10a3.39,3.39,0,0,0,.84,2.25,2.7,2.7,0,0,0,2,.66,3.79,3.79,0,0,0,1.56-.36,2.23,2.23,0,0,0,.84-.9H1009a6,6,0,0,1-1.62,2.76c-1,1-2.55,1.86-5.46,1.86a7.61,7.61,0,0,1-5.55-2,7,7,0,0,1-2-5.07,7.17,7.17,0,0,1,2-5.19,7.55,7.55,0,0,1,5.49-1.94,7.38,7.38,0,0,1,5.16,1.82,7.52,7.52,0,0,1,2.13,5.64Zm-4.41-2.76a3.13,3.13,0,0,0-.78-1.43,2.81,2.81,0,0,0-2-.73,2.55,2.55,0,0,0-1.95.73,2.67,2.67,0,0,0-.72,1.43Z"/><path d="M1012,556.53h4.8v2.19a4.38,4.38,0,0,1,1.89-1.86,5.36,5.36,0,0,1,2.49-.54c.12,0,.33,0,1,.07v4.52a4.36,4.36,0,0,0-2.07-.48,3.16,3.16,0,0,0-2.19.73,4,4,0,0,0-1.08,3.05v5.73H1012Z"/><path d="M1028,556.53l3.21,6.88,3.27-6.88h5.34l-7,13.41h-3.27l-6.93-13.41Z"/><path d="M1043.83,548.26a2.7,2.7,0,1,1-2.7,2.7A2.69,2.69,0,0,1,1043.83,548.26Zm2.4,8.27v13.41h-4.8V556.53Z"/><path d="M1059.64,569.64a7.12,7.12,0,0,1-3.33.75,7.41,7.41,0,0,1-5.28-2,7,7,0,0,1-2.07-5,7.26,7.26,0,0,1,2.16-5.18,7.74,7.74,0,0,1,5.4-2,7,7,0,0,1,3.12.75v4a4.22,4.22,0,0,0-2.49-.88,3.15,3.15,0,0,0-2.34.94,3.23,3.23,0,0,0-.93,2.3,3.44,3.44,0,0,0,.84,2.25,3.26,3.26,0,0,0,2.46,1,3.63,3.63,0,0,0,2.46-.9Z"/><path d="M1076.59,564.12h-10a3.39,3.39,0,0,0,.84,2.25,2.7,2.7,0,0,0,2,.66,3.79,3.79,0,0,0,1.56-.36,2.23,2.23,0,0,0,.84-.9h4.59a6,6,0,0,1-1.62,2.76c-1,1-2.55,1.86-5.46,1.86a7.61,7.61,0,0,1-5.55-2,7,7,0,0,1-2-5.07,7.17,7.17,0,0,1,2-5.19,7.55,7.55,0,0,1,5.49-1.94,7.38,7.38,0,0,1,5.16,1.82,7.52,7.52,0,0,1,2.13,5.64Zm-4.41-2.76a3.13,3.13,0,0,0-.78-1.43,2.81,2.81,0,0,0-2-.73,2.55,2.55,0,0,0-2,.73,2.67,2.67,0,0,0-.72,1.43Z"/><line x1="666" y1="460" x2="729" y2="460" style="fill:none;stroke:#f7931f;stroke-miterlimit:10;stroke-width:4.16851430687274px"/><line x1="731" y1="490" x2="685" y2="490" style="fill:none;stroke:#f7931f;stroke-miterlimit:10;stroke-width:4.16851430687274px"/><line x1="687" y1="588" x2="687" y2="490" style="fill:none;stroke:#f7931f;stroke-miterlimit:10;stroke-width:4.16851430687274px"/><line x1="666" y1="588" x2="689" y2="588" style="fill:none;stroke:#f7931f;stroke-miterlimit:10;stroke-width:4.16851430687274px"/><line x1="731" y1="620" x2="666" y2="620" style="fill:none;stroke:#eb6a38;stroke-miterlimit:10;stroke-width:4.16851430687274px"/><rect x="422.5" y="550.5" width="244" height="119" rx="12" ry="12" style="fill:none;stroke:#3a5c84;stroke-miterlimit:10;stroke-width:5px"/><rect x="422" y="409" width="244" height="119" rx="12" ry="12" style="fill:none;stroke:#3a5c84;stroke-miterlimit:10;stroke-width:5px"/><line x1="883.5" y1="453.5" x2="947.5" y2="453.5" style="fill:none;stroke:#f7931f;stroke-miterlimit:10;stroke-width:4.16851430687274px"/><line x1="884" y1="633" x2="948" y2="633" style="fill:none;stroke:#eb6a38;stroke-miterlimit:10;stroke-width:5px"/><line x1="947.5" y1="544.5" x2="911.5" y2="544.5" style="fill:none;stroke:#91c54f;stroke-miterlimit:10;stroke-width:5px"/><line x1="909.5" y1="474.5" x2="909.5" y2="606" style="fill:none;stroke:#91c54f;stroke-miterlimit:10;stroke-width:5px"/><line x1="666" y1="318" x2="875" y2="318" style="fill:none;stroke:#91c54f;stroke-miterlimit:10;stroke-width:5px"/><rect x="422" y="243" width="244" height="119" rx="12" ry="12" style="fill:none;stroke:#3a5c84;stroke-miterlimit:10;stroke-width:5px"/></svg>