<svg id="Layer_1" data-name="Layer 1" xmlns="http://www.w3.org/2000/svg" viewBox="0 0 742 484"><title>Cap 15 -</title><rect x="31" y="23.5" width="340" height="438" rx="12" ry="12" style="fill:none;stroke:#3a5c84;stroke-miterlimit:10;stroke-width:7px"/><rect x="371" y="242.5" width="340" height="219" rx="12" ry="12" style="fill:none;stroke:#3a5c84;stroke-miterlimit:10;stroke-width:7px"/><rect x="371" y="23.5" width="340" height="219" rx="12" ry="12" style="fill:none;stroke:#3a5c84;stroke-miterlimit:10;stroke-width:7px"/><path d="M450.86,88.27C525.72-68.66,506,340.53,631.14,88.09" style="fill:none;stroke:#91c54f;stroke-miterlimit:10;stroke-width:5px"/><path d="M402.44,192.32v9.87a3.4,3.4,0,0,0,.85,2.58,3.06,3.06,0,0,0,4,.07,3.64,3.64,0,0,0,1-3v-9.5h4.33v9.57a6.77,6.77,0,0,1-1.88,5.4,7.19,7.19,0,0,1-5.5,2.08,7.45,7.45,0,0,1-5.52-2c-1.45-1.58-1.62-3.7-1.62-5.48v-9.57Z"/><path d="M415.77,197.82h4v1.4a4.22,4.22,0,0,1,3.55-1.65,4.53,4.53,0,0,1,3.3,1.2,3.85,3.85,0,0,1,1.05,3.12V209h-4v-5.65a3.17,3.17,0,0,0-.5-2.17,1.66,1.66,0,0,0-1.27-.48,2.2,2.2,0,0,0-1.48.53,2.56,2.56,0,0,0-.65,1.77v6h-4Z"/><path d="M443,209h-4v-1.22a4.11,4.11,0,0,1-3.38,1.6,5.38,5.38,0,0,1-3.92-1.55,6.19,6.19,0,0,1-1.8-4.45,6.09,6.09,0,0,1,1.83-4.43,5.73,5.73,0,0,1,3.94-1.49A4.41,4.41,0,0,1,439,198.9v-8.13h4Zm-4.73-3.7a2.64,2.64,0,0,0,.85-1.9,3,3,0,0,0-.75-1.8,2.56,2.56,0,0,0-3.6,0,2.74,2.74,0,0,0-.77,1.9,2.56,2.56,0,0,0,.77,1.75,2.48,2.48,0,0,0,1.78.75A2.68,2.68,0,0,0,438.31,205.29Z"/><path d="M454.44,197.82h4V209h-4v-1.22a4.2,4.2,0,0,1-3.48,1.6,5.33,5.33,0,0,1-4-1.78,5.65,5.65,0,0,1-1.6-4.1,6.19,6.19,0,0,1,1.73-4.47,5.74,5.74,0,0,1,4-1.57,4.41,4.41,0,0,1,3.35,1.45Zm2.2-5.75a4,4,0,0,1-1.1,2.73,5.28,5.28,0,0,1-6.5,0,4,4,0,0,1-1.1-2.73h2.57a1.76,1.76,0,0,0,.5,1,2.07,2.07,0,0,0,1.28.45,2,2,0,0,0,1.27-.45,1.76,1.76,0,0,0,.5-1Zm-6.4,9.5a2.5,2.5,0,0,0,0,3.65A2.78,2.78,0,0,0,452,206a2.57,2.57,0,0,0,1.8-.78,2.43,2.43,0,0,0,.75-1.8,2.48,2.48,0,0,0-.77-1.82,2.52,2.52,0,0,0-3.55,0Z"/><path d="M479.66,209h-4v-1.22a4.09,4.09,0,0,1-3.37,1.6,5.38,5.38,0,0,1-3.93-1.55,6.36,6.36,0,0,1,0-8.88,5.74,5.74,0,0,1,3.95-1.49,4.39,4.39,0,0,1,3.32,1.45v-8.13h4Zm-4.72-3.7a2.68,2.68,0,0,0,.85-1.9,3,3,0,0,0-.75-1.8,2.48,2.48,0,0,0-1.83-.75,2.44,2.44,0,0,0-1.77.73,2.75,2.75,0,0,0-.78,1.9,2.53,2.53,0,0,0,.78,1.75,2.48,2.48,0,0,0,1.77.75A2.73,2.73,0,0,0,474.94,205.29Z"/><path d="M494.26,204.14h-8.32a2.82,2.82,0,0,0,.7,1.88,2.25,2.25,0,0,0,1.65.55,3.24,3.24,0,0,0,1.3-.3,1.9,1.9,0,0,0,.7-.75h3.82a5,5,0,0,1-1.35,2.3,6.06,6.06,0,0,1-4.55,1.55,6.35,6.35,0,0,1-4.62-1.7,5.89,5.89,0,0,1-1.65-4.23,6,6,0,0,1,1.67-4.32,6.31,6.31,0,0,1,4.58-1.62,6.12,6.12,0,0,1,4.3,1.52,6.27,6.27,0,0,1,1.77,4.7Zm-3.67-2.3a2.62,2.62,0,0,0-.65-1.19,2.33,2.33,0,0,0-1.65-.61,2.15,2.15,0,0,0-1.63.61,2.28,2.28,0,0,0-.6,1.19Z"/><path d="M503.11,205.29a6,6,0,0,0,1.6.83,5.38,5.38,0,0,0,1.55.27,1.68,1.68,0,0,0,1-.3.64.64,0,0,0,.2-.52.6.6,0,0,0-.2-.5,2.43,2.43,0,0,0-1.05-.4l-1.05-.25a3.64,3.64,0,0,1-1.95-1,2.67,2.67,0,0,1-.73-1.92,4,4,0,0,1,1.05-2.72,5.62,5.62,0,0,1,4-1.35,9.37,9.37,0,0,1,3.58.72l-1.35,2.55a5.56,5.56,0,0,0-2.1-.55,1.62,1.62,0,0,0-.93.23.59.59,0,0,0-.35.54.66.66,0,0,0,.48.63c.37.15.7.15,1.32.32l.73.2a4.74,4.74,0,0,1,1.65.88,3.15,3.15,0,0,1,.85,2.22,3.76,3.76,0,0,1-1.13,2.78,5.81,5.81,0,0,1-4.12,1.4,8.28,8.28,0,0,1-4.5-1.3Z"/><path d="M517.49,197.82v6.25a2.11,2.11,0,0,0,.6,1.62,2.06,2.06,0,0,0,1.4.43,1.85,1.85,0,0,0,1.42-.48,2.07,2.07,0,0,0,.58-1.57v-6.25h4v7a3.84,3.84,0,0,1-1.08,3,6.35,6.35,0,0,1-4.82,1.58c-1.68,0-3.73-.18-5.05-1.6a4,4,0,0,1-1-3v-7Z"/><path d="M528.24,197.82h4v1.4a4.21,4.21,0,0,1,3.55-1.65,4.55,4.55,0,0,1,3.3,1.2,3.85,3.85,0,0,1,1,3.12V209h-4v-5.65a3.22,3.22,0,0,0-.5-2.17,1.7,1.7,0,0,0-1.28-.48,2.18,2.18,0,0,0-1.47.53,2.56,2.56,0,0,0-.65,1.77v6h-4Z"/><path d="M554.71,204.14h-8.32a2.82,2.82,0,0,0,.7,1.88,2.25,2.25,0,0,0,1.65.55,3.24,3.24,0,0,0,1.3-.3,1.9,1.9,0,0,0,.7-.75h3.82a5,5,0,0,1-1.35,2.3,6.06,6.06,0,0,1-4.55,1.55,6.35,6.35,0,0,1-4.62-1.7,5.85,5.85,0,0,1-1.65-4.23,6,6,0,0,1,1.67-4.32,6.31,6.31,0,0,1,4.58-1.62,6.12,6.12,0,0,1,4.3,1.52,6.27,6.27,0,0,1,1.77,4.7Zm-3.67-2.3a2.62,2.62,0,0,0-.65-1.19,2.33,2.33,0,0,0-1.65-.61,2.15,2.15,0,0,0-1.63.61,2.28,2.28,0,0,0-.6,1.19Z"/><path d="M561.44,201.09V209h-4v-7.9h-1.28v-3.27h1.28v-3.67h4v3.67h2.27v3.27Z"/><path d="M579.69,197.82h4V209h-4v-1.22a4.2,4.2,0,0,1-3.48,1.6,5.33,5.33,0,0,1-4-1.78,5.61,5.61,0,0,1-1.6-4.1,6.19,6.19,0,0,1,1.72-4.47,5.76,5.76,0,0,1,4-1.57,4.41,4.41,0,0,1,3.35,1.45Zm-4.2,3.75a2.51,2.51,0,0,0,0,3.65,2.83,2.83,0,0,0,1.8.75,2.57,2.57,0,0,0,1.8-.78,2.43,2.43,0,0,0,.75-1.8,2.48,2.48,0,0,0-.77-1.82,2.52,2.52,0,0,0-3.55,0Z"/><path d="M586.44,197.82h4v1.4a4.21,4.21,0,0,1,3.55-1.65,4.55,4.55,0,0,1,3.3,1.2,3.85,3.85,0,0,1,1.05,3.12V209h-4v-5.65a3.22,3.22,0,0,0-.5-2.17,1.7,1.7,0,0,0-1.28-.48,2.18,2.18,0,0,0-1.47.53,2.56,2.56,0,0,0-.65,1.77v6h-4Z"/><path d="M609.71,197.82h4V209h-4v-1.22a4.17,4.17,0,0,1-3.47,1.6,5.35,5.35,0,0,1-4-1.78,5.65,5.65,0,0,1-1.6-4.1,6.19,6.19,0,0,1,1.73-4.47,5.74,5.74,0,0,1,4-1.57,4.4,4.4,0,0,1,3.35,1.45Zm-4.2,3.75a2.5,2.5,0,0,0,0,3.65,2.79,2.79,0,0,0,1.8.75,2.57,2.57,0,0,0,1.8-.78,2.43,2.43,0,0,0,.75-1.8,2.46,2.46,0,0,0-.78-1.82,2.52,2.52,0,0,0-3.55,0Z"/><path d="M620.46,190.77V209h-4V190.77Z"/><path d="M634.44,207.52a7.65,7.65,0,0,1-10,0,5.6,5.6,0,0,1-1.72-4.13,5.53,5.53,0,0,1,1.72-4.09,7.65,7.65,0,0,1,10,0,5.53,5.53,0,0,1,1.72,4.09A5.6,5.6,0,0,1,634.44,207.52Zm-6.78-6a2.55,2.55,0,0,0-.77,1.82,2.55,2.55,0,0,0,4.35,1.78,2.48,2.48,0,0,0,.77-1.78,2.7,2.7,0,0,0-.77-1.82,2.56,2.56,0,0,0-3.58,0Z"/><path d="M651,197.82v10.47a6,6,0,0,1-1.52,4.63,6.65,6.65,0,0,1-4.92,1.8,6.87,6.87,0,0,1-5.23-2,4,4,0,0,1-1.22-2.32h4.45a1.71,1.71,0,0,0,1.87,1.15,2.45,2.45,0,0,0,1.78-.63,2.69,2.69,0,0,0,.8-2.07v-1.13a4.24,4.24,0,0,1-3.35,1.48,5.56,5.56,0,0,1-4.13-1.58,5.89,5.89,0,0,1-1.55-4.07,6.49,6.49,0,0,1,1.65-4.38,5.64,5.64,0,0,1,4.05-1.69A4.39,4.39,0,0,1,647,199v-1.15Zm-8.14,3.75a2.49,2.49,0,0,0,0,3.62,2.51,2.51,0,0,0,1.8.73,2.56,2.56,0,0,0,2.55-2.55,2.91,2.91,0,0,0-.8-1.83,2.53,2.53,0,0,0-1.78-.72A2.35,2.35,0,0,0,642.89,201.57Z"/><path d="M655.79,190.92a2.25,2.25,0,1,1-2.25,2.25A2.24,2.24,0,0,1,655.79,190.92Zm2,6.9V209h-4V197.82Z"/><path d="M669,208.74a5.87,5.87,0,0,1-2.77.63,6.18,6.18,0,0,1-4.4-1.7,5.87,5.87,0,0,1-1.73-4.18,6.09,6.09,0,0,1,1.8-4.32,6.45,6.45,0,0,1,4.5-1.7,5.75,5.75,0,0,1,2.6.63v3.34a3.57,3.57,0,0,0-2.07-.72,2.62,2.62,0,0,0-1.95.77,2.74,2.74,0,0,0-.78,1.93,2.88,2.88,0,0,0,.7,1.87,2.73,2.73,0,0,0,2,.85,3,3,0,0,0,2.05-.75Z"/><path d="M679.89,197.82h4V209h-4v-1.22a4.2,4.2,0,0,1-3.48,1.6,5.33,5.33,0,0,1-4-1.78,5.61,5.61,0,0,1-1.6-4.1,6.19,6.19,0,0,1,1.72-4.47,5.76,5.76,0,0,1,4-1.57,4.41,4.41,0,0,1,3.35,1.45Zm2.19-5.75a3.92,3.92,0,0,1-1.1,2.73,5.26,5.26,0,0,1-6.49,0,3.92,3.92,0,0,1-1.1-2.73H676a1.76,1.76,0,0,0,.5,1,2.07,2.07,0,0,0,1.28.45,2,2,0,0,0,1.27-.45,1.76,1.76,0,0,0,.5-1Zm-6.39,9.5a2.51,2.51,0,0,0,0,3.65,2.83,2.83,0,0,0,1.8.75,2.57,2.57,0,0,0,1.8-.78,2.43,2.43,0,0,0,.75-1.8,2.48,2.48,0,0,0-.77-1.82,2.52,2.52,0,0,0-3.55,0Z"/><path d="M86.72,179.25C181.63-19.69,156.61,499,315.28,179" style="fill:none;stroke:#91c54f;stroke-miterlimit:10;stroke-width:5px"/><path d="M67,330.24v9.87a3.36,3.36,0,0,0,.85,2.58,3.06,3.06,0,0,0,4.05.07,3.64,3.64,0,0,0,1-3v-9.5h4.33v9.57a6.77,6.77,0,0,1-1.88,5.4,7.19,7.19,0,0,1-5.5,2.08,7.43,7.43,0,0,1-5.52-2c-1.45-1.58-1.63-3.7-1.63-5.48v-9.57Z"/><path d="M80.35,335.74h4v1.4a4.22,4.22,0,0,1,3.55-1.65,4.49,4.49,0,0,1,3.3,1.2,3.85,3.85,0,0,1,1,3.12v7.1h-4v-5.65a3.17,3.17,0,0,0-.5-2.17,1.66,1.66,0,0,0-1.27-.48,2.2,2.2,0,0,0-1.48.53,2.56,2.56,0,0,0-.65,1.77v6h-4Z"/><path d="M107.63,346.91h-4v-1.22a4.11,4.11,0,0,1-3.38,1.6,5.36,5.36,0,0,1-3.92-1.55,6.35,6.35,0,0,1,0-8.88,5.72,5.72,0,0,1,4-1.5,4.45,4.45,0,0,1,3.33,1.45v-8.12h4Zm-4.73-3.7a2.64,2.64,0,0,0,.85-1.9,3,3,0,0,0-.75-1.8,2.56,2.56,0,0,0-3.6,0,2.74,2.74,0,0,0-.77,1.9,2.56,2.56,0,0,0,.77,1.75,2.48,2.48,0,0,0,1.78.75A2.68,2.68,0,0,0,102.9,343.21Z"/><path d="M119,335.74h4v11.17h-4v-1.22a4.2,4.2,0,0,1-3.48,1.6,5.33,5.33,0,0,1-4-1.78,5.61,5.61,0,0,1-1.6-4.1,6.17,6.17,0,0,1,1.72-4.47,5.77,5.77,0,0,1,4-1.58,4.45,4.45,0,0,1,3.35,1.45Zm2.2-5.75a4,4,0,0,1-1.1,2.72,5.24,5.24,0,0,1-6.5,0,3.88,3.88,0,0,1-1.1-2.72h2.57a1.71,1.71,0,0,0,.5,1,2,2,0,0,0,1.28.45,2,2,0,0,0,1.27-.45,1.71,1.71,0,0,0,.5-1Zm-6.4,9.5a2.51,2.51,0,0,0,0,3.65,2.83,2.83,0,0,0,1.8.75,2.57,2.57,0,0,0,1.8-.78,2.43,2.43,0,0,0,.75-1.8,2.48,2.48,0,0,0-.77-1.82,2.52,2.52,0,0,0-3.55,0Z"/><path d="M144.25,346.91h-4v-1.22a4.09,4.09,0,0,1-3.37,1.6,5.38,5.38,0,0,1-3.93-1.55,6.19,6.19,0,0,1-1.8-4.45,6.09,6.09,0,0,1,1.83-4.43,5.71,5.71,0,0,1,4-1.5,4.43,4.43,0,0,1,3.32,1.45v-8.12h4Zm-4.72-3.7a2.68,2.68,0,0,0,.85-1.9,3,3,0,0,0-.75-1.8,2.48,2.48,0,0,0-1.83-.75,2.44,2.44,0,0,0-1.77.73,2.75,2.75,0,0,0-.78,1.9,2.53,2.53,0,0,0,.78,1.75,2.48,2.48,0,0,0,1.77.75A2.73,2.73,0,0,0,139.53,343.21Z"/><path d="M158.85,342.06h-8.32a2.82,2.82,0,0,0,.7,1.88,2.25,2.25,0,0,0,1.65.55,3.24,3.24,0,0,0,1.3-.3,1.9,1.9,0,0,0,.7-.75h3.82a5,5,0,0,1-1.35,2.3,6.06,6.06,0,0,1-4.55,1.55,6.35,6.35,0,0,1-4.62-1.7,5.85,5.85,0,0,1-1.65-4.23A6,6,0,0,1,148.2,337a6.31,6.31,0,0,1,4.58-1.63,6.14,6.14,0,0,1,4.3,1.53,6.27,6.27,0,0,1,1.77,4.7Zm-3.67-2.3a2.71,2.71,0,0,0-.65-1.2,2.36,2.36,0,0,0-1.65-.6,2.18,2.18,0,0,0-1.63.6,2.36,2.36,0,0,0-.6,1.2Z"/><path d="M167.7,343.21a6,6,0,0,0,1.6.83,5.38,5.38,0,0,0,1.55.27,1.68,1.68,0,0,0,1-.3.64.64,0,0,0,.2-.52.6.6,0,0,0-.2-.5,2.43,2.43,0,0,0-1-.4l-1.05-.25a3.64,3.64,0,0,1-1.95-1,2.67,2.67,0,0,1-.73-1.92,4,4,0,0,1,1.05-2.73,5.67,5.67,0,0,1,4-1.35,9.14,9.14,0,0,1,3.58.73l-1.35,2.55a5.56,5.56,0,0,0-2.1-.55,1.71,1.71,0,0,0-.93.22.61.61,0,0,0-.35.55.66.66,0,0,0,.48.63c.37.15.7.15,1.32.32l.73.2a4.74,4.74,0,0,1,1.65.88,3.15,3.15,0,0,1,.85,2.22,3.76,3.76,0,0,1-1.13,2.78,5.81,5.81,0,0,1-4.12,1.4,8.28,8.28,0,0,1-4.5-1.3Z"/><path d="M182.08,335.74V342a2.11,2.11,0,0,0,.6,1.62,2.06,2.06,0,0,0,1.4.43,1.85,1.85,0,0,0,1.42-.48,2.07,2.07,0,0,0,.58-1.57v-6.25h4v7a3.82,3.82,0,0,1-1.07,3,6.35,6.35,0,0,1-4.82,1.58c-1.68,0-3.73-.18-5.05-1.6a4,4,0,0,1-1-3v-7Z"/><path d="M192.83,335.74h4v1.4a4.21,4.21,0,0,1,3.55-1.65,4.51,4.51,0,0,1,3.3,1.2,3.87,3.87,0,0,1,1,3.12v7.1h-4v-5.65a3.22,3.22,0,0,0-.5-2.17,1.7,1.7,0,0,0-1.28-.48,2.18,2.18,0,0,0-1.47.53,2.56,2.56,0,0,0-.65,1.77v6h-4Z"/><path d="M219.3,342.06H211a2.82,2.82,0,0,0,.7,1.88,2.25,2.25,0,0,0,1.65.55,3.24,3.24,0,0,0,1.3-.3,1.9,1.9,0,0,0,.7-.75h3.82a5,5,0,0,1-1.35,2.3,6.07,6.07,0,0,1-4.55,1.55,6.35,6.35,0,0,1-4.62-1.7,5.85,5.85,0,0,1-1.65-4.23,6,6,0,0,1,1.67-4.32,6.31,6.31,0,0,1,4.58-1.63,6.1,6.1,0,0,1,4.29,1.53,6.24,6.24,0,0,1,1.78,4.7Zm-3.67-2.3a2.71,2.71,0,0,0-.65-1.2,2.36,2.36,0,0,0-1.65-.6,2.18,2.18,0,0,0-1.63.6,2.36,2.36,0,0,0-.6,1.2Z"/><path d="M226,339v7.9h-4V339h-1.28v-3.27H222v-3.68h4v3.68h2.27V339Z"/><path d="M246.87,345.44a7.64,7.64,0,0,1-10,0,5.6,5.6,0,0,1-1.72-4.13,5.54,5.54,0,0,1,1.72-4.1,7,7,0,0,1,5-1.85,7.06,7.06,0,0,1,5,1.85,5.51,5.51,0,0,1,1.73,4.1A5.57,5.57,0,0,1,246.87,345.44Zm-6.77-5.95a2.55,2.55,0,0,0-.77,1.82,2.6,2.6,0,0,0,2.57,2.53,2.54,2.54,0,0,0,1.77-.75,2.49,2.49,0,0,0,.78-1.78,2.58,2.58,0,0,0-2.55-2.55A2.74,2.74,0,0,0,240.1,339.49Z"/><path d="M250.9,335.74h4v1.82a3.6,3.6,0,0,1,1.57-1.55,4.44,4.44,0,0,1,2.08-.45c.1,0,.27,0,.8.05v3.78a3.54,3.54,0,0,0-1.73-.4,2.59,2.59,0,0,0-1.82.6,3.37,3.37,0,0,0-.9,2.55v4.77h-4Z"/><path d="M263.12,328.84a2.25,2.25,0,1,1-2.24,2.25A2.24,2.24,0,0,1,263.12,328.84Zm2,6.9v11.17h-4V335.74Z"/><path d="M280.42,335.74v10.47a6,6,0,0,1-1.52,4.62,6.67,6.67,0,0,1-4.93,1.8,6.84,6.84,0,0,1-5.22-2,4.15,4.15,0,0,1-1.23-2.32H272a1.72,1.72,0,0,0,1.88,1.14,2.41,2.41,0,0,0,1.77-.62,2.68,2.68,0,0,0,.8-2.07v-1.13a4.24,4.24,0,0,1-3.35,1.48,5.53,5.53,0,0,1-4.12-1.58,5.89,5.89,0,0,1-1.55-4.07,6.44,6.44,0,0,1,1.65-4.38,5.62,5.62,0,0,1,4.05-1.7,4.34,4.34,0,0,1,3.32,1.48v-1.15Zm-8.15,3.75a2.64,2.64,0,0,0-.77,1.8,2.6,2.6,0,0,0,.77,1.82,2.52,2.52,0,0,0,1.8.73,2.65,2.65,0,0,0,1.8-.75,2.68,2.68,0,0,0,.75-1.8,2.86,2.86,0,0,0-.8-1.83,2.53,2.53,0,0,0-1.77-.72A2.38,2.38,0,0,0,272.27,339.49Z"/><path d="M285.17,328.84a2.25,2.25,0,1,1-2.24,2.25A2.24,2.24,0,0,1,285.17,328.84Zm2,6.9v11.17h-4V335.74Z"/><path d="M289.9,335.74h4v1.4a4.21,4.21,0,0,1,3.55-1.65,4.51,4.51,0,0,1,3.3,1.2,3.85,3.85,0,0,1,1.05,3.12v7.1h-4v-5.65a3.22,3.22,0,0,0-.5-2.17,1.7,1.7,0,0,0-1.28-.48,2.18,2.18,0,0,0-1.47.53,2.56,2.56,0,0,0-.65,1.77v6h-4Z"/><path d="M313.17,335.74h4v11.17h-4v-1.22a4.17,4.17,0,0,1-3.47,1.6,5.35,5.35,0,0,1-4-1.78,5.65,5.65,0,0,1-1.6-4.1,6.17,6.17,0,0,1,1.73-4.47,5.74,5.74,0,0,1,4-1.58,4.43,4.43,0,0,1,3.35,1.45Zm-4.2,3.75a2.5,2.5,0,0,0,0,3.65,2.79,2.79,0,0,0,1.8.75,2.57,2.57,0,0,0,1.8-.78,2.43,2.43,0,0,0,.75-1.8,2.46,2.46,0,0,0-.78-1.82,2.52,2.52,0,0,0-3.55,0Z"/><path d="M323.92,328.69v18.22h-4V328.69Z"/><path d="M335.3,335.74h4v11.17h-4v-1.22a4.2,4.2,0,0,1-3.48,1.6,5.33,5.33,0,0,1-4-1.78,5.61,5.61,0,0,1-1.6-4.1,6.17,6.17,0,0,1,1.72-4.47,5.77,5.77,0,0,1,4-1.58,4.45,4.45,0,0,1,3.35,1.45Zm2.2-5.75a4,4,0,0,1-1.1,2.72,5.24,5.24,0,0,1-6.5,0,3.88,3.88,0,0,1-1.1-2.72h2.57a1.71,1.71,0,0,0,.5,1,2,2,0,0,0,1.28.45,2,2,0,0,0,1.27-.45,1.71,1.71,0,0,0,.5-1Zm-6.4,9.5a2.51,2.51,0,0,0,0,3.65,2.83,2.83,0,0,0,1.8.75,2.57,2.57,0,0,0,1.8-.78,2.43,2.43,0,0,0,.75-1.8,2.48,2.48,0,0,0-.77-1.82,2.52,2.52,0,0,0-3.55,0Z"/><path d="M415.29,412.33v9.87a3.4,3.4,0,0,0,.85,2.58,3.06,3.06,0,0,0,4.05.07,3.64,3.64,0,0,0,1-3v-9.5h4.33v9.57a6.77,6.77,0,0,1-1.88,5.4,7.19,7.19,0,0,1-5.5,2.08,7.45,7.45,0,0,1-5.52-2c-1.45-1.58-1.62-3.7-1.62-5.48v-9.57Z"/><path d="M428.62,417.83h4v1.4a4.23,4.23,0,0,1,3.55-1.65,4.49,4.49,0,0,1,3.3,1.2,3.85,3.85,0,0,1,1.05,3.12V429h-4v-5.65a3.17,3.17,0,0,0-.5-2.17,1.66,1.66,0,0,0-1.27-.48,2.2,2.2,0,0,0-1.48.53,2.56,2.56,0,0,0-.65,1.77v6h-4Z"/><path d="M455.89,429h-4v-1.22a4.11,4.11,0,0,1-3.38,1.6,5.38,5.38,0,0,1-3.92-1.55,6.19,6.19,0,0,1-1.8-4.45,6.09,6.09,0,0,1,1.83-4.43,5.7,5.7,0,0,1,3.94-1.5,4.45,4.45,0,0,1,3.33,1.45v-8.12h4Zm-4.73-3.7a2.64,2.64,0,0,0,.85-1.9,3,3,0,0,0-.75-1.8,2.56,2.56,0,0,0-3.6,0,2.79,2.79,0,0,0-.77,1.9,2.56,2.56,0,0,0,.77,1.75,2.5,2.5,0,0,0,1.78.75A2.68,2.68,0,0,0,451.16,425.3Z"/><path d="M467.29,417.83h4V429h-4v-1.22a4.2,4.2,0,0,1-3.48,1.6,5.33,5.33,0,0,1-4-1.78,5.65,5.65,0,0,1-1.6-4.1,6.17,6.17,0,0,1,1.73-4.47,5.74,5.74,0,0,1,4-1.58,4.45,4.45,0,0,1,3.35,1.45Zm2.2-5.75a4,4,0,0,1-1.1,2.72,5.24,5.24,0,0,1-6.5,0,4,4,0,0,1-1.1-2.72h2.57a1.71,1.71,0,0,0,.5,1,2,2,0,0,0,1.28.45,2,2,0,0,0,1.27-.45,1.71,1.71,0,0,0,.5-1Zm-6.4,9.5a2.5,2.5,0,0,0,0,3.65,2.78,2.78,0,0,0,1.79.75,2.57,2.57,0,0,0,1.8-.78,2.43,2.43,0,0,0,.75-1.8,2.48,2.48,0,0,0-.77-1.82,2.52,2.52,0,0,0-3.55,0Z"/><path d="M492.51,429h-4v-1.22a4.09,4.09,0,0,1-3.37,1.6,5.34,5.34,0,0,1-3.92-1.55,6.35,6.35,0,0,1,0-8.88,5.71,5.71,0,0,1,3.95-1.5,4.43,4.43,0,0,1,3.32,1.45v-8.12h4Zm-4.72-3.7a2.68,2.68,0,0,0,.85-1.9,3,3,0,0,0-.75-1.8,2.48,2.48,0,0,0-1.83-.75,2.44,2.44,0,0,0-1.77.73,2.75,2.75,0,0,0-.78,1.9,2.53,2.53,0,0,0,.78,1.75,2.48,2.48,0,0,0,1.77.75A2.73,2.73,0,0,0,487.79,425.3Z"/><path d="M507.11,424.15h-8.32a2.82,2.82,0,0,0,.7,1.88,2.25,2.25,0,0,0,1.65.55,3.24,3.24,0,0,0,1.3-.3,1.9,1.9,0,0,0,.7-.75H507a5,5,0,0,1-1.35,2.3,6.06,6.06,0,0,1-4.55,1.55,6.35,6.35,0,0,1-4.62-1.7,6.32,6.32,0,0,1,0-8.55A6.27,6.27,0,0,1,501,417.5a6.14,6.14,0,0,1,4.3,1.53,6.27,6.27,0,0,1,1.77,4.7Zm-3.67-2.3a2.71,2.71,0,0,0-.65-1.2,2.36,2.36,0,0,0-1.65-.6,2.18,2.18,0,0,0-1.63.6,2.36,2.36,0,0,0-.6,1.2Z"/><path d="M516,425.3a5.75,5.75,0,0,0,1.59.83,5.38,5.38,0,0,0,1.55.27,1.68,1.68,0,0,0,1-.3.64.64,0,0,0,.2-.52.6.6,0,0,0-.2-.5,2.43,2.43,0,0,0-1-.4l-1.05-.25a3.64,3.64,0,0,1-1.95-1,2.67,2.67,0,0,1-.73-1.92,4,4,0,0,1,1-2.73,5.67,5.67,0,0,1,4-1.35,9.14,9.14,0,0,1,3.58.73l-1.35,2.55a5.56,5.56,0,0,0-2.1-.55,1.71,1.71,0,0,0-.93.22.61.61,0,0,0-.35.55.66.66,0,0,0,.48.63c.37.15.7.15,1.32.32l.73.2a4.74,4.74,0,0,1,1.65.88,3.15,3.15,0,0,1,.85,2.22,3.76,3.76,0,0,1-1.13,2.78,5.81,5.81,0,0,1-4.12,1.4,8.28,8.28,0,0,1-4.5-1.3Z"/><path d="M530.34,417.83v6.25a2.11,2.11,0,0,0,.6,1.62,2.06,2.06,0,0,0,1.4.43,1.85,1.85,0,0,0,1.42-.48,2.07,2.07,0,0,0,.58-1.57v-6.25h4v7a3.84,3.84,0,0,1-1.08,3,6.35,6.35,0,0,1-4.82,1.58c-1.68,0-3.73-.18-5.05-1.6a4,4,0,0,1-1-3v-7Z"/><path d="M541.09,417.83h4v1.4a4.21,4.21,0,0,1,3.55-1.65,4.51,4.51,0,0,1,3.3,1.2,3.85,3.85,0,0,1,1,3.12V429h-4v-5.65a3.22,3.22,0,0,0-.5-2.17,1.7,1.7,0,0,0-1.28-.48,2.18,2.18,0,0,0-1.47.53,2.56,2.56,0,0,0-.65,1.77v6h-4Z"/><path d="M567.56,424.15h-8.32a2.82,2.82,0,0,0,.7,1.88,2.25,2.25,0,0,0,1.65.55,3.24,3.24,0,0,0,1.3-.3,1.9,1.9,0,0,0,.7-.75h3.82a5,5,0,0,1-1.35,2.3,6.06,6.06,0,0,1-4.55,1.55,6.35,6.35,0,0,1-4.62-1.7,5.85,5.85,0,0,1-1.65-4.23,6,6,0,0,1,1.67-4.32,6.31,6.31,0,0,1,4.58-1.63,6.14,6.14,0,0,1,4.3,1.53,6.27,6.27,0,0,1,1.77,4.7Zm-3.67-2.3a2.71,2.71,0,0,0-.65-1.2,2.36,2.36,0,0,0-1.65-.6,2.18,2.18,0,0,0-1.63.6,2.36,2.36,0,0,0-.6,1.2Z"/><path d="M574.29,421.1V429h-4v-7.9H569v-3.27h1.28v-3.68h4v3.68h2.27v3.27Z"/><path d="M596.53,429h-4v-1.22a4.11,4.11,0,0,1-3.38,1.6,5.36,5.36,0,0,1-3.92-1.55,6.35,6.35,0,0,1,0-8.88,5.72,5.72,0,0,1,4-1.5,4.45,4.45,0,0,1,3.33,1.45v-8.12h4Zm-4.72-3.7a2.64,2.64,0,0,0,.85-1.9,3,3,0,0,0-.75-1.8,2.56,2.56,0,0,0-3.6,0,2.74,2.74,0,0,0-.77,1.9,2.56,2.56,0,0,0,.77,1.75,2.48,2.48,0,0,0,1.78.75A2.68,2.68,0,0,0,591.81,425.3Z"/><path d="M601.29,410.93a2.25,2.25,0,1,1-2.25,2.25A2.24,2.24,0,0,1,601.29,410.93Zm2,6.9V429h-4V417.83Z"/><path d="M618.58,417.83V428.3a5.92,5.92,0,0,1-1.52,4.62,6.65,6.65,0,0,1-4.92,1.8,6.86,6.86,0,0,1-5.23-2,4.07,4.07,0,0,1-1.22-2.32h4.45a1.71,1.71,0,0,0,1.87,1.14,2.44,2.44,0,0,0,1.78-.62,2.71,2.71,0,0,0,.8-2.07v-1.13a4.24,4.24,0,0,1-3.35,1.48,5.56,5.56,0,0,1-4.13-1.58,5.89,5.89,0,0,1-1.55-4.07,6.49,6.49,0,0,1,1.65-4.38,5.65,5.65,0,0,1,4-1.7,4.37,4.37,0,0,1,3.33,1.48v-1.15Zm-8.14,3.75a2.49,2.49,0,0,0,0,3.62,2.51,2.51,0,0,0,1.8.73,2.56,2.56,0,0,0,2.55-2.55,2.91,2.91,0,0,0-.8-1.83,2.53,2.53,0,0,0-1.78-.72A2.35,2.35,0,0,0,610.44,421.58Z"/><path d="M623.34,410.93a2.25,2.25,0,1,1-2.25,2.25A2.24,2.24,0,0,1,623.34,410.93Zm2,6.9V429h-4V417.83Z"/><path d="M632.49,421.1V429h-4v-7.9h-1.28v-3.27h1.28v-3.68h4v3.68h2.27v3.27Z"/><path d="M644.91,417.83h4V429h-4v-1.22a4.17,4.17,0,0,1-3.47,1.6,5.35,5.35,0,0,1-4-1.78,5.65,5.65,0,0,1-1.6-4.1,6.17,6.17,0,0,1,1.73-4.47,5.74,5.74,0,0,1,4-1.58,4.43,4.43,0,0,1,3.35,1.45Zm-4.2,3.75a2.5,2.5,0,0,0,0,3.65,2.79,2.79,0,0,0,1.8.75,2.55,2.55,0,0,0,1.79-.78,2.39,2.39,0,0,0,.75-1.8,2.48,2.48,0,0,0-.77-1.82,2.52,2.52,0,0,0-3.55,0Z"/><path d="M655.66,410.78V429h-4V410.78Z"/><path d="M667,417.83h4V429h-4v-1.22a4.17,4.17,0,0,1-3.47,1.6,5.33,5.33,0,0,1-4-1.78,5.61,5.61,0,0,1-1.6-4.1,6.17,6.17,0,0,1,1.72-4.47,5.77,5.77,0,0,1,4-1.58A4.4,4.4,0,0,1,667,418.9Zm2.2-5.75a3.88,3.88,0,0,1-1.1,2.72,5.22,5.22,0,0,1-6.49,0,3.88,3.88,0,0,1-1.1-2.72h2.57a1.71,1.71,0,0,0,.5,1,2,2,0,0,0,1.28.45,2,2,0,0,0,1.27-.45,1.71,1.71,0,0,0,.5-1Zm-6.39,9.5a2.51,2.51,0,0,0,0,3.65,2.83,2.83,0,0,0,1.8.75,2.57,2.57,0,0,0,1.8-.78,2.43,2.43,0,0,0,.75-1.8,2.48,2.48,0,0,0-.77-1.82,2.52,2.52,0,0,0-3.55,0Z"/><polyline points="449.5 315.28 464.5 315.28 464.5 299.28 474.5 299.28 474.5 283.28 486.5 283.28 486.5 274.28 506.5 274.28 506.5 285.28 515.5 285.28 515.5 299.28 524.5 299.28 524.5 320.28 531.5 320.28 531.5 340.28 537.5 340.28 537.5 358.28 543.5 358.28 543.5 371.28 551.5 371.28 551.5 385.28 558.5 385.28 558.5 392.28 583.5 392.28 583.5 380.28 594.5 380.28 594.5 369.28 604.5 369.28 604.5 352.28 614.5 352.28 614.5 342.28 621.5 342.28 621.5 333.28 627.5 333.28 627.5 322.28 632.5 322.28 632.5 313.28" style="fill:none;stroke:#91c54f;stroke-miterlimit:10;stroke-width:5px"/></svg>