<svg id="Layer_1" data-name="Layer 1" xmlns="http://www.w3.org/2000/svg" viewBox="0 0 638 836"><title>Cap 15 -</title><line x1="66.62" y1="63.86" x2="66.62" y2="162.86" style="fill:none;stroke:#91c54f;stroke-miterlimit:10;stroke-width:3px"/><line x1="171.62" y1="64.36" x2="171.62" y2="163.36" style="fill:none;stroke:#91c54f;stroke-miterlimit:10;stroke-width:3px"/><line x1="276.62" y1="64.36" x2="276.62" y2="163.36" style="fill:none;stroke:#91c54f;stroke-miterlimit:10;stroke-width:3px"/><line x1="381.62" y1="64.36" x2="381.62" y2="163.36" style="fill:none;stroke:#91c54f;stroke-miterlimit:10;stroke-width:3px"/><line x1="486.62" y1="63.36" x2="486.62" y2="162.36" style="fill:none;stroke:#91c54f;stroke-miterlimit:10;stroke-width:3px"/><line x1="591.62" y1="63.36" x2="591.62" y2="162.36" style="fill:none;stroke:#91c54f;stroke-miterlimit:10;stroke-width:3px"/><path d="M44.88,167.66a3.91,3.91,0,0,1-5.52,0,6.38,6.38,0,0,1,0-8.17,3.91,3.91,0,0,1,5.52,0,6.34,6.34,0,0,1,0,8.17ZM41.33,161a3.92,3.92,0,0,0-.87,2.61,4,4,0,0,0,.87,2.61,1.19,1.19,0,0,0,.79.31,1.24,1.24,0,0,0,.8-.31,4,4,0,0,0,.87-2.6,4.16,4.16,0,0,0-.87-2.62,1.25,1.25,0,0,0-.8-.32A1.2,1.2,0,0,0,41.33,161Z"/><path d="M49.46,158.57l2.4,6.09,2.43-6.09h2.82l-4.26,10h-2l-4.2-10Z"/><path d="M45.05,69H41.58l-.18,1.11a6,6,0,0,1,.81-.08,3.54,3.54,0,0,1,2.64,1,3.27,3.27,0,0,1,.92,2.37,3.52,3.52,0,0,1-1,2.51A4.16,4.16,0,0,1,41.69,77a6.08,6.08,0,0,1-3.38-.9l.39-2.43a4.88,4.88,0,0,0,1.2.81,3.74,3.74,0,0,0,1.5.35,1.79,1.79,0,0,0,1.31-.5,1.52,1.52,0,0,0,.39-1,1.45,1.45,0,0,0-.48-1.08,2.87,2.87,0,0,0-1.8-.49,4,4,0,0,0-1.85.42l.87-5.39h5.21Z"/><path d="M49.46,66.79l2.4,6.09,2.43-6.09h2.82l-4.26,10h-2l-4.2-10Z"/><path d="M200.08,41.38a3.91,3.91,0,0,1-5.52,0,5.66,5.66,0,0,1-1.49-4.08,5.66,5.66,0,0,1,1.49-4.09,3.91,3.91,0,0,1,5.52,0,5.66,5.66,0,0,1,1.48,4.09A5.65,5.65,0,0,1,200.08,41.38Zm-3.56-6.67a3.92,3.92,0,0,0-.87,2.61,4.07,4.07,0,0,0,.87,2.61,1.24,1.24,0,0,0,.8.31,1.19,1.19,0,0,0,.79-.31,4,4,0,0,0,.87-2.6,4.1,4.1,0,0,0-.87-2.62,1.2,1.2,0,0,0-.79-.32A1.25,1.25,0,0,0,196.52,34.71Z"/><path d="M202.94,36.3a2.31,2.31,0,0,1-.63-1.62,2.53,2.53,0,0,1,.62-1.7,2.74,2.74,0,0,1,2.1-.79,2.8,2.8,0,0,1,2.13.79,2.47,2.47,0,0,1,0,3.32,2.83,2.83,0,0,1-2.11.79A2.72,2.72,0,0,1,202.94,36.3Zm1.29-2.45a1.15,1.15,0,0,0,.09,1.64,1.11,1.11,0,0,0,.74.27,1.2,1.2,0,0,0,.79-.32,1.13,1.13,0,0,0,.33-.81,1.17,1.17,0,0,0-.36-.84,1,1,0,0,0-.76-.28A1.16,1.16,0,0,0,204.23,33.85Zm6.54-1.56h1.31l-5.81,10H205Zm-.87,9.33a2.28,2.28,0,0,1-.63-1.62,2.53,2.53,0,0,1,.62-1.69,2.72,2.72,0,0,1,2.1-.8,2.8,2.8,0,0,1,2.13.8,2.46,2.46,0,0,1,0,3.31,2.84,2.84,0,0,1-2.11.8A2.73,2.73,0,0,1,209.9,41.62Zm1.29-2.44a1.14,1.14,0,0,0,.09,1.63,1.06,1.06,0,0,0,.74.27,1.19,1.19,0,0,0,.79-.31,1.17,1.17,0,0,0,.33-.81,1.15,1.15,0,0,0-.36-.84,1.05,1.05,0,0,0-.76-.29A1.12,1.12,0,0,0,211.19,39.18Z"/><path d="M224.63,42.15a3.59,3.59,0,0,1-1.66.37,3.67,3.67,0,0,1-2.64-1,3.49,3.49,0,0,1-1-2.5,3.68,3.68,0,0,1,1.08-2.6,3.87,3.87,0,0,1,2.7-1,3.46,3.46,0,0,1,1.56.38v2a2.08,2.08,0,0,0-1.24-.44,1.57,1.57,0,0,0-1.17.47,1.63,1.63,0,0,0-.47,1.15,1.76,1.76,0,0,0,.42,1.13,1.65,1.65,0,0,0,1.23.51,1.82,1.82,0,0,0,1.23-.45Z"/><path d="M227.2,31.45a1.35,1.35,0,1,1-1.35,1.35A1.34,1.34,0,0,1,227.2,31.45Zm1.2,4.14V42.3H226V35.59Z"/><path d="M235.1,42.15a3.59,3.59,0,0,1-1.66.37,3.67,3.67,0,0,1-2.64-1,3.49,3.49,0,0,1-1-2.5,3.68,3.68,0,0,1,1.08-2.6,3.87,3.87,0,0,1,2.7-1,3.46,3.46,0,0,1,1.56.38v2a2.08,2.08,0,0,0-1.24-.44,1.57,1.57,0,0,0-1.17.47,1.63,1.63,0,0,0-.47,1.15,1.76,1.76,0,0,0,.42,1.13,1.65,1.65,0,0,0,1.23.51,1.82,1.82,0,0,0,1.23-.45Z"/><path d="M238.87,31.36V42.3h-2.4V31.36Z"/><path d="M242.9,35.59v3.75a1.32,1.32,0,0,0,.36,1,1.24,1.24,0,0,0,.84.25,1.15,1.15,0,0,0,.86-.28,1.25,1.25,0,0,0,.34-.95V35.59h2.4v4.19a2.3,2.3,0,0,1-.64,1.8,3.85,3.85,0,0,1-2.9.94,4,4,0,0,1-3-1,2.41,2.41,0,0,1-.63-1.78V35.59Z"/><path d="M260.44,42.3H258v-.74a2.47,2.47,0,0,1-2,1,3.18,3.18,0,0,1-2.35-.93,3.8,3.8,0,0,1,0-5.32,3.44,3.44,0,0,1,2.37-.9,2.65,2.65,0,0,1,2,.87V31.36h2.4Zm-2.84-2.22a1.61,1.61,0,0,0,.51-1.14,1.73,1.73,0,0,0-.45-1.08,1.44,1.44,0,0,0-1.09-.45,1.48,1.48,0,0,0-1.07.43A1.64,1.64,0,0,0,255,39,1.51,1.51,0,0,0,255.5,40a1.49,1.49,0,0,0,1.07.45A1.64,1.64,0,0,0,257.6,40.08Z"/><path d="M269.2,39.39h-5a1.7,1.7,0,0,0,.42,1.12,1.35,1.35,0,0,0,1,.33,1.81,1.81,0,0,0,.78-.18,1.08,1.08,0,0,0,.42-.45h2.3a3.08,3.08,0,0,1-.81,1.38,3.66,3.66,0,0,1-2.73.93,3.79,3.79,0,0,1-2.78-1,3.52,3.52,0,0,1-1-2.53,3.56,3.56,0,0,1,1-2.6,3.75,3.75,0,0,1,2.74-1,3.66,3.66,0,0,1,2.58.91,3.78,3.78,0,0,1,1.07,2.82ZM267,38a1.58,1.58,0,0,0-.39-.72,1.37,1.37,0,0,0-1-.36,1.26,1.26,0,0,0-1,.36,1.3,1.3,0,0,0-.36.72Z"/><path d="M276.65,37.56V42.3h-2.4V37.56h-.84v-2h.84V34.47a3.46,3.46,0,0,1,.61-2.21,2.81,2.81,0,0,1,2.33-1.06,3.1,3.1,0,0,1,1.15.22v2.07a1.53,1.53,0,0,0-.75-.22.84.84,0,0,0-.67.25,1.76,1.76,0,0,0-.27,1.13v.94h1.68v2Z"/><path d="M281.64,35.59v3.75a1.32,1.32,0,0,0,.36,1,1.24,1.24,0,0,0,.84.25,1.15,1.15,0,0,0,.86-.28,1.25,1.25,0,0,0,.34-.95V35.59h2.4v4.19a2.3,2.3,0,0,1-.64,1.8,3.85,3.85,0,0,1-2.9.94,4,4,0,0,1-3-1,2.41,2.41,0,0,1-.63-1.78V35.59Z"/><path d="M288.09,35.59h2.4v.84a2.53,2.53,0,0,1,2.13-1,2.72,2.72,0,0,1,2,.72,2.32,2.32,0,0,1,.63,1.88V42.3h-2.4V38.91a1.91,1.91,0,0,0-.3-1.31,1,1,0,0,0-.76-.28,1.33,1.33,0,0,0-.89.31,1.55,1.55,0,0,0-.39,1.07v3.6h-2.4Z"/><path d="M301.94,42.15a3.63,3.63,0,0,1-1.67.37,3.69,3.69,0,0,1-2.64-1,3.48,3.48,0,0,1-1-2.5,3.64,3.64,0,0,1,1.08-2.6,3.87,3.87,0,0,1,2.7-1,3.46,3.46,0,0,1,1.56.38v2a2.14,2.14,0,0,0-1.25-.44,1.57,1.57,0,0,0-1.17.47,1.62,1.62,0,0,0-.46,1.15,1.71,1.71,0,0,0,.42,1.13,1.61,1.61,0,0,0,1.23.51,1.86,1.86,0,0,0,1.23-.45Z"/><path d="M306.11,37.56V42.3h-2.4V37.56h-.77v-2h.77v-2.2h2.4v2.2h1.36v2Zm-2.31,5.49,2.25.24-1.53,2.76-1.5-.18Z"/><path d="M309.57,31.45a1.35,1.35,0,1,1-1.35,1.35A1.34,1.34,0,0,1,309.57,31.45Zm1.2,4.14V42.3h-2.4V35.59Z"/><path d="M319.16,41.41a4.6,4.6,0,0,1-6,0,3.46,3.46,0,0,1,0-4.93,4.6,4.6,0,0,1,6,0,3.46,3.46,0,0,1,0,4.93Zm-4.07-3.57a1.56,1.56,0,0,0-.46,1.1,1.55,1.55,0,0,0,1.54,1.51,1.52,1.52,0,0,0,1.07-.45,1.45,1.45,0,0,0,.46-1.06,1.63,1.63,0,0,0-.46-1.1,1.56,1.56,0,0,0-2.15,0Z"/><path d="M321.57,35.59H324v.84a2.53,2.53,0,0,1,2.13-1,2.72,2.72,0,0,1,2,.72,2.32,2.32,0,0,1,.63,1.88V42.3h-2.4V38.91a1.91,1.91,0,0,0-.3-1.31,1,1,0,0,0-.76-.28,1.33,1.33,0,0,0-.89.31A1.55,1.55,0,0,0,324,38.7v3.6h-2.4Z"/><path d="M335.54,35.59h2.4V42.3h-2.4v-.74a2.51,2.51,0,0,1-2.09,1A3.21,3.21,0,0,1,331,41.46a3.37,3.37,0,0,1-1-2.46,3.72,3.72,0,0,1,1-2.69,3.46,3.46,0,0,1,2.42-.94,2.65,2.65,0,0,1,2,.87ZM333,37.84a1.58,1.58,0,0,0-.48,1.1A1.52,1.52,0,0,0,333,40a1.71,1.71,0,0,0,1.08.45,1.53,1.53,0,0,0,1.08-.46,1.46,1.46,0,0,0,.45-1.08,1.5,1.5,0,0,0-.46-1.1,1.54,1.54,0,0,0-1.08-.43A1.52,1.52,0,0,0,333,37.84Z"/><path d="M339.59,35.59H342v1.1a2.15,2.15,0,0,1,.94-.93,2.58,2.58,0,0,1,1.25-.27l.48,0v2.26a2.13,2.13,0,0,0-1-.24,1.59,1.59,0,0,0-1.09.36,2,2,0,0,0-.54,1.53V42.3h-2.4Z"/><path d="M352.83,39.39h-5a1.65,1.65,0,0,0,.42,1.12,1.35,1.35,0,0,0,1,.33,1.81,1.81,0,0,0,.78-.18,1.15,1.15,0,0,0,.42-.45h2.29a2.9,2.9,0,0,1-.81,1.38,3.63,3.63,0,0,1-2.73.93,3.77,3.77,0,0,1-2.77-1,3.48,3.48,0,0,1-1-2.53,3.6,3.6,0,0,1,1-2.6,3.8,3.8,0,0,1,2.75-1,3.67,3.67,0,0,1,2.58.91,3.77,3.77,0,0,1,1.06,2.82ZM350.63,38a1.58,1.58,0,0,0-.39-.72,1.38,1.38,0,0,0-1-.36,1.28,1.28,0,0,0-1,.36,1.45,1.45,0,0,0-.36.72Z"/><path d="M357.63,37.27h3.8v2h-3.8Z"/><path d="M371.69,35.59h2.4V42.3h-2.4v-.74a2.51,2.51,0,0,1-2.09,1,3.21,3.21,0,0,1-2.41-1.06,3.37,3.37,0,0,1-1-2.46,3.72,3.72,0,0,1,1-2.69,3.46,3.46,0,0,1,2.42-.94,2.65,2.65,0,0,1,2,.87Zm-2.52,2.25a1.58,1.58,0,0,0-.48,1.1,1.52,1.52,0,0,0,.46,1.09,1.71,1.71,0,0,0,1.08.45,1.53,1.53,0,0,0,1.08-.46,1.46,1.46,0,0,0,.45-1.08,1.5,1.5,0,0,0-.46-1.1,1.54,1.54,0,0,0-1.08-.43A1.52,1.52,0,0,0,369.17,37.84Z"/><path d="M375.74,35.59h2.4v.84a2.52,2.52,0,0,1,2.13-1,2.74,2.74,0,0,1,2,.72,2.32,2.32,0,0,1,.63,1.88V42.3h-2.4V38.91a2,2,0,0,0-.3-1.31,1,1,0,0,0-.77-.28,1.3,1.3,0,0,0-.88.31,1.55,1.55,0,0,0-.39,1.07v3.6h-2.4Z"/><path d="M389.7,35.59h2.4V42.3h-2.4v-.74a2.48,2.48,0,0,1-2.08,1,3.23,3.23,0,0,1-2.42-1.06,3.41,3.41,0,0,1-1-2.46,3.72,3.72,0,0,1,1-2.69,3.44,3.44,0,0,1,2.41-.94,2.63,2.63,0,0,1,2,.87Zm-2.52,2.25a1.58,1.58,0,0,0-.48,1.1,1.53,1.53,0,0,0,.47,1.09,1.66,1.66,0,0,0,1.08.45,1.53,1.53,0,0,0,1.08-.46,1.46,1.46,0,0,0,.45-1.08,1.47,1.47,0,0,0-.47-1.1,1.53,1.53,0,0,0-2.13,0Z"/><path d="M396.15,31.36V42.3h-2.4V31.36Z"/><path d="M404.54,41.41a4.6,4.6,0,0,1-6,0,3.46,3.46,0,0,1,0-4.93,4.6,4.6,0,0,1,6,0,3.46,3.46,0,0,1,0,4.93Zm-4.07-3.57a1.56,1.56,0,0,0-.46,1.1,1.55,1.55,0,0,0,1.54,1.51,1.52,1.52,0,0,0,1.07-.45,1.45,1.45,0,0,0,.46-1.06,1.63,1.63,0,0,0-.46-1.1,1.56,1.56,0,0,0-2.15,0Z"/><path d="M414.5,35.59v6.29a3.55,3.55,0,0,1-.92,2.77,4,4,0,0,1-2.95,1.08,4.12,4.12,0,0,1-3.14-1.18,2.44,2.44,0,0,1-.73-1.4h2.67a1,1,0,0,0,1.12.69,1.47,1.47,0,0,0,1.07-.37,1.65,1.65,0,0,0,.48-1.25v-.67a2.56,2.56,0,0,1-2,.88,3.37,3.37,0,0,1-2.48-.94,3.55,3.55,0,0,1-.93-2.45,3.87,3.87,0,0,1,1-2.62,3.37,3.37,0,0,1,2.43-1,2.64,2.64,0,0,1,2,.88v-.69Zm-4.89,2.25a1.57,1.57,0,0,0-.47,1.08,1.59,1.59,0,0,0,.47,1.1,1.52,1.52,0,0,0,1.08.43,1.54,1.54,0,0,0,1.53-1.53,1.74,1.74,0,0,0-.48-1.09,1.53,1.53,0,0,0-1.07-.44A1.44,1.44,0,0,0,409.61,37.84Z"/><path d="M418,32.29l1.74,6.47,2.11-6.47H424l2,6.47,1.89-6.47h2.71l-3.19,10h-2.66l-1.81-5.79L421,42.3h-2.64l-3-10Z"/><path d="M430.8,35.59h2.4v1.1a2.17,2.17,0,0,1,.95-.93,2.54,2.54,0,0,1,1.24-.27l.48,0v2.26a2.11,2.11,0,0,0-1-.24,1.61,1.61,0,0,0-1.1.36,2,2,0,0,0-.54,1.53V42.3h-2.4Z"/><path d="M438.14,31.45a1.35,1.35,0,1,1-1.35,1.35A1.34,1.34,0,0,1,438.14,31.45Zm1.2,4.14V42.3h-2.4V35.59Z"/><path d="M443.63,37.56V42.3h-2.4V37.56h-.77v-2h.77v-2.2h2.4v2.2H445v2Z"/><path d="M453,39.39h-5a1.65,1.65,0,0,0,.42,1.12,1.35,1.35,0,0,0,1,.33,1.81,1.81,0,0,0,.78-.18,1.15,1.15,0,0,0,.42-.45h2.29a2.9,2.9,0,0,1-.81,1.38,3.63,3.63,0,0,1-2.73.93,3.77,3.77,0,0,1-2.77-1,3.48,3.48,0,0,1-1-2.53,3.6,3.6,0,0,1,1-2.6,3.8,3.8,0,0,1,2.75-1,3.67,3.67,0,0,1,2.58.91A3.77,3.77,0,0,1,453,39.13ZM450.8,38a1.58,1.58,0,0,0-.39-.72,1.38,1.38,0,0,0-1-.36,1.28,1.28,0,0,0-1,.36,1.45,1.45,0,0,0-.36.72Z"/><path d="M456.47,45.12A9.71,9.71,0,0,1,455,41.76a12.53,12.53,0,0,1-.44-3.51,12.94,12.94,0,0,1,.56-3.93,13.36,13.36,0,0,1,1.35-3l1.69.9A13,13,0,0,0,457.05,35a13.86,13.86,0,0,0-.42,3.19,16.35,16.35,0,0,0,.36,3.11,10.65,10.65,0,0,0,1.17,2.94Z"/><path d="M466.13,41.38a3.91,3.91,0,0,1-5.52,0,5.66,5.66,0,0,1-1.49-4.08,5.66,5.66,0,0,1,1.49-4.09,3.91,3.91,0,0,1,5.52,0,5.66,5.66,0,0,1,1.48,4.09A5.65,5.65,0,0,1,466.13,41.38Zm-3.56-6.67a3.92,3.92,0,0,0-.87,2.61,4.07,4.07,0,0,0,.87,2.61,1.24,1.24,0,0,0,.8.31,1.19,1.19,0,0,0,.79-.31,4,4,0,0,0,.87-2.6,4.1,4.1,0,0,0-.87-2.62,1.2,1.2,0,0,0-.79-.32A1.25,1.25,0,0,0,462.57,34.71Z"/><path d="M468.57,44.22a10.35,10.35,0,0,0,1.17-2.94,15.58,15.58,0,0,0,.36-3.11,13.86,13.86,0,0,0-.42-3.19,12.52,12.52,0,0,0-1.11-2.72l1.7-.9a13.83,13.83,0,0,1,1.35,3,13.44,13.44,0,0,1,.55,3.94,12.52,12.52,0,0,1-.43,3.5,10.1,10.1,0,0,1-1.47,3.36Z"/><line x1="66.62" y1="230.86" x2="66.62" y2="329.86" style="fill:none;stroke:#91c54f;stroke-miterlimit:10;stroke-width:3px"/><line x1="171.62" y1="231.36" x2="171.62" y2="330.36" style="fill:none;stroke:#91c54f;stroke-miterlimit:10;stroke-width:3px"/><line x1="276.62" y1="231.36" x2="276.62" y2="330.36" style="fill:none;stroke:#91c54f;stroke-miterlimit:10;stroke-width:3px"/><line x1="381.62" y1="231.36" x2="381.62" y2="330.36" style="fill:none;stroke:#91c54f;stroke-miterlimit:10;stroke-width:3px"/><line x1="486.62" y1="230.36" x2="486.62" y2="329.36" style="fill:none;stroke:#91c54f;stroke-miterlimit:10;stroke-width:3px"/><line x1="591.62" y1="230.36" x2="591.62" y2="329.36" style="fill:none;stroke:#91c54f;stroke-miterlimit:10;stroke-width:3px"/><path d="M44.88,334.66a3.91,3.91,0,0,1-5.52,0,6.38,6.38,0,0,1,0-8.17,3.91,3.91,0,0,1,5.52,0,6.34,6.34,0,0,1,0,8.17ZM41.33,328a3.92,3.92,0,0,0-.87,2.61,4,4,0,0,0,.87,2.61,1.19,1.19,0,0,0,.79.31,1.24,1.24,0,0,0,.8-.31,4,4,0,0,0,.87-2.6,4.16,4.16,0,0,0-.87-2.62,1.25,1.25,0,0,0-.8-.32A1.2,1.2,0,0,0,41.33,328Z"/><path d="M49.46,325.57l2.4,6.09,2.43-6.09h2.82l-4.26,10h-2l-4.2-10Z"/><path d="M45.05,236H41.58l-.18,1.11a6,6,0,0,1,.81-.08,3.54,3.54,0,0,1,2.64,1,3.27,3.27,0,0,1,.92,2.37,3.52,3.52,0,0,1-1,2.51A4.16,4.16,0,0,1,41.69,244a6.08,6.08,0,0,1-3.38-.9l.39-2.43a4.88,4.88,0,0,0,1.2.81,3.74,3.74,0,0,0,1.5.35,1.79,1.79,0,0,0,1.31-.5,1.52,1.52,0,0,0,.39-1,1.45,1.45,0,0,0-.48-1.08,2.87,2.87,0,0,0-1.8-.49,4,4,0,0,0-1.85.42l.87-5.39h5.21Z"/><path d="M49.46,233.79l2.4,6.09,2.43-6.09h2.82l-4.26,10h-2l-4.2-10Z"/><path d="M191.88,216.3h-8l2.54-2.66a16.49,16.49,0,0,0,2.05-2.53,2.83,2.83,0,0,0,.54-1.56,1.5,1.5,0,0,0-.3-1,1,1,0,0,0-.73-.3,1.06,1.06,0,0,0-.87.4,2.46,2.46,0,0,0-.36,1.23H184a4,4,0,0,1,1.11-2.77,4.32,4.32,0,0,1,5.66-.05,3.37,3.37,0,0,1,1,2.46,3.88,3.88,0,0,1-1.48,3l-1.68,1.56h3.27Z"/><path d="M199.89,208.5h-3.47l-.18,1.11a6,6,0,0,1,.81-.08,3.54,3.54,0,0,1,2.64,1,3.27,3.27,0,0,1,.92,2.37,3.52,3.52,0,0,1-1,2.51,4.16,4.16,0,0,1-3.12,1.12,6.08,6.08,0,0,1-3.38-.9l.39-2.43a4.88,4.88,0,0,0,1.2.81,3.74,3.74,0,0,0,1.5.35,1.79,1.79,0,0,0,1.31-.5,1.52,1.52,0,0,0,.39-1,1.45,1.45,0,0,0-.48-1.08,2.87,2.87,0,0,0-1.8-.49,4,4,0,0,0-1.85.42l.87-5.39h5.21Z"/><path d="M202.59,210.3a2.27,2.27,0,0,1-.63-1.62,2.53,2.53,0,0,1,.61-1.7,2.74,2.74,0,0,1,2.1-.79,2.78,2.78,0,0,1,2.13.79,2.32,2.32,0,0,1,.63,1.65,2.36,2.36,0,0,1-.64,1.67,2.83,2.83,0,0,1-2.12.79A2.7,2.7,0,0,1,202.59,210.3Zm1.29-2.45a1.15,1.15,0,0,0,.09,1.64,1.09,1.09,0,0,0,.73.27,1.25,1.25,0,0,0,.8-.32,1.16,1.16,0,0,0,0-1.65,1.07,1.07,0,0,0-.77-.28A1.15,1.15,0,0,0,203.88,207.85Zm6.54-1.56h1.3l-5.8,10h-1.29Zm-.87,9.33a2.24,2.24,0,0,1-.63-1.62,2.52,2.52,0,0,1,.61-1.69,2.72,2.72,0,0,1,2.1-.8,2.78,2.78,0,0,1,2.13.8,2.3,2.3,0,0,1,.63,1.65,2.35,2.35,0,0,1-.64,1.66,2.84,2.84,0,0,1-2.12.8A2.71,2.71,0,0,1,209.55,215.62Zm1.29-2.44a1.14,1.14,0,0,0,.09,1.63,1,1,0,0,0,.73.27,1.24,1.24,0,0,0,.8-.31,1.21,1.21,0,0,0,.33-.81,1.15,1.15,0,0,0-.36-.84,1.08,1.08,0,0,0-.77-.29A1.12,1.12,0,0,0,210.84,213.18Z"/><path d="M224.28,216.15a3.63,3.63,0,0,1-1.67.37,3.69,3.69,0,0,1-2.64-1,3.48,3.48,0,0,1-1-2.5,3.64,3.64,0,0,1,1.08-2.6,3.87,3.87,0,0,1,2.7-1,3.46,3.46,0,0,1,1.56.38v2a2.14,2.14,0,0,0-1.25-.44,1.57,1.57,0,0,0-1.17.47,1.62,1.62,0,0,0-.46,1.15,1.71,1.71,0,0,0,.42,1.13,1.61,1.61,0,0,0,1.23.51,1.86,1.86,0,0,0,1.23-.45Z"/><path d="M226.84,205.45a1.35,1.35,0,1,1-1.35,1.35A1.34,1.34,0,0,1,226.84,205.45Zm1.2,4.14v6.71h-2.4v-6.71Z"/><path d="M234.75,216.15a3.63,3.63,0,0,1-1.67.37,3.69,3.69,0,0,1-2.64-1,3.48,3.48,0,0,1-1-2.5,3.64,3.64,0,0,1,1.08-2.6,3.87,3.87,0,0,1,2.7-1,3.46,3.46,0,0,1,1.56.38v2a2.14,2.14,0,0,0-1.25-.44,1.57,1.57,0,0,0-1.17.47,1.62,1.62,0,0,0-.46,1.15,1.71,1.71,0,0,0,.42,1.13,1.61,1.61,0,0,0,1.23.51,1.86,1.86,0,0,0,1.23-.45Z"/><path d="M238.51,205.36V216.3h-2.4V205.36Z"/><path d="M242.55,209.59v3.75a1.28,1.28,0,0,0,.36,1,1.23,1.23,0,0,0,.84.25,1.13,1.13,0,0,0,.85-.28,1.26,1.26,0,0,0,.35-.95v-3.75h2.4v4.19a2.31,2.31,0,0,1-.65,1.8,3.83,3.83,0,0,1-2.89.94,4,4,0,0,1-3-1,2.41,2.41,0,0,1-.63-1.78v-4.19Z"/><path d="M260.08,216.3h-2.4v-.74a2.45,2.45,0,0,1-2,1,3.2,3.2,0,0,1-2.36-.93,3.71,3.71,0,0,1-1.08-2.67,3.62,3.62,0,0,1,1.1-2.65,3.42,3.42,0,0,1,2.37-.9,2.62,2.62,0,0,1,2,.87v-4.88h2.4Zm-2.83-2.22a1.65,1.65,0,0,0,.51-1.14,1.73,1.73,0,0,0-.45-1.08,1.55,1.55,0,0,0-2.16,0,1.65,1.65,0,0,0-.47,1.14,1.57,1.57,0,0,0,1.53,1.5A1.69,1.69,0,0,0,257.25,214.08Z"/><path d="M268.84,213.39h-5a1.65,1.65,0,0,0,.42,1.12,1.35,1.35,0,0,0,1,.33,1.81,1.81,0,0,0,.78-.18,1.15,1.15,0,0,0,.42-.45h2.29a2.9,2.9,0,0,1-.81,1.38,3.63,3.63,0,0,1-2.73.93,3.77,3.77,0,0,1-2.77-1,3.48,3.48,0,0,1-1-2.53,3.6,3.6,0,0,1,1-2.6,3.8,3.8,0,0,1,2.75-1,3.67,3.67,0,0,1,2.58.91,3.77,3.77,0,0,1,1.06,2.82Zm-2.2-1.38a1.58,1.58,0,0,0-.39-.72,1.38,1.38,0,0,0-1-.36,1.28,1.28,0,0,0-1,.36,1.45,1.45,0,0,0-.36.72Z"/><path d="M276.3,211.56v4.74h-2.4v-4.74h-.84v-2h.84v-1.12a3.46,3.46,0,0,1,.61-2.21,2.81,2.81,0,0,1,2.33-1.06,3.1,3.1,0,0,1,1.15.22v2.07a1.53,1.53,0,0,0-.75-.22.84.84,0,0,0-.67.25,1.76,1.76,0,0,0-.27,1.13v.94H278v2Z"/><path d="M281.29,209.59v3.75a1.32,1.32,0,0,0,.36,1,1.24,1.24,0,0,0,.84.25,1.15,1.15,0,0,0,.86-.28,1.25,1.25,0,0,0,.34-.95v-3.75h2.4v4.19a2.3,2.3,0,0,1-.64,1.8,3.85,3.85,0,0,1-2.9.94,4,4,0,0,1-3-1,2.41,2.41,0,0,1-.63-1.78v-4.19Z"/><path d="M287.74,209.59h2.4v.84a2.53,2.53,0,0,1,2.13-1,2.72,2.72,0,0,1,2,.72,2.32,2.32,0,0,1,.63,1.88v4.26h-2.4v-3.39a1.91,1.91,0,0,0-.3-1.31,1,1,0,0,0-.76-.28,1.33,1.33,0,0,0-.89.31,1.55,1.55,0,0,0-.39,1.07v3.6h-2.4Z"/><path d="M301.59,216.15a3.63,3.63,0,0,1-1.67.37,3.69,3.69,0,0,1-2.64-1,3.48,3.48,0,0,1-1-2.5,3.64,3.64,0,0,1,1.08-2.6,3.87,3.87,0,0,1,2.7-1,3.46,3.46,0,0,1,1.56.38v2a2.14,2.14,0,0,0-1.25-.44,1.57,1.57,0,0,0-1.17.47,1.62,1.62,0,0,0-.46,1.15,1.71,1.71,0,0,0,.42,1.13,1.61,1.61,0,0,0,1.23.51,1.86,1.86,0,0,0,1.23-.45Z"/><path d="M305.76,211.56v4.74h-2.4v-4.74h-.77v-2h.77v-2.2h2.4v2.2h1.36v2Zm-2.31,5.49,2.25.24-1.53,2.76-1.5-.18Z"/><path d="M309.22,205.45a1.35,1.35,0,1,1-1.35,1.35A1.34,1.34,0,0,1,309.22,205.45Zm1.2,4.14v6.71H308v-6.71Z"/><path d="M318.81,215.41a4.6,4.6,0,0,1-6,0,3.46,3.46,0,0,1,0-4.93,4.6,4.6,0,0,1,6,0,3.46,3.46,0,0,1,0,4.93Zm-4.07-3.57a1.56,1.56,0,0,0-.46,1.1,1.55,1.55,0,0,0,1.54,1.51,1.52,1.52,0,0,0,1.07-.45,1.45,1.45,0,0,0,.46-1.06,1.63,1.63,0,0,0-.46-1.1,1.56,1.56,0,0,0-2.15,0Z"/><path d="M321.22,209.59h2.4v.84a2.53,2.53,0,0,1,2.13-1,2.72,2.72,0,0,1,2,.72,2.32,2.32,0,0,1,.63,1.88v4.26H326v-3.39a1.91,1.91,0,0,0-.3-1.31,1,1,0,0,0-.76-.28,1.33,1.33,0,0,0-.89.31,1.55,1.55,0,0,0-.39,1.07v3.6h-2.4Z"/><path d="M335.19,209.59h2.4v6.71h-2.4v-.74a2.51,2.51,0,0,1-2.09,1,3.21,3.21,0,0,1-2.41-1.06,3.37,3.37,0,0,1-1-2.46,3.72,3.72,0,0,1,1-2.69,3.46,3.46,0,0,1,2.42-.94,2.65,2.65,0,0,1,2,.87Zm-2.52,2.25a1.58,1.58,0,0,0-.48,1.1,1.52,1.52,0,0,0,.46,1.09,1.71,1.71,0,0,0,1.08.45,1.53,1.53,0,0,0,1.08-.46,1.46,1.46,0,0,0,.45-1.08,1.5,1.5,0,0,0-.46-1.1,1.54,1.54,0,0,0-1.08-.43A1.52,1.52,0,0,0,332.67,211.84Z"/><path d="M339.24,209.59h2.4v1.1a2.15,2.15,0,0,1,.94-.93,2.58,2.58,0,0,1,1.25-.27l.48,0v2.26a2.13,2.13,0,0,0-1-.24,1.59,1.59,0,0,0-1.09.36,2,2,0,0,0-.54,1.53v2.87h-2.4Z"/><path d="M352.48,213.39h-5a1.65,1.65,0,0,0,.42,1.12,1.35,1.35,0,0,0,1,.33,1.81,1.81,0,0,0,.78-.18,1.15,1.15,0,0,0,.42-.45h2.29a2.9,2.9,0,0,1-.81,1.38,3.63,3.63,0,0,1-2.73.93,3.77,3.77,0,0,1-2.77-1,3.48,3.48,0,0,1-1-2.53,3.6,3.6,0,0,1,1-2.6,3.8,3.8,0,0,1,2.75-1,3.67,3.67,0,0,1,2.58.91,3.77,3.77,0,0,1,1.06,2.82Zm-2.2-1.38a1.58,1.58,0,0,0-.39-.72,1.38,1.38,0,0,0-1-.36,1.28,1.28,0,0,0-1,.36,1.45,1.45,0,0,0-.36.72Z"/><path d="M357.28,211.27h3.8v2h-3.8Z"/><path d="M371.34,209.59h2.4v6.71h-2.4v-.74a2.51,2.51,0,0,1-2.09,1,3.21,3.21,0,0,1-2.41-1.06,3.37,3.37,0,0,1-1-2.46,3.72,3.72,0,0,1,1-2.69,3.46,3.46,0,0,1,2.42-.94,2.65,2.65,0,0,1,2,.87Zm-2.52,2.25a1.58,1.58,0,0,0-.48,1.1,1.52,1.52,0,0,0,.46,1.09,1.71,1.71,0,0,0,1.08.45A1.53,1.53,0,0,0,371,214a1.46,1.46,0,0,0,.45-1.08,1.5,1.5,0,0,0-.46-1.1,1.54,1.54,0,0,0-1.08-.43A1.52,1.52,0,0,0,368.82,211.84Z"/><path d="M375.39,209.59h2.4v.84a2.52,2.52,0,0,1,2.13-1,2.74,2.74,0,0,1,2,.72,2.32,2.32,0,0,1,.63,1.88v4.26h-2.4v-3.39a2,2,0,0,0-.3-1.31,1,1,0,0,0-.77-.28,1.3,1.3,0,0,0-.88.31,1.55,1.55,0,0,0-.39,1.07v3.6h-2.4Z"/><path d="M389.35,209.59h2.4v6.71h-2.4v-.74a2.48,2.48,0,0,1-2.08,1,3.23,3.23,0,0,1-2.42-1.06,3.41,3.41,0,0,1-1-2.46,3.72,3.72,0,0,1,1-2.69,3.44,3.44,0,0,1,2.41-.94,2.63,2.63,0,0,1,2,.87Zm-2.52,2.25a1.58,1.58,0,0,0-.48,1.1,1.53,1.53,0,0,0,.47,1.09,1.66,1.66,0,0,0,1.08.45A1.53,1.53,0,0,0,389,214a1.46,1.46,0,0,0,.45-1.08,1.47,1.47,0,0,0-.47-1.1,1.53,1.53,0,0,0-2.13,0Z"/><path d="M395.8,205.36V216.3h-2.4V205.36Z"/><path d="M404.19,215.41a4.6,4.6,0,0,1-6,0,3.46,3.46,0,0,1,0-4.93,4.6,4.6,0,0,1,6,0,3.46,3.46,0,0,1,0,4.93Zm-4.07-3.57a1.56,1.56,0,0,0-.46,1.1,1.55,1.55,0,0,0,1.54,1.51,1.52,1.52,0,0,0,1.07-.45,1.45,1.45,0,0,0,.46-1.06,1.63,1.63,0,0,0-.46-1.1,1.56,1.56,0,0,0-2.15,0Z"/><path d="M414.15,209.59v6.29a3.55,3.55,0,0,1-.92,2.77,4,4,0,0,1-3,1.08,4.12,4.12,0,0,1-3.14-1.18,2.44,2.44,0,0,1-.73-1.4h2.67a1,1,0,0,0,1.12.69,1.47,1.47,0,0,0,1.07-.37,1.65,1.65,0,0,0,.48-1.25v-.67a2.56,2.56,0,0,1-2,.88,3.37,3.37,0,0,1-2.48-.94,3.55,3.55,0,0,1-.93-2.45,3.87,3.87,0,0,1,1-2.62,3.37,3.37,0,0,1,2.43-1,2.64,2.64,0,0,1,2,.88v-.69Zm-4.89,2.25a1.57,1.57,0,0,0-.47,1.08,1.59,1.59,0,0,0,.47,1.1,1.52,1.52,0,0,0,1.08.43,1.54,1.54,0,0,0,1.53-1.53,1.74,1.74,0,0,0-.48-1.09,1.53,1.53,0,0,0-1.07-.44A1.44,1.44,0,0,0,409.26,211.84Z"/><path d="M417.69,206.29l1.74,6.47,2.11-6.47h2.07l2,6.47,1.89-6.47h2.71l-3.19,10h-2.66l-1.81-5.79-1.92,5.79H418l-3-10Z"/><path d="M430.45,209.59h2.4v1.1a2.17,2.17,0,0,1,.95-.93,2.54,2.54,0,0,1,1.24-.27l.48,0v2.26a2.11,2.11,0,0,0-1-.24,1.61,1.61,0,0,0-1.1.36,2,2,0,0,0-.54,1.53v2.87h-2.4Z"/><path d="M437.79,205.45a1.35,1.35,0,1,1-1.35,1.35A1.34,1.34,0,0,1,437.79,205.45Zm1.2,4.14v6.71h-2.4v-6.71Z"/><path d="M443.28,211.56v4.74h-2.4v-4.74h-.77v-2h.77v-2.2h2.4v2.2h1.36v2Z"/><path d="M452.65,213.39h-5a1.65,1.65,0,0,0,.42,1.12,1.35,1.35,0,0,0,1,.33,1.81,1.81,0,0,0,.78-.18,1.15,1.15,0,0,0,.42-.45h2.29a2.9,2.9,0,0,1-.81,1.38,3.63,3.63,0,0,1-2.73.93,3.77,3.77,0,0,1-2.77-1,3.48,3.48,0,0,1-1-2.53,3.6,3.6,0,0,1,1-2.6,3.8,3.8,0,0,1,2.75-1,3.67,3.67,0,0,1,2.58.91,3.77,3.77,0,0,1,1.06,2.82Zm-2.2-1.38a1.58,1.58,0,0,0-.39-.72,1.38,1.38,0,0,0-1-.36,1.28,1.28,0,0,0-1,.36,1.45,1.45,0,0,0-.36.72Z"/><path d="M456.12,219.12a9.71,9.71,0,0,1-1.47-3.36,12.53,12.53,0,0,1-.44-3.51,12.94,12.94,0,0,1,.56-3.93,13.36,13.36,0,0,1,1.35-3l1.69.9A13,13,0,0,0,456.7,209a13.86,13.86,0,0,0-.42,3.19,16.35,16.35,0,0,0,.36,3.11,10.65,10.65,0,0,0,1.17,2.94Z"/><path d="M465.48,206.29l-2.85,3.41a3.5,3.5,0,0,1,1.39-.32,3.25,3.25,0,0,1,3.21,3.35,3.5,3.5,0,0,1-1,2.61,5,5,0,0,1-6.48,0,3.29,3.29,0,0,1-.92-2.34,6.43,6.43,0,0,1,1.49-3.74l2.23-2.94ZM464.11,214a1.58,1.58,0,0,0,.47-1.14,1.45,1.45,0,0,0-.47-1.05,1.6,1.6,0,0,0-1.15-.46,1.77,1.77,0,0,0-1.13.43,1.49,1.49,0,0,0-.49,1,1.68,1.68,0,0,0,.43,1.14,1.67,1.67,0,0,0,1.19.51A1.56,1.56,0,0,0,464.11,214Z"/><path d="M475.5,212.41h1.21v2H475.5v1.89h-2.4v-1.89h-4.85v-1.67l3.86-6.45h3.39Zm-2.4,0v-4.08l-2.36,4.08Z"/><path d="M477.79,218.22a10.35,10.35,0,0,0,1.17-2.94,15.58,15.58,0,0,0,.36-3.11,13.86,13.86,0,0,0-.42-3.19,12.52,12.52,0,0,0-1.11-2.72l1.7-.9a13.83,13.83,0,0,1,1.35,3,13.44,13.44,0,0,1,.55,3.94,12.52,12.52,0,0,1-.43,3.5,10.1,10.1,0,0,1-1.47,3.36Z"/><line x1="65.12" y1="163.58" x2="593.12" y2="163.58" style="fill:#fff;stroke:#000;stroke-miterlimit:10;stroke-width:5px"/><line x1="66.62" y1="544.86" x2="66.62" y2="643.86" style="fill:none;stroke:#91c54f;stroke-miterlimit:10;stroke-width:3px"/><line x1="171.62" y1="545.36" x2="171.62" y2="644.36" style="fill:none;stroke:#91c54f;stroke-miterlimit:10;stroke-width:3px"/><line x1="276.62" y1="545.36" x2="276.62" y2="644.36" style="fill:none;stroke:#91c54f;stroke-miterlimit:10;stroke-width:3px"/><line x1="381.62" y1="545.36" x2="381.62" y2="644.36" style="fill:none;stroke:#91c54f;stroke-miterlimit:10;stroke-width:3px"/><line x1="486.62" y1="544.36" x2="486.62" y2="643.36" style="fill:none;stroke:#91c54f;stroke-miterlimit:10;stroke-width:3px"/><line x1="591.62" y1="544.36" x2="591.62" y2="643.36" style="fill:none;stroke:#91c54f;stroke-miterlimit:10;stroke-width:3px"/><path d="M44.88,648.66a3.91,3.91,0,0,1-5.52,0,6.38,6.38,0,0,1,0-8.17,3.91,3.91,0,0,1,5.52,0,6.34,6.34,0,0,1,0,8.17ZM41.33,642a3.92,3.92,0,0,0-.87,2.61,4,4,0,0,0,.87,2.61,1.19,1.19,0,0,0,.79.31,1.24,1.24,0,0,0,.8-.31,4,4,0,0,0,.87-2.6,4.16,4.16,0,0,0-.87-2.62,1.25,1.25,0,0,0-.8-.32A1.2,1.2,0,0,0,41.33,642Z"/><path d="M49.46,639.57l2.4,6.09,2.43-6.09h2.82l-4.26,10h-2l-4.2-10Z"/><path d="M45.05,550H41.58l-.18,1.11a6,6,0,0,1,.81-.08,3.54,3.54,0,0,1,2.64,1,3.27,3.27,0,0,1,.92,2.37,3.52,3.52,0,0,1-1,2.51A4.16,4.16,0,0,1,41.69,558a6.08,6.08,0,0,1-3.38-.9l.39-2.43a4.88,4.88,0,0,0,1.2.81,3.74,3.74,0,0,0,1.5.35,1.79,1.79,0,0,0,1.31-.5,1.52,1.52,0,0,0,.39-1,1.45,1.45,0,0,0-.48-1.08,2.87,2.87,0,0,0-1.8-.49,4,4,0,0,0-1.85.42l.87-5.39h5.21Z"/><path d="M49.46,547.79l2.4,6.09,2.43-6.09h2.82l-4.26,10h-2l-4.2-10Z"/><path d="M186.12,527.5H182v-2.21h8.2l-5.73,10h-2.86Z"/><path d="M196.18,527.5h-3.46l-.18,1.11a5.68,5.68,0,0,1,.81-.08,3.57,3.57,0,0,1,2.64,1,3.26,3.26,0,0,1,.91,2.37,3.52,3.52,0,0,1-1,2.51,4.16,4.16,0,0,1-3.12,1.12,6.07,6.07,0,0,1-3.37-.9l.39-2.43a4.53,4.53,0,0,0,1.2.81,3.7,3.7,0,0,0,1.5.35,1.78,1.78,0,0,0,1.3-.5,1.47,1.47,0,0,0,.39-1,1.41,1.41,0,0,0-.48-1.08,2.87,2.87,0,0,0-1.8-.49,4,4,0,0,0-1.84.42l.87-5.39h5.2Z"/><path d="M198.88,529.3a2.31,2.31,0,0,1-.63-1.62,2.53,2.53,0,0,1,.62-1.7,2.74,2.74,0,0,1,2.1-.79,2.8,2.8,0,0,1,2.13.79,2.47,2.47,0,0,1,0,3.32,2.83,2.83,0,0,1-2.11.79A2.72,2.72,0,0,1,198.88,529.3Zm1.29-2.45a1.15,1.15,0,0,0,.09,1.64,1.11,1.11,0,0,0,.74.27,1.2,1.2,0,0,0,.79-.32,1.13,1.13,0,0,0,.33-.81,1.17,1.17,0,0,0-.36-.84,1,1,0,0,0-.76-.28A1.16,1.16,0,0,0,200.17,526.85Zm6.54-1.56H208l-5.81,10h-1.29Zm-.87,9.33a2.28,2.28,0,0,1-.63-1.62,2.53,2.53,0,0,1,.62-1.69,2.72,2.72,0,0,1,2.1-.8,2.8,2.8,0,0,1,2.13.8,2.46,2.46,0,0,1,0,3.31,2.84,2.84,0,0,1-2.11.8A2.73,2.73,0,0,1,205.84,534.62Zm1.29-2.44a1.14,1.14,0,0,0,.09,1.63,1.06,1.06,0,0,0,.74.27,1.19,1.19,0,0,0,.79-.31,1.17,1.17,0,0,0,.33-.81,1.15,1.15,0,0,0-.36-.84,1.05,1.05,0,0,0-.76-.29A1.12,1.12,0,0,0,207.13,532.18Z"/><path d="M220.57,535.15a3.59,3.59,0,0,1-1.66.37,3.67,3.67,0,0,1-2.64-1,3.49,3.49,0,0,1-1-2.5,3.68,3.68,0,0,1,1.08-2.6,3.87,3.87,0,0,1,2.7-1,3.46,3.46,0,0,1,1.56.38v2a2.08,2.08,0,0,0-1.24-.44,1.57,1.57,0,0,0-1.17.47,1.63,1.63,0,0,0-.47,1.15,1.76,1.76,0,0,0,.42,1.13,1.65,1.65,0,0,0,1.23.51,1.82,1.82,0,0,0,1.23-.45Z"/><path d="M223.14,524.45a1.35,1.35,0,1,1-1.35,1.35A1.34,1.34,0,0,1,223.14,524.45Zm1.2,4.14v6.71h-2.4v-6.71Z"/><path d="M231,535.15a3.59,3.59,0,0,1-1.66.37,3.67,3.67,0,0,1-2.64-1,3.49,3.49,0,0,1-1-2.5,3.68,3.68,0,0,1,1.08-2.6,3.87,3.87,0,0,1,2.7-1,3.46,3.46,0,0,1,1.56.38v2a2.08,2.08,0,0,0-1.24-.44,1.57,1.57,0,0,0-1.17.47,1.63,1.63,0,0,0-.47,1.15,1.76,1.76,0,0,0,.42,1.13,1.65,1.65,0,0,0,1.23.51,1.82,1.82,0,0,0,1.23-.45Z"/><path d="M234.81,524.36V535.3h-2.4V524.36Z"/><path d="M238.84,528.59v3.75a1.32,1.32,0,0,0,.36,1,1.24,1.24,0,0,0,.84.25,1.15,1.15,0,0,0,.86-.28,1.25,1.25,0,0,0,.34-.95v-3.75h2.4v4.19a2.3,2.3,0,0,1-.64,1.8,3.85,3.85,0,0,1-2.9.94,4,4,0,0,1-3-1,2.41,2.41,0,0,1-.63-1.78v-4.19Z"/><path d="M256.38,535.3H254v-.74a2.47,2.47,0,0,1-2,1,3.18,3.18,0,0,1-2.35-.93,3.8,3.8,0,0,1,0-5.32,3.44,3.44,0,0,1,2.37-.9,2.65,2.65,0,0,1,2,.87v-4.88h2.4Zm-2.84-2.22a1.61,1.61,0,0,0,.51-1.14,1.73,1.73,0,0,0-.45-1.08,1.44,1.44,0,0,0-1.09-.45,1.48,1.48,0,0,0-1.07.43A1.64,1.64,0,0,0,251,532a1.51,1.51,0,0,0,.46,1,1.49,1.49,0,0,0,1.07.45A1.64,1.64,0,0,0,253.54,533.08Z"/><path d="M265.14,532.39h-5a1.7,1.7,0,0,0,.42,1.12,1.35,1.35,0,0,0,1,.33,1.81,1.81,0,0,0,.78-.18,1.08,1.08,0,0,0,.42-.45h2.3a3.08,3.08,0,0,1-.81,1.38,3.66,3.66,0,0,1-2.73.93,3.79,3.79,0,0,1-2.78-1,3.52,3.52,0,0,1-1-2.53,3.56,3.56,0,0,1,1-2.6,3.75,3.75,0,0,1,2.74-1,3.66,3.66,0,0,1,2.58.91,3.74,3.74,0,0,1,1.07,2.82ZM262.93,531a1.58,1.58,0,0,0-.39-.72,1.37,1.37,0,0,0-1-.36,1.26,1.26,0,0,0-1,.36,1.3,1.3,0,0,0-.36.72Z"/><path d="M272.59,530.56v4.74h-2.4v-4.74h-.84v-2h.84v-1.12a3.47,3.47,0,0,1,.62-2.21,2.79,2.79,0,0,1,2.32-1.06,3.2,3.2,0,0,1,1.16.22v2.07a1.55,1.55,0,0,0-.75-.22.88.88,0,0,0-.68.25,1.83,1.83,0,0,0-.27,1.13v.94h1.68v2Z"/><path d="M277.59,528.59v3.75a1.28,1.28,0,0,0,.36,1,1.23,1.23,0,0,0,.84.25,1.13,1.13,0,0,0,.85-.28,1.26,1.26,0,0,0,.35-.95v-3.75h2.4v4.19a2.31,2.31,0,0,1-.65,1.8,3.83,3.83,0,0,1-2.89.94,4,4,0,0,1-3-1,2.41,2.41,0,0,1-.63-1.78v-4.19Z"/><path d="M284,528.59h2.4v.84a2.52,2.52,0,0,1,2.13-1,2.74,2.74,0,0,1,2,.72,2.32,2.32,0,0,1,.63,1.88v4.26h-2.4v-3.39a2,2,0,0,0-.3-1.31,1,1,0,0,0-.77-.28,1.3,1.3,0,0,0-.88.31,1.55,1.55,0,0,0-.39,1.07v3.6H284Z"/><path d="M297.88,535.15a3.59,3.59,0,0,1-1.66.37,3.67,3.67,0,0,1-2.64-1,3.49,3.49,0,0,1-1-2.5,3.68,3.68,0,0,1,1.08-2.6,3.87,3.87,0,0,1,2.7-1,3.46,3.46,0,0,1,1.56.38v2a2.08,2.08,0,0,0-1.24-.44,1.57,1.57,0,0,0-1.17.47A1.63,1.63,0,0,0,295,532a1.76,1.76,0,0,0,.42,1.13,1.65,1.65,0,0,0,1.23.51,1.82,1.82,0,0,0,1.23-.45Z"/><path d="M302.05,530.56v4.74h-2.4v-4.74h-.76v-2h.76v-2.2h2.4v2.2h1.37v2Zm-2.31,5.49,2.25.24-1.53,2.76-1.5-.18Z"/><path d="M305.52,524.45a1.35,1.35,0,1,1-1.35,1.35A1.35,1.35,0,0,1,305.52,524.45Zm1.2,4.14v6.71h-2.4v-6.71Z"/><path d="M315.1,534.41a4.58,4.58,0,0,1-6,0,3.44,3.44,0,0,1,0-4.93,4.58,4.58,0,0,1,6,0,3.44,3.44,0,0,1,0,4.93ZM311,530.84a1.57,1.57,0,0,0-.47,1.1A1.55,1.55,0,0,0,311,533a1.5,1.5,0,0,0,2.14,0,1.47,1.47,0,0,0,.47-1.06,1.65,1.65,0,0,0-.47-1.1,1.55,1.55,0,0,0-2.14,0Z"/><path d="M317.52,528.59h2.4v.84a2.52,2.52,0,0,1,2.13-1,2.74,2.74,0,0,1,2,.72,2.35,2.35,0,0,1,.63,1.88v4.26h-2.4v-3.39a2,2,0,0,0-.3-1.31,1,1,0,0,0-.77-.28,1.3,1.3,0,0,0-.88.31,1.55,1.55,0,0,0-.39,1.07v3.6h-2.4Z"/><path d="M331.48,528.59h2.4v6.71h-2.4v-.74a2.49,2.49,0,0,1-2.09,1,3.23,3.23,0,0,1-2.41-1.06,3.41,3.41,0,0,1-1-2.46,3.72,3.72,0,0,1,1-2.69,3.48,3.48,0,0,1,2.42-.94,2.65,2.65,0,0,1,2,.87ZM329,530.84a1.58,1.58,0,0,0-.48,1.1,1.52,1.52,0,0,0,.46,1.09,1.71,1.71,0,0,0,1.08.45,1.52,1.52,0,0,0,1.08-.46,1.53,1.53,0,0,0,0-2.18,1.54,1.54,0,0,0-1.08-.43A1.52,1.52,0,0,0,329,530.84Z"/><path d="M335.53,528.59h2.4v1.1a2.12,2.12,0,0,1,.95-.93,2.54,2.54,0,0,1,1.24-.27l.48,0v2.26a2.13,2.13,0,0,0-1-.24,1.59,1.59,0,0,0-1.09.36,2,2,0,0,0-.54,1.53v2.87h-2.4Z"/><path d="M348.77,532.39h-5a1.7,1.7,0,0,0,.42,1.12,1.35,1.35,0,0,0,1,.33,1.81,1.81,0,0,0,.78-.18,1.15,1.15,0,0,0,.42-.45h2.29a3,3,0,0,1-.8,1.38,3.67,3.67,0,0,1-2.74.93,3.77,3.77,0,0,1-2.77-1,3.48,3.48,0,0,1-1-2.53,3.56,3.56,0,0,1,1-2.6,3.75,3.75,0,0,1,2.74-1,3.66,3.66,0,0,1,2.58.91,3.77,3.77,0,0,1,1.06,2.82Zm-2.2-1.38a1.58,1.58,0,0,0-.39-.72,1.38,1.38,0,0,0-1-.36,1.26,1.26,0,0,0-1,.36,1.38,1.38,0,0,0-.37.72Z"/><path d="M353.58,530.27h3.79v2h-3.79Z"/><path d="M367.63,528.59H370v6.71h-2.4v-.74a2.48,2.48,0,0,1-2.08,1,3.23,3.23,0,0,1-2.42-1.06,3.41,3.41,0,0,1-1-2.46,3.72,3.72,0,0,1,1-2.69,3.44,3.44,0,0,1,2.41-.94,2.65,2.65,0,0,1,2,.87Zm-2.52,2.25a1.58,1.58,0,0,0-.48,1.1,1.56,1.56,0,0,0,.46,1.09,1.71,1.71,0,0,0,1.09.45,1.53,1.53,0,0,0,1.08-.46,1.46,1.46,0,0,0,.45-1.08,1.47,1.47,0,0,0-.47-1.1,1.53,1.53,0,0,0-2.13,0Z"/><path d="M371.68,528.59h2.4v.84a2.53,2.53,0,0,1,2.13-1,2.72,2.72,0,0,1,2,.72,2.32,2.32,0,0,1,.63,1.88v4.26h-2.4v-3.39a1.91,1.91,0,0,0-.3-1.31,1,1,0,0,0-.76-.28,1.33,1.33,0,0,0-.89.31,1.55,1.55,0,0,0-.39,1.07v3.6h-2.4Z"/><path d="M385.64,528.59h2.41v6.71h-2.41v-.74a2.48,2.48,0,0,1-2.08,1,3.25,3.25,0,0,1-2.42-1.06,3.41,3.41,0,0,1-1-2.46,3.72,3.72,0,0,1,1-2.69,3.46,3.46,0,0,1,2.42-.94,2.6,2.6,0,0,1,2,.87Zm-2.51,2.25a1.59,1.59,0,0,0-.49,1.1,1.53,1.53,0,0,0,.47,1.09,1.69,1.69,0,0,0,1.08.45,1.53,1.53,0,0,0,1.08-.46,1.46,1.46,0,0,0,.45-1.08,1.5,1.5,0,0,0-.46-1.1,1.56,1.56,0,0,0-1.08-.43A1.52,1.52,0,0,0,383.13,530.84Z"/><path d="M392.09,524.36V535.3H389.7V524.36Z"/><path d="M400.48,534.41a4.58,4.58,0,0,1-6,0,3.44,3.44,0,0,1,0-4.93,4.58,4.58,0,0,1,6,0,3.46,3.46,0,0,1,0,4.93Zm-4.06-3.57a1.57,1.57,0,0,0-.47,1.1,1.55,1.55,0,0,0,.47,1.06,1.5,1.5,0,0,0,2.14,0,1.47,1.47,0,0,0,.47-1.06,1.65,1.65,0,0,0-.47-1.1,1.55,1.55,0,0,0-2.14,0Z"/><path d="M410.44,528.59v6.29a3.58,3.58,0,0,1-.91,2.77,4,4,0,0,1-3,1.08,4.1,4.1,0,0,1-3.13-1.18,2.46,2.46,0,0,1-.74-1.4h2.67a1,1,0,0,0,1.13.69,1.44,1.44,0,0,0,1.06-.37,1.61,1.61,0,0,0,.48-1.25v-.67a2.56,2.56,0,0,1-2,.88,3.35,3.35,0,0,1-2.47-.94,3.55,3.55,0,0,1-.93-2.45,3.82,3.82,0,0,1,1-2.62,3.33,3.33,0,0,1,2.43-1,2.61,2.61,0,0,1,2,.88v-.69Zm-4.89,2.25a1.6,1.6,0,0,0-.46,1.08,1.58,1.58,0,0,0,.46,1.1,1.55,1.55,0,0,0,2.16,0,1.59,1.59,0,0,0,.45-1.08,1.68,1.68,0,0,0-.48-1.09,1.52,1.52,0,0,0-1.06-.44A1.46,1.46,0,0,0,405.55,530.84Z"/><path d="M414,525.29l1.74,6.47,2.12-6.47h2.07l2,6.47,1.89-6.47h2.71l-3.19,10h-2.65l-1.82-5.79-1.92,5.79h-2.64l-3-10Z"/><path d="M426.75,528.59h2.4v1.1a2.15,2.15,0,0,1,.94-.93,2.58,2.58,0,0,1,1.25-.27l.48,0v2.26a2.13,2.13,0,0,0-1-.24,1.59,1.59,0,0,0-1.09.36,2,2,0,0,0-.54,1.53v2.87h-2.4Z"/><path d="M434.08,524.45a1.35,1.35,0,1,1-1.35,1.35A1.34,1.34,0,0,1,434.08,524.45Zm1.2,4.14v6.71h-2.4v-6.71Z"/><path d="M439.57,530.56v4.74h-2.4v-4.74h-.76v-2h.76v-2.2h2.4v2.2h1.37v2Z"/><path d="M449,532.39h-5a1.7,1.7,0,0,0,.42,1.12,1.35,1.35,0,0,0,1,.33,1.81,1.81,0,0,0,.78-.18,1.08,1.08,0,0,0,.42-.45h2.3a3.08,3.08,0,0,1-.81,1.38,3.66,3.66,0,0,1-2.73.93,3.79,3.79,0,0,1-2.78-1,3.52,3.52,0,0,1-1-2.53,3.56,3.56,0,0,1,1-2.6,3.75,3.75,0,0,1,2.74-1,3.66,3.66,0,0,1,2.58.91,3.74,3.74,0,0,1,1.07,2.82ZM446.74,531a1.58,1.58,0,0,0-.39-.72,1.37,1.37,0,0,0-1-.36,1.26,1.26,0,0,0-1,.36,1.3,1.3,0,0,0-.36.72Z"/><path d="M452.41,538.12a10.1,10.1,0,0,1-1.47-3.36,12.54,12.54,0,0,1-.43-3.51,13.34,13.34,0,0,1,.55-3.93,13.83,13.83,0,0,1,1.35-3l1.7.9A12.52,12.52,0,0,0,453,528a13.86,13.86,0,0,0-.42,3.19,15.58,15.58,0,0,0,.36,3.11,10.35,10.35,0,0,0,1.17,2.94Z"/><path d="M458.32,527.5H456.9v-2.21h4v10h-2.6Z"/><path d="M464.37,535.3l2.83-3.38a2.59,2.59,0,0,1-1.33.32,3.14,3.14,0,0,1-2.3-.92,3.29,3.29,0,0,1-1-2.41,3.68,3.68,0,0,1,1-2.58,4.42,4.42,0,0,1,3.29-1.26,4.36,4.36,0,0,1,3.21,1.18,3.57,3.57,0,0,1,1,2.48,6.42,6.42,0,0,1-1.52,3.67l-2.23,2.9Zm1.36-7.7a1.65,1.65,0,0,0-.49,1.14,1.53,1.53,0,0,0,.48,1.08,1.73,1.73,0,0,0,1.17.45,1.62,1.62,0,0,0,1.65-1.56,1.71,1.71,0,0,0-.48-1.11,1.81,1.81,0,0,0-1.17-.48A1.61,1.61,0,0,0,465.73,527.6Z"/><path d="M473.89,527.5h-1.42v-2.21h4v10h-2.6Z"/><path d="M480.09,537.22a10.65,10.65,0,0,0,1.17-2.94,16.35,16.35,0,0,0,.36-3.11,13.86,13.86,0,0,0-.42-3.19,13,13,0,0,0-1.11-2.72l1.69-.9a12.66,12.66,0,0,1,1.91,6.9,12.5,12.5,0,0,1-.44,3.5,9.71,9.71,0,0,1-1.47,3.36Z"/><line x1="66.62" y1="389.86" x2="66.62" y2="488.86" style="fill:none;stroke:#91c54f;stroke-miterlimit:10;stroke-width:3px"/><line x1="171.62" y1="390.36" x2="171.62" y2="489.36" style="fill:none;stroke:#91c54f;stroke-miterlimit:10;stroke-width:3px"/><line x1="276.62" y1="390.36" x2="276.62" y2="489.36" style="fill:none;stroke:#91c54f;stroke-miterlimit:10;stroke-width:3px"/><line x1="381.62" y1="390.36" x2="381.62" y2="489.36" style="fill:none;stroke:#91c54f;stroke-miterlimit:10;stroke-width:3px"/><line x1="486.62" y1="389.36" x2="486.62" y2="488.36" style="fill:none;stroke:#91c54f;stroke-miterlimit:10;stroke-width:3px"/><line x1="591.62" y1="389.36" x2="591.62" y2="488.36" style="fill:none;stroke:#91c54f;stroke-miterlimit:10;stroke-width:3px"/><path d="M44.88,493.66a3.91,3.91,0,0,1-5.52,0,6.38,6.38,0,0,1,0-8.17,3.91,3.91,0,0,1,5.52,0,6.34,6.34,0,0,1,0,8.17ZM41.33,487a3.92,3.92,0,0,0-.87,2.61,4,4,0,0,0,.87,2.61,1.19,1.19,0,0,0,.79.31,1.24,1.24,0,0,0,.8-.31,4,4,0,0,0,.87-2.6,4.16,4.16,0,0,0-.87-2.62,1.25,1.25,0,0,0-.8-.32A1.2,1.2,0,0,0,41.33,487Z"/><path d="M49.46,484.57l2.4,6.09,2.43-6.09h2.82l-4.26,10h-2l-4.2-10Z"/><path d="M45.05,395H41.58l-.18,1.11a6,6,0,0,1,.81-.08,3.54,3.54,0,0,1,2.64,1,3.27,3.27,0,0,1,.92,2.37,3.52,3.52,0,0,1-1,2.51A4.16,4.16,0,0,1,41.69,403a6.08,6.08,0,0,1-3.38-.9l.39-2.43a4.88,4.88,0,0,0,1.2.81,3.74,3.74,0,0,0,1.5.35,1.79,1.79,0,0,0,1.31-.5,1.52,1.52,0,0,0,.39-1,1.45,1.45,0,0,0-.48-1.08,2.87,2.87,0,0,0-1.8-.49,4,4,0,0,0-1.85.42l.87-5.39h5.21Z"/><path d="M49.46,392.79l2.4,6.09,2.43-6.09h2.82l-4.26,10h-2l-4.2-10Z"/><path d="M187.65,371.5h-3.47l-.18,1.11a6,6,0,0,1,.81-.08,3.54,3.54,0,0,1,2.64,1,3.27,3.27,0,0,1,.92,2.37,3.52,3.52,0,0,1-1,2.51,4.16,4.16,0,0,1-3.12,1.12,6.08,6.08,0,0,1-3.38-.9l.39-2.43a4.88,4.88,0,0,0,1.2.81,3.74,3.74,0,0,0,1.5.35,1.79,1.79,0,0,0,1.31-.5,1.52,1.52,0,0,0,.39-1,1.45,1.45,0,0,0-.48-1.08,2.87,2.87,0,0,0-1.8-.49,4,4,0,0,0-1.85.42l.87-5.39h5.21Z"/><path d="M196.48,378.38a3.91,3.91,0,0,1-5.52,0,6.38,6.38,0,0,1,0-8.17,3.91,3.91,0,0,1,5.52,0,6.34,6.34,0,0,1,0,8.17Zm-3.55-6.67a3.92,3.92,0,0,0-.87,2.61,4,4,0,0,0,.87,2.61,1.19,1.19,0,0,0,.79.31,1.24,1.24,0,0,0,.8-.31,4,4,0,0,0,.87-2.6,4.16,4.16,0,0,0-.87-2.62,1.25,1.25,0,0,0-.8-.32A1.2,1.2,0,0,0,192.93,371.71Z"/><path d="M199.35,373.3a2.27,2.27,0,0,1-.63-1.62,2.53,2.53,0,0,1,.61-1.7,2.74,2.74,0,0,1,2.1-.79,2.78,2.78,0,0,1,2.13.79,2.32,2.32,0,0,1,.63,1.65,2.36,2.36,0,0,1-.64,1.67,2.83,2.83,0,0,1-2.12.79A2.7,2.7,0,0,1,199.35,373.3Zm1.29-2.45a1.15,1.15,0,0,0,.09,1.64,1.09,1.09,0,0,0,.73.27,1.25,1.25,0,0,0,.8-.32,1.16,1.16,0,0,0,0-1.65,1.07,1.07,0,0,0-.77-.28A1.15,1.15,0,0,0,200.64,370.85Zm6.54-1.56h1.3l-5.8,10h-1.29Zm-.87,9.33a2.24,2.24,0,0,1-.63-1.62,2.52,2.52,0,0,1,.61-1.69,2.72,2.72,0,0,1,2.1-.8,2.78,2.78,0,0,1,2.13.8,2.3,2.3,0,0,1,.63,1.65,2.35,2.35,0,0,1-.64,1.66,2.84,2.84,0,0,1-2.12.8A2.71,2.71,0,0,1,206.31,378.62Zm1.29-2.44a1.14,1.14,0,0,0,.09,1.63,1,1,0,0,0,.73.27,1.24,1.24,0,0,0,.8-.31,1.21,1.21,0,0,0,.33-.81,1.15,1.15,0,0,0-.36-.84,1.08,1.08,0,0,0-.77-.29A1.12,1.12,0,0,0,207.6,376.18Z"/><path d="M221,379.15a3.63,3.63,0,0,1-1.67.37,3.69,3.69,0,0,1-2.64-1,3.48,3.48,0,0,1-1-2.5,3.64,3.64,0,0,1,1.08-2.6,3.87,3.87,0,0,1,2.7-1,3.46,3.46,0,0,1,1.56.38v2a2.14,2.14,0,0,0-1.25-.44,1.57,1.57,0,0,0-1.17.47,1.62,1.62,0,0,0-.46,1.15,1.71,1.71,0,0,0,.42,1.13,1.61,1.61,0,0,0,1.23.51,1.86,1.86,0,0,0,1.23-.45Z"/><path d="M223.6,368.45a1.35,1.35,0,1,1-1.35,1.35A1.34,1.34,0,0,1,223.6,368.45Zm1.2,4.14v6.71h-2.4v-6.71Z"/><path d="M231.51,379.15a3.63,3.63,0,0,1-1.67.37,3.69,3.69,0,0,1-2.64-1,3.48,3.48,0,0,1-1-2.5,3.64,3.64,0,0,1,1.08-2.6,3.87,3.87,0,0,1,2.7-1,3.46,3.46,0,0,1,1.56.38v2a2.14,2.14,0,0,0-1.25-.44,1.57,1.57,0,0,0-1.17.47,1.62,1.62,0,0,0-.46,1.15,1.71,1.71,0,0,0,.42,1.13,1.61,1.61,0,0,0,1.23.51,1.86,1.86,0,0,0,1.23-.45Z"/><path d="M235.27,368.36V379.3h-2.4V368.36Z"/><path d="M239.31,372.59v3.75a1.28,1.28,0,0,0,.36,1,1.23,1.23,0,0,0,.84.25,1.13,1.13,0,0,0,.85-.28,1.26,1.26,0,0,0,.35-1v-3.75h2.4v4.19a2.31,2.31,0,0,1-.65,1.8,3.83,3.83,0,0,1-2.89.94,4,4,0,0,1-3-1,2.41,2.41,0,0,1-.63-1.78v-4.19Z"/><path d="M256.84,379.3h-2.4v-.74a2.45,2.45,0,0,1-2,1,3.2,3.2,0,0,1-2.36-.93,3.71,3.71,0,0,1-1.08-2.67,3.62,3.62,0,0,1,1.1-2.65,3.42,3.42,0,0,1,2.37-.9,2.62,2.62,0,0,1,2,.87v-4.88h2.4ZM254,377.08a1.65,1.65,0,0,0,.51-1.14,1.73,1.73,0,0,0-.45-1.08,1.55,1.55,0,0,0-2.16,0,1.65,1.65,0,0,0-.47,1.14,1.57,1.57,0,0,0,1.53,1.5A1.69,1.69,0,0,0,254,377.08Z"/><path d="M265.6,376.39h-5a1.65,1.65,0,0,0,.42,1.12,1.35,1.35,0,0,0,1,.33,1.81,1.81,0,0,0,.78-.18,1.15,1.15,0,0,0,.42-.45h2.29a2.9,2.9,0,0,1-.81,1.38,3.63,3.63,0,0,1-2.73.93,3.77,3.77,0,0,1-2.77-1,3.48,3.48,0,0,1-1-2.53,3.6,3.6,0,0,1,1-2.6,3.8,3.8,0,0,1,2.75-1,3.67,3.67,0,0,1,2.58.91,3.77,3.77,0,0,1,1.06,2.82ZM263.4,375a1.58,1.58,0,0,0-.39-.72,1.38,1.38,0,0,0-1-.36,1.28,1.28,0,0,0-1,.36,1.45,1.45,0,0,0-.36.72Z"/><path d="M273.06,374.56v4.74h-2.4v-4.74h-.84v-2h.84v-1.12a3.46,3.46,0,0,1,.61-2.21,2.81,2.81,0,0,1,2.33-1.06,3.1,3.1,0,0,1,1.15.22v2.07a1.53,1.53,0,0,0-.75-.22.84.84,0,0,0-.67.25,1.76,1.76,0,0,0-.27,1.13v.94h1.68v2Z"/><path d="M278.05,372.59v3.75a1.32,1.32,0,0,0,.36,1,1.24,1.24,0,0,0,.84.25,1.15,1.15,0,0,0,.86-.28,1.25,1.25,0,0,0,.34-1v-3.75h2.4v4.19a2.3,2.3,0,0,1-.64,1.8,3.85,3.85,0,0,1-2.9.94,4,4,0,0,1-3-1,2.41,2.41,0,0,1-.63-1.78v-4.19Z"/><path d="M284.5,372.59h2.4v.84a2.53,2.53,0,0,1,2.13-1,2.72,2.72,0,0,1,2,.72,2.32,2.32,0,0,1,.63,1.88v4.26h-2.4v-3.39a1.91,1.91,0,0,0-.3-1.31,1,1,0,0,0-.76-.28,1.33,1.33,0,0,0-.89.31,1.55,1.55,0,0,0-.39,1.07v3.6h-2.4Z"/><path d="M298.35,379.15a3.63,3.63,0,0,1-1.67.37,3.69,3.69,0,0,1-2.64-1,3.48,3.48,0,0,1-1-2.5,3.64,3.64,0,0,1,1.08-2.6,3.87,3.87,0,0,1,2.7-1,3.46,3.46,0,0,1,1.56.38v2a2.14,2.14,0,0,0-1.25-.44,1.57,1.57,0,0,0-1.17.47,1.62,1.62,0,0,0-.46,1.15,1.71,1.71,0,0,0,.42,1.13,1.61,1.61,0,0,0,1.23.51,1.86,1.86,0,0,0,1.23-.45Z"/><path d="M302.52,374.56v4.74h-2.4v-4.74h-.77v-2h.77v-2.2h2.4v2.2h1.36v2Zm-2.31,5.49,2.25.24-1.53,2.76-1.5-.18Z"/><path d="M306,368.45a1.35,1.35,0,1,1-1.35,1.35A1.34,1.34,0,0,1,306,368.45Zm1.2,4.14v6.71h-2.4v-6.71Z"/><path d="M315.57,378.41a4.6,4.6,0,0,1-6,0,3.46,3.46,0,0,1,0-4.93,4.6,4.6,0,0,1,6,0,3.46,3.46,0,0,1,0,4.93Zm-4.07-3.57a1.56,1.56,0,0,0-.46,1.1,1.55,1.55,0,0,0,1.54,1.51,1.52,1.52,0,0,0,1.07-.45,1.45,1.45,0,0,0,.46-1.06,1.63,1.63,0,0,0-.46-1.1,1.56,1.56,0,0,0-2.15,0Z"/><path d="M318,372.59h2.4v.84a2.53,2.53,0,0,1,2.13-1,2.72,2.72,0,0,1,2,.72,2.32,2.32,0,0,1,.63,1.88v4.26h-2.4v-3.39a1.91,1.91,0,0,0-.3-1.31,1,1,0,0,0-.76-.28,1.33,1.33,0,0,0-.89.31,1.55,1.55,0,0,0-.39,1.07v3.6H318Z"/><path d="M332,372.59h2.4v6.71H332v-.74a2.51,2.51,0,0,1-2.09,1,3.21,3.21,0,0,1-2.41-1.06,3.37,3.37,0,0,1-1-2.46,3.72,3.72,0,0,1,1-2.69,3.46,3.46,0,0,1,2.42-.94,2.65,2.65,0,0,1,2,.87Zm-2.52,2.25a1.58,1.58,0,0,0-.48,1.1,1.52,1.52,0,0,0,.46,1.09,1.71,1.71,0,0,0,1.08.45,1.53,1.53,0,0,0,1.08-.46,1.46,1.46,0,0,0,.45-1.08,1.5,1.5,0,0,0-.46-1.1,1.54,1.54,0,0,0-1.08-.43A1.52,1.52,0,0,0,329.43,374.84Z"/><path d="M336,372.59h2.4v1.1a2.15,2.15,0,0,1,.94-.93,2.58,2.58,0,0,1,1.25-.27l.48,0v2.26a2.13,2.13,0,0,0-1-.24,1.59,1.59,0,0,0-1.09.36,2,2,0,0,0-.54,1.53v2.87H336Z"/><path d="M349.24,376.39h-5a1.65,1.65,0,0,0,.42,1.12,1.35,1.35,0,0,0,1,.33,1.81,1.81,0,0,0,.78-.18,1.15,1.15,0,0,0,.42-.45h2.29a2.9,2.9,0,0,1-.81,1.38,3.63,3.63,0,0,1-2.73.93,3.77,3.77,0,0,1-2.77-1,3.48,3.48,0,0,1-1-2.53,3.6,3.6,0,0,1,1-2.6,3.8,3.8,0,0,1,2.75-1,3.67,3.67,0,0,1,2.58.91,3.77,3.77,0,0,1,1.06,2.82ZM347,375a1.58,1.58,0,0,0-.39-.72,1.38,1.38,0,0,0-1-.36,1.28,1.28,0,0,0-1,.36,1.45,1.45,0,0,0-.36.72Z"/><path d="M354,374.27h3.8v2H354Z"/><path d="M368.1,372.59h2.4v6.71h-2.4v-.74a2.51,2.51,0,0,1-2.09,1,3.21,3.21,0,0,1-2.41-1.06,3.37,3.37,0,0,1-1-2.46,3.72,3.72,0,0,1,1-2.69,3.46,3.46,0,0,1,2.42-.94,2.65,2.65,0,0,1,2,.87Zm-2.52,2.25a1.58,1.58,0,0,0-.48,1.1,1.52,1.52,0,0,0,.46,1.09,1.71,1.71,0,0,0,1.08.45,1.53,1.53,0,0,0,1.08-.46,1.46,1.46,0,0,0,.45-1.08,1.5,1.5,0,0,0-.46-1.1,1.54,1.54,0,0,0-1.08-.43A1.52,1.52,0,0,0,365.58,374.84Z"/><path d="M372.15,372.59h2.4v.84a2.52,2.52,0,0,1,2.13-1,2.74,2.74,0,0,1,2,.72,2.32,2.32,0,0,1,.63,1.88v4.26h-2.4v-3.39a2,2,0,0,0-.3-1.31,1,1,0,0,0-.77-.28,1.3,1.3,0,0,0-.88.31,1.55,1.55,0,0,0-.39,1.07v3.6h-2.4Z"/><path d="M386.11,372.59h2.4v6.71h-2.4v-.74a2.48,2.48,0,0,1-2.08,1,3.23,3.23,0,0,1-2.42-1.06,3.41,3.41,0,0,1-1-2.46,3.72,3.72,0,0,1,1-2.69,3.44,3.44,0,0,1,2.41-.94,2.63,2.63,0,0,1,2,.87Zm-2.52,2.25a1.58,1.58,0,0,0-.48,1.1,1.53,1.53,0,0,0,.47,1.09,1.66,1.66,0,0,0,1.08.45,1.53,1.53,0,0,0,1.08-.46,1.46,1.46,0,0,0,.45-1.08,1.47,1.47,0,0,0-.47-1.1,1.53,1.53,0,0,0-2.13,0Z"/><path d="M392.56,368.36V379.3h-2.4V368.36Z"/><path d="M401,378.41a4.6,4.6,0,0,1-6,0,3.46,3.46,0,0,1,0-4.93,4.6,4.6,0,0,1,6,0,3.46,3.46,0,0,1,0,4.93Zm-4.07-3.57a1.56,1.56,0,0,0-.46,1.1,1.55,1.55,0,0,0,1.54,1.51A1.52,1.52,0,0,0,399,377a1.45,1.45,0,0,0,.46-1.06,1.63,1.63,0,0,0-.46-1.1,1.56,1.56,0,0,0-2.15,0Z"/><path d="M410.91,372.59v6.29a3.55,3.55,0,0,1-.92,2.77,4,4,0,0,1-2.95,1.08,4.12,4.12,0,0,1-3.14-1.18,2.44,2.44,0,0,1-.73-1.4h2.67a1,1,0,0,0,1.12.69,1.47,1.47,0,0,0,1.07-.37,1.65,1.65,0,0,0,.48-1.25v-.67a2.56,2.56,0,0,1-2,.88,3.37,3.37,0,0,1-2.48-.94,3.55,3.55,0,0,1-.93-2.45,3.87,3.87,0,0,1,1-2.62,3.37,3.37,0,0,1,2.43-1,2.64,2.64,0,0,1,2,.88v-.69ZM406,374.84a1.57,1.57,0,0,0-.47,1.08A1.59,1.59,0,0,0,406,377a1.52,1.52,0,0,0,1.08.43,1.54,1.54,0,0,0,1.53-1.53,1.74,1.74,0,0,0-.48-1.09,1.53,1.53,0,0,0-1.07-.44A1.44,1.44,0,0,0,406,374.84Z"/><path d="M414.45,369.29l1.74,6.47,2.11-6.47h2.07l2,6.47,1.89-6.47h2.71l-3.19,10h-2.66l-1.81-5.79-1.92,5.79h-2.64l-3-10Z"/><path d="M427.21,372.59h2.4v1.1a2.17,2.17,0,0,1,.95-.93,2.54,2.54,0,0,1,1.24-.27l.48,0v2.26a2.11,2.11,0,0,0-1-.24,1.61,1.61,0,0,0-1.1.36,2,2,0,0,0-.54,1.53v2.87h-2.4Z"/><path d="M434.55,368.45a1.35,1.35,0,1,1-1.35,1.35A1.34,1.34,0,0,1,434.55,368.45Zm1.2,4.14v6.71h-2.4v-6.71Z"/><path d="M440,374.56v4.74h-2.4v-4.74h-.77v-2h.77v-2.2H440v2.2h1.36v2Z"/><path d="M449.41,376.39h-5a1.65,1.65,0,0,0,.42,1.12,1.35,1.35,0,0,0,1,.33,1.81,1.81,0,0,0,.78-.18,1.15,1.15,0,0,0,.42-.45h2.29a2.9,2.9,0,0,1-.81,1.38,3.63,3.63,0,0,1-2.73.93,3.77,3.77,0,0,1-2.77-1,3.48,3.48,0,0,1-1-2.53,3.6,3.6,0,0,1,1-2.6,3.8,3.8,0,0,1,2.75-1,3.67,3.67,0,0,1,2.58.91,3.77,3.77,0,0,1,1.06,2.82Zm-2.2-1.38a1.58,1.58,0,0,0-.39-.72,1.38,1.38,0,0,0-1-.36,1.28,1.28,0,0,0-1,.36,1.45,1.45,0,0,0-.36.72Z"/><path d="M452.88,382.12a9.71,9.71,0,0,1-1.47-3.36,12.53,12.53,0,0,1-.44-3.51,12.94,12.94,0,0,1,.56-3.93,13.36,13.36,0,0,1,1.35-3l1.69.9a13,13,0,0,0-1.11,2.72,13.86,13.86,0,0,0-.42,3.19,16.35,16.35,0,0,0,.36,3.11,10.65,10.65,0,0,0,1.17,2.94Z"/><path d="M458.79,371.5h-1.43v-2.21h4v10h-2.59Z"/><path d="M470.82,379.3h-8l2.54-2.66a16.49,16.49,0,0,0,2.05-2.53,2.83,2.83,0,0,0,.54-1.56,1.5,1.5,0,0,0-.3-1,1,1,0,0,0-.73-.3,1.06,1.06,0,0,0-.87.4,2.46,2.46,0,0,0-.36,1.23H463a4,4,0,0,1,1.11-2.77,4.32,4.32,0,0,1,5.66,0,3.37,3.37,0,0,1,1,2.46,3.88,3.88,0,0,1-1.48,3l-1.68,1.56h3.27Z"/><path d="M476.46,371.5h-4.17v-2.21h8.2l-5.73,10H471.9Z"/><path d="M480.73,381.22a10.35,10.35,0,0,0,1.17-2.94,15.58,15.58,0,0,0,.36-3.11,13.86,13.86,0,0,0-.42-3.19,12.52,12.52,0,0,0-1.11-2.72l1.7-.9a13.83,13.83,0,0,1,1.35,3,13.44,13.44,0,0,1,.55,3.94,12.52,12.52,0,0,1-.43,3.5,10.1,10.1,0,0,1-1.47,3.36Z"/><line x1="66.62" y1="242.86" x2="66.62" y2="329.86" style="fill:#fff;stroke:#000;stroke-miterlimit:10;stroke-width:5px"/><line x1="64.12" y1="242.86" x2="90.12" y2="242.86" style="fill:none;stroke:#000;stroke-miterlimit:10;stroke-width:5px"/><line x1="90.12" y1="240.36" x2="90.12" y2="330.36" style="fill:none;stroke:#000;stroke-miterlimit:10;stroke-width:5px"/><line x1="170.62" y1="329.86" x2="87.62" y2="329.86" style="fill:none;stroke:#000;stroke-miterlimit:10;stroke-width:5px"/><line x1="66.62" y1="401.86" x2="66.62" y2="488.86" style="fill:#fff;stroke:#000;stroke-miterlimit:10;stroke-width:5px"/><line x1="64.12" y1="401.86" x2="118.12" y2="401.86" style="fill:none;stroke:#000;stroke-miterlimit:10;stroke-width:5px"/><line x1="118.12" y1="399.36" x2="118.12" y2="489.36" style="fill:none;stroke:#000;stroke-miterlimit:10;stroke-width:5px"/><line x1="171.17" y1="488.86" x2="115.67" y2="488.86" style="fill:none;stroke:#000;stroke-miterlimit:10;stroke-width:5px"/><line x1="66.62" y1="555.86" x2="66.62" y2="642.86" style="fill:#fff;stroke:#000;stroke-miterlimit:10;stroke-width:5px"/><line x1="64.12" y1="555.86" x2="147.12" y2="555.86" style="fill:none;stroke:#000;stroke-miterlimit:10;stroke-width:5px"/><line x1="147.12" y1="553.36" x2="147.12" y2="643.36" style="fill:none;stroke:#000;stroke-miterlimit:10;stroke-width:5px"/><line x1="172.12" y1="642.86" x2="144.67" y2="642.86" style="fill:none;stroke:#000;stroke-miterlimit:10;stroke-width:5px"/><line x1="172.62" y1="556.36" x2="172.62" y2="645.36" style="fill:#fff;stroke:#000;stroke-miterlimit:10;stroke-width:5px"/><line x1="170.12" y1="555.86" x2="253.12" y2="555.86" style="fill:none;stroke:#000;stroke-miterlimit:10;stroke-width:5px"/><line x1="253.12" y1="553.36" x2="253.12" y2="643.36" style="fill:none;stroke:#000;stroke-miterlimit:10;stroke-width:5px"/><line x1="278.12" y1="642.86" x2="250.67" y2="642.86" style="fill:none;stroke:#000;stroke-miterlimit:10;stroke-width:5px"/><line x1="276.62" y1="556.36" x2="276.62" y2="645.36" style="fill:#fff;stroke:#000;stroke-miterlimit:10;stroke-width:5px"/><line x1="274.12" y1="555.86" x2="357.12" y2="555.86" style="fill:none;stroke:#000;stroke-miterlimit:10;stroke-width:5px"/><line x1="357.12" y1="553.36" x2="357.12" y2="643.36" style="fill:none;stroke:#000;stroke-miterlimit:10;stroke-width:5px"/><line x1="382.12" y1="642.86" x2="354.67" y2="642.86" style="fill:none;stroke:#000;stroke-miterlimit:10;stroke-width:5px"/><line x1="381.62" y1="556.36" x2="381.62" y2="645.36" style="fill:#fff;stroke:#000;stroke-miterlimit:10;stroke-width:5px"/><line x1="379.12" y1="555.86" x2="462.12" y2="555.86" style="fill:none;stroke:#000;stroke-miterlimit:10;stroke-width:5px"/><line x1="462.12" y1="553.36" x2="462.12" y2="643.36" style="fill:none;stroke:#000;stroke-miterlimit:10;stroke-width:5px"/><line x1="487.12" y1="642.86" x2="459.67" y2="642.86" style="fill:none;stroke:#000;stroke-miterlimit:10;stroke-width:5px"/><line x1="485.62" y1="556.36" x2="485.62" y2="645.36" style="fill:#fff;stroke:#000;stroke-miterlimit:10;stroke-width:5px"/><line x1="483.12" y1="555.86" x2="566.12" y2="555.86" style="fill:none;stroke:#000;stroke-miterlimit:10;stroke-width:5px"/><line x1="566.12" y1="553.36" x2="566.12" y2="643.36" style="fill:none;stroke:#000;stroke-miterlimit:10;stroke-width:5px"/><line x1="600.12" y1="642.86" x2="563.67" y2="642.86" style="fill:none;stroke:#000;stroke-miterlimit:10;stroke-width:5px"/><line x1="66.62" y1="699.86" x2="66.62" y2="798.86" style="fill:none;stroke:#91c54f;stroke-miterlimit:10;stroke-width:3px"/><line x1="171.62" y1="700.36" x2="171.62" y2="799.36" style="fill:none;stroke:#91c54f;stroke-miterlimit:10;stroke-width:3px"/><line x1="276.62" y1="700.36" x2="276.62" y2="799.36" style="fill:none;stroke:#91c54f;stroke-miterlimit:10;stroke-width:3px"/><line x1="381.62" y1="700.36" x2="381.62" y2="799.36" style="fill:none;stroke:#91c54f;stroke-miterlimit:10;stroke-width:3px"/><line x1="486.62" y1="699.36" x2="486.62" y2="798.36" style="fill:none;stroke:#91c54f;stroke-miterlimit:10;stroke-width:3px"/><line x1="591.62" y1="699.36" x2="591.62" y2="798.36" style="fill:none;stroke:#91c54f;stroke-miterlimit:10;stroke-width:3px"/><path d="M44.88,803.66a3.91,3.91,0,0,1-5.52,0,6.38,6.38,0,0,1,0-8.17,3.91,3.91,0,0,1,5.52,0,6.34,6.34,0,0,1,0,8.17ZM41.33,797a3.92,3.92,0,0,0-.87,2.61,4,4,0,0,0,.87,2.61,1.19,1.19,0,0,0,.79.31,1.24,1.24,0,0,0,.8-.31,4,4,0,0,0,.87-2.6,4.16,4.16,0,0,0-.87-2.62,1.25,1.25,0,0,0-.8-.32A1.2,1.2,0,0,0,41.33,797Z"/><path d="M49.46,794.57l2.4,6.09,2.43-6.09h2.82l-4.26,10h-2l-4.2-10Z"/><path d="M45.05,705H41.58l-.18,1.11a6,6,0,0,1,.81-.08,3.54,3.54,0,0,1,2.64,1,3.27,3.27,0,0,1,.92,2.37,3.52,3.52,0,0,1-1,2.51A4.16,4.16,0,0,1,41.69,713a6.08,6.08,0,0,1-3.38-.9l.39-2.43a4.88,4.88,0,0,0,1.2.81,3.74,3.74,0,0,0,1.5.35,1.79,1.79,0,0,0,1.31-.5,1.52,1.52,0,0,0,.39-1,1.45,1.45,0,0,0-.48-1.08,2.87,2.87,0,0,0-1.8-.49,4,4,0,0,0-1.85.42l.87-5.39h5.21Z"/><path d="M49.46,702.79l2.4,6.09,2.43-6.09h2.82l-4.26,10h-2l-4.2-10Z"/><path d="M178.06,680.5h-1.42v-2.21h4v10h-2.6Z"/><path d="M189.51,687.38a3.91,3.91,0,0,1-5.52,0,6.38,6.38,0,0,1,0-8.17,3.91,3.91,0,0,1,5.52,0,6.38,6.38,0,0,1,0,8.17ZM186,680.71a3.92,3.92,0,0,0-.87,2.61,4,4,0,0,0,.87,2.61,1.19,1.19,0,0,0,.79.31,1.24,1.24,0,0,0,.8-.31,4,4,0,0,0,.86-2.6,4.16,4.16,0,0,0-.86-2.62,1.25,1.25,0,0,0-.8-.32A1.2,1.2,0,0,0,186,680.71Z"/><path d="M198.51,687.38a3.91,3.91,0,0,1-5.52,0,6.38,6.38,0,0,1,0-8.17,3.91,3.91,0,0,1,5.52,0,6.38,6.38,0,0,1,0,8.17ZM195,680.71a3.92,3.92,0,0,0-.87,2.61,4,4,0,0,0,.87,2.61,1.19,1.19,0,0,0,.79.31,1.24,1.24,0,0,0,.8-.31,4,4,0,0,0,.86-2.6,4.16,4.16,0,0,0-.86-2.62,1.25,1.25,0,0,0-.8-.32A1.2,1.2,0,0,0,195,680.71Z"/><path d="M201.38,682.3a2.27,2.27,0,0,1-.63-1.62,2.53,2.53,0,0,1,.61-1.7,2.74,2.74,0,0,1,2.1-.79,2.8,2.8,0,0,1,2.13.79,2.47,2.47,0,0,1,0,3.32,2.8,2.8,0,0,1-2.11.79A2.7,2.7,0,0,1,201.38,682.3Zm1.29-2.45a1.13,1.13,0,0,0,.09,1.64,1.09,1.09,0,0,0,.73.27,1.2,1.2,0,0,0,.79-.32,1.13,1.13,0,0,0,.33-.81,1.2,1.2,0,0,0-.35-.84,1.07,1.07,0,0,0-.77-.28A1.13,1.13,0,0,0,202.67,679.85Zm6.53-1.56h1.31l-5.81,10h-1.28Zm-.87,9.33a2.28,2.28,0,0,1-.63-1.62,2.53,2.53,0,0,1,.62-1.69,2.72,2.72,0,0,1,2.1-.8,2.8,2.8,0,0,1,2.13.8,2.46,2.46,0,0,1,0,3.31,2.84,2.84,0,0,1-2.11.8A2.74,2.74,0,0,1,208.33,687.62Zm1.29-2.44a1.17,1.17,0,0,0-.3.78,1.13,1.13,0,0,0,.4.85,1,1,0,0,0,.73.27,1.19,1.19,0,0,0,.79-.31,1.17,1.17,0,0,0,.33-.81,1.15,1.15,0,0,0-.36-.84,1.05,1.05,0,0,0-.76-.29A1.12,1.12,0,0,0,209.62,685.18Z"/><path d="M223.06,688.15a3.59,3.59,0,0,1-1.66.37,3.67,3.67,0,0,1-2.64-1,3.49,3.49,0,0,1-1-2.5,3.68,3.68,0,0,1,1.08-2.6,3.87,3.87,0,0,1,2.7-1,3.46,3.46,0,0,1,1.56.38v2a2.08,2.08,0,0,0-1.24-.44,1.57,1.57,0,0,0-1.17.47,1.63,1.63,0,0,0-.47,1.15,1.76,1.76,0,0,0,.42,1.13,1.65,1.65,0,0,0,1.23.51,1.82,1.82,0,0,0,1.23-.45Z"/><path d="M225.63,677.45a1.35,1.35,0,1,1-1.35,1.35A1.34,1.34,0,0,1,225.63,677.45Zm1.2,4.14v6.71h-2.4v-6.71Z"/><path d="M233.53,688.15a3.59,3.59,0,0,1-1.66.37,3.67,3.67,0,0,1-2.64-1,3.49,3.49,0,0,1-1-2.5,3.68,3.68,0,0,1,1.08-2.6,3.87,3.87,0,0,1,2.7-1,3.46,3.46,0,0,1,1.56.38v2a2.08,2.08,0,0,0-1.24-.44,1.57,1.57,0,0,0-1.17.47,1.63,1.63,0,0,0-.47,1.15,1.76,1.76,0,0,0,.42,1.13,1.65,1.65,0,0,0,1.23.51,1.82,1.82,0,0,0,1.23-.45Z"/><path d="M237.3,677.36V688.3h-2.4V677.36Z"/><path d="M241.33,681.59v3.75a1.32,1.32,0,0,0,.36,1,1.24,1.24,0,0,0,.84.25,1.15,1.15,0,0,0,.86-.28,1.25,1.25,0,0,0,.34-.95v-3.75h2.4v4.19a2.3,2.3,0,0,1-.64,1.8,3.85,3.85,0,0,1-2.9.94,4,4,0,0,1-3-1,2.41,2.41,0,0,1-.63-1.78v-4.19Z"/><path d="M258.87,688.3h-2.4v-.74a2.47,2.47,0,0,1-2,1,3.18,3.18,0,0,1-2.35-.93,3.8,3.8,0,0,1,0-5.32,3.44,3.44,0,0,1,2.37-.9,2.65,2.65,0,0,1,2,.87v-4.88h2.4ZM256,686.08a1.61,1.61,0,0,0,.51-1.14,1.73,1.73,0,0,0-.45-1.08,1.44,1.44,0,0,0-1.09-.45,1.48,1.48,0,0,0-1.07.43,1.64,1.64,0,0,0-.46,1.14,1.51,1.51,0,0,0,.46,1,1.49,1.49,0,0,0,1.07.45A1.64,1.64,0,0,0,256,686.08Z"/><path d="M267.63,685.39h-5a1.7,1.7,0,0,0,.42,1.12,1.35,1.35,0,0,0,1,.33,1.81,1.81,0,0,0,.78-.18,1.08,1.08,0,0,0,.42-.45h2.3a3.08,3.08,0,0,1-.81,1.38,3.66,3.66,0,0,1-2.73.93,3.79,3.79,0,0,1-2.78-1,3.52,3.52,0,0,1-1-2.53,3.56,3.56,0,0,1,1-2.6,3.75,3.75,0,0,1,2.74-1,3.66,3.66,0,0,1,2.58.91,3.74,3.74,0,0,1,1.07,2.82ZM265.42,684a1.58,1.58,0,0,0-.39-.72,1.37,1.37,0,0,0-1-.36,1.26,1.26,0,0,0-1,.36,1.3,1.3,0,0,0-.36.72Z"/><path d="M275.08,683.56v4.74h-2.4v-4.74h-.84v-2h.84v-1.12a3.47,3.47,0,0,1,.62-2.21,2.79,2.79,0,0,1,2.32-1.06,3.2,3.2,0,0,1,1.16.22v2.07a1.55,1.55,0,0,0-.75-.22.88.88,0,0,0-.68.25,1.83,1.83,0,0,0-.27,1.13v.94h1.68v2Z"/><path d="M280.08,681.59v3.75a1.28,1.28,0,0,0,.36,1,1.23,1.23,0,0,0,.84.25,1.13,1.13,0,0,0,.85-.28,1.26,1.26,0,0,0,.35-.95v-3.75h2.4v4.19a2.31,2.31,0,0,1-.65,1.8,3.83,3.83,0,0,1-2.89.94,4,4,0,0,1-3-1,2.41,2.41,0,0,1-.63-1.78v-4.19Z"/><path d="M286.53,681.59h2.4v.84a2.52,2.52,0,0,1,2.13-1,2.74,2.74,0,0,1,2,.72,2.32,2.32,0,0,1,.63,1.88v4.26h-2.4v-3.39a2,2,0,0,0-.3-1.31,1,1,0,0,0-.77-.28,1.3,1.3,0,0,0-.88.31,1.55,1.55,0,0,0-.39,1.07v3.6h-2.4Z"/><path d="M300.37,688.15a3.59,3.59,0,0,1-1.66.37,3.67,3.67,0,0,1-2.64-1,3.49,3.49,0,0,1-1-2.5,3.68,3.68,0,0,1,1.08-2.6,3.87,3.87,0,0,1,2.7-1,3.46,3.46,0,0,1,1.56.38v2a2.08,2.08,0,0,0-1.24-.44,1.57,1.57,0,0,0-1.17.47,1.63,1.63,0,0,0-.47,1.15,1.76,1.76,0,0,0,.42,1.13,1.65,1.65,0,0,0,1.23.51,1.82,1.82,0,0,0,1.23-.45Z"/><path d="M304.54,683.56v4.74h-2.4v-4.74h-.76v-2h.76v-2.2h2.4v2.2h1.37v2Zm-2.31,5.49,2.25.24L303,692.05l-1.5-.18Z"/><path d="M308,677.45a1.35,1.35,0,1,1-1.35,1.35A1.35,1.35,0,0,1,308,677.45Zm1.19,4.14v6.71h-2.39v-6.71Z"/><path d="M317.59,687.41a4,4,0,0,1-3,1.11,4,4,0,0,1-3-1.11,3.44,3.44,0,0,1,0-4.93,4.17,4.17,0,0,1,3-1.11,4.23,4.23,0,0,1,3,1.11,3.46,3.46,0,0,1,0,4.93Zm-4.06-3.57a1.57,1.57,0,0,0-.47,1.1,1.55,1.55,0,0,0,.47,1.06,1.5,1.5,0,0,0,2.14,0,1.47,1.47,0,0,0,.47-1.06,1.65,1.65,0,0,0-.47-1.1,1.55,1.55,0,0,0-2.14,0Z"/><path d="M320,681.59h2.4v.84a2.52,2.52,0,0,1,2.12-1,2.75,2.75,0,0,1,2,.72,2.35,2.35,0,0,1,.63,1.88v4.26h-2.41v-3.39a2,2,0,0,0-.29-1.31,1,1,0,0,0-.77-.28,1.3,1.3,0,0,0-.88.31,1.55,1.55,0,0,0-.39,1.07v3.6H320Z"/><path d="M334,681.59h2.4v6.71H334v-.74a2.51,2.51,0,0,1-2.09,1,3.21,3.21,0,0,1-2.41-1.06,3.37,3.37,0,0,1-1-2.46,3.72,3.72,0,0,1,1-2.69,3.46,3.46,0,0,1,2.42-.94,2.65,2.65,0,0,1,2,.87Zm-2.52,2.25a1.58,1.58,0,0,0-.48,1.1,1.52,1.52,0,0,0,.46,1.09,1.71,1.71,0,0,0,1.08.45,1.52,1.52,0,0,0,1.08-.46,1.46,1.46,0,0,0,.45-1.08,1.5,1.5,0,0,0-.46-1.1,1.54,1.54,0,0,0-1.08-.43A1.52,1.52,0,0,0,331.45,683.84Z"/><path d="M338,681.59h2.4v1.1a2.15,2.15,0,0,1,.94-.93,2.61,2.61,0,0,1,1.25-.27l.48,0v2.26a2.13,2.13,0,0,0-1-.24,1.59,1.59,0,0,0-1.09.36,2,2,0,0,0-.54,1.53v2.87H338Z"/><path d="M351.26,685.39h-5a1.7,1.7,0,0,0,.42,1.12,1.35,1.35,0,0,0,1,.33,1.81,1.81,0,0,0,.78-.18,1.15,1.15,0,0,0,.42-.45h2.29a2.9,2.9,0,0,1-.81,1.38,3.63,3.63,0,0,1-2.73.93,3.77,3.77,0,0,1-2.77-1,3.48,3.48,0,0,1-1-2.53,3.6,3.6,0,0,1,1-2.6,3.8,3.8,0,0,1,2.75-1,3.66,3.66,0,0,1,2.58.91,3.77,3.77,0,0,1,1.06,2.82Zm-2.2-1.38a1.58,1.58,0,0,0-.39-.72,1.38,1.38,0,0,0-1-.36,1.3,1.3,0,0,0-1,.36,1.45,1.45,0,0,0-.36.72Z"/><path d="M356.07,683.27h3.79v2h-3.79Z"/><path d="M370.12,681.59h2.4v6.71h-2.4v-.74a2.48,2.48,0,0,1-2.09,1,3.23,3.23,0,0,1-2.41-1.06,3.41,3.41,0,0,1-1-2.46,3.72,3.72,0,0,1,1-2.69,3.44,3.44,0,0,1,2.41-.94,2.65,2.65,0,0,1,2,.87Zm-2.52,2.25a1.58,1.58,0,0,0-.48,1.1,1.52,1.52,0,0,0,.46,1.09,1.71,1.71,0,0,0,1.08.45,1.5,1.5,0,0,0,1.08-.46,1.46,1.46,0,0,0,.46-1.08,1.47,1.47,0,0,0-.47-1.1,1.53,1.53,0,0,0-2.13,0Z"/><path d="M374.17,681.59h2.4v.84a2.52,2.52,0,0,1,2.13-1,2.74,2.74,0,0,1,2,.72,2.32,2.32,0,0,1,.63,1.88v4.26h-2.4v-3.39a1.91,1.91,0,0,0-.3-1.31,1,1,0,0,0-.76-.28,1.33,1.33,0,0,0-.89.31,1.55,1.55,0,0,0-.39,1.07v3.6h-2.4Z"/><path d="M388.13,681.59h2.4v6.71h-2.4v-.74a2.48,2.48,0,0,1-2.08,1,3.25,3.25,0,0,1-2.42-1.06,3.41,3.41,0,0,1-1-2.46,3.72,3.72,0,0,1,1-2.69,3.44,3.44,0,0,1,2.41-.94,2.63,2.63,0,0,1,2,.87Zm-2.52,2.25a1.58,1.58,0,0,0-.48,1.1,1.53,1.53,0,0,0,.47,1.09,1.69,1.69,0,0,0,1.08.45,1.53,1.53,0,0,0,1.08-.46,1.46,1.46,0,0,0,.45-1.08,1.47,1.47,0,0,0-.47-1.1,1.53,1.53,0,0,0-2.13,0Z"/><path d="M394.58,677.36V688.3h-2.39V677.36Z"/><path d="M403,687.41a4,4,0,0,1-3,1.11,4,4,0,0,1-3-1.11,3.44,3.44,0,0,1,0-4.93,4.17,4.17,0,0,1,3-1.11,4.23,4.23,0,0,1,3,1.11,3.46,3.46,0,0,1,0,4.93Zm-4.06-3.57a1.57,1.57,0,0,0-.47,1.1,1.55,1.55,0,0,0,.47,1.06,1.5,1.5,0,0,0,2.14,0,1.47,1.47,0,0,0,.47-1.06,1.65,1.65,0,0,0-.47-1.1,1.55,1.55,0,0,0-2.14,0Z"/><path d="M412.93,681.59v6.29a3.58,3.58,0,0,1-.91,2.77,4,4,0,0,1-3,1.08,4.1,4.1,0,0,1-3.13-1.18,2.4,2.4,0,0,1-.74-1.4h2.67a1,1,0,0,0,1.13.69,1.44,1.44,0,0,0,1.06-.37,1.65,1.65,0,0,0,.48-1.25v-.67a2.56,2.56,0,0,1-2,.88,3.33,3.33,0,0,1-2.47-.94,3.56,3.56,0,0,1-.94-2.45,3.82,3.82,0,0,1,1-2.62,3.33,3.33,0,0,1,2.42-1,2.64,2.64,0,0,1,2,.88v-.69ZM408,683.84a1.62,1.62,0,0,0-.47,1.08A1.59,1.59,0,0,0,408,686a1.54,1.54,0,0,0,1.08.43,1.54,1.54,0,0,0,1.53-1.53,1.74,1.74,0,0,0-.48-1.09,1.52,1.52,0,0,0-1.06-.44A1.46,1.46,0,0,0,408,683.84Z"/><path d="M416.47,678.29l1.74,6.47,2.11-6.47h2.08l2,6.47,1.89-6.47H429l-3.19,10h-2.66l-1.81-5.79-1.92,5.79h-2.64l-3-10Z"/><path d="M429.24,681.59h2.4v1.1a2.15,2.15,0,0,1,.94-.93,2.58,2.58,0,0,1,1.25-.27l.48,0v2.26a2.13,2.13,0,0,0-1-.24,1.59,1.59,0,0,0-1.09.36,2,2,0,0,0-.54,1.53v2.87h-2.4Z"/><path d="M436.57,677.45a1.35,1.35,0,1,1-1.35,1.35A1.34,1.34,0,0,1,436.57,677.45Zm1.2,4.14v6.71h-2.4v-6.71Z"/><path d="M442.06,683.56v4.74h-2.4v-4.74h-.76v-2h.76v-2.2h2.4v2.2h1.37v2Z"/><path d="M451.44,685.39h-5a1.7,1.7,0,0,0,.42,1.12,1.35,1.35,0,0,0,1,.33,1.81,1.81,0,0,0,.78-.18,1.08,1.08,0,0,0,.42-.45h2.3a3.08,3.08,0,0,1-.81,1.38,3.66,3.66,0,0,1-2.73.93,3.79,3.79,0,0,1-2.78-1,3.52,3.52,0,0,1-1-2.53,3.56,3.56,0,0,1,1-2.6,3.75,3.75,0,0,1,2.74-1,3.66,3.66,0,0,1,2.58.91,3.74,3.74,0,0,1,1.07,2.82ZM449.23,684a1.58,1.58,0,0,0-.39-.72,1.37,1.37,0,0,0-1-.36,1.26,1.26,0,0,0-1,.36,1.3,1.3,0,0,0-.36.72Z"/><path d="M454.9,691.12a10.1,10.1,0,0,1-1.47-3.36,12.54,12.54,0,0,1-.43-3.51,13.34,13.34,0,0,1,.55-3.93,13.83,13.83,0,0,1,1.35-3l1.7.9a12.52,12.52,0,0,0-1.11,2.72,13.86,13.86,0,0,0-.42,3.19,15.58,15.58,0,0,0,.36,3.11,10.35,10.35,0,0,0,1.17,2.94Z"/><path d="M465.72,688.3h-8l2.54-2.66a16.49,16.49,0,0,0,2-2.53,2.83,2.83,0,0,0,.54-1.56,1.5,1.5,0,0,0-.3-1,1,1,0,0,0-.74-.3,1,1,0,0,0-.86.4,2.46,2.46,0,0,0-.36,1.23h-2.69a4,4,0,0,1,1.11-2.77,4.32,4.32,0,0,1,5.66,0,3.37,3.37,0,0,1,1,2.46,3.88,3.88,0,0,1-1.48,3l-1.68,1.56h3.27Z"/><path d="M473.73,680.5h-3.47l-.18,1.11a6,6,0,0,1,.81-.08,3.54,3.54,0,0,1,2.64,1,3.27,3.27,0,0,1,.92,2.37,3.52,3.52,0,0,1-1,2.51,4.19,4.19,0,0,1-3.13,1.12,6.07,6.07,0,0,1-3.37-.9l.39-2.43a4.88,4.88,0,0,0,1.2.81,3.74,3.74,0,0,0,1.5.35,1.79,1.79,0,0,0,1.31-.5,1.52,1.52,0,0,0,.39-1,1.45,1.45,0,0,0-.48-1.08,2.89,2.89,0,0,0-1.8-.49,4,4,0,0,0-1.85.42l.87-5.39h5.21Z"/><path d="M482.73,680.5h-3.47l-.18,1.11a6,6,0,0,1,.81-.08,3.54,3.54,0,0,1,2.64,1,3.27,3.27,0,0,1,.92,2.37,3.52,3.52,0,0,1-1,2.51,4.19,4.19,0,0,1-3.13,1.12,6.07,6.07,0,0,1-3.37-.9l.39-2.43a4.88,4.88,0,0,0,1.2.81,3.74,3.74,0,0,0,1.5.35,1.79,1.79,0,0,0,1.31-.5,1.52,1.52,0,0,0,.39-1,1.45,1.45,0,0,0-.48-1.08,2.89,2.89,0,0,0-1.8-.49,4,4,0,0,0-1.85.42l.87-5.39h5.21Z"/><path d="M485,690.22a10.65,10.65,0,0,0,1.17-2.94,16.35,16.35,0,0,0,.36-3.11,13.34,13.34,0,0,0-.43-3.19,12.5,12.5,0,0,0-1.1-2.72l1.69-.9a12.66,12.66,0,0,1,1.91,6.9,12.5,12.5,0,0,1-.44,3.5,9.9,9.9,0,0,1-1.47,3.36Z"/><line x1="172.62" y1="402.36" x2="172.62" y2="491.36" style="fill:#fff;stroke:#000;stroke-miterlimit:10;stroke-width:5px"/><line x1="170.12" y1="401.86" x2="224.12" y2="401.86" style="fill:none;stroke:#000;stroke-miterlimit:10;stroke-width:5px"/><line x1="224.12" y1="399.36" x2="224.12" y2="489.36" style="fill:none;stroke:#000;stroke-miterlimit:10;stroke-width:5px"/><line x1="277.17" y1="488.86" x2="221.67" y2="488.86" style="fill:none;stroke:#000;stroke-miterlimit:10;stroke-width:5px"/><line x1="276.62" y1="402.36" x2="276.62" y2="491.36" style="fill:#fff;stroke:#000;stroke-miterlimit:10;stroke-width:5px"/><line x1="274.12" y1="401.86" x2="328.12" y2="401.86" style="fill:none;stroke:#000;stroke-miterlimit:10;stroke-width:5px"/><line x1="328.12" y1="399.36" x2="328.12" y2="489.36" style="fill:none;stroke:#000;stroke-miterlimit:10;stroke-width:5px"/><line x1="381.17" y1="488.86" x2="325.67" y2="488.86" style="fill:none;stroke:#000;stroke-miterlimit:10;stroke-width:5px"/><line x1="381.62" y1="402.36" x2="381.62" y2="491.36" style="fill:#fff;stroke:#000;stroke-miterlimit:10;stroke-width:5px"/><line x1="379.12" y1="401.86" x2="433.12" y2="401.86" style="fill:none;stroke:#000;stroke-miterlimit:10;stroke-width:5px"/><line x1="433.12" y1="399.36" x2="433.12" y2="489.36" style="fill:none;stroke:#000;stroke-miterlimit:10;stroke-width:5px"/><line x1="486.17" y1="488.86" x2="430.67" y2="488.86" style="fill:none;stroke:#000;stroke-miterlimit:10;stroke-width:5px"/><line x1="487.62" y1="402.36" x2="487.62" y2="491.36" style="fill:#fff;stroke:#000;stroke-miterlimit:10;stroke-width:5px"/><line x1="485.12" y1="401.86" x2="539.12" y2="401.86" style="fill:none;stroke:#000;stroke-miterlimit:10;stroke-width:5px"/><line x1="539.12" y1="399.36" x2="539.12" y2="489.36" style="fill:none;stroke:#000;stroke-miterlimit:10;stroke-width:5px"/><line x1="598.12" y1="488.86" x2="536.67" y2="488.86" style="fill:none;stroke:#000;stroke-miterlimit:10;stroke-width:5px"/><line x1="171.62" y1="243.36" x2="171.62" y2="332.36" style="fill:#fff;stroke:#000;stroke-miterlimit:10;stroke-width:5px"/><line x1="169.12" y1="242.86" x2="195.12" y2="242.86" style="fill:none;stroke:#000;stroke-miterlimit:10;stroke-width:5px"/><line x1="195.12" y1="240.36" x2="195.12" y2="330.36" style="fill:none;stroke:#000;stroke-miterlimit:10;stroke-width:5px"/><line x1="275.62" y1="329.86" x2="192.62" y2="329.86" style="fill:none;stroke:#000;stroke-miterlimit:10;stroke-width:5px"/><line x1="276.62" y1="243.36" x2="276.62" y2="332.36" style="fill:#fff;stroke:#000;stroke-miterlimit:10;stroke-width:5px"/><line x1="274.12" y1="242.86" x2="300.12" y2="242.86" style="fill:none;stroke:#000;stroke-miterlimit:10;stroke-width:5px"/><line x1="300.12" y1="240.36" x2="300.12" y2="330.36" style="fill:none;stroke:#000;stroke-miterlimit:10;stroke-width:5px"/><line x1="380.62" y1="329.86" x2="297.62" y2="329.86" style="fill:none;stroke:#000;stroke-miterlimit:10;stroke-width:5px"/><line x1="381.62" y1="243.36" x2="381.62" y2="332.36" style="fill:#fff;stroke:#000;stroke-miterlimit:10;stroke-width:5px"/><line x1="379.12" y1="242.86" x2="405.12" y2="242.86" style="fill:none;stroke:#000;stroke-miterlimit:10;stroke-width:5px"/><line x1="405.12" y1="240.36" x2="405.12" y2="330.36" style="fill:none;stroke:#000;stroke-miterlimit:10;stroke-width:5px"/><line x1="485.62" y1="329.86" x2="402.62" y2="329.86" style="fill:none;stroke:#000;stroke-miterlimit:10;stroke-width:5px"/><line x1="486.62" y1="243.36" x2="486.62" y2="332.36" style="fill:#fff;stroke:#000;stroke-miterlimit:10;stroke-width:5px"/><line x1="484.12" y1="242.86" x2="510.12" y2="242.86" style="fill:none;stroke:#000;stroke-miterlimit:10;stroke-width:5px"/><line x1="510.12" y1="240.36" x2="510.12" y2="330.36" style="fill:none;stroke:#000;stroke-miterlimit:10;stroke-width:5px"/><line x1="596.12" y1="329.86" x2="507.62" y2="329.86" style="fill:none;stroke:#000;stroke-miterlimit:10;stroke-width:5px"/><line x1="66.62" y1="711.36" x2="596.12" y2="711.36" style="fill:none;stroke:#000;stroke-miterlimit:10;stroke-width:5px"/></svg>