<svg id="Layer_1" data-name="Layer 1" xmlns="http://www.w3.org/2000/svg" viewBox="0 0 734 506"><title>Cap 15 -</title><line x1="392.5" y1="253.25" x2="515.5" y2="253.25" style="fill:none;stroke:#91c54f;stroke-miterlimit:10;stroke-width:10px"/><line x1="212.5" y1="252.75" x2="335.5" y2="252.75" style="fill:none;stroke:#e34758;stroke-miterlimit:10;stroke-width:10px"/><line x1="212.5" y1="68.75" x2="335.5" y2="68.75" style="fill:none;stroke:#91c54f;stroke-miterlimit:10;stroke-width:10px"/><line x1="392.5" y1="69.25" x2="515.5" y2="69.25" style="fill:none;stroke:#e34758;stroke-miterlimit:10;stroke-width:10px"/><line x1="240.5" y1="437.25" x2="493.5" y2="437.25" style="fill:none;stroke:#636868;stroke-miterlimit:10;stroke-width:10px"/><rect x="34.5" y="22.75" width="131" height="460" rx="12" ry="12" style="fill:none;stroke:#000;stroke-miterlimit:10;stroke-width:7.6303487615064px"/><line x1="165.5" y1="437.25" x2="240.5" y2="437.25" style="fill:none;stroke:#000;stroke-miterlimit:10;stroke-width:10px"/><line x1="165.5" y1="252.75" x2="240.5" y2="252.75" style="fill:none;stroke:#000;stroke-miterlimit:10;stroke-width:10px"/><line x1="165.5" y1="68.75" x2="240.5" y2="68.75" style="fill:none;stroke:#000;stroke-miterlimit:10;stroke-width:10px"/><rect x="568.5" y="23.25" width="131" height="460" rx="12" ry="12" transform="translate(1268 506.5) rotate(180)" style="fill:none;stroke:#000;stroke-miterlimit:10;stroke-width:7.6303487615064px"/><line x1="568.5" y1="69.25" x2="493.5" y2="69.25" style="fill:none;stroke:#000;stroke-miterlimit:10;stroke-width:10px"/><line x1="568.5" y1="253.25" x2="493.5" y2="253.25" style="fill:none;stroke:#000;stroke-miterlimit:10;stroke-width:10px"/><line x1="568.5" y1="437.25" x2="493.5" y2="437.25" style="fill:none;stroke:#000;stroke-miterlimit:10;stroke-width:10px"/><path d="M118.76,57.08a7.57,7.57,0,0,1,5.71,2.06,7.7,7.7,0,0,1,2,5.25,6.76,6.76,0,0,1-1.85,4.87,6.6,6.6,0,0,1-3.22,1.61l7.31,9.55h-7.52l-5.82-9v9h-6V57.08Zm-3.4,10.46h1.16a4.54,4.54,0,0,0,2.94-.94,2.9,2.9,0,0,0,.77-2,2.77,2.77,0,0,0-.8-2,4.12,4.12,0,0,0-2.91-.91h-1.16Z" style="fill:#f7931f"/><path d="M137.94,68l-7.49-10.88h7.49l3.46,6.05L145,57.08h7.46L144.87,68l8.82,12.46h-7.35l-5-7.59-5.25,7.59H128.8Z" style="fill:#f7931f"/><path d="M123.59,246.22v18.2h-6.06v-18.2h-5v-5.14h16v5.14Z" style="fill:#4fc2c9"/><path d="M137.94,252l-7.49-10.88h7.49l3.46,6,3.61-6h7.46L144.87,252l8.82,12.46h-7.35l-5-7.59-5.25,7.59H128.8Z" style="fill:#4fc2c9"/><path d="M89.15,435.85h12c0,4.62-.94,7.91-3.74,10.5a11.38,11.38,0,0,1-8.23,2.94,12.07,12.07,0,0,1-9-3.46,11.78,11.78,0,0,1-3.36-8.44,12.16,12.16,0,0,1,3.5-8.75,13.6,13.6,0,0,1,15.37-1.86,11.44,11.44,0,0,1,4.16,4.8L94.16,434a5.74,5.74,0,0,0-1.68-2.35,4.9,4.9,0,0,0-3.26-1.15,5.63,5.63,0,0,0-4,1.61,7.88,7.88,0,0,0-2,5.35,7.31,7.31,0,0,0,1.86,5.05,5.51,5.51,0,0,0,4.27,1.78,5,5,0,0,0,3.36-1.08,4.18,4.18,0,0,0,1.43-2.59h-5Z" style="fill:#636868"/><path d="M105,449.08V425.73h6.06L122.26,440V425.73h6.06v23.35h-6.06L111.1,434.8v14.28Z" style="fill:#636868"/><path d="M133.21,449.08V425.73h7.95c2.35,0,6.27.32,9.28,3.22a11.41,11.41,0,0,1,3.25,8.51,10.8,10.8,0,0,1-3,8.09,12.71,12.71,0,0,1-9,3.53Zm6.06-5.14h1.23a7,7,0,0,0,5.11-1.69,6.34,6.34,0,0,0,1.78-4.79,7,7,0,0,0-1.82-5.11,6.79,6.79,0,0,0-4.83-1.47h-1.47Z" style="fill:#636868"/><path d="M592.35,57.08a7.57,7.57,0,0,1,5.71,2.06,7.7,7.7,0,0,1,2,5.25,6.76,6.76,0,0,1-1.85,4.87A6.6,6.6,0,0,1,595,70.87l7.31,9.55h-7.52l-5.81-9v9H582.9V57.08ZM589,67.54h1.15a4.54,4.54,0,0,0,2.94-.94,2.9,2.9,0,0,0,.77-2,2.77,2.77,0,0,0-.8-2,4.12,4.12,0,0,0-2.91-.91H589Z" style="fill:#f7931f"/><path d="M611.53,68,604,57.08h7.49L615,63.13l3.6-6.05h7.46L618.46,68l8.82,12.46h-7.35l-5-7.59-5.25,7.59H602.4Z" style="fill:#f7931f"/><path d="M593.93,246.22v18.2h-6.06v-18.2h-5v-5.14h16v5.14Z" style="fill:#4fc2c9"/><path d="M608.28,252l-7.49-10.88h7.49l3.46,6,3.61-6h7.45L615.21,252,624,264.42h-7.35l-5-7.59-5.25,7.59h-7.32Z" style="fill:#4fc2c9"/><path d="M595.15,435.85h12c0,4.62-.94,7.91-3.74,10.5a11.38,11.38,0,0,1-8.23,2.94,12.07,12.07,0,0,1-9-3.46,11.78,11.78,0,0,1-3.36-8.44,12.16,12.16,0,0,1,3.5-8.75,13.6,13.6,0,0,1,15.37-1.86,11.44,11.44,0,0,1,4.16,4.8L600.16,434a5.74,5.74,0,0,0-1.68-2.35,4.9,4.9,0,0,0-3.26-1.15,5.63,5.63,0,0,0-4,1.61,7.88,7.88,0,0,0-2,5.35,7.31,7.31,0,0,0,1.86,5.05,5.51,5.51,0,0,0,4.27,1.78,5,5,0,0,0,3.36-1.08,4.18,4.18,0,0,0,1.43-2.59h-5Z" style="fill:#636868"/><path d="M611,449.08V425.73h6.06L628.26,440V425.73h6.06v23.35h-6.06L617.1,434.8v14.28Z" style="fill:#636868"/><path d="M639.21,449.08V425.73h7.95c2.35,0,6.27.32,9.28,3.22a11.41,11.41,0,0,1,3.25,8.51,10.8,10.8,0,0,1-3,8.09,12.71,12.71,0,0,1-9,3.53Zm6.06-5.14h1.23a7,7,0,0,0,5.11-1.69,6.34,6.34,0,0,0,1.78-4.79,7,7,0,0,0-1.82-5.11,6.79,6.79,0,0,0-4.83-1.47h-1.47Z" style="fill:#636868"/><line x1="397.5" y1="66.25" x2="330.5" y2="256.25" style="fill:none;stroke:#e34758;stroke-miterlimit:10;stroke-width:10px"/><line x1="330.5" y1="66.25" x2="397.5" y2="256.25" style="fill:none;stroke:#91c54f;stroke-miterlimit:10;stroke-width:10px"/><polygon points="480.9 245.46 430.91 245.46 430.91 238.25 415.6 253.56 430.91 268.87 430.91 261.67 480.9 261.67 480.9 245.46" style="fill:#4fc2c9"/><polygon points="250.6 261.67 300.59 261.67 300.59 268.87 315.9 253.56 300.59 238.25 300.59 245.46 250.6 245.46 250.6 261.67" style="fill:#4fc2c9"/><polygon points="317.9 60.45 267.91 60.45 267.91 53.25 252.6 68.56 267.91 83.87 267.91 76.67 317.9 76.67 317.9 60.45" style="fill:#4fc2c9"/><polygon points="413.6 76.67 463.59 76.67 463.59 83.87 478.9 68.56 463.59 53.25 463.59 60.45 413.6 60.45 413.6 76.67" style="fill:#4fc2c9"/></svg>