<svg id="Layer_1" data-name="Layer 1" xmlns="http://www.w3.org/2000/svg" viewBox="0 0 1098 1157"><title>Capitolul0</title><path d="M409.08,1108.68c-.43.31-.88.62-1.33.92l-.63.4c-.59.36-1.19.71-1.8,1l-.41.2a30.33,30.33,0,0,1-4.36,1.85l-.16.05c-.78.26-1.58.5-2.38.69h0c-.81.2-1.63.36-2.45.5h-.07c-.78.13-1.56.22-2.35.29l-.41,0q-1.17.09-2.34.09t-2.37-.09l-.41,0q-1.19-.11-2.37-.3h-.1a32.73,32.73,0,0,1-4.87-1.22l-.14,0c-.79-.27-1.57-.56-2.33-.89h0q-1.08-.47-2.13-1l-.27-.14c-.64-.34-1.27-.71-1.89-1.1l-.54-.34c-.57-.38-1.13-.76-1.67-1.17l-.17-.13.12-.07,9.89-5.39a5.3,5.3,0,0,0,2.76-4.65v-4.5l-.29-.35a20.81,20.81,0,0,1-3.75-7.77l-.12-.5-.42-.28a2,2,0,0,1-1-1.74v-4.43a2.06,2.06,0,0,1,.7-1.53l.41-.37v-7.13a7.55,7.55,0,0,1,1.75-5.45c1.81-2.07,4.9-3.11,9.21-3.11s7.37,1,9.18,3.08a7.67,7.67,0,0,1,1.77,5.48v7.13l.41.37a2.06,2.06,0,0,1,.7,1.53V1083a2.1,2.1,0,0,1-1.48,2l-.62.19-.2.62a23.25,23.25,0,0,1-3.12,6.29c-.33.46-.65.87-.92,1.19l-.31.35v4.63a5.27,5.27,0,0,0,2.92,4.73l10.59,5.29.2.1C409.36,1108.49,409.22,1108.58,409.08,1108.68Z" style="fill:none;stroke:#636868;stroke-miterlimit:10;stroke-width:5.236px"/><rect x="185.85" y="870.75" width="112" height="69.85" rx="12" ry="12" style="fill:none;stroke:#eb6a38;stroke-miterlimit:10;stroke-width:5.236px"/><line x1="188.26" y1="894.84" x2="295.44" y2="894.84" style="fill:none;stroke:#eb6a38;stroke-miterlimit:10;stroke-width:5.236px"/><circle cx="266.54" cy="883.4" r="3.61" style="fill:#eb6a38"/><ellipse cx="275.76" cy="883.4" rx="3.42" ry="3.61" style="fill:#eb6a38"/><circle cx="284.6" cy="883.4" r="3.61" style="fill:#eb6a38"/><rect x="226.19" y="901" width="7.23" height="20.47" rx="3" ry="3" transform="translate(-577.03 429.39) rotate(-45)" style="fill:#eb6a38"/><rect x="219.57" y="917.26" width="20.47" height="7.23" rx="3" ry="3" transform="translate(-583.85 432.21) rotate(-45)" style="fill:#eb6a38"/><rect x="245.46" y="921.94" width="20.47" height="7.23" rx="3" ry="3" style="fill:#eb6a38"/><circle cx="390.3" cy="1079.01" r="35.55" style="fill:none;stroke:#636868;stroke-miterlimit:10;stroke-width:5.236px"/><rect x="386.04" y="986.22" width="9" height="38" rx="4.5" ry="4.5" style="fill:#3a5c84"/><rect x="237.04" y="953.22" width="9" height="38" rx="4.5" ry="4.5" style="fill:#3a5c84"/><rect x="552.04" y="953.22" width="9" height="38" rx="4.5" ry="4.5" style="fill:#3a5c84"/><rect x="394.04" y="825.22" width="9" height="323" rx="4.5" ry="4.5" transform="translate(1385.26 588.18) rotate(90)" style="fill:#3a5c84"/><polygon points="407.93 275.01 407.54 205.9 417.5 205.84 396.21 184.79 375.16 206.08 385.13 206.03 385.51 275.14 407.93 275.01" style="fill:none;stroke:#f4c240;stroke-miterlimit:10;stroke-width:7.18450751097622px"/><polygon points="407.93 554.01 407.54 484.9 417.5 484.84 396.21 463.79 375.16 485.08 385.13 485.03 385.51 554.14 407.93 554.01" style="fill:none;stroke:#f4c240;stroke-miterlimit:10;stroke-width:7.18450751097622px"/><polygon points="253.44 839.01 253.06 769.9 263.02 769.84 241.73 748.79 220.68 770.08 230.64 770.03 231.03 839.14 253.44 839.01" style="fill:none;stroke:#eb6a38;stroke-miterlimit:10;stroke-width:7.18499994277954px"/><rect x="178.58" y="304.98" width="454.92" height="134.74" rx="12" ry="12" style="fill:none;stroke:#f4c240;stroke-miterlimit:10;stroke-width:4.29770593021414px"/><path d="M261.37,374a8.13,8.13,0,0,0,5.35,2.38,3.09,3.09,0,0,0,2.35-.8,2.09,2.09,0,0,0,.59-1.47,1.81,1.81,0,0,0-.66-1.4,8.48,8.48,0,0,0-3-1.23l-1.58-.49a7.6,7.6,0,0,1-3.36-1.89,5.87,5.87,0,0,1-1.33-4.13,7.59,7.59,0,0,1,2.14-5.63,8.23,8.23,0,0,1,6-2.21,16.45,16.45,0,0,1,7.21,1.89l-2.41,4.73a6.15,6.15,0,0,0-4-1.58,2.92,2.92,0,0,0-2,.7,1.73,1.73,0,0,0-.59,1.26,1.58,1.58,0,0,0,.31,1.05,3.89,3.89,0,0,0,2,1.05l1.86.56a8.92,8.92,0,0,1,4.23,2.31,5.53,5.53,0,0,1,1.51,4.17,7.92,7.92,0,0,1-2.21,5.88c-2,2-4.41,2.38-6.89,2.38a12.52,12.52,0,0,1-4.59-.77,16.3,16.3,0,0,1-3.53-1.86Z"/><path d="M282.09,355.69a3.15,3.15,0,1,1-3.15,3.15A3.14,3.14,0,0,1,282.09,355.69Zm2.8,9.66V381h-5.6V365.35Z"/><path d="M289.72,375.81A8.09,8.09,0,0,0,292,377a7.41,7.41,0,0,0,2.17.38,2.33,2.33,0,0,0,1.43-.42.87.87,0,0,0,.28-.73.81.81,0,0,0-.28-.7,3.43,3.43,0,0,0-1.47-.56l-1.47-.35a5.08,5.08,0,0,1-2.73-1.37,3.79,3.79,0,0,1-1-2.69,5.57,5.57,0,0,1,1.47-3.82,7.92,7.92,0,0,1,5.6-1.89,12.77,12.77,0,0,1,5,1l-1.89,3.57a7.72,7.72,0,0,0-2.94-.77,2.35,2.35,0,0,0-1.29.31.84.84,0,0,0-.49.77.91.91,0,0,0,.66.88c.53.21,1,.21,1.86.45l1,.28a6.45,6.45,0,0,1,2.31,1.23,4.41,4.41,0,0,1,1.19,3.11,5.25,5.25,0,0,1-1.57,3.89c-1.82,1.82-4.48,2-5.78,2a11.6,11.6,0,0,1-6.3-1.82Z"/><path d="M310.44,369.93V381h-5.6V369.93h-1.79v-4.58h1.79V360.2h5.6v5.15h3.18v4.58Z"/><path d="M332.31,374.2H320.66a4,4,0,0,0,1,2.63,3.15,3.15,0,0,0,2.31.77,4.51,4.51,0,0,0,1.82-.42,2.64,2.64,0,0,0,1-1.05h5.35a7,7,0,0,1-1.89,3.22c-1.15,1.12-3,2.17-6.37,2.17a8.88,8.88,0,0,1-6.47-2.38,8.19,8.19,0,0,1-2.31-5.92,8.36,8.36,0,0,1,2.34-6.05,8.83,8.83,0,0,1,6.41-2.28,8.58,8.58,0,0,1,6,2.14,8.77,8.77,0,0,1,2.48,6.58ZM327.17,371a3.78,3.78,0,0,0-.91-1.68,3.29,3.29,0,0,0-2.31-.84,3,3,0,0,0-2.28.84,3.27,3.27,0,0,0-.84,1.68Z"/><path d="M335.53,365.35h5.6v1.89a6,6,0,0,1,4.69-2.17,6.31,6.31,0,0,1,3,.7A4.81,4.81,0,0,1,351,368a5.47,5.47,0,0,1,2.14-2.17,6.33,6.33,0,0,1,3.25-.77,6.2,6.2,0,0,1,4.34,1.43,5.76,5.76,0,0,1,1.47,4.31V381h-5.6v-7.73c0-1.65-.17-2.77-.8-3.36a2.06,2.06,0,0,0-1.47-.53,2.3,2.3,0,0,0-1.65.63,4,4,0,0,0-1,3v8h-5.6v-7.73c0-1.51-.11-2.7-.74-3.36a2.15,2.15,0,0,0-1.68-.63,2,2,0,0,0-1.54.56c-1,.94-1,2.45-1,3.43V381h-5.6Z"/><path d="M392,381h-5.6v-1.71a5.73,5.73,0,0,1-4.72,2.24,7.52,7.52,0,0,1-5.5-2.17,8.66,8.66,0,0,1-2.52-6.23,8.53,8.53,0,0,1,2.56-6.2,8,8,0,0,1,5.53-2.1,6.2,6.2,0,0,1,4.65,2V355.48H392Zm-6.61-5.18a3.75,3.75,0,0,0,1.19-2.66,4.12,4.12,0,0,0-1-2.52,3.45,3.45,0,0,0-2.56-1.05,3.42,3.42,0,0,0-2.48,1,3.85,3.85,0,0,0-1.09,2.66,3.54,3.54,0,0,0,1.09,2.45,3.47,3.47,0,0,0,2.48,1.05A3.83,3.83,0,0,0,385.34,375.81Z"/><path d="M412.39,374.2H400.74a4,4,0,0,0,1,2.63,3.15,3.15,0,0,0,2.31.77,4.51,4.51,0,0,0,1.82-.42,2.64,2.64,0,0,0,1-1.05h5.35a7,7,0,0,1-1.89,3.22c-1.15,1.12-3,2.17-6.37,2.17a8.88,8.88,0,0,1-6.47-2.38,8.19,8.19,0,0,1-2.32-5.92,8.37,8.37,0,0,1,2.35-6.05,8.83,8.83,0,0,1,6.41-2.28,8.58,8.58,0,0,1,6,2.14,8.77,8.77,0,0,1,2.48,6.58ZM407.25,371a3.78,3.78,0,0,0-.91-1.68,3.29,3.29,0,0,0-2.31-.84,3,3,0,0,0-2.28.84,3.27,3.27,0,0,0-.84,1.68Z"/><path d="M439.52,378.93a10.71,10.71,0,0,1-14,0,7.8,7.8,0,0,1-2.42-5.78,7.72,7.72,0,0,1,2.42-5.74,9.75,9.75,0,0,1,7-2.59,9.93,9.93,0,0,1,7,2.59,7.75,7.75,0,0,1,2.41,5.74A7.83,7.83,0,0,1,439.52,378.93ZM430,370.6a3.55,3.55,0,1,0,5,5,3.47,3.47,0,0,0,1.08-2.49A3.78,3.78,0,0,0,435,370.6a3.59,3.59,0,0,0-5,0Z"/><path d="M450.75,389h-5.6V365.35h5.6v1.71a5.85,5.85,0,0,1,4.79-2.24,7.78,7.78,0,0,1,5.57,2.28,8.88,8.88,0,0,1-.14,12.25,7.53,7.53,0,0,1-5.35,2.17,6.66,6.66,0,0,1-4.87-2Zm.91-18.38a3.83,3.83,0,0,0-1.09,2.59,3.78,3.78,0,0,0,1.09,2.49,3.58,3.58,0,0,0,2.52,1.05,3.41,3.41,0,0,0,2.49-1.05,3.73,3.73,0,0,0,1.08-2.49,3.82,3.82,0,0,0-1.08-2.59,3.41,3.41,0,0,0-2.49-1.05A3.58,3.58,0,0,0,451.66,370.63Z"/><path d="M483.3,374.2H471.64a4,4,0,0,0,1,2.63,3.15,3.15,0,0,0,2.31.77,4.51,4.51,0,0,0,1.82-.42,2.57,2.57,0,0,0,1-1.05h5.36a7.06,7.06,0,0,1-1.89,3.22c-1.16,1.12-3,2.17-6.37,2.17a8.9,8.9,0,0,1-6.48-2.38,8.23,8.23,0,0,1-2.31-5.92,8.33,8.33,0,0,1,2.35-6.05,8.79,8.79,0,0,1,6.4-2.28,8.57,8.57,0,0,1,6,2.14,8.75,8.75,0,0,1,2.49,6.58ZM478.15,371a3.78,3.78,0,0,0-.91-1.68,3.28,3.28,0,0,0-2.31-.84,3,3,0,0,0-2.27.84,3.12,3.12,0,0,0-.84,1.68Z"/><path d="M486.52,365.35h5.6v2.55a5,5,0,0,1,2.2-2.17,6.19,6.19,0,0,1,2.91-.63c.14,0,.38,0,1.12.07v5.29a5,5,0,0,0-2.42-.56,3.63,3.63,0,0,0-2.55.84,4.72,4.72,0,0,0-1.26,3.57V381h-5.6Z"/><path d="M512.94,365.35h5.6V381h-5.6v-1.71a5.84,5.84,0,0,1-4.86,2.24,7.49,7.49,0,0,1-5.64-2.49,7.9,7.9,0,0,1-2.24-5.74,8.64,8.64,0,0,1,2.42-6.26,8,8,0,0,1,5.63-2.21,6.2,6.2,0,0,1,4.69,2Zm-5.88,5.25a3.51,3.51,0,0,0,0,5.11,3.91,3.91,0,0,0,2.52,1.05,3.6,3.6,0,0,0,2.52-1.09,3.4,3.4,0,0,0,1-2.52A3.45,3.45,0,0,0,512,370.6a3.54,3.54,0,0,0-5,0Z"/><path d="M522.39,365.35H528v2.55a5.06,5.06,0,0,1,2.21-2.17,6.15,6.15,0,0,1,2.9-.63c.14,0,.39,0,1.12.07v5.29a4.93,4.93,0,0,0-2.41-.56,3.66,3.66,0,0,0-2.56.84,4.72,4.72,0,0,0-1.26,3.57V381h-5.6Z"/><path d="M553.3,374.2H541.64a4,4,0,0,0,1,2.63,3.15,3.15,0,0,0,2.31.77,4.51,4.51,0,0,0,1.82-.42,2.57,2.57,0,0,0,1-1.05h5.36a7.15,7.15,0,0,1-1.89,3.22c-1.16,1.12-3,2.17-6.37,2.17a8.9,8.9,0,0,1-6.48-2.38,8.23,8.23,0,0,1-2.31-5.92,8.33,8.33,0,0,1,2.35-6.05,8.79,8.79,0,0,1,6.4-2.28,8.57,8.57,0,0,1,6,2.14,8.75,8.75,0,0,1,2.49,6.58ZM548.15,371a3.78,3.78,0,0,0-.91-1.68,3.28,3.28,0,0,0-2.31-.84,3,3,0,0,0-2.27.84,3.12,3.12,0,0,0-.84,1.68Z"/><rect x="100.58" y="582.98" width="605.96" height="134.74" rx="12" ry="12" style="fill:none;stroke:#f4c240;stroke-miterlimit:10;stroke-width:4.96011683602606px"/><rect x="314.29" y="611.23" width="175" height="76.94" rx="12" ry="12" style="fill:none;stroke:#f4c240;stroke-miterlimit:10;stroke-width:5.236px"/><path d="M373,656a6.87,6.87,0,0,0,1.92,1,6.25,6.25,0,0,0,1.86.33,2,2,0,0,0,1.23-.36.77.77,0,0,0,.24-.63.71.71,0,0,0-.24-.6,3,3,0,0,0-1.26-.48l-1.26-.3a4.31,4.31,0,0,1-2.34-1.17,3.24,3.24,0,0,1-.87-2.31,4.79,4.79,0,0,1,1.26-3.27,6.77,6.77,0,0,1,4.8-1.62,11.07,11.07,0,0,1,4.29.87L381,650.48a6.64,6.64,0,0,0-2.52-.66,2,2,0,0,0-1.11.27.72.72,0,0,0-.42.66.78.78,0,0,0,.57.75c.45.18.84.18,1.59.39l.87.24a5.67,5.67,0,0,1,2,1,3.79,3.79,0,0,1,1,2.67,4.48,4.48,0,0,1-1.35,3.33,7,7,0,0,1-5,1.68,9.89,9.89,0,0,1-5.4-1.56Z"/><path d="M385.47,638.54h4.8v10.14a5.85,5.85,0,0,1,1.5-1.32,6.14,6.14,0,0,1,6.72.78,4.68,4.68,0,0,1,1.26,3.75v8.52H395v-6.78a4,4,0,0,0-.6-2.61,1.9,1.9,0,0,0-1.53-.57,2.57,2.57,0,0,0-1.74.57,2.92,2.92,0,0,0-.81,2.19v7.2h-4.8Z"/><path d="M416.64,654.59h-10a3.39,3.39,0,0,0,.84,2.25,2.7,2.7,0,0,0,2,.66,3.79,3.79,0,0,0,1.56-.36,2.23,2.23,0,0,0,.84-.9h4.59a6,6,0,0,1-1.62,2.76c-1,1-2.55,1.86-5.46,1.86a7.61,7.61,0,0,1-5.55-2,7,7,0,0,1-2-5.07,7.16,7.16,0,0,1,2-5.19,7.55,7.55,0,0,1,5.49-1.95,7.35,7.35,0,0,1,5.16,1.83,7.51,7.51,0,0,1,2.13,5.64Zm-4.41-2.76a3.22,3.22,0,0,0-.78-1.44,2.8,2.8,0,0,0-2-.72,2.58,2.58,0,0,0-2,.72,2.74,2.74,0,0,0-.72,1.44Z"/><path d="M424.2,638.54v21.87h-4.8V638.54Z"/><path d="M432.27,638.54v21.87h-4.8V638.54Z"/><path d="M754.73,632.82h-8.47l-1.57,3.92h-6.41l9-23.35h6.62l8.78,23.35h-6.47Zm-1.6-4.62-2.63-7.57-2.56,7.57Z"/><path d="M770.41,644.75h-5.6V621.09h5.6v1.71a5.87,5.87,0,0,1,4.8-2.24,7.78,7.78,0,0,1,5.56,2.28,8.88,8.88,0,0,1-.14,12.25,7.49,7.49,0,0,1-5.35,2.17,6.66,6.66,0,0,1-4.87-2Zm.91-18.37a3.51,3.51,0,0,0,0,5.07,3.57,3.57,0,0,0,2.52,1,3.37,3.37,0,0,0,2.49-1,3.71,3.71,0,0,0,1.08-2.48,3.8,3.8,0,0,0-1.08-2.59,3.37,3.37,0,0,0-2.49-1A3.57,3.57,0,0,0,771.32,626.38Z"/><path d="M792,611.22v25.52h-5.6V611.22Z"/><path d="M798.59,611.43a3.15,3.15,0,1,1-3.15,3.15A3.14,3.14,0,0,1,798.59,611.43Zm2.8,9.66v15.65h-5.6V621.09Z"/><path d="M817,636.39a8.34,8.34,0,0,1-3.88.87,8.61,8.61,0,0,1-6.16-2.38,8.17,8.17,0,0,1-2.42-5.84,8.55,8.55,0,0,1,2.52-6.06,9,9,0,0,1,6.3-2.38,8,8,0,0,1,3.64.87v4.7a4.93,4.93,0,0,0-2.9-1,3.63,3.63,0,0,0-2.73,1.09,3.79,3.79,0,0,0-1.09,2.69,4.06,4.06,0,0,0,1,2.63,3.82,3.82,0,0,0,2.87,1.19,4.25,4.25,0,0,0,2.87-1Z"/><path d="M832.33,621.09h5.6v15.65h-5.6V635a5.84,5.84,0,0,1-4.87,2.24,7.49,7.49,0,0,1-5.63-2.48,7.88,7.88,0,0,1-2.24-5.74,8.65,8.65,0,0,1,2.41-6.27,8.07,8.07,0,0,1,5.64-2.21,6.22,6.22,0,0,1,4.69,2Zm-5.88,5.25a3.67,3.67,0,0,0-1.12,2.56,3.58,3.58,0,0,0,1.08,2.55,4,4,0,0,0,2.52,1,3.59,3.59,0,0,0,2.52-1.08,3.4,3.4,0,0,0,1-2.52,3.48,3.48,0,0,0-1.08-2.56,3.56,3.56,0,0,0-5,0Z"/><path d="M848,625.67v11.07h-5.6V625.67h-1.78v-4.58h1.78v-5.15H848v5.15h3.19v4.58Zm-5.39,12.82,5.25.56-3.57,6.44-3.5-.42Z"/><path d="M856.06,611.43a3.15,3.15,0,1,1-3.15,3.15A3.14,3.14,0,0,1,856.06,611.43Zm2.8,9.66v15.65h-5.6V621.09Z"/><path d="M865.47,611.43a3.15,3.15,0,1,1-3.15,3.15A3.14,3.14,0,0,1,865.47,611.43Zm2.8,9.66v15.65h-5.6V621.09Z"/><path d="M898,636.74h-5.6V635a5.73,5.73,0,0,1-4.72,2.24,7.47,7.47,0,0,1-5.5-2.17,8.6,8.6,0,0,1-2.52-6.23,8.49,8.49,0,0,1,2.56-6.19,8,8,0,0,1,5.53-2.11,6.2,6.2,0,0,1,4.65,2V611.22H898Zm-6.61-5.18a3.79,3.79,0,0,0,1.19-2.66,4.07,4.07,0,0,0-1-2.52,3.6,3.6,0,0,0-5,0,3.85,3.85,0,0,0-1.09,2.66,3.66,3.66,0,0,0,3.57,3.5A3.87,3.87,0,0,0,891.34,631.56Z"/><path d="M918.39,630H906.73a4,4,0,0,0,1,2.62,3.18,3.18,0,0,0,2.32.77,4.33,4.33,0,0,0,1.82-.42,2.64,2.64,0,0,0,1-1h5.35a6.92,6.92,0,0,1-1.89,3.22c-1.15,1.12-3,2.17-6.37,2.17a8.84,8.84,0,0,1-6.47-2.38,8.16,8.16,0,0,1-2.32-5.91,8.38,8.38,0,0,1,2.35-6.06,8.81,8.81,0,0,1,6.4-2.28,8.59,8.59,0,0,1,6,2.14,8.77,8.77,0,0,1,2.48,6.58Zm-5.14-3.22a3.76,3.76,0,0,0-.91-1.69,3.28,3.28,0,0,0-2.31-.83,3,3,0,0,0-2.28.83,3.3,3.3,0,0,0-.84,1.69Z"/><path d="M930.78,631.56a7.8,7.8,0,0,0,2.24,1.15,7.12,7.12,0,0,0,2.17.39,2.44,2.44,0,0,0,1.44-.42.92.92,0,0,0,.27-.74.84.84,0,0,0-.27-.7,3.66,3.66,0,0,0-1.48-.56l-1.47-.35A5,5,0,0,1,931,629a3.83,3.83,0,0,1-1-2.7,5.55,5.55,0,0,1,1.47-3.81,7.88,7.88,0,0,1,5.6-1.9,12.83,12.83,0,0,1,5,1l-1.89,3.57a7.78,7.78,0,0,0-3-.77,2.37,2.37,0,0,0-1.29.32.82.82,0,0,0-.49.76.9.9,0,0,0,.66.88c.53.21,1,.21,1.86.45l1,.29a6.6,6.6,0,0,1,2.31,1.22,4.4,4.4,0,0,1,1.2,3.12,5.21,5.21,0,0,1-1.58,3.88c-1.82,1.82-4.48,2-5.78,2a11.51,11.51,0,0,1-6.3-1.82Z"/><path d="M948.1,611.43a3.15,3.15,0,1,1-3.15,3.15A3.14,3.14,0,0,1,948.1,611.43Zm2.8,9.66v15.65h-5.6V621.09Z"/><path d="M955.73,631.56a7.93,7.93,0,0,0,2.24,1.15,7.17,7.17,0,0,0,2.17.39,2.42,2.42,0,0,0,1.44-.42.93.93,0,0,0,.28-.74.85.85,0,0,0-.28-.7,3.56,3.56,0,0,0-1.47-.56l-1.47-.35a5,5,0,0,1-2.73-1.36,3.8,3.8,0,0,1-1-2.7,5.59,5.59,0,0,1,1.47-3.81,7.88,7.88,0,0,1,5.6-1.9,12.83,12.83,0,0,1,5,1l-1.89,3.57a7.77,7.77,0,0,0-2.94-.77,2.38,2.38,0,0,0-1.3.32.84.84,0,0,0-.49.76.91.91,0,0,0,.67.88c.52.21,1,.21,1.85.45l1,.29a6.78,6.78,0,0,1,2.31,1.22,4.44,4.44,0,0,1,1.19,3.12,5.21,5.21,0,0,1-1.58,3.88c-1.82,1.82-4.48,2-5.77,2a11.49,11.49,0,0,1-6.3-1.82Z"/><path d="M976.45,625.67v11.07h-5.6V625.67h-1.78v-4.58h1.78v-5.15h5.6v5.15h3.19v4.58Z"/><path d="M998.33,630H986.67a4,4,0,0,0,1,2.62,3.15,3.15,0,0,0,2.31.77,4.33,4.33,0,0,0,1.82-.42,2.57,2.57,0,0,0,1-1h5.36a7.1,7.1,0,0,1-1.89,3.22c-1.16,1.12-3,2.17-6.37,2.17a8.86,8.86,0,0,1-6.48-2.38,8.2,8.2,0,0,1-2.31-5.91,8.34,8.34,0,0,1,2.35-6.06,8.79,8.79,0,0,1,6.4-2.28,8.57,8.57,0,0,1,6,2.14,8.75,8.75,0,0,1,2.49,6.58Zm-5.15-3.22a3.76,3.76,0,0,0-.91-1.69,3.26,3.26,0,0,0-2.31-.83,3,3,0,0,0-2.27.83,3.15,3.15,0,0,0-.84,1.69Z"/><path d="M1001.54,621.09h5.61V623a6,6,0,0,1,4.69-2.17,6.31,6.31,0,0,1,3,.7,4.91,4.91,0,0,1,2.17,2.24,5.46,5.46,0,0,1,2.13-2.17,6.36,6.36,0,0,1,3.26-.77,6.19,6.19,0,0,1,4.34,1.44,5.73,5.73,0,0,1,1.47,4.3v10.19h-5.6V629c0-1.64-.18-2.76-.81-3.36a2,2,0,0,0-1.47-.52,2.23,2.23,0,0,0-1.64.63,4,4,0,0,0-1,3v8h-5.6V629c0-1.5-.1-2.69-.73-3.36a2.19,2.19,0,0,0-1.68-.63,2,2,0,0,0-1.54.56,4.63,4.63,0,0,0-1,3.43v7.74h-5.61Z"/><path d="M744.83,685.32a22.9,22.9,0,0,1-3.43-7.84,29.17,29.17,0,0,1-1-8.19,30.57,30.57,0,0,1,1.3-9.18,31.7,31.7,0,0,1,3.15-6.89l3.95,2.1a29.94,29.94,0,0,0-2.59,6.33,32.49,32.49,0,0,0-1,7.46,37.49,37.49,0,0,0,.84,7.25,24.58,24.58,0,0,0,2.73,6.86Z"/><path d="M753.37,673.56a7.8,7.8,0,0,0,2.24,1.15,7.12,7.12,0,0,0,2.17.39,2.39,2.39,0,0,0,1.43-.42.9.9,0,0,0,.28-.74.82.82,0,0,0-.28-.7,3.56,3.56,0,0,0-1.47-.56l-1.47-.35a5,5,0,0,1-2.73-1.36,3.83,3.83,0,0,1-1-2.7,5.55,5.55,0,0,1,1.47-3.81,7.88,7.88,0,0,1,5.6-1.9,12.77,12.77,0,0,1,5,1l-1.89,3.57a7.72,7.72,0,0,0-2.94-.77,2.35,2.35,0,0,0-1.29.32.82.82,0,0,0-.49.76.9.9,0,0,0,.66.88c.53.21,1,.21,1.86.45l1,.29a6.6,6.6,0,0,1,2.31,1.22,4.44,4.44,0,0,1,1.19,3.12,5.21,5.21,0,0,1-1.57,3.88c-1.82,1.82-4.48,2-5.78,2a11.51,11.51,0,0,1-6.3-1.82Z"/><path d="M773.53,676.6,766,663.09h6.51l4.16,8,4.06-8h6.41l-12.57,23.66h-6.26Z"/><path d="M788.75,673.56a7.93,7.93,0,0,0,2.24,1.15,7.17,7.17,0,0,0,2.17.39,2.42,2.42,0,0,0,1.44-.42.93.93,0,0,0,.28-.74.85.85,0,0,0-.28-.7,3.56,3.56,0,0,0-1.47-.56l-1.47-.35a5,5,0,0,1-2.73-1.36,3.8,3.8,0,0,1-1-2.7,5.59,5.59,0,0,1,1.47-3.81,7.88,7.88,0,0,1,5.6-1.9,12.83,12.83,0,0,1,5,1l-1.89,3.57a7.77,7.77,0,0,0-2.94-.77,2.38,2.38,0,0,0-1.3.32.84.84,0,0,0-.49.76.91.91,0,0,0,.67.88c.52.21,1,.21,1.85.45l1,.29a6.78,6.78,0,0,1,2.31,1.22,4.44,4.44,0,0,1,1.19,3.12,5.21,5.21,0,0,1-1.58,3.88c-1.82,1.82-4.48,2-5.77,2a11.49,11.49,0,0,1-6.3-1.82Z"/><path d="M809.47,667.67v11.07h-5.6V667.67h-1.78v-4.58h1.78v-5.15h5.6v5.15h3.19v4.58Z"/><path d="M831.35,672H819.69a4,4,0,0,0,1,2.62,3.15,3.15,0,0,0,2.31.77,4.33,4.33,0,0,0,1.82-.42,2.57,2.57,0,0,0,1-1h5.36a7.1,7.1,0,0,1-1.89,3.22c-1.16,1.12-3,2.17-6.37,2.17a8.85,8.85,0,0,1-6.48-2.38,8.16,8.16,0,0,1-2.31-5.91,8.34,8.34,0,0,1,2.35-6.06,8.79,8.79,0,0,1,6.4-2.28,8.57,8.57,0,0,1,6,2.14,8.75,8.75,0,0,1,2.49,6.58Zm-5.15-3.22a3.76,3.76,0,0,0-.91-1.69,3.26,3.26,0,0,0-2.31-.83,3,3,0,0,0-2.27.83,3.15,3.15,0,0,0-.84,1.69Z"/><path d="M834.56,663.09h5.6V665a6,6,0,0,1,4.7-2.17,6.34,6.34,0,0,1,3,.7,4.91,4.91,0,0,1,2.17,2.24,5.46,5.46,0,0,1,2.13-2.17,6.36,6.36,0,0,1,3.26-.77,6.19,6.19,0,0,1,4.34,1.44,5.73,5.73,0,0,1,1.47,4.3v10.19h-5.6V671c0-1.64-.18-2.76-.81-3.36a2,2,0,0,0-1.47-.52,2.23,2.23,0,0,0-1.64.63,4,4,0,0,0-1,3v8h-5.6V671c0-1.5-.1-2.69-.73-3.36a2.19,2.19,0,0,0-1.68-.63,2,2,0,0,0-1.55.56,4.63,4.63,0,0,0-1,3.43v7.74h-5.6Z"/><path d="M874.29,673.56a7.8,7.8,0,0,0,2.24,1.15,7.12,7.12,0,0,0,2.17.39,2.39,2.39,0,0,0,1.43-.42.9.9,0,0,0,.28-.74.82.82,0,0,0-.28-.7,3.56,3.56,0,0,0-1.47-.56l-1.47-.35a5,5,0,0,1-2.73-1.36,3.83,3.83,0,0,1-1-2.7,5.55,5.55,0,0,1,1.47-3.81,7.88,7.88,0,0,1,5.6-1.9,12.83,12.83,0,0,1,5,1l-1.9,3.57a7.68,7.68,0,0,0-2.94-.77,2.35,2.35,0,0,0-1.29.32.82.82,0,0,0-.49.76.9.9,0,0,0,.66.88c.53.21,1,.21,1.86.45l1,.29a6.6,6.6,0,0,1,2.31,1.22,4.4,4.4,0,0,1,1.2,3.12,5.21,5.21,0,0,1-1.58,3.88c-1.82,1.82-4.48,2-5.78,2a11.51,11.51,0,0,1-6.3-1.82Z"/><path d="M904.56,676.67a10.7,10.7,0,0,1-14,0,7.78,7.78,0,0,1-2.42-5.77,7.7,7.7,0,0,1,2.42-5.74,9.71,9.71,0,0,1,7-2.6,9.84,9.84,0,0,1,7,2.6A7.7,7.7,0,0,1,907,670.9,7.78,7.78,0,0,1,904.56,676.67Zm-9.48-8.33a3.46,3.46,0,0,0,0,5,3.5,3.5,0,0,0,5,0,3.44,3.44,0,0,0,1.09-2.48,3.82,3.82,0,0,0-1.09-2.56,3.6,3.6,0,0,0-5,0Z"/><path d="M916.22,667.67v11.07h-5.6V667.67h-2v-4.58h2v-2.63a8,8,0,0,1,1.43-5.14,6.51,6.51,0,0,1,5.43-2.49,7,7,0,0,1,2.69.53v4.83a3.47,3.47,0,0,0-1.75-.53,2,2,0,0,0-1.57.6,4.09,4.09,0,0,0-.63,2.62v2.21h3.92v4.58Z"/><path d="M929.17,667.67v11.07h-5.6V667.67h-1.79v-4.58h1.79v-5.15h5.6v5.15h3.18v4.58Z"/><path d="M939.14,663.09l3.71,8.26,4-8.26h3.43l4,8.51,3.92-8.51h6.23l-8.19,15.65h-3.78l-3.92-8.61-3.74,8.61h-3.78l-8-15.65Z"/><path d="M977.08,663.09h5.6v15.65h-5.6V677a5.82,5.82,0,0,1-4.86,2.24,7.51,7.51,0,0,1-5.64-2.48,7.92,7.92,0,0,1-2.24-5.74,8.65,8.65,0,0,1,2.42-6.27,8,8,0,0,1,5.63-2.21,6.2,6.2,0,0,1,4.69,2Zm-5.88,5.25a3.67,3.67,0,0,0-1.12,2.56,3.59,3.59,0,0,0,1.09,2.55,3.91,3.91,0,0,0,2.52,1,3.59,3.59,0,0,0,2.52-1.08,3.4,3.4,0,0,0,1-2.52,3.45,3.45,0,0,0-1.09-2.56,3.56,3.56,0,0,0-5,0Z"/><path d="M986.53,663.09h5.6v2.55a5.06,5.06,0,0,1,2.21-2.17,6.15,6.15,0,0,1,2.9-.63c.14,0,.39,0,1.12.08v5.28a4.93,4.93,0,0,0-2.41-.56,3.71,3.71,0,0,0-2.56.84,4.73,4.73,0,0,0-1.26,3.57v6.69h-5.6Z"/><path d="M1017.44,672h-11.66a4,4,0,0,0,1,2.62,3.15,3.15,0,0,0,2.31.77,4.33,4.33,0,0,0,1.82-.42,2.57,2.57,0,0,0,1-1h5.36a7.1,7.1,0,0,1-1.89,3.22c-1.16,1.12-3,2.17-6.38,2.17a8.84,8.84,0,0,1-6.47-2.38,8.16,8.16,0,0,1-2.31-5.91,8.34,8.34,0,0,1,2.35-6.06,8.79,8.79,0,0,1,6.4-2.28,8.57,8.57,0,0,1,6,2.14,8.75,8.75,0,0,1,2.49,6.58Zm-5.15-3.22a3.76,3.76,0,0,0-.91-1.69,3.26,3.26,0,0,0-2.31-.83,3,3,0,0,0-2.28.83,3.22,3.22,0,0,0-.83,1.69Z"/><path d="M1020.38,683.22a24.23,24.23,0,0,0,2.72-6.86,36.71,36.71,0,0,0,.85-7.25,32,32,0,0,0-1-7.46,29.91,29.91,0,0,0-2.58-6.33l3.95-2.1a32.18,32.18,0,0,1,3.15,6.89,31.54,31.54,0,0,1,1.3,9.21,29.1,29.1,0,0,1-1,8.16,22.9,22.9,0,0,1-3.43,7.84Z"/><rect x="114.29" y="612.69" width="175" height="76.94" rx="12" ry="12" style="fill:none;stroke:#f4c240;stroke-miterlimit:10;stroke-width:5.236px"/><path d="M146.6,647.8V634.46h5.16a3.74,3.74,0,0,1,2.92,1,3.61,3.61,0,0,1,.82,2.5,3.46,3.46,0,0,1-.38,1.64,2.1,2.1,0,0,1-1.08,1,3.32,3.32,0,0,1,1.82.8,3.36,3.36,0,0,1,.9,2.44,3.62,3.62,0,0,1-1,2.62,5,5,0,0,1-3.62,1.26Zm3.46-8.08h.64a1.83,1.83,0,0,0,1.32-.42,1.29,1.29,0,0,0,.32-.88,1.37,1.37,0,0,0-.32-.9,1.84,1.84,0,0,0-1.32-.4h-.64Zm0,5.38h.78a2.9,2.9,0,0,0,2.14-.54,1.3,1.3,0,0,0,.28-.86,1.36,1.36,0,0,0-.34-1,3.23,3.23,0,0,0-2.14-.44h-.72Z"/><path d="M160.26,633.34a1.8,1.8,0,1,1-1.8,1.8A1.79,1.79,0,0,1,160.26,633.34Zm1.6,5.52v8.94h-3.2v-8.94Z"/><path d="M167.24,633.22v6.5a3.54,3.54,0,0,1,2.66-1.16,4.57,4.57,0,0,1,3.16,1.2,4.87,4.87,0,0,1,1.46,3.54,4.93,4.93,0,0,1-1.44,3.56,4.28,4.28,0,0,1-3.14,1.24,3.28,3.28,0,0,1-2.7-1.28v1H164V633.22Zm3.38,11.56a2,2,0,0,0,.62-1.4,2.2,2.2,0,0,0-.62-1.52,2.05,2.05,0,0,0-2.88,0,2.34,2.34,0,0,0-.6,1.44,2.14,2.14,0,0,0,.68,1.52,2.18,2.18,0,0,0,1.38.54A2,2,0,0,0,170.62,644.78Z"/><path d="M179.56,633.22V647.8h-3.2V633.22Z"/><path d="M183.34,633.34a1.8,1.8,0,1,1-1.8,1.8A1.79,1.79,0,0,1,183.34,633.34Zm1.6,5.52v8.94h-3.2v-8.94Z"/><path d="M196.12,646.62a6.12,6.12,0,0,1-8,0,4.61,4.61,0,0,1,0-6.58,5.58,5.58,0,0,1,4-1.48,5.65,5.65,0,0,1,4,1.48,4.61,4.61,0,0,1,0,6.58Zm-5.42-4.76a2,2,0,0,0,1.44,3.48,2,2,0,0,0,1.42-.6,2,2,0,0,0,.62-1.42,2.17,2.17,0,0,0-.62-1.46,2.05,2.05,0,0,0-2.86,0Z"/><path d="M202.88,641.48v6.32h-3.2v-6.32h-1v-2.62h1v-2.94h3.2v2.94h1.82v2.62Z"/><path d="M215.38,643.92h-6.66a2.26,2.26,0,0,0,.56,1.5,1.8,1.8,0,0,0,1.32.44,2.52,2.52,0,0,0,1-.24,1.49,1.49,0,0,0,.56-.6h3.06a4,4,0,0,1-1.08,1.84,4.86,4.86,0,0,1-3.64,1.24,5.07,5.07,0,0,1-3.7-1.36,4.68,4.68,0,0,1-1.32-3.38,4.77,4.77,0,0,1,1.34-3.46,5,5,0,0,1,3.66-1.3,4.9,4.9,0,0,1,3.44,1.22,5,5,0,0,1,1.42,3.76Zm-2.94-1.84a2.15,2.15,0,0,0-.52-1,1.86,1.86,0,0,0-1.32-.48,1.72,1.72,0,0,0-1.3.48,1.82,1.82,0,0,0-.48,1Z"/><path d="M224,647.6a4.75,4.75,0,0,1-2.22.5,4.94,4.94,0,0,1-3.52-1.36,4.68,4.68,0,0,1-1.38-3.34,4.87,4.87,0,0,1,1.44-3.46,5.16,5.16,0,0,1,3.6-1.36,4.59,4.59,0,0,1,2.08.5v2.68a2.85,2.85,0,0,0-1.66-.58,2.1,2.1,0,0,0-1.56.62,2.18,2.18,0,0,0-.62,1.54,2.3,2.3,0,0,0,.56,1.5,2.17,2.17,0,0,0,1.64.68,2.42,2.42,0,0,0,1.64-.6Z"/><path d="M227.4,633.34a1.8,1.8,0,1,1-1.8,1.8A1.79,1.79,0,0,1,227.4,633.34Zm1.6,5.52v8.94h-3.2v-8.94Z"/><path d="M246,647.8h-3.2v-1a3.28,3.28,0,0,1-2.7,1.28,4.28,4.28,0,0,1-3.14-1.24,4.93,4.93,0,0,1-1.44-3.56,4.87,4.87,0,0,1,1.46-3.54,4.57,4.57,0,0,1,3.16-1.2,3.54,3.54,0,0,1,2.66,1.16v-6.5H246Zm-3.78-3a2.14,2.14,0,0,0,.68-1.52,2.34,2.34,0,0,0-.6-1.44,2.05,2.05,0,0,0-2.88,0,2.2,2.2,0,0,0-.62,1.52,2,2,0,0,0,.62,1.4,2,2,0,0,0,1.42.6A2.18,2.18,0,0,0,242.18,644.84Z"/><path d="M257.64,643.92H251a2.26,2.26,0,0,0,.56,1.5,1.8,1.8,0,0,0,1.32.44,2.52,2.52,0,0,0,1-.24,1.49,1.49,0,0,0,.56-.6h3.06a4,4,0,0,1-1.08,1.84,4.86,4.86,0,0,1-3.64,1.24,5.07,5.07,0,0,1-3.7-1.36,4.68,4.68,0,0,1-1.32-3.38,4.77,4.77,0,0,1,1.34-3.46,5,5,0,0,1,3.66-1.3,4.9,4.9,0,0,1,3.44,1.22,5,5,0,0,1,1.42,3.76Zm-2.94-1.84a2.15,2.15,0,0,0-.52-1,1.86,1.86,0,0,0-1.32-.48,1.72,1.72,0,0,0-1.3.48,1.82,1.82,0,0,0-.48,1Z"/><path d="M174.23,668.84a4.58,4.58,0,0,0,1.28.66,4.16,4.16,0,0,0,1.24.22,1.36,1.36,0,0,0,.82-.24.51.51,0,0,0,.16-.42.47.47,0,0,0-.16-.4,2,2,0,0,0-.84-.32l-.84-.2a2.88,2.88,0,0,1-1.56-.78,2.16,2.16,0,0,1-.58-1.54,3.19,3.19,0,0,1,.84-2.18,4.51,4.51,0,0,1,3.2-1.08,7.38,7.38,0,0,1,2.86.58l-1.08,2a4.43,4.43,0,0,0-1.68-.44,1.35,1.35,0,0,0-.74.18.48.48,0,0,0-.28.44.52.52,0,0,0,.38.5c.3.12.56.12,1.06.26l.58.16a3.78,3.78,0,0,1,1.32.7,2.53,2.53,0,0,1,.68,1.78A3,3,0,0,1,180,671a4.65,4.65,0,0,1-3.3,1.12,6.6,6.6,0,0,1-3.6-1Z"/><path d="M184.13,657.34a1.8,1.8,0,1,1-1.8,1.8A1.79,1.79,0,0,1,184.13,657.34Zm1.6,5.52v8.94h-3.2v-8.94Z"/><path d="M188.49,668.84a4.58,4.58,0,0,0,1.28.66,4.16,4.16,0,0,0,1.24.22,1.36,1.36,0,0,0,.82-.24.51.51,0,0,0,.16-.42.47.47,0,0,0-.16-.4,2,2,0,0,0-.84-.32l-.84-.2a2.88,2.88,0,0,1-1.56-.78,2.16,2.16,0,0,1-.58-1.54,3.19,3.19,0,0,1,.84-2.18,4.51,4.51,0,0,1,3.2-1.08,7.38,7.38,0,0,1,2.86.58l-1.08,2a4.43,4.43,0,0,0-1.68-.44,1.35,1.35,0,0,0-.74.18.48.48,0,0,0-.28.44.52.52,0,0,0,.38.5c.3.12.56.12,1.06.26l.58.16a3.78,3.78,0,0,1,1.32.7,2.53,2.53,0,0,1,.68,1.78,3,3,0,0,1-.9,2.22,4.65,4.65,0,0,1-3.3,1.12,6.6,6.6,0,0,1-3.6-1Z"/><path d="M200.33,665.48v6.32h-3.2v-6.32h-1v-2.62h1v-2.94h3.2v2.94h1.82v2.62Z"/><path d="M212.83,667.92h-6.66a2.26,2.26,0,0,0,.56,1.5,1.8,1.8,0,0,0,1.32.44,2.52,2.52,0,0,0,1-.24,1.49,1.49,0,0,0,.56-.6h3.06a4,4,0,0,1-1.08,1.84A4.86,4.86,0,0,1,208,672.1a5.07,5.07,0,0,1-3.7-1.36,4.68,4.68,0,0,1-1.32-3.38,4.77,4.77,0,0,1,1.34-3.46,5,5,0,0,1,3.66-1.3,4.9,4.9,0,0,1,3.44,1.22,5,5,0,0,1,1.42,3.76Zm-2.94-1.84a2.15,2.15,0,0,0-.52-1,1.86,1.86,0,0,0-1.32-.48,1.72,1.72,0,0,0-1.3.48,1.82,1.82,0,0,0-.48,1Z"/><path d="M214.67,662.86h3.2v1.08a3.43,3.43,0,0,1,2.68-1.24,3.64,3.64,0,0,1,1.72.4,2.79,2.79,0,0,1,1.24,1.28,3.14,3.14,0,0,1,1.22-1.24,3.63,3.63,0,0,1,1.86-.44,3.55,3.55,0,0,1,2.48.82,3.28,3.28,0,0,1,.84,2.46v5.82h-3.2v-4.42a2.66,2.66,0,0,0-.46-1.92,1.17,1.17,0,0,0-.84-.3,1.3,1.3,0,0,0-.94.36,2.29,2.29,0,0,0-.58,1.7v4.58h-3.2v-4.42a2.86,2.86,0,0,0-.42-1.92,1.24,1.24,0,0,0-1-.36,1.13,1.13,0,0,0-.88.32,2.64,2.64,0,0,0-.56,2v4.42h-3.2Z"/><rect x="514.29" y="611.23" width="175" height="76.94" rx="12" ry="12" style="fill:none;stroke:#f4c240;stroke-miterlimit:10;stroke-width:5.236px"/><path d="M554.75,630.44v7.9a2.7,2.7,0,0,0,.68,2.06,2.46,2.46,0,0,0,3.24.06,2.92,2.92,0,0,0,.78-2.42v-7.6h3.46v7.66a5.42,5.42,0,0,1-1.5,4.32,5.76,5.76,0,0,1-4.4,1.66,6,6,0,0,1-4.42-1.6,6.22,6.22,0,0,1-1.3-4.38v-7.66Z"/><path d="M569,637.46v6.32h-3.2v-6.32h-1v-2.62h1V631.9H569v2.94h1.82v2.62Z"/><path d="M573.57,629.32a1.8,1.8,0,1,1-1.8,1.8A1.79,1.79,0,0,1,573.57,629.32Zm1.6,5.52v8.94H572v-8.94Z"/><path d="M580.55,629.2v14.58h-3.2V629.2Z"/><path d="M584.33,629.32a1.8,1.8,0,1,1-1.8,1.8A1.79,1.79,0,0,1,584.33,629.32Zm1.6,5.52v8.94h-3.2v-8.94Z"/><path d="M591.65,637.46v6.32h-3.2v-6.32h-1v-2.62h1V631.9h3.2v2.94h1.82v2.62Z"/><path d="M601.59,634.84h3.2v8.94h-3.2v-1a3.34,3.34,0,0,1-2.78,1.28,4.28,4.28,0,0,1-3.22-1.42,4.51,4.51,0,0,1-1.28-3.28,5,5,0,0,1,1.38-3.58,4.6,4.6,0,0,1,3.22-1.26,3.54,3.54,0,0,1,2.68,1.16Zm-3.36,3a2.09,2.09,0,0,0-.64,1.46,2.06,2.06,0,0,0,.62,1.46,2.25,2.25,0,0,0,1.44.6,2.05,2.05,0,0,0,1.44-.62,1.94,1.94,0,0,0,.6-1.44,2,2,0,0,0-.62-1.46,2,2,0,0,0-2.84,0Z"/><path d="M607,634.84h3.2v1.46a2.88,2.88,0,0,1,1.26-1.24,3.49,3.49,0,0,1,1.66-.36l.64,0v3a2.82,2.82,0,0,0-1.38-.32,2.1,2.1,0,0,0-1.46.48,2.7,2.7,0,0,0-.72,2v3.82H607Z"/><path d="M624.65,639.9H618a2.26,2.26,0,0,0,.56,1.5,1.8,1.8,0,0,0,1.32.44,2.52,2.52,0,0,0,1-.24,1.49,1.49,0,0,0,.56-.6h3.06a4,4,0,0,1-1.08,1.84,4.86,4.86,0,0,1-3.64,1.24,5.07,5.07,0,0,1-3.7-1.36,4.68,4.68,0,0,1-1.32-3.38,4.77,4.77,0,0,1,1.34-3.46,5,5,0,0,1,3.66-1.3,4.9,4.9,0,0,1,3.44,1.22,5,5,0,0,1,1.42,3.76Zm-2.94-1.84a2.15,2.15,0,0,0-.52-1,1.86,1.86,0,0,0-1.32-.48,1.72,1.72,0,0,0-1.3.48,1.82,1.82,0,0,0-.48,1Z"/><path d="M641.27,643.78h-3.2v-1a3.28,3.28,0,0,1-2.7,1.28,4.28,4.28,0,0,1-3.14-1.24,4.93,4.93,0,0,1-1.44-3.56,4.87,4.87,0,0,1,1.46-3.54,4.57,4.57,0,0,1,3.16-1.2,3.54,3.54,0,0,1,2.66,1.16v-6.5h3.2Zm-3.78-3a2.14,2.14,0,0,0,.68-1.52,2.34,2.34,0,0,0-.6-1.44,2.05,2.05,0,0,0-2.88,0,2.2,2.2,0,0,0-.62,1.52,2,2,0,0,0,.62,1.4,2,2,0,0,0,1.42.6A2.18,2.18,0,0,0,637.49,640.82Z"/><path d="M653,639.9h-6.66a2.26,2.26,0,0,0,.56,1.5,1.8,1.8,0,0,0,1.32.44,2.52,2.52,0,0,0,1-.24,1.49,1.49,0,0,0,.56-.6h3.06a4,4,0,0,1-1.08,1.84,4.86,4.86,0,0,1-3.64,1.24,5.07,5.07,0,0,1-3.7-1.36,4.68,4.68,0,0,1-1.32-3.38,4.77,4.77,0,0,1,1.34-3.46,5,5,0,0,1,3.66-1.3,4.9,4.9,0,0,1,3.44,1.22,5,5,0,0,1,1.42,3.76ZM650,638.06a2.15,2.15,0,0,0-.52-1,1.86,1.86,0,0,0-1.32-.48,1.72,1.72,0,0,0-1.3.48,1.82,1.82,0,0,0-.48,1Z"/><path d="M574.23,664.82a4.58,4.58,0,0,0,1.28.66,4.16,4.16,0,0,0,1.24.22,1.36,1.36,0,0,0,.82-.24.51.51,0,0,0,.16-.42.47.47,0,0,0-.16-.4,2,2,0,0,0-.84-.32l-.84-.2a2.88,2.88,0,0,1-1.56-.78,2.16,2.16,0,0,1-.58-1.54,3.19,3.19,0,0,1,.84-2.18,4.51,4.51,0,0,1,3.2-1.08,7.38,7.38,0,0,1,2.86.58l-1.08,2a4.43,4.43,0,0,0-1.68-.44,1.35,1.35,0,0,0-.74.18.48.48,0,0,0-.28.44.52.52,0,0,0,.38.5c.3.12.56.12,1.06.26l.58.16a3.78,3.78,0,0,1,1.32.7,2.53,2.53,0,0,1,.68,1.78A3,3,0,0,1,580,667a4.65,4.65,0,0,1-3.3,1.12,6.6,6.6,0,0,1-3.6-1Z"/><path d="M584.13,653.32a1.8,1.8,0,1,1-1.8,1.8A1.79,1.79,0,0,1,584.13,653.32Zm1.6,5.52v8.94h-3.2v-8.94Z"/><path d="M588.49,664.82a4.58,4.58,0,0,0,1.28.66,4.16,4.16,0,0,0,1.24.22,1.36,1.36,0,0,0,.82-.24A.51.51,0,0,0,592,665a.47.47,0,0,0-.16-.4,2,2,0,0,0-.84-.32l-.84-.2a2.88,2.88,0,0,1-1.56-.78,2.16,2.16,0,0,1-.58-1.54,3.19,3.19,0,0,1,.84-2.18,4.51,4.51,0,0,1,3.2-1.08,7.38,7.38,0,0,1,2.86.58l-1.08,2a4.43,4.43,0,0,0-1.68-.44,1.35,1.35,0,0,0-.74.18.48.48,0,0,0-.28.44.52.52,0,0,0,.38.5c.3.12.56.12,1.06.26l.58.16a3.78,3.78,0,0,1,1.32.7,2.53,2.53,0,0,1,.68,1.78,3,3,0,0,1-.9,2.22,4.65,4.65,0,0,1-3.3,1.12,6.6,6.6,0,0,1-3.6-1Z"/><path d="M600.33,661.46v6.32h-3.2v-6.32h-1v-2.62h1V655.9h3.2v2.94h1.82v2.62Z"/><path d="M612.83,663.9h-6.66a2.26,2.26,0,0,0,.56,1.5,1.8,1.8,0,0,0,1.32.44,2.52,2.52,0,0,0,1-.24,1.49,1.49,0,0,0,.56-.6h3.06a4,4,0,0,1-1.08,1.84,4.86,4.86,0,0,1-3.64,1.24,5.07,5.07,0,0,1-3.7-1.36,4.68,4.68,0,0,1-1.32-3.38,4.77,4.77,0,0,1,1.34-3.46,5,5,0,0,1,3.66-1.3,4.9,4.9,0,0,1,3.44,1.22,5,5,0,0,1,1.42,3.76Zm-2.94-1.84a2.15,2.15,0,0,0-.52-1,1.86,1.86,0,0,0-1.32-.48,1.72,1.72,0,0,0-1.3.48,1.82,1.82,0,0,0-.48,1Z"/><path d="M614.67,658.84h3.2v1.08a3.43,3.43,0,0,1,2.68-1.24,3.64,3.64,0,0,1,1.72.4,2.79,2.79,0,0,1,1.24,1.28,3.14,3.14,0,0,1,1.22-1.24,3.63,3.63,0,0,1,1.86-.44,3.55,3.55,0,0,1,2.48.82,3.28,3.28,0,0,1,.84,2.46v5.82h-3.2v-4.42a2.66,2.66,0,0,0-.46-1.92,1.17,1.17,0,0,0-.84-.3,1.3,1.3,0,0,0-.94.36,2.29,2.29,0,0,0-.58,1.7v4.58h-3.2v-4.42a2.86,2.86,0,0,0-.42-1.92,1.24,1.24,0,0,0-1-.36,1.13,1.13,0,0,0-.88.32,2.64,2.64,0,0,0-.56,2v4.42h-3.2Z"/><path d="M158.16,99.54h8.75V90.83H173v23.34h-6.09v-9.45h-8.75v9.45H152.1V90.83h6.06Z"/><path d="M189.48,98.53h5.6v15.64h-5.6v-1.71a5.82,5.82,0,0,1-4.86,2.24,7.49,7.49,0,0,1-5.64-2.49,7.9,7.9,0,0,1-2.24-5.74,8.64,8.64,0,0,1,2.42-6.26A8,8,0,0,1,184.79,98a6.2,6.2,0,0,1,4.69,2Zm-5.88,5.25a3.51,3.51,0,0,0,0,5.11,3.91,3.91,0,0,0,2.52,1,3.6,3.6,0,0,0,2.52-1.09,3.4,3.4,0,0,0,1-2.52,3.45,3.45,0,0,0-1.09-2.55,3.54,3.54,0,0,0-5,0Z"/><path d="M198.93,98.53h5.6v2.55a5.06,5.06,0,0,1,2.21-2.17,6.15,6.15,0,0,1,2.9-.63c.14,0,.39,0,1.12.07v5.29a4.93,4.93,0,0,0-2.41-.56,3.66,3.66,0,0,0-2.56.84,4.72,4.72,0,0,0-1.26,3.57v6.68h-5.6Z"/><path d="M231,114.17h-5.6v-1.71a5.75,5.75,0,0,1-4.73,2.24,7.5,7.5,0,0,1-5.49-2.17,8.89,8.89,0,0,1,0-12.43A8,8,0,0,1,220.7,98a6.22,6.22,0,0,1,4.66,2V88.66H231ZM224.34,109a3.71,3.71,0,0,0,1.19-2.66,4.12,4.12,0,0,0-1.05-2.52,3.59,3.59,0,0,0-5,0,3.84,3.84,0,0,0-1.08,2.66,3.57,3.57,0,0,0,1.08,2.45,3.48,3.48,0,0,0,2.49,1A3.78,3.78,0,0,0,224.34,109Z"/><path d="M239.15,98.53l3.71,8.26,3.95-8.26h3.43l4,8.5,3.92-8.5h6.23l-8.19,15.64h-3.78l-3.92-8.61-3.75,8.61h-3.78l-8.05-15.64Z"/><path d="M277.09,98.53h5.6v15.64h-5.6v-1.71a5.84,5.84,0,0,1-4.87,2.24,7.47,7.47,0,0,1-5.63-2.49,7.86,7.86,0,0,1-2.24-5.74,8.64,8.64,0,0,1,2.41-6.26A8.07,8.07,0,0,1,272.4,98a6.22,6.22,0,0,1,4.69,2Zm-5.88,5.25a3.52,3.52,0,0,0,0,5.11,4,4,0,0,0,2.52,1,3.6,3.6,0,0,0,2.52-1.09,3.4,3.4,0,0,0,1.05-2.52,3.47,3.47,0,0,0-1.08-2.55,3.54,3.54,0,0,0-5,0Z"/><path d="M286.54,98.53h5.6v2.55a5,5,0,0,1,2.2-2.17,6.19,6.19,0,0,1,2.91-.63c.14,0,.38,0,1.12.07v5.29a5,5,0,0,0-2.42-.56,3.63,3.63,0,0,0-2.55.84,4.72,4.72,0,0,0-1.26,3.57v6.68h-5.6Z"/><path d="M317.44,107.38H305.79a4,4,0,0,0,1,2.63,3.15,3.15,0,0,0,2.31.77,4.51,4.51,0,0,0,1.82-.42,2.64,2.64,0,0,0,1-1h5.35a7,7,0,0,1-1.89,3.22c-1.15,1.12-3,2.17-6.37,2.17a8.84,8.84,0,0,1-6.47-2.38,8.19,8.19,0,0,1-2.31-5.92,8.36,8.36,0,0,1,2.34-6.05,8.83,8.83,0,0,1,6.41-2.28,8.58,8.58,0,0,1,6,2.14,8.77,8.77,0,0,1,2.48,6.58Zm-5.14-3.22a3.78,3.78,0,0,0-.91-1.68,3.29,3.29,0,0,0-2.31-.84,3,3,0,0,0-2.28.84,3.27,3.27,0,0,0-.84,1.68Z"/><rect x="337.25" y="42.24" width="118.89" height="118.89" rx="12" ry="12" style="fill:none;stroke:#a2b969;stroke-miterlimit:10;stroke-width:7.41063881778717px"/><line x1="389.02" y1="42.24" x2="371.76" y2="86.34" style="fill:none;stroke:#a2b969;stroke-miterlimit:10;stroke-width:7.41063881778717px"/><circle cx="369.85" cy="92.09" r="9.59" style="fill:none;stroke:#a2b969;stroke-miterlimit:10;stroke-width:7.41063881778717px"/><circle cx="425.45" cy="84.42" r="9.59" style="fill:none;stroke:#a2b969;stroke-miterlimit:10;stroke-width:7.41063881778717px"/><circle cx="415.87" cy="124.69" r="9.59" style="fill:none;stroke:#a2b969;stroke-miterlimit:10;stroke-width:7.41063881778717px"/><line x1="456.13" y1="124.69" x2="421.62" y2="124.69" style="fill:none;stroke:#a2b969;stroke-miterlimit:10;stroke-width:7.41063881778717px"/><line x1="454.22" y1="57.58" x2="425.45" y2="57.58" style="fill:none;stroke:#a2b969;stroke-miterlimit:10;stroke-width:7.41063881778717px"/><line x1="425.45" y1="78.67" x2="425.45" y2="53.74" style="fill:none;stroke:#a2b969;stroke-miterlimit:10;stroke-width:7.41063881778717px"/><path d="M60.27,911.85H53l-1.35,3.36H46.17l7.68-20h5.67l7.53,20H61.5Zm-1.38-4-2.25-6.48-2.19,6.48Z"/><path d="M73.71,922.08h-4.8V901.8h4.8v1.47a5,5,0,0,1,4.11-1.92,6.67,6.67,0,0,1,4.77,1.95,7.61,7.61,0,0,1-.12,10.5,6.44,6.44,0,0,1-4.59,1.86,5.71,5.71,0,0,1-4.17-1.74Zm.78-15.75a3.27,3.27,0,0,0-.93,2.22,3.24,3.24,0,0,0,.93,2.13,3.07,3.07,0,0,0,2.16.9,2.9,2.9,0,0,0,2.13-.9,3.17,3.17,0,0,0,.93-2.13,3.27,3.27,0,0,0-.93-2.22,2.9,2.9,0,0,0-2.13-.9A3.07,3.07,0,0,0,74.49,906.33Z"/><path d="M92.19,893.34v21.87h-4.8V893.34Z"/><path d="M97.86,893.52a2.7,2.7,0,1,1-2.7,2.7A2.69,2.69,0,0,1,97.86,893.52Zm2.4,8.28v13.41h-4.8V901.8Z"/><path d="M113.67,914.91a7.12,7.12,0,0,1-3.33.75,7.41,7.41,0,0,1-5.28-2,7,7,0,0,1-2.07-5,7.3,7.3,0,0,1,2.16-5.19,7.73,7.73,0,0,1,5.4-2,6.88,6.88,0,0,1,3.12.75v4a4.28,4.28,0,0,0-2.49-.87,3.15,3.15,0,0,0-2.34.93,3.26,3.26,0,0,0-.93,2.31,3.44,3.44,0,0,0,.84,2.25,3.26,3.26,0,0,0,2.46,1,3.63,3.63,0,0,0,2.46-.9Z"/><path d="M126.78,901.8h4.8v13.41h-4.8v-1.47a5,5,0,0,1-4.17,1.92,6.42,6.42,0,0,1-4.83-2.13,6.76,6.76,0,0,1-1.92-4.92,7.42,7.42,0,0,1,2.07-5.37,6.9,6.9,0,0,1,4.83-1.89,5.31,5.31,0,0,1,4,1.74Zm-5,4.5a3.14,3.14,0,0,0-1,2.19,3.09,3.09,0,0,0,.93,2.19,3.37,3.37,0,0,0,2.16.9,3.08,3.08,0,0,0,2.16-.93,2.91,2.91,0,0,0,.9-2.16,3,3,0,0,0-.93-2.19,3,3,0,0,0-4.26,0Z"/><path d="M140.19,905.73v9.48h-4.8v-9.48h-1.53V901.8h1.53v-4.41h4.8v4.41h2.73v3.93Zm-4.62,11,4.5.48L137,922.71l-3-.36Z"/><path d="M147.12,893.52a2.7,2.7,0,1,1-2.7,2.7A2.69,2.69,0,0,1,147.12,893.52Zm2.4,8.28v13.41h-4.8V901.8Z"/><path d="M167,909.39H157a3.39,3.39,0,0,0,.84,2.25,2.7,2.7,0,0,0,2,.66,3.79,3.79,0,0,0,1.56-.36,2.23,2.23,0,0,0,.84-.9h4.59a6,6,0,0,1-1.62,2.76c-1,1-2.55,1.86-5.46,1.86a7.61,7.61,0,0,1-5.55-2,7,7,0,0,1-2-5.07,7.16,7.16,0,0,1,2-5.19,7.55,7.55,0,0,1,5.49-2,7.35,7.35,0,0,1,5.16,1.83,7.51,7.51,0,0,1,2.13,5.64Zm-4.41-2.76a3.22,3.22,0,0,0-.78-1.44,2.8,2.8,0,0,0-2-.72,2.58,2.58,0,0,0-2,.72,2.74,2.74,0,0,0-.72,1.44Z"/><path d="M648.27,911.85H641l-1.35,3.36h-5.49l7.68-20h5.67l7.53,20H649.5Zm-1.38-4-2.25-6.48-2.19,6.48Z"/><path d="M661.71,922.08h-4.8V901.8h4.8v1.47a5,5,0,0,1,4.11-1.92,6.67,6.67,0,0,1,4.77,1.95,7.61,7.61,0,0,1-.12,10.5,6.44,6.44,0,0,1-4.59,1.86,5.71,5.71,0,0,1-4.17-1.74Zm.78-15.75a3.27,3.27,0,0,0-.93,2.22,3.24,3.24,0,0,0,.93,2.13,3.07,3.07,0,0,0,2.16.9,2.9,2.9,0,0,0,2.13-.9,3.17,3.17,0,0,0,.93-2.13,3.27,3.27,0,0,0-.93-2.22,2.9,2.9,0,0,0-2.13-.9A3.07,3.07,0,0,0,662.49,906.33Z"/><path d="M680.19,893.34v21.87h-4.8V893.34Z"/><path d="M685.86,893.52a2.7,2.7,0,1,1-2.7,2.7A2.69,2.69,0,0,1,685.86,893.52Zm2.4,8.28v13.41h-4.8V901.8Z"/><path d="M701.67,914.91a7.12,7.12,0,0,1-3.33.75,7.41,7.41,0,0,1-5.28-2,7,7,0,0,1-2.07-5,7.3,7.3,0,0,1,2.16-5.19,7.73,7.73,0,0,1,5.4-2,6.88,6.88,0,0,1,3.12.75v4a4.28,4.28,0,0,0-2.49-.87,3.15,3.15,0,0,0-2.34.93,3.26,3.26,0,0,0-.93,2.31,3.44,3.44,0,0,0,.84,2.25,3.26,3.26,0,0,0,2.46,1,3.63,3.63,0,0,0,2.46-.9Z"/><path d="M714.78,901.8h4.8v13.41h-4.8v-1.47a5,5,0,0,1-4.17,1.92,6.42,6.42,0,0,1-4.83-2.13,6.76,6.76,0,0,1-1.92-4.92,7.42,7.42,0,0,1,2.07-5.37,6.9,6.9,0,0,1,4.83-1.89,5.31,5.31,0,0,1,4,1.74Zm-5,4.5a3.14,3.14,0,0,0-1,2.19,3.09,3.09,0,0,0,.93,2.19,3.37,3.37,0,0,0,2.16.9,3.08,3.08,0,0,0,2.16-.93,2.91,2.91,0,0,0,.9-2.16,3,3,0,0,0-.93-2.19,3,3,0,0,0-4.26,0Z"/><path d="M728.19,905.73v9.48h-4.8v-9.48h-1.53V901.8h1.53v-4.41h4.8v4.41h2.73v3.93Zm-4.62,11,4.5.48L725,922.71l-3-.36Z"/><path d="M735.12,893.52a2.7,2.7,0,1,1-2.7,2.7A2.69,2.69,0,0,1,735.12,893.52Zm2.4,8.28v13.41h-4.8V901.8Z"/><path d="M755,909.39H745a3.39,3.39,0,0,0,.84,2.25,2.7,2.7,0,0,0,2,.66,3.79,3.79,0,0,0,1.56-.36,2.23,2.23,0,0,0,.84-.9h4.59a6,6,0,0,1-1.62,2.76c-1,1-2.55,1.86-5.46,1.86a7.61,7.61,0,0,1-5.55-2,7,7,0,0,1-2-5.07,7.16,7.16,0,0,1,2-5.19,7.55,7.55,0,0,1,5.49-2,7.35,7.35,0,0,1,5.16,1.83,7.51,7.51,0,0,1,2.13,5.64Zm-4.41-2.76a3.22,3.22,0,0,0-.78-1.44,2.8,2.8,0,0,0-2-.72,2.58,2.58,0,0,0-2,.72,2.74,2.74,0,0,0-.72,1.44Z"/><rect x="496.85" y="870.75" width="112" height="69.85" rx="12" ry="12" style="fill:none;stroke:#eb6a38;stroke-miterlimit:10;stroke-width:5.236px"/><line x1="499.26" y1="894.84" x2="606.44" y2="894.84" style="fill:none;stroke:#eb6a38;stroke-miterlimit:10;stroke-width:5.236px"/><circle cx="577.54" cy="883.4" r="3.61" style="fill:#eb6a38"/><ellipse cx="586.76" cy="883.4" rx="3.42" ry="3.61" style="fill:#eb6a38"/><circle cx="595.6" cy="883.4" r="3.61" style="fill:#eb6a38"/><rect x="537.19" y="901" width="7.23" height="20.47" rx="3" ry="3" transform="translate(-485.94 649.3) rotate(-45)" style="fill:#eb6a38"/><rect x="530.57" y="917.26" width="20.47" height="7.23" rx="3" ry="3" transform="translate(-492.76 652.12) rotate(-45)" style="fill:#eb6a38"/><rect x="556.46" y="921.94" width="20.47" height="7.23" rx="3" ry="3" style="fill:#eb6a38"/><polygon points="564.44 839.01 564.05 769.9 574.02 769.84 552.73 748.79 531.68 770.08 541.64 770.03 542.03 839.14 564.44 839.01" style="fill:none;stroke:#eb6a38;stroke-miterlimit:10;stroke-width:7.18499994277954px"/><path d="M215.25,1067.2v11.85a4,4,0,0,0,1,3.09,3.69,3.69,0,0,0,4.86.09,4.38,4.38,0,0,0,1.17-3.63v-11.4h5.19v11.49c0,2.1-.09,4.29-2.25,6.48a8.64,8.64,0,0,1-6.6,2.49,8.93,8.93,0,0,1-6.63-2.4c-1.74-1.89-1.95-4.44-1.95-6.57V1067.2Z"/><path d="M236.55,1077.73v9.48h-4.8v-9.48h-1.53v-3.93h1.53v-4.41h4.8v4.41h2.73v3.93Z"/><path d="M243.48,1065.52a2.7,2.7,0,1,1-2.7,2.7A2.69,2.69,0,0,1,243.48,1065.52Zm2.4,8.28v13.41h-4.8V1073.8Z"/><path d="M254,1065.34v21.87h-4.8v-21.87Z"/><path d="M259.62,1065.52a2.7,2.7,0,1,1-2.7,2.7A2.69,2.69,0,0,1,259.62,1065.52Zm2.4,8.28v13.41h-4.8V1073.8Z"/><path d="M272.28,1083.28h5.61v3.93H264.24l6.33-9.48h-5.4v-3.93h13.38Z"/><path d="M291.18,1073.8H296v13.41h-4.8v-1.47a5,5,0,0,1-4.17,1.92,6.42,6.42,0,0,1-4.83-2.13,6.76,6.76,0,0,1-1.92-4.92,7.42,7.42,0,0,1,2.07-5.37,6.9,6.9,0,0,1,4.83-1.89,5.31,5.31,0,0,1,4,1.74Zm-5,4.5a3.14,3.14,0,0,0-1,2.19,3.09,3.09,0,0,0,.93,2.19,3.37,3.37,0,0,0,2.16.9,3.08,3.08,0,0,0,2.16-.93,2.91,2.91,0,0,0,.9-2.16,3,3,0,0,0-.93-2.19,3,3,0,0,0-4.26,0Z"/><path d="M304.59,1077.73v9.48h-4.8v-9.48h-1.53v-3.93h1.53v-4.41h4.8v4.41h2.73v3.93Z"/><path d="M322.62,1085.44a9.18,9.18,0,0,1-12,0,6.92,6.92,0,0,1,0-9.87,8.37,8.37,0,0,1,6-2.22,8.47,8.47,0,0,1,6,2.22,6.92,6.92,0,0,1,0,9.87Zm-8.13-7.14a3.06,3.06,0,0,0,2.16,5.22,3.05,3.05,0,0,0,2.13-.9,3,3,0,0,0,.93-2.13,3.26,3.26,0,0,0-.93-2.19,3.08,3.08,0,0,0-4.29,0Z"/><path d="M327.45,1073.8h4.8V1076a4.33,4.33,0,0,1,1.89-1.86,5.24,5.24,0,0,1,2.49-.54l1,.06v4.53a4.23,4.23,0,0,0-2.07-.48,3.14,3.14,0,0,0-2.19.72,4,4,0,0,0-1.08,3.06v5.73h-4.8Z"/></svg>