<svg id="Layer_1" data-name="Layer 1" xmlns="http://www.w3.org/2000/svg" viewBox="0 0 799 951"><title>Capitolul0</title><path d="M415.05,898.46c-.44.31-.89.62-1.34.91l-.62.41c-.59.36-1.19.71-1.81,1-.13.08-.27.14-.4.21a32.9,32.9,0,0,1-4.37,1.85l-.16,0c-.78.26-1.57.49-2.38.69h0c-.81.2-1.64.37-2.46.51h-.07c-.77.13-1.56.22-2.34.29l-.42,0q-1.17.09-2.34.09c-.79,0-1.59,0-2.37-.09l-.41,0c-.79-.07-1.58-.16-2.36-.29l-.11,0a31.11,31.11,0,0,1-4.86-1.21l-.15,0c-.79-.27-1.57-.56-2.33-.89h0c-.72-.31-1.43-.66-2.13-1l-.27-.14c-.64-.34-1.27-.71-1.88-1.1-.19-.11-.37-.23-.55-.35-.56-.37-1.13-.75-1.67-1.16l-.17-.13.12-.07,9.89-5.39a5.3,5.3,0,0,0,2.76-4.65v-4.5l-.29-.35a20.81,20.81,0,0,1-3.75-7.78l-.12-.49-.42-.28a2.08,2.08,0,0,1-1-1.74v-4.43a2,2,0,0,1,.69-1.53l.41-.37v-7.13a7.58,7.58,0,0,1,1.75-5.46c1.81-2.06,4.91-3.1,9.21-3.1s7.37,1,9.19,3.08a7.68,7.68,0,0,1,1.76,5.48v7.13l.41.37a2.06,2.06,0,0,1,.7,1.53v4.43a2.08,2.08,0,0,1-1.48,2l-.62.2-.2.61a23.31,23.31,0,0,1-3.12,6.3c-.33.46-.65.87-.92,1.18l-.31.36V888a5.26,5.26,0,0,0,2.92,4.73l10.59,5.3.2.1Z" style="fill:none;stroke:#636868;stroke-miterlimit:10;stroke-width:5.236px"/><rect x="191.81" y="660.53" width="112" height="69.85" rx="12" ry="12" style="fill:none;stroke:#eb6a38;stroke-miterlimit:10;stroke-width:5.236px"/><line x1="194.22" y1="684.62" x2="301.4" y2="684.62" style="fill:none;stroke:#eb6a38;stroke-miterlimit:10;stroke-width:5.236px"/><circle cx="272.5" cy="673.18" r="3.61" style="fill:#eb6a38"/><ellipse cx="281.73" cy="673.18" rx="3.42" ry="3.61" style="fill:#eb6a38"/><circle cx="290.56" cy="673.18" r="3.61" style="fill:#eb6a38"/><rect x="232.15" y="690.78" width="7.23" height="20.47" rx="3" ry="3" transform="translate(-426.64 372.03) rotate(-45)" style="fill:#eb6a38"/><rect x="225.53" y="707.04" width="20.47" height="7.23" rx="3" ry="3" transform="translate(-433.45 374.86) rotate(-45)" style="fill:#eb6a38"/><rect x="251.42" y="711.71" width="20.47" height="7.23" rx="3" ry="3" style="fill:#eb6a38"/><circle cx="396.26" cy="868.79" r="35.55" style="fill:none;stroke:#636868;stroke-miterlimit:10;stroke-width:5.236px"/><rect x="392" y="776" width="9" height="38" rx="4.5" ry="4.5" style="fill:#3a5c84"/><rect x="243" y="743" width="9" height="38" rx="4.5" ry="4.5" style="fill:#3a5c84"/><rect x="558" y="743" width="9" height="38" rx="4.5" ry="4.5" style="fill:#3a5c84"/><rect x="400" y="615" width="9" height="323" rx="4.5" ry="4.5" transform="translate(1181 372) rotate(90)" style="fill:#3a5c84"/><rect x="205.4" y="314.5" width="402.5" height="200" rx="12" ry="12" style="fill:none;stroke:#f4c240;stroke-miterlimit:10;stroke-width:4.92511370996627px"/><path d="M225.61,357.65v-20h5.19l9.57,12.24V337.64h5.19v20h-5.19l-9.57-12.24v12.24Z"/><path d="M254.11,344.24v7.5a2.57,2.57,0,0,0,.72,1.95,2.48,2.48,0,0,0,1.68.51,2.24,2.24,0,0,0,1.71-.57,2.49,2.49,0,0,0,.69-1.89v-7.5h4.8v8.37a4.6,4.6,0,0,1-1.29,3.6c-1.65,1.71-4,1.89-5.79,1.89-2,0-4.47-.21-6.06-1.92a4.82,4.82,0,0,1-1.26-3.57v-8.37Z"/><path d="M277.15,357.35a7.12,7.12,0,0,1-3.33.75,7.41,7.41,0,0,1-5.28-2,7,7,0,0,1-2.07-5,7.3,7.3,0,0,1,2.16-5.19,7.73,7.73,0,0,1,5.4-2,6.88,6.88,0,0,1,3.12.75v4a4.28,4.28,0,0,0-2.49-.87,3.15,3.15,0,0,0-2.34.93,3.26,3.26,0,0,0-.93,2.31,3.44,3.44,0,0,0,.84,2.25,3.26,3.26,0,0,0,2.46,1,3.63,3.63,0,0,0,2.46-.9Z"/><path d="M284.68,335.78v21.87h-4.8V335.78Z"/><path d="M302.17,351.83h-10a3.39,3.39,0,0,0,.84,2.25,2.7,2.7,0,0,0,2,.66,3.79,3.79,0,0,0,1.56-.36,2.23,2.23,0,0,0,.84-.9H302a6,6,0,0,1-1.62,2.76c-1,1-2.55,1.86-5.46,1.86a7.61,7.61,0,0,1-5.55-2,7,7,0,0,1-2-5.07,7.16,7.16,0,0,1,2-5.19,7.55,7.55,0,0,1,5.49-1.95,7.35,7.35,0,0,1,5.16,1.83,7.51,7.51,0,0,1,2.13,5.64Zm-4.41-2.76a3.22,3.22,0,0,0-.78-1.44,2.8,2.8,0,0,0-2-.72,2.58,2.58,0,0,0-1.95.72,2.74,2.74,0,0,0-.72,1.44Z"/><path d="M309.73,344.24v7.5a2.57,2.57,0,0,0,.72,1.95,2.48,2.48,0,0,0,1.68.51,2.24,2.24,0,0,0,1.71-.57,2.49,2.49,0,0,0,.69-1.89v-7.5h4.8v8.37a4.6,4.6,0,0,1-1.29,3.6c-1.65,1.71-4,1.89-5.79,1.89-2,0-4.47-.21-6.06-1.92a4.82,4.82,0,0,1-1.26-3.57v-8.37Z"/><path d="M333.79,363.29a19.8,19.8,0,0,1-2.94-6.72,25,25,0,0,1-.87-7,26.33,26.33,0,0,1,1.11-7.86,27.31,27.31,0,0,1,2.7-5.91l3.39,1.8A25.47,25.47,0,0,0,335,343a27.82,27.82,0,0,0-.84,6.39,31.72,31.72,0,0,0,.72,6.21,20.88,20.88,0,0,0,2.34,5.88Z"/><path d="M345,335.78v13.29l4.53-4.83h6.51l-6.33,6.18,6.84,7.23h-6.66L345,352.16v5.49h-4.8V335.78Z"/><path d="M371.89,351.83h-10a3.39,3.39,0,0,0,.84,2.25,2.7,2.7,0,0,0,2,.66,3.79,3.79,0,0,0,1.56-.36,2.23,2.23,0,0,0,.84-.9h4.59a6,6,0,0,1-1.62,2.76c-1,1-2.55,1.86-5.46,1.86a7.61,7.61,0,0,1-5.55-2,7,7,0,0,1-2-5.07,7.16,7.16,0,0,1,2-5.19,7.55,7.55,0,0,1,5.49-1.95,7.35,7.35,0,0,1,5.16,1.83,7.51,7.51,0,0,1,2.13,5.64Zm-4.41-2.76a3.22,3.22,0,0,0-.78-1.44,2.8,2.8,0,0,0-2-.72,2.58,2.58,0,0,0-2,.72,2.74,2.74,0,0,0-.72,1.44Z"/><path d="M374.65,344.24h4.8v2.19a4.33,4.33,0,0,1,1.89-1.86,5.24,5.24,0,0,1,2.49-.54l1,.06v4.53a4.23,4.23,0,0,0-2.07-.48,3.14,3.14,0,0,0-2.19.72,4,4,0,0,0-1.08,3.06v5.73h-4.8Z"/><path d="M386.92,344.24h4.8v1.68a5.06,5.06,0,0,1,4.26-2,5.42,5.42,0,0,1,4,1.44,4.62,4.62,0,0,1,1.26,3.75v8.52h-4.8v-6.78a3.85,3.85,0,0,0-.6-2.61,2,2,0,0,0-1.53-.57,2.63,2.63,0,0,0-1.77.63,3.08,3.08,0,0,0-.78,2.13v7.2h-4.8Z"/><path d="M418.69,351.83h-10a3.39,3.39,0,0,0,.84,2.25,2.7,2.7,0,0,0,2,.66,3.79,3.79,0,0,0,1.56-.36,2.23,2.23,0,0,0,.84-.9h4.59a6,6,0,0,1-1.62,2.76c-1,1-2.55,1.86-5.46,1.86a7.61,7.61,0,0,1-5.55-2,7,7,0,0,1-2-5.07,7.16,7.16,0,0,1,2-5.19,7.55,7.55,0,0,1,5.49-1.95,7.35,7.35,0,0,1,5.16,1.83,7.51,7.51,0,0,1,2.13,5.64Zm-4.41-2.76a3.22,3.22,0,0,0-.78-1.44,2.8,2.8,0,0,0-2-.72,2.58,2.58,0,0,0-1.95.72,2.74,2.74,0,0,0-.72,1.44Z"/><path d="M426.25,335.78v21.87h-4.8V335.78Z"/><path d="M429.28,361.49a20.88,20.88,0,0,0,2.34-5.88,31.72,31.72,0,0,0,.72-6.21,27.82,27.82,0,0,0-.84-6.39,25.47,25.47,0,0,0-2.22-5.43l3.39-1.8a27.31,27.31,0,0,1,2.7,5.91,27,27,0,0,1,1.11,7.89,24.9,24.9,0,0,1-.87,7,19.8,19.8,0,0,1-2.94,6.72Z"/><polygon points="417.89 285.79 417.5 216.68 427.47 216.62 406.18 195.57 385.13 216.86 395.09 216.8 395.48 285.92 417.89 285.79" style="fill:none;stroke:#f4c240;stroke-miterlimit:10;stroke-width:7.18450751097622px"/><polygon points="259.4 628.79 259.02 559.68 268.98 559.62 247.69 538.57 226.64 559.86 236.6 559.8 236.99 628.92 259.4 628.79" style="fill:none;stroke:#eb6a38;stroke-miterlimit:10;stroke-width:7.18499994277954px"/><path d="M168.12,110.32h8.75v-8.71H183V125h-6.09V115.5h-8.75V125h-6.06V101.61h6.06Z"/><path d="M199.44,109.31h5.61V125h-5.61v-1.71a5.84,5.84,0,0,1-4.86,2.24,7.49,7.49,0,0,1-5.64-2.49,7.9,7.9,0,0,1-2.24-5.74,8.64,8.64,0,0,1,2.42-6.26,8,8,0,0,1,5.63-2.21,6.2,6.2,0,0,1,4.69,2Zm-5.88,5.25a3.51,3.51,0,0,0,0,5.11,3.91,3.91,0,0,0,2.52,1,3.6,3.6,0,0,0,2.52-1.09,3.4,3.4,0,0,0,1.05-2.52,3.45,3.45,0,0,0-1.09-2.55,3.54,3.54,0,0,0-5,0Z"/><path d="M208.89,109.31h5.6v2.55a5.06,5.06,0,0,1,2.21-2.17,6.15,6.15,0,0,1,2.9-.63c.14,0,.39,0,1.12.07v5.29a4.93,4.93,0,0,0-2.41-.56,3.66,3.66,0,0,0-2.56.84,4.72,4.72,0,0,0-1.26,3.57V125h-5.6Z"/><path d="M240.92,125h-5.6v-1.71a5.75,5.75,0,0,1-4.73,2.24,7.5,7.5,0,0,1-5.49-2.17,8.89,8.89,0,0,1,0-12.43,8,8,0,0,1,5.53-2.1,6.22,6.22,0,0,1,4.66,2V99.44h5.6Zm-6.62-5.18a3.71,3.71,0,0,0,1.19-2.66,4.12,4.12,0,0,0-1.05-2.52,3.59,3.59,0,0,0-5,0,3.84,3.84,0,0,0-1.08,2.66,3.57,3.57,0,0,0,1.08,2.45,3.48,3.48,0,0,0,2.49,1A3.78,3.78,0,0,0,234.3,119.77Z"/><path d="M249.11,109.31l3.71,8.26,3.95-8.26h3.43l4,8.5,3.92-8.5h6.23L266.12,125h-3.78l-3.92-8.61L254.67,125h-3.78l-8-15.64Z"/><path d="M287.05,109.31h5.6V125h-5.6v-1.71a5.87,5.87,0,0,1-4.87,2.24,7.47,7.47,0,0,1-5.63-2.49,7.86,7.86,0,0,1-2.24-5.74,8.64,8.64,0,0,1,2.41-6.26,8.07,8.07,0,0,1,5.64-2.21,6.22,6.22,0,0,1,4.69,2Zm-5.88,5.25a3.52,3.52,0,0,0,0,5.11,4,4,0,0,0,2.52,1,3.6,3.6,0,0,0,2.52-1.09,3.4,3.4,0,0,0,1.05-2.52,3.47,3.47,0,0,0-1.08-2.55,3.54,3.54,0,0,0-5,0Z"/><path d="M296.5,109.31h5.6v2.55a5,5,0,0,1,2.2-2.17,6.19,6.19,0,0,1,2.91-.63c.14,0,.38,0,1.12.07v5.29a5,5,0,0,0-2.42-.56,3.63,3.63,0,0,0-2.55.84,4.72,4.72,0,0,0-1.26,3.57V125h-5.6Z"/><path d="M327.41,118.16H315.75a4,4,0,0,0,1,2.63,3.15,3.15,0,0,0,2.31.77,4.51,4.51,0,0,0,1.82-.42,2.64,2.64,0,0,0,1-1h5.36a7.09,7.09,0,0,1-1.9,3.22c-1.15,1.12-3,2.17-6.37,2.17a8.88,8.88,0,0,1-6.47-2.38,8.19,8.19,0,0,1-2.31-5.92,8.36,8.36,0,0,1,2.34-6.05,8.83,8.83,0,0,1,6.41-2.28,8.58,8.58,0,0,1,6,2.14,8.79,8.79,0,0,1,2.49,6.58Zm-5.15-3.22a3.78,3.78,0,0,0-.91-1.68,3.29,3.29,0,0,0-2.31-.84,3,3,0,0,0-2.28.84,3.27,3.27,0,0,0-.84,1.68Z"/><rect x="347.21" y="53.01" width="118.89" height="118.89" rx="12" ry="12" style="fill:none;stroke:#a2b969;stroke-miterlimit:10;stroke-width:7.41063881778717px"/><line x1="398.98" y1="53.01" x2="381.73" y2="97.12" style="fill:none;stroke:#a2b969;stroke-miterlimit:10;stroke-width:7.41063881778717px"/><circle cx="379.81" cy="102.87" r="9.59" style="fill:none;stroke:#a2b969;stroke-miterlimit:10;stroke-width:7.41063881778717px"/><circle cx="435.42" cy="95.2" r="9.59" style="fill:none;stroke:#a2b969;stroke-miterlimit:10;stroke-width:7.41063881778717px"/><circle cx="425.83" cy="135.47" r="9.59" style="fill:none;stroke:#a2b969;stroke-miterlimit:10;stroke-width:7.41063881778717px"/><line x1="466.1" y1="135.47" x2="431.58" y2="135.47" style="fill:none;stroke:#a2b969;stroke-miterlimit:10;stroke-width:7.41063881778717px"/><line x1="464.18" y1="68.35" x2="435.42" y2="68.35" style="fill:none;stroke:#a2b969;stroke-miterlimit:10;stroke-width:7.41063881778717px"/><line x1="435.42" y1="89.45" x2="435.42" y2="64.52" style="fill:none;stroke:#a2b969;stroke-miterlimit:10;stroke-width:7.41063881778717px"/><line x1="207" y1="514" x2="608" y2="314" style="fill:none;stroke:#f4c240;stroke-miterlimit:10;stroke-width:4.92511370996627px"/><path d="M319.08,577.54H313l-1.12,2.8h-4.58l6.4-16.67h4.72l6.28,16.67H320.1Zm-1.15-3.3-1.88-5.39-1.82,5.39Z"/><path d="M330.28,586.07h-4v-16.9h4v1.22a4.18,4.18,0,0,1,3.42-1.6,5.56,5.56,0,0,1,4,1.63,6.35,6.35,0,0,1-.1,8.75,5.39,5.39,0,0,1-3.83,1.55,4.75,4.75,0,0,1-3.47-1.45Zm.65-13.13a2.73,2.73,0,0,0-.77,1.85,2.69,2.69,0,0,0,.77,1.78,2.56,2.56,0,0,0,1.8.75,2.42,2.42,0,0,0,1.77-.75,2.64,2.64,0,0,0,.78-1.78,2.74,2.74,0,0,0-.78-1.85,2.42,2.42,0,0,0-1.77-.75A2.56,2.56,0,0,0,330.93,572.94Z"/><path d="M353.53,575.49h-8.32a2.82,2.82,0,0,0,.7,1.88,2.24,2.24,0,0,0,1.64.55,3.21,3.21,0,0,0,1.3-.3,1.83,1.83,0,0,0,.7-.75h3.83a5.14,5.14,0,0,1-1.35,2.3,6.09,6.09,0,0,1-4.55,1.55,6.33,6.33,0,0,1-4.62-1.7,5.85,5.85,0,0,1-1.65-4.23,6,6,0,0,1,1.67-4.32,6.31,6.31,0,0,1,4.58-1.62,6.1,6.1,0,0,1,4.29,1.52,6.24,6.24,0,0,1,1.78,4.7Zm-3.68-2.3a2.71,2.71,0,0,0-.65-1.2,2.33,2.33,0,0,0-1.65-.6,2.17,2.17,0,0,0-1.62.6,2.36,2.36,0,0,0-.6,1.2Z"/><path d="M359.83,562.12v18.22h-4V562.12Z"/><path d="M366.55,569.17v6.25a2.15,2.15,0,0,0,.6,1.62,2.08,2.08,0,0,0,1.4.43A1.87,1.87,0,0,0,370,577a2.06,2.06,0,0,0,.57-1.57v-6.25h4v7a3.82,3.82,0,0,1-1.07,3,6.38,6.38,0,0,1-4.83,1.58c-1.67,0-3.72-.18-5-1.6a4,4,0,0,1-1.05-3v-7Z"/><path d="M377.31,569.17h4V571a3.67,3.67,0,0,1,1.58-1.55A4.4,4.4,0,0,1,385,569l.8,0v3.78a3.52,3.52,0,0,0-1.72-.4,2.61,2.61,0,0,0-1.83.6,3.37,3.37,0,0,0-.9,2.55v4.77h-4Z"/><path d="M389.53,562.27a2.25,2.25,0,1,1-2.25,2.25A2.24,2.24,0,0,1,389.53,562.27Zm2,6.9v11.17h-4V569.17Z"/><path d="M412.73,580.34h-4v-1.22a4.11,4.11,0,0,1-3.38,1.6,5.36,5.36,0,0,1-3.92-1.55,6.35,6.35,0,0,1,0-8.88,5.77,5.77,0,0,1,3.95-1.5,4.45,4.45,0,0,1,3.33,1.45v-8.12h4Zm-4.73-3.7a2.64,2.64,0,0,0,.85-1.9,3,3,0,0,0-.75-1.8,2.56,2.56,0,0,0-3.6,0,2.74,2.74,0,0,0-.77,1.9,2.56,2.56,0,0,0,.77,1.75,2.48,2.48,0,0,0,1.78.75A2.68,2.68,0,0,0,408,576.64Z"/><path d="M427.33,575.49H419a2.87,2.87,0,0,0,.7,1.88,2.25,2.25,0,0,0,1.65.55,3.24,3.24,0,0,0,1.3-.3,1.83,1.83,0,0,0,.7-.75h3.83a5.14,5.14,0,0,1-1.35,2.3,6.09,6.09,0,0,1-4.55,1.55,6.37,6.37,0,0,1-4.63-1.7,6.32,6.32,0,0,1,0-8.55,6.27,6.27,0,0,1,4.57-1.62,6.11,6.11,0,0,1,4.3,1.52,6.24,6.24,0,0,1,1.78,4.7Zm-3.68-2.3A2.71,2.71,0,0,0,423,572a2.35,2.35,0,0,0-1.65-.6,2.16,2.16,0,0,0-1.62.6,2.21,2.21,0,0,0-.6,1.2Z"/><path d="M436.18,576.64a5.8,5.8,0,0,0,1.6.83,5.33,5.33,0,0,0,1.55.27,1.65,1.65,0,0,0,1-.3.61.61,0,0,0,.2-.52.57.57,0,0,0-.2-.5,2.43,2.43,0,0,0-1.05-.4l-1.05-.25a3.64,3.64,0,0,1-1.95-1,2.71,2.71,0,0,1-.72-1.92,4,4,0,0,1,1.05-2.73,5.67,5.67,0,0,1,4-1.35,9.27,9.27,0,0,1,3.57.73l-1.35,2.55a5.51,5.51,0,0,0-2.1-.55,1.67,1.67,0,0,0-.92.22.6.6,0,0,0-.35.55.65.65,0,0,0,.47.63c.38.15.7.15,1.33.32l.72.2a4.57,4.57,0,0,1,1.65.88,3.15,3.15,0,0,1,.85,2.22,3.75,3.75,0,0,1-1.12,2.78,5.81,5.81,0,0,1-4.13,1.4,8.3,8.3,0,0,1-4.5-1.3Z"/><path d="M448.55,562.27a2.25,2.25,0,1,1-2.25,2.25A2.24,2.24,0,0,1,448.55,562.27Zm2,6.9v11.17h-4V569.17Z"/><path d="M454,576.64a6,6,0,0,0,1.6.83,5.38,5.38,0,0,0,1.55.27,1.68,1.68,0,0,0,1-.3.64.64,0,0,0,.2-.52.6.6,0,0,0-.2-.5,2.43,2.43,0,0,0-1.05-.4l-1.05-.25a3.64,3.64,0,0,1-1.95-1,2.67,2.67,0,0,1-.73-1.92,4,4,0,0,1,1.05-2.73,5.67,5.67,0,0,1,4-1.35,9.22,9.22,0,0,1,3.57.73l-1.35,2.55a5.46,5.46,0,0,0-2.09-.55,1.71,1.71,0,0,0-.93.22.61.61,0,0,0-.35.55.66.66,0,0,0,.48.63c.37.15.7.15,1.32.32l.73.2a4.6,4.6,0,0,1,1.64.88,3.16,3.16,0,0,1,.86,2.22,3.76,3.76,0,0,1-1.13,2.78,5.81,5.81,0,0,1-4.12,1.4,8.28,8.28,0,0,1-4.5-1.3Z"/><path d="M468.8,572.44v7.9h-4v-7.9h-1.27v-3.27h1.27V565.5h4v3.67h2.28v3.27Z"/><path d="M484.42,575.49H476.1a2.87,2.87,0,0,0,.7,1.88,2.25,2.25,0,0,0,1.65.55,3.24,3.24,0,0,0,1.3-.3,1.9,1.9,0,0,0,.7-.75h3.82a5,5,0,0,1-1.35,2.3,6.06,6.06,0,0,1-4.55,1.55,6.36,6.36,0,0,1-4.62-1.7,6.32,6.32,0,0,1,0-8.55,6.27,6.27,0,0,1,4.57-1.62,6.12,6.12,0,0,1,4.3,1.52,6.27,6.27,0,0,1,1.77,4.7Zm-3.67-2.3a2.71,2.71,0,0,0-.65-1.2,2.36,2.36,0,0,0-1.65-.6,2.14,2.14,0,0,0-1.62.6,2.29,2.29,0,0,0-.61,1.2Z"/><path d="M486.73,569.17h4v1.35a4.29,4.29,0,0,1,3.35-1.55,4.61,4.61,0,0,1,2.15.5,3.46,3.46,0,0,1,1.55,1.6,3.9,3.9,0,0,1,1.53-1.55,4.51,4.51,0,0,1,2.32-.55,4.47,4.47,0,0,1,3.1,1,4.12,4.12,0,0,1,1,3.08v7.27h-4v-5.52c0-1.18-.12-2-.57-2.4a1.48,1.48,0,0,0-1.05-.38,1.65,1.65,0,0,0-1.18.45,2.88,2.88,0,0,0-.72,2.13v5.72h-4v-5.52a3.56,3.56,0,0,0-.53-2.4,1.53,1.53,0,0,0-1.2-.45,1.4,1.4,0,0,0-1.1.4,3.3,3.3,0,0,0-.7,2.45v5.52h-4Z"/><path d="M334.64,615a16.69,16.69,0,0,1-2.45-5.6,20.77,20.77,0,0,1-.72-5.85,22.09,22.09,0,0,1,.92-6.54,22.93,22.93,0,0,1,2.25-4.93l2.83,1.5a21,21,0,0,0-1.85,4.53,23.14,23.14,0,0,0-.7,5.32,26,26,0,0,0,.6,5.17,17.2,17.2,0,0,0,2,4.9Z"/><path d="M340.74,606.64a6,6,0,0,0,1.6.83,5.38,5.38,0,0,0,1.55.27,1.68,1.68,0,0,0,1-.3.64.64,0,0,0,.2-.52.6.6,0,0,0-.2-.5,2.43,2.43,0,0,0-1.05-.4l-1.05-.25a3.64,3.64,0,0,1-1.95-1,2.67,2.67,0,0,1-.73-1.92,4,4,0,0,1,1.05-2.73,5.67,5.67,0,0,1,4-1.35,9.33,9.33,0,0,1,3.58.73l-1.35,2.55a5.56,5.56,0,0,0-2.1-.55,1.71,1.71,0,0,0-.93.22.61.61,0,0,0-.35.55.66.66,0,0,0,.48.63c.37.15.7.15,1.32.32l.73.2a4.74,4.74,0,0,1,1.65.88,3.15,3.15,0,0,1,.85,2.22,3.76,3.76,0,0,1-1.13,2.78,5.81,5.81,0,0,1-4.12,1.4,8.28,8.28,0,0,1-4.5-1.3Z"/><path d="M355.14,608.82l-5.4-9.65h4.65l3,5.72,2.9-5.72h4.57l-9,16.9h-4.48Z"/><path d="M366,606.64a5.8,5.8,0,0,0,1.6.83,5.33,5.33,0,0,0,1.55.27,1.65,1.65,0,0,0,1-.3.61.61,0,0,0,.2-.52.57.57,0,0,0-.2-.5,2.43,2.43,0,0,0-1.05-.4l-1.05-.25a3.64,3.64,0,0,1-1.95-1,2.71,2.71,0,0,1-.72-1.92,4,4,0,0,1,1.05-2.73,5.67,5.67,0,0,1,4-1.35,9.27,9.27,0,0,1,3.57.73l-1.35,2.55a5.51,5.51,0,0,0-2.1-.55,1.67,1.67,0,0,0-.92.22.6.6,0,0,0-.35.55.65.65,0,0,0,.47.63c.38.15.7.15,1.33.32l.72.2a4.57,4.57,0,0,1,1.65.88,3.15,3.15,0,0,1,.85,2.22,3.75,3.75,0,0,1-1.12,2.78,5.81,5.81,0,0,1-4.13,1.4,8.3,8.3,0,0,1-4.5-1.3Z"/><path d="M380.82,602.44v7.9h-4v-7.9h-1.28v-3.27h1.28V595.5h4v3.67h2.27v3.27Z"/><path d="M396.44,605.49h-8.32a2.82,2.82,0,0,0,.7,1.88,2.24,2.24,0,0,0,1.64.55,3.21,3.21,0,0,0,1.3-.3,1.83,1.83,0,0,0,.7-.75h3.83a5.14,5.14,0,0,1-1.35,2.3,6.09,6.09,0,0,1-4.55,1.55,6.35,6.35,0,0,1-4.62-1.7,5.85,5.85,0,0,1-1.65-4.23,6,6,0,0,1,1.67-4.32,6.31,6.31,0,0,1,4.58-1.62,6.09,6.09,0,0,1,4.29,1.52,6.24,6.24,0,0,1,1.78,4.7Zm-3.68-2.3a2.71,2.71,0,0,0-.65-1.2,2.33,2.33,0,0,0-1.65-.6,2.17,2.17,0,0,0-1.62.6,2.36,2.36,0,0,0-.6,1.2Z"/><path d="M398.74,599.17h4v1.35a4.29,4.29,0,0,1,3.35-1.55,4.61,4.61,0,0,1,2.15.5,3.57,3.57,0,0,1,1.55,1.6,3.89,3.89,0,0,1,1.52-1.55,4.55,4.55,0,0,1,2.33-.55,4.5,4.5,0,0,1,3.1,1,4.12,4.12,0,0,1,1.05,3.08v7.27h-4v-5.52a3.3,3.3,0,0,0-.58-2.4,1.44,1.44,0,0,0-1-.38,1.63,1.63,0,0,0-1.17.45,2.85,2.85,0,0,0-.73,2.13v5.72h-4v-5.52a3.56,3.56,0,0,0-.52-2.4,1.53,1.53,0,0,0-1.2-.45,1.38,1.38,0,0,0-1.1.4,3.3,3.3,0,0,0-.7,2.45v5.52h-4Z"/><path d="M434.84,610.09a5.9,5.9,0,0,1-2.78.63,6.2,6.2,0,0,1-4.4-1.7,5.86,5.86,0,0,1-1.72-4.18,6.05,6.05,0,0,1,1.8-4.32,6.45,6.45,0,0,1,4.5-1.7,5.85,5.85,0,0,1,2.6.62v3.35a3.63,3.63,0,0,0-2.08-.72,2.62,2.62,0,0,0-1.95.77,2.73,2.73,0,0,0-.77,1.93,2.83,2.83,0,0,0,.7,1.87,2.7,2.7,0,0,0,2.05.85,3,3,0,0,0,2-.75Z"/><path d="M445.76,599.17h4v11.17h-4v-1.22a4.17,4.17,0,0,1-3.47,1.6,5.35,5.35,0,0,1-4-1.78,5.65,5.65,0,0,1-1.6-4.1,6.17,6.17,0,0,1,1.73-4.47,5.74,5.74,0,0,1,4-1.58,4.43,4.43,0,0,1,3.35,1.45Zm-4.2,3.75a2.5,2.5,0,0,0,0,3.65,2.79,2.79,0,0,0,1.8.75,2.57,2.57,0,0,0,1.8-.78,2.43,2.43,0,0,0,.75-1.8,2.46,2.46,0,0,0-.78-1.82,2.52,2.52,0,0,0-3.55,0Z"/><path d="M456.51,592.12v18.22h-4V592.12Z"/><path d="M463.24,592.12v18.22h-4V592.12Z"/><path d="M466.69,606.64a5.8,5.8,0,0,0,1.6.83,5.33,5.33,0,0,0,1.55.27,1.65,1.65,0,0,0,1-.3.61.61,0,0,0,.2-.52.57.57,0,0,0-.2-.5,2.43,2.43,0,0,0-1.05-.4l-1.05-.25a3.64,3.64,0,0,1-1.95-1,2.71,2.71,0,0,1-.72-1.92,4,4,0,0,1,1.05-2.73,5.67,5.67,0,0,1,4-1.35,9.27,9.27,0,0,1,3.57.73l-1.35,2.55a5.51,5.51,0,0,0-2.1-.55,1.67,1.67,0,0,0-.92.22.6.6,0,0,0-.35.55.65.65,0,0,0,.47.63c.38.15.7.15,1.33.32l.72.2a4.57,4.57,0,0,1,1.65.88,3.15,3.15,0,0,1,.85,2.22,3.75,3.75,0,0,1-1.12,2.78,5.81,5.81,0,0,1-4.13,1.4,8.3,8.3,0,0,1-4.5-1.3Z"/><path d="M476.86,613.54a17.2,17.2,0,0,0,1.95-4.9,26,26,0,0,0,.6-5.17,23.14,23.14,0,0,0-.7-5.32,21,21,0,0,0-1.85-4.53l2.83-1.5a22.93,22.93,0,0,1,2.25,4.93,22.39,22.39,0,0,1,.92,6.57,20.7,20.7,0,0,1-.72,5.82,16.69,16.69,0,0,1-2.45,5.6Z"/><path d="M53.23,681.63H46L44.63,685h-5.5l7.68-20h5.67L60,685H54.46Zm-1.38-4-2.25-6.48-2.19,6.48Z"/><path d="M66.67,691.86H61.88V671.58h4.79v1.47a5,5,0,0,1,4.11-1.92,6.67,6.67,0,0,1,4.77,2,7.61,7.61,0,0,1-.12,10.5,6.44,6.44,0,0,1-4.59,1.86,5.71,5.71,0,0,1-4.17-1.74Zm.78-15.75a3.27,3.27,0,0,0-.93,2.22,3.24,3.24,0,0,0,.93,2.13,3.07,3.07,0,0,0,2.16.9,2.9,2.9,0,0,0,2.13-.9,3.17,3.17,0,0,0,.93-2.13,3.27,3.27,0,0,0-.93-2.22,2.9,2.9,0,0,0-2.13-.9A3.07,3.07,0,0,0,67.45,676.11Z"/><path d="M85.15,663.12V685h-4.8V663.12Z"/><path d="M90.82,663.3a2.7,2.7,0,1,1-2.7,2.7A2.69,2.69,0,0,1,90.82,663.3Zm2.4,8.28V685h-4.8V671.58Z"/><path d="M106.63,684.69a7.12,7.12,0,0,1-3.33.75,7.41,7.41,0,0,1-5.28-2,7,7,0,0,1-2.06-5,7.29,7.29,0,0,1,2.15-5.19,7.75,7.75,0,0,1,5.4-2,6.88,6.88,0,0,1,3.12.75v4a4.28,4.28,0,0,0-2.49-.87,3.15,3.15,0,0,0-2.34.93,3.26,3.26,0,0,0-.93,2.31,3.44,3.44,0,0,0,.84,2.25,3.26,3.26,0,0,0,2.46,1,3.63,3.63,0,0,0,2.46-.9Z"/><path d="M119.74,671.58h4.8V685h-4.8v-1.47a5,5,0,0,1-4.17,1.92,6.42,6.42,0,0,1-4.83-2.13,6.76,6.76,0,0,1-1.92-4.92,7.42,7.42,0,0,1,2.07-5.37,6.9,6.9,0,0,1,4.83-1.89,5.31,5.31,0,0,1,4,1.74Zm-5,4.5a3.14,3.14,0,0,0-1,2.19,3.09,3.09,0,0,0,.93,2.19,3.37,3.37,0,0,0,2.16.9,3.08,3.08,0,0,0,2.16-.93,2.91,2.91,0,0,0,.9-2.16,3,3,0,0,0-.93-2.19,3,3,0,0,0-4.26,0Z"/><path d="M133.15,675.51V685h-4.8v-9.48h-1.53v-3.93h1.53v-4.41h4.8v4.41h2.73v3.93Zm-4.62,11,4.5.48L130,692.49l-3-.36Z"/><path d="M140.08,663.3a2.7,2.7,0,1,1-2.7,2.7A2.69,2.69,0,0,1,140.08,663.3Zm2.4,8.28V685h-4.8V671.58Z"/><path d="M160,679.17H150a3.39,3.39,0,0,0,.84,2.25,2.7,2.7,0,0,0,2,.66,3.79,3.79,0,0,0,1.56-.36,2.23,2.23,0,0,0,.84-.9h4.59a6,6,0,0,1-1.62,2.76c-1,1-2.55,1.86-5.46,1.86a7.61,7.61,0,0,1-5.55-2,7,7,0,0,1-2-5.07,7.16,7.16,0,0,1,2-5.19,7.55,7.55,0,0,1,5.49-1.95,7.35,7.35,0,0,1,5.16,1.83,7.51,7.51,0,0,1,2.13,5.64Zm-4.41-2.76a3.22,3.22,0,0,0-.78-1.44,2.8,2.8,0,0,0-2-.72,2.58,2.58,0,0,0-2,.72,2.74,2.74,0,0,0-.72,1.44Z"/><path d="M55.75,721H51v-1.47a4.92,4.92,0,0,1-4.05,1.92,6.44,6.44,0,0,1-4.71-1.86,7.63,7.63,0,0,1,0-10.65,6.86,6.86,0,0,1,4.74-1.8,5.31,5.31,0,0,1,4,1.74v-9.75h4.8Zm-5.67-4.44a3.22,3.22,0,0,0,1-2.28,3.51,3.51,0,0,0-.9-2.16,3.08,3.08,0,0,0-4.32,0,3.29,3.29,0,0,0-.93,2.28,3,3,0,0,0,.93,2.1,3,3,0,0,0,2.13.9A3.28,3.28,0,0,0,50.08,716.55Z"/><path d="M73.27,715.17h-10a3.39,3.39,0,0,0,.84,2.25,2.7,2.7,0,0,0,2,.66,3.79,3.79,0,0,0,1.56-.36,2.23,2.23,0,0,0,.84-.9h4.59a6,6,0,0,1-1.62,2.76c-1,1-2.55,1.86-5.46,1.86a7.61,7.61,0,0,1-5.55-2,7,7,0,0,1-2-5.07,7.16,7.16,0,0,1,2-5.19A7.55,7.55,0,0,1,66,707.19,7.35,7.35,0,0,1,71.14,709a7.51,7.51,0,0,1,2.13,5.64Zm-4.41-2.76a3.22,3.22,0,0,0-.78-1.44,2.8,2.8,0,0,0-2-.72,2.58,2.58,0,0,0-1.95.72,2.74,2.74,0,0,0-.72,1.44Z"/><path d="M83.89,716.55a6.87,6.87,0,0,0,1.92,1,6.25,6.25,0,0,0,1.86.33,2,2,0,0,0,1.23-.36.77.77,0,0,0,.24-.63.71.71,0,0,0-.24-.6,3,3,0,0,0-1.26-.48l-1.26-.3A4.31,4.31,0,0,1,84,714.33a3.24,3.24,0,0,1-.87-2.31,4.79,4.79,0,0,1,1.26-3.27,6.77,6.77,0,0,1,4.8-1.62,11.07,11.07,0,0,1,4.29.87l-1.62,3.06a6.64,6.64,0,0,0-2.52-.66,2,2,0,0,0-1.11.27.72.72,0,0,0-.42.66.78.78,0,0,0,.57.75c.45.18.84.18,1.59.39l.87.24a5.67,5.67,0,0,1,2,1,3.79,3.79,0,0,1,1,2.67,4.48,4.48,0,0,1-1.35,3.33,7,7,0,0,1-5,1.68,9.89,9.89,0,0,1-5.4-1.56Z"/><path d="M98.74,699.3A2.7,2.7,0,1,1,96,702,2.69,2.69,0,0,1,98.74,699.3Zm2.4,8.28V721h-4.8V707.58Z"/><path d="M105.28,716.55a6.87,6.87,0,0,0,1.92,1,6.25,6.25,0,0,0,1.86.33,2,2,0,0,0,1.23-.36.77.77,0,0,0,.24-.63.71.71,0,0,0-.24-.6,3,3,0,0,0-1.26-.48l-1.26-.3a4.31,4.31,0,0,1-2.34-1.17,3.24,3.24,0,0,1-.87-2.31,4.79,4.79,0,0,1,1.26-3.27,6.77,6.77,0,0,1,4.8-1.62,11.07,11.07,0,0,1,4.29.87l-1.62,3.06a6.64,6.64,0,0,0-2.52-.66,2,2,0,0,0-1.11.27.72.72,0,0,0-.42.66.78.78,0,0,0,.57.75c.45.18.84.18,1.59.39l.87.24a5.67,5.67,0,0,1,2,1,3.79,3.79,0,0,1,1,2.67,4.48,4.48,0,0,1-1.35,3.33,7,7,0,0,1-5,1.68,9.89,9.89,0,0,1-5.4-1.56Z"/><path d="M123,711.51V721h-4.8v-9.48h-1.53v-3.93h1.53v-4.41H123v4.41h2.73v3.93Z"/><path d="M141.79,715.17h-10a3.39,3.39,0,0,0,.84,2.25,2.7,2.7,0,0,0,2,.66,3.79,3.79,0,0,0,1.56-.36,2.23,2.23,0,0,0,.84-.9h4.59a6,6,0,0,1-1.62,2.76c-1,1-2.55,1.86-5.46,1.86a7.61,7.61,0,0,1-5.55-2,7,7,0,0,1-2-5.07,7.16,7.16,0,0,1,2-5.19,7.55,7.55,0,0,1,5.49-1.95,7.35,7.35,0,0,1,5.16,1.83,7.51,7.51,0,0,1,2.13,5.64Zm-4.41-2.76a3.22,3.22,0,0,0-.78-1.44,2.8,2.8,0,0,0-2-.72,2.58,2.58,0,0,0-2,.72,2.74,2.74,0,0,0-.72,1.44Z"/><path d="M144.55,707.58h4.8v1.62a5.15,5.15,0,0,1,4-1.86,5.46,5.46,0,0,1,2.58.6,4.19,4.19,0,0,1,1.86,1.92,4.71,4.71,0,0,1,1.83-1.86,5.44,5.44,0,0,1,2.79-.66,5.33,5.33,0,0,1,3.72,1.23,4.93,4.93,0,0,1,1.26,3.69V721h-4.8v-6.63c0-1.41-.15-2.37-.69-2.88a1.75,1.75,0,0,0-1.26-.45,1.94,1.94,0,0,0-1.41.54,3.43,3.43,0,0,0-.87,2.55V721h-4.8v-6.63a4.29,4.29,0,0,0-.63-2.88,1.86,1.86,0,0,0-1.44-.54,1.69,1.69,0,0,0-1.32.48,4,4,0,0,0-.84,2.94V721h-4.8Z"/><rect x="502.81" y="660.53" width="112" height="69.85" rx="12" ry="12" style="fill:none;stroke:#eb6a38;stroke-miterlimit:10;stroke-width:5.236px"/><line x1="505.22" y1="684.62" x2="612.4" y2="684.62" style="fill:none;stroke:#eb6a38;stroke-miterlimit:10;stroke-width:5.236px"/><circle cx="583.5" cy="673.18" r="3.61" style="fill:#eb6a38"/><ellipse cx="592.73" cy="673.18" rx="3.42" ry="3.61" style="fill:#eb6a38"/><circle cx="601.56" cy="673.18" r="3.61" style="fill:#eb6a38"/><rect x="543.15" y="690.78" width="7.23" height="20.47" rx="3" ry="3" transform="translate(-335.55 591.94) rotate(-45)" style="fill:#eb6a38"/><rect x="536.53" y="707.04" width="20.47" height="7.23" rx="3" ry="3" transform="translate(-342.36 594.77) rotate(-45)" style="fill:#eb6a38"/><rect x="562.42" y="711.71" width="20.47" height="7.23" rx="3" ry="3" style="fill:#eb6a38"/><polygon points="570.4 628.79 570.02 559.68 579.98 559.62 558.69 538.57 537.64 559.86 547.6 559.8 547.99 628.92 570.4 628.79" style="fill:none;stroke:#eb6a38;stroke-miterlimit:10;stroke-width:7.18499994277954px"/><path d="M657.23,681.63H650L648.63,685h-5.5l7.68-20h5.67L664,685h-5.55Zm-1.38-4-2.25-6.48-2.19,6.48Z"/><path d="M670.67,691.86h-4.79V671.58h4.79v1.47a5,5,0,0,1,4.11-1.92,6.67,6.67,0,0,1,4.77,2,7.61,7.61,0,0,1-.12,10.5,6.44,6.44,0,0,1-4.59,1.86,5.71,5.71,0,0,1-4.17-1.74Zm.78-15.75a3.27,3.27,0,0,0-.93,2.22,3.24,3.24,0,0,0,.93,2.13,3.07,3.07,0,0,0,2.16.9,2.9,2.9,0,0,0,2.13-.9,3.17,3.17,0,0,0,.93-2.13,3.27,3.27,0,0,0-.93-2.22,2.9,2.9,0,0,0-2.13-.9A3.07,3.07,0,0,0,671.45,676.11Z"/><path d="M689.15,663.12V685h-4.8V663.12Z"/><path d="M694.82,663.3a2.7,2.7,0,1,1-2.7,2.7A2.69,2.69,0,0,1,694.82,663.3Zm2.4,8.28V685h-4.8V671.58Z"/><path d="M710.63,684.69a7.12,7.12,0,0,1-3.33.75,7.41,7.41,0,0,1-5.28-2,7,7,0,0,1-2.06-5,7.29,7.29,0,0,1,2.15-5.19,7.75,7.75,0,0,1,5.4-2,6.88,6.88,0,0,1,3.12.75v4a4.28,4.28,0,0,0-2.49-.87,3.15,3.15,0,0,0-2.34.93,3.26,3.26,0,0,0-.93,2.31,3.44,3.44,0,0,0,.84,2.25,3.26,3.26,0,0,0,2.46,1,3.63,3.63,0,0,0,2.46-.9Z"/><path d="M723.74,671.58h4.8V685h-4.8v-1.47a5,5,0,0,1-4.17,1.92,6.42,6.42,0,0,1-4.83-2.13,6.76,6.76,0,0,1-1.92-4.92,7.42,7.42,0,0,1,2.07-5.37,6.9,6.9,0,0,1,4.83-1.89,5.31,5.31,0,0,1,4,1.74Zm-5,4.5a3.14,3.14,0,0,0-1,2.19,3.09,3.09,0,0,0,.93,2.19,3.37,3.37,0,0,0,2.16.9,3.08,3.08,0,0,0,2.16-.93,2.91,2.91,0,0,0,.9-2.16,3,3,0,0,0-.93-2.19,3,3,0,0,0-4.26,0Z"/><path d="M737.15,675.51V685h-4.8v-9.48h-1.53v-3.93h1.53v-4.41h4.8v4.41h2.73v3.93Zm-4.62,11,4.5.48L734,692.49l-3-.36Z"/><path d="M744.08,663.3a2.7,2.7,0,1,1-2.7,2.7A2.69,2.69,0,0,1,744.08,663.3Zm2.4,8.28V685h-4.8V671.58Z"/><path d="M764,679.17H754a3.39,3.39,0,0,0,.84,2.25,2.7,2.7,0,0,0,2,.66,3.79,3.79,0,0,0,1.56-.36,2.23,2.23,0,0,0,.84-.9h4.59a6,6,0,0,1-1.62,2.76c-1,1-2.55,1.86-5.46,1.86a7.61,7.61,0,0,1-5.55-2,7,7,0,0,1-2-5.07,7.16,7.16,0,0,1,2-5.19,7.55,7.55,0,0,1,5.49-1.95,7.35,7.35,0,0,1,5.16,1.83,7.51,7.51,0,0,1,2.13,5.64Zm-4.41-2.76a3.22,3.22,0,0,0-.78-1.44,2.8,2.8,0,0,0-2-.72,2.58,2.58,0,0,0-1.95.72,2.74,2.74,0,0,0-.72,1.44Z"/><path d="M659.75,721H655v-1.47a4.92,4.92,0,0,1-4.05,1.92,6.44,6.44,0,0,1-4.71-1.86,7.63,7.63,0,0,1,0-10.65,6.86,6.86,0,0,1,4.74-1.8,5.31,5.31,0,0,1,4,1.74v-9.75h4.8Zm-5.67-4.44a3.22,3.22,0,0,0,1-2.28,3.51,3.51,0,0,0-.9-2.16,3.08,3.08,0,0,0-4.32,0,3.29,3.29,0,0,0-.93,2.28,3,3,0,0,0,.93,2.1,3,3,0,0,0,2.13.9A3.28,3.28,0,0,0,654.08,716.55Z"/><path d="M677.27,715.17h-10a3.39,3.39,0,0,0,.84,2.25,2.7,2.7,0,0,0,2,.66,3.79,3.79,0,0,0,1.56-.36,2.23,2.23,0,0,0,.84-.9h4.59a6,6,0,0,1-1.62,2.76c-1,1-2.55,1.86-5.46,1.86a7.61,7.61,0,0,1-5.55-2,7,7,0,0,1-2-5.07,7.16,7.16,0,0,1,2-5.19,7.55,7.55,0,0,1,5.49-1.95,7.35,7.35,0,0,1,5.16,1.83,7.51,7.51,0,0,1,2.13,5.64Zm-4.41-2.76a3.22,3.22,0,0,0-.78-1.44,2.8,2.8,0,0,0-2-.72,2.58,2.58,0,0,0-2,.72,2.74,2.74,0,0,0-.72,1.44Z"/><path d="M687.89,716.55a6.87,6.87,0,0,0,1.92,1,6.25,6.25,0,0,0,1.86.33,2,2,0,0,0,1.23-.36.77.77,0,0,0,.24-.63.71.71,0,0,0-.24-.6,3,3,0,0,0-1.26-.48l-1.26-.3a4.31,4.31,0,0,1-2.34-1.17,3.24,3.24,0,0,1-.87-2.31,4.79,4.79,0,0,1,1.26-3.27,6.77,6.77,0,0,1,4.8-1.62,11.07,11.07,0,0,1,4.29.87l-1.62,3.06a6.64,6.64,0,0,0-2.52-.66,2,2,0,0,0-1.11.27.72.72,0,0,0-.42.66.78.78,0,0,0,.57.75c.45.18.84.18,1.59.39l.87.24a5.67,5.67,0,0,1,2,1,3.79,3.79,0,0,1,1,2.67,4.48,4.48,0,0,1-1.35,3.33,7,7,0,0,1-4.95,1.68,9.89,9.89,0,0,1-5.4-1.56Z"/><path d="M702.74,699.3A2.7,2.7,0,1,1,700,702,2.69,2.69,0,0,1,702.74,699.3Zm2.4,8.28V721h-4.8V707.58Z"/><path d="M709.28,716.55a6.87,6.87,0,0,0,1.92,1,6.25,6.25,0,0,0,1.86.33,2,2,0,0,0,1.23-.36.77.77,0,0,0,.24-.63.71.71,0,0,0-.24-.6,3,3,0,0,0-1.26-.48l-1.26-.3a4.31,4.31,0,0,1-2.34-1.17,3.24,3.24,0,0,1-.87-2.31,4.79,4.79,0,0,1,1.26-3.27,6.77,6.77,0,0,1,4.8-1.62,11.07,11.07,0,0,1,4.29.87l-1.62,3.06a6.64,6.64,0,0,0-2.52-.66,2,2,0,0,0-1.11.27.72.72,0,0,0-.42.66.78.78,0,0,0,.57.75c.45.18.84.18,1.59.39l.87.24a5.67,5.67,0,0,1,2,1,3.79,3.79,0,0,1,1,2.67,4.48,4.48,0,0,1-1.35,3.33,7,7,0,0,1-4.95,1.68,9.89,9.89,0,0,1-5.4-1.56Z"/><path d="M727,711.51V721h-4.8v-9.48h-1.53v-3.93h1.53v-4.41H727v4.41h2.73v3.93Z"/><path d="M745.79,715.17h-10a3.39,3.39,0,0,0,.84,2.25,2.7,2.7,0,0,0,2,.66,3.79,3.79,0,0,0,1.56-.36,2.23,2.23,0,0,0,.84-.9h4.59a6,6,0,0,1-1.62,2.76c-1,1-2.55,1.86-5.46,1.86a7.61,7.61,0,0,1-5.55-2,7,7,0,0,1-2-5.07,7.16,7.16,0,0,1,2-5.19,7.55,7.55,0,0,1,5.49-1.95,7.35,7.35,0,0,1,5.16,1.83,7.51,7.51,0,0,1,2.13,5.64Zm-4.41-2.76a3.22,3.22,0,0,0-.78-1.44,2.8,2.8,0,0,0-2-.72,2.58,2.58,0,0,0-2,.72,2.74,2.74,0,0,0-.72,1.44Z"/><path d="M748.55,707.58h4.8v1.62a5.15,5.15,0,0,1,4-1.86,5.46,5.46,0,0,1,2.58.6,4.19,4.19,0,0,1,1.86,1.92,4.71,4.71,0,0,1,1.83-1.86,5.44,5.44,0,0,1,2.79-.66,5.33,5.33,0,0,1,3.72,1.23,4.93,4.93,0,0,1,1.26,3.69V721h-4.8v-6.63c0-1.41-.15-2.37-.69-2.88a1.75,1.75,0,0,0-1.26-.45,1.94,1.94,0,0,0-1.41.54,3.43,3.43,0,0,0-.87,2.55V721h-4.8v-6.63a4.29,4.29,0,0,0-.63-2.88,1.86,1.86,0,0,0-1.44-.54,1.69,1.69,0,0,0-1.32.48,4,4,0,0,0-.84,2.94V721h-4.8Z"/><path d="M222.21,859v11.85a4,4,0,0,0,1,3.09,3.69,3.69,0,0,0,4.86.09,4.38,4.38,0,0,0,1.17-3.63V859h5.19v11.49c0,2.1-.09,4.29-2.25,6.48a8.64,8.64,0,0,1-6.6,2.49A9,9,0,0,1,219,877c-1.74-1.89-1.95-4.44-1.95-6.57V859Z"/><path d="M243.51,869.51V879h-4.8v-9.48h-1.53v-3.93h1.53v-4.41h4.8v4.41h2.73v3.93Z"/><path d="M250.44,857.3a2.7,2.7,0,1,1-2.7,2.7A2.69,2.69,0,0,1,250.44,857.3Zm2.4,8.28V879H248V865.58Z"/><path d="M260.92,857.12V879h-4.8V857.12Z"/><path d="M266.58,857.3a2.7,2.7,0,1,1-2.7,2.7A2.7,2.7,0,0,1,266.58,857.3Zm2.41,8.28V879h-4.8V865.58Z"/><path d="M279.25,875.06h5.6V879H271.21l6.33-9.48h-5.4v-3.93h13.37Z"/><path d="M298.14,865.58h4.8V879h-4.8v-1.47a5,5,0,0,1-4.17,1.92,6.4,6.4,0,0,1-4.82-2.13,6.76,6.76,0,0,1-1.92-4.92,7.42,7.42,0,0,1,2.06-5.37,7,7,0,0,1,4.84-1.89,5.26,5.26,0,0,1,4,1.74Zm-5,4.5a3.18,3.18,0,0,0-1,2.19,3.06,3.06,0,0,0,.94,2.19,3.32,3.32,0,0,0,2.15.9,3.08,3.08,0,0,0,2.16-.93,2.91,2.91,0,0,0,.9-2.16,3,3,0,0,0-.92-2.19,3.05,3.05,0,0,0-4.27,0Z"/><path d="M311.55,869.51V879h-4.8v-9.48h-1.53v-3.93h1.53v-4.41h4.8v4.41h2.73v3.93Z"/><path d="M329.58,877.22a9.18,9.18,0,0,1-12,0,6.92,6.92,0,0,1,0-9.87,8.37,8.37,0,0,1,6-2.22,8.47,8.47,0,0,1,6,2.22,6.92,6.92,0,0,1,0,9.87Zm-8.13-7.14a3.06,3.06,0,0,0,2.16,5.22,3.05,3.05,0,0,0,2.13-.9,3,3,0,0,0,.93-2.13,3.26,3.26,0,0,0-.93-2.19,3.08,3.08,0,0,0-4.29,0Z"/><path d="M334.42,865.58h4.79v2.19a4.33,4.33,0,0,1,1.89-1.86,5.24,5.24,0,0,1,2.49-.54l1,.06V870a4.23,4.23,0,0,0-2.07-.48,3.14,3.14,0,0,0-2.19.72,4,4,0,0,0-1.08,3.06V879h-4.79Z"/><path d="M337.75,481.87a7,7,0,0,0,4.59,2,2.63,2.63,0,0,0,2-.69,1.79,1.79,0,0,0,.51-1.26,1.56,1.56,0,0,0-.57-1.2,7.21,7.21,0,0,0-2.58-1.05l-1.35-.42a6.54,6.54,0,0,1-2.88-1.62,5,5,0,0,1-1.14-3.54,6.54,6.54,0,0,1,1.83-4.83,7.05,7.05,0,0,1,5.13-1.89,14.06,14.06,0,0,1,6.18,1.62l-2.07,4.05a5.28,5.28,0,0,0-3.42-1.35,2.49,2.49,0,0,0-1.71.6,1.48,1.48,0,0,0-.51,1.08,1.34,1.34,0,0,0,.27.9,3.28,3.28,0,0,0,1.74.9l1.59.48a7.64,7.64,0,0,1,3.63,2,4.72,4.72,0,0,1,1.29,3.57,6.78,6.78,0,0,1-1.89,5,7.76,7.76,0,0,1-5.91,2,10.7,10.7,0,0,1-3.93-.66,14,14,0,0,1-3-1.59Z"/><path d="M355.51,466.18a2.7,2.7,0,1,1-2.7,2.7A2.69,2.69,0,0,1,355.51,466.18Zm2.4,8.28v13.41h-4.8V474.46Z"/><path d="M362.05,483.43a6.87,6.87,0,0,0,1.92,1,6.25,6.25,0,0,0,1.86.33,2,2,0,0,0,1.23-.36.77.77,0,0,0,.24-.63.71.71,0,0,0-.24-.6,3,3,0,0,0-1.26-.48l-1.26-.3a4.31,4.31,0,0,1-2.34-1.17,3.24,3.24,0,0,1-.87-2.31,4.79,4.79,0,0,1,1.26-3.27,6.77,6.77,0,0,1,4.8-1.62,11.07,11.07,0,0,1,4.29.87l-1.62,3.06a6.64,6.64,0,0,0-2.52-.66,2,2,0,0,0-1.11.27.72.72,0,0,0-.42.66.78.78,0,0,0,.57.75c.45.18.84.18,1.59.39l.87.24a5.67,5.67,0,0,1,2,1.05,3.79,3.79,0,0,1,1,2.67,4.48,4.48,0,0,1-1.35,3.33,7,7,0,0,1-4.95,1.68,9.89,9.89,0,0,1-5.4-1.56Z"/><path d="M379.81,478.39v9.48H375v-9.48h-1.53v-3.93H375v-4.41h4.8v4.41h2.73v3.93Z"/><path d="M398.56,482.05h-10a3.39,3.39,0,0,0,.84,2.25,2.7,2.7,0,0,0,2,.66,3.79,3.79,0,0,0,1.56-.36,2.23,2.23,0,0,0,.84-.9h4.59a6,6,0,0,1-1.62,2.76c-1,1-2.55,1.86-5.46,1.86a7.61,7.61,0,0,1-5.55-2,7,7,0,0,1-2-5.07,7.16,7.16,0,0,1,2-5.19,7.55,7.55,0,0,1,5.49-1.95,7.35,7.35,0,0,1,5.16,1.83,7.51,7.51,0,0,1,2.13,5.64Zm-4.41-2.76a3.22,3.22,0,0,0-.78-1.44,2.8,2.8,0,0,0-2-.72,2.58,2.58,0,0,0-1.95.72,2.74,2.74,0,0,0-.72,1.44Z"/><path d="M401.32,474.46h4.8v1.62a5.15,5.15,0,0,1,4-1.86,5.46,5.46,0,0,1,2.58.6,4.19,4.19,0,0,1,1.86,1.92,4.71,4.71,0,0,1,1.83-1.86,5.44,5.44,0,0,1,2.79-.66,5.33,5.33,0,0,1,3.72,1.23,4.93,4.93,0,0,1,1.26,3.69v8.73h-4.8v-6.63c0-1.41-.15-2.37-.69-2.88a1.75,1.75,0,0,0-1.26-.45,1.94,1.94,0,0,0-1.41.54,3.43,3.43,0,0,0-.87,2.55v6.87h-4.8v-6.63a4.29,4.29,0,0,0-.63-2.88,1.86,1.86,0,0,0-1.44-.54,1.69,1.69,0,0,0-1.32.48,4,4,0,0,0-.84,2.94v6.63h-4.8Z"/><path d="M449.68,487.87h-4.8V486.4a4.92,4.92,0,0,1-4.05,1.92,6.42,6.42,0,0,1-4.71-1.86,7.4,7.4,0,0,1-2.16-5.34,7.31,7.31,0,0,1,2.19-5.31,6.86,6.86,0,0,1,4.74-1.8,5.31,5.31,0,0,1,4,1.74V466h4.8ZM444,483.43a3.22,3.22,0,0,0,1-2.28,3.51,3.51,0,0,0-.9-2.16,3.08,3.08,0,0,0-4.32,0,3.29,3.29,0,0,0-.93,2.28,3,3,0,0,0,.93,2.1,3,3,0,0,0,2.13.9A3.28,3.28,0,0,0,444,483.43Z"/><path d="M467.2,482.05h-10a3.39,3.39,0,0,0,.84,2.25,2.7,2.7,0,0,0,2,.66,3.79,3.79,0,0,0,1.56-.36,2.23,2.23,0,0,0,.84-.9H467a6,6,0,0,1-1.62,2.76c-1,1-2.55,1.86-5.46,1.86a7.61,7.61,0,0,1-5.55-2,7,7,0,0,1-2-5.07,7.16,7.16,0,0,1,2-5.19,7.55,7.55,0,0,1,5.49-1.95,7.35,7.35,0,0,1,5.16,1.83,7.51,7.51,0,0,1,2.13,5.64Zm-4.41-2.76a3.22,3.22,0,0,0-.78-1.44,2.8,2.8,0,0,0-2-.72,2.58,2.58,0,0,0-1.95.72,2.74,2.74,0,0,0-.72,1.44Z"/><path d="M490.45,486.1a9.18,9.18,0,0,1-12,0,6.92,6.92,0,0,1,0-9.87,8.37,8.37,0,0,1,6-2.22,8.47,8.47,0,0,1,6,2.22,6.92,6.92,0,0,1,0,9.87ZM482.32,479a3.06,3.06,0,0,0,2.16,5.22,3.05,3.05,0,0,0,2.13-.9,3,3,0,0,0,.93-2.13,3.26,3.26,0,0,0-.93-2.19,3.08,3.08,0,0,0-4.29,0Z"/><path d="M500.08,494.74h-4.8V474.46h4.8v1.47a5,5,0,0,1,4.11-1.92A6.67,6.67,0,0,1,509,476a7.61,7.61,0,0,1-.12,10.5,6.44,6.44,0,0,1-4.59,1.86,5.71,5.71,0,0,1-4.17-1.74Zm.78-15.75a3.27,3.27,0,0,0-.93,2.22,3.24,3.24,0,0,0,.93,2.13,3.07,3.07,0,0,0,2.16.9,2.9,2.9,0,0,0,2.13-.9,3.17,3.17,0,0,0,.93-2.13,3.27,3.27,0,0,0-.93-2.22,2.9,2.9,0,0,0-2.13-.9A3.07,3.07,0,0,0,500.86,479Z"/><path d="M528,482.05H518a3.39,3.39,0,0,0,.84,2.25,2.7,2.7,0,0,0,2,.66,3.79,3.79,0,0,0,1.56-.36,2.23,2.23,0,0,0,.84-.9h4.59a6,6,0,0,1-1.62,2.76c-1,1-2.55,1.86-5.46,1.86a7.61,7.61,0,0,1-5.55-2,7,7,0,0,1-2-5.07,7.16,7.16,0,0,1,2-5.19,7.55,7.55,0,0,1,5.49-1.95,7.35,7.35,0,0,1,5.16,1.83,7.51,7.51,0,0,1,2.13,5.64Zm-4.41-2.76a3.22,3.22,0,0,0-.78-1.44,2.8,2.8,0,0,0-2-.72,2.58,2.58,0,0,0-1.95.72,2.74,2.74,0,0,0-.72,1.44Z"/><path d="M530.74,474.46h4.8v2.19a4.33,4.33,0,0,1,1.89-1.86,5.24,5.24,0,0,1,2.49-.54l1,.06v4.53a4.23,4.23,0,0,0-2.07-.48,3.14,3.14,0,0,0-2.19.72,4,4,0,0,0-1.08,3.06v5.73h-4.8Z"/><path d="M553.39,474.46h4.8v13.41h-4.8V486.4a5,5,0,0,1-4.17,1.92,6.42,6.42,0,0,1-4.83-2.13,6.76,6.76,0,0,1-1.92-4.92,7.42,7.42,0,0,1,2.07-5.37,6.9,6.9,0,0,1,4.83-1.89,5.31,5.31,0,0,1,4,1.74Zm-5,4.5a3.14,3.14,0,0,0-1,2.19,3.09,3.09,0,0,0,.93,2.19,3.37,3.37,0,0,0,2.16.9,3.08,3.08,0,0,0,2.16-.93,2.91,2.91,0,0,0,.9-2.16,3,3,0,0,0-.93-2.19,3,3,0,0,0-4.26,0Z"/><path d="M561.49,474.46h4.8v2.19a4.33,4.33,0,0,1,1.89-1.86,5.24,5.24,0,0,1,2.49-.54l1,.06v4.53a4.23,4.23,0,0,0-2.07-.48,3.14,3.14,0,0,0-2.19.72,4,4,0,0,0-1.08,3.06v5.73h-4.8Z"/><path d="M588,482.05H578a3.39,3.39,0,0,0,.84,2.25,2.7,2.7,0,0,0,2,.66,3.79,3.79,0,0,0,1.56-.36,2.23,2.23,0,0,0,.84-.9h4.59a6,6,0,0,1-1.62,2.76c-1,1-2.55,1.86-5.46,1.86a7.61,7.61,0,0,1-5.55-2,7,7,0,0,1-2-5.07,7.16,7.16,0,0,1,2-5.19,7.55,7.55,0,0,1,5.49-1.95,7.35,7.35,0,0,1,5.16,1.83,7.51,7.51,0,0,1,2.13,5.64Zm-4.41-2.76a3.22,3.22,0,0,0-.78-1.44,2.8,2.8,0,0,0-2-.72,2.58,2.58,0,0,0-1.95.72,2.74,2.74,0,0,0-.72,1.44Z"/></svg>