<?xml version="1.0" encoding="UTF-8" standalone="no"?>
<!-- Created with Inkscape (http://www.inkscape.org/) -->

<svg
   xmlns:dc="http://purl.org/dc/elements/1.1/"
   xmlns:cc="http://creativecommons.org/ns#"
   xmlns:rdf="http://www.w3.org/1999/02/22-rdf-syntax-ns#"
   xmlns:svg="http://www.w3.org/2000/svg"
   xmlns="http://www.w3.org/2000/svg"
   xmlns:sodipodi="http://sodipodi.sourceforge.net/DTD/sodipodi-0.dtd"
   xmlns:inkscape="http://www.inkscape.org/namespaces/inkscape"
   width="112.92722mm"
   height="137.42239mm"
   viewBox="0 0 112.92722 137.42239"
   version="1.1"
   id="svg11454"
   inkscape:version="0.92.3 (2405546, 2018-03-11)"
   sodipodi:docname="access-permissions.svg">
  <defs
     id="defs11448">
    <marker
       inkscape:stockid="Arrow1Send"
       orient="auto"
       refY="0"
       refX="0"
       id="marker12182"
       style="overflow:visible"
       inkscape:isstock="true">
      <path
         id="path12180"
         d="M 0,0 5,-5 -12.5,0 5,5 Z"
         style="fill:#ffb62b;fill-opacity:1;fill-rule:evenodd;stroke:#ffb62b;stroke-width:1.00000003pt;stroke-opacity:1"
         transform="matrix(-0.2,0,0,-0.2,-1.2,0)"
         inkscape:connector-curvature="0" />
    </marker>
    <marker
       inkscape:stockid="Arrow1Send"
       orient="auto"
       refY="0"
       refX="0"
       id="Arrow1Send"
       style="overflow:visible"
       inkscape:isstock="true">
      <path
         id="path9837"
         d="M 0,0 5,-5 -12.5,0 5,5 Z"
         style="fill:#4ce118;fill-opacity:1;fill-rule:evenodd;stroke:#4ce118;stroke-width:1.00000003pt;stroke-opacity:1"
         transform="matrix(-0.2,0,0,-0.2,-1.2,0)"
         inkscape:connector-curvature="0" />
    </marker>
    <marker
       inkscape:stockid="Arrow1Send"
       orient="auto"
       refY="0"
       refX="0"
       id="marker12182-7"
       style="overflow:visible"
       inkscape:isstock="true">
      <path
         inkscape:connector-curvature="0"
         id="path12180-7"
         d="M 0,0 5,-5 -12.5,0 5,5 Z"
         style="fill:#ffb62b;fill-opacity:1;fill-rule:evenodd;stroke:#ffb62b;stroke-width:1.00000003pt;stroke-opacity:1"
         transform="matrix(-0.2,0,0,-0.2,-1.2,0)" />
    </marker>
    <marker
       inkscape:stockid="Arrow1Send"
       orient="auto"
       refY="0"
       refX="0"
       id="marker12182-7-5"
       style="overflow:visible"
       inkscape:isstock="true">
      <path
         inkscape:connector-curvature="0"
         id="path12180-7-0"
         d="M 0,0 5,-5 -12.5,0 5,5 Z"
         style="fill:#ffb62b;fill-opacity:1;fill-rule:evenodd;stroke:#ffb62b;stroke-width:1.00000003pt;stroke-opacity:1"
         transform="matrix(-0.2,0,0,-0.2,-1.2,0)" />
    </marker>
    <marker
       inkscape:stockid="Arrow1Send"
       orient="auto"
       refY="0"
       refX="0"
       id="marker12182-7-2"
       style="overflow:visible"
       inkscape:isstock="true">
      <path
         inkscape:connector-curvature="0"
         id="path12180-7-4"
         d="M 0,0 5,-5 -12.5,0 5,5 Z"
         style="fill:#4ce118;fill-opacity:1;fill-rule:evenodd;stroke:#4ce118;stroke-width:1.00000003pt;stroke-opacity:1"
         transform="matrix(-0.2,0,0,-0.2,-1.2,0)" />
    </marker>
  </defs>
  <sodipodi:namedview
     id="base"
     pagecolor="#ffffff"
     bordercolor="#666666"
     borderopacity="1.0"
     inkscape:pageopacity="0.0"
     inkscape:pageshadow="2"
     inkscape:zoom="1"
     inkscape:cx="360.08042"
     inkscape:cy="316.17872"
     inkscape:document-units="mm"
     inkscape:current-layer="layer1"
     showgrid="false"
     inkscape:window-width="1853"
     inkscape:window-height="1019"
     inkscape:window-x="67"
     inkscape:window-y="33"
     inkscape:window-maximized="1"
     fit-margin-top="0"
     fit-margin-left="0"
     fit-margin-right="0"
     fit-margin-bottom="0" />
  <metadata
     id="metadata11451">
    <rdf:RDF>
      <cc:Work
         rdf:about="">
        <dc:format>image/svg+xml</dc:format>
        <dc:type
           rdf:resource="http://purl.org/dc/dcmitype/StillImage" />
        <dc:title></dc:title>
      </cc:Work>
    </rdf:RDF>
  </metadata>
  <g
     inkscape:label="Layer 1"
     inkscape:groupmode="layer"
     id="layer1"
     transform="translate(-23.829824,-137.82968)">
    <path
       d="m 39.314122,155.77847 c -0.116417,0.0847 -0.235479,0.16669 -0.354542,0.24342 l -0.164042,0.10583 c -0.156104,0.0979 -0.314854,0.1905 -0.478895,0.26459 l -0.105834,0.0556 a 8.7047917,8.7047917 0 0 1 -1.156229,0.50535 h -0.05292 c -0.206375,0.0688 -0.415395,0.12965 -0.629708,0.18257 v 0 c -0.214312,0.0529 -0.431271,0.0979 -0.650875,0.13229 h -0.01852 c -0.203729,0.0318 -0.41275,0.0556 -0.619125,0.0741 h -0.111125 c -0.206375,0.0159 -0.41275,0.0265 -0.619125,0.0265 -0.206375,0 -0.420687,0 -0.627062,-0.0265 h -0.10848 c -0.209021,-0.0185 -0.418042,-0.0423 -0.624417,-0.0767 h -0.0291 a 8.5381042,8.5381042 0 0 1 -1.275292,-0.31221 l -0.03969,-0.0132 c -0.209021,-0.0714 -0.415396,-0.15082 -0.616479,-0.23813 v 0 c -0.1905,-0.082 -0.378355,-0.17462 -0.563562,-0.26458 l -0.07144,-0.037 c -0.169333,-0.0926 -0.33602,-0.18786 -0.497416,-0.29105 l -0.145521,-0.0926 c -0.148167,-0.0979 -0.296333,-0.20108 -0.441854,-0.30956 l -0.04498,-0.0344 0.03175,-0.0159 2.616729,-1.42875 a 1.4022917,1.4022917 0 0 0 0.724958,-1.24355 v -1.19327 l -0.07673,-0.09 a 5.55625,5.55625 0 0 1 -0.992188,-2.05846 l -0.03175,-0.12964 -0.111125,-0.0741 a 0.55033333,0.55033333 0 0 1 -0.264583,-0.46038 v -1.1721 a 0.52916667,0.52916667 0 0 1 0.182563,-0.40481 l 0.111125,-0.10055 v -1.85208 -0.045 a 2.00025,2.00025 0 0 1 0.468312,-1.41552 c 0.478896,-0.54504 1.299104,-0.82285 2.436813,-0.82285 1.137708,0 1.949979,0.26458 2.43152,0.81756 a 2.016125,2.016125 0 0 1 0.465667,1.44992 v 1.88647 l 0.108479,0.0979 a 0.52916667,0.52916667 0 0 1 0.185209,0.40481 v 1.17211 a 0.555625,0.555625 0 0 1 -0.391584,0.52917 l -0.164041,0.0503 -0.05292,0.16404 a 6.1515625,6.1515625 0 0 1 -0.828146,1.65893 3.937,3.937 0 0 1 -0.243417,0.31486 l -0.08202,0.0953 v 1.22237 a 1.3917083,1.3917083 0 0 0 0.772583,1.25148 l 2.801937,1.40229 a 0.32808333,0.32808333 0 0 1 0.05292,0.0265 z"
       style="fill:none;stroke:#636868;stroke-width:1.38535833px;stroke-miterlimit:10"
       id="path1773"
       inkscape:connector-curvature="0" />
    <circle
       cx="34.342602"
       cy="147.9283"
       r="9.4059372"
       style="fill:none;stroke:#636868;stroke-width:1.38535833px;stroke-miterlimit:10"
       id="circle1775" />
    <g
       aria-label="S1"
       style="font-style:normal;font-variant:normal;font-weight:normal;font-stretch:normal;font-size:10.58333302px;line-height:1.25;font-family:Aharoni;-inkscape-font-specification:Aharoni;letter-spacing:0px;word-spacing:0px;fill:#000000;fill-opacity:1;stroke:none;stroke-width:0.26458332"
       id="text8716-3-3">
      <path
         d="m 32.852969,162.41131 v 0.97979 q -0.381373,-0.17053 -0.744141,-0.25735 -0.362769,-0.0868 -0.68523,-0.0868 -0.42788,0 -0.632519,0.11783 -0.204639,0.11782 -0.204639,0.36586 0,0.18604 0.136426,0.29146 0.139526,0.10232 0.502295,0.17673 l 0.508496,0.10232 q 0.772046,0.15503 1.097607,0.47129 0.325562,0.31626 0.325562,0.89917 0,0.76585 -0.455786,1.14102 -0.452686,0.37207 -1.385962,0.37207 -0.440283,0 -0.883667,-0.0837 -0.443384,-0.0837 -0.886768,-0.24805 v -1.00769 q 0.443384,0.23565 0.855762,0.35657 0.415479,0.11782 0.799951,0.11782 0.390674,0 0.598413,-0.13022 0.20774,-0.13023 0.20774,-0.37207 0,-0.21704 -0.142627,-0.33486 -0.139527,-0.11783 -0.561206,-0.21084 l -0.461988,-0.10232 q -0.694531,-0.14883 -1.016992,-0.47439 -0.31936,-0.32556 -0.31936,-0.87747 0,-0.69143 0.446484,-1.0635 0.446485,-0.37207 1.283643,-0.37207 0.381372,0 0.784448,0.0589 0.403076,0.0558 0.834058,0.17053 z"
         style="font-style:normal;font-variant:normal;font-weight:bold;font-stretch:normal;font-size:6.3499999px;font-family:sans-serif;-inkscape-font-specification:'sans-serif Bold';stroke-width:0.26458332"
         id="path16485" />
      <path
         d="m 34.369155,166.07 h 1.054199 v -2.99206 l -1.082104,0.22324 v -0.81235 l 1.075903,-0.22324 h 1.134814 V 166.07 h 1.0542 v 0.82476 h -3.237012 z"
         style="font-style:normal;font-variant:normal;font-weight:bold;font-stretch:normal;font-size:6.3499999px;font-family:sans-serif;-inkscape-font-specification:'sans-serif Bold';stroke-width:0.26458332"
         id="path16487" />
    </g>
    <line
       x1="123.54642"
       y1="171.46304"
       x2="134.15099"
       y2="171.46304"
       style="fill:none;stroke:#91c54f;stroke-width:1.02195251px;stroke-miterlimit:10"
       id="line1721" />
    <line
       x1="123.54642"
       y1="168.7193"
       x2="134.15099"
       y2="168.7193"
       style="fill:none;stroke:#91c54f;stroke-width:1.02195251px;stroke-miterlimit:10"
       id="line1723" />
    <line
       x1="123.54642"
       y1="165.97559"
       x2="134.15099"
       y2="165.97559"
       style="fill:none;stroke:#91c54f;stroke-width:1.02195251px;stroke-miterlimit:10"
       id="line1725" />
    <line
       x1="123.54642"
       y1="163.23187"
       x2="134.15099"
       y2="163.23187"
       style="fill:none;stroke:#91c54f;stroke-width:1.02195251px;stroke-miterlimit:10"
       id="line1727" />
    <line
       x1="123.54642"
       y1="160.48813"
       x2="127.92269"
       y2="160.48813"
       style="fill:none;stroke:#91c54f;stroke-width:1.02195251px;stroke-miterlimit:10"
       id="line1729" />
    <path
       d="m 133.60024,159.5018 a 1.4843125,1.4843125 0 0 1 -1.47902,-1.47902 v -2.77548 h -9.19163 a 1.4843125,1.4843125 0 0 0 -1.48167,1.47902 v 15.53898 a 1.4843125,1.4843125 0 0 0 1.48167,1.47902 h 11.83746 a 1.4843125,1.4843125 0 0 0 1.47902,-1.47902 v -12.7635 z"
       style="fill:none;stroke:#91c54f;stroke-width:1.02195251px;stroke-miterlimit:10"
       id="path1731"
       inkscape:connector-curvature="0" />
    <g
       aria-label="O1"
       style="font-style:normal;font-variant:normal;font-weight:normal;font-stretch:normal;font-size:10.58333302px;line-height:1.25;font-family:Aharoni;-inkscape-font-specification:Aharoni;letter-spacing:0px;word-spacing:0px;fill:#000000;fill-opacity:1;stroke:none;stroke-width:0.26458332"
       id="text8716-3-6">
      <path
         d="m 126.64901,179.77038 q -0.5457,0 -0.84646,0.40308 -0.30076,0.40308 -0.30076,1.13481 0,0.72864 0.30076,1.13172 0.30076,0.40307 0.84646,0.40307 0.5488,0 0.84956,-0.40307 0.30076,-0.40308 0.30076,-1.13172 0,-0.73173 -0.30076,-1.13481 -0.30076,-0.40308 -0.84956,-0.40308 z m 0,-0.86506 q 1.11621,0 1.74873,0.63872 0.63252,0.63872 0.63252,1.76423 0,1.12242 -0.63252,1.76114 -0.63252,0.63872 -1.74873,0.63872 -1.11311,0 -1.74873,-0.63872 -0.63252,-0.63872 -0.63252,-1.76114 0,-1.12551 0.63252,-1.76423 0.63562,-0.63872 1.74873,-0.63872 z"
         style="font-style:normal;font-variant:normal;font-weight:bold;font-stretch:normal;font-size:6.3499999px;font-family:sans-serif;-inkscape-font-specification:'sans-serif Bold';stroke-width:0.26458332"
         id="path16465" />
      <path
         d="m 130.09066,182.79345 h 1.0542 v -2.99206 l -1.08211,0.22324 v -0.81235 l 1.07591,-0.22324 h 1.13481 v 3.80441 h 1.0542 v 0.82476 h -3.23701 z"
         style="font-style:normal;font-variant:normal;font-weight:bold;font-stretch:normal;font-size:6.3499999px;font-family:sans-serif;-inkscape-font-specification:'sans-serif Bold';stroke-width:0.26458332"
         id="path16467" />
    </g>
    <path
       d="m 38.899967,197.87821 c -0.116417,0.0847 -0.235479,0.16669 -0.354542,0.24342 l -0.164042,0.10583 c -0.156104,0.0979 -0.314854,0.1905 -0.478895,0.26459 l -0.105834,0.0556 a 8.7047917,8.7047917 0 0 1 -1.156229,0.50535 h -0.05292 c -0.206375,0.0688 -0.415395,0.12965 -0.629708,0.18257 v 0 c -0.214312,0.0529 -0.431271,0.0979 -0.650875,0.13229 h -0.01852 c -0.203729,0.0318 -0.41275,0.0556 -0.619125,0.0741 h -0.111125 c -0.206375,0.0159 -0.41275,0.0265 -0.619125,0.0265 -0.206375,0 -0.420687,0 -0.627062,-0.0265 h -0.108481 c -0.209021,-0.0185 -0.418042,-0.0423 -0.624417,-0.0767 h -0.0291 a 8.5381042,8.5381042 0 0 1 -1.275292,-0.31221 l -0.03969,-0.0132 c -0.209021,-0.0714 -0.415396,-0.15082 -0.616479,-0.23813 v 0 c -0.1905,-0.082 -0.378355,-0.17462 -0.563562,-0.26458 l -0.07144,-0.037 c -0.169333,-0.0926 -0.33602,-0.18786 -0.497417,-0.29105 l -0.14552,-0.0926 c -0.148167,-0.0979 -0.296333,-0.20108 -0.441855,-0.30956 l -0.04498,-0.0344 0.03175,-0.0159 2.61673,-1.42875 a 1.4022917,1.4022917 0 0 0 0.724958,-1.24355 v -1.19327 l -0.07673,-0.09 a 5.55625,5.55625 0 0 1 -0.992188,-2.05847 l -0.03175,-0.12964 -0.111125,-0.0741 a 0.55033333,0.55033333 0 0 1 -0.264583,-0.46038 v -1.1721 a 0.52916667,0.52916667 0 0 1 0.182563,-0.40481 l 0.111125,-0.10055 v -1.85208 -0.045 a 2.00025,2.00025 0 0 1 0.468312,-1.41552 c 0.478896,-0.54504 1.299104,-0.82285 2.436813,-0.82285 1.137708,0 1.949979,0.26458 2.43152,0.81756 a 2.016125,2.016125 0 0 1 0.465667,1.44992 v 1.88647 l 0.108479,0.0979 a 0.52916667,0.52916667 0 0 1 0.185209,0.40481 v 1.17211 a 0.555625,0.555625 0 0 1 -0.391584,0.52917 l -0.164041,0.0503 -0.05292,0.16404 a 6.1515625,6.1515625 0 0 1 -0.828146,1.65894 3.937,3.937 0 0 1 -0.243417,0.31486 l -0.08202,0.0953 v 1.22237 a 1.3917083,1.3917083 0 0 0 0.772583,1.25148 l 2.801937,1.40229 a 0.32808333,0.32808333 0 0 1 0.05292,0.0265 z"
       style="fill:none;stroke:#636868;stroke-width:1.38535833px;stroke-miterlimit:10"
       id="path1773-1"
       inkscape:connector-curvature="0" />
    <circle
       cx="33.92844"
       cy="190.02779"
       r="9.4059372"
       style="fill:none;stroke:#636868;stroke-width:1.38535833px;stroke-miterlimit:10"
       id="circle1775-2" />
    <g
       aria-label="S2"
       style="font-style:normal;font-variant:normal;font-weight:normal;font-stretch:normal;font-size:10.58333302px;line-height:1.25;font-family:Aharoni;-inkscape-font-specification:Aharoni;letter-spacing:0px;word-spacing:0px;fill:#000000;fill-opacity:1;stroke:none;stroke-width:0.26458332"
       id="text8716-3-3-5">
      <path
         d="m 32.438807,204.5108 v 0.97979 q -0.381372,-0.17054 -0.744141,-0.25735 -0.362768,-0.0868 -0.685229,-0.0868 -0.427881,0 -0.63252,0.11782 -0.204638,0.11782 -0.204638,0.36587 0,0.18604 0.136425,0.29146 0.139527,0.10232 0.502295,0.17673 l 0.508496,0.10232 q 0.772046,0.15503 1.097608,0.47129 0.325561,0.31626 0.325561,0.89917 0,0.76584 -0.455786,1.14101 -0.452685,0.37207 -1.385962,0.37207 -0.440283,0 -0.883667,-0.0837 -0.443384,-0.0837 -0.886767,-0.24805 v -1.00769 q 0.443383,0.23565 0.855761,0.35657 0.415479,0.11782 0.799952,0.11782 0.390673,0 0.598413,-0.13022 0.207739,-0.13023 0.207739,-0.37207 0,-0.21704 -0.142627,-0.33487 -0.139526,-0.11782 -0.561206,-0.21084 l -0.461987,-0.10232 q -0.694532,-0.14882 -1.016993,-0.47439 -0.31936,-0.32556 -0.31936,-0.87746 0,-0.69143 0.446484,-1.0635 0.446485,-0.37207 1.283643,-0.37207 0.381372,0 0.784448,0.0589 0.403076,0.0558 0.834058,0.17053 z"
         style="font-style:normal;font-variant:normal;font-weight:bold;font-stretch:normal;font-size:6.3499999px;font-family:sans-serif;-inkscape-font-specification:'sans-serif Bold';stroke-width:0.26458332"
         id="path16480" />
      <path
         d="m 35.040198,208.11678 h 2.037085 v 0.87747 h -3.364135 v -0.87747 l 1.689819,-1.49138 q 0.226343,-0.20464 0.334863,-0.39998 0.108521,-0.19533 0.108521,-0.40617 0,-0.32556 -0.220142,-0.524 -0.217041,-0.19844 -0.57981,-0.19844 -0.279052,0 -0.610815,0.12092 -0.331763,0.11783 -0.710034,0.35347 v -1.01699 q 0.403076,-0.13333 0.79685,-0.20154 0.393775,-0.0713 0.772046,-0.0713 0.830957,0 1.289844,0.36587 0.461987,0.36587 0.461987,1.02009 0,0.37827 -0.195337,0.70693 -0.195336,0.32556 -0.821655,0.87437 z"
         style="font-style:normal;font-variant:normal;font-weight:bold;font-stretch:normal;font-size:6.3499999px;font-family:sans-serif;-inkscape-font-specification:'sans-serif Bold';stroke-width:0.26458332"
         id="path16482" />
    </g>
    <path
       d="m 38.899967,240.74098 c -0.116417,0.0847 -0.235479,0.16669 -0.354542,0.24342 l -0.164042,0.10583 c -0.156104,0.0979 -0.314854,0.1905 -0.478895,0.26459 l -0.105834,0.0556 a 8.7047917,8.7047917 0 0 1 -1.156229,0.50535 h -0.05292 c -0.206375,0.0688 -0.415395,0.12965 -0.629708,0.18257 v 0 c -0.214312,0.0529 -0.431271,0.0979 -0.650875,0.13229 h -0.01852 c -0.203729,0.0318 -0.41275,0.0556 -0.619125,0.0741 h -0.111125 c -0.206375,0.0159 -0.41275,0.0265 -0.619125,0.0265 -0.206375,0 -0.420687,0 -0.627062,-0.0265 h -0.108481 c -0.209021,-0.0185 -0.418042,-0.0423 -0.624417,-0.0767 h -0.0291 a 8.5381042,8.5381042 0 0 1 -1.275292,-0.31221 l -0.03969,-0.0132 c -0.209021,-0.0714 -0.415396,-0.15082 -0.616479,-0.23813 v 0 c -0.1905,-0.082 -0.378355,-0.17462 -0.563562,-0.26458 l -0.07144,-0.037 c -0.169333,-0.0926 -0.33602,-0.18786 -0.497417,-0.29105 l -0.14552,-0.0926 c -0.148167,-0.0979 -0.296333,-0.20108 -0.441855,-0.30956 l -0.04498,-0.0344 0.03175,-0.0159 2.61673,-1.42875 a 1.4022917,1.4022917 0 0 0 0.724958,-1.24355 v -1.19327 l -0.07673,-0.09 a 5.55625,5.55625 0 0 1 -0.992188,-2.05847 l -0.03175,-0.12964 -0.111125,-0.0741 a 0.55033333,0.55033333 0 0 1 -0.264583,-0.46038 v -1.1721 a 0.52916667,0.52916667 0 0 1 0.182563,-0.40481 l 0.111125,-0.10055 v -1.85208 -0.045 a 2.00025,2.00025 0 0 1 0.468312,-1.41552 c 0.478896,-0.54504 1.299104,-0.82285 2.436813,-0.82285 1.137708,0 1.949979,0.26458 2.43152,0.81756 a 2.016125,2.016125 0 0 1 0.465667,1.44992 v 1.88647 l 0.108479,0.0979 a 0.52916667,0.52916667 0 0 1 0.185209,0.40481 v 1.17211 a 0.555625,0.555625 0 0 1 -0.391584,0.52917 l -0.164041,0.0503 -0.05292,0.16404 a 6.1515625,6.1515625 0 0 1 -0.828146,1.65894 3.937,3.937 0 0 1 -0.243417,0.31486 l -0.08202,0.0953 v 1.22237 a 1.3917083,1.3917083 0 0 0 0.772583,1.25148 l 2.801937,1.40229 a 0.32808333,0.32808333 0 0 1 0.05292,0.0265 z"
       style="fill:none;stroke:#636868;stroke-width:1.38535833px;stroke-miterlimit:10"
       id="path1773-5"
       inkscape:connector-curvature="0" />
    <circle
       cx="33.92844"
       cy="232.88971"
       r="9.4059372"
       style="fill:none;stroke:#636868;stroke-width:1.38535833px;stroke-miterlimit:10"
       id="circle1775-8" />
    <g
       aria-label="S3"
       style="font-style:normal;font-variant:normal;font-weight:normal;font-stretch:normal;font-size:10.58333302px;line-height:1.25;font-family:Aharoni;-inkscape-font-specification:Aharoni;letter-spacing:0px;word-spacing:0px;fill:#000000;fill-opacity:1;stroke:none;stroke-width:0.26458332"
       id="text8716-3-3-7">
      <path
         d="m 32.438807,247.37272 v 0.97979 q -0.381372,-0.17053 -0.744141,-0.25735 -0.362768,-0.0868 -0.685229,-0.0868 -0.427881,0 -0.63252,0.11783 -0.204638,0.11782 -0.204638,0.36586 0,0.18604 0.136425,0.29146 0.139527,0.10232 0.502295,0.17673 l 0.508496,0.10232 q 0.772046,0.15503 1.097608,0.47129 0.325561,0.31626 0.325561,0.89917 0,0.76585 -0.455786,1.14102 -0.452685,0.37207 -1.385962,0.37207 -0.440283,0 -0.883667,-0.0837 -0.443384,-0.0837 -0.886767,-0.24805 v -1.00769 q 0.443383,0.23565 0.855761,0.35657 0.415479,0.11782 0.799952,0.11782 0.390673,0 0.598413,-0.13022 0.207739,-0.13023 0.207739,-0.37207 0,-0.21704 -0.142627,-0.33486 -0.139526,-0.11783 -0.561206,-0.21084 l -0.461987,-0.10232 q -0.694532,-0.14883 -1.016993,-0.47439 -0.31936,-0.32556 -0.31936,-0.87747 0,-0.69143 0.446484,-1.0635 0.446485,-0.37207 1.283643,-0.37207 0.381372,0 0.784448,0.0589 0.403076,0.0558 0.834058,0.17053 z"
         style="font-style:normal;font-variant:normal;font-weight:bold;font-stretch:normal;font-size:6.3499999px;font-family:sans-serif;-inkscape-font-specification:'sans-serif Bold';stroke-width:0.26458332"
         id="path16475" />
      <path
         d="m 36.168812,249.3602 q 0.468188,0.12092 0.710034,0.42168 0.244946,0.29765 0.244946,0.75964 0,0.68833 -0.5271,1.048 -0.527099,0.35657 -1.53789,0.35657 -0.356568,0 -0.716236,-0.0589 -0.356567,-0.0558 -0.706933,-0.17054 v -0.92087 q 0.334863,0.16743 0.663525,0.25425 0.331763,0.0837 0.651123,0.0837 0.47439,0 0.725537,-0.16433 0.254248,-0.16433 0.254248,-0.47129 0,-0.31626 -0.260449,-0.47749 -0.257348,-0.16433 -0.762744,-0.16433 h -0.47749 v -0.76894 h 0.502295 q 0.449585,0 0.669726,-0.13953 0.220142,-0.14263 0.220142,-0.43098 0,-0.26665 -0.21394,-0.41238 -0.213941,-0.14573 -0.604615,-0.14573 -0.288354,0 -0.58291,0.0651 -0.294556,0.0651 -0.586011,0.19223 v -0.87436 q 0.353467,-0.0992 0.700733,-0.14883 0.347265,-0.0496 0.682129,-0.0496 0.90227,0 1.348755,0.29766 0.449585,0.29455 0.449585,0.88986 0,0.40618 -0.213941,0.66663 -0.21394,0.25735 -0.632519,0.36277 z"
         style="font-style:normal;font-variant:normal;font-weight:bold;font-stretch:normal;font-size:6.3499999px;font-family:sans-serif;-inkscape-font-specification:'sans-serif Bold';stroke-width:0.26458332"
         id="path16477" />
    </g>
    <line
       x1="123.28764"
       y1="220.39516"
       x2="133.89229"
       y2="220.39516"
       style="fill:none;stroke:#91c54f;stroke-width:1.02195251px;stroke-miterlimit:10"
       id="line1721-0" />
    <line
       x1="123.28764"
       y1="217.65141"
       x2="133.89229"
       y2="217.65141"
       style="fill:none;stroke:#91c54f;stroke-width:1.02195251px;stroke-miterlimit:10"
       id="line1723-0" />
    <line
       x1="123.28764"
       y1="214.9077"
       x2="133.89229"
       y2="214.9077"
       style="fill:none;stroke:#91c54f;stroke-width:1.02195251px;stroke-miterlimit:10"
       id="line1725-7" />
    <line
       x1="123.28764"
       y1="212.16399"
       x2="133.89229"
       y2="212.16399"
       style="fill:none;stroke:#91c54f;stroke-width:1.02195251px;stroke-miterlimit:10"
       id="line1727-3" />
    <line
       x1="123.28764"
       y1="209.42024"
       x2="127.66396"
       y2="209.42024"
       style="fill:none;stroke:#91c54f;stroke-width:1.02195251px;stroke-miterlimit:10"
       id="line1729-2" />
    <path
       d="m 133.34037,208.43366 a 1.4843125,1.4843125 0 0 1 -1.47902,-1.47902 v -2.77548 h -9.19162 a 1.4843125,1.4843125 0 0 0 -1.48167,1.47902 v 15.53898 a 1.4843125,1.4843125 0 0 0 1.48167,1.47902 h 11.83745 a 1.4843125,1.4843125 0 0 0 1.47902,-1.47902 v -12.7635 z"
       style="fill:none;stroke:#91c54f;stroke-width:1.02195251px;stroke-miterlimit:10"
       id="path1731-4"
       inkscape:connector-curvature="0" />
    <g
       aria-label="O2"
       style="font-style:normal;font-variant:normal;font-weight:normal;font-stretch:normal;font-size:10.58333302px;line-height:1.25;font-family:Aharoni;-inkscape-font-specification:Aharoni;letter-spacing:0px;word-spacing:0px;fill:#000000;fill-opacity:1;stroke:none;stroke-width:0.26458332"
       id="text8716-3-6-0">
      <path
         d="m 126.39024,228.7025 q -0.5457,0 -0.84646,0.40307 -0.30075,0.40308 -0.30075,1.13482 0,0.72863 0.30075,1.13171 0.30076,0.40308 0.84646,0.40308 0.54881,0 0.84956,-0.40308 0.30076,-0.40308 0.30076,-1.13171 0,-0.73174 -0.30076,-1.13482 -0.30075,-0.40307 -0.84956,-0.40307 z m 0,-0.86507 q 1.11621,0 1.74873,0.63872 0.63252,0.63872 0.63252,1.76424 0,1.12241 -0.63252,1.76113 -0.63252,0.63872 -1.74873,0.63872 -1.11311,0 -1.74873,-0.63872 -0.63252,-0.63872 -0.63252,-1.76113 0,-1.12552 0.63252,-1.76424 0.63562,-0.63872 1.74873,-0.63872 z"
         style="font-style:normal;font-variant:normal;font-weight:bold;font-stretch:normal;font-size:6.3499999px;font-family:sans-serif;-inkscape-font-specification:'sans-serif Bold';stroke-width:0.26458332"
         id="path16470" />
      <path
         d="m 130.9171,231.67286 h 2.03708 v 0.87746 h -3.36413 v -0.87746 l 1.68982,-1.49138 q 0.22634,-0.20464 0.33486,-0.39998 0.10852,-0.19534 0.10852,-0.40618 0,-0.32556 -0.22014,-0.524 -0.21704,-0.19843 -0.57981,-0.19843 -0.27905,0 -0.61082,0.12092 -0.33176,0.11782 -0.71003,0.35347 v -1.017 q 0.40308,-0.13332 0.79685,-0.20153 0.39378,-0.0713 0.77205,-0.0713 0.83095,0 1.28984,0.36587 0.46199,0.36587 0.46199,1.02009 0,0.37828 -0.19534,0.70694 -0.19534,0.32556 -0.82165,0.87436 z"
         style="font-style:normal;font-variant:normal;font-weight:bold;font-stretch:normal;font-size:6.3499999px;font-family:sans-serif;-inkscape-font-specification:'sans-serif Bold';stroke-width:0.26458332"
         id="path16472" />
    </g>
    <path
       style="fill:none;stroke:#4ce118;stroke-width:1;stroke-linecap:butt;stroke-linejoin:miter;stroke-miterlimit:4;stroke-dasharray:none;stroke-opacity:1;marker-end:url(#Arrow1Send)"
       d="m 48.947915,147.775 c 66.410415,15.61042 66.410415,15.61042 66.410415,15.61042"
       id="path11600"
       inkscape:connector-curvature="0" />
    <path
       style="fill:none;stroke:#ffb62b;stroke-width:1;stroke-linecap:butt;stroke-linejoin:miter;stroke-miterlimit:4;stroke-dasharray:none;stroke-opacity:1;marker-end:url(#marker12182)"
       d="M 48.815623,188.38851 C 115.22604,172.77809 115.22604,172.77809 115.22604,172.77809"
       id="path11600-1"
       inkscape:connector-curvature="0"
       inkscape:transform-center-x="-0.26458333"
       inkscape:transform-center-y="7.4083385" />
    <g
       aria-label="write"
       style="font-style:normal;font-weight:normal;font-size:10.58333302px;line-height:1.25;font-family:sans-serif;letter-spacing:0px;word-spacing:0px;fill:#000000;fill-opacity:1;stroke:none;stroke-width:0.26458332"
       id="text12888">
      <path
         d="m 117.71064,262.11359 h 1.13895 l 0.6153,2.52664 0.61856,-2.52664 h 0.97858 l 0.6153,2.50045 0.61856,-2.50045 h 1.13895 l -0.96549,3.66558 h -1.27968 l -0.61856,-2.52008 -0.6153,2.52008 h -1.27968 z"
         style="font-weight:bold;font-size:6.70277786px;stroke-width:0.26458332"
         id="path16490" />
      <path
         d="m 126.95315,263.11181 q -0.15383,-0.072 -0.30765,-0.10473 -0.15055,-0.036 -0.30438,-0.036 -0.45165,0 -0.69711,0.29128 -0.24219,0.28801 -0.24219,0.82803 v 1.68878 h -1.17168 v -3.66558 h 1.17168 v 0.60221 q 0.22582,-0.36002 0.51711,-0.52366 0.29455,-0.16691 0.70366,-0.16691 0.0589,0 0.12764,0.007 0.0687,0.003 0.19964,0.0196 z"
         style="font-weight:bold;font-size:6.70277786px;stroke-width:0.26458332"
         id="path16492" />
      <path
         d="m 127.54226,262.11359 h 1.17167 v 3.66558 h -1.17167 z m 0,-1.42696 h 1.17167 v 0.95567 h -1.17167 z"
         style="font-weight:bold;font-size:6.70277786px;stroke-width:0.26458332"
         id="path16494" />
      <path
         d="m 131.12602,261.07283 v 1.04076 h 1.20768 v 0.83785 h -1.20768 v 1.5546 q 0,0.25528 0.10146,0.34692 0.10145,0.0884 0.40255,0.0884 h 0.60221 v 0.83784 h -1.00476 q -0.69385,0 -0.98513,-0.28801 -0.28801,-0.29128 -0.28801,-0.98512 v -1.5546 h -0.58257 v -0.83785 h 0.58257 v -1.04076 z"
         style="font-weight:bold;font-size:6.70277786px;stroke-width:0.26458332"
         id="path16496" />
      <path
         d="m 136.71276,263.93657 v 0.33383 h -2.73937 q 0.0426,0.41237 0.29783,0.61856 0.25528,0.20619 0.71348,0.20619 0.36983,0 0.75602,-0.108 0.38947,-0.11128 0.79858,-0.33383 v 0.9033 q -0.41566,0.1571 -0.83131,0.23565 -0.41565,0.0818 -0.8313,0.0818 -0.99494,0 -1.54805,-0.50402 -0.54984,-0.50729 -0.54984,-1.42041 0,-0.89676 0.54002,-1.4106 0.54329,-0.51383 1.49242,-0.51383 0.86403,0 1.38113,0.52038 0.52039,0.52038 0.52039,1.39096 z m -1.20441,-0.38947 q 0,-0.33383 -0.19637,-0.53675 -0.1931,-0.20619 -0.50729,-0.20619 -0.34038,0 -0.55311,0.1931 -0.21274,0.18982 -0.2651,0.54984 z"
         style="font-weight:bold;font-size:6.70277786px;stroke-width:0.26458332"
         id="path16498" />
    </g>
    <g
       aria-label="read"
       style="font-style:normal;font-weight:normal;font-size:10.58333302px;line-height:1.25;font-family:sans-serif;letter-spacing:0px;word-spacing:0px;fill:#000000;fill-opacity:1;stroke:none;stroke-width:0.26458332"
       id="text12888-3">
      <path
         d="m 120.81381,272.4898 q -0.15382,-0.072 -0.30765,-0.10473 -0.15055,-0.036 -0.30437,-0.036 -0.45165,0 -0.69712,0.29128 -0.24219,0.28801 -0.24219,0.82803 v 1.68879 h -1.17167 v -3.66559 h 1.17167 v 0.60221 q 0.22583,-0.36002 0.51711,-0.52366 0.29456,-0.16691 0.70366,-0.16691 0.0589,0 0.12764,0.007 0.0687,0.003 0.19965,0.0196 z"
         style="font-weight:bold;font-size:6.70277786px;stroke-width:0.26458332"
         id="path16501" />
      <path
         d="m 125.06196,273.31456 v 0.33383 h -2.73937 q 0.0425,0.41237 0.29783,0.61856 0.25528,0.20619 0.71348,0.20619 0.36983,0 0.75602,-0.108 0.38947,-0.11128 0.79858,-0.33383 v 0.9033 q -0.41565,0.1571 -0.8313,0.23565 -0.41566,0.0818 -0.83131,0.0818 -0.99494,0 -1.54805,-0.50402 -0.54984,-0.50729 -0.54984,-1.42041 0,-0.89676 0.54002,-1.4106 0.54329,-0.51383 1.49242,-0.51383 0.86403,0 1.38114,0.52038 0.52038,0.52038 0.52038,1.39096 z m -1.20441,-0.38947 q 0,-0.33383 -0.19637,-0.53675 -0.1931,-0.20619 -0.50729,-0.20619 -0.34037,0 -0.55311,0.1931 -0.21273,0.18983 -0.2651,0.54984 z"
         style="font-weight:bold;font-size:6.70277786px;stroke-width:0.26458332"
         id="path16503" />
      <path
         d="m 127.58859,273.50765 q -0.36656,0 -0.55311,0.12437 -0.18328,0.12437 -0.18328,0.36656 0,0.22255 0.14728,0.35019 0.15055,0.12437 0.41565,0.12437 0.33056,0 0.55638,-0.23564 0.22583,-0.23892 0.22583,-0.59566 v -0.13419 z m 1.79024,-0.44183 v 2.09135 h -1.18149 v -0.5433 q -0.23565,0.33383 -0.5302,0.48766 -0.29456,0.15055 -0.71675,0.15055 -0.56948,0 -0.92622,-0.33056 -0.35346,-0.33383 -0.35346,-0.86403 0,-0.64475 0.44183,-0.94585 0.44511,-0.3011 1.39423,-0.3011 h 0.69057 v -0.0916 q 0,-0.27819 -0.21928,-0.40583 -0.21928,-0.13092 -0.68402,-0.13092 -0.37638,0 -0.70039,0.0753 -0.32401,0.0753 -0.60221,0.22582 v -0.89348 q 0.37638,-0.0916 0.75603,-0.13746 0.37965,-0.0491 0.7593,-0.0491 0.99167,0 1.43023,0.39274 0.44183,0.38947 0.44183,1.26986 z"
         style="font-weight:bold;font-size:6.70277786px;stroke-width:0.26458332"
         id="path16505" />
      <path
         d="m 132.96914,272.02833 v -1.9637 h 1.17822 v 5.09254 h -1.17822 v -0.5302 q -0.24219,0.32401 -0.53347,0.47456 -0.29128,0.15055 -0.67421,0.15055 -0.67748,0 -1.11276,-0.53675 -0.43529,-0.54002 -0.43529,-1.38768 0,-0.84767 0.43529,-1.38441 0.43528,-0.54002 1.11276,-0.54002 0.37965,0 0.67094,0.15382 0.29455,0.15055 0.53674,0.47129 z m -0.77239,2.37281 q 0.37638,0 0.57275,-0.27492 0.19964,-0.27492 0.19964,-0.79857 0,-0.52366 -0.19964,-0.79858 -0.19637,-0.27491 -0.57275,-0.27491 -0.3731,0 -0.57275,0.27491 -0.19637,0.27492 -0.19637,0.79858 0,0.52365 0.19637,0.79857 0.19965,0.27492 0.57275,0.27492 z"
         style="font-weight:bold;font-size:6.70277786px;stroke-width:0.26458332"
         id="path16507" />
    </g>
    <path
       style="fill:none;stroke:#ffb62b;stroke-width:1;stroke-linecap:butt;stroke-linejoin:miter;stroke-miterlimit:4;stroke-dasharray:none;stroke-opacity:1;marker-end:url(#marker12182-7-5)"
       d="m 95.393983,273.11417 c 14.863067,0.0893 14.863067,0.0893 14.863067,0.0893"
       id="path11600-1-0-4"
       inkscape:connector-curvature="0"
       inkscape:transform-center-x="0.34021349"
       inkscape:transform-center-y="20.304322" />
    <path
       style="fill:none;stroke:#4ce118;stroke-width:1;stroke-linecap:butt;stroke-linejoin:miter;stroke-miterlimit:4;stroke-dasharray:none;stroke-opacity:1;marker-end:url(#marker12182-7-2)"
       d="m 95.658563,264.11833 c 14.863067,0.0893 14.863067,0.0893 14.863067,0.0893"
       id="path11600-1-0-9"
       inkscape:connector-curvature="0"
       inkscape:transform-center-x="0.34021349"
       inkscape:transform-center-y="20.304322" />
  </g>
</svg>
