<svg id="Layer_1" data-name="Layer 1" xmlns="http://www.w3.org/2000/svg" viewBox="0 0 1062 670"><title>Capitolul12</title><path d="M35.08,266.27H28.9v3.33h5.85V274H28.9v3.45h6.18v4.41H23.71v-20H35.08Z"/><path d="M43,274.58l-5.43-6.12h6.24l2.31,2.76,2.37-2.76h6.21l-5.55,6.12,6.72,7.29H49.48l-3.42-4-3.42,4H36.28Z"/><path d="M62.29,288.74h-4.8V268.46h4.8v1.47A5,5,0,0,1,66.4,268,6.67,6.67,0,0,1,71.17,270a7.61,7.61,0,0,1-.12,10.5,6.44,6.44,0,0,1-4.59,1.86,5.71,5.71,0,0,1-4.17-1.74ZM63.07,273a3.27,3.27,0,0,0-.93,2.22,3.24,3.24,0,0,0,.93,2.13,3.07,3.07,0,0,0,2.16.9,2.9,2.9,0,0,0,2.13-.9,3.17,3.17,0,0,0,.93-2.13,3.27,3.27,0,0,0-.93-2.22,2.9,2.9,0,0,0-2.13-.9A3.07,3.07,0,0,0,63.07,273Z"/><path d="M90.19,276.05h-10A3.39,3.39,0,0,0,81,278.3a2.7,2.7,0,0,0,2,.66,3.79,3.79,0,0,0,1.56-.36,2.23,2.23,0,0,0,.84-.9H90a6,6,0,0,1-1.62,2.76c-1,1-2.55,1.86-5.46,1.86a7.61,7.61,0,0,1-5.55-2,7,7,0,0,1-2-5.07,7.16,7.16,0,0,1,2-5.19,7.55,7.55,0,0,1,5.49-1.95,7.35,7.35,0,0,1,5.16,1.83,7.51,7.51,0,0,1,2.13,5.64Zm-4.41-2.76a3.22,3.22,0,0,0-.78-1.44,2.8,2.8,0,0,0-2-.72,2.58,2.58,0,0,0-2,.72,2.74,2.74,0,0,0-.72,1.44Z"/><path d="M108.13,281.87h-4.8V280.4a4.92,4.92,0,0,1-4,1.92,6.42,6.42,0,0,1-4.71-1.86,7.4,7.4,0,0,1-2.16-5.34,7.31,7.31,0,0,1,2.19-5.31,6.86,6.86,0,0,1,4.74-1.8,5.31,5.31,0,0,1,4,1.74V260h4.8Zm-5.67-4.44a3.22,3.22,0,0,0,1-2.28,3.51,3.51,0,0,0-.9-2.16,3.08,3.08,0,0,0-4.32,0,3.29,3.29,0,0,0-.93,2.28,3,3,0,0,0,.93,2.1,3,3,0,0,0,2.13.9A3.28,3.28,0,0,0,102.46,277.43Z"/><path d="M113.83,260.18a2.7,2.7,0,1,1-2.7,2.7A2.69,2.69,0,0,1,113.83,260.18Zm2.4,8.28v13.41h-4.8V268.46Z"/><path d="M124.81,272.39v9.48H120v-9.48h-1.53v-3.93H120v-4.41h4.8v4.41h2.73v3.93Z"/><path d="M142.84,280.1a9.18,9.18,0,0,1-12,0,6.92,6.92,0,0,1,0-9.87,8.37,8.37,0,0,1,6-2.22,8.47,8.47,0,0,1,6,2.22,6.92,6.92,0,0,1,0,9.87ZM134.71,273a3.06,3.06,0,0,0,2.16,5.22,3.05,3.05,0,0,0,2.13-.9,3,3,0,0,0,.93-2.13A3.26,3.26,0,0,0,139,273a3.08,3.08,0,0,0-4.29,0Z"/><path d="M147.67,268.46h4.8v2.19a4.33,4.33,0,0,1,1.89-1.86,5.24,5.24,0,0,1,2.49-.54l1,.06v4.53a4.23,4.23,0,0,0-2.07-.48,3.14,3.14,0,0,0-2.19.72,4,4,0,0,0-1.08,3.06v5.73h-4.8Z"/><path d="M900,281.87v-20h6.81a11.16,11.16,0,0,1,8,2.76,9.77,9.77,0,0,1,2.79,7.29,9.23,9.23,0,0,1-2.61,6.93,10.87,10.87,0,0,1-7.68,3Zm5.19-4.41h1.05a6,6,0,0,0,4.38-1.44,5.45,5.45,0,0,0,1.53-4.11,6,6,0,0,0-1.56-4.38,5.83,5.83,0,0,0-4.14-1.26h-1.26Z"/><path d="M934.57,276.05h-10a3.39,3.39,0,0,0,.84,2.25,2.7,2.7,0,0,0,2,.66,3.79,3.79,0,0,0,1.56-.36,2.23,2.23,0,0,0,.84-.9h4.59a6,6,0,0,1-1.62,2.76c-1,1-2.55,1.86-5.46,1.86a7.61,7.61,0,0,1-5.55-2,7,7,0,0,1-2-5.07,7.16,7.16,0,0,1,2-5.19,7.55,7.55,0,0,1,5.49-1.95,7.35,7.35,0,0,1,5.16,1.83,7.51,7.51,0,0,1,2.13,5.64Zm-4.41-2.76a3.22,3.22,0,0,0-.78-1.44,2.8,2.8,0,0,0-2-.72,2.58,2.58,0,0,0-1.95.72,2.74,2.74,0,0,0-.72,1.44Z"/><path d="M938.2,277.43a6.87,6.87,0,0,0,1.92,1,6.25,6.25,0,0,0,1.86.33,2,2,0,0,0,1.23-.36.77.77,0,0,0,.24-.63.71.71,0,0,0-.24-.6,3,3,0,0,0-1.26-.48l-1.26-.3a4.31,4.31,0,0,1-2.34-1.17,3.24,3.24,0,0,1-.87-2.31,4.79,4.79,0,0,1,1.26-3.27,6.77,6.77,0,0,1,4.8-1.62,11.07,11.07,0,0,1,4.29.87l-1.62,3.06a6.64,6.64,0,0,0-2.52-.66,2,2,0,0,0-1.11.27.72.72,0,0,0-.42.66.78.78,0,0,0,.57.75c.45.18.84.18,1.59.39l.87.24a5.67,5.67,0,0,1,2,1.05,3.79,3.79,0,0,1,1,2.67,4.48,4.48,0,0,1-1.35,3.33,7,7,0,0,1-5,1.68,9.89,9.89,0,0,1-5.4-1.56Z"/><path d="M956,272.39v9.48h-4.8v-9.48h-1.53v-3.93h1.53v-4.41H956v4.41h2.73v3.93Z"/><path d="M962.89,260.18a2.7,2.7,0,1,1-2.7,2.7A2.69,2.69,0,0,1,962.89,260.18Zm2.4,8.28v13.41h-4.8V268.46Z"/><path d="M968.56,268.46h4.8v1.68a5.06,5.06,0,0,1,4.26-2,5.42,5.42,0,0,1,4,1.44,4.62,4.62,0,0,1,1.26,3.75v8.52H978v-6.78a3.85,3.85,0,0,0-.6-2.61,2,2,0,0,0-1.53-.57,2.63,2.63,0,0,0-1.77.63,3.08,3.08,0,0,0-.78,2.13v7.2h-4.8Z"/><path d="M996.49,268.46h4.8v13.41h-4.8V280.4a5,5,0,0,1-4.17,1.92,6.42,6.42,0,0,1-4.83-2.13,6.76,6.76,0,0,1-1.92-4.92,7.42,7.42,0,0,1,2.07-5.37,6.9,6.9,0,0,1,4.83-1.89,5.31,5.31,0,0,1,4,1.74Zm-5,4.5a3.14,3.14,0,0,0-1,2.19,3.09,3.09,0,0,0,.93,2.19,3.37,3.37,0,0,0,2.16.9,3.08,3.08,0,0,0,2.16-.93,2.91,2.91,0,0,0,.9-2.16,3,3,0,0,0-.93-2.19,3,3,0,0,0-4.26,0Z"/><path d="M1009.9,272.39v9.48h-4.8v-9.48h-1.53v-3.93h1.53v-4.41h4.8v4.41h2.73v3.93Z"/><path d="M1024.81,268.46h4.8v13.41h-4.8V280.4a5,5,0,0,1-4.17,1.92,6.42,6.42,0,0,1-4.83-2.13,6.76,6.76,0,0,1-1.92-4.92,7.42,7.42,0,0,1,2.07-5.37,6.9,6.9,0,0,1,4.83-1.89,5.31,5.31,0,0,1,4,1.74Zm-5,4.5a3.14,3.14,0,0,0-1,2.19,3.09,3.09,0,0,0,.93,2.19,3.37,3.37,0,0,0,2.16.9,3.08,3.08,0,0,0,2.16-.93,2.91,2.91,0,0,0,.9-2.16A3,3,0,0,0,1024,273a3,3,0,0,0-4.26,0Z"/><path d="M1032.91,268.46h4.8v2.19a4.33,4.33,0,0,1,1.89-1.86,5.24,5.24,0,0,1,2.49-.54l1,.06v4.53a4.23,4.23,0,0,0-2.07-.48,3.14,3.14,0,0,0-2.19.72,4,4,0,0,0-1.08,3.06v5.73h-4.8Z"/><polygon points="177.59 219.31 262.11 219.31 262.11 231.5 288 205.61 262.11 179.72 262.11 191.9 177.59 191.9 177.59 219.31" style="fill:none;stroke:#4fc2c9;stroke-miterlimit:10;stroke-width:7.19140887260437px"/><polygon points="697.66 435 697.66 362.44 708.12 362.44 685.9 340.22 663.67 362.44 674.13 362.44 674.13 435 697.66 435" style="fill:none;stroke:#f7931f;stroke-miterlimit:10;stroke-width:7px"/><polygon points="397.46 435 397.46 362.44 407.92 362.44 385.7 340.22 363.47 362.44 373.93 362.44 373.93 435 397.46 435" style="fill:none;stroke:#f7931f;stroke-miterlimit:10;stroke-width:7px"/><polygon points="476.59 219.31 561.11 219.31 561.11 231.5 587 205.61 561.11 179.72 561.11 191.9 476.59 191.9 476.59 219.31" style="fill:none;stroke:#4fc2c9;stroke-miterlimit:10;stroke-width:7.19140887260437px"/><polygon points="780.59 219.31 865.11 219.31 865.11 231.5 891 205.61 865.11 179.72 865.11 191.9 780.59 191.9 780.59 219.31" style="fill:none;stroke:#4fc2c9;stroke-miterlimit:10;stroke-width:7.19140887260437px"/><line x1="203" y1="136.47" x2="243.08" y2="136.47" style="fill:none;stroke:#91c54f;stroke-miterlimit:10;stroke-width:3.86249780654907px"/><line x1="203" y1="126.1" x2="243.08" y2="126.1" style="fill:none;stroke:#91c54f;stroke-miterlimit:10;stroke-width:3.86249780654907px"/><line x1="203" y1="115.73" x2="243.08" y2="115.73" style="fill:none;stroke:#91c54f;stroke-miterlimit:10;stroke-width:3.86249780654907px"/><line x1="203" y1="105.36" x2="243.08" y2="105.36" style="fill:none;stroke:#91c54f;stroke-miterlimit:10;stroke-width:3.86249780654907px"/><line x1="203" y1="94.99" x2="219.54" y2="94.99" style="fill:none;stroke:#91c54f;stroke-miterlimit:10;stroke-width:3.86249780654907px"/><path d="M241,91.26a5.61,5.61,0,0,1-5.59-5.59V75.18H200.67a5.61,5.61,0,0,0-5.6,5.59V139.5a5.61,5.61,0,0,0,5.6,5.59h44.74A5.61,5.61,0,0,0,251,139.5V91.26Z" style="fill:none;stroke:#91c54f;stroke-miterlimit:10;stroke-width:3.86249780654907px"/><line x1="498" y1="136.47" x2="538.08" y2="136.47" style="fill:none;stroke:#c13018;stroke-miterlimit:10;stroke-width:3.856px"/><line x1="498" y1="126.1" x2="538.08" y2="126.1" style="fill:none;stroke:#c13018;stroke-miterlimit:10;stroke-width:3.856px"/><line x1="498" y1="115.73" x2="538.08" y2="115.73" style="fill:none;stroke:#c13018;stroke-miterlimit:10;stroke-width:3.856px"/><line x1="498" y1="105.36" x2="538.08" y2="105.36" style="fill:none;stroke:#c13018;stroke-miterlimit:10;stroke-width:3.856px"/><line x1="498" y1="94.99" x2="514.54" y2="94.99" style="fill:none;stroke:#c13018;stroke-miterlimit:10;stroke-width:3.856px"/><path d="M536,91.26a5.61,5.61,0,0,1-5.59-5.59V75.18H495.67a5.61,5.61,0,0,0-5.6,5.59V139.5a5.61,5.61,0,0,0,5.6,5.59h44.74A5.61,5.61,0,0,0,546,139.5V91.26Z" style="fill:none;stroke:#c13018;stroke-miterlimit:10;stroke-width:3.856px"/><line x1="804" y1="136.47" x2="844.08" y2="136.47" style="fill:none;stroke:#91c54f;stroke-miterlimit:10;stroke-width:3.86249780654907px"/><line x1="804" y1="126.1" x2="844.08" y2="126.1" style="fill:none;stroke:#91c54f;stroke-miterlimit:10;stroke-width:3.86249780654907px"/><line x1="804" y1="115.73" x2="844.08" y2="115.73" style="fill:none;stroke:#91c54f;stroke-miterlimit:10;stroke-width:3.86249780654907px"/><line x1="804" y1="105.36" x2="844.08" y2="105.36" style="fill:none;stroke:#91c54f;stroke-miterlimit:10;stroke-width:3.86249780654907px"/><line x1="804" y1="94.99" x2="820.54" y2="94.99" style="fill:none;stroke:#91c54f;stroke-miterlimit:10;stroke-width:3.86249780654907px"/><path d="M842,91.26a5.61,5.61,0,0,1-5.59-5.59V75.18H801.67a5.61,5.61,0,0,0-5.6,5.59V139.5a5.61,5.61,0,0,0,5.6,5.59h44.74A5.61,5.61,0,0,0,852,139.5V91.26Z" style="fill:none;stroke:#91c54f;stroke-miterlimit:10;stroke-width:3.86249780654907px"/><rect x="330.12" y="168.95" width="104.21" height="73.51" rx="12" ry="12" style="fill:none;stroke:#3a5c84;stroke-miterlimit:10;stroke-width:5px"/><path d="M362.29,198.28a3.94,3.94,0,0,1-1.05,2.89.25.25,0,0,0-.05.27l1.29,2.7a.22.22,0,0,0,.24.14,3.92,3.92,0,0,1,4.2,3.78.25.25,0,0,0,.16.22l2.82,1H370a.2.2,0,0,0,.23-.08,3.78,3.78,0,0,1,.58-.55l0,0,.29-.2a1.67,1.67,0,0,1,.23-.12.24.24,0,0,1,.11-.06,3.75,3.75,0,0,1,1.5-.39,3.9,3.9,0,0,1,2.89,1,.2.2,0,0,0,.27,0l2.7-1.29h0a.22.22,0,0,0,.14-.23,3.89,3.89,0,0,1,2.5-3.93l.08,0,.15,0,.25-.08h0a3.66,3.66,0,0,1,.75-.1.26.26,0,0,0,.22-.17l1-2.82a.26.26,0,0,0-.07-.26,3.9,3.9,0,0,1-.3-5.64.23.23,0,0,0,0-.27l-.88-1.86h0l-.4-.84a.16.16,0,0,0-.07-.07h0l0,0a.13.13,0,0,0-.1,0h0a3.92,3.92,0,0,1-4.2-3.78.22.22,0,0,0-.16-.22l-2.82-1a.2.2,0,0,0-.26.07h0a4,4,0,0,1-.89.76l-.07,0-.26.14a3.9,3.9,0,0,1-4.41-.66.26.26,0,0,0-.27,0l-2.7,1.29a.23.23,0,0,0-.13.24,3.93,3.93,0,0,1-3.79,4.2.21.21,0,0,0-.22.16l-.69,1.95h0l-.31.88a.27.27,0,0,0,.07.27A3.9,3.9,0,0,1,362.29,198.28Zm6.13-4.77,0,0,.27-.22.19-.16L369,193a5.81,5.81,0,1,1,5.83,10l-.48.2h0a5.82,5.82,0,0,1-5.93-9.72Z" style="fill:#3a5c84"/><path d="M375.79,219.42a5,5,0,0,1-1.35,3.71.32.32,0,0,0-.06.35l1.66,3.46c.1.2.21.19.3.18a5,5,0,0,1,5.4,4.86.32.32,0,0,0,.2.28l3.63,1.28h.06a.24.24,0,0,0,.29-.11,4.58,4.58,0,0,1,.76-.7s0,0,0,0l.36-.25a2.19,2.19,0,0,1,.3-.16l.14-.08a5,5,0,0,1,5.64.86.27.27,0,0,0,.34,0l3.47-1.66h0a.3.3,0,0,0,.18-.3,5,5,0,0,1,1.28-3.73,5,5,0,0,1,1.92-1.32l.12-.05.19-.06.31-.09H401a5.26,5.26,0,0,1,1-.13.3.3,0,0,0,.28-.21l1.29-3.62a.32.32,0,0,0-.1-.34,5,5,0,0,1-.37-7.25.32.32,0,0,0,.05-.34L402,211.62h0l-.52-1.08a.34.34,0,0,0-.08-.09l0,0,0,0-.12,0h0a5,5,0,0,1-5.4-4.86.3.3,0,0,0-.21-.28L392,203.93a.28.28,0,0,0-.34.08h0a5.21,5.21,0,0,1-1.16,1l-.08,0-.34.19a4.91,4.91,0,0,1-1.95.51,5.06,5.06,0,0,1-3.71-1.36.32.32,0,0,0-.34,0L380.59,206a.32.32,0,0,0-.18.3,5,5,0,0,1-4.86,5.39.28.28,0,0,0-.28.21l-.89,2.51h0l-.4,1.13a.33.33,0,0,0,.09.34A5.06,5.06,0,0,1,375.79,219.42Zm7.88-6.13s0,0,.05,0l.34-.29c.09-.07.16-.14.25-.2l.11-.08a7.47,7.47,0,1,1,7.49,12.85,6.5,6.5,0,0,1-.61.25h0a7.47,7.47,0,0,1-7.61-12.49Z" style="fill:#3a5c84"/><path d="M381.21,186.1a2.67,2.67,0,0,1-.72,2,.17.17,0,0,0,0,.18l.88,1.84a.16.16,0,0,0,.16.1,2.65,2.65,0,0,1,2,.67,2.73,2.73,0,0,1,.89,1.9.17.17,0,0,0,.11.16l1.92.67h0a.14.14,0,0,0,.16-.06,2.34,2.34,0,0,1,.4-.37l0,0,.19-.13.16-.09.08,0a2.56,2.56,0,0,1,1-.26,2.63,2.63,0,0,1,2,.72.14.14,0,0,0,.18,0l1.84-.88h0a.16.16,0,0,0,.1-.16,2.62,2.62,0,0,1,.68-2,2.56,2.56,0,0,1,1-.7l.06,0,.1,0,.17-.05h0a2.25,2.25,0,0,1,.52-.07.17.17,0,0,0,.15-.11l.68-1.93a.16.16,0,0,0,0-.17,2.7,2.7,0,0,1-.92-1.88,2.64,2.64,0,0,1,.72-2,.19.19,0,0,0,0-.19l-.61-1.26h0l-.27-.57a.08.08,0,0,0-.05,0h0l0,0a.07.07,0,0,0-.06,0h0a2.65,2.65,0,0,1-2-.68,2.69,2.69,0,0,1-.89-1.9.16.16,0,0,0-.11-.15l-1.92-.68a.13.13,0,0,0-.18,0h0a2.8,2.8,0,0,1-.61.53l-.05,0-.18.1a2.62,2.62,0,0,1-1,.27,2.67,2.67,0,0,1-2-.72.15.15,0,0,0-.18,0l-1.84.88a.17.17,0,0,0-.1.16,2.67,2.67,0,0,1-2.58,2.86.16.16,0,0,0-.15.12l-.47,1.33h0l-.21.61a.18.18,0,0,0,.05.18A2.68,2.68,0,0,1,381.21,186.1Zm4.18-3.26,0,0,.18-.16a.69.69,0,0,0,.13-.11l.06,0a4,4,0,0,1,6,4.55,3.94,3.94,0,0,1-2.07,2.27l-.33.14h0a4,4,0,0,1-4-6.63Z" style="fill:#3a5c84"/><rect x="634.12" y="168.95" width="104.21" height="73.51" rx="12" ry="12" style="fill:none;stroke:#3a5c84;stroke-miterlimit:10;stroke-width:5px"/><path d="M666.29,198.28a3.94,3.94,0,0,1-1,2.89.25.25,0,0,0,0,.27l1.29,2.7a.22.22,0,0,0,.24.14,3.92,3.92,0,0,1,4.2,3.78.25.25,0,0,0,.16.22l2.82,1H674a.2.2,0,0,0,.23-.08,3.78,3.78,0,0,1,.58-.55l0,0,.29-.2a1.67,1.67,0,0,1,.23-.12.24.24,0,0,1,.11-.06,3.75,3.75,0,0,1,1.5-.39,3.9,3.9,0,0,1,2.89,1,.2.2,0,0,0,.27,0l2.7-1.29h0a.22.22,0,0,0,.14-.23,3.89,3.89,0,0,1,2.5-3.93l.08,0,.15,0,.25-.08h0a3.66,3.66,0,0,1,.75-.1.26.26,0,0,0,.22-.17l1-2.82a.26.26,0,0,0-.07-.26,3.9,3.9,0,0,1-.3-5.64.23.23,0,0,0,0-.27l-.88-1.86h0l-.4-.84a.16.16,0,0,0-.07-.07h0l0,0a.13.13,0,0,0-.1,0h0a3.92,3.92,0,0,1-4.2-3.78.22.22,0,0,0-.16-.22l-2.82-1a.2.2,0,0,0-.26.07h0a4,4,0,0,1-.89.76l-.07,0-.26.14a3.9,3.9,0,0,1-4.41-.66.26.26,0,0,0-.27,0l-2.7,1.29a.23.23,0,0,0-.13.24,3.93,3.93,0,0,1-3.79,4.2.21.21,0,0,0-.22.16l-.69,1.95h0l-.31.88a.27.27,0,0,0,.07.27A3.9,3.9,0,0,1,666.29,198.28Zm6.13-4.77,0,0,.27-.22.19-.16L673,193a5.81,5.81,0,1,1,5.83,10l-.48.2h0a5.82,5.82,0,0,1-5.93-9.72Z" style="fill:#3a5c84"/><path d="M679.79,219.42a5,5,0,0,1-1.35,3.71.32.32,0,0,0-.06.35l1.66,3.46c.1.2.21.19.3.18a5,5,0,0,1,5.4,4.86.32.32,0,0,0,.2.28l3.63,1.28h.06a.24.24,0,0,0,.29-.11,4.58,4.58,0,0,1,.76-.7s0,0,0,0l.36-.25a2.19,2.19,0,0,1,.3-.16l.14-.08a5,5,0,0,1,5.64.86.27.27,0,0,0,.34,0l3.47-1.66h0a.3.3,0,0,0,.18-.3,5,5,0,0,1,1.28-3.73,5,5,0,0,1,1.92-1.32l.12-.05.19-.06.31-.09h0a5.26,5.26,0,0,1,1-.13.3.3,0,0,0,.28-.21l1.29-3.62a.32.32,0,0,0-.1-.34,5,5,0,0,1-.37-7.25.32.32,0,0,0,0-.34L706,211.62h0l-.52-1.08a.34.34,0,0,0-.08-.09l0,0,0,0-.12,0h0a5,5,0,0,1-5.4-4.86.3.3,0,0,0-.21-.28L696,203.93a.28.28,0,0,0-.34.08h0a5.21,5.21,0,0,1-1.16,1l-.08,0-.34.19a4.91,4.91,0,0,1-1.95.51,5.06,5.06,0,0,1-3.71-1.36.32.32,0,0,0-.34,0L684.59,206a.32.32,0,0,0-.18.3,5,5,0,0,1-4.86,5.39.28.28,0,0,0-.28.21l-.89,2.51h0l-.4,1.13a.33.33,0,0,0,.09.34A5.06,5.06,0,0,1,679.79,219.42Zm7.88-6.13.05,0,.34-.29c.09-.07.16-.14.25-.2l.11-.08a7.47,7.47,0,1,1,7.49,12.85,6.5,6.5,0,0,1-.61.25h0a7.47,7.47,0,0,1-7.61-12.49Z" style="fill:#3a5c84"/><path d="M685.21,186.1a2.67,2.67,0,0,1-.72,2,.17.17,0,0,0,0,.18l.88,1.84a.16.16,0,0,0,.16.1,2.65,2.65,0,0,1,2,.67,2.73,2.73,0,0,1,.89,1.9.17.17,0,0,0,.11.16l1.92.67h0a.14.14,0,0,0,.16-.06,2.34,2.34,0,0,1,.4-.37l0,0,.19-.13.16-.09.08,0a2.56,2.56,0,0,1,1-.26,2.63,2.63,0,0,1,2,.72.14.14,0,0,0,.18,0l1.84-.88h0a.16.16,0,0,0,.1-.16,2.62,2.62,0,0,1,.68-2,2.56,2.56,0,0,1,1-.7l.06,0,.1,0,.17-.05h0a2.25,2.25,0,0,1,.52-.07.17.17,0,0,0,.15-.11l.68-1.93a.16.16,0,0,0-.05-.17,2.7,2.7,0,0,1-.92-1.88,2.64,2.64,0,0,1,.72-2,.19.19,0,0,0,0-.19l-.61-1.26h0l-.27-.57a.08.08,0,0,0,0,0h0l0,0a.07.07,0,0,0-.06,0h0a2.65,2.65,0,0,1-2-.68,2.69,2.69,0,0,1-.89-1.9.16.16,0,0,0-.11-.15l-1.92-.68a.13.13,0,0,0-.18,0h0a2.8,2.8,0,0,1-.61.53l0,0-.18.1a2.62,2.62,0,0,1-1,.27,2.67,2.67,0,0,1-2-.72.15.15,0,0,0-.18,0l-1.84.88a.17.17,0,0,0-.1.16,2.67,2.67,0,0,1-2.58,2.86.16.16,0,0,0-.15.12l-.47,1.33h0l-.21.61a.18.18,0,0,0,0,.18A2.68,2.68,0,0,1,685.21,186.1Zm4.18-3.26,0,0,.18-.16a.69.69,0,0,0,.13-.11l.06,0a4,4,0,0,1,6.05,4.55,3.94,3.94,0,0,1-2.07,2.27l-.33.14h0a4,4,0,0,1-4-6.63Z" style="fill:#3a5c84"/><path d="M111.74,233.56c-.44.32-.89.63-1.34.92l-.62.4c-.59.37-1.19.72-1.81,1l-.4.21A32.9,32.9,0,0,1,103.2,238L103,238c-.78.26-1.57.49-2.38.69h0c-.81.2-1.63.37-2.46.5l-.07,0c-.77.12-1.56.21-2.34.28l-.42,0c-.78.06-1.56.1-2.34.1s-1.59,0-2.37-.1l-.41,0c-.79-.07-1.58-.16-2.36-.29l-.11,0A32.27,32.27,0,0,1,82.92,238l-.15-.05c-.79-.27-1.57-.57-2.33-.9h0c-.72-.31-1.43-.66-2.13-1l-.27-.14c-.64-.35-1.27-.71-1.88-1.1l-.55-.35c-.56-.37-1.12-.76-1.67-1.17l-.17-.13.12-.06,9.89-5.4A5.3,5.3,0,0,0,86.52,223v-4.51l-.29-.34a21,21,0,0,1-3.75-7.78l-.12-.49-.42-.28a2.08,2.08,0,0,1-1-1.74v-4.43a2,2,0,0,1,.69-1.53l.42-.38v-7l0-.17A7.56,7.56,0,0,1,83.82,189c1.81-2.06,4.91-3.11,9.21-3.11s7.37,1,9.19,3.09a7.62,7.62,0,0,1,1.76,5.48v7.13l.41.37a2,2,0,0,1,.7,1.53v4.43a2.1,2.1,0,0,1-1.48,2l-.62.19-.2.62A23.25,23.25,0,0,1,99.66,217a14.88,14.88,0,0,1-.92,1.19l-.31.36v4.62a5.26,5.26,0,0,0,2.92,4.73l10.59,5.3a1.24,1.24,0,0,1,.2.1Z" style="fill:none;stroke:#636868;stroke-miterlimit:10;stroke-width:5.236px"/><circle cx="92.95" cy="203.89" r="35.55" style="fill:none;stroke:#636868;stroke-miterlimit:10;stroke-width:5.236px"/><path d="M987.74,233.56c-.44.32-.89.63-1.34.92l-.62.4c-.59.37-1.19.72-1.81,1l-.4.21A32.9,32.9,0,0,1,979.2,238L979,238c-.78.26-1.57.49-2.38.69h0c-.81.2-1.63.37-2.46.5l-.07,0c-.77.12-1.56.21-2.34.28l-.42,0c-.78.06-1.56.1-2.34.1s-1.59,0-2.37-.1l-.41,0c-.79-.07-1.58-.16-2.36-.29l-.11,0a32.27,32.27,0,0,1-4.86-1.21l-.15-.05c-.79-.27-1.57-.57-2.33-.9h0c-.72-.31-1.43-.66-2.13-1l-.27-.14c-.64-.35-1.27-.71-1.88-1.1l-.55-.35c-.56-.37-1.12-.76-1.67-1.17l-.17-.13.12-.06,9.89-5.4a5.3,5.3,0,0,0,2.76-4.64v-4.51l-.29-.34a21,21,0,0,1-3.75-7.78l-.12-.49-.42-.28a2.08,2.08,0,0,1-1-1.74v-4.43a2,2,0,0,1,.69-1.53l.42-.38v-7l0-.17a7.56,7.56,0,0,1,1.75-5.45c1.81-2.06,4.91-3.11,9.21-3.11s7.37,1,9.19,3.09a7.62,7.62,0,0,1,1.76,5.48v7.13l.41.37a2,2,0,0,1,.7,1.53v4.43a2.1,2.1,0,0,1-1.48,2l-.62.19-.2.62a23.25,23.25,0,0,1-3.12,6.29,14.88,14.88,0,0,1-.92,1.19l-.31.36v4.62a5.26,5.26,0,0,0,2.92,4.73l10.59,5.3a1.24,1.24,0,0,1,.2.1Z" style="fill:none;stroke:#636868;stroke-miterlimit:10;stroke-width:5.236px"/><circle cx="968.95" cy="203.89" r="35.55" style="fill:none;stroke:#636868;stroke-miterlimit:10;stroke-width:5.236px"/><path d="M180.45,49.87l3.39-20H189L193,40.54l4.29-10.68h5.19l3,20h-5.19l-1.47-11.52L194,49.87h-2.07l-4.62-11.52-1.71,11.52Z"/><path d="M222.57,44.05h-10a3.39,3.39,0,0,0,.84,2.25,2.7,2.7,0,0,0,2,.66A3.79,3.79,0,0,0,217,46.6a2.23,2.23,0,0,0,.84-.9h4.59a6,6,0,0,1-1.62,2.76c-1,1-2.55,1.86-5.46,1.86a7.61,7.61,0,0,1-5.55-2,7,7,0,0,1-2-5.07,7.16,7.16,0,0,1,2-5.19,7.55,7.55,0,0,1,5.49-2,7.35,7.35,0,0,1,5.16,1.83,7.51,7.51,0,0,1,2.13,5.64Zm-4.41-2.76a3.22,3.22,0,0,0-.78-1.44,2.8,2.8,0,0,0-2-.72,2.58,2.58,0,0,0-2,.72,2.74,2.74,0,0,0-.72,1.44Z"/><path d="M226.2,45.43a6.87,6.87,0,0,0,1.92,1,6.25,6.25,0,0,0,1.86.33,2,2,0,0,0,1.23-.36.77.77,0,0,0,.24-.63.71.71,0,0,0-.24-.6,3,3,0,0,0-1.26-.48l-1.26-.3a4.31,4.31,0,0,1-2.34-1.17,3.24,3.24,0,0,1-.87-2.31,4.79,4.79,0,0,1,1.26-3.27,6.77,6.77,0,0,1,4.8-1.62,11.07,11.07,0,0,1,4.29.87l-1.62,3.06a6.64,6.64,0,0,0-2.52-.66,2,2,0,0,0-1.11.27.72.72,0,0,0-.42.66.78.78,0,0,0,.57.75c.45.18.84.18,1.59.39l.87.24a5.67,5.67,0,0,1,2,1,3.79,3.79,0,0,1,1,2.67,4.48,4.48,0,0,1-1.35,3.33,7,7,0,0,1-5,1.68,9.89,9.89,0,0,1-5.4-1.56Z"/><path d="M249,36.46h4.8V49.87H249V48.4a5,5,0,0,1-4.17,1.92A6.42,6.42,0,0,1,240,48.19a6.76,6.76,0,0,1-1.92-4.92,7.42,7.42,0,0,1,2.07-5.37A6.9,6.9,0,0,1,245,36a5.31,5.31,0,0,1,4,1.74ZM244,41a3.14,3.14,0,0,0-1,2.19,3.09,3.09,0,0,0,.93,2.19,3.37,3.37,0,0,0,2.16.9,3.08,3.08,0,0,0,2.16-.93,2.91,2.91,0,0,0,.9-2.16,3,3,0,0,0-.93-2.19A3,3,0,0,0,244,41Z"/><path d="M259.53,28.18a2.7,2.7,0,1,1-2.7,2.7A2.69,2.69,0,0,1,259.53,28.18Zm2.4,8.28V56.74h-4.8V36.46Z"/><path d="M782,50.87l3.39-20h5.13l4,10.68,4.29-10.68H804l3,20h-5.19l-1.47-11.52-4.83,11.52h-2.07l-4.62-11.52-1.71,11.52Z"/><path d="M824.07,45.05h-10a3.39,3.39,0,0,0,.84,2.25,2.7,2.7,0,0,0,2,.66,3.79,3.79,0,0,0,1.56-.36,2.23,2.23,0,0,0,.84-.9h4.59a6,6,0,0,1-1.62,2.76c-1,1-2.55,1.86-5.46,1.86a7.61,7.61,0,0,1-5.55-2,7,7,0,0,1-2-5.07,7.16,7.16,0,0,1,2-5.19,7.55,7.55,0,0,1,5.49-2,7.35,7.35,0,0,1,5.16,1.83,7.51,7.51,0,0,1,2.13,5.64Zm-4.41-2.76a3.22,3.22,0,0,0-.78-1.44,2.8,2.8,0,0,0-2-.72,2.58,2.58,0,0,0-1.95.72,2.74,2.74,0,0,0-.72,1.44Z"/><path d="M827.7,46.43a6.87,6.87,0,0,0,1.92,1,6.25,6.25,0,0,0,1.86.33,2,2,0,0,0,1.23-.36.77.77,0,0,0,.24-.63.71.71,0,0,0-.24-.6,3,3,0,0,0-1.26-.48l-1.26-.3a4.31,4.31,0,0,1-2.34-1.17A3.24,3.24,0,0,1,827,41.9a4.79,4.79,0,0,1,1.26-3.27A6.77,6.77,0,0,1,833,37a11.07,11.07,0,0,1,4.29.87l-1.62,3.06a6.64,6.64,0,0,0-2.52-.66,2,2,0,0,0-1.11.27.72.72,0,0,0-.42.66.78.78,0,0,0,.57.75c.45.18.84.18,1.59.39l.87.24a5.67,5.67,0,0,1,2,1,3.79,3.79,0,0,1,1,2.67,4.48,4.48,0,0,1-1.35,3.33,7,7,0,0,1-5,1.68,9.89,9.89,0,0,1-5.4-1.56Z"/><path d="M850.53,37.46h4.8V50.87h-4.8V49.4a5,5,0,0,1-4.17,1.92,6.42,6.42,0,0,1-4.83-2.13,6.76,6.76,0,0,1-1.92-4.92,7.42,7.42,0,0,1,2.07-5.37A6.9,6.9,0,0,1,846.51,37a5.31,5.31,0,0,1,4,1.74Zm-5,4.5a3.14,3.14,0,0,0-1,2.19,3.09,3.09,0,0,0,.93,2.19,3.37,3.37,0,0,0,2.16.9,3.08,3.08,0,0,0,2.16-.93,2.91,2.91,0,0,0,.9-2.16,3,3,0,0,0-.93-2.19,3,3,0,0,0-4.26,0Z"/><path d="M861,29.18a2.7,2.7,0,1,1-2.7,2.7A2.69,2.69,0,0,1,861,29.18Zm2.4,8.28V57.74h-4.8V37.46Z"/><path d="M428.7,49.87l3.39-20h5.13l4,10.68,4.29-10.68h5.19l3,20h-5.19l-1.47-11.52-4.83,11.52h-2.07l-4.62-11.52-1.71,11.52Z"/><path d="M470.82,44.05h-10a3.39,3.39,0,0,0,.84,2.25,2.7,2.7,0,0,0,2,.66,3.79,3.79,0,0,0,1.56-.36,2.23,2.23,0,0,0,.84-.9h4.59A6,6,0,0,1,469,48.46c-1,1-2.55,1.86-5.46,1.86a7.61,7.61,0,0,1-5.55-2,7,7,0,0,1-2-5.07A7.16,7.16,0,0,1,458,38a7.55,7.55,0,0,1,5.49-2,7.35,7.35,0,0,1,5.16,1.83,7.51,7.51,0,0,1,2.13,5.64Zm-4.41-2.76a3.22,3.22,0,0,0-.78-1.44,2.8,2.8,0,0,0-2-.72,2.58,2.58,0,0,0-1.95.72,2.74,2.74,0,0,0-.72,1.44Z"/><path d="M474.45,45.43a6.87,6.87,0,0,0,1.92,1,6.25,6.25,0,0,0,1.86.33,2,2,0,0,0,1.23-.36.77.77,0,0,0,.24-.63.71.71,0,0,0-.24-.6,3,3,0,0,0-1.26-.48l-1.26-.3a4.31,4.31,0,0,1-2.34-1.17,3.24,3.24,0,0,1-.87-2.31A4.79,4.79,0,0,1,475,37.63a6.77,6.77,0,0,1,4.8-1.62,11.07,11.07,0,0,1,4.29.87l-1.62,3.06a6.64,6.64,0,0,0-2.52-.66,2,2,0,0,0-1.11.27.72.72,0,0,0-.42.66A.78.78,0,0,0,479,41c.45.18.84.18,1.59.39l.87.24a5.67,5.67,0,0,1,2,1,3.79,3.79,0,0,1,1,2.67,4.48,4.48,0,0,1-1.35,3.33,7,7,0,0,1-4.95,1.68,9.89,9.89,0,0,1-5.4-1.56Z"/><path d="M497.28,36.46h4.8V49.87h-4.8V48.4a5,5,0,0,1-4.17,1.92,6.42,6.42,0,0,1-4.83-2.13,6.76,6.76,0,0,1-1.92-4.92,7.42,7.42,0,0,1,2.07-5.37A6.9,6.9,0,0,1,493.26,36a5.31,5.31,0,0,1,4,1.74Zm-5,4.5a3.14,3.14,0,0,0-1,2.19,3.09,3.09,0,0,0,.93,2.19,3.37,3.37,0,0,0,2.16.9,3.08,3.08,0,0,0,2.16-.93,2.91,2.91,0,0,0,.9-2.16A3,3,0,0,0,496.5,41a3,3,0,0,0-4.26,0Z"/><path d="M507.78,28.18a2.7,2.7,0,1,1-2.7,2.7A2.69,2.69,0,0,1,507.78,28.18Zm2.4,8.28V56.74h-4.8V36.46Z"/><path d="M530.58,49.57a7.12,7.12,0,0,1-3.33.75,7.41,7.41,0,0,1-5.28-2,7,7,0,0,1-2.07-5,7.3,7.3,0,0,1,2.16-5.19,7.73,7.73,0,0,1,5.4-2,6.88,6.88,0,0,1,3.12.75v4a4.28,4.28,0,0,0-2.49-.87,3.15,3.15,0,0,0-2.34.93,3.26,3.26,0,0,0-.93,2.31,3.44,3.44,0,0,0,.84,2.25,3.26,3.26,0,0,0,2.46,1,3.63,3.63,0,0,0,2.46-.9Z"/><path d="M533.31,36.46h4.8v2.19A4.33,4.33,0,0,1,540,36.79a5.24,5.24,0,0,1,2.49-.54l1,.06v4.53a4.23,4.23,0,0,0-2.07-.48,3.14,3.14,0,0,0-2.19.72,4,4,0,0,0-1.08,3.06v5.73h-4.8Z"/><path d="M548,28.18a2.7,2.7,0,1,1-2.7,2.7A2.69,2.69,0,0,1,548,28.18Zm2.4,8.28V49.87h-4.8V36.46Z"/><path d="M558.45,56.74h-4.8V36.46h4.8v1.47A5,5,0,0,1,562.56,36a6.67,6.67,0,0,1,4.77,2,7.61,7.61,0,0,1-.12,10.5,6.44,6.44,0,0,1-4.59,1.86,5.71,5.71,0,0,1-4.17-1.74ZM559.23,41a3.27,3.27,0,0,0-.93,2.22,3.24,3.24,0,0,0,.93,2.13,3.07,3.07,0,0,0,2.16.9,2.9,2.9,0,0,0,2.13-.9,3.17,3.17,0,0,0,.93-2.13,3.27,3.27,0,0,0-.93-2.22,2.9,2.9,0,0,0-2.13-.9A3.07,3.07,0,0,0,559.23,41Z"/><path d="M577.44,40.39v9.48h-4.8V40.39h-1.53V36.46h1.53V32.05h4.8v4.41h2.73v3.93Z"/><path d="M592.35,36.46h4.8V49.87h-4.8V48.4a5,5,0,0,1-4.17,1.92,6.42,6.42,0,0,1-4.83-2.13,6.76,6.76,0,0,1-1.92-4.92,7.42,7.42,0,0,1,2.07-5.37A6.9,6.9,0,0,1,588.33,36a5.31,5.31,0,0,1,4,1.74Zm-5,4.5a3.14,3.14,0,0,0-1,2.19,3.09,3.09,0,0,0,.93,2.19,3.37,3.37,0,0,0,2.16.9,3.08,3.08,0,0,0,2.16-.93,2.91,2.91,0,0,0,.9-2.16,3,3,0,0,0-.93-2.19,3,3,0,0,0-4.26,0Z"/><path d="M605.76,40.39v9.48H601V40.39h-1.53V36.46H601V32.05h4.8v4.41h2.73v3.93Z"/><path d="M292.82,640.83a14.38,14.38,0,0,1-5.25,1.16,12.69,12.69,0,0,1-9-3.5A12.24,12.24,0,0,1,275,630a12.52,12.52,0,0,1,3.54-8.61,12.38,12.38,0,0,1,8.82-3.64,14.57,14.57,0,0,1,5.46,1.19v7.25a6.5,6.5,0,0,0-5.29-2.56,5.93,5.93,0,0,0-4.2,1.54,6.54,6.54,0,0,0-2,4.8,6.47,6.47,0,0,0,1.89,4.55,6.56,6.56,0,0,0,4.34,1.61,6.88,6.88,0,0,0,5.29-2.45Z"/><path d="M296.14,616h5.6v11.83a6.73,6.73,0,0,1,1.75-1.54,6.31,6.31,0,0,1,3.22-.77,6.22,6.22,0,0,1,4.62,1.68,5.45,5.45,0,0,1,1.47,4.37v9.94h-5.6v-7.91a4.65,4.65,0,0,0-.7-3,2.19,2.19,0,0,0-1.78-.67,3,3,0,0,0-2,.67,3.39,3.39,0,0,0-.95,2.55v8.4h-5.6Z"/><path d="M332.51,634.67H320.85a4,4,0,0,0,1,2.63,3.15,3.15,0,0,0,2.31.77,4.51,4.51,0,0,0,1.82-.42,2.57,2.57,0,0,0,1-1h5.36a7.15,7.15,0,0,1-1.89,3.22c-1.16,1.12-3,2.17-6.37,2.17a8.9,8.9,0,0,1-6.48-2.38,8.23,8.23,0,0,1-2.31-5.92,8.33,8.33,0,0,1,2.35-6.05,8.79,8.79,0,0,1,6.4-2.28,8.57,8.57,0,0,1,6,2.14,8.75,8.75,0,0,1,2.49,6.58Zm-5.15-3.22a3.78,3.78,0,0,0-.91-1.68,3.28,3.28,0,0,0-2.31-.84,3,3,0,0,0-2.27.84,3.12,3.12,0,0,0-.84,1.68Z"/><path d="M338.53,616.16a3.15,3.15,0,1,1-3.15,3.15A3.14,3.14,0,0,1,338.53,616.16Zm2.8,9.66v15.64h-5.6V625.82Z"/><path d="M361.73,634.67H350.08a4,4,0,0,0,1,2.63,3.15,3.15,0,0,0,2.31.77,4.51,4.51,0,0,0,1.82-.42,2.64,2.64,0,0,0,1-1h5.35a7,7,0,0,1-1.89,3.22c-1.15,1.12-3,2.17-6.37,2.17a8.88,8.88,0,0,1-6.47-2.38,8.19,8.19,0,0,1-2.31-5.92,8.36,8.36,0,0,1,2.34-6.05,8.83,8.83,0,0,1,6.41-2.28,8.58,8.58,0,0,1,6,2.14,8.77,8.77,0,0,1,2.48,6.58Zm-5.14-3.22a3.78,3.78,0,0,0-.91-1.68,3.29,3.29,0,0,0-2.31-.84,3,3,0,0,0-2.28.84,3.27,3.27,0,0,0-.84,1.68Z"/><path d="M378.7,649.48h-5.6V625.82h5.6v1.71a5.87,5.87,0,0,1,4.8-2.24,7.78,7.78,0,0,1,5.57,2.28,8.88,8.88,0,0,1-.14,12.25,7.54,7.54,0,0,1-5.36,2.17,6.66,6.66,0,0,1-4.87-2Zm.91-18.38a3.53,3.53,0,0,0,0,5.08,3.62,3.62,0,0,0,2.52,1.05,3.41,3.41,0,0,0,2.49-1.05,3.7,3.7,0,0,0,1.09-2.49,3.83,3.83,0,0,0-1.09-2.59,3.41,3.41,0,0,0-2.49-1.05A3.62,3.62,0,0,0,379.61,631.1Z"/><path d="M400.26,625.82v8.75a3,3,0,0,0,.84,2.27,2.91,2.91,0,0,0,2,.6,2.6,2.6,0,0,0,2-.67,2.9,2.9,0,0,0,.81-2.2v-8.75h5.6v9.76a5.37,5.37,0,0,1-1.51,4.2c-1.92,2-4.62,2.21-6.75,2.21-2.35,0-5.22-.25-7.08-2.24a5.63,5.63,0,0,1-1.47-4.17v-9.76Z"/><path d="M420.91,616v11.37a6.22,6.22,0,0,1,4.66-2,8,8,0,0,1,5.53,2.1,8.53,8.53,0,0,1,2.56,6.2,8.66,8.66,0,0,1-2.52,6.23,7.52,7.52,0,0,1-5.5,2.17,5.75,5.75,0,0,1-4.73-2.24v1.71h-5.6V616Zm5.92,20.23a3.58,3.58,0,0,0,1.09-2.45,3.85,3.85,0,0,0-1.09-2.66,3.59,3.59,0,0,0-5,0,4.12,4.12,0,0,0-1.05,2.52,3.71,3.71,0,0,0,1.19,2.66,3.78,3.78,0,0,0,2.41,1A3.48,3.48,0,0,0,426.83,636.18Z"/><path d="M442.47,616v25.51h-5.6V616Z"/><path d="M449.09,616.16a3.15,3.15,0,1,1-3.15,3.15A3.14,3.14,0,0,1,449.09,616.16Zm2.8,9.66v15.64h-5.6V625.82Z"/><path d="M467.54,641.11a8.28,8.28,0,0,1-3.89.88,8.65,8.65,0,0,1-6.16-2.38,8.21,8.21,0,0,1-2.42-5.85,8.53,8.53,0,0,1,2.52-6,9,9,0,0,1,6.31-2.38,8,8,0,0,1,3.64.87v4.69a5.05,5.05,0,0,0-2.91-1A3.67,3.67,0,0,0,461.9,631a3.83,3.83,0,0,0-1.09,2.7,4,4,0,0,0,1,2.62,3.83,3.83,0,0,0,2.88,1.19,4.23,4.23,0,0,0,2.87-1.05Z"/><path d="M482.83,625.82h5.6v15.64h-5.6v-1.71A5.86,5.86,0,0,1,478,642a7.47,7.47,0,0,1-5.63-2.49,7.86,7.86,0,0,1-2.24-5.74,8.64,8.64,0,0,1,2.41-6.26,8.07,8.07,0,0,1,5.64-2.21,6.2,6.2,0,0,1,4.69,2Zm3.08-8.05a5.46,5.46,0,0,1-1.54,3.81,7.34,7.34,0,0,1-9.1,0,5.46,5.46,0,0,1-1.54-3.81h3.6a2.4,2.4,0,0,0,.7,1.43,2.84,2.84,0,0,0,3.57,0,2.35,2.35,0,0,0,.7-1.43Zm-9,13.3a3.52,3.52,0,0,0,0,5.11,4,4,0,0,0,2.52,1.05,3.64,3.64,0,0,0,2.53-1.09,3.39,3.39,0,0,0,1-2.52,3.47,3.47,0,0,0-1.08-2.55,3.54,3.54,0,0,0-5,0Z"/><circle cx="398.54" cy="509.95" r="12.73" style="fill:none;stroke:#f7931f;stroke-miterlimit:10;stroke-width:4.45599985122681px"/><rect x="346.34" y="536.68" width="52.84" height="3.82" rx="1.51" ry="1.51" transform="translate(-271.66 421.33) rotate(-45)" style="fill:#f7931f"/><rect x="360.02" y="550.37" width="2.55" height="10.82" rx="1.01" ry="1.01" transform="translate(-287.17 418.26) rotate(-45)" style="fill:#f7931f"/><rect x="364.71" y="546.19" width="2.55" height="13.29" rx="1.01" ry="1.01" transform="translate(-283.72 420.71) rotate(-45)" style="fill:#f7931f"/><rect x="368.85" y="542.05" width="2.55" height="13.29" rx="1.01" ry="1.01" transform="translate(-279.58 422.43) rotate(-45)" style="fill:#f7931f"/><rect x="317.48" y="483.03" width="129.49" height="91.35" rx="12" ry="12" style="fill:none;stroke:#c13018;stroke-miterlimit:10;stroke-width:5.10176146030426px"/><path d="M599.82,640.83a14.38,14.38,0,0,1-5.25,1.16,12.69,12.69,0,0,1-9-3.5A12.24,12.24,0,0,1,582,630a12.52,12.52,0,0,1,3.54-8.61,12.38,12.38,0,0,1,8.82-3.64,14.57,14.57,0,0,1,5.46,1.19v7.25a6.5,6.5,0,0,0-5.29-2.56,5.93,5.93,0,0,0-4.2,1.54,6.54,6.54,0,0,0-2,4.8,6.47,6.47,0,0,0,1.89,4.55,6.56,6.56,0,0,0,4.34,1.61,6.88,6.88,0,0,0,5.29-2.45Z"/><path d="M603.14,616h5.6v11.83a6.73,6.73,0,0,1,1.75-1.54,6.31,6.31,0,0,1,3.22-.77,6.22,6.22,0,0,1,4.62,1.68,5.45,5.45,0,0,1,1.47,4.37v9.94h-5.6v-7.91a4.65,4.65,0,0,0-.7-3,2.19,2.19,0,0,0-1.78-.67,3,3,0,0,0-2,.67,3.39,3.39,0,0,0-1,2.55v8.4h-5.6Z"/><path d="M639.51,634.67H627.85a4,4,0,0,0,1,2.63,3.15,3.15,0,0,0,2.31.77,4.51,4.51,0,0,0,1.82-.42,2.57,2.57,0,0,0,1-1h5.36a7.15,7.15,0,0,1-1.89,3.22c-1.16,1.12-3,2.17-6.37,2.17a8.9,8.9,0,0,1-6.48-2.38,8.19,8.19,0,0,1-2.31-5.92,8.33,8.33,0,0,1,2.35-6.05,8.79,8.79,0,0,1,6.4-2.28,8.57,8.57,0,0,1,6,2.14,8.75,8.75,0,0,1,2.49,6.58Zm-5.15-3.22a3.78,3.78,0,0,0-.91-1.68,3.28,3.28,0,0,0-2.31-.84,3,3,0,0,0-2.27.84,3.12,3.12,0,0,0-.84,1.68Z"/><path d="M645.53,616.16a3.15,3.15,0,1,1-3.15,3.15A3.14,3.14,0,0,1,645.53,616.16Zm2.8,9.66v15.64h-5.61V625.82Z"/><path d="M668.73,634.67H657.08a4,4,0,0,0,1,2.63,3.15,3.15,0,0,0,2.31.77,4.51,4.51,0,0,0,1.82-.42,2.64,2.64,0,0,0,1-1h5.35a7,7,0,0,1-1.89,3.22c-1.15,1.12-3,2.17-6.37,2.17a8.88,8.88,0,0,1-6.47-2.38,8.19,8.19,0,0,1-2.32-5.92,8.37,8.37,0,0,1,2.35-6.05,8.83,8.83,0,0,1,6.41-2.28,8.58,8.58,0,0,1,6,2.14,8.77,8.77,0,0,1,2.48,6.58Zm-5.14-3.22a3.78,3.78,0,0,0-.91-1.68,3.29,3.29,0,0,0-2.31-.84,3,3,0,0,0-2.28.84,3.27,3.27,0,0,0-.84,1.68Z"/><path d="M685.71,649.48H680.1V625.82h5.61v1.71a5.84,5.84,0,0,1,4.79-2.24,7.78,7.78,0,0,1,5.57,2.28,8.88,8.88,0,0,1-.14,12.25,7.56,7.56,0,0,1-5.36,2.17,6.64,6.64,0,0,1-4.86-2Zm.91-18.38a3.5,3.5,0,0,0,0,5.08,3.58,3.58,0,0,0,2.51,1.05,3.39,3.39,0,0,0,2.49-1.05,3.74,3.74,0,0,0,1.09-2.49,3.83,3.83,0,0,0-1.09-2.59,3.39,3.39,0,0,0-2.49-1.05A3.58,3.58,0,0,0,686.62,631.1Z"/><path d="M701.66,625.82h5.6v2.55a5.06,5.06,0,0,1,2.21-2.17,6.19,6.19,0,0,1,2.91-.63c.14,0,.38,0,1.12.07v5.29a5,5,0,0,0-2.42-.56,3.62,3.62,0,0,0-2.55.84,4.69,4.69,0,0,0-1.27,3.57v6.68h-5.6Z"/><path d="M718.78,616.16a3.15,3.15,0,1,1-3.15,3.15A3.14,3.14,0,0,1,718.78,616.16Zm2.8,9.66v15.64H716V625.82Z"/><path d="M729.73,625.82l3.75,8,3.81-8h6.24l-8.16,15.64h-3.82l-8.08-15.64Z"/><path d="M757.56,625.82h5.6v15.64h-5.6v-1.71A5.85,5.85,0,0,1,752.7,642a7.48,7.48,0,0,1-5.64-2.49,7.86,7.86,0,0,1-2.24-5.74,8.64,8.64,0,0,1,2.41-6.26,8.07,8.07,0,0,1,5.64-2.21,6.2,6.2,0,0,1,4.69,2Zm-5.88,5.25a3.52,3.52,0,0,0,0,5.11,4,4,0,0,0,2.53,1.05,3.6,3.6,0,0,0,2.52-1.09,3.4,3.4,0,0,0,1-2.52,3.45,3.45,0,0,0-1.09-2.55,3.54,3.54,0,0,0-5,0Z"/><path d="M773.21,630.4v11.06H767.6V630.4h-1.78v-4.58h1.78v-5.15h5.61v5.15h3.18v4.58Z"/><path d="M790.6,625.82h5.6v15.64h-5.6v-1.71a5.87,5.87,0,0,1-4.87,2.24,7.47,7.47,0,0,1-5.63-2.49,7.86,7.86,0,0,1-2.24-5.74,8.64,8.64,0,0,1,2.41-6.26,8.07,8.07,0,0,1,5.64-2.21,6.22,6.22,0,0,1,4.69,2Zm3.08-8.05a5.46,5.46,0,0,1-1.54,3.81,7.34,7.34,0,0,1-9.1,0,5.46,5.46,0,0,1-1.54-3.81h3.6a2.46,2.46,0,0,0,.7,1.43,2.86,2.86,0,0,0,3.58,0,2.52,2.52,0,0,0,.7-1.43Zm-9,13.3a3.52,3.52,0,0,0,0,5.11,4,4,0,0,0,2.53,1.05,3.59,3.59,0,0,0,2.51-1.09,3.4,3.4,0,0,0,1.06-2.52,3.48,3.48,0,0,0-1.09-2.55,3.54,3.54,0,0,0-5,0Z"/><circle cx="705.54" cy="509.95" r="12.73" style="fill:none;stroke:#3a5c84;stroke-miterlimit:10;stroke-width:4.45599985122681px"/><rect x="653.34" y="536.68" width="52.84" height="3.82" rx="1.51" ry="1.51" transform="translate(-181.75 638.41) rotate(-45)" style="fill:#3a5c84"/><rect x="667.02" y="550.37" width="2.55" height="10.82" rx="1.01" ry="1.01" transform="translate(-197.26 635.34) rotate(-45)" style="fill:#3a5c84"/><rect x="671.71" y="546.19" width="2.55" height="13.29" rx="1.01" ry="1.01" transform="translate(-193.8 637.79) rotate(-45)" style="fill:#3a5c84"/><rect x="675.85" y="542.05" width="2.55" height="13.29" rx="1.01" ry="1.01" transform="translate(-189.66 639.51) rotate(-45)" style="fill:#3a5c84"/><rect x="624.48" y="483.03" width="129.49" height="91.35" rx="12" ry="12" style="fill:none;stroke:#c13018;stroke-miterlimit:10;stroke-width:5.10176146030426px"/><path d="M332.41,272.7v5.52h-4.32V261.55H335a5.75,5.75,0,0,1,4.22,1.5,5.17,5.17,0,0,1,1.55,4.05,5.44,5.44,0,0,1-1.47,4.15,5.53,5.53,0,0,1-4.15,1.45Zm0-3.5h1.45a2.87,2.87,0,0,0,1.83-.52,1.94,1.94,0,0,0,.55-1.53,2,2,0,0,0-.5-1.5,2.56,2.56,0,0,0-1.85-.6h-1.48Z"/><path d="M342.69,267.05h4v1.83a3.6,3.6,0,0,1,1.57-1.55,4.32,4.32,0,0,1,2.08-.45l.8.05v3.77a3.54,3.54,0,0,0-1.73-.4,2.63,2.63,0,0,0-1.82.6,3.38,3.38,0,0,0-.9,2.55v4.77h-4Z"/><path d="M363.66,276.75a7.64,7.64,0,0,1-10,0,5.75,5.75,0,0,1,0-8.22,7.64,7.64,0,0,1,10,0,5.75,5.75,0,0,1,0,8.22Zm-6.77-5.95a2.47,2.47,0,0,0,0,3.6,2.5,2.5,0,0,0,3.57,0,2.45,2.45,0,0,0,.78-1.77,2.73,2.73,0,0,0-.78-1.83,2.57,2.57,0,0,0-3.57,0Z"/><path d="M376.14,278a5.9,5.9,0,0,1-2.78.63,6.2,6.2,0,0,1-4.4-1.7,5.82,5.82,0,0,1-1.72-4.17,6.08,6.08,0,0,1,1.8-4.33,6.45,6.45,0,0,1,4.5-1.7,5.75,5.75,0,0,1,2.6.63v3.35a3.56,3.56,0,0,0-2.08-.73,2.62,2.62,0,0,0-1.95.78,2.7,2.7,0,0,0-.77,1.92,2.86,2.86,0,0,0,.7,1.88,2.7,2.7,0,0,0,2,.85,3.07,3.07,0,0,0,2.05-.75Z"/><path d="M390.26,273.38h-8.32a2.78,2.78,0,0,0,.7,1.87,2.25,2.25,0,0,0,1.65.55,3.07,3.07,0,0,0,1.3-.3,1.9,1.9,0,0,0,.7-.75h3.82a4.91,4.91,0,0,1-1.35,2.3,6.06,6.06,0,0,1-4.55,1.55,6.35,6.35,0,0,1-4.62-1.7,5.84,5.84,0,0,1-1.65-4.22,6,6,0,0,1,1.67-4.33,6.31,6.31,0,0,1,4.58-1.62,6.12,6.12,0,0,1,4.3,1.52,6.27,6.27,0,0,1,1.77,4.7Zm-3.67-2.3a2.66,2.66,0,0,0-.65-1.2,2.31,2.31,0,0,0-1.65-.6,2.14,2.14,0,0,0-1.63.6,2.36,2.36,0,0,0-.6,1.2Z"/><path d="M393.29,274.53a5.52,5.52,0,0,0,1.6.82,5,5,0,0,0,1.55.28,1.72,1.72,0,0,0,1-.3.64.64,0,0,0,.2-.53.58.58,0,0,0-.2-.5,2.56,2.56,0,0,0-1-.4l-1.05-.25a3.55,3.55,0,0,1-1.95-1,2.74,2.74,0,0,1-.72-1.93,4,4,0,0,1,1.05-2.72,5.62,5.62,0,0,1,4-1.35,9.31,9.31,0,0,1,3.57.72L400,270a5.51,5.51,0,0,0-2.1-.55,1.67,1.67,0,0,0-.92.23.59.59,0,0,0-.35.55.64.64,0,0,0,.47.62c.38.15.7.15,1.33.33l.72.2a4.71,4.71,0,0,1,1.65.87,3.17,3.17,0,0,1,.85,2.23,3.73,3.73,0,0,1-1.12,2.77,5.81,5.81,0,0,1-4.13,1.4,8.3,8.3,0,0,1-4.5-1.3Z"/><path d="M422.13,278.22h-4V277a4.11,4.11,0,0,1-3.38,1.6,5.36,5.36,0,0,1-3.92-1.55,6.34,6.34,0,0,1,0-8.87,5.72,5.72,0,0,1,3.95-1.5,4.41,4.41,0,0,1,3.33,1.45V260h4Zm-4.72-3.69a2.68,2.68,0,0,0,.85-1.9,2.9,2.9,0,0,0-.75-1.8,2.42,2.42,0,0,0-1.82-.75,2.46,2.46,0,0,0-1.78.72,2.74,2.74,0,0,0-.77,1.9,2.52,2.52,0,0,0,.77,1.75,2.48,2.48,0,0,0,1.78.75A2.73,2.73,0,0,0,417.41,274.53Z"/><path d="M436.73,273.38h-8.32a2.83,2.83,0,0,0,.7,1.87,2.25,2.25,0,0,0,1.65.55,3.07,3.07,0,0,0,1.3-.3,1.83,1.83,0,0,0,.7-.75h3.82a4.91,4.91,0,0,1-1.35,2.3,6,6,0,0,1-4.54,1.55,6.37,6.37,0,0,1-4.63-1.7,5.88,5.88,0,0,1-1.65-4.22,6,6,0,0,1,1.68-4.33,6.27,6.27,0,0,1,4.57-1.62,6.11,6.11,0,0,1,4.3,1.52,6.27,6.27,0,0,1,1.77,4.7Zm-3.67-2.3a2.66,2.66,0,0,0-.65-1.2,2.3,2.3,0,0,0-1.65-.6,2.12,2.12,0,0,0-1.62.6,2.21,2.21,0,0,0-.6,1.2Z"/><path d="M346.3,308a5.9,5.9,0,0,1-2.78.63,6.16,6.16,0,0,1-4.39-1.7,5.83,5.83,0,0,1-1.73-4.17,6.12,6.12,0,0,1,1.8-4.33,6.45,6.45,0,0,1,4.5-1.7,5.75,5.75,0,0,1,2.6.63v3.35a3.56,3.56,0,0,0-2.08-.73,2.62,2.62,0,0,0-2,.78,2.7,2.7,0,0,0-.77,1.92,2.86,2.86,0,0,0,.7,1.88,2.7,2.7,0,0,0,2.05.85,3.07,3.07,0,0,0,2.05-.75Z"/><path d="M348.57,297.05h4v1.83a3.61,3.61,0,0,1,1.58-1.55,4.28,4.28,0,0,1,2.07-.45l.8.05v3.77a3.52,3.52,0,0,0-1.72-.4,2.66,2.66,0,0,0-1.83.6,3.38,3.38,0,0,0-.9,2.55v4.77h-4Z"/><path d="M360.8,290.15a2.25,2.25,0,1,1-2.25,2.25A2.24,2.24,0,0,1,360.8,290.15Zm2,6.9v11.17h-4V297.05Z"/><path d="M369.52,314h-4v-16.9h4v1.23a4.17,4.17,0,0,1,3.43-1.6,5.55,5.55,0,0,1,4,1.62,6.35,6.35,0,0,1-.1,8.75A5.39,5.39,0,0,1,373,308.6a4.76,4.76,0,0,1-3.48-1.45Zm.65-13.12a2.51,2.51,0,0,0,0,3.62,2.55,2.55,0,0,0,1.8.75,2.41,2.41,0,0,0,1.78-.75,2.65,2.65,0,0,0,.77-1.77,2.71,2.71,0,0,0-.77-1.85,2.41,2.41,0,0,0-1.78-.75A2.55,2.55,0,0,0,370.17,300.83Z"/><path d="M385.35,300.33v7.89h-4v-7.89h-1.27v-3.28h1.27v-3.67h4v3.67h2.27v3.28Z"/><path d="M397.77,297.05h4v11.17h-4V307a4.17,4.17,0,0,1-3.47,1.6,5.37,5.37,0,0,1-4-1.77,5.68,5.68,0,0,1-1.6-4.1,6.2,6.2,0,0,1,1.73-4.48,5.74,5.74,0,0,1,4-1.57,4.4,4.4,0,0,1,3.35,1.45Zm-4.2,3.75a2.63,2.63,0,0,0-.8,1.83,2.56,2.56,0,0,0,.78,1.82,2.79,2.79,0,0,0,1.8.75,2.56,2.56,0,0,0,1.8-.77,2.43,2.43,0,0,0,.75-1.8,2.46,2.46,0,0,0-.78-1.83,2.55,2.55,0,0,0-3.55,0Z"/><path d="M404.52,297.05h4v1.83a3.61,3.61,0,0,1,1.58-1.55,4.28,4.28,0,0,1,2.07-.45l.8.05v3.77a3.52,3.52,0,0,0-1.72-.4,2.66,2.66,0,0,0-1.83.6,3.38,3.38,0,0,0-.9,2.55v4.77h-4Z"/><path d="M426.6,303.38h-8.33a2.83,2.83,0,0,0,.7,1.87,2.25,2.25,0,0,0,1.65.55,3.07,3.07,0,0,0,1.3-.3,1.83,1.83,0,0,0,.7-.75h3.83a5.09,5.09,0,0,1-1.35,2.3,6.09,6.09,0,0,1-4.55,1.55,6.37,6.37,0,0,1-4.63-1.7,5.88,5.88,0,0,1-1.65-4.22,6,6,0,0,1,1.68-4.33,6.27,6.27,0,0,1,4.57-1.62,6.11,6.11,0,0,1,4.3,1.52,6.24,6.24,0,0,1,1.78,4.7Zm-3.68-2.3a2.66,2.66,0,0,0-.65-1.2,2.3,2.3,0,0,0-1.65-.6,2.12,2.12,0,0,0-1.62.6,2.21,2.21,0,0,0-.6,1.2Z"/><path d="M642.41,272.7v5.52h-4.32V261.55H645a5.75,5.75,0,0,1,4.22,1.5,5.17,5.17,0,0,1,1.55,4.05,5.44,5.44,0,0,1-1.47,4.15,5.53,5.53,0,0,1-4.15,1.45Zm0-3.5h1.45a2.87,2.87,0,0,0,1.83-.52,1.94,1.94,0,0,0,.55-1.53,2,2,0,0,0-.5-1.5,2.56,2.56,0,0,0-1.85-.6h-1.48Z"/><path d="M652.69,267.05h4v1.83a3.6,3.6,0,0,1,1.57-1.55,4.32,4.32,0,0,1,2.08-.45l.8.05v3.77a3.54,3.54,0,0,0-1.73-.4,2.63,2.63,0,0,0-1.82.6,3.38,3.38,0,0,0-.9,2.55v4.77h-4Z"/><path d="M673.66,276.75a7.64,7.64,0,0,1-10,0,5.75,5.75,0,0,1,0-8.22,7.64,7.64,0,0,1,10,0,5.75,5.75,0,0,1,0,8.22Zm-6.77-5.95a2.47,2.47,0,0,0,0,3.6,2.5,2.5,0,0,0,3.57,0,2.45,2.45,0,0,0,.78-1.77,2.73,2.73,0,0,0-.78-1.83,2.57,2.57,0,0,0-3.57,0Z"/><path d="M686.14,278a5.9,5.9,0,0,1-2.78.63,6.2,6.2,0,0,1-4.4-1.7,5.82,5.82,0,0,1-1.72-4.17,6.08,6.08,0,0,1,1.8-4.33,6.45,6.45,0,0,1,4.5-1.7,5.75,5.75,0,0,1,2.6.63v3.35a3.56,3.56,0,0,0-2.08-.73,2.62,2.62,0,0,0-1.95.78,2.7,2.7,0,0,0-.77,1.92,2.86,2.86,0,0,0,.7,1.88,2.7,2.7,0,0,0,2.05.85,3.07,3.07,0,0,0,2-.75Z"/><path d="M700.26,273.38h-8.32a2.78,2.78,0,0,0,.7,1.87,2.25,2.25,0,0,0,1.65.55,3.07,3.07,0,0,0,1.3-.3,1.9,1.9,0,0,0,.7-.75h3.82a4.91,4.91,0,0,1-1.35,2.3,6.06,6.06,0,0,1-4.55,1.55,6.35,6.35,0,0,1-4.62-1.7,5.84,5.84,0,0,1-1.65-4.22,6,6,0,0,1,1.67-4.33,6.31,6.31,0,0,1,4.58-1.62,6.12,6.12,0,0,1,4.3,1.52,6.27,6.27,0,0,1,1.77,4.7Zm-3.67-2.3a2.66,2.66,0,0,0-.65-1.2,2.31,2.31,0,0,0-1.65-.6,2.14,2.14,0,0,0-1.63.6,2.36,2.36,0,0,0-.6,1.2Z"/><path d="M703.29,274.53a5.52,5.52,0,0,0,1.6.82,5,5,0,0,0,1.55.28,1.72,1.72,0,0,0,1-.3.64.64,0,0,0,.2-.53.58.58,0,0,0-.2-.5,2.56,2.56,0,0,0-1.05-.4l-1-.25a3.55,3.55,0,0,1-2-1,2.74,2.74,0,0,1-.72-1.93,4,4,0,0,1,1-2.72,5.62,5.62,0,0,1,4-1.35,9.31,9.31,0,0,1,3.57.72L710,270a5.51,5.51,0,0,0-2.1-.55,1.67,1.67,0,0,0-.92.23.59.59,0,0,0-.35.55.64.64,0,0,0,.47.62c.38.15.7.15,1.33.33l.72.2a4.71,4.71,0,0,1,1.65.87,3.17,3.17,0,0,1,.85,2.23,3.73,3.73,0,0,1-1.12,2.77,5.81,5.81,0,0,1-4.13,1.4,8.3,8.3,0,0,1-4.5-1.3Z"/><path d="M732.13,278.22h-4V277a4.08,4.08,0,0,1-3.37,1.6,5.36,5.36,0,0,1-3.92-1.55,6.34,6.34,0,0,1,0-8.87,5.72,5.72,0,0,1,3.95-1.5,4.38,4.38,0,0,1,3.32,1.45V260h4Zm-4.72-3.69a2.68,2.68,0,0,0,.85-1.9,2.9,2.9,0,0,0-.75-1.8,2.42,2.42,0,0,0-1.82-.75,2.46,2.46,0,0,0-1.78.72,2.74,2.74,0,0,0-.77,1.9,2.52,2.52,0,0,0,.77,1.75,2.48,2.48,0,0,0,1.78.75A2.73,2.73,0,0,0,727.41,274.53Z"/><path d="M746.73,273.38h-8.32a2.83,2.83,0,0,0,.7,1.87,2.25,2.25,0,0,0,1.65.55,3.07,3.07,0,0,0,1.3-.3,1.83,1.83,0,0,0,.7-.75h3.82a4.91,4.91,0,0,1-1.35,2.3,6,6,0,0,1-4.54,1.55,6.37,6.37,0,0,1-4.63-1.7,5.88,5.88,0,0,1-1.65-4.22,6,6,0,0,1,1.68-4.33,6.27,6.27,0,0,1,4.57-1.62,6.12,6.12,0,0,1,4.3,1.52,6.23,6.23,0,0,1,1.77,4.7Zm-3.67-2.3a2.66,2.66,0,0,0-.65-1.2,2.3,2.3,0,0,0-1.65-.6,2.12,2.12,0,0,0-1.62.6,2.21,2.21,0,0,0-.6,1.2Z"/><path d="M645.72,308.22h-4V307a4.09,4.09,0,0,1-3.37,1.6,5.38,5.38,0,0,1-3.93-1.55,6.17,6.17,0,0,1-1.79-4.45,6.08,6.08,0,0,1,1.82-4.42,5.71,5.71,0,0,1,3.95-1.5,4.39,4.39,0,0,1,3.32,1.45V290h4ZM641,304.53a2.72,2.72,0,0,0,.85-1.9,2.9,2.9,0,0,0-.75-1.8,2.57,2.57,0,0,0-3.6,0,2.75,2.75,0,0,0-.78,1.9,2.62,2.62,0,0,0,2.55,2.5A2.78,2.78,0,0,0,641,304.53Z"/><path d="M660.32,303.38H652a2.78,2.78,0,0,0,.7,1.87,2.25,2.25,0,0,0,1.65.55,3.07,3.07,0,0,0,1.3-.3,1.9,1.9,0,0,0,.7-.75h3.82a4.91,4.91,0,0,1-1.35,2.3,6.06,6.06,0,0,1-4.55,1.55,6.35,6.35,0,0,1-4.62-1.7,5.88,5.88,0,0,1-1.65-4.22,6,6,0,0,1,1.67-4.33,6.31,6.31,0,0,1,4.58-1.62,6.12,6.12,0,0,1,4.3,1.52,6.27,6.27,0,0,1,1.77,4.7Zm-3.67-2.3a2.66,2.66,0,0,0-.65-1.2,2.31,2.31,0,0,0-1.65-.6,2.14,2.14,0,0,0-1.63.6,2.27,2.27,0,0,0-.59,1.2Z"/><path d="M671.07,308a5.87,5.87,0,0,1-2.77.63,6.2,6.2,0,0,1-4.4-1.7,5.82,5.82,0,0,1-1.72-4.17A6.11,6.11,0,0,1,664,298.4a6.45,6.45,0,0,1,4.5-1.7,5.75,5.75,0,0,1,2.6.63v3.35A3.51,3.51,0,0,0,669,300a2.62,2.62,0,0,0-2,.78,2.71,2.71,0,0,0-.78,1.92,2.91,2.91,0,0,0,.7,1.88,2.73,2.73,0,0,0,2,.85,3,3,0,0,0,2.05-.75Z"/><path d="M673.35,297.05h4v1.83a3.6,3.6,0,0,1,1.57-1.55,4.32,4.32,0,0,1,2.08-.45l.8.05v3.77a3.54,3.54,0,0,0-1.73-.4,2.63,2.63,0,0,0-1.82.6,3.38,3.38,0,0,0-.9,2.55v4.77h-4Z"/><path d="M685.57,290.15a2.25,2.25,0,1,1-2.25,2.25A2.24,2.24,0,0,1,685.57,290.15Zm2,6.9v11.17h-4V297.05Z"/><path d="M694.3,314h-4v-16.9h4v1.23a4.15,4.15,0,0,1,3.42-1.6,5.56,5.56,0,0,1,4,1.62,6.35,6.35,0,0,1-.1,8.75,5.39,5.39,0,0,1-3.83,1.55,4.75,4.75,0,0,1-3.47-1.45Zm.65-13.12a2.72,2.72,0,0,0-.78,1.85,2.66,2.66,0,0,0,.78,1.77,2.52,2.52,0,0,0,1.8.75,2.38,2.38,0,0,0,1.77-.75,2.61,2.61,0,0,0,.78-1.77,2.72,2.72,0,0,0-.78-1.85,2.38,2.38,0,0,0-1.77-.75A2.52,2.52,0,0,0,695,300.83Z"/><path d="M710.12,300.33v7.89h-4v-7.89h-1.28v-3.28h1.28v-3.67h4v3.67h2.28v3.28Z"/><path d="M722.55,297.05h4v11.17h-4V307a4.2,4.2,0,0,1-3.48,1.6,5.35,5.35,0,0,1-4-1.77,5.64,5.64,0,0,1-1.6-4.1,6.19,6.19,0,0,1,1.72-4.48,5.76,5.76,0,0,1,4-1.57,4.41,4.41,0,0,1,3.35,1.45Zm-4.2,3.75a2.63,2.63,0,0,0-.8,1.83,2.55,2.55,0,0,0,.77,1.82,2.83,2.83,0,0,0,1.8.75,2.56,2.56,0,0,0,1.8-.77,2.43,2.43,0,0,0,.75-1.8,2.49,2.49,0,0,0-.77-1.83,2.57,2.57,0,0,0-1.8-.72A2.54,2.54,0,0,0,718.35,300.8Z"/><path d="M729.3,297.05h4v1.83a3.6,3.6,0,0,1,1.57-1.55,4.32,4.32,0,0,1,2.08-.45l.8.05v3.77a3.54,3.54,0,0,0-1.73-.4,2.63,2.63,0,0,0-1.82.6,3.38,3.38,0,0,0-.9,2.55v4.77h-4Z"/><path d="M751.37,303.38h-8.32a2.78,2.78,0,0,0,.7,1.87,2.25,2.25,0,0,0,1.65.55,3.07,3.07,0,0,0,1.3-.3,1.9,1.9,0,0,0,.7-.75h3.82a4.91,4.91,0,0,1-1.35,2.3,6.06,6.06,0,0,1-4.55,1.55,6.35,6.35,0,0,1-4.62-1.7,5.84,5.84,0,0,1-1.65-4.22,6,6,0,0,1,1.67-4.33,6.31,6.31,0,0,1,4.58-1.62,6.12,6.12,0,0,1,4.3,1.52,6.27,6.27,0,0,1,1.77,4.7Zm-3.67-2.3a2.66,2.66,0,0,0-.65-1.2,2.31,2.31,0,0,0-1.65-.6,2.14,2.14,0,0,0-1.63.6,2.36,2.36,0,0,0-.6,1.2Z"/></svg>