<svg id="Layer_1" data-name="Layer 1" xmlns="http://www.w3.org/2000/svg" viewBox="0 0 1224 678"><title>Capitolul12</title><rect x="42" y="31" width="570" height="279.5" rx="12" ry="12" style="fill:none;stroke:#636868;stroke-miterlimit:10;stroke-width:4.10333393688478px"/><rect x="664.5" y="25.76" width="518" height="629.5" rx="12" ry="12" style="fill:none;stroke:#636868;stroke-miterlimit:10;stroke-width:5.87044840257222px"/><path d="M67.94,48.18H66V45.24H71.4V58.58H67.94Z"/><path d="M75.6,58.34a2.08,2.08,0,0,1,1.46-3.54,2.1,2.1,0,0,1,1.48.64,2.08,2.08,0,0,1,0,2.9,2,2,0,0,1-1.46.62A2,2,0,0,1,75.6,58.34Z"/><path d="M87,54.58a4.67,4.67,0,0,0,3.06,1.36,1.76,1.76,0,0,0,1.34-.46,1.19,1.19,0,0,0,.34-.84,1,1,0,0,0-.38-.8,4.8,4.8,0,0,0-1.72-.7l-.9-.28a4.36,4.36,0,0,1-1.92-1.08,3.36,3.36,0,0,1-.76-2.36A4.36,4.36,0,0,1,87.3,46.2a4.7,4.7,0,0,1,3.42-1.26A9.37,9.37,0,0,1,94.84,46l-1.38,2.7a3.52,3.52,0,0,0-2.28-.9,1.66,1.66,0,0,0-1.14.4,1,1,0,0,0-.34.72.89.89,0,0,0,.18.6,2.19,2.19,0,0,0,1.16.6l1.06.32a5.1,5.1,0,0,1,2.42,1.32,3.15,3.15,0,0,1,.86,2.38,4.52,4.52,0,0,1-1.26,3.36,5.17,5.17,0,0,1-3.94,1.36,7.13,7.13,0,0,1-2.62-.44,9.31,9.31,0,0,1-2-1.06Z"/><path d="M100.8,52.26v6.32H97.6V52.26h-1V49.64h1V46.7h3.2v2.94h1.82v2.62Z"/><path d="M113.3,54.7h-6.66a2.26,2.26,0,0,0,.56,1.5,1.8,1.8,0,0,0,1.32.44,2.52,2.52,0,0,0,1-.24,1.49,1.49,0,0,0,.56-.6h3.06a4,4,0,0,1-1.08,1.84,4.86,4.86,0,0,1-3.64,1.24,5.07,5.07,0,0,1-3.7-1.36,4.68,4.68,0,0,1-1.32-3.38,4.77,4.77,0,0,1,1.34-3.46,5,5,0,0,1,3.66-1.3,4.9,4.9,0,0,1,3.44,1.22,5,5,0,0,1,1.42,3.76Zm-2.94-1.84a2.15,2.15,0,0,0-.52-1,1.86,1.86,0,0,0-1.32-.48,1.72,1.72,0,0,0-1.3.48,1.82,1.82,0,0,0-.48,1Z"/><path d="M122.06,49.64h3.2v8.94h-3.2v-1a3.34,3.34,0,0,1-2.78,1.28,4.28,4.28,0,0,1-3.22-1.42,4.51,4.51,0,0,1-1.28-3.28,5,5,0,0,1,1.38-3.58,4.6,4.6,0,0,1,3.22-1.26,3.54,3.54,0,0,1,2.68,1.16Zm-3.36,3a2.09,2.09,0,0,0-.64,1.46,2.06,2.06,0,0,0,.62,1.46,2.25,2.25,0,0,0,1.44.6,2.05,2.05,0,0,0,1.44-.62,1.94,1.94,0,0,0,.6-1.44,2,2,0,0,0-.62-1.46,2,2,0,0,0-2.84,0Z"/><path d="M130.66,44V58.58h-3.2V44Z"/><path d="M512.88,227.89c-.65.47-1.31.93-2,1.37l-.93.59c-.88.55-1.77,1.06-2.68,1.55l-.61.31a47.43,47.43,0,0,1-6.49,2.74l-.23.08c-1.17.39-2.35.73-3.54,1h0c-1.21.3-2.43.54-3.65.75h-.11c-1.15.19-2.31.33-3.48.43l-.62.05c-1.16.08-2.32.14-3.48.14s-2.36-.06-3.53-.14l-.6-.05c-1.18-.11-2.35-.24-3.52-.43l-.15,0a46.91,46.91,0,0,1-7.23-1.81l-.22-.07c-1.17-.4-2.33-.84-3.47-1.33h0c-1.07-.46-2.13-1-3.17-1.52l-.41-.21c-.95-.5-1.88-1.05-2.79-1.62l-.81-.52c-.85-.56-1.68-1.13-2.49-1.74l-.25-.19.18-.1,14.7-8a7.87,7.87,0,0,0,4.1-6.91v-6.69L475,205a31.14,31.14,0,0,1-5.58-11.56l-.17-.73-.63-.41a3.1,3.1,0,0,1-1.43-2.59v-6.59a3.05,3.05,0,0,1,1-2.28l.61-.55V170l0-.24a11.25,11.25,0,0,1,2.6-8.11c2.69-3.06,7.29-4.62,13.69-4.62s11,1.55,13.66,4.59a11.35,11.35,0,0,1,2.62,8.14v10.6l.61.56a3,3,0,0,1,1,2.27v6.59a3.1,3.1,0,0,1-2.19,2.93l-.93.28-.29.92a34.54,34.54,0,0,1-4.64,9.36,21.11,21.11,0,0,1-1.37,1.76l-.46.53v6.88a7.81,7.81,0,0,0,4.34,7l15.75,7.87.29.15C513.28,227.61,513.08,227.74,512.88,227.89Z" style="fill:none;stroke:#c13018;stroke-miterlimit:10;stroke-width:5px"/><circle cx="484.95" cy="183.79" r="52.85" style="fill:none;stroke:#c13018;stroke-miterlimit:10;stroke-width:5px"/><path d="M549.47,209.68,523.15,166a3.68,3.68,0,0,0-6.3,0l-26.32,43.66a3.67,3.67,0,0,0,3.15,5.57h52.64a3.68,3.68,0,0,0,3.15-5.57ZM520,179.34c1.51,0,2.79.86,2.79,2.37,0,4.61-.54,11.24-.54,15.85,0,1.21-1.32,1.71-2.25,1.71-1.24,0-2.29-.5-2.29-1.71,0-4.61-.54-11.24-.54-15.85C517.19,180.2,518.43,179.34,520,179.34Zm0,28.57a3,3,0,1,1,2.94-3A3,3,0,0,1,520.06,207.91Z" style="fill:#f7931f"/><path d="M949.88,172.89c-.65.47-1.31.93-2,1.37l-.93.59c-.88.55-1.77,1.06-2.68,1.55l-.61.31a47.43,47.43,0,0,1-6.49,2.74l-.23.08c-1.17.39-2.35.73-3.54,1h0c-1.21.3-2.43.54-3.65.75h-.11c-1.15.19-2.31.33-3.48.43l-.62.05c-1.16.08-2.32.14-3.48.14s-2.36-.06-3.53-.14l-.6-.05c-1.18-.11-2.35-.24-3.52-.43l-.15,0a46.91,46.91,0,0,1-7.23-1.81l-.22-.07c-1.17-.4-2.33-.84-3.47-1.33h0c-1.07-.46-2.13-1-3.17-1.52l-.41-.21c-1-.5-1.88-1.05-2.79-1.62l-.81-.52c-.85-.56-1.68-1.13-2.49-1.74l-.25-.19.18-.1,14.7-8a7.87,7.87,0,0,0,4.1-6.91v-6.69L912,150a31.14,31.14,0,0,1-5.58-11.56l-.17-.73-.63-.41a3.1,3.1,0,0,1-1.43-2.59v-6.59a3.05,3.05,0,0,1,1-2.28l.61-.55V115l0-.24a11.25,11.25,0,0,1,2.6-8.11c2.69-3.06,7.29-4.62,13.69-4.62s11,1.55,13.66,4.59a11.35,11.35,0,0,1,2.62,8.14v10.6l.61.56a3,3,0,0,1,1,2.27v6.59a3.1,3.1,0,0,1-2.19,2.93l-.93.28-.29.92a34.54,34.54,0,0,1-4.64,9.36,21.11,21.11,0,0,1-1.37,1.76l-.46.53v6.88a7.81,7.81,0,0,0,4.34,7l15.75,7.87.29.15C950.28,172.61,950.08,172.74,949.88,172.89Z" style="fill:none;stroke:#c13018;stroke-miterlimit:10;stroke-width:5px"/><circle cx="921.95" cy="128.79" r="52.85" style="fill:none;stroke:#c13018;stroke-miterlimit:10;stroke-width:5px"/><path d="M986.47,154.68,960.15,111a3.68,3.68,0,0,0-6.3,0l-26.32,43.66a3.67,3.67,0,0,0,3.15,5.57h52.64a3.68,3.68,0,0,0,3.15-5.57ZM957,124.34c1.51,0,2.79.86,2.79,2.37,0,4.61-.54,11.24-.54,15.85,0,1.21-1.32,1.71-2.25,1.71-1.24,0-2.29-.5-2.29-1.71,0-4.61-.54-11.24-.54-15.85C954.19,125.2,955.43,124.34,957,124.34Zm0,28.57a3,3,0,1,1,2.94-3A3,3,0,0,1,957.06,152.91Z" style="fill:#f7931f"/><rect x="80" y="120.35" width="148" height="89.21" rx="12" ry="12" style="fill:none;stroke:#91c54f;stroke-miterlimit:10;stroke-width:5px"/><rect x="130.18" y="209.05" width="47.64" height="16.22" rx="4.38" ry="4.38" style="fill:#91c54f"/><rect x="99.26" y="223.75" width="109.48" height="22.3" rx="6.03" ry="6.03" style="fill:none;stroke:#91c54f;stroke-miterlimit:10;stroke-width:5px"/><circle cx="111.42" cy="231.86" r="2.03" style="fill:#91c54f"/><circle cx="117.24" cy="231.86" r="2.03" style="fill:#91c54f"/><circle cx="111.42" cy="237.94" r="2.03" style="fill:#91c54f"/><circle cx="117.24" cy="237.94" r="2.03" style="fill:#91c54f"/><rect x="170.22" y="232.87" width="31.42" height="3.04" rx="0.82" ry="0.82" style="fill:none;stroke:#91c54f;stroke-miterlimit:10;stroke-width:5px"/><line x1="142.6" y1="179.17" x2="165.48" y2="179.17" style="fill:none;stroke:#91c54f;stroke-miterlimit:10;stroke-width:2.20496356440663px"/><line x1="142.6" y1="173.25" x2="165.48" y2="173.25" style="fill:none;stroke:#91c54f;stroke-miterlimit:10;stroke-width:2.20496356440663px"/><line x1="142.6" y1="167.33" x2="165.48" y2="167.33" style="fill:none;stroke:#91c54f;stroke-miterlimit:10;stroke-width:2.20496356440663px"/><line x1="142.6" y1="161.41" x2="165.48" y2="161.41" style="fill:none;stroke:#91c54f;stroke-miterlimit:10;stroke-width:2.20496356440663px"/><line x1="142.6" y1="155.49" x2="152.04" y2="155.49" style="fill:none;stroke:#91c54f;stroke-miterlimit:10;stroke-width:2.20496356440663px"/><path d="M164.28,153.36a3.2,3.2,0,0,1-3.19-3.19v-6H141.27a3.21,3.21,0,0,0-3.2,3.19V180.9a3.21,3.21,0,0,0,3.2,3.19h25.54A3.21,3.21,0,0,0,170,180.9V153.36Z" style="fill:none;stroke:#91c54f;stroke-miterlimit:10;stroke-width:2.20496356440663px"/><polygon points="278.59 197.64 363.11 197.64 363.11 209.82 389 183.94 363.11 158.05 363.11 170.23 278.59 170.23 278.59 197.64" style="fill:none;stroke:#c13018;stroke-miterlimit:10;stroke-width:5px"/><line x1="313.6" y1="150.17" x2="336.48" y2="150.17" style="fill:none;stroke:#c13018;stroke-miterlimit:10;stroke-width:2px"/><line x1="313.6" y1="144.25" x2="336.48" y2="144.25" style="fill:none;stroke:#c13018;stroke-miterlimit:10;stroke-width:2px"/><line x1="313.6" y1="138.33" x2="336.48" y2="138.33" style="fill:none;stroke:#c13018;stroke-miterlimit:10;stroke-width:2px"/><line x1="313.6" y1="132.41" x2="336.48" y2="132.41" style="fill:none;stroke:#c13018;stroke-miterlimit:10;stroke-width:2px"/><line x1="313.6" y1="126.49" x2="323.04" y2="126.49" style="fill:none;stroke:#c13018;stroke-miterlimit:10;stroke-width:2px"/><path d="M335.28,124.36a3.2,3.2,0,0,1-3.19-3.19v-6H312.27a3.21,3.21,0,0,0-3.2,3.19V151.9a3.21,3.21,0,0,0,3.2,3.19h25.54A3.21,3.21,0,0,0,341,151.9V124.36Z" style="fill:none;stroke:#c13018;stroke-miterlimit:10;stroke-width:2px"/><path d="M459.82,272.34H455l-.9,2.24h-3.66l5.12-13.34h3.78l5,13.34h-3.7Zm-.92-2.64-1.5-4.32-1.46,4.32Z"/><path d="M469.12,268.26v6.32h-3.2v-6.32h-1v-2.62h1V262.7h3.2v2.94h1.82v2.62Z"/><path d="M479.06,265.64h3.2v8.94h-3.2v-1a3.34,3.34,0,0,1-2.78,1.28,4.28,4.28,0,0,1-3.22-1.42,4.51,4.51,0,0,1-1.28-3.28,5,5,0,0,1,1.38-3.58,4.6,4.6,0,0,1,3.22-1.26,3.54,3.54,0,0,1,2.68,1.16Zm-3.36,3a2.09,2.09,0,0,0-.64,1.46,2.06,2.06,0,0,0,.62,1.46,2.25,2.25,0,0,0,1.44.6,2.05,2.05,0,0,0,1.44-.62,1.94,1.94,0,0,0,.6-1.44,2,2,0,0,0-.62-1.46,2,2,0,0,0-2.84,0Z"/><path d="M491.22,274.38a4.75,4.75,0,0,1-2.22.5,4.94,4.94,0,0,1-3.52-1.36,4.68,4.68,0,0,1-1.38-3.34,4.87,4.87,0,0,1,1.44-3.46,5.16,5.16,0,0,1,3.6-1.36,4.59,4.59,0,0,1,2.08.5v2.68a2.85,2.85,0,0,0-1.66-.58,2.1,2.1,0,0,0-1.56.62,2.18,2.18,0,0,0-.62,1.54,2.3,2.3,0,0,0,.56,1.5,2.17,2.17,0,0,0,1.64.68,2.42,2.42,0,0,0,1.64-.6Z"/><path d="M500,265.64h3.2v8.94H500v-1a3.34,3.34,0,0,1-2.78,1.28,4.28,4.28,0,0,1-3.22-1.42,4.51,4.51,0,0,1-1.28-3.28,5,5,0,0,1,1.38-3.58,4.6,4.6,0,0,1,3.22-1.26A3.54,3.54,0,0,1,500,266.5Zm-3.36,3a2.09,2.09,0,0,0-.64,1.46,2.06,2.06,0,0,0,.62,1.46,2.25,2.25,0,0,0,1.44.6,2.05,2.05,0,0,0,1.44-.62,1.94,1.94,0,0,0,.6-1.44,2,2,0,0,0-.62-1.46,2,2,0,0,0-2.84,0Z"/><path d="M508.9,268.26v6.32h-3.2v-6.32h-1v-2.62h1V262.7h3.2v2.94h1.82v2.62Z"/><path d="M520.92,273.4a6.12,6.12,0,0,1-8,0,4.61,4.61,0,0,1,0-6.58,5.58,5.58,0,0,1,4-1.48,5.65,5.65,0,0,1,4,1.48,4.61,4.61,0,0,1,0,6.58Zm-5.42-4.76a2,2,0,0,0,1.44,3.48,2,2,0,0,0,1.42-.6,2,2,0,0,0,.62-1.42,2.17,2.17,0,0,0-.62-1.46,2.05,2.05,0,0,0-2.86,0Z"/><path d="M524.14,265.64h3.2v1.46a2.88,2.88,0,0,1,1.26-1.24,3.49,3.49,0,0,1,1.66-.36l.64,0v3a2.82,2.82,0,0,0-1.38-.32,2.1,2.1,0,0,0-1.46.48,2.7,2.7,0,0,0-.72,2v3.82h-3.2Z"/><path d="M121.52,270.58a4.67,4.67,0,0,0,3.06,1.36,1.76,1.76,0,0,0,1.34-.46,1.19,1.19,0,0,0,.34-.84,1,1,0,0,0-.38-.8,4.8,4.8,0,0,0-1.72-.7l-.9-.28a4.36,4.36,0,0,1-1.92-1.08,3.36,3.36,0,0,1-.76-2.36,4.36,4.36,0,0,1,1.22-3.22,4.7,4.7,0,0,1,3.42-1.26,9.37,9.37,0,0,1,4.12,1.08l-1.38,2.7a3.52,3.52,0,0,0-2.28-.9,1.66,1.66,0,0,0-1.14.4,1,1,0,0,0-.34.72.89.89,0,0,0,.18.6,2.19,2.19,0,0,0,1.16.6l1.06.32a5.1,5.1,0,0,1,2.42,1.32,3.15,3.15,0,0,1,.86,2.38,4.52,4.52,0,0,1-1.26,3.36,5.17,5.17,0,0,1-3.94,1.36,7.13,7.13,0,0,1-2.62-.44,9.31,9.31,0,0,1-2-1.06Z"/><path d="M133.36,260.12a1.8,1.8,0,1,1-1.8,1.8A1.79,1.79,0,0,1,133.36,260.12Zm1.6,5.52v8.94h-3.2v-8.94Z"/><path d="M137.72,271.62a4.58,4.58,0,0,0,1.28.66,4.16,4.16,0,0,0,1.24.22,1.36,1.36,0,0,0,.82-.24.51.51,0,0,0,.16-.42.47.47,0,0,0-.16-.4,2,2,0,0,0-.84-.32l-.84-.2a2.88,2.88,0,0,1-1.56-.78,2.16,2.16,0,0,1-.58-1.54,3.19,3.19,0,0,1,.84-2.18,4.51,4.51,0,0,1,3.2-1.08,7.38,7.38,0,0,1,2.86.58l-1.08,2a4.43,4.43,0,0,0-1.68-.44,1.35,1.35,0,0,0-.74.18.48.48,0,0,0-.28.44.52.52,0,0,0,.38.5c.3.12.56.12,1.06.26l.58.16a3.78,3.78,0,0,1,1.32.7,2.53,2.53,0,0,1,.68,1.78,3,3,0,0,1-.9,2.22,4.65,4.65,0,0,1-3.3,1.12,6.6,6.6,0,0,1-3.6-1Z"/><path d="M149.56,268.26v6.32h-3.2v-6.32h-1v-2.62h1V262.7h3.2v2.94h1.82v2.62Z"/><path d="M162.06,270.7H155.4a2.26,2.26,0,0,0,.56,1.5,1.8,1.8,0,0,0,1.32.44,2.52,2.52,0,0,0,1-.24,1.49,1.49,0,0,0,.56-.6h3.06a4,4,0,0,1-1.08,1.84,4.86,4.86,0,0,1-3.64,1.24,5.07,5.07,0,0,1-3.7-1.36,4.68,4.68,0,0,1-1.32-3.38,4.77,4.77,0,0,1,1.34-3.46,5,5,0,0,1,3.66-1.3,4.9,4.9,0,0,1,3.44,1.22,5,5,0,0,1,1.42,3.76Zm-2.94-1.84a2.15,2.15,0,0,0-.52-1,1.86,1.86,0,0,0-1.32-.48,1.72,1.72,0,0,0-1.3.48,1.82,1.82,0,0,0-.48,1Z"/><path d="M163.9,265.64h3.2v1.08a3.43,3.43,0,0,1,2.68-1.24,3.64,3.64,0,0,1,1.72.4,2.79,2.79,0,0,1,1.24,1.28,3.14,3.14,0,0,1,1.22-1.24,3.63,3.63,0,0,1,1.86-.44,3.55,3.55,0,0,1,2.48.82,3.28,3.28,0,0,1,.84,2.46v5.82h-3.2v-4.42a2.66,2.66,0,0,0-.46-1.92,1.17,1.17,0,0,0-.84-.3,1.3,1.3,0,0,0-.94.36,2.29,2.29,0,0,0-.58,1.7v4.58h-3.2v-4.42a2.86,2.86,0,0,0-.42-1.92,1.24,1.24,0,0,0-1-.36,1.13,1.13,0,0,0-.88.32,2.64,2.64,0,0,0-.56,2v4.42h-3.2Z"/><path d="M119.66,289.64l2.14,4.58,2.18-4.58h3.56l-4.66,8.94H120.7l-4.62-8.94Z"/><path d="M130.24,284.12a1.8,1.8,0,1,1-1.8,1.8A1.79,1.79,0,0,1,130.24,284.12Zm1.6,5.52v8.94h-3.2v-8.94Z"/><path d="M140.78,298.38a4.75,4.75,0,0,1-2.22.5,4.94,4.94,0,0,1-3.52-1.36,4.68,4.68,0,0,1-1.38-3.34,4.87,4.87,0,0,1,1.44-3.46,5.16,5.16,0,0,1,3.6-1.36,4.59,4.59,0,0,1,2.08.5v2.68a2.85,2.85,0,0,0-1.66-.58,2.1,2.1,0,0,0-1.56.62,2.18,2.18,0,0,0-.62,1.54,2.3,2.3,0,0,0,.56,1.5,2.17,2.17,0,0,0,1.64.68,2.42,2.42,0,0,0,1.64-.6Z"/><path d="M146.34,292.26v6.32h-3.2v-6.32h-1v-2.62h1V286.7h3.2v2.94h1.82v2.62Z"/><path d="M151,284.12a1.8,1.8,0,1,1-1.8,1.8A1.79,1.79,0,0,1,151,284.12Zm1.6,5.52v8.94h-3.2v-8.94Z"/><path d="M154.74,289.64h3.2v1.08a3.43,3.43,0,0,1,2.68-1.24,3.64,3.64,0,0,1,1.72.4,2.79,2.79,0,0,1,1.24,1.28,3.14,3.14,0,0,1,1.22-1.24,3.63,3.63,0,0,1,1.86-.44,3.55,3.55,0,0,1,2.48.82,3.28,3.28,0,0,1,.84,2.46v5.82h-3.2v-4.42a2.66,2.66,0,0,0-.46-1.92,1.17,1.17,0,0,0-.84-.3,1.3,1.3,0,0,0-.94.36A2.29,2.29,0,0,0,164,294v4.58h-3.2v-4.42a2.86,2.86,0,0,0-.42-1.92,1.24,1.24,0,0,0-1-.36,1.13,1.13,0,0,0-.88.32,2.64,2.64,0,0,0-.56,2v4.42h-3.2Z"/><path d="M179.12,289.64h3.2v8.94h-3.2v-1a3.34,3.34,0,0,1-2.78,1.28,4.28,4.28,0,0,1-3.22-1.42,4.51,4.51,0,0,1-1.28-3.28,5,5,0,0,1,1.38-3.58,4.6,4.6,0,0,1,3.22-1.26,3.54,3.54,0,0,1,2.68,1.16Zm1.76-4.6a3.16,3.16,0,0,1-.88,2.18,4.21,4.21,0,0,1-5.2,0,3.16,3.16,0,0,1-.88-2.18H176a1.39,1.39,0,0,0,.4.82,1.63,1.63,0,0,0,2,0,1.39,1.39,0,0,0,.4-.82Zm-5.12,7.6a2.09,2.09,0,0,0-.64,1.46,2.06,2.06,0,0,0,.62,1.46,2.25,2.25,0,0,0,1.44.6,2.05,2.05,0,0,0,1.44-.62,1.94,1.94,0,0,0,.6-1.44,2,2,0,0,0-.62-1.46,2,2,0,0,0-2.84,0Z"/><path d="M272,102.58V89.24h4.54a7.44,7.44,0,0,1,5.3,1.84,6.51,6.51,0,0,1,1.86,4.86,6.15,6.15,0,0,1-1.74,4.62,7.24,7.24,0,0,1-5.12,2Zm3.46-2.94h.7a4,4,0,0,0,2.92-1,3.63,3.63,0,0,0,1-2.74A4,4,0,0,0,279,93a3.89,3.89,0,0,0-2.76-.84h-.84Z"/><path d="M292.5,93.64h3.2v8.94h-3.2v-1a3.34,3.34,0,0,1-2.78,1.28,4.28,4.28,0,0,1-3.22-1.42,4.51,4.51,0,0,1-1.28-3.28,5,5,0,0,1,1.38-3.58,4.6,4.6,0,0,1,3.22-1.26,3.54,3.54,0,0,1,2.68,1.16Zm-3.36,3a2.09,2.09,0,0,0-.64,1.46,2.06,2.06,0,0,0,.62,1.46,2.25,2.25,0,0,0,1.44.6,2.05,2.05,0,0,0,1.44-.62,1.94,1.94,0,0,0,.6-1.44,2,2,0,0,0-.62-1.46,2,2,0,0,0-2.84,0Z"/><path d="M301.44,96.26v6.32h-3.2V96.26h-1V93.64h1V90.7h3.2v2.94h1.82v2.62Z"/><path d="M313.94,98.7h-6.66a2.26,2.26,0,0,0,.56,1.5,1.8,1.8,0,0,0,1.32.44,2.52,2.52,0,0,0,1-.24,1.49,1.49,0,0,0,.56-.6h3.06a4,4,0,0,1-1.08,1.84,4.86,4.86,0,0,1-3.64,1.24,5.07,5.07,0,0,1-3.7-1.36,4.68,4.68,0,0,1-1.32-3.38,4.77,4.77,0,0,1,1.34-3.46,5,5,0,0,1,3.66-1.3,4.9,4.9,0,0,1,3.44,1.22,5,5,0,0,1,1.42,3.76ZM311,96.86a2.15,2.15,0,0,0-.52-1,1.86,1.86,0,0,0-1.32-.48,1.72,1.72,0,0,0-1.3.48,1.82,1.82,0,0,0-.48,1Z"/><path d="M323.88,96.26v6.32h-3.2V96.26h-1.12V93.64h1.12v-1.5a4.6,4.6,0,0,1,.82-2.94,3.72,3.72,0,0,1,3.1-1.42,4.06,4.06,0,0,1,1.54.3v2.76a2,2,0,0,0-1-.3,1.15,1.15,0,0,0-.9.34,2.37,2.37,0,0,0-.36,1.5v1.26h2.24v2.62Z"/><path d="M330.54,93.64v5a1.71,1.71,0,0,0,.48,1.3,1.65,1.65,0,0,0,1.12.34,1.5,1.5,0,0,0,1.14-.38,1.66,1.66,0,0,0,.46-1.26v-5h3.2v5.58a3.07,3.07,0,0,1-.86,2.4,5.1,5.1,0,0,1-3.86,1.26,5.33,5.33,0,0,1-4-1.28,3.21,3.21,0,0,1-.84-2.38V93.64Z"/><path d="M339.14,93.64h3.2V95.1a2.88,2.88,0,0,1,1.26-1.24,3.49,3.49,0,0,1,1.66-.36l.64,0v3a2.82,2.82,0,0,0-1.38-.32,2.1,2.1,0,0,0-1.46.48,2.7,2.7,0,0,0-.72,2v3.82h-3.2Z"/><path d="M354.24,93.64h3.2v8.94h-3.2v-1a3.34,3.34,0,0,1-2.78,1.28,4.28,4.28,0,0,1-3.22-1.42A4.51,4.51,0,0,1,347,98.18a5,5,0,0,1,1.38-3.58,4.6,4.6,0,0,1,3.22-1.26,3.54,3.54,0,0,1,2.68,1.16Zm-3.36,3a2.09,2.09,0,0,0-.64,1.46,2.06,2.06,0,0,0,.62,1.46,2.25,2.25,0,0,0,1.44.6,2.05,2.05,0,0,0,1.44-.62,1.94,1.94,0,0,0,.6-1.44,2,2,0,0,0-.62-1.46,2,2,0,0,0-2.84,0Z"/><path d="M363.18,96.26v6.32H360V96.26h-1V93.64h1V90.7h3.2v2.94H365v2.62Z"/><path d="M375.68,98.7H369a2.26,2.26,0,0,0,.56,1.5,1.8,1.8,0,0,0,1.32.44,2.52,2.52,0,0,0,1-.24,1.49,1.49,0,0,0,.56-.6h3.06a4,4,0,0,1-1.08,1.84,4.86,4.86,0,0,1-3.64,1.24,5.07,5.07,0,0,1-3.7-1.36,4.68,4.68,0,0,1-1.32-3.38,4.77,4.77,0,0,1,1.34-3.46,5,5,0,0,1,3.66-1.3,4.9,4.9,0,0,1,3.44,1.22,5,5,0,0,1,1.42,3.76Zm-2.94-1.84a2.15,2.15,0,0,0-.52-1,1.86,1.86,0,0,0-1.32-.48,1.72,1.72,0,0,0-1.3.48,1.82,1.82,0,0,0-.48,1Z"/><rect x="42" y="368" width="570" height="279.5" rx="12" ry="12" style="fill:none;stroke:#636868;stroke-miterlimit:10;stroke-width:4.10333393688478px"/><path d="M73.54,395.58H62.84L66.22,392A22.09,22.09,0,0,0,69,388.66a3.76,3.76,0,0,0,.72-2.08,2,2,0,0,0-.4-1.28,1.31,1.31,0,0,0-1-.4,1.43,1.43,0,0,0-1.16.54,3.31,3.31,0,0,0-.48,1.64H63.08a5.31,5.31,0,0,1,1.48-3.7,5.75,5.75,0,0,1,7.54-.06,4.46,4.46,0,0,1,1.3,3.28,5.18,5.18,0,0,1-2,4l-2.24,2.08h4.36Z"/><path d="M75.9,395.34a2.08,2.08,0,0,1,1.46-3.54,2.1,2.1,0,0,1,1.48.64,2.08,2.08,0,0,1,0,2.9,2,2,0,0,1-1.46.62A2,2,0,0,1,75.9,395.34Z"/><path d="M96,395.22a8.24,8.24,0,0,1-3,.66,7.26,7.26,0,0,1-5.16-2,7,7,0,0,1-2-4.86,7,7,0,0,1,7.06-7,8.27,8.27,0,0,1,3.12.68v4.14a3.71,3.71,0,0,0-3-1.46,3.38,3.38,0,0,0-2.4.88A3.73,3.73,0,0,0,89.44,389a3.68,3.68,0,0,0,1.08,2.6,3.73,3.73,0,0,0,2.48.92,3.92,3.92,0,0,0,3-1.4Z"/><path d="M106.92,394.4a6.12,6.12,0,0,1-8,0,4.61,4.61,0,0,1,0-6.58,5.58,5.58,0,0,1,4-1.48,5.65,5.65,0,0,1,4,1.48,4.61,4.61,0,0,1,0,6.58Zm-5.42-4.76a2,2,0,0,0,1.44,3.48,2,2,0,0,0,1.42-.6,2,2,0,0,0,.62-1.42,2.17,2.17,0,0,0-.62-1.46,2.05,2.05,0,0,0-2.86,0Z"/><path d="M110.14,386.64h3.2v1.12a3.37,3.37,0,0,1,2.84-1.32,3.62,3.62,0,0,1,2.64,1,3.08,3.08,0,0,1,.84,2.5v5.68h-3.2v-4.52a2.57,2.57,0,0,0-.4-1.74,1.34,1.34,0,0,0-1-.38,1.75,1.75,0,0,0-1.18.42,2.06,2.06,0,0,0-.52,1.42v4.8h-3.2Z"/><path d="M125.38,389.26v6.32h-3.2v-6.32h-1v-2.62h1V383.7h3.2v2.94h1.82v2.62Z"/><path d="M128.4,386.64h3.2v1.46a2.88,2.88,0,0,1,1.26-1.24,3.49,3.49,0,0,1,1.66-.36l.64,0v3a2.82,2.82,0,0,0-1.38-.32,2.1,2.1,0,0,0-1.46.48,2.7,2.7,0,0,0-.72,2v3.82h-3.2Z"/><path d="M145.18,394.4a6.12,6.12,0,0,1-8,0,4.61,4.61,0,0,1,0-6.58,5.58,5.58,0,0,1,4-1.48,5.65,5.65,0,0,1,4,1.48,4.61,4.61,0,0,1,0,6.58Zm-5.42-4.76a2,2,0,0,0,1.44,3.48,2,2,0,0,0,1.42-.6,2,2,0,0,0,.62-1.42,2.17,2.17,0,0,0-.62-1.46,2.05,2.05,0,0,0-2.86,0Z"/><path d="M151.6,381v14.58h-3.2V381Z"/><path d="M512.88,564.89c-.65.47-1.31.93-2,1.37l-.93.59c-.88.55-1.77,1.06-2.68,1.55l-.61.31a47.43,47.43,0,0,1-6.49,2.74l-.23.08c-1.17.39-2.35.73-3.54,1h0c-1.21.3-2.43.54-3.65.75h-.11c-1.15.19-2.31.33-3.48.43l-.62,0c-1.16.08-2.32.14-3.48.14s-2.36-.06-3.53-.14l-.6,0c-1.18-.11-2.35-.24-3.52-.43l-.15,0a46.91,46.91,0,0,1-7.23-1.81l-.22-.07c-1.17-.4-2.33-.84-3.47-1.33h0c-1.07-.46-2.13-1-3.17-1.52l-.41-.21c-.95-.5-1.88-1.05-2.79-1.62l-.81-.52c-.85-.56-1.68-1.13-2.49-1.74l-.25-.19.18-.1,14.7-8a7.87,7.87,0,0,0,4.1-6.91v-6.69L475,542a31.14,31.14,0,0,1-5.58-11.56l-.17-.73-.63-.41a3.1,3.1,0,0,1-1.43-2.59v-6.59a3.05,3.05,0,0,1,1-2.28l.61-.55V507l0-.24a11.25,11.25,0,0,1,2.6-8.11c2.69-3.06,7.29-4.62,13.69-4.62s11,1.55,13.66,4.59a11.35,11.35,0,0,1,2.62,8.14v10.6l.61.56a3,3,0,0,1,1,2.27v6.59a3.1,3.1,0,0,1-2.19,2.93l-.93.28-.29.92a34.54,34.54,0,0,1-4.64,9.36,21.11,21.11,0,0,1-1.37,1.76l-.46.53v6.88a7.81,7.81,0,0,0,4.34,7l15.75,7.87.29.15C513.28,564.61,513.08,564.74,512.88,564.89Z" style="fill:none;stroke:#c13018;stroke-miterlimit:10;stroke-width:5px"/><circle cx="484.95" cy="520.79" r="52.85" style="fill:none;stroke:#c13018;stroke-miterlimit:10;stroke-width:5px"/><path d="M549.47,546.68,523.15,503a3.68,3.68,0,0,0-6.3,0l-26.32,43.66a3.67,3.67,0,0,0,3.15,5.57h52.64a3.68,3.68,0,0,0,3.15-5.57ZM520,516.34c1.51,0,2.79.86,2.79,2.37,0,4.61-.54,11.24-.54,15.85,0,1.21-1.32,1.71-2.25,1.71-1.24,0-2.29-.5-2.29-1.71,0-4.61-.54-11.24-.54-15.85C517.19,517.2,518.43,516.34,520,516.34Zm0,28.57a3,3,0,1,1,2.94-3A3,3,0,0,1,520.06,544.91Z" style="fill:#f7931f"/><rect x="80" y="457.35" width="148" height="89.21" rx="12" ry="12" style="fill:none;stroke:#c13018;stroke-miterlimit:10;stroke-width:5px"/><rect x="130.18" y="546.05" width="47.64" height="16.22" rx="4.38" ry="4.38" style="fill:#c13018"/><rect x="99.26" y="560.75" width="109.48" height="22.3" rx="6.03" ry="6.03" style="fill:none;stroke:#c13018;stroke-miterlimit:10;stroke-width:5px"/><circle cx="111.42" cy="568.86" r="2.03" style="fill:#c13018"/><circle cx="117.24" cy="568.86" r="2.03" style="fill:#c13018"/><circle cx="111.42" cy="574.94" r="2.03" style="fill:#c13018"/><circle cx="117.24" cy="574.94" r="2.03" style="fill:#c13018"/><rect x="170.22" y="569.87" width="31.42" height="3.04" rx="0.82" ry="0.82" style="fill:none;stroke:#c13018;stroke-miterlimit:10;stroke-width:5px"/><polygon points="278.59 534.64 363.11 534.64 363.11 546.83 389 520.94 363.11 495.05 363.11 507.23 278.59 507.23 278.59 534.64" style="fill:none;stroke:#c13018;stroke-miterlimit:10;stroke-width:5px"/><path d="M459.82,609.34H455l-.9,2.24h-3.66l5.12-13.34h3.78l5,13.34h-3.7Zm-.92-2.64-1.5-4.32-1.46,4.32Z"/><path d="M469.12,605.26v6.32h-3.2v-6.32h-1v-2.62h1V599.7h3.2v2.94h1.82v2.62Z"/><path d="M479.06,602.64h3.2v8.94h-3.2v-1a3.34,3.34,0,0,1-2.78,1.28,4.28,4.28,0,0,1-3.22-1.42,4.51,4.51,0,0,1-1.28-3.28,5,5,0,0,1,1.38-3.58,4.6,4.6,0,0,1,3.22-1.26,3.54,3.54,0,0,1,2.68,1.16Zm-3.36,3a2.09,2.09,0,0,0-.64,1.46,2.06,2.06,0,0,0,.62,1.46,2.25,2.25,0,0,0,1.44.6,2.05,2.05,0,0,0,1.44-.62,1.94,1.94,0,0,0,.6-1.44,2,2,0,0,0-.62-1.46,2,2,0,0,0-2.84,0Z"/><path d="M491.22,611.38a4.75,4.75,0,0,1-2.22.5,4.94,4.94,0,0,1-3.52-1.36,4.68,4.68,0,0,1-1.38-3.34,4.87,4.87,0,0,1,1.44-3.46,5.16,5.16,0,0,1,3.6-1.36,4.59,4.59,0,0,1,2.08.5v2.68a2.85,2.85,0,0,0-1.66-.58,2.1,2.1,0,0,0-1.56.62,2.18,2.18,0,0,0-.62,1.54,2.3,2.3,0,0,0,.56,1.5,2.17,2.17,0,0,0,1.64.68,2.42,2.42,0,0,0,1.64-.6Z"/><path d="M500,602.64h3.2v8.94H500v-1a3.34,3.34,0,0,1-2.78,1.28,4.28,4.28,0,0,1-3.22-1.42,4.51,4.51,0,0,1-1.28-3.28,5,5,0,0,1,1.38-3.58,4.6,4.6,0,0,1,3.22-1.26A3.54,3.54,0,0,1,500,603.5Zm-3.36,3a2.09,2.09,0,0,0-.64,1.46,2.06,2.06,0,0,0,.62,1.46,2.25,2.25,0,0,0,1.44.6,2.05,2.05,0,0,0,1.44-.62,1.94,1.94,0,0,0,.6-1.44,2,2,0,0,0-.62-1.46,2,2,0,0,0-2.84,0Z"/><path d="M508.9,605.26v6.32h-3.2v-6.32h-1v-2.62h1V599.7h3.2v2.94h1.82v2.62Z"/><path d="M520.92,610.4a6.12,6.12,0,0,1-8,0,4.61,4.61,0,0,1,0-6.58,5.58,5.58,0,0,1,4-1.48,5.65,5.65,0,0,1,4,1.48,4.61,4.61,0,0,1,0,6.58Zm-5.42-4.76a2,2,0,0,0,1.44,3.48,2,2,0,0,0,1.42-.6,2,2,0,0,0,.62-1.42,2.17,2.17,0,0,0-.62-1.46,2.05,2.05,0,0,0-2.86,0Z"/><path d="M524.14,602.64h3.2v1.46a2.88,2.88,0,0,1,1.26-1.24,3.49,3.49,0,0,1,1.66-.36l.64,0v3a2.82,2.82,0,0,0-1.38-.32,2.1,2.1,0,0,0-1.46.48,2.7,2.7,0,0,0-.72,2v3.82h-3.2Z"/><path d="M121.52,607.58a4.67,4.67,0,0,0,3.06,1.36,1.76,1.76,0,0,0,1.34-.46,1.19,1.19,0,0,0,.34-.84,1,1,0,0,0-.38-.8,4.8,4.8,0,0,0-1.72-.7l-.9-.28a4.36,4.36,0,0,1-1.92-1.08,3.36,3.36,0,0,1-.76-2.36,4.36,4.36,0,0,1,1.22-3.22,4.7,4.7,0,0,1,3.42-1.26,9.37,9.37,0,0,1,4.12,1.08l-1.38,2.7a3.52,3.52,0,0,0-2.28-.9,1.66,1.66,0,0,0-1.14.4,1,1,0,0,0-.34.72.89.89,0,0,0,.18.6,2.19,2.19,0,0,0,1.16.6l1.06.32a5.1,5.1,0,0,1,2.42,1.32,3.15,3.15,0,0,1,.86,2.38,4.52,4.52,0,0,1-1.26,3.36,5.17,5.17,0,0,1-3.94,1.36,7.13,7.13,0,0,1-2.62-.44,9.31,9.31,0,0,1-2-1.06Z"/><path d="M133.36,597.12a1.8,1.8,0,1,1-1.8,1.8A1.79,1.79,0,0,1,133.36,597.12Zm1.6,5.52v8.94h-3.2v-8.94Z"/><path d="M137.72,608.62a4.58,4.58,0,0,0,1.28.66,4.16,4.16,0,0,0,1.24.22,1.36,1.36,0,0,0,.82-.24.51.51,0,0,0,.16-.42.47.47,0,0,0-.16-.4,2,2,0,0,0-.84-.32l-.84-.2a2.88,2.88,0,0,1-1.56-.78,2.16,2.16,0,0,1-.58-1.54,3.19,3.19,0,0,1,.84-2.18,4.51,4.51,0,0,1,3.2-1.08,7.38,7.38,0,0,1,2.86.58l-1.08,2a4.43,4.43,0,0,0-1.68-.44,1.35,1.35,0,0,0-.74.18.48.48,0,0,0-.28.44.52.52,0,0,0,.38.5c.3.12.56.12,1.06.26l.58.16a3.78,3.78,0,0,1,1.32.7,2.53,2.53,0,0,1,.68,1.78,3,3,0,0,1-.9,2.22,4.65,4.65,0,0,1-3.3,1.12,6.6,6.6,0,0,1-3.6-1Z"/><path d="M149.56,605.26v6.32h-3.2v-6.32h-1v-2.62h1V599.7h3.2v2.94h1.82v2.62Z"/><path d="M162.06,607.7H155.4a2.26,2.26,0,0,0,.56,1.5,1.8,1.8,0,0,0,1.32.44,2.52,2.52,0,0,0,1-.24,1.49,1.49,0,0,0,.56-.6h3.06a4,4,0,0,1-1.08,1.84,4.86,4.86,0,0,1-3.64,1.24,5.07,5.07,0,0,1-3.7-1.36,4.68,4.68,0,0,1-1.32-3.38,4.77,4.77,0,0,1,1.34-3.46,5,5,0,0,1,3.66-1.3,4.9,4.9,0,0,1,3.44,1.22,5,5,0,0,1,1.42,3.76Zm-2.94-1.84a2.15,2.15,0,0,0-.52-1,1.86,1.86,0,0,0-1.32-.48,1.72,1.72,0,0,0-1.3.48,1.82,1.82,0,0,0-.48,1Z"/><path d="M163.9,602.64h3.2v1.08a3.43,3.43,0,0,1,2.68-1.24,3.64,3.64,0,0,1,1.72.4,2.79,2.79,0,0,1,1.24,1.28,3.14,3.14,0,0,1,1.22-1.24,3.63,3.63,0,0,1,1.86-.44,3.55,3.55,0,0,1,2.48.82,3.28,3.28,0,0,1,.84,2.46v5.82h-3.2v-4.42a2.66,2.66,0,0,0-.46-1.92,1.17,1.17,0,0,0-.84-.3,1.3,1.3,0,0,0-.94.36,2.29,2.29,0,0,0-.58,1.7v4.58h-3.2v-4.42a2.86,2.86,0,0,0-.42-1.92,1.24,1.24,0,0,0-1-.36,1.13,1.13,0,0,0-.88.32,2.64,2.64,0,0,0-.56,2v4.42h-3.2Z"/><path d="M119.66,626.64l2.14,4.58,2.18-4.58h3.56l-4.66,8.94H120.7l-4.62-8.94Z"/><path d="M130.24,621.12a1.8,1.8,0,1,1-1.8,1.8A1.79,1.79,0,0,1,130.24,621.12Zm1.6,5.52v8.94h-3.2v-8.94Z"/><path d="M140.78,635.38a4.75,4.75,0,0,1-2.22.5,4.94,4.94,0,0,1-3.52-1.36,4.68,4.68,0,0,1-1.38-3.34,4.87,4.87,0,0,1,1.44-3.46,5.16,5.16,0,0,1,3.6-1.36,4.59,4.59,0,0,1,2.08.5v2.68a2.85,2.85,0,0,0-1.66-.58,2.1,2.1,0,0,0-1.56.62,2.18,2.18,0,0,0-.62,1.54,2.3,2.3,0,0,0,.56,1.5,2.17,2.17,0,0,0,1.64.68,2.42,2.42,0,0,0,1.64-.6Z"/><path d="M146.34,629.26v6.32h-3.2v-6.32h-1v-2.62h1V623.7h3.2v2.94h1.82v2.62Z"/><path d="M151,621.12a1.8,1.8,0,1,1-1.8,1.8A1.79,1.79,0,0,1,151,621.12Zm1.6,5.52v8.94h-3.2v-8.94Z"/><path d="M154.74,626.64h3.2v1.08a3.43,3.43,0,0,1,2.68-1.24,3.64,3.64,0,0,1,1.72.4,2.79,2.79,0,0,1,1.24,1.28,3.14,3.14,0,0,1,1.22-1.24,3.63,3.63,0,0,1,1.86-.44,3.55,3.55,0,0,1,2.48.82,3.28,3.28,0,0,1,.84,2.46v5.82h-3.2v-4.42a2.66,2.66,0,0,0-.46-1.92,1.17,1.17,0,0,0-.84-.3,1.3,1.3,0,0,0-.94.36A2.29,2.29,0,0,0,164,631v4.58h-3.2v-4.42a2.86,2.86,0,0,0-.42-1.92,1.24,1.24,0,0,0-1-.36,1.13,1.13,0,0,0-.88.32,2.64,2.64,0,0,0-.56,2v4.42h-3.2Z"/><path d="M179.12,626.64h3.2v8.94h-3.2v-1a3.34,3.34,0,0,1-2.78,1.28,4.28,4.28,0,0,1-3.22-1.42,4.51,4.51,0,0,1-1.28-3.28,5,5,0,0,1,1.38-3.58,4.6,4.6,0,0,1,3.22-1.26,3.54,3.54,0,0,1,2.68,1.16Zm1.76-4.6a3.16,3.16,0,0,1-.88,2.18,4.21,4.21,0,0,1-5.2,0,3.16,3.16,0,0,1-.88-2.18H176a1.39,1.39,0,0,0,.4.82,1.63,1.63,0,0,0,2,0,1.39,1.39,0,0,0,.4-.82Zm-5.12,7.6a2.09,2.09,0,0,0-.64,1.46,2.06,2.06,0,0,0,.62,1.46,2.25,2.25,0,0,0,1.44.6,2.05,2.05,0,0,0,1.44-.62,1.94,1.94,0,0,0,.6-1.44,2,2,0,0,0-.62-1.46,2,2,0,0,0-2.84,0Z"/><path d="M1010.52,538.58a4.67,4.67,0,0,0,3.06,1.36,1.76,1.76,0,0,0,1.34-.46,1.19,1.19,0,0,0,.34-.84,1,1,0,0,0-.38-.8,4.8,4.8,0,0,0-1.72-.7l-.9-.28a4.36,4.36,0,0,1-1.92-1.08,3.36,3.36,0,0,1-.76-2.36,4.36,4.36,0,0,1,1.22-3.22,4.7,4.7,0,0,1,3.42-1.26,9.37,9.37,0,0,1,4.12,1.08l-1.38,2.7a3.52,3.52,0,0,0-2.28-.9,1.66,1.66,0,0,0-1.14.4,1,1,0,0,0-.34.72.89.89,0,0,0,.18.6,2.19,2.19,0,0,0,1.16.6l1.06.32a5.1,5.1,0,0,1,2.42,1.32,3.15,3.15,0,0,1,.86,2.38,4.52,4.52,0,0,1-1.26,3.36,5.17,5.17,0,0,1-3.94,1.36,7.13,7.13,0,0,1-2.62-.44,9.31,9.31,0,0,1-2-1.06Z"/><path d="M1022.36,528.12a1.8,1.8,0,1,1-1.8,1.8A1.79,1.79,0,0,1,1022.36,528.12Zm1.6,5.52v8.94h-3.2v-8.94Z"/><path d="M1026.72,539.62a4.58,4.58,0,0,0,1.28.66,4.16,4.16,0,0,0,1.24.22,1.36,1.36,0,0,0,.82-.24.51.51,0,0,0,.16-.42.47.47,0,0,0-.16-.4,2,2,0,0,0-.84-.32l-.84-.2a2.88,2.88,0,0,1-1.56-.78,2.16,2.16,0,0,1-.58-1.54,3.19,3.19,0,0,1,.84-2.18,4.51,4.51,0,0,1,3.2-1.08,7.38,7.38,0,0,1,2.86.58l-1.08,2a4.43,4.43,0,0,0-1.68-.44,1.35,1.35,0,0,0-.74.18.48.48,0,0,0-.28.44.52.52,0,0,0,.38.5c.3.12.56.12,1.06.26l.58.16a3.78,3.78,0,0,1,1.32.7,2.53,2.53,0,0,1,.68,1.78,3,3,0,0,1-.9,2.22,4.65,4.65,0,0,1-3.3,1.12,6.6,6.6,0,0,1-3.6-1Z"/><path d="M1038.56,536.26v6.32h-3.2v-6.32h-1v-2.62h1V530.7h3.2v2.94h1.82v2.62Z"/><path d="M1051.06,538.7h-6.66a2.26,2.26,0,0,0,.56,1.5,1.8,1.8,0,0,0,1.32.44,2.52,2.52,0,0,0,1-.24,1.49,1.49,0,0,0,.56-.6h3.06a4,4,0,0,1-1.08,1.84,4.86,4.86,0,0,1-3.64,1.24,5.07,5.07,0,0,1-3.7-1.36,4.68,4.68,0,0,1-1.32-3.38,4.77,4.77,0,0,1,1.34-3.46,5,5,0,0,1,3.66-1.3,4.9,4.9,0,0,1,3.44,1.22,5,5,0,0,1,1.42,3.76Zm-2.94-1.84a2.15,2.15,0,0,0-.52-1,1.86,1.86,0,0,0-1.32-.48,1.72,1.72,0,0,0-1.3.48,1.82,1.82,0,0,0-.48,1Z"/><path d="M1052.9,533.64h3.2v1.08a3.43,3.43,0,0,1,2.68-1.24,3.64,3.64,0,0,1,1.72.4,2.79,2.79,0,0,1,1.24,1.28,3.14,3.14,0,0,1,1.22-1.24,3.63,3.63,0,0,1,1.86-.44,3.55,3.55,0,0,1,2.48.82,3.28,3.28,0,0,1,.84,2.46v5.82h-3.2v-4.42a2.66,2.66,0,0,0-.46-1.92,1.17,1.17,0,0,0-.84-.3,1.3,1.3,0,0,0-.94.36,2.29,2.29,0,0,0-.58,1.7v4.58h-3.2v-4.42a2.86,2.86,0,0,0-.42-1.92,1.24,1.24,0,0,0-1-.36,1.13,1.13,0,0,0-.88.32,2.64,2.64,0,0,0-.56,2v4.42h-3.2Z"/><path d="M1008.66,557.64l2.14,4.58,2.18-4.58h3.56l-4.66,8.94h-2.18l-4.62-8.94Z"/><path d="M1019.24,552.12a1.8,1.8,0,1,1-1.8,1.8A1.79,1.79,0,0,1,1019.24,552.12Zm1.6,5.52v8.94h-3.2v-8.94Z"/><path d="M1029.78,566.38a4.75,4.75,0,0,1-2.22.5,4.94,4.94,0,0,1-3.52-1.36,4.68,4.68,0,0,1-1.38-3.34,4.87,4.87,0,0,1,1.44-3.46,5.16,5.16,0,0,1,3.6-1.36,4.59,4.59,0,0,1,2.08.5v2.68a2.85,2.85,0,0,0-1.66-.58,2.1,2.1,0,0,0-1.56.62,2.18,2.18,0,0,0-.62,1.54,2.3,2.3,0,0,0,.56,1.5,2.17,2.17,0,0,0,1.64.68,2.42,2.42,0,0,0,1.64-.6Z"/><path d="M1035.34,560.26v6.32h-3.2v-6.32h-1v-2.62h1V554.7h3.2v2.94h1.82v2.62Z"/><path d="M1040,552.12a1.8,1.8,0,1,1-1.8,1.8A1.79,1.79,0,0,1,1040,552.12Zm1.6,5.52v8.94h-3.2v-8.94Z"/><path d="M1043.74,557.64h3.2v1.08a3.43,3.43,0,0,1,2.68-1.24,3.64,3.64,0,0,1,1.72.4,2.79,2.79,0,0,1,1.24,1.28,3.14,3.14,0,0,1,1.22-1.24,3.63,3.63,0,0,1,1.86-.44,3.55,3.55,0,0,1,2.48.82,3.28,3.28,0,0,1,.84,2.46v5.82h-3.2v-4.42a2.66,2.66,0,0,0-.46-1.92,1.17,1.17,0,0,0-.84-.3,1.3,1.3,0,0,0-.94.36,2.29,2.29,0,0,0-.58,1.7v4.58h-3.2v-4.42a2.86,2.86,0,0,0-.42-1.92,1.24,1.24,0,0,0-1-.36,1.13,1.13,0,0,0-.88.32,2.64,2.64,0,0,0-.56,2v4.42h-3.2Z"/><path d="M1068.12,557.64h3.2v8.94h-3.2v-1a3.34,3.34,0,0,1-2.78,1.28,4.28,4.28,0,0,1-3.22-1.42,4.51,4.51,0,0,1-1.28-3.28,5,5,0,0,1,1.38-3.58,4.6,4.6,0,0,1,3.22-1.26,3.54,3.54,0,0,1,2.68,1.16Zm1.76-4.6a3.16,3.16,0,0,1-.88,2.18,4.21,4.21,0,0,1-5.2,0,3.16,3.16,0,0,1-.88-2.18H1065a1.39,1.39,0,0,0,.4.82,1.63,1.63,0,0,0,2,0,1.39,1.39,0,0,0,.4-.82Zm-5.12,7.6a2.09,2.09,0,0,0-.64,1.46,2.06,2.06,0,0,0,.62,1.46,2.25,2.25,0,0,0,1.44.6,2.05,2.05,0,0,0,1.44-.62,1.94,1.94,0,0,0,.6-1.44,2,2,0,0,0-.62-1.46,2,2,0,0,0-2.84,0Z"/><path d="M272.59,435.22a8.24,8.24,0,0,1-3,.66,7.26,7.26,0,0,1-5.16-2,7,7,0,0,1-2-4.86,7,7,0,0,1,7.06-7,8.27,8.27,0,0,1,3.12.68v4.14a3.71,3.71,0,0,0-3-1.46,3.38,3.38,0,0,0-2.4.88A3.73,3.73,0,0,0,266,429a3.68,3.68,0,0,0,1.08,2.6,3.73,3.73,0,0,0,2.48.92,3.92,3.92,0,0,0,3-1.4Z"/><path d="M283.49,434.4a6.12,6.12,0,0,1-8,0,4.61,4.61,0,0,1,0-6.58,5.58,5.58,0,0,1,4-1.48,5.65,5.65,0,0,1,4,1.48,4.61,4.61,0,0,1,0,6.58Zm-5.42-4.76a2,2,0,0,0,1.44,3.48,2,2,0,0,0,1.42-.6,2,2,0,0,0,.62-1.42,2.17,2.17,0,0,0-.62-1.46,2.05,2.05,0,0,0-2.86,0Z"/><path d="M286.71,426.64h3.2v1.12a3.37,3.37,0,0,1,2.84-1.32,3.62,3.62,0,0,1,2.64,1,3.08,3.08,0,0,1,.84,2.5v5.68H293v-4.52a2.57,2.57,0,0,0-.4-1.74,1.34,1.34,0,0,0-1-.38,1.75,1.75,0,0,0-1.18.42,2.06,2.06,0,0,0-.52,1.42v4.8h-3.2Z"/><path d="M302,429.26v6.32h-3.2v-6.32h-1v-2.62h1V423.7H302v2.94h1.82v2.62Z"/><path d="M305,426.64h3.2v1.46a2.88,2.88,0,0,1,1.26-1.24,3.49,3.49,0,0,1,1.66-.36l.64,0v3a2.82,2.82,0,0,0-1.38-.32,2.1,2.1,0,0,0-1.46.48,2.7,2.7,0,0,0-.72,2v3.82H305Z"/><path d="M321.75,434.4a6.12,6.12,0,0,1-8,0,4.61,4.61,0,0,1,0-6.58,5.58,5.58,0,0,1,4-1.48,5.65,5.65,0,0,1,4,1.48,4.61,4.61,0,0,1,0,6.58Zm-5.42-4.76a2,2,0,0,0,1.44,3.48,2,2,0,0,0,1.42-.6,2,2,0,0,0,.62-1.42,2.17,2.17,0,0,0-.62-1.46,2.05,2.05,0,0,0-2.86,0Z"/><path d="M328.17,421v14.58H325V421Z"/><path d="M335.59,432.62a4.58,4.58,0,0,0,1.28.66,4.16,4.16,0,0,0,1.24.22,1.36,1.36,0,0,0,.82-.24.51.51,0,0,0,.16-.42.47.47,0,0,0-.16-.4,2,2,0,0,0-.84-.32l-.84-.2a2.88,2.88,0,0,1-1.56-.78,2.16,2.16,0,0,1-.58-1.54,3.19,3.19,0,0,1,.84-2.18,4.51,4.51,0,0,1,3.2-1.08,7.38,7.38,0,0,1,2.86.58l-1.08,2a4.43,4.43,0,0,0-1.68-.44,1.35,1.35,0,0,0-.74.18.48.48,0,0,0-.28.44.52.52,0,0,0,.38.5c.3.12.56.12,1.06.26l.58.16a3.78,3.78,0,0,1,1.32.7,2.53,2.53,0,0,1,.68,1.78,3,3,0,0,1-.9,2.22,4.65,4.65,0,0,1-3.3,1.12,6.6,6.6,0,0,1-3.6-1Z"/><path d="M345.49,421.12a1.8,1.8,0,1,1-1.8,1.8A1.79,1.79,0,0,1,345.49,421.12Zm1.6,5.52v8.94h-3.2v-8.94Z"/><path d="M349.85,432.62a4.58,4.58,0,0,0,1.28.66,4.16,4.16,0,0,0,1.24.22,1.36,1.36,0,0,0,.82-.24.51.51,0,0,0,.16-.42.47.47,0,0,0-.16-.4,2,2,0,0,0-.84-.32l-.84-.2a2.88,2.88,0,0,1-1.56-.78,2.16,2.16,0,0,1-.58-1.54,3.19,3.19,0,0,1,.84-2.18,4.51,4.51,0,0,1,3.2-1.08,7.38,7.38,0,0,1,2.86.58l-1.08,2a4.43,4.43,0,0,0-1.68-.44,1.35,1.35,0,0,0-.74.18.48.48,0,0,0-.28.44.52.52,0,0,0,.38.5c.3.12.56.12,1.06.26l.58.16a3.78,3.78,0,0,1,1.32.7,2.53,2.53,0,0,1,.68,1.78,3,3,0,0,1-.9,2.22,4.65,4.65,0,0,1-3.3,1.12,6.6,6.6,0,0,1-3.6-1Z"/><path d="M361.69,429.26v6.32h-3.2v-6.32h-1v-2.62h1V423.7h3.2v2.94h1.82v2.62Z"/><path d="M374.19,431.7h-6.66a2.26,2.26,0,0,0,.56,1.5,1.8,1.8,0,0,0,1.32.44,2.52,2.52,0,0,0,1-.24,1.49,1.49,0,0,0,.56-.6h3.06a4,4,0,0,1-1.08,1.84,4.86,4.86,0,0,1-3.64,1.24,5.07,5.07,0,0,1-3.7-1.36,4.68,4.68,0,0,1-1.32-3.38,4.77,4.77,0,0,1,1.34-3.46,5,5,0,0,1,3.66-1.3,4.9,4.9,0,0,1,3.44,1.22,5,5,0,0,1,1.42,3.76Zm-2.94-1.84a2.15,2.15,0,0,0-.52-1,1.86,1.86,0,0,0-1.32-.48,1.72,1.72,0,0,0-1.3.48,1.82,1.82,0,0,0-.48,1Z"/><path d="M376,426.64h3.2v1.08a3.43,3.43,0,0,1,2.68-1.24,3.64,3.64,0,0,1,1.72.4,2.79,2.79,0,0,1,1.24,1.28,3.14,3.14,0,0,1,1.22-1.24,3.63,3.63,0,0,1,1.86-.44,3.55,3.55,0,0,1,2.48.82,3.28,3.28,0,0,1,.84,2.46v5.82h-3.2v-4.42a2.66,2.66,0,0,0-.46-1.92,1.17,1.17,0,0,0-.84-.3,1.3,1.3,0,0,0-.94.36,2.29,2.29,0,0,0-.58,1.7v4.58h-3.2v-4.42a2.86,2.86,0,0,0-.42-1.92,1.24,1.24,0,0,0-1-.36,1.13,1.13,0,0,0-.88.32,2.64,2.64,0,0,0-.56,2v4.42H376Z"/><path d="M324.53,470.3a4.14,4.14,0,1,0,4.13,4.14A4.14,4.14,0,0,0,324.53,470.3Z" style="fill:none;stroke:#3a5c84;stroke-miterlimit:10;stroke-width:2.13221226579478px"/><path d="M334,472.67a.59.59,0,0,0-.59-.59h-1.56a7.47,7.47,0,0,0-.47-1.13l1.1-1.11a.59.59,0,0,0,0-.83L330,466.5a.6.6,0,0,0-.84,0l-1.1,1.1a7.87,7.87,0,0,0-1.13-.46v-1.56a.59.59,0,0,0-.59-.59h-3.55a.59.59,0,0,0-.59.59v1.56a7.87,7.87,0,0,0-1.13.46l-1.1-1.1a.59.59,0,0,0-.83,0L316.59,469a.59.59,0,0,0,0,.83l1.1,1.11c-.05.09-.09.19-.14.29a7.67,7.67,0,0,0-.32.84h-1.57a.59.59,0,0,0-.59.59v3.54a.59.59,0,0,0,.59.59h1.57a7.43,7.43,0,0,0,.46,1.13l-1.1,1.1a.6.6,0,0,0,0,.84l2.51,2.51a.59.59,0,0,0,.83,0l1.1-1.11a7.93,7.93,0,0,0,1.13.47v1.56a.59.59,0,0,0,.59.59h3.55a.59.59,0,0,0,.59-.59v-1.56a7.93,7.93,0,0,0,1.13-.47l1.1,1.11a.6.6,0,0,0,.84,0l2.5-2.51a.6.6,0,0,0,0-.84l-1.1-1.1a7.47,7.47,0,0,0,.47-1.13h1.56a.59.59,0,0,0,.59-.59Z" style="fill:none;stroke:#3a5c84;stroke-miterlimit:10;stroke-width:2.13221226579478px"/><rect x="300.56" y="448.09" width="45.94" height="45.94" rx="12" ry="12" style="fill:none;stroke:#3a5c84;stroke-miterlimit:10;stroke-width:2.39262892572343px"/><circle cx="306.26" cy="454.22" r="1.28" style="fill:#3a5c84"/><circle cx="310.31" cy="454.22" r="1.28" style="fill:#3a5c84"/><circle cx="314.36" cy="454.22" r="1.28" style="fill:#3a5c84"/><line x1="307.11" y1="458.48" x2="334.41" y2="458.48" style="fill:none;stroke:#3a5c84;stroke-miterlimit:10;stroke-width:2.13221226579478px"/><line x1="307.11" y1="461.25" x2="313.3" y2="461.25" style="fill:none;stroke:#3a5c84;stroke-miterlimit:10;stroke-width:2.13221226579478px"/><line x1="307.11" y1="463.81" x2="313.3" y2="463.81" style="fill:none;stroke:#3a5c84;stroke-miterlimit:10;stroke-width:2.13221226579478px"/><line x1="333.98" y1="488.12" x2="340.16" y2="488.12" style="fill:none;stroke:#3a5c84;stroke-miterlimit:10;stroke-width:2.13221226579478px"/><polygon points="768.38 245.38 768.38 300.21 760.48 300.21 777.27 317 794.07 300.21 786.16 300.21 786.16 245.38 768.38 245.38" style="fill:none;stroke:#c13018;stroke-miterlimit:10;stroke-width:5.12820541858673px"/><polygon points="1046.43 245.38 1046.43 300.21 1038.53 300.21 1055.32 317 1072.12 300.21 1064.21 300.21 1064.21 245.38 1046.43 245.38" style="fill:none;stroke:#c13018;stroke-miterlimit:10;stroke-width:5.12820541858673px"/><rect x="839" y="471.35" width="148" height="89.21" rx="12" ry="12" style="fill:none;stroke:#91c54f;stroke-miterlimit:10;stroke-width:5px"/><rect x="889.18" y="560.05" width="47.64" height="16.22" rx="4.38" ry="4.38" style="fill:#91c54f"/><rect x="858.26" y="574.75" width="109.48" height="22.3" rx="6.03" ry="6.03" style="fill:none;stroke:#91c54f;stroke-miterlimit:10;stroke-width:5px"/><circle cx="870.42" cy="582.86" r="2.03" style="fill:#91c54f"/><circle cx="876.24" cy="582.86" r="2.03" style="fill:#91c54f"/><circle cx="870.42" cy="588.94" r="2.03" style="fill:#91c54f"/><circle cx="876.24" cy="588.94" r="2.03" style="fill:#91c54f"/><rect x="929.22" y="583.87" width="31.42" height="3.04" rx="0.82" ry="0.82" style="fill:none;stroke:#91c54f;stroke-miterlimit:10;stroke-width:5px"/><rect x="689" y="334" width="187" height="55" rx="12" ry="12" style="fill:none;stroke:#3a5c84;stroke-miterlimit:10;stroke-width:5px"/><path d="M719.06,365.58a4.67,4.67,0,0,0,3.06,1.36,1.76,1.76,0,0,0,1.34-.46,1.19,1.19,0,0,0,.34-.84,1,1,0,0,0-.38-.8,4.8,4.8,0,0,0-1.72-.7l-.9-.28a4.36,4.36,0,0,1-1.92-1.08,3.36,3.36,0,0,1-.76-2.36,4.36,4.36,0,0,1,1.22-3.22,4.7,4.7,0,0,1,3.42-1.26,9.37,9.37,0,0,1,4.12,1.08l-1.38,2.7a3.52,3.52,0,0,0-2.28-.9,1.66,1.66,0,0,0-1.14.4,1,1,0,0,0-.34.72.89.89,0,0,0,.18.6,2.19,2.19,0,0,0,1.16.6l1.06.32a5.1,5.1,0,0,1,2.42,1.32,3.15,3.15,0,0,1,.86,2.38,4.52,4.52,0,0,1-1.26,3.36,5.17,5.17,0,0,1-3.94,1.36,7.13,7.13,0,0,1-2.62-.44,9.31,9.31,0,0,1-2-1.06Z"/><path d="M730.9,355.12a1.8,1.8,0,1,1-1.8,1.8A1.79,1.79,0,0,1,730.9,355.12Zm1.6,5.52v8.94h-3.2v-8.94Z"/><path d="M735.26,366.62a4.58,4.58,0,0,0,1.28.66,4.16,4.16,0,0,0,1.24.22,1.36,1.36,0,0,0,.82-.24.51.51,0,0,0,.16-.42.47.47,0,0,0-.16-.4,2,2,0,0,0-.84-.32l-.84-.2a2.88,2.88,0,0,1-1.56-.78,2.16,2.16,0,0,1-.58-1.54,3.19,3.19,0,0,1,.84-2.18,4.51,4.51,0,0,1,3.2-1.08,7.38,7.38,0,0,1,2.86.58l-1.08,2a4.43,4.43,0,0,0-1.68-.44,1.35,1.35,0,0,0-.74.18.48.48,0,0,0-.28.44.52.52,0,0,0,.38.5c.3.12.56.12,1.06.26l.58.16a3.78,3.78,0,0,1,1.32.7,2.53,2.53,0,0,1,.68,1.78,3,3,0,0,1-.9,2.22,4.65,4.65,0,0,1-3.3,1.12,6.6,6.6,0,0,1-3.6-1Z"/><path d="M747.1,363.26v6.32h-3.2v-6.32h-1v-2.62h1V357.7h3.2v2.94h1.82v2.62Z"/><path d="M759.6,365.7h-6.66a2.26,2.26,0,0,0,.56,1.5,1.8,1.8,0,0,0,1.32.44,2.52,2.52,0,0,0,1-.24,1.49,1.49,0,0,0,.56-.6h3.06a4,4,0,0,1-1.08,1.84,4.86,4.86,0,0,1-3.64,1.24,5.07,5.07,0,0,1-3.7-1.36,4.68,4.68,0,0,1-1.32-3.38,4.77,4.77,0,0,1,1.34-3.46,5,5,0,0,1,3.66-1.3,4.9,4.9,0,0,1,3.44,1.22,5,5,0,0,1,1.42,3.76Zm-2.94-1.84a2.15,2.15,0,0,0-.52-1,1.86,1.86,0,0,0-1.32-.48,1.72,1.72,0,0,0-1.3.48,1.82,1.82,0,0,0-.48,1Z"/><path d="M761.44,360.64h3.2v1.08a3.43,3.43,0,0,1,2.68-1.24,3.64,3.64,0,0,1,1.72.4,2.79,2.79,0,0,1,1.24,1.28,3.14,3.14,0,0,1,1.22-1.24,3.63,3.63,0,0,1,1.86-.44,3.55,3.55,0,0,1,2.48.82,3.28,3.28,0,0,1,.84,2.46v5.82h-3.2v-4.42a2.66,2.66,0,0,0-.46-1.92,1.17,1.17,0,0,0-.84-.3,1.3,1.3,0,0,0-.94.36,2.29,2.29,0,0,0-.58,1.7v4.58h-3.2v-4.42a2.86,2.86,0,0,0-.42-1.92,1.24,1.24,0,0,0-1-.36,1.13,1.13,0,0,0-.88.32,2.64,2.64,0,0,0-.56,2v4.42h-3.2Z"/><path d="M790.48,360.64h3.2v8.94h-3.2v-1a3.34,3.34,0,0,1-2.78,1.28,4.28,4.28,0,0,1-3.22-1.42,4.51,4.51,0,0,1-1.28-3.28,5,5,0,0,1,1.38-3.58,4.6,4.6,0,0,1,3.22-1.26,3.54,3.54,0,0,1,2.68,1.16Zm-3.36,3a2.09,2.09,0,0,0-.64,1.46,2.06,2.06,0,0,0,.62,1.46,2.25,2.25,0,0,0,1.44.6,2.05,2.05,0,0,0,1.44-.62,1.94,1.94,0,0,0,.6-1.44,2,2,0,0,0-.62-1.46,2,2,0,0,0-2.84,0Z"/><path d="M799.32,363.26v6.32h-3.2v-6.32H795v-2.62h1.12v-1.5a4.6,4.6,0,0,1,.82-2.94,3.72,3.72,0,0,1,3.1-1.42,4.06,4.06,0,0,1,1.54.3v2.76a2,2,0,0,0-1-.3,1.15,1.15,0,0,0-.9.34,2.37,2.37,0,0,0-.36,1.5v1.26h2.24v2.62Z"/><path d="M812.26,365.7H805.6a2.26,2.26,0,0,0,.56,1.5,1.8,1.8,0,0,0,1.32.44,2.52,2.52,0,0,0,1-.24,1.49,1.49,0,0,0,.56-.6h3.06a4,4,0,0,1-1.08,1.84,4.86,4.86,0,0,1-3.64,1.24,5.07,5.07,0,0,1-3.7-1.36,4.68,4.68,0,0,1-1.32-3.38,4.77,4.77,0,0,1,1.34-3.46,5,5,0,0,1,3.66-1.3,4.9,4.9,0,0,1,3.44,1.22,5,5,0,0,1,1.42,3.76Zm-2.94-1.84a2.15,2.15,0,0,0-.52-1,1.86,1.86,0,0,0-1.32-.48,1.72,1.72,0,0,0-1.3.48,1.82,1.82,0,0,0-.48,1Z"/><path d="M820.86,369.38a4.75,4.75,0,0,1-2.22.5,4.94,4.94,0,0,1-3.52-1.36,4.68,4.68,0,0,1-1.38-3.34,4.87,4.87,0,0,1,1.44-3.46,5.16,5.16,0,0,1,3.6-1.36,4.59,4.59,0,0,1,2.08.5v2.68a2.85,2.85,0,0,0-1.66-.58,2.1,2.1,0,0,0-1.56.62,2.18,2.18,0,0,0-.62,1.54,2.3,2.3,0,0,0,.56,1.5,2.17,2.17,0,0,0,1.64.68,2.42,2.42,0,0,0,1.64-.6Z"/><path d="M826.42,363.26v6.32h-3.2v-6.32h-1v-2.62h1V357.7h3.2v2.94h1.82v2.62Z"/><path d="M836.36,360.64h3.2v8.94h-3.2v-1a3.34,3.34,0,0,1-2.78,1.28,4.28,4.28,0,0,1-3.22-1.42,4.51,4.51,0,0,1-1.28-3.28,5,5,0,0,1,1.38-3.58,4.6,4.6,0,0,1,3.22-1.26,3.54,3.54,0,0,1,2.68,1.16Zm-3.36,3a2.09,2.09,0,0,0-.64,1.46,2.06,2.06,0,0,0,.62,1.46,2.25,2.25,0,0,0,1.44.6,2.05,2.05,0,0,0,1.44-.62,1.94,1.94,0,0,0,.6-1.44,2,2,0,0,0-.62-1.46,2,2,0,0,0-2.84,0Z"/><path d="M845.3,363.26v6.32h-3.2v-6.32h-1v-2.62h1V357.7h3.2v2.94h1.82v2.62Z"/><rect x="967.5" y="334.5" width="187" height="55" rx="12" ry="12" style="fill:none;stroke:#3a5c84;stroke-miterlimit:10;stroke-width:5px"/><path d="M997.56,366.08a4.67,4.67,0,0,0,3.06,1.36A1.76,1.76,0,0,0,1002,367a1.19,1.19,0,0,0,.34-.84,1,1,0,0,0-.38-.8,4.8,4.8,0,0,0-1.72-.7l-.9-.28a4.36,4.36,0,0,1-1.92-1.08,3.36,3.36,0,0,1-.76-2.36,4.36,4.36,0,0,1,1.22-3.22,4.7,4.7,0,0,1,3.42-1.26,9.37,9.37,0,0,1,4.12,1.08l-1.38,2.7a3.52,3.52,0,0,0-2.28-.9,1.66,1.66,0,0,0-1.14.4,1,1,0,0,0-.34.72.89.89,0,0,0,.18.6,2.19,2.19,0,0,0,1.16.6l1.06.32a5.1,5.1,0,0,1,2.42,1.32,3.15,3.15,0,0,1,.86,2.38,4.52,4.52,0,0,1-1.26,3.36,5.17,5.17,0,0,1-3.94,1.36,7.13,7.13,0,0,1-2.62-.44,9.31,9.31,0,0,1-2-1.06Z"/><path d="M1009.4,355.62a1.8,1.8,0,1,1-1.8,1.8A1.79,1.79,0,0,1,1009.4,355.62Zm1.6,5.52v8.94h-3.2v-8.94Z"/><path d="M1013.76,367.12a4.58,4.58,0,0,0,1.28.66,4.16,4.16,0,0,0,1.24.22,1.36,1.36,0,0,0,.82-.24.51.51,0,0,0,.16-.42.47.47,0,0,0-.16-.4,2,2,0,0,0-.84-.32l-.84-.2a2.88,2.88,0,0,1-1.56-.78,2.16,2.16,0,0,1-.58-1.54,3.19,3.19,0,0,1,.84-2.18,4.51,4.51,0,0,1,3.2-1.08,7.38,7.38,0,0,1,2.86.58l-1.08,2a4.43,4.43,0,0,0-1.68-.44,1.35,1.35,0,0,0-.74.18.48.48,0,0,0-.28.44.52.52,0,0,0,.38.5c.3.12.56.12,1.06.26l.58.16a3.78,3.78,0,0,1,1.32.7,2.53,2.53,0,0,1,.68,1.78,3,3,0,0,1-.9,2.22,4.65,4.65,0,0,1-3.3,1.12,6.6,6.6,0,0,1-3.6-1Z"/><path d="M1025.6,363.76v6.32h-3.2v-6.32h-1v-2.62h1V358.2h3.2v2.94h1.82v2.62Z"/><path d="M1038.1,366.2h-6.66a2.26,2.26,0,0,0,.56,1.5,1.8,1.8,0,0,0,1.32.44,2.52,2.52,0,0,0,1-.24,1.49,1.49,0,0,0,.56-.6H1038a4,4,0,0,1-1.08,1.84,4.86,4.86,0,0,1-3.64,1.24,5.07,5.07,0,0,1-3.7-1.36,4.68,4.68,0,0,1-1.32-3.38,4.77,4.77,0,0,1,1.34-3.46,5,5,0,0,1,3.66-1.3,4.9,4.9,0,0,1,3.44,1.22,5,5,0,0,1,1.42,3.76Zm-2.94-1.84a2.15,2.15,0,0,0-.52-1,1.86,1.86,0,0,0-1.32-.48,1.72,1.72,0,0,0-1.3.48,1.82,1.82,0,0,0-.48,1Z"/><path d="M1039.94,361.14h3.2v1.08a3.43,3.43,0,0,1,2.68-1.24,3.64,3.64,0,0,1,1.72.4,2.79,2.79,0,0,1,1.24,1.28,3.14,3.14,0,0,1,1.22-1.24,3.63,3.63,0,0,1,1.86-.44,3.55,3.55,0,0,1,2.48.82,3.28,3.28,0,0,1,.84,2.46v5.82H1052v-4.42a2.66,2.66,0,0,0-.46-1.92,1.17,1.17,0,0,0-.84-.3,1.3,1.3,0,0,0-.94.36,2.29,2.29,0,0,0-.58,1.7v4.58H1046v-4.42a2.86,2.86,0,0,0-.42-1.92,1.24,1.24,0,0,0-1-.36,1.13,1.13,0,0,0-.88.32,2.64,2.64,0,0,0-.56,2v4.42h-3.2Z"/><path d="M1069,361.14h3.2v8.94H1069v-1a3.34,3.34,0,0,1-2.78,1.28A4.28,4.28,0,0,1,1063,369a4.51,4.51,0,0,1-1.28-3.28,5,5,0,0,1,1.38-3.58,4.6,4.6,0,0,1,3.22-1.26A3.54,3.54,0,0,1,1069,362Zm-3.36,3a2.09,2.09,0,0,0-.64,1.46,2.06,2.06,0,0,0,.62,1.46,2.25,2.25,0,0,0,1.44.6,2.05,2.05,0,0,0,1.44-.62,1.94,1.94,0,0,0,.6-1.44,2,2,0,0,0-.62-1.46,2,2,0,0,0-2.84,0Z"/><path d="M1077.82,363.76v6.32h-3.2v-6.32h-1.12v-2.62h1.12v-1.5a4.6,4.6,0,0,1,.82-2.94,3.72,3.72,0,0,1,3.1-1.42,4.06,4.06,0,0,1,1.54.3v2.76a2,2,0,0,0-1-.3,1.15,1.15,0,0,0-.9.34,2.37,2.37,0,0,0-.36,1.5v1.26h2.24v2.62Z"/><path d="M1090.76,366.2h-6.66a2.26,2.26,0,0,0,.56,1.5,1.8,1.8,0,0,0,1.32.44,2.52,2.52,0,0,0,1-.24,1.49,1.49,0,0,0,.56-.6h3.06a4,4,0,0,1-1.08,1.84,4.86,4.86,0,0,1-3.64,1.24,5.07,5.07,0,0,1-3.7-1.36,4.68,4.68,0,0,1-1.32-3.38,4.77,4.77,0,0,1,1.34-3.46,5,5,0,0,1,3.66-1.3,4.9,4.9,0,0,1,3.44,1.22,5,5,0,0,1,1.42,3.76Zm-2.94-1.84a2.15,2.15,0,0,0-.52-1,1.86,1.86,0,0,0-1.32-.48,1.72,1.72,0,0,0-1.3.48,1.82,1.82,0,0,0-.48,1Z"/><path d="M1099.36,369.88a4.75,4.75,0,0,1-2.22.5,4.94,4.94,0,0,1-3.52-1.36,4.68,4.68,0,0,1-1.38-3.34,4.87,4.87,0,0,1,1.44-3.46,5.16,5.16,0,0,1,3.6-1.36,4.59,4.59,0,0,1,2.08.5V364a2.85,2.85,0,0,0-1.66-.58,2.1,2.1,0,0,0-1.56.62,2.18,2.18,0,0,0-.62,1.54,2.3,2.3,0,0,0,.56,1.5,2.17,2.17,0,0,0,1.64.68,2.42,2.42,0,0,0,1.64-.6Z"/><path d="M1104.92,363.76v6.32h-3.2v-6.32h-1v-2.62h1V358.2h3.2v2.94h1.82v2.62Z"/><path d="M1114.86,361.14h3.2v8.94h-3.2v-1a3.34,3.34,0,0,1-2.78,1.28,4.28,4.28,0,0,1-3.22-1.42,4.51,4.51,0,0,1-1.28-3.28,5,5,0,0,1,1.38-3.58,4.6,4.6,0,0,1,3.22-1.26,3.54,3.54,0,0,1,2.68,1.16Zm-3.36,3a2.09,2.09,0,0,0-.64,1.46,2.06,2.06,0,0,0,.62,1.46,2.25,2.25,0,0,0,1.44.6,2.05,2.05,0,0,0,1.44-.62,1.94,1.94,0,0,0,.6-1.44,2,2,0,0,0-.62-1.46,2,2,0,0,0-2.84,0Z"/><path d="M1123.8,363.76v6.32h-3.2v-6.32h-1v-2.62h1V358.2h3.2v2.94h1.82v2.62Z"/><path d="M700.4,60a2.08,2.08,0,0,0,.54,1.34,1.84,1.84,0,0,0,1.36.52,1.77,1.77,0,0,0,1.36-.58,1.57,1.57,0,0,0,.4-1.1,1.53,1.53,0,0,0-.52-1.18,2.1,2.1,0,0,0-1.28-.38,1.77,1.77,0,0,0-.58.08V56.38A1.7,1.7,0,0,0,703.1,56a1.25,1.25,0,0,0,.44-.94,1.48,1.48,0,0,0-.36-1,1.43,1.43,0,0,0-1-.36,1.36,1.36,0,0,0-1,.34,1.68,1.68,0,0,0-.46,1.18h-3.22a4.74,4.74,0,0,1,1.3-3.06,5.34,5.34,0,0,1,6.84-.12,3.63,3.63,0,0,1,1.08,2.58,3.21,3.21,0,0,1-.4,1.64,2.29,2.29,0,0,1-1,1,3.26,3.26,0,0,1,1.58,1.22,3.37,3.37,0,0,1,.56,2,4,4,0,0,1-1.18,2.92,5.47,5.47,0,0,1-4,1.42,5.39,5.39,0,0,1-3.82-1.38A5.32,5.32,0,0,1,696.86,60Z"/><path d="M709.88,64.34a2.08,2.08,0,0,1,1.46-3.54,2.1,2.1,0,0,1,1.48.64,2.08,2.08,0,0,1,0,2.9,2,2,0,0,1-1.46.62A2,2,0,0,1,709.88,64.34Z"/><path d="M730,64.22a8.24,8.24,0,0,1-3,.66,7.26,7.26,0,0,1-5.16-2,7,7,0,0,1-2-4.86,7,7,0,0,1,7.06-7,8.27,8.27,0,0,1,3.12.68v4.14a3.71,3.71,0,0,0-3-1.46,3.38,3.38,0,0,0-2.4.88A3.73,3.73,0,0,0,723.42,58a3.68,3.68,0,0,0,1.08,2.6,3.73,3.73,0,0,0,2.48.92,3.92,3.92,0,0,0,3-1.4Z"/><path d="M731.9,55.64h3.2V57.1a2.88,2.88,0,0,1,1.26-1.24A3.49,3.49,0,0,1,738,55.5l.64,0v3a2.82,2.82,0,0,0-1.38-.32,2.1,2.1,0,0,0-1.46.48,2.7,2.7,0,0,0-.72,2v3.82h-3.2Z"/><path d="M741.68,50.12a1.8,1.8,0,1,1-1.8,1.8A1.79,1.79,0,0,1,741.68,50.12Zm1.6,5.52v8.94h-3.2V55.64Z"/><path d="M748.66,69.16h-3.2V55.64h3.2v1a3.34,3.34,0,0,1,2.74-1.28,4.44,4.44,0,0,1,3.18,1.3,5.08,5.08,0,0,1-.08,7,4.29,4.29,0,0,1-3.06,1.24,3.81,3.81,0,0,1-2.78-1.16Zm.52-10.5a2.18,2.18,0,0,0-.62,1.48,2.16,2.16,0,0,0,.62,1.42,2,2,0,0,0,1.44.6,1.93,1.93,0,0,0,1.42-.6,2.12,2.12,0,0,0,.62-1.42,2.18,2.18,0,0,0-.62-1.48,1.93,1.93,0,0,0-1.42-.6A2,2,0,0,0,749.18,58.66Z"/><path d="M761,69.16h-3.2V55.64H761v1a3.34,3.34,0,0,1,2.74-1.28,4.44,4.44,0,0,1,3.18,1.3,5.08,5.08,0,0,1-.08,7,4.29,4.29,0,0,1-3.06,1.24A3.81,3.81,0,0,1,761,63.72Zm.52-10.5a2.18,2.18,0,0,0-.62,1.48,2.16,2.16,0,0,0,.62,1.42,2,2,0,0,0,1.44.6,1.93,1.93,0,0,0,1.42-.6,2.12,2.12,0,0,0,.62-1.42,2.18,2.18,0,0,0-.62-1.48,1.93,1.93,0,0,0-1.42-.6A2,2,0,0,0,761.5,58.66Z"/><path d="M773.3,50V64.58h-3.2V50Z"/><path d="M785,60.7H778.3a2.26,2.26,0,0,0,.56,1.5,1.8,1.8,0,0,0,1.32.44,2.52,2.52,0,0,0,1-.24,1.49,1.49,0,0,0,.56-.6h3.06a4,4,0,0,1-1.08,1.84,4.86,4.86,0,0,1-3.64,1.24,5.07,5.07,0,0,1-3.7-1.36,4.68,4.68,0,0,1-1.32-3.38,4.77,4.77,0,0,1,1.34-3.46,5,5,0,0,1,3.66-1.3,4.9,4.9,0,0,1,3.44,1.22A5,5,0,0,1,785,60.36ZM782,58.86a2.15,2.15,0,0,0-.52-1,1.86,1.86,0,0,0-1.32-.48,1.72,1.72,0,0,0-1.3.48,1.82,1.82,0,0,0-.48,1Z"/><line x1="777" y1="204.81" x2="1057" y2="204.81" style="fill:none;stroke:#c13018;stroke-miterlimit:10;stroke-width:5.12820541858673px"/><line x1="777.51" y1="202.25" x2="777.51" y2="221.74" style="fill:none;stroke:#c13018;stroke-miterlimit:10;stroke-width:5.12820541858673px"/><line x1="1054.44" y1="202.76" x2="1054.44" y2="222.25" style="fill:none;stroke:#c13018;stroke-miterlimit:10;stroke-width:5.12820541858673px"/><polygon points="768.38 411.38 768.38 466.21 760.48 466.21 777.27 483 794.07 466.21 786.16 466.21 786.16 411.38 768.38 411.38" style="fill:none;stroke:#3a5c84;stroke-miterlimit:10;stroke-width:5px"/><polygon points="1046.43 411.38 1046.43 466.21 1038.53 466.21 1055.32 483 1072.12 466.21 1064.21 466.21 1064.21 411.38 1046.43 411.38" style="fill:none;stroke:#3a5c84;stroke-miterlimit:10;stroke-width:5px"/><path d="M916,369.67a2.08,2.08,0,0,1,1.46-3.54,2.1,2.1,0,0,1,1.48.64,2.08,2.08,0,0,1,0,2.9,2,2,0,0,1-1.46.62A2,2,0,0,1,916,369.67Z"/><path d="M922.05,369.67a2.08,2.08,0,0,1,1.46-3.54,2.1,2.1,0,0,1,1.48.64,2.08,2.08,0,0,1,0,2.9,2,2,0,0,1-1.46.62A2,2,0,0,1,922.05,369.67Z"/><path d="M928.11,369.67a2.08,2.08,0,0,1,1.46-3.54,2.1,2.1,0,0,1,1.48.64,2.08,2.08,0,0,1,0,2.9,2,2,0,0,1-1.46.62A2,2,0,0,1,928.11,369.67Z"/><line x1="838.5" y1="516.5" x2="776.5" y2="516.5" style="fill:none;stroke:#91c54f;stroke-miterlimit:10;stroke-width:5px"/><line x1="986.5" y1="513.5" x2="1055.5" y2="513.5" style="fill:none;stroke:#91c54f;stroke-miterlimit:10;stroke-width:5px"/></svg>