<svg id="Layer_1" data-name="Layer 1" xmlns="http://www.w3.org/2000/svg" viewBox="0 0 2860 358"><title>Capitolul12</title><path d="M49.77,261.05H42.51l-1.35,3.36H35.67l7.68-20H49l7.53,20H51Zm-1.38-4-2.25-6.48L44,257.09Z"/><path d="M63.21,271.28h-4.8V251h4.8v1.47a5,5,0,0,1,4.11-1.92,6.67,6.67,0,0,1,4.77,1.95A7.61,7.61,0,0,1,72,263a6.44,6.44,0,0,1-4.59,1.86,5.71,5.71,0,0,1-4.17-1.74ZM64,255.53a3.27,3.27,0,0,0-.93,2.22,3.24,3.24,0,0,0,.93,2.13,3.07,3.07,0,0,0,2.16.9,2.9,2.9,0,0,0,2.13-.9,3.17,3.17,0,0,0,.93-2.13,3.27,3.27,0,0,0-.93-2.22,2.9,2.9,0,0,0-2.13-.9A3.07,3.07,0,0,0,64,255.53Z"/><path d="M81.69,242.54v21.87h-4.8V242.54Z"/><path d="M87.36,242.72a2.7,2.7,0,1,1-2.7,2.7A2.69,2.69,0,0,1,87.36,242.72Zm2.4,8.28v13.41H85V251Z"/><path d="M103.17,264.11a7.12,7.12,0,0,1-3.33.75,7.41,7.41,0,0,1-5.28-2,7,7,0,0,1-2.07-5,7.3,7.3,0,0,1,2.16-5.19,7.73,7.73,0,0,1,5.4-2,6.88,6.88,0,0,1,3.12.75v4a4.28,4.28,0,0,0-2.49-.87,3.15,3.15,0,0,0-2.34.93,3.26,3.26,0,0,0-.93,2.31,3.44,3.44,0,0,0,.84,2.25,3.26,3.26,0,0,0,2.46,1,3.63,3.63,0,0,0,2.46-.9Z"/><path d="M116.28,251h4.8v13.41h-4.8v-1.47a5,5,0,0,1-4.17,1.92,6.42,6.42,0,0,1-4.83-2.13,6.76,6.76,0,0,1-1.92-4.92,7.42,7.42,0,0,1,2.07-5.37,6.9,6.9,0,0,1,4.83-1.89,5.31,5.31,0,0,1,4,1.74Zm-5,4.5a3.14,3.14,0,0,0-1,2.19,3.09,3.09,0,0,0,.93,2.19,3.37,3.37,0,0,0,2.16.9,3.08,3.08,0,0,0,2.16-.93,2.91,2.91,0,0,0,.9-2.16,3,3,0,0,0-.93-2.19,3,3,0,0,0-4.26,0Z"/><path d="M129.69,254.93v9.48h-4.8v-9.48h-1.53V251h1.53v-4.41h4.8V251h2.73v3.93Zm-4.62,11,4.5.48-3.06,5.52-3-.36Z"/><path d="M136.62,242.72a2.7,2.7,0,1,1-2.7,2.7A2.69,2.69,0,0,1,136.62,242.72ZM139,251v13.41h-4.8V251Z"/><path d="M156.51,258.59h-10a3.39,3.39,0,0,0,.84,2.25,2.7,2.7,0,0,0,2,.66,3.79,3.79,0,0,0,1.56-.36,2.23,2.23,0,0,0,.84-.9h4.59a6,6,0,0,1-1.62,2.76c-1,1-2.55,1.86-5.46,1.86a7.61,7.61,0,0,1-5.55-2,7,7,0,0,1-2-5.07,7.16,7.16,0,0,1,2-5.19,7.55,7.55,0,0,1,5.49-1.95,7.35,7.35,0,0,1,5.16,1.83,7.51,7.51,0,0,1,2.13,5.64Zm-4.41-2.76a3.22,3.22,0,0,0-.78-1.44,2.8,2.8,0,0,0-2-.72,2.58,2.58,0,0,0-2,.72,2.74,2.74,0,0,0-.72,1.44Z"/><path d="M176.4,264.11a7.12,7.12,0,0,1-3.33.75,7.41,7.41,0,0,1-5.28-2,7,7,0,0,1-2.07-5,7.3,7.3,0,0,1,2.16-5.19,7.73,7.73,0,0,1,5.4-2,6.88,6.88,0,0,1,3.12.75v4a4.28,4.28,0,0,0-2.49-.87,3.15,3.15,0,0,0-2.34.93,3.26,3.26,0,0,0-.93,2.31,3.44,3.44,0,0,0,.84,2.25,3.26,3.26,0,0,0,2.46,1,3.63,3.63,0,0,0,2.46-.9Z"/><path d="M183.93,251v7.5a2.57,2.57,0,0,0,.72,1.95,2.48,2.48,0,0,0,1.68.51,2.24,2.24,0,0,0,1.71-.57,2.49,2.49,0,0,0,.69-1.89V251h4.8v8.37a4.6,4.6,0,0,1-1.29,3.6c-1.65,1.71-4,1.89-5.79,1.89-2,0-4.47-.21-6.06-1.92a4.82,4.82,0,0,1-1.26-3.57V251Z"/><path d="M207.54,251l3.21,6.87L214,251h5.34l-7,13.41H209.1L202.17,251Z"/><path d="M225.81,251v7.5a2.57,2.57,0,0,0,.72,1.95,2.48,2.48,0,0,0,1.68.51,2.24,2.24,0,0,0,1.71-.57,2.49,2.49,0,0,0,.69-1.89V251h4.8v8.37a4.6,4.6,0,0,1-1.29,3.6c-1.65,1.71-4,1.89-5.79,1.89-2,0-4.47-.21-6.06-1.92a4.82,4.82,0,0,1-1.26-3.57V251Z"/><path d="M243.51,242.54v21.87h-4.8V242.54Z"/><path d="M246.78,251h4.8v1.68a5.06,5.06,0,0,1,4.26-2,5.42,5.42,0,0,1,4,1.44,4.62,4.62,0,0,1,1.26,3.75v8.52h-4.8v-6.78a3.85,3.85,0,0,0-.6-2.61,2,2,0,0,0-1.53-.57,2.63,2.63,0,0,0-1.77.63,3.08,3.08,0,0,0-.78,2.13v7.2h-4.8Z"/><path d="M278.55,258.59h-10a3.39,3.39,0,0,0,.84,2.25,2.7,2.7,0,0,0,2,.66,3.79,3.79,0,0,0,1.56-.36,2.23,2.23,0,0,0,.84-.9h4.59a6,6,0,0,1-1.62,2.76c-1,1-2.55,1.86-5.46,1.86a7.61,7.61,0,0,1-5.55-2,7,7,0,0,1-2-5.07,7.16,7.16,0,0,1,2-5.19,7.55,7.55,0,0,1,5.49-1.95,7.35,7.35,0,0,1,5.16,1.83,7.51,7.51,0,0,1,2.13,5.64Zm-4.41-2.76a3.22,3.22,0,0,0-.78-1.44,2.8,2.8,0,0,0-2-.72,2.58,2.58,0,0,0-1.95.72,2.74,2.74,0,0,0-.72,1.44Z"/><path d="M281.31,251h4.8v2.19a4.33,4.33,0,0,1,1.89-1.86,5.24,5.24,0,0,1,2.49-.54l1,.06v4.53a4.23,4.23,0,0,0-2.07-.48,3.14,3.14,0,0,0-2.19.72,4,4,0,0,0-1.08,3.06v5.73h-4.8Z"/><path d="M304,251h4.8v13.41H304v-1.47a5,5,0,0,1-4.17,1.92,6.42,6.42,0,0,1-4.83-2.13,6.76,6.76,0,0,1-1.92-4.92,7.42,7.42,0,0,1,2.07-5.37,6.9,6.9,0,0,1,4.83-1.89,5.31,5.31,0,0,1,4,1.74Zm-5,4.5a3.14,3.14,0,0,0-1,2.19,3.09,3.09,0,0,0,.93,2.19,3.37,3.37,0,0,0,2.16.9,3.08,3.08,0,0,0,2.16-.93,2.91,2.91,0,0,0,.9-2.16,3,3,0,0,0-.93-2.19,3,3,0,0,0-4.26,0Z"/><path d="M316.86,242.54v9.75a5.31,5.31,0,0,1,4-1.74,6.86,6.86,0,0,1,4.74,1.8,7.31,7.31,0,0,1,2.19,5.31,7.4,7.4,0,0,1-2.16,5.34,6.42,6.42,0,0,1-4.71,1.86,4.92,4.92,0,0,1-4.05-1.92v1.47h-4.8V242.54Zm5.07,17.34a3,3,0,0,0,.93-2.1,3.29,3.29,0,0,0-.93-2.28,3.08,3.08,0,0,0-4.32,0,3.51,3.51,0,0,0-.9,2.16,3.22,3.22,0,0,0,1,2.28,3.28,3.28,0,0,0,2.07.81A3,3,0,0,0,321.93,259.88Z"/><path d="M332.94,242.72a2.7,2.7,0,1,1-2.7,2.7A2.69,2.69,0,0,1,332.94,242.72Zm2.4,8.28v13.41h-4.8V251Z"/><path d="M343.41,242.54v21.87h-4.8V242.54Z"/><path d="M349.08,242.72a2.7,2.7,0,1,1-2.7,2.7A2.69,2.69,0,0,1,349.08,242.72Zm2.4,8.28v13.41h-4.8V251Z"/><path d="M360.06,254.93v9.48h-4.8v-9.48h-1.53V251h1.53v-4.41h4.8V251h2.73v3.93Z"/><path d="M375,251h4.8v13.41H375v-1.47a5,5,0,0,1-4.17,1.92,6.42,6.42,0,0,1-4.83-2.13,6.76,6.76,0,0,1-1.92-4.92,7.42,7.42,0,0,1,2.07-5.37,6.9,6.9,0,0,1,4.83-1.89,5.31,5.31,0,0,1,4,1.74Zm-5,4.5a3.14,3.14,0,0,0-1,2.19,3.09,3.09,0,0,0,.93,2.19,3.37,3.37,0,0,0,2.16.9,3.08,3.08,0,0,0,2.16-.93,2.91,2.91,0,0,0,.9-2.16,3,3,0,0,0-.93-2.19,3,3,0,0,0-4.26,0Z"/><path d="M388.38,254.93v9.48h-4.8v-9.48h-1.53V251h1.53v-4.41h4.8V251h2.73v3.93Z"/><path d="M407.12,258.59h-10a3.38,3.38,0,0,0,.83,2.25,2.72,2.72,0,0,0,2,.66,3.79,3.79,0,0,0,1.56-.36,2.23,2.23,0,0,0,.84-.9h4.59a6,6,0,0,1-1.62,2.76c-1,1-2.55,1.86-5.46,1.86a7.6,7.6,0,0,1-5.54-2,7,7,0,0,1-2-5.07,7.16,7.16,0,0,1,2-5.19,7.52,7.52,0,0,1,5.48-1.95,7.35,7.35,0,0,1,5.16,1.83,7.51,7.51,0,0,1,2.13,5.64Zm-4.41-2.76a3.22,3.22,0,0,0-.78-1.44,2.8,2.8,0,0,0-2-.72,2.56,2.56,0,0,0-1.94.72,2.6,2.6,0,0,0-.72,1.44Z"/><path d="M97.42,300.41h-4.8v-1.47a4.92,4.92,0,0,1-4.05,1.92A6.42,6.42,0,0,1,83.86,299a7.4,7.4,0,0,1-2.16-5.34,7.31,7.31,0,0,1,2.19-5.31,6.86,6.86,0,0,1,4.74-1.8,5.31,5.31,0,0,1,4,1.74v-9.75h4.8ZM91.75,296a3.22,3.22,0,0,0,1-2.28,3.51,3.51,0,0,0-.9-2.16,3.08,3.08,0,0,0-4.32,0,3.29,3.29,0,0,0-.93,2.28,3,3,0,0,0,.93,2.1,3,3,0,0,0,2.13.9A3.28,3.28,0,0,0,91.75,296Z"/><path d="M114.94,294.59H105a3.39,3.39,0,0,0,.84,2.25,2.7,2.7,0,0,0,2,.66,3.79,3.79,0,0,0,1.56-.36,2.23,2.23,0,0,0,.84-.9h4.59a6,6,0,0,1-1.62,2.76c-1,1-2.55,1.86-5.46,1.86a7.61,7.61,0,0,1-5.55-2,7,7,0,0,1-2-5.07,7.16,7.16,0,0,1,2-5.19,7.55,7.55,0,0,1,5.49-1.95,7.35,7.35,0,0,1,5.16,1.83,7.51,7.51,0,0,1,2.13,5.64Zm-4.41-2.76a3.22,3.22,0,0,0-.78-1.44,2.8,2.8,0,0,0-2-.72,2.58,2.58,0,0,0-2,.72,2.74,2.74,0,0,0-.72,1.44Z"/><path d="M135.07,287h4.8v13.41h-4.8v-1.47a5,5,0,0,1-4.17,1.92,6.42,6.42,0,0,1-4.83-2.13,6.76,6.76,0,0,1-1.92-4.92,7.42,7.42,0,0,1,2.07-5.37,6.9,6.9,0,0,1,4.83-1.89,5.31,5.31,0,0,1,4,1.74Zm-5,4.5a3.14,3.14,0,0,0-1,2.19,3.09,3.09,0,0,0,.93,2.19,3.37,3.37,0,0,0,2.16.9,3.08,3.08,0,0,0,2.16-.93,2.91,2.91,0,0,0,.9-2.16,3,3,0,0,0-.93-2.19,3,3,0,0,0-4.26,0Z"/><path d="M153.31,300.11a7.12,7.12,0,0,1-3.33.75,7.41,7.41,0,0,1-5.28-2,7,7,0,0,1-2.07-5,7.3,7.3,0,0,1,2.16-5.19,7.73,7.73,0,0,1,5.4-2,6.88,6.88,0,0,1,3.12.75v4a4.28,4.28,0,0,0-2.49-.87,3.15,3.15,0,0,0-2.34.93,3.26,3.26,0,0,0-.93,2.31,3.44,3.44,0,0,0,.84,2.25,3.26,3.26,0,0,0,2.46,1,3.63,3.63,0,0,0,2.46-.9Z"/><path d="M166.18,300.11a7.12,7.12,0,0,1-3.33.75,7.41,7.41,0,0,1-5.28-2,7,7,0,0,1-2.07-5,7.3,7.3,0,0,1,2.16-5.19,7.73,7.73,0,0,1,5.4-2,6.88,6.88,0,0,1,3.12.75v4a4.28,4.28,0,0,0-2.49-.87,3.15,3.15,0,0,0-2.34.93,3.26,3.26,0,0,0-.93,2.31,3.44,3.44,0,0,0,.84,2.25,3.26,3.26,0,0,0,2.46,1,3.63,3.63,0,0,0,2.46-.9Z"/><path d="M183.13,294.59h-10a3.39,3.39,0,0,0,.84,2.25,2.7,2.7,0,0,0,2,.66,3.79,3.79,0,0,0,1.56-.36,2.23,2.23,0,0,0,.84-.9H183a6,6,0,0,1-1.62,2.76c-1,1-2.55,1.86-5.46,1.86a7.61,7.61,0,0,1-5.55-2,7,7,0,0,1-2-5.07,7.16,7.16,0,0,1,2-5.19,7.55,7.55,0,0,1,5.49-1.95,7.35,7.35,0,0,1,5.16,1.83,7.51,7.51,0,0,1,2.13,5.64Zm-4.41-2.76a3.22,3.22,0,0,0-.78-1.44,2.8,2.8,0,0,0-2-.72,2.58,2.58,0,0,0-2,.72,2.74,2.74,0,0,0-.72,1.44Z"/><path d="M186.76,296a6.87,6.87,0,0,0,1.92,1,6.25,6.25,0,0,0,1.86.33,2,2,0,0,0,1.23-.36.77.77,0,0,0,.24-.63.71.71,0,0,0-.24-.6,3,3,0,0,0-1.26-.48l-1.26-.3a4.31,4.31,0,0,1-2.34-1.17,3.24,3.24,0,0,1-.87-2.31,4.79,4.79,0,0,1,1.26-3.27,6.77,6.77,0,0,1,4.8-1.62,11.07,11.07,0,0,1,4.29.87l-1.62,3.06a6.64,6.64,0,0,0-2.52-.66,2,2,0,0,0-1.11.27.72.72,0,0,0-.42.66.78.78,0,0,0,.57.75c.45.18.84.18,1.59.39l.87.24a5.67,5.67,0,0,1,2,1.05,3.79,3.79,0,0,1,1,2.67,4.48,4.48,0,0,1-1.35,3.33,7,7,0,0,1-5,1.68,9.89,9.89,0,0,1-5.4-1.56Z"/><path d="M211,278.54v21.87h-4.8V278.54Z"/><path d="M224.65,287h4.8v13.41h-4.8v-1.47a5,5,0,0,1-4.17,1.92,6.42,6.42,0,0,1-4.83-2.13,6.76,6.76,0,0,1-1.92-4.92,7.42,7.42,0,0,1,2.07-5.37,6.9,6.9,0,0,1,4.83-1.89,5.31,5.31,0,0,1,4,1.74Zm-5,4.5a3.14,3.14,0,0,0-1,2.19,3.09,3.09,0,0,0,.93,2.19,3.37,3.37,0,0,0,2.16.9,3.08,3.08,0,0,0,2.16-.93,2.91,2.91,0,0,0,.9-2.16,3,3,0,0,0-.93-2.19,3,3,0,0,0-4.26,0Z"/><path d="M239.74,287h4.8v1.62a5.15,5.15,0,0,1,4-1.86,5.46,5.46,0,0,1,2.58.6,4.19,4.19,0,0,1,1.86,1.92,4.71,4.71,0,0,1,1.83-1.86,5.44,5.44,0,0,1,2.79-.66,5.33,5.33,0,0,1,3.72,1.23,4.93,4.93,0,0,1,1.26,3.69v8.73h-4.8v-6.63c0-1.41-.15-2.37-.69-2.88a1.75,1.75,0,0,0-1.26-.45,1.94,1.94,0,0,0-1.41.54,3.43,3.43,0,0,0-.87,2.55v6.87h-4.8v-6.63a4.29,4.29,0,0,0-.63-2.88,1.86,1.86,0,0,0-1.44-.54,1.69,1.69,0,0,0-1.32.48,4,4,0,0,0-.84,2.94v6.63h-4.8Z"/><path d="M280.15,294.59h-10a3.39,3.39,0,0,0,.84,2.25,2.7,2.7,0,0,0,2,.66,3.79,3.79,0,0,0,1.56-.36,2.23,2.23,0,0,0,.84-.9H280a6,6,0,0,1-1.62,2.76c-1,1-2.55,1.86-5.46,1.86a7.61,7.61,0,0,1-5.55-2,7,7,0,0,1-2-5.07,7.16,7.16,0,0,1,2-5.19,7.55,7.55,0,0,1,5.49-1.95,7.35,7.35,0,0,1,5.16,1.83,7.51,7.51,0,0,1,2.13,5.64Zm-4.41-2.76a3.22,3.22,0,0,0-.78-1.44,2.8,2.8,0,0,0-2-.72,2.58,2.58,0,0,0-2,.72,2.74,2.74,0,0,0-.72,1.44Z"/><path d="M282.91,287h4.8v1.62a5.15,5.15,0,0,1,4-1.86,5.46,5.46,0,0,1,2.58.6,4.19,4.19,0,0,1,1.86,1.92,4.71,4.71,0,0,1,1.83-1.86,5.44,5.44,0,0,1,2.79-.66,5.33,5.33,0,0,1,3.72,1.23,4.93,4.93,0,0,1,1.26,3.69v8.73H301v-6.63c0-1.41-.15-2.37-.69-2.88a1.75,1.75,0,0,0-1.26-.45,1.94,1.94,0,0,0-1.41.54,3.43,3.43,0,0,0-.87,2.55v6.87h-4.8v-6.63a4.29,4.29,0,0,0-.63-2.88,1.86,1.86,0,0,0-1.44-.54,1.69,1.69,0,0,0-1.32.48,4,4,0,0,0-.84,2.94v6.63h-4.8Z"/><path d="M322.6,298.64a9.18,9.18,0,0,1-12,0,6.92,6.92,0,0,1,0-9.87,8.37,8.37,0,0,1,6-2.22,8.47,8.47,0,0,1,6,2.22,6.92,6.92,0,0,1,0,9.87Zm-8.13-7.14a3.06,3.06,0,0,0,2.16,5.22,3.05,3.05,0,0,0,2.13-.9,3,3,0,0,0,.93-2.13,3.26,3.26,0,0,0-.93-2.19,3.08,3.08,0,0,0-4.29,0Z"/><path d="M327.43,287h4.8v2.19a4.33,4.33,0,0,1,1.89-1.86,5.24,5.24,0,0,1,2.49-.54l1,.06v4.53a4.23,4.23,0,0,0-2.07-.48,3.14,3.14,0,0,0-2.19.72,4,4,0,0,0-1.08,3.06v5.73h-4.8Z"/><path d="M342.1,278.72a2.7,2.7,0,1,1-2.7,2.7A2.69,2.69,0,0,1,342.1,278.72Zm2.4,8.28v13.41h-4.8V287Z"/><path d="M362,294.59H352a3.39,3.39,0,0,0,.84,2.25,2.7,2.7,0,0,0,2,.66,3.79,3.79,0,0,0,1.56-.36,2.23,2.23,0,0,0,.84-.9h4.59a6,6,0,0,1-1.62,2.76c-1,1-2.55,1.86-5.46,1.86a7.61,7.61,0,0,1-5.55-2,7,7,0,0,1-2-5.07,7.16,7.16,0,0,1,2-5.19,7.55,7.55,0,0,1,5.49-1.95,7.35,7.35,0,0,1,5.16,1.83,7.51,7.51,0,0,1,2.13,5.64Zm-4.41-2.76a3.22,3.22,0,0,0-.78-1.44,2.8,2.8,0,0,0-2-.72,2.58,2.58,0,0,0-1.95.72,2.74,2.74,0,0,0-.72,1.44Z"/><path d="M547.62,261.89a12,12,0,0,1-15.78,0,10.47,10.47,0,0,1,0-15,12,12,0,0,1,15.78,0,10.47,10.47,0,0,1,0,15Zm-11.94-11.31a5.49,5.49,0,0,0-1.59,3.93,5.09,5.09,0,0,0,1.59,3.72,5.68,5.68,0,0,0,4.05,1.59,5.44,5.44,0,0,0,5.64-5.4,5.4,5.4,0,0,0-1.62-3.84,6,6,0,0,0-4-1.59A5.76,5.76,0,0,0,535.68,250.58Z"/><path d="M558.42,242.54v9.75a5.31,5.31,0,0,1,4-1.74,6.86,6.86,0,0,1,4.74,1.8,7.31,7.31,0,0,1,2.19,5.31,7.4,7.4,0,0,1-2.16,5.34,6.42,6.42,0,0,1-4.71,1.86,4.92,4.92,0,0,1-4.05-1.92v1.47h-4.8V242.54Zm5.07,17.34a3,3,0,0,0,.93-2.1,3.29,3.29,0,0,0-.93-2.28,3.08,3.08,0,0,0-4.32,0,3.51,3.51,0,0,0-.9,2.16,3.22,3.22,0,0,0,1,2.28,3.28,3.28,0,0,0,2.07.81A3,3,0,0,0,563.49,259.88Z"/><path d="M577.41,254.93v9.48h-4.8v-9.48h-1.53V251h1.53v-4.41h4.8V251h2.73v3.93Zm-4.62,11,4.5.48-3.06,5.52-3-.36Z"/><path d="M584.34,242.72a2.7,2.7,0,1,1-2.7,2.7A2.69,2.69,0,0,1,584.34,242.72Zm2.4,8.28v13.41h-4.8V251Z"/><path d="M590,251h4.8v1.68a5.06,5.06,0,0,1,4.26-2,5.42,5.42,0,0,1,4,1.44,4.62,4.62,0,0,1,1.26,3.75v8.52h-4.8v-6.78a3.85,3.85,0,0,0-.6-2.61,2,2,0,0,0-1.53-.57,2.63,2.63,0,0,0-1.77.63,3.08,3.08,0,0,0-.78,2.13v7.2H590Z"/><path d="M621.78,258.59h-10a3.39,3.39,0,0,0,.84,2.25,2.7,2.7,0,0,0,2,.66,3.79,3.79,0,0,0,1.56-.36,2.23,2.23,0,0,0,.84-.9h4.59A6,6,0,0,1,620,263c-1,1-2.55,1.86-5.46,1.86a7.61,7.61,0,0,1-5.55-2,7,7,0,0,1-2-5.07,7.16,7.16,0,0,1,2-5.19,7.55,7.55,0,0,1,5.49-1.95,7.35,7.35,0,0,1,5.16,1.83,7.51,7.51,0,0,1,2.13,5.64Zm-4.41-2.76a3.22,3.22,0,0,0-.78-1.44,2.8,2.8,0,0,0-2-.72,2.58,2.58,0,0,0-2,.72,2.74,2.74,0,0,0-.72,1.44Z"/><path d="M624.54,251h4.8v2.19a4.33,4.33,0,0,1,1.89-1.86,5.24,5.24,0,0,1,2.49-.54l1,.06v4.53a4.23,4.23,0,0,0-2.07-.48,3.14,3.14,0,0,0-2.19.72,4,4,0,0,0-1.08,3.06v5.73h-4.8Z"/><path d="M651,258.59H641a3.39,3.39,0,0,0,.84,2.25,2.7,2.7,0,0,0,2,.66,3.79,3.79,0,0,0,1.56-.36,2.23,2.23,0,0,0,.84-.9h4.59a6,6,0,0,1-1.62,2.76c-1,1-2.55,1.86-5.46,1.86a7.61,7.61,0,0,1-5.55-2,7,7,0,0,1-2-5.07,7.16,7.16,0,0,1,2-5.19,7.55,7.55,0,0,1,5.49-1.95,7.35,7.35,0,0,1,5.16,1.83,7.51,7.51,0,0,1,2.13,5.64Zm-4.41-2.76a3.22,3.22,0,0,0-.78-1.44,2.8,2.8,0,0,0-2-.72,2.58,2.58,0,0,0-2,.72,2.74,2.74,0,0,0-.72,1.44Z"/><path d="M663.18,242.72a2.7,2.7,0,1,1-2.7,2.7A2.69,2.69,0,0,1,663.18,242.72Zm2.4,8.28v13.41h-4.8V251Z"/><path d="M668.85,251h4.8v1.68a5.06,5.06,0,0,1,4.26-2,5.42,5.42,0,0,1,4,1.44,4.62,4.62,0,0,1,1.26,3.75v8.52h-4.8v-6.78a3.85,3.85,0,0,0-.6-2.61,2,2,0,0,0-1.53-.57,2.63,2.63,0,0,0-1.77.63,3.08,3.08,0,0,0-.78,2.13v7.2h-4.8Z"/><path d="M691.56,254.93v9.48h-4.8v-9.48h-1.68V251h1.68v-2.25a6.9,6.9,0,0,1,1.23-4.41,5.58,5.58,0,0,1,4.65-2.13,6.09,6.09,0,0,1,2.31.45v4.14a3,3,0,0,0-1.5-.45,1.73,1.73,0,0,0-1.35.51,3.55,3.55,0,0,0-.54,2.25V251h3.36v3.93Z"/><path d="M710.25,262.64a9.18,9.18,0,0,1-12,0,6.92,6.92,0,0,1,0-9.87,8.37,8.37,0,0,1,6-2.22,8.47,8.47,0,0,1,6,2.22,6.92,6.92,0,0,1,0,9.87Zm-8.13-7.14a3.06,3.06,0,0,0,2.16,5.22,3.05,3.05,0,0,0,2.13-.9,3,3,0,0,0,.93-2.13,3.26,3.26,0,0,0-.93-2.19,3.08,3.08,0,0,0-4.29,0Z"/><path d="M715.08,251h4.8v2.19a4.33,4.33,0,0,1,1.89-1.86,5.24,5.24,0,0,1,2.49-.54l1,.06v4.53a4.23,4.23,0,0,0-2.07-.48,3.14,3.14,0,0,0-2.19.72,4,4,0,0,0-1.08,3.06v5.73h-4.8Z"/><path d="M727.35,251h4.8v1.62a5.15,5.15,0,0,1,4-1.86,5.46,5.46,0,0,1,2.58.6,4.19,4.19,0,0,1,1.86,1.92,4.71,4.71,0,0,1,1.83-1.86,5.44,5.44,0,0,1,2.79-.66A5.33,5.33,0,0,1,749,252a4.93,4.93,0,0,1,1.26,3.69v8.73h-4.8v-6.63c0-1.41-.15-2.37-.69-2.88a1.75,1.75,0,0,0-1.26-.45,1.94,1.94,0,0,0-1.41.54,3.43,3.43,0,0,0-.87,2.55v6.87h-4.8v-6.63a4.29,4.29,0,0,0-.63-2.88,1.86,1.86,0,0,0-1.44-.54,1.69,1.69,0,0,0-1.32.48,4,4,0,0,0-.84,2.94v6.63h-4.8Z"/><path d="M763.92,251h4.8v13.41h-4.8v-1.47a5,5,0,0,1-4.17,1.92,6.42,6.42,0,0,1-4.83-2.13,6.76,6.76,0,0,1-1.92-4.92,7.42,7.42,0,0,1,2.07-5.37,6.9,6.9,0,0,1,4.83-1.89,5.31,5.31,0,0,1,4,1.74Zm-5,4.5a3.14,3.14,0,0,0-1,2.19,3.09,3.09,0,0,0,.93,2.19,3.37,3.37,0,0,0,2.16.9,3.08,3.08,0,0,0,2.16-.93,2.91,2.91,0,0,0,.9-2.16,3,3,0,0,0-.93-2.19,3,3,0,0,0-4.26,0Z"/><path d="M777.33,254.93v9.48h-4.8v-9.48H771V251h1.53v-4.41h4.8V251h2.73v3.93Zm-4.62,11,4.5.48-3.06,5.52-3-.36Z"/><path d="M784.26,242.72a2.7,2.7,0,1,1-2.7,2.7A2.69,2.69,0,0,1,784.26,242.72Zm2.4,8.28v13.41h-4.8V251Z"/><path d="M792.33,242.72a2.7,2.7,0,1,1-2.7,2.7A2.69,2.69,0,0,1,792.33,242.72Zm2.4,8.28v13.41h-4.8V251Z"/><path d="M820.17,264.41h-4.8v-1.47a4.92,4.92,0,0,1-4,1.92,6.42,6.42,0,0,1-4.71-1.86,7.4,7.4,0,0,1-2.16-5.34,7.31,7.31,0,0,1,2.19-5.31,6.86,6.86,0,0,1,4.74-1.8,5.31,5.31,0,0,1,4,1.74v-9.75h4.8ZM814.5,260a3.22,3.22,0,0,0,1-2.28,3.51,3.51,0,0,0-.9-2.16,3.08,3.08,0,0,0-4.32,0,3.29,3.29,0,0,0-.93,2.28,3,3,0,0,0,.93,2.1,3,3,0,0,0,2.13.9A3.28,3.28,0,0,0,814.5,260Z"/><path d="M825.87,242.72a2.7,2.7,0,1,1-2.7,2.7A2.69,2.69,0,0,1,825.87,242.72Zm2.4,8.28v13.41h-4.8V251Z"/><path d="M831.54,251h4.8v1.68a5.06,5.06,0,0,1,4.26-2,5.42,5.42,0,0,1,4,1.44,4.62,4.62,0,0,1,1.26,3.75v8.52H841v-6.78a3.85,3.85,0,0,0-.6-2.61,2,2,0,0,0-1.53-.57,2.63,2.63,0,0,0-1.77.63,3.08,3.08,0,0,0-.78,2.13v7.2h-4.8Z"/><path d="M626.61,287h4.8v1.62a5.15,5.15,0,0,1,4-1.86,5.46,5.46,0,0,1,2.58.6,4.19,4.19,0,0,1,1.86,1.92,4.71,4.71,0,0,1,1.83-1.86,5.44,5.44,0,0,1,2.79-.66,5.33,5.33,0,0,1,3.72,1.23,4.93,4.93,0,0,1,1.26,3.69v8.73h-4.8v-6.63c0-1.41-.15-2.37-.69-2.88a1.75,1.75,0,0,0-1.26-.45,1.94,1.94,0,0,0-1.41.54,3.43,3.43,0,0,0-.87,2.55v6.87h-4.8v-6.63a4.29,4.29,0,0,0-.63-2.88,1.86,1.86,0,0,0-1.44-.54,1.69,1.69,0,0,0-1.32.48,4,4,0,0,0-.84,2.94v6.63h-4.8Z"/><path d="M667,294.59H657a3.39,3.39,0,0,0,.84,2.25,2.7,2.7,0,0,0,2,.66,3.79,3.79,0,0,0,1.56-.36,2.23,2.23,0,0,0,.84-.9h4.59a6,6,0,0,1-1.62,2.76c-1,1-2.55,1.86-5.46,1.86a7.61,7.61,0,0,1-5.55-2,7,7,0,0,1-2-5.07,7.16,7.16,0,0,1,2-5.19,7.55,7.55,0,0,1,5.49-1.95,7.35,7.35,0,0,1,5.16,1.83,7.51,7.51,0,0,1,2.13,5.64Zm-4.41-2.76a3.22,3.22,0,0,0-.78-1.44,2.8,2.8,0,0,0-2-.72,2.58,2.58,0,0,0-2,.72,2.74,2.74,0,0,0-.72,1.44Z"/><path d="M669.78,287h4.8v1.62a5.15,5.15,0,0,1,4-1.86,5.46,5.46,0,0,1,2.58.6,4.19,4.19,0,0,1,1.86,1.92,4.71,4.71,0,0,1,1.83-1.86,5.44,5.44,0,0,1,2.79-.66,5.33,5.33,0,0,1,3.72,1.23,4.93,4.93,0,0,1,1.26,3.69v8.73h-4.8v-6.63c0-1.41-.15-2.37-.69-2.88a1.75,1.75,0,0,0-1.26-.45,1.94,1.94,0,0,0-1.41.54,3.43,3.43,0,0,0-.87,2.55v6.87h-4.8v-6.63a4.29,4.29,0,0,0-.63-2.88,1.86,1.86,0,0,0-1.44-.54,1.69,1.69,0,0,0-1.32.48,4,4,0,0,0-.84,2.94v6.63h-4.8Z"/><path d="M709.47,298.64a9.18,9.18,0,0,1-12,0,6.92,6.92,0,0,1,0-9.87,8.37,8.37,0,0,1,6-2.22,8.47,8.47,0,0,1,6,2.22,6.92,6.92,0,0,1,0,9.87Zm-8.13-7.14a3.06,3.06,0,0,0,2.16,5.22,3.05,3.05,0,0,0,2.13-.9,3,3,0,0,0,.93-2.13,3.26,3.26,0,0,0-.93-2.19,3.08,3.08,0,0,0-4.29,0Z"/><path d="M714.3,287h4.8v2.19a4.33,4.33,0,0,1,1.89-1.86,5.24,5.24,0,0,1,2.49-.54l1,.06v4.53a4.23,4.23,0,0,0-2.07-.48,3.14,3.14,0,0,0-2.19.72,4,4,0,0,0-1.08,3.06v5.73h-4.8Z"/><path d="M729,278.72a2.7,2.7,0,1,1-2.7,2.7A2.69,2.69,0,0,1,729,278.72Zm2.4,8.28v13.41h-4.8V287Z"/><path d="M748.86,294.59h-10a3.39,3.39,0,0,0,.84,2.25,2.7,2.7,0,0,0,2,.66,3.79,3.79,0,0,0,1.56-.36,2.23,2.23,0,0,0,.84-.9h4.59a6,6,0,0,1-1.62,2.76c-1,1-2.55,1.86-5.46,1.86a7.61,7.61,0,0,1-5.55-2,7,7,0,0,1-2-5.07,7.16,7.16,0,0,1,2-5.19,7.55,7.55,0,0,1,5.49-1.95,7.35,7.35,0,0,1,5.16,1.83,7.51,7.51,0,0,1,2.13,5.64Zm-4.41-2.76a3.22,3.22,0,0,0-.78-1.44,2.8,2.8,0,0,0-2-.72,2.58,2.58,0,0,0-2,.72,2.74,2.74,0,0,0-.72,1.44Z"/><path d="M980.36,244.4a6.47,6.47,0,0,1,4.89,1.77,6.59,6.59,0,0,1,1.71,4.5,5.77,5.77,0,0,1-1.59,4.17,5.61,5.61,0,0,1-2.76,1.38l6.27,8.19h-6.45l-5-7.68v7.68h-5.19v-20Zm-2.91,9h1a3.9,3.9,0,0,0,2.52-.81,2.49,2.49,0,0,0,.66-1.68,2.36,2.36,0,0,0-.69-1.68,3.52,3.52,0,0,0-2.49-.78h-1Z"/><path d="M995.42,251v7.5a2.57,2.57,0,0,0,.72,1.95,2.48,2.48,0,0,0,1.68.51,2.24,2.24,0,0,0,1.71-.57,2.49,2.49,0,0,0,.69-1.89V251h4.8v8.37a4.6,4.6,0,0,1-1.29,3.6c-1.65,1.71-4,1.89-5.79,1.89-2,0-4.47-.21-6.06-1.92a4.82,4.82,0,0,1-1.26-3.57V251Z"/><path d="M1013.12,242.54v21.87h-4.8V242.54Z"/><path d="M1026.77,251h4.8v13.41h-4.8v-1.47a5,5,0,0,1-4.17,1.92,6.42,6.42,0,0,1-4.83-2.13,6.76,6.76,0,0,1-1.92-4.92,7.42,7.42,0,0,1,2.07-5.37,6.9,6.9,0,0,1,4.83-1.89,5.31,5.31,0,0,1,4,1.74Zm-5,4.5a3.14,3.14,0,0,0-1,2.19,3.09,3.09,0,0,0,.93,2.19,3.37,3.37,0,0,0,2.16.9,3.08,3.08,0,0,0,2.16-.93,2.91,2.91,0,0,0,.9-2.16,3,3,0,0,0-.93-2.19,3,3,0,0,0-4.26,0Z"/><path d="M1034.87,251h4.8v2.19a4.33,4.33,0,0,1,1.89-1.86,5.24,5.24,0,0,1,2.49-.54l1,.06v4.53a4.23,4.23,0,0,0-2.07-.48,3.14,3.14,0,0,0-2.19.72,4,4,0,0,0-1.08,3.06v5.73h-4.8Z"/><path d="M1061.36,258.59h-10a3.39,3.39,0,0,0,.84,2.25,2.7,2.7,0,0,0,2,.66,3.79,3.79,0,0,0,1.56-.36,2.23,2.23,0,0,0,.84-.9h4.59a6,6,0,0,1-1.62,2.76c-1,1-2.55,1.86-5.46,1.86a7.61,7.61,0,0,1-5.55-2,7,7,0,0,1-2-5.07,7.16,7.16,0,0,1,2-5.19,7.55,7.55,0,0,1,5.49-1.95,7.35,7.35,0,0,1,5.16,1.83,7.51,7.51,0,0,1,2.13,5.64Zm-4.41-2.76a3.22,3.22,0,0,0-.78-1.44,2.8,2.8,0,0,0-2-.72,2.58,2.58,0,0,0-2,.72,2.74,2.74,0,0,0-.72,1.44Z"/><path d="M1081.25,264.11a7.12,7.12,0,0,1-3.33.75,7.41,7.41,0,0,1-5.28-2,7,7,0,0,1-2.07-5,7.3,7.3,0,0,1,2.16-5.19,7.73,7.73,0,0,1,5.4-2,6.88,6.88,0,0,1,3.12.75v4a4.28,4.28,0,0,0-2.49-.87,3.15,3.15,0,0,0-2.34.93,3.26,3.26,0,0,0-.93,2.31,3.44,3.44,0,0,0,.84,2.25,3.26,3.26,0,0,0,2.46,1,3.63,3.63,0,0,0,2.46-.9Z"/><path d="M1097.48,262.64a9.18,9.18,0,0,1-12,0,6.92,6.92,0,0,1,0-9.87,8.37,8.37,0,0,1,6-2.22,8.47,8.47,0,0,1,6,2.22,6.92,6.92,0,0,1,0,9.87Zm-8.13-7.14a3.06,3.06,0,0,0,2.16,5.22,3.05,3.05,0,0,0,2.13-.9,3,3,0,0,0,.93-2.13,3.26,3.26,0,0,0-.93-2.19,3.08,3.08,0,0,0-4.29,0Z"/><path d="M1117.49,264.41h-4.8v-1.47a4.92,4.92,0,0,1-4,1.92,6.42,6.42,0,0,1-4.71-1.86,7.4,7.4,0,0,1-2.16-5.34,7.31,7.31,0,0,1,2.19-5.31,6.86,6.86,0,0,1,4.74-1.8,5.31,5.31,0,0,1,4,1.74v-9.75h4.8Zm-5.67-4.44a3.22,3.22,0,0,0,1-2.28,3.51,3.51,0,0,0-.9-2.16,3.08,3.08,0,0,0-4.32,0,3.29,3.29,0,0,0-.93,2.28,3,3,0,0,0,.93,2.1,3,3,0,0,0,2.13.9A3.28,3.28,0,0,0,1111.82,260Z"/><path d="M1138.16,251h4.8v13.41h-4.8v-1.47a5,5,0,0,1-4.17,1.92,6.42,6.42,0,0,1-4.83-2.13,6.76,6.76,0,0,1-1.92-4.92,7.42,7.42,0,0,1,2.07-5.37,6.9,6.9,0,0,1,4.83-1.89,5.31,5.31,0,0,1,4,1.74Zm-5,4.5a3.14,3.14,0,0,0-1,2.19,3.09,3.09,0,0,0,.93,2.19,3.37,3.37,0,0,0,2.16.9,3.08,3.08,0,0,0,2.16-.93,2.91,2.91,0,0,0,.9-2.16,3,3,0,0,0-.93-2.19,3,3,0,0,0-4.26,0Z"/><path d="M1146.26,251h4.8v2.19a4.33,4.33,0,0,1,1.89-1.86,5.24,5.24,0,0,1,2.49-.54l1,.06v4.53a4.23,4.23,0,0,0-2.07-.48,3.14,3.14,0,0,0-2.19.72,4,4,0,0,0-1.08,3.06v5.73h-4.8Z"/><path d="M1163.33,242.54v9.75a5.31,5.31,0,0,1,4-1.74,6.86,6.86,0,0,1,4.74,1.8,7.31,7.31,0,0,1,2.19,5.31,7.4,7.4,0,0,1-2.16,5.34,6.42,6.42,0,0,1-4.71,1.86,4.92,4.92,0,0,1-4.05-1.92v1.47h-4.8V242.54Zm5.07,17.34a3,3,0,0,0,.93-2.1,3.29,3.29,0,0,0-.93-2.28,3.08,3.08,0,0,0-4.32,0,3.51,3.51,0,0,0-.9,2.16,3.22,3.22,0,0,0,1,2.28,3.28,3.28,0,0,0,2.07.81A3,3,0,0,0,1168.4,259.88Z"/><path d="M1179.41,242.72a2.7,2.7,0,1,1-2.7,2.7A2.69,2.69,0,0,1,1179.41,242.72Zm2.4,8.28v13.41H1177V251Z"/><path d="M1190.39,254.93v9.48h-4.8v-9.48h-1.53V251h1.53v-4.41h4.8V251h2.73v3.93Z"/><path d="M1194.92,251h4.8v2.19a4.33,4.33,0,0,1,1.89-1.86,5.24,5.24,0,0,1,2.49-.54l1,.06v4.53a4.23,4.23,0,0,0-2.07-.48,3.14,3.14,0,0,0-2.19.72,4,4,0,0,0-1.08,3.06v5.73h-4.8Z"/><path d="M1217.57,251h4.8v13.41h-4.8v-1.47a5,5,0,0,1-4.17,1.92,6.42,6.42,0,0,1-4.83-2.13,6.76,6.76,0,0,1-1.92-4.92,7.42,7.42,0,0,1,2.07-5.37,6.9,6.9,0,0,1,4.83-1.89,5.31,5.31,0,0,1,4,1.74Zm-5,4.5a3.14,3.14,0,0,0-1,2.19,3.09,3.09,0,0,0,.93,2.19,3.37,3.37,0,0,0,2.16.9,3.08,3.08,0,0,0,2.16-.93,2.91,2.91,0,0,0,.9-2.16,3,3,0,0,0-.93-2.19,3,3,0,0,0-4.26,0Z"/><path d="M1225.67,251h4.8v2.19a4.33,4.33,0,0,1,1.89-1.86,5.24,5.24,0,0,1,2.49-.54l1,.06v4.53a4.23,4.23,0,0,0-2.07-.48,3.14,3.14,0,0,0-2.19.72,4,4,0,0,0-1.08,3.06v5.73h-4.8Z"/><path d="M1448.46,261.89a12,12,0,0,1-15.78,0,10.47,10.47,0,0,1,0-15,12,12,0,0,1,15.78,0,10.47,10.47,0,0,1,0,15Zm-11.94-11.31a5.49,5.49,0,0,0-1.59,3.93,5.09,5.09,0,0,0,1.59,3.72,5.68,5.68,0,0,0,4,1.59,5.44,5.44,0,0,0,5.64-5.4,5.4,5.4,0,0,0-1.62-3.84,6,6,0,0,0-4-1.59A5.76,5.76,0,0,0,1436.52,250.58Z"/><path d="M1459.26,242.54v9.75a5.31,5.31,0,0,1,4-1.74,6.86,6.86,0,0,1,4.74,1.8,7.31,7.31,0,0,1,2.19,5.31A7.4,7.4,0,0,1,1468,263a6.42,6.42,0,0,1-4.71,1.86,4.92,4.92,0,0,1-4-1.92v1.47h-4.8V242.54Zm5.07,17.34a3,3,0,0,0,.93-2.1,3.29,3.29,0,0,0-.93-2.28,3.08,3.08,0,0,0-4.32,0,3.51,3.51,0,0,0-.9,2.16,3.22,3.22,0,0,0,1,2.28,3.28,3.28,0,0,0,2.07.81A3,3,0,0,0,1464.33,259.88Z"/><path d="M1478.25,254.93v9.48h-4.8v-9.48h-1.53V251h1.53v-4.41h4.8V251H1481v3.93Zm-4.62,11,4.5.48-3.06,5.52-3-.36Z"/><path d="M1485.18,242.72a2.7,2.7,0,1,1-2.7,2.7A2.69,2.69,0,0,1,1485.18,242.72Zm2.4,8.28v13.41h-4.8V251Z"/><path d="M1490.85,251h4.8v1.68a5.06,5.06,0,0,1,4.26-2,5.42,5.42,0,0,1,4,1.44,4.62,4.62,0,0,1,1.26,3.75v8.52h-4.8v-6.78a3.85,3.85,0,0,0-.6-2.61,2,2,0,0,0-1.53-.57,2.63,2.63,0,0,0-1.77.63,3.08,3.08,0,0,0-.78,2.13v7.2h-4.8Z"/><path d="M1522.62,258.59h-10a3.39,3.39,0,0,0,.84,2.25,2.7,2.7,0,0,0,2,.66,3.79,3.79,0,0,0,1.56-.36,2.23,2.23,0,0,0,.84-.9h4.59a6,6,0,0,1-1.62,2.76c-1,1-2.55,1.86-5.46,1.86a7.61,7.61,0,0,1-5.55-2,7,7,0,0,1-2-5.07,7.16,7.16,0,0,1,2-5.19,7.55,7.55,0,0,1,5.49-1.95,7.35,7.35,0,0,1,5.16,1.83,7.51,7.51,0,0,1,2.13,5.64Zm-4.41-2.76a3.22,3.22,0,0,0-.78-1.44,2.8,2.8,0,0,0-2-.72,2.58,2.58,0,0,0-2,.72,2.74,2.74,0,0,0-.72,1.44Z"/><path d="M1525.38,251h4.8v2.19a4.33,4.33,0,0,1,1.89-1.86,5.24,5.24,0,0,1,2.49-.54l1,.06v4.53a4.23,4.23,0,0,0-2.07-.48,3.14,3.14,0,0,0-2.19.72,4,4,0,0,0-1.08,3.06v5.73h-4.8Z"/><path d="M1551.87,258.59h-10a3.39,3.39,0,0,0,.84,2.25,2.7,2.7,0,0,0,2,.66,3.79,3.79,0,0,0,1.56-.36,2.23,2.23,0,0,0,.84-.9h4.59a6,6,0,0,1-1.62,2.76c-1,1-2.55,1.86-5.46,1.86a7.61,7.61,0,0,1-5.55-2,7,7,0,0,1-2-5.07,7.16,7.16,0,0,1,2-5.19,7.55,7.55,0,0,1,5.49-1.95,7.35,7.35,0,0,1,5.16,1.83,7.51,7.51,0,0,1,2.13,5.64Zm-4.41-2.76a3.22,3.22,0,0,0-.78-1.44,2.8,2.8,0,0,0-2-.72,2.58,2.58,0,0,0-2,.72,2.74,2.74,0,0,0-.72,1.44Z"/><path d="M1562.49,260a6.87,6.87,0,0,0,1.92,1,6.25,6.25,0,0,0,1.86.33,2,2,0,0,0,1.23-.36.77.77,0,0,0,.24-.63.71.71,0,0,0-.24-.6,3,3,0,0,0-1.26-.48l-1.26-.3a4.31,4.31,0,0,1-2.34-1.17,3.24,3.24,0,0,1-.87-2.31,4.79,4.79,0,0,1,1.26-3.27,6.77,6.77,0,0,1,4.8-1.62,11.07,11.07,0,0,1,4.29.87l-1.62,3.06a6.64,6.64,0,0,0-2.52-.66,2,2,0,0,0-1.11.27.72.72,0,0,0-.42.66.78.78,0,0,0,.57.75c.45.18.84.18,1.59.39l.87.24a5.67,5.67,0,0,1,2,1.05,3.79,3.79,0,0,1,1,2.67,4.48,4.48,0,0,1-1.35,3.33,7,7,0,0,1-5,1.68,9.89,9.89,0,0,1-5.4-1.56Z"/><path d="M1574.94,242.54h4.8v10.14a5.85,5.85,0,0,1,1.5-1.32,6.14,6.14,0,0,1,6.72.78,4.68,4.68,0,0,1,1.26,3.75v8.52h-4.8v-6.78a4,4,0,0,0-.6-2.61,1.9,1.9,0,0,0-1.53-.57,2.57,2.57,0,0,0-1.74.57,2.92,2.92,0,0,0-.81,2.19v7.2h-4.8Z"/><path d="M1606.11,258.59h-10a3.39,3.39,0,0,0,.84,2.25,2.7,2.7,0,0,0,2,.66,3.79,3.79,0,0,0,1.56-.36,2.23,2.23,0,0,0,.84-.9h4.59a6,6,0,0,1-1.62,2.76c-1,1-2.55,1.86-5.46,1.86a7.61,7.61,0,0,1-5.55-2,7,7,0,0,1-2-5.07,7.16,7.16,0,0,1,2-5.19,7.55,7.55,0,0,1,5.49-1.95,7.35,7.35,0,0,1,5.16,1.83,7.51,7.51,0,0,1,2.13,5.64Zm-4.41-2.76a3.22,3.22,0,0,0-.78-1.44,2.8,2.8,0,0,0-2-.72,2.58,2.58,0,0,0-2,.72,2.74,2.74,0,0,0-.72,1.44Z"/><path d="M1613.67,242.54v21.87h-4.8V242.54Z"/><path d="M1621.74,242.54v21.87h-4.8V242.54Z"/><path d="M1761.74,261.05h-7.26l-1.35,3.36h-5.48l7.67-20H1761l7.53,20H1763Zm-1.38-4-2.25-6.48-2.19,6.48Z"/><path d="M1775.18,271.28h-4.8V251h4.8v1.47a5,5,0,0,1,4.11-1.92,6.67,6.67,0,0,1,4.77,1.95,7.61,7.61,0,0,1-.12,10.5,6.44,6.44,0,0,1-4.59,1.86,5.71,5.71,0,0,1-4.17-1.74Zm.78-15.75a3.27,3.27,0,0,0-.93,2.22,3.24,3.24,0,0,0,.93,2.13,3.07,3.07,0,0,0,2.16.9,2.9,2.9,0,0,0,2.13-.9,3.17,3.17,0,0,0,.93-2.13,3.27,3.27,0,0,0-.93-2.22,2.9,2.9,0,0,0-2.13-.9A3.07,3.07,0,0,0,1776,255.53Z"/><path d="M1793.66,242.54v21.87h-4.8V242.54Z"/><path d="M1799.33,242.72a2.7,2.7,0,1,1-2.7,2.7A2.69,2.69,0,0,1,1799.33,242.72Zm2.4,8.28v13.41h-4.8V251Z"/><path d="M1815.14,264.11a7.12,7.12,0,0,1-3.33.75,7.41,7.41,0,0,1-5.28-2,7,7,0,0,1-2.07-5,7.3,7.3,0,0,1,2.16-5.19,7.73,7.73,0,0,1,5.4-2,6.88,6.88,0,0,1,3.12.75v4a4.28,4.28,0,0,0-2.49-.87,3.15,3.15,0,0,0-2.34.93,3.26,3.26,0,0,0-.93,2.31,3.44,3.44,0,0,0,.84,2.25,3.26,3.26,0,0,0,2.46,1,3.63,3.63,0,0,0,2.46-.9Z"/><path d="M1828.25,251h4.8v13.41h-4.8v-1.47a5,5,0,0,1-4.17,1.92,6.42,6.42,0,0,1-4.83-2.13,6.76,6.76,0,0,1-1.92-4.92,7.42,7.42,0,0,1,2.07-5.37,6.9,6.9,0,0,1,4.83-1.89,5.31,5.31,0,0,1,4,1.74Zm-5,4.5a3.14,3.14,0,0,0-1,2.19,3.09,3.09,0,0,0,.93,2.19,3.37,3.37,0,0,0,2.16.9,3.08,3.08,0,0,0,2.16-.93,2.91,2.91,0,0,0,.9-2.16,3,3,0,0,0-.93-2.19,3,3,0,0,0-4.26,0Z"/><path d="M1841.66,254.93v9.48h-4.8v-9.48h-1.53V251h1.53v-4.41h4.8V251h2.73v3.93Zm-4.62,11,4.5.48-3.06,5.52-3-.36Z"/><path d="M1848.59,242.72a2.7,2.7,0,1,1-2.7,2.7A2.69,2.69,0,0,1,1848.59,242.72ZM1851,251v13.41h-4.8V251Z"/><path d="M1868.48,258.59h-10a3.39,3.39,0,0,0,.84,2.25,2.7,2.7,0,0,0,2,.66,3.79,3.79,0,0,0,1.56-.36,2.23,2.23,0,0,0,.84-.9h4.59a6,6,0,0,1-1.62,2.76c-1,1-2.55,1.86-5.46,1.86a7.61,7.61,0,0,1-5.55-2,7,7,0,0,1-2-5.07,7.16,7.16,0,0,1,2-5.19,7.55,7.55,0,0,1,5.49-1.95,7.35,7.35,0,0,1,5.16,1.83,7.51,7.51,0,0,1,2.13,5.64Zm-4.41-2.76a3.22,3.22,0,0,0-.78-1.44,2.8,2.8,0,0,0-2-.72,2.58,2.58,0,0,0-2,.72,2.74,2.74,0,0,0-.72,1.44Z"/><path d="M1883,242.54v21.87h-4.8V242.54Z"/><path d="M1899.8,262.64a9.18,9.18,0,0,1-12,0,6.92,6.92,0,0,1,0-9.87,8.37,8.37,0,0,1,6-2.22,8.47,8.47,0,0,1,6,2.22,6.92,6.92,0,0,1,0,9.87Zm-8.13-7.14a3.06,3.06,0,0,0,2.16,5.22,3.05,3.05,0,0,0,2.13-.9,3,3,0,0,0,.93-2.13,3.26,3.26,0,0,0-.93-2.19,3.08,3.08,0,0,0-4.29,0Z"/><path d="M1914.77,264.11a7.12,7.12,0,0,1-3.33.75,7.41,7.41,0,0,1-5.28-2,7,7,0,0,1-2.07-5,7.3,7.3,0,0,1,2.16-5.19,7.73,7.73,0,0,1,5.4-2,6.88,6.88,0,0,1,3.12.75v4a4.28,4.28,0,0,0-2.49-.87,3.15,3.15,0,0,0-2.34.93,3.26,3.26,0,0,0-.93,2.31,3.44,3.44,0,0,0,.84,2.25,3.26,3.26,0,0,0,2.46,1,3.63,3.63,0,0,0,2.46-.9Z"/><path d="M1927.88,251h4.8v13.41h-4.8v-1.47a5,5,0,0,1-4.17,1.92,6.42,6.42,0,0,1-4.83-2.13,6.76,6.76,0,0,1-1.92-4.92,7.42,7.42,0,0,1,2.07-5.37,6.9,6.9,0,0,1,4.83-1.89,5.31,5.31,0,0,1,4,1.74Zm-5,4.5a3.14,3.14,0,0,0-1,2.19,3.09,3.09,0,0,0,.93,2.19,3.37,3.37,0,0,0,2.16.9,3.08,3.08,0,0,0,2.16-.93,2.91,2.91,0,0,0,.9-2.16,3,3,0,0,0-.93-2.19,3,3,0,0,0-4.26,0Z"/><path d="M1940.78,242.54v21.87H1936V242.54Z"/><path d="M1954.43,251h4.8v13.41h-4.8v-1.47a5,5,0,0,1-4.17,1.92,6.42,6.42,0,0,1-4.83-2.13,6.76,6.76,0,0,1-1.92-4.92,7.42,7.42,0,0,1,2.07-5.37,6.9,6.9,0,0,1,4.83-1.89,5.31,5.31,0,0,1,4,1.74Zm2.64-6.9a4.73,4.73,0,0,1-1.32,3.27,6.31,6.31,0,0,1-7.8,0,4.73,4.73,0,0,1-1.32-3.27h3.09a2.08,2.08,0,0,0,.6,1.23,2.44,2.44,0,0,0,3.06,0,2.08,2.08,0,0,0,.6-1.23Zm-7.68,11.4a3.14,3.14,0,0,0-1,2.19,3.09,3.09,0,0,0,.93,2.19,3.37,3.37,0,0,0,2.16.9,3.08,3.08,0,0,0,2.16-.93,2.91,2.91,0,0,0,.9-2.16,3,3,0,0,0-.93-2.19,3,3,0,0,0-4.26,0Z"/><path d="M1974.32,271.28h-4.8V251h4.8v1.47a5,5,0,0,1,4.11-1.92,6.67,6.67,0,0,1,4.77,1.95,7.61,7.61,0,0,1-.12,10.5,6.44,6.44,0,0,1-4.59,1.86,5.71,5.71,0,0,1-4.17-1.74Zm.78-15.75a3.27,3.27,0,0,0-.93,2.22,3.24,3.24,0,0,0,.93,2.13,3.07,3.07,0,0,0,2.16.9,2.9,2.9,0,0,0,2.13-.9,3.17,3.17,0,0,0,.93-2.13,3.27,3.27,0,0,0-.93-2.22,2.9,2.9,0,0,0-2.13-.9A3.07,3.07,0,0,0,1975.1,255.53Z"/><path d="M1988,251h4.8v2.19a4.33,4.33,0,0,1,1.89-1.86,5.24,5.24,0,0,1,2.49-.54l1,.06v4.53a4.23,4.23,0,0,0-2.07-.48,3.14,3.14,0,0,0-2.19.72,4,4,0,0,0-1.08,3.06v5.73H1988Z"/><path d="M2002.67,242.72a2.7,2.7,0,1,1-2.7,2.7A2.69,2.69,0,0,1,2002.67,242.72Zm2.4,8.28v13.41h-4.8V251Z"/><path d="M2012.06,251l3.21,6.87,3.27-6.87h5.34l-7,13.41h-3.27L2006.69,251Z"/><path d="M2027.93,242.72a2.7,2.7,0,1,1-2.7,2.7A2.69,2.69,0,0,1,2027.93,242.72Zm2.4,8.28v13.41h-4.8V251Z"/><path d="M2038.4,242.54v21.87h-4.8V242.54Z"/><path d="M2055.89,258.59h-10a3.39,3.39,0,0,0,.84,2.25,2.7,2.7,0,0,0,2,.66,3.79,3.79,0,0,0,1.56-.36,2.23,2.23,0,0,0,.84-.9h4.59a6,6,0,0,1-1.62,2.76c-1,1-2.55,1.86-5.46,1.86a7.61,7.61,0,0,1-5.55-2,7,7,0,0,1-2-5.07,7.16,7.16,0,0,1,2-5.19,7.55,7.55,0,0,1,5.49-1.95,7.35,7.35,0,0,1,5.16,1.83,7.51,7.51,0,0,1,2.13,5.64Zm-4.41-2.76a3.22,3.22,0,0,0-.78-1.44,2.8,2.8,0,0,0-2-.72,2.58,2.58,0,0,0-1.95.72,2.74,2.74,0,0,0-.72,1.44Z"/><path d="M2073.74,251v12.57c0,2-.18,3.84-1.83,5.55a8,8,0,0,1-5.91,2.16,8.22,8.22,0,0,1-6.27-2.37,4.88,4.88,0,0,1-1.47-2.79h5.34a2.06,2.06,0,0,0,2.25,1.38,2.92,2.92,0,0,0,2.13-.75,3.23,3.23,0,0,0,1-2.49v-1.35a5.1,5.1,0,0,1-4,1.77,6.68,6.68,0,0,1-5-1.89,7.08,7.08,0,0,1-1.86-4.89,7.73,7.73,0,0,1,2-5.25,6.74,6.74,0,0,1,4.86-2,5.24,5.24,0,0,1,4,1.77V251Zm-9.78,4.5a3,3,0,0,0,0,4.35,3,3,0,0,0,2.16.87,3.07,3.07,0,0,0,3.06-3.06,3.44,3.44,0,0,0-1-2.19,3,3,0,0,0-2.13-.87A2.86,2.86,0,0,0,2064,255.5Z"/><path d="M2079.44,242.72a2.7,2.7,0,1,1-2.7,2.7A2.69,2.69,0,0,1,2079.44,242.72Zm2.4,8.28v13.41H2077V251Z"/><path d="M2095.49,251h4.8v13.41h-4.8v-1.47a5,5,0,0,1-4.17,1.92,6.42,6.42,0,0,1-4.83-2.13,6.76,6.76,0,0,1-1.92-4.92,7.42,7.42,0,0,1,2.07-5.37,6.9,6.9,0,0,1,4.83-1.89,5.31,5.31,0,0,1,4,1.74Zm-5,4.5a3.14,3.14,0,0,0-1,2.19,3.09,3.09,0,0,0,.93,2.19,3.37,3.37,0,0,0,2.16.9,3.08,3.08,0,0,0,2.16-.93,2.91,2.91,0,0,0,.9-2.16,3,3,0,0,0-.93-2.19,3,3,0,0,0-4.26,0Z"/><path d="M2108.9,254.93v9.48h-4.8v-9.48h-1.53V251h1.53v-4.41h4.8V251h2.73v3.93Z"/><path d="M2123.81,251h4.8v13.41h-4.8v-1.47a5,5,0,0,1-4.17,1.92,6.42,6.42,0,0,1-4.83-2.13,6.76,6.76,0,0,1-1.92-4.92,7.42,7.42,0,0,1,2.07-5.37,6.9,6.9,0,0,1,4.83-1.89,5.31,5.31,0,0,1,4,1.74Zm2.64-6.9a4.73,4.73,0,0,1-1.32,3.27,6.31,6.31,0,0,1-7.8,0,4.73,4.73,0,0,1-1.32-3.27h3.09a2.08,2.08,0,0,0,.6,1.23,2.44,2.44,0,0,0,3.06,0,2.08,2.08,0,0,0,.6-1.23Zm-7.68,11.4a3.14,3.14,0,0,0-1,2.19,3.09,3.09,0,0,0,.93,2.19,3.37,3.37,0,0,0,2.16.9,3.08,3.08,0,0,0,2.16-.93,2.91,2.91,0,0,0,.9-2.16,3,3,0,0,0-.93-2.19,3,3,0,0,0-4.26,0Z"/><path d="M1828.82,300.11a7.12,7.12,0,0,1-3.33.75,7.41,7.41,0,0,1-5.28-2,7,7,0,0,1-2.07-5,7.3,7.3,0,0,1,2.16-5.19,7.73,7.73,0,0,1,5.4-2,6.88,6.88,0,0,1,3.12.75v4a4.28,4.28,0,0,0-2.49-.87,3.15,3.15,0,0,0-2.34.93,3.26,3.26,0,0,0-.93,2.31,3.44,3.44,0,0,0,.84,2.25,3.26,3.26,0,0,0,2.46,1,3.63,3.63,0,0,0,2.46-.9Z"/><path d="M1836.35,287v7.5a2.57,2.57,0,0,0,.72,1.95,2.48,2.48,0,0,0,1.68.51,2.24,2.24,0,0,0,1.71-.57,2.49,2.49,0,0,0,.69-1.89V287h4.8v8.37a4.6,4.6,0,0,1-1.29,3.6c-1.65,1.71-4,1.89-5.79,1.89-2,0-4.47-.21-6.06-1.92a4.82,4.82,0,0,1-1.26-3.57V287Z"/><path d="M1860,287l3.21,6.87,3.27-6.87h5.34l-7,13.41h-3.27L1854.59,287Z"/><path d="M1878.23,287v7.5a2.57,2.57,0,0,0,.72,1.95,2.48,2.48,0,0,0,1.68.51,2.24,2.24,0,0,0,1.71-.57,2.49,2.49,0,0,0,.69-1.89V287h4.8v8.37a4.6,4.6,0,0,1-1.29,3.6c-1.65,1.71-4,1.89-5.79,1.89-2,0-4.47-.21-6.06-1.92a4.82,4.82,0,0,1-1.26-3.57V287Z"/><path d="M1895.93,278.54v21.87h-4.8V278.54Z"/><path d="M1899.2,287h4.8v1.68a5.06,5.06,0,0,1,4.26-2,5.42,5.42,0,0,1,4,1.44,4.62,4.62,0,0,1,1.26,3.75v8.52h-4.8v-6.78a3.85,3.85,0,0,0-.6-2.61,2,2,0,0,0-1.53-.57,2.63,2.63,0,0,0-1.77.63,3.08,3.08,0,0,0-.78,2.13v7.2h-4.8Z"/><path d="M1931,294.59h-10a3.39,3.39,0,0,0,.84,2.25,2.7,2.7,0,0,0,2,.66,3.79,3.79,0,0,0,1.56-.36,2.23,2.23,0,0,0,.84-.9h4.59a6,6,0,0,1-1.62,2.76c-1,1-2.55,1.86-5.46,1.86a7.61,7.61,0,0,1-5.55-2,7,7,0,0,1-2-5.07,7.16,7.16,0,0,1,2-5.19,7.55,7.55,0,0,1,5.49-1.95,7.35,7.35,0,0,1,5.16,1.83,7.51,7.51,0,0,1,2.13,5.64Zm-4.41-2.76a3.22,3.22,0,0,0-.78-1.44,2.8,2.8,0,0,0-2-.72,2.58,2.58,0,0,0-2,.72,2.74,2.74,0,0,0-.72,1.44Z"/><path d="M1933.73,287h4.8v2.19a4.33,4.33,0,0,1,1.89-1.86,5.24,5.24,0,0,1,2.49-.54l1,.06v4.53a4.23,4.23,0,0,0-2.07-.48,3.14,3.14,0,0,0-2.19.72,4,4,0,0,0-1.08,3.06v5.73h-4.8Z"/><path d="M1956.38,287h4.8v13.41h-4.8v-1.47a5,5,0,0,1-4.17,1.92,6.42,6.42,0,0,1-4.83-2.13,6.76,6.76,0,0,1-1.92-4.92,7.42,7.42,0,0,1,2.07-5.37,6.9,6.9,0,0,1,4.83-1.89,5.31,5.31,0,0,1,4,1.74Zm-5,4.5a3.14,3.14,0,0,0-1,2.19,3.09,3.09,0,0,0,.93,2.19,3.37,3.37,0,0,0,2.16.9,3.08,3.08,0,0,0,2.16-.93,2.91,2.91,0,0,0,.9-2.16,3,3,0,0,0-.93-2.19,3,3,0,0,0-4.26,0Z"/><path d="M1969.28,278.54v9.75a5.31,5.31,0,0,1,4-1.74,6.86,6.86,0,0,1,4.74,1.8,7.31,7.31,0,0,1,2.19,5.31A7.4,7.4,0,0,1,1978,299a6.42,6.42,0,0,1-4.71,1.86,4.92,4.92,0,0,1-4-1.92v1.47h-4.8V278.54Zm5.07,17.34a3,3,0,0,0,.93-2.1,3.29,3.29,0,0,0-.93-2.28,3.08,3.08,0,0,0-4.32,0,3.51,3.51,0,0,0-.9,2.16,3.22,3.22,0,0,0,1,2.28,3.28,3.28,0,0,0,2.07.81A3,3,0,0,0,1974.35,295.88Z"/><path d="M1985.36,278.72a2.7,2.7,0,1,1-2.7,2.7A2.69,2.69,0,0,1,1985.36,278.72Zm2.4,8.28v13.41H1983V287Z"/><path d="M1995.83,278.54v21.87H1991V278.54Z"/><path d="M2001.5,278.72a2.7,2.7,0,1,1-2.7,2.7A2.69,2.69,0,0,1,2001.5,278.72Zm2.4,8.28v13.41h-4.8V287Z"/><path d="M2012.48,290.93v9.48h-4.8v-9.48h-1.53V287h1.53v-4.41h4.8V287h2.73v3.93Z"/><path d="M2027.39,287h4.8v13.41h-4.8v-1.47a5,5,0,0,1-4.17,1.92,6.42,6.42,0,0,1-4.83-2.13,6.76,6.76,0,0,1-1.92-4.92,7.42,7.42,0,0,1,2.07-5.37,6.9,6.9,0,0,1,4.83-1.89,5.31,5.31,0,0,1,4,1.74Zm-5,4.5a3.14,3.14,0,0,0-1,2.19,3.09,3.09,0,0,0,.93,2.19,3.37,3.37,0,0,0,2.16.9,3.08,3.08,0,0,0,2.16-.93,2.91,2.91,0,0,0,.9-2.16,3,3,0,0,0-.93-2.19,3,3,0,0,0-4.26,0Z"/><path d="M2040.8,290.93v9.48H2036v-9.48h-1.53V287H2036v-4.41h4.8V287h2.73v3.93Z"/><path d="M2059.55,294.59h-10a3.39,3.39,0,0,0,.84,2.25,2.7,2.7,0,0,0,2,.66,3.79,3.79,0,0,0,1.56-.36,2.23,2.23,0,0,0,.84-.9h4.59a6,6,0,0,1-1.62,2.76c-1,1-2.55,1.86-5.46,1.86a7.61,7.61,0,0,1-5.55-2,7,7,0,0,1-2-5.07,7.16,7.16,0,0,1,2-5.19,7.55,7.55,0,0,1,5.49-1.95,7.35,7.35,0,0,1,5.16,1.83,7.51,7.51,0,0,1,2.13,5.64Zm-4.41-2.76a3.22,3.22,0,0,0-.78-1.44,2.8,2.8,0,0,0-2-.72,2.58,2.58,0,0,0-2,.72,2.74,2.74,0,0,0-.72,1.44Z"/><path d="M2292.47,248.81h-6.18v3.33h5.85v4.41h-5.85V260h6.18v4.41H2281.1v-20h11.37Z"/><path d="M2300.36,257.12l-5.43-6.12h6.24l2.31,2.76,2.37-2.76h6.21l-5.55,6.12,6.72,7.29h-6.36l-3.42-4-3.42,4h-6.36Z"/><path d="M2319.68,271.28h-4.8V251h4.8v1.47a5,5,0,0,1,4.11-1.92,6.67,6.67,0,0,1,4.77,1.95,7.61,7.61,0,0,1-.12,10.5,6.44,6.44,0,0,1-4.59,1.86,5.71,5.71,0,0,1-4.17-1.74Zm.78-15.75a3.27,3.27,0,0,0-.93,2.22,3.24,3.24,0,0,0,.93,2.13,3.07,3.07,0,0,0,2.16.9,2.9,2.9,0,0,0,2.13-.9,3.17,3.17,0,0,0,.93-2.13,3.27,3.27,0,0,0-.93-2.22,2.9,2.9,0,0,0-2.13-.9A3.07,3.07,0,0,0,2320.46,255.53Z"/><path d="M2338.16,242.54v21.87h-4.8V242.54Z"/><path d="M2354.93,262.64a9.18,9.18,0,0,1-12,0,6.92,6.92,0,0,1,0-9.87,8.37,8.37,0,0,1,6-2.22,8.47,8.47,0,0,1,6,2.22,6.92,6.92,0,0,1,0,9.87Zm-8.13-7.14a3.06,3.06,0,0,0,2.16,5.22,3.05,3.05,0,0,0,2.13-.9,3,3,0,0,0,.93-2.13,3.26,3.26,0,0,0-.93-2.19,3.08,3.08,0,0,0-4.29,0Z"/><path d="M2370.14,251h4.8v13.41h-4.8v-1.47a5,5,0,0,1-4.17,1.92,6.42,6.42,0,0,1-4.83-2.13,6.76,6.76,0,0,1-1.92-4.92,7.42,7.42,0,0,1,2.07-5.37,6.9,6.9,0,0,1,4.83-1.89,5.31,5.31,0,0,1,4,1.74Zm-5,4.5a3.14,3.14,0,0,0-1,2.19,3.09,3.09,0,0,0,.93,2.19,3.37,3.37,0,0,0,2.16.9,3.08,3.08,0,0,0,2.16-.93,2.91,2.91,0,0,0,.9-2.16,3,3,0,0,0-.93-2.19,3,3,0,0,0-4.26,0Z"/><path d="M2383.55,254.93v9.48h-4.8v-9.48h-1.53V251h1.53v-4.41h4.8V251h2.73v3.93Z"/><path d="M2398.46,251h4.8v13.41h-4.8v-1.47a5,5,0,0,1-4.17,1.92,6.42,6.42,0,0,1-4.83-2.13,6.76,6.76,0,0,1-1.92-4.92,7.42,7.42,0,0,1,2.07-5.37,6.9,6.9,0,0,1,4.83-1.89,5.31,5.31,0,0,1,4,1.74Zm-5,4.5a3.14,3.14,0,0,0-1,2.19,3.09,3.09,0,0,0,.93,2.19,3.37,3.37,0,0,0,2.16.9,3.08,3.08,0,0,0,2.16-.93,2.91,2.91,0,0,0,.9-2.16,3,3,0,0,0-.93-2.19,3,3,0,0,0-4.26,0Z"/><path d="M2406.56,251h4.8v2.19a4.33,4.33,0,0,1,1.89-1.86,5.24,5.24,0,0,1,2.49-.54l1,.06v4.53a4.23,4.23,0,0,0-2.07-.48,3.14,3.14,0,0,0-2.19.72,4,4,0,0,0-1.08,3.06v5.73h-4.8Z"/><path d="M2433.05,258.59h-10a3.39,3.39,0,0,0,.84,2.25,2.7,2.7,0,0,0,2,.66,3.79,3.79,0,0,0,1.56-.36,2.23,2.23,0,0,0,.84-.9h4.59a6,6,0,0,1-1.62,2.76c-1,1-2.55,1.86-5.46,1.86a7.61,7.61,0,0,1-5.55-2,7,7,0,0,1-2-5.07,7.16,7.16,0,0,1,2-5.19,7.55,7.55,0,0,1,5.49-1.95,7.35,7.35,0,0,1,5.16,1.83,7.51,7.51,0,0,1,2.13,5.64Zm-4.41-2.76a3.22,3.22,0,0,0-.78-1.44,2.8,2.8,0,0,0-2-.72,2.58,2.58,0,0,0-2,.72,2.74,2.74,0,0,0-.72,1.44Z"/><path d="M2643.63,261.89a12,12,0,0,1-15.77,0,10.47,10.47,0,0,1,0-15,12,12,0,0,1,15.77,0,10.47,10.47,0,0,1,0,15Zm-11.93-11.31a5.49,5.49,0,0,0-1.59,3.93,5.09,5.09,0,0,0,1.59,3.72,5.66,5.66,0,0,0,4.05,1.59,5.43,5.43,0,0,0,5.63-5.4,5.4,5.4,0,0,0-1.62-3.84,6,6,0,0,0-4-1.59A5.76,5.76,0,0,0,2631.7,250.58Z"/><path d="M2654.44,242.54v9.75a5.3,5.3,0,0,1,4-1.74,6.88,6.88,0,0,1,4.75,1.8,7.62,7.62,0,0,1,0,10.65,6.38,6.38,0,0,1-4.7,1.86,4.92,4.92,0,0,1-4-1.92v1.47h-4.8V242.54Zm5.06,17.34a3,3,0,0,0,.94-2.1,3.3,3.3,0,0,0-.94-2.28,3.07,3.07,0,0,0-4.31,0,3.51,3.51,0,0,0-.9,2.16,3.22,3.22,0,0,0,1,2.28,3.28,3.28,0,0,0,2.07.81A3,3,0,0,0,2659.5,259.88Z"/><path d="M2673.42,254.93v9.48h-4.79v-9.48h-1.53V251h1.53v-4.41h4.79V251h2.73v3.93Zm-4.61,11,4.5.48-3.06,5.52-3-.36Z"/><path d="M2680.35,242.72a2.7,2.7,0,1,1-2.7,2.7A2.69,2.69,0,0,1,2680.35,242.72Zm2.4,8.28v13.41H2678V251Z"/><path d="M2686,251h4.8v1.68a5.06,5.06,0,0,1,4.26-2,5.42,5.42,0,0,1,4,1.44,4.62,4.62,0,0,1,1.26,3.75v8.52h-4.8v-6.78a3.85,3.85,0,0,0-.6-2.61,2,2,0,0,0-1.53-.57,2.63,2.63,0,0,0-1.77.63,3.08,3.08,0,0,0-.78,2.13v7.2H2686Z"/><path d="M2717.79,258.59h-10a3.39,3.39,0,0,0,.84,2.25,2.7,2.7,0,0,0,2,.66,3.79,3.79,0,0,0,1.56-.36,2.23,2.23,0,0,0,.84-.9h4.59A6,6,0,0,1,2716,263c-1,1-2.55,1.86-5.46,1.86a7.61,7.61,0,0,1-5.55-2,7,7,0,0,1-2-5.07,7.16,7.16,0,0,1,2-5.19,7.55,7.55,0,0,1,5.49-1.95,7.35,7.35,0,0,1,5.16,1.83,7.51,7.51,0,0,1,2.13,5.64Zm-4.41-2.76a3.22,3.22,0,0,0-.78-1.44,2.8,2.8,0,0,0-2-.72,2.58,2.58,0,0,0-1.95.72,2.74,2.74,0,0,0-.72,1.44Z"/><path d="M2720.55,251h4.8v2.19a4.33,4.33,0,0,1,1.89-1.86,5.24,5.24,0,0,1,2.49-.54l1,.06v4.53a4.23,4.23,0,0,0-2.07-.48,3.14,3.14,0,0,0-2.19.72,4,4,0,0,0-1.08,3.06v5.73h-4.8Z"/><path d="M2747,258.59h-10a3.39,3.39,0,0,0,.84,2.25,2.7,2.7,0,0,0,2,.66,3.79,3.79,0,0,0,1.56-.36,2.23,2.23,0,0,0,.84-.9h4.59a6,6,0,0,1-1.62,2.76c-1,1-2.55,1.86-5.46,1.86a7.61,7.61,0,0,1-5.55-2,7,7,0,0,1-2-5.07,7.16,7.16,0,0,1,2-5.19,7.55,7.55,0,0,1,5.49-1.95,7.35,7.35,0,0,1,5.16,1.83,7.51,7.51,0,0,1,2.13,5.64Zm-4.41-2.76a3.22,3.22,0,0,0-.78-1.44,2.8,2.8,0,0,0-2-.72,2.58,2.58,0,0,0-1.95.72,2.74,2.74,0,0,0-.72,1.44Z"/><path d="M2767.17,251h4.8v13.41h-4.8v-1.47a5,5,0,0,1-4.17,1.92,6.42,6.42,0,0,1-4.83-2.13,6.76,6.76,0,0,1-1.92-4.92,7.42,7.42,0,0,1,2.07-5.37,6.9,6.9,0,0,1,4.83-1.89,5.31,5.31,0,0,1,4,1.74Zm-5,4.5a3.14,3.14,0,0,0-1,2.19,3.09,3.09,0,0,0,.93,2.19,3.37,3.37,0,0,0,2.16.9,3.08,3.08,0,0,0,2.16-.93,2.91,2.91,0,0,0,.9-2.16,3,3,0,0,0-.93-2.19,3,3,0,0,0-4.26,0Z"/><path d="M2785.41,264.11a7.12,7.12,0,0,1-3.33.75,7.41,7.41,0,0,1-5.28-2,7,7,0,0,1-2.07-5,7.3,7.3,0,0,1,2.16-5.19,7.73,7.73,0,0,1,5.4-2,6.88,6.88,0,0,1,3.12.75v4a4.28,4.28,0,0,0-2.49-.87,3.15,3.15,0,0,0-2.34.93,3.26,3.26,0,0,0-.93,2.31,3.44,3.44,0,0,0,.84,2.25,3.26,3.26,0,0,0,2.46,1,3.63,3.63,0,0,0,2.46-.9Z"/><path d="M2798.28,264.11a7.12,7.12,0,0,1-3.33.75,7.41,7.41,0,0,1-5.28-2,7,7,0,0,1-2.07-5,7.3,7.3,0,0,1,2.16-5.19,7.73,7.73,0,0,1,5.4-2,6.88,6.88,0,0,1,3.12.75v4a4.28,4.28,0,0,0-2.49-.87,3.15,3.15,0,0,0-2.34.93,3.26,3.26,0,0,0-.93,2.31,3.44,3.44,0,0,0,.84,2.25,3.26,3.26,0,0,0,2.46,1,3.63,3.63,0,0,0,2.46-.9Z"/><path d="M2815.23,258.59h-10a3.39,3.39,0,0,0,.84,2.25,2.7,2.7,0,0,0,2,.66,3.79,3.79,0,0,0,1.56-.36,2.23,2.23,0,0,0,.84-.9h4.59a6,6,0,0,1-1.62,2.76c-1,1-2.55,1.86-5.46,1.86a7.61,7.61,0,0,1-5.55-2,7,7,0,0,1-2-5.07,7.16,7.16,0,0,1,2-5.19,7.55,7.55,0,0,1,5.49-1.95,7.35,7.35,0,0,1,5.16,1.83,7.51,7.51,0,0,1,2.13,5.64Zm-4.41-2.76a3.22,3.22,0,0,0-.78-1.44,2.8,2.8,0,0,0-2-.72,2.58,2.58,0,0,0-1.95.72,2.74,2.74,0,0,0-.72,1.44Z"/><path d="M2818.86,260a6.87,6.87,0,0,0,1.92,1,6.25,6.25,0,0,0,1.86.33,2,2,0,0,0,1.23-.36.77.77,0,0,0,.24-.63.71.71,0,0,0-.24-.6,3,3,0,0,0-1.26-.48l-1.26-.3a4.31,4.31,0,0,1-2.34-1.17,3.24,3.24,0,0,1-.87-2.31,4.79,4.79,0,0,1,1.26-3.27,6.77,6.77,0,0,1,4.8-1.62,11.07,11.07,0,0,1,4.29.87l-1.62,3.06a6.64,6.64,0,0,0-2.52-.66,2,2,0,0,0-1.11.27.72.72,0,0,0-.42.66.78.78,0,0,0,.57.75c.45.18.84.18,1.59.39l.87.24a5.67,5.67,0,0,1,2,1.05,3.79,3.79,0,0,1,1,2.67,4.48,4.48,0,0,1-1.35,3.33,7,7,0,0,1-4.95,1.68,9.89,9.89,0,0,1-5.4-1.56Z"/><path d="M2693.1,300.41h-4.8v-1.47a4.92,4.92,0,0,1-4.05,1.92,6.42,6.42,0,0,1-4.71-1.86,7.4,7.4,0,0,1-2.16-5.34,7.31,7.31,0,0,1,2.19-5.31,6.86,6.86,0,0,1,4.74-1.8,5.31,5.31,0,0,1,4,1.74v-9.75h4.8Zm-5.67-4.44a3.22,3.22,0,0,0,1-2.28,3.51,3.51,0,0,0-.9-2.16,3.08,3.08,0,0,0-4.32,0,3.29,3.29,0,0,0-.93,2.28,3,3,0,0,0,.93,2.1,3,3,0,0,0,2.13.9A3.28,3.28,0,0,0,2687.43,296Z"/><path d="M2710.62,294.59h-10a3.39,3.39,0,0,0,.84,2.25,2.7,2.7,0,0,0,2,.66,3.79,3.79,0,0,0,1.56-.36,2.23,2.23,0,0,0,.84-.9h4.59a6,6,0,0,1-1.62,2.76c-1,1-2.55,1.86-5.46,1.86a7.61,7.61,0,0,1-5.55-2,7,7,0,0,1-2-5.07,7.16,7.16,0,0,1,2-5.19,7.55,7.55,0,0,1,5.49-1.95,7.35,7.35,0,0,1,5.16,1.83,7.51,7.51,0,0,1,2.13,5.64Zm-4.41-2.76a3.22,3.22,0,0,0-.78-1.44,2.8,2.8,0,0,0-2-.72,2.58,2.58,0,0,0-1.95.72,2.74,2.74,0,0,0-.72,1.44Z"/><path d="M2720.37,287h4.8v2.19a4.33,4.33,0,0,1,1.89-1.86,5.24,5.24,0,0,1,2.49-.54l1,.06v4.53a4.23,4.23,0,0,0-2.07-.48,3.14,3.14,0,0,0-2.19.72,4,4,0,0,0-1.08,3.06v5.73h-4.8Z"/><path d="M2745.54,298.64a9.18,9.18,0,0,1-12,0,6.92,6.92,0,0,1,0-9.87,8.37,8.37,0,0,1,6-2.22,8.47,8.47,0,0,1,6,2.22,6.92,6.92,0,0,1,0,9.87Zm-8.13-7.14a3.06,3.06,0,0,0,2.16,5.22,3.05,3.05,0,0,0,2.13-.9,3,3,0,0,0,.93-2.13,3.26,3.26,0,0,0-.93-2.19,3.08,3.08,0,0,0-4.29,0Z"/><path d="M2763.87,298.64a9.18,9.18,0,0,1-12,0,6.92,6.92,0,0,1,0-9.87,8.37,8.37,0,0,1,6-2.22,8.47,8.47,0,0,1,6,2.22,6.92,6.92,0,0,1,0,9.87Zm-8.13-7.14a3.06,3.06,0,0,0,2.16,5.22,3.05,3.05,0,0,0,2.13-.9,3,3,0,0,0,.93-2.13,3.26,3.26,0,0,0-.93-2.19,3.08,3.08,0,0,0-4.29,0Z"/><path d="M2774,290.93v9.48h-4.8v-9.48h-1.53V287h1.53v-4.41h4.8V287h2.73v3.93Z"/><rect x="1010.2" y="58.08" width="186.04" height="131.24" rx="12" ry="12" style="fill:none;stroke:#3a5c84;stroke-miterlimit:10;stroke-width:8.92649053008124px"/><path d="M1067.64,110.45a7,7,0,0,1-1.89,5.15.46.46,0,0,0-.07.49l2.3,4.82a.39.39,0,0,0,.42.25,7,7,0,0,1,7.5,6.75.45.45,0,0,0,.28.39l5,1.78h.09a.35.35,0,0,0,.41-.14,6.9,6.9,0,0,1,1-1l.06,0a5.76,5.76,0,0,1,.51-.35,3.23,3.23,0,0,1,.41-.22l.2-.11a6.87,6.87,0,0,1,2.68-.7,7.07,7.07,0,0,1,5.16,1.89.35.35,0,0,0,.47.07l4.82-2.3h0a.4.4,0,0,0,.24-.41,7,7,0,0,1,1.79-5.19,6.83,6.83,0,0,1,2.67-1.83l.16-.07.26-.08.44-.13h.07a6.56,6.56,0,0,1,1.34-.18.46.46,0,0,0,.4-.29l1.78-5a.42.42,0,0,0-.13-.47,7,7,0,0,1-.52-10.08.42.42,0,0,0,.07-.47l-1.58-3.32h0l-.71-1.51a.74.74,0,0,0-.12-.13,0,0,0,0,1,0,0l-.07,0a.25.25,0,0,0-.16,0l-.06,0a7,7,0,0,1-7.5-6.75.45.45,0,0,0-.29-.4l-5-1.77a.36.36,0,0,0-.47.12h0a7,7,0,0,1-1.61,1.37l-.12.06a4.31,4.31,0,0,1-.47.26,7,7,0,0,1-7.86-1.18.44.44,0,0,0-.48-.07l-4.82,2.3a.44.44,0,0,0-.24.42,7,7,0,0,1-6.76,7.5.37.37,0,0,0-.39.29l-1.23,3.49h0l-.56,1.58a.46.46,0,0,0,.12.47A7,7,0,0,1,1067.64,110.45Zm10.94-8.53s.05,0,.07-.06.32-.27.48-.4.22-.2.34-.29l.16-.1A10.38,10.38,0,1,1,1090,118.93c-.28.12-.56.25-.85.35h0a10.39,10.39,0,0,1-10.59-17.37Z" style="fill:#91c54f"/><path d="M1091.74,148.19a9,9,0,0,1-2.42,6.62.56.56,0,0,0-.09.62l3,6.19a.48.48,0,0,0,.54.32,9,9,0,0,1,9.63,8.67.58.58,0,0,0,.36.51l6.47,2.28a.26.26,0,0,0,.12,0,.46.46,0,0,0,.52-.18,8.13,8.13,0,0,1,1.35-1.27l.06,0c.22-.17.44-.32.66-.46a5.36,5.36,0,0,1,.53-.28,2,2,0,0,1,.25-.14,8.73,8.73,0,0,1,3.45-.89,9,9,0,0,1,6.62,2.42.47.47,0,0,0,.61.09l6.2-3h0a.53.53,0,0,0,.31-.53,8.94,8.94,0,0,1,5.73-9l.2-.08.34-.11.56-.16.09,0a9,9,0,0,1,1.73-.23.55.55,0,0,0,.5-.38l2.29-6.46a.54.54,0,0,0-.16-.6,9,9,0,0,1-.68-13,.55.55,0,0,0,.1-.61l-2-4.26,0,0-.92-1.94a.61.61,0,0,0-.16-.16l0,0-.09-.06a.54.54,0,0,0-.21-.05h-.07a9,9,0,0,1-9.63-8.68.56.56,0,0,0-.37-.51l-6.47-2.28a.46.46,0,0,0-.6.15h0a8.86,8.86,0,0,1-2.06,1.76l-.16.08-.6.34a9,9,0,0,1-10.1-1.52.55.55,0,0,0-.61-.09l-6.2,3a.58.58,0,0,0-.31.54,9,9,0,0,1-8.68,9.63.5.5,0,0,0-.5.38l-1.58,4.47h0l-.72,2a.59.59,0,0,0,.17.61A9,9,0,0,1,1091.74,148.19Zm14.07-10.95a.6.6,0,0,1,.08-.08c.2-.19.41-.35.62-.52l.44-.37.2-.13a13.34,13.34,0,1,1,13.37,22.94c-.36.16-.72.32-1.09.45h0a13.34,13.34,0,0,1-13.59-22.3Z" style="fill:#91c54f"/><path d="M1101.41,88.7a4.75,4.75,0,0,1-1.28,3.51.31.31,0,0,0-.05.33l1.57,3.29a.26.26,0,0,0,.29.17,4.77,4.77,0,0,1,5.11,4.6.3.3,0,0,0,.19.27l3.44,1.21s0,0,.06,0a.24.24,0,0,0,.28-.09,4.09,4.09,0,0,1,.71-.67l0,0c.11-.09.23-.16.34-.24l.28-.15.14-.07a4.64,4.64,0,0,1,1.83-.48,4.81,4.81,0,0,1,3.52,1.29.25.25,0,0,0,.32,0l3.29-1.57h0a.3.3,0,0,0,.16-.29,4.79,4.79,0,0,1,1.22-3.54,4.73,4.73,0,0,1,1.82-1.24l.11-.05.18,0,.3-.09h0a4.73,4.73,0,0,1,.92-.12.31.31,0,0,0,.27-.2l1.22-3.44a.31.31,0,0,0-.09-.32,4.75,4.75,0,0,1-.36-6.87.29.29,0,0,0,0-.32l-1.08-2.26h0l-.49-1a.34.34,0,0,0-.08-.09h0s0,0,0,0l-.11,0h0a4.76,4.76,0,0,1-5.11-4.61.31.31,0,0,0-.2-.27L1116.77,74a.25.25,0,0,0-.32.08h0a4.85,4.85,0,0,1-1.09.94l-.09,0a3.3,3.3,0,0,1-.32.18,4.7,4.7,0,0,1-1.85.48,4.78,4.78,0,0,1-3.51-1.29.29.29,0,0,0-.32,0L1106,76a.32.32,0,0,0-.17.29,4.76,4.76,0,0,1-4.61,5.11.26.26,0,0,0-.26.2l-.84,2.38h0l-.38,1.08a.32.32,0,0,0,.09.32A4.76,4.76,0,0,1,1101.41,88.7Zm7.47-5.82,0,0,.33-.28c.08-.06.15-.13.24-.19l.1-.07a7.08,7.08,0,1,1,7.1,12.18c-.19.08-.38.17-.58.24h0a7.08,7.08,0,0,1-7.22-11.84Z" style="fill:#91c54f"/><rect x="2263.2" y="62.08" width="186.04" height="131.24" rx="12" ry="12" style="fill:none;stroke:#3a5c84;stroke-miterlimit:10;stroke-width:8.92649053008124px"/><path d="M2323.51,129.68a12.59,12.59,0,0,1-3.38,9.23.8.8,0,0,0-.14.86l4.13,8.64a.68.68,0,0,0,.76.45,12.5,12.5,0,0,1,9.29,3.18,12.66,12.66,0,0,1,4.15,8.92.77.77,0,0,0,.5.7l9,3.19a.33.33,0,0,0,.17,0,.6.6,0,0,0,.72-.25,12.53,12.53,0,0,1,1.88-1.76l.1-.07c.3-.23.6-.43.91-.63s.49-.28.73-.4l.36-.19a12.48,12.48,0,0,1,14.05,2.14.66.66,0,0,0,.85.12l8.64-4.12,0,0h0a.76.76,0,0,0,.43-.75,12.49,12.49,0,0,1,8-12.58l.28-.11.48-.15.78-.23.12,0a12.05,12.05,0,0,1,2.41-.32.79.79,0,0,0,.71-.53l3.19-9a.78.78,0,0,0-.22-.84,12.5,12.5,0,0,1-.95-18.06.76.76,0,0,0,.13-.85l-2.83-5.94,0,0-1.28-2.7a.8.8,0,0,0-.22-.23s0,0,0,0a.74.74,0,0,0-.12-.09.54.54,0,0,0-.29-.07l-.1,0A12.54,12.54,0,0,1,2373.38,95a.76.76,0,0,0-.52-.7l-9-3.19a.65.65,0,0,0-.84.22h0s0,0,0,0a12.39,12.39,0,0,1-2.87,2.44l-.22.12c-.28.17-.55.32-.84.47A12.52,12.52,0,0,1,2345,92.25a.81.81,0,0,0-.87-.13l-8.64,4.12a.8.8,0,0,0-.43.76,12.51,12.51,0,0,1-12.11,13.43.69.69,0,0,0-.7.52L2320,117.2h0l-1,2.82a.84.84,0,0,0,.22.85A12.61,12.61,0,0,1,2323.51,129.68Zm19.61-15.28.12-.11c.28-.26.56-.49.86-.72s.4-.35.61-.51l.28-.19a18.6,18.6,0,1,1,18.66,32c-.5.23-1,.45-1.52.64h-.05a18.61,18.61,0,0,1-19-31.11Z" style="fill:#c13018"/><rect x="609.97" y="75.5" width="155" height="107" rx="12" ry="12" style="fill:none;stroke:#3a5c84;stroke-miterlimit:10;stroke-width:8.92649053008124px"/><rect x="593.97" y="17" width="187" height="107" rx="12" ry="12" style="fill:#fff"/><polygon points="673.76 30.33 673.76 114.85 661.58 114.85 687.47 140.74 713.35 114.85 701.17 114.85 701.17 30.33 673.76 30.33" style="fill:none;stroke:#c13018;stroke-miterlimit:10;stroke-width:7px"/><polygon points="423.26 137.24 507.78 137.24 507.78 149.42 533.67 123.53 507.78 97.65 507.78 109.83 423.26 109.83 423.26 137.24" style="fill:none;stroke:#3a5c84;stroke-miterlimit:10;stroke-width:7px"/><polygon points="840.66 132.24 925.18 132.24 925.18 144.42 951.07 118.53 925.18 92.65 925.18 104.83 840.66 104.83 840.66 132.24" style="fill:none;stroke:#3a5c84;stroke-miterlimit:10;stroke-width:7px"/><polygon points="1258.06 137.24 1342.58 137.24 1342.58 149.42 1368.47 123.53 1342.58 97.65 1342.58 109.83 1258.06 109.83 1258.06 137.24" style="fill:none;stroke:#3a5c84;stroke-miterlimit:10;stroke-width:7px"/><polygon points="1675.46 144.24 1759.98 144.24 1759.98 156.42 1785.87 130.53 1759.98 104.65 1759.98 116.83 1675.46 116.83 1675.46 144.24" style="fill:none;stroke:#3a5c84;stroke-miterlimit:10;stroke-width:7px"/><polygon points="2092.86 147.24 2177.38 147.24 2177.38 159.42 2203.27 133.53 2177.38 107.65 2177.38 119.83 2092.86 119.83 2092.86 147.24" style="fill:none;stroke:#3a5c84;stroke-miterlimit:10;stroke-width:7px"/><polygon points="2510.26 146.24 2594.78 146.24 2594.78 158.42 2620.67 132.53 2594.78 106.65 2594.78 118.83 2510.26 118.83 2510.26 146.24" style="fill:none;stroke:#3a5c84;stroke-miterlimit:10;stroke-width:7px"/><rect x="127.69" y="64.96" width="188.31" height="117.44" rx="12" ry="12" style="fill:none;stroke:#eb6a38;stroke-miterlimit:10;stroke-width:8.80326456022263px"/><line x1="131.74" y1="105.46" x2="311.95" y2="105.46" style="fill:none;stroke:#eb6a38;stroke-miterlimit:10;stroke-width:8.80326456022263px"/><circle cx="263.36" cy="86.22" r="6.07" style="fill:#eb6a38"/><ellipse cx="278.87" cy="86.22" rx="5.74" ry="6.07" style="fill:#eb6a38"/><circle cx="293.73" cy="86.22" r="6.07" style="fill:#eb6a38"/><rect x="195.53" y="115.81" width="12.15" height="34.42" rx="3" ry="3" transform="translate(-35.01 181.51) rotate(-45)" style="fill:#eb6a38"/><rect x="184.39" y="143.15" width="34.42" height="12.15" rx="3" ry="3" transform="translate(-46.47 186.26) rotate(-45)" style="fill:#eb6a38"/><rect x="227.92" y="151.01" width="34.42" height="12.15" rx="3" ry="3" style="fill:#eb6a38"/><rect x="1844.69" y="64.96" width="188.31" height="117.44" rx="12" ry="12" style="fill:none;stroke:#c13018;stroke-miterlimit:10;stroke-width:8.80326456022263px"/><line x1="1848.74" y1="105.46" x2="2028.95" y2="105.46" style="fill:none;stroke:#c13018;stroke-miterlimit:10;stroke-width:8.80326456022263px"/><circle cx="1980.36" cy="86.22" r="6.07" style="fill:#c13018"/><ellipse cx="1995.87" cy="86.22" rx="5.74" ry="6.07" style="fill:#c13018"/><circle cx="2010.73" cy="86.22" r="6.07" style="fill:#c13018"/><rect x="1912.53" y="115.81" width="12.15" height="34.42" rx="3" ry="3" transform="translate(467.88 1395.62) rotate(-45)" style="fill:#c13018"/><rect x="1901.39" y="143.15" width="34.42" height="12.15" rx="3" ry="3" transform="translate(456.43 1400.36) rotate(-45)" style="fill:#c13018"/><rect x="1944.92" y="151.01" width="34.42" height="12.15" rx="3" ry="3" style="fill:#c13018"/><rect x="1431.69" y="65.96" width="188.31" height="117.44" rx="12" ry="12" style="fill:none;stroke:#eb6a38;stroke-miterlimit:10;stroke-width:8.80326456022263px"/><line x1="1435.74" y1="106.46" x2="1615.95" y2="106.46" style="fill:none;stroke:#eb6a38;stroke-miterlimit:10;stroke-width:8.80326456022263px"/><circle cx="1567.36" cy="87.22" r="6.07" style="fill:#eb6a38"/><ellipse cx="1582.87" cy="87.22" rx="5.74" ry="6.07" style="fill:#eb6a38"/><circle cx="1597.73" cy="87.22" r="6.07" style="fill:#eb6a38"/><path d="M2733,85.26a29.46,29.46,0,1,0,29.46,29.46A29.49,29.49,0,0,0,2733,85.26Z" style="fill:#f7931f"/><path d="M2775.78,128.63l-6.23-13.91,6.23-13.91-13.22-7.59-3.13-14.92-15.16,1.63L2733,69.71l-11.31,10.22-15.15-1.62-3.14,14.91-13.22,7.59,6.24,13.91-6.24,13.91,13.22,7.59,1.7,8.09-14.11,30,14.73.19,9.53,11.23,13.87-29.48,3.88,3.51,3.87-3.51,13.87,29.48,9.54-11.23,14.72-.19-14.11-30,1.7-8.09ZM2733,142.07a27.35,27.35,0,1,1,27.35-27.35A27.38,27.38,0,0,1,2733,142.07Z" style="fill:#f7931f"/><path d="M2022,143.19a17.92,17.92,0,1,0,17.91,17.91A17.94,17.94,0,0,0,2022,143.19Z" style="fill:#f7931f"/><path d="M2048,169.56l-3.79-8.46,3.79-8.45-8-4.62-1.9-9.07-9.22,1-6.87-6.22-6.88,6.22-9.21-1L2004,148l-8,4.62,3.79,8.45-3.79,8.46,8,4.62,1,4.91-8.58,18.24,9,.11,5.8,6.83,8.43-17.92,2.36,2.13,2.35-2.13,8.44,17.92,5.8-6.83,9-.11-8.58-18.24,1-4.91Zm-26,8.18a16.64,16.64,0,1,1,16.63-16.64A16.65,16.65,0,0,1,2022,177.74Z" style="fill:#f7931f"/></svg>