<svg id="Layer_1" data-name="Layer 1" xmlns="http://www.w3.org/2000/svg" viewBox="0 0 1461 768"><title>Capitolul12</title><path d="M758.38,612.39c-.65.47-1.31.93-2,1.37l-.93.59c-.88.55-1.77,1.06-2.68,1.55l-.61.31a47.43,47.43,0,0,1-6.49,2.74l-.23.08c-1.17.39-2.35.73-3.54,1h0c-1.21.3-2.43.54-3.65.75h-.11c-1.15.19-2.31.33-3.48.43l-.62,0c-1.16.08-2.32.14-3.48.14s-2.36-.06-3.53-.14l-.6,0c-1.18-.11-2.35-.24-3.52-.43l-.15,0a46.91,46.91,0,0,1-7.23-1.81l-.22-.07c-1.17-.4-2.33-.84-3.47-1.33h0c-1.07-.46-2.13-1-3.17-1.52l-.41-.21c-1-.5-1.88-1.05-2.79-1.62l-.81-.52c-.85-.56-1.68-1.13-2.49-1.74l-.25-.19.18-.1,14.7-8a7.87,7.87,0,0,0,4.1-6.91v-6.69l-.43-.52A31.14,31.14,0,0,1,714.88,578l-.17-.73-.63-.41a3.1,3.1,0,0,1-1.43-2.59v-6.59a3.05,3.05,0,0,1,1-2.28l.61-.55V554.46l0-.24a11.25,11.25,0,0,1,2.6-8.11c2.69-3.06,7.29-4.62,13.69-4.62s11,1.55,13.66,4.59a11.35,11.35,0,0,1,2.62,8.14v10.6l.61.56a3,3,0,0,1,1,2.27v6.59a3.1,3.1,0,0,1-2.19,2.93l-.93.28-.29.92a34.54,34.54,0,0,1-4.64,9.36,21.11,21.11,0,0,1-1.37,1.76l-.46.53v6.88a7.81,7.81,0,0,0,4.34,7l15.75,7.87.29.15C758.78,612.11,758.58,612.24,758.38,612.39Z" style="fill:none;stroke:#3a5c84;stroke-miterlimit:10;stroke-width:7px"/><circle cx="730.45" cy="568.29" r="52.85" style="fill:none;stroke:#3a5c84;stroke-miterlimit:10;stroke-width:7px"/><circle cx="1248.45" cy="294.29" r="52.85" style="fill:none;stroke:#3a5c84;stroke-miterlimit:10;stroke-width:7px"/><path d="M1241.12,301.56v-13a9.7,9.7,0,0,0,2.72.4c2.48,0,5.6-.72,7.52-2.64a6.39,6.39,0,0,0,1.84-4.4,5.46,5.46,0,0,0-1.36-3.76,5.24,5.24,0,0,0-3.84-1.52,4.55,4.55,0,0,0-3.44,1.36,5.8,5.8,0,0,0-1.44,4H1229a17.22,17.22,0,0,1,4.8-11.36c2.64-2.64,7.2-5.2,13.92-5.2s11.28,2.48,14.16,5.2a15.62,15.62,0,0,1,5,11.44,15.44,15.44,0,0,1-3.84,10.08,16.94,16.94,0,0,1-9,5.12v4.24Zm1,17.2a8.12,8.12,0,0,1,0-11.68,8,8,0,0,1,5.76-2.48,8.44,8.44,0,0,1,6,2.56,8.31,8.31,0,0,1-.08,11.6,8.19,8.19,0,0,1-5.84,2.48A8.11,8.11,0,0,1,1242.16,318.76Z"/><path d="M703.45,690.88A14.38,14.38,0,0,1,698.2,692a12.69,12.69,0,0,1-9-3.5,12.24,12.24,0,0,1-3.54-8.51,12.52,12.52,0,0,1,3.54-8.61,12.38,12.38,0,0,1,8.82-3.64,14.57,14.57,0,0,1,5.46,1.19v7.25a6.5,6.5,0,0,0-5.29-2.56,5.93,5.93,0,0,0-4.2,1.54,6.54,6.54,0,0,0-2,4.8,6.47,6.47,0,0,0,1.89,4.55,6.56,6.56,0,0,0,4.34,1.61,6.88,6.88,0,0,0,5.29-2.45Z"/><path d="M712.37,666v25.51h-5.6V666Z"/><path d="M719,666.21a3.15,3.15,0,1,1-3.15,3.15A3.14,3.14,0,0,1,719,666.21Zm2.8,9.66v15.64h-5.6V675.87Z"/><path d="M742.19,684.72H730.54a4,4,0,0,0,1,2.63,3.15,3.15,0,0,0,2.31.77,4.51,4.51,0,0,0,1.82-.42,2.64,2.64,0,0,0,1-1.05H742a7,7,0,0,1-1.89,3.22c-1.15,1.12-3,2.17-6.37,2.17a8.88,8.88,0,0,1-6.47-2.38,8.19,8.19,0,0,1-2.31-5.92,8.36,8.36,0,0,1,2.34-6,8.83,8.83,0,0,1,6.41-2.28,8.58,8.58,0,0,1,6,2.14,8.77,8.77,0,0,1,2.48,6.58Zm-5.14-3.22a3.78,3.78,0,0,0-.91-1.68,3.29,3.29,0,0,0-2.31-.84,3,3,0,0,0-2.28.84,3.27,3.27,0,0,0-.84,1.68Z"/><path d="M745.41,675.87H751v2a5.91,5.91,0,0,1,5-2.31,6.3,6.3,0,0,1,4.62,1.68c1.33,1.33,1.47,2.66,1.47,4.37v9.94h-5.6V683.6c0-.91,0-2.27-.7-3a2.33,2.33,0,0,0-1.78-.67,3.08,3.08,0,0,0-2.07.74,3.58,3.58,0,0,0-.91,2.48v8.4h-5.6Z"/><path d="M772.08,680.45v11.06h-5.6V680.45h-1.79v-4.58h1.79v-5.15h5.6v5.15h3.19v4.58Z"/><polygon points="385.13 318.85 483.28 318.85 483.28 333 513.34 302.94 483.28 272.87 483.28 287.02 385.13 287.02 385.13 318.85" style="fill:none;stroke:#3a5c84;stroke-miterlimit:10;stroke-width:7px"/><polygon points="979.13 309.85 1077.28 309.85 1077.28 324 1107.34 293.94 1077.28 263.87 1077.28 278.02 979.13 278.02 979.13 309.85" style="fill:none;stroke:#3a5c84;stroke-miterlimit:10;stroke-width:7px"/><path d="M355,130.53a3.61,3.61,0,0,0,.94,2.35,3.23,3.23,0,0,0,2.38.91,3.1,3.1,0,0,0,2.38-1,2.89,2.89,0,0,0-.21-4,3.64,3.64,0,0,0-2.24-.66,2.94,2.94,0,0,0-1,.14v-4.1a3,3,0,0,0,2.48-.59,2.19,2.19,0,0,0,.77-1.65,2.59,2.59,0,0,0-.63-1.68,2.52,2.52,0,0,0-1.71-.63,2.37,2.37,0,0,0-1.68.6,2.92,2.92,0,0,0-.81,2.06H350a8.28,8.28,0,0,1,2.27-5.35,9.33,9.33,0,0,1,12-.21,6.31,6.31,0,0,1,1.89,4.51,5.55,5.55,0,0,1-.7,2.87,4,4,0,0,1-1.78,1.79A5.69,5.69,0,0,1,366.4,128a5.86,5.86,0,0,1,1,3.43,7,7,0,0,1-2.06,5.11,9.58,9.58,0,0,1-7,2.49,9.43,9.43,0,0,1-6.68-2.42,9.3,9.3,0,0,1-2.91-6.09Z"/><path d="M371.55,138.09a3.52,3.52,0,0,1-1.09-2.55,3.57,3.57,0,0,1,1.09-2.56,3.53,3.53,0,0,1,2.55-1.08,3.67,3.67,0,0,1,2.59,1.12,3.32,3.32,0,0,1,1,2.52,3.38,3.38,0,0,1-1,2.55,3.59,3.59,0,0,1-2.56,1.09A3.55,3.55,0,0,1,371.55,138.09Z"/><path d="M403.26,120.31h-7.21v3.89h6.82v5.14h-6.82v4h7.21v5.14H390V115.17h13.27Z"/><path d="M412.46,130l-6.33-7.14h7.28l2.69,3.22,2.77-3.22h7.24L419.64,130l7.84,8.5h-7.42l-4-4.65-4,4.65h-7.43Z"/><path d="M435.6,127.45v11.06H430V127.45h-1.79v-4.58H430v-5.15h5.6v5.15h3.18v4.58Z"/><path d="M440.88,122.87h5.6v2.55a5.06,5.06,0,0,1,2.21-2.17,6.15,6.15,0,0,1,2.9-.63c.14,0,.39,0,1.12.07V128a4.93,4.93,0,0,0-2.41-.56,3.64,3.64,0,0,0-2.56.84,4.72,4.72,0,0,0-1.26,3.57v6.68h-5.6Z"/><path d="M467.31,122.87h5.6v15.64h-5.6V136.8a5.87,5.87,0,0,1-4.87,2.24,7.49,7.49,0,0,1-5.64-2.49,7.9,7.9,0,0,1-2.24-5.74,8.64,8.64,0,0,1,2.42-6.26,8.07,8.07,0,0,1,5.64-2.21,6.22,6.22,0,0,1,4.69,2Zm-5.89,5.25a3.51,3.51,0,0,0,0,5.11,3.91,3.91,0,0,0,2.52,1.05,3.6,3.6,0,0,0,2.52-1.09,3.4,3.4,0,0,0,1.05-2.52,3.47,3.47,0,0,0-1.08-2.55,3.55,3.55,0,0,0-5,0Z"/><path d="M494.36,122.87v14.66c0,2.35-.21,4.48-2.13,6.48a9.34,9.34,0,0,1-6.9,2.52,9.64,9.64,0,0,1-7.32-2.76,5.7,5.7,0,0,1-1.71-3.26h6.23c.21.63.77,1.61,2.63,1.61a3.39,3.39,0,0,0,2.48-.87,3.76,3.76,0,0,0,1.12-2.91v-1.58a6,6,0,0,1-4.69,2.07,7.79,7.79,0,0,1-5.78-2.21,8.25,8.25,0,0,1-2.17-5.7,9.06,9.06,0,0,1,2.31-6.13,7.9,7.9,0,0,1,5.67-2.38,6.1,6.1,0,0,1,4.66,2.07v-1.61ZM483,128.12a3.71,3.71,0,0,0-1.09,2.52,3.66,3.66,0,0,0,1.09,2.55,3.53,3.53,0,0,0,2.52,1,3.71,3.71,0,0,0,2.52-1.05,3.75,3.75,0,0,0,1.05-2.52,4,4,0,0,0-1.12-2.56,3.54,3.54,0,0,0-2.48-1A3.33,3.33,0,0,0,483,128.12Z"/><path d="M514.8,131.72H503.14a4,4,0,0,0,1,2.63,3.15,3.15,0,0,0,2.31.77,4.51,4.51,0,0,0,1.82-.42,2.57,2.57,0,0,0,1-1h5.36a7,7,0,0,1-1.89,3.22c-1.15,1.12-3,2.17-6.37,2.17a8.9,8.9,0,0,1-6.48-2.38,8.23,8.23,0,0,1-2.31-5.92,8.33,8.33,0,0,1,2.35-6.05,8.79,8.79,0,0,1,6.4-2.28,8.61,8.61,0,0,1,6,2.14,8.77,8.77,0,0,1,2.48,6.58Zm-5.14-3.22a3.78,3.78,0,0,0-.91-1.68,3.31,3.31,0,0,0-2.32-.84,3,3,0,0,0-2.27.84,3.12,3.12,0,0,0-.84,1.68Z"/><path d="M518,122.87h5.6v2.55a5,5,0,0,1,2.2-2.17,6.19,6.19,0,0,1,2.91-.63c.14,0,.38,0,1.12.07V128a5,5,0,0,0-2.42-.56,3.63,3.63,0,0,0-2.55.84,4.72,4.72,0,0,0-1.26,3.57v6.68H518Z"/><path d="M548.93,131.72H537.27a4,4,0,0,0,1,2.63,3.15,3.15,0,0,0,2.31.77,4.51,4.51,0,0,0,1.82-.42,2.64,2.64,0,0,0,1-1h5.36a7.09,7.09,0,0,1-1.9,3.22c-1.15,1.12-3,2.17-6.37,2.17a8.88,8.88,0,0,1-6.47-2.38,8.19,8.19,0,0,1-2.31-5.92,8.36,8.36,0,0,1,2.34-6.05,8.83,8.83,0,0,1,6.41-2.28,8.58,8.58,0,0,1,6,2.14,8.75,8.75,0,0,1,2.49,6.58Zm-5.15-3.22a3.78,3.78,0,0,0-.91-1.68,3.29,3.29,0,0,0-2.31-.84,3,3,0,0,0-2.28.84,3.27,3.27,0,0,0-.84,1.68Z"/><path d="M330.37,180.17a8.34,8.34,0,0,1-3.88.87,8.68,8.68,0,0,1-6.17-2.38,8.2,8.2,0,0,1-2.41-5.85,8.49,8.49,0,0,1,2.52-6.05,9,9,0,0,1,6.3-2.38,8,8,0,0,1,3.64.87v4.69a5,5,0,0,0-2.9-1,3.65,3.65,0,0,0-2.73,1.08,3.78,3.78,0,0,0-1.09,2.7,4,4,0,0,0,1,2.62,3.82,3.82,0,0,0,2.87,1.19,4.2,4.2,0,0,0,2.87-1.05Z"/><path d="M333.55,155h5.6v11.83a6.73,6.73,0,0,1,1.75-1.54,6.35,6.35,0,0,1,3.23-.77,6.26,6.26,0,0,1,4.62,1.68,5.45,5.45,0,0,1,1.47,4.37v9.94h-5.6V172.6a4.65,4.65,0,0,0-.7-3,2.22,2.22,0,0,0-1.79-.67,3,3,0,0,0-2,.67,3.39,3.39,0,0,0-1,2.55v8.4h-5.6Z"/><path d="M369.92,173.72H358.26a4,4,0,0,0,1,2.63,3.15,3.15,0,0,0,2.31.77,4.57,4.57,0,0,0,1.83-.42,2.55,2.55,0,0,0,1-1h5.36a7,7,0,0,1-1.89,3.22c-1.15,1.12-3,2.17-6.37,2.17a8.9,8.9,0,0,1-6.48-2.38,8.23,8.23,0,0,1-2.31-5.92,8.33,8.33,0,0,1,2.35-6.05,8.8,8.8,0,0,1,6.41-2.28,8.6,8.6,0,0,1,6,2.14,8.77,8.77,0,0,1,2.48,6.58Zm-5.14-3.22a3.78,3.78,0,0,0-.91-1.68,3.31,3.31,0,0,0-2.32-.84,3,3,0,0,0-2.27.84,3.12,3.12,0,0,0-.84,1.68Z"/><path d="M375.94,155.21a3.15,3.15,0,1,1-3.15,3.15A3.14,3.14,0,0,1,375.94,155.21Zm2.8,9.66v15.64h-5.6V164.87Z"/><path d="M399.15,173.72H387.49a4,4,0,0,0,1,2.63,3.15,3.15,0,0,0,2.31.77,4.51,4.51,0,0,0,1.82-.42,2.64,2.64,0,0,0,1-1h5.36a7.09,7.09,0,0,1-1.9,3.22c-1.15,1.12-3,2.17-6.37,2.17a8.88,8.88,0,0,1-6.47-2.38,8.19,8.19,0,0,1-2.31-5.92,8.36,8.36,0,0,1,2.34-6.05,8.83,8.83,0,0,1,6.41-2.28,8.58,8.58,0,0,1,6,2.14,8.75,8.75,0,0,1,2.49,6.58ZM394,170.5a3.78,3.78,0,0,0-.91-1.68,3.29,3.29,0,0,0-2.31-.84,3,3,0,0,0-2.28.84,3.27,3.27,0,0,0-.84,1.68Z"/><path d="M416.12,188.53h-5.6V164.87h5.6v1.71a5.85,5.85,0,0,1,4.79-2.24,7.78,7.78,0,0,1,5.57,2.28,8.88,8.88,0,0,1-.14,12.25A7.54,7.54,0,0,1,421,181a6.66,6.66,0,0,1-4.86-2Zm.91-18.38a3.83,3.83,0,0,0-1.09,2.59,3.78,3.78,0,0,0,1.09,2.49,3.58,3.58,0,0,0,2.52,1.05,3.39,3.39,0,0,0,2.48-1.05,3.7,3.7,0,0,0,1.09-2.49,3.83,3.83,0,0,0-1.09-2.59,3.39,3.39,0,0,0-2.48-1.05A3.58,3.58,0,0,0,417,170.15Z"/><path d="M437.68,164.87v8.75a3,3,0,0,0,.84,2.27,2.89,2.89,0,0,0,2,.6,2.59,2.59,0,0,0,2-.67,2.9,2.9,0,0,0,.81-2.2v-8.75h5.6v9.76a5.37,5.37,0,0,1-1.51,4.2c-1.92,2-4.62,2.21-6.75,2.21-2.35,0-5.22-.25-7.07-2.24a5.63,5.63,0,0,1-1.47-4.17v-9.76Z"/><path d="M458.33,155v11.37a6.2,6.2,0,0,1,4.65-2,8,8,0,0,1,5.53,2.1,8.53,8.53,0,0,1,2.56,6.2,8.66,8.66,0,0,1-2.52,6.23,7.52,7.52,0,0,1-5.5,2.17,5.73,5.73,0,0,1-4.72-2.24v1.71h-5.6V155Zm5.91,20.23a3.54,3.54,0,0,0,1.09-2.45,3.85,3.85,0,0,0-1.09-2.66,3.42,3.42,0,0,0-2.48-1,3.45,3.45,0,0,0-2.56,1.05,4.12,4.12,0,0,0-1.05,2.52,3.75,3.75,0,0,0,1.19,2.66,3.83,3.83,0,0,0,2.42.95A3.47,3.47,0,0,0,464.24,175.23Z"/><path d="M479.89,155v25.51h-5.6V155Z"/><path d="M486.5,155.21a3.15,3.15,0,1,1-3.15,3.15A3.14,3.14,0,0,1,486.5,155.21Zm2.8,9.66v15.64h-5.6V164.87Z"/><path d="M505,180.17a8.37,8.37,0,0,1-3.89.87,8.67,8.67,0,0,1-6.16-2.38,8.2,8.2,0,0,1-2.41-5.85,8.49,8.49,0,0,1,2.52-6.05,9,9,0,0,1,6.3-2.38,8,8,0,0,1,3.64.87v4.69a5.05,5.05,0,0,0-2.91-1,3.67,3.67,0,0,0-2.73,1.08,3.81,3.81,0,0,0-1.08,2.7,4,4,0,0,0,1,2.62,3.78,3.78,0,0,0,2.87,1.19,4.23,4.23,0,0,0,2.87-1.05Z"/><path d="M520.24,164.87h5.6v15.64h-5.6V178.8a5.84,5.84,0,0,1-4.86,2.24,7.49,7.49,0,0,1-5.64-2.49,7.9,7.9,0,0,1-2.24-5.74,8.64,8.64,0,0,1,2.42-6.26,8,8,0,0,1,5.63-2.21,6.2,6.2,0,0,1,4.69,2Zm-5.88,5.25a3.51,3.51,0,0,0,0,5.11,3.91,3.91,0,0,0,2.52,1.05,3.6,3.6,0,0,0,2.52-1.09,3.4,3.4,0,0,0,1-2.52,3.45,3.45,0,0,0-1.09-2.55,3.54,3.54,0,0,0-5,0Z"/><path d="M555.14,179.88a14.38,14.38,0,0,1-5.25,1.16,12.69,12.69,0,0,1-9-3.5,12.24,12.24,0,0,1-3.54-8.51,12.52,12.52,0,0,1,3.54-8.61,12.38,12.38,0,0,1,8.82-3.64,14.57,14.57,0,0,1,5.46,1.19v7.25a6.5,6.5,0,0,0-5.29-2.56,5.93,5.93,0,0,0-4.2,1.54,6.54,6.54,0,0,0-2,4.8,6.47,6.47,0,0,0,1.89,4.55,6.56,6.56,0,0,0,4.34,1.61,6.88,6.88,0,0,0,5.29-2.45Z"/><path d="M573.23,176.59h-8.47l-1.57,3.92h-6.41l9-23.34h6.62l8.78,23.34h-6.47ZM571.62,172,569,164.41,566.44,172Z"/><path d="M879.76,129.45h2.84v4.65h-2.84v4.41h-5.6V134.1h-11.3v-3.88l9-15h7.91Zm-5.6,0v-9.52l-5.49,9.52Z"/><path d="M886.24,138.09a3.52,3.52,0,0,1-1.09-2.55,3.57,3.57,0,0,1,1.09-2.56,3.53,3.53,0,0,1,2.55-1.08,3.67,3.67,0,0,1,2.59,1.12,3.32,3.32,0,0,1,1,2.52,3.38,3.38,0,0,1-1,2.55,3.59,3.59,0,0,1-2.56,1.09A3.55,3.55,0,0,1,886.24,138.09Z"/><path d="M908.85,115.17l5.6,14.21,5.67-14.21h6.58l-9.94,23.34H912l-9.8-23.34Z"/><path d="M943.46,131.72H931.81a4,4,0,0,0,1,2.63,3.15,3.15,0,0,0,2.31.77,4.51,4.51,0,0,0,1.82-.42,2.64,2.64,0,0,0,1-1h5.35a7,7,0,0,1-1.89,3.22c-1.15,1.12-3,2.17-6.37,2.17a8.88,8.88,0,0,1-6.47-2.38,8.19,8.19,0,0,1-2.31-5.92,8.36,8.36,0,0,1,2.34-6.05,8.83,8.83,0,0,1,6.41-2.28,8.58,8.58,0,0,1,6,2.14,8.77,8.77,0,0,1,2.48,6.58Zm-5.14-3.22a3.78,3.78,0,0,0-.91-1.68,3.29,3.29,0,0,0-2.31-.84,3,3,0,0,0-2.28.84,3.27,3.27,0,0,0-.84,1.68Z"/><path d="M946.68,122.87h5.6v2.55a5.06,5.06,0,0,1,2.21-2.17,6.15,6.15,0,0,1,2.9-.63c.14,0,.39,0,1.12.07V128a4.93,4.93,0,0,0-2.41-.56,3.66,3.66,0,0,0-2.56.84,4.72,4.72,0,0,0-1.26,3.57v6.68h-5.6Z"/><path d="M963.8,113.21a3.15,3.15,0,1,1-3.15,3.15A3.14,3.14,0,0,1,963.8,113.21Zm2.8,9.66v15.64H961V122.87Z"/><path d="M976.43,127.45v11.06h-5.6V127.45h-2v-4.58h2v-1.93c0-2.1.28-4.34,2.14-6.12a8.85,8.85,0,0,1,6.16-2.21,9.44,9.44,0,0,1,6.26,2.1,7.13,7.13,0,0,1,2,5.25v.81h-5.6v-.53a3.24,3.24,0,0,0-.7-2.1,2.86,2.86,0,0,0-2-.7,2.65,2.65,0,0,0-1.92.81,3.2,3.2,0,0,0-.74,2.41v2.21h3.92v4.58Zm10.92-4.58v15.64h-5.6V122.87Z"/><path d="M1002.68,138.17a8.34,8.34,0,0,1-3.88.87,8.65,8.65,0,0,1-6.16-2.38,8.21,8.21,0,0,1-2.42-5.85,8.53,8.53,0,0,1,2.52-6,9,9,0,0,1,6.3-2.38,8,8,0,0,1,3.64.87v4.69a5,5,0,0,0-2.9-1,3.67,3.67,0,0,0-2.73,1.08,3.83,3.83,0,0,0-1.09,2.7,4,4,0,0,0,1,2.62,3.82,3.82,0,0,0,2.87,1.19,4.2,4.2,0,0,0,2.87-1.05Z"/><path d="M1018,122.87h5.6v15.64H1018V136.8a5.87,5.87,0,0,1-4.87,2.24,7.47,7.47,0,0,1-5.63-2.49,7.86,7.86,0,0,1-2.24-5.74,8.64,8.64,0,0,1,2.41-6.26,8.07,8.07,0,0,1,5.64-2.21,6.22,6.22,0,0,1,4.69,2Zm-5.88,5.25a3.52,3.52,0,0,0,0,5.11,4,4,0,0,0,2.52,1.05,3.6,3.6,0,0,0,2.52-1.09,3.4,3.4,0,0,0,1-2.52,3.47,3.47,0,0,0-1.08-2.55,3.54,3.54,0,0,0-5,0Z"/><path d="M1027.43,122.87h5.6v2.55a5,5,0,0,1,2.2-2.17,6.19,6.19,0,0,1,2.91-.63c.14,0,.38,0,1.12.07V128a5,5,0,0,0-2.42-.56,3.63,3.63,0,0,0-2.55.84,4.72,4.72,0,0,0-1.26,3.57v6.68h-5.6Z"/><path d="M1058.33,131.72h-11.65a4,4,0,0,0,1,2.63,3.15,3.15,0,0,0,2.31.77,4.51,4.51,0,0,0,1.82-.42,2.64,2.64,0,0,0,1-1h5.35a7,7,0,0,1-1.89,3.22c-1.15,1.12-3,2.17-6.37,2.17a8.88,8.88,0,0,1-6.47-2.38,8.19,8.19,0,0,1-2.31-5.92,8.36,8.36,0,0,1,2.34-6.05,8.83,8.83,0,0,1,6.41-2.28,8.58,8.58,0,0,1,6,2.14,8.77,8.77,0,0,1,2.48,6.58Zm-5.14-3.22a3.78,3.78,0,0,0-.91-1.68A3.29,3.29,0,0,0,1050,126a3,3,0,0,0-2.28.84,3.27,3.27,0,0,0-.84,1.68Z"/><path d="M1074,122.87l3.75,8,3.82-8h6.23l-8.16,15.64h-3.81l-8.09-15.64Z"/><path d="M1101.87,122.87h5.6v15.64h-5.6V136.8A5.84,5.84,0,0,1,1097,139a7.49,7.49,0,0,1-5.64-2.49,7.86,7.86,0,0,1-2.24-5.74,8.64,8.64,0,0,1,2.41-6.26,8.09,8.09,0,0,1,5.64-2.21,6.2,6.2,0,0,1,4.69,2Zm-5.88,5.25a3.51,3.51,0,0,0,0,5.11,3.91,3.91,0,0,0,2.52,1.05,3.6,3.6,0,0,0,2.52-1.09,3.4,3.4,0,0,0,1-2.52,3.45,3.45,0,0,0-1.09-2.55,3.54,3.54,0,0,0-5,0Z"/><path d="M1116.92,113v25.51h-5.6V113Z"/><path d="M1123.54,113.21a3.15,3.15,0,1,1-3.16,3.15A3.14,3.14,0,0,1,1123.54,113.21Zm2.8,9.66v15.64h-5.61V122.87Z"/><path d="M1147.86,138.51h-5.6V136.8a5.73,5.73,0,0,1-4.72,2.24,7.52,7.52,0,0,1-5.5-2.17,8.62,8.62,0,0,1-2.52-6.23,8.53,8.53,0,0,1,2.56-6.2,8,8,0,0,1,5.53-2.1,6.2,6.2,0,0,1,4.65,2V113h5.6Zm-6.61-5.18a3.75,3.75,0,0,0,1.19-2.66,4.12,4.12,0,0,0-1-2.52,3.45,3.45,0,0,0-2.56-1.05,3.42,3.42,0,0,0-2.48,1,3.85,3.85,0,0,0-1.09,2.66,3.54,3.54,0,0,0,1.09,2.45,3.47,3.47,0,0,0,2.48,1.05A3.83,3.83,0,0,0,1141.25,133.33Z"/><path d="M1154.51,113.21a3.15,3.15,0,1,1-3.15,3.15A3.14,3.14,0,0,1,1154.51,113.21Zm2.8,9.66v15.64h-5.6V122.87Z"/><path d="M1167.32,127.45v11.06h-5.6V127.45h-1.79v-4.58h1.79v-5.15h5.6v5.15h3.19v4.58Z"/><path d="M1184.71,122.87h5.61v15.64h-5.61V136.8a5.84,5.84,0,0,1-4.86,2.24,7.49,7.49,0,0,1-5.64-2.49,7.9,7.9,0,0,1-2.24-5.74,8.64,8.64,0,0,1,2.42-6.26,8,8,0,0,1,5.63-2.21,6.2,6.2,0,0,1,4.69,2Zm-5.88,5.25a3.51,3.51,0,0,0,0,5.11,3.93,3.93,0,0,0,2.52,1.05,3.6,3.6,0,0,0,2.52-1.09,3.4,3.4,0,0,0,1.05-2.52,3.45,3.45,0,0,0-1.09-2.55,3.54,3.54,0,0,0-5,0Z"/><path d="M1200.36,127.45v11.06h-5.6V127.45H1193v-4.58h1.79v-5.15h5.6v5.15h3.18v4.58Z"/><path d="M1222.23,131.72h-11.65a4,4,0,0,0,1,2.63,3.15,3.15,0,0,0,2.31.77,4.51,4.51,0,0,0,1.82-.42,2.64,2.64,0,0,0,1-1H1222a7,7,0,0,1-1.89,3.22c-1.15,1.12-3,2.17-6.37,2.17a8.88,8.88,0,0,1-6.47-2.38,8.19,8.19,0,0,1-2.31-5.92,8.36,8.36,0,0,1,2.34-6.05,8.83,8.83,0,0,1,6.41-2.28,8.58,8.58,0,0,1,6,2.14,8.73,8.73,0,0,1,2.48,6.58Zm-5.14-3.22a3.78,3.78,0,0,0-.91-1.68,3.29,3.29,0,0,0-2.31-.84,3,3,0,0,0-2.28.84,3.27,3.27,0,0,0-.84,1.68Z"/><path d="M931.67,180.17a8.37,8.37,0,0,1-3.89.87,8.67,8.67,0,0,1-6.16-2.38,8.2,8.2,0,0,1-2.41-5.85,8.49,8.49,0,0,1,2.52-6.05,9,9,0,0,1,6.3-2.38,8,8,0,0,1,3.64.87v4.69a5.05,5.05,0,0,0-2.91-1A3.67,3.67,0,0,0,926,170a3.81,3.81,0,0,0-1.08,2.7,4,4,0,0,0,1,2.62,3.78,3.78,0,0,0,2.87,1.19,4.23,4.23,0,0,0,2.87-1.05Z"/><path d="M951.44,173.72H939.79a4,4,0,0,0,1,2.63,3.15,3.15,0,0,0,2.31.77,4.51,4.51,0,0,0,1.82-.42,2.64,2.64,0,0,0,1-1h5.35a7,7,0,0,1-1.89,3.22c-1.15,1.12-3,2.17-6.37,2.17a8.88,8.88,0,0,1-6.47-2.38,8.19,8.19,0,0,1-2.31-5.92,8.36,8.36,0,0,1,2.34-6.05,8.83,8.83,0,0,1,6.41-2.28,8.58,8.58,0,0,1,6,2.14,8.77,8.77,0,0,1,2.48,6.58Zm-5.14-3.22a3.78,3.78,0,0,0-.91-1.68,3.29,3.29,0,0,0-2.31-.84,3,3,0,0,0-2.28.84,3.27,3.27,0,0,0-.84,1.68Z"/><path d="M954.66,164.87h5.6v2.55a5.06,5.06,0,0,1,2.21-2.17,6.15,6.15,0,0,1,2.9-.63c.14,0,.39,0,1.12.07V170a4.93,4.93,0,0,0-2.41-.56,3.66,3.66,0,0,0-2.56.84,4.72,4.72,0,0,0-1.26,3.57v6.68h-5.6Z"/><path d="M975.7,169.45v11.06h-5.6V169.45h-1.79v-4.58h1.79v-5.15h5.6v5.15h3.18v4.58Z"/><path d="M983.78,155.21a3.15,3.15,0,1,1-3.15,3.15A3.14,3.14,0,0,1,983.78,155.21Zm2.8,9.66v15.64H981V164.87Z"/><path d="M996.42,169.45v11.06h-5.6V169.45h-2v-4.58h2v-1.93c0-2.1.28-4.34,2.13-6.12a8.88,8.88,0,0,1,6.16-2.21,9.45,9.45,0,0,1,6.27,2.1,7.13,7.13,0,0,1,2,5.25v.81h-5.6v-.53a3.24,3.24,0,0,0-.7-2.1,2.9,2.9,0,0,0-2-.7,2.67,2.67,0,0,0-1.93.81,3.23,3.23,0,0,0-.73,2.41v2.21h3.92v4.58Zm10.92-4.58v15.64h-5.6V164.87Z"/><path d="M1022.67,180.17a8.37,8.37,0,0,1-3.89.87,8.67,8.67,0,0,1-6.16-2.38,8.2,8.2,0,0,1-2.41-5.85,8.49,8.49,0,0,1,2.52-6.05,9,9,0,0,1,6.3-2.38,8,8,0,0,1,3.64.87v4.69a5.05,5.05,0,0,0-2.91-1A3.67,3.67,0,0,0,1017,170a3.81,3.81,0,0,0-1.08,2.7,4,4,0,0,0,1,2.62,3.78,3.78,0,0,0,2.87,1.19,4.23,4.23,0,0,0,2.87-1.05Z"/><path d="M1038,164.87h5.6v15.64H1038V178.8a5.84,5.84,0,0,1-4.86,2.24,7.49,7.49,0,0,1-5.64-2.49,7.9,7.9,0,0,1-2.24-5.74,8.64,8.64,0,0,1,2.42-6.26,8,8,0,0,1,5.63-2.21,6.2,6.2,0,0,1,4.69,2Zm-5.88,5.25a3.51,3.51,0,0,0,0,5.11,3.91,3.91,0,0,0,2.52,1.05,3.6,3.6,0,0,0,2.52-1.09,3.4,3.4,0,0,0,1.05-2.52,3.45,3.45,0,0,0-1.09-2.55,3.54,3.54,0,0,0-5,0Z"/><path d="M1053.61,169.45v11.06H1048V169.45h-1.79v-4.58H1048v-5.15h5.6v5.15h3.18v4.58Z"/><path d="M1068.06,175.33a8.09,8.09,0,0,0,2.24,1.16,7.46,7.46,0,0,0,2.17.38,2.36,2.36,0,0,0,1.44-.42.9.9,0,0,0,.28-.73.84.84,0,0,0-.28-.7,3.43,3.43,0,0,0-1.47-.56l-1.48-.35a5.08,5.08,0,0,1-2.73-1.37,3.79,3.79,0,0,1-1-2.69,5.57,5.57,0,0,1,1.47-3.82,7.92,7.92,0,0,1,5.6-1.89,12.83,12.83,0,0,1,5,1l-1.89,3.57a7.77,7.77,0,0,0-2.94-.77,2.38,2.38,0,0,0-1.3.31.84.84,0,0,0-.49.77.92.92,0,0,0,.67.88c.52.21,1,.21,1.85.45l1,.28a6.63,6.63,0,0,1,2.31,1.23,4.41,4.41,0,0,1,1.19,3.11,5.25,5.25,0,0,1-1.58,3.89c-1.82,1.82-4.48,2-5.78,2a11.6,11.6,0,0,1-6.3-1.82Z"/><path d="M1099.18,173.72h-11.66a4,4,0,0,0,1,2.63,3.15,3.15,0,0,0,2.31.77,4.51,4.51,0,0,0,1.82-.42,2.57,2.57,0,0,0,1-1H1099a7.15,7.15,0,0,1-1.89,3.22c-1.16,1.12-3,2.17-6.38,2.17a8.88,8.88,0,0,1-6.47-2.38,8.19,8.19,0,0,1-2.31-5.92,8.36,8.36,0,0,1,2.34-6.05,8.83,8.83,0,0,1,6.41-2.28,8.58,8.58,0,0,1,6,2.14,8.75,8.75,0,0,1,2.49,6.58ZM1094,170.5a3.78,3.78,0,0,0-.91-1.68,3.29,3.29,0,0,0-2.31-.84,3,3,0,0,0-2.28.84,3.27,3.27,0,0,0-.84,1.68Z"/><path d="M1102.39,164.87h5.6v2.55a5.06,5.06,0,0,1,2.21-2.17,6.15,6.15,0,0,1,2.9-.63c.14,0,.39,0,1.12.07V170a4.93,4.93,0,0,0-2.41-.56,3.66,3.66,0,0,0-2.56.84,4.72,4.72,0,0,0-1.26,3.57v6.68h-5.6Z"/><path d="M1121.05,164.87l3.74,8,3.82-8h6.23l-8.16,15.64h-3.81l-8.09-15.64Z"/><path d="M1152.48,173.72h-11.66a4,4,0,0,0,1,2.63,3.15,3.15,0,0,0,2.31.77,4.57,4.57,0,0,0,1.83-.42,2.64,2.64,0,0,0,1-1h5.35a7,7,0,0,1-1.89,3.22c-1.15,1.12-3,2.17-6.37,2.17a8.9,8.9,0,0,1-6.48-2.38,8.23,8.23,0,0,1-2.31-5.92,8.33,8.33,0,0,1,2.35-6.05,8.8,8.8,0,0,1,6.41-2.28,8.6,8.6,0,0,1,6,2.14,8.77,8.77,0,0,1,2.48,6.58Zm-5.14-3.22a3.78,3.78,0,0,0-.91-1.68,3.31,3.31,0,0,0-2.32-.84,3,3,0,0,0-2.27.84,3.12,3.12,0,0,0-.84,1.68Z"/><path d="M1155.7,164.87h5.6v2.55a5,5,0,0,1,2.2-2.17,6.19,6.19,0,0,1,2.91-.63c.14,0,.38,0,1.12.07V170a5,5,0,0,0-2.42-.56,3.63,3.63,0,0,0-2.55.84,4.72,4.72,0,0,0-1.26,3.57v6.68h-5.6Z"/><rect x="76" y="54" width="1319" height="592" rx="12" ry="12" style="fill:none;stroke:#3a5c84;stroke-miterlimit:10;stroke-width:8.21343199376966px"/><path d="M592,392.88a14.3,14.3,0,0,1-5.25,1.16,12.71,12.71,0,0,1-9-3.5,12.28,12.28,0,0,1-3.53-8.51,12.24,12.24,0,0,1,12.35-12.25A14.57,14.57,0,0,1,592,371v7.25a6.49,6.49,0,0,0-5.28-2.56,5.93,5.93,0,0,0-4.2,1.54,6.5,6.5,0,0,0-2,4.8,6.43,6.43,0,0,0,1.89,4.55,6.52,6.52,0,0,0,4.34,1.61,6.86,6.86,0,0,0,5.28-2.45Z"/><path d="M595.33,368h5.6v11.83a6.57,6.57,0,0,1,1.75-1.54,7.16,7.16,0,0,1,7.84.91,5.45,5.45,0,0,1,1.47,4.37v9.94h-5.6V385.6a4.65,4.65,0,0,0-.7-3,2.22,2.22,0,0,0-1.79-.67,3,3,0,0,0-2,.67,3.39,3.39,0,0,0-.94,2.55v8.4h-5.6Z"/><path d="M631.69,386.72H620a4,4,0,0,0,1,2.63,3.15,3.15,0,0,0,2.31.77,4.51,4.51,0,0,0,1.82-.42,2.64,2.64,0,0,0,1-1.05h5.35a7,7,0,0,1-1.89,3.22c-1.15,1.12-3,2.17-6.37,2.17a8.88,8.88,0,0,1-6.47-2.38,8.19,8.19,0,0,1-2.31-5.92,8.36,8.36,0,0,1,2.34-6.05,8.83,8.83,0,0,1,6.41-2.28,8.58,8.58,0,0,1,6,2.14,8.77,8.77,0,0,1,2.48,6.58Zm-5.14-3.22a3.78,3.78,0,0,0-.91-1.68,3.29,3.29,0,0,0-2.31-.84,3,3,0,0,0-2.28.84,3.27,3.27,0,0,0-.84,1.68Z"/><path d="M637.71,368.21a3.15,3.15,0,1,1-3.15,3.15A3.14,3.14,0,0,1,637.71,368.21Zm2.8,9.66v15.64h-5.6V377.87Z"/><path d="M660.92,386.72H649.26a4,4,0,0,0,1,2.63,3.15,3.15,0,0,0,2.31.77,4.51,4.51,0,0,0,1.82-.42,2.57,2.57,0,0,0,1-1.05h5.36a7.15,7.15,0,0,1-1.89,3.22c-1.16,1.12-3,2.17-6.37,2.17a8.9,8.9,0,0,1-6.48-2.38,8.23,8.23,0,0,1-2.31-5.92,8.33,8.33,0,0,1,2.35-6.05,8.79,8.79,0,0,1,6.4-2.28,8.57,8.57,0,0,1,6,2.14,8.75,8.75,0,0,1,2.49,6.58Zm-5.15-3.22a3.78,3.78,0,0,0-.91-1.68,3.28,3.28,0,0,0-2.31-.84,3,3,0,0,0-2.27.84,3.12,3.12,0,0,0-.84,1.68Z"/><path d="M538.63,443.53H533V419.87h5.6v1.71a5.85,5.85,0,0,1,4.79-2.24,7.78,7.78,0,0,1,5.57,2.28,8.88,8.88,0,0,1-.14,12.25,7.54,7.54,0,0,1-5.36,2.17,6.66,6.66,0,0,1-4.86-2Zm.91-18.38a3.83,3.83,0,0,0-1.09,2.59,3.78,3.78,0,0,0,1.09,2.49,3.58,3.58,0,0,0,2.52,1,3.37,3.37,0,0,0,2.48-1,3.7,3.7,0,0,0,1.09-2.49,3.79,3.79,0,0,0-1.09-2.59,3.37,3.37,0,0,0-2.48-1A3.58,3.58,0,0,0,539.54,425.15Z"/><path d="M560.19,419.87v8.75a3,3,0,0,0,.84,2.27,2.89,2.89,0,0,0,2,.6,2.59,2.59,0,0,0,2-.67,2.86,2.86,0,0,0,.81-2.2v-8.75h5.6v9.76a5.36,5.36,0,0,1-1.5,4.2c-1.93,2-4.63,2.21-6.76,2.21-2.35,0-5.22-.25-7.07-2.24a5.63,5.63,0,0,1-1.47-4.17v-9.76Z"/><path d="M580.84,410v11.37a6.2,6.2,0,0,1,4.65-2,8,8,0,0,1,5.54,2.1,8.89,8.89,0,0,1,0,12.43,7.51,7.51,0,0,1-5.5,2.17,5.73,5.73,0,0,1-4.72-2.24v1.71h-5.6V410Zm5.91,20.23a3.54,3.54,0,0,0,1.09-2.45,3.85,3.85,0,0,0-1.09-2.66,3.42,3.42,0,0,0-2.48-1,3.45,3.45,0,0,0-2.56,1,4.12,4.12,0,0,0-1.05,2.52,3.75,3.75,0,0,0,1.19,2.66,3.83,3.83,0,0,0,2.42.95A3.47,3.47,0,0,0,586.75,430.23Z"/><path d="M602.4,410v25.51h-5.6V410Z"/><path d="M609,410.21a3.15,3.15,0,1,1-3.15,3.15A3.14,3.14,0,0,1,609,410.21Zm2.8,9.66v15.64h-5.6V419.87Z"/><path d="M627.46,435.17a8.35,8.35,0,0,1-3.89.87,8.67,8.67,0,0,1-6.16-2.38,8.2,8.2,0,0,1-2.41-5.85,8.49,8.49,0,0,1,2.52-6.05,9,9,0,0,1,6.3-2.38,8,8,0,0,1,3.64.87v4.69a5,5,0,0,0-2.91-1,3.67,3.67,0,0,0-2.73,1.08,3.81,3.81,0,0,0-1.08,2.7,4,4,0,0,0,1,2.62,3.78,3.78,0,0,0,2.87,1.19,4.21,4.21,0,0,0,2.87-1Z"/><path d="M642.75,419.87h5.61v15.64h-5.61V433.8a5.84,5.84,0,0,1-4.86,2.24,7.49,7.49,0,0,1-5.64-2.49,7.9,7.9,0,0,1-2.24-5.74,8.64,8.64,0,0,1,2.42-6.26,8,8,0,0,1,5.63-2.21,6.2,6.2,0,0,1,4.69,2Zm3.08-8.05a5.46,5.46,0,0,1-1.54,3.81,7.34,7.34,0,0,1-9.1,0,5.55,5.55,0,0,1-1.54-3.81h3.61a2.4,2.4,0,0,0,.7,1.43,2.84,2.84,0,0,0,3.57,0,2.4,2.4,0,0,0,.7-1.43Zm-9,13.3a3.51,3.51,0,0,0,0,5.11,3.91,3.91,0,0,0,2.52,1,3.6,3.6,0,0,0,2.52-1.09,3.4,3.4,0,0,0,1-2.52,3.45,3.45,0,0,0-1.09-2.55,3.54,3.54,0,0,0-5,0Z"/><path d="M677.65,434.88A14.38,14.38,0,0,1,672.4,436a12.69,12.69,0,0,1-9-3.5,12.24,12.24,0,0,1-3.54-8.51,12.52,12.52,0,0,1,3.54-8.61,12.38,12.38,0,0,1,8.82-3.64,14.57,14.57,0,0,1,5.46,1.19v7.25a6.5,6.5,0,0,0-5.29-2.56,5.93,5.93,0,0,0-4.2,1.54,6.54,6.54,0,0,0-2,4.8,6.47,6.47,0,0,0,1.89,4.55,6.56,6.56,0,0,0,4.34,1.61,6.88,6.88,0,0,0,5.29-2.45Z"/><path d="M695.74,431.59h-8.47l-1.57,3.92h-6.41l9-23.34h6.62l8.78,23.34h-6.47ZM694.13,427l-2.62-7.56L689,427Z"/><circle cx="662.61" cy="269.97" r="17.47" style="fill:none;stroke:#c13018;stroke-miterlimit:10;stroke-width:6.11437784099579px"/><rect x="590.98" y="306.65" width="72.49" height="5.24" rx="1.51" ry="1.51" transform="translate(-34.97 534.1) rotate(-45)" style="fill:#c13018"/><rect x="609.76" y="325.43" width="3.49" height="14.85" rx="1.01" ry="1.01" transform="translate(-56.25 529.89) rotate(-45)" style="fill:#c13018"/><rect x="616.2" y="319.69" width="3.49" height="18.23" rx="1.01" ry="1.01" transform="translate(-51.51 533.26) rotate(-45)" style="fill:#c13018"/><rect x="621.88" y="314.01" width="3.49" height="18.23" rx="1.01" ry="1.01" transform="translate(-45.83 535.61) rotate(-45)" style="fill:#c13018"/><path d="M153.22,392.88A14.38,14.38,0,0,1,148,394a12.69,12.69,0,0,1-9-3.5A12.24,12.24,0,0,1,135.4,382a12.52,12.52,0,0,1,3.54-8.61,12.38,12.38,0,0,1,8.82-3.64,14.57,14.57,0,0,1,5.46,1.19v7.25a6.5,6.5,0,0,0-5.29-2.56,5.93,5.93,0,0,0-4.2,1.54,6.54,6.54,0,0,0-2,4.8,6.47,6.47,0,0,0,1.89,4.55,6.56,6.56,0,0,0,4.34,1.61,6.88,6.88,0,0,0,5.29-2.45Z"/><path d="M173.13,386.72H161.48a4,4,0,0,0,1,2.63,3.15,3.15,0,0,0,2.31.77,4.51,4.51,0,0,0,1.82-.42,2.64,2.64,0,0,0,1-1.05h5.35a7,7,0,0,1-1.89,3.22c-1.15,1.12-3,2.17-6.37,2.17a8.88,8.88,0,0,1-6.47-2.38,8.19,8.19,0,0,1-2.31-5.92,8.32,8.32,0,0,1,2.34-6.05,8.83,8.83,0,0,1,6.41-2.28,8.58,8.58,0,0,1,6,2.14,8.77,8.77,0,0,1,2.48,6.58ZM168,383.5a3.78,3.78,0,0,0-.91-1.68,3.29,3.29,0,0,0-2.31-.84,3,3,0,0,0-2.28.84,3.27,3.27,0,0,0-.84,1.68Z"/><path d="M176.35,377.87H182v2.55a5.06,5.06,0,0,1,2.21-2.17,6.15,6.15,0,0,1,2.9-.63c.14,0,.39,0,1.12.07V383a4.93,4.93,0,0,0-2.41-.56,3.66,3.66,0,0,0-2.56.84,4.72,4.72,0,0,0-1.26,3.57v6.68h-5.6Z"/><path d="M197.38,382.45v11.06h-5.6V382.45H190v-4.58h1.78v-5.15h5.6v5.15h3.19v4.58Z"/><path d="M205.47,368.21a3.15,3.15,0,1,1-3.15,3.15A3.14,3.14,0,0,1,205.47,368.21Zm2.8,9.66v15.64h-5.6V377.87Z"/><path d="M218.1,382.45v11.06h-5.6V382.45h-2v-4.58h2v-1.93c0-2.1.28-4.34,2.14-6.12a8.85,8.85,0,0,1,6.16-2.21,9.47,9.47,0,0,1,6.27,2.1,7.13,7.13,0,0,1,2,5.25v.81h-5.6v-.53a3.24,3.24,0,0,0-.7-2.1,2.91,2.91,0,0,0-2-.7,2.65,2.65,0,0,0-1.92.81,3.2,3.2,0,0,0-.74,2.41v2.21H222v4.58ZM229,377.87v15.64h-5.6V377.87Z"/><path d="M244.35,393.17a8.31,8.31,0,0,1-3.88.87,8.65,8.65,0,0,1-6.16-2.38,8.21,8.21,0,0,1-2.42-5.85,8.53,8.53,0,0,1,2.52-6.05,9,9,0,0,1,6.3-2.38,8,8,0,0,1,3.64.87v4.69a5,5,0,0,0-2.9-1,3.67,3.67,0,0,0-2.73,1.08,3.83,3.83,0,0,0-1.09,2.7,4,4,0,0,0,1,2.62,3.82,3.82,0,0,0,2.87,1.19,4.2,4.2,0,0,0,2.87-1Z"/><path d="M259.65,377.87h5.6v15.64h-5.6V391.8a5.87,5.87,0,0,1-4.87,2.24,7.47,7.47,0,0,1-5.63-2.49,7.86,7.86,0,0,1-2.24-5.74,8.64,8.64,0,0,1,2.41-6.26,8.07,8.07,0,0,1,5.64-2.21,6.22,6.22,0,0,1,4.69,2Zm-5.88,5.25a3.52,3.52,0,0,0,0,5.11,4,4,0,0,0,2.52,1,3.6,3.6,0,0,0,2.52-1.09,3.4,3.4,0,0,0,1.05-2.52,3.47,3.47,0,0,0-1.08-2.55,3.54,3.54,0,0,0-5,0Z"/><path d="M275.29,382.45v11.06h-5.6V382.45h-1.78v-4.58h1.78v-5.15h5.6v5.15h3.19v4.58Z"/><path d="M306,392.88a14.3,14.3,0,0,1-5.25,1.16,12.71,12.71,0,0,1-9-3.5,12.28,12.28,0,0,1-3.53-8.51,12.24,12.24,0,0,1,12.35-12.25A14.57,14.57,0,0,1,306,371v7.25a6.49,6.49,0,0,0-5.28-2.56,5.93,5.93,0,0,0-4.2,1.54,6.5,6.5,0,0,0-2,4.8,6.43,6.43,0,0,0,1.89,4.55,6.52,6.52,0,0,0,4.34,1.61,6.86,6.86,0,0,0,5.28-2.45Z"/><path d="M324.12,389.59h-8.47l-1.58,3.92h-6.4l9-23.34h6.61L332,393.51h-6.48ZM322.51,385l-2.63-7.56L317.33,385Z"/><path d="M780.39,392.88a14.3,14.3,0,0,1-5.25,1.16,12.69,12.69,0,0,1-9-3.5,12.24,12.24,0,0,1-3.54-8.51,12.52,12.52,0,0,1,3.54-8.61,12.38,12.38,0,0,1,8.82-3.64,14.57,14.57,0,0,1,5.46,1.19v7.25a6.49,6.49,0,0,0-5.28-2.56,5.94,5.94,0,0,0-4.21,1.54,6.54,6.54,0,0,0-2,4.8,6.47,6.47,0,0,0,1.89,4.55,6.57,6.57,0,0,0,4.35,1.61,6.86,6.86,0,0,0,5.28-2.45Z"/><path d="M800.31,386.72H788.65a4,4,0,0,0,1,2.63,3.15,3.15,0,0,0,2.31.77,4.51,4.51,0,0,0,1.82-.42,2.57,2.57,0,0,0,1-1.05h5.36a7.15,7.15,0,0,1-1.89,3.22c-1.16,1.12-3,2.17-6.38,2.17a8.88,8.88,0,0,1-6.47-2.38,8.19,8.19,0,0,1-2.31-5.92,8.36,8.36,0,0,1,2.34-6.05,8.83,8.83,0,0,1,6.41-2.28,8.58,8.58,0,0,1,6,2.14,8.75,8.75,0,0,1,2.49,6.58Zm-5.15-3.22a3.78,3.78,0,0,0-.91-1.68,3.29,3.29,0,0,0-2.31-.84,3,3,0,0,0-2.28.84,3.27,3.27,0,0,0-.84,1.68Z"/><path d="M803.52,377.87h5.6v2.55a5.06,5.06,0,0,1,2.21-2.17,6.15,6.15,0,0,1,2.9-.63c.14,0,.39,0,1.12.07V383a4.93,4.93,0,0,0-2.41-.56,3.66,3.66,0,0,0-2.56.84,4.72,4.72,0,0,0-1.26,3.57v6.68h-5.6Z"/><path d="M824.56,382.45v11.06H819V382.45h-1.79v-4.58H819v-5.15h5.6v5.15h3.18v4.58Z"/><path d="M832.64,368.21a3.15,3.15,0,1,1-3.15,3.15A3.14,3.14,0,0,1,832.64,368.21Zm2.8,9.66v15.64h-5.6V377.87Z"/><path d="M845.28,382.45v11.06h-5.6V382.45h-2v-4.58h2v-1.93c0-2.1.28-4.34,2.13-6.12a8.88,8.88,0,0,1,6.16-2.21,9.45,9.45,0,0,1,6.27,2.1,7.13,7.13,0,0,1,2,5.25v.81h-5.6v-.53a3.24,3.24,0,0,0-.7-2.1,2.9,2.9,0,0,0-2-.7,2.67,2.67,0,0,0-1.93.81,3.23,3.23,0,0,0-.73,2.41v2.21h3.92v4.58Zm10.92-4.58v15.64h-5.6V377.87Z"/><path d="M871.53,393.17a8.37,8.37,0,0,1-3.89.87,8.67,8.67,0,0,1-6.16-2.38,8.2,8.2,0,0,1-2.41-5.85,8.49,8.49,0,0,1,2.52-6.05,9,9,0,0,1,6.3-2.38,8,8,0,0,1,3.64.87v4.69a5.05,5.05,0,0,0-2.91-1,3.67,3.67,0,0,0-2.73,1.08,3.81,3.81,0,0,0-1.08,2.7,4,4,0,0,0,1,2.62,3.78,3.78,0,0,0,2.87,1.19,4.23,4.23,0,0,0,2.87-1Z"/><path d="M886.82,377.87h5.6v15.64h-5.6V391.8A5.84,5.84,0,0,1,882,394a7.49,7.49,0,0,1-5.64-2.49,7.9,7.9,0,0,1-2.24-5.74,8.64,8.64,0,0,1,2.42-6.26,8,8,0,0,1,5.63-2.21,6.2,6.2,0,0,1,4.69,2Zm-5.88,5.25a3.51,3.51,0,0,0,0,5.11,3.91,3.91,0,0,0,2.52,1,3.6,3.6,0,0,0,2.52-1.09,3.4,3.4,0,0,0,1-2.52,3.45,3.45,0,0,0-1.09-2.55,3.54,3.54,0,0,0-5,0Z"/><path d="M902.47,382.45v11.06h-5.6V382.45h-1.79v-4.58h1.79v-5.15h5.6v5.15h3.18v4.58Z"/><path d="M785,430.33a8.09,8.09,0,0,0,2.24,1.16,7.41,7.41,0,0,0,2.17.38,2.33,2.33,0,0,0,1.43-.42.87.87,0,0,0,.28-.73.81.81,0,0,0-.28-.7,3.43,3.43,0,0,0-1.47-.56l-1.47-.35a5.08,5.08,0,0,1-2.73-1.37,3.79,3.79,0,0,1-1-2.69,5.57,5.57,0,0,1,1.47-3.82,7.92,7.92,0,0,1,5.6-1.89,12.77,12.77,0,0,1,5,1l-1.89,3.57a7.72,7.72,0,0,0-2.94-.77,2.35,2.35,0,0,0-1.29.31.84.84,0,0,0-.49.77.91.91,0,0,0,.66.88c.53.21,1,.21,1.86.45l1,.28a6.45,6.45,0,0,1,2.31,1.23,4.41,4.41,0,0,1,1.19,3.11,5.25,5.25,0,0,1-1.57,3.89c-1.82,1.82-4.48,2-5.78,2a11.6,11.6,0,0,1-6.3-1.82Z"/><path d="M816.07,428.72H804.42a4,4,0,0,0,1,2.63,3.15,3.15,0,0,0,2.31.77,4.51,4.51,0,0,0,1.82-.42,2.64,2.64,0,0,0,1-1.05h5.35a7,7,0,0,1-1.89,3.22c-1.15,1.12-3,2.17-6.37,2.17a8.88,8.88,0,0,1-6.47-2.38,8.19,8.19,0,0,1-2.31-5.92,8.36,8.36,0,0,1,2.34-6.05,8.83,8.83,0,0,1,6.41-2.28,8.58,8.58,0,0,1,6,2.14,8.77,8.77,0,0,1,2.48,6.58Zm-5.14-3.22a3.78,3.78,0,0,0-.91-1.68,3.29,3.29,0,0,0-2.31-.84,3,3,0,0,0-2.28.84,3.27,3.27,0,0,0-.84,1.68Z"/><path d="M819.29,419.87h5.6v2.55a5.06,5.06,0,0,1,2.21-2.17,6.15,6.15,0,0,1,2.9-.63c.14,0,.39,0,1.12.07V425a4.93,4.93,0,0,0-2.41-.56,3.66,3.66,0,0,0-2.56.84,4.72,4.72,0,0,0-1.26,3.57v6.68h-5.6Z"/><path d="M838,419.87l3.74,8,3.82-8h6.23l-8.16,15.64h-3.81l-8.09-15.64Z"/><path d="M869.38,428.72H857.72a4,4,0,0,0,1,2.63,3.15,3.15,0,0,0,2.31.77,4.51,4.51,0,0,0,1.82-.42,2.57,2.57,0,0,0,1-1.05h5.36a7.15,7.15,0,0,1-1.89,3.22c-1.16,1.12-3,2.17-6.37,2.17a8.89,8.89,0,0,1-6.48-2.38,8.19,8.19,0,0,1-2.31-5.92,8.36,8.36,0,0,1,2.34-6.05,8.83,8.83,0,0,1,6.41-2.28,8.57,8.57,0,0,1,6,2.14,8.75,8.75,0,0,1,2.49,6.58Zm-5.15-3.22a3.78,3.78,0,0,0-.91-1.68A3.28,3.28,0,0,0,861,423a3,3,0,0,0-2.27.84,3.12,3.12,0,0,0-.84,1.68Z"/><path d="M872.59,419.87h5.6v2.55a5.06,5.06,0,0,1,2.21-2.17,6.19,6.19,0,0,1,2.91-.63c.14,0,.38,0,1.12.07V425a5,5,0,0,0-2.42-.56,3.62,3.62,0,0,0-2.55.84,4.69,4.69,0,0,0-1.27,3.57v6.68h-5.6Z"/><line x1="209.09" y1="328.22" x2="260.98" y2="328.22" style="fill:none;stroke:#c13018;stroke-miterlimit:10;stroke-width:5px"/><line x1="209.09" y1="314.8" x2="260.98" y2="314.8" style="fill:none;stroke:#c13018;stroke-miterlimit:10;stroke-width:5px"/><line x1="209.09" y1="301.37" x2="260.98" y2="301.37" style="fill:none;stroke:#c13018;stroke-miterlimit:10;stroke-width:5px"/><line x1="209.09" y1="287.95" x2="260.98" y2="287.95" style="fill:none;stroke:#c13018;stroke-miterlimit:10;stroke-width:5px"/><line x1="209.09" y1="274.53" x2="230.51" y2="274.53" style="fill:none;stroke:#c13018;stroke-miterlimit:10;stroke-width:5px"/><path d="M258.26,269.7a7.26,7.26,0,0,1-7.24-7.24V248.89H206.08a7.26,7.26,0,0,0-7.24,7.24v76a7.26,7.26,0,0,0,7.24,7.24H264a7.26,7.26,0,0,0,7.24-7.24V269.7Z" style="fill:none;stroke:#c13018;stroke-miterlimit:10;stroke-width:5px"/><line x1="807.09" y1="328.22" x2="858.98" y2="328.22" style="fill:none;stroke:#91c54f;stroke-miterlimit:10;stroke-width:5px"/><line x1="807.09" y1="314.8" x2="858.98" y2="314.8" style="fill:none;stroke:#91c54f;stroke-miterlimit:10;stroke-width:5px"/><line x1="807.09" y1="301.37" x2="858.98" y2="301.37" style="fill:none;stroke:#91c54f;stroke-miterlimit:10;stroke-width:5px"/><line x1="807.09" y1="287.95" x2="858.98" y2="287.95" style="fill:none;stroke:#91c54f;stroke-miterlimit:10;stroke-width:5px"/><line x1="807.09" y1="274.53" x2="828.51" y2="274.53" style="fill:none;stroke:#91c54f;stroke-miterlimit:10;stroke-width:5px"/><path d="M856.26,269.7a7.26,7.26,0,0,1-7.24-7.24V248.89H804.08a7.26,7.26,0,0,0-7.24,7.24v76a7.26,7.26,0,0,0,7.24,7.24H862a7.26,7.26,0,0,0,7.24-7.24V269.7Z" style="fill:none;stroke:#91c54f;stroke-miterlimit:10;stroke-width:5px"/><path d="M860,314.11a11,11,0,1,0,11,11A11,11,0,0,0,860,314.11Z" style="fill:#f7931f"/><path d="M876,330.35l-2.33-5.21,2.33-5.21-5-2.84-1.17-5.59-5.68.61L860,308.28l-4.24,3.83-5.67-.61-1.18,5.59-5,2.84,2.34,5.21-2.34,5.21,5,2.84.64,3-5.28,11.22,5.51.08,3.57,4.2,5.2-11L860,342l1.45-1.32,5.19,11,3.57-4.2,5.52-.08-5.29-11.22.64-3Zm-16,5a10.24,10.24,0,1,1,10.24-10.24A10.25,10.25,0,0,1,860,335.38Z" style="fill:#f7931f"/><path d="M716.39,295.82h12.16V283.58H739v12.24h12.16v9.6H739v12.24h-10.4V305.42H716.39Z"/></svg>