<svg id="Layer_1" data-name="Layer 1" xmlns="http://www.w3.org/2000/svg" viewBox="0 0 1461 768"><title>Capitolul12</title><path d="M301.38,612.39c-.65.47-1.31.93-2,1.37l-.93.59c-.88.55-1.77,1.06-2.68,1.55l-.61.31a47.43,47.43,0,0,1-6.49,2.74l-.23.08c-1.17.39-2.35.73-3.54,1h0c-1.21.3-2.43.54-3.65.75h-.11c-1.15.19-2.31.33-3.48.43l-.62,0c-1.16.08-2.32.14-3.48.14s-2.36-.06-3.53-.14l-.6,0c-1.18-.11-2.35-.24-3.52-.43l-.15,0a46.91,46.91,0,0,1-7.23-1.81l-.22-.07c-1.17-.4-2.33-.84-3.47-1.33h0c-1.07-.46-2.13-1-3.17-1.52l-.41-.21c-.95-.5-1.88-1.05-2.79-1.62l-.81-.52c-.85-.56-1.68-1.13-2.49-1.74l-.25-.19.18-.1,14.7-8a7.87,7.87,0,0,0,4.1-6.91v-6.69l-.43-.52A31.14,31.14,0,0,1,257.88,578l-.17-.73-.63-.41a3.1,3.1,0,0,1-1.43-2.59v-6.59a3.05,3.05,0,0,1,1-2.28l.61-.55V554.46l0-.24a11.25,11.25,0,0,1,2.6-8.11c2.69-3.06,7.29-4.62,13.69-4.62s11,1.55,13.66,4.59a11.35,11.35,0,0,1,2.62,8.14v10.6l.61.56a3,3,0,0,1,1,2.27v6.59a3.1,3.1,0,0,1-2.19,2.93l-.93.28-.29.92a34.54,34.54,0,0,1-4.64,9.36,21.11,21.11,0,0,1-1.37,1.76l-.46.53v6.88a7.81,7.81,0,0,0,4.34,7l15.75,7.87.29.15C301.78,612.11,301.58,612.24,301.38,612.39Z" style="fill:none;stroke:#3a5c84;stroke-miterlimit:10;stroke-width:7px"/><circle cx="273.45" cy="568.29" r="52.85" style="fill:none;stroke:#3a5c84;stroke-miterlimit:10;stroke-width:7px"/><path d="M240.22,688.88A14.38,14.38,0,0,1,235,690a12.69,12.69,0,0,1-9-3.5A12.24,12.24,0,0,1,222.4,678a12.52,12.52,0,0,1,3.54-8.61,12.38,12.38,0,0,1,8.82-3.64,14.57,14.57,0,0,1,5.46,1.19v7.25a6.5,6.5,0,0,0-5.29-2.56,5.93,5.93,0,0,0-4.2,1.54,6.54,6.54,0,0,0-2,4.8,6.47,6.47,0,0,0,1.89,4.55,6.56,6.56,0,0,0,4.34,1.61,6.88,6.88,0,0,0,5.29-2.45Z"/><path d="M249.14,664v25.51h-5.6V664Z"/><path d="M255.76,664.21a3.15,3.15,0,1,1-3.16,3.15A3.14,3.14,0,0,1,255.76,664.21Zm2.8,9.66v15.64H253V673.87Z"/><path d="M279,682.72H267.31a4,4,0,0,0,1,2.63,3.15,3.15,0,0,0,2.31.77,4.51,4.51,0,0,0,1.82-.42,2.64,2.64,0,0,0,1-1.05h5.35a7,7,0,0,1-1.89,3.22c-1.15,1.12-3,2.17-6.37,2.17a8.88,8.88,0,0,1-6.47-2.38,8.19,8.19,0,0,1-2.31-5.92,8.36,8.36,0,0,1,2.34-6,8.83,8.83,0,0,1,6.41-2.28,8.58,8.58,0,0,1,6,2.14,8.77,8.77,0,0,1,2.48,6.58Zm-5.14-3.22a3.78,3.78,0,0,0-.91-1.68,3.29,3.29,0,0,0-2.31-.84,3,3,0,0,0-2.28.84,3.27,3.27,0,0,0-.84,1.68Z"/><path d="M282.18,673.87h5.6v2a5.91,5.91,0,0,1,5-2.31,6.3,6.3,0,0,1,4.62,1.68c1.33,1.33,1.47,2.66,1.47,4.37v9.94h-5.6V681.6c0-.91,0-2.27-.7-3a2.33,2.33,0,0,0-1.78-.67,3.08,3.08,0,0,0-2.07.74,3.58,3.58,0,0,0-.91,2.48v8.4h-5.6Z"/><path d="M308.85,678.45v11.06h-5.6V678.45h-1.79v-4.58h1.79v-5.15h5.6v5.15H312v4.58Z"/><rect x="76" y="54" width="395" height="592" rx="12" ry="12" style="fill:none;stroke:#3a5c84;stroke-miterlimit:10;stroke-width:8.21343199376966px"/><path d="M122.22,272.88A14.38,14.38,0,0,1,117,274a12.69,12.69,0,0,1-9-3.5A12.24,12.24,0,0,1,104.4,262a12.52,12.52,0,0,1,3.54-8.61,12.38,12.38,0,0,1,8.82-3.64,14.57,14.57,0,0,1,5.46,1.19v7.25a6.5,6.5,0,0,0-5.29-2.56,5.93,5.93,0,0,0-4.2,1.54,6.54,6.54,0,0,0-2,4.8,6.47,6.47,0,0,0,1.89,4.55,6.56,6.56,0,0,0,4.34,1.61,6.88,6.88,0,0,0,5.29-2.45Z"/><path d="M125.54,248h5.6v11.83a6.73,6.73,0,0,1,1.75-1.54,6.31,6.31,0,0,1,3.22-.77,6.22,6.22,0,0,1,4.62,1.68,5.45,5.45,0,0,1,1.47,4.37v9.94h-5.6V265.6a4.65,4.65,0,0,0-.7-3,2.19,2.19,0,0,0-1.78-.67,3,3,0,0,0-2,.67,3.39,3.39,0,0,0-1,2.55v8.4h-5.6Z"/><path d="M161.91,266.72H150.25a4,4,0,0,0,1,2.63,3.15,3.15,0,0,0,2.31.77,4.51,4.51,0,0,0,1.82-.42,2.57,2.57,0,0,0,1-1.05h5.36a7.15,7.15,0,0,1-1.89,3.22c-1.16,1.12-3,2.17-6.37,2.17a8.9,8.9,0,0,1-6.48-2.38,8.19,8.19,0,0,1-2.31-5.92,8.33,8.33,0,0,1,2.35-6.05,8.79,8.79,0,0,1,6.4-2.28,8.57,8.57,0,0,1,6,2.14,8.75,8.75,0,0,1,2.49,6.58Zm-5.15-3.22a3.78,3.78,0,0,0-.91-1.68,3.28,3.28,0,0,0-2.31-.84,3,3,0,0,0-2.27.84,3.12,3.12,0,0,0-.84,1.68Z"/><path d="M167.92,248.21a3.15,3.15,0,1,1-3.15,3.15A3.15,3.15,0,0,1,167.92,248.21Zm2.81,9.66v15.64h-5.61V257.87Z"/><path d="M191.13,266.72H179.48a4,4,0,0,0,1,2.63,3.15,3.15,0,0,0,2.31.77,4.51,4.51,0,0,0,1.82-.42,2.64,2.64,0,0,0,1-1.05h5.35a7,7,0,0,1-1.89,3.22c-1.15,1.12-3,2.17-6.37,2.17a8.92,8.92,0,0,1-6.48-2.38,8.23,8.23,0,0,1-2.31-5.92,8.33,8.33,0,0,1,2.35-6.05,8.8,8.8,0,0,1,6.41-2.28,8.58,8.58,0,0,1,6,2.14,8.77,8.77,0,0,1,2.48,6.58ZM186,263.5a3.78,3.78,0,0,0-.91-1.68,3.29,3.29,0,0,0-2.31-.84,3,3,0,0,0-2.28.84,3.12,3.12,0,0,0-.84,1.68Z"/><path d="M110.53,323.53h-5.6V299.87h5.6v1.71a5.85,5.85,0,0,1,4.79-2.24,7.78,7.78,0,0,1,5.57,2.28,8.88,8.88,0,0,1-.14,12.25,7.54,7.54,0,0,1-5.36,2.17,6.66,6.66,0,0,1-4.86-2Zm.91-18.38a3.83,3.83,0,0,0-1.09,2.59,3.78,3.78,0,0,0,1.09,2.49,3.58,3.58,0,0,0,2.52,1,3.39,3.39,0,0,0,2.48-1,3.7,3.7,0,0,0,1.09-2.49,3.83,3.83,0,0,0-1.09-2.59,3.39,3.39,0,0,0-2.48-1A3.58,3.58,0,0,0,111.44,305.15Z"/><path d="M126.49,299.87h5.6v2.55a5,5,0,0,1,2.2-2.17,6.19,6.19,0,0,1,2.91-.63c.14,0,.38,0,1.12.07V305a5,5,0,0,0-2.42-.56,3.63,3.63,0,0,0-2.55.84,4.72,4.72,0,0,0-1.26,3.57v6.68h-5.6Z"/><path d="M143.6,290.21a3.15,3.15,0,1,1-3.15,3.15A3.14,3.14,0,0,1,143.6,290.21Zm2.8,9.66v15.64h-5.6V299.87Z"/><path d="M154.56,299.87l3.74,8,3.82-8h6.23l-8.16,15.64h-3.81l-8.09-15.64Z"/><path d="M182.38,299.87H188v15.64h-5.6V313.8a5.84,5.84,0,0,1-4.86,2.24,7.49,7.49,0,0,1-5.64-2.49,7.9,7.9,0,0,1-2.24-5.74,8.6,8.6,0,0,1,2.42-6.26,8,8,0,0,1,5.63-2.21,6.2,6.2,0,0,1,4.69,2Zm-5.88,5.25a3.51,3.51,0,0,0,0,5.11,3.91,3.91,0,0,0,2.52,1,3.6,3.6,0,0,0,2.52-1.09,3.4,3.4,0,0,0,1.05-2.52,3.45,3.45,0,0,0-1.09-2.55,3.54,3.54,0,0,0-5,0Z"/><path d="M198,304.45v11.06h-5.61V304.45h-1.78v-4.58h1.78v-5.15H198v5.15h3.18v4.58Z"/><path d="M215.42,299.87H221v15.64h-5.6V313.8a5.84,5.84,0,0,1-4.86,2.24,7.49,7.49,0,0,1-5.64-2.49,7.86,7.86,0,0,1-2.24-5.74,8.64,8.64,0,0,1,2.41-6.26,8.07,8.07,0,0,1,5.64-2.21,6.2,6.2,0,0,1,4.69,2Zm3.08-8.05a5.46,5.46,0,0,1-1.54,3.81,7.34,7.34,0,0,1-9.1,0,5.46,5.46,0,0,1-1.54-3.81h3.61a2.4,2.4,0,0,0,.7,1.43,2.84,2.84,0,0,0,3.57,0,2.4,2.4,0,0,0,.7-1.43Zm-9,13.3a3.52,3.52,0,0,0,0,5.11,4,4,0,0,0,2.53,1,3.6,3.6,0,0,0,2.52-1.09,3.4,3.4,0,0,0,1-2.52,3.45,3.45,0,0,0-1.09-2.55,3.54,3.54,0,0,0-5,0Z"/><path d="M126.22,129.88A14.38,14.38,0,0,1,121,131a12.69,12.69,0,0,1-9-3.5A12.24,12.24,0,0,1,108.4,119a12.52,12.52,0,0,1,3.54-8.61,12.38,12.38,0,0,1,8.82-3.64,14.57,14.57,0,0,1,5.46,1.19v7.25a6.5,6.5,0,0,0-5.29-2.56,5.93,5.93,0,0,0-4.2,1.54,6.54,6.54,0,0,0-2,4.8,6.47,6.47,0,0,0,1.89,4.55,6.56,6.56,0,0,0,4.34,1.61,6.88,6.88,0,0,0,5.29-2.45Z"/><path d="M146.13,123.72H134.48a4,4,0,0,0,1,2.63,3.15,3.15,0,0,0,2.31.77,4.51,4.51,0,0,0,1.82-.42,2.64,2.64,0,0,0,1-1h5.35a7,7,0,0,1-1.89,3.22c-1.15,1.12-3,2.17-6.37,2.17a8.88,8.88,0,0,1-6.47-2.38,8.19,8.19,0,0,1-2.31-5.92,8.32,8.32,0,0,1,2.34-6,8.83,8.83,0,0,1,6.41-2.28,8.58,8.58,0,0,1,6,2.14,8.77,8.77,0,0,1,2.48,6.58ZM141,120.5a3.78,3.78,0,0,0-.91-1.68,3.29,3.29,0,0,0-2.31-.84,3,3,0,0,0-2.28.84,3.27,3.27,0,0,0-.84,1.68Z"/><path d="M149.35,114.87H155v2.55a5.06,5.06,0,0,1,2.21-2.17,6.15,6.15,0,0,1,2.9-.63c.14,0,.39,0,1.12.07V120a4.93,4.93,0,0,0-2.41-.56,3.66,3.66,0,0,0-2.56.84,4.72,4.72,0,0,0-1.26,3.57v6.68h-5.6Z"/><path d="M170.38,119.45v11.06h-5.6V119.45H163v-4.58h1.78v-5.15h5.6v5.15h3.19v4.58Z"/><path d="M178.47,105.21a3.15,3.15,0,1,1-3.15,3.15A3.14,3.14,0,0,1,178.47,105.21Zm2.8,9.66v15.64h-5.6V114.87Z"/><path d="M191.1,119.45v11.06h-5.6V119.45h-2v-4.58h2v-1.93c0-2.1.28-4.34,2.14-6.12a8.85,8.85,0,0,1,6.16-2.21,9.47,9.47,0,0,1,6.27,2.1,7.13,7.13,0,0,1,2,5.25v.81h-5.6v-.53a3.24,3.24,0,0,0-.7-2.1,2.91,2.91,0,0,0-2-.7,2.65,2.65,0,0,0-1.92.81,3.2,3.2,0,0,0-.74,2.41v2.21H195v4.58ZM202,114.87v15.64h-5.6V114.87Z"/><path d="M217.35,130.17a8.31,8.31,0,0,1-3.88.87,8.65,8.65,0,0,1-6.16-2.38,8.21,8.21,0,0,1-2.42-5.85,8.53,8.53,0,0,1,2.52-6,9,9,0,0,1,6.3-2.38,8,8,0,0,1,3.64.87v4.69a5,5,0,0,0-2.9-1,3.67,3.67,0,0,0-2.73,1.08,3.83,3.83,0,0,0-1.09,2.7,4,4,0,0,0,1,2.62,3.82,3.82,0,0,0,2.87,1.19,4.2,4.2,0,0,0,2.87-1Z"/><path d="M232.65,114.87h5.6v15.64h-5.6V128.8a5.87,5.87,0,0,1-4.87,2.24,7.47,7.47,0,0,1-5.63-2.49,7.86,7.86,0,0,1-2.24-5.74,8.64,8.64,0,0,1,2.41-6.26,8.07,8.07,0,0,1,5.64-2.21,6.22,6.22,0,0,1,4.69,2Zm-5.88,5.25a3.52,3.52,0,0,0,0,5.11,4,4,0,0,0,2.52,1,3.6,3.6,0,0,0,2.52-1.09,3.4,3.4,0,0,0,1-2.52,3.47,3.47,0,0,0-1.08-2.55,3.54,3.54,0,0,0-5,0Z"/><path d="M248.29,119.45v11.06h-5.6V119.45h-1.78v-4.58h1.78v-5.15h5.6v5.15h3.19v4.58Z"/><path d="M120.76,172.17a8.37,8.37,0,0,1-3.89.87,8.67,8.67,0,0,1-6.16-2.38,8.21,8.21,0,0,1-2.42-5.85,8.5,8.5,0,0,1,2.53-6.05,9,9,0,0,1,6.3-2.38,8,8,0,0,1,3.64.87v4.69a5.05,5.05,0,0,0-2.91-1,3.67,3.67,0,0,0-2.73,1.08,3.81,3.81,0,0,0-1.08,2.7,4,4,0,0,0,1,2.62,3.78,3.78,0,0,0,2.87,1.19,4.23,4.23,0,0,0,2.87-1.05Z"/><path d="M129.54,147v25.51h-5.6V147Z"/><path d="M136.16,147.21a3.15,3.15,0,1,1-3.16,3.15A3.14,3.14,0,0,1,136.16,147.21Zm2.8,9.66v15.64h-5.61V156.87Z"/><path d="M159.36,165.72H147.71a4,4,0,0,0,1,2.63,3.15,3.15,0,0,0,2.31.77,4.51,4.51,0,0,0,1.82-.42,2.64,2.64,0,0,0,1-1h5.35a7,7,0,0,1-1.89,3.22c-1.15,1.12-3,2.17-6.37,2.17a8.88,8.88,0,0,1-6.47-2.38,8.19,8.19,0,0,1-2.32-5.92,8.33,8.33,0,0,1,2.35-6.05,8.83,8.83,0,0,1,6.41-2.28,8.58,8.58,0,0,1,6,2.14,8.77,8.77,0,0,1,2.48,6.58Zm-5.14-3.22a3.78,3.78,0,0,0-.91-1.68A3.29,3.29,0,0,0,151,160a3,3,0,0,0-2.28.84,3.27,3.27,0,0,0-.84,1.68Z"/><path d="M162.58,156.87h5.6v2a5.91,5.91,0,0,1,5-2.31,6.3,6.3,0,0,1,4.62,1.68c1.33,1.33,1.47,2.66,1.47,4.37v9.94h-5.6V164.6c0-.91,0-2.27-.7-3a2.33,2.33,0,0,0-1.78-.67,3.08,3.08,0,0,0-2.07.74,3.58,3.58,0,0,0-.91,2.48v8.4h-5.6Z"/><path d="M189.25,161.45v11.06h-5.6V161.45h-1.79v-4.58h1.79v-5.15h5.6v5.15h3.19v4.58Z"/><circle cx="369.61" cy="265.97" r="17.47" style="fill:none;stroke:#f7931f;stroke-miterlimit:10;stroke-width:6.11437784099579px"/><rect x="297.98" y="302.65" width="72.49" height="5.24" rx="1.51" ry="1.51" transform="translate(-117.96 325.75) rotate(-45)" style="fill:#f7931f"/><rect x="316.76" y="321.43" width="3.49" height="14.85" rx="1.01" ry="1.01" transform="translate(-139.24 321.54) rotate(-45)" style="fill:#f7931f"/><rect x="323.2" y="315.69" width="3.49" height="18.23" rx="1.01" ry="1.01" transform="translate(-134.5 324.9) rotate(-45)" style="fill:#f7931f"/><rect x="328.88" y="310.01" width="3.49" height="18.23" rx="1.01" ry="1.01" transform="translate(-128.82 327.26) rotate(-45)" style="fill:#f7931f"/><line x1="336.09" y1="184.22" x2="387.98" y2="184.22" style="fill:none;stroke:#3a5c84;stroke-miterlimit:10;stroke-width:5px"/><line x1="336.09" y1="170.8" x2="387.98" y2="170.8" style="fill:none;stroke:#3a5c84;stroke-miterlimit:10;stroke-width:5px"/><line x1="336.09" y1="157.37" x2="387.98" y2="157.37" style="fill:none;stroke:#3a5c84;stroke-miterlimit:10;stroke-width:5px"/><line x1="336.09" y1="143.95" x2="387.98" y2="143.95" style="fill:none;stroke:#3a5c84;stroke-miterlimit:10;stroke-width:5px"/><line x1="336.09" y1="130.53" x2="357.51" y2="130.53" style="fill:none;stroke:#3a5c84;stroke-miterlimit:10;stroke-width:5px"/><path d="M385.26,125.7a7.26,7.26,0,0,1-7.24-7.24V104.89H333.08a7.26,7.26,0,0,0-7.24,7.24v76a7.26,7.26,0,0,0,7.24,7.24H391a7.26,7.26,0,0,0,7.24-7.24V125.7Z" style="fill:none;stroke:#3a5c84;stroke-miterlimit:10;stroke-width:5px"/><path d="M126.22,415.88A14.38,14.38,0,0,1,121,417a12.69,12.69,0,0,1-9-3.5A12.24,12.24,0,0,1,108.4,405a12.52,12.52,0,0,1,3.54-8.61,12.38,12.38,0,0,1,8.82-3.64,14.57,14.57,0,0,1,5.46,1.19v7.25a6.5,6.5,0,0,0-5.29-2.56,5.93,5.93,0,0,0-4.2,1.54,6.54,6.54,0,0,0-2,4.8,6.47,6.47,0,0,0,1.89,4.55,6.56,6.56,0,0,0,4.34,1.61,6.88,6.88,0,0,0,5.29-2.45Z"/><path d="M146.13,409.72H134.48a4,4,0,0,0,1,2.63,3.15,3.15,0,0,0,2.31.77,4.51,4.51,0,0,0,1.82-.42,2.64,2.64,0,0,0,1-1.05h5.35a7,7,0,0,1-1.89,3.22c-1.15,1.12-3,2.17-6.37,2.17a8.88,8.88,0,0,1-6.47-2.38,8.19,8.19,0,0,1-2.31-5.92,8.32,8.32,0,0,1,2.34-6.05,8.83,8.83,0,0,1,6.41-2.28,8.58,8.58,0,0,1,6,2.14,8.77,8.77,0,0,1,2.48,6.58ZM141,406.5a3.78,3.78,0,0,0-.91-1.68,3.29,3.29,0,0,0-2.31-.84,3,3,0,0,0-2.28.84,3.27,3.27,0,0,0-.84,1.68Z"/><path d="M149.35,400.87H155v2.55a5.06,5.06,0,0,1,2.21-2.17,6.15,6.15,0,0,1,2.9-.63c.14,0,.39,0,1.12.07V406a4.93,4.93,0,0,0-2.41-.56,3.66,3.66,0,0,0-2.56.84,4.72,4.72,0,0,0-1.26,3.57v6.68h-5.6Z"/><path d="M170.38,405.45v11.06h-5.6V405.45H163v-4.58h1.78v-5.15h5.6v5.15h3.19v4.58Z"/><path d="M178.47,391.21a3.15,3.15,0,1,1-3.15,3.15A3.14,3.14,0,0,1,178.47,391.21Zm2.8,9.66v15.64h-5.6V400.87Z"/><path d="M191.1,405.45v11.06h-5.6V405.45h-2v-4.58h2v-1.93c0-2.1.28-4.34,2.14-6.12a8.85,8.85,0,0,1,6.16-2.21,9.47,9.47,0,0,1,6.27,2.1,7.13,7.13,0,0,1,2,5.25v.81h-5.6v-.53a3.24,3.24,0,0,0-.7-2.1,2.91,2.91,0,0,0-2-.7,2.65,2.65,0,0,0-1.92.81,3.2,3.2,0,0,0-.74,2.41v2.21H195v4.58ZM202,400.87v15.64h-5.6V400.87Z"/><path d="M217.35,416.17a8.31,8.31,0,0,1-3.88.87,8.65,8.65,0,0,1-6.16-2.38,8.21,8.21,0,0,1-2.42-5.85,8.53,8.53,0,0,1,2.52-6.05,9,9,0,0,1,6.3-2.38,8,8,0,0,1,3.64.87v4.69a5,5,0,0,0-2.9-1,3.67,3.67,0,0,0-2.73,1.08,3.83,3.83,0,0,0-1.09,2.7,4,4,0,0,0,1,2.62,3.82,3.82,0,0,0,2.87,1.19,4.2,4.2,0,0,0,2.87-1Z"/><path d="M232.65,400.87h5.6v15.64h-5.6V414.8a5.87,5.87,0,0,1-4.87,2.24,7.47,7.47,0,0,1-5.63-2.49,7.86,7.86,0,0,1-2.24-5.74,8.64,8.64,0,0,1,2.41-6.26,8.07,8.07,0,0,1,5.64-2.21,6.22,6.22,0,0,1,4.69,2Zm-5.88,5.25a3.52,3.52,0,0,0,0,5.11,4,4,0,0,0,2.52,1,3.6,3.6,0,0,0,2.52-1.09,3.4,3.4,0,0,0,1-2.52,3.47,3.47,0,0,0-1.08-2.55,3.54,3.54,0,0,0-5,0Z"/><path d="M248.29,405.45v11.06h-5.6V405.45h-1.78v-4.58h1.78v-5.15h5.6v5.15h3.19v4.58Z"/><path d="M126.22,457.88A14.38,14.38,0,0,1,121,459a12.69,12.69,0,0,1-9-3.5A12.24,12.24,0,0,1,108.4,447a12.52,12.52,0,0,1,3.54-8.61,12.38,12.38,0,0,1,8.82-3.64,14.57,14.57,0,0,1,5.46,1.19v7.25a6.5,6.5,0,0,0-5.29-2.56,5.93,5.93,0,0,0-4.2,1.54,6.54,6.54,0,0,0-2,4.8,6.47,6.47,0,0,0,1.89,4.55,6.56,6.56,0,0,0,4.34,1.61,6.88,6.88,0,0,0,5.29-2.45Z"/><path d="M144.31,454.59h-8.47l-1.57,3.92h-6.41l9-23.34h6.62l8.78,23.34h-6.47ZM142.7,450l-2.62-7.56L137.52,450Z"/><line x1="336.09" y1="470.22" x2="387.98" y2="470.22" style="fill:none;stroke:#c13018;stroke-miterlimit:10;stroke-width:5px"/><line x1="336.09" y1="456.8" x2="387.98" y2="456.8" style="fill:none;stroke:#c13018;stroke-miterlimit:10;stroke-width:5px"/><line x1="336.09" y1="443.37" x2="387.98" y2="443.37" style="fill:none;stroke:#c13018;stroke-miterlimit:10;stroke-width:5px"/><line x1="336.09" y1="429.95" x2="387.98" y2="429.95" style="fill:none;stroke:#c13018;stroke-miterlimit:10;stroke-width:5px"/><line x1="336.09" y1="416.53" x2="357.51" y2="416.53" style="fill:none;stroke:#c13018;stroke-miterlimit:10;stroke-width:5px"/><path d="M385.26,411.7a7.26,7.26,0,0,1-7.24-7.24V390.89H333.08a7.26,7.26,0,0,0-7.24,7.24v76a7.26,7.26,0,0,0,7.24,7.24H391a7.26,7.26,0,0,0,7.24-7.24V411.7Z" style="fill:none;stroke:#c13018;stroke-miterlimit:10;stroke-width:5px"/><path d="M1128,682.51a8.18,8.18,0,0,0,5.36,2.38,3.06,3.06,0,0,0,2.34-.8,2.1,2.1,0,0,0,.6-1.47,1.82,1.82,0,0,0-.67-1.4,8.31,8.31,0,0,0-3-1.23l-1.57-.49a7.55,7.55,0,0,1-3.36-1.89,5.87,5.87,0,0,1-1.33-4.13,7.63,7.63,0,0,1,2.13-5.63,8.24,8.24,0,0,1,6-2.21,16.48,16.48,0,0,1,7.21,1.89l-2.42,4.73a6.14,6.14,0,0,0-4-1.58,2.9,2.9,0,0,0-2,.7,1.74,1.74,0,0,0-.6,1.26,1.53,1.53,0,0,0,.32,1.05,3.78,3.78,0,0,0,2,1l1.85.56a9,9,0,0,1,4.24,2.31,5.52,5.52,0,0,1,1.5,4.17,7.91,7.91,0,0,1-2.2,5.88c-2,2-4.41,2.38-6.9,2.38a12.44,12.44,0,0,1-4.58-.77,16,16,0,0,1-3.54-1.86Z"/><path d="M1162.5,682.72h-11.65a4,4,0,0,0,1,2.63,3.15,3.15,0,0,0,2.31.77,4.51,4.51,0,0,0,1.82-.42,2.64,2.64,0,0,0,1-1.05h5.35a7,7,0,0,1-1.89,3.22c-1.15,1.12-3,2.17-6.37,2.17a8.88,8.88,0,0,1-6.47-2.38,8.19,8.19,0,0,1-2.31-5.92,8.36,8.36,0,0,1,2.34-6,8.83,8.83,0,0,1,6.41-2.28,8.58,8.58,0,0,1,6,2.14,8.77,8.77,0,0,1,2.48,6.58Zm-5.14-3.22a3.78,3.78,0,0,0-.91-1.68,3.29,3.29,0,0,0-2.31-.84,3,3,0,0,0-2.28.84,3.27,3.27,0,0,0-.84,1.68Z"/><path d="M1165.72,673.87h5.6v2.55a5.06,5.06,0,0,1,2.21-2.17,6.15,6.15,0,0,1,2.9-.63c.14,0,.39,0,1.12.07V679a4.93,4.93,0,0,0-2.41-.56,3.66,3.66,0,0,0-2.56.84,4.72,4.72,0,0,0-1.26,3.57v6.68h-5.6Z"/><path d="M1184.38,673.87l3.74,8,3.82-8h6.23L1190,689.51h-3.81l-8.09-15.64Z"/><path d="M1215.81,682.72h-11.66a4,4,0,0,0,1,2.63,3.15,3.15,0,0,0,2.31.77,4.51,4.51,0,0,0,1.82-.42,2.57,2.57,0,0,0,1-1.05h5.36a7.15,7.15,0,0,1-1.89,3.22c-1.16,1.12-3,2.17-6.38,2.17a8.88,8.88,0,0,1-6.47-2.38,8.19,8.19,0,0,1-2.31-5.92,8.36,8.36,0,0,1,2.34-6,8.83,8.83,0,0,1,6.41-2.28,8.57,8.57,0,0,1,6,2.14,8.75,8.75,0,0,1,2.49,6.58Zm-5.15-3.22a3.78,3.78,0,0,0-.91-1.68,3.28,3.28,0,0,0-2.31-.84,3,3,0,0,0-2.27.84,3.2,3.2,0,0,0-.85,1.68Z"/><path d="M1219,673.87h5.6v2.55a5.06,5.06,0,0,1,2.21-2.17,6.17,6.17,0,0,1,2.9-.63c.15,0,.39,0,1.12.07V679a4.86,4.86,0,0,0-2.41-.56,3.66,3.66,0,0,0-2.56.84,4.72,4.72,0,0,0-1.26,3.57v6.68H1219Z"/><rect x="979" y="54" width="395" height="592" rx="12" ry="12" style="fill:none;stroke:#91c54f;stroke-miterlimit:10;stroke-width:7px"/><path d="M1025.22,272.88A14.38,14.38,0,0,1,1020,274a12.69,12.69,0,0,1-9-3.5,12.24,12.24,0,0,1-3.54-8.51,12.52,12.52,0,0,1,3.54-8.61,12.38,12.38,0,0,1,8.82-3.64,14.57,14.57,0,0,1,5.46,1.19v7.25a6.5,6.5,0,0,0-5.29-2.56,5.93,5.93,0,0,0-4.2,1.54,6.54,6.54,0,0,0-2,4.8,6.47,6.47,0,0,0,1.89,4.55,6.56,6.56,0,0,0,4.34,1.61,6.88,6.88,0,0,0,5.29-2.45Z"/><path d="M1028.54,248h5.6v11.83a6.73,6.73,0,0,1,1.75-1.54,6.31,6.31,0,0,1,3.22-.77,6.22,6.22,0,0,1,4.62,1.68,5.45,5.45,0,0,1,1.47,4.37v9.94h-5.6V265.6a4.65,4.65,0,0,0-.7-3,2.19,2.19,0,0,0-1.78-.67,3,3,0,0,0-2,.67,3.39,3.39,0,0,0-.95,2.55v8.4h-5.6Z"/><path d="M1064.91,266.72h-11.66a4,4,0,0,0,1,2.63,3.15,3.15,0,0,0,2.31.77,4.51,4.51,0,0,0,1.82-.42,2.57,2.57,0,0,0,1-1.05h5.36a7.15,7.15,0,0,1-1.89,3.22c-1.16,1.12-3,2.17-6.37,2.17a8.9,8.9,0,0,1-6.48-2.38,8.19,8.19,0,0,1-2.31-5.92,8.33,8.33,0,0,1,2.35-6.05,8.79,8.79,0,0,1,6.4-2.28,8.57,8.57,0,0,1,6,2.14,8.75,8.75,0,0,1,2.49,6.58Zm-5.15-3.22a3.78,3.78,0,0,0-.91-1.68,3.28,3.28,0,0,0-2.31-.84,3,3,0,0,0-2.27.84,3.12,3.12,0,0,0-.84,1.68Z"/><path d="M1070.92,248.21a3.15,3.15,0,1,1-3.15,3.15A3.15,3.15,0,0,1,1070.92,248.21Zm2.81,9.66v15.64h-5.61V257.87Z"/><path d="M1094.13,266.72h-11.65a4,4,0,0,0,1,2.63,3.15,3.15,0,0,0,2.31.77,4.51,4.51,0,0,0,1.82-.42,2.64,2.64,0,0,0,1-1.05h5.35a7,7,0,0,1-1.89,3.22c-1.15,1.12-3,2.17-6.37,2.17a8.92,8.92,0,0,1-6.48-2.38,8.23,8.23,0,0,1-2.31-5.92,8.33,8.33,0,0,1,2.35-6.05,8.8,8.8,0,0,1,6.41-2.28,8.58,8.58,0,0,1,6,2.14,8.77,8.77,0,0,1,2.48,6.58ZM1089,263.5a3.78,3.78,0,0,0-.91-1.68,3.29,3.29,0,0,0-2.31-.84,3,3,0,0,0-2.28.84,3.12,3.12,0,0,0-.84,1.68Z"/><path d="M1013.53,323.53h-5.6V299.87h5.6v1.71a5.85,5.85,0,0,1,4.79-2.24,7.78,7.78,0,0,1,5.57,2.28,8.88,8.88,0,0,1-.14,12.25,7.54,7.54,0,0,1-5.36,2.17,6.66,6.66,0,0,1-4.86-2Zm.91-18.38a3.83,3.83,0,0,0-1.09,2.59,3.78,3.78,0,0,0,1.09,2.49,3.58,3.58,0,0,0,2.52,1,3.39,3.39,0,0,0,2.48-1,3.7,3.7,0,0,0,1.09-2.49,3.83,3.83,0,0,0-1.09-2.59,3.39,3.39,0,0,0-2.48-1A3.58,3.58,0,0,0,1014.44,305.15Z"/><path d="M1029.49,299.87h5.6v2.55a5,5,0,0,1,2.2-2.17,6.19,6.19,0,0,1,2.91-.63c.14,0,.38,0,1.12.07V305a5,5,0,0,0-2.42-.56,3.63,3.63,0,0,0-2.55.84,4.72,4.72,0,0,0-1.26,3.57v6.68h-5.6Z"/><path d="M1046.6,290.21a3.15,3.15,0,1,1-3.15,3.15A3.14,3.14,0,0,1,1046.6,290.21Zm2.8,9.66v15.64h-5.6V299.87Z"/><path d="M1057.56,299.87l3.74,8,3.82-8h6.23l-8.16,15.64h-3.81l-8.09-15.64Z"/><path d="M1085.38,299.87h5.6v15.64h-5.6V313.8a5.84,5.84,0,0,1-4.86,2.24,7.49,7.49,0,0,1-5.64-2.49,7.9,7.9,0,0,1-2.24-5.74,8.6,8.6,0,0,1,2.42-6.26,8,8,0,0,1,5.63-2.21,6.2,6.2,0,0,1,4.69,2Zm-5.88,5.25a3.51,3.51,0,0,0,0,5.11,3.91,3.91,0,0,0,2.52,1,3.6,3.6,0,0,0,2.52-1.09,3.4,3.4,0,0,0,1-2.52,3.45,3.45,0,0,0-1.09-2.55,3.54,3.54,0,0,0-5,0Z"/><path d="M1101,304.45v11.06h-5.61V304.45h-1.78v-4.58h1.78v-5.15H1101v5.15h3.18v4.58Z"/><path d="M1118.42,299.87h5.6v15.64h-5.6V313.8a5.84,5.84,0,0,1-4.86,2.24,7.49,7.49,0,0,1-5.64-2.49,7.86,7.86,0,0,1-2.24-5.74,8.64,8.64,0,0,1,2.41-6.26,8.07,8.07,0,0,1,5.64-2.21,6.2,6.2,0,0,1,4.69,2Zm3.08-8.05a5.46,5.46,0,0,1-1.54,3.81,7.34,7.34,0,0,1-9.1,0,5.46,5.46,0,0,1-1.54-3.81h3.61a2.4,2.4,0,0,0,.7,1.43,2.84,2.84,0,0,0,3.57,0,2.4,2.4,0,0,0,.7-1.43Zm-9,13.3a3.52,3.52,0,0,0,0,5.11,4,4,0,0,0,2.53,1,3.6,3.6,0,0,0,2.52-1.09,3.4,3.4,0,0,0,1-2.52,3.45,3.45,0,0,0-1.09-2.55,3.54,3.54,0,0,0-5,0Z"/><path d="M1029.22,129.88A14.38,14.38,0,0,1,1024,131a12.69,12.69,0,0,1-9-3.5,12.24,12.24,0,0,1-3.54-8.51,12.52,12.52,0,0,1,3.54-8.61,12.38,12.38,0,0,1,8.82-3.64,14.57,14.57,0,0,1,5.46,1.19v7.25a6.5,6.5,0,0,0-5.29-2.56,5.93,5.93,0,0,0-4.2,1.54,6.54,6.54,0,0,0-2,4.8,6.47,6.47,0,0,0,1.89,4.55,6.56,6.56,0,0,0,4.34,1.61,6.88,6.88,0,0,0,5.29-2.45Z"/><path d="M1049.13,123.72h-11.65a4,4,0,0,0,1,2.63,3.15,3.15,0,0,0,2.31.77,4.51,4.51,0,0,0,1.82-.42,2.64,2.64,0,0,0,1-1h5.35a7,7,0,0,1-1.89,3.22c-1.15,1.12-3,2.17-6.37,2.17a8.88,8.88,0,0,1-6.47-2.38,8.19,8.19,0,0,1-2.31-5.92,8.32,8.32,0,0,1,2.34-6,8.83,8.83,0,0,1,6.41-2.28,8.58,8.58,0,0,1,6,2.14,8.77,8.77,0,0,1,2.48,6.58ZM1044,120.5a3.78,3.78,0,0,0-.91-1.68,3.29,3.29,0,0,0-2.31-.84,3,3,0,0,0-2.28.84,3.27,3.27,0,0,0-.84,1.68Z"/><path d="M1052.35,114.87h5.6v2.55a5.06,5.06,0,0,1,2.21-2.17,6.15,6.15,0,0,1,2.9-.63c.14,0,.39,0,1.12.07V120a4.93,4.93,0,0,0-2.41-.56,3.66,3.66,0,0,0-2.56.84,4.72,4.72,0,0,0-1.26,3.57v6.68h-5.6Z"/><path d="M1073.38,119.45v11.06h-5.6V119.45H1066v-4.58h1.78v-5.15h5.6v5.15h3.19v4.58Z"/><path d="M1081.47,105.21a3.15,3.15,0,1,1-3.15,3.15A3.14,3.14,0,0,1,1081.47,105.21Zm2.8,9.66v15.64h-5.6V114.87Z"/><path d="M1094.1,119.45v11.06h-5.6V119.45h-2v-4.58h2v-1.93c0-2.1.28-4.34,2.14-6.12a8.85,8.85,0,0,1,6.16-2.21,9.47,9.47,0,0,1,6.27,2.1,7.13,7.13,0,0,1,2,5.25v.81h-5.6v-.53a3.24,3.24,0,0,0-.7-2.1,2.91,2.91,0,0,0-2-.7,2.65,2.65,0,0,0-1.92.81,3.2,3.2,0,0,0-.74,2.41v2.21H1098v4.58Zm10.93-4.58v15.64h-5.6V114.87Z"/><path d="M1120.35,130.17a8.31,8.31,0,0,1-3.88.87,8.65,8.65,0,0,1-6.16-2.38,8.21,8.21,0,0,1-2.42-5.85,8.53,8.53,0,0,1,2.52-6,9,9,0,0,1,6.3-2.38,8,8,0,0,1,3.64.87v4.69a5,5,0,0,0-2.9-1,3.67,3.67,0,0,0-2.73,1.08,3.83,3.83,0,0,0-1.09,2.7,4,4,0,0,0,1,2.62,3.82,3.82,0,0,0,2.87,1.19,4.2,4.2,0,0,0,2.87-1Z"/><path d="M1135.65,114.87h5.6v15.64h-5.6V128.8a5.87,5.87,0,0,1-4.87,2.24,7.47,7.47,0,0,1-5.63-2.49,7.86,7.86,0,0,1-2.24-5.74,8.64,8.64,0,0,1,2.41-6.26,8.07,8.07,0,0,1,5.64-2.21,6.22,6.22,0,0,1,4.69,2Zm-5.88,5.25a3.52,3.52,0,0,0,0,5.11,4,4,0,0,0,2.52,1,3.6,3.6,0,0,0,2.52-1.09,3.4,3.4,0,0,0,1-2.52,3.47,3.47,0,0,0-1.08-2.55,3.54,3.54,0,0,0-5,0Z"/><path d="M1151.29,119.45v11.06h-5.6V119.45h-1.78v-4.58h1.78v-5.15h5.6v5.15h3.19v4.58Z"/><path d="M1012.94,167.33a8.23,8.23,0,0,0,2.24,1.16,7.46,7.46,0,0,0,2.17.38,2.36,2.36,0,0,0,1.44-.42.9.9,0,0,0,.28-.73.84.84,0,0,0-.28-.7,3.43,3.43,0,0,0-1.47-.56l-1.47-.35a5.08,5.08,0,0,1-2.73-1.37,3.75,3.75,0,0,1-1-2.69,5.62,5.62,0,0,1,1.47-3.82,7.92,7.92,0,0,1,5.6-1.89,12.83,12.83,0,0,1,5,1l-1.89,3.57a7.77,7.77,0,0,0-2.94-.77,2.38,2.38,0,0,0-1.3.31.85.85,0,0,0-.49.77.92.92,0,0,0,.67.88c.52.21,1,.21,1.85.45l1,.28a6.63,6.63,0,0,1,2.31,1.23,4.41,4.41,0,0,1,1.19,3.11,5.25,5.25,0,0,1-1.58,3.89c-1.82,1.82-4.48,2-5.77,2a11.58,11.58,0,0,1-6.3-1.82Z"/><path d="M1044.06,165.72H1032.4a4,4,0,0,0,1,2.63,3.15,3.15,0,0,0,2.31.77,4.51,4.51,0,0,0,1.82-.42,2.57,2.57,0,0,0,1-1h5.36a7.15,7.15,0,0,1-1.89,3.22c-1.16,1.12-3,2.17-6.37,2.17a8.9,8.9,0,0,1-6.48-2.38,8.19,8.19,0,0,1-2.31-5.92,8.33,8.33,0,0,1,2.35-6.05,8.79,8.79,0,0,1,6.4-2.28,8.57,8.57,0,0,1,6,2.14,8.75,8.75,0,0,1,2.49,6.58Zm-5.15-3.22a3.78,3.78,0,0,0-.91-1.68,3.28,3.28,0,0,0-2.31-.84,3,3,0,0,0-2.27.84,3.12,3.12,0,0,0-.84,1.68Z"/><path d="M1047.27,156.87h5.61v2.55a5,5,0,0,1,2.2-2.17,6.19,6.19,0,0,1,2.91-.63c.14,0,.38,0,1.12.07V162a5,5,0,0,0-2.42-.56,3.63,3.63,0,0,0-2.55.84,4.68,4.68,0,0,0-1.26,3.57v6.68h-5.61Z"/><path d="M1065.93,156.87l3.75,8,3.81-8h6.23l-8.15,15.64h-3.82l-8.09-15.64Z"/><path d="M1097.36,165.72H1085.7a4,4,0,0,0,1,2.63,3.15,3.15,0,0,0,2.31.77,4.51,4.51,0,0,0,1.82-.42,2.51,2.51,0,0,0,1-1h5.36a7,7,0,0,1-1.89,3.22c-1.15,1.12-3,2.17-6.37,2.17a8.9,8.9,0,0,1-6.48-2.38,8.23,8.23,0,0,1-2.31-5.92,8.33,8.33,0,0,1,2.35-6.05,8.79,8.79,0,0,1,6.4-2.28,8.61,8.61,0,0,1,6,2.14,8.77,8.77,0,0,1,2.48,6.58Zm-5.14-3.22a3.78,3.78,0,0,0-.91-1.68A3.31,3.31,0,0,0,1089,160a3,3,0,0,0-2.27.84,3.12,3.12,0,0,0-.84,1.68Z"/><path d="M1100.58,156.87h5.6v2.55a5,5,0,0,1,2.2-2.17,6.19,6.19,0,0,1,2.91-.63c.14,0,.38,0,1.12.07V162a5,5,0,0,0-2.42-.56,3.63,3.63,0,0,0-2.55.84,4.72,4.72,0,0,0-1.26,3.57v6.68h-5.6Z"/><path d="M1029.22,415.88A14.38,14.38,0,0,1,1024,417a12.69,12.69,0,0,1-9-3.5,12.24,12.24,0,0,1-3.54-8.51,12.52,12.52,0,0,1,3.54-8.61,12.38,12.38,0,0,1,8.82-3.64,14.57,14.57,0,0,1,5.46,1.19v7.25a6.5,6.5,0,0,0-5.29-2.56,5.93,5.93,0,0,0-4.2,1.54,6.54,6.54,0,0,0-2,4.8,6.47,6.47,0,0,0,1.89,4.55,6.56,6.56,0,0,0,4.34,1.61,6.88,6.88,0,0,0,5.29-2.45Z"/><path d="M1049.13,409.72h-11.65a4,4,0,0,0,1,2.63,3.15,3.15,0,0,0,2.31.77,4.51,4.51,0,0,0,1.82-.42,2.64,2.64,0,0,0,1-1.05h5.35a7,7,0,0,1-1.89,3.22c-1.15,1.12-3,2.17-6.37,2.17a8.88,8.88,0,0,1-6.47-2.38,8.19,8.19,0,0,1-2.31-5.92,8.32,8.32,0,0,1,2.34-6.05,8.83,8.83,0,0,1,6.41-2.28,8.58,8.58,0,0,1,6,2.14,8.77,8.77,0,0,1,2.48,6.58ZM1044,406.5a3.78,3.78,0,0,0-.91-1.68,3.29,3.29,0,0,0-2.31-.84,3,3,0,0,0-2.28.84,3.27,3.27,0,0,0-.84,1.68Z"/><path d="M1052.35,400.87h5.6v2.55a5.06,5.06,0,0,1,2.21-2.17,6.15,6.15,0,0,1,2.9-.63c.14,0,.39,0,1.12.07V406a4.93,4.93,0,0,0-2.41-.56,3.66,3.66,0,0,0-2.56.84,4.72,4.72,0,0,0-1.26,3.57v6.68h-5.6Z"/><path d="M1073.38,405.45v11.06h-5.6V405.45H1066v-4.58h1.78v-5.15h5.6v5.15h3.19v4.58Z"/><path d="M1081.47,391.21a3.15,3.15,0,1,1-3.15,3.15A3.14,3.14,0,0,1,1081.47,391.21Zm2.8,9.66v15.64h-5.6V400.87Z"/><path d="M1094.1,405.45v11.06h-5.6V405.45h-2v-4.58h2v-1.93c0-2.1.28-4.34,2.14-6.12a8.85,8.85,0,0,1,6.16-2.21,9.47,9.47,0,0,1,6.27,2.1,7.13,7.13,0,0,1,2,5.25v.81h-5.6v-.53a3.24,3.24,0,0,0-.7-2.1,2.91,2.91,0,0,0-2-.7,2.65,2.65,0,0,0-1.92.81,3.2,3.2,0,0,0-.74,2.41v2.21H1098v4.58Zm10.93-4.58v15.64h-5.6V400.87Z"/><path d="M1120.35,416.17a8.31,8.31,0,0,1-3.88.87,8.65,8.65,0,0,1-6.16-2.38,8.21,8.21,0,0,1-2.42-5.85,8.53,8.53,0,0,1,2.52-6.05,9,9,0,0,1,6.3-2.38,8,8,0,0,1,3.64.87v4.69a5,5,0,0,0-2.9-1,3.67,3.67,0,0,0-2.73,1.08,3.83,3.83,0,0,0-1.09,2.7,4,4,0,0,0,1,2.62,3.82,3.82,0,0,0,2.87,1.19,4.2,4.2,0,0,0,2.87-1Z"/><path d="M1135.65,400.87h5.6v15.64h-5.6V414.8a5.87,5.87,0,0,1-4.87,2.24,7.47,7.47,0,0,1-5.63-2.49,7.86,7.86,0,0,1-2.24-5.74,8.64,8.64,0,0,1,2.41-6.26,8.07,8.07,0,0,1,5.64-2.21,6.22,6.22,0,0,1,4.69,2Zm-5.88,5.25a3.52,3.52,0,0,0,0,5.11,4,4,0,0,0,2.52,1,3.6,3.6,0,0,0,2.52-1.09,3.4,3.4,0,0,0,1-2.52,3.47,3.47,0,0,0-1.08-2.55,3.54,3.54,0,0,0-5,0Z"/><path d="M1151.29,405.45v11.06h-5.6V405.45h-1.78v-4.58h1.78v-5.15h5.6v5.15h3.19v4.58Z"/><path d="M1029.22,457.88A14.38,14.38,0,0,1,1024,459a12.69,12.69,0,0,1-9-3.5,12.24,12.24,0,0,1-3.54-8.51,12.52,12.52,0,0,1,3.54-8.61,12.38,12.38,0,0,1,8.82-3.64,14.57,14.57,0,0,1,5.46,1.19v7.25a6.5,6.5,0,0,0-5.29-2.56,5.93,5.93,0,0,0-4.2,1.54,6.54,6.54,0,0,0-2,4.8,6.47,6.47,0,0,0,1.89,4.55,6.56,6.56,0,0,0,4.34,1.61,6.88,6.88,0,0,0,5.29-2.45Z"/><path d="M1047.31,454.59h-8.47l-1.57,3.92h-6.41l9-23.34h6.62l8.78,23.34h-6.47ZM1045.7,450l-2.62-7.56-2.56,7.56Z"/><line x1="1239.09" y1="470.22" x2="1290.98" y2="470.22" style="fill:none;stroke:#c13018;stroke-miterlimit:10;stroke-width:5px"/><line x1="1239.09" y1="456.8" x2="1290.98" y2="456.8" style="fill:none;stroke:#c13018;stroke-miterlimit:10;stroke-width:5px"/><line x1="1239.09" y1="443.37" x2="1290.98" y2="443.37" style="fill:none;stroke:#c13018;stroke-miterlimit:10;stroke-width:5px"/><line x1="1239.09" y1="429.95" x2="1290.98" y2="429.95" style="fill:none;stroke:#c13018;stroke-miterlimit:10;stroke-width:5px"/><line x1="1239.09" y1="416.53" x2="1260.51" y2="416.53" style="fill:none;stroke:#c13018;stroke-miterlimit:10;stroke-width:5px"/><path d="M1288.26,411.7a7.26,7.26,0,0,1-7.24-7.24V390.89h-44.94a7.26,7.26,0,0,0-7.24,7.24v76a7.26,7.26,0,0,0,7.24,7.24H1294a7.26,7.26,0,0,0,7.24-7.24V411.7Z" style="fill:none;stroke:#c13018;stroke-miterlimit:10;stroke-width:5px"/><path d="M389,176.11a12,12,0,1,0,12,12A12,12,0,0,0,389,176.11Z" style="fill:#f7931f"/><path d="M405,193.35l-2.33-5.21,2.33-5.21-4.95-2.84-1.17-5.59-5.68.61L389,171.28l-4.24,3.83-5.67-.61-1.18,5.59-4.95,2.84,2.34,5.21-2.34,5.21,4.95,2.84.64,3-5.28,11.22,5.51.08,3.57,4.2,5.2-11L389,205l1.45-1.32,5.19,11,3.57-4.2,5.52-.08-5.29-11.22.64-3Zm-16,5a10.24,10.24,0,1,1,10.24-10.24A10.25,10.25,0,0,1,389,198.38Z" style="fill:#f7931f"/><rect x="1105.34" y="589.58" width="154.27" height="31.42" rx="6.03" ry="6.03" style="fill:none;stroke:#91c54f;stroke-miterlimit:10;stroke-width:7.04546809196472px"/><circle cx="1122.48" cy="601" r="2.86" style="fill:#91c54f"/><circle cx="1130.67" cy="601" r="2.86" style="fill:#91c54f"/><circle cx="1122.48" cy="609.57" r="2.86" style="fill:#91c54f"/><circle cx="1130.67" cy="609.57" r="2.86" style="fill:#91c54f"/><rect x="1205.32" y="602.43" width="44.28" height="4.29" rx="0.82" ry="0.82" style="fill:none;stroke:#91c54f;stroke-miterlimit:10;stroke-width:5px"/><rect x="1105.34" y="554.35" width="154.27" height="31.42" rx="6.03" ry="6.03" style="fill:none;stroke:#91c54f;stroke-miterlimit:10;stroke-width:7.04546809196472px"/><circle cx="1122.48" cy="565.78" r="2.86" style="fill:#91c54f"/><circle cx="1130.67" cy="565.78" r="2.86" style="fill:#91c54f"/><circle cx="1122.48" cy="574.35" r="2.86" style="fill:#91c54f"/><circle cx="1130.67" cy="574.35" r="2.86" style="fill:#91c54f"/><rect x="1205.32" y="567.2" width="44.28" height="4.29" rx="0.82" ry="0.82" style="fill:none;stroke:#91c54f;stroke-miterlimit:10;stroke-width:5px"/><rect x="1105.34" y="516.3" width="154.27" height="31.42" rx="6.03" ry="6.03" style="fill:none;stroke:#91c54f;stroke-miterlimit:10;stroke-width:7.04546809196472px"/><circle cx="1122.48" cy="527.73" r="2.86" style="fill:#91c54f"/><circle cx="1130.67" cy="527.73" r="2.86" style="fill:#91c54f"/><circle cx="1122.48" cy="536.3" r="2.86" style="fill:#91c54f"/><circle cx="1130.67" cy="536.3" r="2.86" style="fill:#91c54f"/><rect x="1205.32" y="529.16" width="44.28" height="4.29" rx="0.82" ry="0.82" style="fill:none;stroke:#91c54f;stroke-miterlimit:10;stroke-width:5px"/><circle cx="1271.61" cy="265.97" r="17.47" style="fill:none;stroke:#636868;stroke-miterlimit:10;stroke-width:6px"/><rect x="1199.98" y="302.65" width="72.49" height="5.24" rx="1.51" ry="1.51" transform="translate(146.23 963.56) rotate(-45)" style="fill:#636868"/><rect x="1218.76" y="321.43" width="3.49" height="14.85" rx="1.01" ry="1.01" transform="translate(124.95 959.35) rotate(-45)" style="fill:#636868"/><rect x="1225.2" y="315.69" width="3.49" height="18.23" rx="1.01" ry="1.01" transform="translate(129.69 962.71) rotate(-45)" style="fill:#636868"/><rect x="1230.88" y="310.01" width="3.49" height="18.23" rx="1.01" ry="1.01" transform="translate(135.37 965.07) rotate(-45)" style="fill:#636868"/><line x1="1239.09" y1="184.22" x2="1290.98" y2="184.22" style="fill:none;stroke:#91c54f;stroke-miterlimit:10;stroke-width:5px"/><line x1="1239.09" y1="170.8" x2="1290.98" y2="170.8" style="fill:none;stroke:#91c54f;stroke-miterlimit:10;stroke-width:5px"/><line x1="1239.09" y1="157.37" x2="1290.98" y2="157.37" style="fill:none;stroke:#91c54f;stroke-miterlimit:10;stroke-width:5px"/><line x1="1239.09" y1="143.95" x2="1290.98" y2="143.95" style="fill:none;stroke:#91c54f;stroke-miterlimit:10;stroke-width:5px"/><line x1="1239.09" y1="130.53" x2="1260.51" y2="130.53" style="fill:none;stroke:#91c54f;stroke-miterlimit:10;stroke-width:5px"/><path d="M1288.26,125.7a7.26,7.26,0,0,1-7.24-7.24V104.89h-44.94a7.26,7.26,0,0,0-7.24,7.24v76a7.26,7.26,0,0,0,7.24,7.24H1294a7.26,7.26,0,0,0,7.24-7.24V125.7Z" style="fill:none;stroke:#91c54f;stroke-miterlimit:10;stroke-width:5px"/><path d="M1292,170.11a11,11,0,1,0,11,11A11,11,0,0,0,1292,170.11Z" style="fill:#f7931f"/><path d="M1308,186.35l-2.33-5.21,2.33-5.21-5-2.84-1.17-5.59-5.68.61-4.23-3.83-4.24,3.83-5.67-.61-1.18,5.59-5,2.84,2.34,5.21-2.34,5.21,5,2.84.64,3-5.28,11.22,5.51.08,3.57,4.2,5.2-11L1292,198l1.45-1.32,5.19,11,3.57-4.2,5.52-.08-5.29-11.22.64-3Zm-16,5a10.24,10.24,0,1,1,10.24-10.24A10.25,10.25,0,0,1,1292,191.38Z" style="fill:#f7931f"/><polygon points="660.13 249.85 758.28 249.85 758.28 264 788.34 233.94 758.28 203.87 758.28 218.02 660.13 218.02 660.13 249.85" style="fill:none;stroke:#3a5c84;stroke-miterlimit:10;stroke-width:7px"/><polygon points="780.34 456.02 682.19 456.02 682.19 441.87 652.13 471.94 682.19 502 682.19 487.85 780.34 487.85 780.34 456.02" style="fill:none;stroke:#91c54f;stroke-miterlimit:10;stroke-width:7px"/><path d="M579,140.51l6.61-7.87a6.24,6.24,0,0,1-3.11.73,7.28,7.28,0,0,1-5.36-2.13,7.75,7.75,0,0,1-2.34-5.64,8.62,8.62,0,0,1,2.34-6,10.27,10.27,0,0,1,7.67-2.94,10.15,10.15,0,0,1,7.49,2.77,8.29,8.29,0,0,1,2.31,5.77c0,3.54-2.14,6.76-3.54,8.58l-5.21,6.75Zm3.18-17.95a3.86,3.86,0,0,0-1.15,2.66,3.61,3.61,0,0,0,1.12,2.52,4.11,4.11,0,0,0,2.73,1,4,4,0,0,0,2.62-1,3.52,3.52,0,0,0,.11-5.25,4.13,4.13,0,0,0-2.73-1.12A3.76,3.76,0,0,0,582.13,122.56Z"/><path d="M597.22,140.09a3.52,3.52,0,0,1-1.09-2.55,3.57,3.57,0,0,1,1.09-2.56,3.53,3.53,0,0,1,2.55-1.08,3.67,3.67,0,0,1,2.59,1.12,3.32,3.32,0,0,1,1,2.52,3.38,3.38,0,0,1-1,2.55,3.59,3.59,0,0,1-2.56,1.09A3.55,3.55,0,0,1,597.22,140.09Z"/><path d="M632.43,139.88a14.38,14.38,0,0,1-5.25,1.16,12.69,12.69,0,0,1-9-3.5,12.24,12.24,0,0,1-3.54-8.51,12.52,12.52,0,0,1,3.54-8.61,12.38,12.38,0,0,1,8.82-3.64,14.57,14.57,0,0,1,5.46,1.19v7.25a6.5,6.5,0,0,0-5.29-2.56,5.93,5.93,0,0,0-4.2,1.54,6.54,6.54,0,0,0-2,4.8,6.47,6.47,0,0,0,1.89,4.55,6.56,6.56,0,0,0,4.34,1.61,6.88,6.88,0,0,0,5.29-2.45Z"/><path d="M641.35,115v25.51h-5.6V115Z"/><path d="M648,115.21a3.15,3.15,0,1,1-3.15,3.15A3.14,3.14,0,0,1,648,115.21Zm2.8,9.66v15.64h-5.6V124.87Z"/><path d="M671.17,133.72H659.52a4,4,0,0,0,1,2.63,3.15,3.15,0,0,0,2.31.77,4.51,4.51,0,0,0,1.82-.42,2.64,2.64,0,0,0,1-1H671a7,7,0,0,1-1.89,3.22c-1.15,1.12-3,2.17-6.37,2.17a8.88,8.88,0,0,1-6.47-2.38,8.19,8.19,0,0,1-2.31-5.92,8.36,8.36,0,0,1,2.34-6.05,8.83,8.83,0,0,1,6.41-2.28,8.58,8.58,0,0,1,6,2.14,8.77,8.77,0,0,1,2.48,6.58ZM666,130.5a3.78,3.78,0,0,0-.91-1.68,3.29,3.29,0,0,0-2.31-.84,3,3,0,0,0-2.28.84,3.27,3.27,0,0,0-.84,1.68Z"/><path d="M674.39,124.87H680v2a5.91,5.91,0,0,1,5-2.31,6.3,6.3,0,0,1,4.62,1.68c1.33,1.33,1.47,2.66,1.47,4.37v9.94h-5.6V132.6c0-.91,0-2.27-.7-3a2.33,2.33,0,0,0-1.78-.67,3.08,3.08,0,0,0-2.07.74,3.58,3.58,0,0,0-.91,2.48v8.4h-5.6Z"/><path d="M701.06,129.45v11.06h-5.6V129.45h-1.78v-4.58h1.78v-5.15h5.6v5.15h3.19v4.58Z"/><path d="M712,124.87v8.75a3,3,0,0,0,.84,2.27,2.89,2.89,0,0,0,2,.6,2.59,2.59,0,0,0,2-.67,2.9,2.9,0,0,0,.81-2.2v-8.75h5.6v9.76a5.37,5.37,0,0,1-1.51,4.2c-1.92,2-4.62,2.21-6.75,2.21-2.35,0-5.22-.25-7.07-2.24a5.63,5.63,0,0,1-1.47-4.17v-9.76Z"/><path d="M732.6,115v25.51H727V115Z"/><path d="M750.17,148.53h-5.61V124.87h5.61v1.71a5.85,5.85,0,0,1,4.79-2.24,7.78,7.78,0,0,1,5.57,2.28,8.88,8.88,0,0,1-.14,12.25A7.54,7.54,0,0,1,755,141a6.66,6.66,0,0,1-4.86-2Zm.91-18.38a3.83,3.83,0,0,0-1.09,2.59,3.78,3.78,0,0,0,1.09,2.49,3.58,3.58,0,0,0,2.52,1.05,3.39,3.39,0,0,0,2.48-1.05,3.7,3.7,0,0,0,1.09-2.49,3.83,3.83,0,0,0-1.09-2.59,3.39,3.39,0,0,0-2.48-1.05A3.58,3.58,0,0,0,751.08,130.15Z"/><path d="M766.12,124.87h5.61v2.55a5,5,0,0,1,2.2-2.17,6.19,6.19,0,0,1,2.91-.63c.14,0,.38,0,1.12.07V130a5,5,0,0,0-2.42-.56,3.63,3.63,0,0,0-2.55.84,4.68,4.68,0,0,0-1.26,3.57v6.68h-5.61Z"/><path d="M797,133.72H785.38a4,4,0,0,0,1,2.63,3.19,3.19,0,0,0,2.32.77,4.51,4.51,0,0,0,1.82-.42,2.64,2.64,0,0,0,1-1h5.35a7,7,0,0,1-1.89,3.22c-1.15,1.12-3,2.17-6.37,2.17a8.92,8.92,0,0,1-6.48-2.38,8.23,8.23,0,0,1-2.31-5.92,8.33,8.33,0,0,1,2.35-6.05,8.8,8.8,0,0,1,6.41-2.28,8.58,8.58,0,0,1,6,2.14,8.77,8.77,0,0,1,2.48,6.58Zm-5.14-3.22a3.78,3.78,0,0,0-.91-1.68,3.29,3.29,0,0,0-2.31-.84,3,3,0,0,0-2.28.84,3.12,3.12,0,0,0-.84,1.68Z"/><path d="M808.4,135.93H815v4.58H799l7.39-11.06h-6.3v-4.58h15.61Z"/><path d="M821.14,115.21a3.15,3.15,0,1,1-3.15,3.15A3.14,3.14,0,0,1,821.14,115.21Zm2.8,9.66v15.64h-5.6V124.87Z"/><path d="M827.76,124.87h5.6v2a5.9,5.9,0,0,1,5-2.31A6.3,6.3,0,0,1,843,126.2c1.33,1.33,1.47,2.66,1.47,4.37v9.94h-5.6V132.6c0-.91,0-2.27-.7-3a2.34,2.34,0,0,0-1.79-.67,3.05,3.05,0,0,0-2.06.74,3.58,3.58,0,0,0-.91,2.48v8.4h-5.6Z"/><path d="M854.43,129.45v11.06h-5.6V129.45H847v-4.58h1.79v-5.15h5.6v5.15h3.19v4.58Z"/><path d="M871.82,124.87h5.6v15.64h-5.6V138.8A5.84,5.84,0,0,1,867,141a7.49,7.49,0,0,1-5.64-2.49,7.9,7.9,0,0,1-2.24-5.74,8.64,8.64,0,0,1,2.42-6.26,8,8,0,0,1,5.63-2.21,6.2,6.2,0,0,1,4.69,2Zm3.09-8.05a5.5,5.5,0,0,1-1.55,3.81,7.34,7.34,0,0,1-9.1,0,5.55,5.55,0,0,1-1.54-3.81h3.61a2.4,2.4,0,0,0,.7,1.43,2.84,2.84,0,0,0,3.57,0,2.4,2.4,0,0,0,.7-1.43Zm-9,13.3a3.51,3.51,0,0,0,0,5.11,3.91,3.91,0,0,0,2.52,1.05,3.6,3.6,0,0,0,2.52-1.09,3.4,3.4,0,0,0,1-2.52,3.45,3.45,0,0,0-1.09-2.55,3.54,3.54,0,0,0-5,0Z"/><path d="M633.51,182.17a8.34,8.34,0,0,1-3.88.87,8.65,8.65,0,0,1-6.16-2.38,8.21,8.21,0,0,1-2.42-5.85,8.53,8.53,0,0,1,2.52-6.05,9,9,0,0,1,6.3-2.38,8,8,0,0,1,3.64.87v4.69a5,5,0,0,0-2.9-1,3.67,3.67,0,0,0-2.73,1.08,3.83,3.83,0,0,0-1.09,2.7,4,4,0,0,0,1,2.62,3.82,3.82,0,0,0,2.87,1.19,4.2,4.2,0,0,0,2.87-1.05Z"/><path d="M636.7,157h5.6v11.83a6.57,6.57,0,0,1,1.75-1.54,7.16,7.16,0,0,1,7.84.91,5.45,5.45,0,0,1,1.47,4.37v9.94h-5.6V174.6a4.65,4.65,0,0,0-.7-3,2.22,2.22,0,0,0-1.79-.67,3,3,0,0,0-2,.67,3.39,3.39,0,0,0-.94,2.55v8.4h-5.6Z"/><path d="M673.06,175.72H661.41a4,4,0,0,0,1,2.63,3.15,3.15,0,0,0,2.31.77,4.51,4.51,0,0,0,1.82-.42,2.64,2.64,0,0,0,1-1h5.35a7,7,0,0,1-1.89,3.22c-1.15,1.12-3,2.17-6.37,2.17a8.88,8.88,0,0,1-6.47-2.38,8.19,8.19,0,0,1-2.31-5.92,8.36,8.36,0,0,1,2.34-6.05,8.83,8.83,0,0,1,6.41-2.28,8.58,8.58,0,0,1,6,2.14,8.77,8.77,0,0,1,2.48,6.58Zm-5.14-3.22a3.78,3.78,0,0,0-.91-1.68,3.29,3.29,0,0,0-2.31-.84,3,3,0,0,0-2.28.84,3.27,3.27,0,0,0-.84,1.68Z"/><path d="M679.08,157.21a3.15,3.15,0,1,1-3.15,3.15A3.14,3.14,0,0,1,679.08,157.21Zm2.8,9.66v15.64h-5.6V166.87Z"/><path d="M697.81,166.87h5.6v15.64h-5.6V180.8a5.87,5.87,0,0,1-4.87,2.24,7.47,7.47,0,0,1-5.63-2.49,7.86,7.86,0,0,1-2.24-5.74,8.64,8.64,0,0,1,2.41-6.26,8.07,8.07,0,0,1,5.64-2.21,6.22,6.22,0,0,1,4.69,2Zm-5.88,5.25a3.52,3.52,0,0,0,0,5.11,4,4,0,0,0,2.52,1.05,3.6,3.6,0,0,0,2.52-1.09,3.4,3.4,0,0,0,1.05-2.52,3.47,3.47,0,0,0-1.08-2.55,3.54,3.54,0,0,0-5,0Z"/><path d="M716.43,177.33a8.09,8.09,0,0,0,2.24,1.16,7.41,7.41,0,0,0,2.17.38,2.33,2.33,0,0,0,1.43-.42.87.87,0,0,0,.28-.73.81.81,0,0,0-.28-.7,3.43,3.43,0,0,0-1.47-.56l-1.47-.35a5.08,5.08,0,0,1-2.73-1.37,3.79,3.79,0,0,1-1-2.69,5.57,5.57,0,0,1,1.47-3.82,7.92,7.92,0,0,1,5.6-1.89,12.77,12.77,0,0,1,5,1l-1.89,3.57a7.72,7.72,0,0,0-2.94-.77,2.35,2.35,0,0,0-1.29.31.84.84,0,0,0-.49.77.91.91,0,0,0,.66.88c.53.21,1,.21,1.86.45l1,.28a6.45,6.45,0,0,1,2.31,1.23,4.41,4.41,0,0,1,1.19,3.11,5.25,5.25,0,0,1-1.57,3.89c-1.82,1.82-4.48,2-5.78,2a11.6,11.6,0,0,1-6.3-1.82Z"/><path d="M747.54,175.72H735.89a4,4,0,0,0,1,2.63,3.15,3.15,0,0,0,2.31.77,4.51,4.51,0,0,0,1.82-.42,2.64,2.64,0,0,0,1-1h5.35a7,7,0,0,1-1.89,3.22c-1.15,1.12-3,2.17-6.37,2.17a8.88,8.88,0,0,1-6.47-2.38,8.19,8.19,0,0,1-2.31-5.92,8.36,8.36,0,0,1,2.34-6.05,8.83,8.83,0,0,1,6.41-2.28,8.58,8.58,0,0,1,6,2.14,8.77,8.77,0,0,1,2.48,6.58Zm-5.14-3.22a3.78,3.78,0,0,0-.91-1.68,3.29,3.29,0,0,0-2.31-.84,3,3,0,0,0-2.28.84,3.27,3.27,0,0,0-.84,1.68Z"/><path d="M751.77,177.33a8.29,8.29,0,0,0,2.25,1.16,7.35,7.35,0,0,0,2.17.38,2.33,2.33,0,0,0,1.43-.42.87.87,0,0,0,.28-.73.81.81,0,0,0-.28-.7,3.43,3.43,0,0,0-1.47-.56l-1.47-.35a5.08,5.08,0,0,1-2.73-1.37,3.75,3.75,0,0,1-1-2.69,5.62,5.62,0,0,1,1.47-3.82,8,8,0,0,1,5.61-1.89,12.77,12.77,0,0,1,5,1l-1.89,3.57a7.72,7.72,0,0,0-2.94-.77,2.35,2.35,0,0,0-1.29.31.84.84,0,0,0-.49.77.91.91,0,0,0,.66.88c.53.21,1,.21,1.86.45l1,.28a6.45,6.45,0,0,1,2.31,1.23,4.41,4.41,0,0,1,1.19,3.11,5.25,5.25,0,0,1-1.57,3.89c-1.82,1.82-4.48,2-5.78,2a11.58,11.58,0,0,1-6.3-1.82Z"/><path d="M769.1,157.21a3.15,3.15,0,1,1-3.15,3.15A3.14,3.14,0,0,1,769.1,157.21Zm2.8,9.66v15.64h-5.6V166.87Z"/><path d="M781.31,166.87v8.75a3,3,0,0,0,.84,2.27,2.92,2.92,0,0,0,2,.6,2.59,2.59,0,0,0,2-.67,2.9,2.9,0,0,0,.81-2.2v-8.75h5.6v9.76a5.37,5.37,0,0,1-1.51,4.2c-1.92,2-4.62,2.21-6.75,2.21-2.35,0-5.22-.25-7.08-2.24a5.63,5.63,0,0,1-1.47-4.17v-9.76Z"/><path d="M796.36,166.87H802v2a5.91,5.91,0,0,1,5-2.31,6.31,6.31,0,0,1,4.62,1.68c1.33,1.33,1.47,2.66,1.47,4.37v9.94h-5.6V174.6c0-.91,0-2.27-.7-3a2.37,2.37,0,0,0-1.79-.67,3,3,0,0,0-2.06.74,3.55,3.55,0,0,0-.92,2.48v8.4h-5.6Z"/><path d="M819.64,157.21a3.15,3.15,0,1,1-3.15,3.15A3.14,3.14,0,0,1,819.64,157.21Zm2.8,9.66v15.64h-5.6V166.87Z"/><path d="M829.05,157.21a3.15,3.15,0,1,1-3.15,3.15A3.15,3.15,0,0,1,829.05,157.21Zm2.8,9.66v15.64h-5.6V166.87Z"/><path d="M541.15,540.31h-3.33v-5.14h9.38v23.34h-6.05Z"/><path d="M567.85,556.38a9.13,9.13,0,0,1-12.88,0,13.25,13.25,0,0,1-3.46-9.52c0-4.13,1.36-7.49,3.46-9.56a9.13,9.13,0,0,1,12.88,0c2.11,2.07,3.47,5.43,3.47,9.56S570,554.31,567.85,556.38Zm-8.29-15.58c-1.26,1.09-2,3.92-2,6.09,0,1.86.66,4.9,2,6.09a2.83,2.83,0,0,0,1.85.74,2.88,2.88,0,0,0,1.86-.74c1.29-1.12,2-4.06,2-6.05s-.81-5-2-6.13a2.87,2.87,0,0,0-1.86-.73A2.82,2.82,0,0,0,559.56,540.8Z"/><path d="M574.68,558.09a3.52,3.52,0,0,1-1.09-2.55,3.57,3.57,0,0,1,1.09-2.56,3.53,3.53,0,0,1,2.55-1.08,3.67,3.67,0,0,1,2.59,1.12,3.32,3.32,0,0,1,1,2.52,3.38,3.38,0,0,1-1.05,2.55,3.59,3.59,0,0,1-2.56,1.09A3.55,3.55,0,0,1,574.68,558.09Z"/><path d="M594.66,551.51a8.18,8.18,0,0,0,5.36,2.38,3.06,3.06,0,0,0,2.34-.8,2.1,2.1,0,0,0,.6-1.47,1.82,1.82,0,0,0-.67-1.4,8.31,8.31,0,0,0-3-1.23l-1.57-.49a7.55,7.55,0,0,1-3.36-1.89,5.87,5.87,0,0,1-1.33-4.13,7.63,7.63,0,0,1,2.13-5.63,8.24,8.24,0,0,1,6-2.21,16.48,16.48,0,0,1,7.21,1.89l-2.42,4.73a6.14,6.14,0,0,0-4-1.58,2.9,2.9,0,0,0-2,.7,1.74,1.74,0,0,0-.6,1.26,1.53,1.53,0,0,0,.32,1.05,3.78,3.78,0,0,0,2,1l1.85.56a9,9,0,0,1,4.24,2.31,5.52,5.52,0,0,1,1.5,4.17,7.91,7.91,0,0,1-2.2,5.88c-2,2-4.41,2.38-6.9,2.38a12.44,12.44,0,0,1-4.58-.77,16,16,0,0,1-3.54-1.86Z"/><path d="M629.17,551.72H617.52a4,4,0,0,0,1,2.63,3.15,3.15,0,0,0,2.31.77,4.51,4.51,0,0,0,1.82-.42,2.64,2.64,0,0,0,1-1.05H629a7,7,0,0,1-1.89,3.22c-1.15,1.12-3,2.17-6.37,2.17a8.88,8.88,0,0,1-6.47-2.38,8.19,8.19,0,0,1-2.31-5.92,8.36,8.36,0,0,1,2.34-6,8.83,8.83,0,0,1,6.41-2.28,8.58,8.58,0,0,1,6,2.14,8.77,8.77,0,0,1,2.48,6.58ZM624,548.5a3.78,3.78,0,0,0-.91-1.68,3.29,3.29,0,0,0-2.31-.84,3,3,0,0,0-2.28.84,3.27,3.27,0,0,0-.84,1.68Z"/><path d="M632.39,542.87H638v2.55a5.06,5.06,0,0,1,2.21-2.17,6.15,6.15,0,0,1,2.9-.63c.14,0,.39,0,1.12.07V548a4.93,4.93,0,0,0-2.41-.56,3.66,3.66,0,0,0-2.56.84,4.72,4.72,0,0,0-1.26,3.57v6.68h-5.6Z"/><path d="M651.05,542.87l3.74,8,3.82-8h6.23l-8.16,15.64h-3.81l-8.09-15.64Z"/><path d="M682.48,551.72H670.82a4,4,0,0,0,1,2.63,3.15,3.15,0,0,0,2.31.77,4.51,4.51,0,0,0,1.82-.42,2.57,2.57,0,0,0,1-1.05h5.36a7.15,7.15,0,0,1-1.89,3.22c-1.16,1.12-3,2.17-6.37,2.17a8.9,8.9,0,0,1-6.48-2.38,8.23,8.23,0,0,1-2.31-5.92,8.33,8.33,0,0,1,2.35-6,8.79,8.79,0,0,1,6.4-2.28,8.57,8.57,0,0,1,6,2.14,8.75,8.75,0,0,1,2.49,6.58Zm-5.15-3.22a3.78,3.78,0,0,0-.91-1.68,3.28,3.28,0,0,0-2.31-.84,3,3,0,0,0-2.27.84,3.12,3.12,0,0,0-.84,1.68Z"/><path d="M685.7,542.87h5.6v2.55a5,5,0,0,1,2.2-2.17,6.19,6.19,0,0,1,2.91-.63c.14,0,.38,0,1.12.07V548a5,5,0,0,0-2.42-.56,3.63,3.63,0,0,0-2.55.84,4.72,4.72,0,0,0-1.26,3.57v6.68h-5.6Z"/><path d="M705.61,542.87v8.75a3,3,0,0,0,.84,2.27,2.91,2.91,0,0,0,2,.6,2.61,2.61,0,0,0,2-.67,2.89,2.89,0,0,0,.8-2.2v-8.75h5.6v9.76a5.36,5.36,0,0,1-1.5,4.2c-1.93,2-4.62,2.21-6.76,2.21-2.34,0-5.21-.25-7.07-2.24a5.63,5.63,0,0,1-1.47-4.17v-9.76Z"/><path d="M726.26,533v25.51h-5.6V533Z"/><path d="M754,556.45a10.7,10.7,0,0,1-14,0,7.8,7.8,0,0,1-2.42-5.78,7.72,7.72,0,0,1,2.42-5.74,9.75,9.75,0,0,1,7-2.59,9.89,9.89,0,0,1,7,2.59,7.72,7.72,0,0,1,2.42,5.74A7.8,7.8,0,0,1,754,556.45Zm-9.48-8.33a3.55,3.55,0,1,0,5,5,3.48,3.48,0,0,0,1.09-2.49A3.6,3.6,0,0,0,747,547.1,3.85,3.85,0,0,0,744.5,548.12Z"/><path d="M765.64,547.45v11.06H760V547.45h-2v-4.58h2v-2.63a8,8,0,0,1,1.43-5.14,6.51,6.51,0,0,1,5.43-2.49,7,7,0,0,1,2.69.53V538a3.47,3.47,0,0,0-1.75-.53,2,2,0,0,0-1.57.6,4.09,4.09,0,0,0-.63,2.62v2.21h3.92v4.58Z"/><path d="M788.28,551.72H776.63a4,4,0,0,0,1,2.63,3.15,3.15,0,0,0,2.31.77,4.51,4.51,0,0,0,1.82-.42,2.64,2.64,0,0,0,1-1.05h5.35a7,7,0,0,1-1.89,3.22c-1.15,1.12-3,2.17-6.37,2.17a8.92,8.92,0,0,1-6.48-2.38,8.23,8.23,0,0,1-2.31-5.92,8.33,8.33,0,0,1,2.35-6,8.83,8.83,0,0,1,6.41-2.28,8.58,8.58,0,0,1,6,2.14,8.77,8.77,0,0,1,2.48,6.58Zm-5.14-3.22a3.78,3.78,0,0,0-.91-1.68,3.29,3.29,0,0,0-2.31-.84,3,3,0,0,0-2.28.84,3.27,3.27,0,0,0-.84,1.68Z"/><path d="M791.5,542.87h5.6v2.55a5.06,5.06,0,0,1,2.21-2.17,6.15,6.15,0,0,1,2.9-.63c.14,0,.39,0,1.12.07V548a4.93,4.93,0,0,0-2.41-.56,3.66,3.66,0,0,0-2.56.84,4.72,4.72,0,0,0-1.26,3.57v6.68h-5.6Z"/><path d="M817.93,542.87h5.6v15.64h-5.6V556.8a5.87,5.87,0,0,1-4.87,2.24,7.49,7.49,0,0,1-5.64-2.49,7.9,7.9,0,0,1-2.24-5.74,8.64,8.64,0,0,1,2.42-6.26,8.07,8.07,0,0,1,5.64-2.21,6.22,6.22,0,0,1,4.69,2Zm3.08-8a5.55,5.55,0,0,1-1.54,3.81,7.36,7.36,0,0,1-9.11,0,5.55,5.55,0,0,1-1.54-3.81h3.61a2.4,2.4,0,0,0,.7,1.43,2.84,2.84,0,0,0,3.57,0,2.4,2.4,0,0,0,.7-1.43Zm-9,13.3a3.51,3.51,0,0,0,0,5.11,3.91,3.91,0,0,0,2.52,1,3.6,3.6,0,0,0,2.52-1.09,3.4,3.4,0,0,0,1.05-2.52,3.47,3.47,0,0,0-1.08-2.55,3.55,3.55,0,0,0-5,0Z"/><path d="M847.64,542.87h5.6v15.64h-5.6V556.8a5.87,5.87,0,0,1-4.87,2.24,7.47,7.47,0,0,1-5.63-2.49,7.86,7.86,0,0,1-2.24-5.74,8.64,8.64,0,0,1,2.41-6.26,8.07,8.07,0,0,1,5.64-2.21,6.2,6.2,0,0,1,4.69,2Zm-5.88,5.25a3.52,3.52,0,0,0,0,5.11,4,4,0,0,0,2.52,1,3.6,3.6,0,0,0,2.52-1.09,3.4,3.4,0,0,0,1-2.52,3.47,3.47,0,0,0-1.08-2.55,3.54,3.54,0,0,0-5,0Z"/><path d="M868.92,558.17A8.35,8.35,0,0,1,865,559a8.67,8.67,0,0,1-6.16-2.38,8.2,8.2,0,0,1-2.41-5.85,8.49,8.49,0,0,1,2.52-6,9,9,0,0,1,6.3-2.38,8,8,0,0,1,3.64.87v4.69a5,5,0,0,0-2.91-1,3.67,3.67,0,0,0-2.73,1.08,3.81,3.81,0,0,0-1.08,2.7,4,4,0,0,0,1,2.62,3.78,3.78,0,0,0,2.87,1.19,4.21,4.21,0,0,0,2.87-1Z"/><path d="M883.93,558.17a8.34,8.34,0,0,1-3.88.87,8.65,8.65,0,0,1-6.16-2.38,8.21,8.21,0,0,1-2.42-5.85,8.53,8.53,0,0,1,2.52-6,9,9,0,0,1,6.3-2.38,8,8,0,0,1,3.64.87v4.69a5,5,0,0,0-2.9-1A3.67,3.67,0,0,0,878.3,548a3.83,3.83,0,0,0-1.09,2.7,4,4,0,0,0,1,2.62,3.82,3.82,0,0,0,2.87,1.19,4.2,4.2,0,0,0,2.87-1Z"/><path d="M903.71,551.72H892.05a4,4,0,0,0,1,2.63,3.15,3.15,0,0,0,2.31.77,4.51,4.51,0,0,0,1.82-.42,2.57,2.57,0,0,0,1-1.05h5.36a7.15,7.15,0,0,1-1.89,3.22c-1.16,1.12-3,2.17-6.37,2.17a8.9,8.9,0,0,1-6.48-2.38,8.23,8.23,0,0,1-2.31-5.92,8.33,8.33,0,0,1,2.35-6,8.79,8.79,0,0,1,6.4-2.28,8.57,8.57,0,0,1,6,2.14,8.75,8.75,0,0,1,2.49,6.58Zm-5.15-3.22a3.78,3.78,0,0,0-.91-1.68,3.28,3.28,0,0,0-2.31-.84,3,3,0,0,0-2.27.84,3.12,3.12,0,0,0-.84,1.68Z"/><path d="M907.94,553.33a8.23,8.23,0,0,0,2.24,1.16,7.46,7.46,0,0,0,2.17.38,2.36,2.36,0,0,0,1.44-.42.9.9,0,0,0,.28-.73.84.84,0,0,0-.28-.7,3.43,3.43,0,0,0-1.47-.56l-1.47-.35a5.08,5.08,0,0,1-2.73-1.37,3.75,3.75,0,0,1-1-2.69,5.62,5.62,0,0,1,1.47-3.82,7.92,7.92,0,0,1,5.6-1.89,12.83,12.83,0,0,1,5,1l-1.89,3.57a7.77,7.77,0,0,0-2.94-.77,2.38,2.38,0,0,0-1.3.31.85.85,0,0,0-.49.77.92.92,0,0,0,.67.88c.52.21,1,.21,1.85.45l1,.28a6.63,6.63,0,0,1,2.31,1.23,4.41,4.41,0,0,1,1.19,3.11,5.25,5.25,0,0,1-1.58,3.89c-1.82,1.82-4.48,2-5.77,2a11.58,11.58,0,0,1-6.3-1.82Z"/><path d="M653.85,575v25.51h-5.6V575Z"/><path d="M669.77,584.87h5.6v15.64h-5.6V598.8a5.84,5.84,0,0,1-4.86,2.24,7.49,7.49,0,0,1-5.64-2.49,7.9,7.9,0,0,1-2.24-5.74,8.64,8.64,0,0,1,2.42-6.26,8,8,0,0,1,5.63-2.21,6.2,6.2,0,0,1,4.69,2Zm-5.88,5.25a3.51,3.51,0,0,0,0,5.11,3.91,3.91,0,0,0,2.52,1,3.6,3.6,0,0,0,2.52-1.09,3.4,3.4,0,0,0,1.05-2.52,3.45,3.45,0,0,0-1.09-2.55,3.54,3.54,0,0,0-5,0Z"/><path d="M687.38,584.87H693v2.55a5,5,0,0,1,2.2-2.17,6.19,6.19,0,0,1,2.91-.63c.14,0,.38,0,1.12.07V590a5,5,0,0,0-2.42-.56,3.63,3.63,0,0,0-2.55.84,4.72,4.72,0,0,0-1.26,3.57v6.68h-5.6Z"/><path d="M718.28,593.72H706.63a4,4,0,0,0,1,2.63,3.15,3.15,0,0,0,2.31.77,4.51,4.51,0,0,0,1.82-.42,2.64,2.64,0,0,0,1-1.05h5.35a7,7,0,0,1-1.89,3.22c-1.15,1.12-3,2.17-6.37,2.17a8.88,8.88,0,0,1-6.47-2.38,8.19,8.19,0,0,1-2.31-5.92,8.36,8.36,0,0,1,2.34-6,8.83,8.83,0,0,1,6.41-2.28,8.58,8.58,0,0,1,6,2.14,8.77,8.77,0,0,1,2.48,6.58Zm-5.14-3.22a3.78,3.78,0,0,0-.91-1.68,3.29,3.29,0,0,0-2.31-.84,3,3,0,0,0-2.28.84,3.27,3.27,0,0,0-.84,1.68Z"/><path d="M722.52,595.33a8.09,8.09,0,0,0,2.24,1.16,7.41,7.41,0,0,0,2.17.38,2.33,2.33,0,0,0,1.43-.42.87.87,0,0,0,.28-.73.81.81,0,0,0-.28-.7,3.43,3.43,0,0,0-1.47-.56l-1.47-.35a5.08,5.08,0,0,1-2.73-1.37,3.79,3.79,0,0,1-1-2.69,5.57,5.57,0,0,1,1.47-3.82,7.92,7.92,0,0,1,5.6-1.89,12.77,12.77,0,0,1,5,1l-1.89,3.57a7.72,7.72,0,0,0-2.94-.77,2.35,2.35,0,0,0-1.29.31.84.84,0,0,0-.49.77.91.91,0,0,0,.66.88c.53.21,1,.21,1.86.45l1,.28a6.45,6.45,0,0,1,2.31,1.23,4.41,4.41,0,0,1,1.19,3.11,5.25,5.25,0,0,1-1.57,3.89c-1.82,1.82-4.48,2-5.78,2a11.6,11.6,0,0,1-6.3-1.82Z"/><path d="M742.64,584.87v8.75a3,3,0,0,0,.84,2.27,2.91,2.91,0,0,0,2,.6,2.61,2.61,0,0,0,2-.67,2.89,2.89,0,0,0,.8-2.2v-8.75h5.6v9.76a5.36,5.36,0,0,1-1.5,4.2c-1.93,2-4.62,2.21-6.76,2.21-2.34,0-5.21-.25-7.07-2.24a5.63,5.63,0,0,1-1.47-4.17v-9.76Z"/><path d="M757.69,584.87h5.6v2.55a5.06,5.06,0,0,1,2.21-2.17,6.15,6.15,0,0,1,2.9-.63c.14,0,.39,0,1.12.07V590a4.93,4.93,0,0,0-2.41-.56,3.66,3.66,0,0,0-2.56.84,4.72,4.72,0,0,0-1.26,3.57v6.68h-5.6Z"/><path d="M773,595.33a8.23,8.23,0,0,0,2.24,1.16,7.46,7.46,0,0,0,2.17.38,2.36,2.36,0,0,0,1.44-.42.9.9,0,0,0,.28-.73.84.84,0,0,0-.28-.7,3.43,3.43,0,0,0-1.47-.56l-1.47-.35a5.14,5.14,0,0,1-2.74-1.37,3.79,3.79,0,0,1-1-2.69,5.57,5.57,0,0,1,1.47-3.82,7.92,7.92,0,0,1,5.6-1.89,12.83,12.83,0,0,1,5,1l-1.89,3.57a7.77,7.77,0,0,0-2.94-.77,2.38,2.38,0,0,0-1.3.31.85.85,0,0,0-.49.77.92.92,0,0,0,.67.88c.52.21,1,.21,1.85.45l1,.28a6.63,6.63,0,0,1,2.31,1.23,4.41,4.41,0,0,1,1.19,3.11,5.25,5.25,0,0,1-1.58,3.89c-1.82,1.82-4.48,2-5.77,2a11.63,11.63,0,0,1-6.31-1.82Z"/><path d="M799.66,584.87h5.6v15.64h-5.6V598.8a5.87,5.87,0,0,1-4.87,2.24,7.49,7.49,0,0,1-5.64-2.49,7.9,7.9,0,0,1-2.24-5.74,8.64,8.64,0,0,1,2.42-6.26,8.07,8.07,0,0,1,5.64-2.21,6.22,6.22,0,0,1,4.69,2Zm3.08-8a5.55,5.55,0,0,1-1.54,3.81,7.36,7.36,0,0,1-9.11,0,5.55,5.55,0,0,1-1.54-3.81h3.61a2.4,2.4,0,0,0,.7,1.43,2.84,2.84,0,0,0,3.57,0,2.4,2.4,0,0,0,.7-1.43Zm-9,13.3a3.51,3.51,0,0,0,0,5.11,3.91,3.91,0,0,0,2.52,1,3.6,3.6,0,0,0,2.52-1.09,3.4,3.4,0,0,0,1.05-2.52,3.47,3.47,0,0,0-1.08-2.55,3.55,3.55,0,0,0-5,0Z"/><line x1="717.09" y1="433.22" x2="768.98" y2="433.22" style="fill:none;stroke:#91c54f;stroke-miterlimit:10;stroke-width:5px"/><line x1="717.09" y1="419.8" x2="768.98" y2="419.8" style="fill:none;stroke:#91c54f;stroke-miterlimit:10;stroke-width:5px"/><line x1="717.09" y1="406.37" x2="768.98" y2="406.37" style="fill:none;stroke:#91c54f;stroke-miterlimit:10;stroke-width:5px"/><line x1="717.09" y1="392.95" x2="768.98" y2="392.95" style="fill:none;stroke:#91c54f;stroke-miterlimit:10;stroke-width:5px"/><line x1="717.09" y1="379.53" x2="738.51" y2="379.53" style="fill:none;stroke:#91c54f;stroke-miterlimit:10;stroke-width:5px"/><path d="M766.26,374.7a7.26,7.26,0,0,1-7.24-7.24V353.89H714.08a7.26,7.26,0,0,0-7.24,7.24v76a7.26,7.26,0,0,0,7.24,7.24H772a7.26,7.26,0,0,0,7.24-7.24V374.7Z" style="fill:none;stroke:#91c54f;stroke-miterlimit:10;stroke-width:5px"/><circle cx="700.58" cy="268.35" r="10.42" style="fill:none;stroke:#3a5c84;stroke-miterlimit:10;stroke-width:4px"/><rect x="657.85" y="290.24" width="43.25" height="3.13" rx="1.51" ry="1.51" transform="translate(-7.32 565.93) rotate(-45)" style="fill:#3a5c84"/><rect x="669.05" y="301.44" width="2.08" height="8.86" rx="1.01" ry="1.01" transform="translate(-20.02 563.41) rotate(-45)" style="fill:#3a5c84"/><rect x="672.89" y="298.02" width="2.08" height="10.88" rx="1.01" ry="1.01" transform="translate(-17.19 565.42) rotate(-45)" style="fill:#3a5c84"/><rect x="676.28" y="294.63" width="2.08" height="10.88" rx="1.01" ry="1.01" transform="translate(-13.8 566.83) rotate(-45)" style="fill:#3a5c84"/></svg>