<svg id="Layer_1" data-name="Layer 1" xmlns="http://www.w3.org/2000/svg" viewBox="0 0 1461 768"><title>Capitolul12</title><line x1="807.09" y1="328.22" x2="858.98" y2="328.22" style="fill:none;stroke:#3a5c84;stroke-miterlimit:10;stroke-width:5px"/><line x1="807.09" y1="314.8" x2="858.98" y2="314.8" style="fill:none;stroke:#3a5c84;stroke-miterlimit:10;stroke-width:5px"/><line x1="807.09" y1="301.37" x2="858.98" y2="301.37" style="fill:none;stroke:#3a5c84;stroke-miterlimit:10;stroke-width:5px"/><line x1="807.09" y1="287.95" x2="858.98" y2="287.95" style="fill:none;stroke:#3a5c84;stroke-miterlimit:10;stroke-width:5px"/><line x1="807.09" y1="274.53" x2="828.51" y2="274.53" style="fill:none;stroke:#3a5c84;stroke-miterlimit:10;stroke-width:5px"/><path d="M856.26,269.7a7.26,7.26,0,0,1-7.24-7.24V248.89H804.08a7.26,7.26,0,0,0-7.24,7.24v76a7.26,7.26,0,0,0,7.24,7.24H862a7.26,7.26,0,0,0,7.24-7.24V269.7Z" style="fill:none;stroke:#3a5c84;stroke-miterlimit:10;stroke-width:5px"/><path d="M860,314.11a11,11,0,1,0,11,11A11,11,0,0,0,860,314.11Z" style="fill:#f7931f"/><path d="M876,330.35l-2.33-5.21,2.33-5.21-5-2.84-1.17-5.59-5.68.61L860,308.28l-4.24,3.83-5.67-.61-1.18,5.59-5,2.84,2.34,5.21-2.34,5.21,5,2.84.64,3-5.28,11.22,5.51.08,3.57,4.2,5.2-11L860,342l1.45-1.32,5.19,11,3.57-4.2,5.52-.08-5.29-11.22.64-3Zm-16,5a10.24,10.24,0,1,1,10.24-10.24A10.25,10.25,0,0,1,860,335.38Z" style="fill:#f7931f"/><circle cx="1248.45" cy="294.29" r="52.85" style="fill:none;stroke:#3a5c84;stroke-miterlimit:10;stroke-width:7px"/><path d="M1241.12,301.56v-13a9.7,9.7,0,0,0,2.72.4c2.48,0,5.6-.72,7.52-2.64a6.39,6.39,0,0,0,1.84-4.4,5.46,5.46,0,0,0-1.36-3.76,5.24,5.24,0,0,0-3.84-1.52,4.55,4.55,0,0,0-3.44,1.36,5.8,5.8,0,0,0-1.44,4H1229a17.22,17.22,0,0,1,4.8-11.36c2.64-2.64,7.2-5.2,13.92-5.2s11.28,2.48,14.16,5.2a15.62,15.62,0,0,1,5,11.44,15.44,15.44,0,0,1-3.84,10.08,16.94,16.94,0,0,1-9,5.12v4.24Zm1,17.2a8.12,8.12,0,0,1,0-11.68,8,8,0,0,1,5.76-2.48,8.44,8.44,0,0,1,6,2.56,8.31,8.31,0,0,1-.08,11.6,8.19,8.19,0,0,1-5.84,2.48A8.11,8.11,0,0,1,1242.16,318.76Z"/><path d="M683.33,684.51a8.18,8.18,0,0,0,5.36,2.38,3.06,3.06,0,0,0,2.34-.8,2.1,2.1,0,0,0,.6-1.47,1.82,1.82,0,0,0-.67-1.4,8.31,8.31,0,0,0-3-1.23l-1.57-.49a7.55,7.55,0,0,1-3.36-1.89,5.87,5.87,0,0,1-1.33-4.13,7.63,7.63,0,0,1,2.13-5.63,8.24,8.24,0,0,1,6-2.21,16.48,16.48,0,0,1,7.21,1.89l-2.42,4.73a6.14,6.14,0,0,0-4-1.58,2.9,2.9,0,0,0-2,.7,1.74,1.74,0,0,0-.6,1.26,1.53,1.53,0,0,0,.32,1.05,3.78,3.78,0,0,0,2,1l1.85.56a9,9,0,0,1,4.24,2.31,5.52,5.52,0,0,1,1.5,4.17,7.91,7.91,0,0,1-2.2,5.88c-2,2-4.41,2.38-6.9,2.38a12.44,12.44,0,0,1-4.58-.77,16,16,0,0,1-3.54-1.86Z"/><path d="M717.84,684.72H706.19a4,4,0,0,0,1,2.63,3.15,3.15,0,0,0,2.31.77,4.51,4.51,0,0,0,1.82-.42,2.64,2.64,0,0,0,1-1.05h5.35a7,7,0,0,1-1.89,3.22c-1.15,1.12-3,2.17-6.37,2.17a8.88,8.88,0,0,1-6.47-2.38,8.19,8.19,0,0,1-2.31-5.92,8.36,8.36,0,0,1,2.34-6,8.83,8.83,0,0,1,6.41-2.28,8.58,8.58,0,0,1,6,2.14,8.77,8.77,0,0,1,2.48,6.58Zm-5.14-3.22a3.78,3.78,0,0,0-.91-1.68,3.29,3.29,0,0,0-2.31-.84,3,3,0,0,0-2.28.84,3.27,3.27,0,0,0-.84,1.68Z"/><path d="M721.06,675.87h5.6v2.55a5.06,5.06,0,0,1,2.21-2.17,6.15,6.15,0,0,1,2.9-.63c.14,0,.39,0,1.12.07V681a4.93,4.93,0,0,0-2.41-.56,3.66,3.66,0,0,0-2.56.84,4.72,4.72,0,0,0-1.26,3.57v6.68h-5.6Z"/><path d="M739.72,675.87l3.74,8,3.82-8h6.23l-8.16,15.64h-3.81l-8.09-15.64Z"/><path d="M771.15,684.72H759.49a4,4,0,0,0,1,2.63,3.15,3.15,0,0,0,2.31.77,4.51,4.51,0,0,0,1.82-.42,2.57,2.57,0,0,0,1-1.05h5.36a7.15,7.15,0,0,1-1.89,3.22c-1.16,1.12-3,2.17-6.37,2.17a8.9,8.9,0,0,1-6.48-2.38,8.23,8.23,0,0,1-2.31-5.92,8.33,8.33,0,0,1,2.35-6,8.79,8.79,0,0,1,6.4-2.28,8.57,8.57,0,0,1,6,2.14,8.75,8.75,0,0,1,2.49,6.58ZM766,681.5a3.78,3.78,0,0,0-.91-1.68,3.28,3.28,0,0,0-2.31-.84,3,3,0,0,0-2.27.84,3.12,3.12,0,0,0-.84,1.68Z"/><path d="M774.36,675.87H780v2.55a5,5,0,0,1,2.2-2.17,6.19,6.19,0,0,1,2.91-.63c.14,0,.38,0,1.12.07V681a5,5,0,0,0-2.42-.56,3.63,3.63,0,0,0-2.55.84,4.72,4.72,0,0,0-1.26,3.57v6.68h-5.61Z"/><polygon points="385.13 318.85 483.28 318.85 483.28 333 513.34 302.94 483.28 272.87 483.28 287.02 385.13 287.02 385.13 318.85" style="fill:none;stroke:#3a5c84;stroke-miterlimit:10;stroke-width:7px"/><polygon points="979.13 309.85 1077.28 309.85 1077.28 324 1107.34 293.94 1077.28 263.87 1077.28 278.02 979.13 278.02 979.13 309.85" style="fill:none;stroke:#3a5c84;stroke-miterlimit:10;stroke-width:7px"/><path d="M362.64,120.31h-9.73v-5.14h19.15l-13.38,23.34H352Z"/><path d="M369.36,138.09a3.52,3.52,0,0,1-1.09-2.55,3.57,3.57,0,0,1,1.09-2.56,3.53,3.53,0,0,1,2.55-1.08A3.67,3.67,0,0,1,374.5,133a3.32,3.32,0,0,1,1,2.52,3.38,3.38,0,0,1-1,2.55,3.59,3.59,0,0,1-2.56,1.09A3.55,3.55,0,0,1,369.36,138.09Z"/><path d="M401.07,120.31h-7.21v3.89h6.82v5.14h-6.82v4h7.21v5.14H387.8V115.17h13.27Z"/><path d="M410.27,130l-6.33-7.14h7.28l2.69,3.22,2.77-3.22h7.24L417.45,130l7.84,8.5h-7.42l-4-4.65-4,4.65h-7.42Z"/><path d="M433.41,127.45v11.06h-5.6V127.45H426v-4.58h1.79v-5.15h5.6v5.15h3.18v4.58Z"/><path d="M438.69,122.87h5.6v2.55a5.06,5.06,0,0,1,2.21-2.17,6.15,6.15,0,0,1,2.9-.63c.14,0,.39,0,1.12.07V128a4.93,4.93,0,0,0-2.41-.56,3.66,3.66,0,0,0-2.56.84,4.72,4.72,0,0,0-1.26,3.57v6.68h-5.6Z"/><path d="M465.12,122.87h5.6v15.64h-5.6V136.8a5.87,5.87,0,0,1-4.87,2.24,7.47,7.47,0,0,1-5.63-2.49,7.86,7.86,0,0,1-2.24-5.74,8.64,8.64,0,0,1,2.41-6.26,8.07,8.07,0,0,1,5.64-2.21,6.22,6.22,0,0,1,4.69,2Zm-5.88,5.25a3.52,3.52,0,0,0,0,5.11,4,4,0,0,0,2.52,1.05,3.6,3.6,0,0,0,2.52-1.09,3.4,3.4,0,0,0,1.05-2.52,3.47,3.47,0,0,0-1.08-2.55,3.54,3.54,0,0,0-5,0Z"/><path d="M492.17,122.87v14.66c0,2.35-.21,4.48-2.13,6.48a9.34,9.34,0,0,1-6.9,2.52,9.62,9.62,0,0,1-7.31-2.76,5.71,5.71,0,0,1-1.72-3.26h6.23c.21.63.77,1.61,2.63,1.61a3.39,3.39,0,0,0,2.48-.87,3.76,3.76,0,0,0,1.12-2.91v-1.58a6,6,0,0,1-4.69,2.07,7.76,7.76,0,0,1-5.77-2.21,8.25,8.25,0,0,1-2.17-5.7,9,9,0,0,1,2.31-6.13,7.87,7.87,0,0,1,5.67-2.38,6.08,6.08,0,0,1,4.65,2.07v-1.61Zm-11.41,5.25a3.52,3.52,0,0,0,0,5.07,3.53,3.53,0,0,0,2.52,1,3.71,3.71,0,0,0,2.52-1.05,3.75,3.75,0,0,0,1.05-2.52,4,4,0,0,0-1.12-2.56,3.54,3.54,0,0,0-2.48-1A3.33,3.33,0,0,0,480.76,128.12Z"/><path d="M512.61,131.72H501a4,4,0,0,0,1,2.63,3.15,3.15,0,0,0,2.31.77,4.51,4.51,0,0,0,1.82-.42,2.64,2.64,0,0,0,1-1h5.35a7,7,0,0,1-1.89,3.22c-1.15,1.12-3,2.17-6.37,2.17a8.88,8.88,0,0,1-6.47-2.38,8.19,8.19,0,0,1-2.31-5.92,8.36,8.36,0,0,1,2.34-6.05,8.83,8.83,0,0,1,6.41-2.28,8.58,8.58,0,0,1,6,2.14,8.77,8.77,0,0,1,2.48,6.58Zm-5.14-3.22a3.78,3.78,0,0,0-.91-1.68,3.29,3.29,0,0,0-2.31-.84,3,3,0,0,0-2.28.84,3.27,3.27,0,0,0-.84,1.68Z"/><path d="M515.83,122.87h5.6v2.55a5.06,5.06,0,0,1,2.21-2.17,6.15,6.15,0,0,1,2.9-.63c.14,0,.39,0,1.12.07V128a4.93,4.93,0,0,0-2.41-.56,3.66,3.66,0,0,0-2.56.84,4.72,4.72,0,0,0-1.26,3.57v6.68h-5.6Z"/><path d="M546.74,131.72H535.08a4,4,0,0,0,1,2.63,3.15,3.15,0,0,0,2.31.77,4.51,4.51,0,0,0,1.82-.42,2.57,2.57,0,0,0,1-1h5.36a7.15,7.15,0,0,1-1.89,3.22c-1.16,1.12-3,2.17-6.37,2.17a8.9,8.9,0,0,1-6.48-2.38,8.23,8.23,0,0,1-2.31-5.92,8.33,8.33,0,0,1,2.35-6.05,8.79,8.79,0,0,1,6.4-2.28,8.57,8.57,0,0,1,6,2.14,8.75,8.75,0,0,1,2.49,6.58Zm-5.15-3.22a3.78,3.78,0,0,0-.91-1.68,3.28,3.28,0,0,0-2.31-.84,3,3,0,0,0-2.27.84,3.12,3.12,0,0,0-.84,1.68Z"/><path d="M330.37,180.17a8.34,8.34,0,0,1-3.88.87,8.68,8.68,0,0,1-6.17-2.38,8.2,8.2,0,0,1-2.41-5.85,8.49,8.49,0,0,1,2.52-6.05,9,9,0,0,1,6.3-2.38,8,8,0,0,1,3.64.87v4.69a5,5,0,0,0-2.9-1,3.65,3.65,0,0,0-2.73,1.08,3.78,3.78,0,0,0-1.09,2.7,4,4,0,0,0,1,2.62,3.82,3.82,0,0,0,2.87,1.19,4.2,4.2,0,0,0,2.87-1.05Z"/><path d="M333.55,155h5.6v11.83a6.73,6.73,0,0,1,1.75-1.54,6.35,6.35,0,0,1,3.23-.77,6.26,6.26,0,0,1,4.62,1.68,5.45,5.45,0,0,1,1.47,4.37v9.94h-5.6V172.6a4.65,4.65,0,0,0-.7-3,2.22,2.22,0,0,0-1.79-.67,3,3,0,0,0-2,.67,3.39,3.39,0,0,0-1,2.55v8.4h-5.6Z"/><path d="M369.92,173.72H358.26a4,4,0,0,0,1,2.63,3.15,3.15,0,0,0,2.31.77,4.57,4.57,0,0,0,1.83-.42,2.55,2.55,0,0,0,1-1h5.36a7,7,0,0,1-1.89,3.22c-1.15,1.12-3,2.17-6.37,2.17a8.9,8.9,0,0,1-6.48-2.38,8.23,8.23,0,0,1-2.31-5.92,8.33,8.33,0,0,1,2.35-6.05,8.8,8.8,0,0,1,6.41-2.28,8.6,8.6,0,0,1,6,2.14,8.77,8.77,0,0,1,2.48,6.58Zm-5.14-3.22a3.78,3.78,0,0,0-.91-1.68,3.31,3.31,0,0,0-2.32-.84,3,3,0,0,0-2.27.84,3.12,3.12,0,0,0-.84,1.68Z"/><path d="M375.94,155.21a3.15,3.15,0,1,1-3.15,3.15A3.14,3.14,0,0,1,375.94,155.21Zm2.8,9.66v15.64h-5.6V164.87Z"/><path d="M399.15,173.72H387.49a4,4,0,0,0,1,2.63,3.15,3.15,0,0,0,2.31.77,4.51,4.51,0,0,0,1.82-.42,2.64,2.64,0,0,0,1-1h5.36a7.09,7.09,0,0,1-1.9,3.22c-1.15,1.12-3,2.17-6.37,2.17a8.88,8.88,0,0,1-6.47-2.38,8.19,8.19,0,0,1-2.31-5.92,8.36,8.36,0,0,1,2.34-6.05,8.83,8.83,0,0,1,6.41-2.28,8.58,8.58,0,0,1,6,2.14,8.75,8.75,0,0,1,2.49,6.58ZM394,170.5a3.78,3.78,0,0,0-.91-1.68,3.29,3.29,0,0,0-2.31-.84,3,3,0,0,0-2.28.84,3.27,3.27,0,0,0-.84,1.68Z"/><path d="M416.12,188.53h-5.6V164.87h5.6v1.71a5.85,5.85,0,0,1,4.79-2.24,7.78,7.78,0,0,1,5.57,2.28,8.88,8.88,0,0,1-.14,12.25A7.54,7.54,0,0,1,421,181a6.66,6.66,0,0,1-4.86-2Zm.91-18.38a3.83,3.83,0,0,0-1.09,2.59,3.78,3.78,0,0,0,1.09,2.49,3.58,3.58,0,0,0,2.52,1.05,3.39,3.39,0,0,0,2.48-1.05,3.7,3.7,0,0,0,1.09-2.49,3.83,3.83,0,0,0-1.09-2.59,3.39,3.39,0,0,0-2.48-1.05A3.58,3.58,0,0,0,417,170.15Z"/><path d="M437.68,164.87v8.75a3,3,0,0,0,.84,2.27,2.89,2.89,0,0,0,2,.6,2.59,2.59,0,0,0,2-.67,2.9,2.9,0,0,0,.81-2.2v-8.75h5.6v9.76a5.37,5.37,0,0,1-1.51,4.2c-1.92,2-4.62,2.21-6.75,2.21-2.35,0-5.22-.25-7.07-2.24a5.63,5.63,0,0,1-1.47-4.17v-9.76Z"/><path d="M458.33,155v11.37a6.2,6.2,0,0,1,4.65-2,8,8,0,0,1,5.53,2.1,8.53,8.53,0,0,1,2.56,6.2,8.66,8.66,0,0,1-2.52,6.23,7.52,7.52,0,0,1-5.5,2.17,5.73,5.73,0,0,1-4.72-2.24v1.71h-5.6V155Zm5.91,20.23a3.54,3.54,0,0,0,1.09-2.45,3.85,3.85,0,0,0-1.09-2.66,3.42,3.42,0,0,0-2.48-1,3.45,3.45,0,0,0-2.56,1.05,4.12,4.12,0,0,0-1.05,2.52,3.75,3.75,0,0,0,1.19,2.66,3.83,3.83,0,0,0,2.42.95A3.47,3.47,0,0,0,464.24,175.23Z"/><path d="M479.89,155v25.51h-5.6V155Z"/><path d="M486.5,155.21a3.15,3.15,0,1,1-3.15,3.15A3.14,3.14,0,0,1,486.5,155.21Zm2.8,9.66v15.64h-5.6V164.87Z"/><path d="M505,180.17a8.37,8.37,0,0,1-3.89.87,8.67,8.67,0,0,1-6.16-2.38,8.2,8.2,0,0,1-2.41-5.85,8.49,8.49,0,0,1,2.52-6.05,9,9,0,0,1,6.3-2.38,8,8,0,0,1,3.64.87v4.69a5.05,5.05,0,0,0-2.91-1,3.67,3.67,0,0,0-2.73,1.08,3.81,3.81,0,0,0-1.08,2.7,4,4,0,0,0,1,2.62,3.78,3.78,0,0,0,2.87,1.19,4.23,4.23,0,0,0,2.87-1.05Z"/><path d="M520.24,164.87h5.6v15.64h-5.6V178.8a5.84,5.84,0,0,1-4.86,2.24,7.49,7.49,0,0,1-5.64-2.49,7.9,7.9,0,0,1-2.24-5.74,8.64,8.64,0,0,1,2.42-6.26,8,8,0,0,1,5.63-2.21,6.2,6.2,0,0,1,4.69,2Zm3.08-8.05a5.46,5.46,0,0,1-1.54,3.81,7.34,7.34,0,0,1-9.1,0,5.55,5.55,0,0,1-1.54-3.81h3.61a2.4,2.4,0,0,0,.7,1.43,2.84,2.84,0,0,0,3.57,0,2.4,2.4,0,0,0,.7-1.43Zm-9,13.3a3.51,3.51,0,0,0,0,5.11,3.91,3.91,0,0,0,2.52,1.05,3.6,3.6,0,0,0,2.52-1.09,3.4,3.4,0,0,0,1-2.52,3.45,3.45,0,0,0-1.09-2.55,3.54,3.54,0,0,0-5,0Z"/><path d="M555.14,179.88a14.38,14.38,0,0,1-5.25,1.16,12.69,12.69,0,0,1-9-3.5,12.24,12.24,0,0,1-3.54-8.51,12.52,12.52,0,0,1,3.54-8.61,12.38,12.38,0,0,1,8.82-3.64,14.57,14.57,0,0,1,5.46,1.19v7.25a6.5,6.5,0,0,0-5.29-2.56,5.93,5.93,0,0,0-4.2,1.54,6.54,6.54,0,0,0-2,4.8,6.47,6.47,0,0,0,1.89,4.55,6.56,6.56,0,0,0,4.34,1.61,6.88,6.88,0,0,0,5.29-2.45Z"/><path d="M573.23,176.59h-8.47l-1.57,3.92h-6.41l9-23.34h6.62l8.78,23.34h-6.47ZM571.62,172,569,164.41,566.44,172Z"/><path d="M880.11,133a5.67,5.67,0,0,1,1.79,4.13,6.31,6.31,0,0,1-1.89,4.41c-.81.81-2.91,2.49-7.07,2.49-4,0-6.06-1.54-7-2.45a6.46,6.46,0,0,1-1.92-4.45,6.33,6.33,0,0,1,1.71-4.2,7.82,7.82,0,0,1,2.94-1.71,6.62,6.62,0,0,1-2.1-1.33,5.15,5.15,0,0,1-1.57-3.71,6.08,6.08,0,0,1,1.92-4.41,9.2,9.2,0,0,1,6.23-2.14,8.3,8.3,0,0,1,6,2.24,5.9,5.9,0,0,1,1.72,4.27,4.9,4.9,0,0,1-1.44,3.64,6.73,6.73,0,0,1-2.38,1.44A7.22,7.22,0,0,1,880.11,133Zm-9.1,1.47a2.71,2.71,0,0,0,0,3.89,2.82,2.82,0,0,0,2,.84,2.56,2.56,0,0,0,2-.81,2.67,2.67,0,0,0,.84-2,2.54,2.54,0,0,0-.84-1.93,2.87,2.87,0,0,0-2-.8A3,3,0,0,0,871,134.48Zm.11-10a2.63,2.63,0,0,0-.7,1.78,2.6,2.6,0,0,0,.73,1.68,2.53,2.53,0,0,0,1.86.77,2.34,2.34,0,0,0,1.71-.7,2.58,2.58,0,0,0,.81-1.78,2.63,2.63,0,0,0-.81-1.86,2.37,2.37,0,0,0-1.68-.7A2.51,2.51,0,0,0,871.12,124.51Z"/><path d="M886.24,143.09a3.52,3.52,0,0,1-1.09-2.55,3.57,3.57,0,0,1,1.09-2.56,3.53,3.53,0,0,1,2.55-1.08,3.67,3.67,0,0,1,2.59,1.12,3.32,3.32,0,0,1,1,2.52,3.38,3.38,0,0,1-1,2.55,3.59,3.59,0,0,1-2.56,1.09A3.55,3.55,0,0,1,886.24,143.09Z"/><path d="M908.85,120.17l5.6,14.21,5.67-14.21h6.58l-9.94,23.34H912l-9.8-23.34Z"/><path d="M943.46,136.72H931.81a4,4,0,0,0,1,2.63,3.15,3.15,0,0,0,2.31.77,4.51,4.51,0,0,0,1.82-.42,2.64,2.64,0,0,0,1-1h5.35a7,7,0,0,1-1.89,3.22c-1.15,1.12-3,2.17-6.37,2.17a8.88,8.88,0,0,1-6.47-2.38,8.19,8.19,0,0,1-2.31-5.92,8.36,8.36,0,0,1,2.34-6.05,8.83,8.83,0,0,1,6.41-2.28,8.58,8.58,0,0,1,6,2.14,8.77,8.77,0,0,1,2.48,6.58Zm-5.14-3.22a3.78,3.78,0,0,0-.91-1.68,3.29,3.29,0,0,0-2.31-.84,3,3,0,0,0-2.28.84,3.27,3.27,0,0,0-.84,1.68Z"/><path d="M946.68,127.87h5.6v2.55a5.06,5.06,0,0,1,2.21-2.17,6.15,6.15,0,0,1,2.9-.63c.14,0,.39,0,1.12.07V133a4.93,4.93,0,0,0-2.41-.56,3.66,3.66,0,0,0-2.56.84,4.72,4.72,0,0,0-1.26,3.57v6.68h-5.6Z"/><path d="M963.8,118.21a3.15,3.15,0,1,1-3.15,3.15A3.14,3.14,0,0,1,963.8,118.21Zm2.8,9.66v15.64H961V127.87Z"/><path d="M976.43,132.45v11.06h-5.6V132.45h-2v-4.58h2v-1.93c0-2.1.28-4.34,2.14-6.12a8.85,8.85,0,0,1,6.16-2.21,9.44,9.44,0,0,1,6.26,2.1,7.13,7.13,0,0,1,2,5.25v.81h-5.6v-.53a3.24,3.24,0,0,0-.7-2.1,2.86,2.86,0,0,0-2-.7,2.65,2.65,0,0,0-1.92.81,3.2,3.2,0,0,0-.74,2.41v2.21h3.92v4.58Zm10.92-4.58v15.64h-5.6V127.87Z"/><path d="M1002.68,143.17a8.34,8.34,0,0,1-3.88.87,8.65,8.65,0,0,1-6.16-2.38,8.21,8.21,0,0,1-2.42-5.85,8.53,8.53,0,0,1,2.52-6.05,9,9,0,0,1,6.3-2.38,8,8,0,0,1,3.64.87v4.69a5,5,0,0,0-2.9-1,3.67,3.67,0,0,0-2.73,1.08,3.83,3.83,0,0,0-1.09,2.7,4,4,0,0,0,1,2.62,3.82,3.82,0,0,0,2.87,1.19,4.2,4.2,0,0,0,2.87-1.05Z"/><path d="M1018,127.87h5.6v15.64H1018V141.8a5.87,5.87,0,0,1-4.87,2.24,7.47,7.47,0,0,1-5.63-2.49,7.86,7.86,0,0,1-2.24-5.74,8.64,8.64,0,0,1,2.41-6.26,8.07,8.07,0,0,1,5.64-2.21,6.22,6.22,0,0,1,4.69,2Zm-5.88,5.25a3.52,3.52,0,0,0,0,5.11,4,4,0,0,0,2.52,1.05,3.6,3.6,0,0,0,2.52-1.09,3.4,3.4,0,0,0,1-2.52,3.47,3.47,0,0,0-1.08-2.55,3.54,3.54,0,0,0-5,0Z"/><path d="M1027.43,127.87h5.6v2.55a5,5,0,0,1,2.2-2.17,6.19,6.19,0,0,1,2.91-.63c.14,0,.38,0,1.12.07V133a5,5,0,0,0-2.42-.56,3.63,3.63,0,0,0-2.55.84,4.72,4.72,0,0,0-1.26,3.57v6.68h-5.6Z"/><path d="M1058.33,136.72h-11.65a4,4,0,0,0,1,2.63,3.15,3.15,0,0,0,2.31.77,4.51,4.51,0,0,0,1.82-.42,2.64,2.64,0,0,0,1-1h5.35a7,7,0,0,1-1.89,3.22c-1.15,1.12-3,2.17-6.37,2.17a8.88,8.88,0,0,1-6.47-2.38,8.19,8.19,0,0,1-2.31-5.92,8.36,8.36,0,0,1,2.34-6.05,8.83,8.83,0,0,1,6.41-2.28,8.58,8.58,0,0,1,6,2.14,8.77,8.77,0,0,1,2.48,6.58Zm-5.14-3.22a3.78,3.78,0,0,0-.91-1.68A3.29,3.29,0,0,0,1050,131a3,3,0,0,0-2.28.84,3.27,3.27,0,0,0-.84,1.68Z"/><path d="M1074,127.87l3.75,8,3.82-8h6.23l-8.16,15.64h-3.81l-8.09-15.64Z"/><path d="M1101.87,127.87h5.6v15.64h-5.6V141.8A5.84,5.84,0,0,1,1097,144a7.49,7.49,0,0,1-5.64-2.49,7.86,7.86,0,0,1-2.24-5.74,8.64,8.64,0,0,1,2.41-6.26,8.09,8.09,0,0,1,5.64-2.21,6.2,6.2,0,0,1,4.69,2Zm-5.88,5.25a3.51,3.51,0,0,0,0,5.11,3.91,3.91,0,0,0,2.52,1.05,3.6,3.6,0,0,0,2.52-1.09,3.4,3.4,0,0,0,1-2.52,3.45,3.45,0,0,0-1.09-2.55,3.54,3.54,0,0,0-5,0Z"/><path d="M1116.92,118v25.51h-5.6V118Z"/><path d="M1123.54,118.21a3.15,3.15,0,1,1-3.16,3.15A3.14,3.14,0,0,1,1123.54,118.21Zm2.8,9.66v15.64h-5.61V127.87Z"/><path d="M1147.86,143.51h-5.6V141.8a5.73,5.73,0,0,1-4.72,2.24,7.52,7.52,0,0,1-5.5-2.17,8.62,8.62,0,0,1-2.52-6.23,8.53,8.53,0,0,1,2.56-6.2,8,8,0,0,1,5.53-2.1,6.2,6.2,0,0,1,4.65,2V118h5.6Zm-6.61-5.18a3.75,3.75,0,0,0,1.19-2.66,4.12,4.12,0,0,0-1-2.52,3.45,3.45,0,0,0-2.56-1.05,3.42,3.42,0,0,0-2.48,1,3.85,3.85,0,0,0-1.09,2.66,3.54,3.54,0,0,0,1.09,2.45,3.47,3.47,0,0,0,2.48,1.05A3.83,3.83,0,0,0,1141.25,138.33Z"/><path d="M1154.51,118.21a3.15,3.15,0,1,1-3.15,3.15A3.14,3.14,0,0,1,1154.51,118.21Zm2.8,9.66v15.64h-5.6V127.87Z"/><path d="M1167.32,132.45v11.06h-5.6V132.45h-1.79v-4.58h1.79v-5.15h5.6v5.15h3.19v4.58Z"/><path d="M1184.71,127.87h5.61v15.64h-5.61V141.8a5.84,5.84,0,0,1-4.86,2.24,7.49,7.49,0,0,1-5.64-2.49,7.9,7.9,0,0,1-2.24-5.74,8.64,8.64,0,0,1,2.42-6.26,8,8,0,0,1,5.63-2.21,6.2,6.2,0,0,1,4.69,2Zm-5.88,5.25a3.51,3.51,0,0,0,0,5.11,3.93,3.93,0,0,0,2.52,1.05,3.6,3.6,0,0,0,2.52-1.09,3.4,3.4,0,0,0,1.05-2.52,3.45,3.45,0,0,0-1.09-2.55,3.54,3.54,0,0,0-5,0Z"/><path d="M1200.36,132.45v11.06h-5.6V132.45H1193v-4.58h1.79v-5.15h5.6v5.15h3.18v4.58Z"/><path d="M1222.23,136.72h-11.65a4,4,0,0,0,1,2.63,3.15,3.15,0,0,0,2.31.77,4.51,4.51,0,0,0,1.82-.42,2.64,2.64,0,0,0,1-1H1222a7,7,0,0,1-1.89,3.22c-1.15,1.12-3,2.17-6.37,2.17a8.88,8.88,0,0,1-6.47-2.38,8.19,8.19,0,0,1-2.31-5.92,8.36,8.36,0,0,1,2.34-6.05,8.83,8.83,0,0,1,6.41-2.28,8.58,8.58,0,0,1,6,2.14,8.73,8.73,0,0,1,2.48,6.58Zm-5.14-3.22a3.78,3.78,0,0,0-.91-1.68,3.29,3.29,0,0,0-2.31-.84,3,3,0,0,0-2.28.84,3.27,3.27,0,0,0-.84,1.68Z"/><path d="M940.35,185.17a8.37,8.37,0,0,1-3.89.87,8.67,8.67,0,0,1-6.16-2.38,8.2,8.2,0,0,1-2.41-5.85,8.49,8.49,0,0,1,2.52-6.05,9,9,0,0,1,6.3-2.38,8,8,0,0,1,3.64.87v4.69a5.05,5.05,0,0,0-2.91-1,3.67,3.67,0,0,0-2.73,1.08,3.81,3.81,0,0,0-1.08,2.7,4,4,0,0,0,1,2.62,3.78,3.78,0,0,0,2.87,1.19,4.23,4.23,0,0,0,2.87-1.05Z"/><path d="M960.12,178.72H948.47a4,4,0,0,0,1,2.63,3.15,3.15,0,0,0,2.31.77,4.51,4.51,0,0,0,1.82-.42,2.64,2.64,0,0,0,1-1h5.35a7,7,0,0,1-1.89,3.22c-1.15,1.12-3,2.17-6.37,2.17a8.88,8.88,0,0,1-6.47-2.38,8.19,8.19,0,0,1-2.31-5.92,8.36,8.36,0,0,1,2.34-6.05,8.83,8.83,0,0,1,6.41-2.28,8.58,8.58,0,0,1,6,2.14,8.77,8.77,0,0,1,2.48,6.58ZM955,175.5a3.78,3.78,0,0,0-.91-1.68,3.29,3.29,0,0,0-2.31-.84,3,3,0,0,0-2.28.84,3.27,3.27,0,0,0-.84,1.68Z"/><path d="M963.34,169.87h5.6v2.55a5.06,5.06,0,0,1,2.21-2.17,6.15,6.15,0,0,1,2.9-.63c.14,0,.39,0,1.12.07V175a4.93,4.93,0,0,0-2.41-.56,3.66,3.66,0,0,0-2.56.84,4.72,4.72,0,0,0-1.26,3.57v6.68h-5.6Z"/><path d="M984.38,174.45v11.06h-5.6V174.45H977v-4.58h1.79v-5.15h5.6v5.15h3.18v4.58Z"/><path d="M992.46,160.21a3.15,3.15,0,1,1-3.15,3.15A3.14,3.14,0,0,1,992.46,160.21Zm2.8,9.66v15.64h-5.6V169.87Z"/><path d="M1005.1,174.45v11.06h-5.6V174.45h-2v-4.58h2v-1.93c0-2.1.28-4.34,2.13-6.12a8.88,8.88,0,0,1,6.16-2.21,9.45,9.45,0,0,1,6.27,2.1,7.13,7.13,0,0,1,2,5.25v.81h-5.6v-.53a3.24,3.24,0,0,0-.7-2.1,2.9,2.9,0,0,0-2-.7,2.67,2.67,0,0,0-1.93.81,3.23,3.23,0,0,0-.73,2.41v2.21H1009v4.58Zm10.92-4.58v15.64h-5.6V169.87Z"/><path d="M1031.35,185.17a8.37,8.37,0,0,1-3.89.87,8.67,8.67,0,0,1-6.16-2.38,8.2,8.2,0,0,1-2.41-5.85,8.49,8.49,0,0,1,2.52-6.05,9,9,0,0,1,6.3-2.38,8,8,0,0,1,3.64.87v4.69a5.05,5.05,0,0,0-2.91-1,3.67,3.67,0,0,0-2.73,1.08,3.81,3.81,0,0,0-1.08,2.7,4,4,0,0,0,1,2.62,3.78,3.78,0,0,0,2.87,1.19,4.23,4.23,0,0,0,2.87-1.05Z"/><path d="M1046.64,169.87h5.6v15.64h-5.6V183.8a5.84,5.84,0,0,1-4.86,2.24,7.49,7.49,0,0,1-5.64-2.49,7.9,7.9,0,0,1-2.24-5.74,8.64,8.64,0,0,1,2.42-6.26,8,8,0,0,1,5.63-2.21,6.2,6.2,0,0,1,4.69,2Zm-5.88,5.25a3.51,3.51,0,0,0,0,5.11,3.91,3.91,0,0,0,2.52,1.05,3.6,3.6,0,0,0,2.52-1.09,3.4,3.4,0,0,0,1-2.52,3.45,3.45,0,0,0-1.09-2.55,3.54,3.54,0,0,0-5,0Z"/><path d="M1062.29,174.45v11.06h-5.6V174.45h-1.79v-4.58h1.79v-5.15h5.6v5.15h3.18v4.58Z"/><path d="M1087.56,185.17a8.37,8.37,0,0,1-3.89.87,8.67,8.67,0,0,1-6.16-2.38,8.21,8.21,0,0,1-2.42-5.85,8.53,8.53,0,0,1,2.52-6.05,9,9,0,0,1,6.31-2.38,8,8,0,0,1,3.64.87v4.69a5.05,5.05,0,0,0-2.91-1,3.67,3.67,0,0,0-2.73,1.08,3.83,3.83,0,0,0-1.09,2.7,4,4,0,0,0,1,2.62,3.83,3.83,0,0,0,2.88,1.19,4.23,4.23,0,0,0,2.87-1.05Z"/><path d="M1096.34,160v25.51h-5.6V160Z"/><path d="M1103,160.21a3.15,3.15,0,1,1-3.15,3.15A3.14,3.14,0,0,1,1103,160.21Zm2.8,9.66v15.64h-5.6V169.87Z"/><path d="M1126.16,178.72H1114.5a4,4,0,0,0,1,2.63,3.16,3.16,0,0,0,2.31.77,4.51,4.51,0,0,0,1.83-.42,2.64,2.64,0,0,0,1-1H1126a7,7,0,0,1-1.89,3.22c-1.15,1.12-3,2.17-6.37,2.17a8.92,8.92,0,0,1-6.48-2.38,8.23,8.23,0,0,1-2.31-5.92,8.33,8.33,0,0,1,2.35-6.05,8.8,8.8,0,0,1,6.41-2.28,8.58,8.58,0,0,1,6,2.14,8.77,8.77,0,0,1,2.48,6.58ZM1121,175.5a3.78,3.78,0,0,0-.91-1.68,3.31,3.31,0,0,0-2.32-.84,3,3,0,0,0-2.27.84,3.12,3.12,0,0,0-.84,1.68Z"/><path d="M1129.38,169.87h5.6v2a5.9,5.9,0,0,1,5-2.31,6.3,6.3,0,0,1,4.62,1.68c1.33,1.33,1.47,2.66,1.47,4.37v9.94h-5.6V177.6c0-.91,0-2.27-.7-3a2.37,2.37,0,0,0-1.79-.67,3.05,3.05,0,0,0-2.06.74,3.58,3.58,0,0,0-.91,2.48v8.4h-5.6Z"/><path d="M1156.05,174.45v11.06h-5.6V174.45h-1.79v-4.58h1.79v-5.15h5.6v5.15h3.18v4.58Z"/><rect x="76" y="54" width="1319" height="592" rx="12" ry="12" style="fill:none;stroke:#91c54f;stroke-miterlimit:10;stroke-width:7px"/><path d="M592,390.88a14.3,14.3,0,0,1-5.25,1.16,12.71,12.71,0,0,1-9-3.5,12.28,12.28,0,0,1-3.53-8.51,12.24,12.24,0,0,1,12.35-12.25A14.57,14.57,0,0,1,592,369v7.25a6.49,6.49,0,0,0-5.28-2.56,5.93,5.93,0,0,0-4.2,1.54,6.5,6.5,0,0,0-2,4.8,6.43,6.43,0,0,0,1.89,4.55,6.52,6.52,0,0,0,4.34,1.61,6.86,6.86,0,0,0,5.28-2.45Z"/><path d="M595.33,366h5.6v11.83a6.57,6.57,0,0,1,1.75-1.54,7.16,7.16,0,0,1,7.84.91,5.45,5.45,0,0,1,1.47,4.37v9.94h-5.6V383.6a4.65,4.65,0,0,0-.7-3,2.22,2.22,0,0,0-1.79-.67,3,3,0,0,0-2,.67,3.39,3.39,0,0,0-.94,2.55v8.4h-5.6Z"/><path d="M631.69,384.72H620a4,4,0,0,0,1,2.63,3.15,3.15,0,0,0,2.31.77,4.51,4.51,0,0,0,1.82-.42,2.64,2.64,0,0,0,1-1.05h5.35a7,7,0,0,1-1.89,3.22c-1.15,1.12-3,2.17-6.37,2.17a8.88,8.88,0,0,1-6.47-2.38,8.19,8.19,0,0,1-2.31-5.92,8.36,8.36,0,0,1,2.34-6.05,8.83,8.83,0,0,1,6.41-2.28,8.58,8.58,0,0,1,6,2.14,8.77,8.77,0,0,1,2.48,6.58Zm-5.14-3.22a3.78,3.78,0,0,0-.91-1.68,3.29,3.29,0,0,0-2.31-.84,3,3,0,0,0-2.28.84,3.27,3.27,0,0,0-.84,1.68Z"/><path d="M637.71,366.21a3.15,3.15,0,1,1-3.15,3.15A3.14,3.14,0,0,1,637.71,366.21Zm2.8,9.66v15.64h-5.6V375.87Z"/><path d="M660.92,384.72H649.26a4,4,0,0,0,1,2.63,3.15,3.15,0,0,0,2.31.77,4.51,4.51,0,0,0,1.82-.42,2.57,2.57,0,0,0,1-1.05h5.36a7.15,7.15,0,0,1-1.89,3.22c-1.16,1.12-3,2.17-6.37,2.17a8.9,8.9,0,0,1-6.48-2.38,8.23,8.23,0,0,1-2.31-5.92,8.33,8.33,0,0,1,2.35-6.05,8.79,8.79,0,0,1,6.4-2.28,8.57,8.57,0,0,1,6,2.14,8.75,8.75,0,0,1,2.49,6.58Zm-5.15-3.22a3.78,3.78,0,0,0-.91-1.68,3.28,3.28,0,0,0-2.31-.84,3,3,0,0,0-2.27.84,3.12,3.12,0,0,0-.84,1.68Z"/><path d="M538.63,441.53H533V417.87h5.6v1.71a5.85,5.85,0,0,1,4.79-2.24,7.78,7.78,0,0,1,5.57,2.28,8.88,8.88,0,0,1-.14,12.25,7.54,7.54,0,0,1-5.36,2.17,6.66,6.66,0,0,1-4.86-2Zm.91-18.38a3.83,3.83,0,0,0-1.09,2.59,3.78,3.78,0,0,0,1.09,2.49,3.58,3.58,0,0,0,2.52,1,3.37,3.37,0,0,0,2.48-1,3.7,3.7,0,0,0,1.09-2.49,3.79,3.79,0,0,0-1.09-2.59,3.37,3.37,0,0,0-2.48-1A3.58,3.58,0,0,0,539.54,423.15Z"/><path d="M560.19,417.87v8.75a3,3,0,0,0,.84,2.27,2.89,2.89,0,0,0,2,.6,2.59,2.59,0,0,0,2-.67,2.86,2.86,0,0,0,.81-2.2v-8.75h5.6v9.76a5.36,5.36,0,0,1-1.5,4.2c-1.93,2-4.63,2.21-6.76,2.21-2.35,0-5.22-.25-7.07-2.24a5.63,5.63,0,0,1-1.47-4.17v-9.76Z"/><path d="M580.84,408v11.37a6.2,6.2,0,0,1,4.65-2,8,8,0,0,1,5.54,2.1,8.89,8.89,0,0,1,0,12.43,7.51,7.51,0,0,1-5.5,2.17,5.73,5.73,0,0,1-4.72-2.24v1.71h-5.6V408Zm5.91,20.23a3.54,3.54,0,0,0,1.09-2.45,3.85,3.85,0,0,0-1.09-2.66,3.42,3.42,0,0,0-2.48-1,3.45,3.45,0,0,0-2.56,1,4.12,4.12,0,0,0-1.05,2.52,3.75,3.75,0,0,0,1.19,2.66,3.83,3.83,0,0,0,2.42.95A3.47,3.47,0,0,0,586.75,428.23Z"/><path d="M602.4,408v25.51h-5.6V408Z"/><path d="M609,408.21a3.15,3.15,0,1,1-3.15,3.15A3.14,3.14,0,0,1,609,408.21Zm2.8,9.66v15.64h-5.6V417.87Z"/><path d="M627.46,433.17a8.35,8.35,0,0,1-3.89.87,8.67,8.67,0,0,1-6.16-2.38,8.2,8.2,0,0,1-2.41-5.85,8.49,8.49,0,0,1,2.52-6.05,9,9,0,0,1,6.3-2.38,8,8,0,0,1,3.64.87v4.69a5,5,0,0,0-2.91-1,3.67,3.67,0,0,0-2.73,1.08,3.81,3.81,0,0,0-1.08,2.7,4,4,0,0,0,1,2.62,3.78,3.78,0,0,0,2.87,1.19,4.21,4.21,0,0,0,2.87-1Z"/><path d="M642.75,417.87h5.61v15.64h-5.61V431.8a5.84,5.84,0,0,1-4.86,2.24,7.49,7.49,0,0,1-5.64-2.49,7.9,7.9,0,0,1-2.24-5.74,8.64,8.64,0,0,1,2.42-6.26,8,8,0,0,1,5.63-2.21,6.2,6.2,0,0,1,4.69,2Zm3.08-8.05a5.46,5.46,0,0,1-1.54,3.81,7.34,7.34,0,0,1-9.1,0,5.55,5.55,0,0,1-1.54-3.81h3.61a2.4,2.4,0,0,0,.7,1.43,2.84,2.84,0,0,0,3.57,0,2.4,2.4,0,0,0,.7-1.43Zm-9,13.3a3.51,3.51,0,0,0,0,5.11,3.91,3.91,0,0,0,2.52,1,3.6,3.6,0,0,0,2.52-1.09,3.4,3.4,0,0,0,1-2.52,3.45,3.45,0,0,0-1.09-2.55,3.54,3.54,0,0,0-5,0Z"/><path d="M677.65,432.88A14.38,14.38,0,0,1,672.4,434a12.69,12.69,0,0,1-9-3.5,12.24,12.24,0,0,1-3.54-8.51,12.52,12.52,0,0,1,3.54-8.61,12.38,12.38,0,0,1,8.82-3.64,14.57,14.57,0,0,1,5.46,1.19v7.25a6.5,6.5,0,0,0-5.29-2.56,5.93,5.93,0,0,0-4.2,1.54,6.54,6.54,0,0,0-2,4.8,6.47,6.47,0,0,0,1.89,4.55,6.56,6.56,0,0,0,4.34,1.61,6.88,6.88,0,0,0,5.29-2.45Z"/><path d="M695.74,429.59h-8.47l-1.57,3.92h-6.41l9-23.34h6.62l8.78,23.34h-6.47ZM694.13,425l-2.62-7.56L689,425Z"/><circle cx="662.61" cy="269.97" r="17.47" style="fill:none;stroke:#c13018;stroke-miterlimit:10;stroke-width:6.11437784099579px"/><rect x="590.98" y="306.65" width="72.49" height="5.24" rx="1.51" ry="1.51" transform="translate(-34.97 534.1) rotate(-45)" style="fill:#c13018"/><rect x="609.76" y="325.43" width="3.49" height="14.85" rx="1.01" ry="1.01" transform="translate(-56.25 529.89) rotate(-45)" style="fill:#c13018"/><rect x="616.2" y="319.69" width="3.49" height="18.23" rx="1.01" ry="1.01" transform="translate(-51.51 533.26) rotate(-45)" style="fill:#c13018"/><rect x="621.88" y="314.01" width="3.49" height="18.23" rx="1.01" ry="1.01" transform="translate(-45.83 535.61) rotate(-45)" style="fill:#c13018"/><path d="M153.22,390.88A14.38,14.38,0,0,1,148,392a12.69,12.69,0,0,1-9-3.5A12.24,12.24,0,0,1,135.4,380a12.52,12.52,0,0,1,3.54-8.61,12.38,12.38,0,0,1,8.82-3.64,14.57,14.57,0,0,1,5.46,1.19v7.25a6.5,6.5,0,0,0-5.29-2.56,5.93,5.93,0,0,0-4.2,1.54,6.54,6.54,0,0,0-2,4.8,6.47,6.47,0,0,0,1.89,4.55,6.56,6.56,0,0,0,4.34,1.61,6.88,6.88,0,0,0,5.29-2.45Z"/><path d="M173.13,384.72H161.48a4,4,0,0,0,1,2.63,3.15,3.15,0,0,0,2.31.77,4.51,4.51,0,0,0,1.82-.42,2.64,2.64,0,0,0,1-1.05h5.35a7,7,0,0,1-1.89,3.22c-1.15,1.12-3,2.17-6.37,2.17a8.88,8.88,0,0,1-6.47-2.38,8.19,8.19,0,0,1-2.31-5.92,8.32,8.32,0,0,1,2.34-6.05,8.83,8.83,0,0,1,6.41-2.28,8.58,8.58,0,0,1,6,2.14,8.77,8.77,0,0,1,2.48,6.58ZM168,381.5a3.78,3.78,0,0,0-.91-1.68,3.29,3.29,0,0,0-2.31-.84,3,3,0,0,0-2.28.84,3.27,3.27,0,0,0-.84,1.68Z"/><path d="M176.35,375.87H182v2.55a5.06,5.06,0,0,1,2.21-2.17,6.15,6.15,0,0,1,2.9-.63c.14,0,.39,0,1.12.07V381a4.93,4.93,0,0,0-2.41-.56,3.66,3.66,0,0,0-2.56.84,4.72,4.72,0,0,0-1.26,3.57v6.68h-5.6Z"/><path d="M197.38,380.45v11.06h-5.6V380.45H190v-4.58h1.78v-5.15h5.6v5.15h3.19v4.58Z"/><path d="M205.47,366.21a3.15,3.15,0,1,1-3.15,3.15A3.14,3.14,0,0,1,205.47,366.21Zm2.8,9.66v15.64h-5.6V375.87Z"/><path d="M218.1,380.45v11.06h-5.6V380.45h-2v-4.58h2v-1.93c0-2.1.28-4.34,2.14-6.12a8.85,8.85,0,0,1,6.16-2.21,9.47,9.47,0,0,1,6.27,2.1,7.13,7.13,0,0,1,2,5.25v.81h-5.6v-.53a3.24,3.24,0,0,0-.7-2.1,2.91,2.91,0,0,0-2-.7,2.65,2.65,0,0,0-1.92.81,3.2,3.2,0,0,0-.74,2.41v2.21H222v4.58ZM229,375.87v15.64h-5.6V375.87Z"/><path d="M244.35,391.17a8.31,8.31,0,0,1-3.88.87,8.65,8.65,0,0,1-6.16-2.38,8.21,8.21,0,0,1-2.42-5.85,8.53,8.53,0,0,1,2.52-6.05,9,9,0,0,1,6.3-2.38,8,8,0,0,1,3.64.87v4.69a5,5,0,0,0-2.9-1,3.67,3.67,0,0,0-2.73,1.08,3.83,3.83,0,0,0-1.09,2.7,4,4,0,0,0,1,2.62,3.82,3.82,0,0,0,2.87,1.19,4.2,4.2,0,0,0,2.87-1Z"/><path d="M259.65,375.87h5.6v15.64h-5.6V389.8a5.87,5.87,0,0,1-4.87,2.24,7.47,7.47,0,0,1-5.63-2.49,7.86,7.86,0,0,1-2.24-5.74,8.64,8.64,0,0,1,2.41-6.26,8.07,8.07,0,0,1,5.64-2.21,6.22,6.22,0,0,1,4.69,2Zm-5.88,5.25a3.52,3.52,0,0,0,0,5.11,4,4,0,0,0,2.52,1,3.6,3.6,0,0,0,2.52-1.09,3.4,3.4,0,0,0,1.05-2.52,3.47,3.47,0,0,0-1.08-2.55,3.54,3.54,0,0,0-5,0Z"/><path d="M275.29,380.45v11.06h-5.6V380.45h-1.78v-4.58h1.78v-5.15h5.6v5.15h3.19v4.58Z"/><path d="M306,390.88a14.3,14.3,0,0,1-5.25,1.16,12.71,12.71,0,0,1-9-3.5,12.28,12.28,0,0,1-3.53-8.51,12.24,12.24,0,0,1,12.35-12.25A14.57,14.57,0,0,1,306,369v7.25a6.49,6.49,0,0,0-5.28-2.56,5.93,5.93,0,0,0-4.2,1.54,6.5,6.5,0,0,0-2,4.8,6.43,6.43,0,0,0,1.89,4.55,6.52,6.52,0,0,0,4.34,1.61,6.86,6.86,0,0,0,5.28-2.45Z"/><path d="M324.12,387.59h-8.47l-1.58,3.92h-6.4l9-23.34h6.61L332,391.51h-6.48ZM322.51,383l-2.63-7.56L317.33,383Z"/><path d="M780.39,390.88a14.3,14.3,0,0,1-5.25,1.16,12.69,12.69,0,0,1-9-3.5,12.24,12.24,0,0,1-3.54-8.51,12.52,12.52,0,0,1,3.54-8.61,12.38,12.38,0,0,1,8.82-3.64,14.57,14.57,0,0,1,5.46,1.19v7.25a6.49,6.49,0,0,0-5.28-2.56,5.94,5.94,0,0,0-4.21,1.54,6.54,6.54,0,0,0-2,4.8,6.47,6.47,0,0,0,1.89,4.55,6.57,6.57,0,0,0,4.35,1.61,6.86,6.86,0,0,0,5.28-2.45Z"/><path d="M800.31,384.72H788.65a4,4,0,0,0,1,2.63,3.15,3.15,0,0,0,2.31.77,4.51,4.51,0,0,0,1.82-.42,2.57,2.57,0,0,0,1-1.05h5.36a7.15,7.15,0,0,1-1.89,3.22c-1.16,1.12-3,2.17-6.38,2.17a8.88,8.88,0,0,1-6.47-2.38,8.19,8.19,0,0,1-2.31-5.92,8.36,8.36,0,0,1,2.34-6.05,8.83,8.83,0,0,1,6.41-2.28,8.58,8.58,0,0,1,6,2.14,8.75,8.75,0,0,1,2.49,6.58Zm-5.15-3.22a3.78,3.78,0,0,0-.91-1.68,3.29,3.29,0,0,0-2.31-.84,3,3,0,0,0-2.28.84,3.27,3.27,0,0,0-.84,1.68Z"/><path d="M803.52,375.87h5.6v2.55a5.06,5.06,0,0,1,2.21-2.17,6.15,6.15,0,0,1,2.9-.63c.14,0,.39,0,1.12.07V381a4.93,4.93,0,0,0-2.41-.56,3.66,3.66,0,0,0-2.56.84,4.72,4.72,0,0,0-1.26,3.57v6.68h-5.6Z"/><path d="M824.56,380.45v11.06H819V380.45h-1.79v-4.58H819v-5.15h5.6v5.15h3.18v4.58Z"/><path d="M832.64,366.21a3.15,3.15,0,1,1-3.15,3.15A3.14,3.14,0,0,1,832.64,366.21Zm2.8,9.66v15.64h-5.6V375.87Z"/><path d="M845.28,380.45v11.06h-5.6V380.45h-2v-4.58h2v-1.93c0-2.1.28-4.34,2.13-6.12a8.88,8.88,0,0,1,6.16-2.21,9.45,9.45,0,0,1,6.27,2.1,7.13,7.13,0,0,1,2,5.25v.81h-5.6v-.53a3.24,3.24,0,0,0-.7-2.1,2.9,2.9,0,0,0-2-.7,2.67,2.67,0,0,0-1.93.81,3.23,3.23,0,0,0-.73,2.41v2.21h3.92v4.58Zm10.92-4.58v15.64h-5.6V375.87Z"/><path d="M871.53,391.17a8.37,8.37,0,0,1-3.89.87,8.67,8.67,0,0,1-6.16-2.38,8.2,8.2,0,0,1-2.41-5.85,8.49,8.49,0,0,1,2.52-6.05,9,9,0,0,1,6.3-2.38,8,8,0,0,1,3.64.87v4.69a5.05,5.05,0,0,0-2.91-1,3.67,3.67,0,0,0-2.73,1.08,3.81,3.81,0,0,0-1.08,2.7,4,4,0,0,0,1,2.62,3.78,3.78,0,0,0,2.87,1.19,4.23,4.23,0,0,0,2.87-1Z"/><path d="M886.82,375.87h5.6v15.64h-5.6V389.8A5.84,5.84,0,0,1,882,392a7.49,7.49,0,0,1-5.64-2.49,7.9,7.9,0,0,1-2.24-5.74,8.64,8.64,0,0,1,2.42-6.26,8,8,0,0,1,5.63-2.21,6.2,6.2,0,0,1,4.69,2Zm-5.88,5.25a3.51,3.51,0,0,0,0,5.11,3.91,3.91,0,0,0,2.52,1,3.6,3.6,0,0,0,2.52-1.09,3.4,3.4,0,0,0,1-2.52,3.45,3.45,0,0,0-1.09-2.55,3.54,3.54,0,0,0-5,0Z"/><path d="M902.47,380.45v11.06h-5.6V380.45h-1.79v-4.58h1.79v-5.15h5.6v5.15h3.18v4.58Z"/><path d="M804.45,433.17a8.34,8.34,0,0,1-3.88.87,8.65,8.65,0,0,1-6.16-2.38,8.21,8.21,0,0,1-2.42-5.85,8.53,8.53,0,0,1,2.52-6.05,9,9,0,0,1,6.3-2.38,8,8,0,0,1,3.64.87v4.69a5,5,0,0,0-2.9-1,3.67,3.67,0,0,0-2.73,1.08,3.83,3.83,0,0,0-1.09,2.7,4,4,0,0,0,1,2.62,3.82,3.82,0,0,0,2.87,1.19,4.2,4.2,0,0,0,2.87-1Z"/><path d="M813.24,408v25.51h-5.6V408Z"/><path d="M819.85,408.21a3.15,3.15,0,1,1-3.15,3.15A3.14,3.14,0,0,1,819.85,408.21Zm2.8,9.66v15.64h-5.6V417.87Z"/><path d="M843.06,426.72H831.4a4,4,0,0,0,1,2.63,3.15,3.15,0,0,0,2.31.77,4.51,4.51,0,0,0,1.82-.42,2.57,2.57,0,0,0,1-1.05h5.36a7.15,7.15,0,0,1-1.89,3.22c-1.16,1.12-3,2.17-6.37,2.17a8.9,8.9,0,0,1-6.48-2.38,8.23,8.23,0,0,1-2.31-5.92,8.33,8.33,0,0,1,2.35-6.05,8.79,8.79,0,0,1,6.4-2.28,8.57,8.57,0,0,1,6,2.14,8.75,8.75,0,0,1,2.49,6.58Zm-5.15-3.22a3.78,3.78,0,0,0-.91-1.68,3.28,3.28,0,0,0-2.31-.84,3,3,0,0,0-2.27.84,3.12,3.12,0,0,0-.84,1.68Z"/><path d="M846.28,417.87h5.6v2a5.9,5.9,0,0,1,5-2.31,6.31,6.31,0,0,1,4.62,1.68c1.33,1.33,1.47,2.66,1.47,4.37v9.94h-5.6V425.6c0-.91,0-2.27-.7-3a2.37,2.37,0,0,0-1.79-.67,3.05,3.05,0,0,0-2.06.74,3.58,3.58,0,0,0-.91,2.48v8.4h-5.6Z"/><path d="M873,422.45v11.06h-5.61V422.45h-1.78v-4.58h1.78v-5.15H873v5.15h3.18v4.58Z"/><line x1="209.09" y1="328.22" x2="260.98" y2="328.22" style="fill:none;stroke:#c13018;stroke-miterlimit:10;stroke-width:5px"/><line x1="209.09" y1="314.8" x2="260.98" y2="314.8" style="fill:none;stroke:#c13018;stroke-miterlimit:10;stroke-width:5px"/><line x1="209.09" y1="301.37" x2="260.98" y2="301.37" style="fill:none;stroke:#c13018;stroke-miterlimit:10;stroke-width:5px"/><line x1="209.09" y1="287.95" x2="260.98" y2="287.95" style="fill:none;stroke:#c13018;stroke-miterlimit:10;stroke-width:5px"/><line x1="209.09" y1="274.53" x2="230.51" y2="274.53" style="fill:none;stroke:#c13018;stroke-miterlimit:10;stroke-width:5px"/><path d="M258.26,269.7a7.26,7.26,0,0,1-7.24-7.24V248.89H206.08a7.26,7.26,0,0,0-7.24,7.24v76a7.26,7.26,0,0,0,7.24,7.24H264a7.26,7.26,0,0,0,7.24-7.24V269.7Z" style="fill:none;stroke:#c13018;stroke-miterlimit:10;stroke-width:5px"/><rect x="656.34" y="592.58" width="154.27" height="31.42" rx="6.03" ry="6.03" style="fill:none;stroke:#91c54f;stroke-miterlimit:10;stroke-width:7.04546809196472px"/><circle cx="673.48" cy="604" r="2.86" style="fill:#91c54f"/><circle cx="681.67" cy="604" r="2.86" style="fill:#91c54f"/><circle cx="673.48" cy="612.57" r="2.86" style="fill:#91c54f"/><circle cx="681.67" cy="612.57" r="2.86" style="fill:#91c54f"/><rect x="756.32" y="605.43" width="44.28" height="4.29" rx="0.82" ry="0.82" style="fill:none;stroke:#91c54f;stroke-miterlimit:10;stroke-width:5px"/><rect x="656.34" y="557.35" width="154.27" height="31.42" rx="6.03" ry="6.03" style="fill:none;stroke:#91c54f;stroke-miterlimit:10;stroke-width:7.04546809196472px"/><circle cx="673.48" cy="568.78" r="2.86" style="fill:#91c54f"/><circle cx="681.67" cy="568.78" r="2.86" style="fill:#91c54f"/><circle cx="673.48" cy="577.35" r="2.86" style="fill:#91c54f"/><circle cx="681.67" cy="577.35" r="2.86" style="fill:#91c54f"/><rect x="756.32" y="570.2" width="44.28" height="4.29" rx="0.82" ry="0.82" style="fill:none;stroke:#91c54f;stroke-miterlimit:10;stroke-width:5px"/><rect x="656.34" y="519.3" width="154.27" height="31.42" rx="6.03" ry="6.03" style="fill:none;stroke:#91c54f;stroke-miterlimit:10;stroke-width:7.04546809196472px"/><circle cx="673.48" cy="530.73" r="2.86" style="fill:#91c54f"/><circle cx="681.67" cy="530.73" r="2.86" style="fill:#91c54f"/><circle cx="673.48" cy="539.3" r="2.86" style="fill:#91c54f"/><circle cx="681.67" cy="539.3" r="2.86" style="fill:#91c54f"/><rect x="756.32" y="532.16" width="44.28" height="4.29" rx="0.82" ry="0.82" style="fill:none;stroke:#91c54f;stroke-miterlimit:10;stroke-width:5px"/><path d="M716.39,295.82h12.16V283.58H739v12.24h12.16v9.6H739v12.24h-10.4V305.42H716.39Z"/></svg>