<?xml version="1.0" encoding="UTF-8" standalone="no"?>
<svg
   xmlns:dc="http://purl.org/dc/elements/1.1/"
   xmlns:cc="http://creativecommons.org/ns#"
   xmlns:rdf="http://www.w3.org/1999/02/22-rdf-syntax-ns#"
   xmlns:svg="http://www.w3.org/2000/svg"
   xmlns="http://www.w3.org/2000/svg"
   xmlns:sodipodi="http://sodipodi.sourceforge.net/DTD/sodipodi-0.dtd"
   xmlns:inkscape="http://www.inkscape.org/namespaces/inkscape"
   id="Layer_1"
   data-name="Layer 1"
   viewBox="0 0 1355.2371 509.84283"
   version="1.1"
   sodipodi:docname="checksum.svg"
   inkscape:version="0.92.3 (2405546, 2018-03-11)"
   width="1355.2371"
   height="509.84283">
  <metadata
     id="metadata1970">
    <rdf:RDF>
      <cc:Work
         rdf:about="">
        <dc:format>image/svg+xml</dc:format>
        <dc:type
           rdf:resource="http://purl.org/dc/dcmitype/StillImage" />
        <dc:title>Capitolul12</dc:title>
      </cc:Work>
    </rdf:RDF>
  </metadata>
  <defs
     id="defs1968" />
  <sodipodi:namedview
     pagecolor="#ffffff"
     bordercolor="#666666"
     borderopacity="1"
     objecttolerance="10"
     gridtolerance="10"
     guidetolerance="10"
     inkscape:pageopacity="0"
     inkscape:pageshadow="2"
     inkscape:window-width="1853"
     inkscape:window-height="1019"
     id="namedview1966"
     showgrid="false"
     inkscape:zoom="0.86752504"
     inkscape:cx="555.43624"
     inkscape:cy="273.77181"
     inkscape:window-x="67"
     inkscape:window-y="33"
     inkscape:window-maximized="1"
     inkscape:current-layer="Layer_1"
     fit-margin-top="0"
     fit-margin-left="0"
     fit-margin-right="0"
     fit-margin-bottom="0" />
  <title
     id="title1671">Capitolul12</title>
  <path
     d="m 142.80612,479.78778 h -6.18 v 3.33 h 5.85 v 4.4 h -5.85 v 3.45 h 6.18 v 4.41 h -11.37 v -20 h 11.37 z"
     id="path1673"
     inkscape:connector-curvature="0" />
  <path
     d="m 150.72612,488.09778 -5.43,-6.12 h 6.24 l 2.31,2.76 2.37,-2.76 h 6.21 l -5.55,6.12 6.72,7.29 h -6.39 l -3.42,-4 -3.42,4 h -6.36 z"
     id="path1675"
     inkscape:connector-curvature="0" />
  <path
     d="m 170.01612,502.25778 h -4.8 v -20.28 h 4.8 v 1.47 a 5,5 0 0 1 4.11,-1.93 6.67,6.67 0 0 1 4.77,2 7.61,7.61 0 0 1 -0.12,10.5 6.44,6.44 0 0 1 -4.59,1.86 5.71,5.71 0 0 1 -4.17,-1.74 z m 0.78,-15.74 a 3.27,3.27 0 0 0 -0.93,2.22 3.24,3.24 0 0 0 0.93,2.13 3.07,3.07 0 0 0 2.16,0.9 2.9,2.9 0 0 0 2.13,-0.9 3.17,3.17 0 0 0 0.93,-2.13 3.27,3.27 0 0 0 -0.93,-2.22 2.9,2.9 0 0 0 -2.13,-0.9 3.07,3.07 0 0 0 -2.16,0.9 z"
     id="path1677"
     inkscape:connector-curvature="0" />
  <path
     d="m 197.91612,489.56778 h -10 a 3.39,3.39 0 0 0 0.81,2.25 2.7,2.7 0 0 0 2,0.66 3.79,3.79 0 0 0 1.56,-0.36 2.23,2.23 0 0 0 0.84,-0.9 h 4.6 a 6,6 0 0 1 -1.62,2.76 c -1,1 -2.55,1.86 -5.46,1.86 a 7.61,7.61 0 0 1 -5.55,-2 7,7 0 0 1 -2,-5.07 7.16,7.16 0 0 1 2,-5.19 7.55,7.55 0 0 1 5.49,-1.95 7.35,7.35 0 0 1 5.16,1.83 7.51,7.51 0 0 1 2.13,5.64 z m -4.41,-2.76 a 3.22,3.22 0 0 0 -0.78,-1.44 2.8,2.8 0 0 0 -2,-0.72 2.58,2.58 0 0 0 -2,0.72 2.74,2.74 0 0 0 -0.72,1.44 z"
     id="path1679"
     inkscape:connector-curvature="0" />
  <path
     d="m 215.85612,495.38778 h -4.8 v -1.47 a 4.92,4.92 0 0 1 -4,1.92 6.42,6.42 0 0 1 -4.71,-1.86 7.4,7.4 0 0 1 -2.16,-5.34 7.31,7.31 0 0 1 2.19,-5.31 6.86,6.86 0 0 1 4.74,-1.8 5.31,5.31 0 0 1 4,1.74 v -9.75 h 4.8 z m -5.67,-4.44 a 3.22,3.22 0 0 0 1,-2.28 3.51,3.51 0 0 0 -0.9,-2.16 3.08,3.08 0 0 0 -4.32,0 3.29,3.29 0 0 0 -0.93,2.28 3,3 0 0 0 0.93,2.1 3,3 0 0 0 2.13,0.9 3.28,3.28 0 0 0 2.09,-0.84 z"
     id="path1681"
     inkscape:connector-curvature="0" />
  <path
     d="m 221.55612,473.69778 a 2.7,2.7 0 1 1 -2.7,2.7 2.69,2.69 0 0 1 2.7,-2.7 z m 2.4,8.28 v 13.41 h -4.8 v -13.41 z"
     id="path1683"
     inkscape:connector-curvature="0" />
  <path
     d="m 232.53612,485.90778 v 9.48 h -4.81 v -9.48 h -1.53 v -3.93 h 1.53 v -4.41 h 4.8 v 4.41 h 2.73 v 3.93 z"
     id="path1685"
     inkscape:connector-curvature="0" />
  <path
     d="m 250.56612,493.61778 a 9.18,9.18 0 0 1 -12,0 6.92,6.92 0 0 1 0,-9.87 8.37,8.37 0 0 1 6,-2.22 8.47,8.47 0 0 1 6,2.22 6.92,6.92 0 0 1 0,9.87 z m -8.13,-7.1 a 3.06,3.06 0 0 0 2.16,5.22 3.05,3.05 0 0 0 2.13,-0.9 3,3 0 0 0 0.93,-2.13 3.26,3.26 0 0 0 -0.93,-2.19 3.08,3.08 0 0 0 -4.29,0 z"
     id="path1687"
     inkscape:connector-curvature="0" />
  <path
     d="m 255.39612,481.97778 h 4.8 v 2.19 a 4.33,4.33 0 0 1 1.89,-1.86 5.24,5.24 0 0 1 2.49,-0.54 l 1,0.06 v 4.53 a 4.23,4.23 0 0 0 -2.07,-0.48 3.14,3.14 0 0 0 -2.19,0.72 4,4 0 0 0 -1.08,3.06 v 5.73 h -4.8 z"
     id="path1689"
     inkscape:connector-curvature="0" />
  <path
     d="m 829.05686,116.14801 v -20 h 6.81 a 11.16,11.16 0 0 1 8,2.76 9.77,9.77 0 0 1 2.79,7.29 9.23,9.23 0 0 1 -2.61,6.93 10.87,10.87 0 0 1 -7.68,3 z m 5.19,-4.41 h 1.05 a 6,6 0 0 0 4.38,-1.44 5.45,5.45 0 0 0 1.53,-4.11 6,6 0 0 0 -1.56,-4.38 5.83,5.83 0 0 0 -4.14,-1.26 h -1.26 z"
     id="path1691"
     inkscape:connector-curvature="0" />
  <path
     d="m 863.62686,110.32801 h -10 a 3.39,3.39 0 0 0 0.84,2.25 2.7,2.7 0 0 0 2,0.66 3.79,3.79 0 0 0 1.56,-0.36 2.23,2.23 0 0 0 0.84,-0.9 h 4.59 a 6,6 0 0 1 -1.62,2.76 c -1,1 -2.55,1.86 -5.46,1.86 a 7.61,7.61 0 0 1 -5.55,-2 7,7 0 0 1 -2,-5.07 7.16,7.16 0 0 1 2,-5.19 7.55,7.55 0 0 1 5.49,-1.95 7.35,7.35 0 0 1 5.16,1.83 7.51,7.51 0 0 1 2.13,5.64 z m -4.41,-2.76 a 3.22,3.22 0 0 0 -0.78,-1.44 2.8,2.8 0 0 0 -2,-0.72 2.58,2.58 0 0 0 -1.95,0.72 2.74,2.74 0 0 0 -0.72,1.44 z"
     id="path1693"
     inkscape:connector-curvature="0" />
  <path
     d="m 867.25686,111.70801 a 6.87,6.87 0 0 0 1.92,1 6.25,6.25 0 0 0 1.86,0.33 2,2 0 0 0 1.23,-0.36 0.77,0.77 0 0 0 0.24,-0.63 0.71,0.71 0 0 0 -0.24,-0.6 3,3 0 0 0 -1.26,-0.48 l -1.26,-0.3 a 4.31,4.31 0 0 1 -2.34,-1.17 3.24,3.24 0 0 1 -0.87,-2.31 4.79,4.79 0 0 1 1.26,-3.27 6.77,6.77 0 0 1 4.8,-1.62 11.07,11.07 0 0 1 4.29,0.87 l -1.62,3.06 a 6.64,6.64 0 0 0 -2.52,-0.66 2,2 0 0 0 -1.11,0.27 0.72,0.72 0 0 0 -0.42,0.66 0.78,0.78 0 0 0 0.57,0.75 c 0.45,0.18 0.84,0.18 1.59,0.39 l 0.87,0.24 a 5.67,5.67 0 0 1 2,1.05 3.79,3.79 0 0 1 1,2.67 4.48,4.48 0 0 1 -1.35,3.33 7,7 0 0 1 -5,1.68 9.89,9.89 0 0 1 -5.4,-1.56 z"
     id="path1695"
     inkscape:connector-curvature="0" />
  <path
     d="m 885.05686,106.66801 v 9.48 h -4.8 v -9.48 h -1.53 v -3.93 h 1.53 v -4.41 h 4.8 v 4.41 h 2.73 v 3.93 z"
     id="path1697"
     inkscape:connector-curvature="0" />
  <path
     d="m 891.94688,94.45801 a 2.7,2.7 0 1 1 -2.70002,2.7 2.69,2.69 0 0 1 2.70002,-2.7 z m 2.4,8.28 v 13.41 h -4.80002 v -13.41 z"
     id="path1699"
     inkscape:connector-curvature="0" />
  <path
     d="m 897.61688,102.73801 h 4.8 v 1.68 a 5.06,5.06 0 0 1 4.26,-2 5.42,5.42 0 0 1 4,1.44 4.62,4.62 0 0 1 1.26,3.75 v 8.52 h -4.88 v -6.78 a 3.85,3.85 0 0 0 -0.6,-2.61 2,2 0 0 0 -1.53,-0.57 2.63,2.63 0 0 0 -1.77,0.63 3.08,3.08 0 0 0 -0.78,2.13 v 7.2 h -4.8 z"
     id="path1701"
     inkscape:connector-curvature="0" />
  <path
     d="m 925.54688,102.73801 h 4.79995 v 13.41 h -4.79995 v -1.47 a 5,5 0 0 1 -4.17,1.92 6.42,6.42 0 0 1 -4.83,-2.13 6.76,6.76 0 0 1 -1.92,-4.92 7.42,7.42 0 0 1 2.07,-5.37 6.9,6.9 0 0 1 4.83,-1.89 5.31,5.31 0 0 1 4,1.74 z m -5,4.5 a 3.14,3.14 0 0 0 -1,2.19 3.09,3.09 0 0 0 0.93,2.19 3.37,3.37 0 0 0 2.16,0.9 3.08,3.08 0 0 0 2.16,-0.93 2.91,2.91 0 0 0 0.9,-2.16 3,3 0 0 0 -0.93,-2.19 3,3 0 0 0 -4.26,0 z"
     id="path1703"
     inkscape:connector-curvature="0" />
  <path
     d="m 938.95683,106.66801 v 9.48 h -4.8 v -9.48 h -1.53 v -3.93 h 1.53 v -4.41 h 4.8 v 4.41 h 2.73 v 3.93 z"
     id="path1705"
     inkscape:connector-curvature="0" />
  <path
     d="m 953.86683,102.73801 h 4.8 v 13.41 h -4.8 v -1.47 a 5,5 0 0 1 -4.17,1.92 6.42,6.42 0 0 1 -4.83,-2.13 6.76,6.76 0 0 1 -1.92,-4.92 7.42,7.42 0 0 1 2.07,-5.37 6.9,6.9 0 0 1 4.83,-1.89 5.31,5.31 0 0 1 4,1.74 z m -5,4.5 a 3.14,3.14 0 0 0 -1,2.19 3.09,3.09 0 0 0 0.93,2.19 3.37,3.37 0 0 0 2.16,0.9 3.08,3.08 0 0 0 2.16,-0.93 2.91,2.91 0 0 0 0.9,-2.16 3,3 0 0 0 -0.96,-2.15 3,3 0 0 0 -4.26,0 z"
     id="path1707"
     inkscape:connector-curvature="0" />
  <path
     d="m 961.96683,102.73801 h 4.8 v 2.19 a 4.33,4.33 0 0 1 1.89,-1.86 5.24,5.24 0 0 1 2.49,-0.54 l 1,0.06 v 4.53 a 4.23,4.23 0 0 0 -2.07,-0.48 3.14,3.14 0 0 0 -2.19,0.72 4,4 0 0 0 -1.08,3.06 v 5.73 h -4.8 z"
     id="path1709"
     inkscape:connector-curvature="0" />
  <polygon
     points="262.11,179.72 262.11,191.9 177.59,191.9 177.59,219.31 262.11,219.31 262.11,231.5 288,205.61 "
     style="fill:none;stroke:#4fc2c9;stroke-width:7.19140911px;stroke-miterlimit:10"
     id="polygon1711"
     transform="translate(-69.790369,-38.9245)" />
  <polygon
     points="561.11,179.72 561.11,191.9 476.59,191.9 476.59,219.31 561.11,219.31 561.11,231.5 587,205.61 "
     style="fill:none;stroke:#4fc2c9;stroke-width:7.19140911px;stroke-miterlimit:10"
     id="polygon1717"
     transform="translate(-69.790369,-38.9245)" />
  <polygon
     points="865.11,191.9 780.59,191.9 780.59,219.31 865.11,219.31 865.11,231.5 891,205.61 865.11,179.72 "
     style="fill:none;stroke:#4fc2c9;stroke-width:7.19140911px;stroke-miterlimit:10"
     id="polygon1719"
     transform="translate(240.52361,-45.840727)" />
  <line
     x1="22.550001"
     y1="189.76186"
     x2="62.629997"
     y2="189.76186"
     style="fill:none;stroke:#91c54f;stroke-width:3.86249781px;stroke-miterlimit:10"
     id="line1721" />
  <line
     x1="22.550001"
     y1="179.39186"
     x2="62.629997"
     y2="179.39186"
     style="fill:none;stroke:#91c54f;stroke-width:3.86249781px;stroke-miterlimit:10"
     id="line1723" />
  <line
     x1="22.550001"
     y1="169.02187"
     x2="62.629997"
     y2="169.02187"
     style="fill:none;stroke:#91c54f;stroke-width:3.86249781px;stroke-miterlimit:10"
     id="line1725" />
  <line
     x1="22.550001"
     y1="158.65186"
     x2="62.629997"
     y2="158.65186"
     style="fill:none;stroke:#91c54f;stroke-width:3.86249781px;stroke-miterlimit:10"
     id="line1727" />
  <line
     x1="22.550001"
     y1="148.28186"
     x2="39.089996"
     y2="148.28186"
     style="fill:none;stroke:#91c54f;stroke-width:3.86249781px;stroke-miterlimit:10"
     id="line1729" />
  <path
     d="m 60.550001,144.55186 a 5.61,5.61 0 0 1 -5.59,-5.59 v -10.49 H 20.22 a 5.61,5.61 0 0 0 -5.6,5.59 v 58.73 a 5.61,5.61 0 0 0 5.6,5.59 h 44.740001 a 5.61,5.61 0 0 0 5.59,-5.59 v -48.24 z"
     style="fill:none;stroke:#91c54f;stroke-width:3.86249781px;stroke-miterlimit:10"
     id="path1731"
     inkscape:connector-curvature="0" />
  <line
     x1="1215.9023"
     y1="174.7767"
     x2="1255.9823"
     y2="174.7767"
     style="fill:none;stroke:#91c54f;stroke-width:3.86249781px;stroke-miterlimit:10"
     id="line1745" />
  <line
     x1="1215.9023"
     y1="164.40671"
     x2="1255.9823"
     y2="164.40671"
     style="fill:none;stroke:#91c54f;stroke-width:3.86249781px;stroke-miterlimit:10"
     id="line1747" />
  <line
     x1="1215.9023"
     y1="154.03671"
     x2="1255.9823"
     y2="154.03671"
     style="fill:none;stroke:#91c54f;stroke-width:3.86249781px;stroke-miterlimit:10"
     id="line1749" />
  <line
     x1="1215.9023"
     y1="143.6667"
     x2="1255.9823"
     y2="143.6667"
     style="fill:none;stroke:#91c54f;stroke-width:3.86249781px;stroke-miterlimit:10"
     id="line1751" />
  <line
     x1="1215.9023"
     y1="133.29671"
     x2="1232.4423"
     y2="133.29671"
     style="fill:none;stroke:#91c54f;stroke-width:3.86249781px;stroke-miterlimit:10"
     id="line1753" />
  <path
     d="m 1253.9021,129.5667 a 5.61,5.61 0 0 1 -5.59,-5.59 v -10.49 h -34.74 a 5.61,5.61 0 0 0 -5.6,5.59 v 58.73 a 5.61,5.61 0 0 0 5.6,5.59 h 44.74 a 5.61,5.61 0 0 0 5.59,-5.59 v -48.24 z"
     style="fill:none;stroke:#91c54f;stroke-width:3.86249781px;stroke-miterlimit:10"
     id="path1755"
     inkscape:connector-curvature="0" />
  <rect
     x="260.32962"
     y="130.0255"
     width="104.21"
     height="73.510002"
     rx="12"
     ry="12"
     style="fill:none;stroke:#3a5c84;stroke-width:5px;stroke-miterlimit:10"
     id="rect1757" />
  <path
     d="m 292.49963,159.3555 a 3.94,3.94 0 0 1 -1.05,2.89 0.25,0.25 0 0 0 -0.05,0.27 l 1.29,2.7 a 0.22,0.22 0 0 0 0.24,0.14 3.92,3.92 0 0 1 4.2,3.78 0.25,0.25 0 0 0 0.16,0.22 l 2.82,1 h 0.1 a 0.2,0.2 0 0 0 0.23,-0.08 3.78,3.78 0 0 1 0.58,-0.55 v 0 l 0.29,-0.2 a 1.67,1.67 0 0 1 0.23,-0.12 0.24,0.24 0 0 1 0.11,-0.06 3.75,3.75 0 0 1 1.5,-0.39 3.9,3.9 0 0 1 2.89,1 0.2,0.2 0 0 0 0.27,0 l 2.7,-1.29 v 0 a 0.22,0.22 0 0 0 0.14,-0.23 3.89,3.89 0 0 1 2.5,-3.93 h 0.08 0.15 l 0.25,-0.08 v 0 a 3.66,3.66 0 0 1 0.75,-0.1 0.26,0.26 0 0 0 0.22,-0.17 l 1,-2.82 a 0.26,0.26 0 0 0 -0.07,-0.26 3.9,3.9 0 0 1 -0.3,-5.64 0.23,0.23 0 0 0 0,-0.27 l -0.88,-1.86 v 0 l -0.4,-0.84 a 0.16,0.16 0 0 0 -0.07,-0.07 v 0 0 a 0.13,0.13 0 0 0 -0.1,0 v 0 a 3.92,3.92 0 0 1 -4.2,-3.78 0.22,0.22 0 0 0 -0.16,-0.22 l -2.82,-1 a 0.2,0.2 0 0 0 -0.26,0.07 v 0 a 4,4 0 0 1 -0.89,0.76 h -0.07 l -0.26,0.14 a 3.9,3.9 0 0 1 -4.41,-0.66 0.26,0.26 0 0 0 -0.27,0 l -2.7,1.29 a 0.23,0.23 0 0 0 -0.13,0.24 3.93,3.93 0 0 1 -3.79,4.2 0.21,0.21 0 0 0 -0.22,0.16 l -0.69,1.95 v 0 l -0.31,0.88 a 0.27,0.27 0 0 0 0.07,0.27 3.9,3.9 0 0 1 1.33,2.66 z m 6.13,-4.77 v 0 l 0.27,-0.22 0.19,-0.16 0.12,-0.13 a 5.81,5.81 0 1 1 5.83,10 l -0.48,0.2 v 0 a 5.82,5.82 0 0 1 -5.93,-9.72 z"
     style="fill:#3a5c84"
     id="path1759"
     inkscape:connector-curvature="0" />
  <path
     d="m 305.99963,180.4955 a 5,5 0 0 1 -1.35,3.71 0.32,0.32 0 0 0 -0.06,0.35 l 1.66,3.46 c 0.1,0.2 0.21,0.19 0.3,0.18 a 5,5 0 0 1 5.4,4.86 0.32,0.32 0 0 0 0.2,0.28 l 3.63,1.28 h 0.06 a 0.24,0.24 0 0 0 0.29,-0.11 4.58,4.58 0 0 1 0.76,-0.7 c 0,0 0,0 0,0 l 0.36,-0.25 a 2.19,2.19 0 0 1 0.3,-0.16 l 0.14,-0.08 a 5,5 0 0 1 5.64,0.86 0.27,0.27 0 0 0 0.34,0 l 3.47,-1.66 v 0 a 0.3,0.3 0 0 0 0.18,-0.3 5,5 0 0 1 1.28,-3.73 5,5 0 0 1 1.92,-1.32 l 0.12,-0.05 0.19,-0.06 0.31,-0.09 h 0.07 a 5.26,5.26 0 0 1 1,-0.13 0.3,0.3 0 0 0 0.28,-0.21 l 1.29,-3.62 a 0.32,0.32 0 0 0 -0.1,-0.34 5,5 0 0 1 -0.37,-7.25 0.32,0.32 0 0 0 0.05,-0.34 l -1.15,-2.38 v 0 l -0.52,-1.08 a 0.34,0.34 0 0 0 -0.08,-0.09 v 0 0 h -0.12 v 0 a 5,5 0 0 1 -5.4,-4.86 0.3,0.3 0 0 0 -0.21,-0.28 l -3.67,-1.38 a 0.28,0.28 0 0 0 -0.34,0.08 v 0 a 5.21,5.21 0 0 1 -1.16,1 h -0.08 l -0.34,0.19 a 4.91,4.91 0 0 1 -1.95,0.51 5.06,5.06 0 0 1 -3.71,-1.36 0.32,0.32 0 0 0 -0.34,0 l -3.49,1.65 a 0.32,0.32 0 0 0 -0.18,0.3 5,5 0 0 1 -4.86,5.39 0.28,0.28 0 0 0 -0.28,0.21 l -0.89,2.51 v 0 l -0.4,1.13 a 0.33,0.33 0 0 0 0.09,0.34 5.06,5.06 0 0 1 1.72,3.54 z m 7.88,-6.13 c 0,0 0,0 0.05,0 l 0.34,-0.29 c 0.09,-0.07 0.16,-0.14 0.25,-0.2 l 0.11,-0.08 a 7.47,7.47 0 1 1 7.49,12.85 6.5,6.5 0 0 1 -0.61,0.25 v 0 a 7.47,7.47 0 0 1 -7.61,-12.49 z"
     style="fill:#3a5c84"
     id="path1761"
     inkscape:connector-curvature="0" />
  <path
     d="m 311.41963,147.1755 a 2.67,2.67 0 0 1 -0.72,2 0.17,0.17 0 0 0 0,0.18 l 0.88,1.84 a 0.16,0.16 0 0 0 0.16,0.1 2.65,2.65 0 0 1 2,0.67 2.73,2.73 0 0 1 0.89,1.9 0.17,0.17 0 0 0 0.11,0.16 l 1.92,0.67 v 0 a 0.14,0.14 0 0 0 0.16,-0.06 2.34,2.34 0 0 1 0.4,-0.37 v 0 l 0.19,-0.13 0.16,-0.09 h 0.08 a 2.56,2.56 0 0 1 1,-0.26 2.63,2.63 0 0 1 2,0.72 0.14,0.14 0 0 0 0.18,0 l 1.84,-0.88 v 0 a 0.16,0.16 0 0 0 0.1,-0.16 2.62,2.62 0 0 1 0.68,-2 2.56,2.56 0 0 1 1,-0.7 h 0.06 0.1 l 0.17,-0.05 v 0 a 2.25,2.25 0 0 1 0.52,-0.07 0.17,0.17 0 0 0 0.15,-0.11 l 0.68,-1.93 a 0.16,0.16 0 0 0 0,-0.17 2.7,2.7 0 0 1 -0.92,-1.88 2.64,2.64 0 0 1 0.72,-2 0.19,0.19 0 0 0 0,-0.19 l -0.61,-1.26 v 0 l -0.27,-0.57 a 0.08,0.08 0 0 0 -0.05,0 v 0 0 a 0.07,0.07 0 0 0 -0.06,0 v 0 a 2.65,2.65 0 0 1 -2,-0.68 2.69,2.69 0 0 1 -0.89,-1.9 0.16,0.16 0 0 0 -0.11,-0.15 l -1.92,-0.68 a 0.13,0.13 0 0 0 -0.18,0 v 0 a 2.8,2.8 0 0 1 -0.61,0.53 h -0.05 l -0.18,0.1 a 2.62,2.62 0 0 1 -1,0.27 2.67,2.67 0 0 1 -2,-0.72 0.15,0.15 0 0 0 -0.18,0 l -1.84,0.88 a 0.17,0.17 0 0 0 -0.1,0.16 2.67,2.67 0 0 1 -2.58,2.86 0.16,0.16 0 0 0 -0.15,0.12 l -0.47,1.33 v 0 l -0.21,0.61 a 0.18,0.18 0 0 0 0.05,0.18 2.68,2.68 0 0 1 0.9,1.73 z m 4.18,-3.26 v 0 l 0.18,-0.16 a 0.69,0.69 0 0 0 0.13,-0.11 h 0.06 a 4,4 0 0 1 6,4.55 3.94,3.94 0 0 1 -2.07,2.27 l -0.33,0.14 v 0 a 4,4 0 0 1 -4,-6.63 z"
     style="fill:#3a5c84"
     id="path1763"
     inkscape:connector-curvature="0" />
  <path
     d="m 219.46612,447.07778 c -0.44,0.32 -0.89,0.63 -1.34,0.92 l -0.62,0.4 c -0.59,0.37 -1.19,0.72 -1.81,1 l -0.4,0.21 a 32.9,32.9 0 0 1 -4.37,1.91 h -0.2 c -0.78,0.26 -1.57,0.49 -2.38,0.69 v 0 c -0.81,0.2 -1.63,0.37 -2.46,0.5 h -0.07 c -0.77,0.12 -1.56,0.21 -2.34,0.28 h -0.42 c -0.78,0.06 -1.56,0.1 -2.34,0.1 -0.78,0 -1.59,0 -2.37,-0.1 h -0.41 c -0.79,-0.07 -1.58,-0.16 -2.36,-0.29 h -0.11 a 32.27,32.27 0 0 1 -4.82,-1.18 l -0.15,-0.05 c -0.79,-0.27 -1.57,-0.57 -2.33,-0.9 v 0 c -0.72,-0.31 -1.43,-0.66 -2.13,-1 l -0.27,-0.14 c -0.64,-0.35 -1.27,-0.71 -1.88,-1.1 l -0.55,-0.35 c -0.56,-0.37 -1.12,-0.76 -1.67,-1.17 l -0.17,-0.13 0.12,-0.06 9.89,-5.4 a 5.3,5.3 0 0 0 2.74,-4.7 v -4.51 l -0.29,-0.34 a 21,21 0 0 1 -3.75,-7.78 l -0.12,-0.49 -0.42,-0.28 a 2.08,2.08 0 0 1 -1,-1.74 v -4.43 a 2,2 0 0 1 0.69,-1.53 l 0.42,-0.38 v -7 -0.17 a 7.56,7.56 0 0 1 1.77,-5.35 c 1.81,-2.06 4.91,-3.11 9.21,-3.11 4.3,0 7.37,1 9.19,3.09 a 7.62,7.62 0 0 1 1.76,5.48 v 7.13 l 0.41,0.37 a 2,2 0 0 1 0.7,1.53 v 4.43 a 2.1,2.1 0 0 1 -1.48,2 l -0.62,0.19 -0.2,0.62 a 23.25,23.25 0 0 1 -3.13,6.27 14.88,14.88 0 0 1 -0.92,1.19 l -0.31,0.36 v 4.62 a 5.26,5.26 0 0 0 2.92,4.73 l 10.59,5.3 a 1.24,1.24 0 0 1 0.2,0.1 z"
     style="fill:none;stroke:#636868;stroke-width:5.23600006px;stroke-miterlimit:10"
     id="path1773"
     inkscape:connector-curvature="0" />
  <circle
     cx="200.67612"
     cy="417.40778"
     r="35.549999"
     style="fill:none;stroke:#636868;stroke-width:5.23600006px;stroke-miterlimit:10"
     id="circle1775" />
  <path
     d="m 916.79688,67.83801 c -0.44,0.32 -0.89,0.63 -1.34,0.92 l -0.62,0.4 c -0.59,0.37 -1.19,0.72 -1.81,1 l -0.4,0.21 a 32.9,32.9 0 0 1 -4.37,1.91 h -0.2 c -0.78,0.26 -1.57,0.49 -2.38,0.69 v 0 c -0.81,0.2 -1.63,0.37 -2.46,0.5 h -0.07 c -0.77,0.12 -1.56,0.21 -2.34,0.28 h -0.42 c -0.78,0.06 -1.56,0.1 -2.34,0.1 -0.78,0 -1.59,0 -2.37,-0.1 h -0.41 c -0.79,-0.07 -1.58,-0.16 -2.36,-0.29 h -0.11 a 32.27,32.27 0 0 1 -4.86002,-1.21 l -0.15,-0.05 c -0.79,-0.27 -1.57,-0.57 -2.33,-0.9 v 0 c -0.72,-0.31 -1.43,-0.66 -2.13,-1 l -0.27,-0.14 c -0.64,-0.35 -1.27,-0.71 -1.88,-1.1 l -0.55,-0.35 c -0.56,-0.37 -1.12,-0.76 -1.67,-1.17 l -0.17,-0.13 0.12,-0.06 9.89,-5.4 a 5.3,5.3 0 0 0 2.76002,-4.640005 v -4.51 l -0.29,-0.34 a 21,21 0 0 1 -3.75002,-7.78 l -0.12,-0.49 -0.42,-0.28 a 2.08,2.08 0 0 1 -1,-1.74 v -4.43 a 2,2 0 0 1 0.69,-1.53 l 0.42,-0.38 v -7 -0.17 a 7.56,7.56 0 0 1 1.75,-5.45 c 1.81,-2.06 4.91002,-3.11 9.21002,-3.11 4.3,0 7.37,1 9.19,3.09 a 7.62,7.62 0 0 1 1.76,5.48 v 7.13 l 0.41,0.37 a 2,2 0 0 1 0.7,1.53 v 4.43 a 2.1,2.1 0 0 1 -1.48,2 l -0.62,0.19 -0.2,0.62 a 23.25,23.25 0 0 1 -3.12,6.29 14.88,14.88 0 0 1 -0.92,1.19 l -0.31,0.36 v 4.62 a 5.26,5.26 0 0 0 2.92,4.730005 l 10.59,5.3 a 1.24,1.24 0 0 1 0.2,0.1 z"
     style="fill:none;stroke:#636868;stroke-width:5.23600006px;stroke-miterlimit:10"
     id="path1777"
     inkscape:connector-curvature="0" />
  <circle
     cx="898.00702"
     cy="38.167999"
     r="35.549999"
     style="fill:none;stroke:#636868;stroke-width:5.23600006px;stroke-miterlimit:10"
     id="circle1779" />
  <path
     d="m 0,103.16186 3.39,-20 h 5.16 l 4,10.67 4.29,-10.68 h 5.19 l 3,20 h -5.19 l -1.47,-11.52 -4.82,11.53 h -2.07 l -4.62,-11.52 -1.71,11.52 z"
     id="path1781"
     inkscape:connector-curvature="0" />
  <path
     d="m 42.120001,97.34186 h -10 a 3.39,3.39 0 0 0 0.84,2.25 2.7,2.7 0 0 0 2,0.66 3.79,3.79 0 0 0 1.59,-0.36 2.23,2.23 0 0 0 0.84,-0.9 h 4.59 a 6,6 0 0 1 -1.62,2.76 c -1,1 -2.55,1.86 -5.46,1.86 a 7.61,7.61 0 0 1 -5.550001,-2 7,7 0 0 1 -2,-5.07 7.16,7.16 0 0 1 2,-5.19 7.55,7.55 0 0 1 5.490001,-2 7.35,7.35 0 0 1 5.16,1.83 7.51,7.51 0 0 1 2.13,5.64 z m -4.41,-2.76 a 3.22,3.22 0 0 0 -0.78,-1.44 2.8,2.8 0 0 0 -2,-0.72 2.58,2.58 0 0 0 -2,0.72 2.74,2.74 0 0 0 -0.72,1.44 z"
     id="path1783"
     inkscape:connector-curvature="0" />
  <path
     d="m 45.750001,98.72186 a 6.87,6.87 0 0 0 1.92,1 6.25,6.25 0 0 0 1.86,0.33 2,2 0 0 0 1.23,-0.36 0.77,0.77 0 0 0 0.24,-0.63 0.71,0.71 0 0 0 -0.24,-0.6 3,3 0 0 0 -1.26,-0.48 l -1.26,-0.3 a 4.31,4.31 0 0 1 -2.34,-1.17 3.24,3.24 0 0 1 -0.87,-2.31 4.79,4.79 0 0 1 1.26,-3.27 6.77,6.77 0 0 1 4.8,-1.62 11.07,11.07 0 0 1 4.29,0.87 l -1.62,3.06 a 6.64,6.64 0 0 0 -2.52,-0.66 2,2 0 0 0 -1.11,0.27 0.72,0.72 0 0 0 -0.42,0.66 0.78,0.78 0 0 0 0.57,0.75 c 0.45,0.18 0.84,0.18 1.59,0.39 l 0.87,0.24 a 5.67,5.67 0 0 1 2,1 3.79,3.79 0 0 1 1,2.67 4.48,4.48 0 0 1 -1.35,3.33 7,7 0 0 1 -5,1.68 9.89,9.89 0 0 1 -5.4,-1.56 z"
     id="path1785"
     inkscape:connector-curvature="0" />
  <path
     d="m 68.550001,89.75186 h 4.8 v 13.41 h -4.8 v -1.47 a 5,5 0 0 1 -4.17,1.92 6.42,6.42 0 0 1 -4.83,-2.13 6.76,6.76 0 0 1 -1.92,-4.92 7.42,7.42 0 0 1 2.07,-5.37 6.9,6.9 0 0 1 4.85,-1.9 5.31,5.31 0 0 1 4,1.74 z m -5,4.54 a 3.14,3.14 0 0 0 -1,2.19 3.09,3.09 0 0 0 0.93,2.19 3.37,3.37 0 0 0 2.16,0.9 3.08,3.08 0 0 0 2.16,-0.93 2.91,2.91 0 0 0 0.9,-2.16 3,3 0 0 0 -0.93,-2.19 3,3 0 0 0 -4.22,0 z"
     id="path1787"
     inkscape:connector-curvature="0" />
  <path
     d="m 79.080001,81.47186 a 2.7,2.7 0 1 1 -2.7,2.7 2.69,2.69 0 0 1 2.7,-2.7 z m 2.4,8.28 v 20.28 h -4.8 v -20.28 z"
     id="path1789"
     inkscape:connector-curvature="0" />
  <path
     d="m 1147.9021,89.1767 3.39,-20 h 5.13 l 4,10.68 4.29,-10.68 h 5.19 l 3,20 h -5.19 l -1.47,-11.52 -4.83,11.52 h -2.07 l -4.62,-11.52 -1.71,11.52 z"
     id="path1791"
     inkscape:connector-curvature="0" />
  <path
     d="m 1189.9721,83.3567 h -10 a 3.39,3.39 0 0 0 0.84,2.25 2.7,2.7 0 0 0 2,0.66 3.79,3.79 0 0 0 1.56,-0.36 2.23,2.23 0 0 0 0.84,-0.9 h 4.59 a 6,6 0 0 1 -1.62,2.76 c -1,1 -2.55,1.86 -5.46,1.86 a 7.61,7.61 0 0 1 -5.55,-2 7,7 0 0 1 -2,-5.07 7.16,7.16 0 0 1 2,-5.19 7.55,7.55 0 0 1 5.49,-2 7.35,7.35 0 0 1 5.16,1.83 7.51,7.51 0 0 1 2.13,5.64 z m -4.41,-2.76 a 3.22,3.22 0 0 0 -0.78,-1.44 2.8,2.8 0 0 0 -2,-0.72 2.58,2.58 0 0 0 -1.95,0.72 2.74,2.74 0 0 0 -0.72,1.44 z"
     id="path1793"
     inkscape:connector-curvature="0" />
  <path
     d="m 1193.6021,84.7367 a 6.87,6.87 0 0 0 1.92,1 6.25,6.25 0 0 0 1.86,0.33 2,2 0 0 0 1.23,-0.36 0.77,0.77 0 0 0 0.24,-0.63 0.71,0.71 0 0 0 -0.24,-0.6 3,3 0 0 0 -1.26,-0.48 l -1.26,-0.3 a 4.31,4.31 0 0 1 -2.34,-1.17 3.24,3.24 0 0 1 -0.85,-2.32 4.79,4.79 0 0 1 1.26,-3.27 6.77,6.77 0 0 1 4.74,-1.63 11.07,11.07 0 0 1 4.29,0.87 l -1.62,3.06 a 6.64,6.64 0 0 0 -2.52,-0.66 2,2 0 0 0 -1.11,0.27 0.72,0.72 0 0 0 -0.42,0.66 0.78,0.78 0 0 0 0.57,0.75 c 0.45,0.18 0.84,0.18 1.59,0.39 l 0.87,0.24 a 5.67,5.67 0 0 1 2,1 3.79,3.79 0 0 1 1,2.67 4.48,4.48 0 0 1 -1.35,3.33 7,7 0 0 1 -5,1.68 9.89,9.89 0 0 1 -5.4,-1.56 z"
     id="path1795"
     inkscape:connector-curvature="0" />
  <path
     d="m 1216.4321,75.7667 h 4.8 v 13.41 h -4.8 v -1.47 a 5,5 0 0 1 -4.17,1.92 6.42,6.42 0 0 1 -4.83,-2.13 6.76,6.76 0 0 1 -1.92,-4.92 7.42,7.42 0 0 1 2.07,-5.37 6.9,6.9 0 0 1 4.83,-1.9 5.31,5.31 0 0 1 4,1.74 z m -5,4.5 a 3.14,3.14 0 0 0 -1,2.19 3.09,3.09 0 0 0 0.93,2.19 3.37,3.37 0 0 0 2.16,0.9 3.08,3.08 0 0 0 2.16,-0.93 2.91,2.91 0 0 0 0.9,-2.16 3,3 0 0 0 -0.93,-2.19 3,3 0 0 0 -4.26,0 z"
     id="path1797"
     inkscape:connector-curvature="0" />
  <path
     d="m 1226.9021,67.4867 a 2.7,2.7 0 1 1 -2.7,2.7 2.69,2.69 0 0 1 2.7,-2.7 z m 2.4,8.28 v 20.28 h -4.8 v -20.28 z"
     id="path1799"
     inkscape:connector-curvature="0" />
  <path
     d="m 579.60851,335.18198 3.39,-20 h 5.13 l 4,10.68 4.29,-10.68 h 5.19 l 3,20 h -5.19 l -1.47,-11.52 -4.83,11.52 h -2.07 l -4.62,-11.52 -1.71,11.52 z"
     id="path1801"
     inkscape:connector-curvature="0" />
  <path
     d="m 621.72851,329.36198 h -10 a 3.39,3.39 0 0 0 0.84,2.25 2.7,2.7 0 0 0 2,0.66 3.79,3.79 0 0 0 1.56,-0.36 2.23,2.23 0 0 0 0.84,-0.9 h 4.59 a 6,6 0 0 1 -1.65,2.76 c -1,1 -2.55,1.86 -5.46,1.86 a 7.61,7.61 0 0 1 -5.55,-2 7,7 0 0 1 -2,-5.07 7.16,7.16 0 0 1 2.01,-5.25 7.55,7.55 0 0 1 5.49,-2 7.35,7.35 0 0 1 5.16,1.83 7.51,7.51 0 0 1 2.13,5.64 z m -4.41,-2.76 a 3.22,3.22 0 0 0 -0.78,-1.44 2.8,2.8 0 0 0 -2,-0.72 2.58,2.58 0 0 0 -1.95,0.72 2.74,2.74 0 0 0 -0.72,1.44 z"
     id="path1803"
     inkscape:connector-curvature="0" />
  <path
     d="m 625.35851,330.74198 a 6.87,6.87 0 0 0 1.92,1 6.25,6.25 0 0 0 1.86,0.33 2,2 0 0 0 1.23,-0.36 0.77,0.77 0 0 0 0.24,-0.63 0.71,0.71 0 0 0 -0.24,-0.6 3,3 0 0 0 -1.26,-0.48 l -1.26,-0.3 a 4.31,4.31 0 0 1 -2.34,-1.17 3.24,3.24 0 0 1 -0.87,-2.31 4.79,4.79 0 0 1 1.27,-3.28 6.77,6.77 0 0 1 4.8,-1.62 11.07,11.07 0 0 1 4.29,0.87 l -1.62,3.06 a 6.64,6.64 0 0 0 -2.52,-0.66 2,2 0 0 0 -1.11,0.27 0.72,0.72 0 0 0 -0.42,0.66 0.78,0.78 0 0 0 0.58,0.79 c 0.45,0.18 0.84,0.18 1.59,0.39 l 0.87,0.24 a 5.67,5.67 0 0 1 2,1 3.79,3.79 0 0 1 1,2.67 4.48,4.48 0 0 1 -1.35,3.33 7,7 0 0 1 -4.95,1.68 9.89,9.89 0 0 1 -5.4,-1.56 z"
     id="path1805"
     inkscape:connector-curvature="0" />
  <path
     d="m 648.18851,321.77198 h 4.8 v 13.41 h -4.8 v -1.47 a 5,5 0 0 1 -4.17,1.92 6.42,6.42 0 0 1 -4.83,-2.13 6.76,6.76 0 0 1 -1.92,-4.92 7.42,7.42 0 0 1 2.07,-5.37 6.9,6.9 0 0 1 4.83,-1.9 5.31,5.31 0 0 1 4,1.74 z m -5,4.5 a 3.14,3.14 0 0 0 -1,2.19 3.09,3.09 0 0 0 0.93,2.19 3.37,3.37 0 0 0 2.16,0.9 3.08,3.08 0 0 0 2.16,-0.93 2.91,2.91 0 0 0 0.9,-2.16 3,3 0 0 0 -0.93,-2.15 3,3 0 0 0 -4.26,0 z"
     id="path1807"
     inkscape:connector-curvature="0" />
  <path
     d="m 658.68851,313.49198 a 2.7,2.7 0 1 1 -2.7,2.7 2.69,2.69 0 0 1 2.7,-2.7 z m 2.4,8.28 v 20.28 h -4.8 v -20.28 z"
     id="path1809"
     inkscape:connector-curvature="0" />
  <path
     inkscape:connector-curvature="0"
     d="m 1284.3574,151.64682 a 16.952774,16.952774 0 1 0 16.9528,16.95279 16.952774,16.952774 0 0 0 -16.9528,-16.95279 z m -3.1076,25.65952 -7.4664,-7.46369 2.4888,-2.48881 4.9776,4.97761 11.1955,-11.19553 2.4861,2.48607 z"
     style="fill:#91c54f;stroke-width:0.27259645"
     id="path2776" />
  <g
     aria-label="verificat"
     style="font-style:normal;font-weight:normal;font-size:40px;line-height:1.25;font-family:sans-serif;letter-spacing:0px;word-spacing:0px;fill:#000000;fill-opacity:1;stroke:none"
     id="text1993-0"
     transform="translate(411.90224,38.3067)">
    <path
       d="m 843.72801,38.383094 -7.23243,13.895833 h -3.27929 l -7.17253,-13.895833 h 5.52539 l 3.32422,7.127604 3.33919,-7.127604 z"
       style="font-style:normal;font-variant:normal;font-weight:bold;font-stretch:normal;font-size:30.66666603px;font-family:Aharoni;-inkscape-font-specification:'Aharoni Bold'"
       id="path8640"
       inkscape:connector-curvature="0" />
    <path
       d="m 860.13946,46.229448 h -10.33203 q 0,3.129557 3.02474,3.129557 1.54232,0 2.36589,-1.317708 h 4.74674 q -0.56901,1.886718 -1.67708,2.919922 -2.00651,1.871744 -5.37565,1.871744 -4.28255,0 -6.4388,-2.605468 -1.61719,-1.946615 -1.61719,-4.746745 0,-3.324219 2.02148,-5.405599 2.02149,-2.08138 5.70508,-2.08138 4.53711,0 6.48372,3.294271 1.0931,1.85677 1.0931,4.3125 z m -4.58203,-2.815104 q -0.52409,-2.30599 -2.80013,-2.30599 -1.25781,0 -2.03646,0.733724 -0.61393,0.583984 -0.77864,1.572266 z"
       style="font-style:normal;font-variant:normal;font-weight:bold;font-stretch:normal;font-size:30.66666603px;font-family:Aharoni;-inkscape-font-specification:'Aharoni Bold'"
       id="path8642"
       inkscape:connector-curvature="0" />
    <path
       d="m 873.36147,42.920203 q -1.0332,-0.494141 -2.09635,-0.494141 -2.42579,0 -3.14454,1.976563 -0.26953,0.71875 -0.26953,1.931641 v 5.944661 H 862.9396 V 38.383094 h 4.91145 v 2.276041 q 0.77865,-1.21289 1.67709,-1.751953 1.21289,-0.71875 2.875,-0.71875 0.38932,0 0.95833,0.04492 z"
       style="font-style:normal;font-variant:normal;font-weight:bold;font-stretch:normal;font-size:30.66666603px;font-family:Aharoni;-inkscape-font-specification:'Aharoni Bold'"
       id="path8644"
       inkscape:connector-curvature="0" />
    <path
       d="m 880.78855,33.037391 q 0,1.167969 -0.80859,1.976562 -0.79362,0.79362 -1.96159,0.79362 -1.15299,0 -1.96159,-0.808594 -0.79362,-0.808593 -0.79362,-1.961588 0,-1.152995 0.79362,-1.946615 0.8086,-0.808593 1.96159,-0.808593 1.15299,0 1.96159,0.808593 0.80859,0.79362 0.80859,1.946615 z m -0.31445,19.241536 h -4.91146 V 38.383094 h 4.91146 z"
       style="font-style:normal;font-variant:normal;font-weight:bold;font-stretch:normal;font-size:30.66666603px;font-family:Aharoni;-inkscape-font-specification:'Aharoni Bold'"
       id="path8646"
       inkscape:connector-curvature="0" />
    <path
       d="M 892.61798,42.426062 H 889.159 v 9.852865 h -4.91146 v -9.852865 h -1.75196 v -4.042968 h 1.75196 v -1.841797 q 0,-3.069661 1.55729,-4.731771 1.93164,-2.066406 4.64193,-2.066406 1.07812,0 2.17122,0.509115 v 4.282552 q -1.00326,-0.554037 -1.72201,-0.554037 -1.00325,0 -1.46744,0.763672 -0.26953,0.434245 -0.26953,2.141276 v 1.497396 h 3.45898 z"
       style="font-style:normal;font-variant:normal;font-weight:bold;font-stretch:normal;font-size:30.66666603px;font-family:Aharoni;-inkscape-font-specification:'Aharoni Bold'"
       id="path8648"
       inkscape:connector-curvature="0" />
    <path
       d="m 899.65574,33.037391 q 0,1.167969 -0.8086,1.976562 -0.79362,0.79362 -1.96159,0.79362 -1.15299,0 -1.96158,-0.808594 -0.79362,-0.808593 -0.79362,-1.961588 0,-1.152995 0.79362,-1.946615 0.80859,-0.808593 1.96158,-0.808593 1.153,0 1.96159,0.808593 0.8086,0.79362 0.8086,1.946615 z m -0.31446,19.241536 h -4.91146 V 38.383094 h 4.91146 z"
       style="font-style:normal;font-variant:normal;font-weight:bold;font-stretch:normal;font-size:30.66666603px;font-family:Aharoni;-inkscape-font-specification:'Aharoni Bold'"
       id="path8650"
       inkscape:connector-curvature="0" />
    <path
       d="m 913.19219,51.979448 q -1.52734,0.763672 -3.20442,0.763672 -3.80339,0 -6.03451,-2.575521 -1.79687,-2.08138 -1.79687,-4.821615 0,-2.755208 1.79687,-4.821614 2.23112,-2.575521 6.03451,-2.575521 1.70703,0 3.20442,0.778646 v 4.177734 q -1.30273,-0.913411 -2.54557,-0.913411 -1.46745,0 -2.42578,0.943359 -0.95833,0.943359 -0.95833,2.410807 0,1.467448 0.95833,2.410808 0.95833,0.943359 2.42578,0.943359 1.22787,0 2.54557,-0.898438 z"
       style="font-style:normal;font-variant:normal;font-weight:bold;font-stretch:normal;font-size:30.66666603px;font-family:Aharoni;-inkscape-font-specification:'Aharoni Bold'"
       id="path8652"
       inkscape:connector-curvature="0" />
    <path
       d="m 931.67006,52.278927 h -4.91146 v -1.542318 q -0.70378,0.883464 -1.42253,1.287761 -1.25781,0.703776 -2.86002,0.703776 -2.5905,0 -4.61198,-1.781901 -2.41081,-2.126302 -2.41081,-5.630209 0,-3.563802 2.47071,-5.690104 1.96158,-1.692057 4.50716,-1.692057 1.48242,0 2.78515,0.628906 0.7487,0.359375 1.54232,1.182943 v -1.36263 h 4.91146 z m -4.76172,-6.947917 q 0,-1.317708 -0.92839,-2.231119 -0.92838,-0.928386 -2.24609,-0.928386 -1.46745,0 -2.41081,1.108073 -0.76367,0.898438 -0.76367,2.051432 0,1.152995 0.76367,2.051433 0.92839,1.108072 2.41081,1.108072 1.33268,0 2.24609,-0.913411 0.92839,-0.913411 0.92839,-2.246094 z"
       style="font-style:normal;font-variant:normal;font-weight:bold;font-stretch:normal;font-size:30.66666603px;font-family:Aharoni;-inkscape-font-specification:'Aharoni Bold'"
       id="path8654"
       inkscape:connector-curvature="0" />
    <path
       d="m 943.33477,42.426062 h -2.80013 v 9.852865 h -4.91146 V 42.426062 H 934.006 v -4.042968 h 1.61718 V 34.20536 h 4.91146 v 4.177734 h 2.80013 z"
       style="font-style:normal;font-variant:normal;font-weight:bold;font-stretch:normal;font-size:30.66666603px;font-family:Aharoni;-inkscape-font-specification:'Aharoni Bold'"
       id="path8656"
       inkscape:connector-curvature="0" />
  </g>
  <line
     x1="607.71295"
     y1="422.49857"
     x2="647.79291"
     y2="422.49857"
     style="fill:none;stroke:#91c54f;stroke-width:3.86249781px;stroke-miterlimit:10"
     id="line1721-3" />
  <line
     x1="607.71295"
     y1="412.12854"
     x2="647.79291"
     y2="412.12854"
     style="fill:none;stroke:#91c54f;stroke-width:3.86249781px;stroke-miterlimit:10"
     id="line1723-9" />
  <line
     x1="607.71295"
     y1="401.75854"
     x2="647.79291"
     y2="401.75854"
     style="fill:none;stroke:#91c54f;stroke-width:3.86249781px;stroke-miterlimit:10"
     id="line1725-6" />
  <line
     x1="607.71295"
     y1="391.38855"
     x2="647.79291"
     y2="391.38855"
     style="fill:none;stroke:#91c54f;stroke-width:3.86249781px;stroke-miterlimit:10"
     id="line1727-9" />
  <line
     x1="607.71295"
     y1="381.01855"
     x2="624.25293"
     y2="381.01855"
     style="fill:none;stroke:#91c54f;stroke-width:3.86249781px;stroke-miterlimit:10"
     id="line1729-5" />
  <path
     inkscape:connector-curvature="0"
     d="m 645.71293,377.28856 a 5.61,5.61 0 0 1 -5.59,-5.59 v -10.49 h -34.74 a 5.61,5.61 0 0 0 -5.6,5.59 v 58.73 a 5.61,5.61 0 0 0 5.6,5.59 h 44.74 a 5.61,5.61 0 0 0 5.59,-5.59 v -48.24 z"
     style="fill:none;stroke:#91c54f;stroke-width:3.86249781px;stroke-miterlimit:10"
     id="path1731-9" />
  <g
     aria-label="Algoritm"
     style="font-style:normal;font-variant:normal;font-weight:normal;font-stretch:normal;font-size:40px;line-height:1.25;font-family:Aharoni;-inkscape-font-specification:Aharoni;letter-spacing:0px;word-spacing:0px;fill:#000000;fill-opacity:1;stroke:none"
     id="text8716">
    <path
       d="m 279.24112,241.09497 h -4.68815 l -1.08854,-2.94401 h -6.0612 l -1.16276,2.94401 h -4.63867 l 6.49414,-16.88477 h 4.78711 z m -6.96419,-6.28385 -1.81836,-5.38086 -1.8431,5.38086 z"
       style="font-style:normal;font-variant:normal;font-weight:normal;font-stretch:normal;font-size:25.33333397px;font-family:Aharoni;-inkscape-font-specification:Aharoni"
       id="path16721" />
    <path
       d="m 284.88175,241.09497 h -4.0573 v -18.57943 h 4.0573 z"
       style="font-style:normal;font-variant:normal;font-weight:normal;font-stretch:normal;font-size:25.33333397px;font-family:Aharoni;-inkscape-font-specification:Aharoni"
       id="path16723" />
    <path
       d="m 300.50479,240.3033 q 0,1.50912 -0.21028,2.43685 -0.33399,1.48438 -1.73177,2.65951 -1.76888,1.48437 -4.70053,1.48437 -3.0677,0 -4.88606,-1.62044 -1.21224,-1.07617 -1.54623,-2.2513 -0.0371,-0.1237 -0.099,-0.51953 h 4.56446 q 0.19791,0.56901 0.5319,0.8164 0.54427,0.40821 1.38542,0.40821 1.41015,0 2.16471,-1.00196 0.47005,-0.63086 0.47005,-1.80599 v -1.08854 q -0.72982,0.66797 -1.22461,0.94011 -1.02669,0.56901 -2.42448,0.56901 -1.75651,0 -3.14192,-0.903 -1.42253,-0.92773 -2.04102,-2.53581 -0.42057,-1.08854 -0.42057,-2.36263 0,-2.82031 1.79362,-4.58919 1.66992,-1.64518 4.02018,-1.64518 1.24935,0 2.22656,0.50716 0.58138,0.30925 1.21224,1.01432 v -1.19987 h 4.05729 z m -3.85937,-4.98502 q 0,-1.10091 -0.75456,-1.89258 -0.75456,-0.79167 -1.85547,-0.79167 -1.22461,0 -2.0039,0.94011 -0.61849,0.75455 -0.61849,1.74414 0,1.10091 0.75455,1.89258 0.76693,0.77929 1.86784,0.77929 1.08854,0 1.8431,-0.77929 0.76693,-0.79167 0.76693,-1.89258 z"
       style="font-style:normal;font-variant:normal;font-weight:normal;font-stretch:normal;font-size:25.33333397px;font-family:Aharoni;-inkscape-font-specification:Aharoni"
       id="path16725" />
    <path
       d="m 316.64737,235.35539 q 0,2.38737 -1.57096,4.0944 -1.90495,2.07812 -5.33138,2.07812 -3.4388,0 -5.34375,-2.07812 -1.57097,-1.70703 -1.57097,-4.19336 0,-2.23893 1.58334,-3.9707 1.91732,-2.0905 5.45508,-2.0905 3.25325,0 5.19531,2.0905 1.58333,1.70703 1.58333,4.06966 z m -4.2181,0 q 0,-1.11328 -0.79166,-1.88021 -0.7793,-0.7793 -1.89258,-0.7793 -1.26172,0 -2.05339,0.94011 -0.64323,0.75455 -0.64323,1.7194 0,0.97721 0.64323,1.73177 0.79167,0.9401 2.05339,0.9401 1.12565,0 1.90495,-0.76692 0.77929,-0.7793 0.77929,-1.90495 z"
       style="font-style:normal;font-variant:normal;font-weight:normal;font-stretch:normal;font-size:25.33333397px;font-family:Aharoni;-inkscape-font-specification:Aharoni"
       id="path16727" />
    <path
       d="m 327.58227,233.36385 q -0.85352,-0.4082 -1.73177,-0.4082 -2.00391,0 -2.59766,1.63281 -0.22266,0.59375 -0.22266,1.5957 v 4.91081 h -4.05729 V 229.6158 h 4.05729 v 1.88021 q 0.64323,-1.00195 1.38542,-1.44726 1.00195,-0.59375 2.375,-0.59375 0.32161,0 0.79167,0.0371 z"
       style="font-style:normal;font-variant:normal;font-weight:normal;font-stretch:normal;font-size:25.33333397px;font-family:Aharoni;-inkscape-font-specification:Aharoni"
       id="path16729" />
    <path
       d="m 333.71768,225.19979 q 0,0.96484 -0.66796,1.63281 -0.6556,0.6556 -1.62045,0.6556 -0.95247,0 -1.62044,-0.66797 -0.6556,-0.66797 -0.6556,-1.62044 0,-0.95248 0.6556,-1.60807 0.66797,-0.66797 1.62044,-0.66797 0.95248,0 1.62045,0.66797 0.66796,0.65559 0.66796,1.60807 z m -0.25976,15.89518 h -4.05729 V 229.6158 h 4.05729 z"
       style="font-style:normal;font-variant:normal;font-weight:normal;font-stretch:normal;font-size:25.33333397px;font-family:Aharoni;-inkscape-font-specification:Aharoni"
       id="path16731" />
    <path
       d="m 343.08162,232.95565 h -2.31315 v 8.13932 h -4.0573 v -8.13932 h -1.33593 v -3.33985 h 1.33593 v -3.45117 h 4.0573 v 3.45117 h 2.31315 z"
       style="font-style:normal;font-variant:normal;font-weight:normal;font-stretch:normal;font-size:25.33333397px;font-family:Aharoni;-inkscape-font-specification:Aharoni"
       id="path16733" />
    <path
       d="m 364.02367,241.09497 h -4.05729 v -5.67773 q 0,-1.48438 -0.30924,-2.02865 -0.45769,-0.80404 -1.37305,-0.80404 -1.01432,0 -1.5586,0.87826 -0.38346,0.61849 -0.38346,1.95443 v 5.67773 h -4.05729 v -5.67773 q 0,-1.48438 -0.2474,-1.92969 -0.49479,-0.89063 -1.52148,-0.89063 -0.95247,0 -1.48438,0.76693 -0.19791,0.27214 -0.2845,0.75456 -0.0866,0.47005 -0.0866,1.29883 v 5.67773 H 344.6031 V 229.6158 h 4.05729 v 1.41016 q 0.71745,-0.69271 1.3112,-1.01432 1.07617,-0.58138 2.39974,-0.58138 1.69466,0 2.82031,0.87825 0.56901,0.44531 1.08854,1.26172 0.47005,-0.76693 1.05143,-1.21224 1.22461,-0.9401 2.79558,-0.9401 1.28646,0 2.28841,0.61849 1.07617,0.68034 1.41016,1.8431 0.19791,0.70507 0.19791,1.75651 z"
       style="font-style:normal;font-variant:normal;font-weight:normal;font-stretch:normal;font-size:25.33333397px;font-family:Aharoni;-inkscape-font-specification:Aharoni"
       id="path16735" />
  </g>
  <g
     aria-label="de hashing"
     style="font-style:normal;font-weight:normal;font-size:40px;line-height:1.25;font-family:sans-serif;letter-spacing:0px;word-spacing:0px;fill:#000000;fill-opacity:1;stroke:none"
     id="text8724">
    <path
       d="m 259.82095,272.88327 h -4.05729 v -1.27409 q -0.58138,0.72982 -1.17513,1.0638 -1.03906,0.58138 -2.36263,0.58138 -2.13997,0 -3.80989,-1.472 -1.99154,-1.75651 -1.99154,-4.65104 0,-2.94401 2.04101,-4.70052 1.62045,-1.39779 3.72331,-1.39779 1.22461,0 2.30078,0.51953 0.61849,0.29688 1.27409,0.97721 v -8.22591 h 4.05729 z m -3.93359,-5.73958 q 0,-1.08854 -0.76693,-1.8431 -0.76692,-0.76693 -1.85547,-0.76693 -1.21224,0 -1.99153,0.91537 -0.63086,0.74218 -0.63086,1.69466 0,0.95247 0.63086,1.69466 0.76692,0.91536 1.99153,0.91536 1.10092,0 1.85547,-0.75455 0.76693,-0.75456 0.76693,-1.85547 z"
       style="font-style:normal;font-variant:normal;font-weight:bold;font-stretch:normal;font-size:25.33333397px;font-family:Aharoni;-inkscape-font-specification:'Aharoni Bold'"
       id="path16738" />
    <path
       d="m 274.80077,267.88587 h -8.53516 q 0,2.58529 2.4987,2.58529 1.27409,0 1.95443,-1.08854 h 3.92122 q -0.47005,1.55859 -1.38541,2.41211 -1.65755,1.54622 -4.44076,1.54622 -3.53776,0 -5.31901,-2.15234 -1.33594,-1.60807 -1.33594,-3.92123 0,-2.74609 1.66993,-4.46549 1.66992,-1.7194 4.71289,-1.7194 3.74804,0 5.35612,2.72135 0.90299,1.53386 0.90299,3.5625 z m -3.78515,-2.32552 q -0.43295,-1.90494 -2.31316,-1.90494 -1.03906,0 -1.68229,0.60612 -0.50716,0.48242 -0.64323,1.29882 z"
       style="font-style:normal;font-variant:normal;font-weight:bold;font-stretch:normal;font-size:25.33333397px;font-family:Aharoni;-inkscape-font-specification:'Aharoni Bold'"
       id="path16740" />
    <path
       d="m 296.24999,272.88327 h -4.05729 v -5.8138 q 0,-1.53386 -0.34636,-2.02865 -0.50716,-0.72982 -1.52148,-0.72982 -0.9401,0 -1.55859,0.63086 -0.56901,0.58138 -0.56901,1.79362 v 6.14779 h -4.0573 v -18.57943 h 4.0573 v 8.54753 q 0.70507,-0.81641 1.29882,-1.15039 0.97722,-0.55664 2.41211,-0.55664 1.83073,0 3.01823,1.01432 1.32357,1.13802 1.32357,3.41406 z"
       style="font-style:normal;font-variant:normal;font-weight:bold;font-stretch:normal;font-size:25.33333397px;font-family:Aharoni;-inkscape-font-specification:'Aharoni Bold'"
       id="path16742" />
    <path
       d="m 311.972,272.88327 h -4.0573 v -1.27409 q -0.58138,0.72982 -1.17513,1.0638 -1.03906,0.58138 -2.36263,0.58138 -2.13997,0 -3.80989,-1.472 -1.99154,-1.75651 -1.99154,-4.65104 0,-2.94401 2.04102,-4.70052 1.62044,-1.39779 3.72331,-1.39779 1.2246,0 2.30078,0.51953 0.61849,0.29688 1.27408,0.97721 v -1.12565 h 4.0573 z m -3.9336,-5.73958 q 0,-1.08854 -0.76692,-1.8431 -0.76693,-0.76693 -1.85547,-0.76693 -1.21224,0 -1.99154,0.91537 -0.63086,0.74218 -0.63086,1.69466 0,0.95247 0.63086,1.69466 0.76693,0.91536 1.99154,0.91536 1.10091,0 1.85547,-0.75455 0.76692,-0.75456 0.76692,-1.85547 z"
       style="font-style:normal;font-variant:normal;font-weight:bold;font-stretch:normal;font-size:25.33333397px;font-family:Aharoni;-inkscape-font-specification:'Aharoni Bold'"
       id="path16744" />
    <path
       d="m 324.10677,269.01153 q 0,1.83072 -1.3112,2.99349 -1.47201,1.31119 -4.14388,1.31119 -2.36263,0 -4.5892,-1.32356 l 1.47201,-2.8698 q 1.74414,1.15039 3.24089,1.15039 1.27408,0 1.27408,-0.87825 0,-0.45768 -0.44531,-0.70508 -0.2845,-0.16081 -1.28646,-0.38346 -1.12565,-0.2474 -1.472,-0.38347 -1.23698,-0.48242 -1.66992,-1.50911 -0.23503,-0.55664 -0.23503,-1.33594 0,-1.50911 1.02669,-2.63476 1.32357,-1.44727 4.08203,-1.44727 1.91732,0 3.72331,0.74219 l -1.37305,2.62239 q -1.13802,-0.58138 -2.17708,-0.58138 -1.22461,0 -1.22461,0.84115 0,0.38346 0.49479,0.61849 0.22266,0.11133 1.3112,0.33398 1.5957,0.33399 2.35026,1.06381 0.95248,0.91536 0.95248,2.375 z"
       style="font-style:normal;font-variant:normal;font-weight:bold;font-stretch:normal;font-size:25.33333397px;font-family:Aharoni;-inkscape-font-specification:'Aharoni Bold'"
       id="path16746" />
    <path
       d="M 338.30729,272.88327 H 334.25 v -5.8138 q 0,-1.53386 -0.34636,-2.02865 -0.50716,-0.72982 -1.52148,-0.72982 -0.94011,0 -1.5586,0.63086 -0.56901,0.58138 -0.56901,1.79362 v 6.14779 h -4.05729 v -18.57943 h 4.05729 v 8.54753 q 0.70508,-0.81641 1.29883,-1.15039 0.97721,-0.55664 2.41211,-0.55664 1.83073,0 3.01823,1.01432 1.32357,1.13802 1.32357,3.41406 z"
       style="font-style:normal;font-variant:normal;font-weight:bold;font-stretch:normal;font-size:25.33333397px;font-family:Aharoni;-inkscape-font-specification:'Aharoni Bold'"
       id="path16748" />
    <path
       d="m 345.39517,256.98809 q 0,0.96484 -0.66796,1.63281 -0.6556,0.6556 -1.62045,0.6556 -0.95247,0 -1.62044,-0.66797 -0.6556,-0.66797 -0.6556,-1.62044 0,-0.95248 0.6556,-1.60808 0.66797,-0.66796 1.62044,-0.66796 0.95248,0 1.62045,0.66796 0.66796,0.6556 0.66796,1.60808 z m -0.25976,15.89518 h -4.05729 V 261.4041 h 4.05729 z"
       style="font-style:normal;font-variant:normal;font-weight:bold;font-stretch:normal;font-size:25.33333397px;font-family:Aharoni;-inkscape-font-specification:'Aharoni Bold'"
       id="path16750" />
    <path
       d="m 360.02864,272.88327 h -4.05729 v -5.8138 q 0,-1.52149 -0.34636,-2.01628 -0.50716,-0.72982 -1.52148,-0.72982 -0.92774,0 -1.5586,0.63086 -0.56901,0.56901 -0.56901,1.78125 v 6.14779 h -4.05729 V 261.4041 h 4.05729 v 1.44727 q 0.70508,-0.81641 1.29883,-1.15039 0.96485,-0.54427 2.41211,-0.54427 1.85547,0 3.01823,1.00195 1.32357,1.13802 1.32357,3.41406 z"
       style="font-style:normal;font-variant:normal;font-weight:bold;font-stretch:normal;font-size:25.33333397px;font-family:Aharoni;-inkscape-font-specification:'Aharoni Bold'"
       id="path16752" />
    <path
       d="m 375.66405,272.0916 q 0,1.50912 -0.21028,2.43685 -0.33399,1.48438 -1.73177,2.65951 -1.76888,1.48437 -4.70053,1.48437 -3.0677,0 -4.88606,-1.62044 -1.21224,-1.07617 -1.54623,-2.2513 -0.0371,-0.1237 -0.099,-0.51953 h 4.56446 q 0.19791,0.56901 0.5319,0.8164 0.54427,0.40821 1.38542,0.40821 1.41015,0 2.16471,-1.00196 0.47005,-0.63086 0.47005,-1.80599 v -1.08854 q -0.72982,0.66797 -1.22461,0.94011 -1.02669,0.56901 -2.42448,0.56901 -1.75651,0 -3.14192,-0.903 -1.42253,-0.92773 -2.04102,-2.53581 -0.42057,-1.08854 -0.42057,-2.36263 0,-2.82031 1.79362,-4.58919 1.66992,-1.64518 4.02018,-1.64518 1.24935,0 2.22656,0.50716 0.58138,0.30924 1.21224,1.01432 v -1.19987 h 4.05729 z m -3.85937,-4.98502 q 0,-1.10091 -0.75456,-1.89258 -0.75456,-0.79167 -1.85547,-0.79167 -1.22461,0 -2.0039,0.94011 -0.61849,0.75455 -0.61849,1.74414 0,1.10091 0.75455,1.89258 0.76693,0.77929 1.86784,0.77929 1.08854,0 1.8431,-0.77929 0.76693,-0.79167 0.76693,-1.89258 z"
       style="font-style:normal;font-variant:normal;font-weight:bold;font-stretch:normal;font-size:25.33333397px;font-family:Aharoni;-inkscape-font-specification:'Aharoni Bold'"
       id="path16754" />
  </g>
  <rect
     x="547.65198"
     y="149.4538"
     width="163.74991"
     height="34.729958"
     rx="9.0245199"
     ry="9.0462246"
     style="fill:none;stroke:#c13018;stroke-width:4.08305597px;stroke-miterlimit:10"
     id="rect2660" />
  <line
     x1="557.99182"
     y1="155.81989"
     x2="557.99182"
     y2="177.42371"
     style="fill:none;stroke:#c13018;stroke-width:4.71966314px;stroke-miterlimit:10"
     id="line2662" />
  <g
     aria-label="de8a929b"
     style="font-style:normal;font-variant:normal;font-weight:normal;font-stretch:normal;font-size:40px;line-height:1.25;font-family:Aharoni;-inkscape-font-specification:Aharoni;letter-spacing:0px;word-spacing:0px;fill:#000000;fill-opacity:1;stroke:none"
     id="text8716-5">
    <path
       d="m 577.08813,163.46149 v -7.03125 h 4.21875 v 18.23437 h -4.21875 v -1.89844 q -0.86718,1.16016 -1.91015,1.69922 -1.04297,0.53907 -2.41406,0.53907 -2.42579,0 -3.98438,-1.92188 -1.55859,-1.93359 -1.55859,-4.96875 0,-3.03516 1.55859,-4.95703 1.55859,-1.93359 3.98438,-1.93359 1.35937,0 2.40234,0.55078 1.05469,0.53906 1.92187,1.6875 z m -2.76562,8.49609 q 1.34766,0 2.05078,-0.98437 0.71484,-0.98438 0.71484,-2.85938 0,-1.875 -0.71484,-2.85937 -0.70312,-0.98438 -2.05078,-0.98438 -1.33594,0 -2.05078,0.98438 -0.70313,0.98437 -0.70313,2.85937 0,1.875 0.70313,2.85938 0.71484,0.98437 2.05078,0.98437 z"
       style="font-style:normal;font-variant:normal;font-weight:bold;font-stretch:normal;font-size:24px;font-family:sans-serif;-inkscape-font-specification:'sans-serif Bold'"
       id="path164" />
    <path
       d="m 598.46313,168.06696 v 1.19531 h -9.80859 q 0.15234,1.47656 1.06641,2.21484 0.91406,0.73828 2.55468,0.73828 1.32422,0 2.70704,-0.38672 1.39453,-0.39843 2.85937,-1.19531 v 3.23438 q -1.48828,0.5625 -2.97656,0.84375 -1.48828,0.29297 -2.97656,0.29297 -3.5625,0 -5.54297,-1.80469 -1.96875,-1.81641 -1.96875,-5.08594 0,-3.21094 1.93359,-5.05078 1.94531,-1.83984 5.34375,-1.83984 3.09375,0 4.94531,1.86328 1.86328,1.86328 1.86328,4.98047 z m -4.3125,-1.39454 q 0,-1.19531 -0.70312,-1.92187 -0.69141,-0.73828 -1.81641,-0.73828 -1.21875,0 -1.98047,0.6914 -0.76171,0.67969 -0.94921,1.96875 z"
       style="font-style:normal;font-variant:normal;font-weight:bold;font-stretch:normal;font-size:24px;font-family:sans-serif;-inkscape-font-specification:'sans-serif Bold'"
       id="path166" />
    <path
       d="m 607.96704,166.83649 q -1.26562,0 -1.94531,0.6914 -0.67969,0.69141 -0.67969,1.98047 0,1.28906 0.67969,1.98047 0.67969,0.67969 1.94531,0.67969 1.25391,0 1.92188,-0.67969 0.66796,-0.69141 0.66796,-1.98047 0,-1.30078 -0.66796,-1.98047 -0.66797,-0.6914 -1.92188,-0.6914 z m -3.29297,-1.48828 q -1.59375,-0.48047 -2.40234,-1.47657 -0.8086,-0.99609 -0.8086,-2.48437 0,-2.21485 1.65235,-3.375 1.65234,-1.16016 4.85156,-1.16016 3.17578,0 4.82813,1.16016 1.65234,1.14844 1.65234,3.375 0,1.48828 -0.82031,2.48437 -0.8086,0.9961 -2.40235,1.47657 1.78125,0.49218 2.6836,1.60546 0.91406,1.10157 0.91406,2.78907 0,2.60156 -1.73438,3.9375 -1.72265,1.32422 -5.12109,1.32422 -3.41016,0 -5.15625,-1.32422 -1.73437,-1.33594 -1.73437,-3.9375 0,-1.6875 0.90234,-2.78907 0.91406,-1.11328 2.69531,-1.60546 z m 1.05469,-3.50391 q 0,1.04297 0.57422,1.60547 0.58594,0.5625 1.66406,0.5625 1.05469,0 1.62891,-0.5625 0.57422,-0.5625 0.57422,-1.60547 0,-1.04297 -0.57422,-1.59375 -0.57422,-0.5625 -1.62891,-0.5625 -1.07812,0 -1.66406,0.5625 -0.57422,0.5625 -0.57422,1.59375 z"
       style="font-style:normal;font-variant:normal;font-weight:bold;font-stretch:normal;font-size:24px;font-family:sans-serif;-inkscape-font-specification:'sans-serif Bold'"
       id="path168" />
    <path
       d="m 624.19751,168.75836 q -1.3125,0 -1.98047,0.44531 -0.65625,0.44532 -0.65625,1.3125 0,0.79688 0.52734,1.25391 0.53907,0.44531 1.48829,0.44531 1.18359,0 1.99218,-0.84375 0.8086,-0.85547 0.8086,-2.13281 v -0.48047 z m 6.41016,-1.58203 v 7.48828 h -4.23047 v -1.94531 q -0.84375,1.19531 -1.89844,1.74609 -1.05469,0.53907 -2.56641,0.53907 -2.03906,0 -3.3164,-1.1836 -1.26563,-1.19531 -1.26563,-3.09375 0,-2.30859 1.58203,-3.38672 1.59375,-1.07812 4.99219,-1.07812 h 2.47266 v -0.32813 q 0,-0.99609 -0.78516,-1.45312 -0.78516,-0.46875 -2.44922,-0.46875 -1.34765,0 -2.50781,0.26953 -1.16016,0.26953 -2.15625,0.80859 v -3.19922 q 1.34766,-0.32812 2.70703,-0.49218 1.35938,-0.17578 2.71875,-0.17578 3.55078,0 5.12109,1.40625 1.58204,1.39453 1.58204,4.54687 z"
       style="font-style:normal;font-variant:normal;font-weight:bold;font-stretch:normal;font-size:24px;font-family:sans-serif;-inkscape-font-specification:'sans-serif Bold'"
       id="path170" />
    <path
       d="m 634.92017,174.27789 v -3.23437 q 1.07812,0.5039 2.0625,0.76172 0.98437,0.24609 1.94531,0.24609 2.01562,0 3.14062,-1.11328 1.125,-1.125 1.32422,-3.32813 -0.79687,0.58594 -1.69922,0.87891 -0.90234,0.29297 -1.95703,0.29297 -2.68359,0 -4.33594,-1.55859 -1.64062,-1.57032 -1.64062,-4.125 0,-2.82422 1.82812,-4.52344 1.83985,-1.69922 4.92188,-1.69922 3.42187,0 5.29687,2.30859 1.875,2.3086 1.875,6.52735 0,4.33593 -2.1914,6.82031 -2.19141,2.47266 -6.01172,2.47266 -1.23047,0 -2.35547,-0.1875 -1.125,-0.17579 -2.20312,-0.53907 z m 5.5664,-8.42578 q 1.1836,0 1.78125,-0.76172 0.59766,-0.77343 0.59766,-2.30859 0,-1.52344 -0.59766,-2.29688 -0.59765,-0.77343 -1.78125,-0.77343 -1.18359,0 -1.78125,0.77343 -0.59765,0.77344 -0.59765,2.29688 0,1.53516 0.59765,2.30859 0.59766,0.76172 1.78125,0.76172 z"
       style="font-style:normal;font-variant:normal;font-weight:bold;font-stretch:normal;font-size:24px;font-family:sans-serif;-inkscape-font-specification:'sans-serif Bold'"
       id="path172" />
    <path
       d="m 656.11938,171.34821 h 7.69922 v 3.3164 h -12.71484 v -3.3164 l 6.38672,-5.63672 q 0.85547,-0.77344 1.26562,-1.51172 0.41016,-0.73828 0.41016,-1.53516 0,-1.23047 -0.83203,-1.98047 -0.82031,-0.75 -2.19141,-0.75 -1.05469,0 -2.30859,0.45703 -1.25391,0.44532 -2.6836,1.33594 v -3.84375 q 1.52344,-0.5039 3.01172,-0.76172 1.48828,-0.26953 2.91797,-0.26953 3.14063,0 4.875,1.38281 1.7461,1.38282 1.7461,3.85547 0,1.42969 -0.73829,2.67188 -0.73828,1.23047 -3.10546,3.30469 z"
       style="font-style:normal;font-variant:normal;font-weight:bold;font-stretch:normal;font-size:24px;font-family:sans-serif;-inkscape-font-specification:'sans-serif Bold'"
       id="path174" />
    <path
       d="m 668.29517,174.27789 v -3.23437 q 1.07812,0.5039 2.0625,0.76172 0.98437,0.24609 1.94531,0.24609 2.01562,0 3.14062,-1.11328 1.125,-1.125 1.32422,-3.32813 -0.79687,0.58594 -1.69922,0.87891 -0.90234,0.29297 -1.95703,0.29297 -2.68359,0 -4.33594,-1.55859 -1.64062,-1.57032 -1.64062,-4.125 0,-2.82422 1.82812,-4.52344 1.83985,-1.69922 4.92188,-1.69922 3.42187,0 5.29687,2.30859 1.875,2.3086 1.875,6.52735 0,4.33593 -2.1914,6.82031 -2.19141,2.47266 -6.01172,2.47266 -1.23047,0 -2.35547,-0.1875 -1.125,-0.17579 -2.20312,-0.53907 z m 5.5664,-8.42578 q 1.1836,0 1.78125,-0.76172 0.59766,-0.77343 0.59766,-2.30859 0,-1.52344 -0.59766,-2.29688 -0.59765,-0.77343 -1.78125,-0.77343 -1.18359,0 -1.78125,0.77343 -0.59765,0.77344 -0.59765,2.29688 0,1.53516 0.59765,2.30859 0.59766,0.76172 1.78125,0.76172 z"
       style="font-style:normal;font-variant:normal;font-weight:bold;font-stretch:normal;font-size:24px;font-family:sans-serif;-inkscape-font-specification:'sans-serif Bold'"
       id="path176" />
    <path
       d="m 691.58032,171.95758 q 1.34766,0 2.05078,-0.98437 0.71485,-0.98438 0.71485,-2.85938 0,-1.875 -0.71485,-2.85937 -0.70312,-0.98438 -2.05078,-0.98438 -1.34765,0 -2.07422,0.99609 -0.71484,0.98438 -0.71484,2.84766 0,1.86328 0.71484,2.85938 0.72657,0.98437 2.07422,0.98437 z m -2.78906,-8.49609 q 0.86719,-1.14844 1.92187,-1.6875 1.05469,-0.55078 2.42579,-0.55078 2.42578,0 3.98437,1.93359 1.55859,1.92187 1.55859,4.95703 0,3.03516 -1.55859,4.96875 -1.55859,1.92188 -3.98437,1.92188 -1.3711,0 -2.42579,-0.53907 -1.05468,-0.55078 -1.92187,-1.69922 v 1.89844 h -4.19531 v -18.23437 h 4.19531 z"
       style="font-style:normal;font-variant:normal;font-weight:bold;font-stretch:normal;font-size:24px;font-family:sans-serif;-inkscape-font-specification:'sans-serif Bold'"
       id="path178" />
  </g>
  <polygon
     points="865.11,191.9 780.59,191.9 780.59,219.31 865.11,219.31 865.11,231.5 891,205.61 865.11,179.72 "
     style="fill:none;stroke:#4fc2c9;stroke-width:7.19140911px;stroke-miterlimit:10"
     id="polygon1719-7"
     transform="translate(-73.900317,193.231)" />
  <rect
     x="853.63849"
     y="361.19601"
     width="104.21"
     height="73.510002"
     rx="12"
     ry="12"
     style="fill:none;stroke:#3a5c84;stroke-width:5px;stroke-miterlimit:10"
     id="rect1757-1" />
  <path
     d="m 885.80843,390.52602 a 3.94,3.94 0 0 1 -1.05,2.89 0.25,0.25 0 0 0 -0.05,0.27 l 1.29,2.7 a 0.22,0.22 0 0 0 0.24,0.14 3.92,3.92 0 0 1 4.2,3.78 0.25,0.25 0 0 0 0.16,0.22 l 2.82,1 h 0.1 a 0.2,0.2 0 0 0 0.23,-0.08 3.78,3.78 0 0 1 0.58,-0.55 v 0 l 0.29,-0.2 a 1.67,1.67 0 0 1 0.23,-0.12 0.24,0.24 0 0 1 0.11,-0.06 3.75,3.75 0 0 1 1.5,-0.39 3.9,3.9 0 0 1 2.89,1 0.2,0.2 0 0 0 0.27,0 l 2.7,-1.29 v 0 a 0.22,0.22 0 0 0 0.14,-0.23 3.89,3.89 0 0 1 2.5,-3.93 h 0.08 0.15 l 0.25,-0.08 v 0 a 3.66,3.66 0 0 1 0.75,-0.1 0.26,0.26 0 0 0 0.22,-0.17 l 1,-2.82 a 0.26,0.26 0 0 0 -0.07,-0.26 3.9,3.9 0 0 1 -0.3,-5.64 0.23,0.23 0 0 0 0,-0.27 l -0.88,-1.86 v 0 l -0.4,-0.84 a 0.16,0.16 0 0 0 -0.07,-0.07 v 0 0 a 0.13,0.13 0 0 0 -0.1,0 v 0 a 3.92,3.92 0 0 1 -4.2,-3.78 0.22,0.22 0 0 0 -0.16,-0.22 l -2.82,-1 a 0.2,0.2 0 0 0 -0.26,0.07 v 0 a 4,4 0 0 1 -0.89,0.76 h -0.07 l -0.26,0.14 a 3.9,3.9 0 0 1 -4.41,-0.66 0.26,0.26 0 0 0 -0.27,0 l -2.7,1.29 a 0.23,0.23 0 0 0 -0.13,0.24 3.93,3.93 0 0 1 -3.79,4.2 0.21,0.21 0 0 0 -0.22,0.16 l -0.69,1.95 v 0 l -0.31,0.88 a 0.27,0.27 0 0 0 0.07,0.27 3.9,3.9 0 0 1 1.33,2.66 z m 6.13,-4.77 v 0 l 0.27,-0.22 0.19,-0.16 0.12,-0.13 a 5.81,5.81 0 1 1 5.83,10 l -0.48,0.2 v 0 a 5.82,5.82 0 0 1 -5.93,-9.72 z"
     style="fill:#3a5c84"
     id="path1759-0"
     inkscape:connector-curvature="0" />
  <path
     d="m 899.30843,411.66602 a 5,5 0 0 1 -1.35,3.71 0.32,0.32 0 0 0 -0.06,0.35 l 1.66,3.46 c 0.1,0.2 0.21,0.19 0.3,0.18 a 5,5 0 0 1 5.4,4.86 0.32,0.32 0 0 0 0.2,0.28 l 3.63,1.28 h 0.06 a 0.24,0.24 0 0 0 0.29,-0.11 4.58,4.58 0 0 1 0.76,-0.7 c 0,0 0,0 0,0 l 0.36,-0.25 a 2.19,2.19 0 0 1 0.3,-0.16 l 0.14,-0.08 a 5,5 0 0 1 5.64,0.86 0.27,0.27 0 0 0 0.34,0 l 3.47,-1.66 v 0 a 0.3,0.3 0 0 0 0.18,-0.3 5,5 0 0 1 1.28,-3.73 5,5 0 0 1 1.92,-1.32 l 0.12,-0.05 0.19,-0.06 0.31,-0.09 h 0.07 a 5.26,5.26 0 0 1 1,-0.13 0.3,0.3 0 0 0 0.28,-0.21 l 1.29,-3.62 a 0.32,0.32 0 0 0 -0.1,-0.34 5,5 0 0 1 -0.37,-7.25 0.32,0.32 0 0 0 0.05,-0.34 l -1.15,-2.38 v 0 l -0.52,-1.08 a 0.34,0.34 0 0 0 -0.08,-0.09 v 0 0 h -0.12 v 0 a 5,5 0 0 1 -5.4,-4.86 0.3,0.3 0 0 0 -0.21,-0.28 l -3.67,-1.38 a 0.28,0.28 0 0 0 -0.34,0.08 v 0 a 5.21,5.21 0 0 1 -1.16,1 h -0.08 l -0.34,0.19 a 4.91,4.91 0 0 1 -1.95,0.51 5.06,5.06 0 0 1 -3.71,-1.36 0.32,0.32 0 0 0 -0.34,0 l -3.49,1.65 a 0.32,0.32 0 0 0 -0.18,0.3 5,5 0 0 1 -4.86,5.39 0.28,0.28 0 0 0 -0.28,0.21 l -0.89,2.51 v 0 l -0.4,1.13 a 0.33,0.33 0 0 0 0.09,0.34 5.06,5.06 0 0 1 1.72,3.54 z m 7.88,-6.13 c 0,0 0,0 0.05,0 l 0.34,-0.29 c 0.09,-0.07 0.16,-0.14 0.25,-0.2 l 0.11,-0.08 a 7.47,7.47 0 1 1 7.49,12.85 6.5,6.5 0 0 1 -0.61,0.25 v 0 a 7.47,7.47 0 0 1 -7.61,-12.49 z"
     style="fill:#3a5c84"
     id="path1761-0"
     inkscape:connector-curvature="0" />
  <path
     d="m 904.72843,378.34602 a 2.67,2.67 0 0 1 -0.72,2 0.17,0.17 0 0 0 0,0.18 l 0.88,1.84 a 0.16,0.16 0 0 0 0.16,0.1 2.65,2.65 0 0 1 2,0.67 2.73,2.73 0 0 1 0.89,1.9 0.17,0.17 0 0 0 0.11,0.16 l 1.92,0.67 v 0 a 0.14,0.14 0 0 0 0.16,-0.06 2.34,2.34 0 0 1 0.4,-0.37 v 0 l 0.19,-0.13 0.16,-0.09 h 0.08 a 2.56,2.56 0 0 1 1,-0.26 2.63,2.63 0 0 1 2,0.72 0.14,0.14 0 0 0 0.18,0 l 1.84,-0.88 v 0 a 0.16,0.16 0 0 0 0.1,-0.16 2.62,2.62 0 0 1 0.68,-2 2.56,2.56 0 0 1 1,-0.7 h 0.06 0.1 l 0.17,-0.05 v 0 a 2.25,2.25 0 0 1 0.52,-0.07 0.17,0.17 0 0 0 0.15,-0.11 l 0.68,-1.93 a 0.16,0.16 0 0 0 0,-0.17 2.7,2.7 0 0 1 -0.92,-1.88 2.64,2.64 0 0 1 0.72,-2 0.19,0.19 0 0 0 0,-0.19 l -0.61,-1.26 v 0 l -0.27,-0.57 a 0.08,0.08 0 0 0 -0.05,0 v 0 0 a 0.07,0.07 0 0 0 -0.06,0 v 0 a 2.65,2.65 0 0 1 -2,-0.68 2.69,2.69 0 0 1 -0.89,-1.9 0.16,0.16 0 0 0 -0.11,-0.15 l -1.92,-0.68 a 0.13,0.13 0 0 0 -0.18,0 v 0 a 2.8,2.8 0 0 1 -0.61,0.53 h -0.05 l -0.18,0.1 a 2.62,2.62 0 0 1 -1,0.27 2.67,2.67 0 0 1 -2,-0.72 0.15,0.15 0 0 0 -0.18,0 l -1.84,0.88 a 0.17,0.17 0 0 0 -0.1,0.16 2.67,2.67 0 0 1 -2.58,2.86 0.16,0.16 0 0 0 -0.15,0.12 l -0.47,1.33 v 0 l -0.21,0.61 a 0.18,0.18 0 0 0 0.05,0.18 2.68,2.68 0 0 1 0.9,1.73 z m 4.18,-3.26 v 0 l 0.18,-0.16 a 0.69,0.69 0 0 0 0.13,-0.11 h 0.06 a 4,4 0 0 1 6,4.55 3.94,3.94 0 0 1 -2.07,2.27 l -0.33,0.14 v 0 a 4,4 0 0 1 -4,-6.63 z"
     style="fill:#3a5c84"
     id="path1763-0"
     inkscape:connector-curvature="0" />
  <g
     aria-label="Algoritm"
     style="font-style:normal;font-variant:normal;font-weight:normal;font-stretch:normal;font-size:40px;line-height:1.25;font-family:Aharoni;-inkscape-font-specification:Aharoni;letter-spacing:0px;word-spacing:0px;fill:#000000;fill-opacity:1;stroke:none"
     id="text8716-3">
    <path
       d="m 872.54999,472.2655 h -4.68815 l -1.08854,-2.94401 h -6.0612 l -1.16276,2.94401 h -4.63868 l 6.49415,-16.88476 h 4.78711 z m -6.96419,-6.28385 -1.81836,-5.38086 -1.8431,5.38086 z"
       style="font-style:normal;font-variant:normal;font-weight:normal;font-stretch:normal;font-size:25.33333397px;font-family:Aharoni;-inkscape-font-specification:Aharoni"
       id="path16629" />
    <path
       d="m 878.19061,472.2655 h -4.05729 v -18.57942 h 4.05729 z"
       style="font-style:normal;font-variant:normal;font-weight:normal;font-stretch:normal;font-size:25.33333397px;font-family:Aharoni;-inkscape-font-specification:Aharoni"
       id="path16631" />
    <path
       d="m 893.81366,471.47384 q 0,1.50911 -0.21029,2.43685 -0.33398,1.48437 -1.73177,2.6595 -1.76888,1.48438 -4.70052,1.48438 -3.06771,0 -4.88606,-1.62045 -1.21224,-1.07617 -1.54623,-2.2513 -0.0371,-0.1237 -0.099,-0.51953 h 4.56446 q 0.19791,0.56901 0.5319,0.81641 0.54427,0.4082 1.38541,0.4082 1.41016,0 2.16472,-1.00195 0.47005,-0.63086 0.47005,-1.80599 v -1.08855 q -0.72982,0.66797 -1.22461,0.94011 -1.02669,0.56901 -2.42448,0.56901 -1.75651,0 -3.14193,-0.903 -1.42252,-0.92773 -2.04101,-2.5358 -0.42057,-1.08854 -0.42057,-2.36263 0,-2.82032 1.79361,-4.5892 1.66993,-1.64518 4.02019,-1.64518 1.24935,0 2.22656,0.50716 0.58138,0.30925 1.21224,1.01433 v -1.19987 h 4.05729 z m -3.85937,-4.98503 q 0,-1.10091 -0.75456,-1.89258 -0.75456,-0.79166 -1.85547,-0.79166 -1.22461,0 -2.00391,0.9401 -0.61849,0.75456 -0.61849,1.74414 0,1.10091 0.75456,1.89258 0.76693,0.7793 1.86784,0.7793 1.08854,0 1.8431,-0.7793 0.76693,-0.79167 0.76693,-1.89258 z"
       style="font-style:normal;font-variant:normal;font-weight:normal;font-stretch:normal;font-size:25.33333397px;font-family:Aharoni;-inkscape-font-specification:Aharoni"
       id="path16633" />
    <path
       d="m 909.95624,466.52592 q 0,2.38737 -1.57096,4.0944 -1.90495,2.07813 -5.33138,2.07813 -3.43881,0 -5.34375,-2.07813 -1.57097,-1.70703 -1.57097,-4.19336 0,-2.23893 1.58334,-3.9707 1.91731,-2.0905 5.45507,-2.0905 3.25326,0 5.19532,2.0905 1.58333,1.70703 1.58333,4.06966 z m -4.2181,0 q 0,-1.11328 -0.79167,-1.88021 -0.77929,-0.7793 -1.89257,-0.7793 -1.26172,0 -2.05339,0.94011 -0.64323,0.75456 -0.64323,1.7194 0,0.97721 0.64323,1.73177 0.79167,0.9401 2.05339,0.9401 1.12565,0 1.90494,-0.76692 0.7793,-0.7793 0.7793,-1.90495 z"
       style="font-style:normal;font-variant:normal;font-weight:normal;font-stretch:normal;font-size:25.33333397px;font-family:Aharoni;-inkscape-font-specification:Aharoni"
       id="path16635" />
    <path
       d="m 920.89114,464.53438 q -0.85352,-0.4082 -1.73178,-0.4082 -2.0039,0 -2.59765,1.63281 -0.22266,0.59375 -0.22266,1.59571 v 4.9108 h -4.05729 v -11.47916 h 4.05729 v 1.8802 q 0.64323,-1.00195 1.38542,-1.44726 1.00195,-0.59375 2.375,-0.59375 0.32161,0 0.79167,0.0371 z"
       style="font-style:normal;font-variant:normal;font-weight:normal;font-stretch:normal;font-size:25.33333397px;font-family:Aharoni;-inkscape-font-specification:Aharoni"
       id="path16637" />
    <path
       d="m 927.02655,456.37032 q 0,0.96484 -0.66797,1.63281 -0.65559,0.6556 -1.62044,0.6556 -0.95247,0 -1.62044,-0.66797 -0.6556,-0.66797 -0.6556,-1.62044 0,-0.95247 0.6556,-1.60807 0.66797,-0.66797 1.62044,-0.66797 0.95248,0 1.62044,0.66797 0.66797,0.6556 0.66797,1.60807 z m -0.25976,15.89518 h -4.05729 v -11.47916 h 4.05729 z"
       style="font-style:normal;font-variant:normal;font-weight:normal;font-stretch:normal;font-size:25.33333397px;font-family:Aharoni;-inkscape-font-specification:Aharoni"
       id="path16639" />
    <path
       d="m 936.39049,464.12618 h -2.31316 v 8.13932 h -4.05729 v -8.13932 h -1.33594 v -3.33984 h 1.33594 v -3.45118 h 4.05729 v 3.45118 h 2.31316 z"
       style="font-style:normal;font-variant:normal;font-weight:normal;font-stretch:normal;font-size:25.33333397px;font-family:Aharoni;-inkscape-font-specification:Aharoni"
       id="path16641" />
    <path
       d="m 957.33254,472.2655 h -4.05729 v -5.67773 q 0,-1.48438 -0.30925,-2.02865 -0.45768,-0.80403 -1.37304,-0.80403 -1.01433,0 -1.5586,0.87825 -0.38346,0.61849 -0.38346,1.95443 v 5.67773 h -4.05729 v -5.67773 q 0,-1.48438 -0.2474,-1.92969 -0.49479,-0.89062 -1.52148,-0.89062 -0.95248,0 -1.48438,0.76692 -0.19791,0.27214 -0.2845,0.75456 -0.0866,0.47005 -0.0866,1.29883 v 5.67773 h -4.05729 v -11.47916 h 4.05729 v 1.41015 q 0.71745,-0.69271 1.3112,-1.01432 1.07617,-0.58138 2.39974,-0.58138 1.69466,0 2.82031,0.87825 0.56901,0.44532 1.08854,1.26172 0.47005,-0.76692 1.05143,-1.21224 1.22461,-0.9401 2.79558,-0.9401 1.28645,0 2.28841,0.61849 1.07617,0.68034 1.41015,1.8431 0.19792,0.70508 0.19792,1.75651 z"
       style="font-style:normal;font-variant:normal;font-weight:normal;font-stretch:normal;font-size:25.33333397px;font-family:Aharoni;-inkscape-font-specification:Aharoni"
       id="path16643" />
  </g>
  <g
     aria-label="de hashing"
     style="font-style:normal;font-weight:normal;font-size:40px;line-height:1.25;font-family:sans-serif;letter-spacing:0px;word-spacing:0px;fill:#000000;fill-opacity:1;stroke:none"
     id="text8724-5">
    <path
       d="m 853.12982,504.05377 h -4.05729 v -1.27409 q -0.58138,0.72982 -1.17513,1.06381 -1.03906,0.58138 -2.36263,0.58138 -2.13997,0 -3.8099,-1.47201 -1.99153,-1.75651 -1.99153,-4.65104 0,-2.94401 2.04101,-4.70052 1.62045,-1.39779 3.72331,-1.39779 1.22461,0 2.30078,0.51953 0.61849,0.29688 1.27409,0.97722 v -8.22592 h 4.05729 z m -3.93359,-5.73958 q 0,-1.08854 -0.76693,-1.8431 -0.76693,-0.76693 -1.85547,-0.76693 -1.21224,0 -1.99153,0.91537 -0.63086,0.74218 -0.63086,1.69466 0,0.95247 0.63086,1.69466 0.76692,0.91536 1.99153,0.91536 1.10091,0 1.85547,-0.75455 0.76693,-0.75456 0.76693,-1.85547 z"
       style="font-style:normal;font-variant:normal;font-weight:bold;font-stretch:normal;font-size:25.33333397px;font-family:Aharoni;-inkscape-font-specification:'Aharoni Bold'"
       id="path16646" />
    <path
       d="m 868.10964,499.05638 h -8.53516 q 0,2.58528 2.4987,2.58528 1.27409,0 1.95443,-1.08854 h 3.92122 q -0.47005,1.55859 -1.38541,2.41211 -1.65756,1.54622 -4.44076,1.54622 -3.53776,0 -5.31901,-2.15234 -1.33594,-1.60807 -1.33594,-3.92122 0,-2.7461 1.66992,-4.4655 1.66993,-1.7194 4.7129,-1.7194 3.74804,0 5.35612,2.72135 0.90299,1.53386 0.90299,3.5625 z m -3.78516,-2.32552 q -0.43294,-1.90495 -2.31315,-1.90495 -1.03906,0 -1.68229,0.60612 -0.50716,0.48242 -0.64323,1.29883 z"
       style="font-style:normal;font-variant:normal;font-weight:bold;font-stretch:normal;font-size:25.33333397px;font-family:Aharoni;-inkscape-font-specification:'Aharoni Bold'"
       id="path16648" />
    <path
       d="m 889.55886,504.05377 h -4.05729 v -5.8138 q 0,-1.53385 -0.34636,-2.02865 -0.50716,-0.72981 -1.52148,-0.72981 -0.94011,0 -1.5586,0.63086 -0.56901,0.58138 -0.56901,1.79362 v 6.14778 h -4.05729 v -18.57943 h 4.05729 v 8.54753 q 0.70508,-0.81641 1.29883,-1.15039 0.97722,-0.55664 2.41211,-0.55664 1.83073,0 3.01823,1.01432 1.32357,1.13802 1.32357,3.41406 z"
       style="font-style:normal;font-variant:normal;font-weight:bold;font-stretch:normal;font-size:25.33333397px;font-family:Aharoni;-inkscape-font-specification:'Aharoni Bold'"
       id="path16650" />
    <path
       d="m 905.28087,504.05377 h -4.0573 v -1.27409 q -0.58138,0.72982 -1.17513,1.06381 -1.03906,0.58138 -2.36263,0.58138 -2.13997,0 -3.80989,-1.47201 -1.99154,-1.75651 -1.99154,-4.65104 0,-2.94401 2.04102,-4.70052 1.62044,-1.39779 3.7233,-1.39779 1.22461,0 2.30078,0.51953 0.61849,0.29688 1.27409,0.97722 v -1.12565 h 4.0573 z m -3.9336,-5.73958 q 0,-1.08854 -0.76693,-1.8431 -0.76692,-0.76693 -1.85546,-0.76693 -1.21224,0 -1.99154,0.91537 -0.63086,0.74218 -0.63086,1.69466 0,0.95247 0.63086,1.69466 0.76693,0.91536 1.99154,0.91536 1.10091,0 1.85546,-0.75455 0.76693,-0.75456 0.76693,-1.85547 z"
       style="font-style:normal;font-variant:normal;font-weight:bold;font-stretch:normal;font-size:25.33333397px;font-family:Aharoni;-inkscape-font-specification:'Aharoni Bold'"
       id="path16652" />
    <path
       d="m 917.41563,500.18203 q 0,1.83073 -1.31119,2.99349 -1.47201,1.31119 -4.14388,1.31119 -2.36263,0 -4.5892,-1.32356 l 1.47201,-2.86979 q 1.74414,1.15039 3.24088,1.15039 1.27409,0 1.27409,-0.87826 0,-0.45768 -0.44531,-0.70508 -0.28451,-0.1608 -1.28646,-0.38346 -1.12565,-0.2474 -1.472,-0.38346 -1.23698,-0.48243 -1.66993,-1.50912 -0.23502,-0.55664 -0.23502,-1.33594 0,-1.50911 1.02669,-2.63476 1.32357,-1.44727 4.08203,-1.44727 1.91732,0 3.72331,0.74219 l -1.37305,2.6224 q -1.13802,-0.58138 -2.17708,-0.58138 -1.22461,0 -1.22461,0.84114 0,0.38346 0.49479,0.61849 0.22266,0.11133 1.3112,0.33398 1.5957,0.33399 2.35026,1.06381 0.95247,0.91536 0.95247,2.375 z"
       style="font-style:normal;font-variant:normal;font-weight:bold;font-stretch:normal;font-size:25.33333397px;font-family:Aharoni;-inkscape-font-specification:'Aharoni Bold'"
       id="path16654" />
    <path
       d="m 931.61616,504.05377 h -4.0573 v -5.8138 q 0,-1.53385 -0.34635,-2.02865 -0.50716,-0.72981 -1.52149,-0.72981 -0.9401,0 -1.55859,0.63086 -0.56901,0.58138 -0.56901,1.79362 v 6.14778 h -4.05729 v -18.57943 h 4.05729 v 8.54753 q 0.70508,-0.81641 1.29883,-1.15039 0.97721,-0.55664 2.41211,-0.55664 1.83073,0 3.01823,1.01432 1.32357,1.13802 1.32357,3.41406 z"
       style="font-style:normal;font-variant:normal;font-weight:bold;font-stretch:normal;font-size:25.33333397px;font-family:Aharoni;-inkscape-font-specification:'Aharoni Bold'"
       id="path16656" />
    <path
       d="m 938.70404,488.15859 q 0,0.96484 -0.66797,1.63281 -0.65559,0.6556 -1.62044,0.6556 -0.95247,0 -1.62044,-0.66797 -0.6556,-0.66797 -0.6556,-1.62044 0,-0.95247 0.6556,-1.60807 0.66797,-0.66797 1.62044,-0.66797 0.95248,0 1.62044,0.66797 0.66797,0.6556 0.66797,1.60807 z m -0.25976,15.89518 h -4.05729 v -11.47916 h 4.05729 z"
       style="font-style:normal;font-variant:normal;font-weight:bold;font-stretch:normal;font-size:25.33333397px;font-family:Aharoni;-inkscape-font-specification:'Aharoni Bold'"
       id="path16658" />
    <path
       d="m 953.33751,504.05377 h -4.05729 v -5.8138 q 0,-1.52148 -0.34636,-2.01628 -0.50716,-0.72981 -1.52148,-0.72981 -0.92774,0 -1.5586,0.63086 -0.56901,0.56901 -0.56901,1.78125 v 6.14778 h -4.05729 v -11.47916 h 4.05729 v 1.44726 q 0.70508,-0.81641 1.29883,-1.15039 0.96484,-0.54427 2.41211,-0.54427 1.85547,0 3.01823,1.00195 1.32357,1.13802 1.32357,3.41406 z"
       style="font-style:normal;font-variant:normal;font-weight:bold;font-stretch:normal;font-size:25.33333397px;font-family:Aharoni;-inkscape-font-specification:'Aharoni Bold'"
       id="path16660" />
    <path
       d="m 968.97292,503.26211 q 0,1.50911 -0.21029,2.43684 -0.33398,1.48438 -1.73177,2.65951 -1.76888,1.48437 -4.70052,1.48437 -3.06771,0 -4.88607,-1.62044 -1.21223,-1.07617 -1.54622,-2.2513 -0.0371,-0.1237 -0.099,-0.51953 h 4.56446 q 0.19791,0.56901 0.5319,0.8164 0.54427,0.40821 1.38541,0.40821 1.41016,0 2.16472,-1.00196 0.47005,-0.63085 0.47005,-1.80598 v -1.08855 q -0.72982,0.66797 -1.22461,0.94011 -1.02669,0.56901 -2.42448,0.56901 -1.75651,0 -3.14193,-0.903 -1.42252,-0.92773 -2.04101,-2.5358 -0.42058,-1.08855 -0.42058,-2.36263 0,-2.82032 1.79362,-4.5892 1.66993,-1.64518 4.02019,-1.64518 1.24935,0 2.22656,0.50716 0.58138,0.30925 1.21224,1.01432 v -1.19986 h 4.05729 z m -3.85937,-4.98503 q 0,-1.10091 -0.75456,-1.89258 -0.75456,-0.79167 -1.85547,-0.79167 -1.22461,0 -2.00391,0.94011 -0.61849,0.75456 -0.61849,1.74414 0,1.10091 0.75456,1.89258 0.76693,0.77929 1.86784,0.77929 1.08854,0 1.8431,-0.77929 0.76693,-0.79167 0.76693,-1.89258 z"
       style="font-style:normal;font-variant:normal;font-weight:bold;font-stretch:normal;font-size:25.33333397px;font-family:Aharoni;-inkscape-font-specification:'Aharoni Bold'"
       id="path16662" />
  </g>
  <polygon
     transform="translate(538.94751,190.83258)"
     points="561.11,179.72 561.11,191.9 476.59,191.9 476.59,219.31 561.11,219.31 561.11,231.5 587,205.61 "
     style="fill:none;stroke:#4fc2c9;stroke-width:7.19140911px;stroke-miterlimit:10"
     id="polygon1717-0" />
  <rect
     x="1156.3898"
     y="379.21088"
     width="163.74991"
     height="34.729958"
     rx="9.0245199"
     ry="9.0462246"
     style="fill:none;stroke:#c13018;stroke-width:4.08305597px;stroke-miterlimit:10"
     id="rect2660-8" />
  <line
     x1="1166.7296"
     y1="385.57697"
     x2="1166.7296"
     y2="407.18079"
     style="fill:none;stroke:#c13018;stroke-width:4.71966314px;stroke-miterlimit:10"
     id="line2662-2" />
  <g
     aria-label="de8a929b"
     style="font-style:normal;font-variant:normal;font-weight:normal;font-stretch:normal;font-size:40px;line-height:1.25;font-family:Aharoni;-inkscape-font-specification:Aharoni;letter-spacing:0px;word-spacing:0px;fill:#000000;fill-opacity:1;stroke:none"
     id="text8716-5-0">
    <path
       d="m 1185.8259,393.21857 v -7.03125 h 4.2188 v 18.23437 h -4.2188 v -1.89844 q -0.8672,1.16016 -1.9101,1.69922 -1.043,0.53907 -2.4141,0.53907 -2.4258,0 -3.9844,-1.92188 -1.5586,-1.93359 -1.5586,-4.96875 0,-3.03516 1.5586,-4.95703 1.5586,-1.93359 3.9844,-1.93359 1.3594,0 2.4024,0.55078 1.0546,0.53906 1.9218,1.6875 z m -2.7656,8.49609 q 1.3477,0 2.0508,-0.98437 0.7148,-0.98438 0.7148,-2.85938 0,-1.875 -0.7148,-2.85937 -0.7031,-0.98438 -2.0508,-0.98438 -1.3359,0 -2.0508,0.98438 -0.7031,0.98437 -0.7031,2.85937 0,1.875 0.7031,2.85938 0.7149,0.98437 2.0508,0.98437 z"
       style="font-style:normal;font-variant:normal;font-weight:bold;font-stretch:normal;font-size:24px;font-family:sans-serif;-inkscape-font-specification:'sans-serif Bold'"
       id="path181" />
    <path
       d="m 1207.2009,397.82404 v 1.19531 h -9.8086 q 0.1524,1.47656 1.0664,2.21484 0.9141,0.73828 2.5547,0.73828 1.3242,0 2.7071,-0.38672 1.3945,-0.39843 2.8593,-1.19531 v 3.23438 q -1.4882,0.5625 -2.9765,0.84375 -1.4883,0.29297 -2.9766,0.29297 -3.5625,0 -5.543,-1.80469 -1.9687,-1.81641 -1.9687,-5.08594 0,-3.21094 1.9336,-5.05078 1.9453,-1.83984 5.3437,-1.83984 3.0938,0 4.9453,1.86328 1.8633,1.86328 1.8633,4.98047 z m -4.3125,-1.39454 q 0,-1.19531 -0.7031,-1.92187 -0.6914,-0.73828 -1.8164,-0.73828 -1.2188,0 -1.9805,0.6914 -0.7617,0.67969 -0.9492,1.96875 z"
       style="font-style:normal;font-variant:normal;font-weight:bold;font-stretch:normal;font-size:24px;font-family:sans-serif;-inkscape-font-specification:'sans-serif Bold'"
       id="path183" />
    <path
       d="m 1216.7048,396.59357 q -1.2656,0 -1.9453,0.6914 -0.6797,0.69141 -0.6797,1.98047 0,1.28906 0.6797,1.98047 0.6797,0.67969 1.9453,0.67969 1.2539,0 1.9219,-0.67969 0.668,-0.69141 0.668,-1.98047 0,-1.30078 -0.668,-1.98047 -0.668,-0.6914 -1.9219,-0.6914 z m -3.2929,-1.48828 q -1.5938,-0.48047 -2.4024,-1.47657 -0.8086,-0.99609 -0.8086,-2.48437 0,-2.21485 1.6524,-3.375 1.6523,-1.16016 4.8515,-1.16016 3.1758,0 4.8282,1.16016 1.6523,1.14844 1.6523,3.375 0,1.48828 -0.8203,2.48437 -0.8086,0.9961 -2.4024,1.47657 1.7813,0.49218 2.6836,1.60546 0.9141,1.10157 0.9141,2.78907 0,2.60156 -1.7344,3.9375 -1.7226,1.32422 -5.1211,1.32422 -3.4101,0 -5.1562,-1.32422 -1.7344,-1.33594 -1.7344,-3.9375 0,-1.6875 0.9024,-2.78907 0.914,-1.11328 2.6953,-1.60546 z m 1.0547,-3.50391 q 0,1.04297 0.5742,1.60547 0.5859,0.5625 1.664,0.5625 1.0547,0 1.6289,-0.5625 0.5743,-0.5625 0.5743,-1.60547 0,-1.04297 -0.5743,-1.59375 -0.5742,-0.5625 -1.6289,-0.5625 -1.0781,0 -1.664,0.5625 -0.5742,0.5625 -0.5742,1.59375 z"
       style="font-style:normal;font-variant:normal;font-weight:bold;font-stretch:normal;font-size:24px;font-family:sans-serif;-inkscape-font-specification:'sans-serif Bold'"
       id="path185" />
    <path
       d="m 1232.9353,398.51544 q -1.3125,0 -1.9805,0.44531 -0.6562,0.44532 -0.6562,1.3125 0,0.79688 0.5273,1.25391 0.5391,0.44531 1.4883,0.44531 1.1836,0 1.9922,-0.84375 0.8086,-0.85547 0.8086,-2.13281 v -0.48047 z m 6.4102,-1.58203 v 7.48828 h -4.2305 v -1.94531 q -0.8438,1.19531 -1.8984,1.74609 -1.0547,0.53907 -2.5665,0.53907 -2.039,0 -3.3164,-1.1836 -1.2656,-1.19531 -1.2656,-3.09375 0,-2.30859 1.582,-3.38672 1.5938,-1.07812 4.9922,-1.07812 h 2.4727 v -0.32813 q 0,-0.99609 -0.7852,-1.45312 -0.7851,-0.46875 -2.4492,-0.46875 -1.3476,0 -2.5078,0.26953 -1.1602,0.26953 -2.1562,0.80859 v -3.19922 q 1.3476,-0.32812 2.707,-0.49218 1.3594,-0.17578 2.7187,-0.17578 3.5508,0 5.1211,1.40625 1.5821,1.39453 1.5821,4.54687 z"
       style="font-style:normal;font-variant:normal;font-weight:bold;font-stretch:normal;font-size:24px;font-family:sans-serif;-inkscape-font-specification:'sans-serif Bold'"
       id="path187" />
    <path
       d="m 1243.658,404.03497 v -3.23437 q 1.0781,0.5039 2.0625,0.76172 0.9843,0.24609 1.9453,0.24609 2.0156,0 3.1406,-1.11328 1.125,-1.125 1.3242,-3.32813 -0.7969,0.58594 -1.6992,0.87891 -0.9023,0.29297 -1.957,0.29297 -2.6836,0 -4.336,-1.55859 -1.6406,-1.57032 -1.6406,-4.125 0,-2.82422 1.8281,-4.52344 1.8399,-1.69922 4.9219,-1.69922 3.4219,0 5.2969,2.30859 1.875,2.3086 1.875,6.52735 0,4.33593 -2.1914,6.82031 -2.1914,2.47266 -6.0117,2.47266 -1.2305,0 -2.3555,-0.1875 -1.125,-0.17579 -2.2031,-0.53907 z m 5.5664,-8.42578 q 1.1836,0 1.7812,-0.76172 0.5977,-0.77343 0.5977,-2.30859 0,-1.52344 -0.5977,-2.29688 -0.5976,-0.77343 -1.7812,-0.77343 -1.1836,0 -1.7813,0.77343 -0.5976,0.77344 -0.5976,2.29688 0,1.53516 0.5976,2.30859 0.5977,0.76172 1.7813,0.76172 z"
       style="font-style:normal;font-variant:normal;font-weight:bold;font-stretch:normal;font-size:24px;font-family:sans-serif;-inkscape-font-specification:'sans-serif Bold'"
       id="path189" />
    <path
       d="m 1264.8572,401.10529 h 7.6992 v 3.3164 h -12.7148 v -3.3164 l 6.3867,-5.63672 q 0.8554,-0.77344 1.2656,-1.51172 0.4102,-0.73828 0.4102,-1.53516 0,-1.23047 -0.8321,-1.98047 -0.8203,-0.75 -2.1914,-0.75 -1.0547,0 -2.3086,0.45703 -1.2539,0.44532 -2.6836,1.33594 v -3.84375 q 1.5235,-0.5039 3.0117,-0.76172 1.4883,-0.26953 2.918,-0.26953 3.1406,0 4.875,1.38281 1.7461,1.38282 1.7461,3.85547 0,1.42969 -0.7383,2.67188 -0.7383,1.23047 -3.1054,3.30469 z"
       style="font-style:normal;font-variant:normal;font-weight:bold;font-stretch:normal;font-size:24px;font-family:sans-serif;-inkscape-font-specification:'sans-serif Bold'"
       id="path191" />
    <path
       d="m 1277.033,404.03497 v -3.23437 q 1.0781,0.5039 2.0625,0.76172 0.9843,0.24609 1.9453,0.24609 2.0156,0 3.1406,-1.11328 1.125,-1.125 1.3242,-3.32813 -0.7969,0.58594 -1.6992,0.87891 -0.9023,0.29297 -1.957,0.29297 -2.6836,0 -4.336,-1.55859 -1.6406,-1.57032 -1.6406,-4.125 0,-2.82422 1.8281,-4.52344 1.8399,-1.69922 4.9219,-1.69922 3.4219,0 5.2969,2.30859 1.875,2.3086 1.875,6.52735 0,4.33593 -2.1914,6.82031 -2.1914,2.47266 -6.0117,2.47266 -1.2305,0 -2.3555,-0.1875 -1.125,-0.17579 -2.2031,-0.53907 z m 5.5664,-8.42578 q 1.1836,0 1.7812,-0.76172 0.5977,-0.77343 0.5977,-2.30859 0,-1.52344 -0.5977,-2.29688 -0.5976,-0.77343 -1.7812,-0.77343 -1.1836,0 -1.7813,0.77343 -0.5976,0.77344 -0.5976,2.29688 0,1.53516 0.5976,2.30859 0.5977,0.76172 1.7813,0.76172 z"
       style="font-style:normal;font-variant:normal;font-weight:bold;font-stretch:normal;font-size:24px;font-family:sans-serif;-inkscape-font-specification:'sans-serif Bold'"
       id="path193" />
    <path
       d="m 1300.3181,401.71466 q 1.3477,0 2.0508,-0.98437 0.7148,-0.98438 0.7148,-2.85938 0,-1.875 -0.7148,-2.85937 -0.7031,-0.98438 -2.0508,-0.98438 -1.3476,0 -2.0742,0.99609 -0.7148,0.98438 -0.7148,2.84766 0,1.86328 0.7148,2.85938 0.7266,0.98437 2.0742,0.98437 z m -2.789,-8.49609 q 0.8671,-1.14844 1.9218,-1.6875 1.0547,-0.55078 2.4258,-0.55078 2.4258,0 3.9844,1.93359 1.5586,1.92187 1.5586,4.95703 0,3.03516 -1.5586,4.96875 -1.5586,1.92188 -3.9844,1.92188 -1.3711,0 -2.4258,-0.53907 -1.0547,-0.55078 -1.9218,-1.69922 v 1.89844 h -4.1954 v -18.23437 h 4.1954 z"
       style="font-style:normal;font-variant:normal;font-weight:bold;font-stretch:normal;font-size:24px;font-family:sans-serif;-inkscape-font-specification:'sans-serif Bold'"
       id="path195" />
  </g>
  <polygon
     points="865.11,191.9 780.59,191.9 780.59,219.31 865.11,219.31 865.11,231.5 891,205.61 865.11,179.72 "
     style="fill:none;stroke:#4fc2c9;stroke-width:7.19140911px;stroke-miterlimit:10"
     id="polygon1719-0"
     transform="rotate(-90.165873,1076.7434,40.892054)" />
  <g
     aria-label="Sum de"
     style="font-style:normal;font-variant:normal;font-weight:normal;font-stretch:normal;font-size:40px;line-height:1.25;font-family:Aharoni;-inkscape-font-specification:Aharoni;letter-spacing:0px;word-spacing:0px;fill:#000000;fill-opacity:1;stroke:none"
     id="text8716-3-7-7">
    <path
       d="m 584.77899,87.448104 v 3.908855 q -1.52148,-0.680339 -2.96875,-1.026693 -1.44726,-0.346354 -2.73372,-0.346354 -1.70703,0 -2.52344,0.470052 -0.81641,0.470052 -0.81641,1.459635 0,0.742188 0.54427,1.162761 0.55665,0.408203 2.00391,0.705078 l 2.02865,0.408203 q 3.08008,0.61849 4.3789,1.880208 1.29883,1.261719 1.29883,3.58724 0,3.055341 -1.81836,4.552081 -1.80599,1.48438 -5.52929,1.48438 -1.75652,0 -3.5254,-0.33399 -1.76888,-0.33398 -3.53776,-0.98958 v -4.02018 q 1.76888,0.9401 3.41407,1.42252 1.65755,0.47006 3.1914,0.47006 1.5586,0 2.38737,-0.51954 0.82878,-0.51953 0.82878,-1.48437 0,-0.865886 -0.56901,-1.335938 -0.55664,-0.470052 -2.23893,-0.841146 l -1.8431,-0.408203 q -2.77084,-0.59375 -4.05729,-1.892578 -1.27409,-1.298829 -1.27409,-3.500652 0,-2.758463 1.78125,-4.242838 1.78125,-1.484375 5.12109,-1.484375 1.52149,0 3.12956,0.235026 1.60807,0.222656 3.32747,0.680338 z"
       style="font-style:normal;font-variant:normal;font-weight:bold;font-stretch:normal;font-size:25.33333397px;font-family:sans-serif;-inkscape-font-specification:sans-serif"
       id="path16708" />
    <path
       d="m 589.83824,99.941594 v -8.460937 h 4.45312 v 1.385416 q 0,1.125651 -0.0124,2.832683 -0.0124,1.694661 -0.0124,2.263672 0,1.669922 0.0866,2.412112 0.0866,0.72981 0.29688,1.0638 0.27213,0.43294 0.70507,0.66797 0.44532,0.23502 1.01433,0.23502 1.38541,0 2.17708,-1.0638 0.79167,-1.0638 0.79167,-2.956378 v -6.840495 h 4.42838 v 13.854163 h -4.42838 v -2.0039 q -1.00196,1.21224 -2.12761,1.79362 -1.11328,0.56901 -2.46159,0.56901 -2.39974,0 -3.66145,-1.47201 -1.24935,-1.472 -1.24935,-4.279946 z"
       style="font-style:normal;font-variant:normal;font-weight:bold;font-stretch:normal;font-size:25.33333397px;font-family:sans-serif;-inkscape-font-specification:sans-serif"
       id="path16710" />
    <path
       d="m 620.88642,93.781438 q 0.84114,-1.286458 1.99153,-1.954427 1.16276,-0.680339 2.54818,-0.680339 2.38737,0 3.63672,1.472005 1.24935,1.472006 1.24935,4.279948 v 8.436195 h -4.45313 v -7.223955 q 0.0124,-0.160807 0.0124,-0.333984 0.0124,-0.173177 0.0124,-0.494792 0,-1.472005 -0.43294,-2.127604 -0.43294,-0.667969 -1.39779,-0.667969 -1.26172,0 -1.95442,1.039063 -0.68034,1.039062 -0.70508,3.005859 v 6.803382 h -4.45313 v -7.223955 q 0,-2.300781 -0.39583,-2.95638 -0.39583,-0.667969 -1.41016,-0.667969 -1.27409,0 -1.96679,1.051432 -0.69271,1.039063 -0.69271,2.98112 v 6.815752 h -4.45313 V 91.480657 h 4.45313 v 2.028645 q 0.8164,-1.17513 1.86784,-1.76888 1.0638,-0.59375 2.33789,-0.59375 1.43489,0 2.5358,0.692709 1.10092,0.692708 1.66993,1.942057 z"
       style="font-style:normal;font-variant:normal;font-weight:bold;font-stretch:normal;font-size:25.33333397px;font-family:sans-serif;-inkscape-font-specification:sans-serif"
       id="path16712" />
    <path
       d="m 637.21454,85.580266 h 1.76888 q 0.13607,0.865885 0.74219,1.323568 0.61849,0.457682 1.64518,0.457682 1.02669,0 1.63281,-0.457682 0.61849,-0.457683 0.75456,-1.323568 h 1.76888 q -0.0742,1.78125 -1.15039,2.733724 -1.07617,0.940104 -3.00586,0.940104 -1.92969,0 -3.00586,-0.940104 -1.07617,-0.952474 -1.15039,-2.733724 z m 3.46354,13.520182 q -1.38541,0 -2.09049,0.470053 -0.69271,0.470049 -0.69271,1.385419 0,0.84114 0.55664,1.32356 0.56901,0.47006 1.57096,0.47006 1.24935,0 2.10287,-0.89063 0.85351,-0.90299 0.85351,-2.2513 v -0.507162 z m 6.76628,-1.669921 v 7.904293 h -4.4655 v -2.05338 q -0.89062,1.26172 -2.0039,1.8431 -1.11328,0.56901 -2.70899,0.56901 -2.15234,0 -3.50065,-1.24935 -1.33594,-1.26172 -1.33594,-3.26563 0,-2.436846 1.66993,-3.574866 1.68229,-1.138021 5.26953,-1.138021 h 2.61002 v -0.346354 q 0,-1.051433 -0.82877,-1.533855 -0.82878,-0.494791 -2.58529,-0.494791 -1.42252,0 -2.64713,0.284505 -1.22461,0.284505 -2.27605,0.853516 V 91.85175 q 1.42253,-0.346354 2.85743,-0.519531 1.43489,-0.185547 2.86979,-0.185547 3.74805,0 5.4056,1.484375 1.66992,1.472005 1.66992,4.79948 z"
       style="font-style:normal;font-variant:normal;font-weight:bold;font-stretch:normal;font-size:25.33333397px;font-family:sans-serif;-inkscape-font-specification:sans-serif"
       id="path16714" />
    <path
       d="m 669.82131,93.509302 v -7.421875 h 4.45313 v 19.247393 h -4.45313 v -2.0039 q -0.91536,1.22461 -2.01627,1.79362 -1.10091,0.56901 -2.54818,0.56901 -2.56055,0 -4.20573,-2.02865 -1.64518,-2.04101 -1.64518,-5.24479 0,-3.203776 1.64518,-5.232422 1.64518,-2.041016 4.20573,-2.041016 1.4349,0 2.53581,0.58138 1.11328,0.569011 2.02864,1.78125 z m -2.91927,8.968098 q 1.42253,0 2.16472,-1.03906 0.75455,-1.03906 0.75455,-3.01823 0,-1.979167 -0.75455,-3.018229 -0.74219,-1.039063 -2.16472,-1.039063 -1.41015,0 -2.16471,1.039063 -0.74219,1.039062 -0.74219,3.018229 0,1.97917 0.74219,3.01823 0.75456,1.03906 2.16471,1.03906 z"
       style="font-style:normal;font-variant:normal;font-weight:bold;font-stretch:normal;font-size:25.33333397px;font-family:sans-serif;-inkscape-font-specification:sans-serif"
       id="path16716" />
    <path
       d="M 692.38381,98.370631 V 99.63235 H 682.0303 q 0.1608,1.55859 1.12565,2.33789 0.96484,0.7793 2.69661,0.7793 1.39779,0 2.85742,-0.40821 1.47201,-0.42057 3.01823,-1.26171 v 3.41406 q -1.57096,0.59375 -3.14192,0.89062 -1.57097,0.30925 -3.14193,0.30925 -3.76042,0 -5.85091,-1.90495 -2.07813,-1.91732 -2.07813,-5.36849 0,-3.389323 2.04102,-5.33138 2.05338,-1.942058 5.64062,-1.942058 3.26563,0 5.22006,1.966797 1.96679,1.966797 1.96679,5.257162 z m -4.55208,-1.472006 q 0,-1.261718 -0.74219,-2.028645 -0.72982,-0.779297 -1.91732,-0.779297 -1.28645,0 -2.09049,0.729817 -0.80404,0.717448 -1.00195,2.078125 z"
       style="font-style:normal;font-variant:normal;font-weight:bold;font-stretch:normal;font-size:25.33333397px;font-family:sans-serif;-inkscape-font-specification:sans-serif"
       id="path16718" />
  </g>
  <g
     aria-label="control"
     style="font-style:normal;font-weight:normal;font-size:40px;line-height:1.25;font-family:sans-serif;letter-spacing:0px;word-spacing:0px;fill:#000000;fill-opacity:1;stroke:none"
     id="text8974">
    <path
       d="m 593.65723,118.53324 v 3.61198 q -0.903,-0.61849 -1.81836,-0.91536 -0.903,-0.29688 -1.88021,-0.29688 -1.85547,0 -2.89453,1.08854 -1.02669,1.07618 -1.02669,3.01823 0,1.94206 1.02669,3.0306 1.03906,1.07617 2.89453,1.07617 1.03906,0 1.9668,-0.30924 0.9401,-0.30924 1.73177,-0.91536 v 3.62434 q -1.03907,0.38347 -2.11524,0.56902 -1.0638,0.19791 -2.13997,0.19791 -3.74805,0 -5.86328,-1.91732 -2.11524,-1.92968 -2.11524,-5.35612 0,-3.42643 2.11524,-5.34375 2.11523,-1.92968 5.86328,-1.92968 1.08854,0 2.13997,0.19791 1.0638,0.18555 2.11524,0.56901 z"
       style="font-weight:bold;font-size:25.33333397px"
       id="path16693" />
    <path
       d="m 604.09733,120.93298 q -1.472,0 -2.2513,1.06381 -0.76693,1.05143 -0.76693,3.04296 0,1.99154 0.76693,3.05534 0.7793,1.05143 2.2513,1.05143 1.44727,0 2.21419,-1.05143 0.76693,-1.0638 0.76693,-3.05534 0,-1.99153 -0.76693,-3.04296 -0.76692,-1.06381 -2.21419,-1.06381 z m 0,-3.16666 q 3.57487,0 5.57878,1.92968 2.01627,1.92969 2.01627,5.34375 0,3.41407 -2.01627,5.34375 -2.00391,1.92969 -5.57878,1.92969 -3.58724,0 -5.61588,-1.92969 -2.01628,-1.92968 -2.01628,-5.34375 0,-3.41406 2.01628,-5.34375 2.02864,-1.92968 5.61588,-1.92968 z"
       style="font-weight:bold;font-size:25.33333397px"
       id="path16695" />
    <path
       d="m 628.84929,123.51827 v 8.4362 h -4.45313 v -1.37305 -5.08398 q 0,-1.79362 -0.0866,-2.47396 -0.0742,-0.68034 -0.27213,-1.00196 -0.25977,-0.43294 -0.70508,-0.66796 -0.44531,-0.2474 -1.01432,-0.2474 -1.38542,0 -2.17709,1.07617 -0.79166,1.0638 -0.79166,2.95638 v 6.81576 H 614.9209 V 118.1003 h 4.42839 v 2.02865 q 1.00195,-1.21224 2.1276,-1.78125 1.12565,-0.58138 2.48633,-0.58138 2.39974,0 3.63672,1.472 1.24935,1.47201 1.24935,4.27995 z"
       style="font-weight:bold;font-size:25.33333397px"
       id="path16697" />
    <path
       d="m 637.81738,114.16671 v 3.93359 h 4.56446 v 3.16667 h -4.56446 v 5.87565 q 0,0.96484 0.38347,1.3112 0.38346,0.33398 1.52148,0.33398 h 2.27604 v 3.16667 h -3.79752 q -2.6224,0 -3.72331,-1.08854 -1.08854,-1.10092 -1.08854,-3.72331 v -5.87565 h -2.20182 v -3.16667 h 2.20182 v -3.93359 z"
       style="font-weight:bold;font-size:25.33333397px"
       id="path16699" />
    <path
       d="m 655.39486,121.87309 q -0.58138,-0.27214 -1.16276,-0.39584 -0.56901,-0.13606 -1.15039,-0.13606 -1.70703,0 -2.63477,1.10091 -0.91536,1.08854 -0.91536,3.12956 v 6.38281 h -4.42839 V 118.1003 h 4.42839 v 2.27604 q 0.85352,-1.36067 1.95443,-1.97916 1.11328,-0.63086 2.6595,-0.63086 0.22266,0 0.48242,0.0247 0.25977,0.0124 0.75456,0.0742 z"
       style="font-weight:bold;font-size:25.33333397px"
       id="path16701" />
    <path
       d="m 664.21452,120.93298 q -1.472,0 -2.2513,1.06381 -0.76693,1.05143 -0.76693,3.04296 0,1.99154 0.76693,3.05534 0.7793,1.05143 2.2513,1.05143 1.44727,0 2.2142,-1.05143 0.76692,-1.0638 0.76692,-3.05534 0,-1.99153 -0.76692,-3.04296 -0.76693,-1.06381 -2.2142,-1.06381 z m 0,-3.16666 q 3.57487,0 5.57878,1.92968 2.01628,1.92969 2.01628,5.34375 0,3.41407 -2.01628,5.34375 -2.00391,1.92969 -5.57878,1.92969 -3.58724,0 -5.61588,-1.92969 -2.01628,-1.92968 -2.01628,-5.34375 0,-3.41406 2.01628,-5.34375 2.02864,-1.92968 5.61588,-1.92968 z"
       style="font-weight:bold;font-size:25.33333397px"
       id="path16703" />
    <path
       d="m 675.03809,112.70707 h 4.42838 v 19.2474 h -4.42838 z"
       style="font-weight:bold;font-size:25.33333397px"
       id="path16705" />
  </g>
  <g
     aria-label="Sum de"
     style="font-style:normal;font-variant:normal;font-weight:normal;font-stretch:normal;font-size:40px;line-height:1.25;font-family:Aharoni;-inkscape-font-specification:Aharoni;letter-spacing:0px;word-spacing:0px;fill:#000000;fill-opacity:1;stroke:none"
     id="text8716-3-7-7-6">
    <path
       d="m 1190.0173,433.51849 v 3.90886 q -1.5215,-0.68034 -2.9687,-1.0267 -1.4473,-0.34635 -2.7337,-0.34635 -1.7071,0 -2.5235,0.47005 -0.8164,0.47005 -0.8164,1.45964 0,0.74219 0.5443,1.16276 0.5566,0.4082 2.0039,0.70508 l 2.0286,0.4082 q 3.0801,0.61849 4.3789,1.88021 1.2989,1.26172 1.2989,3.58724 0,3.05534 -1.8184,4.55208 -1.806,1.48438 -5.5293,1.48438 -1.7565,0 -3.5254,-0.33399 -1.7689,-0.33398 -3.5377,-0.98958 v -4.02018 q 1.7688,0.9401 3.414,1.42252 1.6576,0.47005 3.1914,0.47005 1.5586,0 2.3874,-0.51953 0.8288,-0.51953 0.8288,-1.48437 0,-0.86589 -0.569,-1.33594 -0.5567,-0.47005 -2.239,-0.84115 l -1.8431,-0.4082 q -2.7708,-0.59375 -4.0573,-1.89258 -1.274,-1.29882 -1.274,-3.50065 0,-2.75846 1.7812,-4.24284 1.7813,-1.48437 5.1211,-1.48437 1.5215,0 3.1296,0.23502 1.608,0.22266 3.3274,0.68034 z"
       style="font-style:normal;font-variant:normal;font-weight:bold;font-stretch:normal;font-size:25.33333397px;font-family:sans-serif;-inkscape-font-specification:sans-serif"
       id="path16665" />
    <path
       d="m 1195.0766,446.01198 v -8.46093 h 4.4531 v 1.38541 q 0,1.12565 -0.012,2.83268 -0.012,1.69467 -0.012,2.26368 0,1.66992 0.087,2.41211 0.087,0.72981 0.2968,1.0638 0.2722,0.43294 0.7051,0.66797 0.4453,0.23502 1.0143,0.23502 1.3854,0 2.1771,-1.0638 0.7917,-1.0638 0.7917,-2.95638 v -6.84049 h 4.4284 v 13.85416 h -4.4284 v -2.0039 q -1.002,1.21224 -2.1276,1.79362 -1.1133,0.56901 -2.4616,0.56901 -2.3998,0 -3.6615,-1.47201 -1.2493,-1.472 -1.2493,-4.27995 z"
       style="font-style:normal;font-variant:normal;font-weight:bold;font-stretch:normal;font-size:25.33333397px;font-family:sans-serif;-inkscape-font-specification:sans-serif"
       id="path16667" />
    <path
       d="m 1226.1248,439.85183 q 0.8411,-1.28646 1.9915,-1.95443 1.1628,-0.68034 2.5482,-0.68034 2.3873,0 3.6367,1.47201 1.2493,1.472 1.2493,4.27994 v 8.4362 h -4.4531 v -7.22396 q 0.012,-0.1608 0.012,-0.33398 0.012,-0.17318 0.012,-0.49479 0,-1.47201 -0.433,-2.12761 -0.4329,-0.66797 -1.3978,-0.66797 -1.2617,0 -1.9544,1.03907 -0.6803,1.03906 -0.7051,3.00586 v 6.80338 h -4.4531 v -7.22396 q 0,-2.30078 -0.3958,-2.95638 -0.3959,-0.66797 -1.4102,-0.66797 -1.2741,0 -1.9668,1.05144 -0.6927,1.03906 -0.6927,2.98112 v 6.81575 h -4.4531 v -13.85416 h 4.4531 v 2.02864 q 0.8164,-1.17513 1.8678,-1.76888 1.0638,-0.59375 2.3379,-0.59375 1.4349,0 2.5358,0.69271 1.1009,0.69271 1.67,1.94206 z"
       style="font-style:normal;font-variant:normal;font-weight:bold;font-stretch:normal;font-size:25.33333397px;font-family:sans-serif;-inkscape-font-specification:sans-serif"
       id="path16669" />
    <path
       d="m 1242.4529,431.65065 h 1.7689 q 0.136,0.86589 0.7422,1.32357 0.6184,0.45768 1.6451,0.45768 1.0267,0 1.6328,-0.45768 0.6185,-0.45768 0.7546,-1.32357 h 1.7689 q -0.074,1.78125 -1.1504,2.73373 -1.0762,0.9401 -3.0059,0.9401 -1.9297,0 -3.0058,-0.9401 -1.0762,-0.95248 -1.1504,-2.73373 z m 3.4635,13.52019 q -1.3854,0 -2.0905,0.47005 -0.6927,0.47005 -0.6927,1.38542 0,0.84114 0.5567,1.32356 0.569,0.47006 1.5709,0.47006 1.2494,0 2.1029,-0.89063 0.8535,-0.90299 0.8535,-2.2513 v -0.50716 z m 6.7663,-1.66992 v 7.90429 h -4.4655 v -2.05338 q -0.8906,1.26172 -2.0039,1.8431 -1.1133,0.56901 -2.709,0.56901 -2.1523,0 -3.5006,-1.24935 -1.336,-1.26172 -1.336,-3.26563 0,-2.43685 1.6699,-3.57487 1.6823,-1.13802 5.2696,-1.13802 h 2.61 v -0.34635 q 0,-1.05143 -0.8288,-1.53386 -0.8287,-0.49479 -2.5853,-0.49479 -1.4225,0 -2.6471,0.28451 -1.2246,0.2845 -2.276,0.85351 v -3.37695 q 1.4225,-0.34636 2.8574,-0.51953 1.4349,-0.18555 2.8698,-0.18555 3.748,0 5.4056,1.48438 1.6699,1.472 1.6699,4.79948 z"
       style="font-style:normal;font-variant:normal;font-weight:bold;font-stretch:normal;font-size:25.33333397px;font-family:sans-serif;-inkscape-font-specification:sans-serif"
       id="path16671" />
    <path
       d="m 1275.0597,439.57969 v -7.42187 h 4.4531 v 19.24739 h -4.4531 v -2.0039 q -0.9154,1.22461 -2.0163,1.79362 -1.1009,0.56901 -2.5482,0.56901 -2.5605,0 -4.2057,-2.02865 -1.6452,-2.04102 -1.6452,-5.24479 0,-3.20378 1.6452,-5.23242 1.6452,-2.04102 4.2057,-2.04102 1.4349,0 2.5358,0.58138 1.1133,0.56901 2.0287,1.78125 z m -2.9193,8.9681 q 1.4225,0 2.1647,-1.03906 0.7546,-1.03906 0.7546,-3.01823 0,-1.97917 -0.7546,-3.01823 -0.7422,-1.03906 -2.1647,-1.03906 -1.4102,0 -2.1647,1.03906 -0.7422,1.03906 -0.7422,3.01823 0,1.97917 0.7422,3.01823 0.7545,1.03906 2.1647,1.03906 z"
       style="font-style:normal;font-variant:normal;font-weight:bold;font-stretch:normal;font-size:25.33333397px;font-family:sans-serif;-inkscape-font-specification:sans-serif"
       id="path16673" />
    <path
       d="m 1297.6222,444.44102 v 1.26172 h -10.3536 q 0.1608,1.55859 1.1257,2.33789 0.9648,0.7793 2.6966,0.7793 1.3978,0 2.8574,-0.40821 1.472,-0.42057 3.0183,-1.26172 v 3.41407 q -1.571,0.59375 -3.142,0.89062 -1.5709,0.30925 -3.1419,0.30925 -3.7604,0 -5.8509,-1.90495 -2.0781,-1.91732 -2.0781,-5.36849 0,-3.38932 2.041,-5.33138 2.0534,-1.94206 5.6406,-1.94206 3.2656,0 5.2201,1.9668 1.9668,1.96679 1.9668,5.25716 z m -4.5521,-1.47201 q 0,-1.26171 -0.7422,-2.02864 -0.7298,-0.7793 -1.9173,-0.7793 -1.2865,0 -2.0905,0.72982 -0.8041,0.71745 -1.002,2.07812 z"
       style="font-style:normal;font-variant:normal;font-weight:bold;font-stretch:normal;font-size:25.33333397px;font-family:sans-serif;-inkscape-font-specification:sans-serif"
       id="path16675" />
  </g>
  <g
     aria-label="control"
     style="font-style:normal;font-weight:normal;font-size:40px;line-height:1.25;font-family:sans-serif;letter-spacing:0px;word-spacing:0px;fill:#000000;fill-opacity:1;stroke:none"
     id="text8974-1">
    <path
       d="m 1198.8955,464.60362 v 3.61198 q -0.903,-0.61849 -1.8184,-0.91537 -0.9029,-0.29687 -1.8802,-0.29687 -1.8554,0 -2.8945,1.08854 -1.0267,1.07617 -1.0267,3.01823 0,1.94205 1.0267,3.0306 1.0391,1.07617 2.8945,1.07617 1.0391,0 1.9668,-0.30925 0.9401,-0.30924 1.7318,-0.91536 v 3.62435 q -1.0391,0.38346 -2.1152,0.56901 -1.0638,0.19792 -2.14,0.19792 -3.748,0 -5.8633,-1.91732 -2.1152,-1.92969 -2.1152,-5.35612 0,-3.42643 2.1152,-5.34375 2.1153,-1.92969 5.8633,-1.92969 1.0885,0 2.14,0.19792 1.0638,0.18554 2.1152,0.56901 z"
       style="font-weight:bold;font-size:25.33333397px"
       id="path16678" />
    <path
       d="m 1209.3356,467.00336 q -1.472,0 -2.2513,1.0638 -0.7669,1.05143 -0.7669,3.04297 0,1.99153 0.7669,3.05534 0.7793,1.05143 2.2513,1.05143 1.4473,0 2.2142,-1.05143 0.7669,-1.06381 0.7669,-3.05534 0,-1.99154 -0.7669,-3.04297 -0.7669,-1.0638 -2.2142,-1.0638 z m 0,-3.16667 q 3.5749,0 5.5788,1.92969 2.0163,1.92969 2.0163,5.34375 0,3.41406 -2.0163,5.34375 -2.0039,1.92969 -5.5788,1.92969 -3.5872,0 -5.6159,-1.92969 -2.0162,-1.92969 -2.0162,-5.34375 0,-3.41406 2.0162,-5.34375 2.0287,-1.92969 5.6159,-1.92969 z"
       style="font-weight:bold;font-size:25.33333397px"
       id="path16680" />
    <path
       d="m 1234.0876,469.58864 v 8.4362 h -4.4532 v -1.37305 -5.08398 q 0,-1.79362 -0.086,-2.47396 -0.074,-0.68034 -0.2722,-1.00195 -0.2597,-0.43294 -0.7051,-0.66797 -0.4453,-0.2474 -1.0143,-0.2474 -1.3854,0 -2.1771,1.07618 -0.7916,1.0638 -0.7916,2.95638 v 6.81575 h -4.4284 v -13.85417 h 4.4284 v 2.02865 q 1.0019,-1.21224 2.1276,-1.78125 1.1256,-0.58138 2.4863,-0.58138 2.3997,0 3.6367,1.47201 1.2494,1.472 1.2494,4.27994 z"
       style="font-weight:bold;font-size:25.33333397px"
       id="path16682" />
    <path
       d="m 1243.0557,460.23708 v 3.93359 h 4.5644 v 3.16667 h -4.5644 v 5.87565 q 0,0.96485 0.3834,1.3112 0.3835,0.33398 1.5215,0.33398 h 2.2761 v 3.16667 h -3.7976 q -2.6224,0 -3.7233,-1.08854 -1.0885,-1.10091 -1.0885,-3.72331 v -5.87565 h -2.2018 v -3.16667 h 2.2018 v -3.93359 z"
       style="font-weight:bold;font-size:25.33333397px"
       id="path16684" />
    <path
       d="m 1260.6331,467.94346 q -0.5813,-0.27213 -1.1627,-0.39583 -0.569,-0.13607 -1.1504,-0.13607 -1.707,0 -2.6348,1.10091 -0.9153,1.08854 -0.9153,3.12956 v 6.38281 h -4.4284 v -13.85417 h 4.4284 v 2.27605 q 0.8535,-1.36068 1.9544,-1.97917 1.1133,-0.63086 2.6595,-0.63086 0.2226,0 0.4824,0.0247 0.2598,0.0124 0.7546,0.0742 z"
       style="font-weight:bold;font-size:25.33333397px"
       id="path16686" />
    <path
       d="m 1269.4528,467.00336 q -1.472,0 -2.2513,1.0638 -0.7669,1.05143 -0.7669,3.04297 0,1.99153 0.7669,3.05534 0.7793,1.05143 2.2513,1.05143 1.4473,0 2.2142,-1.05143 0.7669,-1.06381 0.7669,-3.05534 0,-1.99154 -0.7669,-3.04297 -0.7669,-1.0638 -2.2142,-1.0638 z m 0,-3.16667 q 3.5749,0 5.5788,1.92969 2.0163,1.92969 2.0163,5.34375 0,3.41406 -2.0163,5.34375 -2.0039,1.92969 -5.5788,1.92969 -3.5872,0 -5.6159,-1.92969 -2.0163,-1.92969 -2.0163,-5.34375 0,-3.41406 2.0163,-5.34375 2.0287,-1.92969 5.6159,-1.92969 z"
       style="font-weight:bold;font-size:25.33333397px"
       id="path16688" />
    <path
       d="m 1280.2764,458.77744 h 4.4284 v 19.2474 h -4.4284 z"
       style="font-weight:bold;font-size:25.33333397px"
       id="path16690" />
  </g>
</svg>
