<?xml version="1.0" encoding="UTF-8" standalone="no"?>
<svg
   xmlns:dc="http://purl.org/dc/elements/1.1/"
   xmlns:cc="http://creativecommons.org/ns#"
   xmlns:rdf="http://www.w3.org/1999/02/22-rdf-syntax-ns#"
   xmlns:svg="http://www.w3.org/2000/svg"
   xmlns="http://www.w3.org/2000/svg"
   xmlns:sodipodi="http://sodipodi.sourceforge.net/DTD/sodipodi-0.dtd"
   xmlns:inkscape="http://www.inkscape.org/namespaces/inkscape"
   id="Layer_1"
   data-name="Layer 1"
   viewBox="0 0 1062 670"
   version="1.1"
   sodipodi:docname="digital-signature.svg"
   inkscape:version="0.92.3 (2405546, 2018-03-11)">
  <metadata
     id="metadata1970">
    <rdf:RDF>
      <cc:Work
         rdf:about="">
        <dc:format>image/svg+xml</dc:format>
        <dc:type
           rdf:resource="http://purl.org/dc/dcmitype/StillImage" />
        <dc:title>Capitolul12</dc:title>
      </cc:Work>
    </rdf:RDF>
  </metadata>
  <defs
     id="defs1968" />
  <sodipodi:namedview
     pagecolor="#ffffff"
     bordercolor="#666666"
     borderopacity="1"
     objecttolerance="10"
     gridtolerance="10"
     guidetolerance="10"
     inkscape:pageopacity="0"
     inkscape:pageshadow="2"
     inkscape:window-width="1853"
     inkscape:window-height="1019"
     id="namedview1966"
     showgrid="false"
     inkscape:zoom="1.2268657"
     inkscape:cx="567.12047"
     inkscape:cy="344.10401"
     inkscape:window-x="67"
     inkscape:window-y="33"
     inkscape:window-maximized="1"
     inkscape:current-layer="Layer_1" />
  <title
     id="title1671">Capitolul12</title>
  <path
     d="M35.08,266.27H28.9v3.33h5.85V274H28.9v3.45h6.18v4.41H23.71v-20H35.08Z"
     id="path1673" />
  <path
     d="M43,274.58l-5.43-6.12h6.24l2.31,2.76,2.37-2.76h6.21l-5.55,6.12,6.72,7.29H49.48l-3.42-4-3.42,4H36.28Z"
     id="path1675" />
  <path
     d="M62.29,288.74h-4.8V268.46h4.8v1.47A5,5,0,0,1,66.4,268,6.67,6.67,0,0,1,71.17,270a7.61,7.61,0,0,1-.12,10.5,6.44,6.44,0,0,1-4.59,1.86,5.71,5.71,0,0,1-4.17-1.74ZM63.07,273a3.27,3.27,0,0,0-.93,2.22,3.24,3.24,0,0,0,.93,2.13,3.07,3.07,0,0,0,2.16.9,2.9,2.9,0,0,0,2.13-.9,3.17,3.17,0,0,0,.93-2.13,3.27,3.27,0,0,0-.93-2.22,2.9,2.9,0,0,0-2.13-.9A3.07,3.07,0,0,0,63.07,273Z"
     id="path1677" />
  <path
     d="M90.19,276.05h-10A3.39,3.39,0,0,0,81,278.3a2.7,2.7,0,0,0,2,.66,3.79,3.79,0,0,0,1.56-.36,2.23,2.23,0,0,0,.84-.9H90a6,6,0,0,1-1.62,2.76c-1,1-2.55,1.86-5.46,1.86a7.61,7.61,0,0,1-5.55-2,7,7,0,0,1-2-5.07,7.16,7.16,0,0,1,2-5.19,7.55,7.55,0,0,1,5.49-1.95,7.35,7.35,0,0,1,5.16,1.83,7.51,7.51,0,0,1,2.13,5.64Zm-4.41-2.76a3.22,3.22,0,0,0-.78-1.44,2.8,2.8,0,0,0-2-.72,2.58,2.58,0,0,0-2,.72,2.74,2.74,0,0,0-.72,1.44Z"
     id="path1679" />
  <path
     d="M108.13,281.87h-4.8V280.4a4.92,4.92,0,0,1-4,1.92,6.42,6.42,0,0,1-4.71-1.86,7.4,7.4,0,0,1-2.16-5.34,7.31,7.31,0,0,1,2.19-5.31,6.86,6.86,0,0,1,4.74-1.8,5.31,5.31,0,0,1,4,1.74V260h4.8Zm-5.67-4.44a3.22,3.22,0,0,0,1-2.28,3.51,3.51,0,0,0-.9-2.16,3.08,3.08,0,0,0-4.32,0,3.29,3.29,0,0,0-.93,2.28,3,3,0,0,0,.93,2.1,3,3,0,0,0,2.13.9A3.28,3.28,0,0,0,102.46,277.43Z"
     id="path1681" />
  <path
     d="M113.83,260.18a2.7,2.7,0,1,1-2.7,2.7A2.69,2.69,0,0,1,113.83,260.18Zm2.4,8.28v13.41h-4.8V268.46Z"
     id="path1683" />
  <path
     d="M124.81,272.39v9.48H120v-9.48h-1.53v-3.93H120v-4.41h4.8v4.41h2.73v3.93Z"
     id="path1685" />
  <path
     d="M142.84,280.1a9.18,9.18,0,0,1-12,0,6.92,6.92,0,0,1,0-9.87,8.37,8.37,0,0,1,6-2.22,8.47,8.47,0,0,1,6,2.22,6.92,6.92,0,0,1,0,9.87ZM134.71,273a3.06,3.06,0,0,0,2.16,5.22,3.05,3.05,0,0,0,2.13-.9,3,3,0,0,0,.93-2.13A3.26,3.26,0,0,0,139,273a3.08,3.08,0,0,0-4.29,0Z"
     id="path1687" />
  <path
     d="M147.67,268.46h4.8v2.19a4.33,4.33,0,0,1,1.89-1.86,5.24,5.24,0,0,1,2.49-.54l1,.06v4.53a4.23,4.23,0,0,0-2.07-.48,3.14,3.14,0,0,0-2.19.72,4,4,0,0,0-1.08,3.06v5.73h-4.8Z"
     id="path1689" />
  <path
     d="M900,281.87v-20h6.81a11.16,11.16,0,0,1,8,2.76,9.77,9.77,0,0,1,2.79,7.29,9.23,9.23,0,0,1-2.61,6.93,10.87,10.87,0,0,1-7.68,3Zm5.19-4.41h1.05a6,6,0,0,0,4.38-1.44,5.45,5.45,0,0,0,1.53-4.11,6,6,0,0,0-1.56-4.38,5.83,5.83,0,0,0-4.14-1.26h-1.26Z"
     id="path1691" />
  <path
     d="M934.57,276.05h-10a3.39,3.39,0,0,0,.84,2.25,2.7,2.7,0,0,0,2,.66,3.79,3.79,0,0,0,1.56-.36,2.23,2.23,0,0,0,.84-.9h4.59a6,6,0,0,1-1.62,2.76c-1,1-2.55,1.86-5.46,1.86a7.61,7.61,0,0,1-5.55-2,7,7,0,0,1-2-5.07,7.16,7.16,0,0,1,2-5.19,7.55,7.55,0,0,1,5.49-1.95,7.35,7.35,0,0,1,5.16,1.83,7.51,7.51,0,0,1,2.13,5.64Zm-4.41-2.76a3.22,3.22,0,0,0-.78-1.44,2.8,2.8,0,0,0-2-.72,2.58,2.58,0,0,0-1.95.72,2.74,2.74,0,0,0-.72,1.44Z"
     id="path1693" />
  <path
     d="M938.2,277.43a6.87,6.87,0,0,0,1.92,1,6.25,6.25,0,0,0,1.86.33,2,2,0,0,0,1.23-.36.77.77,0,0,0,.24-.63.71.71,0,0,0-.24-.6,3,3,0,0,0-1.26-.48l-1.26-.3a4.31,4.31,0,0,1-2.34-1.17,3.24,3.24,0,0,1-.87-2.31,4.79,4.79,0,0,1,1.26-3.27,6.77,6.77,0,0,1,4.8-1.62,11.07,11.07,0,0,1,4.29.87l-1.62,3.06a6.64,6.64,0,0,0-2.52-.66,2,2,0,0,0-1.11.27.72.72,0,0,0-.42.66.78.78,0,0,0,.57.75c.45.18.84.18,1.59.39l.87.24a5.67,5.67,0,0,1,2,1.05,3.79,3.79,0,0,1,1,2.67,4.48,4.48,0,0,1-1.35,3.33,7,7,0,0,1-5,1.68,9.89,9.89,0,0,1-5.4-1.56Z"
     id="path1695" />
  <path
     d="M956,272.39v9.48h-4.8v-9.48h-1.53v-3.93h1.53v-4.41H956v4.41h2.73v3.93Z"
     id="path1697" />
  <path
     d="M962.89,260.18a2.7,2.7,0,1,1-2.7,2.7A2.69,2.69,0,0,1,962.89,260.18Zm2.4,8.28v13.41h-4.8V268.46Z"
     id="path1699" />
  <path
     d="M968.56,268.46h4.8v1.68a5.06,5.06,0,0,1,4.26-2,5.42,5.42,0,0,1,4,1.44,4.62,4.62,0,0,1,1.26,3.75v8.52H978v-6.78a3.85,3.85,0,0,0-.6-2.61,2,2,0,0,0-1.53-.57,2.63,2.63,0,0,0-1.77.63,3.08,3.08,0,0,0-.78,2.13v7.2h-4.8Z"
     id="path1701" />
  <path
     d="M996.49,268.46h4.8v13.41h-4.8V280.4a5,5,0,0,1-4.17,1.92,6.42,6.42,0,0,1-4.83-2.13,6.76,6.76,0,0,1-1.92-4.92,7.42,7.42,0,0,1,2.07-5.37,6.9,6.9,0,0,1,4.83-1.89,5.31,5.31,0,0,1,4,1.74Zm-5,4.5a3.14,3.14,0,0,0-1,2.19,3.09,3.09,0,0,0,.93,2.19,3.37,3.37,0,0,0,2.16.9,3.08,3.08,0,0,0,2.16-.93,2.91,2.91,0,0,0,.9-2.16,3,3,0,0,0-.93-2.19,3,3,0,0,0-4.26,0Z"
     id="path1703" />
  <path
     d="M1009.9,272.39v9.48h-4.8v-9.48h-1.53v-3.93h1.53v-4.41h4.8v4.41h2.73v3.93Z"
     id="path1705" />
  <path
     d="M1024.81,268.46h4.8v13.41h-4.8V280.4a5,5,0,0,1-4.17,1.92,6.42,6.42,0,0,1-4.83-2.13,6.76,6.76,0,0,1-1.92-4.92,7.42,7.42,0,0,1,2.07-5.37,6.9,6.9,0,0,1,4.83-1.89,5.31,5.31,0,0,1,4,1.74Zm-5,4.5a3.14,3.14,0,0,0-1,2.19,3.09,3.09,0,0,0,.93,2.19,3.37,3.37,0,0,0,2.16.9,3.08,3.08,0,0,0,2.16-.93,2.91,2.91,0,0,0,.9-2.16A3,3,0,0,0,1024,273a3,3,0,0,0-4.26,0Z"
     id="path1707" />
  <path
     d="M1032.91,268.46h4.8v2.19a4.33,4.33,0,0,1,1.89-1.86,5.24,5.24,0,0,1,2.49-.54l1,.06v4.53a4.23,4.23,0,0,0-2.07-.48,3.14,3.14,0,0,0-2.19.72,4,4,0,0,0-1.08,3.06v5.73h-4.8Z"
     id="path1709" />
  <polygon
     points="177.59 219.31 262.11 219.31 262.11 231.5 288 205.61 262.11 179.72 262.11 191.9 177.59 191.9 177.59 219.31"
     style="fill:none;stroke:#4fc2c9;stroke-miterlimit:10;stroke-width:7.19140887260437px"
     id="polygon1711" />
  <polygon
     points="697.66 435 697.66 362.44 708.12 362.44 685.9 340.22 663.67 362.44 674.13 362.44 674.13 435 697.66 435"
     style="fill:none;stroke:#f7931f;stroke-miterlimit:10;stroke-width:7px"
     id="polygon1713" />
  <polygon
     points="397.46 435 397.46 362.44 407.92 362.44 385.7 340.22 363.47 362.44 373.93 362.44 373.93 435 397.46 435"
     style="fill:none;stroke:#f7931f;stroke-miterlimit:10;stroke-width:7px"
     id="polygon1715" />
  <polygon
     points="476.59 219.31 561.11 219.31 561.11 231.5 587 205.61 561.11 179.72 561.11 191.9 476.59 191.9 476.59 219.31"
     style="fill:none;stroke:#4fc2c9;stroke-miterlimit:10;stroke-width:7.19140887260437px"
     id="polygon1717" />
  <polygon
     points="780.59 219.31 865.11 219.31 865.11 231.5 891 205.61 865.11 179.72 865.11 191.9 780.59 191.9 780.59 219.31"
     style="fill:none;stroke:#4fc2c9;stroke-miterlimit:10;stroke-width:7.19140887260437px"
     id="polygon1719" />
  <line
     x1="203"
     y1="136.47"
     x2="243.08"
     y2="136.47"
     style="fill:none;stroke:#91c54f;stroke-miterlimit:10;stroke-width:3.86249780654907px"
     id="line1721" />
  <line
     x1="203"
     y1="126.1"
     x2="243.08"
     y2="126.1"
     style="fill:none;stroke:#91c54f;stroke-miterlimit:10;stroke-width:3.86249780654907px"
     id="line1723" />
  <line
     x1="203"
     y1="115.73"
     x2="243.08"
     y2="115.73"
     style="fill:none;stroke:#91c54f;stroke-miterlimit:10;stroke-width:3.86249780654907px"
     id="line1725" />
  <line
     x1="203"
     y1="105.36"
     x2="243.08"
     y2="105.36"
     style="fill:none;stroke:#91c54f;stroke-miterlimit:10;stroke-width:3.86249780654907px"
     id="line1727" />
  <line
     x1="203"
     y1="94.99"
     x2="219.54"
     y2="94.99"
     style="fill:none;stroke:#91c54f;stroke-miterlimit:10;stroke-width:3.86249780654907px"
     id="line1729" />
  <path
     d="M241,91.26a5.61,5.61,0,0,1-5.59-5.59V75.18H200.67a5.61,5.61,0,0,0-5.6,5.59V139.5a5.61,5.61,0,0,0,5.6,5.59h44.74A5.61,5.61,0,0,0,251,139.5V91.26Z"
     style="fill:none;stroke:#91c54f;stroke-miterlimit:10;stroke-width:3.86249780654907px"
     id="path1731" />
  <line
     x1="804"
     y1="136.47"
     x2="844.08"
     y2="136.47"
     style="fill:none;stroke:#91c54f;stroke-miterlimit:10;stroke-width:3.86249780654907px"
     id="line1745" />
  <line
     x1="804"
     y1="126.1"
     x2="844.08"
     y2="126.1"
     style="fill:none;stroke:#91c54f;stroke-miterlimit:10;stroke-width:3.86249780654907px"
     id="line1747" />
  <line
     x1="804"
     y1="115.73"
     x2="844.08"
     y2="115.73"
     style="fill:none;stroke:#91c54f;stroke-miterlimit:10;stroke-width:3.86249780654907px"
     id="line1749" />
  <line
     x1="804"
     y1="105.36"
     x2="844.08"
     y2="105.36"
     style="fill:none;stroke:#91c54f;stroke-miterlimit:10;stroke-width:3.86249780654907px"
     id="line1751" />
  <line
     x1="804"
     y1="94.99"
     x2="820.54"
     y2="94.99"
     style="fill:none;stroke:#91c54f;stroke-miterlimit:10;stroke-width:3.86249780654907px"
     id="line1753" />
  <path
     d="M842,91.26a5.61,5.61,0,0,1-5.59-5.59V75.18H801.67a5.61,5.61,0,0,0-5.6,5.59V139.5a5.61,5.61,0,0,0,5.6,5.59h44.74A5.61,5.61,0,0,0,852,139.5V91.26Z"
     style="fill:none;stroke:#91c54f;stroke-miterlimit:10;stroke-width:3.86249780654907px"
     id="path1755" />
  <rect
     x="330.12"
     y="168.95"
     width="104.21"
     height="73.51"
     rx="12"
     ry="12"
     style="fill:none;stroke:#3a5c84;stroke-miterlimit:10;stroke-width:5px"
     id="rect1757" />
  <path
     d="M362.29,198.28a3.94,3.94,0,0,1-1.05,2.89.25.25,0,0,0-.05.27l1.29,2.7a.22.22,0,0,0,.24.14,3.92,3.92,0,0,1,4.2,3.78.25.25,0,0,0,.16.22l2.82,1H370a.2.2,0,0,0,.23-.08,3.78,3.78,0,0,1,.58-.55l0,0,.29-.2a1.67,1.67,0,0,1,.23-.12.24.24,0,0,1,.11-.06,3.75,3.75,0,0,1,1.5-.39,3.9,3.9,0,0,1,2.89,1,.2.2,0,0,0,.27,0l2.7-1.29h0a.22.22,0,0,0,.14-.23,3.89,3.89,0,0,1,2.5-3.93l.08,0,.15,0,.25-.08h0a3.66,3.66,0,0,1,.75-.1.26.26,0,0,0,.22-.17l1-2.82a.26.26,0,0,0-.07-.26,3.9,3.9,0,0,1-.3-5.64.23.23,0,0,0,0-.27l-.88-1.86h0l-.4-.84a.16.16,0,0,0-.07-.07h0l0,0a.13.13,0,0,0-.1,0h0a3.92,3.92,0,0,1-4.2-3.78.22.22,0,0,0-.16-.22l-2.82-1a.2.2,0,0,0-.26.07h0a4,4,0,0,1-.89.76l-.07,0-.26.14a3.9,3.9,0,0,1-4.41-.66.26.26,0,0,0-.27,0l-2.7,1.29a.23.23,0,0,0-.13.24,3.93,3.93,0,0,1-3.79,4.2.21.21,0,0,0-.22.16l-.69,1.95h0l-.31.88a.27.27,0,0,0,.07.27A3.9,3.9,0,0,1,362.29,198.28Zm6.13-4.77,0,0,.27-.22.19-.16L369,193a5.81,5.81,0,1,1,5.83,10l-.48.2h0a5.82,5.82,0,0,1-5.93-9.72Z"
     style="fill:#3a5c84"
     id="path1759" />
  <path
     d="M375.79,219.42a5,5,0,0,1-1.35,3.71.32.32,0,0,0-.06.35l1.66,3.46c.1.2.21.19.3.18a5,5,0,0,1,5.4,4.86.32.32,0,0,0,.2.28l3.63,1.28h.06a.24.24,0,0,0,.29-.11,4.58,4.58,0,0,1,.76-.7s0,0,0,0l.36-.25a2.19,2.19,0,0,1,.3-.16l.14-.08a5,5,0,0,1,5.64.86.27.27,0,0,0,.34,0l3.47-1.66h0a.3.3,0,0,0,.18-.3,5,5,0,0,1,1.28-3.73,5,5,0,0,1,1.92-1.32l.12-.05.19-.06.31-.09H401a5.26,5.26,0,0,1,1-.13.3.3,0,0,0,.28-.21l1.29-3.62a.32.32,0,0,0-.1-.34,5,5,0,0,1-.37-7.25.32.32,0,0,0,.05-.34L402,211.62h0l-.52-1.08a.34.34,0,0,0-.08-.09l0,0,0,0-.12,0h0a5,5,0,0,1-5.4-4.86.3.3,0,0,0-.21-.28L392,203.93a.28.28,0,0,0-.34.08h0a5.21,5.21,0,0,1-1.16,1l-.08,0-.34.19a4.91,4.91,0,0,1-1.95.51,5.06,5.06,0,0,1-3.71-1.36.32.32,0,0,0-.34,0L380.59,206a.32.32,0,0,0-.18.3,5,5,0,0,1-4.86,5.39.28.28,0,0,0-.28.21l-.89,2.51h0l-.4,1.13a.33.33,0,0,0,.09.34A5.06,5.06,0,0,1,375.79,219.42Zm7.88-6.13s0,0,.05,0l.34-.29c.09-.07.16-.14.25-.2l.11-.08a7.47,7.47,0,1,1,7.49,12.85,6.5,6.5,0,0,1-.61.25h0a7.47,7.47,0,0,1-7.61-12.49Z"
     style="fill:#3a5c84"
     id="path1761" />
  <path
     d="M381.21,186.1a2.67,2.67,0,0,1-.72,2,.17.17,0,0,0,0,.18l.88,1.84a.16.16,0,0,0,.16.1,2.65,2.65,0,0,1,2,.67,2.73,2.73,0,0,1,.89,1.9.17.17,0,0,0,.11.16l1.92.67h0a.14.14,0,0,0,.16-.06,2.34,2.34,0,0,1,.4-.37l0,0,.19-.13.16-.09.08,0a2.56,2.56,0,0,1,1-.26,2.63,2.63,0,0,1,2,.72.14.14,0,0,0,.18,0l1.84-.88h0a.16.16,0,0,0,.1-.16,2.62,2.62,0,0,1,.68-2,2.56,2.56,0,0,1,1-.7l.06,0,.1,0,.17-.05h0a2.25,2.25,0,0,1,.52-.07.17.17,0,0,0,.15-.11l.68-1.93a.16.16,0,0,0,0-.17,2.7,2.7,0,0,1-.92-1.88,2.64,2.64,0,0,1,.72-2,.19.19,0,0,0,0-.19l-.61-1.26h0l-.27-.57a.08.08,0,0,0-.05,0h0l0,0a.07.07,0,0,0-.06,0h0a2.65,2.65,0,0,1-2-.68,2.69,2.69,0,0,1-.89-1.9.16.16,0,0,0-.11-.15l-1.92-.68a.13.13,0,0,0-.18,0h0a2.8,2.8,0,0,1-.61.53l-.05,0-.18.1a2.62,2.62,0,0,1-1,.27,2.67,2.67,0,0,1-2-.72.15.15,0,0,0-.18,0l-1.84.88a.17.17,0,0,0-.1.16,2.67,2.67,0,0,1-2.58,2.86.16.16,0,0,0-.15.12l-.47,1.33h0l-.21.61a.18.18,0,0,0,.05.18A2.68,2.68,0,0,1,381.21,186.1Zm4.18-3.26,0,0,.18-.16a.69.69,0,0,0,.13-.11l.06,0a4,4,0,0,1,6,4.55,3.94,3.94,0,0,1-2.07,2.27l-.33.14h0a4,4,0,0,1-4-6.63Z"
     style="fill:#3a5c84"
     id="path1763" />
  <rect
     x="634.12"
     y="168.95"
     width="104.21"
     height="73.51"
     rx="12"
     ry="12"
     style="fill:none;stroke:#3a5c84;stroke-miterlimit:10;stroke-width:5px"
     id="rect1765" />
  <path
     d="M666.29,198.28a3.94,3.94,0,0,1-1,2.89.25.25,0,0,0,0,.27l1.29,2.7a.22.22,0,0,0,.24.14,3.92,3.92,0,0,1,4.2,3.78.25.25,0,0,0,.16.22l2.82,1H674a.2.2,0,0,0,.23-.08,3.78,3.78,0,0,1,.58-.55l0,0,.29-.2a1.67,1.67,0,0,1,.23-.12.24.24,0,0,1,.11-.06,3.75,3.75,0,0,1,1.5-.39,3.9,3.9,0,0,1,2.89,1,.2.2,0,0,0,.27,0l2.7-1.29h0a.22.22,0,0,0,.14-.23,3.89,3.89,0,0,1,2.5-3.93l.08,0,.15,0,.25-.08h0a3.66,3.66,0,0,1,.75-.1.26.26,0,0,0,.22-.17l1-2.82a.26.26,0,0,0-.07-.26,3.9,3.9,0,0,1-.3-5.64.23.23,0,0,0,0-.27l-.88-1.86h0l-.4-.84a.16.16,0,0,0-.07-.07h0l0,0a.13.13,0,0,0-.1,0h0a3.92,3.92,0,0,1-4.2-3.78.22.22,0,0,0-.16-.22l-2.82-1a.2.2,0,0,0-.26.07h0a4,4,0,0,1-.89.76l-.07,0-.26.14a3.9,3.9,0,0,1-4.41-.66.26.26,0,0,0-.27,0l-2.7,1.29a.23.23,0,0,0-.13.24,3.93,3.93,0,0,1-3.79,4.2.21.21,0,0,0-.22.16l-.69,1.95h0l-.31.88a.27.27,0,0,0,.07.27A3.9,3.9,0,0,1,666.29,198.28Zm6.13-4.77,0,0,.27-.22.19-.16L673,193a5.81,5.81,0,1,1,5.83,10l-.48.2h0a5.82,5.82,0,0,1-5.93-9.72Z"
     style="fill:#3a5c84"
     id="path1767" />
  <path
     d="M679.79,219.42a5,5,0,0,1-1.35,3.71.32.32,0,0,0-.06.35l1.66,3.46c.1.2.21.19.3.18a5,5,0,0,1,5.4,4.86.32.32,0,0,0,.2.28l3.63,1.28h.06a.24.24,0,0,0,.29-.11,4.58,4.58,0,0,1,.76-.7s0,0,0,0l.36-.25a2.19,2.19,0,0,1,.3-.16l.14-.08a5,5,0,0,1,5.64.86.27.27,0,0,0,.34,0l3.47-1.66h0a.3.3,0,0,0,.18-.3,5,5,0,0,1,1.28-3.73,5,5,0,0,1,1.92-1.32l.12-.05.19-.06.31-.09h0a5.26,5.26,0,0,1,1-.13.3.3,0,0,0,.28-.21l1.29-3.62a.32.32,0,0,0-.1-.34,5,5,0,0,1-.37-7.25.32.32,0,0,0,0-.34L706,211.62h0l-.52-1.08a.34.34,0,0,0-.08-.09l0,0,0,0-.12,0h0a5,5,0,0,1-5.4-4.86.3.3,0,0,0-.21-.28L696,203.93a.28.28,0,0,0-.34.08h0a5.21,5.21,0,0,1-1.16,1l-.08,0-.34.19a4.91,4.91,0,0,1-1.95.51,5.06,5.06,0,0,1-3.71-1.36.32.32,0,0,0-.34,0L684.59,206a.32.32,0,0,0-.18.3,5,5,0,0,1-4.86,5.39.28.28,0,0,0-.28.21l-.89,2.51h0l-.4,1.13a.33.33,0,0,0,.09.34A5.06,5.06,0,0,1,679.79,219.42Zm7.88-6.13.05,0,.34-.29c.09-.07.16-.14.25-.2l.11-.08a7.47,7.47,0,1,1,7.49,12.85,6.5,6.5,0,0,1-.61.25h0a7.47,7.47,0,0,1-7.61-12.49Z"
     style="fill:#3a5c84"
     id="path1769" />
  <path
     d="M685.21,186.1a2.67,2.67,0,0,1-.72,2,.17.17,0,0,0,0,.18l.88,1.84a.16.16,0,0,0,.16.1,2.65,2.65,0,0,1,2,.67,2.73,2.73,0,0,1,.89,1.9.17.17,0,0,0,.11.16l1.92.67h0a.14.14,0,0,0,.16-.06,2.34,2.34,0,0,1,.4-.37l0,0,.19-.13.16-.09.08,0a2.56,2.56,0,0,1,1-.26,2.63,2.63,0,0,1,2,.72.14.14,0,0,0,.18,0l1.84-.88h0a.16.16,0,0,0,.1-.16,2.62,2.62,0,0,1,.68-2,2.56,2.56,0,0,1,1-.7l.06,0,.1,0,.17-.05h0a2.25,2.25,0,0,1,.52-.07.17.17,0,0,0,.15-.11l.68-1.93a.16.16,0,0,0-.05-.17,2.7,2.7,0,0,1-.92-1.88,2.64,2.64,0,0,1,.72-2,.19.19,0,0,0,0-.19l-.61-1.26h0l-.27-.57a.08.08,0,0,0,0,0h0l0,0a.07.07,0,0,0-.06,0h0a2.65,2.65,0,0,1-2-.68,2.69,2.69,0,0,1-.89-1.9.16.16,0,0,0-.11-.15l-1.92-.68a.13.13,0,0,0-.18,0h0a2.8,2.8,0,0,1-.61.53l0,0-.18.1a2.62,2.62,0,0,1-1,.27,2.67,2.67,0,0,1-2-.72.15.15,0,0,0-.18,0l-1.84.88a.17.17,0,0,0-.1.16,2.67,2.67,0,0,1-2.58,2.86.16.16,0,0,0-.15.12l-.47,1.33h0l-.21.61a.18.18,0,0,0,0,.18A2.68,2.68,0,0,1,685.21,186.1Zm4.18-3.26,0,0,.18-.16a.69.69,0,0,0,.13-.11l.06,0a4,4,0,0,1,6.05,4.55,3.94,3.94,0,0,1-2.07,2.27l-.33.14h0a4,4,0,0,1-4-6.63Z"
     style="fill:#3a5c84"
     id="path1771" />
  <path
     d="M111.74,233.56c-.44.32-.89.63-1.34.92l-.62.4c-.59.37-1.19.72-1.81,1l-.4.21A32.9,32.9,0,0,1,103.2,238L103,238c-.78.26-1.57.49-2.38.69h0c-.81.2-1.63.37-2.46.5l-.07,0c-.77.12-1.56.21-2.34.28l-.42,0c-.78.06-1.56.1-2.34.1s-1.59,0-2.37-.1l-.41,0c-.79-.07-1.58-.16-2.36-.29l-.11,0A32.27,32.27,0,0,1,82.92,238l-.15-.05c-.79-.27-1.57-.57-2.33-.9h0c-.72-.31-1.43-.66-2.13-1l-.27-.14c-.64-.35-1.27-.71-1.88-1.1l-.55-.35c-.56-.37-1.12-.76-1.67-1.17l-.17-.13.12-.06,9.89-5.4A5.3,5.3,0,0,0,86.52,223v-4.51l-.29-.34a21,21,0,0,1-3.75-7.78l-.12-.49-.42-.28a2.08,2.08,0,0,1-1-1.74v-4.43a2,2,0,0,1,.69-1.53l.42-.38v-7l0-.17A7.56,7.56,0,0,1,83.82,189c1.81-2.06,4.91-3.11,9.21-3.11s7.37,1,9.19,3.09a7.62,7.62,0,0,1,1.76,5.48v7.13l.41.37a2,2,0,0,1,.7,1.53v4.43a2.1,2.1,0,0,1-1.48,2l-.62.19-.2.62A23.25,23.25,0,0,1,99.66,217a14.88,14.88,0,0,1-.92,1.19l-.31.36v4.62a5.26,5.26,0,0,0,2.92,4.73l10.59,5.3a1.24,1.24,0,0,1,.2.1Z"
     style="fill:none;stroke:#636868;stroke-miterlimit:10;stroke-width:5.236px"
     id="path1773" />
  <circle
     cx="92.95"
     cy="203.89"
     r="35.55"
     style="fill:none;stroke:#636868;stroke-miterlimit:10;stroke-width:5.236px"
     id="circle1775" />
  <path
     d="M987.74,233.56c-.44.32-.89.63-1.34.92l-.62.4c-.59.37-1.19.72-1.81,1l-.4.21A32.9,32.9,0,0,1,979.2,238L979,238c-.78.26-1.57.49-2.38.69h0c-.81.2-1.63.37-2.46.5l-.07,0c-.77.12-1.56.21-2.34.28l-.42,0c-.78.06-1.56.1-2.34.1s-1.59,0-2.37-.1l-.41,0c-.79-.07-1.58-.16-2.36-.29l-.11,0a32.27,32.27,0,0,1-4.86-1.21l-.15-.05c-.79-.27-1.57-.57-2.33-.9h0c-.72-.31-1.43-.66-2.13-1l-.27-.14c-.64-.35-1.27-.71-1.88-1.1l-.55-.35c-.56-.37-1.12-.76-1.67-1.17l-.17-.13.12-.06,9.89-5.4a5.3,5.3,0,0,0,2.76-4.64v-4.51l-.29-.34a21,21,0,0,1-3.75-7.78l-.12-.49-.42-.28a2.08,2.08,0,0,1-1-1.74v-4.43a2,2,0,0,1,.69-1.53l.42-.38v-7l0-.17a7.56,7.56,0,0,1,1.75-5.45c1.81-2.06,4.91-3.11,9.21-3.11s7.37,1,9.19,3.09a7.62,7.62,0,0,1,1.76,5.48v7.13l.41.37a2,2,0,0,1,.7,1.53v4.43a2.1,2.1,0,0,1-1.48,2l-.62.19-.2.62a23.25,23.25,0,0,1-3.12,6.29,14.88,14.88,0,0,1-.92,1.19l-.31.36v4.62a5.26,5.26,0,0,0,2.92,4.73l10.59,5.3a1.24,1.24,0,0,1,.2.1Z"
     style="fill:none;stroke:#636868;stroke-miterlimit:10;stroke-width:5.236px"
     id="path1777" />
  <circle
     cx="968.95"
     cy="203.89"
     r="35.55"
     style="fill:none;stroke:#636868;stroke-miterlimit:10;stroke-width:5.236px"
     id="circle1779" />
  <path
     d="M180.45,49.87l3.39-20H189L193,40.54l4.29-10.68h5.19l3,20h-5.19l-1.47-11.52L194,49.87h-2.07l-4.62-11.52-1.71,11.52Z"
     id="path1781" />
  <path
     d="M222.57,44.05h-10a3.39,3.39,0,0,0,.84,2.25,2.7,2.7,0,0,0,2,.66A3.79,3.79,0,0,0,217,46.6a2.23,2.23,0,0,0,.84-.9h4.59a6,6,0,0,1-1.62,2.76c-1,1-2.55,1.86-5.46,1.86a7.61,7.61,0,0,1-5.55-2,7,7,0,0,1-2-5.07,7.16,7.16,0,0,1,2-5.19,7.55,7.55,0,0,1,5.49-2,7.35,7.35,0,0,1,5.16,1.83,7.51,7.51,0,0,1,2.13,5.64Zm-4.41-2.76a3.22,3.22,0,0,0-.78-1.44,2.8,2.8,0,0,0-2-.72,2.58,2.58,0,0,0-2,.72,2.74,2.74,0,0,0-.72,1.44Z"
     id="path1783" />
  <path
     d="M226.2,45.43a6.87,6.87,0,0,0,1.92,1,6.25,6.25,0,0,0,1.86.33,2,2,0,0,0,1.23-.36.77.77,0,0,0,.24-.63.71.71,0,0,0-.24-.6,3,3,0,0,0-1.26-.48l-1.26-.3a4.31,4.31,0,0,1-2.34-1.17,3.24,3.24,0,0,1-.87-2.31,4.79,4.79,0,0,1,1.26-3.27,6.77,6.77,0,0,1,4.8-1.62,11.07,11.07,0,0,1,4.29.87l-1.62,3.06a6.64,6.64,0,0,0-2.52-.66,2,2,0,0,0-1.11.27.72.72,0,0,0-.42.66.78.78,0,0,0,.57.75c.45.18.84.18,1.59.39l.87.24a5.67,5.67,0,0,1,2,1,3.79,3.79,0,0,1,1,2.67,4.48,4.48,0,0,1-1.35,3.33,7,7,0,0,1-5,1.68,9.89,9.89,0,0,1-5.4-1.56Z"
     id="path1785" />
  <path
     d="M249,36.46h4.8V49.87H249V48.4a5,5,0,0,1-4.17,1.92A6.42,6.42,0,0,1,240,48.19a6.76,6.76,0,0,1-1.92-4.92,7.42,7.42,0,0,1,2.07-5.37A6.9,6.9,0,0,1,245,36a5.31,5.31,0,0,1,4,1.74ZM244,41a3.14,3.14,0,0,0-1,2.19,3.09,3.09,0,0,0,.93,2.19,3.37,3.37,0,0,0,2.16.9,3.08,3.08,0,0,0,2.16-.93,2.91,2.91,0,0,0,.9-2.16,3,3,0,0,0-.93-2.19A3,3,0,0,0,244,41Z"
     id="path1787" />
  <path
     d="M259.53,28.18a2.7,2.7,0,1,1-2.7,2.7A2.69,2.69,0,0,1,259.53,28.18Zm2.4,8.28V56.74h-4.8V36.46Z"
     id="path1789" />
  <path
     d="m 736,50.87 3.39,-20 h 5.13 l 4,10.68 4.29,-10.68 H 758 l 3,20 h -5.19 l -1.47,-11.52 -4.83,11.52 h -2.07 l -4.62,-11.52 -1.71,11.52 z"
     id="path1791"
     inkscape:connector-curvature="0" />
  <path
     d="m 778.07,45.05 h -10 a 3.39,3.39 0 0 0 0.84,2.25 2.7,2.7 0 0 0 2,0.66 3.79,3.79 0 0 0 1.56,-0.36 2.23,2.23 0 0 0 0.84,-0.9 h 4.59 a 6,6 0 0 1 -1.62,2.76 c -1,1 -2.55,1.86 -5.46,1.86 a 7.61,7.61 0 0 1 -5.55,-2 7,7 0 0 1 -2,-5.07 7.16,7.16 0 0 1 2,-5.19 7.55,7.55 0 0 1 5.49,-2 7.35,7.35 0 0 1 5.16,1.83 7.51,7.51 0 0 1 2.13,5.64 z m -4.41,-2.76 a 3.22,3.22 0 0 0 -0.78,-1.44 2.8,2.8 0 0 0 -2,-0.72 2.58,2.58 0 0 0 -1.95,0.72 2.74,2.74 0 0 0 -0.72,1.44 z"
     id="path1793"
     inkscape:connector-curvature="0" />
  <path
     d="m 781.7,46.43 a 6.87,6.87 0 0 0 1.92,1 6.25,6.25 0 0 0 1.86,0.33 2,2 0 0 0 1.23,-0.36 0.77,0.77 0 0 0 0.24,-0.63 0.71,0.71 0 0 0 -0.24,-0.6 3,3 0 0 0 -1.26,-0.48 l -1.26,-0.3 A 4.31,4.31 0 0 1 781.85,44.22 3.24,3.24 0 0 1 781,41.9 4.79,4.79 0 0 1 782.26,38.63 6.77,6.77 0 0 1 787,37 a 11.07,11.07 0 0 1 4.29,0.87 l -1.62,3.06 a 6.64,6.64 0 0 0 -2.52,-0.66 2,2 0 0 0 -1.11,0.27 0.72,0.72 0 0 0 -0.42,0.66 0.78,0.78 0 0 0 0.57,0.75 c 0.45,0.18 0.84,0.18 1.59,0.39 l 0.87,0.24 a 5.67,5.67 0 0 1 2,1 3.79,3.79 0 0 1 1,2.67 4.48,4.48 0 0 1 -1.35,3.33 7,7 0 0 1 -5,1.68 9.89,9.89 0 0 1 -5.4,-1.56 z"
     id="path1795"
     inkscape:connector-curvature="0" />
  <path
     d="m 804.53,37.46 h 4.8 v 13.41 h -4.8 V 49.4 a 5,5 0 0 1 -4.17,1.92 6.42,6.42 0 0 1 -4.83,-2.13 6.76,6.76 0 0 1 -1.92,-4.92 7.42,7.42 0 0 1 2.07,-5.37 6.9,6.9 0 0 1 4.83,-1.9 5.31,5.31 0 0 1 4,1.74 z m -5,4.5 a 3.14,3.14 0 0 0 -1,2.19 3.09,3.09 0 0 0 0.93,2.19 3.37,3.37 0 0 0 2.16,0.9 3.08,3.08 0 0 0 2.16,-0.93 2.91,2.91 0 0 0 0.9,-2.16 3,3 0 0 0 -0.93,-2.19 3,3 0 0 0 -4.26,0 z"
     id="path1797"
     inkscape:connector-curvature="0" />
  <path
     d="m 815,29.18 a 2.7,2.7 0 1 1 -2.7,2.7 2.69,2.69 0 0 1 2.7,-2.7 z m 2.4,8.28 v 20.28 h -4.8 V 37.46 Z"
     id="path1799"
     inkscape:connector-curvature="0" />
  <path
     d="M428.7,49.87l3.39-20h5.13l4,10.68,4.29-10.68h5.19l3,20h-5.19l-1.47-11.52-4.83,11.52h-2.07l-4.62-11.52-1.71,11.52Z"
     id="path1801" />
  <path
     d="M470.82,44.05h-10a3.39,3.39,0,0,0,.84,2.25,2.7,2.7,0,0,0,2,.66,3.79,3.79,0,0,0,1.56-.36,2.23,2.23,0,0,0,.84-.9h4.59A6,6,0,0,1,469,48.46c-1,1-2.55,1.86-5.46,1.86a7.61,7.61,0,0,1-5.55-2,7,7,0,0,1-2-5.07A7.16,7.16,0,0,1,458,38a7.55,7.55,0,0,1,5.49-2,7.35,7.35,0,0,1,5.16,1.83,7.51,7.51,0,0,1,2.13,5.64Zm-4.41-2.76a3.22,3.22,0,0,0-.78-1.44,2.8,2.8,0,0,0-2-.72,2.58,2.58,0,0,0-1.95.72,2.74,2.74,0,0,0-.72,1.44Z"
     id="path1803" />
  <path
     d="M474.45,45.43a6.87,6.87,0,0,0,1.92,1,6.25,6.25,0,0,0,1.86.33,2,2,0,0,0,1.23-.36.77.77,0,0,0,.24-.63.71.71,0,0,0-.24-.6,3,3,0,0,0-1.26-.48l-1.26-.3a4.31,4.31,0,0,1-2.34-1.17,3.24,3.24,0,0,1-.87-2.31A4.79,4.79,0,0,1,475,37.63a6.77,6.77,0,0,1,4.8-1.62,11.07,11.07,0,0,1,4.29.87l-1.62,3.06a6.64,6.64,0,0,0-2.52-.66,2,2,0,0,0-1.11.27.72.72,0,0,0-.42.66A.78.78,0,0,0,479,41c.45.18.84.18,1.59.39l.87.24a5.67,5.67,0,0,1,2,1,3.79,3.79,0,0,1,1,2.67,4.48,4.48,0,0,1-1.35,3.33,7,7,0,0,1-4.95,1.68,9.89,9.89,0,0,1-5.4-1.56Z"
     id="path1805" />
  <path
     d="M497.28,36.46h4.8V49.87h-4.8V48.4a5,5,0,0,1-4.17,1.92,6.42,6.42,0,0,1-4.83-2.13,6.76,6.76,0,0,1-1.92-4.92,7.42,7.42,0,0,1,2.07-5.37A6.9,6.9,0,0,1,493.26,36a5.31,5.31,0,0,1,4,1.74Zm-5,4.5a3.14,3.14,0,0,0-1,2.19,3.09,3.09,0,0,0,.93,2.19,3.37,3.37,0,0,0,2.16.9,3.08,3.08,0,0,0,2.16-.93,2.91,2.91,0,0,0,.9-2.16A3,3,0,0,0,496.5,41a3,3,0,0,0-4.26,0Z"
     id="path1807" />
  <path
     d="M507.78,28.18a2.7,2.7,0,1,1-2.7,2.7A2.69,2.69,0,0,1,507.78,28.18Zm2.4,8.28V56.74h-4.8V36.46Z"
     id="path1809" />
  <path
     d="m 597.2166,635.56966 a 14.38,14.38 0 0 1 -5.25,1.16 12.69,12.69 0 0 1 -9,-3.5 12.24,12.24 0 0 1 -3.57,-8.49 12.52,12.52 0 0 1 3.54,-8.61 12.38,12.38 0 0 1 8.82,-3.64 14.57,14.57 0 0 1 5.46,1.19 v 7.25 a 6.5,6.5 0 0 0 -5.29,-2.56 5.93,5.93 0 0 0 -4.2,1.54 6.54,6.54 0 0 0 -2,4.8 6.47,6.47 0 0 0 1.89,4.55 6.56,6.56 0 0 0 4.34,1.61 6.88,6.88 0 0 0 5.29,-2.45 z"
     id="path1825"
     inkscape:connector-curvature="0" />
  <path
     d="m 600.5366,610.73966 h 5.6 v 11.83 a 6.73,6.73 0 0 1 1.75,-1.54 6.31,6.31 0 0 1 3.22,-0.77 6.22,6.22 0 0 1 4.62,1.68 5.45,5.45 0 0 1 1.47,4.37 v 9.94 h -5.6 v -7.91 a 4.65,4.65 0 0 0 -0.7,-3 2.19,2.19 0 0 0 -1.78,-0.67 3,3 0 0 0 -2,0.67 3.39,3.39 0 0 0 -0.95,2.55 v 8.4 h -5.6 z"
     id="path1827"
     inkscape:connector-curvature="0" />
  <path
     d="m 636.9066,629.40966 h -11.66 a 4,4 0 0 0 1,2.63 3.15,3.15 0 0 0 2.31,0.77 4.51,4.51 0 0 0 1.82,-0.42 2.57,2.57 0 0 0 1,-1 h 5.36 a 7.15,7.15 0 0 1 -1.89,3.22 c -1.16,1.12 -3,2.17 -6.37,2.17 a 8.9,8.9 0 0 1 -6.48,-2.38 8.23,8.23 0 0 1 -2.31,-5.92 8.33,8.33 0 0 1 2.35,-6.05 8.79,8.79 0 0 1 6.4,-2.28 8.57,8.57 0 0 1 6,2.14 8.75,8.75 0 0 1 2.49,6.58 z m -5.15,-3.22 a 3.78,3.78 0 0 0 -0.91,-1.68 3.28,3.28 0 0 0 -2.31,-0.84 3,3 0 0 0 -2.27,0.84 3.12,3.12 0 0 0 -0.84,1.68 z"
     id="path1829"
     inkscape:connector-curvature="0" />
  <path
     d="m 642.9266,610.89966 a 3.15,3.15 0 1 1 -3.15,3.15 3.14,3.14 0 0 1 3.15,-3.15 z m 2.8,9.66 v 15.64 h -5.6 v -15.64 z"
     id="path1831"
     inkscape:connector-curvature="0" />
  <path
     d="m 666.1266,629.40966 h -11.65 a 4,4 0 0 0 1,2.63 3.15,3.15 0 0 0 2.31,0.77 4.51,4.51 0 0 0 1.82,-0.42 2.64,2.64 0 0 0 1,-1 h 5.35 a 7,7 0 0 1 -1.89,3.22 c -1.15,1.12 -3,2.17 -6.37,2.17 a 8.88,8.88 0 0 1 -6.47,-2.38 8.19,8.19 0 0 1 -2.31,-5.92 8.36,8.36 0 0 1 2.34,-6.05 8.83,8.83 0 0 1 6.41,-2.28 8.58,8.58 0 0 1 6,2.14 8.77,8.77 0 0 1 2.48,6.58 z m -5.14,-3.22 a 3.78,3.78 0 0 0 -0.91,-1.68 3.29,3.29 0 0 0 -2.31,-0.84 3,3 0 0 0 -2.28,0.84 3.27,3.27 0 0 0 -0.84,1.68 z"
     id="path1833"
     inkscape:connector-curvature="0" />
  <path
     d="m 683.0966,644.21966 h -5.6 v -23.66 h 5.6 v 1.71 a 5.87,5.87 0 0 1 4.8,-2.24 7.78,7.78 0 0 1 5.57,2.28 8.88,8.88 0 0 1 -0.14,12.25 7.54,7.54 0 0 1 -5.36,2.17 6.66,6.66 0 0 1 -4.87,-2 z m 0.91,-18.38 a 3.53,3.53 0 0 0 0,5.08 3.62,3.62 0 0 0 2.52,1.05 3.41,3.41 0 0 0 2.49,-1.05 3.7,3.7 0 0 0 1.09,-2.49 3.83,3.83 0 0 0 -1.09,-2.59 3.41,3.41 0 0 0 -2.49,-1.05 3.62,3.62 0 0 0 -2.52,1.05 z"
     id="path1835"
     inkscape:connector-curvature="0" />
  <path
     d="m 704.6566,620.55966 v 8.75 a 3,3 0 0 0 0.84,2.27 2.91,2.91 0 0 0 2,0.6 2.6,2.6 0 0 0 2,-0.67 2.9,2.9 0 0 0 0.81,-2.2 v -8.75 h 5.6 v 9.76 a 5.37,5.37 0 0 1 -1.51,4.2 c -1.92,2 -4.62,2.21 -6.75,2.21 -2.35,0 -5.22,-0.25 -7.08,-2.24 a 5.63,5.63 0 0 1 -1.47,-4.17 v -9.76 z"
     id="path1837"
     inkscape:connector-curvature="0" />
  <path
     d="m 725.3066,610.73966 v 11.37 a 6.22,6.22 0 0 1 4.66,-2 8,8 0 0 1 5.53,2.1 8.53,8.53 0 0 1 2.56,6.2 8.66,8.66 0 0 1 -2.52,6.23 7.52,7.52 0 0 1 -5.5,2.17 5.75,5.75 0 0 1 -4.73,-2.24 v 1.71 h -5.6 v -25.54 z m 5.92,20.23 a 3.58,3.58 0 0 0 1.09,-2.45 3.85,3.85 0 0 0 -1.09,-2.66 3.59,3.59 0 0 0 -5,0 4.12,4.12 0 0 0 -1.05,2.52 3.71,3.71 0 0 0 1.19,2.66 3.78,3.78 0 0 0 2.41,1 3.48,3.48 0 0 0 2.45,-1.12 z"
     id="path1839"
     inkscape:connector-curvature="0" />
  <path
     d="m 746.8666,610.73966 v 25.51 h -5.6 v -25.51 z"
     id="path1841"
     inkscape:connector-curvature="0" />
  <path
     d="m 753.48662,610.89966 a 3.15,3.15 0 1 1 -3.15,3.15 3.14,3.14 0 0 1 3.15,-3.15 z m 2.8,9.66 v 15.64 h -5.6 v -15.64 z"
     id="path1843"
     inkscape:connector-curvature="0" />
  <path
     d="m 771.93662,635.84966 a 8.28,8.28 0 0 1 -3.89,0.88 8.65,8.65 0 0 1 -6.16,-2.38 8.21,8.21 0 0 1 -2.42,-5.85 8.53,8.53 0 0 1 2.52,-6 9,9 0 0 1 6.31,-2.38 8,8 0 0 1 3.64,0.87 v 4.69 a 5.05,5.05 0 0 0 -2.91,-1 3.67,3.67 0 0 0 -2.73,1.06 3.83,3.83 0 0 0 -1.09,2.7 4,4 0 0 0 1,2.62 3.83,3.83 0 0 0 2.88,1.19 4.23,4.23 0 0 0 2.87,-1.05 z"
     id="path1845"
     inkscape:connector-curvature="0" />
  <path
     d="m 787.22662,620.55966 h 5.6 v 15.64 h -5.6 v -1.71 a 5.86,5.86 0 0 1 -4.83,2.25 7.47,7.47 0 0 1 -5.63,-2.49 7.86,7.86 0 0 1 -2.24,-5.74 8.64,8.64 0 0 1 2.41,-6.26 8.07,8.07 0 0 1 5.64,-2.21 6.2,6.2 0 0 1 4.69,2 z m 3.08,-8.05 a 5.46,5.46 0 0 1 -1.54,3.81 7.34,7.34 0 0 1 -9.1,0 5.46,5.46 0 0 1 -1.54,-3.81 h 3.6 a 2.4,2.4 0 0 0 0.7,1.43 2.84,2.84 0 0 0 3.57,0 2.35,2.35 0 0 0 0.7,-1.43 z m -9,13.3 a 3.52,3.52 0 0 0 0,5.11 4,4 0 0 0 2.52,1.05 3.64,3.64 0 0 0 2.53,-1.09 3.39,3.39 0 0 0 1,-2.52 3.47,3.47 0 0 0 -1.08,-2.55 3.54,3.54 0 0 0 -5,0 z"
     id="path1847"
     inkscape:connector-curvature="0" />
  <circle
     cx="702.93665"
     cy="504.68967"
     r="12.73"
     style="fill:none;stroke:#f7931f;stroke-width:4.45599985px;stroke-miterlimit:10"
     id="circle1849" />
  <rect
     x="75.282593"
     y="854.03394"
     width="52.84"
     height="3.8199999"
     rx="1.51"
     ry="1.51"
     transform="rotate(-45)"
     style="fill:#f7931f"
     id="rect1851" />
  <rect
     x="80.166168"
     y="854.58594"
     width="2.55"
     height="10.82"
     rx="1.01"
     ry="1.01"
     transform="rotate(-45)"
     style="fill:#f7931f"
     id="rect1853" />
  <rect
     x="85.563293"
     y="854.57788"
     width="2.55"
     height="13.29"
     rx="1.01"
     ry="1.01"
     transform="rotate(-45)"
     style="fill:#f7931f"
     id="rect1855" />
  <rect
     x="91.41449"
     y="854.58142"
     width="2.55"
     height="13.29"
     rx="1.01"
     ry="1.01"
     transform="rotate(-45)"
     style="fill:#f7931f"
     id="rect1857" />
  <rect
     x="621.87665"
     y="477.76965"
     width="129.49001"
     height="91.349998"
     rx="12"
     ry="12"
     style="fill:none;stroke:#c13018;stroke-width:5.10176134px;stroke-miterlimit:10"
     id="rect1859" />
  <path
     d="m 294.97815,634.30932 a 14.38,14.38 0 0 1 -5.25,1.16 12.69,12.69 0 0 1 -9,-3.5 12.24,12.24 0 0 1 -3.57,-8.49 12.52,12.52 0 0 1 3.54,-8.61 12.38,12.38 0 0 1 8.82,-3.64 14.57,14.57 0 0 1 5.46,1.19 v 7.25 a 6.5,6.5 0 0 0 -5.29,-2.56 5.93,5.93 0 0 0 -4.2,1.54 6.54,6.54 0 0 0 -2,4.8 6.47,6.47 0 0 0 1.89,4.55 6.56,6.56 0 0 0 4.34,1.61 6.88,6.88 0 0 0 5.29,-2.45 z"
     id="path1861"
     inkscape:connector-curvature="0" />
  <path
     d="m 298.29815,609.47932 h 5.6 v 11.83 a 6.73,6.73 0 0 1 1.75,-1.54 6.31,6.31 0 0 1 3.22,-0.77 6.22,6.22 0 0 1 4.62,1.68 5.45,5.45 0 0 1 1.47,4.37 v 9.94 h -5.6 v -7.91 a 4.65,4.65 0 0 0 -0.7,-3 2.19,2.19 0 0 0 -1.78,-0.67 3,3 0 0 0 -2,0.67 3.39,3.39 0 0 0 -1,2.55 v 8.4 h -5.6 z"
     id="path1863"
     inkscape:connector-curvature="0" />
  <path
     d="m 334.66815,628.14932 h -11.66 a 4,4 0 0 0 1,2.63 3.15,3.15 0 0 0 2.31,0.77 4.51,4.51 0 0 0 1.82,-0.42 2.57,2.57 0 0 0 1,-1 h 5.36 a 7.15,7.15 0 0 1 -1.89,3.22 c -1.16,1.12 -3,2.17 -6.37,2.17 a 8.9,8.9 0 0 1 -6.48,-2.38 8.19,8.19 0 0 1 -2.31,-5.92 8.33,8.33 0 0 1 2.35,-6.05 8.79,8.79 0 0 1 6.4,-2.28 8.57,8.57 0 0 1 6,2.14 8.75,8.75 0 0 1 2.49,6.58 z m -5.15,-3.22 a 3.78,3.78 0 0 0 -0.91,-1.68 3.28,3.28 0 0 0 -2.31,-0.84 3,3 0 0 0 -2.27,0.84 3.12,3.12 0 0 0 -0.84,1.68 z"
     id="path1865"
     inkscape:connector-curvature="0" />
  <path
     d="m 340.68815,609.63932 a 3.15,3.15 0 1 1 -3.15,3.15 3.14,3.14 0 0 1 3.15,-3.15 z m 2.8,9.66 v 15.64 h -5.61 v -15.64 z"
     id="path1867"
     inkscape:connector-curvature="0" />
  <path
     d="m 363.88815,628.14932 h -11.65 a 4,4 0 0 0 1,2.63 3.15,3.15 0 0 0 2.31,0.77 4.51,4.51 0 0 0 1.82,-0.42 2.64,2.64 0 0 0 1,-1 h 5.35 a 7,7 0 0 1 -1.89,3.22 c -1.15,1.12 -3,2.17 -6.37,2.17 a 8.88,8.88 0 0 1 -6.47,-2.38 8.19,8.19 0 0 1 -2.32,-5.92 8.37,8.37 0 0 1 2.35,-6.05 8.83,8.83 0 0 1 6.41,-2.28 8.58,8.58 0 0 1 6,2.14 8.77,8.77 0 0 1 2.48,6.58 z m -5.14,-3.22 a 3.78,3.78 0 0 0 -0.91,-1.68 3.29,3.29 0 0 0 -2.31,-0.84 3,3 0 0 0 -2.28,0.84 3.27,3.27 0 0 0 -0.84,1.68 z"
     id="path1869"
     inkscape:connector-curvature="0" />
  <path
     d="m 380.86815,642.95932 h -5.61 v -23.66 h 5.61 v 1.71 a 5.84,5.84 0 0 1 4.79,-2.24 7.78,7.78 0 0 1 5.57,2.28 8.88,8.88 0 0 1 -0.14,12.25 7.56,7.56 0 0 1 -5.36,2.17 6.64,6.64 0 0 1 -4.86,-2 z m 0.91,-18.38 a 3.5,3.5 0 0 0 0,5.08 3.58,3.58 0 0 0 2.51,1.05 3.39,3.39 0 0 0 2.49,-1.05 3.74,3.74 0 0 0 1.09,-2.49 3.83,3.83 0 0 0 -1.09,-2.59 3.39,3.39 0 0 0 -2.49,-1.05 3.58,3.58 0 0 0 -2.51,1.05 z"
     id="path1871"
     inkscape:connector-curvature="0" />
  <path
     d="m 396.81815,619.29932 h 5.6 v 2.55 a 5.06,5.06 0 0 1 2.21,-2.17 6.19,6.19 0 0 1 2.91,-0.63 c 0.14,0 0.38,0 1.12,0.07 v 5.29 a 5,5 0 0 0 -2.42,-0.56 3.62,3.62 0 0 0 -2.55,0.84 4.69,4.69 0 0 0 -1.27,3.57 v 6.68 h -5.6 z"
     id="path1873"
     inkscape:connector-curvature="0" />
  <path
     d="m 413.93815,609.63932 a 3.15,3.15 0 1 1 -3.15,3.15 3.14,3.14 0 0 1 3.15,-3.15 z m 2.8,9.66 v 15.64 h -5.58 v -15.64 z"
     id="path1875"
     inkscape:connector-curvature="0" />
  <path
     d="m 424.88815,619.29932 3.75,8 3.81,-8 h 6.24 l -8.16,15.64 h -3.82 l -8.08,-15.64 z"
     id="path1877"
     inkscape:connector-curvature="0" />
  <path
     d="m 452.71815,619.29932 h 5.6 v 15.64 h -5.6 v -1.71 a 5.85,5.85 0 0 1 -4.86,2.25 7.48,7.48 0 0 1 -5.64,-2.49 7.86,7.86 0 0 1 -2.24,-5.74 8.64,8.64 0 0 1 2.41,-6.26 8.07,8.07 0 0 1 5.64,-2.21 6.2,6.2 0 0 1 4.69,2 z m -5.88,5.25 a 3.52,3.52 0 0 0 0,5.11 4,4 0 0 0 2.53,1.05 3.6,3.6 0 0 0 2.52,-1.09 3.4,3.4 0 0 0 1,-2.52 3.45,3.45 0 0 0 -1.09,-2.55 3.54,3.54 0 0 0 -5,0 z"
     id="path1879"
     inkscape:connector-curvature="0" />
  <path
     d="m 468.36815,623.87932 v 11.06 h -5.61 v -11.06 h -1.78 v -4.58 h 1.78 v -5.15 h 5.61 v 5.15 h 3.18 v 4.58 z"
     id="path1881"
     inkscape:connector-curvature="0" />
  <path
     d="m 485.75815,619.29932 h 5.6 v 15.64 h -5.6 v -1.71 a 5.87,5.87 0 0 1 -4.87,2.24 7.47,7.47 0 0 1 -5.63,-2.49 7.86,7.86 0 0 1 -2.24,-5.74 8.64,8.64 0 0 1 2.41,-6.26 8.07,8.07 0 0 1 5.64,-2.21 6.22,6.22 0 0 1 4.69,2 z m 3.08,-8.05 a 5.46,5.46 0 0 1 -1.54,3.81 7.34,7.34 0 0 1 -9.1,0 5.46,5.46 0 0 1 -1.54,-3.81 h 3.6 a 2.46,2.46 0 0 0 0.7,1.43 2.86,2.86 0 0 0 3.58,0 2.52,2.52 0 0 0 0.7,-1.43 z m -9,13.3 a 3.52,3.52 0 0 0 0,5.11 4,4 0 0 0 2.53,1.05 3.59,3.59 0 0 0 2.51,-1.09 3.4,3.4 0 0 0 1.06,-2.52 3.48,3.48 0 0 0 -1.09,-2.55 3.54,3.54 0 0 0 -5,0 z"
     id="path1883"
     inkscape:connector-curvature="0" />
  <circle
     cx="400.69812"
     cy="503.42932"
     r="12.73"
     style="fill:none;stroke:#3a5c84;stroke-width:4.45599985px;stroke-miterlimit:10"
     id="circle1885" />
  <rect
     x="-137.54559"
     y="639.42084"
     width="52.84"
     height="3.8199999"
     rx="1.51"
     ry="1.51"
     transform="rotate(-45)"
     style="fill:#3a5c84"
     id="rect1887" />
  <rect
     x="-132.662"
     y="639.97278"
     width="2.55"
     height="10.82"
     rx="1.01"
     ry="1.01"
     transform="rotate(-45)"
     style="fill:#3a5c84"
     id="rect1889" />
  <rect
     x="-127.25783"
     y="639.9718"
     width="2.55"
     height="13.29"
     rx="1.01"
     ry="1.01"
     transform="rotate(-45)"
     style="fill:#3a5c84"
     id="rect1891" />
  <rect
     x="-121.40668"
     y="639.9754"
     width="2.55"
     height="13.29"
     rx="1.01"
     ry="1.01"
     transform="rotate(-45)"
     style="fill:#3a5c84"
     id="rect1893" />
  <rect
     x="319.63812"
     y="476.50931"
     width="129.49001"
     height="91.349998"
     rx="12"
     ry="12"
     style="fill:none;stroke:#c13018;stroke-width:5.10176134px;stroke-miterlimit:10"
     id="rect1895" />
  <path
     d="M332.41,272.7v5.52h-4.32V261.55H335a5.75,5.75,0,0,1,4.22,1.5,5.17,5.17,0,0,1,1.55,4.05,5.44,5.44,0,0,1-1.47,4.15,5.53,5.53,0,0,1-4.15,1.45Zm0-3.5h1.45a2.87,2.87,0,0,0,1.83-.52,1.94,1.94,0,0,0,.55-1.53,2,2,0,0,0-.5-1.5,2.56,2.56,0,0,0-1.85-.6h-1.48Z"
     id="path1897" />
  <path
     d="M342.69,267.05h4v1.83a3.6,3.6,0,0,1,1.57-1.55,4.32,4.32,0,0,1,2.08-.45l.8.05v3.77a3.54,3.54,0,0,0-1.73-.4,2.63,2.63,0,0,0-1.82.6,3.38,3.38,0,0,0-.9,2.55v4.77h-4Z"
     id="path1899" />
  <path
     d="M363.66,276.75a7.64,7.64,0,0,1-10,0,5.75,5.75,0,0,1,0-8.22,7.64,7.64,0,0,1,10,0,5.75,5.75,0,0,1,0,8.22Zm-6.77-5.95a2.47,2.47,0,0,0,0,3.6,2.5,2.5,0,0,0,3.57,0,2.45,2.45,0,0,0,.78-1.77,2.73,2.73,0,0,0-.78-1.83,2.57,2.57,0,0,0-3.57,0Z"
     id="path1901" />
  <path
     d="M376.14,278a5.9,5.9,0,0,1-2.78.63,6.2,6.2,0,0,1-4.4-1.7,5.82,5.82,0,0,1-1.72-4.17,6.08,6.08,0,0,1,1.8-4.33,6.45,6.45,0,0,1,4.5-1.7,5.75,5.75,0,0,1,2.6.63v3.35a3.56,3.56,0,0,0-2.08-.73,2.62,2.62,0,0,0-1.95.78,2.7,2.7,0,0,0-.77,1.92,2.86,2.86,0,0,0,.7,1.88,2.7,2.7,0,0,0,2,.85,3.07,3.07,0,0,0,2.05-.75Z"
     id="path1903" />
  <path
     d="M390.26,273.38h-8.32a2.78,2.78,0,0,0,.7,1.87,2.25,2.25,0,0,0,1.65.55,3.07,3.07,0,0,0,1.3-.3,1.9,1.9,0,0,0,.7-.75h3.82a4.91,4.91,0,0,1-1.35,2.3,6.06,6.06,0,0,1-4.55,1.55,6.35,6.35,0,0,1-4.62-1.7,5.84,5.84,0,0,1-1.65-4.22,6,6,0,0,1,1.67-4.33,6.31,6.31,0,0,1,4.58-1.62,6.12,6.12,0,0,1,4.3,1.52,6.27,6.27,0,0,1,1.77,4.7Zm-3.67-2.3a2.66,2.66,0,0,0-.65-1.2,2.31,2.31,0,0,0-1.65-.6,2.14,2.14,0,0,0-1.63.6,2.36,2.36,0,0,0-.6,1.2Z"
     id="path1905" />
  <path
     d="M393.29,274.53a5.52,5.52,0,0,0,1.6.82,5,5,0,0,0,1.55.28,1.72,1.72,0,0,0,1-.3.64.64,0,0,0,.2-.53.58.58,0,0,0-.2-.5,2.56,2.56,0,0,0-1-.4l-1.05-.25a3.55,3.55,0,0,1-1.95-1,2.74,2.74,0,0,1-.72-1.93,4,4,0,0,1,1.05-2.72,5.62,5.62,0,0,1,4-1.35,9.31,9.31,0,0,1,3.57.72L400,270a5.51,5.51,0,0,0-2.1-.55,1.67,1.67,0,0,0-.92.23.59.59,0,0,0-.35.55.64.64,0,0,0,.47.62c.38.15.7.15,1.33.33l.72.2a4.71,4.71,0,0,1,1.65.87,3.17,3.17,0,0,1,.85,2.23,3.73,3.73,0,0,1-1.12,2.77,5.81,5.81,0,0,1-4.13,1.4,8.3,8.3,0,0,1-4.5-1.3Z"
     id="path1907" />
  <path
     d="M422.13,278.22h-4V277a4.11,4.11,0,0,1-3.38,1.6,5.36,5.36,0,0,1-3.92-1.55,6.34,6.34,0,0,1,0-8.87,5.72,5.72,0,0,1,3.95-1.5,4.41,4.41,0,0,1,3.33,1.45V260h4Zm-4.72-3.69a2.68,2.68,0,0,0,.85-1.9,2.9,2.9,0,0,0-.75-1.8,2.42,2.42,0,0,0-1.82-.75,2.46,2.46,0,0,0-1.78.72,2.74,2.74,0,0,0-.77,1.9,2.52,2.52,0,0,0,.77,1.75,2.48,2.48,0,0,0,1.78.75A2.73,2.73,0,0,0,417.41,274.53Z"
     id="path1909" />
  <path
     d="M436.73,273.38h-8.32a2.83,2.83,0,0,0,.7,1.87,2.25,2.25,0,0,0,1.65.55,3.07,3.07,0,0,0,1.3-.3,1.83,1.83,0,0,0,.7-.75h3.82a4.91,4.91,0,0,1-1.35,2.3,6,6,0,0,1-4.54,1.55,6.37,6.37,0,0,1-4.63-1.7,5.88,5.88,0,0,1-1.65-4.22,6,6,0,0,1,1.68-4.33,6.27,6.27,0,0,1,4.57-1.62,6.11,6.11,0,0,1,4.3,1.52,6.27,6.27,0,0,1,1.77,4.7Zm-3.67-2.3a2.66,2.66,0,0,0-.65-1.2,2.3,2.3,0,0,0-1.65-.6,2.12,2.12,0,0,0-1.62.6,2.21,2.21,0,0,0-.6,1.2Z"
     id="path1911" />
  <path
     d="M642.41,272.7v5.52h-4.32V261.55H645a5.75,5.75,0,0,1,4.22,1.5,5.17,5.17,0,0,1,1.55,4.05,5.44,5.44,0,0,1-1.47,4.15,5.53,5.53,0,0,1-4.15,1.45Zm0-3.5h1.45a2.87,2.87,0,0,0,1.83-.52,1.94,1.94,0,0,0,.55-1.53,2,2,0,0,0-.5-1.5,2.56,2.56,0,0,0-1.85-.6h-1.48Z"
     id="path1929" />
  <path
     d="M652.69,267.05h4v1.83a3.6,3.6,0,0,1,1.57-1.55,4.32,4.32,0,0,1,2.08-.45l.8.05v3.77a3.54,3.54,0,0,0-1.73-.4,2.63,2.63,0,0,0-1.82.6,3.38,3.38,0,0,0-.9,2.55v4.77h-4Z"
     id="path1931" />
  <path
     d="M673.66,276.75a7.64,7.64,0,0,1-10,0,5.75,5.75,0,0,1,0-8.22,7.64,7.64,0,0,1,10,0,5.75,5.75,0,0,1,0,8.22Zm-6.77-5.95a2.47,2.47,0,0,0,0,3.6,2.5,2.5,0,0,0,3.57,0,2.45,2.45,0,0,0,.78-1.77,2.73,2.73,0,0,0-.78-1.83,2.57,2.57,0,0,0-3.57,0Z"
     id="path1933" />
  <path
     d="M686.14,278a5.9,5.9,0,0,1-2.78.63,6.2,6.2,0,0,1-4.4-1.7,5.82,5.82,0,0,1-1.72-4.17,6.08,6.08,0,0,1,1.8-4.33,6.45,6.45,0,0,1,4.5-1.7,5.75,5.75,0,0,1,2.6.63v3.35a3.56,3.56,0,0,0-2.08-.73,2.62,2.62,0,0,0-1.95.78,2.7,2.7,0,0,0-.77,1.92,2.86,2.86,0,0,0,.7,1.88,2.7,2.7,0,0,0,2.05.85,3.07,3.07,0,0,0,2-.75Z"
     id="path1935" />
  <path
     d="M700.26,273.38h-8.32a2.78,2.78,0,0,0,.7,1.87,2.25,2.25,0,0,0,1.65.55,3.07,3.07,0,0,0,1.3-.3,1.9,1.9,0,0,0,.7-.75h3.82a4.91,4.91,0,0,1-1.35,2.3,6.06,6.06,0,0,1-4.55,1.55,6.35,6.35,0,0,1-4.62-1.7,5.84,5.84,0,0,1-1.65-4.22,6,6,0,0,1,1.67-4.33,6.31,6.31,0,0,1,4.58-1.62,6.12,6.12,0,0,1,4.3,1.52,6.27,6.27,0,0,1,1.77,4.7Zm-3.67-2.3a2.66,2.66,0,0,0-.65-1.2,2.31,2.31,0,0,0-1.65-.6,2.14,2.14,0,0,0-1.63.6,2.36,2.36,0,0,0-.6,1.2Z"
     id="path1937" />
  <path
     d="M703.29,274.53a5.52,5.52,0,0,0,1.6.82,5,5,0,0,0,1.55.28,1.72,1.72,0,0,0,1-.3.64.64,0,0,0,.2-.53.58.58,0,0,0-.2-.5,2.56,2.56,0,0,0-1.05-.4l-1-.25a3.55,3.55,0,0,1-2-1,2.74,2.74,0,0,1-.72-1.93,4,4,0,0,1,1-2.72,5.62,5.62,0,0,1,4-1.35,9.31,9.31,0,0,1,3.57.72L710,270a5.51,5.51,0,0,0-2.1-.55,1.67,1.67,0,0,0-.92.23.59.59,0,0,0-.35.55.64.64,0,0,0,.47.62c.38.15.7.15,1.33.33l.72.2a4.71,4.71,0,0,1,1.65.87,3.17,3.17,0,0,1,.85,2.23,3.73,3.73,0,0,1-1.12,2.77,5.81,5.81,0,0,1-4.13,1.4,8.3,8.3,0,0,1-4.5-1.3Z"
     id="path1939" />
  <path
     d="M732.13,278.22h-4V277a4.08,4.08,0,0,1-3.37,1.6,5.36,5.36,0,0,1-3.92-1.55,6.34,6.34,0,0,1,0-8.87,5.72,5.72,0,0,1,3.95-1.5,4.38,4.38,0,0,1,3.32,1.45V260h4Zm-4.72-3.69a2.68,2.68,0,0,0,.85-1.9,2.9,2.9,0,0,0-.75-1.8,2.42,2.42,0,0,0-1.82-.75,2.46,2.46,0,0,0-1.78.72,2.74,2.74,0,0,0-.77,1.9,2.52,2.52,0,0,0,.77,1.75,2.48,2.48,0,0,0,1.78.75A2.73,2.73,0,0,0,727.41,274.53Z"
     id="path1941" />
  <path
     d="M746.73,273.38h-8.32a2.83,2.83,0,0,0,.7,1.87,2.25,2.25,0,0,0,1.65.55,3.07,3.07,0,0,0,1.3-.3,1.83,1.83,0,0,0,.7-.75h3.82a4.91,4.91,0,0,1-1.35,2.3,6,6,0,0,1-4.54,1.55,6.37,6.37,0,0,1-4.63-1.7,5.88,5.88,0,0,1-1.65-4.22,6,6,0,0,1,1.68-4.33,6.27,6.27,0,0,1,4.57-1.62,6.12,6.12,0,0,1,4.3,1.52,6.23,6.23,0,0,1,1.77,4.7Zm-3.67-2.3a2.66,2.66,0,0,0-.65-1.2,2.3,2.3,0,0,0-1.65-.6,2.12,2.12,0,0,0-1.62.6,2.21,2.21,0,0,0-.6,1.2Z"
     id="path1943" />
  <g
     aria-label="verificare"
     style="font-style:normal;font-weight:normal;font-size:40px;line-height:1.25;font-family:sans-serif;letter-spacing:0px;word-spacing:0px;fill:#000000;fill-opacity:1;stroke:none"
     id="text1993">
    <path
       d="m 651.11483,298.17775 -5.97461,11.47917 h -2.70899 l -5.92513,-11.47917 h 4.56446 l 2.74609,5.88803 2.75846,-5.88803 z"
       style="font-style:normal;font-variant:normal;font-weight:bold;font-stretch:normal;font-size:25.33333397px;font-family:Aharoni;-inkscape-font-specification:'Aharoni Bold'"
       id="path8674" />
    <path
       d="m 664.67212,304.65953 h -8.53516 q 0,2.58528 2.4987,2.58528 1.27409,0 1.95443,-1.08854 h 3.92122 q -0.47005,1.55859 -1.38541,2.41211 -1.65756,1.54622 -4.44076,1.54622 -3.53776,0 -5.31901,-2.15234 -1.33594,-1.60807 -1.33594,-3.92122 0,-2.7461 1.66992,-4.4655 1.66993,-1.7194 4.7129,-1.7194 3.74804,0 5.35611,2.72135 0.903,1.53386 0.903,3.5625 z m -3.78516,-2.32553 q -0.43294,-1.90494 -2.31315,-1.90494 -1.03906,0 -1.68229,0.60612 -0.50716,0.48242 -0.64323,1.29882 z"
       style="font-style:normal;font-variant:normal;font-weight:bold;font-stretch:normal;font-size:25.33333397px;font-family:Aharoni;-inkscape-font-specification:'Aharoni Bold'"
       id="path8676" />
    <path
       d="m 675.59465,301.9258 q -0.85352,-0.4082 -1.73178,-0.4082 -2.0039,0 -2.59765,1.63281 -0.22266,0.59375 -0.22266,1.5957 v 4.91081 h -4.05729 v -11.47917 h 4.05729 v 1.88021 q 0.64323,-1.00195 1.38542,-1.44726 1.00195,-0.59375 2.375,-0.59375 0.32161,0 0.79167,0.0371 z"
       style="font-style:normal;font-variant:normal;font-weight:bold;font-stretch:normal;font-size:25.33333397px;font-family:Aharoni;-inkscape-font-specification:'Aharoni Bold'"
       id="path8678" />
    <path
       d="m 681.73006,293.76174 q 0,0.96484 -0.66797,1.63281 -0.65559,0.6556 -1.62044,0.6556 -0.95247,0 -1.62044,-0.66797 -0.6556,-0.66797 -0.6556,-1.62044 0,-0.95248 0.6556,-1.60807 0.66797,-0.66797 1.62044,-0.66797 0.95248,0 1.62044,0.66797 0.66797,0.65559 0.66797,1.60807 z m -0.25976,15.89518 h -4.05729 v -11.47917 h 4.05729 z"
       style="font-style:normal;font-variant:normal;font-weight:bold;font-stretch:normal;font-size:25.33333397px;font-family:Aharoni;-inkscape-font-specification:'Aharoni Bold'"
       id="path8680" />
    <path
       d="m 691.5022,301.5176 h -2.85742 v 8.13932 h -4.05729 v -8.13932 h -1.44727 v -3.33985 h 1.44727 v -1.52148 q 0,-2.53581 1.28645,-3.90885 1.59571,-1.70704 3.83464,-1.70704 0.89062,0 1.79362,0.42058 v 3.53776 q -0.82878,-0.45768 -1.42253,-0.45768 -0.82877,0 -1.21224,0.63085 -0.22265,0.35873 -0.22265,1.76889 v 1.23697 h 2.85742 z"
       style="font-style:normal;font-variant:normal;font-weight:bold;font-stretch:normal;font-size:25.33333397px;font-family:Aharoni;-inkscape-font-specification:'Aharoni Bold'"
       id="path8682" />
    <path
       d="m 697.316,293.76174 q 0,0.96484 -0.66797,1.63281 -0.6556,0.6556 -1.62044,0.6556 -0.95247,0 -1.62044,-0.66797 -0.6556,-0.66797 -0.6556,-1.62044 0,-0.95248 0.6556,-1.60807 0.66797,-0.66797 1.62044,-0.66797 0.95247,0 1.62044,0.66797 0.66797,0.65559 0.66797,1.60807 z m -0.25976,15.89518 h -4.0573 v -11.47917 h 4.0573 z"
       style="font-style:normal;font-variant:normal;font-weight:bold;font-stretch:normal;font-size:25.33333397px;font-family:Aharoni;-inkscape-font-specification:'Aharoni Bold'"
       id="path8684" />
    <path
       d="m 708.49829,309.40953 q -1.26172,0.63085 -2.64713,0.63085 -3.14193,0 -4.98503,-2.1276 -1.48437,-1.7194 -1.48437,-3.98307 0,-2.27604 1.48437,-3.98308 1.8431,-2.1276 4.98503,-2.1276 1.41015,0 2.64713,0.64323 v 3.45117 q -1.07617,-0.75456 -2.10286,-0.75456 -1.21224,0 -2.00391,0.7793 -0.79167,0.7793 -0.79167,1.99154 0,1.21224 0.79167,1.99153 0.79167,0.7793 2.00391,0.7793 1.01432,0 2.10286,-0.74219 z"
       style="font-style:normal;font-variant:normal;font-weight:bold;font-stretch:normal;font-size:25.33333397px;font-family:Aharoni;-inkscape-font-specification:'Aharoni Bold'"
       id="path8686" />
    <path
       d="m 723.76262,309.65692 h -4.05729 v -1.27409 q -0.58138,0.72982 -1.17513,1.0638 -1.03907,0.58139 -2.36263,0.58139 -2.13998,0 -3.8099,-1.47201 -1.99154,-1.75651 -1.99154,-4.65104 0,-2.94401 2.04102,-4.70052 1.62044,-1.39779 3.72331,-1.39779 1.22461,0 2.30078,0.51953 0.61849,0.29688 1.27409,0.97722 v -1.12566 h 4.05729 z m -3.93359,-5.73958 q 0,-1.08854 -0.76693,-1.8431 -0.76693,-0.76693 -1.85547,-0.76693 -1.21224,0 -1.99154,0.91537 -0.63086,0.74218 -0.63086,1.69466 0,0.95247 0.63086,1.69466 0.76693,0.91536 1.99154,0.91536 1.10091,0 1.85547,-0.75455 0.76693,-0.75456 0.76693,-1.85547 z"
       style="font-style:normal;font-variant:normal;font-weight:bold;font-stretch:normal;font-size:25.33333397px;font-family:Aharoni;-inkscape-font-specification:'Aharoni Bold'"
       id="path8688" />
    <path
       d="m 735.16757,301.9258 q -0.85352,-0.4082 -1.73177,-0.4082 -2.00391,0 -2.59766,1.63281 -0.22266,0.59375 -0.22266,1.5957 v 4.91081 h -4.05729 v -11.47917 h 4.05729 v 1.88021 q 0.64323,-1.00195 1.38542,-1.44726 1.00195,-0.59375 2.375,-0.59375 0.32162,0 0.79167,0.0371 z"
       style="font-style:normal;font-variant:normal;font-weight:bold;font-stretch:normal;font-size:25.33333397px;font-family:Aharoni;-inkscape-font-specification:'Aharoni Bold'"
       id="path8690" />
    <path
       d="m 749.18254,304.65953 h -8.53516 q 0,2.58528 2.4987,2.58528 1.27409,0 1.95443,-1.08854 h 3.92122 q -0.47005,1.55859 -1.38542,2.41211 -1.65755,1.54622 -4.44075,1.54622 -3.53776,0 -5.31901,-2.15234 -1.33594,-1.60807 -1.33594,-3.92122 0,-2.7461 1.66992,-4.4655 1.66993,-1.7194 4.71289,-1.7194 3.74805,0 5.35612,2.72135 0.903,1.53386 0.903,3.5625 z m -3.78516,-2.32553 q -0.43294,-1.90494 -2.31315,-1.90494 -1.03906,0 -1.68229,0.60612 -0.50716,0.48242 -0.64323,1.29882 z"
       style="font-style:normal;font-variant:normal;font-weight:bold;font-stretch:normal;font-size:25.33333397px;font-family:Aharoni;-inkscape-font-specification:'Aharoni Bold'"
       id="path8692" />
  </g>
  <g
     aria-label="semnare"
     style="font-style:normal;font-weight:normal;font-size:40px;line-height:1.25;font-family:sans-serif;letter-spacing:0px;word-spacing:0px;fill:#000000;fill-opacity:1;stroke:none"
     id="text1993-8">
    <path
       d="m 341.03116,304.34395 q 0,1.83073 -1.3112,2.99349 -1.472,1.3112 -4.14388,1.3112 -2.36263,0 -4.58919,-1.32357 l 1.472,-2.86979 q 1.74414,1.15039 3.24089,1.15039 1.27409,0 1.27409,-0.87825 0,-0.45769 -0.44532,-0.70508 -0.2845,-0.16081 -1.28645,-0.38346 -1.12565,-0.2474 -1.47201,-0.38347 -1.23698,-0.48242 -1.66992,-1.50911 -0.23503,-0.55664 -0.23503,-1.33594 0,-1.50912 1.0267,-2.63477 1.32356,-1.44726 4.08203,-1.44726 1.91731,0 3.7233,0.74219 l -1.37304,2.62239 q -1.13802,-0.58138 -2.17709,-0.58138 -1.22461,0 -1.22461,0.84115 0,0.38346 0.4948,0.61849 0.22265,0.11132 1.31119,0.33398 1.59571,0.33399 2.35026,1.0638 0.95248,0.91537 0.95248,2.375 z"
       style="font-style:normal;font-variant:normal;font-weight:bold;font-stretch:normal;font-size:25.33333397px;font-family:Aharoni;-inkscape-font-specification:'Aharoni Bold'"
       id="path8659" />
    <path
       d="m 355.3059,303.2183 h -8.53516 q 0,2.58529 2.4987,2.58529 1.27409,0 1.95443,-1.08854 h 3.92122 q -0.47005,1.55859 -1.38542,2.41211 -1.65755,1.54622 -4.44075,1.54622 -3.53776,0 -5.31901,-2.15234 -1.33594,-1.60808 -1.33594,-3.92123 0,-2.74609 1.66992,-4.46549 1.66992,-1.7194 4.71289,-1.7194 3.74805,0 5.35612,2.72135 0.903,1.53386 0.903,3.5625 z m -3.78516,-2.32552 q -0.43294,-1.90495 -2.31315,-1.90495 -1.03906,0 -1.68229,0.60612 -0.50716,0.48243 -0.64323,1.29883 z"
       style="font-style:normal;font-variant:normal;font-weight:bold;font-stretch:normal;font-size:25.33333397px;font-family:Aharoni;-inkscape-font-specification:'Aharoni Bold'"
       id="path8661" />
    <path
       d="m 377.03962,308.2157 h -4.05729 v -5.67774 q 0,-1.48437 -0.30924,-2.02864 -0.45769,-0.80404 -1.37305,-0.80404 -1.01432,0 -1.55859,0.87826 -0.38347,0.61849 -0.38347,1.95442 v 5.67774 h -4.05729 v -5.67774 q 0,-1.48437 -0.2474,-1.92968 -0.49479,-0.89063 -1.52148,-0.89063 -0.95247,0 -1.48437,0.76693 -0.19792,0.27213 -0.28451,0.75456 -0.0866,0.47005 -0.0866,1.29882 v 5.67774 h -4.05729 v -11.47917 h 4.05729 v 1.41016 q 0.71745,-0.69271 1.3112,-1.01433 1.07617,-0.58138 2.39974,-0.58138 1.69466,0 2.82031,0.87826 0.56901,0.44531 1.08854,1.26172 0.47006,-0.76693 1.05144,-1.21224 1.22461,-0.94011 2.79557,-0.94011 1.28646,0 2.28841,0.61849 1.07617,0.68034 1.41016,1.8431 0.19791,0.70508 0.19791,1.75651 z"
       style="font-style:normal;font-variant:normal;font-weight:bold;font-stretch:normal;font-size:25.33333397px;font-family:Aharoni;-inkscape-font-specification:'Aharoni Bold'"
       id="path8663" />
    <path
       d="m 391.94522,308.2157 h -4.05729 v -5.8138 q 0,-1.52149 -0.34635,-2.01628 -0.50716,-0.72982 -1.52149,-0.72982 -0.92773,0 -1.55859,0.63086 -0.56901,0.56901 -0.56901,1.78125 v 6.14779 h -4.05729 v -11.47917 h 4.05729 v 1.44727 q 0.70508,-0.81641 1.29883,-1.15039 0.96484,-0.54427 2.41211,-0.54427 1.85546,0 3.01822,1.00195 1.32357,1.13802 1.32357,3.41406 z"
       style="font-style:normal;font-variant:normal;font-weight:bold;font-stretch:normal;font-size:25.33333397px;font-family:Aharoni;-inkscape-font-specification:'Aharoni Bold'"
       id="path8665" />
    <path
       d="m 407.66723,308.2157 h -4.05729 v -1.27409 q -0.58138,0.72982 -1.17513,1.0638 -1.03907,0.58138 -2.36263,0.58138 -2.13998,0 -3.8099,-1.472 -1.99154,-1.75651 -1.99154,-4.65105 0,-2.94401 2.04102,-4.70052 1.62044,-1.39778 3.72331,-1.39778 1.22461,0 2.30078,0.51953 0.61849,0.29687 1.27409,0.97721 v -1.12565 h 4.05729 z m -3.93359,-5.73959 q 0,-1.08854 -0.76693,-1.84309 -0.76693,-0.76693 -1.85547,-0.76693 -1.21224,0 -1.99154,0.91536 -0.63086,0.74219 -0.63086,1.69466 0,0.95248 0.63086,1.69467 0.76693,0.91536 1.99154,0.91536 1.10091,0 1.85547,-0.75456 0.76693,-0.75455 0.76693,-1.85547 z"
       style="font-style:normal;font-variant:normal;font-weight:bold;font-stretch:normal;font-size:25.33333397px;font-family:Aharoni;-inkscape-font-specification:'Aharoni Bold'"
       id="path8667" />
    <path
       d="m 419.07218,300.48458 q -0.85352,-0.4082 -1.73177,-0.4082 -2.00391,0 -2.59766,1.63281 -0.22266,0.59375 -0.22266,1.5957 v 4.91081 h -4.05729 v -11.47917 h 4.05729 v 1.88021 q 0.64323,-1.00195 1.38542,-1.44727 1.00195,-0.59375 2.375,-0.59375 0.32161,0 0.79167,0.0371 z"
       style="font-style:normal;font-variant:normal;font-weight:bold;font-stretch:normal;font-size:25.33333397px;font-family:Aharoni;-inkscape-font-specification:'Aharoni Bold'"
       id="path8669" />
    <path
       d="m 433.08715,303.2183 h -8.53516 q 0,2.58529 2.4987,2.58529 1.27409,0 1.95443,-1.08854 h 3.92122 q -0.47005,1.55859 -1.38542,2.41211 -1.65755,1.54622 -4.44075,1.54622 -3.53776,0 -5.31901,-2.15234 -1.33594,-1.60808 -1.33594,-3.92123 0,-2.74609 1.66992,-4.46549 1.66992,-1.7194 4.71289,-1.7194 3.74805,0 5.35612,2.72135 0.903,1.53386 0.903,3.5625 z m -3.78516,-2.32552 q -0.43294,-1.90495 -2.31315,-1.90495 -1.03906,0 -1.68229,0.60612 -0.50716,0.48243 -0.64323,1.29883 z"
       style="font-style:normal;font-variant:normal;font-weight:bold;font-stretch:normal;font-size:25.33333397px;font-family:Aharoni;-inkscape-font-specification:'Aharoni Bold'"
       id="path8671" />
  </g>
  <path
     inkscape:connector-curvature="0"
     d="m 872.45526,113.34012 a 16.952774,16.952774 0 1 0 16.95277,16.95279 16.952774,16.952774 0 0 0 -16.95277,-16.95279 z m -3.1076,25.65952 -7.46642,-7.46369 2.48881,-2.48881 4.97761,4.97761 11.19553,-11.19553 2.48608,2.48607 z"
     style="fill:#91c54f;stroke-width:0.27259645"
     id="path2776" />
  <g
     aria-label="verificat"
     style="font-style:normal;font-weight:normal;font-size:40px;line-height:1.25;font-family:sans-serif;letter-spacing:0px;word-spacing:0px;fill:#000000;fill-opacity:1;stroke:none"
     id="text1993-0">
    <path
       d="m 843.72801,38.383094 -7.23243,13.895833 h -3.27929 l -7.17253,-13.895833 h 5.52539 l 3.32422,7.127604 3.33919,-7.127604 z"
       style="font-style:normal;font-variant:normal;font-weight:bold;font-stretch:normal;font-size:30.66666603px;font-family:Aharoni;-inkscape-font-specification:'Aharoni Bold'"
       id="path8640" />
    <path
       d="m 860.13946,46.229448 h -10.33203 q 0,3.129557 3.02474,3.129557 1.54232,0 2.36589,-1.317708 h 4.74674 q -0.56901,1.886718 -1.67708,2.919922 -2.00651,1.871744 -5.37565,1.871744 -4.28255,0 -6.4388,-2.605468 -1.61719,-1.946615 -1.61719,-4.746745 0,-3.324219 2.02148,-5.405599 2.02149,-2.08138 5.70508,-2.08138 4.53711,0 6.48372,3.294271 1.0931,1.85677 1.0931,4.3125 z m -4.58203,-2.815104 q -0.52409,-2.30599 -2.80013,-2.30599 -1.25781,0 -2.03646,0.733724 -0.61393,0.583984 -0.77864,1.572266 z"
       style="font-style:normal;font-variant:normal;font-weight:bold;font-stretch:normal;font-size:30.66666603px;font-family:Aharoni;-inkscape-font-specification:'Aharoni Bold'"
       id="path8642" />
    <path
       d="m 873.36147,42.920203 q -1.0332,-0.494141 -2.09635,-0.494141 -2.42579,0 -3.14454,1.976563 -0.26953,0.71875 -0.26953,1.931641 v 5.944661 H 862.9396 V 38.383094 h 4.91145 v 2.276041 q 0.77865,-1.21289 1.67709,-1.751953 1.21289,-0.71875 2.875,-0.71875 0.38932,0 0.95833,0.04492 z"
       style="font-style:normal;font-variant:normal;font-weight:bold;font-stretch:normal;font-size:30.66666603px;font-family:Aharoni;-inkscape-font-specification:'Aharoni Bold'"
       id="path8644" />
    <path
       d="m 880.78855,33.037391 q 0,1.167969 -0.80859,1.976562 -0.79362,0.79362 -1.96159,0.79362 -1.15299,0 -1.96159,-0.808594 -0.79362,-0.808593 -0.79362,-1.961588 0,-1.152995 0.79362,-1.946615 0.8086,-0.808593 1.96159,-0.808593 1.15299,0 1.96159,0.808593 0.80859,0.79362 0.80859,1.946615 z m -0.31445,19.241536 h -4.91146 V 38.383094 h 4.91146 z"
       style="font-style:normal;font-variant:normal;font-weight:bold;font-stretch:normal;font-size:30.66666603px;font-family:Aharoni;-inkscape-font-specification:'Aharoni Bold'"
       id="path8646" />
    <path
       d="M 892.61798,42.426062 H 889.159 v 9.852865 h -4.91146 v -9.852865 h -1.75196 v -4.042968 h 1.75196 v -1.841797 q 0,-3.069661 1.55729,-4.731771 1.93164,-2.066406 4.64193,-2.066406 1.07812,0 2.17122,0.509115 v 4.282552 q -1.00326,-0.554037 -1.72201,-0.554037 -1.00325,0 -1.46744,0.763672 -0.26953,0.434245 -0.26953,2.141276 v 1.497396 h 3.45898 z"
       style="font-style:normal;font-variant:normal;font-weight:bold;font-stretch:normal;font-size:30.66666603px;font-family:Aharoni;-inkscape-font-specification:'Aharoni Bold'"
       id="path8648" />
    <path
       d="m 899.65574,33.037391 q 0,1.167969 -0.8086,1.976562 -0.79362,0.79362 -1.96159,0.79362 -1.15299,0 -1.96158,-0.808594 -0.79362,-0.808593 -0.79362,-1.961588 0,-1.152995 0.79362,-1.946615 0.80859,-0.808593 1.96158,-0.808593 1.153,0 1.96159,0.808593 0.8086,0.79362 0.8086,1.946615 z m -0.31446,19.241536 h -4.91146 V 38.383094 h 4.91146 z"
       style="font-style:normal;font-variant:normal;font-weight:bold;font-stretch:normal;font-size:30.66666603px;font-family:Aharoni;-inkscape-font-specification:'Aharoni Bold'"
       id="path8650" />
    <path
       d="m 913.19219,51.979448 q -1.52734,0.763672 -3.20442,0.763672 -3.80339,0 -6.03451,-2.575521 -1.79687,-2.08138 -1.79687,-4.821615 0,-2.755208 1.79687,-4.821614 2.23112,-2.575521 6.03451,-2.575521 1.70703,0 3.20442,0.778646 v 4.177734 q -1.30273,-0.913411 -2.54557,-0.913411 -1.46745,0 -2.42578,0.943359 -0.95833,0.943359 -0.95833,2.410807 0,1.467448 0.95833,2.410808 0.95833,0.943359 2.42578,0.943359 1.22787,0 2.54557,-0.898438 z"
       style="font-style:normal;font-variant:normal;font-weight:bold;font-stretch:normal;font-size:30.66666603px;font-family:Aharoni;-inkscape-font-specification:'Aharoni Bold'"
       id="path8652" />
    <path
       d="m 931.67006,52.278927 h -4.91146 v -1.542318 q -0.70378,0.883464 -1.42253,1.287761 -1.25781,0.703776 -2.86002,0.703776 -2.5905,0 -4.61198,-1.781901 -2.41081,-2.126302 -2.41081,-5.630209 0,-3.563802 2.47071,-5.690104 1.96158,-1.692057 4.50716,-1.692057 1.48242,0 2.78515,0.628906 0.7487,0.359375 1.54232,1.182943 v -1.36263 h 4.91146 z m -4.76172,-6.947917 q 0,-1.317708 -0.92839,-2.231119 -0.92838,-0.928386 -2.24609,-0.928386 -1.46745,0 -2.41081,1.108073 -0.76367,0.898438 -0.76367,2.051432 0,1.152995 0.76367,2.051433 0.92839,1.108072 2.41081,1.108072 1.33268,0 2.24609,-0.913411 0.92839,-0.913411 0.92839,-2.246094 z"
       style="font-style:normal;font-variant:normal;font-weight:bold;font-stretch:normal;font-size:30.66666603px;font-family:Aharoni;-inkscape-font-specification:'Aharoni Bold'"
       id="path8654" />
    <path
       d="m 943.33477,42.426062 h -2.80013 v 9.852865 h -4.91146 V 42.426062 H 934.006 v -4.042968 h 1.61718 V 34.20536 h 4.91146 v 4.177734 h 2.80013 z"
       style="font-style:normal;font-variant:normal;font-weight:bold;font-stretch:normal;font-size:30.66666603px;font-family:Aharoni;-inkscape-font-specification:'Aharoni Bold'"
       id="path8656" />
  </g>
  <line
     x1="500.80441"
     y1="137.18658"
     x2="540.8844"
     y2="137.18658"
     style="fill:none;stroke:#91c54f;stroke-width:3.86249781px;stroke-miterlimit:10"
     id="line1721-3" />
  <line
     x1="500.80441"
     y1="126.81657"
     x2="540.8844"
     y2="126.81657"
     style="fill:none;stroke:#91c54f;stroke-width:3.86249781px;stroke-miterlimit:10"
     id="line1723-9" />
  <line
     x1="500.80441"
     y1="116.44658"
     x2="540.8844"
     y2="116.44658"
     style="fill:none;stroke:#91c54f;stroke-width:3.86249781px;stroke-miterlimit:10"
     id="line1725-6" />
  <line
     x1="500.80441"
     y1="106.07658"
     x2="540.8844"
     y2="106.07658"
     style="fill:none;stroke:#91c54f;stroke-width:3.86249781px;stroke-miterlimit:10"
     id="line1727-9" />
  <line
     x1="500.80441"
     y1="95.706589"
     x2="517.34442"
     y2="95.706589"
     style="fill:none;stroke:#91c54f;stroke-width:3.86249781px;stroke-miterlimit:10"
     id="line1729-5" />
  <path
     inkscape:connector-curvature="0"
     d="m 538.80442,91.976584 a 5.61,5.61 0 0 1 -5.59,-5.59 v -10.49 h -34.74 a 5.61,5.61 0 0 0 -5.6,5.59 v 58.729996 a 5.61,5.61 0 0 0 5.6,5.59 h 44.74 a 5.61,5.61 0 0 0 5.59,-5.59 V 91.976584 Z"
     style="fill:none;stroke:#91c54f;stroke-width:3.86249781px;stroke-miterlimit:10"
     id="path1731-9" />
  <path
     inkscape:connector-curvature="0"
     d="m 545.2044,118.44658 a 11,11 0 1 0 11,11 11,11 0 0 0 -11,-11 z"
     style="fill:#f7931f"
     id="path3989" />
  <path
     inkscape:connector-curvature="0"
     d="m 561.2044,134.68658 -2.33,-5.21 2.33,-5.21 -5,-2.84 -1.17,-5.59 -5.68,0.61 -4.23,-3.83 -4.24,3.83 -5.67,-0.61 -1.18,5.59 -5,2.84 2.34,5.21 -2.34,5.21 5,2.84 0.64,3 -5.28,11.22 5.51,0.08 3.57,4.2 5.2,-11 1.53,1.31 1.45,-1.32 5.19,11 3.57,-4.2 5.52,-0.08 -5.29,-11.22 0.64,-3 z m -16,5 a 10.24,10.24 0 1 1 10.24,-10.24 10.25,10.25 0 0 1 -10.24,10.27 z"
     style="fill:#f7931f"
     id="path3991" />
  <g
     id="g8625">
    <g
       aria-label="semnat"
       style="font-style:normal;font-weight:normal;font-size:40px;line-height:1.25;font-family:sans-serif;letter-spacing:0px;word-spacing:0px;fill:#000000;fill-opacity:1;stroke:none"
       id="text1993-0-0">
      <path
         d="m 532.2323,45.058295 q 0,2.216146 -1.58724,3.623698 -1.7819,1.587239 -5.01628,1.587239 -2.86002,0 -5.55533,-1.602213 l 1.7819,-3.473958 q 2.11132,1.392578 3.92317,1.392578 1.54232,0 1.54232,-1.063151 0,-0.554037 -0.53906,-0.853516 -0.3444,-0.194661 -1.55729,-0.464193 -1.36263,-0.299479 -1.7819,-0.464192 -1.4974,-0.583985 -2.02149,-1.826823 -0.2845,-0.673828 -0.2845,-1.617188 0,-1.826823 1.24284,-3.189453 1.60221,-1.751953 4.9414,-1.751953 2.32096,0 4.50716,0.898438 l -1.66211,3.174479 q -1.3776,-0.703776 -2.63541,-0.703776 -1.48243,0 -1.48243,1.018229 0,0.464193 0.59896,0.748698 0.26953,0.134765 1.58724,0.404297 1.93164,0.404297 2.84505,1.28776 1.153,1.108073 1.153,2.875 z"
         style="font-style:normal;font-variant:normal;font-weight:bold;font-stretch:normal;font-size:30.66666603px;font-family:Aharoni;-inkscape-font-specification:'Aharoni Bold'"
         id="path8627" />
      <path
         d="m 549.51225,43.695665 h -10.33203 q 0,3.129557 3.02474,3.129557 1.54231,0 2.36588,-1.317708 h 4.74675 q -0.56901,1.886718 -1.67709,2.919922 -2.00651,1.871744 -5.37565,1.871744 -4.28255,0 -6.4388,-2.605468 -1.61719,-1.946615 -1.61719,-4.746745 0,-3.324219 2.02149,-5.405599 2.02148,-2.08138 5.70507,-2.08138 4.53711,0 6.48373,3.294271 1.0931,1.85677 1.0931,4.3125 z m -4.58203,-2.815104 q -0.52409,-2.30599 -2.80013,-2.30599 -1.25782,0 -2.03646,0.733724 -0.61393,0.583985 -0.77865,1.572266 z"
         style="font-style:normal;font-variant:normal;font-weight:bold;font-stretch:normal;font-size:30.66666603px;font-family:Aharoni;-inkscape-font-specification:'Aharoni Bold'"
         id="path8629" />
      <path
         d="m 575.82149,49.745144 h -4.91146 v -6.873047 q 0,-1.796875 -0.37435,-2.455729 -0.55403,-0.973307 -1.66211,-0.973307 -1.22786,0 -1.88671,1.063151 -0.4642,0.748698 -0.4642,2.365885 v 6.873047 h -4.91145 v -6.873047 q 0,-1.796875 -0.29948,-2.335937 -0.59896,-1.078125 -1.8418,-1.078125 -1.153,0 -1.79688,0.928385 -0.23958,0.329427 -0.3444,0.913412 -0.10481,0.56901 -0.10481,1.572265 v 6.873047 h -4.91146 V 35.849311 h 4.91146 v 1.707031 q 0.86849,-0.838542 1.58724,-1.227864 1.30273,-0.703777 2.90494,-0.703777 2.05144,0 3.41407,1.063151 0.6888,0.539063 1.3177,1.527344 0.56901,-0.928385 1.27279,-1.467448 1.48242,-1.13802 3.38411,-1.13802 1.5573,0 2.77019,0.748697 1.30273,0.823568 1.70703,2.23112 0.23958,0.853516 0.23958,2.126302 z"
         style="font-style:normal;font-variant:normal;font-weight:bold;font-stretch:normal;font-size:30.66666603px;font-family:Aharoni;-inkscape-font-specification:'Aharoni Bold'"
         id="path8631" />
      <path
         d="m 593.86511,49.745144 h -4.91146 v -7.03776 q 0,-1.841797 -0.41927,-2.440756 -0.61393,-0.883463 -1.8418,-0.883463 -1.12304,0 -1.88671,0.763672 -0.68881,0.688802 -0.68881,2.15625 v 7.442057 h -4.91145 V 35.849311 h 4.91145 v 1.751953 q 0.85352,-0.988281 1.57227,-1.392578 1.16797,-0.658854 2.91992,-0.658854 2.2461,0 3.65365,1.21289 1.60221,1.377604 1.60221,4.132813 z"
         style="font-style:normal;font-variant:normal;font-weight:bold;font-stretch:normal;font-size:30.66666603px;font-family:Aharoni;-inkscape-font-specification:'Aharoni Bold'"
         id="path8633" />
      <path
         d="m 612.89701,49.745144 h -4.91146 v -1.542318 q -0.70377,0.883464 -1.42252,1.287761 -1.25782,0.703776 -2.86003,0.703776 -2.59049,0 -4.61198,-1.781901 -2.41081,-2.126302 -2.41081,-5.630209 0,-3.563802 2.47071,-5.690104 1.96159,-1.692057 4.50716,-1.692057 1.48242,0 2.78515,0.628906 0.7487,0.359375 1.54232,1.182943 v -1.36263 h 4.91146 z m -4.76172,-6.947917 q 0,-1.317708 -0.92838,-2.231119 -0.92839,-0.928386 -2.2461,-0.928386 -1.46745,0 -2.4108,1.108073 -0.76368,0.898438 -0.76368,2.051432 0,1.152995 0.76368,2.051433 0.92838,1.108073 2.4108,1.108073 1.33268,0 2.2461,-0.913412 0.92838,-0.913411 0.92838,-2.246094 z"
         style="font-style:normal;font-variant:normal;font-weight:bold;font-stretch:normal;font-size:30.66666603px;font-family:Aharoni;-inkscape-font-specification:'Aharoni Bold'"
         id="path8635" />
      <path
         d="m 624.56172,39.89228 h -2.80013 v 9.852864 h -4.91145 V 39.89228 h -1.61719 v -4.042969 h 1.61719 v -4.177734 h 4.91145 v 4.177734 h 2.80013 z"
         style="font-style:normal;font-variant:normal;font-weight:bold;font-stretch:normal;font-size:30.66666603px;font-family:Aharoni;-inkscape-font-specification:'Aharoni Bold'"
         id="path8637" />
    </g>
  </g>
</svg>
