<svg id="Layer_1" data-name="Layer 1" xmlns="http://www.w3.org/2000/svg" viewBox="0 0 790 618"><title>Capitolul12</title><path d="M38.47,237v11.85a4,4,0,0,0,1,3.09,3.69,3.69,0,0,0,4.86.09,4.38,4.38,0,0,0,1.17-3.63V237h5.19v11.49c0,2.1-.09,4.29-2.25,6.48a8.64,8.64,0,0,1-6.6,2.49,8.93,8.93,0,0,1-6.63-2.4c-1.74-1.89-1.95-4.44-1.95-6.57V237Z"/><path d="M59.77,247.57v9.48H55v-9.48H53.44v-3.93H55v-4.41h4.8v4.41H62.5v3.93Z"/><path d="M66.7,235.36a2.7,2.7,0,1,1-2.7,2.7A2.69,2.69,0,0,1,66.7,235.36Zm2.4,8.28v13.41H64.3V243.64Z"/><path d="M77.17,235.18v21.87h-4.8V235.18Z"/><path d="M82.84,235.36a2.7,2.7,0,1,1-2.7,2.7A2.69,2.69,0,0,1,82.84,235.36Zm2.4,8.28v13.41h-4.8V243.64Z"/><path d="M95.5,253.12h5.61v3.93H87.46l6.33-9.48h-5.4v-3.93h13.38Z"/><path d="M114.4,243.64h4.8v13.41h-4.8v-1.47a5,5,0,0,1-4.17,1.92,6.42,6.42,0,0,1-4.83-2.13,6.76,6.76,0,0,1-1.92-4.92,7.42,7.42,0,0,1,2.07-5.37,6.9,6.9,0,0,1,4.83-1.89,5.31,5.31,0,0,1,4,1.74Zm-5,4.5a3.14,3.14,0,0,0-1,2.19,3.09,3.09,0,0,0,.93,2.19,3.37,3.37,0,0,0,2.16.9,3.08,3.08,0,0,0,2.16-.93,2.91,2.91,0,0,0,.9-2.16,3,3,0,0,0-.93-2.19,3,3,0,0,0-4.26,0Z"/><path d="M127.81,247.57v9.48H123v-9.48h-1.53v-3.93H123v-4.41h4.8v4.41h2.73v3.93Z"/><path d="M145.84,255.28a9.18,9.18,0,0,1-12,0,6.92,6.92,0,0,1,0-9.87,8.37,8.37,0,0,1,6-2.22,8.47,8.47,0,0,1,6,2.22,6.92,6.92,0,0,1,0,9.87Zm-8.13-7.14a3.06,3.06,0,0,0,2.16,5.22,3.05,3.05,0,0,0,2.13-.9,3,3,0,0,0,.93-2.13,3.26,3.26,0,0,0-.93-2.19,3.08,3.08,0,0,0-4.29,0Z"/><path d="M150.67,243.64h4.8v2.19a4.33,4.33,0,0,1,1.89-1.86,5.24,5.24,0,0,1,2.49-.54l1,.06V248a4.23,4.23,0,0,0-2.07-.48,3.14,3.14,0,0,0-2.19.72,4,4,0,0,0-1.08,3.06v5.73h-4.8Z"/><polygon points="182.59 190.41 267.11 190.41 267.11 202.6 293 176.71 267.11 150.82 267.11 163 182.59 163 182.59 190.41" style="fill:none;stroke:#4fc2c9;stroke-miterlimit:10;stroke-width:5px"/><polygon points="398.99 412 398.99 339.44 409.45 339.44 387.23 317.22 365 339.44 375.46 339.44 375.46 412 398.99 412" style="fill:none;stroke:#3a5c84;stroke-miterlimit:10;stroke-width:5px"/><polygon points="481.59 190.41 566.11 190.41 566.11 202.6 592 176.71 566.11 150.82 566.11 163 481.59 163 481.59 190.41" style="fill:none;stroke:#4fc2c9;stroke-miterlimit:10;stroke-width:5px"/><line x1="210" y1="125.47" x2="250.08" y2="125.47" style="fill:none;stroke:#91c54f;stroke-miterlimit:10;stroke-width:3.86249780654907px"/><line x1="210" y1="115.1" x2="250.08" y2="115.1" style="fill:none;stroke:#91c54f;stroke-miterlimit:10;stroke-width:3.86249780654907px"/><line x1="210" y1="104.73" x2="250.08" y2="104.73" style="fill:none;stroke:#91c54f;stroke-miterlimit:10;stroke-width:3.86249780654907px"/><line x1="210" y1="94.36" x2="250.08" y2="94.36" style="fill:none;stroke:#91c54f;stroke-miterlimit:10;stroke-width:3.86249780654907px"/><line x1="210" y1="83.99" x2="226.54" y2="83.99" style="fill:none;stroke:#91c54f;stroke-miterlimit:10;stroke-width:3.86249780654907px"/><path d="M248,80.26a5.61,5.61,0,0,1-5.59-5.59V64.18H207.67a5.61,5.61,0,0,0-5.6,5.59V128.5a5.61,5.61,0,0,0,5.6,5.59h44.74A5.61,5.61,0,0,0,258,128.5V80.26Z" style="fill:none;stroke:#91c54f;stroke-miterlimit:10;stroke-width:3.86249780654907px"/><line x1="642" y1="198.47" x2="682.08" y2="198.47" style="fill:none;stroke:#c13018;stroke-miterlimit:10;stroke-width:3.856px"/><line x1="642" y1="188.1" x2="682.08" y2="188.1" style="fill:none;stroke:#c13018;stroke-miterlimit:10;stroke-width:3.856px"/><line x1="642" y1="177.73" x2="682.08" y2="177.73" style="fill:none;stroke:#c13018;stroke-miterlimit:10;stroke-width:3.856px"/><line x1="642" y1="167.36" x2="682.08" y2="167.36" style="fill:none;stroke:#c13018;stroke-miterlimit:10;stroke-width:3.856px"/><line x1="642" y1="156.99" x2="658.54" y2="156.99" style="fill:none;stroke:#c13018;stroke-miterlimit:10;stroke-width:3.856px"/><path d="M680,153.26a5.61,5.61,0,0,1-5.59-5.59V137.18H639.67a5.61,5.61,0,0,0-5.6,5.59V201.5a5.61,5.61,0,0,0,5.6,5.59h44.74A5.61,5.61,0,0,0,690,201.5V153.26Z" style="fill:none;stroke:#c13018;stroke-miterlimit:10;stroke-width:3.856px"/><rect x="335.12" y="139.95" width="104.21" height="73.51" rx="12" ry="12" style="fill:none;stroke:#3a5c84;stroke-miterlimit:10;stroke-width:5px"/><path d="M367.29,169.28a3.94,3.94,0,0,1-1.05,2.89.25.25,0,0,0-.05.27l1.29,2.7a.22.22,0,0,0,.24.14,3.92,3.92,0,0,1,4.2,3.78.25.25,0,0,0,.16.22l2.82,1H375a.2.2,0,0,0,.23-.08,3.78,3.78,0,0,1,.58-.55l0,0,.29-.2a1.67,1.67,0,0,1,.23-.12.24.24,0,0,1,.11-.06,3.75,3.75,0,0,1,1.5-.39,3.9,3.9,0,0,1,2.89,1,.2.2,0,0,0,.27,0l2.7-1.29h0a.22.22,0,0,0,.14-.23,3.89,3.89,0,0,1,2.5-3.93l.08,0,.15,0,.25-.08h0a3.66,3.66,0,0,1,.75-.1.26.26,0,0,0,.22-.17l1-2.82a.26.26,0,0,0-.07-.26,3.9,3.9,0,0,1-.3-5.64.23.23,0,0,0,0-.27l-.88-1.86h0l-.4-.84a.16.16,0,0,0-.07-.07h0l0,0a.13.13,0,0,0-.1,0h0a3.92,3.92,0,0,1-4.2-3.78.22.22,0,0,0-.16-.22l-2.82-1a.2.2,0,0,0-.26.07h0a4,4,0,0,1-.89.76l-.07,0-.26.14a3.9,3.9,0,0,1-4.41-.66.26.26,0,0,0-.27,0l-2.7,1.29a.23.23,0,0,0-.13.24,3.93,3.93,0,0,1-3.79,4.2.21.21,0,0,0-.22.16l-.69,1.95h0l-.31.88a.27.27,0,0,0,.07.27A3.9,3.9,0,0,1,367.29,169.28Zm6.13-4.77,0,0,.27-.22.19-.16L374,164a5.81,5.81,0,1,1,5.83,10l-.48.2h0a5.82,5.82,0,0,1-5.93-9.72Z" style="fill:#3a5c84"/><path d="M380.79,190.42a5,5,0,0,1-1.35,3.71.32.32,0,0,0-.06.35l1.66,3.46c.1.2.21.19.3.18a5,5,0,0,1,5.4,4.86.32.32,0,0,0,.2.28l3.63,1.28h.06a.24.24,0,0,0,.29-.11,4.58,4.58,0,0,1,.76-.7s0,0,0,0l.36-.25a2.19,2.19,0,0,1,.3-.16l.14-.08a5,5,0,0,1,5.64.86.27.27,0,0,0,.34,0l3.47-1.66h0a.3.3,0,0,0,.18-.3,5,5,0,0,1,1.28-3.73,5,5,0,0,1,1.92-1.32l.12-.05.19-.06.31-.09H406a5.26,5.26,0,0,1,1-.13.3.3,0,0,0,.28-.21l1.29-3.62a.32.32,0,0,0-.1-.34,5,5,0,0,1-.37-7.25.32.32,0,0,0,.05-.34L407,182.62h0l-.52-1.08a.34.34,0,0,0-.08-.09l0,0,0,0-.12,0h0a5,5,0,0,1-5.4-4.86.3.3,0,0,0-.21-.28L397,174.93a.28.28,0,0,0-.34.08h0a5.21,5.21,0,0,1-1.16,1l-.08,0-.34.19a4.91,4.91,0,0,1-1.95.51,5.06,5.06,0,0,1-3.71-1.36.32.32,0,0,0-.34,0L385.59,177a.32.32,0,0,0-.18.3,5,5,0,0,1-4.86,5.39.28.28,0,0,0-.28.21l-.89,2.51h0l-.4,1.13a.33.33,0,0,0,.09.34A5.06,5.06,0,0,1,380.79,190.42Zm7.88-6.13s0,0,.05,0l.34-.29c.09-.07.16-.14.25-.2l.11-.08a7.47,7.47,0,1,1,7.49,12.85,6.5,6.5,0,0,1-.61.25h0a7.47,7.47,0,0,1-7.61-12.49Z" style="fill:#3a5c84"/><path d="M386.21,157.1a2.67,2.67,0,0,1-.72,2,.17.17,0,0,0,0,.18l.88,1.84a.16.16,0,0,0,.16.1,2.65,2.65,0,0,1,2,.67,2.73,2.73,0,0,1,.89,1.9.17.17,0,0,0,.11.16l1.92.67h0a.14.14,0,0,0,.16-.06,2.34,2.34,0,0,1,.4-.37l0,0,.19-.13.16-.09.08,0a2.56,2.56,0,0,1,1-.26,2.63,2.63,0,0,1,2,.72.14.14,0,0,0,.18,0l1.84-.88h0a.16.16,0,0,0,.1-.16,2.62,2.62,0,0,1,.68-2,2.56,2.56,0,0,1,1-.7l.06,0,.1,0,.17-.05h0a2.25,2.25,0,0,1,.52-.07.17.17,0,0,0,.15-.11l.68-1.93a.16.16,0,0,0,0-.17,2.7,2.7,0,0,1-.92-1.88,2.64,2.64,0,0,1,.72-2,.19.19,0,0,0,0-.19l-.61-1.26h0l-.27-.57a.08.08,0,0,0-.05,0h0l0,0a.07.07,0,0,0-.06,0h0a2.65,2.65,0,0,1-2-.68,2.69,2.69,0,0,1-.89-1.9.16.16,0,0,0-.11-.15l-1.92-.68a.13.13,0,0,0-.18,0h0a2.8,2.8,0,0,1-.61.53l-.05,0-.18.1a2.62,2.62,0,0,1-1,.27,2.67,2.67,0,0,1-2-.72.15.15,0,0,0-.18,0l-1.84.88a.17.17,0,0,0-.1.16,2.67,2.67,0,0,1-2.58,2.86.16.16,0,0,0-.15.12l-.47,1.33h0l-.21.61a.18.18,0,0,0,.05.18A2.68,2.68,0,0,1,386.21,157.1Zm4.18-3.26,0,0,.18-.16a.69.69,0,0,0,.13-.11l.06,0a4,4,0,0,1,6,4.55,3.94,3.94,0,0,1-2.07,2.27l-.33.14h0a4,4,0,0,1-4-6.63Z" style="fill:#3a5c84"/><path d="M118.17,201.56c-.44.32-.89.63-1.34.92l-.62.4c-.59.37-1.19.72-1.81,1l-.4.21a32.9,32.9,0,0,1-4.37,1.85l-.16.05c-.78.26-1.57.49-2.38.69h0c-.82.2-1.64.37-2.46.5l-.07,0c-.78.12-1.56.21-2.34.28l-.42,0c-.78.06-1.56.1-2.34.1s-1.59,0-2.37-.1l-.41,0c-.79-.07-1.58-.16-2.36-.29l-.11,0A32.27,32.27,0,0,1,89.35,206L89.2,206c-.79-.27-1.57-.57-2.33-.9h0c-.72-.31-1.43-.66-2.13-1l-.27-.14c-.64-.35-1.27-.71-1.88-1.1l-.55-.35c-.57-.37-1.13-.76-1.67-1.17l-.17-.13.12-.06,9.89-5.4A5.3,5.3,0,0,0,93,191v-4.51l-.29-.34a21,21,0,0,1-3.75-7.78l-.12-.49-.42-.28a2.08,2.08,0,0,1-1-1.74v-4.43a2,2,0,0,1,.69-1.53l.41-.38v-7.13A7.56,7.56,0,0,1,90.25,157c1.81-2.06,4.91-3.11,9.21-3.11s7.37,1,9.18,3.09a7.66,7.66,0,0,1,1.77,5.48v7.13l.41.37a2,2,0,0,1,.7,1.53v4.43a2.1,2.1,0,0,1-1.48,2l-.62.19-.2.62a23.25,23.25,0,0,1-3.12,6.29,14.88,14.88,0,0,1-.92,1.19l-.31.36v4.62a5.26,5.26,0,0,0,2.92,4.73l10.59,5.3a1.24,1.24,0,0,1,.2.1Z" style="fill:none;stroke:#636868;stroke-miterlimit:10;stroke-width:5.236px"/><circle cx="99.38" cy="171.89" r="35.55" style="fill:none;stroke:#636868;stroke-miterlimit:10;stroke-width:5.236px"/><path d="M185.2,44.87l3.39-20h5.13l4.05,10.68,4.29-10.68h5.19l3,20h-5.19l-1.47-11.52-4.83,11.52h-2.07l-4.62-11.52-1.71,11.52Z"/><path d="M227.32,39.05h-10a3.39,3.39,0,0,0,.84,2.25,2.7,2.7,0,0,0,2,.66,3.79,3.79,0,0,0,1.56-.36,2.23,2.23,0,0,0,.84-.9h4.59a6,6,0,0,1-1.62,2.76c-1,1-2.55,1.86-5.46,1.86a7.61,7.61,0,0,1-5.55-2,7,7,0,0,1-2-5.07,7.16,7.16,0,0,1,2-5.19,7.55,7.55,0,0,1,5.49-2,7.35,7.35,0,0,1,5.16,1.83,7.51,7.51,0,0,1,2.13,5.64Zm-4.41-2.76a3.22,3.22,0,0,0-.78-1.44,2.8,2.8,0,0,0-2-.72,2.58,2.58,0,0,0-2,.72,2.74,2.74,0,0,0-.72,1.44Z"/><path d="M231,40.43a6.87,6.87,0,0,0,1.92,1,6.25,6.25,0,0,0,1.86.33,2,2,0,0,0,1.23-.36.77.77,0,0,0,.24-.63.71.71,0,0,0-.24-.6,3,3,0,0,0-1.26-.48l-1.26-.3a4.31,4.31,0,0,1-2.34-1.17,3.24,3.24,0,0,1-.87-2.31,4.79,4.79,0,0,1,1.26-3.27,6.77,6.77,0,0,1,4.8-1.62,11.07,11.07,0,0,1,4.29.87L239,34.94a6.64,6.64,0,0,0-2.52-.66,2,2,0,0,0-1.11.27.72.72,0,0,0-.42.66.78.78,0,0,0,.57.75c.45.18.84.18,1.59.39l.87.24a5.67,5.67,0,0,1,2,1,3.79,3.79,0,0,1,1,2.67,4.48,4.48,0,0,1-1.35,3.33,7,7,0,0,1-5,1.68,9.89,9.89,0,0,1-5.4-1.56Z"/><path d="M253.78,31.46h4.8V44.87h-4.8V43.4a5,5,0,0,1-4.17,1.92,6.42,6.42,0,0,1-4.83-2.13,6.76,6.76,0,0,1-1.92-4.92,7.42,7.42,0,0,1,2.07-5.37A6.9,6.9,0,0,1,249.76,31a5.31,5.31,0,0,1,4,1.74Zm-5,4.5a3.14,3.14,0,0,0-1,2.19,3.09,3.09,0,0,0,.93,2.19,3.37,3.37,0,0,0,2.16.9,3.08,3.08,0,0,0,2.16-.93,2.91,2.91,0,0,0,.9-2.16A3,3,0,0,0,253,36a3,3,0,0,0-4.26,0Z"/><path d="M264.28,23.18a2.7,2.7,0,1,1-2.7,2.7A2.69,2.69,0,0,1,264.28,23.18Zm2.4,8.28V51.74h-4.8V31.46Z"/><path d="M588.2,111.87l3.39-20h5.13l4,10.68,4.29-10.68h5.19l3,20h-5.19l-1.47-11.52-4.83,11.52h-2.07l-4.62-11.52-1.71,11.52Z"/><path d="M630.32,106.05h-10a3.39,3.39,0,0,0,.84,2.25,2.7,2.7,0,0,0,2,.66,3.79,3.79,0,0,0,1.56-.36,2.23,2.23,0,0,0,.84-.9h4.59a6,6,0,0,1-1.62,2.76c-1,1-2.55,1.86-5.46,1.86a7.61,7.61,0,0,1-5.55-2,7,7,0,0,1-2-5.07,7.16,7.16,0,0,1,2-5.19,7.55,7.55,0,0,1,5.49-2,7.35,7.35,0,0,1,5.16,1.83,7.51,7.51,0,0,1,2.13,5.64Zm-4.41-2.76a3.22,3.22,0,0,0-.78-1.44,2.8,2.8,0,0,0-2-.72,2.58,2.58,0,0,0-1.95.72,2.74,2.74,0,0,0-.72,1.44Z"/><path d="M634,107.43a6.87,6.87,0,0,0,1.92,1,6.25,6.25,0,0,0,1.86.33,2,2,0,0,0,1.23-.36.77.77,0,0,0,.24-.63.71.71,0,0,0-.24-.6,3,3,0,0,0-1.26-.48l-1.26-.3a4.31,4.31,0,0,1-2.34-1.17,3.24,3.24,0,0,1-.87-2.31,4.79,4.79,0,0,1,1.26-3.27,6.77,6.77,0,0,1,4.8-1.62,11.07,11.07,0,0,1,4.29.87L642,101.94a6.64,6.64,0,0,0-2.52-.66,2,2,0,0,0-1.11.27.72.72,0,0,0-.42.66.78.78,0,0,0,.57.75c.45.18.84.18,1.59.39l.87.24a5.67,5.67,0,0,1,2,1,3.79,3.79,0,0,1,1,2.67,4.48,4.48,0,0,1-1.35,3.33,7,7,0,0,1-5,1.68,9.89,9.89,0,0,1-5.4-1.56Z"/><path d="M656.78,98.46h4.8v13.41h-4.8V110.4a5,5,0,0,1-4.17,1.92,6.42,6.42,0,0,1-4.83-2.13,6.76,6.76,0,0,1-1.92-4.92,7.42,7.42,0,0,1,2.07-5.37A6.9,6.9,0,0,1,652.76,98a5.31,5.31,0,0,1,4,1.74Zm-5,4.5a3.14,3.14,0,0,0-1,2.19,3.09,3.09,0,0,0,.93,2.19,3.37,3.37,0,0,0,2.16.9,3.08,3.08,0,0,0,2.16-.93,2.91,2.91,0,0,0,.9-2.16A3,3,0,0,0,656,103a3,3,0,0,0-4.26,0Z"/><path d="M667.28,90.18a2.7,2.7,0,1,1-2.7,2.7A2.69,2.69,0,0,1,667.28,90.18Zm2.4,8.28v20.28h-4.8V98.46Z"/><path d="M690.08,111.57a7.12,7.12,0,0,1-3.33.75,7.41,7.41,0,0,1-5.28-2,7,7,0,0,1-2.07-5,7.3,7.3,0,0,1,2.16-5.19,7.73,7.73,0,0,1,5.4-2,6.88,6.88,0,0,1,3.12.75v4a4.28,4.28,0,0,0-2.49-.87,3.15,3.15,0,0,0-2.34.93,3.26,3.26,0,0,0-.93,2.31,3.44,3.44,0,0,0,.84,2.25,3.26,3.26,0,0,0,2.46,1,3.63,3.63,0,0,0,2.46-.9Z"/><path d="M692.81,98.46h4.8v2.19a4.33,4.33,0,0,1,1.89-1.86,5.24,5.24,0,0,1,2.49-.54l1,.06v4.53a4.23,4.23,0,0,0-2.07-.48,3.14,3.14,0,0,0-2.19.72,4,4,0,0,0-1.08,3.06v5.73h-4.8Z"/><path d="M707.48,90.18a2.7,2.7,0,1,1-2.7,2.7A2.69,2.69,0,0,1,707.48,90.18Zm2.4,8.28v13.41h-4.8V98.46Z"/><path d="M718,118.74h-4.8V98.46H718v1.47A5,5,0,0,1,722.06,98a6.67,6.67,0,0,1,4.77,1.95,7.61,7.61,0,0,1-.12,10.5,6.44,6.44,0,0,1-4.59,1.86,5.71,5.71,0,0,1-4.17-1.74Zm.78-15.75a3.27,3.27,0,0,0-.93,2.22,3.24,3.24,0,0,0,.93,2.13,3.07,3.07,0,0,0,2.16.9,2.9,2.9,0,0,0,2.13-.9,3.17,3.17,0,0,0,.93-2.13A3.27,3.27,0,0,0,723,103a2.9,2.9,0,0,0-2.13-.9A3.07,3.07,0,0,0,718.73,103Z"/><path d="M736.94,102.39v9.48h-4.8v-9.48h-1.53V98.46h1.53V94.05h4.8v4.41h2.73v3.93Z"/><path d="M751.85,98.46h4.8v13.41h-4.8V110.4a5,5,0,0,1-4.17,1.92,6.42,6.42,0,0,1-4.83-2.13,6.76,6.76,0,0,1-1.92-4.92A7.42,7.42,0,0,1,743,99.9,6.9,6.9,0,0,1,747.83,98a5.31,5.31,0,0,1,4,1.74Zm-5,4.5a3.14,3.14,0,0,0-1,2.19,3.09,3.09,0,0,0,.93,2.19,3.37,3.37,0,0,0,2.16.9,3.08,3.08,0,0,0,2.16-.93,2.91,2.91,0,0,0,.9-2.16,3,3,0,0,0-.93-2.19,3,3,0,0,0-4.26,0Z"/><path d="M765.26,102.39v9.48h-4.8v-9.48h-1.53V98.46h1.53V94.05h4.8v4.41H768v3.93Z"/><path d="M292.82,587.83a14.38,14.38,0,0,1-5.25,1.16,12.69,12.69,0,0,1-9-3.5A12.24,12.24,0,0,1,275,577a12.52,12.52,0,0,1,3.54-8.61,12.38,12.38,0,0,1,8.82-3.64,14.57,14.57,0,0,1,5.46,1.19v7.25a6.5,6.5,0,0,0-5.29-2.56,5.93,5.93,0,0,0-4.2,1.54,6.54,6.54,0,0,0-2,4.8,6.47,6.47,0,0,0,1.89,4.55,6.56,6.56,0,0,0,4.34,1.61,6.88,6.88,0,0,0,5.29-2.45Z"/><path d="M296.14,563h5.6v11.83a6.73,6.73,0,0,1,1.75-1.54,6.31,6.31,0,0,1,3.22-.77,6.22,6.22,0,0,1,4.62,1.68,5.45,5.45,0,0,1,1.47,4.37v9.94h-5.6v-7.91a4.65,4.65,0,0,0-.7-3,2.19,2.19,0,0,0-1.78-.67,3,3,0,0,0-2,.67,3.39,3.39,0,0,0-.95,2.55v8.4h-5.6Z"/><path d="M332.51,581.67H320.85a4,4,0,0,0,1,2.63,3.15,3.15,0,0,0,2.31.77,4.51,4.51,0,0,0,1.82-.42,2.57,2.57,0,0,0,1-1h5.36a7.15,7.15,0,0,1-1.89,3.22c-1.16,1.12-3,2.17-6.37,2.17a8.9,8.9,0,0,1-6.48-2.38,8.23,8.23,0,0,1-2.31-5.92,8.33,8.33,0,0,1,2.35-6.05,8.79,8.79,0,0,1,6.4-2.28,8.57,8.57,0,0,1,6,2.14,8.75,8.75,0,0,1,2.49,6.58Zm-5.15-3.22a3.78,3.78,0,0,0-.91-1.68,3.28,3.28,0,0,0-2.31-.84,3,3,0,0,0-2.27.84,3.12,3.12,0,0,0-.84,1.68Z"/><path d="M338.53,563.16a3.15,3.15,0,1,1-3.15,3.15A3.14,3.14,0,0,1,338.53,563.16Zm2.8,9.66v15.64h-5.6V572.82Z"/><path d="M361.73,581.67H350.08a4,4,0,0,0,1,2.63,3.15,3.15,0,0,0,2.31.77,4.51,4.51,0,0,0,1.82-.42,2.64,2.64,0,0,0,1-1h5.35a7,7,0,0,1-1.89,3.22c-1.15,1.12-3,2.17-6.37,2.17a8.88,8.88,0,0,1-6.47-2.38,8.19,8.19,0,0,1-2.31-5.92,8.36,8.36,0,0,1,2.34-6.05,8.83,8.83,0,0,1,6.41-2.28,8.58,8.58,0,0,1,6,2.14,8.77,8.77,0,0,1,2.48,6.58Zm-5.14-3.22a3.78,3.78,0,0,0-.91-1.68,3.29,3.29,0,0,0-2.31-.84,3,3,0,0,0-2.28.84,3.27,3.27,0,0,0-.84,1.68Z"/><path d="M374.12,583.28a8.09,8.09,0,0,0,2.24,1.16,7.41,7.41,0,0,0,2.17.38,2.33,2.33,0,0,0,1.43-.42.87.87,0,0,0,.28-.73.81.81,0,0,0-.28-.7,3.43,3.43,0,0,0-1.47-.56l-1.47-.35a5.08,5.08,0,0,1-2.73-1.37,3.79,3.79,0,0,1-1-2.69,5.57,5.57,0,0,1,1.47-3.82,7.92,7.92,0,0,1,5.6-1.89,12.73,12.73,0,0,1,5,1l-1.89,3.57a7.72,7.72,0,0,0-2.94-.77,2.35,2.35,0,0,0-1.29.31.84.84,0,0,0-.49.77.91.91,0,0,0,.66.88c.53.21,1,.21,1.86.45l1,.28a6.45,6.45,0,0,1,2.31,1.23,4.42,4.42,0,0,1,1.2,3.11A5.25,5.25,0,0,1,384.2,587c-1.82,1.82-4.48,2-5.78,2a11.6,11.6,0,0,1-6.3-1.82Z"/><path d="M405.24,581.67H393.58a4,4,0,0,0,1,2.63,3.15,3.15,0,0,0,2.31.77,4.51,4.51,0,0,0,1.82-.42,2.64,2.64,0,0,0,1-1H405a7.09,7.09,0,0,1-1.9,3.22c-1.15,1.12-3,2.17-6.37,2.17a8.88,8.88,0,0,1-6.47-2.38,8.19,8.19,0,0,1-2.31-5.92,8.36,8.36,0,0,1,2.34-6.05,8.83,8.83,0,0,1,6.41-2.28,8.58,8.58,0,0,1,6,2.14,8.75,8.75,0,0,1,2.49,6.58Zm-5.15-3.22a3.78,3.78,0,0,0-.91-1.68,3.29,3.29,0,0,0-2.31-.84,3,3,0,0,0-2.28.84,3.27,3.27,0,0,0-.84,1.68Z"/><path d="M420.28,588.11a8.24,8.24,0,0,1-3.88.88,8.65,8.65,0,0,1-6.16-2.38,8.21,8.21,0,0,1-2.42-5.85,8.53,8.53,0,0,1,2.52-6,9,9,0,0,1,6.3-2.38,8,8,0,0,1,3.64.87v4.69a5,5,0,0,0-2.9-1,3.67,3.67,0,0,0-2.73,1.08,3.83,3.83,0,0,0-1.09,2.7,4,4,0,0,0,1,2.62,3.82,3.82,0,0,0,2.87,1.19,4.2,4.2,0,0,0,2.87-1.05Z"/><path d="M423.47,572.82h5.6v2.55a5,5,0,0,1,2.2-2.17,6.19,6.19,0,0,1,2.91-.63c.14,0,.38,0,1.12.07v5.29a5,5,0,0,0-2.42-.56,3.63,3.63,0,0,0-2.55.84,4.72,4.72,0,0,0-1.26,3.57v6.68h-5.6Z"/><path d="M454.37,581.67H442.72a4,4,0,0,0,1,2.63,3.15,3.15,0,0,0,2.31.77,4.51,4.51,0,0,0,1.82-.42,2.64,2.64,0,0,0,1-1h5.35a7,7,0,0,1-1.89,3.22c-1.15,1.12-3,2.17-6.37,2.17a8.88,8.88,0,0,1-6.47-2.38,8.19,8.19,0,0,1-2.31-5.92,8.36,8.36,0,0,1,2.34-6.05,8.83,8.83,0,0,1,6.41-2.28,8.58,8.58,0,0,1,6,2.14,8.77,8.77,0,0,1,2.48,6.58Zm-5.14-3.22a3.78,3.78,0,0,0-.91-1.68,3.29,3.29,0,0,0-2.31-.84,3,3,0,0,0-2.28.84,3.27,3.27,0,0,0-.84,1.68Z"/><path d="M463.79,577.4v11.06h-5.6V577.4H456.4v-4.58h1.79v-5.15h5.6v5.15H467v4.58Z"/><path d="M481.18,572.82h5.6v15.64h-5.6v-1.71a5.84,5.84,0,0,1-4.86,2.24,7.49,7.49,0,0,1-5.64-2.49,7.9,7.9,0,0,1-2.24-5.74,8.64,8.64,0,0,1,2.42-6.26,8,8,0,0,1,5.63-2.21,6.2,6.2,0,0,1,4.69,2Zm3.08-8.05a5.46,5.46,0,0,1-1.54,3.81,7.34,7.34,0,0,1-9.1,0,5.55,5.55,0,0,1-1.54-3.81h3.61a2.4,2.4,0,0,0,.7,1.43,2.84,2.84,0,0,0,3.57,0,2.4,2.4,0,0,0,.7-1.43Zm-9,13.3a3.51,3.51,0,0,0,0,5.11,3.91,3.91,0,0,0,2.52,1.05,3.6,3.6,0,0,0,2.52-1.09,3.4,3.4,0,0,0,1.05-2.52,3.45,3.45,0,0,0-1.09-2.55,3.54,3.54,0,0,0-5,0Z"/><circle cx="409.61" cy="461.97" r="17.47" style="fill:none;stroke:#f7931f;stroke-miterlimit:10;stroke-width:6.11437784099579px"/><rect x="337.98" y="498.65" width="72.49" height="5.24" rx="1.51" ry="1.51" transform="translate(-244.84 411.44) rotate(-45)" style="fill:#f7931f"/><rect x="356.76" y="517.43" width="3.49" height="14.85" rx="1.01" ry="1.01" transform="translate(-266.12 407.23) rotate(-45)" style="fill:#f7931f"/><rect x="363.2" y="511.69" width="3.49" height="18.23" rx="1.01" ry="1.01" transform="translate(-261.38 410.6) rotate(-45)" style="fill:#f7931f"/><rect x="368.88" y="506.01" width="3.49" height="18.23" rx="1.01" ry="1.01" transform="translate(-255.7 412.95) rotate(-45)" style="fill:#f7931f"/><path d="M327.5,246.24v6.63h-5.19v-20h8.28a6.89,6.89,0,0,1,5.07,1.8,6.2,6.2,0,0,1,1.86,4.86,6.5,6.5,0,0,1-1.77,5,6.66,6.66,0,0,1-5,1.74Zm0-4.2h1.74a3.39,3.39,0,0,0,2.19-.63,2.29,2.29,0,0,0,.66-1.83,2.43,2.43,0,0,0-.6-1.8,3,3,0,0,0-2.22-.72H327.5Z"/><path d="M339.83,239.46h4.8v2.19a4.33,4.33,0,0,1,1.89-1.86,5.24,5.24,0,0,1,2.49-.54l1,.06v4.53a4.23,4.23,0,0,0-2.07-.48,3.14,3.14,0,0,0-2.19.72,4,4,0,0,0-1.08,3.06v5.73h-4.8Z"/><path d="M365,251.1a9.18,9.18,0,0,1-12,0,6.92,6.92,0,0,1,0-9.87,8.37,8.37,0,0,1,6-2.22,8.47,8.47,0,0,1,6,2.22,6.92,6.92,0,0,1,0,9.87ZM356.87,244a3.06,3.06,0,0,0,2.16,5.22,3.05,3.05,0,0,0,2.13-.9,3,3,0,0,0,.93-2.13,3.26,3.26,0,0,0-.93-2.19,3.08,3.08,0,0,0-4.29,0Z"/><path d="M380,252.57a7.12,7.12,0,0,1-3.33.75,7.41,7.41,0,0,1-5.28-2,7,7,0,0,1-2.07-5,7.3,7.3,0,0,1,2.16-5.19,7.73,7.73,0,0,1,5.4-2,6.88,6.88,0,0,1,3.12.75v4a4.28,4.28,0,0,0-2.49-.87,3.15,3.15,0,0,0-2.34.93,3.26,3.26,0,0,0-.93,2.31,3.44,3.44,0,0,0,.84,2.25,3.26,3.26,0,0,0,2.46,1,3.63,3.63,0,0,0,2.46-.9Z"/><path d="M396.91,247.05h-10a3.39,3.39,0,0,0,.84,2.25,2.68,2.68,0,0,0,2,.66,3.79,3.79,0,0,0,1.56-.36,2.3,2.3,0,0,0,.84-.9h4.58a6,6,0,0,1-1.62,2.76c-1,1-2.55,1.86-5.45,1.86a7.61,7.61,0,0,1-5.55-2,7,7,0,0,1-2-5.07,7.16,7.16,0,0,1,2-5.19,7.55,7.55,0,0,1,5.49-2,7.32,7.32,0,0,1,5.15,1.83,7.51,7.51,0,0,1,2.13,5.64Zm-4.41-2.76a3.3,3.3,0,0,0-.77-1.44,2.8,2.8,0,0,0-2-.72,2.62,2.62,0,0,0-2,.72,2.8,2.8,0,0,0-.71,1.44Z"/><path d="M400.55,248.43a6.87,6.87,0,0,0,1.92,1,6.19,6.19,0,0,0,1.86.33,2.05,2.05,0,0,0,1.23-.36.76.76,0,0,0,.23-.63.7.7,0,0,0-.23-.6,3.09,3.09,0,0,0-1.27-.48l-1.25-.3a4.31,4.31,0,0,1-2.34-1.17,3.24,3.24,0,0,1-.87-2.31,4.79,4.79,0,0,1,1.26-3.27,6.77,6.77,0,0,1,4.8-1.62,11,11,0,0,1,4.28.87l-1.61,3.06a6.64,6.64,0,0,0-2.52-.66,2,2,0,0,0-1.11.27.73.73,0,0,0-.43.66.78.78,0,0,0,.58.75c.44.18.84.18,1.59.39l.87.24a5.67,5.67,0,0,1,2,1,3.83,3.83,0,0,1,1,2.67,4.52,4.52,0,0,1-1.34,3.33,7,7,0,0,1-4.95,1.68,9.89,9.89,0,0,1-5.4-1.56Z"/><path d="M435.16,252.87h-4.8V251.4a4.92,4.92,0,0,1-4.05,1.92,6.42,6.42,0,0,1-4.71-1.86,7.4,7.4,0,0,1-2.16-5.34,7.31,7.31,0,0,1,2.19-5.31,6.86,6.86,0,0,1,4.74-1.8,5.31,5.31,0,0,1,4,1.74V231h4.8Zm-5.67-4.44a3.22,3.22,0,0,0,1-2.28,3.51,3.51,0,0,0-.9-2.16,3.08,3.08,0,0,0-4.32,0,3.29,3.29,0,0,0-.93,2.28,3,3,0,0,0,.93,2.1,3,3,0,0,0,2.13.9A3.28,3.28,0,0,0,429.49,248.43Z"/><path d="M452.68,247.05h-10a3.39,3.39,0,0,0,.84,2.25,2.7,2.7,0,0,0,2,.66,3.79,3.79,0,0,0,1.56-.36,2.23,2.23,0,0,0,.84-.9h4.59a6,6,0,0,1-1.62,2.76c-1,1-2.55,1.86-5.46,1.86a7.61,7.61,0,0,1-5.55-2,7,7,0,0,1-2-5.07,7.16,7.16,0,0,1,2-5.19,7.55,7.55,0,0,1,5.49-2,7.35,7.35,0,0,1,5.16,1.83,7.51,7.51,0,0,1,2.13,5.64Zm-4.41-2.76a3.22,3.22,0,0,0-.78-1.44,2.8,2.8,0,0,0-2-.72,2.58,2.58,0,0,0-1.95.72,2.74,2.74,0,0,0-.72,1.44Z"/><path d="M344.16,288.57a7.12,7.12,0,0,1-3.33.75,7.41,7.41,0,0,1-5.28-2,7,7,0,0,1-2.07-5,7.3,7.3,0,0,1,2.16-5.19,7.73,7.73,0,0,1,5.4-2,6.88,6.88,0,0,1,3.12.75v4a4.28,4.28,0,0,0-2.49-.87,3.15,3.15,0,0,0-2.34.93,3.26,3.26,0,0,0-.93,2.31,3.44,3.44,0,0,0,.84,2.25,3.26,3.26,0,0,0,2.46,1,3.63,3.63,0,0,0,2.46-.9Z"/><path d="M346.89,275.46h4.8v2.19a4.33,4.33,0,0,1,1.89-1.86,5.24,5.24,0,0,1,2.49-.54l1,.06v4.53a4.23,4.23,0,0,0-2.07-.48,3.14,3.14,0,0,0-2.19.72,4,4,0,0,0-1.08,3.06v5.73h-4.8Z"/><path d="M361.56,267.18a2.7,2.7,0,1,1-2.7,2.7A2.69,2.69,0,0,1,361.56,267.18Zm2.4,8.28v13.41h-4.8V275.46Z"/><path d="M372,295.74h-4.8V275.46H372v1.47a5,5,0,0,1,4.11-1.92,6.67,6.67,0,0,1,4.77,1.95,7.61,7.61,0,0,1-.12,10.5,6.44,6.44,0,0,1-4.59,1.86,5.71,5.71,0,0,1-4.17-1.74Zm.78-15.75a3.27,3.27,0,0,0-.93,2.22,3.24,3.24,0,0,0,.93,2.13,3.07,3.07,0,0,0,2.16.9,2.9,2.9,0,0,0,2.13-.9,3.17,3.17,0,0,0,.93-2.13,3.27,3.27,0,0,0-.93-2.22,2.9,2.9,0,0,0-2.13-.9A3.07,3.07,0,0,0,372.81,280Z"/><path d="M391,279.39v9.48h-4.8v-9.48h-1.53v-3.93h1.53v-4.41H391v4.41h2.73v3.93Z"/><path d="M405.93,275.46h4.8v13.41h-4.8V287.4a5,5,0,0,1-4.17,1.92,6.42,6.42,0,0,1-4.83-2.13,6.76,6.76,0,0,1-1.92-4.92,7.42,7.42,0,0,1,2.07-5.37,6.9,6.9,0,0,1,4.83-1.89,5.31,5.31,0,0,1,4,1.74Zm-5,4.5a3.14,3.14,0,0,0-1,2.19,3.09,3.09,0,0,0,.93,2.19,3.37,3.37,0,0,0,2.16.9,3.08,3.08,0,0,0,2.16-.93,2.91,2.91,0,0,0,.9-2.16,3,3,0,0,0-.93-2.19,3,3,0,0,0-4.26,0Z"/><path d="M414,275.46h4.8v2.19a4.33,4.33,0,0,1,1.89-1.86,5.24,5.24,0,0,1,2.49-.54l1,.06v4.53a4.23,4.23,0,0,0-2.07-.48,3.14,3.14,0,0,0-2.19.72,4,4,0,0,0-1.08,3.06v5.73H414Z"/><path d="M440.52,283.05h-10a3.39,3.39,0,0,0,.84,2.25,2.7,2.7,0,0,0,2,.66,3.79,3.79,0,0,0,1.56-.36,2.23,2.23,0,0,0,.84-.9h4.59a6,6,0,0,1-1.62,2.76c-1,1-2.55,1.86-5.46,1.86a7.61,7.61,0,0,1-5.55-2,7,7,0,0,1-2-5.07,7.16,7.16,0,0,1,2-5.19,7.55,7.55,0,0,1,5.49-1.95,7.35,7.35,0,0,1,5.16,1.83,7.51,7.51,0,0,1,2.13,5.64Zm-4.41-2.76a3.22,3.22,0,0,0-.78-1.44,2.8,2.8,0,0,0-2-.72,2.58,2.58,0,0,0-2,.72,2.74,2.74,0,0,0-.72,1.44Z"/></svg>