<svg id="Layer_1" data-name="Layer 1" xmlns="http://www.w3.org/2000/svg" viewBox="0 0 1178 329"><title>Capitolul12</title><path d="M86.41,105.4l-.56.38-.27.17c-.25.16-.5.3-.76.44l-.17.09a14.93,14.93,0,0,1-1.84.78l-.07,0c-.33.11-.66.21-1,.29h0a9.58,9.58,0,0,1-1,.21h0q-.49.08-1,.12h-.17c-.33,0-.66,0-1,0s-.67,0-1,0h-.17c-.34,0-.67-.07-1-.12h0a14,14,0,0,1-2-.51l-.07,0c-.33-.11-.66-.23-1-.37h0l-.9-.43-.11-.06c-.27-.15-.53-.3-.79-.47l-.23-.14c-.24-.16-.48-.32-.71-.5l-.07,0,0,0,4.17-2.27a2.22,2.22,0,0,0,1.16-2v-1.9l-.12-.15a8.8,8.8,0,0,1-1.58-3.28l0-.21-.18-.11a.89.89,0,0,1-.4-.74V92.7a.85.85,0,0,1,.29-.64l.17-.16v-3a3.16,3.16,0,0,1,.74-2.3,5,5,0,0,1,3.88-1.31,4.93,4.93,0,0,1,3.87,1.3,3.2,3.2,0,0,1,.75,2.31v3l.18.16a.86.86,0,0,1,.29.65v1.87a.89.89,0,0,1-.62.83l-.26.08-.09.26a9.78,9.78,0,0,1-1.31,2.65c-.14.2-.28.37-.39.5l-.13.15v2A2.22,2.22,0,0,0,82,103l4.46,2.23.09,0C86.52,105.32,86.46,105.35,86.41,105.4Z" style="fill:none;stroke:#636868;stroke-miterlimit:10;stroke-width:2.20792910940302px"/><circle cx="78.49" cy="93.73" r="14.99" style="fill:none;stroke:#636868;stroke-miterlimit:10;stroke-width:2.20792910940302px"/><circle cx="76.95" cy="185.74" r="14.99" style="fill:none;stroke:#636868;stroke-miterlimit:10;stroke-width:2.20792910940302px"/><path d="M84.87,149.87l-.56.39-.26.17c-.25.15-.5.3-.76.43l-.17.09a12.85,12.85,0,0,1-1.84.78l-.07,0c-.33.11-.67.21-1,.29h0c-.34.09-.69.16-1,.22h0q-.49.08-1,.12H78c-.32,0-.65.05-1,.05s-.67,0-1-.05h-.18q-.5,0-1-.12h0a14.62,14.62,0,0,1-2-.51l-.06,0c-.33-.12-.66-.24-1-.38h0c-.3-.13-.6-.28-.9-.43l-.11-.06c-.27-.15-.54-.3-.8-.46l-.23-.15-.7-.49-.07-.06,0,0,4.17-2.27a2.22,2.22,0,0,0,1.16-2v-1.9l-.12-.15a8.81,8.81,0,0,1-1.58-3.27l-.05-.21-.18-.12a.88.88,0,0,1-.41-.73v-1.87a.87.87,0,0,1,.3-.65l.17-.16v-3a3.13,3.13,0,0,1,.73-2.3A5,5,0,0,1,77,129.76a5,5,0,0,1,3.87,1.3,3.18,3.18,0,0,1,.74,2.31v3l.17.15a.87.87,0,0,1,.3.65v1.87a.9.9,0,0,1-.63.83l-.26.08-.08.26a9.67,9.67,0,0,1-1.32,2.65,4.89,4.89,0,0,1-.39.5l-.13.15v1.95a2.23,2.23,0,0,0,1.24,2L85,149.7l.09,0Z" style="fill:none;stroke:#636868;stroke-miterlimit:10;stroke-width:2.20792910940302px"/><path d="M74.2,146.54l-.35.24-.16.11-.47.27-.11.05a9.54,9.54,0,0,1-1.14.49h0q-.32.1-.63.18h0c-.21.05-.43.1-.64.13h0l-.61.07h-.11l-.61,0-.63,0h-.1A6.17,6.17,0,0,1,68,148h0a7.87,7.87,0,0,1-1.27-.32h0l-.61-.23h0l-.56-.26-.07,0-.5-.29-.14-.09-.44-.3,0,0,0,0L66.88,145a1.37,1.37,0,0,0,.72-1.21v-1.18l-.07-.09a5.44,5.44,0,0,1-1-2l0-.13-.11-.07a.53.53,0,0,1-.25-.46v-1.16a.57.57,0,0,1,.18-.4l.11-.09V136.3a2,2,0,0,1,.45-1.43,3.11,3.11,0,0,1,2.42-.81,3.08,3.08,0,0,1,2.4.81,2,2,0,0,1,.46,1.43v1.87l.11.09a.57.57,0,0,1,.18.4v1.16a.55.55,0,0,1-.39.52l-.16,0,0,.16A6.21,6.21,0,0,1,71,142.2a3.08,3.08,0,0,1-.24.31l-.08.09v1.21a1.37,1.37,0,0,0,.76,1.24l2.78,1.39a1.29,1.29,0,0,0,0-.21S74.24,146.52,74.2,146.54Z" style="fill:none;stroke:#636868;stroke-miterlimit:10;stroke-width:1.37036711116449px"/><path d="M89.54,146.54l-.35.24-.17.11-.47.27-.11.05a8.32,8.32,0,0,1-1.14.49h0a6.32,6.32,0,0,1-.62.18h0c-.22.05-.43.1-.65.13h0l-.62.07h-.11l-.61,0-.62,0h-.11c-.2,0-.41,0-.62-.08h0A8,8,0,0,1,82,147.7h0l-.61-.23h0l-.56-.26-.07,0c-.17-.09-.33-.19-.49-.29l-.14-.09-.44-.3,0,0,0,0L82.22,145a1.39,1.39,0,0,0,.72-1.21v-1.18l-.08-.09a5.5,5.5,0,0,1-1-2l0-.13-.11-.07a.53.53,0,0,1-.25-.46v-1.16a.53.53,0,0,1,.18-.4l.11-.09V136.3a2,2,0,0,1,.46-1.43,4,4,0,0,1,4.81,0,2,2,0,0,1,.47,1.43v1.87l.11.09a.53.53,0,0,1,.18.4v1.16a.54.54,0,0,1-.38.52l-.16,0-.06.16a6.18,6.18,0,0,1-.81,1.65c-.09.12-.17.23-.24.31l-.09.09v1.21a1.38,1.38,0,0,0,.77,1.24l2.77,1.39,0,0Z" style="fill:none;stroke:#636868;stroke-miterlimit:10;stroke-width:1.37036711116449px"/><circle cx="76.95" cy="138.2" r="14.99" style="fill:none;stroke:#636868;stroke-miterlimit:10;stroke-width:2.20792910940302px"/><rect x="38.53" y="20" width="801.64" height="193.68" rx="12" ry="12" style="fill:none;stroke:#4fc2c9;stroke-miterlimit:10;stroke-width:4.60448891437667px"/><line x1="232.12" y1="20.32" x2="232.18" y2="213.68" style="fill:none;stroke:#4fc2c9;stroke-miterlimit:10;stroke-width:2.00143044176329px"/><line x1="449.67" y1="20" x2="449.67" y2="214" style="fill:none;stroke:#4fc2c9;stroke-miterlimit:10;stroke-width:1.83116168542465px"/><line x1="667.23" y1="20" x2="667.23" y2="214" style="fill:none;stroke:#4fc2c9;stroke-miterlimit:10;stroke-width:1.83116168542465px"/><line x1="38.53" y1="117" x2="839.82" y2="117" style="fill:none;stroke:#4fc2c9;stroke-miterlimit:10;stroke-width:2.07857143878937px"/><line x1="38.53" y1="71.85" x2="839.82" y2="71.85" style="fill:none;stroke:#4fc2c9;stroke-miterlimit:10;stroke-width:2.07857143878937px"/><line x1="37.84" y1="162.16" x2="839.82" y2="162.16" style="fill:none;stroke:#4fc2c9;stroke-miterlimit:10;stroke-width:2.07857143878937px"/><path d="M309.48,53.89a9.87,9.87,0,0,1-3.63.8,8.79,8.79,0,0,1-6.26-2.43,8.45,8.45,0,0,1-2.45-5.89,8.5,8.5,0,0,1,8.56-8.49,9.88,9.88,0,0,1,3.78.83v5A4.47,4.47,0,0,0,305.82,42,4.12,4.12,0,0,0,302.91,43a4.57,4.57,0,0,0-1.41,3.33,4.46,4.46,0,0,0,1.31,3.15,4.56,4.56,0,0,0,3,1.12,4.77,4.77,0,0,0,3.66-1.7Z"/><path d="M313.73,36.79A2.19,2.19,0,1,1,311.54,39,2.17,2.17,0,0,1,313.73,36.79Zm1.94,6.7V54.33h-3.88V43.49Z"/><path d="M322.6,46.66v7.67h-3.88V46.66h-1.24V43.49h1.24V39.92h3.88v3.57h2.21v3.17Z"/><path d="M328.2,36.79A2.19,2.19,0,1,1,326,39,2.17,2.17,0,0,1,328.2,36.79Zm1.94,6.7V54.33h-3.88V43.49Z"/><path d="M332.79,43.49h3.88v1.77a3.45,3.45,0,0,1,1.52-1.51,4.34,4.34,0,0,1,2-.43l.77,0V47a3.33,3.33,0,0,0-1.67-.39,2.54,2.54,0,0,0-1.77.58,3.24,3.24,0,0,0-.87,2.47v4.64h-3.88Z"/><path d="M354.2,49.62h-8.08a2.75,2.75,0,0,0,.68,1.82,2.21,2.21,0,0,0,1.6.53,3,3,0,0,0,1.26-.29,1.76,1.76,0,0,0,.68-.72h3.71a4.93,4.93,0,0,1-1.31,2.23,5.91,5.91,0,0,1-4.41,1.5A6.18,6.18,0,0,1,343.84,53a5.69,5.69,0,0,1-1.6-4.1,5.75,5.75,0,0,1,1.63-4.19,6.07,6.07,0,0,1,4.44-1.58,6,6,0,0,1,4.17,1.48,6.06,6.06,0,0,1,1.72,4.56Zm-3.57-2.23a2.45,2.45,0,0,0-.63-1.16,2.27,2.27,0,0,0-1.6-.59,2.05,2.05,0,0,0-1.57.59,2.25,2.25,0,0,0-.59,1.16Z"/><path d="M365.45,58.89a16,16,0,0,1-2.38-5.44,20.32,20.32,0,0,1-.7-5.67,21.37,21.37,0,0,1,.9-6.36,22.16,22.16,0,0,1,2.18-4.77l2.74,1.45a20.42,20.42,0,0,0-1.79,4.39,22.46,22.46,0,0,0-.68,5.17,25.37,25.37,0,0,0,.58,5,16.73,16.73,0,0,0,1.89,4.75Z"/><path d="M370.66,43.49h3.88v1.77a3.52,3.52,0,0,1,1.53-1.51,4.3,4.3,0,0,1,2-.43l.78,0V47a3.37,3.37,0,0,0-1.67-.39,2.52,2.52,0,0,0-1.77.58,3.25,3.25,0,0,0-.88,2.47v4.64h-3.88Z"/><path d="M380.39,57.43a17,17,0,0,0,1.89-4.75,26.14,26.14,0,0,0,.58-5,22.46,22.46,0,0,0-.68-5.17,21,21,0,0,0-1.79-4.39l2.74-1.45a22.16,22.16,0,0,1,2.18,4.77,21.86,21.86,0,0,1,.9,6.38,19.89,19.89,0,0,1-.71,5.65,16,16,0,0,1-2.37,5.44Z"/><path d="M499.6,49.48a5.68,5.68,0,0,0,3.71,1.65,2.11,2.11,0,0,0,1.62-.56,1.44,1.44,0,0,0,.42-1,1.27,1.27,0,0,0-.47-1,5.59,5.59,0,0,0-2.08-.85l-1.09-.34a5.25,5.25,0,0,1-2.33-1.31,4,4,0,0,1-.92-2.86,5.29,5.29,0,0,1,1.48-3.91,5.7,5.7,0,0,1,4.14-1.52,11.39,11.39,0,0,1,5,1.31l-1.67,3.27a4.31,4.31,0,0,0-2.77-1.09,2,2,0,0,0-1.38.48,1.22,1.22,0,0,0-.41.88,1.1,1.1,0,0,0,.21.72,2.69,2.69,0,0,0,1.41.73l1.29.39a6.13,6.13,0,0,1,2.93,1.6A3.8,3.8,0,0,1,509.74,49,5.48,5.48,0,0,1,508.21,53a6.3,6.3,0,0,1-4.78,1.65,8.79,8.79,0,0,1-3.18-.53,11.64,11.64,0,0,1-2.45-1.29Z"/><path d="M520.21,54.08a5.74,5.74,0,0,1-2.69.61A6,6,0,0,1,513.25,53a5.66,5.66,0,0,1-1.67-4,5.92,5.92,0,0,1,1.74-4.2,6.3,6.3,0,0,1,4.37-1.64,5.6,5.6,0,0,1,2.52.6V47a3.49,3.49,0,0,0-2-.7,2.52,2.52,0,0,0-1.89.75,2.62,2.62,0,0,0-.76,1.87,2.81,2.81,0,0,0,.68,1.82,2.65,2.65,0,0,0,2,.82,2.92,2.92,0,0,0,2-.73Z"/><path d="M522.42,43.49h3.88v1.77a3.45,3.45,0,0,1,1.52-1.51,4.34,4.34,0,0,1,2-.43l.77,0V47a3.33,3.33,0,0,0-1.67-.39,2.54,2.54,0,0,0-1.77.58,3.24,3.24,0,0,0-.87,2.47v4.64h-3.88Z"/><path d="M534.27,36.79A2.19,2.19,0,1,1,532.09,39,2.17,2.17,0,0,1,534.27,36.79Zm1.94,6.7V54.33h-3.88V43.49Z"/><path d="M550.35,49.62h-8.07a2.75,2.75,0,0,0,.68,1.82,2.17,2.17,0,0,0,1.6.53,3,3,0,0,0,1.26-.29,1.83,1.83,0,0,0,.68-.72h3.71a4.93,4.93,0,0,1-1.31,2.23,5.92,5.92,0,0,1-4.42,1.5A6.15,6.15,0,0,1,540,53a5.65,5.65,0,0,1-1.6-4.1A5.79,5.79,0,0,1,540,44.75a6.09,6.09,0,0,1,4.44-1.58,5.94,5.94,0,0,1,4.17,1.48,6.06,6.06,0,0,1,1.72,4.56Zm-3.56-2.23a2.63,2.63,0,0,0-.63-1.16,2.28,2.28,0,0,0-1.6-.59,2.06,2.06,0,0,0-1.58.59,2.17,2.17,0,0,0-.58,1.16Z"/><path d="M552.58,43.49h3.88v1.77A3.52,3.52,0,0,1,558,43.75a4.3,4.3,0,0,1,2-.43l.78,0V47a3.37,3.37,0,0,0-1.67-.39,2.52,2.52,0,0,0-1.77.58,3.25,3.25,0,0,0-.88,2.47v4.64h-3.88Z"/><path d="M574,49.62h-8.08a2.75,2.75,0,0,0,.68,1.82,2.19,2.19,0,0,0,1.6.53,3,3,0,0,0,1.26-.29,1.83,1.83,0,0,0,.68-.72h3.71a4.93,4.93,0,0,1-1.31,2.23,5.91,5.91,0,0,1-4.41,1.5A6.17,6.17,0,0,1,563.64,53a5.69,5.69,0,0,1-1.6-4.1,5.79,5.79,0,0,1,1.62-4.19,6.09,6.09,0,0,1,4.44-1.58,5.94,5.94,0,0,1,4.17,1.48A6.07,6.07,0,0,1,574,49.21Zm-3.57-2.23a2.63,2.63,0,0,0-.63-1.16,2.27,2.27,0,0,0-1.6-.59,2.09,2.09,0,0,0-1.58.59,2.24,2.24,0,0,0-.58,1.16Z"/><path d="M585.25,58.89a16,16,0,0,1-2.38-5.44,20,20,0,0,1-.7-5.67,21.44,21.44,0,0,1,.89-6.36,21.71,21.71,0,0,1,2.19-4.77L588,38.1a20.45,20.45,0,0,0-1.8,4.39,22.46,22.46,0,0,0-.68,5.17,25.36,25.36,0,0,0,.59,5A16.73,16.73,0,0,0,588,57.43Z"/><path d="M593.47,43.49,596,49.21l2.74-5.72h2.38l2.74,5.89,2.71-5.89h4.32l-5.68,10.84h-2.62l-2.71-6-2.6,6H594.7l-5.57-10.84Z"/><path d="M612.07,57.43A17,17,0,0,0,614,52.68a26.14,26.14,0,0,0,.58-5,22.46,22.46,0,0,0-.68-5.17,21,21,0,0,0-1.79-4.39l2.74-1.45A22.16,22.16,0,0,1,617,41.42a21.86,21.86,0,0,1,.9,6.38,19.89,19.89,0,0,1-.71,5.65,16,16,0,0,1-2.37,5.44Z"/><path d="M700.52,41h-5v2.7h4.73v3.56h-4.73V50h5v3.56h-9.19V37.4h9.19Z"/><path d="M706.89,47.68l-4.39-5h5L709.42,45l1.91-2.23h5l-4.48,5,5.43,5.89h-5.14l-2.77-3.22-2.76,3.22h-5.14Z"/><path d="M729.21,48.87h-8.08a2.75,2.75,0,0,0,.68,1.82,2.19,2.19,0,0,0,1.6.53,3,3,0,0,0,1.26-.29,1.79,1.79,0,0,0,.68-.73h3.71a4.83,4.83,0,0,1-1.31,2.23,5.87,5.87,0,0,1-4.41,1.51,6.17,6.17,0,0,1-4.49-1.65,5.69,5.69,0,0,1-1.6-4.1,5.83,5.83,0,0,1,1.62-4.2,6.13,6.13,0,0,1,4.44-1.57,5.9,5.9,0,0,1,4.17,1.48,6.06,6.06,0,0,1,1.73,4.56Zm-3.57-2.23a2.67,2.67,0,0,0-.63-1.17,2.25,2.25,0,0,0-1.6-.58,2.09,2.09,0,0,0-1.58.58,2.24,2.24,0,0,0-.58,1.17Z"/><path d="M739.63,53.33a5.74,5.74,0,0,1-2.69.61,6,6,0,0,1-4.27-1.65,5.68,5.68,0,0,1-1.67-4,5.92,5.92,0,0,1,1.74-4.2,6.27,6.27,0,0,1,4.37-1.65,5.63,5.63,0,0,1,2.52.61v3.25a3.49,3.49,0,0,0-2-.7,2.54,2.54,0,0,0-1.89.75,2.61,2.61,0,0,0-.75,1.87,2.75,2.75,0,0,0,.68,1.82,2.64,2.64,0,0,0,2,.82,2.92,2.92,0,0,0,2-.73Z"/><path d="M745.72,42.73V48.8a2.07,2.07,0,0,0,.58,1.57,2,2,0,0,0,1.36.42,1.8,1.8,0,0,0,1.38-.47,2,2,0,0,0,.56-1.52V42.73h3.88V49.5a3.71,3.71,0,0,1-1,2.91,6.22,6.22,0,0,1-4.68,1.53c-1.63,0-3.62-.17-4.9-1.55a3.9,3.9,0,0,1-1-2.89V42.73Z"/><path d="M760.44,45.91v7.66h-3.88V45.91h-1.24V42.73h1.24V39.17h3.88v3.56h2.21v3.18Zm-3.74,8.88,3.64.39-2.47,4.46-2.43-.29Z"/><path d="M766,36a2.19,2.19,0,1,1-2.18,2.18A2.17,2.17,0,0,1,766,36ZM768,42.73V53.57H764.1V42.73Z"/><path d="M782.12,48.87H774a2.75,2.75,0,0,0,.68,1.82,2.19,2.19,0,0,0,1.6.53,3,3,0,0,0,1.26-.29,1.73,1.73,0,0,0,.68-.73H782a4.83,4.83,0,0,1-1.31,2.23,5.87,5.87,0,0,1-4.41,1.51,6.18,6.18,0,0,1-4.49-1.65,5.69,5.69,0,0,1-1.6-4.1,5.79,5.79,0,0,1,1.63-4.2,6.1,6.1,0,0,1,4.44-1.57,5.91,5.91,0,0,1,4.17,1.48,6.08,6.08,0,0,1,1.72,4.56Zm-3.57-2.23a2.57,2.57,0,0,0-.63-1.17,2.25,2.25,0,0,0-1.6-.58,2.08,2.08,0,0,0-1.57.58,2.25,2.25,0,0,0-.59,1.17Z"/><path d="M793.37,58.13A15.9,15.9,0,0,1,791,52.7a20.37,20.37,0,0,1-.7-5.67,21,21,0,0,1,.9-6.36,22,22,0,0,1,2.18-4.78l2.74,1.46a20.76,20.76,0,0,0-1.8,4.39,22.86,22.86,0,0,0-.67,5.17,25.37,25.37,0,0,0,.58,5,16.85,16.85,0,0,0,1.89,4.75Z"/><path d="M802.66,47.68l-4.39-5h5L805.18,45l1.91-2.23h5l-4.48,5,5.43,5.89h-5.14l-2.77-3.22-2.76,3.22h-5.14Z"/><path d="M814.2,56.68a17.15,17.15,0,0,0,1.89-4.75,25.37,25.37,0,0,0,.58-5,22.31,22.31,0,0,0-.68-5.17,20.22,20.22,0,0,0-1.79-4.39l2.74-1.46a22.47,22.47,0,0,1,2.18,4.78,21.82,21.82,0,0,1,.9,6.38,20.32,20.32,0,0,1-.7,5.65,15.9,15.9,0,0,1-2.38,5.43Z"/><path d="M114.71,88.5v8.21a2.8,2.8,0,0,0,.71,2.14,2.6,2.6,0,0,0,1.7.66,2.65,2.65,0,0,0,1.67-.6,3.05,3.05,0,0,0,.81-2.52V88.5h3.59v8a5.63,5.63,0,0,1-1.56,4.49,6,6,0,0,1-4.57,1.72,6.2,6.2,0,0,1-4.59-1.66,6.45,6.45,0,0,1-1.35-4.55v-8Z"/><path d="M129.47,95.79v6.57h-3.33V95.79h-1.06V93.07h1.06V90h3.33v3.06h1.89v2.72Z"/><path d="M134.27,87.33a1.87,1.87,0,1,1-1.87,1.87A1.86,1.86,0,0,1,134.27,87.33Zm1.66,5.74v9.29h-3.32V93.07Z"/><path d="M141.53,87.21v15.15H138.2V87.21Z"/><path d="M145.45,87.33a1.87,1.87,0,1,1-1.87,1.87A1.86,1.86,0,0,1,145.45,87.33Zm1.67,5.74v9.29h-3.33V93.07Z"/><path d="M154.23,99.64h3.88v2.72h-9.45L153,95.79H149.3V93.07h9.27Z"/><path d="M167.32,93.07h3.33v9.29h-3.33v-1a3.47,3.47,0,0,1-2.89,1.33,4.47,4.47,0,0,1-3.35-1.47,4.72,4.72,0,0,1-1.33-3.41,5.13,5.13,0,0,1,1.44-3.72,4.77,4.77,0,0,1,3.35-1.31,3.69,3.69,0,0,1,2.78,1.2Zm-3.49,3.12a2.16,2.16,0,0,0-.67,1.51,2.13,2.13,0,0,0,.65,1.52,2.33,2.33,0,0,0,1.49.63,2.12,2.12,0,0,0,1.5-.65,2.11,2.11,0,0,0,0-3,2.09,2.09,0,0,0-2.95,0Z"/><path d="M176.61,95.79v6.57h-3.32V95.79h-1.06V93.07h1.06V90h3.32v3.06h1.89v2.72Z"/><path d="M189.1,101.13a6.35,6.35,0,0,1-8.29,0,4.61,4.61,0,0,1-1.43-3.43,4.55,4.55,0,0,1,1.43-3.4,6.35,6.35,0,0,1,8.29,0,4.55,4.55,0,0,1,1.44,3.4A4.62,4.62,0,0,1,189.1,101.13Zm-5.63-4.94A2.12,2.12,0,0,0,185,99.8a2.17,2.17,0,0,0,2.12-2.1A2.15,2.15,0,0,0,185,95.58,2.27,2.27,0,0,0,183.47,96.19Z"/><path d="M192.45,93.07h3.33v1.52a3,3,0,0,1,1.31-1.29,3.6,3.6,0,0,1,1.72-.38l.67,0V96.1a3,3,0,0,0-1.44-.33,2.17,2.17,0,0,0-1.52.5,2.81,2.81,0,0,0-.74,2.12v4h-3.33Z"/><path d="M117.77,138.15h7.15c0,2.75-.56,4.7-2.23,6.24a6.74,6.74,0,0,1-4.88,1.74,7.17,7.17,0,0,1-5.32-2,7,7,0,0,1-2-5,7.25,7.25,0,0,1,2.08-5.2,8,8,0,0,1,9.13-1.1,6.84,6.84,0,0,1,2.47,2.85L120.74,137a3.35,3.35,0,0,0-1-1.39,2.89,2.89,0,0,0-1.93-.69,3.33,3.33,0,0,0-2.37,1,4.68,4.68,0,0,0-1.21,3.18,4.29,4.29,0,0,0,1.11,3,3.25,3.25,0,0,0,2.53,1.06,3,3,0,0,0,2-.64,2.5,2.5,0,0,0,.85-1.54h-3Z"/><path d="M126.89,136.72h3.33v1.52a3,3,0,0,1,1.31-1.29,3.62,3.62,0,0,1,1.72-.38l.67.05v3.13a3,3,0,0,0-1.44-.33,2.14,2.14,0,0,0-1.51.5,2.79,2.79,0,0,0-.75,2.12v4h-3.33Z"/><path d="M138.72,136.72v5.2a1.78,1.78,0,0,0,.5,1.35,1.71,1.71,0,0,0,1.16.35,1.58,1.58,0,0,0,1.19-.39,1.76,1.76,0,0,0,.48-1.31v-5.2h3.32v5.8a3.18,3.18,0,0,1-.89,2.49,5.3,5.3,0,0,1-4,1.31c-1.4,0-3.1-.14-4.2-1.33a3.33,3.33,0,0,1-.88-2.47v-5.8Z"/><path d="M151,150.77h-3.32V136.72H151v1a3.48,3.48,0,0,1,2.85-1.33,4.63,4.63,0,0,1,3.31,1.35,5.27,5.27,0,0,1-.09,7.27,4.45,4.45,0,0,1-3.18,1.29,4,4,0,0,1-2.89-1.2Zm.54-10.91a2.28,2.28,0,0,0-.64,1.54,2.23,2.23,0,0,0,.64,1.47,2.13,2.13,0,0,0,1.5.63,2,2,0,0,0,1.48-.63,2.19,2.19,0,0,0,.64-1.47,2.28,2.28,0,0,0-.64-1.54,2,2,0,0,0-1.48-.63A2.13,2.13,0,0,0,151.52,139.86Z"/><path d="M119.58,191.49h-5l-.94,2.33h-3.8L115.13,180h3.93l5.21,13.87h-3.84Zm-1-2.74-1.56-4.49-1.52,4.49Z"/><path d="M128.89,178.66v15.16h-3.33V178.66Z"/><path d="M134.83,187.25v6.57h-3.32v-6.57h-1.06v-2.72h1.06v-3.06h3.32v3.06h1.89v2.72Zm-3.2,7.61,3.12.33L132.63,199l-2.08-.25Z"/><path d="M139.63,178.79a1.87,1.87,0,1,1-1.87,1.87A1.86,1.86,0,0,1,139.63,178.79Zm1.67,5.74v9.29H138v-9.29Z"/><path d="M145.23,178.79a1.87,1.87,0,1,1-1.87,1.87A1.87,1.87,0,0,1,145.23,178.79Zm1.66,5.74v9.29h-3.33v-9.29Z"/><line x1="1069.58" y1="158.47" x2="1132.49" y2="158.47" style="fill:none;stroke:#c13018;stroke-miterlimit:10;stroke-width:5.49916839599609px"/><line x1="1069.58" y1="142.19" x2="1132.49" y2="142.19" style="fill:none;stroke:#c13018;stroke-miterlimit:10;stroke-width:5.49916839599609px"/><line x1="1069.58" y1="125.91" x2="1132.49" y2="125.91" style="fill:none;stroke:#c13018;stroke-miterlimit:10;stroke-width:5.49916839599609px"/><line x1="1069.58" y1="109.64" x2="1132.49" y2="109.64" style="fill:none;stroke:#c13018;stroke-miterlimit:10;stroke-width:5.49916839599609px"/><line x1="1069.58" y1="93.36" x2="1095.55" y2="93.36" style="fill:none;stroke:#c13018;stroke-miterlimit:10;stroke-width:5.49916839599609px"/><path d="M1129.2,87.51a8.8,8.8,0,0,1-8.78-8.78V62.27h-54.5a8.8,8.8,0,0,0-8.78,8.78v92.17a8.8,8.8,0,0,0,8.78,8.78h70.23a8.8,8.8,0,0,0,8.78-8.78V87.51Z" style="fill:none;stroke:#c13018;stroke-miterlimit:10;stroke-width:5.49916839599609px"/><polygon points="897.59 139.89 982.11 139.89 982.11 152.08 1008 126.19 982.11 100.3 982.11 112.48 897.59 112.48 897.59 139.89" style="fill:none;stroke:#91c54f;stroke-miterlimit:10;stroke-width:7px"/><path d="M253.36,270.87v-20h7.74a5.61,5.61,0,0,1,4.38,1.56,5.41,5.41,0,0,1,1.23,3.75,5.19,5.19,0,0,1-.57,2.46,3.15,3.15,0,0,1-1.62,1.56,5,5,0,0,1,2.73,1.2,5,5,0,0,1,1.35,3.66,5.43,5.43,0,0,1-1.47,3.93,7.52,7.52,0,0,1-5.43,1.89Zm5.19-12.12h1a2.74,2.74,0,0,0,2-.63,1.94,1.94,0,0,0,.48-1.32,2.06,2.06,0,0,0-.48-1.35,2.75,2.75,0,0,0-2-.6h-1Zm0,8.07h1.17c1.44,0,2.64-.15,3.21-.81a2,2,0,0,0,.42-1.29,2,2,0,0,0-.51-1.44c-.63-.63-1.92-.66-3.21-.66h-1.08Z"/><path d="M281.83,257.46h4.8v13.41h-4.8V269.4a5,5,0,0,1-4.17,1.92,6.42,6.42,0,0,1-4.83-2.13,6.76,6.76,0,0,1-1.92-4.92A7.42,7.42,0,0,1,273,258.9a6.9,6.9,0,0,1,4.83-1.89,5.31,5.31,0,0,1,4,1.74Zm-5,4.5a3.14,3.14,0,0,0-1,2.19,3.09,3.09,0,0,0,.93,2.19,3.37,3.37,0,0,0,2.16.9,3.08,3.08,0,0,0,2.16-.93,2.91,2.91,0,0,0,.9-2.16,3,3,0,0,0-.93-2.19,3,3,0,0,0-4.26,0Z"/><path d="M296.92,266.94h5.61v3.93H288.88l6.33-9.48h-5.4v-3.93h13.38Z"/><path d="M315.82,257.46h4.8v13.41h-4.8V269.4a5,5,0,0,1-4.17,1.92,6.42,6.42,0,0,1-4.83-2.13,6.76,6.76,0,0,1-1.92-4.92A7.42,7.42,0,0,1,307,258.9,6.9,6.9,0,0,1,311.8,257a5.31,5.31,0,0,1,4,1.74Zm-5,4.5a3.14,3.14,0,0,0-1,2.19,3.09,3.09,0,0,0,.93,2.19,3.37,3.37,0,0,0,2.16.9,3.08,3.08,0,0,0,2.16-.93,2.91,2.91,0,0,0,.9-2.16A3,3,0,0,0,315,262a3,3,0,0,0-4.26,0Z"/><path d="M346.09,270.87h-4.8V269.4a4.92,4.92,0,0,1-4.05,1.92,6.42,6.42,0,0,1-4.71-1.86,7.4,7.4,0,0,1-2.16-5.34,7.31,7.31,0,0,1,2.19-5.31,6.86,6.86,0,0,1,4.74-1.8,5.31,5.31,0,0,1,4,1.74V249h4.8Zm-5.67-4.44a3.22,3.22,0,0,0,1-2.28,3.51,3.51,0,0,0-.9-2.16,3.08,3.08,0,0,0-4.32,0,3.29,3.29,0,0,0-.93,2.28,3,3,0,0,0,.93,2.1,3,3,0,0,0,2.13.9A3.28,3.28,0,0,0,340.42,266.43Z"/><path d="M363.61,265.05h-10a3.39,3.39,0,0,0,.84,2.25,2.7,2.7,0,0,0,2,.66,3.79,3.79,0,0,0,1.56-.36,2.23,2.23,0,0,0,.84-.9h4.59a6,6,0,0,1-1.62,2.76c-1,1-2.55,1.86-5.46,1.86a7.61,7.61,0,0,1-5.55-2,7,7,0,0,1-2-5.07,7.16,7.16,0,0,1,2-5.19,7.55,7.55,0,0,1,5.49-1.95,7.35,7.35,0,0,1,5.16,1.83,7.51,7.51,0,0,1,2.13,5.64Zm-4.41-2.76a3.22,3.22,0,0,0-.78-1.44,2.8,2.8,0,0,0-2-.72,2.58,2.58,0,0,0-1.95.72,2.74,2.74,0,0,0-.72,1.44Z"/><path d="M388.54,270.87h-4.8V269.4a4.92,4.92,0,0,1-4.05,1.92,6.42,6.42,0,0,1-4.71-1.86,7.4,7.4,0,0,1-2.16-5.34,7.31,7.31,0,0,1,2.19-5.31,6.86,6.86,0,0,1,4.74-1.8,5.31,5.31,0,0,1,4,1.74V249h4.8Zm-5.67-4.44a3.22,3.22,0,0,0,1-2.28A3.51,3.51,0,0,0,383,262a3.08,3.08,0,0,0-4.32,0,3.29,3.29,0,0,0-.93,2.28,3,3,0,0,0,.93,2.1,3,3,0,0,0,2.13.9A3.28,3.28,0,0,0,382.87,266.43Z"/><path d="M402.22,257.46H407v13.41h-4.8V269.4a5,5,0,0,1-4.17,1.92,6.42,6.42,0,0,1-4.83-2.13,6.76,6.76,0,0,1-1.92-4.92,7.42,7.42,0,0,1,2.07-5.37A6.9,6.9,0,0,1,398.2,257a5.31,5.31,0,0,1,4,1.74Zm-5,4.5a3.14,3.14,0,0,0-1,2.19,3.09,3.09,0,0,0,.93,2.19,3.37,3.37,0,0,0,2.16.9,3.08,3.08,0,0,0,2.16-.93,2.91,2.91,0,0,0,.9-2.16,3,3,0,0,0-.93-2.19,3,3,0,0,0-4.26,0Z"/><path d="M415.63,261.39v9.48h-4.8v-9.48H409.3v-3.93h1.53v-4.41h4.8v4.41h2.73v3.93Z"/><path d="M434.38,265.05h-10a3.39,3.39,0,0,0,.84,2.25,2.7,2.7,0,0,0,2,.66,3.79,3.79,0,0,0,1.56-.36,2.23,2.23,0,0,0,.84-.9h4.59a6,6,0,0,1-1.62,2.76c-1,1-2.55,1.86-5.46,1.86a7.61,7.61,0,0,1-5.55-2,7,7,0,0,1-2-5.07,7.16,7.16,0,0,1,2-5.19,7.55,7.55,0,0,1,5.49-1.95,7.35,7.35,0,0,1,5.16,1.83,7.51,7.51,0,0,1,2.13,5.64ZM430,262.29a3.22,3.22,0,0,0-.78-1.44,2.8,2.8,0,0,0-2-.72,2.58,2.58,0,0,0-1.95.72,2.74,2.74,0,0,0-.72,1.44Z"/><path d="M454.27,270.57a7.12,7.12,0,0,1-3.33.75,7.41,7.41,0,0,1-5.28-2,7,7,0,0,1-2.07-5,7.3,7.3,0,0,1,2.16-5.19,7.73,7.73,0,0,1,5.4-2,6.88,6.88,0,0,1,3.12.75v4a4.28,4.28,0,0,0-2.49-.87,3.15,3.15,0,0,0-2.34.93,3.26,3.26,0,0,0-.93,2.31,3.44,3.44,0,0,0,.84,2.25,3.26,3.26,0,0,0,2.46,1,3.63,3.63,0,0,0,2.46-.9Z"/><path d="M461.8,257.46V265a2.57,2.57,0,0,0,.72,2,2.48,2.48,0,0,0,1.68.51,2.26,2.26,0,0,0,1.71-.57,2.53,2.53,0,0,0,.69-1.89v-7.5h4.8v8.37a4.64,4.64,0,0,1-1.29,3.6c-1.65,1.71-4,1.89-5.79,1.89-2,0-4.47-.21-6.06-1.92a4.82,4.82,0,0,1-1.26-3.57v-8.37Z"/><path d="M486.49,277.74h-4.8V257.46h4.8v1.47a5,5,0,0,1,4.1-1.92,6.65,6.65,0,0,1,4.77,1.95,7.61,7.61,0,0,1-.12,10.5,6.44,6.44,0,0,1-4.59,1.86,5.69,5.69,0,0,1-4.16-1.74Zm.77-15.75a3.32,3.32,0,0,0-.93,2.22,3.24,3.24,0,0,0,.93,2.13,3.08,3.08,0,0,0,2.16.9,2.9,2.9,0,0,0,2.13-.9,3.17,3.17,0,0,0,.93-2.13,3.27,3.27,0,0,0-.93-2.22,2.9,2.9,0,0,0-2.13-.9A3.08,3.08,0,0,0,487.26,262Z"/><path d="M514.38,265.05h-10a3.39,3.39,0,0,0,.84,2.25,2.7,2.7,0,0,0,2,.66,3.79,3.79,0,0,0,1.56-.36,2.23,2.23,0,0,0,.84-.9h4.59a6,6,0,0,1-1.62,2.76c-1,1-2.55,1.86-5.46,1.86a7.61,7.61,0,0,1-5.55-2,7,7,0,0,1-2-5.07,7.16,7.16,0,0,1,2-5.19,7.55,7.55,0,0,1,5.49-1.95,7.35,7.35,0,0,1,5.16,1.83,7.51,7.51,0,0,1,2.13,5.64ZM510,262.29a3.22,3.22,0,0,0-.78-1.44,2.8,2.8,0,0,0-2-.72,2.58,2.58,0,0,0-1.95.72,2.74,2.74,0,0,0-.72,1.44Z"/><path d="M517.14,257.46h4.8v2.19a4.33,4.33,0,0,1,1.89-1.86,5.24,5.24,0,0,1,2.49-.54l1,.06v4.53a4.23,4.23,0,0,0-2.07-.48,3.14,3.14,0,0,0-2.19.72,4,4,0,0,0-1.08,3.06v5.73h-4.8Z"/><path d="M529.41,257.46h4.8v1.62a5.15,5.15,0,0,1,4-1.86,5.46,5.46,0,0,1,2.58.6,4.19,4.19,0,0,1,1.86,1.92,4.71,4.71,0,0,1,1.83-1.86,5.44,5.44,0,0,1,2.79-.66,5.33,5.33,0,0,1,3.72,1.23,4.93,4.93,0,0,1,1.26,3.69v8.73h-4.8v-6.63c0-1.41-.15-2.37-.69-2.88a1.75,1.75,0,0,0-1.26-.45,1.94,1.94,0,0,0-1.41.54,3.43,3.43,0,0,0-.87,2.55v6.87h-4.8v-6.63a4.29,4.29,0,0,0-.63-2.88,1.86,1.86,0,0,0-1.44-.54,1.69,1.69,0,0,0-1.32.48,4,4,0,0,0-.84,2.94v6.63h-4.8Z"/><path d="M558,249.18a2.7,2.7,0,1,1-2.7,2.7A2.69,2.69,0,0,1,558,249.18Zm2.4,8.28v13.41h-4.8V257.46Z"/><path d="M564.54,266.43a6.87,6.87,0,0,0,1.92,1,6.25,6.25,0,0,0,1.86.33,2,2,0,0,0,1.23-.36.77.77,0,0,0,.24-.63.71.71,0,0,0-.24-.6,3,3,0,0,0-1.26-.48l-1.26-.3a4.31,4.31,0,0,1-2.34-1.17,3.24,3.24,0,0,1-.87-2.31,4.79,4.79,0,0,1,1.26-3.27,6.77,6.77,0,0,1,4.8-1.62,11.07,11.07,0,0,1,4.29.87l-1.62,3.06a6.64,6.64,0,0,0-2.52-.66,2,2,0,0,0-1.11.27.72.72,0,0,0-.42.66.78.78,0,0,0,.57.75c.45.18.84.18,1.59.39l.87.24a5.67,5.67,0,0,1,2,1.05,3.79,3.79,0,0,1,1,2.67,4.48,4.48,0,0,1-1.35,3.33,7,7,0,0,1-4.95,1.68,9.89,9.89,0,0,1-5.4-1.56Z"/><path d="M579.39,249.18a2.7,2.7,0,1,1-2.7,2.7A2.69,2.69,0,0,1,579.39,249.18Zm2.4,8.28v13.41H577V257.46Z"/><path d="M589.86,257.46V265a2.57,2.57,0,0,0,.72,2,2.48,2.48,0,0,0,1.68.51,2.24,2.24,0,0,0,1.71-.57,2.49,2.49,0,0,0,.69-1.89v-7.5h4.8v8.37a4.6,4.6,0,0,1-1.29,3.6c-1.65,1.71-4,1.89-5.79,1.89-2,0-4.47-.21-6.06-1.92a4.82,4.82,0,0,1-1.26-3.57v-8.37Z"/><path d="M602.76,257.46h4.8v1.68a5.06,5.06,0,0,1,4.26-2,5.42,5.42,0,0,1,4,1.44,4.62,4.62,0,0,1,1.26,3.75v8.52h-4.8v-6.78a3.85,3.85,0,0,0-.6-2.61,2,2,0,0,0-1.53-.57,2.63,2.63,0,0,0-1.77.63,3.08,3.08,0,0,0-.78,2.13v7.2h-4.8Z"/><path d="M622.71,249.18a2.7,2.7,0,1,1-2.7,2.7A2.69,2.69,0,0,1,622.71,249.18Zm2.4,8.28v13.41h-4.8V257.46Z"/><path d="M359.07,313.74h-4.8V293.46h4.8v1.47a5,5,0,0,1,4.11-1.92A6.67,6.67,0,0,1,368,295a7.61,7.61,0,0,1-.12,10.5,6.44,6.44,0,0,1-4.59,1.86,5.71,5.71,0,0,1-4.17-1.74Zm.78-15.75a3.27,3.27,0,0,0-.93,2.22,3.24,3.24,0,0,0,.93,2.13,3.07,3.07,0,0,0,2.16.9,2.9,2.9,0,0,0,2.13-.9,3.17,3.17,0,0,0,.93-2.13,3.27,3.27,0,0,0-.93-2.22,2.9,2.9,0,0,0-2.13-.9A3.07,3.07,0,0,0,359.85,298Z"/><path d="M387,301.05H377a3.39,3.39,0,0,0,.84,2.25,2.69,2.69,0,0,0,2,.66,3.82,3.82,0,0,0,1.57-.36,2.23,2.23,0,0,0,.84-.9h4.59a6,6,0,0,1-1.62,2.76c-1,1-2.55,1.86-5.46,1.86a7.61,7.61,0,0,1-5.55-2,7,7,0,0,1-2-5.07,7.16,7.16,0,0,1,2-5.19,7.55,7.55,0,0,1,5.49-1.95,7.31,7.31,0,0,1,5.15,1.83,7.51,7.51,0,0,1,2.13,5.64Zm-4.4-2.76a3.32,3.32,0,0,0-.78-1.44,2.8,2.8,0,0,0-2-.72,2.57,2.57,0,0,0-1.94.72,2.74,2.74,0,0,0-.72,1.44Z"/><path d="M389.73,293.46h4.8v1.68a5,5,0,0,1,4.26-2,5.4,5.4,0,0,1,3.95,1.44,4.62,4.62,0,0,1,1.26,3.75v8.52h-4.79v-6.78a3.86,3.86,0,0,0-.61-2.61,2,2,0,0,0-1.52-.57,2.67,2.67,0,0,0-1.78.63,3.13,3.13,0,0,0-.77,2.13v7.2h-4.8Z"/><path d="M412.58,297.39v9.48h-4.79v-9.48h-1.54v-3.93h1.54v-4.41h4.79v4.41h2.73v3.93Z"/><path d="M417.12,293.46h4.8v2.19a4.26,4.26,0,0,1,1.88-1.86,5.24,5.24,0,0,1,2.49-.54l1,.06v4.53a4.23,4.23,0,0,0-2.07-.48,3.14,3.14,0,0,0-2.19.72,4,4,0,0,0-1.07,3.06v5.73h-4.8Z"/><path d="M434.18,293.46V301a2.57,2.57,0,0,0,.72,2,2.48,2.48,0,0,0,1.68.51,2.24,2.24,0,0,0,1.71-.57A2.49,2.49,0,0,0,439,301v-7.5h4.8v8.37a4.6,4.6,0,0,1-1.29,3.6c-1.65,1.71-4,1.89-5.79,1.89-2,0-4.47-.21-6.06-1.92a4.82,4.82,0,0,1-1.26-3.57v-8.37Z"/><path d="M466,291.27h-6.27v3.33h5.7V299h-5.7v7.86h-5.19v-20H466Z"/><path d="M470.72,285.18a2.7,2.7,0,1,1-2.7,2.7A2.69,2.69,0,0,1,470.72,285.18Zm2.4,8.28v13.41h-4.8V293.46Z"/><path d="M477.26,302.43a6.87,6.87,0,0,0,1.92,1,6.25,6.25,0,0,0,1.86.33,2,2,0,0,0,1.23-.36.77.77,0,0,0,.24-.63.71.71,0,0,0-.24-.6,3,3,0,0,0-1.26-.48l-1.26-.3a4.31,4.31,0,0,1-2.34-1.17,3.24,3.24,0,0,1-.87-2.31,4.79,4.79,0,0,1,1.26-3.27,6.77,6.77,0,0,1,4.8-1.62,11.07,11.07,0,0,1,4.29.87l-1.62,3.06a6.64,6.64,0,0,0-2.52-.66,2,2,0,0,0-1.11.27.72.72,0,0,0-.42.66.78.78,0,0,0,.57.75c.45.18.84.18,1.59.39l.87.24a5.67,5.67,0,0,1,2,1.05,3.79,3.79,0,0,1,1,2.67,4.48,4.48,0,0,1-1.35,3.33,7,7,0,0,1-4.95,1.68,9.89,9.89,0,0,1-5.4-1.56Zm2.34,5.94,4.5.48L481,314.37l-3-.36Z"/><path d="M492.11,285.18a2.7,2.7,0,1,1-2.7,2.7A2.69,2.69,0,0,1,492.11,285.18Zm2.4,8.28v13.41h-4.8V293.46Z"/><path d="M512,301.05H502a3.39,3.39,0,0,0,.84,2.25,2.7,2.7,0,0,0,2,.66,3.79,3.79,0,0,0,1.56-.36,2.23,2.23,0,0,0,.84-.9h4.59a6,6,0,0,1-1.62,2.76c-1,1-2.55,1.86-5.46,1.86a7.61,7.61,0,0,1-5.55-2,7,7,0,0,1-2-5.07,7.16,7.16,0,0,1,2-5.19,7.55,7.55,0,0,1,5.49-1.95,7.35,7.35,0,0,1,5.16,1.83,7.51,7.51,0,0,1,2.13,5.64Zm-4.41-2.76a3.22,3.22,0,0,0-.78-1.44,2.8,2.8,0,0,0-2-.72,2.58,2.58,0,0,0-1.95.72,2.74,2.74,0,0,0-.72,1.44Z"/><path d="M514.76,293.46h4.8v2.19a4.33,4.33,0,0,1,1.89-1.86,5.24,5.24,0,0,1,2.49-.54l1,.06v4.53a4.23,4.23,0,0,0-2.07-.48,3.14,3.14,0,0,0-2.19.72,4,4,0,0,0-1.08,3.06v5.73h-4.8Z"/><path d="M1087.12,220.13h-6.27v3.33h5.7v4.42h-5.7v7.85h-5.19v-20h11.46Z"/><path d="M1091.86,214a2.71,2.71,0,1,1-2.7,2.71A2.7,2.7,0,0,1,1091.86,214Zm2.4,8.29v13.4h-4.8v-13.4Z"/><path d="M1098.4,231.29a6.87,6.87,0,0,0,1.92,1,6.25,6.25,0,0,0,1.86.33,2,2,0,0,0,1.23-.36.76.76,0,0,0,.24-.62.72.72,0,0,0-.24-.61,3.13,3.13,0,0,0-1.26-.48l-1.26-.3a4.31,4.31,0,0,1-2.34-1.17,3.21,3.21,0,0,1-.87-2.31,4.75,4.75,0,0,1,1.26-3.26,6.77,6.77,0,0,1,4.8-1.62,11.07,11.07,0,0,1,4.29.87l-1.62,3.05a6.64,6.64,0,0,0-2.52-.66,1.94,1.94,0,0,0-1.11.28.7.7,0,0,0-.42.66.78.78,0,0,0,.57.75c.45.17.84.17,1.59.38l.87.25a5.49,5.49,0,0,1,2,1,3.79,3.79,0,0,1,1,2.67,4.48,4.48,0,0,1-1.35,3.33,7,7,0,0,1-5,1.68,9.89,9.89,0,0,1-5.4-1.56Zm2.34,5.94,4.5.48-3.06,5.52-3-.36Z"/><path d="M1113.25,214a2.71,2.71,0,1,1-2.7,2.71A2.7,2.7,0,0,1,1113.25,214Zm2.4,8.29v13.4h-4.8v-13.4Z"/><path d="M1133.14,229.92h-10a3.38,3.38,0,0,0,.84,2.24,2.7,2.7,0,0,0,2,.66,3.79,3.79,0,0,0,1.56-.36,2.23,2.23,0,0,0,.84-.9H1133a6,6,0,0,1-1.62,2.76c-1,1-2.55,1.86-5.46,1.86a7.61,7.61,0,0,1-5.55-2,7,7,0,0,1-2-5.07,7.17,7.17,0,0,1,2-5.19,7.55,7.55,0,0,1,5.49-1.95,7.35,7.35,0,0,1,5.16,1.83,7.51,7.51,0,0,1,2.13,5.64Zm-4.41-2.77a3.27,3.27,0,0,0-.78-1.44,2.78,2.78,0,0,0-2-.71,2.61,2.61,0,0,0-2,.71,2.78,2.78,0,0,0-.72,1.44Z"/><path d="M1135.9,222.33h4.8v2.18a4.3,4.3,0,0,1,1.89-1.85,5.12,5.12,0,0,1,2.49-.54l1,0v4.54a4.08,4.08,0,0,0-2.07-.49,3.14,3.14,0,0,0-2.19.72,4.06,4.06,0,0,0-1.08,3.06v5.73h-4.8Z"/><path d="M357.83,79.26a2,2,0,0,0-2.89,0l-24.47,24.47-9.41-9.41a2,2,0,1,0-2.89,2.89L329,108.06a2,2,0,0,0,2.89,0l25.92-25.91A2.06,2.06,0,0,0,357.83,79.26Z" style="fill:#91c54f"/><path d="M357.83,124.93a2,2,0,0,0-2.89,0L330.47,149.4,321.06,140a2,2,0,0,0-2.89,2.89L329,153.73a2,2,0,0,0,2.89,0l25.92-25.91A2.06,2.06,0,0,0,357.83,124.93Z" style="fill:#91c54f"/><path d="M357.83,173.26a2,2,0,0,0-2.89,0l-24.47,24.47-9.41-9.41a2,2,0,1,0-2.89,2.89L329,202.06a2,2,0,0,0,2.89,0l25.92-25.92A2,2,0,0,0,357.83,173.26Z" style="fill:#91c54f"/><path d="M577.82,79.26a2,2,0,0,0-2.89,0l-24.47,24.47-9.41-9.41a2,2,0,0,0-2.89,2.89L549,108.06a2,2,0,0,0,2.89,0l25.92-25.91A2.06,2.06,0,0,0,577.82,79.26Z" style="fill:#91c54f"/><path d="M773.48,124.93a2,2,0,0,0-2.89,0L746.12,149.4l-9.4-9.41a2,2,0,0,0-2.89,2.89l10.85,10.85a2,2,0,0,0,2.89,0l25.91-25.91A2,2,0,0,0,773.48,124.93Z" style="fill:#91c54f"/><path d="M560.82,139.33l12.6-12.6a2,2,0,1,0-2.83-2.83L558,136.5l-12.6-12.6a2,2,0,1,0-2.83,2.83l12.6,12.6-12.6,12.59a2,2,0,0,0,1.42,3.42,2,2,0,0,0,1.41-.59L558,142.16l12.6,12.59a2,2,0,0,0,1.41.59,2,2,0,0,0,1.42-.59,2,2,0,0,0,0-2.83Z" style="fill:red"/><path d="M560.82,187.66l12.6-12.6a2,2,0,1,0-2.83-2.83L558,184.82l-12.6-12.59a2,2,0,1,0-2.83,2.83l12.6,12.6-12.6,12.59a2,2,0,1,0,2.83,2.83L558,190.49l12.6,12.59a2,2,0,0,0,1.41.59,2,2,0,0,0,1.42-3.42Z" style="fill:red"/><path d="M756.49,187.66l12.59-12.6a2,2,0,0,0-2.83-2.83l-12.59,12.59-12.6-12.59a2,2,0,1,0-2.83,2.83l12.59,12.6-12.59,12.59a2,2,0,1,0,2.83,2.83l12.6-12.59,12.59,12.59a2,2,0,0,0,1.42.59,2,2,0,0,0,1.41-3.42Z" style="fill:red"/><path d="M756.49,93.66l12.59-12.59a2,2,0,0,0-2.83-2.84l-12.59,12.6-12.6-12.6a2,2,0,0,0-2.83,2.84l12.59,12.59-12.59,12.6a2,2,0,1,0,2.83,2.83l12.6-12.6,12.59,12.6a2,2,0,0,0,1.42.59,2,2,0,0,0,1.41-3.42Z" style="fill:red"/></svg>