<svg id="Layer_1" data-name="Layer 1" xmlns="http://www.w3.org/2000/svg" viewBox="0 0 1034 932"><title>Capitolul12</title><rect x="47.5" y="85" width="950.5" height="115.5" rx="12" ry="12" style="fill:none;stroke:#636868;stroke-miterlimit:10;stroke-width:3.52701219844349px"/><rect x="73.15" y="115.56" width="191.5" height="60" rx="12" ry="12" style="fill:none;stroke:#91c54f;stroke-miterlimit:10;stroke-width:3.32802739455736px"/><path d="M108.07,150.72a10.42,10.42,0,0,1-3.75.82,9.06,9.06,0,0,1-6.45-2.5A8.71,8.71,0,0,1,95.35,143a8.94,8.94,0,0,1,2.52-6.15,8.84,8.84,0,0,1,6.3-2.6,10.44,10.44,0,0,1,3.9.85v5.18a4.64,4.64,0,0,0-3.78-1.83,4.25,4.25,0,0,0-3,1.1,4.67,4.67,0,0,0-1.45,3.42,4.27,4.27,0,0,0,4.45,4.4,4.89,4.89,0,0,0,3.78-1.75Z"/><path d="M121.69,149.69a7.64,7.64,0,0,1-10,0,5.75,5.75,0,0,1,0-8.22,7,7,0,0,1,5-1.85,7.06,7.06,0,0,1,5,1.85,5.75,5.75,0,0,1,0,8.22Zm-6.77-5.95a2.47,2.47,0,0,0,0,3.6,2.5,2.5,0,0,0,3.57,0,2.45,2.45,0,0,0,.78-1.77,2.73,2.73,0,0,0-.78-1.83,2.57,2.57,0,0,0-3.57,0Z"/><path d="M125.72,140h4v1.35a4.29,4.29,0,0,1,3.35-1.55,4.49,4.49,0,0,1,2.15.5,3.55,3.55,0,0,1,1.55,1.59,3.92,3.92,0,0,1,1.52-1.54,4.55,4.55,0,0,1,2.33-.55,4.41,4.41,0,0,1,3.09,1,4.11,4.11,0,0,1,1,3.07v7.28h-4v-5.53a3.33,3.33,0,0,0-.58-2.4,1.44,1.44,0,0,0-1.05-.37,1.59,1.59,0,0,0-1.17.45,2.83,2.83,0,0,0-.73,2.12v5.73h-4v-5.53a3.59,3.59,0,0,0-.52-2.4,1.57,1.57,0,0,0-1.2-.45,1.41,1.41,0,0,0-1.1.4,3.31,3.31,0,0,0-.7,2.45v5.53h-4Z"/><path d="M151.54,156.89h-4V140h4v1.22a4.2,4.2,0,0,1,3.43-1.6,5.55,5.55,0,0,1,4,1.63,6.33,6.33,0,0,1-.1,8.74,5.34,5.34,0,0,1-3.82,1.55,4.76,4.76,0,0,1-3.48-1.45Zm.65-13.12a2.51,2.51,0,0,0,0,3.62,2.55,2.55,0,0,0,1.8.75,2.41,2.41,0,0,0,1.78-.75,2.65,2.65,0,0,0,.77-1.77,2.71,2.71,0,0,0-.77-1.85A2.41,2.41,0,0,0,154,143,2.55,2.55,0,0,0,152.19,143.77Z"/><path d="M174.19,149.69a7.64,7.64,0,0,1-10,0,5.75,5.75,0,0,1,0-8.22,7,7,0,0,1,5-1.85,7.06,7.06,0,0,1,5,1.85,5.75,5.75,0,0,1,0,8.22Zm-6.77-5.95a2.47,2.47,0,0,0,0,3.6,2.5,2.5,0,0,0,3.57,0,2.45,2.45,0,0,0,.78-1.77,2.73,2.73,0,0,0-.78-1.83,2.57,2.57,0,0,0-3.57,0Z"/><path d="M178.22,140h4v1.4a4.21,4.21,0,0,1,3.55-1.65,4.51,4.51,0,0,1,3.3,1.2,3.83,3.83,0,0,1,1,3.12v7.1h-4v-5.65a3.25,3.25,0,0,0-.5-2.18,1.69,1.69,0,0,0-1.28-.47,2.17,2.17,0,0,0-1.47.52,2.58,2.58,0,0,0-.65,1.78v6h-4Z"/><path d="M204.69,146.32h-8.32a2.78,2.78,0,0,0,.7,1.87,2.25,2.25,0,0,0,1.65.55,3.07,3.07,0,0,0,1.3-.3,1.9,1.9,0,0,0,.7-.75h3.82a5,5,0,0,1-1.35,2.3,6.06,6.06,0,0,1-4.55,1.55,6.31,6.31,0,0,1-4.62-1.7,5.82,5.82,0,0,1-1.65-4.22A5.94,5.94,0,0,1,194,141.3a6.31,6.31,0,0,1,4.58-1.63,6.14,6.14,0,0,1,4.3,1.53,6.24,6.24,0,0,1,1.77,4.69ZM201,144a2.66,2.66,0,0,0-.65-1.2,2.31,2.31,0,0,0-1.65-.6,2.14,2.14,0,0,0-1.63.6,2.36,2.36,0,0,0-.6,1.2Z"/><path d="M207,140h4v1.4a4.22,4.22,0,0,1,3.55-1.65,4.51,4.51,0,0,1,3.3,1.2,3.84,3.84,0,0,1,1,3.12v7.1h-4v-5.65a3.19,3.19,0,0,0-.5-2.18,1.65,1.65,0,0,0-1.27-.47,2.2,2.2,0,0,0-1.48.52,2.58,2.58,0,0,0-.65,1.78v6h-4Z"/><path d="M226,143.27v7.9h-4v-7.9h-1.27V140H222v-3.68h4V140h2.28v3.27Z"/><path d="M238.46,140h4v11.17h-4v-1.23a4.15,4.15,0,0,1-3.47,1.6,5.35,5.35,0,0,1-4-1.77,5.63,5.63,0,0,1-1.6-4.1,6.17,6.17,0,0,1,1.72-4.47,5.77,5.77,0,0,1,4-1.58,4.42,4.42,0,0,1,3.34,1.45Zm2.2-5.75a3.88,3.88,0,0,1-1.1,2.72,5.22,5.22,0,0,1-6.49,0,3.88,3.88,0,0,1-1.1-2.72h2.57a1.71,1.71,0,0,0,.5,1,2,2,0,0,0,2.55,0,1.71,1.71,0,0,0,.5-1Zm-6.39,9.49a2.63,2.63,0,0,0-.8,1.83,2.55,2.55,0,0,0,.77,1.82,2.81,2.81,0,0,0,1.8.75,2.56,2.56,0,0,0,1.8-.77,2.43,2.43,0,0,0,.75-1.8,2.49,2.49,0,0,0-.77-1.83A2.59,2.59,0,0,0,236,143,2.54,2.54,0,0,0,234.27,143.74Z"/><rect x="308.49" y="115.56" width="191.5" height="60" rx="12" ry="12" style="fill:none;stroke:#91c54f;stroke-miterlimit:10;stroke-width:3.32802739455736px"/><path d="M343.4,150.72a10.34,10.34,0,0,1-3.75.82,9.08,9.08,0,0,1-6.45-2.5,8.75,8.75,0,0,1-2.52-6.07,8.74,8.74,0,0,1,8.82-8.75,10.44,10.44,0,0,1,3.9.85v5.18a4.63,4.63,0,0,0-3.77-1.83,4.25,4.25,0,0,0-3,1.1,4.63,4.63,0,0,0-1.45,3.42,4.27,4.27,0,0,0,4.45,4.4,4.86,4.86,0,0,0,3.77-1.75Z"/><path d="M357,149.69a7.65,7.65,0,0,1-10,0,5.77,5.77,0,0,1,0-8.22,7,7,0,0,1,5-1.85,7.1,7.1,0,0,1,5,1.85,5.77,5.77,0,0,1,0,8.22Zm-6.78-5.95a2.49,2.49,0,0,0,0,3.6,2.51,2.51,0,0,0,3.58,0,2.44,2.44,0,0,0,.77-1.77,2.72,2.72,0,0,0-.77-1.83,2.59,2.59,0,0,0-3.58,0Z"/><path d="M361.05,140h4v1.35a4.29,4.29,0,0,1,3.35-1.55,4.49,4.49,0,0,1,2.15.5,3.45,3.45,0,0,1,1.55,1.59,3.92,3.92,0,0,1,1.52-1.54,4.55,4.55,0,0,1,2.33-.55,4.45,4.45,0,0,1,3.1,1,4.11,4.11,0,0,1,1.05,3.07v7.28h-4v-5.53a3.33,3.33,0,0,0-.58-2.4,1.44,1.44,0,0,0-1-.37,1.59,1.59,0,0,0-1.17.45,2.87,2.87,0,0,0-.73,2.12v5.73h-4v-5.53a3.59,3.59,0,0,0-.53-2.4,1.57,1.57,0,0,0-1.2-.45,1.44,1.44,0,0,0-1.1.4,3.31,3.31,0,0,0-.7,2.45v5.53h-4Z"/><path d="M386.88,156.89h-4V140h4v1.22a4.18,4.18,0,0,1,3.42-1.6,5.55,5.55,0,0,1,4,1.63,6.33,6.33,0,0,1-.1,8.74,5.34,5.34,0,0,1-3.82,1.55,4.75,4.75,0,0,1-3.47-1.45Zm.65-13.12a2.72,2.72,0,0,0-.78,1.85,2.66,2.66,0,0,0,.78,1.77,2.52,2.52,0,0,0,1.8.75,2.4,2.4,0,0,0,1.77-.75,2.65,2.65,0,0,0,.77-1.77,2.71,2.71,0,0,0-.77-1.85,2.4,2.4,0,0,0-1.77-.75A2.52,2.52,0,0,0,387.53,143.77Z"/><path d="M409.52,149.69a7.64,7.64,0,0,1-10,0,5.77,5.77,0,0,1,0-8.22,7.64,7.64,0,0,1,10,0,5.75,5.75,0,0,1,0,8.22Zm-6.77-5.95a2.49,2.49,0,0,0,0,3.6,2.51,2.51,0,0,0,3.58,0,2.44,2.44,0,0,0,.77-1.77,2.72,2.72,0,0,0-.77-1.83,2.59,2.59,0,0,0-3.58,0Z"/><path d="M413.55,140h4v1.4a4.22,4.22,0,0,1,3.55-1.65,4.51,4.51,0,0,1,3.3,1.2,3.84,3.84,0,0,1,1.05,3.12v7.1h-4v-5.65a3.25,3.25,0,0,0-.5-2.18,1.66,1.66,0,0,0-1.28-.47,2.19,2.19,0,0,0-1.47.52,2.58,2.58,0,0,0-.65,1.78v6h-4Z"/><path d="M440,146.32H431.7a2.83,2.83,0,0,0,.7,1.87,2.25,2.25,0,0,0,1.65.55,3.07,3.07,0,0,0,1.3-.3,1.83,1.83,0,0,0,.7-.75h3.82a4.91,4.91,0,0,1-1.35,2.3,6.06,6.06,0,0,1-4.55,1.55,6.32,6.32,0,0,1-4.62-1.7,6.31,6.31,0,0,1,0-8.54,6.27,6.27,0,0,1,4.57-1.63,6.14,6.14,0,0,1,4.3,1.53,6.24,6.24,0,0,1,1.77,4.69Zm-3.67-2.3a2.66,2.66,0,0,0-.65-1.2,2.31,2.31,0,0,0-1.65-.6,2.12,2.12,0,0,0-1.62.6,2.21,2.21,0,0,0-.6,1.2Z"/><path d="M442.33,140h4v1.4a4.19,4.19,0,0,1,3.54-1.65,4.49,4.49,0,0,1,3.3,1.2,3.84,3.84,0,0,1,1.05,3.12v7.1h-4v-5.65a3.19,3.19,0,0,0-.5-2.18,1.65,1.65,0,0,0-1.27-.47,2.2,2.2,0,0,0-1.48.52,2.63,2.63,0,0,0-.64,1.78v6h-4Z"/><path d="M461.38,143.27v7.9h-4v-7.9H456.1V140h1.28v-3.68h4V140h2.27v3.27Z"/><path d="M473.8,140h4v11.17h-4v-1.23a4.17,4.17,0,0,1-3.48,1.6,5.35,5.35,0,0,1-4-1.77,5.63,5.63,0,0,1-1.6-4.1,6.21,6.21,0,0,1,1.72-4.47,5.77,5.77,0,0,1,4-1.58,4.45,4.45,0,0,1,3.35,1.45Zm2.2-5.75a4,4,0,0,1-1.1,2.72,5.24,5.24,0,0,1-6.5,0,3.88,3.88,0,0,1-1.1-2.72h2.57a1.71,1.71,0,0,0,.5,1,2,2,0,0,0,1.28.45,2,2,0,0,0,1.27-.45,1.71,1.71,0,0,0,.5-1Zm-6.4,9.49a2.63,2.63,0,0,0-.8,1.83,2.55,2.55,0,0,0,.77,1.82,2.83,2.83,0,0,0,1.8.75,2.56,2.56,0,0,0,1.8-.77,2.43,2.43,0,0,0,.75-1.8,2.49,2.49,0,0,0-.77-1.83,2.57,2.57,0,0,0-1.8-.72A2.54,2.54,0,0,0,469.6,143.74Z"/><rect x="543.82" y="115.56" width="191.5" height="60" rx="12" ry="12" style="fill:none;stroke:#91c54f;stroke-miterlimit:10;stroke-width:3.32802739455736px"/><path d="M578.73,150.72a10.34,10.34,0,0,1-3.75.82,9.05,9.05,0,0,1-6.44-2.5A8.72,8.72,0,0,1,566,143a9,9,0,0,1,2.53-6.15,8.83,8.83,0,0,1,6.29-2.6,10.44,10.44,0,0,1,3.9.85v5.18a4.63,4.63,0,0,0-3.77-1.83,4.25,4.25,0,0,0-3,1.1,4.67,4.67,0,0,0-1.45,3.42,4.27,4.27,0,0,0,4.45,4.4,4.86,4.86,0,0,0,3.77-1.75Z"/><path d="M592.36,149.69a7.64,7.64,0,0,1-10,0,5.75,5.75,0,0,1,0-8.22,7,7,0,0,1,5-1.85,7.1,7.1,0,0,1,5,1.85,5.77,5.77,0,0,1,0,8.22Zm-6.77-5.95a2.47,2.47,0,0,0,0,3.6,2.5,2.5,0,0,0,3.57,0,2.44,2.44,0,0,0,.77-1.77,2.72,2.72,0,0,0-.77-1.83,2.57,2.57,0,0,0-3.57,0Z"/><path d="M596.39,140h4v1.35a4.26,4.26,0,0,1,3.34-1.55,4.49,4.49,0,0,1,2.15.5,3.45,3.45,0,0,1,1.55,1.59,3.93,3.93,0,0,1,1.53-1.54,4.51,4.51,0,0,1,2.32-.55,4.42,4.42,0,0,1,3.1,1,4.11,4.11,0,0,1,1,3.07v7.28h-4v-5.53a3.34,3.34,0,0,0-.57-2.4,1.48,1.48,0,0,0-1.05-.37,1.61,1.61,0,0,0-1.18.45,2.86,2.86,0,0,0-.72,2.12v5.73h-4v-5.53a3.59,3.59,0,0,0-.53-2.4,1.57,1.57,0,0,0-1.2-.45,1.44,1.44,0,0,0-1.1.4,3.34,3.34,0,0,0-.69,2.45v5.53h-4Z"/><path d="M622.21,156.89h-4V140h4v1.22a4.18,4.18,0,0,1,3.42-1.6,5.56,5.56,0,0,1,4,1.63,6.33,6.33,0,0,1-.1,8.74,5.35,5.35,0,0,1-3.83,1.55,4.75,4.75,0,0,1-3.47-1.45Zm.65-13.12a2.72,2.72,0,0,0-.78,1.85,2.66,2.66,0,0,0,.78,1.77,2.52,2.52,0,0,0,1.8.75,2.38,2.38,0,0,0,1.77-.75,2.61,2.61,0,0,0,.78-1.77,2.72,2.72,0,0,0-.78-1.85,2.38,2.38,0,0,0-1.77-.75A2.52,2.52,0,0,0,622.86,143.77Z"/><path d="M644.86,149.69a7.64,7.64,0,0,1-10,0,5.75,5.75,0,0,1,0-8.22,6.94,6.94,0,0,1,5-1.85,7.1,7.1,0,0,1,5,1.85,5.77,5.77,0,0,1,0,8.22Zm-6.78-5.95a2.49,2.49,0,0,0,0,3.6,2.51,2.51,0,0,0,3.58,0,2.44,2.44,0,0,0,.77-1.77,2.72,2.72,0,0,0-.77-1.83,2.59,2.59,0,0,0-3.58,0Z"/><path d="M648.89,140h4v1.4a4.22,4.22,0,0,1,3.55-1.65,4.49,4.49,0,0,1,3.3,1.2,3.84,3.84,0,0,1,1,3.12v7.1h-4v-5.65a3.19,3.19,0,0,0-.5-2.18,1.65,1.65,0,0,0-1.27-.47,2.2,2.2,0,0,0-1.48.52,2.58,2.58,0,0,0-.65,1.78v6h-4Z"/><path d="M675.36,146.32H667a2.83,2.83,0,0,0,.7,1.87,2.25,2.25,0,0,0,1.65.55,3.07,3.07,0,0,0,1.3-.3,1.83,1.83,0,0,0,.7-.75h3.83a5.09,5.09,0,0,1-1.35,2.3,6.09,6.09,0,0,1-4.55,1.55,6.33,6.33,0,0,1-4.63-1.7,6.31,6.31,0,0,1,0-8.54,6.27,6.27,0,0,1,4.57-1.63,6.12,6.12,0,0,1,4.3,1.53,6.21,6.21,0,0,1,1.78,4.69Zm-3.68-2.3a2.66,2.66,0,0,0-.65-1.2,2.3,2.3,0,0,0-1.65-.6,2.12,2.12,0,0,0-1.62.6,2.21,2.21,0,0,0-.6,1.2Z"/><path d="M677.66,140h4v1.4a4.21,4.21,0,0,1,3.55-1.65,4.51,4.51,0,0,1,3.3,1.2,3.84,3.84,0,0,1,1,3.12v7.1h-4v-5.65a3.25,3.25,0,0,0-.5-2.18,1.69,1.69,0,0,0-1.28-.47,2.17,2.17,0,0,0-1.47.52,2.58,2.58,0,0,0-.65,1.78v6h-4Z"/><path d="M696.71,143.27v7.9h-4v-7.9h-1.28V140h1.28v-3.68h4V140H699v3.27Z"/><path d="M709.13,140h4v11.17h-4v-1.23a4.15,4.15,0,0,1-3.47,1.6,5.37,5.37,0,0,1-4-1.77,5.67,5.67,0,0,1-1.6-4.1,6.17,6.17,0,0,1,1.73-4.47,5.74,5.74,0,0,1,4-1.58,4.43,4.43,0,0,1,3.35,1.45Zm2.2-5.75a3.88,3.88,0,0,1-1.1,2.72,5.24,5.24,0,0,1-6.5,0,4,4,0,0,1-1.1-2.72h2.58a1.71,1.71,0,0,0,.5,1,2,2,0,0,0,1.27.45,2,2,0,0,0,1.28-.45,1.71,1.71,0,0,0,.5-1Zm-6.4,9.49a2.63,2.63,0,0,0-.8,1.83,2.56,2.56,0,0,0,.78,1.82,2.79,2.79,0,0,0,1.8.75,2.56,2.56,0,0,0,1.8-.77,2.43,2.43,0,0,0,.75-1.8,2.46,2.46,0,0,0-.78-1.83,2.55,2.55,0,0,0-3.55,0Z"/><rect x="779.15" y="115.56" width="191.5" height="60" rx="12" ry="12" style="fill:none;stroke:#91c54f;stroke-miterlimit:10;stroke-width:3.32802739455736px"/><path d="M814.07,150.72a10.42,10.42,0,0,1-3.75.82,9.06,9.06,0,0,1-6.45-2.5,8.71,8.71,0,0,1-2.52-6.07,8.94,8.94,0,0,1,2.52-6.15,8.84,8.84,0,0,1,6.3-2.6,10.44,10.44,0,0,1,3.9.85v5.18a4.64,4.64,0,0,0-3.78-1.83,4.25,4.25,0,0,0-3,1.1,4.67,4.67,0,0,0-1.45,3.42,4.27,4.27,0,0,0,4.45,4.4,4.89,4.89,0,0,0,3.78-1.75Z"/><path d="M827.69,149.69a7.64,7.64,0,0,1-10,0,5.75,5.75,0,0,1,0-8.22,7,7,0,0,1,5-1.85,7.06,7.06,0,0,1,5,1.85,5.75,5.75,0,0,1,0,8.22Zm-6.77-5.95a2.47,2.47,0,0,0,0,3.6,2.5,2.5,0,0,0,3.57,0,2.45,2.45,0,0,0,.78-1.77,2.73,2.73,0,0,0-.78-1.83,2.57,2.57,0,0,0-3.57,0Z"/><path d="M831.72,140h4v1.35a4.29,4.29,0,0,1,3.35-1.55,4.49,4.49,0,0,1,2.15.5,3.55,3.55,0,0,1,1.55,1.59,3.92,3.92,0,0,1,1.52-1.54,4.55,4.55,0,0,1,2.33-.55,4.41,4.41,0,0,1,3.09,1,4.11,4.11,0,0,1,1,3.07v7.28h-4v-5.53a3.33,3.33,0,0,0-.58-2.4,1.44,1.44,0,0,0-1.05-.37,1.59,1.59,0,0,0-1.17.45,2.83,2.83,0,0,0-.73,2.12v5.73h-4v-5.53a3.59,3.59,0,0,0-.52-2.4,1.57,1.57,0,0,0-1.2-.45,1.41,1.41,0,0,0-1.1.4,3.31,3.31,0,0,0-.7,2.45v5.53h-4Z"/><path d="M857.54,156.89h-4V140h4v1.22a4.2,4.2,0,0,1,3.43-1.6,5.55,5.55,0,0,1,4,1.63,6.33,6.33,0,0,1-.1,8.74,5.34,5.34,0,0,1-3.82,1.55,4.76,4.76,0,0,1-3.48-1.45Zm.65-13.12a2.51,2.51,0,0,0,0,3.62,2.55,2.55,0,0,0,1.8.75,2.41,2.41,0,0,0,1.78-.75,2.65,2.65,0,0,0,.77-1.77,2.71,2.71,0,0,0-.77-1.85A2.41,2.41,0,0,0,860,143,2.55,2.55,0,0,0,858.19,143.77Z"/><path d="M880.19,149.69a7.64,7.64,0,0,1-10,0,5.75,5.75,0,0,1,0-8.22,7,7,0,0,1,5-1.85,7.06,7.06,0,0,1,5,1.85,5.75,5.75,0,0,1,0,8.22Zm-6.77-5.95a2.47,2.47,0,0,0,0,3.6,2.5,2.5,0,0,0,3.57,0,2.45,2.45,0,0,0,.78-1.77,2.73,2.73,0,0,0-.78-1.83,2.57,2.57,0,0,0-3.57,0Z"/><path d="M884.22,140h4v1.4a4.21,4.21,0,0,1,3.55-1.65,4.51,4.51,0,0,1,3.3,1.2,3.83,3.83,0,0,1,1,3.12v7.1h-4v-5.65a3.25,3.25,0,0,0-.5-2.18,1.69,1.69,0,0,0-1.28-.47,2.17,2.17,0,0,0-1.47.52,2.58,2.58,0,0,0-.65,1.78v6h-4Z"/><path d="M910.69,146.32h-8.32a2.78,2.78,0,0,0,.7,1.87,2.25,2.25,0,0,0,1.65.55,3.07,3.07,0,0,0,1.3-.3,1.9,1.9,0,0,0,.7-.75h3.82a5,5,0,0,1-1.35,2.3,6.06,6.06,0,0,1-4.55,1.55,6.31,6.31,0,0,1-4.62-1.7,5.82,5.82,0,0,1-1.65-4.22A5.94,5.94,0,0,1,900,141.3a6.31,6.31,0,0,1,4.58-1.63,6.14,6.14,0,0,1,4.3,1.53,6.24,6.24,0,0,1,1.77,4.69ZM907,144a2.66,2.66,0,0,0-.65-1.2,2.31,2.31,0,0,0-1.65-.6,2.14,2.14,0,0,0-1.63.6,2.36,2.36,0,0,0-.6,1.2Z"/><path d="M913,140h4v1.4a4.22,4.22,0,0,1,3.55-1.65,4.51,4.51,0,0,1,3.3,1.2,3.84,3.84,0,0,1,1,3.12v7.1h-4v-5.65a3.19,3.19,0,0,0-.5-2.18,1.65,1.65,0,0,0-1.27-.47,2.2,2.2,0,0,0-1.48.52,2.58,2.58,0,0,0-.65,1.78v6h-4Z"/><path d="M932,143.27v7.9h-4v-7.9h-1.27V140H928v-3.68h4V140h2.28v3.27Z"/><path d="M944.46,140h4v11.17h-4v-1.23a4.15,4.15,0,0,1-3.47,1.6,5.35,5.35,0,0,1-4-1.77,5.63,5.63,0,0,1-1.6-4.1,6.17,6.17,0,0,1,1.72-4.47,5.77,5.77,0,0,1,4-1.58,4.42,4.42,0,0,1,3.34,1.45Zm2.2-5.75a3.88,3.88,0,0,1-1.1,2.72,5.22,5.22,0,0,1-6.49,0,3.88,3.88,0,0,1-1.1-2.72h2.57a1.71,1.71,0,0,0,.5,1,2,2,0,0,0,2.55,0,1.71,1.71,0,0,0,.5-1Zm-6.39,9.49a2.63,2.63,0,0,0-.8,1.83,2.55,2.55,0,0,0,.77,1.82,2.81,2.81,0,0,0,1.8.75,2.56,2.56,0,0,0,1.8-.77,2.43,2.43,0,0,0,.75-1.8,2.49,2.49,0,0,0-.77-1.83A2.59,2.59,0,0,0,942,143,2.54,2.54,0,0,0,940.27,143.74Z"/><path d="M411.4,51.87a7,7,0,0,0,4.59,2,2.63,2.63,0,0,0,2-.69,1.79,1.79,0,0,0,.51-1.26,1.56,1.56,0,0,0-.57-1.2,7.21,7.21,0,0,0-2.58-1L414,49.29a6.54,6.54,0,0,1-2.88-1.62A5,5,0,0,1,410,44.13a6.54,6.54,0,0,1,1.83-4.83A7.05,7.05,0,0,1,417,37.41,14.06,14.06,0,0,1,423.13,39l-2.07,4a5.28,5.28,0,0,0-3.42-1.35,2.49,2.49,0,0,0-1.71.6,1.48,1.48,0,0,0-.51,1.08,1.34,1.34,0,0,0,.27.9,3.28,3.28,0,0,0,1.74.9l1.59.48a7.64,7.64,0,0,1,3.63,2,4.72,4.72,0,0,1,1.29,3.57,6.78,6.78,0,0,1-1.89,5,7.76,7.76,0,0,1-5.91,2,10.7,10.7,0,0,1-3.93-.66,14,14,0,0,1-3-1.59Z"/><path d="M429.16,36.18a2.7,2.7,0,1,1-2.7,2.7A2.69,2.69,0,0,1,429.16,36.18Zm2.4,8.28V57.87h-4.8V44.46Z"/><path d="M435.7,53.43a6.87,6.87,0,0,0,1.92,1,6.25,6.25,0,0,0,1.86.33,2,2,0,0,0,1.23-.36.77.77,0,0,0,.24-.63.71.71,0,0,0-.24-.6,3,3,0,0,0-1.26-.48l-1.26-.3a4.31,4.31,0,0,1-2.34-1.17A3.24,3.24,0,0,1,435,48.9a4.79,4.79,0,0,1,1.26-3.27A6.77,6.77,0,0,1,441,44a11.07,11.07,0,0,1,4.29.87l-1.62,3.06a6.64,6.64,0,0,0-2.52-.66,2,2,0,0,0-1.11.27.72.72,0,0,0-.42.66.78.78,0,0,0,.57.75c.45.18.84.18,1.59.39l.87.24a5.67,5.67,0,0,1,2,1,3.79,3.79,0,0,1,1,2.67,4.48,4.48,0,0,1-1.35,3.33,7,7,0,0,1-4.95,1.68,9.89,9.89,0,0,1-5.4-1.56Z"/><path d="M453.46,48.39v9.48h-4.8V48.39h-1.53V44.46h1.53V40.05h4.8v4.41h2.73v3.93Z"/><path d="M472.21,52.05h-10a3.39,3.39,0,0,0,.84,2.25,2.7,2.7,0,0,0,2,.66,3.79,3.79,0,0,0,1.56-.36,2.23,2.23,0,0,0,.84-.9H472a6,6,0,0,1-1.62,2.76c-1,1-2.55,1.86-5.46,1.86a7.61,7.61,0,0,1-5.55-2,7,7,0,0,1-2-5.07,7.16,7.16,0,0,1,2-5.19,7.55,7.55,0,0,1,5.49-2,7.35,7.35,0,0,1,5.16,1.83,7.51,7.51,0,0,1,2.13,5.64Zm-4.41-2.76a3.22,3.22,0,0,0-.78-1.44,2.8,2.8,0,0,0-2-.72,2.58,2.58,0,0,0-2,.72,2.74,2.74,0,0,0-.72,1.44Z"/><path d="M475,44.46h4.8v1.62a5.15,5.15,0,0,1,4-1.86,5.46,5.46,0,0,1,2.58.6,4.19,4.19,0,0,1,1.86,1.92,4.71,4.71,0,0,1,1.83-1.86,5.44,5.44,0,0,1,2.79-.66,5.33,5.33,0,0,1,3.72,1.23,4.93,4.93,0,0,1,1.26,3.69v8.73H493V51.24c0-1.41-.15-2.37-.69-2.88a1.75,1.75,0,0,0-1.26-.45,1.94,1.94,0,0,0-1.41.54A3.43,3.43,0,0,0,488.8,51v6.87H484V51.24a4.29,4.29,0,0,0-.63-2.88,1.86,1.86,0,0,0-1.44-.54,1.69,1.69,0,0,0-1.32.48,4,4,0,0,0-.84,2.94v6.63H475Z"/><path d="M508.15,44.46H513v1.62a5.15,5.15,0,0,1,4-1.86,5.46,5.46,0,0,1,2.58.6,4.19,4.19,0,0,1,1.86,1.92,4.71,4.71,0,0,1,1.83-1.86,5.44,5.44,0,0,1,2.79-.66,5.33,5.33,0,0,1,3.72,1.23A4.93,4.93,0,0,1,531,49.14v8.73h-4.8V51.24c0-1.41-.15-2.37-.69-2.88a1.75,1.75,0,0,0-1.26-.45,1.94,1.94,0,0,0-1.41.54A3.43,3.43,0,0,0,522,51v6.87h-4.8V51.24a4.29,4.29,0,0,0-.63-2.88,1.86,1.86,0,0,0-1.44-.54,1.69,1.69,0,0,0-1.32.48,4,4,0,0,0-.84,2.94v6.63h-4.8Z"/><path d="M547.84,56.1a9.18,9.18,0,0,1-12,0,6.92,6.92,0,0,1,0-9.87,8.37,8.37,0,0,1,6-2.22,8.47,8.47,0,0,1,6,2.22,6.92,6.92,0,0,1,0,9.87ZM539.71,49a3.06,3.06,0,0,0,2.16,5.22,3.05,3.05,0,0,0,2.13-.9,3,3,0,0,0,.93-2.13A3.26,3.26,0,0,0,544,49a3.08,3.08,0,0,0-4.29,0Z"/><path d="M567.85,57.87h-4.8V56.4a4.92,4.92,0,0,1-4,1.92,6.42,6.42,0,0,1-4.71-1.86,7.4,7.4,0,0,1-2.16-5.34,7.31,7.31,0,0,1,2.19-5.31,6.86,6.86,0,0,1,4.74-1.8,5.31,5.31,0,0,1,4,1.74V36h4.8Zm-5.67-4.44a3.22,3.22,0,0,0,1-2.28,3.51,3.51,0,0,0-.9-2.16A3.08,3.08,0,0,0,558,49a3.29,3.29,0,0,0-.93,2.28,3,3,0,0,0,.93,2.1,3,3,0,0,0,2.13.9A3.28,3.28,0,0,0,562.18,53.43Z"/><path d="M576,44.46V52a2.57,2.57,0,0,0,.72,1.95,2.48,2.48,0,0,0,1.68.51,2.24,2.24,0,0,0,1.71-.57,2.49,2.49,0,0,0,.69-1.89v-7.5h4.8v8.37a4.6,4.6,0,0,1-1.29,3.6c-1.65,1.71-4,1.89-5.79,1.89-2,0-4.47-.21-6.06-1.92a4.82,4.82,0,0,1-1.26-3.57V44.46Z"/><path d="M593.65,36V57.87h-4.8V36Z"/><path d="M607.3,44.46h4.8V57.87h-4.8V56.4a5,5,0,0,1-4.17,1.92,6.42,6.42,0,0,1-4.83-2.13,6.76,6.76,0,0,1-1.92-4.92,7.42,7.42,0,0,1,2.07-5.37A6.9,6.9,0,0,1,603.28,44a5.31,5.31,0,0,1,4,1.74Zm-5,4.5a3.14,3.14,0,0,0-1,2.19,3.09,3.09,0,0,0,.93,2.19,3.37,3.37,0,0,0,2.16.9,3.08,3.08,0,0,0,2.16-.93,2.91,2.91,0,0,0,.9-2.16,3,3,0,0,0-.93-2.19,3,3,0,0,0-4.26,0Z"/><path d="M615.4,44.46h4.8v2.19a4.33,4.33,0,0,1,1.89-1.86,5.24,5.24,0,0,1,2.49-.54l1,.06v4.53a4.23,4.23,0,0,0-2.07-.48,3.14,3.14,0,0,0-2.19.72,4,4,0,0,0-1.08,3.06v5.73h-4.8Z"/><polygon points="157.15 185.26 157.15 257.75 146.7 257.75 168.91 279.95 191.11 257.75 180.66 257.75 180.66 185.26 157.15 185.26" style="fill:#fff;stroke:#91c54f;stroke-miterlimit:10;stroke-width:5px"/><rect x="73.15" y="297.56" width="191.5" height="94.94" rx="12" ry="12" style="fill:none;stroke:#4fc2c9;stroke-miterlimit:10;stroke-width:5px"/><path d="M120.76,315.86a6.47,6.47,0,0,1,4.89,1.77,6.59,6.59,0,0,1,1.71,4.5,5.77,5.77,0,0,1-1.59,4.17,5.61,5.61,0,0,1-2.76,1.38l6.27,8.19h-6.45l-5-7.68v7.68h-5.19v-20Zm-2.91,9h1a3.9,3.9,0,0,0,2.52-.81,2.49,2.49,0,0,0,.66-1.68,2.36,2.36,0,0,0-.69-1.68,3.52,3.52,0,0,0-2.49-.78h-1Z"/><path d="M145.24,330.05h-10a3.39,3.39,0,0,0,.84,2.25,2.7,2.7,0,0,0,2,.66,3.79,3.79,0,0,0,1.56-.36,2.23,2.23,0,0,0,.84-.9h4.59a6,6,0,0,1-1.62,2.76c-1,1-2.55,1.86-5.46,1.86a7.61,7.61,0,0,1-5.55-2,7,7,0,0,1-2-5.07,7.16,7.16,0,0,1,2-5.19,7.55,7.55,0,0,1,5.49-1.95,7.35,7.35,0,0,1,5.16,1.83,7.51,7.51,0,0,1,2.13,5.64Zm-4.41-2.76a3.22,3.22,0,0,0-.78-1.44,2.8,2.8,0,0,0-2-.72,2.58,2.58,0,0,0-1.95.72,2.74,2.74,0,0,0-.72,1.44Z"/><path d="M148.87,331.43a6.87,6.87,0,0,0,1.92,1,6.25,6.25,0,0,0,1.86.33,2,2,0,0,0,1.23-.36.77.77,0,0,0,.24-.63.71.71,0,0,0-.24-.6,3,3,0,0,0-1.26-.48l-1.26-.3a4.31,4.31,0,0,1-2.34-1.17,3.24,3.24,0,0,1-.87-2.31,4.79,4.79,0,0,1,1.26-3.27,6.77,6.77,0,0,1,4.8-1.62,11.07,11.07,0,0,1,4.29.87l-1.62,3.06a6.64,6.64,0,0,0-2.52-.66,2,2,0,0,0-1.11.27.72.72,0,0,0-.42.66.78.78,0,0,0,.57.75c.45.18.84.18,1.59.39l.87.24a5.67,5.67,0,0,1,2,1.05,3.79,3.79,0,0,1,1,2.67,4.48,4.48,0,0,1-1.35,3.33,7,7,0,0,1-4.95,1.68,9.89,9.89,0,0,1-5.4-1.56Z"/><path d="M166.12,322.46V330a2.57,2.57,0,0,0,.72,2,2.48,2.48,0,0,0,1.68.51,2.24,2.24,0,0,0,1.71-.57,2.49,2.49,0,0,0,.69-1.89v-7.5h4.8v8.37a4.6,4.6,0,0,1-1.29,3.6c-1.65,1.71-4,1.89-5.79,1.89-2,0-4.47-.21-6.06-1.92a4.82,4.82,0,0,1-1.26-3.57v-8.37Z"/><path d="M179,322.46h4.8v2.19a4.33,4.33,0,0,1,1.89-1.86,5.24,5.24,0,0,1,2.49-.54l1,.06v4.53a4.23,4.23,0,0,0-2.07-.48,3.14,3.14,0,0,0-2.19.72,4,4,0,0,0-1.08,3.06v5.73H179Z"/><path d="M192.16,331.43a6.87,6.87,0,0,0,1.92,1,6.25,6.25,0,0,0,1.86.33,2,2,0,0,0,1.23-.36.77.77,0,0,0,.24-.63.71.71,0,0,0-.24-.6,3,3,0,0,0-1.26-.48l-1.26-.3a4.31,4.31,0,0,1-2.34-1.17,3.24,3.24,0,0,1-.87-2.31,4.79,4.79,0,0,1,1.26-3.27,6.77,6.77,0,0,1,4.8-1.62,11.07,11.07,0,0,1,4.29.87l-1.62,3.06a6.64,6.64,0,0,0-2.52-.66,2,2,0,0,0-1.11.27.72.72,0,0,0-.42.66.78.78,0,0,0,.57.75c.45.18.84.18,1.59.39l.87.24a5.67,5.67,0,0,1,2,1.05,3.79,3.79,0,0,1,1,2.67,4.48,4.48,0,0,1-1.35,3.33,7,7,0,0,1-5,1.68,9.89,9.89,0,0,1-5.4-1.56Z"/><path d="M215,322.46h4.8v13.41H215V334.4a5,5,0,0,1-4.17,1.92,6.42,6.42,0,0,1-4.83-2.13,6.76,6.76,0,0,1-1.92-4.92,7.42,7.42,0,0,1,2.07-5.37A6.9,6.9,0,0,1,211,322a5.31,5.31,0,0,1,4,1.74Zm2.64-6.9a4.73,4.73,0,0,1-1.32,3.27,6.31,6.31,0,0,1-7.8,0,4.73,4.73,0,0,1-1.32-3.27h3.09a2.08,2.08,0,0,0,.6,1.23,2.44,2.44,0,0,0,3.06,0,2.08,2.08,0,0,0,.6-1.23ZM210,327a3.14,3.14,0,0,0-1,2.19,3.09,3.09,0,0,0,.93,2.19,3.37,3.37,0,0,0,2.16.9,3.08,3.08,0,0,0,2.16-.93,2.91,2.91,0,0,0,.9-2.16,3,3,0,0,0-.93-2.19,3,3,0,0,0-4.26,0Z"/><path d="M104.19,358.46H109v1.68a5.06,5.06,0,0,1,4.26-2,5.42,5.42,0,0,1,4,1.44,4.62,4.62,0,0,1,1.26,3.75v8.52h-4.8v-6.78a3.85,3.85,0,0,0-.6-2.61,2,2,0,0,0-1.53-.57,2.63,2.63,0,0,0-1.77.63,3.08,3.08,0,0,0-.78,2.13v7.2h-4.8Z"/><path d="M136,366.05H126a3.39,3.39,0,0,0,.84,2.25,2.7,2.7,0,0,0,2,.66,3.79,3.79,0,0,0,1.56-.36,2.23,2.23,0,0,0,.84-.9h4.59a6,6,0,0,1-1.62,2.76c-1,1-2.55,1.86-5.46,1.86a7.61,7.61,0,0,1-5.55-2,7,7,0,0,1-2-5.07,7.16,7.16,0,0,1,2-5.19,7.55,7.55,0,0,1,5.49-1.95,7.35,7.35,0,0,1,5.16,1.83,7.55,7.55,0,0,1,2.13,5.64Zm-4.41-2.76a3.22,3.22,0,0,0-.78-1.44,2.8,2.8,0,0,0-2-.72,2.58,2.58,0,0,0-1.95.72,2.74,2.74,0,0,0-.72,1.44Z"/><path d="M148.85,371.57a7.08,7.08,0,0,1-3.32.75,7.41,7.41,0,0,1-5.28-2,7,7,0,0,1-2.07-5,7.34,7.34,0,0,1,2.15-5.19,7.78,7.78,0,0,1,5.41-2,6.82,6.82,0,0,1,3.11.75v4a4.27,4.27,0,0,0-2.48-.87,3.11,3.11,0,0,0-2.34.93,3.28,3.28,0,0,0-.94,2.31,3.46,3.46,0,0,0,.85,2.25,3.24,3.24,0,0,0,2.46,1,3.61,3.61,0,0,0,2.45-.9Z"/><path d="M165.8,366.05h-10a3.39,3.39,0,0,0,.84,2.25,2.7,2.7,0,0,0,2,.66,3.79,3.79,0,0,0,1.56-.36,2.23,2.23,0,0,0,.84-.9h4.59a6,6,0,0,1-1.62,2.76c-1,1-2.55,1.86-5.46,1.86a7.61,7.61,0,0,1-5.55-2,7,7,0,0,1-2-5.07,7.16,7.16,0,0,1,2-5.19,7.55,7.55,0,0,1,5.49-1.95,7.35,7.35,0,0,1,5.16,1.83,7.51,7.51,0,0,1,2.13,5.64Zm-4.41-2.76a3.22,3.22,0,0,0-.78-1.44,2.8,2.8,0,0,0-2-.72,2.58,2.58,0,0,0-1.95.72,2.74,2.74,0,0,0-.72,1.44Z"/><path d="M169.43,367.43a6.87,6.87,0,0,0,1.92,1,6.25,6.25,0,0,0,1.86.33,2,2,0,0,0,1.23-.36.77.77,0,0,0,.24-.63.71.71,0,0,0-.24-.6,3,3,0,0,0-1.26-.48l-1.26-.3a4.31,4.31,0,0,1-2.34-1.17,3.24,3.24,0,0,1-.87-2.31,4.79,4.79,0,0,1,1.26-3.27,6.77,6.77,0,0,1,4.8-1.62,11.07,11.07,0,0,1,4.29.87l-1.62,3.06a6.64,6.64,0,0,0-2.52-.66,2,2,0,0,0-1.11.27.72.72,0,0,0-.42.66.78.78,0,0,0,.57.75c.45.18.84.18,1.59.39l.87.24a5.67,5.67,0,0,1,2,1.05,3.79,3.79,0,0,1,1,2.67,4.48,4.48,0,0,1-1.35,3.33,7,7,0,0,1-4.95,1.68,9.89,9.89,0,0,1-5.4-1.56Z"/><path d="M192.26,358.46h4.8v13.41h-4.8V370.4a5,5,0,0,1-4.17,1.92,6.42,6.42,0,0,1-4.83-2.13,6.76,6.76,0,0,1-1.92-4.92,7.42,7.42,0,0,1,2.07-5.37,6.9,6.9,0,0,1,4.83-1.89,5.31,5.31,0,0,1,4,1.74Zm-5,4.5a3.14,3.14,0,0,0-1,2.19,3.09,3.09,0,0,0,.93,2.19,3.37,3.37,0,0,0,2.16.9,3.08,3.08,0,0,0,2.16-.93,2.91,2.91,0,0,0,.9-2.16,3,3,0,0,0-.93-2.19,3,3,0,0,0-4.26,0Z"/><path d="M200.36,358.46h4.8v2.19a4.33,4.33,0,0,1,1.89-1.86,5.24,5.24,0,0,1,2.49-.54l1,.06v4.53a4.23,4.23,0,0,0-2.07-.48,3.14,3.14,0,0,0-2.19.72,4,4,0,0,0-1.08,3.06v5.73h-4.8Z"/><path d="M223,358.46h4.8v13.41H223V370.4a5,5,0,0,1-4.17,1.92,6.42,6.42,0,0,1-4.83-2.13,6.76,6.76,0,0,1-1.92-4.92,7.42,7.42,0,0,1,2.07-5.37A6.9,6.9,0,0,1,219,358a5.31,5.31,0,0,1,4,1.74Zm2.64-6.9a4.73,4.73,0,0,1-1.32,3.27,6.31,6.31,0,0,1-7.8,0,4.73,4.73,0,0,1-1.32-3.27h3.09a2.08,2.08,0,0,0,.6,1.23,2.44,2.44,0,0,0,3.06,0,2.08,2.08,0,0,0,.6-1.23ZM218,363a3.14,3.14,0,0,0-1,2.19,3.09,3.09,0,0,0,.93,2.19,3.37,3.37,0,0,0,2.16.9,3.08,3.08,0,0,0,2.16-.93,2.91,2.91,0,0,0,.9-2.16,3,3,0,0,0-.93-2.19,3,3,0,0,0-4.26,0Z"/><polygon points="392.48 185.26 392.48 257.75 382.04 257.75 404.24 279.95 426.44 257.75 415.99 257.75 415.99 185.26 392.48 185.26" style="fill:#fff;stroke:#91c54f;stroke-miterlimit:10;stroke-width:5px"/><rect x="308.49" y="297.56" width="191.5" height="94.94" rx="12" ry="12" style="fill:none;stroke:#4fc2c9;stroke-miterlimit:10;stroke-width:5px"/><path d="M356.09,315.86a6.47,6.47,0,0,1,4.89,1.77,6.59,6.59,0,0,1,1.71,4.5,5.77,5.77,0,0,1-1.59,4.17,5.61,5.61,0,0,1-2.76,1.38l6.27,8.19h-6.45l-5-7.68v7.68H348v-20Zm-2.91,9h1a3.9,3.9,0,0,0,2.52-.81,2.49,2.49,0,0,0,.66-1.68,2.36,2.36,0,0,0-.69-1.68,3.52,3.52,0,0,0-2.49-.78h-1Z"/><path d="M380.57,330.05h-10a3.39,3.39,0,0,0,.84,2.25,2.7,2.7,0,0,0,2,.66,3.79,3.79,0,0,0,1.56-.36,2.23,2.23,0,0,0,.84-.9h4.59a6,6,0,0,1-1.62,2.76c-1,1-2.55,1.86-5.46,1.86a7.61,7.61,0,0,1-5.55-2,7,7,0,0,1-2-5.07,7.16,7.16,0,0,1,2-5.19,7.55,7.55,0,0,1,5.49-1.95,7.35,7.35,0,0,1,5.16,1.83,7.51,7.51,0,0,1,2.13,5.64Zm-4.41-2.76a3.22,3.22,0,0,0-.78-1.44,2.8,2.8,0,0,0-2-.72,2.58,2.58,0,0,0-1.95.72,2.74,2.74,0,0,0-.72,1.44Z"/><path d="M384.2,331.43a6.87,6.87,0,0,0,1.92,1,6.25,6.25,0,0,0,1.86.33,2,2,0,0,0,1.23-.36.77.77,0,0,0,.24-.63.71.71,0,0,0-.24-.6,3,3,0,0,0-1.26-.48l-1.26-.3a4.31,4.31,0,0,1-2.34-1.17,3.24,3.24,0,0,1-.87-2.31,4.79,4.79,0,0,1,1.26-3.27,6.77,6.77,0,0,1,4.8-1.62,11.07,11.07,0,0,1,4.29.87l-1.62,3.06a6.64,6.64,0,0,0-2.52-.66,2,2,0,0,0-1.11.27.72.72,0,0,0-.42.66.78.78,0,0,0,.57.75c.45.18.84.18,1.59.39l.87.24a5.67,5.67,0,0,1,2,1.05,3.79,3.79,0,0,1,1,2.67,4.48,4.48,0,0,1-1.35,3.33,7,7,0,0,1-4.95,1.68,9.89,9.89,0,0,1-5.4-1.56Z"/><path d="M401.45,322.46V330a2.57,2.57,0,0,0,.72,2,2.48,2.48,0,0,0,1.68.51,2.24,2.24,0,0,0,1.71-.57,2.49,2.49,0,0,0,.69-1.89v-7.5h4.8v8.37a4.6,4.6,0,0,1-1.29,3.6c-1.65,1.71-4,1.89-5.79,1.89-2,0-4.47-.21-6.06-1.92a4.82,4.82,0,0,1-1.26-3.57v-8.37Z"/><path d="M414.35,322.46h4.8v2.19a4.33,4.33,0,0,1,1.89-1.86,5.24,5.24,0,0,1,2.49-.54l1,.06v4.53a4.23,4.23,0,0,0-2.07-.48,3.14,3.14,0,0,0-2.19.72,4,4,0,0,0-1.08,3.06v5.73h-4.8Z"/><path d="M427.49,331.43a6.87,6.87,0,0,0,1.92,1,6.25,6.25,0,0,0,1.86.33,2,2,0,0,0,1.23-.36.77.77,0,0,0,.24-.63.71.71,0,0,0-.24-.6,3,3,0,0,0-1.26-.48l-1.26-.3a4.31,4.31,0,0,1-2.34-1.17,3.24,3.24,0,0,1-.87-2.31,4.79,4.79,0,0,1,1.26-3.27,6.77,6.77,0,0,1,4.8-1.62,11.07,11.07,0,0,1,4.29.87l-1.62,3.06a6.64,6.64,0,0,0-2.52-.66,2,2,0,0,0-1.11.27.72.72,0,0,0-.42.66.78.78,0,0,0,.57.75c.45.18.84.18,1.59.39l.87.24a5.67,5.67,0,0,1,2,1.05,3.79,3.79,0,0,1,1,2.67,4.48,4.48,0,0,1-1.35,3.33,7,7,0,0,1-4.95,1.68,9.89,9.89,0,0,1-5.4-1.56Z"/><path d="M450.32,322.46h4.8v13.41h-4.8V334.4a5,5,0,0,1-4.17,1.92,6.42,6.42,0,0,1-4.83-2.13,6.76,6.76,0,0,1-1.92-4.92,7.42,7.42,0,0,1,2.07-5.37A6.9,6.9,0,0,1,446.3,322a5.31,5.31,0,0,1,4,1.74Zm2.64-6.9a4.73,4.73,0,0,1-1.32,3.27,6.31,6.31,0,0,1-7.8,0,4.73,4.73,0,0,1-1.32-3.27h3.09a2.08,2.08,0,0,0,.6,1.23,2.44,2.44,0,0,0,3.06,0,2.08,2.08,0,0,0,.6-1.23ZM445.28,327a3.14,3.14,0,0,0-1,2.19,3.09,3.09,0,0,0,.93,2.19,3.37,3.37,0,0,0,2.16.9,3.08,3.08,0,0,0,2.16-.93,2.91,2.91,0,0,0,.9-2.16,3,3,0,0,0-.93-2.19,3,3,0,0,0-4.26,0Z"/><path d="M339.52,358.46h4.8v1.68a5.06,5.06,0,0,1,4.26-2,5.42,5.42,0,0,1,4,1.44,4.62,4.62,0,0,1,1.26,3.75v8.52H349v-6.78a3.85,3.85,0,0,0-.6-2.61,2,2,0,0,0-1.53-.57,2.63,2.63,0,0,0-1.77.63,3.08,3.08,0,0,0-.78,2.13v7.2h-4.8Z"/><path d="M371.29,366.05h-10a3.39,3.39,0,0,0,.84,2.25,2.7,2.7,0,0,0,2,.66,3.79,3.79,0,0,0,1.56-.36,2.23,2.23,0,0,0,.84-.9h4.59a6,6,0,0,1-1.62,2.76c-1,1-2.55,1.86-5.46,1.86a7.61,7.61,0,0,1-5.55-2,7,7,0,0,1-2-5.07,7.16,7.16,0,0,1,2-5.19,7.55,7.55,0,0,1,5.49-1.95,7.35,7.35,0,0,1,5.16,1.83,7.51,7.51,0,0,1,2.13,5.64Zm-4.41-2.76a3.22,3.22,0,0,0-.78-1.44,2.8,2.8,0,0,0-2-.72,2.58,2.58,0,0,0-1.95.72,2.74,2.74,0,0,0-.72,1.44Z"/><path d="M384.19,371.57a7.12,7.12,0,0,1-3.33.75,7.41,7.41,0,0,1-5.28-2,7,7,0,0,1-2.07-5,7.3,7.3,0,0,1,2.16-5.19,7.73,7.73,0,0,1,5.4-2,6.88,6.88,0,0,1,3.12.75v4a4.28,4.28,0,0,0-2.49-.87,3.15,3.15,0,0,0-2.34.93,3.26,3.26,0,0,0-.93,2.31,3.44,3.44,0,0,0,.84,2.25,3.26,3.26,0,0,0,2.46,1,3.63,3.63,0,0,0,2.46-.9Z"/><path d="M401.14,366.05h-10a3.39,3.39,0,0,0,.84,2.25,2.7,2.7,0,0,0,2,.66,3.79,3.79,0,0,0,1.56-.36,2.23,2.23,0,0,0,.84-.9H401a6,6,0,0,1-1.62,2.76c-1,1-2.55,1.86-5.46,1.86a7.61,7.61,0,0,1-5.55-2,7,7,0,0,1-2-5.07,7.16,7.16,0,0,1,2-5.19,7.55,7.55,0,0,1,5.49-1.95A7.35,7.35,0,0,1,399,359.9a7.51,7.51,0,0,1,2.13,5.64Zm-4.41-2.76a3.22,3.22,0,0,0-.78-1.44,2.8,2.8,0,0,0-2-.72,2.58,2.58,0,0,0-2,.72,2.74,2.74,0,0,0-.72,1.44Z"/><path d="M404.77,367.43a6.87,6.87,0,0,0,1.92,1,6.25,6.25,0,0,0,1.86.33,2,2,0,0,0,1.23-.36.77.77,0,0,0,.24-.63.71.71,0,0,0-.24-.6,3,3,0,0,0-1.26-.48l-1.26-.3a4.31,4.31,0,0,1-2.34-1.17,3.24,3.24,0,0,1-.87-2.31,4.79,4.79,0,0,1,1.26-3.27,6.77,6.77,0,0,1,4.8-1.62,11.07,11.07,0,0,1,4.29.87l-1.62,3.06a6.64,6.64,0,0,0-2.52-.66,2,2,0,0,0-1.11.27.72.72,0,0,0-.42.66.78.78,0,0,0,.57.75c.45.18.84.18,1.59.39l.87.24a5.67,5.67,0,0,1,2,1.05,3.79,3.79,0,0,1,1,2.67,4.48,4.48,0,0,1-1.35,3.33,7,7,0,0,1-5,1.68,9.89,9.89,0,0,1-5.4-1.56Z"/><path d="M427.6,358.46h4.8v13.41h-4.8V370.4a5,5,0,0,1-4.17,1.92,6.42,6.42,0,0,1-4.83-2.13,6.76,6.76,0,0,1-1.92-4.92,7.42,7.42,0,0,1,2.07-5.37,6.9,6.9,0,0,1,4.83-1.89,5.31,5.31,0,0,1,4,1.74Zm-5,4.5a3.14,3.14,0,0,0-1,2.19,3.09,3.09,0,0,0,.93,2.19,3.37,3.37,0,0,0,2.16.9,3.08,3.08,0,0,0,2.16-.93,2.91,2.91,0,0,0,.9-2.16,3,3,0,0,0-.93-2.19,3,3,0,0,0-4.26,0Z"/><path d="M435.7,358.46h4.8v2.19a4.33,4.33,0,0,1,1.89-1.86,5.24,5.24,0,0,1,2.49-.54l1,.06v4.53a4.23,4.23,0,0,0-2.07-.48,3.14,3.14,0,0,0-2.19.72,4,4,0,0,0-1.08,3.06v5.73h-4.8Z"/><path d="M458.35,358.46h4.79v13.41h-4.79V370.4a5,5,0,0,1-4.17,1.92,6.42,6.42,0,0,1-4.83-2.13,6.76,6.76,0,0,1-1.92-4.92,7.42,7.42,0,0,1,2.07-5.37,6.9,6.9,0,0,1,4.83-1.89,5.31,5.31,0,0,1,4,1.74Zm2.63-6.9a4.74,4.74,0,0,1-1.31,3.27,6.31,6.31,0,0,1-7.8,0,4.73,4.73,0,0,1-1.32-3.27h3.09a2.08,2.08,0,0,0,.6,1.23,2.4,2.4,0,0,0,1.52.54,2.46,2.46,0,0,0,1.54-.54,2,2,0,0,0,.59-1.23ZM453.31,363a3.14,3.14,0,0,0-1,2.19,3.09,3.09,0,0,0,.93,2.19,3.37,3.37,0,0,0,2.15.9,3.08,3.08,0,0,0,2.17-.93,3,3,0,0,0,0-4.35,3,3,0,0,0-4.26,0Z"/><polygon points="627.82 185.26 627.82 257.75 617.37 257.75 639.57 279.95 661.77 257.75 651.33 257.75 651.33 185.26 627.82 185.26" style="fill:#fff;stroke:#91c54f;stroke-miterlimit:10;stroke-width:5px"/><rect x="543.82" y="297.56" width="191.5" height="94.94" rx="12" ry="12" style="fill:none;stroke:#4fc2c9;stroke-miterlimit:10;stroke-width:5px"/><path d="M591.43,315.86a6.47,6.47,0,0,1,4.89,1.77,6.59,6.59,0,0,1,1.71,4.5,5.77,5.77,0,0,1-1.59,4.17,5.61,5.61,0,0,1-2.76,1.38l6.27,8.19H593.5l-5-7.68v7.68h-5.19v-20Zm-2.91,9h1A3.9,3.9,0,0,0,592,324a2.49,2.49,0,0,0,.66-1.68,2.36,2.36,0,0,0-.69-1.68,3.52,3.52,0,0,0-2.49-.78h-1Z"/><path d="M615.91,330.05h-10a3.39,3.39,0,0,0,.84,2.25,2.7,2.7,0,0,0,2,.66,3.79,3.79,0,0,0,1.56-.36,2.23,2.23,0,0,0,.84-.9h4.59a6,6,0,0,1-1.62,2.76c-1,1-2.55,1.86-5.46,1.86a7.61,7.61,0,0,1-5.55-2,7,7,0,0,1-2-5.07,7.16,7.16,0,0,1,2-5.19,7.55,7.55,0,0,1,5.49-1.95,7.35,7.35,0,0,1,5.16,1.83,7.51,7.51,0,0,1,2.13,5.64Zm-4.41-2.76a3.22,3.22,0,0,0-.78-1.44,2.8,2.8,0,0,0-2-.72,2.58,2.58,0,0,0-2,.72,2.74,2.74,0,0,0-.72,1.44Z"/><path d="M619.54,331.43a6.87,6.87,0,0,0,1.92,1,6.25,6.25,0,0,0,1.86.33,2,2,0,0,0,1.23-.36.77.77,0,0,0,.24-.63.71.71,0,0,0-.24-.6,3,3,0,0,0-1.26-.48l-1.26-.3a4.31,4.31,0,0,1-2.34-1.17,3.24,3.24,0,0,1-.87-2.31,4.79,4.79,0,0,1,1.26-3.27,6.77,6.77,0,0,1,4.8-1.62,11.07,11.07,0,0,1,4.29.87l-1.62,3.06a6.64,6.64,0,0,0-2.52-.66,2,2,0,0,0-1.11.27.72.72,0,0,0-.42.66.78.78,0,0,0,.57.75c.45.18.84.18,1.59.39l.87.24a5.67,5.67,0,0,1,2,1.05,3.79,3.79,0,0,1,1,2.67,4.48,4.48,0,0,1-1.35,3.33,7,7,0,0,1-4.95,1.68,9.89,9.89,0,0,1-5.4-1.56Z"/><path d="M636.79,322.46V330a2.57,2.57,0,0,0,.72,2,2.46,2.46,0,0,0,1.68.51,2.26,2.26,0,0,0,1.71-.57,2.53,2.53,0,0,0,.69-1.89v-7.5h4.8v8.37a4.64,4.64,0,0,1-1.29,3.6c-1.66,1.71-4,1.89-5.79,1.89-2,0-4.47-.21-6.06-1.92a4.82,4.82,0,0,1-1.26-3.57v-8.37Z"/><path d="M649.69,322.46h4.8v2.19a4.33,4.33,0,0,1,1.89-1.86,5.22,5.22,0,0,1,2.48-.54l1,.06v4.53a4.14,4.14,0,0,0-2.06-.48,3.14,3.14,0,0,0-2.19.72,4,4,0,0,0-1.08,3.06v5.73h-4.8Z"/><path d="M662.82,331.43a7.15,7.15,0,0,0,1.92,1,6.36,6.36,0,0,0,1.87.33,2,2,0,0,0,1.22-.36.77.77,0,0,0,.24-.63.71.71,0,0,0-.24-.6,2.94,2.94,0,0,0-1.26-.48l-1.25-.3a4.25,4.25,0,0,1-2.34-1.17,3.24,3.24,0,0,1-.87-2.31,4.79,4.79,0,0,1,1.25-3.27,6.81,6.81,0,0,1,4.8-1.62,11,11,0,0,1,4.29.87l-1.62,3.06a6.59,6.59,0,0,0-2.51-.66,2,2,0,0,0-1.12.27.74.74,0,0,0-.42.66.79.79,0,0,0,.58.75c.45.18.83.18,1.58.39l.88.24a5.71,5.71,0,0,1,2,1.05,3.8,3.8,0,0,1,1,2.67,4.48,4.48,0,0,1-1.36,3.33,7,7,0,0,1-4.94,1.68,9.94,9.94,0,0,1-5.41-1.56Z"/><path d="M685.65,322.46h4.8v13.41h-4.8V334.4a5,5,0,0,1-4.17,1.92,6.42,6.42,0,0,1-4.83-2.13,6.76,6.76,0,0,1-1.91-4.92,7.42,7.42,0,0,1,2.06-5.37,6.9,6.9,0,0,1,4.83-1.89,5.31,5.31,0,0,1,4,1.74Zm2.64-6.9a4.73,4.73,0,0,1-1.32,3.27,6.31,6.31,0,0,1-7.8,0,4.73,4.73,0,0,1-1.32-3.27h3.09a2.08,2.08,0,0,0,.6,1.23,2.44,2.44,0,0,0,3.06,0,2.08,2.08,0,0,0,.6-1.23ZM680.61,327a3.14,3.14,0,0,0-1,2.19,3.09,3.09,0,0,0,.93,2.19,3.37,3.37,0,0,0,2.16.9,3.08,3.08,0,0,0,2.16-.93,2.91,2.91,0,0,0,.9-2.16,3,3,0,0,0-.93-2.19,3,3,0,0,0-4.26,0Z"/><path d="M574.85,358.46h4.8v1.68a5.06,5.06,0,0,1,4.26-2,5.42,5.42,0,0,1,4,1.44,4.62,4.62,0,0,1,1.26,3.75v8.52h-4.8v-6.78a3.85,3.85,0,0,0-.6-2.61,2,2,0,0,0-1.53-.57,2.63,2.63,0,0,0-1.77.63,3.08,3.08,0,0,0-.78,2.13v7.2h-4.8Z"/><path d="M606.62,366.05h-10a3.39,3.39,0,0,0,.84,2.25,2.7,2.7,0,0,0,2,.66,3.79,3.79,0,0,0,1.56-.36,2.23,2.23,0,0,0,.84-.9h4.59a6,6,0,0,1-1.62,2.76c-1,1-2.55,1.86-5.46,1.86a7.61,7.61,0,0,1-5.55-2,7,7,0,0,1-2-5.07,7.16,7.16,0,0,1,2-5.19,7.55,7.55,0,0,1,5.49-1.95,7.35,7.35,0,0,1,5.16,1.83,7.51,7.51,0,0,1,2.13,5.64Zm-4.41-2.76a3.22,3.22,0,0,0-.78-1.44,2.8,2.8,0,0,0-2-.72,2.58,2.58,0,0,0-2,.72,2.74,2.74,0,0,0-.72,1.44Z"/><path d="M619.52,371.57a7.12,7.12,0,0,1-3.33.75,7.41,7.41,0,0,1-5.28-2,7,7,0,0,1-2.07-5,7.3,7.3,0,0,1,2.16-5.19,7.73,7.73,0,0,1,5.4-2,6.88,6.88,0,0,1,3.12.75v4a4.28,4.28,0,0,0-2.49-.87,3.15,3.15,0,0,0-2.34.93,3.26,3.26,0,0,0-.93,2.31,3.44,3.44,0,0,0,.84,2.25,3.26,3.26,0,0,0,2.46,1,3.63,3.63,0,0,0,2.46-.9Z"/><path d="M636.47,366.05h-10a3.39,3.39,0,0,0,.84,2.25,2.7,2.7,0,0,0,2,.66,3.79,3.79,0,0,0,1.56-.36,2.23,2.23,0,0,0,.84-.9h4.59a6,6,0,0,1-1.62,2.76c-1,1-2.55,1.86-5.46,1.86a7.61,7.61,0,0,1-5.55-2,7,7,0,0,1-2-5.07,7.16,7.16,0,0,1,2-5.19,7.55,7.55,0,0,1,5.49-1.95,7.35,7.35,0,0,1,5.16,1.83,7.51,7.51,0,0,1,2.13,5.64Zm-4.41-2.76a3.22,3.22,0,0,0-.78-1.44,2.8,2.8,0,0,0-2-.72,2.58,2.58,0,0,0-1.95.72,2.74,2.74,0,0,0-.72,1.44Z"/><path d="M640.1,367.43a6.87,6.87,0,0,0,1.92,1,6.25,6.25,0,0,0,1.86.33,2,2,0,0,0,1.23-.36.77.77,0,0,0,.24-.63.71.71,0,0,0-.24-.6,3,3,0,0,0-1.26-.48l-1.26-.3a4.31,4.31,0,0,1-2.34-1.17,3.24,3.24,0,0,1-.87-2.31,4.79,4.79,0,0,1,1.26-3.27,6.77,6.77,0,0,1,4.8-1.62,11.07,11.07,0,0,1,4.29.87l-1.62,3.06a6.64,6.64,0,0,0-2.52-.66,2,2,0,0,0-1.11.27.72.72,0,0,0-.42.66.78.78,0,0,0,.57.75c.45.18.84.18,1.59.39l.87.24a5.67,5.67,0,0,1,2,1.05,3.79,3.79,0,0,1,1,2.67,4.48,4.48,0,0,1-1.35,3.33,7,7,0,0,1-5,1.68,9.89,9.89,0,0,1-5.4-1.56Z"/><path d="M662.93,358.46h4.8v13.41h-4.8V370.4a5,5,0,0,1-4.17,1.92,6.42,6.42,0,0,1-4.83-2.13,6.76,6.76,0,0,1-1.92-4.92,7.42,7.42,0,0,1,2.07-5.37,6.9,6.9,0,0,1,4.83-1.89,5.31,5.31,0,0,1,4,1.74Zm-5,4.5a3.14,3.14,0,0,0-1,2.19,3.09,3.09,0,0,0,.93,2.19,3.37,3.37,0,0,0,2.16.9,3.08,3.08,0,0,0,2.16-.93,2.91,2.91,0,0,0,.9-2.16,3,3,0,0,0-.93-2.19,3,3,0,0,0-4.26,0Z"/><path d="M671,358.46h4.8v2.19a4.33,4.33,0,0,1,1.89-1.86,5.24,5.24,0,0,1,2.49-.54l1,.06v4.53a4.23,4.23,0,0,0-2.07-.48,3.14,3.14,0,0,0-2.19.72,4,4,0,0,0-1.08,3.06v5.73H671Z"/><path d="M693.68,358.46h4.8v13.41h-4.8V370.4a5,5,0,0,1-4.17,1.92,6.42,6.42,0,0,1-4.83-2.13,6.76,6.76,0,0,1-1.92-4.92,7.42,7.42,0,0,1,2.07-5.37,6.9,6.9,0,0,1,4.83-1.89,5.31,5.31,0,0,1,4,1.74Zm2.64-6.9a4.73,4.73,0,0,1-1.32,3.27,6.31,6.31,0,0,1-7.8,0,4.73,4.73,0,0,1-1.32-3.27H689a2.08,2.08,0,0,0,.6,1.23,2.44,2.44,0,0,0,3.06,0,2.08,2.08,0,0,0,.6-1.23ZM688.64,363a3.14,3.14,0,0,0-1,2.19,3.09,3.09,0,0,0,.93,2.19,3.37,3.37,0,0,0,2.16.9,3.08,3.08,0,0,0,2.16-.93,2.91,2.91,0,0,0,.9-2.16,3,3,0,0,0-.93-2.19,3,3,0,0,0-4.26,0Z"/><polygon points="863.15 185.26 863.15 257.75 852.7 257.75 874.9 279.95 897.11 257.75 886.66 257.75 886.66 185.26 863.15 185.26" style="fill:#fff;stroke:#91c54f;stroke-miterlimit:10;stroke-width:5px"/><rect x="779.15" y="297.56" width="191.5" height="94.94" rx="12" ry="12" style="fill:none;stroke:#4fc2c9;stroke-miterlimit:10;stroke-width:5px"/><path d="M826.76,315.86a6.47,6.47,0,0,1,4.89,1.77,6.59,6.59,0,0,1,1.71,4.5,5.77,5.77,0,0,1-1.59,4.17,5.61,5.61,0,0,1-2.76,1.38l6.27,8.19h-6.45l-5-7.68v7.68h-5.19v-20Zm-2.91,9h1a3.9,3.9,0,0,0,2.52-.81,2.49,2.49,0,0,0,.66-1.68,2.36,2.36,0,0,0-.69-1.68,3.52,3.52,0,0,0-2.49-.78h-1Z"/><path d="M851.24,330.05h-10a3.39,3.39,0,0,0,.84,2.25,2.7,2.7,0,0,0,2,.66,3.79,3.79,0,0,0,1.56-.36,2.23,2.23,0,0,0,.84-.9h4.59a6,6,0,0,1-1.62,2.76c-1,1-2.55,1.86-5.46,1.86a7.61,7.61,0,0,1-5.55-2,7,7,0,0,1-2-5.07,7.16,7.16,0,0,1,2-5.19,7.55,7.55,0,0,1,5.49-1.95,7.35,7.35,0,0,1,5.16,1.83,7.51,7.51,0,0,1,2.13,5.64Zm-4.41-2.76a3.22,3.22,0,0,0-.78-1.44,2.8,2.8,0,0,0-2-.72,2.58,2.58,0,0,0-2,.72,2.74,2.74,0,0,0-.72,1.44Z"/><path d="M854.87,331.43a6.87,6.87,0,0,0,1.92,1,6.25,6.25,0,0,0,1.86.33,2,2,0,0,0,1.23-.36.77.77,0,0,0,.24-.63.71.71,0,0,0-.24-.6,3,3,0,0,0-1.26-.48l-1.26-.3a4.31,4.31,0,0,1-2.34-1.17,3.24,3.24,0,0,1-.87-2.31,4.79,4.79,0,0,1,1.26-3.27,6.77,6.77,0,0,1,4.8-1.62,11.07,11.07,0,0,1,4.29.87l-1.62,3.06a6.64,6.64,0,0,0-2.52-.66,2,2,0,0,0-1.11.27.72.72,0,0,0-.42.66.78.78,0,0,0,.57.75c.45.18.84.18,1.59.39l.87.24a5.67,5.67,0,0,1,2,1.05,3.79,3.79,0,0,1,1,2.67,4.48,4.48,0,0,1-1.35,3.33,7,7,0,0,1-5,1.68,9.89,9.89,0,0,1-5.4-1.56Z"/><path d="M872.12,322.46V330a2.57,2.57,0,0,0,.72,2,2.48,2.48,0,0,0,1.68.51,2.24,2.24,0,0,0,1.71-.57,2.49,2.49,0,0,0,.69-1.89v-7.5h4.8v8.37a4.6,4.6,0,0,1-1.29,3.6c-1.65,1.71-4,1.89-5.79,1.89-2,0-4.47-.21-6.06-1.92a4.82,4.82,0,0,1-1.26-3.57v-8.37Z"/><path d="M885,322.46h4.8v2.19a4.33,4.33,0,0,1,1.89-1.86,5.24,5.24,0,0,1,2.49-.54l1,.06v4.53a4.23,4.23,0,0,0-2.07-.48,3.14,3.14,0,0,0-2.19.72,4,4,0,0,0-1.08,3.06v5.73H885Z"/><path d="M898.16,331.43a6.87,6.87,0,0,0,1.92,1,6.25,6.25,0,0,0,1.86.33,2,2,0,0,0,1.23-.36.77.77,0,0,0,.24-.63.71.71,0,0,0-.24-.6,3,3,0,0,0-1.26-.48l-1.26-.3a4.31,4.31,0,0,1-2.34-1.17,3.24,3.24,0,0,1-.87-2.31,4.79,4.79,0,0,1,1.26-3.27,6.77,6.77,0,0,1,4.8-1.62,11.07,11.07,0,0,1,4.29.87l-1.62,3.06a6.64,6.64,0,0,0-2.52-.66,2,2,0,0,0-1.11.27.72.72,0,0,0-.42.66.78.78,0,0,0,.57.75c.45.18.84.18,1.59.39l.87.24a5.67,5.67,0,0,1,2,1.05,3.79,3.79,0,0,1,1,2.67,4.48,4.48,0,0,1-1.35,3.33,7,7,0,0,1-4.95,1.68,9.89,9.89,0,0,1-5.4-1.56Z"/><path d="M921,322.46h4.8v13.41H921V334.4a5,5,0,0,1-4.17,1.92,6.42,6.42,0,0,1-4.83-2.13,6.76,6.76,0,0,1-1.92-4.92,7.42,7.42,0,0,1,2.07-5.37A6.9,6.9,0,0,1,917,322a5.31,5.31,0,0,1,4,1.74Zm2.64-6.9a4.73,4.73,0,0,1-1.32,3.27,6.31,6.31,0,0,1-7.8,0,4.73,4.73,0,0,1-1.32-3.27h3.09a2.08,2.08,0,0,0,.6,1.23,2.44,2.44,0,0,0,3.06,0,2.08,2.08,0,0,0,.6-1.23ZM916,327a3.14,3.14,0,0,0-1,2.19,3.09,3.09,0,0,0,.93,2.19,3.37,3.37,0,0,0,2.16.9,3.08,3.08,0,0,0,2.16-.93,2.91,2.91,0,0,0,.9-2.16,3,3,0,0,0-.93-2.19,3,3,0,0,0-4.26,0Z"/><path d="M810.19,358.46H815v1.68a5.06,5.06,0,0,1,4.26-2,5.42,5.42,0,0,1,4,1.44,4.62,4.62,0,0,1,1.26,3.75v8.52h-4.8v-6.78a3.85,3.85,0,0,0-.6-2.61,2,2,0,0,0-1.53-.57,2.63,2.63,0,0,0-1.77.63,3.08,3.08,0,0,0-.78,2.13v7.2h-4.8Z"/><path d="M842,366.05H832a3.39,3.39,0,0,0,.84,2.25,2.7,2.7,0,0,0,2,.66,3.79,3.79,0,0,0,1.56-.36,2.23,2.23,0,0,0,.84-.9h4.59a6,6,0,0,1-1.62,2.76c-1,1-2.55,1.86-5.46,1.86a7.61,7.61,0,0,1-5.55-2,7,7,0,0,1-2-5.07,7.16,7.16,0,0,1,2-5.19,7.55,7.55,0,0,1,5.49-1.95,7.35,7.35,0,0,1,5.16,1.83,7.55,7.55,0,0,1,2.13,5.64Zm-4.41-2.76a3.22,3.22,0,0,0-.78-1.44,2.8,2.8,0,0,0-2-.72,2.58,2.58,0,0,0-1.95.72,2.74,2.74,0,0,0-.72,1.44Z"/><path d="M854.85,371.57a7.08,7.08,0,0,1-3.32.75,7.41,7.41,0,0,1-5.28-2,7,7,0,0,1-2.07-5,7.34,7.34,0,0,1,2.15-5.19,7.78,7.78,0,0,1,5.41-2,6.82,6.82,0,0,1,3.11.75v4a4.27,4.27,0,0,0-2.48-.87,3.11,3.11,0,0,0-2.34.93,3.28,3.28,0,0,0-.94,2.31,3.46,3.46,0,0,0,.85,2.25,3.24,3.24,0,0,0,2.46,1,3.61,3.61,0,0,0,2.45-.9Z"/><path d="M871.8,366.05h-10a3.39,3.39,0,0,0,.84,2.25,2.7,2.7,0,0,0,2,.66,3.79,3.79,0,0,0,1.56-.36,2.23,2.23,0,0,0,.84-.9h4.59a6,6,0,0,1-1.62,2.76c-1,1-2.55,1.86-5.46,1.86a7.61,7.61,0,0,1-5.55-2,7,7,0,0,1-2-5.07,7.16,7.16,0,0,1,2-5.19,7.55,7.55,0,0,1,5.49-1.95,7.35,7.35,0,0,1,5.16,1.83,7.51,7.51,0,0,1,2.13,5.64Zm-4.41-2.76a3.22,3.22,0,0,0-.78-1.44,2.8,2.8,0,0,0-2-.72,2.58,2.58,0,0,0-2,.72,2.74,2.74,0,0,0-.72,1.44Z"/><path d="M875.43,367.43a6.87,6.87,0,0,0,1.92,1,6.25,6.25,0,0,0,1.86.33,2,2,0,0,0,1.23-.36.77.77,0,0,0,.24-.63.71.71,0,0,0-.24-.6,3,3,0,0,0-1.26-.48l-1.26-.3a4.31,4.31,0,0,1-2.34-1.17,3.24,3.24,0,0,1-.87-2.31,4.79,4.79,0,0,1,1.26-3.27,6.77,6.77,0,0,1,4.8-1.62,11.07,11.07,0,0,1,4.29.87l-1.62,3.06a6.64,6.64,0,0,0-2.52-.66,2,2,0,0,0-1.11.27.72.72,0,0,0-.42.66.78.78,0,0,0,.57.75c.45.18.84.18,1.59.39l.87.24a5.67,5.67,0,0,1,2,1.05,3.79,3.79,0,0,1,1,2.67,4.48,4.48,0,0,1-1.35,3.33,7,7,0,0,1-5,1.68,9.89,9.89,0,0,1-5.4-1.56Z"/><path d="M898.26,358.46h4.8v13.41h-4.8V370.4a5,5,0,0,1-4.17,1.92,6.42,6.42,0,0,1-4.83-2.13,6.76,6.76,0,0,1-1.92-4.92,7.42,7.42,0,0,1,2.07-5.37,6.9,6.9,0,0,1,4.83-1.89,5.31,5.31,0,0,1,4,1.74Zm-5,4.5a3.14,3.14,0,0,0-1,2.19,3.09,3.09,0,0,0,.93,2.19,3.37,3.37,0,0,0,2.16.9,3.08,3.08,0,0,0,2.16-.93,2.91,2.91,0,0,0,.9-2.16,3,3,0,0,0-.93-2.19,3,3,0,0,0-4.26,0Z"/><path d="M906.36,358.46h4.8v2.19a4.33,4.33,0,0,1,1.89-1.86,5.24,5.24,0,0,1,2.49-.54l1,.06v4.53a4.23,4.23,0,0,0-2.07-.48,3.14,3.14,0,0,0-2.19.72,4,4,0,0,0-1.08,3.06v5.73h-4.8Z"/><path d="M929,358.46h4.8v13.41H929V370.4a5,5,0,0,1-4.17,1.92,6.42,6.42,0,0,1-4.83-2.13,6.76,6.76,0,0,1-1.92-4.92,7.42,7.42,0,0,1,2.07-5.37A6.9,6.9,0,0,1,925,358a5.31,5.31,0,0,1,4,1.74Zm2.64-6.9a4.73,4.73,0,0,1-1.32,3.27,6.31,6.31,0,0,1-7.8,0,4.73,4.73,0,0,1-1.32-3.27h3.09a2.08,2.08,0,0,0,.6,1.23,2.44,2.44,0,0,0,3.06,0,2.08,2.08,0,0,0,.6-1.23ZM924,363a3.14,3.14,0,0,0-1,2.19,3.09,3.09,0,0,0,.93,2.19,3.37,3.37,0,0,0,2.16.9,3.08,3.08,0,0,0,2.16-.93,2.91,2.91,0,0,0,.9-2.16,3,3,0,0,0-.93-2.19,3,3,0,0,0-4.26,0Z"/><polygon points="511 682.26 511 754.75 500.55 754.75 522.75 776.95 544.95 754.75 534.5 754.75 534.5 682.26 511 682.26" style="fill:#fff;stroke:#91c54f;stroke-miterlimit:10;stroke-width:5px"/><rect x="427" y="794.56" width="191.5" height="94.94" rx="12" ry="12" style="fill:none;stroke:#4fc2c9;stroke-miterlimit:10;stroke-width:5px"/><path d="M470.27,830.09a7.51,7.51,0,0,1,5.7,2.07,7.67,7.67,0,0,1,2,5.25,6.75,6.75,0,0,1-1.85,4.86,6.51,6.51,0,0,1-3.23,1.61l7.32,9.56h-7.53l-5.81-9v9h-6.05V830.09Zm-3.4,10.47H468a4.56,4.56,0,0,0,2.94-.95,2.91,2.91,0,0,0,.77-2,2.74,2.74,0,0,0-.81-2,4.1,4.1,0,0,0-2.9-.91h-1.16Z"/><path d="M498.83,846.65H487.17a4,4,0,0,0,1,2.62,3.15,3.15,0,0,0,2.31.77,4.4,4.4,0,0,0,1.83-.42,2.62,2.62,0,0,0,1-1h5.36a6.92,6.92,0,0,1-1.89,3.22c-1.15,1.12-3,2.17-6.37,2.17a8.86,8.86,0,0,1-6.48-2.38,8.2,8.2,0,0,1-2.31-5.91,8.34,8.34,0,0,1,2.35-6.06,8.79,8.79,0,0,1,6.4-2.27,8.56,8.56,0,0,1,6,2.13,8.75,8.75,0,0,1,2.49,6.58Zm-5.15-3.22a3.63,3.63,0,0,0-.91-1.68,3.23,3.23,0,0,0-2.31-.84,3,3,0,0,0-2.27.84,3.12,3.12,0,0,0-.84,1.68Z"/><path d="M503.06,848.26a7.93,7.93,0,0,0,2.24,1.15,7.17,7.17,0,0,0,2.17.39,2.42,2.42,0,0,0,1.44-.42.93.93,0,0,0,.28-.74.85.85,0,0,0-.28-.7,3.56,3.56,0,0,0-1.47-.56L506,847a5,5,0,0,1-2.73-1.36,3.78,3.78,0,0,1-1-2.7,5.61,5.61,0,0,1,1.47-3.81,7.88,7.88,0,0,1,5.6-1.89,13.06,13.06,0,0,1,5,1l-1.89,3.57a7.77,7.77,0,0,0-2.94-.77,2.38,2.38,0,0,0-1.3.32.84.84,0,0,0-.49.77.91.91,0,0,0,.67.87c.52.21,1,.21,1.85.46l1,.28a6.78,6.78,0,0,1,2.31,1.22,4.44,4.44,0,0,1,1.19,3.12,5.21,5.21,0,0,1-1.58,3.88c-1.82,1.83-4.48,2-5.77,2a11.49,11.49,0,0,1-6.3-1.82Z"/><path d="M523.19,837.79v8.75a3,3,0,0,0,.84,2.28,2.88,2.88,0,0,0,2,.59,2.62,2.62,0,0,0,2-.66,2.92,2.92,0,0,0,.81-2.21v-8.75h5.6v9.77a5.38,5.38,0,0,1-1.51,4.2c-1.92,2-4.62,2.2-6.75,2.2-2.35,0-5.22-.24-7.07-2.24a5.62,5.62,0,0,1-1.47-4.16v-9.77Z"/><path d="M538.24,837.79h5.6v2.56a5,5,0,0,1,2.2-2.17,6.07,6.07,0,0,1,2.91-.63l1.12.07v5.28a5,5,0,0,0-2.42-.56,3.68,3.68,0,0,0-2.55.84,4.73,4.73,0,0,0-1.26,3.57v6.69h-5.6Z"/><path d="M553.57,848.26a7.8,7.8,0,0,0,2.24,1.15,7.12,7.12,0,0,0,2.17.39,2.39,2.39,0,0,0,1.43-.42.9.9,0,0,0,.28-.74.82.82,0,0,0-.28-.7,3.56,3.56,0,0,0-1.47-.56l-1.47-.35a5,5,0,0,1-2.73-1.36,3.82,3.82,0,0,1-1-2.7,5.56,5.56,0,0,1,1.47-3.81,7.88,7.88,0,0,1,5.6-1.89,13,13,0,0,1,5,1l-1.89,3.57a7.72,7.72,0,0,0-2.94-.77,2.35,2.35,0,0,0-1.29.32.83.83,0,0,0-.49.77.9.9,0,0,0,.66.87c.53.21,1,.21,1.86.46l1,.28A6.6,6.6,0,0,1,564,845a4.44,4.44,0,0,1,1.19,3.12,5.21,5.21,0,0,1-1.57,3.88c-1.82,1.83-4.48,2-5.78,2a11.51,11.51,0,0,1-6.3-1.82Z"/><path d="M584.68,846.65H573a3.91,3.91,0,0,0,1,2.62,3.15,3.15,0,0,0,2.31.77,4.33,4.33,0,0,0,1.82-.42,2.64,2.64,0,0,0,1-1h5.35a6.92,6.92,0,0,1-1.89,3.22c-1.15,1.12-3,2.17-6.37,2.17a8.84,8.84,0,0,1-6.47-2.38,8.16,8.16,0,0,1-2.32-5.91,8.38,8.38,0,0,1,2.35-6.06,8.83,8.83,0,0,1,6.41-2.27,8.57,8.57,0,0,1,6,2.13,8.77,8.77,0,0,1,2.48,6.58Zm-5.14-3.22a3.73,3.73,0,0,0-.91-1.68,3.25,3.25,0,0,0-2.31-.84,3,3,0,0,0-2.28.84,3.27,3.27,0,0,0-.84,1.68Z"/><rect x="47.5" y="548" width="950.5" height="115.5" rx="12" ry="12" style="fill:none;stroke:#636868;stroke-miterlimit:10;stroke-width:3.52701219844349px"/><rect x="73.15" y="578.56" width="191.5" height="60" rx="12" ry="12" style="fill:none;stroke:#91c54f;stroke-miterlimit:10;stroke-width:3.32802739455736px"/><path d="M108.07,613.72a10.42,10.42,0,0,1-3.75.82,9.06,9.06,0,0,1-6.45-2.5A8.71,8.71,0,0,1,95.35,606a8.94,8.94,0,0,1,2.52-6.15,8.84,8.84,0,0,1,6.3-2.6,10.44,10.44,0,0,1,3.9.85v5.18a4.64,4.64,0,0,0-3.78-1.83,4.25,4.25,0,0,0-3,1.1,4.67,4.67,0,0,0-1.45,3.42,4.27,4.27,0,0,0,4.45,4.4,4.89,4.89,0,0,0,3.78-1.75Z"/><path d="M121.69,612.69a7.64,7.64,0,0,1-10,0,5.75,5.75,0,0,1,0-8.22,7,7,0,0,1,5-1.85,7.06,7.06,0,0,1,5,1.85,5.75,5.75,0,0,1,0,8.22Zm-6.77-6a2.47,2.47,0,0,0,0,3.6,2.5,2.5,0,0,0,3.57,0,2.45,2.45,0,0,0,.78-1.77,2.73,2.73,0,0,0-.78-1.83,2.57,2.57,0,0,0-3.57,0Z"/><path d="M125.72,603h4v1.35a4.29,4.29,0,0,1,3.35-1.55,4.49,4.49,0,0,1,2.15.5,3.55,3.55,0,0,1,1.55,1.59,3.92,3.92,0,0,1,1.52-1.54,4.55,4.55,0,0,1,2.33-.55,4.41,4.41,0,0,1,3.09,1,4.11,4.11,0,0,1,1,3.07v7.28h-4v-5.53a3.33,3.33,0,0,0-.58-2.4,1.44,1.44,0,0,0-1.05-.37,1.59,1.59,0,0,0-1.17.45,2.83,2.83,0,0,0-.73,2.12v5.73h-4v-5.53a3.59,3.59,0,0,0-.52-2.4,1.57,1.57,0,0,0-1.2-.45,1.41,1.41,0,0,0-1.1.4,3.31,3.31,0,0,0-.7,2.45v5.53h-4Z"/><path d="M151.54,619.89h-4V603h4v1.22a4.2,4.2,0,0,1,3.43-1.6,5.55,5.55,0,0,1,4,1.63,6.33,6.33,0,0,1-.1,8.74,5.34,5.34,0,0,1-3.82,1.55,4.76,4.76,0,0,1-3.48-1.45Zm.65-13.12a2.51,2.51,0,0,0,0,3.62,2.55,2.55,0,0,0,1.8.75,2.41,2.41,0,0,0,1.78-.75,2.65,2.65,0,0,0,.77-1.77,2.71,2.71,0,0,0-.77-1.85A2.41,2.41,0,0,0,154,606,2.55,2.55,0,0,0,152.19,606.77Z"/><path d="M174.19,612.69a7.64,7.64,0,0,1-10,0,5.75,5.75,0,0,1,0-8.22,7,7,0,0,1,5-1.85,7.06,7.06,0,0,1,5,1.85,5.75,5.75,0,0,1,0,8.22Zm-6.77-6a2.47,2.47,0,0,0,0,3.6,2.5,2.5,0,0,0,3.57,0,2.45,2.45,0,0,0,.78-1.77,2.73,2.73,0,0,0-.78-1.83,2.57,2.57,0,0,0-3.57,0Z"/><path d="M178.22,603h4v1.4a4.21,4.21,0,0,1,3.55-1.65,4.51,4.51,0,0,1,3.3,1.2,3.83,3.83,0,0,1,1,3.12v7.1h-4v-5.65a3.25,3.25,0,0,0-.5-2.18,1.69,1.69,0,0,0-1.28-.47,2.17,2.17,0,0,0-1.47.52,2.58,2.58,0,0,0-.65,1.78v6h-4Z"/><path d="M204.69,609.32h-8.32a2.78,2.78,0,0,0,.7,1.87,2.25,2.25,0,0,0,1.65.55,3.07,3.07,0,0,0,1.3-.3,1.9,1.9,0,0,0,.7-.75h3.82a5,5,0,0,1-1.35,2.3,6.06,6.06,0,0,1-4.55,1.55,6.31,6.31,0,0,1-4.62-1.7,5.82,5.82,0,0,1-1.65-4.22A5.94,5.94,0,0,1,194,604.3a6.31,6.31,0,0,1,4.58-1.63,6.14,6.14,0,0,1,4.3,1.53,6.24,6.24,0,0,1,1.77,4.69ZM201,607a2.66,2.66,0,0,0-.65-1.2,2.31,2.31,0,0,0-1.65-.6,2.14,2.14,0,0,0-1.63.6,2.36,2.36,0,0,0-.6,1.2Z"/><path d="M207,603h4v1.4a4.22,4.22,0,0,1,3.55-1.65,4.51,4.51,0,0,1,3.3,1.2,3.84,3.84,0,0,1,1,3.12v7.1h-4v-5.65a3.19,3.19,0,0,0-.5-2.18,1.65,1.65,0,0,0-1.27-.47,2.2,2.2,0,0,0-1.48.52,2.58,2.58,0,0,0-.65,1.78v6h-4Z"/><path d="M226,606.27v7.9h-4v-7.9h-1.27V603H222v-3.68h4V603h2.28v3.27Z"/><path d="M238.46,603h4v11.17h-4v-1.23a4.15,4.15,0,0,1-3.47,1.6,5.35,5.35,0,0,1-4-1.77,5.63,5.63,0,0,1-1.6-4.1,6.17,6.17,0,0,1,1.72-4.47,5.77,5.77,0,0,1,4-1.58,4.42,4.42,0,0,1,3.34,1.45Zm2.2-5.75a3.88,3.88,0,0,1-1.1,2.72,5.22,5.22,0,0,1-6.49,0,3.88,3.88,0,0,1-1.1-2.72h2.57a1.71,1.71,0,0,0,.5,1,2,2,0,0,0,2.55,0,1.71,1.71,0,0,0,.5-1Zm-6.39,9.49a2.63,2.63,0,0,0-.8,1.83,2.55,2.55,0,0,0,.77,1.82,2.81,2.81,0,0,0,1.8.75,2.56,2.56,0,0,0,1.8-.77,2.43,2.43,0,0,0,.75-1.8,2.49,2.49,0,0,0-.77-1.83A2.59,2.59,0,0,0,236,606,2.54,2.54,0,0,0,234.27,606.74Z"/><rect x="308.49" y="578.56" width="191.5" height="60" rx="12" ry="12" style="fill:none;stroke:#91c54f;stroke-miterlimit:10;stroke-width:3.32802739455736px"/><path d="M343.4,613.72a10.34,10.34,0,0,1-3.75.82,9.08,9.08,0,0,1-6.45-2.5,8.75,8.75,0,0,1-2.52-6.07,8.74,8.74,0,0,1,8.82-8.75,10.44,10.44,0,0,1,3.9.85v5.18a4.63,4.63,0,0,0-3.77-1.83,4.25,4.25,0,0,0-3,1.1,4.63,4.63,0,0,0-1.45,3.42,4.27,4.27,0,0,0,4.45,4.4,4.86,4.86,0,0,0,3.77-1.75Z"/><path d="M357,612.69a7.65,7.65,0,0,1-10,0,5.77,5.77,0,0,1,0-8.22,7,7,0,0,1,5-1.85,7.1,7.1,0,0,1,5,1.85,5.77,5.77,0,0,1,0,8.22Zm-6.78-6a2.49,2.49,0,0,0,0,3.6,2.51,2.51,0,0,0,3.58,0,2.44,2.44,0,0,0,.77-1.77,2.72,2.72,0,0,0-.77-1.83,2.59,2.59,0,0,0-3.58,0Z"/><path d="M361.05,603h4v1.35a4.29,4.29,0,0,1,3.35-1.55,4.49,4.49,0,0,1,2.15.5,3.45,3.45,0,0,1,1.55,1.59,3.92,3.92,0,0,1,1.52-1.54,4.55,4.55,0,0,1,2.33-.55,4.45,4.45,0,0,1,3.1,1,4.11,4.11,0,0,1,1.05,3.07v7.28h-4v-5.53a3.33,3.33,0,0,0-.58-2.4,1.44,1.44,0,0,0-1-.37,1.59,1.59,0,0,0-1.17.45,2.87,2.87,0,0,0-.73,2.12v5.73h-4v-5.53a3.59,3.59,0,0,0-.53-2.4,1.57,1.57,0,0,0-1.2-.45,1.44,1.44,0,0,0-1.1.4,3.31,3.31,0,0,0-.7,2.45v5.53h-4Z"/><path d="M386.88,619.89h-4V603h4v1.22a4.18,4.18,0,0,1,3.42-1.6,5.55,5.55,0,0,1,4,1.63,6.33,6.33,0,0,1-.1,8.74,5.34,5.34,0,0,1-3.82,1.55,4.75,4.75,0,0,1-3.47-1.45Zm.65-13.12a2.72,2.72,0,0,0-.78,1.85,2.66,2.66,0,0,0,.78,1.77,2.52,2.52,0,0,0,1.8.75,2.4,2.4,0,0,0,1.77-.75,2.65,2.65,0,0,0,.77-1.77,2.71,2.71,0,0,0-.77-1.85,2.4,2.4,0,0,0-1.77-.75A2.52,2.52,0,0,0,387.53,606.77Z"/><path d="M409.52,612.69a7.64,7.64,0,0,1-10,0,5.77,5.77,0,0,1,0-8.22,7.64,7.64,0,0,1,10,0,5.75,5.75,0,0,1,0,8.22Zm-6.77-6a2.49,2.49,0,0,0,0,3.6,2.51,2.51,0,0,0,3.58,0,2.44,2.44,0,0,0,.77-1.77,2.72,2.72,0,0,0-.77-1.83,2.59,2.59,0,0,0-3.58,0Z"/><path d="M413.55,603h4v1.4a4.22,4.22,0,0,1,3.55-1.65,4.51,4.51,0,0,1,3.3,1.2,3.84,3.84,0,0,1,1.05,3.12v7.1h-4v-5.65a3.25,3.25,0,0,0-.5-2.18,1.66,1.66,0,0,0-1.28-.47,2.19,2.19,0,0,0-1.47.52,2.58,2.58,0,0,0-.65,1.78v6h-4Z"/><path d="M440,609.32H431.7a2.83,2.83,0,0,0,.7,1.87,2.25,2.25,0,0,0,1.65.55,3.07,3.07,0,0,0,1.3-.3,1.83,1.83,0,0,0,.7-.75h3.82a4.91,4.91,0,0,1-1.35,2.3,6.06,6.06,0,0,1-4.55,1.55,6.32,6.32,0,0,1-4.62-1.7,6.31,6.31,0,0,1,0-8.54,6.27,6.27,0,0,1,4.57-1.63,6.14,6.14,0,0,1,4.3,1.53,6.24,6.24,0,0,1,1.77,4.69Zm-3.67-2.3a2.66,2.66,0,0,0-.65-1.2,2.31,2.31,0,0,0-1.65-.6,2.12,2.12,0,0,0-1.62.6,2.21,2.21,0,0,0-.6,1.2Z"/><path d="M442.33,603h4v1.4a4.19,4.19,0,0,1,3.54-1.65,4.49,4.49,0,0,1,3.3,1.2,3.84,3.84,0,0,1,1.05,3.12v7.1h-4v-5.65a3.19,3.19,0,0,0-.5-2.18,1.65,1.65,0,0,0-1.27-.47,2.2,2.2,0,0,0-1.48.52,2.63,2.63,0,0,0-.64,1.78v6h-4Z"/><path d="M461.38,606.27v7.9h-4v-7.9H456.1V603h1.28v-3.68h4V603h2.27v3.27Z"/><path d="M473.8,603h4v11.17h-4v-1.23a4.17,4.17,0,0,1-3.48,1.6,5.35,5.35,0,0,1-4-1.77,5.63,5.63,0,0,1-1.6-4.1,6.21,6.21,0,0,1,1.72-4.47,5.77,5.77,0,0,1,4-1.58,4.45,4.45,0,0,1,3.35,1.45Zm2.2-5.75a4,4,0,0,1-1.1,2.72,5.24,5.24,0,0,1-6.5,0,3.88,3.88,0,0,1-1.1-2.72h2.57a1.71,1.71,0,0,0,.5,1,2,2,0,0,0,1.28.45,2,2,0,0,0,1.27-.45,1.71,1.71,0,0,0,.5-1Zm-6.4,9.49a2.63,2.63,0,0,0-.8,1.83,2.55,2.55,0,0,0,.77,1.82,2.83,2.83,0,0,0,1.8.75,2.56,2.56,0,0,0,1.8-.77,2.43,2.43,0,0,0,.75-1.8,2.49,2.49,0,0,0-.77-1.83,2.57,2.57,0,0,0-1.8-.72A2.54,2.54,0,0,0,469.6,606.74Z"/><rect x="543.82" y="578.56" width="191.5" height="60" rx="12" ry="12" style="fill:none;stroke:#91c54f;stroke-miterlimit:10;stroke-width:3.32802739455736px"/><path d="M578.73,613.72a10.34,10.34,0,0,1-3.75.82,9.05,9.05,0,0,1-6.44-2.5A8.72,8.72,0,0,1,566,606a9,9,0,0,1,2.53-6.15,8.83,8.83,0,0,1,6.29-2.6,10.44,10.44,0,0,1,3.9.85v5.18a4.63,4.63,0,0,0-3.77-1.83,4.25,4.25,0,0,0-3,1.1,4.67,4.67,0,0,0-1.45,3.42,4.27,4.27,0,0,0,4.45,4.4,4.86,4.86,0,0,0,3.77-1.75Z"/><path d="M592.36,612.69a7.64,7.64,0,0,1-10,0,5.75,5.75,0,0,1,0-8.22,7,7,0,0,1,5-1.85,7.1,7.1,0,0,1,5,1.85,5.77,5.77,0,0,1,0,8.22Zm-6.77-6a2.47,2.47,0,0,0,0,3.6,2.5,2.5,0,0,0,3.57,0,2.44,2.44,0,0,0,.77-1.77,2.72,2.72,0,0,0-.77-1.83,2.57,2.57,0,0,0-3.57,0Z"/><path d="M596.39,603h4v1.35a4.26,4.26,0,0,1,3.34-1.55,4.49,4.49,0,0,1,2.15.5,3.45,3.45,0,0,1,1.55,1.59,3.93,3.93,0,0,1,1.53-1.54,4.51,4.51,0,0,1,2.32-.55,4.42,4.42,0,0,1,3.1,1,4.11,4.11,0,0,1,1,3.07v7.28h-4v-5.53a3.34,3.34,0,0,0-.57-2.4,1.48,1.48,0,0,0-1.05-.37,1.61,1.61,0,0,0-1.18.45,2.86,2.86,0,0,0-.72,2.12v5.73h-4v-5.53a3.59,3.59,0,0,0-.53-2.4,1.57,1.57,0,0,0-1.2-.45,1.44,1.44,0,0,0-1.1.4,3.34,3.34,0,0,0-.69,2.45v5.53h-4Z"/><path d="M622.21,619.89h-4V603h4v1.22a4.18,4.18,0,0,1,3.42-1.6,5.56,5.56,0,0,1,4,1.63,6.33,6.33,0,0,1-.1,8.74,5.35,5.35,0,0,1-3.83,1.55,4.75,4.75,0,0,1-3.47-1.45Zm.65-13.12a2.72,2.72,0,0,0-.78,1.85,2.66,2.66,0,0,0,.78,1.77,2.52,2.52,0,0,0,1.8.75,2.38,2.38,0,0,0,1.77-.75,2.61,2.61,0,0,0,.78-1.77,2.72,2.72,0,0,0-.78-1.85,2.38,2.38,0,0,0-1.77-.75A2.52,2.52,0,0,0,622.86,606.77Z"/><path d="M644.86,612.69a7.64,7.64,0,0,1-10,0,5.75,5.75,0,0,1,0-8.22,6.94,6.94,0,0,1,5-1.85,7.1,7.1,0,0,1,5,1.85,5.77,5.77,0,0,1,0,8.22Zm-6.78-6a2.49,2.49,0,0,0,0,3.6,2.51,2.51,0,0,0,3.58,0,2.44,2.44,0,0,0,.77-1.77,2.72,2.72,0,0,0-.77-1.83,2.59,2.59,0,0,0-3.58,0Z"/><path d="M648.89,603h4v1.4a4.22,4.22,0,0,1,3.55-1.65,4.49,4.49,0,0,1,3.3,1.2,3.84,3.84,0,0,1,1,3.12v7.1h-4v-5.65a3.19,3.19,0,0,0-.5-2.18,1.65,1.65,0,0,0-1.27-.47,2.2,2.2,0,0,0-1.48.52,2.58,2.58,0,0,0-.65,1.78v6h-4Z"/><path d="M675.36,609.32H667a2.83,2.83,0,0,0,.7,1.87,2.25,2.25,0,0,0,1.65.55,3.07,3.07,0,0,0,1.3-.3,1.83,1.83,0,0,0,.7-.75h3.83a5.09,5.09,0,0,1-1.35,2.3,6.09,6.09,0,0,1-4.55,1.55,6.33,6.33,0,0,1-4.63-1.7,6.31,6.31,0,0,1,0-8.54,6.27,6.27,0,0,1,4.57-1.63,6.12,6.12,0,0,1,4.3,1.53,6.21,6.21,0,0,1,1.78,4.69Zm-3.68-2.3a2.66,2.66,0,0,0-.65-1.2,2.3,2.3,0,0,0-1.65-.6,2.12,2.12,0,0,0-1.62.6,2.21,2.21,0,0,0-.6,1.2Z"/><path d="M677.66,603h4v1.4a4.21,4.21,0,0,1,3.55-1.65,4.51,4.51,0,0,1,3.3,1.2,3.84,3.84,0,0,1,1,3.12v7.1h-4v-5.65a3.25,3.25,0,0,0-.5-2.18,1.69,1.69,0,0,0-1.28-.47,2.17,2.17,0,0,0-1.47.52,2.58,2.58,0,0,0-.65,1.78v6h-4Z"/><path d="M696.71,606.27v7.9h-4v-7.9h-1.28V603h1.28v-3.68h4V603H699v3.27Z"/><path d="M709.13,603h4v11.17h-4v-1.23a4.15,4.15,0,0,1-3.47,1.6,5.37,5.37,0,0,1-4-1.77,5.67,5.67,0,0,1-1.6-4.1,6.17,6.17,0,0,1,1.73-4.47,5.74,5.74,0,0,1,4-1.58,4.43,4.43,0,0,1,3.35,1.45Zm2.2-5.75a3.88,3.88,0,0,1-1.1,2.72,5.24,5.24,0,0,1-6.5,0,4,4,0,0,1-1.1-2.72h2.58a1.71,1.71,0,0,0,.5,1,2,2,0,0,0,1.27.45,2,2,0,0,0,1.28-.45,1.71,1.71,0,0,0,.5-1Zm-6.4,9.49a2.63,2.63,0,0,0-.8,1.83,2.56,2.56,0,0,0,.78,1.82,2.79,2.79,0,0,0,1.8.75,2.56,2.56,0,0,0,1.8-.77,2.43,2.43,0,0,0,.75-1.8,2.46,2.46,0,0,0-.78-1.83,2.55,2.55,0,0,0-3.55,0Z"/><rect x="779.15" y="578.56" width="191.5" height="60" rx="12" ry="12" style="fill:none;stroke:#91c54f;stroke-miterlimit:10;stroke-width:3.32802739455736px"/><path d="M814.07,613.72a10.42,10.42,0,0,1-3.75.82,9.06,9.06,0,0,1-6.45-2.5,8.71,8.71,0,0,1-2.52-6.07,8.94,8.94,0,0,1,2.52-6.15,8.84,8.84,0,0,1,6.3-2.6,10.44,10.44,0,0,1,3.9.85v5.18a4.64,4.64,0,0,0-3.78-1.83,4.25,4.25,0,0,0-3,1.1,4.67,4.67,0,0,0-1.45,3.42,4.27,4.27,0,0,0,4.45,4.4,4.89,4.89,0,0,0,3.78-1.75Z"/><path d="M827.69,612.69a7.64,7.64,0,0,1-10,0,5.75,5.75,0,0,1,0-8.22,7,7,0,0,1,5-1.85,7.06,7.06,0,0,1,5,1.85,5.75,5.75,0,0,1,0,8.22Zm-6.77-6a2.47,2.47,0,0,0,0,3.6,2.5,2.5,0,0,0,3.57,0,2.45,2.45,0,0,0,.78-1.77,2.73,2.73,0,0,0-.78-1.83,2.57,2.57,0,0,0-3.57,0Z"/><path d="M831.72,603h4v1.35a4.29,4.29,0,0,1,3.35-1.55,4.49,4.49,0,0,1,2.15.5,3.55,3.55,0,0,1,1.55,1.59,3.92,3.92,0,0,1,1.52-1.54,4.55,4.55,0,0,1,2.33-.55,4.41,4.41,0,0,1,3.09,1,4.11,4.11,0,0,1,1,3.07v7.28h-4v-5.53a3.33,3.33,0,0,0-.58-2.4,1.44,1.44,0,0,0-1.05-.37,1.59,1.59,0,0,0-1.17.45,2.83,2.83,0,0,0-.73,2.12v5.73h-4v-5.53a3.59,3.59,0,0,0-.52-2.4,1.57,1.57,0,0,0-1.2-.45,1.41,1.41,0,0,0-1.1.4,3.31,3.31,0,0,0-.7,2.45v5.53h-4Z"/><path d="M857.54,619.89h-4V603h4v1.22a4.2,4.2,0,0,1,3.43-1.6,5.55,5.55,0,0,1,4,1.63,6.33,6.33,0,0,1-.1,8.74,5.34,5.34,0,0,1-3.82,1.55,4.76,4.76,0,0,1-3.48-1.45Zm.65-13.12a2.51,2.51,0,0,0,0,3.62,2.55,2.55,0,0,0,1.8.75,2.41,2.41,0,0,0,1.78-.75,2.65,2.65,0,0,0,.77-1.77,2.71,2.71,0,0,0-.77-1.85A2.41,2.41,0,0,0,860,606,2.55,2.55,0,0,0,858.19,606.77Z"/><path d="M880.19,612.69a7.64,7.64,0,0,1-10,0,5.75,5.75,0,0,1,0-8.22,7,7,0,0,1,5-1.85,7.06,7.06,0,0,1,5,1.85,5.75,5.75,0,0,1,0,8.22Zm-6.77-6a2.47,2.47,0,0,0,0,3.6,2.5,2.5,0,0,0,3.57,0,2.45,2.45,0,0,0,.78-1.77,2.73,2.73,0,0,0-.78-1.83,2.57,2.57,0,0,0-3.57,0Z"/><path d="M884.22,603h4v1.4a4.21,4.21,0,0,1,3.55-1.65,4.51,4.51,0,0,1,3.3,1.2,3.83,3.83,0,0,1,1,3.12v7.1h-4v-5.65a3.25,3.25,0,0,0-.5-2.18,1.69,1.69,0,0,0-1.28-.47,2.17,2.17,0,0,0-1.47.52,2.58,2.58,0,0,0-.65,1.78v6h-4Z"/><path d="M910.69,609.32h-8.32a2.78,2.78,0,0,0,.7,1.87,2.25,2.25,0,0,0,1.65.55,3.07,3.07,0,0,0,1.3-.3,1.9,1.9,0,0,0,.7-.75h3.82a5,5,0,0,1-1.35,2.3,6.06,6.06,0,0,1-4.55,1.55,6.31,6.31,0,0,1-4.62-1.7,5.82,5.82,0,0,1-1.65-4.22A5.94,5.94,0,0,1,900,604.3a6.31,6.31,0,0,1,4.58-1.63,6.14,6.14,0,0,1,4.3,1.53,6.24,6.24,0,0,1,1.77,4.69ZM907,607a2.66,2.66,0,0,0-.65-1.2,2.31,2.31,0,0,0-1.65-.6,2.14,2.14,0,0,0-1.63.6,2.36,2.36,0,0,0-.6,1.2Z"/><path d="M913,603h4v1.4a4.22,4.22,0,0,1,3.55-1.65,4.51,4.51,0,0,1,3.3,1.2,3.84,3.84,0,0,1,1,3.12v7.1h-4v-5.65a3.19,3.19,0,0,0-.5-2.18,1.65,1.65,0,0,0-1.27-.47,2.2,2.2,0,0,0-1.48.52,2.58,2.58,0,0,0-.65,1.78v6h-4Z"/><path d="M932,606.27v7.9h-4v-7.9h-1.27V603H928v-3.68h4V603h2.28v3.27Z"/><path d="M944.46,603h4v11.17h-4v-1.23a4.15,4.15,0,0,1-3.47,1.6,5.35,5.35,0,0,1-4-1.77,5.63,5.63,0,0,1-1.6-4.1,6.17,6.17,0,0,1,1.72-4.47,5.77,5.77,0,0,1,4-1.58,4.42,4.42,0,0,1,3.34,1.45Zm2.2-5.75a3.88,3.88,0,0,1-1.1,2.72,5.22,5.22,0,0,1-6.49,0,3.88,3.88,0,0,1-1.1-2.72h2.57a1.71,1.71,0,0,0,.5,1,2,2,0,0,0,2.55,0,1.71,1.71,0,0,0,.5-1Zm-6.39,9.49a2.63,2.63,0,0,0-.8,1.83,2.55,2.55,0,0,0,.77,1.82,2.81,2.81,0,0,0,1.8.75,2.56,2.56,0,0,0,1.8-.77,2.43,2.43,0,0,0,.75-1.8,2.49,2.49,0,0,0-.77-1.83A2.59,2.59,0,0,0,942,606,2.54,2.54,0,0,0,940.27,606.74Z"/><path d="M407.5,514.87a7,7,0,0,0,4.59,2,2.63,2.63,0,0,0,2-.69,1.79,1.79,0,0,0,.51-1.26,1.56,1.56,0,0,0-.57-1.2,7.21,7.21,0,0,0-2.58-1l-1.35-.42a6.54,6.54,0,0,1-2.88-1.62,5,5,0,0,1-1.14-3.54,6.54,6.54,0,0,1,1.83-4.83,7.05,7.05,0,0,1,5.13-1.89,14.06,14.06,0,0,1,6.18,1.62l-2.07,4.05a5.28,5.28,0,0,0-3.42-1.35,2.49,2.49,0,0,0-1.71.6,1.48,1.48,0,0,0-.51,1.08,1.34,1.34,0,0,0,.27.9,3.28,3.28,0,0,0,1.74.9l1.59.48a7.64,7.64,0,0,1,3.63,2,4.72,4.72,0,0,1,1.29,3.57,6.78,6.78,0,0,1-1.89,5,7.76,7.76,0,0,1-5.91,2,10.7,10.7,0,0,1-3.93-.66,14,14,0,0,1-3-1.59Z"/><path d="M425.26,499.18a2.7,2.7,0,1,1-2.7,2.7A2.69,2.69,0,0,1,425.26,499.18Zm2.4,8.28v13.41h-4.8V507.46Z"/><path d="M431.8,516.43a6.87,6.87,0,0,0,1.92,1,6.25,6.25,0,0,0,1.86.33,2,2,0,0,0,1.23-.36.77.77,0,0,0,.24-.63.71.71,0,0,0-.24-.6,3,3,0,0,0-1.26-.48l-1.26-.3a4.31,4.31,0,0,1-2.34-1.17,3.24,3.24,0,0,1-.87-2.31,4.79,4.79,0,0,1,1.26-3.27,6.77,6.77,0,0,1,4.8-1.62,11.07,11.07,0,0,1,4.29.87l-1.62,3.06a6.64,6.64,0,0,0-2.52-.66,2,2,0,0,0-1.11.27.72.72,0,0,0-.42.66.78.78,0,0,0,.57.75c.45.18.84.18,1.59.39l.87.24a5.67,5.67,0,0,1,2,1,3.79,3.79,0,0,1,1,2.67,4.48,4.48,0,0,1-1.35,3.33,7,7,0,0,1-4.95,1.68,9.89,9.89,0,0,1-5.4-1.56Z"/><path d="M449.56,511.39v9.48h-4.8v-9.48h-1.53v-3.93h1.53v-4.41h4.8v4.41h2.73v3.93Z"/><path d="M468.31,515.05h-10a3.39,3.39,0,0,0,.84,2.25,2.7,2.7,0,0,0,2,.66,3.79,3.79,0,0,0,1.56-.36,2.23,2.23,0,0,0,.84-.9h4.59a6,6,0,0,1-1.62,2.76c-1,1-2.55,1.86-5.46,1.86a7.61,7.61,0,0,1-5.55-2,7,7,0,0,1-2-5.07,7.16,7.16,0,0,1,2-5.19,7.55,7.55,0,0,1,5.49-1.95,7.35,7.35,0,0,1,5.16,1.83,7.51,7.51,0,0,1,2.13,5.64Zm-4.41-2.76a3.22,3.22,0,0,0-.78-1.44,2.8,2.8,0,0,0-2-.72,2.58,2.58,0,0,0-1.95.72,2.74,2.74,0,0,0-.72,1.44Z"/><path d="M471.07,507.46h4.8v1.62a5.15,5.15,0,0,1,4-1.86,5.46,5.46,0,0,1,2.58.6,4.19,4.19,0,0,1,1.86,1.92,4.71,4.71,0,0,1,1.83-1.86,5.44,5.44,0,0,1,2.79-.66,5.33,5.33,0,0,1,3.72,1.23,4.93,4.93,0,0,1,1.26,3.69v8.73h-4.8v-6.63c0-1.41-.15-2.37-.69-2.88a1.75,1.75,0,0,0-1.26-.45,1.94,1.94,0,0,0-1.41.54,3.43,3.43,0,0,0-.87,2.55v6.87h-4.8v-6.63a4.29,4.29,0,0,0-.63-2.88,1.86,1.86,0,0,0-1.44-.54,1.69,1.69,0,0,0-1.32.48,4,4,0,0,0-.84,2.94v6.63h-4.8Z"/><path d="M504.25,507.46h4.8v1.62a5.15,5.15,0,0,1,4-1.86,5.46,5.46,0,0,1,2.58.6,4.19,4.19,0,0,1,1.86,1.92,4.71,4.71,0,0,1,1.83-1.86,5.44,5.44,0,0,1,2.79-.66,5.33,5.33,0,0,1,3.72,1.23,4.93,4.93,0,0,1,1.26,3.69v8.73h-4.8v-6.63c0-1.41-.15-2.37-.69-2.88a1.75,1.75,0,0,0-1.26-.45,1.94,1.94,0,0,0-1.41.54,3.43,3.43,0,0,0-.87,2.55v6.87h-4.8v-6.63a4.29,4.29,0,0,0-.63-2.88,1.86,1.86,0,0,0-1.44-.54,1.69,1.69,0,0,0-1.32.48,4,4,0,0,0-.84,2.94v6.63h-4.8Z"/><path d="M543.94,519.1a9.18,9.18,0,0,1-12,0,6.92,6.92,0,0,1,0-9.87,8.37,8.37,0,0,1,6-2.22,8.47,8.47,0,0,1,6,2.22,6.92,6.92,0,0,1,0,9.87ZM535.81,512a3.06,3.06,0,0,0,2.16,5.22,3.05,3.05,0,0,0,2.13-.9,3,3,0,0,0,.93-2.13,3.26,3.26,0,0,0-.93-2.19,3.08,3.08,0,0,0-4.29,0Z"/><path d="M548.77,507.46h4.8v1.68a5.06,5.06,0,0,1,4.26-2,5.42,5.42,0,0,1,4,1.44,4.62,4.62,0,0,1,1.26,3.75v8.52h-4.8v-6.78a3.85,3.85,0,0,0-.6-2.61,2,2,0,0,0-1.53-.57,2.63,2.63,0,0,0-1.77.63,3.08,3.08,0,0,0-.78,2.13v7.2h-4.8Z"/><path d="M579.82,519.1a9.18,9.18,0,0,1-12,0,6.92,6.92,0,0,1,0-9.87,8.37,8.37,0,0,1,6-2.22,8.47,8.47,0,0,1,6,2.22,6.92,6.92,0,0,1,0,9.87ZM571.69,512a3.06,3.06,0,0,0,2.16,5.22,3.05,3.05,0,0,0,2.13-.9,3,3,0,0,0,.93-2.13A3.26,3.26,0,0,0,576,512a3.08,3.08,0,0,0-4.29,0Z"/><path d="M589.45,499v21.87h-4.8V499Z"/><path d="M595.12,499.18a2.7,2.7,0,1,1-2.7,2.7A2.69,2.69,0,0,1,595.12,499.18Zm2.4,8.28v13.41h-4.8V507.46Z"/><path d="M606.1,511.39v9.48h-4.8v-9.48h-1.53v-3.93h1.53v-4.41h4.8v4.41h2.73v3.93Z"/><path d="M613,499.18a2.7,2.7,0,1,1-2.7,2.7A2.69,2.69,0,0,1,613,499.18Zm2.4,8.28v13.41h-4.8V507.46Z"/><path d="M628.84,520.57a7.12,7.12,0,0,1-3.33.75,7.41,7.41,0,0,1-5.28-2,7,7,0,0,1-2.07-5,7.3,7.3,0,0,1,2.16-5.19,7.73,7.73,0,0,1,5.4-2,6.88,6.88,0,0,1,3.12.75v4a4.28,4.28,0,0,0-2.49-.87,3.15,3.15,0,0,0-2.34.93,3.26,3.26,0,0,0-.93,2.31,3.44,3.44,0,0,0,.84,2.25,3.26,3.26,0,0,0,2.46,1,3.63,3.63,0,0,0,2.46-.9Z"/></svg>