<svg id="Layer_1" data-name="Layer 1" xmlns="http://www.w3.org/2000/svg" viewBox="0 0 1647 256"><title>Capitolul12</title><polygon points="570.59 111.46 655.11 111.46 655.11 123.64 681 97.75 655.11 71.87 655.11 84.05 570.59 84.05 570.59 111.46" style="fill:none;stroke:#4fc2c9;stroke-miterlimit:10;stroke-width:5px"/><polygon points="967.59 111.46 1052.11 111.46 1052.11 123.64 1078 97.75 1052.11 71.87 1052.11 84.05 967.59 84.05 967.59 111.46" style="fill:none;stroke:#4fc2c9;stroke-miterlimit:10;stroke-width:5px"/><polygon points="275.59 111.46 360.11 111.46 360.11 123.64 386 97.75 360.11 71.87 360.11 84.05 275.59 84.05 275.59 111.46" style="fill:none;stroke:#4fc2c9;stroke-miterlimit:10;stroke-width:5px"/><rect x="424.12" y="51.95" width="104.21" height="73.51" rx="12" ry="12" style="fill:none;stroke:#3a5c84;stroke-miterlimit:10;stroke-width:5px"/><path d="M456.29,81.28a3.94,3.94,0,0,1-1.05,2.89.25.25,0,0,0-.05.27l1.29,2.7a.22.22,0,0,0,.24.14,3.92,3.92,0,0,1,4.2,3.78.25.25,0,0,0,.16.22l2.82,1H464a.2.2,0,0,0,.23-.08,3.78,3.78,0,0,1,.58-.55l0,0,.29-.2a1.67,1.67,0,0,1,.23-.12.24.24,0,0,1,.11-.06,3.75,3.75,0,0,1,1.5-.39,3.9,3.9,0,0,1,2.89,1,.2.2,0,0,0,.27,0l2.7-1.29h0a.22.22,0,0,0,.14-.23,3.89,3.89,0,0,1,2.5-3.93l.08,0,.15,0,.25-.08h0a3.66,3.66,0,0,1,.75-.1.26.26,0,0,0,.22-.17l1-2.82a.26.26,0,0,0-.07-.26,3.9,3.9,0,0,1-.3-5.64.23.23,0,0,0,0-.27l-.88-1.86h0l-.4-.84a.16.16,0,0,0-.07-.07h0l0,0a.13.13,0,0,0-.1,0h0a3.92,3.92,0,0,1-4.2-3.78.22.22,0,0,0-.16-.22l-2.82-1a.2.2,0,0,0-.26.07h0a4,4,0,0,1-.89.76l-.07,0-.26.14a3.9,3.9,0,0,1-4.41-.66.26.26,0,0,0-.27,0L460,70.83a.23.23,0,0,0-.13.24,3.93,3.93,0,0,1-3.79,4.2.21.21,0,0,0-.22.16l-.69,1.95h0l-.31.88a.27.27,0,0,0,.07.27A3.9,3.9,0,0,1,456.29,81.28Zm6.13-4.77,0,0,.27-.22.19-.16L463,76a5.81,5.81,0,1,1,5.83,10l-.48.2h0a5.82,5.82,0,0,1-5.93-9.72Z" style="fill:#3a5c84"/><path d="M469.79,102.42a5,5,0,0,1-1.35,3.71.32.32,0,0,0-.06.35l1.66,3.46c.1.2.21.19.3.18a5,5,0,0,1,5.4,4.86.32.32,0,0,0,.2.28l3.63,1.28h.06a.24.24,0,0,0,.29-.11,4.58,4.58,0,0,1,.76-.7s0,0,0,0l.36-.25a2.19,2.19,0,0,1,.3-.16l.14-.08a5,5,0,0,1,5.64.86.27.27,0,0,0,.34,0l3.47-1.66h0a.3.3,0,0,0,.18-.3,5,5,0,0,1,1.28-3.73,5,5,0,0,1,1.92-1.32l.12,0,.19-.06.31-.09H495a5.26,5.26,0,0,1,1-.13.3.3,0,0,0,.28-.21l1.29-3.62a.32.32,0,0,0-.1-.34,5,5,0,0,1-.37-7.25.32.32,0,0,0,.05-.34L496,94.62h0l-.52-1.08a.34.34,0,0,0-.08-.09l0,0,0,0-.12,0h0a5,5,0,0,1-5.4-4.86.3.3,0,0,0-.21-.28L486,86.93a.28.28,0,0,0-.34.08h0a5.21,5.21,0,0,1-1.16,1l-.08,0-.34.19a4.91,4.91,0,0,1-1.95.51,5.06,5.06,0,0,1-3.71-1.36.32.32,0,0,0-.34,0L474.59,89a.32.32,0,0,0-.18.3,5,5,0,0,1-4.86,5.39.28.28,0,0,0-.28.21l-.89,2.51h0l-.4,1.13a.33.33,0,0,0,.09.34A5.06,5.06,0,0,1,469.79,102.42Zm7.88-6.13s0,0,.05-.05l.34-.29c.09-.07.16-.14.25-.2l.11-.08a7.47,7.47,0,1,1,7.49,12.85,6.5,6.5,0,0,1-.61.25h0a7.47,7.47,0,0,1-7.61-12.49Z" style="fill:#3a5c84"/><path d="M475.21,69.1a2.67,2.67,0,0,1-.72,2,.17.17,0,0,0,0,.18l.88,1.84a.16.16,0,0,0,.16.1,2.65,2.65,0,0,1,2,.67,2.73,2.73,0,0,1,.89,1.9.17.17,0,0,0,.11.16l1.92.67h0a.14.14,0,0,0,.16-.06,2.34,2.34,0,0,1,.4-.37l0,0,.19-.13.16-.09.08,0a2.56,2.56,0,0,1,1-.26,2.63,2.63,0,0,1,2,.72.14.14,0,0,0,.18,0l1.84-.88h0a.16.16,0,0,0,.1-.16,2.62,2.62,0,0,1,.68-2,2.56,2.56,0,0,1,1-.7l.06,0,.1,0,.17,0h0a2.25,2.25,0,0,1,.52-.07.17.17,0,0,0,.15-.11l.68-1.93a.16.16,0,0,0,0-.17,2.7,2.7,0,0,1-.92-1.88,2.64,2.64,0,0,1,.72-2,.19.19,0,0,0,0-.19L489.13,65h0l-.27-.57a.08.08,0,0,0-.05,0h0l0,0a.07.07,0,0,0-.06,0h0a2.65,2.65,0,0,1-2-.68,2.69,2.69,0,0,1-.89-1.9.16.16,0,0,0-.11-.15l-1.92-.68a.13.13,0,0,0-.18.05h0a2.8,2.8,0,0,1-.61.53l-.05,0-.18.1a2.62,2.62,0,0,1-1,.27,2.67,2.67,0,0,1-2-.72.15.15,0,0,0-.18,0l-1.84.88a.17.17,0,0,0-.1.16A2.67,2.67,0,0,1,475.08,65a.16.16,0,0,0-.15.12l-.47,1.33h0l-.21.61a.18.18,0,0,0,.05.18A2.68,2.68,0,0,1,475.21,69.1Zm4.18-3.26,0,0,.18-.16a.69.69,0,0,0,.13-.11l.06,0a4,4,0,0,1,6,4.55,3.94,3.94,0,0,1-2.07,2.27l-.33.14h0a4,4,0,0,1-4-6.63Z" style="fill:#3a5c84"/><path d="M795.06,177.33h7.5v-7.47h5.22v20h-5.22v-8.1h-7.5v8.1h-5.19v-20h5.19Z"/><path d="M821.91,176.46h4.8v13.41h-4.8V188.4a5,5,0,0,1-4.17,1.92,6.42,6.42,0,0,1-4.83-2.13,6.76,6.76,0,0,1-1.92-4.92,7.42,7.42,0,0,1,2.07-5.37,6.9,6.9,0,0,1,4.83-1.89,5.31,5.31,0,0,1,4,1.74Zm-5,4.5a3.14,3.14,0,0,0-1,2.19,3.09,3.09,0,0,0,.93,2.19,3.37,3.37,0,0,0,2.16.9,3.08,3.08,0,0,0,2.16-.93,2.91,2.91,0,0,0,.9-2.16,3,3,0,0,0-.93-2.19,3,3,0,0,0-4.26,0Z"/><path d="M830.88,185.43a6.87,6.87,0,0,0,1.92,1,6.25,6.25,0,0,0,1.86.33,2,2,0,0,0,1.23-.36.77.77,0,0,0,.24-.63.71.71,0,0,0-.24-.6,3,3,0,0,0-1.26-.48l-1.26-.3a4.31,4.31,0,0,1-2.34-1.17,3.24,3.24,0,0,1-.87-2.31,4.79,4.79,0,0,1,1.26-3.27,6.77,6.77,0,0,1,4.8-1.62,11.07,11.07,0,0,1,4.29.87l-1.62,3.06a6.64,6.64,0,0,0-2.52-.66,2,2,0,0,0-1.11.27.72.72,0,0,0-.42.66.78.78,0,0,0,.57.75c.45.18.84.18,1.59.39l.87.24a5.67,5.67,0,0,1,2,1,3.79,3.79,0,0,1,1,2.67,4.48,4.48,0,0,1-1.35,3.33,7,7,0,0,1-4.95,1.68,9.89,9.89,0,0,1-5.4-1.56Z"/><path d="M843.33,168h4.8v10.14a5.85,5.85,0,0,1,1.5-1.32,6.14,6.14,0,0,1,6.72.78,4.68,4.68,0,0,1,1.26,3.75v8.52h-4.8v-6.78a4,4,0,0,0-.6-2.61,1.9,1.9,0,0,0-1.53-.57,2.57,2.57,0,0,0-1.74.57,2.92,2.92,0,0,0-.81,2.19v7.2h-4.8Z"/><path d="M410.36,186.51H403.1l-1.35,3.36h-5.49l7.68-20h5.67l7.53,20h-5.55Zm-1.38-4-2.25-6.48-2.19,6.48Z"/><path d="M423.8,168v21.87H419V168Z"/><path d="M442.16,176.46V189c0,2-.18,3.84-1.83,5.55a8,8,0,0,1-5.91,2.16,8.22,8.22,0,0,1-6.27-2.37,4.88,4.88,0,0,1-1.47-2.79H432a2.06,2.06,0,0,0,2.25,1.38,2.92,2.92,0,0,0,2.13-.75,3.23,3.23,0,0,0,1-2.49v-1.35a5.1,5.1,0,0,1-4,1.77,6.68,6.68,0,0,1-4.95-1.89,7.08,7.08,0,0,1-1.86-4.89,7.73,7.73,0,0,1,2-5.25,6.74,6.74,0,0,1,4.86-2,5.24,5.24,0,0,1,4,1.77v-1.38Zm-9.78,4.5a3,3,0,0,0,0,4.35,3,3,0,0,0,2.16.87,3.18,3.18,0,0,0,2.16-.9,3.25,3.25,0,0,0,.9-2.16,3.44,3.44,0,0,0-1-2.19,3,3,0,0,0-2.13-.87A2.86,2.86,0,0,0,432.38,181Z"/><path d="M459,188.1a9.18,9.18,0,0,1-12,0,6.92,6.92,0,0,1,0-9.87,8.35,8.35,0,0,1,6-2.22,8.47,8.47,0,0,1,6,2.22,6.63,6.63,0,0,1,2.07,4.92A6.73,6.73,0,0,1,459,188.1ZM450.83,181a3,3,0,1,0,4.29,4.32,3,3,0,0,0,.92-2.13,3.07,3.07,0,0,0-5.21-2.19Z"/><path d="M463.79,176.46h4.79v2.19a4.33,4.33,0,0,1,1.89-1.86,5.26,5.26,0,0,1,2.49-.54l1,.06v4.53a4.18,4.18,0,0,0-2.06-.48,3.13,3.13,0,0,0-2.19.72,4,4,0,0,0-1.09,3.06v5.73h-4.79Z"/><path d="M478.46,168.18a2.7,2.7,0,1,1-2.7,2.7A2.68,2.68,0,0,1,478.46,168.18Zm2.4,8.28v13.41h-4.81V176.46Z"/><path d="M489.43,180.39v9.48h-4.8v-9.48h-1.52v-3.93h1.52v-4.41h4.8v4.41h2.73v3.93Z"/><path d="M494,176.46h4.8v1.62a5.16,5.16,0,0,1,4-1.86,5.45,5.45,0,0,1,2.57.6,4.19,4.19,0,0,1,1.86,1.92,4.71,4.71,0,0,1,1.83-1.86,5.44,5.44,0,0,1,2.79-.66,5.33,5.33,0,0,1,3.72,1.23,4.93,4.93,0,0,1,1.26,3.69v8.73H512v-6.63c0-1.41-.15-2.37-.69-2.88a1.75,1.75,0,0,0-1.26-.45,1.94,1.94,0,0,0-1.41.54,3.43,3.43,0,0,0-.87,2.55v6.87H503v-6.63a4.35,4.35,0,0,0-.62-2.88,1.89,1.89,0,0,0-1.45-.54,1.69,1.69,0,0,0-1.32.48,4,4,0,0,0-.84,2.94v6.63H494Z"/><path d="M542.32,189.87h-4.8V188.4a4.92,4.92,0,0,1-4,1.92,6.42,6.42,0,0,1-4.71-1.86,7.4,7.4,0,0,1-2.16-5.34,7.31,7.31,0,0,1,2.19-5.31,6.86,6.86,0,0,1,4.74-1.8,5.31,5.31,0,0,1,4,1.74V168h4.8Zm-5.67-4.44a3.22,3.22,0,0,0,1-2.28,3.51,3.51,0,0,0-.9-2.16,3.08,3.08,0,0,0-4.32,0,3.29,3.29,0,0,0-.93,2.28,3,3,0,0,0,.93,2.1,3,3,0,0,0,2.13.9A3.28,3.28,0,0,0,536.65,185.43Z"/><path d="M559.84,184.05h-10a3.39,3.39,0,0,0,.84,2.25,2.7,2.7,0,0,0,2,.66,3.79,3.79,0,0,0,1.56-.36,2.23,2.23,0,0,0,.84-.9h4.59a6,6,0,0,1-1.62,2.76c-1,1-2.55,1.86-5.46,1.86a7.61,7.61,0,0,1-5.55-2,7,7,0,0,1-2-5.07,7.16,7.16,0,0,1,2-5.19,7.55,7.55,0,0,1,5.49-2,7.35,7.35,0,0,1,5.16,1.83,7.51,7.51,0,0,1,2.13,5.64Zm-4.41-2.76a3.22,3.22,0,0,0-.78-1.44,2.8,2.8,0,0,0-2-.72,2.58,2.58,0,0,0-1.95.72,2.74,2.74,0,0,0-.72,1.44Z"/><path d="M425.63,204h4.8v10.14a5.85,5.85,0,0,1,1.5-1.32,5.4,5.4,0,0,1,2.76-.66,5.34,5.34,0,0,1,3.95,1.44,4.68,4.68,0,0,1,1.26,3.75v8.52h-4.79v-6.78a4.05,4.05,0,0,0-.6-2.61,1.92,1.92,0,0,0-1.54-.57,2.55,2.55,0,0,0-1.73.57,2.92,2.92,0,0,0-.81,2.19v7.2h-4.8Z"/><path d="M452.45,212.46h4.8v13.41h-4.8V224.4a5,5,0,0,1-4.17,1.92,6.42,6.42,0,0,1-4.83-2.13,6.76,6.76,0,0,1-1.92-4.92,7.42,7.42,0,0,1,2.07-5.37,6.9,6.9,0,0,1,4.83-1.89,5.31,5.31,0,0,1,4,1.74Zm-5,4.5a3.14,3.14,0,0,0-1,2.19,3.09,3.09,0,0,0,.93,2.19,3.37,3.37,0,0,0,2.16.9,3.08,3.08,0,0,0,2.16-.93,2.91,2.91,0,0,0,.9-2.16,3,3,0,0,0-.93-2.19,3,3,0,0,0-4.26,0Z"/><path d="M461.42,221.43a6.87,6.87,0,0,0,1.92,1,6.25,6.25,0,0,0,1.86.33,2.05,2.05,0,0,0,1.23-.36.8.8,0,0,0,.24-.63.74.74,0,0,0-.24-.6,3,3,0,0,0-1.26-.48l-1.26-.3a4.31,4.31,0,0,1-2.34-1.17,3.24,3.24,0,0,1-.87-2.31,4.79,4.79,0,0,1,1.26-3.27,6.77,6.77,0,0,1,4.8-1.62,11,11,0,0,1,4.28.87l-1.61,3.06a6.64,6.64,0,0,0-2.52-.66,2.09,2.09,0,0,0-1.12.27.73.73,0,0,0-.41.66.77.77,0,0,0,.57.75c.44.18.84.18,1.59.39l.87.24a5.53,5.53,0,0,1,2,1,3.79,3.79,0,0,1,1,2.67,4.48,4.48,0,0,1-1.35,3.33,7,7,0,0,1-4.94,1.68,9.89,9.89,0,0,1-5.4-1.56Z"/><path d="M473.87,204h4.79v10.14a5.85,5.85,0,0,1,1.5-1.32,6.14,6.14,0,0,1,6.72.78,4.68,4.68,0,0,1,1.26,3.75v8.52h-4.8v-6.78a4,4,0,0,0-.6-2.61,1.9,1.9,0,0,0-1.53-.57,2.59,2.59,0,0,0-1.74.57,2.92,2.92,0,0,0-.81,2.19v7.2h-4.79Z"/><path d="M493.06,204.18a2.7,2.7,0,1,1-2.69,2.7A2.69,2.69,0,0,1,493.06,204.18Zm2.4,8.28v13.41h-4.79V212.46Z"/><path d="M498.73,212.46h4.81v1.68a5,5,0,0,1,4.25-2,5.42,5.42,0,0,1,4,1.44,4.62,4.62,0,0,1,1.26,3.75v8.52h-4.8v-6.78a3.9,3.9,0,0,0-.59-2.61,2,2,0,0,0-1.54-.57,2.65,2.65,0,0,0-1.77.63,3.08,3.08,0,0,0-.77,2.13v7.2h-4.81Z"/><path d="M531.37,212.46V225c0,2-.18,3.84-1.83,5.55a8,8,0,0,1-5.91,2.16,8.19,8.19,0,0,1-6.26-2.37,4.83,4.83,0,0,1-1.48-2.79h5.34a2.06,2.06,0,0,0,2.25,1.38,2.92,2.92,0,0,0,2.13-.75,3.23,3.23,0,0,0,1-2.49v-1.35a5.1,5.1,0,0,1-4,1.77,6.68,6.68,0,0,1-4.95-1.89,7.08,7.08,0,0,1-1.86-4.89,7.73,7.73,0,0,1,2-5.25,6.74,6.74,0,0,1,4.86-2,5.24,5.24,0,0,1,4,1.77v-1.38Zm-9.78,4.5a3,3,0,0,0,0,4.35,3,3,0,0,0,2.16.87,3.07,3.07,0,0,0,3.06-3.06,3.44,3.44,0,0,0-1-2.19,3,3,0,0,0-2.13-.87A2.86,2.86,0,0,0,521.59,217Z"/><path d="M85.47,187.24v6.63H80.28v-20h8.28a6.89,6.89,0,0,1,5.07,1.8,6.2,6.2,0,0,1,1.86,4.86,6.5,6.5,0,0,1-1.77,5,6.66,6.66,0,0,1-5,1.74Zm0-4.2h1.74a3.39,3.39,0,0,0,2.19-.63,2.29,2.29,0,0,0,.66-1.83,2.43,2.43,0,0,0-.6-1.8,3,3,0,0,0-2.22-.72H85.47Z"/><path d="M107.82,180.46h4.8v13.41h-4.8V192.4a5,5,0,0,1-4.17,1.92,6.42,6.42,0,0,1-4.83-2.13,6.76,6.76,0,0,1-1.92-4.92A7.42,7.42,0,0,1,99,181.9,6.9,6.9,0,0,1,103.8,180a5.31,5.31,0,0,1,4,1.74Zm-5,4.5a3.14,3.14,0,0,0-1,2.19,3.09,3.09,0,0,0,.93,2.19,3.37,3.37,0,0,0,2.16.9,3.08,3.08,0,0,0,2.16-.93,2.91,2.91,0,0,0,.9-2.16A3,3,0,0,0,107,185a3,3,0,0,0-4.26,0Z"/><path d="M115.92,180.46h4.8v2.19a4.33,4.33,0,0,1,1.89-1.86,5.24,5.24,0,0,1,2.49-.54l1,.06v4.53a4.23,4.23,0,0,0-2.07-.48,3.14,3.14,0,0,0-2.19.72,4,4,0,0,0-1.08,3.06v5.73h-4.8Z"/><path d="M141.09,192.1a9.18,9.18,0,0,1-12,0,6.92,6.92,0,0,1,0-9.87,8.37,8.37,0,0,1,6-2.22,8.47,8.47,0,0,1,6,2.22,6.92,6.92,0,0,1,0,9.87ZM133,185a3.06,3.06,0,0,0,2.16,5.22,3.05,3.05,0,0,0,2.13-.9,3,3,0,0,0,.93-2.13,3.26,3.26,0,0,0-.93-2.19,3.08,3.08,0,0,0-4.29,0Z"/><path d="M150.72,172v21.87h-4.8V172Z"/><path d="M164.37,180.46h4.8v13.41h-4.8V192.4a5,5,0,0,1-4.17,1.92,6.42,6.42,0,0,1-4.83-2.13,6.76,6.76,0,0,1-1.92-4.92,7.42,7.42,0,0,1,2.07-5.37,6.9,6.9,0,0,1,4.83-1.89,5.31,5.31,0,0,1,4,1.74Zm2.64-6.9a4.73,4.73,0,0,1-1.32,3.27,6.31,6.31,0,0,1-7.8,0,4.73,4.73,0,0,1-1.32-3.27h3.09a2.08,2.08,0,0,0,.6,1.23,2.44,2.44,0,0,0,3.06,0,2.08,2.08,0,0,0,.6-1.23ZM159.33,185a3.14,3.14,0,0,0-1,2.19,3.09,3.09,0,0,0,.93,2.19,3.37,3.37,0,0,0,2.16.9,3.08,3.08,0,0,0,2.16-.93,2.91,2.91,0,0,0,.9-2.16,3,3,0,0,0-.93-2.19,3,3,0,0,0-4.26,0Z"/><rect x="18.26" y="74.16" width="217.74" height="46.07" rx="12" ry="12" style="fill:none;stroke:#4fc2c9;stroke-miterlimit:10;stroke-width:5.42276672124171px"/><line x1="31.93" y1="82.94" x2="31.93" y2="111.46" style="fill:none;stroke:#4fc2c9;stroke-miterlimit:10;stroke-width:5.42276672124171px"/><path d="M68.84,98.15,63.41,92h6.24L72,94.79,74.33,92h6.21L75,98.15l6.72,7.29H75.35l-3.42-4-3.42,4H62.15Z"/><path d="M87.86,98.6a3.12,3.12,0,0,0,.81,2,2.76,2.76,0,0,0,2,.78,2.66,2.66,0,0,0,2-.87,2.35,2.35,0,0,0,.6-1.65,2.29,2.29,0,0,0-.78-1.77,3.14,3.14,0,0,0-1.92-.57,2.65,2.65,0,0,0-.87.12V93.14a2.54,2.54,0,0,0,2.13-.51,1.88,1.88,0,0,0,.66-1.41A2.22,2.22,0,0,0,92,89.78a2.15,2.15,0,0,0-1.47-.54,2,2,0,0,0-1.44.51,2.52,2.52,0,0,0-.69,1.77H83.6a7.11,7.11,0,0,1,2-4.59,8,8,0,0,1,10.26-.18,5.44,5.44,0,0,1,1.62,3.87,4.82,4.82,0,0,1-.6,2.46,3.43,3.43,0,0,1-1.53,1.53,4.9,4.9,0,0,1,2.37,1.83,5.06,5.06,0,0,1,.84,2.94,6,6,0,0,1-1.77,4.38,8.2,8.2,0,0,1-6,2.13A8.09,8.09,0,0,1,85,103.82a8,8,0,0,1-2.49-5.22Z"/><path d="M102.65,105.08a3.12,3.12,0,0,1,2.19-5.31,3.15,3.15,0,0,1,2.22,1,3.12,3.12,0,0,1,0,4.35,3.07,3.07,0,0,1-2.19.93A3,3,0,0,1,102.65,105.08Zm-.33-6.45V85.43h5v13.2Z"/><path d="M116.39,112.31h-4.8V92h4.8V93.5a5,5,0,0,1,4.11-1.92,6.67,6.67,0,0,1,4.77,2,7.61,7.61,0,0,1-.12,10.5,6.44,6.44,0,0,1-4.59,1.86,5.71,5.71,0,0,1-4.17-1.74Zm.78-15.75a3.27,3.27,0,0,0-.93,2.22,3.24,3.24,0,0,0,.93,2.13,3.07,3.07,0,0,0,2.16.9,2.9,2.9,0,0,0,2.13-.9,3.17,3.17,0,0,0,.93-2.13,3.27,3.27,0,0,0-.93-2.22,2.9,2.9,0,0,0-2.13-.9A3.07,3.07,0,0,0,117.17,96.56Z"/><path d="M135.38,96v9.48h-4.8V96h-1.53V92h1.53V87.62h4.8V92h2.73V96Z"/><path d="M155.54,96.47,155,100H152l-.87,5.46h-4L148,100h-2.55l-.87,5.46h-4l.9-5.46h-3.06l.54-3.51h3l.42-2.49h-3l.54-3.48h3l.81-5.07h4l-.84,5.07h2.55l.81-5.07h4l-.81,5.07h3L155.9,94h-3l-.39,2.49ZM148.91,94h-2.55L146,96.47h2.55Z"/><path d="M162.71,83.57V96.86L167.24,92h6.51l-6.33,6.18,6.84,7.23H167.6L162.71,100v5.49h-4.8V83.57Z"/><path d="M188.81,103.61a7.82,7.82,0,0,1-11,0,11.34,11.34,0,0,1-3-8.16,11.37,11.37,0,0,1,3-8.19,7.82,7.82,0,0,1,11,0,11.37,11.37,0,0,1,3,8.19A11.34,11.34,0,0,1,188.81,103.61ZM181.7,90.26c-1.08.93-1.74,3.36-1.74,5.22,0,1.59.57,4.2,1.74,5.22a2.32,2.32,0,0,0,3.18,0c1.11-1,1.74-3.48,1.74-5.19s-.69-4.32-1.74-5.25a2.32,2.32,0,0,0-3.18,0Z"/><rect x="713.26" y="70.16" width="217.74" height="46.07" rx="12" ry="12" style="fill:none;stroke:#c13018;stroke-miterlimit:10;stroke-width:5.42276672124171px"/><line x1="726.93" y1="78.94" x2="726.93" y2="107.46" style="fill:none;stroke:#c13018;stroke-miterlimit:10;stroke-width:5.42276672124171px"/><path d="M764.23,92v9.48h-4.8V92h-1.68V88h1.68V85.78a6.9,6.9,0,0,1,1.23-4.41,5.58,5.58,0,0,1,4.65-2.13,6.09,6.09,0,0,1,2.31.45v4.14a3,3,0,0,0-1.5-.45,1.73,1.73,0,0,0-1.35.51,3.55,3.55,0,0,0-.54,2.25V88h3.36V92Z"/><path d="M782.62,85.84h-6.93l-.36,2.22a11.15,11.15,0,0,1,1.62-.15,7.11,7.11,0,0,1,5.28,2,6.51,6.51,0,0,1,1.83,4.74,7,7,0,0,1-1.92,5,8.34,8.34,0,0,1-6.24,2.25,12.15,12.15,0,0,1-6.75-1.8l.78-4.86a9.7,9.7,0,0,0,2.4,1.62,7.44,7.44,0,0,0,3,.69,3.6,3.6,0,0,0,2.61-1,3,3,0,0,0,.78-2,2.82,2.82,0,0,0-1-2.16,5.76,5.76,0,0,0-3.6-1,8.06,8.06,0,0,0-3.69.84l1.74-10.77h10.41Z"/><path d="M791.92,94.6a3.12,3.12,0,0,0,.81,2,2.76,2.76,0,0,0,2,.78,2.66,2.66,0,0,0,2-.87,2.35,2.35,0,0,0,.6-1.65,2.29,2.29,0,0,0-.78-1.77,3.14,3.14,0,0,0-1.92-.57,2.65,2.65,0,0,0-.87.12V89.14a2.54,2.54,0,0,0,2.13-.51,1.88,1.88,0,0,0,.66-1.41,2.22,2.22,0,0,0-.54-1.44,2.15,2.15,0,0,0-1.47-.54,2,2,0,0,0-1.44.51,2.52,2.52,0,0,0-.69,1.77h-4.83a7.11,7.11,0,0,1,2-4.59,8,8,0,0,1,10.26-.18,5.44,5.44,0,0,1,1.62,3.87,4.82,4.82,0,0,1-.6,2.46,3.43,3.43,0,0,1-1.53,1.53,4.9,4.9,0,0,1,2.37,1.83,5.06,5.06,0,0,1,.84,2.94,6,6,0,0,1-1.77,4.38,8.2,8.2,0,0,1-6,2.13,8.09,8.09,0,0,1-5.73-2.07,8,8,0,0,1-2.49-5.22Z"/><path d="M807.79,85.84h-2.85V81.43h8v20h-5.19Z"/><path d="M831.85,101.44H815.8l5.07-5.31A33.14,33.14,0,0,0,825,91.06a5.63,5.63,0,0,0,1.08-3.12,3,3,0,0,0-.6-1.92,2,2,0,0,0-1.47-.6,2.15,2.15,0,0,0-1.74.81,5,5,0,0,0-.72,2.46h-5.37a8,8,0,0,1,2.22-5.55,8.62,8.62,0,0,1,11.31-.09A6.68,6.68,0,0,1,831.64,88c0,2.52-1.17,4.26-3,5.94L825.31,97h6.54Z"/><path d="M843.13,85.84h-8.34V81.43H851.2l-11.46,20H834Z"/><path d="M856.72,79.57v9.75a5.31,5.31,0,0,1,4-1.74,6.86,6.86,0,0,1,4.74,1.8,7.31,7.31,0,0,1,2.19,5.31,7.4,7.4,0,0,1-2.16,5.34,6.42,6.42,0,0,1-4.71,1.86,4.92,4.92,0,0,1-4-1.92v1.47h-4.8V79.57Zm5.07,17.34a3,3,0,0,0,.93-2.1,3.29,3.29,0,0,0-.93-2.28,3.08,3.08,0,0,0-4.32,0,3.51,3.51,0,0,0-.9,2.16,3.22,3.22,0,0,0,1,2.28,3.28,3.28,0,0,0,2.07.81A3,3,0,0,0,861.79,96.91Z"/><path d="M870.4,88h4.8v2.19a4.33,4.33,0,0,1,1.89-1.86,5.24,5.24,0,0,1,2.49-.54l1,.06v4.53a4.23,4.23,0,0,0-2.07-.48,3.14,3.14,0,0,0-2.19.72,4,4,0,0,0-1.08,3.06v5.73h-4.8Z"/><path d="M897.85,101.44H881.8l5.07-5.31A33.14,33.14,0,0,0,891,91.06a5.63,5.63,0,0,0,1.08-3.12,3,3,0,0,0-.6-1.92,2,2,0,0,0-1.47-.6,2.15,2.15,0,0,0-1.74.81,5,5,0,0,0-.72,2.46h-5.37a8,8,0,0,1,2.22-5.55,8.62,8.62,0,0,1,11.31-.09A6.68,6.68,0,0,1,897.64,88c0,2.52-1.17,4.26-3,5.94L891.31,97h6.54Z"/><rect x="1124.57" y="94.57" width="154.27" height="31.42" rx="6.03" ry="6.03" transform="translate(-0.7 7.86) rotate(-0.37)" style="fill:none;stroke:#91c54f;stroke-miterlimit:10;stroke-width:5px"/><circle cx="1141.68" cy="106.39" r="2.86" style="fill:#91c54f"/><circle cx="1149.88" cy="106.34" r="2.86" style="fill:#91c54f"/><circle cx="1141.74" cy="114.96" r="2.86" style="fill:#91c54f"/><circle cx="1149.93" cy="114.91" r="2.86" style="fill:#91c54f"/><rect x="1224.55" y="107.14" width="44.28" height="4.29" rx="0.82" ry="0.82" transform="translate(-0.69 8.16) rotate(-0.37)" style="fill:#91c54f"/><rect x="1124.34" y="59.35" width="154.27" height="31.42" rx="6.03" ry="6.03" transform="translate(-0.47 7.86) rotate(-0.37)" style="fill:none;stroke:#91c54f;stroke-miterlimit:10;stroke-width:5px"/><circle cx="1141.45" cy="71.17" r="2.86" style="fill:#91c54f"/><circle cx="1149.65" cy="71.11" r="2.86" style="fill:#91c54f"/><circle cx="1141.51" cy="79.74" r="2.86" style="fill:#91c54f"/><circle cx="1149.7" cy="79.68" r="2.86" style="fill:#91c54f"/><rect x="1224.32" y="71.91" width="44.28" height="4.29" rx="0.82" ry="0.82" transform="translate(-0.46 8.16) rotate(-0.37)" style="fill:#91c54f"/><rect x="1124.1" y="23.3" width="154.27" height="31.42" rx="6.03" ry="6.03" transform="translate(-0.23 7.86) rotate(-0.37)" style="fill:none;stroke:#91c54f;stroke-miterlimit:10;stroke-width:5px"/><circle cx="1141.22" cy="35.12" r="2.86" style="fill:#91c54f"/><circle cx="1149.41" cy="35.07" r="2.86" style="fill:#91c54f"/><circle cx="1141.27" cy="43.69" r="2.86" style="fill:#91c54f"/><circle cx="1149.47" cy="43.64" r="2.86" style="fill:#91c54f"/><rect x="1224.08" y="35.86" width="44.28" height="4.29" rx="0.82" ry="0.82" transform="translate(-0.22 8.15) rotate(-0.37)" style="fill:#91c54f"/><path d="M1112.44,189.87v-20h7.74a5.61,5.61,0,0,1,4.38,1.56,5.41,5.41,0,0,1,1.23,3.75,5.19,5.19,0,0,1-.57,2.46,3.15,3.15,0,0,1-1.62,1.56,5,5,0,0,1,2.73,1.2,5,5,0,0,1,1.35,3.66,5.43,5.43,0,0,1-1.47,3.93,7.52,7.52,0,0,1-5.43,1.89Zm5.19-12.12h1a2.74,2.74,0,0,0,2-.63,1.94,1.94,0,0,0,.48-1.32,2.06,2.06,0,0,0-.48-1.35,2.75,2.75,0,0,0-2-.6h-1Zm0,8.07h1.17c1.44,0,2.64-.15,3.21-.81a2,2,0,0,0,.42-1.29,2,2,0,0,0-.51-1.44c-.63-.63-1.92-.66-3.21-.66h-1.08Z"/><path d="M1140.91,176.46h4.8v13.41h-4.8V188.4a5,5,0,0,1-4.17,1.92,6.42,6.42,0,0,1-4.83-2.13,6.76,6.76,0,0,1-1.92-4.92,7.42,7.42,0,0,1,2.07-5.37,6.9,6.9,0,0,1,4.83-1.89,5.31,5.31,0,0,1,4,1.74Zm-5,4.5a3.14,3.14,0,0,0-1,2.19,3.09,3.09,0,0,0,.93,2.19,3.37,3.37,0,0,0,2.16.9,3.08,3.08,0,0,0,2.16-.93,2.91,2.91,0,0,0,.9-2.16,3,3,0,0,0-.93-2.19,3,3,0,0,0-4.26,0Z"/><path d="M1156,185.94h5.61v3.93H1148l6.33-9.48h-5.4v-3.93h13.38Z"/><path d="M1174.9,176.46h4.8v13.41h-4.8V188.4a5,5,0,0,1-4.17,1.92,6.42,6.42,0,0,1-4.83-2.13,6.76,6.76,0,0,1-1.92-4.92,7.42,7.42,0,0,1,2.07-5.37,6.9,6.9,0,0,1,4.83-1.89,5.31,5.31,0,0,1,4,1.74Zm2.64-6.9a4.73,4.73,0,0,1-1.32,3.27,6.31,6.31,0,0,1-7.8,0,4.73,4.73,0,0,1-1.32-3.27h3.09a2.08,2.08,0,0,0,.6,1.23,2.44,2.44,0,0,0,3.06,0,2.08,2.08,0,0,0,.6-1.23Zm-7.68,11.4a3.14,3.14,0,0,0-1,2.19,3.09,3.09,0,0,0,.93,2.19,3.37,3.37,0,0,0,2.16.9,3.08,3.08,0,0,0,2.16-.93,2.91,2.91,0,0,0,.9-2.16,3,3,0,0,0-.93-2.19,3,3,0,0,0-4.26,0Z"/><path d="M1205.17,189.87h-4.8V188.4a4.92,4.92,0,0,1-4,1.92,6.42,6.42,0,0,1-4.71-1.86,7.4,7.4,0,0,1-2.16-5.34,7.31,7.31,0,0,1,2.19-5.31,6.86,6.86,0,0,1,4.74-1.8,5.31,5.31,0,0,1,4,1.74V168h4.8Zm-5.67-4.44a3.22,3.22,0,0,0,1-2.28,3.51,3.51,0,0,0-.9-2.16,3.08,3.08,0,0,0-4.32,0,3.29,3.29,0,0,0-.93,2.28,3,3,0,0,0,.93,2.1,3,3,0,0,0,2.13.9A3.28,3.28,0,0,0,1199.5,185.43Z"/><path d="M1222.69,184.05h-10a3.39,3.39,0,0,0,.84,2.25,2.7,2.7,0,0,0,2,.66,3.79,3.79,0,0,0,1.56-.36,2.23,2.23,0,0,0,.84-.9h4.59a6,6,0,0,1-1.62,2.76c-1,1-2.55,1.86-5.46,1.86a7.61,7.61,0,0,1-5.55-2,7,7,0,0,1-2-5.07,7.16,7.16,0,0,1,2-5.19,7.55,7.55,0,0,1,5.49-2,7.35,7.35,0,0,1,5.16,1.83,7.51,7.51,0,0,1,2.13,5.64Zm-4.41-2.76a3.22,3.22,0,0,0-.78-1.44,2.8,2.8,0,0,0-2-.72,2.58,2.58,0,0,0-2,.72,2.74,2.74,0,0,0-.72,1.44Z"/><path d="M1247.62,189.87h-4.8V188.4a4.92,4.92,0,0,1-4,1.92,6.42,6.42,0,0,1-4.71-1.86,7.4,7.4,0,0,1-2.16-5.34,7.31,7.31,0,0,1,2.19-5.31,6.86,6.86,0,0,1,4.74-1.8,5.31,5.31,0,0,1,4,1.74V168h4.8Zm-5.67-4.44a3.22,3.22,0,0,0,1-2.28,3.51,3.51,0,0,0-.9-2.16,3.08,3.08,0,0,0-4.32,0,3.29,3.29,0,0,0-.93,2.28,3,3,0,0,0,.93,2.1,3,3,0,0,0,2.13.9A3.28,3.28,0,0,0,1242,185.43Z"/><path d="M1261.3,176.46h4.8v13.41h-4.8V188.4a5,5,0,0,1-4.17,1.92,6.42,6.42,0,0,1-4.83-2.13,6.76,6.76,0,0,1-1.92-4.92,7.42,7.42,0,0,1,2.07-5.37,6.9,6.9,0,0,1,4.83-1.89,5.31,5.31,0,0,1,4,1.74Zm-5,4.5a3.14,3.14,0,0,0-1,2.19,3.09,3.09,0,0,0,.93,2.19,3.37,3.37,0,0,0,2.16.9,3.08,3.08,0,0,0,2.16-.93,2.91,2.91,0,0,0,.9-2.16,3,3,0,0,0-.93-2.19,3,3,0,0,0-4.26,0Z"/><path d="M1274.71,180.39v9.48h-4.8v-9.48h-1.53v-3.93h1.53v-4.41h4.8v4.41h2.73v3.93Z"/><path d="M1293.46,184.05h-10a3.39,3.39,0,0,0,.84,2.25,2.7,2.7,0,0,0,2,.66,3.79,3.79,0,0,0,1.56-.36,2.23,2.23,0,0,0,.84-.9h4.59a6,6,0,0,1-1.62,2.76c-1,1-2.55,1.86-5.46,1.86a7.61,7.61,0,0,1-5.55-2,7,7,0,0,1-2-5.07,7.16,7.16,0,0,1,2-5.19,7.55,7.55,0,0,1,5.49-2,7.35,7.35,0,0,1,5.16,1.83,7.55,7.55,0,0,1,2.13,5.64Zm-4.41-2.76a3.22,3.22,0,0,0-.78-1.44,2.8,2.8,0,0,0-2-.72,2.58,2.58,0,0,0-2,.72,2.74,2.74,0,0,0-.72,1.44Z"/><path d="M1070.13,225.87h-4.8V224.4a4.92,4.92,0,0,1-4,1.92,6.42,6.42,0,0,1-4.71-1.86,7.4,7.4,0,0,1-2.16-5.34,7.31,7.31,0,0,1,2.19-5.31,6.86,6.86,0,0,1,4.74-1.8,5.31,5.31,0,0,1,4,1.74V204h4.8Zm-5.67-4.44a3.26,3.26,0,0,0,1-2.28,3.51,3.51,0,0,0-.9-2.16,3.08,3.08,0,0,0-4.32,0,3.29,3.29,0,0,0-.93,2.28,3,3,0,0,0,.93,2.1,3,3,0,0,0,2.13.9A3.28,3.28,0,0,0,1064.46,221.43Z"/><path d="M1087.64,220.05h-10a3.34,3.34,0,0,0,.84,2.25,2.67,2.67,0,0,0,2,.66,3.85,3.85,0,0,0,1.57-.36,2.3,2.3,0,0,0,.84-.9h4.58a6,6,0,0,1-1.62,2.76c-1,1-2.55,1.86-5.46,1.86a7.63,7.63,0,0,1-5.55-2,7,7,0,0,1-2-5.07,7.16,7.16,0,0,1,2-5.19,7.53,7.53,0,0,1,5.49-2,7.32,7.32,0,0,1,5.15,1.83,7.51,7.51,0,0,1,2.13,5.64Zm-4.4-2.76a3.32,3.32,0,0,0-.78-1.44,2.8,2.8,0,0,0-2-.72,2.57,2.57,0,0,0-1.94.72,2.82,2.82,0,0,0-.73,1.44Z"/><path d="M1097.39,204h4.8v10.14a5.85,5.85,0,0,1,1.5-1.32,6.14,6.14,0,0,1,6.72.78,4.68,4.68,0,0,1,1.26,3.75v8.52h-4.8v-6.78a4,4,0,0,0-.6-2.61,1.9,1.9,0,0,0-1.53-.57,2.57,2.57,0,0,0-1.74.57,2.92,2.92,0,0,0-.81,2.19v7.2h-4.8Z"/><path d="M1124.21,212.46h4.8v13.41h-4.8V224.4a5,5,0,0,1-4.17,1.92,6.42,6.42,0,0,1-4.83-2.13,6.76,6.76,0,0,1-1.92-4.92,7.42,7.42,0,0,1,2.07-5.37,6.9,6.9,0,0,1,4.83-1.89,5.31,5.31,0,0,1,4,1.74Zm-5,4.5a3.14,3.14,0,0,0-1,2.19,3.09,3.09,0,0,0,.93,2.19,3.37,3.37,0,0,0,2.16.9,3.08,3.08,0,0,0,2.16-.93,2.91,2.91,0,0,0,.9-2.16,3,3,0,0,0-.93-2.19,3,3,0,0,0-4.26,0Z"/><path d="M1133.18,221.43a6.87,6.87,0,0,0,1.92,1,6.25,6.25,0,0,0,1.86.33,2,2,0,0,0,1.23-.36.77.77,0,0,0,.24-.63.71.71,0,0,0-.24-.6,3,3,0,0,0-1.26-.48l-1.26-.3a4.31,4.31,0,0,1-2.34-1.17,3.24,3.24,0,0,1-.87-2.31,4.79,4.79,0,0,1,1.26-3.27,6.77,6.77,0,0,1,4.8-1.62,11.07,11.07,0,0,1,4.29.87l-1.62,3.06a6.64,6.64,0,0,0-2.52-.66,2,2,0,0,0-1.11.27.72.72,0,0,0-.42.66.78.78,0,0,0,.57.75c.45.18.84.18,1.59.39l.87.24a5.67,5.67,0,0,1,2,1,3.79,3.79,0,0,1,1,2.67,4.48,4.48,0,0,1-1.35,3.33,7,7,0,0,1-5,1.68,9.89,9.89,0,0,1-5.4-1.56Z"/><path d="M1145.63,204h4.8v10.14a5.85,5.85,0,0,1,1.5-1.32,6.14,6.14,0,0,1,6.72.78,4.68,4.68,0,0,1,1.26,3.75v8.52h-4.8v-6.78a4,4,0,0,0-.6-2.61,1.9,1.9,0,0,0-1.53-.57,2.57,2.57,0,0,0-1.74.57,2.92,2.92,0,0,0-.81,2.19v7.2h-4.8Z"/><path d="M1163,215.82h7.59v4H1163Z"/><path d="M1178.57,212.46V220a2.57,2.57,0,0,0,.72,1.95,2.48,2.48,0,0,0,1.68.51,2.24,2.24,0,0,0,1.71-.57,2.49,2.49,0,0,0,.69-1.89v-7.5h4.8v8.37a4.6,4.6,0,0,1-1.29,3.6c-1.65,1.71-4,1.89-5.79,1.89-2,0-4.47-.21-6.06-1.92a4.82,4.82,0,0,1-1.26-3.57v-8.37Z"/><path d="M1191.47,212.46h4.8v2.19a4.33,4.33,0,0,1,1.89-1.86,5.24,5.24,0,0,1,2.49-.54l1,.06v4.53a4.23,4.23,0,0,0-2.07-.48,3.14,3.14,0,0,0-2.19.72,4,4,0,0,0-1.08,3.06v5.73h-4.8Z"/><path d="M1206.14,204.18a2.7,2.7,0,1,1-2.7,2.7A2.69,2.69,0,0,1,1206.14,204.18Zm2.4,8.28v13.41h-4.8V212.46Z"/><path d="M1234,225.87h-4.8V224.4a4.92,4.92,0,0,1-4,1.92,6.42,6.42,0,0,1-4.71-1.86,7.4,7.4,0,0,1-2.16-5.34,7.31,7.31,0,0,1,2.19-5.31,6.86,6.86,0,0,1,4.74-1.8,5.31,5.31,0,0,1,4,1.74V204h4.8Zm-5.67-4.44a3.22,3.22,0,0,0,1-2.28,3.51,3.51,0,0,0-.9-2.16,3.08,3.08,0,0,0-4.32,0,3.29,3.29,0,0,0-.93,2.28,3,3,0,0,0,.93,2.1,3,3,0,0,0,2.13.9A3.28,3.28,0,0,0,1228.31,221.43Z"/><path d="M1251.5,220.05h-10a3.39,3.39,0,0,0,.84,2.25,2.7,2.7,0,0,0,2,.66,3.79,3.79,0,0,0,1.56-.36,2.23,2.23,0,0,0,.84-.9h4.59a6,6,0,0,1-1.62,2.76c-1,1-2.55,1.86-5.46,1.86a7.61,7.61,0,0,1-5.55-2,7,7,0,0,1-2-5.07,7.16,7.16,0,0,1,2-5.19,7.55,7.55,0,0,1,5.49-2,7.35,7.35,0,0,1,5.16,1.83,7.51,7.51,0,0,1,2.13,5.64Zm-4.41-2.76a3.22,3.22,0,0,0-.78-1.44,2.8,2.8,0,0,0-2-.72,2.58,2.58,0,0,0-1.95.72,2.74,2.74,0,0,0-.72,1.44Z"/><path d="M1266.05,232.74h-4.8V212.46h4.8v1.47a5,5,0,0,1,4.11-1.92,6.67,6.67,0,0,1,4.77,2,7.61,7.61,0,0,1-.12,10.5,6.44,6.44,0,0,1-4.59,1.86,5.71,5.71,0,0,1-4.17-1.74Zm.78-15.75a3.27,3.27,0,0,0-.93,2.22,3.24,3.24,0,0,0,.93,2.13,3.07,3.07,0,0,0,2.16.9,2.9,2.9,0,0,0,2.13-.9,3.17,3.17,0,0,0,.93-2.13,3.27,3.27,0,0,0-.93-2.22,2.9,2.9,0,0,0-2.13-.9A3.07,3.07,0,0,0,1266.83,217Z"/><path d="M1290.11,212.46h4.8v13.41h-4.8V224.4a5,5,0,0,1-4.17,1.92,6.42,6.42,0,0,1-4.83-2.13,6.76,6.76,0,0,1-1.92-4.92,7.42,7.42,0,0,1,2.07-5.37,6.9,6.9,0,0,1,4.83-1.89,5.31,5.31,0,0,1,4,1.74Zm-5,4.5a3.14,3.14,0,0,0-1,2.19,3.09,3.09,0,0,0,.93,2.19,3.37,3.37,0,0,0,2.16.9,3.08,3.08,0,0,0,2.16-.93,2.91,2.91,0,0,0,.9-2.16,3,3,0,0,0-.93-2.19,3,3,0,0,0-4.26,0Z"/><path d="M1298.21,212.46h4.8v2.19a4.33,4.33,0,0,1,1.89-1.86,5.24,5.24,0,0,1,2.49-.54l1,.06v4.53a4.23,4.23,0,0,0-2.07-.48,3.14,3.14,0,0,0-2.19.72,4,4,0,0,0-1.08,3.06v5.73h-4.8Z"/><path d="M1323.38,224.1a9.18,9.18,0,0,1-12,0,6.92,6.92,0,0,1,0-9.87,8.37,8.37,0,0,1,6-2.22,8.47,8.47,0,0,1,6,2.22,6.92,6.92,0,0,1,0,9.87Zm-8.13-7.14a3.06,3.06,0,0,0,2.16,5.22,3.05,3.05,0,0,0,2.13-.9,3,3,0,0,0,.93-2.13,3.26,3.26,0,0,0-.93-2.19,3.08,3.08,0,0,0-4.29,0Z"/><path d="M1333,204v21.87h-4.8V204Z"/><path d="M1350.5,220.05h-10a3.39,3.39,0,0,0,.84,2.25,2.7,2.7,0,0,0,2,.66,3.79,3.79,0,0,0,1.56-.36,2.23,2.23,0,0,0,.84-.9h4.59a6,6,0,0,1-1.62,2.76c-1,1-2.55,1.86-5.46,1.86a7.61,7.61,0,0,1-5.55-2,7,7,0,0,1-2-5.07,7.16,7.16,0,0,1,2-5.19,7.55,7.55,0,0,1,5.49-2,7.35,7.35,0,0,1,5.16,1.83,7.51,7.51,0,0,1,2.13,5.64Zm-4.41-2.76a3.22,3.22,0,0,0-.78-1.44,2.8,2.8,0,0,0-2-.72,2.58,2.58,0,0,0-1.95.72,2.74,2.74,0,0,0-.72,1.44Z"/><polygon points="1334.59 111.46 1419.11 111.46 1419.11 123.64 1445 97.75 1419.11 71.87 1419.11 84.05 1334.59 84.05 1334.59 111.46" style="fill:none;stroke:#4fc2c9;stroke-miterlimit:10;stroke-width:5px"/><path d="M1558.33,24a62.19,62.19,0,1,0,62.19,62.19A62.19,62.19,0,0,0,1558.33,24Zm-11.4,94.13-27.39-27.38,9.13-9.13,18.26,18.26L1588,58.81l9.12,9.12Z" style="fill:#91c54f"/><path d="M1534.21,186.51H1527l-1.35,3.36h-5.49l7.68-20h5.67l7.53,20h-5.55Zm-1.38-4-2.25-6.48-2.19,6.48Z"/><path d="M1553,189.57a7.12,7.12,0,0,1-3.33.75,7.41,7.41,0,0,1-5.28-2,7,7,0,0,1-2.07-5,7.3,7.3,0,0,1,2.16-5.19,7.73,7.73,0,0,1,5.4-2,6.88,6.88,0,0,1,3.12.75v4a4.28,4.28,0,0,0-2.49-.87,3.15,3.15,0,0,0-2.34.93,3.26,3.26,0,0,0-.93,2.31,3.44,3.44,0,0,0,.84,2.25,3.26,3.26,0,0,0,2.46,1,3.63,3.63,0,0,0,2.46-.9Z"/><path d="M1565.86,189.57a7.12,7.12,0,0,1-3.33.75,7.41,7.41,0,0,1-5.28-2,7,7,0,0,1-2.07-5,7.3,7.3,0,0,1,2.16-5.19,7.73,7.73,0,0,1,5.4-2,6.88,6.88,0,0,1,3.12.75v4a4.28,4.28,0,0,0-2.49-.87,3.15,3.15,0,0,0-2.34.93,3.26,3.26,0,0,0-.93,2.31,3.44,3.44,0,0,0,.84,2.25,3.26,3.26,0,0,0,2.46,1,3.63,3.63,0,0,0,2.46-.9Z"/><path d="M1582.81,184.05h-10a3.39,3.39,0,0,0,.84,2.25,2.7,2.7,0,0,0,2,.66,3.79,3.79,0,0,0,1.56-.36,2.23,2.23,0,0,0,.84-.9h4.59a6,6,0,0,1-1.62,2.76c-1,1-2.55,1.86-5.46,1.86a7.61,7.61,0,0,1-5.55-2,7,7,0,0,1-2-5.07,7.16,7.16,0,0,1,2-5.19,7.55,7.55,0,0,1,5.49-2,7.35,7.35,0,0,1,5.16,1.83,7.51,7.51,0,0,1,2.13,5.64Zm-4.41-2.76a3.22,3.22,0,0,0-.78-1.44,2.8,2.8,0,0,0-2-.72,2.58,2.58,0,0,0-2,.72,2.74,2.74,0,0,0-.72,1.44Z"/><path d="M1586.44,185.43a6.87,6.87,0,0,0,1.92,1,6.25,6.25,0,0,0,1.86.33,2,2,0,0,0,1.23-.36.77.77,0,0,0,.24-.63.71.71,0,0,0-.24-.6,3,3,0,0,0-1.26-.48l-1.26-.3a4.31,4.31,0,0,1-2.34-1.17,3.24,3.24,0,0,1-.87-2.31,4.79,4.79,0,0,1,1.26-3.27,6.77,6.77,0,0,1,4.8-1.62,11.07,11.07,0,0,1,4.29.87l-1.62,3.06a6.64,6.64,0,0,0-2.52-.66,2,2,0,0,0-1.11.27.72.72,0,0,0-.42.66.78.78,0,0,0,.57.75c.45.18.84.18,1.59.39l.87.24a5.67,5.67,0,0,1,2,1,3.79,3.79,0,0,1,1,2.67,4.48,4.48,0,0,1-1.35,3.33,7,7,0,0,1-4.95,1.68,9.89,9.89,0,0,1-5.4-1.56Z"/><path d="M1517.36,232.74h-4.8V212.46h4.8v1.47a5,5,0,0,1,4.11-1.92,6.67,6.67,0,0,1,4.77,2,7.61,7.61,0,0,1-.12,10.5,6.44,6.44,0,0,1-4.59,1.86,5.71,5.71,0,0,1-4.17-1.74Zm.78-15.75a3.27,3.27,0,0,0-.93,2.22,3.24,3.24,0,0,0,.93,2.13,3.07,3.07,0,0,0,2.16.9,2.9,2.9,0,0,0,2.13-.9,3.17,3.17,0,0,0,.93-2.13,3.27,3.27,0,0,0-.93-2.22,2.9,2.9,0,0,0-2.13-.9A3.07,3.07,0,0,0,1518.14,217Z"/><path d="M1545.26,220.05h-10a3.39,3.39,0,0,0,.84,2.25,2.7,2.7,0,0,0,2,.66,3.79,3.79,0,0,0,1.56-.36,2.23,2.23,0,0,0,.84-.9h4.59a6,6,0,0,1-1.62,2.76c-1,1-2.55,1.86-5.46,1.86a7.61,7.61,0,0,1-5.55-2,7,7,0,0,1-2-5.07,7.16,7.16,0,0,1,2-5.19,7.55,7.55,0,0,1,5.49-2,7.35,7.35,0,0,1,5.16,1.83,7.51,7.51,0,0,1,2.13,5.64Zm-4.41-2.76a3.22,3.22,0,0,0-.78-1.44,2.8,2.8,0,0,0-2-.72,2.58,2.58,0,0,0-1.95.72,2.74,2.74,0,0,0-.72,1.44Z"/><path d="M1548,212.46h4.8v2.19a4.33,4.33,0,0,1,1.89-1.86,5.24,5.24,0,0,1,2.49-.54l1,.06v4.53a4.23,4.23,0,0,0-2.07-.48,3.14,3.14,0,0,0-2.19.72,4,4,0,0,0-1.08,3.06v5.73H1548Z"/><path d="M1560.29,212.46h4.8v1.62a5.15,5.15,0,0,1,4-1.86,5.46,5.46,0,0,1,2.58.6,4.19,4.19,0,0,1,1.86,1.92,4.71,4.71,0,0,1,1.83-1.86,5.44,5.44,0,0,1,2.79-.66,5.33,5.33,0,0,1,3.72,1.23,4.93,4.93,0,0,1,1.26,3.69v8.73h-4.8v-6.63c0-1.41-.15-2.37-.69-2.88a1.75,1.75,0,0,0-1.26-.45,1.94,1.94,0,0,0-1.41.54,3.43,3.43,0,0,0-.87,2.55v6.87h-4.8v-6.63a4.29,4.29,0,0,0-.63-2.88,1.86,1.86,0,0,0-1.44-.54,1.69,1.69,0,0,0-1.32.48,4,4,0,0,0-.84,2.94v6.63h-4.8Z"/><path d="M1588.88,204.18a2.7,2.7,0,1,1-2.7,2.7A2.69,2.69,0,0,1,1588.88,204.18Zm2.4,8.28v13.41h-4.8V212.46Z"/><path d="M1595.42,221.43a6.87,6.87,0,0,0,1.92,1,6.25,6.25,0,0,0,1.86.33,2,2,0,0,0,1.23-.36.77.77,0,0,0,.24-.63.71.71,0,0,0-.24-.6,3,3,0,0,0-1.26-.48l-1.26-.3a4.31,4.31,0,0,1-2.34-1.17,3.24,3.24,0,0,1-.87-2.31,4.79,4.79,0,0,1,1.26-3.27,6.77,6.77,0,0,1,4.8-1.62,11.07,11.07,0,0,1,4.29.87l-1.62,3.06a6.64,6.64,0,0,0-2.52-.66,2,2,0,0,0-1.11.27.72.72,0,0,0-.42.66.78.78,0,0,0,.57.75c.45.18.84.18,1.59.39l.87.24a5.67,5.67,0,0,1,2,1,3.79,3.79,0,0,1,1,2.67,4.48,4.48,0,0,1-1.35,3.33,7,7,0,0,1-5,1.68,9.89,9.89,0,0,1-5.4-1.56Z"/></svg>