<?xml version="1.0" encoding="UTF-8" standalone="no"?>
<!-- Created with Inkscape (http://www.inkscape.org/) -->

<svg
   xmlns:dc="http://purl.org/dc/elements/1.1/"
   xmlns:cc="http://creativecommons.org/ns#"
   xmlns:rdf="http://www.w3.org/1999/02/22-rdf-syntax-ns#"
   xmlns:svg="http://www.w3.org/2000/svg"
   xmlns="http://www.w3.org/2000/svg"
   xmlns:sodipodi="http://sodipodi.sourceforge.net/DTD/sodipodi-0.dtd"
   xmlns:inkscape="http://www.inkscape.org/namespaces/inkscape"
   width="297mm"
   height="210mm"
   viewBox="0 0 297 210"
   version="1.1"
   id="svg9006"
   inkscape:version="0.92.3 (2405546, 2018-03-11)"
   sodipodi:docname="reference-monitor.svg">
  <defs
     id="defs9000">
    <marker
       inkscape:isstock="true"
       style="overflow:visible;"
       id="marker11036"
       refX="0.0"
       refY="0.0"
       orient="auto"
       inkscape:stockid="Arrow1Send">
      <path
         transform="scale(0.2) rotate(180) translate(6,0)"
         style="fill-rule:evenodd;stroke:#0063d4;stroke-width:1pt;stroke-opacity:1;fill:#0063d4;fill-opacity:1"
         d="M 0.0,0.0 L 5.0,-5.0 L -12.5,0.0 L 5.0,5.0 L 0.0,0.0 z "
         id="path11034" />
    </marker>
    <marker
       inkscape:isstock="true"
       style="overflow:visible;"
       id="marker10984"
       refX="0.0"
       refY="0.0"
       orient="auto"
       inkscape:stockid="Arrow1Send">
      <path
         transform="scale(0.2) rotate(180) translate(6,0)"
         style="fill-rule:evenodd;stroke:#0063d4;stroke-width:1pt;stroke-opacity:1;fill:#0063d4;fill-opacity:1"
         d="M 0.0,0.0 L 5.0,-5.0 L -12.5,0.0 L 5.0,5.0 L 0.0,0.0 z "
         id="path10982" />
    </marker>
    <marker
       inkscape:stockid="Arrow1Send"
       orient="auto"
       refY="0.0"
       refX="0.0"
       id="marker10932"
       style="overflow:visible;"
       inkscape:isstock="true"
       inkscape:collect="always">
      <path
         id="path10930"
         d="M 0.0,0.0 L 5.0,-5.0 L -12.5,0.0 L 5.0,5.0 L 0.0,0.0 z "
         style="fill-rule:evenodd;stroke:#0063d4;stroke-width:1pt;stroke-opacity:1;fill:#0063d4;fill-opacity:1"
         transform="scale(0.2) rotate(180) translate(6,0)" />
    </marker>
    <marker
       inkscape:stockid="Arrow1Send"
       orient="auto"
       refY="0.0"
       refX="0.0"
       id="marker10880"
       style="overflow:visible;"
       inkscape:isstock="true">
      <path
         id="path10878"
         d="M 0.0,0.0 L 5.0,-5.0 L -12.5,0.0 L 5.0,5.0 L 0.0,0.0 z "
         style="fill-rule:evenodd;stroke:#0063d4;stroke-width:1pt;stroke-opacity:1;fill:#0063d4;fill-opacity:1"
         transform="scale(0.2) rotate(180) translate(6,0)" />
    </marker>
    <marker
       inkscape:stockid="Arrow1Send"
       orient="auto"
       refY="0.0"
       refX="0.0"
       id="Arrow1Send"
       style="overflow:visible;"
       inkscape:isstock="true">
      <path
         id="path9837"
         d="M 0.0,0.0 L 5.0,-5.0 L -12.5,0.0 L 5.0,5.0 L 0.0,0.0 z "
         style="fill-rule:evenodd;stroke:#f10000;stroke-width:1pt;stroke-opacity:1;fill:#f10000;fill-opacity:1"
         transform="scale(0.2) rotate(180) translate(6,0)" />
    </marker>
    <marker
       inkscape:stockid="Arrow1Mend"
       orient="auto"
       refY="0.0"
       refX="0.0"
       id="Arrow1Mend"
       style="overflow:visible;"
       inkscape:isstock="true">
      <path
         id="path9831"
         d="M 0.0,0.0 L 5.0,-5.0 L -12.5,0.0 L 5.0,5.0 L 0.0,0.0 z "
         style="fill-rule:evenodd;stroke:#f10000;stroke-width:1pt;stroke-opacity:1;fill:#f10000;fill-opacity:1"
         transform="scale(0.4) rotate(180) translate(10,0)" />
    </marker>
    <marker
       inkscape:stockid="Arrow2Lend"
       orient="auto"
       refY="0.0"
       refX="0.0"
       id="Arrow2Lend"
       style="overflow:visible;"
       inkscape:isstock="true">
      <path
         id="path9843"
         style="fill-rule:evenodd;stroke-width:0.625;stroke-linejoin:round;stroke:#f10000;stroke-opacity:1;fill:#f10000;fill-opacity:1"
         d="M 8.7185878,4.0337352 L -2.2072895,0.016013256 L 8.7185884,-4.0017078 C 6.9730900,-1.6296469 6.9831476,1.6157441 8.7185878,4.0337352 z "
         transform="scale(1.1) rotate(180) translate(1,0)" />
    </marker>
    <marker
       inkscape:stockid="Arrow1Lend"
       orient="auto"
       refY="0.0"
       refX="0.0"
       id="Arrow1Lend"
       style="overflow:visible;"
       inkscape:isstock="true">
      <path
         id="path9825"
         d="M 0.0,0.0 L 5.0,-5.0 L -12.5,0.0 L 5.0,5.0 L 0.0,0.0 z "
         style="fill-rule:evenodd;stroke:#0000f5;stroke-width:1pt;stroke-opacity:1;fill:#0000f5;fill-opacity:1"
         transform="scale(0.8) rotate(180) translate(12.5,0)" />
    </marker>
  </defs>
  <sodipodi:namedview
     id="base"
     pagecolor="#ffffff"
     bordercolor="#666666"
     borderopacity="1.0"
     inkscape:pageopacity="0.0"
     inkscape:pageshadow="2"
     inkscape:zoom="0.98994949"
     inkscape:cx="624.90377"
     inkscape:cy="395.30491"
     inkscape:document-units="mm"
     inkscape:current-layer="layer1"
     showgrid="false"
     inkscape:window-width="1853"
     inkscape:window-height="1019"
     inkscape:window-x="67"
     inkscape:window-y="33"
     inkscape:window-maximized="1"
     showguides="false" />
  <metadata
     id="metadata9003">
    <rdf:RDF>
      <cc:Work
         rdf:about="">
        <dc:format>image/svg+xml</dc:format>
        <dc:type
           rdf:resource="http://purl.org/dc/dcmitype/StillImage" />
        <dc:title></dc:title>
      </cc:Work>
    </rdf:RDF>
  </metadata>
  <g
     inkscape:label="Layer 1"
     inkscape:groupmode="layer"
     id="layer1"
     transform="translate(0,-87)">
    <path
       d="m 65.414041,135.91814 c -0.116417,0.0847 -0.235479,0.16669 -0.354542,0.24342 l -0.164042,0.10583 c -0.156104,0.0979 -0.314854,0.1905 -0.478895,0.26459 l -0.105834,0.0556 a 8.7047917,8.7047917 0 0 1 -1.156229,0.50535 h -0.05292 c -0.206375,0.0688 -0.415395,0.12965 -0.629708,0.18257 v 0 c -0.214312,0.0529 -0.431271,0.0979 -0.650875,0.13229 h -0.01852 c -0.203729,0.0318 -0.41275,0.0556 -0.619125,0.0741 h -0.111125 c -0.206375,0.0159 -0.41275,0.0265 -0.619125,0.0265 -0.206375,0 -0.420687,0 -0.627062,-0.0265 H 59.71756 c -0.209021,-0.0185 -0.418042,-0.0423 -0.624417,-0.0767 h -0.0291 a 8.5381042,8.5381042 0 0 1 -1.275292,-0.31221 l -0.03969,-0.0132 c -0.209021,-0.0714 -0.415396,-0.15082 -0.61648,-0.23813 v 0 c -0.1905,-0.082 -0.378354,-0.17462 -0.563562,-0.26458 l -0.07144,-0.037 c -0.169333,-0.0926 -0.33602,-0.18786 -0.497416,-0.29105 l -0.145521,-0.0926 c -0.148167,-0.0979 -0.296333,-0.20108 -0.441854,-0.30956 l -0.04498,-0.0344 0.03175,-0.0159 2.616729,-1.42875 a 1.4022917,1.4022917 0 0 0 0.724958,-1.24355 v -1.19327 l -0.07673,-0.09 a 5.55625,5.55625 0 0 1 -0.992188,-2.05846 l -0.03175,-0.12964 -0.111125,-0.0741 a 0.55033333,0.55033333 0 0 1 -0.264583,-0.46038 v -1.1721 a 0.52916667,0.52916667 0 0 1 0.182563,-0.40481 l 0.111125,-0.10055 v -1.85208 -0.045 a 2.00025,2.00025 0 0 1 0.468312,-1.41552 c 0.478896,-0.54504 1.299104,-0.82285 2.436813,-0.82285 1.137708,0 1.949979,0.26458 2.43152,0.81756 a 2.016125,2.016125 0 0 1 0.465667,1.44992 v 1.88647 l 0.108479,0.0979 a 0.52916667,0.52916667 0 0 1 0.185209,0.40482 v 1.1721 a 0.555625,0.555625 0 0 1 -0.391584,0.52917 l -0.164041,0.0503 -0.05292,0.16404 a 6.1515625,6.1515625 0 0 1 -0.828146,1.65893 3.937,3.937 0 0 1 -0.243417,0.31486 l -0.08202,0.0953 v 1.22237 a 1.3917083,1.3917083 0 0 0 0.772583,1.25148 l 2.801937,1.40229 a 0.32808333,0.32808333 0 0 1 0.05292,0.0265 z"
       style="fill:none;stroke:#636868;stroke-width:1.38535833px;stroke-miterlimit:10"
       id="path1773"
       inkscape:connector-curvature="0" />
    <circle
       cx="60.44252"
       cy="128.06798"
       r="9.4059372"
       style="fill:none;stroke:#636868;stroke-width:1.38535833px;stroke-miterlimit:10"
       id="circle1775" />
    <line
       x1="192.65971"
       y1="135.93756"
       x2="203.26422"
       y2="135.93756"
       style="fill:none;stroke:#91c54f;stroke-width:1.02195251px;stroke-miterlimit:10"
       id="line1721" />
    <line
       x1="192.65971"
       y1="133.19382"
       x2="203.26422"
       y2="133.19382"
       style="fill:none;stroke:#91c54f;stroke-width:1.02195251px;stroke-miterlimit:10"
       id="line1723" />
    <line
       x1="192.65971"
       y1="130.4501"
       x2="203.26422"
       y2="130.4501"
       style="fill:none;stroke:#91c54f;stroke-width:1.02195251px;stroke-miterlimit:10"
       id="line1725" />
    <line
       x1="192.65971"
       y1="127.70638"
       x2="203.26422"
       y2="127.70638"
       style="fill:none;stroke:#91c54f;stroke-width:1.02195251px;stroke-miterlimit:10"
       id="line1727" />
    <line
       x1="192.65971"
       y1="124.96265"
       x2="197.03593"
       y2="124.96265"
       style="fill:none;stroke:#91c54f;stroke-width:1.02195251px;stroke-miterlimit:10"
       id="line1729" />
    <path
       d="m 202.71389,123.97575 a 1.4843125,1.4843125 0 0 1 -1.47902,-1.47902 v -2.77548 h -9.19163 a 1.4843125,1.4843125 0 0 0 -1.48167,1.47902 v 15.53898 a 1.4843125,1.4843125 0 0 0 1.48167,1.47902 h 11.83746 a 1.4843125,1.4843125 0 0 0 1.47902,-1.47902 v -12.7635 z"
       style="fill:none;stroke:#91c54f;stroke-width:1.02195251px;stroke-miterlimit:10"
       id="path1731"
       inkscape:connector-curvature="0" />
    <rect
       x="115.67294"
       y="176.90538"
       width="27.572229"
       height="19.449522"
       rx="3.175"
       ry="3.175"
       style="fill:none;stroke:#3a5c84;stroke-width:1.32291663px;stroke-miterlimit:10"
       id="rect1757-1" />
    <path
       d="m 124.18457,184.66561 a 1.0424583,1.0424583 0 0 1 -0.27782,0.76464 0.06614583,0.06614583 0 0 0 -0.0132,0.0714 l 0.34132,0.71438 a 0.05820833,0.05820833 0 0 0 0.0635,0.037 1.0371667,1.0371667 0 0 1 1.11125,1.00012 0.06614583,0.06614583 0 0 0 0.0423,0.0582 l 0.74612,0.26459 h 0.0265 a 0.05291667,0.05291667 0 0 0 0.0608,-0.0212 1.000125,1.000125 0 0 1 0.15346,-0.14552 v 0 l 0.0767,-0.0529 a 0.44185417,0.44185417 0 0 1 0.0608,-0.0317 0.0635,0.0635 0 0 1 0.0291,-0.0159 0.9921875,0.9921875 0 0 1 0.39688,-0.10319 1.031875,1.031875 0 0 1 0.76464,0.26458 0.05291667,0.05291667 0 0 0 0.0714,0 l 0.71438,-0.34131 v 0 a 0.05820833,0.05820833 0 0 0 0.037,-0.0609 1.0292292,1.0292292 0 0 1 0.66146,-1.03981 h 0.0212 0.0397 l 0.0661,-0.0212 v 0 a 0.968375,0.968375 0 0 1 0.19843,-0.0265 0.06879167,0.06879167 0 0 0 0.0582,-0.045 l 0.26459,-0.74613 a 0.06879167,0.06879167 0 0 0 -0.0185,-0.0688 1.031875,1.031875 0 0 1 -0.0794,-1.49225 0.06085417,0.06085417 0 0 0 0,-0.0714 l -0.23283,-0.49211 v 0 l -0.10584,-0.22225 a 0.04233333,0.04233333 0 0 0 -0.0185,-0.0185 v 0 0 a 0.03439583,0.03439583 0 0 0 -0.0265,0 v 0 a 1.0371667,1.0371667 0 0 1 -1.11125,-1.00013 0.05820833,0.05820833 0 0 0 -0.0423,-0.0582 l -0.74612,-0.26458 a 0.05291667,0.05291667 0 0 0 -0.0688,0.0185 v 0 a 1.0583333,1.0583333 0 0 1 -0.23548,0.20108 h -0.0185 l -0.0688,0.037 a 1.031875,1.031875 0 0 1 -1.16681,-0.17462 0.06879167,0.06879167 0 0 0 -0.0714,0 l -0.71438,0.34131 a 0.06085417,0.06085417 0 0 0 -0.0344,0.0635 1.0398125,1.0398125 0 0 1 -1.00277,1.11125 0.0555625,0.0555625 0 0 0 -0.0582,0.0423 l -0.18256,0.51594 v 0 l -0.082,0.23283 a 0.0714375,0.0714375 0 0 0 0.0185,0.0714 1.031875,1.031875 0 0 1 0.3519,0.70379 z m 1.62189,-1.26206 v 0 l 0.0714,-0.0582 0.0503,-0.0423 0.0318,-0.0344 a 1.5372292,1.5372292 0 1 1 1.54252,2.64583 l -0.127,0.0529 v 0 a 1.539875,1.539875 0 0 1 -1.56898,-2.57175 z"
       style="fill:#3a5c84;stroke-width:0.26458332"
       id="path1759-0"
       inkscape:connector-curvature="0" />
    <path
       d="m 127.75644,190.2589 a 1.3229167,1.3229167 0 0 1 -0.35719,0.9816 0.08466667,0.08466667 0 0 0 -0.0159,0.0926 l 0.43921,0.91546 c 0.0265,0.0529 0.0556,0.0503 0.0794,0.0476 a 1.3229167,1.3229167 0 0 1 1.42875,1.28588 0.08466667,0.08466667 0 0 0 0.0529,0.0741 l 0.96044,0.33867 h 0.0159 a 0.0635,0.0635 0 0 0 0.0767,-0.0291 1.2117917,1.2117917 0 0 1 0.20108,-0.18521 c 0,0 0,0 0,0 l 0.0952,-0.0661 a 0.5794375,0.5794375 0 0 1 0.0794,-0.0423 l 0.037,-0.0212 a 1.3229167,1.3229167 0 0 1 1.49225,0.22754 0.0714375,0.0714375 0 0 0 0.09,0 l 0.91811,-0.43921 v 0 a 0.079375,0.079375 0 0 0 0.0476,-0.0794 1.3229167,1.3229167 0 0 1 0.33866,-0.9869 1.3229167,1.3229167 0 0 1 0.508,-0.34925 l 0.0317,-0.0132 0.0503,-0.0159 0.082,-0.0238 h 0.0185 a 1.3917083,1.3917083 0 0 1 0.26459,-0.0344 0.079375,0.079375 0 0 0 0.0741,-0.0556 l 0.34131,-0.9578 a 0.08466667,0.08466667 0 0 0 -0.0265,-0.09 1.3229167,1.3229167 0 0 1 -0.0979,-1.91823 0.08466667,0.08466667 0 0 0 0.0132,-0.09 l -0.30427,-0.62971 v 0 l -0.13758,-0.28575 a 0.08995833,0.08995833 0 0 0 -0.0212,-0.0238 v 0 0 h -0.0317 v 0 a 1.3229167,1.3229167 0 0 1 -1.42875,-1.28588 0.079375,0.079375 0 0 0 -0.0556,-0.0741 l -0.97102,-0.36512 a 0.07408333,0.07408333 0 0 0 -0.09,0.0212 v 0 a 1.3784792,1.3784792 0 0 1 -0.30692,0.26458 h -0.0212 l -0.09,0.0503 a 1.2991042,1.2991042 0 0 1 -0.51594,0.13494 1.3387917,1.3387917 0 0 1 -0.9816,-0.35984 0.08466667,0.08466667 0 0 0 -0.09,0 l -0.9234,0.43657 a 0.08466667,0.08466667 0 0 0 -0.0476,0.0794 1.3229167,1.3229167 0 0 1 -1.28587,1.4261 0.07408333,0.07408333 0 0 0 -0.0741,0.0556 l -0.23548,0.66411 v 0 l -0.10583,0.29897 a 0.0873125,0.0873125 0 0 0 0.0238,0.09 1.3387917,1.3387917 0 0 1 0.45508,0.93662 z m 2.08492,-1.6219 c 0,0 0,0 0.0132,0 l 0.09,-0.0767 c 0.0238,-0.0185 0.0423,-0.037 0.0661,-0.0529 l 0.0291,-0.0212 a 1.9764375,1.9764375 0 1 1 1.98173,3.3999 1.7197917,1.7197917 0 0 1 -0.1614,0.0661 v 0 a 1.9764375,1.9764375 0 0 1 -2.01348,-3.30464 z"
       style="fill:#3a5c84;stroke-width:0.26458332"
       id="path1761-0"
       inkscape:connector-curvature="0" />
    <path
       d="m 129.19048,181.44298 a 0.7064375,0.7064375 0 0 1 -0.1905,0.52917 0.04497917,0.04497917 0 0 0 0,0.0476 l 0.23284,0.48683 a 0.04233333,0.04233333 0 0 0 0.0423,0.0265 0.70114583,0.70114583 0 0 1 0.52916,0.17727 0.7223125,0.7223125 0 0 1 0.23548,0.50271 0.04497917,0.04497917 0 0 0 0.0291,0.0423 l 0.508,0.17727 v 0 a 0.03704167,0.03704167 0 0 0 0.0423,-0.0159 0.619125,0.619125 0 0 1 0.10584,-0.0979 v 0 l 0.0503,-0.0344 0.0423,-0.0238 h 0.0212 a 0.67733333,0.67733333 0 0 1 0.26458,-0.0688 0.69585417,0.69585417 0 0 1 0.52917,0.1905 0.03704167,0.03704167 0 0 0 0.0476,0 l 0.48683,-0.23283 v 0 a 0.04233333,0.04233333 0 0 0 0.0265,-0.0423 0.69320833,0.69320833 0 0 1 0.17992,-0.52917 0.67733333,0.67733333 0 0 1 0.26458,-0.1852 h 0.0159 0.0265 l 0.045,-0.0132 v 0 a 0.5953125,0.5953125 0 0 1 0.13758,-0.0185 0.04497917,0.04497917 0 0 0 0.0397,-0.0291 l 0.17992,-0.51065 a 0.04233333,0.04233333 0 0 0 0,-0.045 0.714375,0.714375 0 0 1 -0.24342,-0.49742 0.6985,0.6985 0 0 1 0.1905,-0.52916 0.05027083,0.05027083 0 0 0 0,-0.0503 l -0.1614,-0.33338 v 0 l -0.0714,-0.15081 a 0.02116667,0.02116667 0 0 0 -0.0132,0 v 0 0 a 0.01852083,0.01852083 0 0 0 -0.0159,0 v 0 a 0.70114583,0.70114583 0 0 1 -0.52917,-0.17992 0.71172917,0.71172917 0 0 1 -0.23547,-0.50271 0.04233333,0.04233333 0 0 0 -0.0291,-0.0397 l -0.508,-0.17992 a 0.03439583,0.03439583 0 0 0 -0.0476,0 v 0 a 0.74083333,0.74083333 0 0 1 -0.1614,0.14023 h -0.0132 l -0.0476,0.0265 a 0.69320833,0.69320833 0 0 1 -0.26458,0.0714 0.7064375,0.7064375 0 0 1 -0.52917,-0.1905 0.0396875,0.0396875 0 0 0 -0.0476,0 l -0.48683,0.23284 a 0.04497917,0.04497917 0 0 0 -0.0265,0.0423 0.7064375,0.7064375 0 0 1 -0.68263,0.7567 0.04233333,0.04233333 0 0 0 -0.0397,0.0318 l -0.12435,0.3519 v 0 l -0.0556,0.1614 a 0.047625,0.047625 0 0 0 0.0132,0.0476 0.70908333,0.70908333 0 0 1 0.23812,0.45773 z m 1.10596,-0.86254 v 0 l 0.0476,-0.0423 a 0.1825625,0.1825625 0 0 0 0.0344,-0.0291 h 0.0159 a 1.0583333,1.0583333 0 0 1 1.5875,1.20385 1.0424583,1.0424583 0 0 1 -0.54769,0.60061 l -0.0873,0.037 v 0 a 1.0583333,1.0583333 0 0 1 -1.05833,-1.75419 z"
       style="fill:#3a5c84;stroke-width:0.26458332"
       id="path1763-0"
       inkscape:connector-curvature="0" />
    <g
       aria-label="Monitor"
       style="font-style:normal;font-variant:normal;font-weight:normal;font-stretch:normal;font-size:10.58333302px;line-height:1.25;font-family:Aharoni;-inkscape-font-specification:Aharoni;letter-spacing:0px;word-spacing:0px;fill:#000000;fill-opacity:1;stroke:none;stroke-width:0.26458332"
       id="text8716-3">
      <path
         d="m 116.54662,201.66334 h 1.51928 l 1.0542,2.47736 1.0604,-2.47736 h 1.51619 v 4.62917 h -1.12861 v -3.38584 l -1.0666,2.49597 h -0.75655 l -1.0666,-2.49597 v 3.38584 h -1.13171 z"
         style="font-style:normal;font-variant:normal;font-weight:bold;font-stretch:normal;font-size:6.3499999px;font-family:sans-serif;-inkscape-font-specification:'sans-serif Bold';stroke-width:0.26458332"
         id="path16538" />
      <path
         d="m 124.47482,203.52989 q -0.36897,0 -0.56431,0.26665 -0.19224,0.26355 -0.19224,0.76274 0,0.4992 0.19224,0.76585 0.19534,0.26355 0.56431,0.26355 0.36276,0 0.555,-0.26355 0.19224,-0.26665 0.19224,-0.76585 0,-0.49919 -0.19224,-0.76274 -0.19224,-0.26665 -0.555,-0.26665 z m 0,-0.79375 q 0.89606,0 1.39836,0.48369 0.5054,0.48369 0.5054,1.33945 0,0.85577 -0.5054,1.33946 -0.5023,0.48369 -1.39836,0.48369 -0.89917,0 -1.40767,-0.48369 -0.5054,-0.48369 -0.5054,-1.33946 0,-0.85576 0.5054,-1.33945 0.5085,-0.48369 1.40767,-0.48369 z"
         style="font-style:normal;font-variant:normal;font-weight:bold;font-stretch:normal;font-size:6.3499999px;font-family:sans-serif;-inkscape-font-specification:'sans-serif Bold';stroke-width:0.26458332"
         id="path16540" />
      <path
         d="m 130.67909,204.17791 v 2.1146 h -1.11621 v -0.34416 -1.27434 q 0,-0.44959 -0.0217,-0.62012 -0.0186,-0.17053 -0.0682,-0.25115 -0.0651,-0.10852 -0.17673,-0.16743 -0.11162,-0.062 -0.25425,-0.062 -0.34727,0 -0.5457,0.26975 -0.19844,0.26665 -0.19844,0.74104 v 1.70842 h -1.11001 v -3.47266 h 1.11001 v 0.5085 q 0.25115,-0.30386 0.5333,-0.44648 0.28215,-0.14573 0.62322,-0.14573 0.60151,0 0.91157,0.36897 0.31316,0.36897 0.31316,1.0728 z"
         style="font-style:normal;font-variant:normal;font-weight:bold;font-stretch:normal;font-size:6.3499999px;font-family:sans-serif;-inkscape-font-specification:'sans-serif Bold';stroke-width:0.26458332"
         id="path16542" />
      <path
         d="m 131.71468,202.81985 h 1.11001 v 3.47266 h -1.11001 z m 0,-1.35185 h 1.11001 v 0.90537 h -1.11001 z"
         style="font-style:normal;font-variant:normal;font-weight:bold;font-stretch:normal;font-size:6.3499999px;font-family:sans-serif;-inkscape-font-specification:'sans-serif Bold';stroke-width:0.26458332"
         id="path16544" />
      <path
         d="m 135.10982,201.83387 v 0.98598 h 1.14412 v 0.79375 h -1.14412 v 1.47278 q 0,0.24185 0.0961,0.32867 0.0961,0.0837 0.38137,0.0837 h 0.57051 v 0.79375 h -0.95188 q -0.65732,0 -0.93327,-0.27285 -0.27286,-0.27595 -0.27286,-0.93328 v -1.47278 h -0.5519 v -0.79375 h 0.5519 v -0.98598 z"
         style="font-style:normal;font-variant:normal;font-weight:bold;font-stretch:normal;font-size:6.3499999px;font-family:sans-serif;-inkscape-font-specification:'sans-serif Bold';stroke-width:0.26458332"
         id="path16546" />
      <path
         d="m 138.58868,203.52989 q -0.36897,0 -0.5643,0.26665 -0.19224,0.26355 -0.19224,0.76274 0,0.4992 0.19224,0.76585 0.19533,0.26355 0.5643,0.26355 0.36277,0 0.55501,-0.26355 0.19223,-0.26665 0.19223,-0.76585 0,-0.49919 -0.19223,-0.76274 -0.19224,-0.26665 -0.55501,-0.26665 z m 0,-0.79375 q 0.89607,0 1.39837,0.48369 0.50539,0.48369 0.50539,1.33945 0,0.85577 -0.50539,1.33946 -0.5023,0.48369 -1.39837,0.48369 -0.89917,0 -1.40766,-0.48369 -0.5054,-0.48369 -0.5054,-1.33946 0,-0.85576 0.5054,-1.33945 0.50849,-0.48369 1.40766,-0.48369 z"
         style="font-style:normal;font-variant:normal;font-weight:bold;font-stretch:normal;font-size:6.3499999px;font-family:sans-serif;-inkscape-font-specification:'sans-serif Bold';stroke-width:0.26458332"
         id="path16548" />
      <path
         d="m 143.88138,203.76553 q -0.14572,-0.0682 -0.29145,-0.0992 -0.14263,-0.0341 -0.28836,-0.0341 -0.42788,0 -0.66042,0.27595 -0.22945,0.27285 -0.22945,0.78445 v 1.5999 h -1.11 v -3.47266 h 1.11 v 0.57051 q 0.21395,-0.34106 0.4899,-0.49609 0.27905,-0.15813 0.66662,-0.15813 0.0558,0 0.12093,0.006 0.0651,0.003 0.18913,0.0186 z"
         style="font-style:normal;font-variant:normal;font-weight:bold;font-stretch:normal;font-size:6.3499999px;font-family:sans-serif;-inkscape-font-specification:'sans-serif Bold';stroke-width:0.26458332"
         id="path16550" />
    </g>
    <g
       aria-label="de referințe"
       style="font-style:normal;font-weight:normal;font-size:10.58333302px;line-height:1.25;font-family:sans-serif;letter-spacing:0px;word-spacing:0px;fill:#000000;fill-opacity:1;stroke:none;stroke-width:0.26458332"
       id="text8724-5">
      <path
         d="m 111.99854,211.739 v -1.86036 h 1.11621 v 4.82452 h -1.11621 v -0.5023 q -0.22944,0.30696 -0.5054,0.44959 -0.27595,0.14262 -0.63872,0.14262 -0.64182,0 -1.0542,-0.50849 -0.41237,-0.5116 -0.41237,-1.31465 0,-0.80305 0.41237,-1.31155 0.41238,-0.5116 1.0542,-0.5116 0.35967,0 0.63562,0.14573 0.27906,0.14263 0.5085,0.44649 z m -0.73174,2.24792 q 0.35657,0 0.5426,-0.26045 0.18914,-0.26045 0.18914,-0.75654 0,-0.4961 -0.18914,-0.75654 -0.18603,-0.26045 -0.5426,-0.26045 -0.35347,0 -0.5426,0.26045 -0.18604,0.26044 -0.18604,0.75654 0,0.49609 0.18604,0.75654 0.18913,0.26045 0.5426,0.26045 z"
         style="font-style:normal;font-variant:normal;font-weight:bold;font-stretch:normal;font-size:6.3499999px;font-family:sans-serif;-inkscape-font-specification:'sans-serif Bold';stroke-width:0.26458332"
         id="path16553" />
      <path
         d="m 117.65401,212.95753 v 0.31626 h -2.59519 q 0.0403,0.39067 0.28215,0.58601 0.24185,0.19533 0.67593,0.19533 0.35037,0 0.71623,-0.10232 0.36897,-0.10542 0.75655,-0.31626 v 0.85577 q -0.39378,0.14882 -0.78755,0.22324 -0.39378,0.0775 -0.78755,0.0775 -0.94258,0 -1.46658,-0.47749 -0.5209,-0.48059 -0.5209,-1.34565 0,-0.84956 0.5116,-1.33635 0.5147,-0.4868 1.41387,-0.4868 0.81855,0 1.30845,0.493 0.49299,0.49299 0.49299,1.31775 z m -1.14102,-0.36897 q 0,-0.31626 -0.18603,-0.5085 -0.18294,-0.19534 -0.48059,-0.19534 -0.32246,0 -0.524,0.18294 -0.20154,0.17983 -0.25115,0.5209 z"
         style="font-style:normal;font-variant:normal;font-weight:bold;font-stretch:normal;font-size:6.3499999px;font-family:sans-serif;-inkscape-font-specification:'sans-serif Bold';stroke-width:0.26458332"
         id="path16555" />
      <path
         d="m 123.27847,212.17618 q -0.14573,-0.0682 -0.29145,-0.0992 -0.14263,-0.0341 -0.28836,-0.0341 -0.42788,0 -0.66042,0.27595 -0.22945,0.27286 -0.22945,0.78445 v 1.59991 h -1.11001 v -3.47266 h 1.11001 v 0.57051 q 0.21394,-0.34107 0.4899,-0.4961 0.27905,-0.15813 0.66662,-0.15813 0.0558,0 0.12092,0.006 0.0651,0.003 0.18914,0.0186 z"
         style="font-style:normal;font-variant:normal;font-weight:bold;font-stretch:normal;font-size:6.3499999px;font-family:sans-serif;-inkscape-font-specification:'sans-serif Bold';stroke-width:0.26458332"
         id="path16557" />
      <path
         d="m 127.30303,212.95753 v 0.31626 h -2.59519 q 0.0403,0.39067 0.28215,0.58601 0.24185,0.19533 0.67593,0.19533 0.35037,0 0.71624,-0.10232 0.36897,-0.10542 0.75654,-0.31626 v 0.85577 q -0.39377,0.14882 -0.78755,0.22324 -0.39377,0.0775 -0.78755,0.0775 -0.94257,0 -1.46657,-0.47749 -0.5209,-0.48059 -0.5209,-1.34565 0,-0.84956 0.51159,-1.33635 0.5147,-0.4868 1.41387,-0.4868 0.81856,0 1.30845,0.493 0.49299,0.49299 0.49299,1.31775 z m -1.14101,-0.36897 q 0,-0.31626 -0.18604,-0.5085 -0.18293,-0.19534 -0.48059,-0.19534 -0.32246,0 -0.524,0.18294 -0.20154,0.17983 -0.25115,0.5209 z"
         style="font-style:normal;font-variant:normal;font-weight:bold;font-stretch:normal;font-size:6.3499999px;font-family:sans-serif;-inkscape-font-specification:'sans-serif Bold';stroke-width:0.26458332"
         id="path16559" />
      <path
         d="m 130.42532,209.87864 v 0.72864 h -0.61392 q -0.23564,0 -0.32866,0.0868 -0.093,0.0837 -0.093,0.29455 v 0.24185 h 0.94878 v 0.79375 h -0.94878 v 2.67891 h -1.11001 v -2.67891 h -0.5519 v -0.79375 h 0.5519 v -0.24185 q 0,-0.5674 0.31626,-0.83715 0.31626,-0.27286 0.97979,-0.27286 z"
         style="font-style:normal;font-variant:normal;font-weight:bold;font-stretch:normal;font-size:6.3499999px;font-family:sans-serif;-inkscape-font-specification:'sans-serif Bold';stroke-width:0.26458332"
         id="path16561" />
      <path
         d="m 134.37237,212.95753 v 0.31626 h -2.59519 q 0.0403,0.39067 0.28215,0.58601 0.24185,0.19533 0.67593,0.19533 0.35036,0 0.71623,-0.10232 0.36897,-0.10542 0.75655,-0.31626 v 0.85577 q -0.39378,0.14882 -0.78755,0.22324 -0.39378,0.0775 -0.78755,0.0775 -0.94258,0 -1.46658,-0.47749 -0.5209,-0.48059 -0.5209,-1.34565 0,-0.84956 0.5116,-1.33635 0.5147,-0.4868 1.41387,-0.4868 0.81855,0 1.30844,0.493 0.493,0.49299 0.493,1.31775 z m -1.14102,-0.36897 q 0,-0.31626 -0.18603,-0.5085 -0.18294,-0.19534 -0.48059,-0.19534 -0.32246,0 -0.524,0.18294 -0.20154,0.17983 -0.25115,0.5209 z"
         style="font-style:normal;font-variant:normal;font-weight:bold;font-stretch:normal;font-size:6.3499999px;font-family:sans-serif;-inkscape-font-specification:'sans-serif Bold';stroke-width:0.26458332"
         id="path16563" />
      <path
         d="m 137.78921,212.17618 q -0.14573,-0.0682 -0.29145,-0.0992 -0.14263,-0.0341 -0.28836,-0.0341 -0.42788,0 -0.66042,0.27595 -0.22945,0.27286 -0.22945,0.78445 v 1.59991 h -1.11001 v -3.47266 h 1.11001 v 0.57051 q 0.21394,-0.34107 0.4899,-0.4961 0.27905,-0.15813 0.66662,-0.15813 0.0558,0 0.12093,0.006 0.0651,0.003 0.18913,0.0186 z"
         style="font-style:normal;font-variant:normal;font-weight:bold;font-stretch:normal;font-size:6.3499999px;font-family:sans-serif;-inkscape-font-specification:'sans-serif Bold';stroke-width:0.26458332"
         id="path16565" />
      <path
         d="m 138.34732,211.2305 h 1.11001 v 3.47266 h -1.11001 z m 0,-1.35186 h 1.11001 v 0.90537 h -1.11001 z"
         style="font-style:normal;font-variant:normal;font-weight:bold;font-stretch:normal;font-size:6.3499999px;font-family:sans-serif;-inkscape-font-specification:'sans-serif Bold';stroke-width:0.26458332"
         id="path16567" />
      <path
         d="m 144.02139,212.58856 v 2.1146 h -1.11621 v -0.34417 -1.27434 q 0,-0.44959 -0.0217,-0.62012 -0.0186,-0.17053 -0.0682,-0.25114 -0.0651,-0.10853 -0.17673,-0.16744 -0.11162,-0.062 -0.25425,-0.062 -0.34726,0 -0.5457,0.26975 -0.19844,0.26665 -0.19844,0.74104 v 1.70843 h -1.11001 v -3.47266 h 1.11001 v 0.5085 q 0.25115,-0.30386 0.5333,-0.44649 0.28215,-0.14573 0.62322,-0.14573 0.60151,0 0.91157,0.36897 0.31316,0.36897 0.31316,1.07281 z"
         style="font-style:normal;font-variant:normal;font-weight:bold;font-stretch:normal;font-size:6.3499999px;font-family:sans-serif;-inkscape-font-specification:'sans-serif Bold';stroke-width:0.26458332"
         id="path16569" />
      <path
         d="m 145.6585,215.29537 h 1.00459 l -0.68833,0.92397 h -0.59531 z m 0.61082,-5.05086 v 0.98599 h 1.14411 v 0.79375 h -1.14411 v 1.47278 q 0,0.24184 0.0961,0.32866 0.0961,0.0837 0.38138,0.0837 h 0.5705 v 0.79375 h -0.95188 q -0.65732,0 -0.93327,-0.27286 -0.27285,-0.27595 -0.27285,-0.93327 v -1.47278 h -0.55191 v -0.79375 h 0.55191 v -0.98599 z"
         style="font-style:normal;font-variant:normal;font-weight:bold;font-stretch:normal;font-size:6.3499999px;font-family:sans-serif;-inkscape-font-specification:'sans-serif Bold';stroke-width:0.26458332"
         id="path16571" />
      <path
         d="m 151.56202,212.95753 v 0.31626 h -2.59519 q 0.0403,0.39067 0.28215,0.58601 0.24184,0.19533 0.67593,0.19533 0.35036,0 0.71623,-0.10232 0.36897,-0.10542 0.75654,-0.31626 v 0.85577 q -0.39377,0.14882 -0.78754,0.22324 -0.39378,0.0775 -0.78755,0.0775 -0.94258,0 -1.46658,-0.47749 -0.5209,-0.48059 -0.5209,-1.34565 0,-0.84956 0.5116,-1.33635 0.5147,-0.4868 1.41387,-0.4868 0.81855,0 1.30844,0.493 0.493,0.49299 0.493,1.31775 z m -1.14102,-0.36897 q 0,-0.31626 -0.18604,-0.5085 -0.18293,-0.19534 -0.48059,-0.19534 -0.32246,0 -0.524,0.18294 -0.20153,0.17983 -0.25114,0.5209 z"
         style="font-style:normal;font-variant:normal;font-weight:bold;font-stretch:normal;font-size:6.3499999px;font-family:sans-serif;-inkscape-font-specification:'sans-serif Bold';stroke-width:0.26458332"
         id="path16573" />
    </g>
    <rect
       x="111.06199"
       y="242.72841"
       width="31.061001"
       height="5.7485757"
       rx="1.2140911"
       ry="1.1032436"
       transform="matrix(0.99998278,-0.00586806,0.00710653,0.99997475,0,0)"
       style="fill:none;stroke:#91c54f;stroke-width:0.95965254px;stroke-miterlimit:10"
       id="rect2682" />
    <ellipse
       cx="116.25275"
       cy="244.12411"
       style="fill:#91c54f;stroke-width:0.19193043"
       id="circle2684"
       rx="0.57583964"
       ry="0.52326077" />
    <ellipse
       cx="117.90373"
       cy="244.11496"
       style="fill:#91c54f;stroke-width:0.19193043"
       id="circle2686"
       rx="0.57583964"
       ry="0.52326077" />
    <ellipse
       cx="116.2648"
       cy="245.69205"
       style="fill:#91c54f;stroke-width:0.19193043"
       id="circle2688"
       rx="0.57583964"
       ry="0.52326077" />
    <ellipse
       cx="117.91382"
       cy="245.68289"
       style="fill:#91c54f;stroke-width:0.19193043"
       id="circle2690"
       rx="0.57583964"
       ry="0.52326077" />
    <rect
       x="131.1938"
       y="245.08311"
       width="8.9154148"
       height="0.78489465"
       rx="0.16510028"
       ry="0.15002649"
       transform="matrix(0.99998278,-0.00586806,0.00710653,0.99997475,0,0)"
       style="fill:#91c54f;stroke-width:0.1919305"
       id="rect2692" />
    <rect
       x="111.062"
       y="236.28487"
       width="31.061001"
       height="5.7485757"
       rx="1.2140911"
       ry="1.1032436"
       transform="matrix(0.99998278,-0.00586806,0.00710653,0.99997475,0,0)"
       style="fill:none;stroke:#91c54f;stroke-width:0.95965254px;stroke-miterlimit:10"
       id="rect2694" />
    <ellipse
       cx="116.20641"
       cy="237.68031"
       style="fill:#91c54f;stroke-width:0.19193043"
       id="circle2696"
       rx="0.57583964"
       ry="0.52326077" />
    <ellipse
       cx="117.85744"
       cy="237.66933"
       style="fill:#91c54f;stroke-width:0.19193043"
       id="circle2698"
       rx="0.57583964"
       ry="0.52326077" />
    <ellipse
       cx="116.21849"
       cy="239.24826"
       style="fill:#91c54f;stroke-width:0.19193043"
       id="circle2700"
       rx="0.57583964"
       ry="0.52326077" />
    <ellipse
       cx="117.86749"
       cy="239.23729"
       style="fill:#91c54f;stroke-width:0.19193043"
       id="circle2702"
       rx="0.57583964"
       ry="0.52326077" />
    <rect
       x="131.19377"
       y="238.63773"
       width="8.9154148"
       height="0.78489465"
       rx="0.16510028"
       ry="0.15002649"
       transform="matrix(0.99998278,-0.00586806,0.00710653,0.99997475,0,0)"
       style="fill:#91c54f;stroke-width:0.1919305"
       id="rect2704" />
    <rect
       x="111.062"
       y="229.68947"
       width="31.061001"
       height="5.7485757"
       rx="1.2140911"
       ry="1.1032436"
       transform="matrix(0.99998278,-0.00586806,0.00710653,0.99997475,0,0)"
       style="fill:none;stroke:#91c54f;stroke-width:0.95965254px;stroke-miterlimit:10"
       id="rect2706" />
    <ellipse
       cx="116.16011"
       cy="231.08466"
       style="fill:#91c54f;stroke-width:0.19193043"
       id="circle2708"
       rx="0.57583964"
       ry="0.52326077" />
    <ellipse
       cx="117.80911"
       cy="231.07552"
       style="fill:#91c54f;stroke-width:0.19193043"
       id="circle2710"
       rx="0.57583964"
       ry="0.52326077" />
    <ellipse
       cx="116.17018"
       cy="232.65262"
       style="fill:#91c54f;stroke-width:0.19193043"
       id="circle2712"
       rx="0.57583964"
       ry="0.52326077" />
    <ellipse
       cx="117.82118"
       cy="232.64346"
       style="fill:#91c54f;stroke-width:0.19193043"
       id="circle2714"
       rx="0.57583964"
       ry="0.52326077" />
    <rect
       x="131.19379"
       y="232.04051"
       width="8.9154148"
       height="0.78489465"
       rx="0.16510028"
       ry="0.15002649"
       transform="matrix(0.99998278,-0.00586806,0.00710653,0.99997475,0,0)"
       style="fill:#91c54f;stroke-width:0.1919305"
       id="rect2716" />
    <g
       aria-label="Bază de date"
       style="font-style:normal;font-variant:normal;font-weight:normal;font-stretch:normal;font-size:10.58333302px;line-height:1.25;font-family:Aharoni;-inkscape-font-specification:Aharoni;letter-spacing:0px;word-spacing:0px;fill:#000000;fill-opacity:1;stroke:none;stroke-width:0.26458332"
       id="text8716-3-5">
      <path
         d="m 107.98514,255.16382 q 0.28215,0 0.42788,-0.12403 0.14573,-0.12402 0.14573,-0.36586 0,-0.23875 -0.14573,-0.36277 -0.14573,-0.12713 -0.42788,-0.12713 h -0.66042 v 0.97979 z m 0.0403,2.02468 q 0.35967,0 0.5395,-0.15193 0.18294,-0.15193 0.18294,-0.45888 0,-0.30076 -0.17984,-0.44959 -0.17983,-0.15193 -0.5426,-0.15193 h -0.70073 v 1.21233 z m 1.11001,-1.66501 q 0.38447,0.11162 0.59531,0.41237 0.21084,0.30076 0.21084,0.73794 0,0.66973 -0.45268,0.99839 -0.45269,0.32866 -1.37667,0.32866 h -1.98127 v -4.62917 h 1.79214 q 0.96428,0 1.39526,0.29145 0.43408,0.29146 0.43408,0.93328 0,0.33797 -0.15812,0.57671 -0.15813,0.23564 -0.45889,0.35037 z"
         style="font-style:normal;font-variant:normal;font-weight:bold;font-stretch:normal;font-size:6.3499999px;font-family:sans-serif;-inkscape-font-specification:'sans-serif Bold';stroke-width:0.26458332"
         id="path16576" />
      <path
         d="m 112.47479,256.43816 q -0.34727,0 -0.524,0.11782 -0.17363,0.11782 -0.17363,0.34727 0,0.21084 0.13952,0.33176 0.14263,0.11782 0.39378,0.11782 0.31316,0 0.5271,-0.22324 0.21394,-0.22634 0.21394,-0.56431 v -0.12712 z m 1.69602,-0.41858 v 1.98127 h -1.11931 v -0.51469 q -0.22324,0.31626 -0.5023,0.46198 -0.27905,0.14263 -0.67902,0.14263 -0.53951,0 -0.87747,-0.31316 -0.33486,-0.31626 -0.33486,-0.81855 0,-0.61082 0.41858,-0.89607 0.42167,-0.28526 1.32084,-0.28526 h 0.65423 v -0.0868 q 0,-0.26355 -0.20774,-0.38447 -0.20774,-0.12403 -0.64802,-0.12403 -0.35657,0 -0.66353,0.0713 -0.30696,0.0713 -0.57051,0.21394 v -0.84646 q 0.35657,-0.0868 0.71624,-0.13023 0.35967,-0.0465 0.71933,-0.0465 0.93948,0 1.35496,0.37207 0.41858,0.36897 0.41858,1.20303 z"
         style="font-style:normal;font-variant:normal;font-weight:bold;font-stretch:normal;font-size:6.3499999px;font-family:sans-serif;-inkscape-font-specification:'sans-serif Bold';stroke-width:0.26458332"
         id="path16578" />
      <path
         d="m 115.03897,254.5282 h 3.02928 v 0.77514 l -1.82935,1.90376 h 1.82935 v 0.79375 h -3.10679 v -0.77514 l 1.82934,-1.90376 h -1.75183 z"
         style="font-style:normal;font-variant:normal;font-weight:bold;font-stretch:normal;font-size:6.3499999px;font-family:sans-serif;-inkscape-font-specification:'sans-serif Bold';stroke-width:0.26458332"
         id="path16580" />
      <path
         d="m 119.59373,253.04922 h 0.44339 q 0.0341,0.21704 0.18603,0.33176 0.15503,0.11472 0.41238,0.11472 0.25735,0 0.40928,-0.11472 0.15503,-0.11472 0.18913,-0.33176 h 0.44339 q -0.0186,0.44648 -0.28836,0.68523 -0.26975,0.23564 -0.75344,0.23564 -0.48369,0 -0.75344,-0.23564 -0.26975,-0.23875 -0.28836,-0.68523 z m 0.86817,3.38894 q -0.34727,0 -0.524,0.11782 -0.17363,0.11782 -0.17363,0.34727 0,0.21084 0.13952,0.33176 0.14263,0.11782 0.39378,0.11782 0.31316,0 0.5271,-0.22324 0.21394,-0.22634 0.21394,-0.56431 v -0.12712 z m 1.69602,-0.41858 v 1.98127 h -1.11931 v -0.51469 q -0.22324,0.31626 -0.5023,0.46198 -0.27905,0.14263 -0.67903,0.14263 -0.5395,0 -0.87746,-0.31316 -0.33486,-0.31626 -0.33486,-0.81855 0,-0.61082 0.41857,-0.89607 0.42168,-0.28526 1.32085,-0.28526 h 0.65423 v -0.0868 q 0,-0.26355 -0.20774,-0.38447 -0.20774,-0.12403 -0.64802,-0.12403 -0.35657,0 -0.66353,0.0713 -0.30696,0.0713 -0.57051,0.21394 v -0.84646 q 0.35657,-0.0868 0.71624,-0.13023 0.35967,-0.0465 0.71933,-0.0465 0.93948,0 1.35496,0.37207 0.41858,0.36897 0.41858,1.20303 z"
         style="font-style:normal;font-variant:normal;font-weight:bold;font-stretch:normal;font-size:6.3499999px;font-family:sans-serif;-inkscape-font-specification:'sans-serif Bold';stroke-width:0.26458332"
         id="path16582" />
      <path
         d="m 127.76688,255.03669 v -1.86035 h 1.11621 v 4.82451 h -1.11621 v -0.50229 q -0.22944,0.30696 -0.5054,0.44958 -0.27595,0.14263 -0.63872,0.14263 -0.64182,0 -1.0542,-0.50849 -0.41237,-0.5116 -0.41237,-1.31465 0,-0.80305 0.41237,-1.31155 0.41238,-0.5116 1.0542,-0.5116 0.35967,0 0.63562,0.14573 0.27906,0.14263 0.5085,0.44648 z m -0.73174,2.24793 q 0.35657,0 0.5426,-0.26045 0.18914,-0.26045 0.18914,-0.75654 0,-0.4961 -0.18914,-0.75655 -0.18603,-0.26045 -0.5426,-0.26045 -0.35347,0 -0.5426,0.26045 -0.18604,0.26045 -0.18604,0.75655 0,0.49609 0.18604,0.75654 0.18913,0.26045 0.5426,0.26045 z"
         style="font-style:normal;font-variant:normal;font-weight:bold;font-stretch:normal;font-size:6.3499999px;font-family:sans-serif;-inkscape-font-specification:'sans-serif Bold';stroke-width:0.26458332"
         id="path16584" />
      <path
         d="m 133.42235,256.25522 v 0.31626 h -2.59519 q 0.0403,0.39068 0.28215,0.58602 0.24185,0.19533 0.67593,0.19533 0.35036,0 0.71623,-0.10232 0.36897,-0.10542 0.75655,-0.31626 v 0.85576 q -0.39378,0.14883 -0.78755,0.22325 -0.39378,0.0775 -0.78755,0.0775 -0.94258,0 -1.46658,-0.47749 -0.5209,-0.48059 -0.5209,-1.34565 0,-0.84956 0.5116,-1.33636 0.5147,-0.48679 1.41387,-0.48679 0.81855,0 1.30844,0.493 0.493,0.49299 0.493,1.31774 z m -1.14102,-0.36897 q 0,-0.31625 -0.18603,-0.50849 -0.18294,-0.19534 -0.48059,-0.19534 -0.32246,0 -0.524,0.18294 -0.20154,0.17983 -0.25115,0.52089 z"
         style="font-style:normal;font-variant:normal;font-weight:bold;font-stretch:normal;font-size:6.3499999px;font-family:sans-serif;-inkscape-font-specification:'sans-serif Bold';stroke-width:0.26458332"
         id="path16586" />
      <path
         d="m 138.82977,255.03669 v -1.86035 h 1.11621 v 4.82451 h -1.11621 v -0.50229 q -0.22945,0.30696 -0.5054,0.44958 -0.27595,0.14263 -0.63872,0.14263 -0.64182,0 -1.0542,-0.50849 -0.41238,-0.5116 -0.41238,-1.31465 0,-0.80305 0.41238,-1.31155 0.41238,-0.5116 1.0542,-0.5116 0.35967,0 0.63562,0.14573 0.27905,0.14263 0.5085,0.44648 z m -0.73174,2.24793 q 0.35657,0 0.5426,-0.26045 0.18914,-0.26045 0.18914,-0.75654 0,-0.4961 -0.18914,-0.75655 -0.18603,-0.26045 -0.5426,-0.26045 -0.35347,0 -0.5426,0.26045 -0.18604,0.26045 -0.18604,0.75655 0,0.49609 0.18604,0.75654 0.18913,0.26045 0.5426,0.26045 z"
         style="font-style:normal;font-variant:normal;font-weight:bold;font-stretch:normal;font-size:6.3499999px;font-family:sans-serif;-inkscape-font-specification:'sans-serif Bold';stroke-width:0.26458332"
         id="path16588" />
      <path
         d="m 142.57528,256.43816 q -0.34727,0 -0.524,0.11782 -0.17364,0.11782 -0.17364,0.34727 0,0.21084 0.13953,0.33176 0.14263,0.11782 0.39378,0.11782 0.31315,0 0.52709,-0.22324 0.21395,-0.22634 0.21395,-0.56431 v -0.12712 z m 1.69602,-0.41858 v 1.98127 h -1.11931 v -0.51469 q -0.22325,0.31626 -0.5023,0.46198 -0.27905,0.14263 -0.67903,0.14263 -0.5395,0 -0.87746,-0.31316 -0.33487,-0.31626 -0.33487,-0.81855 0,-0.61082 0.41858,-0.89607 0.42168,-0.28526 1.32085,-0.28526 h 0.65423 v -0.0868 q 0,-0.26355 -0.20774,-0.38447 -0.20774,-0.12403 -0.64803,-0.12403 -0.35656,0 -0.66352,0.0713 -0.30696,0.0713 -0.57051,0.21394 v -0.84646 q 0.35657,-0.0868 0.71624,-0.13023 0.35966,-0.0465 0.71933,-0.0465 0.93948,0 1.35496,0.37207 0.41858,0.36897 0.41858,1.20303 z"
         style="font-style:normal;font-variant:normal;font-weight:bold;font-stretch:normal;font-size:6.3499999px;font-family:sans-serif;-inkscape-font-specification:'sans-serif Bold';stroke-width:0.26458332"
         id="path16590" />
      <path
         d="m 146.52232,253.54221 v 0.98599 h 1.14412 v 0.79375 h -1.14412 v 1.47278 q 0,0.24184 0.0961,0.32866 0.0961,0.0837 0.38137,0.0837 h 0.57051 v 0.79375 h -0.95188 q -0.65732,0 -0.93328,-0.27285 -0.27285,-0.27595 -0.27285,-0.93327 v -1.47278 h -0.5519 v -0.79375 h 0.5519 v -0.98599 z"
         style="font-style:normal;font-variant:normal;font-weight:bold;font-stretch:normal;font-size:6.3499999px;font-family:sans-serif;-inkscape-font-specification:'sans-serif Bold';stroke-width:0.26458332"
         id="path16592" />
      <path
         d="m 151.81502,256.25522 v 0.31626 h -2.59519 q 0.0403,0.39068 0.28215,0.58602 0.24185,0.19533 0.67593,0.19533 0.35037,0 0.71624,-0.10232 0.36897,-0.10542 0.75654,-0.31626 v 0.85576 q -0.39377,0.14883 -0.78755,0.22325 -0.39377,0.0775 -0.78755,0.0775 -0.94258,0 -1.46657,-0.47749 -0.5209,-0.48059 -0.5209,-1.34565 0,-0.84956 0.51159,-1.33636 0.5147,-0.48679 1.41387,-0.48679 0.81856,0 1.30845,0.493 0.49299,0.49299 0.49299,1.31774 z m -1.14101,-0.36897 q 0,-0.31625 -0.18604,-0.50849 -0.18293,-0.19534 -0.48059,-0.19534 -0.32246,0 -0.524,0.18294 -0.20154,0.17983 -0.25115,0.52089 z"
         style="font-style:normal;font-variant:normal;font-weight:bold;font-stretch:normal;font-size:6.3499999px;font-family:sans-serif;-inkscape-font-specification:'sans-serif Bold';stroke-width:0.26458332"
         id="path16594" />
    </g>
    <g
       aria-label="de permisiuni"
       style="font-style:normal;font-weight:normal;font-size:10.58333302px;line-height:1.25;font-family:sans-serif;letter-spacing:0px;word-spacing:0px;fill:#000000;fill-opacity:1;stroke:none;stroke-width:0.26458332"
       id="text8724-5-2">
      <path
         d="m 106.87451,263.44734 v -1.86035 h 1.11621 v 4.82451 h -1.11621 v -0.5023 q -0.22944,0.30696 -0.5054,0.44959 -0.27595,0.14263 -0.63872,0.14263 -0.64182,0 -1.0542,-0.5085 -0.41237,-0.5116 -0.41237,-1.31465 0,-0.80305 0.41237,-1.31155 0.41238,-0.51159 1.0542,-0.51159 0.35967,0 0.63562,0.14572 0.27906,0.14263 0.5085,0.44649 z m -0.73174,2.24792 q 0.35657,0 0.5426,-0.26045 0.18914,-0.26044 0.18914,-0.75654 0,-0.49609 -0.18914,-0.75654 -0.18603,-0.26045 -0.5426,-0.26045 -0.35347,0 -0.5426,0.26045 -0.18604,0.26045 -0.18604,0.75654 0,0.4961 0.18604,0.75654 0.18913,0.26045 0.5426,0.26045 z"
         style="font-style:normal;font-variant:normal;font-weight:bold;font-stretch:normal;font-size:6.3499999px;font-family:sans-serif;-inkscape-font-specification:'sans-serif Bold';stroke-width:0.26458332"
         id="path16597" />
      <path
         d="m 112.52998,264.66587 v 0.31626 h -2.59519 q 0.0403,0.39067 0.28215,0.58601 0.24185,0.19534 0.67593,0.19534 0.35036,0 0.71623,-0.10232 0.36897,-0.10542 0.75655,-0.31626 v 0.85576 q -0.39378,0.14883 -0.78755,0.22324 -0.39378,0.0775 -0.78755,0.0775 -0.94258,0 -1.46658,-0.47749 -0.5209,-0.4806 -0.5209,-1.34566 0,-0.84956 0.5116,-1.33635 0.5147,-0.48679 1.41387,-0.48679 0.81855,0 1.30844,0.49299 0.493,0.49299 0.493,1.31775 z m -1.14102,-0.36897 q 0,-0.31626 -0.18603,-0.5085 -0.18294,-0.19533 -0.48059,-0.19533 -0.32247,0 -0.524,0.18293 -0.20154,0.17983 -0.25115,0.5209 z"
         style="font-style:normal;font-variant:normal;font-weight:bold;font-stretch:normal;font-size:6.3499999px;font-family:sans-serif;-inkscape-font-specification:'sans-serif Bold';stroke-width:0.26458332"
         id="path16599" />
      <path
         d="m 116.68476,265.9092 v 1.82315 h -1.11001 v -4.79351 h 1.11001 v 0.5085 q 0.22945,-0.30386 0.5085,-0.44649 0.27905,-0.14572 0.64182,-0.14572 0.64182,0 1.0542,0.51159 0.41238,0.5085 0.41238,1.31155 0,0.80305 -0.41238,1.31465 -0.41238,0.5085 -1.0542,0.5085 -0.36277,0 -0.64182,-0.14263 -0.27905,-0.14573 -0.5085,-0.44959 z m 0.73794,-2.24792 q -0.35657,0 -0.5488,0.26355 -0.18914,0.26045 -0.18914,0.75344 0,0.49299 0.18914,0.75654 0.19223,0.26045 0.5488,0.26045 0.35657,0 0.5426,-0.26045 0.18914,-0.26044 0.18914,-0.75654 0,-0.49609 -0.18914,-0.75654 -0.18603,-0.26045 -0.5426,-0.26045 z"
         style="font-style:normal;font-variant:normal;font-weight:bold;font-stretch:normal;font-size:6.3499999px;font-family:sans-serif;-inkscape-font-specification:'sans-serif Bold';stroke-width:0.26458332"
         id="path16601" />
      <path
         d="m 123.59287,264.66587 v 0.31626 h -2.59519 q 0.0403,0.39067 0.28215,0.58601 0.24185,0.19534 0.67593,0.19534 0.35036,0 0.71623,-0.10232 0.36897,-0.10542 0.75655,-0.31626 v 0.85576 q -0.39378,0.14883 -0.78755,0.22324 -0.39378,0.0775 -0.78755,0.0775 -0.94258,0 -1.46658,-0.47749 -0.5209,-0.4806 -0.5209,-1.34566 0,-0.84956 0.5116,-1.33635 0.5147,-0.48679 1.41387,-0.48679 0.81855,0 1.30844,0.49299 0.493,0.49299 0.493,1.31775 z m -1.14102,-0.36897 q 0,-0.31626 -0.18603,-0.5085 -0.18294,-0.19533 -0.48059,-0.19533 -0.32246,0 -0.524,0.18293 -0.20154,0.17983 -0.25115,0.5209 z"
         style="font-style:normal;font-variant:normal;font-weight:bold;font-stretch:normal;font-size:6.3499999px;font-family:sans-serif;-inkscape-font-specification:'sans-serif Bold';stroke-width:0.26458332"
         id="path16603" />
      <path
         d="m 127.00971,263.88452 q -0.14572,-0.0682 -0.29145,-0.0992 -0.14263,-0.0341 -0.28836,-0.0341 -0.42788,0 -0.66042,0.27595 -0.22944,0.27285 -0.22944,0.78445 v 1.5999 h -1.11001 v -3.47266 h 1.11001 v 0.57051 q 0.21394,-0.34106 0.48989,-0.49609 0.27905,-0.15813 0.66662,-0.15813 0.0558,0 0.12093,0.006 0.0651,0.003 0.18913,0.0186 z"
         style="font-style:normal;font-variant:normal;font-weight:bold;font-stretch:normal;font-size:6.3499999px;font-family:sans-serif;-inkscape-font-specification:'sans-serif Bold';stroke-width:0.26458332"
         id="path16605" />
      <path
         d="m 130.78623,263.51555 q 0.21084,-0.32246 0.49919,-0.48989 0.29146,-0.17053 0.63872,-0.17053 0.59841,0 0.91157,0.36897 0.31316,0.36897 0.31316,1.0728 v 2.1146 h -1.11621 v -1.81074 q 0.003,-0.0403 0.003,-0.0837 0.003,-0.0434 0.003,-0.12402 0,-0.36897 -0.10852,-0.5333 -0.10852,-0.16743 -0.35036,-0.16743 -0.31626,0 -0.4899,0.26044 -0.17053,0.26045 -0.17673,0.75345 v 1.70532 h -1.11621 v -1.81074 q 0,-0.57671 -0.0992,-0.74104 -0.0992,-0.16743 -0.35347,-0.16743 -0.31936,0 -0.49299,0.26354 -0.17363,0.26045 -0.17363,0.74725 v 1.70842 h -1.11621 v -3.47266 h 1.11621 v 0.5085 q 0.20464,-0.29456 0.46819,-0.44338 0.26665,-0.14883 0.58601,-0.14883 0.35966,0 0.63562,0.17363 0.27595,0.17363 0.41858,0.48679 z"
         style="font-style:normal;font-variant:normal;font-weight:bold;font-stretch:normal;font-size:6.3499999px;font-family:sans-serif;-inkscape-font-specification:'sans-serif Bold';stroke-width:0.26458332"
         id="path16607" />
      <path
         d="m 134.19067,262.93884 h 1.11001 v 3.47266 h -1.11001 z m 0,-1.35185 h 1.11001 v 0.90537 h -1.11001 z"
         style="font-style:normal;font-variant:normal;font-weight:bold;font-stretch:normal;font-size:6.3499999px;font-family:sans-serif;-inkscape-font-specification:'sans-serif Bold';stroke-width:0.26458332"
         id="path16609" />
      <path
         d="m 139.08649,263.04736 v 0.84336 q -0.35656,-0.14883 -0.68833,-0.22324 -0.33176,-0.0744 -0.62631,-0.0744 -0.31626,0 -0.47129,0.0806 -0.15193,0.0775 -0.15193,0.24185 0,0.13332 0.11472,0.20464 0.11782,0.0713 0.41858,0.10542 l 0.19534,0.0279 q 0.85266,0.10852 1.14721,0.35657 0.29456,0.24805 0.29456,0.77825 0,0.555 -0.40928,0.83405 -0.40928,0.27906 -1.22163,0.27906 -0.34416,0 -0.71313,-0.0558 -0.36587,-0.0527 -0.75345,-0.16123 v -0.84336 q 0.33177,0.16123 0.67903,0.24184 0.35037,0.0806 0.71004,0.0806 0.32556,0 0.48989,-0.0899 0.16433,-0.0899 0.16433,-0.26665 0,-0.14883 -0.11472,-0.22014 -0.11162,-0.0744 -0.44959,-0.11472 l -0.19533,-0.0248 q -0.74104,-0.093 -1.0387,-0.34416 -0.29766,-0.25115 -0.29766,-0.76275 0,-0.5519 0.37827,-0.81855 0.37828,-0.26665 1.15962,-0.26665 0.30696,0 0.64493,0.0465 0.33796,0.0465 0.73483,0.14572 z"
         style="font-style:normal;font-variant:normal;font-weight:bold;font-stretch:normal;font-size:6.3499999px;font-family:sans-serif;-inkscape-font-specification:'sans-serif Bold';stroke-width:0.26458332"
         id="path16611" />
      <path
         d="m 140.1562,262.93884 h 1.11001 v 3.47266 h -1.11001 z m 0,-1.35185 h 1.11001 v 0.90537 h -1.11001 z"
         style="font-style:normal;font-variant:normal;font-weight:bold;font-stretch:normal;font-size:6.3499999px;font-family:sans-serif;-inkscape-font-specification:'sans-serif Bold';stroke-width:0.26458332"
         id="path16613" />
      <path
         d="m 142.3018,265.05964 v -2.1208 h 1.11621 v 0.34727 q 0,0.28215 -0.003,0.71003 -0.003,0.42478 -0.003,0.56741 0,0.41858 0.0217,0.60461 0.0217,0.18294 0.0744,0.26665 0.0682,0.10852 0.17673,0.16744 0.11163,0.0589 0.25425,0.0589 0.34727,0 0.54571,-0.26665 0.19843,-0.26665 0.19843,-0.74104 v -1.71463 h 1.11001 v 3.47266 h -1.11001 v -0.5023 q -0.25114,0.30386 -0.5333,0.44959 -0.27905,0.14263 -0.61701,0.14263 -0.60152,0 -0.91778,-0.36897 -0.31316,-0.36897 -0.31316,-1.07281 z"
         style="font-style:normal;font-variant:normal;font-weight:bold;font-stretch:normal;font-size:6.3499999px;font-family:sans-serif;-inkscape-font-specification:'sans-serif Bold';stroke-width:0.26458332"
         id="path16615" />
      <path
         d="m 150.35713,264.2969 v 2.1146 h -1.11622 v -0.34417 -1.27434 q 0,-0.44958 -0.0217,-0.62011 -0.0186,-0.17054 -0.0682,-0.25115 -0.0651,-0.10852 -0.17674,-0.16743 -0.11162,-0.062 -0.25424,-0.062 -0.34727,0 -0.54571,0.26975 -0.19843,0.26665 -0.19843,0.74104 v 1.70842 h -1.11001 v -3.47266 h 1.11001 v 0.5085 q 0.25114,-0.30386 0.5333,-0.44649 0.28215,-0.14572 0.62321,-0.14572 0.60152,0 0.91158,0.36897 0.31316,0.36897 0.31316,1.0728 z"
         style="font-style:normal;font-variant:normal;font-weight:bold;font-stretch:normal;font-size:6.3499999px;font-family:sans-serif;-inkscape-font-specification:'sans-serif Bold';stroke-width:0.26458332"
         id="path16617" />
      <path
         d="m 151.39272,262.93884 h 1.11001 v 3.47266 h -1.11001 z m 0,-1.35185 h 1.11001 v 0.90537 h -1.11001 z"
         style="font-style:normal;font-variant:normal;font-weight:bold;font-stretch:normal;font-size:6.3499999px;font-family:sans-serif;-inkscape-font-specification:'sans-serif Bold';stroke-width:0.26458332"
         id="path16619" />
    </g>
    <g
       aria-label="Subiect"
       style="font-style:normal;font-variant:normal;font-weight:normal;font-stretch:normal;font-size:10.58333302px;line-height:1.25;font-family:Aharoni;-inkscape-font-specification:Aharoni;letter-spacing:0px;word-spacing:0px;fill:#000000;fill-opacity:1;stroke:none;stroke-width:0.26458332"
       id="text8716-3-3">
      <path
         d="m 50.486212,142.55099 v 0.97979 q -0.381372,-0.17054 -0.744141,-0.25735 -0.362768,-0.0868 -0.685229,-0.0868 -0.427881,0 -0.63252,0.11782 -0.204638,0.11783 -0.204638,0.36587 0,0.18604 0.136426,0.29146 0.139526,0.10232 0.502295,0.17673 l 0.508496,0.10232 q 0.772045,0.15503 1.097607,0.47129 0.325562,0.31626 0.325562,0.89917 0,0.76584 -0.455787,1.14102 -0.452685,0.37207 -1.385962,0.37207 -0.440283,0 -0.883666,-0.0837 -0.443384,-0.0837 -0.886768,-0.24805 v -1.00769 q 0.443384,0.23565 0.855762,0.35657 0.415478,0.11782 0.799951,0.11782 0.390674,0 0.598413,-0.13022 0.207739,-0.13023 0.207739,-0.37207 0,-0.21704 -0.142627,-0.33487 -0.139526,-0.11782 -0.561206,-0.21084 l -0.461987,-0.10231 q -0.694531,-0.14883 -1.016992,-0.47439 -0.319361,-0.32557 -0.319361,-0.87747 0,-0.69143 0.446485,-1.0635 0.446484,-0.37207 1.283642,-0.37207 0.381372,0 0.784448,0.0589 0.403077,0.0558 0.834058,0.17053 z"
         style="font-style:normal;font-variant:normal;font-weight:bold;font-stretch:normal;font-size:6.3499999px;font-family:sans-serif;-inkscape-font-specification:'sans-serif Bold';stroke-width:0.26458332"
         id="path16510" />
      <path
         d="m 51.754352,145.68258 v -2.1208 h 1.116211 v 0.34727 q 0,0.28215 -0.0031,0.71003 -0.0031,0.42478 -0.0031,0.56741 0,0.41858 0.0217,0.60461 0.0217,0.18294 0.07441,0.26665 0.06821,0.10853 0.176733,0.16744 0.111621,0.0589 0.254248,0.0589 0.347266,0 0.545703,-0.26665 0.198438,-0.26665 0.198438,-0.74104 v -1.71463 h 1.110009 v 3.47266 h -1.110009 v -0.5023 q -0.251148,0.30386 -0.533301,0.44959 -0.279053,0.14263 -0.617017,0.14263 -0.601513,0 -0.917773,-0.36897 -0.313159,-0.36897 -0.313159,-1.07281 z"
         style="font-style:normal;font-variant:normal;font-weight:bold;font-stretch:normal;font-size:6.3499999px;font-family:sans-serif;-inkscape-font-specification:'sans-serif Bold';stroke-width:0.26458332"
         id="path16512" />
      <path
         d="m 58.166363,146.3182 q 0.356568,0 0.542603,-0.26045 0.189136,-0.26044 0.189136,-0.75654 0,-0.49609 -0.189136,-0.75654 -0.186035,-0.26045 -0.542603,-0.26045 -0.356567,0 -0.548803,0.26355 -0.189136,0.26045 -0.189136,0.75344 0,0.49299 0.189136,0.75654 0.192236,0.26045 0.548803,0.26045 z m -0.737939,-2.24792 q 0.229443,-0.30386 0.508496,-0.44649 0.279053,-0.14572 0.641821,-0.14572 0.641822,0 1.054199,0.51159 0.412378,0.5085 0.412378,1.31155 0,0.80305 -0.412378,1.31465 -0.412377,0.5085 -1.054199,0.5085 -0.362768,0 -0.641821,-0.14263 -0.279053,-0.14573 -0.508496,-0.44959 v 0.5023 h -1.11001 v -4.82451 h 1.11001 z"
         style="font-style:normal;font-variant:normal;font-weight:bold;font-stretch:normal;font-size:6.3499999px;font-family:sans-serif;-inkscape-font-specification:'sans-serif Bold';stroke-width:0.26458332"
         id="path16514" />
      <path
         d="m 60.870074,143.56178 h 1.110009 v 3.47266 h -1.110009 z m 0,-1.35185 h 1.110009 v 0.90537 h -1.110009 z"
         style="font-style:normal;font-variant:normal;font-weight:bold;font-stretch:normal;font-size:6.3499999px;font-family:sans-serif;-inkscape-font-specification:'sans-serif Bold';stroke-width:0.26458332"
         id="path16516" />
      <path
         d="m 66.519341,145.28881 v 0.31626 h -2.59519 q 0.04031,0.39067 0.282153,0.58601 0.241846,0.19534 0.675928,0.19534 0.350366,0 0.716235,-0.10232 0.36897,-0.10542 0.756543,-0.31626 v 0.85576 q -0.393774,0.14883 -0.787548,0.22324 -0.393775,0.0775 -0.787549,0.0775 -0.942578,0 -1.466577,-0.47749 -0.520899,-0.48059 -0.520899,-1.34566 0,-0.84956 0.511597,-1.33635 0.514697,-0.48679 1.413867,-0.48679 0.818555,0 1.308447,0.49299 0.492993,0.49299 0.492993,1.31775 z m -1.141015,-0.36897 q 0,-0.31626 -0.186035,-0.5085 -0.182935,-0.19533 -0.480591,-0.19533 -0.322461,0 -0.523999,0.18293 -0.201538,0.17984 -0.251148,0.5209 z"
         style="font-style:normal;font-variant:normal;font-weight:bold;font-stretch:normal;font-size:6.3499999px;font-family:sans-serif;-inkscape-font-specification:'sans-serif Bold';stroke-width:0.26458332"
         id="path16518" />
      <path
         d="m 70.162529,143.6703 v 0.90537 q -0.226342,-0.15502 -0.455786,-0.22944 -0.226343,-0.0744 -0.471289,-0.0744 -0.465088,0 -0.725537,0.27285 -0.257349,0.26975 -0.257349,0.75654 0,0.48679 0.257349,0.75965 0.260449,0.26975 0.725537,0.26975 0.260449,0 0.492993,-0.0775 0.235645,-0.0775 0.434082,-0.22944 v 0.90847 q -0.260449,0.0961 -0.5302,0.14263 -0.26665,0.0496 -0.536401,0.0496 -0.939478,0 -1.469678,-0.48059 -0.5302,-0.4837 -0.5302,-1.34256 0,-0.85886 0.5302,-1.33945 0.5302,-0.48369 1.469678,-0.48369 0.272851,0 0.536401,0.0496 0.266651,0.0465 0.5302,0.14262 z"
         style="font-style:normal;font-variant:normal;font-weight:bold;font-stretch:normal;font-size:6.3499999px;font-family:sans-serif;-inkscape-font-specification:'sans-serif Bold';stroke-width:0.26458332"
         id="path16520" />
      <path
         d="m 72.339141,142.5758 v 0.98598 h 1.144117 v 0.79375 h -1.144117 v 1.47278 q 0,0.24185 0.09612,0.32866 0.09612,0.0837 0.381372,0.0837 h 0.570507 v 0.79375 H 72.43526 q -0.657325,0 -0.933277,-0.27285 -0.272851,-0.27595 -0.272851,-0.93328 v -1.47278 h -0.551905 v -0.79375 h 0.551905 v -0.98598 z"
         style="font-style:normal;font-variant:normal;font-weight:bold;font-stretch:normal;font-size:6.3499999px;font-family:sans-serif;-inkscape-font-specification:'sans-serif Bold';stroke-width:0.26458332"
         id="path16522" />
    </g>
    <g
       aria-label="Obiect"
       style="font-style:normal;font-variant:normal;font-weight:normal;font-stretch:normal;font-size:10.58333302px;line-height:1.25;font-family:Aharoni;-inkscape-font-specification:Aharoni;letter-spacing:0px;word-spacing:0px;fill:#000000;fill-opacity:1;stroke:none;stroke-width:0.26458332"
       id="text8716-3-6">
      <path
         d="m 189.94156,144.2449 q -0.5457,0 -0.84646,0.40308 -0.30076,0.40307 -0.30076,1.13481 0,0.72864 0.30076,1.13172 0.30076,0.40307 0.84646,0.40307 0.5488,0 0.84956,-0.40307 0.30076,-0.40308 0.30076,-1.13172 0,-0.73174 -0.30076,-1.13481 -0.30076,-0.40308 -0.84956,-0.40308 z m 0,-0.86506 q 1.11621,0 1.74873,0.63872 0.63252,0.63872 0.63252,1.76423 0,1.12241 -0.63252,1.76113 -0.63252,0.63872 -1.74873,0.63872 -1.11311,0 -1.74873,-0.63872 -0.63252,-0.63872 -0.63252,-1.76113 0,-1.12551 0.63252,-1.76423 0.63562,-0.63872 1.74873,-0.63872 z"
         style="font-style:normal;font-variant:normal;font-weight:bold;font-stretch:normal;font-size:6.3499999px;font-family:sans-serif;-inkscape-font-specification:'sans-serif Bold';stroke-width:0.26458332"
         id="path16525" />
      <path
         d="m 195.02032,147.37649 q 0.35657,0 0.5426,-0.26045 0.18914,-0.26045 0.18914,-0.75654 0,-0.49609 -0.18914,-0.75654 -0.18603,-0.26045 -0.5426,-0.26045 -0.35657,0 -0.54881,0.26355 -0.18913,0.26045 -0.18913,0.75344 0,0.49299 0.18913,0.75654 0.19224,0.26045 0.54881,0.26045 z m -0.73794,-2.24792 q 0.22944,-0.30386 0.5085,-0.44649 0.27905,-0.14572 0.64182,-0.14572 0.64182,0 1.0542,0.51159 0.41237,0.5085 0.41237,1.31155 0,0.80305 -0.41237,1.31465 -0.41238,0.50849 -1.0542,0.50849 -0.36277,0 -0.64182,-0.14262 -0.27906,-0.14573 -0.5085,-0.44959 v 0.5023 h -1.11001 v -4.82451 h 1.11001 z"
         style="font-style:normal;font-variant:normal;font-weight:bold;font-stretch:normal;font-size:6.3499999px;font-family:sans-serif;-inkscape-font-specification:'sans-serif Bold';stroke-width:0.26458332"
         id="path16527" />
      <path
         d="m 197.72403,144.62007 h 1.11001 v 3.47266 h -1.11001 z m 0,-1.35185 h 1.11001 v 0.90537 h -1.11001 z"
         style="font-style:normal;font-variant:normal;font-weight:bold;font-stretch:normal;font-size:6.3499999px;font-family:sans-serif;-inkscape-font-specification:'sans-serif Bold';stroke-width:0.26458332"
         id="path16529" />
      <path
         d="m 203.3733,146.3471 v 0.31626 h -2.59519 q 0.0403,0.39067 0.28215,0.58601 0.24185,0.19534 0.67593,0.19534 0.35036,0 0.71623,-0.10232 0.36897,-0.10542 0.75655,-0.31626 v 0.85576 q -0.39378,0.14883 -0.78755,0.22324 -0.39378,0.0775 -0.78755,0.0775 -0.94258,0 -1.46658,-0.47749 -0.5209,-0.48059 -0.5209,-1.34565 0,-0.84956 0.5116,-1.33635 0.5147,-0.48679 1.41387,-0.48679 0.81855,0 1.30844,0.49299 0.493,0.49299 0.493,1.31775 z m -1.14102,-0.36897 q 0,-0.31626 -0.18603,-0.5085 -0.18294,-0.19533 -0.48059,-0.19533 -0.32247,0 -0.524,0.18293 -0.20154,0.17983 -0.25115,0.5209 z"
         style="font-style:normal;font-variant:normal;font-weight:bold;font-stretch:normal;font-size:6.3499999px;font-family:sans-serif;-inkscape-font-specification:'sans-serif Bold';stroke-width:0.26458332"
         id="path16531" />
      <path
         d="m 207.01649,144.72859 v 0.90537 q -0.22635,-0.15503 -0.45579,-0.22944 -0.22634,-0.0744 -0.47129,-0.0744 -0.46509,0 -0.72554,0.27285 -0.25735,0.26975 -0.25735,0.75654 0,0.48679 0.25735,0.75964 0.26045,0.26975 0.72554,0.26975 0.26045,0 0.49299,-0.0775 0.23565,-0.0775 0.43409,-0.22944 v 0.90847 q -0.26045,0.0961 -0.5302,0.14263 -0.26666,0.0496 -0.53641,0.0496 -0.93947,0 -1.46967,-0.48059 -0.5302,-0.48369 -0.5302,-1.34255 0,-0.85886 0.5302,-1.33945 0.5302,-0.48369 1.46967,-0.48369 0.27286,0 0.53641,0.0496 0.26665,0.0465 0.5302,0.14262 z"
         style="font-style:normal;font-variant:normal;font-weight:bold;font-stretch:normal;font-size:6.3499999px;font-family:sans-serif;-inkscape-font-specification:'sans-serif Bold';stroke-width:0.26458332"
         id="path16533" />
      <path
         d="m 209.1931,143.63409 v 0.98598 h 1.14411 v 0.79375 h -1.14411 v 1.47278 q 0,0.24185 0.0961,0.32866 0.0961,0.0837 0.38137,0.0837 h 0.57051 v 0.79375 h -0.95188 q -0.65733,0 -0.93328,-0.27285 -0.27285,-0.27596 -0.27285,-0.93328 v -1.47278 h -0.55191 v -0.79375 h 0.55191 v -0.98598 z"
         style="font-style:normal;font-variant:normal;font-weight:bold;font-stretch:normal;font-size:6.3499999px;font-family:sans-serif;-inkscape-font-specification:'sans-serif Bold';stroke-width:0.26458332"
         id="path16535" />
    </g>
    <path
       style="fill:none;stroke:#f10000;stroke-width:1.00000003;stroke-linecap:butt;stroke-linejoin:miter;stroke-opacity:1;stroke-miterlimit:4;stroke-dasharray:1.00000003,2.00000006;marker-end:url(#Arrow1Send);stroke-dashoffset:0"
       d="m 62.006529,115.25672 c 0,-18.708861 0,-18.708861 0,-18.708861 H 196.17583 v 19.243401"
       id="path10750"
       inkscape:connector-curvature="0" />
    <path
       style="fill:none;stroke:#0063d4;stroke-width:1;stroke-linecap:butt;stroke-linejoin:miter;stroke-opacity:1;stroke-miterlimit:4;stroke-dasharray:none;marker-end:url(#marker10880)"
       d="m 73.499119,127.81839 h 52.652101 v 45.16855"
       id="path10870"
       inkscape:connector-curvature="0" />
    <path
       style="fill:none;stroke:#0063d4;stroke-width:1.00432861;stroke-linecap:butt;stroke-linejoin:miter;stroke-miterlimit:4;stroke-dasharray:none;stroke-opacity:1;marker-end:url(#marker10984)"
       d="m 133.09888,173.99187 v -46.18154 h 52.94719"
       id="path10872"
       inkscape:connector-curvature="0" />
    <path
       style="fill:none;stroke:#0063d4;stroke-width:1;stroke-linecap:butt;stroke-linejoin:miter;stroke-miterlimit:4;stroke-dasharray:none;stroke-opacity:1;marker-end:url(#marker11036)"
       d="m 125.34941,216.56261 v 9.08717"
       id="path10874"
       inkscape:connector-curvature="0" />
    <path
       style="fill:none;stroke:#0063d4;stroke-width:0.97879058;stroke-linecap:butt;stroke-linejoin:miter;stroke-miterlimit:4;stroke-dasharray:none;stroke-opacity:1;marker-end:url(#marker10932)"
       d="m 132.02578,227.09001 v -9.21789"
       id="path10876"
       inkscape:connector-curvature="0" />
    <rect
       style="opacity:1;fill:none;fill-opacity:1;stroke:#da286e;stroke-width:1;stroke-linejoin:round;stroke-miterlimit:4;stroke-dasharray:4.00000011, 1.00000003;stroke-dashoffset:0;stroke-opacity:0.86440675"
       id="rect11428"
       width="155.81813"
       height="115.46043"
       x="52.155163"
       y="161.49435" />
    <g
       aria-label="TCB"
       style="font-style:normal;font-variant:normal;font-weight:normal;font-stretch:normal;font-size:9.87777805px;line-height:1.25;font-family:Aharoni;-inkscape-font-specification:Aharoni;letter-spacing:0px;word-spacing:0px;fill:#000000;fill-opacity:1;stroke:none;stroke-width:0.26458332"
       id="text8716-3-2">
      <path
         d="m 183.24557,265.95784 h 6.63664 v 1.40354 h -2.38746 v 5.7974 h -1.8569 v -5.7974 h -2.39228 z"
         style="font-style:normal;font-variant:normal;font-weight:bold;font-stretch:normal;font-size:9.87777805px;font-family:sans-serif;-inkscape-font-specification:'sans-serif Bold';stroke-width:0.26458332"
         id="path16622" />
      <path
         d="m 196.54778,272.76329 q -0.51126,0.26527 -1.06592,0.40032 -0.55466,0.13504 -1.15755,0.13504 -1.79903,0 -2.85047,-1.00321 -1.05144,-1.00803 -1.05144,-2.72989 0,-1.72668 1.05144,-2.7299 1.05144,-1.00803 2.85047,-1.00803 0.60289,0 1.15755,0.13505 0.55466,0.13505 1.06592,0.40032 v 1.49035 q -0.51608,-0.35209 -1.01769,-0.51608 -0.5016,-0.16399 -1.05626,-0.16399 -0.99357,0 -1.5627,0.63666 -0.56913,0.63665 -0.56913,1.75562 0,1.11414 0.56913,1.7508 0.56913,0.63665 1.5627,0.63665 0.55466,0 1.05626,-0.16399 0.50161,-0.16398 1.01769,-0.51607 z"
         style="font-style:normal;font-variant:normal;font-weight:bold;font-stretch:normal;font-size:9.87777805px;font-family:sans-serif;-inkscape-font-specification:'sans-serif Bold';stroke-width:0.26458332"
         id="path16624" />
      <path
         d="m 200.97541,268.74562 q 0.43891,0 0.66559,-0.19293 0.22669,-0.19293 0.22669,-0.56913 0,-0.37138 -0.22669,-0.56431 -0.22668,-0.19774 -0.66559,-0.19774 h -1.02733 v 1.52411 z m 0.0627,3.1495 q 0.55949,0 0.83923,-0.23633 0.28456,-0.23634 0.28456,-0.71383 0,-0.46784 -0.27974,-0.69935 -0.27974,-0.23633 -0.84405,-0.23633 h -1.09003 v 1.88584 z m 1.72668,-2.59002 q 0.59807,0.17363 0.92605,0.64148 0.32797,0.46784 0.32797,1.1479 0,1.0418 -0.70418,1.55305 -0.70418,0.51125 -2.14147,0.51125 h -3.08198 v -7.20094 h 2.78777 q 1.49999,0 2.17041,0.45338 0.67524,0.45337 0.67524,1.45176 0,0.52572 -0.24598,0.8971 -0.24598,0.36656 -0.71383,0.54502 z"
         style="font-style:normal;font-variant:normal;font-weight:bold;font-stretch:normal;font-size:9.87777805px;font-family:sans-serif;-inkscape-font-specification:'sans-serif Bold';stroke-width:0.26458332"
         id="path16626" />
    </g>
  </g>
</svg>
