<svg id="Layer_1" data-name="Layer 1" xmlns="http://www.w3.org/2000/svg" viewBox="0 0 1071 561"><title>Cap 12 -</title><path d="M1030.37,531.62,40.61,533.13a9.66,9.66,0,0,1,0-13.62L529.44,30.69a9.66,9.66,0,0,1,13.62,0L1030.39,518A9.66,9.66,0,0,1,1030.37,531.62Z" style="fill:none;stroke:#f7931f;stroke-miterlimit:10;stroke-width:5px"/><path d="M285.35,276.54l502.09-.76a4.88,4.88,0,0,1,0,6.9l-248,248a4.88,4.88,0,0,1-6.9,0L285.34,283.45A4.9,4.9,0,0,1,285.35,276.54Z" style="fill:none;stroke:#c13018;stroke-miterlimit:10;stroke-width:5px"/><path d="M420.31,232.1a14.3,14.3,0,0,1-5.25,1.16,12.71,12.71,0,0,1-9-3.5,12.24,12.24,0,0,1-3.54-8.51,12.52,12.52,0,0,1,3.54-8.61,12.38,12.38,0,0,1,8.82-3.64,14.57,14.57,0,0,1,5.46,1.19v7.25a6.49,6.49,0,0,0-5.28-2.56,5.93,5.93,0,0,0-4.2,1.54,6.51,6.51,0,0,0-2,4.8,6.44,6.44,0,0,0,1.9,4.55,6.52,6.52,0,0,0,4.34,1.61,6.86,6.86,0,0,0,5.28-2.45Z"/><path d="M439.39,230.67a10.71,10.71,0,0,1-14,0,7.8,7.8,0,0,1-2.42-5.78,7.72,7.72,0,0,1,2.42-5.74,9.76,9.76,0,0,1,7-2.59,9.92,9.92,0,0,1,7,2.59,7.75,7.75,0,0,1,2.41,5.74A7.83,7.83,0,0,1,439.39,230.67Zm-9.49-8.33a3.55,3.55,0,1,0,5,5,3.47,3.47,0,0,0,1.08-2.49,3.78,3.78,0,0,0-1.08-2.55,3.59,3.59,0,0,0-5,0Z"/><path d="M445,217.09h5.6v2a5.91,5.91,0,0,1,5-2.31,6.3,6.3,0,0,1,4.62,1.68c1.33,1.33,1.47,2.66,1.47,4.37v9.94h-5.6v-7.91c0-.91,0-2.27-.7-3a2.35,2.35,0,0,0-1.79-.67,3.05,3.05,0,0,0-2.06.74,3.58,3.58,0,0,0-.91,2.48v8.4H445Z"/><path d="M471.51,221.67v11.06h-5.6V221.67h-2v-4.58h2v-1.93c0-2.1.28-4.34,2.14-6.12a8.85,8.85,0,0,1,6.16-2.21,9.47,9.47,0,0,1,6.27,2.1,7.13,7.13,0,0,1,2,5.25V215h-5.6v-.53a3.21,3.21,0,0,0-.71-2.1,2.86,2.86,0,0,0-2-.7,2.65,2.65,0,0,0-1.92.81,3.2,3.2,0,0,0-.74,2.41v2.21h3.92v4.58Zm10.93-4.58v15.64h-5.6V217.09Z"/><path d="M503.65,232.73H498V231a5.72,5.72,0,0,1-4.72,2.24,7.52,7.52,0,0,1-5.5-2.17,8.66,8.66,0,0,1-2.52-6.23,8.53,8.53,0,0,1,2.56-6.2,8,8,0,0,1,5.53-2.1,6.18,6.18,0,0,1,4.65,2V207.22h5.61ZM497,227.55a3.71,3.71,0,0,0,1.19-2.66,4.12,4.12,0,0,0-1.05-2.52,3.59,3.59,0,0,0-5,0A3.85,3.85,0,0,0,491,225a3.54,3.54,0,0,0,1.09,2.45,3.48,3.48,0,0,0,2.49,1.05A3.78,3.78,0,0,0,497,227.55Z"/><path d="M524.09,225.94H512.43a4,4,0,0,0,1,2.63,3.15,3.15,0,0,0,2.31.77,4.51,4.51,0,0,0,1.82-.42,2.64,2.64,0,0,0,1-1h5.36a7.15,7.15,0,0,1-1.89,3.22c-1.16,1.12-3,2.17-6.38,2.17a8.88,8.88,0,0,1-6.47-2.38,8.19,8.19,0,0,1-2.31-5.92,8.36,8.36,0,0,1,2.34-6.05,8.83,8.83,0,0,1,6.41-2.28,8.57,8.57,0,0,1,6,2.14,8.75,8.75,0,0,1,2.49,6.58Zm-5.15-3.22A3.78,3.78,0,0,0,518,221a3.29,3.29,0,0,0-2.31-.84,3,3,0,0,0-2.28.84,3.27,3.27,0,0,0-.84,1.68Z"/><path d="M527.3,217.09h5.6v2a5.91,5.91,0,0,1,5-2.31,6.34,6.34,0,0,1,4.63,1.68c1.33,1.33,1.46,2.66,1.46,4.37v9.94h-5.6v-7.91c0-.91,0-2.27-.7-3a2.33,2.33,0,0,0-1.78-.67,3.08,3.08,0,0,0-2.07.74,3.58,3.58,0,0,0-.91,2.48v8.4h-5.6Z"/><path d="M554,221.67v11.06h-5.6V221.67h-1.78v-4.58h1.78v-5.15H554v5.15h3.19v4.58Zm-5.39,12.81,5.25.56-3.57,6.44-3.5-.42Z"/><path d="M562.06,207.43a3.15,3.15,0,1,1-3.15,3.15A3.14,3.14,0,0,1,562.06,207.43Zm2.8,9.66v15.64h-5.6V217.09Z"/><path d="M580.78,217.09h5.6v15.64h-5.6V231a5.84,5.84,0,0,1-4.86,2.24,7.49,7.49,0,0,1-5.64-2.49A7.9,7.9,0,0,1,568,225a8.64,8.64,0,0,1,2.42-6.26,8,8,0,0,1,5.63-2.21,6.2,6.2,0,0,1,4.69,2Zm-5.88,5.25a3.51,3.51,0,0,0,0,5.11,3.91,3.91,0,0,0,2.52,1.05,3.6,3.6,0,0,0,2.52-1.09,3.4,3.4,0,0,0,1.05-2.52,3.45,3.45,0,0,0-1.09-2.55,3.54,3.54,0,0,0-5,0Z"/><path d="M595.83,207.22v25.51h-5.6V207.22Z"/><path d="M602.45,207.43a3.15,3.15,0,1,1-3.15,3.15A3.14,3.14,0,0,1,602.45,207.43Zm2.8,9.66v15.64h-5.6V217.09Z"/><path d="M615.26,221.67v11.06h-5.6V221.67h-1.79v-4.58h1.79v-5.15h5.6v5.15h3.18v4.58Z"/><path d="M632.65,217.09h5.6v15.64h-5.6V231a5.84,5.84,0,0,1-4.86,2.24,7.49,7.49,0,0,1-5.64-2.49,7.9,7.9,0,0,1-2.24-5.74,8.64,8.64,0,0,1,2.42-6.26,8,8,0,0,1,5.63-2.21,6.2,6.2,0,0,1,4.69,2Zm-5.88,5.25a3.51,3.51,0,0,0,0,5.11,3.91,3.91,0,0,0,2.52,1.05,3.6,3.6,0,0,0,2.52-1.09,3.4,3.4,0,0,0,1.05-2.52,3.45,3.45,0,0,0-1.09-2.55,3.54,3.54,0,0,0-5,0Z"/><path d="M648.3,221.67v11.06h-5.6V221.67h-1.79v-4.58h1.79v-5.15h5.6v5.15h3.18v4.58Z"/><path d="M670.17,225.94H658.52a4,4,0,0,0,1,2.63,3.15,3.15,0,0,0,2.31.77,4.51,4.51,0,0,0,1.82-.42,2.64,2.64,0,0,0,1-1H670a7,7,0,0,1-1.89,3.22c-1.15,1.12-3,2.17-6.37,2.17a8.88,8.88,0,0,1-6.47-2.38,8.19,8.19,0,0,1-2.31-5.92,8.36,8.36,0,0,1,2.34-6.05,8.83,8.83,0,0,1,6.41-2.28,8.58,8.58,0,0,1,6,2.14,8.77,8.77,0,0,1,2.48,6.58ZM665,222.72a3.78,3.78,0,0,0-.91-1.68,3.29,3.29,0,0,0-2.31-.84,3,3,0,0,0-2.28.84,3.27,3.27,0,0,0-.84,1.68Z"/><path d="M204.1,472.83v23.35H198V472.83Z"/><path d="M208.47,480.54h5.6v1.95a5.91,5.91,0,0,1,5-2.31,6.33,6.33,0,0,1,4.63,1.69c1.33,1.33,1.47,2.66,1.47,4.37v9.94h-5.6v-7.91c0-.91,0-2.27-.7-3a2.39,2.39,0,0,0-1.79-.66,3.08,3.08,0,0,0-2.07.74,3.58,3.58,0,0,0-.91,2.48v8.4h-5.6Z"/><path d="M235.14,485.12v11.06h-5.6V485.12h-1.78v-4.58h1.78v-5.15h5.6v5.15h3.19v4.58Z"/><path d="M257,489.39H245.36a4,4,0,0,0,1,2.63,3.15,3.15,0,0,0,2.31.77,4.51,4.51,0,0,0,1.82-.42,2.57,2.57,0,0,0,1-1.05h5.36a7.06,7.06,0,0,1-1.89,3.22c-1.16,1.12-3,2.17-6.37,2.17a8.9,8.9,0,0,1-6.48-2.38,8.23,8.23,0,0,1-2.31-5.92,8.37,8.37,0,0,1,2.35-6.06,8.79,8.79,0,0,1,6.4-2.27,8.56,8.56,0,0,1,6,2.13A8.77,8.77,0,0,1,257,488.8Zm-5.15-3.22a3.78,3.78,0,0,0-.91-1.68,3.23,3.23,0,0,0-2.31-.84,3,3,0,0,0-2.27.84,3.12,3.12,0,0,0-.84,1.68Z"/><path d="M277.84,480.54V495.2c0,2.35-.21,4.48-2.13,6.48a9.34,9.34,0,0,1-6.9,2.52,9.59,9.59,0,0,1-7.31-2.77,5.68,5.68,0,0,1-1.72-3.25H266c.21.63.77,1.61,2.63,1.61a3.4,3.4,0,0,0,2.48-.88,3.73,3.73,0,0,0,1.12-2.9v-1.58a6,6,0,0,1-4.69,2.07,7.76,7.76,0,0,1-5.77-2.21,8.25,8.25,0,0,1-2.17-5.7,9,9,0,0,1,2.31-6.13,7.83,7.83,0,0,1,5.67-2.38,6.1,6.1,0,0,1,4.65,2.06v-1.6Zm-11.41,5.25a3.51,3.51,0,0,0,0,5.07,3.53,3.53,0,0,0,2.52,1,3.71,3.71,0,0,0,2.52-1.05,3.75,3.75,0,0,0,1-2.53,4,4,0,0,0-1.12-2.55,3.55,3.55,0,0,0-2.48-1A3.34,3.34,0,0,0,266.43,485.79Z"/><path d="M281.69,480.54h5.6v2.55a5.06,5.06,0,0,1,2.21-2.17,6,6,0,0,1,2.9-.63l1.12.07v5.28a5,5,0,0,0-2.41-.55,3.66,3.66,0,0,0-2.56.84,4.72,4.72,0,0,0-1.26,3.57v6.68h-5.6Z"/><path d="M298.81,470.87a3.15,3.15,0,1,1-3.15,3.15A3.14,3.14,0,0,1,298.81,470.87Zm2.8,9.67v15.64H296V480.54Z"/><path d="M311.62,485.12v11.06H306V485.12h-1.79v-4.58H306v-5.15h5.6v5.15h3.18v4.58Z"/><path d="M329,480.54h5.6v15.64H329v-1.71a5.84,5.84,0,0,1-4.86,2.24,7.49,7.49,0,0,1-5.64-2.49,7.9,7.9,0,0,1-2.24-5.74,8.67,8.67,0,0,1,2.42-6.27,8,8,0,0,1,5.63-2.2,6.16,6.16,0,0,1,4.69,2Zm-5.88,5.25a3.51,3.51,0,0,0,0,5.11,3.91,3.91,0,0,0,2.52,1.05,3.6,3.6,0,0,0,2.52-1.09,3.4,3.4,0,0,0,1.05-2.52,3.45,3.45,0,0,0-1.09-2.55,3.54,3.54,0,0,0-5,0Z"/><path d="M344.66,485.12v11.06h-5.6V485.12h-1.79v-4.58h1.79v-5.15h5.6v5.15h3.18v4.58Z"/><path d="M366.53,489.39H354.88a4,4,0,0,0,1,2.63,3.15,3.15,0,0,0,2.31.77,4.51,4.51,0,0,0,1.82-.42,2.64,2.64,0,0,0,1-1.05h5.35a7,7,0,0,1-1.89,3.22c-1.15,1.12-3,2.17-6.37,2.17a8.88,8.88,0,0,1-6.47-2.38,8.19,8.19,0,0,1-2.31-5.92,8.41,8.41,0,0,1,2.34-6.06,8.83,8.83,0,0,1,6.41-2.27,8.57,8.57,0,0,1,6,2.13,8.79,8.79,0,0,1,2.48,6.59Zm-5.14-3.22a3.78,3.78,0,0,0-.91-1.68,3.25,3.25,0,0,0-2.31-.84,3,3,0,0,0-2.28.84,3.27,3.27,0,0,0-.84,1.68Z"/><path d="M696,496.29V472.94h8c2.35,0,6.27.31,9.28,3.22a11.38,11.38,0,0,1,3.25,8.51,10.76,10.76,0,0,1-3,8.08,12.67,12.67,0,0,1-9,3.54Zm6.06-5.15h1.23a7,7,0,0,0,5.11-1.68,6.37,6.37,0,0,0,1.78-4.79,7,7,0,0,0-1.82-5.12,6.79,6.79,0,0,0-4.83-1.47H702.1Z"/><path d="M722.64,471a3.15,3.15,0,1,1-3.15,3.15A3.14,3.14,0,0,1,722.64,471Zm2.81,9.66v15.65h-5.61V480.64Z"/><path d="M730.27,491.1a8.23,8.23,0,0,0,2.24,1.16,7.5,7.5,0,0,0,2.17.39,2.4,2.4,0,0,0,1.44-.42.9.9,0,0,0,.28-.74.82.82,0,0,0-.28-.7,3.56,3.56,0,0,0-1.47-.56l-1.47-.35a5,5,0,0,1-2.73-1.37,3.75,3.75,0,0,1-1-2.69A5.62,5.62,0,0,1,730.9,482a7.94,7.94,0,0,1,5.6-1.89,12.79,12.79,0,0,1,5,1l-1.89,3.57a7.72,7.72,0,0,0-2.94-.77,2.38,2.38,0,0,0-1.3.31.86.86,0,0,0-.49.77.92.92,0,0,0,.67.88c.53.21,1,.21,1.86.45l1,.28a6.61,6.61,0,0,1,2.31,1.23,4.43,4.43,0,0,1,1.19,3.11,5.21,5.21,0,0,1-1.57,3.89c-1.82,1.82-4.48,2-5.78,2a11.49,11.49,0,0,1-6.3-1.82Z"/><path d="M750.4,504.3h-5.6V480.64h5.6v1.71a5.86,5.86,0,0,1,4.8-2.24,7.78,7.78,0,0,1,5.56,2.28,8.88,8.88,0,0,1-.14,12.25,7.5,7.5,0,0,1-5.36,2.17,6.66,6.66,0,0,1-4.86-2Zm.91-18.38a3.83,3.83,0,0,0-1.09,2.59,3.76,3.76,0,0,0,1.09,2.49,3.54,3.54,0,0,0,2.52,1.05,3.33,3.33,0,0,0,2.48-1.05,3.68,3.68,0,0,0,1.09-2.49,3.79,3.79,0,0,0-1.09-2.59,3.37,3.37,0,0,0-2.48-1.05A3.58,3.58,0,0,0,751.31,485.92Z"/><path d="M782.11,494.22a10.71,10.71,0,0,1-14,0,8.09,8.09,0,0,1,0-11.52,9.78,9.78,0,0,1,7-2.59,9.89,9.89,0,0,1,7,2.59,8.06,8.06,0,0,1,0,11.52Zm-9.49-8.33a3.55,3.55,0,1,0,5,5,3.47,3.47,0,0,0,1.08-2.49,3.78,3.78,0,0,0-1.08-2.55,3.59,3.59,0,0,0-5,0Z"/><path d="M787.74,480.64h5.6v2a5.91,5.91,0,0,1,5-2.31,6.34,6.34,0,0,1,4.63,1.68c1.33,1.33,1.47,2.66,1.47,4.37v10H798.8v-7.91c0-.92,0-2.28-.7-3.05a2.32,2.32,0,0,0-1.78-.66,3.08,3.08,0,0,0-2.07.73,3.58,3.58,0,0,0-.91,2.48v8.41h-5.6Z"/><path d="M811,471a3.15,3.15,0,1,1-3.15,3.15A3.14,3.14,0,0,1,811,471Zm2.8,9.66v15.65h-5.6V480.64Z"/><path d="M823.23,470.77v11.37a6.22,6.22,0,0,1,4.66-2,8,8,0,0,1,5.53,2.1,8.53,8.53,0,0,1,2.56,6.2,8.64,8.64,0,0,1-2.52,6.23,7.5,7.5,0,0,1-5.5,2.17,5.75,5.75,0,0,1-4.73-2.24v1.72h-5.6V470.77ZM829.15,491a3.57,3.57,0,0,0,1.08-2.45,3.84,3.84,0,0,0-1.08-2.66,3.59,3.59,0,0,0-5,0,4.12,4.12,0,0,0-1.05,2.52,3.71,3.71,0,0,0,1.19,2.66,3.78,3.78,0,0,0,2.41.95A3.48,3.48,0,0,0,829.15,491Z"/><path d="M842,471a3.15,3.15,0,1,1-3.15,3.15A3.14,3.14,0,0,1,842,471Zm2.8,9.66v15.65h-5.6V480.64Z"/><path d="M854.21,470.77v25.52h-5.6V470.77Z"/><path d="M860.82,471a3.15,3.15,0,1,1-3.15,3.15A3.14,3.14,0,0,1,860.82,471Zm2.8,9.66v15.65H858V480.64Z"/><path d="M873.63,485.22v11.07H868V485.22h-1.78v-4.58H868v-5.15h5.6v5.15h3.19v4.58Z"/><path d="M891,480.64h5.6v15.65H891v-1.72a5.84,5.84,0,0,1-4.87,2.24,7.49,7.49,0,0,1-5.63-2.48,7.88,7.88,0,0,1-2.24-5.74,8.65,8.65,0,0,1,2.41-6.27,8.07,8.07,0,0,1,5.64-2.21,6.22,6.22,0,0,1,4.69,2Zm-5.88,5.25a3.65,3.65,0,0,0-1.12,2.55,3.61,3.61,0,0,0,1.08,2.56,4,4,0,0,0,2.52,1.05,3.55,3.55,0,0,0,2.52-1.09,3.36,3.36,0,0,0,1.05-2.52,3.47,3.47,0,0,0-1.08-2.55,3.54,3.54,0,0,0-5,0Z"/><path d="M906.67,485.22v11.07h-5.6V485.22h-1.78v-4.58h1.78v-5.15h5.6v5.15h3.19v4.58Z"/><path d="M928.55,489.5H916.89a4,4,0,0,0,1,2.62,3.15,3.15,0,0,0,2.31.77,4.33,4.33,0,0,0,1.82-.42,2.57,2.57,0,0,0,1-1.05h5.36a7.1,7.1,0,0,1-1.89,3.22c-1.16,1.12-3,2.17-6.37,2.17a8.86,8.86,0,0,1-6.48-2.38,8.21,8.21,0,0,1-2.31-5.92,8.33,8.33,0,0,1,2.35-6.05,8.79,8.79,0,0,1,6.4-2.28,8.57,8.57,0,0,1,6,2.14,8.75,8.75,0,0,1,2.49,6.58Zm-5.15-3.23a3.78,3.78,0,0,0-.91-1.68,3.28,3.28,0,0,0-2.31-.84,3,3,0,0,0-2.27.84,3.16,3.16,0,0,0-.84,1.68Z"/><path d="M451.5,359.23a8.13,8.13,0,0,0,5.35,2.38,3.09,3.09,0,0,0,2.35-.8,2.09,2.09,0,0,0,.59-1.47,1.81,1.81,0,0,0-.66-1.4,8.48,8.48,0,0,0-3-1.23l-1.58-.49a7.6,7.6,0,0,1-3.36-1.89,5.87,5.87,0,0,1-1.33-4.13,7.59,7.59,0,0,1,2.14-5.63,8.23,8.23,0,0,1,6-2.21,16.52,16.52,0,0,1,7.22,1.89L462.77,349a6.14,6.14,0,0,0-4-1.58,2.92,2.92,0,0,0-2,.7,1.73,1.73,0,0,0-.59,1.26,1.58,1.58,0,0,0,.31,1.05,3.89,3.89,0,0,0,2,1l1.86.56a9,9,0,0,1,4.24,2.31,5.52,5.52,0,0,1,1.5,4.17,7.88,7.88,0,0,1-2.21,5.88c-2,2-4.41,2.38-6.89,2.38a12.52,12.52,0,0,1-4.59-.77,16.3,16.3,0,0,1-3.53-1.86Z"/><path d="M486,359.44H474.35a4,4,0,0,0,1,2.63,3.15,3.15,0,0,0,2.31.77,4.51,4.51,0,0,0,1.82-.42,2.57,2.57,0,0,0,1-1.05h5.36a7.06,7.06,0,0,1-1.89,3.22c-1.16,1.12-3,2.17-6.37,2.17a8.9,8.9,0,0,1-6.48-2.38,8.23,8.23,0,0,1-2.31-5.92,8.33,8.33,0,0,1,2.35-6,8.79,8.79,0,0,1,6.4-2.28,8.57,8.57,0,0,1,6,2.14,8.75,8.75,0,0,1,2.49,6.58Zm-5.15-3.22a3.68,3.68,0,0,0-.91-1.68,3.28,3.28,0,0,0-2.31-.84,3,3,0,0,0-2.27.84,3.12,3.12,0,0,0-.84,1.68Z"/><path d="M501.06,365.88a8.28,8.28,0,0,1-3.89.88,8.67,8.67,0,0,1-6.16-2.38,8.2,8.2,0,0,1-2.41-5.85,8.49,8.49,0,0,1,2.52-6,9,9,0,0,1,6.3-2.38,8,8,0,0,1,3.64.87v4.69a5.05,5.05,0,0,0-2.91-1,3.67,3.67,0,0,0-2.73,1.08,3.81,3.81,0,0,0-1.08,2.7,4,4,0,0,0,1,2.62,3.78,3.78,0,0,0,2.87,1.19,4.23,4.23,0,0,0,2.87-1.05Z"/><path d="M509.84,350.59v8.75a3,3,0,0,0,.84,2.27,2.91,2.91,0,0,0,2,.6,2.61,2.61,0,0,0,2-.67,2.89,2.89,0,0,0,.8-2.2v-8.75H521v9.76a5.36,5.36,0,0,1-1.5,4.2c-1.93,2-4.62,2.21-6.76,2.21-2.34,0-5.21-.25-7.07-2.24a5.63,5.63,0,0,1-1.47-4.17v-9.76Z"/><path d="M524.89,350.59h5.6v2.55A5.06,5.06,0,0,1,532.7,351a6.15,6.15,0,0,1,2.9-.63c.14,0,.39,0,1.12.07v5.29a4.93,4.93,0,0,0-2.41-.56,3.66,3.66,0,0,0-2.56.84,4.72,4.72,0,0,0-1.26,3.57v6.68h-5.6Z"/><path d="M542,340.93a3.15,3.15,0,1,1-3.15,3.15A3.14,3.14,0,0,1,542,340.93Zm2.8,9.66v15.64h-5.6V350.59Z"/><path d="M554.82,355.17v11.06h-5.6V355.17h-1.79v-4.58h1.79v-5.15h5.6v5.15H558v4.58Z"/><path d="M572.21,350.59h5.6v15.64h-5.6v-1.71a5.84,5.84,0,0,1-4.86,2.24,7.49,7.49,0,0,1-5.64-2.49,7.9,7.9,0,0,1-2.24-5.74,8.64,8.64,0,0,1,2.42-6.26,8,8,0,0,1,5.63-2.21,6.2,6.2,0,0,1,4.69,2Zm-5.88,5.25a3.51,3.51,0,0,0,0,5.11,3.91,3.91,0,0,0,2.52,1.05,3.6,3.6,0,0,0,2.52-1.09,3.4,3.4,0,0,0,1-2.52,3.45,3.45,0,0,0-1.09-2.55,3.54,3.54,0,0,0-5,0Z"/><path d="M587.86,355.17v11.06h-5.6V355.17h-1.79v-4.58h1.79v-5.15h5.6v5.15H591v4.58Z"/><path d="M609.73,359.44H598.08a4,4,0,0,0,1,2.63,3.15,3.15,0,0,0,2.31.77,4.51,4.51,0,0,0,1.82-.42,2.64,2.64,0,0,0,1-1.05h5.35a7,7,0,0,1-1.89,3.22c-1.15,1.12-3,2.17-6.37,2.17a8.88,8.88,0,0,1-6.47-2.38,8.19,8.19,0,0,1-2.32-5.92,8.37,8.37,0,0,1,2.35-6,8.83,8.83,0,0,1,6.41-2.28,8.58,8.58,0,0,1,6,2.14,8.77,8.77,0,0,1,2.48,6.58Zm-5.14-3.22a3.78,3.78,0,0,0-.91-1.68,3.29,3.29,0,0,0-2.31-.84,3,3,0,0,0-2.28.84,3.27,3.27,0,0,0-.84,1.68Z"/><path d="M625.06,350.59h5.6v15.64h-5.6v-1.71a5.84,5.84,0,0,1-4.86,2.24,7.49,7.49,0,0,1-5.64-2.49,7.86,7.86,0,0,1-2.24-5.74,8.64,8.64,0,0,1,2.41-6.26,8.07,8.07,0,0,1,5.64-2.21,6.2,6.2,0,0,1,4.69,2Zm-5.88,5.25a3.51,3.51,0,0,0,0,5.11,3.91,3.91,0,0,0,2.52,1.05,3.6,3.6,0,0,0,2.52-1.09,3.4,3.4,0,0,0,1-2.52,3.45,3.45,0,0,0-1.09-2.55,3.54,3.54,0,0,0-5,0Z"/><path d="M457.84,384.89v23.34h-6.06V384.89Z"/><path d="M462.21,392.59h5.6v2a5.9,5.9,0,0,1,5-2.31,6.31,6.31,0,0,1,4.62,1.68c1.33,1.33,1.47,2.66,1.47,4.37v9.94h-5.6v-7.91c0-.91,0-2.27-.7-3a2.37,2.37,0,0,0-1.79-.67,3.05,3.05,0,0,0-2.06.74,3.58,3.58,0,0,0-.91,2.48v8.4h-5.6Z"/><path d="M488.7,397.17v11.06h-5.6V397.17h-2v-4.58h2V390a8,8,0,0,1,1.44-5.14,6.49,6.49,0,0,1,5.42-2.49,7.06,7.06,0,0,1,2.7.53v4.83a3.49,3.49,0,0,0-1.75-.53,2,2,0,0,0-1.58.6,4.15,4.15,0,0,0-.63,2.62v2.21h3.92v4.58Z"/><path d="M510.51,406.17a10.71,10.71,0,0,1-14,0,7.83,7.83,0,0,1-2.41-5.78,7.75,7.75,0,0,1,2.41-5.74,9.78,9.78,0,0,1,7-2.59,9.92,9.92,0,0,1,7,2.59,7.75,7.75,0,0,1,2.41,5.74A7.83,7.83,0,0,1,510.51,406.17ZM501,397.84a3.55,3.55,0,1,0,5,5,3.47,3.47,0,0,0,1.08-2.49,3.78,3.78,0,0,0-1.08-2.55,3.59,3.59,0,0,0-5,0Z"/><path d="M516.14,392.59h5.6v2.55A5.06,5.06,0,0,1,524,393a6.15,6.15,0,0,1,2.9-.63c.14,0,.39,0,1.12.07v5.29a4.93,4.93,0,0,0-2.41-.56A3.66,3.66,0,0,0,523,398a4.72,4.72,0,0,0-1.26,3.57v6.68h-5.6Z"/><path d="M530.46,392.59h5.6v1.89a6,6,0,0,1,4.69-2.17,6.31,6.31,0,0,1,3,.7,4.91,4.91,0,0,1,2.17,2.24,5.46,5.46,0,0,1,2.13-2.17,6.36,6.36,0,0,1,3.26-.77,6.23,6.23,0,0,1,4.34,1.43,5.76,5.76,0,0,1,1.47,4.31v10.18h-5.6V400.5c0-1.65-.18-2.77-.81-3.36a2,2,0,0,0-1.47-.53,2.28,2.28,0,0,0-1.64.63,4,4,0,0,0-1,3v8H541V400.5c0-1.51-.1-2.7-.73-3.36a2.15,2.15,0,0,0-1.68-.63,1.94,1.94,0,0,0-1.54.56c-1,.94-1,2.45-1,3.43v7.73h-5.6Z"/><path d="M573.12,392.59h5.6v15.64h-5.6v-1.71a5.84,5.84,0,0,1-4.86,2.24,7.49,7.49,0,0,1-5.64-2.49,7.9,7.9,0,0,1-2.24-5.74,8.64,8.64,0,0,1,2.42-6.26,8,8,0,0,1,5.63-2.21,6.2,6.2,0,0,1,4.69,2Zm-5.88,5.25a3.51,3.51,0,0,0,0,5.11,3.91,3.91,0,0,0,2.52,1.05,3.6,3.6,0,0,0,2.52-1.09,3.4,3.4,0,0,0,1-2.52,3.45,3.45,0,0,0-1.09-2.55,3.54,3.54,0,0,0-5,0Z"/><path d="M588.77,397.17v11.06h-5.6V397.17h-1.79v-4.58h1.79v-5.15h5.6v5.15H592v4.58ZM583.38,410l5.25.56L585.06,417l-3.5-.42Z"/><path d="M596.85,382.93a3.15,3.15,0,1,1-3.15,3.15A3.14,3.14,0,0,1,596.85,382.93Zm2.8,9.66v15.64h-5.6V392.59Z"/><path d="M620.06,401.44H608.4a4,4,0,0,0,1,2.63,3.15,3.15,0,0,0,2.31.77,4.51,4.51,0,0,0,1.82-.42,2.57,2.57,0,0,0,1-1.05h5.36a7.15,7.15,0,0,1-1.89,3.22c-1.16,1.12-3,2.17-6.37,2.17a8.9,8.9,0,0,1-6.48-2.38,8.23,8.23,0,0,1-2.31-5.92,8.33,8.33,0,0,1,2.35-6,8.79,8.79,0,0,1,6.4-2.28,8.57,8.57,0,0,1,6,2.14,8.75,8.75,0,0,1,2.49,6.58Zm-5.15-3.22a3.78,3.78,0,0,0-.91-1.68,3.28,3.28,0,0,0-2.31-.84,3,3,0,0,0-2.27.84,3.12,3.12,0,0,0-.84,1.68Z"/><path d="M626.08,382.93a3.15,3.15,0,1,1-3.16,3.15A3.14,3.14,0,0,1,626.08,382.93Zm2.8,9.66v15.64h-5.61V392.59Z"/></svg>