<svg id="Layer_1" data-name="Layer 1" xmlns="http://www.w3.org/2000/svg" viewBox="0 0 886 275"><title>Capitolul12</title><polygon points="399.47 139.55 464.94 139.55 464.94 148.99 485 128.94 464.94 108.88 464.94 118.32 399.47 118.32 399.47 139.55" style="fill:none;stroke:#3a5c84;stroke-miterlimit:10;stroke-width:5px"/><rect x="39" y="69.58" width="148" height="89.21" rx="12" ry="12" style="fill:none;stroke:#91c54f;stroke-miterlimit:10;stroke-width:5px"/><rect x="89.18" y="158.28" width="47.64" height="16.22" rx="4.38" ry="4.38" style="fill:#91c54f"/><rect x="58.26" y="172.97" width="109.48" height="22.3" rx="6.03" ry="6.03" style="fill:none;stroke:#91c54f;stroke-miterlimit:10;stroke-width:5px"/><circle cx="70.42" cy="181.08" r="2.03" style="fill:#91c54f"/><circle cx="76.24" cy="181.08" r="2.03" style="fill:#91c54f"/><circle cx="70.42" cy="187.17" r="2.03" style="fill:#91c54f"/><circle cx="76.24" cy="187.17" r="2.03" style="fill:#91c54f"/><rect x="129.22" y="182.1" width="31.42" height="3.04" rx="0.82" ry="0.82" style="fill:none;stroke:#91c54f;stroke-miterlimit:10;stroke-width:5px"/><line x1="101.6" y1="128.39" x2="124.48" y2="128.39" style="fill:none;stroke:#91c54f;stroke-miterlimit:10;stroke-width:2.20496356440663px"/><line x1="101.6" y1="122.47" x2="124.48" y2="122.47" style="fill:none;stroke:#91c54f;stroke-miterlimit:10;stroke-width:2.20496356440663px"/><line x1="101.6" y1="116.55" x2="124.48" y2="116.55" style="fill:none;stroke:#91c54f;stroke-miterlimit:10;stroke-width:2.20496356440663px"/><line x1="101.6" y1="110.63" x2="124.48" y2="110.63" style="fill:none;stroke:#91c54f;stroke-miterlimit:10;stroke-width:2.20496356440663px"/><line x1="101.6" y1="104.71" x2="111.04" y2="104.71" style="fill:none;stroke:#91c54f;stroke-miterlimit:10;stroke-width:2.20496356440663px"/><path d="M123.28,102.58a3.19,3.19,0,0,1-3.19-3.19v-6H100.27a3.2,3.2,0,0,0-3.2,3.19v33.52a3.2,3.2,0,0,0,3.2,3.19h25.54a3.2,3.2,0,0,0,3.19-3.19V102.58Z" style="fill:none;stroke:#91c54f;stroke-miterlimit:10;stroke-width:2.20496356440663px"/><ellipse cx="279.49" cy="126.5" rx="34.49" ry="57.89" style="fill:none;stroke:#3a5c84;stroke-miterlimit:10;stroke-width:3.69523823261261px"/><ellipse cx="598.51" cy="126.5" rx="34.49" ry="57.89" style="fill:none;stroke:#3a5c84;stroke-miterlimit:10;stroke-width:3.69523823261261px"/><line x1="279.49" y1="68.61" x2="598.51" y2="68.61" style="fill:none;stroke:#3a5c84;stroke-miterlimit:10;stroke-width:3.69523823261261px"/><line x1="280.1" y1="184.39" x2="599.13" y2="184.39" style="fill:none;stroke:#3a5c84;stroke-miterlimit:10;stroke-width:3.69523823261261px"/><path d="M374.55,37.4a5.79,5.79,0,0,0,3.82,1.7,2.21,2.21,0,0,0,1.68-.57,1.5,1.5,0,0,0,.42-1.05,1.29,1.29,0,0,0-.47-1,6.08,6.08,0,0,0-2.15-.88l-1.13-.35a5.42,5.42,0,0,1-2.4-1.35,4.18,4.18,0,0,1-.94-2.95,5.41,5.41,0,0,1,1.52-4,5.88,5.88,0,0,1,4.27-1.58,11.76,11.76,0,0,1,5.15,1.35l-1.72,3.38A4.39,4.39,0,0,0,379.75,29a2.09,2.09,0,0,0-1.43.5,1.24,1.24,0,0,0-.42.9,1.13,1.13,0,0,0,.22.75,2.79,2.79,0,0,0,1.45.75l1.33.4a6.37,6.37,0,0,1,3,1.65,4,4,0,0,1,1.08,3,5.66,5.66,0,0,1-1.58,4.2,6.46,6.46,0,0,1-4.92,1.69,9.14,9.14,0,0,1-3.28-.54,11.64,11.64,0,0,1-2.52-1.33Z"/><path d="M399.2,37.55h-8.33a2.87,2.87,0,0,0,.7,1.88,2.25,2.25,0,0,0,1.65.55,3.24,3.24,0,0,0,1.3-.3,1.83,1.83,0,0,0,.7-.75h3.83a5.14,5.14,0,0,1-1.35,2.3,6.13,6.13,0,0,1-4.55,1.54,6.36,6.36,0,0,1-4.63-1.69,6.35,6.35,0,0,1,0-8.55,6.27,6.27,0,0,1,4.57-1.63,6.12,6.12,0,0,1,4.3,1.53,6.24,6.24,0,0,1,1.78,4.7Zm-3.68-2.3a2.71,2.71,0,0,0-.65-1.2,2.35,2.35,0,0,0-1.65-.6,2.16,2.16,0,0,0-1.62.6,2.21,2.21,0,0,0-.6,1.2Z"/><path d="M402.22,38.7a6,6,0,0,0,1.6.83,5.38,5.38,0,0,0,1.55.27,1.68,1.68,0,0,0,1-.3.64.64,0,0,0,.2-.52.6.6,0,0,0-.2-.5,2.43,2.43,0,0,0-1-.4l-1.05-.25a3.64,3.64,0,0,1-1.95-1,2.67,2.67,0,0,1-.73-1.92,4,4,0,0,1,1.05-2.73,5.67,5.67,0,0,1,4-1.35,9.14,9.14,0,0,1,3.58.73l-1.35,2.55a5.56,5.56,0,0,0-2.1-.55,1.71,1.71,0,0,0-.93.22.61.61,0,0,0-.35.55A.66.66,0,0,0,406,35c.37.15.7.15,1.32.32l.73.2a4.74,4.74,0,0,1,1.65.88,3.15,3.15,0,0,1,.85,2.22,3.76,3.76,0,0,1-1.13,2.78,5.84,5.84,0,0,1-4.12,1.39,8.25,8.25,0,0,1-4.5-1.29Z"/><path d="M414.6,24.33a2.25,2.25,0,1,1-2.25,2.25A2.24,2.24,0,0,1,414.6,24.33Zm2,6.9V42.4h-4V31.23Z"/><path d="M423.32,31.23v6.25a2.15,2.15,0,0,0,.6,1.62,2.08,2.08,0,0,0,1.4.43,1.87,1.87,0,0,0,1.43-.48,2.06,2.06,0,0,0,.57-1.57V31.23h4v7a3.82,3.82,0,0,1-1.07,3,6.37,6.37,0,0,1-4.83,1.57c-1.67,0-3.72-.17-5.05-1.59a4,4,0,0,1-1.05-3v-7Z"/><path d="M434.07,31.23h4v1.4A4.22,4.22,0,0,1,441.62,31a4.49,4.49,0,0,1,3.3,1.2A3.85,3.85,0,0,1,446,35.3v7.1h-4V36.75a3.17,3.17,0,0,0-.5-2.17,1.66,1.66,0,0,0-1.27-.48,2.2,2.2,0,0,0-1.48.53,2.56,2.56,0,0,0-.65,1.77v6h-4Z"/><path d="M460.55,37.55h-8.33a2.87,2.87,0,0,0,.7,1.88,2.25,2.25,0,0,0,1.65.55,3.24,3.24,0,0,0,1.3-.3,1.83,1.83,0,0,0,.7-.75h3.83a5.14,5.14,0,0,1-1.35,2.3,6.13,6.13,0,0,1-4.55,1.54,6.36,6.36,0,0,1-4.63-1.69,6.32,6.32,0,0,1,0-8.55,6.27,6.27,0,0,1,4.57-1.63,6.12,6.12,0,0,1,4.3,1.53,6.24,6.24,0,0,1,1.78,4.7Zm-3.68-2.3a2.71,2.71,0,0,0-.65-1.2,2.35,2.35,0,0,0-1.65-.6,2.16,2.16,0,0,0-1.62.6,2.21,2.21,0,0,0-.6,1.2Z"/><path d="M470.15,37.4A5.79,5.79,0,0,0,474,39.1a2.21,2.21,0,0,0,1.68-.57,1.5,1.5,0,0,0,.42-1.05,1.29,1.29,0,0,0-.47-1,6.08,6.08,0,0,0-2.15-.88l-1.13-.35a5.42,5.42,0,0,1-2.4-1.35A4.19,4.19,0,0,1,469,31a5.41,5.41,0,0,1,1.53-4,5.88,5.88,0,0,1,4.27-1.58,11.76,11.76,0,0,1,5.15,1.35l-1.72,3.38A4.39,4.39,0,0,0,475.35,29a2.09,2.09,0,0,0-1.43.5,1.24,1.24,0,0,0-.42.9,1.13,1.13,0,0,0,.22.75,2.79,2.79,0,0,0,1.45.75l1.33.4a6.37,6.37,0,0,1,3,1.65,4,4,0,0,1,1.08,3,5.66,5.66,0,0,1-1.58,4.2,6.46,6.46,0,0,1-4.92,1.69,9.14,9.14,0,0,1-3.28-.54,11.64,11.64,0,0,1-2.52-1.33Z"/><path d="M483.8,37.4a5.79,5.79,0,0,0,3.82,1.7,2.21,2.21,0,0,0,1.68-.57,1.5,1.5,0,0,0,.42-1.05,1.29,1.29,0,0,0-.47-1,6.08,6.08,0,0,0-2.15-.88L486,35.25a5.42,5.42,0,0,1-2.4-1.35,4.19,4.19,0,0,1-.95-2.95,5.41,5.41,0,0,1,1.53-4,5.88,5.88,0,0,1,4.27-1.58,11.76,11.76,0,0,1,5.15,1.35l-1.72,3.38A4.39,4.39,0,0,0,489,29a2.09,2.09,0,0,0-1.43.5,1.24,1.24,0,0,0-.42.9,1.13,1.13,0,0,0,.22.75,2.79,2.79,0,0,0,1.45.75l1.33.4a6.37,6.37,0,0,1,3,1.65,4,4,0,0,1,1.08,3,5.66,5.66,0,0,1-1.58,4.2,6.46,6.46,0,0,1-4.92,1.69,9.14,9.14,0,0,1-3.28-.54A11.64,11.64,0,0,1,482,40.9Z"/><path d="M501.3,32h6.25V25.73h4.35V42.4h-4.35V35.65H501.3V42.4H497V25.73h4.33Z"/><line x1="332.6" y1="141.17" x2="355.48" y2="141.17" style="fill:none;stroke:#91c54f;stroke-miterlimit:10;stroke-width:2.20496356440663px"/><line x1="332.6" y1="135.25" x2="355.48" y2="135.25" style="fill:none;stroke:#91c54f;stroke-miterlimit:10;stroke-width:2.20496356440663px"/><line x1="332.6" y1="129.33" x2="355.48" y2="129.33" style="fill:none;stroke:#91c54f;stroke-miterlimit:10;stroke-width:2.20496356440663px"/><line x1="332.6" y1="123.41" x2="355.48" y2="123.41" style="fill:none;stroke:#91c54f;stroke-miterlimit:10;stroke-width:2.20496356440663px"/><line x1="332.6" y1="117.49" x2="342.04" y2="117.49" style="fill:none;stroke:#91c54f;stroke-miterlimit:10;stroke-width:2.20496356440663px"/><path d="M354.28,115.36a3.2,3.2,0,0,1-3.19-3.19v-6H331.27a3.21,3.21,0,0,0-3.2,3.19V142.9a3.21,3.21,0,0,0,3.2,3.19h25.54A3.21,3.21,0,0,0,360,142.9V115.36Z" style="fill:none;stroke:#91c54f;stroke-miterlimit:10;stroke-width:2.20496356440663px"/><line x1="514.6" y1="141.17" x2="537.48" y2="141.17" style="fill:none;stroke:#91c54f;stroke-miterlimit:10;stroke-width:2.20496356440663px"/><line x1="514.6" y1="135.25" x2="537.48" y2="135.25" style="fill:none;stroke:#91c54f;stroke-miterlimit:10;stroke-width:2.20496356440663px"/><line x1="514.6" y1="129.33" x2="537.48" y2="129.33" style="fill:none;stroke:#91c54f;stroke-miterlimit:10;stroke-width:2.20496356440663px"/><line x1="514.6" y1="123.41" x2="537.48" y2="123.41" style="fill:none;stroke:#91c54f;stroke-miterlimit:10;stroke-width:2.20496356440663px"/><line x1="514.6" y1="117.49" x2="524.04" y2="117.49" style="fill:none;stroke:#91c54f;stroke-miterlimit:10;stroke-width:2.20496356440663px"/><path d="M536.28,115.36a3.2,3.2,0,0,1-3.19-3.19v-6H513.27a3.21,3.21,0,0,0-3.2,3.19V142.9a3.21,3.21,0,0,0,3.2,3.19h25.54A3.21,3.21,0,0,0,542,142.9V115.36Z" style="fill:none;stroke:#91c54f;stroke-miterlimit:10;stroke-width:2.20496356440663px"/><rect x="700.34" y="152.35" width="154.27" height="31.42" rx="6.03" ry="6.03" style="fill:none;stroke:#91c54f;stroke-miterlimit:10;stroke-width:5px"/><circle cx="717.48" cy="163.78" r="2.86" style="fill:#91c54f"/><circle cx="725.67" cy="163.78" r="2.86" style="fill:#91c54f"/><circle cx="717.48" cy="172.35" r="2.86" style="fill:#91c54f"/><circle cx="725.67" cy="172.35" r="2.86" style="fill:#91c54f"/><rect x="800.32" y="165.21" width="44.28" height="4.29" rx="0.82" ry="0.82" style="fill:#91c54f"/><rect x="700.34" y="117.12" width="154.27" height="31.42" rx="6.03" ry="6.03" style="fill:none;stroke:#91c54f;stroke-miterlimit:10;stroke-width:5px"/><circle cx="717.48" cy="128.55" r="2.86" style="fill:#91c54f"/><circle cx="725.67" cy="128.55" r="2.86" style="fill:#91c54f"/><circle cx="717.48" cy="137.12" r="2.86" style="fill:#91c54f"/><circle cx="725.67" cy="137.12" r="2.86" style="fill:#91c54f"/><rect x="800.32" y="129.98" width="44.28" height="4.29" rx="0.82" ry="0.82" style="fill:#91c54f"/><rect x="700.34" y="81.08" width="154.27" height="31.42" rx="6.03" ry="6.03" style="fill:none;stroke:#91c54f;stroke-miterlimit:10;stroke-width:5px"/><circle cx="717.48" cy="92.51" r="2.86" style="fill:#91c54f"/><circle cx="725.67" cy="92.51" r="2.86" style="fill:#91c54f"/><circle cx="717.48" cy="101.08" r="2.86" style="fill:#91c54f"/><circle cx="725.67" cy="101.08" r="2.86" style="fill:#91c54f"/><rect x="800.32" y="93.93" width="44.28" height="4.29" rx="0.82" ry="0.82" style="fill:#91c54f"/><path d="M98.84,235.94a10.42,10.42,0,0,1-3.75.82,9.08,9.08,0,0,1-6.45-2.5,8.75,8.75,0,0,1-2.52-6.07,8.74,8.74,0,0,1,8.82-8.75,10.44,10.44,0,0,1,3.9.85v5.18a4.64,4.64,0,0,0-3.78-1.83,4.22,4.22,0,0,0-3,1.1,4.64,4.64,0,0,0-1.45,3.43,4.27,4.27,0,0,0,4.44,4.39,4.89,4.89,0,0,0,3.78-1.75Z"/><path d="M105.22,218.17v18.22h-4V218.17Z"/><path d="M109.94,218.32a2.25,2.25,0,1,1-2.25,2.25A2.24,2.24,0,0,1,109.94,218.32Zm2,6.9v11.17h-4V225.22Z"/><path d="M126.51,231.54h-8.32a2.83,2.83,0,0,0,.7,1.87,2.25,2.25,0,0,0,1.65.55,3.07,3.07,0,0,0,1.3-.3,1.9,1.9,0,0,0,.7-.75h3.82a4.91,4.91,0,0,1-1.35,2.3,6,6,0,0,1-4.54,1.55,6.33,6.33,0,0,1-4.63-1.7,5.86,5.86,0,0,1-1.65-4.22,5.93,5.93,0,0,1,1.68-4.32,6.27,6.27,0,0,1,4.57-1.63,6.14,6.14,0,0,1,4.3,1.53,6.25,6.25,0,0,1,1.77,4.69Zm-3.67-2.3a2.66,2.66,0,0,0-.65-1.2,2.35,2.35,0,0,0-1.65-.6,2.16,2.16,0,0,0-1.62.6,2.21,2.21,0,0,0-.6,1.2Z"/><path d="M128.82,225.22h4v1.4a4.2,4.2,0,0,1,3.54-1.65,4.49,4.49,0,0,1,3.3,1.2,3.85,3.85,0,0,1,1.05,3.12v7.1h-4v-5.65a3.19,3.19,0,0,0-.5-2.18,1.69,1.69,0,0,0-1.27-.47,2.13,2.13,0,0,0-1.47.53,2.54,2.54,0,0,0-.65,1.77v6h-4Z"/><path d="M147.87,228.49v7.9h-4v-7.9h-1.28v-3.27h1.28v-3.68h4v3.68h2.27v3.27Z"/><path d="M742.18,231.39a5.84,5.84,0,0,0,3.82,1.7,2.21,2.21,0,0,0,1.68-.58,1.48,1.48,0,0,0,.42-1,1.3,1.3,0,0,0-.47-1,6.1,6.1,0,0,0-2.15-.87l-1.13-.35a5.42,5.42,0,0,1-2.4-1.35,4.19,4.19,0,0,1-1-2.95,5.41,5.41,0,0,1,1.53-4,5.88,5.88,0,0,1,4.27-1.58,11.76,11.76,0,0,1,5.15,1.35l-1.72,3.38a4.39,4.39,0,0,0-2.85-1.13,2.09,2.09,0,0,0-1.43.5,1.24,1.24,0,0,0-.42.9,1.13,1.13,0,0,0,.22.75,2.79,2.79,0,0,0,1.45.75l1.33.4a6.37,6.37,0,0,1,3,1.65,3.93,3.93,0,0,1,1.08,3,5.65,5.65,0,0,1-1.58,4.2,6.43,6.43,0,0,1-4.92,1.7,9,9,0,0,1-3.28-.55,11.91,11.91,0,0,1-2.52-1.32Z"/><path d="M766.83,231.54H758.5a2.83,2.83,0,0,0,.7,1.87,2.25,2.25,0,0,0,1.65.55,3.07,3.07,0,0,0,1.3-.3,1.83,1.83,0,0,0,.7-.75h3.83a5.09,5.09,0,0,1-1.35,2.3,6.09,6.09,0,0,1-4.55,1.55,6.33,6.33,0,0,1-4.63-1.7,5.86,5.86,0,0,1-1.65-4.22,5.93,5.93,0,0,1,1.68-4.32,6.27,6.27,0,0,1,4.57-1.63,6.12,6.12,0,0,1,4.3,1.53,6.22,6.22,0,0,1,1.78,4.69Zm-3.68-2.3a2.66,2.66,0,0,0-.65-1.2,2.35,2.35,0,0,0-1.65-.6,2.16,2.16,0,0,0-1.62.6,2.21,2.21,0,0,0-.6,1.2Z"/><path d="M769.13,225.22h4V227a3.6,3.6,0,0,1,1.57-1.55,4.44,4.44,0,0,1,2.08-.45c.1,0,.27,0,.8.05v3.78a3.54,3.54,0,0,0-1.73-.4,2.62,2.62,0,0,0-1.82.59,3.38,3.38,0,0,0-.9,2.55v4.78h-4Z"/><path d="M782.45,225.22l2.68,5.72,2.72-5.72h4.45l-5.82,11.17h-2.73L778,225.22Z"/><path d="M804.9,231.54h-8.32a2.78,2.78,0,0,0,.7,1.87,2.25,2.25,0,0,0,1.65.55,3.07,3.07,0,0,0,1.3-.3,1.9,1.9,0,0,0,.7-.75h3.82a4.91,4.91,0,0,1-1.35,2.3,6.06,6.06,0,0,1-4.55,1.55,6.31,6.31,0,0,1-4.62-1.7,5.82,5.82,0,0,1-1.65-4.22,6,6,0,0,1,1.67-4.32,6.31,6.31,0,0,1,4.58-1.63,6.14,6.14,0,0,1,4.3,1.53,6.25,6.25,0,0,1,1.77,4.69Zm-3.67-2.3a2.66,2.66,0,0,0-.65-1.2,2.36,2.36,0,0,0-1.65-.6,2.18,2.18,0,0,0-1.63.6,2.36,2.36,0,0,0-.6,1.2Z"/><path d="M807.2,225.22h4V227a3.61,3.61,0,0,1,1.58-1.55,4.4,4.4,0,0,1,2.07-.45c.1,0,.28,0,.8.05v3.78a3.52,3.52,0,0,0-1.72-.4,2.64,2.64,0,0,0-1.83.59,3.38,3.38,0,0,0-.9,2.55v4.78h-4Z"/><path d="M341,210.39v13h-4.32v-13h-3.55v-3.67h11.42v3.67Z"/><path d="M346.11,212.22h4V214a3.61,3.61,0,0,1,1.58-1.55,4.4,4.4,0,0,1,2.07-.45c.1,0,.28,0,.8.05v3.78a3.52,3.52,0,0,0-1.72-.4,2.61,2.61,0,0,0-1.83.6,3.37,3.37,0,0,0-.9,2.55v4.77h-4Z"/><path d="M358.34,205.32a2.25,2.25,0,1,1-2.25,2.25A2.24,2.24,0,0,1,358.34,205.32Zm2,6.9v11.17h-4V212.22Z"/><path d="M363.06,212.22h4v1.35a4.29,4.29,0,0,1,3.35-1.55,4.49,4.49,0,0,1,2.15.5,3.42,3.42,0,0,1,1.55,1.6,3.9,3.9,0,0,1,1.53-1.55A4.51,4.51,0,0,1,378,212a4.45,4.45,0,0,1,3.1,1,4.12,4.12,0,0,1,1.05,3.08v7.27h-4v-5.52a3.3,3.3,0,0,0-.58-2.4,1.44,1.44,0,0,0-1-.38,1.64,1.64,0,0,0-1.17.45,2.88,2.88,0,0,0-.72,2.13v5.72h-4v-5.52a3.56,3.56,0,0,0-.53-2.4,1.53,1.53,0,0,0-1.2-.45,1.4,1.4,0,0,0-1.1.4,3.3,3.3,0,0,0-.7,2.45v5.52h-4Z"/><path d="M386.89,205.32a2.25,2.25,0,1,1-2.25,2.25A2.24,2.24,0,0,1,386.89,205.32Zm2,6.9v11.17h-4V212.22Z"/><path d="M396,215.49v7.9h-4v-7.9h-1.28v-3.27H392v-3.68h4v3.68h2.27v3.27Z"/><path d="M411.66,218.54h-8.32a2.82,2.82,0,0,0,.7,1.88,2.25,2.25,0,0,0,1.65.54,3.17,3.17,0,0,0,1.3-.29,2,2,0,0,0,.7-.75h3.82a5.12,5.12,0,0,1-1.35,2.29,6.06,6.06,0,0,1-4.55,1.55,6.31,6.31,0,0,1-4.62-1.7,5.82,5.82,0,0,1-1.65-4.22,6,6,0,0,1,1.67-4.32,6.31,6.31,0,0,1,4.58-1.63,6.14,6.14,0,0,1,4.3,1.53,6.27,6.27,0,0,1,1.77,4.7Zm-3.67-2.3a2.71,2.71,0,0,0-.65-1.2,2.36,2.36,0,0,0-1.65-.6,2.18,2.18,0,0,0-1.63.6,2.36,2.36,0,0,0-.6,1.2Z"/><path d="M414,212.22h4V214a3.61,3.61,0,0,1,1.58-1.55,4.4,4.4,0,0,1,2.07-.45c.1,0,.28,0,.8.05v3.78a3.52,3.52,0,0,0-1.72-.4,2.61,2.61,0,0,0-1.83.6,3.37,3.37,0,0,0-.9,2.55v4.77h-4Z"/><path d="M436,218.54h-8.32a2.87,2.87,0,0,0,.7,1.88,2.25,2.25,0,0,0,1.65.54,3.17,3.17,0,0,0,1.3-.29,1.89,1.89,0,0,0,.7-.75h3.82a5,5,0,0,1-1.34,2.29,6.09,6.09,0,0,1-4.55,1.55,6.33,6.33,0,0,1-4.63-1.7,5.86,5.86,0,0,1-1.65-4.22,5.94,5.94,0,0,1,1.68-4.32,6.27,6.27,0,0,1,4.57-1.63,6.12,6.12,0,0,1,4.3,1.53,6.27,6.27,0,0,1,1.77,4.7Zm-3.67-2.3a2.71,2.71,0,0,0-.65-1.2,2.35,2.35,0,0,0-1.65-.6,2.16,2.16,0,0,0-1.62.6,2.21,2.21,0,0,0-.6,1.2Z"/><path d="M448.46,215.49v7.9h-4v-7.9h-1.4v-3.27h1.4v-1.38a5.61,5.61,0,0,1,1.53-4.37,6.32,6.32,0,0,1,4.4-1.58,6.75,6.75,0,0,1,4.47,1.5,5.1,5.1,0,0,1,1.4,3.75v.58h-4v-.38a2.31,2.31,0,0,0-.5-1.5,2,2,0,0,0-1.4-.5,1.88,1.88,0,0,0-1.37.58,2.28,2.28,0,0,0-.53,1.72v1.58h2.8v3.27Zm7.8-3.27v11.17h-4V212.22Z"/><path d="M459.49,219.69a5.52,5.52,0,0,0,1.6.82,5,5,0,0,0,1.55.28,1.72,1.72,0,0,0,1-.3.63.63,0,0,0,.2-.53.57.57,0,0,0-.2-.49,2.43,2.43,0,0,0-1.05-.4l-1.05-.25a3.64,3.64,0,0,1-1.95-1,2.71,2.71,0,0,1-.72-1.92,4,4,0,0,1,1.05-2.73,5.67,5.67,0,0,1,4-1.35,9.08,9.08,0,0,1,3.57.73l-1.35,2.55a5.51,5.51,0,0,0-2.1-.55,1.67,1.67,0,0,0-.92.22.6.6,0,0,0-.35.55.65.65,0,0,0,.47.63c.38.15.7.15,1.33.32l.72.2a4.57,4.57,0,0,1,1.65.88,3.15,3.15,0,0,1,.85,2.22,3.71,3.71,0,0,1-1.12,2.77,5.81,5.81,0,0,1-4.13,1.4,8.21,8.21,0,0,1-4.5-1.3Zm1.95,4.95,3.75.4-2.55,4.6-2.5-.3Z"/><path d="M471.86,205.32a2.25,2.25,0,1,1-2.25,2.25A2.24,2.24,0,0,1,471.86,205.32Zm2,6.9v11.17h-4V212.22Z"/><path d="M488.43,218.54h-8.32a2.87,2.87,0,0,0,.7,1.88,2.25,2.25,0,0,0,1.65.54,3.17,3.17,0,0,0,1.3-.29,1.89,1.89,0,0,0,.7-.75h3.82a4.94,4.94,0,0,1-1.35,2.29,6,6,0,0,1-4.54,1.55,6.33,6.33,0,0,1-4.63-1.7,5.86,5.86,0,0,1-1.65-4.22,5.94,5.94,0,0,1,1.68-4.32,6.27,6.27,0,0,1,4.57-1.63,6.14,6.14,0,0,1,4.3,1.53,6.27,6.27,0,0,1,1.77,4.7Zm-3.67-2.3a2.71,2.71,0,0,0-.65-1.2,2.35,2.35,0,0,0-1.65-.6,2.16,2.16,0,0,0-1.62.6,2.21,2.21,0,0,0-.6,1.2Z"/><path d="M490.74,212.22h4V214a3.6,3.6,0,0,1,1.57-1.55,4.44,4.44,0,0,1,2.08-.45c.09,0,.27,0,.8.05v3.78a3.57,3.57,0,0,0-1.73-.4,2.59,2.59,0,0,0-1.82.6,3.37,3.37,0,0,0-.9,2.55v4.77h-4Z"/><path d="M510.79,229.11h-4V212.22h4v1.22a4.18,4.18,0,0,1,3.42-1.6,5.55,5.55,0,0,1,4,1.63,6.33,6.33,0,0,1-.1,8.74,5.34,5.34,0,0,1-3.82,1.55,4.75,4.75,0,0,1-3.47-1.45Zm.65-13.12a2.74,2.74,0,0,0-.78,1.85,2.7,2.7,0,0,0,.78,1.78,2.55,2.55,0,0,0,1.8.74,2.41,2.41,0,0,0,1.77-.74,2.68,2.68,0,0,0,.77-1.78A2.73,2.73,0,0,0,515,216a2.42,2.42,0,0,0-1.77-.75A2.56,2.56,0,0,0,511.44,216Z"/><path d="M522.19,212.22h4V214a3.6,3.6,0,0,1,1.57-1.55,4.4,4.4,0,0,1,2.07-.45c.1,0,.28,0,.8.05v3.78a3.52,3.52,0,0,0-1.72-.4,2.59,2.59,0,0,0-1.82.6,3.37,3.37,0,0,0-.9,2.55v4.77h-4Z"/><path d="M534.41,205.32a2.25,2.25,0,1,1-2.25,2.25A2.24,2.24,0,0,1,534.41,205.32Zm2,6.9v11.17h-4V212.22Z"/><path d="M539.14,212.22h4v1.4a4.21,4.21,0,0,1,3.55-1.65,4.48,4.48,0,0,1,3.29,1.2,3.85,3.85,0,0,1,1,3.12v7.1h-4v-5.65a3.22,3.22,0,0,0-.5-2.17,1.7,1.7,0,0,0-1.28-.48,2.18,2.18,0,0,0-1.47.53,2.56,2.56,0,0,0-.65,1.77v6h-4Z"/><path d="M380.71,253.14a6,6,0,0,1-2.77.62,6.14,6.14,0,0,1-4.4-1.7,5.83,5.83,0,0,1-1.73-4.17,6.09,6.09,0,0,1,1.8-4.32,6.45,6.45,0,0,1,4.5-1.7,5.72,5.72,0,0,1,2.6.62v3.35a3.57,3.57,0,0,0-2.07-.72,2.62,2.62,0,0,0-1.95.77,2.74,2.74,0,0,0-.78,1.93,2.88,2.88,0,0,0,.7,1.87,2.73,2.73,0,0,0,2.05.85,3,3,0,0,0,2-.75Z"/><path d="M391.64,242.22h4v11.17h-4v-1.23a4.17,4.17,0,0,1-3.48,1.6,5.35,5.35,0,0,1-4-1.77,5.63,5.63,0,0,1-1.6-4.1,6.17,6.17,0,0,1,1.72-4.47,5.77,5.77,0,0,1,4-1.58,4.45,4.45,0,0,1,3.35,1.45Zm-4.2,3.75a2.51,2.51,0,0,0,0,3.65,2.82,2.82,0,0,0,1.8.74,2.56,2.56,0,0,0,1.8-.77,2.43,2.43,0,0,0,.75-1.8A2.48,2.48,0,0,0,391,246a2.52,2.52,0,0,0-3.55,0Z"/><path d="M398.39,242.22h4v1.4a4.21,4.21,0,0,1,3.55-1.65,4.47,4.47,0,0,1,3.29,1.2,3.85,3.85,0,0,1,1,3.12v7.1h-4v-5.65a3.22,3.22,0,0,0-.5-2.17,1.7,1.7,0,0,0-1.28-.48,2.18,2.18,0,0,0-1.47.53,2.56,2.56,0,0,0-.65,1.77v6h-4Z"/><path d="M421.66,242.22h4v11.17h-4v-1.23a4.15,4.15,0,0,1-3.47,1.6,5.37,5.37,0,0,1-4-1.77,5.67,5.67,0,0,1-1.6-4.1,6.17,6.17,0,0,1,1.73-4.47,5.74,5.74,0,0,1,4-1.58,4.43,4.43,0,0,1,3.35,1.45Zm-4.2,3.75a2.5,2.5,0,0,0,0,3.65,2.78,2.78,0,0,0,1.8.74,2.56,2.56,0,0,0,1.8-.77,2.43,2.43,0,0,0,.75-1.8A2.46,2.46,0,0,0,421,246a2.52,2.52,0,0,0-3.55,0Z"/><path d="M432.41,235.17v18.22h-4V235.17Z"/><path d="M449.41,253.14a6,6,0,0,1-2.77.62,6.14,6.14,0,0,1-4.4-1.7,5.83,5.83,0,0,1-1.73-4.17,6.09,6.09,0,0,1,1.8-4.32,6.45,6.45,0,0,1,4.5-1.7,5.72,5.72,0,0,1,2.6.62v3.35a3.57,3.57,0,0,0-2.07-.72,2.62,2.62,0,0,0-1.95.77,2.74,2.74,0,0,0-.78,1.93,2.88,2.88,0,0,0,.7,1.87,2.73,2.73,0,0,0,2.05.85,3,3,0,0,0,2.05-.75Z"/><path d="M451.69,242.22h4V244a3.6,3.6,0,0,1,1.57-1.55,4.4,4.4,0,0,1,2.07-.45c.1,0,.28,0,.8.05v3.78a3.52,3.52,0,0,0-1.72-.4,2.59,2.59,0,0,0-1.82.6,3.37,3.37,0,0,0-.9,2.55v4.77h-4Z"/><path d="M463.91,235.32a2.25,2.25,0,1,1-2.25,2.25A2.24,2.24,0,0,1,463.91,235.32Zm2,6.9v11.17h-4V242.22Z"/><path d="M472.64,259.11h-4V242.22h4v1.22a4.18,4.18,0,0,1,3.42-1.6,5.55,5.55,0,0,1,4,1.63,6.33,6.33,0,0,1-.1,8.74,5.34,5.34,0,0,1-3.82,1.55,4.75,4.75,0,0,1-3.47-1.45Zm.65-13.12a2.74,2.74,0,0,0-.78,1.85,2.7,2.7,0,0,0,.78,1.78,2.55,2.55,0,0,0,1.8.74,2.41,2.41,0,0,0,1.77-.74,2.68,2.68,0,0,0,.77-1.78,2.73,2.73,0,0,0-.77-1.85,2.42,2.42,0,0,0-1.77-.75A2.56,2.56,0,0,0,473.29,246Z"/><path d="M488.46,245.49v7.9h-4v-7.9h-1.27v-3.27h1.27v-3.68h4v3.68h2.28v3.27Z"/><path d="M500.88,242.22h4v11.17h-4v-1.23a4.15,4.15,0,0,1-3.47,1.6,5.35,5.35,0,0,1-4-1.77,5.63,5.63,0,0,1-1.6-4.1,6.17,6.17,0,0,1,1.72-4.47,5.77,5.77,0,0,1,4-1.58,4.42,4.42,0,0,1,3.34,1.45ZM496.69,246a2.51,2.51,0,0,0,0,3.65,2.82,2.82,0,0,0,1.8.74,2.56,2.56,0,0,0,1.8-.77,2.43,2.43,0,0,0,.75-1.8,2.46,2.46,0,0,0-.78-1.82,2.51,2.51,0,0,0-3.54,0Z"/><path d="M512.06,245.49v7.9h-4v-7.9h-1.27v-3.27h1.27v-3.68h4v3.68h2.27v3.27Z"/></svg>