<svg id="Layer_1" data-name="Layer 1" xmlns="http://www.w3.org/2000/svg" viewBox="0 0 1084 645"><title>Capitolul12</title><rect x="133" y="60.35" width="148" height="89.21" rx="12" ry="12" style="fill:none;stroke:#91c54f;stroke-miterlimit:10;stroke-width:5px"/><rect x="183.18" y="149.05" width="47.64" height="16.22" rx="4.38" ry="4.38" style="fill:#91c54f"/><rect x="152.26" y="163.75" width="109.48" height="22.3" rx="6.03" ry="6.03" style="fill:none;stroke:#91c54f;stroke-miterlimit:10;stroke-width:5px"/><circle cx="164.42" cy="171.86" r="2.03" style="fill:#91c54f"/><circle cx="170.24" cy="171.86" r="2.03" style="fill:#91c54f"/><circle cx="164.42" cy="177.94" r="2.03" style="fill:#91c54f"/><circle cx="170.24" cy="177.94" r="2.03" style="fill:#91c54f"/><rect x="223.22" y="172.87" width="31.42" height="3.04" rx="0.82" ry="0.82" style="fill:none;stroke:#91c54f;stroke-miterlimit:10;stroke-width:5px"/><path d="M193.53,221.43h-6l-1.13,2.79h-4.57l6.4-16.67h4.72l6.27,16.67h-4.62Zm-1.15-3.3-1.87-5.4-1.82,5.4Z"/><path d="M200.74,213.05h4v1.4a4.21,4.21,0,0,1,3.55-1.65,4.52,4.52,0,0,1,3.29,1.2,3.86,3.86,0,0,1,1,3.13v7.09h-4v-5.64a3.19,3.19,0,0,0-.5-2.18,1.65,1.65,0,0,0-1.27-.47,2.17,2.17,0,0,0-1.47.52,2.58,2.58,0,0,0-.65,1.78v6h-4Z"/><path d="M224,213.05h4v11.17h-4V223a4.18,4.18,0,0,1-3.47,1.6,5.37,5.37,0,0,1-4-1.77,5.68,5.68,0,0,1-1.6-4.1,6.2,6.2,0,0,1,1.73-4.48,5.74,5.74,0,0,1,4-1.57,4.4,4.4,0,0,1,3.35,1.45Zm-4.2,3.75a2.63,2.63,0,0,0-.8,1.83,2.56,2.56,0,0,0,.78,1.82,2.79,2.79,0,0,0,1.8.75,2.54,2.54,0,0,0,1.79-.77,2.39,2.39,0,0,0,.75-1.8,2.49,2.49,0,0,0-.77-1.83,2.55,2.55,0,0,0-3.55,0Z"/><rect x="769" y="60.35" width="148" height="89.21" rx="12" ry="12" style="fill:none;stroke:#c13018;stroke-miterlimit:10;stroke-width:5px"/><rect x="819.18" y="149.05" width="47.64" height="16.22" rx="4.38" ry="4.38" style="fill:#c13018"/><rect x="788.26" y="163.75" width="109.48" height="22.3" rx="6.03" ry="6.03" style="fill:none;stroke:#c13018;stroke-miterlimit:10;stroke-width:5px"/><circle cx="800.42" cy="171.86" r="2.03" style="fill:#c13018"/><circle cx="806.24" cy="171.86" r="2.03" style="fill:#c13018"/><circle cx="800.42" cy="177.94" r="2.03" style="fill:#c13018"/><circle cx="806.24" cy="177.94" r="2.03" style="fill:#c13018"/><rect x="859.22" y="172.87" width="31.42" height="3.04" rx="0.82" ry="0.82" style="fill:none;stroke:#c13018;stroke-miterlimit:10;stroke-width:5px"/><path d="M798.51,224.22V207.55H805a4.7,4.7,0,0,1,3.65,1.3,4.55,4.55,0,0,1,1,3.13,4.33,4.33,0,0,1-.47,2.05,2.66,2.66,0,0,1-1.35,1.3,3.68,3.68,0,0,1,3.4,4,4.49,4.49,0,0,1-1.23,3.27,6.23,6.23,0,0,1-4.52,1.57Zm4.33-10.09h.8a2.27,2.27,0,0,0,1.65-.53,1.62,1.62,0,0,0,.4-1.1,1.7,1.7,0,0,0-.4-1.12,2.28,2.28,0,0,0-1.65-.5h-.8Zm0,6.72h1c1.2,0,2.2-.12,2.68-.67a1.64,1.64,0,0,0,.34-1.08,1.7,1.7,0,0,0-.42-1.2c-.52-.52-1.6-.55-2.67-.55h-.9Z"/><path d="M824.83,222.75a7.64,7.64,0,0,1-10,0,5.77,5.77,0,0,1,0-8.22,7.64,7.64,0,0,1,10,0,5.75,5.75,0,0,1,0,8.22Zm-6.77-5.95a2.49,2.49,0,0,0,0,3.6,2.51,2.51,0,0,0,3.58,0,2.44,2.44,0,0,0,.77-1.77,2.72,2.72,0,0,0-.77-1.83,2.59,2.59,0,0,0-3.58,0Z"/><path d="M841.43,213.05v10.47a6,6,0,0,1-1.52,4.63A6.67,6.67,0,0,1,835,230a6.87,6.87,0,0,1-5.23-2,4,4,0,0,1-1.22-2.32H833a1.71,1.71,0,0,0,1.87,1.15,2.41,2.41,0,0,0,1.77-.63,2.65,2.65,0,0,0,.8-2.07V223a4.21,4.21,0,0,1-3.34,1.48,5.6,5.6,0,0,1-4.13-1.57,5.91,5.91,0,0,1-1.55-4.08,6.44,6.44,0,0,1,1.65-4.37,5.61,5.61,0,0,1,4.05-1.7,4.36,4.36,0,0,1,3.32,1.47v-1.15Zm-8.14,3.75a2.5,2.5,0,0,0,0,3.63,2.54,2.54,0,0,0,1.8.72,2.6,2.6,0,0,0,1.79-.75,2.66,2.66,0,0,0,.75-1.8,2.83,2.83,0,0,0-.8-1.82,2.52,2.52,0,0,0-1.77-.73A2.39,2.39,0,0,0,833.29,216.8Z"/><path d="M856.83,224.22h-4V223a4.08,4.08,0,0,1-3.37,1.6,5.36,5.36,0,0,1-3.92-1.55,6.34,6.34,0,0,1,0-8.87,5.72,5.72,0,0,1,4-1.5,4.38,4.38,0,0,1,3.32,1.45V206h4Zm-4.72-3.69a2.72,2.72,0,0,0,.85-1.9,2.9,2.9,0,0,0-.75-1.8,2.42,2.42,0,0,0-1.82-.75,2.46,2.46,0,0,0-1.78.72,2.74,2.74,0,0,0-.77,1.9,2.52,2.52,0,0,0,.77,1.75,2.48,2.48,0,0,0,1.78.75A2.73,2.73,0,0,0,852.11,220.53Z"/><path d="M868.24,213.05h4v11.17h-4V223a4.2,4.2,0,0,1-3.48,1.6,5.35,5.35,0,0,1-4-1.77,5.64,5.64,0,0,1-1.6-4.1,6.19,6.19,0,0,1,1.72-4.48,5.76,5.76,0,0,1,4-1.57,4.41,4.41,0,0,1,3.35,1.45ZM864,216.8a2.63,2.63,0,0,0-.8,1.83,2.55,2.55,0,0,0,.77,1.82,2.83,2.83,0,0,0,1.8.75,2.56,2.56,0,0,0,1.8-.77,2.43,2.43,0,0,0,.75-1.8,2.49,2.49,0,0,0-.77-1.83,2.57,2.57,0,0,0-1.8-.72A2.54,2.54,0,0,0,864,216.8Z"/><path d="M875,213.05h4v1.4a4.21,4.21,0,0,1,3.55-1.65,4.51,4.51,0,0,1,3.29,1.2,3.82,3.82,0,0,1,1,3.13v7.09h-4v-5.64a3.25,3.25,0,0,0-.5-2.18,1.69,1.69,0,0,0-1.28-.47,2.17,2.17,0,0,0-1.47.52,2.58,2.58,0,0,0-.65,1.78v6h-4Z"/><rect x="866" y="392.35" width="148" height="89.21" rx="12" ry="12" style="fill:none;stroke:#c13018;stroke-miterlimit:10;stroke-width:5px"/><rect x="916.18" y="481.05" width="47.64" height="16.22" rx="4.38" ry="4.38" style="fill:#c13018"/><rect x="885.26" y="495.75" width="109.48" height="22.3" rx="6.03" ry="6.03" style="fill:none;stroke:#c13018;stroke-miterlimit:10;stroke-width:5px"/><circle cx="897.42" cy="503.86" r="2.03" style="fill:#c13018"/><circle cx="903.24" cy="503.86" r="2.03" style="fill:#c13018"/><circle cx="897.42" cy="509.94" r="2.03" style="fill:#c13018"/><circle cx="903.24" cy="509.94" r="2.03" style="fill:#c13018"/><rect x="956.22" y="504.87" width="31.42" height="3.04" rx="0.82" ry="0.82" style="fill:none;stroke:#c13018;stroke-miterlimit:10;stroke-width:5px"/><path d="M904.51,557.39V540.72H911a4.66,4.66,0,0,1,3.65,1.3,4.52,4.52,0,0,1,1,3.12,4.3,4.3,0,0,1-.47,2.05,2.62,2.62,0,0,1-1.35,1.3,3.68,3.68,0,0,1,3.4,4,4.49,4.49,0,0,1-1.23,3.27,6.23,6.23,0,0,1-4.52,1.58Zm4.33-10.1h.8a2.3,2.3,0,0,0,1.65-.52,1.66,1.66,0,0,0,.4-1.1,1.73,1.73,0,0,0-.4-1.13,2.33,2.33,0,0,0-1.65-.5h-.8Zm0,6.72h1c1.2,0,2.2-.12,2.68-.67a1.64,1.64,0,0,0,.34-1.08,1.68,1.68,0,0,0-.42-1.19c-.52-.53-1.6-.55-2.67-.55h-.9Z"/><path d="M930.83,555.91a7.64,7.64,0,0,1-10,0,5.77,5.77,0,0,1,0-8.22,7.64,7.64,0,0,1,10,0,5.75,5.75,0,0,1,0,8.22ZM924.06,550a2.54,2.54,0,1,0,3.58,3.59,2.44,2.44,0,0,0,.77-1.77,2.7,2.7,0,0,0-.77-1.82,2.56,2.56,0,0,0-3.58,0Z"/><path d="M947.43,546.22v10.47a6,6,0,0,1-1.52,4.62,6.67,6.67,0,0,1-4.92,1.8,6.86,6.86,0,0,1-5.23-2,4.07,4.07,0,0,1-1.22-2.33H939a1.71,1.71,0,0,0,1.87,1.15,2.4,2.4,0,0,0,1.77-.62,2.69,2.69,0,0,0,.8-2.08v-1.12a4.23,4.23,0,0,1-3.34,1.47A5.6,5.6,0,0,1,936,556a5.91,5.91,0,0,1-1.55-4.08,6.48,6.48,0,0,1,1.65-4.37,5.65,5.65,0,0,1,4.05-1.7,4.34,4.34,0,0,1,3.32,1.48v-1.15ZM939.29,550a2.49,2.49,0,0,0,0,3.62,2.54,2.54,0,0,0,1.8.72,2.6,2.6,0,0,0,1.79-.75,2.66,2.66,0,0,0,.75-1.8,2.85,2.85,0,0,0-.8-1.82,2.51,2.51,0,0,0-1.77-.72A2.35,2.35,0,0,0,939.29,550Z"/><path d="M962.83,557.39h-4v-1.23a4.08,4.08,0,0,1-3.37,1.6,5.32,5.32,0,0,1-3.92-1.55,6.34,6.34,0,0,1,0-8.87,5.72,5.72,0,0,1,4-1.5,4.41,4.41,0,0,1,3.32,1.45v-8.12h4Zm-4.72-3.7a2.72,2.72,0,0,0,.85-1.9,3,3,0,0,0-.75-1.8,2.56,2.56,0,0,0-3.6,0,2.74,2.74,0,0,0-.77,1.9,2.52,2.52,0,0,0,.77,1.74,2.48,2.48,0,0,0,1.78.75A2.73,2.73,0,0,0,958.11,553.69Z"/><path d="M974.24,546.22h4v11.17h-4v-1.23a4.17,4.17,0,0,1-3.48,1.6,5.35,5.35,0,0,1-4-1.77,5.63,5.63,0,0,1-1.6-4.1,6.17,6.17,0,0,1,1.72-4.47,5.77,5.77,0,0,1,4-1.58,4.45,4.45,0,0,1,3.35,1.45ZM970,550a2.59,2.59,0,0,0-.8,1.82,2.55,2.55,0,0,0,.77,1.82,2.83,2.83,0,0,0,1.8.75,2.56,2.56,0,0,0,1.8-.77,2.43,2.43,0,0,0,.75-1.8,2.48,2.48,0,0,0-.77-1.82,2.52,2.52,0,0,0-3.55,0Z"/><path d="M981,546.22h4v1.4a4.21,4.21,0,0,1,3.55-1.65,4.47,4.47,0,0,1,3.29,1.2,3.81,3.81,0,0,1,1,3.12v7.1h-4v-5.65a3.22,3.22,0,0,0-.5-2.17,1.7,1.7,0,0,0-1.28-.48,2.18,2.18,0,0,0-1.47.53,2.54,2.54,0,0,0-.65,1.77v6h-4Z"/><polygon points="488.47 140.55 553.95 140.55 553.95 149.99 574 129.94 553.95 109.88 553.95 119.32 488.47 119.32 488.47 140.55" style="fill:none;stroke:#3a5c84;stroke-miterlimit:10;stroke-width:5px"/><ellipse cx="368.49" cy="127.5" rx="34.49" ry="57.89" style="fill:none;stroke:#3a5c84;stroke-miterlimit:10;stroke-width:3.69523823261261px"/><ellipse cx="687.51" cy="127.5" rx="34.49" ry="57.89" style="fill:none;stroke:#3a5c84;stroke-miterlimit:10;stroke-width:3.69523823261261px"/><line x1="368.49" y1="69.61" x2="687.51" y2="69.61" style="fill:none;stroke:#3a5c84;stroke-miterlimit:10;stroke-width:3.69523823261261px"/><line x1="369.1" y1="185.39" x2="688.13" y2="185.39" style="fill:none;stroke:#3a5c84;stroke-miterlimit:10;stroke-width:3.69523823261261px"/><path d="M463.55,38.4a5.79,5.79,0,0,0,3.82,1.7,2.21,2.21,0,0,0,1.68-.57,1.5,1.5,0,0,0,.42-1.05,1.29,1.29,0,0,0-.47-1,6.08,6.08,0,0,0-2.15-.88l-1.13-.35a5.42,5.42,0,0,1-2.4-1.35,4.18,4.18,0,0,1-.94-2.95,5.41,5.41,0,0,1,1.52-4,5.88,5.88,0,0,1,4.27-1.58,11.76,11.76,0,0,1,5.15,1.35l-1.72,3.38A4.39,4.39,0,0,0,468.75,30a2.09,2.09,0,0,0-1.43.5,1.24,1.24,0,0,0-.42.9,1.13,1.13,0,0,0,.22.75,2.79,2.79,0,0,0,1.45.75l1.33.4a6.37,6.37,0,0,1,3,1.65,4,4,0,0,1,1.08,3,5.66,5.66,0,0,1-1.58,4.2,6.47,6.47,0,0,1-4.92,1.7,9,9,0,0,1-3.28-.56,11.41,11.41,0,0,1-2.52-1.32Z"/><path d="M488.2,38.55h-8.33a2.87,2.87,0,0,0,.7,1.88,2.25,2.25,0,0,0,1.65.55,3.24,3.24,0,0,0,1.3-.3,1.83,1.83,0,0,0,.7-.75h3.83a5.07,5.07,0,0,1-1.35,2.29,6,6,0,0,1-4.55,1.56,6.37,6.37,0,0,1-4.63-1.7,6.35,6.35,0,0,1,0-8.55,6.27,6.27,0,0,1,4.57-1.63,6.12,6.12,0,0,1,4.3,1.53,6.24,6.24,0,0,1,1.78,4.7Zm-3.68-2.3a2.71,2.71,0,0,0-.65-1.2,2.35,2.35,0,0,0-1.65-.6,2.16,2.16,0,0,0-1.62.6,2.21,2.21,0,0,0-.6,1.2Z"/><path d="M491.22,39.7a6,6,0,0,0,1.6.83,5.38,5.38,0,0,0,1.55.27,1.68,1.68,0,0,0,1-.3.64.64,0,0,0,.2-.52.6.6,0,0,0-.2-.5,2.43,2.43,0,0,0-1-.4l-1.05-.25a3.64,3.64,0,0,1-1.95-1,2.67,2.67,0,0,1-.72-1.92,4,4,0,0,1,1-2.73,5.67,5.67,0,0,1,4-1.35,9.14,9.14,0,0,1,3.58.73l-1.35,2.55a5.56,5.56,0,0,0-2.1-.55,1.71,1.71,0,0,0-.93.22.61.61,0,0,0-.35.55A.66.66,0,0,0,495,36c.37.15.7.15,1.32.32l.73.2a4.74,4.74,0,0,1,1.65.88,3.15,3.15,0,0,1,.85,2.22,3.76,3.76,0,0,1-1.13,2.78,5.85,5.85,0,0,1-4.12,1.4,8.22,8.22,0,0,1-4.5-1.31Z"/><path d="M503.6,25.33a2.25,2.25,0,1,1-2.25,2.25A2.24,2.24,0,0,1,503.6,25.33Zm2,6.9V43.4h-4V32.23Z"/><path d="M512.32,32.23v6.25a2.15,2.15,0,0,0,.6,1.62,2.08,2.08,0,0,0,1.4.43,1.87,1.87,0,0,0,1.43-.48,2.06,2.06,0,0,0,.57-1.57V32.23h4v7a3.82,3.82,0,0,1-1.07,3,6.38,6.38,0,0,1-4.83,1.58c-1.67,0-3.72-.18-5-1.6a4,4,0,0,1-1.05-3v-7Z"/><path d="M523.07,32.23h4v1.4A4.22,4.22,0,0,1,530.62,32a4.49,4.49,0,0,1,3.3,1.2A3.85,3.85,0,0,1,535,36.3v7.1h-4V37.75a3.17,3.17,0,0,0-.5-2.17,1.66,1.66,0,0,0-1.27-.48,2.2,2.2,0,0,0-1.48.53,2.56,2.56,0,0,0-.65,1.77v6h-4Z"/><path d="M549.55,38.55h-8.33a2.87,2.87,0,0,0,.7,1.88,2.25,2.25,0,0,0,1.65.55,3.24,3.24,0,0,0,1.3-.3,1.83,1.83,0,0,0,.7-.75h3.83a5.07,5.07,0,0,1-1.35,2.29,6,6,0,0,1-4.55,1.56,6.37,6.37,0,0,1-4.63-1.7,6.32,6.32,0,0,1,0-8.55,6.27,6.27,0,0,1,4.57-1.63,6.12,6.12,0,0,1,4.3,1.53,6.24,6.24,0,0,1,1.78,4.7Zm-3.68-2.3a2.71,2.71,0,0,0-.65-1.2,2.35,2.35,0,0,0-1.65-.6,2.16,2.16,0,0,0-1.62.6,2.21,2.21,0,0,0-.6,1.2Z"/><path d="M559.15,38.4A5.79,5.79,0,0,0,563,40.1a2.21,2.21,0,0,0,1.68-.57,1.5,1.5,0,0,0,.42-1.05,1.29,1.29,0,0,0-.47-1,6.08,6.08,0,0,0-2.15-.88l-1.13-.35a5.42,5.42,0,0,1-2.4-1.35A4.19,4.19,0,0,1,558,32a5.41,5.41,0,0,1,1.53-4,5.88,5.88,0,0,1,4.27-1.58,11.76,11.76,0,0,1,5.15,1.35l-1.72,3.38A4.39,4.39,0,0,0,564.35,30a2.09,2.09,0,0,0-1.43.5,1.24,1.24,0,0,0-.42.9,1.13,1.13,0,0,0,.22.75,2.79,2.79,0,0,0,1.45.75l1.33.4a6.37,6.37,0,0,1,3,1.65,4,4,0,0,1,1.08,3,5.66,5.66,0,0,1-1.58,4.2,6.47,6.47,0,0,1-4.92,1.7,9,9,0,0,1-3.28-.56,11.41,11.41,0,0,1-2.52-1.32Z"/><path d="M572.8,38.4a5.79,5.79,0,0,0,3.82,1.7,2.21,2.21,0,0,0,1.68-.57,1.5,1.5,0,0,0,.42-1.05,1.29,1.29,0,0,0-.47-1,6.08,6.08,0,0,0-2.15-.88L575,36.25a5.42,5.42,0,0,1-2.4-1.35,4.19,4.19,0,0,1-1-2.95,5.41,5.41,0,0,1,1.53-4,5.88,5.88,0,0,1,4.27-1.58,11.76,11.76,0,0,1,5.15,1.35l-1.72,3.38A4.39,4.39,0,0,0,578,30a2.09,2.09,0,0,0-1.43.5,1.24,1.24,0,0,0-.42.9,1.13,1.13,0,0,0,.22.75,2.79,2.79,0,0,0,1.45.75l1.33.4a6.37,6.37,0,0,1,3,1.65,4,4,0,0,1,1.08,3,5.66,5.66,0,0,1-1.58,4.2,6.47,6.47,0,0,1-4.92,1.7,9,9,0,0,1-3.28-.56A11.41,11.41,0,0,1,571,41.9Z"/><path d="M590.3,33h6.25V26.73h4.34V43.4h-4.34V36.65H590.3V43.4H586V26.73h4.33Z"/><path d="M384.5,211.39h-2.37v-3.67h6.7v16.67H384.5Z"/><path d="M394.08,224.09a2.55,2.55,0,0,1-.78-1.83,2.65,2.65,0,0,1,2.6-2.59,2.6,2.6,0,0,1,1.85.79,2.4,2.4,0,0,1,.73,1.8,2.42,2.42,0,0,1-.75,1.83,2.59,2.59,0,0,1-1.83.77A2.52,2.52,0,0,1,394.08,224.09Z"/><path d="M411.58,207.72v16.67h-4.33V207.72Z"/><path d="M414.7,213.22h4v1.4a4.22,4.22,0,0,1,3.55-1.65,4.49,4.49,0,0,1,3.3,1.2,3.85,3.85,0,0,1,1.05,3.12v7.1h-4v-5.65a3.17,3.17,0,0,0-.5-2.17,1.66,1.66,0,0,0-1.27-.48,2.2,2.2,0,0,0-1.48.53,2.54,2.54,0,0,0-.65,1.77v6h-4Z"/><path d="M437.78,224.14a6,6,0,0,1-2.78.62,6.16,6.16,0,0,1-4.4-1.7,5.82,5.82,0,0,1-1.72-4.17,6.05,6.05,0,0,1,1.8-4.32,6.45,6.45,0,0,1,4.5-1.7,5.72,5.72,0,0,1,2.6.62v3.35a3.63,3.63,0,0,0-2.08-.72,2.62,2.62,0,0,0-1.95.77,2.72,2.72,0,0,0-.77,1.92,2.86,2.86,0,0,0,.7,1.88,2.7,2.7,0,0,0,2.05.85,3.07,3.07,0,0,0,2-.75Z"/><path d="M451.9,219.54h-8.32a2.78,2.78,0,0,0,.7,1.87,2.25,2.25,0,0,0,1.65.55,3.07,3.07,0,0,0,1.3-.3,1.9,1.9,0,0,0,.7-.75h3.82a4.91,4.91,0,0,1-1.35,2.3,6.06,6.06,0,0,1-4.55,1.55,6.31,6.31,0,0,1-4.62-1.7,5.82,5.82,0,0,1-1.65-4.22,6,6,0,0,1,1.67-4.32,6.31,6.31,0,0,1,4.58-1.63,6.14,6.14,0,0,1,4.3,1.53,6.27,6.27,0,0,1,1.77,4.7Zm-3.67-2.3a2.71,2.71,0,0,0-.65-1.2,2.36,2.36,0,0,0-1.65-.6,2.18,2.18,0,0,0-1.63.6,2.36,2.36,0,0,0-.6,1.2Z"/><path d="M454.2,213.22h4V215a3.61,3.61,0,0,1,1.58-1.55,4.4,4.4,0,0,1,2.07-.45c.1,0,.28,0,.8.05v3.78a3.52,3.52,0,0,0-1.72-.4,2.61,2.61,0,0,0-1.83.6,3.37,3.37,0,0,0-.9,2.55v4.77h-4Z"/><path d="M472.38,224.14a6,6,0,0,1-2.78.62,6.16,6.16,0,0,1-4.4-1.7,5.82,5.82,0,0,1-1.72-4.17,6.05,6.05,0,0,1,1.8-4.32,6.45,6.45,0,0,1,4.5-1.7,5.72,5.72,0,0,1,2.6.62v3.35a3.63,3.63,0,0,0-2.08-.72,2.62,2.62,0,0,0-1.95.77,2.72,2.72,0,0,0-.77,1.92,2.86,2.86,0,0,0,.7,1.88,2.7,2.7,0,0,0,2.05.85,3.07,3.07,0,0,0,2.05-.75Z"/><path d="M483.3,213.22h4v11.17h-4v-1.23a4.15,4.15,0,0,1-3.47,1.6,5.37,5.37,0,0,1-4-1.77,5.67,5.67,0,0,1-1.6-4.1,6.17,6.17,0,0,1,1.73-4.47,5.74,5.74,0,0,1,4-1.58,4.43,4.43,0,0,1,3.35,1.45ZM479.1,217a2.51,2.51,0,0,0,0,3.66,2.83,2.83,0,0,0,1.8.74,2.56,2.56,0,0,0,1.8-.77,2.43,2.43,0,0,0,.75-1.8,2.49,2.49,0,0,0-.78-1.83,2.55,2.55,0,0,0-3.55,0Z"/><path d="M490.05,213.22h4V215a3.61,3.61,0,0,1,1.58-1.55,4.4,4.4,0,0,1,2.07-.45c.1,0,.28,0,.8.05v3.78a3.52,3.52,0,0,0-1.72-.4,2.61,2.61,0,0,0-1.83.6,3.37,3.37,0,0,0-.9,2.55v4.77h-4Z"/><path d="M512.13,219.54H503.8a2.83,2.83,0,0,0,.7,1.87,2.25,2.25,0,0,0,1.65.55,3.07,3.07,0,0,0,1.3-.3,1.83,1.83,0,0,0,.7-.75H512a5,5,0,0,1-1.34,2.3,6.09,6.09,0,0,1-4.55,1.55,6.33,6.33,0,0,1-4.63-1.7,5.86,5.86,0,0,1-1.65-4.22,5.93,5.93,0,0,1,1.68-4.32,6.27,6.27,0,0,1,4.57-1.63,6.12,6.12,0,0,1,4.3,1.53,6.24,6.24,0,0,1,1.78,4.7Zm-3.68-2.3a2.71,2.71,0,0,0-.65-1.2,2.35,2.35,0,0,0-1.65-.6,2.16,2.16,0,0,0-1.62.6,2.21,2.21,0,0,0-.6,1.2Z"/><path d="M528.9,213.22h4v11.17h-4v-1.23a4.15,4.15,0,0,1-3.47,1.6,5.37,5.37,0,0,1-4-1.77,5.67,5.67,0,0,1-1.6-4.1,6.17,6.17,0,0,1,1.73-4.47,5.74,5.74,0,0,1,4-1.58,4.43,4.43,0,0,1,3.35,1.45ZM524.7,217a2.51,2.51,0,0,0,0,3.66,2.83,2.83,0,0,0,1.8.74,2.56,2.56,0,0,0,1.8-.77,2.43,2.43,0,0,0,.75-1.8,2.49,2.49,0,0,0-.78-1.83,2.55,2.55,0,0,0-3.55,0Z"/><path d="M539.65,213.22v6.24a2.17,2.17,0,0,0,.6,1.63,2.07,2.07,0,0,0,1.4.42,1.9,1.9,0,0,0,1.43-.47,2.08,2.08,0,0,0,.57-1.58v-6.24h4v7a3.85,3.85,0,0,1-1.08,3,6.37,6.37,0,0,1-4.82,1.57c-1.67,0-3.72-.17-5-1.6a4,4,0,0,1-1.05-3v-7Z"/><path d="M554.83,216.49v7.9h-4v-7.9h-1.28v-3.27h1.28v-3.68h4v3.68h2.27v3.27Z"/><path d="M570.45,219.54h-8.32a2.78,2.78,0,0,0,.7,1.87,2.25,2.25,0,0,0,1.65.55,3.07,3.07,0,0,0,1.3-.3,1.81,1.81,0,0,0,.69-.75h3.83a5,5,0,0,1-1.35,2.3,6.06,6.06,0,0,1-4.55,1.55,6.31,6.31,0,0,1-4.62-1.7,5.82,5.82,0,0,1-1.65-4.22,6,6,0,0,1,1.67-4.32,6.31,6.31,0,0,1,4.58-1.63,6.1,6.1,0,0,1,4.29,1.53,6.24,6.24,0,0,1,1.78,4.7Zm-3.67-2.3a2.71,2.71,0,0,0-.65-1.2,2.36,2.36,0,0,0-1.65-.6,2.18,2.18,0,0,0-1.63.6,2.36,2.36,0,0,0-.6,1.2Z"/><path d="M572.75,213.22h4v1.4A4.22,4.22,0,0,1,580.3,213a4.51,4.51,0,0,1,3.3,1.2,3.85,3.85,0,0,1,1,3.12v7.1h-4v-5.65a3.17,3.17,0,0,0-.5-2.17,1.66,1.66,0,0,0-1.27-.48,2.2,2.2,0,0,0-1.48.53,2.54,2.54,0,0,0-.65,1.77v6h-4Z"/><path d="M591.8,216.49v7.9h-4v-7.9h-1.27v-3.27h1.27v-3.68h4v3.68h2.28v3.27Z"/><path d="M597.58,206.32a2.25,2.25,0,1,1-2.25,2.25A2.24,2.24,0,0,1,597.58,206.32Zm2,6.9v11.17h-4V213.22Z"/><path d="M606.6,216.49v7.9h-4v-7.9h-1.4v-3.27h1.4v-1.38a5.61,5.61,0,0,1,1.53-4.37,6.32,6.32,0,0,1,4.4-1.58,6.75,6.75,0,0,1,4.47,1.5,5.1,5.1,0,0,1,1.4,3.75v.58h-4v-.38a2.31,2.31,0,0,0-.5-1.5,2,2,0,0,0-1.4-.5,1.88,1.88,0,0,0-1.37.58,2.28,2.28,0,0,0-.53,1.72v1.58h2.8v3.27Zm7.8-3.27v11.17h-4V213.22Z"/><path d="M625.35,224.14a6,6,0,0,1-2.77.62,6.14,6.14,0,0,1-4.4-1.7,5.83,5.83,0,0,1-1.73-4.17,6.09,6.09,0,0,1,1.8-4.32,6.45,6.45,0,0,1,4.5-1.7,5.72,5.72,0,0,1,2.6.62v3.35a3.57,3.57,0,0,0-2.07-.72,2.62,2.62,0,0,0-1.95.77,2.73,2.73,0,0,0-.78,1.92,2.91,2.91,0,0,0,.7,1.88,2.73,2.73,0,0,0,2,.85,3,3,0,0,0,2.05-.75Z"/><path d="M636.27,213.22h4v11.17h-4v-1.23a4.15,4.15,0,0,1-3.47,1.6,5.35,5.35,0,0,1-4-1.77,5.63,5.63,0,0,1-1.6-4.1,6.17,6.17,0,0,1,1.72-4.47,5.77,5.77,0,0,1,4-1.58,4.42,4.42,0,0,1,3.34,1.45ZM632.08,217a2.63,2.63,0,0,0-.8,1.83,2.59,2.59,0,0,0,.77,1.83,2.88,2.88,0,0,0,1.8.74,2.56,2.56,0,0,0,1.8-.77,2.43,2.43,0,0,0,.75-1.8,2.52,2.52,0,0,0-.77-1.83,2.63,2.63,0,0,0-1.8-.72A2.59,2.59,0,0,0,632.08,217Z"/><path d="M643,213.22h4V215a3.6,3.6,0,0,1,1.57-1.55,4.4,4.4,0,0,1,2.07-.45c.1,0,.28,0,.8.05v3.78a3.52,3.52,0,0,0-1.72-.4,2.57,2.57,0,0,0-1.82.6,3.37,3.37,0,0,0-.9,2.55v4.77h-4Z"/><path d="M665.1,219.54h-8.32a2.78,2.78,0,0,0,.7,1.87,2.25,2.25,0,0,0,1.65.55,3.07,3.07,0,0,0,1.29-.3,1.91,1.91,0,0,0,.71-.75H665a5.09,5.09,0,0,1-1.35,2.3,6.09,6.09,0,0,1-4.55,1.55,6.31,6.31,0,0,1-4.62-1.7,5.82,5.82,0,0,1-1.65-4.22,6,6,0,0,1,1.67-4.32,6.31,6.31,0,0,1,4.58-1.63,6.11,6.11,0,0,1,4.29,1.53,6.24,6.24,0,0,1,1.78,4.7Zm-3.68-2.3a2.79,2.79,0,0,0-.64-1.2,2.36,2.36,0,0,0-1.65-.6,2.18,2.18,0,0,0-1.63.6,2.36,2.36,0,0,0-.6,1.2Z"/><path d="M658,552.39a5.84,5.84,0,0,0,3.82,1.7,2.21,2.21,0,0,0,1.68-.58,1.48,1.48,0,0,0,.42-1,1.32,1.32,0,0,0-.47-1,6.3,6.3,0,0,0-2.15-.87l-1.13-.35a5.42,5.42,0,0,1-2.4-1.35,4.19,4.19,0,0,1-1-2.95,5.41,5.41,0,0,1,1.53-4,5.88,5.88,0,0,1,4.27-1.58,11.76,11.76,0,0,1,5.15,1.35L666,545.07a4.39,4.39,0,0,0-2.85-1.13,2.09,2.09,0,0,0-1.43.5,1.24,1.24,0,0,0-.42.9,1.13,1.13,0,0,0,.22.75,2.79,2.79,0,0,0,1.45.75l1.33.4a6.37,6.37,0,0,1,3,1.65,3.94,3.94,0,0,1,1.08,3,5.64,5.64,0,0,1-1.58,4.19,6.43,6.43,0,0,1-4.92,1.7,9,9,0,0,1-3.28-.55,11.91,11.91,0,0,1-2.52-1.32Z"/><path d="M682.63,552.54H674.3a2.83,2.83,0,0,0,.7,1.87,2.25,2.25,0,0,0,1.65.55,3.07,3.07,0,0,0,1.3-.3,1.83,1.83,0,0,0,.7-.75h3.83a5.09,5.09,0,0,1-1.35,2.3,6.09,6.09,0,0,1-4.55,1.55,6.33,6.33,0,0,1-4.63-1.7,5.86,5.86,0,0,1-1.65-4.22,5.93,5.93,0,0,1,1.68-4.32,6.27,6.27,0,0,1,4.57-1.63,6.12,6.12,0,0,1,4.3,1.53,6.24,6.24,0,0,1,1.78,4.7Zm-3.68-2.3a2.71,2.71,0,0,0-.65-1.2,2.35,2.35,0,0,0-1.65-.6,2.16,2.16,0,0,0-1.62.6,2.21,2.21,0,0,0-.6,1.2Z"/><path d="M685.65,553.69a5.64,5.64,0,0,0,1.6.82,5.09,5.09,0,0,0,1.55.28,1.75,1.75,0,0,0,1-.3.67.67,0,0,0,.2-.53.63.63,0,0,0-.2-.5,2.56,2.56,0,0,0-1.05-.4l-1-.25a3.55,3.55,0,0,1-2-1,2.67,2.67,0,0,1-.73-1.92,4,4,0,0,1,1.05-2.73,5.67,5.67,0,0,1,4-1.35,9.14,9.14,0,0,1,3.58.73l-1.35,2.55a5.56,5.56,0,0,0-2.1-.55,1.71,1.71,0,0,0-.93.22.61.61,0,0,0-.35.55.64.64,0,0,0,.48.62,11.91,11.91,0,0,0,1.32.33l.73.2a4.74,4.74,0,0,1,1.65.88,3.13,3.13,0,0,1,.85,2.22,3.71,3.71,0,0,1-1.13,2.77,5.81,5.81,0,0,1-4.12,1.4,8.19,8.19,0,0,1-4.5-1.3Z"/><path d="M698,539.32a2.25,2.25,0,1,1-2.25,2.25A2.24,2.24,0,0,1,698,539.32Zm2,6.9v11.17h-4V546.22Z"/><path d="M706.75,546.22v6.24a2.17,2.17,0,0,0,.6,1.63,2.07,2.07,0,0,0,1.4.42,1.9,1.9,0,0,0,1.43-.47,2.08,2.08,0,0,0,.57-1.58v-6.24h4v7a3.84,3.84,0,0,1-1.07,3,6.41,6.41,0,0,1-4.83,1.57c-1.67,0-3.72-.17-5.05-1.6a4,4,0,0,1-1-3v-7Z"/><path d="M717.5,546.22h4v1.4a4.22,4.22,0,0,1,3.55-1.65,4.49,4.49,0,0,1,3.3,1.2,3.85,3.85,0,0,1,1,3.12v7.1h-4v-5.65a3.17,3.17,0,0,0-.5-2.17,1.66,1.66,0,0,0-1.27-.48,2.2,2.2,0,0,0-1.48.53,2.54,2.54,0,0,0-.65,1.77v6h-4Z"/><path d="M744,552.54h-8.32a2.83,2.83,0,0,0,.7,1.87A2.25,2.25,0,0,0,738,555a3.07,3.07,0,0,0,1.3-.3,1.83,1.83,0,0,0,.7-.75h3.83a5.09,5.09,0,0,1-1.35,2.3,6.09,6.09,0,0,1-4.55,1.55,6.33,6.33,0,0,1-4.63-1.7,5.86,5.86,0,0,1-1.65-4.22,5.93,5.93,0,0,1,1.68-4.32,6.27,6.27,0,0,1,4.57-1.63,6.12,6.12,0,0,1,4.3,1.53,6.23,6.23,0,0,1,1.77,4.7Zm-3.67-2.3a2.71,2.71,0,0,0-.65-1.2,2.35,2.35,0,0,0-1.65-.6,2.16,2.16,0,0,0-1.62.6,2.21,2.21,0,0,0-.6,1.2Z"/><path d="M752.83,553.69a5.52,5.52,0,0,0,1.6.82,5,5,0,0,0,1.55.28,1.72,1.72,0,0,0,1-.3.64.64,0,0,0,.2-.53.59.59,0,0,0-.2-.5,2.56,2.56,0,0,0-1-.4l-1.05-.25a3.55,3.55,0,0,1-1.95-1,2.71,2.71,0,0,1-.72-1.92,4,4,0,0,1,1-2.73,5.67,5.67,0,0,1,4-1.35,9.08,9.08,0,0,1,3.57.73l-1.35,2.55a5.51,5.51,0,0,0-2.1-.55,1.67,1.67,0,0,0-.92.22.6.6,0,0,0-.35.55.63.63,0,0,0,.47.62,12.18,12.18,0,0,0,1.33.33l.72.2a4.57,4.57,0,0,1,1.65.88,3.13,3.13,0,0,1,.85,2.22,3.71,3.71,0,0,1-1.12,2.77,5.81,5.81,0,0,1-4.13,1.4,8.21,8.21,0,0,1-4.5-1.3Z"/><path d="M763.2,539.17h4v8.45a4.78,4.78,0,0,1,1.25-1.1,4.51,4.51,0,0,1,2.3-.55,4.43,4.43,0,0,1,3.3,1.2,3.89,3.89,0,0,1,1.05,3.12v7.1h-4v-5.65a3.32,3.32,0,0,0-.5-2.17,1.56,1.56,0,0,0-1.27-.48,2.14,2.14,0,0,0-1.45.48,2.41,2.41,0,0,0-.68,1.82v6h-4Z"/><path d="M789.17,552.54h-8.32a2.83,2.83,0,0,0,.7,1.87,2.25,2.25,0,0,0,1.65.55,3.07,3.07,0,0,0,1.3-.3,1.83,1.83,0,0,0,.7-.75H789a5.09,5.09,0,0,1-1.35,2.3,6.09,6.09,0,0,1-4.55,1.55,6.33,6.33,0,0,1-4.63-1.7,5.86,5.86,0,0,1-1.65-4.22,5.93,5.93,0,0,1,1.68-4.32,6.27,6.27,0,0,1,4.57-1.63,6.12,6.12,0,0,1,4.3,1.53,6.27,6.27,0,0,1,1.77,4.7Zm-3.67-2.3a2.71,2.71,0,0,0-.65-1.2,2.35,2.35,0,0,0-1.65-.6,2.16,2.16,0,0,0-1.62.6,2.21,2.21,0,0,0-.6,1.2Z"/><path d="M795.48,539.17v18.22h-4V539.17Z"/><path d="M802.2,539.17v18.22h-4V539.17Z"/><path d="M673.21,569.17v18.22h-4V569.17Z"/><path d="M684.59,576.22h4v11.17h-4v-1.23a4.17,4.17,0,0,1-3.47,1.6,5.37,5.37,0,0,1-4-1.77,5.67,5.67,0,0,1-1.6-4.1,6.17,6.17,0,0,1,1.73-4.47,5.74,5.74,0,0,1,4-1.58,4.45,4.45,0,0,1,3.35,1.45Zm-4.2,3.74a2.51,2.51,0,0,0,0,3.66,2.83,2.83,0,0,0,1.79.74,2.56,2.56,0,0,0,1.8-.77,2.43,2.43,0,0,0,.75-1.8,2.52,2.52,0,0,0-.77-1.83,2.61,2.61,0,0,0-1.8-.72A2.59,2.59,0,0,0,680.39,580Z"/><path d="M709.81,587.39h-4v-1.23a4.09,4.09,0,0,1-3.37,1.6,5.3,5.3,0,0,1-3.92-1.55,6.34,6.34,0,0,1,0-8.87,5.72,5.72,0,0,1,4-1.5,4.43,4.43,0,0,1,3.32,1.45v-8.12h4Zm-4.72-3.7a2.72,2.72,0,0,0,.85-1.9,3,3,0,0,0-.75-1.8,2.57,2.57,0,0,0-3.6,0,2.79,2.79,0,0,0-.78,1.91,2.6,2.6,0,0,0,2.55,2.49A2.78,2.78,0,0,0,705.09,583.69Z"/><path d="M714.56,569.32a2.25,2.25,0,1,1-2.24,2.25A2.24,2.24,0,0,1,714.56,569.32Zm2,6.9v11.17h-4V576.22Z"/><path d="M720,583.69a5.52,5.52,0,0,0,1.6.82,5,5,0,0,0,1.54.28,1.75,1.75,0,0,0,1-.3.67.67,0,0,0,.2-.53.63.63,0,0,0-.2-.5,2.56,2.56,0,0,0-1.05-.4l-1-.25a3.55,3.55,0,0,1-2-1,2.67,2.67,0,0,1-.72-1.92,4,4,0,0,1,1-2.73,5.67,5.67,0,0,1,4-1.35,9.14,9.14,0,0,1,3.58.73l-1.35,2.55a5.56,5.56,0,0,0-2.1-.55,1.71,1.71,0,0,0-.93.22.61.61,0,0,0-.35.55.64.64,0,0,0,.48.62,11.91,11.91,0,0,0,1.32.33l.73.2a4.74,4.74,0,0,1,1.65.88,3.13,3.13,0,0,1,.85,2.22,3.71,3.71,0,0,1-1.13,2.77,5.81,5.81,0,0,1-4.12,1.4,8.21,8.21,0,0,1-4.5-1.3Z"/><path d="M734.81,579.49v7.9h-4v-7.9h-1.27v-3.27h1.27v-3.68h4v3.68h2.28v3.27Z"/><path d="M747.24,576.22h4v11.17h-4v-1.23a4.17,4.17,0,0,1-3.48,1.6,5.35,5.35,0,0,1-4-1.77,5.67,5.67,0,0,1-1.6-4.1,6.13,6.13,0,0,1,1.73-4.47,5.73,5.73,0,0,1,4-1.58,4.45,4.45,0,0,1,3.35,1.45ZM743,580a2.63,2.63,0,0,0-.8,1.83,2.59,2.59,0,0,0,.77,1.83,2.88,2.88,0,0,0,1.8.74,2.56,2.56,0,0,0,1.8-.77,2.43,2.43,0,0,0,.75-1.8,2.52,2.52,0,0,0-.77-1.83,2.61,2.61,0,0,0-1.8-.72A2.59,2.59,0,0,0,743,580Z"/><path d="M754,576.22h4v1.4a4.21,4.21,0,0,1,3.55-1.65,4.51,4.51,0,0,1,3.3,1.2,3.85,3.85,0,0,1,1,3.12v7.1h-4v-5.65a3.22,3.22,0,0,0-.5-2.17,1.7,1.7,0,0,0-1.28-.48,2.18,2.18,0,0,0-1.47.53,2.54,2.54,0,0,0-.65,1.77v6h-4Z"/><path d="M773,579.49v7.9h-4v-7.9h-1.27v-3.27H769v-3.68h4v3.68h2.27v3.27Zm-3.85,9.15,3.75.4-2.55,4.6-2.5-.3Z"/><path d="M785.46,576.22h4v11.17h-4v-1.23a4.15,4.15,0,0,1-3.47,1.6,5.37,5.37,0,0,1-4-1.77,5.66,5.66,0,0,1-1.59-4.1,6.17,6.17,0,0,1,1.72-4.47,5.74,5.74,0,0,1,4-1.58,4.43,4.43,0,0,1,3.35,1.45Zm2.2-5.75a3.88,3.88,0,0,1-1.1,2.72,5.24,5.24,0,0,1-6.5,0,4,4,0,0,1-1.1-2.72h2.58a1.71,1.71,0,0,0,.5,1,2,2,0,0,0,1.27.45,2,2,0,0,0,1.28-.45,1.71,1.71,0,0,0,.5-1Zm-6.4,9.49a2.51,2.51,0,0,0,0,3.66,2.83,2.83,0,0,0,1.8.74,2.56,2.56,0,0,0,1.8-.77,2.43,2.43,0,0,0,.75-1.8,2.49,2.49,0,0,0-.78-1.83,2.55,2.55,0,0,0-3.55,0Z"/><rect x="30" y="392.35" width="148" height="89.21" rx="12" ry="12" style="fill:none;stroke:#91c54f;stroke-miterlimit:10;stroke-width:5px"/><rect x="80.18" y="481.05" width="47.64" height="16.22" rx="4.38" ry="4.38" style="fill:#91c54f"/><rect x="49.26" y="495.75" width="109.48" height="22.3" rx="6.03" ry="6.03" style="fill:none;stroke:#91c54f;stroke-miterlimit:10;stroke-width:5px"/><circle cx="61.42" cy="503.86" r="2.03" style="fill:#91c54f"/><circle cx="67.24" cy="503.86" r="2.03" style="fill:#91c54f"/><circle cx="61.42" cy="509.94" r="2.03" style="fill:#91c54f"/><circle cx="67.24" cy="509.94" r="2.03" style="fill:#91c54f"/><rect x="120.22" y="504.87" width="31.42" height="3.04" rx="0.82" ry="0.82" style="fill:none;stroke:#91c54f;stroke-miterlimit:10;stroke-width:5px"/><path d="M92.53,554.59h-6l-1.13,2.8H80.79l6.4-16.67h4.72l6.27,16.67H93.56Zm-1.15-3.3-1.87-5.4-1.82,5.4Z"/><path d="M99.74,546.22h4v1.4a4.21,4.21,0,0,1,3.55-1.65,4.48,4.48,0,0,1,3.29,1.2,3.85,3.85,0,0,1,1,3.12v7.1h-4v-5.65a3.17,3.17,0,0,0-.5-2.17,1.66,1.66,0,0,0-1.27-.48,2.18,2.18,0,0,0-1.47.53,2.54,2.54,0,0,0-.65,1.77v6h-4Z"/><path d="M123,546.22h4v11.17h-4v-1.23a4.16,4.16,0,0,1-3.47,1.6,5.37,5.37,0,0,1-4-1.77,5.67,5.67,0,0,1-1.6-4.1,6.17,6.17,0,0,1,1.73-4.47,5.74,5.74,0,0,1,4-1.58,4.43,4.43,0,0,1,3.35,1.45Zm-4.2,3.75a2.49,2.49,0,0,0,0,3.64,2.79,2.79,0,0,0,1.8.75,2.54,2.54,0,0,0,1.79-.77,2.39,2.39,0,0,0,.75-1.8,2.48,2.48,0,0,0-.77-1.82,2.52,2.52,0,0,0-3.55,0Z"/><polygon points="387.47 478.55 452.94 478.55 452.94 487.99 473 467.94 452.94 447.88 452.94 457.32 387.47 457.32 387.47 478.55" style="fill:none;stroke:#3a5c84;stroke-miterlimit:10;stroke-width:5px"/><ellipse cx="267.49" cy="465.5" rx="34.49" ry="57.89" style="fill:none;stroke:#3a5c84;stroke-miterlimit:10;stroke-width:3.69523823261261px"/><ellipse cx="586.51" cy="465.5" rx="34.49" ry="57.89" style="fill:none;stroke:#3a5c84;stroke-miterlimit:10;stroke-width:3.69523823261261px"/><line x1="267.49" y1="407.61" x2="586.51" y2="407.61" style="fill:none;stroke:#3a5c84;stroke-miterlimit:10;stroke-width:3.69523823261261px"/><line x1="268.1" y1="523.39" x2="587.13" y2="523.39" style="fill:none;stroke:#3a5c84;stroke-miterlimit:10;stroke-width:3.69523823261261px"/><path d="M366.55,376.4a5.79,5.79,0,0,0,3.82,1.7,2.21,2.21,0,0,0,1.68-.57,1.5,1.5,0,0,0,.42-1,1.29,1.29,0,0,0-.47-1,6.08,6.08,0,0,0-2.15-.88l-1.13-.35a5.42,5.42,0,0,1-2.4-1.35,4.18,4.18,0,0,1-.94-2.95,5.41,5.41,0,0,1,1.52-4,5.88,5.88,0,0,1,4.27-1.58,11.76,11.76,0,0,1,5.15,1.35l-1.72,3.38a4.39,4.39,0,0,0-2.85-1.13,2.09,2.09,0,0,0-1.43.5,1.24,1.24,0,0,0-.42.9,1.13,1.13,0,0,0,.22.75,2.79,2.79,0,0,0,1.45.75l1.33.4a6.37,6.37,0,0,1,3,1.65,4,4,0,0,1,1.08,3,5.66,5.66,0,0,1-1.58,4.2,6.47,6.47,0,0,1-4.92,1.7,9,9,0,0,1-3.28-.56,11.41,11.41,0,0,1-2.52-1.32Z"/><path d="M391.2,376.55h-8.33a2.87,2.87,0,0,0,.7,1.88,2.25,2.25,0,0,0,1.65.55,3.24,3.24,0,0,0,1.3-.3,1.83,1.83,0,0,0,.7-.75h3.83a5.07,5.07,0,0,1-1.35,2.29,6,6,0,0,1-4.55,1.56,6.37,6.37,0,0,1-4.63-1.7,6.35,6.35,0,0,1,0-8.55,6.27,6.27,0,0,1,4.57-1.63,6.12,6.12,0,0,1,4.3,1.53,6.24,6.24,0,0,1,1.78,4.7Zm-3.68-2.3a2.71,2.71,0,0,0-.65-1.2,2.35,2.35,0,0,0-1.65-.6,2.16,2.16,0,0,0-1.62.6,2.21,2.21,0,0,0-.6,1.2Z"/><path d="M394.22,377.7a6,6,0,0,0,1.6.83,5.38,5.38,0,0,0,1.55.27,1.68,1.68,0,0,0,1-.3.64.64,0,0,0,.2-.52.6.6,0,0,0-.2-.5,2.43,2.43,0,0,0-1-.4l-1.05-.25a3.64,3.64,0,0,1-1.95-1,2.67,2.67,0,0,1-.72-1.92,4,4,0,0,1,1-2.73,5.67,5.67,0,0,1,4-1.35,9.14,9.14,0,0,1,3.58.73l-1.35,2.55a5.56,5.56,0,0,0-2.1-.55,1.71,1.71,0,0,0-.93.22.61.61,0,0,0-.35.55.66.66,0,0,0,.48.63c.37.15.7.15,1.32.32l.73.2a4.74,4.74,0,0,1,1.65.88,3.15,3.15,0,0,1,.85,2.22,3.76,3.76,0,0,1-1.13,2.78,5.85,5.85,0,0,1-4.12,1.4,8.22,8.22,0,0,1-4.5-1.31Z"/><path d="M406.6,363.33a2.25,2.25,0,1,1-2.25,2.25A2.24,2.24,0,0,1,406.6,363.33Zm2,6.9V381.4h-4V370.23Z"/><path d="M415.32,370.23v6.25a2.15,2.15,0,0,0,.6,1.62,2.08,2.08,0,0,0,1.4.43,1.87,1.87,0,0,0,1.43-.48,2.06,2.06,0,0,0,.57-1.57v-6.25h4v7a3.82,3.82,0,0,1-1.07,3,6.38,6.38,0,0,1-4.83,1.58c-1.67,0-3.72-.18-5.05-1.6a4,4,0,0,1-1.05-3v-7Z"/><path d="M426.07,370.23h4v1.4a4.22,4.22,0,0,1,3.55-1.65,4.49,4.49,0,0,1,3.3,1.2A3.85,3.85,0,0,1,438,374.3v7.1h-4v-5.65a3.17,3.17,0,0,0-.5-2.17,1.66,1.66,0,0,0-1.27-.48,2.2,2.2,0,0,0-1.48.53,2.56,2.56,0,0,0-.65,1.77v6h-4Z"/><path d="M452.55,376.55h-8.33a2.87,2.87,0,0,0,.7,1.88,2.25,2.25,0,0,0,1.65.55,3.24,3.24,0,0,0,1.3-.3,1.83,1.83,0,0,0,.7-.75h3.83a5.07,5.07,0,0,1-1.35,2.29,6,6,0,0,1-4.55,1.56,6.37,6.37,0,0,1-4.63-1.7,6.32,6.32,0,0,1,0-8.55,6.27,6.27,0,0,1,4.57-1.63,6.12,6.12,0,0,1,4.3,1.53,6.24,6.24,0,0,1,1.78,4.7Zm-3.68-2.3a2.71,2.71,0,0,0-.65-1.2,2.35,2.35,0,0,0-1.65-.6,2.16,2.16,0,0,0-1.62.6,2.21,2.21,0,0,0-.6,1.2Z"/><path d="M462.15,376.4a5.79,5.79,0,0,0,3.82,1.7,2.21,2.21,0,0,0,1.68-.57,1.5,1.5,0,0,0,.42-1,1.29,1.29,0,0,0-.47-1,6.08,6.08,0,0,0-2.15-.88l-1.13-.35a5.42,5.42,0,0,1-2.4-1.35A4.19,4.19,0,0,1,461,370a5.41,5.41,0,0,1,1.53-4,5.88,5.88,0,0,1,4.27-1.58,11.76,11.76,0,0,1,5.15,1.35l-1.72,3.38a4.39,4.39,0,0,0-2.85-1.13,2.09,2.09,0,0,0-1.43.5,1.24,1.24,0,0,0-.42.9,1.13,1.13,0,0,0,.22.75,2.79,2.79,0,0,0,1.45.75l1.33.4a6.37,6.37,0,0,1,3,1.65,4,4,0,0,1,1.08,3,5.66,5.66,0,0,1-1.58,4.2,6.47,6.47,0,0,1-4.92,1.7,9,9,0,0,1-3.28-.56,11.41,11.41,0,0,1-2.52-1.32Z"/><path d="M475.8,376.4a5.79,5.79,0,0,0,3.82,1.7,2.21,2.21,0,0,0,1.68-.57,1.5,1.5,0,0,0,.42-1,1.29,1.29,0,0,0-.47-1,6.08,6.08,0,0,0-2.15-.88l-1.13-.35a5.42,5.42,0,0,1-2.4-1.35,4.19,4.19,0,0,1-.95-2.95,5.41,5.41,0,0,1,1.53-4,5.88,5.88,0,0,1,4.27-1.58,11.76,11.76,0,0,1,5.15,1.35l-1.72,3.38A4.39,4.39,0,0,0,481,368a2.09,2.09,0,0,0-1.43.5,1.24,1.24,0,0,0-.42.9,1.13,1.13,0,0,0,.22.75,2.79,2.79,0,0,0,1.45.75l1.33.4a6.37,6.37,0,0,1,3,1.65,4,4,0,0,1,1.08,3,5.66,5.66,0,0,1-1.58,4.2,6.47,6.47,0,0,1-4.92,1.7,9,9,0,0,1-3.28-.56A11.41,11.41,0,0,1,474,379.9Z"/><path d="M493.3,371h6.25v-6.22h4.34V381.4h-4.34v-6.75H493.3v6.75H489V364.73h4.33Z"/><path d="M306.63,557.39H293.25l4.23-4.43a27.06,27.06,0,0,0,3.42-4.22,4.68,4.68,0,0,0,.9-2.6,2.51,2.51,0,0,0-.5-1.6,1.65,1.65,0,0,0-1.22-.5,1.79,1.79,0,0,0-1.45.68,4.06,4.06,0,0,0-.6,2h-4.48a6.69,6.69,0,0,1,1.85-4.63,7.18,7.18,0,0,1,9.43-.07,5.58,5.58,0,0,1,1.62,4.1,6.49,6.49,0,0,1-2.47,5l-2.8,2.59h5.45Z"/><path d="M309.58,557.09a2.55,2.55,0,0,1-.78-1.83,2.65,2.65,0,0,1,2.6-2.59,2.6,2.6,0,0,1,1.85.79,2.4,2.4,0,0,1,.73,1.8,2.42,2.42,0,0,1-.75,1.83,2.59,2.59,0,0,1-1.83.77A2.52,2.52,0,0,1,309.58,557.09Z"/><path d="M327.08,540.72v16.67h-4.33V540.72Z"/><path d="M330.2,546.22h4v1.4a4.22,4.22,0,0,1,3.55-1.65,4.49,4.49,0,0,1,3.3,1.2,3.85,3.85,0,0,1,1.05,3.12v7.1h-4v-5.65a3.17,3.17,0,0,0-.5-2.17,1.66,1.66,0,0,0-1.27-.48,2.2,2.2,0,0,0-1.48.53,2.54,2.54,0,0,0-.65,1.77v6h-4Z"/><path d="M359.1,557.14a6,6,0,0,1-2.77.62,6.14,6.14,0,0,1-4.4-1.7,5.83,5.83,0,0,1-1.73-4.17,6.09,6.09,0,0,1,1.8-4.32,6.45,6.45,0,0,1,4.5-1.7,5.72,5.72,0,0,1,2.6.62v3.35a3.57,3.57,0,0,0-2.07-.72,2.62,2.62,0,0,0-1.95.77,2.73,2.73,0,0,0-.78,1.92,2.91,2.91,0,0,0,.7,1.88,2.73,2.73,0,0,0,2.05.85,3,3,0,0,0,2.05-.75Z"/><path d="M370,546.22h4v11.17h-4v-1.23a4.17,4.17,0,0,1-3.48,1.6,5.35,5.35,0,0,1-4-1.77,5.63,5.63,0,0,1-1.6-4.1,6.17,6.17,0,0,1,1.72-4.47,5.77,5.77,0,0,1,4-1.58,4.45,4.45,0,0,1,3.35,1.45Zm-4.2,3.74a2.63,2.63,0,0,0-.8,1.83,2.59,2.59,0,0,0,.77,1.83,2.88,2.88,0,0,0,1.8.74,2.56,2.56,0,0,0,1.8-.77,2.43,2.43,0,0,0,.75-1.8,2.52,2.52,0,0,0-.77-1.83,2.61,2.61,0,0,0-1.8-.72A2.59,2.59,0,0,0,365.83,550Z"/><path d="M382.6,554.11h4.68v3.28H375.9l5.28-7.9h-4.5v-3.27h11.15Z"/><path d="M393.7,546.22v6.24a2.17,2.17,0,0,0,.6,1.63,2.07,2.07,0,0,0,1.4.42,1.9,1.9,0,0,0,1.43-.47,2.08,2.08,0,0,0,.57-1.58v-6.24h4v7a3.84,3.84,0,0,1-1.07,3,6.41,6.41,0,0,1-4.83,1.57c-1.67,0-3.72-.17-5.05-1.6a4,4,0,0,1-1.05-3v-7Z"/><path d="M408.45,539.17v18.22h-4V539.17Z"/><path d="M425.65,546.22h4v11.17h-4v-1.23a4.15,4.15,0,0,1-3.47,1.6,5.37,5.37,0,0,1-4-1.77,5.67,5.67,0,0,1-1.6-4.1,6.17,6.17,0,0,1,1.73-4.47,5.74,5.74,0,0,1,4-1.58,4.43,4.43,0,0,1,3.35,1.45Zm-4.2,3.74a2.51,2.51,0,0,0,0,3.66,2.83,2.83,0,0,0,1.8.74,2.56,2.56,0,0,0,1.8-.77,2.43,2.43,0,0,0,.75-1.8A2.49,2.49,0,0,0,425,550a2.55,2.55,0,0,0-3.55,0Z"/><path d="M436.4,546.22v6.24a2.17,2.17,0,0,0,.6,1.63,2.07,2.07,0,0,0,1.4.42,1.9,1.9,0,0,0,1.43-.47,2.08,2.08,0,0,0,.57-1.58v-6.24h4v7a3.85,3.85,0,0,1-1.08,3,6.37,6.37,0,0,1-4.82,1.57c-1.67,0-3.72-.17-5.05-1.6a4,4,0,0,1-1.05-3v-7Z"/><path d="M451.58,549.49v7.9h-4v-7.9H446.3v-3.27h1.28v-3.68h4v3.68h2.27v3.27Z"/><path d="M467.2,552.54h-8.32a2.78,2.78,0,0,0,.7,1.87,2.25,2.25,0,0,0,1.65.55,3.07,3.07,0,0,0,1.3-.3,1.81,1.81,0,0,0,.69-.75h3.83a5,5,0,0,1-1.35,2.3,6.06,6.06,0,0,1-4.55,1.55,6.31,6.31,0,0,1-4.62-1.7,5.82,5.82,0,0,1-1.65-4.22,6,6,0,0,1,1.67-4.32,6.31,6.31,0,0,1,4.58-1.63,6.1,6.1,0,0,1,4.29,1.53,6.24,6.24,0,0,1,1.78,4.7Zm-3.67-2.3a2.71,2.71,0,0,0-.65-1.2,2.36,2.36,0,0,0-1.65-.6,2.18,2.18,0,0,0-1.63.6,2.36,2.36,0,0,0-.6,1.2Z"/><path d="M469.5,546.22h4v1.4a4.22,4.22,0,0,1,3.55-1.65,4.51,4.51,0,0,1,3.3,1.2,3.85,3.85,0,0,1,1,3.12v7.1h-4v-5.65a3.17,3.17,0,0,0-.5-2.17,1.66,1.66,0,0,0-1.27-.48,2.2,2.2,0,0,0-1.48.53,2.54,2.54,0,0,0-.65,1.77v6h-4Z"/><path d="M488.55,549.49v7.9h-4v-7.9h-1.27v-3.27h1.27v-3.68h4v3.68h2.28v3.27Z"/><path d="M494.33,539.32a2.25,2.25,0,1,1-2.25,2.25A2.24,2.24,0,0,1,494.33,539.32Zm2,6.9v11.17h-4V546.22Z"/><path d="M503.35,549.49v7.9h-4v-7.9H498v-3.27h1.4v-1.38a5.61,5.61,0,0,1,1.53-4.37,6.32,6.32,0,0,1,4.4-1.58,6.75,6.75,0,0,1,4.47,1.5,5.1,5.1,0,0,1,1.4,3.75v.58h-4v-.38a2.31,2.31,0,0,0-.5-1.5,2,2,0,0,0-1.4-.5,1.88,1.88,0,0,0-1.37.58,2.28,2.28,0,0,0-.53,1.72v1.58h2.8v3.27Zm7.8-3.27v11.17h-4V546.22Z"/><path d="M522.1,557.14a6,6,0,0,1-2.77.62,6.14,6.14,0,0,1-4.4-1.7,5.83,5.83,0,0,1-1.73-4.17,6.09,6.09,0,0,1,1.8-4.32,6.45,6.45,0,0,1,4.5-1.7,5.72,5.72,0,0,1,2.6.62v3.35a3.57,3.57,0,0,0-2.07-.72,2.62,2.62,0,0,0-1.95.77,2.73,2.73,0,0,0-.78,1.92,2.91,2.91,0,0,0,.7,1.88,2.73,2.73,0,0,0,2,.85,3,3,0,0,0,2.05-.75Z"/><path d="M533,546.22h4v11.17h-4v-1.23a4.15,4.15,0,0,1-3.47,1.6,5.35,5.35,0,0,1-4-1.77,5.63,5.63,0,0,1-1.6-4.1,6.17,6.17,0,0,1,1.72-4.47,5.77,5.77,0,0,1,4-1.58,4.42,4.42,0,0,1,3.34,1.45Zm2.2-5.75a3.88,3.88,0,0,1-1.1,2.72,5.22,5.22,0,0,1-6.49,0,3.88,3.88,0,0,1-1.1-2.72h2.57a1.71,1.71,0,0,0,.5,1,2,2,0,0,0,2.55,0,1.71,1.71,0,0,0,.5-1ZM528.83,550a2.63,2.63,0,0,0-.8,1.83,2.59,2.59,0,0,0,.77,1.83,2.88,2.88,0,0,0,1.8.74,2.56,2.56,0,0,0,1.8-.77,2.43,2.43,0,0,0,.75-1.8,2.52,2.52,0,0,0-.77-1.83,2.63,2.63,0,0,0-1.8-.72A2.59,2.59,0,0,0,528.83,550Z"/><path d="M539.78,546.22h4V548a3.6,3.6,0,0,1,1.57-1.55,4.4,4.4,0,0,1,2.07-.45c.1,0,.28,0,.8.05v3.78a3.52,3.52,0,0,0-1.72-.4,2.57,2.57,0,0,0-1.82.6,3.37,3.37,0,0,0-.9,2.55v4.77h-4Z"/><path d="M552,539.32a2.25,2.25,0,1,1-2.25,2.25A2.24,2.24,0,0,1,552,539.32Zm2,6.9v11.17h-4V546.22Z"/><path d="M558.73,539.32a2.25,2.25,0,1,1-2.25,2.25A2.24,2.24,0,0,1,558.73,539.32Zm2,6.9v11.17h-4V546.22Z"/><path d="M385.24,587.14a6,6,0,0,1-2.78.62,6.13,6.13,0,0,1-4.39-1.7,5.83,5.83,0,0,1-1.73-4.17,6.09,6.09,0,0,1,1.8-4.32,6.45,6.45,0,0,1,4.5-1.7,5.72,5.72,0,0,1,2.6.62v3.35a3.63,3.63,0,0,0-2.08-.72,2.64,2.64,0,0,0-2,.77,2.76,2.76,0,0,0-.77,1.92,2.91,2.91,0,0,0,.7,1.88,2.73,2.73,0,0,0,2.05.85,3.07,3.07,0,0,0,2.05-.75Z"/><path d="M391.51,576.22v6.24a2.14,2.14,0,0,0,.61,1.63,2,2,0,0,0,1.39.42,1.9,1.9,0,0,0,1.43-.47,2.08,2.08,0,0,0,.57-1.58v-6.24h4v7a3.84,3.84,0,0,1-1.07,3,6.41,6.41,0,0,1-4.83,1.57c-1.67,0-3.72-.17-5-1.6a4,4,0,0,1-1.05-3v-7Z"/><path d="M408.82,583.69a5.52,5.52,0,0,0,1.6.82,5,5,0,0,0,1.54.28,1.75,1.75,0,0,0,1-.3.67.67,0,0,0,.2-.53.63.63,0,0,0-.2-.5,2.56,2.56,0,0,0-1.05-.4l-1.05-.25a3.55,3.55,0,0,1-1.95-1,2.71,2.71,0,0,1-.73-1.92,4,4,0,0,1,1.06-2.73,5.66,5.66,0,0,1,4-1.35,9.14,9.14,0,0,1,3.58.73l-1.35,2.55a5.56,5.56,0,0,0-2.1-.55,1.71,1.71,0,0,0-.93.22.6.6,0,0,0-.34.55.63.63,0,0,0,.47.62,11.91,11.91,0,0,0,1.32.33l.73.2a4.74,4.74,0,0,1,1.65.88,3.13,3.13,0,0,1,.85,2.22,3.71,3.71,0,0,1-1.13,2.77,5.81,5.81,0,0,1-4.12,1.4,8.19,8.19,0,0,1-4.5-1.3Z"/><path d="M423.19,576.22v6.24a2.13,2.13,0,0,0,.6,1.63,2.05,2.05,0,0,0,1.4.42,1.87,1.87,0,0,0,1.42-.47,2.09,2.09,0,0,0,.58-1.58v-6.24h4v7a3.85,3.85,0,0,1-1.08,3,6.38,6.38,0,0,1-4.82,1.57c-1.68,0-3.73-.17-5.05-1.6a4,4,0,0,1-1.05-3v-7Z"/><path d="M442.39,587.14a6,6,0,0,1-2.78.62,6.16,6.16,0,0,1-4.4-1.7,5.86,5.86,0,0,1-1.72-4.17,6.09,6.09,0,0,1,1.8-4.32,6.45,6.45,0,0,1,4.5-1.7,5.72,5.72,0,0,1,2.6.62v3.35a3.63,3.63,0,0,0-2.08-.72,2.62,2.62,0,0,0-1.95.77,2.72,2.72,0,0,0-.77,1.92,2.86,2.86,0,0,0,.7,1.88,2.7,2.7,0,0,0,2,.85,3.07,3.07,0,0,0,2.05-.75Z"/><path d="M453.11,587.14a6,6,0,0,1-2.77.62,6.14,6.14,0,0,1-4.4-1.7,5.83,5.83,0,0,1-1.73-4.17,6.09,6.09,0,0,1,1.8-4.32,6.45,6.45,0,0,1,4.5-1.7,5.72,5.72,0,0,1,2.6.62v3.35a3.57,3.57,0,0,0-2.07-.72,2.62,2.62,0,0,0-2,.77,2.73,2.73,0,0,0-.78,1.92,2.91,2.91,0,0,0,.7,1.88,2.73,2.73,0,0,0,2.05.85,3,3,0,0,0,2.05-.75Z"/><path d="M467.24,582.54h-8.33a2.83,2.83,0,0,0,.7,1.87,2.25,2.25,0,0,0,1.65.55,3.07,3.07,0,0,0,1.3-.3,1.83,1.83,0,0,0,.7-.75h3.83a5.09,5.09,0,0,1-1.35,2.3,6.09,6.09,0,0,1-4.55,1.55,6.33,6.33,0,0,1-4.63-1.7,5.86,5.86,0,0,1-1.65-4.22,5.93,5.93,0,0,1,1.68-4.32,6.27,6.27,0,0,1,4.57-1.63,6.12,6.12,0,0,1,4.3,1.53,6.24,6.24,0,0,1,1.78,4.7Zm-3.68-2.3a2.71,2.71,0,0,0-.65-1.2,2.35,2.35,0,0,0-1.65-.6,2.16,2.16,0,0,0-1.62.6,2.21,2.21,0,0,0-.6,1.2Z"/><path d="M470.26,583.69a5.64,5.64,0,0,0,1.6.82,5.09,5.09,0,0,0,1.55.28,1.75,1.75,0,0,0,1-.3.67.67,0,0,0,.2-.53.63.63,0,0,0-.2-.5,2.56,2.56,0,0,0-1.05-.4l-1.05-.25a3.55,3.55,0,0,1-1.95-1,2.67,2.67,0,0,1-.73-1.92,4,4,0,0,1,1-2.73,5.67,5.67,0,0,1,4-1.35,9.14,9.14,0,0,1,3.58.73l-1.35,2.55a5.56,5.56,0,0,0-2.1-.55,1.71,1.71,0,0,0-.93.22.61.61,0,0,0-.35.55.64.64,0,0,0,.48.62,11.91,11.91,0,0,0,1.32.33l.73.2a4.74,4.74,0,0,1,1.65.88,3.13,3.13,0,0,1,.85,2.22,3.71,3.71,0,0,1-1.13,2.77,5.81,5.81,0,0,1-4.12,1.4,8.19,8.19,0,0,1-4.5-1.3Z"/><rect x="690.5" y="268.5" width="299" height="406" rx="12" ry="12" transform="translate(1311.5 -368.5) rotate(90)" style="fill:none;stroke:#91c54f;stroke-miterlimit:10;stroke-width:5px"/><rect x="672.85" y="419.28" width="112" height="69.85" rx="12" ry="12" style="fill:none;stroke:#eb6a38;stroke-miterlimit:10;stroke-width:5.236px"/><line x1="675.26" y1="443.36" x2="782.44" y2="443.36" style="fill:none;stroke:#eb6a38;stroke-miterlimit:10;stroke-width:5.236px"/><circle cx="753.54" cy="431.92" r="3.61" style="fill:#eb6a38"/><ellipse cx="762.76" cy="431.92" rx="3.42" ry="3.61" style="fill:#eb6a38"/><circle cx="771.6" cy="431.92" r="3.61" style="fill:#eb6a38"/></svg>