<svg id="Layer_1" data-name="Layer 1" xmlns="http://www.w3.org/2000/svg" viewBox="0 0 1062 662"><title>Capitolul12</title><path d="M35.08,268.27H28.9v3.33h5.85V276H28.9v3.45h6.18v4.41H23.71v-20H35.08Z"/><path d="M43,276.58l-5.43-6.12h6.24l2.31,2.76,2.37-2.76h6.21l-5.55,6.12,6.72,7.29H49.48l-3.42-4-3.42,4H36.28Z"/><path d="M62.29,290.74h-4.8V270.46h4.8v1.47A5,5,0,0,1,66.4,270,6.67,6.67,0,0,1,71.17,272a7.61,7.61,0,0,1-.12,10.5,6.44,6.44,0,0,1-4.59,1.86,5.71,5.71,0,0,1-4.17-1.74ZM63.07,275a3.27,3.27,0,0,0-.93,2.22,3.24,3.24,0,0,0,.93,2.13,3.07,3.07,0,0,0,2.16.9,2.9,2.9,0,0,0,2.13-.9,3.17,3.17,0,0,0,.93-2.13,3.27,3.27,0,0,0-.93-2.22,2.9,2.9,0,0,0-2.13-.9A3.07,3.07,0,0,0,63.07,275Z"/><path d="M90.19,278.05h-10A3.39,3.39,0,0,0,81,280.3a2.7,2.7,0,0,0,2,.66,3.79,3.79,0,0,0,1.56-.36,2.23,2.23,0,0,0,.84-.9H90a6,6,0,0,1-1.62,2.76c-1,1-2.55,1.86-5.46,1.86a7.61,7.61,0,0,1-5.55-2,7,7,0,0,1-2-5.07,7.16,7.16,0,0,1,2-5.19,7.55,7.55,0,0,1,5.49-1.95,7.35,7.35,0,0,1,5.16,1.83,7.51,7.51,0,0,1,2.13,5.64Zm-4.41-2.76a3.22,3.22,0,0,0-.78-1.44,2.8,2.8,0,0,0-2-.72,2.58,2.58,0,0,0-2,.72,2.74,2.74,0,0,0-.72,1.44Z"/><path d="M108.13,283.87h-4.8V282.4a4.92,4.92,0,0,1-4,1.92,6.42,6.42,0,0,1-4.71-1.86,7.4,7.4,0,0,1-2.16-5.34,7.31,7.31,0,0,1,2.19-5.31,6.86,6.86,0,0,1,4.74-1.8,5.31,5.31,0,0,1,4,1.74V262h4.8Zm-5.67-4.44a3.22,3.22,0,0,0,1-2.28,3.51,3.51,0,0,0-.9-2.16,3.08,3.08,0,0,0-4.32,0,3.29,3.29,0,0,0-.93,2.28,3,3,0,0,0,.93,2.1,3,3,0,0,0,2.13.9A3.28,3.28,0,0,0,102.46,279.43Z"/><path d="M113.83,262.18a2.7,2.7,0,1,1-2.7,2.7A2.69,2.69,0,0,1,113.83,262.18Zm2.4,8.28v13.41h-4.8V270.46Z"/><path d="M124.81,274.39v9.48H120v-9.48h-1.53v-3.93H120v-4.41h4.8v4.41h2.73v3.93Z"/><path d="M142.84,282.1a9.18,9.18,0,0,1-12,0,6.92,6.92,0,0,1,0-9.87,8.37,8.37,0,0,1,6-2.22,8.47,8.47,0,0,1,6,2.22,6.92,6.92,0,0,1,0,9.87ZM134.71,275a3.06,3.06,0,0,0,2.16,5.22,3.05,3.05,0,0,0,2.13-.9,3,3,0,0,0,.93-2.13A3.26,3.26,0,0,0,139,275a3.08,3.08,0,0,0-4.29,0Z"/><path d="M147.67,270.46h4.8v2.19a4.33,4.33,0,0,1,1.89-1.86,5.24,5.24,0,0,1,2.49-.54l1,.06v4.53a4.23,4.23,0,0,0-2.07-.48,3.14,3.14,0,0,0-2.19.72,4,4,0,0,0-1.08,3.06v5.73h-4.8Z"/><path d="M900,283.87v-20h6.81a11.16,11.16,0,0,1,8,2.76,9.77,9.77,0,0,1,2.79,7.29,9.23,9.23,0,0,1-2.61,6.93,10.87,10.87,0,0,1-7.68,3Zm5.19-4.41h1.05a6,6,0,0,0,4.38-1.44,5.45,5.45,0,0,0,1.53-4.11,6,6,0,0,0-1.56-4.38,5.83,5.83,0,0,0-4.14-1.26h-1.26Z"/><path d="M934.57,278.05h-10a3.39,3.39,0,0,0,.84,2.25,2.7,2.7,0,0,0,2,.66,3.79,3.79,0,0,0,1.56-.36,2.23,2.23,0,0,0,.84-.9h4.59a6,6,0,0,1-1.62,2.76c-1,1-2.55,1.86-5.46,1.86a7.61,7.61,0,0,1-5.55-2,7,7,0,0,1-2-5.07,7.16,7.16,0,0,1,2-5.19,7.55,7.55,0,0,1,5.49-1.95,7.35,7.35,0,0,1,5.16,1.83,7.51,7.51,0,0,1,2.13,5.64Zm-4.41-2.76a3.22,3.22,0,0,0-.78-1.44,2.8,2.8,0,0,0-2-.72,2.58,2.58,0,0,0-1.95.72,2.74,2.74,0,0,0-.72,1.44Z"/><path d="M938.2,279.43a6.87,6.87,0,0,0,1.92,1,6.25,6.25,0,0,0,1.86.33,2,2,0,0,0,1.23-.36.77.77,0,0,0,.24-.63.71.71,0,0,0-.24-.6,3,3,0,0,0-1.26-.48l-1.26-.3a4.31,4.31,0,0,1-2.34-1.17,3.24,3.24,0,0,1-.87-2.31,4.79,4.79,0,0,1,1.26-3.27,6.77,6.77,0,0,1,4.8-1.62,11.07,11.07,0,0,1,4.29.87l-1.62,3.06a6.64,6.64,0,0,0-2.52-.66,2,2,0,0,0-1.11.27.72.72,0,0,0-.42.66.78.78,0,0,0,.57.75c.45.18.84.18,1.59.39l.87.24a5.67,5.67,0,0,1,2,1.05,3.79,3.79,0,0,1,1,2.67,4.48,4.48,0,0,1-1.35,3.33,7,7,0,0,1-5,1.68,9.89,9.89,0,0,1-5.4-1.56Z"/><path d="M956,274.39v9.48h-4.8v-9.48h-1.53v-3.93h1.53v-4.41H956v4.41h2.73v3.93Z"/><path d="M962.89,262.18a2.7,2.7,0,1,1-2.7,2.7A2.69,2.69,0,0,1,962.89,262.18Zm2.4,8.28v13.41h-4.8V270.46Z"/><path d="M968.56,270.46h4.8v1.68a5.06,5.06,0,0,1,4.26-2,5.42,5.42,0,0,1,4,1.44,4.62,4.62,0,0,1,1.26,3.75v8.52H978v-6.78a3.85,3.85,0,0,0-.6-2.61,2,2,0,0,0-1.53-.57,2.63,2.63,0,0,0-1.77.63,3.08,3.08,0,0,0-.78,2.13v7.2h-4.8Z"/><path d="M996.49,270.46h4.8v13.41h-4.8V282.4a5,5,0,0,1-4.17,1.92,6.42,6.42,0,0,1-4.83-2.13,6.76,6.76,0,0,1-1.92-4.92,7.42,7.42,0,0,1,2.07-5.37,6.9,6.9,0,0,1,4.83-1.89,5.31,5.31,0,0,1,4,1.74Zm-5,4.5a3.14,3.14,0,0,0-1,2.19,3.09,3.09,0,0,0,.93,2.19,3.37,3.37,0,0,0,2.16.9,3.08,3.08,0,0,0,2.16-.93,2.91,2.91,0,0,0,.9-2.16,3,3,0,0,0-.93-2.19,3,3,0,0,0-4.26,0Z"/><path d="M1009.9,274.39v9.48h-4.8v-9.48h-1.53v-3.93h1.53v-4.41h4.8v4.41h2.73v3.93Z"/><path d="M1024.8,270.46h4.81v13.41h-4.81V282.4a5,5,0,0,1-4.16,1.92,6.42,6.42,0,0,1-4.83-2.13,6.76,6.76,0,0,1-1.92-4.92,7.42,7.42,0,0,1,2.07-5.37,6.9,6.9,0,0,1,4.83-1.89,5.26,5.26,0,0,1,4,1.74Zm-5,4.5a3.14,3.14,0,0,0-1,2.19,3.09,3.09,0,0,0,.93,2.19,3.37,3.37,0,0,0,2.16.9,3.08,3.08,0,0,0,2.16-.93,2.91,2.91,0,0,0,.9-2.16A3,3,0,0,0,1024,275a3,3,0,0,0-4.26,0Z"/><path d="M1032.91,270.46h4.8v2.19a4.33,4.33,0,0,1,1.89-1.86,5.24,5.24,0,0,1,2.49-.54l1,.06v4.53a4.18,4.18,0,0,0-2.06-.48,3.14,3.14,0,0,0-2.19.72,4,4,0,0,0-1.08,3.06v5.73h-4.8Z"/><polygon points="177.59 221.31 262.11 221.31 262.11 233.5 288 207.61 262.11 181.72 262.11 193.9 177.59 193.9 177.59 221.31" style="fill:none;stroke:#4fc2c9;stroke-miterlimit:10;stroke-width:7.19140887260437px"/><polygon points="697.66 437 697.66 364.44 708.12 364.44 685.9 342.22 663.67 364.44 674.13 364.44 674.13 437 697.66 437" style="fill:none;stroke:#f7931f;stroke-miterlimit:10;stroke-width:7px"/><polygon points="397.46 437 397.46 364.44 407.92 364.44 385.7 342.22 363.47 364.44 373.93 364.44 373.93 437 397.46 437" style="fill:none;stroke:#f7931f;stroke-miterlimit:10;stroke-width:7px"/><polygon points="476.59 221.31 561.11 221.31 561.11 233.5 587 207.61 561.11 181.72 561.11 193.9 476.59 193.9 476.59 221.31" style="fill:none;stroke:#4fc2c9;stroke-miterlimit:10;stroke-width:7.19140887260437px"/><polygon points="780.59 221.31 865.11 221.31 865.11 233.5 891 207.61 865.11 181.72 865.11 193.9 780.59 193.9 780.59 221.31" style="fill:none;stroke:#4fc2c9;stroke-miterlimit:10;stroke-width:7.19140887260437px"/><line x1="203" y1="138.47" x2="243.08" y2="138.47" style="fill:none;stroke:#91c54f;stroke-miterlimit:10;stroke-width:3.86249780654907px"/><line x1="203" y1="128.1" x2="243.08" y2="128.1" style="fill:none;stroke:#91c54f;stroke-miterlimit:10;stroke-width:3.86249780654907px"/><line x1="203" y1="117.73" x2="243.08" y2="117.73" style="fill:none;stroke:#91c54f;stroke-miterlimit:10;stroke-width:3.86249780654907px"/><line x1="203" y1="107.36" x2="243.08" y2="107.36" style="fill:none;stroke:#91c54f;stroke-miterlimit:10;stroke-width:3.86249780654907px"/><line x1="203" y1="96.99" x2="219.54" y2="96.99" style="fill:none;stroke:#91c54f;stroke-miterlimit:10;stroke-width:3.86249780654907px"/><path d="M241,93.26a5.61,5.61,0,0,1-5.59-5.59V77.18H200.67a5.61,5.61,0,0,0-5.6,5.59V141.5a5.61,5.61,0,0,0,5.6,5.59h44.74A5.61,5.61,0,0,0,251,141.5V93.26Z" style="fill:none;stroke:#91c54f;stroke-miterlimit:10;stroke-width:3.86249780654907px"/><line x1="498" y1="138.47" x2="538.08" y2="138.47" style="fill:none;stroke:#c13018;stroke-miterlimit:10;stroke-width:3.856px"/><line x1="498" y1="128.1" x2="538.08" y2="128.1" style="fill:none;stroke:#c13018;stroke-miterlimit:10;stroke-width:3.856px"/><line x1="498" y1="117.73" x2="538.08" y2="117.73" style="fill:none;stroke:#c13018;stroke-miterlimit:10;stroke-width:3.856px"/><line x1="498" y1="107.36" x2="538.08" y2="107.36" style="fill:none;stroke:#c13018;stroke-miterlimit:10;stroke-width:3.856px"/><line x1="498" y1="96.99" x2="514.54" y2="96.99" style="fill:none;stroke:#c13018;stroke-miterlimit:10;stroke-width:3.856px"/><path d="M536,93.26a5.61,5.61,0,0,1-5.59-5.59V77.18H495.67a5.61,5.61,0,0,0-5.6,5.59V141.5a5.61,5.61,0,0,0,5.6,5.59h44.74A5.61,5.61,0,0,0,546,141.5V93.26Z" style="fill:none;stroke:#c13018;stroke-miterlimit:10;stroke-width:3.856px"/><line x1="804" y1="138.47" x2="844.08" y2="138.47" style="fill:none;stroke:#91c54f;stroke-miterlimit:10;stroke-width:3.86249780654907px"/><line x1="804" y1="128.1" x2="844.08" y2="128.1" style="fill:none;stroke:#91c54f;stroke-miterlimit:10;stroke-width:3.86249780654907px"/><line x1="804" y1="117.73" x2="844.08" y2="117.73" style="fill:none;stroke:#91c54f;stroke-miterlimit:10;stroke-width:3.86249780654907px"/><line x1="804" y1="107.36" x2="844.08" y2="107.36" style="fill:none;stroke:#91c54f;stroke-miterlimit:10;stroke-width:3.86249780654907px"/><line x1="804" y1="96.99" x2="820.54" y2="96.99" style="fill:none;stroke:#91c54f;stroke-miterlimit:10;stroke-width:3.86249780654907px"/><path d="M842,93.26a5.61,5.61,0,0,1-5.59-5.59V77.18H801.67a5.61,5.61,0,0,0-5.6,5.59V141.5a5.61,5.61,0,0,0,5.6,5.59h44.74A5.61,5.61,0,0,0,852,141.5V93.26Z" style="fill:none;stroke:#91c54f;stroke-miterlimit:10;stroke-width:3.86249780654907px"/><rect x="330.12" y="170.95" width="104.21" height="73.51" rx="12" ry="12" style="fill:none;stroke:#3a5c84;stroke-miterlimit:10;stroke-width:5px"/><path d="M362.29,200.28a3.94,3.94,0,0,1-1.05,2.89.25.25,0,0,0-.05.27l1.29,2.7a.22.22,0,0,0,.24.14,3.92,3.92,0,0,1,4.2,3.78.25.25,0,0,0,.16.22l2.82,1H370a.2.2,0,0,0,.23-.08,3.78,3.78,0,0,1,.58-.55l0,0,.29-.2a1.67,1.67,0,0,1,.23-.12.24.24,0,0,1,.11-.06,3.75,3.75,0,0,1,1.5-.39,3.9,3.9,0,0,1,2.89,1,.2.2,0,0,0,.27,0l2.7-1.29h0a.22.22,0,0,0,.14-.23,3.89,3.89,0,0,1,2.5-3.93l.08,0,.15,0,.25-.08h0a3.66,3.66,0,0,1,.75-.1.26.26,0,0,0,.22-.17l1-2.82a.26.26,0,0,0-.07-.26,3.9,3.9,0,0,1-.3-5.64.23.23,0,0,0,0-.27l-.88-1.86h0l-.4-.84a.16.16,0,0,0-.07-.07h0l0,0a.13.13,0,0,0-.1,0h0a3.92,3.92,0,0,1-4.2-3.78.22.22,0,0,0-.16-.22l-2.82-1a.2.2,0,0,0-.26.07h0a4,4,0,0,1-.89.76l-.07,0-.26.14a3.9,3.9,0,0,1-4.41-.66.26.26,0,0,0-.27,0l-2.7,1.29a.23.23,0,0,0-.13.24,3.93,3.93,0,0,1-3.79,4.2.21.21,0,0,0-.22.16l-.69,1.95h0l-.31.88a.27.27,0,0,0,.07.27A3.9,3.9,0,0,1,362.29,200.28Zm6.13-4.77,0,0,.27-.22.19-.16L369,195a5.81,5.81,0,1,1,5.83,10l-.48.2h0a5.82,5.82,0,0,1-5.93-9.72Z" style="fill:#3a5c84"/><path d="M375.79,221.42a5,5,0,0,1-1.35,3.71.32.32,0,0,0-.06.35l1.66,3.46c.1.2.21.19.3.18a5,5,0,0,1,5.4,4.86.32.32,0,0,0,.2.28l3.63,1.28h.06a.24.24,0,0,0,.29-.11,4.58,4.58,0,0,1,.76-.7s0,0,0,0l.36-.25a2.19,2.19,0,0,1,.3-.16l.14-.08a5,5,0,0,1,5.64.86.27.27,0,0,0,.34,0l3.47-1.66h0a.3.3,0,0,0,.18-.3,5,5,0,0,1,1.28-3.73,5,5,0,0,1,1.92-1.32l.12-.05.19-.06.31-.09H401a5.26,5.26,0,0,1,1-.13.3.3,0,0,0,.28-.21l1.29-3.62a.32.32,0,0,0-.1-.34,5,5,0,0,1-.37-7.25.32.32,0,0,0,.05-.34L402,213.62h0l-.52-1.08a.34.34,0,0,0-.08-.09l0,0,0,0-.12,0h0a5,5,0,0,1-5.4-4.86.3.3,0,0,0-.21-.28L392,205.93a.28.28,0,0,0-.34.08h0a5.21,5.21,0,0,1-1.16,1l-.08,0-.34.19a4.91,4.91,0,0,1-1.95.51,5.06,5.06,0,0,1-3.71-1.36.32.32,0,0,0-.34,0L380.59,208a.32.32,0,0,0-.18.3,5,5,0,0,1-4.86,5.39.28.28,0,0,0-.28.21l-.89,2.51h0l-.4,1.13a.33.33,0,0,0,.09.34A5.06,5.06,0,0,1,375.79,221.42Zm7.88-6.13s0,0,.05,0l.34-.29c.09-.07.16-.14.25-.2l.11-.08a7.47,7.47,0,1,1,7.49,12.85,6.5,6.5,0,0,1-.61.25h0a7.47,7.47,0,0,1-7.61-12.49Z" style="fill:#3a5c84"/><path d="M381.21,188.1a2.67,2.67,0,0,1-.72,2,.17.17,0,0,0,0,.18l.88,1.84a.16.16,0,0,0,.16.1,2.65,2.65,0,0,1,2,.67,2.73,2.73,0,0,1,.89,1.9.17.17,0,0,0,.11.16l1.92.67h0a.14.14,0,0,0,.16-.06,2.34,2.34,0,0,1,.4-.37l0,0,.19-.13.16-.09.08,0a2.56,2.56,0,0,1,1-.26,2.63,2.63,0,0,1,2,.72.14.14,0,0,0,.18,0l1.84-.88h0a.16.16,0,0,0,.1-.16,2.62,2.62,0,0,1,.68-2,2.56,2.56,0,0,1,1-.7l.06,0,.1,0,.17-.05h0a2.25,2.25,0,0,1,.52-.07.17.17,0,0,0,.15-.11l.68-1.93a.16.16,0,0,0,0-.17,2.7,2.7,0,0,1-.92-1.88,2.64,2.64,0,0,1,.72-2,.19.19,0,0,0,0-.19l-.61-1.26h0l-.27-.57a.08.08,0,0,0-.05,0h0l0,0a.07.07,0,0,0-.06,0h0a2.65,2.65,0,0,1-2-.68,2.69,2.69,0,0,1-.89-1.9.16.16,0,0,0-.11-.15l-1.92-.68a.13.13,0,0,0-.18,0h0a2.8,2.8,0,0,1-.61.53l-.05,0-.18.1a2.62,2.62,0,0,1-1,.27,2.67,2.67,0,0,1-2-.72.15.15,0,0,0-.18,0l-1.84.88a.17.17,0,0,0-.1.16,2.67,2.67,0,0,1-2.58,2.86.16.16,0,0,0-.15.12l-.47,1.33h0l-.21.61a.18.18,0,0,0,.05.18A2.68,2.68,0,0,1,381.21,188.1Zm4.18-3.26,0,0,.18-.16a.69.69,0,0,0,.13-.11l.06,0a4,4,0,0,1,6,4.55,3.94,3.94,0,0,1-2.07,2.27l-.33.14h0a4,4,0,0,1-4-6.63Z" style="fill:#3a5c84"/><rect x="634.12" y="170.95" width="104.21" height="73.51" rx="12" ry="12" style="fill:none;stroke:#3a5c84;stroke-miterlimit:10;stroke-width:5px"/><path d="M666.29,200.28a3.94,3.94,0,0,1-1,2.89.25.25,0,0,0,0,.27l1.29,2.7a.22.22,0,0,0,.24.14,3.92,3.92,0,0,1,4.2,3.78.25.25,0,0,0,.16.22l2.82,1H674a.2.2,0,0,0,.23-.08,3.78,3.78,0,0,1,.58-.55l0,0,.29-.2a1.67,1.67,0,0,1,.23-.12.24.24,0,0,1,.11-.06,3.75,3.75,0,0,1,1.5-.39,3.9,3.9,0,0,1,2.89,1,.2.2,0,0,0,.27,0l2.7-1.29h0a.22.22,0,0,0,.14-.23,3.89,3.89,0,0,1,2.5-3.93l.08,0,.15,0,.25-.08h0a3.66,3.66,0,0,1,.75-.1.26.26,0,0,0,.22-.17l1-2.82a.26.26,0,0,0-.07-.26,3.9,3.9,0,0,1-.3-5.64.23.23,0,0,0,0-.27l-.88-1.86h0l-.4-.84a.16.16,0,0,0-.07-.07h0l0,0a.13.13,0,0,0-.1,0h0a3.92,3.92,0,0,1-4.2-3.78.22.22,0,0,0-.16-.22l-2.82-1a.2.2,0,0,0-.26.07h0a4,4,0,0,1-.89.76l-.07,0-.26.14a3.9,3.9,0,0,1-4.41-.66.26.26,0,0,0-.27,0l-2.7,1.29a.23.23,0,0,0-.13.24,3.93,3.93,0,0,1-3.79,4.2.21.21,0,0,0-.22.16l-.69,1.95h0l-.31.88a.27.27,0,0,0,.07.27A3.9,3.9,0,0,1,666.29,200.28Zm6.13-4.77,0,0,.27-.22.19-.16L673,195a5.81,5.81,0,1,1,5.83,10l-.48.2h0a5.82,5.82,0,0,1-5.93-9.72Z" style="fill:#3a5c84"/><path d="M679.79,221.42a5,5,0,0,1-1.35,3.71.32.32,0,0,0-.06.35l1.66,3.46c.1.2.21.19.3.18a5,5,0,0,1,5.4,4.86.32.32,0,0,0,.2.28l3.63,1.28h.06a.24.24,0,0,0,.29-.11,4.58,4.58,0,0,1,.76-.7s0,0,0,0l.36-.25a2.19,2.19,0,0,1,.3-.16l.14-.08a5,5,0,0,1,5.64.86.27.27,0,0,0,.34,0l3.47-1.66h0a.3.3,0,0,0,.18-.3,5,5,0,0,1,1.28-3.73,5,5,0,0,1,1.92-1.32l.12-.05.19-.06.31-.09h0a5.26,5.26,0,0,1,1-.13.3.3,0,0,0,.28-.21l1.29-3.62a.32.32,0,0,0-.1-.34,5,5,0,0,1-.37-7.25.32.32,0,0,0,0-.34L706,213.62h0l-.52-1.08a.34.34,0,0,0-.08-.09l0,0,0,0-.12,0h0a5,5,0,0,1-5.4-4.86.3.3,0,0,0-.21-.28L696,205.93a.28.28,0,0,0-.34.08h0a5.21,5.21,0,0,1-1.16,1l-.08,0-.34.19a4.91,4.91,0,0,1-1.95.51,5.06,5.06,0,0,1-3.71-1.36.32.32,0,0,0-.34,0L684.59,208a.32.32,0,0,0-.18.3,5,5,0,0,1-4.86,5.39.28.28,0,0,0-.28.21l-.89,2.51h0l-.4,1.13a.33.33,0,0,0,.09.34A5.06,5.06,0,0,1,679.79,221.42Zm7.88-6.13.05,0,.34-.29c.09-.07.16-.14.25-.2l.11-.08a7.47,7.47,0,1,1,7.49,12.85,6.5,6.5,0,0,1-.61.25h0a7.47,7.47,0,0,1-7.61-12.49Z" style="fill:#3a5c84"/><path d="M685.21,188.1a2.67,2.67,0,0,1-.72,2,.17.17,0,0,0,0,.18l.88,1.84a.16.16,0,0,0,.16.1,2.65,2.65,0,0,1,2,.67,2.73,2.73,0,0,1,.89,1.9.17.17,0,0,0,.11.16l1.92.67h0a.14.14,0,0,0,.16-.06,2.34,2.34,0,0,1,.4-.37l0,0,.19-.13.16-.09.08,0a2.56,2.56,0,0,1,1-.26,2.63,2.63,0,0,1,2,.72.14.14,0,0,0,.18,0l1.84-.88h0a.16.16,0,0,0,.1-.16,2.62,2.62,0,0,1,.68-2,2.56,2.56,0,0,1,1-.7l.06,0,.1,0,.17-.05h0a2.25,2.25,0,0,1,.52-.07.17.17,0,0,0,.15-.11l.68-1.93a.16.16,0,0,0-.05-.17,2.7,2.7,0,0,1-.92-1.88,2.64,2.64,0,0,1,.72-2,.19.19,0,0,0,0-.19l-.61-1.26h0l-.27-.57a.08.08,0,0,0,0,0h0l0,0a.07.07,0,0,0-.06,0h0a2.65,2.65,0,0,1-2-.68,2.69,2.69,0,0,1-.89-1.9.16.16,0,0,0-.11-.15l-1.92-.68a.13.13,0,0,0-.18,0h0a2.8,2.8,0,0,1-.61.53l0,0-.18.1a2.62,2.62,0,0,1-1,.27,2.67,2.67,0,0,1-2-.72.15.15,0,0,0-.18,0l-1.84.88a.17.17,0,0,0-.1.16,2.67,2.67,0,0,1-2.58,2.86.16.16,0,0,0-.15.12l-.47,1.33h0l-.21.61a.18.18,0,0,0,0,.18A2.68,2.68,0,0,1,685.21,188.1Zm4.18-3.26,0,0,.18-.16a.69.69,0,0,0,.13-.11l.06,0a4,4,0,0,1,6.05,4.55,3.94,3.94,0,0,1-2.07,2.27l-.33.14h0a4,4,0,0,1-4-6.63Z" style="fill:#3a5c84"/><path d="M111.74,235.56c-.44.32-.89.63-1.34.92l-.62.4c-.59.37-1.19.72-1.81,1l-.4.21A32.9,32.9,0,0,1,103.2,240L103,240c-.78.26-1.57.49-2.38.69h0c-.81.2-1.63.37-2.46.5l-.07,0c-.77.12-1.56.21-2.34.28l-.42,0c-.78.06-1.56.1-2.34.1s-1.59,0-2.37-.1l-.41,0c-.79-.07-1.58-.16-2.36-.29l-.11,0A32.27,32.27,0,0,1,82.92,240l-.15-.05c-.79-.27-1.57-.57-2.33-.9h0c-.72-.31-1.43-.66-2.13-1l-.27-.14c-.64-.35-1.27-.71-1.88-1.1l-.55-.35c-.56-.37-1.12-.76-1.67-1.17l-.17-.13.12-.06,9.89-5.4A5.3,5.3,0,0,0,86.52,225v-4.51l-.29-.34a21,21,0,0,1-3.75-7.78l-.12-.49-.42-.28a2.08,2.08,0,0,1-1-1.74v-4.43a2,2,0,0,1,.69-1.53l.42-.38v-7l0-.17A7.56,7.56,0,0,1,83.82,191c1.81-2.06,4.91-3.11,9.21-3.11s7.37,1,9.19,3.09a7.62,7.62,0,0,1,1.76,5.48v7.13l.41.37a2,2,0,0,1,.7,1.53v4.43a2.1,2.1,0,0,1-1.48,2l-.62.19-.2.62A23.25,23.25,0,0,1,99.66,219a14.88,14.88,0,0,1-.92,1.19l-.31.36v4.62a5.26,5.26,0,0,0,2.92,4.73l10.59,5.3a1.24,1.24,0,0,1,.2.1Z" style="fill:none;stroke:#636868;stroke-miterlimit:10;stroke-width:5.236px"/><circle cx="92.95" cy="205.89" r="35.55" style="fill:none;stroke:#636868;stroke-miterlimit:10;stroke-width:5.236px"/><path d="M987.74,235.56c-.44.32-.89.63-1.34.92l-.62.4c-.59.37-1.19.72-1.81,1l-.4.21A32.9,32.9,0,0,1,979.2,240L979,240c-.78.26-1.57.49-2.38.69h0c-.81.2-1.63.37-2.46.5l-.07,0c-.77.12-1.56.21-2.34.28l-.42,0c-.78.06-1.56.1-2.34.1s-1.59,0-2.37-.1l-.41,0c-.79-.07-1.58-.16-2.36-.29l-.11,0a32.27,32.27,0,0,1-4.86-1.21l-.15-.05c-.79-.27-1.57-.57-2.33-.9h0c-.72-.31-1.43-.66-2.13-1l-.27-.14c-.64-.35-1.27-.71-1.88-1.1l-.55-.35c-.56-.37-1.12-.76-1.67-1.17l-.17-.13.12-.06,9.89-5.4a5.3,5.3,0,0,0,2.76-4.64v-4.51l-.29-.34a21,21,0,0,1-3.75-7.78l-.12-.49-.42-.28a2.08,2.08,0,0,1-1-1.74v-4.43a2,2,0,0,1,.69-1.53l.42-.38v-7l0-.17a7.56,7.56,0,0,1,1.75-5.45c1.81-2.06,4.91-3.11,9.21-3.11s7.37,1,9.19,3.09a7.62,7.62,0,0,1,1.76,5.48v7.13l.41.37a2,2,0,0,1,.7,1.53v4.43a2.1,2.1,0,0,1-1.48,2l-.62.19-.2.62a23.25,23.25,0,0,1-3.12,6.29,14.88,14.88,0,0,1-.92,1.19l-.31.36v4.62a5.26,5.26,0,0,0,2.92,4.73l10.59,5.3a1.24,1.24,0,0,1,.2.1Z" style="fill:none;stroke:#636868;stroke-miterlimit:10;stroke-width:5.236px"/><circle cx="968.95" cy="205.89" r="35.55" style="fill:none;stroke:#636868;stroke-miterlimit:10;stroke-width:5.236px"/><path d="M184,51.87l3.39-20h5.13l4.05,10.68,4.29-10.68H206l3,20h-5.19l-1.47-11.52-4.83,11.52h-2.07l-4.62-11.52-1.71,11.52Z"/><path d="M226.07,46.05h-10a3.39,3.39,0,0,0,.84,2.25,2.7,2.7,0,0,0,2,.66,3.79,3.79,0,0,0,1.56-.36,2.23,2.23,0,0,0,.84-.9h4.59a6,6,0,0,1-1.62,2.76c-1,1-2.55,1.86-5.46,1.86a7.61,7.61,0,0,1-5.55-2,7,7,0,0,1-2-5.07,7.16,7.16,0,0,1,2-5.19,7.55,7.55,0,0,1,5.49-2,7.35,7.35,0,0,1,5.16,1.83,7.51,7.51,0,0,1,2.13,5.64Zm-4.41-2.76a3.22,3.22,0,0,0-.78-1.44,2.8,2.8,0,0,0-2-.72,2.58,2.58,0,0,0-2,.72,2.74,2.74,0,0,0-.72,1.44Z"/><path d="M229.7,47.43a6.87,6.87,0,0,0,1.92,1,6.25,6.25,0,0,0,1.86.33,2,2,0,0,0,1.23-.36.77.77,0,0,0,.24-.63.71.71,0,0,0-.24-.6,3,3,0,0,0-1.26-.48l-1.26-.3a4.31,4.31,0,0,1-2.34-1.17A3.24,3.24,0,0,1,229,42.9a4.79,4.79,0,0,1,1.26-3.27A6.77,6.77,0,0,1,235,38a11.07,11.07,0,0,1,4.29.87l-1.62,3.06a6.64,6.64,0,0,0-2.52-.66,2,2,0,0,0-1.11.27.72.72,0,0,0-.42.66.78.78,0,0,0,.57.75c.45.18.84.18,1.59.39l.87.24a5.67,5.67,0,0,1,2,1,3.79,3.79,0,0,1,1,2.67,4.48,4.48,0,0,1-1.35,3.33,7,7,0,0,1-5,1.68,9.89,9.89,0,0,1-5.4-1.56Z"/><path d="M252.53,38.46h4.8V51.87h-4.8V50.4a5,5,0,0,1-4.17,1.92,6.42,6.42,0,0,1-4.83-2.13,6.76,6.76,0,0,1-1.92-4.92,7.42,7.42,0,0,1,2.07-5.37A6.9,6.9,0,0,1,248.51,38a5.31,5.31,0,0,1,4,1.74Zm-5,4.5a3.14,3.14,0,0,0-1,2.19,3.09,3.09,0,0,0,.93,2.19,3.37,3.37,0,0,0,2.16.9,3.08,3.08,0,0,0,2.16-.93,2.91,2.91,0,0,0,.9-2.16,3,3,0,0,0-.93-2.19,3,3,0,0,0-4.26,0Z"/><path d="M263,30.18a2.7,2.7,0,1,1-2.7,2.7A2.69,2.69,0,0,1,263,30.18Zm2.4,8.28V58.74h-4.8V38.46Z"/><path d="M781.45,52.87l3.39-20H790l4,10.68,4.29-10.68h5.19l3,20h-5.19l-1.47-11.52L795,52.87h-2.07l-4.62-11.52-1.71,11.52Z"/><path d="M823.57,47.05h-10a3.39,3.39,0,0,0,.84,2.25,2.7,2.7,0,0,0,2,.66A3.79,3.79,0,0,0,818,49.6a2.23,2.23,0,0,0,.84-.9h4.59a6,6,0,0,1-1.62,2.76c-1,1-2.55,1.86-5.46,1.86a7.61,7.61,0,0,1-5.55-2,7,7,0,0,1-2-5.07,7.16,7.16,0,0,1,2-5.19,7.55,7.55,0,0,1,5.49-2,7.35,7.35,0,0,1,5.16,1.83,7.51,7.51,0,0,1,2.13,5.64Zm-4.41-2.76a3.22,3.22,0,0,0-.78-1.44,2.8,2.8,0,0,0-2-.72,2.58,2.58,0,0,0-1.95.72,2.74,2.74,0,0,0-.72,1.44Z"/><path d="M827.2,48.43a6.87,6.87,0,0,0,1.92,1,6.25,6.25,0,0,0,1.86.33,2,2,0,0,0,1.23-.36.77.77,0,0,0,.24-.63.71.71,0,0,0-.24-.6,3,3,0,0,0-1.26-.48l-1.26-.3a4.31,4.31,0,0,1-2.34-1.17,3.24,3.24,0,0,1-.87-2.31,4.79,4.79,0,0,1,1.26-3.27,6.77,6.77,0,0,1,4.8-1.62,11.07,11.07,0,0,1,4.29.87l-1.62,3.06a6.64,6.64,0,0,0-2.52-.66,2,2,0,0,0-1.11.27.72.72,0,0,0-.42.66.78.78,0,0,0,.57.75c.45.18.84.18,1.59.39l.87.24a5.67,5.67,0,0,1,2,1,3.79,3.79,0,0,1,1,2.67,4.48,4.48,0,0,1-1.35,3.33,7,7,0,0,1-5,1.68,9.89,9.89,0,0,1-5.4-1.56Z"/><path d="M850,39.46h4.8V52.87H850V51.4a5,5,0,0,1-4.17,1.92A6.42,6.42,0,0,1,841,51.19a6.76,6.76,0,0,1-1.92-4.92,7.42,7.42,0,0,1,2.07-5.37A6.9,6.9,0,0,1,846,39a5.31,5.31,0,0,1,4,1.74ZM845,44a3.14,3.14,0,0,0-1,2.19,3.09,3.09,0,0,0,.93,2.19,3.37,3.37,0,0,0,2.16.9,3.08,3.08,0,0,0,2.16-.93,2.91,2.91,0,0,0,.9-2.16,3,3,0,0,0-.93-2.19A3,3,0,0,0,845,44Z"/><path d="M860.53,31.18a2.7,2.7,0,1,1-2.7,2.7A2.69,2.69,0,0,1,860.53,31.18Zm2.4,8.28V59.74h-4.8V39.46Z"/><path d="M432.7,51.87l3.39-20h5.13l4,10.68,4.29-10.68h5.19l3,20h-5.19l-1.47-11.52-4.83,11.52h-2.07l-4.62-11.52-1.71,11.52Z"/><path d="M474.82,46.05h-10a3.39,3.39,0,0,0,.84,2.25,2.7,2.7,0,0,0,2,.66,3.79,3.79,0,0,0,1.56-.36,2.23,2.23,0,0,0,.84-.9h4.59A6,6,0,0,1,473,50.46c-1,1-2.55,1.86-5.46,1.86a7.61,7.61,0,0,1-5.55-2,7,7,0,0,1-2-5.07A7.16,7.16,0,0,1,462,40a7.55,7.55,0,0,1,5.49-2,7.35,7.35,0,0,1,5.16,1.83,7.51,7.51,0,0,1,2.13,5.64Zm-4.41-2.76a3.22,3.22,0,0,0-.78-1.44,2.8,2.8,0,0,0-2-.72,2.58,2.58,0,0,0-1.95.72,2.74,2.74,0,0,0-.72,1.44Z"/><path d="M478.45,47.43a6.87,6.87,0,0,0,1.92,1,6.25,6.25,0,0,0,1.86.33,2,2,0,0,0,1.23-.36.77.77,0,0,0,.24-.63.71.71,0,0,0-.24-.6,3,3,0,0,0-1.26-.48l-1.26-.3a4.31,4.31,0,0,1-2.34-1.17,3.24,3.24,0,0,1-.87-2.31A4.79,4.79,0,0,1,479,39.63a6.77,6.77,0,0,1,4.8-1.62,11.07,11.07,0,0,1,4.29.87l-1.62,3.06a6.64,6.64,0,0,0-2.52-.66,2,2,0,0,0-1.11.27.72.72,0,0,0-.42.66A.78.78,0,0,0,483,43c.45.18.84.18,1.59.39l.87.24a5.67,5.67,0,0,1,2,1,3.79,3.79,0,0,1,1,2.67,4.48,4.48,0,0,1-1.35,3.33,7,7,0,0,1-4.95,1.68,9.89,9.89,0,0,1-5.4-1.56Z"/><path d="M501.28,38.46h4.8V51.87h-4.8V50.4a5,5,0,0,1-4.17,1.92,6.42,6.42,0,0,1-4.83-2.13,6.76,6.76,0,0,1-1.92-4.92,7.42,7.42,0,0,1,2.07-5.37A6.9,6.9,0,0,1,497.26,38a5.31,5.31,0,0,1,4,1.74Zm-5,4.5a3.14,3.14,0,0,0-1,2.19,3.09,3.09,0,0,0,.93,2.19,3.37,3.37,0,0,0,2.16.9,3.08,3.08,0,0,0,2.16-.93,2.91,2.91,0,0,0,.9-2.16A3,3,0,0,0,500.5,43a3,3,0,0,0-4.26,0Z"/><path d="M511.78,30.18a2.7,2.7,0,1,1-2.7,2.7A2.69,2.69,0,0,1,511.78,30.18Zm2.4,8.28V58.74h-4.8V38.46Z"/><path d="M534.58,51.57a7.12,7.12,0,0,1-3.33.75,7.41,7.41,0,0,1-5.28-2,7,7,0,0,1-2.07-5,7.3,7.3,0,0,1,2.16-5.19,7.73,7.73,0,0,1,5.4-2,6.88,6.88,0,0,1,3.12.75v4a4.28,4.28,0,0,0-2.49-.87,3.15,3.15,0,0,0-2.34.93,3.26,3.26,0,0,0-.93,2.31,3.44,3.44,0,0,0,.84,2.25,3.26,3.26,0,0,0,2.46,1,3.63,3.63,0,0,0,2.46-.9Z"/><path d="M537.31,38.46h4.8v2.19A4.33,4.33,0,0,1,544,38.79a5.24,5.24,0,0,1,2.49-.54l1,.06v4.53a4.23,4.23,0,0,0-2.07-.48,3.14,3.14,0,0,0-2.19.72,4,4,0,0,0-1.08,3.06v5.73h-4.8Z"/><path d="M552,30.18a2.7,2.7,0,1,1-2.7,2.7A2.69,2.69,0,0,1,552,30.18Zm2.4,8.28V51.87h-4.8V38.46Z"/><path d="M562.45,58.74h-4.8V38.46h4.8v1.47A5,5,0,0,1,566.56,38a6.67,6.67,0,0,1,4.77,2,7.61,7.61,0,0,1-.12,10.5,6.44,6.44,0,0,1-4.59,1.86,5.71,5.71,0,0,1-4.17-1.74ZM563.23,43a3.27,3.27,0,0,0-.93,2.22,3.24,3.24,0,0,0,.93,2.13,3.07,3.07,0,0,0,2.16.9,2.9,2.9,0,0,0,2.13-.9,3.17,3.17,0,0,0,.93-2.13,3.27,3.27,0,0,0-.93-2.22,2.9,2.9,0,0,0-2.13-.9A3.07,3.07,0,0,0,563.23,43Z"/><path d="M581.44,42.39v9.48h-4.8V42.39h-1.53V38.46h1.53V34.05h4.8v4.41h2.73v3.93Z"/><path d="M596.35,38.46h4.8V51.87h-4.8V50.4a5,5,0,0,1-4.17,1.92,6.42,6.42,0,0,1-4.83-2.13,6.76,6.76,0,0,1-1.92-4.92,7.42,7.42,0,0,1,2.07-5.37A6.9,6.9,0,0,1,592.33,38a5.31,5.31,0,0,1,4,1.74Zm-5,4.5a3.14,3.14,0,0,0-1,2.19,3.09,3.09,0,0,0,.93,2.19,3.37,3.37,0,0,0,2.16.9,3.08,3.08,0,0,0,2.16-.93,2.91,2.91,0,0,0,.9-2.16,3,3,0,0,0-.93-2.19,3,3,0,0,0-4.26,0Z"/><path d="M609.76,42.39v9.48H605V42.39h-1.53V38.46H605V34.05h4.8v4.41h2.73v3.93Z"/><path d="M399.82,628.83a14.38,14.38,0,0,1-5.25,1.16,12.69,12.69,0,0,1-9-3.5A12.24,12.24,0,0,1,382,618a12.52,12.52,0,0,1,3.54-8.61,12.38,12.38,0,0,1,8.82-3.64,14.57,14.57,0,0,1,5.46,1.19v7.25a6.5,6.5,0,0,0-5.29-2.56,5.93,5.93,0,0,0-4.2,1.54,6.54,6.54,0,0,0-2,4.8,6.47,6.47,0,0,0,1.89,4.55,6.56,6.56,0,0,0,4.34,1.61,6.88,6.88,0,0,0,5.29-2.45Z"/><path d="M403.14,604h5.6v11.83a6.73,6.73,0,0,1,1.75-1.54,6.31,6.31,0,0,1,3.22-.77,6.22,6.22,0,0,1,4.62,1.68,5.45,5.45,0,0,1,1.47,4.37v9.94h-5.6v-7.91a4.65,4.65,0,0,0-.7-3,2.19,2.19,0,0,0-1.78-.67,3,3,0,0,0-2,.67,3.39,3.39,0,0,0-.95,2.55v8.4h-5.6Z"/><path d="M439.51,622.67H427.85a4,4,0,0,0,1,2.63,3.15,3.15,0,0,0,2.31.77,4.51,4.51,0,0,0,1.82-.42,2.57,2.57,0,0,0,1-1h5.36a7.15,7.15,0,0,1-1.89,3.22c-1.16,1.12-3,2.17-6.37,2.17a8.9,8.9,0,0,1-6.48-2.38,8.23,8.23,0,0,1-2.31-5.92,8.33,8.33,0,0,1,2.35-6.05,8.79,8.79,0,0,1,6.4-2.28,8.57,8.57,0,0,1,6,2.14,8.75,8.75,0,0,1,2.49,6.58Zm-5.15-3.22a3.78,3.78,0,0,0-.91-1.68,3.28,3.28,0,0,0-2.31-.84,3,3,0,0,0-2.27.84,3.12,3.12,0,0,0-.84,1.68Z"/><path d="M445.53,604.16a3.15,3.15,0,1,1-3.15,3.15A3.14,3.14,0,0,1,445.53,604.16Zm2.8,9.66v15.64h-5.6V613.82Z"/><path d="M468.73,622.67H457.08a4,4,0,0,0,1,2.63,3.15,3.15,0,0,0,2.31.77,4.51,4.51,0,0,0,1.82-.42,2.64,2.64,0,0,0,1-1h5.35a7,7,0,0,1-1.89,3.22c-1.15,1.12-3,2.17-6.37,2.17a8.88,8.88,0,0,1-6.47-2.38,8.19,8.19,0,0,1-2.31-5.92,8.36,8.36,0,0,1,2.34-6.05,8.83,8.83,0,0,1,6.41-2.28,8.58,8.58,0,0,1,6,2.14,8.77,8.77,0,0,1,2.48,6.58Zm-5.14-3.22a3.78,3.78,0,0,0-.91-1.68,3.29,3.29,0,0,0-2.31-.84,3,3,0,0,0-2.28.84,3.27,3.27,0,0,0-.84,1.68Z"/><path d="M481.12,624.28a8.09,8.09,0,0,0,2.24,1.16,7.41,7.41,0,0,0,2.17.38,2.33,2.33,0,0,0,1.43-.42.87.87,0,0,0,.28-.73.81.81,0,0,0-.28-.7,3.43,3.43,0,0,0-1.47-.56l-1.47-.35a5.08,5.08,0,0,1-2.73-1.37,3.79,3.79,0,0,1-1-2.69,5.57,5.57,0,0,1,1.47-3.82,7.92,7.92,0,0,1,5.6-1.89,12.73,12.73,0,0,1,5,1l-1.89,3.57a7.72,7.72,0,0,0-2.94-.77,2.35,2.35,0,0,0-1.29.31.84.84,0,0,0-.49.77.91.91,0,0,0,.66.88c.53.21,1,.21,1.86.45l1,.28a6.45,6.45,0,0,1,2.31,1.23,4.42,4.42,0,0,1,1.2,3.11A5.25,5.25,0,0,1,491.2,628c-1.82,1.82-4.48,2-5.78,2a11.6,11.6,0,0,1-6.3-1.82Z"/><path d="M512.24,622.67H500.58a4,4,0,0,0,1,2.63,3.15,3.15,0,0,0,2.31.77,4.51,4.51,0,0,0,1.82-.42,2.64,2.64,0,0,0,1-1H512a7.09,7.09,0,0,1-1.9,3.22c-1.15,1.12-3,2.17-6.37,2.17a8.88,8.88,0,0,1-6.47-2.38,8.19,8.19,0,0,1-2.31-5.92,8.36,8.36,0,0,1,2.34-6.05,8.83,8.83,0,0,1,6.41-2.28,8.58,8.58,0,0,1,6,2.14,8.75,8.75,0,0,1,2.49,6.58Zm-5.15-3.22a3.78,3.78,0,0,0-.91-1.68,3.29,3.29,0,0,0-2.31-.84,3,3,0,0,0-2.28.84,3.27,3.27,0,0,0-.84,1.68Z"/><path d="M527.28,629.11a8.24,8.24,0,0,1-3.88.88,8.65,8.65,0,0,1-6.16-2.38,8.21,8.21,0,0,1-2.42-5.85,8.53,8.53,0,0,1,2.52-6,9,9,0,0,1,6.3-2.38,8,8,0,0,1,3.64.87v4.69a5,5,0,0,0-2.9-1,3.67,3.67,0,0,0-2.73,1.08,3.83,3.83,0,0,0-1.09,2.7,4,4,0,0,0,1,2.62,3.82,3.82,0,0,0,2.87,1.19,4.2,4.2,0,0,0,2.87-1.05Z"/><path d="M530.47,613.82h5.6v2.55a5,5,0,0,1,2.2-2.17,6.19,6.19,0,0,1,2.91-.63c.14,0,.38,0,1.12.07v5.29a5,5,0,0,0-2.42-.56,3.63,3.63,0,0,0-2.55.84,4.72,4.72,0,0,0-1.26,3.57v6.68h-5.6Z"/><path d="M561.38,622.67H549.72a4,4,0,0,0,1,2.63,3.15,3.15,0,0,0,2.31.77,4.51,4.51,0,0,0,1.82-.42,2.64,2.64,0,0,0,1-1h5.35a7,7,0,0,1-1.89,3.22c-1.15,1.12-3,2.17-6.37,2.17a8.88,8.88,0,0,1-6.47-2.38,8.19,8.19,0,0,1-2.31-5.92,8.36,8.36,0,0,1,2.34-6.05,8.83,8.83,0,0,1,6.41-2.28,8.58,8.58,0,0,1,6,2.14,8.79,8.79,0,0,1,2.49,6.58Zm-5.15-3.22a3.78,3.78,0,0,0-.91-1.68,3.29,3.29,0,0,0-2.31-.84,3,3,0,0,0-2.28.84,3.27,3.27,0,0,0-.84,1.68Z"/><path d="M570.79,618.4v11.06h-5.6V618.4H563.4v-4.58h1.79v-5.15h5.6v5.15H574v4.58Z"/><path d="M588.18,613.82h5.6v15.64h-5.6v-1.71a5.84,5.84,0,0,1-4.86,2.24,7.49,7.49,0,0,1-5.64-2.49,7.9,7.9,0,0,1-2.24-5.74,8.64,8.64,0,0,1,2.42-6.26,8,8,0,0,1,5.63-2.21,6.2,6.2,0,0,1,4.69,2Zm3.08-8.05a5.46,5.46,0,0,1-1.54,3.81,7.34,7.34,0,0,1-9.1,0,5.55,5.55,0,0,1-1.54-3.81h3.61a2.4,2.4,0,0,0,.7,1.43,2.84,2.84,0,0,0,3.57,0,2.4,2.4,0,0,0,.7-1.43Zm-9,13.3a3.51,3.51,0,0,0,0,5.11,3.91,3.91,0,0,0,2.52,1.05,3.6,3.6,0,0,0,2.52-1.09,3.4,3.4,0,0,0,1.05-2.52,3.45,3.45,0,0,0-1.09-2.55,3.54,3.54,0,0,0-5,0Z"/><path d="M611.39,613.82v8.75a3,3,0,0,0,.84,2.27,2.89,2.89,0,0,0,2,.6,2.59,2.59,0,0,0,2-.67,2.9,2.9,0,0,0,.81-2.2v-8.75h5.6v9.76a5.37,5.37,0,0,1-1.51,4.2c-1.92,2-4.62,2.21-6.75,2.21-2.35,0-5.22-.25-7.07-2.24a5.63,5.63,0,0,1-1.47-4.17v-9.76Z"/><path d="M626.44,613.82H632v2a5.9,5.9,0,0,1,5-2.31,6.31,6.31,0,0,1,4.62,1.68c1.33,1.33,1.47,2.66,1.47,4.37v9.94h-5.6v-7.91c0-.91,0-2.27-.7-3a2.37,2.37,0,0,0-1.79-.67,3.05,3.05,0,0,0-2.06.74,3.58,3.58,0,0,0-.91,2.48v8.4h-5.6Z"/><path d="M649.71,604.16a3.15,3.15,0,1,1-3.15,3.15A3.14,3.14,0,0,1,649.71,604.16Zm2.8,9.66v15.64h-5.6V613.82Z"/><path d="M668.16,629.11a8.28,8.28,0,0,1-3.89.88,8.67,8.67,0,0,1-6.16-2.38,8.2,8.2,0,0,1-2.41-5.85,8.49,8.49,0,0,1,2.52-6,9,9,0,0,1,6.3-2.38,8,8,0,0,1,3.64.87v4.69a5.05,5.05,0,0,0-2.91-1,3.67,3.67,0,0,0-2.73,1.08,3.81,3.81,0,0,0-1.08,2.7,4,4,0,0,0,1,2.62,3.78,3.78,0,0,0,2.87,1.19,4.23,4.23,0,0,0,2.87-1.05Z"/><path d="M683.45,613.82h5.6v15.64h-5.6v-1.71a5.84,5.84,0,0,1-4.86,2.24A7.49,7.49,0,0,1,673,627.5a7.9,7.9,0,0,1-2.24-5.74,8.64,8.64,0,0,1,2.42-6.26,8,8,0,0,1,5.63-2.21,6.2,6.2,0,0,1,4.69,2Zm3.08-8.05a5.46,5.46,0,0,1-1.54,3.81,7.34,7.34,0,0,1-9.1,0,5.55,5.55,0,0,1-1.54-3.81H678a2.4,2.4,0,0,0,.7,1.43,2.84,2.84,0,0,0,3.57,0,2.4,2.4,0,0,0,.7-1.43Zm-9,13.3a3.51,3.51,0,0,0,0,5.11,3.91,3.91,0,0,0,2.52,1.05,3.6,3.6,0,0,0,2.52-1.09,3.4,3.4,0,0,0,1-2.52,3.45,3.45,0,0,0-1.09-2.55,3.54,3.54,0,0,0-5,0Z"/><circle cx="556.61" cy="484.97" r="17.47" style="fill:none;stroke:#f7931f;stroke-miterlimit:10;stroke-width:6.11437784099579px"/><rect x="484.98" y="521.65" width="72.49" height="5.24" rx="1.51" ry="1.51" transform="translate(-218.05 522.12) rotate(-45)" style="fill:#f7931f"/><rect x="503.76" y="540.43" width="3.49" height="14.85" rx="1.01" ry="1.01" transform="translate(-239.33 517.91) rotate(-45)" style="fill:#f7931f"/><rect x="510.2" y="534.69" width="3.49" height="18.23" rx="1.01" ry="1.01" transform="translate(-234.58 521.28) rotate(-45)" style="fill:#f7931f"/><rect x="515.88" y="529.01" width="3.49" height="18.23" rx="1.01" ry="1.01" transform="translate(-228.91 523.63) rotate(-45)" style="fill:#f7931f"/><rect x="445.39" y="448.04" width="177.66" height="125.33" rx="12" ry="12" style="fill:none;stroke:#c13018;stroke-miterlimit:10;stroke-width:7px"/><line x1="627.03" y1="512" x2="686" y2="512" style="fill:none;stroke:#c13018;stroke-miterlimit:10;stroke-width:7.11966701050947px"/><line x1="386" y1="512.5" x2="444.97" y2="512.5" style="fill:none;stroke:#c13018;stroke-miterlimit:10;stroke-width:7.11966701050947px"/><path d="M332.41,274.7v5.52h-4.32V263.55H335a5.75,5.75,0,0,1,4.22,1.5,5.17,5.17,0,0,1,1.55,4.05,5.44,5.44,0,0,1-1.47,4.15,5.53,5.53,0,0,1-4.15,1.45Zm0-3.5h1.45a2.87,2.87,0,0,0,1.83-.52,1.94,1.94,0,0,0,.55-1.53,2,2,0,0,0-.5-1.5,2.56,2.56,0,0,0-1.85-.6h-1.48Z"/><path d="M342.69,269.05h4v1.83a3.6,3.6,0,0,1,1.57-1.55,4.32,4.32,0,0,1,2.08-.45l.8.05v3.77a3.54,3.54,0,0,0-1.73-.4,2.63,2.63,0,0,0-1.82.6,3.38,3.38,0,0,0-.9,2.55v4.77h-4Z"/><path d="M363.66,278.75a7.64,7.64,0,0,1-10,0,5.75,5.75,0,0,1,0-8.22,7.64,7.64,0,0,1,10,0,5.75,5.75,0,0,1,0,8.22Zm-6.77-5.95a2.47,2.47,0,0,0,0,3.6,2.5,2.5,0,0,0,3.57,0,2.45,2.45,0,0,0,.78-1.77,2.73,2.73,0,0,0-.78-1.83,2.57,2.57,0,0,0-3.57,0Z"/><path d="M376.14,280a5.9,5.9,0,0,1-2.78.63,6.2,6.2,0,0,1-4.4-1.7,5.82,5.82,0,0,1-1.72-4.17,6.08,6.08,0,0,1,1.8-4.33,6.45,6.45,0,0,1,4.5-1.7,5.75,5.75,0,0,1,2.6.63v3.35a3.56,3.56,0,0,0-2.08-.73,2.62,2.62,0,0,0-1.95.78,2.7,2.7,0,0,0-.77,1.92,2.86,2.86,0,0,0,.7,1.88,2.7,2.7,0,0,0,2,.85,3.07,3.07,0,0,0,2.05-.75Z"/><path d="M390.26,275.38h-8.32a2.78,2.78,0,0,0,.7,1.87,2.25,2.25,0,0,0,1.65.55,3.07,3.07,0,0,0,1.3-.3,1.9,1.9,0,0,0,.7-.75h3.82a4.91,4.91,0,0,1-1.35,2.3,6.06,6.06,0,0,1-4.55,1.55,6.35,6.35,0,0,1-4.62-1.7,5.84,5.84,0,0,1-1.65-4.22,6,6,0,0,1,1.67-4.33,6.31,6.31,0,0,1,4.58-1.62,6.12,6.12,0,0,1,4.3,1.52,6.27,6.27,0,0,1,1.77,4.7Zm-3.67-2.3a2.66,2.66,0,0,0-.65-1.2,2.31,2.31,0,0,0-1.65-.6,2.14,2.14,0,0,0-1.63.6,2.36,2.36,0,0,0-.6,1.2Z"/><path d="M393.29,276.53a5.52,5.52,0,0,0,1.6.82,5,5,0,0,0,1.55.28,1.72,1.72,0,0,0,1-.3.64.64,0,0,0,.2-.53.58.58,0,0,0-.2-.5,2.56,2.56,0,0,0-1-.4l-1.05-.25a3.55,3.55,0,0,1-1.95-1,2.74,2.74,0,0,1-.72-1.93,4,4,0,0,1,1.05-2.72,5.62,5.62,0,0,1,4-1.35,9.31,9.31,0,0,1,3.57.72L400,272a5.51,5.51,0,0,0-2.1-.55,1.67,1.67,0,0,0-.92.23.59.59,0,0,0-.35.55.64.64,0,0,0,.47.62c.38.15.7.15,1.33.33l.72.2a4.71,4.71,0,0,1,1.65.87,3.17,3.17,0,0,1,.85,2.23,3.73,3.73,0,0,1-1.12,2.77,5.81,5.81,0,0,1-4.13,1.4,8.3,8.3,0,0,1-4.5-1.3Z"/><path d="M422.13,280.22h-4V279a4.11,4.11,0,0,1-3.38,1.6,5.36,5.36,0,0,1-3.92-1.55,6.34,6.34,0,0,1,0-8.87,5.72,5.72,0,0,1,3.95-1.5,4.41,4.41,0,0,1,3.33,1.45V262h4Zm-4.72-3.69a2.68,2.68,0,0,0,.85-1.9,2.9,2.9,0,0,0-.75-1.8,2.42,2.42,0,0,0-1.82-.75,2.46,2.46,0,0,0-1.78.72,2.74,2.74,0,0,0-.77,1.9,2.52,2.52,0,0,0,.77,1.75,2.48,2.48,0,0,0,1.78.75A2.73,2.73,0,0,0,417.41,276.53Z"/><path d="M436.73,275.38h-8.32a2.83,2.83,0,0,0,.7,1.87,2.25,2.25,0,0,0,1.65.55,3.07,3.07,0,0,0,1.3-.3,1.83,1.83,0,0,0,.7-.75h3.82a4.91,4.91,0,0,1-1.35,2.3,6,6,0,0,1-4.54,1.55,6.37,6.37,0,0,1-4.63-1.7,5.88,5.88,0,0,1-1.65-4.22,6,6,0,0,1,1.68-4.33,6.27,6.27,0,0,1,4.57-1.62,6.11,6.11,0,0,1,4.3,1.52,6.27,6.27,0,0,1,1.77,4.7Zm-3.67-2.3a2.66,2.66,0,0,0-.65-1.2,2.3,2.3,0,0,0-1.65-.6,2.12,2.12,0,0,0-1.62.6,2.21,2.21,0,0,0-.6,1.2Z"/><path d="M346.3,310a5.9,5.9,0,0,1-2.78.63,6.16,6.16,0,0,1-4.39-1.7,5.83,5.83,0,0,1-1.73-4.17,6.12,6.12,0,0,1,1.8-4.33,6.45,6.45,0,0,1,4.5-1.7,5.75,5.75,0,0,1,2.6.63v3.35a3.56,3.56,0,0,0-2.08-.73,2.62,2.62,0,0,0-2,.78,2.7,2.7,0,0,0-.77,1.92,2.86,2.86,0,0,0,.7,1.88,2.7,2.7,0,0,0,2.05.85,3.07,3.07,0,0,0,2.05-.75Z"/><path d="M348.57,299.05h4v1.83a3.61,3.61,0,0,1,1.58-1.55,4.28,4.28,0,0,1,2.07-.45l.8.05v3.77a3.52,3.52,0,0,0-1.72-.4,2.66,2.66,0,0,0-1.83.6,3.38,3.38,0,0,0-.9,2.55v4.77h-4Z"/><path d="M360.8,292.15a2.25,2.25,0,1,1-2.25,2.25A2.24,2.24,0,0,1,360.8,292.15Zm2,6.9v11.17h-4V299.05Z"/><path d="M369.52,316h-4v-16.9h4v1.23a4.17,4.17,0,0,1,3.43-1.6,5.55,5.55,0,0,1,4,1.62,6.35,6.35,0,0,1-.1,8.75A5.39,5.39,0,0,1,373,310.6a4.76,4.76,0,0,1-3.48-1.45Zm.65-13.12a2.51,2.51,0,0,0,0,3.62,2.55,2.55,0,0,0,1.8.75,2.41,2.41,0,0,0,1.78-.75,2.65,2.65,0,0,0,.77-1.77,2.71,2.71,0,0,0-.77-1.85,2.41,2.41,0,0,0-1.78-.75A2.55,2.55,0,0,0,370.17,302.83Z"/><path d="M385.35,302.33v7.89h-4v-7.89h-1.27v-3.28h1.27v-3.67h4v3.67h2.27v3.28Z"/><path d="M397.77,299.05h4v11.17h-4V309a4.17,4.17,0,0,1-3.47,1.6,5.37,5.37,0,0,1-4-1.77,5.68,5.68,0,0,1-1.6-4.1,6.2,6.2,0,0,1,1.73-4.48,5.74,5.74,0,0,1,4-1.57,4.4,4.4,0,0,1,3.35,1.45Zm-4.2,3.75a2.63,2.63,0,0,0-.8,1.83,2.56,2.56,0,0,0,.78,1.82,2.79,2.79,0,0,0,1.8.75,2.56,2.56,0,0,0,1.8-.77,2.43,2.43,0,0,0,.75-1.8,2.46,2.46,0,0,0-.78-1.83,2.55,2.55,0,0,0-3.55,0Z"/><path d="M404.52,299.05h4v1.83a3.61,3.61,0,0,1,1.58-1.55,4.28,4.28,0,0,1,2.07-.45l.8.05v3.77a3.52,3.52,0,0,0-1.72-.4,2.66,2.66,0,0,0-1.83.6,3.38,3.38,0,0,0-.9,2.55v4.77h-4Z"/><path d="M426.6,305.38h-8.33a2.83,2.83,0,0,0,.7,1.87,2.25,2.25,0,0,0,1.65.55,3.07,3.07,0,0,0,1.3-.3,1.83,1.83,0,0,0,.7-.75h3.83a5.09,5.09,0,0,1-1.35,2.3,6.09,6.09,0,0,1-4.55,1.55,6.37,6.37,0,0,1-4.63-1.7,5.88,5.88,0,0,1-1.65-4.22,6,6,0,0,1,1.68-4.33,6.27,6.27,0,0,1,4.57-1.62,6.11,6.11,0,0,1,4.3,1.52,6.24,6.24,0,0,1,1.78,4.7Zm-3.68-2.3a2.66,2.66,0,0,0-.65-1.2,2.3,2.3,0,0,0-1.65-.6,2.12,2.12,0,0,0-1.62.6,2.21,2.21,0,0,0-.6,1.2Z"/><path d="M642.41,274.7v5.52h-4.32V263.55H645a5.75,5.75,0,0,1,4.22,1.5,5.17,5.17,0,0,1,1.55,4.05,5.44,5.44,0,0,1-1.47,4.15,5.53,5.53,0,0,1-4.15,1.45Zm0-3.5h1.45a2.87,2.87,0,0,0,1.83-.52,1.94,1.94,0,0,0,.55-1.53,2,2,0,0,0-.5-1.5,2.56,2.56,0,0,0-1.85-.6h-1.48Z"/><path d="M652.69,269.05h4v1.83a3.6,3.6,0,0,1,1.57-1.55,4.32,4.32,0,0,1,2.08-.45l.8.05v3.77a3.54,3.54,0,0,0-1.73-.4,2.63,2.63,0,0,0-1.82.6,3.38,3.38,0,0,0-.9,2.55v4.77h-4Z"/><path d="M673.66,278.75a7.64,7.64,0,0,1-10,0,5.75,5.75,0,0,1,0-8.22,7.64,7.64,0,0,1,10,0,5.75,5.75,0,0,1,0,8.22Zm-6.77-5.95a2.47,2.47,0,0,0,0,3.6,2.5,2.5,0,0,0,3.57,0,2.45,2.45,0,0,0,.78-1.77,2.73,2.73,0,0,0-.78-1.83,2.57,2.57,0,0,0-3.57,0Z"/><path d="M686.14,280a5.9,5.9,0,0,1-2.78.63,6.2,6.2,0,0,1-4.4-1.7,5.82,5.82,0,0,1-1.72-4.17,6.08,6.08,0,0,1,1.8-4.33,6.45,6.45,0,0,1,4.5-1.7,5.75,5.75,0,0,1,2.6.63v3.35a3.56,3.56,0,0,0-2.08-.73,2.62,2.62,0,0,0-1.95.78,2.7,2.7,0,0,0-.77,1.92,2.86,2.86,0,0,0,.7,1.88,2.7,2.7,0,0,0,2.05.85,3.07,3.07,0,0,0,2-.75Z"/><path d="M700.26,275.38h-8.32a2.78,2.78,0,0,0,.7,1.87,2.25,2.25,0,0,0,1.65.55,3.07,3.07,0,0,0,1.3-.3,1.9,1.9,0,0,0,.7-.75h3.82a4.91,4.91,0,0,1-1.35,2.3,6.06,6.06,0,0,1-4.55,1.55,6.35,6.35,0,0,1-4.62-1.7,5.84,5.84,0,0,1-1.65-4.22,6,6,0,0,1,1.67-4.33,6.31,6.31,0,0,1,4.58-1.62,6.12,6.12,0,0,1,4.3,1.52,6.27,6.27,0,0,1,1.77,4.7Zm-3.67-2.3a2.66,2.66,0,0,0-.65-1.2,2.31,2.31,0,0,0-1.65-.6,2.14,2.14,0,0,0-1.63.6,2.36,2.36,0,0,0-.6,1.2Z"/><path d="M703.29,276.53a5.52,5.52,0,0,0,1.6.82,5,5,0,0,0,1.55.28,1.72,1.72,0,0,0,1-.3.64.64,0,0,0,.2-.53.58.58,0,0,0-.2-.5,2.56,2.56,0,0,0-1.05-.4l-1-.25a3.55,3.55,0,0,1-2-1,2.74,2.74,0,0,1-.72-1.93,4,4,0,0,1,1-2.72,5.62,5.62,0,0,1,4-1.35,9.31,9.31,0,0,1,3.57.72L710,272a5.51,5.51,0,0,0-2.1-.55,1.67,1.67,0,0,0-.92.23.59.59,0,0,0-.35.55.64.64,0,0,0,.47.62c.38.15.7.15,1.33.33l.72.2a4.71,4.71,0,0,1,1.65.87,3.17,3.17,0,0,1,.85,2.23,3.73,3.73,0,0,1-1.12,2.77,5.81,5.81,0,0,1-4.13,1.4,8.3,8.3,0,0,1-4.5-1.3Z"/><path d="M732.13,280.22h-4V279a4.08,4.08,0,0,1-3.37,1.6,5.36,5.36,0,0,1-3.92-1.55,6.34,6.34,0,0,1,0-8.87,5.72,5.72,0,0,1,3.95-1.5,4.38,4.38,0,0,1,3.32,1.45V262h4Zm-4.72-3.69a2.68,2.68,0,0,0,.85-1.9,2.9,2.9,0,0,0-.75-1.8,2.42,2.42,0,0,0-1.82-.75,2.46,2.46,0,0,0-1.78.72,2.74,2.74,0,0,0-.77,1.9,2.52,2.52,0,0,0,.77,1.75,2.48,2.48,0,0,0,1.78.75A2.73,2.73,0,0,0,727.41,276.53Z"/><path d="M746.73,275.38h-8.32a2.83,2.83,0,0,0,.7,1.87,2.25,2.25,0,0,0,1.65.55,3.07,3.07,0,0,0,1.3-.3,1.83,1.83,0,0,0,.7-.75h3.82a4.91,4.91,0,0,1-1.35,2.3,6,6,0,0,1-4.54,1.55,6.37,6.37,0,0,1-4.63-1.7,5.88,5.88,0,0,1-1.65-4.22,6,6,0,0,1,1.68-4.33,6.27,6.27,0,0,1,4.57-1.62,6.12,6.12,0,0,1,4.3,1.52,6.23,6.23,0,0,1,1.77,4.7Zm-3.67-2.3a2.66,2.66,0,0,0-.65-1.2,2.3,2.3,0,0,0-1.65-.6,2.12,2.12,0,0,0-1.62.6,2.21,2.21,0,0,0-.6,1.2Z"/><path d="M645.72,310.22h-4V309a4.09,4.09,0,0,1-3.37,1.6,5.38,5.38,0,0,1-3.93-1.55,6.17,6.17,0,0,1-1.79-4.45,6.08,6.08,0,0,1,1.82-4.42,5.71,5.71,0,0,1,3.95-1.5,4.39,4.39,0,0,1,3.32,1.45V292h4ZM641,306.53a2.72,2.72,0,0,0,.85-1.9,2.9,2.9,0,0,0-.75-1.8,2.57,2.57,0,0,0-3.6,0,2.75,2.75,0,0,0-.78,1.9,2.62,2.62,0,0,0,2.55,2.5A2.78,2.78,0,0,0,641,306.53Z"/><path d="M660.32,305.38H652a2.78,2.78,0,0,0,.7,1.87,2.25,2.25,0,0,0,1.65.55,3.07,3.07,0,0,0,1.3-.3,1.9,1.9,0,0,0,.7-.75h3.82a4.91,4.91,0,0,1-1.35,2.3,6.06,6.06,0,0,1-4.55,1.55,6.35,6.35,0,0,1-4.62-1.7,5.88,5.88,0,0,1-1.65-4.22,6,6,0,0,1,1.67-4.33,6.31,6.31,0,0,1,4.58-1.62,6.12,6.12,0,0,1,4.3,1.52,6.27,6.27,0,0,1,1.77,4.7Zm-3.67-2.3a2.66,2.66,0,0,0-.65-1.2,2.31,2.31,0,0,0-1.65-.6,2.14,2.14,0,0,0-1.63.6,2.27,2.27,0,0,0-.59,1.2Z"/><path d="M671.07,310a5.87,5.87,0,0,1-2.77.63,6.2,6.2,0,0,1-4.4-1.7,5.82,5.82,0,0,1-1.72-4.17A6.11,6.11,0,0,1,664,300.4a6.45,6.45,0,0,1,4.5-1.7,5.75,5.75,0,0,1,2.6.63v3.35A3.51,3.51,0,0,0,669,302a2.62,2.62,0,0,0-2,.78,2.71,2.71,0,0,0-.78,1.92,2.91,2.91,0,0,0,.7,1.88,2.73,2.73,0,0,0,2,.85,3,3,0,0,0,2.05-.75Z"/><path d="M673.35,299.05h4v1.83a3.6,3.6,0,0,1,1.57-1.55,4.32,4.32,0,0,1,2.08-.45l.8.05v3.77a3.54,3.54,0,0,0-1.73-.4,2.63,2.63,0,0,0-1.82.6,3.38,3.38,0,0,0-.9,2.55v4.77h-4Z"/><path d="M685.57,292.15a2.25,2.25,0,1,1-2.25,2.25A2.24,2.24,0,0,1,685.57,292.15Zm2,6.9v11.17h-4V299.05Z"/><path d="M694.3,316h-4v-16.9h4v1.23a4.15,4.15,0,0,1,3.42-1.6,5.56,5.56,0,0,1,4,1.62,6.35,6.35,0,0,1-.1,8.75,5.39,5.39,0,0,1-3.83,1.55,4.75,4.75,0,0,1-3.47-1.45Zm.65-13.12a2.72,2.72,0,0,0-.78,1.85,2.66,2.66,0,0,0,.78,1.77,2.52,2.52,0,0,0,1.8.75,2.38,2.38,0,0,0,1.77-.75,2.61,2.61,0,0,0,.78-1.77,2.72,2.72,0,0,0-.78-1.85,2.38,2.38,0,0,0-1.77-.75A2.52,2.52,0,0,0,695,302.83Z"/><path d="M710.12,302.33v7.89h-4v-7.89h-1.28v-3.28h1.28v-3.67h4v3.67h2.28v3.28Z"/><path d="M722.55,299.05h4v11.17h-4V309a4.2,4.2,0,0,1-3.48,1.6,5.35,5.35,0,0,1-4-1.77,5.64,5.64,0,0,1-1.6-4.1,6.19,6.19,0,0,1,1.72-4.48,5.76,5.76,0,0,1,4-1.57,4.41,4.41,0,0,1,3.35,1.45Zm-4.2,3.75a2.63,2.63,0,0,0-.8,1.83,2.55,2.55,0,0,0,.77,1.82,2.83,2.83,0,0,0,1.8.75,2.56,2.56,0,0,0,1.8-.77,2.43,2.43,0,0,0,.75-1.8,2.49,2.49,0,0,0-.77-1.83,2.57,2.57,0,0,0-1.8-.72A2.54,2.54,0,0,0,718.35,302.8Z"/><path d="M729.3,299.05h4v1.83a3.6,3.6,0,0,1,1.57-1.55,4.32,4.32,0,0,1,2.08-.45l.8.05v3.77a3.54,3.54,0,0,0-1.73-.4,2.63,2.63,0,0,0-1.82.6,3.38,3.38,0,0,0-.9,2.55v4.77h-4Z"/><path d="M751.37,305.38h-8.32a2.78,2.78,0,0,0,.7,1.87,2.25,2.25,0,0,0,1.65.55,3.07,3.07,0,0,0,1.3-.3,1.9,1.9,0,0,0,.7-.75h3.82a4.91,4.91,0,0,1-1.35,2.3,6.06,6.06,0,0,1-4.55,1.55,6.35,6.35,0,0,1-4.62-1.7,5.84,5.84,0,0,1-1.65-4.22,6,6,0,0,1,1.67-4.33,6.31,6.31,0,0,1,4.58-1.62,6.12,6.12,0,0,1,4.3,1.52,6.27,6.27,0,0,1,1.77,4.7Zm-3.67-2.3a2.66,2.66,0,0,0-.65-1.2,2.31,2.31,0,0,0-1.65-.6,2.14,2.14,0,0,0-1.63.6,2.36,2.36,0,0,0-.6,1.2Z"/></svg>