<svg id="Layer_1" data-name="Layer 1" xmlns="http://www.w3.org/2000/svg" viewBox="0 0 747 698"><title>Capitolul12</title><rect x="249.56" y="117.96" width="84" height="84" rx="12" ry="12" style="fill:none;stroke:#a2b969;stroke-miterlimit:10;stroke-width:5.236px"/><line x1="286.14" y1="117.96" x2="273.94" y2="149.12" style="fill:none;stroke:#a2b969;stroke-miterlimit:10;stroke-width:5.236px"/><circle cx="272.59" cy="153.18" r="6.77" style="fill:none;stroke:#a2b969;stroke-miterlimit:10;stroke-width:5.236px"/><circle cx="311.88" cy="147.76" r="6.77" style="fill:none;stroke:#a2b969;stroke-miterlimit:10;stroke-width:5.236px"/><circle cx="305.1" cy="176.21" r="6.77" style="fill:none;stroke:#a2b969;stroke-miterlimit:10;stroke-width:5.236px"/><line x1="333.56" y1="176.21" x2="309.17" y2="176.21" style="fill:none;stroke:#a2b969;stroke-miterlimit:10;stroke-width:5.236px"/><line x1="332.2" y1="128.8" x2="311.88" y2="128.8" style="fill:none;stroke:#a2b969;stroke-miterlimit:10;stroke-width:5.236px"/><line x1="311.88" y1="143.7" x2="311.88" y2="126.09" style="fill:none;stroke:#a2b969;stroke-miterlimit:10;stroke-width:5.236px"/><rect x="203.94" y="471.5" width="9" height="38" rx="4.5" ry="4.5" style="fill:#3a5c84"/><rect x="286.94" y="221.5" width="9" height="38" rx="4.5" ry="4.5" style="fill:#3a5c84"/><rect x="501.5" y="331.5" width="9" height="38" rx="4.5" ry="4.5" transform="translate(856.5 -155.5) rotate(90)" style="fill:#3a5c84"/><rect x="130.94" y="281.37" width="321.56" height="121.78" rx="12" ry="12" style="fill:none;stroke:#f4c240;stroke-miterlimit:10;stroke-width:5.3872032707087px"/><rect x="31" y="19.5" width="681.5" height="436.5" rx="12" ry="12" style="fill:none;stroke:#3a5c84;stroke-miterlimit:10;stroke-width:6.76122892386154px"/><path d="M169.16,341.42a7,7,0,0,0,4.59,2,2.63,2.63,0,0,0,2-.69,1.79,1.79,0,0,0,.51-1.26,1.56,1.56,0,0,0-.57-1.2,7.21,7.21,0,0,0-2.58-1.05l-1.35-.42a6.54,6.54,0,0,1-2.88-1.62,5,5,0,0,1-1.14-3.54,6.54,6.54,0,0,1,1.83-4.83,7.05,7.05,0,0,1,5.13-1.89,14.06,14.06,0,0,1,6.18,1.62l-2.07,4.05a5.28,5.28,0,0,0-3.42-1.35,2.49,2.49,0,0,0-1.71.6,1.48,1.48,0,0,0-.51,1.08,1.34,1.34,0,0,0,.27.9,3.28,3.28,0,0,0,1.74.9l1.59.48a7.64,7.64,0,0,1,3.63,2,4.72,4.72,0,0,1,1.29,3.57,6.78,6.78,0,0,1-1.89,5,7.76,7.76,0,0,1-5.91,2,10.7,10.7,0,0,1-3.93-.66,14,14,0,0,1-3-1.59Z"/><path d="M186.92,325.73a2.7,2.7,0,1,1-2.7,2.7A2.69,2.69,0,0,1,186.92,325.73Zm2.4,8.28v13.41h-4.8V334Z"/><path d="M193.46,343a6.87,6.87,0,0,0,1.92,1,6.25,6.25,0,0,0,1.86.33,2,2,0,0,0,1.23-.36.77.77,0,0,0,.24-.63.71.71,0,0,0-.24-.6,3,3,0,0,0-1.26-.48l-1.26-.3a4.31,4.31,0,0,1-2.34-1.17,3.24,3.24,0,0,1-.87-2.31,4.79,4.79,0,0,1,1.26-3.27,6.77,6.77,0,0,1,4.8-1.62,11.07,11.07,0,0,1,4.29.87l-1.62,3.06a6.64,6.64,0,0,0-2.52-.66,2,2,0,0,0-1.11.27.72.72,0,0,0-.42.66.78.78,0,0,0,.57.75c.45.18.84.18,1.59.39l.87.24a5.67,5.67,0,0,1,2,1.05,3.79,3.79,0,0,1,1,2.67,4.48,4.48,0,0,1-1.35,3.33,7,7,0,0,1-4.95,1.68,9.89,9.89,0,0,1-5.4-1.56Z"/><path d="M211.22,337.94v9.48h-4.8v-9.48h-1.53V334h1.53V329.6h4.8V334H214v3.93Z"/><path d="M230,341.6H220a3.39,3.39,0,0,0,.84,2.25,2.7,2.7,0,0,0,2,.66,3.79,3.79,0,0,0,1.56-.36,2.23,2.23,0,0,0,.84-.9h4.59a6,6,0,0,1-1.62,2.76c-1,1-2.55,1.86-5.46,1.86a7.61,7.61,0,0,1-5.55-2,7,7,0,0,1-2-5.07,7.16,7.16,0,0,1,2-5.19,7.55,7.55,0,0,1,5.49-1.95,7.35,7.35,0,0,1,5.16,1.83,7.51,7.51,0,0,1,2.13,5.64Zm-4.41-2.76a3.22,3.22,0,0,0-.78-1.44,2.8,2.8,0,0,0-2-.72,2.58,2.58,0,0,0-2,.72,2.74,2.74,0,0,0-.72,1.44Z"/><path d="M232.73,334h4.8v1.62a5.15,5.15,0,0,1,4-1.86,5.46,5.46,0,0,1,2.58.6,4.19,4.19,0,0,1,1.86,1.92,4.71,4.71,0,0,1,1.83-1.86,5.44,5.44,0,0,1,2.79-.66,5.33,5.33,0,0,1,3.72,1.23,4.93,4.93,0,0,1,1.26,3.69v8.73h-4.8v-6.63c0-1.41-.15-2.37-.69-2.88a1.75,1.75,0,0,0-1.26-.45,1.94,1.94,0,0,0-1.41.54,3.43,3.43,0,0,0-.87,2.55v6.87h-4.8v-6.63a4.29,4.29,0,0,0-.63-2.88,1.86,1.86,0,0,0-1.44-.54,1.69,1.69,0,0,0-1.32.48,4,4,0,0,0-.84,2.94v6.63h-4.8Z"/><path d="M281.09,347.42h-4.8V346a4.92,4.92,0,0,1-4.05,1.92,6.42,6.42,0,0,1-4.71-1.86,7.4,7.4,0,0,1-2.16-5.34,7.31,7.31,0,0,1,2.19-5.31,6.86,6.86,0,0,1,4.74-1.8,5.31,5.31,0,0,1,4,1.74v-9.75h4.8ZM275.42,343a3.22,3.22,0,0,0,1-2.28,3.51,3.51,0,0,0-.9-2.16,3.08,3.08,0,0,0-4.32,0,3.29,3.29,0,0,0-.93,2.28,3,3,0,0,0,.93,2.1,3,3,0,0,0,2.13.9A3.28,3.28,0,0,0,275.42,343Z"/><path d="M298.61,341.6h-10a3.39,3.39,0,0,0,.84,2.25,2.7,2.7,0,0,0,2,.66,3.79,3.79,0,0,0,1.56-.36,2.23,2.23,0,0,0,.84-.9h4.59a6,6,0,0,1-1.62,2.76c-1,1-2.55,1.86-5.46,1.86a7.61,7.61,0,0,1-5.55-2,7,7,0,0,1-2-5.07,7.16,7.16,0,0,1,2-5.19,7.55,7.55,0,0,1,5.49-1.95,7.35,7.35,0,0,1,5.16,1.83,7.51,7.51,0,0,1,2.13,5.64Zm-4.41-2.76a3.22,3.22,0,0,0-.78-1.44,2.8,2.8,0,0,0-2-.72,2.58,2.58,0,0,0-1.95.72,2.74,2.74,0,0,0-.72,1.44Z"/><path d="M321.86,345.65a9.18,9.18,0,0,1-12,0,6.92,6.92,0,0,1,0-9.87,8.37,8.37,0,0,1,6-2.22,8.47,8.47,0,0,1,6,2.22,6.92,6.92,0,0,1,0,9.87Zm-8.13-7.14a3.06,3.06,0,0,0,2.16,5.22,3.05,3.05,0,0,0,2.13-.9,3,3,0,0,0,.93-2.13,3.26,3.26,0,0,0-.93-2.19,3.08,3.08,0,0,0-4.29,0Z"/><path d="M331.49,354.29h-4.8V334h4.8v1.47a5,5,0,0,1,4.11-1.92,6.67,6.67,0,0,1,4.77,1.95,7.61,7.61,0,0,1-.12,10.5,6.44,6.44,0,0,1-4.59,1.86,5.71,5.71,0,0,1-4.17-1.74Zm.78-15.75a3.27,3.27,0,0,0-.93,2.22,3.24,3.24,0,0,0,.93,2.13,3.07,3.07,0,0,0,2.16.9,2.9,2.9,0,0,0,2.13-.9,3.17,3.17,0,0,0,.93-2.13,3.27,3.27,0,0,0-.93-2.22,2.9,2.9,0,0,0-2.13-.9A3.07,3.07,0,0,0,332.27,338.54Z"/><path d="M359.39,341.6h-10a3.39,3.39,0,0,0,.84,2.25,2.7,2.7,0,0,0,2,.66,3.79,3.79,0,0,0,1.56-.36,2.23,2.23,0,0,0,.84-.9h4.59a6,6,0,0,1-1.62,2.76c-1,1-2.55,1.86-5.46,1.86a7.61,7.61,0,0,1-5.55-2,7,7,0,0,1-2-5.07,7.16,7.16,0,0,1,2-5.19,7.55,7.55,0,0,1,5.49-1.95,7.35,7.35,0,0,1,5.16,1.83,7.51,7.51,0,0,1,2.13,5.64ZM355,338.84a3.22,3.22,0,0,0-.78-1.44,2.8,2.8,0,0,0-2-.72,2.58,2.58,0,0,0-2,.72,2.74,2.74,0,0,0-.72,1.44Z"/><path d="M362.15,334H367v2.19a4.33,4.33,0,0,1,1.89-1.86,5.24,5.24,0,0,1,2.49-.54l1,.06v4.53a4.23,4.23,0,0,0-2.07-.48,3.14,3.14,0,0,0-2.19.72,4,4,0,0,0-1.08,3.06v5.73h-4.8Z"/><path d="M384.8,334h4.8v13.41h-4.8V346a5,5,0,0,1-4.17,1.92,6.42,6.42,0,0,1-4.83-2.13,6.76,6.76,0,0,1-1.92-4.92,7.42,7.42,0,0,1,2.07-5.37,6.9,6.9,0,0,1,4.83-1.89,5.31,5.31,0,0,1,4,1.74Zm-5,4.5a3.14,3.14,0,0,0-1,2.19,3.09,3.09,0,0,0,.93,2.19,3.37,3.37,0,0,0,2.16.9,3.08,3.08,0,0,0,2.16-.93,2.91,2.91,0,0,0,.9-2.16,3,3,0,0,0-.93-2.19,3,3,0,0,0-4.26,0Z"/><path d="M392.9,334h4.8v2.19a4.33,4.33,0,0,1,1.89-1.86,5.24,5.24,0,0,1,2.49-.54l1,.06v4.53a4.23,4.23,0,0,0-2.07-.48,3.14,3.14,0,0,0-2.19.72,4,4,0,0,0-1.08,3.06v5.73h-4.8Z"/><path d="M419.39,341.6h-10a3.39,3.39,0,0,0,.84,2.25,2.7,2.7,0,0,0,2,.66,3.79,3.79,0,0,0,1.56-.36,2.23,2.23,0,0,0,.84-.9h4.59a6,6,0,0,1-1.62,2.76c-1,1-2.55,1.86-5.46,1.86a7.61,7.61,0,0,1-5.55-2,7,7,0,0,1-2-5.07,7.16,7.16,0,0,1,2-5.19,7.55,7.55,0,0,1,5.49-1.95,7.35,7.35,0,0,1,5.16,1.83,7.51,7.51,0,0,1,2.13,5.64ZM415,338.84a3.22,3.22,0,0,0-.78-1.44,2.8,2.8,0,0,0-2-.72,2.58,2.58,0,0,0-2,.72,2.74,2.74,0,0,0-.72,1.44Z"/><path d="M86,155.88h7.5v-7.47h5.22v20H93.53v-8.1H86v8.1H80.84v-20H86Z"/><path d="M112.88,155h4.8v13.41h-4.8V167a5,5,0,0,1-4.17,1.92,6.42,6.42,0,0,1-4.83-2.13,6.76,6.76,0,0,1-1.92-4.92,7.42,7.42,0,0,1,2.07-5.37,6.9,6.9,0,0,1,4.83-1.89,5.31,5.31,0,0,1,4,1.74Zm-5,4.5a3.14,3.14,0,0,0-1,2.19,3.09,3.09,0,0,0,.93,2.19,3.37,3.37,0,0,0,2.16.9,3.08,3.08,0,0,0,2.16-.93,2.91,2.91,0,0,0,.9-2.16,3,3,0,0,0-.93-2.19,3,3,0,0,0-4.26,0Z"/><path d="M121,155h4.8v2.19a4.33,4.33,0,0,1,1.89-1.86,5.24,5.24,0,0,1,2.49-.54l1,.06v4.53a4.23,4.23,0,0,0-2.07-.48,3.14,3.14,0,0,0-2.19.72,4,4,0,0,0-1.08,3.06v5.73H121Z"/><path d="M148.43,168.42h-4.8V167a4.92,4.92,0,0,1-4,1.92,6.42,6.42,0,0,1-4.71-1.86,7.4,7.4,0,0,1-2.16-5.34,7.31,7.31,0,0,1,2.19-5.31,6.86,6.86,0,0,1,4.74-1.8,5.31,5.31,0,0,1,4,1.74v-9.75h4.8ZM142.76,164a3.22,3.22,0,0,0,1-2.28,3.51,3.51,0,0,0-.9-2.16,3.08,3.08,0,0,0-4.32,0,3.29,3.29,0,0,0-.93,2.28,3,3,0,0,0,.93,2.1,3,3,0,0,0,2.13.9A3.28,3.28,0,0,0,142.76,164Z"/><path d="M155.45,155l3.18,7.08L162,155H165l3.39,7.29,3.36-7.29h5.34l-7,13.41h-3.24L163.43,161l-3.21,7.38H157L150.08,155Z"/><path d="M188,155h4.8v13.41H188V167a5,5,0,0,1-4.17,1.92,6.42,6.42,0,0,1-4.83-2.13,6.76,6.76,0,0,1-1.92-4.92,7.42,7.42,0,0,1,2.07-5.37,6.9,6.9,0,0,1,4.83-1.89,5.31,5.31,0,0,1,4,1.74Zm-5,4.5a3.14,3.14,0,0,0-1,2.19,3.09,3.09,0,0,0,.93,2.19,3.37,3.37,0,0,0,2.16.9,3.08,3.08,0,0,0,2.16-.93,2.91,2.91,0,0,0,.9-2.16,3,3,0,0,0-.93-2.19,3,3,0,0,0-4.26,0Z"/><path d="M196.07,155h4.8v2.19a4.33,4.33,0,0,1,1.89-1.86,5.24,5.24,0,0,1,2.49-.54l1,.06v4.53a4.23,4.23,0,0,0-2.07-.48,3.14,3.14,0,0,0-2.19.72,4,4,0,0,0-1.08,3.06v5.73h-4.8Z"/><path d="M222.56,162.6h-10a3.39,3.39,0,0,0,.84,2.25,2.7,2.7,0,0,0,2,.66,3.79,3.79,0,0,0,1.56-.36,2.23,2.23,0,0,0,.84-.9h4.59a6,6,0,0,1-1.62,2.76c-1,1-2.55,1.86-5.46,1.86a7.61,7.61,0,0,1-5.55-2,7,7,0,0,1-2-5.07,7.16,7.16,0,0,1,2-5.19,7.55,7.55,0,0,1,5.49-1.95,7.35,7.35,0,0,1,5.16,1.83,7.51,7.51,0,0,1,2.13,5.64Zm-4.41-2.76a3.22,3.22,0,0,0-.78-1.44,2.8,2.8,0,0,0-2-.72,2.58,2.58,0,0,0-1.95.72,2.74,2.74,0,0,0-.72,1.44Z"/><path d="M349.23,50v23.4h-7.79V50h-6.39V43.34h20.57V50Z"/><path d="M380.64,72.54A18.49,18.49,0,0,1,373.89,74a16.31,16.31,0,0,1-11.61-4.5,15.72,15.72,0,0,1-4.55-10.93,15.76,15.76,0,0,1,15.89-15.75,18.51,18.51,0,0,1,7,1.53v9.31a8.37,8.37,0,0,0-6.8-3.28,7.58,7.58,0,0,0-5.4,2,8.4,8.4,0,0,0-2.61,6.16,7.69,7.69,0,0,0,8,7.92,8.81,8.81,0,0,0,6.8-3.15Z"/><path d="M385.59,73.36v-30H397.2c2.16,0,4.72.32,6.57,2.34a8.16,8.16,0,0,1,1.84,5.63,7.79,7.79,0,0,1-.85,3.69,4.76,4.76,0,0,1-2.43,2.34,6.6,6.6,0,0,1,6.12,7.29,8.13,8.13,0,0,1-2.21,5.89c-1.62,1.67-4.45,2.84-8.14,2.84Zm7.78-18.18h1.44a4.1,4.1,0,0,0,3-1,2.87,2.87,0,0,0,.72-2,3.07,3.07,0,0,0-.72-2,4.1,4.1,0,0,0-3-.9h-1.44Zm0,12.1h1.76c2.16,0,4-.23,4.81-1.22a2.91,2.91,0,0,0,.63-1.93,3.06,3.06,0,0,0-.76-2.16c-.95-.94-2.88-1-4.82-1h-1.62Z"/><rect x="151.85" y="521.75" width="112" height="69.85" rx="12" ry="12" style="fill:none;stroke:#eb6a38;stroke-miterlimit:10;stroke-width:5.236px"/><line x1="154.26" y1="545.84" x2="261.44" y2="545.84" style="fill:none;stroke:#eb6a38;stroke-miterlimit:10;stroke-width:5.236px"/><circle cx="232.54" cy="534.4" r="3.61" style="fill:#eb6a38"/><ellipse cx="241.76" cy="534.4" rx="3.42" ry="3.61" style="fill:#eb6a38"/><circle cx="250.6" cy="534.4" r="3.61" style="fill:#eb6a38"/><rect x="192.19" y="552" width="7.23" height="20.47" rx="3" ry="3" transform="translate(-340.21 303.13) rotate(-45)" style="fill:#eb6a38"/><rect x="185.57" y="568.26" width="20.47" height="7.23" rx="3" ry="3" transform="translate(-347.02 305.95) rotate(-45)" style="fill:#eb6a38"/><rect x="211.46" y="572.94" width="20.47" height="7.23" rx="3" ry="3" style="fill:#eb6a38"/><path d="M161.21,634.85H154l-1.35,3.36h-5.49l7.68-20h5.67l7.53,20h-5.55Zm-1.38-4-2.25-6.48-2.19,6.48Z"/><path d="M174.65,645.08h-4.8V624.8h4.8v1.47a5,5,0,0,1,4.11-1.92,6.67,6.67,0,0,1,4.77,1.95,7.61,7.61,0,0,1-.12,10.5,6.44,6.44,0,0,1-4.59,1.86,5.71,5.71,0,0,1-4.17-1.74Zm.78-15.75a3.27,3.27,0,0,0-.93,2.22,3.24,3.24,0,0,0,.93,2.13,3.07,3.07,0,0,0,2.16.9,2.9,2.9,0,0,0,2.13-.9,3.17,3.17,0,0,0,.93-2.13,3.27,3.27,0,0,0-.93-2.22,2.9,2.9,0,0,0-2.13-.9A3.07,3.07,0,0,0,175.43,629.33Z"/><path d="M193.13,616.34v21.87h-4.8V616.34Z"/><path d="M198.8,616.52a2.7,2.7,0,1,1-2.7,2.7A2.69,2.69,0,0,1,198.8,616.52Zm2.4,8.28v13.41h-4.8V624.8Z"/><path d="M214.61,637.91a7.12,7.12,0,0,1-3.33.75,7.41,7.41,0,0,1-5.28-2,7,7,0,0,1-2.07-5,7.3,7.3,0,0,1,2.16-5.19,7.73,7.73,0,0,1,5.4-2,6.88,6.88,0,0,1,3.12.75v4a4.28,4.28,0,0,0-2.49-.87,3.15,3.15,0,0,0-2.34.93,3.26,3.26,0,0,0-.93,2.31,3.44,3.44,0,0,0,.84,2.25,3.26,3.26,0,0,0,2.46,1,3.63,3.63,0,0,0,2.46-.9Z"/><path d="M227.72,624.8h4.8v13.41h-4.8v-1.47a5,5,0,0,1-4.17,1.92,6.42,6.42,0,0,1-4.83-2.13,6.76,6.76,0,0,1-1.92-4.92,7.42,7.42,0,0,1,2.07-5.37,6.9,6.9,0,0,1,4.83-1.89,5.31,5.31,0,0,1,4,1.74Zm-5,4.5a3.14,3.14,0,0,0-1,2.19,3.09,3.09,0,0,0,.93,2.19,3.37,3.37,0,0,0,2.16.9,3.08,3.08,0,0,0,2.16-.93,2.91,2.91,0,0,0,.9-2.16,3,3,0,0,0-.93-2.19,3,3,0,0,0-4.26,0Z"/><path d="M241.13,628.73v9.48h-4.8v-9.48H234.8V624.8h1.53v-4.41h4.8v4.41h2.73v3.93Zm-4.62,11,4.5.48L238,645.71l-3-.36Z"/><path d="M248.06,616.52a2.7,2.7,0,1,1-2.7,2.7A2.69,2.69,0,0,1,248.06,616.52Zm2.4,8.28v13.41h-4.8V624.8Z"/><path d="M268,632.39H258a3.39,3.39,0,0,0,.84,2.25,2.7,2.7,0,0,0,2,.66,3.79,3.79,0,0,0,1.56-.36,2.23,2.23,0,0,0,.84-.9h4.59a6,6,0,0,1-1.62,2.76c-1,1-2.55,1.86-5.46,1.86a7.61,7.61,0,0,1-5.55-2,7,7,0,0,1-2-5.07,7.16,7.16,0,0,1,2-5.19,7.55,7.55,0,0,1,5.49-2,7.35,7.35,0,0,1,5.16,1.83,7.51,7.51,0,0,1,2.13,5.64Zm-4.41-2.76a3.22,3.22,0,0,0-.78-1.44,2.8,2.8,0,0,0-2-.72,2.58,2.58,0,0,0-1.95.72,2.74,2.74,0,0,0-.72,1.44Z"/><path d="M111.17,660.8H116v1.68a5.06,5.06,0,0,1,4.26-2,5.42,5.42,0,0,1,4,1.44,4.62,4.62,0,0,1,1.26,3.75v8.52h-4.8v-6.78a3.85,3.85,0,0,0-.6-2.61,2,2,0,0,0-1.53-.57,2.63,2.63,0,0,0-1.77.63A3.08,3.08,0,0,0,116,667v7.2h-4.8Z"/><path d="M142.94,668.39H133a3.39,3.39,0,0,0,.84,2.25,2.7,2.7,0,0,0,2,.66,3.79,3.79,0,0,0,1.56-.36,2.23,2.23,0,0,0,.84-.9h4.59a6,6,0,0,1-1.62,2.76c-1,1-2.55,1.86-5.46,1.86a7.61,7.61,0,0,1-5.55-2,7,7,0,0,1-2-5.07,7.16,7.16,0,0,1,2-5.19,7.55,7.55,0,0,1,5.49-2,7.35,7.35,0,0,1,5.16,1.83,7.51,7.51,0,0,1,2.13,5.64Zm-4.41-2.76a3.22,3.22,0,0,0-.78-1.44,2.8,2.8,0,0,0-2-.72,2.58,2.58,0,0,0-2,.72,2.74,2.74,0,0,0-.72,1.44Z"/><path d="M150.5,681.08h-4.8V660.8h4.8v1.47a5,5,0,0,1,4.11-1.92,6.67,6.67,0,0,1,4.77,1.95,7.61,7.61,0,0,1-.12,10.5,6.44,6.44,0,0,1-4.59,1.86,5.71,5.71,0,0,1-4.17-1.74Zm.78-15.75a3.27,3.27,0,0,0-.93,2.22,3.24,3.24,0,0,0,.93,2.13,3.07,3.07,0,0,0,2.16.9,2.9,2.9,0,0,0,2.13-.9,3.17,3.17,0,0,0,.93-2.13,3.27,3.27,0,0,0-.93-2.22,2.9,2.9,0,0,0-2.13-.9A3.07,3.07,0,0,0,151.28,665.33Z"/><path d="M164.18,660.8H169V663a4.33,4.33,0,0,1,1.89-1.86,5.24,5.24,0,0,1,2.49-.54l1,.06v4.53a4.23,4.23,0,0,0-2.07-.48,3.14,3.14,0,0,0-2.19.72,4,4,0,0,0-1.08,3.06v5.73h-4.8Z"/><path d="M178.85,652.52a2.7,2.7,0,1,1-2.7,2.7A2.69,2.69,0,0,1,178.85,652.52Zm2.4,8.28v13.41h-4.8V660.8Z"/><path d="M188.24,660.8l3.21,6.87,3.27-6.87h5.34l-7,13.41H189.8l-6.93-13.41Z"/><path d="M204.11,652.52a2.7,2.7,0,1,1-2.7,2.7A2.69,2.69,0,0,1,204.11,652.52Zm2.4,8.28v13.41h-4.8V660.8Z"/><path d="M214.58,652.34v21.87h-4.8V652.34Z"/><path d="M232.07,668.39h-10a3.39,3.39,0,0,0,.84,2.25,2.7,2.7,0,0,0,2,.66,3.79,3.79,0,0,0,1.56-.36,2.23,2.23,0,0,0,.84-.9h4.59a6,6,0,0,1-1.62,2.76c-1,1-2.55,1.86-5.46,1.86a7.61,7.61,0,0,1-5.55-2,7,7,0,0,1-2-5.07,7.16,7.16,0,0,1,2-5.19,7.55,7.55,0,0,1,5.49-2,7.35,7.35,0,0,1,5.16,1.83,7.51,7.51,0,0,1,2.13,5.64Zm-4.41-2.76a3.22,3.22,0,0,0-.78-1.44,2.8,2.8,0,0,0-2-.72,2.58,2.58,0,0,0-2,.72,2.74,2.74,0,0,0-.72,1.44Z"/><path d="M249.92,660.8v12.57c0,2-.18,3.84-1.83,5.55a8,8,0,0,1-5.91,2.16,8.22,8.22,0,0,1-6.27-2.37,4.88,4.88,0,0,1-1.47-2.79h5.34A2.06,2.06,0,0,0,242,677.3a2.92,2.92,0,0,0,2.13-.75,3.23,3.23,0,0,0,1-2.49v-1.35a5.1,5.1,0,0,1-4,1.77,6.68,6.68,0,0,1-4.95-1.89,7.08,7.08,0,0,1-1.86-4.89,7.73,7.73,0,0,1,2-5.25,6.74,6.74,0,0,1,4.86-2,5.24,5.24,0,0,1,4,1.77V660.8Zm-9.78,4.5a3,3,0,0,0,0,4.35,3,3,0,0,0,2.16.87,3.07,3.07,0,0,0,3.06-3.06,3.44,3.44,0,0,0-1-2.19,3,3,0,0,0-2.13-.87A2.86,2.86,0,0,0,240.14,665.3Z"/><path d="M255.62,652.52a2.7,2.7,0,1,1-2.7,2.7A2.69,2.69,0,0,1,255.62,652.52Zm2.4,8.28v13.41h-4.8V660.8Z"/><path d="M271.67,660.8h4.8v13.41h-4.8v-1.47a5,5,0,0,1-4.17,1.92,6.42,6.42,0,0,1-4.83-2.13,6.76,6.76,0,0,1-1.92-4.92,7.42,7.42,0,0,1,2.07-5.37,6.9,6.9,0,0,1,4.83-1.89,5.31,5.31,0,0,1,4,1.74Zm-5,4.5a3.14,3.14,0,0,0-1,2.19,3.09,3.09,0,0,0,.93,2.19,3.37,3.37,0,0,0,2.16.9,3.08,3.08,0,0,0,2.16-.93,2.91,2.91,0,0,0,.9-2.16,3,3,0,0,0-.93-2.19,3,3,0,0,0-4.26,0Z"/><path d="M285.08,664.73v9.48h-4.8v-9.48h-1.53V660.8h1.53v-4.41h4.8v4.41h2.73v3.93Z"/><path d="M300,660.8h4.8v13.41H300v-1.47a5,5,0,0,1-4.17,1.92,6.42,6.42,0,0,1-4.83-2.13,6.76,6.76,0,0,1-1.92-4.92,7.42,7.42,0,0,1,2.07-5.37,6.9,6.9,0,0,1,4.83-1.89,5.31,5.31,0,0,1,4,1.74Zm2.64-6.9a4.73,4.73,0,0,1-1.32,3.27,6.31,6.31,0,0,1-7.8,0,4.73,4.73,0,0,1-1.32-3.27h3.09a2.08,2.08,0,0,0,.6,1.23,2.44,2.44,0,0,0,3.06,0,2.08,2.08,0,0,0,.6-1.23ZM295,665.3a3.14,3.14,0,0,0-1,2.19,3.09,3.09,0,0,0,.93,2.19,3.37,3.37,0,0,0,2.16.9,3.08,3.08,0,0,0,2.16-.93,2.91,2.91,0,0,0,.9-2.16,3,3,0,0,0-.93-2.19,3,3,0,0,0-4.26,0Z"/><rect x="531.94" y="471.5" width="9" height="38" rx="4.5" ry="4.5" style="fill:#3a5c84"/><rect x="479.85" y="521.75" width="112" height="69.85" rx="12" ry="12" style="fill:none;stroke:#eb6a38;stroke-miterlimit:10;stroke-width:5.236px"/><line x1="482.26" y1="545.84" x2="589.44" y2="545.84" style="fill:none;stroke:#eb6a38;stroke-miterlimit:10;stroke-width:5.236px"/><circle cx="560.54" cy="534.4" r="3.61" style="fill:#eb6a38"/><ellipse cx="569.76" cy="534.4" rx="3.42" ry="3.61" style="fill:#eb6a38"/><circle cx="578.6" cy="534.4" r="3.61" style="fill:#eb6a38"/><rect x="520.19" y="552" width="7.23" height="20.47" rx="3" ry="3" transform="translate(-244.14 535.06) rotate(-45)" style="fill:#eb6a38"/><rect x="513.57" y="568.26" width="20.47" height="7.23" rx="3" ry="3" transform="translate(-250.95 537.88) rotate(-45)" style="fill:#eb6a38"/><rect x="539.46" y="572.94" width="20.47" height="7.23" rx="3" ry="3" style="fill:#eb6a38"/><path d="M489.21,634.85H482l-1.35,3.36h-5.49l7.68-20h5.67l7.53,20h-5.55Zm-1.38-4-2.25-6.48-2.19,6.48Z"/><path d="M502.65,645.08h-4.8V624.8h4.8v1.47a5,5,0,0,1,4.11-1.92,6.67,6.67,0,0,1,4.77,1.95,7.61,7.61,0,0,1-.12,10.5,6.44,6.44,0,0,1-4.59,1.86,5.71,5.71,0,0,1-4.17-1.74Zm.78-15.75a3.27,3.27,0,0,0-.93,2.22,3.24,3.24,0,0,0,.93,2.13,3.07,3.07,0,0,0,2.16.9,2.9,2.9,0,0,0,2.13-.9,3.17,3.17,0,0,0,.93-2.13,3.27,3.27,0,0,0-.93-2.22,2.9,2.9,0,0,0-2.13-.9A3.07,3.07,0,0,0,503.43,629.33Z"/><path d="M521.13,616.34v21.87h-4.8V616.34Z"/><path d="M526.8,616.52a2.7,2.7,0,1,1-2.7,2.7A2.69,2.69,0,0,1,526.8,616.52Zm2.4,8.28v13.41h-4.8V624.8Z"/><path d="M542.61,637.91a7.12,7.12,0,0,1-3.33.75,7.41,7.41,0,0,1-5.28-2,7,7,0,0,1-2.07-5,7.3,7.3,0,0,1,2.16-5.19,7.73,7.73,0,0,1,5.4-2,6.88,6.88,0,0,1,3.12.75v4a4.28,4.28,0,0,0-2.49-.87,3.15,3.15,0,0,0-2.34.93,3.26,3.26,0,0,0-.93,2.31,3.44,3.44,0,0,0,.84,2.25,3.26,3.26,0,0,0,2.46,1,3.63,3.63,0,0,0,2.46-.9Z"/><path d="M555.72,624.8h4.8v13.41h-4.8v-1.47a5,5,0,0,1-4.17,1.92,6.42,6.42,0,0,1-4.83-2.13,6.76,6.76,0,0,1-1.92-4.92,7.42,7.42,0,0,1,2.07-5.37,6.9,6.9,0,0,1,4.83-1.89,5.31,5.31,0,0,1,4,1.74Zm-5,4.5a3.14,3.14,0,0,0-1,2.19,3.09,3.09,0,0,0,.93,2.19,3.37,3.37,0,0,0,2.16.9,3.08,3.08,0,0,0,2.16-.93,2.91,2.91,0,0,0,.9-2.16,3,3,0,0,0-.93-2.19,3,3,0,0,0-4.26,0Z"/><path d="M569.13,628.73v9.48h-4.8v-9.48H562.8V624.8h1.53v-4.41h4.8v4.41h2.73v3.93Zm-4.62,11,4.5.48L566,645.71l-3-.36Z"/><path d="M576.06,616.52a2.7,2.7,0,1,1-2.7,2.7A2.69,2.69,0,0,1,576.06,616.52Zm2.4,8.28v13.41h-4.8V624.8Z"/><path d="M596,632.39H586a3.39,3.39,0,0,0,.84,2.25,2.7,2.7,0,0,0,2,.66,3.79,3.79,0,0,0,1.56-.36,2.23,2.23,0,0,0,.84-.9h4.59a6,6,0,0,1-1.62,2.76c-1,1-2.55,1.86-5.46,1.86a7.61,7.61,0,0,1-5.55-2,7,7,0,0,1-2-5.07,7.16,7.16,0,0,1,2-5.19,7.55,7.55,0,0,1,5.49-2,7.35,7.35,0,0,1,5.16,1.83,7.51,7.51,0,0,1,2.13,5.64Zm-4.41-2.76a3.22,3.22,0,0,0-.78-1.44,2.8,2.8,0,0,0-2-.72,2.58,2.58,0,0,0-1.95.72,2.74,2.74,0,0,0-.72,1.44Z"/><path d="M439.17,660.8H444v1.68a5.06,5.06,0,0,1,4.26-2,5.42,5.42,0,0,1,4,1.44,4.62,4.62,0,0,1,1.26,3.75v8.52h-4.8v-6.78a3.85,3.85,0,0,0-.6-2.61,2,2,0,0,0-1.53-.57,2.63,2.63,0,0,0-1.77.63A3.08,3.08,0,0,0,444,667v7.2h-4.8Z"/><path d="M470.94,668.39H461a3.39,3.39,0,0,0,.84,2.25,2.7,2.7,0,0,0,2,.66,3.79,3.79,0,0,0,1.56-.36,2.23,2.23,0,0,0,.84-.9h4.59a6,6,0,0,1-1.62,2.76c-1,1-2.55,1.86-5.46,1.86a7.61,7.61,0,0,1-5.55-2,7,7,0,0,1-2-5.07,7.16,7.16,0,0,1,2-5.19,7.55,7.55,0,0,1,5.49-2,7.35,7.35,0,0,1,5.16,1.83,7.51,7.51,0,0,1,2.13,5.64Zm-4.41-2.76a3.22,3.22,0,0,0-.78-1.44,2.8,2.8,0,0,0-2-.72,2.58,2.58,0,0,0-1.95.72,2.74,2.74,0,0,0-.72,1.44Z"/><path d="M478.5,681.08h-4.8V660.8h4.8v1.47a5,5,0,0,1,4.11-1.92,6.67,6.67,0,0,1,4.77,1.95,7.61,7.61,0,0,1-.12,10.5,6.44,6.44,0,0,1-4.59,1.86,5.71,5.71,0,0,1-4.17-1.74Zm.78-15.75a3.27,3.27,0,0,0-.93,2.22,3.24,3.24,0,0,0,.93,2.13,3.07,3.07,0,0,0,2.16.9,2.9,2.9,0,0,0,2.13-.9,3.17,3.17,0,0,0,.93-2.13,3.27,3.27,0,0,0-.93-2.22,2.9,2.9,0,0,0-2.13-.9A3.07,3.07,0,0,0,479.28,665.33Z"/><path d="M492.18,660.8H497V663a4.33,4.33,0,0,1,1.89-1.86,5.24,5.24,0,0,1,2.49-.54l1,.06v4.53a4.23,4.23,0,0,0-2.07-.48,3.14,3.14,0,0,0-2.19.72,4,4,0,0,0-1.08,3.06v5.73h-4.8Z"/><path d="M506.85,652.52a2.7,2.7,0,1,1-2.7,2.7A2.69,2.69,0,0,1,506.85,652.52Zm2.4,8.28v13.41h-4.8V660.8Z"/><path d="M516.24,660.8l3.21,6.87,3.27-6.87h5.34l-7,13.41H517.8l-6.93-13.41Z"/><path d="M532.11,652.52a2.7,2.7,0,1,1-2.7,2.7A2.69,2.69,0,0,1,532.11,652.52Zm2.4,8.28v13.41h-4.8V660.8Z"/><path d="M542.58,652.34v21.87h-4.8V652.34Z"/><path d="M560.07,668.39h-10a3.39,3.39,0,0,0,.84,2.25,2.7,2.7,0,0,0,2,.66,3.79,3.79,0,0,0,1.56-.36,2.23,2.23,0,0,0,.84-.9h4.59a6,6,0,0,1-1.62,2.76c-1,1-2.55,1.86-5.46,1.86a7.61,7.61,0,0,1-5.55-2,7,7,0,0,1-2-5.07,7.16,7.16,0,0,1,2-5.19,7.55,7.55,0,0,1,5.49-2,7.35,7.35,0,0,1,5.16,1.83,7.51,7.51,0,0,1,2.13,5.64Zm-4.41-2.76a3.22,3.22,0,0,0-.78-1.44,2.8,2.8,0,0,0-2-.72,2.58,2.58,0,0,0-1.95.72,2.74,2.74,0,0,0-.72,1.44Z"/><path d="M577.92,660.8v12.57c0,2-.18,3.84-1.83,5.55a8,8,0,0,1-5.91,2.16,8.22,8.22,0,0,1-6.27-2.37,4.88,4.88,0,0,1-1.47-2.79h5.34A2.06,2.06,0,0,0,570,677.3a2.92,2.92,0,0,0,2.13-.75,3.23,3.23,0,0,0,1-2.49v-1.35a5.1,5.1,0,0,1-4,1.77,6.68,6.68,0,0,1-5-1.89,7.08,7.08,0,0,1-1.86-4.89,7.73,7.73,0,0,1,2-5.25,6.74,6.74,0,0,1,4.86-2,5.24,5.24,0,0,1,4,1.77V660.8Zm-9.78,4.5a3,3,0,0,0,0,4.35,3,3,0,0,0,2.16.87,3.07,3.07,0,0,0,3.06-3.06,3.44,3.44,0,0,0-1-2.19,3,3,0,0,0-2.13-.87A2.86,2.86,0,0,0,568.14,665.3Z"/><path d="M583.62,652.52a2.7,2.7,0,1,1-2.7,2.7A2.69,2.69,0,0,1,583.62,652.52Zm2.4,8.28v13.41h-4.8V660.8Z"/><path d="M599.67,660.8h4.8v13.41h-4.8v-1.47a5,5,0,0,1-4.17,1.92,6.42,6.42,0,0,1-4.83-2.13,6.76,6.76,0,0,1-1.92-4.92,7.42,7.42,0,0,1,2.07-5.37,6.9,6.9,0,0,1,4.83-1.89,5.31,5.31,0,0,1,4,1.74Zm-5,4.5a3.14,3.14,0,0,0-1,2.19,3.09,3.09,0,0,0,.93,2.19,3.37,3.37,0,0,0,2.16.9,3.08,3.08,0,0,0,2.16-.93,2.91,2.91,0,0,0,.9-2.16,3,3,0,0,0-.93-2.19,3,3,0,0,0-4.26,0Z"/><path d="M613.08,664.73v9.48h-4.8v-9.48h-1.53V660.8h1.53v-4.41h4.8v4.41h2.73v3.93Z"/><path d="M628,660.8h4.8v13.41H628v-1.47a5,5,0,0,1-4.17,1.92,6.42,6.42,0,0,1-4.83-2.13,6.76,6.76,0,0,1-1.92-4.92,7.42,7.42,0,0,1,2.07-5.37,6.9,6.9,0,0,1,4.83-1.89,5.31,5.31,0,0,1,4,1.74Zm2.64-6.9a4.73,4.73,0,0,1-1.32,3.27,6.31,6.31,0,0,1-7.8,0,4.73,4.73,0,0,1-1.32-3.27h3.09a2.08,2.08,0,0,0,.6,1.23,2.44,2.44,0,0,0,3.06,0,2.08,2.08,0,0,0,.6-1.23ZM623,665.3a3.14,3.14,0,0,0-1,2.19,3.09,3.09,0,0,0,.93,2.19,3.37,3.37,0,0,0,2.16.9,3.08,3.08,0,0,0,2.16-.93,2.91,2.91,0,0,0,.9-2.16,3,3,0,0,0-.93-2.19,3,3,0,0,0-4.26,0Z"/><rect x="554.85" y="313.75" width="112" height="69.85" rx="12" ry="12" style="fill:none;stroke:#eb6a38;stroke-miterlimit:10;stroke-width:5.236px"/><line x1="557.26" y1="337.84" x2="664.44" y2="337.84" style="fill:none;stroke:#eb6a38;stroke-miterlimit:10;stroke-width:5.236px"/><circle cx="635.54" cy="326.4" r="3.61" style="fill:#eb6a38"/><ellipse cx="644.76" cy="326.4" rx="3.42" ry="3.61" style="fill:#eb6a38"/><circle cx="653.6" cy="326.4" r="3.61" style="fill:#eb6a38"/><rect x="595.19" y="344" width="7.23" height="20.47" rx="3" ry="3" transform="translate(-75.1 527.17) rotate(-45)" style="fill:#eb6a38"/><rect x="588.57" y="360.26" width="20.47" height="7.23" rx="3" ry="3" transform="translate(-81.91 529.99) rotate(-45)" style="fill:#eb6a38"/><rect x="614.46" y="364.94" width="20.47" height="7.23" rx="3" ry="3" style="fill:#eb6a38"/><path d="M564.21,239.85H557l-1.35,3.36h-5.49l7.68-20h5.67l7.53,20h-5.55Zm-1.38-4-2.25-6.48-2.19,6.48Z"/><path d="M577.65,250.08h-4.8V229.8h4.8v1.47a5,5,0,0,1,4.11-1.92,6.67,6.67,0,0,1,4.77,2,7.61,7.61,0,0,1-.12,10.5,6.44,6.44,0,0,1-4.59,1.86,5.71,5.71,0,0,1-4.17-1.74Zm.78-15.75a3.27,3.27,0,0,0-.93,2.22,3.24,3.24,0,0,0,.93,2.13,3.07,3.07,0,0,0,2.16.9,2.9,2.9,0,0,0,2.13-.9,3.17,3.17,0,0,0,.93-2.13,3.27,3.27,0,0,0-.93-2.22,2.9,2.9,0,0,0-2.13-.9A3.07,3.07,0,0,0,578.43,234.33Z"/><path d="M596.13,221.34v21.87h-4.8V221.34Z"/><path d="M601.8,221.52a2.7,2.7,0,1,1-2.7,2.7A2.69,2.69,0,0,1,601.8,221.52Zm2.4,8.28v13.41h-4.8V229.8Z"/><path d="M617.61,242.91a7.12,7.12,0,0,1-3.33.75,7.41,7.41,0,0,1-5.28-2,7,7,0,0,1-2.07-5,7.3,7.3,0,0,1,2.16-5.19,7.73,7.73,0,0,1,5.4-2,6.88,6.88,0,0,1,3.12.75v4a4.28,4.28,0,0,0-2.49-.87,3.15,3.15,0,0,0-2.34.93,3.26,3.26,0,0,0-.93,2.31,3.44,3.44,0,0,0,.84,2.25,3.26,3.26,0,0,0,2.46,1,3.63,3.63,0,0,0,2.46-.9Z"/><path d="M630.72,229.8h4.8v13.41h-4.8v-1.47a5,5,0,0,1-4.17,1.92,6.42,6.42,0,0,1-4.83-2.13,6.76,6.76,0,0,1-1.92-4.92,7.42,7.42,0,0,1,2.07-5.37,6.9,6.9,0,0,1,4.83-1.89,5.31,5.31,0,0,1,4,1.74Zm-5,4.5a3.14,3.14,0,0,0-1,2.19,3.09,3.09,0,0,0,.93,2.19,3.37,3.37,0,0,0,2.16.9,3.08,3.08,0,0,0,2.16-.93,2.91,2.91,0,0,0,.9-2.16,3,3,0,0,0-.93-2.19,3,3,0,0,0-4.26,0Z"/><path d="M644.13,233.73v9.48h-4.8v-9.48H637.8V229.8h1.53v-4.41h4.8v4.41h2.73v3.93Zm-4.62,11,4.5.48L641,250.71l-3-.36Z"/><path d="M651.06,221.52a2.7,2.7,0,1,1-2.7,2.7A2.69,2.69,0,0,1,651.06,221.52Zm2.4,8.28v13.41h-4.8V229.8Z"/><path d="M671,237.39H661a3.39,3.39,0,0,0,.84,2.25,2.7,2.7,0,0,0,2,.66,3.79,3.79,0,0,0,1.56-.36,2.23,2.23,0,0,0,.84-.9h4.59a6,6,0,0,1-1.62,2.76c-1,1-2.55,1.86-5.46,1.86a7.61,7.61,0,0,1-5.55-2,7,7,0,0,1-2-5.07,7.16,7.16,0,0,1,2-5.19,7.55,7.55,0,0,1,5.49-2,7.35,7.35,0,0,1,5.16,1.83,7.51,7.51,0,0,1,2.13,5.64Zm-4.41-2.76a3.22,3.22,0,0,0-.78-1.44,2.8,2.8,0,0,0-2-.72,2.58,2.58,0,0,0-1.95.72,2.74,2.74,0,0,0-.72,1.44Z"/><path d="M536.24,286.08h-4.8V265.8h4.8v1.47a5,5,0,0,1,4.11-1.92,6.67,6.67,0,0,1,4.77,1.95,7.61,7.61,0,0,1-.12,10.5,6.44,6.44,0,0,1-4.59,1.86,5.71,5.71,0,0,1-4.17-1.74Zm.78-15.75a3.27,3.27,0,0,0-.93,2.22,3.24,3.24,0,0,0,.93,2.13,3.07,3.07,0,0,0,2.16.9,2.9,2.9,0,0,0,2.13-.9,3.17,3.17,0,0,0,.93-2.13,3.27,3.27,0,0,0-.93-2.22,2.9,2.9,0,0,0-2.13-.9A3.07,3.07,0,0,0,537,270.33Z"/><path d="M549.92,265.8h4.8V268a4.33,4.33,0,0,1,1.89-1.86,5.24,5.24,0,0,1,2.49-.54l.95.06v4.53a4.14,4.14,0,0,0-2.06-.48,3.18,3.18,0,0,0-2.2.72,4.07,4.07,0,0,0-1.07,3.06v5.73h-4.8Z"/><path d="M564.59,257.52a2.7,2.7,0,1,1-2.71,2.7A2.69,2.69,0,0,1,564.59,257.52Zm2.4,8.28v13.41h-4.8V265.8Z"/><path d="M574,265.8l3.21,6.87,3.27-6.87h5.33l-7,13.41h-3.26l-6.93-13.41Z"/><path d="M589.85,257.52a2.7,2.7,0,1,1-2.71,2.7A2.68,2.68,0,0,1,589.85,257.52Zm2.4,8.28v13.41h-4.8V265.8Z"/><path d="M600.32,257.34v21.87h-4.8V257.34Z"/><path d="M617.8,273.39h-10a3.39,3.39,0,0,0,.84,2.25,2.69,2.69,0,0,0,2,.66,3.79,3.79,0,0,0,1.57-.36,2.23,2.23,0,0,0,.84-.9h4.59A6,6,0,0,1,616,277.8c-1,1-2.55,1.86-5.47,1.86a7.6,7.6,0,0,1-5.54-2,7,7,0,0,1-2-5.07,7.16,7.16,0,0,1,2-5.19,7.55,7.55,0,0,1,5.49-1.95,7.35,7.35,0,0,1,5.16,1.83,7.53,7.53,0,0,1,2.12,5.64Zm-4.4-2.76a3.32,3.32,0,0,0-.78-1.44,2.8,2.8,0,0,0-2-.72,2.57,2.57,0,0,0-1.94.72,2.82,2.82,0,0,0-.73,1.44Z"/><path d="M635.65,265.8v12.57c0,2-.18,3.84-1.83,5.55a8,8,0,0,1-5.9,2.16,8.26,8.26,0,0,1-6.28-2.37,4.92,4.92,0,0,1-1.46-2.79h5.34a2.06,2.06,0,0,0,2.25,1.38,2.88,2.88,0,0,0,2.12-.75,3.2,3.2,0,0,0,1-2.49v-1.35a5.1,5.1,0,0,1-4,1.77,6.72,6.72,0,0,1-5-1.89A7.12,7.12,0,0,1,620,272.7a7.73,7.73,0,0,1,2-5.25,6.72,6.72,0,0,1,4.86-2,5.24,5.24,0,0,1,4,1.77V265.8Zm-9.77,4.5a3,3,0,0,0,0,4.35,3,3,0,0,0,2.16.87,3.18,3.18,0,0,0,2.16-.9,3.25,3.25,0,0,0,.9-2.16,3.41,3.41,0,0,0-1-2.19,3,3,0,0,0-2.12-.87A2.86,2.86,0,0,0,625.88,270.3Z"/><path d="M641.36,257.52a2.7,2.7,0,1,1-2.71,2.7A2.68,2.68,0,0,1,641.36,257.52Zm2.4,8.28v13.41H639V265.8Z"/><path d="M657.4,265.8h4.81v13.41H657.4v-1.47a5,5,0,0,1-4.17,1.92,6.4,6.4,0,0,1-4.82-2.13,6.76,6.76,0,0,1-1.92-4.92,7.42,7.42,0,0,1,2.06-5.37,6.92,6.92,0,0,1,4.83-1.89,5.29,5.29,0,0,1,4,1.74Zm-5,4.5a3.15,3.15,0,0,0-1,2.19,3.06,3.06,0,0,0,.94,2.19,3.37,3.37,0,0,0,2.15.9,3.06,3.06,0,0,0,2.16-.93,2.91,2.91,0,0,0,.9-2.16,3,3,0,0,0-.92-2.19,3.1,3.1,0,0,0-2.17-.87A3,3,0,0,0,652.37,270.3Z"/><path d="M670.81,269.73v9.48H666v-9.48h-1.54V265.8H666v-4.41h4.79v4.41h2.73v3.93Z"/><path d="M685.72,265.8h4.8v13.41h-4.8v-1.47a5,5,0,0,1-4.17,1.92,6.44,6.44,0,0,1-4.83-2.13,6.81,6.81,0,0,1-1.92-4.92,7.38,7.38,0,0,1,2.08-5.37,6.88,6.88,0,0,1,4.83-1.89,5.28,5.28,0,0,1,4,1.74Zm2.64-6.9a4.73,4.73,0,0,1-1.32,3.27,6.31,6.31,0,0,1-7.8,0,4.78,4.78,0,0,1-1.32-3.27H681a2,2,0,0,0,.61,1.23,2.38,2.38,0,0,0,1.52.54,2.43,2.43,0,0,0,1.53-.54,2.08,2.08,0,0,0,.6-1.23Zm-7.68,11.4a3.18,3.18,0,0,0-1,2.19,3.09,3.09,0,0,0,.93,2.19,3.37,3.37,0,0,0,2.16.9,3.06,3.06,0,0,0,2.16-.93,2.91,2.91,0,0,0,.91-2.16,3,3,0,0,0-.93-2.19,3.05,3.05,0,0,0-4.27,0Z"/><path d="M358.46,558.67a4.68,4.68,0,0,1,3.29-8,4.72,4.72,0,0,1,3.33,1.44,4.69,4.69,0,0,1,0,6.52,4.57,4.57,0,0,1-6.58,0Z"/><path d="M372.1,558.67a4.68,4.68,0,0,1,3.28-8,4.72,4.72,0,0,1,3.33,1.44,4.66,4.66,0,0,1,0,6.52,4.61,4.61,0,0,1-3.29,1.4A4.56,4.56,0,0,1,372.1,558.67Z"/><path d="M385.73,558.67a4.68,4.68,0,0,1,3.29-8,4.74,4.74,0,0,1,3.33,1.44,4.67,4.67,0,0,1-.05,6.52,4.55,4.55,0,0,1-6.57,0Z"/></svg>