<svg id="Layer_1" data-name="Layer 1" xmlns="http://www.w3.org/2000/svg" viewBox="0 0 1224 768"><title>Cap 12 -</title><path d="M80,621.34H73.81v3.33h5.85v4.41H73.81v3.45H80v4.41H68.62v-20H80Z"/><path d="M87.88,629.65l-5.43-6.12h6.24L91,626.29l2.37-2.76h6.21L94,629.65l6.72,7.29H94.39L91,633l-3.42,4H81.19Z"/><path d="M115.48,631.12h-10a3.39,3.39,0,0,0,.84,2.25,2.7,2.7,0,0,0,2,.66,3.79,3.79,0,0,0,1.56-.36,2.23,2.23,0,0,0,.84-.9h4.59a6,6,0,0,1-1.62,2.76c-1,1-2.55,1.86-5.46,1.86a7.61,7.61,0,0,1-5.55-2,7,7,0,0,1-2-5.07,7.16,7.16,0,0,1,2-5.19,7.55,7.55,0,0,1,5.49-2,7.35,7.35,0,0,1,5.16,1.83,7.51,7.51,0,0,1,2.13,5.64Zm-4.41-2.76a3.22,3.22,0,0,0-.78-1.44,2.8,2.8,0,0,0-2-.72,2.58,2.58,0,0,0-2,.72,2.74,2.74,0,0,0-.72,1.44Z"/><path d="M128.38,636.64a7.12,7.12,0,0,1-3.33.75,7.41,7.41,0,0,1-5.28-2,7,7,0,0,1-2.07-5,7.3,7.3,0,0,1,2.16-5.19,7.73,7.73,0,0,1,5.4-2,6.88,6.88,0,0,1,3.12.75v4a4.28,4.28,0,0,0-2.49-.87,3.15,3.15,0,0,0-2.34.93,3.26,3.26,0,0,0-.93,2.31,3.44,3.44,0,0,0,.84,2.25,3.26,3.26,0,0,0,2.46,1,3.63,3.63,0,0,0,2.46-.9Z"/><path d="M135.91,623.53V631a2.57,2.57,0,0,0,.72,2,2.48,2.48,0,0,0,1.68.51,2.24,2.24,0,0,0,1.71-.57,2.49,2.49,0,0,0,.69-1.89v-7.5h4.8v8.37a4.6,4.6,0,0,1-1.29,3.6c-1.65,1.71-4,1.89-5.79,1.89-2,0-4.47-.21-6.06-1.92a4.82,4.82,0,0,1-1.26-3.57v-8.37Z"/><path d="M154.12,627.46v9.48h-4.8v-9.48h-1.53v-3.93h1.53v-4.41h4.8v4.41h2.73v3.93Z"/><path d="M172.87,631.12h-10a3.39,3.39,0,0,0,.84,2.25,2.7,2.7,0,0,0,2,.66,3.79,3.79,0,0,0,1.56-.36,2.23,2.23,0,0,0,.84-.9h4.59a6,6,0,0,1-1.62,2.76c-1,1-2.55,1.86-5.46,1.86a7.61,7.61,0,0,1-5.55-2,7,7,0,0,1-2-5.07,7.16,7.16,0,0,1,2-5.19,7.55,7.55,0,0,1,5.49-2,7.35,7.35,0,0,1,5.16,1.83,7.51,7.51,0,0,1,2.13,5.64Zm-4.41-2.76a3.22,3.22,0,0,0-.78-1.44,2.8,2.8,0,0,0-2-.72,2.58,2.58,0,0,0-1.95.72,2.74,2.74,0,0,0-.72,1.44Z"/><path d="M182.47,626.89h7.59v4h-7.59Z"/><path d="M205.84,630.31v6.63h-5.19v-20h8.28a6.89,6.89,0,0,1,5.07,1.8,6.2,6.2,0,0,1,1.86,4.86,6.5,6.5,0,0,1-1.77,5,6.66,6.66,0,0,1-5,1.74Zm0-4.2h1.74a3.39,3.39,0,0,0,2.19-.63,2.29,2.29,0,0,0,.66-1.83,2.43,2.43,0,0,0-.6-1.8,3,3,0,0,0-2.22-.72h-1.77Z"/><path d="M230.92,635.17a9.18,9.18,0,0,1-12,0,6.92,6.92,0,0,1,0-9.87,8.37,8.37,0,0,1,6-2.22,8.47,8.47,0,0,1,6,2.22,6.92,6.92,0,0,1,0,9.87ZM222.79,628a3.06,3.06,0,0,0,2.16,5.22,3.05,3.05,0,0,0,2.13-.9,3,3,0,0,0,.93-2.13,3.26,3.26,0,0,0-.93-2.19,3.08,3.08,0,0,0-4.29,0Z"/><path d="M246.13,623.53h4.8v13.41h-4.8v-1.47a5,5,0,0,1-4.17,1.92,6.42,6.42,0,0,1-4.83-2.13,6.76,6.76,0,0,1-1.92-4.92,7.42,7.42,0,0,1,2.07-5.37,6.9,6.9,0,0,1,4.83-1.89,5.31,5.31,0,0,1,4,1.74Zm-5,4.5a3.14,3.14,0,0,0-1,2.19,3.09,3.09,0,0,0,.93,2.19,3.37,3.37,0,0,0,2.16.9,3.08,3.08,0,0,0,2.16-.93,2.91,2.91,0,0,0,.9-2.16,3,3,0,0,0-.93-2.19,3,3,0,0,0-4.26,0Z"/><path d="M259.54,627.46v9.48h-4.8v-9.48h-1.53v-3.93h1.53v-4.41h4.8v4.41h2.73v3.93Z"/><path d="M278.29,631.12h-10a3.39,3.39,0,0,0,.84,2.25,2.7,2.7,0,0,0,2,.66,3.79,3.79,0,0,0,1.56-.36,2.23,2.23,0,0,0,.84-.9h4.59a6,6,0,0,1-1.62,2.76c-1,1-2.55,1.86-5.46,1.86a7.61,7.61,0,0,1-5.55-2,7,7,0,0,1-2-5.07,7.16,7.16,0,0,1,2-5.19,7.55,7.55,0,0,1,5.49-2,7.35,7.35,0,0,1,5.16,1.83,7.51,7.51,0,0,1,2.13,5.64Zm-4.41-2.76a3.22,3.22,0,0,0-.78-1.44,2.8,2.8,0,0,0-2-.72,2.58,2.58,0,0,0-1.95.72,2.74,2.74,0,0,0-.72,1.44Z"/><path d="M293.2,627.46v9.48h-4.8v-9.48h-1.68v-3.93h1.68v-1.65a6.77,6.77,0,0,1,1.83-5.25,7.6,7.6,0,0,1,5.28-1.89,8.08,8.08,0,0,1,5.37,1.8,6.11,6.11,0,0,1,1.68,4.5v.69h-4.8v-.45a2.78,2.78,0,0,0-.6-1.8,2.45,2.45,0,0,0-1.68-.6,2.29,2.29,0,0,0-1.65.69,2.76,2.76,0,0,0-.63,2.07v1.89h3.36v3.93Zm9.36-3.93v13.41h-4.8V623.53Z"/><path d="M326.77,631.12h-10a3.39,3.39,0,0,0,.84,2.25,2.7,2.7,0,0,0,2,.66,3.79,3.79,0,0,0,1.56-.36,2.23,2.23,0,0,0,.84-.9h4.59a6,6,0,0,1-1.62,2.76c-1,1-2.55,1.86-5.46,1.86a7.61,7.61,0,0,1-5.55-2,7,7,0,0,1-2-5.07,7.16,7.16,0,0,1,2-5.19,7.55,7.55,0,0,1,5.49-2,7.35,7.35,0,0,1,5.16,1.83,7.51,7.51,0,0,1,2.13,5.64Zm-4.41-2.76a3.22,3.22,0,0,0-.78-1.44,2.8,2.8,0,0,0-2-.72,2.58,2.58,0,0,0-2,.72,2.74,2.74,0,0,0-.72,1.44Z"/><path d="M334.27,629.65l-5.43-6.12h6.24l2.31,2.76,2.37-2.76H346l-5.55,6.12,6.72,7.29h-6.36l-3.42-4-3.42,4h-6.36Z"/><path d="M361.87,631.12h-10a3.39,3.39,0,0,0,.84,2.25,2.7,2.7,0,0,0,2,.66,3.79,3.79,0,0,0,1.56-.36,2.23,2.23,0,0,0,.84-.9h4.59a6,6,0,0,1-1.62,2.76c-1,1-2.55,1.86-5.46,1.86a7.61,7.61,0,0,1-5.55-2,7,7,0,0,1-2-5.07,7.16,7.16,0,0,1,2-5.19,7.55,7.55,0,0,1,5.49-2,7.35,7.35,0,0,1,5.16,1.83,7.51,7.51,0,0,1,2.13,5.64Zm-4.41-2.76a3.22,3.22,0,0,0-.78-1.44,2.8,2.8,0,0,0-2-.72,2.58,2.58,0,0,0-1.95.72,2.74,2.74,0,0,0-.72,1.44Z"/><path d="M374.77,636.64a7.12,7.12,0,0,1-3.33.75,7.41,7.41,0,0,1-5.28-2,7,7,0,0,1-2.07-5,7.3,7.3,0,0,1,2.16-5.19,7.73,7.73,0,0,1,5.4-2,6.88,6.88,0,0,1,3.12.75v4a4.28,4.28,0,0,0-2.49-.87,3.15,3.15,0,0,0-2.34.93,3.26,3.26,0,0,0-.93,2.31,3.44,3.44,0,0,0,.84,2.25,3.26,3.26,0,0,0,2.46,1,3.63,3.63,0,0,0,2.46-.9Z"/><path d="M382.3,623.53V631a2.57,2.57,0,0,0,.72,2,2.48,2.48,0,0,0,1.68.51,2.24,2.24,0,0,0,1.71-.57,2.49,2.49,0,0,0,.69-1.89v-7.5h4.8v8.37a4.6,4.6,0,0,1-1.29,3.6c-1.65,1.71-4,1.89-5.79,1.89-2,0-4.47-.21-6.06-1.92a4.82,4.82,0,0,1-1.26-3.57v-8.37Z"/><path d="M400.51,627.46v9.48h-4.8v-9.48h-1.53v-3.93h1.53v-4.41h4.8v4.41h2.73v3.93Z"/><path d="M415.42,623.53h4.8v13.41h-4.8v-1.47a5,5,0,0,1-4.17,1.92,6.42,6.42,0,0,1-4.83-2.13,6.76,6.76,0,0,1-1.92-4.92,7.42,7.42,0,0,1,2.07-5.37,6.9,6.9,0,0,1,4.83-1.89,5.31,5.31,0,0,1,4,1.74Zm-5,4.5a3.14,3.14,0,0,0-1,2.19,3.09,3.09,0,0,0,.93,2.19,3.37,3.37,0,0,0,2.16.9,3.08,3.08,0,0,0,2.16-.93,2.91,2.91,0,0,0,.9-2.16,3,3,0,0,0-.93-2.19,3,3,0,0,0-4.26,0Z"/><path d="M428.83,627.46v9.48H424v-9.48H422.5v-3.93H424v-4.41h4.8v4.41h2.73v3.93Z"/><path d="M434.86,631.93h4.5l-5.16,9.48h-3.09Z"/><path d="M450.37,632.5a6.87,6.87,0,0,0,1.92,1,6.25,6.25,0,0,0,1.86.33,2,2,0,0,0,1.23-.36.77.77,0,0,0,.24-.63.71.71,0,0,0-.24-.6,3,3,0,0,0-1.26-.48l-1.26-.3a4.31,4.31,0,0,1-2.34-1.17,3.24,3.24,0,0,1-.87-2.31,4.79,4.79,0,0,1,1.26-3.27,6.77,6.77,0,0,1,4.8-1.62A11.07,11.07,0,0,1,460,624L458.38,627a6.64,6.64,0,0,0-2.52-.66,2,2,0,0,0-1.11.27.72.72,0,0,0-.42.66.78.78,0,0,0,.57.75c.45.18.84.18,1.59.39l.87.24a5.67,5.67,0,0,1,2,1.05,3.79,3.79,0,0,1,1,2.67,4.48,4.48,0,0,1-1.35,3.33,7,7,0,0,1-4.95,1.68,9.89,9.89,0,0,1-5.4-1.56Z"/><path d="M477,631.12h-10a3.39,3.39,0,0,0,.84,2.25,2.7,2.7,0,0,0,2,.66,3.79,3.79,0,0,0,1.56-.36,2.23,2.23,0,0,0,.84-.9h4.59a6,6,0,0,1-1.62,2.76c-1,1-2.55,1.86-5.46,1.86a7.61,7.61,0,0,1-5.55-2,7,7,0,0,1-2-5.07,7.16,7.16,0,0,1,2-5.19,7.55,7.55,0,0,1,5.49-2,7.35,7.35,0,0,1,5.16,1.83,7.51,7.51,0,0,1,2.13,5.64Zm-4.41-2.76a3.22,3.22,0,0,0-.78-1.44,2.8,2.8,0,0,0-2-.72,2.58,2.58,0,0,0-1.95.72,2.74,2.74,0,0,0-.72,1.44Z"/><path d="M491.59,643.81h-4.8V623.53h4.8V625a5,5,0,0,1,4.11-1.92,6.67,6.67,0,0,1,4.77,1.95,7.61,7.61,0,0,1-.12,10.5,6.44,6.44,0,0,1-4.59,1.86,5.71,5.71,0,0,1-4.17-1.74Zm.78-15.75a3.27,3.27,0,0,0-.93,2.22,3.24,3.24,0,0,0,.93,2.13,3.07,3.07,0,0,0,2.16.9,2.9,2.9,0,0,0,2.13-.9,3.17,3.17,0,0,0,.93-2.13,3.27,3.27,0,0,0-.93-2.22,2.9,2.9,0,0,0-2.13-.9A3.07,3.07,0,0,0,492.37,628.06Z"/><path d="M518.77,635.17a9.18,9.18,0,0,1-12,0,6.92,6.92,0,0,1,0-9.87,8.37,8.37,0,0,1,6-2.22,8.47,8.47,0,0,1,6,2.22,6.92,6.92,0,0,1,0,9.87ZM510.64,628a3.06,3.06,0,0,0,2.16,5.22,3.05,3.05,0,0,0,2.13-.9,3,3,0,0,0,.93-2.13,3.26,3.26,0,0,0-.93-2.19,3.08,3.08,0,0,0-4.29,0Z"/><path d="M534,623.53h4.8v13.41H534v-1.47a5,5,0,0,1-4.17,1.92,6.42,6.42,0,0,1-4.83-2.13,6.76,6.76,0,0,1-1.92-4.92,7.42,7.42,0,0,1,2.07-5.37,6.9,6.9,0,0,1,4.83-1.89,5.31,5.31,0,0,1,4,1.74Zm-5,4.5a3.14,3.14,0,0,0-1,2.19,3.09,3.09,0,0,0,.93,2.19,3.37,3.37,0,0,0,2.16.9,3.08,3.08,0,0,0,2.16-.93,2.91,2.91,0,0,0,.9-2.16,3,3,0,0,0-.93-2.19,3,3,0,0,0-4.26,0Z"/><path d="M547.39,627.46v9.48h-4.8v-9.48h-1.53v-3.93h1.53v-4.41h4.8v4.41h2.73v3.93Z"/><path d="M566.14,631.12h-10a3.39,3.39,0,0,0,.84,2.25,2.7,2.7,0,0,0,2,.66,3.79,3.79,0,0,0,1.56-.36,2.23,2.23,0,0,0,.84-.9H566a6,6,0,0,1-1.62,2.76c-1,1-2.55,1.86-5.46,1.86a7.61,7.61,0,0,1-5.55-2,7,7,0,0,1-2-5.07,7.16,7.16,0,0,1,2-5.19,7.55,7.55,0,0,1,5.49-2A7.35,7.35,0,0,1,564,625a7.51,7.51,0,0,1,2.13,5.64Zm-4.41-2.76a3.22,3.22,0,0,0-.78-1.44,2.8,2.8,0,0,0-2-.72,2.58,2.58,0,0,0-2,.72,2.74,2.74,0,0,0-.72,1.44Z"/><path d="M580.69,643.81h-4.8V623.53h4.8V625a5,5,0,0,1,4.11-1.92,6.67,6.67,0,0,1,4.77,1.95,7.61,7.61,0,0,1-.12,10.5,6.44,6.44,0,0,1-4.59,1.86,5.71,5.71,0,0,1-4.17-1.74Zm.78-15.75a3.27,3.27,0,0,0-.93,2.22,3.24,3.24,0,0,0,.93,2.13,3.07,3.07,0,0,0,2.16.9,2.9,2.9,0,0,0,2.13-.9,3.17,3.17,0,0,0,.93-2.13,3.27,3.27,0,0,0-.93-2.22,2.9,2.9,0,0,0-2.13-.9A3.07,3.07,0,0,0,581.47,628.06Z"/><path d="M604.75,623.53h4.8v13.41h-4.8v-1.47a5,5,0,0,1-4.17,1.92,6.42,6.42,0,0,1-4.83-2.13,6.76,6.76,0,0,1-1.92-4.92A7.42,7.42,0,0,1,595.9,625a6.9,6.9,0,0,1,4.83-1.89,5.31,5.31,0,0,1,4,1.74Zm-5,4.5a3.14,3.14,0,0,0-1,2.19,3.09,3.09,0,0,0,.93,2.19,3.37,3.37,0,0,0,2.16.9,3.08,3.08,0,0,0,2.16-.93,2.91,2.91,0,0,0,.9-2.16A3,3,0,0,0,604,628a3,3,0,0,0-4.26,0Z"/><path d="M612.85,623.53h4.8v2.19a4.33,4.33,0,0,1,1.89-1.86,5.24,5.24,0,0,1,2.49-.54l1,.06v4.53a4.23,4.23,0,0,0-2.07-.48,3.14,3.14,0,0,0-2.19.72,4,4,0,0,0-1.08,3.06v5.73h-4.8Z"/><path d="M634.66,636.64a7.12,7.12,0,0,1-3.33.75,7.41,7.41,0,0,1-5.28-2,7,7,0,0,1-2.07-5,7.3,7.3,0,0,1,2.16-5.19,7.73,7.73,0,0,1,5.4-2,6.88,6.88,0,0,1,3.12.75v4a4.28,4.28,0,0,0-2.49-.87,3.15,3.15,0,0,0-2.34.93,3.26,3.26,0,0,0-.93,2.31,3.44,3.44,0,0,0,.84,2.25,3.26,3.26,0,0,0,2.46,1,3.63,3.63,0,0,0,2.46-.9Z"/><path d="M642.19,623.53V631a2.57,2.57,0,0,0,.72,2,2.48,2.48,0,0,0,1.68.51,2.24,2.24,0,0,0,1.71-.57A2.49,2.49,0,0,0,647,631v-7.5h4.8v8.37a4.6,4.6,0,0,1-1.29,3.6c-1.65,1.71-4,1.89-5.79,1.89-2,0-4.47-.21-6.06-1.92a4.82,4.82,0,0,1-1.26-3.57v-8.37Z"/><path d="M655.09,623.53h4.8v2.19a4.33,4.33,0,0,1,1.89-1.86,5.24,5.24,0,0,1,2.49-.54l1,.06v4.53a4.27,4.27,0,0,0-2.07-.48,3.14,3.14,0,0,0-2.19.72,4,4,0,0,0-1.08,3.06v5.73h-4.8Z"/><path d="M682.15,623.53V636.1c0,2-.19,3.84-1.84,5.55a8,8,0,0,1-5.9,2.16,8.22,8.22,0,0,1-6.27-2.37,4.88,4.88,0,0,1-1.47-2.79H672a2.06,2.06,0,0,0,2.25,1.38,2.92,2.92,0,0,0,2.13-.75,3.23,3.23,0,0,0,1-2.49v-1.35a5.1,5.1,0,0,1-4,1.77,6.68,6.68,0,0,1-5-1.89,7.08,7.08,0,0,1-1.86-4.89,7.73,7.73,0,0,1,2-5.25,6.74,6.74,0,0,1,4.86-2,5.24,5.24,0,0,1,4,1.77v-1.38Zm-9.78,4.5a3,3,0,0,0,0,4.35,3,3,0,0,0,2.16.87,3.07,3.07,0,0,0,3.06-3.06,3.44,3.44,0,0,0-1-2.19,3,3,0,0,0-2.13-.87A2.86,2.86,0,0,0,672.37,628Z"/><path d="M699.67,631.12h-10a3.39,3.39,0,0,0,.84,2.25,2.7,2.7,0,0,0,2,.66,3.79,3.79,0,0,0,1.56-.36,2.23,2.23,0,0,0,.84-.9h4.59a6,6,0,0,1-1.62,2.76c-1,1-2.55,1.86-5.46,1.86a7.61,7.61,0,0,1-5.55-2,7,7,0,0,1-2-5.07,7.16,7.16,0,0,1,2-5.19,7.55,7.55,0,0,1,5.49-2,7.35,7.35,0,0,1,5.16,1.83,7.55,7.55,0,0,1,2.13,5.64Zm-4.41-2.76a3.32,3.32,0,0,0-.78-1.44,2.8,2.8,0,0,0-2-.72,2.58,2.58,0,0,0-2,.72,2.74,2.74,0,0,0-.72,1.44Z"/><path d="M72,662.77l3.48,12.93,4.23-12.93H83.8l3.93,12.93,3.78-12.93h5.43l-6.39,20H85.24L81.61,671.2l-3.84,11.58H72.49l-6-20Z"/><path d="M97.48,669.37h4.8v2.19a4.33,4.33,0,0,1,1.89-1.86,5.24,5.24,0,0,1,2.49-.54l1,.06v4.53a4.23,4.23,0,0,0-2.07-.48,3.14,3.14,0,0,0-2.19.72,4,4,0,0,0-1.08,3.06v5.73h-4.8Z"/><path d="M112.15,661.09a2.7,2.7,0,1,1-2.7,2.7A2.69,2.69,0,0,1,112.15,661.09Zm2.4,8.28v13.41h-4.8V669.37Z"/><path d="M123.13,673.3v9.48h-4.8V673.3H116.8v-3.93h1.53V665h4.8v4.41h2.73v3.93Z"/><path d="M141.88,677h-10a3.39,3.39,0,0,0,.84,2.25,2.7,2.7,0,0,0,2,.66,3.79,3.79,0,0,0,1.56-.36,2.23,2.23,0,0,0,.84-.9h4.59a6,6,0,0,1-1.62,2.76c-1,1-2.55,1.86-5.46,1.86a7.61,7.61,0,0,1-5.55-2,7,7,0,0,1-2-5.07,7.16,7.16,0,0,1,2-5.19,7.55,7.55,0,0,1,5.49-1.95,7.35,7.35,0,0,1,5.16,1.83,7.51,7.51,0,0,1,2.13,5.64Zm-4.41-2.76a3.22,3.22,0,0,0-.78-1.44,2.8,2.8,0,0,0-2-.72,2.58,2.58,0,0,0-2,.72,2.74,2.74,0,0,0-.72,1.44Z"/><path d="M146.38,672.73H154v4h-7.59Z"/><path d="M169.75,676.15v6.63h-5.19v-20h8.28a6.89,6.89,0,0,1,5.07,1.8,6.2,6.2,0,0,1,1.86,4.86,6.5,6.5,0,0,1-1.77,5,6.66,6.66,0,0,1-5,1.74Zm0-4.2h1.74a3.39,3.39,0,0,0,2.19-.63,2.29,2.29,0,0,0,.66-1.83,2.43,2.43,0,0,0-.6-1.8,3,3,0,0,0-2.22-.72h-1.77Z"/><path d="M194.83,681a9.18,9.18,0,0,1-12,0,6.92,6.92,0,0,1,0-9.87,8.37,8.37,0,0,1,6-2.22,8.47,8.47,0,0,1,6,2.22,6.92,6.92,0,0,1,0,9.87Zm-8.13-7.14a3.06,3.06,0,0,0,2.16,5.22,3.05,3.05,0,0,0,2.13-.9,3,3,0,0,0,.93-2.13,3.26,3.26,0,0,0-.93-2.19,3.08,3.08,0,0,0-4.29,0Z"/><path d="M210,669.37h4.8v13.41H210v-1.47a5,5,0,0,1-4.17,1.92A6.42,6.42,0,0,1,201,681.1a6.76,6.76,0,0,1-1.92-4.92,7.42,7.42,0,0,1,2.07-5.37,6.9,6.9,0,0,1,4.83-1.89,5.31,5.31,0,0,1,4,1.74Zm-5,4.5a3.14,3.14,0,0,0-1,2.19,3.09,3.09,0,0,0,.93,2.19,3.37,3.37,0,0,0,2.16.9,3.08,3.08,0,0,0,2.16-.93,2.91,2.91,0,0,0,.9-2.16,3,3,0,0,0-.93-2.19,3,3,0,0,0-4.26,0Z"/><path d="M223.45,673.3v9.48h-4.8V673.3h-1.53v-3.93h1.53V665h4.8v4.41h2.73v3.93Z"/><path d="M242.2,677h-10a3.39,3.39,0,0,0,.84,2.25,2.7,2.7,0,0,0,2,.66,3.79,3.79,0,0,0,1.56-.36,2.23,2.23,0,0,0,.84-.9H242a6,6,0,0,1-1.62,2.76c-1,1-2.55,1.86-5.46,1.86a7.61,7.61,0,0,1-5.55-2,7,7,0,0,1-2-5.07,7.16,7.16,0,0,1,2-5.19,7.55,7.55,0,0,1,5.49-1.95,7.35,7.35,0,0,1,5.16,1.83,7.51,7.51,0,0,1,2.13,5.64Zm-4.41-2.76a3.22,3.22,0,0,0-.78-1.44,2.8,2.8,0,0,0-2-.72,2.58,2.58,0,0,0-1.95.72,2.74,2.74,0,0,0-.72,1.44Z"/><path d="M257.11,673.3v9.48h-4.8V673.3h-1.68v-3.93h1.68v-1.65a6.77,6.77,0,0,1,1.83-5.25,7.6,7.6,0,0,1,5.28-1.89,8.08,8.08,0,0,1,5.37,1.8,6.11,6.11,0,0,1,1.68,4.5v.69h-4.8v-.45a2.78,2.78,0,0,0-.6-1.8,2.45,2.45,0,0,0-1.68-.6,2.29,2.29,0,0,0-1.65.69,2.76,2.76,0,0,0-.63,2.07v1.89h3.36v3.93Zm9.36-3.93v13.41h-4.8V669.37Z"/><path d="M276.46,669.37h4.8V671a5.15,5.15,0,0,1,4-1.86,5.46,5.46,0,0,1,2.58.6,4.19,4.19,0,0,1,1.86,1.92,4.71,4.71,0,0,1,1.83-1.86,5.44,5.44,0,0,1,2.79-.66,5.33,5.33,0,0,1,3.72,1.23,4.93,4.93,0,0,1,1.26,3.69v8.73h-4.8v-6.63c0-1.41-.15-2.37-.69-2.88a1.75,1.75,0,0,0-1.26-.45,1.94,1.94,0,0,0-1.41.54,3.43,3.43,0,0,0-.87,2.55v6.87h-4.8v-6.63a4.29,4.29,0,0,0-.63-2.88,1.86,1.86,0,0,0-1.44-.54,1.69,1.69,0,0,0-1.32.48,4,4,0,0,0-.84,2.94v6.63h-4.8Z"/><path d="M316.15,681a9.18,9.18,0,0,1-12,0,6.92,6.92,0,0,1,0-9.87,8.37,8.37,0,0,1,6-2.22,8.47,8.47,0,0,1,6,2.22,6.92,6.92,0,0,1,0,9.87ZM308,673.87a3.06,3.06,0,0,0,2.16,5.22,3.05,3.05,0,0,0,2.13-.9,3,3,0,0,0,.93-2.13,3.26,3.26,0,0,0-.93-2.19,3.08,3.08,0,0,0-4.29,0Z"/><path d="M336.16,682.78h-4.8v-1.47a4.92,4.92,0,0,1-4.05,1.92,6.42,6.42,0,0,1-4.71-1.86,7.4,7.4,0,0,1-2.16-5.34,7.31,7.31,0,0,1,2.19-5.31,6.86,6.86,0,0,1,4.74-1.8,5.31,5.31,0,0,1,4,1.74v-9.75h4.8Zm-5.67-4.44a3.22,3.22,0,0,0,1-2.28,3.51,3.51,0,0,0-.9-2.16,3.08,3.08,0,0,0-4.32,0,3.29,3.29,0,0,0-.93,2.28,3,3,0,0,0,.93,2.1,3,3,0,0,0,2.13.9A3.28,3.28,0,0,0,330.49,678.34Z"/><path d="M341.86,661.09a2.7,2.7,0,1,1-2.7,2.7A2.69,2.69,0,0,1,341.86,661.09Zm2.4,8.28v13.41h-4.8V669.37Z"/><path d="M352.69,673.3v9.48h-4.8V673.3h-1.68v-3.93h1.68v-1.65a6.77,6.77,0,0,1,1.83-5.25,7.6,7.6,0,0,1,5.28-1.89,8.08,8.08,0,0,1,5.37,1.8,6.11,6.11,0,0,1,1.68,4.5v.69h-4.8v-.45a2.78,2.78,0,0,0-.6-1.8,2.45,2.45,0,0,0-1.68-.6,2.29,2.29,0,0,0-1.65.69,2.76,2.76,0,0,0-.63,2.07v1.89h3.36v3.93Zm9.36-3.93v13.41h-4.8V669.37Z"/><path d="M375.19,682.48a7.12,7.12,0,0,1-3.33.75,7.41,7.41,0,0,1-5.28-2,7,7,0,0,1-2.07-5,7.3,7.3,0,0,1,2.16-5.19,7.73,7.73,0,0,1,5.4-2,6.88,6.88,0,0,1,3.12.75v4a4.28,4.28,0,0,0-2.49-.87,3.15,3.15,0,0,0-2.34.93,3.26,3.26,0,0,0-.93,2.31,3.44,3.44,0,0,0,.84,2.25,3.26,3.26,0,0,0,2.46,1,3.63,3.63,0,0,0,2.46-.9Z"/><path d="M388.3,669.37h4.8v13.41h-4.8v-1.47a5,5,0,0,1-4.17,1.92,6.42,6.42,0,0,1-4.83-2.13,6.76,6.76,0,0,1-1.92-4.92,7.42,7.42,0,0,1,2.07-5.37,6.9,6.9,0,0,1,4.83-1.89,5.31,5.31,0,0,1,4,1.74Zm-5,4.5a3.14,3.14,0,0,0-1,2.19,3.09,3.09,0,0,0,.93,2.19,3.37,3.37,0,0,0,2.16.9,3.08,3.08,0,0,0,2.16-.93,2.91,2.91,0,0,0,.9-2.16,3,3,0,0,0-.93-2.19,3,3,0,0,0-4.26,0Z"/><path d="M401.71,673.3v9.48h-4.8V673.3h-1.53v-3.93h1.53V665h4.8v4.41h2.73v3.93Z"/><path d="M407.74,677.77h4.5l-5.16,9.48H404Z"/><path d="M423.25,678.34a6.87,6.87,0,0,0,1.92,1,6.25,6.25,0,0,0,1.86.33,2,2,0,0,0,1.23-.36.77.77,0,0,0,.24-.63.71.71,0,0,0-.24-.6,3,3,0,0,0-1.26-.48l-1.26-.3a4.31,4.31,0,0,1-2.34-1.17,3.24,3.24,0,0,1-.87-2.31,4.79,4.79,0,0,1,1.26-3.27,6.77,6.77,0,0,1,4.8-1.62,11.07,11.07,0,0,1,4.29.87l-1.62,3.06a6.64,6.64,0,0,0-2.52-.66,2,2,0,0,0-1.11.27.72.72,0,0,0-.42.66.78.78,0,0,0,.57.75c.45.18.84.18,1.59.39l.87.24a5.67,5.67,0,0,1,2,1,3.79,3.79,0,0,1,1,2.67,4.48,4.48,0,0,1-1.35,3.33,7,7,0,0,1-4.95,1.68,9.89,9.89,0,0,1-5.4-1.56Z"/><path d="M449.92,677h-10a3.39,3.39,0,0,0,.84,2.25,2.7,2.7,0,0,0,2,.66,3.79,3.79,0,0,0,1.56-.36,2.23,2.23,0,0,0,.84-.9h4.59a6,6,0,0,1-1.62,2.76c-1,1-2.55,1.86-5.46,1.86a7.61,7.61,0,0,1-5.55-2,7,7,0,0,1-2-5.07,7.16,7.16,0,0,1,2-5.19,7.55,7.55,0,0,1,5.49-1.95,7.35,7.35,0,0,1,5.16,1.83,7.51,7.51,0,0,1,2.13,5.64Zm-4.41-2.76a3.22,3.22,0,0,0-.78-1.44,2.8,2.8,0,0,0-2-.72,2.58,2.58,0,0,0-1.95.72,2.74,2.74,0,0,0-.72,1.44Z"/><path d="M464.47,689.65h-4.8V669.37h4.8v1.47a5,5,0,0,1,4.11-1.92,6.67,6.67,0,0,1,4.77,2,7.61,7.61,0,0,1-.12,10.5,6.44,6.44,0,0,1-4.59,1.86,5.71,5.71,0,0,1-4.17-1.74Zm.78-15.75a3.27,3.27,0,0,0-.93,2.22,3.24,3.24,0,0,0,.93,2.13,3.07,3.07,0,0,0,2.16.9,2.9,2.9,0,0,0,2.13-.9,3.17,3.17,0,0,0,.93-2.13,3.27,3.27,0,0,0-.93-2.22,2.9,2.9,0,0,0-2.13-.9A3.07,3.07,0,0,0,465.25,673.9Z"/><path d="M491.65,681a9.18,9.18,0,0,1-12,0,6.92,6.92,0,0,1,0-9.87,8.37,8.37,0,0,1,6-2.22,8.47,8.47,0,0,1,6,2.22,6.92,6.92,0,0,1,0,9.87Zm-8.13-7.14a3.06,3.06,0,0,0,2.16,5.22,3.05,3.05,0,0,0,2.13-.9,3,3,0,0,0,.93-2.13,3.26,3.26,0,0,0-.93-2.19,3.08,3.08,0,0,0-4.29,0Z"/><path d="M501.79,673.3v9.48H497V673.3h-1.53v-3.93H497V665h4.8v4.41h2.73v3.93Z"/><path d="M523.45,682.48a7.12,7.12,0,0,1-3.33.75,7.41,7.41,0,0,1-5.28-2,7,7,0,0,1-2.07-5,7.3,7.3,0,0,1,2.16-5.19,7.73,7.73,0,0,1,5.4-2,6.88,6.88,0,0,1,3.12.75v4a4.28,4.28,0,0,0-2.49-.87,3.15,3.15,0,0,0-2.34.93,3.26,3.26,0,0,0-.93,2.31,3.44,3.44,0,0,0,.84,2.25,3.26,3.26,0,0,0,2.46,1,3.63,3.63,0,0,0,2.46-.9Z"/><path d="M526.18,669.37H531v2.19a4.33,4.33,0,0,1,1.89-1.86,5.24,5.24,0,0,1,2.49-.54l1,.06v4.53a4.23,4.23,0,0,0-2.07-.48,3.14,3.14,0,0,0-2.19.72,4,4,0,0,0-1.08,3.06v5.73h-4.8Z"/><path d="M552.67,677h-10a3.39,3.39,0,0,0,.84,2.25,2.7,2.7,0,0,0,2,.66,3.79,3.79,0,0,0,1.56-.36,2.23,2.23,0,0,0,.84-.9h4.59a6,6,0,0,1-1.62,2.76c-1,1-2.55,1.86-5.46,1.86a7.61,7.61,0,0,1-5.55-2,7,7,0,0,1-2-5.07,7.16,7.16,0,0,1,2-5.19,7.55,7.55,0,0,1,5.49-1.95,7.35,7.35,0,0,1,5.16,1.83,7.51,7.51,0,0,1,2.13,5.64Zm-4.41-2.76a3.22,3.22,0,0,0-.78-1.44,2.8,2.8,0,0,0-2-.72,2.58,2.58,0,0,0-2,.72,2.74,2.74,0,0,0-.72,1.44Z"/><path d="M565.81,669.37h4.8v13.41h-4.8v-1.47a5,5,0,0,1-4.17,1.92,6.42,6.42,0,0,1-4.83-2.13,6.76,6.76,0,0,1-1.92-4.92,7.42,7.42,0,0,1,2.07-5.37,6.9,6.9,0,0,1,4.83-1.89,5.31,5.31,0,0,1,4,1.74Zm-5,4.5a3.14,3.14,0,0,0-1,2.19,3.09,3.09,0,0,0,.93,2.19,3.37,3.37,0,0,0,2.16.9,3.08,3.08,0,0,0,2.16-.93,2.91,2.91,0,0,0,.9-2.16,3,3,0,0,0-.93-2.19,3,3,0,0,0-4.26,0Z"/><path d="M586.69,660.91h3.93l-15.36,27.51h-3.9Z"/><path d="M594.94,678.34a6.87,6.87,0,0,0,1.92,1,6.25,6.25,0,0,0,1.86.33,2,2,0,0,0,1.23-.36.77.77,0,0,0,.24-.63.71.71,0,0,0-.24-.6,3,3,0,0,0-1.26-.48l-1.26-.3a4.31,4.31,0,0,1-2.34-1.17,3.24,3.24,0,0,1-.87-2.31,4.79,4.79,0,0,1,1.26-3.27,6.77,6.77,0,0,1,4.8-1.62,11.07,11.07,0,0,1,4.29.87L603,672.85a6.64,6.64,0,0,0-2.52-.66,2,2,0,0,0-1.11.27.72.72,0,0,0-.42.66.78.78,0,0,0,.57.75c.45.18.84.18,1.59.39l.87.24a5.67,5.67,0,0,1,2,1,3.79,3.79,0,0,1,1,2.67,4.48,4.48,0,0,1-1.35,3.33,7,7,0,0,1-5,1.68,9.89,9.89,0,0,1-5.4-1.56Zm2.34,5.94,4.5.48-3.06,5.52-3-.36Z"/><path d="M612.7,673.3v9.48h-4.8V673.3h-1.53v-3.93h1.53V665h4.8v4.41h2.72v3.93Z"/><path d="M631.44,677h-10a3.43,3.43,0,0,0,.83,2.25,2.7,2.7,0,0,0,2,.66,3.76,3.76,0,0,0,1.56-.36,2.23,2.23,0,0,0,.84-.9h4.59a6,6,0,0,1-1.62,2.76c-1,1-2.55,1.86-5.45,1.86a7.61,7.61,0,0,1-5.55-2,7,7,0,0,1-2-5.07,7.16,7.16,0,0,1,2-5.19,7.52,7.52,0,0,1,5.48-1.95,7.35,7.35,0,0,1,5.16,1.83,7.51,7.51,0,0,1,2.13,5.64ZM627,674.2a3.22,3.22,0,0,0-.78-1.44,2.78,2.78,0,0,0-2-.72,2.58,2.58,0,0,0-1.95.72,2.73,2.73,0,0,0-.71,1.44Z"/><path d="M634.21,669.37H639v2.19a4.29,4.29,0,0,1,1.9-1.86,5.17,5.17,0,0,1,2.48-.54l1,.06v4.53a4.23,4.23,0,0,0-2.07-.48,3.16,3.16,0,0,0-2.19.72,4,4,0,0,0-1.08,3.06v5.73h-4.79Z"/><path d="M661.26,669.37v12.57c0,2-.18,3.84-1.83,5.55a8,8,0,0,1-5.91,2.16,8.22,8.22,0,0,1-6.26-2.37,4.88,4.88,0,0,1-1.47-2.79h5.34a2.06,2.06,0,0,0,2.25,1.38,2.88,2.88,0,0,0,2.12-.75,3.23,3.23,0,0,0,1-2.49v-1.35a5.1,5.1,0,0,1-4,1.77,6.68,6.68,0,0,1-5-1.89,7.08,7.08,0,0,1-1.86-4.89,7.73,7.73,0,0,1,2-5.25,6.74,6.74,0,0,1,4.86-2,5.22,5.22,0,0,1,4,1.77v-1.38Zm-9.77,4.5a3.11,3.11,0,0,0-.93,2.16,3.15,3.15,0,0,0,.93,2.19,3,3,0,0,0,2.16.87,3.15,3.15,0,0,0,2.15-.9,3.22,3.22,0,0,0,.91-2.16,3.5,3.5,0,0,0-1-2.19,3.06,3.06,0,0,0-2.13-.87A2.86,2.86,0,0,0,651.49,673.87Z"/><path d="M678.78,677h-10a3.39,3.39,0,0,0,.84,2.25,2.7,2.7,0,0,0,2,.66,3.79,3.79,0,0,0,1.56-.36,2.23,2.23,0,0,0,.84-.9h4.59a6,6,0,0,1-1.62,2.76c-1,1-2.55,1.86-5.46,1.86a7.58,7.58,0,0,1-5.54-2,7,7,0,0,1-2-5.07,7.15,7.15,0,0,1,2-5.19,7.57,7.57,0,0,1,5.49-1.95,7.35,7.35,0,0,1,5.16,1.83,7.51,7.51,0,0,1,2.13,5.64Zm-4.41-2.76a3.22,3.22,0,0,0-.78-1.44,2.8,2.8,0,0,0-2-.72,2.58,2.58,0,0,0-2,.72,2.74,2.74,0,0,0-.72,1.44Z"/><path d="M693.69,673.3v9.48h-4.8V673.3h-1.68v-3.93h1.68v-1.65a6.77,6.77,0,0,1,1.83-5.25,7.6,7.6,0,0,1,5.28-1.89,8.08,8.08,0,0,1,5.37,1.8,6.11,6.11,0,0,1,1.68,4.5v.69h-4.8v-.45a2.78,2.78,0,0,0-.6-1.8,2.45,2.45,0,0,0-1.68-.6,2.29,2.29,0,0,0-1.65.69,2.76,2.76,0,0,0-.63,2.07v1.89h3.36v3.93Zm9.36-3.93v13.41h-4.8V669.37Z"/><path d="M706.92,678.34a6.87,6.87,0,0,0,1.92,1,6.25,6.25,0,0,0,1.86.33,2,2,0,0,0,1.23-.36.77.77,0,0,0,.24-.63.71.71,0,0,0-.24-.6,3,3,0,0,0-1.26-.48l-1.26-.3a4.31,4.31,0,0,1-2.34-1.17,3.24,3.24,0,0,1-.87-2.31,4.79,4.79,0,0,1,1.26-3.27,6.77,6.77,0,0,1,4.8-1.62,11.07,11.07,0,0,1,4.29.87l-1.62,3.06a6.64,6.64,0,0,0-2.52-.66,2,2,0,0,0-1.11.27.72.72,0,0,0-.42.66.78.78,0,0,0,.57.75c.45.18.84.18,1.59.39l.87.24a5.67,5.67,0,0,1,2,1,3.79,3.79,0,0,1,1,2.67,4.48,4.48,0,0,1-1.35,3.33,7,7,0,0,1-4.95,1.68,9.89,9.89,0,0,1-5.4-1.56Zm2.34,5.94,4.5.48-3.06,5.52-3-.36Z"/><path d="M721.77,661.09a2.7,2.7,0,1,1-2.7,2.7A2.69,2.69,0,0,1,721.77,661.09Zm2.4,8.28v13.41h-4.8V669.37Z"/><path d="M741.66,677h-10a3.39,3.39,0,0,0,.84,2.25,2.7,2.7,0,0,0,2,.66,3.79,3.79,0,0,0,1.56-.36,2.23,2.23,0,0,0,.84-.9h4.59a6,6,0,0,1-1.62,2.76c-1,1-2.55,1.86-5.46,1.86a7.61,7.61,0,0,1-5.55-2,7,7,0,0,1-2-5.07,7.16,7.16,0,0,1,2-5.19,7.55,7.55,0,0,1,5.49-1.95,7.35,7.35,0,0,1,5.16,1.83,7.51,7.51,0,0,1,2.13,5.64Zm-4.41-2.76a3.22,3.22,0,0,0-.78-1.44,2.8,2.8,0,0,0-2-.72,2.58,2.58,0,0,0-2,.72,2.74,2.74,0,0,0-.72,1.44Z"/><path d="M744.42,669.37h4.8v2.19a4.33,4.33,0,0,1,1.89-1.86,5.24,5.24,0,0,1,2.49-.54l1,.06v4.53a4.23,4.23,0,0,0-2.07-.48,3.14,3.14,0,0,0-2.19.72,4,4,0,0,0-1.08,3.06v5.73h-4.8Z"/><path d="M770.91,677h-10a3.39,3.39,0,0,0,.84,2.25,2.7,2.7,0,0,0,2,.66,3.79,3.79,0,0,0,1.56-.36,2.23,2.23,0,0,0,.84-.9h4.59a6,6,0,0,1-1.62,2.76c-1,1-2.55,1.86-5.46,1.86a7.61,7.61,0,0,1-5.55-2,7,7,0,0,1-2-5.07,7.16,7.16,0,0,1,2-5.19,7.55,7.55,0,0,1,5.49-1.95,7.35,7.35,0,0,1,5.16,1.83,7.51,7.51,0,0,1,2.13,5.64Zm-4.41-2.76a3.22,3.22,0,0,0-.78-1.44,2.8,2.8,0,0,0-2-.72,2.58,2.58,0,0,0-2,.72,2.74,2.74,0,0,0-.72,1.44Z"/><path d="M76.72,708.93a6.47,6.47,0,0,1,4.89,1.77,6.59,6.59,0,0,1,1.71,4.5,5.77,5.77,0,0,1-1.59,4.17A5.61,5.61,0,0,1,79,720.75l6.27,8.19H78.79l-5-7.68v7.68H68.62v-20Zm-2.91,9h1a3.9,3.9,0,0,0,2.52-.81,2.49,2.49,0,0,0,.66-1.68,2.36,2.36,0,0,0-.69-1.68A3.52,3.52,0,0,0,74.8,713h-1Z"/><path d="M101.2,723.12h-10a3.39,3.39,0,0,0,.84,2.25,2.7,2.7,0,0,0,2,.66,3.79,3.79,0,0,0,1.56-.36,2.23,2.23,0,0,0,.84-.9H101a6,6,0,0,1-1.62,2.76c-1,1-2.55,1.86-5.46,1.86a7.61,7.61,0,0,1-5.55-2,7,7,0,0,1-2-5.07,7.16,7.16,0,0,1,2-5.19,7.55,7.55,0,0,1,5.49-2A7.35,7.35,0,0,1,99.07,717a7.51,7.51,0,0,1,2.13,5.64Zm-4.41-2.76a3.22,3.22,0,0,0-.78-1.44,2.8,2.8,0,0,0-2-.72,2.58,2.58,0,0,0-2,.72,2.74,2.74,0,0,0-.72,1.44Z"/><path d="M114.34,715.53h4.8v13.41h-4.8v-1.47a5,5,0,0,1-4.17,1.92,6.42,6.42,0,0,1-4.83-2.13,6.76,6.76,0,0,1-1.92-4.92,7.42,7.42,0,0,1,2.07-5.37,6.9,6.9,0,0,1,4.83-1.89,5.31,5.31,0,0,1,4,1.74Zm-5,4.5a3.14,3.14,0,0,0-1,2.19,3.09,3.09,0,0,0,.93,2.19,3.37,3.37,0,0,0,2.16.9,3.08,3.08,0,0,0,2.16-.93,2.91,2.91,0,0,0,.9-2.16,3,3,0,0,0-.93-2.19,3,3,0,0,0-4.26,0Z"/><path d="M137.62,728.94h-4.8v-1.47a4.92,4.92,0,0,1-4,1.92,6.42,6.42,0,0,1-4.71-1.86,7.4,7.4,0,0,1-2.16-5.34,7.31,7.31,0,0,1,2.19-5.31,6.86,6.86,0,0,1,4.74-1.8,5.31,5.31,0,0,1,4,1.74v-9.75h4.8ZM132,724.5a3.22,3.22,0,0,0,1-2.28,3.51,3.51,0,0,0-.9-2.16,3.08,3.08,0,0,0-4.32,0,3.29,3.29,0,0,0-.93,2.28,3,3,0,0,0,.93,2.1,3,3,0,0,0,2.13.9A3.28,3.28,0,0,0,132,724.5Z"/><path d="M147.76,718.89h7.59v4h-7.59Z"/><path d="M171.13,722.31v6.63h-5.19v-20h8.28a6.89,6.89,0,0,1,5.07,1.8,6.2,6.2,0,0,1,1.86,4.86,6.5,6.5,0,0,1-1.77,5,6.66,6.66,0,0,1-5,1.74Zm0-4.2h1.74a3.39,3.39,0,0,0,2.19-.63,2.29,2.29,0,0,0,.66-1.83,2.43,2.43,0,0,0-.6-1.8,3,3,0,0,0-2.22-.72h-1.77Z"/><path d="M196.21,727.17a9.18,9.18,0,0,1-12,0,6.92,6.92,0,0,1,0-9.87,8.37,8.37,0,0,1,6-2.22,8.47,8.47,0,0,1,6,2.22,6.92,6.92,0,0,1,0,9.87ZM188.08,720a3.06,3.06,0,0,0,2.16,5.22,3.05,3.05,0,0,0,2.13-.9,3,3,0,0,0,.93-2.13,3.26,3.26,0,0,0-.93-2.19,3.08,3.08,0,0,0-4.29,0Z"/><path d="M211.42,715.53h4.8v13.41h-4.8v-1.47a5,5,0,0,1-4.17,1.92,6.42,6.42,0,0,1-4.83-2.13,6.76,6.76,0,0,1-1.92-4.92,7.42,7.42,0,0,1,2.07-5.37,6.9,6.9,0,0,1,4.83-1.89,5.31,5.31,0,0,1,4,1.74Zm-5,4.5a3.14,3.14,0,0,0-1,2.19,3.09,3.09,0,0,0,.93,2.19,3.37,3.37,0,0,0,2.16.9,3.08,3.08,0,0,0,2.16-.93,2.91,2.91,0,0,0,.9-2.16,3,3,0,0,0-.93-2.19,3,3,0,0,0-4.26,0Z"/><path d="M224.83,719.46v9.48H220v-9.48H218.5v-3.93H220v-4.41h4.8v4.41h2.73v3.93Z"/><path d="M243.58,723.12h-10a3.39,3.39,0,0,0,.84,2.25,2.7,2.7,0,0,0,2,.66,3.79,3.79,0,0,0,1.56-.36,2.23,2.23,0,0,0,.84-.9h4.59a6,6,0,0,1-1.62,2.76c-1,1-2.55,1.86-5.46,1.86a7.61,7.61,0,0,1-5.55-2,7,7,0,0,1-2-5.07,7.16,7.16,0,0,1,2-5.19,7.55,7.55,0,0,1,5.49-2,7.35,7.35,0,0,1,5.16,1.83,7.51,7.51,0,0,1,2.13,5.64Zm-4.41-2.76a3.22,3.22,0,0,0-.78-1.44,2.8,2.8,0,0,0-2-.72,2.58,2.58,0,0,0-1.95.72,2.74,2.74,0,0,0-.72,1.44Z"/><path d="M258.49,719.46v9.48h-4.8v-9.48H252v-3.93h1.68v-1.65a6.77,6.77,0,0,1,1.83-5.25,7.6,7.6,0,0,1,5.28-1.89,8.08,8.08,0,0,1,5.37,1.8,6.11,6.11,0,0,1,1.68,4.5v.69h-4.8v-.45a2.78,2.78,0,0,0-.6-1.8,2.45,2.45,0,0,0-1.68-.6,2.29,2.29,0,0,0-1.65.69,2.76,2.76,0,0,0-.63,2.07v1.89h3.36v3.93Zm9.36-3.93v13.41h-4.8V715.53Z"/><path d="M288,728.64a7.12,7.12,0,0,1-3.33.75,7.41,7.41,0,0,1-5.28-2,7,7,0,0,1-2.07-5,7.3,7.3,0,0,1,2.16-5.19,7.73,7.73,0,0,1,5.4-2,6.88,6.88,0,0,1,3.12.75v4a4.28,4.28,0,0,0-2.49-.87,3.15,3.15,0,0,0-2.34.93,3.26,3.26,0,0,0-.93,2.31,3.44,3.44,0,0,0,.84,2.25,3.26,3.26,0,0,0,2.46,1,3.63,3.63,0,0,0,2.46-.9Z"/><path d="M293.11,707.25a2.7,2.7,0,1,1-2.7,2.7A2.69,2.69,0,0,1,293.11,707.25Zm2.4,8.28v13.41h-4.8V715.53Z"/><path d="M304.09,719.46v9.48h-4.8v-9.48h-1.53v-3.93h1.53v-4.41h4.8v4.41h2.73v3.93Z"/><path d="M311,707.25a2.7,2.7,0,1,1-2.7,2.7A2.69,2.69,0,0,1,311,707.25Zm2.4,8.28v13.41h-4.8V715.53Z"/><path d="M322,719.46v9.48h-4.8v-9.48h-1.53v-3.93h1.53v-4.41H322v4.41h2.73v3.93Z"/><path d="M328,723.93h4.5l-5.16,9.48h-3.09Z"/><path d="M343.54,724.5a6.87,6.87,0,0,0,1.92,1,6.25,6.25,0,0,0,1.86.33,2,2,0,0,0,1.23-.36.77.77,0,0,0,.24-.63.71.71,0,0,0-.24-.6,3,3,0,0,0-1.26-.48l-1.26-.3a4.31,4.31,0,0,1-2.34-1.17,3.24,3.24,0,0,1-.87-2.31,4.79,4.79,0,0,1,1.26-3.27,6.77,6.77,0,0,1,4.8-1.62,11.07,11.07,0,0,1,4.29.87L351.55,719a6.64,6.64,0,0,0-2.52-.66,2,2,0,0,0-1.11.27.72.72,0,0,0-.42.66.78.78,0,0,0,.57.75c.45.18.84.18,1.59.39l.87.24a5.67,5.67,0,0,1,2,1.05,3.79,3.79,0,0,1,1,2.67,4.48,4.48,0,0,1-1.35,3.33,7,7,0,0,1-4.95,1.68,9.89,9.89,0,0,1-5.4-1.56Z"/><path d="M370.21,723.12h-10a3.39,3.39,0,0,0,.84,2.25,2.7,2.7,0,0,0,2,.66,3.79,3.79,0,0,0,1.56-.36,2.23,2.23,0,0,0,.84-.9H370a6,6,0,0,1-1.62,2.76c-1,1-2.55,1.86-5.46,1.86a7.61,7.61,0,0,1-5.55-2,7,7,0,0,1-2-5.07,7.16,7.16,0,0,1,2-5.19,7.55,7.55,0,0,1,5.49-2,7.35,7.35,0,0,1,5.16,1.83,7.51,7.51,0,0,1,2.13,5.64Zm-4.41-2.76a3.22,3.22,0,0,0-.78-1.44,2.8,2.8,0,0,0-2-.72,2.58,2.58,0,0,0-2,.72,2.74,2.74,0,0,0-.72,1.44Z"/><path d="M384.76,735.81H380V715.53h4.8V717a5,5,0,0,1,4.11-1.92,6.67,6.67,0,0,1,4.77,1.95,7.61,7.61,0,0,1-.12,10.5,6.44,6.44,0,0,1-4.59,1.86,5.71,5.71,0,0,1-4.17-1.74Zm.78-15.75a3.27,3.27,0,0,0-.93,2.22,3.24,3.24,0,0,0,.93,2.13,3.07,3.07,0,0,0,2.16.9,2.9,2.9,0,0,0,2.13-.9,3.17,3.17,0,0,0,.93-2.13,3.27,3.27,0,0,0-.93-2.22,2.9,2.9,0,0,0-2.13-.9A3.07,3.07,0,0,0,385.54,720.06Z"/><path d="M411.94,727.17a9.18,9.18,0,0,1-12,0,6.92,6.92,0,0,1,0-9.87,8.37,8.37,0,0,1,6-2.22,8.47,8.47,0,0,1,6,2.22,6.92,6.92,0,0,1,0,9.87ZM403.81,720a3.06,3.06,0,0,0,2.16,5.22,3.05,3.05,0,0,0,2.13-.9,3,3,0,0,0,.93-2.13,3.26,3.26,0,0,0-.93-2.19,3.08,3.08,0,0,0-4.29,0Z"/><path d="M422.08,719.46v9.48h-4.8v-9.48h-1.53v-3.93h1.53v-4.41h4.8v4.41h2.73v3.93Z"/><path d="M443.74,728.64a7.12,7.12,0,0,1-3.33.75,7.41,7.41,0,0,1-5.28-2,7,7,0,0,1-2.07-5,7.3,7.3,0,0,1,2.16-5.19,7.73,7.73,0,0,1,5.4-2,6.88,6.88,0,0,1,3.12.75v4a4.28,4.28,0,0,0-2.49-.87,3.15,3.15,0,0,0-2.34.93,3.26,3.26,0,0,0-.93,2.31,3.44,3.44,0,0,0,.84,2.25,3.26,3.26,0,0,0,2.46,1,3.63,3.63,0,0,0,2.46-.9Z"/><path d="M448.87,707.25a2.7,2.7,0,1,1-2.7,2.7A2.69,2.69,0,0,1,448.87,707.25Zm2.4,8.28v13.41h-4.8V715.53Z"/><path d="M459.85,719.46v9.48h-4.8v-9.48h-1.53v-3.93h1.53v-4.41h4.8v4.41h2.73v3.93Z"/><path d="M466.78,707.25a2.7,2.7,0,1,1-2.7,2.7A2.69,2.69,0,0,1,466.78,707.25Zm2.4,8.28v13.41h-4.8V715.53Z"/><path d="M484.6,719.46v9.48h-4.8v-9.48h-1.68v-3.93h1.68v-1.65a6.77,6.77,0,0,1,1.83-5.25,7.6,7.6,0,0,1,5.28-1.89,8.08,8.08,0,0,1,5.37,1.8A6.11,6.11,0,0,1,494,713v.69h-4.8v-.45a2.78,2.78,0,0,0-.6-1.8,2.45,2.45,0,0,0-1.68-.6,2.29,2.29,0,0,0-1.65.69,2.76,2.76,0,0,0-.63,2.07v1.89H488v3.93Zm9.36-3.93v13.41h-4.8V715.53Z"/><path d="M497.83,724.5a6.87,6.87,0,0,0,1.92,1,6.25,6.25,0,0,0,1.86.33,2,2,0,0,0,1.23-.36.77.77,0,0,0,.24-.63.71.71,0,0,0-.24-.6,3,3,0,0,0-1.26-.48l-1.26-.3a4.31,4.31,0,0,1-2.34-1.17,3.24,3.24,0,0,1-.87-2.31,4.79,4.79,0,0,1,1.26-3.27,6.77,6.77,0,0,1,4.8-1.62,11.07,11.07,0,0,1,4.29.87L505.84,719a6.64,6.64,0,0,0-2.52-.66,2,2,0,0,0-1.11.27.72.72,0,0,0-.42.66.78.78,0,0,0,.57.75c.45.18.84.18,1.59.39l.87.24a5.67,5.67,0,0,1,2,1.05,3.79,3.79,0,0,1,1,2.67,4.48,4.48,0,0,1-1.35,3.33,7,7,0,0,1-5,1.68,9.89,9.89,0,0,1-5.4-1.56Zm2.34,5.94,4.5.48-3.06,5.52-3-.36Z"/><path d="M512.68,707.25A2.7,2.7,0,1,1,510,710,2.69,2.69,0,0,1,512.68,707.25Zm2.4,8.28v13.41h-4.8V715.53Z"/><path d="M532.56,723.12h-10a3.39,3.39,0,0,0,.84,2.25,2.66,2.66,0,0,0,2,.66,3.79,3.79,0,0,0,1.56-.36,2.28,2.28,0,0,0,.83-.9h4.59a6,6,0,0,1-1.62,2.76c-1,1-2.55,1.86-5.45,1.86a7.61,7.61,0,0,1-5.55-2,7,7,0,0,1-2-5.07,7.16,7.16,0,0,1,2-5.19,7.54,7.54,0,0,1,5.48-2,7.35,7.35,0,0,1,5.16,1.83,7.51,7.51,0,0,1,2.13,5.64Zm-4.41-2.76a3.3,3.3,0,0,0-.77-1.44,2.8,2.8,0,0,0-2-.72,2.6,2.6,0,0,0-2,.72,2.73,2.73,0,0,0-.71,1.44Z"/><path d="M535.33,715.53h4.8v2.19a4.28,4.28,0,0,1,1.89-1.86,5.2,5.2,0,0,1,2.48-.54l1,.06v4.53a4.22,4.22,0,0,0-2.06-.48,3.14,3.14,0,0,0-2.19.72,4,4,0,0,0-1.08,3.06v5.73h-4.8Z"/><path d="M561.81,723.12h-10a3.39,3.39,0,0,0,.84,2.25,2.66,2.66,0,0,0,2,.66,3.79,3.79,0,0,0,1.56-.36,2.28,2.28,0,0,0,.83-.9h4.59a6,6,0,0,1-1.62,2.76c-1,1-2.55,1.86-5.45,1.86a7.61,7.61,0,0,1-5.55-2,7,7,0,0,1-2-5.07,7.16,7.16,0,0,1,2-5.19,7.54,7.54,0,0,1,5.48-2,7.35,7.35,0,0,1,5.16,1.83,7.51,7.51,0,0,1,2.13,5.64Zm-4.41-2.76a3.3,3.3,0,0,0-.77-1.44,2.8,2.8,0,0,0-2-.72,2.6,2.6,0,0,0-2,.72,2.73,2.73,0,0,0-.71,1.44Z"/><path d="M569.38,707.07v21.87h-4.8V707.07Z"/><path d="M586.86,723.12h-10a3.43,3.43,0,0,0,.83,2.25,2.7,2.7,0,0,0,2,.66,3.79,3.79,0,0,0,1.56-.36,2.23,2.23,0,0,0,.84-.9h4.59a6,6,0,0,1-1.62,2.76c-1,1-2.55,1.86-5.45,1.86a7.59,7.59,0,0,1-5.55-2,7,7,0,0,1-2-5.07,7.19,7.19,0,0,1,2-5.19,7.57,7.57,0,0,1,5.49-2,7.35,7.35,0,0,1,5.16,1.83,7.51,7.51,0,0,1,2.13,5.64Zm-4.41-2.76a3.22,3.22,0,0,0-.78-1.44,2.8,2.8,0,0,0-2-.72,2.58,2.58,0,0,0-2,.72,2.81,2.81,0,0,0-.72,1.44Z"/><path d="M606.75,728.64a7.12,7.12,0,0,1-3.33.75,7.41,7.41,0,0,1-5.28-2,7,7,0,0,1-2.07-5,7.3,7.3,0,0,1,2.16-5.19,7.73,7.73,0,0,1,5.4-2,6.88,6.88,0,0,1,3.12.75v4a4.28,4.28,0,0,0-2.49-.87,3.15,3.15,0,0,0-2.34.93,3.26,3.26,0,0,0-.93,2.31,3.44,3.44,0,0,0,.84,2.25,3.26,3.26,0,0,0,2.46,1,3.63,3.63,0,0,0,2.46-.9Z"/><path d="M623,727.17a9.18,9.18,0,0,1-12,0,6.92,6.92,0,0,1,0-9.87,8.37,8.37,0,0,1,6-2.22,8.47,8.47,0,0,1,6,2.22,6.92,6.92,0,0,1,0,9.87ZM614.85,720a3.06,3.06,0,0,0,2.16,5.22,3.05,3.05,0,0,0,2.13-.9,3,3,0,0,0,.93-2.13,3.26,3.26,0,0,0-.93-2.19,3.08,3.08,0,0,0-4.29,0Z"/><path d="M627.81,715.53h4.8v1.68a5.06,5.06,0,0,1,4.26-2,5.42,5.42,0,0,1,4,1.44,4.62,4.62,0,0,1,1.26,3.75v8.52h-4.8v-6.78a3.85,3.85,0,0,0-.6-2.61,2,2,0,0,0-1.53-.57,2.63,2.63,0,0,0-1.77.63,3.08,3.08,0,0,0-.78,2.13v7.2h-4.8Z"/><path d="M650.67,719.46v9.48h-4.8v-9.48h-1.53v-3.93h1.53v-4.41h4.8v4.41h2.73v3.93Zm-4.62,11,4.5.48-3.06,5.52-3-.36Z"/><path d="M657.6,707.25a2.7,2.7,0,1,1-2.7,2.7A2.69,2.69,0,0,1,657.6,707.25Zm2.4,8.28v13.41h-4.8V715.53Z"/><path d="M663.27,715.53h4.8v1.68a5.06,5.06,0,0,1,4.26-2,5.42,5.42,0,0,1,4,1.44,4.62,4.62,0,0,1,1.26,3.75v8.52h-4.8v-6.78a3.85,3.85,0,0,0-.6-2.61,2,2,0,0,0-1.53-.57,2.63,2.63,0,0,0-1.77.63,3.08,3.08,0,0,0-.78,2.13v7.2h-4.8Z"/><path d="M685.62,715.53V723a2.57,2.57,0,0,0,.72,2,2.48,2.48,0,0,0,1.68.51,2.24,2.24,0,0,0,1.71-.57,2.49,2.49,0,0,0,.69-1.89v-7.5h4.8v8.37a4.6,4.6,0,0,1-1.29,3.6c-1.65,1.71-4,1.89-5.79,1.89-2,0-4.47-.21-6.06-1.92a4.82,4.82,0,0,1-1.26-3.57v-8.37Z"/><path d="M703.83,719.46v9.48H699v-9.48H697.5v-3.93H699v-4.41h4.8v4.41h2.73v3.93Z"/><path d="M722.58,723.12h-10a3.39,3.39,0,0,0,.84,2.25,2.7,2.7,0,0,0,2,.66,3.79,3.79,0,0,0,1.56-.36,2.23,2.23,0,0,0,.84-.9h4.59a6,6,0,0,1-1.62,2.76c-1,1-2.55,1.86-5.46,1.86a7.61,7.61,0,0,1-5.55-2,7,7,0,0,1-2-5.07,7.16,7.16,0,0,1,2-5.19,7.55,7.55,0,0,1,5.49-2,7.35,7.35,0,0,1,5.16,1.83,7.51,7.51,0,0,1,2.13,5.64Zm-4.41-2.76a3.22,3.22,0,0,0-.78-1.44,2.8,2.8,0,0,0-2-.72,2.58,2.58,0,0,0-1.95.72,2.74,2.74,0,0,0-.72,1.44Z"/><polygon points="296.18 302.38 296.02 351.2 288.98 351.18 303.89 366.18 318.89 351.27 311.85 351.25 312.01 302.43 296.18 302.38" style="fill:none;stroke:#4fc2c9;stroke-miterlimit:10;stroke-width:3.12524304943689px"/><polygon points="117.16 99.59 150.28 99.7 150.26 104.47 160.44 94.36 150.33 84.19 150.31 88.96 117.19 88.85 117.16 99.59" style="fill:none;stroke:#4fc2c9;stroke-miterlimit:10;stroke-width:2.12007354573541px"/><polygon points="117.16 146.59 150.28 146.7 150.26 151.47 160.44 141.36 150.33 131.19 150.31 135.96 117.19 135.85 117.16 146.59" style="fill:none;stroke:#4fc2c9;stroke-miterlimit:10;stroke-width:2.12007354573541px"/><polygon points="117.16 192.94 150.28 193.04 150.26 197.82 160.44 187.71 150.33 177.53 150.31 182.3 117.19 182.19 117.16 192.94" style="fill:none;stroke:#4fc2c9;stroke-miterlimit:10;stroke-width:2.12007354573541px"/><path d="M287.6,244.88h32.67v17.18H287.6Z"/><path d="M53.6,83.88H86.27v17.18H53.6Z"/><path d="M401.27,225.06h20.66v9.43a18.63,18.63,0,0,1,8.14-8,22.51,22.51,0,0,1,10.72-2.32c.51,0,1.42.13,4.13.26v19.5a18.14,18.14,0,0,0-8.91-2.07c-2.71,0-6.46.39-9.43,3.1-4.39,4-4.65,10.07-4.65,13.17v24.67H401.27Z"/><path d="M470.11,225.06l13.68,30.48,14.6-30.48H511l14.6,31.38,14.46-31.38h23l-30.22,57.73h-14L504.46,251l-13.82,31.77H476.69L447,225.06Z"/><path d="M591.89,251.41l-23.37-26.35h26.86l9.94,11.88,10.2-11.88h26.74l-23.89,26.35,28.92,31.38H619.92l-14.73-17.18-14.72,17.18H563.09Z"/><path d="M707.38,225.06H728v9.43a18.63,18.63,0,0,1,8.14-8,22.51,22.51,0,0,1,10.72-2.32c.51,0,1.42.13,4.13.26v19.5a18.18,18.18,0,0,0-8.91-2.07c-2.71,0-6.46.39-9.43,3.1C728.3,249,728,255,728,258.12v24.67H707.38Z"/><path d="M776.21,225.06l13.69,30.48,14.6-30.48h12.65l14.6,31.38,14.46-31.38h23L839,282.79H825L810.57,251l-13.82,31.77h-14l-29.7-57.73Z"/><path d="M875.66,245.34h32.67v17.17H875.66Z"/><path d="M982.17,225.06h20.67v9.43a18.56,18.56,0,0,1,8.13-8,22.54,22.54,0,0,1,10.72-2.32c.52,0,1.42.13,4.13.26v19.5a18.14,18.14,0,0,0-8.91-2.07c-2.71,0-6.45.39-9.43,3.1-4.39,4-4.64,10.07-4.64,13.17v24.67H982.17Z"/><path d="M1040.42,244.88h32.67v17.18h-32.67Z"/><path d="M1086,244.88h32.67v17.18H1086Z"/><line x1="402.88" y1="377.34" x2="645.68" y2="377.34" style="fill:none;stroke:#4fc2c9;stroke-miterlimit:10;stroke-width:6.02697122097015px"/><line x1="645.68" y1="347.64" x2="645.68" y2="380.36" style="fill:none;stroke:#4fc2c9;stroke-miterlimit:10;stroke-width:6.02697122097015px"/><line x1="402.88" y1="347.64" x2="402.88" y2="380.36" style="fill:none;stroke:#4fc2c9;stroke-miterlimit:10;stroke-width:6.02697122097015px"/><line x1="690.45" y1="377.34" x2="918.4" y2="377.34" style="fill:none;stroke:#4fc2c9;stroke-miterlimit:10;stroke-width:5.83971290222502px"/><line x1="918.4" y1="347.64" x2="918.4" y2="380.36" style="fill:none;stroke:#4fc2c9;stroke-miterlimit:10;stroke-width:5.83971290222502px"/><line x1="690.45" y1="347.64" x2="690.45" y2="380.36" style="fill:none;stroke:#4fc2c9;stroke-miterlimit:10;stroke-width:5.83971290222502px"/><line x1="960.03" y1="377.34" x2="1140.4" y2="377.34" style="fill:none;stroke:#4fc2c9;stroke-miterlimit:10;stroke-width:5.19471961040746px"/><line x1="1140.4" y1="347.64" x2="1140.4" y2="380.36" style="fill:none;stroke:#4fc2c9;stroke-miterlimit:10;stroke-width:5.19471961040746px"/><line x1="960.03" y1="347.64" x2="960.03" y2="380.36" style="fill:none;stroke:#4fc2c9;stroke-miterlimit:10;stroke-width:5.19471961040746px"/><path d="M293.57,395v13.43H289.1V395h-3.67v-3.8h11.81V395Z"/><path d="M300.9,389.71a2.33,2.33,0,1,1-2.32,2.33A2.32,2.32,0,0,1,300.9,389.71Zm2.07,7.13v11.55h-4.13V396.84Z"/><path d="M309.92,414.31h-4.13V396.84h4.13v1.27a4.32,4.32,0,0,1,3.54-1.65,5.75,5.75,0,0,1,4.11,1.68,6.56,6.56,0,0,1-.11,9,5.57,5.57,0,0,1-3.95,1.6,4.93,4.93,0,0,1-3.59-1.5Zm.67-13.57a2.82,2.82,0,0,0-.8,1.92,2.78,2.78,0,0,0,.8,1.83,2.64,2.64,0,0,0,1.86.78,2.53,2.53,0,0,0,1.84-.78,2.78,2.78,0,0,0,.8-1.83,2.86,2.86,0,0,0-.8-1.92,2.52,2.52,0,0,0-1.84-.77A2.63,2.63,0,0,0,310.59,400.74Z"/><path d="M283,426h-5.4v2.87h4.91v3.8h-4.91v6.77h-4.47V422.16H283Z"/><path d="M287.11,420.71a2.33,2.33,0,1,1-2.32,2.32A2.32,2.32,0,0,1,287.11,420.71Zm2.07,7.13v11.55h-4.13V427.84Z"/><path d="M292.74,435.56a6.24,6.24,0,0,0,1.66.86,5.34,5.34,0,0,0,1.6.28,1.78,1.78,0,0,0,1.06-.31.66.66,0,0,0,.2-.54.62.62,0,0,0-.2-.52,2.56,2.56,0,0,0-1.09-.41l-1.08-.26a3.75,3.75,0,0,1-2-1,2.78,2.78,0,0,1-.75-2,4.09,4.09,0,0,1,1.09-2.81,5.81,5.81,0,0,1,4.13-1.4,9.66,9.66,0,0,1,3.7.75l-1.4,2.64a5.69,5.69,0,0,0-2.17-.57,1.73,1.73,0,0,0-1,.23.62.62,0,0,0-.36.57.67.67,0,0,0,.49.64c.39.16.73.16,1.37.34l.75.21a4.81,4.81,0,0,1,1.71.9,3.26,3.26,0,0,1,.88,2.3,3.88,3.88,0,0,1-1.17,2.87,6,6,0,0,1-4.26,1.44,8.55,8.55,0,0,1-4.65-1.34Zm2,5.12,3.87.41L296,445.84l-2.59-.31Z"/><path d="M305.53,420.71A2.33,2.33,0,1,1,303.2,423,2.31,2.31,0,0,1,305.53,420.71Zm2.07,7.13v11.55h-4.14V427.84Z"/><path d="M322.65,434.37h-8.6a2.93,2.93,0,0,0,.73,1.94,2.28,2.28,0,0,0,1.7.57,3.31,3.31,0,0,0,1.34-.31,1.88,1.88,0,0,0,.73-.77h3.95a5.17,5.17,0,0,1-1.39,2.37,6.29,6.29,0,0,1-4.71,1.6,6.55,6.55,0,0,1-4.78-1.75,6.55,6.55,0,0,1,0-8.84,6.5,6.5,0,0,1,4.73-1.68,6.34,6.34,0,0,1,4.44,1.58,6.45,6.45,0,0,1,1.83,4.86ZM318.86,432a2.83,2.83,0,0,0-.67-1.24,2.45,2.45,0,0,0-1.71-.62,2.22,2.22,0,0,0-1.68.62,2.39,2.39,0,0,0-.62,1.24Z"/><path d="M325,427.84h4.13v1.89a3.76,3.76,0,0,1,1.63-1.61,4.57,4.57,0,0,1,2.14-.46l.83,0v3.9a3.69,3.69,0,0,0-1.78-.41,2.69,2.69,0,0,0-1.89.62,3.47,3.47,0,0,0-.93,2.63v4.94H325Z"/><path d="M78,37V50.39H73.52V37H69.85v-3.8H81.66V37Z"/><path d="M85.33,31.71A2.33,2.33,0,1,1,83,34,2.32,2.32,0,0,1,85.33,31.71Zm2.06,7.13V50.39H83.26V38.84Z"/><path d="M94.34,56.31H90.21V38.84h4.13v1.27a4.33,4.33,0,0,1,3.54-1.65A5.79,5.79,0,0,1,102,40.13a6.58,6.58,0,0,1-.11,9,5.57,5.57,0,0,1-3.95,1.6,4.93,4.93,0,0,1-3.59-1.5ZM95,42.74a2.86,2.86,0,0,0-.8,1.92,2.78,2.78,0,0,0,.8,1.83,2.66,2.66,0,0,0,1.86.78,2.51,2.51,0,0,0,1.84-.78,2.74,2.74,0,0,0,.8-1.83,2.86,2.86,0,0,0-.8-1.92A2.5,2.5,0,0,0,96.87,42,2.65,2.65,0,0,0,95,42.74Z"/><path d="M116.58,42.23v8.16h-4.13V42.23H111V38.84h1.45V37.42A5.82,5.82,0,0,1,114,32.9a6.57,6.57,0,0,1,4.55-1.62,7,7,0,0,1,4.62,1.54,5.25,5.25,0,0,1,1.45,3.88v.59h-4.13v-.38a2.36,2.36,0,0,0-.52-1.55,2.09,2.09,0,0,0-1.45-.52,2,2,0,0,0-1.42.59,2.39,2.39,0,0,0-.54,1.79v1.62h2.89v3.39Zm8.06-3.39V50.39h-4.13V38.84Z"/><path d="M128,46.57a6,6,0,0,0,1.65.85,5.49,5.49,0,0,0,1.61.29,1.67,1.67,0,0,0,1.05-.32.63.63,0,0,0,.21-.54.58.58,0,0,0-.21-.51,2.52,2.52,0,0,0-1.08-.42l-1.09-.26a3.66,3.66,0,0,1-2-1,2.82,2.82,0,0,1-.75-2,4.12,4.12,0,0,1,1.09-2.82,5.82,5.82,0,0,1,4.13-1.39,9.41,9.41,0,0,1,3.69.75l-1.39,2.63a5.69,5.69,0,0,0-2.17-.57,1.79,1.79,0,0,0-1,.23.62.62,0,0,0-.36.57.67.67,0,0,0,.49.65c.39.15.72.15,1.37.33l.75.21a4.85,4.85,0,0,1,1.7.91,3.24,3.24,0,0,1,.88,2.29,3.85,3.85,0,0,1-1.16,2.87,6,6,0,0,1-4.26,1.45,8.53,8.53,0,0,1-4.65-1.34Zm2,5.11,3.87.42-2.63,4.75-2.59-.31Z"/><path d="M140.76,31.71A2.33,2.33,0,1,1,138.43,34,2.32,2.32,0,0,1,140.76,31.71Zm2.06,7.13V50.39h-4.13V38.84Z"/><path d="M157.88,45.38h-8.6a2.92,2.92,0,0,0,.72,1.94,2.34,2.34,0,0,0,1.71.56,3.24,3.24,0,0,0,1.34-.3,2.05,2.05,0,0,0,.73-.78h3.95a5.14,5.14,0,0,1-1.4,2.38,6.29,6.29,0,0,1-4.7,1.6A6.56,6.56,0,0,1,146.85,49a6,6,0,0,1-1.7-4.36,6.15,6.15,0,0,1,1.73-4.47,6.49,6.49,0,0,1,4.73-1.68,6.32,6.32,0,0,1,4.44,1.57,6.46,6.46,0,0,1,1.83,4.86ZM154.09,43a2.85,2.85,0,0,0-.68-1.24,2.41,2.41,0,0,0-1.7-.62,2.22,2.22,0,0,0-1.68.62,2.43,2.43,0,0,0-.62,1.24Z"/><path d="M160.26,38.84h4.13v1.89a3.74,3.74,0,0,1,1.63-1.6,4.46,4.46,0,0,1,2.14-.47c.11,0,.29,0,.83.05v3.91a3.57,3.57,0,0,0-1.78-.42,2.73,2.73,0,0,0-1.89.62,3.49,3.49,0,0,0-.93,2.64v4.93h-4.13Z"/><path d="M171.44,43a2.67,2.67,0,0,1-.8-1.89,2.73,2.73,0,0,1,2.69-2.68,2.71,2.71,0,0,1,1.91.82,2.68,2.68,0,0,1,0,3.75,2.62,2.62,0,0,1-3.77,0Zm0,6.95a2.67,2.67,0,0,1-.8-1.89,2.73,2.73,0,0,1,2.69-2.68,2.71,2.71,0,0,1,1.91.82,2.68,2.68,0,0,1,0,3.75,2.62,2.62,0,0,1-3.77,0Z"/><line x1="373.15" y1="484.99" x2="1170.4" y2="484.99" style="fill:none;stroke:#4fc2c9;stroke-miterlimit:10;stroke-width:5.73120941823925px"/><line x1="1170.4" y1="455.29" x2="1170.4" y2="488" style="fill:none;stroke:#4fc2c9;stroke-miterlimit:10;stroke-width:5.73120941823925px"/><line x1="373.15" y1="455.29" x2="373.15" y2="488" style="fill:none;stroke:#4fc2c9;stroke-miterlimit:10;stroke-width:5.73120941823925px"/><path d="M768.27,511.52H762l-1.17,2.89h-4.72l6.61-17.23h4.88l6.49,17.23h-4.78Zm-1.19-3.41-1.94-5.58-1.88,5.58Z"/><path d="M779.84,495.58v18.83h-4.13V495.58Z"/><path d="M786.79,495.58v18.83h-4.14V495.58Z"/><path d="M760,550.26a16.88,16.88,0,0,1-2.53-5.78,21.4,21.4,0,0,1-.75-6.05,22.75,22.75,0,0,1,.95-6.77,24,24,0,0,1,2.33-5.09l2.92,1.55A21.68,21.68,0,0,0,761,532.8a23.61,23.61,0,0,0-.73,5.5,27.8,27.8,0,0,0,.62,5.35,17.87,17.87,0,0,0,2,5.06Z"/><path d="M774.46,533.86h4.13v11.55h-4.13v-1.27a4.31,4.31,0,0,1-3.59,1.65,5.53,5.53,0,0,1-4.16-1.83,5.84,5.84,0,0,1-1.65-4.24,6.38,6.38,0,0,1,1.78-4.62,5.94,5.94,0,0,1,4.16-1.63,4.57,4.57,0,0,1,3.46,1.5Zm-4.34,3.87a2.6,2.6,0,0,0,0,3.78,2.93,2.93,0,0,0,1.86.77,2.63,2.63,0,0,0,1.86-.8,2.51,2.51,0,0,0,.78-1.86,2.59,2.59,0,0,0-.8-1.89,2.66,2.66,0,0,0-1.86-.75A2.63,2.63,0,0,0,770.12,537.73Z"/><path d="M781.22,548.71a17.87,17.87,0,0,0,2-5.06,27,27,0,0,0,.62-5.35,24.15,24.15,0,0,0-.72-5.5,22.22,22.22,0,0,0-1.92-4.68l2.92-1.55a21.53,21.53,0,0,1,3.28,11.89,21.71,21.71,0,0,1-.74,6,17.1,17.1,0,0,1-2.54,5.78Z"/><path d="M1032.57,406.22a10.28,10.28,0,0,1-13.58,0,9,9,0,0,1,0-12.89,10.28,10.28,0,0,1,13.58,0,9,9,0,0,1,0,12.89Zm-10.28-9.74a4.74,4.74,0,0,0-1.37,3.39,4.4,4.4,0,0,0,1.37,3.2,4.9,4.9,0,0,0,3.49,1.37,4.73,4.73,0,0,0,3.46-1.34,4.77,4.77,0,0,0,1.4-3.31,4.68,4.68,0,0,0-1.4-3.31,5.16,5.16,0,0,0-3.46-1.37A5,5,0,0,0,1022.29,396.48Z"/><path d="M1042.31,400.23v8.16h-4.13v-8.16h-1.32v-3.39h1.32v-3.79h4.13v3.79h2.35v3.39Z"/><path d="M1046.21,389.56h4.13v8.73a5.12,5.12,0,0,1,1.29-1.14,4.73,4.73,0,0,1,2.38-.56,4.61,4.61,0,0,1,3.41,1.24,4,4,0,0,1,1.09,3.22v7.34h-4.14v-5.84a3.44,3.44,0,0,0-.51-2.24,1.66,1.66,0,0,0-1.32-.5,2.2,2.2,0,0,0-1.5.5,2.5,2.5,0,0,0-.7,1.88v6.2h-4.13Z"/><path d="M1073.05,403.38h-8.6a2.92,2.92,0,0,0,.72,1.94,2.3,2.3,0,0,0,1.7.57,3.35,3.35,0,0,0,1.35-.31,2,2,0,0,0,.72-.78h4a5.19,5.19,0,0,1-1.39,2.38,6.3,6.3,0,0,1-4.7,1.6A6.55,6.55,0,0,1,1062,407a6,6,0,0,1-1.71-4.36,6.19,6.19,0,0,1,1.73-4.47,6.52,6.52,0,0,1,4.73-1.68,6.31,6.31,0,0,1,4.44,1.57,6.47,6.47,0,0,1,1.84,4.86Zm-3.8-2.38a2.73,2.73,0,0,0-.67-1.24,2.42,2.42,0,0,0-1.71-.62,2.19,2.19,0,0,0-1.67.62,2.29,2.29,0,0,0-.62,1.24Z"/><path d="M1075.42,396.84h4.14v1.89a3.66,3.66,0,0,1,1.62-1.6,4.47,4.47,0,0,1,2.15-.47c.1,0,.28,0,.82,0v3.91a3.5,3.5,0,0,0-1.78-.42,2.7,2.7,0,0,0-1.88.62,3.49,3.49,0,0,0-.93,2.64v4.93h-4.14Z"/><path d="M1037.88,444.24a16.88,16.88,0,0,1-2.53-5.78,21.4,21.4,0,0,1-.75-6,22.68,22.68,0,0,1,1-6.77,23.45,23.45,0,0,1,2.32-5.09l2.92,1.55a21.68,21.68,0,0,0-1.91,4.68,23.61,23.61,0,0,0-.72,5.5,26.94,26.94,0,0,0,.62,5.35,17.83,17.83,0,0,0,2,5.06Z"/><path d="M1055.06,437.86a7.91,7.91,0,0,1-10.31,0,6,6,0,0,1,0-8.5,7.23,7.23,0,0,1,5.14-1.91,7.33,7.33,0,0,1,5.17,1.91,6,6,0,0,1,0,8.5Zm-7-6.15a2.66,2.66,0,0,0-.8,1.89,2.62,2.62,0,0,0,4.49,1.83,2.53,2.53,0,0,0,.8-1.83,2.65,2.65,0,0,0-2.63-2.64A2.85,2.85,0,0,0,1048.06,431.71Z"/><path d="M1059,442.69a17.83,17.83,0,0,0,2-5.06,26.94,26.94,0,0,0,.62-5.35,24.15,24.15,0,0,0-.72-5.5,21.68,21.68,0,0,0-1.91-4.68l2.92-1.55a21.76,21.76,0,0,1,3.28,11.89,21.33,21.33,0,0,1-.75,6,16.88,16.88,0,0,1-2.53,5.78Z"/><path d="M78.23,151.44h-4.8V150a4.93,4.93,0,0,1-4.05,1.91A6.38,6.38,0,0,1,64.67,150a7.38,7.38,0,0,1-2.16-5.34,7.3,7.3,0,0,1,2.19-5.3,6.86,6.86,0,0,1,4.74-1.8,5.27,5.27,0,0,1,4,1.74v-9.75h4.8ZM72.56,147a3.23,3.23,0,0,0,1-2.28,3.54,3.54,0,0,0-.9-2.17,3,3,0,0,0-2.19-.89,2.9,2.9,0,0,0-2.13.87,3.27,3.27,0,0,0-.93,2.27,3,3,0,0,0,.93,2.1,3,3,0,0,0,2.13.9A3.33,3.33,0,0,0,72.56,147Z"/><path d="M192.21,91v9.47h-4.8V91h-1.68V87h1.68V85.39a6.77,6.77,0,0,1,1.83-5.25,7.6,7.6,0,0,1,5.28-1.89,8.08,8.08,0,0,1,5.37,1.8,6.11,6.11,0,0,1,1.68,4.5v.69h-4.8v-.45a2.78,2.78,0,0,0-.6-1.8,2.45,2.45,0,0,0-1.68-.6,2.29,2.29,0,0,0-1.65.69,2.74,2.74,0,0,0-.63,2.06V87h3.36V91ZM201.57,87v13.4h-4.8V87Z"/><path d="M205.44,96a6.84,6.84,0,0,0,1.92,1,6.25,6.25,0,0,0,1.86.33,2.1,2.1,0,0,0,1.23-.35.78.78,0,0,0,.24-.63.73.73,0,0,0-.24-.61,3.13,3.13,0,0,0-1.26-.47L207.93,95a4.25,4.25,0,0,1-2.34-1.17,3.22,3.22,0,0,1-.87-2.3A4.77,4.77,0,0,1,206,88.21a6.77,6.77,0,0,1,4.8-1.62,11.07,11.07,0,0,1,4.29.87l-1.62,3.06a6.65,6.65,0,0,0-2.52-.67,1.94,1.94,0,0,0-1.11.28.7.7,0,0,0-.42.66.78.78,0,0,0,.57.75c.45.18.84.18,1.59.39l.87.24a5.51,5.51,0,0,1,2,1,3.78,3.78,0,0,1,1,2.67,4.5,4.5,0,0,1-1.35,3.33,7,7,0,0,1-5,1.67,9.89,9.89,0,0,1-5.4-1.56Zm2.34,5.93,4.5.48-3.06,5.52-3-.36Z"/><path d="M220.29,78.76a2.7,2.7,0,1,1-2.7,2.7A2.69,2.69,0,0,1,220.29,78.76Zm2.4,8.28v13.4h-4.8V87Z"/><path d="M240.18,94.63h-10a3.34,3.34,0,0,0,.84,2.24,2.65,2.65,0,0,0,2,.66,3.72,3.72,0,0,0,1.56-.35,2.33,2.33,0,0,0,.84-.91H240A6,6,0,0,1,238.38,99c-1,1-2.55,1.86-5.46,1.86a7.61,7.61,0,0,1-5.55-2,7,7,0,0,1-2-5.07,7.13,7.13,0,0,1,2-5.18,7.55,7.55,0,0,1,5.49-2,7.36,7.36,0,0,1,5.16,1.84,7.47,7.47,0,0,1,2.13,5.63Zm-4.41-2.77a3.18,3.18,0,0,0-.78-1.43,2.8,2.8,0,0,0-2-.72,2.58,2.58,0,0,0-1.95.72,2.74,2.74,0,0,0-.72,1.43Z"/><path d="M242.94,87h4.8v2.19a4.33,4.33,0,0,1,1.89-1.86,5.24,5.24,0,0,1,2.49-.54l1,.06v4.53a4.23,4.23,0,0,0-2.07-.48,3.13,3.13,0,0,0-2.19.71,4.07,4.07,0,0,0-1.08,3.07v5.72h-4.8Z"/><path d="M202.23,151.44h-4.8V150a4.93,4.93,0,0,1-4.05,1.91,6.38,6.38,0,0,1-4.71-1.86,7.38,7.38,0,0,1-2.16-5.34,7.3,7.3,0,0,1,2.19-5.3,6.86,6.86,0,0,1,4.74-1.8,5.27,5.27,0,0,1,4,1.74v-9.75h4.8ZM196.56,147a3.23,3.23,0,0,0,1-2.28,3.54,3.54,0,0,0-.9-2.17,3,3,0,0,0-2.19-.89,2.9,2.9,0,0,0-2.13.87,3.27,3.27,0,0,0-.93,2.27,3,3,0,0,0,.93,2.1,3,3,0,0,0,2.13.9A3.33,3.33,0,0,0,196.56,147Z"/><path d="M207.93,129.76a2.7,2.7,0,1,1-2.7,2.7A2.69,2.69,0,0,1,207.93,129.76Zm2.4,8.28v13.4h-4.8V138Z"/><path d="M213.6,138h4.8v2.19a4.33,4.33,0,0,1,1.89-1.86,5.24,5.24,0,0,1,2.49-.54l1,.06v4.53a4.23,4.23,0,0,0-2.07-.48,3.13,3.13,0,0,0-2.19.71,4.07,4.07,0,0,0-1.08,3.07v5.72h-4.8Z"/><path d="M240.09,145.63h-10a3.34,3.34,0,0,0,.84,2.24,2.65,2.65,0,0,0,2,.66,3.72,3.72,0,0,0,1.56-.35,2.33,2.33,0,0,0,.84-.91h4.59a6,6,0,0,1-1.62,2.76c-1,1-2.55,1.86-5.46,1.86a7.61,7.61,0,0,1-5.55-2,7,7,0,0,1-2-5.07,7.13,7.13,0,0,1,2-5.18,7.55,7.55,0,0,1,5.49-2,7.36,7.36,0,0,1,5.16,1.84,7.47,7.47,0,0,1,2.13,5.63Zm-4.41-2.77a3.18,3.18,0,0,0-.78-1.43,2.8,2.8,0,0,0-2-.72,2.58,2.58,0,0,0-1.95.72,2.74,2.74,0,0,0-.72,1.43Z"/><path d="M253,151.14a7.12,7.12,0,0,1-3.33.75,7.41,7.41,0,0,1-5.28-2,7,7,0,0,1-2.07-5,7.29,7.29,0,0,1,2.16-5.19,7.73,7.73,0,0,1,5.4-2,6.88,6.88,0,0,1,3.12.75v4a4.28,4.28,0,0,0-2.49-.87,3.18,3.18,0,0,0-2.34.92,3.29,3.29,0,0,0-.93,2.32,3.44,3.44,0,0,0,.84,2.25,3.29,3.29,0,0,0,2.46,1,3.66,3.66,0,0,0,2.46-.89Z"/><path d="M261.33,142v9.47h-4.8V142H255V138h1.53v-4.41h4.8V138h2.73V142Z"/><path d="M279.36,149.68a9.21,9.21,0,0,1-12,0,6.72,6.72,0,0,1-2.07-5,6.61,6.61,0,0,1,2.07-4.92,8.37,8.37,0,0,1,6-2.22,8.47,8.47,0,0,1,6,2.22,6.61,6.61,0,0,1,2.07,4.92A6.72,6.72,0,0,1,279.36,149.68Zm-8.13-7.14a3.06,3.06,0,0,0-.93,2.19,3.09,3.09,0,0,0,.93,2.12,3,3,0,0,0,4.29,0,2.94,2.94,0,0,0,.93-2.12,3.08,3.08,0,0,0-5.22-2.19Z"/><path d="M284.19,138H289v2.19a4.33,4.33,0,0,1,1.89-1.86,5.24,5.24,0,0,1,2.49-.54l1,.06v4.53a4.23,4.23,0,0,0-2.07-.48,3.13,3.13,0,0,0-2.19.71,4.07,4.07,0,0,0-1.08,3.07v5.72h-4.8Z"/><line x1="605.4" y1="214.57" x2="605.4" y2="129.57" style="fill:none;stroke:#4fc2c9;stroke-miterlimit:10;stroke-width:6.02697122097015px"/><line x1="811.4" y1="214.57" x2="811.4" y2="129.57" style="fill:none;stroke:#4fc2c9;stroke-miterlimit:10;stroke-width:6.02697122097015px"/><line x1="996.4" y1="214.57" x2="996.4" y2="129.57" style="fill:none;stroke:#4fc2c9;stroke-miterlimit:10;stroke-width:6.02697122097015px"/><path d="M75.52,176.74v21.87h-4.8V176.74Z"/><path d="M194.52,176.74v21.87h-4.8V176.74Z"/><path d="M200.19,176.92a2.7,2.7,0,1,1-2.7,2.7A2.69,2.69,0,0,1,200.19,176.92Zm2.4,8.28v13.41h-4.8V185.2Z"/><path d="M205.86,185.2h4.8v1.68a5.06,5.06,0,0,1,4.26-2,5.42,5.42,0,0,1,4,1.44,4.62,4.62,0,0,1,1.26,3.75v8.52h-4.8v-6.78a3.85,3.85,0,0,0-.6-2.61,2,2,0,0,0-1.53-.57,2.63,2.63,0,0,0-1.77.63,3.08,3.08,0,0,0-.78,2.13v7.2h-4.8Z"/><path d="M228.21,176.74V190l4.53-4.83h6.51l-6.33,6.18,6.84,7.23H233.1l-4.89-5.49v5.49h-4.8V176.74Z"/><path d="M502.93,389.56v9.87a3.4,3.4,0,0,0,.85,2.58,3.15,3.15,0,0,0,2.05.8,3.11,3.11,0,0,0,2-.73,3.65,3.65,0,0,0,1-3v-9.5h4.32v9.57a6.77,6.77,0,0,1-1.88,5.4,7.19,7.19,0,0,1-5.49,2.07,7.42,7.42,0,0,1-5.53-2c-1.45-1.57-1.62-3.69-1.62-5.47v-9.57Z"/><path d="M517,402.53a6,6,0,0,0,1.6.83,5.38,5.38,0,0,0,1.55.27,1.68,1.68,0,0,0,1-.3.64.64,0,0,0,.2-.52.6.6,0,0,0-.2-.5,2.43,2.43,0,0,0-1-.4l-1.05-.25a3.64,3.64,0,0,1-1.95-1,2.67,2.67,0,0,1-.73-1.92,4,4,0,0,1,1-2.73,5.67,5.67,0,0,1,4-1.35,9.14,9.14,0,0,1,3.58.73L523.66,398a5.56,5.56,0,0,0-2.1-.55,1.71,1.71,0,0,0-.93.22.61.61,0,0,0-.35.55.66.66,0,0,0,.48.63c.37.15.7.15,1.32.32l.73.2a4.74,4.74,0,0,1,1.65.88,3.15,3.15,0,0,1,.85,2.22,3.76,3.76,0,0,1-1.13,2.78,5.79,5.79,0,0,1-4.12,1.39,8.25,8.25,0,0,1-4.5-1.29Z"/><path d="M539.2,401.38h-8.32a2.87,2.87,0,0,0,.7,1.88,2.25,2.25,0,0,0,1.65.55,3.24,3.24,0,0,0,1.3-.3,1.83,1.83,0,0,0,.7-.75h3.82a5,5,0,0,1-1.35,2.3,6.09,6.09,0,0,1-4.54,1.54,6.36,6.36,0,0,1-4.63-1.69,6.32,6.32,0,0,1,0-8.55,6.27,6.27,0,0,1,4.57-1.63,6.12,6.12,0,0,1,4.3,1.53,6.27,6.27,0,0,1,1.77,4.7Zm-3.67-2.3a2.71,2.71,0,0,0-.65-1.2,2.35,2.35,0,0,0-1.65-.6,2.16,2.16,0,0,0-1.62.6,2.21,2.21,0,0,0-.6,1.2Z"/><path d="M541.51,395.06h4v1.82a3.6,3.6,0,0,1,1.57-1.55,4.44,4.44,0,0,1,2.08-.45c.1,0,.27,0,.8.05v3.78a3.54,3.54,0,0,0-1.73-.4,2.59,2.59,0,0,0-1.82.6,3.37,3.37,0,0,0-.9,2.55v4.77h-4Z"/><path d="M512.23,440.93a16.69,16.69,0,0,1-2.45-5.6,20.77,20.77,0,0,1-.72-5.85,22.17,22.17,0,0,1,.92-6.55,23.07,23.07,0,0,1,2.25-4.92l2.83,1.5a20.93,20.93,0,0,0-1.85,4.52,23.22,23.22,0,0,0-.7,5.33,26,26,0,0,0,.6,5.17,17.31,17.31,0,0,0,1.95,4.9Z"/><path d="M521.61,425.06v6.25a2.11,2.11,0,0,0,.6,1.62,2.06,2.06,0,0,0,1.4.43,1.85,1.85,0,0,0,1.42-.48,2.07,2.07,0,0,0,.58-1.57v-6.25h4v7a3.82,3.82,0,0,1-1.07,3,6.38,6.38,0,0,1-4.82,1.57c-1.68,0-3.73-.17-5.05-1.59a4,4,0,0,1-1-3v-7Z"/><path d="M532.16,439.43a17.61,17.61,0,0,0,2-4.9,26.72,26.72,0,0,0,.6-5.17A23.22,23.22,0,0,0,534,424a21.45,21.45,0,0,0-1.85-4.52L535,418a21,21,0,0,1,3.18,11.5,20.68,20.68,0,0,1-.73,5.82,16.3,16.3,0,0,1-2.45,5.6Z"/><path d="M776.89,397.16h8.6c0,3.3-.68,5.65-2.68,7.5a8.16,8.16,0,0,1-5.87,2.1,8.63,8.63,0,0,1-6.4-2.48,8.39,8.39,0,0,1-2.4-6,8.68,8.68,0,0,1,2.5-6.25,9.7,9.7,0,0,1,11-1.33,8.2,8.2,0,0,1,3,3.43l-4.13,1.7a4,4,0,0,0-1.2-1.68,3.48,3.48,0,0,0-2.32-.82,4,4,0,0,0-2.85,1.15,5.63,5.63,0,0,0-1.45,3.82,5.22,5.22,0,0,0,1.32,3.6,4,4,0,0,0,3,1.28,3.57,3.57,0,0,0,2.4-.78,2.94,2.94,0,0,0,1-1.85h-3.55Z"/><path d="M787.87,395.43h4v1.83a3.6,3.6,0,0,1,1.57-1.55,4.28,4.28,0,0,1,2.07-.45l.8.05v3.77a3.52,3.52,0,0,0-1.72-.4,2.62,2.62,0,0,0-1.82.6,3.38,3.38,0,0,0-.9,2.55v4.77h-4Z"/><path d="M808.84,405.13a7.64,7.64,0,0,1-10,0,5.75,5.75,0,0,1,0-8.22,7,7,0,0,1,5-1.85,7.06,7.06,0,0,1,5,1.85,5.77,5.77,0,0,1,0,8.22Zm-6.77-5.95a2.47,2.47,0,0,0,0,3.6,2.5,2.5,0,0,0,3.57,0,2.44,2.44,0,0,0,.77-1.77,2.72,2.72,0,0,0-.77-1.83,2.57,2.57,0,0,0-3.57,0Z"/><path d="M816.87,395.43v6.25a2.14,2.14,0,0,0,.6,1.63,2.05,2.05,0,0,0,1.4.42,1.87,1.87,0,0,0,1.42-.47,2.09,2.09,0,0,0,.58-1.58v-6.25h4v7a3.8,3.8,0,0,1-1.07,3A6.38,6.38,0,0,1,819,407c-1.67,0-3.72-.17-5-1.6a4,4,0,0,1-1-3v-7Z"/><path d="M831.62,412.33h-4v-16.9h4v1.23a4.15,4.15,0,0,1,3.42-1.6,5.55,5.55,0,0,1,4,1.62,6.35,6.35,0,0,1-.1,8.75,5.39,5.39,0,0,1-3.82,1.55,4.75,4.75,0,0,1-3.47-1.45Zm.65-13.12a2.72,2.72,0,0,0-.78,1.85,2.66,2.66,0,0,0,.78,1.77,2.52,2.52,0,0,0,1.8.75,2.38,2.38,0,0,0,1.77-.75,2.66,2.66,0,0,0,.78-1.77,2.72,2.72,0,0,0-.78-1.85,2.38,2.38,0,0,0-1.77-.75A2.52,2.52,0,0,0,832.27,399.21Z"/><path d="M792.73,441.3a16.34,16.34,0,0,1-2.45-5.59,20.85,20.85,0,0,1-.73-5.85,21.72,21.72,0,0,1,.93-6.55,22.46,22.46,0,0,1,2.25-4.93l2.82,1.5a21.53,21.53,0,0,0-1.85,4.53,23.14,23.14,0,0,0-.7,5.32,26.92,26.92,0,0,0,.6,5.18,17.56,17.56,0,0,0,1.95,4.89Z"/><path d="M810.68,425.43V435.9a6,6,0,0,1-1.53,4.63,6.65,6.65,0,0,1-4.92,1.8,6.87,6.87,0,0,1-5.23-2,4,4,0,0,1-1.22-2.32h4.45a1.71,1.71,0,0,0,1.87,1.15,2.45,2.45,0,0,0,1.78-.63,2.69,2.69,0,0,0,.8-2.07v-1.13a4.24,4.24,0,0,1-3.35,1.48,5.6,5.6,0,0,1-4.13-1.57,5.91,5.91,0,0,1-1.55-4.08,6.44,6.44,0,0,1,1.65-4.37,5.61,5.61,0,0,1,4.05-1.7,4.39,4.39,0,0,1,3.33,1.47v-1.15Zm-8.15,3.75a2.5,2.5,0,0,0,0,3.63,2.54,2.54,0,0,0,1.8.72,2.56,2.56,0,0,0,2.55-2.55,2.88,2.88,0,0,0-.8-1.82,2.54,2.54,0,0,0-1.78-.73A2.39,2.39,0,0,0,802.53,429.18Z"/><path d="M813.23,439.8a17.56,17.56,0,0,0,1.95-4.89,26.92,26.92,0,0,0,.6-5.18,23.14,23.14,0,0,0-.7-5.32,21.53,21.53,0,0,0-1.85-4.53l2.82-1.5a21,21,0,0,1,3.18,11.5,20.8,20.8,0,0,1-.73,5.83,16.34,16.34,0,0,1-2.45,5.59Z"/><path d="M485.14,103.13h-10a3.34,3.34,0,0,0,.84,2.24,2.65,2.65,0,0,0,2,.66,3.72,3.72,0,0,0,1.56-.35,2.33,2.33,0,0,0,.84-.91H485a6,6,0,0,1-1.62,2.76c-1,1-2.55,1.86-5.46,1.86a7.61,7.61,0,0,1-5.55-2,7,7,0,0,1-2-5.07,7.13,7.13,0,0,1,2-5.18,7.55,7.55,0,0,1,5.49-2A7.36,7.36,0,0,1,483,97a7.47,7.47,0,0,1,2.13,5.63Zm-4.41-2.77a3.18,3.18,0,0,0-.78-1.43,2.8,2.8,0,0,0-2-.72,2.58,2.58,0,0,0-2,.72,2.74,2.74,0,0,0-.72,1.43Z"/><path d="M492.64,101.65l-5.43-6.11h6.24l2.31,2.76,2.37-2.76h6.21l-5.55,6.11,6.72,7.29h-6.36l-3.42-4-3.42,4H486Z"/><path d="M520.24,103.13h-10a3.34,3.34,0,0,0,.84,2.24,2.65,2.65,0,0,0,2,.66,3.72,3.72,0,0,0,1.56-.35,2.33,2.33,0,0,0,.84-.91h4.59a6,6,0,0,1-1.62,2.76c-1,1-2.55,1.86-5.46,1.86a7.61,7.61,0,0,1-5.55-2,7,7,0,0,1-2-5.07,7.13,7.13,0,0,1,2-5.18,7.55,7.55,0,0,1,5.49-2A7.36,7.36,0,0,1,518.11,97a7.47,7.47,0,0,1,2.13,5.63Zm-4.41-2.77a3.18,3.18,0,0,0-.78-1.43,2.8,2.8,0,0,0-2-.72,2.58,2.58,0,0,0-2,.72,2.74,2.74,0,0,0-.72,1.43Z"/><path d="M533.14,108.64a7.12,7.12,0,0,1-3.33.75,7.41,7.41,0,0,1-5.28-2,7,7,0,0,1-2.07-5,7.29,7.29,0,0,1,2.16-5.19,7.73,7.73,0,0,1,5.4-2,6.88,6.88,0,0,1,3.12.75v4a4.28,4.28,0,0,0-2.49-.87,3.18,3.18,0,0,0-2.34.92,3.29,3.29,0,0,0-.93,2.32,3.44,3.44,0,0,0,.84,2.25,3.29,3.29,0,0,0,2.46,1,3.66,3.66,0,0,0,2.46-.89Z"/><path d="M540.67,95.54V103a2.57,2.57,0,0,0,.72,2,2.48,2.48,0,0,0,1.68.51,2.23,2.23,0,0,0,1.71-.56,2.51,2.51,0,0,0,.69-1.9V95.54h4.8v8.36a4.59,4.59,0,0,1-1.29,3.6c-1.65,1.71-4,1.89-5.79,1.89-2,0-4.47-.2-6.06-1.91a4.86,4.86,0,0,1-1.26-3.58V95.54Z"/><path d="M558.88,99.47v9.47h-4.8V99.47h-1.53V95.54h1.53V91.13h4.8v4.41h2.73v3.93Z"/><path d="M577.63,103.13h-10a3.34,3.34,0,0,0,.84,2.24,2.65,2.65,0,0,0,2,.66,3.72,3.72,0,0,0,1.56-.35,2.33,2.33,0,0,0,.84-.91h4.59a6,6,0,0,1-1.62,2.76c-1,1-2.55,1.86-5.46,1.86a7.61,7.61,0,0,1-5.55-2,7,7,0,0,1-2-5.07,7.13,7.13,0,0,1,2-5.18,7.55,7.55,0,0,1,5.49-2A7.36,7.36,0,0,1,575.5,97a7.47,7.47,0,0,1,2.13,5.63Zm-4.41-2.77a3.18,3.18,0,0,0-.78-1.43,2.8,2.8,0,0,0-2-.72,2.58,2.58,0,0,0-2,.72,2.74,2.74,0,0,0-.72,1.43Z"/><path d="M591.55,114.58a19.8,19.8,0,0,1-2.94-6.72,24.85,24.85,0,0,1-.87-7A26.33,26.33,0,0,1,588.85,93a27.31,27.31,0,0,1,2.7-5.91l3.39,1.8a25.47,25.47,0,0,0-2.22,5.43,27.73,27.73,0,0,0-.84,6.38,31.72,31.72,0,0,0,.72,6.21,20.77,20.77,0,0,0,2.34,5.88Z"/><path d="M603,101.65l-5.43-6.11h6.24l2.31,2.76,2.37-2.76h6.21l-5.55,6.11,6.72,7.29h-6.36l-3.42-4-3.42,4h-6.36Z"/><path d="M617.32,112.78a20.77,20.77,0,0,0,2.34-5.88,31.72,31.72,0,0,0,.72-6.21,27.73,27.73,0,0,0-.84-6.38,25.47,25.47,0,0,0-2.22-5.43l3.39-1.8a27.31,27.31,0,0,1,2.7,5.91,27,27,0,0,1,1.11,7.89,24.78,24.78,0,0,1-.87,7,19.8,19.8,0,0,1-2.94,6.72Z"/><path d="M711.61,95.54l3.18,7.07,3.39-7.07h2.94l3.39,7.28,3.36-7.28h5.34l-7,13.4H723l-3.36-7.38-3.21,7.38h-3.24l-6.9-13.4Z"/><path d="M734.86,95.54h4.8v2.19a4.33,4.33,0,0,1,1.89-1.86,5.24,5.24,0,0,1,2.49-.54l1,.06v4.53a4.23,4.23,0,0,0-2.07-.48,3.13,3.13,0,0,0-2.19.71,4.07,4.07,0,0,0-1.08,3.07v5.72h-4.8Z"/><path d="M749.53,87.26a2.7,2.7,0,1,1-2.7,2.7A2.69,2.69,0,0,1,749.53,87.26Zm2.4,8.28v13.4h-4.8V95.54Z"/><path d="M760.51,99.47v9.47h-4.8V99.47h-1.53V95.54h1.53V91.13h4.8v4.41h2.73v3.93Z"/><path d="M779.26,103.13h-10a3.34,3.34,0,0,0,.84,2.24,2.65,2.65,0,0,0,2,.66,3.72,3.72,0,0,0,1.56-.35,2.33,2.33,0,0,0,.84-.91h4.59a6,6,0,0,1-1.62,2.76c-1,1-2.55,1.86-5.46,1.86a7.61,7.61,0,0,1-5.55-2,7,7,0,0,1-2-5.07,7.13,7.13,0,0,1,2-5.18,7.55,7.55,0,0,1,5.49-2A7.36,7.36,0,0,1,777.13,97a7.47,7.47,0,0,1,2.13,5.63Zm-4.41-2.77a3.18,3.18,0,0,0-.78-1.43,2.8,2.8,0,0,0-2-.72,2.58,2.58,0,0,0-2,.72,2.74,2.74,0,0,0-.72,1.43Z"/><path d="M793.18,114.58a19.8,19.8,0,0,1-2.94-6.72,24.85,24.85,0,0,1-.87-7A26.33,26.33,0,0,1,790.48,93a27.31,27.31,0,0,1,2.7-5.91l3.39,1.8a25.47,25.47,0,0,0-2.22,5.43,27.73,27.73,0,0,0-.84,6.38,31.72,31.72,0,0,0,.72,6.21,20.77,20.77,0,0,0,2.34,5.88Z"/><path d="M803.35,95.54l3.18,7.07,3.39-7.07h2.94l3.39,7.28,3.36-7.28H825l-7,13.4h-3.24l-3.36-7.38-3.21,7.38h-3.24L798,95.54Z"/><path d="M826.36,112.78a20.77,20.77,0,0,0,2.34-5.88,31.72,31.72,0,0,0,.72-6.21,27.73,27.73,0,0,0-.84-6.38,25.47,25.47,0,0,0-2.22-5.43l3.39-1.8a27.31,27.31,0,0,1,2.7,5.91,27,27,0,0,1,1.11,7.89,24.78,24.78,0,0,1-.87,7,19.8,19.8,0,0,1-2.94,6.72Z"/><path d="M908.2,95.54H913v2.19a4.33,4.33,0,0,1,1.89-1.86,5.24,5.24,0,0,1,2.49-.54l1,.06v4.53a4.23,4.23,0,0,0-2.07-.48,3.13,3.13,0,0,0-2.19.71,4.07,4.07,0,0,0-1.08,3.07v5.72h-4.8Z"/><path d="M934.69,103.13h-10a3.34,3.34,0,0,0,.84,2.24,2.65,2.65,0,0,0,2,.66,3.72,3.72,0,0,0,1.56-.35,2.33,2.33,0,0,0,.84-.91h4.59a6,6,0,0,1-1.62,2.76c-1,1-2.55,1.86-5.46,1.86a7.61,7.61,0,0,1-5.55-2,7,7,0,0,1-2-5.07,7.13,7.13,0,0,1,2-5.18,7.55,7.55,0,0,1,5.49-2A7.36,7.36,0,0,1,932.56,97a7.47,7.47,0,0,1,2.13,5.63Zm-4.41-2.77a3.18,3.18,0,0,0-.78-1.43,2.8,2.8,0,0,0-2-.72,2.58,2.58,0,0,0-1.95.72,2.74,2.74,0,0,0-.72,1.43Z"/><path d="M947.83,95.54h4.8v13.4h-4.8v-1.46a5,5,0,0,1-4.17,1.91,6.41,6.41,0,0,1-4.83-2.12,6.78,6.78,0,0,1-1.92-4.92A7.4,7.4,0,0,1,939,97a6.9,6.9,0,0,1,4.83-1.89,5.31,5.31,0,0,1,4,1.74Zm-5,4.5a3.12,3.12,0,0,0-1,2.19,3.05,3.05,0,0,0,.93,2.18,3.37,3.37,0,0,0,2.16.9,3.11,3.11,0,0,0,2.16-.92,2.91,2.91,0,0,0,.9-2.16,3,3,0,0,0-.93-2.19,3,3,0,0,0-2.16-.87A3.07,3.07,0,0,0,942.79,100Z"/><path d="M971.11,108.94h-4.8v-1.46a4.93,4.93,0,0,1-4,1.91,6.38,6.38,0,0,1-4.71-1.86,7.38,7.38,0,0,1-2.16-5.34,7.3,7.3,0,0,1,2.19-5.3,6.86,6.86,0,0,1,4.74-1.8,5.27,5.27,0,0,1,4,1.74V87.08h4.8Zm-5.67-4.43a3.23,3.23,0,0,0,1-2.28,3.54,3.54,0,0,0-.9-2.17,3,3,0,0,0-2.19-.89,2.9,2.9,0,0,0-2.13.87,3.27,3.27,0,0,0-.93,2.27,3,3,0,0,0,.93,2.1,3,3,0,0,0,2.13.9A3.33,3.33,0,0,0,965.44,104.51Z"/><path d="M985.57,114.58a19.8,19.8,0,0,1-2.94-6.72,24.85,24.85,0,0,1-.87-7A26.33,26.33,0,0,1,982.87,93a27.31,27.31,0,0,1,2.7-5.91l3.39,1.8a25.47,25.47,0,0,0-2.22,5.43,27.73,27.73,0,0,0-.84,6.38,31.72,31.72,0,0,0,.72,6.21,20.77,20.77,0,0,0,2.34,5.88Z"/><path d="M992,95.54h4.8v2.19a4.33,4.33,0,0,1,1.89-1.86,5.24,5.24,0,0,1,2.49-.54l1,.06v4.53a4.23,4.23,0,0,0-2.07-.48,3.13,3.13,0,0,0-2.19.71,4.07,4.07,0,0,0-1.08,3.07v5.72H992Z"/><path d="M1004.05,112.78a20.77,20.77,0,0,0,2.34-5.88,31.72,31.72,0,0,0,.72-6.21,27.73,27.73,0,0,0-.84-6.38,25.47,25.47,0,0,0-2.22-5.43l3.39-1.8a27.31,27.31,0,0,1,2.7,5.91,27,27,0,0,1,1.11,7.89,24.78,24.78,0,0,1-.87,7,19.8,19.8,0,0,1-2.94,6.72Z"/></svg>