<svg id="Layer_1" data-name="Layer 1" xmlns="http://www.w3.org/2000/svg" viewBox="0 0 1239 701"><title>Capitolul12</title><rect x="39.5" y="294.5" width="242" height="84" rx="12" ry="12" style="fill:none;stroke:#3a5c84;stroke-miterlimit:10;stroke-width:7px"/><path d="M157.69,332.59h-7.21v3.89h6.83v5.15h-6.83v4h7.21v5.15H144.43V327.45h13.26Z"/><path d="M166.62,335.15v8.75a3,3,0,0,0,.84,2.28,2.88,2.88,0,0,0,2,.59,2.62,2.62,0,0,0,2-.66,2.92,2.92,0,0,0,.81-2.21v-8.75h5.6v9.77a5.38,5.38,0,0,1-1.51,4.2c-1.92,2-4.62,2.2-6.75,2.2-2.35,0-5.22-.24-7.07-2.24a5.62,5.62,0,0,1-1.47-4.16v-9.77Z"/><rect x="950.5" y="294.5" width="242" height="84" rx="12" ry="12" style="fill:none;stroke:#3a5c84;stroke-miterlimit:10;stroke-width:7px"/><path d="M1055.11,346.88h-8.47l-1.57,3.92h-6.41l9-23.35h6.62L1063,350.8h-6.48Zm-1.61-4.63-2.62-7.56-2.56,7.56Z"/><path d="M1065.19,335.15h5.6v2a5.91,5.91,0,0,1,5-2.31,6.3,6.3,0,0,1,4.62,1.68c1.33,1.33,1.47,2.66,1.47,4.37v9.95h-5.6v-7.92c0-.91,0-2.27-.7-3a2.33,2.33,0,0,0-1.78-.67,3.08,3.08,0,0,0-2.07.74,3.58,3.58,0,0,0-.91,2.48v8.41h-5.6Z"/><path d="M1097.78,335.15h5.6V350.8h-5.6v-1.72a5.84,5.84,0,0,1-4.87,2.24,7.49,7.49,0,0,1-5.63-2.48,7.89,7.89,0,0,1-2.24-5.75,8.64,8.64,0,0,1,2.41-6.26,8.07,8.07,0,0,1,5.64-2.21,6.22,6.22,0,0,1,4.69,2Zm-5.88,5.25a3.65,3.65,0,0,0-1.12,2.56,3.58,3.58,0,0,0,1.08,2.55,4,4,0,0,0,2.52,1.05,3.59,3.59,0,0,0,2.52-1.08,3.42,3.42,0,0,0,1-2.52,3.48,3.48,0,0,0-1.08-2.56,3.54,3.54,0,0,0-5,0Z"/><polygon points="315.74 501.12 375.5 560.88 366.89 569.5 403.5 569.5 403.5 532.89 394.88 541.5 335.12 481.74 315.74 501.12" style="fill:none;stroke:#3a5c84;stroke-miterlimit:10;stroke-width:7px"/><polygon points="864.12 579.19 923.88 519.43 932.5 528.04 932.5 491.43 895.89 491.43 904.5 500.05 844.74 559.81 864.12 579.19" style="fill:none;stroke:#3a5c84;stroke-miterlimit:10;stroke-width:7px"/><polygon points="335.12 216.26 394.88 156.5 403.5 165.11 403.5 128.5 366.89 128.5 375.5 137.12 315.74 196.88 335.12 216.26" style="fill:none;stroke:#3a5c84;stroke-miterlimit:10;stroke-width:7px"/><polygon points="844.74 138.19 904.5 197.95 895.89 206.57 932.5 206.57 932.5 169.96 923.88 178.57 864.12 118.81 844.74 138.19" style="fill:none;stroke:#3a5c84;stroke-miterlimit:10;stroke-width:7px"/><polygon points="607.76 426.33 607.76 510.85 595.58 510.85 621.47 536.74 647.35 510.85 635.17 510.85 635.17 426.33 607.76 426.33" style="fill:none;stroke:#f7931f;stroke-miterlimit:10;stroke-width:7px"/><polygon points="635.17 266.74 635.17 182.22 647.35 182.22 621.47 156.33 595.58 182.22 607.76 182.22 607.76 266.74 635.17 266.74" style="fill:none;stroke:#f7931f;stroke-miterlimit:10;stroke-width:7px"/><rect x="502.5" y="41.5" width="242" height="84" rx="12" ry="12" style="fill:none;stroke:#3a5c84;stroke-miterlimit:10;stroke-width:7px"/><path d="M584.4,74.45V97.8h-6.06V74.45Z"/><path d="M604.52,95.73a10.7,10.7,0,0,1-14,0,8.06,8.06,0,0,1,0-11.52,9.75,9.75,0,0,1,7-2.59,9.89,9.89,0,0,1,7,2.59,8.06,8.06,0,0,1,0,11.52ZM595,87.4a3.46,3.46,0,0,0,0,5,3.5,3.5,0,0,0,5,0A3.44,3.44,0,0,0,601.13,90,3.59,3.59,0,0,0,595,87.4Z"/><path d="M622.27,82.15h5.6V97.8h-5.6V96.08a5.84,5.84,0,0,1-4.87,2.24,7.49,7.49,0,0,1-5.63-2.48,7.89,7.89,0,0,1-2.24-5.75,8.64,8.64,0,0,1,2.41-6.26,8.07,8.07,0,0,1,5.64-2.21,6.22,6.22,0,0,1,4.69,2Zm-5.88,5.25A3.65,3.65,0,0,0,615.27,90a3.58,3.58,0,0,0,1.08,2.55,4,4,0,0,0,2.52,1,3.59,3.59,0,0,0,2.52-1.08A3.42,3.42,0,0,0,622.44,90a3.48,3.48,0,0,0-1.08-2.56,3.54,3.54,0,0,0-5,0Z"/><path d="M631.72,82.15h5.6v2a5.9,5.9,0,0,1,5-2.31,6.31,6.31,0,0,1,4.62,1.68c1.33,1.33,1.47,2.66,1.47,4.37v10h-5.6V89.88c0-.91,0-2.27-.7-3a2.37,2.37,0,0,0-1.79-.67,3.05,3.05,0,0,0-2.06.74,3.58,3.58,0,0,0-.91,2.48V97.8h-5.6Z"/><path d="M664.3,82.15h5.6V97.8h-5.6V96.08a5.82,5.82,0,0,1-4.86,2.24,7.51,7.51,0,0,1-5.64-2.48,7.93,7.93,0,0,1-2.24-5.75A8.64,8.64,0,0,1,654,83.83a8,8,0,0,1,5.63-2.21,6.2,6.2,0,0,1,4.69,2Zm-5.88,5.25A3.65,3.65,0,0,0,657.3,90a3.59,3.59,0,0,0,1.09,2.55,3.91,3.91,0,0,0,2.52,1,3.59,3.59,0,0,0,2.52-1.08A3.42,3.42,0,0,0,664.48,90a3.45,3.45,0,0,0-1.09-2.56,3.54,3.54,0,0,0-5,0Z"/><rect x="502.5" y="573.5" width="242" height="84" rx="12" ry="12" style="fill:none;stroke:#3a5c84;stroke-miterlimit:10;stroke-width:7px"/><path d="M564.28,629.8V606.45h9a6.52,6.52,0,0,1,5.11,1.82,6.28,6.28,0,0,1,1.44,4.37,6,6,0,0,1-.67,2.87,3.64,3.64,0,0,1-1.89,1.82,5.14,5.14,0,0,1,4.76,5.67,6.35,6.35,0,0,1-1.71,4.59A8.76,8.76,0,0,1,574,629.8Zm6.05-14.15h1.12a3.22,3.22,0,0,0,2.31-.73,2.26,2.26,0,0,0,.56-1.54,2.41,2.41,0,0,0-.56-1.58,3.23,3.23,0,0,0-2.31-.7h-1.12Zm0,9.42h1.37c1.68,0,3.08-.17,3.74-.94a2.23,2.23,0,0,0,.5-1.51,2.37,2.37,0,0,0-.6-1.68c-.74-.73-2.24-.77-3.75-.77h-1.26Z"/><path d="M601.14,627.73a10.71,10.71,0,0,1-14,0,8.06,8.06,0,0,1,0-11.52,9.75,9.75,0,0,1,7-2.59,9.93,9.93,0,0,1,7,2.59,8.09,8.09,0,0,1,0,11.52Zm-9.49-8.33a3.46,3.46,0,0,0,0,5,3.5,3.5,0,0,0,5,0,3.44,3.44,0,0,0,1.09-2.48,3.59,3.59,0,0,0-6.09-2.56Z"/><path d="M624.38,614.15v14.67c0,2.34-.21,4.48-2.14,6.47a9.33,9.33,0,0,1-6.9,2.52,9.58,9.58,0,0,1-7.31-2.76,5.71,5.71,0,0,1-1.72-3.26h6.23c.21.63.77,1.61,2.63,1.61a3.39,3.39,0,0,0,2.48-.87,3.76,3.76,0,0,0,1.12-2.91v-1.57a6,6,0,0,1-4.69,2.06,7.8,7.8,0,0,1-5.77-2.2,8.29,8.29,0,0,1-2.17-5.71,9,9,0,0,1,2.31-6.13,7.87,7.87,0,0,1,5.67-2.38,6.08,6.08,0,0,1,4.65,2.07v-1.61ZM613,619.4a3.53,3.53,0,0,0,0,5.08,3.56,3.56,0,0,0,2.52,1,3.66,3.66,0,0,0,2.52-1,3.73,3.73,0,0,0,1-2.52,4,4,0,0,0-1.12-2.55,3.51,3.51,0,0,0-2.48-1A3.37,3.37,0,0,0,613,619.4Z"/><path d="M645.94,629.8h-5.61v-1.72a5.73,5.73,0,0,1-4.72,2.24,7.48,7.48,0,0,1-5.5-2.17,8.64,8.64,0,0,1-2.52-6.23,8.53,8.53,0,0,1,2.56-6.2,8,8,0,0,1,5.53-2.1,6.2,6.2,0,0,1,4.65,2V604.28h5.61Zm-6.62-5.18a3.79,3.79,0,0,0,1.19-2.66,4.12,4.12,0,0,0-1-2.53,3.45,3.45,0,0,0-2.56-1,3.42,3.42,0,0,0-2.48,1,3.85,3.85,0,0,0-1.09,2.66,3.66,3.66,0,0,0,3.57,3.5A3.87,3.87,0,0,0,639.32,624.62Z"/><path d="M661.89,614.15h5.61V629.8h-5.61v-1.72a5.82,5.82,0,0,1-4.86,2.24,7.51,7.51,0,0,1-5.64-2.48,7.93,7.93,0,0,1-2.24-5.75,8.64,8.64,0,0,1,2.42-6.26,8,8,0,0,1,5.63-2.21,6.2,6.2,0,0,1,4.69,2ZM656,619.4a3.65,3.65,0,0,0-1.12,2.56,3.59,3.59,0,0,0,1.09,2.55,3.91,3.91,0,0,0,2.52,1,3.59,3.59,0,0,0,2.52-1.08,3.42,3.42,0,0,0,1.05-2.52A3.45,3.45,0,0,0,661,619.4a3.54,3.54,0,0,0-5,0Z"/><path d="M671.34,614.15h5.6v2a5.91,5.91,0,0,1,5-2.31,6.3,6.3,0,0,1,4.62,1.68c1.33,1.33,1.47,2.66,1.47,4.37v9.95h-5.6v-7.92c0-.91,0-2.27-.7-3a2.33,2.33,0,0,0-1.78-.67,3.08,3.08,0,0,0-2.07.74,3.58,3.58,0,0,0-.91,2.48v8.41h-5.6Z"/><path d="M112.7,539.56l4.9-3.67,5,3.67-1.78,1.93L117.6,539l-3.2,2.45Zm7.07,3.25v16.67h-4.32V542.81Z"/><path d="M122.9,548.31h4v1.4a4.21,4.21,0,0,1,3.55-1.65,4.51,4.51,0,0,1,3.3,1.2,3.85,3.85,0,0,1,1.05,3.12v7.1h-4v-5.65a3.22,3.22,0,0,0-.5-2.17,1.7,1.7,0,0,0-1.28-.48,2.18,2.18,0,0,0-1.47.53,2.56,2.56,0,0,0-.65,1.77v6h-4Z"/><path d="M146,559.23a5.87,5.87,0,0,1-2.77.63,6.18,6.18,0,0,1-4.4-1.7,5.87,5.87,0,0,1-1.73-4.18,6.09,6.09,0,0,1,1.8-4.32,6.45,6.45,0,0,1,4.5-1.7,5.72,5.72,0,0,1,2.6.62v3.35a3.57,3.57,0,0,0-2.07-.72,2.62,2.62,0,0,0-2,.77,2.74,2.74,0,0,0-.78,1.93,2.88,2.88,0,0,0,.7,1.87,2.73,2.73,0,0,0,2,.85,3,3,0,0,0,2.05-.75Z"/><path d="M148.25,548.31h4v1.82a3.6,3.6,0,0,1,1.57-1.55,4.44,4.44,0,0,1,2.08-.45c.1,0,.27,0,.8,0V552a3.54,3.54,0,0,0-1.73-.4,2.59,2.59,0,0,0-1.82.6,3.37,3.37,0,0,0-.9,2.55v4.77h-4Z"/><path d="M170.32,554.63H162a2.82,2.82,0,0,0,.7,1.88,2.25,2.25,0,0,0,1.65.55,3.24,3.24,0,0,0,1.3-.3,1.9,1.9,0,0,0,.7-.75h3.82a5,5,0,0,1-1.35,2.3,6.06,6.06,0,0,1-4.55,1.55,6.35,6.35,0,0,1-4.62-1.7,5.85,5.85,0,0,1-1.65-4.23,6,6,0,0,1,1.67-4.32,6.31,6.31,0,0,1,4.58-1.63,6.14,6.14,0,0,1,4.3,1.53,6.27,6.27,0,0,1,1.77,4.7Zm-3.67-2.3a2.71,2.71,0,0,0-.65-1.2,2.36,2.36,0,0,0-1.65-.6,2.18,2.18,0,0,0-1.63.6,2.36,2.36,0,0,0-.6,1.2Z"/><path d="M185.27,559.48h-4v-1.22a4.09,4.09,0,0,1-3.37,1.6,5.38,5.38,0,0,1-3.93-1.55,6.19,6.19,0,0,1-1.8-4.45,6.09,6.09,0,0,1,1.83-4.43,5.71,5.71,0,0,1,3.95-1.5,4.43,4.43,0,0,1,3.32,1.45v-8.12h4Zm-4.72-3.7a2.68,2.68,0,0,0,.85-1.9,3,3,0,0,0-.75-1.8,2.48,2.48,0,0,0-1.83-.75,2.44,2.44,0,0,0-1.77.73,2.75,2.75,0,0,0-.78,1.9,2.53,2.53,0,0,0,.78,1.75,2.48,2.48,0,0,0,1.77.75A2.73,2.73,0,0,0,180.55,555.78Z"/><path d="M199.87,554.63h-8.32a2.82,2.82,0,0,0,.7,1.88,2.25,2.25,0,0,0,1.65.55,3.24,3.24,0,0,0,1.3-.3,1.9,1.9,0,0,0,.7-.75h3.82a5,5,0,0,1-1.35,2.3,6.06,6.06,0,0,1-4.55,1.55,6.35,6.35,0,0,1-4.62-1.7,5.85,5.85,0,0,1-1.65-4.23,6,6,0,0,1,1.67-4.32A6.31,6.31,0,0,1,193.8,548a6.14,6.14,0,0,1,4.3,1.53,6.27,6.27,0,0,1,1.77,4.7Zm-3.67-2.3a2.71,2.71,0,0,0-.65-1.2,2.36,2.36,0,0,0-1.65-.6,2.18,2.18,0,0,0-1.63.6,2.36,2.36,0,0,0-.6,1.2Z"/><path d="M202.17,548.31h4v1.82a3.61,3.61,0,0,1,1.58-1.55,4.4,4.4,0,0,1,2.07-.45c.1,0,.28,0,.8,0V552a3.52,3.52,0,0,0-1.72-.4,2.61,2.61,0,0,0-1.83.6,3.37,3.37,0,0,0-.9,2.55v4.77h-4Z"/><path d="M224.25,554.63h-8.33a2.87,2.87,0,0,0,.7,1.88,2.25,2.25,0,0,0,1.65.55,3.24,3.24,0,0,0,1.3-.3,1.83,1.83,0,0,0,.7-.75h3.83a5.14,5.14,0,0,1-1.35,2.3,6.09,6.09,0,0,1-4.55,1.55,6.37,6.37,0,0,1-4.63-1.7,6.32,6.32,0,0,1,0-8.55,6.27,6.27,0,0,1,4.57-1.63,6.12,6.12,0,0,1,4.3,1.53,6.24,6.24,0,0,1,1.78,4.7Zm-3.68-2.3a2.71,2.71,0,0,0-.65-1.2,2.35,2.35,0,0,0-1.65-.6,2.16,2.16,0,0,0-1.62.6,2.21,2.21,0,0,0-.6,1.2Z"/><path d="M245,559.48h-4v-1.22a4.09,4.09,0,0,1-3.37,1.6,5.38,5.38,0,0,1-3.93-1.55,6.19,6.19,0,0,1-1.8-4.45,6.09,6.09,0,0,1,1.83-4.43,5.71,5.71,0,0,1,3.95-1.5,4.43,4.43,0,0,1,3.32,1.45v-8.12h4Zm-4.72-3.7a2.68,2.68,0,0,0,.85-1.9,3,3,0,0,0-.75-1.8,2.48,2.48,0,0,0-1.83-.75,2.44,2.44,0,0,0-1.77.73A2.75,2.75,0,0,0,236,554a2.53,2.53,0,0,0,.78,1.75,2.48,2.48,0,0,0,1.77.75A2.73,2.73,0,0,0,240.3,555.78Z"/><path d="M249.77,541.41a2.25,2.25,0,1,1-2.25,2.25A2.24,2.24,0,0,1,249.77,541.41Zm2,6.9v11.17h-4V548.31Z"/><path d="M254.5,548.31h4v1.82a3.6,3.6,0,0,1,1.57-1.55,4.44,4.44,0,0,1,2.08-.45c.1,0,.27,0,.8,0V552a3.54,3.54,0,0,0-1.73-.4,2.59,2.59,0,0,0-1.82.6,3.37,3.37,0,0,0-.9,2.55v4.77h-4Z"/><path d="M276.57,554.63h-8.32a2.82,2.82,0,0,0,.7,1.88,2.25,2.25,0,0,0,1.65.55,3.24,3.24,0,0,0,1.3-.3,1.9,1.9,0,0,0,.7-.75h3.82a5,5,0,0,1-1.35,2.3,6.06,6.06,0,0,1-4.55,1.55,6.35,6.35,0,0,1-4.62-1.7,5.85,5.85,0,0,1-1.65-4.23,6,6,0,0,1,1.67-4.32A6.31,6.31,0,0,1,270.5,548a6.14,6.14,0,0,1,4.3,1.53,6.27,6.27,0,0,1,1.77,4.7Zm-3.67-2.3a2.71,2.71,0,0,0-.65-1.2,2.36,2.36,0,0,0-1.65-.6,2.18,2.18,0,0,0-1.63.6,2.36,2.36,0,0,0-.6,1.2Z"/><path d="M287.32,559.23a5.87,5.87,0,0,1-2.77.63,6.18,6.18,0,0,1-4.4-1.7,5.87,5.87,0,0,1-1.73-4.18,6.09,6.09,0,0,1,1.8-4.32,6.45,6.45,0,0,1,4.5-1.7,5.72,5.72,0,0,1,2.6.62v3.35a3.57,3.57,0,0,0-2.07-.72,2.62,2.62,0,0,0-1.95.77,2.74,2.74,0,0,0-.78,1.93,2.88,2.88,0,0,0,.7,1.87,2.73,2.73,0,0,0,2,.85,3,3,0,0,0,2.05-.75Z"/><path d="M294.27,551.58v7.9h-4v-7.9H289v-3.27h1.27v-3.67h4v3.67h2.28v3.27Z"/><path d="M306.7,548.31h4v11.17h-4v-1.22a4.2,4.2,0,0,1-3.48,1.6,5.33,5.33,0,0,1-4-1.78,5.61,5.61,0,0,1-1.6-4.1,6.17,6.17,0,0,1,1.72-4.47,5.77,5.77,0,0,1,4-1.58,4.45,4.45,0,0,1,3.35,1.45Zm2.2-5.75a4,4,0,0,1-1.1,2.73,5.28,5.28,0,0,1-6.5,0,3.92,3.92,0,0,1-1.1-2.73h2.57a1.76,1.76,0,0,0,.5,1,2.07,2.07,0,0,0,1.28.45,2,2,0,0,0,1.27-.45,1.76,1.76,0,0,0,.5-1Zm-6.4,9.5a2.51,2.51,0,0,0,0,3.65,2.83,2.83,0,0,0,1.8.75,2.57,2.57,0,0,0,1.8-.78,2.43,2.43,0,0,0,.75-1.8,2.48,2.48,0,0,0-.77-1.82,2.52,2.52,0,0,0-3.55,0Z"/><path d="M544.26,309.72l6.86-5.14,6.93,5.14-2.48,2.7L551.12,309l-4.48,3.43Zm9.91,4.55v23.35h-6.06V314.27Z"/><path d="M558.54,322h5.6v2a5.91,5.91,0,0,1,5-2.31,6.34,6.34,0,0,1,4.62,1.68c1.33,1.33,1.47,2.66,1.47,4.38v9.94h-5.6v-7.91c0-.91,0-2.27-.7-3a2.3,2.3,0,0,0-1.78-.67,3.08,3.08,0,0,0-2.07.73,3.61,3.61,0,0,0-.91,2.49v8.4h-5.6Z"/><path d="M590.85,337.27a8.28,8.28,0,0,1-3.89.88,8.67,8.67,0,0,1-6.16-2.38,8.2,8.2,0,0,1-2.41-5.85,8.51,8.51,0,0,1,2.52-6.06,9,9,0,0,1,6.3-2.38,8,8,0,0,1,3.64.88v4.69a5,5,0,0,0-2.91-1,3.67,3.67,0,0,0-2.73,1.09,3.81,3.81,0,0,0-1.08,2.7,4,4,0,0,0,1,2.62,3.78,3.78,0,0,0,2.87,1.19,4.23,4.23,0,0,0,2.87-1.05Z"/><path d="M594,322h5.6v2.56a5.06,5.06,0,0,1,2.21-2.17,6,6,0,0,1,2.9-.63l1.12.07v5.28a4.93,4.93,0,0,0-2.41-.56,3.67,3.67,0,0,0-2.56.85,4.72,4.72,0,0,0-1.26,3.57v6.68H594Z"/><path d="M624.94,330.83H613.28a4,4,0,0,0,1,2.63,3.15,3.15,0,0,0,2.31.77,4.51,4.51,0,0,0,1.82-.42,2.57,2.57,0,0,0,1-1.05h5.36a7.15,7.15,0,0,1-1.89,3.22c-1.16,1.12-3,2.17-6.37,2.17a8.9,8.9,0,0,1-6.48-2.38,8.23,8.23,0,0,1-2.31-5.92,8.37,8.37,0,0,1,2.35-6.06,8.79,8.79,0,0,1,6.4-2.27,8.56,8.56,0,0,1,6,2.13,8.77,8.77,0,0,1,2.49,6.59Zm-5.15-3.22a3.78,3.78,0,0,0-.91-1.68,3.23,3.23,0,0,0-2.31-.84,3,3,0,0,0-2.27.84,3.12,3.12,0,0,0-.84,1.68Z"/><path d="M645.87,337.62h-5.6v-1.71a5.75,5.75,0,0,1-4.73,2.24,7.5,7.5,0,0,1-5.49-2.17,8.62,8.62,0,0,1-2.52-6.23,8.53,8.53,0,0,1,2.55-6.2,8,8,0,0,1,5.53-2.1,6.18,6.18,0,0,1,4.66,2V312.1h5.6Zm-6.62-5.18a3.71,3.71,0,0,0,1.19-2.66,4.09,4.09,0,0,0-1.05-2.52,3.59,3.59,0,0,0-5,0,3.8,3.8,0,0,0-1.08,2.66,3.57,3.57,0,0,0,1.08,2.45,3.48,3.48,0,0,0,2.49,1.05A3.78,3.78,0,0,0,639.25,332.44Z"/><path d="M666.31,330.83H654.65a4,4,0,0,0,1,2.63,3.15,3.15,0,0,0,2.31.77,4.51,4.51,0,0,0,1.82-.42,2.57,2.57,0,0,0,1-1.05h5.36a7.15,7.15,0,0,1-1.89,3.22c-1.16,1.12-3,2.17-6.37,2.17a8.9,8.9,0,0,1-6.48-2.38,8.23,8.23,0,0,1-2.31-5.92,8.37,8.37,0,0,1,2.35-6.06,8.79,8.79,0,0,1,6.4-2.27,8.56,8.56,0,0,1,6,2.13,8.77,8.77,0,0,1,2.49,6.59Zm-5.15-3.22a3.78,3.78,0,0,0-.91-1.68,3.23,3.23,0,0,0-2.31-.84,3,3,0,0,0-2.27.84,3.12,3.12,0,0,0-.84,1.68Z"/><path d="M669.53,322h5.6v2.56a5,5,0,0,1,2.2-2.17,6.07,6.07,0,0,1,2.91-.63l1.12.07v5.28a5,5,0,0,0-2.42-.56,3.65,3.65,0,0,0-2.55.85,4.72,4.72,0,0,0-1.26,3.57v6.68h-5.6Z"/><path d="M700.43,330.83H688.78a4,4,0,0,0,1,2.63,3.15,3.15,0,0,0,2.31.77,4.51,4.51,0,0,0,1.82-.42,2.64,2.64,0,0,0,1-1.05h5.35a7,7,0,0,1-1.89,3.22c-1.15,1.12-3,2.17-6.37,2.17a8.88,8.88,0,0,1-6.47-2.38,8.19,8.19,0,0,1-2.31-5.92,8.41,8.41,0,0,1,2.34-6.06,8.83,8.83,0,0,1,6.41-2.27,8.57,8.57,0,0,1,6,2.13,8.79,8.79,0,0,1,2.48,6.59Zm-5.14-3.22a3.78,3.78,0,0,0-.91-1.68,3.25,3.25,0,0,0-2.31-.84,3,3,0,0,0-2.28.84,3.27,3.27,0,0,0-.84,1.68Z"/><path d="M556.72,354.31a3.15,3.15,0,1,1-3.15,3.15A3.14,3.14,0,0,1,556.72,354.31Zm2.8,9.66v15.65h-5.6V364Z"/><path d="M563.34,364h5.6v2a5.9,5.9,0,0,1,5-2.31,6.35,6.35,0,0,1,4.62,1.68c1.33,1.33,1.47,2.66,1.47,4.38v9.94h-5.6v-7.91c0-.91,0-2.27-.7-3a2.33,2.33,0,0,0-1.79-.67,3,3,0,0,0-2.06.73,3.61,3.61,0,0,0-.91,2.49v8.4h-5.6Z"/><path d="M601.52,379.62h-5.6v-1.71a5.73,5.73,0,0,1-4.72,2.24,7.52,7.52,0,0,1-5.5-2.17,8.66,8.66,0,0,1-2.52-6.23,8.49,8.49,0,0,1,2.56-6.2,8,8,0,0,1,5.53-2.1,6.16,6.16,0,0,1,4.65,2V354.1h5.6Zm-6.61-5.18a3.75,3.75,0,0,0,1.19-2.66,4.09,4.09,0,0,0-1.05-2.52,3.42,3.42,0,0,0-2.56-1.05,3.38,3.38,0,0,0-2.48,1,3.81,3.81,0,0,0-1.09,2.66,3.54,3.54,0,0,0,1.09,2.45,3.47,3.47,0,0,0,2.48,1.05A3.83,3.83,0,0,0,594.91,374.44Z"/><path d="M608.17,354.31a3.15,3.15,0,1,1-3.15,3.15A3.14,3.14,0,0,1,608.17,354.31ZM611,364v15.65h-5.6V364Z"/><path d="M614.79,364h5.6v2.56a5,5,0,0,1,2.2-2.17,6.07,6.07,0,0,1,2.91-.63l1.12.07v5.28a5,5,0,0,0-2.42-.56,3.65,3.65,0,0,0-2.55.85,4.72,4.72,0,0,0-1.26,3.57v6.68h-5.6Z"/><path d="M645.69,372.83H634a4,4,0,0,0,1,2.63,3.15,3.15,0,0,0,2.31.77,4.51,4.51,0,0,0,1.82-.42,2.64,2.64,0,0,0,1-1.05h5.35a7,7,0,0,1-1.89,3.22c-1.15,1.12-3,2.17-6.37,2.17a8.88,8.88,0,0,1-6.47-2.38,8.19,8.19,0,0,1-2.31-5.92,8.41,8.41,0,0,1,2.34-6.06,8.83,8.83,0,0,1,6.41-2.27,8.57,8.57,0,0,1,6,2.13,8.79,8.79,0,0,1,2.48,6.59Zm-5.14-3.22a3.78,3.78,0,0,0-.91-1.68,3.25,3.25,0,0,0-2.31-.84,3,3,0,0,0-2.28.84,3.27,3.27,0,0,0-.84,1.68Z"/><path d="M660.74,379.27a8.24,8.24,0,0,1-3.88.88,8.65,8.65,0,0,1-6.16-2.38,8.21,8.21,0,0,1-2.42-5.85,8.55,8.55,0,0,1,2.52-6.06,9,9,0,0,1,6.3-2.38,8,8,0,0,1,3.64.88v4.69a4.93,4.93,0,0,0-2.9-1,3.67,3.67,0,0,0-2.73,1.09,3.83,3.83,0,0,0-1.09,2.7,4,4,0,0,0,1,2.62,3.82,3.82,0,0,0,2.87,1.19,4.2,4.2,0,0,0,2.87-1.05Z"/><path d="M670.47,368.56v11.06h-5.6V368.56h-1.78V364h1.78v-5.14h5.6V364h3.19v4.59Z"/><path d="M687.87,364h5.6v15.65h-5.6v-1.71a5.87,5.87,0,0,1-4.87,2.24,7.47,7.47,0,0,1-5.63-2.49,7.86,7.86,0,0,1-2.24-5.74,8.67,8.67,0,0,1,2.41-6.27,8.06,8.06,0,0,1,5.64-2.2,6.18,6.18,0,0,1,4.69,2Zm3.08-8.05a5.59,5.59,0,0,1-1.54,3.82,7.38,7.38,0,0,1-9.1,0,5.49,5.49,0,0,1-1.54-3.82h3.6a2.46,2.46,0,0,0,.7,1.44,2.84,2.84,0,0,0,3.57,0,2.46,2.46,0,0,0,.7-1.44Zm-9,13.31a3.52,3.52,0,0,0,0,5.11,4,4,0,0,0,2.52,1.05A3.6,3.6,0,0,0,687,374.3a3.4,3.4,0,0,0,1-2.52,3.46,3.46,0,0,0-1.08-2.55,3.54,3.54,0,0,0-5,0Z"/><path d="M112.7,142.56l4.9-3.67,5,3.67-1.78,1.93L117.6,142l-3.2,2.45Zm7.07,3.25v16.67h-4.32V145.81Z"/><path d="M122.9,151.31h4v1.4a4.21,4.21,0,0,1,3.55-1.65,4.51,4.51,0,0,1,3.3,1.2,3.85,3.85,0,0,1,1.05,3.12v7.1h-4v-5.65a3.22,3.22,0,0,0-.5-2.17,1.7,1.7,0,0,0-1.28-.48,2.18,2.18,0,0,0-1.47.53,2.56,2.56,0,0,0-.65,1.77v6h-4Z"/><path d="M146,162.23a5.87,5.87,0,0,1-2.77.63,6.18,6.18,0,0,1-4.4-1.7,5.87,5.87,0,0,1-1.73-4.18,6.09,6.09,0,0,1,1.8-4.32,6.45,6.45,0,0,1,4.5-1.7,5.72,5.72,0,0,1,2.6.62v3.35a3.57,3.57,0,0,0-2.07-.72,2.62,2.62,0,0,0-2,.77,2.74,2.74,0,0,0-.78,1.93,2.88,2.88,0,0,0,.7,1.87,2.73,2.73,0,0,0,2,.85,3,3,0,0,0,2.05-.75Z"/><path d="M148.25,151.31h4v1.82a3.6,3.6,0,0,1,1.57-1.55,4.44,4.44,0,0,1,2.08-.45c.1,0,.27,0,.8.05V155a3.54,3.54,0,0,0-1.73-.4,2.59,2.59,0,0,0-1.82.6,3.37,3.37,0,0,0-.9,2.55v4.77h-4Z"/><path d="M170.32,157.63H162a2.82,2.82,0,0,0,.7,1.88,2.25,2.25,0,0,0,1.65.55,3.24,3.24,0,0,0,1.3-.3,1.9,1.9,0,0,0,.7-.75h3.82a5,5,0,0,1-1.35,2.3,6.06,6.06,0,0,1-4.55,1.55,6.35,6.35,0,0,1-4.62-1.7,5.85,5.85,0,0,1-1.65-4.23,6,6,0,0,1,1.67-4.32,6.31,6.31,0,0,1,4.58-1.63,6.14,6.14,0,0,1,4.3,1.53,6.27,6.27,0,0,1,1.77,4.7Zm-3.67-2.3a2.71,2.71,0,0,0-.65-1.2,2.36,2.36,0,0,0-1.65-.6,2.18,2.18,0,0,0-1.63.6,2.36,2.36,0,0,0-.6,1.2Z"/><path d="M185.27,162.48h-4v-1.22a4.09,4.09,0,0,1-3.37,1.6,5.38,5.38,0,0,1-3.93-1.55,6.19,6.19,0,0,1-1.8-4.45,6.09,6.09,0,0,1,1.83-4.43,5.71,5.71,0,0,1,3.95-1.5,4.43,4.43,0,0,1,3.32,1.45v-8.12h4Zm-4.72-3.7a2.68,2.68,0,0,0,.85-1.9,3,3,0,0,0-.75-1.8,2.48,2.48,0,0,0-1.83-.75,2.44,2.44,0,0,0-1.77.73,2.75,2.75,0,0,0-.78,1.9,2.53,2.53,0,0,0,.78,1.75,2.48,2.48,0,0,0,1.77.75A2.73,2.73,0,0,0,180.55,158.78Z"/><path d="M199.87,157.63h-8.32a2.82,2.82,0,0,0,.7,1.88,2.25,2.25,0,0,0,1.65.55,3.24,3.24,0,0,0,1.3-.3,1.9,1.9,0,0,0,.7-.75h3.82a5,5,0,0,1-1.35,2.3,6.06,6.06,0,0,1-4.55,1.55,6.35,6.35,0,0,1-4.62-1.7,5.85,5.85,0,0,1-1.65-4.23,6,6,0,0,1,1.67-4.32A6.31,6.31,0,0,1,193.8,151a6.14,6.14,0,0,1,4.3,1.53,6.27,6.27,0,0,1,1.77,4.7Zm-3.67-2.3a2.71,2.71,0,0,0-.65-1.2,2.36,2.36,0,0,0-1.65-.6,2.18,2.18,0,0,0-1.63.6,2.36,2.36,0,0,0-.6,1.2Z"/><path d="M202.17,151.31h4v1.82a3.61,3.61,0,0,1,1.58-1.55,4.4,4.4,0,0,1,2.07-.45c.1,0,.28,0,.8.05V155a3.52,3.52,0,0,0-1.72-.4,2.61,2.61,0,0,0-1.83.6,3.37,3.37,0,0,0-.9,2.55v4.77h-4Z"/><path d="M224.25,157.63h-8.33a2.87,2.87,0,0,0,.7,1.88,2.25,2.25,0,0,0,1.65.55,3.24,3.24,0,0,0,1.3-.3,1.83,1.83,0,0,0,.7-.75h3.83a5.14,5.14,0,0,1-1.35,2.3,6.09,6.09,0,0,1-4.55,1.55,6.37,6.37,0,0,1-4.63-1.7,6.32,6.32,0,0,1,0-8.55,6.27,6.27,0,0,1,4.57-1.63,6.12,6.12,0,0,1,4.3,1.53,6.24,6.24,0,0,1,1.78,4.7Zm-3.68-2.3a2.71,2.71,0,0,0-.65-1.2,2.35,2.35,0,0,0-1.65-.6,2.16,2.16,0,0,0-1.62.6,2.21,2.21,0,0,0-.6,1.2Z"/><path d="M245,162.48h-4v-1.22a4.09,4.09,0,0,1-3.37,1.6,5.38,5.38,0,0,1-3.93-1.55,6.19,6.19,0,0,1-1.8-4.45,6.09,6.09,0,0,1,1.83-4.43,5.71,5.71,0,0,1,3.95-1.5,4.43,4.43,0,0,1,3.32,1.45v-8.12h4Zm-4.72-3.7a2.68,2.68,0,0,0,.85-1.9,3,3,0,0,0-.75-1.8,2.48,2.48,0,0,0-1.83-.75,2.44,2.44,0,0,0-1.77.73A2.75,2.75,0,0,0,236,157a2.53,2.53,0,0,0,.78,1.75,2.48,2.48,0,0,0,1.77.75A2.73,2.73,0,0,0,240.3,158.78Z"/><path d="M249.77,144.41a2.25,2.25,0,1,1-2.25,2.25A2.24,2.24,0,0,1,249.77,144.41Zm2,6.9v11.17h-4V151.31Z"/><path d="M254.5,151.31h4v1.82a3.6,3.6,0,0,1,1.57-1.55,4.44,4.44,0,0,1,2.08-.45c.1,0,.27,0,.8.05V155a3.54,3.54,0,0,0-1.73-.4,2.59,2.59,0,0,0-1.82.6,3.37,3.37,0,0,0-.9,2.55v4.77h-4Z"/><path d="M276.57,157.63h-8.32a2.82,2.82,0,0,0,.7,1.88,2.25,2.25,0,0,0,1.65.55,3.24,3.24,0,0,0,1.3-.3,1.9,1.9,0,0,0,.7-.75h3.82a5,5,0,0,1-1.35,2.3,6.06,6.06,0,0,1-4.55,1.55,6.35,6.35,0,0,1-4.62-1.7,5.85,5.85,0,0,1-1.65-4.23,6,6,0,0,1,1.67-4.32A6.31,6.31,0,0,1,270.5,151a6.14,6.14,0,0,1,4.3,1.53,6.27,6.27,0,0,1,1.77,4.7Zm-3.67-2.3a2.71,2.71,0,0,0-.65-1.2,2.36,2.36,0,0,0-1.65-.6,2.18,2.18,0,0,0-1.63.6,2.36,2.36,0,0,0-.6,1.2Z"/><path d="M287.32,162.23a5.87,5.87,0,0,1-2.77.63,6.18,6.18,0,0,1-4.4-1.7,5.87,5.87,0,0,1-1.73-4.18,6.09,6.09,0,0,1,1.8-4.32,6.45,6.45,0,0,1,4.5-1.7,5.72,5.72,0,0,1,2.6.62v3.35a3.57,3.57,0,0,0-2.07-.72,2.62,2.62,0,0,0-1.95.77,2.74,2.74,0,0,0-.78,1.93,2.88,2.88,0,0,0,.7,1.87,2.73,2.73,0,0,0,2,.85,3,3,0,0,0,2.05-.75Z"/><path d="M294.27,154.58v7.9h-4v-7.9H289v-3.27h1.27v-3.67h4v3.67h2.28v3.27Z"/><path d="M306.7,151.31h4v11.17h-4v-1.22a4.2,4.2,0,0,1-3.48,1.6,5.33,5.33,0,0,1-4-1.78,5.61,5.61,0,0,1-1.6-4.1,6.17,6.17,0,0,1,1.72-4.47,5.77,5.77,0,0,1,4-1.58,4.45,4.45,0,0,1,3.35,1.45Zm2.2-5.75a4,4,0,0,1-1.1,2.73,5.28,5.28,0,0,1-6.5,0,3.92,3.92,0,0,1-1.1-2.73h2.57a1.76,1.76,0,0,0,.5,1,2.07,2.07,0,0,0,1.28.45,2,2,0,0,0,1.27-.45,1.76,1.76,0,0,0,.5-1Zm-6.4,9.5a2.51,2.51,0,0,0,0,3.65,2.83,2.83,0,0,0,1.8.75,2.57,2.57,0,0,0,1.8-.78,2.43,2.43,0,0,0,.75-1.8,2.48,2.48,0,0,0-.77-1.82,2.52,2.52,0,0,0-3.55,0Z"/><path d="M931.7,553.56l4.9-3.67,4.95,3.67-1.78,1.93L936.6,553l-3.2,2.45Zm7.07,3.25v16.67h-4.32V556.81Z"/><path d="M941.9,562.31h4v1.4a4.21,4.21,0,0,1,3.55-1.65,4.51,4.51,0,0,1,3.3,1.2,3.85,3.85,0,0,1,1,3.12v7.1h-4v-5.65a3.22,3.22,0,0,0-.5-2.17,1.7,1.7,0,0,0-1.28-.48,2.18,2.18,0,0,0-1.47.53,2.56,2.56,0,0,0-.65,1.77v6h-4Z"/><path d="M965,573.23a5.87,5.87,0,0,1-2.77.63,6.18,6.18,0,0,1-4.4-1.7,5.87,5.87,0,0,1-1.73-4.18,6.09,6.09,0,0,1,1.8-4.32,6.45,6.45,0,0,1,4.5-1.7,5.72,5.72,0,0,1,2.6.62v3.35a3.57,3.57,0,0,0-2.07-.72A2.62,2.62,0,0,0,961,566a2.74,2.74,0,0,0-.78,1.93,2.88,2.88,0,0,0,.7,1.87,2.73,2.73,0,0,0,2,.85,3,3,0,0,0,2.05-.75Z"/><path d="M967.25,562.31h4v1.82a3.6,3.6,0,0,1,1.57-1.55,4.44,4.44,0,0,1,2.08-.45c.1,0,.27,0,.8,0V566a3.54,3.54,0,0,0-1.73-.4,2.59,2.59,0,0,0-1.82.6,3.37,3.37,0,0,0-.9,2.55v4.77h-4Z"/><path d="M989.32,568.63H981a2.82,2.82,0,0,0,.7,1.88,2.25,2.25,0,0,0,1.65.55,3.24,3.24,0,0,0,1.3-.3,1.9,1.9,0,0,0,.7-.75h3.82a5,5,0,0,1-1.35,2.3,6.06,6.06,0,0,1-4.55,1.55,6.35,6.35,0,0,1-4.62-1.7,5.85,5.85,0,0,1-1.65-4.23,6,6,0,0,1,1.67-4.32,6.31,6.31,0,0,1,4.58-1.63,6.14,6.14,0,0,1,4.3,1.53,6.27,6.27,0,0,1,1.77,4.7Zm-3.67-2.3a2.71,2.71,0,0,0-.65-1.2,2.36,2.36,0,0,0-1.65-.6,2.18,2.18,0,0,0-1.63.6,2.36,2.36,0,0,0-.6,1.2Z"/><path d="M1004.27,573.48h-4v-1.22a4.09,4.09,0,0,1-3.37,1.6,5.38,5.38,0,0,1-3.93-1.55,6.19,6.19,0,0,1-1.8-4.45,6.09,6.09,0,0,1,1.83-4.43,5.71,5.71,0,0,1,4-1.5,4.43,4.43,0,0,1,3.32,1.45v-8.12h4Zm-4.72-3.7a2.68,2.68,0,0,0,.85-1.9,3,3,0,0,0-.75-1.8,2.48,2.48,0,0,0-1.83-.75,2.44,2.44,0,0,0-1.77.73,2.75,2.75,0,0,0-.78,1.9,2.53,2.53,0,0,0,.78,1.75,2.48,2.48,0,0,0,1.77.75A2.73,2.73,0,0,0,999.55,569.78Z"/><path d="M1018.87,568.63h-8.32a2.82,2.82,0,0,0,.7,1.88,2.25,2.25,0,0,0,1.65.55,3.24,3.24,0,0,0,1.3-.3,1.9,1.9,0,0,0,.7-.75h3.82a5,5,0,0,1-1.35,2.3,6.06,6.06,0,0,1-4.55,1.55,6.35,6.35,0,0,1-4.62-1.7,5.85,5.85,0,0,1-1.65-4.23,6,6,0,0,1,1.67-4.32,6.31,6.31,0,0,1,4.58-1.63,6.14,6.14,0,0,1,4.3,1.53,6.27,6.27,0,0,1,1.77,4.7Zm-3.67-2.3a2.71,2.71,0,0,0-.65-1.2,2.36,2.36,0,0,0-1.65-.6,2.18,2.18,0,0,0-1.63.6,2.36,2.36,0,0,0-.6,1.2Z"/><path d="M1021.17,562.31h4v1.82a3.61,3.61,0,0,1,1.58-1.55,4.4,4.4,0,0,1,2.07-.45c.1,0,.28,0,.8,0V566a3.52,3.52,0,0,0-1.72-.4,2.61,2.61,0,0,0-1.83.6,3.37,3.37,0,0,0-.9,2.55v4.77h-4Z"/><path d="M1043.25,568.63h-8.33a2.87,2.87,0,0,0,.7,1.88,2.25,2.25,0,0,0,1.65.55,3.24,3.24,0,0,0,1.3-.3,1.83,1.83,0,0,0,.7-.75h3.83a5.14,5.14,0,0,1-1.35,2.3,6.09,6.09,0,0,1-4.55,1.55,6.37,6.37,0,0,1-4.63-1.7,6.32,6.32,0,0,1,0-8.55,6.27,6.27,0,0,1,4.57-1.63,6.12,6.12,0,0,1,4.3,1.53,6.24,6.24,0,0,1,1.78,4.7Zm-3.68-2.3a2.71,2.71,0,0,0-.65-1.2,2.35,2.35,0,0,0-1.65-.6,2.16,2.16,0,0,0-1.62.6,2.21,2.21,0,0,0-.6,1.2Z"/><path d="M1064,573.48h-4v-1.22a4.09,4.09,0,0,1-3.37,1.6,5.38,5.38,0,0,1-3.93-1.55,6.19,6.19,0,0,1-1.8-4.45,6.09,6.09,0,0,1,1.83-4.43,5.71,5.71,0,0,1,4-1.5,4.43,4.43,0,0,1,3.32,1.45v-8.12h4Zm-4.72-3.7a2.68,2.68,0,0,0,.85-1.9,3,3,0,0,0-.75-1.8,2.48,2.48,0,0,0-1.83-.75,2.44,2.44,0,0,0-1.77.73,2.75,2.75,0,0,0-.78,1.9,2.53,2.53,0,0,0,.78,1.75,2.48,2.48,0,0,0,1.77.75A2.73,2.73,0,0,0,1059.3,569.78Z"/><path d="M1068.77,555.41a2.25,2.25,0,1,1-2.25,2.25A2.24,2.24,0,0,1,1068.77,555.41Zm2,6.9v11.17h-4V562.31Z"/><path d="M1073.5,562.31h4v1.82a3.6,3.6,0,0,1,1.57-1.55,4.44,4.44,0,0,1,2.08-.45c.1,0,.27,0,.8,0V566a3.54,3.54,0,0,0-1.73-.4,2.59,2.59,0,0,0-1.82.6,3.37,3.37,0,0,0-.9,2.55v4.77h-4Z"/><path d="M1095.57,568.63h-8.32a2.82,2.82,0,0,0,.7,1.88,2.25,2.25,0,0,0,1.65.55,3.24,3.24,0,0,0,1.3-.3,1.9,1.9,0,0,0,.7-.75h3.82a5,5,0,0,1-1.35,2.3,6.06,6.06,0,0,1-4.55,1.55,6.35,6.35,0,0,1-4.62-1.7,5.85,5.85,0,0,1-1.65-4.23,6,6,0,0,1,1.67-4.32,6.31,6.31,0,0,1,4.58-1.63,6.14,6.14,0,0,1,4.3,1.53,6.27,6.27,0,0,1,1.77,4.7Zm-3.67-2.3a2.71,2.71,0,0,0-.65-1.2,2.36,2.36,0,0,0-1.65-.6,2.18,2.18,0,0,0-1.63.6,2.36,2.36,0,0,0-.6,1.2Z"/><path d="M1106.32,573.23a5.87,5.87,0,0,1-2.77.63,6.18,6.18,0,0,1-4.4-1.7,5.87,5.87,0,0,1-1.73-4.18,6.09,6.09,0,0,1,1.8-4.32,6.45,6.45,0,0,1,4.5-1.7,5.72,5.72,0,0,1,2.6.62v3.35a3.57,3.57,0,0,0-2.07-.72,2.62,2.62,0,0,0-2,.77,2.74,2.74,0,0,0-.78,1.93,2.88,2.88,0,0,0,.7,1.87,2.73,2.73,0,0,0,2,.85,3,3,0,0,0,2-.75Z"/><path d="M1113.27,565.58v7.9h-4v-7.9H1108v-3.27h1.27v-3.67h4v3.67h2.28v3.27Z"/><path d="M1125.7,562.31h4v11.17h-4v-1.22a4.2,4.2,0,0,1-3.48,1.6,5.33,5.33,0,0,1-4-1.78,5.61,5.61,0,0,1-1.6-4.1,6.17,6.17,0,0,1,1.72-4.47,5.77,5.77,0,0,1,4-1.58,4.45,4.45,0,0,1,3.35,1.45Zm2.2-5.75a4,4,0,0,1-1.1,2.73,5.28,5.28,0,0,1-6.5,0,3.92,3.92,0,0,1-1.1-2.73h2.57a1.76,1.76,0,0,0,.5,1,2.07,2.07,0,0,0,1.28.45,2,2,0,0,0,1.27-.45,1.76,1.76,0,0,0,.5-1Zm-6.4,9.5a2.51,2.51,0,0,0,0,3.65,2.83,2.83,0,0,0,1.8.75,2.57,2.57,0,0,0,1.8-.78,2.43,2.43,0,0,0,.75-1.8,2.48,2.48,0,0,0-.77-1.82,2.52,2.52,0,0,0-3.55,0Z"/><path d="M931.7,118.56l4.9-3.67,4.95,3.67-1.78,1.93L936.6,118l-3.2,2.45Zm7.07,3.25v16.67h-4.32V121.81Z"/><path d="M941.9,127.31h4v1.4a4.21,4.21,0,0,1,3.55-1.65,4.51,4.51,0,0,1,3.3,1.2,3.85,3.85,0,0,1,1,3.12v7.1h-4v-5.65a3.22,3.22,0,0,0-.5-2.17,1.7,1.7,0,0,0-1.28-.48,2.18,2.18,0,0,0-1.47.53,2.56,2.56,0,0,0-.65,1.77v6h-4Z"/><path d="M965,138.23a5.87,5.87,0,0,1-2.77.63,6.18,6.18,0,0,1-4.4-1.7,5.87,5.87,0,0,1-1.73-4.18,6.09,6.09,0,0,1,1.8-4.32,6.45,6.45,0,0,1,4.5-1.7,5.72,5.72,0,0,1,2.6.62v3.35a3.57,3.57,0,0,0-2.07-.72A2.62,2.62,0,0,0,961,131a2.74,2.74,0,0,0-.78,1.93,2.88,2.88,0,0,0,.7,1.87,2.73,2.73,0,0,0,2,.85,3,3,0,0,0,2.05-.75Z"/><path d="M967.25,127.31h4v1.82a3.6,3.6,0,0,1,1.57-1.55,4.44,4.44,0,0,1,2.08-.45c.1,0,.27,0,.8.05V131a3.54,3.54,0,0,0-1.73-.4,2.59,2.59,0,0,0-1.82.6,3.37,3.37,0,0,0-.9,2.55v4.77h-4Z"/><path d="M989.32,133.63H981a2.82,2.82,0,0,0,.7,1.88,2.25,2.25,0,0,0,1.65.55,3.24,3.24,0,0,0,1.3-.3,1.9,1.9,0,0,0,.7-.75h3.82a5,5,0,0,1-1.35,2.3,6.06,6.06,0,0,1-4.55,1.55,6.35,6.35,0,0,1-4.62-1.7,5.85,5.85,0,0,1-1.65-4.23,6,6,0,0,1,1.67-4.32,6.31,6.31,0,0,1,4.58-1.63,6.14,6.14,0,0,1,4.3,1.53,6.27,6.27,0,0,1,1.77,4.7Zm-3.67-2.3a2.71,2.71,0,0,0-.65-1.2,2.36,2.36,0,0,0-1.65-.6,2.18,2.18,0,0,0-1.63.6,2.36,2.36,0,0,0-.6,1.2Z"/><path d="M1004.27,138.48h-4v-1.22a4.09,4.09,0,0,1-3.37,1.6,5.38,5.38,0,0,1-3.93-1.55,6.19,6.19,0,0,1-1.8-4.45,6.09,6.09,0,0,1,1.83-4.43,5.71,5.71,0,0,1,4-1.5,4.43,4.43,0,0,1,3.32,1.45v-8.12h4Zm-4.72-3.7a2.68,2.68,0,0,0,.85-1.9,3,3,0,0,0-.75-1.8,2.48,2.48,0,0,0-1.83-.75,2.44,2.44,0,0,0-1.77.73,2.75,2.75,0,0,0-.78,1.9,2.53,2.53,0,0,0,.78,1.75,2.48,2.48,0,0,0,1.77.75A2.73,2.73,0,0,0,999.55,134.78Z"/><path d="M1018.87,133.63h-8.32a2.82,2.82,0,0,0,.7,1.88,2.25,2.25,0,0,0,1.65.55,3.24,3.24,0,0,0,1.3-.3,1.9,1.9,0,0,0,.7-.75h3.82a5,5,0,0,1-1.35,2.3,6.06,6.06,0,0,1-4.55,1.55,6.35,6.35,0,0,1-4.62-1.7,5.85,5.85,0,0,1-1.65-4.23,6,6,0,0,1,1.67-4.32,6.31,6.31,0,0,1,4.58-1.63,6.14,6.14,0,0,1,4.3,1.53,6.27,6.27,0,0,1,1.77,4.7Zm-3.67-2.3a2.71,2.71,0,0,0-.65-1.2,2.36,2.36,0,0,0-1.65-.6,2.18,2.18,0,0,0-1.63.6,2.36,2.36,0,0,0-.6,1.2Z"/><path d="M1021.17,127.31h4v1.82a3.61,3.61,0,0,1,1.58-1.55,4.4,4.4,0,0,1,2.07-.45c.1,0,.28,0,.8.05V131a3.52,3.52,0,0,0-1.72-.4,2.61,2.61,0,0,0-1.83.6,3.37,3.37,0,0,0-.9,2.55v4.77h-4Z"/><path d="M1043.25,133.63h-8.33a2.87,2.87,0,0,0,.7,1.88,2.25,2.25,0,0,0,1.65.55,3.24,3.24,0,0,0,1.3-.3,1.83,1.83,0,0,0,.7-.75h3.83a5.14,5.14,0,0,1-1.35,2.3,6.09,6.09,0,0,1-4.55,1.55,6.37,6.37,0,0,1-4.63-1.7,6.32,6.32,0,0,1,0-8.55,6.27,6.27,0,0,1,4.57-1.63,6.12,6.12,0,0,1,4.3,1.53,6.24,6.24,0,0,1,1.78,4.7Zm-3.68-2.3a2.71,2.71,0,0,0-.65-1.2,2.35,2.35,0,0,0-1.65-.6,2.16,2.16,0,0,0-1.62.6,2.21,2.21,0,0,0-.6,1.2Z"/><path d="M1064,138.48h-4v-1.22a4.09,4.09,0,0,1-3.37,1.6,5.38,5.38,0,0,1-3.93-1.55,6.19,6.19,0,0,1-1.8-4.45,6.09,6.09,0,0,1,1.83-4.43,5.71,5.71,0,0,1,4-1.5,4.43,4.43,0,0,1,3.32,1.45v-8.12h4Zm-4.72-3.7a2.68,2.68,0,0,0,.85-1.9,3,3,0,0,0-.75-1.8,2.48,2.48,0,0,0-1.83-.75,2.44,2.44,0,0,0-1.77.73,2.75,2.75,0,0,0-.78,1.9,2.53,2.53,0,0,0,.78,1.75,2.48,2.48,0,0,0,1.77.75A2.73,2.73,0,0,0,1059.3,134.78Z"/><path d="M1068.77,120.41a2.25,2.25,0,1,1-2.25,2.25A2.24,2.24,0,0,1,1068.77,120.41Zm2,6.9v11.17h-4V127.31Z"/><path d="M1073.5,127.31h4v1.82a3.6,3.6,0,0,1,1.57-1.55,4.44,4.44,0,0,1,2.08-.45c.1,0,.27,0,.8.05V131a3.54,3.54,0,0,0-1.73-.4,2.59,2.59,0,0,0-1.82.6,3.37,3.37,0,0,0-.9,2.55v4.77h-4Z"/><path d="M1095.57,133.63h-8.32a2.82,2.82,0,0,0,.7,1.88,2.25,2.25,0,0,0,1.65.55,3.24,3.24,0,0,0,1.3-.3,1.9,1.9,0,0,0,.7-.75h3.82a5,5,0,0,1-1.35,2.3,6.06,6.06,0,0,1-4.55,1.55,6.35,6.35,0,0,1-4.62-1.7,5.85,5.85,0,0,1-1.65-4.23,6,6,0,0,1,1.67-4.32,6.31,6.31,0,0,1,4.58-1.63,6.14,6.14,0,0,1,4.3,1.53,6.27,6.27,0,0,1,1.77,4.7Zm-3.67-2.3a2.71,2.71,0,0,0-.65-1.2,2.36,2.36,0,0,0-1.65-.6,2.18,2.18,0,0,0-1.63.6,2.36,2.36,0,0,0-.6,1.2Z"/><path d="M1106.32,138.23a5.87,5.87,0,0,1-2.77.63,6.18,6.18,0,0,1-4.4-1.7,5.87,5.87,0,0,1-1.73-4.18,6.09,6.09,0,0,1,1.8-4.32,6.45,6.45,0,0,1,4.5-1.7,5.72,5.72,0,0,1,2.6.62v3.35a3.57,3.57,0,0,0-2.07-.72,2.62,2.62,0,0,0-2,.77,2.74,2.74,0,0,0-.78,1.93,2.88,2.88,0,0,0,.7,1.87,2.73,2.73,0,0,0,2,.85,3,3,0,0,0,2-.75Z"/><path d="M1113.27,130.58v7.9h-4v-7.9H1108v-3.27h1.27v-3.67h4v3.67h2.28v3.27Z"/><path d="M1125.7,127.31h4v11.17h-4v-1.22a4.2,4.2,0,0,1-3.48,1.6,5.33,5.33,0,0,1-4-1.78,5.61,5.61,0,0,1-1.6-4.1,6.17,6.17,0,0,1,1.72-4.47,5.77,5.77,0,0,1,4-1.58,4.45,4.45,0,0,1,3.35,1.45Zm2.2-5.75a4,4,0,0,1-1.1,2.73,5.28,5.28,0,0,1-6.5,0,3.92,3.92,0,0,1-1.1-2.73h2.57a1.76,1.76,0,0,0,.5,1,2.07,2.07,0,0,0,1.28.45,2,2,0,0,0,1.27-.45,1.76,1.76,0,0,0,.5-1Zm-6.4,9.5a2.51,2.51,0,0,0,0,3.65,2.83,2.83,0,0,0,1.8.75,2.57,2.57,0,0,0,1.8-.78,2.43,2.43,0,0,0,.75-1.8,2.48,2.48,0,0,0-.77-1.82,2.52,2.52,0,0,0-3.55,0Z"/><polygon points="483.67 329.83 399.15 329.83 399.15 317.65 373.26 343.53 399.15 369.42 399.15 357.24 483.67 357.24 483.67 329.83" style="fill:none;stroke:#f7931f;stroke-miterlimit:10;stroke-width:7px"/><polygon points="764.26 357.24 848.78 357.24 848.78 369.42 874.67 343.53 848.78 317.65 848.78 329.83 764.26 329.83 764.26 357.24" style="fill:none;stroke:#f7931f;stroke-miterlimit:10;stroke-width:7px"/></svg>