<svg id="Layer_1" data-name="Layer 1" xmlns="http://www.w3.org/2000/svg" viewBox="0 0 1239 697"><title>Cap 4 -</title><line x1="581.01" y1="457.5" x2="581.01" y2="604.5" style="fill:none;stroke:#4fc2c9;stroke-miterlimit:10;stroke-width:7px"/><rect x="516.79" y="604.08" width="128.45" height="54.22" rx="12" ry="12" style="fill:none;stroke:#4fc2c9;stroke-miterlimit:10;stroke-width:7px"/><line x1="524.86" y1="614.4" x2="524.86" y2="647.97" style="fill:none;stroke:#4fc2c9;stroke-miterlimit:10;stroke-width:7px"/><path d="M557.48,617.31v23.35h-6.06V617.31Z"/><path d="M576.76,615.14h4.59l-17.92,32.1h-4.55Z"/><path d="M606.93,637.71a13.94,13.94,0,0,1-18.41,0,12.22,12.22,0,0,1,0-17.46,13.94,13.94,0,0,1,18.41,0,12.19,12.19,0,0,1,0,17.46ZM593,624.52a6.38,6.38,0,0,0-1.85,4.58,5.94,5.94,0,0,0,1.85,4.34,6.62,6.62,0,0,0,4.73,1.86,6.34,6.34,0,0,0,6.58-6.3,6.32,6.32,0,0,0-1.89-4.48,7,7,0,0,0-4.69-1.86A6.74,6.74,0,0,0,593,624.52Z"/><line x1="729.01" y1="457.5" x2="729.01" y2="604.5" style="fill:none;stroke:#4fc2c9;stroke-miterlimit:10;stroke-width:7px"/><rect x="664.79" y="604.08" width="128.45" height="54.22" rx="12" ry="12" style="fill:none;stroke:#4fc2c9;stroke-miterlimit:10;stroke-width:7px"/><line x1="672.86" y1="614.4" x2="672.86" y2="647.97" style="fill:none;stroke:#4fc2c9;stroke-miterlimit:10;stroke-width:7px"/><path d="M705.48,617.31v23.35h-6.06V617.31Z"/><path d="M724.76,615.14h4.59l-17.92,32.1h-4.55Z"/><path d="M754.93,637.71a13.94,13.94,0,0,1-18.41,0,12.22,12.22,0,0,1,0-17.46,13.94,13.94,0,0,1,18.41,0,12.19,12.19,0,0,1,0,17.46ZM741,624.52a6.38,6.38,0,0,0-1.85,4.58,5.94,5.94,0,0,0,1.85,4.34,6.62,6.62,0,0,0,4.73,1.86,6.34,6.34,0,0,0,6.58-6.3,6.32,6.32,0,0,0-1.89-4.48,7,7,0,0,0-4.69-1.86A6.74,6.74,0,0,0,741,624.52Z"/><line x1="725.01" y1="238.3" x2="725.01" y2="91.3" style="fill:none;stroke:#4fc2c9;stroke-miterlimit:10;stroke-width:7px"/><rect x="660.79" y="37.5" width="128.45" height="54.22" rx="12" ry="12" transform="translate(1450.03 129.22) rotate(180)" style="fill:none;stroke:#4fc2c9;stroke-miterlimit:10;stroke-width:7px"/><line x1="781.17" y1="81.39" x2="781.17" y2="47.83" style="fill:none;stroke:#4fc2c9;stroke-miterlimit:10;stroke-width:7px"/><line x1="577.01" y1="238.3" x2="577.01" y2="91.3" style="fill:none;stroke:#4fc2c9;stroke-miterlimit:10;stroke-width:7px"/><rect x="512.79" y="37.5" width="128.45" height="54.22" rx="12" ry="12" transform="translate(1154.03 129.22) rotate(180)" style="fill:none;stroke:#4fc2c9;stroke-miterlimit:10;stroke-width:7px"/><line x1="633.17" y1="81.39" x2="633.17" y2="47.83" style="fill:none;stroke:#4fc2c9;stroke-miterlimit:10;stroke-width:7px"/><circle cx="204.98" cy="509.47" r="11.73" style="fill:none;stroke:#91c54f;stroke-miterlimit:10;stroke-width:7px"/><line x1="205.26" y1="497.42" x2="204.98" y2="460.24" style="fill:none;stroke:#91c54f;stroke-miterlimit:10;stroke-width:7px"/><circle cx="134.62" cy="509.47" r="11.73" style="fill:none;stroke:#91c54f;stroke-miterlimit:10;stroke-width:7px"/><line x1="134.9" y1="497.42" x2="134.62" y2="460.24" style="fill:none;stroke:#91c54f;stroke-miterlimit:10;stroke-width:7px"/><circle cx="275.34" cy="509.47" r="11.73" style="fill:none;stroke:#91c54f;stroke-miterlimit:10;stroke-width:7px"/><line x1="275.62" y1="497.42" x2="275.34" y2="460.24" style="fill:none;stroke:#91c54f;stroke-miterlimit:10;stroke-width:7px"/><rect x="1124.75" y="282" width="58" height="14" style="fill:none;stroke:#c13018;stroke-miterlimit:10;stroke-width:7px"/><rect x="964.75" y="282" width="143" height="14" style="fill:none;stroke:#c13018;stroke-miterlimit:10;stroke-width:7px"/><circle cx="49.7" cy="416.94" r="11.73" style="fill:none;stroke:#91c54f;stroke-miterlimit:10;stroke-width:7px"/><line x1="61.75" y1="417.21" x2="98.92" y2="416.94" style="fill:none;stroke:#91c54f;stroke-miterlimit:10;stroke-width:7px"/><circle cx="49.7" cy="282.3" r="11.73" style="fill:none;stroke:#91c54f;stroke-miterlimit:10;stroke-width:7px"/><line x1="61.75" y1="282.57" x2="98.92" y2="282.3" style="fill:none;stroke:#91c54f;stroke-miterlimit:10;stroke-width:7px"/><circle cx="49.7" cy="349.62" r="11.73" style="fill:none;stroke:#91c54f;stroke-miterlimit:10;stroke-width:7px"/><line x1="61.75" y1="349.89" x2="98.92" y2="349.62" style="fill:none;stroke:#91c54f;stroke-miterlimit:10;stroke-width:7px"/><circle cx="360.27" cy="416.94" r="11.73" style="fill:none;stroke:#91c54f;stroke-miterlimit:10;stroke-width:7px"/><line x1="348.22" y1="416.66" x2="311.04" y2="416.94" style="fill:none;stroke:#91c54f;stroke-miterlimit:10;stroke-width:7px"/><circle cx="360.27" cy="282.3" r="11.73" style="fill:none;stroke:#91c54f;stroke-miterlimit:10;stroke-width:7px"/><line x1="348.22" y1="282.02" x2="311.04" y2="282.3" style="fill:none;stroke:#91c54f;stroke-miterlimit:10;stroke-width:7px"/><circle cx="360.27" cy="349.62" r="11.73" style="fill:#3a5c84"/><line x1="348.22" y1="349.34" x2="311.04" y2="349.62" style="fill:none;stroke:#3a5c84;stroke-miterlimit:10;stroke-width:7px"/><rect x="96.94" y="248.34" width="212.22" height="212.22" rx="12" ry="12" style="fill:none;stroke:#91c54f;stroke-miterlimit:10;stroke-width:7px"/><path d="M192,224.89a12.2,12.2,0,0,1-4.45,1,10.76,10.76,0,0,1-7.65-3,10.39,10.39,0,0,1-3-7.21,10.6,10.6,0,0,1,3-7.3,10.49,10.49,0,0,1,7.47-3.08,12.2,12.2,0,0,1,4.63,1v6.14a5.52,5.52,0,0,0-4.48-2.16,5,5,0,0,0-3.56,1.3,5.27,5.27,0,0,0,3.56,9.29A5.81,5.81,0,0,0,192,218.8Z"/><path d="M200.43,218.86v6.56h-5.14V205.63h8.19a6.85,6.85,0,0,1,5,1.78,6.15,6.15,0,0,1,1.84,4.81,6.43,6.43,0,0,1-1.75,4.92,6.62,6.62,0,0,1-4.93,1.72Zm0-4.15h1.72a3.35,3.35,0,0,0,2.16-.62,2.26,2.26,0,0,0,.66-1.81,2.37,2.37,0,0,0-.6-1.78,3,3,0,0,0-2.19-.72h-1.75Z"/><path d="M218.2,205.63v11.72a4,4,0,0,0,1,3.06,3.65,3.65,0,0,0,4.8.08,4.32,4.32,0,0,0,1.16-3.59V205.63h5.13V217c0,2.08-.09,4.25-2.22,6.41a8.57,8.57,0,0,1-6.53,2.46,8.82,8.82,0,0,1-6.56-2.37c-1.72-1.87-1.93-4.39-1.93-6.5V205.63Z"/><path d="M184.1,299.68V310.2a3.59,3.59,0,0,0,.91,2.74,3.29,3.29,0,0,0,2.18.85,3.37,3.37,0,0,0,2.13-.77,3.87,3.87,0,0,0,1-3.22V299.68H195v10.2c0,1.86-.07,3.8-2,5.75a7.67,7.67,0,0,1-5.86,2.21,7.91,7.91,0,0,1-5.88-2.13c-1.55-1.68-1.73-3.94-1.73-5.83v-10.2Z"/><path d="M209.53,314.46h-6.45l-1.2,3H197l6.82-17.76h5l6.68,17.76h-4.92Zm-1.23-3.52-2-5.75-1.94,5.75Z"/><path d="M222.2,299.68v13.85h5.54v3.91H217.59V299.68Z"/><path d="M192.25,395.52V406a3.57,3.57,0,0,0,.9,2.74,3.34,3.34,0,0,0,2.19.85,3.37,3.37,0,0,0,2.13-.77,3.89,3.89,0,0,0,1-3.22V395.52h4.61v10.2c0,1.86-.08,3.81-2,5.75a7.65,7.65,0,0,1-5.85,2.21,7.94,7.94,0,0,1-5.89-2.13c-1.54-1.68-1.73-3.94-1.73-5.83v-10.2Z"/><path d="M219.59,412.8a10.9,10.9,0,0,1-4,.88,9.64,9.64,0,0,1-6.87-2.66,9.33,9.33,0,0,1-2.69-6.47,9.32,9.32,0,0,1,9.4-9.32,11,11,0,0,1,4.15.9v5.52a5,5,0,0,0-4-1.95,4.49,4.49,0,0,0-3.19,1.17,5,5,0,0,0-1.55,3.65,4.56,4.56,0,0,0,4.74,4.69,5.2,5.2,0,0,0,4-1.87Z"/><rect x="109.49" y="282.75" width="187.12" height="50.2" rx="12" ry="12" style="fill:none;stroke:#a2b969;stroke-miterlimit:10;stroke-width:7px"/><rect x="109.49" y="379.35" width="187.12" height="50.2" rx="12" ry="12" style="fill:none;stroke:#a2b969;stroke-miterlimit:10;stroke-width:7px"/><polygon points="193.81 368.47 193.81 349.61 196.53 349.61 190.75 343.83 184.97 349.61 187.69 349.61 187.69 368.47 193.81 368.47" style="fill:none;stroke:#a2b969;stroke-miterlimit:10;stroke-width:8px"/><polygon points="213.41 343.83 213.41 362.69 210.69 362.69 216.47 368.47 222.25 362.69 219.53 362.69 219.53 343.83 213.41 343.83" style="fill:none;stroke:#a2b969;stroke-miterlimit:10;stroke-width:8px"/><rect x="601.16" y="321.74" width="104.21" height="73.51" rx="12" ry="12" style="fill:none;stroke:#3a5c84;stroke-miterlimit:10;stroke-width:7px"/><rect x="532.09" y="235.5" width="242.3" height="221.46" rx="12" ry="12" style="fill:none;stroke:#3a5c84;stroke-miterlimit:10;stroke-width:7px"/><path d="M633.33,351.07a3.93,3.93,0,0,1-1.06,2.88.27.27,0,0,0,0,.27l1.29,2.7c.08.15.17.15.24.14a3.93,3.93,0,0,1,4.2,3.79.26.26,0,0,0,.16.22l2.82,1h0a.18.18,0,0,0,.23-.08,4.33,4.33,0,0,1,.58-.55l0,0,.29-.19a1.71,1.71,0,0,1,.23-.13l.11-.06a3.9,3.9,0,0,1,4.39.67.22.22,0,0,0,.27,0l2.7-1.29h0a.22.22,0,0,0,.14-.23,3.94,3.94,0,0,1,1-2.91,3.88,3.88,0,0,1,1.5-1l.08,0,.15-.05.25-.07h0a4.79,4.79,0,0,1,.76-.1.23.23,0,0,0,.22-.16l1-2.82a.25.25,0,0,0-.07-.26,4,4,0,0,1-1.36-2.76,4,4,0,0,1,1.06-2.89.23.23,0,0,0,0-.27l-.88-1.85h0l-.4-.85-.07-.07h0l0,0-.1,0h0a3.93,3.93,0,0,1-4.2-3.79.24.24,0,0,0-.16-.22l-2.82-1a.2.2,0,0,0-.26.07h0a4.08,4.08,0,0,1-.89.77l-.07,0-.27.15a3.75,3.75,0,0,1-1.51.39,3.92,3.92,0,0,1-2.89-1.05.23.23,0,0,0-.27,0l-2.7,1.29a.23.23,0,0,0-.13.23,4,4,0,0,1-1,2.91,3.9,3.9,0,0,1-2.79,1.29.22.22,0,0,0-.22.16l-.69,2h0l-.31.89a.25.25,0,0,0,.07.26A4,4,0,0,1,633.33,351.07Zm6.13-4.78,0,0,.27-.23.19-.16.09-.06a5.81,5.81,0,1,1,5.83,10,4.89,4.89,0,0,1-.48.2h0a5.82,5.82,0,0,1-5.93-9.73Z" style="fill:#3a5c84"/><path d="M646.83,372.21a5,5,0,0,1-1.35,3.7.32.32,0,0,0-.06.35l1.66,3.47a.27.27,0,0,0,.3.18,5,5,0,0,1,3.74,1.28,5.08,5.08,0,0,1,1.66,3.58.33.33,0,0,0,.2.28l3.62,1.28h.07a.25.25,0,0,0,.29-.1,5.12,5.12,0,0,1,.76-.71l0,0,.37-.26.3-.16.14-.07a5,5,0,0,1,1.93-.51,5.1,5.1,0,0,1,3.71,1.36.26.26,0,0,0,.34.05l3.47-1.65h0a.31.31,0,0,0,.18-.29,5,5,0,0,1,3.2-5.06l.11,0,.2-.06.31-.09h.05a5.15,5.15,0,0,1,1-.13.33.33,0,0,0,.28-.21l1.28-3.63a.28.28,0,0,0-.09-.33,5,5,0,0,1-.38-7.25.32.32,0,0,0,.06-.35l-1.14-2.38h0l-.52-1.09a.26.26,0,0,0-.09-.09h0l-.05,0a.15.15,0,0,0-.11,0h0a5,5,0,0,1-5.4-4.87.31.31,0,0,0-.21-.28L663,356.71a.26.26,0,0,0-.34.09h0a4.91,4.91,0,0,1-1.16,1l-.09,0-.33.19a5.07,5.07,0,0,1-5.66-.85.29.29,0,0,0-.34-.05l-3.47,1.65a.31.31,0,0,0-.18.3,5,5,0,0,1-4.86,5.4.27.27,0,0,0-.28.21l-.89,2.51h0l-.4,1.14a.34.34,0,0,0,.09.34A5,5,0,0,1,646.83,372.21Zm7.88-6.14,0,0a3.07,3.07,0,0,1,.34-.29l.25-.21.11-.07A7.47,7.47,0,1,1,663,378.3a6.57,6.57,0,0,1-.61.26h0a7.47,7.47,0,0,1-7.61-12.49Z" style="fill:#3a5c84"/><path d="M652.25,338.88a2.65,2.65,0,0,1-.72,2,.17.17,0,0,0,0,.18l.88,1.85a.14.14,0,0,0,.16.09,2.62,2.62,0,0,1,2,.68,2.71,2.71,0,0,1,.89,1.9.15.15,0,0,0,.1.15l1.93.68h0a.15.15,0,0,0,.16-.05,2.4,2.4,0,0,1,.4-.38h0l.19-.14.16-.08a.2.2,0,0,1,.08,0,2.53,2.53,0,0,1,1-.27,2.67,2.67,0,0,1,2,.72.13.13,0,0,0,.18,0l1.84-.88h0a.16.16,0,0,0,.1-.16,2.63,2.63,0,0,1,.68-2,2.66,2.66,0,0,1,1-.7l.06,0,.1,0,.17-.05h0a4.34,4.34,0,0,1,.52-.07.17.17,0,0,0,.15-.11l.68-1.92a.18.18,0,0,0,0-.18,2.67,2.67,0,0,1-.2-3.85.17.17,0,0,0,0-.18l-.61-1.27h0l-.27-.58s0,0,0-.05h0l-.06,0h0a2.69,2.69,0,0,1-2-.68,2.73,2.73,0,0,1-.89-1.9.15.15,0,0,0-.11-.15l-1.92-.68a.14.14,0,0,0-.18,0h0a2.76,2.76,0,0,1-.61.52l0,0-.18.09a2.46,2.46,0,0,1-1,.27,2.65,2.65,0,0,1-2-.72.17.17,0,0,0-.18,0l-1.85.88a.16.16,0,0,0-.09.16,2.67,2.67,0,0,1-2.58,2.86.14.14,0,0,0-.15.11l-.47,1.33h0l-.21.6a.17.17,0,0,0,.05.18A2.7,2.7,0,0,1,652.25,338.88Zm4.18-3.25,0,0,.18-.15.13-.11.06,0a4,4,0,1,1,4,6.82,2.26,2.26,0,0,1-.33.13h0a4,4,0,0,1-4-6.63Z" style="fill:#3a5c84"/><path d="M612.07,431.85v7.07h-5.53V417.58h8.83a7.37,7.37,0,0,1,5.41,1.92,6.63,6.63,0,0,1,2,5.19,6.93,6.93,0,0,1-1.89,5.31,7.1,7.1,0,0,1-5.31,1.85Zm0-4.48h1.86a3.59,3.59,0,0,0,2.33-.67,2.41,2.41,0,0,0,.71-1.95,2.62,2.62,0,0,0-.64-1.92,3.27,3.27,0,0,0-2.37-.77h-1.89Z"/><path d="M625.22,424.62h5.12V427a4.7,4.7,0,0,1,2-2,5.68,5.68,0,0,1,2.66-.57l1,.06v4.83a4.52,4.52,0,0,0-2.21-.51,3.35,3.35,0,0,0-2.33.77,4.31,4.31,0,0,0-1.16,3.26v6.11h-5.12Z"/><path d="M652.07,437a9.82,9.82,0,0,1-12.77,0,7.17,7.17,0,0,1-2.2-5.28,7.09,7.09,0,0,1,2.2-5.25,9.79,9.79,0,0,1,12.77,0,7.05,7.05,0,0,1,2.21,5.25A7.14,7.14,0,0,1,652.07,437Zm-8.67-7.62a3.18,3.18,0,0,0,0,4.61,3.21,3.21,0,0,0,4.58,0,3.16,3.16,0,0,0,1-2.27,3.48,3.48,0,0,0-1-2.34,3.28,3.28,0,0,0-4.58,0Z"/><path d="M668,438.6a7.51,7.51,0,0,1-3.55.8,7.88,7.88,0,0,1-5.63-2.17,7.45,7.45,0,0,1-2.21-5.34,7.79,7.79,0,0,1,2.3-5.54,8.27,8.27,0,0,1,5.76-2.18,7.34,7.34,0,0,1,3.33.8v4.29a4.57,4.57,0,0,0-2.66-.93,3.35,3.35,0,0,0-2.49,1,3.48,3.48,0,0,0-1,2.47,3.65,3.65,0,0,0,.89,2.4,3.48,3.48,0,0,0,2.63,1.09,3.88,3.88,0,0,0,2.62-1Z"/><path d="M686.12,432.72H675.46a3.61,3.61,0,0,0,.9,2.4,2.88,2.88,0,0,0,2.11.7,4.06,4.06,0,0,0,1.67-.38,2.45,2.45,0,0,0,.89-1h4.9a6.52,6.52,0,0,1-1.73,2.94c-1.06,1-2.72,2-5.82,2a8.1,8.1,0,0,1-5.92-2.17,7.49,7.49,0,0,1-2.12-5.41,7.6,7.6,0,0,1,2.15-5.53,8,8,0,0,1,5.85-2.08,7.84,7.84,0,0,1,5.51,2,8,8,0,0,1,2.27,6Zm-4.71-3a3.28,3.28,0,0,0-.83-1.53,3,3,0,0,0-2.11-.77,2.74,2.74,0,0,0-2.08.77,2.93,2.93,0,0,0-.77,1.53Z"/><path d="M690,434.19a7.24,7.24,0,0,0,2,1.05,6.5,6.5,0,0,0,2,.36,2.18,2.18,0,0,0,1.32-.39.81.81,0,0,0,.25-.67.77.77,0,0,0-.25-.64,3.23,3.23,0,0,0-1.35-.51l-1.34-.32a4.62,4.62,0,0,1-2.5-1.25,3.49,3.49,0,0,1-.93-2.46,5.11,5.11,0,0,1,1.35-3.49,7.23,7.23,0,0,1,5.12-1.73,11.8,11.8,0,0,1,4.57.93l-1.72,3.26a7.11,7.11,0,0,0-2.69-.7,2.21,2.21,0,0,0-1.19.29.77.77,0,0,0-.44.7.83.83,0,0,0,.6.8c.48.19.9.19,1.7.42l.93.25a6.16,6.16,0,0,1,2.11,1.12,4.08,4.08,0,0,1,1.09,2.85,4.78,4.78,0,0,1-1.44,3.55,7.42,7.42,0,0,1-5.28,1.79,10.57,10.57,0,0,1-5.76-1.66Z"/><path d="M566.84,269.31l2.37-14h3.59l2.84,7.48,3-7.48h3.63l2.1,14h-3.63l-1-8.06-3.38,8.06h-1.45l-3.23-8.06-1.2,8.06Z"/><path d="M596.32,265.24h-7a2.37,2.37,0,0,0,.59,1.57,1.88,1.88,0,0,0,1.38.46,2.67,2.67,0,0,0,1.1-.25,1.55,1.55,0,0,0,.58-.63h3.22a4.26,4.26,0,0,1-1.14,1.93,5.09,5.09,0,0,1-3.82,1.3,5.32,5.32,0,0,1-3.88-1.42,4.93,4.93,0,0,1-1.39-3.55,5,5,0,0,1,1.41-3.63,5.25,5.25,0,0,1,3.84-1.37,5.14,5.14,0,0,1,3.61,1.28,5.27,5.27,0,0,1,1.49,3.95Zm-3.08-1.94a2.34,2.34,0,0,0-.55-1,2,2,0,0,0-1.39-.51,1.8,1.8,0,0,0-1.36.51,1.87,1.87,0,0,0-.5,1Z"/><path d="M598.26,259.92h3.36v1.14a3.56,3.56,0,0,1,2.81-1.3,3.71,3.71,0,0,1,1.8.42,2.93,2.93,0,0,1,1.31,1.34,3.25,3.25,0,0,1,1.28-1.3,3.77,3.77,0,0,1,1.95-.46,3.7,3.7,0,0,1,2.6.86,3.44,3.44,0,0,1,.88,2.58v6.11h-3.36v-4.64a2.79,2.79,0,0,0-.48-2,1.21,1.21,0,0,0-.88-.31,1.35,1.35,0,0,0-1,.38,2.41,2.41,0,0,0-.61,1.78v4.81h-3.35v-4.64a3,3,0,0,0-.45-2,1.3,1.3,0,0,0-1-.37,1.21,1.21,0,0,0-.93.33,2.81,2.81,0,0,0-.58,2.06v4.64h-3.36Z"/><path d="M626,268.07a6.44,6.44,0,0,1-8.38,0,4.84,4.84,0,0,1,0-6.91,5.89,5.89,0,0,1,4.18-1.55,6,6,0,0,1,4.2,1.55,4.84,4.84,0,0,1,0,6.91Zm-5.69-5a2.09,2.09,0,0,0,0,3,2.1,2.1,0,0,0,3,0,2.08,2.08,0,0,0,.65-1.49,2.28,2.28,0,0,0-.65-1.54,2.36,2.36,0,0,0-1.49-.61A2.33,2.33,0,0,0,620.35,263.07Z"/><path d="M629.42,259.92h3.36v1.54a3.13,3.13,0,0,1,1.32-1.31,3.7,3.7,0,0,1,1.74-.37l.68,0V263a2.89,2.89,0,0,0-1.45-.34,2.2,2.2,0,0,0-1.53.51,2.8,2.8,0,0,0-.76,2.14v4h-3.36Z"/><path d="M639.69,254.13A1.89,1.89,0,1,1,637.8,256,1.88,1.88,0,0,1,639.69,254.13Zm1.68,5.79v9.39H638v-9.39Z"/><path d="M653.61,265.24h-7a2.37,2.37,0,0,0,.59,1.57,1.88,1.88,0,0,0,1.38.46,2.63,2.63,0,0,0,1.09-.25,1.57,1.57,0,0,0,.59-.63h3.21a4.13,4.13,0,0,1-1.13,1.93,5.09,5.09,0,0,1-3.82,1.3,5.35,5.35,0,0,1-3.89-1.42,5.32,5.32,0,0,1,0-7.18,5.25,5.25,0,0,1,3.84-1.37,5.14,5.14,0,0,1,3.61,1.28,5.27,5.27,0,0,1,1.49,3.95Zm-3.09-1.94a2.22,2.22,0,0,0-.54-1,2,2,0,0,0-1.39-.51,1.79,1.79,0,0,0-1.36.51,2,2,0,0,0-.51,1Z"/><path d="M663,259.92l2.25,4.81,2.28-4.81h3.74l-4.89,9.39h-2.29l-4.85-9.39Z"/><path d="M674.15,254.13a1.89,1.89,0,1,1-1.89,1.89A1.88,1.88,0,0,1,674.15,254.13Zm1.68,5.79v9.39h-3.36v-9.39Z"/><path d="M678.12,259.92h3.36v1.54a3.08,3.08,0,0,1,1.32-1.31,3.67,3.67,0,0,1,1.74-.37l.67,0V263a2.8,2.8,0,0,0-1.44-.34,2.24,2.24,0,0,0-1.54.51,2.83,2.83,0,0,0-.75,2.14v4h-3.36Z"/><path d="M690.74,262.67v6.64h-3.36v-6.64h-1.07v-2.75h1.07v-3.08h3.36v3.08h1.91v2.75Z"/><path d="M697.27,259.92v5.25a1.81,1.81,0,0,0,.5,1.37,1.77,1.77,0,0,0,1.18.35,1.6,1.6,0,0,0,1.2-.39,1.75,1.75,0,0,0,.48-1.33v-5.25H704v5.86a3.22,3.22,0,0,1-.9,2.52,5.37,5.37,0,0,1-4.06,1.32c-1.4,0-3.12-.14-4.24-1.34a3.4,3.4,0,0,1-.88-2.5v-5.86Z"/><path d="M713.56,259.92h3.36v9.39h-3.36v-1a3.49,3.49,0,0,1-2.91,1.34,4.47,4.47,0,0,1-3.38-1.49,4.69,4.69,0,0,1-1.35-3.44,5.24,5.24,0,0,1,1.45-3.76,4.83,4.83,0,0,1,3.38-1.32,3.66,3.66,0,0,1,2.81,1.22ZM710,263.07a2.2,2.2,0,0,0-.67,1.54,2.17,2.17,0,0,0,.65,1.53,2.36,2.36,0,0,0,1.51.63,2.16,2.16,0,0,0,1.51-.65,2.07,2.07,0,0,0,.63-1.51,2.1,2.1,0,0,0-.65-1.54,2.18,2.18,0,0,0-1.51-.61A2.15,2.15,0,0,0,710,263.07Z"/><path d="M722.6,254v15.31h-3.36V254Z"/><path d="M732.15,259.92h3.36v9.39h-3.36v-1a3.5,3.5,0,0,1-2.92,1.34,4.47,4.47,0,0,1-3.38-1.49,4.72,4.72,0,0,1-1.34-3.44,5.19,5.19,0,0,1,1.45-3.76,4.79,4.79,0,0,1,3.38-1.32,3.68,3.68,0,0,1,2.81,1.22Zm1.85-4.83a3.29,3.29,0,0,1-.93,2.29,4.38,4.38,0,0,1-5.45,0,3.29,3.29,0,0,1-.93-2.29h2.16a1.52,1.52,0,0,0,.42.87,1.75,1.75,0,0,0,2.15,0,1.45,1.45,0,0,0,.41-.87Zm-5.38,8a2.2,2.2,0,0,0-.67,1.54,2.17,2.17,0,0,0,.65,1.53,2.41,2.41,0,0,0,1.51.63,2.16,2.16,0,0,0,1.52-.65,2.15,2.15,0,0,0,0-3.05,2.14,2.14,0,0,0-1.51-.61A2.17,2.17,0,0,0,728.62,263.07Z"/><line x1="774.5" y1="346.5" x2="951.5" y2="346.5" style="fill:none;stroke:#3a5c84;stroke-miterlimit:10;stroke-width:7px"/><line x1="532.5" y1="350.5" x2="360.5" y2="350.5" style="fill:none;stroke:#3a5c84;stroke-miterlimit:10;stroke-width:7px"/><path d="M555.5,51.92V73.27H550V51.92Z"/><path d="M573.13,49.94h4.19L560.94,79.28h-4.16Z"/><path d="M600.71,70.58a12.75,12.75,0,0,1-16.83,0,11.17,11.17,0,0,1,0-16,12.75,12.75,0,0,1,16.83,0,11.17,11.17,0,0,1,0,16ZM588,58.52a5.84,5.84,0,0,0-1.69,4.19,5.38,5.38,0,0,0,1.69,4,6,6,0,0,0,4.32,1.7,5.85,5.85,0,0,0,4.29-1.66,5.92,5.92,0,0,0,1.73-4.1,5.76,5.76,0,0,0-1.73-4.09,6.33,6.33,0,0,0-4.29-1.7A6.14,6.14,0,0,0,588,58.52Z"/><path d="M703.5,51.92V73.27H698V51.92Z"/><path d="M721.13,49.94h4.19L708.94,79.28h-4.16Z"/><path d="M748.71,70.58a12.75,12.75,0,0,1-16.83,0,11.17,11.17,0,0,1,0-16,12.75,12.75,0,0,1,16.83,0,11.17,11.17,0,0,1,0,16ZM736,58.52a5.84,5.84,0,0,0-1.69,4.19,5.38,5.38,0,0,0,1.69,4,6,6,0,0,0,4.32,1.7,5.85,5.85,0,0,0,4.29-1.66,5.92,5.92,0,0,0,1.73-4.1,5.76,5.76,0,0,0-1.73-4.09,6.33,6.33,0,0,0-4.29-1.7A6.14,6.14,0,0,0,736,58.52Z"/><path d="M949.12,259.41l3.16-18.67h4.79l3.78,10,4-10h4.84l2.8,18.67h-4.84l-1.38-10.75-4.5,10.75h-1.94l-4.31-10.75-1.59,10.75Z"/><path d="M988.43,254h-9.32a3.17,3.17,0,0,0,.78,2.1,2.52,2.52,0,0,0,1.85.62,3.55,3.55,0,0,0,1.46-.34,2.13,2.13,0,0,0,.78-.84h4.28a5.54,5.54,0,0,1-1.51,2.58,6.81,6.81,0,0,1-5.09,1.73,7.08,7.08,0,0,1-5.18-1.9,6.51,6.51,0,0,1-1.85-4.73,6.71,6.71,0,0,1,1.87-4.85,7.05,7.05,0,0,1,5.13-1.82,6.85,6.85,0,0,1,4.81,1.71,7,7,0,0,1,2,5.26Zm-4.11-2.58a3.19,3.19,0,0,0-.73-1.34,2.6,2.6,0,0,0-1.85-.67,2.39,2.39,0,0,0-1.82.67,2.51,2.51,0,0,0-.67,1.34Z"/><path d="M991,246.9h4.48v1.51a4.8,4.8,0,0,1,3.75-1.74,5.13,5.13,0,0,1,2.41.56,3.92,3.92,0,0,1,1.73,1.79,4.47,4.47,0,0,1,1.71-1.73,5.05,5.05,0,0,1,2.61-.62,5,5,0,0,1,3.47,1.15,4.59,4.59,0,0,1,1.17,3.44v8.15h-4.48v-6.19c0-1.31-.14-2.21-.64-2.68a1.61,1.61,0,0,0-1.18-.42,1.82,1.82,0,0,0-1.31.5,3.18,3.18,0,0,0-.81,2.38v6.41h-4.48v-6.19a4,4,0,0,0-.59-2.68,1.75,1.75,0,0,0-1.35-.51,1.6,1.6,0,0,0-1.23.45,3.71,3.71,0,0,0-.78,2.74v6.19H991Z"/><path d="M1028.05,257.76a8.57,8.57,0,0,1-11.17,0,6.46,6.46,0,0,1,0-9.21,7.82,7.82,0,0,1,5.57-2.07,7.92,7.92,0,0,1,5.6,2.07,6.46,6.46,0,0,1,0,9.21Zm-7.59-6.66a2.87,2.87,0,0,0-.87,2,2.92,2.92,0,0,0,.87,2,2.89,2.89,0,0,0,2,.84,2.85,2.85,0,0,0,2-.84,2.75,2.75,0,0,0,.86-2,3,3,0,0,0-.86-2,2.86,2.86,0,0,0-4,0Z"/><path d="M1032.56,246.9H1037v2a4.08,4.08,0,0,1,1.76-1.74,5,5,0,0,1,2.33-.5l.89.06V251a4,4,0,0,0-1.93-.44,2.91,2.91,0,0,0-2,.67,3.74,3.74,0,0,0-1,2.85v5.35h-4.48Z"/><path d="M1046.25,239.17a2.52,2.52,0,1,1-2.52,2.52A2.51,2.51,0,0,1,1046.25,239.17Zm2.24,7.73v12.51H1044V246.9Z"/><path d="M1064.81,254h-9.32a3.13,3.13,0,0,0,.79,2.1,2.49,2.49,0,0,0,1.84.62,3.52,3.52,0,0,0,1.46-.34,2.06,2.06,0,0,0,.78-.84h4.29a5.66,5.66,0,0,1-1.52,2.58,6.81,6.81,0,0,1-5.09,1.73,7.1,7.1,0,0,1-5.18-1.9,6.55,6.55,0,0,1-1.85-4.73,6.67,6.67,0,0,1,1.88-4.85,7,7,0,0,1,5.12-1.82,6.87,6.87,0,0,1,4.82,1.71,7,7,0,0,1,2,5.26Zm-4.11-2.58a3,3,0,0,0-.73-1.34,2.6,2.6,0,0,0-1.85-.67,2.41,2.41,0,0,0-1.82.67,2.58,2.58,0,0,0-.67,1.34Z"/><path d="M1078.39,265.82h-4.48V246.9h4.48v1.37a4.69,4.69,0,0,1,3.84-1.79,6.22,6.22,0,0,1,4.45,1.82,6.73,6.73,0,0,1,1.91,4.84,6.81,6.81,0,0,1-2,5,6,6,0,0,1-4.28,1.73,5.35,5.35,0,0,1-3.9-1.62Zm.73-14.7a3.07,3.07,0,0,0-.87,2.08,3,3,0,0,0,.87,2,2.83,2.83,0,0,0,2,.84,2.69,2.69,0,0,0,2-.84,3,3,0,0,0,.86-2,3.06,3.06,0,0,0-.86-2.08,2.73,2.73,0,0,0-2-.84A2.87,2.87,0,0,0,1079.12,251.12Z"/><path d="M1091.16,246.9h4.48v2a4.05,4.05,0,0,1,1.77-1.74,4.91,4.91,0,0,1,2.32-.5l.9.06V251a4,4,0,0,0-1.94-.44,2.92,2.92,0,0,0-2,.67,3.78,3.78,0,0,0-1,2.85v5.35h-4.48Z"/><path d="M1104.85,239.17a2.52,2.52,0,1,1-2.52,2.52A2.51,2.51,0,0,1,1104.85,239.17Zm2.24,7.73v12.51h-4.48V246.9Z"/><path d="M1110.15,246.9h4.48v1.56a4.71,4.71,0,0,1,4-1.84,5.05,5.05,0,0,1,3.7,1.34,4.32,4.32,0,0,1,1.17,3.5v8H1119v-6.33a3.57,3.57,0,0,0-.56-2.43,1.86,1.86,0,0,0-1.42-.53,2.51,2.51,0,0,0-1.66.58,2.93,2.93,0,0,0-.72,2v6.72h-4.48Z"/><path d="M1136,259.13a6.6,6.6,0,0,1-3.11.7,6.93,6.93,0,0,1-4.93-1.9,6.58,6.58,0,0,1-1.93-4.68,6.8,6.8,0,0,1,2-4.84,7.21,7.21,0,0,1,5-1.91,6.43,6.43,0,0,1,2.91.7V251a4,4,0,0,0-2.32-.82,2.94,2.94,0,0,0-2.19.87,3.09,3.09,0,0,0-.87,2.16,3.24,3.24,0,0,0,.79,2.1,3,3,0,0,0,2.29,1,3.39,3.39,0,0,0,2.3-.84Z"/><path d="M1140.78,239.17a2.52,2.52,0,1,1-2.52,2.52A2.51,2.51,0,0,1,1140.78,239.17Zm2.24,7.73v12.51h-4.48V246.9Z"/><path d="M1150.55,265.82h-4.48V246.9h4.48v1.37a4.68,4.68,0,0,1,3.84-1.79,6.22,6.22,0,0,1,4.45,1.82,7.12,7.12,0,0,1-.11,9.8,6,6,0,0,1-4.29,1.73,5.34,5.34,0,0,1-3.89-1.62Zm.73-14.7a3.07,3.07,0,0,0-.87,2.08,3,3,0,0,0,.87,2,2.82,2.82,0,0,0,2,.84,2.66,2.66,0,0,0,2-.84,2.93,2.93,0,0,0,.87-2,3.07,3.07,0,0,0-.87-2.08,2.7,2.7,0,0,0-2-.84A2.86,2.86,0,0,0,1151.28,251.12Z"/><path d="M1173,246.9h4.48v12.51H1173V258a4.68,4.68,0,0,1-3.9,1.79,6,6,0,0,1-4.5-2,6.27,6.27,0,0,1-1.8-4.59,6.92,6.92,0,0,1,1.94-5,6.43,6.43,0,0,1,4.5-1.76,5,5,0,0,1,3.76,1.62Zm-4.71,4.2a2.93,2.93,0,0,0-.89,2,2.86,2.86,0,0,0,.86,2,3.15,3.15,0,0,0,2,.84,2.87,2.87,0,0,0,2-.86,2.84,2.84,0,0,0,0-4.06,2.82,2.82,0,0,0-4,0Z"/><path d="M1185.05,239v20.41h-4.48V239Z"/><path d="M1197.79,246.9h4.48v12.51h-4.48V258a4.68,4.68,0,0,1-3.9,1.79,6,6,0,0,1-4.5-2,6.27,6.27,0,0,1-1.8-4.59,6.92,6.92,0,0,1,1.94-5,6.43,6.43,0,0,1,4.5-1.76,5,5,0,0,1,3.76,1.62Zm2.46-6.44a4.44,4.44,0,0,1-1.23,3,5.89,5.89,0,0,1-7.28,0,4.39,4.39,0,0,1-1.23-3h2.88a2,2,0,0,0,.56,1.14,2.26,2.26,0,0,0,2.86,0,2,2,0,0,0,.56-1.14Zm-7.17,10.64a2.93,2.93,0,0,0-.89,2,2.86,2.86,0,0,0,.86,2,3.15,3.15,0,0,0,2,.84,2.87,2.87,0,0,0,2-.86,2.84,2.84,0,0,0,0-4.06,2.82,2.82,0,0,0-4,0Z"/><rect x="1148" y="324.45" width="23" height="37.1" rx="3.02" ry="3.02" transform="translate(2319 686) rotate(180)" style="fill:none;stroke:#c13018;stroke-miterlimit:10;stroke-width:7px"/><rect x="1105.25" y="324.45" width="23" height="37.1" rx="4.38" ry="4.38" transform="translate(2233.5 686) rotate(180)" style="fill:none;stroke:#c13018;stroke-miterlimit:10;stroke-width:7px"/><rect x="1062.5" y="324.45" width="23" height="37.1" rx="4.38" ry="4.38" transform="translate(2148 686) rotate(180)" style="fill:none;stroke:#c13018;stroke-miterlimit:10;stroke-width:7px"/><rect x="1019.75" y="324.45" width="23" height="37.1" rx="4.38" ry="4.38" transform="translate(2062.5 686) rotate(180)" style="fill:none;stroke:#c13018;stroke-miterlimit:10;stroke-width:7px"/><rect x="977" y="324.45" width="23" height="37.1" rx="4.38" ry="4.38" transform="translate(1977 686) rotate(180)" style="fill:none;stroke:#c13018;stroke-miterlimit:10;stroke-width:7px"/><rect x="951.5" y="297.5" width="250" height="84" rx="12" ry="12" style="fill:none;stroke:#c13018;stroke-miterlimit:10;stroke-width:7px"/></svg>