<svg id="Layer_1" data-name="Layer 1" xmlns="http://www.w3.org/2000/svg" viewBox="0 0 1016 768"><title>Cap 4 -</title><rect x="33.12" y="378.5" width="236.38" height="353.65" rx="12" ry="12" style="fill:none;stroke:#3a5c84;stroke-miterlimit:10;stroke-width:4.84837018382777px"/><path d="M172.48,479.17a3.92,3.92,0,0,0-.81-.65,4.78,4.78,0,0,0-6,.65l-4.38,4.38a4.82,4.82,0,0,0,6.81,6.81l3.61-3.61a.34.34,0,0,0,.11-.25.35.35,0,0,0-.35-.34h-.14a5.75,5.75,0,0,1-2.2-.43.36.36,0,0,0-.38.08l-2.59,2.6a2.06,2.06,0,1,1-2.92-2.92l4.39-4.39a2.06,2.06,0,0,1,2.92,0,1.41,1.41,0,0,0,1.93,0,1.36,1.36,0,0,0,0-1.93Z" style="fill:#f7931f"/><path d="M179.12,472.53a4.82,4.82,0,0,0-6.81,0l-3.61,3.6a.36.36,0,0,0-.08.38.35.35,0,0,0,.33.21h.12a5.87,5.87,0,0,1,2.2.43.34.34,0,0,0,.38-.07l2.59-2.59a2.06,2.06,0,0,1,2.92,2.92l-3.23,3.22,0,0-1.13,1.12a2.08,2.08,0,0,1-2.92,0,1.41,1.41,0,0,0-1.93,0,1.33,1.33,0,0,0-.4.88,1.36,1.36,0,0,0,.4,1.06,4.7,4.7,0,0,0,1.37,1,1041716230434.75,1041716230434.75,0,0,1,.44.18l.22.07.2.05.42.09a4.4,4.4,0,0,0,.51.05h.26l.21,0,.24,0h.12l.24,0,.11,0,.2,0h0a4.79,4.79,0,0,0,2.24-1.27l4.38-4.38A4.82,4.82,0,0,0,179.12,472.53Z" style="fill:#f7931f"/><path d="M172.48,524.78a4.71,4.71,0,0,0-.81-.65,4.81,4.81,0,0,0-6,.65l-4.38,4.38a4.82,4.82,0,0,0,3.41,8.22,4.77,4.77,0,0,0,3.4-1.4l3.61-3.61a.36.36,0,0,0,.11-.25.35.35,0,0,0-.35-.34h-.14a5.75,5.75,0,0,1-2.2-.43.36.36,0,0,0-.38.08l-2.59,2.6a2.06,2.06,0,0,1-2.92-2.92l4.39-4.39a2.06,2.06,0,0,1,2.92,0,1.37,1.37,0,0,0,2.33-.88A1.36,1.36,0,0,0,172.48,524.78Z" style="fill:#f7931f"/><path d="M179.12,518.15a4.8,4.8,0,0,0-6.81,0l-3.61,3.6a.36.36,0,0,0-.08.38.36.36,0,0,0,.33.21h.12a5.68,5.68,0,0,1,2.2.43.36.36,0,0,0,.38-.08l2.59-2.58a2.06,2.06,0,1,1,2.92,2.92l-3.23,3.22,0,0-1.13,1.13a2.08,2.08,0,0,1-2.92,0,1.39,1.39,0,0,0-1.93,0,1.31,1.31,0,0,0-.4.88,1.36,1.36,0,0,0,.4,1.06,4.7,4.7,0,0,0,1.37,1l.22.09.22.08.22.08.2.05.42.09.51,0h.26l.21,0,.24,0h.12l.24,0,.11,0,.2,0h0a4.88,4.88,0,0,0,2.24-1.27l4.38-4.38A4.82,4.82,0,0,0,179.12,518.15Z" style="fill:#f7931f"/><path d="M172.48,570.4a4.28,4.28,0,0,0-.81-.65,4.76,4.76,0,0,0-2.6-.76,4.82,4.82,0,0,0-3.4,1.41l-4.38,4.38A4.82,4.82,0,0,0,164.7,583a4.77,4.77,0,0,0,3.4-1.4l3.61-3.62a.32.32,0,0,0,.11-.24.35.35,0,0,0-.35-.34h-.14a5.94,5.94,0,0,1-2.2-.43.36.36,0,0,0-.38.08l-2.59,2.6a2.06,2.06,0,1,1-2.92-2.92l4.39-4.4a2.08,2.08,0,0,1,2.92,0,1.39,1.39,0,0,0,1.93,0,1.36,1.36,0,0,0,0-1.93Z" style="fill:#636868"/><path d="M179.12,563.76a4.82,4.82,0,0,0-6.81,0l-3.61,3.61a.36.36,0,0,0-.08.38.36.36,0,0,0,.33.21h.12a5.68,5.68,0,0,1,2.2.43.36.36,0,0,0,.38-.08l2.59-2.59a2.07,2.07,0,1,1,2.92,2.93l-3.23,3.22,0,0L172.78,573a2.06,2.06,0,0,1-2.92,0,1.41,1.41,0,0,0-1.93,0,1.37,1.37,0,0,0,0,1.94,4.74,4.74,0,0,0,1.37,1l.22.09.22.08.22.07.2.06.42.09a4.38,4.38,0,0,0,.51,0h.26l.21,0,.24,0h.12l.24,0,.11,0,.2,0h0a4.86,4.86,0,0,0,2.24-1.26l4.38-4.38A4.83,4.83,0,0,0,179.12,563.76Z" style="fill:#636868"/><path d="M172.48,616a3.92,3.92,0,0,0-.81-.65,4.81,4.81,0,0,0-6,.65l-4.38,4.38a4.82,4.82,0,0,0,6.81,6.82l3.61-3.62a.32.32,0,0,0,.11-.24.36.36,0,0,0-.35-.35h-.14a5.74,5.74,0,0,1-2.2-.42.34.34,0,0,0-.38.07l-2.59,2.6a2.06,2.06,0,0,1-2.92-2.92l4.39-4.39a2.08,2.08,0,0,1,2.92,0,1.41,1.41,0,0,0,1.93,0,1.36,1.36,0,0,0,0-1.93Z" style="fill:#636868"/><path d="M179.12,609.38a4.82,4.82,0,0,0-6.81,0L168.7,613a.36.36,0,0,0-.08.38.38.38,0,0,0,.33.21h.12a5.5,5.5,0,0,1,2.2.43.36.36,0,0,0,.38-.08l2.59-2.59a2.06,2.06,0,1,1,2.92,2.92l-3.23,3.23,0,0-1.13,1.12a2.06,2.06,0,0,1-2.92,0,1.41,1.41,0,0,0-1.93,0,1.37,1.37,0,0,0,0,1.94,4.52,4.52,0,0,0,1.37,1l.22.1.22.08.22.07.2.06.42.08a4.4,4.4,0,0,0,.51.05h.26l.21,0,.24,0h.12l.24,0,.11,0,.2,0h0a4.79,4.79,0,0,0,2.24-1.27l4.38-4.38A4.82,4.82,0,0,0,179.12,609.38Z" style="fill:#636868"/><path d="M172.48,661.64a3.92,3.92,0,0,0-.81-.65,4.81,4.81,0,0,0-6,.65L161.29,666a4.82,4.82,0,0,0,6.81,6.81l3.61-3.61a.34.34,0,0,0,.11-.25.35.35,0,0,0-.35-.34h-.14a5.75,5.75,0,0,1-2.2-.43.36.36,0,0,0-.38.08l-2.59,2.6a2.06,2.06,0,1,1-2.92-2.92l4.39-4.39a2.06,2.06,0,0,1,2.92,0,1.41,1.41,0,0,0,1.93,0,1.36,1.36,0,0,0,0-1.93Z" style="fill:#636868"/><path d="M179.12,655a4.82,4.82,0,0,0-6.81,0l-3.61,3.6a.36.36,0,0,0-.08.38.35.35,0,0,0,.33.21h.12a5.87,5.87,0,0,1,2.2.43.34.34,0,0,0,.38-.07l2.59-2.59a2.06,2.06,0,0,1,2.92,2.92l-3.23,3.23,0,0-1.13,1.12a2.08,2.08,0,0,1-2.92,0,1.41,1.41,0,0,0-1.93,0,1.33,1.33,0,0,0-.4.88,1.36,1.36,0,0,0,.4,1.06,4.7,4.7,0,0,0,1.37,1l.22.1.22.08.22.07.2.05.42.09a4.4,4.4,0,0,0,.51.05h.26l.21,0a1.57,1.57,0,0,1,.24,0h.12l.24,0,.11,0,.2,0h0a4.79,4.79,0,0,0,2.24-1.27l4.38-4.38A4.82,4.82,0,0,0,179.12,655Z" style="fill:#636868"/><path d="M87.31,409.43V395.62H92a7.74,7.74,0,0,1,5.49,1.9,6.76,6.76,0,0,1,1.93,5,6.39,6.39,0,0,1-1.8,4.78,7.49,7.49,0,0,1-5.3,2.09Zm3.59-3h.72a4.13,4.13,0,0,0,3-1,3.72,3.72,0,0,0,1.06-2.83,4.11,4.11,0,0,0-1.08-3,4,4,0,0,0-2.85-.87H90.9Z"/><path d="M111.21,405.41h-6.9a2.38,2.38,0,0,0,.58,1.56,1.92,1.92,0,0,0,1.37.45,2.62,2.62,0,0,0,1.08-.25,1.59,1.59,0,0,0,.58-.62h3.16a4.15,4.15,0,0,1-1.11,1.91,5.05,5.05,0,0,1-3.77,1.28,5.25,5.25,0,0,1-3.83-1.41,4.85,4.85,0,0,1-1.37-3.5,4.94,4.94,0,0,1,1.39-3.58,5.23,5.23,0,0,1,3.79-1.34,5.06,5.06,0,0,1,3.56,1.26,5.2,5.2,0,0,1,1.47,3.89Zm-3-1.9a2.32,2.32,0,0,0-.54-1,2,2,0,0,0-1.37-.49,1.77,1.77,0,0,0-1.34.49,1.87,1.87,0,0,0-.5,1Z"/><path d="M113.71,406.37a4.92,4.92,0,0,0,1.33.68,4.45,4.45,0,0,0,1.28.23,1.44,1.44,0,0,0,.85-.25.53.53,0,0,0,.17-.44.47.47,0,0,0-.17-.41,2,2,0,0,0-.87-.33l-.87-.21a3,3,0,0,1-1.61-.81,2.24,2.24,0,0,1-.6-1.59,3.31,3.31,0,0,1,.87-2.26,4.68,4.68,0,0,1,3.31-1.12,7.78,7.78,0,0,1,3,.6l-1.12,2.12a4.51,4.51,0,0,0-1.74-.46,1.34,1.34,0,0,0-.76.19.49.49,0,0,0-.29.45.53.53,0,0,0,.39.52,10.41,10.41,0,0,0,1.1.27l.6.17a3.89,3.89,0,0,1,1.37.72,2.65,2.65,0,0,1,.7,1.84,3.11,3.11,0,0,1-.93,2.3,4.8,4.8,0,0,1-3.42,1.16,6.79,6.79,0,0,1-3.73-1.08Z"/><path d="M129.31,409.22a4.87,4.87,0,0,1-2.3.52,5.11,5.11,0,0,1-3.65-1.41,4.83,4.83,0,0,1-1.42-3.45,5,5,0,0,1,1.49-3.59,5.32,5.32,0,0,1,3.72-1.41,4.84,4.84,0,0,1,2.16.52v2.78a3,3,0,0,0-1.72-.6,2.18,2.18,0,0,0-1.62.64,2.25,2.25,0,0,0-.64,1.59,2.42,2.42,0,0,0,.58,1.56,2.25,2.25,0,0,0,1.7.7,2.51,2.51,0,0,0,1.7-.62Z"/><path d="M131.19,400.17h3.31v1.52a3,3,0,0,1,1.31-1.29,3.59,3.59,0,0,1,1.72-.37l.66,0v3.13a3,3,0,0,0-1.43-.33,2.19,2.19,0,0,0-1.51.49,2.8,2.8,0,0,0-.75,2.12v3.95h-3.31Z"/><path d="M141.32,394.46a1.87,1.87,0,1,1-1.87,1.86A1.86,1.86,0,0,1,141.32,394.46Zm1.65,5.71v9.26h-3.31v-9.26Z"/><path d="M148.54,414.17h-3.31v-14h3.31v1a3.45,3.45,0,0,1,2.84-1.33,4.59,4.59,0,0,1,3.29,1.35,5.26,5.26,0,0,1-.08,7.25,4.47,4.47,0,0,1-3.17,1.28,3.93,3.93,0,0,1-2.88-1.2Zm.54-10.87a2.3,2.3,0,0,0-.64,1.53,2.23,2.23,0,0,0,.64,1.47,2.08,2.08,0,0,0,1.49.62,2,2,0,0,0,1.47-.62,2.19,2.19,0,0,0,.64-1.47,2.25,2.25,0,0,0-.64-1.53,2,2,0,0,0-1.47-.62A2.12,2.12,0,0,0,149.08,403.3Z"/><path d="M161.65,402.89v6.54h-3.31v-6.54h-1.06v-2.72h1.06v-3h3.31v3h1.88v2.72Z"/><path d="M174.09,408.21a6.34,6.34,0,0,1-8.26,0,4.64,4.64,0,0,1-1.43-3.42,4.58,4.58,0,0,1,1.43-3.39,6.31,6.31,0,0,1,8.26,0,4.54,4.54,0,0,1,1.43,3.39A4.61,4.61,0,0,1,174.09,408.21Zm-5.61-4.93a2.05,2.05,0,0,0,0,3,2.08,2.08,0,0,0,3,0,2,2,0,0,0,.64-1.47,2.24,2.24,0,0,0-.64-1.51,2.13,2.13,0,0,0-3,0Z"/><path d="M177.43,400.17h3.31v1.52a3,3,0,0,1,1.3-1.29,3.62,3.62,0,0,1,1.72-.37l.66,0v3.13a2.92,2.92,0,0,0-1.42-.33,2.2,2.2,0,0,0-1.52.49,2.82,2.82,0,0,0-.74,2.12v3.95h-3.31Z"/><path d="M187.55,394.46a1.87,1.87,0,1,1-1.86,1.86A1.86,1.86,0,0,1,187.55,394.46Zm1.66,5.71v9.26h-3.32v-9.26Z"/><path d="M206.77,409.43h-3.32v-1a3.38,3.38,0,0,1-2.79,1.32,4.42,4.42,0,0,1-3.25-1.28,5.12,5.12,0,0,1-1.49-3.69,5,5,0,0,1,1.51-3.66,4.73,4.73,0,0,1,3.27-1.25,3.63,3.63,0,0,1,2.75,1.21v-6.73h3.32Zm-3.92-3.06a2.23,2.23,0,0,0,.71-1.58,2.42,2.42,0,0,0-.62-1.49,2.05,2.05,0,0,0-1.52-.62,2,2,0,0,0-1.47.6,2.27,2.27,0,0,0-.64,1.57,2.1,2.1,0,0,0,.64,1.45,2.05,2.05,0,0,0,1.47.62A2.25,2.25,0,0,0,202.85,406.37Z"/><path d="M218.86,405.41H212a2.38,2.38,0,0,0,.58,1.56,1.92,1.92,0,0,0,1.37.45,2.62,2.62,0,0,0,1.08-.25,1.59,1.59,0,0,0,.58-.62h3.16a4.15,4.15,0,0,1-1.11,1.91,5.05,5.05,0,0,1-3.77,1.28,5.25,5.25,0,0,1-3.83-1.41,4.85,4.85,0,0,1-1.37-3.5,4.94,4.94,0,0,1,1.39-3.58,5.21,5.21,0,0,1,3.79-1.34,5.06,5.06,0,0,1,3.56,1.26,5.2,5.2,0,0,1,1.47,3.89Zm-3-1.9a2.32,2.32,0,0,0-.54-1,2,2,0,0,0-1.37-.49,1.8,1.8,0,0,0-1.35.49,1.93,1.93,0,0,0-.49,1Z"/><path d="M57,427.73v6.55H53.68v-6.55H52.52V425h1.16v-1.14a4.66,4.66,0,0,1,1.26-3.62,5.25,5.25,0,0,1,3.65-1.3,5.56,5.56,0,0,1,3.7,1.24,4.2,4.2,0,0,1,1.16,3.1v.48H60.14v-.31a1.89,1.89,0,0,0-.42-1.24,1.66,1.66,0,0,0-1.15-.42,1.58,1.58,0,0,0-1.14.48,1.88,1.88,0,0,0-.44,1.43V425h2.32v2.71ZM63.45,425v9.26H60.14V425Z"/><path d="M66.12,431.21a5,5,0,0,0,1.33.69,4.41,4.41,0,0,0,1.28.22,1.45,1.45,0,0,0,.85-.24.56.56,0,0,0,.17-.44.5.5,0,0,0-.17-.41,2,2,0,0,0-.87-.33l-.87-.21a3,3,0,0,1-1.61-.81,2.2,2.2,0,0,1-.6-1.59,3.31,3.31,0,0,1,.87-2.26,4.63,4.63,0,0,1,3.31-1.12,7.63,7.63,0,0,1,3,.6l-1.12,2.11a4.69,4.69,0,0,0-1.74-.45,1.4,1.4,0,0,0-.76.18.5.5,0,0,0-.29.46.54.54,0,0,0,.39.52c.31.12.58.12,1.1.27l.6.16a4,4,0,0,1,1.36.73,2.59,2.59,0,0,1,.71,1.84,3.12,3.12,0,0,1-.93,2.3,4.85,4.85,0,0,1-3.42,1.16,6.88,6.88,0,0,1-3.73-1.08Zm1.62,4.1,3.1.33-2.11,3.81-2.07-.24Z"/><path d="M76.37,419.31a1.86,1.86,0,1,1-1.86,1.86A1.85,1.85,0,0,1,76.37,419.31ZM78,425v9.26H74.71V425Z"/><path d="M90.1,430.26H83.21a2.29,2.29,0,0,0,.58,1.55,1.83,1.83,0,0,0,1.36.46,2.62,2.62,0,0,0,1.08-.25,1.52,1.52,0,0,0,.58-.62H90a4.21,4.21,0,0,1-1.12,1.9,5,5,0,0,1-3.77,1.29,5.25,5.25,0,0,1-3.83-1.41,4.85,4.85,0,0,1-1.37-3.5,4.92,4.92,0,0,1,1.39-3.58,5.19,5.19,0,0,1,3.79-1.35A5.05,5.05,0,0,1,88.63,426a5.18,5.18,0,0,1,1.47,3.89Zm-3-1.9a2.27,2.27,0,0,0-.54-1,2,2,0,0,0-1.37-.5,1.77,1.77,0,0,0-1.34.5,1.87,1.87,0,0,0-.5,1Z"/><path d="M92,425h3.32v1.51a3,3,0,0,1,1.3-1.28,3.62,3.62,0,0,1,1.72-.37l.66,0V428a2.92,2.92,0,0,0-1.42-.33,2.22,2.22,0,0,0-1.52.5,2.8,2.8,0,0,0-.74,2.11v4H92Z"/><path d="M108.61,439H105.3V425h3.31v1a3.45,3.45,0,0,1,2.84-1.33,4.59,4.59,0,0,1,3.29,1.35,5.24,5.24,0,0,1-.08,7.24,4.45,4.45,0,0,1-3.17,1.29,4,4,0,0,1-2.88-1.2Zm.54-10.87a2.26,2.26,0,0,0-.64,1.53,2.23,2.23,0,0,0,.64,1.47,2.12,2.12,0,0,0,1.49.62,2,2,0,0,0,1.47-.62,2.19,2.19,0,0,0,.64-1.47,2.26,2.26,0,0,0-.64-1.53,2,2,0,0,0-1.47-.62A2.08,2.08,0,0,0,109.15,428.15Z"/><path d="M127.87,430.26H121a2.34,2.34,0,0,0,.58,1.55,1.85,1.85,0,0,0,1.37.46A2.62,2.62,0,0,0,124,432a1.59,1.59,0,0,0,.58-.62h3.16a4.08,4.08,0,0,1-1.11,1.9,5,5,0,0,1-3.77,1.29,5.23,5.23,0,0,1-3.83-1.41,4.85,4.85,0,0,1-1.37-3.5,4.92,4.92,0,0,1,1.39-3.58,5.17,5.17,0,0,1,3.79-1.35A5.07,5.07,0,0,1,126.4,426a5.18,5.18,0,0,1,1.47,3.89Zm-3.05-1.9a2.25,2.25,0,0,0-.53-1,2,2,0,0,0-1.37-.5,1.79,1.79,0,0,0-1.35.5,1.86,1.86,0,0,0-.49,1Z"/><path d="M129.77,425h3.32v1.16a3.49,3.49,0,0,1,2.94-1.37,3.73,3.73,0,0,1,2.73,1,3.18,3.18,0,0,1,.87,2.59v5.88h-3.31V429.6a2.62,2.62,0,0,0-.42-1.8,1.35,1.35,0,0,0-1.05-.4,1.83,1.83,0,0,0-1.23.44,2.13,2.13,0,0,0-.53,1.47v5h-3.32Z"/><path d="M145.55,427.73v6.55h-3.31v-6.55h-1.06V425h1.06v-3h3.31v3h1.88v2.71Z"/><path d="M148.68,425H152v1.51a3,3,0,0,1,1.3-1.28,3.62,3.62,0,0,1,1.72-.37l.66,0V428a2.92,2.92,0,0,0-1.42-.33,2.22,2.22,0,0,0-1.52.5,2.8,2.8,0,0,0-.74,2.11v4h-3.31Z"/><path d="M160.46,425v5.18a1.75,1.75,0,0,0,.5,1.34,1.7,1.7,0,0,0,1.15.36,1.55,1.55,0,0,0,1.18-.4,1.69,1.69,0,0,0,.48-1.3V425h3.31v5.78a3.16,3.16,0,0,1-.89,2.48,5.28,5.28,0,0,1-4,1.31,5.54,5.54,0,0,1-4.19-1.33,3.33,3.33,0,0,1-.87-2.46V425Z"/><path d="M178.08,429.7v4.58H174.5V420.47h5.71a4.74,4.74,0,0,1,3.5,1.24,4.25,4.25,0,0,1,1.28,3.35,4.48,4.48,0,0,1-1.22,3.44,4.57,4.57,0,0,1-3.43,1.2Zm0-2.9h1.2a2.34,2.34,0,0,0,1.51-.43,1.57,1.57,0,0,0,.46-1.27,1.65,1.65,0,0,0-.42-1.24,2.1,2.1,0,0,0-1.53-.49h-1.22Z"/><path d="M186.59,425h3.31v1.51a3,3,0,0,1,1.31-1.28,3.55,3.55,0,0,1,1.71-.37l.67,0V428a3,3,0,0,0-1.43-.33,2.18,2.18,0,0,0-1.51.5,2.78,2.78,0,0,0-.75,2.11v4h-3.31Z"/><path d="M204,433.06a6.34,6.34,0,0,1-8.26,0,4.78,4.78,0,0,1,0-6.82,5.79,5.79,0,0,1,4.12-1.53,5.87,5.87,0,0,1,4.14,1.53,4.78,4.78,0,0,1,0,6.82Zm-5.61-4.93a2.1,2.1,0,0,0-.64,1.51,2.15,2.15,0,0,0,2.13,2.09,2.11,2.11,0,0,0,1.47-.62,2,2,0,0,0,.64-1.47,2.25,2.25,0,0,0-.64-1.51,2.13,2.13,0,0,0-3,0Z"/><path d="M214.29,434.07a5,5,0,0,1-2.3.52,5.11,5.11,0,0,1-3.64-1.41,4.84,4.84,0,0,1-1.43-3.46,5.05,5.05,0,0,1,1.49-3.58,5.35,5.35,0,0,1,3.73-1.41,4.67,4.67,0,0,1,2.15.52V428a2.93,2.93,0,0,0-1.72-.6,2.14,2.14,0,0,0-1.61.65,2.21,2.21,0,0,0-.64,1.59,2.32,2.32,0,0,0,.58,1.55,2.25,2.25,0,0,0,1.69.71,2.54,2.54,0,0,0,1.7-.62Z"/><path d="M226,430.26H219.1a2.29,2.29,0,0,0,.58,1.55,1.83,1.83,0,0,0,1.36.46,2.57,2.57,0,0,0,1.08-.25,1.52,1.52,0,0,0,.58-.62h3.17a4.21,4.21,0,0,1-1.12,1.9,5,5,0,0,1-3.77,1.29,5.25,5.25,0,0,1-3.83-1.41,4.85,4.85,0,0,1-1.37-3.5,4.92,4.92,0,0,1,1.39-3.58,5.21,5.21,0,0,1,3.79-1.35,5.05,5.05,0,0,1,3.56,1.27,5.15,5.15,0,0,1,1.47,3.89Zm-3-1.9a2.17,2.17,0,0,0-.54-1,2,2,0,0,0-1.37-.5,1.77,1.77,0,0,0-1.34.5,1.87,1.87,0,0,0-.5,1Z"/><path d="M228.5,431.21a4.9,4.9,0,0,0,1.32.69,4.48,4.48,0,0,0,1.29.22,1.47,1.47,0,0,0,.85-.24.55.55,0,0,0,.16-.44A.49.49,0,0,0,232,431a2,2,0,0,0-.88-.33l-.86-.21a3,3,0,0,1-1.62-.81,2.24,2.24,0,0,1-.6-1.59,3.31,3.31,0,0,1,.87-2.26,4.65,4.65,0,0,1,3.31-1.12,7.54,7.54,0,0,1,3,.6L234,427.42a4.75,4.75,0,0,0-1.74-.45,1.46,1.46,0,0,0-.77.18.5.5,0,0,0-.29.46.55.55,0,0,0,.39.52c.31.12.58.12,1.1.27l.6.16a4,4,0,0,1,1.37.73,2.63,2.63,0,0,1,.7,1.84,3.09,3.09,0,0,1-.93,2.3,4.85,4.85,0,0,1-3.42,1.16,6.86,6.86,0,0,1-3.72-1.08Z"/><path d="M245.62,423.51h-2v-3h5.55v13.81h-3.58Z"/><line x1="33" y1="458.53" x2="269.18" y2="458.53" style="fill:none;stroke:#3a5c84;stroke-miterlimit:10;stroke-width:4.52941191196442px"/><line x1="77.97" y1="461.03" x2="77.97" y2="732.15" style="fill:none;stroke:#3a5c84;stroke-miterlimit:10;stroke-width:4.52941191196442px"/><path d="M52,709.17a1.23,1.23,0,0,1,.94.4,1.22,1.22,0,0,1,.4.94A1.37,1.37,0,0,1,52,711.85a1.33,1.33,0,0,1-1.32-1.34,1.24,1.24,0,0,1,.38-.94A1.26,1.26,0,0,1,52,709.17Z"/><path d="M57.69,709.17A1.37,1.37,0,0,1,59,710.51a1.23,1.23,0,0,1-.4.94,1.22,1.22,0,0,1-.94.4,1.26,1.26,0,0,1-.94-.4,1.29,1.29,0,0,1-.38-.94,1.33,1.33,0,0,1,1.32-1.34Z"/><path d="M63.43,709.17a1.37,1.37,0,0,1,1.35,1.34,1.27,1.27,0,0,1-.4.94,1.25,1.25,0,0,1-.95.4,1.34,1.34,0,0,1,0-2.68Z"/><path d="M55.66,483.05a1.75,1.75,0,0,0,.46,1.12,1.53,1.53,0,0,0,1.14.44,1.47,1.47,0,0,0,1.14-.49,1.28,1.28,0,0,0,.34-.92,1.31,1.31,0,0,0-.44-1,1.77,1.77,0,0,0-1.07-.31,1.5,1.5,0,0,0-.49.06v-2a1.4,1.4,0,0,0,1.19-.28,1.06,1.06,0,0,0,.37-.79,1.23,1.23,0,0,0-.3-.81,1.2,1.2,0,0,0-.82-.3,1.13,1.13,0,0,0-.81.28,1.44,1.44,0,0,0-.39,1H53.27a4,4,0,0,1,1.1-2.58,3.87,3.87,0,0,1,3-1.09,3.91,3.91,0,0,1,2.79,1,3.08,3.08,0,0,1,.91,2.17,2.72,2.72,0,0,1-.34,1.38,1.88,1.88,0,0,1-.86.86,2.69,2.69,0,0,1,1.33,1,2.8,2.8,0,0,1,.47,1.64,3.38,3.38,0,0,1-1,2.46,5.16,5.16,0,0,1-6.56,0,4.5,4.5,0,0,1-1.4-2.92Z"/><path d="M60.54,529.27H61.9v2.24H60.54v2.12H57.85v-2.12H52.41v-1.87l4.33-7.23h3.8Zm-2.69,0V524.7l-2.64,4.57Z"/><path d="M60.53,571.51H56.65l-.21,1.24a7.32,7.32,0,0,1,.91-.08,4,4,0,0,1,3,1.11,3.62,3.62,0,0,1,1,2.66,3.94,3.94,0,0,1-1.08,2.81,4.69,4.69,0,0,1-3.5,1.26,6.81,6.81,0,0,1-3.78-1l.43-2.73a5.4,5.4,0,0,0,1.35.91,4.13,4.13,0,0,0,1.68.39,2,2,0,0,0,1.47-.56,1.68,1.68,0,0,0,.43-1.14,1.59,1.59,0,0,0-.53-1.21,3.24,3.24,0,0,0-2-.56,4.54,4.54,0,0,0-2.07.47l1-6h5.84Z"/><path d="M59.92,615.78l-3.2,3.82a4,4,0,0,1,1.57-.35,3.65,3.65,0,0,1,2.54,1.08A3.6,3.6,0,0,1,61.89,623a4,4,0,0,1-1.16,2.93,5.58,5.58,0,0,1-7.27,0,3.69,3.69,0,0,1-1-2.63,7.2,7.2,0,0,1,1.67-4.19l2.5-3.3Zm-1.53,8.65a1.8,1.8,0,0,0,.52-1.28,1.6,1.6,0,0,0-.52-1.17,1.85,1.85,0,0,0-1.3-.53,2,2,0,0,0-1.26.49,1.68,1.68,0,0,0-.56,1.16,1.88,1.88,0,0,0,.49,1.28,1.86,1.86,0,0,0,2.63,0Z"/><path d="M57.45,665.13H52.78v-2.47H62l-6.43,11.22H52.34Z"/><rect x="240.26" y="243.25" width="202.05" height="54.1" rx="12" ry="12" style="fill:none;stroke:#eb6a38;stroke-miterlimit:10;stroke-width:7px"/><path d="M311.93,267.78h4.48v2a4,4,0,0,1,1.76-1.73,4.86,4.86,0,0,1,2.33-.51l.89.06v4.23a4,4,0,0,0-1.93-.45,2.91,2.91,0,0,0-2,.67,3.8,3.8,0,0,0-1,2.86v5.35h-4.48Z"/><path d="M336.65,274.86h-9.32a3.15,3.15,0,0,0,.78,2.1,2.52,2.52,0,0,0,1.85.62,3.55,3.55,0,0,0,1.46-.34,1.94,1.94,0,0,0,.78-.84h4.28A5.54,5.54,0,0,1,335,279a6.77,6.77,0,0,1-5.09,1.74,7.11,7.11,0,0,1-5.18-1.91,6.55,6.55,0,0,1-1.85-4.73,6.63,6.63,0,0,1,1.88-4.84,7,7,0,0,1,5.12-1.82,6.86,6.86,0,0,1,4.82,1.7,7,7,0,0,1,2,5.27Zm-4.11-2.57a3,3,0,0,0-.73-1.35,2.65,2.65,0,0,0-1.85-.67,2.44,2.44,0,0,0-1.82.67,2.54,2.54,0,0,0-.67,1.35Z"/><path d="M348.92,267.78h4.48V280.3h-4.48v-1.38a4.69,4.69,0,0,1-3.9,1.8,6,6,0,0,1-4.5-2,6.3,6.3,0,0,1-1.79-4.59,6.93,6.93,0,0,1,1.93-5,6.43,6.43,0,0,1,4.5-1.76,5,5,0,0,1,3.76,1.62Zm-4.71,4.2a3,3,0,0,0-.89,2,2.85,2.85,0,0,0,.87,2.05,3.1,3.1,0,0,0,2,.84,2.88,2.88,0,0,0,2-.87,2.73,2.73,0,0,0,.84-2,2.77,2.77,0,0,0-.87-2,2.89,2.89,0,0,0-2-.81A2.85,2.85,0,0,0,344.21,272Z"/><path d="M370.65,280.3h-4.49v-1.38a4.58,4.58,0,0,1-3.77,1.8A6,6,0,0,1,358,279a6.91,6.91,0,0,1-2-5,6.82,6.82,0,0,1,2-5,6.37,6.37,0,0,1,4.42-1.68,5,5,0,0,1,3.72,1.62v-9.1h4.49Zm-5.3-4.15a3,3,0,0,0,1-2.13,3.29,3.29,0,0,0-.84-2,2.89,2.89,0,0,0-4,0,3.09,3.09,0,0,0-.87,2.13,2.88,2.88,0,0,0,.87,2,2.82,2.82,0,0,0,2,.84A3,3,0,0,0,365.35,276.15Z"/><rect x="497.95" y="243.25" width="202.05" height="54.1" rx="12" ry="12" style="fill:none;stroke:#eb6a38;stroke-miterlimit:10;stroke-width:7px"/><path d="M569.91,267.7l3,6.6,3.16-6.6h2.74l3.17,6.8,3.13-6.8h5l-6.55,12.51h-3l-3.13-6.89-3,6.89h-3L564.9,267.7Z"/><path d="M591.61,267.7h4.48v2a4.08,4.08,0,0,1,1.76-1.74,5,5,0,0,1,2.33-.5l.89.06v4.22a4,4,0,0,0-1.93-.44,2.91,2.91,0,0,0-2,.67,3.74,3.74,0,0,0-1,2.85v5.35h-4.48Z"/><path d="M605.3,260a2.52,2.52,0,1,1-2.52,2.52A2.51,2.51,0,0,1,605.3,260Zm2.24,7.73v12.51h-4.48V267.7Z"/><path d="M615.55,271.36v8.85h-4.48v-8.85h-1.43V267.7h1.43v-4.12h4.48v4.12h2.55v3.66Z"/><path d="M633.05,274.78h-9.33a3.18,3.18,0,0,0,.79,2.1,2.52,2.52,0,0,0,1.85.62,3.51,3.51,0,0,0,1.45-.34,2.15,2.15,0,0,0,.79-.84h4.28a5.72,5.72,0,0,1-1.51,2.58,6.84,6.84,0,0,1-5.1,1.73,7.1,7.1,0,0,1-5.18-1.9,6.55,6.55,0,0,1-1.85-4.73,6.72,6.72,0,0,1,1.88-4.85,7,7,0,0,1,5.12-1.82,6.86,6.86,0,0,1,4.82,1.71,7,7,0,0,1,2,5.26Zm-4.12-2.58a3,3,0,0,0-.73-1.34,2.58,2.58,0,0,0-1.84-.67,2.38,2.38,0,0,0-1.82.67,2.59,2.59,0,0,0-.68,1.34Z"/><rect x="755.63" y="243.25" width="202.05" height="54.1" rx="12" ry="12" style="fill:none;stroke:#eb6a38;stroke-miterlimit:10;stroke-width:7px"/><path d="M792.45,268h4.16v1.9a3.78,3.78,0,0,1,1.64-1.61,4.51,4.51,0,0,1,2.16-.47l.83.05v3.93a3.6,3.6,0,0,0-1.8-.42,2.73,2.73,0,0,0-1.89.62,3.5,3.5,0,0,0-.94,2.66v5h-4.16Z"/><path d="M815.41,274.54h-8.66a2.93,2.93,0,0,0,.73,1.95,2.33,2.33,0,0,0,1.71.57,3.38,3.38,0,0,0,1.36-.31,2,2,0,0,0,.72-.78h4a5.16,5.16,0,0,1-1.4,2.39,6.33,6.33,0,0,1-4.73,1.61,6.58,6.58,0,0,1-4.81-1.77,6,6,0,0,1-1.72-4.39,6.23,6.23,0,0,1,1.74-4.5,6.57,6.57,0,0,1,4.76-1.69,6.37,6.37,0,0,1,4.47,1.59,6.51,6.51,0,0,1,1.85,4.89Zm-3.82-2.39a2.83,2.83,0,0,0-.68-1.25,2.42,2.42,0,0,0-1.72-.63,2.26,2.26,0,0,0-1.69.63,2.43,2.43,0,0,0-.62,1.25Z"/><path d="M826.8,268H831v11.62H826.8v-1.27a4.37,4.37,0,0,1-3.62,1.66,5.54,5.54,0,0,1-4.18-1.84,5.88,5.88,0,0,1-1.67-4.27,6.4,6.4,0,0,1,1.8-4.65,6,6,0,0,1,4.18-1.64,4.62,4.62,0,0,1,3.49,1.51Zm-4.37,3.9a2.73,2.73,0,0,0-.83,1.9,2.7,2.7,0,0,0,.8,1.9,3,3,0,0,0,1.87.78,2.68,2.68,0,0,0,1.88-.81,2.54,2.54,0,0,0,.78-1.87,2.57,2.57,0,0,0-.81-1.9,2.64,2.64,0,0,0-3.69,0Z"/><path d="M847,279.58h-4.16v-1.27A4.25,4.25,0,0,1,839.3,280a5.55,5.55,0,0,1-4.08-1.61,6.4,6.4,0,0,1-1.87-4.63,6.32,6.32,0,0,1,1.9-4.6,5.93,5.93,0,0,1,4.1-1.56,4.58,4.58,0,0,1,3.46,1.51v-8.45H847Zm-4.91-3.85a2.79,2.79,0,0,0,.88-2,3,3,0,0,0-.78-1.87,2.67,2.67,0,0,0-3.74,0,2.86,2.86,0,0,0-.81,2,2.64,2.64,0,0,0,.81,1.82,2.59,2.59,0,0,0,1.84.78A2.85,2.85,0,0,0,842.06,275.73Z"/><path d="M849.7,270.87h6.58v3.46H849.7Z"/><path d="M862.23,268,865,274.1l2.94-6.14h2.55l2.93,6.32,2.92-6.32H881l-6.08,11.62h-2.81l-2.91-6.39-2.78,6.39h-2.81l-6-11.62Z"/><path d="M882.38,268h4.16v1.9a3.78,3.78,0,0,1,1.64-1.61,4.54,4.54,0,0,1,2.16-.47l.83.05v3.93a3.59,3.59,0,0,0-1.79-.42,2.75,2.75,0,0,0-1.9.62,3.54,3.54,0,0,0-.94,2.66v5h-4.16Z"/><path d="M895.1,260.78a2.34,2.34,0,1,1-2.34,2.34A2.33,2.33,0,0,1,895.1,260.78Zm2.08,7.18v11.62H893V268Z"/><path d="M904.61,271.37v8.21h-4.16v-8.21h-1.32V268h1.32v-3.82h4.16V268H907v3.41Z"/><path d="M920.86,274.54H912.2a3,3,0,0,0,.73,1.95,2.34,2.34,0,0,0,1.72.57,3.38,3.38,0,0,0,1.35-.31,2,2,0,0,0,.73-.78h4a5.29,5.29,0,0,1-1.41,2.39,6.33,6.33,0,0,1-4.73,1.61,6.6,6.6,0,0,1-4.81-1.77,6.08,6.08,0,0,1-1.72-4.39,6.19,6.19,0,0,1,1.75-4.5,6.56,6.56,0,0,1,4.75-1.69,6.38,6.38,0,0,1,4.48,1.59,6.49,6.49,0,0,1,1.84,4.89ZM917,272.15a2.64,2.64,0,0,0-.68-1.25,2.4,2.4,0,0,0-1.71-.63,2.25,2.25,0,0,0-1.69.63,2.36,2.36,0,0,0-.63,1.25Z"/><polygon points="398.44 345.89 398.44 404.66 389.97 404.66 407.97 422.66 425.97 404.66 417.5 404.66 417.5 345.89 398.44 345.89" style="fill:none;stroke:#f7931f;stroke-miterlimit:10;stroke-width:7px"/><polygon points="398.44 543.89 398.44 602.66 389.97 602.66 407.97 620.66 425.97 602.66 417.5 602.66 417.5 543.89 398.44 543.89" style="fill:none;stroke:#3a5c84;stroke-miterlimit:10;stroke-width:7px"/><polygon points="589.44 126.89 589.44 185.66 580.97 185.66 598.97 203.66 616.97 185.66 608.5 185.66 608.5 126.89 589.44 126.89" style="fill:none;stroke:#eb6a38;stroke-miterlimit:10;stroke-width:7px"/><rect x="545.38" y="33.74" width="104.21" height="73.51" rx="12" ry="12" style="fill:none;stroke:#3a5c84;stroke-miterlimit:10;stroke-width:7px"/><path d="M577.55,63.07A3.93,3.93,0,0,1,576.49,66a.27.27,0,0,0,0,.27l1.29,2.7a.21.21,0,0,0,.24.14,3.93,3.93,0,0,1,4.2,3.79.26.26,0,0,0,.16.22l2.82,1h.05a.18.18,0,0,0,.23-.08,4.33,4.33,0,0,1,.58-.55l0,0,.29-.19a1.71,1.71,0,0,1,.23-.13l.11-.06a3.9,3.9,0,0,1,4.39.67.22.22,0,0,0,.27,0l2.7-1.29h0a.24.24,0,0,0,.14-.23,3.94,3.94,0,0,1,1-2.91,3.88,3.88,0,0,1,1.5-1l.08,0,.15,0,.25-.07h0A4.79,4.79,0,0,1,598,68a.23.23,0,0,0,.22-.16l1-2.82a.25.25,0,0,0-.07-.26,3.91,3.91,0,0,1-.3-5.65.23.23,0,0,0,0-.27L598,57h0l-.4-.85-.07-.07h0l0,0-.1,0h0a3.93,3.93,0,0,1-4.2-3.79A.26.26,0,0,0,593,52l-2.82-1a.2.2,0,0,0-.26.07h0a4.08,4.08,0,0,1-.89.77l-.07,0c-.09.06-.18.1-.27.15a3.76,3.76,0,0,1-1.52.39,3.89,3.89,0,0,1-2.88-1.05.23.23,0,0,0-.27,0l-2.7,1.29a.23.23,0,0,0-.13.23,4,4,0,0,1-1,2.91,3.92,3.92,0,0,1-2.79,1.29.22.22,0,0,0-.22.16l-.69,2h0l-.31.89a.25.25,0,0,0,.07.26A4,4,0,0,1,577.55,63.07Zm6.13-4.78,0,0A3.23,3.23,0,0,1,584,58l.19-.16a.47.47,0,0,0,.09-.06,5.81,5.81,0,1,1,5.83,10,4.89,4.89,0,0,1-.48.2h0a5.82,5.82,0,0,1-5.93-9.73Z" style="fill:#3a5c84"/><path d="M591.05,84.21a5,5,0,0,1-1.35,3.7.32.32,0,0,0-.06.35l1.66,3.47a.27.27,0,0,0,.3.18,5,5,0,0,1,3.73,1.28A5,5,0,0,1,597,96.77a.31.31,0,0,0,.2.28l3.62,1.28a.16.16,0,0,0,.07,0,.25.25,0,0,0,.29-.1,5.12,5.12,0,0,1,.76-.71l0,0,.37-.26.3-.16a.61.61,0,0,1,.14-.07,4.94,4.94,0,0,1,1.93-.51,5.1,5.1,0,0,1,3.71,1.36.26.26,0,0,0,.34,0l3.47-1.65h0a.31.31,0,0,0,.18-.29,5,5,0,0,1,3.2-5.06l.11,0,.2-.06.31-.09h0a5.15,5.15,0,0,1,1-.13.33.33,0,0,0,.28-.21l1.28-3.63a.28.28,0,0,0-.09-.33,5,5,0,0,1-.38-7.25.32.32,0,0,0,.06-.35l-1.14-2.38h0l-.52-1.09a.26.26,0,0,0-.09-.09h0l0,0a.17.17,0,0,0-.12,0h0a5,5,0,0,1-5.4-4.87.32.32,0,0,0-.21-.28l-3.62-1.28a.26.26,0,0,0-.34.09h0a4.91,4.91,0,0,1-1.16,1l-.09,0-.33.19a5.07,5.07,0,0,1-5.66-.85.29.29,0,0,0-.34-.05l-3.47,1.65a.31.31,0,0,0-.18.3,5,5,0,0,1-4.86,5.4.27.27,0,0,0-.28.21l-.89,2.51a0,0,0,0,1,0,0l-.4,1.14a.34.34,0,0,0,.09.34A5,5,0,0,1,591.05,84.21Zm7.88-6.14.05,0a3.07,3.07,0,0,1,.34-.29l.25-.21.11-.07a7.47,7.47,0,1,1,7.49,12.84,6.57,6.57,0,0,1-.61.26h0a7.47,7.47,0,0,1-7.61-12.49Z" style="fill:#3a5c84"/><path d="M596.47,50.88a2.65,2.65,0,0,1-.72,2,.15.15,0,0,0,0,.18l.88,1.85a.14.14,0,0,0,.16.09,2.62,2.62,0,0,1,2,.68,2.71,2.71,0,0,1,.89,1.9.15.15,0,0,0,.1.15l1.93.68h0a.15.15,0,0,0,.16-.05,2.4,2.4,0,0,1,.4-.38s0,0,0,0l.19-.14.16-.08a.2.2,0,0,1,.08,0,2.53,2.53,0,0,1,1-.27,2.67,2.67,0,0,1,2,.72.13.13,0,0,0,.18,0l1.84-.88h0a.16.16,0,0,0,.1-.16,2.63,2.63,0,0,1,.68-2,2.66,2.66,0,0,1,1-.7l.06,0,.1,0,.17-.05h0a4.34,4.34,0,0,1,.52-.07.17.17,0,0,0,.15-.11l.68-1.92a.18.18,0,0,0-.05-.18,2.67,2.67,0,0,1-.2-3.85.17.17,0,0,0,0-.18l-.61-1.27h0l-.27-.58,0,0h0l-.06,0h0a2.68,2.68,0,0,1-2.87-2.58.15.15,0,0,0-.11-.15l-1.92-.68a.14.14,0,0,0-.18,0h0a2.76,2.76,0,0,1-.61.52l0,0-.18.09a2.46,2.46,0,0,1-1,.27,2.65,2.65,0,0,1-2-.72.17.17,0,0,0-.18,0l-1.85.88a.16.16,0,0,0-.09.16,2.67,2.67,0,0,1-2.58,2.86c-.05,0-.11,0-.15.11l-.47,1.33h0l-.21.6a.17.17,0,0,0,0,.18A2.7,2.7,0,0,1,596.47,50.88Zm4.18-3.25,0,0,.18-.15a.69.69,0,0,1,.13-.11l.06,0a4,4,0,1,1,4,6.82,2.26,2.26,0,0,1-.33.13h0a4,4,0,0,1-4-6.63Z" style="fill:#3a5c84"/><path d="M675.78,74.59v7.07h-5.54V60.32h8.83a7.34,7.34,0,0,1,5.41,1.92,6.62,6.62,0,0,1,2,5.18,6.93,6.93,0,0,1-1.88,5.31,7.14,7.14,0,0,1-5.32,1.86Zm0-4.48h1.85a3.68,3.68,0,0,0,2.34-.67,2.45,2.45,0,0,0,.7-2,2.56,2.56,0,0,0-.64-1.92,3.22,3.22,0,0,0-2.37-.77h-1.88Z"/><path d="M688.93,67.36h5.12v2.33a4.55,4.55,0,0,1,2-2,5.56,5.56,0,0,1,2.66-.58c.13,0,.35,0,1,.07V72a4.47,4.47,0,0,0-2.2-.51,3.32,3.32,0,0,0-2.34.77,4.29,4.29,0,0,0-1.15,3.26v6.11h-5.12Z"/><path d="M715.78,79.77a9.79,9.79,0,0,1-12.77,0,7.12,7.12,0,0,1-2.21-5.28A7,7,0,0,1,703,69.25a8.88,8.88,0,0,1,6.37-2.37,9.06,9.06,0,0,1,6.4,2.37,7.06,7.06,0,0,1,2.2,5.24A7.15,7.15,0,0,1,715.78,79.77Zm-8.68-7.61a3.25,3.25,0,1,0,4.58,4.6,3.14,3.14,0,0,0,1-2.27,3.45,3.45,0,0,0-1-2.33,3.5,3.5,0,0,0-2.27-.93A3.54,3.54,0,0,0,707.1,72.16Z"/><path d="M731.74,81.34a7.59,7.59,0,0,1-3.55.8A7.86,7.86,0,0,1,722.56,80a7.49,7.49,0,0,1-2.21-5.34,7.81,7.81,0,0,1,2.31-5.54,8.23,8.23,0,0,1,5.76-2.17,7.33,7.33,0,0,1,3.32.8V72a4.56,4.56,0,0,0-2.65-.93,3.36,3.36,0,0,0-2.5,1,3.48,3.48,0,0,0-1,2.46,3.66,3.66,0,0,0,.9,2.4A3.44,3.44,0,0,0,729.12,78a3.84,3.84,0,0,0,2.62-1Z"/><path d="M749.82,75.45H739.17a3.65,3.65,0,0,0,.89,2.4,2.87,2.87,0,0,0,2.11.71,4.13,4.13,0,0,0,1.67-.39,2.32,2.32,0,0,0,.89-1h4.9a6.41,6.41,0,0,1-1.73,3c-1,1-2.72,2-5.82,2A8.11,8.11,0,0,1,736.16,80a7.45,7.45,0,0,1-2.11-5.4A7.64,7.64,0,0,1,736.19,69a8.08,8.08,0,0,1,5.86-2.08,7.84,7.84,0,0,1,5.5,2,8,8,0,0,1,2.27,6Zm-4.7-2.94a3.5,3.5,0,0,0-.83-1.54,3,3,0,0,0-2.12-.76,2.78,2.78,0,0,0-2.08.76,2.92,2.92,0,0,0-.76,1.54Z"/><path d="M753.69,76.92a7.27,7.27,0,0,0,2,1.06,6.79,6.79,0,0,0,2,.35A2.16,2.16,0,0,0,759,78a.84.84,0,0,0,.25-.67.76.76,0,0,0-.25-.64,3.05,3.05,0,0,0-1.35-.51l-1.34-.33a4.63,4.63,0,0,1-2.5-1.24,3.49,3.49,0,0,1-.92-2.47,5.1,5.1,0,0,1,1.34-3.48,7.23,7.23,0,0,1,5.12-1.73,11.94,11.94,0,0,1,4.58.92l-1.73,3.27a7.11,7.11,0,0,0-2.69-.7,2.17,2.17,0,0,0-1.18.28.77.77,0,0,0-.45.71.84.84,0,0,0,.61.8c.48.19.89.19,1.69.41l.93.26A5.9,5.9,0,0,1,763.26,74a4,4,0,0,1,1.09,2.85,4.8,4.8,0,0,1-1.44,3.55,7.45,7.45,0,0,1-5.28,1.79,10.57,10.57,0,0,1-5.76-1.66Z"/><path d="M412.64,472a15.66,15.66,0,0,0-2.7-2.17,16.07,16.07,0,0,0-20,2.17l-14.61,14.62A16.08,16.08,0,0,0,398,509.31l12.06-12.05a1.21,1.21,0,0,0,.34-.82,1.17,1.17,0,0,0-1.16-1.15h-.46a19.31,19.31,0,0,1-7.35-1.42,1.14,1.14,0,0,0-1.25.25l-8.67,8.68a6.89,6.89,0,0,1-9.75-9.74l14.67-14.66a6.89,6.89,0,0,1,9.73,0,4.71,4.71,0,0,0,6.46,0,4.55,4.55,0,0,0,0-6.45Z" style="fill:#f7931f"/><path d="M434.79,449.8a16.08,16.08,0,0,0-22.74,0l-12,12a1.15,1.15,0,0,0,.83,2h.43a19.27,19.27,0,0,1,7.34,1.43,1.14,1.14,0,0,0,1.25-.25l8.64-8.63a6.89,6.89,0,0,1,9.75,9.74l-10.77,10.76-.09.11-3.77,3.74a6.87,6.87,0,0,1-9.73,0,4.71,4.71,0,0,0-6.46,0,4.59,4.59,0,0,0,0,6.48,16,16,0,0,0,4.6,3.21c.24.12.48.21.72.31s.49.19.73.28l.74.24.68.18c.46.12.92.21,1.39.29a16,16,0,0,0,1.71.16h.87l.69-.08c.25,0,.52-.07.81-.07h.39l.8-.11.36-.07.67-.14h.13a16.08,16.08,0,0,0,7.45-4.23l14.62-14.61A16.1,16.1,0,0,0,434.79,449.8Z" style="fill:#f7931f"/><line x1="382.26" y1="728.89" x2="434.14" y2="728.89" style="fill:none;stroke:#3a5c84;stroke-miterlimit:10;stroke-width:7px"/><line x1="382.26" y1="715.46" x2="434.14" y2="715.46" style="fill:none;stroke:#3a5c84;stroke-miterlimit:10;stroke-width:7px"/><line x1="382.26" y1="702.04" x2="434.14" y2="702.04" style="fill:none;stroke:#3a5c84;stroke-miterlimit:10;stroke-width:7px"/><line x1="382.26" y1="688.62" x2="434.14" y2="688.62" style="fill:none;stroke:#3a5c84;stroke-miterlimit:10;stroke-width:7px"/><line x1="382.26" y1="675.19" x2="403.67" y2="675.19" style="fill:none;stroke:#3a5c84;stroke-miterlimit:10;stroke-width:7px"/><path d="M431.43,670.37a7.26,7.26,0,0,1-7.24-7.24V649.55H379.24a7.26,7.26,0,0,0-7.24,7.24v76a7.26,7.26,0,0,0,7.24,7.24h57.92a7.26,7.26,0,0,0,7.24-7.24V670.37Z" style="fill:none;stroke:#3a5c84;stroke-miterlimit:10;stroke-width:7px"/><rect x="211.47" y="218" width="775" height="101" rx="12" ry="12" style="fill:none;stroke:#91c54f;stroke-miterlimit:10;stroke-width:7px"/><path d="M844.32,185.21V191h-4.5V173.61H847a6,6,0,0,1,4.39,1.56,5.38,5.38,0,0,1,1.61,4.21,5.65,5.65,0,0,1-1.53,4.32,5.77,5.77,0,0,1-4.32,1.51Zm0-3.64h1.51a2.89,2.89,0,0,0,1.89-.55,2,2,0,0,0,.58-1.58,2.13,2.13,0,0,0-.52-1.56,2.65,2.65,0,0,0-1.93-.63h-1.53Z"/><path d="M867,185.91h-8.66a2.91,2.91,0,0,0,.73,2,2.33,2.33,0,0,0,1.71.57,3.24,3.24,0,0,0,1.36-.31,2,2,0,0,0,.72-.78h4a5.16,5.16,0,0,1-1.4,2.39,6.34,6.34,0,0,1-4.74,1.61,6.55,6.55,0,0,1-4.8-1.76,6.09,6.09,0,0,1-1.72-4.4,6.23,6.23,0,0,1,1.74-4.5A6.57,6.57,0,0,1,860.7,179a6.37,6.37,0,0,1,4.47,1.59,6.51,6.51,0,0,1,1.85,4.89Zm-3.82-2.39a2.88,2.88,0,0,0-.68-1.25,2.41,2.41,0,0,0-1.72-.62,2.24,2.24,0,0,0-1.69.62,2.43,2.43,0,0,0-.62,1.25Z"/><path d="M869.41,179.33h4.16v1.9a3.68,3.68,0,0,1,1.64-1.61,4.49,4.49,0,0,1,2.16-.47c.1,0,.28,0,.83,0v3.93a3.6,3.6,0,0,0-1.8-.42,2.73,2.73,0,0,0-1.9.63,3.5,3.5,0,0,0-.93,2.65v5h-4.16Z"/><path d="M880,179.33h4.16v1.41a4.47,4.47,0,0,1,3.49-1.62,4.8,4.8,0,0,1,2.23.52,3.72,3.72,0,0,1,1.62,1.67,4,4,0,0,1,1.58-1.61,4.71,4.71,0,0,1,2.42-.58,4.59,4.59,0,0,1,3.22,1.07,4.28,4.28,0,0,1,1.1,3.2V191H895.7v-5.74a3.5,3.5,0,0,0-.6-2.5,1.53,1.53,0,0,0-1.1-.39,1.69,1.69,0,0,0-1.22.47A3,3,0,0,0,892,185V191h-4.16v-5.74a3.72,3.72,0,0,0-.55-2.5,1.61,1.61,0,0,0-1.25-.47,1.46,1.46,0,0,0-1.14.42,3.43,3.43,0,0,0-.73,2.55V191H880Z"/><path d="M904.82,172.16a2.34,2.34,0,1,1-2.34,2.34A2.33,2.33,0,0,1,904.82,172.16Zm2.08,7.17V191h-4.16V179.33Z"/><path d="M910.49,187.11a5.93,5.93,0,0,0,1.66.85,5.18,5.18,0,0,0,1.61.29,1.79,1.79,0,0,0,1.07-.31.68.68,0,0,0,.21-.55.63.63,0,0,0-.21-.52,2.61,2.61,0,0,0-1.09-.41l-1.09-.26a3.69,3.69,0,0,1-2-1,2.83,2.83,0,0,1-.76-2,4.13,4.13,0,0,1,1.1-2.83,5.86,5.86,0,0,1,4.16-1.41,9.45,9.45,0,0,1,3.71.76l-1.4,2.65a5.75,5.75,0,0,0-2.18-.57,1.74,1.74,0,0,0-1,.23.62.62,0,0,0-.36.57.66.66,0,0,0,.49.65c.39.16.73.16,1.38.34l.76.21a4.82,4.82,0,0,1,1.71.91,3.28,3.28,0,0,1,.89,2.31,3.9,3.9,0,0,1-1.17,2.89,6.06,6.06,0,0,1-4.29,1.45A8.58,8.58,0,0,1,909,190Z"/><path d="M923.36,172.16A2.34,2.34,0,1,1,921,174.5,2.33,2.33,0,0,1,923.36,172.16Zm2.08,7.17V191h-4.16V179.33Z"/><path d="M932.43,179.33v6.5a2.21,2.21,0,0,0,.63,1.69,2.1,2.1,0,0,0,1.45.44,1.94,1.94,0,0,0,1.48-.49,2.16,2.16,0,0,0,.6-1.64v-6.5h4.16v7.26a4,4,0,0,1-1.12,3.12,6.63,6.63,0,0,1-5,1.63c-1.75,0-3.88-.18-5.26-1.66a4.2,4.2,0,0,1-1.09-3.09v-7.26Z"/><path d="M943.61,179.33h4.16v1.46a4.39,4.39,0,0,1,3.69-1.72,4.73,4.73,0,0,1,3.44,1.25,4,4,0,0,1,1.09,3.25V191h-4.16v-5.87a3.36,3.36,0,0,0-.52-2.26,1.74,1.74,0,0,0-1.33-.5,2.28,2.28,0,0,0-1.53.55,2.64,2.64,0,0,0-.68,1.84V191h-4.16Z"/><path d="M960.9,172.16a2.34,2.34,0,1,1-2.34,2.34A2.33,2.33,0,0,1,960.9,172.16Zm2.08,7.17V191h-4.16V179.33Z"/><path d="M483.82,466V448.61h5.9a9.7,9.7,0,0,1,6.89,2.39,8.47,8.47,0,0,1,2.42,6.32,8,8,0,0,1-2.26,6,9.41,9.41,0,0,1-6.66,2.62Zm4.5-3.82h.91a5.14,5.14,0,0,0,3.79-1.25,4.67,4.67,0,0,0,1.33-3.56,5.15,5.15,0,0,0-1.35-3.79,5.06,5.06,0,0,0-3.59-1.1h-1.09Z"/><path d="M513.82,460.91h-8.65a3,3,0,0,0,.72,1.95,2.34,2.34,0,0,0,1.72.57,3.21,3.21,0,0,0,1.35-.31,2,2,0,0,0,.73-.78h4a5.19,5.19,0,0,1-1.41,2.39,6.31,6.31,0,0,1-4.73,1.61,6.59,6.59,0,0,1-4.81-1.76,6.6,6.6,0,0,1,0-8.9,6.57,6.57,0,0,1,4.76-1.69,6.37,6.37,0,0,1,4.47,1.59,6.49,6.49,0,0,1,1.84,4.89ZM510,458.52a2.77,2.77,0,0,0-.67-1.25,2.41,2.41,0,0,0-1.72-.62,2.24,2.24,0,0,0-1.69.62,2.28,2.28,0,0,0-.62,1.25Z"/><path d="M517,462.11a5.93,5.93,0,0,0,1.66.85,5.19,5.19,0,0,0,1.62.29,1.78,1.78,0,0,0,1.06-.31.68.68,0,0,0,.21-.55.63.63,0,0,0-.21-.52,2.56,2.56,0,0,0-1.09-.41l-1.09-.26a3.72,3.72,0,0,1-2-1,2.82,2.82,0,0,1-.75-2,4.13,4.13,0,0,1,1.09-2.83,5.86,5.86,0,0,1,4.16-1.41,9.55,9.55,0,0,1,3.72.76l-1.41,2.65a5.75,5.75,0,0,0-2.18-.57,1.71,1.71,0,0,0-1,.23.62.62,0,0,0-.37.57.67.67,0,0,0,.5.65c.39.16.72.16,1.37.34l.76.21a4.74,4.74,0,0,1,1.71.91,3.23,3.23,0,0,1,.89,2.31,3.9,3.9,0,0,1-1.17,2.89,6,6,0,0,1-4.29,1.45,8.58,8.58,0,0,1-4.68-1.35Z"/><path d="M536.55,465.69a6.14,6.14,0,0,1-2.89.65,6.47,6.47,0,0,1-4.58-1.76,6.11,6.11,0,0,1-1.79-4.35,6.31,6.31,0,0,1,1.87-4.49,6.71,6.71,0,0,1,4.68-1.77,6,6,0,0,1,2.71.65v3.48a3.73,3.73,0,0,0-2.16-.75,2.76,2.76,0,0,0-2,.8,2.86,2.86,0,0,0-.8,2,3,3,0,0,0,.72,1.95,2.86,2.86,0,0,0,2.14.88,3.16,3.16,0,0,0,2.13-.78Z"/><path d="M538.91,454.33h4.16v1.9a3.78,3.78,0,0,1,1.64-1.61,4.51,4.51,0,0,1,2.16-.47c.1,0,.28,0,.83.05v3.93a3.59,3.59,0,0,0-1.79-.42,2.72,2.72,0,0,0-1.9.63,3.51,3.51,0,0,0-.94,2.65v5h-4.16Z"/><path d="M551.63,447.16a2.34,2.34,0,1,1-2.34,2.34A2.33,2.33,0,0,1,551.63,447.16Zm2.08,7.17V466h-4.16V454.33Z"/><path d="M560.7,471.91h-4.16V454.33h4.16v1.28a4.36,4.36,0,0,1,3.56-1.67,5.81,5.81,0,0,1,4.14,1.69,6.59,6.59,0,0,1-.11,9.1,5.56,5.56,0,0,1-4,1.61,4.94,4.94,0,0,1-3.61-1.5Zm.68-13.65a2.83,2.83,0,0,0-.81,1.92,2.77,2.77,0,0,0,.81,1.85,2.67,2.67,0,0,0,1.87.78,2.5,2.5,0,0,0,1.84-.78,2.73,2.73,0,0,0,.81-1.85,2.78,2.78,0,0,0-.81-1.92,2.46,2.46,0,0,0-1.84-.78A2.63,2.63,0,0,0,561.38,458.26Z"/><path d="M577.16,457.74V466H573v-8.21h-1.33v-3.41H573v-3.82h4.16v3.82h2.36v3.41Z"/><path d="M592.78,464.42a8,8,0,0,1-10.37,0,5.81,5.81,0,0,1-1.79-4.29,5.72,5.72,0,0,1,1.79-4.26,7.23,7.23,0,0,1,5.17-1.93,7.33,7.33,0,0,1,5.2,1.93,5.73,5.73,0,0,1,1.8,4.26A5.79,5.79,0,0,1,592.78,464.42Zm-7-6.19a2.64,2.64,0,1,0,3.72,3.75,2.57,2.57,0,0,0,.8-1.85,2.83,2.83,0,0,0-.8-1.9,2.68,2.68,0,0,0-3.72,0Z"/><path d="M597,454.33h4.16v1.9a3.68,3.68,0,0,1,1.64-1.61,4.51,4.51,0,0,1,2.16-.47c.1,0,.28,0,.83.05v3.93a3.6,3.6,0,0,0-1.8-.42,2.69,2.69,0,0,0-1.89.63,3.47,3.47,0,0,0-.94,2.65v5H597Z"/><path d="M626.82,466h-4.16v-1.27a4.26,4.26,0,0,1-3.51,1.66,5.57,5.57,0,0,1-4.09-1.61,6.4,6.4,0,0,1-1.87-4.63,6.33,6.33,0,0,1,1.9-4.6,6,6,0,0,1,4.11-1.56,4.59,4.59,0,0,1,3.46,1.51V447h4.16Zm-4.92-3.84a2.8,2.8,0,0,0,.89-2,3.07,3.07,0,0,0-.78-1.87,2.53,2.53,0,0,0-1.9-.78,2.57,2.57,0,0,0-1.85.75,2.85,2.85,0,0,0-.8,2,2.65,2.65,0,0,0,.8,1.82,2.59,2.59,0,0,0,1.85.78A2.81,2.81,0,0,0,621.9,462.11Z"/><path d="M642,460.91h-8.66a3,3,0,0,0,.73,1.95,2.34,2.34,0,0,0,1.72.57,3.21,3.21,0,0,0,1.35-.31,2.05,2.05,0,0,0,.73-.78h4a5.16,5.16,0,0,1-1.4,2.39,6.33,6.33,0,0,1-4.73,1.61,6.57,6.57,0,0,1-4.81-1.76,6.09,6.09,0,0,1-1.72-4.4,6.23,6.23,0,0,1,1.74-4.5,6.59,6.59,0,0,1,4.76-1.69,6.36,6.36,0,0,1,4.47,1.59,6.51,6.51,0,0,1,1.85,4.89Zm-3.82-2.39a2.88,2.88,0,0,0-.68-1.25,2.39,2.39,0,0,0-1.71-.62,2.23,2.23,0,0,0-1.69.62,2.36,2.36,0,0,0-.63,1.25Z"/><path d="M487.9,488.94v8.21h-4.16v-8.21h-1.45v-3.41h1.45V484.1a5.87,5.87,0,0,1,1.59-4.55,6.59,6.59,0,0,1,4.57-1.64,7,7,0,0,1,4.66,1.56,5.29,5.29,0,0,1,1.45,3.9v.6h-4.16v-.39a2.41,2.41,0,0,0-.52-1.56,2.09,2.09,0,0,0-1.45-.52,2,2,0,0,0-1.43.6,2.36,2.36,0,0,0-.55,1.79v1.64h2.91v3.41Zm8.11-3.41v11.62h-4.16V485.53Z"/><path d="M499.37,493.3a5.71,5.71,0,0,0,1.66.86,5.18,5.18,0,0,0,1.61.29,1.79,1.79,0,0,0,1.07-.31.68.68,0,0,0,.21-.55.63.63,0,0,0-.21-.52,2.61,2.61,0,0,0-1.09-.41l-1.09-.26a3.69,3.69,0,0,1-2-1,2.83,2.83,0,0,1-.76-2,4.18,4.18,0,0,1,1.1-2.84,5.85,5.85,0,0,1,4.16-1.4,9.67,9.67,0,0,1,3.71.75l-1.4,2.66a5.75,5.75,0,0,0-2.18-.58,1.74,1.74,0,0,0-1,.24.62.62,0,0,0-.36.57.67.67,0,0,0,.49.65c.39.16.73.16,1.38.34l.76.21a4.82,4.82,0,0,1,1.71.91,3.28,3.28,0,0,1,.89,2.31,3.9,3.9,0,0,1-1.17,2.89,6.06,6.06,0,0,1-4.29,1.45,8.58,8.58,0,0,1-4.68-1.35Zm2,5.15,3.9.42-2.66,4.78-2.6-.31Z"/><path d="M512.24,478.35a2.35,2.35,0,1,1-2.34,2.34A2.33,2.33,0,0,1,512.24,478.35Zm2.08,7.18v11.62h-4.16V485.53Z"/><path d="M529.48,492.11h-8.66a2.91,2.91,0,0,0,.73,1.95,2.33,2.33,0,0,0,1.71.57,3.18,3.18,0,0,0,1.35-.31,2,2,0,0,0,.73-.78h4a5.25,5.25,0,0,1-1.4,2.39,6.34,6.34,0,0,1-4.74,1.61,6.59,6.59,0,0,1-4.81-1.76,6.13,6.13,0,0,1-1.71-4.4,6.23,6.23,0,0,1,1.74-4.5,6.57,6.57,0,0,1,4.76-1.69,6.37,6.37,0,0,1,4.47,1.59,6.51,6.51,0,0,1,1.85,4.89Zm-3.83-2.39a2.77,2.77,0,0,0-.67-1.25,2.42,2.42,0,0,0-1.72-.63,2.25,2.25,0,0,0-1.69.63,2.43,2.43,0,0,0-.62,1.25Z"/><path d="M531.87,485.53H536v1.9a3.68,3.68,0,0,1,1.64-1.61,4.47,4.47,0,0,1,2.15-.47c.11,0,.29,0,.84,0v3.93a3.6,3.6,0,0,0-1.8-.42,2.73,2.73,0,0,0-1.9.63,3.5,3.5,0,0,0-.93,2.65v5h-4.16Z"/><path d="M548.56,485.53h4.16V487a4.38,4.38,0,0,1,3.69-1.72,4.7,4.7,0,0,1,3.43,1.25,4,4,0,0,1,1.1,3.25v7.38h-4.16v-5.87a3.35,3.35,0,0,0-.53-2.27,1.73,1.73,0,0,0-1.32-.49,2.21,2.21,0,0,0-1.53.55,2.64,2.64,0,0,0-.68,1.84v6.24h-4.16Z"/><path d="M563.77,485.53h4.16v1.9a3.68,3.68,0,0,1,1.64-1.61,4.51,4.51,0,0,1,2.16-.47c.1,0,.28,0,.83,0v3.93a3.6,3.6,0,0,0-1.8-.42,2.69,2.69,0,0,0-1.89.63,3.47,3.47,0,0,0-.94,2.65v5h-4.16Z"/><path d="M574.25,496.84a2.7,2.7,0,0,1,1.89-4.6,2.75,2.75,0,0,1,1.93.83,2.49,2.49,0,0,1,.75,1.87,2.51,2.51,0,0,1-.78,1.9,2.62,2.62,0,0,1-3.79,0Z"/><path d="M591.46,491.22a2.66,2.66,0,0,0,.7,1.75,2.4,2.4,0,0,0,1.77.67,2.33,2.33,0,0,0,1.77-.75,2.15,2.15,0,0,0-.16-3,2.74,2.74,0,0,0-1.66-.49,2.29,2.29,0,0,0-.76.11v-3.05a2.23,2.23,0,0,0,1.85-.44,1.64,1.64,0,0,0,.57-1.22,1.93,1.93,0,0,0-.47-1.25,1.83,1.83,0,0,0-1.27-.47,1.76,1.76,0,0,0-1.25.44,2.2,2.2,0,0,0-.6,1.54h-4.18a6.15,6.15,0,0,1,1.69-4,6.93,6.93,0,0,1,8.89-.15,4.67,4.67,0,0,1,1.4,3.35,4.17,4.17,0,0,1-.52,2.13,3,3,0,0,1-1.32,1.33,4.23,4.23,0,0,1,2.05,1.58,4.42,4.42,0,0,1,.73,2.55,5.22,5.22,0,0,1-1.54,3.8,7.12,7.12,0,0,1-5.17,1.84,7,7,0,0,1-5-1.79,6.92,6.92,0,0,1-2.15-4.53Z"/><path d="M493.75,689.43h-5.43v2.89h4.94v3.82h-4.94V703h-4.5V685.61h9.93Z"/><path d="M497.86,684.16a2.34,2.34,0,1,1-2.34,2.34A2.33,2.33,0,0,1,497.86,684.16Zm2.08,7.17V703h-4.16V691.33Z"/><path d="M503.53,699.11a5.93,5.93,0,0,0,1.66.85,5.18,5.18,0,0,0,1.61.29,1.79,1.79,0,0,0,1.07-.31.68.68,0,0,0,.21-.55.63.63,0,0,0-.21-.52,2.61,2.61,0,0,0-1.09-.41l-1.09-.26a3.69,3.69,0,0,1-2-1,2.83,2.83,0,0,1-.76-2,4.13,4.13,0,0,1,1.1-2.83,5.86,5.86,0,0,1,4.16-1.41,9.45,9.45,0,0,1,3.71.76l-1.4,2.65a5.75,5.75,0,0,0-2.18-.57,1.74,1.74,0,0,0-1,.23.62.62,0,0,0-.36.57.66.66,0,0,0,.49.65c.39.16.73.16,1.38.34l.76.21a4.82,4.82,0,0,1,1.71.91,3.28,3.28,0,0,1,.89,2.31,3.9,3.9,0,0,1-1.17,2.89,6.06,6.06,0,0,1-4.29,1.45,8.58,8.58,0,0,1-4.68-1.35Zm2,5.14,3.9.42-2.66,4.78-2.6-.31Z"/><path d="M516.4,684.16a2.34,2.34,0,1,1-2.34,2.34A2.33,2.33,0,0,1,516.4,684.16Zm2.08,7.17V703h-4.16V691.33Z"/><path d="M533.64,697.91H525a2.91,2.91,0,0,0,.73,2,2.33,2.33,0,0,0,1.71.57,3.18,3.18,0,0,0,1.35-.31,2,2,0,0,0,.73-.78h4a5.25,5.25,0,0,1-1.4,2.39,6.34,6.34,0,0,1-4.74,1.61,6.59,6.59,0,0,1-4.81-1.76,6.13,6.13,0,0,1-1.71-4.4,6.23,6.23,0,0,1,1.74-4.5,6.57,6.57,0,0,1,4.76-1.69,6.37,6.37,0,0,1,4.47,1.59,6.51,6.51,0,0,1,1.85,4.89Zm-3.83-2.39a2.77,2.77,0,0,0-.67-1.25,2.41,2.41,0,0,0-1.72-.62,2.24,2.24,0,0,0-1.69.62,2.43,2.43,0,0,0-.62,1.25Z"/><path d="M536,691.33h4.16v1.9a3.68,3.68,0,0,1,1.64-1.61,4.47,4.47,0,0,1,2.15-.47c.11,0,.29,0,.84.05v3.93a3.6,3.6,0,0,0-1.8-.42,2.73,2.73,0,0,0-1.9.63,3.5,3.5,0,0,0-.93,2.65v5H536Z"/><polygon points="758.44 345.89 758.44 404.66 749.97 404.66 767.97 422.66 785.97 404.66 777.5 404.66 777.5 345.89 758.44 345.89" style="fill:none;stroke:#f7931f;stroke-miterlimit:10;stroke-width:7px"/><polygon points="758.44 543.89 758.44 602.66 749.97 602.66 767.97 620.66 785.97 602.66 777.5 602.66 777.5 543.89 758.44 543.89" style="fill:none;stroke:#3a5c84;stroke-miterlimit:10;stroke-width:7px"/><path d="M772.64,472a15.66,15.66,0,0,0-2.7-2.17,16.07,16.07,0,0,0-20,2.17l-14.61,14.62A16.08,16.08,0,0,0,758,509.31l12.06-12.05a1.21,1.21,0,0,0,.34-.82,1.17,1.17,0,0,0-1.16-1.15h-.46a19.31,19.31,0,0,1-7.35-1.42,1.14,1.14,0,0,0-1.25.25l-8.67,8.68a6.89,6.89,0,0,1-9.75-9.74l14.67-14.66a6.89,6.89,0,0,1,9.73,0,4.71,4.71,0,0,0,6.46,0,4.55,4.55,0,0,0,0-6.45Z" style="fill:#f7931f"/><path d="M794.79,449.8a16.08,16.08,0,0,0-22.74,0l-12,12a1.15,1.15,0,0,0,.83,2h.43a19.27,19.27,0,0,1,7.34,1.43,1.14,1.14,0,0,0,1.25-.25l8.64-8.63a6.89,6.89,0,0,1,9.75,9.74l-10.77,10.76-.09.11-3.77,3.74a6.87,6.87,0,0,1-9.73,0,4.71,4.71,0,0,0-6.46,0,4.59,4.59,0,0,0,0,6.48,16,16,0,0,0,4.6,3.21c.24.12.48.21.72.31s.49.19.73.28l.74.24.68.18c.46.12.92.21,1.39.29a16,16,0,0,0,1.71.16h.87l.69-.08c.25,0,.52-.07.81-.07h.39l.8-.11.36-.07.67-.14h.13a16.08,16.08,0,0,0,7.45-4.23l14.62-14.61A16.1,16.1,0,0,0,794.79,449.8Z" style="fill:#f7931f"/><line x1="742.26" y1="728.89" x2="794.14" y2="728.89" style="fill:none;stroke:#3a5c84;stroke-miterlimit:10;stroke-width:7px"/><line x1="742.26" y1="715.46" x2="794.14" y2="715.46" style="fill:none;stroke:#3a5c84;stroke-miterlimit:10;stroke-width:7px"/><line x1="742.26" y1="702.04" x2="794.14" y2="702.04" style="fill:none;stroke:#3a5c84;stroke-miterlimit:10;stroke-width:7px"/><line x1="742.26" y1="688.62" x2="794.14" y2="688.62" style="fill:none;stroke:#3a5c84;stroke-miterlimit:10;stroke-width:7px"/><line x1="742.26" y1="675.19" x2="763.67" y2="675.19" style="fill:none;stroke:#3a5c84;stroke-miterlimit:10;stroke-width:7px"/><path d="M791.43,670.37a7.26,7.26,0,0,1-7.24-7.24V649.55h-45a7.26,7.26,0,0,0-7.24,7.24v76a7.26,7.26,0,0,0,7.24,7.24h57.92a7.26,7.26,0,0,0,7.24-7.24V670.37Z" style="fill:none;stroke:#3a5c84;stroke-miterlimit:10;stroke-width:7px"/><path d="M843.82,466V448.61h5.9a9.7,9.7,0,0,1,6.89,2.39,8.47,8.47,0,0,1,2.42,6.32,8,8,0,0,1-2.26,6,9.41,9.41,0,0,1-6.66,2.62Zm4.5-3.82h.91a5.14,5.14,0,0,0,3.79-1.25,4.67,4.67,0,0,0,1.33-3.56,5.15,5.15,0,0,0-1.35-3.79,5.06,5.06,0,0,0-3.59-1.1h-1.09Z"/><path d="M873.82,460.91h-8.65a3,3,0,0,0,.72,1.95,2.34,2.34,0,0,0,1.72.57,3.21,3.21,0,0,0,1.35-.31,2,2,0,0,0,.73-.78h4a5.19,5.19,0,0,1-1.41,2.39,6.31,6.31,0,0,1-4.73,1.61,6.59,6.59,0,0,1-4.81-1.76,6.6,6.6,0,0,1,0-8.9,6.57,6.57,0,0,1,4.76-1.69,6.37,6.37,0,0,1,4.47,1.59,6.49,6.49,0,0,1,1.84,4.89ZM870,458.52a2.77,2.77,0,0,0-.67-1.25,2.41,2.41,0,0,0-1.72-.62,2.24,2.24,0,0,0-1.69.62,2.28,2.28,0,0,0-.62,1.25Z"/><path d="M877,462.11a5.93,5.93,0,0,0,1.66.85,5.19,5.19,0,0,0,1.62.29,1.78,1.78,0,0,0,1.06-.31.68.68,0,0,0,.21-.55.63.63,0,0,0-.21-.52,2.56,2.56,0,0,0-1.09-.41l-1.09-.26a3.72,3.72,0,0,1-2-1,2.82,2.82,0,0,1-.75-2,4.13,4.13,0,0,1,1.09-2.83,5.86,5.86,0,0,1,4.16-1.41,9.55,9.55,0,0,1,3.72.76l-1.41,2.65a5.75,5.75,0,0,0-2.18-.57,1.71,1.71,0,0,0-1,.23.62.62,0,0,0-.37.57.67.67,0,0,0,.5.65c.39.16.72.16,1.37.34l.76.21a4.74,4.74,0,0,1,1.71.91,3.23,3.23,0,0,1,.89,2.31,3.9,3.9,0,0,1-1.17,2.89,6,6,0,0,1-4.29,1.45,8.58,8.58,0,0,1-4.68-1.35Z"/><path d="M896.55,465.69a6.14,6.14,0,0,1-2.89.65,6.47,6.47,0,0,1-4.58-1.76,6.11,6.11,0,0,1-1.79-4.35,6.31,6.31,0,0,1,1.87-4.49,6.71,6.71,0,0,1,4.68-1.77,6,6,0,0,1,2.71.65v3.48a3.73,3.73,0,0,0-2.16-.75,2.76,2.76,0,0,0-2,.8,2.86,2.86,0,0,0-.8,2,3,3,0,0,0,.72,1.95,2.86,2.86,0,0,0,2.14.88,3.16,3.16,0,0,0,2.13-.78Z"/><path d="M898.91,454.33h4.16v1.9a3.78,3.78,0,0,1,1.64-1.61,4.51,4.51,0,0,1,2.16-.47c.1,0,.28,0,.83.05v3.93a3.59,3.59,0,0,0-1.79-.42,2.72,2.72,0,0,0-1.9.63,3.51,3.51,0,0,0-.94,2.65v5h-4.16Z"/><path d="M911.63,447.16a2.34,2.34,0,1,1-2.34,2.34A2.33,2.33,0,0,1,911.63,447.16Zm2.08,7.17V466h-4.16V454.33Z"/><path d="M920.7,471.91h-4.16V454.33h4.16v1.28a4.36,4.36,0,0,1,3.56-1.67,5.81,5.81,0,0,1,4.14,1.69,6.59,6.59,0,0,1-.11,9.1,5.56,5.56,0,0,1-4,1.61,4.94,4.94,0,0,1-3.61-1.5Zm.68-13.65a2.83,2.83,0,0,0-.81,1.92,2.77,2.77,0,0,0,.81,1.85,2.67,2.67,0,0,0,1.87.78,2.5,2.5,0,0,0,1.84-.78,2.73,2.73,0,0,0,.81-1.85,2.78,2.78,0,0,0-.81-1.92,2.46,2.46,0,0,0-1.84-.78A2.63,2.63,0,0,0,921.38,458.26Z"/><path d="M937.16,457.74V466H933v-8.21h-1.33v-3.41H933v-3.82h4.16v3.82h2.36v3.41Z"/><path d="M952.78,464.42a8,8,0,0,1-10.37,0,5.81,5.81,0,0,1-1.79-4.29,5.72,5.72,0,0,1,1.79-4.26,7.23,7.23,0,0,1,5.17-1.93,7.33,7.33,0,0,1,5.2,1.93,5.73,5.73,0,0,1,1.8,4.26A5.79,5.79,0,0,1,952.78,464.42Zm-7-6.19a2.64,2.64,0,1,0,3.72,3.75,2.57,2.57,0,0,0,.8-1.85,2.83,2.83,0,0,0-.8-1.9,2.68,2.68,0,0,0-3.72,0Z"/><path d="M957,454.33h4.16v1.9a3.68,3.68,0,0,1,1.64-1.61,4.51,4.51,0,0,1,2.16-.47c.1,0,.28,0,.83.05v3.93a3.6,3.6,0,0,0-1.8-.42,2.69,2.69,0,0,0-1.89.63,3.47,3.47,0,0,0-.94,2.65v5H957Z"/><path d="M986.82,466h-4.16v-1.27a4.26,4.26,0,0,1-3.51,1.66,5.57,5.57,0,0,1-4.09-1.61,6.4,6.4,0,0,1-1.87-4.63,6.33,6.33,0,0,1,1.9-4.6,6,6,0,0,1,4.11-1.56,4.59,4.59,0,0,1,3.46,1.51V447h4.16Zm-4.92-3.84a2.8,2.8,0,0,0,.89-2,3.07,3.07,0,0,0-.78-1.87,2.53,2.53,0,0,0-1.9-.78,2.57,2.57,0,0,0-1.85.75,2.85,2.85,0,0,0-.8,2,2.65,2.65,0,0,0,.8,1.82,2.59,2.59,0,0,0,1.85.78A2.81,2.81,0,0,0,981.9,462.11Z"/><path d="M1002,460.91h-8.66a3,3,0,0,0,.73,1.95,2.34,2.34,0,0,0,1.72.57,3.21,3.21,0,0,0,1.35-.31,2.05,2.05,0,0,0,.73-.78h4a5.16,5.16,0,0,1-1.4,2.39,6.33,6.33,0,0,1-4.73,1.61,6.57,6.57,0,0,1-4.81-1.76,6.09,6.09,0,0,1-1.72-4.4,6.23,6.23,0,0,1,1.74-4.5,6.59,6.59,0,0,1,4.76-1.69,6.36,6.36,0,0,1,4.47,1.59,6.51,6.51,0,0,1,1.85,4.89Zm-3.82-2.39a2.88,2.88,0,0,0-.68-1.25,2.39,2.39,0,0,0-1.71-.62,2.23,2.23,0,0,0-1.69.62,2.36,2.36,0,0,0-.63,1.25Z"/><path d="M847.9,488.94v8.21h-4.16v-8.21h-1.45v-3.41h1.45V484.1a5.87,5.87,0,0,1,1.59-4.55,6.59,6.59,0,0,1,4.57-1.64,7,7,0,0,1,4.66,1.56,5.29,5.29,0,0,1,1.45,3.9v.6h-4.16v-.39a2.41,2.41,0,0,0-.52-1.56,2.09,2.09,0,0,0-1.45-.52,2,2,0,0,0-1.43.6,2.36,2.36,0,0,0-.55,1.79v1.64h2.91v3.41Zm8.11-3.41v11.62h-4.16V485.53Z"/><path d="M859.37,493.3a5.71,5.71,0,0,0,1.66.86,5.18,5.18,0,0,0,1.61.29,1.79,1.79,0,0,0,1.07-.31.68.68,0,0,0,.21-.55.63.63,0,0,0-.21-.52,2.61,2.61,0,0,0-1.09-.41l-1.09-.26a3.69,3.69,0,0,1-2-1,2.83,2.83,0,0,1-.76-2,4.18,4.18,0,0,1,1.1-2.84,5.85,5.85,0,0,1,4.16-1.4,9.67,9.67,0,0,1,3.71.75l-1.4,2.66a5.75,5.75,0,0,0-2.18-.58,1.74,1.74,0,0,0-1,.24.62.62,0,0,0-.36.57.67.67,0,0,0,.49.65c.39.16.73.16,1.38.34l.76.21a4.82,4.82,0,0,1,1.71.91,3.28,3.28,0,0,1,.89,2.31,3.9,3.9,0,0,1-1.17,2.89,6.06,6.06,0,0,1-4.29,1.45,8.58,8.58,0,0,1-4.68-1.35Zm2,5.15,3.9.42-2.66,4.78-2.6-.31Z"/><path d="M872.24,478.35a2.35,2.35,0,1,1-2.34,2.34A2.33,2.33,0,0,1,872.24,478.35Zm2.08,7.18v11.62h-4.16V485.53Z"/><path d="M889.48,492.11h-8.66a2.91,2.91,0,0,0,.73,1.95,2.33,2.33,0,0,0,1.71.57,3.18,3.18,0,0,0,1.35-.31,2,2,0,0,0,.73-.78h4a5.25,5.25,0,0,1-1.4,2.39,6.34,6.34,0,0,1-4.74,1.61,6.59,6.59,0,0,1-4.81-1.76,6.13,6.13,0,0,1-1.71-4.4,6.23,6.23,0,0,1,1.74-4.5,6.57,6.57,0,0,1,4.76-1.69,6.37,6.37,0,0,1,4.47,1.59,6.51,6.51,0,0,1,1.85,4.89Zm-3.83-2.39a2.77,2.77,0,0,0-.67-1.25,2.42,2.42,0,0,0-1.72-.63,2.25,2.25,0,0,0-1.69.63,2.43,2.43,0,0,0-.62,1.25Z"/><path d="M891.87,485.53H896v1.9a3.68,3.68,0,0,1,1.64-1.61,4.47,4.47,0,0,1,2.15-.47c.11,0,.29,0,.84,0v3.93a3.6,3.6,0,0,0-1.8-.42,2.73,2.73,0,0,0-1.9.63,3.5,3.5,0,0,0-.93,2.65v5h-4.16Z"/><path d="M908.56,485.53h4.16V487a4.38,4.38,0,0,1,3.69-1.72,4.7,4.7,0,0,1,3.43,1.25,4,4,0,0,1,1.1,3.25v7.38h-4.16v-5.87a3.35,3.35,0,0,0-.53-2.27,1.73,1.73,0,0,0-1.32-.49,2.21,2.21,0,0,0-1.53.55,2.64,2.64,0,0,0-.68,1.84v6.24h-4.16Z"/><path d="M923.77,485.53h4.16v1.9a3.68,3.68,0,0,1,1.64-1.61,4.51,4.51,0,0,1,2.16-.47c.1,0,.28,0,.83,0v3.93a3.6,3.6,0,0,0-1.8-.42,2.69,2.69,0,0,0-1.89.63,3.47,3.47,0,0,0-.94,2.65v5h-4.16Z"/><path d="M934.25,496.84a2.7,2.7,0,0,1,1.89-4.6,2.75,2.75,0,0,1,1.93.83,2.49,2.49,0,0,1,.75,1.87,2.51,2.51,0,0,1-.78,1.9,2.62,2.62,0,0,1-3.79,0Z"/><path d="M959,490.42h2.11v3.46H959v3.27h-4.16v-3.27h-8.4V491l6.69-11.18H959Zm-4.16,0v-7.07l-4.08,7.07Z"/><path d="M854.75,689.43h-5.43v2.89h4.94v3.82h-4.94V703h-4.5V685.61h9.93Z"/><path d="M858.86,684.16a2.34,2.34,0,1,1-2.34,2.34A2.33,2.33,0,0,1,858.86,684.16Zm2.08,7.17V703h-4.16V691.33Z"/><path d="M864.53,699.11a5.93,5.93,0,0,0,1.66.85,5.18,5.18,0,0,0,1.61.29,1.79,1.79,0,0,0,1.07-.31.68.68,0,0,0,.21-.55.63.63,0,0,0-.21-.52,2.61,2.61,0,0,0-1.09-.41l-1.09-.26a3.69,3.69,0,0,1-2-1,2.83,2.83,0,0,1-.76-2,4.13,4.13,0,0,1,1.1-2.83,5.86,5.86,0,0,1,4.16-1.41,9.45,9.45,0,0,1,3.71.76l-1.4,2.65a5.75,5.75,0,0,0-2.18-.57,1.74,1.74,0,0,0-1,.23.62.62,0,0,0-.36.57.66.66,0,0,0,.49.65c.39.16.73.16,1.38.34l.76.21a4.82,4.82,0,0,1,1.71.91,3.28,3.28,0,0,1,.89,2.31,3.9,3.9,0,0,1-1.17,2.89,6.06,6.06,0,0,1-4.29,1.45,8.58,8.58,0,0,1-4.68-1.35Zm2,5.14,3.9.42-2.66,4.78-2.6-.31Z"/><path d="M877.4,684.16a2.34,2.34,0,1,1-2.34,2.34A2.33,2.33,0,0,1,877.4,684.16Zm2.08,7.17V703h-4.16V691.33Z"/><path d="M894.64,697.91H886a2.91,2.91,0,0,0,.73,2,2.33,2.33,0,0,0,1.71.57,3.18,3.18,0,0,0,1.35-.31,2,2,0,0,0,.73-.78h4a5.25,5.25,0,0,1-1.4,2.39,6.34,6.34,0,0,1-4.74,1.61,6.59,6.59,0,0,1-4.81-1.76,6.13,6.13,0,0,1-1.71-4.4,6.23,6.23,0,0,1,1.74-4.5,6.57,6.57,0,0,1,4.76-1.69,6.37,6.37,0,0,1,4.47,1.59,6.51,6.51,0,0,1,1.85,4.89Zm-3.83-2.39a2.77,2.77,0,0,0-.67-1.25,2.41,2.41,0,0,0-1.72-.62,2.24,2.24,0,0,0-1.69.62,2.43,2.43,0,0,0-.62,1.25Z"/><path d="M897,691.33h4.16v1.9a3.68,3.68,0,0,1,1.64-1.61,4.47,4.47,0,0,1,2.15-.47c.11,0,.29,0,.84.05v3.93a3.6,3.6,0,0,0-1.8-.42,2.73,2.73,0,0,0-1.9.63,3.5,3.5,0,0,0-.93,2.65v5H897Z"/></svg>