<svg id="Layer_1" data-name="Layer 1" xmlns="http://www.w3.org/2000/svg" viewBox="0 0 1038 768"><title>Cap 4 -</title><rect x="41.12" y="372.5" width="236.38" height="353.65" rx="12" ry="12" style="fill:none;stroke:#3a5c84;stroke-miterlimit:10;stroke-width:4.84837018382777px"/><path d="M180.48,473.17a3.92,3.92,0,0,0-.81-.65,4.78,4.78,0,0,0-6,.65l-4.38,4.38a4.82,4.82,0,0,0,6.81,6.81l3.61-3.61a.34.34,0,0,0,.11-.25.35.35,0,0,0-.35-.34h-.14a5.75,5.75,0,0,1-2.2-.43.36.36,0,0,0-.38.08l-2.59,2.6a2.06,2.06,0,1,1-2.92-2.92l4.39-4.39a2.06,2.06,0,0,1,2.92,0,1.41,1.41,0,0,0,1.93,0,1.36,1.36,0,0,0,0-1.93Z" style="fill:#636868"/><path d="M187.12,466.53a4.82,4.82,0,0,0-6.81,0l-3.61,3.6a.36.36,0,0,0-.08.38.35.35,0,0,0,.33.21h.12a5.87,5.87,0,0,1,2.2.43.34.34,0,0,0,.38-.07l2.59-2.59a2.06,2.06,0,0,1,2.92,2.92l-3.23,3.22,0,0-1.13,1.12a2.08,2.08,0,0,1-2.92,0,1.41,1.41,0,0,0-1.93,0,1.33,1.33,0,0,0-.4.88,1.36,1.36,0,0,0,.4,1.06,4.7,4.7,0,0,0,1.37,1,1041716230435.36,1041716230435.36,0,0,1,.44.18l.22.07.2.05.42.09a4.4,4.4,0,0,0,.51.05h.26l.21,0,.24,0h.12l.24,0,.11,0,.2,0h0a4.79,4.79,0,0,0,2.24-1.27l4.38-4.38A4.82,4.82,0,0,0,187.12,466.53Z" style="fill:#636868"/><path d="M180.48,518.78a4.71,4.71,0,0,0-.81-.65,4.81,4.81,0,0,0-6,.65l-4.38,4.38a4.82,4.82,0,0,0,3.41,8.22,4.77,4.77,0,0,0,3.4-1.4l3.61-3.61a.36.36,0,0,0,.11-.25.35.35,0,0,0-.35-.34h-.14a5.75,5.75,0,0,1-2.2-.43.36.36,0,0,0-.38.08l-2.59,2.6a2.06,2.06,0,0,1-2.92-2.92l4.39-4.39a2.06,2.06,0,0,1,2.92,0,1.37,1.37,0,0,0,2.33-.88A1.36,1.36,0,0,0,180.48,518.78Z" style="fill:#f7931f"/><path d="M187.12,512.15a4.8,4.8,0,0,0-6.81,0l-3.61,3.6a.36.36,0,0,0-.08.38.36.36,0,0,0,.33.21h.12a5.68,5.68,0,0,1,2.2.43.36.36,0,0,0,.38-.08l2.59-2.58a2.06,2.06,0,1,1,2.92,2.92l-3.23,3.22,0,0-1.13,1.13a2.08,2.08,0,0,1-2.92,0,1.39,1.39,0,0,0-1.93,0,1.31,1.31,0,0,0-.4.88,1.36,1.36,0,0,0,.4,1.06,4.7,4.7,0,0,0,1.37,1l.22.09.22.08.22.08.2.05.42.09.51,0h.26l.21,0,.24,0h.12l.24,0,.11,0,.2,0h0a4.88,4.88,0,0,0,2.24-1.27l4.38-4.38A4.82,4.82,0,0,0,187.12,512.15Z" style="fill:#f7931f"/><path d="M180.48,564.4a4.28,4.28,0,0,0-.81-.65,4.76,4.76,0,0,0-2.6-.76,4.82,4.82,0,0,0-3.4,1.41l-4.38,4.38A4.82,4.82,0,0,0,172.7,577a4.77,4.77,0,0,0,3.4-1.4l3.61-3.62a.32.32,0,0,0,.11-.24.35.35,0,0,0-.35-.34h-.14a5.94,5.94,0,0,1-2.2-.43.36.36,0,0,0-.38.08l-2.59,2.6a2.06,2.06,0,1,1-2.92-2.92l4.39-4.4a2.08,2.08,0,0,1,2.92,0,1.39,1.39,0,0,0,1.93,0,1.36,1.36,0,0,0,0-1.93Z" style="fill:#636868"/><path d="M187.12,557.76a4.82,4.82,0,0,0-6.81,0l-3.61,3.61a.36.36,0,0,0-.08.38.36.36,0,0,0,.33.21h.12a5.68,5.68,0,0,1,2.2.43.36.36,0,0,0,.38-.08l2.59-2.59a2.07,2.07,0,1,1,2.92,2.93l-3.23,3.22,0,0L180.78,567a2.06,2.06,0,0,1-2.92,0,1.41,1.41,0,0,0-1.93,0,1.37,1.37,0,0,0,0,1.94,4.74,4.74,0,0,0,1.37,1l.22.09.22.08.22.07.2.06.42.09a4.38,4.38,0,0,0,.51,0h.26l.21,0,.24,0h.12l.24,0,.11,0,.2,0h0a4.86,4.86,0,0,0,2.24-1.26l4.38-4.38A4.83,4.83,0,0,0,187.12,557.76Z" style="fill:#636868"/><path d="M180.48,610a3.92,3.92,0,0,0-.81-.65,4.81,4.81,0,0,0-6,.65l-4.38,4.38a4.82,4.82,0,0,0,6.81,6.82l3.61-3.62a.32.32,0,0,0,.11-.24.36.36,0,0,0-.35-.35h-.14a5.74,5.74,0,0,1-2.2-.42.34.34,0,0,0-.38.07l-2.59,2.6a2.06,2.06,0,0,1-2.92-2.92l4.39-4.39a2.08,2.08,0,0,1,2.92,0,1.41,1.41,0,0,0,1.93,0,1.36,1.36,0,0,0,0-1.93Z" style="fill:#636868"/><path d="M187.12,603.38a4.82,4.82,0,0,0-6.81,0L176.7,607a.36.36,0,0,0-.08.38.38.38,0,0,0,.33.21h.12a5.5,5.5,0,0,1,2.2.43.36.36,0,0,0,.38-.08l2.59-2.59a2.06,2.06,0,1,1,2.92,2.92l-3.23,3.23,0,0-1.13,1.12a2.06,2.06,0,0,1-2.92,0,1.41,1.41,0,0,0-1.93,0,1.37,1.37,0,0,0,0,1.94,4.52,4.52,0,0,0,1.37,1l.22.1.22.08.22.07.2.06.42.08a4.4,4.4,0,0,0,.51.05h.26l.21,0,.24,0h.12l.24,0,.11,0,.2,0h0a4.79,4.79,0,0,0,2.24-1.27l4.38-4.38A4.82,4.82,0,0,0,187.12,603.38Z" style="fill:#636868"/><path d="M180.48,655.64a3.92,3.92,0,0,0-.81-.65,4.81,4.81,0,0,0-6,.65L169.29,660a4.82,4.82,0,0,0,6.81,6.81l3.61-3.61a.34.34,0,0,0,.11-.25.35.35,0,0,0-.35-.34h-.14a5.75,5.75,0,0,1-2.2-.43.36.36,0,0,0-.38.08l-2.59,2.6a2.06,2.06,0,1,1-2.92-2.92l4.39-4.39a2.06,2.06,0,0,1,2.92,0,1.41,1.41,0,0,0,1.93,0,1.36,1.36,0,0,0,0-1.93Z" style="fill:#636868"/><path d="M187.12,649a4.82,4.82,0,0,0-6.81,0l-3.61,3.6a.36.36,0,0,0-.08.38.35.35,0,0,0,.33.21h.12a5.87,5.87,0,0,1,2.2.43.34.34,0,0,0,.38-.07l2.59-2.59a2.06,2.06,0,0,1,2.92,2.92l-3.23,3.23,0,0-1.13,1.12a2.08,2.08,0,0,1-2.92,0,1.41,1.41,0,0,0-1.93,0,1.33,1.33,0,0,0-.4.88,1.36,1.36,0,0,0,.4,1.06,4.7,4.7,0,0,0,1.37,1l.22.1.22.08.22.07.2.05.42.09a4.4,4.4,0,0,0,.51.05h.26l.21,0a1.57,1.57,0,0,1,.24,0h.12l.24,0,.11,0,.2,0h0a4.79,4.79,0,0,0,2.24-1.27l4.38-4.38A4.82,4.82,0,0,0,187.12,649Z" style="fill:#636868"/><path d="M95.31,404.43V390.62H100a7.74,7.74,0,0,1,5.49,1.9,6.76,6.76,0,0,1,1.93,5,6.39,6.39,0,0,1-1.8,4.78,7.49,7.49,0,0,1-5.3,2.09Zm3.59-3h.72a4.13,4.13,0,0,0,3-1,3.72,3.72,0,0,0,1.06-2.83,4.11,4.11,0,0,0-1.08-3,4,4,0,0,0-2.85-.87H98.9Z"/><path d="M119.21,400.41h-6.9a2.38,2.38,0,0,0,.58,1.56,1.92,1.92,0,0,0,1.37.45,2.62,2.62,0,0,0,1.08-.25,1.59,1.59,0,0,0,.58-.62h3.16a4.15,4.15,0,0,1-1.11,1.91,5.05,5.05,0,0,1-3.77,1.28,5.25,5.25,0,0,1-3.83-1.41,4.85,4.85,0,0,1-1.37-3.5,4.94,4.94,0,0,1,1.39-3.58,5.23,5.23,0,0,1,3.79-1.34,5.06,5.06,0,0,1,3.56,1.26,5.2,5.2,0,0,1,1.47,3.89Zm-3-1.9a2.32,2.32,0,0,0-.54-1,2,2,0,0,0-1.37-.49,1.77,1.77,0,0,0-1.34.49,1.87,1.87,0,0,0-.5,1Z"/><path d="M121.71,401.37a4.92,4.92,0,0,0,1.33.68,4.45,4.45,0,0,0,1.28.23,1.44,1.44,0,0,0,.85-.25.53.53,0,0,0,.17-.44.47.47,0,0,0-.17-.41,2,2,0,0,0-.87-.33l-.87-.21a3,3,0,0,1-1.61-.81,2.24,2.24,0,0,1-.6-1.59,3.31,3.31,0,0,1,.87-2.26,4.68,4.68,0,0,1,3.31-1.12,7.78,7.78,0,0,1,3,.6l-1.12,2.12a4.51,4.51,0,0,0-1.74-.46,1.34,1.34,0,0,0-.76.19.49.49,0,0,0-.29.45.53.53,0,0,0,.39.52,10.41,10.41,0,0,0,1.1.27l.6.17a3.89,3.89,0,0,1,1.37.72,2.65,2.65,0,0,1,.7,1.84,3.11,3.11,0,0,1-.93,2.3,4.8,4.8,0,0,1-3.42,1.16,6.79,6.79,0,0,1-3.73-1.08Z"/><path d="M137.31,404.22a4.87,4.87,0,0,1-2.3.52,5.11,5.11,0,0,1-3.65-1.41,4.83,4.83,0,0,1-1.42-3.45,5,5,0,0,1,1.49-3.59,5.32,5.32,0,0,1,3.72-1.41,4.84,4.84,0,0,1,2.16.52v2.78a3,3,0,0,0-1.72-.6,2.18,2.18,0,0,0-1.62.64,2.25,2.25,0,0,0-.64,1.59,2.42,2.42,0,0,0,.58,1.56,2.25,2.25,0,0,0,1.7.7,2.51,2.51,0,0,0,1.7-.62Z"/><path d="M139.19,395.17h3.31v1.52a3,3,0,0,1,1.31-1.29,3.59,3.59,0,0,1,1.72-.37l.66,0v3.13a3,3,0,0,0-1.43-.33,2.19,2.19,0,0,0-1.51.49,2.8,2.8,0,0,0-.75,2.12v3.95h-3.31Z"/><path d="M149.32,389.46a1.87,1.87,0,1,1-1.87,1.86A1.86,1.86,0,0,1,149.32,389.46Zm1.65,5.71v9.26h-3.31v-9.26Z"/><path d="M156.54,409.17h-3.31v-14h3.31v1a3.45,3.45,0,0,1,2.84-1.33,4.59,4.59,0,0,1,3.29,1.35,5.26,5.26,0,0,1-.08,7.25,4.47,4.47,0,0,1-3.17,1.28,3.93,3.93,0,0,1-2.88-1.2Zm.54-10.87a2.3,2.3,0,0,0-.64,1.53,2.23,2.23,0,0,0,.64,1.47,2.08,2.08,0,0,0,1.49.62,2,2,0,0,0,1.47-.62,2.19,2.19,0,0,0,.64-1.47,2.25,2.25,0,0,0-.64-1.53,2,2,0,0,0-1.47-.62A2.12,2.12,0,0,0,157.08,398.3Z"/><path d="M169.65,397.89v6.54h-3.31v-6.54h-1.06v-2.72h1.06v-3h3.31v3h1.88v2.72Z"/><path d="M182.09,403.21a6.34,6.34,0,0,1-8.26,0,4.64,4.64,0,0,1-1.43-3.42,4.58,4.58,0,0,1,1.43-3.39,6.31,6.31,0,0,1,8.26,0,4.54,4.54,0,0,1,1.43,3.39A4.61,4.61,0,0,1,182.09,403.21Zm-5.61-4.93a2.05,2.05,0,0,0,0,3,2.08,2.08,0,0,0,3,0,2,2,0,0,0,.64-1.47,2.24,2.24,0,0,0-.64-1.51,2.13,2.13,0,0,0-3,0Z"/><path d="M185.43,395.17h3.31v1.52a3,3,0,0,1,1.3-1.29,3.62,3.62,0,0,1,1.72-.37l.66,0v3.13a2.92,2.92,0,0,0-1.42-.33,2.2,2.2,0,0,0-1.52.49,2.82,2.82,0,0,0-.74,2.12v3.95h-3.31Z"/><path d="M195.55,389.46a1.87,1.87,0,1,1-1.86,1.86A1.86,1.86,0,0,1,195.55,389.46Zm1.66,5.71v9.26h-3.32v-9.26Z"/><path d="M214.77,404.43h-3.32v-1a3.38,3.38,0,0,1-2.79,1.32,4.42,4.42,0,0,1-3.25-1.28,5.12,5.12,0,0,1-1.49-3.69,5,5,0,0,1,1.51-3.66,4.73,4.73,0,0,1,3.27-1.25,3.63,3.63,0,0,1,2.75,1.21v-6.73h3.32Zm-3.92-3.06a2.23,2.23,0,0,0,.71-1.58,2.42,2.42,0,0,0-.62-1.49,2.05,2.05,0,0,0-1.52-.62,2,2,0,0,0-1.47.6,2.27,2.27,0,0,0-.64,1.57,2.1,2.1,0,0,0,.64,1.45,2.05,2.05,0,0,0,1.47.62A2.25,2.25,0,0,0,210.85,401.37Z"/><path d="M226.86,400.41H220a2.38,2.38,0,0,0,.58,1.56,1.92,1.92,0,0,0,1.37.45,2.62,2.62,0,0,0,1.08-.25,1.59,1.59,0,0,0,.58-.62h3.16a4.15,4.15,0,0,1-1.11,1.91,5.05,5.05,0,0,1-3.77,1.28,5.25,5.25,0,0,1-3.83-1.41,4.85,4.85,0,0,1-1.37-3.5,4.94,4.94,0,0,1,1.39-3.58,5.21,5.21,0,0,1,3.79-1.34,5.06,5.06,0,0,1,3.56,1.26,5.2,5.2,0,0,1,1.47,3.89Zm-3-1.9a2.32,2.32,0,0,0-.54-1,2,2,0,0,0-1.37-.49,1.8,1.8,0,0,0-1.35.49,1.93,1.93,0,0,0-.49,1Z"/><path d="M65,422.73v6.55H61.68v-6.55H60.52V420h1.16v-1.14a4.66,4.66,0,0,1,1.26-3.62,5.25,5.25,0,0,1,3.65-1.3,5.56,5.56,0,0,1,3.7,1.24,4.2,4.2,0,0,1,1.16,3.1v.48H68.14v-.31a1.89,1.89,0,0,0-.42-1.24,1.66,1.66,0,0,0-1.15-.42,1.58,1.58,0,0,0-1.14.48,1.88,1.88,0,0,0-.44,1.43V420h2.32v2.71ZM71.45,420v9.26H68.14V420Z"/><path d="M74.12,426.21a5,5,0,0,0,1.33.69,4.41,4.41,0,0,0,1.28.22,1.45,1.45,0,0,0,.85-.24.56.56,0,0,0,.17-.44.5.5,0,0,0-.17-.41,2,2,0,0,0-.87-.33l-.87-.21a3,3,0,0,1-1.61-.81,2.2,2.2,0,0,1-.6-1.59,3.31,3.31,0,0,1,.87-2.26,4.63,4.63,0,0,1,3.31-1.12,7.63,7.63,0,0,1,3,.6l-1.12,2.11a4.69,4.69,0,0,0-1.74-.45,1.4,1.4,0,0,0-.76.18.5.5,0,0,0-.29.46.54.54,0,0,0,.39.52c.31.12.58.12,1.1.27l.6.16a4,4,0,0,1,1.36.73,2.59,2.59,0,0,1,.71,1.84,3.12,3.12,0,0,1-.93,2.3,4.85,4.85,0,0,1-3.42,1.16,6.88,6.88,0,0,1-3.73-1.08Zm1.62,4.1,3.1.33-2.11,3.81-2.07-.24Z"/><path d="M84.37,414.31a1.86,1.86,0,1,1-1.86,1.86A1.85,1.85,0,0,1,84.37,414.31ZM86,420v9.26H82.71V420Z"/><path d="M98.1,425.26H91.21a2.29,2.29,0,0,0,.58,1.55,1.83,1.83,0,0,0,1.36.46,2.62,2.62,0,0,0,1.08-.25,1.52,1.52,0,0,0,.58-.62H98a4.21,4.21,0,0,1-1.12,1.9,5,5,0,0,1-3.77,1.29,5.25,5.25,0,0,1-3.83-1.41,4.85,4.85,0,0,1-1.37-3.5,4.92,4.92,0,0,1,1.39-3.58,5.19,5.19,0,0,1,3.79-1.35A5.05,5.05,0,0,1,96.63,421a5.18,5.18,0,0,1,1.47,3.89Zm-3-1.9a2.27,2.27,0,0,0-.54-1,2,2,0,0,0-1.37-.5,1.77,1.77,0,0,0-1.34.5,1.87,1.87,0,0,0-.5,1Z"/><path d="M100,420h3.32v1.51a3,3,0,0,1,1.3-1.28,3.62,3.62,0,0,1,1.72-.37l.66,0V423a2.92,2.92,0,0,0-1.42-.33,2.22,2.22,0,0,0-1.52.5,2.8,2.8,0,0,0-.74,2.11v4H100Z"/><path d="M116.61,434H113.3V420h3.31v1a3.45,3.45,0,0,1,2.84-1.33,4.59,4.59,0,0,1,3.29,1.35,5.24,5.24,0,0,1-.08,7.24,4.45,4.45,0,0,1-3.17,1.29,4,4,0,0,1-2.88-1.2Zm.54-10.87a2.26,2.26,0,0,0-.64,1.53,2.23,2.23,0,0,0,.64,1.47,2.12,2.12,0,0,0,1.49.62,2,2,0,0,0,1.47-.62,2.19,2.19,0,0,0,.64-1.47,2.26,2.26,0,0,0-.64-1.53,2,2,0,0,0-1.47-.62A2.08,2.08,0,0,0,117.15,423.15Z"/><path d="M135.87,425.26H129a2.34,2.34,0,0,0,.58,1.55,1.85,1.85,0,0,0,1.37.46A2.62,2.62,0,0,0,132,427a1.59,1.59,0,0,0,.58-.62h3.16a4.08,4.08,0,0,1-1.11,1.9,5,5,0,0,1-3.77,1.29,5.23,5.23,0,0,1-3.83-1.41,4.85,4.85,0,0,1-1.37-3.5,4.92,4.92,0,0,1,1.39-3.58,5.17,5.17,0,0,1,3.79-1.35A5.07,5.07,0,0,1,134.4,421a5.18,5.18,0,0,1,1.47,3.89Zm-3.05-1.9a2.25,2.25,0,0,0-.53-1,2,2,0,0,0-1.37-.5,1.79,1.79,0,0,0-1.35.5,1.86,1.86,0,0,0-.49,1Z"/><path d="M137.77,420h3.32v1.16a3.49,3.49,0,0,1,2.94-1.37,3.73,3.73,0,0,1,2.73,1,3.18,3.18,0,0,1,.87,2.59v5.88h-3.31V424.6a2.62,2.62,0,0,0-.42-1.8,1.35,1.35,0,0,0-1.05-.4,1.83,1.83,0,0,0-1.23.44,2.13,2.13,0,0,0-.53,1.47v5h-3.32Z"/><path d="M153.55,422.73v6.55h-3.31v-6.55h-1.06V420h1.06v-3h3.31v3h1.88v2.71Z"/><path d="M156.68,420H160v1.51a3,3,0,0,1,1.3-1.28,3.62,3.62,0,0,1,1.72-.37l.66,0V423a2.92,2.92,0,0,0-1.42-.33,2.22,2.22,0,0,0-1.52.5,2.8,2.8,0,0,0-.74,2.11v4h-3.31Z"/><path d="M168.46,420v5.18a1.75,1.75,0,0,0,.5,1.34,1.7,1.7,0,0,0,1.15.36,1.55,1.55,0,0,0,1.18-.4,1.69,1.69,0,0,0,.48-1.3V420h3.31v5.78a3.16,3.16,0,0,1-.89,2.48,5.28,5.28,0,0,1-4,1.31,5.54,5.54,0,0,1-4.19-1.33,3.33,3.33,0,0,1-.87-2.46V420Z"/><path d="M186.08,424.7v4.58H182.5V415.47h5.71a4.74,4.74,0,0,1,3.5,1.24,4.25,4.25,0,0,1,1.28,3.35,4.48,4.48,0,0,1-1.22,3.44,4.57,4.57,0,0,1-3.43,1.2Zm0-2.9h1.2a2.34,2.34,0,0,0,1.51-.43,1.57,1.57,0,0,0,.46-1.27,1.65,1.65,0,0,0-.42-1.24,2.1,2.1,0,0,0-1.53-.49h-1.22Z"/><path d="M194.59,420h3.31v1.51a3,3,0,0,1,1.31-1.28,3.55,3.55,0,0,1,1.71-.37l.67,0V423a3,3,0,0,0-1.43-.33,2.18,2.18,0,0,0-1.51.5,2.78,2.78,0,0,0-.75,2.11v4h-3.31Z"/><path d="M212,428.06a6.34,6.34,0,0,1-8.26,0,4.78,4.78,0,0,1,0-6.82,5.79,5.79,0,0,1,4.12-1.53,5.87,5.87,0,0,1,4.14,1.53,4.78,4.78,0,0,1,0,6.82Zm-5.61-4.93a2.1,2.1,0,0,0-.64,1.51,2.15,2.15,0,0,0,2.13,2.09,2.11,2.11,0,0,0,1.47-.62,2,2,0,0,0,.64-1.47,2.25,2.25,0,0,0-.64-1.51,2.13,2.13,0,0,0-3,0Z"/><path d="M222.29,429.07a5,5,0,0,1-2.3.52,5.11,5.11,0,0,1-3.64-1.41,4.84,4.84,0,0,1-1.43-3.46,5.05,5.05,0,0,1,1.49-3.58,5.35,5.35,0,0,1,3.73-1.41,4.67,4.67,0,0,1,2.15.52V423a2.93,2.93,0,0,0-1.72-.6,2.14,2.14,0,0,0-1.61.65,2.21,2.21,0,0,0-.64,1.59,2.32,2.32,0,0,0,.58,1.55,2.25,2.25,0,0,0,1.69.71,2.54,2.54,0,0,0,1.7-.62Z"/><path d="M234,425.26H227.1a2.29,2.29,0,0,0,.58,1.55,1.83,1.83,0,0,0,1.36.46,2.57,2.57,0,0,0,1.08-.25,1.52,1.52,0,0,0,.58-.62h3.17a4.21,4.21,0,0,1-1.12,1.9,5,5,0,0,1-3.77,1.29,5.25,5.25,0,0,1-3.83-1.41,4.85,4.85,0,0,1-1.37-3.5,4.92,4.92,0,0,1,1.39-3.58,5.21,5.21,0,0,1,3.79-1.35,5.05,5.05,0,0,1,3.56,1.27,5.15,5.15,0,0,1,1.47,3.89Zm-3-1.9a2.17,2.17,0,0,0-.54-1,2,2,0,0,0-1.37-.5,1.77,1.77,0,0,0-1.34.5,1.87,1.87,0,0,0-.5,1Z"/><path d="M236.5,426.21a4.9,4.9,0,0,0,1.32.69,4.48,4.48,0,0,0,1.29.22,1.47,1.47,0,0,0,.85-.24.55.55,0,0,0,.16-.44A.49.49,0,0,0,240,426a2,2,0,0,0-.88-.33l-.86-.21a3,3,0,0,1-1.62-.81,2.24,2.24,0,0,1-.6-1.59,3.31,3.31,0,0,1,.87-2.26,4.65,4.65,0,0,1,3.31-1.12,7.54,7.54,0,0,1,3,.6L242,422.42a4.75,4.75,0,0,0-1.74-.45,1.46,1.46,0,0,0-.77.18.5.5,0,0,0-.29.46.55.55,0,0,0,.39.52c.31.12.58.12,1.1.27l.6.16a4,4,0,0,1,1.37.73,2.63,2.63,0,0,1,.7,1.84,3.09,3.09,0,0,1-.93,2.3,4.85,4.85,0,0,1-3.42,1.16,6.86,6.86,0,0,1-3.72-1.08Z"/><path d="M253.62,418.51h-2v-3h5.55v13.81h-3.58Z"/><line x1="41" y1="452.53" x2="277.18" y2="452.53" style="fill:none;stroke:#3a5c84;stroke-miterlimit:10;stroke-width:4.52941191196442px"/><line x1="85.97" y1="455.03" x2="85.97" y2="726.15" style="fill:none;stroke:#3a5c84;stroke-miterlimit:10;stroke-width:4.52941191196442px"/><path d="M60,703.17a1.23,1.23,0,0,1,.94.4,1.22,1.22,0,0,1,.4.94A1.37,1.37,0,0,1,60,705.85a1.33,1.33,0,0,1-1.32-1.34,1.24,1.24,0,0,1,.38-.94A1.26,1.26,0,0,1,60,703.17Z"/><path d="M65.69,703.17A1.37,1.37,0,0,1,67,704.51a1.23,1.23,0,0,1-.4.94,1.22,1.22,0,0,1-.94.4,1.26,1.26,0,0,1-.94-.4,1.29,1.29,0,0,1-.38-.94,1.33,1.33,0,0,1,1.32-1.34Z"/><path d="M71.43,703.17a1.37,1.37,0,0,1,1.35,1.34,1.27,1.27,0,0,1-.4.94,1.25,1.25,0,0,1-.95.4,1.34,1.34,0,0,1,0-2.68Z"/><path d="M63.66,477.05a1.75,1.75,0,0,0,.46,1.12,1.53,1.53,0,0,0,1.14.44,1.47,1.47,0,0,0,1.14-.49,1.28,1.28,0,0,0,.34-.92,1.31,1.31,0,0,0-.44-1,1.77,1.77,0,0,0-1.07-.31,1.5,1.5,0,0,0-.49.06v-2a1.4,1.4,0,0,0,1.19-.28,1.06,1.06,0,0,0,.37-.79,1.23,1.23,0,0,0-.3-.81,1.2,1.2,0,0,0-.82-.3,1.13,1.13,0,0,0-.81.28,1.44,1.44,0,0,0-.39,1H61.27a4,4,0,0,1,1.1-2.58,3.87,3.87,0,0,1,3-1.09,3.91,3.91,0,0,1,2.79,1,3.08,3.08,0,0,1,.91,2.17,2.72,2.72,0,0,1-.34,1.38,1.88,1.88,0,0,1-.86.86,2.69,2.69,0,0,1,1.33,1,2.8,2.8,0,0,1,.47,1.64,3.38,3.38,0,0,1-1,2.46,5.16,5.16,0,0,1-6.56,0,4.5,4.5,0,0,1-1.4-2.92Z"/><path d="M68.54,523.27H69.9v2.24H68.54v2.12H65.85v-2.12H60.41v-1.87l4.33-7.23h3.8Zm-2.69,0V518.7l-2.64,4.57Z"/><path d="M68.53,565.51H64.65l-.21,1.24a7.32,7.32,0,0,1,.91-.08,4,4,0,0,1,3,1.11,3.62,3.62,0,0,1,1,2.66,3.94,3.94,0,0,1-1.08,2.81,4.69,4.69,0,0,1-3.5,1.26,6.81,6.81,0,0,1-3.78-1l.43-2.73a5.4,5.4,0,0,0,1.35.91,4.13,4.13,0,0,0,1.68.39,2,2,0,0,0,1.47-.56,1.68,1.68,0,0,0,.43-1.14,1.59,1.59,0,0,0-.53-1.21,3.24,3.24,0,0,0-2-.56,4.54,4.54,0,0,0-2.07.47l1-6h5.84Z"/><path d="M67.92,609.78l-3.2,3.82a4,4,0,0,1,1.57-.35,3.65,3.65,0,0,1,2.54,1.08A3.6,3.6,0,0,1,69.89,617a4,4,0,0,1-1.16,2.93,5.58,5.58,0,0,1-7.27,0,3.69,3.69,0,0,1-1-2.63,7.2,7.2,0,0,1,1.67-4.19l2.5-3.3Zm-1.53,8.65a1.8,1.8,0,0,0,.52-1.28,1.6,1.6,0,0,0-.52-1.17,1.85,1.85,0,0,0-1.3-.53,2,2,0,0,0-1.26.49,1.68,1.68,0,0,0-.56,1.16,1.88,1.88,0,0,0,.49,1.28,1.86,1.86,0,0,0,2.63,0Z"/><path d="M65.45,659.13H60.78v-2.47H70l-6.43,11.22H60.34Z"/><rect x="248.26" y="237.25" width="202.05" height="54.1" rx="12" ry="12" style="fill:none;stroke:#eb6a38;stroke-miterlimit:10;stroke-width:7px"/><path d="M319.93,261.78h4.48v2a4,4,0,0,1,1.76-1.73,4.86,4.86,0,0,1,2.33-.51l.89.06v4.23a4,4,0,0,0-1.93-.45,2.91,2.91,0,0,0-2,.67,3.8,3.8,0,0,0-1,2.86v5.35h-4.48Z"/><path d="M344.65,268.86h-9.32a3.15,3.15,0,0,0,.78,2.1,2.52,2.52,0,0,0,1.85.62,3.55,3.55,0,0,0,1.46-.34,1.94,1.94,0,0,0,.78-.84h4.28A5.54,5.54,0,0,1,343,273a6.77,6.77,0,0,1-5.09,1.74,7.11,7.11,0,0,1-5.18-1.91,6.55,6.55,0,0,1-1.85-4.73,6.63,6.63,0,0,1,1.88-4.84,7,7,0,0,1,5.12-1.82,6.86,6.86,0,0,1,4.82,1.7,7,7,0,0,1,2,5.27Zm-4.11-2.57a3,3,0,0,0-.73-1.35,2.65,2.65,0,0,0-1.85-.67,2.44,2.44,0,0,0-1.82.67,2.54,2.54,0,0,0-.67,1.35Z"/><path d="M356.92,261.78h4.48V274.3h-4.48v-1.38a4.69,4.69,0,0,1-3.9,1.8,6,6,0,0,1-4.5-2,6.3,6.3,0,0,1-1.79-4.59,6.93,6.93,0,0,1,1.93-5,6.43,6.43,0,0,1,4.5-1.76,5,5,0,0,1,3.76,1.62Zm-4.71,4.2a3,3,0,0,0-.89,2,2.85,2.85,0,0,0,.87,2.05,3.1,3.1,0,0,0,2,.84,2.88,2.88,0,0,0,2-.87,2.73,2.73,0,0,0,.84-2,2.77,2.77,0,0,0-.87-2,2.89,2.89,0,0,0-2-.81A2.85,2.85,0,0,0,352.21,266Z"/><path d="M378.65,274.3h-4.49v-1.38a4.58,4.58,0,0,1-3.77,1.8A6,6,0,0,1,366,273a6.91,6.91,0,0,1-2-5,6.82,6.82,0,0,1,2-5,6.37,6.37,0,0,1,4.42-1.68,5,5,0,0,1,3.72,1.62v-9.1h4.49Zm-5.3-4.15a3,3,0,0,0,1-2.13,3.29,3.29,0,0,0-.84-2,2.89,2.89,0,0,0-4,0,3.09,3.09,0,0,0-.87,2.13,2.88,2.88,0,0,0,.87,2,2.82,2.82,0,0,0,2,.84A3,3,0,0,0,373.35,270.15Z"/><rect x="505.95" y="237.25" width="202.05" height="54.1" rx="12" ry="12" style="fill:none;stroke:#eb6a38;stroke-miterlimit:10;stroke-width:7px"/><path d="M577.91,261.7l3,6.6,3.16-6.6h2.74l3.17,6.8,3.13-6.8h5l-6.55,12.51h-3l-3.13-6.89-3,6.89h-3L572.9,261.7Z"/><path d="M599.61,261.7h4.48v2a4.08,4.08,0,0,1,1.76-1.74,5,5,0,0,1,2.33-.5l.89.06v4.22a4,4,0,0,0-1.93-.44,2.91,2.91,0,0,0-2,.67,3.74,3.74,0,0,0-1,2.85v5.35h-4.48Z"/><path d="M613.3,254a2.52,2.52,0,1,1-2.52,2.52A2.51,2.51,0,0,1,613.3,254Zm2.24,7.73v12.51h-4.48V261.7Z"/><path d="M623.55,265.36v8.85h-4.48v-8.85h-1.43V261.7h1.43v-4.12h4.48v4.12h2.55v3.66Z"/><path d="M641.05,268.78h-9.33a3.18,3.18,0,0,0,.79,2.1,2.52,2.52,0,0,0,1.85.62,3.51,3.51,0,0,0,1.45-.34,2.15,2.15,0,0,0,.79-.84h4.28a5.72,5.72,0,0,1-1.51,2.58,6.84,6.84,0,0,1-5.1,1.73,7.1,7.1,0,0,1-5.18-1.9,6.55,6.55,0,0,1-1.85-4.73,6.72,6.72,0,0,1,1.88-4.85,7,7,0,0,1,5.12-1.82,6.86,6.86,0,0,1,4.82,1.71,7,7,0,0,1,2,5.26Zm-4.12-2.58a3,3,0,0,0-.73-1.34,2.58,2.58,0,0,0-1.84-.67,2.38,2.38,0,0,0-1.82.67,2.59,2.59,0,0,0-.68,1.34Z"/><rect x="763.63" y="237.25" width="202.05" height="54.1" rx="12" ry="12" style="fill:none;stroke:#eb6a38;stroke-miterlimit:10;stroke-width:7px"/><path d="M800.45,262h4.16v1.9a3.78,3.78,0,0,1,1.64-1.61,4.51,4.51,0,0,1,2.16-.47l.83.05v3.93a3.6,3.6,0,0,0-1.8-.42,2.73,2.73,0,0,0-1.89.62,3.5,3.5,0,0,0-.94,2.66v5h-4.16Z"/><path d="M823.41,268.54h-8.66a2.93,2.93,0,0,0,.73,1.95,2.33,2.33,0,0,0,1.71.57,3.38,3.38,0,0,0,1.36-.31,2,2,0,0,0,.72-.78h4a5.16,5.16,0,0,1-1.4,2.39,6.33,6.33,0,0,1-4.73,1.61,6.58,6.58,0,0,1-4.81-1.77,6,6,0,0,1-1.72-4.39,6.23,6.23,0,0,1,1.74-4.5,6.57,6.57,0,0,1,4.76-1.69,6.37,6.37,0,0,1,4.47,1.59,6.51,6.51,0,0,1,1.85,4.89Zm-3.82-2.39a2.83,2.83,0,0,0-.68-1.25,2.42,2.42,0,0,0-1.72-.63,2.26,2.26,0,0,0-1.69.63,2.43,2.43,0,0,0-.62,1.25Z"/><path d="M834.8,262H839v11.62H834.8v-1.27a4.37,4.37,0,0,1-3.62,1.66,5.54,5.54,0,0,1-4.18-1.84,5.88,5.88,0,0,1-1.67-4.27,6.4,6.4,0,0,1,1.8-4.65,6,6,0,0,1,4.18-1.64,4.62,4.62,0,0,1,3.49,1.51Zm-4.37,3.9a2.73,2.73,0,0,0-.83,1.9,2.7,2.7,0,0,0,.8,1.9,3,3,0,0,0,1.87.78,2.68,2.68,0,0,0,1.88-.81,2.54,2.54,0,0,0,.78-1.87,2.57,2.57,0,0,0-.81-1.9,2.64,2.64,0,0,0-3.69,0Z"/><path d="M855,273.58h-4.16v-1.27A4.25,4.25,0,0,1,847.3,274a5.55,5.55,0,0,1-4.08-1.61,6.4,6.4,0,0,1-1.87-4.63,6.32,6.32,0,0,1,1.9-4.6,5.93,5.93,0,0,1,4.1-1.56,4.58,4.58,0,0,1,3.46,1.51v-8.45H855Zm-4.91-3.85a2.79,2.79,0,0,0,.88-2,3,3,0,0,0-.78-1.87,2.67,2.67,0,0,0-3.74,0,2.86,2.86,0,0,0-.81,2,2.64,2.64,0,0,0,.81,1.82,2.59,2.59,0,0,0,1.84.78A2.85,2.85,0,0,0,850.06,269.73Z"/><path d="M857.7,264.87h6.58v3.46H857.7Z"/><path d="M870.23,262,873,268.1l2.94-6.14h2.55l2.93,6.32,2.92-6.32H889l-6.08,11.62h-2.81l-2.91-6.39-2.78,6.39h-2.81l-6-11.62Z"/><path d="M890.38,262h4.16v1.9a3.78,3.78,0,0,1,1.64-1.61,4.54,4.54,0,0,1,2.16-.47l.83.05v3.93a3.59,3.59,0,0,0-1.79-.42,2.75,2.75,0,0,0-1.9.62,3.54,3.54,0,0,0-.94,2.66v5h-4.16Z"/><path d="M903.1,254.78a2.34,2.34,0,1,1-2.34,2.34A2.33,2.33,0,0,1,903.1,254.78Zm2.08,7.18v11.62H901V262Z"/><path d="M912.61,265.37v8.21h-4.16v-8.21h-1.32V262h1.32v-3.82h4.16V262H915v3.41Z"/><path d="M928.86,268.54H920.2a3,3,0,0,0,.73,1.95,2.34,2.34,0,0,0,1.72.57,3.38,3.38,0,0,0,1.35-.31,2,2,0,0,0,.73-.78h4a5.29,5.29,0,0,1-1.41,2.39,6.33,6.33,0,0,1-4.73,1.61,6.6,6.6,0,0,1-4.81-1.77,6.08,6.08,0,0,1-1.72-4.39,6.19,6.19,0,0,1,1.75-4.5,6.56,6.56,0,0,1,4.75-1.69,6.38,6.38,0,0,1,4.48,1.59,6.49,6.49,0,0,1,1.84,4.89ZM925,266.15a2.64,2.64,0,0,0-.68-1.25,2.4,2.4,0,0,0-1.71-.63,2.25,2.25,0,0,0-1.69.63,2.36,2.36,0,0,0-.63,1.25Z"/><polygon points="406.44 339.89 406.44 398.66 397.97 398.66 415.97 416.66 433.97 398.66 425.5 398.66 425.5 339.89 406.44 339.89" style="fill:none;stroke:#f7931f;stroke-miterlimit:10;stroke-width:7px"/><polygon points="322.34 471.69 263.57 471.78 263.56 463.31 245.59 481.34 263.62 499.31 263.61 490.84 322.37 490.75 322.34 471.69" style="fill:none;stroke:#c13018;stroke-miterlimit:10;stroke-width:7px"/><polygon points="597.44 120.89 597.44 179.66 588.97 179.66 606.97 197.66 624.97 179.66 616.5 179.66 616.5 120.89 597.44 120.89" style="fill:none;stroke:#eb6a38;stroke-miterlimit:10;stroke-width:7px"/><rect x="553.38" y="27.74" width="104.21" height="73.51" rx="12" ry="12" style="fill:none;stroke:#3a5c84;stroke-miterlimit:10;stroke-width:7px"/><path d="M585.55,57.07A3.93,3.93,0,0,1,584.49,60a.27.27,0,0,0,0,.27l1.29,2.7a.21.21,0,0,0,.24.14,3.93,3.93,0,0,1,4.2,3.79.26.26,0,0,0,.16.22l2.82,1h.05a.18.18,0,0,0,.23-.08,4.33,4.33,0,0,1,.58-.55l0,0,.29-.19a1.71,1.71,0,0,1,.23-.13l.11-.06a3.9,3.9,0,0,1,4.39.67.22.22,0,0,0,.27,0l2.7-1.29h0a.24.24,0,0,0,.14-.23,3.94,3.94,0,0,1,1-2.91,3.88,3.88,0,0,1,1.5-1l.08,0,.15-.05.25-.07h0A4.79,4.79,0,0,1,606,62a.23.23,0,0,0,.22-.16l1-2.82a.25.25,0,0,0-.07-.26,3.91,3.91,0,0,1-.3-5.65.23.23,0,0,0,0-.27L606,51h0l-.4-.85-.07-.07h0l0,0-.1,0h0a3.93,3.93,0,0,1-4.2-3.79A.26.26,0,0,0,601,46l-2.82-1a.2.2,0,0,0-.26.07h0a4.08,4.08,0,0,1-.89.77l-.07,0c-.09.06-.18.1-.27.15a3.76,3.76,0,0,1-1.52.39,3.89,3.89,0,0,1-2.88-1.05.23.23,0,0,0-.27,0l-2.7,1.29a.23.23,0,0,0-.13.23,4,4,0,0,1-1,2.91,3.92,3.92,0,0,1-2.79,1.29.22.22,0,0,0-.22.16l-.69,2h0l-.31.89a.25.25,0,0,0,.07.26A4,4,0,0,1,585.55,57.07Zm6.13-4.78,0,0A3.23,3.23,0,0,1,592,52l.19-.16a.47.47,0,0,0,.09-.06,5.81,5.81,0,1,1,5.83,10,4.89,4.89,0,0,1-.48.2h0a5.82,5.82,0,0,1-5.93-9.73Z" style="fill:#3a5c84"/><path d="M599.05,78.21a5,5,0,0,1-1.35,3.7.32.32,0,0,0-.06.35l1.66,3.47a.27.27,0,0,0,.3.18,5,5,0,0,1,3.73,1.28A5,5,0,0,1,605,90.77a.31.31,0,0,0,.2.28l3.62,1.28a.16.16,0,0,0,.07,0,.25.25,0,0,0,.29-.1,5.12,5.12,0,0,1,.76-.71l0,0,.37-.26.3-.16a.61.61,0,0,1,.14-.07,4.94,4.94,0,0,1,1.93-.51,5.1,5.1,0,0,1,3.71,1.36.26.26,0,0,0,.34,0l3.47-1.65h0a.31.31,0,0,0,.18-.29,5,5,0,0,1,3.2-5.06l.11,0,.2-.06.31-.09h0a5.15,5.15,0,0,1,1-.13.33.33,0,0,0,.28-.21l1.28-3.63a.28.28,0,0,0-.09-.33,5,5,0,0,1-.38-7.25.32.32,0,0,0,.06-.35l-1.14-2.38h0l-.52-1.09a.26.26,0,0,0-.09-.09h0l0,0a.17.17,0,0,0-.12,0h0a5,5,0,0,1-5.4-4.87.32.32,0,0,0-.21-.28l-3.62-1.28a.26.26,0,0,0-.34.09h0a4.91,4.91,0,0,1-1.16,1l-.09.05-.33.19a5.07,5.07,0,0,1-5.66-.85.29.29,0,0,0-.34,0l-3.47,1.65a.31.31,0,0,0-.18.3,5,5,0,0,1-4.86,5.4.27.27,0,0,0-.28.21l-.89,2.51a0,0,0,0,1,0,0l-.4,1.14a.34.34,0,0,0,.09.34A5,5,0,0,1,599.05,78.21Zm7.88-6.14.05,0a3.07,3.07,0,0,1,.34-.29l.25-.21.11-.07a7.47,7.47,0,1,1,7.49,12.84,6.57,6.57,0,0,1-.61.26h0a7.47,7.47,0,0,1-7.61-12.49Z" style="fill:#3a5c84"/><path d="M604.47,44.88a2.65,2.65,0,0,1-.72,2,.15.15,0,0,0,0,.18l.88,1.85a.14.14,0,0,0,.16.09,2.62,2.62,0,0,1,2,.68,2.71,2.71,0,0,1,.89,1.9.15.15,0,0,0,.1.15l1.93.68h0a.15.15,0,0,0,.16-.05,2.4,2.4,0,0,1,.4-.38s0,0,0,0l.19-.14.16-.08a.2.2,0,0,1,.08,0,2.53,2.53,0,0,1,1-.27,2.67,2.67,0,0,1,2,.72.13.13,0,0,0,.18,0l1.84-.88h0a.16.16,0,0,0,.1-.16,2.63,2.63,0,0,1,.68-2,2.66,2.66,0,0,1,1-.7l.06,0,.1,0,.17-.05h0a4.34,4.34,0,0,1,.52-.07.17.17,0,0,0,.15-.11l.68-1.92a.18.18,0,0,0-.05-.18,2.67,2.67,0,0,1-.2-3.85.17.17,0,0,0,0-.18l-.61-1.27h0l-.27-.58,0,0h0l-.06,0h0a2.68,2.68,0,0,1-2.87-2.58.15.15,0,0,0-.11-.15l-1.92-.68a.14.14,0,0,0-.18,0h0a2.76,2.76,0,0,1-.61.52l0,0-.18.09a2.46,2.46,0,0,1-1,.27,2.65,2.65,0,0,1-2-.72.17.17,0,0,0-.18,0l-1.85.88a.16.16,0,0,0-.09.16,2.67,2.67,0,0,1-2.58,2.86c-.05,0-.11,0-.15.11l-.47,1.33h0l-.21.6a.17.17,0,0,0,0,.18A2.7,2.7,0,0,1,604.47,44.88Zm4.18-3.25,0,0,.18-.15a.69.69,0,0,1,.13-.11l.06,0a4,4,0,1,1,4,6.82,2.26,2.26,0,0,1-.33.13h0a4,4,0,0,1-4-6.63Z" style="fill:#3a5c84"/><path d="M683.79,68.59v7.07h-5.55V54.32h8.85a7.38,7.38,0,0,1,5.43,1.92,6.63,6.63,0,0,1,2,5.18,6.92,6.92,0,0,1-1.9,5.31,7.14,7.14,0,0,1-5.32,1.86Zm0-4.48h1.86a3.66,3.66,0,0,0,2.34-.67,2.42,2.42,0,0,0,.71-1.95,2.56,2.56,0,0,0-.64-1.92,3.24,3.24,0,0,0-2.38-.77h-1.89Z"/><path d="M697,61.36h5.13v2.33a4.57,4.57,0,0,1,2-2,5.56,5.56,0,0,1,2.66-.58c.13,0,.36,0,1,.07V66a4.48,4.48,0,0,0-2.21-.51,3.31,3.31,0,0,0-2.34.77,4.27,4.27,0,0,0-1.16,3.26v6.11H697Z"/><path d="M723.9,73.77a9.83,9.83,0,0,1-12.8,0,7.34,7.34,0,0,1,0-10.52,8.91,8.91,0,0,1,6.38-2.37,9.08,9.08,0,0,1,6.42,2.37,7,7,0,0,1,2.21,5.24A7.12,7.12,0,0,1,723.9,73.77Zm-8.7-7.61a3.25,3.25,0,1,0,4.59,4.6,3.14,3.14,0,0,0,1-2.27,3.45,3.45,0,0,0-1-2.33,3.3,3.3,0,0,0-4.59,0Z"/><path d="M739.91,75.34a7.67,7.67,0,0,1-3.56.8A7.9,7.9,0,0,1,730.7,74a7.45,7.45,0,0,1-2.21-5.34,7.8,7.8,0,0,1,2.3-5.54,8.29,8.29,0,0,1,5.78-2.17,7.4,7.4,0,0,1,3.34.8V66a4.62,4.62,0,0,0-2.67-.93,3.38,3.38,0,0,0-2.5,1,3.48,3.48,0,0,0-1,2.46,3.66,3.66,0,0,0,.9,2.4A3.45,3.45,0,0,0,737.28,72a3.9,3.9,0,0,0,2.63-1Z"/><path d="M758,69.45H747.35a3.61,3.61,0,0,0,.9,2.4,2.88,2.88,0,0,0,2.12.71,4.13,4.13,0,0,0,1.66-.39,2.28,2.28,0,0,0,.9-1h4.91a6.41,6.41,0,0,1-1.73,3c-1.06,1-2.73,2-5.84,2A8.17,8.17,0,0,1,744.33,74a7.45,7.45,0,0,1-2.11-5.4A7.65,7.65,0,0,1,744.37,63a8.09,8.09,0,0,1,5.87-2.08,7.87,7.87,0,0,1,5.52,2,8,8,0,0,1,2.27,6Zm-4.71-2.94a3.42,3.42,0,0,0-.84-1.54,3,3,0,0,0-2.11-.76,2.78,2.78,0,0,0-2.09.76,3,3,0,0,0-.77,1.54Z"/><path d="M761.92,70.92A7.14,7.14,0,0,0,764,72a6.79,6.79,0,0,0,2,.35,2.16,2.16,0,0,0,1.31-.38.82.82,0,0,0,.26-.67.74.74,0,0,0-.26-.64,3.06,3.06,0,0,0-1.34-.51l-1.35-.33a4.59,4.59,0,0,1-2.5-1.24,3.45,3.45,0,0,1-.93-2.47,5.1,5.1,0,0,1,1.34-3.48,7.28,7.28,0,0,1,5.14-1.73,12,12,0,0,1,4.59.92l-1.74,3.27a7.06,7.06,0,0,0-2.69-.7,2.18,2.18,0,0,0-1.19.28.77.77,0,0,0-.45.71.84.84,0,0,0,.61.8c.48.19.9.19,1.7.41l.93.26A6,6,0,0,1,771.51,68a4,4,0,0,1,1.09,2.85,4.8,4.8,0,0,1-1.44,3.55,7.5,7.5,0,0,1-5.3,1.79,10.62,10.62,0,0,1-5.77-1.66Z"/><path d="M420.64,466a15.66,15.66,0,0,0-2.7-2.17,16.07,16.07,0,0,0-20,2.17l-14.61,14.62A16.08,16.08,0,0,0,406,503.31l12.06-12.05a1.21,1.21,0,0,0,.34-.82,1.17,1.17,0,0,0-1.16-1.15h-.46a19.31,19.31,0,0,1-7.35-1.42,1.14,1.14,0,0,0-1.25.25l-8.67,8.68a6.89,6.89,0,0,1-9.75-9.74l14.67-14.66a6.89,6.89,0,0,1,9.73,0,4.71,4.71,0,0,0,6.46,0,4.55,4.55,0,0,0,0-6.45Z" style="fill:#f7931f"/><path d="M442.79,443.8a16.08,16.08,0,0,0-22.74,0l-12,12a1.15,1.15,0,0,0,.83,2h.43a19.27,19.27,0,0,1,7.34,1.43,1.14,1.14,0,0,0,1.25-.25l8.64-8.63a6.89,6.89,0,0,1,9.75,9.74l-10.77,10.76-.09.11-3.77,3.74a6.87,6.87,0,0,1-9.73,0,4.71,4.71,0,0,0-6.46,0,4.59,4.59,0,0,0,0,6.48,16,16,0,0,0,4.6,3.21c.24.12.48.21.72.31s.49.19.73.28l.74.24.68.18c.46.12.92.21,1.39.29a16,16,0,0,0,1.71.16h.87l.69-.08c.25,0,.52-.07.81-.07h.39l.8-.11.36-.07.67-.14h.13a16.08,16.08,0,0,0,7.45-4.23l14.62-14.61A16.1,16.1,0,0,0,442.79,443.8Z" style="fill:#f7931f"/><line x1="390.26" y1="722.89" x2="442.14" y2="722.89" style="fill:none;stroke:#3a5c84;stroke-miterlimit:10;stroke-width:7px"/><line x1="390.26" y1="709.46" x2="442.14" y2="709.46" style="fill:none;stroke:#3a5c84;stroke-miterlimit:10;stroke-width:7px"/><line x1="390.26" y1="696.04" x2="442.14" y2="696.04" style="fill:none;stroke:#3a5c84;stroke-miterlimit:10;stroke-width:7px"/><line x1="390.26" y1="682.62" x2="442.14" y2="682.62" style="fill:none;stroke:#3a5c84;stroke-miterlimit:10;stroke-width:7px"/><line x1="390.26" y1="669.19" x2="411.67" y2="669.19" style="fill:none;stroke:#3a5c84;stroke-miterlimit:10;stroke-width:7px"/><path d="M439.43,664.37a7.26,7.26,0,0,1-7.24-7.24V643.55H387.24a7.26,7.26,0,0,0-7.24,7.24v76a7.26,7.26,0,0,0,7.24,7.24h57.92a7.26,7.26,0,0,0,7.24-7.24V664.37Z" style="fill:none;stroke:#3a5c84;stroke-miterlimit:10;stroke-width:7px"/><rect x="219.47" y="212" width="775" height="101" rx="12" ry="12" style="fill:none;stroke:#91c54f;stroke-miterlimit:10;stroke-width:7px"/><path d="M852.32,179.21V185h-4.5V167.61H855a6,6,0,0,1,4.39,1.56,5.38,5.38,0,0,1,1.61,4.21,5.65,5.65,0,0,1-1.53,4.32,5.77,5.77,0,0,1-4.32,1.51Zm0-3.64h1.51a2.89,2.89,0,0,0,1.89-.55,2,2,0,0,0,.58-1.58,2.13,2.13,0,0,0-.52-1.56,2.65,2.65,0,0,0-1.93-.63h-1.53Z"/><path d="M875,179.91h-8.66a2.91,2.91,0,0,0,.73,2,2.33,2.33,0,0,0,1.71.57,3.24,3.24,0,0,0,1.36-.31,2,2,0,0,0,.72-.78h4a5.16,5.16,0,0,1-1.4,2.39,6.34,6.34,0,0,1-4.74,1.61,6.55,6.55,0,0,1-4.8-1.76,6.09,6.09,0,0,1-1.72-4.4,6.23,6.23,0,0,1,1.74-4.5A6.57,6.57,0,0,1,868.7,173a6.37,6.37,0,0,1,4.47,1.59,6.51,6.51,0,0,1,1.85,4.89Zm-3.82-2.39a2.88,2.88,0,0,0-.68-1.25,2.41,2.41,0,0,0-1.72-.62,2.24,2.24,0,0,0-1.69.62,2.43,2.43,0,0,0-.62,1.25Z"/><path d="M877.41,173.33h4.16v1.9a3.68,3.68,0,0,1,1.64-1.61,4.49,4.49,0,0,1,2.16-.47c.1,0,.28,0,.83,0v3.93a3.6,3.6,0,0,0-1.8-.42,2.73,2.73,0,0,0-1.9.63,3.5,3.5,0,0,0-.93,2.65v5h-4.16Z"/><path d="M888,173.33h4.16v1.41a4.47,4.47,0,0,1,3.49-1.62,4.8,4.8,0,0,1,2.23.52,3.72,3.72,0,0,1,1.62,1.67,4,4,0,0,1,1.58-1.61,4.71,4.71,0,0,1,2.42-.58,4.59,4.59,0,0,1,3.22,1.07,4.28,4.28,0,0,1,1.1,3.2V185H903.7v-5.74a3.5,3.5,0,0,0-.6-2.5,1.53,1.53,0,0,0-1.1-.39,1.69,1.69,0,0,0-1.22.47A3,3,0,0,0,900,179V185h-4.16v-5.74a3.72,3.72,0,0,0-.55-2.5,1.61,1.61,0,0,0-1.25-.47,1.46,1.46,0,0,0-1.14.42,3.43,3.43,0,0,0-.73,2.55V185H888Z"/><path d="M912.82,166.16a2.34,2.34,0,1,1-2.34,2.34A2.33,2.33,0,0,1,912.82,166.16Zm2.08,7.17V185h-4.16V173.33Z"/><path d="M918.49,181.11a5.93,5.93,0,0,0,1.66.85,5.18,5.18,0,0,0,1.61.29,1.79,1.79,0,0,0,1.07-.31.68.68,0,0,0,.21-.55.63.63,0,0,0-.21-.52,2.61,2.61,0,0,0-1.09-.41l-1.09-.26a3.69,3.69,0,0,1-2-1,2.83,2.83,0,0,1-.76-2,4.13,4.13,0,0,1,1.1-2.83,5.86,5.86,0,0,1,4.16-1.41,9.45,9.45,0,0,1,3.71.76l-1.4,2.65a5.75,5.75,0,0,0-2.18-.57,1.74,1.74,0,0,0-1,.23.62.62,0,0,0-.36.57.66.66,0,0,0,.49.65c.39.16.73.16,1.38.34l.76.21a4.82,4.82,0,0,1,1.71.91,3.28,3.28,0,0,1,.89,2.31,3.9,3.9,0,0,1-1.17,2.89,6.06,6.06,0,0,1-4.29,1.45A8.58,8.58,0,0,1,917,184Z"/><path d="M931.36,166.16A2.34,2.34,0,1,1,929,168.5,2.33,2.33,0,0,1,931.36,166.16Zm2.08,7.17V185h-4.16V173.33Z"/><path d="M940.43,173.33v6.5a2.21,2.21,0,0,0,.63,1.69,2.1,2.1,0,0,0,1.45.44,1.94,1.94,0,0,0,1.48-.49,2.16,2.16,0,0,0,.6-1.64v-6.5h4.16v7.26a4,4,0,0,1-1.12,3.12,6.63,6.63,0,0,1-5,1.63c-1.75,0-3.88-.18-5.26-1.66a4.2,4.2,0,0,1-1.09-3.09v-7.26Z"/><path d="M951.61,173.33h4.16v1.46a4.39,4.39,0,0,1,3.69-1.72,4.73,4.73,0,0,1,3.44,1.25,4,4,0,0,1,1.09,3.25V185h-4.16v-5.87a3.36,3.36,0,0,0-.52-2.26,1.74,1.74,0,0,0-1.33-.5,2.28,2.28,0,0,0-1.53.55,2.64,2.64,0,0,0-.68,1.84V185h-4.16Z"/><path d="M968.9,166.16a2.34,2.34,0,1,1-2.34,2.34A2.33,2.33,0,0,1,968.9,166.16Zm2.08,7.17V185h-4.16V173.33Z"/><path d="M491.82,460V442.61h5.9a9.7,9.7,0,0,1,6.89,2.39,8.47,8.47,0,0,1,2.42,6.32,8,8,0,0,1-2.26,6,9.41,9.41,0,0,1-6.66,2.62Zm4.5-3.82h.91a5.14,5.14,0,0,0,3.79-1.25,4.67,4.67,0,0,0,1.33-3.56,5.15,5.15,0,0,0-1.35-3.79,5.06,5.06,0,0,0-3.59-1.1h-1.09Z"/><path d="M521.82,454.91h-8.65a3,3,0,0,0,.72,1.95,2.34,2.34,0,0,0,1.72.57,3.21,3.21,0,0,0,1.35-.31,2,2,0,0,0,.73-.78h4a5.19,5.19,0,0,1-1.41,2.39,6.31,6.31,0,0,1-4.73,1.61,6.59,6.59,0,0,1-4.81-1.76,6.6,6.6,0,0,1,0-8.9,6.57,6.57,0,0,1,4.76-1.69,6.37,6.37,0,0,1,4.47,1.59,6.49,6.49,0,0,1,1.84,4.89ZM518,452.52a2.77,2.77,0,0,0-.67-1.25,2.41,2.41,0,0,0-1.72-.62,2.24,2.24,0,0,0-1.69.62,2.28,2.28,0,0,0-.62,1.25Z"/><path d="M525,456.11a5.93,5.93,0,0,0,1.66.85,5.19,5.19,0,0,0,1.62.29,1.78,1.78,0,0,0,1.06-.31.68.68,0,0,0,.21-.55.63.63,0,0,0-.21-.52,2.56,2.56,0,0,0-1.09-.41l-1.09-.26a3.72,3.72,0,0,1-2-1,2.82,2.82,0,0,1-.75-2,4.13,4.13,0,0,1,1.09-2.83,5.86,5.86,0,0,1,4.16-1.41,9.55,9.55,0,0,1,3.72.76l-1.41,2.65a5.75,5.75,0,0,0-2.18-.57,1.71,1.71,0,0,0-1,.23.62.62,0,0,0-.37.57.67.67,0,0,0,.5.65c.39.16.72.16,1.37.34l.76.21a4.74,4.74,0,0,1,1.71.91,3.23,3.23,0,0,1,.89,2.31,3.9,3.9,0,0,1-1.17,2.89,6,6,0,0,1-4.29,1.45,8.58,8.58,0,0,1-4.68-1.35Z"/><path d="M544.55,459.69a6.14,6.14,0,0,1-2.89.65,6.47,6.47,0,0,1-4.58-1.76,6.11,6.11,0,0,1-1.79-4.35,6.31,6.31,0,0,1,1.87-4.49,6.71,6.71,0,0,1,4.68-1.77,6,6,0,0,1,2.71.65v3.48a3.73,3.73,0,0,0-2.16-.75,2.76,2.76,0,0,0-2,.8,2.86,2.86,0,0,0-.8,2,3,3,0,0,0,.72,1.95,2.86,2.86,0,0,0,2.14.88,3.16,3.16,0,0,0,2.13-.78Z"/><path d="M546.91,448.33h4.16v1.9a3.78,3.78,0,0,1,1.64-1.61,4.51,4.51,0,0,1,2.16-.47c.1,0,.28,0,.83.05v3.93a3.59,3.59,0,0,0-1.79-.42,2.72,2.72,0,0,0-1.9.63,3.51,3.51,0,0,0-.94,2.65v5h-4.16Z"/><path d="M559.63,441.16a2.34,2.34,0,1,1-2.34,2.34A2.33,2.33,0,0,1,559.63,441.16Zm2.08,7.17V460h-4.16V448.33Z"/><path d="M568.7,465.91h-4.16V448.33h4.16v1.28a4.36,4.36,0,0,1,3.56-1.67,5.81,5.81,0,0,1,4.14,1.69,6.59,6.59,0,0,1-.11,9.1,5.56,5.56,0,0,1-4,1.61,4.94,4.94,0,0,1-3.61-1.5Zm.68-13.65a2.83,2.83,0,0,0-.81,1.92,2.77,2.77,0,0,0,.81,1.85,2.67,2.67,0,0,0,1.87.78,2.5,2.5,0,0,0,1.84-.78,2.73,2.73,0,0,0,.81-1.85,2.78,2.78,0,0,0-.81-1.92,2.46,2.46,0,0,0-1.84-.78A2.63,2.63,0,0,0,569.38,452.26Z"/><path d="M585.16,451.74V460H581v-8.21h-1.33v-3.41H581v-3.82h4.16v3.82h2.36v3.41Z"/><path d="M600.78,458.42a8,8,0,0,1-10.37,0,5.81,5.81,0,0,1-1.79-4.29,5.72,5.72,0,0,1,1.79-4.26,7.23,7.23,0,0,1,5.17-1.93,7.33,7.33,0,0,1,5.2,1.93,5.73,5.73,0,0,1,1.8,4.26A5.79,5.79,0,0,1,600.78,458.42Zm-7-6.19a2.64,2.64,0,1,0,3.72,3.75,2.57,2.57,0,0,0,.8-1.85,2.83,2.83,0,0,0-.8-1.9,2.68,2.68,0,0,0-3.72,0Z"/><path d="M605,448.33h4.16v1.9a3.68,3.68,0,0,1,1.64-1.61,4.51,4.51,0,0,1,2.16-.47c.1,0,.28,0,.83.05v3.93a3.6,3.6,0,0,0-1.8-.42,2.69,2.69,0,0,0-1.89.63,3.47,3.47,0,0,0-.94,2.65v5H605Z"/><path d="M634.82,460h-4.16v-1.27a4.26,4.26,0,0,1-3.51,1.66,5.57,5.57,0,0,1-4.09-1.61,6.4,6.4,0,0,1-1.87-4.63,6.33,6.33,0,0,1,1.9-4.6,6,6,0,0,1,4.11-1.56,4.59,4.59,0,0,1,3.46,1.51V441h4.16Zm-4.92-3.84a2.8,2.8,0,0,0,.89-2,3.07,3.07,0,0,0-.78-1.87,2.53,2.53,0,0,0-1.9-.78,2.57,2.57,0,0,0-1.85.75,2.85,2.85,0,0,0-.8,2,2.65,2.65,0,0,0,.8,1.82,2.59,2.59,0,0,0,1.85.78A2.81,2.81,0,0,0,629.9,456.11Z"/><path d="M650,454.91h-8.66a3,3,0,0,0,.73,1.95,2.34,2.34,0,0,0,1.72.57,3.21,3.21,0,0,0,1.35-.31,2.05,2.05,0,0,0,.73-.78h4a5.16,5.16,0,0,1-1.4,2.39,6.33,6.33,0,0,1-4.73,1.61,6.57,6.57,0,0,1-4.81-1.76,6.09,6.09,0,0,1-1.72-4.4,6.23,6.23,0,0,1,1.74-4.5,6.59,6.59,0,0,1,4.76-1.69,6.36,6.36,0,0,1,4.47,1.59,6.51,6.51,0,0,1,1.85,4.89Zm-3.82-2.39a2.88,2.88,0,0,0-.68-1.25,2.39,2.39,0,0,0-1.71-.62,2.23,2.23,0,0,0-1.69.62,2.36,2.36,0,0,0-.63,1.25Z"/><path d="M495.9,482.94v8.21h-4.16v-8.21h-1.45v-3.41h1.45V478.1a5.87,5.87,0,0,1,1.59-4.55,6.59,6.59,0,0,1,4.57-1.64,7,7,0,0,1,4.66,1.56,5.29,5.29,0,0,1,1.45,3.9v.6h-4.16v-.39a2.41,2.41,0,0,0-.52-1.56,2.09,2.09,0,0,0-1.45-.52,2,2,0,0,0-1.43.6,2.36,2.36,0,0,0-.55,1.79v1.64h2.91v3.41Zm8.11-3.41v11.62h-4.16V479.53Z"/><path d="M507.37,487.3a5.71,5.71,0,0,0,1.66.86,5.18,5.18,0,0,0,1.61.29,1.79,1.79,0,0,0,1.07-.31.68.68,0,0,0,.21-.55.63.63,0,0,0-.21-.52,2.61,2.61,0,0,0-1.09-.41l-1.09-.26a3.69,3.69,0,0,1-2-1,2.83,2.83,0,0,1-.76-2,4.18,4.18,0,0,1,1.1-2.84,5.85,5.85,0,0,1,4.16-1.4,9.67,9.67,0,0,1,3.71.75l-1.4,2.66a5.75,5.75,0,0,0-2.18-.58,1.74,1.74,0,0,0-1,.24.62.62,0,0,0-.36.57.67.67,0,0,0,.49.65c.39.16.73.16,1.38.34l.76.21a4.82,4.82,0,0,1,1.71.91,3.28,3.28,0,0,1,.89,2.31,3.9,3.9,0,0,1-1.17,2.89,6.06,6.06,0,0,1-4.29,1.45,8.58,8.58,0,0,1-4.68-1.35Zm2,5.15,3.9.42-2.66,4.78-2.6-.31Z"/><path d="M520.24,472.35a2.35,2.35,0,1,1-2.34,2.34A2.33,2.33,0,0,1,520.24,472.35Zm2.08,7.18v11.62h-4.16V479.53Z"/><path d="M537.48,486.11h-8.66a2.91,2.91,0,0,0,.73,1.95,2.33,2.33,0,0,0,1.71.57,3.18,3.18,0,0,0,1.35-.31,2,2,0,0,0,.73-.78h4a5.25,5.25,0,0,1-1.4,2.39,6.34,6.34,0,0,1-4.74,1.61,6.59,6.59,0,0,1-4.81-1.76,6.13,6.13,0,0,1-1.71-4.4,6.23,6.23,0,0,1,1.74-4.5,6.57,6.57,0,0,1,4.76-1.69,6.37,6.37,0,0,1,4.47,1.59,6.51,6.51,0,0,1,1.85,4.89Zm-3.83-2.39a2.77,2.77,0,0,0-.67-1.25,2.42,2.42,0,0,0-1.72-.63,2.25,2.25,0,0,0-1.69.63,2.43,2.43,0,0,0-.62,1.25Z"/><path d="M539.87,479.53H544v1.9a3.68,3.68,0,0,1,1.64-1.61,4.47,4.47,0,0,1,2.15-.47c.11,0,.29,0,.84,0v3.93a3.6,3.6,0,0,0-1.8-.42,2.73,2.73,0,0,0-1.9.63,3.5,3.5,0,0,0-.93,2.65v5h-4.16Z"/><path d="M556.56,479.53h4.16V481a4.38,4.38,0,0,1,3.69-1.72,4.7,4.7,0,0,1,3.43,1.25,4,4,0,0,1,1.1,3.25v7.38h-4.16v-5.87a3.35,3.35,0,0,0-.53-2.27,1.73,1.73,0,0,0-1.32-.49,2.21,2.21,0,0,0-1.53.55,2.64,2.64,0,0,0-.68,1.84v6.24h-4.16Z"/><path d="M571.77,479.53h4.16v1.9a3.68,3.68,0,0,1,1.64-1.61,4.51,4.51,0,0,1,2.16-.47c.1,0,.28,0,.83,0v3.93a3.6,3.6,0,0,0-1.8-.42,2.69,2.69,0,0,0-1.89.63,3.47,3.47,0,0,0-.94,2.65v5h-4.16Z"/><path d="M582.25,490.84a2.7,2.7,0,0,1,1.89-4.6,2.75,2.75,0,0,1,1.93.83,2.49,2.49,0,0,1,.75,1.87,2.51,2.51,0,0,1-.78,1.9,2.62,2.62,0,0,1-3.79,0Z"/><path d="M599.46,485.22a2.66,2.66,0,0,0,.7,1.75,2.4,2.4,0,0,0,1.77.67,2.33,2.33,0,0,0,1.77-.75,2.15,2.15,0,0,0-.16-3,2.74,2.74,0,0,0-1.66-.49,2.29,2.29,0,0,0-.76.11v-3.05a2.23,2.23,0,0,0,1.85-.44,1.64,1.64,0,0,0,.57-1.22,1.93,1.93,0,0,0-.47-1.25,1.83,1.83,0,0,0-1.27-.47,1.76,1.76,0,0,0-1.25.44,2.2,2.2,0,0,0-.6,1.54h-4.18a6.15,6.15,0,0,1,1.69-4,6.93,6.93,0,0,1,8.89-.15,4.67,4.67,0,0,1,1.4,3.35,4.17,4.17,0,0,1-.52,2.13,3,3,0,0,1-1.32,1.33,4.23,4.23,0,0,1,2.05,1.58,4.42,4.42,0,0,1,.73,2.55,5.22,5.22,0,0,1-1.54,3.8,7.12,7.12,0,0,1-5.17,1.84,7,7,0,0,1-5-1.79,6.92,6.92,0,0,1-2.15-4.53Z"/><path d="M501.75,683.43h-5.43v2.89h4.94v3.82h-4.94V697h-4.5V679.61h9.93Z"/><path d="M505.86,678.16a2.34,2.34,0,1,1-2.34,2.34A2.33,2.33,0,0,1,505.86,678.16Zm2.08,7.17V697h-4.16V685.33Z"/><path d="M511.53,693.11a5.93,5.93,0,0,0,1.66.85,5.18,5.18,0,0,0,1.61.29,1.79,1.79,0,0,0,1.07-.31.68.68,0,0,0,.21-.55.63.63,0,0,0-.21-.52,2.61,2.61,0,0,0-1.09-.41l-1.09-.26a3.69,3.69,0,0,1-2-1,2.83,2.83,0,0,1-.76-2,4.13,4.13,0,0,1,1.1-2.83,5.86,5.86,0,0,1,4.16-1.41,9.45,9.45,0,0,1,3.71.76l-1.4,2.65a5.75,5.75,0,0,0-2.18-.57,1.74,1.74,0,0,0-1,.23.62.62,0,0,0-.36.57.66.66,0,0,0,.49.65c.39.16.73.16,1.38.34l.76.21a4.82,4.82,0,0,1,1.71.91,3.28,3.28,0,0,1,.89,2.31,3.9,3.9,0,0,1-1.17,2.89,6.06,6.06,0,0,1-4.29,1.45,8.58,8.58,0,0,1-4.68-1.35Zm2,5.14,3.9.42-2.66,4.78-2.6-.31Z"/><path d="M524.4,678.16a2.34,2.34,0,1,1-2.34,2.34A2.33,2.33,0,0,1,524.4,678.16Zm2.08,7.17V697h-4.16V685.33Z"/><path d="M541.64,691.91H533a2.91,2.91,0,0,0,.73,2,2.33,2.33,0,0,0,1.71.57,3.18,3.18,0,0,0,1.35-.31,2,2,0,0,0,.73-.78h4a5.25,5.25,0,0,1-1.4,2.39,6.34,6.34,0,0,1-4.74,1.61,6.59,6.59,0,0,1-4.81-1.76,6.13,6.13,0,0,1-1.71-4.4,6.23,6.23,0,0,1,1.74-4.5,6.57,6.57,0,0,1,4.76-1.69,6.37,6.37,0,0,1,4.47,1.59,6.51,6.51,0,0,1,1.85,4.89Zm-3.83-2.39a2.77,2.77,0,0,0-.67-1.25,2.41,2.41,0,0,0-1.72-.62,2.24,2.24,0,0,0-1.69.62,2.43,2.43,0,0,0-.62,1.25Z"/><path d="M544,685.33h4.16v1.9a3.68,3.68,0,0,1,1.64-1.61,4.47,4.47,0,0,1,2.15-.47c.11,0,.29,0,.84.05v3.93a3.6,3.6,0,0,0-1.8-.42,2.73,2.73,0,0,0-1.9.63,3.5,3.5,0,0,0-.93,2.65v5H544Z"/><polygon points="766.44 339.89 766.44 398.66 757.97 398.66 775.97 416.66 793.97 398.66 785.5 398.66 785.5 339.89 766.44 339.89" style="fill:none;stroke:#f7931f;stroke-miterlimit:10;stroke-width:7px"/><polygon points="766.44 537.89 766.44 596.66 757.97 596.66 775.97 614.66 793.97 596.66 785.5 596.66 785.5 537.89 766.44 537.89" style="fill:none;stroke:#3a5c84;stroke-miterlimit:10;stroke-width:7px"/><path d="M780.64,466a15.66,15.66,0,0,0-2.7-2.17,16.07,16.07,0,0,0-20,2.17l-14.61,14.62A16.08,16.08,0,0,0,766,503.31l12.06-12.05a1.21,1.21,0,0,0,.34-.82,1.17,1.17,0,0,0-1.16-1.15h-.46a19.31,19.31,0,0,1-7.35-1.42,1.14,1.14,0,0,0-1.25.25l-8.67,8.68a6.89,6.89,0,0,1-9.75-9.74l14.67-14.66a6.89,6.89,0,0,1,9.73,0,4.71,4.71,0,0,0,6.46,0,4.55,4.55,0,0,0,0-6.45Z" style="fill:#f7931f"/><path d="M802.79,443.8a16.08,16.08,0,0,0-22.74,0l-12,12a1.15,1.15,0,0,0,.83,2h.43a19.27,19.27,0,0,1,7.34,1.43,1.14,1.14,0,0,0,1.25-.25l8.64-8.63a6.89,6.89,0,0,1,9.75,9.74l-10.77,10.76-.09.11-3.77,3.74a6.87,6.87,0,0,1-9.73,0,4.71,4.71,0,0,0-6.46,0,4.59,4.59,0,0,0,0,6.48,16,16,0,0,0,4.6,3.21c.24.12.48.21.72.31s.49.19.73.28l.74.24.68.18c.46.12.92.21,1.39.29a16,16,0,0,0,1.71.16h.87l.69-.08c.25,0,.52-.07.81-.07h.39l.8-.11.36-.07.67-.14h.13a16.08,16.08,0,0,0,7.45-4.23l14.62-14.61A16.1,16.1,0,0,0,802.79,443.8Z" style="fill:#f7931f"/><line x1="750.26" y1="722.89" x2="802.14" y2="722.89" style="fill:none;stroke:#3a5c84;stroke-miterlimit:10;stroke-width:7px"/><line x1="750.26" y1="709.46" x2="802.14" y2="709.46" style="fill:none;stroke:#3a5c84;stroke-miterlimit:10;stroke-width:7px"/><line x1="750.26" y1="696.04" x2="802.14" y2="696.04" style="fill:none;stroke:#3a5c84;stroke-miterlimit:10;stroke-width:7px"/><line x1="750.26" y1="682.62" x2="802.14" y2="682.62" style="fill:none;stroke:#3a5c84;stroke-miterlimit:10;stroke-width:7px"/><line x1="750.26" y1="669.19" x2="771.67" y2="669.19" style="fill:none;stroke:#3a5c84;stroke-miterlimit:10;stroke-width:7px"/><path d="M799.43,664.37a7.26,7.26,0,0,1-7.24-7.24V643.55h-45a7.26,7.26,0,0,0-7.24,7.24v76a7.26,7.26,0,0,0,7.24,7.24h57.92a7.26,7.26,0,0,0,7.24-7.24V664.37Z" style="fill:none;stroke:#3a5c84;stroke-miterlimit:10;stroke-width:7px"/><path d="M851.82,460V442.61h5.9a9.7,9.7,0,0,1,6.89,2.39,8.47,8.47,0,0,1,2.42,6.32,8,8,0,0,1-2.26,6,9.41,9.41,0,0,1-6.66,2.62Zm4.5-3.82h.91a5.14,5.14,0,0,0,3.79-1.25,4.67,4.67,0,0,0,1.33-3.56,5.15,5.15,0,0,0-1.35-3.79,5.06,5.06,0,0,0-3.59-1.1h-1.09Z"/><path d="M881.82,454.91h-8.65a3,3,0,0,0,.72,1.95,2.34,2.34,0,0,0,1.72.57,3.21,3.21,0,0,0,1.35-.31,2,2,0,0,0,.73-.78h4a5.19,5.19,0,0,1-1.41,2.39,6.31,6.31,0,0,1-4.73,1.61,6.59,6.59,0,0,1-4.81-1.76,6.6,6.6,0,0,1,0-8.9,6.57,6.57,0,0,1,4.76-1.69,6.37,6.37,0,0,1,4.47,1.59,6.49,6.49,0,0,1,1.84,4.89ZM878,452.52a2.77,2.77,0,0,0-.67-1.25,2.41,2.41,0,0,0-1.72-.62,2.24,2.24,0,0,0-1.69.62,2.28,2.28,0,0,0-.62,1.25Z"/><path d="M885,456.11a5.93,5.93,0,0,0,1.66.85,5.19,5.19,0,0,0,1.62.29,1.78,1.78,0,0,0,1.06-.31.68.68,0,0,0,.21-.55.63.63,0,0,0-.21-.52,2.56,2.56,0,0,0-1.09-.41l-1.09-.26a3.72,3.72,0,0,1-2-1,2.82,2.82,0,0,1-.75-2,4.13,4.13,0,0,1,1.09-2.83,5.86,5.86,0,0,1,4.16-1.41,9.55,9.55,0,0,1,3.72.76l-1.41,2.65a5.75,5.75,0,0,0-2.18-.57,1.71,1.71,0,0,0-1,.23.62.62,0,0,0-.37.57.67.67,0,0,0,.5.65c.39.16.72.16,1.37.34l.76.21a4.74,4.74,0,0,1,1.71.91,3.23,3.23,0,0,1,.89,2.31,3.9,3.9,0,0,1-1.17,2.89,6,6,0,0,1-4.29,1.45,8.58,8.58,0,0,1-4.68-1.35Z"/><path d="M904.55,459.69a6.14,6.14,0,0,1-2.89.65,6.47,6.47,0,0,1-4.58-1.76,6.11,6.11,0,0,1-1.79-4.35,6.31,6.31,0,0,1,1.87-4.49,6.71,6.71,0,0,1,4.68-1.77,6,6,0,0,1,2.71.65v3.48a3.73,3.73,0,0,0-2.16-.75,2.76,2.76,0,0,0-2,.8,2.86,2.86,0,0,0-.8,2,3,3,0,0,0,.72,1.95,2.86,2.86,0,0,0,2.14.88,3.16,3.16,0,0,0,2.13-.78Z"/><path d="M906.91,448.33h4.16v1.9a3.78,3.78,0,0,1,1.64-1.61,4.51,4.51,0,0,1,2.16-.47c.1,0,.28,0,.83.05v3.93a3.59,3.59,0,0,0-1.79-.42,2.72,2.72,0,0,0-1.9.63,3.51,3.51,0,0,0-.94,2.65v5h-4.16Z"/><path d="M919.63,441.16a2.34,2.34,0,1,1-2.34,2.34A2.33,2.33,0,0,1,919.63,441.16Zm2.08,7.17V460h-4.16V448.33Z"/><path d="M928.7,465.91h-4.16V448.33h4.16v1.28a4.36,4.36,0,0,1,3.56-1.67,5.81,5.81,0,0,1,4.14,1.69,6.59,6.59,0,0,1-.11,9.1,5.56,5.56,0,0,1-4,1.61,4.94,4.94,0,0,1-3.61-1.5Zm.68-13.65a2.83,2.83,0,0,0-.81,1.92,2.77,2.77,0,0,0,.81,1.85,2.67,2.67,0,0,0,1.87.78,2.5,2.5,0,0,0,1.84-.78,2.73,2.73,0,0,0,.81-1.85,2.78,2.78,0,0,0-.81-1.92,2.46,2.46,0,0,0-1.84-.78A2.63,2.63,0,0,0,929.38,452.26Z"/><path d="M945.16,451.74V460H941v-8.21h-1.33v-3.41H941v-3.82h4.16v3.82h2.36v3.41Z"/><path d="M960.78,458.42a8,8,0,0,1-10.37,0,5.81,5.81,0,0,1-1.79-4.29,5.72,5.72,0,0,1,1.79-4.26,7.23,7.23,0,0,1,5.17-1.93,7.33,7.33,0,0,1,5.2,1.93,5.73,5.73,0,0,1,1.8,4.26A5.79,5.79,0,0,1,960.78,458.42Zm-7-6.19a2.64,2.64,0,1,0,3.72,3.75,2.57,2.57,0,0,0,.8-1.85,2.83,2.83,0,0,0-.8-1.9,2.68,2.68,0,0,0-3.72,0Z"/><path d="M965,448.33h4.16v1.9a3.68,3.68,0,0,1,1.64-1.61,4.51,4.51,0,0,1,2.16-.47c.1,0,.28,0,.83.05v3.93a3.6,3.6,0,0,0-1.8-.42,2.69,2.69,0,0,0-1.89.63,3.47,3.47,0,0,0-.94,2.65v5H965Z"/><path d="M994.82,460h-4.16v-1.27a4.26,4.26,0,0,1-3.51,1.66,5.57,5.57,0,0,1-4.09-1.61,6.4,6.4,0,0,1-1.87-4.63,6.33,6.33,0,0,1,1.9-4.6,6,6,0,0,1,4.11-1.56,4.59,4.59,0,0,1,3.46,1.51V441h4.16Zm-4.92-3.84a2.8,2.8,0,0,0,.89-2,3.07,3.07,0,0,0-.78-1.87,2.53,2.53,0,0,0-1.9-.78,2.57,2.57,0,0,0-1.85.75,2.85,2.85,0,0,0-.8,2,2.65,2.65,0,0,0,.8,1.82,2.59,2.59,0,0,0,1.85.78A2.81,2.81,0,0,0,989.9,456.11Z"/><path d="M1010,454.91h-8.66a3,3,0,0,0,.73,1.95,2.34,2.34,0,0,0,1.72.57,3.21,3.21,0,0,0,1.35-.31,2.05,2.05,0,0,0,.73-.78h4a5.16,5.16,0,0,1-1.4,2.39,6.33,6.33,0,0,1-4.73,1.61,6.57,6.57,0,0,1-4.81-1.76,6.09,6.09,0,0,1-1.72-4.4,6.23,6.23,0,0,1,1.74-4.5,6.59,6.59,0,0,1,4.76-1.69,6.36,6.36,0,0,1,4.47,1.59,6.51,6.51,0,0,1,1.85,4.89Zm-3.82-2.39a2.88,2.88,0,0,0-.68-1.25,2.39,2.39,0,0,0-1.71-.62,2.23,2.23,0,0,0-1.69.62,2.36,2.36,0,0,0-.63,1.25Z"/><path d="M855.9,482.94v8.21h-4.16v-8.21h-1.45v-3.41h1.45V478.1a5.87,5.87,0,0,1,1.59-4.55,6.59,6.59,0,0,1,4.57-1.64,7,7,0,0,1,4.66,1.56,5.29,5.29,0,0,1,1.45,3.9v.6h-4.16v-.39a2.41,2.41,0,0,0-.52-1.56,2.09,2.09,0,0,0-1.45-.52,2,2,0,0,0-1.43.6,2.36,2.36,0,0,0-.55,1.79v1.64h2.91v3.41Zm8.11-3.41v11.62h-4.16V479.53Z"/><path d="M867.37,487.3a5.71,5.71,0,0,0,1.66.86,5.18,5.18,0,0,0,1.61.29,1.79,1.79,0,0,0,1.07-.31.68.68,0,0,0,.21-.55.63.63,0,0,0-.21-.52,2.61,2.61,0,0,0-1.09-.41l-1.09-.26a3.69,3.69,0,0,1-2-1,2.83,2.83,0,0,1-.76-2,4.18,4.18,0,0,1,1.1-2.84,5.85,5.85,0,0,1,4.16-1.4,9.67,9.67,0,0,1,3.71.75l-1.4,2.66a5.75,5.75,0,0,0-2.18-.58,1.74,1.74,0,0,0-1,.24.62.62,0,0,0-.36.57.67.67,0,0,0,.49.65c.39.16.73.16,1.38.34l.76.21a4.82,4.82,0,0,1,1.71.91,3.28,3.28,0,0,1,.89,2.31,3.9,3.9,0,0,1-1.17,2.89,6.06,6.06,0,0,1-4.29,1.45,8.58,8.58,0,0,1-4.68-1.35Zm2,5.15,3.9.42-2.66,4.78-2.6-.31Z"/><path d="M880.24,472.35a2.35,2.35,0,1,1-2.34,2.34A2.33,2.33,0,0,1,880.24,472.35Zm2.08,7.18v11.62h-4.16V479.53Z"/><path d="M897.48,486.11h-8.66a2.91,2.91,0,0,0,.73,1.95,2.33,2.33,0,0,0,1.71.57,3.18,3.18,0,0,0,1.35-.31,2,2,0,0,0,.73-.78h4a5.25,5.25,0,0,1-1.4,2.39,6.34,6.34,0,0,1-4.74,1.61,6.59,6.59,0,0,1-4.81-1.76,6.13,6.13,0,0,1-1.71-4.4,6.23,6.23,0,0,1,1.74-4.5,6.57,6.57,0,0,1,4.76-1.69,6.37,6.37,0,0,1,4.47,1.59,6.51,6.51,0,0,1,1.85,4.89Zm-3.83-2.39a2.77,2.77,0,0,0-.67-1.25,2.42,2.42,0,0,0-1.72-.63,2.25,2.25,0,0,0-1.69.63,2.43,2.43,0,0,0-.62,1.25Z"/><path d="M899.87,479.53H904v1.9a3.68,3.68,0,0,1,1.64-1.61,4.47,4.47,0,0,1,2.15-.47c.11,0,.29,0,.84,0v3.93a3.6,3.6,0,0,0-1.8-.42,2.73,2.73,0,0,0-1.9.63,3.5,3.5,0,0,0-.93,2.65v5h-4.16Z"/><path d="M916.56,479.53h4.16V481a4.38,4.38,0,0,1,3.69-1.72,4.7,4.7,0,0,1,3.43,1.25,4,4,0,0,1,1.1,3.25v7.38h-4.16v-5.87a3.35,3.35,0,0,0-.53-2.27,1.73,1.73,0,0,0-1.32-.49,2.21,2.21,0,0,0-1.53.55,2.64,2.64,0,0,0-.68,1.84v6.24h-4.16Z"/><path d="M931.77,479.53h4.16v1.9a3.68,3.68,0,0,1,1.64-1.61,4.51,4.51,0,0,1,2.16-.47c.1,0,.28,0,.83,0v3.93a3.6,3.6,0,0,0-1.8-.42,2.69,2.69,0,0,0-1.89.63,3.47,3.47,0,0,0-.94,2.65v5h-4.16Z"/><path d="M942.25,490.84a2.7,2.7,0,0,1,1.89-4.6,2.75,2.75,0,0,1,1.93.83,2.49,2.49,0,0,1,.75,1.87,2.51,2.51,0,0,1-.78,1.9,2.62,2.62,0,0,1-3.79,0Z"/><path d="M967,484.42h2.11v3.46H967v3.27h-4.16v-3.27h-8.4V485l6.69-11.18H967Zm-4.16,0v-7.07l-4.08,7.07Z"/><path d="M861.75,683.43h-5.43v2.89h4.94v3.82h-4.94V697h-4.5V679.61h9.93Z"/><path d="M865.86,678.16a2.34,2.34,0,1,1-2.34,2.34A2.33,2.33,0,0,1,865.86,678.16Zm2.08,7.17V697h-4.16V685.33Z"/><path d="M871.53,693.11a5.93,5.93,0,0,0,1.66.85,5.18,5.18,0,0,0,1.61.29,1.79,1.79,0,0,0,1.07-.31.68.68,0,0,0,.21-.55.63.63,0,0,0-.21-.52,2.61,2.61,0,0,0-1.09-.41l-1.09-.26a3.69,3.69,0,0,1-2-1,2.83,2.83,0,0,1-.76-2,4.13,4.13,0,0,1,1.1-2.83,5.86,5.86,0,0,1,4.16-1.41,9.45,9.45,0,0,1,3.71.76l-1.4,2.65a5.75,5.75,0,0,0-2.18-.57,1.74,1.74,0,0,0-1,.23.62.62,0,0,0-.36.57.66.66,0,0,0,.49.65c.39.16.73.16,1.38.34l.76.21a4.82,4.82,0,0,1,1.71.91,3.28,3.28,0,0,1,.89,2.31,3.9,3.9,0,0,1-1.17,2.89,6.06,6.06,0,0,1-4.29,1.45,8.58,8.58,0,0,1-4.68-1.35Zm2,5.14,3.9.42-2.66,4.78-2.6-.31Z"/><path d="M884.4,678.16a2.34,2.34,0,1,1-2.34,2.34A2.33,2.33,0,0,1,884.4,678.16Zm2.08,7.17V697h-4.16V685.33Z"/><path d="M901.64,691.91H893a2.91,2.91,0,0,0,.73,2,2.33,2.33,0,0,0,1.71.57,3.18,3.18,0,0,0,1.35-.31,2,2,0,0,0,.73-.78h4a5.25,5.25,0,0,1-1.4,2.39,6.34,6.34,0,0,1-4.74,1.61,6.59,6.59,0,0,1-4.81-1.76,6.13,6.13,0,0,1-1.71-4.4,6.23,6.23,0,0,1,1.74-4.5,6.57,6.57,0,0,1,4.76-1.69,6.37,6.37,0,0,1,4.47,1.59,6.51,6.51,0,0,1,1.85,4.89Zm-3.83-2.39a2.77,2.77,0,0,0-.67-1.25,2.41,2.41,0,0,0-1.72-.62,2.24,2.24,0,0,0-1.69.62,2.43,2.43,0,0,0-.62,1.25Z"/><path d="M904,685.33h4.16v1.9a3.68,3.68,0,0,1,1.64-1.61,4.47,4.47,0,0,1,2.15-.47c.11,0,.29,0,.84.05v3.93a3.6,3.6,0,0,0-1.8-.42,2.73,2.73,0,0,0-1.9.63,3.5,3.5,0,0,0-.93,2.65v5H904Z"/><line x1="371" y1="428" x2="461" y2="518" style="fill:none;stroke:#c13018;stroke-miterlimit:10;stroke-width:14px"/><line x1="371" y1="518" x2="461" y2="428" style="fill:none;stroke:#c13018;stroke-miterlimit:10;stroke-width:14px"/></svg>