<svg id="Layer_1" data-name="Layer 1" xmlns="http://www.w3.org/2000/svg" viewBox="0 0 1269 711"><title>Cap 4 -</title><rect x="537.73" y="323.23" width="202.05" height="54.1" rx="12" ry="12" style="fill:none;stroke:#3a5c84;stroke-miterlimit:10;stroke-width:5.09927258360473px"/><circle cx="564.72" cy="350.6" r="11.92" style="fill:#f7931f"/><circle cx="707.72" cy="350.6" r="11.92" style="fill:#f7931f"/><path d="M604.41,349.69h4.48v2a4,4,0,0,1,1.76-1.73,4.86,4.86,0,0,1,2.33-.51l.89.06v4.23a3.83,3.83,0,0,0-1.93-.45,2.91,2.91,0,0,0-2,.67,3.79,3.79,0,0,0-1,2.86v5.34h-4.48Z"/><path d="M629.13,356.77h-9.32a3.17,3.17,0,0,0,.78,2.1,2.52,2.52,0,0,0,1.85.62,3.55,3.55,0,0,0,1.46-.34,2.06,2.06,0,0,0,.78-.84H629a5.66,5.66,0,0,1-1.52,2.58,6.81,6.81,0,0,1-5.09,1.73,7.1,7.1,0,0,1-5.18-1.9,6.55,6.55,0,0,1-1.85-4.73,6.67,6.67,0,0,1,1.88-4.85,7.07,7.07,0,0,1,5.12-1.82,6.87,6.87,0,0,1,4.82,1.71,7,7,0,0,1,2,5.27ZM625,354.2a3,3,0,0,0-.73-1.35,2.6,2.6,0,0,0-1.85-.67,2.44,2.44,0,0,0-1.82.67,2.54,2.54,0,0,0-.67,1.35Z"/><path d="M641.4,349.69h4.48V362.2H641.4v-1.37a4.67,4.67,0,0,1-3.89,1.79,6,6,0,0,1-4.51-2,6.3,6.3,0,0,1-1.79-4.6,6.92,6.92,0,0,1,1.93-5,6.44,6.44,0,0,1,4.51-1.76,5,5,0,0,1,3.75,1.62Zm-4.71,4.2a3,3,0,0,0-.89,2,2.91,2.91,0,0,0,.87,2.05,3.17,3.17,0,0,0,2,.84,2.88,2.88,0,0,0,2-.87,2.73,2.73,0,0,0,.84-2,2.76,2.76,0,0,0-.87-2,2.85,2.85,0,0,0-4,0Z"/><path d="M663.13,362.2h-4.48v-1.37a4.58,4.58,0,0,1-3.78,1.79,6,6,0,0,1-4.4-1.73,6.91,6.91,0,0,1-2-5,6.81,6.81,0,0,1,2-4.95,6.37,6.37,0,0,1,4.42-1.68,5,5,0,0,1,3.73,1.62v-9.1h4.48Zm-5.3-4.14a3,3,0,0,0,1-2.13,3.29,3.29,0,0,0-.84-2,2.73,2.73,0,0,0-2.05-.84,2.77,2.77,0,0,0-2,.81,3.08,3.08,0,0,0-.86,2.13,2.86,2.86,0,0,0,.86,2,2.82,2.82,0,0,0,2,.84A3,3,0,0,0,657.83,358.06Z"/><rect x="537.73" y="377.23" width="202.05" height="54.1" rx="12" ry="12" style="fill:none;stroke:#3a5c84;stroke-miterlimit:10;stroke-width:5.09927258360473px"/><circle cx="564.72" cy="404.6" r="11.92" style="fill:none;stroke:#3a5c84;stroke-miterlimit:10;stroke-width:4.50863456726074px"/><circle cx="707.72" cy="404.6" r="11.92" style="fill:none;stroke:#3a5c84;stroke-miterlimit:10;stroke-width:4.50863456726074px"/><path d="M607.88,400.69l3,6.61,3.16-6.61h2.75l3.16,6.8,3.14-6.8h5l-6.55,12.51h-3l-3.14-6.88-3,6.88h-3l-6.44-12.51Z"/><path d="M629.58,400.69h4.48v2a4,4,0,0,1,1.77-1.73,4.8,4.8,0,0,1,2.32-.51l.9.06v4.23a3.89,3.89,0,0,0-1.94-.45,2.92,2.92,0,0,0-2,.67,3.79,3.79,0,0,0-1,2.86v5.34h-4.48Z"/><path d="M643.27,393a2.52,2.52,0,1,1-2.52,2.52A2.51,2.51,0,0,1,643.27,393Zm2.24,7.73V413.2H641V400.69Z"/><path d="M653.52,404.36v8.84H649v-8.84h-1.43v-3.67H649v-4.12h4.48v4.12h2.55v3.67Z"/><path d="M671,407.77H661.7a3.17,3.17,0,0,0,.78,2.1,2.52,2.52,0,0,0,1.85.62,3.55,3.55,0,0,0,1.46-.34,2.13,2.13,0,0,0,.78-.84h4.28a5.54,5.54,0,0,1-1.51,2.58,6.81,6.81,0,0,1-5.09,1.73,7.08,7.08,0,0,1-5.18-1.9,6.51,6.51,0,0,1-1.85-4.73,6.71,6.71,0,0,1,1.87-4.85,7.09,7.09,0,0,1,5.13-1.82A6.85,6.85,0,0,1,669,402a7,7,0,0,1,2,5.27Zm-4.11-2.57a3.17,3.17,0,0,0-.73-1.35,2.6,2.6,0,0,0-1.85-.67,2.43,2.43,0,0,0-1.82.67,2.54,2.54,0,0,0-.67,1.35Z"/><rect x="537.73" y="431.23" width="202.05" height="89.55" rx="12" ry="12" style="fill:none;stroke:#3a5c84;stroke-miterlimit:10;stroke-width:5.09927258360473px"/><circle cx="564.72" cy="478.6" r="11.92" style="fill:#f7931f"/><circle cx="707.72" cy="478.6" r="11.92" style="fill:#f7931f"/><path d="M604.3,457.12h4.16V459a3.73,3.73,0,0,1,1.64-1.61,4.51,4.51,0,0,1,2.16-.47c.1,0,.28,0,.83.05v3.93a3.72,3.72,0,0,0-1.8-.42,2.69,2.69,0,0,0-1.89.63,3.48,3.48,0,0,0-.94,2.65v5H604.3Z"/><path d="M627.26,463.7H618.6a2.89,2.89,0,0,0,.73,1.95,2.33,2.33,0,0,0,1.71.57,3.21,3.21,0,0,0,1.36-.31,1.83,1.83,0,0,0,.72-.78h4a5.16,5.16,0,0,1-1.4,2.39,6.28,6.28,0,0,1-4.73,1.62,6.58,6.58,0,0,1-4.81-1.77,6.09,6.09,0,0,1-1.72-4.4,6.18,6.18,0,0,1,1.74-4.49,6.53,6.53,0,0,1,4.76-1.69,6.36,6.36,0,0,1,4.47,1.58,6.51,6.51,0,0,1,1.85,4.89Zm-3.82-2.39a2.88,2.88,0,0,0-.68-1.25,2.45,2.45,0,0,0-1.72-.62,2.26,2.26,0,0,0-1.69.62,2.43,2.43,0,0,0-.62,1.25Z"/><path d="M638.65,457.12h4.16v11.63h-4.16v-1.28a4.35,4.35,0,0,1-3.62,1.67,5.56,5.56,0,0,1-4.18-1.85,5.86,5.86,0,0,1-1.67-4.26,6.43,6.43,0,0,1,1.8-4.66,6,6,0,0,1,4.18-1.64,4.65,4.65,0,0,1,3.49,1.51Zm-4.37,3.9a2.73,2.73,0,0,0-.83,1.9,2.67,2.67,0,0,0,.8,1.9,2.9,2.9,0,0,0,1.87.78,2.68,2.68,0,0,0,1.88-.81,2.52,2.52,0,0,0,.78-1.87A2.6,2.6,0,0,0,638,461a2.64,2.64,0,0,0-3.69,0Z"/><path d="M658.82,468.75h-4.16v-1.28a4.26,4.26,0,0,1-3.51,1.67,5.55,5.55,0,0,1-4.08-1.62,6.59,6.59,0,0,1,0-9.23,5.93,5.93,0,0,1,4.1-1.56,4.61,4.61,0,0,1,3.46,1.51v-8.45h4.16Zm-4.91-3.85a2.83,2.83,0,0,0,.88-2,3,3,0,0,0-.78-1.87,2.67,2.67,0,0,0-3.74,0,2.86,2.86,0,0,0-.81,2,2.62,2.62,0,0,0,.81,1.82,2.59,2.59,0,0,0,1.84.78A2.84,2.84,0,0,0,653.91,464.9Z"/><path d="M661.55,460h6.58v3.45h-6.58Z"/><path d="M607.52,488.32l2.76,6.14,2.94-6.14h2.55l2.94,6.32,2.91-6.32h4.63L620.16,500h-2.81l-2.91-6.4-2.78,6.4h-2.81l-6-11.63Z"/><path d="M627.67,488.32h4.16v1.9a3.78,3.78,0,0,1,1.64-1.61,4.54,4.54,0,0,1,2.16-.47c.1,0,.29,0,.83.05v3.93a3.59,3.59,0,0,0-1.79-.42,2.72,2.72,0,0,0-1.9.63,3.52,3.52,0,0,0-.94,2.65v5h-4.16Z"/><path d="M640.39,481.15a2.34,2.34,0,1,1-2.34,2.34A2.33,2.33,0,0,1,640.39,481.15Zm2.08,7.17V500h-4.16V488.32Z"/><path d="M649.9,491.73V500h-4.16v-8.22h-1.32v-3.41h1.32V484.5h4.16v3.82h2.37v3.41Z"/><path d="M666.15,494.9H657.5a2.93,2.93,0,0,0,.72,2,2.34,2.34,0,0,0,1.72.57,3.21,3.21,0,0,0,1.35-.31,1.85,1.85,0,0,0,.73-.78h4a5.19,5.19,0,0,1-1.41,2.39,6.27,6.27,0,0,1-4.73,1.61,6.59,6.59,0,0,1-4.81-1.76,6.6,6.6,0,0,1,0-8.9,6.57,6.57,0,0,1,4.76-1.69,6.37,6.37,0,0,1,4.47,1.59,6.49,6.49,0,0,1,1.84,4.89Zm-3.82-2.39a2.77,2.77,0,0,0-.67-1.25,2.41,2.41,0,0,0-1.72-.62,2.24,2.24,0,0,0-1.69.62,2.28,2.28,0,0,0-.62,1.25Z"/><polygon points="529.14 102.55 479.82 102.43 479.81 109.57 464.67 94.36 479.88 79.22 479.86 86 529.18 86.12 529.19 78.98 544.33 94.19 529.12 109.33 529.14 102.55" style="fill:none;stroke:#c13018;stroke-miterlimit:10;stroke-width:5.03437504018295px"/><rect x="585.38" y="57.74" width="104.21" height="73.51" rx="12" ry="12" style="fill:none;stroke:#3a5c84;stroke-miterlimit:10;stroke-width:7px"/><path d="M617.55,87.07A3.93,3.93,0,0,1,616.49,90a.27.27,0,0,0,0,.27l1.29,2.7a.21.21,0,0,0,.24.14,3.93,3.93,0,0,1,4.2,3.79.26.26,0,0,0,.16.22l2.82,1h.05a.18.18,0,0,0,.23-.08,4.33,4.33,0,0,1,.58-.55l0,0,.29-.19a1.71,1.71,0,0,1,.23-.13l.11-.06a3.9,3.9,0,0,1,4.39.67.22.22,0,0,0,.27,0l2.7-1.29h0a.24.24,0,0,0,.14-.23,3.94,3.94,0,0,1,1-2.91,3.88,3.88,0,0,1,1.5-1l.08,0,.15,0,.25-.07h0A4.79,4.79,0,0,1,638,92a.23.23,0,0,0,.22-.16l1-2.82a.25.25,0,0,0-.07-.26,3.91,3.91,0,0,1-.3-5.65.23.23,0,0,0,0-.27L638,81h0l-.4-.85-.07-.07h0l0,0-.1,0h0a3.93,3.93,0,0,1-4.2-3.79A.26.26,0,0,0,633,76l-2.82-1a.2.2,0,0,0-.26.07h0a4.08,4.08,0,0,1-.89.77l-.07,0c-.09.06-.18.1-.27.15a3.76,3.76,0,0,1-1.52.39,3.89,3.89,0,0,1-2.88-1,.23.23,0,0,0-.27,0l-2.7,1.29a.23.23,0,0,0-.13.23,4,4,0,0,1-1,2.91,3.92,3.92,0,0,1-2.79,1.29.22.22,0,0,0-.22.16l-.69,2h0l-.31.89a.25.25,0,0,0,.07.26A4,4,0,0,1,617.55,87.07Zm6.13-4.78,0,0A3.23,3.23,0,0,1,624,82l.19-.16a.47.47,0,0,0,.09-.06,5.81,5.81,0,1,1,5.83,10,4.89,4.89,0,0,1-.48.2h0a5.82,5.82,0,0,1-5.93-9.73Z" style="fill:#3a5c84"/><path d="M631.05,108.21a5,5,0,0,1-1.35,3.7.32.32,0,0,0-.06.35l1.66,3.47a.27.27,0,0,0,.3.18,5,5,0,0,1,3.73,1.28,5,5,0,0,1,1.67,3.58.31.31,0,0,0,.2.28l3.62,1.28a.16.16,0,0,0,.07,0,.25.25,0,0,0,.29-.1,5.12,5.12,0,0,1,.76-.71l0,0,.37-.26.3-.16a.61.61,0,0,1,.14-.07,4.94,4.94,0,0,1,1.93-.51,5.1,5.1,0,0,1,3.71,1.36.26.26,0,0,0,.34,0l3.47-1.65h0a.31.31,0,0,0,.18-.29,5,5,0,0,1,3.2-5.06l.11,0,.2-.06.31-.09h0a5.15,5.15,0,0,1,1-.13.33.33,0,0,0,.28-.21l1.28-3.63a.28.28,0,0,0-.09-.33,5,5,0,0,1-.38-7.25.32.32,0,0,0,.06-.35l-1.14-2.38h0l-.52-1.09a.26.26,0,0,0-.09-.09h0l0,0a.17.17,0,0,0-.12,0h0a5,5,0,0,1-5.4-4.87.32.32,0,0,0-.21-.28l-3.62-1.28a.26.26,0,0,0-.34.09h0a4.91,4.91,0,0,1-1.16,1l-.09,0-.33.19a5.07,5.07,0,0,1-5.66-.85.29.29,0,0,0-.34-.05l-3.47,1.65a.31.31,0,0,0-.18.3,5,5,0,0,1-4.86,5.4.27.27,0,0,0-.28.21l-.89,2.51a0,0,0,0,1,0,0l-.4,1.14a.34.34,0,0,0,.09.34A5,5,0,0,1,631.05,108.21Zm7.88-6.14.05,0a3.07,3.07,0,0,1,.34-.29l.25-.21.11-.07a7.47,7.47,0,1,1,7.49,12.84,6.57,6.57,0,0,1-.61.26h0a7.47,7.47,0,0,1-7.61-12.49Z" style="fill:#3a5c84"/><path d="M636.47,74.88a2.65,2.65,0,0,1-.72,2,.15.15,0,0,0,0,.18l.88,1.85a.14.14,0,0,0,.16.09,2.62,2.62,0,0,1,2,.68,2.71,2.71,0,0,1,.89,1.9.15.15,0,0,0,.1.15l1.93.68h0a.15.15,0,0,0,.16,0,2.4,2.4,0,0,1,.4-.38s0,0,0,0l.19-.14.16-.08a.2.2,0,0,1,.08,0,2.53,2.53,0,0,1,1-.27,2.67,2.67,0,0,1,2,.72.13.13,0,0,0,.18,0l1.84-.88h0a.16.16,0,0,0,.1-.16,2.63,2.63,0,0,1,.68-2,2.66,2.66,0,0,1,1-.7l.06,0,.1,0,.17,0h0a4.34,4.34,0,0,1,.52-.07.17.17,0,0,0,.15-.11l.68-1.92a.18.18,0,0,0-.05-.18,2.67,2.67,0,0,1-.2-3.85.17.17,0,0,0,0-.18l-.61-1.27h0l-.27-.58,0,0h0l-.06,0h0a2.68,2.68,0,0,1-2.87-2.58.15.15,0,0,0-.11-.15l-1.92-.68a.14.14,0,0,0-.18,0h0a2.76,2.76,0,0,1-.61.52l0,0-.18.09a2.46,2.46,0,0,1-1,.27,2.65,2.65,0,0,1-2-.72.17.17,0,0,0-.18,0l-1.85.88a.16.16,0,0,0-.09.16,2.67,2.67,0,0,1-2.58,2.86c-.05,0-.11,0-.15.11l-.47,1.33h0l-.21.6a.17.17,0,0,0,0,.18A2.7,2.7,0,0,1,636.47,74.88Zm4.18-3.25,0,0,.18-.15a.69.69,0,0,1,.13-.11l.06,0a4,4,0,1,1,4,6.82,2.26,2.26,0,0,1-.33.13h0a4,4,0,0,1-4-6.63Z" style="fill:#3a5c84"/><path d="M715.79,98.59v7.07h-5.55V84.32h8.85a7.38,7.38,0,0,1,5.43,1.92,6.63,6.63,0,0,1,2,5.18,6.92,6.92,0,0,1-1.9,5.31,7.14,7.14,0,0,1-5.32,1.86Zm0-4.48h1.86a3.66,3.66,0,0,0,2.34-.67,2.42,2.42,0,0,0,.71-2,2.56,2.56,0,0,0-.64-1.92,3.24,3.24,0,0,0-2.38-.77h-1.89Z"/><path d="M729,91.36h5.13v2.33a4.57,4.57,0,0,1,2-2,5.56,5.56,0,0,1,2.66-.58c.13,0,.36,0,1,.07V96a4.48,4.48,0,0,0-2.21-.51,3.31,3.31,0,0,0-2.34.77,4.27,4.27,0,0,0-1.16,3.26v6.11H729Z"/><path d="M755.9,103.77a9.83,9.83,0,0,1-12.8,0,7.34,7.34,0,0,1,0-10.52,8.91,8.91,0,0,1,6.38-2.37,9.08,9.08,0,0,1,6.42,2.37,7,7,0,0,1,2.21,5.24A7.12,7.12,0,0,1,755.9,103.77Zm-8.7-7.61a3.25,3.25,0,1,0,4.59,4.6,3.14,3.14,0,0,0,1-2.27,3.45,3.45,0,0,0-1-2.33,3.3,3.3,0,0,0-4.59,0Z"/><path d="M771.91,105.34a7.67,7.67,0,0,1-3.56.8A7.9,7.9,0,0,1,762.7,104a7.45,7.45,0,0,1-2.21-5.34,7.8,7.8,0,0,1,2.3-5.54,8.29,8.29,0,0,1,5.78-2.17,7.4,7.4,0,0,1,3.34.8V96a4.62,4.62,0,0,0-2.67-.93,3.38,3.38,0,0,0-2.5,1,3.48,3.48,0,0,0-1,2.46,3.66,3.66,0,0,0,.9,2.4,3.45,3.45,0,0,0,2.63,1.09,3.9,3.9,0,0,0,2.63-1Z"/><path d="M790,99.45H779.35a3.61,3.61,0,0,0,.9,2.4,2.88,2.88,0,0,0,2.12.71,4.13,4.13,0,0,0,1.66-.39,2.28,2.28,0,0,0,.9-1h4.91a6.41,6.41,0,0,1-1.73,3c-1.06,1-2.73,2-5.84,2a8.17,8.17,0,0,1-5.94-2.18,7.45,7.45,0,0,1-2.11-5.4A7.65,7.65,0,0,1,776.37,93a8.09,8.09,0,0,1,5.87-2.08,7.87,7.87,0,0,1,5.52,2,8,8,0,0,1,2.27,6Zm-4.71-2.94a3.42,3.42,0,0,0-.84-1.54,3,3,0,0,0-2.11-.76,2.78,2.78,0,0,0-2.09.76,3,3,0,0,0-.77,1.54Z"/><path d="M793.92,100.92A7.14,7.14,0,0,0,796,102a6.79,6.79,0,0,0,2,.35,2.16,2.16,0,0,0,1.31-.38.82.82,0,0,0,.26-.67.74.74,0,0,0-.26-.64,3.06,3.06,0,0,0-1.34-.51l-1.35-.33a4.59,4.59,0,0,1-2.5-1.24,3.45,3.45,0,0,1-.93-2.47,5.1,5.1,0,0,1,1.34-3.48,7.28,7.28,0,0,1,5.14-1.73,12,12,0,0,1,4.59.92l-1.74,3.27a7.06,7.06,0,0,0-2.69-.7,2.18,2.18,0,0,0-1.19.28.77.77,0,0,0-.45.71.84.84,0,0,0,.61.8c.48.19.9.19,1.7.41l.93.26A6,6,0,0,1,803.51,98a4,4,0,0,1,1.09,2.85,4.8,4.8,0,0,1-1.44,3.55,7.5,7.5,0,0,1-5.3,1.79,10.62,10.62,0,0,1-5.77-1.66Z"/><rect x="55.18" y="41.5" width="365.32" height="639.5" rx="12" ry="12" style="fill:none;stroke:#3a5c84;stroke-miterlimit:10;stroke-width:8.10511394845257px"/><path d="M270.56,290a7.39,7.39,0,0,0-5.26-2.18A7.4,7.4,0,0,0,260,290l-6.76,6.77a7.44,7.44,0,0,0,10.52,10.53l5.59-5.58a.54.54,0,0,0,.15-.38.53.53,0,0,0-.53-.53h-.21a9,9,0,0,1-3.41-.66.52.52,0,0,0-.58.12l-4,4a3.2,3.2,0,1,1-4.52-4.52l6.79-6.78a3.18,3.18,0,0,1,4.51,0,2.18,2.18,0,0,0,3,0,2.1,2.1,0,0,0,0-3Z" style="fill:#f7931f"/><path d="M280.82,279.77a7.44,7.44,0,0,0-10.53,0l-5.58,5.57a.54.54,0,0,0-.11.59.51.51,0,0,0,.5.32h.2a9,9,0,0,1,3.39.67.54.54,0,0,0,.58-.12l4-4a3.19,3.19,0,0,1,4.51,4.52l-5,5-.05.05L271,294.08a3.2,3.2,0,0,1-4.51,0,2.12,2.12,0,0,0-3.61,1.36,2.13,2.13,0,0,0,.62,1.64,7.51,7.51,0,0,0,2.13,1.49l.33.14.34.13.34.11.32.09.64.13a7,7,0,0,0,.79.07h.41l.32,0c.11,0,.24,0,.37,0h.18l.37-.06.17,0,.31-.06h.06a7.5,7.5,0,0,0,3.45-2l6.77-6.77A7.44,7.44,0,0,0,280.82,279.77Z" style="fill:#f7931f"/><path d="M270.56,360.53a7.39,7.39,0,0,0-5.26-2.18,7.4,7.4,0,0,0-5.27,2.18l-6.76,6.77a7.44,7.44,0,0,0,10.52,10.53l5.59-5.58a.54.54,0,0,0,.15-.38.53.53,0,0,0-.53-.53h-.21a9,9,0,0,1-3.41-.66.52.52,0,0,0-.58.12l-4,4a3.2,3.2,0,1,1-4.52-4.52l6.79-6.78a3.18,3.18,0,0,1,4.51,0,2.18,2.18,0,0,0,3,0,2.1,2.1,0,0,0,0-3Z" style="fill:#f7931f"/><path d="M280.82,350.27a7.44,7.44,0,0,0-10.53,0l-5.58,5.57a.54.54,0,0,0-.11.59.51.51,0,0,0,.5.32h.2a9,9,0,0,1,3.39.67.54.54,0,0,0,.58-.12l4-4a3.19,3.19,0,0,1,4.51,4.52l-5,5-.05.05L271,364.58a3.2,3.2,0,0,1-4.51,0,2.12,2.12,0,0,0-3.61,1.36,2.13,2.13,0,0,0,.62,1.64,7.51,7.51,0,0,0,2.13,1.49l.33.14.34.13.34.11.32.09.64.13a7,7,0,0,0,.79.07h.41l.32,0c.11,0,.24,0,.37,0h.18l.37-.06.17,0,.31-.06h.06a7.5,7.5,0,0,0,3.45-2l6.77-6.77A7.44,7.44,0,0,0,280.82,350.27Z" style="fill:#f7931f"/><path d="M270.56,431a7.39,7.39,0,0,0-5.26-2.18A7.4,7.4,0,0,0,260,431l-6.76,6.77a7.44,7.44,0,0,0,10.52,10.53l5.59-5.58a.54.54,0,0,0,.15-.38.53.53,0,0,0-.53-.53h-.21a9,9,0,0,1-3.41-.66.52.52,0,0,0-.58.12l-4,4a3.2,3.2,0,1,1-4.52-4.52l6.79-6.78a3.18,3.18,0,0,1,4.51,0,2.18,2.18,0,0,0,3,0,2.1,2.1,0,0,0,0-3Z" style="fill:#636868"/><path d="M280.82,420.77a7.44,7.44,0,0,0-10.53,0l-5.58,5.57a.54.54,0,0,0-.11.59.51.51,0,0,0,.5.32h.2a9,9,0,0,1,3.39.67.54.54,0,0,0,.58-.12l4-4a3.19,3.19,0,0,1,4.51,4.52l-5,5-.05.05L271,435.08a3.2,3.2,0,0,1-4.51,0,2.12,2.12,0,0,0-3.61,1.36,2.13,2.13,0,0,0,.62,1.64,7.51,7.51,0,0,0,2.13,1.49l.33.14.34.13.34.11.32.09.64.13a7,7,0,0,0,.79.07h.41l.32,0c.11,0,.24,0,.37,0h.18l.37-.06.17,0,.31-.06h.06a7.5,7.5,0,0,0,3.45-2l6.77-6.77A7.44,7.44,0,0,0,280.82,420.77Z" style="fill:#636868"/><path d="M270.56,501.53a7.39,7.39,0,0,0-5.26-2.18,7.4,7.4,0,0,0-5.27,2.18l-6.76,6.77a7.44,7.44,0,0,0,10.52,10.53l5.59-5.58a.54.54,0,0,0,.15-.38.53.53,0,0,0-.53-.53h-.21a9,9,0,0,1-3.41-.66.52.52,0,0,0-.58.12l-4,4a3.2,3.2,0,1,1-4.52-4.52l6.79-6.78a3.18,3.18,0,0,1,4.51,0,2.18,2.18,0,0,0,3,0,2.1,2.1,0,0,0,0-3Z" style="fill:#636868"/><path d="M280.82,491.27a7.44,7.44,0,0,0-10.53,0l-5.58,5.57a.54.54,0,0,0-.11.59.51.51,0,0,0,.5.32h.2a9,9,0,0,1,3.39.67.54.54,0,0,0,.58-.12l4-4a3.19,3.19,0,0,1,4.51,4.52l-5,5-.05.05L271,505.58a3.2,3.2,0,0,1-4.51,0,2.12,2.12,0,0,0-3.61,1.36,2.13,2.13,0,0,0,.62,1.64,7.51,7.51,0,0,0,2.13,1.49l.33.14.34.13.34.11.32.09.64.13a7,7,0,0,0,.79.07h.41l.32,0c.11,0,.24,0,.37,0h.18l.37-.06.17,0,.31-.06h.06a7.5,7.5,0,0,0,3.45-2l6.77-6.77A7.44,7.44,0,0,0,280.82,491.27Z" style="fill:#636868"/><path d="M270.56,572a7.39,7.39,0,0,0-5.26-2.18A7.4,7.4,0,0,0,260,572l-6.76,6.77a7.44,7.44,0,0,0,10.52,10.53l5.59-5.58a.54.54,0,0,0,.15-.38.53.53,0,0,0-.53-.53h-.21a9,9,0,0,1-3.41-.66.52.52,0,0,0-.58.12l-4,4a3.2,3.2,0,0,1-4.52-4.52l6.79-6.78a3.18,3.18,0,0,1,4.51,0,2.18,2.18,0,0,0,3,0,2.1,2.1,0,0,0,0-3Z" style="fill:#636868"/><path d="M280.82,561.77a7.44,7.44,0,0,0-10.53,0l-5.58,5.57a.54.54,0,0,0-.11.59.51.51,0,0,0,.5.32h.2a9,9,0,0,1,3.39.67.54.54,0,0,0,.58-.12l4-4a3.19,3.19,0,1,1,4.51,4.52l-5,5-.05.05L271,576.08a3.2,3.2,0,0,1-4.51,0,2.12,2.12,0,0,0-3.61,1.36,2.13,2.13,0,0,0,.62,1.64,7.51,7.51,0,0,0,2.13,1.49l.33.14.34.13.34.11.32.09.64.13a7,7,0,0,0,.79.07h.41l.32,0c.11,0,.24,0,.37,0h.18l.37-.06.17,0,.31-.06h.06a7.5,7.5,0,0,0,3.45-2l6.77-6.77A7.44,7.44,0,0,0,280.82,561.77Z" style="fill:#636868"/><path d="M138.94,80.26V58.91h7.26c2.15,0,5.73.29,8.48,3a10.4,10.4,0,0,1,3,7.77A9.87,9.87,0,0,1,154.88,77a11.6,11.6,0,0,1-8.2,3.24Zm5.54-4.71h1.12A6.4,6.4,0,0,0,150.27,74a5.86,5.86,0,0,0,1.63-4.39A6.4,6.4,0,0,0,150.24,65a6.26,6.26,0,0,0-4.42-1.34h-1.34Z"/><path d="M175.87,74.05H165.21a3.61,3.61,0,0,0,.9,2.4,2.88,2.88,0,0,0,2.11.7,4,4,0,0,0,1.66-.38,2.34,2.34,0,0,0,.9-1h4.89A6.39,6.39,0,0,1,174,78.75c-1.06,1-2.72,2-5.83,2a8.13,8.13,0,0,1-5.92-2.18,8.09,8.09,0,0,1,0-10.94,8,8,0,0,1,5.85-2.08,7.81,7.81,0,0,1,5.5,1.95,8,8,0,0,1,2.28,6Zm-4.71-3a3.37,3.37,0,0,0-.83-1.53,3,3,0,0,0-2.11-.77,2.73,2.73,0,0,0-2.08.77,2.93,2.93,0,0,0-.77,1.53Z"/><path d="M179.74,75.52a7.4,7.4,0,0,0,2,1.06,6.78,6.78,0,0,0,2,.35,2.15,2.15,0,0,0,1.31-.39.79.79,0,0,0,.26-.67.75.75,0,0,0-.26-.64,3.18,3.18,0,0,0-1.34-.51l-1.34-.32a4.62,4.62,0,0,1-2.5-1.25,3.45,3.45,0,0,1-.93-2.46,5.11,5.11,0,0,1,1.35-3.49,7.2,7.2,0,0,1,5.12-1.73,11.8,11.8,0,0,1,4.57.93l-1.73,3.27A6.89,6.89,0,0,0,185.6,69a2.18,2.18,0,0,0-1.19.29.76.76,0,0,0-.45.7.83.83,0,0,0,.61.8c.48.19.9.19,1.7.42l.92.25a6.29,6.29,0,0,1,2.12,1.12,4.09,4.09,0,0,1,1.09,2.85A4.78,4.78,0,0,1,189,78.94a7.44,7.44,0,0,1-5.28,1.8,10.51,10.51,0,0,1-5.76-1.67Z"/><path d="M203.83,79.94a7.59,7.59,0,0,1-3.55.8,7.9,7.9,0,0,1-5.63-2.18,7.49,7.49,0,0,1-2.21-5.34,7.79,7.79,0,0,1,2.31-5.54,8.23,8.23,0,0,1,5.76-2.18,7.46,7.46,0,0,1,3.32.8v4.29a4.53,4.53,0,0,0-2.65-.92,3.32,3.32,0,0,0-2.5,1,3.48,3.48,0,0,0-1,2.46,3.66,3.66,0,0,0,.9,2.4,3.48,3.48,0,0,0,2.62,1.09,3.84,3.84,0,0,0,2.62-1Z"/><path d="M206.75,66h5.12v2.34a4.63,4.63,0,0,1,2-2,5.68,5.68,0,0,1,2.66-.57l1,.06v4.84a4.44,4.44,0,0,0-2.21-.52,3.35,3.35,0,0,0-2.33.77,4.3,4.3,0,0,0-1.15,3.26v6.12h-5.12Z"/><path d="M222.39,57.12A2.88,2.88,0,1,1,219.51,60,2.87,2.87,0,0,1,222.39,57.12ZM225,66V80.26h-5.12V66Z"/><path d="M233.56,87.58h-5.12V66h5.12v1.57a5.35,5.35,0,0,1,4.39-2A7.11,7.11,0,0,1,243,67.55a8.12,8.12,0,0,1-.12,11.2,6.88,6.88,0,0,1-4.9,2,6.11,6.11,0,0,1-4.45-1.86Zm.83-16.8a3.21,3.21,0,0,0,0,4.64,3.27,3.27,0,0,0,2.31,1,3.09,3.09,0,0,0,2.27-1,3.38,3.38,0,0,0,1-2.27,3.49,3.49,0,0,0-1-2.37,3.13,3.13,0,0,0-2.27-1A3.31,3.31,0,0,0,234.39,70.78Z"/><path d="M253.82,70.14V80.26H248.7V70.14h-1.63V66h1.63v-4.7h5.12V66h2.91v4.19Z"/><path d="M273.05,78.37a9.79,9.79,0,0,1-12.77,0,7.38,7.38,0,0,1,0-10.53,9.79,9.79,0,0,1,12.77,0,7.38,7.38,0,0,1,0,10.53Zm-8.67-7.62a3.18,3.18,0,0,0,0,4.61,3.26,3.26,0,0,0,2.3,1,3.23,3.23,0,0,0,2.27-1,3.17,3.17,0,0,0,1-2.27,3.49,3.49,0,0,0-1-2.34,3.27,3.27,0,0,0-4.57,0Z"/><path d="M278.2,66h5.12v2.34a4.65,4.65,0,0,1,2-2,5.61,5.61,0,0,1,2.65-.57l1,.06v4.84a4.48,4.48,0,0,0-2.21-.52,3.39,3.39,0,0,0-2.34.77,4.34,4.34,0,0,0-1.15,3.26v6.12H278.2Z"/><path d="M293.85,57.12A2.88,2.88,0,1,1,291,60,2.87,2.87,0,0,1,293.85,57.12ZM296.41,66V80.26h-5.12V66Z"/><path d="M323.54,80.26h-5.12V78.69a5.26,5.26,0,0,1-4.32,2,6.86,6.86,0,0,1-5-2,8.13,8.13,0,0,1,0-11.36,7.35,7.35,0,0,1,5.06-1.92,5.64,5.64,0,0,1,4.25,1.86V56.93h5.12Zm-6-4.74a3.44,3.44,0,0,0,1.08-2.43,3.73,3.73,0,0,0-1-2.31,3.14,3.14,0,0,0-2.33-1,3.1,3.1,0,0,0-2.27.93,3.5,3.5,0,0,0-1,2.43,3.2,3.2,0,0,0,1,2.24,3.14,3.14,0,0,0,2.27,1A3.52,3.52,0,0,0,317.5,75.52Z"/><path d="M342.23,74.05H331.58a3.6,3.6,0,0,0,.89,2.4,2.88,2.88,0,0,0,2.11.7,4.06,4.06,0,0,0,1.67-.38,2.32,2.32,0,0,0,.89-1H342a6.34,6.34,0,0,1-1.73,2.94c-1.05,1-2.72,2-5.82,2a8.11,8.11,0,0,1-5.92-2.18,7.49,7.49,0,0,1-2.11-5.41,7.6,7.6,0,0,1,2.14-5.53,8,8,0,0,1,5.86-2.08,7.84,7.84,0,0,1,5.5,1.95,8,8,0,0,1,2.27,6Zm-4.7-3a3.47,3.47,0,0,0-.83-1.53,3,3,0,0,0-2.12-.77,2.74,2.74,0,0,0-2.08.77,2.85,2.85,0,0,0-.76,1.53Z"/><path d="M92.08,108.54v10.12H87V108.54h-1.8v-4.19H87v-1.76a7.21,7.21,0,0,1,2-5.6,8.11,8.11,0,0,1,5.63-2,8.63,8.63,0,0,1,5.73,1.92,6.53,6.53,0,0,1,1.79,4.8v.73H96.94V102A3,3,0,0,0,96.3,100a2.65,2.65,0,0,0-1.79-.64,2.45,2.45,0,0,0-1.76.74,2.94,2.94,0,0,0-.67,2.21v2h3.58v4.19Zm10-4.19v14.31H96.94V104.35Z"/><path d="M106.19,113.92a7.4,7.4,0,0,0,2,1.06,6.78,6.78,0,0,0,2,.35,2.17,2.17,0,0,0,1.31-.39.79.79,0,0,0,.26-.67.75.75,0,0,0-.26-.64,3.18,3.18,0,0,0-1.34-.51l-1.35-.32a4.63,4.63,0,0,1-2.49-1.25,3.41,3.41,0,0,1-.93-2.46,5.1,5.1,0,0,1,1.34-3.49,7.23,7.23,0,0,1,5.12-1.73,11.81,11.81,0,0,1,4.58.93l-1.73,3.27a7.07,7.07,0,0,0-2.69-.71,2.17,2.17,0,0,0-1.18.29.76.76,0,0,0-.45.7.83.83,0,0,0,.61.8c.48.19.9.19,1.7.42l.92.26a6.1,6.1,0,0,1,2.12,1.11,4.09,4.09,0,0,1,1.08,2.85,4.75,4.75,0,0,1-1.44,3.55,7.41,7.41,0,0,1-5.28,1.8,10.53,10.53,0,0,1-5.76-1.67Zm2.49,6.34,4.8.51-3.26,5.89-3.2-.39Z"/><path d="M122,95.52a2.88,2.88,0,1,1-2.88,2.88A2.87,2.87,0,0,1,122,95.52Zm2.56,8.83v14.31h-5.12V104.35Z"/><path d="M143.24,112.45H132.59a3.65,3.65,0,0,0,.89,2.4,2.89,2.89,0,0,0,2.12.7,4.06,4.06,0,0,0,1.66-.38,2.4,2.4,0,0,0,.9-1h4.89a6.34,6.34,0,0,1-1.73,2.94c-1,1-2.72,2-5.82,2a8.11,8.11,0,0,1-5.92-2.18,7.49,7.49,0,0,1-2.11-5.41,7.6,7.6,0,0,1,2.14-5.53,8.08,8.08,0,0,1,5.86-2.08,7.84,7.84,0,0,1,5.5,2,8,8,0,0,1,2.27,6Zm-4.7-3a3.47,3.47,0,0,0-.83-1.53,3,3,0,0,0-2.11-.77,2.72,2.72,0,0,0-2.08.77,2.83,2.83,0,0,0-.77,1.53Z"/><path d="M146.19,104.35h5.12v2.34a4.6,4.6,0,0,1,2-2,5.56,5.56,0,0,1,2.66-.58l1,.06V109a4.44,4.44,0,0,0-2.21-.52,3.36,3.36,0,0,0-2.33.77,4.3,4.3,0,0,0-1.15,3.26v6.12h-5.12Z"/><path d="M171.85,126h-5.12V104.35h5.12v1.57a5.35,5.35,0,0,1,4.38-2,7.12,7.12,0,0,1,5.09,2.08,8.11,8.11,0,0,1-.13,11.2,6.86,6.86,0,0,1-4.89,2,6.11,6.11,0,0,1-4.45-1.86Zm.83-16.8a3.51,3.51,0,0,0-1,2.37,3.46,3.46,0,0,0,1,2.27,3.27,3.27,0,0,0,2.31,1,3.09,3.09,0,0,0,2.27-1,3.38,3.38,0,0,0,1-2.27,3.51,3.51,0,0,0-1-2.37,3.13,3.13,0,0,0-2.27-1A3.31,3.31,0,0,0,172.68,109.18Z"/><path d="M201.61,112.45H191a3.61,3.61,0,0,0,.9,2.4,2.88,2.88,0,0,0,2.11.7,4.06,4.06,0,0,0,1.67-.38,2.32,2.32,0,0,0,.89-1h4.9a6.43,6.43,0,0,1-1.73,2.94c-1.06,1-2.72,2-5.82,2A8.11,8.11,0,0,1,188,117a7.49,7.49,0,0,1-2.12-5.41A7.6,7.6,0,0,1,188,106a8,8,0,0,1,5.85-2.08,7.84,7.84,0,0,1,5.51,2,8,8,0,0,1,2.27,6Zm-4.7-3a3.39,3.39,0,0,0-.84-1.53,3,3,0,0,0-2.11-.77,2.74,2.74,0,0,0-2.08.77,3,3,0,0,0-.77,1.53Z"/><path d="M204.55,104.35h5.12v1.8a5.4,5.4,0,0,1,4.55-2.12,5.79,5.79,0,0,1,4.22,1.54,4.92,4.92,0,0,1,1.35,4v9.09h-5.12v-7.24a4.1,4.1,0,0,0-.64-2.78,2.16,2.16,0,0,0-1.64-.61,2.74,2.74,0,0,0-1.88.68,3.22,3.22,0,0,0-.84,2.27v7.68h-5.12Z"/><path d="M228.94,108.54v10.12h-5.12V108.54h-1.63v-4.19h1.63v-4.7h5.12v4.7h2.91v4.19Z"/><path d="M233.77,104.35h5.12v2.34a4.57,4.57,0,0,1,2-2,5.49,5.49,0,0,1,2.65-.58l1,.06V109a4.48,4.48,0,0,0-2.21-.52,3.39,3.39,0,0,0-2.34.77,4.3,4.3,0,0,0-1.15,3.26v6.12h-5.12Z"/><path d="M252,104.35v8a2.71,2.71,0,0,0,.77,2.08,2.63,2.63,0,0,0,1.79.55,2.4,2.4,0,0,0,1.82-.61,2.67,2.67,0,0,0,.74-2v-8h5.12v8.93a4.91,4.91,0,0,1-1.38,3.84c-1.76,1.82-4.22,2-6.17,2-2.15,0-4.77-.23-6.47-2a5.13,5.13,0,0,1-1.34-3.81v-8.93Z"/><path d="M279.21,111.58v7.08h-5.54V97.31h8.83a7.38,7.38,0,0,1,5.41,1.92,6.62,6.62,0,0,1,2,5.19,7,7,0,0,1-1.89,5.31,7.12,7.12,0,0,1-5.31,1.85Zm0-4.47h1.85a3.61,3.61,0,0,0,2.34-.68,2.44,2.44,0,0,0,.7-2,2.59,2.59,0,0,0-.64-1.92,3.25,3.25,0,0,0-2.36-.77h-1.89Z"/><path d="M292.36,104.35h5.12v2.34a4.57,4.57,0,0,1,2-2,5.49,5.49,0,0,1,2.65-.58l1,.06V109a4.48,4.48,0,0,0-2.21-.52,3.39,3.39,0,0,0-2.34.77,4.3,4.3,0,0,0-1.15,3.26v6.12h-5.12Z"/><path d="M319.21,116.77a9.79,9.79,0,0,1-12.77,0,7.38,7.38,0,0,1,0-10.53,9.79,9.79,0,0,1,12.77,0,7.38,7.38,0,0,1,0,10.53Zm-8.67-7.62a3.18,3.18,0,0,0,0,4.61,3.2,3.2,0,0,0,4.57,0,3.16,3.16,0,0,0,1-2.27,3.48,3.48,0,0,0-1-2.34,3.27,3.27,0,0,0-4.57,0Z"/><path d="M335.18,118.34a7.64,7.64,0,0,1-3.55.8A7.93,7.93,0,0,1,326,117a7.49,7.49,0,0,1-2.2-5.34,7.79,7.79,0,0,1,2.3-5.54,8.24,8.24,0,0,1,5.76-2.17,7.36,7.36,0,0,1,3.33.8V109a4.59,4.59,0,0,0-2.66-.92,3.34,3.34,0,0,0-2.5,1,3.48,3.48,0,0,0-1,2.46,3.66,3.66,0,0,0,.9,2.4,3.48,3.48,0,0,0,2.62,1.09,3.88,3.88,0,0,0,2.63-1Z"/><path d="M353.26,112.45H342.6a3.61,3.61,0,0,0,.9,2.4,2.88,2.88,0,0,0,2.11.7,4,4,0,0,0,1.66-.38,2.4,2.4,0,0,0,.9-1h4.89a6.39,6.39,0,0,1-1.72,2.94c-1.06,1-2.72,2-5.83,2a8.11,8.11,0,0,1-5.92-2.18,8.09,8.09,0,0,1,0-10.94,8,8,0,0,1,5.85-2.08,7.82,7.82,0,0,1,5.5,2,8,8,0,0,1,2.28,6Zm-4.71-3a3.47,3.47,0,0,0-.83-1.53,3,3,0,0,0-2.11-.77,2.72,2.72,0,0,0-2.08.77,3,3,0,0,0-.77,1.53Z"/><path d="M357.13,113.92a7.4,7.4,0,0,0,2.05,1.06,6.78,6.78,0,0,0,2,.35,2.17,2.17,0,0,0,1.31-.39.79.79,0,0,0,.26-.67.75.75,0,0,0-.26-.64,3.18,3.18,0,0,0-1.34-.51l-1.35-.32a4.63,4.63,0,0,1-2.49-1.25,3.41,3.41,0,0,1-.93-2.46,5.1,5.1,0,0,1,1.34-3.49,7.23,7.23,0,0,1,5.12-1.73,11.81,11.81,0,0,1,4.58.93l-1.73,3.27a7.07,7.07,0,0,0-2.69-.71,2.17,2.17,0,0,0-1.18.29.76.76,0,0,0-.45.7.83.83,0,0,0,.61.8c.48.19.9.19,1.7.42l.92.26a6.1,6.1,0,0,1,2.12,1.11,4.09,4.09,0,0,1,1.08,2.85,4.75,4.75,0,0,1-1.44,3.55,7.41,7.41,0,0,1-5.28,1.8,10.53,10.53,0,0,1-5.76-1.67Z"/><path d="M383.59,102h-3V97.31h8.58v21.35h-5.54Z"/><line x1="55" y1="260.5" x2="420" y2="260.5" style="fill:none;stroke:#3a5c84;stroke-miterlimit:10;stroke-width:7px"/><line x1="55" y1="134.5" x2="420" y2="134.5" style="fill:none;stroke:#3a5c84;stroke-miterlimit:10;stroke-width:7px"/><line x1="124.5" y1="262" x2="124.5" y2="681" style="fill:none;stroke:#3a5c84;stroke-miterlimit:10;stroke-width:7px"/><path d="M84.28,645.49a1.93,1.93,0,0,1,1.46.61,2,2,0,0,1,0,2.92,1.93,1.93,0,0,1-1.46.61,2,2,0,0,1-1.45-.61,2.1,2.1,0,0,1,0-2.92A2,2,0,0,1,84.28,645.49Z"/><path d="M93.16,645.49a2.07,2.07,0,0,1,0,4.14,2.07,2.07,0,0,1,0-4.14Z"/><path d="M102,645.49a1.93,1.93,0,0,1,1.45.61,2,2,0,0,1,0,2.92,1.93,1.93,0,0,1-1.45.61,2.07,2.07,0,0,1,0-4.14Z"/><rect x="857.18" y="183.5" width="365.32" height="477" rx="12" ry="12" style="fill:none;stroke:#3a5c84;stroke-miterlimit:10;stroke-width:7px"/><path d="M980.15,209.12v16.64h-5.53V209.12h-4.55v-4.71H984.7v4.71Z"/><path d="M996.57,211.45h5.12v14.31h-5.12v-1.57a5.36,5.36,0,0,1-4.45,2.05A6.85,6.85,0,0,1,987,224a7.19,7.19,0,0,1-2.05-5.24,7.92,7.92,0,0,1,2.21-5.73,7.35,7.35,0,0,1,5.15-2,5.68,5.68,0,0,1,4.29,1.86Zm-5.38,4.8a3.36,3.36,0,0,0-1,2.34,3.27,3.27,0,0,0,1,2.33,3.57,3.57,0,0,0,2.3,1,3.28,3.28,0,0,0,2.31-1,3.1,3.1,0,0,0,1-2.3,3.17,3.17,0,0,0-1-2.34,3.25,3.25,0,0,0-4.55,0Z"/><path d="M1010.33,202.43v10.4a5.66,5.66,0,0,1,4.25-1.86,7.35,7.35,0,0,1,5.06,1.92,8.1,8.1,0,0,1,0,11.36,6.84,6.84,0,0,1-5,2,5.27,5.27,0,0,1-4.32-2.05v1.57h-5.12V202.43Zm5.41,18.49a3.23,3.23,0,0,0,1-2.24,3.54,3.54,0,0,0-1-2.43,3.28,3.28,0,0,0-4.61,0,3.79,3.79,0,0,0-1,2.31,3.41,3.41,0,0,0,1.09,2.43,3.47,3.47,0,0,0,2.2.86A3.17,3.17,0,0,0,1015.74,220.92Z"/><path d="M1040.09,219.55h-10.66a3.61,3.61,0,0,0,.9,2.4,2.88,2.88,0,0,0,2.11.7,4.09,4.09,0,0,0,1.67-.38,2.39,2.39,0,0,0,.89-1h4.9a6.52,6.52,0,0,1-1.73,2.94c-1.06,1-2.72,2-5.83,2a8.11,8.11,0,0,1-5.91-2.18,7.49,7.49,0,0,1-2.12-5.41,7.6,7.6,0,0,1,2.15-5.53,8,8,0,0,1,5.85-2.08,7.84,7.84,0,0,1,5.51,2,8,8,0,0,1,2.27,6Zm-4.71-3a3.28,3.28,0,0,0-.83-1.53,3,3,0,0,0-2.11-.77,2.74,2.74,0,0,0-2.08.77,2.93,2.93,0,0,0-.77,1.53Z"/><path d="M1048.15,202.43v23.33H1043V202.43Z"/><path d="M1062.71,211.45h5.12v14.31h-5.12v-1.57a5.35,5.35,0,0,1-4.45,2.05,6.85,6.85,0,0,1-5.15-2.28,7.22,7.22,0,0,1-2-5.24,7.92,7.92,0,0,1,2.2-5.73,7.36,7.36,0,0,1,5.15-2,5.67,5.67,0,0,1,4.29,1.86Zm-5.37,4.8a3.2,3.2,0,0,0,0,4.67,3.57,3.57,0,0,0,2.31,1,3.28,3.28,0,0,0,2.3-1,3.1,3.1,0,0,0,1-2.3,3.17,3.17,0,0,0-1-2.34,3.24,3.24,0,0,0-4.54,0Z"/><path d="M1095,225.76h-5.12v-1.57a5.27,5.27,0,0,1-4.32,2.05,6.84,6.84,0,0,1-5-2,8.1,8.1,0,0,1,0-11.36,7.32,7.32,0,0,1,5-1.92,5.67,5.67,0,0,1,4.26,1.86v-10.4H1095Zm-6-4.74a3.45,3.45,0,0,0,1.09-2.43,3.79,3.79,0,0,0-1-2.31,3.18,3.18,0,0,0-2.34-1,3.14,3.14,0,0,0-2.27.93,3.54,3.54,0,0,0-1,2.43,3.23,3.23,0,0,0,1,2.24,3.17,3.17,0,0,0,2.27,1A3.47,3.47,0,0,0,1089,221Z"/><path d="M1113.69,219.55H1103a3.61,3.61,0,0,0,.9,2.4,2.88,2.88,0,0,0,2.11.7,4,4,0,0,0,1.66-.38,2.34,2.34,0,0,0,.9-1h4.9a6.52,6.52,0,0,1-1.73,2.94c-1.06,1-2.72,2-5.83,2a8.13,8.13,0,0,1-5.92-2.18,8.09,8.09,0,0,1,0-10.94,8,8,0,0,1,5.85-2.08,7.84,7.84,0,0,1,5.51,2,8,8,0,0,1,2.27,6Zm-4.71-3a3.28,3.28,0,0,0-.83-1.53,3,3,0,0,0-2.11-.77,2.73,2.73,0,0,0-2.08.77,2.93,2.93,0,0,0-.77,1.53Z"/><path d="M1004.22,254v10.12H999.1V254h-1.8v-4.19h1.8v-1.76a7.21,7.21,0,0,1,1.95-5.6,8.11,8.11,0,0,1,5.63-2,8.63,8.63,0,0,1,5.73,1.92,6.53,6.53,0,0,1,1.79,4.8v.73h-5.12v-.48a3,3,0,0,0-.64-1.92,2.65,2.65,0,0,0-1.79-.64,2.45,2.45,0,0,0-1.76.74,2.94,2.94,0,0,0-.67,2.21v2h3.58V254Zm10-4.19v14.31h-5.12V249.85Z"/><path d="M1018.33,259.42a7.4,7.4,0,0,0,2,1.06,6.78,6.78,0,0,0,2,.35,2.17,2.17,0,0,0,1.31-.39.79.79,0,0,0,.26-.67.75.75,0,0,0-.26-.64,3.18,3.18,0,0,0-1.34-.51l-1.35-.32a4.63,4.63,0,0,1-2.49-1.25,3.45,3.45,0,0,1-.93-2.46,5.15,5.15,0,0,1,1.34-3.49,7.23,7.23,0,0,1,5.12-1.73,11.81,11.81,0,0,1,4.58.93l-1.73,3.27a7.07,7.07,0,0,0-2.69-.71,2.17,2.17,0,0,0-1.18.29.76.76,0,0,0-.45.7.83.83,0,0,0,.61.8c.48.19.9.19,1.7.42l.92.26a6.1,6.1,0,0,1,2.12,1.11,4.09,4.09,0,0,1,1.08,2.85,4.75,4.75,0,0,1-1.44,3.55,7.41,7.41,0,0,1-5.28,1.8,10.53,10.53,0,0,1-5.76-1.67Zm2.49,6.34,4.81.51-3.27,5.89-3.2-.39Z"/><path d="M1034.17,241a2.88,2.88,0,1,1-2.88,2.88A2.87,2.87,0,0,1,1034.17,241Zm2.56,8.83v14.31h-5.12V249.85Z"/><path d="M1055.38,258h-10.65a3.65,3.65,0,0,0,.89,2.4,2.89,2.89,0,0,0,2.12.7,4.06,4.06,0,0,0,1.66-.38,2.4,2.4,0,0,0,.9-1h4.89a6.34,6.34,0,0,1-1.73,2.94c-1,1-2.72,2-5.82,2a8.11,8.11,0,0,1-5.92-2.18,7.49,7.49,0,0,1-2.11-5.41,7.6,7.6,0,0,1,2.14-5.53,8.08,8.08,0,0,1,5.86-2.08,7.82,7.82,0,0,1,5.5,1.95,8,8,0,0,1,2.27,6Zm-4.7-2.95a3.47,3.47,0,0,0-.83-1.53,3,3,0,0,0-2.11-.77,2.72,2.72,0,0,0-2.08.77,2.83,2.83,0,0,0-.77,1.53Z"/><path d="M1058.33,249.85h5.12v2.34a4.6,4.6,0,0,1,2-2,5.56,5.56,0,0,1,2.66-.58l1,.06v4.84a4.43,4.43,0,0,0-2.2-.52,3.37,3.37,0,0,0-2.34.77,4.3,4.3,0,0,0-1.15,3.26v6.12h-5.12Z"/><path d="M1086.58,258h-10.65a3.65,3.65,0,0,0,.89,2.4,2.89,2.89,0,0,0,2.12.7,4.06,4.06,0,0,0,1.66-.38,2.4,2.4,0,0,0,.9-1h4.89a6.34,6.34,0,0,1-1.73,2.94c-1.05,1-2.72,2-5.82,2a8.11,8.11,0,0,1-5.92-2.18,7.49,7.49,0,0,1-2.11-5.41,7.6,7.6,0,0,1,2.14-5.53,8.08,8.08,0,0,1,5.86-2.08,7.82,7.82,0,0,1,5.5,1.95,8,8,0,0,1,2.27,6Zm-4.7-2.95a3.47,3.47,0,0,0-.83-1.53,3,3,0,0,0-2.11-.77,2.72,2.72,0,0,0-2.08.77,2.83,2.83,0,0,0-.77,1.53Z"/><line x1="857" y1="281" x2="1222" y2="281" style="fill:none;stroke:#3a5c84;stroke-miterlimit:10;stroke-width:7px"/><path d="M928.47,322h3.67L917.8,347.68h-3.64Z"/><path d="M948.63,337H939.3a3.18,3.18,0,0,0,.79,2.1,2.52,2.52,0,0,0,1.85.62,3.51,3.51,0,0,0,1.45-.34,2.15,2.15,0,0,0,.79-.84h4.28A5.72,5.72,0,0,1,947,341.1a6.84,6.84,0,0,1-5.1,1.73,7.1,7.1,0,0,1-5.18-1.9,6.55,6.55,0,0,1-1.85-4.73,6.72,6.72,0,0,1,1.88-4.85,7,7,0,0,1,5.12-1.82,6.86,6.86,0,0,1,4.82,1.71,7,7,0,0,1,2,5.26Zm-4.12-2.58a3,3,0,0,0-.73-1.34,2.58,2.58,0,0,0-1.84-.67,2.38,2.38,0,0,0-1.82.67,2.59,2.59,0,0,0-.68,1.34Z"/><path d="M956.16,333.56v8.85h-4.48v-8.85h-1.43V329.9h1.43v-4.12h4.48v4.12h2.55v3.66Z"/><path d="M969.85,342.13a6.6,6.6,0,0,1-3.11.7,6.88,6.88,0,0,1-4.92-1.9,6.55,6.55,0,0,1-1.94-4.68,6.8,6.8,0,0,1,2-4.84,7.23,7.23,0,0,1,5-1.91,6.43,6.43,0,0,1,2.91.7V334a4,4,0,0,0-2.32-.82,2.94,2.94,0,0,0-2.19.87,3.08,3.08,0,0,0-.86,2.16,3.22,3.22,0,0,0,.78,2.1,3,3,0,0,0,2.3,1,3.38,3.38,0,0,0,2.29-.84Z"/><path d="M984.33,322H988l-14.34,25.68H970Z"/><path d="M995.7,348.82h-4.48V329.9h4.48v1.37a4.66,4.66,0,0,1,3.83-1.79,6.2,6.2,0,0,1,4.45,1.82,7.09,7.09,0,0,1-.11,9.8,6,6,0,0,1-4.28,1.73,5.34,5.34,0,0,1-3.89-1.62Zm.72-14.7a3.06,3.06,0,0,0-.86,2.08,3,3,0,0,0,.86,2,2.85,2.85,0,0,0,2,.84,2.69,2.69,0,0,0,2-.84,3,3,0,0,0,.87-2,3.07,3.07,0,0,0-.87-2.08,2.73,2.73,0,0,0-2-.84A2.89,2.89,0,0,0,996.42,334.12Z"/><path d="M1018.15,329.9h4.48v12.51h-4.48V341a4.66,4.66,0,0,1-3.89,1.79,6,6,0,0,1-4.51-2,6.3,6.3,0,0,1-1.79-4.59,6.92,6.92,0,0,1,1.93-5,6.48,6.48,0,0,1,4.51-1.76,4.93,4.93,0,0,1,3.75,1.62Zm-4.7,4.2a2.79,2.79,0,0,0,0,4.08,3.15,3.15,0,0,0,2,.84,2.86,2.86,0,0,0,2-.86,2.84,2.84,0,0,0,0-4.06,2.81,2.81,0,0,0-4,0Z"/><path d="M1026.52,338.27a6.39,6.39,0,0,0,1.8.92,5.71,5.71,0,0,0,1.73.31,1.85,1.85,0,0,0,1.15-.34.68.68,0,0,0,.22-.58.64.64,0,0,0-.22-.56,2.68,2.68,0,0,0-1.18-.45l-1.17-.28a4.11,4.11,0,0,1-2.19-1.09,3.08,3.08,0,0,1-.81-2.16A4.48,4.48,0,0,1,1027,331a6.31,6.31,0,0,1,4.48-1.51,10.28,10.28,0,0,1,4,.81l-1.51,2.85a6.22,6.22,0,0,0-2.35-.61,1.88,1.88,0,0,0-1,.25.68.68,0,0,0-.39.62.74.74,0,0,0,.53.7c.42.16.79.16,1.49.36l.81.22a5.44,5.44,0,0,1,1.85,1,3.58,3.58,0,0,1,.95,2.5,4.17,4.17,0,0,1-1.26,3.1,6.51,6.51,0,0,1-4.62,1.57,9.26,9.26,0,0,1-5-1.45Z"/><path d="M1039,338.27a6.21,6.21,0,0,0,1.79.92,5.71,5.71,0,0,0,1.73.31,1.85,1.85,0,0,0,1.15-.34.69.69,0,0,0,.23-.58.65.65,0,0,0-.23-.56,2.68,2.68,0,0,0-1.17-.45l-1.18-.28a4,4,0,0,1-2.18-1.09,3,3,0,0,1-.82-2.16,4.48,4.48,0,0,1,1.18-3.05,6.31,6.31,0,0,1,4.48-1.51,10.23,10.23,0,0,1,4,.81l-1.51,2.85a6.17,6.17,0,0,0-2.35-.61,1.88,1.88,0,0,0-1,.25.68.68,0,0,0-.39.62.74.74,0,0,0,.53.7c.42.16.79.16,1.49.36l.81.22a5.44,5.44,0,0,1,1.85,1,3.58,3.58,0,0,1,1,2.5,4.14,4.14,0,0,1-1.26,3.1,6.49,6.49,0,0,1-4.62,1.57,9.28,9.28,0,0,1-5-1.45Z"/><path d="M1054.05,329.9l3,6.6,3.17-6.6h2.74l3.17,6.8,3.13-6.8h5l-6.55,12.51h-3l-3.13-6.89-3,6.89h-3L1049,329.9Z"/><path d="M1089.63,342.41h-4.48V341a4.59,4.59,0,0,1-3.77,1.79,6,6,0,0,1-4.4-1.73,6.93,6.93,0,0,1-2-5,6.79,6.79,0,0,1,2-4.95,6.37,6.37,0,0,1,4.42-1.68,4.93,4.93,0,0,1,3.72,1.62V322h4.48Zm-5.29-4.14a3,3,0,0,0,1-2.13,3.33,3.33,0,0,0-.83-2,2.77,2.77,0,0,0-2-.84,2.72,2.72,0,0,0-2,.82,3.06,3.06,0,0,0-.87,2.12,2.92,2.92,0,0,0,2.86,2.8A3,3,0,0,0,1084.34,338.27Z"/><line x1="309" y1="293" x2="468.5" y2="293" style="fill:none;stroke:#f7931f;stroke-miterlimit:10;stroke-width:7.295px"/><line x1="465" y1="351" x2="465" y2="293" style="fill:none;stroke:#f7931f;stroke-miterlimit:10;stroke-width:7.295px"/><line x1="565" y1="351" x2="461.5" y2="351" style="fill:none;stroke:#f7931f;stroke-miterlimit:10;stroke-width:7.295px"/><line x1="565" y1="476" x2="443.5" y2="476" style="fill:none;stroke:#f7931f;stroke-miterlimit:10;stroke-width:7.295px"/><line x1="897.5" y1="331" x2="804.5" y2="331" style="fill:none;stroke:#f7931f;stroke-miterlimit:10;stroke-width:7.295px"/><line x1="808" y1="352" x2="808" y2="328.5" style="fill:none;stroke:#f7931f;stroke-miterlimit:10;stroke-width:7.295px"/><line x1="708" y1="352" x2="811.5" y2="352" style="fill:none;stroke:#f7931f;stroke-miterlimit:10;stroke-width:7.295px"/><line x1="898" y1="393.5" x2="805" y2="393.5" style="fill:none;stroke:#f7931f;stroke-miterlimit:10;stroke-width:7.295px"/><line x1="808" y1="478" x2="808" y2="390.5" style="fill:none;stroke:#f7931f;stroke-miterlimit:10;stroke-width:7.295px"/><line x1="708" y1="478" x2="811.5" y2="478" style="fill:none;stroke:#f7931f;stroke-miterlimit:10;stroke-width:7.295px"/><line x1="309" y1="364.5" x2="440.5" y2="364.5" style="fill:none;stroke:#f7931f;stroke-miterlimit:10;stroke-width:7.295px"/><path d="M924,380.5h3.4L914.1,404.34h-3.38Z"/><path d="M930.4,380.5h4.16v8.79a5.2,5.2,0,0,1,1.3-1.15,4.78,4.78,0,0,1,2.39-.57,4.69,4.69,0,0,1,3.44,1.25,4.05,4.05,0,0,1,1.09,3.25v7.38h-4.16v-5.87a3.44,3.44,0,0,0-.52-2.26,1.63,1.63,0,0,0-1.33-.5,2.23,2.23,0,0,0-1.51.5,2.52,2.52,0,0,0-.7,1.89v6.24H930.4Z"/><path d="M956.79,397.92a8,8,0,0,1-10.37,0,5.79,5.79,0,0,1-1.8-4.29,5.73,5.73,0,0,1,1.8-4.26,7.23,7.23,0,0,1,5.17-1.93,7.33,7.33,0,0,1,5.2,1.93,5.73,5.73,0,0,1,1.8,4.26A5.79,5.79,0,0,1,956.79,397.92Zm-7-6.19a2.66,2.66,0,0,0,1.87,4.53,2.65,2.65,0,0,0,1.84-.78,2.58,2.58,0,0,0,.81-1.85,2.67,2.67,0,0,0-4.52-1.9Z"/><path d="M961,387.83h4.16v1.41a4.46,4.46,0,0,1,3.48-1.62,4.87,4.87,0,0,1,2.24.52,3.69,3.69,0,0,1,1.61,1.67,4.07,4.07,0,0,1,1.59-1.61,4.67,4.67,0,0,1,2.41-.58,4.61,4.61,0,0,1,3.23,1.07,4.26,4.26,0,0,1,1.09,3.2v7.56h-4.16v-5.74a3.45,3.45,0,0,0-.6-2.5,1.49,1.49,0,0,0-1.09-.39,1.66,1.66,0,0,0-1.22.47,3,3,0,0,0-.76,2.21v5.95H968.8v-5.74a3.73,3.73,0,0,0-.54-2.5,1.62,1.62,0,0,0-1.25-.47,1.44,1.44,0,0,0-1.14.42,3.43,3.43,0,0,0-.73,2.55v5.74H961Z"/><path d="M996,394.41h-8.66a3,3,0,0,0,.73,1.95,2.34,2.34,0,0,0,1.72.57,3.21,3.21,0,0,0,1.35-.31,2.05,2.05,0,0,0,.73-.78h4a5.16,5.16,0,0,1-1.4,2.39,6.33,6.33,0,0,1-4.73,1.61,6.57,6.57,0,0,1-4.81-1.76,6.09,6.09,0,0,1-1.72-4.4,6.23,6.23,0,0,1,1.74-4.5,6.57,6.57,0,0,1,4.76-1.69,6.36,6.36,0,0,1,4.47,1.59A6.51,6.51,0,0,1,996,394ZM992.18,392a2.88,2.88,0,0,0-.68-1.25,2.39,2.39,0,0,0-1.71-.62,2.23,2.23,0,0,0-1.69.62,2.36,2.36,0,0,0-.63,1.25Z"/><path d="M1009.47,380.5h3.4l-13.31,23.84h-3.38Z"/><path d="M1028.19,394.41h-8.66a2.91,2.91,0,0,0,.73,1.95,2.33,2.33,0,0,0,1.71.57,3.24,3.24,0,0,0,1.36-.31,2,2,0,0,0,.72-.78h4a5.16,5.16,0,0,1-1.4,2.39,6.34,6.34,0,0,1-4.74,1.61,6.59,6.59,0,0,1-4.81-1.76,6.13,6.13,0,0,1-1.71-4.4,6.23,6.23,0,0,1,1.74-4.5,6.57,6.57,0,0,1,4.76-1.69,6.37,6.37,0,0,1,4.47,1.59,6.51,6.51,0,0,1,1.85,4.89Zm-3.82-2.39a2.88,2.88,0,0,0-.68-1.25,2.41,2.41,0,0,0-1.72-.62,2.24,2.24,0,0,0-1.69.62,2.43,2.43,0,0,0-.62,1.25Z"/><path d="M1034.69,393.14l-4.71-5.31h5.41l2,2.39,2.06-2.39h5.38l-4.81,5.31,5.82,6.31h-5.51l-3-3.45-3,3.45h-5.51Z"/><path d="M1055.93,387.83h4.16v11.62h-4.16v-1.27a4.32,4.32,0,0,1-3.61,1.66,5.56,5.56,0,0,1-4.19-1.84,5.87,5.87,0,0,1-1.67-4.27,6.42,6.42,0,0,1,1.8-4.65,6,6,0,0,1,4.19-1.64,4.57,4.57,0,0,1,3.48,1.51Zm-4.37,3.9a2.73,2.73,0,0,0-.83,1.9,2.69,2.69,0,0,0,.81,1.9,3,3,0,0,0,1.87.78,2.68,2.68,0,0,0,1.87-.81,2.52,2.52,0,0,0,.78-1.87,2.58,2.58,0,0,0-.81-1.9,2.64,2.64,0,0,0-3.69,0Z"/><path d="M1063,387.83h4.16v1.41a4.46,4.46,0,0,1,3.48-1.62,4.84,4.84,0,0,1,2.24.52,3.64,3.64,0,0,1,1.61,1.67,4.07,4.07,0,0,1,1.59-1.61,4.71,4.71,0,0,1,2.42-.58,4.6,4.6,0,0,1,3.22,1.07,4.26,4.26,0,0,1,1.09,3.2v7.56h-4.16v-5.74a3.45,3.45,0,0,0-.6-2.5,1.49,1.49,0,0,0-1.09-.39,1.66,1.66,0,0,0-1.22.47,3,3,0,0,0-.75,2.21v5.95h-4.16v-5.74a3.72,3.72,0,0,0-.55-2.5,1.61,1.61,0,0,0-1.25-.47,1.44,1.44,0,0,0-1.14.42,3.43,3.43,0,0,0-.73,2.55v5.74H1063Z"/><path d="M1089.81,405.41h-4.16V387.83h4.16v1.28a4.33,4.33,0,0,1,3.56-1.67,5.79,5.79,0,0,1,4.13,1.69,6.6,6.6,0,0,1-.1,9.1,5.56,5.56,0,0,1-4,1.61,4.94,4.94,0,0,1-3.61-1.5Zm.67-13.65a2.62,2.62,0,0,0,0,3.77,2.68,2.68,0,0,0,1.87.78,2.53,2.53,0,0,0,1.85-.78,2.77,2.77,0,0,0,.81-1.85,2.83,2.83,0,0,0-.81-1.92,2.5,2.5,0,0,0-1.85-.78A2.64,2.64,0,0,0,1090.48,391.76Z"/><path d="M1105.82,380.5v18.95h-4.16V380.5Z"/><path d="M1121,394.41h-8.66a3,3,0,0,0,.73,1.95,2.34,2.34,0,0,0,1.72.57,3.21,3.21,0,0,0,1.35-.31,2.05,2.05,0,0,0,.73-.78h4a5.16,5.16,0,0,1-1.4,2.39,6.33,6.33,0,0,1-4.73,1.61,6.57,6.57,0,0,1-4.81-1.76,6.09,6.09,0,0,1-1.72-4.4,6.23,6.23,0,0,1,1.74-4.5,6.59,6.59,0,0,1,4.76-1.69,6.36,6.36,0,0,1,4.47,1.59A6.51,6.51,0,0,1,1121,394Zm-3.82-2.39a2.88,2.88,0,0,0-.68-1.25,2.39,2.39,0,0,0-1.71-.62,2.23,2.23,0,0,0-1.69.62,2.36,2.36,0,0,0-.63,1.25Z"/><line x1="443.5" y1="479.5" x2="443.5" y2="360.5" style="fill:none;stroke:#f7931f;stroke-miterlimit:10;stroke-width:7.295px"/><path d="M1031.13,467.56A2.71,2.71,0,0,1,1033,463a2.7,2.7,0,0,1,1.92.84,2.49,2.49,0,0,1,.75,1.87,2.51,2.51,0,0,1-.78,1.9,2.66,2.66,0,0,1-1.89.8A2.63,2.63,0,0,1,1031.13,467.56Z"/><path d="M1039,467.56a2.71,2.71,0,0,1,1.89-4.61,2.72,2.72,0,0,1,1.93.84,2.49,2.49,0,0,1,.75,1.87,2.51,2.51,0,0,1-.78,1.9,2.67,2.67,0,0,1-1.9.8A2.62,2.62,0,0,1,1039,467.56Z"/><path d="M1046.88,467.56a2.71,2.71,0,0,1,1.9-4.61,2.73,2.73,0,0,1,1.93.84,2.49,2.49,0,0,1,.75,1.87,2.51,2.51,0,0,1-.78,1.9,2.66,2.66,0,0,1-3.8,0Z"/><path d="M1054.76,467.56a2.71,2.71,0,0,1,1.9-4.61,2.7,2.7,0,0,1,1.92.84,2.46,2.46,0,0,1,.76,1.87,2.51,2.51,0,0,1-.78,1.9,2.66,2.66,0,0,1-3.8,0Z"/><path d="M1062.64,467.56a2.71,2.71,0,0,1,1.9-4.61,2.7,2.7,0,0,1,1.92.84,2.49,2.49,0,0,1,.76,1.87,2.55,2.55,0,0,1-.78,1.9,2.7,2.7,0,0,1-1.9.8A2.64,2.64,0,0,1,1062.64,467.56Z"/><path d="M90,296a2.75,2.75,0,0,0,.7,1.74,2.42,2.42,0,0,0,1.77.67,2.32,2.32,0,0,0,1.77-.75,2,2,0,0,0,.52-1.43,2,2,0,0,0-.68-1.53,2.67,2.67,0,0,0-1.66-.5,2.19,2.19,0,0,0-.75.11v-3a2.19,2.19,0,0,0,1.84-.44,1.6,1.6,0,0,0,.57-1.22,1.61,1.61,0,0,0-1.74-1.72,1.78,1.78,0,0,0-1.25.45,2.15,2.15,0,0,0-.59,1.53H86.33a6.15,6.15,0,0,1,1.69-4,6.93,6.93,0,0,1,8.89-.15,4.68,4.68,0,0,1,1.41,3.35,4.17,4.17,0,0,1-.52,2.13,3.05,3.05,0,0,1-1.33,1.33,4.19,4.19,0,0,1,2,1.58,4.35,4.35,0,0,1,.73,2.55,5.22,5.22,0,0,1-1.53,3.8,7.15,7.15,0,0,1-5.18,1.84,7,7,0,0,1-5-1.79A6.91,6.91,0,0,1,85.42,296Z"/><path d="M97.56,367.47h2.11v3.46H97.56v3.27H93.4v-3.27H85V368l6.69-11.18h5.87Zm-4.16,0V360.4l-4.08,7.07Z"/><path d="M97.55,432.74h-6l-.31,1.92a10.3,10.3,0,0,1,1.4-.13,6.18,6.18,0,0,1,4.58,1.72,5.64,5.64,0,0,1,1.59,4.11,6.07,6.07,0,0,1-1.67,4.34,7.24,7.24,0,0,1-5.41,1.95,10.6,10.6,0,0,1-5.85-1.56l.68-4.21a8.33,8.33,0,0,0,2.08,1.4,6.34,6.34,0,0,0,2.6.6,3.1,3.1,0,0,0,2.26-.86,2.6,2.6,0,0,0,.68-1.77,2.45,2.45,0,0,0-.83-1.87,5,5,0,0,0-3.12-.86,6.93,6.93,0,0,0-3.2.73l1.51-9.33h9Z"/><path d="M96.6,501.17l-4.94,5.9a6.14,6.14,0,0,1,2.42-.55A5.6,5.6,0,0,1,98,508.19a5.54,5.54,0,0,1,1.64,4.13,6.11,6.11,0,0,1-1.79,4.53,8.62,8.62,0,0,1-11.23-.06,5.62,5.62,0,0,1-1.59-4,11.25,11.25,0,0,1,2.57-6.48l3.88-5.09Zm-2.37,13.36a2.75,2.75,0,0,0,.81-2,2.48,2.48,0,0,0-.81-1.83,2.84,2.84,0,0,0-2-.8,3.1,3.1,0,0,0-2,.75,2.59,2.59,0,0,0-.86,1.8,2.81,2.81,0,0,0,2.81,2.86A2.76,2.76,0,0,0,94.23,514.53Z"/><path d="M92.79,577.43H85.56v-3.82H99.79L89.85,591h-5Z"/><path d="M124.6,168.55a6.8,6.8,0,0,1-9.57,0,11.05,11.05,0,0,1,0-14.17,6.77,6.77,0,0,1,9.57,0,11.05,11.05,0,0,1,0,14.17ZM118.44,157c-.94.8-1.51,2.91-1.51,4.52,0,1.38.49,3.64,1.51,4.53a2.13,2.13,0,0,0,1.38.54,2.08,2.08,0,0,0,1.37-.54c1-.84,1.51-3,1.51-4.5s-.6-3.75-1.51-4.55a2.09,2.09,0,0,0-1.37-.55A2.14,2.14,0,0,0,118.44,157Z"/><path d="M118.1,194.57h-2.47v-3.83h7v17.35h-4.5Z"/><path d="M126.6,245.89H112.69l4.4-4.6a29,29,0,0,0,3.56-4.39,4.88,4.88,0,0,0,.93-2.71,2.6,2.6,0,0,0-.52-1.66,1.69,1.69,0,0,0-1.27-.52,1.88,1.88,0,0,0-1.51.7,4.32,4.32,0,0,0-.62,2.13H113a6.92,6.92,0,0,1,1.93-4.81,7.46,7.46,0,0,1,9.8-.07,5.78,5.78,0,0,1,1.69,4.26,6.75,6.75,0,0,1-2.57,5.15l-2.92,2.7h5.67Z"/><path d="M163.1,164a5.8,5.8,0,0,0,1.6.83,5.33,5.33,0,0,0,1.55.27,1.65,1.65,0,0,0,1-.3.61.61,0,0,0,.2-.52.57.57,0,0,0-.2-.5,2.43,2.43,0,0,0-1.05-.4l-1.05-.25a3.64,3.64,0,0,1-1.95-1,2.71,2.71,0,0,1-.72-1.92,4,4,0,0,1,1.05-2.73,5.67,5.67,0,0,1,4-1.35,9.08,9.08,0,0,1,3.57.73l-1.35,2.55a5.51,5.51,0,0,0-2.1-.55,1.67,1.67,0,0,0-.92.22.6.6,0,0,0-.35.55.65.65,0,0,0,.47.63c.38.15.7.15,1.33.32l.72.2a4.57,4.57,0,0,1,1.65.88,3.15,3.15,0,0,1,.85,2.22,3.75,3.75,0,0,1-1.12,2.78,5.81,5.81,0,0,1-4.13,1.4,8.3,8.3,0,0,1-4.5-1.3Z"/><path d="M177.9,159.81v7.9h-4v-7.9h-1.28v-3.27h1.28v-3.68h4v3.68h2.27v3.27Z"/><path d="M190.32,156.54h4v11.17h-4v-1.22a4.17,4.17,0,0,1-3.47,1.6,5.35,5.35,0,0,1-4-1.78,5.65,5.65,0,0,1-1.6-4.1,6.17,6.17,0,0,1,1.73-4.47,5.74,5.74,0,0,1,4-1.58,4.43,4.43,0,0,1,3.35,1.45Zm-4.2,3.75a2.5,2.5,0,0,0,0,3.65,2.79,2.79,0,0,0,1.8.75,2.57,2.57,0,0,0,1.8-.78,2.43,2.43,0,0,0,.75-1.8,2.46,2.46,0,0,0-.78-1.82,2.52,2.52,0,0,0-3.55,0Z"/><path d="M197.07,156.54h4v1.4a4.22,4.22,0,0,1,3.55-1.65,4.49,4.49,0,0,1,3.3,1.2,3.85,3.85,0,0,1,1.05,3.12v7.1h-4v-5.65a3.17,3.17,0,0,0-.5-2.17,1.66,1.66,0,0,0-1.27-.48,2.2,2.2,0,0,0-1.48.53,2.56,2.56,0,0,0-.65,1.77v6h-4Z"/><path d="M224.35,167.71h-4v-1.22a4.11,4.11,0,0,1-3.38,1.6,5.36,5.36,0,0,1-3.92-1.55,6.35,6.35,0,0,1,0-8.88,5.72,5.72,0,0,1,4-1.5,4.45,4.45,0,0,1,3.33,1.45v-8.12h4Zm-4.73-3.7a2.64,2.64,0,0,0,.85-1.9,3,3,0,0,0-.75-1.8,2.56,2.56,0,0,0-3.6,0,2.74,2.74,0,0,0-.77,1.9,2.56,2.56,0,0,0,.77,1.75,2.48,2.48,0,0,0,1.78.75A2.68,2.68,0,0,0,219.62,164Z"/><path d="M235.75,156.54h4v11.17h-4v-1.22a4.2,4.2,0,0,1-3.48,1.6,5.33,5.33,0,0,1-4-1.78,5.61,5.61,0,0,1-1.6-4.1,6.17,6.17,0,0,1,1.72-4.47,5.77,5.77,0,0,1,4-1.58,4.45,4.45,0,0,1,3.35,1.45Zm-4.2,3.75a2.51,2.51,0,0,0,0,3.65,2.83,2.83,0,0,0,1.8.75,2.57,2.57,0,0,0,1.8-.78,2.43,2.43,0,0,0,.75-1.8,2.48,2.48,0,0,0-.77-1.82,2.52,2.52,0,0,0-3.55,0Z"/><path d="M242.5,156.54h4v1.82a3.6,3.6,0,0,1,1.57-1.55,4.44,4.44,0,0,1,2.08-.45c.1,0,.27,0,.8,0v3.78a3.54,3.54,0,0,0-1.73-.4,2.59,2.59,0,0,0-1.82.6,3.37,3.37,0,0,0-.9,2.55v4.77h-4Z"/><path d="M265.37,167.71h-4v-1.22a4.09,4.09,0,0,1-3.37,1.6,5.38,5.38,0,0,1-3.93-1.55,6.19,6.19,0,0,1-1.8-4.45,6.09,6.09,0,0,1,1.83-4.43,5.71,5.71,0,0,1,4-1.5,4.43,4.43,0,0,1,3.32,1.45v-8.12h4Zm-4.72-3.7a2.68,2.68,0,0,0,.85-1.9,3,3,0,0,0-.75-1.8,2.48,2.48,0,0,0-1.83-.75,2.44,2.44,0,0,0-1.77.73,2.75,2.75,0,0,0-.78,1.9,2.53,2.53,0,0,0,.78,1.75,2.48,2.48,0,0,0,1.77.75A2.73,2.73,0,0,0,260.65,164Z"/><path d="M276,149.64a2.25,2.25,0,1,1-2.25,2.25A2.24,2.24,0,0,1,276,149.64Zm2,6.9v11.17h-4V156.54Z"/><path d="M280.67,156.54h4v1.4a4.22,4.22,0,0,1,3.55-1.65,4.49,4.49,0,0,1,3.3,1.2,3.85,3.85,0,0,1,1.05,3.12v7.1h-4v-5.65a3.17,3.17,0,0,0-.5-2.17,1.66,1.66,0,0,0-1.27-.48,2.2,2.2,0,0,0-1.48.53,2.56,2.56,0,0,0-.65,1.77v6h-4Z"/><path d="M299.3,173.44h-4v-16.9h4v1.22a4.18,4.18,0,0,1,3.42-1.6,5.56,5.56,0,0,1,4,1.63,6.35,6.35,0,0,1-.1,8.75,5.39,5.39,0,0,1-3.83,1.55,4.75,4.75,0,0,1-3.47-1.45Zm.65-13.13a2.74,2.74,0,0,0-.78,1.85,2.7,2.7,0,0,0,.78,1.78,2.56,2.56,0,0,0,1.8.75,2.42,2.42,0,0,0,1.77-.75,2.64,2.64,0,0,0,.78-1.78,2.74,2.74,0,0,0-.78-1.85,2.42,2.42,0,0,0-1.77-.75A2.56,2.56,0,0,0,300,160.31Z"/><path d="M314.7,156.54v6.25a2.11,2.11,0,0,0,.6,1.62,2.06,2.06,0,0,0,1.4.43,1.85,1.85,0,0,0,1.42-.48,2.07,2.07,0,0,0,.58-1.57v-6.25h4v7a3.84,3.84,0,0,1-1.08,3,6.35,6.35,0,0,1-4.82,1.58c-1.68,0-3.73-.18-5.05-1.6a4,4,0,0,1-1.05-3v-7Z"/><path d="M329.87,159.81v7.9h-4v-7.9H324.6v-3.27h1.27v-3.68h4v3.68h2.28v3.27Z"/><path d="M163.1,202a5.8,5.8,0,0,0,1.6.83,5.33,5.33,0,0,0,1.55.27,1.65,1.65,0,0,0,1-.3.61.61,0,0,0,.2-.52.57.57,0,0,0-.2-.5,2.43,2.43,0,0,0-1.05-.4l-1.05-.25a3.64,3.64,0,0,1-1.95-1,2.71,2.71,0,0,1-.72-1.92,3.93,3.93,0,0,1,1.05-2.72,5.62,5.62,0,0,1,4-1.35,9.31,9.31,0,0,1,3.57.72l-1.35,2.55a5.51,5.51,0,0,0-2.1-.55,1.59,1.59,0,0,0-.92.23.57.57,0,0,0-.35.54.65.65,0,0,0,.47.63c.38.15.7.15,1.33.32l.72.2a4.57,4.57,0,0,1,1.65.88,3.15,3.15,0,0,1,.85,2.22,3.75,3.75,0,0,1-1.12,2.78,5.81,5.81,0,0,1-4.13,1.4,8.3,8.3,0,0,1-4.5-1.3Z"/><path d="M177.9,197.76v7.9h-4v-7.9h-1.28v-3.27h1.28v-3.67h4v3.67h2.27v3.27Z"/><path d="M190.32,194.49h4v11.17h-4v-1.22a4.17,4.17,0,0,1-3.47,1.6,5.35,5.35,0,0,1-4-1.78,5.65,5.65,0,0,1-1.6-4.1,6.17,6.17,0,0,1,1.73-4.47,5.74,5.74,0,0,1,4-1.57,4.4,4.4,0,0,1,3.35,1.45Zm-4.2,3.75a2.5,2.5,0,0,0,0,3.65,2.79,2.79,0,0,0,1.8.75,2.57,2.57,0,0,0,1.8-.78,2.43,2.43,0,0,0,.75-1.8,2.46,2.46,0,0,0-.78-1.82,2.52,2.52,0,0,0-3.55,0Z"/><path d="M197.07,194.49h4v1.4a4.22,4.22,0,0,1,3.55-1.65,4.53,4.53,0,0,1,3.3,1.2,3.85,3.85,0,0,1,1.05,3.12v7.1h-4V200a3.17,3.17,0,0,0-.5-2.17,1.66,1.66,0,0,0-1.27-.48,2.2,2.2,0,0,0-1.48.53,2.56,2.56,0,0,0-.65,1.77v6h-4Z"/><path d="M224.35,205.66h-4v-1.22A4.11,4.11,0,0,1,217,206a5.36,5.36,0,0,1-3.92-1.55,6.35,6.35,0,0,1,0-8.88,5.76,5.76,0,0,1,4-1.49,4.41,4.41,0,0,1,3.33,1.45v-8.13h4Zm-4.73-3.7a2.64,2.64,0,0,0,.85-1.9,3,3,0,0,0-.75-1.8,2.56,2.56,0,0,0-3.6,0,2.74,2.74,0,0,0-.77,1.9,2.56,2.56,0,0,0,.77,1.75,2.48,2.48,0,0,0,1.78.75A2.68,2.68,0,0,0,219.62,202Z"/><path d="M235.75,194.49h4v11.17h-4v-1.22a4.2,4.2,0,0,1-3.48,1.6,5.33,5.33,0,0,1-4-1.78,5.61,5.61,0,0,1-1.6-4.1,6.17,6.17,0,0,1,1.72-4.47,5.76,5.76,0,0,1,4-1.57,4.41,4.41,0,0,1,3.35,1.45Zm-4.2,3.75a2.51,2.51,0,0,0,0,3.65,2.83,2.83,0,0,0,1.8.75,2.57,2.57,0,0,0,1.8-.78,2.43,2.43,0,0,0,.75-1.8,2.48,2.48,0,0,0-.77-1.82,2.52,2.52,0,0,0-3.55,0Z"/><path d="M242.5,194.49h4v1.83a3.6,3.6,0,0,1,1.57-1.55,4.32,4.32,0,0,1,2.08-.45l.8.05v3.77a3.54,3.54,0,0,0-1.73-.4,2.63,2.63,0,0,0-1.82.6,3.37,3.37,0,0,0-.9,2.55v4.77h-4Z"/><path d="M265.37,205.66h-4v-1.22A4.09,4.09,0,0,1,258,206a5.38,5.38,0,0,1-3.93-1.55,6.19,6.19,0,0,1-1.8-4.45,6.09,6.09,0,0,1,1.83-4.43,5.74,5.74,0,0,1,4-1.49,4.39,4.39,0,0,1,3.32,1.45v-8.13h4Zm-4.72-3.7a2.68,2.68,0,0,0,.85-1.9,3,3,0,0,0-.75-1.8,2.48,2.48,0,0,0-1.83-.75,2.44,2.44,0,0,0-1.77.73,2.75,2.75,0,0,0-.78,1.9,2.53,2.53,0,0,0,.78,1.75,2.48,2.48,0,0,0,1.77.75A2.73,2.73,0,0,0,260.65,202Z"/><path d="M285.2,204.19a7.65,7.65,0,0,1-10,0,5.6,5.6,0,0,1-1.72-4.13,5.52,5.52,0,0,1,1.72-4.09,7.65,7.65,0,0,1,10,0,5.52,5.52,0,0,1,1.72,4.09A5.6,5.6,0,0,1,285.2,204.19Zm-6.78-5.95a2.55,2.55,0,0,0-.77,1.82,2.55,2.55,0,0,0,4.35,1.78,2.48,2.48,0,0,0,.77-1.78,2.7,2.7,0,0,0-.77-1.82,2.56,2.56,0,0,0-3.58,0Z"/><path d="M293.22,194.49v6.25a2.15,2.15,0,0,0,.6,1.62,2.08,2.08,0,0,0,1.4.43,1.87,1.87,0,0,0,1.43-.48,2.06,2.06,0,0,0,.57-1.57v-6.25h4v7a3.82,3.82,0,0,1-1.07,3,6.38,6.38,0,0,1-4.83,1.58c-1.67,0-3.72-.18-5.05-1.6a4,4,0,0,1-1-3v-7Z"/><path d="M308.4,197.76v7.9h-4v-7.9h-1.28v-3.27h1.28v-3.67h4v3.67h2.27v3.27Z"/><path d="M316.17,211.39h-4v-16.9h4v1.23a4.17,4.17,0,0,1,3.43-1.6,5.55,5.55,0,0,1,4,1.62,6.35,6.35,0,0,1-.1,8.75,5.39,5.39,0,0,1-3.82,1.55,4.76,4.76,0,0,1-3.48-1.45Zm.65-13.13a2.52,2.52,0,0,0,0,3.63,2.6,2.6,0,0,0,1.8.75,2.44,2.44,0,0,0,1.78-.75,2.68,2.68,0,0,0,.77-1.78,2.73,2.73,0,0,0-.77-1.85,2.44,2.44,0,0,0-1.78-.75A2.6,2.6,0,0,0,316.82,198.26Z"/><path d="M331.57,194.49v6.25a2.15,2.15,0,0,0,.6,1.62,2.08,2.08,0,0,0,1.4.43,1.87,1.87,0,0,0,1.43-.48,2.06,2.06,0,0,0,.57-1.57v-6.25h4v7a3.82,3.82,0,0,1-1.07,3,6.38,6.38,0,0,1-4.83,1.58c-1.67,0-3.72-.18-5.05-1.6a4,4,0,0,1-1.05-3v-7Z"/><path d="M346.75,197.76v7.9h-4v-7.9h-1.28v-3.27h1.28v-3.67h4v3.67H349v3.27Z"/><path d="M163.1,242.25a5.8,5.8,0,0,0,1.6.83,5.33,5.33,0,0,0,1.55.27,1.65,1.65,0,0,0,1-.3.61.61,0,0,0,.2-.52.57.57,0,0,0-.2-.5,2.43,2.43,0,0,0-1.05-.4l-1.05-.25a3.64,3.64,0,0,1-1.95-1,2.71,2.71,0,0,1-.72-1.92,4,4,0,0,1,1.05-2.73,5.67,5.67,0,0,1,4-1.35,9.08,9.08,0,0,1,3.57.73l-1.35,2.55a5.51,5.51,0,0,0-2.1-.55,1.67,1.67,0,0,0-.92.22.6.6,0,0,0-.35.55.65.65,0,0,0,.47.63c.38.15.7.15,1.33.32l.72.2a4.57,4.57,0,0,1,1.65.88,3.15,3.15,0,0,1,.85,2.22,3.75,3.75,0,0,1-1.12,2.78,5.81,5.81,0,0,1-4.13,1.4,8.3,8.3,0,0,1-4.5-1.3Z"/><path d="M177.9,238.05V246h-4v-7.9h-1.28v-3.27h1.28V231.1h4v3.68h2.27v3.27Z"/><path d="M190.32,234.78h4V246h-4v-1.22a4.17,4.17,0,0,1-3.47,1.6,5.35,5.35,0,0,1-4-1.78,5.65,5.65,0,0,1-1.6-4.1A6.17,6.17,0,0,1,183,236a5.74,5.74,0,0,1,4-1.58,4.43,4.43,0,0,1,3.35,1.45Zm-4.2,3.75a2.5,2.5,0,0,0,0,3.65,2.79,2.79,0,0,0,1.8.75,2.57,2.57,0,0,0,1.8-.78,2.43,2.43,0,0,0,.75-1.8,2.46,2.46,0,0,0-.78-1.82,2.52,2.52,0,0,0-3.55,0Z"/><path d="M197.07,234.78h4v1.4a4.22,4.22,0,0,1,3.55-1.65,4.49,4.49,0,0,1,3.3,1.2,3.85,3.85,0,0,1,1.05,3.12V246h-4V240.3a3.17,3.17,0,0,0-.5-2.17,1.66,1.66,0,0,0-1.27-.48,2.2,2.2,0,0,0-1.48.53,2.56,2.56,0,0,0-.65,1.77v6h-4Z"/><path d="M224.35,246h-4v-1.22a4.11,4.11,0,0,1-3.38,1.6,5.36,5.36,0,0,1-3.92-1.55,6.35,6.35,0,0,1,0-8.88,5.72,5.72,0,0,1,4-1.5,4.45,4.45,0,0,1,3.33,1.45v-8.12h4Zm-4.73-3.7a2.64,2.64,0,0,0,.85-1.9,3,3,0,0,0-.75-1.8,2.56,2.56,0,0,0-3.6,0,2.74,2.74,0,0,0-.77,1.9,2.56,2.56,0,0,0,.77,1.75,2.48,2.48,0,0,0,1.78.75A2.68,2.68,0,0,0,219.62,242.25Z"/><path d="M235.75,234.78h4V246h-4v-1.22a4.2,4.2,0,0,1-3.48,1.6,5.33,5.33,0,0,1-4-1.78,5.61,5.61,0,0,1-1.6-4.1,6.17,6.17,0,0,1,1.72-4.47,5.77,5.77,0,0,1,4-1.58,4.45,4.45,0,0,1,3.35,1.45Zm-4.2,3.75a2.51,2.51,0,0,0,0,3.65,2.83,2.83,0,0,0,1.8.75,2.57,2.57,0,0,0,1.8-.78,2.43,2.43,0,0,0,.75-1.8,2.48,2.48,0,0,0-.77-1.82,2.52,2.52,0,0,0-3.55,0Z"/><path d="M242.5,234.78h4v1.82a3.6,3.6,0,0,1,1.57-1.55,4.44,4.44,0,0,1,2.08-.45c.1,0,.27,0,.8.05v3.78a3.54,3.54,0,0,0-1.73-.4,2.59,2.59,0,0,0-1.82.6,3.37,3.37,0,0,0-.9,2.55V246h-4Z"/><path d="M265.37,246h-4v-1.22a4.09,4.09,0,0,1-3.37,1.6,5.38,5.38,0,0,1-3.93-1.55,6.19,6.19,0,0,1-1.8-4.45,6.09,6.09,0,0,1,1.83-4.43,5.71,5.71,0,0,1,4-1.5,4.43,4.43,0,0,1,3.32,1.45v-8.12h4Zm-4.72-3.7a2.68,2.68,0,0,0,.85-1.9,3,3,0,0,0-.75-1.8,2.48,2.48,0,0,0-1.83-.75,2.44,2.44,0,0,0-1.77.73,2.75,2.75,0,0,0-.78,1.9,2.53,2.53,0,0,0,.78,1.75,2.48,2.48,0,0,0,1.77.75A2.73,2.73,0,0,0,260.65,242.25Z"/><path d="M285.8,241.1h-8.33a2.87,2.87,0,0,0,.7,1.88,2.25,2.25,0,0,0,1.65.55,3.24,3.24,0,0,0,1.3-.3,1.83,1.83,0,0,0,.7-.75h3.83a5.14,5.14,0,0,1-1.35,2.3,6.09,6.09,0,0,1-4.55,1.55,6.37,6.37,0,0,1-4.63-1.7,6.32,6.32,0,0,1,0-8.55,6.27,6.27,0,0,1,4.57-1.63A6.12,6.12,0,0,1,284,236a6.24,6.24,0,0,1,1.78,4.7Zm-3.68-2.3a2.71,2.71,0,0,0-.65-1.2,2.35,2.35,0,0,0-1.65-.6,2.16,2.16,0,0,0-1.62.6,2.21,2.21,0,0,0-.6,1.2Z"/><path d="M288.1,234.78h4v1.82a3.6,3.6,0,0,1,1.57-1.55,4.44,4.44,0,0,1,2.08-.45c.1,0,.27,0,.8.05v3.78a3.54,3.54,0,0,0-1.73-.4,2.59,2.59,0,0,0-1.82.6,3.37,3.37,0,0,0-.9,2.55V246h-4Z"/><path d="M298.32,234.78h4v1.82a3.61,3.61,0,0,1,1.58-1.55,4.4,4.4,0,0,1,2.07-.45c.1,0,.28,0,.8.05v3.78a3.52,3.52,0,0,0-1.72-.4,2.61,2.61,0,0,0-1.83.6,3.37,3.37,0,0,0-.9,2.55V246h-4Z"/><path d="M319.3,244.48a7.65,7.65,0,0,1-10,0,5.6,5.6,0,0,1-1.72-4.13,5.54,5.54,0,0,1,1.72-4.1,7,7,0,0,1,5-1.85,7.1,7.1,0,0,1,5,1.85,5.54,5.54,0,0,1,1.72,4.1A5.6,5.6,0,0,1,319.3,244.48Zm-6.78-5.95a2.55,2.55,0,0,0-.77,1.82,2.55,2.55,0,0,0,4.35,1.78,2.48,2.48,0,0,0,.77-1.78,2.7,2.7,0,0,0-.77-1.82,2.56,2.56,0,0,0-3.58,0Z"/><path d="M323.32,234.78h4v1.82a3.61,3.61,0,0,1,1.58-1.55,4.4,4.4,0,0,1,2.07-.45c.1,0,.28,0,.8.05v3.78a3.52,3.52,0,0,0-1.72-.4,2.61,2.61,0,0,0-1.83.6,3.37,3.37,0,0,0-.9,2.55V246h-4Z"/></svg>