<svg id="Layer_1" data-name="Layer 1" xmlns="http://www.w3.org/2000/svg" viewBox="0 0 860 1239"><title>Cap 4 -</title><polygon points="415.45 142.58 415.45 250.82 399.85 250.82 433 283.97 466.15 250.82 450.55 250.82 450.55 142.58 415.45 142.58" style="fill:none;stroke:#3a5c84;stroke-miterlimit:10;stroke-width:10px"/><polygon points="647.45 372.58 647.45 480.82 631.85 480.82 665 513.97 698.15 480.82 682.55 480.82 682.55 372.58 647.45 372.58" style="fill:none;stroke:#4fc2c9;stroke-miterlimit:10;stroke-width:10px"/><polygon points="177.45 372.58 177.45 480.82 161.85 480.82 195 513.97 228.15 480.82 212.55 480.82 212.55 372.58 177.45 372.58" style="fill:none;stroke:#4fc2c9;stroke-miterlimit:10;stroke-width:10px"/><polygon points="657.45 949.58 657.45 1057.82 641.85 1057.82 675 1090.97 708.15 1057.82 692.55 1057.82 692.55 949.58 657.45 949.58" style="fill:none;stroke:#c13018;stroke-miterlimit:10;stroke-width:10px"/><polygon points="177.45 949.58 177.45 1057.82 161.85 1057.82 195 1090.97 228.15 1057.82 212.55 1057.82 212.55 949.58 177.45 949.58" style="fill:none;stroke:#f4c240;stroke-miterlimit:10;stroke-width:10px"/><polygon points="647.45 660.58 647.45 768.82 631.85 768.82 665 801.97 698.15 768.82 682.55 768.82 682.55 660.58 647.45 660.58" style="fill:none;stroke:#91c54f;stroke-miterlimit:10;stroke-width:10px"/><rect x="311.77" y="307.5" width="245.23" height="84" rx="12" ry="12" style="fill:none;stroke:#4fc2c9;stroke-miterlimit:10;stroke-width:10px"/><rect x="69.08" y="545" width="245.23" height="370" rx="12" ry="12" style="fill:none;stroke:#f4c240;stroke-miterlimit:10;stroke-width:10px"/><rect x="541.85" y="543.28" width="245.23" height="84" rx="12" ry="12" style="fill:none;stroke:#91c54f;stroke-miterlimit:10;stroke-width:10px"/><rect x="83.98" y="30" width="710.01" height="84" rx="12" ry="12" style="fill:none;stroke:#3a5c84;stroke-miterlimit:10;stroke-width:10px"/><path d="M330.6,74.1v7.73h-6.06V58.49h9.66a8,8,0,0,1,5.92,2.1,7.24,7.24,0,0,1,2.17,5.67,7.61,7.61,0,0,1-2.07,5.81,7.79,7.79,0,0,1-5.81,2Zm0-4.9h2a3.91,3.91,0,0,0,2.55-.74,2.64,2.64,0,0,0,.77-2.13,2.83,2.83,0,0,0-.7-2.1,3.54,3.54,0,0,0-2.59-.84H330.6Z"/><path d="M345,66.19h5.6v2.55a5.06,5.06,0,0,1,2.21-2.17,6.15,6.15,0,0,1,2.9-.63c.14,0,.39,0,1.12.07V71.3a4.93,4.93,0,0,0-2.41-.56,3.66,3.66,0,0,0-2.56.84,4.72,4.72,0,0,0-1.26,3.57v6.68H345Z"/><path d="M374.35,79.77a10.71,10.71,0,0,1-14,0A7.83,7.83,0,0,1,358,74a7.75,7.75,0,0,1,2.41-5.74,9.78,9.78,0,0,1,7-2.59,9.92,9.92,0,0,1,7,2.59A7.75,7.75,0,0,1,376.76,74,7.83,7.83,0,0,1,374.35,79.77Zm-9.49-8.33a3.55,3.55,0,1,0,5,5A3.47,3.47,0,0,0,371,74a3.78,3.78,0,0,0-1.08-2.55,3.59,3.59,0,0,0-5,0Z"/><path d="M391.81,81.49a8.34,8.34,0,0,1-3.88.87A8.65,8.65,0,0,1,381.77,80a8.21,8.21,0,0,1-2.42-5.85,8.53,8.53,0,0,1,2.52-6,9,9,0,0,1,6.3-2.38,8,8,0,0,1,3.64.87v4.69a5,5,0,0,0-2.9-1,3.67,3.67,0,0,0-2.73,1.08,3.83,3.83,0,0,0-1.09,2.7,4,4,0,0,0,1,2.62,3.82,3.82,0,0,0,2.87,1.19,4.2,4.2,0,0,0,2.87-1Z"/><path d="M411.59,75H399.93a4,4,0,0,0,1,2.63,3.15,3.15,0,0,0,2.31.77A4.51,4.51,0,0,0,405,78a2.57,2.57,0,0,0,1-1h5.36a7.15,7.15,0,0,1-1.89,3.22c-1.16,1.12-3,2.17-6.37,2.17A8.86,8.86,0,0,1,396.64,80a8.23,8.23,0,0,1-2.31-5.92,8.33,8.33,0,0,1,2.35-6,8.79,8.79,0,0,1,6.4-2.28,8.57,8.57,0,0,1,6,2.14,8.75,8.75,0,0,1,2.49,6.58Zm-5.15-3.22a3.78,3.78,0,0,0-.91-1.68,3.28,3.28,0,0,0-2.31-.84,3,3,0,0,0-2.27.84,3.12,3.12,0,0,0-.84,1.68Z"/><path d="M415.82,76.65a8.23,8.23,0,0,0,2.24,1.16,7.46,7.46,0,0,0,2.17.38,2.36,2.36,0,0,0,1.44-.42A.9.9,0,0,0,422,77a.84.84,0,0,0-.28-.7,3.43,3.43,0,0,0-1.47-.56l-1.47-.35A5.08,5.08,0,0,1,416,74.06a3.75,3.75,0,0,1-1-2.69,5.62,5.62,0,0,1,1.47-3.82,7.92,7.92,0,0,1,5.6-1.89,12.83,12.83,0,0,1,5,1l-1.89,3.57a7.77,7.77,0,0,0-2.94-.77,2.38,2.38,0,0,0-1.3.31.85.85,0,0,0-.49.77.92.92,0,0,0,.67.88c.52.21,1,.21,1.85.45l1,.28a6.63,6.63,0,0,1,2.31,1.23,4.41,4.41,0,0,1,1.19,3.11,5.23,5.23,0,0,1-1.58,3.89c-1.82,1.82-4.48,2-5.77,2a11.58,11.58,0,0,1-6.3-1.82Z"/><path d="M444.1,89.85h-5.6V66.19h5.6V67.9a5.86,5.86,0,0,1,4.8-2.24,7.78,7.78,0,0,1,5.56,2.28,8.88,8.88,0,0,1-.14,12.25A7.5,7.5,0,0,1,449,82.36a6.66,6.66,0,0,1-4.86-2ZM445,71.47a3.83,3.83,0,0,0-1.09,2.59A3.78,3.78,0,0,0,445,76.55a3.58,3.58,0,0,0,2.52,1,3.41,3.41,0,0,0,2.49-1,3.73,3.73,0,0,0,1.08-2.49A3.82,3.82,0,0,0,450,71.47a3.41,3.41,0,0,0-2.49-1A3.58,3.58,0,0,0,445,71.47Z"/><path d="M472.17,66.19h5.6V81.83h-5.6V80.12a5.83,5.83,0,0,1-4.87,2.24,7.49,7.49,0,0,1-5.63-2.48,7.9,7.9,0,0,1-2.24-5.75,8.64,8.64,0,0,1,2.41-6.26,8.07,8.07,0,0,1,5.64-2.21,6.2,6.2,0,0,1,4.69,2Zm3.08-8A5.46,5.46,0,0,1,473.71,62a7.34,7.34,0,0,1-9.1,0,5.46,5.46,0,0,1-1.54-3.81h3.6a2.4,2.4,0,0,0,.7,1.43,2.86,2.86,0,0,0,3.58,0,2.4,2.4,0,0,0,.7-1.43Zm-9,13.3a3.52,3.52,0,0,0,0,5.11,4,4,0,0,0,2.52,1,3.6,3.6,0,0,0,2.53-1.09A3.4,3.4,0,0,0,472.35,74a3.45,3.45,0,0,0-1.09-2.55,3.54,3.54,0,0,0-5,0Z"/><path d="M481.62,66.19h5.6v2.55a5,5,0,0,1,2.2-2.17,6.22,6.22,0,0,1,2.91-.63c.14,0,.39,0,1.12.07V71.3a4.93,4.93,0,0,0-2.41-.56,3.64,3.64,0,0,0-2.56.84,4.72,4.72,0,0,0-1.26,3.57v6.68h-5.6Z"/><path d="M498.73,56.53a3.15,3.15,0,1,1-3.15,3.15A3.14,3.14,0,0,1,498.73,56.53Zm2.8,9.66V81.83h-5.6V66.19Z"/><path d="M505.35,66.19H511v2a5.91,5.91,0,0,1,5-2.31,6.3,6.3,0,0,1,4.62,1.68c1.33,1.33,1.47,2.66,1.47,4.37v9.94h-5.6V73.92c0-.91,0-2.27-.7-3a2.35,2.35,0,0,0-1.79-.67,3.05,3.05,0,0,0-2.06.74,3.58,3.58,0,0,0-.91,2.48v8.4h-5.6Z"/><path d="M532,70.77V81.83h-5.6V70.77h-1.79V66.19h1.79V61H532v5.15h3.18v4.58Z"/><path d="M553.9,75H542.24a4,4,0,0,0,1,2.63,3.15,3.15,0,0,0,2.31.77,4.51,4.51,0,0,0,1.82-.42,2.64,2.64,0,0,0,1-1h5.36a7.09,7.09,0,0,1-1.9,3.22c-1.15,1.12-3,2.17-6.37,2.17A8.84,8.84,0,0,1,539,80a8.19,8.19,0,0,1-2.31-5.92A8.36,8.36,0,0,1,539,68a8.83,8.83,0,0,1,6.41-2.28,8.58,8.58,0,0,1,6,2.14,8.79,8.79,0,0,1,2.49,6.58Zm-5.15-3.22a3.78,3.78,0,0,0-.91-1.68,3.29,3.29,0,0,0-2.31-.84,3,3,0,0,0-2.28.84,3.27,3.27,0,0,0-.84,1.68Z"/><rect x="83.98" y="1123" width="710.01" height="84" rx="12" ry="12" style="fill:none;stroke:#3a5c84;stroke-miterlimit:10;stroke-width:10px"/><path d="M330.6,1167.1v7.73h-6.06v-23.34h9.66a8,8,0,0,1,5.92,2.1,7.24,7.24,0,0,1,2.17,5.67,7.59,7.59,0,0,1-2.06,5.81,7.83,7.83,0,0,1-5.82,2Zm0-4.9h2a3.91,3.91,0,0,0,2.55-.74,2.64,2.64,0,0,0,.77-2.13,2.83,2.83,0,0,0-.7-2.1,3.54,3.54,0,0,0-2.59-.84H330.6Z"/><path d="M345,1159.19h5.6v2.55a5.06,5.06,0,0,1,2.21-2.17,6.15,6.15,0,0,1,2.9-.63c.14,0,.39,0,1.12.07v5.29a4.93,4.93,0,0,0-2.41-.56,3.66,3.66,0,0,0-2.56.84,4.72,4.72,0,0,0-1.26,3.57v6.68H345Z"/><path d="M374.35,1172.77a10.71,10.71,0,0,1-14,0A7.83,7.83,0,0,1,358,1167a7.75,7.75,0,0,1,2.41-5.74,9.78,9.78,0,0,1,7-2.59,9.91,9.91,0,0,1,7,2.59,7.72,7.72,0,0,1,2.42,5.74A7.8,7.8,0,0,1,374.35,1172.77Zm-9.49-8.33a3.55,3.55,0,1,0,5,5A3.48,3.48,0,0,0,371,1167a3.79,3.79,0,0,0-1.09-2.55,3.59,3.59,0,0,0-5,0Z"/><path d="M391.81,1174.49a8.34,8.34,0,0,1-3.88.87,8.65,8.65,0,0,1-6.16-2.38,8.21,8.21,0,0,1-2.42-5.85,8.53,8.53,0,0,1,2.52-6.05,9,9,0,0,1,6.3-2.38,8,8,0,0,1,3.64.87v4.69a5,5,0,0,0-2.9-1,3.67,3.67,0,0,0-2.73,1.08,3.83,3.83,0,0,0-1.09,2.7,4,4,0,0,0,1,2.62,3.82,3.82,0,0,0,2.87,1.19,4.2,4.2,0,0,0,2.87-1Z"/><path d="M411.59,1168H399.93a4,4,0,0,0,1,2.63,3.15,3.15,0,0,0,2.31.77A4.51,4.51,0,0,0,405,1171a2.57,2.57,0,0,0,1-1h5.36a7.15,7.15,0,0,1-1.89,3.22c-1.16,1.12-3,2.17-6.37,2.17a8.86,8.86,0,0,1-6.48-2.38,8.23,8.23,0,0,1-2.31-5.92,8.33,8.33,0,0,1,2.35-6,8.79,8.79,0,0,1,6.4-2.28,8.57,8.57,0,0,1,6,2.14,8.75,8.75,0,0,1,2.49,6.58Zm-5.15-3.22a3.78,3.78,0,0,0-.91-1.68,3.28,3.28,0,0,0-2.31-.84,3,3,0,0,0-2.27.84,3.12,3.12,0,0,0-.84,1.68Z"/><path d="M415.82,1169.65a8.23,8.23,0,0,0,2.24,1.16,7.46,7.46,0,0,0,2.17.38,2.36,2.36,0,0,0,1.44-.42.9.9,0,0,0,.28-.73.84.84,0,0,0-.28-.7,3.43,3.43,0,0,0-1.47-.56l-1.47-.35a5.08,5.08,0,0,1-2.73-1.37,3.75,3.75,0,0,1-1-2.69,5.62,5.62,0,0,1,1.47-3.82,7.92,7.92,0,0,1,5.6-1.89,12.83,12.83,0,0,1,5,1l-1.89,3.57a7.77,7.77,0,0,0-2.94-.77,2.38,2.38,0,0,0-1.3.31.85.85,0,0,0-.49.77.92.92,0,0,0,.67.88c.52.21,1,.21,1.85.45l1,.28a6.63,6.63,0,0,1,2.31,1.23,4.41,4.41,0,0,1,1.19,3.11,5.23,5.23,0,0,1-1.58,3.89c-1.82,1.82-4.48,2-5.77,2a11.58,11.58,0,0,1-6.3-1.82Z"/><path d="M444.1,1182.85h-5.6v-23.66h5.6v1.71a5.87,5.87,0,0,1,4.8-2.24,7.78,7.78,0,0,1,5.56,2.28,8.88,8.88,0,0,1-.14,12.25,7.49,7.49,0,0,1-5.35,2.17,6.66,6.66,0,0,1-4.87-2Zm.91-18.38a3.53,3.53,0,0,0,0,5.08,3.62,3.62,0,0,0,2.52,1,3.41,3.41,0,0,0,2.49-1,3.73,3.73,0,0,0,1.08-2.49,3.82,3.82,0,0,0-1.08-2.59,3.41,3.41,0,0,0-2.49-1A3.62,3.62,0,0,0,445,1164.47Z"/><path d="M472.17,1159.19h5.6v15.64h-5.6v-1.71a5.82,5.82,0,0,1-4.86,2.24,7.51,7.51,0,0,1-5.64-2.48,7.94,7.94,0,0,1-2.24-5.75,8.64,8.64,0,0,1,2.42-6.26,8,8,0,0,1,5.63-2.21,6.2,6.2,0,0,1,4.69,2Zm3.08-8a5.46,5.46,0,0,1-1.54,3.81,7.34,7.34,0,0,1-9.1,0,5.55,5.55,0,0,1-1.54-3.81h3.61a2.4,2.4,0,0,0,.7,1.43,2.84,2.84,0,0,0,3.57,0,2.4,2.4,0,0,0,.7-1.43Zm-9,13.3a3.51,3.51,0,0,0,0,5.11,3.91,3.91,0,0,0,2.52,1,3.6,3.6,0,0,0,2.52-1.09,3.4,3.4,0,0,0,1.05-2.52,3.45,3.45,0,0,0-1.09-2.55,3.54,3.54,0,0,0-5,0Z"/><path d="M481.62,1159.19h5.6v2.55a5.06,5.06,0,0,1,2.21-2.17,6.15,6.15,0,0,1,2.9-.63c.14,0,.39,0,1.12.07v5.29a4.93,4.93,0,0,0-2.41-.56,3.66,3.66,0,0,0-2.56.84,4.72,4.72,0,0,0-1.26,3.57v6.68h-5.6Z"/><path d="M498.74,1149.53a3.15,3.15,0,1,1-3.15,3.15A3.14,3.14,0,0,1,498.74,1149.53Zm2.8,9.66v15.64h-5.6v-15.64Z"/><path d="M505.35,1159.19H511v2a5.91,5.91,0,0,1,5-2.31,6.3,6.3,0,0,1,4.62,1.68c1.33,1.33,1.47,2.66,1.47,4.37v9.94h-5.6v-7.91c0-.91,0-2.27-.7-3a2.33,2.33,0,0,0-1.78-.67,3.08,3.08,0,0,0-2.07.74,3.58,3.58,0,0,0-.91,2.48v8.4h-5.6Z"/><path d="M532,1163.77v11.06h-5.6v-11.06h-1.78v-4.58h1.78V1154H532v5.15h3.19v4.58Z"/><path d="M553.9,1168H542.24a4,4,0,0,0,1,2.63,3.15,3.15,0,0,0,2.31.77,4.51,4.51,0,0,0,1.82-.42,2.57,2.57,0,0,0,1-1h5.36a7.15,7.15,0,0,1-1.89,3.22c-1.16,1.12-3,2.17-6.37,2.17A8.86,8.86,0,0,1,539,1173a8.23,8.23,0,0,1-2.31-5.92,8.33,8.33,0,0,1,2.35-6,8.79,8.79,0,0,1,6.4-2.28,8.57,8.57,0,0,1,6,2.14,8.75,8.75,0,0,1,2.49,6.58Zm-5.15-3.22a3.78,3.78,0,0,0-.91-1.68,3.28,3.28,0,0,0-2.31-.84,3,3,0,0,0-2.27.84,3.12,3.12,0,0,0-.84,1.68Z"/><rect x="544.92" y="831.28" width="245.23" height="84" rx="12" ry="12" style="fill:none;stroke:#c13018;stroke-miterlimit:10;stroke-width:10px"/><line x1="312" y1="343" x2="195" y2="343" style="fill:none;stroke:#4fc2c9;stroke-miterlimit:10;stroke-width:10px"/><line x1="669" y1="343" x2="552" y2="343" style="fill:none;stroke:#4fc2c9;stroke-miterlimit:10;stroke-width:10px"/><path d="M150.43,723.82l3.71,8.26,4-8.26h3.44l3.95,8.51,3.92-8.51h6.23l-8.19,15.65h-3.78l-3.92-8.61L156,739.47h-3.78l-8.05-15.65Z"/><path d="M188.37,723.82H194v15.65h-5.6v-1.72A5.84,5.84,0,0,1,183.5,740a7.49,7.49,0,0,1-5.63-2.48,7.88,7.88,0,0,1-2.24-5.74A8.67,8.67,0,0,1,178,725.5a8.06,8.06,0,0,1,5.64-2.2,6.18,6.18,0,0,1,4.69,2Zm-5.88,5.25a3.67,3.67,0,0,0-1.12,2.56,3.58,3.58,0,0,0,1.08,2.55,4,4,0,0,0,2.52,1.05,3.59,3.59,0,0,0,2.52-1.08,3.4,3.4,0,0,0,1-2.52,3.48,3.48,0,0,0-1.08-2.56,3.56,3.56,0,0,0-5,0Z"/><path d="M200.62,714.16a3.15,3.15,0,1,1-3.15,3.15A3.14,3.14,0,0,1,200.62,714.16Zm2.8,9.66v15.65h-5.6V723.82Z"/><path d="M213.43,728.41v11.06h-5.6V728.41H206v-4.59h1.79v-5.14h5.6v5.14h3.18v4.59Z"/><path d="M223.58,746.05a22.9,22.9,0,0,1-3.43-7.84,29.17,29.17,0,0,1-1-8.19,30.49,30.49,0,0,1,1.3-9.17,31.56,31.56,0,0,1,3.15-6.9l3.95,2.1a30,30,0,0,0-2.59,6.34,32.41,32.41,0,0,0-1,7.45,37.49,37.49,0,0,0,.84,7.25,24.58,24.58,0,0,0,2.73,6.86Z"/><path d="M230.82,744a24.27,24.27,0,0,0,2.73-6.86,36.72,36.72,0,0,0,.84-7.25,32.41,32.41,0,0,0-1-7.45,29.5,29.5,0,0,0-2.59-6.34l4-2.1a32,32,0,0,1,3.15,6.9,31.42,31.42,0,0,1,1.29,9.2,29.12,29.12,0,0,1-1,8.16,23.29,23.29,0,0,1-3.43,7.84Z"/><path d="M633.25,588H621.59a4,4,0,0,0,1,2.63,3.15,3.15,0,0,0,2.31.77,4.51,4.51,0,0,0,1.82-.42,2.57,2.57,0,0,0,1-1H633a7.15,7.15,0,0,1-1.89,3.22c-1.16,1.12-3,2.17-6.37,2.17a8.89,8.89,0,0,1-6.48-2.38A8.19,8.19,0,0,1,616,587a8.36,8.36,0,0,1,2.34-6.05,8.83,8.83,0,0,1,6.41-2.28,8.57,8.57,0,0,1,6,2.14,8.75,8.75,0,0,1,2.49,6.58Zm-5.15-3.22a3.78,3.78,0,0,0-.91-1.68,3.28,3.28,0,0,0-2.31-.84,3,3,0,0,0-2.27.84,3.2,3.2,0,0,0-.85,1.68Z"/><path d="M642,586.24l-6.33-7.14h7.28l2.7,3.22,2.76-3.22h7.25l-6.48,7.14,7.84,8.5h-7.42l-4-4.65-4,4.65h-7.42Z"/><path d="M674.2,588H662.54a4,4,0,0,0,1,2.63,3.15,3.15,0,0,0,2.31.77,4.51,4.51,0,0,0,1.82-.42,2.57,2.57,0,0,0,1-1H674a7.15,7.15,0,0,1-1.89,3.22c-1.16,1.12-3,2.17-6.38,2.17a8.88,8.88,0,0,1-6.47-2.38,8.19,8.19,0,0,1-2.31-5.92,8.36,8.36,0,0,1,2.34-6.05,8.83,8.83,0,0,1,6.41-2.28,8.57,8.57,0,0,1,6,2.14,8.75,8.75,0,0,1,2.49,6.58Zm-5.15-3.22a3.78,3.78,0,0,0-.91-1.68,3.29,3.29,0,0,0-2.31-.84,3,3,0,0,0-2.28.84,3.27,3.27,0,0,0-.84,1.68Z"/><path d="M689.24,594.39a8.24,8.24,0,0,1-3.88.88,8.65,8.65,0,0,1-6.16-2.38,8.21,8.21,0,0,1-2.42-5.85,8.53,8.53,0,0,1,2.52-6,9,9,0,0,1,6.3-2.38,8,8,0,0,1,3.64.87v4.69a5,5,0,0,0-2.9-1,3.67,3.67,0,0,0-2.73,1.08,3.83,3.83,0,0,0-1.09,2.7,4,4,0,0,0,1,2.62,3.82,3.82,0,0,0,2.87,1.19,4.2,4.2,0,0,0,2.87-1Z"/><path d="M697.29,601.33a23.43,23.43,0,0,1-3.43-7.85,29.1,29.1,0,0,1-1-8.19,31,31,0,0,1,1.29-9.17,32.18,32.18,0,0,1,3.15-6.89l4,2.1a29.42,29.42,0,0,0-2.59,6.33,32.49,32.49,0,0,0-1,7.46,36.53,36.53,0,0,0,.84,7.24,24.16,24.16,0,0,0,2.73,6.86Z"/><path d="M704.54,599.22a24.46,24.46,0,0,0,2.73-6.86,37.29,37.29,0,0,0,.84-7.24,32.49,32.49,0,0,0-1-7.46,29.94,29.94,0,0,0-2.59-6.33l4-2.1a29.35,29.35,0,0,1,4.45,16.1,29,29,0,0,1-1,8.15,23,23,0,0,1-3.43,7.85Z"/><path d="M642.62,876H631a4,4,0,0,0,1,2.63,3.15,3.15,0,0,0,2.31.77,4.51,4.51,0,0,0,1.82-.42,2.64,2.64,0,0,0,1-1h5.36a7.09,7.09,0,0,1-1.9,3.22c-1.15,1.12-3,2.17-6.37,2.17a8.88,8.88,0,0,1-6.47-2.38,8.19,8.19,0,0,1-2.31-5.92,8.36,8.36,0,0,1,2.34-6.05,8.83,8.83,0,0,1,6.41-2.28,8.58,8.58,0,0,1,6,2.14,8.75,8.75,0,0,1,2.49,6.58Zm-5.15-3.22a3.78,3.78,0,0,0-.91-1.68,3.29,3.29,0,0,0-2.31-.84,3,3,0,0,0-2.28.84,3.27,3.27,0,0,0-.84,1.68Z"/><path d="M651.36,874.24,645,867.1h7.28l2.69,3.22,2.77-3.22H665l-6.48,7.14,7.84,8.5H659l-4-4.65-4,4.65h-7.42Z"/><path d="M671.1,857.44a3.15,3.15,0,1,1-3.15,3.15A3.14,3.14,0,0,1,671.1,857.44Zm2.8,9.66v15.64h-5.6V867.1Z"/><path d="M683.91,871.68v11.06h-5.6V871.68h-1.78V867.1h1.78V862h5.6v5.15h3.19v4.58Z"/><path d="M694.06,889.33a23.43,23.43,0,0,1-3.43-7.85,29.1,29.1,0,0,1-1-8.19,31,31,0,0,1,1.29-9.17,32.18,32.18,0,0,1,3.15-6.89l4,2.1a29.42,29.42,0,0,0-2.59,6.33,32.49,32.49,0,0,0-1,7.46,36.53,36.53,0,0,0,.84,7.24,24.16,24.16,0,0,0,2.73,6.86Z"/><path d="M701.31,887.22a24.46,24.46,0,0,0,2.73-6.86,37.29,37.29,0,0,0,.84-7.24,32.49,32.49,0,0,0-1-7.46,29.94,29.94,0,0,0-2.59-6.33l4-2.1a29.35,29.35,0,0,1,4.45,16.1,29,29,0,0,1-1,8.15,23,23,0,0,1-3.43,7.85Z"/><path d="M396.51,348.1v11.06h-5.6V348.1h-2v-4.59h2v-2.62a8.07,8.07,0,0,1,1.44-5.15,6.51,6.51,0,0,1,5.42-2.48,7.25,7.25,0,0,1,2.7.52v4.83a3.53,3.53,0,0,0-1.75-.52,2,2,0,0,0-1.58.59,4.19,4.19,0,0,0-.63,2.63v2.2h3.92v4.59Z"/><path d="M418.32,357.1a10.71,10.71,0,0,1-14,0,7.83,7.83,0,0,1-2.41-5.78,7.75,7.75,0,0,1,2.41-5.74,10.71,10.71,0,0,1,14,0,7.72,7.72,0,0,1,2.42,5.74A7.8,7.8,0,0,1,418.32,357.1Zm-9.49-8.34a3.56,3.56,0,1,0,5,5.05,3.47,3.47,0,0,0,1.08-2.49,3.81,3.81,0,0,0-1.08-2.56,3.61,3.61,0,0,0-5,0Z"/><path d="M424,343.51h5.6v2.56a5.06,5.06,0,0,1,2.21-2.17,6,6,0,0,1,2.9-.63l1.12.07v5.28a4.93,4.93,0,0,0-2.41-.56,3.71,3.71,0,0,0-2.56.84,4.75,4.75,0,0,0-1.26,3.58v6.68H424Z"/><path d="M443.87,333.64v15.51l5.28-5.64h7.6l-7.39,7.22,8,8.43h-7.78l-5.7-6.4v6.4h-5.6V333.64Z"/><path d="M464.17,365.74a22.9,22.9,0,0,1-3.43-7.84,29.13,29.13,0,0,1-1-8.19,30.49,30.49,0,0,1,1.3-9.17,31.56,31.56,0,0,1,3.15-6.9l3.95,2.1a30,30,0,0,0-2.59,6.34,32.41,32.41,0,0,0-1,7.45,37.39,37.39,0,0,0,.84,7.25,24.46,24.46,0,0,0,2.73,6.86Z"/><path d="M471.41,363.64a24.16,24.16,0,0,0,2.73-6.86,36.63,36.63,0,0,0,.84-7.25,32.41,32.41,0,0,0-1-7.45,29.5,29.5,0,0,0-2.59-6.34l4-2.1a32,32,0,0,1,3.15,6.9,31.42,31.42,0,0,1,1.29,9.2,29.07,29.07,0,0,1-1,8.16,23.29,23.29,0,0,1-3.43,7.84Z"/><path d="M721.7,409.63v7.74h-6.06V394h9.67a8,8,0,0,1,5.91,2.1,7.24,7.24,0,0,1,2.17,5.67,7.57,7.57,0,0,1-2.06,5.81,7.75,7.75,0,0,1-5.81,2Zm0-4.9h2a4,4,0,0,0,2.56-.73,2.7,2.7,0,0,0,.77-2.14,2.83,2.83,0,0,0-.7-2.1,3.58,3.58,0,0,0-2.59-.84H721.7Z"/><path d="M736.08,401.72h5.6v2.56a5.06,5.06,0,0,1,2.21-2.17,6.06,6.06,0,0,1,2.9-.63l1.13.07v5.28a5,5,0,0,0-2.42-.56,3.71,3.71,0,0,0-2.56.84,4.73,4.73,0,0,0-1.26,3.57v6.69h-5.6Z"/><path d="M765.45,415.3a10.71,10.71,0,0,1-14,0,8.08,8.08,0,0,1,0-11.51,10.71,10.71,0,0,1,14,0,8.05,8.05,0,0,1,0,11.51ZM756,407a3.48,3.48,0,0,0,0,5,3.57,3.57,0,0,0,2.52,1.05A3.52,3.52,0,0,0,761,412a3.44,3.44,0,0,0,1.09-2.48A3.82,3.82,0,0,0,761,407a3.61,3.61,0,0,0-5,0Z"/><path d="M782.92,417a8.37,8.37,0,0,1-3.89.87,8.61,8.61,0,0,1-6.16-2.38,8.17,8.17,0,0,1-2.42-5.84,8.55,8.55,0,0,1,2.52-6.06,9,9,0,0,1,6.3-2.38,8.08,8.08,0,0,1,3.65.88v4.69a5,5,0,0,0-2.91-1,3.67,3.67,0,0,0-2.73,1.09,3.8,3.8,0,0,0-1.09,2.69,4.06,4.06,0,0,0,1,2.63,3.82,3.82,0,0,0,2.87,1.19,4.28,4.28,0,0,0,2.88-1.05Z"/><path d="M802.69,410.58H791a4,4,0,0,0,1,2.62,3.15,3.15,0,0,0,2.31.77,4.33,4.33,0,0,0,1.82-.42,2.57,2.57,0,0,0,1-1.05h5.36a6.92,6.92,0,0,1-1.89,3.22c-1.15,1.12-3,2.17-6.37,2.17a8.86,8.86,0,0,1-6.48-2.38,8.2,8.2,0,0,1-2.31-5.91,8.34,8.34,0,0,1,2.35-6.06,8.79,8.79,0,0,1,6.4-2.27,8.59,8.59,0,0,1,6,2.13,8.77,8.77,0,0,1,2.48,6.58Zm-5.15-3.22a3.73,3.73,0,0,0-.91-1.68,3.23,3.23,0,0,0-2.31-.84,3,3,0,0,0-2.27.84,3.12,3.12,0,0,0-.84,1.68Z"/><path d="M806.92,412.19a7.93,7.93,0,0,0,2.24,1.15,7.17,7.17,0,0,0,2.17.39,2.42,2.42,0,0,0,1.44-.42.93.93,0,0,0,.28-.74.85.85,0,0,0-.28-.7,3.56,3.56,0,0,0-1.47-.56l-1.47-.35a5,5,0,0,1-2.73-1.36,3.78,3.78,0,0,1-1-2.7,5.61,5.61,0,0,1,1.47-3.81,7.88,7.88,0,0,1,5.6-1.89,13.06,13.06,0,0,1,5,1l-1.89,3.57a7.77,7.77,0,0,0-2.94-.77,2.38,2.38,0,0,0-1.3.32.84.84,0,0,0-.49.77.91.91,0,0,0,.67.87c.52.21,1,.21,1.85.46l1,.28a6.78,6.78,0,0,1,2.31,1.22,4.44,4.44,0,0,1,1.19,3.12,5.21,5.21,0,0,1-1.58,3.88c-1.82,1.82-4.48,2-5.77,2a11.49,11.49,0,0,1-6.3-1.82Z"/><path d="M727,459a8.35,8.35,0,0,1-3.89.87,8.63,8.63,0,0,1-6.16-2.38,8.16,8.16,0,0,1-2.41-5.84,8.51,8.51,0,0,1,2.52-6.06,9,9,0,0,1,6.3-2.38,8,8,0,0,1,3.64.88v4.69a4.94,4.94,0,0,0-2.91-1,3.69,3.69,0,0,0-2.73,1.09,3.79,3.79,0,0,0-1.08,2.69,4,4,0,0,0,1,2.63,3.8,3.8,0,0,0,2.87,1.19,4.25,4.25,0,0,0,2.87-1.05Z"/><path d="M745.89,457.3a10.71,10.71,0,0,1-14,0,8.05,8.05,0,0,1,0-11.51,9.75,9.75,0,0,1,7-2.59,9.89,9.89,0,0,1,7,2.59,8.08,8.08,0,0,1,0,11.51ZM736.4,449a3.46,3.46,0,0,0,0,5,3.5,3.5,0,0,0,5,0,3.44,3.44,0,0,0,1.09-2.48A3.82,3.82,0,0,0,741.4,449a3.6,3.6,0,0,0-5,0Z"/><path d="M757.12,467.38h-5.6V443.72h5.6v1.72a5.82,5.82,0,0,1,4.79-2.24,7.78,7.78,0,0,1,5.57,2.27,8.88,8.88,0,0,1-.14,12.25,7.5,7.5,0,0,1-5.36,2.17,6.66,6.66,0,0,1-4.86-2ZM758,449a3.81,3.81,0,0,0-1.09,2.59,3.73,3.73,0,0,0,1.09,2.48,3.54,3.54,0,0,0,2.52,1.05,3.35,3.35,0,0,0,2.48-1.05,3.67,3.67,0,0,0,1.09-2.48A3.81,3.81,0,0,0,763,449a3.35,3.35,0,0,0-2.48-1.05A3.54,3.54,0,0,0,758,449Z"/><path d="M775.88,434.06a3.15,3.15,0,1,1-3.15,3.15A3.14,3.14,0,0,1,775.88,434.06Zm2.8,9.66v15.65h-5.6V443.72Z"/><path d="M788.09,433.85v25.52h-5.6V433.85Z"/></svg>