<svg id="Layer_1" data-name="Layer 1" xmlns="http://www.w3.org/2000/svg" viewBox="0 0 1258 595"><title>Cap 4 -</title><polygon points="204.02 367.48 287.25 367.48 287.25 379.48 312.75 353.98 287.25 328.49 287.25 340.49 204.02 340.49 204.02 367.48" style="fill:none;stroke:#3a5c84;stroke-miterlimit:10;stroke-width:10px"/><polygon points="663.32 368.48 746.55 368.48 746.55 380.48 772.05 354.98 746.55 329.49 746.55 341.49 663.32 341.49 663.32 368.48" style="fill:none;stroke:#91c54f;stroke-miterlimit:10;stroke-width:10px"/><polygon points="473.47 163.49 473.47 246.73 461.47 246.73 486.96 272.23 512.46 246.73 500.46 246.73 500.46 163.49 473.47 163.49" style="fill:none;stroke:#f7931f;stroke-miterlimit:10;stroke-width:10px"/><rect x="364.35" y="312.76" width="245.23" height="84" rx="12" ry="12" style="fill:none;stroke:#91c54f;stroke-miterlimit:10;stroke-width:10px"/><rect x="823.93" y="284.26" width="377.57" height="141" rx="12" ry="12" style="fill:none;stroke:#636868;stroke-miterlimit:10;stroke-width:10px"/><path d="M434.63,343.89v18.2h7.28v5.14H428.57V343.89Z"/><path d="M460.25,365.17a10.71,10.71,0,0,1-14,0,7.83,7.83,0,0,1-2.41-5.78,7.75,7.75,0,0,1,2.41-5.74,9.78,9.78,0,0,1,7-2.59,9.92,9.92,0,0,1,7,2.59,7.75,7.75,0,0,1,2.41,5.74A7.83,7.83,0,0,1,460.25,365.17Zm-9.49-8.33a3.55,3.55,0,1,0,5,5,3.47,3.47,0,0,0,1.08-2.49,3.78,3.78,0,0,0-1.08-2.55,3.59,3.59,0,0,0-5,0Z"/><path d="M478,351.59h5.6v15.64H478v-1.71a5.84,5.84,0,0,1-4.86,2.24,7.49,7.49,0,0,1-5.64-2.49,7.9,7.9,0,0,1-2.24-5.74,8.64,8.64,0,0,1,2.42-6.26,8,8,0,0,1,5.63-2.21,6.2,6.2,0,0,1,4.69,2Zm-5.88,5.25a3.51,3.51,0,0,0,0,5.11A3.91,3.91,0,0,0,474.6,363a3.6,3.6,0,0,0,2.52-1.09,3.4,3.4,0,0,0,1.05-2.52,3.45,3.45,0,0,0-1.09-2.55,3.54,3.54,0,0,0-5,0Z"/><path d="M505.15,367.23h-5.6v-1.71a5.73,5.73,0,0,1-4.72,2.24,7.52,7.52,0,0,1-5.5-2.17,8.66,8.66,0,0,1-2.52-6.23,8.53,8.53,0,0,1,2.56-6.2,8,8,0,0,1,5.53-2.1,6.2,6.2,0,0,1,4.65,2V341.72h5.6Zm-6.61-5.18a3.75,3.75,0,0,0,1.19-2.66,4.12,4.12,0,0,0-1.05-2.52,3.45,3.45,0,0,0-2.56-1.05,3.42,3.42,0,0,0-2.48,1,3.85,3.85,0,0,0-1.09,2.66,3.54,3.54,0,0,0,1.09,2.45,3.47,3.47,0,0,0,2.48,1.05A3.83,3.83,0,0,0,498.54,362.05Z"/><path d="M525.59,360.44H513.94a4,4,0,0,0,1,2.63,3.15,3.15,0,0,0,2.31.77,4.51,4.51,0,0,0,1.82-.42,2.64,2.64,0,0,0,1-1.05h5.35a7,7,0,0,1-1.89,3.22c-1.15,1.12-3,2.17-6.37,2.17a8.88,8.88,0,0,1-6.47-2.38,8.19,8.19,0,0,1-2.31-5.92,8.36,8.36,0,0,1,2.34-6,8.83,8.83,0,0,1,6.41-2.28,8.58,8.58,0,0,1,6,2.14,8.77,8.77,0,0,1,2.48,6.58Zm-5.14-3.22a3.78,3.78,0,0,0-.91-1.68,3.29,3.29,0,0,0-2.31-.84,3,3,0,0,0-2.28.84,3.27,3.27,0,0,0-.84,1.68Z"/><path d="M528.81,351.59h5.6v2.55a5.06,5.06,0,0,1,2.21-2.17,6.15,6.15,0,0,1,2.9-.63c.14,0,.39,0,1.12.07v5.29a4.93,4.93,0,0,0-2.41-.56,3.66,3.66,0,0,0-2.56.84,4.72,4.72,0,0,0-1.26,3.57v6.68h-5.6Z"/><path d="M206,71.23V47.88h9a6.55,6.55,0,0,1,5.11,1.83,6.33,6.33,0,0,1,1.43,4.37,6,6,0,0,1-.66,2.87A3.67,3.67,0,0,1,219,58.77a5.79,5.79,0,0,1,3.18,1.4,5.86,5.86,0,0,1,1.58,4.27A6.33,6.33,0,0,1,222.06,69a8.78,8.78,0,0,1-6.33,2.2Zm6.05-14.14h1.12a3.22,3.22,0,0,0,2.31-.73,2.26,2.26,0,0,0,.56-1.54,2.41,2.41,0,0,0-.56-1.58,3.23,3.23,0,0,0-2.31-.7h-1.12Zm0,9.42h1.37c1.68,0,3.08-.18,3.74-1a2.26,2.26,0,0,0,.49-1.5,2.36,2.36,0,0,0-.59-1.68c-.74-.74-2.24-.77-3.75-.77h-1.26Z"/><path d="M229.9,45.93a3.15,3.15,0,1,1-3.15,3.15A3.14,3.14,0,0,1,229.9,45.93Zm2.8,9.66V71.23h-5.6V55.59Z"/><path d="M242.12,45.71V57.09a6.2,6.2,0,0,1,4.65-2,8,8,0,0,1,5.53,2.1,8.53,8.53,0,0,1,2.56,6.2,8.66,8.66,0,0,1-2.52,6.23,7.52,7.52,0,0,1-5.5,2.17,5.73,5.73,0,0,1-4.72-2.24v1.71h-5.6V45.71ZM248,66a3.54,3.54,0,0,0,1.09-2.45A3.85,3.85,0,0,0,248,60.84a3.42,3.42,0,0,0-2.48-1,3.45,3.45,0,0,0-2.56,1,4.12,4.12,0,0,0-1.05,2.52,3.75,3.75,0,0,0,1.19,2.66,3.83,3.83,0,0,0,2.42,1A3.47,3.47,0,0,0,248,66Z"/><path d="M263.68,45.71V71.23h-5.6V45.71Z"/><path d="M270.29,45.93a3.15,3.15,0,1,1-3.15,3.15A3.14,3.14,0,0,1,270.29,45.93Zm2.8,9.66V71.23h-5.6V55.59Z"/><path d="M292.66,69.17a10.71,10.71,0,0,1-14,0,7.83,7.83,0,0,1-2.41-5.78,7.75,7.75,0,0,1,2.41-5.74,9.78,9.78,0,0,1,7-2.59,9.92,9.92,0,0,1,7,2.59,7.75,7.75,0,0,1,2.41,5.74A7.83,7.83,0,0,1,292.66,69.17Zm-9.49-8.33a3.55,3.55,0,1,0,5,5,3.47,3.47,0,0,0,1.08-2.49,3.78,3.78,0,0,0-1.08-2.55,3.59,3.59,0,0,0-5,0Z"/><path d="M304.49,60.17V71.23h-5.6V60.17H297.1V55.59h1.79V50.44h5.6v5.15h3.18v4.58Z"/><path d="M326.36,64.44H314.71a4,4,0,0,0,1,2.63,3.15,3.15,0,0,0,2.31.77,4.51,4.51,0,0,0,1.82-.42,2.64,2.64,0,0,0,1-1h5.35a7,7,0,0,1-1.89,3.22c-1.15,1.12-3,2.17-6.37,2.17a8.88,8.88,0,0,1-6.47-2.38,8.19,8.19,0,0,1-2.31-5.92,8.36,8.36,0,0,1,2.34-6.05,8.83,8.83,0,0,1,6.41-2.28,8.58,8.58,0,0,1,6,2.14,8.77,8.77,0,0,1,2.48,6.58Zm-5.14-3.22a3.78,3.78,0,0,0-.91-1.68A3.29,3.29,0,0,0,318,58.7a3,3,0,0,0-2.28.84,3.27,3.27,0,0,0-.84,1.68Z"/><path d="M341.41,70.88a8.24,8.24,0,0,1-3.88.88,8.65,8.65,0,0,1-6.16-2.38A8.21,8.21,0,0,1,329,63.53a8.53,8.53,0,0,1,2.52-6.05,9,9,0,0,1,6.3-2.38,8,8,0,0,1,3.64.87v4.69a5,5,0,0,0-2.9-1,3.67,3.67,0,0,0-2.73,1.08,3.83,3.83,0,0,0-1.09,2.7,4,4,0,0,0,1,2.62,3.82,3.82,0,0,0,2.87,1.19,4.2,4.2,0,0,0,2.87-1Z"/><path d="M347.4,45.93a3.15,3.15,0,1,1-3.16,3.15A3.14,3.14,0,0,1,347.4,45.93Zm2.8,9.66V71.23h-5.61V55.59Z"/><path d="M379.88,71.23h-5.6V69.52a5.76,5.76,0,0,1-4.73,2.24,7.52,7.52,0,0,1-5.5-2.17,8.66,8.66,0,0,1-2.52-6.23,8.53,8.53,0,0,1,2.56-6.2,8,8,0,0,1,5.53-2.1,6.24,6.24,0,0,1,4.66,2V45.71h5.6Zm-6.62-5.18a3.71,3.71,0,0,0,1.19-2.66,4.12,4.12,0,0,0-1.05-2.52,3.59,3.59,0,0,0-5,0,3.85,3.85,0,0,0-1.09,2.66A3.54,3.54,0,0,0,368.36,66a3.47,3.47,0,0,0,2.48,1A3.8,3.8,0,0,0,373.26,66.05Z"/><path d="M400.32,64.44H388.66a4,4,0,0,0,1,2.63,3.15,3.15,0,0,0,2.31.77,4.51,4.51,0,0,0,1.82-.42,2.57,2.57,0,0,0,1-1h5.36a7.15,7.15,0,0,1-1.89,3.22c-1.16,1.12-3,2.17-6.38,2.17a8.88,8.88,0,0,1-6.47-2.38,8.19,8.19,0,0,1-2.31-5.92,8.36,8.36,0,0,1,2.34-6.05,8.83,8.83,0,0,1,6.41-2.28,8.57,8.57,0,0,1,6,2.14,8.75,8.75,0,0,1,2.49,6.58Zm-5.15-3.22a3.78,3.78,0,0,0-.91-1.68A3.29,3.29,0,0,0,392,58.7a3,3,0,0,0-2.28.84,3.27,3.27,0,0,0-.84,1.68Z"/><path d="M302.21,108.05a8.23,8.23,0,0,0,2.24,1.16,7.46,7.46,0,0,0,2.17.38,2.36,2.36,0,0,0,1.44-.42.9.9,0,0,0,.28-.73.84.84,0,0,0-.28-.7,3.43,3.43,0,0,0-1.47-.56l-1.47-.35a5.08,5.08,0,0,1-2.73-1.37,3.75,3.75,0,0,1-1-2.69A5.62,5.62,0,0,1,302.84,99a7.92,7.92,0,0,1,5.6-1.89,12.83,12.83,0,0,1,5,1l-1.89,3.57a7.77,7.77,0,0,0-2.94-.77,2.38,2.38,0,0,0-1.3.31.85.85,0,0,0-.49.77.92.92,0,0,0,.67.88c.52.21,1,.21,1.85.45l1,.28a6.63,6.63,0,0,1,2.31,1.23,4.41,4.41,0,0,1,1.19,3.11,5.25,5.25,0,0,1-1.58,3.89c-1.82,1.82-4.48,2-5.77,2a11.58,11.58,0,0,1-6.3-1.82Z"/><path d="M319.54,87.93a3.15,3.15,0,1,1-3.16,3.15A3.14,3.14,0,0,1,319.54,87.93Zm2.8,9.66v15.64h-5.61V97.59Z"/><path d="M327.17,108.05a8.09,8.09,0,0,0,2.24,1.16,7.41,7.41,0,0,0,2.17.38,2.33,2.33,0,0,0,1.43-.42.87.87,0,0,0,.28-.73.81.81,0,0,0-.28-.7,3.43,3.43,0,0,0-1.47-.56l-1.47-.35a5.08,5.08,0,0,1-2.73-1.37,3.8,3.8,0,0,1-1-2.69A5.62,5.62,0,0,1,327.79,99a8,8,0,0,1,5.61-1.89,12.77,12.77,0,0,1,5,1l-1.89,3.57a7.72,7.72,0,0,0-2.94-.77,2.35,2.35,0,0,0-1.29.31.84.84,0,0,0-.49.77.91.91,0,0,0,.66.88c.53.21,1,.21,1.86.45l1,.28a6.45,6.45,0,0,1,2.31,1.23,4.41,4.41,0,0,1,1.19,3.11,5.25,5.25,0,0,1-1.57,3.89c-1.82,1.82-4.48,2-5.78,2a11.6,11.6,0,0,1-6.3-1.82Z"/><path d="M347.88,102.17v11.06h-5.6V102.17H340.5V97.59h1.78V92.44h5.6v5.15h3.19v4.58Z"/><path d="M369.76,106.44H358.1a4,4,0,0,0,1,2.63,3.15,3.15,0,0,0,2.31.77,4.51,4.51,0,0,0,1.82-.42,2.57,2.57,0,0,0,1-1h5.36a7,7,0,0,1-1.89,3.22c-1.15,1.12-3,2.17-6.37,2.17a8.9,8.9,0,0,1-6.48-2.38,8.23,8.23,0,0,1-2.31-5.92,8.33,8.33,0,0,1,2.35-6,8.79,8.79,0,0,1,6.4-2.28,8.61,8.61,0,0,1,6,2.14,8.77,8.77,0,0,1,2.48,6.58Zm-5.14-3.22a3.78,3.78,0,0,0-.91-1.68,3.31,3.31,0,0,0-2.32-.84,3,3,0,0,0-2.27.84,3.12,3.12,0,0,0-.84,1.68Z"/><path d="M373,97.59h5.6v1.89a6,6,0,0,1,4.69-2.17,6.31,6.31,0,0,1,3,.7,4.86,4.86,0,0,1,2.17,2.24,5.47,5.47,0,0,1,2.14-2.17,6.33,6.33,0,0,1,3.25-.77,6.2,6.2,0,0,1,4.34,1.43,5.76,5.76,0,0,1,1.47,4.31v10.18h-5.6V105.5c0-1.65-.17-2.77-.8-3.36a2.06,2.06,0,0,0-1.47-.53,2.3,2.3,0,0,0-1.65.63,4,4,0,0,0-1,3v8h-5.61V105.5c0-1.51-.1-2.7-.73-3.36a2.15,2.15,0,0,0-1.68-.63,1.94,1.94,0,0,0-1.54.56c-1,.94-1,2.45-1,3.43v7.73H373Z"/><path d="M896.89,318.35l6.86-5.15,6.93,5.15L908.2,321l-4.45-3.43L899.27,321Zm9.9,4.54v23.35h-6V322.89Z"/><path d="M911.17,330.6h5.6v2a5.91,5.91,0,0,1,5-2.31,6.3,6.3,0,0,1,4.62,1.68c1.33,1.33,1.47,2.66,1.47,4.37v9.94h-5.6v-7.91c0-.91,0-2.27-.7-3a2.33,2.33,0,0,0-1.78-.67,3.06,3.06,0,0,0-2.07.74,3.58,3.58,0,0,0-.91,2.48v8.4h-5.6Z"/><path d="M943.48,345.89a8.28,8.28,0,0,1-3.89.88,8.65,8.65,0,0,1-6.16-2.38,8.21,8.21,0,0,1-2.42-5.85,8.53,8.53,0,0,1,2.52-6.05,9,9,0,0,1,6.3-2.38,8.05,8.05,0,0,1,3.65.87v4.69a5.05,5.05,0,0,0-2.91-1,3.67,3.67,0,0,0-2.73,1.08,3.83,3.83,0,0,0-1.09,2.7,4,4,0,0,0,1,2.62,3.82,3.82,0,0,0,2.87,1.19,4.23,4.23,0,0,0,2.88-1.05Z"/><path d="M958.77,330.6h5.6v15.64h-5.6v-1.71a5.87,5.87,0,0,1-4.87,2.24,7.47,7.47,0,0,1-5.63-2.49,7.86,7.86,0,0,1-2.24-5.74,8.64,8.64,0,0,1,2.41-6.26,8.07,8.07,0,0,1,5.64-2.21,6.22,6.22,0,0,1,4.69,2Zm3.08-8.06a5.49,5.49,0,0,1-1.54,3.82,7.34,7.34,0,0,1-9.1,0,5.49,5.49,0,0,1-1.54-3.82h3.6A2.4,2.4,0,0,0,954,324a2.82,2.82,0,0,0,1.79.63,2.77,2.77,0,0,0,1.78-.63,2.47,2.47,0,0,0,.71-1.44Zm-9,13.31a3.52,3.52,0,0,0,0,5.11,4,4,0,0,0,2.53,1.05,3.59,3.59,0,0,0,2.51-1.09A3.4,3.4,0,0,0,959,338.4a3.48,3.48,0,0,0-1.09-2.55,3.54,3.54,0,0,0-5,0Z"/><path d="M968.22,330.6h5.6v2.55A5,5,0,0,1,976,331a6.19,6.19,0,0,1,2.91-.63c.14,0,.38,0,1.12.07v5.29a5,5,0,0,0-2.42-.56,3.63,3.63,0,0,0-2.55.84,4.72,4.72,0,0,0-1.26,3.57v6.68h-5.6Z"/><path d="M993.67,345.89a8.3,8.3,0,0,1-3.89.88,8.65,8.65,0,0,1-6.16-2.38,8.21,8.21,0,0,1-2.42-5.85,8.53,8.53,0,0,1,2.52-6.05,9,9,0,0,1,6.3-2.38,8.08,8.08,0,0,1,3.65.87v4.69a5.05,5.05,0,0,0-2.91-1,3.67,3.67,0,0,0-2.73,1.08,3.83,3.83,0,0,0-1.09,2.7,4,4,0,0,0,1,2.62,3.82,3.82,0,0,0,2.87,1.19,4.23,4.23,0,0,0,2.88-1.05Z"/><path d="M1009,330.6h5.6v15.64H1009v-1.71a5.87,5.87,0,0,1-4.87,2.24,7.47,7.47,0,0,1-5.63-2.49,7.86,7.86,0,0,1-2.24-5.74,8.64,8.64,0,0,1,2.41-6.26,8.07,8.07,0,0,1,5.64-2.21,6.22,6.22,0,0,1,4.69,2Zm-5.88,5.25a3.52,3.52,0,0,0,0,5.11,4,4,0,0,0,2.52,1.05,3.6,3.6,0,0,0,2.52-1.09,3.4,3.4,0,0,0,1-2.52,3.47,3.47,0,0,0-1.08-2.55,3.54,3.54,0,0,0-5,0Z"/><path d="M1018.41,330.6h5.6v2.55a5,5,0,0,1,2.2-2.17,6.19,6.19,0,0,1,2.91-.63c.14,0,.38,0,1.12.07v5.29a5,5,0,0,0-2.42-.56,3.63,3.63,0,0,0-2.55.84,4.72,4.72,0,0,0-1.26,3.57v6.68h-5.6Z"/><path d="M1049.31,339.45h-11.65a4,4,0,0,0,1,2.63,3.15,3.15,0,0,0,2.31.77,4.51,4.51,0,0,0,1.82-.42,2.64,2.64,0,0,0,1-1.05h5.35a7,7,0,0,1-1.89,3.22c-1.15,1.12-3,2.17-6.37,2.17a8.88,8.88,0,0,1-6.47-2.38,8.19,8.19,0,0,1-2.31-5.92,8.36,8.36,0,0,1,2.34-6.05,8.83,8.83,0,0,1,6.41-2.28,8.58,8.58,0,0,1,6,2.14,8.77,8.77,0,0,1,2.48,6.58Zm-5.14-3.22a3.78,3.78,0,0,0-.91-1.68,3.29,3.29,0,0,0-2.31-.84,3,3,0,0,0-2.28.84,3.27,3.27,0,0,0-.84,1.68Z"/><path d="M1066.71,335.18v11.06h-5.6V335.18h-2V330.6h2v-1.93c0-2.1.28-4.34,2.13-6.13a8.88,8.88,0,0,1,6.16-2.2,9.45,9.45,0,0,1,6.27,2.1,7.11,7.11,0,0,1,2,5.25v.81H1072V328a3.24,3.24,0,0,0-.7-2.1,2.9,2.9,0,0,0-2-.7,2.7,2.7,0,0,0-1.93.8,3.27,3.27,0,0,0-.73,2.42v2.21h3.92v4.58Zm10.92-4.58v15.64H1072V330.6Z"/><path d="M1082.14,341.06a8.23,8.23,0,0,0,2.24,1.16,7.46,7.46,0,0,0,2.17.38,2.36,2.36,0,0,0,1.44-.42.9.9,0,0,0,.28-.73.84.84,0,0,0-.28-.7,3.43,3.43,0,0,0-1.47-.56l-1.47-.35a5.08,5.08,0,0,1-2.73-1.37,3.75,3.75,0,0,1-1-2.69,5.62,5.62,0,0,1,1.47-3.82,7.92,7.92,0,0,1,5.6-1.89,12.83,12.83,0,0,1,5,1l-1.89,3.57a7.77,7.77,0,0,0-2.94-.77,2.38,2.38,0,0,0-1.3.31.85.85,0,0,0-.49.77.92.92,0,0,0,.67.88c.52.21,1,.21,1.85.45l1,.28a6.63,6.63,0,0,1,2.31,1.23,4.41,4.41,0,0,1,1.19,3.11,5.25,5.25,0,0,1-1.58,3.89c-1.82,1.82-4.48,2-5.77,2a11.58,11.58,0,0,1-6.3-1.82Zm2.73,6.93,5.25.56-3.57,6.44-3.5-.42Z"/><path d="M1099.47,320.94a3.15,3.15,0,1,1-3.15,3.15A3.14,3.14,0,0,1,1099.47,320.94Zm2.8,9.66v15.64h-5.6V330.6Z"/><path d="M1122.67,339.45H1111a4,4,0,0,0,1,2.63,3.15,3.15,0,0,0,2.31.77,4.51,4.51,0,0,0,1.82-.42,2.64,2.64,0,0,0,1-1.05h5.35a7,7,0,0,1-1.89,3.22c-1.15,1.12-3,2.17-6.37,2.17a8.88,8.88,0,0,1-6.47-2.38,8.19,8.19,0,0,1-2.31-5.92,8.36,8.36,0,0,1,2.34-6.05,8.83,8.83,0,0,1,6.41-2.28,8.58,8.58,0,0,1,6,2.14,8.77,8.77,0,0,1,2.48,6.58Zm-5.14-3.22a3.78,3.78,0,0,0-.91-1.68,3.29,3.29,0,0,0-2.31-.84,3,3,0,0,0-2.28.84,3.27,3.27,0,0,0-.84,1.68Z"/><path d="M1125.89,330.6h5.6v2.55a5.06,5.06,0,0,1,2.21-2.17,6.15,6.15,0,0,1,2.9-.63c.14,0,.39,0,1.12.07v5.29a4.93,4.93,0,0,0-2.41-.56,3.66,3.66,0,0,0-2.56.84,4.72,4.72,0,0,0-1.26,3.57v6.68h-5.6Z"/><path d="M951.88,381.45H940.22a4,4,0,0,0,1,2.63,3.15,3.15,0,0,0,2.31.77,4.51,4.51,0,0,0,1.82-.42,2.64,2.64,0,0,0,1-1.05h5.36a7.15,7.15,0,0,1-1.89,3.22c-1.16,1.12-3,2.17-6.38,2.17a8.88,8.88,0,0,1-6.47-2.38,8.19,8.19,0,0,1-2.31-5.92,8.36,8.36,0,0,1,2.34-6.05,8.83,8.83,0,0,1,6.41-2.28,8.57,8.57,0,0,1,6,2.14,8.75,8.75,0,0,1,2.49,6.58Zm-5.15-3.22a3.78,3.78,0,0,0-.91-1.68,3.29,3.29,0,0,0-2.31-.84,3,3,0,0,0-2.28.84,3.27,3.27,0,0,0-.84,1.68Z"/><path d="M960.62,379.74l-6.33-7.14h7.28l2.69,3.22L967,372.6h7.25l-6.48,7.14,7.84,8.5h-7.42l-4-4.65-4,4.65h-7.42Z"/><path d="M992.82,381.45H981.17a4,4,0,0,0,1,2.63,3.15,3.15,0,0,0,2.31.77,4.51,4.51,0,0,0,1.82-.42,2.64,2.64,0,0,0,1-1.05h5.35a7,7,0,0,1-1.89,3.22c-1.15,1.12-3,2.17-6.37,2.17a8.88,8.88,0,0,1-6.47-2.38,8.19,8.19,0,0,1-2.31-5.92,8.36,8.36,0,0,1,2.34-6.05,8.83,8.83,0,0,1,6.41-2.28,8.58,8.58,0,0,1,6,2.14,8.77,8.77,0,0,1,2.48,6.58Zm-5.14-3.22a3.78,3.78,0,0,0-.91-1.68,3.29,3.29,0,0,0-2.31-.84,3,3,0,0,0-2.28.84,3.27,3.27,0,0,0-.84,1.68Z"/><path d="M1007.87,387.89a8.24,8.24,0,0,1-3.88.88,8.65,8.65,0,0,1-6.16-2.38,8.21,8.21,0,0,1-2.42-5.85,8.53,8.53,0,0,1,2.52-6.05,9,9,0,0,1,6.3-2.38,8,8,0,0,1,3.64.87v4.69a5,5,0,0,0-2.9-1,3.67,3.67,0,0,0-2.73,1.08,3.83,3.83,0,0,0-1.09,2.7,4,4,0,0,0,1,2.62,3.82,3.82,0,0,0,2.87,1.19,4.2,4.2,0,0,0,2.87-1.05Z"/><path d="M1016.66,372.6v8.75a3,3,0,0,0,.84,2.27,2.89,2.89,0,0,0,2,.6,2.59,2.59,0,0,0,2-.67,2.9,2.9,0,0,0,.81-2.2V372.6h5.6v9.76a5.37,5.37,0,0,1-1.51,4.2c-1.92,2-4.62,2.21-6.75,2.21-2.35,0-5.22-.25-7.07-2.24a5.63,5.63,0,0,1-1.47-4.17V372.6Z"/><path d="M1037.9,377.18v11.06h-5.6V377.18h-1.78V372.6h1.78v-5.15h5.6v5.15h3.19v4.58Z"/><path d="M1055.3,372.6h5.6v15.64h-5.6v-1.71a5.87,5.87,0,0,1-4.87,2.24,7.47,7.47,0,0,1-5.63-2.49,7.86,7.86,0,0,1-2.24-5.74,8.64,8.64,0,0,1,2.41-6.26,8.07,8.07,0,0,1,5.64-2.21,6.22,6.22,0,0,1,4.69,2Zm-5.88,5.25a3.52,3.52,0,0,0,0,5.11,4,4,0,0,0,2.52,1.05,3.6,3.6,0,0,0,2.52-1.09,3.4,3.4,0,0,0,1-2.52,3.47,3.47,0,0,0-1.08-2.55,3.54,3.54,0,0,0-5,0Z"/><path d="M1070.35,362.72V374.1a6.2,6.2,0,0,1,4.65-2,8,8,0,0,1,5.53,2.1,8.53,8.53,0,0,1,2.56,6.2,8.66,8.66,0,0,1-2.52,6.23,7.52,7.52,0,0,1-5.5,2.17,5.73,5.73,0,0,1-4.72-2.24v1.71h-5.6V362.72Zm5.91,20.24a3.54,3.54,0,0,0,1.09-2.45,3.85,3.85,0,0,0-1.09-2.66,3.42,3.42,0,0,0-2.48-1,3.45,3.45,0,0,0-2.56,1.05,4.12,4.12,0,0,0-1,2.52,3.75,3.75,0,0,0,1.19,2.66,3.83,3.83,0,0,0,2.42.95A3.47,3.47,0,0,0,1076.26,383Z"/><path d="M1089.11,362.94a3.15,3.15,0,1,1-3.15,3.15A3.14,3.14,0,0,1,1089.11,362.94Zm2.8,9.66v15.64h-5.61V372.6Z"/><path d="M1101.32,362.72v25.52h-5.6V362.72Z"/><path d="M174.72,418.34l6.86-5.15,6.93,5.15L186,421l-4.45-3.43L177.1,421Zm9.91,4.54v23.35h-6.06V422.88Z"/><path d="M189,430.59h5.6v2a5.91,5.91,0,0,1,5-2.31,6.3,6.3,0,0,1,4.62,1.68c1.33,1.33,1.47,2.66,1.47,4.37v9.94h-5.6v-7.91c0-.91,0-2.27-.7-3a2.33,2.33,0,0,0-1.78-.67,3.08,3.08,0,0,0-2.07.74,3.58,3.58,0,0,0-.91,2.48v8.4H189Z"/><path d="M221.31,445.88a8.28,8.28,0,0,1-3.89.88,8.67,8.67,0,0,1-6.16-2.38,8.21,8.21,0,0,1-2.42-5.85,8.5,8.5,0,0,1,2.53-6,9,9,0,0,1,6.3-2.38,8,8,0,0,1,3.64.87v4.69a5.05,5.05,0,0,0-2.91-1,3.67,3.67,0,0,0-2.73,1.08,3.81,3.81,0,0,0-1.08,2.7,4,4,0,0,0,1,2.62,3.78,3.78,0,0,0,2.87,1.19,4.23,4.23,0,0,0,2.87-1.05Z"/><path d="M236.6,430.59h5.6v15.64h-5.6v-1.71a5.84,5.84,0,0,1-4.86,2.24,7.49,7.49,0,0,1-5.64-2.49,7.86,7.86,0,0,1-2.24-5.74,8.64,8.64,0,0,1,2.41-6.26,8.07,8.07,0,0,1,5.64-2.21,6.2,6.2,0,0,1,4.69,2Zm3.08-8a5.46,5.46,0,0,1-1.54,3.81,7.34,7.34,0,0,1-9.1,0,5.55,5.55,0,0,1-1.54-3.81h3.61a2.4,2.4,0,0,0,.7,1.43,2.84,2.84,0,0,0,3.57,0,2.4,2.4,0,0,0,.7-1.43Zm-9,13.3a3.51,3.51,0,0,0,0,5.11,3.91,3.91,0,0,0,2.52,1.05,3.6,3.6,0,0,0,2.52-1.09,3.4,3.4,0,0,0,1.05-2.52,3.45,3.45,0,0,0-1.09-2.55,3.54,3.54,0,0,0-5,0Z"/><path d="M246.05,430.59h5.6v2.55a5.06,5.06,0,0,1,2.21-2.17,6.15,6.15,0,0,1,2.9-.63c.14,0,.39,0,1.12.07v5.29a4.93,4.93,0,0,0-2.41-.56,3.66,3.66,0,0,0-2.56.84,4.72,4.72,0,0,0-1.26,3.57v6.68h-5.6Z"/><path d="M271.5,445.88a8.28,8.28,0,0,1-3.89.88,8.67,8.67,0,0,1-6.16-2.38,8.21,8.21,0,0,1-2.42-5.85,8.5,8.5,0,0,1,2.53-6,9,9,0,0,1,6.3-2.38,8,8,0,0,1,3.64.87v4.69a5.05,5.05,0,0,0-2.91-1,3.67,3.67,0,0,0-2.73,1.08,3.81,3.81,0,0,0-1.08,2.7,4,4,0,0,0,1,2.62,3.78,3.78,0,0,0,2.87,1.19,4.23,4.23,0,0,0,2.87-1.05Z"/><path d="M286.79,430.59h5.6v15.64h-5.6v-1.71a5.84,5.84,0,0,1-4.86,2.24,7.49,7.49,0,0,1-5.64-2.49,7.86,7.86,0,0,1-2.24-5.74,8.64,8.64,0,0,1,2.41-6.26,8.07,8.07,0,0,1,5.64-2.21,6.2,6.2,0,0,1,4.69,2Zm-5.88,5.25a3.51,3.51,0,0,0,0,5.11A3.91,3.91,0,0,0,283.4,442a3.6,3.6,0,0,0,2.52-1.09,3.4,3.4,0,0,0,1.05-2.52,3.45,3.45,0,0,0-1.09-2.55,3.54,3.54,0,0,0-5,0Z"/><path d="M296.24,430.59h5.6v2.55a5.06,5.06,0,0,1,2.21-2.17,6.15,6.15,0,0,1,2.9-.63c.14,0,.39,0,1.12.07v5.29a4.93,4.93,0,0,0-2.41-.56,3.66,3.66,0,0,0-2.56.84,4.72,4.72,0,0,0-1.26,3.57v6.68h-5.6Z"/><path d="M327.15,439.44H315.49a4,4,0,0,0,1,2.63,3.15,3.15,0,0,0,2.31.77,4.51,4.51,0,0,0,1.82-.42,2.57,2.57,0,0,0,1-1.05h5.36a7.15,7.15,0,0,1-1.89,3.22c-1.16,1.12-3,2.17-6.37,2.17a8.9,8.9,0,0,1-6.48-2.38,8.19,8.19,0,0,1-2.31-5.92,8.36,8.36,0,0,1,2.34-6,8.83,8.83,0,0,1,6.41-2.28,8.57,8.57,0,0,1,6,2.14,8.75,8.75,0,0,1,2.49,6.58ZM322,436.22a3.78,3.78,0,0,0-.91-1.68,3.28,3.28,0,0,0-2.31-.84,3,3,0,0,0-2.27.84,3.12,3.12,0,0,0-.84,1.68Z"/><path d="M178.05,472.59h5.6v1.89a6,6,0,0,1,4.69-2.17,6.31,6.31,0,0,1,3,.7,4.91,4.91,0,0,1,2.17,2.24,5.46,5.46,0,0,1,2.13-2.17,6.36,6.36,0,0,1,3.26-.77,6.23,6.23,0,0,1,4.34,1.43,5.76,5.76,0,0,1,1.47,4.31v10.18h-5.6V480.5c0-1.65-.18-2.77-.81-3.36a2,2,0,0,0-1.47-.53,2.28,2.28,0,0,0-1.64.63,4,4,0,0,0-1,3v8h-5.6V480.5c0-1.51-.1-2.7-.73-3.36a2.15,2.15,0,0,0-1.68-.63,1.94,1.94,0,0,0-1.54.56c-1,.94-1,2.45-1,3.43v7.73h-5.6Z"/><path d="M224.35,486.17a10.7,10.7,0,0,1-14,0,7.8,7.8,0,0,1-2.42-5.78,7.72,7.72,0,0,1,2.42-5.74,9.75,9.75,0,0,1,7-2.59,9.89,9.89,0,0,1,7,2.59,7.72,7.72,0,0,1,2.42,5.74A7.8,7.8,0,0,1,224.35,486.17Zm-9.48-8.33a3.55,3.55,0,1,0,5,5,3.48,3.48,0,0,0,1.09-2.49,3.6,3.6,0,0,0-3.57-3.57A3.85,3.85,0,0,0,214.87,477.84Z"/><path d="M247.7,488.23h-5.6v-1.71a5.75,5.75,0,0,1-4.73,2.24,7.5,7.5,0,0,1-5.49-2.17,8.86,8.86,0,0,1,0-12.43,8,8,0,0,1,5.53-2.1,6.22,6.22,0,0,1,4.66,2V462.71h5.6Zm-6.62-5.18a3.71,3.71,0,0,0,1.19-2.66,4.12,4.12,0,0,0-1.05-2.52,3.59,3.59,0,0,0-5,0,3.84,3.84,0,0,0-1.08,2.66,3.57,3.57,0,0,0,1.08,2.45,3.48,3.48,0,0,0,2.49,1.05A3.78,3.78,0,0,0,241.08,483.05Z"/><path d="M257.15,472.59v8.75a3,3,0,0,0,.84,2.27,2.89,2.89,0,0,0,2,.6,2.59,2.59,0,0,0,2-.67,2.9,2.9,0,0,0,.81-2.2v-8.75h5.6v9.76a5.37,5.37,0,0,1-1.51,4.2c-1.92,2-4.62,2.21-6.75,2.21-2.35,0-5.22-.25-7.07-2.24a5.63,5.63,0,0,1-1.47-4.17v-9.76Z"/><path d="M277.8,462.71v25.52h-5.6V462.71Z"/><line x1="39.5" y1="552.48" x2="305.5" y2="552.48" style="fill:none;stroke:#000;stroke-miterlimit:10;stroke-width:10px"/><line x1="39.5" y1="528.48" x2="39.5" y2="557.48" style="fill:none;stroke:#000;stroke-miterlimit:10;stroke-width:10px"/><line x1="802.5" y1="527.48" x2="802.5" y2="556.48" style="fill:none;stroke:#000;stroke-miterlimit:10;stroke-width:10px"/><line x1="536.5" y1="551.48" x2="802.5" y2="551.48" style="fill:none;stroke:#000;stroke-miterlimit:10;stroke-width:10px"/><line x1="1213.5" y1="527.48" x2="1213.5" y2="556.02" style="fill:none;stroke:#000;stroke-miterlimit:10;stroke-width:9.919680182405415px"/><line x1="1218.5" y1="552.57" x2="1162.5" y2="552.57" style="fill:none;stroke:#000;stroke-miterlimit:10;stroke-width:9.919680182405415px"/><line x1="832.5" y1="527.48" x2="832.5" y2="556.02" style="fill:none;stroke:#000;stroke-miterlimit:10;stroke-width:9.919680182405415px"/><line x1="827.5" y1="552.57" x2="883.5" y2="552.57" style="fill:none;stroke:#000;stroke-miterlimit:10;stroke-width:9.919680182405415px"/><path d="M351,537.7v18.2h7.28v5.15H345V537.7Z"/><path d="M376.63,559a10.71,10.71,0,0,1-14,0,8.05,8.05,0,0,1,0-11.51,9.78,9.78,0,0,1,7-2.59,9.88,9.88,0,0,1,7,2.59,8.08,8.08,0,0,1,0,11.51Zm-9.49-8.33a3.48,3.48,0,0,0,0,5,3.51,3.51,0,0,0,5,0,3.43,3.43,0,0,0,1.08-2.48,3.81,3.81,0,0,0-1.08-2.56,3.61,3.61,0,0,0-5,0Z"/><path d="M394.37,545.4H400v15.65h-5.6v-1.72a5.82,5.82,0,0,1-4.86,2.24,7.51,7.51,0,0,1-5.64-2.48,7.88,7.88,0,0,1-2.24-5.74,8.67,8.67,0,0,1,2.41-6.27,8.08,8.08,0,0,1,5.64-2.2,6.16,6.16,0,0,1,4.69,2Zm-5.88,5.25a3.67,3.67,0,0,0-1.12,2.56,3.59,3.59,0,0,0,1.09,2.55,3.91,3.91,0,0,0,2.52,1,3.59,3.59,0,0,0,2.52-1.08,3.4,3.4,0,0,0,1.05-2.52,3.45,3.45,0,0,0-1.09-2.56,3.56,3.56,0,0,0-5,0Z"/><path d="M421.53,561.05h-5.6v-1.72a5.73,5.73,0,0,1-4.72,2.24,7.48,7.48,0,0,1-5.5-2.17,8.6,8.6,0,0,1-2.52-6.23,8.49,8.49,0,0,1,2.56-6.19,8,8,0,0,1,5.53-2.1,6.16,6.16,0,0,1,4.65,2V535.53h5.6Zm-6.61-5.18a3.79,3.79,0,0,0,1.19-2.66,4.07,4.07,0,0,0-1.05-2.52,3.6,3.6,0,0,0-5,0,3.85,3.85,0,0,0-1.09,2.66,3.66,3.66,0,0,0,3.57,3.5A3.87,3.87,0,0,0,414.92,555.87Z"/><path d="M442.88,542.84v18.21h-6.06V542.84h-5V537.7h16v5.14Z"/><path d="M452.82,535.74a3.15,3.15,0,1,1-3.15,3.15A3.14,3.14,0,0,1,452.82,535.74Zm2.8,9.66v15.65H450V545.4Z"/><path d="M459.43,545.4H465v1.89a6,6,0,0,1,4.7-2.17,6.43,6.43,0,0,1,3,.7,5,5,0,0,1,2.17,2.24,5.52,5.52,0,0,1,2.13-2.17,6.36,6.36,0,0,1,3.26-.77,6.24,6.24,0,0,1,4.34,1.44,5.74,5.74,0,0,1,1.47,4.3v10.19h-5.6v-7.74c0-1.64-.18-2.76-.81-3.36a2,2,0,0,0-1.47-.52,2.23,2.23,0,0,0-1.64.63,4,4,0,0,0-1,3v8H470v-7.74c0-1.5-.1-2.69-.74-3.36a2.18,2.18,0,0,0-1.68-.63,2,2,0,0,0-1.54.56,4.63,4.63,0,0,0-1,3.43v7.74h-5.6Z"/><path d="M506.58,554.26H494.92a4,4,0,0,0,1,2.62,3.15,3.15,0,0,0,2.31.77,4.33,4.33,0,0,0,1.82-.42,2.57,2.57,0,0,0,1-1.05h5.36a6.92,6.92,0,0,1-1.89,3.22c-1.15,1.12-3,2.17-6.37,2.17a8.86,8.86,0,0,1-6.48-2.38,8.2,8.2,0,0,1-2.31-5.91,8.34,8.34,0,0,1,2.35-6.06,8.79,8.79,0,0,1,6.4-2.27,8.59,8.59,0,0,1,6,2.13,8.77,8.77,0,0,1,2.48,6.58ZM501.44,551a3.84,3.84,0,0,0-.92-1.68,3.23,3.23,0,0,0-2.31-.84,3,3,0,0,0-2.27.84,3.12,3.12,0,0,0-.84,1.68Z"/><path d="M918.22,542.74H911v3.89h6.82v5.14H911v4h7.21v5.14H905V537.59h13.27Z"/><path d="M927.42,552.44l-6.34-7.14h7.29l2.69,3.22,2.77-3.22h7.24l-6.47,7.14,7.84,8.5H935l-4-4.65-4,4.65h-7.42Z"/><path d="M959.62,554.15H948a4,4,0,0,0,1,2.63,3.15,3.15,0,0,0,2.31.77,4.51,4.51,0,0,0,1.82-.42,2.64,2.64,0,0,0,1-1h5.35a7,7,0,0,1-1.89,3.22c-1.15,1.12-3,2.17-6.37,2.17a8.88,8.88,0,0,1-6.47-2.38,8.19,8.19,0,0,1-2.31-5.92,8.36,8.36,0,0,1,2.34-6,8.83,8.83,0,0,1,6.41-2.28,8.58,8.58,0,0,1,6,2.14,8.77,8.77,0,0,1,2.48,6.58Zm-5.14-3.22a3.78,3.78,0,0,0-.91-1.68,3.29,3.29,0,0,0-2.31-.84,3,3,0,0,0-2.28.84,3.27,3.27,0,0,0-.84,1.68Z"/><path d="M974.67,560.59a8.24,8.24,0,0,1-3.88.88,8.65,8.65,0,0,1-6.16-2.38,8.17,8.17,0,0,1-2.42-5.85,8.49,8.49,0,0,1,2.52-6,9,9,0,0,1,6.3-2.38,8,8,0,0,1,3.64.87v4.69a5,5,0,0,0-2.9-1,3.67,3.67,0,0,0-2.73,1.08,3.83,3.83,0,0,0-1.09,2.7,4,4,0,0,0,1,2.62A3.82,3.82,0,0,0,971.8,557a4.2,4.2,0,0,0,2.87-1.05Z"/><path d="M983.46,545.3v8.75a3,3,0,0,0,.83,2.27,2.93,2.93,0,0,0,2,.6,2.59,2.59,0,0,0,2-.67,2.9,2.9,0,0,0,.81-2.2V545.3h5.6v9.76a5.37,5.37,0,0,1-1.51,4.2c-1.92,2-4.62,2.21-6.75,2.21-2.35,0-5.22-.25-7.08-2.24a5.63,5.63,0,0,1-1.47-4.17V545.3Z"/><path d="M1004.7,549.88v11.06h-5.6V549.88h-1.79V545.3h1.79v-5.15h5.6v5.15h3.18v4.58Z"/><path d="M1012.78,535.63a3.16,3.16,0,1,1-3.15,3.15A3.14,3.14,0,0,1,1012.78,535.63Zm2.8,9.67v15.64H1010V545.3Z"/><path d="M1035.15,558.88a10.71,10.71,0,0,1-14,0,7.83,7.83,0,0,1-2.41-5.78,7.75,7.75,0,0,1,2.41-5.74,9.78,9.78,0,0,1,7-2.59,9.89,9.89,0,0,1,7,2.59,7.72,7.72,0,0,1,2.42,5.74A7.8,7.8,0,0,1,1035.15,558.88Zm-9.49-8.33a3.55,3.55,0,1,0,5,5,3.47,3.47,0,0,0,1.08-2.49,3.78,3.78,0,0,0-1.08-2.55,3.59,3.59,0,0,0-5,0Z"/><path d="M1040.78,545.3h5.6v2a5.91,5.91,0,0,1,5-2.31,6.3,6.3,0,0,1,4.62,1.68,5.39,5.39,0,0,1,1.48,4.37v9.94h-5.61V553c0-.91,0-2.27-.7-3a2.33,2.33,0,0,0-1.78-.67,3.08,3.08,0,0,0-2.07.74,3.58,3.58,0,0,0-.91,2.48v8.4h-5.6Z"/><path d="M1078.76,542.74v18.2h-6.06v-18.2h-5v-5.15h16v5.15Z"/><path d="M1088.7,535.63a3.16,3.16,0,1,1-3.15,3.15A3.14,3.14,0,0,1,1088.7,535.63Zm2.8,9.67v15.64h-5.6V545.3Z"/><path d="M1095.31,545.3h5.6v1.89a6,6,0,0,1,4.69-2.17,6.31,6.31,0,0,1,3,.7,4.81,4.81,0,0,1,2.17,2.24,5.47,5.47,0,0,1,2.14-2.17,6.35,6.35,0,0,1,3.25-.77,6.23,6.23,0,0,1,4.35,1.43,5.76,5.76,0,0,1,1.47,4.31v10.18h-5.61v-7.73c0-1.65-.17-2.77-.8-3.36a2.06,2.06,0,0,0-1.47-.53,2.3,2.3,0,0,0-1.65.63,4,4,0,0,0-1,3v8h-5.6v-7.73c0-1.51-.11-2.7-.74-3.36a2.15,2.15,0,0,0-1.68-.63,2,2,0,0,0-1.54.56c-1,.94-1,2.45-1,3.43v7.73h-5.6Z"/><path d="M1142.46,554.15H1130.8a4,4,0,0,0,1,2.63,3.15,3.15,0,0,0,2.31.77,4.51,4.51,0,0,0,1.82-.42,2.57,2.57,0,0,0,1-1h5.36a7.15,7.15,0,0,1-1.89,3.22c-1.16,1.12-3,2.17-6.37,2.17a8.9,8.9,0,0,1-6.48-2.38,8.23,8.23,0,0,1-2.31-5.92,8.33,8.33,0,0,1,2.35-6,8.79,8.79,0,0,1,6.4-2.28,8.57,8.57,0,0,1,6,2.14,8.75,8.75,0,0,1,2.49,6.58Zm-5.15-3.22a3.78,3.78,0,0,0-.91-1.68,3.28,3.28,0,0,0-2.31-.84,3,3,0,0,0-2.27.84,3.12,3.12,0,0,0-.84,1.68Z"/><path d="M109.33,352.2a9.7,9.7,0,1,0,9.7,9.7A9.69,9.69,0,0,0,109.33,352.2Z" style="fill:none;stroke:#3a5c84;stroke-miterlimit:10;stroke-width:5px"/><path d="M131.5,357.74a1.39,1.39,0,0,0-1.39-1.39h-3.66a17.88,17.88,0,0,0-1.09-2.64l2.59-2.59a1.39,1.39,0,0,0,0-2l-5.88-5.88a1.39,1.39,0,0,0-2,0l-2.59,2.59a18,18,0,0,0-2.65-1.09v-3.66a1.38,1.38,0,0,0-1.38-1.39h-8.31a1.39,1.39,0,0,0-1.39,1.39v3.66a17.88,17.88,0,0,0-2.64,1.09l-2.59-2.59a1.39,1.39,0,0,0-2,0l-5.88,5.88a1.39,1.39,0,0,0,0,2l2.59,2.59c-.12.23-.23.45-.33.68a18.09,18.09,0,0,0-.77,2H88.55a1.38,1.38,0,0,0-1.38,1.39v8.31a1.38,1.38,0,0,0,1.38,1.39h3.66a17.93,17.93,0,0,0,1.1,2.64l-2.59,2.59a1.39,1.39,0,0,0,0,2l5.88,5.88a1.39,1.39,0,0,0,2,0l2.59-2.59a17.93,17.93,0,0,0,2.64,1.1v3.66a1.38,1.38,0,0,0,1.39,1.38h8.31a1.38,1.38,0,0,0,1.38-1.38V379a18,18,0,0,0,2.65-1.1l2.59,2.59a1.39,1.39,0,0,0,2,0l5.88-5.88a1.39,1.39,0,0,0,0-2l-2.59-2.59a17.88,17.88,0,0,0,1.09-2.64h3.66a1.39,1.39,0,0,0,1.39-1.39Z" style="fill:none;stroke:#3a5c84;stroke-miterlimit:10;stroke-width:5px"/><rect x="59" y="305.98" width="96" height="96" rx="12" ry="12" style="fill:none;stroke:#3a5c84;stroke-miterlimit:10;stroke-width:5px"/><circle cx="71.5" cy="314.48" r="3" style="fill:#3a5c84"/><circle cx="81" cy="314.48" r="3" style="fill:#3a5c84"/><circle cx="90.5" cy="314.48" r="3" style="fill:#3a5c84"/><line x1="68.5" y1="324.48" x2="132.5" y2="324.48" style="fill:none;stroke:#3a5c84;stroke-miterlimit:10;stroke-width:5px"/><line x1="68.5" y1="330.98" x2="83" y2="330.98" style="fill:none;stroke:#3a5c84;stroke-miterlimit:10;stroke-width:5px"/><line x1="68.5" y1="336.98" x2="83" y2="336.98" style="fill:none;stroke:#3a5c84;stroke-miterlimit:10;stroke-width:5px"/><line x1="131.5" y1="393.98" x2="146" y2="393.98" style="fill:none;stroke:#3a5c84;stroke-miterlimit:10;stroke-width:5px"/><path d="M416.37,46v72.87a3.63,3.63,0,0,0,3.62,3.63h21.75a3.64,3.64,0,0,0,3.63-3.63V46Zm14.5,61.5a8,8,0,1,1,8-8A8,8,0,0,1,430.87,107.48Z" style="fill:#f7931f"/><path d="M445.37,40V35.1a3.63,3.63,0,0,0-3.63-3.62H420a3.63,3.63,0,0,0-3.62,3.62V40Z" style="fill:#f7931f"/><rect x="490.37" y="41.48" width="29" height="5" style="fill:#f7931f"/><path d="M519.37,38.48V37.1a3.63,3.63,0,0,0-3.63-3.62H494a3.63,3.63,0,0,0-3.62,3.62v1.38Z" style="fill:#f7931f"/><path d="M490.37,51.48v67.37a3.63,3.63,0,0,0,3.62,3.63h21.75a3.64,3.64,0,0,0,3.63-3.63V51.48Z" style="fill:#f7931f"/><path d="M450.87,65.48h34a2.84,2.84,0,0,0,1.5-.59V59.1a3.63,3.63,0,0,0-3.63-3.62H453a3.63,3.63,0,0,0-3.62,3.62v5.79A2.84,2.84,0,0,0,450.87,65.48Z" style="fill:#f7931f"/><path d="M484.87,111.48a2.48,2.48,0,0,1,1.5.52V67a2.48,2.48,0,0,1-1.5.52h-34a2.46,2.46,0,0,1-1.5-.52v45a2.46,2.46,0,0,1,1.5-.52Z" style="fill:#f7931f"/><path d="M484.87,113.48h-34a2.84,2.84,0,0,0-1.5.59v4.78a3.63,3.63,0,0,0,3.62,3.63h29.75a3.64,3.64,0,0,0,3.63-3.63v-4.78A2.84,2.84,0,0,0,484.87,113.48Z" style="fill:#f7931f"/><path d="M524.93,48.55l12.58-3.3-2.68-9.57a3.63,3.63,0,0,0-4.47-2.51l-5.54,1.55a3.63,3.63,0,0,0-2.51,4.47Z" style="fill:#f7931f"/><path d="M557.43,116.33,538.32,48.14l-12.58,3.3,19.17,68.39a3.65,3.65,0,0,0,4.47,2.52l5.53-1.56A3.63,3.63,0,0,0,557.43,116.33ZM547.25,105c-2.32.65-5-1.83-6.07-5.54s0-7.23,2.31-7.88,5,1.83,6.07,5.53S549.56,104.32,547.25,105Z" style="fill:#f7931f"/></svg>