<svg id="Layer_1" data-name="Layer 1" xmlns="http://www.w3.org/2000/svg" viewBox="0 0 1259 728"><title>Cap 4 -</title><line x1="898" y1="113.75" x2="974.5" y2="113.25" style="fill:none;stroke:#f4c240;stroke-miterlimit:10;stroke-width:7px"/><line x1="1095.11" y1="156" x2="1095.61" y2="232.5" style="fill:none;stroke:#f4c240;stroke-miterlimit:10;stroke-width:7px"/><polygon points="433.47 287.48 514.43 359.32 504.07 370.99 550.88 368.2 548.09 321.4 537.73 333.06 456.77 261.23 433.47 287.48" style="fill:none;stroke:#4fc2c9;stroke-miterlimit:10;stroke-width:7px"/><polygon points="853.7 96.72 745.46 96.72 745.46 81.12 712.3 114.28 745.46 147.43 745.46 131.83 853.7 131.83 853.7 96.72" style="fill:none;stroke:#91c54f;stroke-miterlimit:10;stroke-width:7px"/><polygon points="169.31 130.83 277.54 130.83 277.54 146.43 310.7 113.28 277.54 80.12 277.54 95.72 169.31 95.72 169.31 130.83" style="fill:none;stroke:#91c54f;stroke-miterlimit:10;stroke-width:7px"/><polygon points="981.47 344.74 1062.43 272.89 1052.08 261.23 1098.88 264.02 1096.09 310.82 1085.73 299.15 1004.77 370.99 981.47 344.74" style="fill:none;stroke:#f4c240;stroke-miterlimit:10;stroke-width:7px"/><polygon points="797.54 459.17 797.54 567.41 813.14 567.41 779.98 600.56 746.83 567.41 762.43 567.41 762.43 459.17 797.54 459.17" style="fill:none;stroke:#3a5c84;stroke-miterlimit:10;stroke-width:7px"/><rect x="347.77" y="71.5" width="245.23" height="84" rx="12" ry="12" style="fill:none;stroke:#91c54f;stroke-miterlimit:10;stroke-width:7px"/><path d="M431.68,100.16A6.91,6.91,0,0,1,436.9,102a7.06,7.06,0,0,1,1.82,4.8,6.13,6.13,0,0,1-1.7,4.45,6,6,0,0,1-2.94,1.47l6.69,8.74h-6.88l-5.31-8.19v8.19H423V100.16Zm-3.1,9.56h1.05a4.16,4.16,0,0,0,2.69-.86,2.64,2.64,0,0,0,.7-1.79,2.51,2.51,0,0,0-.73-1.79,3.77,3.77,0,0,0-2.66-.84h-1.05Z"/><path d="M457.79,115.29H447.14a3.6,3.6,0,0,0,.89,2.4,2.87,2.87,0,0,0,2.11.71,4.13,4.13,0,0,0,1.67-.39,2.32,2.32,0,0,0,.89-1h4.9a6.41,6.41,0,0,1-1.73,3c-1.05,1-2.72,2-5.82,2a8.11,8.11,0,0,1-5.92-2.18,7.45,7.45,0,0,1-2.11-5.4,7.64,7.64,0,0,1,2.14-5.54,8.06,8.06,0,0,1,5.86-2.08,7.84,7.84,0,0,1,5.5,2,8,8,0,0,1,2.27,6Zm-4.7-2.94a3.5,3.5,0,0,0-.83-1.54,3,3,0,0,0-2.12-.77,2.78,2.78,0,0,0-2.08.77,2.92,2.92,0,0,0-.76,1.54Z"/><path d="M471.81,107.2h5.12v14.3h-5.12v-1.57a5.36,5.36,0,0,1-4.45,2,6.85,6.85,0,0,1-5.15-2.27,7.21,7.21,0,0,1-2-5.25,7.92,7.92,0,0,1,2.21-5.73,7.37,7.37,0,0,1,5.15-2,5.68,5.68,0,0,1,4.29,1.85Zm-5.38,4.8a3.35,3.35,0,0,0-1,2.33,3.31,3.31,0,0,0,1,2.34,3.59,3.59,0,0,0,2.3,1,3.28,3.28,0,0,0,2.31-1,3.25,3.25,0,0,0,0-4.64,3.25,3.25,0,0,0-4.55,0Z"/><path d="M496.64,121.5h-5.12v-1.57a5.24,5.24,0,0,1-4.32,2,6.84,6.84,0,0,1-5-2,7.91,7.91,0,0,1-2.31-5.7,7.78,7.78,0,0,1,2.34-5.66,7.28,7.28,0,0,1,5.05-1.92,5.66,5.66,0,0,1,4.26,1.85V98.17h5.12Zm-6.05-4.74a3.41,3.41,0,0,0,1.09-2.43,3.73,3.73,0,0,0-1-2.3,3.28,3.28,0,0,0-4.61,0,3.52,3.52,0,0,0-1,2.43,3.24,3.24,0,0,0,1,2.24,3.21,3.21,0,0,0,2.27,1A3.48,3.48,0,0,0,490.59,116.76Z"/><path d="M505.31,119.55,498.4,107.2h6l3.81,7.32,3.71-7.32h5.86l-11.49,21.63h-5.73Z"/><rect x="972.74" y="71.5" width="245.23" height="84" rx="12" ry="12" style="fill:none;stroke:#f4c240;stroke-miterlimit:10;stroke-width:7px"/><path d="M1034.37,115.1a7.48,7.48,0,0,0,4.9,2.18,2.81,2.81,0,0,0,2.14-.74,1.9,1.9,0,0,0,.54-1.34,1.67,1.67,0,0,0-.6-1.28,7.65,7.65,0,0,0-2.76-1.12l-1.44-.45a7.06,7.06,0,0,1-3.07-1.73,5.35,5.35,0,0,1-1.21-3.78,7,7,0,0,1,2-5.15,7.52,7.52,0,0,1,5.47-2,15,15,0,0,1,6.59,1.72l-2.21,4.33a5.6,5.6,0,0,0-3.64-1.45,2.68,2.68,0,0,0-1.83.64,1.59,1.59,0,0,0-.54,1.16,1.41,1.41,0,0,0,.29,1,3.54,3.54,0,0,0,1.85,1l1.7.51a8.08,8.08,0,0,1,3.87,2.11,5,5,0,0,1,1.38,3.81,7.2,7.2,0,0,1-2,5.37c-1.82,1.83-4,2.18-6.3,2.18a11.55,11.55,0,0,1-4.2-.7,15,15,0,0,1-3.23-1.7Z"/><path d="M1055.87,98.17V121.5h-5.12V98.17Z"/><path d="M1074.53,115.29h-10.66a3.61,3.61,0,0,0,.9,2.4,2.87,2.87,0,0,0,2.11.71,4.13,4.13,0,0,0,1.67-.39,2.32,2.32,0,0,0,.89-1h4.9a6.5,6.5,0,0,1-1.73,3c-1.06,1-2.72,2-5.82,2a8.11,8.11,0,0,1-5.92-2.18,7.45,7.45,0,0,1-2.12-5.4,7.65,7.65,0,0,1,2.15-5.54,8,8,0,0,1,5.85-2.08,7.84,7.84,0,0,1,5.51,2,8,8,0,0,1,2.27,6Zm-4.7-2.94a3.42,3.42,0,0,0-.84-1.54,3,3,0,0,0-2.11-.77,2.78,2.78,0,0,0-2.08.77,3,3,0,0,0-.77,1.54Z"/><path d="M1092.64,115.29H1082a3.6,3.6,0,0,0,.89,2.4,2.87,2.87,0,0,0,2.11.71,4.13,4.13,0,0,0,1.67-.39,2.32,2.32,0,0,0,.89-1h4.9a6.5,6.5,0,0,1-1.73,3c-1,1-2.72,2-5.82,2a8.11,8.11,0,0,1-5.92-2.18,7.45,7.45,0,0,1-2.11-5.4,7.64,7.64,0,0,1,2.14-5.54,8.06,8.06,0,0,1,5.86-2.08,7.84,7.84,0,0,1,5.5,2,8,8,0,0,1,2.27,6Zm-4.7-2.94a3.5,3.5,0,0,0-.83-1.54A3,3,0,0,0,1085,110a2.78,2.78,0,0,0-2.08.77,2.92,2.92,0,0,0-.76,1.54Z"/><path d="M1100.71,128.83h-5.12V107.2h5.12v1.56a5.33,5.33,0,0,1,4.38-2,7.08,7.08,0,0,1,5.09,2.08,8.14,8.14,0,0,1-.13,11.2,6.91,6.91,0,0,1-4.9,2,6.07,6.07,0,0,1-4.44-1.86Zm.83-16.8a3.49,3.49,0,0,0-1,2.37,3.43,3.43,0,0,0,1,2.27,3.26,3.26,0,0,0,2.3,1,3.06,3.06,0,0,0,2.27-1,3.38,3.38,0,0,0,1-2.27,3.5,3.5,0,0,0-1-2.37,3.06,3.06,0,0,0-2.27-1A3.26,3.26,0,0,0,1101.54,112Z"/><path d="M1117.86,98.36a2.88,2.88,0,1,1-2.88,2.88A2.87,2.87,0,0,1,1117.86,98.36Zm2.56,8.84v14.3h-5.12V107.2Z"/><path d="M1123.91,107.2H1129V109a5.36,5.36,0,0,1,4.54-2.11,5.78,5.78,0,0,1,4.22,1.53,4.92,4.92,0,0,1,1.35,4v9.09H1134v-7.23a4.14,4.14,0,0,0-.64-2.79,2.14,2.14,0,0,0-1.63-.6,2.77,2.77,0,0,0-1.89.67,3.3,3.3,0,0,0-.83,2.27v7.68h-5.12Z"/><path d="M1158.72,107.2v13.4c0,2.15-.19,4.1-2,5.92a8.53,8.53,0,0,1-6.31,2.31,8.78,8.78,0,0,1-6.68-2.53,5.2,5.2,0,0,1-1.57-3h5.7a2.19,2.19,0,0,0,2.39,1.48,3.13,3.13,0,0,0,2.28-.8,3.46,3.46,0,0,0,1-2.66V119.9a5.44,5.44,0,0,1-4.29,1.89,7.14,7.14,0,0,1-5.28-2,7.54,7.54,0,0,1-2-5.21,8.23,8.23,0,0,1,2.11-5.6,7.21,7.21,0,0,1,5.19-2.18,5.56,5.56,0,0,1,4.25,1.89V107.2Zm-10.43,4.8a3.33,3.33,0,0,0-1,2.3,3.37,3.37,0,0,0,1,2.34,3.24,3.24,0,0,0,2.3.92,3.28,3.28,0,0,0,3.27-3.26,3.68,3.68,0,0,0-1-2.34,3.26,3.26,0,0,0-2.27-.92A3,3,0,0,0,1148.29,112Z"/><line x1="580" y1="395.75" x2="656.5" y2="395.25" style="fill:none;stroke:#4fc2c9;stroke-miterlimit:10;stroke-width:7px"/><line x1="895" y1="393.75" x2="971.5" y2="393.25" style="fill:none;stroke:#4fc2c9;stroke-miterlimit:10;stroke-width:7px"/><rect x="653.03" y="352.5" width="245.23" height="84" rx="12" ry="12" style="fill:none;stroke:#4fc2c9;stroke-miterlimit:10;stroke-width:7px"/><path d="M702.93,399.52a7.5,7.5,0,0,0,4.9,2.18A2.77,2.77,0,0,0,710,401a1.91,1.91,0,0,0,.55-1.34,1.65,1.65,0,0,0-.61-1.28,7.85,7.85,0,0,0-2.75-1.12l-1.44-.45a7,7,0,0,1-3.08-1.73,5.38,5.38,0,0,1-1.21-3.77,7,7,0,0,1,2-5.15,7.52,7.52,0,0,1,5.47-2,14.92,14.92,0,0,1,6.59,1.73l-2.2,4.32a5.67,5.67,0,0,0-3.65-1.44,2.68,2.68,0,0,0-1.83.64,1.57,1.57,0,0,0-.54,1.15,1.41,1.41,0,0,0,.29,1,3.47,3.47,0,0,0,1.85,1l1.7.51a8.25,8.25,0,0,1,3.87,2.11,5.05,5.05,0,0,1,1.38,3.81,7.24,7.24,0,0,1-2,5.38c-1.82,1.82-4,2.17-6.3,2.17a11.47,11.47,0,0,1-4.19-.7,14.79,14.79,0,0,1-3.24-1.7Z"/><path d="M730.13,405.6a7.59,7.59,0,0,1-3.55.8,7.9,7.9,0,0,1-5.63-2.17,7.46,7.46,0,0,1-2.21-5.35,7.78,7.78,0,0,1,2.3-5.53,8.27,8.27,0,0,1,5.76-2.18,7.34,7.34,0,0,1,3.33.8v4.29a4.56,4.56,0,0,0-2.65-.93,3.36,3.36,0,0,0-2.5,1,3.52,3.52,0,0,0-1,2.47,3.71,3.71,0,0,0,.89,2.4,3.5,3.5,0,0,0,2.63,1.09,3.88,3.88,0,0,0,2.62-1Z"/><path d="M733,382.6h5.12v10.81a6.66,6.66,0,0,1,1.6-1.41,5.85,5.85,0,0,1,3-.7,5.69,5.69,0,0,1,4.22,1.54,5,5,0,0,1,1.35,4v9.08h-5.12v-7.23a4.29,4.29,0,0,0-.64-2.78,2,2,0,0,0-1.64-.61,2.74,2.74,0,0,0-1.85.61,3.09,3.09,0,0,0-.87,2.33v7.68H733Z"/><path d="M766.29,399.72H755.64a3.62,3.62,0,0,0,.89,2.4,2.88,2.88,0,0,0,2.11.7,4.06,4.06,0,0,0,1.67-.38,2.45,2.45,0,0,0,.89-1h4.9a6.43,6.43,0,0,1-1.73,2.94c-1,1-2.72,2-5.82,2a8.1,8.1,0,0,1-5.92-2.17,7.49,7.49,0,0,1-2.11-5.41,7.64,7.64,0,0,1,2.14-5.54,8.06,8.06,0,0,1,5.86-2.08,7.85,7.85,0,0,1,5.5,2,8,8,0,0,1,2.27,6Zm-4.7-3a3.47,3.47,0,0,0-.83-1.53,3,3,0,0,0-2.12-.77,2.74,2.74,0,0,0-2.08.77,2.85,2.85,0,0,0-.76,1.53Z"/><path d="M785.43,405.92h-5.12v-1.57a5.24,5.24,0,0,1-4.32,2,6.88,6.88,0,0,1-5-2,7.89,7.89,0,0,1-2.3-5.7,7.76,7.76,0,0,1,2.34-5.66,7.3,7.3,0,0,1,5-1.92,5.65,5.65,0,0,1,4.26,1.86V382.6h5.12Zm-6-4.73a3.45,3.45,0,0,0,1.09-2.43,3.79,3.79,0,0,0-1-2.31,3.28,3.28,0,0,0-4.61,0,3.5,3.5,0,0,0-1,2.43,3.23,3.23,0,0,0,1,2.24,3.15,3.15,0,0,0,2.27,1A3.49,3.49,0,0,0,779.38,401.19Z"/><path d="M794.07,391.62v8a2.71,2.71,0,0,0,.77,2.08,2.62,2.62,0,0,0,1.79.54,2.4,2.4,0,0,0,1.82-.6,2.67,2.67,0,0,0,.74-2v-8h5.12v8.93a4.92,4.92,0,0,1-1.38,3.84c-1.76,1.82-4.22,2-6.17,2-2.15,0-4.77-.22-6.47-2a5.12,5.12,0,0,1-1.34-3.8v-8.93Z"/><path d="M813,382.6v23.32h-5.12V382.6Z"/><path d="M831.6,399.72H821a3.67,3.67,0,0,0,.89,2.4,2.88,2.88,0,0,0,2.11.7,4.06,4.06,0,0,0,1.67-.38,2.54,2.54,0,0,0,.9-1h4.89a6.34,6.34,0,0,1-1.73,2.94c-1,1-2.72,2-5.82,2a8.1,8.1,0,0,1-5.92-2.17,7.49,7.49,0,0,1-2.11-5.41,7.64,7.64,0,0,1,2.14-5.54,8.08,8.08,0,0,1,5.86-2.08,7.85,7.85,0,0,1,5.5,2,8,8,0,0,1,2.27,6Zm-4.7-3a3.47,3.47,0,0,0-.83-1.53,3,3,0,0,0-2.12-.77,2.71,2.71,0,0,0-2.07.77,2.79,2.79,0,0,0-.77,1.53Z"/><path d="M850.74,405.92h-5.12v-1.57a5.24,5.24,0,0,1-4.32,2,6.84,6.84,0,0,1-5-2,7.89,7.89,0,0,1-2.31-5.7,7.8,7.8,0,0,1,2.34-5.66,7.32,7.32,0,0,1,5.05-1.92,5.63,5.63,0,0,1,4.26,1.86V382.6h5.12Zm-6-4.73a3.45,3.45,0,0,0,1.09-2.43,3.79,3.79,0,0,0-1-2.31,3.28,3.28,0,0,0-4.61,0,3.54,3.54,0,0,0-1,2.43,3.23,3.23,0,0,0,1,2.24,3.15,3.15,0,0,0,2.27,1A3.47,3.47,0,0,0,844.69,401.19Z"/><rect x="653.13" y="622.5" width="245.23" height="84" rx="12" ry="12" style="fill:none;stroke:#3a5c84;stroke-miterlimit:10;stroke-width:7px"/><path d="M738.15,674.93V653.59h7.27c2.14,0,5.72.29,8.47,2.94a10.41,10.41,0,0,1,3,7.78,9.84,9.84,0,0,1-2.78,7.39,11.6,11.6,0,0,1-8.2,3.23Zm5.54-4.7h1.12a6.37,6.37,0,0,0,4.67-1.54,5.81,5.81,0,0,0,1.63-4.38,6.39,6.39,0,0,0-1.66-4.67,6.22,6.22,0,0,0-4.42-1.35h-1.34Z"/><path d="M774.31,673a9.79,9.79,0,0,1-12.77,0,7.36,7.36,0,0,1,0-10.52,8.92,8.92,0,0,1,6.37-2.37,9,9,0,0,1,6.4,2.37,7,7,0,0,1,2.21,5.24A7.12,7.12,0,0,1,774.31,673Zm-8.67-7.61a3.25,3.25,0,1,0,4.57,4.61,3.17,3.17,0,0,0,1-2.28,3.28,3.28,0,0,0-5.57-2.33Z"/><path d="M779.46,660.63h5.12v1.79a5.39,5.39,0,0,1,4.55-2.11,5.78,5.78,0,0,1,4.22,1.53,4.93,4.93,0,0,1,1.34,4v9.09h-5.12V667.7a4.05,4.05,0,0,0-.64-2.78,2.11,2.11,0,0,0-1.63-.61,2.83,2.83,0,0,0-1.89.67,3.3,3.3,0,0,0-.83,2.27v7.68h-5.12Z"/><path d="M813.35,668.72H802.69a3.59,3.59,0,0,0,.9,2.4,2.87,2.87,0,0,0,2.11.71,4,4,0,0,0,1.67-.39,2.32,2.32,0,0,0,.89-1h4.9a6.5,6.5,0,0,1-1.73,2.95c-1.06,1-2.72,2-5.82,2a8.1,8.1,0,0,1-5.92-2.17,7.49,7.49,0,0,1-2.12-5.41,7.65,7.65,0,0,1,2.15-5.54,8,8,0,0,1,5.85-2.08,7.81,7.81,0,0,1,5.51,2,8,8,0,0,1,2.27,6Zm-4.7-2.94a3.47,3.47,0,0,0-.84-1.54,3,3,0,0,0-2.11-.76,2.78,2.78,0,0,0-2.08.76,3,3,0,0,0-.77,1.54Z"/><path d="M40.19,70.72a13.23,13.23,0,0,1-4.8,1.06,11.64,11.64,0,0,1-8.26-3.2A11.21,11.21,0,0,1,23.9,60.8,11.2,11.2,0,0,1,35.19,49.6a13.24,13.24,0,0,1,5,1.09v6.62A6,6,0,0,0,35.35,55a5.41,5.41,0,0,0-3.84,1.41,5.69,5.69,0,0,0,3.84,10,6.26,6.26,0,0,0,4.84-2.24Z"/><path d="M43.23,57h5.12v2.34a4.55,4.55,0,0,1,2-2A5.56,5.56,0,0,1,53,56.77l1,.06v4.84a4.44,4.44,0,0,0-2.21-.52,3.35,3.35,0,0,0-2.33.77,4.31,4.31,0,0,0-1.15,3.27V71.3H43.23Z"/><path d="M71.48,65.09H60.83a3.6,3.6,0,0,0,.89,2.4,2.88,2.88,0,0,0,2.11.7,4.06,4.06,0,0,0,1.67-.38,2.32,2.32,0,0,0,.89-1h4.9a6.34,6.34,0,0,1-1.73,2.94c-1,1-2.72,2-5.82,2a8.11,8.11,0,0,1-5.92-2.18,7.49,7.49,0,0,1-2.11-5.41,7.6,7.6,0,0,1,2.14-5.53,8.06,8.06,0,0,1,5.86-2.08,7.84,7.84,0,0,1,5.5,2,8,8,0,0,1,2.27,6Zm-4.7-2.94A3.45,3.45,0,0,0,66,60.61a3,3,0,0,0-2.12-.77,2.78,2.78,0,0,0-2.08.77A2.88,2.88,0,0,0,61,62.15Z"/><path d="M85.5,57h5.12V71.3H85.5V69.73a5.36,5.36,0,0,1-4.45,2A6.83,6.83,0,0,1,75.9,69.5a7.19,7.19,0,0,1-2.05-5.24,7.92,7.92,0,0,1,2.21-5.73,7.33,7.33,0,0,1,5.15-2,5.68,5.68,0,0,1,4.29,1.86Zm-5.38,4.8a3.37,3.37,0,0,0-1,2.34,3.27,3.27,0,0,0,1,2.33,3.54,3.54,0,0,0,2.3,1,3.28,3.28,0,0,0,2.31-1,3.08,3.08,0,0,0,1-2.3,3.17,3.17,0,0,0-1-2.34,3.32,3.32,0,0,0-2.31-.92A3.28,3.28,0,0,0,80.12,61.79Z"/><path d="M99.8,61.19V71.3H94.68V61.19H93.05V57h1.63v-4.7H99.8V57h2.91v4.2Z"/><path d="M119.8,65.09H109.15a3.6,3.6,0,0,0,.89,2.4,2.88,2.88,0,0,0,2.11.7,4.06,4.06,0,0,0,1.67-.38,2.32,2.32,0,0,0,.89-1h4.9a6.43,6.43,0,0,1-1.73,2.94c-1,1-2.72,2-5.82,2a8.11,8.11,0,0,1-5.92-2.18A7.49,7.49,0,0,1,104,64.19a7.6,7.6,0,0,1,2.14-5.53A8.06,8.06,0,0,1,112,56.58a7.84,7.84,0,0,1,5.5,2,8,8,0,0,1,2.27,6Zm-4.7-2.94a3.45,3.45,0,0,0-.83-1.54,3,3,0,0,0-2.12-.77,2.78,2.78,0,0,0-2.08.77,2.88,2.88,0,0,0-.76,1.54Z"/><path d="M136.22,64.23V71.3h-5.54V50h8.83a7.38,7.38,0,0,1,5.41,1.92,6.64,6.64,0,0,1,2,5.19A6.94,6.94,0,0,1,145,62.37a7.14,7.14,0,0,1-5.32,1.86Zm0-4.48h1.85a3.61,3.61,0,0,0,2.34-.68,2.44,2.44,0,0,0,.7-2,2.59,2.59,0,0,0-.64-1.92,3.26,3.26,0,0,0-2.37-.77h-1.88Z"/><path d="M149.37,57h5.12v2.34a4.6,4.6,0,0,1,2-2,5.56,5.56,0,0,1,2.66-.58l1,.06v4.84a4.43,4.43,0,0,0-2.2-.52,3.37,3.37,0,0,0-2.34.77,4.31,4.31,0,0,0-1.15,3.27V71.3h-5.12Z"/><path d="M176.22,69.41a9.79,9.79,0,0,1-12.77,0,7.38,7.38,0,0,1,0-10.53,8.93,8.93,0,0,1,6.37-2.37,9.06,9.06,0,0,1,6.4,2.37,7.4,7.4,0,0,1,0,10.53Zm-8.68-7.62a3.36,3.36,0,0,0-1,2.34,3.32,3.32,0,0,0,1,2.27,3.21,3.21,0,0,0,4.58,0,3.16,3.16,0,0,0,1-2.27,3.48,3.48,0,0,0-1-2.34,3.54,3.54,0,0,0-2.27-.92A3.58,3.58,0,0,0,167.54,61.79Z"/><path d="M192.18,71a7.59,7.59,0,0,1-3.55.8A7.9,7.9,0,0,1,183,69.6a7.49,7.49,0,0,1-2.21-5.34,7.81,7.81,0,0,1,2.31-5.54,8.23,8.23,0,0,1,5.76-2.17,7.33,7.33,0,0,1,3.32.8v4.28a4.53,4.53,0,0,0-2.65-.92,3.36,3.36,0,0,0-2.5,1,3.48,3.48,0,0,0-1,2.46,3.66,3.66,0,0,0,.9,2.4,3.48,3.48,0,0,0,2.62,1.09,3.84,3.84,0,0,0,2.62-1Z"/><path d="M210.26,65.09H199.61a3.65,3.65,0,0,0,.89,2.4,2.89,2.89,0,0,0,2.12.7,4.06,4.06,0,0,0,1.66-.38,2.4,2.4,0,0,0,.9-1h4.89a6.34,6.34,0,0,1-1.73,2.94c-1.05,1-2.72,2-5.82,2a8.11,8.11,0,0,1-5.92-2.18,7.49,7.49,0,0,1-2.11-5.41,7.6,7.6,0,0,1,2.14-5.53,8.08,8.08,0,0,1,5.86-2.08,7.82,7.82,0,0,1,5.5,2,8,8,0,0,1,2.27,6Zm-4.7-2.94a3.45,3.45,0,0,0-.83-1.54,3,3,0,0,0-2.11-.77,2.75,2.75,0,0,0-2.08.77,2.82,2.82,0,0,0-.77,1.54Z"/><path d="M214.14,66.56a7.35,7.35,0,0,0,2,1.06,6.79,6.79,0,0,0,2,.35,2.17,2.17,0,0,0,1.31-.39.82.82,0,0,0,.26-.67.78.78,0,0,0-.26-.64,3.32,3.32,0,0,0-1.34-.51l-1.35-.32a4.52,4.52,0,0,1-2.49-1.25,3.41,3.41,0,0,1-.93-2.46,5.1,5.1,0,0,1,1.34-3.49,7.23,7.23,0,0,1,5.12-1.73,11.86,11.86,0,0,1,4.58.93l-1.73,3.27A7.07,7.07,0,0,0,220,60a2.17,2.17,0,0,0-1.18.29.76.76,0,0,0-.45.7.83.83,0,0,0,.61.8,17.19,17.19,0,0,0,1.69.42l.93.26a6.05,6.05,0,0,1,2.11,1.11,4,4,0,0,1,1.09,2.85A4.79,4.79,0,0,1,223.35,70a7.44,7.44,0,0,1-5.28,1.79,10.53,10.53,0,0,1-5.76-1.67Z"/><path d="M228.34,66.56a7.54,7.54,0,0,0,2,1.06,6.79,6.79,0,0,0,2,.35,2.17,2.17,0,0,0,1.31-.39.81.81,0,0,0,.25-.67.77.77,0,0,0-.25-.64,3.31,3.31,0,0,0-1.35-.51L231,65.44a4.58,4.58,0,0,1-2.5-1.25,3.45,3.45,0,0,1-.92-2.46,5.1,5.1,0,0,1,1.34-3.49A7.23,7.23,0,0,1,234,56.51a11.91,11.91,0,0,1,4.58.93l-1.73,3.27A7.12,7.12,0,0,0,234.2,60a2.17,2.17,0,0,0-1.18.29.76.76,0,0,0-.45.7.83.83,0,0,0,.61.8,17.19,17.19,0,0,0,1.69.42l.93.26a6.05,6.05,0,0,1,2.11,1.11A4,4,0,0,1,239,66.43,4.83,4.83,0,0,1,237.56,70a7.45,7.45,0,0,1-5.28,1.79,10.51,10.51,0,0,1-5.76-1.67Z"/><path d="M334.27,346.9a7.45,7.45,0,0,0,4.89,2.17,2.86,2.86,0,0,0,2.15-.73,1.91,1.91,0,0,0,.54-1.35,1.68,1.68,0,0,0-.61-1.28,7.68,7.68,0,0,0-2.75-1.12l-1.44-.44a7,7,0,0,1-3.07-1.73,5.38,5.38,0,0,1-1.22-3.78,7,7,0,0,1,1.95-5.15,7.53,7.53,0,0,1,5.48-2,15.09,15.09,0,0,1,6.59,1.73l-2.21,4.32a5.63,5.63,0,0,0-3.65-1.44,2.66,2.66,0,0,0-1.82.64,1.58,1.58,0,0,0-.55,1.15,1.43,1.43,0,0,0,.29,1,3.45,3.45,0,0,0,1.86,1l1.69.52a8.06,8.06,0,0,1,3.88,2.11,5.06,5.06,0,0,1,1.37,3.81,7.23,7.23,0,0,1-2,5.37c-1.83,1.82-4,2.18-6.31,2.18a11.35,11.35,0,0,1-4.19-.71,14.81,14.81,0,0,1-3.23-1.69Z"/><path d="M361.47,353a7.65,7.65,0,0,1-3.56.8,7.92,7.92,0,0,1-5.63-2.18,7.49,7.49,0,0,1-2.2-5.34,7.8,7.8,0,0,1,2.3-5.54,8.24,8.24,0,0,1,5.76-2.17,7.36,7.36,0,0,1,3.33.8v4.28a4.59,4.59,0,0,0-2.66-.92,3.38,3.38,0,0,0-2.5,1,3.48,3.48,0,0,0-1,2.46,3.66,3.66,0,0,0,.9,2.4,3.48,3.48,0,0,0,2.62,1.09,3.88,3.88,0,0,0,2.63-1Z"/><path d="M364.38,330h5.12v10.82a6.12,6.12,0,0,1,1.6-1.41,6.52,6.52,0,0,1,7.17.83,5,5,0,0,1,1.34,4v9.09h-5.12v-7.23a4.25,4.25,0,0,0-.64-2.79,2,2,0,0,0-1.63-.61,2.76,2.76,0,0,0-1.86.61,3.13,3.13,0,0,0-.86,2.34v7.68h-5.12Z"/><path d="M397.63,347.09H387a3.61,3.61,0,0,0,.9,2.4,2.88,2.88,0,0,0,2.11.7,4,4,0,0,0,1.66-.38,2.4,2.4,0,0,0,.9-1h4.89a6.39,6.39,0,0,1-1.72,2.94c-1.06,1-2.72,2-5.83,2A8.11,8.11,0,0,1,384,351.6a7.49,7.49,0,0,1-2.11-5.41,7.64,7.64,0,0,1,2.14-5.53,8.08,8.08,0,0,1,5.86-2.08,7.82,7.82,0,0,1,5.5,1.95,8,8,0,0,1,2.28,6Zm-4.71-2.94a3.45,3.45,0,0,0-.83-1.54,3,3,0,0,0-2.11-.77,2.75,2.75,0,0,0-2.08.77,3,3,0,0,0-.77,1.54Z"/><path d="M416.76,353.3h-5.12v-1.57a5.27,5.27,0,0,1-4.32,2,6.84,6.84,0,0,1-5-2,8.1,8.1,0,0,1,0-11.36,7.35,7.35,0,0,1,5.06-1.92,5.66,5.66,0,0,1,4.25,1.86V330h5.12Zm-6.05-4.74a3.41,3.41,0,0,0,1.09-2.43,3.73,3.73,0,0,0-1-2.3,3.1,3.1,0,0,0-2.33-1,3.18,3.18,0,0,0-2.28.92,3.57,3.57,0,0,0-1,2.44,3.22,3.22,0,0,0,1,2.23,3.17,3.17,0,0,0,2.28,1A3.47,3.47,0,0,0,410.71,348.56Z"/><path d="M425.4,339v8a2.75,2.75,0,0,0,.77,2.08,2.63,2.63,0,0,0,1.79.55,2.43,2.43,0,0,0,1.83-.61,2.65,2.65,0,0,0,.73-2v-8h5.12v8.93a4.9,4.9,0,0,1-1.37,3.84c-1.76,1.82-4.23,2-6.18,2-2.14,0-4.77-.23-6.46-2a5.14,5.14,0,0,1-1.35-3.81V339Z"/><path d="M444.28,330V353.3h-5.12V330Z"/><path d="M462.94,347.09H452.28a3.61,3.61,0,0,0,.9,2.4,2.88,2.88,0,0,0,2.11.7,4,4,0,0,0,1.66-.38,2.34,2.34,0,0,0,.9-1h4.9a6.52,6.52,0,0,1-1.73,2.94c-1.06,1-2.72,2-5.83,2a8.13,8.13,0,0,1-5.92-2.18,8.09,8.09,0,0,1,0-10.94,8,8,0,0,1,5.85-2.08,7.84,7.84,0,0,1,5.51,1.95,8,8,0,0,1,2.27,6Zm-4.71-2.94a3.26,3.26,0,0,0-.83-1.54,3,3,0,0,0-2.11-.77,2.77,2.77,0,0,0-2.08.77,3,3,0,0,0-.77,1.54Z"/><path d="M1090.41,332l3.71,13.8,4.51-13.8h4.42l4.19,13.8,4-13.8h5.79l-6.81,21.35h-5.66L1100.71,341l-4.09,12.35H1091L1084.62,332Z"/><path d="M1128.68,339h5.12V353.3h-5.12v-1.57a5.35,5.35,0,0,1-4.45,2,6.85,6.85,0,0,1-5.15-2.28,7.22,7.22,0,0,1-2-5.24,7.92,7.92,0,0,1,2.2-5.73,7.36,7.36,0,0,1,5.15-2,5.67,5.67,0,0,1,4.29,1.86Zm-5.37,4.8a3.35,3.35,0,0,0-1,2.34,3.27,3.27,0,0,0,1,2.33,3.57,3.57,0,0,0,2.31,1,3.28,3.28,0,0,0,2.3-1,3.08,3.08,0,0,0,1-2.3,3.17,3.17,0,0,0-1-2.34,3.32,3.32,0,0,0-2.3-.92A3.27,3.27,0,0,0,1123.31,343.79Z"/><path d="M1139.88,330.16A2.88,2.88,0,1,1,1137,333,2.87,2.87,0,0,1,1139.88,330.16Zm2.56,8.83V353.3h-5.12V339Z"/><path d="M1151.59,343.19V353.3h-5.12V343.19h-1.63V339h1.63v-4.7h5.12V339h2.92v4.2Z"/><path d="M1169.39,343.19V353.3h-5.12V343.19h-1.8V339h1.8v-2.4a7.37,7.37,0,0,1,1.31-4.7,5.94,5.94,0,0,1,5-2.27,6.42,6.42,0,0,1,2.46.48v4.41a3.26,3.26,0,0,0-1.6-.48,1.83,1.83,0,0,0-1.44.55,3.8,3.8,0,0,0-.57,2.4v2H1173v4.2Z"/><path d="M1189.32,351.41a9.79,9.79,0,0,1-12.77,0,7.4,7.4,0,0,1,0-10.53,9.79,9.79,0,0,1,12.77,0,7.38,7.38,0,0,1,0,10.53Zm-8.67-7.62a3.31,3.31,0,0,0-1,2.34,3.33,3.33,0,0,0,3.29,3.23,3.21,3.21,0,0,0,2.27-1,3.13,3.13,0,0,0,1-2.27,3.44,3.44,0,0,0-1-2.34,3.3,3.3,0,0,0-4.57,0Z"/><path d="M1194.47,339h5.12v2.34a4.62,4.62,0,0,1,2-2,5.52,5.52,0,0,1,2.65-.58l1,.06v4.84a4.48,4.48,0,0,0-2.21-.52,3.39,3.39,0,0,0-2.34.77,4.35,4.35,0,0,0-1.15,3.27v6.11h-5.12Z"/><path d="M1101.55,385.49h-10.66a3.61,3.61,0,0,0,.9,2.4,2.88,2.88,0,0,0,2.11.7,4,4,0,0,0,1.66-.38,2.4,2.4,0,0,0,.9-1h4.89a6.39,6.39,0,0,1-1.72,2.94c-1.06,1-2.72,2-5.83,2a8.11,8.11,0,0,1-5.92-2.18,8.09,8.09,0,0,1,0-10.94,8,8,0,0,1,5.85-2.08,7.82,7.82,0,0,1,5.5,1.95,8,8,0,0,1,2.28,6Zm-4.71-2.95A3.47,3.47,0,0,0,1096,381a3,3,0,0,0-2.11-.77,2.73,2.73,0,0,0-2.08.77,3,3,0,0,0-.77,1.53Z"/><path d="M1108.46,377.39l3.42,7.33,3.49-7.33h5.7l-7.46,14.31h-3.49l-7.39-14.31Z"/><path d="M1137.19,385.49h-10.65a3.65,3.65,0,0,0,.89,2.4,2.89,2.89,0,0,0,2.12.7,4.06,4.06,0,0,0,1.66-.38,2.4,2.4,0,0,0,.9-1H1137a6.34,6.34,0,0,1-1.73,2.94c-1,1-2.72,2-5.82,2a8.11,8.11,0,0,1-5.92-2.18,7.49,7.49,0,0,1-2.11-5.41,7.6,7.6,0,0,1,2.14-5.53,8.08,8.08,0,0,1,5.86-2.08,7.82,7.82,0,0,1,5.5,1.95,8,8,0,0,1,2.27,6Zm-4.7-2.95a3.47,3.47,0,0,0-.83-1.53,3,3,0,0,0-2.11-.77,2.72,2.72,0,0,0-2.08.77,2.9,2.9,0,0,0-.77,1.53Z"/><path d="M1140.14,377.39h5.12v1.8a5.39,5.39,0,0,1,4.54-2.12,5.83,5.83,0,0,1,4.23,1.54,5,5,0,0,1,1.34,4v9.09h-5.12v-7.24a4.1,4.1,0,0,0-.64-2.78,2.15,2.15,0,0,0-1.63-.61,2.79,2.79,0,0,0-1.89.68,3.26,3.26,0,0,0-.83,2.27v7.68h-5.12Z"/><path d="M1164.52,381.58V391.7h-5.12V381.58h-1.63v-4.19h1.63v-4.7h5.12v4.7h2.91v4.19Z"/><path d="M849.19,509.72a13.23,13.23,0,0,1-4.8,1.06,11.64,11.64,0,0,1-8.26-3.2,11.21,11.21,0,0,1-3.23-7.78,11.2,11.2,0,0,1,11.29-11.2,13.24,13.24,0,0,1,5,1.09v6.62a6,6,0,0,0-4.84-2.33,5.41,5.41,0,0,0-3.84,1.41,5.69,5.69,0,0,0,3.84,10,6.26,6.26,0,0,0,4.84-2.24Z"/><path d="M866.63,508.41a9.79,9.79,0,0,1-12.77,0,7.38,7.38,0,0,1,0-10.53,8.93,8.93,0,0,1,6.37-2.37,9.06,9.06,0,0,1,6.4,2.37,7.4,7.4,0,0,1,0,10.53ZM858,500.79a3.18,3.18,0,0,0,0,4.61,3.21,3.21,0,0,0,4.58,0,3.16,3.16,0,0,0,1-2.27,3.48,3.48,0,0,0-1-2.34,3.54,3.54,0,0,0-2.27-.92A3.58,3.58,0,0,0,858,500.79Z"/><path d="M871.78,496h5.12v1.73a5.49,5.49,0,0,1,4.29-2,5.78,5.78,0,0,1,2.75.64,4.43,4.43,0,0,1,2,2.05,5,5,0,0,1,2-2,5.88,5.88,0,0,1,3-.7,5.71,5.71,0,0,1,4,1.31,5.25,5.25,0,0,1,1.34,3.94v9.31H891v-7.07c0-1.51-.16-2.53-.74-3.08a1.87,1.87,0,0,0-1.34-.48,2,2,0,0,0-1.5.58,3.64,3.64,0,0,0-.93,2.72v7.33h-5.12v-7.07c0-1.38-.1-2.47-.67-3.08a2,2,0,0,0-1.54-.57,1.8,1.8,0,0,0-1.41.51,4.25,4.25,0,0,0-.89,3.14v7.07h-5.12Z"/><path d="M904.83,517.62h-5.12V496h5.12v1.57a5.37,5.37,0,0,1,4.39-2.05,7.09,7.09,0,0,1,5.08,2.08,8.12,8.12,0,0,1-.12,11.2,6.88,6.88,0,0,1-4.9,2,6.11,6.11,0,0,1-4.45-1.86Zm.84-16.79a3.48,3.48,0,0,0-1,2.36,3.4,3.4,0,0,0,1,2.27,3.25,3.25,0,0,0,2.3,1,3.06,3.06,0,0,0,2.27-1,3.33,3.33,0,0,0,1-2.27,3.47,3.47,0,0,0-1-2.36,3.06,3.06,0,0,0-2.27-1A3.25,3.25,0,0,0,905.67,500.83Z"/><path d="M924.54,487V510.3h-5.11V487Z"/><path d="M943.2,504.09H932.54a3.61,3.61,0,0,0,.9,2.4,2.88,2.88,0,0,0,2.11.7,4.06,4.06,0,0,0,1.67-.38,2.32,2.32,0,0,0,.89-1H943a6.34,6.34,0,0,1-1.73,2.94c-1.06,1-2.72,2-5.82,2a8.11,8.11,0,0,1-5.92-2.18,7.49,7.49,0,0,1-2.11-5.41,7.6,7.6,0,0,1,2.14-5.53,8.06,8.06,0,0,1,5.86-2.08,7.84,7.84,0,0,1,5.5,1.95,8,8,0,0,1,2.27,6Zm-4.7-2.94a3.45,3.45,0,0,0-.83-1.54,3,3,0,0,0-2.12-.77,2.78,2.78,0,0,0-2.08.77,2.88,2.88,0,0,0-.76,1.54Z"/><path d="M951.81,500.19V510.3h-5.12V500.19h-1.63V496h1.63v-4.7h5.12V496h2.91v4.2Z"/><path d="M971.81,504.09H961.15a3.61,3.61,0,0,0,.9,2.4,2.88,2.88,0,0,0,2.11.7,4,4,0,0,0,1.66-.38,2.34,2.34,0,0,0,.9-1h4.9a6.52,6.52,0,0,1-1.73,2.94c-1.06,1-2.72,2-5.83,2a8.13,8.13,0,0,1-5.92-2.18,8.09,8.09,0,0,1,0-10.94,8,8,0,0,1,5.85-2.08,7.84,7.84,0,0,1,5.51,1.95,8,8,0,0,1,2.27,6Zm-4.71-2.94a3.26,3.26,0,0,0-.83-1.54,3,3,0,0,0-2.11-.77,2.78,2.78,0,0,0-2.08.77,3,3,0,0,0-.77,1.54Z"/><path d="M848.55,542.49H837.89a3.61,3.61,0,0,0,.9,2.4,2.88,2.88,0,0,0,2.11.7,4,4,0,0,0,1.66-.38,2.4,2.4,0,0,0,.9-1h4.89a6.39,6.39,0,0,1-1.72,2.94c-1.06,1-2.72,2-5.83,2a8.11,8.11,0,0,1-5.92-2.18,8.09,8.09,0,0,1,0-10.94,8,8,0,0,1,5.85-2.08,7.82,7.82,0,0,1,5.5,1.95,8,8,0,0,1,2.28,6Zm-4.71-3A3.47,3.47,0,0,0,843,538a3,3,0,0,0-2.11-.77,2.73,2.73,0,0,0-2.08.77,3,3,0,0,0-.77,1.53Z"/><path d="M856.55,540.92l-5.8-6.53h6.66l2.47,3,2.52-3H869l-5.92,6.53,7.16,7.78h-6.78l-3.65-4.26-3.64,4.26h-6.79Z"/><path d="M886,542.49H875.33a3.61,3.61,0,0,0,.9,2.4,2.88,2.88,0,0,0,2.11.7,4,4,0,0,0,1.66-.38,2.4,2.4,0,0,0,.9-1h4.89a6.39,6.39,0,0,1-1.72,2.94c-1.06,1-2.72,2-5.83,2a8.11,8.11,0,0,1-5.92-2.18,7.49,7.49,0,0,1-2.11-5.41,7.6,7.6,0,0,1,2.15-5.53,8,8,0,0,1,5.85-2.08,7.81,7.81,0,0,1,5.5,1.95,8,8,0,0,1,2.28,6Zm-4.71-3a3.47,3.47,0,0,0-.83-1.53,3,3,0,0,0-2.11-.77,2.72,2.72,0,0,0-2.08.77,3,3,0,0,0-.77,1.53Z"/><path d="M899.75,548.38a7.65,7.65,0,0,1-3.56.8,7.92,7.92,0,0,1-5.63-2.18,7.49,7.49,0,0,1-2.2-5.34,7.79,7.79,0,0,1,2.3-5.54,8.24,8.24,0,0,1,5.76-2.17,7.36,7.36,0,0,1,3.33.8V539a4.59,4.59,0,0,0-2.66-.92,3.34,3.34,0,0,0-2.5,1,3.48,3.48,0,0,0-1,2.46,3.66,3.66,0,0,0,.9,2.4,3.48,3.48,0,0,0,2.62,1.09,3.88,3.88,0,0,0,2.63-1Z"/><path d="M907.78,534.39v8a2.71,2.71,0,0,0,.77,2.08,2.63,2.63,0,0,0,1.79.55,2.4,2.4,0,0,0,1.82-.61,2.67,2.67,0,0,0,.74-2v-8H918v8.93a4.91,4.91,0,0,1-1.38,3.84c-1.76,1.82-4.22,2-6.17,2-2.15,0-4.77-.23-6.47-2a5.13,5.13,0,0,1-1.34-3.81v-8.93Z"/><path d="M927.2,538.58V548.7h-5.12V538.58h-1.63v-4.19h1.63v-4.7h5.12v4.7h2.91v4.19Z"/><path d="M934.59,525.56a2.88,2.88,0,1,1-2.88,2.88A2.87,2.87,0,0,1,934.59,525.56Zm2.56,8.83V548.7H932V534.39Z"/><path d="M955,546.81a9.79,9.79,0,0,1-12.77,0,7.17,7.17,0,0,1-2.2-5.28,7.09,7.09,0,0,1,2.2-5.25,9.79,9.79,0,0,1,12.77,0,7.05,7.05,0,0,1,2.21,5.25A7.14,7.14,0,0,1,955,546.81Zm-8.67-7.62a3.18,3.18,0,0,0,0,4.61,3.21,3.21,0,0,0,4.58,0,3.2,3.2,0,0,0,1-2.27,3.52,3.52,0,0,0-1-2.34,3.28,3.28,0,0,0-4.58,0Z"/><path d="M960.19,534.39h5.12v1.8a5.4,5.4,0,0,1,4.55-2.12,5.79,5.79,0,0,1,4.22,1.54,4.92,4.92,0,0,1,1.34,4v9.09H970.3v-7.24a4.05,4.05,0,0,0-.64-2.78,2.15,2.15,0,0,0-1.63-.61,2.79,2.79,0,0,0-1.89.68,3.26,3.26,0,0,0-.83,2.27v7.68h-5.12Z"/><line x1="470.13" y1="156" x2="470.63" y2="232.5" style="fill:none;stroke:#91c54f;stroke-miterlimit:10;stroke-width:7px"/><line x1="592" y1="113.75" x2="668.5" y2="113.25" style="fill:none;stroke:#91c54f;stroke-miterlimit:10;stroke-width:7px"/><path d="M699,39.67h-6.59v3.55h6.24v4.7h-6.24V51.6H699v4.7H686.83V35H699Z"/><path d="M706,42l3.42,7.33L712.87,42h5.7l-7.46,14.3h-3.49L700.23,42Z"/><path d="M734.7,50.1H724a3.61,3.61,0,0,0,.9,2.4,2.88,2.88,0,0,0,2.11.7,4,4,0,0,0,1.66-.38,2.47,2.47,0,0,0,.9-1h4.89a6.39,6.39,0,0,1-1.72,2.94c-1.06,1-2.72,2-5.83,2A8.1,8.1,0,0,1,721,54.61a7.49,7.49,0,0,1-2.11-5.41,7.64,7.64,0,0,1,2.14-5.53,8,8,0,0,1,5.86-2.08,7.82,7.82,0,0,1,5.5,1.95,8,8,0,0,1,2.28,6Zm-4.71-3a3.47,3.47,0,0,0-.83-1.53,3,3,0,0,0-2.11-.77,2.72,2.72,0,0,0-2.08.77,2.93,2.93,0,0,0-.77,1.53Z"/><path d="M737.64,42h5.12v1.79a5.4,5.4,0,0,1,4.54-2.11,5.77,5.77,0,0,1,4.23,1.54,4.94,4.94,0,0,1,1.34,4V56.3h-5.12V49.07a4.1,4.1,0,0,0-.64-2.78,2.15,2.15,0,0,0-1.63-.61,2.83,2.83,0,0,0-1.89.67,3.31,3.31,0,0,0-.83,2.28V56.3h-5.12Z"/><path d="M762,46.19V56.3H756.9V46.19h-1.63V42h1.63V37.3H762V42h2.91v4.19Z"/><path d="M788.71,54.42a9.82,9.82,0,0,1-12.77,0,7.38,7.38,0,0,1,0-10.53,9.79,9.79,0,0,1,12.77,0,7.38,7.38,0,0,1,0,10.53ZM780,46.8a3.16,3.16,0,0,0,0,4.61,3.2,3.2,0,0,0,4.57,0,3.16,3.16,0,0,0,1-2.27,3.48,3.48,0,0,0-1-2.34,3.27,3.27,0,0,0-4.57,0Z"/><path d="M804.68,56a7.51,7.51,0,0,1-3.55.8,7.93,7.93,0,0,1-5.64-2.17,7.49,7.49,0,0,1-2.2-5.34,7.79,7.79,0,0,1,2.3-5.54,8.25,8.25,0,0,1,5.76-2.18,7.34,7.34,0,0,1,3.33.8v4.29a4.59,4.59,0,0,0-2.66-.93,3.3,3.3,0,0,0-2.49,1,3.45,3.45,0,0,0-1,2.46,3.66,3.66,0,0,0,.9,2.4,3.48,3.48,0,0,0,2.62,1.09,3.88,3.88,0,0,0,2.63-1Z"/><path d="M818.4,56a7.47,7.47,0,0,1-3.55.8,7.92,7.92,0,0,1-5.63-2.17A7.49,7.49,0,0,1,807,49.27a7.79,7.79,0,0,1,2.31-5.54,8.23,8.23,0,0,1,5.76-2.18,7.33,7.33,0,0,1,3.32.8v4.29a4.54,4.54,0,0,0-2.65-.93,3.33,3.33,0,0,0-2.5,1,3.48,3.48,0,0,0-1,2.46,3.66,3.66,0,0,0,.9,2.4,3.48,3.48,0,0,0,2.62,1.09,3.84,3.84,0,0,0,2.62-1Z"/><path d="M826.44,42v8a2.74,2.74,0,0,0,.76,2.08,2.67,2.67,0,0,0,1.8.55,2.41,2.41,0,0,0,1.82-.61,2.67,2.67,0,0,0,.74-2V42h5.12v8.93a4.92,4.92,0,0,1-1.38,3.84c-1.76,1.82-4.22,2-6.18,2-2.14,0-4.76-.22-6.46-2a5.15,5.15,0,0,1-1.34-3.81V42Z"/><path d="M840.2,42h5.12v2.34a4.63,4.63,0,0,1,2-2,5.68,5.68,0,0,1,2.66-.57l1,.06v4.83a4.48,4.48,0,0,0-2.21-.51,3.35,3.35,0,0,0-2.33.77,4.29,4.29,0,0,0-1.15,3.26V56.3H840.2Z"/><path d="M853.28,42h5.12v2.34a4.7,4.7,0,0,1,2-2,5.68,5.68,0,0,1,2.66-.57l1,.06v4.83a4.52,4.52,0,0,0-2.21-.51,3.35,3.35,0,0,0-2.33.77,4.31,4.31,0,0,0-1.16,3.26V56.3h-5.12Z"/><path d="M881.54,50.1H870.88a3.61,3.61,0,0,0,.9,2.4,2.88,2.88,0,0,0,2.11.7,4.06,4.06,0,0,0,1.67-.38,2.38,2.38,0,0,0,.89-1h4.9a6.52,6.52,0,0,1-1.73,2.94c-1.06,1-2.72,2-5.82,2a8.1,8.1,0,0,1-5.92-2.17,7.49,7.49,0,0,1-2.12-5.41,7.6,7.6,0,0,1,2.15-5.53,8,8,0,0,1,5.85-2.08,7.84,7.84,0,0,1,5.51,1.95,8,8,0,0,1,2.27,6Zm-4.71-3a3.28,3.28,0,0,0-.83-1.53,3,3,0,0,0-2.11-.77,2.74,2.74,0,0,0-2.08.77,2.93,2.93,0,0,0-.77,1.53Z"/><path d="M900.67,56.3h-5.12V54.74a5.23,5.23,0,0,1-4.31,2,6.88,6.88,0,0,1-5-2,8.13,8.13,0,0,1,0-11.36,7.35,7.35,0,0,1,5.06-1.92,5.64,5.64,0,0,1,4.25,1.86V33h5.12Zm-6-4.73a3.44,3.44,0,0,0,1.08-2.43,3.73,3.73,0,0,0-1-2.31,3.14,3.14,0,0,0-2.33-1,3.1,3.1,0,0,0-2.27.93,3.5,3.5,0,0,0-1,2.43,3.23,3.23,0,0,0,1,2.24,3.14,3.14,0,0,0,2.27,1A3.52,3.52,0,0,0,894.63,51.57Z"/></svg>