<svg id="Layer_1" data-name="Layer 1" xmlns="http://www.w3.org/2000/svg" viewBox="0 0 699 929"><title>Cap 4 -</title><polygon points="302.33 258.12 258.13 205.71 265.72 199.3 235.99 196.77 233.46 226.51 240.67 220.43 284.87 272.85 277.28 279.25 307.01 281.78 309.54 252.04 302.33 258.12" style="fill:none;stroke:#91c54f;stroke-miterlimit:10;stroke-width:7px"/><polygon points="391.67 258.12 435.87 205.71 428.28 199.3 458.01 196.77 460.54 226.51 453.33 220.43 409.13 272.85 416.72 279.25 386.99 281.78 384.46 252.04 391.67 258.12" style="fill:none;stroke:#eb6a38;stroke-miterlimit:10;stroke-width:7px"/><polygon points="360 513.02 359.84 581.59 369.77 581.61 348.61 602.66 327.56 581.51 337 581.53 337.16 512.97 327.23 512.94 348.39 491.89 369.44 513.04 360 513.02" style="fill:none;stroke:#c13018;stroke-miterlimit:10;stroke-width:7px"/><circle cx="144.64" cy="212.93" r="6.39" style="fill:none;stroke:#91c54f;stroke-miterlimit:10;stroke-width:3.81471389532089px"/><line x1="144.79" y1="206.37" x2="144.64" y2="186.11" style="fill:none;stroke:#91c54f;stroke-miterlimit:10;stroke-width:3.81471389532089px"/><circle cx="106.3" cy="212.93" r="6.39" style="fill:none;stroke:#91c54f;stroke-miterlimit:10;stroke-width:3.81471389532089px"/><line x1="106.45" y1="206.37" x2="106.3" y2="186.11" style="fill:none;stroke:#91c54f;stroke-miterlimit:10;stroke-width:3.81471389532089px"/><circle cx="182.99" cy="212.93" r="6.39" style="fill:none;stroke:#91c54f;stroke-miterlimit:10;stroke-width:3.81471389532089px"/><line x1="183.14" y1="206.37" x2="182.99" y2="186.11" style="fill:none;stroke:#91c54f;stroke-miterlimit:10;stroke-width:3.81471389532089px"/><circle cx="60.02" cy="162.51" r="6.39" style="fill:none;stroke:#91c54f;stroke-miterlimit:10;stroke-width:3.81471389532089px"/><line x1="66.59" y1="162.66" x2="86.85" y2="162.51" style="fill:none;stroke:#91c54f;stroke-miterlimit:10;stroke-width:3.81471389532089px"/><circle cx="60.02" cy="89.14" r="6.39" style="fill:none;stroke:#91c54f;stroke-miterlimit:10;stroke-width:3.81471389532089px"/><line x1="66.59" y1="89.29" x2="86.85" y2="89.14" style="fill:none;stroke:#91c54f;stroke-miterlimit:10;stroke-width:3.81471389532089px"/><circle cx="60.02" cy="125.82" r="6.39" style="fill:none;stroke:#91c54f;stroke-miterlimit:10;stroke-width:3.81471389532089px"/><line x1="66.59" y1="125.97" x2="86.85" y2="125.82" style="fill:none;stroke:#91c54f;stroke-miterlimit:10;stroke-width:3.81471389532089px"/><circle cx="229.27" cy="162.51" r="6.39" style="fill:none;stroke:#91c54f;stroke-miterlimit:10;stroke-width:3.81471389532089px"/><line x1="222.7" y1="162.36" x2="202.44" y2="162.51" style="fill:none;stroke:#91c54f;stroke-miterlimit:10;stroke-width:3.81471389532089px"/><circle cx="229.27" cy="89.14" r="6.39" style="fill:none;stroke:#91c54f;stroke-miterlimit:10;stroke-width:3.81471389532089px"/><line x1="222.7" y1="88.99" x2="202.44" y2="89.14" style="fill:none;stroke:#91c54f;stroke-miterlimit:10;stroke-width:3.81471389532089px"/><circle cx="229.27" cy="125.82" r="6.39" style="fill:none;stroke:#91c54f;stroke-miterlimit:10;stroke-width:3.81471389532089px"/><line x1="222.7" y1="125.67" x2="202.44" y2="125.82" style="fill:none;stroke:#91c54f;stroke-miterlimit:10;stroke-width:3.81471389532089px"/><rect x="85.77" y="70.63" width="115.65" height="115.65" rx="12" ry="12" style="fill:none;stroke:#91c54f;stroke-miterlimit:10;stroke-width:3.81471389532089px"/><path d="M133.26,98.61v5.73a1.94,1.94,0,0,0,.5,1.49,1.79,1.79,0,0,0,1.19.47,1.88,1.88,0,0,0,1.16-.42,2.12,2.12,0,0,0,.56-1.76V98.61h2.51v5.56a3.93,3.93,0,0,1-1.08,3.13,4.19,4.19,0,0,1-3.2,1.2,4.3,4.3,0,0,1-3.2-1.16,4.5,4.5,0,0,1-.95-3.17V98.61Z"/><path d="M147.12,106.66h-3.51l-.65,1.63H140.3L144,98.61h2.74l3.64,9.68h-2.68Zm-.67-1.91-1.09-3.14-1.05,3.14Z"/><path d="M154,98.61v7.54h3v2.14h-5.52V98.61Z"/><path d="M137.7,150.84v5.73a1.94,1.94,0,0,0,.5,1.49,1.79,1.79,0,0,0,1.19.47,1.88,1.88,0,0,0,1.16-.42,2.12,2.12,0,0,0,.56-1.76v-5.51h2.51v5.56a3.93,3.93,0,0,1-1.08,3.13,4.19,4.19,0,0,1-3.2,1.2,4.3,4.3,0,0,1-3.2-1.16,4.5,4.5,0,0,1-.95-3.17v-5.56Z"/><path d="M152.6,160.26a6,6,0,0,1-2.17.47,5.26,5.26,0,0,1-3.75-1.45,5.07,5.07,0,0,1-1.46-3.52,5.07,5.07,0,0,1,5.12-5.08,5.94,5.94,0,0,1,2.26.49v3a2.67,2.67,0,0,0-2.19-1.06,2.46,2.46,0,0,0-1.74.63,2.74,2.74,0,0,0-.84,2,2.71,2.71,0,0,0,.78,1.89,2.74,2.74,0,0,0,1.8.67,2.85,2.85,0,0,0,2.19-1Z"/><rect x="92.61" y="89.38" width="101.97" height="27.36" rx="12" ry="12" style="fill:none;stroke:#a2b969;stroke-miterlimit:10;stroke-width:3.81471389532089px"/><rect x="92.61" y="142.02" width="101.97" height="27.36" rx="12" ry="12" style="fill:none;stroke:#a2b969;stroke-miterlimit:10;stroke-width:3.81471389532089px"/><polygon points="138.56 136.1 138.56 125.81 140.04 125.81 136.89 122.67 133.74 125.81 135.22 125.81 135.22 136.1 138.56 136.1" style="fill:none;stroke:#a2b969;stroke-miterlimit:10;stroke-width:4.35967302322388px"/><polygon points="149.24 122.67 149.24 132.95 147.75 132.95 150.9 136.1 154.05 132.95 152.57 132.95 152.57 122.67 149.24 122.67" style="fill:none;stroke:#a2b969;stroke-miterlimit:10;stroke-width:4.35967302322388px"/><path d="M133.71,47.91a11.52,11.52,0,0,1-4.2.92,10.15,10.15,0,0,1-7.22-2.8,9.8,9.8,0,0,1-2.83-6.8,10,10,0,0,1,2.83-6.89,9.89,9.89,0,0,1,7-2.91,11.61,11.61,0,0,1,4.37.95v5.8a5.19,5.19,0,0,0-4.23-2,4.74,4.74,0,0,0-3.36,1.23,5.22,5.22,0,0,0-1.62,3.84,4.78,4.78,0,0,0,5,4.93,5.51,5.51,0,0,0,4.23-2Z"/><path d="M141.63,42.22v6.19h-4.84V29.74h7.73a6.4,6.4,0,0,1,4.73,1.68A5.76,5.76,0,0,1,151,36a6.06,6.06,0,0,1-1.66,4.65,6.19,6.19,0,0,1-4.64,1.62Zm0-3.92h1.63a3.16,3.16,0,0,0,2-.58,2.14,2.14,0,0,0,.62-1.71,2.27,2.27,0,0,0-.56-1.68,2.84,2.84,0,0,0-2.07-.67h-1.66Z"/><path d="M158.41,29.74V40.8a3.75,3.75,0,0,0,1,2.88,3.41,3.41,0,0,0,4.53.08,4.09,4.09,0,0,0,1.1-3.38V29.74h4.84V40.46c0,2-.08,4-2.1,6a8.09,8.09,0,0,1-6.16,2.32,8.36,8.36,0,0,1-6.19-2.24c-1.62-1.76-1.82-4.14-1.82-6.13V29.74Z"/><path d="M525.16,73.74a6,6,0,0,1,4.57,1.65,6.15,6.15,0,0,1,1.59,4.2,5.42,5.42,0,0,1-1.48,3.89,5.26,5.26,0,0,1-2.58,1.29l5.86,7.64h-6l-4.65-7.17v7.17H517.6V73.74Zm-2.71,8.37h.92a3.62,3.62,0,0,0,2.35-.76,2.29,2.29,0,0,0,.62-1.57,2.18,2.18,0,0,0-.64-1.56,3.29,3.29,0,0,0-2.33-.73h-.92Z"/><path d="M546.56,89.28h-6.78l-1.26,3.13H533.4l7.16-18.67h5.3l7,18.67H547.7Zm-1.29-3.7-2.1-6-2,6Z"/><path d="M554.2,92.41l3.16-18.67h4.79l3.78,10,4-10h4.84l2.8,18.67h-4.84l-1.38-10.75-4.5,10.75h-1.94l-4.31-10.75L559,92.41Z"/><rect x="111.9" y="742.64" width="11.82" height="44.13" style="fill:none;stroke:#3a5c84;stroke-miterlimit:10;stroke-width:3px"/><rect x="219.08" y="700.08" width="11.82" height="44.13" style="fill:none;stroke:#3a5c84;stroke-miterlimit:10;stroke-width:3px"/><rect x="160.76" y="732.78" width="21.28" height="24.43" style="fill:none;stroke:#3a5c84;stroke-miterlimit:10;stroke-width:3px"/><path d="M221.44,691.41H140.27v10.25h-5.52V691.41h-5.52v10.25h-5.51V691.41h-2.37a9.48,9.48,0,0,0-9.45,9.46v88.26a9.48,9.48,0,0,0,9.45,9.46H182V788.34h5.51v10.25h5.52V788.34h5.52v10.25h22.85a9.49,9.49,0,0,0,9.46-9.46V700.87A9.49,9.49,0,0,0,221.44,691.41Z" style="fill:none;stroke:#3a5c84;stroke-miterlimit:10;stroke-width:3px"/><line x1="111.9" y1="751.3" x2="123.72" y2="751.3" style="fill:none;stroke:#3a5c84;stroke-miterlimit:10;stroke-width:3px"/><line x1="111.9" y1="760.5" x2="123.72" y2="760.5" style="fill:none;stroke:#3a5c84;stroke-miterlimit:10;stroke-width:3px"/><line x1="111.9" y1="769.69" x2="123.72" y2="769.69" style="fill:none;stroke:#3a5c84;stroke-miterlimit:10;stroke-width:3px"/><line x1="111.9" y1="778.89" x2="123.72" y2="778.89" style="fill:none;stroke:#3a5c84;stroke-miterlimit:10;stroke-width:3px"/><line x1="219.08" y1="708.75" x2="230.9" y2="708.75" style="fill:none;stroke:#3a5c84;stroke-miterlimit:10;stroke-width:3px"/><line x1="219.08" y1="717.94" x2="230.9" y2="717.94" style="fill:none;stroke:#3a5c84;stroke-miterlimit:10;stroke-width:3px"/><line x1="219.08" y1="727.14" x2="230.9" y2="727.14" style="fill:none;stroke:#3a5c84;stroke-miterlimit:10;stroke-width:3px"/><line x1="219.08" y1="736.33" x2="230.9" y2="736.33" style="fill:none;stroke:#3a5c84;stroke-miterlimit:10;stroke-width:3px"/><line x1="111.9" y1="718.21" x2="127.66" y2="718.21" style="fill:none;stroke:#3a5c84;stroke-miterlimit:10;stroke-width:3px"/><line x1="127.66" y1="713.48" x2="127.66" y2="731.6" style="fill:none;stroke:#3a5c84;stroke-miterlimit:10;stroke-width:3px"/><line x1="127.66" y1="726.87" x2="141.06" y2="726.87" style="fill:none;stroke:#3a5c84;stroke-miterlimit:10;stroke-width:3px"/><line x1="141.06" y1="728.45" x2="141.06" y2="719.78" style="fill:none;stroke:#3a5c84;stroke-miterlimit:10;stroke-width:3px"/><line x1="155.24" y1="719.78" x2="139.48" y2="719.78" style="fill:none;stroke:#3a5c84;stroke-miterlimit:10;stroke-width:3px"/><line x1="127.66" y1="735.54" x2="127.66" y2="737.91" style="fill:none;stroke:#3a5c84;stroke-miterlimit:10;stroke-width:3px"/><line x1="230.9" y1="780.46" x2="215.14" y2="780.46" style="fill:none;stroke:#3a5c84;stroke-miterlimit:10;stroke-width:3px"/><line x1="215.14" y1="785.19" x2="215.14" y2="767.07" style="fill:none;stroke:#3a5c84;stroke-miterlimit:10;stroke-width:3px"/><line x1="215.14" y1="771.79" x2="201.74" y2="771.79" style="fill:none;stroke:#3a5c84;stroke-miterlimit:10;stroke-width:3px"/><line x1="201.74" y1="770.22" x2="201.74" y2="778.89" style="fill:none;stroke:#3a5c84;stroke-miterlimit:10;stroke-width:3px"/><line x1="187.55" y1="778.89" x2="203.31" y2="778.89" style="fill:none;stroke:#3a5c84;stroke-miterlimit:10;stroke-width:3px"/><line x1="215.14" y1="763.13" x2="215.14" y2="760.76" style="fill:none;stroke:#3a5c84;stroke-miterlimit:10;stroke-width:3px"/><line x1="171" y1="722.93" x2="171" y2="728.45" style="fill:none;stroke:#3a5c84;stroke-miterlimit:10;stroke-width:3px"/><line x1="171" y1="760.76" x2="171" y2="765.49" style="fill:none;stroke:#3a5c84;stroke-miterlimit:10;stroke-width:3px"/><line x1="152.09" y1="745" x2="156.82" y2="745" style="fill:none;stroke:#3a5c84;stroke-miterlimit:10;stroke-width:3px"/><line x1="186.76" y1="745" x2="192.28" y2="745" style="fill:none;stroke:#3a5c84;stroke-miterlimit:10;stroke-width:3px"/><line x1="152.88" y1="739.48" x2="156.82" y2="739.48" style="fill:none;stroke:#3a5c84;stroke-miterlimit:10;stroke-width:3px"/><line x1="154.45" y1="751.3" x2="156.82" y2="751.3" style="fill:none;stroke:#3a5c84;stroke-miterlimit:10;stroke-width:3px"/><line x1="186.76" y1="737.91" x2="189.13" y2="737.91" style="fill:none;stroke:#3a5c84;stroke-miterlimit:10;stroke-width:3px"/><line x1="187.55" y1="751.3" x2="190.7" y2="751.3" style="fill:none;stroke:#3a5c84;stroke-miterlimit:10;stroke-width:3px"/><rect x="294.9" y="327.68" width="104.21" height="73.51" rx="12" ry="12" style="fill:none;stroke:#3a5c84;stroke-miterlimit:10;stroke-width:7px"/><path d="M327.07,357A3.93,3.93,0,0,1,326,359.9a.26.26,0,0,0,0,.27l1.29,2.7a.21.21,0,0,0,.23.14,3.93,3.93,0,0,1,4.21,3.78.23.23,0,0,0,.15.22l2.82,1h.06a.19.19,0,0,0,.22-.08,3.85,3.85,0,0,1,.59-.55l0,0,.28-.2.23-.12.12-.06a3.83,3.83,0,0,1,1.5-.39,3.94,3.94,0,0,1,2.89,1.06.2.2,0,0,0,.26,0l2.7-1.29h0a.27.27,0,0,0,.14-.24,3.89,3.89,0,0,1,2.49-3.93l.09,0,.15-.05.24-.07h0a4.79,4.79,0,0,1,.76-.1.26.26,0,0,0,.22-.16l1-2.82a.23.23,0,0,0-.07-.27,3.91,3.91,0,0,1-.29-5.64.26.26,0,0,0,0-.27l-.89-1.85h0l-.4-.85L347,350h0l0,0-.09,0h0a3.9,3.9,0,0,1-4.2-3.78.24.24,0,0,0-.16-.22l-2.82-1a.22.22,0,0,0-.27.07h0a3.64,3.64,0,0,1-.9.76l-.07,0-.26.15a3.8,3.8,0,0,1-1.52.39,3.92,3.92,0,0,1-2.88-1.05.23.23,0,0,0-.27,0l-2.7,1.28a.27.27,0,0,0-.14.24,3.9,3.9,0,0,1-3.78,4.2.22.22,0,0,0-.22.16l-.69,1.95h0l-.32.88a.25.25,0,0,0,.08.27A4,4,0,0,1,327.07,357Zm6.13-4.78,0,0,.27-.22.2-.16.08-.06a5.82,5.82,0,1,1,5.84,10l-.48.2h0a5.82,5.82,0,0,1-5.93-9.72Z" style="fill:#3a5c84"/><path d="M340.57,378.15a5,5,0,0,1-1.36,3.71.34.34,0,0,0,0,.35l1.66,3.47a.27.27,0,0,0,.3.18,5,5,0,0,1,5.4,4.85.31.31,0,0,0,.2.29l3.62,1.28a.16.16,0,0,0,.07,0,.26.26,0,0,0,.29-.1,5.58,5.58,0,0,1,.75-.71l0,0,.37-.25a2.69,2.69,0,0,1,.29-.16l.15-.08a5,5,0,0,1,5.64.86.27.27,0,0,0,.34.05l3.47-1.66h0a.29.29,0,0,0,.17-.3,5,5,0,0,1,1.29-3.73,5.09,5.09,0,0,1,1.92-1.32l.11,0a1.39,1.39,0,0,1,.19-.06l.32-.1h.05a5,5,0,0,1,1-.12.34.34,0,0,0,.28-.21l1.28-3.63a.3.3,0,0,0-.09-.33,5,5,0,0,1-.38-7.26.3.3,0,0,0,.05-.34l-1.13-2.38h0l-.51-1.09a.26.26,0,0,0-.09-.09v0l-.05,0-.12,0h0a5,5,0,0,1-5.39-4.86.31.31,0,0,0-.21-.28l-3.62-1.28a.26.26,0,0,0-.34.09h0a4.9,4.9,0,0,1-1.15,1l-.09.05-.34.19a5.05,5.05,0,0,1-5.65-.85.32.32,0,0,0-.35-.06l-3.47,1.66a.31.31,0,0,0-.17.3,5,5,0,0,1-4.86,5.4.27.27,0,0,0-.29.2l-.88,2.51h0l-.41,1.13a.33.33,0,0,0,.09.34A5.09,5.09,0,0,1,340.57,378.15Zm7.88-6.13,0,0,.35-.29c.08-.06.16-.14.25-.2l.11-.08a7.47,7.47,0,1,1,7.49,12.85l-.61.26h0A7.47,7.47,0,0,1,348.45,372Z" style="fill:#3a5c84"/><path d="M346,344.83a2.75,2.75,0,0,1-.72,2,.15.15,0,0,0,0,.18l.88,1.84a.14.14,0,0,0,.16.1,2.67,2.67,0,0,1,2.86,2.58.21.21,0,0,0,.11.15l1.92.68h0a.12.12,0,0,0,.15-.06,3.51,3.51,0,0,1,.4-.37h0l.2-.14a.8.8,0,0,1,.16-.08l.07-.05a2.79,2.79,0,0,1,1-.26,2.67,2.67,0,0,1,2,.72.15.15,0,0,0,.18,0l1.84-.88h0a.15.15,0,0,0,.09-.16,2.72,2.72,0,0,1,.68-2,2.78,2.78,0,0,1,1-.7l0,0,.11,0,.16-.05h0a3,3,0,0,1,.51-.07.15.15,0,0,0,.15-.11l.68-1.92a.15.15,0,0,0,0-.18,2.65,2.65,0,0,1-.2-3.85.17.17,0,0,0,0-.18l-.6-1.27h0l-.28-.57,0-.05h0s0,0,0,0h-.09a2.65,2.65,0,0,1-2.86-2.58.19.19,0,0,0-.11-.15l-1.93-.68a.14.14,0,0,0-.17,0h0a2.81,2.81,0,0,1-.62.52l0,0-.18.1a2.67,2.67,0,0,1-1,.27,2.63,2.63,0,0,1-2-.72.21.21,0,0,0-.19,0l-1.84.88a.16.16,0,0,0-.09.16,2.67,2.67,0,0,1-2.58,2.87c-.05,0-.11,0-.15.11l-.47,1.33h0l-.21.6a.19.19,0,0,0,0,.18A2.71,2.71,0,0,1,346,344.83Zm4.18-3.26,0,0,.19-.15a.69.69,0,0,1,.13-.11l.06,0a4,4,0,1,1,4,6.82l-.32.13h0a4,4,0,0,1-4-6.64Z" style="fill:#3a5c84"/><path d="M305.48,437.8v7.07h-5.54V423.53h8.84a7.33,7.33,0,0,1,5.4,1.92,6.59,6.59,0,0,1,2,5.18,6.94,6.94,0,0,1-1.89,5.31A7.07,7.07,0,0,1,309,437.8Zm0-4.48h1.86a3.59,3.59,0,0,0,2.33-.67,2.46,2.46,0,0,0,.71-1.95,2.6,2.6,0,0,0-.64-1.92,3.27,3.27,0,0,0-2.37-.77h-1.89Z"/><path d="M318.63,430.57h5.12v2.34a4.6,4.6,0,0,1,2-2,5.64,5.64,0,0,1,2.65-.58c.13,0,.36,0,1,.07v4.83a4.52,4.52,0,0,0-2.21-.51,3.39,3.39,0,0,0-2.34.77,4.33,4.33,0,0,0-1.15,3.26v6.11h-5.12Z"/><path d="M345.48,443a9.79,9.79,0,0,1-12.77,0,7.16,7.16,0,0,1-2.21-5.28,7.07,7.07,0,0,1,2.21-5.24,8.92,8.92,0,0,1,6.37-2.37,9,9,0,0,1,6.4,2.37,7,7,0,0,1,2.21,5.24A7.12,7.12,0,0,1,345.48,443Zm-8.67-7.61a3.25,3.25,0,1,0,4.57,4.61,3.17,3.17,0,0,0,1-2.28,3.49,3.49,0,0,0-1-2.33,3.27,3.27,0,0,0-4.57,0Z"/><path d="M361.45,444.55a7.64,7.64,0,0,1-3.55.8,7.93,7.93,0,0,1-5.64-2.17,7.53,7.53,0,0,1-2.2-5.35,7.78,7.78,0,0,1,2.3-5.53,8.25,8.25,0,0,1,5.76-2.18,7.34,7.34,0,0,1,3.33.8v4.29a4.57,4.57,0,0,0-2.66-.93,3.35,3.35,0,0,0-2.49,1,3.48,3.48,0,0,0-1,2.47,3.68,3.68,0,0,0,.9,2.4,3.47,3.47,0,0,0,2.62,1.08,3.88,3.88,0,0,0,2.63-1Z"/><path d="M379.53,438.66H368.87a3.59,3.59,0,0,0,.9,2.4,2.87,2.87,0,0,0,2.11.71,3.93,3.93,0,0,0,1.66-.39,2.34,2.34,0,0,0,.9-1h4.89a6.46,6.46,0,0,1-1.72,2.95c-1.06,1-2.72,2-5.83,2a8.12,8.12,0,0,1-5.92-2.17,7.53,7.53,0,0,1-2.11-5.41,7.65,7.65,0,0,1,2.15-5.54,8,8,0,0,1,5.85-2.08,7.86,7.86,0,0,1,5.51,2,8,8,0,0,1,2.27,6Zm-4.71-2.94a3.46,3.46,0,0,0-.83-1.54,3,3,0,0,0-2.11-.76,2.76,2.76,0,0,0-2.08.76,3,3,0,0,0-.77,1.54Z"/><path d="M383.4,440.14a7.37,7.37,0,0,0,2.05,1.05,6.47,6.47,0,0,0,2,.35,2.14,2.14,0,0,0,1.31-.38.8.8,0,0,0,.26-.67.74.74,0,0,0-.26-.64,3.06,3.06,0,0,0-1.34-.51l-1.34-.32a4.62,4.62,0,0,1-2.5-1.25,3.5,3.5,0,0,1-.93-2.47,5.1,5.1,0,0,1,1.35-3.48,7.2,7.2,0,0,1,5.12-1.73,11.8,11.8,0,0,1,4.57.93l-1.73,3.26a7.06,7.06,0,0,0-2.68-.7,2.1,2.1,0,0,0-1.19.29.75.75,0,0,0-.45.7.84.84,0,0,0,.61.8c.48.19.9.19,1.7.42l.93.25a6.16,6.16,0,0,1,2.11,1.12,4.06,4.06,0,0,1,1.09,2.85,4.78,4.78,0,0,1-1.44,3.55,7.47,7.47,0,0,1-5.28,1.79,10.57,10.57,0,0,1-5.76-1.66Z"/><rect x="269" y="303.5" width="156" height="166" rx="12" ry="12" style="fill:none;stroke:#3a5c84;stroke-miterlimit:10;stroke-width:7px"/><rect x="579.4" y="113.56" width="38.24" height="9.23" style="fill:none;stroke:#eb6a38;stroke-miterlimit:10;stroke-width:7px"/><rect x="473.92" y="113.56" width="94.27" height="9.23" style="fill:none;stroke:#eb6a38;stroke-miterlimit:10;stroke-width:7px"/><rect x="597.37" y="138.91" width="15.16" height="24.46" rx="3.02" ry="3.02" style="fill:none;stroke:#eb6a38;stroke-miterlimit:10;stroke-width:7px"/><rect x="566.55" y="138.91" width="15.16" height="24.46" rx="4.38" ry="4.38" style="fill:none;stroke:#eb6a38;stroke-miterlimit:10;stroke-width:7px"/><rect x="538.36" y="138.91" width="15.16" height="24.46" rx="4.38" ry="4.38" style="fill:none;stroke:#eb6a38;stroke-miterlimit:10;stroke-width:7px"/><rect x="510.18" y="138.91" width="15.16" height="24.46" rx="4.38" ry="4.38" style="fill:none;stroke:#eb6a38;stroke-miterlimit:10;stroke-width:7px"/><rect x="482" y="138.91" width="15.16" height="24.46" rx="4.38" ry="4.38" style="fill:none;stroke:#eb6a38;stroke-miterlimit:10;stroke-width:7px"/><rect x="465.18" y="123.78" width="164.81" height="55.38" rx="12" ry="12" style="fill:none;stroke:#eb6a38;stroke-miterlimit:10;stroke-width:7px"/><circle cx="564.47" cy="716.36" r="47" style="fill:none;stroke:#3a5c84;stroke-miterlimit:10;stroke-width:7px"/><circle cx="564.47" cy="716.36" r="11" style="fill:none;stroke:#3a5c84;stroke-miterlimit:10;stroke-width:7px"/><rect x="330.42" y="657.86" width="100" height="117" rx="12" ry="12" style="fill:none;stroke:#3a5c84;stroke-miterlimit:10;stroke-width:7px"/><circle cx="341.42" cy="668.86" r="4" style="fill:none;stroke:#3a5c84;stroke-miterlimit:10;stroke-width:2px"/><circle cx="419.42" cy="668.86" r="4" style="fill:none;stroke:#3a5c84;stroke-miterlimit:10;stroke-width:2px"/><circle cx="419.42" cy="763.86" r="4" style="fill:none;stroke:#3a5c84;stroke-miterlimit:10;stroke-width:2px"/><circle cx="341.42" cy="763.86" r="4" style="fill:none;stroke:#3a5c84;stroke-miterlimit:10;stroke-width:2px"/><circle cx="380.42" cy="707.09" r="28" style="fill:none;stroke:#3a5c84;stroke-miterlimit:10;stroke-width:7px"/><circle cx="380.42" cy="707.09" r="4" style="fill:none;stroke:#3a5c84;stroke-miterlimit:10;stroke-width:2px"/><circle cx="377.42" cy="730.59" r="13" style="fill:#fff"/><path d="M380.46,724.76,362.07,737.7a7.92,7.92,0,0,0-4.59,2.26,8,8,0,1,0,13.57,6.8L384.7,729a3,3,0,0,0-4.24-4.24Z" style="fill:none;stroke:#3a5c84;stroke-miterlimit:10;stroke-width:7px"/><line x1="367.92" y1="766.36" x2="392.92" y2="766.36" style="fill:none;stroke:#3a5c84;stroke-miterlimit:10;stroke-width:7px"/><rect x="43" y="625.36" width="608" height="268.64" rx="12" ry="12" style="fill:none;stroke:#c13018;stroke-miterlimit:10;stroke-width:8.50454147990798px"/><path d="M391.26,537.86v20h-5.19v-20Z"/><path d="M407.79,536h3.93l-15.36,27.51h-3.9Z"/><path d="M433.65,555.35a12,12,0,0,1-15.78,0,10.47,10.47,0,0,1,0-15,12,12,0,0,1,15.78,0,10.47,10.47,0,0,1,0,15ZM421.71,544a5.49,5.49,0,0,0-1.59,3.93,5.09,5.09,0,0,0,1.59,3.72,5.68,5.68,0,0,0,4.05,1.59,5.44,5.44,0,0,0,5.64-5.4,5.4,5.4,0,0,0-1.62-3.84,6,6,0,0,0-4-1.59A5.76,5.76,0,0,0,421.71,544Z"/><path d="M153.61,257.94h-6.18v3.33h5.85v4.41h-5.85v3.45h6.18v4.41H142.24v-20h11.37Z"/><path d="M161.5,266.25l-5.43-6.12h6.24l2.31,2.76,2.37-2.76h6.21l-5.55,6.12,6.72,7.29H168l-3.42-4-3.42,4h-6.36Z"/><path d="M189.1,267.72h-10A3.39,3.39,0,0,0,180,270a2.7,2.7,0,0,0,2,.66,3.79,3.79,0,0,0,1.56-.36,2.23,2.23,0,0,0,.84-.9h4.59a6,6,0,0,1-1.62,2.76c-1,1-2.55,1.86-5.46,1.86a7.61,7.61,0,0,1-5.55-2,7,7,0,0,1-2-5.07,7.16,7.16,0,0,1,2-5.19,7.55,7.55,0,0,1,5.49-1.95,7.35,7.35,0,0,1,5.16,1.83,7.51,7.51,0,0,1,2.13,5.64ZM184.69,265a3.22,3.22,0,0,0-.78-1.44,2.8,2.8,0,0,0-2-.72,2.58,2.58,0,0,0-2,.72,2.74,2.74,0,0,0-.72,1.44Z"/><path d="M202,273.24a7.12,7.12,0,0,1-3.33.75,7.41,7.41,0,0,1-5.28-2,7,7,0,0,1-2.07-5,7.3,7.3,0,0,1,2.16-5.19,7.73,7.73,0,0,1,5.4-2,6.88,6.88,0,0,1,3.12.75v4a4.28,4.28,0,0,0-2.49-.87,3.15,3.15,0,0,0-2.34.93,3.26,3.26,0,0,0-.93,2.31,3.44,3.44,0,0,0,.84,2.25,3.26,3.26,0,0,0,2.46,1,3.63,3.63,0,0,0,2.46-.9Z"/><path d="M209.53,260.13v7.5a2.57,2.57,0,0,0,.72,1.95,2.48,2.48,0,0,0,1.68.51,2.24,2.24,0,0,0,1.71-.57,2.49,2.49,0,0,0,.69-1.89v-7.5h4.8v8.37a4.6,4.6,0,0,1-1.29,3.6c-1.65,1.71-4,1.89-5.79,1.89-2,0-4.47-.21-6.06-1.92a4.82,4.82,0,0,1-1.26-3.57v-8.37Z"/><path d="M227.74,264.06v9.48h-4.8v-9.48h-1.53v-3.93h1.53v-4.41h4.8v4.41h2.73v3.93Zm-4.62,11,4.5.48L224.56,281l-3-.36Z"/><path d="M234.67,251.85a2.7,2.7,0,1,1-2.7,2.7A2.69,2.69,0,0,1,234.67,251.85Zm2.4,8.28v13.41h-4.8V260.13Z"/><path d="M254.56,267.72h-10a3.39,3.39,0,0,0,.84,2.25,2.7,2.7,0,0,0,2,.66,3.79,3.79,0,0,0,1.56-.36,2.23,2.23,0,0,0,.84-.9h4.59a6,6,0,0,1-1.62,2.76c-1,1-2.55,1.86-5.46,1.86a7.61,7.61,0,0,1-5.55-2,7,7,0,0,1-2-5.07,7.16,7.16,0,0,1,2-5.19,7.55,7.55,0,0,1,5.49-1.95,7.35,7.35,0,0,1,5.16,1.83,7.51,7.51,0,0,1,2.13,5.64ZM250.15,265a3.22,3.22,0,0,0-.78-1.44,2.8,2.8,0,0,0-2-.72,2.58,2.58,0,0,0-1.95.72,2.74,2.74,0,0,0-.72,1.44Z"/><path d="M446.62,270.54v-20h6.81a11.16,11.16,0,0,1,7.95,2.76,9.77,9.77,0,0,1,2.79,7.29,9.23,9.23,0,0,1-2.61,6.93,10.87,10.87,0,0,1-7.68,3Zm5.19-4.41h1.05a6,6,0,0,0,4.38-1.44,5.45,5.45,0,0,0,1.53-4.11,6,6,0,0,0-1.56-4.38,5.83,5.83,0,0,0-4.14-1.26h-1.26Z"/><path d="M477.4,257.13h4.8v13.41h-4.8v-1.47a5,5,0,0,1-4.17,1.92,6.42,6.42,0,0,1-4.83-2.13,6.76,6.76,0,0,1-1.92-4.92,7.42,7.42,0,0,1,2.07-5.37,6.9,6.9,0,0,1,4.83-1.89,5.31,5.31,0,0,1,4,1.74Zm-5,4.5a3.14,3.14,0,0,0-1,2.19,3.09,3.09,0,0,0,.93,2.19,3.37,3.37,0,0,0,2.16.9,3.08,3.08,0,0,0,2.16-.93,2.91,2.91,0,0,0,.9-2.16,3,3,0,0,0-.93-2.19,3,3,0,0,0-4.26,0Z"/><path d="M490.81,261.06v9.48H486v-9.48h-1.53v-3.93H486v-4.41h4.8v4.41h2.73v3.93Z"/><path d="M509.56,264.72h-10a3.39,3.39,0,0,0,.84,2.25,2.7,2.7,0,0,0,2,.66,3.79,3.79,0,0,0,1.56-.36,2.23,2.23,0,0,0,.84-.9h4.59a6,6,0,0,1-1.62,2.76c-1,1-2.55,1.86-5.46,1.86a7.61,7.61,0,0,1-5.55-2,7,7,0,0,1-2-5.07,7.16,7.16,0,0,1,2-5.19,7.55,7.55,0,0,1,5.49-1.95,7.35,7.35,0,0,1,5.16,1.83,7.51,7.51,0,0,1,2.13,5.64ZM505.15,262a3.22,3.22,0,0,0-.78-1.44,2.8,2.8,0,0,0-2-.72,2.58,2.58,0,0,0-1.95.72,2.74,2.74,0,0,0-.72,1.44Z"/><path d="M521.21,809.6a12.36,12.36,0,0,1-4.5,1,10.88,10.88,0,0,1-7.74-3,10.5,10.5,0,0,1-3-7.29,10.5,10.5,0,0,1,10.59-10.5,12.4,12.4,0,0,1,4.68,1V797a5.57,5.57,0,0,0-4.53-2.19,5.07,5.07,0,0,0-3.6,1.32,5.59,5.59,0,0,0-1.74,4.11,5.52,5.52,0,0,0,1.62,3.9,5.59,5.59,0,0,0,3.72,1.38,5.87,5.87,0,0,0,4.53-2.1Z"/><path d="M524.51,810.14v-20h6.81a11.16,11.16,0,0,1,7.95,2.76,9.77,9.77,0,0,1,2.79,7.29,9.23,9.23,0,0,1-2.61,6.93,10.87,10.87,0,0,1-7.68,3Zm5.19-4.41h1a6,6,0,0,0,4.38-1.44,5.45,5.45,0,0,0,1.53-4.11,6,6,0,0,0-1.56-4.38,5.83,5.83,0,0,0-4.14-1.26H529.7Z"/><path d="M544.76,800.09h7.59v4h-7.59Z"/><path d="M564.05,790.13a6.47,6.47,0,0,1,4.89,1.77,6.59,6.59,0,0,1,1.71,4.5,5.77,5.77,0,0,1-1.59,4.17A5.61,5.61,0,0,1,566.3,802l6.27,8.19h-6.45l-5-7.68v7.68H556v-20Zm-2.91,9h1a3.9,3.9,0,0,0,2.52-.81,2.49,2.49,0,0,0,.66-1.68,2.36,2.36,0,0,0-.69-1.68,3.52,3.52,0,0,0-2.49-.78h-1Z"/><path d="M592.79,807.62a12,12,0,0,1-15.78,0,10.47,10.47,0,0,1,0-15,12,12,0,0,1,15.78,0,10.47,10.47,0,0,1,0,15Zm-11.94-11.31a5.49,5.49,0,0,0-1.59,3.93,5.09,5.09,0,0,0,1.59,3.72,5.68,5.68,0,0,0,4,1.59,5.44,5.44,0,0,0,5.64-5.4,5.4,5.4,0,0,0-1.62-3.84,6,6,0,0,0-4-1.59A5.76,5.76,0,0,0,580.85,796.31Z"/><path d="M598,810.14l3.39-20h5.13l4,10.68,4.29-10.68H620l3,20h-5.19l-1.47-11.52-4.83,11.52h-2.07l-4.62-11.52-1.71,11.52Z"/><path d="M355.35,797.6h7.5v-7.47h5.22v20h-5.22V802h-7.5v8.1h-5.19v-20h5.19Z"/><path d="M372.27,810.14v-20h6.81a11.16,11.16,0,0,1,7.95,2.76,9.77,9.77,0,0,1,2.79,7.29,9.23,9.23,0,0,1-2.61,6.93,10.87,10.87,0,0,1-7.68,3Zm5.19-4.41h1.05a6,6,0,0,0,4.38-1.44,5.45,5.45,0,0,0,1.53-4.11,6,6,0,0,0-1.56-4.38,5.83,5.83,0,0,0-4.14-1.26h-1.26Z"/><path d="M393.12,810.14v-20h6.81a11.16,11.16,0,0,1,7.95,2.76,9.77,9.77,0,0,1,2.79,7.29,9.23,9.23,0,0,1-2.61,6.93,10.87,10.87,0,0,1-7.68,3Zm5.19-4.41h1.05a6,6,0,0,0,4.38-1.44,5.45,5.45,0,0,0,1.53-4.11,6,6,0,0,0-1.56-4.38,5.83,5.83,0,0,0-4.14-1.26h-1.26Z"/><path d="M78.54,827.69v6.63H73.35v-20h8.28a6.87,6.87,0,0,1,5.06,1.8A6.18,6.18,0,0,1,88.56,821a6.48,6.48,0,0,1-1.78,5,6.64,6.64,0,0,1-5,1.74Zm0-4.2h1.73a3.41,3.41,0,0,0,2.2-.63,2.29,2.29,0,0,0,.66-1.83,2.44,2.44,0,0,0-.61-1.8,3,3,0,0,0-2.21-.72H78.54Z"/><path d="M95.67,812.45v21.87h-4.8V812.45Z"/><path d="M109.31,820.91h4.8v13.41h-4.8v-1.47a5,5,0,0,1-4.16,1.92,6.42,6.42,0,0,1-4.83-2.13,6.76,6.76,0,0,1-1.92-4.92,7.42,7.42,0,0,1,2.07-5.37,6.88,6.88,0,0,1,4.83-1.89,5.26,5.26,0,0,1,4,1.74Zm-5,4.5a3.18,3.18,0,0,0-1,2.19,3.1,3.1,0,0,0,.94,2.19,3.37,3.37,0,0,0,2.16.9,3,3,0,0,0,2.15-.93,2.91,2.91,0,0,0,.91-2.16,3,3,0,0,0-.93-2.19,3.05,3.05,0,0,0-4.27,0Z"/><path d="M127.55,834a7.08,7.08,0,0,1-3.32.75,7.41,7.41,0,0,1-5.29-2,7.05,7.05,0,0,1-2.06-5,7.34,7.34,0,0,1,2.15-5.19,7.76,7.76,0,0,1,5.41-2,6.87,6.87,0,0,1,3.11.75v4a4.28,4.28,0,0,0-2.49-.87,3.12,3.12,0,0,0-2.33.93,3.23,3.23,0,0,0-.94,2.31,3.4,3.4,0,0,0,.85,2.25,3.22,3.22,0,0,0,2.46,1,3.61,3.61,0,0,0,2.45-.9Z"/><path d="M140.66,820.91h4.8v13.41h-4.8v-1.47a5,5,0,0,1-4.17,1.92,6.42,6.42,0,0,1-4.83-2.13,6.76,6.76,0,0,1-1.92-4.92,7.42,7.42,0,0,1,2.07-5.37,6.9,6.9,0,0,1,4.83-1.89,5.31,5.31,0,0,1,4,1.74Zm2.64-6.9a4.73,4.73,0,0,1-1.32,3.27,6.31,6.31,0,0,1-7.8,0,4.73,4.73,0,0,1-1.32-3.27H136a2.08,2.08,0,0,0,.6,1.23,2.44,2.44,0,0,0,3.06,0,2.08,2.08,0,0,0,.6-1.23Zm-7.68,11.4a3.14,3.14,0,0,0-1,2.19,3.09,3.09,0,0,0,.93,2.19,3.37,3.37,0,0,0,2.16.9,3.08,3.08,0,0,0,2.16-.93,2.91,2.91,0,0,0,.9-2.16,3,3,0,0,0-.93-2.19,3,3,0,0,0-4.26,0Z"/><path d="M170.93,834.32h-4.8v-1.47a4.92,4.92,0,0,1-4,1.92,6.42,6.42,0,0,1-4.71-1.86,7.4,7.4,0,0,1-2.16-5.34,7.31,7.31,0,0,1,2.19-5.31,6.86,6.86,0,0,1,4.74-1.8,5.31,5.31,0,0,1,4,1.74v-9.75h4.8Zm-5.67-4.44a3.22,3.22,0,0,0,1-2.28,3.51,3.51,0,0,0-.9-2.16,3.08,3.08,0,0,0-4.32,0,3.29,3.29,0,0,0-.93,2.28,3,3,0,0,0,.93,2.1,3,3,0,0,0,2.13.9A3.28,3.28,0,0,0,165.26,829.88Z"/><path d="M188.45,828.5h-10a3.39,3.39,0,0,0,.84,2.25,2.7,2.7,0,0,0,2,.66,3.79,3.79,0,0,0,1.56-.36,2.23,2.23,0,0,0,.84-.9h4.59a6,6,0,0,1-1.62,2.76c-1,1-2.55,1.86-5.46,1.86a7.61,7.61,0,0,1-5.55-2,7,7,0,0,1-2-5.07,7.16,7.16,0,0,1,2-5.19,7.55,7.55,0,0,1,5.49-2,7.35,7.35,0,0,1,5.16,1.83,7.51,7.51,0,0,1,2.13,5.64ZM184,825.74a3.22,3.22,0,0,0-.78-1.44,2.8,2.8,0,0,0-2-.72,2.58,2.58,0,0,0-1.95.72,2.74,2.74,0,0,0-.72,1.44Z"/><path d="M198.2,820.91H203v2.19a4.33,4.33,0,0,1,1.89-1.86,5.24,5.24,0,0,1,2.49-.54l1,.06v4.53a4.23,4.23,0,0,0-2.07-.48,3.14,3.14,0,0,0-2.19.72,4,4,0,0,0-1.08,3.06v5.73h-4.8Z"/><path d="M224.69,828.5h-10a3.39,3.39,0,0,0,.84,2.25,2.7,2.7,0,0,0,2,.66,3.79,3.79,0,0,0,1.56-.36,2.23,2.23,0,0,0,.84-.9h4.59a6,6,0,0,1-1.62,2.76c-1,1-2.55,1.86-5.46,1.86a7.61,7.61,0,0,1-5.55-2,7,7,0,0,1-2-5.07,7.16,7.16,0,0,1,2-5.19,7.55,7.55,0,0,1,5.49-2,7.35,7.35,0,0,1,5.16,1.83,7.51,7.51,0,0,1,2.13,5.64Zm-4.41-2.76a3.22,3.22,0,0,0-.78-1.44,2.8,2.8,0,0,0-2-.72,2.58,2.58,0,0,0-2,.72,2.74,2.74,0,0,0-.72,1.44Z"/><path d="M232.76,824.84v9.48H228v-9.48h-1.53v-3.93H228V816.5h4.8v4.41h2.73v3.93Zm-4.62,11,4.5.48-3.06,5.52-3-.36Z"/><path d="M251.51,828.5h-10a3.39,3.39,0,0,0,.84,2.25,2.7,2.7,0,0,0,2,.66,3.79,3.79,0,0,0,1.56-.36,2.23,2.23,0,0,0,.84-.9h4.59a6,6,0,0,1-1.62,2.76c-1,1-2.55,1.86-5.46,1.86a7.61,7.61,0,0,1-5.55-2,7,7,0,0,1-2-5.07,7.16,7.16,0,0,1,2-5.19,7.55,7.55,0,0,1,5.49-2,7.35,7.35,0,0,1,5.16,1.83,7.51,7.51,0,0,1,2.13,5.64Zm-4.41-2.76a3.22,3.22,0,0,0-.78-1.44,2.8,2.8,0,0,0-2-.72,2.58,2.58,0,0,0-2,.72,2.74,2.74,0,0,0-.72,1.44Z"/><path d="M264.65,820.91h4.8v13.41h-4.8v-1.47a5,5,0,0,1-4.17,1.92,6.42,6.42,0,0,1-4.83-2.13,6.76,6.76,0,0,1-1.92-4.92,7.42,7.42,0,0,1,2.07-5.37,6.9,6.9,0,0,1,4.83-1.89,5.31,5.31,0,0,1,4,1.74Zm-5,4.5a3.14,3.14,0,0,0-1,2.19,3.09,3.09,0,0,0,.93,2.19,3.37,3.37,0,0,0,2.16.9,3.08,3.08,0,0,0,2.16-.93,2.91,2.91,0,0,0,.9-2.16,3,3,0,0,0-.93-2.19,3,3,0,0,0-4.26,0Z"/><rect x="289.5" y="636.5" width="350" height="246" rx="12" ry="12" style="fill:none;stroke:#4fc2c9;stroke-miterlimit:10;stroke-width:7px"/><path d="M414.93,860.87a7,7,0,0,0,4.59,2,2.63,2.63,0,0,0,2-.69A1.79,1.79,0,0,0,422,861a1.56,1.56,0,0,0-.57-1.2,7.21,7.21,0,0,0-2.58-1l-1.35-.42a6.54,6.54,0,0,1-2.88-1.62,5,5,0,0,1-1.14-3.54,6.54,6.54,0,0,1,1.83-4.83,7.05,7.05,0,0,1,5.13-1.89,14.06,14.06,0,0,1,6.18,1.62l-2.07,4.05a5.28,5.28,0,0,0-3.42-1.35,2.49,2.49,0,0,0-1.71.6,1.48,1.48,0,0,0-.51,1.08,1.34,1.34,0,0,0,.27.9,3.28,3.28,0,0,0,1.74.9l1.59.48a7.64,7.64,0,0,1,3.63,2,4.72,4.72,0,0,1,1.29,3.57,6.78,6.78,0,0,1-1.89,5,7.76,7.76,0,0,1-5.91,2,10.7,10.7,0,0,1-3.93-.66,14,14,0,0,1-3-1.59Z"/><path d="M435.6,857.39v9.48h-4.8v-9.48h-1.53v-3.93h1.53v-4.41h4.8v4.41h2.73v3.93Z"/><path d="M453.63,865.1a9.18,9.18,0,0,1-12,0,6.92,6.92,0,0,1,0-9.87,8.37,8.37,0,0,1,6-2.22,8.47,8.47,0,0,1,6,2.22,6.92,6.92,0,0,1,0,9.87ZM445.5,858a3.06,3.06,0,0,0,2.16,5.22,3.05,3.05,0,0,0,2.13-.9,3,3,0,0,0,.93-2.13,3.26,3.26,0,0,0-.93-2.19,3.08,3.08,0,0,0-4.29,0Z"/><path d="M468.6,866.57a7.12,7.12,0,0,1-3.33.75,7.41,7.41,0,0,1-5.28-2,7,7,0,0,1-2.07-5,7.3,7.3,0,0,1,2.16-5.19,7.73,7.73,0,0,1,5.4-2,6.88,6.88,0,0,1,3.12.75v4a4.28,4.28,0,0,0-2.49-.87,3.15,3.15,0,0,0-2.34.93,3.26,3.26,0,0,0-.93,2.31,3.44,3.44,0,0,0,.84,2.25,3.26,3.26,0,0,0,2.46,1,3.63,3.63,0,0,0,2.46-.9Z"/><path d="M481.7,853.46h4.8v13.41h-4.8V865.4a5,5,0,0,1-4.17,1.92,6.4,6.4,0,0,1-4.82-2.13,6.76,6.76,0,0,1-1.92-4.92,7.42,7.42,0,0,1,2.06-5.37,6.93,6.93,0,0,1,4.84-1.89,5.26,5.26,0,0,1,4,1.74Zm-5,4.5a3.18,3.18,0,0,0-1,2.19,3.06,3.06,0,0,0,.94,2.19,3.35,3.35,0,0,0,2.16.9,3.07,3.07,0,0,0,2.15-.93,2.91,2.91,0,0,0,.9-2.16,3,3,0,0,0-.92-2.19,3.05,3.05,0,0,0-4.27,0Z"/><path d="M489.81,853.46h4.79v2.19a4.33,4.33,0,0,1,1.89-1.86,5.24,5.24,0,0,1,2.49-.54l1,.06v4.53a4.23,4.23,0,0,0-2.07-.48,3.14,3.14,0,0,0-2.19.72,4,4,0,0,0-1.08,3.06v5.73h-4.79Z"/><path d="M516.29,861.05h-10a3.39,3.39,0,0,0,.84,2.25,2.7,2.7,0,0,0,2,.66,3.79,3.79,0,0,0,1.56-.36,2.23,2.23,0,0,0,.84-.9h4.59a6,6,0,0,1-1.62,2.76c-1,1-2.55,1.86-5.46,1.86a7.61,7.61,0,0,1-5.55-2,7,7,0,0,1-2-5.07,7.16,7.16,0,0,1,2-5.19,7.55,7.55,0,0,1,5.49-1.95,7.35,7.35,0,0,1,5.16,1.83,7.51,7.51,0,0,1,2.13,5.64Zm-4.41-2.76a3.22,3.22,0,0,0-.78-1.44,2.8,2.8,0,0,0-2-.72,2.58,2.58,0,0,0-1.95.72,2.74,2.74,0,0,0-.72,1.44Z"/></svg>