<svg id="Layer_1" data-name="Layer 1" xmlns="http://www.w3.org/2000/svg" viewBox="0 0 826 456"><title>Cap 4 -</title><line x1="462.5" y1="228" x2="276" y2="228" style="fill:none;stroke:#eb6a38;stroke-miterlimit:10;stroke-width:7px"/><line x1="462.5" y1="397.5" x2="463.5" y2="58.5" style="fill:none;stroke:#eb6a38;stroke-miterlimit:10;stroke-width:7px"/><line x1="460.5" y1="62" x2="513.5" y2="62" style="fill:none;stroke:#eb6a38;stroke-miterlimit:10;stroke-width:7px"/><line x1="460.5" y1="165" x2="513.5" y2="165" style="fill:none;stroke:#eb6a38;stroke-miterlimit:10;stroke-width:7px"/><line x1="460.5" y1="394" x2="513.5" y2="394" style="fill:none;stroke:#eb6a38;stroke-miterlimit:10;stroke-width:7px"/><rect x="32.08" y="141.5" width="245.23" height="173" rx="12" ry="12" style="fill:none;stroke:#eb6a38;stroke-miterlimit:10;stroke-width:7px"/><rect x="546.38" y="127.74" width="104.21" height="73.51" rx="12" ry="12" style="fill:none;stroke:#3a5c84;stroke-miterlimit:10;stroke-width:7px"/><path d="M578.55,157.07a3.93,3.93,0,0,1-1.06,2.88.27.27,0,0,0,0,.27l1.29,2.7a.21.21,0,0,0,.24.14,3.93,3.93,0,0,1,4.2,3.79.26.26,0,0,0,.16.22l2.82,1h.05a.18.18,0,0,0,.23-.08,4.33,4.33,0,0,1,.58-.55l0,0,.29-.19a1.71,1.71,0,0,1,.23-.13l.11-.06a3.9,3.9,0,0,1,4.39.67.22.22,0,0,0,.27,0l2.7-1.29h0a.24.24,0,0,0,.14-.23,3.94,3.94,0,0,1,1-2.91,3.88,3.88,0,0,1,1.5-1l.08,0,.15-.05.25-.07h0a4.79,4.79,0,0,1,.76-.1.23.23,0,0,0,.22-.16l1-2.82a.25.25,0,0,0-.07-.26,3.91,3.91,0,0,1-.3-5.65.23.23,0,0,0,0-.27L599,151h0l-.4-.85-.07-.07h0l0,0-.1,0h0a3.93,3.93,0,0,1-4.2-3.79A.26.26,0,0,0,594,146l-2.82-1a.2.2,0,0,0-.26.07h0a4.08,4.08,0,0,1-.89.77l-.07,0c-.09.06-.18.1-.27.15a3.76,3.76,0,0,1-1.52.39,3.89,3.89,0,0,1-2.88-1,.23.23,0,0,0-.27,0l-2.7,1.29a.23.23,0,0,0-.13.23,4,4,0,0,1-1,2.91,3.92,3.92,0,0,1-2.79,1.29.22.22,0,0,0-.22.16l-.69,2h0l-.31.89a.25.25,0,0,0,.07.26A4,4,0,0,1,578.55,157.07Zm6.13-4.78,0,0A3.23,3.23,0,0,1,585,152l.19-.16a.47.47,0,0,0,.09-.06,5.81,5.81,0,1,1,5.83,10,4.89,4.89,0,0,1-.48.2h0a5.82,5.82,0,0,1-5.93-9.73Z" style="fill:#3a5c84"/><path d="M592.05,178.21a5,5,0,0,1-1.35,3.7.32.32,0,0,0-.06.35l1.66,3.47a.27.27,0,0,0,.3.18,5,5,0,0,1,3.73,1.28,5,5,0,0,1,1.67,3.58.31.31,0,0,0,.2.28l3.62,1.28h.07a.25.25,0,0,0,.29-.1,5.12,5.12,0,0,1,.76-.71l0,0,.37-.26.3-.16a.61.61,0,0,1,.14-.07,4.94,4.94,0,0,1,1.93-.51,5.1,5.1,0,0,1,3.71,1.36.26.26,0,0,0,.34,0l3.47-1.65h0a.31.31,0,0,0,.18-.29,5,5,0,0,1,3.2-5.06l.11,0,.2-.06.31-.09h0a5.15,5.15,0,0,1,1-.13.33.33,0,0,0,.28-.21l1.28-3.63a.28.28,0,0,0-.09-.33,5,5,0,0,1-.38-7.25.32.32,0,0,0,.06-.35l-1.14-2.38h0l-.52-1.09a.26.26,0,0,0-.09-.09h0l0,0a.17.17,0,0,0-.12,0h0a5,5,0,0,1-5.4-4.87.32.32,0,0,0-.21-.28l-3.62-1.28a.26.26,0,0,0-.34.09h0a4.91,4.91,0,0,1-1.16,1l-.09.05-.33.19a5.07,5.07,0,0,1-5.66-.85.29.29,0,0,0-.34-.05l-3.47,1.65a.31.31,0,0,0-.18.3,5,5,0,0,1-4.86,5.4.27.27,0,0,0-.28.21l-.89,2.51h0l-.4,1.14a.34.34,0,0,0,.09.34A5,5,0,0,1,592.05,178.21Zm7.88-6.14.05,0a3.07,3.07,0,0,1,.34-.29l.25-.21.11-.07a7.47,7.47,0,1,1,7.49,12.84,6.57,6.57,0,0,1-.61.26h0a7.47,7.47,0,0,1-7.61-12.49Z" style="fill:#3a5c84"/><path d="M597.47,144.88a2.65,2.65,0,0,1-.72,2,.15.15,0,0,0,0,.18l.88,1.85a.14.14,0,0,0,.16.09,2.62,2.62,0,0,1,2,.68,2.71,2.71,0,0,1,.89,1.9.15.15,0,0,0,.1.15l1.93.68h0a.15.15,0,0,0,.16,0,2.4,2.4,0,0,1,.4-.38h0l.19-.14.16-.08a.2.2,0,0,1,.08,0,2.53,2.53,0,0,1,1-.27,2.67,2.67,0,0,1,2,.72.13.13,0,0,0,.18,0l1.84-.88h0a.16.16,0,0,0,.1-.16,2.63,2.63,0,0,1,.68-2,2.66,2.66,0,0,1,1-.7l.06,0,.1,0,.17,0h0a4.34,4.34,0,0,1,.52-.07.17.17,0,0,0,.15-.11l.68-1.92a.18.18,0,0,0-.05-.18,2.67,2.67,0,0,1-.2-3.85.17.17,0,0,0,0-.18l-.61-1.27h0l-.27-.58s0,0,0,0h0l-.06,0h0a2.68,2.68,0,0,1-2.87-2.58.15.15,0,0,0-.11-.15l-1.92-.68a.14.14,0,0,0-.18,0h0a2.76,2.76,0,0,1-.61.52l0,0-.18.09a2.46,2.46,0,0,1-1,.27,2.65,2.65,0,0,1-2-.72.17.17,0,0,0-.18,0l-1.85.88a.16.16,0,0,0-.09.16,2.67,2.67,0,0,1-2.58,2.86c-.05,0-.11,0-.15.11l-.47,1.33h0l-.21.6a.17.17,0,0,0,0,.18A2.7,2.7,0,0,1,597.47,144.88Zm4.18-3.25,0,0,.18-.15a.69.69,0,0,1,.13-.11l.06,0a4,4,0,1,1,4,6.82,2.26,2.26,0,0,1-.33.13h0a4,4,0,0,1-4-6.63Z" style="fill:#3a5c84"/><rect x="546.38" y="25.74" width="104.21" height="73.51" rx="12" ry="12" style="fill:none;stroke:#3a5c84;stroke-miterlimit:10;stroke-width:7px"/><path d="M578.55,55.07A3.93,3.93,0,0,1,577.49,58a.27.27,0,0,0,0,.27l1.29,2.7a.21.21,0,0,0,.24.14,3.93,3.93,0,0,1,4.2,3.79.26.26,0,0,0,.16.22l2.82,1h.05a.18.18,0,0,0,.23-.08,4.33,4.33,0,0,1,.58-.55l0,0,.29-.19a1.71,1.71,0,0,1,.23-.13l.11-.06a3.9,3.9,0,0,1,4.39.67.22.22,0,0,0,.27,0l2.7-1.29h0a.24.24,0,0,0,.14-.23,3.94,3.94,0,0,1,1-2.91,3.88,3.88,0,0,1,1.5-1l.08,0,.15-.05.25-.07h0A4.79,4.79,0,0,1,599,60a.23.23,0,0,0,.22-.16l1-2.82a.25.25,0,0,0-.07-.26,3.91,3.91,0,0,1-.3-5.65.23.23,0,0,0,0-.27L599,49h0l-.4-.85-.07-.07h0l0,0-.1,0h0a3.93,3.93,0,0,1-4.2-3.79A.26.26,0,0,0,594,44l-2.82-1a.2.2,0,0,0-.26.07h0a4.08,4.08,0,0,1-.89.77l-.07,0c-.09.06-.18.1-.27.15a3.76,3.76,0,0,1-1.52.39,3.89,3.89,0,0,1-2.88-1.05.23.23,0,0,0-.27,0l-2.7,1.29a.23.23,0,0,0-.13.23,4,4,0,0,1-1,2.91,3.92,3.92,0,0,1-2.79,1.29.22.22,0,0,0-.22.16l-.69,2h0l-.31.89a.25.25,0,0,0,.07.26A4,4,0,0,1,578.55,55.07Zm6.13-4.78,0,0A3.23,3.23,0,0,1,585,50l.19-.16a.47.47,0,0,0,.09-.06,5.81,5.81,0,1,1,5.83,10,4.89,4.89,0,0,1-.48.2h0a5.82,5.82,0,0,1-5.93-9.73Z" style="fill:#3a5c84"/><path d="M592.05,76.21a5,5,0,0,1-1.35,3.7.32.32,0,0,0-.06.35l1.66,3.47a.27.27,0,0,0,.3.18,5,5,0,0,1,3.73,1.28A5,5,0,0,1,598,88.77a.31.31,0,0,0,.2.28l3.62,1.28a.16.16,0,0,0,.07,0,.25.25,0,0,0,.29-.1,5.12,5.12,0,0,1,.76-.71l0,0,.37-.26.3-.16a.61.61,0,0,1,.14-.07,4.94,4.94,0,0,1,1.93-.51,5.1,5.1,0,0,1,3.71,1.36.26.26,0,0,0,.34,0l3.47-1.65h0a.31.31,0,0,0,.18-.29,5,5,0,0,1,3.2-5.06l.11,0,.2-.06.31-.09h0a5.15,5.15,0,0,1,1-.13.33.33,0,0,0,.28-.21l1.28-3.63a.28.28,0,0,0-.09-.33,5,5,0,0,1-.38-7.25.32.32,0,0,0,.06-.35l-1.14-2.38h0l-.52-1.09a.26.26,0,0,0-.09-.09h0l0,0a.17.17,0,0,0-.12,0h0a5,5,0,0,1-5.4-4.87.32.32,0,0,0-.21-.28l-3.62-1.28a.26.26,0,0,0-.34.09h0a4.91,4.91,0,0,1-1.16,1l-.09.05-.33.19a5.07,5.07,0,0,1-5.66-.85.29.29,0,0,0-.34,0l-3.47,1.65a.31.31,0,0,0-.18.3,5,5,0,0,1-4.86,5.4.27.27,0,0,0-.28.21l-.89,2.51a0,0,0,0,1,0,0l-.4,1.14a.34.34,0,0,0,.09.34A5,5,0,0,1,592.05,76.21Zm7.88-6.14.05,0a3.07,3.07,0,0,1,.34-.29l.25-.21.11-.07a7.47,7.47,0,1,1,7.49,12.84,6.57,6.57,0,0,1-.61.26h0a7.47,7.47,0,0,1-7.61-12.49Z" style="fill:#3a5c84"/><path d="M597.47,42.88a2.65,2.65,0,0,1-.72,2,.15.15,0,0,0,0,.18l.88,1.85a.14.14,0,0,0,.16.09,2.62,2.62,0,0,1,2,.68,2.71,2.71,0,0,1,.89,1.9.15.15,0,0,0,.1.15l1.93.68h0a.15.15,0,0,0,.16-.05,2.4,2.4,0,0,1,.4-.38s0,0,0,0l.19-.14.16-.08a.2.2,0,0,1,.08,0,2.53,2.53,0,0,1,1-.27,2.67,2.67,0,0,1,2,.72.13.13,0,0,0,.18,0l1.84-.88h0a.16.16,0,0,0,.1-.16,2.63,2.63,0,0,1,.68-2,2.66,2.66,0,0,1,1-.7l.06,0,.1,0,.17-.05h0a4.34,4.34,0,0,1,.52-.07.17.17,0,0,0,.15-.11l.68-1.92a.18.18,0,0,0-.05-.18,2.67,2.67,0,0,1-.2-3.85.17.17,0,0,0,0-.18l-.61-1.27h0l-.27-.58,0,0h0l-.06,0h0a2.68,2.68,0,0,1-2.87-2.58.15.15,0,0,0-.11-.15l-1.92-.68a.14.14,0,0,0-.18,0h0a2.76,2.76,0,0,1-.61.52l0,0-.18.09a2.46,2.46,0,0,1-1,.27,2.65,2.65,0,0,1-2-.72.17.17,0,0,0-.18,0l-1.85.88a.16.16,0,0,0-.09.16,2.67,2.67,0,0,1-2.58,2.86c-.05,0-.11,0-.15.11l-.47,1.33h0l-.21.6a.17.17,0,0,0,0,.18A2.7,2.7,0,0,1,597.47,42.88Zm4.18-3.25,0,0,.18-.15a.69.69,0,0,1,.13-.11l.06,0a4,4,0,1,1,4,6.82,2.26,2.26,0,0,1-.33.13h0a4,4,0,0,1-4-6.63Z" style="fill:#3a5c84"/><rect x="546.38" y="357.74" width="104.21" height="73.51" rx="12" ry="12" style="fill:none;stroke:#3a5c84;stroke-miterlimit:10;stroke-width:7px"/><path d="M578.55,387.07a3.93,3.93,0,0,1-1.06,2.88.27.27,0,0,0,0,.27l1.29,2.7a.21.21,0,0,0,.24.14,3.93,3.93,0,0,1,4.2,3.79.26.26,0,0,0,.16.22l2.82,1h.05a.18.18,0,0,0,.23-.08,4.33,4.33,0,0,1,.58-.55l0,0,.29-.19a1.71,1.71,0,0,1,.23-.13l.11-.06a3.9,3.9,0,0,1,4.39.67.22.22,0,0,0,.27,0l2.7-1.29h0a.24.24,0,0,0,.14-.23,3.94,3.94,0,0,1,1-2.91,3.88,3.88,0,0,1,1.5-1l.08,0,.15-.05.25-.07h0a4.79,4.79,0,0,1,.76-.1.23.23,0,0,0,.22-.16l1-2.82a.25.25,0,0,0-.07-.26,3.91,3.91,0,0,1-.3-5.65.23.23,0,0,0,0-.27L599,381h0l-.4-.85-.07-.07h0l0,0-.1,0h0a3.93,3.93,0,0,1-4.2-3.79A.26.26,0,0,0,594,376l-2.82-1a.2.2,0,0,0-.26.07h0a4.08,4.08,0,0,1-.89.77l-.07,0c-.09.06-.18.1-.27.15a3.76,3.76,0,0,1-1.52.39,3.89,3.89,0,0,1-2.88-1.05.23.23,0,0,0-.27,0l-2.7,1.29a.23.23,0,0,0-.13.23,4,4,0,0,1-1,2.91,3.92,3.92,0,0,1-2.79,1.29.22.22,0,0,0-.22.16l-.69,2h0l-.31.89a.25.25,0,0,0,.07.26A4,4,0,0,1,578.55,387.07Zm6.13-4.78,0,0A3.23,3.23,0,0,1,585,382l.19-.16.09-.06a5.81,5.81,0,1,1,5.83,10,4.89,4.89,0,0,1-.48.2h0a5.82,5.82,0,0,1-5.93-9.73Z" style="fill:#3a5c84"/><path d="M592.05,408.21a5,5,0,0,1-1.35,3.7.32.32,0,0,0-.06.35l1.66,3.47a.27.27,0,0,0,.3.18,5,5,0,0,1,3.73,1.28,5,5,0,0,1,1.67,3.58.31.31,0,0,0,.2.28l3.62,1.28h.07a.25.25,0,0,0,.29-.1,5.12,5.12,0,0,1,.76-.71l0,0,.37-.26.3-.16.14-.07a4.94,4.94,0,0,1,1.93-.51,5.1,5.1,0,0,1,3.71,1.36.26.26,0,0,0,.34.05l3.47-1.65h0a.31.31,0,0,0,.18-.29,5,5,0,0,1,3.2-5.06l.11,0,.2-.06.31-.09h0a5.15,5.15,0,0,1,1-.13.33.33,0,0,0,.28-.21l1.28-3.63a.28.28,0,0,0-.09-.33,5,5,0,0,1-.38-7.25.32.32,0,0,0,.06-.35l-1.14-2.38h0l-.52-1.09a.26.26,0,0,0-.09-.09h0l0,0a.17.17,0,0,0-.12,0h0a5,5,0,0,1-5.4-4.87.32.32,0,0,0-.21-.28l-3.62-1.28a.26.26,0,0,0-.34.09h0a4.91,4.91,0,0,1-1.16,1l-.09,0-.33.19a5.07,5.07,0,0,1-5.66-.85.29.29,0,0,0-.34-.05l-3.47,1.65a.31.31,0,0,0-.18.3,5,5,0,0,1-4.86,5.4.27.27,0,0,0-.28.21l-.89,2.51h0l-.4,1.14a.34.34,0,0,0,.09.34A5,5,0,0,1,592.05,408.21Zm7.88-6.14.05,0a3.07,3.07,0,0,1,.34-.29l.25-.21.11-.07a7.47,7.47,0,1,1,7.49,12.84,6.57,6.57,0,0,1-.61.26h0a7.47,7.47,0,0,1-7.61-12.49Z" style="fill:#3a5c84"/><path d="M597.47,374.88a2.65,2.65,0,0,1-.72,2,.15.15,0,0,0,0,.18l.88,1.85a.14.14,0,0,0,.16.09,2.62,2.62,0,0,1,2,.68,2.71,2.71,0,0,1,.89,1.9.15.15,0,0,0,.1.15l1.93.68h0a.15.15,0,0,0,.16-.05,2.4,2.4,0,0,1,.4-.38h0l.19-.14.16-.08a.2.2,0,0,1,.08,0,2.53,2.53,0,0,1,1-.27,2.67,2.67,0,0,1,2,.72.13.13,0,0,0,.18,0l1.84-.88h0a.16.16,0,0,0,.1-.16,2.63,2.63,0,0,1,.68-2,2.66,2.66,0,0,1,1-.7l.06,0,.1,0,.17-.05h0a4.34,4.34,0,0,1,.52-.07.17.17,0,0,0,.15-.11l.68-1.92a.18.18,0,0,0-.05-.18,2.67,2.67,0,0,1-.2-3.85.17.17,0,0,0,0-.18l-.61-1.27h0l-.27-.58s0,0,0-.05h0l-.06,0h0a2.68,2.68,0,0,1-2.87-2.58.15.15,0,0,0-.11-.15l-1.92-.68a.14.14,0,0,0-.18,0h0a2.76,2.76,0,0,1-.61.52l0,0-.18.09a2.46,2.46,0,0,1-1,.27,2.65,2.65,0,0,1-2-.72.17.17,0,0,0-.18,0l-1.85.88a.16.16,0,0,0-.09.16,2.67,2.67,0,0,1-2.58,2.86c-.05,0-.11,0-.15.11l-.47,1.33h0l-.21.6a.17.17,0,0,0,0,.18A2.7,2.7,0,0,1,597.47,374.88Zm4.18-3.25,0,0,.18-.15a.69.69,0,0,1,.13-.11l.06,0a4,4,0,1,1,4,6.82,2.26,2.26,0,0,1-.33.13h0a4,4,0,0,1-4-6.63Z" style="fill:#3a5c84"/><path d="M165.34,227.7a3.9,3.9,0,0,1-1.06,2.89.26.26,0,0,0,0,.27l1.29,2.7a.21.21,0,0,0,.23.14,4,4,0,0,1,2.91,1,3.9,3.9,0,0,1,1.29,2.79.26.26,0,0,0,.16.22l2.82,1H173a.2.2,0,0,0,.23-.08,3.43,3.43,0,0,1,.59-.55l0,0,.29-.2a2.53,2.53,0,0,1,.23-.12.3.3,0,0,1,.11-.06,3.75,3.75,0,0,1,1.51-.39,3.9,3.9,0,0,1,2.88,1.06.22.22,0,0,0,.27,0l2.7-1.29h0a.22.22,0,0,0,.13-.23,4,4,0,0,1,1-2.91,4,4,0,0,1,1.5-1l.09,0,.15,0,.24-.08h0a3.86,3.86,0,0,1,.76-.1.26.26,0,0,0,.22-.17l1-2.82a.26.26,0,0,0-.07-.26,3.89,3.89,0,0,1-.29-5.64.26.26,0,0,0,0-.27l-.89-1.86h0l-.4-.84a.23.23,0,0,0-.07-.07h0l0,0a.1.1,0,0,0-.09,0h0a3.9,3.9,0,0,1-2.9-1,4,4,0,0,1-1.3-2.79.24.24,0,0,0-.16-.22l-2.82-1a.21.21,0,0,0-.26.07h0a3.83,3.83,0,0,1-.9.76l-.07,0-.26.15a4,4,0,0,1-1.52.39,4,4,0,0,1-2.89-1.06.24.24,0,0,0-.27,0l-2.7,1.29a.23.23,0,0,0-.13.23,4,4,0,0,1-1,2.91,3.92,3.92,0,0,1-2.79,1.29c-.07,0-.16,0-.22.16l-.69,2h0l-.32.88a.27.27,0,0,0,.07.27A3.92,3.92,0,0,1,165.34,227.7Zm6.14-4.77,0,0,.27-.23.2-.16.08,0a5.81,5.81,0,1,1,5.83,10l-.48.2h0a5.82,5.82,0,0,1-5.92-9.73Z" style="fill:#3a5c84"/><path d="M178.83,248.86a5.06,5.06,0,0,1-1.36,3.7.32.32,0,0,0-.06.35l1.66,3.47a.27.27,0,0,0,.3.18,5,5,0,0,1,3.73,1.28,5.05,5.05,0,0,1,1.66,3.58.32.32,0,0,0,.2.28l3.63,1.29h.06a.25.25,0,0,0,.29-.1,5.12,5.12,0,0,1,.76-.71l0,0,.36-.25.3-.16.14-.08a5.15,5.15,0,0,1,1.93-.5,5,5,0,0,1,3.71,1.37.27.27,0,0,0,.34.05l3.47-1.66h0a.3.3,0,0,0,.18-.3,5,5,0,0,1,1.28-3.73,5.2,5.2,0,0,1,1.93-1.32l.11,0,.19-.06.32-.09h0a5.15,5.15,0,0,1,1-.13.32.32,0,0,0,.28-.21l1.29-3.62a.32.32,0,0,0-.1-.34,5,5,0,0,1-.37-7.25.29.29,0,0,0,.05-.34l-1.13-2.39h0l-.52-1.08a.22.22,0,0,0-.09-.1h0l0,0s-.09,0-.12,0h0a5.09,5.09,0,0,1-3.73-1.28,5,5,0,0,1-1.66-3.59.33.33,0,0,0-.21-.28L195,233.38a.26.26,0,0,0-.34.08h0a4.94,4.94,0,0,1-1.15,1l-.09,0-.34.19a5.05,5.05,0,0,1-5.65-.85.32.32,0,0,0-.35-.06l-3.47,1.65a.33.33,0,0,0-.17.31,5,5,0,0,1-4.87,5.39.27.27,0,0,0-.28.21l-.89,2.5h0L177,245a.33.33,0,0,0,.09.34A5.09,5.09,0,0,1,178.83,248.86Zm7.88-6.13,0,0,.35-.29c.08-.06.16-.14.25-.2l.11-.08A7.47,7.47,0,1,1,194.94,255c-.2.09-.41.18-.61.25h0a7.47,7.47,0,0,1-7.6-12.5Z" style="fill:#3a5c84"/><path d="M184.27,215.54a2.63,2.63,0,0,1-.72,2,.19.19,0,0,0,0,.19l.88,1.84c0,.1.11.1.16.09a2.68,2.68,0,0,1,2.86,2.59.19.19,0,0,0,.11.15l1.92.68h0a.13.13,0,0,0,.15,0,2.86,2.86,0,0,1,.4-.38h0l.2-.14.16-.08.07,0a2.62,2.62,0,0,1,1-.27,2.71,2.71,0,0,1,2,.72.13.13,0,0,0,.18,0l1.84-.88h0a.16.16,0,0,0,.09-.16,2.67,2.67,0,0,1,.69-2,2.56,2.56,0,0,1,1-.7l.06,0,.1,0,.17,0h0a3,3,0,0,1,.52-.07.17.17,0,0,0,.15-.11l.68-1.92a.17.17,0,0,0-.05-.18,2.67,2.67,0,0,1-.2-3.85.15.15,0,0,0,0-.18l-.6-1.27h0l-.28-.57a.1.1,0,0,0,0-.05h0l0,0h-.09a2.67,2.67,0,0,1-2.86-2.58.15.15,0,0,0-.11-.15l-1.92-.68a.14.14,0,0,0-.18,0h0a3,3,0,0,1-.61.52l-.05,0-.18.1a2.62,2.62,0,0,1-1,.26,2.65,2.65,0,0,1-2-.72.17.17,0,0,0-.18,0l-1.85.88a.18.18,0,0,0-.09.16,2.7,2.7,0,0,1-.68,2,2.66,2.66,0,0,1-1.9.88.16.16,0,0,0-.15.11l-.47,1.34h0l-.22.6a.19.19,0,0,0,0,.19A2.66,2.66,0,0,1,184.27,215.54Zm4.19-3.26,0,0c.06-.06.12-.1.18-.15l.14-.11a.1.1,0,0,1,0,0,4,4,0,1,1,4,6.82,2.26,2.26,0,0,1-.33.13h0a4,4,0,0,1-4-6.64Z" style="fill:#3a5c84"/><path d="M161.2,291.5l-56-10a9.5,9.5,0,0,1-9.5-9.5V188a9.5,9.5,0,0,1,9.5-9.5l56-14a9.5,9.5,0,0,1,9.5,9.5V282A9.5,9.5,0,0,1,161.2,291.5Z" style="fill:#eb6a38"/><rect x="148.7" y="177" width="65" height="102" rx="7" ry="7" style="fill:none;stroke:#eb6a38;stroke-miterlimit:10;stroke-width:7px"/><path d="M103.23,237.94a3.22,3.22,0,0,1-1-2.33,3.27,3.27,0,0,1,1-2.34,3.21,3.21,0,0,1,2.33-1,3.37,3.37,0,0,1,2.37,1,3.32,3.32,0,0,1,0,4.64,3.26,3.26,0,0,1-2.34,1A3.23,3.23,0,0,1,103.23,237.94Z" style="fill:#fff"/><path d="M124.76,221.69h-6.59v3.55h6.24v4.7h-6.24v3.68h6.59v4.71H112.63V217h12.13Z" style="fill:#fff"/><path d="M134.39,226.94,127.55,217h6.84l3.17,5.53,3.3-5.53h6.81l-6.94,9.95,8.06,11.39h-6.72l-4.54-7-4.8,7H126Z" style="fill:#fff"/><path d="M163.16,221.69h-6.59v3.55h6.24v4.7h-6.24v3.68h6.59v4.71H151V217h12.13Z" style="fill:#fff"/><path d="M676.85,168.09v7.07h-5.53V153.82h8.83a7.37,7.37,0,0,1,5.41,1.92,6.62,6.62,0,0,1,2,5.18,6.94,6.94,0,0,1-1.89,5.32,7.1,7.1,0,0,1-5.31,1.85Zm0-4.48h1.86a3.59,3.59,0,0,0,2.33-.67,2.41,2.41,0,0,0,.71-1.95,2.62,2.62,0,0,0-.64-1.92,3.27,3.27,0,0,0-2.37-.77h-1.89Z"/><path d="M690,160.86h5.13v2.34a4.63,4.63,0,0,1,2-2,5.68,5.68,0,0,1,2.66-.57l1,.06v4.83a4.52,4.52,0,0,0-2.21-.51,3.35,3.35,0,0,0-2.33.77,4.29,4.29,0,0,0-1.15,3.26v6.11H690Z"/><path d="M716.85,173.28a9.82,9.82,0,0,1-12.77,0,7.17,7.17,0,0,1-2.2-5.28,7.09,7.09,0,0,1,2.2-5.25,9.79,9.79,0,0,1,12.77,0,7.05,7.05,0,0,1,2.21,5.25A7.14,7.14,0,0,1,716.85,173.28Zm-8.67-7.62a3.18,3.18,0,0,0,0,4.61,3.21,3.21,0,0,0,4.58,0,3.16,3.16,0,0,0,1-2.27,3.48,3.48,0,0,0-1-2.34,3.28,3.28,0,0,0-4.58,0Z"/><path d="M732.82,174.84a7.51,7.51,0,0,1-3.55.8,7.88,7.88,0,0,1-5.63-2.17,7.45,7.45,0,0,1-2.21-5.34,7.79,7.79,0,0,1,2.3-5.54,8.27,8.27,0,0,1,5.76-2.18,7.34,7.34,0,0,1,3.33.8v4.29a4.57,4.57,0,0,0-2.66-.93,3.35,3.35,0,0,0-2.49,1,3.48,3.48,0,0,0-1,2.47,3.65,3.65,0,0,0,.89,2.4,3.48,3.48,0,0,0,2.63,1.09,3.88,3.88,0,0,0,2.62-1Z"/><path d="M750.9,169H740.24a3.63,3.63,0,0,0,.9,2.4,2.88,2.88,0,0,0,2.11.7,4.06,4.06,0,0,0,1.67-.38,2.45,2.45,0,0,0,.89-1h4.9a6.43,6.43,0,0,1-1.73,2.94c-1.06,1-2.72,2-5.82,2a8.1,8.1,0,0,1-5.92-2.17,7.49,7.49,0,0,1-2.11-5.41,7.6,7.6,0,0,1,2.14-5.53,8,8,0,0,1,5.85-2.08,7.84,7.84,0,0,1,5.51,2,8,8,0,0,1,2.27,6Zm-4.7-3a3.39,3.39,0,0,0-.84-1.53,3,3,0,0,0-2.11-.77,2.74,2.74,0,0,0-2.08.77,2.93,2.93,0,0,0-.77,1.53Z"/><path d="M754.77,170.43a7.24,7.24,0,0,0,2.05,1,6.5,6.5,0,0,0,2,.36,2.18,2.18,0,0,0,1.32-.39.81.81,0,0,0,.25-.67.77.77,0,0,0-.25-.64,3.23,3.23,0,0,0-1.35-.51l-1.34-.32a4.62,4.62,0,0,1-2.5-1.25,3.49,3.49,0,0,1-.93-2.46,5.11,5.11,0,0,1,1.35-3.49,7.23,7.23,0,0,1,5.12-1.73,11.8,11.8,0,0,1,4.57.93l-1.72,3.26a7.11,7.11,0,0,0-2.69-.7,2.12,2.12,0,0,0-1.19.29.77.77,0,0,0-.44.7.83.83,0,0,0,.6.8c.48.19.9.19,1.7.42l.93.25a6.16,6.16,0,0,1,2.11,1.12,4.08,4.08,0,0,1,1.09,2.85,4.78,4.78,0,0,1-1.44,3.55,7.42,7.42,0,0,1-5.28,1.79A10.57,10.57,0,0,1,753,174Z"/><path d="M791.7,175.16H774.58L780,169.5a35.34,35.34,0,0,0,4.38-5.41,6,6,0,0,0,1.15-3.33,3.19,3.19,0,0,0-.64-2,2.1,2.1,0,0,0-1.57-.64,2.28,2.28,0,0,0-1.85.86,5.3,5.3,0,0,0-.77,2.63H775a8.51,8.51,0,0,1,2.37-5.92,9.18,9.18,0,0,1,12.06-.1,7.11,7.11,0,0,1,2.08,5.25c0,2.69-1.24,4.54-3.16,6.33l-3.59,3.33h7Z"/><path d="M676.85,397.85v7.07h-5.53V383.58h8.83a7.37,7.37,0,0,1,5.41,1.92,6.63,6.63,0,0,1,2,5.19,6.93,6.93,0,0,1-1.89,5.31,7.1,7.1,0,0,1-5.31,1.85Zm0-4.48h1.86a3.59,3.59,0,0,0,2.33-.67,2.41,2.41,0,0,0,.71-1.95,2.62,2.62,0,0,0-.64-1.92,3.27,3.27,0,0,0-2.37-.77h-1.89Z"/><path d="M690,390.62h5.13V393a4.63,4.63,0,0,1,2-2,5.68,5.68,0,0,1,2.66-.57l1,.06v4.83a4.52,4.52,0,0,0-2.21-.51,3.35,3.35,0,0,0-2.33.77,4.29,4.29,0,0,0-1.15,3.26v6.11H690Z"/><path d="M716.85,403a9.82,9.82,0,0,1-12.77,0,7.17,7.17,0,0,1-2.2-5.28,7.09,7.09,0,0,1,2.2-5.25,9.79,9.79,0,0,1,12.77,0,7.05,7.05,0,0,1,2.21,5.25A7.14,7.14,0,0,1,716.85,403Zm-8.67-7.62a3.18,3.18,0,0,0,0,4.61,3.21,3.21,0,0,0,4.58,0,3.16,3.16,0,0,0,1-2.27,3.48,3.48,0,0,0-1-2.34,3.28,3.28,0,0,0-4.58,0Z"/><path d="M732.82,404.6a7.51,7.51,0,0,1-3.55.8,7.88,7.88,0,0,1-5.63-2.17,7.45,7.45,0,0,1-2.21-5.34,7.79,7.79,0,0,1,2.3-5.54,8.27,8.27,0,0,1,5.76-2.18,7.34,7.34,0,0,1,3.33.8v4.29a4.57,4.57,0,0,0-2.66-.93,3.35,3.35,0,0,0-2.49,1,3.48,3.48,0,0,0-1,2.47,3.65,3.65,0,0,0,.89,2.4,3.48,3.48,0,0,0,2.63,1.09,3.88,3.88,0,0,0,2.62-1Z"/><path d="M750.9,398.72H740.24a3.61,3.61,0,0,0,.9,2.4,2.88,2.88,0,0,0,2.11.7,4.06,4.06,0,0,0,1.67-.38,2.45,2.45,0,0,0,.89-1h4.9a6.43,6.43,0,0,1-1.73,2.94c-1.06,1-2.72,2-5.82,2a8.1,8.1,0,0,1-5.92-2.17,7.49,7.49,0,0,1-2.11-5.41,7.6,7.6,0,0,1,2.14-5.53,8,8,0,0,1,5.85-2.08,7.84,7.84,0,0,1,5.51,2,8,8,0,0,1,2.27,6Zm-4.7-3a3.39,3.39,0,0,0-.84-1.53,3,3,0,0,0-2.11-.77,2.74,2.74,0,0,0-2.08.77,2.93,2.93,0,0,0-.77,1.53Z"/><path d="M754.77,400.19a7.24,7.24,0,0,0,2.05,1.05,6.5,6.5,0,0,0,2,.36,2.18,2.18,0,0,0,1.32-.39.81.81,0,0,0,.25-.67.77.77,0,0,0-.25-.64,3.23,3.23,0,0,0-1.35-.51l-1.34-.32a4.62,4.62,0,0,1-2.5-1.25,3.49,3.49,0,0,1-.93-2.46,5.11,5.11,0,0,1,1.35-3.49,7.23,7.23,0,0,1,5.12-1.73,11.8,11.8,0,0,1,4.57.93l-1.72,3.26a7.11,7.11,0,0,0-2.69-.7,2.21,2.21,0,0,0-1.19.29.77.77,0,0,0-.44.7.83.83,0,0,0,.6.8c.48.19.9.19,1.7.42l.93.25a6.16,6.16,0,0,1,2.11,1.12,4.08,4.08,0,0,1,1.09,2.85,4.78,4.78,0,0,1-1.44,3.55,7.42,7.42,0,0,1-5.28,1.79,10.57,10.57,0,0,1-5.76-1.66Z"/><path d="M775.51,390.62h5.12v1.79a5.39,5.39,0,0,1,4.54-2.11,5.75,5.75,0,0,1,4.22,1.54,4.91,4.91,0,0,1,1.35,4v9.08h-5.12v-7.23a4.1,4.1,0,0,0-.64-2.78,2.15,2.15,0,0,0-1.63-.61,2.81,2.81,0,0,0-1.89.67,3.3,3.3,0,0,0-.83,2.27v7.68h-5.12Z"/><path d="M593.61,247.45a3.25,3.25,0,0,1,0-4.67,3.23,3.23,0,0,1,2.34-1,3.35,3.35,0,0,1,2.36,1,3,3,0,0,1,.93,2.3,3.09,3.09,0,0,1-1,2.34,3.27,3.27,0,0,1-2.33,1A3.23,3.23,0,0,1,593.61,247.45Z"/><path d="M593.61,285.85a3.25,3.25,0,0,1,0-4.67,3.23,3.23,0,0,1,2.34-1,3.35,3.35,0,0,1,2.36,1,3,3,0,0,1,.93,2.3,3.09,3.09,0,0,1-1,2.34,3.27,3.27,0,0,1-2.33,1A3.23,3.23,0,0,1,593.61,285.85Z"/><path d="M593.61,324.25a3.25,3.25,0,0,1,0-4.67,3.23,3.23,0,0,1,2.34-1,3.35,3.35,0,0,1,2.36,1,3,3,0,0,1,.93,2.3,3.09,3.09,0,0,1-1,2.34,3.27,3.27,0,0,1-2.33,1A3.23,3.23,0,0,1,593.61,324.25Z"/><path d="M676.78,66.59v7.07h-5.54V52.32h8.83a7.34,7.34,0,0,1,5.41,1.92,6.62,6.62,0,0,1,2,5.18,6.93,6.93,0,0,1-1.88,5.31,7.14,7.14,0,0,1-5.32,1.86Zm0-4.48h1.85a3.68,3.68,0,0,0,2.34-.67,2.45,2.45,0,0,0,.7-1.95,2.56,2.56,0,0,0-.64-1.92,3.22,3.22,0,0,0-2.37-.77h-1.88Z"/><path d="M689.93,59.36h5.12v2.33a4.55,4.55,0,0,1,2-2,5.56,5.56,0,0,1,2.66-.58c.13,0,.35,0,1,.07V64a4.47,4.47,0,0,0-2.2-.51,3.32,3.32,0,0,0-2.34.77,4.29,4.29,0,0,0-1.15,3.26v6.11h-5.12Z"/><path d="M716.78,71.77a9.79,9.79,0,0,1-12.77,0,7.12,7.12,0,0,1-2.21-5.28A7,7,0,0,1,704,61.25a8.88,8.88,0,0,1,6.37-2.37,9.06,9.06,0,0,1,6.4,2.37,7.06,7.06,0,0,1,2.2,5.24A7.15,7.15,0,0,1,716.78,71.77Zm-8.68-7.61a3.25,3.25,0,1,0,4.58,4.6,3.14,3.14,0,0,0,1-2.27,3.45,3.45,0,0,0-1-2.33,3.5,3.5,0,0,0-2.27-.93A3.54,3.54,0,0,0,708.1,64.16Z"/><path d="M732.74,73.34a7.59,7.59,0,0,1-3.55.8A7.86,7.86,0,0,1,723.56,72a7.49,7.49,0,0,1-2.21-5.34,7.81,7.81,0,0,1,2.31-5.54,8.23,8.23,0,0,1,5.76-2.17,7.33,7.33,0,0,1,3.32.8V64a4.56,4.56,0,0,0-2.65-.93,3.36,3.36,0,0,0-2.5,1,3.48,3.48,0,0,0-1,2.46,3.66,3.66,0,0,0,.9,2.4A3.44,3.44,0,0,0,730.12,70a3.84,3.84,0,0,0,2.62-1Z"/><path d="M750.82,67.45H740.17a3.65,3.65,0,0,0,.89,2.4,2.87,2.87,0,0,0,2.11.71,4.13,4.13,0,0,0,1.67-.39,2.32,2.32,0,0,0,.89-1h4.9a6.41,6.41,0,0,1-1.73,3c-1,1-2.72,2-5.82,2A8.11,8.11,0,0,1,737.16,72a7.45,7.45,0,0,1-2.11-5.4A7.64,7.64,0,0,1,737.19,61a8.08,8.08,0,0,1,5.86-2.08,7.84,7.84,0,0,1,5.5,2,8,8,0,0,1,2.27,6Zm-4.7-2.94a3.5,3.5,0,0,0-.83-1.54,3,3,0,0,0-2.12-.76,2.78,2.78,0,0,0-2.08.76,2.92,2.92,0,0,0-.76,1.54Z"/><path d="M754.69,68.92a7.27,7.27,0,0,0,2,1.06,6.79,6.79,0,0,0,2,.35A2.16,2.16,0,0,0,760,70a.84.84,0,0,0,.25-.67.76.76,0,0,0-.25-.64,3.05,3.05,0,0,0-1.35-.51l-1.34-.33a4.63,4.63,0,0,1-2.5-1.24,3.49,3.49,0,0,1-.92-2.47,5.1,5.1,0,0,1,1.34-3.48,7.23,7.23,0,0,1,5.12-1.73,11.94,11.94,0,0,1,4.58.92l-1.73,3.27a7.11,7.11,0,0,0-2.69-.7,2.17,2.17,0,0,0-1.18.28.77.77,0,0,0-.45.71.84.84,0,0,0,.61.8c.48.19.89.19,1.69.41l.93.26A5.9,5.9,0,0,1,764.26,66a4,4,0,0,1,1.09,2.85,4.8,4.8,0,0,1-1.44,3.55,7.45,7.45,0,0,1-5.28,1.79,10.57,10.57,0,0,1-5.76-1.66Z"/><path d="M781.16,57h-3v-4.7h8.57V73.66h-5.53Z"/></svg>