<svg id="Layer_1" data-name="Layer 1" xmlns="http://www.w3.org/2000/svg" viewBox="0 0 1204 741"><title>Cap 4 -</title><line x1="484.24" y1="582.5" x2="484.24" y2="635.5" style="fill:none;stroke:#91c54f;stroke-miterlimit:10;stroke-width:7px"/><line x1="765.24" y1="583.09" x2="765.24" y2="638.5" style="fill:none;stroke:#f4c240;stroke-miterlimit:10;stroke-width:7px"/><polygon points="227.93 430.98 228.28 321.63 244.05 321.68 210.66 288.08 177.06 321.47 192.82 321.52 192.47 430.86 227.93 430.98" style="fill:none;stroke:#4fc2c9;stroke-miterlimit:10;stroke-width:7px"/><polygon points="672.84 621.5 598.83 621.5 598.83 610.83 576.16 633.5 598.83 656.17 598.83 645.5 672.84 645.5 672.84 621.5" style="fill:none;stroke:#91c54f;stroke-miterlimit:10;stroke-width:7px"/><polygon points="61 160.38 145.21 160.38 145.21 172.52 171 146.72 145.21 120.93 145.21 133.07 61 133.07 61 160.38" style="fill:none;stroke:#4fc2c9;stroke-miterlimit:10;stroke-width:7px"/><polygon points="61 598.93 145.21 598.93 145.21 611.07 171 585.28 145.21 559.48 145.21 571.62 61 571.62 61 598.93" style="fill:none;stroke:#3a5c84;stroke-miterlimit:10;stroke-width:7px"/><path d="M551.62,68.91h-6.68v3.56H551v4.7h-6.08v8.38H539.4V64.21h12.22Z"/><path d="M568.84,83.67a9.82,9.82,0,0,1-12.77,0,7.4,7.4,0,0,1,0-10.53,9.79,9.79,0,0,1,12.77,0,7,7,0,0,1,2.21,5.24A7.16,7.16,0,0,1,568.84,83.67Zm-8.67-7.62a3.25,3.25,0,1,0,4.57,4.61,3.17,3.17,0,0,0,1-2.28,3.49,3.49,0,0,0-1-2.33,3.27,3.27,0,0,0-4.57,0Z"/><path d="M574,71.25h5.12v2.34a4.65,4.65,0,0,1,2-2,5.63,5.63,0,0,1,2.65-.57l1,.06v4.83a4.52,4.52,0,0,0-2.21-.51,3.39,3.39,0,0,0-2.34.77,4.33,4.33,0,0,0-1.15,3.26v6.11H574Z"/><path d="M602.25,79.34H591.59a3.63,3.63,0,0,0,.9,2.41,2.88,2.88,0,0,0,2.11.7,4,4,0,0,0,1.66-.38,2.47,2.47,0,0,0,.9-1h4.9a6.52,6.52,0,0,1-1.73,2.94c-1.06,1-2.72,2-5.83,2a8.12,8.12,0,0,1-5.92-2.17,7.53,7.53,0,0,1-2.11-5.41,7.65,7.65,0,0,1,2.15-5.54,8,8,0,0,1,5.85-2.08,7.86,7.86,0,0,1,5.51,2,8,8,0,0,1,2.27,6Zm-4.71-2.94a3.28,3.28,0,0,0-.83-1.53,3,3,0,0,0-2.11-.77,2.73,2.73,0,0,0-2.08.77,2.93,2.93,0,0,0-.77,1.53Z"/><path d="M621.29,71.25V84.66c0,2.14-.19,4.09-1.95,5.92a8.57,8.57,0,0,1-6.31,2.3,8.78,8.78,0,0,1-6.69-2.53,5.16,5.16,0,0,1-1.56-3h5.69a2.21,2.21,0,0,0,2.4,1.47,3.1,3.1,0,0,0,2.27-.8,3.44,3.44,0,0,0,1-2.66V84a5.44,5.44,0,0,1-4.29,1.89,7.14,7.14,0,0,1-5.28-2,7.58,7.58,0,0,1-2-5.22,8.23,8.23,0,0,1,2.11-5.6,7.17,7.17,0,0,1,5.18-2.18,5.62,5.62,0,0,1,4.26,1.89V71.25Zm-10.43,4.8a3.19,3.19,0,0,0,0,4.64,3.23,3.23,0,0,0,2.3.93,3.28,3.28,0,0,0,3.26-3.27,3.66,3.66,0,0,0-1-2.33,3.24,3.24,0,0,0-2.27-.93A3,3,0,0,0,610.86,76.05Z"/><path d="M624.81,71.25h5.12v2.34a4.68,4.68,0,0,1,2-2A5.68,5.68,0,0,1,634.6,71l1,.06v4.83a4.47,4.47,0,0,0-2.2-.51,3.37,3.37,0,0,0-2.34.77,4.29,4.29,0,0,0-1.15,3.26v6.11h-5.12Z"/><path d="M651.66,83.67a9.82,9.82,0,0,1-12.77,0,7.16,7.16,0,0,1-2.21-5.29,7,7,0,0,1,2.21-5.24,8.93,8.93,0,0,1,6.37-2.37,9.06,9.06,0,0,1,6.4,2.37,7.08,7.08,0,0,1,2.2,5.24A7.19,7.19,0,0,1,651.66,83.67ZM643,76.05a3.29,3.29,0,0,0-1,2.33,3.33,3.33,0,0,0,3.3,3.24,3.29,3.29,0,0,0,2.27-1,3.16,3.16,0,0,0,1-2.28,3.47,3.47,0,0,0-1-2.33,3.55,3.55,0,0,0-2.27-.93A3.59,3.59,0,0,0,643,76.05Z"/><path d="M661.93,71.25v8a2.71,2.71,0,0,0,.77,2.08,2.62,2.62,0,0,0,1.79.54,2.36,2.36,0,0,0,1.82-.61,2.63,2.63,0,0,0,.74-2v-8h5.12v8.93A4.92,4.92,0,0,1,670.79,84c-1.76,1.82-4.22,2-6.17,2-2.15,0-4.77-.22-6.47-2a5.12,5.12,0,0,1-1.34-3.8V71.25Z"/><path d="M675.69,71.25h5.12V73a5.4,5.4,0,0,1,4.54-2.11,5.79,5.79,0,0,1,4.23,1.54,4.94,4.94,0,0,1,1.34,4v9.08H685.8V78.32a4.1,4.1,0,0,0-.64-2.78,2.15,2.15,0,0,0-1.63-.61,2.83,2.83,0,0,0-1.89.67,3.3,3.3,0,0,0-.83,2.27v7.68h-5.12Z"/><path d="M710.6,85.55h-5.12V84a5.24,5.24,0,0,1-4.32,2,6.84,6.84,0,0,1-5-2,7.89,7.89,0,0,1-2.31-5.7,7.8,7.8,0,0,1,2.34-5.66,7.32,7.32,0,0,1,5.05-1.92,5.63,5.63,0,0,1,4.26,1.86V62.23h5.12Zm-6.05-4.73a3.45,3.45,0,0,0,1.09-2.44,3.76,3.76,0,0,0-1-2.3,3.28,3.28,0,0,0-4.61,0,3.54,3.54,0,0,0-1,2.43,3.33,3.33,0,0,0,3.26,3.2A3.47,3.47,0,0,0,704.55,80.82Z"/><rect x="642.63" y="498.81" width="245.23" height="84" rx="12" ry="12" style="fill:none;stroke:#f4c240;stroke-miterlimit:10;stroke-width:7px"/><path d="M706.35,542.41a7.48,7.48,0,0,0,4.9,2.18,2.79,2.79,0,0,0,2.14-.74,1.9,1.9,0,0,0,.54-1.34,1.65,1.65,0,0,0-.61-1.28,7.5,7.5,0,0,0-2.75-1.12l-1.44-.45a7.06,7.06,0,0,1-3.07-1.73,5.35,5.35,0,0,1-1.21-3.78A7,7,0,0,1,706.8,529a7.56,7.56,0,0,1,5.47-2,15,15,0,0,1,6.59,1.73L716.65,533A5.57,5.57,0,0,0,713,531.6a2.63,2.63,0,0,0-1.83.64,1.57,1.57,0,0,0-.54,1.15,1.41,1.41,0,0,0,.29,1,3.54,3.54,0,0,0,1.85,1l1.7.51a8.25,8.25,0,0,1,3.87,2.11,5,5,0,0,1,1.37,3.81,7.23,7.23,0,0,1-2,5.37c-1.83,1.83-4,2.18-6.31,2.18a11.54,11.54,0,0,1-4.19-.7,15,15,0,0,1-3.23-1.7Z"/><path d="M728.4,538.7v10.11h-5.12V538.7h-1.63v-4.19h1.63V529.8h5.12v4.71h2.91v4.19Z"/><path d="M747.63,546.92a9.79,9.79,0,0,1-12.77,0,7.36,7.36,0,0,1,0-10.52,8.9,8.9,0,0,1,6.37-2.37,9,9,0,0,1,6.4,2.37,7.36,7.36,0,0,1,0,10.52ZM739,539.31a3.14,3.14,0,0,0,0,4.6,3.2,3.2,0,0,0,4.57,0,3.14,3.14,0,0,0,1-2.27,3.28,3.28,0,0,0-3.26-3.26A3.49,3.49,0,0,0,739,539.31Z"/><path d="M757.9,556.14h-5.12V534.51h5.12v1.56a5.34,5.34,0,0,1,4.38-2,7.08,7.08,0,0,1,5.09,2.08,8.11,8.11,0,0,1-.13,11.2,6.89,6.89,0,0,1-4.89,2,6.07,6.07,0,0,1-4.45-1.86Zm.83-16.8a3.21,3.21,0,0,0,0,4.64,3.27,3.27,0,0,0,2.31,1,3.09,3.09,0,0,0,2.27-1,3.42,3.42,0,0,0,1-2.27,3.49,3.49,0,0,0-1-2.37,3.09,3.09,0,0,0-2.27-1A3.27,3.27,0,0,0,758.73,539.34Z"/><path d="M777.61,556.14h-5.12V534.51h5.12v1.56a5.35,5.35,0,0,1,4.39-2,7.07,7.07,0,0,1,5.08,2.08,7.7,7.7,0,0,1,2.18,5.53,7.79,7.79,0,0,1-2.3,5.67,6.91,6.91,0,0,1-4.9,2,6.07,6.07,0,0,1-4.45-1.86Zm.83-16.8a3.21,3.21,0,0,0,0,4.64,3.27,3.27,0,0,0,2.31,1,3.09,3.09,0,0,0,2.27-1,3.42,3.42,0,0,0,1-2.27,3.49,3.49,0,0,0-1-2.37,3.09,3.09,0,0,0-2.27-1A3.27,3.27,0,0,0,778.44,539.34Z"/><path d="M807.37,542.6H796.72a3.6,3.6,0,0,0,.89,2.4,2.87,2.87,0,0,0,2.11.71,4.13,4.13,0,0,0,1.67-.39,2.32,2.32,0,0,0,.89-1h4.9a6.41,6.41,0,0,1-1.73,2.95c-1.05,1-2.72,2-5.82,2a8.11,8.11,0,0,1-5.92-2.18,7.45,7.45,0,0,1-2.11-5.4,7.64,7.64,0,0,1,2.14-5.54,8.06,8.06,0,0,1,5.86-2.08,7.84,7.84,0,0,1,5.5,1.95,8,8,0,0,1,2.27,6Zm-4.7-2.94a3.5,3.5,0,0,0-.83-1.54,3,3,0,0,0-2.12-.76,2.78,2.78,0,0,0-2.08.76,2.92,2.92,0,0,0-.76,1.54Z"/><path d="M826.51,548.81h-5.12v-1.57a5.24,5.24,0,0,1-4.32,2,6.88,6.88,0,0,1-5-2,7.9,7.9,0,0,1-2.3-5.7,7.76,7.76,0,0,1,2.34-5.66,7.26,7.26,0,0,1,5-1.92,5.68,5.68,0,0,1,4.26,1.85v-10.4h5.12Zm-6-4.74a3.41,3.41,0,0,0,1.09-2.43,3.73,3.73,0,0,0-1-2.3,3.28,3.28,0,0,0-4.61,0,3.48,3.48,0,0,0-1,2.43,3.24,3.24,0,0,0,1,2.24,3.19,3.19,0,0,0,2.27,1A3.5,3.5,0,0,0,820.46,544.07Z"/><path d="M148.88,370.27v10.11h-5.12V370.27H142v-4.19h1.79v-2.4a7.34,7.34,0,0,1,1.31-4.7,6,6,0,0,1,5-2.28,6.71,6.71,0,0,1,2.47.48v4.42a3.2,3.2,0,0,0-1.6-.48,1.85,1.85,0,0,0-1.44.54,3.76,3.76,0,0,0-.58,2.4v2h3.58v4.19Z"/><path d="M170.51,366.08v13.41c0,2.14-.19,4.09-1.95,5.92a8.57,8.57,0,0,1-6.31,2.3,8.74,8.74,0,0,1-6.68-2.53,5.17,5.17,0,0,1-1.57-3h5.7a2.2,2.2,0,0,0,2.4,1.47,3.12,3.12,0,0,0,2.27-.8,3.46,3.46,0,0,0,1-2.66v-1.44a5.44,5.44,0,0,1-4.29,1.89,7.14,7.14,0,0,1-5.28-2,7.58,7.58,0,0,1-2-5.22,8.23,8.23,0,0,1,2.11-5.6,7.21,7.21,0,0,1,5.19-2.18,5.6,5.6,0,0,1,4.25,1.89v-1.47Zm-10.43,4.8a3.21,3.21,0,0,0,0,4.64,3.25,3.25,0,0,0,2.3.93,3.28,3.28,0,0,0,3.27-3.27,3.68,3.68,0,0,0-1-2.33,3.22,3.22,0,0,0-2.27-.93A3.06,3.06,0,0,0,160.08,370.88Z"/><path d="M1089.18,362.81a13.14,13.14,0,0,1-4.8,1.05,11.59,11.59,0,0,1-8.25-3.2,11.19,11.19,0,0,1-3.23-7.77,11.2,11.2,0,0,1,11.29-11.2,13.2,13.2,0,0,1,5,1.09v6.62a5.94,5.94,0,0,0-4.83-2.34,5.41,5.41,0,0,0-3.84,1.41,6,6,0,0,0-1.85,4.39,5.89,5.89,0,0,0,1.72,4.16,6,6,0,0,0,4,1.47,6.28,6.28,0,0,0,4.83-2.24Z"/><path d="M1097.89,353.27v10.11h-5.12V353.27h-1.63v-4.19h1.63v-4.7h5.12v4.7h2.91v4.19Z"/><path d="M1102.72,349.08h5.12v2.34a4.65,4.65,0,0,1,2-2,5.61,5.61,0,0,1,2.65-.57l1,.06v4.83a4.56,4.56,0,0,0-2.21-.51,3.37,3.37,0,0,0-2.34.77,4.29,4.29,0,0,0-1.15,3.26v6.11h-5.12Z"/><path d="M1120.93,340.06v23.32h-5.12V340.06Z"/><path d="M1123.71,350.58h4.86v-4.89h4.16v4.89h4.87v3.84h-4.87v4.9h-4.16v-4.9h-4.86Z"/><path d="M1147.87,359.19h6v4.19h-14.56l6.76-10.11h-5.76v-4.19h14.27Z"/><line x1="341.5" y1="146.5" x2="210.5" y2="146.5" style="fill:none;stroke:#4fc2c9;stroke-miterlimit:10;stroke-width:7px"/><line x1="208.5" y1="241" x2="208.5" y2="143" style="fill:none;stroke:#4fc2c9;stroke-miterlimit:10;stroke-width:7px"/><line x1="341.5" y1="586.5" x2="210.5" y2="586.5" style="fill:none;stroke:#3a5c84;stroke-miterlimit:10;stroke-width:7px"/><line x1="211.5" y1="589" x2="211.5" y2="500" style="fill:none;stroke:#3a5c84;stroke-miterlimit:10;stroke-width:7px"/><polygon points="1024.93 288.02 1024.58 397.37 1008.82 397.32 1042.2 430.92 1075.8 397.53 1060.04 397.48 1060.39 288.14 1024.93 288.02" style="fill:none;stroke:#3a5c84;stroke-miterlimit:10;stroke-width:7px"/><line x1="912.5" y1="146.5" x2="1043.5" y2="146.5" style="fill:none;stroke:#4fc2c9;stroke-miterlimit:10;stroke-width:7px"/><line x1="1045.5" y1="241" x2="1045.5" y2="143" style="fill:none;stroke:#4fc2c9;stroke-miterlimit:10;stroke-width:7px"/><line x1="912.5" y1="586.5" x2="1043.5" y2="586.5" style="fill:none;stroke:#3a5c84;stroke-miterlimit:10;stroke-width:7px"/><line x1="1042.5" y1="589" x2="1042.5" y2="500" style="fill:none;stroke:#3a5c84;stroke-miterlimit:10;stroke-width:7px"/><path d="M55.58,116a7.65,7.65,0,0,1-3.56.8,7.92,7.92,0,0,1-5.63-2.18,7.49,7.49,0,0,1-2.21-5.34,7.81,7.81,0,0,1,2.31-5.54,8.24,8.24,0,0,1,5.76-2.17,7.36,7.36,0,0,1,3.33.8v4.29a4.52,4.52,0,0,0-2.66-.93,3.38,3.38,0,0,0-2.5,1,3.48,3.48,0,0,0-1,2.46,3.66,3.66,0,0,0,.9,2.4A3.48,3.48,0,0,0,53,112.68a3.88,3.88,0,0,0,2.63-1Z"/><path d="M58.49,102h5.12v1.72a5.48,5.48,0,0,1,4.28-2,5.8,5.8,0,0,1,2.76.64,4.43,4.43,0,0,1,2,2,5.08,5.08,0,0,1,2-2,5.88,5.88,0,0,1,3-.7,5.71,5.71,0,0,1,4,1.31A5.25,5.25,0,0,1,82.87,107v9.31H77.75v-7.07c0-1.51-.16-2.53-.74-3.08a1.87,1.87,0,0,0-1.34-.47,2.06,2.06,0,0,0-1.5.57,3.64,3.64,0,0,0-.93,2.72v7.33H68.12v-7.07c0-1.38-.1-2.47-.67-3.08a2,2,0,0,0-1.54-.57,1.84,1.84,0,0,0-1.41.51,4.25,4.25,0,0,0-.89,3.14v7.07H58.49Z"/><path d="M102.61,116.33H97.49v-1.57a5.23,5.23,0,0,1-4.32,2,6.82,6.82,0,0,1-5-2,8.13,8.13,0,0,1,0-11.36,7.35,7.35,0,0,1,5.06-1.92,5.64,5.64,0,0,1,4.25,1.86V93h5.12Zm-6-4.74a3.44,3.44,0,0,0,1.08-2.43,3.68,3.68,0,0,0-1-2.3,3.27,3.27,0,0,0-4.6,0,3.48,3.48,0,0,0-1,2.43,3.23,3.23,0,0,0,1,2.24,3.18,3.18,0,0,0,2.27,1A3.52,3.52,0,0,0,96.57,111.59Z"/><path d="M40.58,554a7.65,7.65,0,0,1-3.56.8,7.92,7.92,0,0,1-5.63-2.18,7.49,7.49,0,0,1-2.21-5.34,7.81,7.81,0,0,1,2.31-5.54,8.24,8.24,0,0,1,5.76-2.17,7.36,7.36,0,0,1,3.33.8v4.29a4.52,4.52,0,0,0-2.66-.93,3.38,3.38,0,0,0-2.5,1,3.48,3.48,0,0,0-1,2.46,3.66,3.66,0,0,0,.9,2.4A3.48,3.48,0,0,0,38,550.68a3.88,3.88,0,0,0,2.63-1Z"/><path d="M43.49,540h5.12v1.72a5.48,5.48,0,0,1,4.28-2,5.8,5.8,0,0,1,2.76.64,4.43,4.43,0,0,1,2,2.05,5.08,5.08,0,0,1,1.95-2,5.88,5.88,0,0,1,3-.7,5.71,5.71,0,0,1,4,1.31A5.25,5.25,0,0,1,67.87,545v9.31H62.75v-7.07c0-1.51-.16-2.53-.74-3.08a1.87,1.87,0,0,0-1.34-.47,2.06,2.06,0,0,0-1.5.57,3.64,3.64,0,0,0-.93,2.72v7.33H53.12v-7.07c0-1.38-.1-2.47-.67-3.08a2,2,0,0,0-1.54-.57,1.84,1.84,0,0,0-1.41.51,4.25,4.25,0,0,0-.89,3.14v7.07H43.49Z"/><path d="M87.61,554.33H82.49v-1.57a5.23,5.23,0,0,1-4.32,2,6.82,6.82,0,0,1-5-2,8.13,8.13,0,0,1,0-11.36,7.35,7.35,0,0,1,5.06-1.92,5.64,5.64,0,0,1,4.25,1.86V531h5.12Zm-6-4.74a3.44,3.44,0,0,0,1.08-2.43,3.68,3.68,0,0,0-1-2.3,3.27,3.27,0,0,0-4.6,0,3.48,3.48,0,0,0-1,2.43,3.23,3.23,0,0,0,1,2.24,3.18,3.18,0,0,0,2.27,1A3.52,3.52,0,0,0,81.57,549.59Z"/><path d="M119.17,546.17a26.47,26.47,0,0,1-2.92,3.1l4.77,5.06h-6.91l-1.86-2a12,12,0,0,1-7.16,2.43A7.31,7.31,0,0,1,99.84,553a5.78,5.78,0,0,1-1.73-4.23,5.63,5.63,0,0,1,1.6-4.09,9.36,9.36,0,0,1,3.49-2.08,12.85,12.85,0,0,1-1.25-1.7,4.76,4.76,0,0,1-.74-2.62,5.75,5.75,0,0,1,1.64-3.91,7.75,7.75,0,0,1,10-.12,5.69,5.69,0,0,1,1.7,4,4.62,4.62,0,0,1-1.48,3.42,7.81,7.81,0,0,1-2.49,1.66l2.69,2.82a27.77,27.77,0,0,0,2.78-3Zm-13.32-.77c-.22.13-2,1-2,2.5a1.93,1.93,0,0,0,.64,1.44,2.7,2.7,0,0,0,1.82.6,5.36,5.36,0,0,0,2.91-.92Zm1.19-5.92a10.91,10.91,0,0,0,1.12,1.28,5.94,5.94,0,0,0,1.28-1,2.38,2.38,0,0,0,.67-1.57,1.91,1.91,0,0,0-.58-1.47,1.88,1.88,0,0,0-1.28-.48,1.74,1.74,0,0,0-1.21.45,1.68,1.68,0,0,0-.58,1.31A2.59,2.59,0,0,0,107,539.48Z"/><rect x="338.5" y="417.5" width="572" height="288" rx="12" ry="12" style="fill:none;stroke:#3a5c84;stroke-miterlimit:10;stroke-width:9.63546082256359px"/><rect x="339" y="47" width="572" height="180" rx="12" ry="12" style="fill:none;stroke:#4fc2c9;stroke-miterlimit:10;stroke-width:7px"/><rect x="361.63" y="498.81" width="245.23" height="84" rx="12" ry="12" style="fill:none;stroke:#91c54f;stroke-miterlimit:10;stroke-width:7px"/><path d="M436.41,528.21A6.47,6.47,0,0,1,441.3,530a6.59,6.59,0,0,1,1.71,4.5,5.77,5.77,0,0,1-1.59,4.17,5.61,5.61,0,0,1-2.76,1.38l6.27,8.19h-6.45l-5-7.68v7.68h-5.19v-20Zm-2.91,9h1a3.9,3.9,0,0,0,2.52-.81,2.49,2.49,0,0,0,.66-1.68A2.36,2.36,0,0,0,437,533a3.52,3.52,0,0,0-2.49-.78h-1Z"/><path d="M451.47,534.81v7.5a2.57,2.57,0,0,0,.72,2,2.48,2.48,0,0,0,1.68.51,2.24,2.24,0,0,0,1.71-.57,2.49,2.49,0,0,0,.69-1.89v-7.5h4.8v8.37a4.6,4.6,0,0,1-1.29,3.6c-1.65,1.71-4,1.89-5.79,1.89-2,0-4.47-.21-6.06-1.92a4.82,4.82,0,0,1-1.26-3.57v-8.37Z"/><path d="M464.37,534.81h4.8v1.68a5.06,5.06,0,0,1,4.26-2,5.42,5.42,0,0,1,4,1.44,4.62,4.62,0,0,1,1.26,3.75v8.52h-4.8v-6.78a3.85,3.85,0,0,0-.6-2.61,2,2,0,0,0-1.53-.57,2.63,2.63,0,0,0-1.77.63,3.08,3.08,0,0,0-.78,2.13v7.2h-4.8Z"/><path d="M481.92,534.81h4.8v1.68a5.06,5.06,0,0,1,4.26-2,5.42,5.42,0,0,1,4,1.44,4.62,4.62,0,0,1,1.26,3.75v8.52h-4.8v-6.78a3.85,3.85,0,0,0-.6-2.61,2,2,0,0,0-1.53-.57,2.63,2.63,0,0,0-1.77.63,3.08,3.08,0,0,0-.78,2.13v7.2h-4.8Z"/><path d="M501.87,526.53a2.7,2.7,0,1,1-2.7,2.7A2.69,2.69,0,0,1,501.87,526.53Zm2.4,8.28v13.41h-4.8V534.81Z"/><path d="M507.54,534.81h4.8v1.68a5.06,5.06,0,0,1,4.26-2,5.42,5.42,0,0,1,4,1.44,4.62,4.62,0,0,1,1.26,3.75v8.52H517v-6.78a3.85,3.85,0,0,0-.6-2.61,2,2,0,0,0-1.53-.57,2.63,2.63,0,0,0-1.77.63,3.08,3.08,0,0,0-.78,2.13v7.2h-4.8Z"/><path d="M540.18,534.81v12.57c0,2-.18,3.84-1.83,5.55a8,8,0,0,1-5.91,2.16,8.22,8.22,0,0,1-6.27-2.37,4.88,4.88,0,0,1-1.47-2.79H530a2.06,2.06,0,0,0,2.25,1.38,2.92,2.92,0,0,0,2.13-.75,3.23,3.23,0,0,0,1-2.49v-1.35a5.1,5.1,0,0,1-4,1.77,6.68,6.68,0,0,1-5-1.89,7.08,7.08,0,0,1-1.86-4.89,7.73,7.73,0,0,1,2-5.25,6.74,6.74,0,0,1,4.86-2,5.24,5.24,0,0,1,4,1.77v-1.38Zm-9.78,4.5a3,3,0,0,0,0,4.35,3,3,0,0,0,2.16.87,3.07,3.07,0,0,0,3.06-3.06,3.44,3.44,0,0,0-1-2.19,3,3,0,0,0-2.13-.87A2.86,2.86,0,0,0,530.4,539.31Z"/><rect x="502.38" y="125.5" width="245.23" height="84" rx="12" ry="12" style="fill:none;stroke:#91c54f;stroke-miterlimit:10;stroke-width:7px"/><path d="M573.34,154.86a6.47,6.47,0,0,1,4.89,1.77,6.59,6.59,0,0,1,1.71,4.5,5.77,5.77,0,0,1-1.59,4.17,5.61,5.61,0,0,1-2.76,1.38l6.27,8.19h-6.45l-5-7.68v7.68h-5.19v-20Zm-2.91,9h1a3.9,3.9,0,0,0,2.52-.81,2.49,2.49,0,0,0,.66-1.68,2.36,2.36,0,0,0-.69-1.68,3.52,3.52,0,0,0-2.49-.78h-1Z"/><path d="M588.4,161.46V169a2.57,2.57,0,0,0,.72,1.95,2.48,2.48,0,0,0,1.68.51,2.24,2.24,0,0,0,1.71-.57,2.49,2.49,0,0,0,.69-1.89v-7.5H598v8.37a4.6,4.6,0,0,1-1.29,3.6c-1.65,1.71-4,1.89-5.79,1.89-2,0-4.47-.21-6.06-1.92a4.82,4.82,0,0,1-1.26-3.57v-8.37Z"/><path d="M601.3,161.46h4.8v1.68a5.06,5.06,0,0,1,4.26-2,5.42,5.42,0,0,1,4,1.44,4.62,4.62,0,0,1,1.26,3.75v8.52h-4.8v-6.78a3.85,3.85,0,0,0-.6-2.61,2,2,0,0,0-1.53-.57,2.63,2.63,0,0,0-1.77.63,3.08,3.08,0,0,0-.78,2.13v7.2h-4.8Z"/><path d="M618.85,161.46h4.8v1.68a5.06,5.06,0,0,1,4.26-2,5.42,5.42,0,0,1,4,1.44,4.62,4.62,0,0,1,1.26,3.75v8.52h-4.8v-6.78a3.85,3.85,0,0,0-.6-2.61,2,2,0,0,0-1.53-.57,2.63,2.63,0,0,0-1.77.63,3.08,3.08,0,0,0-.78,2.13v7.2h-4.8Z"/><path d="M638.8,153.18a2.7,2.7,0,1,1-2.7,2.7A2.69,2.69,0,0,1,638.8,153.18Zm2.4,8.28v13.41h-4.8V161.46Z"/><path d="M644.47,161.46h4.8v1.68a5.05,5.05,0,0,1,4.25-2,5.39,5.39,0,0,1,4,1.44,4.6,4.6,0,0,1,1.27,3.75v8.52H654v-6.78a3.85,3.85,0,0,0-.6-2.61,2,2,0,0,0-1.53-.57,2.63,2.63,0,0,0-1.77.63,3.08,3.08,0,0,0-.78,2.13v7.2h-4.8Z"/><path d="M677.11,161.46V174c0,2-.18,3.84-1.84,5.55a8,8,0,0,1-5.9,2.16,8.22,8.22,0,0,1-6.27-2.37,4.88,4.88,0,0,1-1.47-2.79H667a2.06,2.06,0,0,0,2.25,1.38,2.92,2.92,0,0,0,2.13-.75,3.26,3.26,0,0,0,1-2.49v-1.35a5.1,5.1,0,0,1-4,1.77,6.68,6.68,0,0,1-4.95-1.89,7.08,7.08,0,0,1-1.86-4.89,7.73,7.73,0,0,1,2-5.25,6.74,6.74,0,0,1,4.86-2,5.24,5.24,0,0,1,4,1.77v-1.38Zm-9.78,4.5a3,3,0,0,0,0,4.35,3,3,0,0,0,2.16.87,3.07,3.07,0,0,0,3.06-3.06,3.5,3.5,0,0,0-1-2.19,3,3,0,0,0-2.13-.87A2.86,2.86,0,0,0,667.33,166Z"/><path d="M541.73,463.54v-20h7.74a5.61,5.61,0,0,1,4.38,1.56,5.41,5.41,0,0,1,1.23,3.75,5.19,5.19,0,0,1-.57,2.46,3.15,3.15,0,0,1-1.62,1.56,5,5,0,0,1,2.73,1.2,5,5,0,0,1,1.35,3.66,5.43,5.43,0,0,1-1.47,3.93,7.52,7.52,0,0,1-5.43,1.89Zm5.19-12.12h1a2.74,2.74,0,0,0,2-.63,1.94,1.94,0,0,0,.48-1.32,2.06,2.06,0,0,0-.48-1.35,2.75,2.75,0,0,0-2-.6h-1Zm0,8.07h1.17c1.44,0,2.64-.15,3.21-.81a2,2,0,0,0,.42-1.29,2,2,0,0,0-.51-1.44c-.63-.63-1.92-.66-3.21-.66h-1.08Z"/><path d="M570.2,450.13H575v13.41h-4.8v-1.47A5,5,0,0,1,566,464a6.42,6.42,0,0,1-4.83-2.13,6.76,6.76,0,0,1-1.92-4.92,7.42,7.42,0,0,1,2.07-5.37,6.9,6.9,0,0,1,4.83-1.89,5.31,5.31,0,0,1,4,1.74Zm-5,4.5a3.14,3.14,0,0,0-1,2.19,3.09,3.09,0,0,0,.93,2.19,3.37,3.37,0,0,0,2.16.9,3.08,3.08,0,0,0,2.16-.93,2.91,2.91,0,0,0,.9-2.16,3,3,0,0,0-.93-2.19,3,3,0,0,0-4.26,0Z"/><path d="M588.44,463.24a7.12,7.12,0,0,1-3.33.75,7.41,7.41,0,0,1-5.28-2,7,7,0,0,1-2.07-5,7.3,7.3,0,0,1,2.16-5.19,7.73,7.73,0,0,1,5.4-2,6.88,6.88,0,0,1,3.12.75v4a4.28,4.28,0,0,0-2.49-.87,3.15,3.15,0,0,0-2.34.93,3.26,3.26,0,0,0-.93,2.31,3.44,3.44,0,0,0,.84,2.25,3.26,3.26,0,0,0,2.46,1,3.63,3.63,0,0,0,2.46-.9Z"/><path d="M596,441.67V455l4.53-4.83H607l-6.33,6.18,6.84,7.23h-6.66L596,458.05v5.49h-4.8V441.67Z"/><path d="M623.54,450.13V462.7c0,2-.18,3.84-1.83,5.55a8,8,0,0,1-5.91,2.16,8.22,8.22,0,0,1-6.27-2.37,4.88,4.88,0,0,1-1.47-2.79h5.34a2.06,2.06,0,0,0,2.25,1.38,2.92,2.92,0,0,0,2.13-.75,3.23,3.23,0,0,0,1-2.49V462a5.1,5.1,0,0,1-4,1.77,6.68,6.68,0,0,1-5-1.89,7.08,7.08,0,0,1-1.86-4.89,7.73,7.73,0,0,1,2-5.25,6.74,6.74,0,0,1,4.86-2,5.24,5.24,0,0,1,4,1.77v-1.38Zm-9.78,4.5a3,3,0,0,0,0,4.35,3,3,0,0,0,2.16.87,3.07,3.07,0,0,0,3.06-3.06,3.44,3.44,0,0,0-1-2.19,3,3,0,0,0-2.13-.87A2.86,2.86,0,0,0,613.76,454.63Z"/><path d="M626.84,450.13h4.8v2.19a4.33,4.33,0,0,1,1.89-1.86,5.24,5.24,0,0,1,2.49-.54l1,.06v4.53a4.23,4.23,0,0,0-2.07-.48,3.14,3.14,0,0,0-2.19.72,4,4,0,0,0-1.08,3.06v5.73h-4.8Z"/><path d="M652,461.77a9.18,9.18,0,0,1-12,0,6.92,6.92,0,0,1,0-9.87,8.37,8.37,0,0,1,6-2.22,8.47,8.47,0,0,1,6,2.22,6.92,6.92,0,0,1,0,9.87Zm-8.13-7.14a3.06,3.06,0,0,0,2.16,5.22,3.05,3.05,0,0,0,2.13-.9,3,3,0,0,0,.93-2.13,3.26,3.26,0,0,0-.93-2.19,3.08,3.08,0,0,0-4.29,0Z"/><path d="M661.64,450.13v7.5a2.57,2.57,0,0,0,.72,1.95,2.48,2.48,0,0,0,1.68.51,2.24,2.24,0,0,0,1.71-.57,2.49,2.49,0,0,0,.69-1.89v-7.5h4.8v8.37a4.6,4.6,0,0,1-1.29,3.6c-1.65,1.71-4,1.89-5.79,1.89-2,0-4.47-.21-6.06-1.92a4.82,4.82,0,0,1-1.26-3.57v-8.37Z"/><path d="M674.54,450.13h4.8v1.68a5.06,5.06,0,0,1,4.26-2,5.42,5.42,0,0,1,4,1.44,4.62,4.62,0,0,1,1.26,3.75v8.52H684v-6.78a3.85,3.85,0,0,0-.6-2.61,2,2,0,0,0-1.53-.57,2.63,2.63,0,0,0-1.77.63,3.08,3.08,0,0,0-.78,2.13v7.2h-4.8Z"/><path d="M707.27,463.54h-4.8v-1.47a4.92,4.92,0,0,1-4.05,1.92,6.42,6.42,0,0,1-4.71-1.86,7.4,7.4,0,0,1-2.16-5.34,7.31,7.31,0,0,1,2.19-5.31,6.86,6.86,0,0,1,4.74-1.8,5.31,5.31,0,0,1,4,1.74v-9.75h4.8Zm-5.67-4.44a3.22,3.22,0,0,0,1-2.28,3.51,3.51,0,0,0-.9-2.16,3.08,3.08,0,0,0-4.32,0,3.29,3.29,0,0,0-.93,2.28,3,3,0,0,0,.93,2.1,3,3,0,0,0,2.13.9A3.28,3.28,0,0,0,701.6,459.1Z"/><line x1="481" y1="632" x2="525" y2="632" style="fill:none;stroke:#91c54f;stroke-miterlimit:10;stroke-width:7px"/><line x1="724" y1="635" x2="768" y2="635" style="fill:none;stroke:#f4c240;stroke-miterlimit:10;stroke-width:7px"/><path d="M622.88,659.33v10.4a5.66,5.66,0,0,1,4.25-1.85,7.28,7.28,0,0,1,5.06,1.92,7.78,7.78,0,0,1,2.34,5.66,7.91,7.91,0,0,1-2.31,5.7,6.84,6.84,0,0,1-5,2,5.24,5.24,0,0,1-4.32-2v1.57h-5.12V659.33Zm5.41,18.5a3.24,3.24,0,0,0,1-2.24,3.52,3.52,0,0,0-1-2.43,3.28,3.28,0,0,0-4.61,0,3.73,3.73,0,0,0-1,2.3,3.41,3.41,0,0,0,1.09,2.43,3.48,3.48,0,0,0,2.21.87A3.21,3.21,0,0,0,628.29,677.83Z"/><path d="M653.57,668.36v13.4c0,2.15-.19,4.1-2,5.92a8.54,8.54,0,0,1-6.31,2.31,8.78,8.78,0,0,1-6.69-2.53,5.18,5.18,0,0,1-1.56-3h5.69a2.2,2.2,0,0,0,2.4,1.48,3.1,3.1,0,0,0,2.27-.8,3.44,3.44,0,0,0,1-2.66v-1.44a5.44,5.44,0,0,1-4.29,1.89,7.14,7.14,0,0,1-5.28-2,7.54,7.54,0,0,1-2-5.21,8.23,8.23,0,0,1,2.11-5.6,7.17,7.17,0,0,1,5.18-2.18,5.58,5.58,0,0,1,4.26,1.89v-1.47Zm-10.43,4.8a3.34,3.34,0,0,0-1,2.3,3.38,3.38,0,0,0,1,2.34,3.22,3.22,0,0,0,2.3.92,3.28,3.28,0,0,0,3.26-3.26,3.62,3.62,0,0,0-1-2.33,3.24,3.24,0,0,0-2.27-.93A3,3,0,0,0,643.14,673.16Z"/></svg>