<svg id="Layer_1" data-name="Layer 1" xmlns="http://www.w3.org/2000/svg" viewBox="0 0 562 688"><title>Cap 4 -</title><path d="M308.05,643.46c-.44.31-.89.62-1.34.91l-.62.41c-.59.36-1.19.71-1.81,1-.13.08-.27.14-.4.21a32.9,32.9,0,0,1-4.37,1.85l-.16,0c-.78.26-1.57.49-2.38.69h0c-.81.2-1.64.37-2.46.51h-.07c-.77.13-1.56.22-2.34.29l-.42,0q-1.17.09-2.34.09c-.79,0-1.59,0-2.37-.09l-.41,0c-.79-.07-1.58-.16-2.36-.29l-.11,0a31.11,31.11,0,0,1-4.86-1.21l-.15,0c-.79-.27-1.57-.56-2.33-.89h0c-.72-.31-1.43-.66-2.13-1l-.27-.14c-.64-.34-1.27-.71-1.88-1.1-.19-.11-.37-.23-.55-.35-.56-.37-1.13-.75-1.67-1.16l-.17-.13.12-.07,9.89-5.39a5.3,5.3,0,0,0,2.76-4.65v-4.5l-.29-.35a20.81,20.81,0,0,1-3.75-7.78l-.12-.49-.42-.28a2.08,2.08,0,0,1-1-1.74v-4.43a2,2,0,0,1,.69-1.53l.41-.37v-7.13a7.58,7.58,0,0,1,1.75-5.46c1.81-2.06,4.91-3.1,9.21-3.1s7.37,1,9.19,3.08a7.68,7.68,0,0,1,1.76,5.48v7.13l.41.37a2.06,2.06,0,0,1,.7,1.53v4.43a2.08,2.08,0,0,1-1.48,2l-.62.2-.2.61a23.31,23.31,0,0,1-3.12,6.3c-.33.46-.65.87-.92,1.18l-.31.36V633a5.26,5.26,0,0,0,2.92,4.73l10.59,5.3.2.1Z" style="fill:none;stroke:#636868;stroke-miterlimit:10;stroke-width:5.236px"/><path d="M89.43,473.75V492H83.37v-18.2h-5v-5.14h16v5.14Z"/><path d="M111.41,485.16H99.75a4,4,0,0,0,1,2.63,3.15,3.15,0,0,0,2.31.77,4.51,4.51,0,0,0,1.82-.42,2.57,2.57,0,0,0,1-1.05h5.36a7.15,7.15,0,0,1-1.89,3.22c-1.16,1.12-3,2.17-6.37,2.17a8.9,8.9,0,0,1-6.48-2.38,8.23,8.23,0,0,1-2.31-5.92,8.33,8.33,0,0,1,2.35-6.05,8.79,8.79,0,0,1,6.4-2.28,8.57,8.57,0,0,1,6,2.14,8.75,8.75,0,0,1,2.49,6.58Zm-5.15-3.22a3.78,3.78,0,0,0-.91-1.68,3.28,3.28,0,0,0-2.31-.84,3,3,0,0,0-2.27.84,3.12,3.12,0,0,0-.84,1.68Z"/><path d="M114.63,476.31h5.6v2.55a5,5,0,0,1,2.2-2.17,6.19,6.19,0,0,1,2.91-.63c.14,0,.38,0,1.12.07v5.29a5,5,0,0,0-2.42-.56,3.63,3.63,0,0,0-2.55.84,4.72,4.72,0,0,0-1.26,3.57V492h-5.6Z"/><path d="M128.94,476.31h5.6v1.89a6,6,0,0,1,4.69-2.17,6.31,6.31,0,0,1,3,.7,4.81,4.81,0,0,1,2.17,2.24,5.47,5.47,0,0,1,2.14-2.17,6.33,6.33,0,0,1,3.25-.77,6.2,6.2,0,0,1,4.34,1.43,5.76,5.76,0,0,1,1.47,4.31V492H150v-7.73c0-1.65-.17-2.77-.8-3.36a2.06,2.06,0,0,0-1.47-.53,2.3,2.3,0,0,0-1.65.63,4,4,0,0,0-1,3v8h-5.6v-7.73c0-1.51-.11-2.7-.74-3.36a2.15,2.15,0,0,0-1.68-.63,2,2,0,0,0-1.54.56c-1,.94-1,2.45-1,3.43V492h-5.6Z"/><path d="M162.3,466.65a3.15,3.15,0,1,1-3.16,3.15A3.14,3.14,0,0,1,162.3,466.65Zm2.8,9.66V492h-5.61V476.31Z"/><path d="M168.91,476.31h5.6v2a5.91,5.91,0,0,1,5-2.31,6.3,6.3,0,0,1,4.62,1.68c1.33,1.33,1.47,2.66,1.47,4.37V492H180V484c0-.91,0-2.27-.7-3a2.33,2.33,0,0,0-1.78-.67,3.08,3.08,0,0,0-2.07.74,3.58,3.58,0,0,0-.91,2.48V492h-5.6Z"/><path d="M201.5,476.31h5.6V492h-5.6v-1.71a5.87,5.87,0,0,1-4.87,2.24A7.49,7.49,0,0,1,191,490a7.9,7.9,0,0,1-2.24-5.74,8.64,8.64,0,0,1,2.42-6.26,8.07,8.07,0,0,1,5.64-2.21,6.22,6.22,0,0,1,4.69,2Zm-5.89,5.25a3.51,3.51,0,0,0,0,5.11,4,4,0,0,0,2.52,1.05,3.6,3.6,0,0,0,2.52-1.09,3.4,3.4,0,0,0,1-2.52,3.47,3.47,0,0,0-1.08-2.55,3.55,3.55,0,0,0-5,0Z"/><path d="M216.55,466.44V492h-5.61V466.44Z"/><rect x="234.81" y="444.53" width="112" height="69.85" rx="12" ry="12" style="fill:none;stroke:#eb6a38;stroke-miterlimit:10;stroke-width:5.236px"/><line x1="237.22" y1="468.62" x2="344.4" y2="468.62" style="fill:none;stroke:#eb6a38;stroke-miterlimit:10;stroke-width:5.236px"/><circle cx="315.5" cy="457.18" r="3.61" style="fill:#eb6a38"/><ellipse cx="324.73" cy="457.18" rx="3.42" ry="3.61" style="fill:#eb6a38"/><circle cx="333.56" cy="457.18" r="3.61" style="fill:#eb6a38"/><rect x="275.15" y="474.78" width="7.23" height="20.47" rx="3" ry="3" transform="translate(-261.31 339.18) rotate(-45)" style="fill:#eb6a38"/><rect x="268.53" y="491.04" width="20.47" height="7.23" rx="3" ry="3" transform="translate(-268.12 342) rotate(-45)" style="fill:#eb6a38"/><rect x="294.42" y="495.71" width="20.47" height="7.23" rx="3" ry="3" style="fill:#eb6a38"/><circle cx="289.26" cy="613.79" r="35.55" style="fill:none;stroke:#636868;stroke-miterlimit:10;stroke-width:5.236px"/><path d="M76.12,82.32h8.75V73.61H91V97H84.87V87.5H76.12V97H70.06V73.61h6.06Z"/><path d="M107.44,81.31h5.61V97h-5.61V95.24a5.84,5.84,0,0,1-4.86,2.24A7.49,7.49,0,0,1,96.94,95a7.9,7.9,0,0,1-2.24-5.74A8.64,8.64,0,0,1,97.12,83a8,8,0,0,1,5.63-2.21,6.2,6.2,0,0,1,4.69,2Zm-5.88,5.25a3.51,3.51,0,0,0,0,5.11,3.91,3.91,0,0,0,2.52,1,3.6,3.6,0,0,0,2.52-1.09,3.4,3.4,0,0,0,1.05-2.52,3.45,3.45,0,0,0-1.09-2.55,3.54,3.54,0,0,0-5,0Z"/><path d="M116.89,81.31h5.6v2.55a5.06,5.06,0,0,1,2.21-2.17,6.15,6.15,0,0,1,2.9-.63c.14,0,.39,0,1.12.07v5.29a4.93,4.93,0,0,0-2.41-.56,3.66,3.66,0,0,0-2.56.84,4.72,4.72,0,0,0-1.26,3.57V97h-5.6Z"/><path d="M148.92,97h-5.6V95.24a5.75,5.75,0,0,1-4.73,2.24,7.5,7.5,0,0,1-5.49-2.17,8.89,8.89,0,0,1,0-12.43,8,8,0,0,1,5.53-2.1,6.22,6.22,0,0,1,4.66,2V71.44h5.6Zm-6.62-5.18a3.71,3.71,0,0,0,1.19-2.66,4.12,4.12,0,0,0-1.05-2.52,3.59,3.59,0,0,0-5,0,3.84,3.84,0,0,0-1.08,2.66,3.57,3.57,0,0,0,1.08,2.45,3.48,3.48,0,0,0,2.49,1A3.78,3.78,0,0,0,142.3,91.77Z"/><path d="M157.11,81.31l3.71,8.26,4-8.26h3.43l4,8.5,3.92-8.5h6.23L174.12,97h-3.78l-3.92-8.61L162.67,97h-3.78l-8-15.64Z"/><path d="M195.05,81.31h5.6V97h-5.6V95.24a5.87,5.87,0,0,1-4.87,2.24A7.47,7.47,0,0,1,184.55,95a7.86,7.86,0,0,1-2.24-5.74A8.64,8.64,0,0,1,184.72,83a8.07,8.07,0,0,1,5.64-2.21,6.22,6.22,0,0,1,4.69,2Zm-5.88,5.25a3.52,3.52,0,0,0,0,5.11,4,4,0,0,0,2.52,1,3.6,3.6,0,0,0,2.52-1.09,3.4,3.4,0,0,0,1.05-2.52,3.47,3.47,0,0,0-1.08-2.55,3.54,3.54,0,0,0-5,0Z"/><path d="M204.5,81.31h5.6v2.55a5,5,0,0,1,2.2-2.17,6.19,6.19,0,0,1,2.91-.63c.14,0,.38,0,1.12.07v5.29a5,5,0,0,0-2.42-.56,3.63,3.63,0,0,0-2.55.84,4.72,4.72,0,0,0-1.26,3.57V97h-5.6Z"/><path d="M235.41,90.16H223.75a4,4,0,0,0,1,2.63,3.15,3.15,0,0,0,2.31.77,4.51,4.51,0,0,0,1.82-.42,2.64,2.64,0,0,0,1-1h5.36a7.09,7.09,0,0,1-1.9,3.22c-1.15,1.12-3,2.17-6.37,2.17a8.88,8.88,0,0,1-6.47-2.38,8.19,8.19,0,0,1-2.31-5.92,8.36,8.36,0,0,1,2.34-6.05,8.83,8.83,0,0,1,6.41-2.28,8.58,8.58,0,0,1,6,2.14,8.79,8.79,0,0,1,2.49,6.58Zm-5.15-3.22a3.78,3.78,0,0,0-.91-1.68,3.29,3.29,0,0,0-2.31-.84,3,3,0,0,0-2.28.84,3.27,3.27,0,0,0-.84,1.68Z"/><rect x="249.56" y="42.46" width="84" height="84" rx="12" ry="12" style="fill:none;stroke:#a2b969;stroke-miterlimit:10;stroke-width:5.236px"/><line x1="286.14" y1="42.46" x2="273.94" y2="73.62" style="fill:none;stroke:#a2b969;stroke-miterlimit:10;stroke-width:5.236px"/><circle cx="272.59" cy="77.68" r="6.77" style="fill:none;stroke:#a2b969;stroke-miterlimit:10;stroke-width:5.236px"/><circle cx="311.88" cy="72.26" r="6.77" style="fill:none;stroke:#a2b969;stroke-miterlimit:10;stroke-width:5.236px"/><circle cx="305.1" cy="100.71" r="6.77" style="fill:none;stroke:#a2b969;stroke-miterlimit:10;stroke-width:5.236px"/><line x1="333.56" y1="100.71" x2="309.17" y2="100.71" style="fill:none;stroke:#a2b969;stroke-miterlimit:10;stroke-width:5.236px"/><line x1="332.2" y1="53.3" x2="311.88" y2="53.3" style="fill:none;stroke:#a2b969;stroke-miterlimit:10;stroke-width:5.236px"/><line x1="311.88" y1="68.2" x2="311.88" y2="50.59" style="fill:none;stroke:#a2b969;stroke-miterlimit:10;stroke-width:5.236px"/><rect x="286.81" y="527.26" width="9" height="38" rx="4.5" ry="4.5" style="fill:#3a5c84"/><rect x="286.81" y="393.26" width="9" height="38" rx="4.5" ry="4.5" style="fill:#3a5c84"/><rect x="286.81" y="136.26" width="9" height="38" rx="4.5" ry="4.5" style="fill:#3a5c84"/><rect x="54.54" y="184.76" width="454.92" height="200" rx="12" ry="12" style="fill:none;stroke:#f4c240;stroke-miterlimit:10;stroke-width:5.236px"/><path d="M86.08,214.93l7.43-9.63H101l-9.28,11.07,10.12,12.28H94l-7.92-10.11v10.11H80V205.3h6Z"/><path d="M119.3,221.86H107.65a4,4,0,0,0,1,2.63,3.15,3.15,0,0,0,2.31.77,4.51,4.51,0,0,0,1.82-.42,2.64,2.64,0,0,0,1-1.05h5.35A7,7,0,0,1,117.2,227c-1.15,1.12-3,2.17-6.37,2.17a8.92,8.92,0,0,1-6.48-2.38,8.23,8.23,0,0,1-2.31-5.92,8.33,8.33,0,0,1,2.35-6,8.81,8.81,0,0,1,6.41-2.28,8.58,8.58,0,0,1,6,2.14,8.77,8.77,0,0,1,2.48,6.58Zm-5.14-3.22a3.78,3.78,0,0,0-.91-1.68,3.29,3.29,0,0,0-2.31-.84,3,3,0,0,0-2.28.84,3.27,3.27,0,0,0-.84,1.68Z"/><path d="M122.52,213h5.6v2.55a5.09,5.09,0,0,1,2.2-2.17,6.22,6.22,0,0,1,2.91-.63c.14,0,.39,0,1.12.07v5.29a4.93,4.93,0,0,0-2.41-.56,3.64,3.64,0,0,0-2.56.84,4.72,4.72,0,0,0-1.26,3.57v6.68h-5.6Z"/><path d="M136.83,213h5.6v2a5.91,5.91,0,0,1,5-2.31,6.31,6.31,0,0,1,4.62,1.68c1.33,1.33,1.47,2.66,1.47,4.37v9.94h-5.6v-7.91c0-.91,0-2.27-.7-3a2.37,2.37,0,0,0-1.79-.67,3.08,3.08,0,0,0-2.07.74,3.58,3.58,0,0,0-.91,2.48v8.4h-5.6Z"/><path d="M173.9,221.86H162.24a4,4,0,0,0,1,2.63,3.15,3.15,0,0,0,2.31.77,4.51,4.51,0,0,0,1.82-.42,2.57,2.57,0,0,0,1-1.05h5.36A7,7,0,0,1,171.8,227c-1.15,1.12-3,2.17-6.37,2.17A8.9,8.9,0,0,1,159,226.8a8.23,8.23,0,0,1-2.31-5.92,8.33,8.33,0,0,1,2.35-6,8.79,8.79,0,0,1,6.4-2.28,8.61,8.61,0,0,1,6,2.14,8.77,8.77,0,0,1,2.48,6.58Zm-5.14-3.22a3.9,3.9,0,0,0-.92-1.68,3.28,3.28,0,0,0-2.31-.84,3,3,0,0,0-2.27.84,3.12,3.12,0,0,0-.84,1.68Z"/><path d="M182.72,203.13v25.52h-5.6V203.13Z"/><path d="M409.57,358.65a8.13,8.13,0,0,0,5.36,2.38,3.08,3.08,0,0,0,2.34-.8,2.1,2.1,0,0,0,.6-1.47,1.82,1.82,0,0,0-.67-1.4,8.31,8.31,0,0,0-3-1.23l-1.58-.49a7.6,7.6,0,0,1-3.36-1.89,5.87,5.87,0,0,1-1.33-4.13,7.59,7.59,0,0,1,2.14-5.63,8.19,8.19,0,0,1,6-2.21,16.35,16.35,0,0,1,7.21,1.89l-2.42,4.73a6.14,6.14,0,0,0-4-1.58,2.94,2.94,0,0,0-2,.7,1.77,1.77,0,0,0-.59,1.26,1.53,1.53,0,0,0,.32,1.05,3.78,3.78,0,0,0,2,1.05l1.85.56a9,9,0,0,1,4.24,2.31,5.52,5.52,0,0,1,1.5,4.17,7.91,7.91,0,0,1-2.2,5.88c-2,2-4.41,2.38-6.9,2.38a12.52,12.52,0,0,1-4.59-.77,16.3,16.3,0,0,1-3.53-1.86Z"/><path d="M427.49,340.13h5.6V352a6.73,6.73,0,0,1,1.75-1.54,6.31,6.31,0,0,1,3.22-.77,6.22,6.22,0,0,1,4.62,1.68,5.45,5.45,0,0,1,1.47,4.37v9.94h-5.6v-7.91a4.65,4.65,0,0,0-.7-3,2.2,2.2,0,0,0-1.79-.67,3,3,0,0,0-2,.67,3.42,3.42,0,0,0-.94,2.55v8.4h-5.6Z"/><path d="M463.86,358.86H452.2a4,4,0,0,0,1,2.63,3.15,3.15,0,0,0,2.31.77,4.51,4.51,0,0,0,1.82-.42,2.57,2.57,0,0,0,1-1h5.36a7.15,7.15,0,0,1-1.89,3.22c-1.16,1.12-3,2.17-6.38,2.17a8.88,8.88,0,0,1-6.47-2.38,8.19,8.19,0,0,1-2.31-5.92,8.36,8.36,0,0,1,2.34-6.05,8.83,8.83,0,0,1,6.41-2.28,8.58,8.58,0,0,1,6,2.14,8.75,8.75,0,0,1,2.49,6.58Zm-5.15-3.22a3.78,3.78,0,0,0-.91-1.68,3.29,3.29,0,0,0-2.31-.84,3,3,0,0,0-2.27.84,3.2,3.2,0,0,0-.85,1.68Z"/><path d="M472.67,340.13v25.52h-5.6V340.13Z"/><path d="M482.09,340.13v25.52h-5.6V340.13Z"/><line x1="54.81" y1="261.26" x2="506.81" y2="190.26" style="fill:none;stroke:#f4c240;stroke-miterlimit:10;stroke-width:5.236px"/><line x1="55.81" y1="380.26" x2="507.81" y2="309.26" style="fill:none;stroke:#f4c240;stroke-miterlimit:10;stroke-width:5.236px"/><path d="M73.82,602.92v13.83A4.71,4.71,0,0,0,75,620.36a4.29,4.29,0,0,0,5.67.1c1.4-1.22,1.36-2.94,1.36-4.23V602.92H88.1v13.41c0,2.45-.11,5-2.63,7.56a10.07,10.07,0,0,1-7.7,2.91c-3.67,0-6.3-1.26-7.73-2.8-2-2.21-2.28-5.18-2.28-7.67V602.92Z"/><path d="M98.67,615.21v11.06H93.06V615.21H91.28v-4.58h1.78v-5.15h5.61v5.15h3.18v4.58Z"/><path d="M106.75,601a3.16,3.16,0,1,1-3.15,3.16A3.15,3.15,0,0,1,106.75,601Zm2.8,9.67v15.64H104V610.63Z"/><path d="M119,600.75v25.52h-5.61V600.75Z"/><path d="M125.58,601a3.16,3.16,0,1,1-3.15,3.16A3.15,3.15,0,0,1,125.58,601Zm2.8,9.67v15.64h-5.6V610.63Z"/><path d="M140.35,621.69h6.55v4.58H131l7.38-11.06h-6.3v-4.58h15.62Z"/><path d="M162.4,610.63H168v15.64h-5.6v-1.71a5.86,5.86,0,0,1-4.87,2.24,7.47,7.47,0,0,1-5.63-2.49,7.86,7.86,0,0,1-2.24-5.74,8.64,8.64,0,0,1,2.41-6.26,8.07,8.07,0,0,1,5.64-2.21,6.2,6.2,0,0,1,4.69,2Zm-5.88,5.25a3.52,3.52,0,0,0,0,5.11,4,4,0,0,0,2.53,1,3.6,3.6,0,0,0,2.52-1.09,3.54,3.54,0,0,0,0-5.07,3.54,3.54,0,0,0-5,0Z"/><path d="M178.05,615.21v11.06h-5.61V615.21h-1.78v-4.58h1.78v-5.15h5.61v5.15h3.18v4.58Z"/><path d="M199.08,624.21a10.71,10.71,0,0,1-14,0,7.83,7.83,0,0,1-2.41-5.78,7.75,7.75,0,0,1,2.41-5.74,9.78,9.78,0,0,1,7-2.59,9.89,9.89,0,0,1,7,2.59,7.72,7.72,0,0,1,2.42,5.74A7.8,7.8,0,0,1,199.08,624.21Zm-9.49-8.33a3.55,3.55,0,1,0,5,5,3.47,3.47,0,0,0,1.08-2.49,3.78,3.78,0,0,0-1.08-2.55,3.59,3.59,0,0,0-5,0Z"/><path d="M204.71,610.63h5.6v2.55a5.06,5.06,0,0,1,2.21-2.17,6.16,6.16,0,0,1,2.91-.63c.13,0,.38,0,1.12.07v5.29a5,5,0,0,0-2.42-.56,3.66,3.66,0,0,0-2.56.84,4.72,4.72,0,0,0-1.26,3.57v6.68h-5.6Z"/><path d="M137.33,290.77a8.18,8.18,0,0,0,5.36,2.38,3.06,3.06,0,0,0,2.34-.8,2.1,2.1,0,0,0,.6-1.47,1.82,1.82,0,0,0-.67-1.4,8.31,8.31,0,0,0-3-1.23l-1.57-.49a7.55,7.55,0,0,1-3.36-1.89,5.87,5.87,0,0,1-1.33-4.13,7.63,7.63,0,0,1,2.13-5.63,8.19,8.19,0,0,1,6-2.21,16.35,16.35,0,0,1,7.21,1.89l-2.42,4.73a6.14,6.14,0,0,0-4-1.58,2.9,2.9,0,0,0-2,.7,1.74,1.74,0,0,0-.6,1.26,1.53,1.53,0,0,0,.32,1.05,3.78,3.78,0,0,0,2,1.05l1.85.56a9,9,0,0,1,4.24,2.31A5.52,5.52,0,0,1,152,290a7.91,7.91,0,0,1-2.2,5.88c-2,2-4.41,2.38-6.9,2.38a12.44,12.44,0,0,1-4.58-.77,16,16,0,0,1-3.54-1.86Z"/><path d="M158.05,272.46a3.16,3.16,0,1,1-3.15,3.16A3.15,3.15,0,0,1,158.05,272.46Zm2.8,9.67v15.64h-5.6V282.13Z"/><path d="M165.68,292.59a8.23,8.23,0,0,0,2.24,1.16,7.46,7.46,0,0,0,2.17.38,2.36,2.36,0,0,0,1.44-.42.9.9,0,0,0,.28-.73.84.84,0,0,0-.28-.7,3.43,3.43,0,0,0-1.47-.56l-1.47-.35a5.14,5.14,0,0,1-2.74-1.37,3.79,3.79,0,0,1-1-2.69,5.62,5.62,0,0,1,1.47-3.82,7.92,7.92,0,0,1,5.6-1.89,12.83,12.83,0,0,1,5,1L175,286.19a7.77,7.77,0,0,0-2.94-.77,2.38,2.38,0,0,0-1.3.31.85.85,0,0,0-.49.77.92.92,0,0,0,.67.88c.52.21,1,.21,1.85.45l1,.28a6.63,6.63,0,0,1,2.31,1.23,4.41,4.41,0,0,1,1.19,3.11,5.25,5.25,0,0,1-1.58,3.89c-1.82,1.82-4.48,2-5.77,2a11.58,11.58,0,0,1-6.3-1.82Z"/><path d="M186.4,286.71v11.06h-5.6V286.71H179v-4.58h1.79V277h5.6v5.15h3.19v4.58Z"/><path d="M208.28,291H196.62a4,4,0,0,0,1,2.63,3.15,3.15,0,0,0,2.31.77,4.51,4.51,0,0,0,1.82-.42,2.57,2.57,0,0,0,1-1h5.36a7.15,7.15,0,0,1-1.89,3.22c-1.16,1.12-3,2.17-6.38,2.17a8.88,8.88,0,0,1-6.47-2.38A8.19,8.19,0,0,1,191,290a8.36,8.36,0,0,1,2.34-6.05,8.83,8.83,0,0,1,6.41-2.28,8.57,8.57,0,0,1,6,2.14,8.75,8.75,0,0,1,2.49,6.58Zm-5.15-3.22a3.78,3.78,0,0,0-.91-1.68,3.29,3.29,0,0,0-2.31-.84,3,3,0,0,0-2.28.84,3.27,3.27,0,0,0-.84,1.68Z"/><path d="M211.49,282.13h5.6V284a6,6,0,0,1,4.69-2.17,6.35,6.35,0,0,1,3,.7,4.91,4.91,0,0,1,2.17,2.24,5.46,5.46,0,0,1,2.13-2.17,6.36,6.36,0,0,1,3.26-.77,6.23,6.23,0,0,1,4.34,1.43,5.76,5.76,0,0,1,1.47,4.31v10.18h-5.6V290c0-1.65-.18-2.77-.81-3.36a2,2,0,0,0-1.47-.53,2.28,2.28,0,0,0-1.64.63,4,4,0,0,0-1,3v8H222V290c0-1.51-.1-2.7-.73-3.36a2.16,2.16,0,0,0-1.69-.63,2,2,0,0,0-1.54.56c-1,.94-1,2.45-1,3.43v7.73h-5.6Z"/><path d="M267.91,297.77h-5.6v-1.71a5.73,5.73,0,0,1-4.72,2.24,7.52,7.52,0,0,1-5.5-2.17,8.66,8.66,0,0,1-2.52-6.23,8.53,8.53,0,0,1,2.56-6.2,8,8,0,0,1,5.53-2.1,6.2,6.2,0,0,1,4.65,2V272.25h5.6Zm-6.61-5.18a3.75,3.75,0,0,0,1.19-2.66,4.12,4.12,0,0,0-1.05-2.52,3.45,3.45,0,0,0-2.56-1.05,3.42,3.42,0,0,0-2.48,1,3.85,3.85,0,0,0-1.09,2.66,3.54,3.54,0,0,0,1.09,2.45,3.47,3.47,0,0,0,2.48,1.05A3.83,3.83,0,0,0,261.3,292.59Z"/><path d="M288.35,291H276.7a4,4,0,0,0,1,2.63,3.15,3.15,0,0,0,2.31.77,4.51,4.51,0,0,0,1.82-.42,2.64,2.64,0,0,0,1-1h5.35a7,7,0,0,1-1.89,3.22c-1.15,1.12-3,2.17-6.37,2.17a8.88,8.88,0,0,1-6.47-2.38A8.19,8.19,0,0,1,271.1,290a8.36,8.36,0,0,1,2.34-6.05,8.83,8.83,0,0,1,6.41-2.28,8.58,8.58,0,0,1,6,2.14,8.77,8.77,0,0,1,2.48,6.58Zm-5.14-3.22a3.78,3.78,0,0,0-.91-1.68,3.29,3.29,0,0,0-2.31-.84,3,3,0,0,0-2.28.84,3.27,3.27,0,0,0-.84,1.68Z"/><path d="M315.48,295.71a10.71,10.71,0,0,1-14,0,7.83,7.83,0,0,1-2.41-5.78,7.75,7.75,0,0,1,2.41-5.74,9.78,9.78,0,0,1,7-2.59,9.92,9.92,0,0,1,7,2.59,7.75,7.75,0,0,1,2.41,5.74A7.83,7.83,0,0,1,315.48,295.71ZM306,287.38a3.55,3.55,0,1,0,5,5,3.47,3.47,0,0,0,1.08-2.49,3.78,3.78,0,0,0-1.08-2.55,3.59,3.59,0,0,0-5,0Z"/><path d="M326.71,305.79h-5.6V282.13h5.6v1.71a5.87,5.87,0,0,1,4.8-2.24,7.78,7.78,0,0,1,5.56,2.28,8.88,8.88,0,0,1-.14,12.25,7.53,7.53,0,0,1-5.35,2.17,6.66,6.66,0,0,1-4.87-2Zm.91-18.38a3.53,3.53,0,0,0,0,5.08,3.62,3.62,0,0,0,2.52,1.05,3.41,3.41,0,0,0,2.49-1.05,3.73,3.73,0,0,0,1.08-2.49,3.82,3.82,0,0,0-1.08-2.59,3.41,3.41,0,0,0-2.49-1.05A3.62,3.62,0,0,0,327.62,287.41Z"/><path d="M359.26,291H347.61a4,4,0,0,0,1,2.63,3.15,3.15,0,0,0,2.31.77,4.51,4.51,0,0,0,1.82-.42,2.64,2.64,0,0,0,1-1h5.35a7,7,0,0,1-1.89,3.22c-1.15,1.12-3,2.17-6.37,2.17a8.88,8.88,0,0,1-6.47-2.38A8.19,8.19,0,0,1,342,290a8.36,8.36,0,0,1,2.34-6.05,8.83,8.83,0,0,1,6.41-2.28,8.58,8.58,0,0,1,6,2.14,8.77,8.77,0,0,1,2.48,6.58Zm-5.14-3.22a3.78,3.78,0,0,0-.91-1.68,3.29,3.29,0,0,0-2.31-.84,3,3,0,0,0-2.28.84,3.27,3.27,0,0,0-.84,1.68Z"/><path d="M362.48,282.13h5.6v2.55a5.06,5.06,0,0,1,2.21-2.17,6.15,6.15,0,0,1,2.9-.63c.14,0,.39,0,1.12.07v5.29a4.93,4.93,0,0,0-2.41-.56,3.66,3.66,0,0,0-2.56.84,4.72,4.72,0,0,0-1.26,3.57v6.68h-5.6Z"/><path d="M388.91,282.13h5.6v15.64h-5.6v-1.71A5.87,5.87,0,0,1,384,298.3a7.5,7.5,0,0,1-5.64-2.49,7.9,7.9,0,0,1-2.24-5.74,8.64,8.64,0,0,1,2.42-6.26,8.07,8.07,0,0,1,5.64-2.21,6.22,6.22,0,0,1,4.69,2ZM383,287.38a3.52,3.52,0,0,0,0,5.11,4,4,0,0,0,2.52,1.05,3.6,3.6,0,0,0,2.52-1.09,3.4,3.4,0,0,0,1.05-2.52,3.47,3.47,0,0,0-1.08-2.55,3.54,3.54,0,0,0-5,0Z"/><path d="M398.35,282.13H404v2.55a5.11,5.11,0,0,1,2.21-2.17,6.19,6.19,0,0,1,2.91-.63c.14,0,.38,0,1.12.07v5.29a5,5,0,0,0-2.42-.56,3.63,3.63,0,0,0-2.55.84,4.69,4.69,0,0,0-1.27,3.57v6.68h-5.6Z"/><path d="M429.26,291H417.6a4,4,0,0,0,1,2.63,3.16,3.16,0,0,0,2.32.77,4.54,4.54,0,0,0,1.82-.42,2.62,2.62,0,0,0,1-1h5.36a7,7,0,0,1-1.89,3.22c-1.15,1.12-3,2.17-6.37,2.17a8.9,8.9,0,0,1-6.48-2.38A8.23,8.23,0,0,1,412,290a8.33,8.33,0,0,1,2.35-6.05,8.79,8.79,0,0,1,6.4-2.28,8.57,8.57,0,0,1,6,2.14,8.75,8.75,0,0,1,2.49,6.58Zm-5.15-3.22a3.68,3.68,0,0,0-.91-1.68,3.27,3.27,0,0,0-2.3-.84,3,3,0,0,0-2.28.84,3.12,3.12,0,0,0-.84,1.68Z"/></svg>