<svg id="Layer_1" data-name="Layer 1" xmlns="http://www.w3.org/2000/svg" viewBox="0 0 1970 840"><title>Cap 2 -</title><path d="M220.23,357.94l-5.07-16.11H185.57c-4.58,0-8.32,5.44-8.32,12.09v49.33c0,6.65,3.74,12.08,8.32,12.08h81.11c4.58,0,8.32-5.43,8.32-12.08V357.94Z" style="fill:none;stroke:#3a5c84;stroke-miterlimit:10;stroke-width:5px"/><line x1="235.78" y1="390.56" x2="248.95" y2="390.56" style="fill:none;stroke:#3a5c84;stroke-miterlimit:10;stroke-width:5px"/><line x1="235.78" y1="396.8" x2="267.67" y2="396.8" style="fill:none;stroke:#3a5c84;stroke-miterlimit:10;stroke-width:5px"/><line x1="235.78" y1="403.04" x2="266.97" y2="403.04" style="fill:none;stroke:#3a5c84;stroke-miterlimit:10;stroke-width:5px"/><path d="M438.47,122.93l-5.07-11.1H403.81a8.35,8.35,0,0,0-8.32,8.32v34a8.34,8.34,0,0,0,8.32,8.32h81.11a8.34,8.34,0,0,0,8.32-8.32V122.93Z" style="fill:none;stroke:#4fc2c9;stroke-miterlimit:10;stroke-width:5px"/><rect x="409.01" y="149.96" width="72.8" height="8.32" style="fill:none;stroke:#4fc2c9;stroke-miterlimit:10;stroke-width:3px"/><rect x="412.82" y="141.64" width="65.17" height="8.32" style="fill:none;stroke:#4fc2c9;stroke-miterlimit:10;stroke-width:3px"/><rect x="418.02" y="132.63" width="54.77" height="8.32" style="fill:none;stroke:#4fc2c9;stroke-miterlimit:10;stroke-width:3px"/><path d="M488,219.33H398.61a8.34,8.34,0,0,1-8.32-8.32L384.74,166a8.35,8.35,0,0,1,8.32-8.32H493.59a8.35,8.35,0,0,1,8.32,8.32L496.36,211A8.34,8.34,0,0,1,488,219.33Z" style="fill:#fff;stroke:#4fc2c9;stroke-miterlimit:10;stroke-width:5px"/><rect x="439.17" y="185.02" width="45.76" height="23.57" style="fill:none;stroke:#4fc2c9;stroke-miterlimit:10;stroke-width:3px"/><line x1="444.02" y1="190.56" x2="457.19" y2="190.56" style="fill:none;stroke:#4fc2c9;stroke-miterlimit:10;stroke-width:3px"/><line x1="444.02" y1="196.8" x2="475.91" y2="196.8" style="fill:none;stroke:#4fc2c9;stroke-miterlimit:10;stroke-width:3px"/><line x1="444.02" y1="203.04" x2="475.22" y2="203.04" style="fill:none;stroke:#4fc2c9;stroke-miterlimit:10;stroke-width:3px"/><path d="M378.89,80.31v-20h6.81a11.16,11.16,0,0,1,7.95,2.76,9.77,9.77,0,0,1,2.79,7.29,9.23,9.23,0,0,1-2.61,6.93,10.87,10.87,0,0,1-7.68,3Zm5.19-4.41h1.05a6,6,0,0,0,4.38-1.44A5.45,5.45,0,0,0,391,70.35,6,6,0,0,0,389.48,66a5.83,5.83,0,0,0-4.14-1.26h-1.26Z"/><path d="M401.69,58.62a2.7,2.7,0,1,1-2.7,2.7A2.69,2.69,0,0,1,401.69,58.62Zm2.4,8.28V80.31h-4.8V66.9Z"/><path d="M407.36,66.9h4.8v2.19a4.33,4.33,0,0,1,1.89-1.86,5.24,5.24,0,0,1,2.49-.54l1,.06v4.53a4.27,4.27,0,0,0-2.07-.48,3.14,3.14,0,0,0-2.19.72,4,4,0,0,0-1.08,3.06v5.73h-4.8Z"/><path d="M433.84,74.49h-10a3.39,3.39,0,0,0,.84,2.25,2.7,2.7,0,0,0,2,.66,3.79,3.79,0,0,0,1.56-.36,2.23,2.23,0,0,0,.84-.9h4.59A6,6,0,0,1,432,78.9c-1,1-2.54,1.86-5.45,1.86a7.61,7.61,0,0,1-5.55-2,7,7,0,0,1-2-5.07,7.16,7.16,0,0,1,2-5.19,7.55,7.55,0,0,1,5.49-1.95,7.31,7.31,0,0,1,5.15,1.83A7.47,7.47,0,0,1,433.84,74Zm-4.4-2.76a3.32,3.32,0,0,0-.78-1.44,2.8,2.8,0,0,0-2-.72,2.58,2.58,0,0,0-1.95.72,2.74,2.74,0,0,0-.72,1.44Z"/><path d="M446.75,80a7.12,7.12,0,0,1-3.33.75,7.41,7.41,0,0,1-5.28-2,7,7,0,0,1-2.07-5,7.3,7.3,0,0,1,2.16-5.19,7.73,7.73,0,0,1,5.4-2,6.91,6.91,0,0,1,3.12.75v4a4.3,4.3,0,0,0-2.49-.87,3.15,3.15,0,0,0-2.34.93,3.26,3.26,0,0,0-.93,2.31,3.44,3.44,0,0,0,.84,2.25,3.26,3.26,0,0,0,2.46,1,3.63,3.63,0,0,0,2.46-.9Z"/><path d="M455.08,70.83v9.48h-4.8V70.83h-1.53V66.9h1.53V62.49h4.8V66.9h2.73v3.93Z"/><path d="M473.11,78.54a9.18,9.18,0,0,1-12,0,6.92,6.92,0,0,1,0-9.87,8.37,8.37,0,0,1,6-2.22,8.47,8.47,0,0,1,6,2.22,6.92,6.92,0,0,1,0,9.87ZM465,71.4a3.06,3.06,0,0,0,2.16,5.22,3.05,3.05,0,0,0,2.13-.9,3,3,0,0,0,.93-2.13,3.26,3.26,0,0,0-.93-2.19,3.08,3.08,0,0,0-4.29,0Z"/><path d="M477.94,66.9h4.8v2.19a4.33,4.33,0,0,1,1.89-1.86,5.24,5.24,0,0,1,2.49-.54l1,.06v4.53A4.23,4.23,0,0,0,486,70.8a3.14,3.14,0,0,0-2.19.72,4,4,0,0,0-1.08,3.06v5.73h-4.8Z"/><path d="M502.57,64.71h-2.85V60.3h8v20h-5.19Z"/><line x1="222.82" y1="161.33" x2="366.82" y2="161.33" style="fill:none;stroke:#4fc2c9;stroke-miterlimit:10;stroke-width:5px"/><line x1="300.82" y1="384.83" x2="444.82" y2="384.83" style="fill:none;stroke:#3a5c84;stroke-miterlimit:10;stroke-width:5px"/><line x1="519.82" y1="161.83" x2="663.82" y2="161.83" style="fill:none;stroke:#4fc2c9;stroke-miterlimit:10;stroke-width:5px"/><polygon points="213.27 181.23 213.27 239.99 204.8 239.99 222.8 257.99 240.8 239.99 232.33 239.99 232.33 181.23 213.27 181.23" style="fill:none;stroke:#4fc2c9;stroke-miterlimit:10;stroke-width:5px"/><polygon points="419.27 412.23 419.27 470.99 410.8 470.99 428.8 488.99 446.8 470.99 438.33 470.99 438.33 412.23 419.27 412.23" style="fill:none;stroke:#3a5c84;stroke-miterlimit:10;stroke-width:5px"/><polygon points="652.27 181.23 652.27 239.99 643.8 239.99 661.8 257.99 679.8 239.99 671.33 239.99 671.33 181.23 652.27 181.23" style="fill:none;stroke:#4fc2c9;stroke-miterlimit:10;stroke-width:5px"/><line x1="405.09" y1="586.22" x2="456.98" y2="586.22" style="fill:none;stroke:#91c54f;stroke-miterlimit:10;stroke-width:5px"/><line x1="405.09" y1="572.8" x2="456.98" y2="572.8" style="fill:none;stroke:#91c54f;stroke-miterlimit:10;stroke-width:5px"/><line x1="405.09" y1="559.37" x2="456.98" y2="559.37" style="fill:none;stroke:#91c54f;stroke-miterlimit:10;stroke-width:5px"/><line x1="405.09" y1="545.95" x2="456.98" y2="545.95" style="fill:none;stroke:#91c54f;stroke-miterlimit:10;stroke-width:5px"/><line x1="405.09" y1="532.53" x2="426.51" y2="532.53" style="fill:none;stroke:#91c54f;stroke-miterlimit:10;stroke-width:5px"/><path d="M454.26,527.7a7.26,7.26,0,0,1-7.24-7.24V506.89H402.08a7.26,7.26,0,0,0-7.24,7.24v76a7.26,7.26,0,0,0,7.24,7.24H460a7.26,7.26,0,0,0,7.24-7.24V527.7Z" style="fill:none;stroke:#91c54f;stroke-miterlimit:10;stroke-width:5px"/><line x1="405.09" y1="770.22" x2="456.98" y2="770.22" style="fill:none;stroke:#91c54f;stroke-miterlimit:10;stroke-width:5px"/><line x1="405.09" y1="756.8" x2="456.98" y2="756.8" style="fill:none;stroke:#91c54f;stroke-miterlimit:10;stroke-width:5px"/><line x1="405.09" y1="743.37" x2="456.98" y2="743.37" style="fill:none;stroke:#91c54f;stroke-miterlimit:10;stroke-width:5px"/><line x1="405.09" y1="729.95" x2="456.98" y2="729.95" style="fill:none;stroke:#91c54f;stroke-miterlimit:10;stroke-width:5px"/><line x1="405.09" y1="716.53" x2="426.51" y2="716.53" style="fill:none;stroke:#91c54f;stroke-miterlimit:10;stroke-width:5px"/><path d="M454.26,711.7a7.26,7.26,0,0,1-7.24-7.24V690.89H402.08a7.26,7.26,0,0,0-7.24,7.24v76a7.26,7.26,0,0,0,7.24,7.24H460a7.26,7.26,0,0,0,7.24-7.24V711.7Z" style="fill:none;stroke:#91c54f;stroke-miterlimit:10;stroke-width:5px"/><path d="M419.77,649.92a3.12,3.12,0,0,1,2.19-5.31,3.15,3.15,0,0,1,2.22,1,3.12,3.12,0,0,1,0,4.35,3.07,3.07,0,0,1-2.19.93A3,3,0,0,1,419.77,649.92Z"/><path d="M428.86,649.92a3.12,3.12,0,0,1,2.19-5.31,3.15,3.15,0,0,1,2.22,1,3.12,3.12,0,0,1,0,4.35,3.07,3.07,0,0,1-2.19.93A3,3,0,0,1,428.86,649.92Z"/><path d="M438,649.92a3.12,3.12,0,0,1,2.19-5.31,3.15,3.15,0,0,1,2.22,1,3.12,3.12,0,0,1,0,4.35,3.07,3.07,0,0,1-2.19.93A3,3,0,0,1,438,649.92Z"/><path d="M435.2,317.84a3.12,3.12,0,0,1,2.18-5.31,3.15,3.15,0,0,1,2.22,1,3.12,3.12,0,0,1,0,4.35,3.07,3.07,0,0,1-2.19.93A3,3,0,0,1,435.2,317.84Z"/><path d="M444.28,317.84a3.12,3.12,0,0,1,2.19-5.31,3.15,3.15,0,0,1,2.22,1,3.12,3.12,0,0,1,0,4.35,3.07,3.07,0,0,1-2.19.93A3,3,0,0,1,444.28,317.84Z"/><path d="M453.37,317.84a3.12,3.12,0,0,1,2.19-5.31,3.15,3.15,0,0,1,2.22,1,3.12,3.12,0,0,1,0,4.35,3.07,3.07,0,0,1-2.19.93A3,3,0,0,1,453.37,317.84Z"/><path d="M1374.47,122.93l-5.07-11.1h-29.59a8.35,8.35,0,0,0-8.32,8.32v34a8.34,8.34,0,0,0,8.32,8.32h81.11a8.34,8.34,0,0,0,8.32-8.32V122.93Z" style="fill:none;stroke:#4fc2c9;stroke-miterlimit:10;stroke-width:5px"/><rect x="1345.01" y="149.96" width="72.8" height="8.32" style="fill:none;stroke:#4fc2c9;stroke-miterlimit:10;stroke-width:3px"/><rect x="1348.82" y="141.64" width="65.17" height="8.32" style="fill:none;stroke:#4fc2c9;stroke-miterlimit:10;stroke-width:3px"/><rect x="1354.02" y="132.63" width="54.77" height="8.32" style="fill:none;stroke:#4fc2c9;stroke-miterlimit:10;stroke-width:3px"/><path d="M1424,219.33h-89.43a8.34,8.34,0,0,1-8.32-8.32L1320.74,166a8.35,8.35,0,0,1,8.32-8.32h100.53a8.35,8.35,0,0,1,8.32,8.32L1432.36,211A8.34,8.34,0,0,1,1424,219.33Z" style="fill:#fff;stroke:#4fc2c9;stroke-miterlimit:10;stroke-width:5px"/><rect x="1375.17" y="185.02" width="45.76" height="23.57" style="fill:none;stroke:#4fc2c9;stroke-miterlimit:10;stroke-width:3px"/><line x1="1380.02" y1="190.56" x2="1393.19" y2="190.56" style="fill:none;stroke:#4fc2c9;stroke-miterlimit:10;stroke-width:3px"/><line x1="1380.02" y1="196.8" x2="1411.91" y2="196.8" style="fill:none;stroke:#4fc2c9;stroke-miterlimit:10;stroke-width:3px"/><line x1="1380.02" y1="203.04" x2="1411.22" y2="203.04" style="fill:none;stroke:#4fc2c9;stroke-miterlimit:10;stroke-width:3px"/><path d="M1295.55,80.31v-20h6.81a11.16,11.16,0,0,1,8,2.76,9.77,9.77,0,0,1,2.79,7.29,9.23,9.23,0,0,1-2.61,6.93,10.87,10.87,0,0,1-7.68,3Zm5.19-4.41h1a6,6,0,0,0,4.38-1.44,5.45,5.45,0,0,0,1.53-4.11,6,6,0,0,0-1.56-4.38,5.83,5.83,0,0,0-4.14-1.26h-1.26Z"/><path d="M1318.35,58.62a2.7,2.7,0,1,1-2.7,2.7A2.69,2.69,0,0,1,1318.35,58.62Zm2.4,8.28V80.31H1316V66.9Z"/><path d="M1324,66.9h4.8v2.19a4.33,4.33,0,0,1,1.89-1.86,5.24,5.24,0,0,1,2.49-.54l1,.06v4.53a4.23,4.23,0,0,0-2.07-.48,3.14,3.14,0,0,0-2.19.72,4,4,0,0,0-1.08,3.06v5.73H1324Z"/><path d="M1350.51,74.49h-10a3.39,3.39,0,0,0,.84,2.25,2.7,2.7,0,0,0,2,.66,3.79,3.79,0,0,0,1.56-.36,2.23,2.23,0,0,0,.84-.9h4.59a6,6,0,0,1-1.62,2.76c-1,1-2.55,1.86-5.46,1.86a7.61,7.61,0,0,1-5.55-2,7,7,0,0,1-2-5.07,7.16,7.16,0,0,1,2-5.19,7.55,7.55,0,0,1,5.49-1.95,7.35,7.35,0,0,1,5.16,1.83,7.51,7.51,0,0,1,2.13,5.64Zm-4.41-2.76a3.22,3.22,0,0,0-.78-1.44,2.8,2.8,0,0,0-2-.72,2.58,2.58,0,0,0-1.95.72,2.74,2.74,0,0,0-.72,1.44Z"/><path d="M1363.41,80a7.12,7.12,0,0,1-3.33.75,7.41,7.41,0,0,1-5.28-2,7,7,0,0,1-2.07-5,7.3,7.3,0,0,1,2.16-5.19,7.73,7.73,0,0,1,5.4-2,6.88,6.88,0,0,1,3.12.75v4a4.28,4.28,0,0,0-2.49-.87,3.15,3.15,0,0,0-2.34.93,3.26,3.26,0,0,0-.93,2.31,3.44,3.44,0,0,0,.84,2.25,3.26,3.26,0,0,0,2.46,1,3.63,3.63,0,0,0,2.46-.9Z"/><path d="M1371.75,70.83v9.48H1367V70.83h-1.53V66.9H1367V62.49h4.8V66.9h2.73v3.93Z"/><path d="M1389.78,78.54a9.18,9.18,0,0,1-12,0,6.92,6.92,0,0,1,0-9.87,8.37,8.37,0,0,1,6-2.22,8.47,8.47,0,0,1,6,2.22,6.92,6.92,0,0,1,0,9.87Zm-8.13-7.14a3.06,3.06,0,0,0,2.16,5.22,3.05,3.05,0,0,0,2.13-.9,3,3,0,0,0,.93-2.13,3.26,3.26,0,0,0-.93-2.19,3.08,3.08,0,0,0-4.29,0Z"/><path d="M1394.61,66.9h4.8v2.19a4.33,4.33,0,0,1,1.89-1.86,5.24,5.24,0,0,1,2.49-.54l1,.06v4.53a4.23,4.23,0,0,0-2.07-.48,3.14,3.14,0,0,0-2.19.72,4,4,0,0,0-1.08,3.06v5.73h-4.8Z"/><path d="M1419.24,64.71h-2.85V60.3h8v20h-5.19Z"/><path d="M1442.13,78.48a7.82,7.82,0,0,1-11,0,11.34,11.34,0,0,1-3-8.16,11.37,11.37,0,0,1,3-8.19,7.82,7.82,0,0,1,11,0,11.37,11.37,0,0,1,3,8.19A11.34,11.34,0,0,1,1442.13,78.48ZM1435,65.13c-1.08.93-1.74,3.36-1.74,5.22,0,1.59.57,4.2,1.74,5.22a2.32,2.32,0,0,0,3.18,0c1.11-1,1.74-3.48,1.74-5.19s-.69-4.32-1.74-5.25a2.32,2.32,0,0,0-3.18,0Z"/><path d="M1460.13,78.48a7.82,7.82,0,0,1-11,0,11.34,11.34,0,0,1-3-8.16,11.37,11.37,0,0,1,3-8.19,7.82,7.82,0,0,1,11,0,11.37,11.37,0,0,1,3,8.19A11.34,11.34,0,0,1,1460.13,78.48ZM1453,65.13c-1.08.93-1.74,3.36-1.74,5.22,0,1.59.57,4.2,1.74,5.22a2.32,2.32,0,0,0,3.18,0c1.11-1,1.74-3.48,1.74-5.19s-.69-4.32-1.74-5.25a2.32,2.32,0,0,0-3.18,0Z"/><line x1="1158.82" y1="161.33" x2="1302.82" y2="161.33" style="fill:none;stroke:#4fc2c9;stroke-miterlimit:10;stroke-width:5px"/><line x1="1455.82" y1="161.83" x2="1599.82" y2="161.83" style="fill:none;stroke:#4fc2c9;stroke-miterlimit:10;stroke-width:5px"/><polygon points="1149.27 181.23 1149.27 239.99 1140.8 239.99 1158.8 257.99 1176.8 239.99 1168.33 239.99 1168.33 181.23 1149.27 181.23" style="fill:none;stroke:#4fc2c9;stroke-miterlimit:10;stroke-width:5px"/><polygon points="1588.27 181.23 1588.27 239.99 1579.8 239.99 1597.8 257.99 1615.8 239.99 1607.33 239.99 1607.33 181.23 1588.27 181.23" style="fill:none;stroke:#4fc2c9;stroke-miterlimit:10;stroke-width:5px"/><path d="M910.2,71.88a3.12,3.12,0,0,1,2.18-5.31,3.13,3.13,0,0,1,2.22,1,3.12,3.12,0,0,1,0,4.35,3.06,3.06,0,0,1-2.19.93A3,3,0,0,1,910.2,71.88Z"/><path d="M919.28,71.88a3.12,3.12,0,0,1,2.19-5.31,3.15,3.15,0,0,1,2.22,1,3.12,3.12,0,0,1,0,4.35,3.07,3.07,0,0,1-2.19.93A3,3,0,0,1,919.28,71.88Z"/><path d="M928.37,71.88a3.12,3.12,0,0,1,2.19-5.31,3.15,3.15,0,0,1,2.22,1,3.12,3.12,0,0,1,0,4.35,3.07,3.07,0,0,1-2.19.93A3,3,0,0,1,928.37,71.88Z"/><path d="M249.11,543.19v20h-5.18v-20Z"/><path d="M252.86,549.79h4.8v1.62a5.15,5.15,0,0,1,4-1.86,5.46,5.46,0,0,1,2.58.6,4.19,4.19,0,0,1,1.86,1.92,4.71,4.71,0,0,1,1.83-1.86,5.44,5.44,0,0,1,2.79-.66,5.33,5.33,0,0,1,3.72,1.23,4.93,4.93,0,0,1,1.26,3.69v8.73h-4.8v-6.63c0-1.41-.15-2.37-.69-2.88a1.75,1.75,0,0,0-1.26-.45,1.94,1.94,0,0,0-1.41.54,3.43,3.43,0,0,0-.87,2.55v6.87h-4.8v-6.63a4.29,4.29,0,0,0-.63-2.88,1.86,1.86,0,0,0-1.44-.54,1.69,1.69,0,0,0-1.32.48,4,4,0,0,0-.84,2.94v6.63h-4.8Z"/><path d="M289.43,549.79h4.8V563.2h-4.8v-1.47a5,5,0,0,1-4.17,1.92,6.42,6.42,0,0,1-4.83-2.13,6.76,6.76,0,0,1-1.92-4.92,7.42,7.42,0,0,1,2.07-5.37,6.9,6.9,0,0,1,4.83-1.89,5.31,5.31,0,0,1,4,1.74Zm-5,4.5a3.14,3.14,0,0,0-1,2.19,3.09,3.09,0,0,0,.93,2.19,3.37,3.37,0,0,0,2.16.9,3.08,3.08,0,0,0,2.16-.93,2.91,2.91,0,0,0,.9-2.16,3,3,0,0,0-.93-2.19,3,3,0,0,0-4.26,0Z"/><path d="M312.62,549.79v12.57c0,2-.18,3.84-1.83,5.55a8,8,0,0,1-5.91,2.16,8.22,8.22,0,0,1-6.27-2.37,4.88,4.88,0,0,1-1.47-2.79h5.34a2.06,2.06,0,0,0,2.25,1.38,2.92,2.92,0,0,0,2.13-.75,3.23,3.23,0,0,0,1-2.49V561.7a5.1,5.1,0,0,1-4,1.77,6.68,6.68,0,0,1-4.95-1.89,7.08,7.08,0,0,1-1.86-4.89,7.73,7.73,0,0,1,2-5.25,6.74,6.74,0,0,1,4.86-2,5.24,5.24,0,0,1,4,1.77v-1.38Zm-9.78,4.5a3,3,0,0,0,0,4.35,3,3,0,0,0,2.16.87,3.07,3.07,0,0,0,3.06-3.06,3.44,3.44,0,0,0-1-2.19,3,3,0,0,0-2.13-.87A2.86,2.86,0,0,0,302.84,554.29Z"/><path d="M318.32,541.51a2.7,2.7,0,1,1-2.7,2.7A2.69,2.69,0,0,1,318.32,541.51Zm2.4,8.28V563.2h-4.8V549.79Z"/><path d="M324,549.79h4.8v1.68a5.06,5.06,0,0,1,4.26-2,5.42,5.42,0,0,1,4,1.44,4.62,4.62,0,0,1,1.26,3.75v8.52h-4.8v-6.78a3.85,3.85,0,0,0-.6-2.61,2,2,0,0,0-1.53-.57,2.63,2.63,0,0,0-1.77.63,3.08,3.08,0,0,0-.78,2.13v7.2H324Z"/><path d="M355.76,557.38h-10a3.39,3.39,0,0,0,.84,2.25,2.7,2.7,0,0,0,2,.66,3.79,3.79,0,0,0,1.56-.36,2.23,2.23,0,0,0,.84-.9h4.59a6,6,0,0,1-1.62,2.76c-1,1-2.55,1.86-5.46,1.86a7.61,7.61,0,0,1-5.55-2,7,7,0,0,1-2-5.07,7.16,7.16,0,0,1,2-5.19,7.55,7.55,0,0,1,5.49-2,7.35,7.35,0,0,1,5.16,1.83,7.51,7.51,0,0,1,2.13,5.64Zm-4.41-2.76a3.22,3.22,0,0,0-.78-1.44,2.8,2.8,0,0,0-2-.72,2.58,2.58,0,0,0-1.95.72,2.74,2.74,0,0,0-.72,1.44Z"/><path d="M370.88,547.6H368v-4.41h8v20h-5.19Z"/><path d="M209.11,727.19v20h-5.18v-20Z"/><path d="M212.86,733.79h4.8v1.62a5.15,5.15,0,0,1,4-1.86,5.46,5.46,0,0,1,2.58.6,4.19,4.19,0,0,1,1.86,1.92,4.71,4.71,0,0,1,1.83-1.86,5.44,5.44,0,0,1,2.79-.66,5.33,5.33,0,0,1,3.72,1.23,4.93,4.93,0,0,1,1.26,3.69v8.73h-4.8v-6.63c0-1.41-.15-2.37-.69-2.88a1.75,1.75,0,0,0-1.26-.45,1.94,1.94,0,0,0-1.41.54,3.43,3.43,0,0,0-.87,2.55v6.87h-4.8v-6.63a4.29,4.29,0,0,0-.63-2.88,1.86,1.86,0,0,0-1.44-.54,1.69,1.69,0,0,0-1.32.48,4,4,0,0,0-.84,2.94v6.63h-4.8Z"/><path d="M249.43,733.79h4.8V747.2h-4.8v-1.47a5,5,0,0,1-4.17,1.92,6.42,6.42,0,0,1-4.83-2.13,6.76,6.76,0,0,1-1.92-4.92,7.42,7.42,0,0,1,2.07-5.37,6.9,6.9,0,0,1,4.83-1.89,5.31,5.31,0,0,1,4,1.74Zm-5,4.5a3.14,3.14,0,0,0-1,2.19,3.09,3.09,0,0,0,.93,2.19,3.37,3.37,0,0,0,2.16.9,3.08,3.08,0,0,0,2.16-.93,2.91,2.91,0,0,0,.9-2.16,3,3,0,0,0-.93-2.19,3,3,0,0,0-4.26,0Z"/><path d="M272.62,733.79v12.57c0,2-.18,3.84-1.83,5.55a8,8,0,0,1-5.91,2.16,8.22,8.22,0,0,1-6.27-2.37,4.88,4.88,0,0,1-1.47-2.79h5.34a2.06,2.06,0,0,0,2.25,1.38,2.92,2.92,0,0,0,2.13-.75,3.23,3.23,0,0,0,1-2.49V745.7a5.1,5.1,0,0,1-4,1.77,6.68,6.68,0,0,1-4.95-1.89,7.08,7.08,0,0,1-1.86-4.89,7.73,7.73,0,0,1,2-5.25,6.74,6.74,0,0,1,4.86-2,5.24,5.24,0,0,1,4,1.77v-1.38Zm-9.78,4.5a3,3,0,0,0,0,4.35,3,3,0,0,0,2.16.87,3.07,3.07,0,0,0,3.06-3.06,3.44,3.44,0,0,0-1-2.19,3,3,0,0,0-2.13-.87A2.86,2.86,0,0,0,262.84,738.29Z"/><path d="M278.32,725.51a2.7,2.7,0,1,1-2.7,2.7A2.69,2.69,0,0,1,278.32,725.51Zm2.4,8.28V747.2h-4.8V733.79Z"/><path d="M284,733.79h4.8v1.68a5.06,5.06,0,0,1,4.26-2,5.42,5.42,0,0,1,4,1.44,4.62,4.62,0,0,1,1.26,3.75v8.52h-4.8v-6.78a3.85,3.85,0,0,0-.6-2.61,2,2,0,0,0-1.53-.57,2.63,2.63,0,0,0-1.77.63,3.08,3.08,0,0,0-.78,2.13v7.2H284Z"/><path d="M315.76,741.38h-10a3.39,3.39,0,0,0,.84,2.25,2.7,2.7,0,0,0,2,.66,3.79,3.79,0,0,0,1.56-.36,2.23,2.23,0,0,0,.84-.9h4.59a6,6,0,0,1-1.62,2.76c-1,1-2.55,1.86-5.46,1.86a7.61,7.61,0,0,1-5.55-2,7,7,0,0,1-2-5.07,7.16,7.16,0,0,1,2-5.19,7.55,7.55,0,0,1,5.49-2,7.35,7.35,0,0,1,5.16,1.83,7.51,7.51,0,0,1,2.13,5.64Zm-4.41-2.76a3.22,3.22,0,0,0-.78-1.44,2.8,2.8,0,0,0-2-.72,2.58,2.58,0,0,0-1.95.72,2.74,2.74,0,0,0-.72,1.44Z"/><path d="M330.88,731.6H328v-4.41h8v20h-5.19Z"/><path d="M353.77,745.37a7.82,7.82,0,0,1-11,0,12.74,12.74,0,0,1,0-16.35,7.82,7.82,0,0,1,11,0,12.74,12.74,0,0,1,0,16.35ZM346.66,732c-1.08.93-1.74,3.36-1.74,5.22,0,1.59.57,4.2,1.74,5.22a2.32,2.32,0,0,0,3.18,0c1.11-1,1.74-3.48,1.74-5.19s-.69-4.32-1.74-5.25a2.32,2.32,0,0,0-3.18,0Z"/><path d="M371.77,745.37a7.82,7.82,0,0,1-11,0,12.74,12.74,0,0,1,0-16.35,7.82,7.82,0,0,1,11,0,12.74,12.74,0,0,1,0,16.35ZM364.66,732c-1.08.93-1.74,3.36-1.74,5.22,0,1.59.57,4.2,1.74,5.22a2.32,2.32,0,0,0,3.18,0c1.11-1,1.74-3.48,1.74-5.19s-.69-4.32-1.74-5.25a2.32,2.32,0,0,0-3.18,0Z"/><path d="M138,312.2a7,7,0,0,0,4.59,2,2.63,2.63,0,0,0,2-.69,1.79,1.79,0,0,0,.51-1.26,1.56,1.56,0,0,0-.57-1.2,7.21,7.21,0,0,0-2.58-1l-1.35-.42a6.54,6.54,0,0,1-2.88-1.62,5,5,0,0,1-1.14-3.54,6.54,6.54,0,0,1,1.83-4.83,7.05,7.05,0,0,1,5.13-1.89,14.06,14.06,0,0,1,6.18,1.62l-2.07,4.05a5.28,5.28,0,0,0-3.42-1.35,2.49,2.49,0,0,0-1.71.6,1.48,1.48,0,0,0-.51,1.08,1.34,1.34,0,0,0,.27.9,3.28,3.28,0,0,0,1.74.9l1.59.48a7.64,7.64,0,0,1,3.63,2,4.72,4.72,0,0,1,1.29,3.57,6.78,6.78,0,0,1-1.89,5,7.76,7.76,0,0,1-5.91,2,10.7,10.7,0,0,1-3.93-.66,14,14,0,0,1-3-1.59Z"/><path d="M158.14,304.79v7.5a2.57,2.57,0,0,0,.72,1.95,2.48,2.48,0,0,0,1.68.51,2.24,2.24,0,0,0,1.71-.57,2.49,2.49,0,0,0,.69-1.89v-7.5h4.8v8.37a4.6,4.6,0,0,1-1.29,3.6c-1.65,1.71-4,1.89-5.79,1.89-2,0-4.47-.21-6.06-1.92a4.82,4.82,0,0,1-1.26-3.57v-8.37Z"/><path d="M175.84,296.33v9.75a5.31,5.31,0,0,1,4-1.74,6.86,6.86,0,0,1,4.74,1.8,7.31,7.31,0,0,1,2.19,5.31,7.4,7.4,0,0,1-2.16,5.34,6.42,6.42,0,0,1-4.71,1.86,4.92,4.92,0,0,1-4-1.92v1.47H171V296.33Zm5.07,17.34a3,3,0,0,0,.93-2.1,3.29,3.29,0,0,0-.93-2.28,3.08,3.08,0,0,0-4.32,0,3.51,3.51,0,0,0-.9,2.16,3.22,3.22,0,0,0,1,2.28,3.28,3.28,0,0,0,2.07.81A3,3,0,0,0,180.91,313.67Z"/><path d="M204.7,318.2h-4.8v-1.47a4.92,4.92,0,0,1-4.05,1.92,6.42,6.42,0,0,1-4.71-1.86,7.4,7.4,0,0,1-2.16-5.34,7.31,7.31,0,0,1,2.19-5.31,6.86,6.86,0,0,1,4.74-1.8,5.31,5.31,0,0,1,4,1.74v-9.75h4.8ZM199,313.76a3.22,3.22,0,0,0,1-2.28,3.51,3.51,0,0,0-.9-2.16,3.08,3.08,0,0,0-4.32,0,3.29,3.29,0,0,0-.93,2.28,3,3,0,0,0,.93,2.1,3,3,0,0,0,2.13.9A3.28,3.28,0,0,0,199,313.76Z"/><path d="M210.4,296.51a2.7,2.7,0,1,1-2.7,2.7A2.69,2.69,0,0,1,210.4,296.51Zm2.4,8.28V318.2H208V304.79Z"/><path d="M216.07,304.79h4.8V307a4.33,4.33,0,0,1,1.89-1.86,5.24,5.24,0,0,1,2.49-.54l1,.06v4.53a4.23,4.23,0,0,0-2.07-.48,3.14,3.14,0,0,0-2.19.72,4,4,0,0,0-1.08,3.06v5.73h-4.8Z"/><path d="M242.56,312.38h-10a3.39,3.39,0,0,0,.84,2.25,2.7,2.7,0,0,0,2,.66,3.79,3.79,0,0,0,1.56-.36,2.23,2.23,0,0,0,.84-.9h4.59a6,6,0,0,1-1.62,2.76c-1,1-2.55,1.86-5.46,1.86a7.61,7.61,0,0,1-5.55-2,7,7,0,0,1-2-5.07,7.16,7.16,0,0,1,2-5.19,7.55,7.55,0,0,1,5.49-2,7.35,7.35,0,0,1,5.16,1.83,7.51,7.51,0,0,1,2.13,5.64Zm-4.41-2.76a3.22,3.22,0,0,0-.78-1.44,2.8,2.8,0,0,0-2-.72,2.58,2.58,0,0,0-1.95.72,2.74,2.74,0,0,0-.72,1.44Z"/><path d="M255.46,317.9a7.12,7.12,0,0,1-3.33.75,7.41,7.41,0,0,1-5.28-2,7,7,0,0,1-2.07-5,7.3,7.3,0,0,1,2.16-5.19,7.73,7.73,0,0,1,5.4-2,6.88,6.88,0,0,1,3.12.75v4a4.28,4.28,0,0,0-2.49-.87,3.15,3.15,0,0,0-2.34.93,3.26,3.26,0,0,0-.93,2.31,3.44,3.44,0,0,0,.84,2.25,3.26,3.26,0,0,0,2.46,1,3.63,3.63,0,0,0,2.46-.9Z"/><path d="M263.8,308.72v9.48H259v-9.48h-1.53v-3.93H259v-4.41h4.8v4.41h2.73v3.93Z"/><path d="M281.83,316.43a9.18,9.18,0,0,1-12,0,6.92,6.92,0,0,1,0-9.87,8.37,8.37,0,0,1,6-2.22,8.47,8.47,0,0,1,6,2.22,6.92,6.92,0,0,1,0,9.87Zm-8.13-7.14a3.06,3.06,0,0,0,2.16,5.22,3.05,3.05,0,0,0,2.13-.9,3,3,0,0,0,.93-2.13,3.26,3.26,0,0,0-.93-2.19,3.08,3.08,0,0,0-4.29,0Z"/><path d="M286.66,304.79h4.8V307a4.33,4.33,0,0,1,1.89-1.86,5.24,5.24,0,0,1,2.49-.54l1,.06v4.53a4.23,4.23,0,0,0-2.07-.48,3.14,3.14,0,0,0-2.19.72,4,4,0,0,0-1.08,3.06v5.73h-4.8Z"/><path d="M311.29,302.6h-2.85v-4.41h8v20h-5.19Z"/><path d="M646.23,357.94l-5.07-16.11H611.57c-4.58,0-8.32,5.44-8.32,12.09v49.33c0,6.65,3.74,12.08,8.32,12.08h81.11c4.58,0,8.32-5.43,8.32-12.08V357.94Z" style="fill:none;stroke:#3a5c84;stroke-miterlimit:10;stroke-width:5px"/><line x1="661.78" y1="390.56" x2="674.95" y2="390.56" style="fill:none;stroke:#3a5c84;stroke-miterlimit:10;stroke-width:5px"/><line x1="661.78" y1="396.8" x2="693.67" y2="396.8" style="fill:none;stroke:#3a5c84;stroke-miterlimit:10;stroke-width:5px"/><line x1="661.78" y1="403.04" x2="692.97" y2="403.04" style="fill:none;stroke:#3a5c84;stroke-miterlimit:10;stroke-width:5px"/><line x1="726.82" y1="384.83" x2="870.82" y2="384.83" style="fill:none;stroke:#3a5c84;stroke-miterlimit:10;stroke-width:5px"/><polygon points="845.27 412.23 845.27 470.99 836.8 470.99 854.8 488.99 872.8 470.99 864.33 470.99 864.33 412.23 845.27 412.23" style="fill:none;stroke:#3a5c84;stroke-miterlimit:10;stroke-width:5px"/><line x1="831.09" y1="586.22" x2="882.98" y2="586.22" style="fill:none;stroke:#91c54f;stroke-miterlimit:10;stroke-width:5px"/><line x1="831.09" y1="572.8" x2="882.98" y2="572.8" style="fill:none;stroke:#91c54f;stroke-miterlimit:10;stroke-width:5px"/><line x1="831.09" y1="559.37" x2="882.98" y2="559.37" style="fill:none;stroke:#91c54f;stroke-miterlimit:10;stroke-width:5px"/><line x1="831.09" y1="545.95" x2="882.98" y2="545.95" style="fill:none;stroke:#91c54f;stroke-miterlimit:10;stroke-width:5px"/><line x1="831.09" y1="532.53" x2="852.51" y2="532.53" style="fill:none;stroke:#91c54f;stroke-miterlimit:10;stroke-width:5px"/><path d="M880.26,527.7a7.26,7.26,0,0,1-7.24-7.24V506.89H828.08a7.26,7.26,0,0,0-7.24,7.24v76a7.26,7.26,0,0,0,7.24,7.24H886a7.26,7.26,0,0,0,7.24-7.24V527.7Z" style="fill:none;stroke:#91c54f;stroke-miterlimit:10;stroke-width:5px"/><line x1="831.09" y1="770.22" x2="882.98" y2="770.22" style="fill:none;stroke:#91c54f;stroke-miterlimit:10;stroke-width:5px"/><line x1="831.09" y1="756.8" x2="882.98" y2="756.8" style="fill:none;stroke:#91c54f;stroke-miterlimit:10;stroke-width:5px"/><line x1="831.09" y1="743.37" x2="882.98" y2="743.37" style="fill:none;stroke:#91c54f;stroke-miterlimit:10;stroke-width:5px"/><line x1="831.09" y1="729.95" x2="882.98" y2="729.95" style="fill:none;stroke:#91c54f;stroke-miterlimit:10;stroke-width:5px"/><line x1="831.09" y1="716.53" x2="852.51" y2="716.53" style="fill:none;stroke:#91c54f;stroke-miterlimit:10;stroke-width:5px"/><path d="M880.26,711.7a7.26,7.26,0,0,1-7.24-7.24V690.89H828.08a7.26,7.26,0,0,0-7.24,7.24v76a7.26,7.26,0,0,0,7.24,7.24H886a7.26,7.26,0,0,0,7.24-7.24V711.7Z" style="fill:none;stroke:#91c54f;stroke-miterlimit:10;stroke-width:5px"/><path d="M845.77,649.92a3.12,3.12,0,0,1,2.19-5.31,3.15,3.15,0,0,1,2.22,1,3.12,3.12,0,0,1,0,4.35,3.07,3.07,0,0,1-2.19.93A3,3,0,0,1,845.77,649.92Z"/><path d="M854.86,649.92a3.12,3.12,0,0,1,2.19-5.31,3.15,3.15,0,0,1,2.22,1,3.12,3.12,0,0,1,0,4.35,3.07,3.07,0,0,1-2.19.93A3,3,0,0,1,854.86,649.92Z"/><path d="M864,649.92a3.12,3.12,0,0,1,2.19-5.31,3.15,3.15,0,0,1,2.22,1,3.12,3.12,0,0,1,0,4.35,3.07,3.07,0,0,1-2.19.93A3,3,0,0,1,864,649.92Z"/><path d="M675.11,543.19v20h-5.18v-20Z"/><path d="M678.86,549.79h4.8v1.62a5.15,5.15,0,0,1,4-1.86,5.46,5.46,0,0,1,2.58.6,4.19,4.19,0,0,1,1.86,1.92,4.71,4.71,0,0,1,1.83-1.86,5.44,5.44,0,0,1,2.79-.66,5.33,5.33,0,0,1,3.72,1.23,4.93,4.93,0,0,1,1.26,3.69v8.73h-4.8v-6.63c0-1.41-.15-2.37-.69-2.88a1.75,1.75,0,0,0-1.26-.45,1.94,1.94,0,0,0-1.41.54,3.43,3.43,0,0,0-.87,2.55v6.87h-4.8v-6.63a4.29,4.29,0,0,0-.63-2.88,1.86,1.86,0,0,0-1.44-.54,1.69,1.69,0,0,0-1.32.48,4,4,0,0,0-.84,2.94v6.63h-4.8Z"/><path d="M715.43,549.79h4.8V563.2h-4.8v-1.47a5,5,0,0,1-4.17,1.92,6.42,6.42,0,0,1-4.83-2.13,6.76,6.76,0,0,1-1.92-4.92,7.42,7.42,0,0,1,2.07-5.37,6.9,6.9,0,0,1,4.83-1.89,5.31,5.31,0,0,1,4,1.74Zm-5,4.5a3.14,3.14,0,0,0-1,2.19,3.09,3.09,0,0,0,.93,2.19,3.37,3.37,0,0,0,2.16.9,3.08,3.08,0,0,0,2.16-.93,2.91,2.91,0,0,0,.9-2.16,3,3,0,0,0-.93-2.19,3,3,0,0,0-4.26,0Z"/><path d="M738.62,549.79v12.57c0,2-.18,3.84-1.83,5.55a8,8,0,0,1-5.91,2.16,8.22,8.22,0,0,1-6.27-2.37,4.88,4.88,0,0,1-1.47-2.79h5.34a2.06,2.06,0,0,0,2.25,1.38,2.92,2.92,0,0,0,2.13-.75,3.23,3.23,0,0,0,1-2.49V561.7a5.1,5.1,0,0,1-4,1.77,6.68,6.68,0,0,1-4.95-1.89,7.08,7.08,0,0,1-1.86-4.89,7.73,7.73,0,0,1,2-5.25,6.74,6.74,0,0,1,4.86-2,5.24,5.24,0,0,1,4,1.77v-1.38Zm-9.78,4.5a3,3,0,0,0,0,4.35,3,3,0,0,0,2.16.87,3.07,3.07,0,0,0,3.06-3.06,3.44,3.44,0,0,0-1-2.19,3,3,0,0,0-2.13-.87A2.86,2.86,0,0,0,728.84,554.29Z"/><path d="M744.32,541.51a2.7,2.7,0,1,1-2.7,2.7A2.69,2.69,0,0,1,744.32,541.51Zm2.4,8.28V563.2h-4.8V549.79Z"/><path d="M750,549.79h4.8v1.68a5.06,5.06,0,0,1,4.26-2,5.42,5.42,0,0,1,4,1.44,4.62,4.62,0,0,1,1.26,3.75v8.52h-4.8v-6.78a3.85,3.85,0,0,0-.6-2.61,2,2,0,0,0-1.53-.57,2.63,2.63,0,0,0-1.77.63,3.08,3.08,0,0,0-.78,2.13v7.2H750Z"/><path d="M781.76,557.38h-10a3.39,3.39,0,0,0,.84,2.25,2.7,2.7,0,0,0,2,.66,3.79,3.79,0,0,0,1.56-.36,2.23,2.23,0,0,0,.84-.9h4.59a6,6,0,0,1-1.62,2.76c-1,1-2.55,1.86-5.46,1.86a7.61,7.61,0,0,1-5.55-2,7,7,0,0,1-2-5.07,7.16,7.16,0,0,1,2-5.19,7.55,7.55,0,0,1,5.49-2,7.35,7.35,0,0,1,5.16,1.83,7.51,7.51,0,0,1,2.13,5.64Zm-4.41-2.76a3.22,3.22,0,0,0-.78-1.44,2.8,2.8,0,0,0-2-.72,2.58,2.58,0,0,0-2,.72,2.74,2.74,0,0,0-.72,1.44Z"/><path d="M796.88,547.6H794v-4.41h8v20h-5.19Z"/><path d="M635.11,727.19v20h-5.18v-20Z"/><path d="M638.86,733.79h4.8v1.62a5.15,5.15,0,0,1,4-1.86,5.46,5.46,0,0,1,2.58.6,4.19,4.19,0,0,1,1.86,1.92,4.71,4.71,0,0,1,1.83-1.86,5.44,5.44,0,0,1,2.79-.66,5.33,5.33,0,0,1,3.72,1.23,4.93,4.93,0,0,1,1.26,3.69v8.73h-4.8v-6.63c0-1.41-.15-2.37-.69-2.88a1.75,1.75,0,0,0-1.26-.45,1.94,1.94,0,0,0-1.41.54,3.43,3.43,0,0,0-.87,2.55v6.87h-4.8v-6.63a4.29,4.29,0,0,0-.63-2.88,1.86,1.86,0,0,0-1.44-.54,1.69,1.69,0,0,0-1.32.48,4,4,0,0,0-.84,2.94v6.63h-4.8Z"/><path d="M675.43,733.79h4.8V747.2h-4.8v-1.47a5,5,0,0,1-4.17,1.92,6.42,6.42,0,0,1-4.83-2.13,6.76,6.76,0,0,1-1.92-4.92,7.42,7.42,0,0,1,2.07-5.37,6.9,6.9,0,0,1,4.83-1.89,5.31,5.31,0,0,1,4,1.74Zm-5,4.5a3.14,3.14,0,0,0-1,2.19,3.09,3.09,0,0,0,.93,2.19,3.37,3.37,0,0,0,2.16.9,3.08,3.08,0,0,0,2.16-.93,2.91,2.91,0,0,0,.9-2.16,3,3,0,0,0-.93-2.19,3,3,0,0,0-4.26,0Z"/><path d="M698.62,733.79v12.57c0,2-.18,3.84-1.83,5.55a8,8,0,0,1-5.91,2.16,8.22,8.22,0,0,1-6.27-2.37,4.88,4.88,0,0,1-1.47-2.79h5.34a2.06,2.06,0,0,0,2.25,1.38,2.92,2.92,0,0,0,2.13-.75,3.23,3.23,0,0,0,1-2.49V745.7a5.1,5.1,0,0,1-4,1.77,6.68,6.68,0,0,1-4.95-1.89,7.08,7.08,0,0,1-1.86-4.89,7.73,7.73,0,0,1,2-5.25,6.74,6.74,0,0,1,4.86-2,5.24,5.24,0,0,1,4,1.77v-1.38Zm-9.78,4.5a3,3,0,0,0,0,4.35,3,3,0,0,0,2.16.87,3.07,3.07,0,0,0,3.06-3.06,3.44,3.44,0,0,0-1-2.19,3,3,0,0,0-2.13-.87A2.86,2.86,0,0,0,688.84,738.29Z"/><path d="M704.32,725.51a2.7,2.7,0,1,1-2.7,2.7A2.69,2.69,0,0,1,704.32,725.51Zm2.4,8.28V747.2h-4.8V733.79Z"/><path d="M710,733.79h4.8v1.68a5.06,5.06,0,0,1,4.26-2,5.42,5.42,0,0,1,4,1.44,4.62,4.62,0,0,1,1.26,3.75v8.52h-4.8v-6.78a3.85,3.85,0,0,0-.6-2.61,2,2,0,0,0-1.53-.57,2.63,2.63,0,0,0-1.77.63,3.08,3.08,0,0,0-.78,2.13v7.2H710Z"/><path d="M741.76,741.38h-10a3.39,3.39,0,0,0,.84,2.25,2.7,2.7,0,0,0,2,.66,3.79,3.79,0,0,0,1.56-.36,2.23,2.23,0,0,0,.84-.9h4.59a6,6,0,0,1-1.62,2.76c-1,1-2.55,1.86-5.46,1.86a7.61,7.61,0,0,1-5.55-2,7,7,0,0,1-2-5.07,7.16,7.16,0,0,1,2-5.19,7.55,7.55,0,0,1,5.49-2,7.35,7.35,0,0,1,5.16,1.83,7.51,7.51,0,0,1,2.13,5.64Zm-4.41-2.76a3.22,3.22,0,0,0-.78-1.44,2.8,2.8,0,0,0-2-.72,2.58,2.58,0,0,0-2,.72,2.74,2.74,0,0,0-.72,1.44Z"/><path d="M756.88,731.6H754v-4.41h8v20h-5.19Z"/><path d="M779.77,745.37a7.82,7.82,0,0,1-11,0,12.74,12.74,0,0,1,0-16.35,7.82,7.82,0,0,1,11,0,12.74,12.74,0,0,1,0,16.35ZM772.66,732c-1.08.93-1.74,3.36-1.74,5.22,0,1.59.57,4.2,1.74,5.22a2.32,2.32,0,0,0,3.18,0c1.11-1,1.74-3.48,1.74-5.19s-.69-4.32-1.74-5.25a2.32,2.32,0,0,0-3.18,0Z"/><path d="M797.77,745.37a7.82,7.82,0,0,1-11,0,12.74,12.74,0,0,1,0-16.35,7.82,7.82,0,0,1,11,0,12.74,12.74,0,0,1,0,16.35ZM790.66,732c-1.08.93-1.74,3.36-1.74,5.22,0,1.59.57,4.2,1.74,5.22a2.32,2.32,0,0,0,3.18,0c1.11-1,1.74-3.48,1.74-5.19s-.69-4.32-1.74-5.25a2.32,2.32,0,0,0-3.18,0Z"/><path d="M544.65,312.2a7,7,0,0,0,4.59,2,2.63,2.63,0,0,0,2-.69,1.79,1.79,0,0,0,.51-1.26,1.56,1.56,0,0,0-.57-1.2,7.21,7.21,0,0,0-2.58-1l-1.35-.42a6.54,6.54,0,0,1-2.88-1.62,5,5,0,0,1-1.14-3.54,6.54,6.54,0,0,1,1.83-4.83,7.05,7.05,0,0,1,5.13-1.89,14.06,14.06,0,0,1,6.18,1.62l-2.07,4.05a5.28,5.28,0,0,0-3.42-1.35,2.49,2.49,0,0,0-1.71.6,1.48,1.48,0,0,0-.51,1.08,1.34,1.34,0,0,0,.27.9,3.28,3.28,0,0,0,1.74.9l1.59.48a7.64,7.64,0,0,1,3.63,2,4.72,4.72,0,0,1,1.29,3.57,6.78,6.78,0,0,1-1.89,5,7.76,7.76,0,0,1-5.91,2,10.7,10.7,0,0,1-3.93-.66,14,14,0,0,1-3-1.59Z"/><path d="M564.81,304.79v7.5a2.57,2.57,0,0,0,.72,1.95,2.48,2.48,0,0,0,1.68.51,2.24,2.24,0,0,0,1.71-.57,2.49,2.49,0,0,0,.69-1.89v-7.5h4.8v8.37a4.6,4.6,0,0,1-1.29,3.6c-1.65,1.71-4,1.89-5.79,1.89-2,0-4.47-.21-6.06-1.92a4.82,4.82,0,0,1-1.26-3.57v-8.37Z"/><path d="M582.51,296.33v9.75a5.31,5.31,0,0,1,4-1.74,6.86,6.86,0,0,1,4.74,1.8,7.31,7.31,0,0,1,2.19,5.31,7.4,7.4,0,0,1-2.16,5.34,6.42,6.42,0,0,1-4.71,1.86,4.92,4.92,0,0,1-4-1.92v1.47h-4.8V296.33Zm5.07,17.34a3,3,0,0,0,.93-2.1,3.29,3.29,0,0,0-.93-2.28,3.08,3.08,0,0,0-4.32,0,3.51,3.51,0,0,0-.9,2.16,3.22,3.22,0,0,0,1,2.28,3.28,3.28,0,0,0,2.07.81A3,3,0,0,0,587.58,313.67Z"/><path d="M611.37,318.2h-4.8v-1.47a4.92,4.92,0,0,1-4.05,1.92,6.42,6.42,0,0,1-4.71-1.86,7.4,7.4,0,0,1-2.16-5.34,7.31,7.31,0,0,1,2.19-5.31,6.86,6.86,0,0,1,4.74-1.8,5.31,5.31,0,0,1,4,1.74v-9.75h4.8Zm-5.67-4.44a3.22,3.22,0,0,0,1-2.28,3.51,3.51,0,0,0-.9-2.16,3.08,3.08,0,0,0-4.32,0,3.29,3.29,0,0,0-.93,2.28,3,3,0,0,0,.93,2.1,3,3,0,0,0,2.13.9A3.28,3.28,0,0,0,605.7,313.76Z"/><path d="M617.07,296.51a2.7,2.7,0,1,1-2.7,2.7A2.69,2.69,0,0,1,617.07,296.51Zm2.4,8.28V318.2h-4.8V304.79Z"/><path d="M622.74,304.79h4.8V307a4.33,4.33,0,0,1,1.89-1.86,5.24,5.24,0,0,1,2.49-.54l1,.06v4.53a4.23,4.23,0,0,0-2.07-.48,3.14,3.14,0,0,0-2.19.72,4,4,0,0,0-1.08,3.06v5.73h-4.8Z"/><path d="M649.23,312.38h-10a3.39,3.39,0,0,0,.84,2.25,2.7,2.7,0,0,0,2,.66,3.79,3.79,0,0,0,1.56-.36,2.23,2.23,0,0,0,.84-.9h4.59a6,6,0,0,1-1.62,2.76c-1,1-2.55,1.86-5.46,1.86a7.61,7.61,0,0,1-5.55-2,7,7,0,0,1-2-5.07,7.16,7.16,0,0,1,2-5.19,7.55,7.55,0,0,1,5.49-2,7.35,7.35,0,0,1,5.16,1.83,7.51,7.51,0,0,1,2.13,5.64Zm-4.41-2.76a3.22,3.22,0,0,0-.78-1.44,2.8,2.8,0,0,0-2-.72,2.58,2.58,0,0,0-1.95.72,2.74,2.74,0,0,0-.72,1.44Z"/><path d="M662.13,317.9a7.12,7.12,0,0,1-3.33.75,7.41,7.41,0,0,1-5.28-2,7,7,0,0,1-2.07-5,7.3,7.3,0,0,1,2.16-5.19,7.73,7.73,0,0,1,5.4-2,6.88,6.88,0,0,1,3.12.75v4a4.28,4.28,0,0,0-2.49-.87,3.15,3.15,0,0,0-2.34.93,3.26,3.26,0,0,0-.93,2.31,3.44,3.44,0,0,0,.84,2.25,3.26,3.26,0,0,0,2.46,1,3.63,3.63,0,0,0,2.46-.9Z"/><path d="M670.47,308.72v9.48h-4.8v-9.48h-1.53v-3.93h1.53v-4.41h4.8v4.41h2.73v3.93Z"/><path d="M688.5,316.43a9.18,9.18,0,0,1-12,0,6.92,6.92,0,0,1,0-9.87,8.37,8.37,0,0,1,6-2.22,8.47,8.47,0,0,1,6,2.22,6.92,6.92,0,0,1,0,9.87Zm-8.13-7.14a3.06,3.06,0,0,0,2.16,5.22,3.05,3.05,0,0,0,2.13-.9,3,3,0,0,0,.93-2.13,3.26,3.26,0,0,0-.93-2.19,3.08,3.08,0,0,0-4.29,0Z"/><path d="M693.33,304.79h4.8V307a4.33,4.33,0,0,1,1.89-1.86,5.24,5.24,0,0,1,2.49-.54l1,.06v4.53a4.23,4.23,0,0,0-2.07-.48,3.14,3.14,0,0,0-2.19.72,4,4,0,0,0-1.08,3.06v5.73h-4.8Z"/><path d="M718,302.6h-2.85v-4.41h8v20H718Z"/><path d="M740.85,316.37a7.82,7.82,0,0,1-11,0,12.74,12.74,0,0,1,0-16.35,7.82,7.82,0,0,1,11,0,12.74,12.74,0,0,1,0,16.35ZM733.74,303c-1.08.93-1.74,3.36-1.74,5.22,0,1.59.57,4.2,1.74,5.22a2.32,2.32,0,0,0,3.18,0c1.11-1,1.74-3.48,1.74-5.19S738,304,736.92,303a2.32,2.32,0,0,0-3.18,0Z"/><path d="M758.85,316.37a7.82,7.82,0,0,1-11,0,12.74,12.74,0,0,1,0-16.35,7.82,7.82,0,0,1,11,0,12.74,12.74,0,0,1,0,16.35ZM751.74,303c-1.08.93-1.74,3.36-1.74,5.22,0,1.59.57,4.2,1.74,5.22a2.32,2.32,0,0,0,3.18,0c1.11-1,1.74-3.48,1.74-5.19S756,304,754.92,303a2.32,2.32,0,0,0-3.18,0Z"/><path d="M1161.23,357.94l-5.07-16.11h-29.59c-4.58,0-8.32,5.44-8.32,12.09v49.33c0,6.65,3.74,12.08,8.32,12.08h81.11c4.58,0,8.32-5.43,8.32-12.08V357.94Z" style="fill:none;stroke:#3a5c84;stroke-miterlimit:10;stroke-width:5px"/><line x1="1176.78" y1="390.56" x2="1189.95" y2="390.56" style="fill:none;stroke:#3a5c84;stroke-miterlimit:10;stroke-width:5px"/><line x1="1176.78" y1="396.8" x2="1208.67" y2="396.8" style="fill:none;stroke:#3a5c84;stroke-miterlimit:10;stroke-width:5px"/><line x1="1176.78" y1="403.04" x2="1207.97" y2="403.04" style="fill:none;stroke:#3a5c84;stroke-miterlimit:10;stroke-width:5px"/><line x1="1241.82" y1="384.83" x2="1385.82" y2="384.83" style="fill:none;stroke:#3a5c84;stroke-miterlimit:10;stroke-width:5px"/><polygon points="1360.27 412.23 1360.27 470.99 1351.8 470.99 1369.8 488.99 1387.8 470.99 1379.33 470.99 1379.33 412.23 1360.27 412.23" style="fill:none;stroke:#3a5c84;stroke-miterlimit:10;stroke-width:5px"/><line x1="1346.09" y1="586.22" x2="1397.98" y2="586.22" style="fill:none;stroke:#91c54f;stroke-miterlimit:10;stroke-width:5px"/><line x1="1346.09" y1="572.8" x2="1397.98" y2="572.8" style="fill:none;stroke:#91c54f;stroke-miterlimit:10;stroke-width:5px"/><line x1="1346.09" y1="559.37" x2="1397.98" y2="559.37" style="fill:none;stroke:#91c54f;stroke-miterlimit:10;stroke-width:5px"/><line x1="1346.09" y1="545.95" x2="1397.98" y2="545.95" style="fill:none;stroke:#91c54f;stroke-miterlimit:10;stroke-width:5px"/><line x1="1346.09" y1="532.53" x2="1367.51" y2="532.53" style="fill:none;stroke:#91c54f;stroke-miterlimit:10;stroke-width:5px"/><path d="M1395.26,527.7a7.26,7.26,0,0,1-7.24-7.24V506.89h-44.94a7.26,7.26,0,0,0-7.24,7.24v76a7.26,7.26,0,0,0,7.24,7.24H1401a7.26,7.26,0,0,0,7.24-7.24V527.7Z" style="fill:none;stroke:#91c54f;stroke-miterlimit:10;stroke-width:5px"/><line x1="1346.09" y1="770.22" x2="1397.98" y2="770.22" style="fill:none;stroke:#91c54f;stroke-miterlimit:10;stroke-width:5px"/><line x1="1346.09" y1="756.8" x2="1397.98" y2="756.8" style="fill:none;stroke:#91c54f;stroke-miterlimit:10;stroke-width:5px"/><line x1="1346.09" y1="743.37" x2="1397.98" y2="743.37" style="fill:none;stroke:#91c54f;stroke-miterlimit:10;stroke-width:5px"/><line x1="1346.09" y1="729.95" x2="1397.98" y2="729.95" style="fill:none;stroke:#91c54f;stroke-miterlimit:10;stroke-width:5px"/><line x1="1346.09" y1="716.53" x2="1367.51" y2="716.53" style="fill:none;stroke:#91c54f;stroke-miterlimit:10;stroke-width:5px"/><path d="M1395.26,711.7a7.26,7.26,0,0,1-7.24-7.24V690.89h-44.94a7.26,7.26,0,0,0-7.24,7.24v76a7.26,7.26,0,0,0,7.24,7.24H1401a7.26,7.26,0,0,0,7.24-7.24V711.7Z" style="fill:none;stroke:#91c54f;stroke-miterlimit:10;stroke-width:5px"/><path d="M1360.77,649.92a3.12,3.12,0,0,1,2.19-5.31,3.15,3.15,0,0,1,2.22,1,3.12,3.12,0,0,1,0,4.35,3.07,3.07,0,0,1-2.19.93A3,3,0,0,1,1360.77,649.92Z"/><path d="M1369.86,649.92a3.12,3.12,0,0,1,2.19-5.31,3.15,3.15,0,0,1,2.22,1,3.12,3.12,0,0,1,0,4.35,3.07,3.07,0,0,1-2.19.93A3,3,0,0,1,1369.86,649.92Z"/><path d="M1379,649.92a3.12,3.12,0,0,1,2.19-5.31,3.15,3.15,0,0,1,2.22,1,3.12,3.12,0,0,1,0,4.35,3.07,3.07,0,0,1-2.19.93A3,3,0,0,1,1379,649.92Z"/><path d="M1376.2,317.84a3.12,3.12,0,0,1,2.18-5.31,3.15,3.15,0,0,1,2.22,1,3.12,3.12,0,0,1,0,4.35,3.07,3.07,0,0,1-2.19.93A3,3,0,0,1,1376.2,317.84Z"/><path d="M1385.28,317.84a3.12,3.12,0,0,1,2.19-5.31,3.15,3.15,0,0,1,2.22,1,3.12,3.12,0,0,1,0,4.35,3.07,3.07,0,0,1-2.19.93A3,3,0,0,1,1385.28,317.84Z"/><path d="M1394.37,317.84a3.12,3.12,0,0,1,2.19-5.31,3.15,3.15,0,0,1,2.22,1,3.12,3.12,0,0,1,0,4.35,3.07,3.07,0,0,1-2.19.93A3,3,0,0,1,1394.37,317.84Z"/><path d="M1190.11,543.19v20h-5.18v-20Z"/><path d="M1193.86,549.79h4.8v1.62a5.15,5.15,0,0,1,4-1.86,5.46,5.46,0,0,1,2.58.6,4.19,4.19,0,0,1,1.86,1.92,4.71,4.71,0,0,1,1.83-1.86,5.44,5.44,0,0,1,2.79-.66,5.33,5.33,0,0,1,3.72,1.23,4.93,4.93,0,0,1,1.26,3.69v8.73h-4.8v-6.63c0-1.41-.15-2.37-.69-2.88a1.75,1.75,0,0,0-1.26-.45,1.94,1.94,0,0,0-1.41.54,3.43,3.43,0,0,0-.87,2.55v6.87h-4.8v-6.63a4.29,4.29,0,0,0-.63-2.88,1.86,1.86,0,0,0-1.44-.54,1.69,1.69,0,0,0-1.32.48,4,4,0,0,0-.84,2.94v6.63h-4.8Z"/><path d="M1230.43,549.79h4.8V563.2h-4.8v-1.47a5,5,0,0,1-4.17,1.92,6.42,6.42,0,0,1-4.83-2.13,6.76,6.76,0,0,1-1.92-4.92,7.42,7.42,0,0,1,2.07-5.37,6.9,6.9,0,0,1,4.83-1.89,5.31,5.31,0,0,1,4,1.74Zm-5,4.5a3.14,3.14,0,0,0-1,2.19,3.09,3.09,0,0,0,.93,2.19,3.37,3.37,0,0,0,2.16.9,3.08,3.08,0,0,0,2.16-.93,2.91,2.91,0,0,0,.9-2.16,3,3,0,0,0-.93-2.19,3,3,0,0,0-4.26,0Z"/><path d="M1253.62,549.79v12.57c0,2-.18,3.84-1.83,5.55a8,8,0,0,1-5.91,2.16,8.22,8.22,0,0,1-6.27-2.37,4.88,4.88,0,0,1-1.47-2.79h5.34a2.06,2.06,0,0,0,2.25,1.38,2.92,2.92,0,0,0,2.13-.75,3.23,3.23,0,0,0,1-2.49V561.7a5.1,5.1,0,0,1-4,1.77,6.68,6.68,0,0,1-5-1.89,7.08,7.08,0,0,1-1.86-4.89,7.73,7.73,0,0,1,2-5.25,6.74,6.74,0,0,1,4.86-2,5.24,5.24,0,0,1,4,1.77v-1.38Zm-9.78,4.5a3,3,0,0,0,0,4.35,3,3,0,0,0,2.16.87,3.07,3.07,0,0,0,3.06-3.06,3.44,3.44,0,0,0-1-2.19,3,3,0,0,0-2.13-.87A2.86,2.86,0,0,0,1243.84,554.29Z"/><path d="M1259.32,541.51a2.7,2.7,0,1,1-2.7,2.7A2.69,2.69,0,0,1,1259.32,541.51Zm2.4,8.28V563.2h-4.8V549.79Z"/><path d="M1265,549.79h4.8v1.68a5.06,5.06,0,0,1,4.26-2,5.42,5.42,0,0,1,4,1.44,4.62,4.62,0,0,1,1.26,3.75v8.52h-4.8v-6.78a3.85,3.85,0,0,0-.6-2.61,2,2,0,0,0-1.53-.57,2.63,2.63,0,0,0-1.77.63,3.08,3.08,0,0,0-.78,2.13v7.2H1265Z"/><path d="M1296.76,557.38h-10a3.39,3.39,0,0,0,.84,2.25,2.7,2.7,0,0,0,2,.66,3.79,3.79,0,0,0,1.56-.36,2.23,2.23,0,0,0,.84-.9h4.59a6,6,0,0,1-1.62,2.76c-1,1-2.55,1.86-5.46,1.86a7.61,7.61,0,0,1-5.55-2,7,7,0,0,1-2-5.07,7.16,7.16,0,0,1,2-5.19,7.55,7.55,0,0,1,5.49-2,7.35,7.35,0,0,1,5.16,1.83,7.51,7.51,0,0,1,2.13,5.64Zm-4.41-2.76a3.22,3.22,0,0,0-.78-1.44,2.8,2.8,0,0,0-2-.72,2.58,2.58,0,0,0-1.95.72,2.74,2.74,0,0,0-.72,1.44Z"/><path d="M1311.88,547.6H1309v-4.41h8v20h-5.19Z"/><path d="M1150.11,727.19v20h-5.18v-20Z"/><path d="M1153.86,733.79h4.8v1.62a5.15,5.15,0,0,1,4-1.86,5.46,5.46,0,0,1,2.58.6,4.19,4.19,0,0,1,1.86,1.92,4.71,4.71,0,0,1,1.83-1.86,5.44,5.44,0,0,1,2.79-.66,5.33,5.33,0,0,1,3.72,1.23,4.93,4.93,0,0,1,1.26,3.69v8.73h-4.8v-6.63c0-1.41-.15-2.37-.69-2.88a1.75,1.75,0,0,0-1.26-.45,1.94,1.94,0,0,0-1.41.54,3.43,3.43,0,0,0-.87,2.55v6.87h-4.8v-6.63a4.29,4.29,0,0,0-.63-2.88,1.86,1.86,0,0,0-1.44-.54,1.69,1.69,0,0,0-1.32.48,4,4,0,0,0-.84,2.94v6.63h-4.8Z"/><path d="M1190.43,733.79h4.8V747.2h-4.8v-1.47a5,5,0,0,1-4.17,1.92,6.42,6.42,0,0,1-4.83-2.13,6.76,6.76,0,0,1-1.92-4.92,7.42,7.42,0,0,1,2.07-5.37,6.9,6.9,0,0,1,4.83-1.89,5.31,5.31,0,0,1,4,1.74Zm-5,4.5a3.14,3.14,0,0,0-1,2.19,3.09,3.09,0,0,0,.93,2.19,3.37,3.37,0,0,0,2.16.9,3.08,3.08,0,0,0,2.16-.93,2.91,2.91,0,0,0,.9-2.16,3,3,0,0,0-.93-2.19,3,3,0,0,0-4.26,0Z"/><path d="M1213.62,733.79v12.57c0,2-.18,3.84-1.83,5.55a8,8,0,0,1-5.91,2.16,8.22,8.22,0,0,1-6.27-2.37,4.88,4.88,0,0,1-1.47-2.79h5.34a2.06,2.06,0,0,0,2.25,1.38,2.92,2.92,0,0,0,2.13-.75,3.23,3.23,0,0,0,1-2.49V745.7a5.1,5.1,0,0,1-4,1.77,6.68,6.68,0,0,1-5-1.89,7.08,7.08,0,0,1-1.86-4.89,7.73,7.73,0,0,1,2-5.25,6.74,6.74,0,0,1,4.86-2,5.24,5.24,0,0,1,4,1.77v-1.38Zm-9.78,4.5a3,3,0,0,0,0,4.35,3,3,0,0,0,2.16.87,3.07,3.07,0,0,0,3.06-3.06,3.44,3.44,0,0,0-1-2.19,3,3,0,0,0-2.13-.87A2.86,2.86,0,0,0,1203.84,738.29Z"/><path d="M1219.32,725.51a2.7,2.7,0,1,1-2.7,2.7A2.69,2.69,0,0,1,1219.32,725.51Zm2.4,8.28V747.2h-4.8V733.79Z"/><path d="M1225,733.79h4.8v1.68a5.06,5.06,0,0,1,4.26-2,5.42,5.42,0,0,1,4,1.44,4.62,4.62,0,0,1,1.26,3.75v8.52h-4.8v-6.78a3.85,3.85,0,0,0-.6-2.61,2,2,0,0,0-1.53-.57,2.63,2.63,0,0,0-1.77.63,3.08,3.08,0,0,0-.78,2.13v7.2H1225Z"/><path d="M1256.76,741.38h-10a3.39,3.39,0,0,0,.84,2.25,2.7,2.7,0,0,0,2,.66,3.79,3.79,0,0,0,1.56-.36,2.23,2.23,0,0,0,.84-.9h4.59a6,6,0,0,1-1.62,2.76c-1,1-2.55,1.86-5.46,1.86a7.61,7.61,0,0,1-5.55-2,7,7,0,0,1-2-5.07,7.16,7.16,0,0,1,2-5.19,7.55,7.55,0,0,1,5.49-2,7.35,7.35,0,0,1,5.16,1.83,7.51,7.51,0,0,1,2.13,5.64Zm-4.41-2.76a3.22,3.22,0,0,0-.78-1.44,2.8,2.8,0,0,0-2-.72,2.58,2.58,0,0,0-1.95.72,2.74,2.74,0,0,0-.72,1.44Z"/><path d="M1271.88,731.6H1269v-4.41h8v20h-5.19Z"/><path d="M1294.77,745.37a7.82,7.82,0,0,1-11,0,12.74,12.74,0,0,1,0-16.35,7.82,7.82,0,0,1,11,0,12.74,12.74,0,0,1,0,16.35ZM1287.66,732c-1.08.93-1.74,3.36-1.74,5.22,0,1.59.57,4.2,1.74,5.22a2.32,2.32,0,0,0,3.18,0c1.11-1,1.74-3.48,1.74-5.19s-.69-4.32-1.74-5.25a2.32,2.32,0,0,0-3.18,0Z"/><path d="M1312.77,745.37a7.82,7.82,0,0,1-11,0,12.74,12.74,0,0,1,0-16.35,7.82,7.82,0,0,1,11,0,12.74,12.74,0,0,1,0,16.35ZM1305.66,732c-1.08.93-1.74,3.36-1.74,5.22,0,1.59.57,4.2,1.74,5.22a2.32,2.32,0,0,0,3.18,0c1.11-1,1.74-3.48,1.74-5.19s-.69-4.32-1.74-5.25a2.32,2.32,0,0,0-3.18,0Z"/><path d="M1079,312.2a7,7,0,0,0,4.59,2,2.63,2.63,0,0,0,2-.69,1.79,1.79,0,0,0,.51-1.26,1.56,1.56,0,0,0-.57-1.2,7.21,7.21,0,0,0-2.58-1l-1.35-.42a6.54,6.54,0,0,1-2.88-1.62,5,5,0,0,1-1.14-3.54,6.54,6.54,0,0,1,1.83-4.83,7.05,7.05,0,0,1,5.13-1.89,14.06,14.06,0,0,1,6.18,1.62l-2.07,4.05a5.28,5.28,0,0,0-3.42-1.35,2.49,2.49,0,0,0-1.71.6,1.48,1.48,0,0,0-.51,1.08,1.34,1.34,0,0,0,.27.9,3.28,3.28,0,0,0,1.74.9l1.59.48a7.64,7.64,0,0,1,3.63,2,4.72,4.72,0,0,1,1.29,3.57,6.78,6.78,0,0,1-1.89,5,7.76,7.76,0,0,1-5.91,2,10.7,10.7,0,0,1-3.93-.66,14,14,0,0,1-3-1.59Z"/><path d="M1099.14,304.79v7.5a2.57,2.57,0,0,0,.72,1.95,2.48,2.48,0,0,0,1.68.51,2.24,2.24,0,0,0,1.71-.57,2.49,2.49,0,0,0,.69-1.89v-7.5h4.8v8.37a4.6,4.6,0,0,1-1.29,3.6c-1.65,1.71-4,1.89-5.79,1.89-2,0-4.47-.21-6.06-1.92a4.82,4.82,0,0,1-1.26-3.57v-8.37Z"/><path d="M1116.84,296.33v9.75a5.31,5.31,0,0,1,4-1.74,6.86,6.86,0,0,1,4.74,1.8,7.31,7.31,0,0,1,2.19,5.31,7.4,7.4,0,0,1-2.16,5.34,6.42,6.42,0,0,1-4.71,1.86,4.92,4.92,0,0,1-4.05-1.92v1.47H1112V296.33Zm5.07,17.34a3,3,0,0,0,.93-2.1,3.29,3.29,0,0,0-.93-2.28,3.08,3.08,0,0,0-4.32,0,3.51,3.51,0,0,0-.9,2.16,3.22,3.22,0,0,0,1,2.28,3.28,3.28,0,0,0,2.07.81A3,3,0,0,0,1121.91,313.67Z"/><path d="M1145.7,318.2h-4.8v-1.47a4.92,4.92,0,0,1-4.05,1.92,6.42,6.42,0,0,1-4.71-1.86,7.4,7.4,0,0,1-2.16-5.34,7.31,7.31,0,0,1,2.19-5.31,6.86,6.86,0,0,1,4.74-1.8,5.31,5.31,0,0,1,4,1.74v-9.75h4.8Zm-5.67-4.44a3.22,3.22,0,0,0,1-2.28,3.51,3.51,0,0,0-.9-2.16,3.08,3.08,0,0,0-4.32,0,3.29,3.29,0,0,0-.93,2.28,3,3,0,0,0,.93,2.1,3,3,0,0,0,2.13.9A3.28,3.28,0,0,0,1140,313.76Z"/><path d="M1151.4,296.51a2.7,2.7,0,1,1-2.7,2.7A2.69,2.69,0,0,1,1151.4,296.51Zm2.4,8.28V318.2H1149V304.79Z"/><path d="M1157.07,304.79h4.8V307a4.33,4.33,0,0,1,1.89-1.86,5.24,5.24,0,0,1,2.49-.54l1,.06v4.53a4.23,4.23,0,0,0-2.07-.48,3.14,3.14,0,0,0-2.19.72,4,4,0,0,0-1.08,3.06v5.73h-4.8Z"/><path d="M1183.56,312.38h-10a3.39,3.39,0,0,0,.84,2.25,2.7,2.7,0,0,0,2,.66,3.79,3.79,0,0,0,1.56-.36,2.23,2.23,0,0,0,.84-.9h4.59a6,6,0,0,1-1.62,2.76c-1,1-2.55,1.86-5.46,1.86a7.61,7.61,0,0,1-5.55-2,7,7,0,0,1-2-5.07,7.16,7.16,0,0,1,2-5.19,7.55,7.55,0,0,1,5.49-2,7.35,7.35,0,0,1,5.16,1.83,7.51,7.51,0,0,1,2.13,5.64Zm-4.41-2.76a3.22,3.22,0,0,0-.78-1.44,2.8,2.8,0,0,0-2-.72,2.58,2.58,0,0,0-2,.72,2.74,2.74,0,0,0-.72,1.44Z"/><path d="M1196.46,317.9a7.12,7.12,0,0,1-3.33.75,7.41,7.41,0,0,1-5.28-2,7,7,0,0,1-2.07-5,7.3,7.3,0,0,1,2.16-5.19,7.73,7.73,0,0,1,5.4-2,6.88,6.88,0,0,1,3.12.75v4a4.28,4.28,0,0,0-2.49-.87,3.15,3.15,0,0,0-2.34.93,3.26,3.26,0,0,0-.93,2.31,3.44,3.44,0,0,0,.84,2.25,3.26,3.26,0,0,0,2.46,1,3.63,3.63,0,0,0,2.46-.9Z"/><path d="M1204.8,308.72v9.48H1200v-9.48h-1.53v-3.93H1200v-4.41h4.8v4.41h2.73v3.93Z"/><path d="M1222.83,316.43a9.18,9.18,0,0,1-12,0,6.92,6.92,0,0,1,0-9.87,8.37,8.37,0,0,1,6-2.22,8.47,8.47,0,0,1,6,2.22,6.92,6.92,0,0,1,0,9.87Zm-8.13-7.14a3.06,3.06,0,0,0,2.16,5.22,3.05,3.05,0,0,0,2.13-.9,3,3,0,0,0,.93-2.13,3.26,3.26,0,0,0-.93-2.19,3.08,3.08,0,0,0-4.29,0Z"/><path d="M1227.66,304.79h4.8V307a4.33,4.33,0,0,1,1.89-1.86,5.24,5.24,0,0,1,2.49-.54l1,.06v4.53a4.23,4.23,0,0,0-2.07-.48,3.14,3.14,0,0,0-2.19.72,4,4,0,0,0-1.08,3.06v5.73h-4.8Z"/><path d="M1252.29,302.6h-2.85v-4.41h8v20h-5.19Z"/><path d="M1587.23,357.94l-5.07-16.11h-29.59c-4.58,0-8.32,5.44-8.32,12.09v49.33c0,6.65,3.74,12.08,8.32,12.08h81.11c4.58,0,8.32-5.43,8.32-12.08V357.94Z" style="fill:none;stroke:#3a5c84;stroke-miterlimit:10;stroke-width:5px"/><line x1="1602.78" y1="390.56" x2="1615.95" y2="390.56" style="fill:none;stroke:#3a5c84;stroke-miterlimit:10;stroke-width:5px"/><line x1="1602.78" y1="396.8" x2="1634.67" y2="396.8" style="fill:none;stroke:#3a5c84;stroke-miterlimit:10;stroke-width:5px"/><line x1="1602.78" y1="403.04" x2="1633.97" y2="403.04" style="fill:none;stroke:#3a5c84;stroke-miterlimit:10;stroke-width:5px"/><line x1="1667.82" y1="384.83" x2="1811.82" y2="384.83" style="fill:none;stroke:#3a5c84;stroke-miterlimit:10;stroke-width:5px"/><polygon points="1786.27 412.23 1786.27 470.99 1777.8 470.99 1795.8 488.99 1813.8 470.99 1805.33 470.99 1805.33 412.23 1786.27 412.23" style="fill:none;stroke:#3a5c84;stroke-miterlimit:10;stroke-width:5px"/><line x1="1772.09" y1="586.22" x2="1823.98" y2="586.22" style="fill:none;stroke:#91c54f;stroke-miterlimit:10;stroke-width:5px"/><line x1="1772.09" y1="572.8" x2="1823.98" y2="572.8" style="fill:none;stroke:#91c54f;stroke-miterlimit:10;stroke-width:5px"/><line x1="1772.09" y1="559.37" x2="1823.98" y2="559.37" style="fill:none;stroke:#91c54f;stroke-miterlimit:10;stroke-width:5px"/><line x1="1772.09" y1="545.95" x2="1823.98" y2="545.95" style="fill:none;stroke:#91c54f;stroke-miterlimit:10;stroke-width:5px"/><line x1="1772.09" y1="532.53" x2="1793.51" y2="532.53" style="fill:none;stroke:#91c54f;stroke-miterlimit:10;stroke-width:5px"/><path d="M1821.26,527.7a7.26,7.26,0,0,1-7.24-7.24V506.89h-44.94a7.26,7.26,0,0,0-7.24,7.24v76a7.26,7.26,0,0,0,7.24,7.24H1827a7.26,7.26,0,0,0,7.24-7.24V527.7Z" style="fill:none;stroke:#91c54f;stroke-miterlimit:10;stroke-width:5px"/><line x1="1772.09" y1="770.22" x2="1823.98" y2="770.22" style="fill:none;stroke:#91c54f;stroke-miterlimit:10;stroke-width:5px"/><line x1="1772.09" y1="756.8" x2="1823.98" y2="756.8" style="fill:none;stroke:#91c54f;stroke-miterlimit:10;stroke-width:5px"/><line x1="1772.09" y1="743.37" x2="1823.98" y2="743.37" style="fill:none;stroke:#91c54f;stroke-miterlimit:10;stroke-width:5px"/><line x1="1772.09" y1="729.95" x2="1823.98" y2="729.95" style="fill:none;stroke:#91c54f;stroke-miterlimit:10;stroke-width:5px"/><line x1="1772.09" y1="716.53" x2="1793.51" y2="716.53" style="fill:none;stroke:#91c54f;stroke-miterlimit:10;stroke-width:5px"/><path d="M1821.26,711.7a7.26,7.26,0,0,1-7.24-7.24V690.89h-44.94a7.26,7.26,0,0,0-7.24,7.24v76a7.26,7.26,0,0,0,7.24,7.24H1827a7.26,7.26,0,0,0,7.24-7.24V711.7Z" style="fill:none;stroke:#91c54f;stroke-miterlimit:10;stroke-width:5px"/><path d="M1786.77,649.92a3.12,3.12,0,0,1,2.19-5.31,3.15,3.15,0,0,1,2.22,1,3.12,3.12,0,0,1,0,4.35,3.07,3.07,0,0,1-2.19.93A3,3,0,0,1,1786.77,649.92Z"/><path d="M1795.86,649.92a3.12,3.12,0,0,1,2.19-5.31,3.15,3.15,0,0,1,2.22,1,3.12,3.12,0,0,1,0,4.35,3.07,3.07,0,0,1-2.19.93A3,3,0,0,1,1795.86,649.92Z"/><path d="M1805,649.92a3.12,3.12,0,0,1,2.19-5.31,3.15,3.15,0,0,1,2.22,1,3.12,3.12,0,0,1,0,4.35,3.07,3.07,0,0,1-2.19.93A3,3,0,0,1,1805,649.92Z"/><path d="M1616.11,543.19v20h-5.18v-20Z"/><path d="M1619.86,549.79h4.8v1.62a5.15,5.15,0,0,1,4-1.86,5.46,5.46,0,0,1,2.58.6,4.19,4.19,0,0,1,1.86,1.92,4.71,4.71,0,0,1,1.83-1.86,5.44,5.44,0,0,1,2.79-.66,5.33,5.33,0,0,1,3.72,1.23,4.93,4.93,0,0,1,1.26,3.69v8.73h-4.8v-6.63c0-1.41-.15-2.37-.69-2.88a1.75,1.75,0,0,0-1.26-.45,1.94,1.94,0,0,0-1.41.54,3.43,3.43,0,0,0-.87,2.55v6.87h-4.8v-6.63a4.29,4.29,0,0,0-.63-2.88,1.86,1.86,0,0,0-1.44-.54,1.69,1.69,0,0,0-1.32.48,4,4,0,0,0-.84,2.94v6.63h-4.8Z"/><path d="M1656.43,549.79h4.8V563.2h-4.8v-1.47a5,5,0,0,1-4.17,1.92,6.42,6.42,0,0,1-4.83-2.13,6.76,6.76,0,0,1-1.92-4.92,7.42,7.42,0,0,1,2.07-5.37,6.9,6.9,0,0,1,4.83-1.89,5.31,5.31,0,0,1,4,1.74Zm-5,4.5a3.14,3.14,0,0,0-1,2.19,3.09,3.09,0,0,0,.93,2.19,3.37,3.37,0,0,0,2.16.9,3.08,3.08,0,0,0,2.16-.93,2.91,2.91,0,0,0,.9-2.16,3,3,0,0,0-.93-2.19,3,3,0,0,0-4.26,0Z"/><path d="M1679.62,549.79v12.57c0,2-.18,3.84-1.83,5.55a8,8,0,0,1-5.91,2.16,8.22,8.22,0,0,1-6.27-2.37,4.88,4.88,0,0,1-1.47-2.79h5.34a2.06,2.06,0,0,0,2.25,1.38,2.92,2.92,0,0,0,2.13-.75,3.23,3.23,0,0,0,1-2.49V561.7a5.1,5.1,0,0,1-4,1.77,6.68,6.68,0,0,1-5-1.89,7.08,7.08,0,0,1-1.86-4.89,7.73,7.73,0,0,1,2-5.25,6.74,6.74,0,0,1,4.86-2,5.24,5.24,0,0,1,4,1.77v-1.38Zm-9.78,4.5a3,3,0,0,0,0,4.35,3,3,0,0,0,2.16.87,3.07,3.07,0,0,0,3.06-3.06,3.44,3.44,0,0,0-1-2.19,3,3,0,0,0-2.13-.87A2.86,2.86,0,0,0,1669.84,554.29Z"/><path d="M1685.32,541.51a2.7,2.7,0,1,1-2.7,2.7A2.69,2.69,0,0,1,1685.32,541.51Zm2.4,8.28V563.2h-4.8V549.79Z"/><path d="M1691,549.79h4.8v1.68a5.06,5.06,0,0,1,4.26-2,5.42,5.42,0,0,1,4,1.44,4.62,4.62,0,0,1,1.26,3.75v8.52h-4.8v-6.78a3.85,3.85,0,0,0-.6-2.61,2,2,0,0,0-1.53-.57,2.63,2.63,0,0,0-1.77.63,3.08,3.08,0,0,0-.78,2.13v7.2H1691Z"/><path d="M1722.76,557.38h-10a3.39,3.39,0,0,0,.84,2.25,2.7,2.7,0,0,0,2,.66,3.79,3.79,0,0,0,1.56-.36,2.23,2.23,0,0,0,.84-.9h4.59a6,6,0,0,1-1.62,2.76c-1,1-2.55,1.86-5.46,1.86a7.61,7.61,0,0,1-5.55-2,7,7,0,0,1-2-5.07,7.16,7.16,0,0,1,2-5.19,7.55,7.55,0,0,1,5.49-2,7.35,7.35,0,0,1,5.16,1.83,7.51,7.51,0,0,1,2.13,5.64Zm-4.41-2.76a3.22,3.22,0,0,0-.78-1.44,2.8,2.8,0,0,0-2-.72,2.58,2.58,0,0,0-1.95.72,2.74,2.74,0,0,0-.72,1.44Z"/><path d="M1737.88,547.6H1735v-4.41h8v20h-5.19Z"/><path d="M1576.11,727.19v20h-5.18v-20Z"/><path d="M1579.86,733.79h4.8v1.62a5.15,5.15,0,0,1,4-1.86,5.46,5.46,0,0,1,2.58.6,4.19,4.19,0,0,1,1.86,1.92,4.71,4.71,0,0,1,1.83-1.86,5.44,5.44,0,0,1,2.79-.66,5.33,5.33,0,0,1,3.72,1.23,4.93,4.93,0,0,1,1.26,3.69v8.73h-4.8v-6.63c0-1.41-.15-2.37-.69-2.88a1.75,1.75,0,0,0-1.26-.45,1.94,1.94,0,0,0-1.41.54,3.43,3.43,0,0,0-.87,2.55v6.87h-4.8v-6.63a4.29,4.29,0,0,0-.63-2.88,1.86,1.86,0,0,0-1.44-.54,1.69,1.69,0,0,0-1.32.48,4,4,0,0,0-.84,2.94v6.63h-4.8Z"/><path d="M1616.43,733.79h4.8V747.2h-4.8v-1.47a5,5,0,0,1-4.17,1.92,6.42,6.42,0,0,1-4.83-2.13,6.76,6.76,0,0,1-1.92-4.92,7.42,7.42,0,0,1,2.07-5.37,6.9,6.9,0,0,1,4.83-1.89,5.31,5.31,0,0,1,4,1.74Zm-5,4.5a3.14,3.14,0,0,0-1,2.19,3.09,3.09,0,0,0,.93,2.19,3.37,3.37,0,0,0,2.16.9,3.08,3.08,0,0,0,2.16-.93,2.91,2.91,0,0,0,.9-2.16,3,3,0,0,0-.93-2.19,3,3,0,0,0-4.26,0Z"/><path d="M1639.62,733.79v12.57c0,2-.18,3.84-1.83,5.55a8,8,0,0,1-5.91,2.16,8.22,8.22,0,0,1-6.27-2.37,4.88,4.88,0,0,1-1.47-2.79h5.34a2.06,2.06,0,0,0,2.25,1.38,2.92,2.92,0,0,0,2.13-.75,3.23,3.23,0,0,0,1-2.49V745.7a5.1,5.1,0,0,1-4,1.77,6.68,6.68,0,0,1-5-1.89,7.08,7.08,0,0,1-1.86-4.89,7.73,7.73,0,0,1,2-5.25,6.74,6.74,0,0,1,4.86-2,5.24,5.24,0,0,1,4,1.77v-1.38Zm-9.78,4.5a3,3,0,0,0,0,4.35,3,3,0,0,0,2.16.87,3.07,3.07,0,0,0,3.06-3.06,3.44,3.44,0,0,0-1-2.19,3,3,0,0,0-2.13-.87A2.86,2.86,0,0,0,1629.84,738.29Z"/><path d="M1645.32,725.51a2.7,2.7,0,1,1-2.7,2.7A2.69,2.69,0,0,1,1645.32,725.51Zm2.4,8.28V747.2h-4.8V733.79Z"/><path d="M1651,733.79h4.8v1.68a5.06,5.06,0,0,1,4.26-2,5.42,5.42,0,0,1,4,1.44,4.62,4.62,0,0,1,1.26,3.75v8.52h-4.8v-6.78a3.85,3.85,0,0,0-.6-2.61,2,2,0,0,0-1.53-.57,2.63,2.63,0,0,0-1.77.63,3.08,3.08,0,0,0-.78,2.13v7.2H1651Z"/><path d="M1682.76,741.38h-10a3.39,3.39,0,0,0,.84,2.25,2.7,2.7,0,0,0,2,.66,3.79,3.79,0,0,0,1.56-.36,2.23,2.23,0,0,0,.84-.9h4.59a6,6,0,0,1-1.62,2.76c-1,1-2.55,1.86-5.46,1.86a7.61,7.61,0,0,1-5.55-2,7,7,0,0,1-2-5.07,7.16,7.16,0,0,1,2-5.19,7.55,7.55,0,0,1,5.49-2,7.35,7.35,0,0,1,5.16,1.83,7.51,7.51,0,0,1,2.13,5.64Zm-4.41-2.76a3.22,3.22,0,0,0-.78-1.44,2.8,2.8,0,0,0-2-.72,2.58,2.58,0,0,0-1.95.72,2.74,2.74,0,0,0-.72,1.44Z"/><path d="M1697.88,731.6H1695v-4.41h8v20h-5.19Z"/><path d="M1720.77,745.37a7.82,7.82,0,0,1-11,0,12.74,12.74,0,0,1,0-16.35,7.82,7.82,0,0,1,11,0,12.74,12.74,0,0,1,0,16.35ZM1713.66,732c-1.08.93-1.74,3.36-1.74,5.22,0,1.59.57,4.2,1.74,5.22a2.32,2.32,0,0,0,3.18,0c1.11-1,1.74-3.48,1.74-5.19s-.69-4.32-1.74-5.25a2.32,2.32,0,0,0-3.18,0Z"/><path d="M1738.77,745.37a7.82,7.82,0,0,1-11,0,12.74,12.74,0,0,1,0-16.35,7.82,7.82,0,0,1,11,0,12.74,12.74,0,0,1,0,16.35ZM1731.66,732c-1.08.93-1.74,3.36-1.74,5.22,0,1.59.57,4.2,1.74,5.22a2.32,2.32,0,0,0,3.18,0c1.11-1,1.74-3.48,1.74-5.19s-.69-4.32-1.74-5.25a2.32,2.32,0,0,0-3.18,0Z"/><path d="M1485.65,312.2a7,7,0,0,0,4.59,2,2.63,2.63,0,0,0,2-.69,1.79,1.79,0,0,0,.51-1.26,1.56,1.56,0,0,0-.57-1.2,7.21,7.21,0,0,0-2.58-1l-1.35-.42a6.54,6.54,0,0,1-2.88-1.62,5,5,0,0,1-1.14-3.54,6.54,6.54,0,0,1,1.83-4.83,7.05,7.05,0,0,1,5.13-1.89,14.06,14.06,0,0,1,6.18,1.62l-2.07,4.05a5.28,5.28,0,0,0-3.42-1.35,2.49,2.49,0,0,0-1.71.6,1.48,1.48,0,0,0-.51,1.08,1.34,1.34,0,0,0,.27.9,3.28,3.28,0,0,0,1.74.9l1.59.48a7.64,7.64,0,0,1,3.63,2,4.72,4.72,0,0,1,1.29,3.57,6.78,6.78,0,0,1-1.89,5,7.76,7.76,0,0,1-5.91,2,10.7,10.7,0,0,1-3.93-.66,14,14,0,0,1-3-1.59Z"/><path d="M1505.81,304.79v7.5a2.57,2.57,0,0,0,.72,1.95,2.48,2.48,0,0,0,1.68.51,2.24,2.24,0,0,0,1.71-.57,2.49,2.49,0,0,0,.69-1.89v-7.5h4.8v8.37a4.6,4.6,0,0,1-1.29,3.6c-1.65,1.71-4,1.89-5.79,1.89-2,0-4.47-.21-6.06-1.92a4.82,4.82,0,0,1-1.26-3.57v-8.37Z"/><path d="M1523.51,296.33v9.75a5.31,5.31,0,0,1,4-1.74,6.86,6.86,0,0,1,4.74,1.8,7.31,7.31,0,0,1,2.19,5.31,7.4,7.4,0,0,1-2.16,5.34,6.42,6.42,0,0,1-4.71,1.86,4.92,4.92,0,0,1-4-1.92v1.47h-4.8V296.33Zm5.07,17.34a3,3,0,0,0,.93-2.1,3.29,3.29,0,0,0-.93-2.28,3.08,3.08,0,0,0-4.32,0,3.51,3.51,0,0,0-.9,2.16,3.22,3.22,0,0,0,1,2.28,3.28,3.28,0,0,0,2.07.81A3,3,0,0,0,1528.58,313.67Z"/><path d="M1552.37,318.2h-4.8v-1.47a4.92,4.92,0,0,1-4,1.92,6.42,6.42,0,0,1-4.71-1.86,7.4,7.4,0,0,1-2.16-5.34,7.31,7.31,0,0,1,2.19-5.31,6.86,6.86,0,0,1,4.74-1.8,5.31,5.31,0,0,1,4,1.74v-9.75h4.8Zm-5.67-4.44a3.22,3.22,0,0,0,1-2.28,3.51,3.51,0,0,0-.9-2.16,3.08,3.08,0,0,0-4.32,0,3.29,3.29,0,0,0-.93,2.28,3,3,0,0,0,.93,2.1,3,3,0,0,0,2.13.9A3.28,3.28,0,0,0,1546.7,313.76Z"/><path d="M1558.07,296.51a2.7,2.7,0,1,1-2.7,2.7A2.69,2.69,0,0,1,1558.07,296.51Zm2.4,8.28V318.2h-4.8V304.79Z"/><path d="M1563.74,304.79h4.8V307a4.33,4.33,0,0,1,1.89-1.86,5.24,5.24,0,0,1,2.49-.54l1,.06v4.53a4.23,4.23,0,0,0-2.07-.48,3.14,3.14,0,0,0-2.19.72,4,4,0,0,0-1.08,3.06v5.73h-4.8Z"/><path d="M1590.23,312.38h-10a3.39,3.39,0,0,0,.84,2.25,2.7,2.7,0,0,0,2,.66,3.79,3.79,0,0,0,1.56-.36,2.23,2.23,0,0,0,.84-.9h4.59a6,6,0,0,1-1.62,2.76c-1,1-2.55,1.86-5.46,1.86a7.61,7.61,0,0,1-5.55-2,7,7,0,0,1-2-5.07,7.16,7.16,0,0,1,2-5.19,7.55,7.55,0,0,1,5.49-2,7.35,7.35,0,0,1,5.16,1.83,7.51,7.51,0,0,1,2.13,5.64Zm-4.41-2.76a3.22,3.22,0,0,0-.78-1.44,2.8,2.8,0,0,0-2-.72,2.58,2.58,0,0,0-2,.72,2.74,2.74,0,0,0-.72,1.44Z"/><path d="M1603.13,317.9a7.12,7.12,0,0,1-3.33.75,7.41,7.41,0,0,1-5.28-2,7,7,0,0,1-2.07-5,7.3,7.3,0,0,1,2.16-5.19,7.73,7.73,0,0,1,5.4-2,6.88,6.88,0,0,1,3.12.75v4a4.28,4.28,0,0,0-2.49-.87,3.15,3.15,0,0,0-2.34.93,3.26,3.26,0,0,0-.93,2.31,3.44,3.44,0,0,0,.84,2.25,3.26,3.26,0,0,0,2.46,1,3.63,3.63,0,0,0,2.46-.9Z"/><path d="M1611.47,308.72v9.48h-4.8v-9.48h-1.53v-3.93h1.53v-4.41h4.8v4.41h2.73v3.93Z"/><path d="M1629.5,316.43a9.18,9.18,0,0,1-12,0,6.92,6.92,0,0,1,0-9.87,8.37,8.37,0,0,1,6-2.22,8.47,8.47,0,0,1,6,2.22,6.92,6.92,0,0,1,0,9.87Zm-8.13-7.14a3.06,3.06,0,0,0,2.16,5.22,3.05,3.05,0,0,0,2.13-.9,3,3,0,0,0,.93-2.13,3.26,3.26,0,0,0-.93-2.19,3.08,3.08,0,0,0-4.29,0Z"/><path d="M1634.33,304.79h4.8V307a4.33,4.33,0,0,1,1.89-1.86,5.24,5.24,0,0,1,2.49-.54l1,.06v4.53a4.23,4.23,0,0,0-2.07-.48,3.14,3.14,0,0,0-2.19.72,4,4,0,0,0-1.08,3.06v5.73h-4.8Z"/><path d="M1659,302.6h-2.85v-4.41h8v20H1659Z"/><path d="M1681.85,316.37a7.82,7.82,0,0,1-11,0,12.74,12.74,0,0,1,0-16.35,7.82,7.82,0,0,1,11,0,12.74,12.74,0,0,1,0,16.35ZM1674.74,303c-1.08.93-1.74,3.36-1.74,5.22,0,1.59.57,4.2,1.74,5.22a2.32,2.32,0,0,0,3.18,0c1.11-1,1.74-3.48,1.74-5.19s-.69-4.32-1.74-5.25a2.32,2.32,0,0,0-3.18,0Z"/><path d="M1699.85,316.37a7.82,7.82,0,0,1-11,0,12.74,12.74,0,0,1,0-16.35,7.82,7.82,0,0,1,11,0,12.74,12.74,0,0,1,0,16.35ZM1692.74,303c-1.08.93-1.74,3.36-1.74,5.22,0,1.59.57,4.2,1.74,5.22a2.32,2.32,0,0,0,3.18,0c1.11-1,1.74-3.48,1.74-5.19s-.69-4.32-1.74-5.25a2.32,2.32,0,0,0-3.18,0Z"/></svg>