<svg id="Layer_1" data-name="Layer 1" xmlns="http://www.w3.org/2000/svg" viewBox="0 0 1897 2048"><title>Cap 2</title><line x1="525" y1="1519" x2="525" y2="1577" style="fill:none;stroke:#91c54f;stroke-miterlimit:10;stroke-width:6.002253890037537px"/><line x1="418" y1="1577" x2="418" y2="1635" style="fill:none;stroke:#91c54f;stroke-miterlimit:10;stroke-width:6.002253890037537px"/><rect x="872.77" y="1102.06" width="213.08" height="50.42" rx="12" ry="12" style="fill:none;stroke:#4fc2c9;stroke-miterlimit:10;stroke-width:6.002253890037537px"/><path d="M982.87,1119.19h2.36L976,1135.7h-2.34Z"/><line x1="755.73" y1="1217.62" x2="1476" y2="1217.62" style="fill:none;stroke:#4fc2c9;stroke-miterlimit:10;stroke-width:6.002253890037537px"/><line x1="522.24" y1="1403.09" x2="990.42" y2="1403.09" style="fill:none;stroke:#3a5c84;stroke-miterlimit:10;stroke-width:6.002253890037537px"/><line x1="415.24" y1="1577.09" x2="1197" y2="1577" style="fill:none;stroke:#91c54f;stroke-miterlimit:10;stroke-width:6.002253890037537px"/><line x1="979.01" y1="1152.2" x2="979.01" y2="1217.62" style="fill:none;stroke:#4fc2c9;stroke-miterlimit:10;stroke-width:6.002253890037537px"/><line x1="758.73" y1="1337.67" x2="758.73" y2="1403.09" style="fill:none;stroke:#3a5c84;stroke-miterlimit:10;stroke-width:6.002253890037537px"/><line x1="525.24" y1="1400.09" x2="525.24" y2="1465.52" style="fill:none;stroke:#3a5c84;stroke-miterlimit:10;stroke-width:6.002253890037537px"/><line x1="758.73" y1="1405.49" x2="758.73" y2="1470.92" style="fill:none;stroke:#3a5c84;stroke-miterlimit:10;stroke-width:6.002253890037537px"/><line x1="914.19" y1="1405.49" x2="914.19" y2="1470.92" style="fill:none;stroke:#3a5c84;stroke-miterlimit:10;stroke-width:6.002253890037537px"/><line x1="758.73" y1="1217.62" x2="758.73" y2="1283.05" style="fill:none;stroke:#4fc2c9;stroke-miterlimit:10;stroke-width:6.002253890037537px"/><line x1="979.61" y1="1217.62" x2="979.61" y2="1283.05" style="fill:none;stroke:#4fc2c9;stroke-miterlimit:10;stroke-width:6.002253890037537px"/><line x1="1233.51" y1="1217.62" x2="1233.51" y2="1283.05" style="fill:none;stroke:#4fc2c9;stroke-miterlimit:10;stroke-width:6.002253890037537px"/><line x1="1421.98" y1="1217.62" x2="1421.98" y2="1283.05" style="fill:none;stroke:#4fc2c9;stroke-miterlimit:10;stroke-width:6.002253890037537px"/><rect x="649.66" y="1285.11" width="213.08" height="50.42" rx="12" ry="12" style="fill:none;stroke:#3a5c84;stroke-miterlimit:10;stroke-width:6.002253890037537px"/><path d="M729.7,1302.5h3.36v7.1a4.11,4.11,0,0,1,1.05-.92,4.31,4.31,0,0,1,4.71.55,3.27,3.27,0,0,1,.88,2.62v6h-3.36v-4.75a2.8,2.8,0,0,0-.42-1.83,1.37,1.37,0,0,0-1.07-.4,1.84,1.84,0,0,0-1.22.4,2,2,0,0,0-.57,1.54v5H729.7Z"/><path d="M751,1316.58a6.44,6.44,0,0,1-8.38,0,4.7,4.7,0,0,1-1.45-3.47,4.64,4.64,0,0,1,1.45-3.44,6.41,6.41,0,0,1,8.38,0,4.6,4.6,0,0,1,1.45,3.44A4.7,4.7,0,0,1,751,1316.58Zm-5.69-5a2.17,2.17,0,0,0-.65,1.53,2.19,2.19,0,0,0,2.16,2.12,2.11,2.11,0,0,0,1.49-.63,2,2,0,0,0,.66-1.49,2.17,2.17,0,0,0-2.15-2.14A2.32,2.32,0,0,0,745.33,1311.58Z"/><path d="M754.41,1308.43h3.36v1.13a3.62,3.62,0,0,1,2.81-1.3,3.87,3.87,0,0,1,1.81.42,3,3,0,0,1,1.3,1.34,3.31,3.31,0,0,1,1.28-1.3,3.83,3.83,0,0,1,2-.46,3.7,3.7,0,0,1,2.6.86,3.44,3.44,0,0,1,.88,2.58v6.12h-3.36v-4.64a2.79,2.79,0,0,0-.48-2,1.22,1.22,0,0,0-.88-.32,1.37,1.37,0,0,0-1,.38,2.39,2.39,0,0,0-.61,1.79v4.81h-3.36v-4.64a3,3,0,0,0-.44-2,1.29,1.29,0,0,0-1-.38,1.15,1.15,0,0,0-.92.34,2.76,2.76,0,0,0-.59,2.06v4.64h-3.36Z"/><path d="M782.7,1313.74h-7a2.37,2.37,0,0,0,.59,1.58,1.88,1.88,0,0,0,1.38.46,2.7,2.7,0,0,0,1.1-.25,1.55,1.55,0,0,0,.58-.63h3.22a4.21,4.21,0,0,1-1.14,1.93,5.09,5.09,0,0,1-3.82,1.3,5.32,5.32,0,0,1-3.89-1.43,4.89,4.89,0,0,1-1.38-3.55,5,5,0,0,1,1.4-3.63,5.29,5.29,0,0,1,3.85-1.37,5.1,5.1,0,0,1,3.61,1.29,5.22,5.22,0,0,1,1.49,4Zm-3.08-1.93a2.32,2.32,0,0,0-.55-1,2,2,0,0,0-1.39-.5,1.78,1.78,0,0,0-1.36.5,2,2,0,0,0-.51,1Z"/><rect x="887.18" y="1285.11" width="213.08" height="50.42" rx="12" ry="12" style="fill:none;stroke:#3a5c84;stroke-miterlimit:10;stroke-width:6.002253890037537px"/><path d="M982.93,1303.43v6.83a3.71,3.71,0,0,1,2.79-1.22,4.8,4.8,0,0,1,3.32,1.26,5.09,5.09,0,0,1,1.54,3.72,5.2,5.2,0,0,1-1.51,3.74,4.52,4.52,0,0,1-3.3,1.3,3.45,3.45,0,0,1-2.84-1.34v1h-3.36v-15.32Zm3.55,12.15a2.15,2.15,0,0,0,.65-1.48,2.28,2.28,0,0,0-.65-1.59,2.15,2.15,0,0,0-3,0,2.45,2.45,0,0,0-.63,1.51,2.26,2.26,0,0,0,.71,1.6,2.33,2.33,0,0,0,1.45.57A2.09,2.09,0,0,0,986.48,1315.58Z"/><path d="M994.19,1303.56a1.89,1.89,0,1,1-1.89,1.89A1.88,1.88,0,0,1,994.19,1303.56Zm1.68,5.8v9.39h-3.36v-9.39Z"/><path d="M998.16,1309.36h3.36v1.17a3.55,3.55,0,0,1,3-1.38,3.83,3.83,0,0,1,2.77,1,3.24,3.24,0,0,1,.88,2.63v6h-3.36V1314a2.7,2.7,0,0,0-.42-1.83,1.4,1.4,0,0,0-1.07-.4,1.84,1.84,0,0,0-1.24.44,2.16,2.16,0,0,0-.55,1.49v5h-3.36Z"/><rect x="1126.8" y="1285.11" width="213.08" height="50.42" rx="12" ry="12" style="fill:none;stroke:#3a5c84;stroke-miterlimit:10;stroke-width:6.002253890037537px"/><path d="M1222.29,1305.62v5.25a1.81,1.81,0,0,0,.5,1.37,1.78,1.78,0,0,0,1.18.36,1.57,1.57,0,0,0,1.2-.4,1.74,1.74,0,0,0,.48-1.33v-5.25H1229v5.86a3.22,3.22,0,0,1-.9,2.52,5.38,5.38,0,0,1-4.06,1.33c-1.4,0-3.13-.15-4.24-1.35a3.33,3.33,0,0,1-.88-2.5v-5.86Z"/><path d="M1231.93,1311.9a4.77,4.77,0,0,0,1.34.7,4.7,4.7,0,0,0,1.31.23,1.42,1.42,0,0,0,.86-.25.54.54,0,0,0,.17-.44.48.48,0,0,0-.17-.42,2.05,2.05,0,0,0-.88-.34l-.89-.21a3,3,0,0,1-1.63-.82,2.26,2.26,0,0,1-.61-1.62,3.35,3.35,0,0,1,.88-2.29,4.75,4.75,0,0,1,3.36-1.13,7.7,7.7,0,0,1,3,.61l-1.13,2.14a4.66,4.66,0,0,0-1.77-.46,1.37,1.37,0,0,0-.77.19.5.5,0,0,0-.3.46.54.54,0,0,0,.4.52c.32.13.59.13,1.12.28l.61.16a4,4,0,0,1,1.38.74,2.67,2.67,0,0,1,.72,1.87,3.15,3.15,0,0,1-1,2.33,4.9,4.9,0,0,1-3.47,1.18,7,7,0,0,1-3.78-1.09Z"/><path d="M1240.65,1305.62H1244v1.54a3.13,3.13,0,0,1,1.32-1.31,3.74,3.74,0,0,1,1.75-.37l.67,0v3.17a3,3,0,0,0-1.45-.34,2.2,2.2,0,0,0-1.53.51,2.81,2.81,0,0,0-.76,2.14v4h-3.36Z"/><path d="M1414,1313.72a2.14,2.14,0,0,1-.66-1.54,2.24,2.24,0,0,1,2.19-2.18,2.21,2.21,0,0,1,1.55.67,2,2,0,0,1,.61,1.51,2,2,0,0,1-.63,1.54,2.13,2.13,0,0,1-3.06,0Z"/><path d="M1420.4,1313.72a2.18,2.18,0,0,1-.65-1.54,2.15,2.15,0,0,1,.65-1.53,2.11,2.11,0,0,1,1.53-.65,2.21,2.21,0,0,1,1.56.67,2,2,0,0,1,.61,1.51,2,2,0,0,1-.63,1.54,2.14,2.14,0,0,1-3.07,0Z"/><path d="M1426.77,1313.72a2.14,2.14,0,0,1-.66-1.54,2.24,2.24,0,0,1,2.19-2.18,2.21,2.21,0,0,1,1.55.67,2,2,0,0,1,.61,1.51,2,2,0,0,1-.63,1.54,2.13,2.13,0,0,1-3.06,0Z"/><path d="M906.25,1495a2.18,2.18,0,0,1,1.53-3.71,2.21,2.21,0,0,1,1.55.67,2.17,2.17,0,0,1,0,3,2.1,2.1,0,0,1-3.06,0Z"/><path d="M912.61,1495a2.13,2.13,0,0,1,0-3.06,2.09,2.09,0,0,1,1.53-.65,2.21,2.21,0,0,1,1.56.67,2.17,2.17,0,0,1,0,3,2.13,2.13,0,0,1-1.54.66A2.11,2.11,0,0,1,912.61,1495Z"/><path d="M919,1495a2.18,2.18,0,0,1,1.53-3.71,2.21,2.21,0,0,1,1.55.67,2.17,2.17,0,0,1,0,3,2.1,2.1,0,0,1-3.06,0Z"/><path d="M1265.25,1579a2.18,2.18,0,0,1,1.53-3.71,2.21,2.21,0,0,1,1.55.67,2.17,2.17,0,0,1,0,3,2.1,2.1,0,0,1-3.06,0Z"/><path d="M1271.61,1579a2.13,2.13,0,0,1,0-3.06,2.09,2.09,0,0,1,1.53-.65,2.21,2.21,0,0,1,1.56.67,2.17,2.17,0,0,1,0,3,2.13,2.13,0,0,1-1.54.66A2.11,2.11,0,0,1,1271.61,1579Z"/><path d="M1278,1579a2.18,2.18,0,0,1,1.53-3.71,2.21,2.21,0,0,1,1.55.67,2.17,2.17,0,0,1,0,3,2.1,2.1,0,0,1-3.06,0Z"/><path d="M495.4,1491.69v5.25a1.79,1.79,0,0,0,.51,1.36,1.71,1.71,0,0,0,1.18.36,1.55,1.55,0,0,0,1.19-.4,1.74,1.74,0,0,0,.49-1.32v-5.25h3.36v5.86a3.23,3.23,0,0,1-.91,2.52,5.33,5.33,0,0,1-4.05,1.32c-1.41,0-3.13-.14-4.24-1.34a3.37,3.37,0,0,1-.89-2.5v-5.86Z"/><path d="M507.8,1485.76v6.83a3.71,3.71,0,0,1,2.79-1.22,4.8,4.8,0,0,1,3.32,1.26,5.31,5.31,0,0,1,0,7.46,4.49,4.49,0,0,1-3.3,1.3,3.42,3.42,0,0,1-2.83-1.34v1h-3.36v-15.32Zm3.55,12.15a2.15,2.15,0,0,0,.65-1.47,2.29,2.29,0,0,0-.65-1.6,2,2,0,0,0-1.49-.61,2.07,2.07,0,0,0-1.54.63,2.51,2.51,0,0,0-.63,1.51,2.27,2.27,0,0,0,.72,1.6,2.3,2.3,0,0,0,1.45.57A2.09,2.09,0,0,0,511.35,1497.91Z"/><path d="M520.74,1491.69v5.25a1.77,1.77,0,0,0,.5,1.36,1.72,1.72,0,0,0,1.18.36,1.57,1.57,0,0,0,1.2-.4,1.73,1.73,0,0,0,.48-1.32v-5.25h3.36v5.86a3.22,3.22,0,0,1-.9,2.52,5.36,5.36,0,0,1-4.06,1.32c-1.4,0-3.13-.14-4.24-1.34a3.4,3.4,0,0,1-.88-2.5v-5.86Z"/><path d="M529.77,1491.69h3.36v1.17a3.55,3.55,0,0,1,3-1.38,3.83,3.83,0,0,1,2.77,1,3.24,3.24,0,0,1,.88,2.63v6h-3.36v-4.75a2.7,2.7,0,0,0-.42-1.83,1.42,1.42,0,0,0-1.07-.4,1.84,1.84,0,0,0-1.24.44,2.17,2.17,0,0,0-.55,1.5v5h-3.36Z"/><path d="M545.78,1494.44v6.64h-3.36v-6.64h-1.07v-2.75h1.07v-3.09h3.36v3.09h1.91v2.75Z"/><path d="M552.31,1491.69v5.25a1.79,1.79,0,0,0,.51,1.36,1.68,1.68,0,0,0,1.17.36,1.57,1.57,0,0,0,1.2-.4,1.73,1.73,0,0,0,.48-1.32v-5.25H559v5.86a3.23,3.23,0,0,1-.91,2.52,5.33,5.33,0,0,1-4,1.32c-1.41,0-3.13-.14-4.25-1.34a3.4,3.4,0,0,1-.88-2.5v-5.86Z"/><rect x="419" y="1468.52" width="213.08" height="50.42" rx="12" ry="12" style="fill:none;stroke:#91c54f;stroke-miterlimit:10;stroke-width:6.002253890037537px"/><rect x="652.49" y="1468.22" width="213.08" height="50.42" rx="12" ry="12" style="fill:none;stroke:#91c54f;stroke-miterlimit:10;stroke-width:6.002253890037537px"/><path d="M736.66,1500.93H733.3v-1a3.42,3.42,0,0,1-2.83,1.34,4.49,4.49,0,0,1-3.3-1.3,5.31,5.31,0,0,1,0-7.46,4.8,4.8,0,0,1,3.32-1.26,3.71,3.71,0,0,1,2.79,1.22v-6.83h3.36Zm-4-3.11a2.27,2.27,0,0,0,.72-1.6,2.51,2.51,0,0,0-.63-1.51,2.07,2.07,0,0,0-1.54-.63,2,2,0,0,0-1.49.61,2.28,2.28,0,0,0-.65,1.59,2.15,2.15,0,0,0,.65,1.48,2.09,2.09,0,0,0,1.49.63A2.3,2.3,0,0,0,732.69,1497.82Z"/><path d="M748.93,1496.85h-7a2.37,2.37,0,0,0,.59,1.58,1.89,1.89,0,0,0,1.39.46,2.66,2.66,0,0,0,1.09-.25,1.64,1.64,0,0,0,.59-.63h3.22a4.31,4.31,0,0,1-1.14,1.93,5.09,5.09,0,0,1-3.82,1.3,5.32,5.32,0,0,1-3.89-1.43,4.89,4.89,0,0,1-1.39-3.55,5,5,0,0,1,1.41-3.63,5.29,5.29,0,0,1,3.85-1.37,5.14,5.14,0,0,1,3.61,1.28,5.28,5.28,0,0,1,1.49,4Zm-3.09-1.93a2.2,2.2,0,0,0-.54-1,2,2,0,0,0-1.39-.5,1.8,1.8,0,0,0-1.37.5,1.9,1.9,0,0,0-.5,1Z"/><path d="M754.22,1485.61v6.83a3.74,3.74,0,0,1,2.8-1.22,4.83,4.83,0,0,1,3.32,1.26,5.34,5.34,0,0,1,0,7.46,4.49,4.49,0,0,1-3.3,1.3,3.45,3.45,0,0,1-2.84-1.34v1h-3.36v-15.32Zm3.56,12.15a2.15,2.15,0,0,0,.65-1.48,2.33,2.33,0,0,0-.65-1.59,2.16,2.16,0,0,0-3,0,2.45,2.45,0,0,0-.63,1.51,2.26,2.26,0,0,0,.71,1.6,2.35,2.35,0,0,0,1.45.57A2.11,2.11,0,0,0,757.78,1497.76Z"/><path d="M765.48,1485.74a1.89,1.89,0,1,1-1.89,1.89A1.89,1.89,0,0,1,765.48,1485.74Zm1.68,5.8v9.39H763.8v-9.39Z"/><path d="M776.72,1491.54h3.37v9.39h-3.37v-1a3.49,3.49,0,0,1-2.92,1.34,4.5,4.5,0,0,1-3.38-1.49,4.75,4.75,0,0,1-1.34-3.44,5.2,5.2,0,0,1,1.45-3.77,4.84,4.84,0,0,1,3.38-1.32,3.71,3.71,0,0,1,2.81,1.22Zm-3.53,3.15a2.2,2.2,0,0,0-.67,1.53,2.17,2.17,0,0,0,.65,1.54,2.41,2.41,0,0,0,1.52.63,2.17,2.17,0,0,0,1.51-.66,2,2,0,0,0,.63-1.51,2.08,2.08,0,0,0-.65-1.53,2.14,2.14,0,0,0-1.51-.61A2.19,2.19,0,0,0,773.19,1494.69Z"/><path d="M782.4,1491.54h3.36v1.17a3.52,3.52,0,0,1,3-1.38,3.8,3.8,0,0,1,2.77,1,3.25,3.25,0,0,1,.89,2.63v6H789v-4.75a2.65,2.65,0,0,0-.42-1.83,1.42,1.42,0,0,0-1.07-.4,1.87,1.87,0,0,0-1.24.44,2.21,2.21,0,0,0-.54,1.5v5H782.4Z"/><polygon points="930.03 583.22 930.03 694.05 914.05 694.05 948 728 981.95 694.05 965.97 694.05 965.97 583.22 930.03 583.22" style="fill:none;stroke:#4fc2c9;stroke-miterlimit:10;stroke-width:9.430487792800838px"/><polygon points="930.03 888.22 930.03 999.05 914.05 999.05 948 1033 981.95 999.05 965.97 999.05 965.97 888.22 930.03 888.22" style="fill:none;stroke:#4fc2c9;stroke-miterlimit:10;stroke-width:9.430487792800838px"/><path d="M418.75,1683.88l-3.17-10.06H397.1c-2.86,0-5.2,3.39-5.2,7.54v30.81c0,4.15,2.34,7.55,5.2,7.55h50.66c2.85,0,5.19-3.4,5.19-7.55v-28.29Z" style="fill:none;stroke:#3a5c84;stroke-miterlimit:10;stroke-width:3.122451901435852px"/><line x1="428.46" y1="1704.25" x2="436.68" y2="1704.25" style="fill:none;stroke:#3a5c84;stroke-miterlimit:10;stroke-width:2px"/><line x1="428.46" y1="1708.14" x2="448.37" y2="1708.14" style="fill:none;stroke:#3a5c84;stroke-miterlimit:10;stroke-width:2px"/><line x1="428.46" y1="1712.04" x2="447.94" y2="1712.04" style="fill:none;stroke:#3a5c84;stroke-miterlimit:10;stroke-width:2px"/><line x1="469.08" y1="1700.67" x2="559.01" y2="1700.67" style="fill:none;stroke:#3a5c84;stroke-miterlimit:10;stroke-width:3.122451901435852px"/><polygon points="543.04 1717.78 543.04 1754.48 537.75 1754.48 549 1765.72 560.24 1754.48 554.95 1754.48 554.95 1717.78 543.04 1717.78" style="fill:none;stroke:#3a5c84;stroke-miterlimit:10;stroke-width:3.122451901435852px"/><line x1="534.19" y1="1826.44" x2="566.6" y2="1826.44" style="fill:none;stroke:#f7931f;stroke-miterlimit:10;stroke-width:3px"/><line x1="534.19" y1="1818.05" x2="566.6" y2="1818.05" style="fill:none;stroke:#f7931f;stroke-miterlimit:10;stroke-width:3px"/><line x1="534.19" y1="1809.67" x2="566.6" y2="1809.67" style="fill:none;stroke:#f7931f;stroke-miterlimit:10;stroke-width:3px"/><line x1="534.19" y1="1801.29" x2="566.6" y2="1801.29" style="fill:none;stroke:#f7931f;stroke-miterlimit:10;stroke-width:3px"/><line x1="534.19" y1="1792.9" x2="547.57" y2="1792.9" style="fill:none;stroke:#f7931f;stroke-miterlimit:10;stroke-width:3px"/><path d="M564.9,1789.89a4.53,4.53,0,0,1-4.52-4.52v-8.48H532.31a4.53,4.53,0,0,0-4.52,4.52v47.48a4.53,4.53,0,0,0,4.52,4.52h36.17a4.53,4.53,0,0,0,4.52-4.52v-39Z" style="fill:none;stroke:#f7931f;stroke-miterlimit:10;stroke-width:3px"/><line x1="534.19" y1="1941.34" x2="566.6" y2="1941.34" style="fill:none;stroke:#f7931f;stroke-miterlimit:10;stroke-width:3px"/><line x1="534.19" y1="1932.96" x2="566.6" y2="1932.96" style="fill:none;stroke:#f7931f;stroke-miterlimit:10;stroke-width:3px"/><line x1="534.19" y1="1924.58" x2="566.6" y2="1924.58" style="fill:none;stroke:#f7931f;stroke-miterlimit:10;stroke-width:3px"/><line x1="534.19" y1="1916.19" x2="566.6" y2="1916.19" style="fill:none;stroke:#f7931f;stroke-miterlimit:10;stroke-width:3px"/><line x1="534.19" y1="1907.81" x2="547.57" y2="1907.81" style="fill:none;stroke:#f7931f;stroke-miterlimit:10;stroke-width:3px"/><path d="M564.9,1904.8a4.53,4.53,0,0,1-4.52-4.52v-8.48H532.31a4.53,4.53,0,0,0-4.52,4.52v47.47a4.53,4.53,0,0,0,4.52,4.52h36.17a4.53,4.53,0,0,0,4.52-4.52v-39Z" style="fill:none;stroke:#f7931f;stroke-miterlimit:10;stroke-width:3px"/><path d="M543.36,1866.22a2,2,0,0,1-.58-1.37,1.93,1.93,0,0,1,.58-1.37,1.91,1.91,0,0,1,1.37-.58,2,2,0,0,1,1.38.6,1.93,1.93,0,0,1,0,2.72,1.9,1.9,0,0,1-2.73,0Z"/><path d="M549,1866.22a1.91,1.91,0,0,1-.58-1.37,2,2,0,0,1,1.94-1.95,2,2,0,0,1,1.39.6,2,2,0,0,1,0,2.72,1.93,1.93,0,0,1-1.37.58A1.88,1.88,0,0,1,549,1866.22Z"/><path d="M554.71,1866.22a2,2,0,0,1-.58-1.37,1.93,1.93,0,0,1,.58-1.37,1.91,1.91,0,0,1,1.37-.58,2,2,0,0,1,1.39.6,2,2,0,0,1,0,2.72,1.94,1.94,0,0,1-1.37.58A1.91,1.91,0,0,1,554.71,1866.22Z"/><rect x="291.5" y="95.42" width="1314" height="458.5" rx="12" ry="12" style="fill:none;stroke:#4fc2c9;stroke-miterlimit:10;stroke-width:10px"/><rect x="291.5" y="1069.42" width="1314" height="925.58" rx="12" ry="12" style="fill:none;stroke:#636868;stroke-miterlimit:10;stroke-width:11.730991630356682px"/><line x1="507.88" y1="223.25" x2="559.76" y2="223.25" style="fill:none;stroke:#f7931f;stroke-miterlimit:10;stroke-width:5px"/><line x1="507.88" y1="209.83" x2="559.76" y2="209.83" style="fill:none;stroke:#f7931f;stroke-miterlimit:10;stroke-width:5px"/><line x1="507.88" y1="196.41" x2="559.76" y2="196.41" style="fill:none;stroke:#f7931f;stroke-miterlimit:10;stroke-width:5px"/><line x1="507.88" y1="182.98" x2="559.76" y2="182.98" style="fill:none;stroke:#f7931f;stroke-miterlimit:10;stroke-width:5px"/><line x1="507.88" y1="169.56" x2="529.3" y2="169.56" style="fill:none;stroke:#f7931f;stroke-miterlimit:10;stroke-width:5px"/><path d="M557.05,164.73a7.26,7.26,0,0,1-7.24-7.24V143.92H504.86a7.26,7.26,0,0,0-7.24,7.24v76a7.26,7.26,0,0,0,7.24,7.23h57.92a7.26,7.26,0,0,0,7.24-7.23V164.73Z" style="fill:none;stroke:#f7931f;stroke-miterlimit:10;stroke-width:5px"/><path d="M344.17,176.57v20H339v-20Z"/><path d="M347.92,183.17h4.8v1.62a5.15,5.15,0,0,1,4-1.86,5.46,5.46,0,0,1,2.58.6,4.19,4.19,0,0,1,1.86,1.92,4.71,4.71,0,0,1,1.83-1.86,5.44,5.44,0,0,1,2.79-.66,5.33,5.33,0,0,1,3.72,1.23,4.93,4.93,0,0,1,1.26,3.69v8.73H366V190c0-1.41-.15-2.37-.69-2.88a1.75,1.75,0,0,0-1.26-.45,1.94,1.94,0,0,0-1.41.54,3.43,3.43,0,0,0-.87,2.55v6.87H357V190a4.29,4.29,0,0,0-.63-2.88,1.86,1.86,0,0,0-1.44-.54,1.69,1.69,0,0,0-1.32.48,4,4,0,0,0-.84,2.94v6.63h-4.8Z"/><path d="M384.49,183.17h4.8v13.41h-4.8v-1.47a5,5,0,0,1-4.17,1.92,6.42,6.42,0,0,1-4.83-2.13,6.76,6.76,0,0,1-1.92-4.92,7.42,7.42,0,0,1,2.07-5.37,6.9,6.9,0,0,1,4.83-1.89,5.31,5.31,0,0,1,4,1.74Zm-5,4.5a3.14,3.14,0,0,0-1,2.19,3.09,3.09,0,0,0,.93,2.19,3.37,3.37,0,0,0,2.16.9,3.08,3.08,0,0,0,2.16-.93,2.91,2.91,0,0,0,.9-2.16,3,3,0,0,0-.93-2.19,3,3,0,0,0-4.26,0Z"/><path d="M407.68,183.17v12.57c0,2-.18,3.84-1.83,5.55a8,8,0,0,1-5.91,2.16,8.22,8.22,0,0,1-6.27-2.37,4.88,4.88,0,0,1-1.47-2.79h5.34a2.06,2.06,0,0,0,2.25,1.38,2.92,2.92,0,0,0,2.13-.75,3.23,3.23,0,0,0,1-2.49v-1.35a5.1,5.1,0,0,1-4,1.77,6.68,6.68,0,0,1-4.95-1.89,7.08,7.08,0,0,1-1.86-4.89,7.73,7.73,0,0,1,2-5.25,6.74,6.74,0,0,1,4.86-2,5.24,5.24,0,0,1,4,1.77v-1.38Zm-9.78,4.5a3,3,0,0,0,0,4.35,3,3,0,0,0,2.16.87,3.07,3.07,0,0,0,3.06-3.06,3.44,3.44,0,0,0-1-2.19,3,3,0,0,0-2.13-.87A2.86,2.86,0,0,0,397.9,187.67Z"/><path d="M413.38,174.89a2.7,2.7,0,1,1-2.7,2.7A2.69,2.69,0,0,1,413.38,174.89Zm2.4,8.28v13.41H411V183.17Z"/><path d="M419.05,183.17h4.8v1.68a5.06,5.06,0,0,1,4.26-2,5.42,5.42,0,0,1,4,1.44,4.62,4.62,0,0,1,1.26,3.75v8.52h-4.8V189.8a3.85,3.85,0,0,0-.6-2.61,2,2,0,0,0-1.53-.57,2.63,2.63,0,0,0-1.77.63,3.08,3.08,0,0,0-.78,2.13v7.2h-4.8Z"/><path d="M450.82,190.76h-10a3.39,3.39,0,0,0,.84,2.25,2.7,2.7,0,0,0,2,.66,3.79,3.79,0,0,0,1.56-.36,2.23,2.23,0,0,0,.84-.9h4.59a6,6,0,0,1-1.62,2.76c-1,1-2.55,1.86-5.46,1.86a7.61,7.61,0,0,1-5.55-2,7,7,0,0,1-2-5.07,7.16,7.16,0,0,1,2-5.19,7.55,7.55,0,0,1,5.49-1.95,7.35,7.35,0,0,1,5.16,1.83,7.51,7.51,0,0,1,2.13,5.64ZM446.41,188a3.22,3.22,0,0,0-.78-1.44,2.8,2.8,0,0,0-2-.72,2.58,2.58,0,0,0-1.95.72A2.74,2.74,0,0,0,441,188Z"/><path d="M465.94,181h-2.85v-4.41h8v20h-5.19Z"/><line x1="861.88" y1="223.25" x2="913.76" y2="223.25" style="fill:none;stroke:#636868;stroke-miterlimit:10;stroke-width:5px"/><line x1="861.88" y1="209.83" x2="913.76" y2="209.83" style="fill:none;stroke:#636868;stroke-miterlimit:10;stroke-width:5px"/><line x1="861.88" y1="196.41" x2="913.76" y2="196.41" style="fill:none;stroke:#636868;stroke-miterlimit:10;stroke-width:5px"/><line x1="861.88" y1="182.98" x2="913.76" y2="182.98" style="fill:none;stroke:#636868;stroke-miterlimit:10;stroke-width:5px"/><line x1="861.88" y1="169.56" x2="883.3" y2="169.56" style="fill:none;stroke:#636868;stroke-miterlimit:10;stroke-width:5px"/><path d="M911.05,164.73a7.26,7.26,0,0,1-7.24-7.24V143.92H858.86a7.26,7.26,0,0,0-7.24,7.24v76a7.26,7.26,0,0,0,7.24,7.23h57.92a7.26,7.26,0,0,0,7.24-7.23V164.73Z" style="fill:none;stroke:#636868;stroke-miterlimit:10;stroke-width:5px"/><path d="M761.82,184.5h-6.27v3.33h5.7v4.41h-5.7v7.86h-5.19v-20h11.46Z"/><path d="M766.56,178.41a2.7,2.7,0,1,1-2.7,2.7A2.69,2.69,0,0,1,766.56,178.41Zm2.4,8.28V200.1h-4.8V186.69Z"/><path d="M777,178.23V200.1h-4.8V178.23Z"/><path d="M780.3,186.69h4.8v1.62a5.15,5.15,0,0,1,4-1.86,5.46,5.46,0,0,1,2.58.6,4.19,4.19,0,0,1,1.86,1.92,4.71,4.71,0,0,1,1.83-1.86,5.44,5.44,0,0,1,2.79-.66,5.33,5.33,0,0,1,3.72,1.23,4.93,4.93,0,0,1,1.26,3.69v8.73h-4.8v-6.63c0-1.41-.15-2.37-.69-2.88a1.75,1.75,0,0,0-1.26-.45,1.94,1.94,0,0,0-1.41.54,3.43,3.43,0,0,0-.87,2.55v6.87h-4.8v-6.63a4.29,4.29,0,0,0-.63-2.88,1.86,1.86,0,0,0-1.44-.54,1.69,1.69,0,0,0-1.32.48,4,4,0,0,0-.84,2.94v6.63h-4.8Z"/><path d="M818.85,184.5H816v-4.41h8v20h-5.19Z"/><line x1="643.88" y1="494.25" x2="695.76" y2="494.25" style="fill:none;stroke:#91c54f;stroke-miterlimit:10;stroke-width:5px"/><line x1="643.88" y1="480.83" x2="695.76" y2="480.83" style="fill:none;stroke:#91c54f;stroke-miterlimit:10;stroke-width:5px"/><line x1="643.88" y1="467.41" x2="695.76" y2="467.41" style="fill:none;stroke:#91c54f;stroke-miterlimit:10;stroke-width:5px"/><line x1="643.88" y1="453.98" x2="695.76" y2="453.98" style="fill:none;stroke:#91c54f;stroke-miterlimit:10;stroke-width:5px"/><line x1="643.88" y1="440.56" x2="665.3" y2="440.56" style="fill:none;stroke:#91c54f;stroke-miterlimit:10;stroke-width:5px"/><path d="M693.05,435.73a7.26,7.26,0,0,1-7.24-7.24V414.92H640.86a7.26,7.26,0,0,0-7.24,7.24v76a7.26,7.26,0,0,0,7.24,7.24h57.92a7.26,7.26,0,0,0,7.24-7.24V435.73Z" style="fill:none;stroke:#91c54f;stroke-miterlimit:10;stroke-width:5px"/><path d="M444.36,470v-20h6.81a11.16,11.16,0,0,1,7.95,2.76,9.77,9.77,0,0,1,2.79,7.29,9.23,9.23,0,0,1-2.61,6.93,10.87,10.87,0,0,1-7.68,3Zm5.19-4.41h1.05A6,6,0,0,0,455,464.1a5.45,5.45,0,0,0,1.53-4.11,6,6,0,0,0-1.56-4.38,5.83,5.83,0,0,0-4.14-1.26h-1.26Z"/><path d="M478.26,468.18a9.18,9.18,0,0,1-12,0,6.92,6.92,0,0,1,0-9.87,8.37,8.37,0,0,1,6-2.22,8.47,8.47,0,0,1,6,2.22,6.92,6.92,0,0,1,0,9.87ZM470.13,461a3.06,3.06,0,0,0,2.16,5.22,3.05,3.05,0,0,0,2.13-.9,3,3,0,0,0,.93-2.13,3.26,3.26,0,0,0-.93-2.19,3.08,3.08,0,0,0-4.29,0Z"/><path d="M493.23,469.65a7.12,7.12,0,0,1-3.33.75,7.41,7.41,0,0,1-5.28-2,7,7,0,0,1-2.07-5,7.3,7.3,0,0,1,2.16-5.19,7.73,7.73,0,0,1,5.4-2,6.88,6.88,0,0,1,3.12.75v4a4.28,4.28,0,0,0-2.49-.87,3.15,3.15,0,0,0-2.34.93,3.26,3.26,0,0,0-.93,2.31,3.44,3.44,0,0,0,.84,2.25,3.26,3.26,0,0,0,2.46,1,3.63,3.63,0,0,0,2.46-.9Z"/><path d="M500.76,456.54V464a2.57,2.57,0,0,0,.72,1.95,2.48,2.48,0,0,0,1.68.51,2.24,2.24,0,0,0,1.71-.57,2.49,2.49,0,0,0,.69-1.89v-7.5h4.8v8.37a4.6,4.6,0,0,1-1.29,3.6c-1.65,1.71-4,1.89-5.79,1.89-2,0-4.47-.21-6.06-1.92a4.82,4.82,0,0,1-1.26-3.57v-8.37Z"/><path d="M513.66,456.54h4.8v1.62a5.15,5.15,0,0,1,4-1.86,5.46,5.46,0,0,1,2.58.6,4.19,4.19,0,0,1,1.86,1.92,4.71,4.71,0,0,1,1.83-1.86,5.44,5.44,0,0,1,2.79-.66,5.33,5.33,0,0,1,3.72,1.23,4.93,4.93,0,0,1,1.26,3.69V470h-4.8v-6.63c0-1.41-.15-2.37-.69-2.88a1.75,1.75,0,0,0-1.26-.45,1.94,1.94,0,0,0-1.41.54,3.43,3.43,0,0,0-.87,2.55V470h-4.8v-6.63a4.29,4.29,0,0,0-.63-2.88,1.86,1.86,0,0,0-1.44-.54,1.69,1.69,0,0,0-1.32.48,4,4,0,0,0-.84,2.94V470h-4.8Z"/><path d="M554.07,464.13h-10a3.39,3.39,0,0,0,.84,2.25,2.7,2.7,0,0,0,2,.66,3.79,3.79,0,0,0,1.56-.36,2.23,2.23,0,0,0,.84-.9h4.59a6,6,0,0,1-1.62,2.76c-1,1-2.55,1.86-5.46,1.86a7.61,7.61,0,0,1-5.55-2,7,7,0,0,1-2-5.07,7.16,7.16,0,0,1,2-5.19,7.55,7.55,0,0,1,5.49-2,7.35,7.35,0,0,1,5.16,1.83,7.51,7.51,0,0,1,2.13,5.64Zm-4.41-2.76a3.22,3.22,0,0,0-.78-1.44,2.8,2.8,0,0,0-2-.72,2.58,2.58,0,0,0-1.95.72,2.74,2.74,0,0,0-.72,1.44Z"/><path d="M556.83,456.54h4.8v1.68a5.06,5.06,0,0,1,4.26-2,5.42,5.42,0,0,1,4,1.44,4.62,4.62,0,0,1,1.26,3.75V470h-4.8v-6.78a3.85,3.85,0,0,0-.6-2.61,2,2,0,0,0-1.53-.57,2.63,2.63,0,0,0-1.77.63,3.08,3.08,0,0,0-.78,2.13V470h-4.8Z"/><path d="M579.69,460.47V470h-4.8v-9.48h-1.53v-3.93h1.53v-4.41h4.8v4.41h2.73v3.93Z"/><path d="M596.58,454.35h-2.85v-4.41h8v20h-5.19Z"/><line x1="1495.88" y1="223.25" x2="1547.76" y2="223.25" style="fill:none;stroke:#c13018;stroke-miterlimit:10;stroke-width:5px"/><line x1="1495.88" y1="209.83" x2="1547.76" y2="209.83" style="fill:none;stroke:#c13018;stroke-miterlimit:10;stroke-width:5px"/><line x1="1495.88" y1="196.41" x2="1547.76" y2="196.41" style="fill:none;stroke:#c13018;stroke-miterlimit:10;stroke-width:5px"/><line x1="1495.88" y1="182.98" x2="1547.76" y2="182.98" style="fill:none;stroke:#c13018;stroke-miterlimit:10;stroke-width:5px"/><line x1="1495.88" y1="169.56" x2="1517.3" y2="169.56" style="fill:none;stroke:#c13018;stroke-miterlimit:10;stroke-width:5px"/><path d="M1545.05,164.73a7.26,7.26,0,0,1-7.24-7.24V143.92h-45a7.26,7.26,0,0,0-7.24,7.24v76a7.26,7.26,0,0,0,7.24,7.23h57.92a7.26,7.26,0,0,0,7.24-7.23V164.73Z" style="fill:none;stroke:#c13018;stroke-miterlimit:10;stroke-width:5px"/><path d="M1366.34,175.25v6.63h-5.19v-20h8.28a6.89,6.89,0,0,1,5.07,1.8,6.2,6.2,0,0,1,1.86,4.86,6.5,6.5,0,0,1-1.77,5,6.66,6.66,0,0,1-5,1.74Zm0-4.2h1.74a3.39,3.39,0,0,0,2.19-.63,2.29,2.29,0,0,0,.66-1.83,2.43,2.43,0,0,0-.6-1.8,3,3,0,0,0-2.22-.72h-1.77Z"/><path d="M1388.69,168.47h4.8v13.41h-4.8v-1.47a5,5,0,0,1-4.17,1.92,6.42,6.42,0,0,1-4.83-2.13,6.76,6.76,0,0,1-1.91-4.92,7.42,7.42,0,0,1,2.06-5.37,6.9,6.9,0,0,1,4.83-1.89,5.31,5.31,0,0,1,4,1.74Zm-5,4.5a3.14,3.14,0,0,0-1,2.19,3.09,3.09,0,0,0,.93,2.19,3.37,3.37,0,0,0,2.16.9,3.08,3.08,0,0,0,2.16-.93,2.91,2.91,0,0,0,.9-2.16,3,3,0,0,0-.93-2.19,3,3,0,0,0-4.26,0Z"/><path d="M1406.93,181.58a7.12,7.12,0,0,1-3.33.75,7.41,7.41,0,0,1-5.28-2,7,7,0,0,1-2.07-5,7.3,7.3,0,0,1,2.16-5.19,7.73,7.73,0,0,1,5.4-2,6.88,6.88,0,0,1,3.12.75v4a4.28,4.28,0,0,0-2.49-.87,3.15,3.15,0,0,0-2.34.93,3.26,3.26,0,0,0-.93,2.31,3.44,3.44,0,0,0,.84,2.25,3.26,3.26,0,0,0,2.46,1,3.63,3.63,0,0,0,2.46-.9Z"/><path d="M1409.66,160h4.8v10.14a5.85,5.85,0,0,1,1.5-1.32,6.14,6.14,0,0,1,6.72.78,4.68,4.68,0,0,1,1.26,3.75v8.52h-4.8V175.1a4,4,0,0,0-.6-2.61,1.9,1.9,0,0,0-1.53-.57,2.57,2.57,0,0,0-1.74.57,2.92,2.92,0,0,0-.81,2.19v7.2h-4.8Z"/><path d="M1440.83,176.06h-10a3.39,3.39,0,0,0,.84,2.25,2.7,2.7,0,0,0,2,.66,3.79,3.79,0,0,0,1.56-.36,2.23,2.23,0,0,0,.84-.9h4.59a6,6,0,0,1-1.62,2.76c-1,1-2.55,1.86-5.46,1.86a7.61,7.61,0,0,1-5.55-2,7,7,0,0,1-2-5.07,7.16,7.16,0,0,1,2-5.19,7.55,7.55,0,0,1,5.49-1.95,7.35,7.35,0,0,1,5.16,1.83,7.51,7.51,0,0,1,2.13,5.64Zm-4.41-2.76a3.22,3.22,0,0,0-.78-1.44,2.8,2.8,0,0,0-2-.72,2.58,2.58,0,0,0-2,.72,2.74,2.74,0,0,0-.72,1.44Z"/><path d="M1448.9,172.4v9.48h-4.8V172.4h-1.53v-3.93h1.53v-4.41h4.8v4.41h2.73v3.93Z"/><path d="M1300.08,211.88a7,7,0,0,0,4.59,2,2.63,2.63,0,0,0,2-.69,1.79,1.79,0,0,0,.51-1.26,1.56,1.56,0,0,0-.57-1.2,7.21,7.21,0,0,0-2.58-1.05l-1.35-.42a6.54,6.54,0,0,1-2.88-1.62,5,5,0,0,1-1.14-3.54,6.54,6.54,0,0,1,1.83-4.83,7.05,7.05,0,0,1,5.13-1.89,14.06,14.06,0,0,1,6.18,1.62l-2.07,4.05a5.28,5.28,0,0,0-3.42-1.35,2.49,2.49,0,0,0-1.71.6,1.48,1.48,0,0,0-.51,1.08,1.34,1.34,0,0,0,.27.9,3.28,3.28,0,0,0,1.74.9l1.59.48a7.64,7.64,0,0,1,3.63,2,4.72,4.72,0,0,1,1.29,3.57,6.78,6.78,0,0,1-1.89,5,7.76,7.76,0,0,1-5.91,2,10.7,10.7,0,0,1-3.93-.66,14,14,0,0,1-3-1.59Z"/><path d="M1328.94,216.11a9.18,9.18,0,0,1-12,0,6.92,6.92,0,0,1,0-9.87,8.37,8.37,0,0,1,6-2.22,8.47,8.47,0,0,1,6,2.22,6.92,6.92,0,0,1,0,9.87Zm-8.13-7.14a3.06,3.06,0,0,0,2.16,5.22,3.05,3.05,0,0,0,2.13-.9,3,3,0,0,0,.93-2.13,3.26,3.26,0,0,0-.93-2.19,3.08,3.08,0,0,0-4.29,0Z"/><path d="M1338.93,208.4v9.48h-4.8V208.4h-1.68v-3.93h1.68v-2.25a6.9,6.9,0,0,1,1.23-4.41,5.58,5.58,0,0,1,4.65-2.13,6.09,6.09,0,0,1,2.31.45v4.14a3,3,0,0,0-1.5-.45,1.73,1.73,0,0,0-1.35.51,3.55,3.55,0,0,0-.54,2.25v1.89h3.36v3.93Z"/><path d="M1350,208.4v9.48h-4.8V208.4h-1.53v-3.93h1.53v-4.41h4.8v4.41h2.73v3.93Z"/><path d="M1358.58,204.47l3.18,7.08,3.39-7.08h2.93l3.4,7.29,3.35-7.29h5.34l-7,13.41h-3.24l-3.35-7.38-3.21,7.38h-3.24l-6.9-13.41Z"/><path d="M1391.1,204.47h4.8v13.41h-4.8v-1.47a5,5,0,0,1-4.17,1.92,6.42,6.42,0,0,1-4.83-2.13,6.76,6.76,0,0,1-1.92-4.92,7.42,7.42,0,0,1,2.07-5.37,6.9,6.9,0,0,1,4.83-1.89,5.31,5.31,0,0,1,4,1.74Zm-5,4.5a3.14,3.14,0,0,0-1,2.19,3.09,3.09,0,0,0,.93,2.19,3.37,3.37,0,0,0,2.16.9,3.08,3.08,0,0,0,2.16-.93,2.91,2.91,0,0,0,.9-2.16,3,3,0,0,0-.93-2.19,3,3,0,0,0-4.26,0Z"/><path d="M1399.2,204.47h4.8v2.19a4.33,4.33,0,0,1,1.89-1.86,5.22,5.22,0,0,1,2.48-.54l1,.06v4.53a4.14,4.14,0,0,0-2.06-.48,3.18,3.18,0,0,0-2.2.72,4.07,4.07,0,0,0-1.07,3.06v5.73h-4.8Z"/><path d="M1425.68,212.06h-10a3.39,3.39,0,0,0,.84,2.25,2.72,2.72,0,0,0,2,.66,3.79,3.79,0,0,0,1.56-.36,2.23,2.23,0,0,0,.84-.9h4.59a6,6,0,0,1-1.62,2.76c-1,1-2.55,1.86-5.46,1.86a7.62,7.62,0,0,1-5.55-2,7,7,0,0,1-2-5.07,7.15,7.15,0,0,1,2-5.19,7.58,7.58,0,0,1,5.5-1.95,7.34,7.34,0,0,1,5.15,1.83,7.51,7.51,0,0,1,2.13,5.64Zm-4.4-2.76a3.34,3.34,0,0,0-.79-1.44,2.8,2.8,0,0,0-2-.72,2.54,2.54,0,0,0-1.94.72,2.75,2.75,0,0,0-.73,1.44Z"/><path d="M1440.8,202.28H1438v-4.41h8v20h-5.19Z"/><line x1="829.88" y1="357.72" x2="881.76" y2="357.72" style="fill:none;stroke:#c13018;stroke-miterlimit:10;stroke-width:5px"/><line x1="829.88" y1="344.3" x2="881.76" y2="344.3" style="fill:none;stroke:#c13018;stroke-miterlimit:10;stroke-width:5px"/><line x1="829.88" y1="330.87" x2="881.76" y2="330.87" style="fill:none;stroke:#c13018;stroke-miterlimit:10;stroke-width:5px"/><line x1="829.88" y1="317.45" x2="881.76" y2="317.45" style="fill:none;stroke:#c13018;stroke-miterlimit:10;stroke-width:5px"/><line x1="829.88" y1="304.02" x2="851.3" y2="304.02" style="fill:none;stroke:#c13018;stroke-miterlimit:10;stroke-width:5px"/><path d="M879.05,299.2a7.26,7.26,0,0,1-7.24-7.24V278.38H826.86a7.26,7.26,0,0,0-7.24,7.24v76a7.26,7.26,0,0,0,7.24,7.24h57.92a7.26,7.26,0,0,0,7.24-7.24V299.2Z" style="fill:none;stroke:#c13018;stroke-miterlimit:10;stroke-width:5px"/><path d="M700.34,309.71v6.63h-5.19v-20h8.28a6.89,6.89,0,0,1,5.07,1.8,6.2,6.2,0,0,1,1.86,4.86,6.5,6.5,0,0,1-1.77,5,6.66,6.66,0,0,1-5,1.74Zm0-4.2h1.74a3.39,3.39,0,0,0,2.19-.63,2.29,2.29,0,0,0,.66-1.83,2.43,2.43,0,0,0-.6-1.8,3,3,0,0,0-2.22-.72h-1.77Z"/><path d="M722.69,302.93h4.8v13.41h-4.8v-1.47a5,5,0,0,1-4.17,1.92,6.42,6.42,0,0,1-4.83-2.13,6.76,6.76,0,0,1-1.91-4.92,7.42,7.42,0,0,1,2.06-5.37,6.9,6.9,0,0,1,4.83-1.89,5.31,5.31,0,0,1,4,1.74Zm-5,4.5a3.14,3.14,0,0,0-1,2.19,3.09,3.09,0,0,0,.93,2.19,3.37,3.37,0,0,0,2.16.9,3.08,3.08,0,0,0,2.16-.93,2.91,2.91,0,0,0,.9-2.16,3,3,0,0,0-.93-2.19,3,3,0,0,0-4.26,0Z"/><path d="M740.93,316a7.12,7.12,0,0,1-3.33.75,7.41,7.41,0,0,1-5.28-2,7,7,0,0,1-2.07-5,7.3,7.3,0,0,1,2.16-5.19,7.73,7.73,0,0,1,5.4-2,6.88,6.88,0,0,1,3.12.75v4a4.28,4.28,0,0,0-2.49-.87,3.15,3.15,0,0,0-2.34.93,3.26,3.26,0,0,0-.93,2.31,3.44,3.44,0,0,0,.84,2.25,3.26,3.26,0,0,0,2.46,1,3.63,3.63,0,0,0,2.46-.9Z"/><path d="M743.66,294.47h4.8v10.14a5.85,5.85,0,0,1,1.5-1.32,6.14,6.14,0,0,1,6.72.78,4.68,4.68,0,0,1,1.26,3.75v8.52h-4.8v-6.78a4,4,0,0,0-.6-2.61,1.9,1.9,0,0,0-1.53-.57,2.57,2.57,0,0,0-1.74.57,2.92,2.92,0,0,0-.81,2.19v7.2h-4.8Z"/><path d="M774.83,310.52h-10a3.39,3.39,0,0,0,.84,2.25,2.7,2.7,0,0,0,2,.66,3.79,3.79,0,0,0,1.56-.36,2.23,2.23,0,0,0,.84-.9h4.59a6,6,0,0,1-1.62,2.76c-1,1-2.55,1.86-5.46,1.86a7.61,7.61,0,0,1-5.55-2,7,7,0,0,1-2-5.07,7.16,7.16,0,0,1,2-5.19,7.55,7.55,0,0,1,5.49-1.95,7.35,7.35,0,0,1,5.16,1.83,7.51,7.51,0,0,1,2.13,5.64Zm-4.41-2.76a3.22,3.22,0,0,0-.78-1.44,2.8,2.8,0,0,0-2-.72,2.58,2.58,0,0,0-1.95.72,2.74,2.74,0,0,0-.72,1.44Z"/><path d="M782.9,306.86v9.48h-4.8v-9.48h-1.53v-3.93h1.53v-4.41h4.8v4.41h2.73v3.93Z"/><path d="M634.08,346.34a7,7,0,0,0,4.59,2,2.63,2.63,0,0,0,2-.69,1.79,1.79,0,0,0,.51-1.26,1.56,1.56,0,0,0-.57-1.2,7.21,7.21,0,0,0-2.58-1.05l-1.35-.42a6.54,6.54,0,0,1-2.88-1.62,5,5,0,0,1-1.14-3.54,6.54,6.54,0,0,1,1.83-4.83,7.05,7.05,0,0,1,5.13-1.89,14.06,14.06,0,0,1,6.18,1.62l-2.07,4.05a5.28,5.28,0,0,0-3.42-1.35,2.49,2.49,0,0,0-1.71.6,1.48,1.48,0,0,0-.51,1.08,1.34,1.34,0,0,0,.27.9,3.28,3.28,0,0,0,1.74.9l1.59.48a7.64,7.64,0,0,1,3.63,2,4.72,4.72,0,0,1,1.29,3.57,6.78,6.78,0,0,1-1.89,5,7.76,7.76,0,0,1-5.91,2,10.7,10.7,0,0,1-3.93-.66,14,14,0,0,1-3-1.59Z"/><path d="M662.94,350.57a9.18,9.18,0,0,1-12,0,6.92,6.92,0,0,1,0-9.87,8.37,8.37,0,0,1,6-2.22,8.47,8.47,0,0,1,6,2.22,6.92,6.92,0,0,1,0,9.87Zm-8.13-7.14a3.06,3.06,0,0,0,2.16,5.22,3.05,3.05,0,0,0,2.13-.9,3,3,0,0,0,.93-2.13,3.26,3.26,0,0,0-.93-2.19,3.08,3.08,0,0,0-4.29,0Z"/><path d="M672.93,342.86v9.48h-4.8v-9.48h-1.68v-3.93h1.68v-2.25a6.9,6.9,0,0,1,1.23-4.41,5.58,5.58,0,0,1,4.65-2.13,6.09,6.09,0,0,1,2.31.45v4.14a3,3,0,0,0-1.5-.45,1.73,1.73,0,0,0-1.35.51,3.55,3.55,0,0,0-.54,2.25v1.89h3.36v3.93Z"/><path d="M684,342.86v9.48h-4.8v-9.48H677.7v-3.93h1.53v-4.41H684v4.41h2.73v3.93Z"/><path d="M692.58,338.93l3.18,7.08,3.39-7.08h2.93l3.4,7.29,3.35-7.29h5.34l-7,13.41h-3.24L700.56,345l-3.21,7.38h-3.24l-6.9-13.41Z"/><path d="M725.1,338.93h4.8v13.41h-4.8v-1.47a5,5,0,0,1-4.17,1.92,6.42,6.42,0,0,1-4.83-2.13,6.76,6.76,0,0,1-1.92-4.92,7.42,7.42,0,0,1,2.07-5.37,6.9,6.9,0,0,1,4.83-1.89,5.31,5.31,0,0,1,4,1.74Zm-5,4.5a3.14,3.14,0,0,0-1,2.19,3.09,3.09,0,0,0,.93,2.19,3.37,3.37,0,0,0,2.16.9,3.08,3.08,0,0,0,2.16-.93,2.91,2.91,0,0,0,.9-2.16,3,3,0,0,0-.93-2.19,3,3,0,0,0-4.26,0Z"/><path d="M733.2,338.93H738v2.19a4.33,4.33,0,0,1,1.89-1.86,5.22,5.22,0,0,1,2.48-.54l1,.06v4.53a4.14,4.14,0,0,0-2.06-.48,3.18,3.18,0,0,0-2.2.72,4.07,4.07,0,0,0-1.07,3.06v5.73h-4.8Z"/><path d="M759.68,346.52h-10a3.39,3.39,0,0,0,.84,2.25,2.72,2.72,0,0,0,2,.66,3.79,3.79,0,0,0,1.56-.36,2.23,2.23,0,0,0,.84-.9h4.59a6,6,0,0,1-1.62,2.76c-1,1-2.55,1.86-5.46,1.86a7.62,7.62,0,0,1-5.55-2,7,7,0,0,1-2-5.07,7.15,7.15,0,0,1,2-5.19,7.58,7.58,0,0,1,5.5-1.95,7.34,7.34,0,0,1,5.15,1.83,7.51,7.51,0,0,1,2.13,5.64Zm-4.4-2.76a3.34,3.34,0,0,0-.79-1.44,2.8,2.8,0,0,0-2-.72,2.54,2.54,0,0,0-1.94.72,2.75,2.75,0,0,0-.73,1.44Z"/><path d="M784.61,352.34H768.56l5.07-5.31a33.14,33.14,0,0,0,4.11-5.07,5.63,5.63,0,0,0,1.08-3.12,3,3,0,0,0-.6-1.92,2,2,0,0,0-1.47-.6,2.15,2.15,0,0,0-1.74.81,5,5,0,0,0-.72,2.46h-5.37a8,8,0,0,1,2.22-5.55,8.62,8.62,0,0,1,11.31-.09,6.68,6.68,0,0,1,1.95,4.92c0,2.52-1.17,4.26-3,5.94l-3.36,3.12h6.54Z"/><line x1="1163.88" y1="357.72" x2="1215.76" y2="357.72" style="fill:none;stroke:#91c54f;stroke-miterlimit:10;stroke-width:5px"/><line x1="1163.88" y1="344.3" x2="1215.76" y2="344.3" style="fill:none;stroke:#91c54f;stroke-miterlimit:10;stroke-width:5px"/><line x1="1163.88" y1="330.87" x2="1215.76" y2="330.87" style="fill:none;stroke:#91c54f;stroke-miterlimit:10;stroke-width:5px"/><line x1="1163.88" y1="317.45" x2="1215.76" y2="317.45" style="fill:none;stroke:#91c54f;stroke-miterlimit:10;stroke-width:5px"/><line x1="1163.88" y1="304.02" x2="1185.3" y2="304.02" style="fill:none;stroke:#91c54f;stroke-miterlimit:10;stroke-width:5px"/><path d="M1213.05,299.2a7.26,7.26,0,0,1-7.24-7.24V278.38h-45a7.26,7.26,0,0,0-7.24,7.24v76a7.26,7.26,0,0,0,7.24,7.24h57.92a7.26,7.26,0,0,0,7.24-7.24V299.2Z" style="fill:none;stroke:#91c54f;stroke-miterlimit:10;stroke-width:5px"/><path d="M964.36,333.64v-20h6.81a11.16,11.16,0,0,1,8,2.76,9.77,9.77,0,0,1,2.79,7.29,9.23,9.23,0,0,1-2.61,6.93,10.87,10.87,0,0,1-7.68,3Zm5.19-4.41h1.05a6,6,0,0,0,4.38-1.44,5.45,5.45,0,0,0,1.53-4.11A6,6,0,0,0,975,319.3a5.83,5.83,0,0,0-4.14-1.26h-1.26Z"/><path d="M998.26,331.87a9.18,9.18,0,0,1-12,0,6.92,6.92,0,0,1,0-9.87,8.37,8.37,0,0,1,6-2.22,8.47,8.47,0,0,1,6,2.22,6.92,6.92,0,0,1,0,9.87Zm-8.13-7.14a3.06,3.06,0,0,0,2.16,5.22,3.05,3.05,0,0,0,2.13-.9,3,3,0,0,0,.93-2.13,3.26,3.26,0,0,0-.93-2.19,3.08,3.08,0,0,0-4.29,0Z"/><path d="M1013.23,333.34a7.12,7.12,0,0,1-3.33.75,7.41,7.41,0,0,1-5.28-2,7,7,0,0,1-2.07-5,7.3,7.3,0,0,1,2.16-5.19,7.73,7.73,0,0,1,5.4-2,6.88,6.88,0,0,1,3.12.75v4a4.28,4.28,0,0,0-2.49-.87,3.15,3.15,0,0,0-2.34.93,3.26,3.26,0,0,0-.93,2.31,3.44,3.44,0,0,0,.84,2.25,3.26,3.26,0,0,0,2.46,1,3.63,3.63,0,0,0,2.46-.9Z"/><path d="M1020.76,320.23v7.5a2.57,2.57,0,0,0,.72,1.95,2.48,2.48,0,0,0,1.68.51,2.24,2.24,0,0,0,1.71-.57,2.49,2.49,0,0,0,.69-1.89v-7.5h4.8v8.37a4.6,4.6,0,0,1-1.29,3.6c-1.65,1.71-4,1.89-5.79,1.89-2,0-4.47-.21-6.06-1.92a4.82,4.82,0,0,1-1.26-3.57v-8.37Z"/><path d="M1033.66,320.23h4.8v1.62a5.15,5.15,0,0,1,4-1.86,5.46,5.46,0,0,1,2.58.6,4.19,4.19,0,0,1,1.86,1.92,4.71,4.71,0,0,1,1.83-1.86,5.44,5.44,0,0,1,2.79-.66,5.33,5.33,0,0,1,3.72,1.23,4.93,4.93,0,0,1,1.26,3.69v8.73h-4.8V327c0-1.41-.15-2.37-.69-2.88a1.75,1.75,0,0,0-1.26-.45,1.94,1.94,0,0,0-1.41.54,3.43,3.43,0,0,0-.87,2.55v6.87h-4.8V327a4.29,4.29,0,0,0-.63-2.88,1.86,1.86,0,0,0-1.44-.54,1.69,1.69,0,0,0-1.32.48,4,4,0,0,0-.84,2.94v6.63h-4.8Z"/><path d="M1074.07,327.82h-10a3.39,3.39,0,0,0,.84,2.25,2.7,2.7,0,0,0,2,.66,3.79,3.79,0,0,0,1.56-.36,2.23,2.23,0,0,0,.84-.9h4.59a6,6,0,0,1-1.62,2.76c-1,1-2.55,1.86-5.46,1.86a7.61,7.61,0,0,1-5.55-2,7,7,0,0,1-2-5.07,7.16,7.16,0,0,1,2-5.19,7.55,7.55,0,0,1,5.49-2,7.35,7.35,0,0,1,5.16,1.83,7.51,7.51,0,0,1,2.13,5.64Zm-4.41-2.76a3.22,3.22,0,0,0-.78-1.44,2.8,2.8,0,0,0-2-.72,2.58,2.58,0,0,0-2,.72,2.74,2.74,0,0,0-.72,1.44Z"/><path d="M1076.83,320.23h4.8v1.68a5.06,5.06,0,0,1,4.26-2,5.42,5.42,0,0,1,4,1.44,4.62,4.62,0,0,1,1.26,3.75v8.52h-4.8v-6.78a3.85,3.85,0,0,0-.6-2.61,2,2,0,0,0-1.53-.57,2.63,2.63,0,0,0-1.77.63,3.08,3.08,0,0,0-.78,2.13v7.2h-4.8Z"/><path d="M1099.69,324.16v9.48h-4.8v-9.48h-1.53v-3.93h1.53v-4.41h4.8v4.41h2.73v3.93Z"/><path d="M1126.39,333.64h-16.05l5.07-5.31a33.14,33.14,0,0,0,4.11-5.07,5.63,5.63,0,0,0,1.08-3.12,3,3,0,0,0-.6-1.92,2,2,0,0,0-1.47-.6,2.15,2.15,0,0,0-1.74.81,5,5,0,0,0-.72,2.46h-5.37a8,8,0,0,1,2.22-5.55,8.62,8.62,0,0,1,11.31-.09,6.68,6.68,0,0,1,2,4.92c0,2.52-1.17,4.26-3,5.94l-3.36,3.12h6.54Z"/><line x1="1136.88" y1="494.25" x2="1188.76" y2="494.25" style="fill:none;stroke:#636868;stroke-miterlimit:10;stroke-width:5px"/><line x1="1136.88" y1="480.83" x2="1188.76" y2="480.83" style="fill:none;stroke:#636868;stroke-miterlimit:10;stroke-width:5px"/><line x1="1136.88" y1="467.41" x2="1188.76" y2="467.41" style="fill:none;stroke:#636868;stroke-miterlimit:10;stroke-width:5px"/><line x1="1136.88" y1="453.98" x2="1188.76" y2="453.98" style="fill:none;stroke:#636868;stroke-miterlimit:10;stroke-width:5px"/><line x1="1136.88" y1="440.56" x2="1158.3" y2="440.56" style="fill:none;stroke:#636868;stroke-miterlimit:10;stroke-width:5px"/><path d="M1186.05,435.73a7.26,7.26,0,0,1-7.24-7.24V414.92h-45a7.26,7.26,0,0,0-7.24,7.24v76a7.26,7.26,0,0,0,7.24,7.24h57.92a7.26,7.26,0,0,0,7.24-7.24V435.73Z" style="fill:none;stroke:#636868;stroke-miterlimit:10;stroke-width:5px"/><path d="M1036.82,455.5h-6.27v3.33h5.7v4.41h-5.7v7.86h-5.19v-20h11.46Z"/><path d="M1041.56,449.41a2.7,2.7,0,1,1-2.7,2.7A2.69,2.69,0,0,1,1041.56,449.41Zm2.4,8.28V471.1h-4.8V457.69Z"/><path d="M1052,449.23V471.1h-4.8V449.23Z"/><path d="M1055.3,457.69h4.8v1.62a5.15,5.15,0,0,1,4-1.86,5.46,5.46,0,0,1,2.58.6,4.19,4.19,0,0,1,1.86,1.92,4.71,4.71,0,0,1,1.83-1.86,5.44,5.44,0,0,1,2.79-.66,5.33,5.33,0,0,1,3.72,1.23,4.93,4.93,0,0,1,1.26,3.69v8.73h-4.8v-6.63c0-1.41-.15-2.37-.69-2.88a1.75,1.75,0,0,0-1.26-.45,1.94,1.94,0,0,0-1.41.54,3.43,3.43,0,0,0-.87,2.55v6.87h-4.8v-6.63a4.29,4.29,0,0,0-.63-2.88,1.86,1.86,0,0,0-1.44-.54,1.69,1.69,0,0,0-1.32.48,4,4,0,0,0-.84,2.94v6.63h-4.8Z"/><path d="M1103.66,471.1h-16.05l5.07-5.31a33.14,33.14,0,0,0,4.11-5.07,5.63,5.63,0,0,0,1.08-3.12,3,3,0,0,0-.6-1.92,2,2,0,0,0-1.47-.6,2.15,2.15,0,0,0-1.74.81,5,5,0,0,0-.72,2.46H1088a8,8,0,0,1,2.22-5.55,8.62,8.62,0,0,1,11.31-.09,6.68,6.68,0,0,1,2,4.92c0,2.52-1.17,4.26-3,5.94l-3.36,3.12h6.54Z"/><line x1="1476.88" y1="415.02" x2="1528.76" y2="415.02" style="fill:none;stroke:#f7931f;stroke-miterlimit:10;stroke-width:5px"/><line x1="1476.88" y1="401.59" x2="1528.76" y2="401.59" style="fill:none;stroke:#f7931f;stroke-miterlimit:10;stroke-width:5px"/><line x1="1476.88" y1="388.17" x2="1528.76" y2="388.17" style="fill:none;stroke:#f7931f;stroke-miterlimit:10;stroke-width:5px"/><line x1="1476.88" y1="374.75" x2="1528.76" y2="374.75" style="fill:none;stroke:#f7931f;stroke-miterlimit:10;stroke-width:5px"/><line x1="1476.88" y1="361.32" x2="1498.3" y2="361.32" style="fill:none;stroke:#f7931f;stroke-miterlimit:10;stroke-width:5px"/><path d="M1526.05,356.5a7.26,7.26,0,0,1-7.24-7.24V335.68h-45a7.26,7.26,0,0,0-7.24,7.24v76a7.26,7.26,0,0,0,7.24,7.24h57.92a7.26,7.26,0,0,0,7.24-7.24V356.5Z" style="fill:none;stroke:#f7931f;stroke-miterlimit:10;stroke-width:5px"/><path d="M1308.55,368.33v20h-5.19v-20Z"/><path d="M1312.3,374.93h4.8v1.62a5.15,5.15,0,0,1,4-1.86,5.46,5.46,0,0,1,2.58.6,4.19,4.19,0,0,1,1.86,1.92,4.71,4.71,0,0,1,1.83-1.86,5.44,5.44,0,0,1,2.79-.66,5.33,5.33,0,0,1,3.72,1.23,4.93,4.93,0,0,1,1.26,3.69v8.73h-4.8v-6.63c0-1.41-.15-2.37-.69-2.88a1.75,1.75,0,0,0-1.26-.45,1.94,1.94,0,0,0-1.41.54,3.43,3.43,0,0,0-.87,2.55v6.87h-4.8v-6.63a4.29,4.29,0,0,0-.63-2.88,1.86,1.86,0,0,0-1.44-.54,1.69,1.69,0,0,0-1.32.48,4,4,0,0,0-.84,2.94v6.63h-4.8Z"/><path d="M1348.87,374.93h4.8v13.41h-4.8v-1.47a5,5,0,0,1-4.17,1.92,6.42,6.42,0,0,1-4.83-2.13,6.76,6.76,0,0,1-1.92-4.92,7.42,7.42,0,0,1,2.07-5.37,6.9,6.9,0,0,1,4.83-1.89,5.31,5.31,0,0,1,4,1.74Zm-5,4.5a3.14,3.14,0,0,0-1,2.19,3.09,3.09,0,0,0,.93,2.19,3.37,3.37,0,0,0,2.16.9,3.08,3.08,0,0,0,2.16-.93,2.91,2.91,0,0,0,.9-2.16,3,3,0,0,0-.93-2.19,3,3,0,0,0-4.26,0Z"/><path d="M1372.06,374.93V387.5c0,2-.18,3.84-1.83,5.55a8,8,0,0,1-5.91,2.16,8.22,8.22,0,0,1-6.27-2.37,4.88,4.88,0,0,1-1.47-2.79h5.34a2.06,2.06,0,0,0,2.25,1.38,2.92,2.92,0,0,0,2.13-.75,3.23,3.23,0,0,0,1-2.49v-1.35a5.1,5.1,0,0,1-4,1.77,6.68,6.68,0,0,1-5-1.89,7.08,7.08,0,0,1-1.86-4.89,7.73,7.73,0,0,1,2-5.25,6.74,6.74,0,0,1,4.86-2,5.24,5.24,0,0,1,4,1.77v-1.38Zm-9.78,4.5a3,3,0,0,0,0,4.35,3,3,0,0,0,2.16.87,3.07,3.07,0,0,0,3.06-3.06,3.44,3.44,0,0,0-1-2.19,3,3,0,0,0-2.13-.87A2.86,2.86,0,0,0,1362.28,379.43Z"/><path d="M1377.76,366.65a2.7,2.7,0,1,1-2.7,2.7A2.69,2.69,0,0,1,1377.76,366.65Zm2.4,8.28v13.41h-4.8V374.93Z"/><path d="M1383.43,374.93h4.8v1.68a5.06,5.06,0,0,1,4.26-2,5.42,5.42,0,0,1,4,1.44,4.62,4.62,0,0,1,1.26,3.75v8.52h-4.8v-6.78a3.85,3.85,0,0,0-.6-2.61,2,2,0,0,0-1.53-.57,2.63,2.63,0,0,0-1.77.63,3.08,3.08,0,0,0-.78,2.13v7.2h-4.8Z"/><path d="M1415.2,382.52h-10a3.39,3.39,0,0,0,.84,2.25,2.7,2.7,0,0,0,2,.66,3.79,3.79,0,0,0,1.56-.36,2.23,2.23,0,0,0,.84-.9H1415a6,6,0,0,1-1.62,2.76c-1,1-2.55,1.86-5.46,1.86a7.61,7.61,0,0,1-5.55-2,7,7,0,0,1-2-5.07,7.16,7.16,0,0,1,2-5.19,7.55,7.55,0,0,1,5.49-1.95,7.35,7.35,0,0,1,5.16,1.83,7.51,7.51,0,0,1,2.13,5.64Zm-4.41-2.76a3.22,3.22,0,0,0-.78-1.44,2.8,2.8,0,0,0-2-.72,2.58,2.58,0,0,0-2,.72,2.74,2.74,0,0,0-.72,1.44Z"/><path d="M1440.13,388.34h-16.05l5.07-5.31a33.14,33.14,0,0,0,4.11-5.07,5.63,5.63,0,0,0,1.08-3.12,3,3,0,0,0-.6-1.92,2,2,0,0,0-1.47-.6,2.15,2.15,0,0,0-1.74.81,5,5,0,0,0-.72,2.46h-5.37a8,8,0,0,1,2.22-5.55A8.62,8.62,0,0,1,1438,370a6.68,6.68,0,0,1,2,4.92c0,2.52-1.17,4.26-3,5.94l-3.36,3.12h6.54Z"/><rect x="291.25" y="757.24" width="1313.5" height="102" rx="12" ry="12" style="fill:none;stroke:#eb6a38;stroke-miterlimit:10;stroke-width:10px"/><path d="M761.2,810.21a11.68,11.68,0,0,0,7.65,3.4,4.39,4.39,0,0,0,3.35-1.15,3,3,0,0,0,.85-2.1,2.61,2.61,0,0,0-.95-2c-.85-.75-2.15-1.1-4.3-1.75l-2.25-.7a10.89,10.89,0,0,1-4.8-2.7,8.39,8.39,0,0,1-1.9-5.9,10.9,10.9,0,0,1,3-8,11.76,11.76,0,0,1,8.55-3.15,23.43,23.43,0,0,1,10.3,2.7l-3.45,6.75a8.8,8.8,0,0,0-5.7-2.25,4.15,4.15,0,0,0-2.85,1,2.47,2.47,0,0,0-.85,1.8,2.23,2.23,0,0,0,.45,1.5c.25.3.85.9,2.9,1.5l2.65.8a12.74,12.74,0,0,1,6.05,3.3,7.87,7.87,0,0,1,2.15,5.95,11.3,11.3,0,0,1-3.15,8.4c-2.85,2.85-6.3,3.4-9.85,3.4a17.83,17.83,0,0,1-6.55-1.1,23.28,23.28,0,0,1-5-2.65Z"/><path d="M790.8,784.06a4.5,4.5,0,1,1-4.5,4.5A4.48,4.48,0,0,1,790.8,784.06Zm4,13.8v22.35h-8V797.86Z"/><path d="M801.7,812.81a11.45,11.45,0,0,0,3.2,1.65,10.41,10.41,0,0,0,3.1.55,3.39,3.39,0,0,0,2-.6,1.28,1.28,0,0,0,.4-1,1.19,1.19,0,0,0-.4-1,5,5,0,0,0-2.1-.8l-2.1-.5a7.19,7.19,0,0,1-3.9-1.95,5.41,5.41,0,0,1-1.45-3.85,8,8,0,0,1,2.1-5.45c1.7-1.75,4.7-2.7,8-2.7a18.45,18.45,0,0,1,7.15,1.45l-2.7,5.1a11.07,11.07,0,0,0-4.2-1.1A3.38,3.38,0,0,0,809,803a1.2,1.2,0,0,0-.7,1.1,1.3,1.3,0,0,0,1,1.25c.75.3,1.4.3,2.65.65l1.45.4a9.44,9.44,0,0,1,3.3,1.75,6.32,6.32,0,0,1,1.7,4.45,7.47,7.47,0,0,1-2.25,5.55c-2.6,2.6-6.4,2.8-8.25,2.8a16.49,16.49,0,0,1-9-2.6Z"/><path d="M831.3,804.41v15.8h-8v-15.8h-2.55v-6.55h2.55v-7.35h8v7.35h4.55v6.55Z"/><path d="M862.55,810.51H845.9a5.65,5.65,0,0,0,1.4,3.75,4.49,4.49,0,0,0,3.3,1.1,6.31,6.31,0,0,0,2.6-.6,3.72,3.72,0,0,0,1.4-1.5h7.65a10,10,0,0,1-2.7,4.6c-1.65,1.6-4.25,3.1-9.1,3.1a12.68,12.68,0,0,1-9.25-3.4,11.71,11.71,0,0,1-3.3-8.45,11.93,11.93,0,0,1,3.35-8.65c1.85-1.8,4.75-3.25,9.15-3.25a12.24,12.24,0,0,1,8.6,3,12.51,12.51,0,0,1,3.55,9.4Zm-7.35-4.6a5.36,5.36,0,0,0-1.3-2.4,4.66,4.66,0,0,0-3.3-1.2,4.3,4.3,0,0,0-3.25,1.2,4.56,4.56,0,0,0-1.2,2.4Z"/><path d="M867.15,797.86h8v2.7a8.59,8.59,0,0,1,6.7-3.1,9.1,9.1,0,0,1,4.3,1,7,7,0,0,1,3.1,3.2,7.85,7.85,0,0,1,3-3.1,9.06,9.06,0,0,1,4.65-1.1c1.65,0,4.35.25,6.2,2,2,2,2.1,4.6,2.1,6.15v14.55h-8V809.16c0-2.35-.25-3.95-1.15-4.8a2.92,2.92,0,0,0-2.1-.75,3.24,3.24,0,0,0-2.35.9,5.71,5.71,0,0,0-1.45,4.25v11.45h-8V809.16c0-2.15-.15-3.85-1.05-4.8a3.1,3.1,0,0,0-2.4-.9,2.82,2.82,0,0,0-2.2.8c-1.4,1.35-1.4,3.5-1.4,4.9v11.05h-8Z"/><path d="M947.75,820.21h-8v-2.45A8.2,8.2,0,0,1,933,821a10.7,10.7,0,0,1-7.85-3.1,12.33,12.33,0,0,1-3.6-8.9,12.18,12.18,0,0,1,3.65-8.85,11.43,11.43,0,0,1,7.9-3,8.84,8.84,0,0,1,6.65,2.9V783.76h8Zm-9.45-7.4A5.36,5.36,0,0,0,940,809a5.85,5.85,0,0,0-1.5-3.6,5.13,5.13,0,0,0-7.2,0,5.49,5.49,0,0,0-1.55,3.8,5,5,0,0,0,1.55,3.5,5,5,0,0,0,3.55,1.5A5.46,5.46,0,0,0,938.3,812.81Z"/><path d="M977,810.51H960.3a5.65,5.65,0,0,0,1.4,3.75,4.49,4.49,0,0,0,3.3,1.1,6.31,6.31,0,0,0,2.6-.6,3.72,3.72,0,0,0,1.4-1.5h7.65a10,10,0,0,1-2.7,4.6c-1.65,1.6-4.25,3.1-9.1,3.1a12.68,12.68,0,0,1-9.25-3.4,11.71,11.71,0,0,1-3.3-8.45,11.93,11.93,0,0,1,3.35-8.65c1.85-1.8,4.75-3.25,9.15-3.25a12.24,12.24,0,0,1,8.6,3,12.51,12.51,0,0,1,3.55,9.4Zm-7.35-4.6a5.36,5.36,0,0,0-1.3-2.4,4.66,4.66,0,0,0-3.3-1.2,4.3,4.3,0,0,0-3.25,1.2,4.56,4.56,0,0,0-1.2,2.4Z"/><path d="M1013.05,794.21H1002.6v5.55h9.5v7.35h-9.5v13.1H994V786.86h19.1Z"/><path d="M1021,784.06a4.5,4.5,0,1,1-4.5,4.5A4.48,4.48,0,0,1,1021,784.06Zm4,13.8v22.35h-8V797.86Z"/><path d="M1031.85,812.81a11.45,11.45,0,0,0,3.2,1.65,10.41,10.41,0,0,0,3.1.55,3.39,3.39,0,0,0,2-.6,1.28,1.28,0,0,0,.4-1,1.19,1.19,0,0,0-.4-1,5,5,0,0,0-2.1-.8l-2.1-.5a7.19,7.19,0,0,1-3.9-1.95,5.41,5.41,0,0,1-1.45-3.85,8,8,0,0,1,2.1-5.45c1.7-1.75,4.7-2.7,8-2.7a18.45,18.45,0,0,1,7.15,1.45l-2.7,5.1a11.07,11.07,0,0,0-4.2-1.1,3.38,3.38,0,0,0-1.85.45,1.2,1.2,0,0,0-.7,1.1,1.3,1.3,0,0,0,1,1.25c.75.3,1.4.3,2.65.65l1.45.4a9.44,9.44,0,0,1,3.3,1.75,6.32,6.32,0,0,1,1.7,4.45,7.47,7.47,0,0,1-2.25,5.55c-2.6,2.6-6.4,2.8-8.25,2.8a16.49,16.49,0,0,1-9-2.6Zm3.9,9.9,7.5.8-5.1,9.2-5-.6Z"/><path d="M1056.6,784.06a4.5,4.5,0,1,1-4.5,4.5A4.48,4.48,0,0,1,1056.6,784.06Zm4,13.8v22.35h-8V797.86Z"/><path d="M1089.75,810.51H1073.1a5.65,5.65,0,0,0,1.4,3.75,4.49,4.49,0,0,0,3.3,1.1,6.31,6.31,0,0,0,2.6-.6,3.72,3.72,0,0,0,1.4-1.5h7.65a10,10,0,0,1-2.7,4.6c-1.65,1.6-4.25,3.1-9.1,3.1a12.68,12.68,0,0,1-9.25-3.4,11.71,11.71,0,0,1-3.3-8.45,11.93,11.93,0,0,1,3.35-8.65c1.85-1.8,4.75-3.25,9.15-3.25a12.24,12.24,0,0,1,8.6,3,12.51,12.51,0,0,1,3.55,9.4Zm-7.35-4.6a5.36,5.36,0,0,0-1.3-2.4,4.66,4.66,0,0,0-3.3-1.2,4.3,4.3,0,0,0-3.25,1.2,4.56,4.56,0,0,0-1.2,2.4Z"/><path d="M1094.35,797.86h8v3.65a7.21,7.21,0,0,1,3.15-3.1,8.73,8.73,0,0,1,4.15-.9c.2,0,.55,0,1.6.1v7.55a7.06,7.06,0,0,0-3.45-.8,5.24,5.24,0,0,0-3.65,1.2c-1.7,1.55-1.8,3.9-1.8,5.1v9.55h-8Z"/><path d="M1138.5,810.51h-16.65a5.65,5.65,0,0,0,1.4,3.75,4.49,4.49,0,0,0,3.3,1.1,6.31,6.31,0,0,0,2.6-.6,3.72,3.72,0,0,0,1.4-1.5h7.65a10,10,0,0,1-2.7,4.6c-1.65,1.6-4.25,3.1-9.1,3.1a12.68,12.68,0,0,1-9.25-3.4,11.71,11.71,0,0,1-3.3-8.45,11.93,11.93,0,0,1,3.35-8.65c1.85-1.8,4.75-3.25,9.15-3.25a12.24,12.24,0,0,1,8.6,3,12.51,12.51,0,0,1,3.55,9.4Zm-7.35-4.6a5.36,5.36,0,0,0-1.3-2.4,4.66,4.66,0,0,0-3.3-1.2,4.3,4.3,0,0,0-3.25,1.2,4.56,4.56,0,0,0-1.2,2.4Z"/><path d="M384,1642.55v16.67h-4.32v-16.67Z"/><path d="M387.08,1648.05h4v1.35a4.29,4.29,0,0,1,3.35-1.55,4.61,4.61,0,0,1,2.15.5,3.57,3.57,0,0,1,1.55,1.6,4,4,0,0,1,1.52-1.55,4.51,4.51,0,0,1,2.32-.55,4.43,4.43,0,0,1,3.1,1,4.09,4.09,0,0,1,1.05,3.07v7.27h-4v-5.52a3.34,3.34,0,0,0-.57-2.4,1.48,1.48,0,0,0-1.05-.37,1.59,1.59,0,0,0-1.17.45,2.83,2.83,0,0,0-.73,2.12v5.72h-4v-5.52a3.59,3.59,0,0,0-.52-2.4,1.57,1.57,0,0,0-1.2-.45,1.41,1.41,0,0,0-1.1.4,3.31,3.31,0,0,0-.7,2.45v5.52h-4Z"/><path d="M417.55,1648.05h4v11.17h-4V1658a4.17,4.17,0,0,1-3.47,1.6,5.37,5.37,0,0,1-4-1.77,5.68,5.68,0,0,1-1.6-4.1,6.2,6.2,0,0,1,1.73-4.48,5.74,5.74,0,0,1,4-1.57,4.4,4.4,0,0,1,3.35,1.45Zm-4.2,3.75a2.63,2.63,0,0,0-.8,1.83,2.56,2.56,0,0,0,.78,1.82,2.79,2.79,0,0,0,1.8.75,2.56,2.56,0,0,0,1.8-.77,2.43,2.43,0,0,0,.75-1.8,2.46,2.46,0,0,0-.78-1.83,2.55,2.55,0,0,0-3.55,0Z"/><path d="M436.87,1648.05v10.47a6,6,0,0,1-1.52,4.63,6.65,6.65,0,0,1-4.92,1.8,6.87,6.87,0,0,1-5.23-2,4,4,0,0,1-1.22-2.32h4.45a1.71,1.71,0,0,0,1.87,1.15,2.45,2.45,0,0,0,1.78-.63,2.69,2.69,0,0,0,.8-2.07V1658a4.24,4.24,0,0,1-3.35,1.48,5.6,5.6,0,0,1-4.13-1.57,5.91,5.91,0,0,1-1.55-4.08,6.44,6.44,0,0,1,1.65-4.37,5.61,5.61,0,0,1,4.05-1.7,4.39,4.39,0,0,1,3.33,1.47v-1.15Zm-8.14,3.75a2.5,2.5,0,0,0,0,3.63,2.54,2.54,0,0,0,1.8.72,2.56,2.56,0,0,0,2.55-2.55,2.88,2.88,0,0,0-.8-1.82,2.54,2.54,0,0,0-1.78-.73A2.39,2.39,0,0,0,428.73,1651.8Z"/><path d="M441.63,1641.15a2.25,2.25,0,1,1-2.25,2.25A2.24,2.24,0,0,1,441.63,1641.15Zm2,6.9v11.17h-4v-11.17Z"/><path d="M446.35,1648.05h4v1.4a4.22,4.22,0,0,1,3.55-1.65,4.55,4.55,0,0,1,3.3,1.2,3.86,3.86,0,0,1,1.05,3.13v7.09h-4v-5.64a3.19,3.19,0,0,0-.5-2.18,1.65,1.65,0,0,0-1.27-.47,2.2,2.2,0,0,0-1.48.52,2.58,2.58,0,0,0-.65,1.78v6h-4Z"/><path d="M463,1641.15a2.25,2.25,0,1,1-2.25,2.25A2.24,2.24,0,0,1,463,1641.15Zm2,6.9v11.17h-4v-11.17Z"/><path d="M437.38,1912.49v12h-3.12v-12Z"/><path d="M439.62,1916.45h2.88v1a3.12,3.12,0,0,1,2.42-1.12,3.37,3.37,0,0,1,1.55.36,2.57,2.57,0,0,1,1.11,1.15,2.83,2.83,0,0,1,1.1-1.11,3.24,3.24,0,0,1,1.68-.4,3.2,3.2,0,0,1,2.23.74,2.93,2.93,0,0,1,.75,2.21v5.24h-2.88v-4a2.43,2.43,0,0,0-.41-1.73,1.07,1.07,0,0,0-.76-.26,1.17,1.17,0,0,0-.84.32,2,2,0,0,0-.53,1.53v4.12H445v-4a2.63,2.63,0,0,0-.37-1.73,1.17,1.17,0,0,0-.87-.32,1,1,0,0,0-.79.29,2.35,2.35,0,0,0-.51,1.76v4h-2.88Z"/><path d="M461.57,1916.45h2.88v8h-2.88v-.88a3,3,0,0,1-2.5,1.15,3.83,3.83,0,0,1-2.9-1.28,4,4,0,0,1-1.16-3,4.45,4.45,0,0,1,1.25-3.22,4.1,4.1,0,0,1,2.9-1.14,3.18,3.18,0,0,1,2.41,1Zm-3,2.71a1.88,1.88,0,0,0-.57,1.31,1.84,1.84,0,0,0,.56,1.31,2,2,0,0,0,1.29.54,1.84,1.84,0,0,0,1.3-.55,1.82,1.82,0,0,0,0-2.61,1.81,1.81,0,0,0-1.3-.53A1.85,1.85,0,0,0,458.54,1919.16Z"/><path d="M475.48,1916.45V1924a4.27,4.27,0,0,1-1.1,3.33,4.8,4.8,0,0,1-3.54,1.3,4.93,4.93,0,0,1-3.77-1.43,3,3,0,0,1-.88-1.67h3.21a1.23,1.23,0,0,0,1.35.83,1.76,1.76,0,0,0,1.28-.45,2,2,0,0,0,.57-1.5v-.81a3,3,0,0,1-2.41,1.06,4,4,0,0,1-3-1.13,4.26,4.26,0,0,1-1.12-2.93,4.61,4.61,0,0,1,1.19-3.15,4,4,0,0,1,2.92-1.23,3.14,3.14,0,0,1,2.39,1.06v-.83Zm-5.87,2.71a1.8,1.8,0,0,0,0,2.61,1.87,1.87,0,0,0,1.3.52,1.84,1.84,0,0,0,1.84-1.84,2.08,2.08,0,0,0-.58-1.31,1.79,1.79,0,0,0-1.28-.52A1.73,1.73,0,0,0,469.61,1919.16Z"/><path d="M478.9,1911.49a1.62,1.62,0,1,1-1.62,1.62A1.61,1.61,0,0,1,478.9,1911.49Zm1.44,5v8h-2.88v-8Z"/><path d="M482.3,1916.45h2.88v1a3.05,3.05,0,0,1,2.56-1.19,3.26,3.26,0,0,1,2.38.87,2.78,2.78,0,0,1,.75,2.25v5.11H488v-4.07a2.29,2.29,0,0,0-.36-1.56,1.2,1.2,0,0,0-.92-.34,1.59,1.59,0,0,0-1.06.37,1.86,1.86,0,0,0-.47,1.28v4.32H482.3Z"/><path d="M501.37,1921h-6a2,2,0,0,0,.51,1.35,1.59,1.59,0,0,0,1.18.4,2.26,2.26,0,0,0,.94-.22,1.32,1.32,0,0,0,.5-.54h2.76a3.71,3.71,0,0,1-1,1.66,4.41,4.41,0,0,1-3.28,1.11,4.56,4.56,0,0,1-3.33-1.22,4.21,4.21,0,0,1-1.19-3,4.29,4.29,0,0,1,1.21-3.12,4.51,4.51,0,0,1,3.29-1.17,4.42,4.42,0,0,1,3.1,1.1,4.52,4.52,0,0,1,1.28,3.38Zm-2.65-1.66a1.86,1.86,0,0,0-.47-.86,1.67,1.67,0,0,0-1.19-.43,1.55,1.55,0,0,0-1.17.43,1.63,1.63,0,0,0-.43.86Z"/><path d="M516.32,1924.5h-9.63l3-3.18a20.4,20.4,0,0,0,2.47-3,3.41,3.41,0,0,0,.65-1.87,1.79,1.79,0,0,0-.36-1.15,1.18,1.18,0,0,0-.88-.36,1.3,1.3,0,0,0-1.05.48,3,3,0,0,0-.43,1.48h-3.22a4.73,4.73,0,0,1,1.33-3.33,5.16,5.16,0,0,1,6.79,0,4,4,0,0,1,1.17,3,4.65,4.65,0,0,1-1.78,3.56l-2,1.88h3.92Z"/><path d="M437.38,1797.59v12h-3.12v-12Z"/><path d="M439.62,1801.55h2.88v1a3.12,3.12,0,0,1,2.42-1.12,3.37,3.37,0,0,1,1.55.36,2.54,2.54,0,0,1,1.11,1.16,2.87,2.87,0,0,1,1.1-1.12,3.34,3.34,0,0,1,1.68-.4,3.2,3.2,0,0,1,2.23.74,3,3,0,0,1,.75,2.22v5.24h-2.88v-4a2.42,2.42,0,0,0-.41-1.73,1,1,0,0,0-.76-.27,1.17,1.17,0,0,0-.84.32,2.06,2.06,0,0,0-.53,1.53v4.13H445v-4a2.59,2.59,0,0,0-.37-1.73,1.14,1.14,0,0,0-.87-.33,1,1,0,0,0-.79.29,2.37,2.37,0,0,0-.51,1.77v4h-2.88Z"/><path d="M461.57,1801.55h2.88v8h-2.88v-.89a3,3,0,0,1-2.5,1.16,3.87,3.87,0,0,1-2.9-1.28,4,4,0,0,1-1.16-2.95,4.46,4.46,0,0,1,1.25-3.23,4.14,4.14,0,0,1,2.9-1.13,3.18,3.18,0,0,1,2.41,1Zm-3,2.7a1.9,1.9,0,0,0-.57,1.31,1.86,1.86,0,0,0,.56,1.32,2,2,0,0,0,1.29.54,1.85,1.85,0,0,0,1.3-.56,1.76,1.76,0,0,0,.54-1.3,1.78,1.78,0,0,0-.56-1.31,1.84,1.84,0,0,0-2.56,0Z"/><path d="M475.48,1801.55v7.54a4.25,4.25,0,0,1-1.1,3.33,4.76,4.76,0,0,1-3.54,1.3,5,5,0,0,1-3.77-1.42,3,3,0,0,1-.88-1.68h3.21c.1.33.39.83,1.35.83A1.76,1.76,0,0,0,472,1811a2,2,0,0,0,.57-1.49v-.81a3.07,3.07,0,0,1-2.41,1.06,4,4,0,0,1-3-1.14,4.23,4.23,0,0,1-1.12-2.93,4.65,4.65,0,0,1,1.19-3.15,4,4,0,0,1,2.92-1.23,3.12,3.12,0,0,1,2.39,1.07v-.83Zm-5.87,2.7a1.92,1.92,0,0,0-.56,1.3,1.9,1.9,0,0,0,.56,1.31,1.82,1.82,0,0,0,1.3.52,1.94,1.94,0,0,0,1.3-.54,1.92,1.92,0,0,0,.54-1.29,2.08,2.08,0,0,0-.58-1.32,1.83,1.83,0,0,0-1.28-.52A1.73,1.73,0,0,0,469.61,1804.25Z"/><path d="M478.9,1796.58a1.62,1.62,0,1,1-1.62,1.62A1.61,1.61,0,0,1,478.9,1796.58Zm1.44,5v8h-2.88v-8Z"/><path d="M482.3,1801.55h2.88v1a3,3,0,0,1,2.56-1.19,3.29,3.29,0,0,1,2.38.86,2.79,2.79,0,0,1,.75,2.25v5.12H488v-4.07a2.31,2.31,0,0,0-.36-1.57,1.2,1.2,0,0,0-.92-.34,1.54,1.54,0,0,0-1.06.38,1.84,1.84,0,0,0-.47,1.28v4.32H482.3Z"/><path d="M501.37,1806.1h-6a2,2,0,0,0,.51,1.35,1.59,1.59,0,0,0,1.18.4,2.26,2.26,0,0,0,.94-.22,1.2,1.2,0,0,0,.5-.54h2.76a3.71,3.71,0,0,1-1,1.66,4.37,4.37,0,0,1-3.28,1.12,4.57,4.57,0,0,1-3.33-1.23,4.21,4.21,0,0,1-1.19-3,4.29,4.29,0,0,1,1.21-3.12,4.55,4.55,0,0,1,3.29-1.17,4.42,4.42,0,0,1,3.1,1.1,4.54,4.54,0,0,1,1.28,3.39Zm-2.65-1.65a1.9,1.9,0,0,0-.47-.87,1.67,1.67,0,0,0-1.19-.43,1.58,1.58,0,0,0-1.17.43,1.71,1.71,0,0,0-.43.87Z"/><path d="M510.44,1800.23h-1.71v-2.64h4.82v12h-3.11Z"/><path d="M729.14,1917.26h-3.76v2h3.42v2.65h-3.42v4.72h-3.12v-12h6.88Z"/><path d="M732,1913.6a1.62,1.62,0,1,1-1.62,1.62A1.61,1.61,0,0,1,732,1913.6Zm1.44,5v8h-2.88v-8Z"/><path d="M738.26,1913.49v13.13h-2.88v-13.13Z"/><path d="M740.22,1918.57h2.88v1a3.09,3.09,0,0,1,2.42-1.11,3.25,3.25,0,0,1,1.55.36,2.48,2.48,0,0,1,1.11,1.15,2.87,2.87,0,0,1,1.1-1.12,3.33,3.33,0,0,1,1.68-.39,3.23,3.23,0,0,1,2.23.73,3,3,0,0,1,.75,2.22v5.24h-2.88v-4a2.42,2.42,0,0,0-.41-1.73,1.07,1.07,0,0,0-.76-.27,1.14,1.14,0,0,0-.84.33,2,2,0,0,0-.53,1.53v4.12h-2.88v-4a2.61,2.61,0,0,0-.37-1.73,1.13,1.13,0,0,0-.87-.32,1,1,0,0,0-.79.28,2.38,2.38,0,0,0-.51,1.77v4h-2.88Z"/><path d="M769.24,1926.62h-9.63l3-3.19a19.89,19.89,0,0,0,2.47-3,3.43,3.43,0,0,0,.65-1.87,1.82,1.82,0,0,0-.36-1.16,1.22,1.22,0,0,0-.89-.36,1.3,1.3,0,0,0-1,.49,3,3,0,0,0-.43,1.48h-3.22a4.71,4.71,0,0,1,1.33-3.33,4.55,4.55,0,0,1,3.4-1.3,4.61,4.61,0,0,1,3.39,1.24,4.05,4.05,0,0,1,1.17,3,4.68,4.68,0,0,1-1.79,3.57l-2,1.87h3.92Z"/><path d="M731.91,1802.35h-3.76v2h3.42V1807h-3.42v4.72H725v-12h6.88Z"/><path d="M734.75,1798.69a1.62,1.62,0,1,1-1.62,1.62A1.61,1.61,0,0,1,734.75,1798.69Zm1.44,5v8h-2.88v-8Z"/><path d="M741,1798.59v13.12h-2.89v-13.12Z"/><path d="M743,1803.66h2.88v1a3.08,3.08,0,0,1,2.41-1.12,3.31,3.31,0,0,1,1.55.36A2.52,2.52,0,0,1,751,1805a2.83,2.83,0,0,1,1.1-1.11,3.24,3.24,0,0,1,1.68-.4,3.2,3.2,0,0,1,2.23.74,3,3,0,0,1,.76,2.21v5.24h-2.89v-4a2.38,2.38,0,0,0-.41-1.73,1.06,1.06,0,0,0-.75-.27,1.14,1.14,0,0,0-.85.33,2,2,0,0,0-.52,1.53v4.12h-2.88v-4A2.62,2.62,0,0,0,748,1806a1.12,1.12,0,0,0-.87-.32,1,1,0,0,0-.79.29,2.38,2.38,0,0,0-.5,1.76v4H743Z"/><path d="M766.13,1802.35h-1.71v-2.65h4.82v12h-3.11Z"/><path d="M895.76,1926.06v-12h4.09a6.69,6.69,0,0,1,4.77,1.66,5.87,5.87,0,0,1,1.67,4.37,5.53,5.53,0,0,1-1.56,4.16,6.52,6.52,0,0,1-4.61,1.82Zm3.12-2.65h.63a3.58,3.58,0,0,0,2.62-.86,3.27,3.27,0,0,0,.92-2.47,3.62,3.62,0,0,0-.93-2.63,3.52,3.52,0,0,0-2.49-.75h-.75Z"/><path d="M916.1,1925a5.51,5.51,0,0,1-7.18,0,4,4,0,0,1-1.24-3,4,4,0,0,1,1.24-3,5.51,5.51,0,0,1,7.18,0,4,4,0,0,1,1.24,3A4,4,0,0,1,916.1,1925Zm-4.88-4.29a1.85,1.85,0,0,0-.55,1.32,1.9,1.9,0,0,0,.55,1.28,1.87,1.87,0,0,0,1.3.54,1.84,1.84,0,0,0,1.28-.54,1.81,1.81,0,0,0,.56-1.28,2,2,0,0,0-.56-1.32,1.86,1.86,0,0,0-2.58,0Z"/><path d="M925.08,1925.88a4.23,4.23,0,0,1-2,.45,4.46,4.46,0,0,1-3.16-1.22,4.21,4.21,0,0,1-1.25-3A4.41,4.41,0,0,1,920,1919a4.64,4.64,0,0,1,3.24-1.22,4.1,4.1,0,0,1,1.87.45v2.41a2.54,2.54,0,0,0-1.49-.52,1.86,1.86,0,0,0-1.4.56,1.93,1.93,0,0,0-.56,1.38,2.06,2.06,0,0,0,.5,1.35,2,2,0,0,0,1.48.62,2.17,2.17,0,0,0,1.47-.54Z"/><path d="M929.6,1918v4.5A1.3,1.3,0,0,0,931,1924a1.39,1.39,0,0,0,1-.34,1.5,1.5,0,0,0,.41-1.14V1918h2.88v5a2.76,2.76,0,0,1-.77,2.16,4.62,4.62,0,0,1-3.48,1.13,4.81,4.81,0,0,1-3.63-1.15,2.87,2.87,0,0,1-.76-2.14v-5Z"/><path d="M937.34,1918h2.88v1a3.12,3.12,0,0,1,2.41-1.11,3.2,3.2,0,0,1,1.55.36,2.46,2.46,0,0,1,1.12,1.15,2.81,2.81,0,0,1,1.1-1.12,3.27,3.27,0,0,1,1.67-.39,3.17,3.17,0,0,1,2.23.74,3,3,0,0,1,.76,2.21v5.24h-2.88v-4a2.36,2.36,0,0,0-.42-1.73,1,1,0,0,0-.75-.27,1.16,1.16,0,0,0-.85.33,2.06,2.06,0,0,0-.52,1.53v4.12h-2.88v-4a2.55,2.55,0,0,0-.38-1.73,1.1,1.1,0,0,0-.86-.32,1,1,0,0,0-.8.29,2.38,2.38,0,0,0-.5,1.76v4h-2.88Z"/><path d="M961.59,1922.57h-6a2,2,0,0,0,.51,1.35,1.62,1.62,0,0,0,1.19.39,2.18,2.18,0,0,0,.93-.21,1.41,1.41,0,0,0,.51-.54h2.75a3.64,3.64,0,0,1-1,1.65,4.37,4.37,0,0,1-3.28,1.12,4.56,4.56,0,0,1-3.33-1.22,4.55,4.55,0,0,1,0-6.16,4.51,4.51,0,0,1,3.29-1.17,4.41,4.41,0,0,1,3.1,1.1,4.52,4.52,0,0,1,1.28,3.38Zm-2.65-1.66a1.82,1.82,0,0,0-.47-.86,1.66,1.66,0,0,0-1.18-.44,1.56,1.56,0,0,0-1.18.44,1.71,1.71,0,0,0-.43.86Z"/><path d="M963.24,1918h2.88v1a3.05,3.05,0,0,1,2.56-1.19,3.26,3.26,0,0,1,2.38.87,2.77,2.77,0,0,1,.75,2.25v5.11h-2.88V1922a2.31,2.31,0,0,0-.36-1.57,1.24,1.24,0,0,0-.92-.34,1.54,1.54,0,0,0-1.06.38,1.84,1.84,0,0,0-.47,1.28v4.32h-2.88Z"/><path d="M977,1920.37v5.69h-2.88v-5.69h-.92V1918h.92v-2.65H977V1918h1.64v2.36Z"/><path d="M993,1926.06h-9.63l3-3.19a19.89,19.89,0,0,0,2.47-3,3.4,3.4,0,0,0,.64-1.87,1.79,1.79,0,0,0-.36-1.15,1.17,1.17,0,0,0-.88-.37,1.3,1.3,0,0,0-1,.49,2.88,2.88,0,0,0-.43,1.48h-3.23a4.78,4.78,0,0,1,1.33-3.33,5.17,5.17,0,0,1,6.79-.06,4,4,0,0,1,1.17,3,4.66,4.66,0,0,1-1.78,3.56l-2,1.87H993Z"/><path d="M895.76,1811v-12h4.09a6.69,6.69,0,0,1,4.77,1.66,5.86,5.86,0,0,1,1.67,4.37,5.53,5.53,0,0,1-1.56,4.16,6.56,6.56,0,0,1-4.61,1.82Zm3.12-2.65h.63a3.58,3.58,0,0,0,2.62-.86,3.27,3.27,0,0,0,.92-2.47,3.62,3.62,0,0,0-.93-2.63,3.52,3.52,0,0,0-2.49-.75h-.75Z"/><path d="M916.1,1810a5.51,5.51,0,0,1-7.18,0,4,4,0,0,1-1.24-3,4,4,0,0,1,1.24-3,5.51,5.51,0,0,1,7.18,0,4,4,0,0,1,1.24,3A4,4,0,0,1,916.1,1810Zm-4.88-4.29a1.8,1.8,0,0,0,0,2.59,1.82,1.82,0,0,0,1.3.54,1.79,1.79,0,0,0,1.28-.54,1.77,1.77,0,0,0,.56-1.27,2,2,0,0,0-.56-1.32,1.86,1.86,0,0,0-2.58,0Z"/><path d="M925.08,1810.84a4.23,4.23,0,0,1-2,.45,4.41,4.41,0,0,1-3.16-1.23,4.17,4.17,0,0,1-1.25-3,4.39,4.39,0,0,1,1.3-3.12,4.64,4.64,0,0,1,3.24-1.22,4.1,4.1,0,0,1,1.87.45v2.41a2.54,2.54,0,0,0-1.49-.52,1.86,1.86,0,0,0-1.4.56,1.93,1.93,0,0,0-.56,1.38,2.06,2.06,0,0,0,.5,1.35,2,2,0,0,0,1.48.62,2.17,2.17,0,0,0,1.47-.54Z"/><path d="M929.6,1803v4.5A1.3,1.3,0,0,0,931,1809a1.39,1.39,0,0,0,1-.34,1.5,1.5,0,0,0,.41-1.14V1803h2.88v5a2.74,2.74,0,0,1-.77,2.16,4.59,4.59,0,0,1-3.48,1.14,4.81,4.81,0,0,1-3.63-1.15,2.88,2.88,0,0,1-.76-2.15v-5Z"/><path d="M937.34,1803h2.88v1a3.08,3.08,0,0,1,2.41-1.11,3.2,3.2,0,0,1,1.55.36,2.46,2.46,0,0,1,1.12,1.15,2.81,2.81,0,0,1,1.1-1.12,3.27,3.27,0,0,1,1.67-.39,3.2,3.2,0,0,1,2.23.73,3,3,0,0,1,.76,2.22V1811h-2.88v-4a2.36,2.36,0,0,0-.42-1.73,1,1,0,0,0-.75-.27,1.16,1.16,0,0,0-.85.33,2.06,2.06,0,0,0-.52,1.53V1811h-2.88v-4a2.55,2.55,0,0,0-.38-1.73,1.1,1.1,0,0,0-.86-.32,1,1,0,0,0-.8.28,2.42,2.42,0,0,0-.5,1.77v4h-2.88Z"/><path d="M961.59,1807.53h-6a2,2,0,0,0,.51,1.35,1.62,1.62,0,0,0,1.19.39,2.36,2.36,0,0,0,.93-.21,1.41,1.41,0,0,0,.51-.54h2.75a3.64,3.64,0,0,1-1,1.65,4.37,4.37,0,0,1-3.28,1.12,4.53,4.53,0,0,1-3.33-1.23,4.21,4.21,0,0,1-1.19-3,4.29,4.29,0,0,1,1.21-3.11,4.51,4.51,0,0,1,3.29-1.17,4.4,4.4,0,0,1,3.1,1.09,4.55,4.55,0,0,1,1.28,3.39Zm-2.65-1.66a1.82,1.82,0,0,0-.47-.86,1.66,1.66,0,0,0-1.18-.44,1.56,1.56,0,0,0-1.18.44,1.71,1.71,0,0,0-.43.86Z"/><path d="M963.24,1803h2.88v1a3,3,0,0,1,2.56-1.19,3.29,3.29,0,0,1,2.38.86,2.8,2.8,0,0,1,.75,2.26V1811h-2.88V1807a2.31,2.31,0,0,0-.36-1.57,1.24,1.24,0,0,0-.92-.34,1.54,1.54,0,0,0-1.06.38,1.84,1.84,0,0,0-.47,1.28V1811h-2.88Z"/><path d="M977,1805.33V1811h-2.88v-5.69h-.92V1803h.92v-2.65H977V1803h1.64v2.36Z"/><path d="M987.09,1801.66h-1.71V1799h4.83v12h-3.12Z"/><path d="M1179.74,1911.7v4h-3.12v-12h5a4.12,4.12,0,0,1,3,1.08,3.72,3.72,0,0,1,1.12,2.92,3.88,3.88,0,0,1-1.06,3,4,4,0,0,1-3,1Zm0-2.52h1a2,2,0,0,0,1.32-.37,1.77,1.77,0,0,0,0-2.18,1.82,1.82,0,0,0-1.33-.44h-1.06Z"/><path d="M1193.15,1907.63H1196v8h-2.88v-.88a3,3,0,0,1-2.5,1.15,3.83,3.83,0,0,1-2.9-1.28,4,4,0,0,1-1.16-3,4.45,4.45,0,0,1,1.25-3.22,4.14,4.14,0,0,1,2.9-1.13,3.18,3.18,0,0,1,2.41,1Zm-3,2.71a1.88,1.88,0,0,0-.57,1.31,1.84,1.84,0,0,0,.56,1.31,2,2,0,0,0,1.29.54,1.84,1.84,0,0,0,1.3-.55,1.82,1.82,0,0,0,0-2.61,1.81,1.81,0,0,0-1.3-.53A1.85,1.85,0,0,0,1190.12,1910.34Z"/><path d="M1204.09,1915.5a4.23,4.23,0,0,1-2,.45,4.46,4.46,0,0,1-3.17-1.22,4.24,4.24,0,0,1-1.24-3,4.37,4.37,0,0,1,1.3-3.11,4.65,4.65,0,0,1,3.24-1.23,4.13,4.13,0,0,1,1.87.45v2.42a2.57,2.57,0,0,0-1.49-.53,1.89,1.89,0,0,0-1.41.56,2,2,0,0,0-.55,1.39,2.08,2.08,0,0,0,.5,1.35,2,2,0,0,0,1.48.61,2.17,2.17,0,0,0,1.47-.54Z"/><path d="M1205.73,1902.56h2.88v6.08a3.65,3.65,0,0,1,.9-.79,3.29,3.29,0,0,1,1.66-.4,3.19,3.19,0,0,1,2.37.87,2.82,2.82,0,0,1,.76,2.25v5.11h-2.88v-4.07a2.41,2.41,0,0,0-.36-1.56,1.13,1.13,0,0,0-.92-.34,1.51,1.51,0,0,0-1,.34,1.7,1.7,0,0,0-.49,1.31v4.32h-2.88Z"/><path d="M1224.43,1912.19h-6a2,2,0,0,0,.5,1.35,1.62,1.62,0,0,0,1.19.4,2.29,2.29,0,0,0,.94-.22,1.39,1.39,0,0,0,.5-.54h2.76a3.66,3.66,0,0,1-1,1.66,4.39,4.39,0,0,1-3.27,1.11,4.55,4.55,0,0,1-3.33-1.22,4.17,4.17,0,0,1-1.19-3,4.32,4.32,0,0,1,1.2-3.12,4.53,4.53,0,0,1,3.3-1.17,4.4,4.4,0,0,1,3.09,1.1,4.48,4.48,0,0,1,1.28,3.38Zm-2.64-1.66a2.13,2.13,0,0,0-.47-.86,1.67,1.67,0,0,0-1.19-.43,1.53,1.53,0,0,0-1.17.43,1.6,1.6,0,0,0-.43.86Z"/><path d="M1229.27,1910v5.69h-2.88V1910h-.92v-2.36h.92V1905h2.88v2.64h1.64V1910Z"/><path d="M1140,1933.68a4.19,4.19,0,0,0,2.75,1.23,1.58,1.58,0,0,0,1.21-.42,1.07,1.07,0,0,0,.3-.75.93.93,0,0,0-.34-.72,4.17,4.17,0,0,0-1.55-.63l-.81-.26a3.94,3.94,0,0,1-1.73-1,3,3,0,0,1-.68-2.12,3.93,3.93,0,0,1,1.1-2.9,4.24,4.24,0,0,1,3.08-1.14,8.39,8.39,0,0,1,3.71,1l-1.25,2.43a3.13,3.13,0,0,0-2-.81,1.47,1.47,0,0,0-1,.36.88.88,0,0,0-.31.64.77.77,0,0,0,.16.54,1.93,1.93,0,0,0,1,.54l1,.29a4.66,4.66,0,0,1,2.18,1.19,2.85,2.85,0,0,1,.77,2.14,4.1,4.1,0,0,1-1.13,3,4.65,4.65,0,0,1-3.55,1.22,6.51,6.51,0,0,1-2.36-.39,8.72,8.72,0,0,1-1.82-1Z"/><path d="M1157.29,1936.22a5.51,5.51,0,0,1-7.18,0,4.15,4.15,0,0,1,0-5.92,5.48,5.48,0,0,1,7.18,0,3.94,3.94,0,0,1,1.25,3A4,4,0,0,1,1157.29,1936.22Zm-4.87-4.28a1.82,1.82,0,1,0,2.57,2.59,1.77,1.77,0,0,0,.56-1.28,1.84,1.84,0,0,0-3.13-1.31Z"/><path d="M1163.29,1931.59v5.69h-2.88v-5.69h-1v-2.36h1v-1.35a4.16,4.16,0,0,1,.73-2.64,3.36,3.36,0,0,1,2.8-1.28,3.65,3.65,0,0,1,1.38.27v2.48a1.84,1.84,0,0,0-.9-.27,1.06,1.06,0,0,0-.81.31,2.16,2.16,0,0,0-.32,1.35v1.13h2v2.36Z"/><path d="M1170,1931.59v5.69h-2.88v-5.69h-.92v-2.36h.92v-2.64H1170v2.64h1.63v2.36Z"/><path d="M1175.08,1929.23l1.91,4.25,2-4.25h1.76l2,4.38,2-4.38H1188l-4.21,8h-1.95l-2-4.43-1.93,4.43H1176l-4.15-8Z"/><path d="M1194.59,1929.23h2.88v8h-2.88v-.88a3,3,0,0,1-2.5,1.15,3.83,3.83,0,0,1-2.9-1.28,4,4,0,0,1-1.15-3,4.44,4.44,0,0,1,1.24-3.22,4.1,4.1,0,0,1,2.9-1.14,3.18,3.18,0,0,1,2.41,1Zm-3,2.71a1.88,1.88,0,0,0-.57,1.31,1.84,1.84,0,0,0,.56,1.31,2,2,0,0,0,1.29.54,1.84,1.84,0,0,0,1.3-.55,1.82,1.82,0,0,0,0-2.61,1.8,1.8,0,0,0-1.29-.53A1.85,1.85,0,0,0,1191.56,1931.94Z"/><path d="M1199.45,1929.23h2.88v1.32a2.64,2.64,0,0,1,1.13-1.12,3.21,3.21,0,0,1,1.5-.32l.57,0v2.72a2.58,2.58,0,0,0-1.24-.28,1.86,1.86,0,0,0-1.31.43,2.39,2.39,0,0,0-.65,1.83v3.44h-2.88Z"/><path d="M1215.34,1933.79h-6a2,2,0,0,0,.5,1.35,1.62,1.62,0,0,0,1.19.4,2.29,2.29,0,0,0,.94-.22,1.32,1.32,0,0,0,.5-.54h2.76a3.66,3.66,0,0,1-1,1.66,4.39,4.39,0,0,1-3.27,1.11,4.55,4.55,0,0,1-3.33-1.22,4.17,4.17,0,0,1-1.19-3,4.32,4.32,0,0,1,1.2-3.12,4.53,4.53,0,0,1,3.3-1.17,4.42,4.42,0,0,1,3.1,1.1,4.5,4.5,0,0,1,1.27,3.38Zm-2.64-1.66a1.92,1.92,0,0,0-.47-.86,1.67,1.67,0,0,0-1.19-.43,1.53,1.53,0,0,0-1.17.43,1.6,1.6,0,0,0-.43.86Z"/><path d="M1230.3,1937.28h-9.63l3-3.18a20.4,20.4,0,0,0,2.47-3,3.41,3.41,0,0,0,.65-1.87,1.79,1.79,0,0,0-.36-1.15,1.19,1.19,0,0,0-.89-.36,1.29,1.29,0,0,0-1,.48,3,3,0,0,0-.43,1.48h-3.23a4.78,4.78,0,0,1,1.34-3.33,5.14,5.14,0,0,1,6.78,0,4,4,0,0,1,1.17,3,4.65,4.65,0,0,1-1.78,3.56l-2,1.88h3.92Z"/><path d="M1177.74,1796.8v4h-3.12v-12h5a4.12,4.12,0,0,1,3,1.08,3.71,3.71,0,0,1,1.12,2.91,3.87,3.87,0,0,1-1.06,3,4,4,0,0,1-3,1Zm0-2.52h1a2.06,2.06,0,0,0,1.32-.38,1.39,1.39,0,0,0,.39-1.1,1.43,1.43,0,0,0-.36-1.08,1.81,1.81,0,0,0-1.33-.43h-1.06Z"/><path d="M1191.15,1792.73H1194v8h-2.88v-.88a3,3,0,0,1-2.5,1.15,3.87,3.87,0,0,1-2.9-1.28,4,4,0,0,1-1.16-3,4.46,4.46,0,0,1,1.25-3.23,4.14,4.14,0,0,1,2.9-1.13,3.18,3.18,0,0,1,2.41,1Zm-3,2.7a1.9,1.9,0,0,0-.57,1.31,1.86,1.86,0,0,0,.56,1.32,2,2,0,0,0,1.29.54,1.85,1.85,0,0,0,1.3-.56,1.76,1.76,0,0,0,.54-1.3,1.78,1.78,0,0,0-.56-1.31,1.84,1.84,0,0,0-2.56,0Z"/><path d="M1202.09,1800.6a4.23,4.23,0,0,1-2,.45,4.46,4.46,0,0,1-3.17-1.23,4.24,4.24,0,0,1-1.24-3,4.39,4.39,0,0,1,1.3-3.12,4.64,4.64,0,0,1,3.24-1.22,4.13,4.13,0,0,1,1.87.45v2.41a2.56,2.56,0,0,0-1.49-.52,1.89,1.89,0,0,0-1.41.56,2,2,0,0,0-.55,1.38,2.08,2.08,0,0,0,.5,1.35,2,2,0,0,0,1.48.61,2.17,2.17,0,0,0,1.47-.54Z"/><path d="M1203.73,1787.65h2.88v6.09a3.46,3.46,0,0,1,.9-.79,3.68,3.68,0,0,1,4,.46,2.82,2.82,0,0,1,.76,2.25v5.12h-2.88v-4.07a2.42,2.42,0,0,0-.36-1.57,1.16,1.16,0,0,0-.92-.34,1.51,1.51,0,0,0-1,.34,1.74,1.74,0,0,0-.49,1.32v4.32h-2.88Z"/><path d="M1222.43,1797.28h-6a2,2,0,0,0,.5,1.35,1.62,1.62,0,0,0,1.19.4,2.29,2.29,0,0,0,.94-.22,1.26,1.26,0,0,0,.5-.54h2.76a3.66,3.66,0,0,1-1,1.66,4.34,4.34,0,0,1-3.27,1.12,4.56,4.56,0,0,1-3.33-1.23,4.17,4.17,0,0,1-1.19-3,4.32,4.32,0,0,1,1.2-3.12,4.58,4.58,0,0,1,3.3-1.17,4.4,4.4,0,0,1,3.09,1.1,4.5,4.5,0,0,1,1.28,3.39Zm-2.64-1.65a2.1,2.1,0,0,0-.47-.87,1.72,1.72,0,0,0-1.19-.43,1.57,1.57,0,0,0-1.17.43,1.63,1.63,0,0,0-.43.87Z"/><path d="M1227.27,1795.09v5.69h-2.88v-5.69h-.92v-2.36h.92v-2.65h2.88v2.65h1.64v2.36Z"/><path d="M1138,1818.78a4.18,4.18,0,0,0,2.75,1.22,1.62,1.62,0,0,0,1.21-.41,1.07,1.07,0,0,0,.3-.76,1,1,0,0,0-.34-.72,4.17,4.17,0,0,0-1.55-.63l-.81-.25a4,4,0,0,1-1.73-1,3,3,0,0,1-.68-2.12,3.93,3.93,0,0,1,1.1-2.9,4.24,4.24,0,0,1,3.08-1.13,8.51,8.51,0,0,1,3.71,1l-1.25,2.43a3.13,3.13,0,0,0-2-.81,1.47,1.47,0,0,0-1,.36.9.9,0,0,0-.31.65.79.79,0,0,0,.16.54,2,2,0,0,0,1,.54l1,.29a4.56,4.56,0,0,1,2.18,1.18,2.86,2.86,0,0,1,.77,2.15,4.06,4.06,0,0,1-1.13,3,4.66,4.66,0,0,1-3.55,1.23,6.33,6.33,0,0,1-2.36-.4,8.48,8.48,0,0,1-1.82-1Z"/><path d="M1155.29,1821.31a5.48,5.48,0,0,1-7.18,0,4.15,4.15,0,0,1,0-5.92,5.51,5.51,0,0,1,7.18,0,4.13,4.13,0,0,1,0,5.92Zm-4.87-4.28a1.86,1.86,0,0,0-.56,1.31,1.83,1.83,0,0,0,3.13,1.28,1.77,1.77,0,0,0,.56-1.28,1.85,1.85,0,0,0-3.13-1.31Z"/><path d="M1161.29,1816.69v5.69h-2.88v-5.69h-1v-2.36h1V1813a4.19,4.19,0,0,1,.73-2.65,3.36,3.36,0,0,1,2.8-1.28,3.65,3.65,0,0,1,1.38.27v2.49a1.74,1.74,0,0,0-.9-.27,1.06,1.06,0,0,0-.81.3,2.19,2.19,0,0,0-.32,1.35v1.14h2v2.36Z"/><path d="M1168,1816.69v5.69h-2.88v-5.69h-.92v-2.36h.92v-2.65H1168v2.65h1.63v2.36Z"/><path d="M1173.08,1814.33l1.91,4.25,2-4.25h1.76l2,4.37,2-4.37H1186l-4.21,8.05h-1.95l-2-4.43-1.93,4.43H1174l-4.15-8.05Z"/><path d="M1192.59,1814.33h2.88v8.05h-2.88v-.89a3,3,0,0,1-2.5,1.16,3.87,3.87,0,0,1-2.9-1.28,4,4,0,0,1-1.15-2.95,4.45,4.45,0,0,1,1.24-3.23,4.14,4.14,0,0,1,2.9-1.13,3.18,3.18,0,0,1,2.41,1Zm-3,2.7a1.9,1.9,0,0,0-.57,1.31,1.86,1.86,0,0,0,.56,1.32,2,2,0,0,0,1.29.54,1.85,1.85,0,0,0,1.3-.56,1.76,1.76,0,0,0,.54-1.3,1.78,1.78,0,0,0-.56-1.31,1.84,1.84,0,0,0-2.56,0Z"/><path d="M1197.45,1814.33h2.88v1.31a2.56,2.56,0,0,1,1.13-1.11,3.09,3.09,0,0,1,1.5-.33l.57,0V1817a2.54,2.54,0,0,0-1.24-.29,1.86,1.86,0,0,0-1.31.43,2.41,2.41,0,0,0-.65,1.84v3.44h-2.88Z"/><path d="M1213.34,1818.88h-6a2,2,0,0,0,.5,1.35,1.62,1.62,0,0,0,1.19.4,2.29,2.29,0,0,0,.94-.22,1.2,1.2,0,0,0,.5-.54h2.76a3.66,3.66,0,0,1-1,1.66,4.34,4.34,0,0,1-3.27,1.12,4.56,4.56,0,0,1-3.33-1.23,4.17,4.17,0,0,1-1.19-3,4.32,4.32,0,0,1,1.2-3.12,4.58,4.58,0,0,1,3.3-1.17,4.42,4.42,0,0,1,3.1,1.1,4.52,4.52,0,0,1,1.27,3.39Zm-2.64-1.65a1.9,1.9,0,0,0-.47-.87,1.72,1.72,0,0,0-1.19-.43,1.57,1.57,0,0,0-1.17.43,1.63,1.63,0,0,0-.43.87Z"/><path d="M1222.41,1813h-1.71v-2.64h4.83v12h-3.12Z"/><line x1="673" y1="1577" x2="673" y2="1635" style="fill:none;stroke:#91c54f;stroke-miterlimit:10;stroke-width:6.002253890037537px"/><path d="M673.75,1683.88l-3.17-10.06H652.1c-2.86,0-5.2,3.39-5.2,7.54v30.81c0,4.15,2.34,7.55,5.2,7.55h50.66c2.85,0,5.19-3.4,5.19-7.55v-28.29Z" style="fill:none;stroke:#3a5c84;stroke-miterlimit:10;stroke-width:3.122451901435852px"/><line x1="683.46" y1="1704.25" x2="691.68" y2="1704.25" style="fill:none;stroke:#3a5c84;stroke-miterlimit:10;stroke-width:2px"/><line x1="683.46" y1="1708.14" x2="703.37" y2="1708.14" style="fill:none;stroke:#3a5c84;stroke-miterlimit:10;stroke-width:2px"/><line x1="683.46" y1="1712.04" x2="702.94" y2="1712.04" style="fill:none;stroke:#3a5c84;stroke-miterlimit:10;stroke-width:2px"/><line x1="724.08" y1="1700.67" x2="814.01" y2="1700.67" style="fill:none;stroke:#3a5c84;stroke-miterlimit:10;stroke-width:3.122451901435852px"/><polygon points="798.04 1717.78 798.04 1754.48 792.75 1754.48 804 1765.72 815.24 1754.48 809.95 1754.48 809.95 1717.78 798.04 1717.78" style="fill:none;stroke:#3a5c84;stroke-miterlimit:10;stroke-width:3.122451901435852px"/><line x1="789.19" y1="1826.44" x2="821.6" y2="1826.44" style="fill:none;stroke:#636868;stroke-miterlimit:10;stroke-width:3px"/><line x1="789.19" y1="1818.05" x2="821.6" y2="1818.05" style="fill:none;stroke:#636868;stroke-miterlimit:10;stroke-width:3px"/><line x1="789.19" y1="1809.67" x2="821.6" y2="1809.67" style="fill:none;stroke:#636868;stroke-miterlimit:10;stroke-width:3px"/><line x1="789.19" y1="1801.29" x2="821.6" y2="1801.29" style="fill:none;stroke:#636868;stroke-miterlimit:10;stroke-width:3px"/><line x1="789.19" y1="1792.9" x2="802.57" y2="1792.9" style="fill:none;stroke:#636868;stroke-miterlimit:10;stroke-width:3px"/><path d="M819.9,1789.89a4.53,4.53,0,0,1-4.52-4.52v-8.48H787.31a4.53,4.53,0,0,0-4.52,4.52v47.48a4.53,4.53,0,0,0,4.52,4.52h36.17a4.53,4.53,0,0,0,4.52-4.52v-39Z" style="fill:none;stroke:#636868;stroke-miterlimit:10;stroke-width:3px"/><line x1="789.19" y1="1941.34" x2="821.6" y2="1941.34" style="fill:none;stroke:#636868;stroke-miterlimit:10;stroke-width:3px"/><line x1="789.19" y1="1932.96" x2="821.6" y2="1932.96" style="fill:none;stroke:#636868;stroke-miterlimit:10;stroke-width:3px"/><line x1="789.19" y1="1924.58" x2="821.6" y2="1924.58" style="fill:none;stroke:#636868;stroke-miterlimit:10;stroke-width:3px"/><line x1="789.19" y1="1916.19" x2="821.6" y2="1916.19" style="fill:none;stroke:#636868;stroke-miterlimit:10;stroke-width:3px"/><line x1="789.19" y1="1907.81" x2="802.57" y2="1907.81" style="fill:none;stroke:#636868;stroke-miterlimit:10;stroke-width:3px"/><path d="M819.9,1904.8a4.53,4.53,0,0,1-4.52-4.52v-8.48H787.31a4.53,4.53,0,0,0-4.52,4.52v47.47a4.53,4.53,0,0,0,4.52,4.52h36.17a4.53,4.53,0,0,0,4.52-4.52v-39Z" style="fill:none;stroke:#636868;stroke-miterlimit:10;stroke-width:3px"/><path d="M798.36,1866.22a2,2,0,0,1-.58-1.37,1.93,1.93,0,0,1,.58-1.37,1.91,1.91,0,0,1,1.37-.58,2,2,0,0,1,1.38.6,1.93,1.93,0,0,1,0,2.72,1.9,1.9,0,0,1-2.73,0Z"/><path d="M804,1866.22a1.91,1.91,0,0,1-.58-1.37,2,2,0,0,1,1.94-1.95,2,2,0,0,1,1.39.6,2,2,0,0,1,0,2.72,1.93,1.93,0,0,1-1.37.58A1.88,1.88,0,0,1,804,1866.22Z"/><path d="M809.71,1866.22a2,2,0,0,1-.58-1.37,1.93,1.93,0,0,1,.58-1.37,1.91,1.91,0,0,1,1.37-.58,2,2,0,0,1,1.39.6,2,2,0,0,1,0,2.72,1.94,1.94,0,0,1-1.37.58A1.91,1.91,0,0,1,809.71,1866.22Z"/><path d="M657.66,1646.23h-5.22V1649h4.75v3.68h-4.75v6.54h-4.32v-16.67h9.54Z"/><path d="M661.62,1641.15a2.25,2.25,0,1,1-2.25,2.25A2.24,2.24,0,0,1,661.62,1641.15Zm2,6.9v11.17h-4v-11.17Z"/><path d="M670.34,1641v18.22h-4V1641Z"/><path d="M673.07,1648.05h4v1.35a4.29,4.29,0,0,1,3.34-1.55,4.61,4.61,0,0,1,2.15.5,3.46,3.46,0,0,1,1.55,1.6,4,4,0,0,1,1.53-1.55,4.51,4.51,0,0,1,2.32-.55,4.43,4.43,0,0,1,3.1,1,4.09,4.09,0,0,1,1.05,3.07v7.27h-4v-5.52a3.34,3.34,0,0,0-.57-2.4,1.48,1.48,0,0,0-1-.37,1.61,1.61,0,0,0-1.18.45,2.86,2.86,0,0,0-.72,2.12v5.72h-4v-5.52a3.59,3.59,0,0,0-.52-2.4,1.57,1.57,0,0,0-1.2-.45,1.41,1.41,0,0,0-1.1.4,3.31,3.31,0,0,0-.7,2.45v5.52h-4Z"/><path d="M706.74,1654.38h-8.33a2.79,2.79,0,0,0,.71,1.87,2.24,2.24,0,0,0,1.64.55,3,3,0,0,0,1.3-.3,1.83,1.83,0,0,0,.7-.75h3.83a5.09,5.09,0,0,1-1.35,2.3,6.09,6.09,0,0,1-4.55,1.55,6.33,6.33,0,0,1-4.62-1.7,5.84,5.84,0,0,1-1.65-4.22,6,6,0,0,1,1.67-4.33,6.3,6.3,0,0,1,4.57-1.62,6.11,6.11,0,0,1,4.3,1.52,6.24,6.24,0,0,1,1.78,4.7Zm-3.68-2.3a2.66,2.66,0,0,0-.65-1.2,2.3,2.3,0,0,0-1.65-.6,2.13,2.13,0,0,0-1.62.6,2.36,2.36,0,0,0-.6,1.2Z"/><line x1="895" y1="1577" x2="895" y2="1635" style="fill:none;stroke:#91c54f;stroke-miterlimit:10;stroke-width:6.002253890037537px"/><path d="M895.75,1683.88l-3.17-10.06H874.1c-2.86,0-5.2,3.39-5.2,7.54v30.81c0,4.15,2.34,7.55,5.2,7.55h50.66c2.85,0,5.19-3.4,5.19-7.55v-28.29Z" style="fill:none;stroke:#3a5c84;stroke-miterlimit:10;stroke-width:3.122451901435852px"/><line x1="905.46" y1="1704.25" x2="913.68" y2="1704.25" style="fill:none;stroke:#3a5c84;stroke-miterlimit:10;stroke-width:2px"/><line x1="905.46" y1="1708.14" x2="925.37" y2="1708.14" style="fill:none;stroke:#3a5c84;stroke-miterlimit:10;stroke-width:2px"/><line x1="905.46" y1="1712.04" x2="924.94" y2="1712.04" style="fill:none;stroke:#3a5c84;stroke-miterlimit:10;stroke-width:2px"/><line x1="946.08" y1="1700.67" x2="1036.01" y2="1700.67" style="fill:none;stroke:#3a5c84;stroke-miterlimit:10;stroke-width:3.122451901435852px"/><polygon points="1020.04 1717.78 1020.04 1754.48 1014.75 1754.48 1026 1765.72 1037.24 1754.48 1031.95 1754.48 1031.95 1717.78 1020.04 1717.78" style="fill:none;stroke:#3a5c84;stroke-miterlimit:10;stroke-width:3.122451901435852px"/><line x1="1011.19" y1="1826.44" x2="1043.6" y2="1826.44" style="fill:none;stroke:#91c54f;stroke-miterlimit:10;stroke-width:3.122451901435852px"/><line x1="1011.19" y1="1818.05" x2="1043.6" y2="1818.05" style="fill:none;stroke:#91c54f;stroke-miterlimit:10;stroke-width:3.122451901435852px"/><line x1="1011.19" y1="1809.67" x2="1043.6" y2="1809.67" style="fill:none;stroke:#91c54f;stroke-miterlimit:10;stroke-width:3.122451901435852px"/><line x1="1011.19" y1="1801.29" x2="1043.6" y2="1801.29" style="fill:none;stroke:#91c54f;stroke-miterlimit:10;stroke-width:3.122451901435852px"/><line x1="1011.19" y1="1792.9" x2="1024.57" y2="1792.9" style="fill:none;stroke:#91c54f;stroke-miterlimit:10;stroke-width:3.122451901435852px"/><path d="M1041.9,1789.89a4.53,4.53,0,0,1-4.52-4.52v-8.48h-28.07a4.53,4.53,0,0,0-4.52,4.52v47.48a4.53,4.53,0,0,0,4.52,4.52h36.17a4.53,4.53,0,0,0,4.52-4.52v-39Z" style="fill:none;stroke:#91c54f;stroke-miterlimit:10;stroke-width:3.122451901435852px"/><line x1="1011.19" y1="1941.34" x2="1043.6" y2="1941.34" style="fill:none;stroke:#91c54f;stroke-miterlimit:10;stroke-width:3.122451901435852px"/><line x1="1011.19" y1="1932.96" x2="1043.6" y2="1932.96" style="fill:none;stroke:#91c54f;stroke-miterlimit:10;stroke-width:3.122451901435852px"/><line x1="1011.19" y1="1924.58" x2="1043.6" y2="1924.58" style="fill:none;stroke:#91c54f;stroke-miterlimit:10;stroke-width:3.122451901435852px"/><line x1="1011.19" y1="1916.19" x2="1043.6" y2="1916.19" style="fill:none;stroke:#91c54f;stroke-miterlimit:10;stroke-width:3.122451901435852px"/><line x1="1011.19" y1="1907.81" x2="1024.57" y2="1907.81" style="fill:none;stroke:#91c54f;stroke-miterlimit:10;stroke-width:3.122451901435852px"/><path d="M1041.9,1904.8a4.53,4.53,0,0,1-4.52-4.52v-8.48h-28.07a4.53,4.53,0,0,0-4.52,4.52v47.47a4.53,4.53,0,0,0,4.52,4.52h36.17a4.53,4.53,0,0,0,4.52-4.52v-39Z" style="fill:none;stroke:#91c54f;stroke-miterlimit:10;stroke-width:3.122451901435852px"/><path d="M1020.36,1866.22a2,2,0,0,1-.58-1.37,1.93,1.93,0,0,1,.58-1.37,1.91,1.91,0,0,1,1.37-.58,2,2,0,0,1,1.38.6,1.93,1.93,0,0,1,0,2.72,1.9,1.9,0,0,1-2.73,0Z"/><path d="M1026,1866.22a1.91,1.91,0,0,1-.58-1.37,2,2,0,0,1,1.94-1.95,2,2,0,0,1,1.39.6,2,2,0,0,1,0,2.72,1.93,1.93,0,0,1-1.37.58A1.88,1.88,0,0,1,1026,1866.22Z"/><path d="M1031.71,1866.22a2,2,0,0,1-.58-1.37,1.93,1.93,0,0,1,.58-1.37,1.91,1.91,0,0,1,1.37-.58,2,2,0,0,1,1.39.6,2,2,0,0,1,0,2.72,1.94,1.94,0,0,1-1.37.58A1.91,1.91,0,0,1,1031.71,1866.22Z"/><path d="M835.23,1659.22v-16.67h5.67a9.33,9.33,0,0,1,6.63,2.3,8.15,8.15,0,0,1,2.32,6.08,7.69,7.69,0,0,1-2.17,5.77,9,9,0,0,1-6.4,2.52Zm4.32-3.67h.88a5,5,0,0,0,3.65-1.2,4.52,4.52,0,0,0,1.27-3.42,5,5,0,0,0-1.3-3.65,4.84,4.84,0,0,0-3.45-1h-1.05Z"/><path d="M863.48,1657.75a7.64,7.64,0,0,1-10,0,5.75,5.75,0,0,1,0-8.22,7,7,0,0,1,5-1.85,7.06,7.06,0,0,1,5,1.85,5.77,5.77,0,0,1,0,8.22Zm-6.78-6a2.49,2.49,0,0,0,0,3.6,2.51,2.51,0,0,0,3.58,0,2.44,2.44,0,0,0,.77-1.77,2.72,2.72,0,0,0-.77-1.83,2.78,2.78,0,0,0-1.78-.72A2.81,2.81,0,0,0,856.7,1651.8Z"/><path d="M876,1659a5.87,5.87,0,0,1-2.77.63,6.18,6.18,0,0,1-4.4-1.7,5.82,5.82,0,0,1-1.72-4.17,6.08,6.08,0,0,1,1.8-4.33,6.42,6.42,0,0,1,4.49-1.7,5.75,5.75,0,0,1,2.6.63v3.35a3.51,3.51,0,0,0-2.07-.73,2.62,2.62,0,0,0-2,.78,2.71,2.71,0,0,0-.78,1.92,2.91,2.91,0,0,0,.7,1.88,2.73,2.73,0,0,0,2,.85,3,3,0,0,0,2.05-.75Z"/><path d="M882.23,1648.05v6.25a2.14,2.14,0,0,0,.6,1.63,2.05,2.05,0,0,0,1.4.42,1.87,1.87,0,0,0,1.42-.47,2.09,2.09,0,0,0,.58-1.58v-6.25h4v7a3.85,3.85,0,0,1-1.08,3,6.38,6.38,0,0,1-4.82,1.57c-1.68,0-3.73-.18-5.05-1.6a4,4,0,0,1-1-3v-7Z"/><path d="M893,1648.05h4v1.35a4.29,4.29,0,0,1,3.35-1.55,4.61,4.61,0,0,1,2.15.5A3.57,3.57,0,0,1,904,1650a4,4,0,0,1,1.52-1.55,4.55,4.55,0,0,1,2.33-.55,4.46,4.46,0,0,1,3.1,1,4.09,4.09,0,0,1,1,3.07v7.27h-4v-5.52a3.33,3.33,0,0,0-.58-2.4,1.44,1.44,0,0,0-1.05-.37,1.59,1.59,0,0,0-1.17.45,2.83,2.83,0,0,0-.73,2.12v5.72h-4v-5.52a3.59,3.59,0,0,0-.52-2.4,1.57,1.57,0,0,0-1.2-.45,1.41,1.41,0,0,0-1.1.4,3.31,3.31,0,0,0-.7,2.45v5.52h-4Z"/><path d="M926.65,1654.38h-8.32a2.78,2.78,0,0,0,.7,1.87,2.25,2.25,0,0,0,1.65.55,3.07,3.07,0,0,0,1.3-.3,1.9,1.9,0,0,0,.7-.75h3.82a4.91,4.91,0,0,1-1.35,2.3,6.06,6.06,0,0,1-4.55,1.55,6.35,6.35,0,0,1-4.62-1.7,5.84,5.84,0,0,1-1.65-4.22,6,6,0,0,1,1.67-4.33,6.31,6.31,0,0,1,4.58-1.62,6.12,6.12,0,0,1,4.3,1.52,6.27,6.27,0,0,1,1.77,4.7Zm-3.67-2.3a2.66,2.66,0,0,0-.65-1.2,2.31,2.31,0,0,0-1.65-.6,2.14,2.14,0,0,0-1.63.6,2.36,2.36,0,0,0-.6,1.2Z"/><path d="M929,1648.05h4v1.4a4.22,4.22,0,0,1,3.55-1.65,4.53,4.53,0,0,1,3.3,1.2,3.86,3.86,0,0,1,1.05,3.13v7.09h-4v-5.64a3.19,3.19,0,0,0-.5-2.18,1.65,1.65,0,0,0-1.27-.47,2.2,2.2,0,0,0-1.48.52,2.58,2.58,0,0,0-.65,1.78v6h-4Z"/><path d="M948,1651.33v7.89h-4v-7.89h-1.27v-3.28H944v-3.67h4v3.67h2.28v3.28Z"/><path d="M963.62,1654.38H955.3a2.83,2.83,0,0,0,.7,1.87,2.25,2.25,0,0,0,1.65.55,3.07,3.07,0,0,0,1.3-.3,1.83,1.83,0,0,0,.7-.75h3.83a5,5,0,0,1-1.36,2.3,6,6,0,0,1-4.54,1.55,6.37,6.37,0,0,1-4.63-1.7,5.88,5.88,0,0,1-1.65-4.22,6,6,0,0,1,1.68-4.33,6.27,6.27,0,0,1,4.57-1.62,6.11,6.11,0,0,1,4.3,1.52,6.27,6.27,0,0,1,1.77,4.7Zm-3.67-2.3a2.66,2.66,0,0,0-.65-1.2,2.3,2.3,0,0,0-1.65-.6,2.12,2.12,0,0,0-1.62.6,2.21,2.21,0,0,0-.6,1.2Z"/><line x1="1135" y1="1577" x2="1135" y2="1635" style="fill:none;stroke:#91c54f;stroke-miterlimit:10;stroke-width:6.002253890037537px"/><path d="M1135.75,1683.88l-3.17-10.06H1114.1c-2.86,0-5.2,3.39-5.2,7.54v30.81c0,4.15,2.34,7.55,5.2,7.55h50.66c2.85,0,5.19-3.4,5.19-7.55v-28.29Z" style="fill:none;stroke:#3a5c84;stroke-miterlimit:10;stroke-width:3.122451901435852px"/><line x1="1145.46" y1="1704.25" x2="1153.68" y2="1704.25" style="fill:none;stroke:#3a5c84;stroke-miterlimit:10;stroke-width:2px"/><line x1="1145.46" y1="1708.14" x2="1165.37" y2="1708.14" style="fill:none;stroke:#3a5c84;stroke-miterlimit:10;stroke-width:2px"/><line x1="1145.46" y1="1712.04" x2="1164.94" y2="1712.04" style="fill:none;stroke:#3a5c84;stroke-miterlimit:10;stroke-width:2px"/><line x1="1186.08" y1="1700.67" x2="1276.01" y2="1700.67" style="fill:none;stroke:#3a5c84;stroke-miterlimit:10;stroke-width:3.122451901435852px"/><polygon points="1260.05 1717.78 1260.05 1754.48 1254.76 1754.48 1266 1765.72 1277.24 1754.48 1271.95 1754.48 1271.95 1717.78 1260.05 1717.78" style="fill:none;stroke:#3a5c84;stroke-miterlimit:10;stroke-width:3.122451901435852px"/><line x1="1251.19" y1="1826.44" x2="1283.6" y2="1826.44" style="fill:none;stroke:#c13018;stroke-miterlimit:10;stroke-width:3px"/><line x1="1251.19" y1="1818.05" x2="1283.6" y2="1818.05" style="fill:none;stroke:#c13018;stroke-miterlimit:10;stroke-width:3px"/><line x1="1251.19" y1="1809.67" x2="1283.6" y2="1809.67" style="fill:none;stroke:#c13018;stroke-miterlimit:10;stroke-width:3px"/><line x1="1251.19" y1="1801.29" x2="1283.6" y2="1801.29" style="fill:none;stroke:#c13018;stroke-miterlimit:10;stroke-width:3px"/><line x1="1251.19" y1="1792.9" x2="1264.57" y2="1792.9" style="fill:none;stroke:#c13018;stroke-miterlimit:10;stroke-width:3px"/><path d="M1281.9,1789.89a4.53,4.53,0,0,1-4.52-4.52v-8.48h-28.07a4.53,4.53,0,0,0-4.52,4.52v47.48a4.53,4.53,0,0,0,4.52,4.52h36.17a4.53,4.53,0,0,0,4.52-4.52v-39Z" style="fill:none;stroke:#c13018;stroke-miterlimit:10;stroke-width:3px"/><line x1="1251.19" y1="1941.34" x2="1283.6" y2="1941.34" style="fill:none;stroke:#c13018;stroke-miterlimit:10;stroke-width:3px"/><line x1="1251.19" y1="1932.96" x2="1283.6" y2="1932.96" style="fill:none;stroke:#c13018;stroke-miterlimit:10;stroke-width:3px"/><line x1="1251.19" y1="1924.58" x2="1283.6" y2="1924.58" style="fill:none;stroke:#c13018;stroke-miterlimit:10;stroke-width:3px"/><line x1="1251.19" y1="1916.19" x2="1283.6" y2="1916.19" style="fill:none;stroke:#c13018;stroke-miterlimit:10;stroke-width:3px"/><line x1="1251.19" y1="1907.81" x2="1264.57" y2="1907.81" style="fill:none;stroke:#c13018;stroke-miterlimit:10;stroke-width:3px"/><path d="M1281.9,1904.8a4.53,4.53,0,0,1-4.52-4.52v-8.48h-28.07a4.53,4.53,0,0,0-4.52,4.52v47.47a4.53,4.53,0,0,0,4.52,4.52h36.17a4.53,4.53,0,0,0,4.52-4.52v-39Z" style="fill:none;stroke:#c13018;stroke-miterlimit:10;stroke-width:3px"/><path d="M1260.36,1866.22a2,2,0,0,1-.58-1.37,1.93,1.93,0,0,1,.58-1.37,1.91,1.91,0,0,1,1.37-.58,2,2,0,0,1,1.38.6,1.93,1.93,0,0,1,0,2.72,1.9,1.9,0,0,1-2.73,0Z"/><path d="M1266,1866.22a1.91,1.91,0,0,1-.58-1.37,2,2,0,0,1,1.94-1.95,2,2,0,0,1,1.39.6,2,2,0,0,1,0,2.72,1.93,1.93,0,0,1-1.37.58A1.88,1.88,0,0,1,1266,1866.22Z"/><path d="M1271.71,1866.22a2,2,0,0,1-.58-1.37,1.93,1.93,0,0,1,.58-1.37,1.91,1.91,0,0,1,1.37-.58,2,2,0,0,1,1.39.6,2,2,0,0,1,0,2.72,1.94,1.94,0,0,1-1.37.58A1.91,1.91,0,0,1,1271.71,1866.22Z"/><path d="M1042.24,1653.7v5.52h-4.32v-16.67h6.9a5.75,5.75,0,0,1,4.22,1.5,5.17,5.17,0,0,1,1.55,4,5.4,5.4,0,0,1-1.47,4.15,5.53,5.53,0,0,1-4.15,1.45Zm0-3.5h1.45a2.87,2.87,0,0,0,1.83-.52,1.94,1.94,0,0,0,.55-1.53,2,2,0,0,0-.5-1.5,2.56,2.56,0,0,0-1.85-.6h-1.48Z"/><path d="M1060.87,1648.05h4v11.17h-4V1658a4.2,4.2,0,0,1-3.48,1.6,5.35,5.35,0,0,1-4-1.77,5.64,5.64,0,0,1-1.6-4.1,6.19,6.19,0,0,1,1.72-4.48,5.76,5.76,0,0,1,4-1.57,4.41,4.41,0,0,1,3.35,1.45Zm-4.2,3.75a2.63,2.63,0,0,0-.8,1.83,2.55,2.55,0,0,0,.77,1.82,2.83,2.83,0,0,0,1.8.75,2.56,2.56,0,0,0,1.8-.77,2.43,2.43,0,0,0,.75-1.8,2.49,2.49,0,0,0-.77-1.83,2.57,2.57,0,0,0-1.8-.72A2.54,2.54,0,0,0,1056.67,1651.8Z"/><path d="M1076.07,1659a5.9,5.9,0,0,1-2.78.63,6.2,6.2,0,0,1-4.4-1.7,5.82,5.82,0,0,1-1.72-4.17,6.08,6.08,0,0,1,1.8-4.33,6.45,6.45,0,0,1,4.5-1.7,5.75,5.75,0,0,1,2.6.63v3.35a3.56,3.56,0,0,0-2.08-.73,2.62,2.62,0,0,0-2,.78,2.7,2.7,0,0,0-.77,1.92,2.86,2.86,0,0,0,.7,1.88,2.7,2.7,0,0,0,2,.85,3.07,3.07,0,0,0,2-.75Z"/><path d="M1078.34,1641h4v8.45a5.17,5.17,0,0,1,1.25-1.1,5.12,5.12,0,0,1,5.6.65,3.9,3.9,0,0,1,1,3.13v7.09h-4v-5.64a3.33,3.33,0,0,0-.5-2.18,1.58,1.58,0,0,0-1.27-.47,2.13,2.13,0,0,0-1.45.47,2.46,2.46,0,0,0-.68,1.83v6h-4Z"/><path d="M1104.32,1654.38H1096a2.83,2.83,0,0,0,.7,1.87,2.25,2.25,0,0,0,1.65.55,3.07,3.07,0,0,0,1.3-.3,1.83,1.83,0,0,0,.7-.75h3.83a5.09,5.09,0,0,1-1.35,2.3,6.09,6.09,0,0,1-4.55,1.55,6.37,6.37,0,0,1-4.63-1.7,5.88,5.88,0,0,1-1.65-4.22,6,6,0,0,1,1.68-4.33,6.27,6.27,0,0,1,4.57-1.62,6.11,6.11,0,0,1,4.3,1.52,6.24,6.24,0,0,1,1.78,4.7Zm-3.68-2.3a2.66,2.66,0,0,0-.65-1.2,2.3,2.3,0,0,0-1.65-.6,2.12,2.12,0,0,0-1.62.6,2.21,2.21,0,0,0-.6,1.2Z"/><path d="M1111,1651.33v7.89h-4v-7.89h-1.27v-3.28H1107v-3.67h4v3.67h2.28v3.28Z"/><path d="M1126.66,1654.38h-8.32a2.83,2.83,0,0,0,.7,1.87,2.25,2.25,0,0,0,1.65.55,3.07,3.07,0,0,0,1.3-.3,1.83,1.83,0,0,0,.7-.75h3.83a5,5,0,0,1-1.36,2.3,6,6,0,0,1-4.54,1.55,6.37,6.37,0,0,1-4.63-1.7,5.88,5.88,0,0,1-1.65-4.22,6,6,0,0,1,1.68-4.33,6.27,6.27,0,0,1,4.57-1.62,6.12,6.12,0,0,1,4.3,1.52,6.27,6.27,0,0,1,1.77,4.7Zm-3.67-2.3a2.66,2.66,0,0,0-.65-1.2,2.3,2.3,0,0,0-1.65-.6,2.12,2.12,0,0,0-1.62.6,2.21,2.21,0,0,0-.6,1.2Z"/><path d="M1136.27,1654.23a5.84,5.84,0,0,0,3.82,1.7,2.18,2.18,0,0,0,1.67-.58,1.49,1.49,0,0,0,.43-1,1.32,1.32,0,0,0-.48-1,5.94,5.94,0,0,0-2.15-.87l-1.12-.35a5.52,5.52,0,0,1-2.4-1.35,4.2,4.2,0,0,1-1-3,5.45,5.45,0,0,1,1.53-4,5.86,5.86,0,0,1,4.27-1.57,11.66,11.66,0,0,1,5.15,1.35l-1.73,3.37a4.41,4.41,0,0,0-2.85-1.12,2.06,2.06,0,0,0-1.42.5,1.23,1.23,0,0,0-.43.9,1.1,1.1,0,0,0,.23.75,2.79,2.79,0,0,0,1.45.75l1.32.4a6.37,6.37,0,0,1,3,1.65,3.92,3.92,0,0,1,1.07,3,5.64,5.64,0,0,1-1.57,4.2,6.49,6.49,0,0,1-4.93,1.7,8.94,8.94,0,0,1-3.27-.55,11.64,11.64,0,0,1-2.52-1.33Z"/><path d="M1160.31,1657.75a7.64,7.64,0,0,1-10,0,5.77,5.77,0,0,1,0-8.22,7.64,7.64,0,0,1,10,0,5.75,5.75,0,0,1,0,8.22Zm-6.77-6a2.49,2.49,0,0,0,0,3.6,2.55,2.55,0,0,0,1.8.75,2.5,2.5,0,0,0,1.77-.75,2.45,2.45,0,0,0,.78-1.77,2.56,2.56,0,0,0-2.55-2.55A2.79,2.79,0,0,0,1153.54,1651.8Z"/><path d="M1168.64,1651.33v7.89h-4v-7.89h-1.4v-3.28h1.4v-1.87a5.77,5.77,0,0,1,1-3.68,4.65,4.65,0,0,1,3.87-1.77,5.13,5.13,0,0,1,1.92.37v3.45a2.53,2.53,0,0,0-1.25-.37,1.43,1.43,0,0,0-1.12.42,3,3,0,0,0-.45,1.88v1.57h2.8v3.28Z"/><path d="M1177.89,1651.33v7.89h-4v-7.89h-1.27v-3.28h1.27v-3.67h4v3.67h2.27v3.28Z"/><path d="M1185,1648.05l2.65,5.9,2.83-5.9h2.45l2.82,6.08,2.8-6.08H1203l-5.85,11.17h-2.7l-2.8-6.14-2.67,6.14h-2.7l-5.75-11.17Z"/><path d="M1212.11,1648.05h4v11.17h-4V1658a4.17,4.17,0,0,1-3.47,1.6,5.37,5.37,0,0,1-4-1.77,5.67,5.67,0,0,1-1.59-4.1,6.19,6.19,0,0,1,1.72-4.48,5.74,5.74,0,0,1,4-1.57,4.4,4.4,0,0,1,3.35,1.45Zm-4.2,3.75a2.63,2.63,0,0,0-.8,1.83,2.56,2.56,0,0,0,.78,1.82,2.79,2.79,0,0,0,1.8.75,2.56,2.56,0,0,0,1.8-.77,2.43,2.43,0,0,0,.75-1.8,2.46,2.46,0,0,0-.78-1.83,2.55,2.55,0,0,0-3.55,0Z"/><path d="M1218.87,1648.05h4v1.83a3.61,3.61,0,0,1,1.58-1.55,4.28,4.28,0,0,1,2.07-.45l.8,0v3.77a3.52,3.52,0,0,0-1.72-.4,2.66,2.66,0,0,0-1.83.6,3.38,3.38,0,0,0-.9,2.55v4.77h-4Z"/><path d="M1240.94,1654.38h-8.33a2.83,2.83,0,0,0,.7,1.87,2.25,2.25,0,0,0,1.65.55,3.07,3.07,0,0,0,1.3-.3,1.83,1.83,0,0,0,.7-.75h3.83a5.09,5.09,0,0,1-1.35,2.3,6.09,6.09,0,0,1-4.55,1.55,6.33,6.33,0,0,1-4.62-1.7,5.84,5.84,0,0,1-1.66-4.22,6,6,0,0,1,1.68-4.33,6.27,6.27,0,0,1,4.57-1.62,6.11,6.11,0,0,1,4.3,1.52,6.24,6.24,0,0,1,1.78,4.7Zm-3.68-2.3a2.66,2.66,0,0,0-.65-1.2,2.3,2.3,0,0,0-1.65-.6,2.12,2.12,0,0,0-1.62.6,2.21,2.21,0,0,0-.6,1.2Z"/></svg>