<svg id="Layer_1" data-name="Layer 1" xmlns="http://www.w3.org/2000/svg" viewBox="0 0 1897 855"><title>Cap 2 -</title><rect x="824" y="80.24" width="355" height="84" rx="12" ry="12" style="fill:none;stroke:#4fc2c9;stroke-miterlimit:10;stroke-width:10px"/><path d="M1007.43,108.77h3.93L996,136.27h-3.9Z"/><line x1="629" y1="272.76" x2="1829" y2="272.76" style="fill:none;stroke:#4fc2c9;stroke-miterlimit:10;stroke-width:10px"/><line x1="240" y1="581.76" x2="1020" y2="581.76" style="fill:none;stroke:#3a5c84;stroke-miterlimit:10;stroke-width:10px"/><line x1="1001" y1="163.76" x2="1001" y2="272.76" style="fill:none;stroke:#4fc2c9;stroke-miterlimit:10;stroke-width:10px"/><line x1="634" y1="472.76" x2="634" y2="581.76" style="fill:none;stroke:#3a5c84;stroke-miterlimit:10;stroke-width:10px"/><line x1="245" y1="576.76" x2="245" y2="685.76" style="fill:none;stroke:#3a5c84;stroke-miterlimit:10;stroke-width:10px"/><line x1="634" y1="585.76" x2="634" y2="694.76" style="fill:none;stroke:#3a5c84;stroke-miterlimit:10;stroke-width:10px"/><line x1="893" y1="585.76" x2="893" y2="694.76" style="fill:none;stroke:#3a5c84;stroke-miterlimit:10;stroke-width:10px"/><line x1="634" y1="272.76" x2="634" y2="381.76" style="fill:none;stroke:#4fc2c9;stroke-miterlimit:10;stroke-width:10px"/><line x1="1002" y1="272.76" x2="1002" y2="381.76" style="fill:none;stroke:#4fc2c9;stroke-miterlimit:10;stroke-width:10px"/><line x1="1425" y1="272.76" x2="1425" y2="381.76" style="fill:none;stroke:#4fc2c9;stroke-miterlimit:10;stroke-width:10px"/><line x1="1739" y1="272.76" x2="1739" y2="381.76" style="fill:none;stroke:#4fc2c9;stroke-miterlimit:10;stroke-width:10px"/><rect x="452.29" y="385.2" width="355" height="84" rx="12" ry="12" style="fill:none;stroke:#3a5c84;stroke-miterlimit:10;stroke-width:10px"/><path d="M585.64,414.18h5.6V426a6.57,6.57,0,0,1,1.75-1.54,7.16,7.16,0,0,1,7.84.91,5.45,5.45,0,0,1,1.47,4.37v9.94h-5.6v-7.91a4.65,4.65,0,0,0-.7-3,2.22,2.22,0,0,0-1.79-.67,3,3,0,0,0-2,.67,3.39,3.39,0,0,0-.94,2.55v8.4h-5.6Z"/><path d="M621.16,437.63a10.7,10.7,0,0,1-14,0,7.8,7.8,0,0,1-2.42-5.78,7.72,7.72,0,0,1,2.42-5.74,9.75,9.75,0,0,1,7-2.59,9.89,9.89,0,0,1,7,2.59,7.72,7.72,0,0,1,2.42,5.74A7.8,7.8,0,0,1,621.16,437.63Zm-9.48-8.33a3.55,3.55,0,1,0,5,5,3.48,3.48,0,0,0,1.09-2.49,3.6,3.6,0,0,0-3.57-3.57A3.85,3.85,0,0,0,611.68,429.3Z"/><path d="M626.8,424.05h5.6v1.89a6,6,0,0,1,4.69-2.17,6.31,6.31,0,0,1,3,.7,4.91,4.91,0,0,1,2.17,2.24,5.46,5.46,0,0,1,2.13-2.17,6.36,6.36,0,0,1,3.26-.77A6.23,6.23,0,0,1,652,425.2a5.76,5.76,0,0,1,1.47,4.31v10.18h-5.6V432c0-1.65-.18-2.77-.81-3.36a2,2,0,0,0-1.47-.53,2.28,2.28,0,0,0-1.64.63,4,4,0,0,0-1,3v8h-5.6V432c0-1.51-.1-2.7-.73-3.36a2.15,2.15,0,0,0-1.68-.63,1.94,1.94,0,0,0-1.54.56c-1,.94-1,2.45-1,3.43v7.73h-5.6Z"/><path d="M673.94,432.9H662.29a4,4,0,0,0,1,2.63,3.15,3.15,0,0,0,2.31.77,4.51,4.51,0,0,0,1.82-.42,2.64,2.64,0,0,0,1-1.05h5.35a7,7,0,0,1-1.89,3.22c-1.15,1.12-3,2.17-6.37,2.17a8.88,8.88,0,0,1-6.47-2.38,8.19,8.19,0,0,1-2.31-5.92,8.36,8.36,0,0,1,2.34-6.05,8.83,8.83,0,0,1,6.41-2.28,8.58,8.58,0,0,1,6,2.14,8.77,8.77,0,0,1,2.48,6.58Zm-5.14-3.22a3.78,3.78,0,0,0-.91-1.68,3.29,3.29,0,0,0-2.31-.84,3,3,0,0,0-2.28.84,3.27,3.27,0,0,0-.84,1.68Z"/><rect x="848" y="385.2" width="355" height="84" rx="12" ry="12" style="fill:none;stroke:#3a5c84;stroke-miterlimit:10;stroke-width:10px"/><path d="M1007.53,415.72V427.1a6.16,6.16,0,0,1,4.65-2,8,8,0,0,1,5.53,2.1,8.49,8.49,0,0,1,2.56,6.19,8.66,8.66,0,0,1-2.52,6.24,7.52,7.52,0,0,1-5.5,2.17,5.73,5.73,0,0,1-4.72-2.24v1.71h-5.6V415.72Zm5.91,20.24a3.54,3.54,0,0,0,1.09-2.45,3.87,3.87,0,0,0-1.09-2.67,3.6,3.6,0,0,0-5,0,4.09,4.09,0,0,0-1,2.52,3.77,3.77,0,0,0,1.19,2.66,3.83,3.83,0,0,0,2.42.95A3.47,3.47,0,0,0,1013.44,436Z"/><path d="M1026.29,415.93a3.15,3.15,0,1,1-3.15,3.15A3.14,3.14,0,0,1,1026.29,415.93Zm2.8,9.66v15.65h-5.6V425.59Z"/><path d="M1032.9,425.59h5.6v2a5.91,5.91,0,0,1,5-2.31,6.34,6.34,0,0,1,4.62,1.68c1.33,1.33,1.47,2.66,1.47,4.38v9.94H1044v-7.91c0-.91,0-2.28-.7-3.05a2.32,2.32,0,0,0-1.78-.66,3.08,3.08,0,0,0-2.07.73,3.61,3.61,0,0,0-.91,2.49v8.4h-5.6Z"/><rect x="1247.22" y="385.2" width="355" height="84" rx="12" ry="12" style="fill:none;stroke:#3a5c84;stroke-miterlimit:10;stroke-width:10px"/><path d="M1406.31,419.37v8.75a3,3,0,0,0,.84,2.28,2.88,2.88,0,0,0,2,.59,2.62,2.62,0,0,0,2-.66,2.92,2.92,0,0,0,.81-2.21v-8.75h5.6v9.77a5.38,5.38,0,0,1-1.51,4.2c-1.92,2-4.62,2.21-6.75,2.21-2.35,0-5.22-.25-7.07-2.24a5.64,5.64,0,0,1-1.47-4.17v-9.77Z"/><path d="M1422.37,429.84a7.93,7.93,0,0,0,2.24,1.15,7.17,7.17,0,0,0,2.17.39,2.42,2.42,0,0,0,1.44-.42.93.93,0,0,0,.28-.74.85.85,0,0,0-.28-.7,3.56,3.56,0,0,0-1.47-.56l-1.47-.35a5,5,0,0,1-2.73-1.36,3.78,3.78,0,0,1-1-2.7,5.61,5.61,0,0,1,1.47-3.81,7.88,7.88,0,0,1,5.6-1.89,13.06,13.06,0,0,1,5,1l-1.89,3.57a7.77,7.77,0,0,0-2.94-.77,2.38,2.38,0,0,0-1.3.32.84.84,0,0,0-.49.77.91.91,0,0,0,.67.87c.52.21,1,.21,1.85.46l1,.28a6.78,6.78,0,0,1,2.31,1.22,4.44,4.44,0,0,1,1.19,3.12,5.21,5.21,0,0,1-1.58,3.88c-1.82,1.82-4.48,2-5.77,2a11.58,11.58,0,0,1-6.3-1.82Z"/><path d="M1436.9,419.37h5.6v2.56a5,5,0,0,1,2.2-2.17,6.07,6.07,0,0,1,2.91-.63l1.12.07v5.28a5,5,0,0,0-2.42-.56,3.68,3.68,0,0,0-2.55.84,4.73,4.73,0,0,0-1.26,3.57V435h-5.6Z"/><path d="M1725.77,432.86a3.57,3.57,0,0,1-1.09-2.56,3.72,3.72,0,0,1,3.64-3.64,3.67,3.67,0,0,1,2.59,1.12,3.63,3.63,0,0,1,0,5.08,3.62,3.62,0,0,1-2.56,1.08A3.53,3.53,0,0,1,1725.77,432.86Z"/><path d="M1736.37,432.86a3.61,3.61,0,0,1-1.08-2.56,3.71,3.71,0,0,1,3.64-3.64,3.69,3.69,0,0,1,2.59,1.12,3.65,3.65,0,0,1,0,5.08,3.56,3.56,0,0,1-5.11,0Z"/><path d="M1747,432.86a3.57,3.57,0,0,1-1.09-2.56,3.72,3.72,0,0,1,3.64-3.64,3.67,3.67,0,0,1,2.59,1.12,3.63,3.63,0,0,1,0,5.08,3.62,3.62,0,0,1-2.56,1.08A3.53,3.53,0,0,1,1747,432.86Z"/><path d="M879.77,734.86a3.57,3.57,0,0,1-1.09-2.56,3.72,3.72,0,0,1,3.64-3.64,3.67,3.67,0,0,1,2.59,1.12,3.63,3.63,0,0,1,0,5.08,3.62,3.62,0,0,1-2.56,1.08A3.53,3.53,0,0,1,879.77,734.86Z"/><path d="M890.37,734.86a3.61,3.61,0,0,1-1.08-2.56,3.71,3.71,0,0,1,3.64-3.64,3.69,3.69,0,0,1,2.59,1.12,3.65,3.65,0,0,1,0,5.08,3.56,3.56,0,0,1-5.11,0Z"/><path d="M901,734.86a3.57,3.57,0,0,1-1.09-2.56,3.72,3.72,0,0,1,3.64-3.64,3.67,3.67,0,0,1,2.59,1.12,3.63,3.63,0,0,1,0,5.08,3.62,3.62,0,0,1-2.56,1.08A3.53,3.53,0,0,1,901,734.86Z"/><path d="M195.29,729.36v8.76a3,3,0,0,0,.84,2.27,2.91,2.91,0,0,0,2,.6,2.61,2.61,0,0,0,2-.67,2.89,2.89,0,0,0,.8-2.2v-8.76h5.6v9.77a5.36,5.36,0,0,1-1.5,4.2c-1.93,2-4.62,2.21-6.76,2.21-2.34,0-5.21-.25-7.07-2.24a5.63,5.63,0,0,1-1.47-4.17v-9.77Z"/><path d="M215.94,719.49v11.38a6.17,6.17,0,0,1,4.66-2,8,8,0,0,1,5.53,2.1,8.52,8.52,0,0,1,2.55,6.19,8.62,8.62,0,0,1-2.52,6.24,7.52,7.52,0,0,1-5.5,2.17,5.73,5.73,0,0,1-4.72-2.24V745h-5.6V719.49Zm5.91,20.24a3.54,3.54,0,0,0,1.09-2.45,3.87,3.87,0,0,0-1.09-2.67,3.6,3.6,0,0,0-5,0,4.09,4.09,0,0,0-1.05,2.52,3.75,3.75,0,0,0,1.19,2.66,3.83,3.83,0,0,0,2.42.95A3.47,3.47,0,0,0,221.85,739.73Z"/><path d="M237.5,729.36v8.76a3,3,0,0,0,.84,2.27,2.89,2.89,0,0,0,2,.6,2.59,2.59,0,0,0,2-.67,2.9,2.9,0,0,0,.81-2.2v-8.76h5.6v9.77a5.33,5.33,0,0,1-1.51,4.2c-1.92,2-4.62,2.21-6.75,2.21-2.35,0-5.22-.25-7.07-2.24a5.63,5.63,0,0,1-1.47-4.17v-9.77Z"/><path d="M252.55,729.36h5.6v2a5.9,5.9,0,0,1,5-2.31,6.35,6.35,0,0,1,4.62,1.68c1.33,1.33,1.47,2.66,1.47,4.38V745h-5.6V737.1c0-.91,0-2.28-.7-3.05a2.36,2.36,0,0,0-1.79-.66,3,3,0,0,0-2.06.73,3.63,3.63,0,0,0-.91,2.49V745h-5.6Z"/><path d="M279.22,734V745h-5.6V734h-1.79v-4.59h1.79v-5.14h5.6v5.14h3.18V734Z"/><path d="M290.1,729.36v8.76a3,3,0,0,0,.84,2.27,2.91,2.91,0,0,0,2,.6,2.61,2.61,0,0,0,2-.67,2.89,2.89,0,0,0,.8-2.2v-8.76h5.6v9.77a5.36,5.36,0,0,1-1.5,4.2c-1.93,2-4.62,2.21-6.76,2.21-2.34,0-5.21-.25-7.07-2.24a5.63,5.63,0,0,1-1.47-4.17v-9.77Z"/><rect x="68" y="690.76" width="355" height="84" rx="12" ry="12" style="fill:none;stroke:#91c54f;stroke-miterlimit:10;stroke-width:10px"/><rect x="456.99" y="690.26" width="355" height="84" rx="12" ry="12" style="fill:none;stroke:#91c54f;stroke-miterlimit:10;stroke-width:10px"/><path d="M597.24,744.76h-5.6v-1.71a5.75,5.75,0,0,1-4.73,2.24,7.5,7.5,0,0,1-5.49-2.17,8.62,8.62,0,0,1-2.52-6.24,8.52,8.52,0,0,1,2.55-6.19,8,8,0,0,1,5.53-2.1,6.18,6.18,0,0,1,4.66,2V719.24h5.6Zm-6.62-5.18a3.71,3.71,0,0,0,1.19-2.66,4.09,4.09,0,0,0-1-2.52,3.39,3.39,0,0,0-2.55-1,3.44,3.44,0,0,0-2.49,1,3.86,3.86,0,0,0-1.08,2.67,3.57,3.57,0,0,0,1.08,2.45,3.48,3.48,0,0,0,2.49,1A3.78,3.78,0,0,0,590.62,739.58Z"/><path d="M617.68,738H606a4,4,0,0,0,1,2.63,3.15,3.15,0,0,0,2.31.77,4.51,4.51,0,0,0,1.82-.42,2.57,2.57,0,0,0,1-1.05h5.36a7.15,7.15,0,0,1-1.89,3.22c-1.16,1.12-3,2.17-6.37,2.17a8.9,8.9,0,0,1-6.48-2.38,8.25,8.25,0,0,1-2.31-5.92,8.34,8.34,0,0,1,2.35-6.06,8.79,8.79,0,0,1,6.4-2.27,8.56,8.56,0,0,1,6,2.13,8.75,8.75,0,0,1,2.49,6.58Zm-5.15-3.22a3.73,3.73,0,0,0-.91-1.68,3.23,3.23,0,0,0-2.31-.84,3,3,0,0,0-2.27.84,3.12,3.12,0,0,0-.84,1.68Z"/><path d="M626.49,719.24v11.38a6.2,6.2,0,0,1,4.66-2,8,8,0,0,1,5.53,2.1,8.49,8.49,0,0,1,2.56,6.19,8.66,8.66,0,0,1-2.52,6.24,7.52,7.52,0,0,1-5.5,2.17,5.76,5.76,0,0,1-4.73-2.24v1.71h-5.6V719.24Zm5.92,20.24A3.54,3.54,0,0,0,633.5,737a3.87,3.87,0,0,0-1.09-2.67,3.6,3.6,0,0,0-5,0,4.09,4.09,0,0,0-1,2.52,3.75,3.75,0,0,0,1.19,2.66,3.83,3.83,0,0,0,2.42.95A3.47,3.47,0,0,0,632.41,739.48Z"/><path d="M645.25,719.45a3.15,3.15,0,1,1-3.15,3.15A3.15,3.15,0,0,1,645.25,719.45Zm2.8,9.66v15.65h-5.6V729.11Z"/><path d="M664,729.11h5.6v15.65H664v-1.71a5.84,5.84,0,0,1-4.86,2.24,7.49,7.49,0,0,1-5.64-2.49,7.86,7.86,0,0,1-2.24-5.74,8.67,8.67,0,0,1,2.41-6.27,8.08,8.08,0,0,1,5.64-2.2,6.16,6.16,0,0,1,4.69,2Zm-5.88,5.25a3.69,3.69,0,0,0-1.12,2.56,3.63,3.63,0,0,0,1.09,2.56,3.91,3.91,0,0,0,2.51,1,3.62,3.62,0,0,0,2.53-1.09,3.4,3.4,0,0,0,1-2.52,3.47,3.47,0,0,0-1.09-2.56,3.56,3.56,0,0,0-5,0Z"/><path d="M673.43,729.11H679v2a5.9,5.9,0,0,1,5-2.31,6.34,6.34,0,0,1,4.62,1.68c1.33,1.33,1.47,2.66,1.47,4.38v9.94h-5.6v-7.91c0-.91,0-2.28-.7-3.05a2.34,2.34,0,0,0-1.79-.66,3,3,0,0,0-2.06.73,3.63,3.63,0,0,0-.91,2.49v8.4h-5.6Z"/></svg>