<svg id="Layer_1" data-name="Layer 1" xmlns="http://www.w3.org/2000/svg" viewBox="0 0 1592 381"><title>Capitolul11</title><path d="M67.18,266.68V250h5.67a9.27,9.27,0,0,1,6.62,2.3,8.13,8.13,0,0,1,2.33,6.07,7.66,7.66,0,0,1-2.18,5.77,9,9,0,0,1-6.4,2.53ZM71.5,263h.87A5,5,0,0,0,76,261.8a4.52,4.52,0,0,0,1.28-3.42,5,5,0,0,0-1.3-3.65,4.87,4.87,0,0,0-3.45-1h-1Z"/><path d="M86.17,248.61a2.25,2.25,0,1,1-2.24,2.25A2.24,2.24,0,0,1,86.17,248.61Zm2,6.9v11.17h-4V255.51Z"/><path d="M91.63,263a5.59,5.59,0,0,0,1.59.82,5.09,5.09,0,0,0,1.55.28,1.75,1.75,0,0,0,1-.3.67.67,0,0,0,.2-.53.61.61,0,0,0-.2-.5,2.56,2.56,0,0,0-1-.4l-1-.25a3.55,3.55,0,0,1-2-1A2.74,2.74,0,0,1,91,259.2a4,4,0,0,1,1-2.72,5.62,5.62,0,0,1,4-1.35,9.14,9.14,0,0,1,3.58.73L98.3,258.4a5.56,5.56,0,0,0-2.1-.55,1.71,1.71,0,0,0-.93.23.61.61,0,0,0-.35.55.65.65,0,0,0,.48.62c.37.15.7.15,1.32.33l.73.2a4.89,4.89,0,0,1,1.65.87,3.17,3.17,0,0,1,.85,2.23,3.71,3.71,0,0,1-1.13,2.77,5.79,5.79,0,0,1-4.12,1.4,8.21,8.21,0,0,1-4.5-1.3Z"/><path d="M106,272.4h-4V255.51h4v1.22a4.18,4.18,0,0,1,3.42-1.6,5.6,5.6,0,0,1,4,1.62,6.35,6.35,0,0,1-.1,8.75,5.35,5.35,0,0,1-3.83,1.55A4.75,4.75,0,0,1,106,265.6Zm.65-13.12a2.72,2.72,0,0,0-.78,1.85,2.66,2.66,0,0,0,.78,1.77,2.52,2.52,0,0,0,1.8.75,2.38,2.38,0,0,0,1.77-.75,2.61,2.61,0,0,0,.78-1.77,2.72,2.72,0,0,0-.78-1.85,2.38,2.38,0,0,0-1.77-.75A2.52,2.52,0,0,0,106.65,259.28Z"/><path d="M128.65,265.2a7.65,7.65,0,0,1-10,0,5.77,5.77,0,0,1,0-8.22,7,7,0,0,1,5-1.85,7.1,7.1,0,0,1,5,1.85,5.77,5.77,0,0,1,0,8.22Zm-6.78-5.95a2.49,2.49,0,0,0,0,3.6,2.51,2.51,0,0,0,3.58,0,2.44,2.44,0,0,0,.77-1.77,2.72,2.72,0,0,0-.77-1.83,2.59,2.59,0,0,0-3.58,0Z"/><path d="M138.5,263.4h4.67v3.28H131.8l5.27-7.9h-4.49v-3.27h11.14Z"/><path d="M147.6,248.61a2.25,2.25,0,1,1-2.25,2.25A2.24,2.24,0,0,1,147.6,248.61Zm2,6.9v11.17h-4V255.51Z"/><path d="M156.75,258.78v7.9h-4v-7.9h-1.28v-3.27h1.28v-3.68h4v3.68H159v3.27Z"/><path d="M162.52,248.61a2.25,2.25,0,1,1-2.25,2.25A2.24,2.24,0,0,1,162.52,248.61Zm2,6.9v11.17h-4V255.51Z"/><path d="M170.35,255.51l2.67,5.72,2.73-5.72h4.45l-5.83,11.17h-2.72l-5.77-11.17Z"/><path d="M91.21,285.51h4v1.35a4.31,4.31,0,0,1,3.35-1.56,4.61,4.61,0,0,1,2.15.5,3.56,3.56,0,0,1,1.55,1.6,3.93,3.93,0,0,1,1.53-1.54,4.41,4.41,0,0,1,2.32-.56,4.46,4.46,0,0,1,3.1,1,4.09,4.09,0,0,1,1.05,3.07v7.28h-4v-5.53a3.33,3.33,0,0,0-.58-2.4,1.44,1.44,0,0,0-1.05-.37,1.59,1.59,0,0,0-1.17.45,2.87,2.87,0,0,0-.73,2.12v5.73h-4v-5.53a3.59,3.59,0,0,0-.53-2.4,1.57,1.57,0,0,0-1.2-.45,1.41,1.41,0,0,0-1.1.41,3.27,3.27,0,0,0-.7,2.44v5.53h-4Z"/><path d="M124.29,295.2a7.65,7.65,0,0,1-10,0,5.77,5.77,0,0,1,0-8.22,7,7,0,0,1,5-1.85,7.1,7.1,0,0,1,5,1.85,5.77,5.77,0,0,1,0,8.22Zm-6.78-5.95a2.49,2.49,0,0,0,0,3.6,2.51,2.51,0,0,0,3.58,0,2.48,2.48,0,0,0,.77-1.77,2.77,2.77,0,0,0-.77-1.83,2.59,2.59,0,0,0-3.58,0Z"/><path d="M132.31,278.46v8.12a4.41,4.41,0,0,1,3.32-1.45,5.71,5.71,0,0,1,4,1.5,6.05,6.05,0,0,1,1.83,4.42,6.18,6.18,0,0,1-1.8,4.45,5.32,5.32,0,0,1-3.92,1.55,4.11,4.11,0,0,1-3.38-1.6v1.23h-4V278.46Zm4.23,14.44a2.52,2.52,0,0,0,.77-1.75,2.79,2.79,0,0,0-.77-1.9,2.46,2.46,0,0,0-1.78-.72,2.42,2.42,0,0,0-1.82.75,2.9,2.9,0,0,0-.75,1.8A2.68,2.68,0,0,0,133,293a2.73,2.73,0,0,0,1.72.67A2.48,2.48,0,0,0,136.54,292.9Z"/><path d="M145.71,278.61a2.25,2.25,0,1,1-2.25,2.25A2.24,2.24,0,0,1,145.71,278.61Zm2,6.9v11.17h-4V285.51Z"/><path d="M154.44,278.46v18.22h-4V278.46Z"/><path d="M347.59,261.15v5.53h-4.33V250h6.9a5.7,5.7,0,0,1,4.22,1.5,5.16,5.16,0,0,1,1.55,4,5.4,5.4,0,0,1-1.47,4.15,5.53,5.53,0,0,1-4.15,1.45Zm0-3.5H349a2.83,2.83,0,0,0,1.82-.52,1.89,1.89,0,0,0,.55-1.52,2,2,0,0,0-.5-1.5,2.52,2.52,0,0,0-1.85-.6h-1.47Z"/><path d="M361.86,248.46v18.22h-4V248.46Z"/><path d="M373.24,255.51h4v11.17h-4v-1.23a4.17,4.17,0,0,1-3.48,1.6,5.35,5.35,0,0,1-4-1.77,5.63,5.63,0,0,1-1.6-4.1,6.15,6.15,0,0,1,1.72-4.47,5.77,5.77,0,0,1,4-1.58,4.41,4.41,0,0,1,3.35,1.45Zm-4.2,3.74a2.63,2.63,0,0,0-.8,1.83,2.55,2.55,0,0,0,.77,1.82,2.83,2.83,0,0,0,1.8.75,2.56,2.56,0,0,0,1.8-.77,2.43,2.43,0,0,0,.75-1.8,2.49,2.49,0,0,0-.77-1.83,2.55,2.55,0,0,0-3.55,0Z"/><path d="M388.44,266.43a6,6,0,0,1-2.78.62,6.16,6.16,0,0,1-4.4-1.7,5.82,5.82,0,0,1-1.72-4.17,6.05,6.05,0,0,1,1.8-4.32,6.45,6.45,0,0,1,4.5-1.71,5.75,5.75,0,0,1,2.6.63v3.35a3.56,3.56,0,0,0-2.08-.73,2.62,2.62,0,0,0-1.95.78,2.7,2.7,0,0,0-.77,1.92,2.86,2.86,0,0,0,.7,1.88,2.7,2.7,0,0,0,2.05.85,3.07,3.07,0,0,0,2.05-.75Z"/><path d="M399.36,255.51h4v11.17h-4v-1.23a4.15,4.15,0,0,1-3.47,1.6,5.37,5.37,0,0,1-4-1.77,5.67,5.67,0,0,1-1.6-4.1,6.15,6.15,0,0,1,1.73-4.47,5.74,5.74,0,0,1,4-1.58,4.4,4.4,0,0,1,3.35,1.45Zm2.2-5.75a3.88,3.88,0,0,1-1.1,2.72,5.24,5.24,0,0,1-6.5,0,4,4,0,0,1-1.1-2.72h2.58a1.71,1.71,0,0,0,.5,1,2,2,0,0,0,1.27.45,2,2,0,0,0,1.28-.45,1.71,1.71,0,0,0,.5-1Zm-6.4,9.49a2.63,2.63,0,0,0-.8,1.83,2.56,2.56,0,0,0,.78,1.82,2.79,2.79,0,0,0,1.8.75,2.56,2.56,0,0,0,1.8-.77,2.43,2.43,0,0,0,.75-1.8,2.46,2.46,0,0,0-.78-1.83,2.55,2.55,0,0,0-1.8-.72A2.6,2.6,0,0,0,395.16,259.25Z"/><path d="M424.58,266.68h-4v-1.23a4.08,4.08,0,0,1-3.37,1.6,5.32,5.32,0,0,1-3.92-1.55,6.34,6.34,0,0,1,0-8.87,5.72,5.72,0,0,1,3.95-1.5,4.38,4.38,0,0,1,3.32,1.45v-8.12h4Zm-4.72-3.7a2.72,2.72,0,0,0,.85-1.9,2.9,2.9,0,0,0-.75-1.8,2.43,2.43,0,0,0-1.82-.75,2.46,2.46,0,0,0-1.78.72,2.74,2.74,0,0,0-.77,1.9,2.52,2.52,0,0,0,.77,1.75,2.48,2.48,0,0,0,1.78.75A2.73,2.73,0,0,0,419.86,263Z"/><path d="M439.18,261.83h-8.32a2.83,2.83,0,0,0,.7,1.87,2.25,2.25,0,0,0,1.65.55,3.07,3.07,0,0,0,1.3-.3,1.83,1.83,0,0,0,.7-.75H439a4.91,4.91,0,0,1-1.35,2.3,6,6,0,0,1-4.54,1.55,6.33,6.33,0,0,1-4.63-1.7,5.86,5.86,0,0,1-1.65-4.22,6,6,0,0,1,1.68-4.33,6.27,6.27,0,0,1,4.57-1.62,6.14,6.14,0,0,1,4.3,1.53,6.25,6.25,0,0,1,1.77,4.69Zm-3.67-2.3a2.66,2.66,0,0,0-.65-1.2,2.3,2.3,0,0,0-1.65-.6,2.12,2.12,0,0,0-1.62.6,2.21,2.21,0,0,0-.6,1.2Z"/><path d="M328.46,285.51h4v1.82a3.61,3.61,0,0,1,1.58-1.55,4.4,4.4,0,0,1,2.07-.45c.1,0,.28,0,.8.05v3.77a3.52,3.52,0,0,0-1.72-.4,2.66,2.66,0,0,0-1.83.6,3.38,3.38,0,0,0-.9,2.55v4.78h-4Z"/><path d="M350.54,291.83h-8.33a2.83,2.83,0,0,0,.7,1.87,2.25,2.25,0,0,0,1.65.55,3.07,3.07,0,0,0,1.3-.3,1.83,1.83,0,0,0,.7-.75h3.82a5,5,0,0,1-1.34,2.3,6.09,6.09,0,0,1-4.55,1.55,6.33,6.33,0,0,1-4.63-1.7,5.86,5.86,0,0,1-1.65-4.22,6,6,0,0,1,1.68-4.33,6.27,6.27,0,0,1,4.57-1.62,6.12,6.12,0,0,1,4.3,1.53,6.22,6.22,0,0,1,1.78,4.69Zm-3.68-2.3a2.66,2.66,0,0,0-.65-1.2,2.3,2.3,0,0,0-1.65-.6,2.12,2.12,0,0,0-1.62.6,2.21,2.21,0,0,0-.6,1.2Z"/><path d="M357.26,288.78v7.9h-4v-7.9H352v-3.27h1.27v-3.68h4v3.68h2.28v3.27Zm-3.85,9.15,3.75.4-2.55,4.6-2.5-.3Z"/><path d="M372.88,291.83h-8.32a2.83,2.83,0,0,0,.7,1.87,2.25,2.25,0,0,0,1.65.55,3.07,3.07,0,0,0,1.3-.3,1.83,1.83,0,0,0,.7-.75h3.82a4.91,4.91,0,0,1-1.35,2.3,6,6,0,0,1-4.54,1.55,6.33,6.33,0,0,1-4.63-1.7,5.86,5.86,0,0,1-1.65-4.22,6,6,0,0,1,1.68-4.33,6.27,6.27,0,0,1,4.57-1.62,6.12,6.12,0,0,1,4.3,1.53,6.21,6.21,0,0,1,1.77,4.69Zm-3.67-2.3a2.66,2.66,0,0,0-.65-1.2,2.3,2.3,0,0,0-1.65-.6,2.12,2.12,0,0,0-1.62.6,2.21,2.21,0,0,0-.6,1.2Z"/><path d="M383.84,285.51h4v11.17h-4v-1.23a4.17,4.17,0,0,1-3.48,1.6,5.35,5.35,0,0,1-4-1.77,5.63,5.63,0,0,1-1.6-4.1,6.15,6.15,0,0,1,1.72-4.47,5.77,5.77,0,0,1,4-1.58,4.41,4.41,0,0,1,3.35,1.45Zm-4.2,3.74a2.63,2.63,0,0,0-.8,1.83,2.55,2.55,0,0,0,.77,1.82,2.83,2.83,0,0,0,1.8.75,2.56,2.56,0,0,0,1.8-.77,2.43,2.43,0,0,0,.75-1.8,2.49,2.49,0,0,0-.77-1.83,2.55,2.55,0,0,0-3.55,0Z"/><path d="M399.56,280l2.9,10.77L406,280h3.45l3.28,10.77L415.86,280h4.52l-5.32,16.67h-4.43l-3-9.65-3.2,9.65H400L395,280Z"/><path d="M423.76,278.61a2.25,2.25,0,1,1-2.25,2.25A2.24,2.24,0,0,1,423.76,278.61Zm2,6.9v11.17h-4V285.51Z"/><path d="M428.36,288.3h6.33v3.33h-6.33Z"/><path d="M447.23,283.68H442v2.78h4.75v3.67H442v6.55h-4.32V280h9.54Z"/><path d="M451.19,278.61a2.25,2.25,0,1,1-2.25,2.25A2.24,2.24,0,0,1,451.19,278.61Zm2,6.9v11.17h-4V285.51Z"/><path d="M1049.59,245.15v5.53h-4.33V234h6.9a5.7,5.7,0,0,1,4.22,1.5,5.16,5.16,0,0,1,1.55,4,5.4,5.4,0,0,1-1.47,4.15,5.53,5.53,0,0,1-4.15,1.45Zm0-3.5H1051a2.83,2.83,0,0,0,1.82-.52,1.89,1.89,0,0,0,.55-1.52,2,2,0,0,0-.5-1.5,2.52,2.52,0,0,0-1.85-.6h-1.47Z"/><path d="M1063.86,232.46v18.22h-4V232.46Z"/><path d="M1075.24,239.51h4v11.17h-4v-1.23a4.17,4.17,0,0,1-3.48,1.6,5.35,5.35,0,0,1-4-1.77,5.63,5.63,0,0,1-1.6-4.1,6.15,6.15,0,0,1,1.72-4.47,5.77,5.77,0,0,1,4-1.58,4.41,4.41,0,0,1,3.35,1.45Zm-4.2,3.74a2.63,2.63,0,0,0-.8,1.83,2.55,2.55,0,0,0,.77,1.82,2.83,2.83,0,0,0,1.8.75,2.56,2.56,0,0,0,1.8-.77,2.43,2.43,0,0,0,.75-1.8,2.49,2.49,0,0,0-.77-1.83,2.55,2.55,0,0,0-3.55,0Z"/><path d="M1090.44,250.43a6,6,0,0,1-2.78.62,6.16,6.16,0,0,1-4.4-1.7,5.82,5.82,0,0,1-1.72-4.17,6.05,6.05,0,0,1,1.8-4.32,6.45,6.45,0,0,1,4.5-1.71,5.75,5.75,0,0,1,2.6.63v3.35a3.56,3.56,0,0,0-2.08-.73,2.62,2.62,0,0,0-1.95.78,2.7,2.7,0,0,0-.77,1.92,2.86,2.86,0,0,0,.7,1.88,2.7,2.7,0,0,0,2.05.85,3.07,3.07,0,0,0,2-.75Z"/><path d="M1101.36,239.51h4v11.17h-4v-1.23a4.15,4.15,0,0,1-3.47,1.6,5.37,5.37,0,0,1-4-1.77,5.67,5.67,0,0,1-1.6-4.1,6.15,6.15,0,0,1,1.73-4.47,5.74,5.74,0,0,1,4-1.58,4.4,4.4,0,0,1,3.35,1.45Zm2.2-5.75a3.88,3.88,0,0,1-1.1,2.72,5.24,5.24,0,0,1-6.5,0,4,4,0,0,1-1.1-2.72h2.58a1.71,1.71,0,0,0,.5,1,2,2,0,0,0,1.27.45,2,2,0,0,0,1.28-.45,1.71,1.71,0,0,0,.5-1Zm-6.4,9.49a2.63,2.63,0,0,0-.8,1.83,2.56,2.56,0,0,0,.78,1.82,2.79,2.79,0,0,0,1.8.75,2.56,2.56,0,0,0,1.8-.77,2.43,2.43,0,0,0,.75-1.8,2.46,2.46,0,0,0-.78-1.83,2.55,2.55,0,0,0-1.8-.72A2.6,2.6,0,0,0,1097.16,243.25Z"/><path d="M1126.58,250.68h-4v-1.23a4.08,4.08,0,0,1-3.37,1.6,5.32,5.32,0,0,1-3.92-1.55,6.34,6.34,0,0,1,0-8.87,5.72,5.72,0,0,1,4-1.5,4.38,4.38,0,0,1,3.32,1.45v-8.12h4Zm-4.72-3.7a2.72,2.72,0,0,0,.85-1.9,2.9,2.9,0,0,0-.75-1.8,2.43,2.43,0,0,0-1.82-.75,2.46,2.46,0,0,0-1.78.72,2.74,2.74,0,0,0-.77,1.9,2.52,2.52,0,0,0,.77,1.75,2.48,2.48,0,0,0,1.78.75A2.73,2.73,0,0,0,1121.86,247Z"/><path d="M1141.18,245.83h-8.32a2.83,2.83,0,0,0,.7,1.87,2.25,2.25,0,0,0,1.65.55,3.07,3.07,0,0,0,1.3-.3,1.83,1.83,0,0,0,.7-.75H1141a4.91,4.91,0,0,1-1.35,2.3,6,6,0,0,1-4.54,1.55,6.33,6.33,0,0,1-4.63-1.7,5.86,5.86,0,0,1-1.65-4.22,6,6,0,0,1,1.68-4.33,6.27,6.27,0,0,1,4.57-1.62,6.14,6.14,0,0,1,4.3,1.53,6.25,6.25,0,0,1,1.77,4.69Zm-3.67-2.3a2.66,2.66,0,0,0-.65-1.2,2.3,2.3,0,0,0-1.65-.6,2.12,2.12,0,0,0-1.62.6,2.21,2.21,0,0,0-.6,1.2Z"/><path d="M1012.26,269.51h4v1.82a3.61,3.61,0,0,1,1.58-1.55,4.4,4.4,0,0,1,2.07-.45c.1,0,.28,0,.8.05v3.77a3.52,3.52,0,0,0-1.72-.4,2.66,2.66,0,0,0-1.83.6,3.38,3.38,0,0,0-.9,2.55v4.78h-4Z"/><path d="M1034.34,275.83H1026a2.83,2.83,0,0,0,.7,1.87,2.25,2.25,0,0,0,1.65.55,3.07,3.07,0,0,0,1.3-.3,1.83,1.83,0,0,0,.7-.75h3.83a5.09,5.09,0,0,1-1.35,2.3,6.09,6.09,0,0,1-4.55,1.55,6.33,6.33,0,0,1-4.63-1.7,5.86,5.86,0,0,1-1.65-4.22,6,6,0,0,1,1.68-4.33,6.27,6.27,0,0,1,4.57-1.62,6.12,6.12,0,0,1,4.3,1.53,6.22,6.22,0,0,1,1.78,4.69Zm-3.68-2.3a2.66,2.66,0,0,0-.65-1.2,2.3,2.3,0,0,0-1.65-.6,2.12,2.12,0,0,0-1.62.6,2.21,2.21,0,0,0-.6,1.2Z"/><path d="M1041.06,272.78v7.9h-4v-7.9h-1.27v-3.27h1.27v-3.68h4v3.68h2.28v3.27Zm-3.85,9.15,3.75.4-2.55,4.6-2.5-.3Z"/><path d="M1056.69,275.83h-8.33a2.83,2.83,0,0,0,.7,1.87,2.25,2.25,0,0,0,1.65.55,3.07,3.07,0,0,0,1.3-.3,1.83,1.83,0,0,0,.7-.75h3.83a5.09,5.09,0,0,1-1.35,2.3,6.09,6.09,0,0,1-4.55,1.55,6.33,6.33,0,0,1-4.63-1.7,5.86,5.86,0,0,1-1.65-4.22,6,6,0,0,1,1.68-4.33,6.27,6.27,0,0,1,4.57-1.62,6.12,6.12,0,0,1,4.3,1.53,6.22,6.22,0,0,1,1.78,4.69Zm-3.68-2.3a2.66,2.66,0,0,0-.65-1.2,2.3,2.3,0,0,0-1.65-.6,2.12,2.12,0,0,0-1.62.6,2.21,2.21,0,0,0-.6,1.2Z"/><path d="M1067.64,269.51h4v11.17h-4v-1.23a4.17,4.17,0,0,1-3.48,1.6,5.35,5.35,0,0,1-4-1.77,5.63,5.63,0,0,1-1.6-4.1,6.15,6.15,0,0,1,1.72-4.47,5.77,5.77,0,0,1,4-1.58,4.41,4.41,0,0,1,3.35,1.45Zm-4.2,3.74a2.63,2.63,0,0,0-.8,1.83,2.55,2.55,0,0,0,.77,1.82,2.83,2.83,0,0,0,1.8.75,2.56,2.56,0,0,0,1.8-.77,2.43,2.43,0,0,0,.75-1.8,2.49,2.49,0,0,0-.77-1.83,2.55,2.55,0,0,0-3.55,0Z"/><path d="M1090.06,267.68h-5.15v2.78h4.88v3.67h-4.88V277h5.15v3.68h-9.47V264h9.47Z"/><path d="M1096.86,272.78v7.9h-4v-7.9h-1.27v-3.27h1.27v-3.68h4v3.68h2.28v3.27Z"/><path d="M1100.64,262.46h4v8.44a5,5,0,0,1,1.25-1.1,4.58,4.58,0,0,1,2.3-.54,4.43,4.43,0,0,1,3.29,1.2,3.89,3.89,0,0,1,1.06,3.12v7.1h-4V275a3.33,3.33,0,0,0-.5-2.18,1.61,1.61,0,0,0-1.28-.47,2.2,2.2,0,0,0-1.45.47,2.45,2.45,0,0,0-.67,1.83v6h-4Z"/><path d="M1126.61,275.83h-8.32a2.78,2.78,0,0,0,.7,1.87,2.25,2.25,0,0,0,1.65.55,3.07,3.07,0,0,0,1.3-.3,1.9,1.9,0,0,0,.7-.75h3.82a4.91,4.91,0,0,1-1.35,2.3,6.06,6.06,0,0,1-4.55,1.55,6.31,6.31,0,0,1-4.62-1.7,5.82,5.82,0,0,1-1.65-4.22,6,6,0,0,1,1.67-4.33,6.31,6.31,0,0,1,4.58-1.62,6.14,6.14,0,0,1,4.3,1.53,6.25,6.25,0,0,1,1.77,4.69Zm-3.67-2.3a2.66,2.66,0,0,0-.65-1.2,2.31,2.31,0,0,0-1.65-.6,2.14,2.14,0,0,0-1.63.6,2.36,2.36,0,0,0-.6,1.2Z"/><path d="M1128.91,269.51h4v1.82a3.61,3.61,0,0,1,1.58-1.55,4.4,4.4,0,0,1,2.07-.45c.1,0,.28,0,.8.05v3.77a3.52,3.52,0,0,0-1.72-.4,2.66,2.66,0,0,0-1.83.6,3.38,3.38,0,0,0-.9,2.55v4.78h-4Z"/><path d="M1139.14,269.51h4v1.39a4.22,4.22,0,0,1,3.55-1.64,4.51,4.51,0,0,1,3.3,1.2,3.82,3.82,0,0,1,1,3.12v7.1h-4V275a3.25,3.25,0,0,0-.5-2.18,1.73,1.73,0,0,0-1.28-.47,2.17,2.17,0,0,0-1.47.52,2.58,2.58,0,0,0-.65,1.78v6h-4Z"/><path d="M1165.61,275.83h-8.32a2.78,2.78,0,0,0,.7,1.87,2.25,2.25,0,0,0,1.65.55,3.07,3.07,0,0,0,1.3-.3,1.9,1.9,0,0,0,.7-.75h3.82a4.91,4.91,0,0,1-1.35,2.3,6.06,6.06,0,0,1-4.55,1.55,6.31,6.31,0,0,1-4.62-1.7,5.82,5.82,0,0,1-1.65-4.22,6,6,0,0,1,1.67-4.33,6.31,6.31,0,0,1,4.58-1.62,6.14,6.14,0,0,1,4.3,1.53,6.25,6.25,0,0,1,1.77,4.69Zm-3.67-2.3a2.66,2.66,0,0,0-.65-1.2,2.31,2.31,0,0,0-1.65-.6,2.14,2.14,0,0,0-1.63.6,2.36,2.36,0,0,0-.6,1.2Z"/><path d="M1172.34,272.78v7.9h-4v-7.9h-1.28v-3.27h1.28v-3.68h4v3.68h2.27v3.27Z"/><path d="M671.89,243v16.67h-4.33V243Z"/><path d="M675,248.51h4v1.39a4.23,4.23,0,0,1,3.55-1.64,4.49,4.49,0,0,1,3.3,1.2,3.82,3.82,0,0,1,1,3.12v7.1h-4V254a3.19,3.19,0,0,0-.5-2.18,1.69,1.69,0,0,0-1.27-.47,2.2,2.2,0,0,0-1.48.52,2.58,2.58,0,0,0-.65,1.78v6h-4Z"/><path d="M694.06,251.78v7.9h-4v-7.9h-1.27v-3.27h1.27v-3.68h4v3.68h2.28v3.27Z"/><path d="M709.68,254.83h-8.32a2.83,2.83,0,0,0,.7,1.87,2.25,2.25,0,0,0,1.65.55,3.07,3.07,0,0,0,1.3-.3,1.83,1.83,0,0,0,.7-.75h3.83a5.09,5.09,0,0,1-1.35,2.3,6.09,6.09,0,0,1-4.55,1.55,6.33,6.33,0,0,1-4.63-1.7,5.86,5.86,0,0,1-1.65-4.22A6,6,0,0,1,699,249.8a6.27,6.27,0,0,1,4.57-1.62,6.12,6.12,0,0,1,4.3,1.53,6.25,6.25,0,0,1,1.77,4.69Zm-3.67-2.3a2.66,2.66,0,0,0-.65-1.2,2.3,2.3,0,0,0-1.65-.6,2.12,2.12,0,0,0-1.62.6,2.21,2.21,0,0,0-.6,1.2Z"/><path d="M712,248.51h4v1.82a3.6,3.6,0,0,1,1.57-1.55,4.44,4.44,0,0,1,2.08-.45c.1,0,.27,0,.8,0v3.77a3.54,3.54,0,0,0-1.73-.4,2.63,2.63,0,0,0-1.82.6,3.38,3.38,0,0,0-.9,2.55v4.78h-4Z"/><path d="M722.21,248.51h4v1.39a4.23,4.23,0,0,1,3.55-1.64,4.51,4.51,0,0,1,3.3,1.2,3.82,3.82,0,0,1,1.05,3.12v7.1h-4V254a3.19,3.19,0,0,0-.5-2.18,1.69,1.69,0,0,0-1.27-.47,2.2,2.2,0,0,0-1.48.52,2.58,2.58,0,0,0-.65,1.78v6h-4Z"/><path d="M748.68,254.83h-8.32a2.83,2.83,0,0,0,.7,1.87,2.25,2.25,0,0,0,1.65.55,3.07,3.07,0,0,0,1.3-.3,1.83,1.83,0,0,0,.7-.75h3.83a5.09,5.09,0,0,1-1.35,2.3,6.09,6.09,0,0,1-4.55,1.55,6.33,6.33,0,0,1-4.63-1.7,5.86,5.86,0,0,1-1.65-4.22A6,6,0,0,1,738,249.8a6.27,6.27,0,0,1,4.57-1.62,6.12,6.12,0,0,1,4.3,1.53,6.25,6.25,0,0,1,1.77,4.69Zm-3.67-2.3a2.66,2.66,0,0,0-.65-1.2,2.3,2.3,0,0,0-1.65-.6,2.12,2.12,0,0,0-1.62.6,2.21,2.21,0,0,0-.6,1.2Z"/><path d="M755.41,251.78v7.9h-4v-7.9h-1.27v-3.27h1.27v-3.68h4v3.68h2.28v3.27Z"/><path d="M516.59,82l2.9,10.77L523,82h3.45l3.27,10.77L532.88,82h4.53l-5.33,16.67h-4.42l-3-9.65-3.19,9.65H517l-5-16.67Z"/><path d="M540.79,80.61a2.25,2.25,0,1,1-2.25,2.25A2.24,2.24,0,0,1,540.79,80.61Zm2,6.9V98.68h-4V87.51Z"/><path d="M545.39,90.3h6.32v3.33h-6.32Z"/><path d="M564.26,85.68H559v2.78h4.75v3.67H559v6.55h-4.33V82h9.55Z"/><path d="M568.21,80.61A2.25,2.25,0,1,1,566,82.86,2.24,2.24,0,0,1,568.21,80.61Zm2,6.9V98.68h-4V87.51Z"/><path d="M858.09,85.68h-5.15v2.78h4.87v3.67h-4.87V95h5.15v3.68h-9.48V82h9.48Z"/><path d="M864.89,90.78v7.9h-4v-7.9h-1.28V87.51h1.28V83.83h4v3.68h2.27v3.27Z"/><path d="M868.66,80.46h4V88.9a5.17,5.17,0,0,1,1.25-1.1,4.6,4.6,0,0,1,2.3-.54,4.43,4.43,0,0,1,3.3,1.2,3.88,3.88,0,0,1,1,3.12v7.1h-4V93a3.33,3.33,0,0,0-.5-2.18,1.58,1.58,0,0,0-1.27-.47,2.18,2.18,0,0,0-1.45.47,2.46,2.46,0,0,0-.68,1.83v6h-4Z"/><path d="M894.63,93.83h-8.32a2.83,2.83,0,0,0,.7,1.87,2.25,2.25,0,0,0,1.65.55A3.07,3.07,0,0,0,890,96a1.83,1.83,0,0,0,.7-.75h3.83a5.09,5.09,0,0,1-1.35,2.3,6.09,6.09,0,0,1-4.55,1.55,6.33,6.33,0,0,1-4.63-1.7,5.86,5.86,0,0,1-1.65-4.22A6,6,0,0,1,884,88.8a6.27,6.27,0,0,1,4.57-1.62,6.12,6.12,0,0,1,4.3,1.53,6.21,6.21,0,0,1,1.77,4.69ZM891,91.53a2.66,2.66,0,0,0-.65-1.2,2.3,2.3,0,0,0-1.65-.6,2.12,2.12,0,0,0-1.62.6,2.21,2.21,0,0,0-.6,1.2Z"/><path d="M896.94,87.51h4v1.82a3.6,3.6,0,0,1,1.57-1.55,4.44,4.44,0,0,1,2.08-.45c.1,0,.27,0,.8,0v3.77a3.54,3.54,0,0,0-1.73-.4,2.63,2.63,0,0,0-1.82.6,3.38,3.38,0,0,0-.9,2.55v4.78h-4Z"/><path d="M907.16,87.51h4V88.9a4.23,4.23,0,0,1,3.55-1.64,4.49,4.49,0,0,1,3.3,1.2,3.82,3.82,0,0,1,1,3.12v7.1h-4V93a3.19,3.19,0,0,0-.5-2.18,1.69,1.69,0,0,0-1.27-.47,2.2,2.2,0,0,0-1.48.52,2.58,2.58,0,0,0-.65,1.78v6h-4Z"/><path d="M933.63,93.83h-8.32a2.83,2.83,0,0,0,.7,1.87,2.25,2.25,0,0,0,1.65.55A3.07,3.07,0,0,0,929,96a1.83,1.83,0,0,0,.7-.75h3.83a5.09,5.09,0,0,1-1.35,2.3,6.09,6.09,0,0,1-4.55,1.55,6.33,6.33,0,0,1-4.63-1.7,5.86,5.86,0,0,1-1.65-4.22A6,6,0,0,1,923,88.8a6.27,6.27,0,0,1,4.57-1.62,6.12,6.12,0,0,1,4.3,1.53,6.21,6.21,0,0,1,1.77,4.69ZM930,91.53a2.66,2.66,0,0,0-.65-1.2,2.3,2.3,0,0,0-1.65-.6,2.12,2.12,0,0,0-1.62.6,2.21,2.21,0,0,0-.6,1.2Z"/><path d="M940.36,90.78v7.9h-4v-7.9h-1.27V87.51h1.27V83.83h4v3.68h2.28v3.27Z"/><path d="M151.69,98.75H101.31a7.65,7.65,0,0,0-7.63,7.63v97.73a7.66,7.66,0,0,0,7.63,7.64h50.38a7.65,7.65,0,0,0,7.63-7.63V106.38A7.65,7.65,0,0,0,151.69,98.75Zm-33.25,5.5h16.12a.93.93,0,0,1,0,1.85H118.44a.93.93,0,0,1,0-1.85Zm8.06,103.68a3.82,3.82,0,1,1,3.82-3.82A3.81,3.81,0,0,1,126.5,207.93ZM154,197.63H99V110.85h55Z" style="fill:#f7931f"/><path d="M544.83,196.21c.25-.33,24.2-32.53-3.1-61.76l-5.23,4.88c23.13,24.78,3.48,51.43,2.64,52.55Z" style="fill:#eb6a38"/><path d="M526.4,150.67c14.44,14.51,2.08,30.28,1.56,30.94l5.56,4.51a29.77,29.77,0,0,0-2-40.5Z" style="fill:#eb6a38"/><path d="M552.3,206.83c.73-.81,18-19.75,16.75-44.25-.73-14.52-7.78-27.79-21-39.45l-4.74,5.36c11.66,10.32,17.91,21.89,18.56,34.39v.05C563,184.36,547.2,201.8,547,202Z" style="fill:#eb6a38"/><path d="M417.76,153.28c-.17-.14-16.43-13.49-32.42.08l2.43,2.85c13.55-11.48,27-.53,27.58-.06Z" style="fill:#eb6a38"/><path d="M393.45,161.79c8-7.2,15.91-.34,16.24,0l2.5-2.8a15.6,15.6,0,0,0-21.26.05Z" style="fill:#eb6a38"/><path d="M423.5,149.63c-.4-.4-9.89-9.91-22.75-9.88-7.62,0-14.74,3.38-21.17,10l2.68,2.62c5.7-5.85,11.91-8.83,18.47-8.86h0c11.25,0,20,8.67,20.07,8.76Z" style="fill:#eb6a38"/><rect x="243.04" y="92.71" width="10" height="144.58" rx="4.5" ry="4.5" transform="translate(413.04 -83.04) rotate(90)" style="fill:#91c54f"/><rect x="1234.04" y="91.71" width="10" height="144.58" rx="4.5" ry="4.5" transform="translate(1403.04 -1075.04) rotate(90)" style="fill:#91c54f"/><path d="M442.52,123.29H354.16v-9.4a5.65,5.65,0,0,0-5.64-5.64h-15a1.88,1.88,0,0,0-1.88,1.88v7.52a1.88,1.88,0,0,0,1.88,1.88h9.4v80.84a1.88,1.88,0,0,0,1.88,1.88h7.52a1.88,1.88,0,0,0,1.88-1.88V187.21h20.68a1.88,1.88,0,0,0,1.88-1.88v-5.64H388v5.64a1.88,1.88,0,0,0,1.88,1.88h52.64a1.88,1.88,0,0,0,1.88-1.88V125.17A1.88,1.88,0,0,0,442.52,123.29Zm-92.12,75.2h-3.76V117.65a1.88,1.88,0,0,0-1.88-1.88h-9.4V112h13.16a1.88,1.88,0,0,1,1.88,1.88Zm3.76-52.64h3.76v18.8h-3.76Zm86.48,37.6h-3.76v-7.52h-3.76v7.52h-3.76v-7.52H425.6v7.52h-3.76v-7.52h-3.76v7.52h-3.76v-7.52h-3.76v7.52H406.8v-7.52H403v7.52h-3.76v-7.52h-3.76v7.52h-3.76v-5.64a1.88,1.88,0,0,0-1.88-1.88h-15a1.88,1.88,0,0,0-1.88,1.88v5.64h-18.8v-15h5.64a1.88,1.88,0,0,0,1.88-1.88V144a1.88,1.88,0,0,0-1.88-1.88h-5.64v-15h86.48Z" style="fill:#eb6a38"/><path d="M1141.68,123.61h-90.24V114a5.76,5.76,0,0,0-5.76-5.76h-15.36a1.92,1.92,0,0,0-1.92,1.92v7.68a1.92,1.92,0,0,0,1.92,1.92h9.6v82.56a1.92,1.92,0,0,0,1.92,1.92h7.68a1.92,1.92,0,0,0,1.92-1.92V188.89h21.12a1.92,1.92,0,0,0,1.92-1.92v-5.76H1086V187a1.92,1.92,0,0,0,1.92,1.92h53.76a1.92,1.92,0,0,0,1.92-1.92V125.53A1.92,1.92,0,0,0,1141.68,123.61Zm-94.08,76.8h-3.84V117.85a1.92,1.92,0,0,0-1.92-1.92h-9.6v-3.84h13.44a1.92,1.92,0,0,1,1.92,1.92Zm3.84-53.76h3.84v19.2h-3.84Zm88.32,38.4h-3.84v-7.68h-3.84v7.68h-3.84v-7.68h-3.84v7.68h-3.84v-7.68h-3.84v7.68h-3.84v-7.68H1109v7.68h-3.84v-7.68h-3.84v7.68h-3.84v-7.68h-3.84v7.68h-3.84v-5.76a1.92,1.92,0,0,0-1.92-1.92h-15.36a1.92,1.92,0,0,0-1.92,1.92v5.76h-19.2V169.69h5.76a1.92,1.92,0,0,0,1.92-1.92v-23a1.92,1.92,0,0,0-1.92-1.92h-5.76V127.45h88.32Z" style="fill:#c13018"/><path d="M1105.2,160.09a1.92,1.92,0,0,0,1.92,1.92H1111v3.84h3.84V162h1.92v3.84h3.84V162h1.92v3.84h3.84V162h3.84a1.92,1.92,0,0,0,1.92-1.92v-3.84h3.84v-3.84h-3.84v-1.92h3.84v-3.84h-3.84v-1.92h3.84v-3.84h-3.84v-3.84a1.92,1.92,0,0,0-1.92-1.92h-3.84v-3.84h-3.84v3.84h-1.92v-3.84h-3.84v3.84h-1.92v-3.84H1111v3.84h-3.84a1.92,1.92,0,0,0-1.92,1.92v3.84h-3.84v3.84h3.84v1.92h-3.84v3.84h3.84v1.92h-3.84v3.84h3.84ZM1109,139h19.2v19.2H1109Z" style="fill:#c13018"/><path d="M1112.88,154.33h11.52V142.81h-11.52Zm3.84-7.68h3.84v3.84h-3.84Z" style="fill:#c13018"/><circle cx="1074.48" cy="138.97" r="3.84" style="fill:#c13018"/><rect x="1070.64" y="146.65" width="23.04" height="3.84" style="fill:#c13018"/><rect x="1070.64" y="154.33" width="15.36" height="3.84" style="fill:#c13018"/><rect x="1070.64" y="162.01" width="15.36" height="3.84" style="fill:#c13018"/><path d="M781.67,141.83c-.4-30.3-25.06-55.73-55.45-55.73a58.22,58.22,0,0,0-47.57,25.55,27.86,27.86,0,0,0-43.27,23.21c0,.53,0,1,.08,1.58s-.08,1.28-.08,1.9C621.49,145,611,160.83,611,177.19a41.37,41.37,0,0,0,41.25,41.26h85.36c.48,0,.94-.06,1.42-.07s.94.07,1.42.07h34.14A38.52,38.52,0,0,0,813,180C813,161.33,799.44,145.17,781.67,141.83Z" style="fill:none;stroke:#7383bf;stroke-linecap:round;stroke-miterlimit:10;stroke-width:6.96551717950491px"/><path d="M781.67,141.83a67,67,0,0,0-17.43,0" style="fill:none;stroke:#7383bf;stroke-linecap:round;stroke-miterlimit:10;stroke-width:6.96551717950491px"/><path d="M635.38,134.86a27.86,27.86,0,0,1,55.72,0" style="fill:none;stroke:#7383bf;stroke-linecap:round;stroke-miterlimit:10;stroke-width:6.96551717950491px"/><rect x="1334.13" y="104.4" width="148" height="89.21" rx="12" ry="12" style="fill:none;stroke:#f7931f;stroke-miterlimit:10;stroke-width:5px"/><rect x="1384.3" y="193.1" width="47.64" height="16.22" rx="4.38" ry="4.38" style="fill:#f7931f"/><rect x="1353.39" y="207.8" width="109.48" height="22.3" rx="6.03" ry="6.03" style="fill:none;stroke:#f7931f;stroke-miterlimit:10;stroke-width:5px"/><circle cx="1365.55" cy="215.91" r="2.03" style="fill:#f7931f"/><circle cx="1371.37" cy="215.91" r="2.03" style="fill:#f7931f"/><circle cx="1365.55" cy="221.99" r="2.03" style="fill:#f7931f"/><circle cx="1371.37" cy="221.99" r="2.03" style="fill:#f7931f"/><rect x="1424.34" y="216.92" width="31.42" height="3.04" rx="0.82" ry="0.82" style="fill:none;stroke:#f7931f;stroke-miterlimit:10;stroke-width:5px"/><path d="M1376.85,264.68a5.84,5.84,0,0,0,3.82,1.7,2.21,2.21,0,0,0,1.68-.58,1.48,1.48,0,0,0,.42-1.05,1.3,1.3,0,0,0-.47-1,6.1,6.1,0,0,0-2.15-.87l-1.13-.35a5.52,5.52,0,0,1-2.4-1.35,4.2,4.2,0,0,1-.95-2.95,5.41,5.41,0,0,1,1.53-4,5.88,5.88,0,0,1,4.27-1.58,11.76,11.76,0,0,1,5.15,1.35l-1.72,3.38a4.39,4.39,0,0,0-2.85-1.13,2.09,2.09,0,0,0-1.43.5,1.24,1.24,0,0,0-.42.9,1.15,1.15,0,0,0,.22.75,2.79,2.79,0,0,0,1.45.75l1.33.4a6.37,6.37,0,0,1,3,1.65,3.93,3.93,0,0,1,1.08,3,5.65,5.65,0,0,1-1.58,4.2,6.43,6.43,0,0,1-4.92,1.7,9,9,0,0,1-3.28-.55,11.91,11.91,0,0,1-2.52-1.32Z"/><path d="M1394.07,261.78v7.9h-4v-7.9h-1.28v-3.27h1.28v-3.68h4v3.68h2.28v3.27Z"/><path d="M1406.5,258.51h4v11.17h-4v-1.23a4.17,4.17,0,0,1-3.48,1.6,5.35,5.35,0,0,1-4-1.77,5.63,5.63,0,0,1-1.6-4.1,6.15,6.15,0,0,1,1.72-4.47,5.77,5.77,0,0,1,4-1.58,4.41,4.41,0,0,1,3.35,1.45Zm-4.2,3.74a2.63,2.63,0,0,0-.8,1.83,2.55,2.55,0,0,0,.77,1.82,2.83,2.83,0,0,0,1.8.75,2.56,2.56,0,0,0,1.8-.77,2.43,2.43,0,0,0,.75-1.8,2.49,2.49,0,0,0-.77-1.83,2.55,2.55,0,0,0-3.55,0Z"/><path d="M1417.67,261.78v7.9h-4v-7.9h-1.27v-3.27h1.27v-3.68h4v3.68H1420v3.27Zm-3.85,9.15,3.75.4-2.55,4.6-2.5-.3Z"/><path d="M1423.45,251.61a2.25,2.25,0,1,1-2.25,2.25A2.24,2.24,0,0,1,1423.45,251.61Zm2,6.9v11.17h-4V258.51Z"/><path d="M1440,264.83h-8.32a2.78,2.78,0,0,0,.7,1.87,2.25,2.25,0,0,0,1.65.55,3.07,3.07,0,0,0,1.3-.3,1.9,1.9,0,0,0,.7-.75h3.82a4.91,4.91,0,0,1-1.35,2.3,6.06,6.06,0,0,1-4.55,1.55,6.31,6.31,0,0,1-4.62-1.7,5.82,5.82,0,0,1-1.65-4.22,6,6,0,0,1,1.67-4.33,6.31,6.31,0,0,1,4.58-1.62,6.14,6.14,0,0,1,4.3,1.53,6.25,6.25,0,0,1,1.77,4.69Zm-3.67-2.3a2.66,2.66,0,0,0-.65-1.2,2.31,2.31,0,0,0-1.65-.6,2.14,2.14,0,0,0-1.63.6,2.36,2.36,0,0,0-.6,1.2Z"/><rect x="46" y="44" width="434" height="300" rx="12" ry="12" style="fill:none;stroke:#4fc2c9;stroke-miterlimit:10;stroke-width:5px"/><rect x="970.5" y="44.5" width="561.5" height="300" rx="12" ry="12" style="fill:none;stroke:#4fc2c9;stroke-miterlimit:10;stroke-width:5.68721988726328px"/><rect x="848" y="170" width="91" height="10" rx="5" ry="5" style="fill:#eb6a38"/></svg>