<svg id="Layer_1" data-name="Layer 1" xmlns="http://www.w3.org/2000/svg" viewBox="0 0 1696 788"><title>Capitolul11</title><path d="M660.55,254.12a7,7,0,0,0,4.59,2,2.63,2.63,0,0,0,2-.69,1.79,1.79,0,0,0,.51-1.26,1.56,1.56,0,0,0-.57-1.2,7.21,7.21,0,0,0-2.58-1l-1.35-.42a6.54,6.54,0,0,1-2.88-1.62,5,5,0,0,1-1.14-3.54,6.54,6.54,0,0,1,1.83-4.83,7.05,7.05,0,0,1,5.13-1.89,14.06,14.06,0,0,1,6.18,1.62l-2.07,4.05a5.28,5.28,0,0,0-3.42-1.35,2.49,2.49,0,0,0-1.71.6,1.48,1.48,0,0,0-.51,1.08,1.34,1.34,0,0,0,.27.9,3.28,3.28,0,0,0,1.74.9l1.59.48a7.64,7.64,0,0,1,3.63,2,4.72,4.72,0,0,1,1.29,3.57,6.78,6.78,0,0,1-1.89,5,7.76,7.76,0,0,1-5.91,2,10.7,10.7,0,0,1-3.93-.66,14,14,0,0,1-3-1.59Z"/><path d="M690.13,254.3h-10a3.39,3.39,0,0,0,.84,2.25,2.7,2.7,0,0,0,2,.66,3.79,3.79,0,0,0,1.56-.36,2.23,2.23,0,0,0,.84-.9H690a6,6,0,0,1-1.62,2.76c-1,1-2.55,1.86-5.46,1.86a7.61,7.61,0,0,1-5.55-2,7,7,0,0,1-2-5.07,7.16,7.16,0,0,1,2-5.19,7.55,7.55,0,0,1,5.49-2,7.35,7.35,0,0,1,5.16,1.83,7.51,7.51,0,0,1,2.13,5.64Zm-4.41-2.76a3.22,3.22,0,0,0-.78-1.44,2.8,2.8,0,0,0-2-.72,2.58,2.58,0,0,0-2,.72,2.74,2.74,0,0,0-.72,1.44Z"/><path d="M692.89,246.71h4.8v2.19a4.33,4.33,0,0,1,1.89-1.86,5.24,5.24,0,0,1,2.49-.54l1,.06v4.53a4.23,4.23,0,0,0-2.07-.48,3.14,3.14,0,0,0-2.19.72,4,4,0,0,0-1.08,3.06v5.73h-4.8Z"/><path d="M708.88,246.71l3.21,6.87,3.27-6.87h5.34l-7,13.41h-3.27l-6.93-13.41Z"/><path d="M735.82,254.3h-10a3.39,3.39,0,0,0,.84,2.25,2.7,2.7,0,0,0,2,.66,3.79,3.79,0,0,0,1.56-.36,2.23,2.23,0,0,0,.84-.9h4.59a6,6,0,0,1-1.62,2.76c-1,1-2.55,1.86-5.46,1.86a7.61,7.61,0,0,1-5.55-2,7,7,0,0,1-2-5.07,7.16,7.16,0,0,1,2-5.19,7.55,7.55,0,0,1,5.49-2,7.35,7.35,0,0,1,5.16,1.83,7.51,7.51,0,0,1,2.13,5.64Zm-4.41-2.76a3.22,3.22,0,0,0-.78-1.44,2.8,2.8,0,0,0-2-.72,2.58,2.58,0,0,0-1.95.72,2.74,2.74,0,0,0-.72,1.44Z"/><path d="M738.58,246.71h4.8v2.19a4.33,4.33,0,0,1,1.89-1.86,5.24,5.24,0,0,1,2.49-.54l1,.06v4.53a4.23,4.23,0,0,0-2.07-.48,3.14,3.14,0,0,0-2.19.72,4,4,0,0,0-1.08,3.06v5.73h-4.8Z"/><path d="M758.29,260.12v-20h6.81a11.16,11.16,0,0,1,7.95,2.76,9.77,9.77,0,0,1,2.79,7.29,9.23,9.23,0,0,1-2.61,6.93,10.87,10.87,0,0,1-7.68,3Zm5.19-4.41h1a6,6,0,0,0,4.38-1.44,5.45,5.45,0,0,0,1.53-4.11,6,6,0,0,0-1.56-4.38,5.83,5.83,0,0,0-4.14-1.26h-1.26Z"/><path d="M779.14,260.12v-20h5.19l9.57,12.24V240.11h5.18v20H793.9l-9.57-12.24v12.24Z"/><path d="M804.61,254.12a7,7,0,0,0,4.59,2,2.63,2.63,0,0,0,2-.69,1.83,1.83,0,0,0,.51-1.26,1.6,1.6,0,0,0-.57-1.2,7.29,7.29,0,0,0-2.58-1l-1.35-.42a6.54,6.54,0,0,1-2.88-1.62,5,5,0,0,1-1.14-3.54,6.54,6.54,0,0,1,1.83-4.83,7.05,7.05,0,0,1,5.13-1.89,14,14,0,0,1,6.17,1.62l-2.06,4.05a5.28,5.28,0,0,0-3.42-1.35,2.48,2.48,0,0,0-1.71.6,1.48,1.48,0,0,0-.51,1.08,1.34,1.34,0,0,0,.27.9,3.28,3.28,0,0,0,1.74.9l1.59.48a7.61,7.61,0,0,1,3.62,2,4.69,4.69,0,0,1,1.3,3.57,6.79,6.79,0,0,1-1.9,5,7.74,7.74,0,0,1-5.9,2,10.7,10.7,0,0,1-3.93-.66,14,14,0,0,1-3-1.59Z"/><path d="M831.75,238.25v21.87H827V238.25Z"/><path d="M848.52,258.35a9.18,9.18,0,0,1-12,0,6.92,6.92,0,0,1,0-9.87,9.18,9.18,0,0,1,12,0,6.92,6.92,0,0,1,0,9.87Zm-8.13-7.14a3.06,3.06,0,0,0,2.16,5.22,3.05,3.05,0,0,0,2.13-.9,3,3,0,0,0,.93-2.13,3.26,3.26,0,0,0-.93-2.19,3.08,3.08,0,0,0-4.29,0Z"/><path d="M863.49,259.82a7.12,7.12,0,0,1-3.33.75,7.41,7.41,0,0,1-5.28-2,7,7,0,0,1-2.07-5,7.3,7.3,0,0,1,2.16-5.19,7.73,7.73,0,0,1,5.4-2,6.88,6.88,0,0,1,3.12.75v4a4.28,4.28,0,0,0-2.49-.87,3.15,3.15,0,0,0-2.34.93,3.26,3.26,0,0,0-.93,2.31,3.44,3.44,0,0,0,.84,2.25,3.26,3.26,0,0,0,2.46,1,3.63,3.63,0,0,0,2.46-.9Z"/><path d="M876.6,246.71h4.8v13.41h-4.8v-1.47a5,5,0,0,1-4.17,1.92,6.42,6.42,0,0,1-4.83-2.13,6.76,6.76,0,0,1-1.92-4.92,7.42,7.42,0,0,1,2.07-5.37,6.9,6.9,0,0,1,4.83-1.89,5.31,5.31,0,0,1,4,1.74Zm-5,4.5a3.14,3.14,0,0,0-1,2.19,3.09,3.09,0,0,0,.93,2.19,3.37,3.37,0,0,0,2.16.9,3.08,3.08,0,0,0,2.16-.93,2.91,2.91,0,0,0,.9-2.16,3,3,0,0,0-.93-2.19,3,3,0,0,0-4.26,0Z"/><path d="M889.5,238.25v21.87h-4.8V238.25Z"/><path d="M122.36,510.76H115.1l-1.35,3.36h-5.49l7.68-20h5.67l7.53,20h-5.55Zm-1.38-4-2.25-6.48-2.19,6.48Z"/><path d="M135.8,521H131V500.71h4.8v1.47a5,5,0,0,1,4.11-1.92,6.67,6.67,0,0,1,4.77,1.95,7.64,7.64,0,0,1-.12,10.5,6.44,6.44,0,0,1-4.59,1.86,5.71,5.71,0,0,1-4.17-1.74Zm.78-15.75a3.27,3.27,0,0,0-.93,2.22,3.24,3.24,0,0,0,.93,2.13,3.07,3.07,0,0,0,2.16.9,2.9,2.9,0,0,0,2.13-.9,3.17,3.17,0,0,0,.93-2.13,3.27,3.27,0,0,0-.93-2.22,2.9,2.9,0,0,0-2.13-.9A3.07,3.07,0,0,0,136.58,505.24Z"/><path d="M154.28,492.25v21.87h-4.8V492.25Z"/><path d="M160,492.43a2.7,2.7,0,1,1-2.7,2.7A2.69,2.69,0,0,1,160,492.43Zm2.4,8.28v13.41h-4.8V500.71Z"/><path d="M175.75,513.82a7.09,7.09,0,0,1-3.33.75,7.36,7.36,0,0,1-5.27-2,7,7,0,0,1-2.07-5,7.3,7.3,0,0,1,2.16-5.19,7.71,7.71,0,0,1,5.39-2,6.85,6.85,0,0,1,3.12.75v4a4.22,4.22,0,0,0-2.48-.87,3.19,3.19,0,0,0-2.35.93,3.3,3.3,0,0,0-.92,2.31,3.49,3.49,0,0,0,.83,2.25,3.28,3.28,0,0,0,2.46,1,3.63,3.63,0,0,0,2.46-.9Z"/><path d="M188.86,500.71h4.8v13.41h-4.8v-1.47a5,5,0,0,1-4.17,1.92,6.42,6.42,0,0,1-4.83-2.13,6.76,6.76,0,0,1-1.92-4.92,7.46,7.46,0,0,1,2.07-5.37,6.9,6.9,0,0,1,4.83-1.89,5.31,5.31,0,0,1,4,1.74Zm-5,4.5a3.14,3.14,0,0,0-1,2.19,3.09,3.09,0,0,0,.93,2.19,3.37,3.37,0,0,0,2.16.9,3.08,3.08,0,0,0,2.16-.93,2.91,2.91,0,0,0,.9-2.16,3,3,0,0,0-.93-2.19,3,3,0,0,0-4.26,0Z"/><path d="M202.27,504.64v9.48h-4.8v-9.48h-1.53v-3.93h1.53V496.3h4.8v4.41H205v3.93Zm-4.62,11,4.5.48-3.06,5.52-3-.36Z"/><path d="M209.2,492.43a2.7,2.7,0,1,1-2.7,2.7A2.69,2.69,0,0,1,209.2,492.43Zm2.4,8.28v13.41h-4.8V500.71Z"/><path d="M229.09,508.3h-10a3.39,3.39,0,0,0,.84,2.25,2.7,2.7,0,0,0,2,.66,3.79,3.79,0,0,0,1.56-.36,2.23,2.23,0,0,0,.84-.9h4.59a6,6,0,0,1-1.62,2.76c-1,1-2.55,1.86-5.46,1.86a7.61,7.61,0,0,1-5.55-2,7,7,0,0,1-2-5.07,7.16,7.16,0,0,1,2-5.19,7.55,7.55,0,0,1,5.49-1.95,7.35,7.35,0,0,1,5.16,1.83,7.51,7.51,0,0,1,2.13,5.64Zm-4.41-2.76a3.22,3.22,0,0,0-.78-1.44,2.8,2.8,0,0,0-2-.72,2.58,2.58,0,0,0-1.95.72,2.74,2.74,0,0,0-.72,1.44Z"/><rect x="37.88" y="277.25" width="263" height="193" rx="12" ry="12" style="fill:none;stroke:#3a5c84;stroke-miterlimit:10;stroke-width:5px"/><rect x="642.63" y="289.75" width="263" height="193" rx="12" ry="12" style="fill:none;stroke:#3a5c84;stroke-miterlimit:10;stroke-width:5px"/><rect x="705.73" y="365.8" width="136.4" height="39.71" rx="5.72" ry="5.72" style="fill:none;stroke:#a2b969;stroke-miterlimit:10;stroke-width:4.64147865772247px"/><circle cx="729.04" cy="385.66" r="9.21" style="fill:none;stroke:#a2b969;stroke-miterlimit:10;stroke-width:4.64147865772247px"/><circle cx="792.63" cy="385.95" r="2.88" style="fill:#a2b969"/><circle cx="802.41" cy="385.95" r="2.88" style="fill:#a2b969"/><circle cx="812.77" cy="385.95" r="2.88" style="fill:#a2b969"/><circle cx="823.13" cy="385.95" r="2.88" style="fill:#a2b969"/><rect x="705.73" y="406.03" width="136.4" height="39.71" rx="5.72" ry="5.72" style="fill:none;stroke:#a2b969;stroke-miterlimit:10;stroke-width:4.64147865772247px"/><circle cx="729.04" cy="425.88" r="9.21" style="fill:none;stroke:#a2b969;stroke-miterlimit:10;stroke-width:4.64147865772247px"/><circle cx="792.63" cy="426.17" r="2.88" style="fill:#a2b969"/><circle cx="802.41" cy="426.17" r="2.88" style="fill:#a2b969"/><circle cx="812.77" cy="426.17" r="2.88" style="fill:#a2b969"/><circle cx="823.13" cy="426.17" r="2.88" style="fill:#a2b969"/><rect x="705.73" y="326.09" width="136.4" height="39.71" rx="5.72" ry="5.72" style="fill:none;stroke:#a2b969;stroke-miterlimit:10;stroke-width:4.64147865772247px"/><circle cx="729.04" cy="345.95" r="9.21" style="fill:none;stroke:#a2b969;stroke-miterlimit:10;stroke-width:4.64147865772247px"/><circle cx="792.63" cy="346.24" r="2.88" style="fill:#a2b969"/><circle cx="802.41" cy="346.24" r="2.88" style="fill:#a2b969"/><circle cx="812.77" cy="346.24" r="2.88" style="fill:#a2b969"/><circle cx="823.13" cy="346.24" r="2.88" style="fill:#a2b969"/><rect x="1183.73" y="542.8" width="136.4" height="39.71" rx="5.72" ry="5.72" style="fill:none;stroke:#a2b969;stroke-miterlimit:10;stroke-width:4.64147865772247px"/><circle cx="1207.04" cy="562.66" r="9.21" style="fill:none;stroke:#a2b969;stroke-miterlimit:10;stroke-width:4.64147865772247px"/><circle cx="1270.63" cy="562.95" r="2.88" style="fill:#a2b969"/><circle cx="1280.41" cy="562.95" r="2.88" style="fill:#a2b969"/><circle cx="1290.77" cy="562.95" r="2.88" style="fill:#a2b969"/><circle cx="1301.13" cy="562.95" r="2.88" style="fill:#a2b969"/><rect x="1183.73" y="583.03" width="136.4" height="39.71" rx="5.72" ry="5.72" style="fill:none;stroke:#a2b969;stroke-miterlimit:10;stroke-width:4.64147865772247px"/><circle cx="1207.04" cy="602.88" r="9.21" style="fill:none;stroke:#a2b969;stroke-miterlimit:10;stroke-width:4.64147865772247px"/><circle cx="1270.63" cy="603.17" r="2.88" style="fill:#a2b969"/><circle cx="1280.41" cy="603.17" r="2.88" style="fill:#a2b969"/><circle cx="1290.77" cy="603.17" r="2.88" style="fill:#a2b969"/><circle cx="1301.13" cy="603.17" r="2.88" style="fill:#a2b969"/><rect x="1183.73" y="503.09" width="136.4" height="39.71" rx="5.72" ry="5.72" style="fill:none;stroke:#a2b969;stroke-miterlimit:10;stroke-width:4.64147865772247px"/><circle cx="1207.04" cy="522.95" r="9.21" style="fill:none;stroke:#a2b969;stroke-miterlimit:10;stroke-width:4.64147865772247px"/><circle cx="1270.63" cy="523.24" r="2.88" style="fill:#a2b969"/><circle cx="1280.41" cy="523.24" r="2.88" style="fill:#a2b969"/><circle cx="1290.77" cy="523.24" r="2.88" style="fill:#a2b969"/><circle cx="1301.13" cy="523.24" r="2.88" style="fill:#a2b969"/><rect x="1436.73" y="542.8" width="136.4" height="39.71" rx="5.72" ry="5.72" style="fill:none;stroke:#a2b969;stroke-miterlimit:10;stroke-width:4.64147865772247px"/><circle cx="1460.04" cy="562.66" r="9.21" style="fill:none;stroke:#a2b969;stroke-miterlimit:10;stroke-width:4.64147865772247px"/><circle cx="1523.63" cy="562.95" r="2.88" style="fill:#a2b969"/><circle cx="1533.41" cy="562.95" r="2.88" style="fill:#a2b969"/><circle cx="1543.77" cy="562.95" r="2.88" style="fill:#a2b969"/><circle cx="1554.13" cy="562.95" r="2.88" style="fill:#a2b969"/><rect x="1436.73" y="583.03" width="136.4" height="39.71" rx="5.72" ry="5.72" style="fill:none;stroke:#a2b969;stroke-miterlimit:10;stroke-width:4.64147865772247px"/><circle cx="1460.04" cy="602.88" r="9.21" style="fill:none;stroke:#a2b969;stroke-miterlimit:10;stroke-width:4.64147865772247px"/><circle cx="1523.63" cy="603.17" r="2.88" style="fill:#a2b969"/><circle cx="1533.41" cy="603.17" r="2.88" style="fill:#a2b969"/><circle cx="1543.77" cy="603.17" r="2.88" style="fill:#a2b969"/><circle cx="1554.13" cy="603.17" r="2.88" style="fill:#a2b969"/><rect x="1436.73" y="503.09" width="136.4" height="39.71" rx="5.72" ry="5.72" style="fill:none;stroke:#a2b969;stroke-miterlimit:10;stroke-width:4.64147865772247px"/><circle cx="1460.04" cy="522.95" r="9.21" style="fill:none;stroke:#a2b969;stroke-miterlimit:10;stroke-width:4.64147865772247px"/><circle cx="1523.63" cy="523.24" r="2.88" style="fill:#a2b969"/><circle cx="1533.41" cy="523.24" r="2.88" style="fill:#a2b969"/><circle cx="1543.77" cy="523.24" r="2.88" style="fill:#a2b969"/><circle cx="1554.13" cy="523.24" r="2.88" style="fill:#a2b969"/><rect x="1183.73" y="230.8" width="136.4" height="39.71" rx="5.72" ry="5.72" style="fill:none;stroke:#a2b969;stroke-miterlimit:10;stroke-width:4.64147865772247px"/><circle cx="1207.04" cy="250.66" r="9.21" style="fill:none;stroke:#a2b969;stroke-miterlimit:10;stroke-width:4.64147865772247px"/><circle cx="1270.63" cy="250.95" r="2.88" style="fill:#a2b969"/><circle cx="1280.41" cy="250.95" r="2.88" style="fill:#a2b969"/><circle cx="1290.77" cy="250.95" r="2.88" style="fill:#a2b969"/><circle cx="1301.13" cy="250.95" r="2.88" style="fill:#a2b969"/><rect x="1183.73" y="271.03" width="136.4" height="39.71" rx="5.72" ry="5.72" style="fill:none;stroke:#a2b969;stroke-miterlimit:10;stroke-width:4.64147865772247px"/><circle cx="1207.04" cy="290.88" r="9.21" style="fill:none;stroke:#a2b969;stroke-miterlimit:10;stroke-width:4.64147865772247px"/><circle cx="1270.63" cy="291.17" r="2.88" style="fill:#a2b969"/><circle cx="1280.41" cy="291.17" r="2.88" style="fill:#a2b969"/><circle cx="1290.77" cy="291.17" r="2.88" style="fill:#a2b969"/><circle cx="1301.13" cy="291.17" r="2.88" style="fill:#a2b969"/><rect x="1183.73" y="191.09" width="136.4" height="39.71" rx="5.72" ry="5.72" style="fill:none;stroke:#a2b969;stroke-miterlimit:10;stroke-width:4.64147865772247px"/><circle cx="1207.04" cy="210.95" r="9.21" style="fill:none;stroke:#a2b969;stroke-miterlimit:10;stroke-width:4.64147865772247px"/><circle cx="1270.63" cy="211.24" r="2.88" style="fill:#a2b969"/><circle cx="1280.41" cy="211.24" r="2.88" style="fill:#a2b969"/><circle cx="1290.77" cy="211.24" r="2.88" style="fill:#a2b969"/><circle cx="1301.13" cy="211.24" r="2.88" style="fill:#a2b969"/><rect x="1436.73" y="230.8" width="136.4" height="39.71" rx="5.72" ry="5.72" style="fill:none;stroke:#a2b969;stroke-miterlimit:10;stroke-width:4.64147865772247px"/><circle cx="1460.04" cy="250.66" r="9.21" style="fill:none;stroke:#a2b969;stroke-miterlimit:10;stroke-width:4.64147865772247px"/><circle cx="1523.63" cy="250.95" r="2.88" style="fill:#a2b969"/><circle cx="1533.41" cy="250.95" r="2.88" style="fill:#a2b969"/><circle cx="1543.77" cy="250.95" r="2.88" style="fill:#a2b969"/><circle cx="1554.13" cy="250.95" r="2.88" style="fill:#a2b969"/><rect x="1436.73" y="271.03" width="136.4" height="39.71" rx="5.72" ry="5.72" style="fill:none;stroke:#a2b969;stroke-miterlimit:10;stroke-width:4.64147865772247px"/><circle cx="1460.04" cy="290.88" r="9.21" style="fill:none;stroke:#a2b969;stroke-miterlimit:10;stroke-width:4.64147865772247px"/><circle cx="1523.63" cy="291.17" r="2.88" style="fill:#a2b969"/><circle cx="1533.41" cy="291.17" r="2.88" style="fill:#a2b969"/><circle cx="1543.77" cy="291.17" r="2.88" style="fill:#a2b969"/><circle cx="1554.13" cy="291.17" r="2.88" style="fill:#a2b969"/><rect x="1436.73" y="191.09" width="136.4" height="39.71" rx="5.72" ry="5.72" style="fill:none;stroke:#a2b969;stroke-miterlimit:10;stroke-width:4.64147865772247px"/><circle cx="1460.04" cy="210.95" r="9.21" style="fill:none;stroke:#a2b969;stroke-miterlimit:10;stroke-width:4.64147865772247px"/><circle cx="1523.63" cy="211.24" r="2.88" style="fill:#a2b969"/><circle cx="1533.41" cy="211.24" r="2.88" style="fill:#a2b969"/><circle cx="1543.77" cy="211.24" r="2.88" style="fill:#a2b969"/><circle cx="1554.13" cy="211.24" r="2.88" style="fill:#a2b969"/><polygon points="967.97 343.31 1068.96 343.31 1068.96 357.87 1099.9 326.94 1068.96 296 1068.96 310.56 967.97 310.56 967.97 343.31" style="fill:none;stroke:#3a5c84;stroke-miterlimit:10;stroke-width:5px"/><polygon points="1099.9 423.56 998.9 423.56 998.9 409 967.97 439.94 998.9 470.87 998.9 456.31 1099.9 456.31 1099.9 423.56" style="fill:none;stroke:#3a5c84;stroke-miterlimit:10;stroke-width:5px"/><rect x="97.85" y="323.23" width="142.83" height="96" rx="12" ry="12" transform="translate(-1.51 0.69) rotate(-0.23)" style="fill:none;stroke:#c13018;stroke-miterlimit:10;stroke-width:5px"/><line x1="97.55" y1="344.4" x2="240.38" y2="343.82" style="fill:none;stroke:#c13018;stroke-miterlimit:10;stroke-width:5px"/><circle cx="209.7" cy="333.21" r="3.12" style="fill:#c13018"/><circle cx="219.85" cy="333.17" r="3.12" style="fill:#c13018"/><circle cx="229.21" cy="333.13" r="3.12" style="fill:#c13018"/><rect x="1183.73" y="386.8" width="136.4" height="39.71" rx="5.72" ry="5.72" style="fill:none;stroke:#a2b969;stroke-miterlimit:10;stroke-width:4.64147865772247px"/><circle cx="1207.04" cy="406.66" r="9.21" style="fill:none;stroke:#a2b969;stroke-miterlimit:10;stroke-width:4.64147865772247px"/><circle cx="1270.63" cy="406.95" r="2.88" style="fill:#a2b969"/><circle cx="1280.41" cy="406.95" r="2.88" style="fill:#a2b969"/><circle cx="1290.77" cy="406.95" r="2.88" style="fill:#a2b969"/><circle cx="1301.13" cy="406.95" r="2.88" style="fill:#a2b969"/><rect x="1183.73" y="427.03" width="136.4" height="39.71" rx="5.72" ry="5.72" style="fill:none;stroke:#a2b969;stroke-miterlimit:10;stroke-width:4.64147865772247px"/><circle cx="1207.04" cy="446.88" r="9.21" style="fill:none;stroke:#a2b969;stroke-miterlimit:10;stroke-width:4.64147865772247px"/><circle cx="1270.63" cy="447.17" r="2.88" style="fill:#a2b969"/><circle cx="1280.41" cy="447.17" r="2.88" style="fill:#a2b969"/><circle cx="1290.77" cy="447.17" r="2.88" style="fill:#a2b969"/><circle cx="1301.13" cy="447.17" r="2.88" style="fill:#a2b969"/><rect x="1183.73" y="347.09" width="136.4" height="39.71" rx="5.72" ry="5.72" style="fill:none;stroke:#a2b969;stroke-miterlimit:10;stroke-width:4.64147865772247px"/><circle cx="1207.04" cy="366.95" r="9.21" style="fill:none;stroke:#a2b969;stroke-miterlimit:10;stroke-width:4.64147865772247px"/><circle cx="1270.63" cy="367.24" r="2.88" style="fill:#a2b969"/><circle cx="1280.41" cy="367.24" r="2.88" style="fill:#a2b969"/><circle cx="1290.77" cy="367.24" r="2.88" style="fill:#a2b969"/><circle cx="1301.13" cy="367.24" r="2.88" style="fill:#a2b969"/><rect x="1436.73" y="386.8" width="136.4" height="39.71" rx="5.72" ry="5.72" style="fill:none;stroke:#a2b969;stroke-miterlimit:10;stroke-width:4.64147865772247px"/><circle cx="1460.04" cy="406.66" r="9.21" style="fill:none;stroke:#a2b969;stroke-miterlimit:10;stroke-width:4.64147865772247px"/><circle cx="1523.63" cy="406.95" r="2.88" style="fill:#a2b969"/><circle cx="1533.41" cy="406.95" r="2.88" style="fill:#a2b969"/><circle cx="1543.77" cy="406.95" r="2.88" style="fill:#a2b969"/><circle cx="1554.13" cy="406.95" r="2.88" style="fill:#a2b969"/><rect x="1436.73" y="427.03" width="136.4" height="39.71" rx="5.72" ry="5.72" style="fill:none;stroke:#a2b969;stroke-miterlimit:10;stroke-width:4.64147865772247px"/><circle cx="1460.04" cy="446.88" r="9.21" style="fill:none;stroke:#a2b969;stroke-miterlimit:10;stroke-width:4.64147865772247px"/><circle cx="1523.63" cy="447.17" r="2.88" style="fill:#a2b969"/><circle cx="1533.41" cy="447.17" r="2.88" style="fill:#a2b969"/><circle cx="1543.77" cy="447.17" r="2.88" style="fill:#a2b969"/><circle cx="1554.13" cy="447.17" r="2.88" style="fill:#a2b969"/><rect x="1436.73" y="347.09" width="136.4" height="39.71" rx="5.72" ry="5.72" style="fill:none;stroke:#a2b969;stroke-miterlimit:10;stroke-width:4.64147865772247px"/><circle cx="1460.04" cy="366.95" r="9.21" style="fill:none;stroke:#a2b969;stroke-miterlimit:10;stroke-width:4.64147865772247px"/><circle cx="1523.63" cy="367.24" r="2.88" style="fill:#a2b969"/><circle cx="1533.41" cy="367.24" r="2.88" style="fill:#a2b969"/><circle cx="1543.77" cy="367.24" r="2.88" style="fill:#a2b969"/><circle cx="1554.13" cy="367.24" r="2.88" style="fill:#a2b969"/><rect x="576.5" y="54" width="1069.5" height="686" rx="12" ry="12" style="fill:none;stroke:#f7931f;stroke-miterlimit:10;stroke-width:9.58575245383877px"/><path d="M981.83,114.8a10.52,10.52,0,0,0,6.89,3.07,3.94,3.94,0,0,0,3-1,2.68,2.68,0,0,0,.77-1.89,2.36,2.36,0,0,0-.86-1.8c-.76-.68-1.93-1-3.87-1.57l-2-.63a9.75,9.75,0,0,1-4.32-2.44,7.52,7.52,0,0,1-1.71-5.3A9.86,9.86,0,0,1,982.46,96a10.59,10.59,0,0,1,7.7-2.83,21,21,0,0,1,9.27,2.43l-3.11,6.07a7.92,7.92,0,0,0-5.13-2,3.73,3.73,0,0,0-2.56.9,2.22,2.22,0,0,0-.77,1.62,2,2,0,0,0,.41,1.35,4.88,4.88,0,0,0,2.61,1.35l2.38.72a11.44,11.44,0,0,1,5.45,3,7.11,7.11,0,0,1,1.93,5.36,10.16,10.16,0,0,1-2.83,7.56c-2.57,2.56-5.67,3.06-8.87,3.06a16,16,0,0,1-5.89-1,20.7,20.7,0,0,1-4.55-2.39Z"/><path d="M1026.2,115.08h-15a5.05,5.05,0,0,0,1.26,3.37,4,4,0,0,0,3,1,5.77,5.77,0,0,0,2.34-.54,3.38,3.38,0,0,0,1.26-1.35h6.88a9,9,0,0,1-2.43,4.14c-1.48,1.44-3.82,2.79-8.19,2.79a11.42,11.42,0,0,1-8.32-3.06,10.5,10.5,0,0,1-3-7.6,10.76,10.76,0,0,1,3-7.79c1.67-1.62,4.28-2.92,8.24-2.92a11,11,0,0,1,7.74,2.74,11.27,11.27,0,0,1,3.19,8.46Zm-6.61-4.14a4.8,4.8,0,0,0-1.17-2.16,4.18,4.18,0,0,0-3-1.08,3.86,3.86,0,0,0-2.93,1.08,4.18,4.18,0,0,0-1.08,2.16Z"/><path d="M1030.34,103.69h7.2V107a6.5,6.5,0,0,1,2.84-2.79,7.77,7.77,0,0,1,3.73-.81c.18,0,.5,0,1.44.09v6.79a6.34,6.34,0,0,0-3.1-.72,4.71,4.71,0,0,0-3.29,1.08,6.08,6.08,0,0,0-1.62,4.59v8.59h-7.2Z"/><path d="M1054.33,103.69l4.81,10.31,4.91-10.31h8l-10.49,20.11h-4.9l-10.4-20.11Z"/><path d="M1078.13,91.27a4,4,0,1,1-4.05,4A4,4,0,0,1,1078.13,91.27Zm3.6,12.42V123.8h-7.2V103.69Z"/><path d="M1101.84,123.35a10.61,10.61,0,0,1-5,1.13,11.14,11.14,0,0,1-7.92-3.06,10.5,10.5,0,0,1-3.1-7.51,11,11,0,0,1,3.24-7.79,11.6,11.6,0,0,1,8.1-3.06,10.3,10.3,0,0,1,4.67,1.13v6a6.42,6.42,0,0,0-3.73-1.3,4.68,4.68,0,0,0-3.51,1.4,4.86,4.86,0,0,0-1.39,3.46,5.11,5.11,0,0,0,1.26,3.37,4.83,4.83,0,0,0,3.69,1.53,5.43,5.43,0,0,0,3.68-1.34Z"/><path d="M1109.54,91.27a4,4,0,1,1-4,4A4,4,0,0,1,1109.54,91.27Zm3.6,12.42V123.8h-7.2V103.69Z"/><path d="M1125.24,103.69v11.25a3.89,3.89,0,0,0,1.08,2.93,3.72,3.72,0,0,0,2.52.76,3.39,3.39,0,0,0,2.57-.85,3.74,3.74,0,0,0,1-2.84V103.69h7.2v12.56a6.87,6.87,0,0,1-1.93,5.39c-2.48,2.57-5.94,2.84-8.69,2.84-3,0-6.7-.31-9.09-2.88a7.23,7.23,0,0,1-1.89-5.35V103.69Z"/><path d="M1155.75,123.8v-30H1166c3,0,8,.41,11.92,4.14a14.68,14.68,0,0,1,4.19,10.94c0,4-1,7.46-3.92,10.39a16.31,16.31,0,0,1-11.52,4.54Zm7.79-6.61h1.57c1.89,0,4.55-.18,6.57-2.16a8.17,8.17,0,0,0,2.3-6.16,9,9,0,0,0-2.34-6.57c-1.85-1.71-4.28-1.89-6.21-1.89h-1.89Z"/><path d="M1187,123.8v-30h7.78l14.36,18.36V93.79H1217v30h-7.78l-14.36-18.35V123.8Z"/><path d="M1225.23,114.8a10.52,10.52,0,0,0,6.89,3.07,3.94,3.94,0,0,0,3-1,2.68,2.68,0,0,0,.77-1.89,2.36,2.36,0,0,0-.86-1.8c-.76-.68-1.93-1-3.87-1.57l-2-.63a9.75,9.75,0,0,1-4.32-2.44,7.52,7.52,0,0,1-1.71-5.3,9.86,9.86,0,0,1,2.74-7.25,10.59,10.59,0,0,1,7.7-2.83,21,21,0,0,1,9.27,2.43l-3.11,6.07a7.92,7.92,0,0,0-5.13-2,3.73,3.73,0,0,0-2.56.9,2.22,2.22,0,0,0-.77,1.62,2,2,0,0,0,.41,1.35,4.88,4.88,0,0,0,2.61,1.35l2.38.72a11.44,11.44,0,0,1,5.45,3,7.11,7.11,0,0,1,1.93,5.36,10.16,10.16,0,0,1-2.83,7.56c-2.57,2.56-5.67,3.06-8.87,3.06a16,16,0,0,1-5.89-1,20.7,20.7,0,0,1-4.55-2.39Z"/><path d="M952.91,246.23h-2.38v-3.68h6.7v16.67h-4.32Z"/><path d="M962.49,258.92a2.6,2.6,0,0,1,1.82-4.42,2.63,2.63,0,0,1,1.85.8,2.6,2.6,0,0,1,0,3.62,2.51,2.51,0,0,1-3.64,0Z"/><path d="M980,242.55v16.67h-4.32V242.55Z"/><path d="M983.11,248.05h4v1.4a4.21,4.21,0,0,1,3.55-1.65A4.55,4.55,0,0,1,994,249a3.86,3.86,0,0,1,1,3.13v7.09h-4v-5.64a3.25,3.25,0,0,0-.5-2.18,1.69,1.69,0,0,0-1.28-.47,2.17,2.17,0,0,0-1.47.52,2.58,2.58,0,0,0-.65,1.78v6h-4Z"/><path d="M1002.16,251.33v7.89h-4v-7.89h-1.28v-3.28h1.28v-3.67h4v3.67h2.27v3.28Z"/><path d="M1017.78,254.38h-8.32a2.78,2.78,0,0,0,.7,1.87,2.25,2.25,0,0,0,1.65.55,3.07,3.07,0,0,0,1.3-.3,1.9,1.9,0,0,0,.7-.75h3.82a4.91,4.91,0,0,1-1.35,2.3,6.06,6.06,0,0,1-4.55,1.55,6.35,6.35,0,0,1-4.62-1.7,5.84,5.84,0,0,1-1.65-4.22,6,6,0,0,1,1.67-4.33,6.31,6.31,0,0,1,4.58-1.62,6.12,6.12,0,0,1,4.3,1.52,6.27,6.27,0,0,1,1.77,4.7Zm-3.67-2.3a2.66,2.66,0,0,0-.65-1.2,2.31,2.31,0,0,0-1.65-.6,2.14,2.14,0,0,0-1.63.6,2.36,2.36,0,0,0-.6,1.2Z"/><path d="M1020.08,248.05h4v1.83a3.61,3.61,0,0,1,1.58-1.55,4.28,4.28,0,0,1,2.07-.45l.8.05v3.77a3.52,3.52,0,0,0-1.72-.4,2.66,2.66,0,0,0-1.83.6,3.38,3.38,0,0,0-.9,2.55v4.77h-4Z"/><path d="M1041.06,257.75a7.65,7.65,0,0,1-10,0,5.77,5.77,0,0,1,0-8.22,7.65,7.65,0,0,1,10,0,5.77,5.77,0,0,1,0,8.22Zm-6.78-5.95a2.49,2.49,0,0,0,0,3.6,2.51,2.51,0,0,0,3.58,0,2.44,2.44,0,0,0,.77-1.77,2.72,2.72,0,0,0-.77-1.83,2.59,2.59,0,0,0-3.58,0Z"/><path d="M1057.66,248.05v10.47a6,6,0,0,1-1.53,4.63,6.65,6.65,0,0,1-4.92,1.8,6.87,6.87,0,0,1-5.23-2,4,4,0,0,1-1.22-2.32h4.45a1.71,1.71,0,0,0,1.87,1.15,2.45,2.45,0,0,0,1.78-.63,2.69,2.69,0,0,0,.8-2.07V258a4.24,4.24,0,0,1-3.35,1.48,5.6,5.6,0,0,1-4.13-1.57,5.91,5.91,0,0,1-1.55-4.08,6.44,6.44,0,0,1,1.65-4.37,5.61,5.61,0,0,1,4-1.7,4.39,4.39,0,0,1,3.33,1.47v-1.15Zm-8.15,3.75a2.5,2.5,0,0,0,0,3.63,2.54,2.54,0,0,0,1.8.72,2.56,2.56,0,0,0,2.55-2.55,2.88,2.88,0,0,0-.8-1.82,2.54,2.54,0,0,0-1.78-.73A2.39,2.39,0,0,0,1049.51,251.8Z"/><path d="M1069.06,248.05h4v11.17h-4V258a4.2,4.2,0,0,1-3.48,1.6,5.35,5.35,0,0,1-4-1.77,5.64,5.64,0,0,1-1.6-4.1,6.19,6.19,0,0,1,1.72-4.48,5.76,5.76,0,0,1,4-1.57,4.41,4.41,0,0,1,3.35,1.45Zm-4.2,3.75a2.63,2.63,0,0,0-.8,1.83,2.55,2.55,0,0,0,.77,1.82,2.83,2.83,0,0,0,1.8.75,2.56,2.56,0,0,0,1.8-.77,2.43,2.43,0,0,0,.75-1.8,2.49,2.49,0,0,0-.77-1.83,2.57,2.57,0,0,0-1.8-.72A2.54,2.54,0,0,0,1064.86,251.8Z"/><path d="M1075.81,248.05h4v1.83a3.6,3.6,0,0,1,1.57-1.55,4.32,4.32,0,0,1,2.08-.45l.8.05v3.77a3.54,3.54,0,0,0-1.73-.4,2.63,2.63,0,0,0-1.82.6,3.38,3.38,0,0,0-.9,2.55v4.77h-4Z"/><path d="M1097.88,254.38h-8.32a2.78,2.78,0,0,0,.7,1.87,2.25,2.25,0,0,0,1.65.55,3.07,3.07,0,0,0,1.3-.3,1.9,1.9,0,0,0,.7-.75h3.82a4.91,4.91,0,0,1-1.35,2.3,6.06,6.06,0,0,1-4.55,1.55,6.35,6.35,0,0,1-4.62-1.7,5.84,5.84,0,0,1-1.65-4.22,6,6,0,0,1,1.67-4.33,6.31,6.31,0,0,1,4.58-1.62,6.12,6.12,0,0,1,4.3,1.52,6.27,6.27,0,0,1,1.77,4.7Zm-3.67-2.3a2.66,2.66,0,0,0-.65-1.2,2.31,2.31,0,0,0-1.65-.6,2.14,2.14,0,0,0-1.63.6,2.36,2.36,0,0,0-.6,1.2Z"/><path d="M1111.58,243.8l-.25-2.8h2.75l-.25,2.8,2.6-1.1.85,2.58-2.75.65,1.85,2.12-2.2,1.6-1.47-2.37-1.45,2.37-2.2-1.6,1.85-2.1-2.75-.65.85-2.6Z"/><path d="M973.73,520.22H960.36l4.22-4.42a27.67,27.67,0,0,0,3.43-4.22,4.71,4.71,0,0,0,.9-2.6,2.5,2.5,0,0,0-.5-1.6,1.63,1.63,0,0,0-1.23-.5,1.8,1.8,0,0,0-1.45.67,4.22,4.22,0,0,0-.6,2.05h-4.47a6.62,6.62,0,0,1,1.85-4.62,7.18,7.18,0,0,1,9.42-.08,5.56,5.56,0,0,1,1.63,4.1,6.49,6.49,0,0,1-2.48,5l-2.8,2.6h5.45Z"/><path d="M976.69,519.92a2.6,2.6,0,0,1,1.82-4.42,2.63,2.63,0,0,1,1.85.8,2.6,2.6,0,0,1,0,3.62,2.51,2.51,0,0,1-3.64,0Z"/><path d="M996.61,503.55a5.36,5.36,0,0,1,4.07,1.48,5.48,5.48,0,0,1,1.43,3.75,4.79,4.79,0,0,1-1.33,3.47,4.61,4.61,0,0,1-2.3,1.15l5.23,6.82h-5.38l-4.15-6.39v6.39h-4.32V503.55ZM994.18,511H995a3.26,3.26,0,0,0,2.1-.68,2.08,2.08,0,0,0,.55-1.4,2,2,0,0,0-.58-1.4,2.92,2.92,0,0,0-2.07-.65h-.83Z"/><path d="M1013.81,509.05h4v11.17h-4V519a4.2,4.2,0,0,1-3.48,1.6,5.35,5.35,0,0,1-4-1.77,5.64,5.64,0,0,1-1.6-4.1,6.19,6.19,0,0,1,1.72-4.48,5.76,5.76,0,0,1,4-1.57,4.41,4.41,0,0,1,3.35,1.45Zm2.2-5.75a4,4,0,0,1-1.1,2.73,5.28,5.28,0,0,1-6.5,0,3.92,3.92,0,0,1-1.1-2.73h2.57a1.76,1.76,0,0,0,.5,1,2.07,2.07,0,0,0,1.28.45,2,2,0,0,0,1.27-.45,1.76,1.76,0,0,0,.5-1Zm-6.4,9.5a2.63,2.63,0,0,0-.8,1.83,2.55,2.55,0,0,0,.77,1.82,2.83,2.83,0,0,0,1.8.75,2.56,2.56,0,0,0,1.8-.77,2.43,2.43,0,0,0,.75-1.8,2.49,2.49,0,0,0-.77-1.83,2.57,2.57,0,0,0-1.8-.72A2.54,2.54,0,0,0,1009.61,512.8Z"/><path d="M1021.28,516.53a5.64,5.64,0,0,0,1.6.82,5.09,5.09,0,0,0,1.55.28,1.75,1.75,0,0,0,1-.3.67.67,0,0,0,.2-.53.61.61,0,0,0-.2-.5,2.56,2.56,0,0,0-1-.4l-1.05-.25a3.55,3.55,0,0,1-2-1,2.7,2.7,0,0,1-.73-1.93,4,4,0,0,1,1.05-2.72,5.62,5.62,0,0,1,4-1.35,9.37,9.37,0,0,1,3.58.72L1028,512a5.56,5.56,0,0,0-2.1-.55,1.71,1.71,0,0,0-.93.23.6.6,0,0,0-.35.55.65.65,0,0,0,.48.62c.37.15.7.15,1.32.33l.73.2a4.89,4.89,0,0,1,1.65.87,3.17,3.17,0,0,1,.85,2.23,3.73,3.73,0,0,1-1.13,2.77,5.81,5.81,0,0,1-4.12,1.4,8.28,8.28,0,0,1-4.5-1.3Z"/><path d="M1035.66,526h-4v-16.9h4v1.23a4.15,4.15,0,0,1,3.42-1.6,5.56,5.56,0,0,1,4,1.62,6.35,6.35,0,0,1-.1,8.75,5.39,5.39,0,0,1-3.83,1.55,4.75,4.75,0,0,1-3.47-1.45Zm.65-13.12a2.72,2.72,0,0,0-.78,1.85,2.66,2.66,0,0,0,.78,1.77,2.52,2.52,0,0,0,1.8.75,2.38,2.38,0,0,0,1.77-.75,2.61,2.61,0,0,0,.78-1.77,2.72,2.72,0,0,0-.78-1.85,2.38,2.38,0,0,0-1.77-.75A2.52,2.52,0,0,0,1036.31,512.83Z"/><path d="M1051.06,509.05v6.25a2.14,2.14,0,0,0,.6,1.63,2.05,2.05,0,0,0,1.4.42,1.87,1.87,0,0,0,1.42-.47,2.09,2.09,0,0,0,.58-1.58v-6.25h4v7a3.85,3.85,0,0,1-1.08,3,6.38,6.38,0,0,1-4.82,1.57c-1.68,0-3.73-.18-5.05-1.6a4,4,0,0,1-1-3v-7Z"/><path d="M1061.81,509.05h4v1.4a4.21,4.21,0,0,1,3.55-1.65,4.55,4.55,0,0,1,3.3,1.2,3.86,3.86,0,0,1,1,3.13v7.09h-4v-5.64a3.25,3.25,0,0,0-.5-2.18,1.69,1.69,0,0,0-1.28-.47,2.17,2.17,0,0,0-1.47.52,2.58,2.58,0,0,0-.65,1.78v6h-4Z"/><path d="M1077.16,516.53a5.52,5.52,0,0,0,1.6.82,5,5,0,0,0,1.55.28,1.72,1.72,0,0,0,1-.3.64.64,0,0,0,.2-.53.58.58,0,0,0-.2-.5,2.56,2.56,0,0,0-1-.4l-1-.25a3.55,3.55,0,0,1-2-1,2.74,2.74,0,0,1-.72-1.93,4,4,0,0,1,1-2.72,5.62,5.62,0,0,1,4-1.35,9.31,9.31,0,0,1,3.57.72l-1.35,2.55a5.51,5.51,0,0,0-2.1-.55,1.67,1.67,0,0,0-.92.23.59.59,0,0,0-.35.55.64.64,0,0,0,.47.62c.38.15.7.15,1.33.33l.72.2a4.71,4.71,0,0,1,1.65.87,3.17,3.17,0,0,1,.85,2.23,3.73,3.73,0,0,1-1.12,2.77,5.81,5.81,0,0,1-4.13,1.4,8.3,8.3,0,0,1-4.5-1.3Z"/><path d="M1098.93,504.8l-.25-2.8h2.75l-.25,2.8,2.6-1.1.85,2.58-2.75.65,1.85,2.12-2.2,1.6-1.47-2.37-1.45,2.37-2.2-1.6,1.85-2.1-2.75-.65.85-2.6Z"/><polygon points="372.97 340.31 473.96 340.31 473.96 354.87 504.9 323.94 473.96 293 473.96 307.56 372.97 307.56 372.97 340.31" style="fill:none;stroke:#3a5c84;stroke-miterlimit:10;stroke-width:5px"/><polygon points="504.9 420.56 403.9 420.56 403.9 406 372.97 436.94 403.9 467.87 403.9 453.31 504.9 453.31 504.9 420.56" style="fill:none;stroke:#3a5c84;stroke-miterlimit:10;stroke-width:5px"/><path d="M368.91,243.23h-2.38v-3.68h6.7v16.67h-4.32Z"/><path d="M378.48,255.92a2.6,2.6,0,0,1,1.83-4.42,2.63,2.63,0,0,1,1.85.8,2.6,2.6,0,0,1,0,3.62,2.53,2.53,0,0,1-1.82.78A2.55,2.55,0,0,1,378.48,255.92Z"/><path d="M396,239.55v16.67h-4.32V239.55Z"/><path d="M399.11,245.05h4v1.4a4.21,4.21,0,0,1,3.55-1.65A4.55,4.55,0,0,1,410,246a3.86,3.86,0,0,1,1.05,3.13v7.09h-4v-5.64a3.25,3.25,0,0,0-.5-2.18,1.69,1.69,0,0,0-1.28-.47,2.17,2.17,0,0,0-1.47.52,2.58,2.58,0,0,0-.65,1.78v6h-4Z"/><path d="M418.16,248.33v7.89h-4v-7.89h-1.28v-3.28h1.28v-3.67h4v3.67h2.27v3.28Z"/><path d="M433.78,251.38h-8.32a2.78,2.78,0,0,0,.7,1.87,2.25,2.25,0,0,0,1.65.55,3.07,3.07,0,0,0,1.3-.3,1.9,1.9,0,0,0,.7-.75h3.82a4.91,4.91,0,0,1-1.35,2.3,6.06,6.06,0,0,1-4.55,1.55,6.35,6.35,0,0,1-4.62-1.7,5.84,5.84,0,0,1-1.65-4.22,6,6,0,0,1,1.67-4.33,6.31,6.31,0,0,1,4.58-1.62,6.12,6.12,0,0,1,4.3,1.52,6.27,6.27,0,0,1,1.77,4.7Zm-3.67-2.3a2.66,2.66,0,0,0-.65-1.2,2.31,2.31,0,0,0-1.65-.6,2.14,2.14,0,0,0-1.63.6,2.36,2.36,0,0,0-.6,1.2Z"/><path d="M436.08,245.05h4v1.83a3.61,3.61,0,0,1,1.58-1.55,4.28,4.28,0,0,1,2.07-.45l.8.05v3.77a3.52,3.52,0,0,0-1.72-.4,2.66,2.66,0,0,0-1.83.6,3.38,3.38,0,0,0-.9,2.55v4.77h-4Z"/><path d="M457.06,254.75a7.65,7.65,0,0,1-10,0,5.77,5.77,0,0,1,0-8.22,7.65,7.65,0,0,1,10,0,5.77,5.77,0,0,1,0,8.22Zm-6.78-5.95a2.49,2.49,0,0,0,0,3.6,2.51,2.51,0,0,0,3.58,0,2.44,2.44,0,0,0,.77-1.77,2.72,2.72,0,0,0-.77-1.83,2.59,2.59,0,0,0-3.58,0Z"/><path d="M473.66,245.05v10.47a6,6,0,0,1-1.53,4.63,6.65,6.65,0,0,1-4.92,1.8,6.87,6.87,0,0,1-5.23-2,4,4,0,0,1-1.22-2.32h4.45a1.71,1.71,0,0,0,1.87,1.15,2.45,2.45,0,0,0,1.78-.63,2.69,2.69,0,0,0,.8-2.07V255a4.24,4.24,0,0,1-3.35,1.48,5.6,5.6,0,0,1-4.13-1.57,5.91,5.91,0,0,1-1.55-4.08,6.44,6.44,0,0,1,1.65-4.37,5.61,5.61,0,0,1,4.05-1.7,4.39,4.39,0,0,1,3.33,1.47v-1.15Zm-8.15,3.75a2.5,2.5,0,0,0,0,3.63,2.54,2.54,0,0,0,1.8.72,2.56,2.56,0,0,0,2.55-2.55,2.88,2.88,0,0,0-.8-1.82,2.54,2.54,0,0,0-1.78-.73A2.39,2.39,0,0,0,465.51,248.8Z"/><path d="M485.06,245.05h4v11.17h-4V255a4.2,4.2,0,0,1-3.48,1.6,5.35,5.35,0,0,1-4-1.77,5.64,5.64,0,0,1-1.6-4.1,6.19,6.19,0,0,1,1.72-4.48,5.76,5.76,0,0,1,4-1.57,4.41,4.41,0,0,1,3.35,1.45Zm-4.2,3.75a2.63,2.63,0,0,0-.8,1.83,2.55,2.55,0,0,0,.77,1.82,2.83,2.83,0,0,0,1.8.75,2.56,2.56,0,0,0,1.8-.77,2.43,2.43,0,0,0,.75-1.8,2.49,2.49,0,0,0-.77-1.83,2.57,2.57,0,0,0-1.8-.72A2.54,2.54,0,0,0,480.86,248.8Z"/><path d="M491.81,245.05h4v1.83a3.6,3.6,0,0,1,1.57-1.55,4.32,4.32,0,0,1,2.08-.45l.8.05v3.77a3.54,3.54,0,0,0-1.73-.4,2.63,2.63,0,0,0-1.82.6,3.38,3.38,0,0,0-.9,2.55v4.77h-4Z"/><path d="M513.88,251.38h-8.32a2.78,2.78,0,0,0,.7,1.87,2.25,2.25,0,0,0,1.65.55,3.07,3.07,0,0,0,1.3-.3,1.9,1.9,0,0,0,.7-.75h3.82a4.91,4.91,0,0,1-1.35,2.3,6.06,6.06,0,0,1-4.55,1.55,6.35,6.35,0,0,1-4.62-1.7,5.84,5.84,0,0,1-1.65-4.22,6,6,0,0,1,1.67-4.33,6.31,6.31,0,0,1,4.58-1.62,6.12,6.12,0,0,1,4.3,1.52,6.27,6.27,0,0,1,1.77,4.7Zm-3.67-2.3a2.66,2.66,0,0,0-.65-1.2,2.31,2.31,0,0,0-1.65-.6,2.14,2.14,0,0,0-1.63.6,2.36,2.36,0,0,0-.6,1.2Z"/><path d="M389.73,514.22H376.36l4.22-4.42a27.67,27.67,0,0,0,3.43-4.22,4.71,4.71,0,0,0,.9-2.6,2.5,2.5,0,0,0-.5-1.6,1.63,1.63,0,0,0-1.23-.5,1.8,1.8,0,0,0-1.45.67,4.22,4.22,0,0,0-.6,2.05h-4.47a6.58,6.58,0,0,1,1.85-4.62,7.18,7.18,0,0,1,9.42-.08,5.56,5.56,0,0,1,1.63,4.1,6.49,6.49,0,0,1-2.48,4.95l-2.8,2.6h5.45Z"/><path d="M392.68,513.92a2.6,2.6,0,0,1,1.83-4.42,2.63,2.63,0,0,1,1.85.8,2.6,2.6,0,0,1,0,3.62,2.53,2.53,0,0,1-1.82.78A2.55,2.55,0,0,1,392.68,513.92Z"/><path d="M412.61,497.55a5.36,5.36,0,0,1,4.07,1.48,5.48,5.48,0,0,1,1.43,3.75,4.79,4.79,0,0,1-1.33,3.47,4.61,4.61,0,0,1-2.3,1.15l5.23,6.82h-5.38l-4.15-6.39v6.39h-4.32V497.55ZM410.18,505H411a3.26,3.26,0,0,0,2.1-.68,2.08,2.08,0,0,0,.55-1.4,2,2,0,0,0-.58-1.4,2.92,2.92,0,0,0-2.07-.65h-.83Z"/><path d="M429.81,503.05h4v11.17h-4V513a4.2,4.2,0,0,1-3.48,1.6,5.35,5.35,0,0,1-4-1.77,5.64,5.64,0,0,1-1.6-4.1,6.19,6.19,0,0,1,1.72-4.48,5.76,5.76,0,0,1,4-1.57,4.41,4.41,0,0,1,3.35,1.45Zm2.2-5.75a4,4,0,0,1-1.1,2.73,5.28,5.28,0,0,1-6.5,0,3.92,3.92,0,0,1-1.1-2.73h2.57a1.76,1.76,0,0,0,.5,1,2.07,2.07,0,0,0,1.28.45,2,2,0,0,0,1.27-.45,1.76,1.76,0,0,0,.5-1Zm-6.4,9.5a2.63,2.63,0,0,0-.8,1.83,2.55,2.55,0,0,0,.77,1.82,2.83,2.83,0,0,0,1.8.75,2.56,2.56,0,0,0,1.8-.77,2.43,2.43,0,0,0,.75-1.8,2.49,2.49,0,0,0-.77-1.83,2.57,2.57,0,0,0-1.8-.72A2.54,2.54,0,0,0,425.61,506.8Z"/><path d="M437.28,510.53a5.64,5.64,0,0,0,1.6.82,5.09,5.09,0,0,0,1.55.28,1.75,1.75,0,0,0,1-.3.67.67,0,0,0,.2-.53.61.61,0,0,0-.2-.5,2.56,2.56,0,0,0-1-.4l-1.05-.25a3.55,3.55,0,0,1-1.95-1,2.7,2.7,0,0,1-.73-1.93,4,4,0,0,1,1.05-2.72,5.62,5.62,0,0,1,4-1.35,9.37,9.37,0,0,1,3.58.72L444,506a5.56,5.56,0,0,0-2.1-.55,1.71,1.71,0,0,0-.93.23.6.6,0,0,0-.35.55.65.65,0,0,0,.48.62c.37.15.7.15,1.32.33l.73.2a4.89,4.89,0,0,1,1.65.87,3.17,3.17,0,0,1,.85,2.23,3.73,3.73,0,0,1-1.13,2.77,5.81,5.81,0,0,1-4.12,1.4,8.28,8.28,0,0,1-4.5-1.3Z"/><path d="M451.66,520h-4v-16.9h4v1.23a4.15,4.15,0,0,1,3.42-1.6,5.56,5.56,0,0,1,4,1.62,6.35,6.35,0,0,1-.1,8.75,5.39,5.39,0,0,1-3.83,1.55,4.75,4.75,0,0,1-3.47-1.45Zm.65-13.12a2.72,2.72,0,0,0-.78,1.85,2.66,2.66,0,0,0,.78,1.77,2.52,2.52,0,0,0,1.8.75,2.38,2.38,0,0,0,1.77-.75,2.61,2.61,0,0,0,.78-1.77,2.72,2.72,0,0,0-.78-1.85,2.38,2.38,0,0,0-1.77-.75A2.52,2.52,0,0,0,452.31,506.83Z"/><path d="M467.06,503.05v6.25a2.14,2.14,0,0,0,.6,1.63,2.05,2.05,0,0,0,1.4.42,1.87,1.87,0,0,0,1.42-.47,2.09,2.09,0,0,0,.58-1.58v-6.25h4v7a3.85,3.85,0,0,1-1.08,3,6.38,6.38,0,0,1-4.82,1.57c-1.68,0-3.73-.18-5.05-1.6a4,4,0,0,1-1.05-3v-7Z"/><path d="M477.81,503.05h4v1.4a4.21,4.21,0,0,1,3.55-1.65,4.55,4.55,0,0,1,3.3,1.2,3.86,3.86,0,0,1,1,3.13v7.09h-4v-5.64a3.25,3.25,0,0,0-.5-2.18,1.69,1.69,0,0,0-1.28-.47,2.17,2.17,0,0,0-1.47.52,2.58,2.58,0,0,0-.65,1.78v6h-4Z"/><path d="M493.16,510.53a5.52,5.52,0,0,0,1.6.82,5,5,0,0,0,1.55.28,1.72,1.72,0,0,0,1-.3.64.64,0,0,0,.2-.53.58.58,0,0,0-.2-.5,2.56,2.56,0,0,0-1.05-.4l-1-.25a3.55,3.55,0,0,1-2-1,2.74,2.74,0,0,1-.72-1.93,4,4,0,0,1,1.05-2.72,5.62,5.62,0,0,1,4-1.35,9.31,9.31,0,0,1,3.57.72L499.83,506a5.51,5.51,0,0,0-2.1-.55,1.67,1.67,0,0,0-.92.23.59.59,0,0,0-.35.55.64.64,0,0,0,.47.62c.38.15.7.15,1.33.33l.72.2a4.71,4.71,0,0,1,1.65.87,3.17,3.17,0,0,1,.85,2.23,3.73,3.73,0,0,1-1.12,2.77,5.81,5.81,0,0,1-4.13,1.4,8.3,8.3,0,0,1-4.5-1.3Z"/><path d="M642,655.8l-.25-2.8h2.75l-.25,2.8,2.6-1.1.85,2.58-2.75.65,1.85,2.12-2.2,1.6-1.48-2.37-1.45,2.37-2.2-1.6,1.85-2.1-2.75-.65.85-2.6Z"/><path d="M665.2,671.22h-4V670a4.11,4.11,0,0,1-3.38,1.6,5.36,5.36,0,0,1-3.92-1.55,6.34,6.34,0,0,1,0-8.87,5.72,5.72,0,0,1,4-1.5,4.41,4.41,0,0,1,3.33,1.45V653h4Zm-4.73-3.69a2.68,2.68,0,0,0,.85-1.9,2.9,2.9,0,0,0-.75-1.8,2.42,2.42,0,0,0-1.82-.75,2.46,2.46,0,0,0-1.78.72,2.74,2.74,0,0,0-.77,1.9,2.52,2.52,0,0,0,.77,1.75,2.48,2.48,0,0,0,1.78.75A2.73,2.73,0,0,0,660.47,667.53Z"/><path d="M676.6,660.05h4v11.17h-4V670a4.2,4.2,0,0,1-3.48,1.6,5.35,5.35,0,0,1-4-1.77,5.64,5.64,0,0,1-1.6-4.1,6.19,6.19,0,0,1,1.72-4.48,5.76,5.76,0,0,1,4-1.57,4.41,4.41,0,0,1,3.35,1.45Zm-4.2,3.75a2.63,2.63,0,0,0-.8,1.83,2.55,2.55,0,0,0,.77,1.82,2.83,2.83,0,0,0,1.8.75,2.56,2.56,0,0,0,1.8-.77,2.43,2.43,0,0,0,.75-1.8,2.49,2.49,0,0,0-.77-1.83,2.57,2.57,0,0,0-1.8-.72A2.54,2.54,0,0,0,672.4,663.8Z"/><path d="M691.8,671a5.9,5.9,0,0,1-2.78.63,6.2,6.2,0,0,1-4.4-1.7,5.82,5.82,0,0,1-1.72-4.17,6.08,6.08,0,0,1,1.8-4.33,6.45,6.45,0,0,1,4.5-1.7,5.75,5.75,0,0,1,2.6.63v3.35a3.56,3.56,0,0,0-2.08-.73,2.62,2.62,0,0,0-2,.78,2.7,2.7,0,0,0-.77,1.92,2.86,2.86,0,0,0,.7,1.88,2.7,2.7,0,0,0,2,.85,3.07,3.07,0,0,0,2-.75Z"/><path d="M702.72,660.05h4v11.17h-4V670a4.17,4.17,0,0,1-3.47,1.6,5.37,5.37,0,0,1-4-1.77,5.68,5.68,0,0,1-1.6-4.1,6.2,6.2,0,0,1,1.73-4.48,5.74,5.74,0,0,1,4-1.57,4.4,4.4,0,0,1,3.35,1.45Zm2.2-5.75a3.92,3.92,0,0,1-1.1,2.73,5.28,5.28,0,0,1-6.5,0,4,4,0,0,1-1.1-2.73h2.58a1.76,1.76,0,0,0,.5,1,2,2,0,0,0,1.27.45,2.07,2.07,0,0,0,1.28-.45,1.76,1.76,0,0,0,.5-1Zm-6.4,9.5a2.63,2.63,0,0,0-.8,1.83,2.56,2.56,0,0,0,.78,1.82,2.79,2.79,0,0,0,1.8.75,2.56,2.56,0,0,0,1.8-.77,2.43,2.43,0,0,0,.75-1.8,2.46,2.46,0,0,0-.78-1.83,2.55,2.55,0,0,0-3.55,0Z"/><path d="M715.3,660.05h4v1.4a4.21,4.21,0,0,1,3.55-1.65,4.55,4.55,0,0,1,3.3,1.2,3.86,3.86,0,0,1,1.05,3.13v7.09h-4v-5.64a3.25,3.25,0,0,0-.5-2.18,1.69,1.69,0,0,0-1.28-.47,2.17,2.17,0,0,0-1.47.52,2.58,2.58,0,0,0-.65,1.78v6h-4Z"/><path d="M733.92,660.05v6.25a2.18,2.18,0,0,0,.6,1.63,2.07,2.07,0,0,0,1.4.42,1.9,1.9,0,0,0,1.43-.47,2.08,2.08,0,0,0,.57-1.58v-6.25h4v7a3.84,3.84,0,0,1-1.07,3A6.41,6.41,0,0,1,736,671.6c-1.67,0-3.72-.18-5-1.6a4,4,0,0,1-1.05-3v-7Z"/><path d="M762.35,666.38H754a2.83,2.83,0,0,0,.7,1.87,2.25,2.25,0,0,0,1.65.55,3.07,3.07,0,0,0,1.3-.3,1.83,1.83,0,0,0,.7-.75h3.83a5.09,5.09,0,0,1-1.35,2.3,6.09,6.09,0,0,1-4.55,1.55,6.37,6.37,0,0,1-4.63-1.7,5.88,5.88,0,0,1-1.65-4.22,6,6,0,0,1,1.68-4.33,6.27,6.27,0,0,1,4.57-1.62,6.11,6.11,0,0,1,4.3,1.52,6.24,6.24,0,0,1,1.78,4.7Zm-3.68-2.3a2.66,2.66,0,0,0-.65-1.2,2.3,2.3,0,0,0-1.65-.6,2.12,2.12,0,0,0-1.62.6,2.21,2.21,0,0,0-.6,1.2Z"/><path d="M768.6,665.15l-4.53-5.1h5.2l1.93,2.3,2-2.3h5.17l-4.62,5.1,5.6,6.07H774l-2.85-3.32-2.85,3.32H763Z"/><path d="M782.7,653.15a2.25,2.25,0,1,1-2.25,2.25A2.24,2.24,0,0,1,782.7,653.15Zm2,6.9v11.17h-4V660.05Z"/><path d="M788.15,667.53a5.52,5.52,0,0,0,1.6.82,5,5,0,0,0,1.55.28,1.72,1.72,0,0,0,1-.3.64.64,0,0,0,.2-.53.58.58,0,0,0-.2-.5,2.56,2.56,0,0,0-1.05-.4l-1-.25a3.55,3.55,0,0,1-2-1,2.74,2.74,0,0,1-.72-1.93A4,4,0,0,1,788.6,661a5.62,5.62,0,0,1,4-1.35,9.31,9.31,0,0,1,3.57.72L794.82,663a5.51,5.51,0,0,0-2.1-.55,1.67,1.67,0,0,0-.92.23.59.59,0,0,0-.35.55.64.64,0,0,0,.47.62c.38.15.7.15,1.33.33l.72.2a4.71,4.71,0,0,1,1.65.87,3.17,3.17,0,0,1,.85,2.23,3.73,3.73,0,0,1-1.12,2.77,5.81,5.81,0,0,1-4.13,1.4,8.3,8.3,0,0,1-4.5-1.3Z"/><path d="M803,663.33v7.89h-4v-7.89h-1.28v-3.28H799v-3.67h4v3.67h2.27v3.28Z"/><path d="M815.37,660.05h4v11.17h-4V670a4.17,4.17,0,0,1-3.47,1.6,5.37,5.37,0,0,1-4-1.77,5.68,5.68,0,0,1-1.6-4.1,6.2,6.2,0,0,1,1.73-4.48,5.74,5.74,0,0,1,4-1.57,4.4,4.4,0,0,1,3.35,1.45Zm2.2-5.75a4,4,0,0,1-1.1,2.73,5.28,5.28,0,0,1-6.5,0,4,4,0,0,1-1.1-2.73h2.58a1.76,1.76,0,0,0,.5,1,2,2,0,0,0,1.27.45,2.07,2.07,0,0,0,1.28-.45,1.76,1.76,0,0,0,.5-1Zm-6.4,9.5a2.63,2.63,0,0,0-.8,1.83,2.56,2.56,0,0,0,.78,1.82,2.79,2.79,0,0,0,1.8.75,2.56,2.56,0,0,0,1.8-.77,2.43,2.43,0,0,0,.75-1.8,2.46,2.46,0,0,0-.78-1.83,2.55,2.55,0,0,0-3.55,0Z"/><path d="M828,660.05h4v1.83a3.6,3.6,0,0,1,1.57-1.55,4.32,4.32,0,0,1,2.08-.45l.8,0v3.77a3.57,3.57,0,0,0-1.73-.4,2.63,2.63,0,0,0-1.82.6,3.38,3.38,0,0,0-.9,2.55v4.77h-4Z"/><path d="M846.82,660.05h4v11.17h-4V670a4.17,4.17,0,0,1-3.47,1.6,5.37,5.37,0,0,1-4-1.77,5.68,5.68,0,0,1-1.6-4.1,6.2,6.2,0,0,1,1.73-4.48,5.74,5.74,0,0,1,4-1.57,4.4,4.4,0,0,1,3.35,1.45Zm2.2-5.75a4,4,0,0,1-1.1,2.73,5.28,5.28,0,0,1-6.5,0,4,4,0,0,1-1.1-2.73h2.58a1.76,1.76,0,0,0,.5,1,2,2,0,0,0,1.27.45,2.07,2.07,0,0,0,1.28-.45,1.7,1.7,0,0,0,.49-1Zm-6.4,9.5a2.63,2.63,0,0,0-.8,1.83,2.56,2.56,0,0,0,.78,1.82,2.79,2.79,0,0,0,1.8.75,2.56,2.56,0,0,0,1.8-.77,2.56,2.56,0,0,0,0-3.63,2.55,2.55,0,0,0-3.55,0Z"/><path d="M854.3,667.53a5.52,5.52,0,0,0,1.6.82,5,5,0,0,0,1.55.28,1.72,1.72,0,0,0,1-.3.64.64,0,0,0,.2-.53.58.58,0,0,0-.2-.5,2.56,2.56,0,0,0-1.05-.4l-1-.25a3.55,3.55,0,0,1-2-1,2.74,2.74,0,0,1-.72-1.93,4,4,0,0,1,1-2.72,5.62,5.62,0,0,1,4-1.35,9.31,9.31,0,0,1,3.57.72L861,663a5.51,5.51,0,0,0-2.1-.55,1.67,1.67,0,0,0-.92.23.59.59,0,0,0-.35.55.64.64,0,0,0,.47.62c.38.15.7.15,1.33.33l.72.2a4.8,4.8,0,0,1,1.65.87,3.17,3.17,0,0,1,.85,2.23,3.77,3.77,0,0,1-1.12,2.77,5.81,5.81,0,0,1-4.13,1.4,8.3,8.3,0,0,1-4.5-1.3Z"/><path d="M868.67,677h-4v-16.9h4v1.23a4.17,4.17,0,0,1,3.42-1.6,5.56,5.56,0,0,1,4,1.62,6.35,6.35,0,0,1-.1,8.75,5.39,5.39,0,0,1-3.83,1.55,4.75,4.75,0,0,1-3.47-1.45Zm.65-13.12a2.51,2.51,0,0,0,0,3.62,2.55,2.55,0,0,0,1.8.75,2.38,2.38,0,0,0,1.77-.75,2.61,2.61,0,0,0,.78-1.77,2.72,2.72,0,0,0-.78-1.85,2.38,2.38,0,0,0-1.77-.75A2.55,2.55,0,0,0,869.32,663.83Z"/><path d="M884.07,660.05v6.25a2.18,2.18,0,0,0,.6,1.63,2.07,2.07,0,0,0,1.4.42,1.87,1.87,0,0,0,1.42-.47,2.09,2.09,0,0,0,.58-1.58v-6.25h4v7a3.85,3.85,0,0,1-1.08,3,6.38,6.38,0,0,1-4.82,1.57c-1.67,0-3.72-.18-5-1.6a4,4,0,0,1-1-3v-7Z"/><path d="M894.82,660.05h4v1.4a4.22,4.22,0,0,1,3.55-1.65,4.55,4.55,0,0,1,3.3,1.2,3.86,3.86,0,0,1,1.05,3.13v7.09h-4v-5.64a3.25,3.25,0,0,0-.5-2.18,1.69,1.69,0,0,0-1.28-.47,2.19,2.19,0,0,0-1.47.52,2.58,2.58,0,0,0-.65,1.78v6h-4Z"/><path d="M910.17,667.53a5.64,5.64,0,0,0,1.6.82,5.09,5.09,0,0,0,1.55.28,1.75,1.75,0,0,0,1-.3.67.67,0,0,0,.2-.53.61.61,0,0,0-.2-.5,2.56,2.56,0,0,0-1.05-.4l-1-.25a3.55,3.55,0,0,1-2-1,2.7,2.7,0,0,1-.73-1.93,4,4,0,0,1,1-2.72,5.62,5.62,0,0,1,4-1.35,9.31,9.31,0,0,1,3.57.72L916.84,663a5.51,5.51,0,0,0-2.09-.55,1.71,1.71,0,0,0-.93.23.6.6,0,0,0-.35.55.65.65,0,0,0,.48.62c.37.15.7.15,1.32.33l.72.2a4.71,4.71,0,0,1,1.65.87,3.17,3.17,0,0,1,.85,2.23,3.73,3.73,0,0,1-1.12,2.77,5.81,5.81,0,0,1-4.12,1.4,8.28,8.28,0,0,1-4.5-1.3Z"/><path d="M924.54,660.05v6.25a2.15,2.15,0,0,0,.61,1.63,2,2,0,0,0,1.39.42,1.9,1.9,0,0,0,1.43-.47,2.08,2.08,0,0,0,.57-1.58v-6.25h4v7a3.84,3.84,0,0,1-1.07,3,6.41,6.41,0,0,1-4.83,1.57c-1.67,0-3.72-.18-5-1.6a4,4,0,0,1-1.05-3v-7Z"/><path d="M939.29,653v18.22h-4V653Z"/><path d="M944.92,656.3l4.9-3.67,4.95,3.67L953,658.23l-3.17-2.45-3.2,2.45Zm6.87,3.75v11.17h-4V660.05Z"/><path d="M954.52,660.05h4v1.4a4.21,4.21,0,0,1,3.55-1.65,4.55,4.55,0,0,1,3.3,1.2,3.86,3.86,0,0,1,1,3.13v7.09h-4v-5.64a3.25,3.25,0,0,0-.5-2.18,1.69,1.69,0,0,0-1.28-.47,2.17,2.17,0,0,0-1.47.52,2.58,2.58,0,0,0-.65,1.78v6h-4Z"/><path d="M979,653v8.13a4.39,4.39,0,0,1,3.32-1.45,5.71,5.71,0,0,1,4,1.5,6.05,6.05,0,0,1,1.83,4.42,6.18,6.18,0,0,1-1.8,4.45,5.38,5.38,0,0,1-3.93,1.55A4.09,4.09,0,0,1,979,670v1.22h-4V653Zm4.22,14.45a2.49,2.49,0,0,0,.78-1.75,2.75,2.75,0,0,0-.78-1.9,2.57,2.57,0,0,0-3.6,0,2.9,2.9,0,0,0-.75,1.8,2.72,2.72,0,0,0,.85,1.9,2.78,2.78,0,0,0,1.73.67A2.48,2.48,0,0,0,983.19,667.45Z"/><path d="M999,660.05h4v11.17h-4V670a4.2,4.2,0,0,1-3.48,1.6,5.35,5.35,0,0,1-4-1.77,5.68,5.68,0,0,1-1.6-4.1,6.2,6.2,0,0,1,1.73-4.48,5.72,5.72,0,0,1,4-1.57,4.41,4.41,0,0,1,3.35,1.45Zm-4.2,3.75a2.63,2.63,0,0,0-.8,1.83,2.55,2.55,0,0,0,.77,1.82,2.83,2.83,0,0,0,1.8.75,2.56,2.56,0,0,0,1.8-.77,2.43,2.43,0,0,0,.75-1.8,2.49,2.49,0,0,0-.77-1.83,2.57,2.57,0,0,0-1.8-.72A2.54,2.54,0,0,0,994.82,663.8Z"/><path d="M1011.59,668h4.68v3.27H1004.9l5.27-7.89h-4.5v-3.28h11.15Z"/><path d="M1027.34,660.05h4v11.17h-4V670a4.17,4.17,0,0,1-3.47,1.6,5.37,5.37,0,0,1-4-1.77,5.67,5.67,0,0,1-1.59-4.1,6.19,6.19,0,0,1,1.72-4.48,5.74,5.74,0,0,1,4-1.57,4.4,4.4,0,0,1,3.35,1.45Zm-4.2,3.75a2.63,2.63,0,0,0-.8,1.83,2.56,2.56,0,0,0,.78,1.82,2.79,2.79,0,0,0,1.8.75,2.56,2.56,0,0,0,1.8-.77,2.43,2.43,0,0,0,.75-1.8,2.46,2.46,0,0,0-.78-1.83,2.55,2.55,0,0,0-3.55,0Z"/><path d="M1052.57,671.22h-4V670a4.11,4.11,0,0,1-3.38,1.6,5.36,5.36,0,0,1-3.92-1.55,6.34,6.34,0,0,1,0-8.87,5.72,5.72,0,0,1,4-1.5,4.41,4.41,0,0,1,3.33,1.45V653h4Zm-4.73-3.69a2.68,2.68,0,0,0,.85-1.9,2.9,2.9,0,0,0-.75-1.8,2.42,2.42,0,0,0-1.82-.75,2.46,2.46,0,0,0-1.78.72,2.74,2.74,0,0,0-.77,1.9,2.52,2.52,0,0,0,.77,1.75,2.48,2.48,0,0,0,1.78.75A2.73,2.73,0,0,0,1047.84,667.53Z"/><path d="M1067.17,666.38h-8.33a2.83,2.83,0,0,0,.7,1.87,2.25,2.25,0,0,0,1.65.55,3.07,3.07,0,0,0,1.3-.3,1.83,1.83,0,0,0,.7-.75H1067a5.09,5.09,0,0,1-1.35,2.3,6.09,6.09,0,0,1-4.55,1.55,6.37,6.37,0,0,1-4.63-1.7,5.88,5.88,0,0,1-1.65-4.22,6,6,0,0,1,1.68-4.33,6.27,6.27,0,0,1,4.57-1.62,6.11,6.11,0,0,1,4.3,1.52,6.24,6.24,0,0,1,1.78,4.7Zm-3.68-2.3a2.66,2.66,0,0,0-.65-1.2,2.3,2.3,0,0,0-1.65-.6,2.12,2.12,0,0,0-1.62.6,2.21,2.21,0,0,0-.6,1.2Z"/><path d="M1087.94,671.22h-4V670a4.09,4.09,0,0,1-3.37,1.6,5.38,5.38,0,0,1-3.93-1.55,6.18,6.18,0,0,1-1.8-4.45,6.05,6.05,0,0,1,1.83-4.42,5.71,5.71,0,0,1,3.95-1.5,4.39,4.39,0,0,1,3.32,1.45V653h4Zm-4.72-3.69a2.72,2.72,0,0,0,.85-1.9,2.9,2.9,0,0,0-.75-1.8,2.57,2.57,0,0,0-3.6,0,2.75,2.75,0,0,0-.78,1.9,2.62,2.62,0,0,0,2.55,2.5A2.78,2.78,0,0,0,1083.22,667.53Z"/><path d="M1099.34,660.05h4v11.17h-4V670a4.17,4.17,0,0,1-3.47,1.6,5.37,5.37,0,0,1-4-1.77,5.68,5.68,0,0,1-1.6-4.1,6.2,6.2,0,0,1,1.73-4.48,5.74,5.74,0,0,1,4-1.57,4.4,4.4,0,0,1,3.35,1.45Zm-4.2,3.75a2.63,2.63,0,0,0-.8,1.83,2.56,2.56,0,0,0,.78,1.82,2.79,2.79,0,0,0,1.8.75,2.56,2.56,0,0,0,1.8-.77,2.43,2.43,0,0,0,.75-1.8,2.46,2.46,0,0,0-.78-1.83,2.55,2.55,0,0,0-3.55,0Z"/><path d="M1110.52,663.33v7.89h-4v-7.89h-1.28v-3.28h1.28v-3.67h4v3.67h2.27v3.28Z"/><path d="M1126.14,666.38h-8.32a2.78,2.78,0,0,0,.7,1.87,2.25,2.25,0,0,0,1.65.55,3.07,3.07,0,0,0,1.3-.3,1.9,1.9,0,0,0,.7-.75H1126a4.91,4.91,0,0,1-1.35,2.3,6.06,6.06,0,0,1-4.55,1.55,6.35,6.35,0,0,1-4.62-1.7,5.84,5.84,0,0,1-1.65-4.22,6,6,0,0,1,1.67-4.33,6.31,6.31,0,0,1,4.58-1.62,6.12,6.12,0,0,1,4.3,1.52,6.27,6.27,0,0,1,1.77,4.7Zm-3.67-2.3a2.66,2.66,0,0,0-.65-1.2,2.31,2.31,0,0,0-1.65-.6,2.14,2.14,0,0,0-1.63.6,2.36,2.36,0,0,0-.6,1.2Z"/><path d="M1138.27,653v18.22h-4V653Z"/><path d="M1152.24,669.75a7.64,7.64,0,0,1-10,0,5.75,5.75,0,0,1,0-8.22,7.64,7.64,0,0,1,10,0,5.75,5.75,0,0,1,0,8.22Zm-6.77-6a2.47,2.47,0,0,0,0,3.6,2.5,2.5,0,0,0,3.57,0,2.45,2.45,0,0,0,.78-1.77,2.73,2.73,0,0,0-.78-1.83,2.57,2.57,0,0,0-3.57,0Z"/><path d="M1164.72,671a5.9,5.9,0,0,1-2.78.63,6.2,6.2,0,0,1-4.4-1.7,5.82,5.82,0,0,1-1.72-4.17,6.08,6.08,0,0,1,1.8-4.33,6.45,6.45,0,0,1,4.5-1.7,5.75,5.75,0,0,1,2.6.63v3.35a3.56,3.56,0,0,0-2.08-.73,2.62,2.62,0,0,0-2,.78,2.7,2.7,0,0,0-.77,1.92,2.86,2.86,0,0,0,.7,1.88,2.7,2.7,0,0,0,2.05.85,3.07,3.07,0,0,0,2-.75Z"/><path d="M1175.64,660.05h4v11.17h-4V670a4.17,4.17,0,0,1-3.47,1.6,5.37,5.37,0,0,1-4-1.77,5.68,5.68,0,0,1-1.6-4.1,6.2,6.2,0,0,1,1.73-4.48,5.74,5.74,0,0,1,4-1.57,4.4,4.4,0,0,1,3.35,1.45Zm-4.2,3.75a2.63,2.63,0,0,0-.8,1.83,2.56,2.56,0,0,0,.78,1.82,2.79,2.79,0,0,0,1.8.75,2.56,2.56,0,0,0,1.8-.77,2.43,2.43,0,0,0,.75-1.8,2.46,2.46,0,0,0-.78-1.83,2.55,2.55,0,0,0-3.55,0Z"/><path d="M1186.39,653v18.22h-4V653Z"/><path d="M1197.77,660.05h4v11.17h-4V670a4.2,4.2,0,0,1-3.48,1.6,5.35,5.35,0,0,1-4-1.77,5.64,5.64,0,0,1-1.6-4.1,6.19,6.19,0,0,1,1.72-4.48,5.76,5.76,0,0,1,4-1.57,4.41,4.41,0,0,1,3.35,1.45Zm2.2-5.75a4,4,0,0,1-1.1,2.73,5.28,5.28,0,0,1-6.5,0,3.92,3.92,0,0,1-1.1-2.73h2.57a1.76,1.76,0,0,0,.5,1,2.07,2.07,0,0,0,1.28.45,2,2,0,0,0,1.27-.45,1.76,1.76,0,0,0,.5-1Zm-6.4,9.5a2.63,2.63,0,0,0-.8,1.83,2.55,2.55,0,0,0,.77,1.82,2.83,2.83,0,0,0,1.8.75,2.56,2.56,0,0,0,1.8-.77,2.43,2.43,0,0,0,.75-1.8,2.49,2.49,0,0,0-.77-1.83,2.57,2.57,0,0,0-1.8-.72A2.54,2.54,0,0,0,1193.57,663.8Z"/><path d="M1205.77,667.05h3.75l-4.3,7.9h-2.58Z"/><path d="M637.1,697.53a5.52,5.52,0,0,0,1.6.82,5,5,0,0,0,1.55.28,1.72,1.72,0,0,0,1-.3.64.64,0,0,0,.2-.53.58.58,0,0,0-.2-.5,2.56,2.56,0,0,0-1-.4l-1.05-.25a3.55,3.55,0,0,1-1.95-1,2.74,2.74,0,0,1-.72-1.93,4,4,0,0,1,1-2.72,5.62,5.62,0,0,1,4-1.35,9.31,9.31,0,0,1,3.57.72L643.77,693a5.51,5.51,0,0,0-2.1-.55,1.67,1.67,0,0,0-.92.23.59.59,0,0,0-.35.55.64.64,0,0,0,.47.62c.38.15.7.15,1.33.33l.72.2a4.71,4.71,0,0,1,1.65.87,3.17,3.17,0,0,1,.85,2.23,3.73,3.73,0,0,1-1.12,2.77,5.81,5.81,0,0,1-4.13,1.4,8.3,8.3,0,0,1-4.5-1.3Z"/><path d="M659.32,696.38H651a2.78,2.78,0,0,0,.7,1.87,2.25,2.25,0,0,0,1.65.55,3.07,3.07,0,0,0,1.3-.3,1.9,1.9,0,0,0,.7-.75h3.82a4.91,4.91,0,0,1-1.35,2.3,6.06,6.06,0,0,1-4.55,1.55,6.35,6.35,0,0,1-4.62-1.7,5.84,5.84,0,0,1-1.65-4.22,6,6,0,0,1,1.67-4.33,6.31,6.31,0,0,1,4.58-1.62,6.12,6.12,0,0,1,4.3,1.52,6.27,6.27,0,0,1,1.77,4.7Zm-3.67-2.3a2.66,2.66,0,0,0-.65-1.2,2.31,2.31,0,0,0-1.65-.6,2.14,2.14,0,0,0-1.63.6,2.36,2.36,0,0,0-.6,1.2Z"/><path d="M669.45,683.15a2.25,2.25,0,1,1-2.25,2.25A2.24,2.24,0,0,1,669.45,683.15Zm2,6.9v11.17h-4V690.05Z"/><path d="M674.17,690.05h4v1.4a4.22,4.22,0,0,1,3.55-1.65A4.53,4.53,0,0,1,685,691a3.86,3.86,0,0,1,1.05,3.13v7.09h-4v-5.64a3.19,3.19,0,0,0-.5-2.18,1.65,1.65,0,0,0-1.27-.47,2.2,2.2,0,0,0-1.48.52,2.58,2.58,0,0,0-.65,1.78v6h-4Z"/><path d="M693.22,693.33v7.89h-4v-7.89H688v-3.28h1.27v-3.67h4v3.67h2.28v3.28Z"/><path d="M708.85,696.38h-8.33a2.83,2.83,0,0,0,.7,1.87,2.25,2.25,0,0,0,1.65.55,3.07,3.07,0,0,0,1.3-.3,1.83,1.83,0,0,0,.7-.75h3.83a5.09,5.09,0,0,1-1.35,2.3,6.09,6.09,0,0,1-4.55,1.55,6.37,6.37,0,0,1-4.63-1.7,5.88,5.88,0,0,1-1.65-4.22,6,6,0,0,1,1.68-4.33,6.27,6.27,0,0,1,4.57-1.62,6.11,6.11,0,0,1,4.3,1.52,6.24,6.24,0,0,1,1.78,4.7Zm-3.68-2.3a2.66,2.66,0,0,0-.65-1.2,2.3,2.3,0,0,0-1.65-.6,2.12,2.12,0,0,0-1.62.6,2.21,2.21,0,0,0-.6,1.2Z"/><path d="M711.15,690.05h4v1.83a3.6,3.6,0,0,1,1.57-1.55,4.32,4.32,0,0,1,2.08-.45l.8,0v3.77a3.54,3.54,0,0,0-1.73-.4,2.63,2.63,0,0,0-1.82.6,3.38,3.38,0,0,0-.9,2.55v4.77h-4Z"/><path d="M732.12,699.75a7.64,7.64,0,0,1-10,0,5.75,5.75,0,0,1,0-8.22,7.64,7.64,0,0,1,10,0,5.75,5.75,0,0,1,0,8.22Zm-6.77-6a2.47,2.47,0,0,0,0,3.6,2.5,2.5,0,0,0,3.57,0,2.45,2.45,0,0,0,.78-1.77,2.73,2.73,0,0,0-.78-1.83,2.57,2.57,0,0,0-3.57,0Z"/><path d="M748.72,690.05v10.47a6,6,0,0,1-1.52,4.63,6.67,6.67,0,0,1-4.93,1.8,6.85,6.85,0,0,1-5.22-2,4.06,4.06,0,0,1-1.23-2.32h4.45a1.72,1.72,0,0,0,1.88,1.15,2.42,2.42,0,0,0,1.77-.63,2.65,2.65,0,0,0,.8-2.07V700a4.24,4.24,0,0,1-3.35,1.48,5.57,5.57,0,0,1-4.12-1.57,5.91,5.91,0,0,1-1.55-4.08,6.39,6.39,0,0,1,1.65-4.37,5.58,5.58,0,0,1,4-1.7,4.36,4.36,0,0,1,3.32,1.47v-1.15Zm-8.15,3.75a2.65,2.65,0,0,0-.77,1.8,2.63,2.63,0,0,0,.77,1.83,2.55,2.55,0,0,0,1.8.72,2.61,2.61,0,0,0,1.8-.75,2.66,2.66,0,0,0,.75-1.8,2.83,2.83,0,0,0-.8-1.82,2.54,2.54,0,0,0-1.77-.73A2.41,2.41,0,0,0,740.57,693.8Z"/><path d="M751.47,683h4v8.45a5.17,5.17,0,0,1,1.25-1.1,5.12,5.12,0,0,1,5.6.65,3.9,3.9,0,0,1,1,3.13v7.09h-4v-5.64a3.33,3.33,0,0,0-.5-2.18,1.58,1.58,0,0,0-1.27-.47,2.13,2.13,0,0,0-1.45.47,2.46,2.46,0,0,0-.68,1.83v6h-4Z"/><path d="M777.45,696.38h-8.33a2.83,2.83,0,0,0,.7,1.87,2.25,2.25,0,0,0,1.65.55,3.07,3.07,0,0,0,1.3-.3,1.83,1.83,0,0,0,.7-.75h3.83a5.09,5.09,0,0,1-1.35,2.3,6.09,6.09,0,0,1-4.55,1.55,6.37,6.37,0,0,1-4.63-1.7,5.88,5.88,0,0,1-1.65-4.22,6,6,0,0,1,1.68-4.33,6.27,6.27,0,0,1,4.57-1.62,6.11,6.11,0,0,1,4.3,1.52,6.24,6.24,0,0,1,1.78,4.7Zm-3.68-2.3a2.66,2.66,0,0,0-.65-1.2,2.3,2.3,0,0,0-1.65-.6,2.12,2.12,0,0,0-1.62.6,2.21,2.21,0,0,0-.6,1.2Z"/><path d="M788.4,690.05h4v11.17h-4V700a4.2,4.2,0,0,1-3.48,1.6,5.35,5.35,0,0,1-4-1.77,5.64,5.64,0,0,1-1.6-4.1,6.19,6.19,0,0,1,1.72-4.48,5.76,5.76,0,0,1,4-1.57,4.41,4.41,0,0,1,3.35,1.45Zm-4.2,3.75a2.63,2.63,0,0,0-.8,1.83,2.55,2.55,0,0,0,.77,1.82,2.83,2.83,0,0,0,1.8.75,2.56,2.56,0,0,0,1.8-.77,2.43,2.43,0,0,0,.75-1.8,2.49,2.49,0,0,0-.77-1.83,2.57,2.57,0,0,0-1.8-.72A2.54,2.54,0,0,0,784.2,693.8Z"/><path d="M801,698h4.68v3.27H794.27l5.28-7.89h-4.5v-3.28H806.2Z"/><path d="M816.72,690.05h4v11.17h-4V700a4.17,4.17,0,0,1-3.47,1.6,5.37,5.37,0,0,1-4-1.77,5.68,5.68,0,0,1-1.6-4.1,6.2,6.2,0,0,1,1.73-4.48,5.74,5.74,0,0,1,4-1.57,4.4,4.4,0,0,1,3.35,1.45Zm2.2-5.75a3.92,3.92,0,0,1-1.1,2.73,5.28,5.28,0,0,1-6.5,0,4,4,0,0,1-1.1-2.73h2.58a1.76,1.76,0,0,0,.5,1,2,2,0,0,0,1.27.45,2.07,2.07,0,0,0,1.28-.45,1.76,1.76,0,0,0,.5-1Zm-6.4,9.5a2.63,2.63,0,0,0-.8,1.83,2.56,2.56,0,0,0,.78,1.82,2.79,2.79,0,0,0,1.8.75,2.56,2.56,0,0,0,1.8-.77,2.43,2.43,0,0,0,.75-1.8,2.46,2.46,0,0,0-.78-1.83,2.55,2.55,0,0,0-3.55,0Z"/><path d="M837.75,701a5.9,5.9,0,0,1-2.78.63,6.2,6.2,0,0,1-4.4-1.7,5.82,5.82,0,0,1-1.72-4.17,6.08,6.08,0,0,1,1.8-4.33,6.45,6.45,0,0,1,4.5-1.7,5.75,5.75,0,0,1,2.6.63v3.35a3.56,3.56,0,0,0-2.08-.73,2.62,2.62,0,0,0-1.95.78,2.7,2.7,0,0,0-.77,1.92,2.86,2.86,0,0,0,.7,1.88,2.7,2.7,0,0,0,2.05.85,3.07,3.07,0,0,0,2-.75Z"/><path d="M851.87,696.38h-8.32a2.78,2.78,0,0,0,.7,1.87,2.25,2.25,0,0,0,1.65.55,3.07,3.07,0,0,0,1.3-.3,1.9,1.9,0,0,0,.7-.75h3.82a5.09,5.09,0,0,1-1.35,2.3,6.06,6.06,0,0,1-4.55,1.55,6.35,6.35,0,0,1-4.62-1.7,5.84,5.84,0,0,1-1.65-4.22,6,6,0,0,1,1.67-4.33,6.31,6.31,0,0,1,4.58-1.62,6.12,6.12,0,0,1,4.3,1.52,6.27,6.27,0,0,1,1.77,4.7Zm-3.67-2.3a2.66,2.66,0,0,0-.65-1.2,2.31,2.31,0,0,0-1.65-.6,2.14,2.14,0,0,0-1.63.6,2.36,2.36,0,0,0-.6,1.2Z"/><path d="M858.17,683v18.22h-4V683Z"/><path d="M872.74,696.38h-8.32a2.83,2.83,0,0,0,.7,1.87,2.25,2.25,0,0,0,1.65.55,3.07,3.07,0,0,0,1.3-.3,1.83,1.83,0,0,0,.7-.75h3.82a5,5,0,0,1-1.34,2.3,6.09,6.09,0,0,1-4.55,1.55,6.37,6.37,0,0,1-4.63-1.7,5.88,5.88,0,0,1-1.65-4.22,6,6,0,0,1,1.68-4.33,6.27,6.27,0,0,1,4.57-1.62,6.11,6.11,0,0,1,4.3,1.52,6.27,6.27,0,0,1,1.77,4.7Zm-3.67-2.3a2.66,2.66,0,0,0-.65-1.2,2.3,2.3,0,0,0-1.65-.6,2.12,2.12,0,0,0-1.62.6,2.21,2.21,0,0,0-.6,1.2Z"/><path d="M879.05,683v18.22h-4V683Z"/><path d="M890.42,690.05h4v11.17h-4V700a4.17,4.17,0,0,1-3.47,1.6,5.37,5.37,0,0,1-4-1.77,5.68,5.68,0,0,1-1.6-4.1,6.2,6.2,0,0,1,1.73-4.48,5.74,5.74,0,0,1,4-1.57,4.4,4.4,0,0,1,3.35,1.45Zm-4.2,3.75a2.63,2.63,0,0,0-.8,1.83,2.56,2.56,0,0,0,.78,1.82,2.79,2.79,0,0,0,1.8.75,2.56,2.56,0,0,0,1.8-.77,2.43,2.43,0,0,0,.75-1.8,2.46,2.46,0,0,0-.78-1.83,2.55,2.55,0,0,0-3.55,0Z"/><path d="M901.17,683v18.22h-4V683Z"/><path d="M908.32,693.33v7.89h-4v-7.89h-1.27v-3.28h1.27v-3.67h4v3.67h2.28v3.28Z"/><path d="M923.94,696.38h-8.32a2.83,2.83,0,0,0,.7,1.87,2.25,2.25,0,0,0,1.65.55,3.07,3.07,0,0,0,1.3-.3,1.83,1.83,0,0,0,.7-.75h3.82a4.91,4.91,0,0,1-1.35,2.3,6,6,0,0,1-4.54,1.55,6.37,6.37,0,0,1-4.63-1.7,5.88,5.88,0,0,1-1.65-4.22,6,6,0,0,1,1.68-4.33,6.27,6.27,0,0,1,4.57-1.62,6.11,6.11,0,0,1,4.3,1.52,6.27,6.27,0,0,1,1.77,4.7Zm-3.67-2.3a2.66,2.66,0,0,0-.65-1.2,2.3,2.3,0,0,0-1.65-.6,2.12,2.12,0,0,0-1.62.6,2.21,2.21,0,0,0-.6,1.2Z"/><path d="M932.8,697.53a5.52,5.52,0,0,0,1.6.82,5,5,0,0,0,1.55.28,1.72,1.72,0,0,0,1-.3.64.64,0,0,0,.2-.53.58.58,0,0,0-.2-.5,2.56,2.56,0,0,0-1.05-.4l-1-.25a3.55,3.55,0,0,1-2-1,2.74,2.74,0,0,1-.72-1.93,4,4,0,0,1,1-2.72,5.62,5.62,0,0,1,4-1.35,9.31,9.31,0,0,1,3.57.72L939.47,693a5.51,5.51,0,0,0-2.1-.55,1.67,1.67,0,0,0-.92.23.59.59,0,0,0-.35.55.64.64,0,0,0,.47.62c.38.15.7.15,1.33.33l.72.2a4.8,4.8,0,0,1,1.65.87,3.17,3.17,0,0,1,.85,2.23A3.77,3.77,0,0,1,940,700.2a5.81,5.81,0,0,1-4.13,1.4,8.3,8.3,0,0,1-4.5-1.3Z"/><path d="M955,696.38H946.7a2.78,2.78,0,0,0,.7,1.87,2.24,2.24,0,0,0,1.64.55,3,3,0,0,0,1.3-.3,1.83,1.83,0,0,0,.7-.75h3.83a5.09,5.09,0,0,1-1.35,2.3A6.09,6.09,0,0,1,949,701.6a6.35,6.35,0,0,1-4.62-1.7,5.84,5.84,0,0,1-1.65-4.22,6,6,0,0,1,1.67-4.33,6.31,6.31,0,0,1,4.58-1.62,6.1,6.1,0,0,1,4.29,1.52A6.24,6.24,0,0,1,955,696Zm-3.68-2.3a2.66,2.66,0,0,0-.65-1.2,2.3,2.3,0,0,0-1.65-.6,2.13,2.13,0,0,0-1.62.6,2.36,2.36,0,0,0-.6,1.2Z"/><path d="M957.32,690.05h4v1.83a3.61,3.61,0,0,1,1.58-1.55,4.28,4.28,0,0,1,2.07-.45l.8,0v3.77a3.54,3.54,0,0,0-1.73-.4,2.63,2.63,0,0,0-1.82.6,3.38,3.38,0,0,0-.9,2.55v4.77h-4Z"/><path d="M970.65,690.05l2.67,5.73,2.72-5.73h4.45l-5.82,11.17H972l-5.78-11.17Z"/><path d="M993.09,696.38h-8.32a2.83,2.83,0,0,0,.7,1.87,2.25,2.25,0,0,0,1.65.55,3.07,3.07,0,0,0,1.3-.3,1.9,1.9,0,0,0,.7-.75h3.82a4.91,4.91,0,0,1-1.35,2.3A6.06,6.06,0,0,1,987,701.6a6.36,6.36,0,0,1-4.62-1.7,5.88,5.88,0,0,1-1.65-4.22,6,6,0,0,1,1.68-4.33,6.27,6.27,0,0,1,4.57-1.62,6.12,6.12,0,0,1,4.3,1.52,6.27,6.27,0,0,1,1.77,4.7Zm-3.67-2.3a2.66,2.66,0,0,0-.65-1.2,2.31,2.31,0,0,0-1.65-.6,2.11,2.11,0,0,0-1.62.6,2.21,2.21,0,0,0-.6,1.2Z"/><path d="M995.4,690.05h4v1.83a3.55,3.55,0,0,1,1.57-1.55,4.28,4.28,0,0,1,2.07-.45l.8,0v3.77a3.52,3.52,0,0,0-1.72-.4,2.66,2.66,0,0,0-1.83.6,3.4,3.4,0,0,0-.89,2.55v4.77h-4Z"/><path d="M1017.47,696.38h-8.32a2.78,2.78,0,0,0,.7,1.87,2.24,2.24,0,0,0,1.64.55,3.07,3.07,0,0,0,1.3-.3,1.83,1.83,0,0,0,.7-.75h3.83a5.09,5.09,0,0,1-1.35,2.3,6.09,6.09,0,0,1-4.55,1.55,6.35,6.35,0,0,1-4.62-1.7,5.84,5.84,0,0,1-1.65-4.22,6,6,0,0,1,1.67-4.33,6.31,6.31,0,0,1,4.58-1.62,6.1,6.1,0,0,1,4.29,1.52,6.24,6.24,0,0,1,1.78,4.7Zm-3.68-2.3a2.66,2.66,0,0,0-.65-1.2,2.3,2.3,0,0,0-1.65-.6,2.12,2.12,0,0,0-1.62.6,2.36,2.36,0,0,0-.6,1.2Z"/><path d="M1020.37,700.92a2.6,2.6,0,0,1,1.83-4.42,2.6,2.6,0,0,1,1.84.8,2.58,2.58,0,0,1,0,3.62,2.53,2.53,0,0,1-1.82.78A2.55,2.55,0,0,1,1020.37,700.92Z"/></svg>