<svg id="Layer_1" data-name="Layer 1" xmlns="http://www.w3.org/2000/svg" viewBox="0 0 1317 1001"><title>Capitolul11</title><rect x="276.13" y="724.4" width="148" height="89.21" rx="12" ry="12" style="fill:none;stroke:#f7931f;stroke-miterlimit:10;stroke-width:5px"/><rect x="326.3" y="813.1" width="47.64" height="16.22" rx="4.38" ry="4.38" style="fill:#f7931f"/><rect x="295.39" y="827.8" width="109.48" height="22.3" rx="6.03" ry="6.03" style="fill:none;stroke:#f7931f;stroke-miterlimit:10;stroke-width:5px"/><circle cx="307.55" cy="835.91" r="2.03" style="fill:#f7931f"/><circle cx="313.37" cy="835.91" r="2.03" style="fill:#f7931f"/><circle cx="307.55" cy="841.99" r="2.03" style="fill:#f7931f"/><circle cx="313.37" cy="841.99" r="2.03" style="fill:#f7931f"/><rect x="366.34" y="836.92" width="31.42" height="3.04" rx="0.82" ry="0.82" style="fill:none;stroke:#f7931f;stroke-miterlimit:10;stroke-width:5px"/><path d="M1043.85,660.12a7,7,0,0,0,4.59,2,2.63,2.63,0,0,0,2-.69,1.79,1.79,0,0,0,.51-1.26,1.58,1.58,0,0,0-.58-1.2,7.06,7.06,0,0,0-2.57-1l-1.35-.42a6.54,6.54,0,0,1-2.88-1.62,5,5,0,0,1-1.14-3.54,6.54,6.54,0,0,1,1.83-4.83,7,7,0,0,1,5.13-1.89,14.06,14.06,0,0,1,6.18,1.62l-2.07,4.05a5.28,5.28,0,0,0-3.42-1.35,2.48,2.48,0,0,0-1.71.6,1.48,1.48,0,0,0-.51,1.08,1.39,1.39,0,0,0,.26.9,3.4,3.4,0,0,0,1.75.9l1.58.48a7.72,7.72,0,0,1,3.64,2,4.72,4.72,0,0,1,1.28,3.57,6.77,6.77,0,0,1-1.88,5,7.77,7.77,0,0,1-5.91,2,10.7,10.7,0,0,1-3.93-.66,14,14,0,0,1-3-1.59Z"/><path d="M1073.42,660.3h-10a3.39,3.39,0,0,0,.84,2.25,2.7,2.7,0,0,0,2,.66,3.82,3.82,0,0,0,1.56-.36,2.23,2.23,0,0,0,.84-.9h4.59a6,6,0,0,1-1.62,2.76c-1,1-2.55,1.86-5.46,1.86a7.61,7.61,0,0,1-5.55-2,7,7,0,0,1-2-5.07,7.16,7.16,0,0,1,2-5.19,7.54,7.54,0,0,1,5.48-1.95,7.32,7.32,0,0,1,5.16,1.83,7.47,7.47,0,0,1,2.13,5.64Zm-4.4-2.76a3.32,3.32,0,0,0-.78-1.44,2.8,2.8,0,0,0-2-.72,2.62,2.62,0,0,0-2,.72,2.8,2.8,0,0,0-.71,1.44Z"/><path d="M1076.19,652.71h4.8v2.19a4.28,4.28,0,0,1,1.89-1.86,5.21,5.21,0,0,1,2.49-.54l1,.06v4.53a4.27,4.27,0,0,0-2.07-.48,3.14,3.14,0,0,0-2.19.72,4,4,0,0,0-1.08,3.06v5.73h-4.8Z"/><path d="M1092.18,652.71l3.2,6.87,3.28-6.87H1104l-7,13.41h-3.27l-6.93-13.41Z"/><path d="M1108,644.43a2.7,2.7,0,1,1-2.69,2.7A2.7,2.7,0,0,1,1108,644.43Zm2.41,8.28v13.41h-4.8V652.71Z"/><path d="M1123.86,665.82a7.14,7.14,0,0,1-3.33.75,7.41,7.41,0,0,1-5.28-2,7,7,0,0,1-2.07-5,7.3,7.3,0,0,1,2.16-5.19,7.73,7.73,0,0,1,5.39-2,6.92,6.92,0,0,1,3.13.75v4a4.33,4.33,0,0,0-2.49-.87,3.11,3.11,0,0,0-2.34.93,3.26,3.26,0,0,0-.93,2.31,3.44,3.44,0,0,0,.84,2.25,3.23,3.23,0,0,0,2.45,1,3.67,3.67,0,0,0,2.47-.9Z"/><path d="M1129,644.43a2.7,2.7,0,1,1-2.69,2.7A2.69,2.69,0,0,1,1129,644.43Zm2.4,8.28v13.41h-4.8V652.71Z"/><path d="M1139.46,652.71v7.5a2.56,2.56,0,0,0,.71,1.95,2.5,2.5,0,0,0,1.68.51,2.23,2.23,0,0,0,1.71-.57,2.49,2.49,0,0,0,.69-1.89v-7.5h4.8v8.37a4.6,4.6,0,0,1-1.29,3.6c-1.65,1.71-4,1.89-5.79,1.89-2,0-4.47-.21-6.06-1.92a4.82,4.82,0,0,1-1.26-3.57v-8.37Z"/><path d="M1159.79,666.12v-20h6.81a11.16,11.16,0,0,1,8,2.76,9.77,9.77,0,0,1,2.79,7.29,9.23,9.23,0,0,1-2.61,6.93,10.87,10.87,0,0,1-7.68,3Zm5.19-4.41h1a6,6,0,0,0,4.38-1.44,5.45,5.45,0,0,0,1.53-4.11,6,6,0,0,0-1.56-4.38,5.83,5.83,0,0,0-4.14-1.26H1165Z"/><path d="M1180.64,666.12v-20h5.19l9.57,12.24V646.11h5.19v20h-5.19l-9.57-12.24v12.24Z"/><path d="M1206.11,660.12a7,7,0,0,0,4.59,2,2.63,2.63,0,0,0,2-.69,1.79,1.79,0,0,0,.51-1.26,1.56,1.56,0,0,0-.57-1.2,7.21,7.21,0,0,0-2.58-1l-1.35-.42a6.54,6.54,0,0,1-2.88-1.62,5,5,0,0,1-1.14-3.54,6.54,6.54,0,0,1,1.83-4.83,7.05,7.05,0,0,1,5.13-1.89,14.06,14.06,0,0,1,6.18,1.62l-2.07,4.05a5.28,5.28,0,0,0-3.42-1.35,2.49,2.49,0,0,0-1.71.6,1.48,1.48,0,0,0-.51,1.08,1.34,1.34,0,0,0,.27.9,3.28,3.28,0,0,0,1.74.9l1.59.48a7.64,7.64,0,0,1,3.63,2,4.72,4.72,0,0,1,1.29,3.57,6.78,6.78,0,0,1-1.89,5,7.76,7.76,0,0,1-5.91,2,10.7,10.7,0,0,1-3.93-.66,14,14,0,0,1-3-1.59Z"/><rect x="218.88" y="690.25" width="263" height="193" rx="12" ry="12" style="fill:none;stroke:#3a5c84;stroke-miterlimit:10;stroke-width:5px"/><rect x="996.63" y="689.75" width="263" height="193" rx="12" ry="12" style="fill:none;stroke:#3a5c84;stroke-miterlimit:10;stroke-width:5px"/><rect x="1059.73" y="765.8" width="136.4" height="39.71" rx="5.72" ry="5.72" style="fill:none;stroke:#a2b969;stroke-miterlimit:10;stroke-width:4.64147865772247px"/><circle cx="1083.04" cy="785.66" r="9.21" style="fill:none;stroke:#a2b969;stroke-miterlimit:10;stroke-width:4.64147865772247px"/><circle cx="1146.63" cy="785.95" r="2.88" style="fill:#a2b969"/><circle cx="1156.41" cy="785.95" r="2.88" style="fill:#a2b969"/><circle cx="1166.77" cy="785.95" r="2.88" style="fill:#a2b969"/><circle cx="1177.13" cy="785.95" r="2.88" style="fill:#a2b969"/><rect x="1059.73" y="806.03" width="136.4" height="39.71" rx="5.72" ry="5.72" style="fill:none;stroke:#a2b969;stroke-miterlimit:10;stroke-width:4.64147865772247px"/><circle cx="1083.04" cy="825.88" r="9.21" style="fill:none;stroke:#a2b969;stroke-miterlimit:10;stroke-width:4.64147865772247px"/><circle cx="1146.63" cy="826.17" r="2.88" style="fill:#a2b969"/><circle cx="1156.41" cy="826.17" r="2.88" style="fill:#a2b969"/><circle cx="1166.77" cy="826.17" r="2.88" style="fill:#a2b969"/><circle cx="1177.13" cy="826.17" r="2.88" style="fill:#a2b969"/><rect x="1059.73" y="726.09" width="136.4" height="39.71" rx="5.72" ry="5.72" style="fill:none;stroke:#a2b969;stroke-miterlimit:10;stroke-width:4.64147865772247px"/><circle cx="1083.04" cy="745.95" r="9.21" style="fill:none;stroke:#a2b969;stroke-miterlimit:10;stroke-width:4.64147865772247px"/><circle cx="1146.63" cy="746.24" r="2.88" style="fill:#a2b969"/><circle cx="1156.41" cy="746.24" r="2.88" style="fill:#a2b969"/><circle cx="1166.77" cy="746.24" r="2.88" style="fill:#a2b969"/><circle cx="1177.13" cy="746.24" r="2.88" style="fill:#a2b969"/><path d="M284.42,53.82a7.12,7.12,0,0,1-3.33.75,7.41,7.41,0,0,1-5.28-2,7,7,0,0,1-2.07-5,7.3,7.3,0,0,1,2.16-5.19,7.73,7.73,0,0,1,5.4-2,6.88,6.88,0,0,1,3.12.75v4a4.28,4.28,0,0,0-2.49-.87,3.15,3.15,0,0,0-2.34.93,3.26,3.26,0,0,0-.93,2.31,3.44,3.44,0,0,0,.84,2.25,3.26,3.26,0,0,0,2.46,1,3.63,3.63,0,0,0,2.46-.9Z"/><path d="M292,40.71v7.5a2.57,2.57,0,0,0,.72,1.95,2.48,2.48,0,0,0,1.68.51,2.24,2.24,0,0,0,1.71-.57,2.49,2.49,0,0,0,.69-1.89v-7.5h4.79v8.37a4.57,4.57,0,0,1-1.29,3.6c-1.65,1.71-4,1.89-5.78,1.89-2,0-4.47-.21-6.06-1.92a4.82,4.82,0,0,1-1.26-3.57V40.71Z"/><path d="M304.85,40.71h4.8V42.9A4.28,4.28,0,0,1,311.54,41,5.2,5.2,0,0,1,314,40.5l1,.06v4.53a4.22,4.22,0,0,0-2.06-.48,3.14,3.14,0,0,0-2.19.72,4,4,0,0,0-1.08,3.06v5.73h-4.8Z"/><path d="M318,49.68a6.87,6.87,0,0,0,1.92,1,6.14,6.14,0,0,0,1.86.33,2.05,2.05,0,0,0,1.23-.36.76.76,0,0,0,.23-.63.7.7,0,0,0-.23-.6,3.09,3.09,0,0,0-1.27-.48l-1.25-.3a4.25,4.25,0,0,1-2.34-1.17,3.24,3.24,0,0,1-.87-2.31,4.79,4.79,0,0,1,1.26-3.27,6.75,6.75,0,0,1,4.8-1.62,11.05,11.05,0,0,1,4.28.87L326,44.19a6.74,6.74,0,0,0-2.52-.66,2,2,0,0,0-1.11.27.72.72,0,0,0-.42.66.77.77,0,0,0,.57.75c.44.18.83.18,1.58.39l.88.24a5.85,5.85,0,0,1,2,1,3.83,3.83,0,0,1,1,2.67,4.52,4.52,0,0,1-1.34,3.33,7,7,0,0,1-4.95,1.68,9.87,9.87,0,0,1-5.4-1.56Z"/><path d="M331.15,53.76a3.12,3.12,0,0,1,2.19-5.31,3.15,3.15,0,0,1,2.22,1,3.12,3.12,0,0,1,0,4.35,3.07,3.07,0,0,1-2.19.93A3,3,0,0,1,331.15,53.76Z"/><path d="M344.32,61h-4.8V40.71h4.8v1.47a5,5,0,0,1,4.11-1.92,6.67,6.67,0,0,1,4.77,2,7.61,7.61,0,0,1-.12,10.5,6.44,6.44,0,0,1-4.59,1.86,5.71,5.71,0,0,1-4.17-1.74Zm.78-15.75a3.27,3.27,0,0,0-.93,2.22,3.24,3.24,0,0,0,.93,2.13,3.07,3.07,0,0,0,2.16.9,2.9,2.9,0,0,0,2.13-.9,3.17,3.17,0,0,0,.93-2.13,3.27,3.27,0,0,0-.93-2.22,2.9,2.9,0,0,0-2.13-.9A3.07,3.07,0,0,0,345.1,45.24Z"/><path d="M362.8,40.71v7.5a2.57,2.57,0,0,0,.72,1.95,2.48,2.48,0,0,0,1.68.51,2.24,2.24,0,0,0,1.71-.57,2.49,2.49,0,0,0,.69-1.89v-7.5h4.8v8.37a4.6,4.6,0,0,1-1.29,3.6c-1.65,1.71-4,1.89-5.79,1.89-2,0-4.47-.21-6.06-1.92A4.82,4.82,0,0,1,358,49.08V40.71Z"/><path d="M380.5,32.25V42a5.31,5.31,0,0,1,4-1.74,6.86,6.86,0,0,1,4.74,1.8,7.31,7.31,0,0,1,2.19,5.31,7.4,7.4,0,0,1-2.16,5.34,6.42,6.42,0,0,1-4.71,1.86,4.92,4.92,0,0,1-4.05-1.92v1.47h-4.8V32.25Zm5.07,17.34a3,3,0,0,0,.93-2.1,3.29,3.29,0,0,0-.93-2.28,3.08,3.08,0,0,0-4.32,0,3.51,3.51,0,0,0-.9,2.16,3.22,3.22,0,0,0,1,2.28,3.28,3.28,0,0,0,2.07.81A3,3,0,0,0,385.57,49.59Z"/><path d="M394.9,53.76a3.12,3.12,0,0,1,2.19-5.31,3.15,3.15,0,0,1,2.22,1,3.12,3.12,0,0,1,0,4.35,3.07,3.07,0,0,1-2.19.93A3,3,0,0,1,394.9,53.76Z"/><path d="M403.27,40.71h4.8V42.9A4.33,4.33,0,0,1,410,41a5.24,5.24,0,0,1,2.49-.54l1,.06v4.53a4.23,4.23,0,0,0-2.07-.48,3.14,3.14,0,0,0-2.19.72,4,4,0,0,0-1.08,3.06v5.73h-4.8Z"/><path d="M428.44,52.35a9.18,9.18,0,0,1-12,0,6.92,6.92,0,0,1,0-9.87,8.37,8.37,0,0,1,6-2.22,8.47,8.47,0,0,1,6,2.22,6.92,6.92,0,0,1,0,9.87Zm-8.13-7.14a3.06,3.06,0,0,0,2.16,5.22,3.05,3.05,0,0,0,2.13-.9,3,3,0,0,0,.93-2.13,3.26,3.26,0,0,0-.93-2.19,3.08,3.08,0,0,0-4.29,0Z"/><rect x="218.63" y="74.75" width="263" height="193" rx="12" ry="12" style="fill:none;stroke:#3a5c84;stroke-miterlimit:10;stroke-width:5px"/><polygon points="567.74 769.77 628.41 769.77 628.41 778.52 647 759.93 628.41 741.35 628.41 750.1 567.74 750.1 567.74 769.77" style="fill:none;stroke:#f7931f;stroke-miterlimit:10;stroke-width:5px"/><polygon points="837.74 769.77 898.41 769.77 898.41 778.52 917 759.93 898.41 741.35 898.41 750.1 837.74 750.1 837.74 769.77" style="fill:none;stroke:#f7931f;stroke-miterlimit:10;stroke-width:5px"/><polygon points="702.74 769.77 763.41 769.77 763.41 778.52 782 759.93 763.41 741.35 763.41 750.1 702.74 750.1 702.74 769.77" style="fill:none;stroke:#f7931f;stroke-miterlimit:10;stroke-width:5px"/><polygon points="642.51 838.28 581.84 838.28 581.84 829.53 563.25 848.12 581.84 866.7 581.84 857.96 642.51 857.96 642.51 838.28" style="fill:none;stroke:#a2b969;stroke-miterlimit:10;stroke-width:4.64147865772247px"/><polygon points="782.01 838.28 721.34 838.28 721.34 829.53 702.75 848.12 721.34 866.7 721.34 857.96 782.01 857.96 782.01 838.28" style="fill:none;stroke:#a2b969;stroke-miterlimit:10;stroke-width:4.64147865772247px"/><polygon points="921.51 838.28 860.84 838.28 860.84 829.53 842.25 848.12 860.84 866.7 860.84 857.96 921.51 857.96 921.51 838.28" style="fill:none;stroke:#a2b969;stroke-miterlimit:10;stroke-width:4.64147865772247px"/><polygon points="310.45 304.41 310.45 365.09 301.71 365.09 320.29 383.67 338.88 365.09 330.13 365.09 330.13 304.41 310.45 304.41" style="fill:none;stroke:#c13018;stroke-miterlimit:10;stroke-width:5px"/><polygon points="310.45 574.41 310.45 635.09 301.71 635.09 320.29 653.67 338.88 635.09 330.13 635.09 330.13 574.41 310.45 574.41" style="fill:none;stroke:#c13018;stroke-miterlimit:10;stroke-width:5px"/><polygon points="310.45 439.41 310.45 500.09 301.71 500.09 320.29 518.67 338.88 500.09 330.13 500.09 330.13 439.41 310.45 439.41" style="fill:none;stroke:#c13018;stroke-miterlimit:10;stroke-width:5px"/><polygon points="418.31 379.16 418.31 318.48 427.06 318.48 408.47 299.89 389.89 318.48 398.63 318.48 398.63 379.16 418.31 379.16" style="fill:none;stroke:#f7931f;stroke-miterlimit:10;stroke-width:5px"/><polygon points="418.31 518.66 418.31 457.98 427.06 457.98 408.47 439.39 389.89 457.98 398.63 457.98 398.63 518.66 418.31 518.66" style="fill:none;stroke:#f7931f;stroke-miterlimit:10;stroke-width:5px"/><polygon points="418.31 658.16 418.31 597.48 427.06 597.48 408.47 578.89 389.89 597.48 398.63 597.48 398.63 658.16 418.31 658.16" style="fill:none;stroke:#f7931f;stroke-miterlimit:10;stroke-width:5px"/><rect x="279.85" y="123.23" width="142.83" height="96" rx="12" ry="12" style="fill:none;stroke:#c13018;stroke-miterlimit:10;stroke-width:5px"/><line x1="279.66" y1="144.11" x2="422.49" y2="144.11" style="fill:none;stroke:#c13018;stroke-miterlimit:10;stroke-width:5px"/><circle cx="391.85" cy="133.38" r="3.12" style="fill:#c13018"/><circle cx="402" cy="133.38" r="3.12" style="fill:#c13018"/><circle cx="411.37" cy="133.38" r="3.12" style="fill:#c13018"/><path d="M164.28,913.23H161.9v-3.68h6.7v16.67h-4.32Z"/><path d="M173.85,925.92a2.6,2.6,0,0,1,1.83-4.42,2.63,2.63,0,0,1,1.85.8,2.6,2.6,0,0,1,0,3.62,2.53,2.53,0,0,1-1.82.78A2.55,2.55,0,0,1,173.85,925.92Z"/><path d="M190,909.55l4,10.15,4.05-10.15h4.7l-7.1,16.67h-3.37l-7-16.67Z"/><path d="M203.2,915.05h4v1.83a3.61,3.61,0,0,1,1.58-1.55,4.28,4.28,0,0,1,2.07-.45l.8,0v3.77a3.52,3.52,0,0,0-1.72-.4,2.66,2.66,0,0,0-1.83.6,3.38,3.38,0,0,0-.9,2.55v4.77h-4Z"/><path d="M225.27,921.38H217a2.83,2.83,0,0,0,.7,1.87,2.25,2.25,0,0,0,1.65.55,3.07,3.07,0,0,0,1.3-.3,1.83,1.83,0,0,0,.7-.75h3.82a4.91,4.91,0,0,1-1.35,2.3,6,6,0,0,1-4.54,1.55,6.37,6.37,0,0,1-4.63-1.7,5.88,5.88,0,0,1-1.65-4.22,6,6,0,0,1,1.68-4.33,6.27,6.27,0,0,1,4.57-1.62,6.12,6.12,0,0,1,4.3,1.52,6.27,6.27,0,0,1,1.77,4.7Zm-3.67-2.3a2.66,2.66,0,0,0-.65-1.2,2.3,2.3,0,0,0-1.65-.6,2.12,2.12,0,0,0-1.62.6,2.21,2.21,0,0,0-.6,1.2Z"/><path d="M236.22,915.05h4v11.17h-4V925a4.17,4.17,0,0,1-3.47,1.6,5.35,5.35,0,0,1-4-1.77,5.64,5.64,0,0,1-1.6-4.1,6.19,6.19,0,0,1,1.72-4.48,5.76,5.76,0,0,1,4-1.57,4.37,4.37,0,0,1,3.34,1.45ZM232,918.8a2.63,2.63,0,0,0-.8,1.83,2.55,2.55,0,0,0,.77,1.82,2.83,2.83,0,0,0,1.8.75,2.56,2.56,0,0,0,1.8-.77,2.43,2.43,0,0,0,.75-1.8,2.46,2.46,0,0,0-.78-1.83,2.54,2.54,0,0,0-3.54,0Z"/><path d="M247,915.05v6.25a2.14,2.14,0,0,0,.6,1.63,2.05,2.05,0,0,0,1.4.42,1.87,1.87,0,0,0,1.42-.47,2.08,2.08,0,0,0,.57-1.58v-6.25h4v7a3.84,3.84,0,0,1-1.07,3,6.4,6.4,0,0,1-4.82,1.57c-1.68,0-3.73-.18-5.05-1.6a4,4,0,0,1-1.05-3v-7Z"/><path d="M264.28,922.53a5.52,5.52,0,0,0,1.6.82,5,5,0,0,0,1.55.28,1.72,1.72,0,0,0,1-.3.64.64,0,0,0,.2-.53.58.58,0,0,0-.2-.5,2.56,2.56,0,0,0-1.05-.4l-1-.25a3.55,3.55,0,0,1-2-1,2.74,2.74,0,0,1-.72-1.93,4,4,0,0,1,1.05-2.72,5.62,5.62,0,0,1,4-1.35,9.31,9.31,0,0,1,3.57.72L271,918a5.51,5.51,0,0,0-2.1-.55,1.67,1.67,0,0,0-.92.23.59.59,0,0,0-.35.55.64.64,0,0,0,.47.62c.38.15.7.15,1.33.33l.72.2a4.89,4.89,0,0,1,1.65.87,3.17,3.17,0,0,1,.85,2.23,3.73,3.73,0,0,1-1.13,2.77,5.79,5.79,0,0,1-4.12,1.4,8.3,8.3,0,0,1-4.5-1.3Z"/><path d="M283.3,915.05h4v11.17h-4V925a4.2,4.2,0,0,1-3.48,1.6,5.37,5.37,0,0,1-4-1.77,5.68,5.68,0,0,1-1.6-4.1,6.2,6.2,0,0,1,1.73-4.48,5.74,5.74,0,0,1,4-1.57,4.41,4.41,0,0,1,3.35,1.45Zm2.2-5.75a4,4,0,0,1-1.1,2.73,5.28,5.28,0,0,1-6.5,0,4,4,0,0,1-1.1-2.73h2.58a1.71,1.71,0,0,0,.5,1,2,2,0,0,0,1.27.45,2,2,0,0,0,1.27-.45,1.76,1.76,0,0,0,.5-1Zm-6.4,9.5a2.63,2.63,0,0,0-.8,1.83,2.56,2.56,0,0,0,.78,1.82,2.78,2.78,0,0,0,1.79.75,2.56,2.56,0,0,0,1.8-.77,2.43,2.43,0,0,0,.75-1.8,2.49,2.49,0,0,0-.77-1.83,2.57,2.57,0,0,0-1.8-.72A2.54,2.54,0,0,0,279.1,918.8Z"/><path d="M304.52,915.05h4v11.17h-4V925a4.17,4.17,0,0,1-3.47,1.6,5.35,5.35,0,0,1-4-1.77,5.64,5.64,0,0,1-1.6-4.1,6.19,6.19,0,0,1,1.72-4.48,5.74,5.74,0,0,1,4-1.57,4.4,4.4,0,0,1,3.35,1.45Zm-4.2,3.75a2.63,2.63,0,0,0-.8,1.83,2.56,2.56,0,0,0,.78,1.82,2.79,2.79,0,0,0,1.8.75,2.56,2.56,0,0,0,1.8-.77,2.43,2.43,0,0,0,.75-1.8,2.46,2.46,0,0,0-.78-1.83,2.55,2.55,0,0,0-3.55,0Z"/><path d="M319.72,926a5.87,5.87,0,0,1-2.77.63,6.18,6.18,0,0,1-4.4-1.7,5.82,5.82,0,0,1-1.72-4.17,6.08,6.08,0,0,1,1.8-4.33,6.4,6.4,0,0,1,4.49-1.7,5.75,5.75,0,0,1,2.6.63v3.35a3.51,3.51,0,0,0-2.07-.73,2.62,2.62,0,0,0-1.95.78,2.71,2.71,0,0,0-.78,1.92,2.91,2.91,0,0,0,.7,1.88,2.73,2.73,0,0,0,2.05.85,3,3,0,0,0,2.05-.75Z"/><path d="M330.45,926a5.9,5.9,0,0,1-2.78.63,6.2,6.2,0,0,1-4.4-1.7,5.86,5.86,0,0,1-1.72-4.17,6.12,6.12,0,0,1,1.8-4.33,6.45,6.45,0,0,1,4.5-1.7,5.75,5.75,0,0,1,2.6.63v3.35a3.56,3.56,0,0,0-2.08-.73,2.62,2.62,0,0,0-1.95.78,2.7,2.7,0,0,0-.77,1.92,2.86,2.86,0,0,0,.7,1.88,2.7,2.7,0,0,0,2,.85,3.07,3.07,0,0,0,2.05-.75Z"/><path d="M344.57,921.38h-8.32a2.78,2.78,0,0,0,.7,1.87,2.25,2.25,0,0,0,1.65.55,3.07,3.07,0,0,0,1.3-.3,1.9,1.9,0,0,0,.7-.75h3.82a4.91,4.91,0,0,1-1.35,2.3,6.06,6.06,0,0,1-4.55,1.55,6.35,6.35,0,0,1-4.62-1.7,5.84,5.84,0,0,1-1.65-4.22,6,6,0,0,1,1.67-4.33,6.31,6.31,0,0,1,4.58-1.62,6.12,6.12,0,0,1,4.3,1.52,6.27,6.27,0,0,1,1.77,4.7Zm-3.67-2.3a2.66,2.66,0,0,0-.65-1.2,2.31,2.31,0,0,0-1.65-.6,2.14,2.14,0,0,0-1.63.6,2.36,2.36,0,0,0-.6,1.2Z"/><path d="M347.6,922.53a5.52,5.52,0,0,0,1.6.82,5,5,0,0,0,1.55.28,1.72,1.72,0,0,0,1-.3.64.64,0,0,0,.2-.53.58.58,0,0,0-.2-.5,2.56,2.56,0,0,0-1-.4l-1.05-.25a3.55,3.55,0,0,1-1.95-1,2.74,2.74,0,0,1-.72-1.93,4,4,0,0,1,1.05-2.72,5.62,5.62,0,0,1,4-1.35,9.31,9.31,0,0,1,3.57.72L354.27,918a5.51,5.51,0,0,0-2.1-.55,1.67,1.67,0,0,0-.92.23.59.59,0,0,0-.35.55.64.64,0,0,0,.47.62c.38.15.7.15,1.33.33l.72.2a4.71,4.71,0,0,1,1.65.87,3.17,3.17,0,0,1,.85,2.23,3.73,3.73,0,0,1-1.12,2.77,5.81,5.81,0,0,1-4.13,1.4,8.3,8.3,0,0,1-4.5-1.3Z"/><path d="M369.82,921.38H361.5a2.78,2.78,0,0,0,.7,1.87,2.25,2.25,0,0,0,1.65.55,3.07,3.07,0,0,0,1.3-.3,1.9,1.9,0,0,0,.7-.75h3.82a4.91,4.91,0,0,1-1.35,2.3,6.06,6.06,0,0,1-4.55,1.55,6.35,6.35,0,0,1-4.62-1.7,5.84,5.84,0,0,1-1.65-4.22,6,6,0,0,1,1.67-4.33,6.31,6.31,0,0,1,4.58-1.62,6.12,6.12,0,0,1,4.3,1.52,6.27,6.27,0,0,1,1.77,4.7Zm-3.67-2.3a2.66,2.66,0,0,0-.65-1.2,2.31,2.31,0,0,0-1.65-.6,2.14,2.14,0,0,0-1.63.6,2.36,2.36,0,0,0-.6,1.2Z"/><path d="M378,923h4.67v3.27H371.25l5.27-7.89H372v-3.28h11.15Z"/><path d="M399.32,926a5.87,5.87,0,0,1-2.77.63,6.18,6.18,0,0,1-4.4-1.7,5.83,5.83,0,0,1-1.73-4.17,6.12,6.12,0,0,1,1.8-4.33,6.45,6.45,0,0,1,4.5-1.7,5.75,5.75,0,0,1,2.6.63v3.35a3.51,3.51,0,0,0-2.07-.73,2.62,2.62,0,0,0-1.95.78,2.71,2.71,0,0,0-.78,1.92,2.91,2.91,0,0,0,.7,1.88,2.73,2.73,0,0,0,2,.85,3,3,0,0,0,2.05-.75Z"/><path d="M405.6,915.05v6.25a2.14,2.14,0,0,0,.6,1.63,2.05,2.05,0,0,0,1.4.42,1.87,1.87,0,0,0,1.42-.47,2.09,2.09,0,0,0,.58-1.58v-6.25h4v7a3.85,3.85,0,0,1-1.08,3,6.38,6.38,0,0,1-4.82,1.57c-1.68,0-3.73-.18-5.05-1.6a4,4,0,0,1-1-3v-7Z"/><path d="M416.35,915.05h4v1.83a3.6,3.6,0,0,1,1.57-1.55,4.32,4.32,0,0,1,2.08-.45l.8,0v3.77a3.54,3.54,0,0,0-1.73-.4,2.63,2.63,0,0,0-1.82.6,3.38,3.38,0,0,0-.9,2.55v4.77h-4Z"/><path d="M427.3,922.53a5.52,5.52,0,0,0,1.6.82,5,5,0,0,0,1.55.28,1.72,1.72,0,0,0,1-.3.64.64,0,0,0,.2-.53.58.58,0,0,0-.2-.5,2.56,2.56,0,0,0-1.05-.4l-1.05-.25a3.55,3.55,0,0,1-1.95-1,2.74,2.74,0,0,1-.72-1.93,4,4,0,0,1,1.05-2.72,5.62,5.62,0,0,1,4-1.35,9.31,9.31,0,0,1,3.57.72L434,918a5.51,5.51,0,0,0-2.1-.55,1.67,1.67,0,0,0-.92.23.59.59,0,0,0-.35.55.64.64,0,0,0,.47.62c.38.15.7.15,1.33.33l.72.2a4.71,4.71,0,0,1,1.65.87,3.17,3.17,0,0,1,.85,2.23,3.73,3.73,0,0,1-1.12,2.77,5.81,5.81,0,0,1-4.13,1.4,8.3,8.3,0,0,1-4.5-1.3Z"/><path d="M438.27,925.92a2.6,2.6,0,0,1,1.83-4.42,2.63,2.63,0,0,1,1.85.8,2.6,2.6,0,0,1,0,3.62,2.53,2.53,0,0,1-1.82.78A2.55,2.55,0,0,1,438.27,925.92Z"/><path d="M449.25,932h-4v-16.9h4v1.23a4.15,4.15,0,0,1,3.42-1.6,5.56,5.56,0,0,1,4,1.62,6.36,6.36,0,0,1-.11,8.75,5.36,5.36,0,0,1-3.82,1.55,4.75,4.75,0,0,1-3.47-1.45Zm.65-13.12a2.72,2.72,0,0,0-.78,1.85,2.66,2.66,0,0,0,.78,1.77,2.52,2.52,0,0,0,1.8.75,2.38,2.38,0,0,0,1.77-.75,2.61,2.61,0,0,0,.78-1.77,2.72,2.72,0,0,0-.78-1.85,2.38,2.38,0,0,0-1.77-.75A2.52,2.52,0,0,0,449.9,918.83Z"/><path d="M464.65,915.05v6.25a2.14,2.14,0,0,0,.6,1.63,2.05,2.05,0,0,0,1.4.42,1.87,1.87,0,0,0,1.42-.47,2.09,2.09,0,0,0,.58-1.58v-6.25h4v7a3.84,3.84,0,0,1-1.07,3,6.38,6.38,0,0,1-4.82,1.57c-1.68,0-3.73-.18-5.05-1.6a4,4,0,0,1-1.05-3v-7Z"/><path d="M479.4,908v8.13a4.39,4.39,0,0,1,3.32-1.45,5.71,5.71,0,0,1,3.95,1.5,6.34,6.34,0,0,1,0,8.87,5.34,5.34,0,0,1-3.92,1.55,4.09,4.09,0,0,1-3.37-1.6v1.22h-4V908Zm4.22,14.45a2.49,2.49,0,0,0,.78-1.75,2.75,2.75,0,0,0-.78-1.9,2.57,2.57,0,0,0-3.6,0,2.9,2.9,0,0,0-.75,1.8,2.72,2.72,0,0,0,.85,1.9,2.78,2.78,0,0,0,1.73.67A2.48,2.48,0,0,0,483.62,922.45Z"/><path d="M491.4,925.92a2.51,2.51,0,0,1,0-3.64,2.53,2.53,0,0,1,1.82-.78,2.62,2.62,0,0,1,1.85.8,2.58,2.58,0,0,1,0,3.62,2.56,2.56,0,0,1-1.83.78A2.53,2.53,0,0,1,491.4,925.92Z"/><path d="M498.37,915.05h4v1.83a3.61,3.61,0,0,1,1.58-1.55,4.28,4.28,0,0,1,2.07-.45l.8,0v3.77a3.52,3.52,0,0,0-1.72-.4,2.66,2.66,0,0,0-1.83.6,3.38,3.38,0,0,0-.9,2.55v4.77h-4Z"/><path d="M519.35,924.75a7.65,7.65,0,0,1-10,0,5.77,5.77,0,0,1,0-8.22,7.65,7.65,0,0,1,10,0,5.77,5.77,0,0,1,0,8.22Zm-6.78-6a2.49,2.49,0,0,0,0,3.6,2.51,2.51,0,0,0,3.58,0,2.44,2.44,0,0,0,.77-1.77,2.72,2.72,0,0,0-.77-1.83,2.59,2.59,0,0,0-3.58,0Z"/><path d="M524,925.92a2.6,2.6,0,0,1,1.83-4.42,2.63,2.63,0,0,1,1.85.8,2.6,2.6,0,0,1,0,3.62,2.53,2.53,0,0,1-1.82.78A2.55,2.55,0,0,1,524,925.92Z"/><path d="M199.19,956.22H185.81L190,951.8a27.54,27.54,0,0,0,3.42-4.22,4.71,4.71,0,0,0,.9-2.6,2.5,2.5,0,0,0-.5-1.6,1.61,1.61,0,0,0-1.22-.5,1.78,1.78,0,0,0-1.45.67,4.11,4.11,0,0,0-.6,2.05h-4.48A6.66,6.66,0,0,1,188,941a7.2,7.2,0,0,1,9.43-.08A5.6,5.6,0,0,1,199,945a6.47,6.47,0,0,1-2.47,5l-2.8,2.6h5.45Z"/><path d="M202.14,955.92a2.51,2.51,0,0,1,0-3.64,2.53,2.53,0,0,1,1.82-.78,2.62,2.62,0,0,1,1.85.8,2.58,2.58,0,0,1,0,3.62,2.56,2.56,0,0,1-1.83.78A2.53,2.53,0,0,1,202.14,955.92Z"/><path d="M225.49,953.43h-6.05l-1.13,2.79h-4.57l6.4-16.67h4.72l6.28,16.67h-4.63Zm-1.15-3.3-1.88-5.4-1.82,5.4Z"/><path d="M232.69,945.05h4v1.35a4.29,4.29,0,0,1,3.35-1.55,4.61,4.61,0,0,1,2.15.5,3.57,3.57,0,0,1,1.55,1.6,4,4,0,0,1,1.52-1.55,4.55,4.55,0,0,1,2.33-.55,4.42,4.42,0,0,1,3.09,1,4.09,4.09,0,0,1,1,3.07v7.27h-4V950.7a3.33,3.33,0,0,0-.58-2.4,1.44,1.44,0,0,0-1-.37,1.59,1.59,0,0,0-1.17.45,2.83,2.83,0,0,0-.73,2.12v5.72h-4V950.7a3.59,3.59,0,0,0-.52-2.4,1.57,1.57,0,0,0-1.2-.45,1.41,1.41,0,0,0-1.1.4,3.31,3.31,0,0,0-.7,2.45v5.52h-4Z"/><path d="M260.34,945.05h4v1.4a4.21,4.21,0,0,1,3.55-1.65,4.55,4.55,0,0,1,3.3,1.2,3.86,3.86,0,0,1,1.05,3.13v7.09h-4v-5.64a3.25,3.25,0,0,0-.5-2.18,1.69,1.69,0,0,0-1.28-.47,2.17,2.17,0,0,0-1.47.52,2.58,2.58,0,0,0-.65,1.78v6h-4Z"/><path d="M286.81,951.38h-8.32a2.78,2.78,0,0,0,.7,1.87,2.25,2.25,0,0,0,1.65.55,3.07,3.07,0,0,0,1.3-.3,1.9,1.9,0,0,0,.7-.75h3.82a4.91,4.91,0,0,1-1.35,2.3,6.06,6.06,0,0,1-4.55,1.55,6.35,6.35,0,0,1-4.62-1.7,5.84,5.84,0,0,1-1.65-4.22,6,6,0,0,1,1.67-4.33,6.31,6.31,0,0,1,4.58-1.62,6.12,6.12,0,0,1,4.3,1.52,6.27,6.27,0,0,1,1.77,4.7Zm-3.67-2.3a2.66,2.66,0,0,0-.65-1.2,2.31,2.31,0,0,0-1.65-.6,2.14,2.14,0,0,0-1.63.6,2.36,2.36,0,0,0-.6,1.2Z"/><path d="M292.21,945.05l2.68,5.73,2.72-5.73h4.45l-5.82,11.17h-2.73l-5.77-11.17Z"/><path d="M314.44,954.75a7.65,7.65,0,0,1-10,0,5.77,5.77,0,0,1,0-8.22,7.65,7.65,0,0,1,10,0,5.77,5.77,0,0,1,0,8.22Zm-6.78-6a2.49,2.49,0,0,0,0,3.6,2.51,2.51,0,0,0,3.58,0,2.44,2.44,0,0,0,.77-1.77,2.72,2.72,0,0,0-.77-1.83,2.59,2.59,0,0,0-3.58,0Z"/><path d="M320.46,938.15a2.25,2.25,0,1,1-2.25,2.25A2.24,2.24,0,0,1,320.46,938.15Zm2,6.9v11.17h-4V945.05Z"/><path d="M337,951.38h-8.33a2.83,2.83,0,0,0,.7,1.87,2.25,2.25,0,0,0,1.65.55,3.07,3.07,0,0,0,1.3-.3,1.83,1.83,0,0,0,.7-.75h3.83a5.09,5.09,0,0,1-1.35,2.3A6.09,6.09,0,0,1,331,956.6a6.37,6.37,0,0,1-4.63-1.7,5.88,5.88,0,0,1-1.65-4.22,6,6,0,0,1,1.68-4.33,6.27,6.27,0,0,1,4.57-1.62,6.11,6.11,0,0,1,4.3,1.52A6.24,6.24,0,0,1,337,951Zm-3.68-2.3a2.66,2.66,0,0,0-.65-1.2,2.3,2.3,0,0,0-1.65-.6,2.12,2.12,0,0,0-1.62.6,2.21,2.21,0,0,0-.6,1.2Z"/><path d="M357.81,956.22h-4V955a4.09,4.09,0,0,1-3.37,1.6,5.38,5.38,0,0,1-3.93-1.55,6.18,6.18,0,0,1-1.8-4.45,6.05,6.05,0,0,1,1.83-4.42,5.71,5.71,0,0,1,3.95-1.5,4.39,4.39,0,0,1,3.32,1.45V938h4Zm-4.72-3.69a2.72,2.72,0,0,0,.85-1.9,2.9,2.9,0,0,0-.75-1.8,2.57,2.57,0,0,0-3.6,0,2.75,2.75,0,0,0-.78,1.9,2.62,2.62,0,0,0,2.55,2.5A2.78,2.78,0,0,0,353.09,952.53Z"/><path d="M372.41,951.38h-8.32a2.78,2.78,0,0,0,.7,1.87,2.25,2.25,0,0,0,1.65.55,3.07,3.07,0,0,0,1.3-.3,1.9,1.9,0,0,0,.7-.75h3.82a5.09,5.09,0,0,1-1.35,2.3,6.06,6.06,0,0,1-4.55,1.55,6.35,6.35,0,0,1-4.62-1.7,5.84,5.84,0,0,1-1.65-4.22,6,6,0,0,1,1.67-4.33,6.31,6.31,0,0,1,4.58-1.62,6.12,6.12,0,0,1,4.3,1.52,6.27,6.27,0,0,1,1.77,4.7Zm-3.67-2.3a2.66,2.66,0,0,0-.65-1.2,2.31,2.31,0,0,0-1.65-.6,2.14,2.14,0,0,0-1.63.6,2.36,2.36,0,0,0-.6,1.2Z"/><path d="M388.41,945.7h2.45v10.52h-2.45v-1.09a4,4,0,0,1-3.15,1.42c-3.25,0-5.1-2.7-5.1-5.6,0-3.42,2.35-5.52,5.13-5.52a3.83,3.83,0,0,1,3.12,1.5Zm-5.75,5.3a3.07,3.07,0,0,0,2.93,3.35,3,3,0,0,0,3-3.32c0-2.3-1.42-3.4-3-3.4C383.81,947.63,382.66,949.13,382.66,951Z"/><path d="M401.66,938h2.45v18.22h-2.45v-1.09a4,4,0,0,1-3.15,1.42c-3.25,0-5.1-2.7-5.1-5.6,0-3.42,2.35-5.52,5.13-5.52a3.83,3.83,0,0,1,3.12,1.5Zm-5.75,13a3.07,3.07,0,0,0,2.93,3.35,3,3,0,0,0,3-3.32c0-2.3-1.42-3.4-3-3.4C397.06,947.63,395.91,949.13,395.91,951Z"/><path d="M407.21,945.7h2.45v.95a4.45,4.45,0,0,1,1-.87,2.77,2.77,0,0,1,1.5-.35,3.61,3.61,0,0,1,1.92.5l-1,2.22a2.2,2.2,0,0,0-1.25-.37,1.89,1.89,0,0,0-1.52.57,3.39,3.39,0,0,0-.68,2.43v5.44h-2.45Z"/><path d="M424.16,953.83a5.49,5.49,0,0,1-1.77,1.92,5.8,5.8,0,0,1-3.1.8,4.67,4.67,0,0,1-3.55-1.35,5.65,5.65,0,0,1-1.55-4,6.18,6.18,0,0,1,1.67-4.33,4.83,4.83,0,0,1,3.53-1.42,4.52,4.52,0,0,1,3.37,1.37,6.31,6.31,0,0,1,1.47,4.45v.3h-7.54a3.42,3.42,0,0,0,.9,2.12,2.47,2.47,0,0,0,1.87.68,2.61,2.61,0,0,0,1.68-.52,3.84,3.84,0,0,0,1-1.15Zm-2.42-4.28a2.58,2.58,0,0,0-.75-1.42,2.36,2.36,0,0,0-1.65-.6,2.4,2.4,0,0,0-1.73.67,2.84,2.84,0,0,0-.75,1.35Z"/><path d="M431.39,948.48a1.77,1.77,0,0,0-1.5-.9,1,1,0,0,0-.75.27.79.79,0,0,0-.23.55.68.68,0,0,0,.35.6c.15.1.3.15.83.43l1.25.62a5,5,0,0,1,1.47,1,2.57,2.57,0,0,1,.78,2,3.5,3.5,0,0,1-.93,2.4,3.78,3.78,0,0,1-3,1.17,3.64,3.64,0,0,1-2.27-.67,4.17,4.17,0,0,1-1.35-1.93l2-1a2.76,2.76,0,0,0,.57,1,1.5,1.5,0,0,0,1.08.4,1.47,1.47,0,0,0,1-.35,1.23,1.23,0,0,0,.35-.82,1.12,1.12,0,0,0-.33-.8,3.15,3.15,0,0,0-1.05-.65l-.9-.43a5.15,5.15,0,0,1-1.45-.9,2.28,2.28,0,0,1-.75-1.77,3.28,3.28,0,0,1,.88-2.25,3.37,3.37,0,0,1,2.57-1A3.29,3.29,0,0,1,432,946a3.49,3.49,0,0,1,1.2,1.3Z"/><path d="M443.48,945.7h2.45v10.52h-2.45v-1.09a4,4,0,0,1-3.14,1.42c-3.25,0-5.1-2.7-5.1-5.6,0-3.42,2.35-5.52,5.12-5.52a3.82,3.82,0,0,1,3.12,1.5Zm-5.74,5.3a3.07,3.07,0,0,0,2.92,3.35,3,3,0,0,0,3-3.32c0-2.3-1.42-3.4-3-3.4C438.89,947.63,437.74,949.13,437.74,951Z"/><path d="M459.46,948.48a1.76,1.76,0,0,0-1.5-.9,1,1,0,0,0-.75.27.83.83,0,0,0-.22.55.66.66,0,0,0,.35.6c.15.1.3.15.82.43l1.25.62a5,5,0,0,1,1.47,1,2.57,2.57,0,0,1,.78,2,3.5,3.5,0,0,1-.93,2.4,3.76,3.76,0,0,1-2.94,1.17,3.65,3.65,0,0,1-2.28-.67,4.17,4.17,0,0,1-1.35-1.93l2-1a2.78,2.78,0,0,0,.58,1,1.5,1.5,0,0,0,1.07.4,1.43,1.43,0,0,0,1-.35,1.23,1.23,0,0,0,.35-.82,1.12,1.12,0,0,0-.33-.8,3,3,0,0,0-1-.65l-.9-.43a5,5,0,0,1-1.45-.9,2.28,2.28,0,0,1-.75-1.77,3.27,3.27,0,0,1,.87-2.25,3.41,3.41,0,0,1,2.58-1,3.26,3.26,0,0,1,1.94.55,3.49,3.49,0,0,1,1.2,1.3Z"/><path d="M471.56,945.7H474v10.52h-2.45v-1.09a4,4,0,0,1-3.15,1.42c-3.25,0-5.1-2.7-5.1-5.6,0-3.42,2.35-5.52,5.12-5.52a3.84,3.84,0,0,1,3.13,1.5Zm-5.75,5.3a3.07,3.07,0,0,0,2.92,3.35,3,3,0,0,0,3-3.32c0-2.3-1.43-3.4-3-3.4C467,947.63,465.81,949.13,465.81,951Z"/><path d="M485.93,939.55v16.67h-2.54V939.55Z"/><path d="M493.61,939.55a6.53,6.53,0,0,1,3.65.9,4.83,4.83,0,0,1,2.07,4,4.67,4.67,0,0,1-1.62,3.65,6,6,0,0,1-4.08,1.3h-1.15v6.77h-2.54V939.55Zm-1.13,7.55h1.15c2.2,0,3.25-1.07,3.25-2.62,0-.93-.37-2.58-3.27-2.58h-1.13Z"/><path d="M499.83,953.53a1.5,1.5,0,1,1-1.49,1.5A1.5,1.5,0,0,1,499.83,953.53Z"/><path d="M623.74,923.75h2v3.33h-2v3.14h-4v-3.14h-8.07V924.3l6.42-10.75h5.65Zm-4,0V917l-3.92,6.8Z"/><path d="M628.37,929.92a2.6,2.6,0,0,1,1.83-4.42,2.61,2.61,0,0,1,1.84.8,2.58,2.58,0,0,1,0,3.62,2.53,2.53,0,0,1-3.65,0Z"/><path d="M651.72,927.43h-6.05l-1.13,2.79H640l6.4-16.67h4.72l6.28,16.67h-4.63Zm-1.15-3.3-1.88-5.4-1.82,5.4Z"/><path d="M671.57,930.22h-4V929a4.11,4.11,0,0,1-3.38,1.6,5.36,5.36,0,0,1-3.92-1.55,6.18,6.18,0,0,1-1.8-4.45,6.08,6.08,0,0,1,1.82-4.42,5.72,5.72,0,0,1,4-1.5,4.41,4.41,0,0,1,3.33,1.45V912h4Zm-4.73-3.69a2.68,2.68,0,0,0,.85-1.9,2.9,2.9,0,0,0-.75-1.8,2.42,2.42,0,0,0-1.82-.75,2.46,2.46,0,0,0-1.78.72,2.74,2.74,0,0,0-.77,1.9,2.52,2.52,0,0,0,.77,1.75,2.48,2.48,0,0,0,1.78.75A2.73,2.73,0,0,0,666.84,926.53Z"/><path d="M674.32,919.05h4v1.83a3.6,3.6,0,0,1,1.57-1.55,4.32,4.32,0,0,1,2.08-.45l.8,0v3.77a3.54,3.54,0,0,0-1.73-.4,2.63,2.63,0,0,0-1.82.6,3.38,3.38,0,0,0-.9,2.55v4.77h-4Z"/><path d="M696.39,925.38h-8.32a2.78,2.78,0,0,0,.7,1.87,2.25,2.25,0,0,0,1.65.55,3.07,3.07,0,0,0,1.3-.3,1.9,1.9,0,0,0,.7-.75h3.82a4.91,4.91,0,0,1-1.35,2.3,6.06,6.06,0,0,1-4.55,1.55,6.35,6.35,0,0,1-4.62-1.7,5.88,5.88,0,0,1-1.65-4.22,6,6,0,0,1,1.67-4.33,6.31,6.31,0,0,1,4.58-1.62,6.12,6.12,0,0,1,4.3,1.52,6.27,6.27,0,0,1,1.77,4.7Zm-3.67-2.3a2.66,2.66,0,0,0-.65-1.2,2.31,2.31,0,0,0-1.65-.6,2.14,2.14,0,0,0-1.63.6,2.36,2.36,0,0,0-.6,1.2Z"/><path d="M699.42,926.53a5.52,5.52,0,0,0,1.6.82,5,5,0,0,0,1.55.28,1.72,1.72,0,0,0,1-.3.64.64,0,0,0,.2-.53.58.58,0,0,0-.2-.5,2.56,2.56,0,0,0-1.05-.4l-1-.25a3.55,3.55,0,0,1-2-1,2.74,2.74,0,0,1-.72-1.93,4,4,0,0,1,1-2.72,5.62,5.62,0,0,1,4-1.35,9.31,9.31,0,0,1,3.57.72L706.09,922a5.51,5.51,0,0,0-2.1-.55,1.67,1.67,0,0,0-.92.23.59.59,0,0,0-.35.55.64.64,0,0,0,.47.62c.38.15.7.15,1.33.33l.72.2a4.71,4.71,0,0,1,1.65.87,3.17,3.17,0,0,1,.85,2.23,3.73,3.73,0,0,1-1.12,2.77,5.81,5.81,0,0,1-4.13,1.4,8.25,8.25,0,0,1-4.49-1.3Z"/><path d="M718.44,919.05h4v11.17h-4V929a4.17,4.17,0,0,1-3.47,1.6,5.37,5.37,0,0,1-4-1.77,5.68,5.68,0,0,1-1.6-4.1,6.2,6.2,0,0,1,1.73-4.48,5.74,5.74,0,0,1,4-1.57,4.4,4.4,0,0,1,3.35,1.45Zm-4.2,3.75a2.63,2.63,0,0,0-.8,1.83,2.56,2.56,0,0,0,.78,1.82,2.79,2.79,0,0,0,1.8.75,2.56,2.56,0,0,0,1.8-.77,2.43,2.43,0,0,0,.75-1.8,2.46,2.46,0,0,0-.78-1.83,2.55,2.55,0,0,0-3.55,0Z"/><path d="M735.72,913.55v16.67h-4.33V913.55Z"/><path d="M743.54,924.7v5.52h-4.32V913.55h6.9a5.75,5.75,0,0,1,4.22,1.5,5.17,5.17,0,0,1,1.55,4.05,5.4,5.4,0,0,1-1.47,4.15,5.53,5.53,0,0,1-4.15,1.45Zm0-3.5H745a2.87,2.87,0,0,0,1.83-.52,1.94,1.94,0,0,0,.55-1.53,2,2,0,0,0-.5-1.5,2.56,2.56,0,0,0-1.85-.6h-1.48Z"/><path d="M768.29,919.05h4v11.17h-4V929a4.17,4.17,0,0,1-3.47,1.6,5.37,5.37,0,0,1-4-1.77,5.68,5.68,0,0,1-1.6-4.1,6.2,6.2,0,0,1,1.73-4.48,5.74,5.74,0,0,1,4-1.57,4.4,4.4,0,0,1,3.35,1.45Zm-4.2,3.75a2.63,2.63,0,0,0-.8,1.83,2.56,2.56,0,0,0,.78,1.82,2.79,2.79,0,0,0,1.8.75,2.56,2.56,0,0,0,1.8-.77,2.43,2.43,0,0,0,.75-1.8,2.46,2.46,0,0,0-.78-1.83,2.55,2.55,0,0,0-3.55,0Z"/><path d="M789.19,922.93a4.12,4.12,0,0,0-3-1.3,3.16,3.16,0,0,0-2.33.92A3.37,3.37,0,0,0,783,925a3.49,3.49,0,0,0,1,2.52,3.17,3.17,0,0,0,2.23.85,4.09,4.09,0,0,0,3-1.35v2.72a5.7,5.7,0,0,1-3.2.83,5.13,5.13,0,0,1-4-1.55,5.47,5.47,0,0,1-1.5-4,5.63,5.63,0,0,1,1.6-4.07,5.71,5.71,0,0,1,4.23-1.55,5.57,5.57,0,0,1,2.87.75Z"/><path d="M794,919.7v6a3.07,3.07,0,0,0,.45,1.9,2.14,2.14,0,0,0,3.2,0,3,3,0,0,0,.45-1.9v-6h2.45v6.1a4.41,4.41,0,0,1-1.12,3.45,4.8,4.8,0,0,1-3.43,1.3,4.64,4.64,0,0,1-3.32-1.3,4.38,4.38,0,0,1-1.13-3.45v-6.1Z"/><path d="M803.64,919.7h2.45v.95a4.45,4.45,0,0,1,1-.87,2.77,2.77,0,0,1,1.5-.35,3.61,3.61,0,0,1,1.92.5l-1,2.22a2.2,2.2,0,0,0-1.25-.37,1.89,1.89,0,0,0-1.52.57,3.39,3.39,0,0,0-.68,2.43v5.44h-2.45Z"/><path d="M816,922.48a1.76,1.76,0,0,0-1.5-.9,1,1,0,0,0-.75.27.83.83,0,0,0-.22.55.66.66,0,0,0,.35.6c.15.1.3.15.82.43l1.25.62a5.09,5.09,0,0,1,1.48,1,2.6,2.6,0,0,1,.77,2,3.54,3.54,0,0,1-.92,2.4,3.79,3.79,0,0,1-3,1.17,3.65,3.65,0,0,1-2.28-.67,4.17,4.17,0,0,1-1.35-1.93l2-1a2.78,2.78,0,0,0,.58,1,1.5,1.5,0,0,0,1.07.4,1.43,1.43,0,0,0,1-.35,1.23,1.23,0,0,0,.35-.82,1.15,1.15,0,0,0-.32-.8,3.15,3.15,0,0,0-1-.65l-.9-.43a5,5,0,0,1-1.45-.9,2.28,2.28,0,0,1-.75-1.77,3.27,3.27,0,0,1,.87-2.25,3.41,3.41,0,0,1,2.58-1,3.29,3.29,0,0,1,1.95.55,3.57,3.57,0,0,1,1.2,1.3Z"/><path d="M821.89,927.53a1.5,1.5,0,1,1-1.5,1.5A1.5,1.5,0,0,1,821.89,927.53Z"/><path d="M828.89,936h-2.45V919.7h2.45v1.15a4,4,0,0,1,3.13-1.42,5.14,5.14,0,0,1,5.12,5.47,5.33,5.33,0,0,1-5.1,5.65,4.19,4.19,0,0,1-3.15-1.55ZM828.74,925a3,3,0,0,0,3,3.32,3.07,3.07,0,0,0,2.92-3.35c0-1.87-1.15-3.37-2.92-3.37C830.17,921.63,828.74,922.73,828.74,925Z"/><path d="M842.14,919.7v6a3.07,3.07,0,0,0,.45,1.9,2.14,2.14,0,0,0,3.2,0,3,3,0,0,0,.45-1.9v-6h2.45v6.1a4.41,4.41,0,0,1-1.12,3.45,4.8,4.8,0,0,1-3.43,1.3,4.64,4.64,0,0,1-3.32-1.3,4.38,4.38,0,0,1-1.13-3.45v-6.1Z"/><path d="M854.24,920.93a3.84,3.84,0,0,1,3.13-1.5c2.77,0,5.12,2.1,5.12,5.52,0,2.9-1.85,5.6-5.1,5.6a4,4,0,0,1-3.15-1.42v1.09h-2.45V912h2.45Zm-.15,4.1a3,3,0,0,0,3,3.32A3.07,3.07,0,0,0,860,925c0-1.87-1.15-3.37-2.92-3.37C855.52,921.63,854.09,922.73,854.09,925Z"/><path d="M866.49,927.53A1.5,1.5,0,1,1,865,929,1.5,1.5,0,0,1,866.49,927.53Z"/><path d="M871,919.7h2.45v.95a4.45,4.45,0,0,1,1-.87,2.77,2.77,0,0,1,1.5-.35,3.61,3.61,0,0,1,1.92.5l-1,2.22a2.2,2.2,0,0,0-1.25-.37,1.89,1.89,0,0,0-1.52.57,3.39,3.39,0,0,0-.68,2.43v5.44H871Z"/><path d="M889.54,925a5.63,5.63,0,1,1-5.62-5.55A5.47,5.47,0,0,1,889.54,925Zm-2.5,0a3.13,3.13,0,1,0-3.12,3.35A3,3,0,0,0,887,925Z"/><path d="M662.54,955.38h-8.32a2.78,2.78,0,0,0,.7,1.87,2.25,2.25,0,0,0,1.65.55,3.07,3.07,0,0,0,1.3-.3,1.9,1.9,0,0,0,.7-.75h3.82a4.91,4.91,0,0,1-1.35,2.3,6.06,6.06,0,0,1-4.55,1.55,6.35,6.35,0,0,1-4.62-1.7,5.88,5.88,0,0,1-1.65-4.22,6,6,0,0,1,1.67-4.33,6.31,6.31,0,0,1,4.58-1.62,6.12,6.12,0,0,1,4.3,1.52,6.27,6.27,0,0,1,1.77,4.7Zm-3.67-2.3a2.66,2.66,0,0,0-.65-1.2,2.31,2.31,0,0,0-1.65-.6,2.14,2.14,0,0,0-1.63.6,2.36,2.36,0,0,0-.6,1.2Z"/><path d="M665.57,956.53a5.52,5.52,0,0,0,1.6.82,5,5,0,0,0,1.55.28,1.72,1.72,0,0,0,1-.3.64.64,0,0,0,.2-.53.58.58,0,0,0-.2-.5,2.56,2.56,0,0,0-1-.4l-1.05-.25a3.55,3.55,0,0,1-1.95-1,2.74,2.74,0,0,1-.72-1.93,4,4,0,0,1,1-2.72,5.62,5.62,0,0,1,4-1.35,9.31,9.31,0,0,1,3.57.72L672.24,952a5.51,5.51,0,0,0-2.1-.55,1.67,1.67,0,0,0-.92.23.59.59,0,0,0-.35.55.64.64,0,0,0,.47.62c.38.15.7.15,1.33.33l.72.2a4.71,4.71,0,0,1,1.65.87,3.17,3.17,0,0,1,.85,2.23,3.73,3.73,0,0,1-1.12,2.77,5.81,5.81,0,0,1-4.13,1.4,8.25,8.25,0,0,1-4.49-1.3Z"/><path d="M680.37,952.33v7.89h-4v-7.89h-1.28v-3.28h1.28v-3.67h4v3.67h2.27v3.28Z"/><path d="M696,955.38h-8.32a2.78,2.78,0,0,0,.7,1.87,2.25,2.25,0,0,0,1.65.55,3.07,3.07,0,0,0,1.3-.3,1.9,1.9,0,0,0,.7-.75h3.82a4.91,4.91,0,0,1-1.35,2.3,6.06,6.06,0,0,1-4.55,1.55,6.35,6.35,0,0,1-4.62-1.7,5.84,5.84,0,0,1-1.65-4.22,6,6,0,0,1,1.67-4.33,6.31,6.31,0,0,1,4.58-1.62,6.12,6.12,0,0,1,4.3,1.52A6.27,6.27,0,0,1,696,955Zm-3.67-2.3a2.66,2.66,0,0,0-.65-1.2,2.31,2.31,0,0,0-1.65-.6,2.14,2.14,0,0,0-1.63.6,2.36,2.36,0,0,0-.6,1.2Z"/><path d="M709,945.9h-2.9l1.4-2.35h4v16.67H709Z"/><path d="M724.39,954.73h1.8v2.35h-1.8v3.14h-2.45v-3.14h-8.25l10.7-14.75Zm-2.45,0V949.4l-3.8,5.38Z"/><path d="M731.07,945.9h-2.9l1.4-2.35h4v16.67h-2.55Z"/><path d="M740.57,957.53a1.5,1.5,0,1,1-1.5,1.5A1.5,1.5,0,0,1,740.57,957.53Z"/><path d="M755.17,952.9a4.06,4.06,0,0,1,.75,2.5,5,5,0,0,1-1.33,3.55,5.74,5.74,0,0,1-7.85,0,5,5,0,0,1-1.32-3.55,4,4,0,0,1,.75-2.5,4.12,4.12,0,0,1,1.75-1.35,3.41,3.41,0,0,1-1.48-1.25,4.39,4.39,0,0,1-.6-2.27,4.83,4.83,0,1,1,9.65,0,4.39,4.39,0,0,1-.6,2.27,3.37,3.37,0,0,1-1.47,1.25A4.25,4.25,0,0,1,755.17,952.9Zm-6.48.53a3,3,0,0,0,0,4,2.78,2.78,0,0,0,4,0,3,3,0,0,0,0-4,2.89,2.89,0,0,0-3.95,0Zm.15-7.23a2.66,2.66,0,0,0-.7,1.85,2.41,2.41,0,0,0,.68,1.75,2.66,2.66,0,0,0,3.7,0,2.45,2.45,0,0,0,.67-1.75,2.61,2.61,0,0,0-4.35-1.85Z"/><path d="M769.12,945.9H764l-.83,2.78a6.81,6.81,0,0,1,.78,0,5.51,5.51,0,0,1,3.85,1.47,5.74,5.74,0,0,1,1.62,4.28,6,6,0,0,1-1.7,4.42,7.16,7.16,0,0,1-7.82,1,6.07,6.07,0,0,1-2-1.92l1.93-1.6a3.6,3.6,0,0,0,3.45,2,3.55,3.55,0,0,0,2.55-.92,3.88,3.88,0,0,0,1.07-2.83,3.52,3.52,0,0,0-1-2.7,3.92,3.92,0,0,0-2.72-.92,5.15,5.15,0,0,0-1.95.35,6.65,6.65,0,0,0-1.48.75l2.48-8.43h6.9Z"/><path d="M774.39,957.53a1.5,1.5,0,1,1-1.5,1.5A1.5,1.5,0,0,1,774.39,957.53Z"/><path d="M789.44,960.22h-11.2l5.78-7c.57-.7,1.45-1.8,2-2.6a4.17,4.17,0,0,0,.87-2.4,2.6,2.6,0,0,0-2.77-2.7,3,3,0,0,0-3,3h-2.45a6,6,0,0,1,1.4-3.65,5,5,0,0,1,3.9-1.62c3.54,0,5.37,2.42,5.37,5a6.09,6.09,0,0,1-1.2,3.5,33,33,0,0,1-2.37,3l-2.6,3.08h6.22Z"/><path d="M803.64,960.22h-11.2l5.78-7c.57-.7,1.45-1.8,2-2.6a4.11,4.11,0,0,0,.88-2.4,2.6,2.6,0,0,0-2.77-2.7,3,3,0,0,0-3,3h-2.45a6,6,0,0,1,1.4-3.65,5,5,0,0,1,3.9-1.62c3.54,0,5.37,2.42,5.37,5a6.17,6.17,0,0,1-1.2,3.5,33,33,0,0,1-2.37,3l-2.6,3.08h6.22Z"/><path d="M815.26,954.73h1.8v2.35h-1.8v3.14h-2.44v-3.14h-8.25l10.69-14.75Zm-2.44,0V949.4l-3.8,5.38Z"/><path d="M821.27,957.53a1.5,1.5,0,1,1-1.5,1.5A1.5,1.5,0,0,1,821.27,957.53Z"/><path d="M827.27,945.9h-2.9l1.4-2.35h4v16.67h-2.54Z"/><path d="M844,952.9a4,4,0,0,1,.75,2.5,5,5,0,0,1-1.32,3.55,5.74,5.74,0,0,1-7.85,0,5,5,0,0,1-1.32-3.55,4,4,0,0,1,.75-2.5,4.12,4.12,0,0,1,1.75-1.35,3.41,3.41,0,0,1-1.48-1.25,4.39,4.39,0,0,1-.6-2.27,4.83,4.83,0,1,1,9.65,0,4.39,4.39,0,0,1-.6,2.27,3.41,3.41,0,0,1-1.48,1.25A4.12,4.12,0,0,1,844,952.9Zm-6.47.53a3,3,0,0,0,0,4,2.77,2.77,0,0,0,4,0,3,3,0,0,0,0-4,2.89,2.89,0,0,0-4,0Zm.15-7.23a2.66,2.66,0,0,0-.7,1.85,2.41,2.41,0,0,0,.68,1.75,2.64,2.64,0,0,0,3.69,0,2.41,2.41,0,0,0,.68-1.75,2.66,2.66,0,0,0-.7-1.85,2.82,2.82,0,0,0-3.65,0Z"/><path d="M849.62,957.53a1.5,1.5,0,1,1-1.5,1.5A1.5,1.5,0,0,1,849.62,957.53Z"/><path d="M506.78,461.23H501l-.3,1.85a9.4,9.4,0,0,1,1.35-.13,6,6,0,0,1,4.4,1.65,5.44,5.44,0,0,1,1.52,3.95,5.81,5.81,0,0,1-1.6,4.17,7,7,0,0,1-5.2,1.88,10.12,10.12,0,0,1-5.62-1.5l.65-4.05a7.75,7.75,0,0,0,2,1.35,6.18,6.18,0,0,0,2.5.58,3,3,0,0,0,2.17-.83,2.47,2.47,0,0,0,.65-1.7,2.35,2.35,0,0,0-.8-1.8,4.79,4.79,0,0,0-3-.82,6.71,6.71,0,0,0-3.07.7l1.45-9h8.67Z"/><path d="M511.39,473.92a2.6,2.6,0,0,1,1.82-4.42,2.63,2.63,0,0,1,1.85.8,2.6,2.6,0,0,1,0,3.62,2.51,2.51,0,0,1-3.64,0Z"/><path d="M529.06,459.9h-2.9l1.4-2.35h4.05v16.67h-2.55Z"/><path d="M544.46,468.73h1.8v2.35h-1.8v3.14H542v-3.14h-8.25l10.7-14.75Zm-2.45,0V463.4l-3.8,5.38Z"/><path d="M551.13,459.9h-2.9l1.4-2.35h4v16.67h-2.55Z"/><path d="M560.63,471.53a1.5,1.5,0,1,1-1.5,1.5A1.5,1.5,0,0,1,560.63,471.53Z"/><path d="M575.23,466.9a4,4,0,0,1,.75,2.5,5,5,0,0,1-1.32,3.55,5.74,5.74,0,0,1-7.85,0,5,5,0,0,1-1.33-3.55,4.06,4.06,0,0,1,.75-2.5,4.25,4.25,0,0,1,1.75-1.35,3.37,3.37,0,0,1-1.47-1.25,4.29,4.29,0,0,1-.6-2.27,4.83,4.83,0,1,1,9.65,0,4.39,4.39,0,0,1-.6,2.27,3.41,3.41,0,0,1-1.48,1.25A4.12,4.12,0,0,1,575.23,466.9Zm-6.47.53a3,3,0,0,0,0,4,2.78,2.78,0,0,0,4,0,3,3,0,0,0,0-4,2.89,2.89,0,0,0-4,0Zm.15-7.23a2.62,2.62,0,0,0-.7,1.85,2.45,2.45,0,0,0,.67,1.75,2.66,2.66,0,0,0,3.7,0,2.41,2.41,0,0,0,.68-1.75,2.66,2.66,0,0,0-.7-1.85,2.82,2.82,0,0,0-3.65,0Z"/><path d="M589.18,459.9H584l-.82,2.78a6.64,6.64,0,0,1,.77-.05,5.49,5.49,0,0,1,3.85,1.47,5.7,5.7,0,0,1,1.63,4.28,6,6,0,0,1-1.7,4.42,7.17,7.17,0,0,1-7.83.95,6,6,0,0,1-2-1.92l1.92-1.6a3.63,3.63,0,0,0,3.45,2,3.53,3.53,0,0,0,2.55-.92A3.88,3.88,0,0,0,587,468.5a3.56,3.56,0,0,0-1-2.7,4,4,0,0,0-2.73-.92,5.22,5.22,0,0,0-2,.35,6.58,6.58,0,0,0-1.47.75l2.47-8.43h6.9Z"/><path d="M594.46,471.53A1.5,1.5,0,1,1,593,473,1.5,1.5,0,0,1,594.46,471.53Z"/><path d="M609.51,474.22h-11.2l5.77-7c.58-.7,1.45-1.8,2-2.6a4.11,4.11,0,0,0,.88-2.4,2.61,2.61,0,0,0-2.78-2.7,3,3,0,0,0-2.95,3h-2.45a6.06,6.06,0,0,1,1.4-3.65,5,5,0,0,1,3.9-1.62c3.55,0,5.38,2.42,5.38,5a6.17,6.17,0,0,1-1.2,3.5,33.34,33.34,0,0,1-2.38,3l-2.6,3.08h6.23Z"/><path d="M623.71,474.22h-11.2l5.77-7c.58-.7,1.45-1.8,2-2.6a4.11,4.11,0,0,0,.88-2.4,2.61,2.61,0,0,0-2.78-2.7,3,3,0,0,0-3,3H613a6.06,6.06,0,0,1,1.4-3.65,5,5,0,0,1,3.9-1.62c3.55,0,5.38,2.42,5.38,5a6.17,6.17,0,0,1-1.2,3.5,33.34,33.34,0,0,1-2.38,3l-2.6,3.08h6.23Z"/><path d="M635.33,468.73h1.8v2.35h-1.8v3.14h-2.45v-3.14h-8.25l10.7-14.75Zm-2.45,0V463.4l-3.8,5.38Z"/><path d="M641.33,471.53a1.5,1.5,0,1,1-1.5,1.5A1.5,1.5,0,0,1,641.33,471.53Z"/><path d="M647.33,459.9h-2.9l1.4-2.35h4v16.67h-2.55Z"/><path d="M664.08,466.9a4,4,0,0,1,.75,2.5,5,5,0,0,1-1.32,3.55,5.74,5.74,0,0,1-7.85,0,5,5,0,0,1-1.33-3.55,4.06,4.06,0,0,1,.75-2.5,4.25,4.25,0,0,1,1.75-1.35,3.37,3.37,0,0,1-1.47-1.25,4.29,4.29,0,0,1-.6-2.27,4.82,4.82,0,1,1,9.64,0,4.38,4.38,0,0,1-.59,2.27,3.41,3.41,0,0,1-1.48,1.25A4.12,4.12,0,0,1,664.08,466.9Zm-6.47.53a3,3,0,0,0,0,4,2.78,2.78,0,0,0,4,0,3,3,0,0,0,0-4,2.89,2.89,0,0,0-3.95,0Zm.15-7.23a2.62,2.62,0,0,0-.7,1.85,2.45,2.45,0,0,0,.67,1.75,2.66,2.66,0,0,0,3.7,0,2.41,2.41,0,0,0,.68-1.75,2.66,2.66,0,0,0-.7-1.85,2.82,2.82,0,0,0-3.65,0Z"/><path d="M669.11,471.1l2.2.85-3.1,6.17-1.65-.67Z"/><path d="M481.91,504.22h-4V503a4.11,4.11,0,0,1-3.38,1.6,5.36,5.36,0,0,1-3.92-1.55,6.18,6.18,0,0,1-1.8-4.45,6.05,6.05,0,0,1,1.83-4.42,5.68,5.68,0,0,1,3.94-1.5,4.41,4.41,0,0,1,3.33,1.45V486h4Zm-4.73-3.69a2.68,2.68,0,0,0,.85-1.9,2.9,2.9,0,0,0-.75-1.8,2.42,2.42,0,0,0-1.82-.75,2.46,2.46,0,0,0-1.78.72,2.74,2.74,0,0,0-.77,1.9,2.52,2.52,0,0,0,.77,1.75,2.48,2.48,0,0,0,1.78.75A2.73,2.73,0,0,0,477.18,500.53Z"/><path d="M493.31,493.05h4v11.17h-4V503a4.2,4.2,0,0,1-3.48,1.6,5.35,5.35,0,0,1-4-1.77,5.68,5.68,0,0,1-1.6-4.1,6.2,6.2,0,0,1,1.73-4.48,5.72,5.72,0,0,1,4-1.57,4.41,4.41,0,0,1,3.35,1.45Zm-4.2,3.75a2.63,2.63,0,0,0-.8,1.83,2.55,2.55,0,0,0,.77,1.82,2.83,2.83,0,0,0,1.8.75,2.56,2.56,0,0,0,1.8-.77,2.43,2.43,0,0,0,.75-1.8,2.49,2.49,0,0,0-.77-1.83,2.57,2.57,0,0,0-1.8-.72A2.54,2.54,0,0,0,489.11,496.8Z"/><path d="M499.94,495.85h6.32v3.33h-6.32Z"/><path d="M508.88,493.05h4v1.35a4.29,4.29,0,0,1,3.35-1.55,4.61,4.61,0,0,1,2.15.5,3.46,3.46,0,0,1,1.55,1.6,4,4,0,0,1,1.53-1.55,4.51,4.51,0,0,1,2.32-.55,4.43,4.43,0,0,1,3.1,1,4.09,4.09,0,0,1,1,3.07v7.27h-4V498.7a3.34,3.34,0,0,0-.57-2.4,1.48,1.48,0,0,0-1.05-.37,1.61,1.61,0,0,0-1.18.45,2.86,2.86,0,0,0-.72,2.12v5.72h-4V498.7a3.59,3.59,0,0,0-.53-2.4,1.57,1.57,0,0,0-1.2-.45,1.44,1.44,0,0,0-1.1.4,3.31,3.31,0,0,0-.7,2.45v5.52h-4Z"/><path d="M532.71,486.15a2.25,2.25,0,1,1-2.25,2.25A2.24,2.24,0,0,1,532.71,486.15Zm2,6.9v11.17h-4V493.05Z"/><path d="M547.68,496.33v7.89h-4v-7.89h-1.27v-3.28h1.27v-3.67h4v3.67H550v3.28Z"/><path d="M563.31,499.38H555a2.83,2.83,0,0,0,.7,1.87,2.25,2.25,0,0,0,1.65.55,3.07,3.07,0,0,0,1.3-.3,1.83,1.83,0,0,0,.7-.75h3.83a5.09,5.09,0,0,1-1.35,2.3,6.09,6.09,0,0,1-4.55,1.55,6.37,6.37,0,0,1-4.63-1.7,5.88,5.88,0,0,1-1.65-4.22,6,6,0,0,1,1.68-4.33,6.27,6.27,0,0,1,4.57-1.62,6.11,6.11,0,0,1,4.3,1.52,6.24,6.24,0,0,1,1.78,4.7Zm-3.68-2.3a2.66,2.66,0,0,0-.65-1.2,2.3,2.3,0,0,0-1.65-.6,2.12,2.12,0,0,0-1.62.6,2.21,2.21,0,0,0-.6,1.2Z"/><path d="M571.43,493.05h4v1.83a3.61,3.61,0,0,1,1.58-1.55,4.28,4.28,0,0,1,2.07-.45l.8.05v3.77a3.52,3.52,0,0,0-1.72-.4,2.66,2.66,0,0,0-1.83.6,3.38,3.38,0,0,0-.9,2.55v4.77h-4Z"/><path d="M592.41,502.75a7.65,7.65,0,0,1-10,0,5.77,5.77,0,0,1,0-8.22,7.65,7.65,0,0,1,10,0,5.77,5.77,0,0,1,0,8.22Zm-6.78-5.95a2.49,2.49,0,0,0,0,3.6,2.51,2.51,0,0,0,3.58,0,2.44,2.44,0,0,0,.77-1.77,2.72,2.72,0,0,0-.77-1.83,2.59,2.59,0,0,0-3.58,0Z"/><path d="M609,493.05v10.47a6,6,0,0,1-1.53,4.63,6.65,6.65,0,0,1-4.92,1.8,6.87,6.87,0,0,1-5.23-2,4,4,0,0,1-1.22-2.32h4.45a1.71,1.71,0,0,0,1.87,1.15,2.45,2.45,0,0,0,1.78-.63,2.69,2.69,0,0,0,.8-2.07V503a4.24,4.24,0,0,1-3.35,1.48,5.6,5.6,0,0,1-4.13-1.57A5.91,5.91,0,0,1,596,498.8a6.44,6.44,0,0,1,1.65-4.37,5.61,5.61,0,0,1,4-1.7A4.39,4.39,0,0,1,605,494.2v-1.15Zm-8.15,3.75a2.5,2.5,0,0,0,0,3.63,2.54,2.54,0,0,0,1.8.72,2.56,2.56,0,0,0,2.55-2.55,2.88,2.88,0,0,0-.8-1.82,2.54,2.54,0,0,0-1.78-.73A2.39,2.39,0,0,0,600.86,496.8Z"/><path d="M621.58,510h-4v-16.9h4v1.23a4.17,4.17,0,0,1,3.43-1.6,5.55,5.55,0,0,1,4,1.62,6.35,6.35,0,0,1-.1,8.75,5.39,5.39,0,0,1-3.82,1.55,4.76,4.76,0,0,1-3.48-1.45Zm.65-13.12a2.51,2.51,0,0,0,0,3.62,2.55,2.55,0,0,0,1.8.75,2.41,2.41,0,0,0,1.78-.75,2.65,2.65,0,0,0,.77-1.77,2.71,2.71,0,0,0-.77-1.85,2.41,2.41,0,0,0-1.78-.75A2.55,2.55,0,0,0,622.23,496.83Z"/><path d="M641.63,493.05h4v11.17h-4V503a4.17,4.17,0,0,1-3.47,1.6,5.37,5.37,0,0,1-4-1.77,5.68,5.68,0,0,1-1.6-4.1,6.2,6.2,0,0,1,1.73-4.48,5.74,5.74,0,0,1,4-1.57,4.4,4.4,0,0,1,3.35,1.45Zm-4.2,3.75a2.63,2.63,0,0,0-.8,1.83,2.56,2.56,0,0,0,.78,1.82,2.79,2.79,0,0,0,1.8.75,2.56,2.56,0,0,0,1.8-.77,2.43,2.43,0,0,0,.75-1.8,2.46,2.46,0,0,0-.78-1.83,2.55,2.55,0,0,0-3.55,0Z"/><path d="M661,493.05v10.47a6,6,0,0,1-1.53,4.63,6.65,6.65,0,0,1-4.92,1.8,6.87,6.87,0,0,1-5.23-2,4,4,0,0,1-1.22-2.32h4.45a1.71,1.71,0,0,0,1.87,1.15,2.45,2.45,0,0,0,1.78-.63,2.69,2.69,0,0,0,.8-2.07V503a4.24,4.24,0,0,1-3.35,1.48,5.6,5.6,0,0,1-4.13-1.57,5.91,5.91,0,0,1-1.55-4.08,6.44,6.44,0,0,1,1.65-4.37,5.61,5.61,0,0,1,4-1.7A4.39,4.39,0,0,1,657,494.2v-1.15Zm-8.15,3.75a2.5,2.5,0,0,0,0,3.63,2.54,2.54,0,0,0,1.8.72,2.56,2.56,0,0,0,2.55-2.55,2.88,2.88,0,0,0-.8-1.82,2.54,2.54,0,0,0-1.78-.73A2.39,2.39,0,0,0,652.81,496.8Z"/><path d="M665.71,486.15a2.25,2.25,0,1,1-2.25,2.25A2.24,2.24,0,0,1,665.71,486.15Zm2,6.9v11.17h-4V493.05Z"/><path d="M670.43,493.05h4v1.4A4.22,4.22,0,0,1,678,492.8a4.53,4.53,0,0,1,3.3,1.2,3.86,3.86,0,0,1,1.05,3.13v7.09h-4v-5.64a3.19,3.19,0,0,0-.5-2.18,1.65,1.65,0,0,0-1.27-.47,2.2,2.2,0,0,0-1.48.52,2.58,2.58,0,0,0-.65,1.78v6h-4Z"/><path d="M693.71,493.05h4v11.17h-4V503a4.2,4.2,0,0,1-3.48,1.6,5.35,5.35,0,0,1-4-1.77,5.64,5.64,0,0,1-1.6-4.1,6.19,6.19,0,0,1,1.72-4.48,5.76,5.76,0,0,1,4-1.57,4.41,4.41,0,0,1,3.35,1.45Zm-4.2,3.75a2.63,2.63,0,0,0-.8,1.83,2.55,2.55,0,0,0,.77,1.82,2.83,2.83,0,0,0,1.8.75,2.56,2.56,0,0,0,1.8-.77,2.43,2.43,0,0,0,.75-1.8,2.49,2.49,0,0,0-.77-1.83,2.57,2.57,0,0,0-1.8-.72A2.54,2.54,0,0,0,689.51,496.8Z"/><path d="M57.37,465.55l-4.75,5.68A5.9,5.9,0,0,1,55,470.7a5.41,5.41,0,0,1,3.77,1.6,5.35,5.35,0,0,1,1.57,4,5.84,5.84,0,0,1-1.72,4.35,7.3,7.3,0,0,1-5.32,2,7.35,7.35,0,0,1-5.48-2,5.47,5.47,0,0,1-1.52-3.9,10.79,10.79,0,0,1,2.47-6.23l3.73-4.9ZM55.1,478.4a2.69,2.69,0,0,0,.77-1.9,2.39,2.39,0,0,0-.77-1.75,2.73,2.73,0,0,0-1.93-.77,2.91,2.91,0,0,0-1.87.72,2.45,2.45,0,0,0-.83,1.73,2.7,2.7,0,0,0,2.7,2.75A2.65,2.65,0,0,0,55.1,478.4Z"/><path d="M62.75,481.92a2.51,2.51,0,0,1,0-3.64,2.53,2.53,0,0,1,1.82-.78,2.62,2.62,0,0,1,1.85.8,2.58,2.58,0,0,1,0,3.62,2.56,2.56,0,0,1-1.83.78A2.53,2.53,0,0,1,62.75,481.92Z"/><path d="M80.25,476.7v5.52H75.92V465.55h6.9a5.75,5.75,0,0,1,4.22,1.5,5.17,5.17,0,0,1,1.55,4.05,5.4,5.4,0,0,1-1.47,4.15A5.53,5.53,0,0,1,83,476.7Zm0-3.5H81.7a2.83,2.83,0,0,0,1.82-.52,1.9,1.9,0,0,0,.55-1.53,2,2,0,0,0-.5-1.5,2.56,2.56,0,0,0-1.85-.6H80.25Z"/><path d="M98.87,471.05h4v11.17h-4V481a4.17,4.17,0,0,1-3.47,1.6,5.37,5.37,0,0,1-4-1.77,5.68,5.68,0,0,1-1.6-4.1,6.2,6.2,0,0,1,1.73-4.48,5.74,5.74,0,0,1,4-1.57,4.4,4.4,0,0,1,3.35,1.45Zm-4.2,3.75a2.63,2.63,0,0,0-.8,1.83,2.56,2.56,0,0,0,.78,1.82,2.79,2.79,0,0,0,1.8.75,2.56,2.56,0,0,0,1.8-.77,2.43,2.43,0,0,0,.75-1.8,2.46,2.46,0,0,0-.78-1.83,2.55,2.55,0,0,0-3.55,0Z"/><path d="M118.19,471.05v10.47a6,6,0,0,1-1.52,4.63,6.65,6.65,0,0,1-4.92,1.8,6.87,6.87,0,0,1-5.23-2,4,4,0,0,1-1.22-2.32h4.45a1.71,1.71,0,0,0,1.87,1.15,2.45,2.45,0,0,0,1.78-.63,2.69,2.69,0,0,0,.8-2.07V481a4.24,4.24,0,0,1-3.35,1.48,5.6,5.6,0,0,1-4.13-1.57,5.91,5.91,0,0,1-1.55-4.08,6.44,6.44,0,0,1,1.65-4.37,5.61,5.61,0,0,1,4.05-1.7,4.39,4.39,0,0,1,3.33,1.47v-1.15Zm-8.14,3.75a2.5,2.5,0,0,0,0,3.63,2.54,2.54,0,0,0,1.8.72,2.56,2.56,0,0,0,2.55-2.55,2.88,2.88,0,0,0-.8-1.82,2.54,2.54,0,0,0-1.78-.73A2.39,2.39,0,0,0,110.05,474.8Z"/><path d="M123,464.15a2.25,2.25,0,1,1-2.25,2.25A2.24,2.24,0,0,1,123,464.15Zm2,6.9v11.17h-4V471.05Z"/><path d="M127.67,471.05h4v1.4a4.22,4.22,0,0,1,3.55-1.65,4.53,4.53,0,0,1,3.3,1.2,3.86,3.86,0,0,1,1,3.13v7.09h-4v-5.64a3.19,3.19,0,0,0-.5-2.18,1.65,1.65,0,0,0-1.27-.47,2.2,2.2,0,0,0-1.48.52,2.58,2.58,0,0,0-.65,1.78v6h-4Z"/><path d="M151,471.05h4v11.17h-4V481a4.2,4.2,0,0,1-3.48,1.6,5.35,5.35,0,0,1-4-1.77,5.64,5.64,0,0,1-1.6-4.1,6.19,6.19,0,0,1,1.72-4.48,5.76,5.76,0,0,1,4-1.57,4.41,4.41,0,0,1,3.35,1.45Zm-4.2,3.75a2.63,2.63,0,0,0-.8,1.83,2.55,2.55,0,0,0,.77,1.82,2.83,2.83,0,0,0,1.8.75,2.56,2.56,0,0,0,1.8-.77,2.43,2.43,0,0,0,.75-1.8,2.49,2.49,0,0,0-.77-1.83,2.57,2.57,0,0,0-1.8-.72A2.54,2.54,0,0,0,146.75,474.8Z"/><path d="M171.85,474.93a4.15,4.15,0,0,0-3-1.3,3.14,3.14,0,0,0-2.32.92,3.37,3.37,0,0,0-.9,2.43,3.45,3.45,0,0,0,.95,2.52,3.15,3.15,0,0,0,2.22.85,4.11,4.11,0,0,0,3-1.35v2.72a5.73,5.73,0,0,1-3.2.83,5.13,5.13,0,0,1-4-1.55,5.47,5.47,0,0,1-1.5-3.95,5.59,5.59,0,0,1,1.6-4.07,6.27,6.27,0,0,1,7.1-.8Z"/><path d="M176.65,471.7v6a3,3,0,0,0,.45,1.9,2.14,2.14,0,0,0,3.2,0,3.07,3.07,0,0,0,.45-1.9v-6h2.44v6.1a4.41,4.41,0,0,1-1.12,3.45,4.8,4.8,0,0,1-3.42,1.3,4.65,4.65,0,0,1-3.33-1.3,4.41,4.41,0,0,1-1.12-3.45v-6.1Z"/><path d="M186.3,471.7h2.45v.95a4.21,4.21,0,0,1,1-.87,2.79,2.79,0,0,1,1.5-.35,3.61,3.61,0,0,1,1.92.5l-1,2.22a2.2,2.2,0,0,0-1.25-.37,1.91,1.91,0,0,0-1.53.57,3.43,3.43,0,0,0-.67,2.43v5.44H186.3Z"/><path d="M198.7,474.48a1.77,1.77,0,0,0-1.5-.9,1,1,0,0,0-.75.27.79.79,0,0,0-.23.55.68.68,0,0,0,.35.6c.15.1.3.15.83.43l1.25.62a5,5,0,0,1,1.47,1,2.57,2.57,0,0,1,.78,2,3.5,3.5,0,0,1-.93,2.4,3.78,3.78,0,0,1-2.95,1.17,3.64,3.64,0,0,1-2.27-.67A4.17,4.17,0,0,1,193.4,480l2-.95a2.76,2.76,0,0,0,.57,1,1.5,1.5,0,0,0,1.08.4,1.47,1.47,0,0,0,1-.35,1.23,1.23,0,0,0,.35-.82,1.12,1.12,0,0,0-.33-.8,3.15,3.15,0,0,0-1-.65l-.9-.43a5.15,5.15,0,0,1-1.45-.9,2.28,2.28,0,0,1-.75-1.77,3.28,3.28,0,0,1,.88-2.25,3.37,3.37,0,0,1,2.57-1,3.29,3.29,0,0,1,1.95.55,3.49,3.49,0,0,1,1.2,1.3Z"/><path d="M204.55,479.53a1.5,1.5,0,1,1-1.5,1.5A1.5,1.5,0,0,1,204.55,479.53Z"/><path d="M211.55,488H209.1V471.7h2.45v1.15a4,4,0,0,1,3.12-1.42,5.14,5.14,0,0,1,5.12,5.47,5.33,5.33,0,0,1-5.1,5.65,4.17,4.17,0,0,1-3.14-1.55ZM211.4,477a3,3,0,0,0,3,3.32,3.07,3.07,0,0,0,2.92-3.35c0-1.87-1.15-3.37-2.92-3.37C212.82,473.63,211.4,474.73,211.4,477Z"/><path d="M224.8,471.7v6a3,3,0,0,0,.45,1.9,2.13,2.13,0,0,0,3.19,0,3,3,0,0,0,.45-1.9v-6h2.45v6.1a4.41,4.41,0,0,1-1.12,3.45,4.8,4.8,0,0,1-3.43,1.3,4.64,4.64,0,0,1-3.32-1.3,4.41,4.41,0,0,1-1.12-3.45v-6.1Z"/><path d="M236.9,472.93a3.81,3.81,0,0,1,3.12-1.5c2.77,0,5.12,2.1,5.12,5.52,0,2.9-1.85,5.6-5.1,5.6a4,4,0,0,1-3.14-1.42v1.09h-2.45V464h2.45Zm-.15,4.1a3,3,0,0,0,3,3.32,3.07,3.07,0,0,0,2.92-3.35c0-1.87-1.15-3.37-2.92-3.37C238.17,473.63,236.75,474.73,236.75,477Z"/><path d="M249.15,479.53a1.5,1.5,0,1,1-1.5,1.5A1.5,1.5,0,0,1,249.15,479.53Z"/><path d="M253.7,471.7h2.45v.95a4.21,4.21,0,0,1,1-.87,2.77,2.77,0,0,1,1.5-.35,3.61,3.61,0,0,1,1.92.5l-1,2.22a2.2,2.2,0,0,0-1.25-.37,1.89,1.89,0,0,0-1.52.57,3.43,3.43,0,0,0-.67,2.43v5.44H253.7Z"/><path d="M272.19,477a5.62,5.62,0,1,1-5.62-5.55A5.47,5.47,0,0,1,272.19,477Zm-2.5,0a3.13,3.13,0,1,0-3.12,3.35A3,3,0,0,0,269.69,477Z"/><path d="M619.26,669.53a2.56,2.56,0,0,0,.67,1.67,2.31,2.31,0,0,0,1.7.65,2.21,2.21,0,0,0,1.7-.72,2,2,0,0,0,.5-1.38,1.91,1.91,0,0,0-.65-1.47,2.6,2.6,0,0,0-1.6-.48,2.32,2.32,0,0,0-.72.1V665a2.13,2.13,0,0,0,1.77-.43,1.56,1.56,0,0,0,.55-1.17,1.85,1.85,0,0,0-.45-1.2,1.76,1.76,0,0,0-1.22-.45,1.68,1.68,0,0,0-1.2.42,2.09,2.09,0,0,0-.58,1.48h-4a5.94,5.94,0,0,1,1.62-3.83,6.69,6.69,0,0,1,8.55-.15,4.52,4.52,0,0,1,1.35,3.23,4,4,0,0,1-.5,2,2.84,2.84,0,0,1-1.27,1.27,4.12,4.12,0,0,1,2,1.53,4.18,4.18,0,0,1,.7,2.45,5,5,0,0,1-1.47,3.65,6.88,6.88,0,0,1-5,1.77,6.77,6.77,0,0,1-4.77-1.72,6.67,6.67,0,0,1-2.08-4.35Z"/><path d="M631.11,674.92a2.51,2.51,0,0,1,0-3.64,2.53,2.53,0,0,1,1.82-.78,2.62,2.62,0,0,1,1.85.8,2.58,2.58,0,0,1,0,3.62,2.56,2.56,0,0,1-1.83.78A2.53,2.53,0,0,1,631.11,674.92Z"/><path d="M656.25,674.77a10.17,10.17,0,0,1-3.74.83,9.06,9.06,0,0,1-6.45-2.5,8.72,8.72,0,0,1-2.53-6.07,8.76,8.76,0,0,1,8.83-8.75,10.16,10.16,0,0,1,3.89.85v5.17a4.64,4.64,0,0,0-3.77-1.82,4.2,4.2,0,0,0-3,1.1A4.67,4.67,0,0,0,648,667a4.27,4.27,0,0,0,4.45,4.4,4.86,4.86,0,0,0,3.77-1.75Z"/><path d="M667.28,664.05h4v11.17h-4V674a4.17,4.17,0,0,1-3.47,1.6,5.37,5.37,0,0,1-4-1.77,5.68,5.68,0,0,1-1.6-4.1,6.2,6.2,0,0,1,1.73-4.48,5.74,5.74,0,0,1,4-1.57,4.4,4.4,0,0,1,3.35,1.45Zm-4.2,3.75a2.63,2.63,0,0,0-.8,1.83,2.56,2.56,0,0,0,.78,1.82,2.79,2.79,0,0,0,1.8.75,2.56,2.56,0,0,0,1.8-.77,2.43,2.43,0,0,0,.75-1.8,2.46,2.46,0,0,0-.78-1.83,2.55,2.55,0,0,0-3.55,0Z"/><path d="M674,664.05h4v1.83a3.61,3.61,0,0,1,1.58-1.55,4.28,4.28,0,0,1,2.07-.45l.8,0v3.77a3.52,3.52,0,0,0-1.72-.4,2.66,2.66,0,0,0-1.83.6,3.38,3.38,0,0,0-.9,2.55v4.77h-4Z"/><path d="M696.1,670.38h-8.32a2.83,2.83,0,0,0,.7,1.87,2.25,2.25,0,0,0,1.65.55,3.07,3.07,0,0,0,1.3-.3,1.83,1.83,0,0,0,.7-.75H696a4.91,4.91,0,0,1-1.35,2.3,6,6,0,0,1-4.54,1.55,6.37,6.37,0,0,1-4.63-1.7,5.88,5.88,0,0,1-1.65-4.22,6,6,0,0,1,1.68-4.33,6.27,6.27,0,0,1,4.57-1.62,6.11,6.11,0,0,1,4.3,1.52,6.27,6.27,0,0,1,1.77,4.7Zm-3.67-2.3a2.66,2.66,0,0,0-.65-1.2,2.3,2.3,0,0,0-1.65-.6,2.12,2.12,0,0,0-1.62.6,2.21,2.21,0,0,0-.6,1.2Z"/><path d="M716.08,670.38h-8.32a2.78,2.78,0,0,0,.7,1.87,2.25,2.25,0,0,0,1.65.55,3.07,3.07,0,0,0,1.3-.3,1.81,1.81,0,0,0,.69-.75h3.83a5.09,5.09,0,0,1-1.35,2.3A6.07,6.07,0,0,1,710,675.6a6.35,6.35,0,0,1-4.62-1.7,5.84,5.84,0,0,1-1.65-4.22,6,6,0,0,1,1.67-4.33,6.31,6.31,0,0,1,4.58-1.62,6.09,6.09,0,0,1,4.29,1.52,6.24,6.24,0,0,1,1.78,4.7Zm-3.67-2.3a2.66,2.66,0,0,0-.65-1.2,2.31,2.31,0,0,0-1.65-.6,2.14,2.14,0,0,0-1.63.6,2.36,2.36,0,0,0-.6,1.2Z"/><path d="M719.11,671.53a5.52,5.52,0,0,0,1.6.82,5,5,0,0,0,1.55.28,1.72,1.72,0,0,0,1-.3.64.64,0,0,0,.2-.53.58.58,0,0,0-.2-.5,2.56,2.56,0,0,0-1-.4l-1.05-.25a3.55,3.55,0,0,1-1.95-1,2.74,2.74,0,0,1-.72-1.93,4,4,0,0,1,1-2.72,5.62,5.62,0,0,1,4-1.35,9.31,9.31,0,0,1,3.57.72L725.78,667a5.51,5.51,0,0,0-2.1-.55,1.67,1.67,0,0,0-.92.23.59.59,0,0,0-.35.55.64.64,0,0,0,.47.62c.38.15.7.15,1.33.33l.72.2a4.8,4.8,0,0,1,1.65.87,3.17,3.17,0,0,1,.85,2.23,3.77,3.77,0,0,1-1.12,2.77,5.81,5.81,0,0,1-4.13,1.4,8.3,8.3,0,0,1-4.5-1.3Z"/><path d="M733.91,667.33v7.89h-4v-7.89h-1.28v-3.28h1.28v-3.67h4v3.67h2.27v3.28Z"/><path d="M749.53,670.38h-8.32a2.78,2.78,0,0,0,.7,1.87,2.24,2.24,0,0,0,1.64.55,3.07,3.07,0,0,0,1.3-.3,1.83,1.83,0,0,0,.7-.75h3.83a5.09,5.09,0,0,1-1.35,2.3,6.09,6.09,0,0,1-4.55,1.55,6.35,6.35,0,0,1-4.62-1.7,5.84,5.84,0,0,1-1.65-4.22,6,6,0,0,1,1.67-4.33,6.31,6.31,0,0,1,4.58-1.62,6.1,6.1,0,0,1,4.29,1.52,6.24,6.24,0,0,1,1.78,4.7Zm-3.68-2.3a2.66,2.66,0,0,0-.65-1.2,2.3,2.3,0,0,0-1.65-.6,2.12,2.12,0,0,0-1.62.6,2.36,2.36,0,0,0-.6,1.2Z"/><path d="M766.3,664.05h4v11.17h-4V674a4.17,4.17,0,0,1-3.47,1.6,5.35,5.35,0,0,1-4-1.77,5.64,5.64,0,0,1-1.6-4.1,6.19,6.19,0,0,1,1.72-4.48,5.76,5.76,0,0,1,4-1.57,4.39,4.39,0,0,1,3.34,1.45Zm-4.19,3.75a2.6,2.6,0,0,0-.81,1.83,2.56,2.56,0,0,0,.78,1.82,2.81,2.81,0,0,0,1.8.75,2.56,2.56,0,0,0,1.8-.77,2.43,2.43,0,0,0,.75-1.8,2.46,2.46,0,0,0-.78-1.83,2.55,2.55,0,0,0-1.8-.72A2.52,2.52,0,0,0,762.11,667.8Z"/><path d="M785.7,675.22h-4V674a4.09,4.09,0,0,1-3.37,1.6,5.36,5.36,0,0,1-3.92-1.55,6.34,6.34,0,0,1,0-8.87,5.71,5.71,0,0,1,4-1.5,4.39,4.39,0,0,1,3.32,1.45V657h4ZM781,671.53a2.72,2.72,0,0,0,.85-1.9,2.9,2.9,0,0,0-.75-1.8,2.57,2.57,0,0,0-3.6,0,2.74,2.74,0,0,0-.77,1.9,2.52,2.52,0,0,0,.77,1.75,2.48,2.48,0,0,0,1.77.75A2.78,2.78,0,0,0,781,671.53Z"/><path d="M788.46,664.05h4v1.83a3.55,3.55,0,0,1,1.57-1.55,4.28,4.28,0,0,1,2.07-.45l.8,0v3.77a3.52,3.52,0,0,0-1.72-.4,2.66,2.66,0,0,0-1.83.6,3.36,3.36,0,0,0-.89,2.55v4.77h-4Z"/><path d="M810.53,670.38h-8.32a2.82,2.82,0,0,0,.69,1.87,2.25,2.25,0,0,0,1.65.55,3.07,3.07,0,0,0,1.3-.3,1.83,1.83,0,0,0,.7-.75h3.83a5.09,5.09,0,0,1-1.35,2.3,6.09,6.09,0,0,1-4.55,1.55,6.33,6.33,0,0,1-4.62-1.7,5.84,5.84,0,0,1-1.65-4.22,6,6,0,0,1,1.67-4.33,6.28,6.28,0,0,1,4.58-1.62,6.1,6.1,0,0,1,4.29,1.52,6.24,6.24,0,0,1,1.78,4.7Zm-3.68-2.3a2.66,2.66,0,0,0-.65-1.2,2.3,2.3,0,0,0-1.65-.6,2.12,2.12,0,0,0-1.62.6,2.21,2.21,0,0,0-.6,1.2Z"/><path d="M813.56,671.53a5.52,5.52,0,0,0,1.6.82,5,5,0,0,0,1.55.28,1.74,1.74,0,0,0,1-.3.67.67,0,0,0,.2-.53.61.61,0,0,0-.2-.5,2.56,2.56,0,0,0-1.05-.4l-1-.25a3.55,3.55,0,0,1-2-1,2.74,2.74,0,0,1-.72-1.93,4,4,0,0,1,1-2.72,5.61,5.61,0,0,1,4-1.35,9.37,9.37,0,0,1,3.58.72L820.23,667a5.56,5.56,0,0,0-2.1-.55,1.67,1.67,0,0,0-.92.23.6.6,0,0,0-.36.55.65.65,0,0,0,.48.62c.38.15.7.15,1.32.33l.73.2a4.89,4.89,0,0,1,1.65.87,3.17,3.17,0,0,1,.85,2.23,3.73,3.73,0,0,1-1.13,2.77,5.81,5.81,0,0,1-4.12,1.4,8.3,8.3,0,0,1-4.5-1.3Z"/><path d="M832.58,664.05h4v11.17h-4V674a4.2,4.2,0,0,1-3.48,1.6,5.35,5.35,0,0,1-4-1.77,5.68,5.68,0,0,1-1.6-4.1,6.16,6.16,0,0,1,1.73-4.48,5.72,5.72,0,0,1,4-1.57,4.41,4.41,0,0,1,3.35,1.45Zm-4.2,3.75a2.63,2.63,0,0,0-.8,1.83,2.55,2.55,0,0,0,.77,1.82,2.83,2.83,0,0,0,1.8.75,2.56,2.56,0,0,0,1.8-.77,2.43,2.43,0,0,0,.75-1.8,2.49,2.49,0,0,0-.77-1.83,2.57,2.57,0,0,0-1.8-.72A2.54,2.54,0,0,0,828.38,667.8Z"/><path d="M849.85,658.55v16.67h-4.32V658.55Z"/><path d="M857.68,669.7v5.52h-4.33V658.55h6.9a5.78,5.78,0,0,1,4.23,1.5A5.17,5.17,0,0,1,866,664.1a5.41,5.41,0,0,1-1.48,4.15,5.53,5.53,0,0,1-4.15,1.45Zm0-3.5h1.45a2.83,2.83,0,0,0,1.82-.52,1.9,1.9,0,0,0,.55-1.53,2,2,0,0,0-.5-1.5,2.56,2.56,0,0,0-1.85-.6h-1.47Z"/><path d="M882.43,664.05h4v11.17h-4V674a4.2,4.2,0,0,1-3.48,1.6,5.35,5.35,0,0,1-4-1.77,5.64,5.64,0,0,1-1.6-4.1,6.19,6.19,0,0,1,1.72-4.48,5.76,5.76,0,0,1,4-1.57,4.41,4.41,0,0,1,3.35,1.45Zm-4.2,3.75a2.63,2.63,0,0,0-.8,1.83,2.55,2.55,0,0,0,.77,1.82,2.83,2.83,0,0,0,1.8.75,2.56,2.56,0,0,0,1.8-.77,2.43,2.43,0,0,0,.75-1.8,2.49,2.49,0,0,0-.77-1.83,2.57,2.57,0,0,0-1.8-.72A2.54,2.54,0,0,0,878.23,667.8Z"/><path d="M698.3,697.93a4.12,4.12,0,0,0-3-1.3,3.14,3.14,0,0,0-2.32.92,3.37,3.37,0,0,0-.9,2.43,3.45,3.45,0,0,0,.95,2.52,3.15,3.15,0,0,0,2.22.85,4.09,4.09,0,0,0,3-1.35v2.72a5.69,5.69,0,0,1-3.19.83,5.13,5.13,0,0,1-4-1.55,5.47,5.47,0,0,1-1.5-4,5.59,5.59,0,0,1,1.6-4.07,5.68,5.68,0,0,1,4.22-1.55,5.57,5.57,0,0,1,2.87.75Z"/><path d="M703.11,694.7v6a3,3,0,0,0,.45,1.9,2,2,0,0,0,1.6.72,2,2,0,0,0,1.59-.72,3,3,0,0,0,.46-1.9v-6h2.44v6.1a4.41,4.41,0,0,1-1.12,3.45,4.8,4.8,0,0,1-3.42,1.3,4.65,4.65,0,0,1-3.33-1.3,4.41,4.41,0,0,1-1.12-3.45v-6.1Z"/><path d="M712.76,694.7h2.45v.95a4.21,4.21,0,0,1,1-.87,2.79,2.79,0,0,1,1.5-.35,3.61,3.61,0,0,1,1.92.5l-1,2.22a2.19,2.19,0,0,0-1.24-.37,1.91,1.91,0,0,0-1.53.57,3.43,3.43,0,0,0-.67,2.43v5.44h-2.45Z"/><path d="M725.16,697.48a1.77,1.77,0,0,0-1.5-.9,1,1,0,0,0-.75.27.79.79,0,0,0-.23.55.68.68,0,0,0,.35.6c.15.1.3.15.83.43l1.25.62a5,5,0,0,1,1.47,1,2.6,2.6,0,0,1,.77,2,3.54,3.54,0,0,1-.92,2.4,3.78,3.78,0,0,1-2.95,1.17,3.64,3.64,0,0,1-2.27-.67,4.17,4.17,0,0,1-1.35-1.93l2-1a2.76,2.76,0,0,0,.57,1,1.5,1.5,0,0,0,1.08.4,1.47,1.47,0,0,0,1-.35,1.23,1.23,0,0,0,.35-.82,1.12,1.12,0,0,0-.33-.8,3.15,3.15,0,0,0-1-.65l-.9-.43a5.15,5.15,0,0,1-1.45-.9,2.28,2.28,0,0,1-.75-1.77,3.28,3.28,0,0,1,.88-2.25,3.37,3.37,0,0,1,2.57-1,3.29,3.29,0,0,1,1.95.55,3.57,3.57,0,0,1,1.2,1.3Z"/><path d="M731,702.53a1.5,1.5,0,1,1-1.5,1.5A1.5,1.5,0,0,1,731,702.53Z"/><path d="M738,711h-2.45V694.7H738v1.15a4,4,0,0,1,3.12-1.42,5.14,5.14,0,0,1,5.12,5.47,5.33,5.33,0,0,1-5.1,5.65A4.16,4.16,0,0,1,738,704ZM737.86,700a3,3,0,0,0,3,3.32,3.07,3.07,0,0,0,2.92-3.35c0-1.87-1.15-3.37-2.92-3.37C739.28,696.63,737.86,697.73,737.86,700Z"/><path d="M751.26,694.7v6a3,3,0,0,0,.45,1.9,2,2,0,0,0,1.59.72,2,2,0,0,0,1.6-.72,3,3,0,0,0,.45-1.9v-6h2.45v6.1a4.41,4.41,0,0,1-1.12,3.45,4.8,4.8,0,0,1-3.43,1.3,4.64,4.64,0,0,1-3.32-1.3,4.41,4.41,0,0,1-1.12-3.45v-6.1Z"/><path d="M763.36,695.93a3.82,3.82,0,0,1,3.12-1.5c2.77,0,5.12,2.1,5.12,5.52,0,2.9-1.85,5.6-5.1,5.6a4,4,0,0,1-3.14-1.42v1.09h-2.45V687h2.45Zm-.15,4.1a3,3,0,0,0,3,3.32A3.07,3.07,0,0,0,769.1,700c0-1.87-1.15-3.37-2.92-3.37C764.63,696.63,763.21,697.73,763.21,700Z"/><path d="M775.61,702.53a1.5,1.5,0,1,1-1.5,1.5A1.5,1.5,0,0,1,775.61,702.53Z"/><path d="M780.16,694.7h2.45v.95a4.21,4.21,0,0,1,1-.87,2.77,2.77,0,0,1,1.5-.35,3.61,3.61,0,0,1,1.92.5l-1,2.22a2.2,2.2,0,0,0-1.25-.37,1.89,1.89,0,0,0-1.52.57,3.43,3.43,0,0,0-.67,2.43v5.44h-2.45Z"/><path d="M798.65,700a5.62,5.62,0,1,1-5.62-5.55A5.47,5.47,0,0,1,798.65,700Zm-2.5,0a3.13,3.13,0,1,0-3.12,3.35A3,3,0,0,0,796.15,700Z"/><path d="M804.25,699.45V695.4a2.91,2.91,0,0,0,.85.13,3.43,3.43,0,0,0,2.35-.83,2,2,0,0,0,.58-1.37,1.72,1.72,0,0,0-.43-1.18,1.62,1.62,0,0,0-1.2-.47,1.41,1.41,0,0,0-1.07.42,1.8,1.8,0,0,0-.45,1.25h-4.4a5.42,5.42,0,0,1,1.5-3.55,6,6,0,0,1,4.35-1.62,6.23,6.23,0,0,1,4.42,1.62,4.9,4.9,0,0,1,1.58,3.58,4.83,4.83,0,0,1-1.2,3.15,5.31,5.31,0,0,1-2.8,1.6v1.32Zm.33,5.37a2.6,2.6,0,0,1,1.8-4.42,2.63,2.63,0,0,1,1.87.8,2.58,2.58,0,0,1,0,3.62,2.56,2.56,0,0,1-1.83.78A2.53,2.53,0,0,1,804.58,704.82Z"/></svg>