<svg id="Layer_1" data-name="Layer 1" xmlns="http://www.w3.org/2000/svg" viewBox="0 0 1464 963"><title>Cap 11 -</title><rect x="458.13" y="535.4" width="148" height="89.21" rx="12" ry="12" style="fill:none;stroke:#91c54f;stroke-miterlimit:10;stroke-width:5px"/><rect x="508.3" y="624.1" width="47.64" height="16.22" rx="4.38" ry="4.38" style="fill:#91c54f"/><rect x="477.39" y="638.8" width="109.48" height="22.3" rx="6.03" ry="6.03" style="fill:none;stroke:#91c54f;stroke-miterlimit:10;stroke-width:5px"/><circle cx="489.55" cy="646.91" r="2.03" style="fill:#91c54f"/><circle cx="495.37" cy="646.91" r="2.03" style="fill:#91c54f"/><circle cx="489.55" cy="652.99" r="2.03" style="fill:#91c54f"/><circle cx="495.37" cy="652.99" r="2.03" style="fill:#91c54f"/><rect x="548.34" y="647.92" width="31.42" height="3.04" rx="0.82" ry="0.82" style="fill:none;stroke:#91c54f;stroke-miterlimit:10;stroke-width:5px"/><path d="M509.1,717.49v6.63h-5.19v-20h8.28a6.89,6.89,0,0,1,5.07,1.8,6.2,6.2,0,0,1,1.86,4.86,6.5,6.5,0,0,1-1.77,5,6.66,6.66,0,0,1-5,1.74Zm0-4.2h1.74a3.39,3.39,0,0,0,2.19-.63,2.29,2.29,0,0,0,.66-1.83,2.43,2.43,0,0,0-.6-1.8,3,3,0,0,0-2.22-.72H509.1Z"/><path d="M536.25,723.58a12.36,12.36,0,0,1-4.5,1,10.88,10.88,0,0,1-7.74-3,10.5,10.5,0,0,1-3-7.29,10.5,10.5,0,0,1,10.59-10.5,12.4,12.4,0,0,1,4.68,1V711a5.57,5.57,0,0,0-4.53-2.19,5.07,5.07,0,0,0-3.6,1.32,5.59,5.59,0,0,0-1.74,4.11,5.52,5.52,0,0,0,1.62,3.9,5.59,5.59,0,0,0,3.72,1.38,5.87,5.87,0,0,0,4.53-2.1Z"/><path d="M551.46,708.52h-2.85v-4.41h8v20h-5.19Z"/><path d="M1059,718.12a7,7,0,0,0,4.59,2,2.63,2.63,0,0,0,2-.69,1.79,1.79,0,0,0,.51-1.26,1.56,1.56,0,0,0-.57-1.2,7.21,7.21,0,0,0-2.58-1l-1.35-.42a6.54,6.54,0,0,1-2.88-1.62,5,5,0,0,1-1.14-3.54,6.54,6.54,0,0,1,1.83-4.83,7.05,7.05,0,0,1,5.13-1.89,14.06,14.06,0,0,1,6.18,1.62l-2.07,4.05a5.28,5.28,0,0,0-3.42-1.35,2.49,2.49,0,0,0-1.71.6,1.48,1.48,0,0,0-.51,1.08,1.34,1.34,0,0,0,.27.9,3.28,3.28,0,0,0,1.74.9l1.59.48a7.64,7.64,0,0,1,3.63,2,4.72,4.72,0,0,1,1.29,3.57,6.78,6.78,0,0,1-1.89,5,7.76,7.76,0,0,1-5.91,2,10.7,10.7,0,0,1-3.93-.66,14,14,0,0,1-3-1.59Z"/><path d="M1088.53,718.3h-10a3.39,3.39,0,0,0,.84,2.25,2.7,2.7,0,0,0,2,.66,3.79,3.79,0,0,0,1.56-.36,2.23,2.23,0,0,0,.84-.9h4.59a6,6,0,0,1-1.62,2.76c-1,1-2.55,1.86-5.46,1.86a7.61,7.61,0,0,1-5.55-2,7,7,0,0,1-2-5.07,7.16,7.16,0,0,1,2-5.19,7.55,7.55,0,0,1,5.49-1.95,7.35,7.35,0,0,1,5.16,1.83,7.51,7.51,0,0,1,2.13,5.64Zm-4.41-2.76a3.22,3.22,0,0,0-.78-1.44,2.8,2.8,0,0,0-2-.72,2.58,2.58,0,0,0-1.95.72,2.74,2.74,0,0,0-.72,1.44Z"/><path d="M1091.29,710.71h4.8v2.19A4.33,4.33,0,0,1,1098,711a5.24,5.24,0,0,1,2.49-.54l1,.06v4.53a4.23,4.23,0,0,0-2.07-.48,3.14,3.14,0,0,0-2.19.72,4,4,0,0,0-1.08,3.06v5.73h-4.8Z"/><path d="M1107.28,710.71l3.21,6.87,3.27-6.87h5.34l-7,13.41h-3.27l-6.93-13.41Z"/><path d="M1134.22,718.3h-10a3.39,3.39,0,0,0,.84,2.25,2.7,2.7,0,0,0,2,.66,3.79,3.79,0,0,0,1.56-.36,2.23,2.23,0,0,0,.84-.9H1134a6,6,0,0,1-1.62,2.76c-1,1-2.55,1.86-5.46,1.86a7.61,7.61,0,0,1-5.55-2,7,7,0,0,1-2-5.07,7.16,7.16,0,0,1,2-5.19,7.55,7.55,0,0,1,5.49-1.95,7.35,7.35,0,0,1,5.16,1.83,7.51,7.51,0,0,1,2.13,5.64Zm-4.41-2.76a3.22,3.22,0,0,0-.78-1.44,2.8,2.8,0,0,0-2-.72,2.58,2.58,0,0,0-2,.72,2.74,2.74,0,0,0-.72,1.44Z"/><path d="M1137,710.71h4.8v2.19a4.33,4.33,0,0,1,1.89-1.86,5.24,5.24,0,0,1,2.49-.54l1,.06v4.53a4.23,4.23,0,0,0-2.07-.48,3.14,3.14,0,0,0-2.19.72,4,4,0,0,0-1.08,3.06v5.73H1137Z"/><path d="M1156.69,724.12v-20h6.81a11.16,11.16,0,0,1,8,2.76,9.77,9.77,0,0,1,2.79,7.29,9.23,9.23,0,0,1-2.61,6.93,10.87,10.87,0,0,1-7.68,3Zm5.19-4.41h1a6,6,0,0,0,4.38-1.44,5.45,5.45,0,0,0,1.53-4.11,6,6,0,0,0-1.56-4.38,5.83,5.83,0,0,0-4.14-1.26h-1.26Z"/><path d="M1177.54,724.12v-20h5.19l9.57,12.24V704.11h5.19v20h-5.19l-9.57-12.24v12.24Z"/><path d="M1203,718.12a7,7,0,0,0,4.59,2,2.63,2.63,0,0,0,2-.69,1.79,1.79,0,0,0,.51-1.26,1.56,1.56,0,0,0-.57-1.2,7.21,7.21,0,0,0-2.58-1l-1.35-.42a6.54,6.54,0,0,1-2.88-1.62,5,5,0,0,1-1.14-3.54,6.54,6.54,0,0,1,1.83-4.83,7.05,7.05,0,0,1,5.13-1.89,14.06,14.06,0,0,1,6.18,1.62l-2.07,4.05a5.28,5.28,0,0,0-3.42-1.35,2.49,2.49,0,0,0-1.71.6,1.48,1.48,0,0,0-.51,1.08,1.34,1.34,0,0,0,.27.9,3.28,3.28,0,0,0,1.74.9l1.59.48a7.64,7.64,0,0,1,3.63,2,4.72,4.72,0,0,1,1.29,3.57,6.78,6.78,0,0,1-1.89,5,7.76,7.76,0,0,1-5.91,2,10.7,10.7,0,0,1-3.93-.66,14,14,0,0,1-3-1.59Z"/><rect x="407.63" y="793.75" width="457.5" height="129" rx="12" ry="12" style="fill:none;stroke:#f4c240;stroke-miterlimit:10;stroke-width:6.67112367225971px"/><rect x="662.38" y="295.15" width="353.5" height="105.5" rx="12" ry="12" style="fill:none;stroke:#f4c240;stroke-miterlimit:10;stroke-width:5.30309645596184px"/><line x1="438.63" y1="693.75" x2="438.63" y2="792.75" style="fill:none;stroke:#f4c240;stroke-miterlimit:10;stroke-width:5px"/><rect x="400.88" y="501.25" width="263" height="193" rx="12" ry="12" style="fill:none;stroke:#3a5c84;stroke-miterlimit:10;stroke-width:5px"/><rect x="1004.63" y="501.75" width="263" height="193" rx="12" ry="12" style="fill:none;stroke:#3a5c84;stroke-miterlimit:10;stroke-width:5px"/><rect x="1067.73" y="577.8" width="136.4" height="39.71" rx="5.72" ry="5.72" style="fill:none;stroke:#a2b969;stroke-miterlimit:10;stroke-width:4.64147865772247px"/><circle cx="1091.04" cy="597.66" r="9.21" style="fill:none;stroke:#a2b969;stroke-miterlimit:10;stroke-width:4.64147865772247px"/><circle cx="1154.63" cy="597.95" r="2.88" style="fill:#a2b969"/><circle cx="1164.41" cy="597.95" r="2.88" style="fill:#a2b969"/><circle cx="1174.77" cy="597.95" r="2.88" style="fill:#a2b969"/><circle cx="1185.13" cy="597.95" r="2.88" style="fill:#a2b969"/><rect x="1067.73" y="618.03" width="136.4" height="39.71" rx="5.72" ry="5.72" style="fill:none;stroke:#a2b969;stroke-miterlimit:10;stroke-width:4.64147865772247px"/><circle cx="1091.04" cy="637.88" r="9.21" style="fill:none;stroke:#a2b969;stroke-miterlimit:10;stroke-width:4.64147865772247px"/><circle cx="1154.63" cy="638.17" r="2.88" style="fill:#a2b969"/><circle cx="1164.41" cy="638.17" r="2.88" style="fill:#a2b969"/><circle cx="1174.77" cy="638.17" r="2.88" style="fill:#a2b969"/><circle cx="1185.13" cy="638.17" r="2.88" style="fill:#a2b969"/><rect x="1067.73" y="538.09" width="136.4" height="39.71" rx="5.72" ry="5.72" style="fill:none;stroke:#a2b969;stroke-miterlimit:10;stroke-width:4.64147865772247px"/><circle cx="1091.04" cy="557.95" r="9.21" style="fill:none;stroke:#a2b969;stroke-miterlimit:10;stroke-width:4.64147865772247px"/><circle cx="1154.63" cy="558.24" r="2.88" style="fill:#a2b969"/><circle cx="1164.41" cy="558.24" r="2.88" style="fill:#a2b969"/><circle cx="1174.77" cy="558.24" r="2.88" style="fill:#a2b969"/><circle cx="1185.13" cy="558.24" r="2.88" style="fill:#a2b969"/><path d="M446.78,61.82a7.12,7.12,0,0,1-3.33.75,7.41,7.41,0,0,1-5.28-2,7,7,0,0,1-2.07-5,7.3,7.3,0,0,1,2.16-5.19,7.73,7.73,0,0,1,5.4-2,6.88,6.88,0,0,1,3.12.75v4a4.28,4.28,0,0,0-2.49-.87,3.15,3.15,0,0,0-2.34.93,3.26,3.26,0,0,0-.93,2.31,3.44,3.44,0,0,0,.84,2.25,3.26,3.26,0,0,0,2.46,1,3.63,3.63,0,0,0,2.46-.9Z"/><path d="M450.38,57.68a6.87,6.87,0,0,0,1.92,1,6.25,6.25,0,0,0,1.86.33,2,2,0,0,0,1.23-.36.77.77,0,0,0,.24-.63.71.71,0,0,0-.24-.6,3,3,0,0,0-1.26-.48l-1.26-.3a4.31,4.31,0,0,1-2.34-1.17,3.24,3.24,0,0,1-.87-2.31,4.79,4.79,0,0,1,1.26-3.27,6.77,6.77,0,0,1,4.8-1.62,11.07,11.07,0,0,1,4.29.87l-1.62,3.06a6.64,6.64,0,0,0-2.52-.66,2,2,0,0,0-1.11.27.72.72,0,0,0-.42.66.78.78,0,0,0,.57.75c.45.18.84.18,1.59.39l.87.24a5.67,5.67,0,0,1,2,1,3.79,3.79,0,0,1,1,2.67A4.48,4.48,0,0,1,459,60.89a7,7,0,0,1-4.95,1.68,9.89,9.89,0,0,1-5.4-1.56Z"/><path d="M463.55,61.76a3.12,3.12,0,0,1,2.19-5.31,3.19,3.19,0,0,1,2.22,1,3.1,3.1,0,0,1,0,4.35,3,3,0,0,1-4.37,0Z"/><path d="M482.05,61.82a7.12,7.12,0,0,1-3.33.75,7.41,7.41,0,0,1-5.28-2,7.05,7.05,0,0,1-2.06-5,7.3,7.3,0,0,1,2.16-5.19,7.69,7.69,0,0,1,5.39-2,6.88,6.88,0,0,1,3.12.75v4a4.28,4.28,0,0,0-2.49-.87,3.16,3.16,0,0,0-2.34.93,3.26,3.26,0,0,0-.93,2.31,3.44,3.44,0,0,0,.84,2.25,3.26,3.26,0,0,0,2.46,1,3.63,3.63,0,0,0,2.46-.9Z"/><path d="M489.58,48.71v7.5a2.57,2.57,0,0,0,.72,1.95,2.48,2.48,0,0,0,1.68.51,2.24,2.24,0,0,0,1.71-.57,2.49,2.49,0,0,0,.69-1.89v-7.5h4.8v8.37a4.6,4.6,0,0,1-1.29,3.6c-1.65,1.71-4,1.89-5.79,1.89-2,0-4.47-.21-6.06-1.92a4.82,4.82,0,0,1-1.26-3.57V48.71Z"/><path d="M502.48,48.71h4.8V50.9A4.33,4.33,0,0,1,509.17,49a5.24,5.24,0,0,1,2.49-.54l1,.06v4.53a4.23,4.23,0,0,0-2.07-.48,3.14,3.14,0,0,0-2.19.72,4,4,0,0,0-1.08,3.06v5.73h-4.8Z"/><path d="M515.62,57.68a6.87,6.87,0,0,0,1.92,1,6.25,6.25,0,0,0,1.86.33,2,2,0,0,0,1.23-.36.77.77,0,0,0,.24-.63.71.71,0,0,0-.24-.6,3,3,0,0,0-1.26-.48l-1.26-.3a4.31,4.31,0,0,1-2.34-1.17,3.24,3.24,0,0,1-.87-2.31,4.79,4.79,0,0,1,1.26-3.27,6.77,6.77,0,0,1,4.8-1.62,11.07,11.07,0,0,1,4.29.87l-1.62,3.06a6.64,6.64,0,0,0-2.52-.66,2,2,0,0,0-1.11.27.72.72,0,0,0-.42.66.78.78,0,0,0,.57.75c.45.18.84.18,1.59.39l.87.24a5.67,5.67,0,0,1,2,1,3.79,3.79,0,0,1,1,2.67,4.48,4.48,0,0,1-1.35,3.33,7,7,0,0,1-5,1.68,9.89,9.89,0,0,1-5.4-1.56Z"/><path d="M528.79,61.76A3.12,3.12,0,0,1,531,56.45a3.15,3.15,0,0,1,2.22,1,3.12,3.12,0,0,1,0,4.35,3.07,3.07,0,0,1-2.19.93A3,3,0,0,1,528.79,61.76Z"/><path d="M542,69h-4.8V48.71H542v1.47a5,5,0,0,1,4.11-1.92,6.67,6.67,0,0,1,4.77,2,7.61,7.61,0,0,1-.12,10.5,6.44,6.44,0,0,1-4.59,1.86A5.71,5.71,0,0,1,542,60.83Zm.78-15.75a3.27,3.27,0,0,0-.93,2.22,3.24,3.24,0,0,0,.93,2.13,3.07,3.07,0,0,0,2.16.9,2.9,2.9,0,0,0,2.13-.9,3.17,3.17,0,0,0,.93-2.13,3.27,3.27,0,0,0-.93-2.22,2.9,2.9,0,0,0-2.13-.9A3.07,3.07,0,0,0,542.74,53.24Z"/><path d="M560.44,48.71v7.5a2.57,2.57,0,0,0,.72,1.95,2.48,2.48,0,0,0,1.68.51,2.24,2.24,0,0,0,1.71-.57,2.49,2.49,0,0,0,.69-1.89v-7.5H570v8.37a4.6,4.6,0,0,1-1.29,3.6c-1.65,1.71-4,1.89-5.79,1.89-2,0-4.47-.21-6.06-1.92a4.82,4.82,0,0,1-1.26-3.57V48.71Z"/><path d="M578.14,40.25V50a5.31,5.31,0,0,1,4-1.74,6.86,6.86,0,0,1,4.74,1.8,7.31,7.31,0,0,1,2.19,5.31,7.4,7.4,0,0,1-2.16,5.34,6.42,6.42,0,0,1-4.71,1.86,4.92,4.92,0,0,1-4.05-1.92v1.47h-4.8V40.25Zm5.07,17.34a3,3,0,0,0,.93-2.1,3.29,3.29,0,0,0-.93-2.28,3.08,3.08,0,0,0-4.32,0,3.51,3.51,0,0,0-.9,2.16,3.22,3.22,0,0,0,1,2.28,3.28,3.28,0,0,0,2.07.81A3,3,0,0,0,583.21,57.59Z"/><path d="M592.54,61.76a3.12,3.12,0,0,1,2.19-5.31,3.15,3.15,0,0,1,2.22,1,3.12,3.12,0,0,1,0,4.35,3.07,3.07,0,0,1-2.19.93A3,3,0,0,1,592.54,61.76Z"/><path d="M600.91,48.71h4.8V50.9A4.33,4.33,0,0,1,607.6,49a5.24,5.24,0,0,1,2.49-.54l1,.06v4.53a4.23,4.23,0,0,0-2.07-.48,3.14,3.14,0,0,0-2.19.72,4,4,0,0,0-1.08,3.06v5.73h-4.8Z"/><path d="M626.08,60.35a9.18,9.18,0,0,1-12,0,6.92,6.92,0,0,1,0-9.87,8.37,8.37,0,0,1,6-2.22,8.47,8.47,0,0,1,6,2.22,6.92,6.92,0,0,1,0,9.87ZM618,53.21a3.06,3.06,0,0,0,2.16,5.22,3.05,3.05,0,0,0,2.13-.9,3,3,0,0,0,.93-2.13,3.26,3.26,0,0,0-.93-2.19,3.08,3.08,0,0,0-4.29,0Z"/><rect x="400.63" y="81.75" width="263" height="193" rx="12" ry="12" style="fill:none;stroke:#3a5c84;stroke-miterlimit:10;stroke-width:5px"/><rect x="463.73" y="157.8" width="136.4" height="39.71" rx="5.72" ry="5.72" style="fill:none;stroke:#a2b969;stroke-miterlimit:10;stroke-width:4.64147865772247px"/><circle cx="487.04" cy="177.66" r="9.21" style="fill:none;stroke:#a2b969;stroke-miterlimit:10;stroke-width:4.64147865772247px"/><circle cx="550.63" cy="177.95" r="2.88" style="fill:#a2b969"/><circle cx="560.41" cy="177.95" r="2.88" style="fill:#a2b969"/><circle cx="570.77" cy="177.95" r="2.88" style="fill:#a2b969"/><circle cx="581.13" cy="177.95" r="2.88" style="fill:#a2b969"/><rect x="463.73" y="198.03" width="136.4" height="39.71" rx="5.72" ry="5.72" style="fill:none;stroke:#a2b969;stroke-miterlimit:10;stroke-width:4.64147865772247px"/><circle cx="487.04" cy="217.88" r="9.21" style="fill:none;stroke:#a2b969;stroke-miterlimit:10;stroke-width:4.64147865772247px"/><circle cx="550.63" cy="218.17" r="2.88" style="fill:#a2b969"/><circle cx="560.41" cy="218.17" r="2.88" style="fill:#a2b969"/><circle cx="570.77" cy="218.17" r="2.88" style="fill:#a2b969"/><circle cx="581.13" cy="218.17" r="2.88" style="fill:#a2b969"/><rect x="463.73" y="118.09" width="136.4" height="39.71" rx="5.72" ry="5.72" style="fill:none;stroke:#a2b969;stroke-miterlimit:10;stroke-width:4.64147865772247px"/><circle cx="487.04" cy="137.95" r="9.21" style="fill:none;stroke:#a2b969;stroke-miterlimit:10;stroke-width:4.64147865772247px"/><circle cx="550.63" cy="138.24" r="2.88" style="fill:#a2b969"/><circle cx="560.41" cy="138.24" r="2.88" style="fill:#a2b969"/><circle cx="570.77" cy="138.24" r="2.88" style="fill:#a2b969"/><circle cx="581.13" cy="138.24" r="2.88" style="fill:#a2b969"/><line x1="839.13" y1="541.25" x2="839.13" y2="399.25" style="fill:none;stroke:#f4c240;stroke-miterlimit:10;stroke-width:6.67112367225971px"/><rect x="31.38" y="332.15" width="353.5" height="105.5" rx="12" ry="12" style="fill:none;stroke:#f4c240;stroke-miterlimit:10;stroke-width:5.30309645596184px"/><rect x="1042.13" y="760.25" width="390.5" height="105.5" rx="12" ry="12" style="fill:none;stroke:#f4c240;stroke-miterlimit:10;stroke-width:5.57372242084132px"/><line x1="890.63" y1="777.75" x2="890.63" y2="672.25" style="fill:none;stroke:#f4c240;stroke-miterlimit:10;stroke-width:6.67112367225971px"/><polygon points="775.43 576.08 883.67 576.08 883.67 591.68 916.82 558.53 883.67 525.37 883.67 540.97 775.43 540.97 775.43 576.08" style="fill:none;stroke:#3a5c84;stroke-miterlimit:10;stroke-width:5px"/><polygon points="916.82 634.97 808.58 634.97 808.58 619.37 775.43 652.53 808.58 685.68 808.58 670.08 916.82 670.08 916.82 634.97" style="fill:none;stroke:#3a5c84;stroke-miterlimit:10;stroke-width:5px"/><line x1="1045.13" y1="774.75" x2="891.13" y2="774.75" style="fill:none;stroke:#f4c240;stroke-miterlimit:10;stroke-width:6.67112367225971px"/><line x1="514.63" y1="386.75" x2="384.63" y2="386.75" style="fill:none;stroke:#f4c240;stroke-miterlimit:10;stroke-width:6.67112367225971px"/><path d="M115.63,364.78h-5.78l-.3,1.85a9.17,9.17,0,0,1,1.35-.12,5.91,5.91,0,0,1,4.4,1.64,5.44,5.44,0,0,1,1.52,4,5.89,5.89,0,0,1-1.59,4.18,6.94,6.94,0,0,1-5.2,1.87,10.13,10.13,0,0,1-5.63-1.5l.65-4a8.12,8.12,0,0,0,2,1.35,6.22,6.22,0,0,0,2.5.58,3,3,0,0,0,2.18-.83,2.52,2.52,0,0,0,.65-1.7,2.39,2.39,0,0,0-.8-1.8,4.79,4.79,0,0,0-3-.82,6.72,6.72,0,0,0-3.08.7l1.45-9h8.68Z"/><path d="M120.23,377.48a2.55,2.55,0,0,1-.78-1.83,2.5,2.5,0,0,1,.78-1.82,2.53,2.53,0,0,1,1.82-.78,2.62,2.62,0,0,1,1.85.8,2.4,2.4,0,0,1,.73,1.8,2.42,2.42,0,0,1-.75,1.83,2.59,2.59,0,0,1-1.83.77A2.52,2.52,0,0,1,120.23,377.48Z"/><path d="M139.15,360.59h-3.48l1.68-2.82h4.86v20h-3.06Z"/><path d="M157.63,371.18h2.16V374h-2.16v3.78h-2.94V374h-9.9l12.84-17.7Zm-2.94.06v-6.45l-4.56,6.45Z"/><path d="M165.64,360.59h-3.48l1.68-2.82h4.86v20h-3.06Z"/><path d="M177,374.54a1.8,1.8,0,1,1-1.8,1.8A1.81,1.81,0,0,1,177,374.54Z"/><path d="M194.56,369a4.83,4.83,0,0,1,.9,3,6,6,0,0,1-1.59,4.26,6.89,6.89,0,0,1-9.42,0,6,6,0,0,1-1.59-4.26,4.83,4.83,0,0,1,.9-3,4.92,4.92,0,0,1,2.1-1.62,4.07,4.07,0,0,1-1.77-1.5,5.24,5.24,0,0,1-.72-2.73,5.79,5.79,0,1,1,11.58,0,5.24,5.24,0,0,1-.72,2.73,4.07,4.07,0,0,1-1.77,1.5A4.92,4.92,0,0,1,194.56,369Zm-7.77.63a3.57,3.57,0,0,0,0,4.77,3.33,3.33,0,0,0,4.8,0,3.57,3.57,0,0,0,0-4.77,3.48,3.48,0,0,0-4.74,0ZM187,361a3.16,3.16,0,0,0-.84,2.22,2.94,2.94,0,0,0,.81,2.1,3.19,3.19,0,0,0,4.44,0,2.94,2.94,0,0,0,.81-2.1A3.12,3.12,0,0,0,187,361Z"/><path d="M211.3,360.59h-6.18l-1,3.33c.3,0,.63-.06.93-.06a6.61,6.61,0,0,1,4.62,1.77,6.82,6.82,0,0,1,1.95,5.13,7.19,7.19,0,0,1-2,5.31,8.6,8.6,0,0,1-9.39,1.14,7.28,7.28,0,0,1-2.37-2.31l2.31-1.92a4.31,4.31,0,0,0,4.14,2.43,4.25,4.25,0,0,0,3.06-1.11,4.65,4.65,0,0,0,1.29-3.39,4.24,4.24,0,0,0-1.2-3.24,4.71,4.71,0,0,0-3.27-1.11,6.22,6.22,0,0,0-2.34.42,8.2,8.2,0,0,0-1.77.9l3-10.11h8.28Z"/><path d="M217.63,374.54a1.8,1.8,0,1,1-1.8,1.8A1.81,1.81,0,0,1,217.63,374.54Z"/><path d="M235.69,377.78H222.25l6.93-8.4c.69-.84,1.74-2.16,2.4-3.12a5,5,0,0,0,1-2.88,3.12,3.12,0,0,0-3.33-3.24,3.55,3.55,0,0,0-3.54,3.63h-2.94a7.21,7.21,0,0,1,1.68-4.38,6,6,0,0,1,4.68-1.95c4.26,0,6.45,2.91,6.45,6a7.37,7.37,0,0,1-1.44,4.2,40.67,40.67,0,0,1-2.85,3.6L228.22,375h7.47Z"/><path d="M252.73,377.78H239.29l6.93-8.4c.69-.84,1.74-2.16,2.4-3.12a5,5,0,0,0,1-2.88,3.12,3.12,0,0,0-3.33-3.24,3.55,3.55,0,0,0-3.54,3.63h-2.94a7.21,7.21,0,0,1,1.68-4.38,6,6,0,0,1,4.68-1.95c4.26,0,6.45,2.91,6.45,6a7.37,7.37,0,0,1-1.44,4.2,40.67,40.67,0,0,1-2.85,3.6L245.26,375h7.47Z"/><path d="M266.68,371.18h2.16V374h-2.16v3.78h-2.94V374h-9.9l12.84-17.7Zm-2.94.06v-6.45l-4.56,6.45Z"/><path d="M273.88,374.54a1.8,1.8,0,1,1-1.8,1.8A1.81,1.81,0,0,1,273.88,374.54Z"/><path d="M281.08,360.59H277.6l1.68-2.82h4.86v20h-3.06Z"/><path d="M301.18,369a4.83,4.83,0,0,1,.9,3,6,6,0,0,1-1.59,4.26,6.89,6.89,0,0,1-9.42,0,6,6,0,0,1-1.59-4.26,4.83,4.83,0,0,1,.9-3,4.92,4.92,0,0,1,2.1-1.62,4.07,4.07,0,0,1-1.77-1.5,5.24,5.24,0,0,1-.72-2.73,5.79,5.79,0,1,1,11.58,0,5.24,5.24,0,0,1-.72,2.73,4.07,4.07,0,0,1-1.77,1.5A4.92,4.92,0,0,1,301.18,369Zm-7.77.63a3.57,3.57,0,0,0,0,4.77,3.33,3.33,0,0,0,4.8,0,3.57,3.57,0,0,0,0-4.77,3.48,3.48,0,0,0-4.74,0Zm.18-8.67a3.16,3.16,0,0,0-.84,2.22,2.94,2.94,0,0,0,.81,2.1,3.19,3.19,0,0,0,4.44,0,2.94,2.94,0,0,0,.81-2.1,3.12,3.12,0,0,0-5.22-2.22Z"/><path d="M307.45,372.77H312l-5.16,9.48H303.7Z"/><path d="M106.77,407.78h-4v-1.23a4.11,4.11,0,0,1-3.38,1.6,5.32,5.32,0,0,1-3.92-1.55,6.34,6.34,0,0,1,0-8.87,5.72,5.72,0,0,1,4-1.5,4.45,4.45,0,0,1,3.33,1.45v-8.12h4Zm-4.72-3.7a2.68,2.68,0,0,0,.85-1.9,2.9,2.9,0,0,0-.75-1.8,2.42,2.42,0,0,0-1.82-.75,2.46,2.46,0,0,0-1.78.72,2.74,2.74,0,0,0-.77,1.9,2.52,2.52,0,0,0,.77,1.75,2.48,2.48,0,0,0,1.78.75A2.73,2.73,0,0,0,102.05,404.08Z"/><path d="M118.18,396.61h4v11.17h-4v-1.23a4.17,4.17,0,0,1-3.48,1.6,5.35,5.35,0,0,1-4-1.77,5.63,5.63,0,0,1-1.6-4.1,6.19,6.19,0,0,1,1.72-4.48,5.81,5.81,0,0,1,4-1.57,4.45,4.45,0,0,1,3.35,1.45Zm2.2-5.75a3.92,3.92,0,0,1-1.11,2.72,5.22,5.22,0,0,1-6.49,0,3.88,3.88,0,0,1-1.1-2.72h2.57a1.71,1.71,0,0,0,.5,1,2,2,0,0,0,1.28.45,2,2,0,0,0,1.27-.45,1.71,1.71,0,0,0,.5-1Zm-6.4,9.49a2.63,2.63,0,0,0-.8,1.83A2.55,2.55,0,0,0,114,404a2.83,2.83,0,0,0,1.8.75,2.56,2.56,0,0,0,1.8-.77,2.43,2.43,0,0,0,.75-1.8,2.49,2.49,0,0,0-.77-1.83,2.57,2.57,0,0,0-1.8-.72A2.54,2.54,0,0,0,114,400.35Z"/><path d="M124.8,399.4h6.33v3.33H124.8Z"/><path d="M133.75,396.61h4V398a4.26,4.26,0,0,1,3.35-1.55,4.49,4.49,0,0,1,2.15.5,3.52,3.52,0,0,1,1.55,1.6,3.89,3.89,0,0,1,1.52-1.55,4.55,4.55,0,0,1,2.33-.55,4.45,4.45,0,0,1,3.1,1,4.09,4.09,0,0,1,1.05,3.07v7.28h-4v-5.53a3.33,3.33,0,0,0-.58-2.4,1.44,1.44,0,0,0-1.05-.37,1.59,1.59,0,0,0-1.17.45,2.83,2.83,0,0,0-.73,2.12v5.73h-4v-5.53a3.59,3.59,0,0,0-.53-2.4,1.57,1.57,0,0,0-1.2-.45,1.44,1.44,0,0,0-1.1.4,3.31,3.31,0,0,0-.7,2.45v5.53h-4Z"/><path d="M157.58,389.71a2.25,2.25,0,1,1-2.25,2.25A2.24,2.24,0,0,1,157.58,389.71Zm2,6.9v11.17h-4V396.61Z"/><path d="M172.55,399.88v7.9h-4v-7.9h-1.27v-3.27h1.27v-3.68h4v3.68h2.28v3.27Z"/><path d="M188.17,402.93h-8.32a2.83,2.83,0,0,0,.7,1.87,2.25,2.25,0,0,0,1.65.55,3.07,3.07,0,0,0,1.3-.3,1.9,1.9,0,0,0,.7-.75H188a4.91,4.91,0,0,1-1.35,2.3,6,6,0,0,1-4.54,1.55,6.33,6.33,0,0,1-4.63-1.7,5.86,5.86,0,0,1-1.65-4.22,6,6,0,0,1,1.68-4.33,6.31,6.31,0,0,1,4.57-1.62,6.12,6.12,0,0,1,4.3,1.52,6.27,6.27,0,0,1,1.77,4.7Zm-3.67-2.3a2.66,2.66,0,0,0-.65-1.2,2.31,2.31,0,0,0-1.65-.6,2.14,2.14,0,0,0-1.62.6,2.21,2.21,0,0,0-.6,1.2Z"/><path d="M196.3,396.61h4v1.82a3.6,3.6,0,0,1,1.57-1.55,4.32,4.32,0,0,1,2.08-.45c.1,0,.27,0,.8.05v3.77a3.54,3.54,0,0,0-1.73-.4,2.63,2.63,0,0,0-1.82.6,3.38,3.38,0,0,0-.9,2.55v4.78h-4Z"/><path d="M217.27,406.3a7.64,7.64,0,0,1-10,0,5.77,5.77,0,0,1,0-8.22,7,7,0,0,1,5-1.85,7.06,7.06,0,0,1,5,1.85,5.75,5.75,0,0,1,0,8.22Zm-6.77-5.95a2.49,2.49,0,0,0,0,3.6,2.55,2.55,0,0,0,1.8.75,2.5,2.5,0,0,0,1.77-.75,2.45,2.45,0,0,0,.78-1.77,2.73,2.73,0,0,0-.78-1.83,2.57,2.57,0,0,0-3.57,0Z"/><path d="M233.87,396.61v10.47a6,6,0,0,1-1.52,4.62,6.67,6.67,0,0,1-4.93,1.8,6.85,6.85,0,0,1-5.22-2A4.07,4.07,0,0,1,221,409.2h4.45a1.71,1.71,0,0,0,1.87,1.15,2.41,2.41,0,0,0,1.77-.62,2.69,2.69,0,0,0,.8-2.08v-1.12a4.26,4.26,0,0,1-3.34,1.47,5.6,5.6,0,0,1-4.13-1.57,5.91,5.91,0,0,1-1.55-4.08A6.46,6.46,0,0,1,222.5,398a5.65,5.65,0,0,1,4.05-1.7,4.34,4.34,0,0,1,3.32,1.48v-1.15Zm-8.14,3.74a2.5,2.5,0,0,0,0,3.63,2.51,2.51,0,0,0,1.79.72,2.61,2.61,0,0,0,1.8-.75,2.66,2.66,0,0,0,.75-1.8,2.83,2.83,0,0,0-.8-1.82,2.54,2.54,0,0,0-1.77-.73A2.39,2.39,0,0,0,225.73,400.35Z"/><path d="M246.45,413.5h-4V396.61h4v1.22a4.18,4.18,0,0,1,3.42-1.6,5.6,5.6,0,0,1,4,1.62,6.35,6.35,0,0,1-.1,8.75,5.35,5.35,0,0,1-3.83,1.55,4.75,4.75,0,0,1-3.47-1.45Zm.65-13.12a2.72,2.72,0,0,0-.78,1.85,2.66,2.66,0,0,0,.78,1.77,2.52,2.52,0,0,0,1.8.75,2.38,2.38,0,0,0,1.77-.75,2.61,2.61,0,0,0,.78-1.77,2.72,2.72,0,0,0-.78-1.85,2.38,2.38,0,0,0-1.77-.75A2.52,2.52,0,0,0,247.1,400.38Z"/><path d="M266.5,396.61h4v11.17h-4v-1.23a4.17,4.17,0,0,1-3.48,1.6,5.35,5.35,0,0,1-4-1.77,5.67,5.67,0,0,1-1.6-4.1,6.2,6.2,0,0,1,1.73-4.48,5.78,5.78,0,0,1,4-1.57,4.45,4.45,0,0,1,3.35,1.45Zm-4.2,3.74a2.63,2.63,0,0,0-.8,1.83,2.55,2.55,0,0,0,.77,1.82,2.83,2.83,0,0,0,1.8.75,2.56,2.56,0,0,0,1.8-.77,2.43,2.43,0,0,0,.75-1.8,2.49,2.49,0,0,0-.77-1.83,2.57,2.57,0,0,0-1.8-.72A2.54,2.54,0,0,0,262.3,400.35Z"/><path d="M285.82,396.61v10.47a6,6,0,0,1-1.52,4.62,6.67,6.67,0,0,1-4.93,1.8,6.85,6.85,0,0,1-5.22-2,4.07,4.07,0,0,1-1.22-2.33h4.44a1.72,1.72,0,0,0,1.88,1.15,2.41,2.41,0,0,0,1.77-.62,2.69,2.69,0,0,0,.8-2.08v-1.12a4.26,4.26,0,0,1-3.35,1.47,5.57,5.57,0,0,1-4.12-1.57,5.91,5.91,0,0,1-1.55-4.08,6.46,6.46,0,0,1,1.65-4.37,5.62,5.62,0,0,1,4.05-1.7,4.34,4.34,0,0,1,3.32,1.48v-1.15Zm-8.15,3.74a2.65,2.65,0,0,0-.77,1.8,2.63,2.63,0,0,0,.77,1.83,2.55,2.55,0,0,0,1.8.72,2.61,2.61,0,0,0,1.8-.75,2.66,2.66,0,0,0,.75-1.8,2.83,2.83,0,0,0-.8-1.82,2.54,2.54,0,0,0-1.77-.73A2.41,2.41,0,0,0,277.67,400.35Z"/><path d="M290.57,389.71a2.25,2.25,0,1,1-2.24,2.25A2.24,2.24,0,0,1,290.57,389.71Zm2,6.9v11.17h-4V396.61Z"/><path d="M295.3,396.61h4V398a4.18,4.18,0,0,1,3.55-1.65,4.54,4.54,0,0,1,3.3,1.19,3.87,3.87,0,0,1,1.05,3.13v7.1h-4v-5.65a3.25,3.25,0,0,0-.5-2.18,1.69,1.69,0,0,0-1.28-.47A2.17,2.17,0,0,0,300,400a2.58,2.58,0,0,0-.65,1.78v6h-4Z"/><path d="M318.57,396.61h4v11.17h-4v-1.23a4.15,4.15,0,0,1-3.47,1.6,5.34,5.34,0,0,1-4-1.77,5.63,5.63,0,0,1-1.6-4.1,6.19,6.19,0,0,1,1.72-4.48,5.78,5.78,0,0,1,4-1.57,4.43,4.43,0,0,1,3.35,1.45Zm-4.2,3.74a2.63,2.63,0,0,0-.8,1.83,2.56,2.56,0,0,0,.78,1.82,2.79,2.79,0,0,0,1.8.75A2.56,2.56,0,0,0,318,404a2.43,2.43,0,0,0,.75-1.8,2.46,2.46,0,0,0-.78-1.83,2.55,2.55,0,0,0-3.55,0Z"/><polygon points="549.68 453.22 549.68 344.98 565.28 344.98 532.13 311.83 498.97 344.98 514.57 344.98 514.57 453.22 549.68 453.22" style="fill:none;stroke:#3a5c84;stroke-miterlimit:10;stroke-width:5px"/><path d="M442.23,839.13h-2.38v-3.68h6.7v16.67h-4.32Z"/><path d="M451.8,851.82A2.54,2.54,0,0,1,451,850a2.59,2.59,0,0,1,.77-1.83,2.54,2.54,0,0,1,1.83-.77,2.63,2.63,0,0,1,1.85.8,2.6,2.6,0,0,1,0,3.62,2.53,2.53,0,0,1-1.82.78A2.55,2.55,0,0,1,451.8,851.82Z"/><path d="M468,835.45l4,10.15L476,835.45h4.7l-7.1,16.67h-3.37l-7-16.67Z"/><path d="M481.15,841h4v1.83a3.61,3.61,0,0,1,1.58-1.55,4.28,4.28,0,0,1,2.07-.45l.8.05v3.77a3.52,3.52,0,0,0-1.72-.4,2.66,2.66,0,0,0-1.83.6,3.37,3.37,0,0,0-.9,2.55v4.77h-4Z"/><path d="M503.23,847.27H494.9a2.87,2.87,0,0,0,.7,1.88,2.25,2.25,0,0,0,1.65.55,3.24,3.24,0,0,0,1.3-.3,1.83,1.83,0,0,0,.7-.75h3.83a5.14,5.14,0,0,1-1.35,2.3,6.09,6.09,0,0,1-4.55,1.55,6.37,6.37,0,0,1-4.63-1.7,6.32,6.32,0,0,1,0-8.55,6.27,6.27,0,0,1,4.57-1.62,6.11,6.11,0,0,1,4.3,1.52,6.24,6.24,0,0,1,1.78,4.7Zm-3.68-2.3a2.67,2.67,0,0,0-.65-1.19,2.32,2.32,0,0,0-1.65-.61,2.13,2.13,0,0,0-1.62.61A2.18,2.18,0,0,0,495,845Z"/><path d="M514.18,841h4v11.17h-4V850.9a4.2,4.2,0,0,1-3.48,1.6,5.33,5.33,0,0,1-4-1.78,5.61,5.61,0,0,1-1.6-4.1,6.17,6.17,0,0,1,1.72-4.47,5.76,5.76,0,0,1,4-1.57,4.41,4.41,0,0,1,3.35,1.45ZM510,844.7a2.51,2.51,0,0,0,0,3.65,2.83,2.83,0,0,0,1.8.75,2.57,2.57,0,0,0,1.8-.78,2.43,2.43,0,0,0,.75-1.8,2.48,2.48,0,0,0-.77-1.82,2.52,2.52,0,0,0-3.55,0Z"/><path d="M524.93,841v6.25a2.11,2.11,0,0,0,.6,1.62,2.06,2.06,0,0,0,1.4.43,1.85,1.85,0,0,0,1.42-.48,2.07,2.07,0,0,0,.58-1.57V841h4v7a3.84,3.84,0,0,1-1.08,3A6.35,6.35,0,0,1,527,852.5c-1.68,0-3.73-.18-5-1.6a4,4,0,0,1-1.05-3v-7Z"/><path d="M542.23,848.42a5.8,5.8,0,0,0,1.6.83,5.33,5.33,0,0,0,1.55.27,1.65,1.65,0,0,0,1-.3.61.61,0,0,0,.2-.52.57.57,0,0,0-.2-.5,2.43,2.43,0,0,0-1-.4l-1.05-.25a3.64,3.64,0,0,1-1.95-1,2.71,2.71,0,0,1-.72-1.92,4,4,0,0,1,1-2.72,5.62,5.62,0,0,1,4-1.35,9.31,9.31,0,0,1,3.57.72l-1.35,2.55a5.51,5.51,0,0,0-2.1-.55,1.67,1.67,0,0,0-.92.23.59.59,0,0,0-.35.55.65.65,0,0,0,.47.62c.38.15.7.15,1.33.32l.72.2a4.72,4.72,0,0,1,1.65.88,3.15,3.15,0,0,1,.85,2.22,3.75,3.75,0,0,1-1.12,2.78,5.81,5.81,0,0,1-4.13,1.4,8.3,8.3,0,0,1-4.5-1.3Z"/><path d="M561.25,841h4v11.17h-4V850.9a4.17,4.17,0,0,1-3.47,1.6,5.35,5.35,0,0,1-4-1.78,5.65,5.65,0,0,1-1.6-4.1,6.17,6.17,0,0,1,1.73-4.47,5.74,5.74,0,0,1,4-1.57,4.4,4.4,0,0,1,3.35,1.45Zm2.2-5.75a4,4,0,0,1-1.1,2.73,5.28,5.28,0,0,1-6.5,0,4,4,0,0,1-1.1-2.73h2.58a1.76,1.76,0,0,0,.5,1,2,2,0,0,0,1.27.45,2.07,2.07,0,0,0,1.28-.45,1.76,1.76,0,0,0,.5-1Zm-6.4,9.5a2.5,2.5,0,0,0,0,3.65,2.79,2.79,0,0,0,1.8.75,2.57,2.57,0,0,0,1.8-.78,2.43,2.43,0,0,0,.75-1.8,2.46,2.46,0,0,0-.78-1.82,2.52,2.52,0,0,0-3.55,0Z"/><path d="M582.48,841h4v11.17h-4V850.9a4.2,4.2,0,0,1-3.48,1.6,5.33,5.33,0,0,1-4-1.78,5.61,5.61,0,0,1-1.6-4.1,6.17,6.17,0,0,1,1.72-4.47,5.76,5.76,0,0,1,4-1.57,4.41,4.41,0,0,1,3.35,1.45Zm-4.2,3.75a2.51,2.51,0,0,0,0,3.65,2.83,2.83,0,0,0,1.8.75,2.57,2.57,0,0,0,1.8-.78,2.43,2.43,0,0,0,.75-1.8,2.48,2.48,0,0,0-.77-1.82,2.52,2.52,0,0,0-3.55,0Z"/><path d="M597.68,851.87a5.9,5.9,0,0,1-2.78.63,6.2,6.2,0,0,1-4.4-1.7,5.86,5.86,0,0,1-1.72-4.18,6.05,6.05,0,0,1,1.8-4.32,6.45,6.45,0,0,1,4.5-1.7,5.75,5.75,0,0,1,2.6.63v3.35a3.56,3.56,0,0,0-2.08-.73,2.59,2.59,0,0,0-2,.78,2.69,2.69,0,0,0-.77,1.92,2.83,2.83,0,0,0,.7,1.87,2.7,2.7,0,0,0,2,.85,3,3,0,0,0,2-.75Z"/><path d="M608.4,851.87a5.87,5.87,0,0,1-2.77.63,6.18,6.18,0,0,1-4.4-1.7,5.87,5.87,0,0,1-1.73-4.18,6.09,6.09,0,0,1,1.8-4.32,6.45,6.45,0,0,1,4.5-1.7,5.75,5.75,0,0,1,2.6.63v3.35a3.53,3.53,0,0,0-2.07-.73,2.59,2.59,0,0,0-2,.78,2.7,2.7,0,0,0-.78,1.92,2.88,2.88,0,0,0,.7,1.87,2.73,2.73,0,0,0,2.05.85,3,3,0,0,0,2-.75Z"/><path d="M622.52,847.27H614.2a2.87,2.87,0,0,0,.7,1.88,2.25,2.25,0,0,0,1.65.55,3.24,3.24,0,0,0,1.3-.3,1.9,1.9,0,0,0,.7-.75h3.82A5,5,0,0,1,621,851a6,6,0,0,1-4.54,1.55,6.37,6.37,0,0,1-4.63-1.7,6.32,6.32,0,0,1,0-8.55,6.27,6.27,0,0,1,4.57-1.62,6.12,6.12,0,0,1,4.3,1.52,6.27,6.27,0,0,1,1.77,4.7Zm-3.67-2.3a2.67,2.67,0,0,0-.65-1.19,2.33,2.33,0,0,0-1.65-.61,2.13,2.13,0,0,0-1.62.61,2.18,2.18,0,0,0-.6,1.19Z"/><path d="M625.55,848.42a6,6,0,0,0,1.6.83,5.38,5.38,0,0,0,1.55.27,1.68,1.68,0,0,0,1-.3.64.64,0,0,0,.2-.52.6.6,0,0,0-.2-.5,2.43,2.43,0,0,0-1.05-.4l-1-.25a3.64,3.64,0,0,1-2-1,2.67,2.67,0,0,1-.73-1.92,4,4,0,0,1,1-2.72,5.62,5.62,0,0,1,4-1.35,9.31,9.31,0,0,1,3.57.72l-1.35,2.55a5.51,5.51,0,0,0-2.09-.55,1.71,1.71,0,0,0-.93.23.6.6,0,0,0-.35.55.66.66,0,0,0,.48.62c.37.15.69.15,1.32.32l.72.2a4.72,4.72,0,0,1,1.65.88,3.15,3.15,0,0,1,.85,2.22,3.75,3.75,0,0,1-1.12,2.78,5.81,5.81,0,0,1-4.12,1.4,8.28,8.28,0,0,1-4.5-1.3Z"/><path d="M647.77,847.27h-8.32a2.82,2.82,0,0,0,.7,1.88,2.25,2.25,0,0,0,1.65.55,3.24,3.24,0,0,0,1.3-.3,1.9,1.9,0,0,0,.7-.75h3.82a5,5,0,0,1-1.35,2.3,6.06,6.06,0,0,1-4.55,1.55,6.36,6.36,0,0,1-4.62-1.7,6.32,6.32,0,0,1,0-8.55,6.27,6.27,0,0,1,4.57-1.62,6.12,6.12,0,0,1,4.3,1.52,6.27,6.27,0,0,1,1.77,4.7ZM644.1,845a2.67,2.67,0,0,0-.65-1.19,2.33,2.33,0,0,0-1.65-.61,2.15,2.15,0,0,0-1.63.61,2.24,2.24,0,0,0-.59,1.19Z"/><path d="M655.9,848.85h4.67v3.27H649.2l5.27-7.9H650V841h11.14Z"/><path d="M677.27,851.87a5.87,5.87,0,0,1-2.77.63,6.18,6.18,0,0,1-4.4-1.7,5.86,5.86,0,0,1-1.72-4.18,6.09,6.09,0,0,1,1.79-4.32,6.45,6.45,0,0,1,4.5-1.7,5.75,5.75,0,0,1,2.6.63v3.35a3.51,3.51,0,0,0-2.07-.73,2.59,2.59,0,0,0-2,.78,2.7,2.7,0,0,0-.78,1.92,2.88,2.88,0,0,0,.7,1.87,2.73,2.73,0,0,0,2.05.85,3,3,0,0,0,2-.75Z"/><path d="M680.27,848.42a6,6,0,0,0,1.6.83,5.38,5.38,0,0,0,1.55.27,1.68,1.68,0,0,0,1-.3.64.64,0,0,0,.2-.52.6.6,0,0,0-.2-.5,2.43,2.43,0,0,0-1.05-.4l-1-.25a3.64,3.64,0,0,1-2-1,2.67,2.67,0,0,1-.73-1.92,4,4,0,0,1,1.05-2.72,5.62,5.62,0,0,1,4-1.35,9.37,9.37,0,0,1,3.58.72L687,843.85a5.56,5.56,0,0,0-2.1-.55,1.71,1.71,0,0,0-.93.23.6.6,0,0,0-.35.55.66.66,0,0,0,.48.62c.37.15.7.15,1.32.32l.73.2a4.91,4.91,0,0,1,1.65.88,3.15,3.15,0,0,1,.85,2.22,3.76,3.76,0,0,1-1.13,2.78,5.81,5.81,0,0,1-4.12,1.4,8.28,8.28,0,0,1-4.5-1.3Z"/><path d="M691.25,851.82a2.5,2.5,0,0,1-.78-1.82,2.55,2.55,0,0,1,.78-1.83,2.52,2.52,0,0,1,1.82-.77,2.62,2.62,0,0,1,1.85.8,2.36,2.36,0,0,1,.73,1.8,2.41,2.41,0,0,1-.75,1.82,2.56,2.56,0,0,1-1.83.78A2.53,2.53,0,0,1,691.25,851.82Z"/><path d="M706.67,851.87a5.87,5.87,0,0,1-2.77.63,6.18,6.18,0,0,1-4.4-1.7,5.87,5.87,0,0,1-1.73-4.18,6.09,6.09,0,0,1,1.8-4.32,6.45,6.45,0,0,1,4.5-1.7,5.75,5.75,0,0,1,2.6.63v3.35a3.51,3.51,0,0,0-2.07-.73,2.59,2.59,0,0,0-2,.78,2.7,2.7,0,0,0-.78,1.92,2.88,2.88,0,0,0,.7,1.87,2.73,2.73,0,0,0,2,.85,3,3,0,0,0,2-.75Z"/><path d="M713,841v6.25a2.11,2.11,0,0,0,.6,1.62,2.06,2.06,0,0,0,1.4.43,1.85,1.85,0,0,0,1.42-.48,2.07,2.07,0,0,0,.58-1.57V841h4v7a3.84,3.84,0,0,1-1.08,3,6.35,6.35,0,0,1-4.82,1.58c-1.68,0-3.73-.18-5-1.6a4,4,0,0,1-1-3v-7Z"/><path d="M723.7,841h4v1.83a3.6,3.6,0,0,1,1.57-1.55,4.32,4.32,0,0,1,2.08-.45l.8.05v3.77a3.54,3.54,0,0,0-1.73-.4,2.63,2.63,0,0,0-1.82.6,3.37,3.37,0,0,0-.9,2.55v4.77h-4Z"/><path d="M734.65,848.42a5.8,5.8,0,0,0,1.6.83,5.33,5.33,0,0,0,1.55.27,1.65,1.65,0,0,0,1-.3.61.61,0,0,0,.2-.52.57.57,0,0,0-.2-.5,2.43,2.43,0,0,0-1.05-.4l-1-.25a3.64,3.64,0,0,1-2-1,2.71,2.71,0,0,1-.72-1.92,4,4,0,0,1,1.05-2.72,5.62,5.62,0,0,1,4-1.35,9.31,9.31,0,0,1,3.57.72l-1.35,2.55a5.51,5.51,0,0,0-2.1-.55,1.67,1.67,0,0,0-.92.23.59.59,0,0,0-.35.55.65.65,0,0,0,.47.62c.38.15.7.15,1.33.32l.72.2a4.72,4.72,0,0,1,1.65.88,3.15,3.15,0,0,1,.85,2.22,3.75,3.75,0,0,1-1.12,2.78,5.81,5.81,0,0,1-4.13,1.4,8.3,8.3,0,0,1-4.5-1.3Z"/><path d="M745.62,851.82a2.54,2.54,0,0,1-.77-1.82,2.59,2.59,0,0,1,.77-1.83,2.54,2.54,0,0,1,1.83-.77,2.63,2.63,0,0,1,1.85.8,2.6,2.6,0,0,1,0,3.62,2.53,2.53,0,0,1-1.82.78A2.55,2.55,0,0,1,745.62,851.82Z"/><path d="M756.6,857.85h-4V841h4v1.23a4.15,4.15,0,0,1,3.42-1.6,5.56,5.56,0,0,1,4,1.62,6.35,6.35,0,0,1-.1,8.75,5.39,5.39,0,0,1-3.83,1.55,4.75,4.75,0,0,1-3.47-1.45Zm.65-13.13a2.74,2.74,0,0,0-.78,1.85,2.7,2.7,0,0,0,.78,1.78,2.56,2.56,0,0,0,1.8.75,2.42,2.42,0,0,0,1.77-.75,2.64,2.64,0,0,0,.78-1.78,2.74,2.74,0,0,0-.78-1.85,2.42,2.42,0,0,0-1.77-.75A2.56,2.56,0,0,0,757.25,844.72Z"/><path d="M772,841v6.25a2.11,2.11,0,0,0,.6,1.62,2.06,2.06,0,0,0,1.4.43,1.85,1.85,0,0,0,1.42-.48,2.07,2.07,0,0,0,.58-1.57V841h4v7a3.84,3.84,0,0,1-1.08,3,6.35,6.35,0,0,1-4.82,1.58c-1.68,0-3.73-.18-5.05-1.6a4,4,0,0,1-1-3v-7Z"/><path d="M786.75,833.9V842a4.39,4.39,0,0,1,3.32-1.45,5.71,5.71,0,0,1,3.95,1.5,6.05,6.05,0,0,1,1.83,4.42,6.19,6.19,0,0,1-1.8,4.45,5.38,5.38,0,0,1-3.93,1.55,4.09,4.09,0,0,1-3.37-1.6v1.22h-4V833.9ZM791,848.35a2.53,2.53,0,0,0,.78-1.75,2.75,2.75,0,0,0-.78-1.9,2.44,2.44,0,0,0-1.77-.73,2.48,2.48,0,0,0-1.83.75,3,3,0,0,0-.75,1.8,2.68,2.68,0,0,0,.85,1.9,2.73,2.73,0,0,0,1.73.68A2.48,2.48,0,0,0,791,848.35Z"/><path d="M798.75,851.82A2.5,2.5,0,0,1,798,850a2.55,2.55,0,0,1,.78-1.83,2.52,2.52,0,0,1,1.82-.77,2.62,2.62,0,0,1,1.85.8,2.36,2.36,0,0,1,.73,1.8,2.41,2.41,0,0,1-.75,1.82,2.56,2.56,0,0,1-1.83.78A2.53,2.53,0,0,1,798.75,851.82Z"/><path d="M805.72,841h4v1.83a3.61,3.61,0,0,1,1.58-1.55,4.28,4.28,0,0,1,2.07-.45l.8.05v3.77a3.52,3.52,0,0,0-1.72-.4,2.66,2.66,0,0,0-1.83.6,3.37,3.37,0,0,0-.9,2.55v4.77h-4Z"/><path d="M826.7,850.65a7.65,7.65,0,0,1-10,0,5.6,5.6,0,0,1-1.72-4.13,5.52,5.52,0,0,1,1.72-4.09,7.65,7.65,0,0,1,10,0,5.52,5.52,0,0,1,1.72,4.09A5.6,5.6,0,0,1,826.7,850.65Zm-6.78-5.95a2.54,2.54,0,1,0,3.58,3.6,2.48,2.48,0,0,0,.77-1.78,2.7,2.7,0,0,0-.77-1.82,2.56,2.56,0,0,0-3.58,0Z"/><path d="M831.32,851.82a2.54,2.54,0,0,1-.77-1.82,2.59,2.59,0,0,1,.77-1.83,2.54,2.54,0,0,1,1.83-.77,2.63,2.63,0,0,1,1.85.8,2.6,2.6,0,0,1,0,3.62,2.53,2.53,0,0,1-1.82.78A2.55,2.55,0,0,1,831.32,851.82Z"/><path d="M450.4,882.12H437l4.22-4.42a28.17,28.17,0,0,0,3.43-4.22,4.71,4.71,0,0,0,.9-2.6,2.5,2.5,0,0,0-.5-1.6,1.63,1.63,0,0,0-1.23-.5,1.8,1.8,0,0,0-1.45.67,4.22,4.22,0,0,0-.6,2h-4.47a6.58,6.58,0,0,1,1.85-4.62,7.18,7.18,0,0,1,9.42-.08,5.56,5.56,0,0,1,1.63,4.1,6.49,6.49,0,0,1-2.48,5l-2.8,2.6h5.45Z"/><path d="M453.35,881.82a2.54,2.54,0,0,1-.77-1.82,2.59,2.59,0,0,1,.77-1.83,2.54,2.54,0,0,1,1.83-.77,2.63,2.63,0,0,1,1.85.8,2.6,2.6,0,0,1,0,3.62,2.53,2.53,0,0,1-1.82.78A2.55,2.55,0,0,1,453.35,881.82Z"/><path d="M476.7,879.32h-6.05l-1.12,2.8H465l6.4-16.67h4.73l6.27,16.67h-4.62Zm-1.15-3.3-1.87-5.39L471.85,876Z"/><path d="M483.9,871h4v1.35a4.29,4.29,0,0,1,3.35-1.55,4.61,4.61,0,0,1,2.15.5,3.46,3.46,0,0,1,1.55,1.6,4,4,0,0,1,1.53-1.55,4.51,4.51,0,0,1,2.32-.55,4.46,4.46,0,0,1,3.1,1,4.09,4.09,0,0,1,1.05,3.07v7.27h-4V876.6a3.37,3.37,0,0,0-.57-2.4,1.48,1.48,0,0,0-1.05-.37,1.61,1.61,0,0,0-1.18.45,2.85,2.85,0,0,0-.72,2.12v5.72h-4V876.6a3.56,3.56,0,0,0-.53-2.4,1.57,1.57,0,0,0-1.2-.45,1.44,1.44,0,0,0-1.1.4,3.31,3.31,0,0,0-.7,2.45v5.52h-4Z"/><path d="M511.55,871h4v1.4a4.22,4.22,0,0,1,3.55-1.65,4.53,4.53,0,0,1,3.3,1.2,3.85,3.85,0,0,1,1.05,3.12v7.1h-4v-5.65a3.17,3.17,0,0,0-.5-2.17,1.65,1.65,0,0,0-1.27-.47,2.2,2.2,0,0,0-1.48.52,2.56,2.56,0,0,0-.65,1.77v6h-4Z"/><path d="M538,877.27H529.7a2.87,2.87,0,0,0,.7,1.88,2.25,2.25,0,0,0,1.65.55,3.24,3.24,0,0,0,1.3-.3,1.83,1.83,0,0,0,.7-.75h3.83a5.14,5.14,0,0,1-1.35,2.3A6.09,6.09,0,0,1,532,882.5a6.37,6.37,0,0,1-4.63-1.7,6.32,6.32,0,0,1,0-8.55,6.27,6.27,0,0,1,4.57-1.62,6.11,6.11,0,0,1,4.3,1.52,6.23,6.23,0,0,1,1.77,4.7Zm-3.67-2.3a2.67,2.67,0,0,0-.65-1.19,2.32,2.32,0,0,0-1.65-.61,2.13,2.13,0,0,0-1.62.61,2.18,2.18,0,0,0-.6,1.19Z"/><path d="M543.43,871l2.67,5.72,2.73-5.72h4.44l-5.82,11.17h-2.72L539,871Z"/><path d="M565.65,880.65a7.64,7.64,0,0,1-10,0,5.57,5.57,0,0,1-1.73-4.13,5.48,5.48,0,0,1,1.73-4.09,7.64,7.64,0,0,1,10,0,5.48,5.48,0,0,1,1.73,4.09A5.57,5.57,0,0,1,565.65,880.65Zm-6.77-5.95a2.55,2.55,0,0,0,1.8,4.35,2.54,2.54,0,0,0,1.77-.75,2.49,2.49,0,0,0,.78-1.78,2.71,2.71,0,0,0-.78-1.82,2.55,2.55,0,0,0-3.57,0Z"/><path d="M571.68,864.05a2.25,2.25,0,1,1-2.25,2.25A2.24,2.24,0,0,1,571.68,864.05Zm2,6.9v11.17h-4V871Z"/><path d="M588.25,877.27h-8.32a2.82,2.82,0,0,0,.7,1.88,2.25,2.25,0,0,0,1.65.55,3.24,3.24,0,0,0,1.3-.3,1.9,1.9,0,0,0,.7-.75h3.82a5,5,0,0,1-1.35,2.3,6.06,6.06,0,0,1-4.55,1.55,6.35,6.35,0,0,1-4.62-1.7,5.85,5.85,0,0,1-1.65-4.23,6,6,0,0,1,1.67-4.32,6.31,6.31,0,0,1,4.58-1.62,6.12,6.12,0,0,1,4.3,1.52,6.27,6.27,0,0,1,1.77,4.7Zm-3.67-2.3a2.67,2.67,0,0,0-.65-1.19,2.33,2.33,0,0,0-1.65-.61,2.15,2.15,0,0,0-1.63.61,2.32,2.32,0,0,0-.6,1.19Z"/><path d="M609,882.12h-4V880.9a4.11,4.11,0,0,1-3.38,1.6,5.36,5.36,0,0,1-3.92-1.55,6.15,6.15,0,0,1-1.8-4.45,6.08,6.08,0,0,1,1.82-4.42,5.72,5.72,0,0,1,4-1.5A4.41,4.41,0,0,1,605,872V863.9h4Zm-4.72-3.7a2.64,2.64,0,0,0,.85-1.9,3,3,0,0,0-.75-1.8,2.56,2.56,0,0,0-3.6,0,2.74,2.74,0,0,0-.77,1.9,2.56,2.56,0,0,0,.77,1.75,2.48,2.48,0,0,0,1.78.75A2.68,2.68,0,0,0,604.3,878.42Z"/><path d="M623.62,877.27H615.3a2.87,2.87,0,0,0,.7,1.88,2.25,2.25,0,0,0,1.65.55,3.24,3.24,0,0,0,1.3-.3,1.83,1.83,0,0,0,.7-.75h3.82a5,5,0,0,1-1.34,2.3,6.09,6.09,0,0,1-4.55,1.55,6.37,6.37,0,0,1-4.63-1.7,6.32,6.32,0,0,1,0-8.55,6.27,6.27,0,0,1,4.57-1.62,6.11,6.11,0,0,1,4.3,1.52,6.27,6.27,0,0,1,1.77,4.7ZM620,875a2.67,2.67,0,0,0-.65-1.19,2.32,2.32,0,0,0-1.65-.61,2.13,2.13,0,0,0-1.62.61,2.18,2.18,0,0,0-.6,1.19Z"/><path d="M639.63,871.6h2.44v10.52h-2.44V881a4.06,4.06,0,0,1-3.15,1.43c-3.25,0-5.1-2.7-5.1-5.6,0-3.43,2.35-5.52,5.12-5.52a3.84,3.84,0,0,1,3.13,1.5Zm-5.75,5.3a3.07,3.07,0,0,0,2.92,3.35,3,3,0,0,0,3-3.33c0-2.29-1.43-3.39-3-3.39C635,873.53,633.88,875,633.88,876.9Z"/><path d="M652.88,863.9h2.44v18.22h-2.44V881a4.06,4.06,0,0,1-3.15,1.43c-3.25,0-5.1-2.7-5.1-5.6,0-3.43,2.35-5.52,5.12-5.52a3.84,3.84,0,0,1,3.13,1.5Zm-5.75,13a3.07,3.07,0,0,0,2.92,3.35,3,3,0,0,0,3-3.33c0-2.29-1.43-3.39-3-3.39C648.28,873.53,647.13,875,647.13,876.9Z"/><path d="M667.85,879.72a5.62,5.62,0,0,1-1.77,1.93,5.8,5.8,0,0,1-3.1.8,4.67,4.67,0,0,1-3.55-1.35,5.65,5.65,0,0,1-1.55-4,6.17,6.17,0,0,1,1.67-4.32,4.83,4.83,0,0,1,3.53-1.42,4.52,4.52,0,0,1,3.37,1.37,6.31,6.31,0,0,1,1.47,4.45v.3h-7.54a3.42,3.42,0,0,0,.9,2.12,2.47,2.47,0,0,0,1.87.68,2.56,2.56,0,0,0,1.68-.53,3.72,3.72,0,0,0,1-1.15Zm-2.42-4.27a2.58,2.58,0,0,0-.75-1.42,2.36,2.36,0,0,0-1.65-.61,2.4,2.4,0,0,0-1.73.68,2.75,2.75,0,0,0-.75,1.35Z"/><path d="M675.08,874.38a1.75,1.75,0,0,0-1.5-.9,1,1,0,0,0-.75.27.79.79,0,0,0-.23.55.68.68,0,0,0,.35.6c.15.1.3.15.83.43L675,876a5,5,0,0,1,1.47,1,2.6,2.6,0,0,1,.78,2,3.47,3.47,0,0,1-.93,2.4,3.76,3.76,0,0,1-3,1.18,3.59,3.59,0,0,1-2.27-.68,4.09,4.09,0,0,1-1.35-1.92l2-1a2.76,2.76,0,0,0,.57,1,1.63,1.63,0,0,0,2.08.05,1.25,1.25,0,0,0,.35-.83,1.12,1.12,0,0,0-.33-.8,3.32,3.32,0,0,0-1.05-.65l-.9-.42a5.39,5.39,0,0,1-1.45-.9,2.3,2.3,0,0,1-.75-1.77,3.28,3.28,0,0,1,.88-2.25,3.37,3.37,0,0,1,2.57-1,3.29,3.29,0,0,1,2,.55,3.53,3.53,0,0,1,1.2,1.29Z"/><path d="M687.17,871.6h2.45v10.52h-2.45V881a4,4,0,0,1-3.14,1.43c-3.25,0-5.1-2.7-5.1-5.6,0-3.43,2.35-5.52,5.12-5.52a3.82,3.82,0,0,1,3.12,1.5Zm-5.74,5.3a3.07,3.07,0,0,0,2.92,3.35,3,3,0,0,0,3-3.33c0-2.29-1.42-3.39-3-3.39C682.58,873.53,681.43,875,681.43,876.9Z"/><path d="M701,863.9v18.22h-2.45V863.9Z"/><path d="M706.55,871.6v6a3.06,3.06,0,0,0,.45,1.9,2.12,2.12,0,0,0,3.2,0,3.06,3.06,0,0,0,.45-1.9v-6h2.45v6.1a4.39,4.39,0,0,1-1.13,3.45,4.8,4.8,0,0,1-3.42,1.3,4.64,4.64,0,0,1-3.32-1.3,4.39,4.39,0,0,1-1.13-3.45v-6.1Z"/><path d="M717.43,865.68a1.58,1.58,0,0,1,0,3.15,1.58,1.58,0,1,1,0-3.15Zm1.22,5.92v10.52H716.2V871.6Z"/><path d="M730.57,865.45v16.67H728V865.45Z"/><path d="M738.25,865.45a6.53,6.53,0,0,1,3.65.9,4.83,4.83,0,0,1,2.07,4,4.67,4.67,0,0,1-1.62,3.65,6.06,6.06,0,0,1-4.08,1.3h-1.15v6.77h-2.55V865.45ZM737.12,873h1.15c2.2,0,3.25-1.07,3.25-2.62,0-.93-.37-2.58-3.27-2.58h-1.13Z"/><path d="M746.55,881.82a2.5,2.5,0,0,1-.78-1.82,2.55,2.55,0,0,1,.78-1.83,2.52,2.52,0,0,1,1.82-.77,2.62,2.62,0,0,1,1.85.8A2.36,2.36,0,0,1,751,880a2.41,2.41,0,0,1-.75,1.82,2.56,2.56,0,0,1-1.83.78A2.53,2.53,0,0,1,746.55,881.82Z"/><path d="M690.6,333.45a2.62,2.62,0,0,0,.68,1.67,2.28,2.28,0,0,0,1.7.65,2.22,2.22,0,0,0,1.7-.72,2,2,0,0,0,.5-1.38,1.91,1.91,0,0,0-.65-1.47,2.63,2.63,0,0,0-1.6-.47,2.4,2.4,0,0,0-.73.09V328.9a2.11,2.11,0,0,0,1.78-.42,1.57,1.57,0,0,0,.55-1.18,1.85,1.85,0,0,0-.45-1.2,1.83,1.83,0,0,0-1.23-.45,1.71,1.71,0,0,0-1.2.43,2.11,2.11,0,0,0-.57,1.47h-4a5.91,5.91,0,0,1,1.63-3.82,6.64,6.64,0,0,1,8.54-.15,4.5,4.5,0,0,1,1.35,3.22,4,4,0,0,1-.49,2.05,2.88,2.88,0,0,1-1.28,1.28,4.09,4.09,0,0,1,2,1.52,4.24,4.24,0,0,1,.69,2.45,5,5,0,0,1-1.47,3.65,6.83,6.83,0,0,1-5,1.77,6.75,6.75,0,0,1-4.78-1.72,6.66,6.66,0,0,1-2.07-4.35Z"/><path d="M702.45,338.85a2.59,2.59,0,0,1-.77-1.83,2.65,2.65,0,0,1,2.6-2.6,2.63,2.63,0,0,1,1.85.8,2.61,2.61,0,0,1,0,3.63,2.55,2.55,0,0,1-3.65,0Z"/><path d="M727.6,338.7a10.38,10.38,0,0,1-3.75.82,9.08,9.08,0,0,1-6.45-2.5,8.75,8.75,0,0,1-2.52-6.07,8.74,8.74,0,0,1,8.82-8.75,10.44,10.44,0,0,1,3.9.85v5.18a4.63,4.63,0,0,0-3.77-1.83,4.25,4.25,0,0,0-3,1.1,4.64,4.64,0,0,0-1.45,3.43,4.57,4.57,0,0,0,1.35,3.24,4.61,4.61,0,0,0,3.1,1.15,4.89,4.89,0,0,0,3.77-1.75Z"/><path d="M738.63,328h4v11.17h-4v-1.23a4.17,4.17,0,0,1-3.48,1.6,5.35,5.35,0,0,1-4-1.77,5.63,5.63,0,0,1-1.6-4.1,6.15,6.15,0,0,1,1.72-4.47,5.77,5.77,0,0,1,4-1.58,4.45,4.45,0,0,1,3.35,1.45Zm-4.2,3.75a2.59,2.59,0,0,0-.8,1.82,2.55,2.55,0,0,0,.77,1.82,2.83,2.83,0,0,0,1.8.75,2.56,2.56,0,0,0,1.8-.77,2.52,2.52,0,0,0,0-3.62,2.49,2.49,0,0,0-1.79-.73A2.56,2.56,0,0,0,734.43,331.73Z"/><path d="M745.38,328h4v1.82a3.6,3.6,0,0,1,1.57-1.55,4.44,4.44,0,0,1,2.08-.45c.1,0,.27,0,.79.05v3.77a3.65,3.65,0,0,0-1.72-.39,2.62,2.62,0,0,0-1.82.59,3.38,3.38,0,0,0-.9,2.55v4.78h-4Z"/><path d="M767.45,334.3h-8.32a2.78,2.78,0,0,0,.7,1.87,2.24,2.24,0,0,0,1.64.55,3.08,3.08,0,0,0,1.31-.3,1.81,1.81,0,0,0,.69-.75h3.83A5.09,5.09,0,0,1,766,338a6.07,6.07,0,0,1-4.55,1.55,6.31,6.31,0,0,1-4.62-1.7,5.82,5.82,0,0,1-1.65-4.22,6,6,0,0,1,1.67-4.32,6.31,6.31,0,0,1,4.58-1.63,6.11,6.11,0,0,1,4.29,1.53,6.22,6.22,0,0,1,1.78,4.69Zm-3.67-2.3a2.86,2.86,0,0,0-.65-1.2,2.37,2.37,0,0,0-1.66-.6,2.17,2.17,0,0,0-1.62.6,2.36,2.36,0,0,0-.6,1.2Z"/><path d="M787.42,334.3H779.1a2.83,2.83,0,0,0,.7,1.87,2.25,2.25,0,0,0,1.65.55,3.07,3.07,0,0,0,1.3-.3,1.9,1.9,0,0,0,.7-.75h3.82a4.91,4.91,0,0,1-1.35,2.3,6,6,0,0,1-4.54,1.55,6.33,6.33,0,0,1-4.63-1.7,5.86,5.86,0,0,1-1.65-4.22,5.94,5.94,0,0,1,1.68-4.32,6.27,6.27,0,0,1,4.57-1.63,6.14,6.14,0,0,1,4.3,1.53,6.25,6.25,0,0,1,1.77,4.69Zm-3.67-2.3a2.66,2.66,0,0,0-.65-1.2,2.36,2.36,0,0,0-1.65-.6,2.16,2.16,0,0,0-1.62.6,2.21,2.21,0,0,0-.6,1.2Z"/><path d="M790.45,335.45a5.64,5.64,0,0,0,1.6.82,5.09,5.09,0,0,0,1.55.28,1.75,1.75,0,0,0,1-.3.67.67,0,0,0,.2-.53.61.61,0,0,0-.2-.5,2.62,2.62,0,0,0-1-.4l-1.05-.25a3.55,3.55,0,0,1-1.95-1,2.68,2.68,0,0,1-.73-1.93,4,4,0,0,1,1-2.72,5.67,5.67,0,0,1,4-1.35,9.08,9.08,0,0,1,3.57.73l-1.34,2.54a5.81,5.81,0,0,0-2.1-.55,1.71,1.71,0,0,0-.93.23.61.61,0,0,0-.35.55.66.66,0,0,0,.47.63c.38.14.7.14,1.33.32l.72.2a4.71,4.71,0,0,1,1.65.87,3.17,3.17,0,0,1,.85,2.23,3.71,3.71,0,0,1-1.12,2.77,5.81,5.81,0,0,1-4.12,1.4,8.19,8.19,0,0,1-4.5-1.3Z"/><path d="M805.25,331.25v7.9h-4v-7.9H800V328h1.27V324.3h4V328h2.27v3.27Z"/><path d="M820.87,334.3h-8.32a2.78,2.78,0,0,0,.7,1.87,2.25,2.25,0,0,0,1.65.55,3.07,3.07,0,0,0,1.3-.3,1.9,1.9,0,0,0,.7-.75h3.82a4.91,4.91,0,0,1-1.35,2.3,6.06,6.06,0,0,1-4.55,1.55,6.31,6.31,0,0,1-4.62-1.7,5.86,5.86,0,0,1-1.65-4.22,6,6,0,0,1,1.67-4.32,6.31,6.31,0,0,1,4.58-1.63,6.14,6.14,0,0,1,4.3,1.53,6.25,6.25,0,0,1,1.77,4.69ZM817.2,332a2.66,2.66,0,0,0-.65-1.2,2.36,2.36,0,0,0-1.65-.6,2.18,2.18,0,0,0-1.63.6,2.36,2.36,0,0,0-.6,1.2Z"/><path d="M837.65,328h4v11.17h-4v-1.23a4.17,4.17,0,0,1-3.48,1.6,5.35,5.35,0,0,1-4-1.77,5.67,5.67,0,0,1-1.6-4.1,6.15,6.15,0,0,1,1.73-4.47,5.73,5.73,0,0,1,4-1.58,4.45,4.45,0,0,1,3.35,1.45Zm-4.2,3.75a2.59,2.59,0,0,0-.8,1.82,2.55,2.55,0,0,0,.77,1.82,2.83,2.83,0,0,0,1.8.75,2.56,2.56,0,0,0,1.8-.77,2.43,2.43,0,0,0,.75-1.8,2.47,2.47,0,0,0-.77-1.82,2.53,2.53,0,0,0-1.8-.73A2.56,2.56,0,0,0,833.45,331.73Z"/><path d="M857.05,339.15h-4v-1.23a4.11,4.11,0,0,1-3.38,1.6,5.32,5.32,0,0,1-3.92-1.55,6.18,6.18,0,0,1-1.8-4.45,6.05,6.05,0,0,1,1.83-4.42,5.7,5.7,0,0,1,3.94-1.5,4.45,4.45,0,0,1,3.33,1.45v-8.12h4Zm-4.73-3.7a2.68,2.68,0,0,0,.85-1.9,2.9,2.9,0,0,0-.75-1.8,2.45,2.45,0,0,0-1.82-.75,2.42,2.42,0,0,0-1.78.73,2.7,2.7,0,0,0-.77,1.89,2.52,2.52,0,0,0,.77,1.75,2.48,2.48,0,0,0,1.78.75A2.73,2.73,0,0,0,852.32,335.45Z"/><path d="M859.8,328h4v1.82a3.6,3.6,0,0,1,1.57-1.55,4.44,4.44,0,0,1,2.08-.45c.1,0,.27,0,.8.05v3.77a3.7,3.7,0,0,0-1.73-.39,2.62,2.62,0,0,0-1.82.59,3.38,3.38,0,0,0-.9,2.55v4.78h-4Z"/><path d="M881.87,334.3h-8.32a2.78,2.78,0,0,0,.7,1.87,2.25,2.25,0,0,0,1.65.55,3.07,3.07,0,0,0,1.3-.3,1.9,1.9,0,0,0,.7-.75h3.82a4.91,4.91,0,0,1-1.35,2.3,6.06,6.06,0,0,1-4.55,1.55,6.31,6.31,0,0,1-4.62-1.7,5.82,5.82,0,0,1-1.65-4.22,6,6,0,0,1,1.67-4.32,6.31,6.31,0,0,1,4.58-1.63,6.14,6.14,0,0,1,4.3,1.53,6.25,6.25,0,0,1,1.77,4.69ZM878.2,332a2.66,2.66,0,0,0-.65-1.2,2.36,2.36,0,0,0-1.65-.6,2.18,2.18,0,0,0-1.63.6,2.36,2.36,0,0,0-.6,1.2Z"/><path d="M884.9,335.45a5.64,5.64,0,0,0,1.6.82,5,5,0,0,0,1.55.28,1.72,1.72,0,0,0,1-.3.64.64,0,0,0,.2-.53.58.58,0,0,0-.2-.5,2.56,2.56,0,0,0-1.05-.4l-1-.25a3.53,3.53,0,0,1-1.94-1,2.68,2.68,0,0,1-.73-1.93,4,4,0,0,1,1.05-2.72,5.67,5.67,0,0,1,4-1.35,9.08,9.08,0,0,1,3.57.73l-1.35,2.54a5.7,5.7,0,0,0-2.1-.55,1.67,1.67,0,0,0-.92.23.6.6,0,0,0-.35.55.66.66,0,0,0,.47.63c.38.14.7.14,1.33.32l.72.2a4.71,4.71,0,0,1,1.65.87,3.17,3.17,0,0,1,.85,2.23,3.71,3.71,0,0,1-1.12,2.77,5.81,5.81,0,0,1-4.13,1.4,8.21,8.21,0,0,1-4.5-1.3Z"/><path d="M903.92,328h4v11.17h-4v-1.23a4.15,4.15,0,0,1-3.47,1.6,5.37,5.37,0,0,1-4-1.77,5.67,5.67,0,0,1-1.6-4.1,6.15,6.15,0,0,1,1.73-4.47,5.74,5.74,0,0,1,4-1.58,4.43,4.43,0,0,1,3.35,1.45Zm-4.2,3.75a2.49,2.49,0,0,0,0,3.64,2.79,2.79,0,0,0,1.8.75,2.56,2.56,0,0,0,1.8-.77,2.52,2.52,0,0,0,0-3.62,2.51,2.51,0,0,0-1.8-.73A2.57,2.57,0,0,0,899.72,331.73Z"/><path d="M921.2,322.48v16.67h-4.33V322.48Z"/><path d="M929,333.62v5.53H924.7V322.48h6.9a5.7,5.7,0,0,1,4.22,1.5,5.17,5.17,0,0,1,1.55,4,5.39,5.39,0,0,1-1.47,4.14,5.53,5.53,0,0,1-4.15,1.45Zm0-3.49h1.45a2.88,2.88,0,0,0,1.83-.53,1.92,1.92,0,0,0,.55-1.52,2,2,0,0,0-.5-1.5,2.52,2.52,0,0,0-1.85-.6H929Z"/><path d="M953.77,328h4v11.17h-4v-1.23a4.15,4.15,0,0,1-3.47,1.6,5.37,5.37,0,0,1-4-1.77,5.67,5.67,0,0,1-1.6-4.1,6.15,6.15,0,0,1,1.73-4.47,5.74,5.74,0,0,1,4-1.58,4.43,4.43,0,0,1,3.35,1.45Zm-4.2,3.75a2.49,2.49,0,0,0,0,3.64,2.79,2.79,0,0,0,1.8.75,2.56,2.56,0,0,0,1.8-.77,2.52,2.52,0,0,0,0-3.62,2.51,2.51,0,0,0-1.8-.73A2.57,2.57,0,0,0,949.57,331.73Z"/><path d="M970.35,320.93v18.22h-4V320.93Z"/><path d="M977.07,328v6.24a2.18,2.18,0,0,0,.6,1.63,2.07,2.07,0,0,0,1.4.42,1.9,1.9,0,0,0,1.43-.47,2.08,2.08,0,0,0,.57-1.58V328h4v7a3.84,3.84,0,0,1-1.07,3,6.41,6.41,0,0,1-4.83,1.57c-1.67,0-3.72-.17-5-1.6a4,4,0,0,1-1-3v-7Z"/><path d="M989.82,321.08a2.25,2.25,0,1,1-2.25,2.25A2.24,2.24,0,0,1,989.82,321.08Zm2,6.9v11.17h-4V328Z"/><path d="M776.82,361.85a4.12,4.12,0,0,0-3-1.3,3.12,3.12,0,0,0-2.32.93,3.32,3.32,0,0,0-.9,2.42,3.45,3.45,0,0,0,1,2.52,3.15,3.15,0,0,0,2.22.85,4.09,4.09,0,0,0,3-1.35v2.73a5.78,5.78,0,0,1-3.19.82,5.13,5.13,0,0,1-4-1.55,5.45,5.45,0,0,1-1.5-3.95,5.61,5.61,0,0,1,1.6-4.07,6.25,6.25,0,0,1,7.09-.8Z"/><path d="M783.78,361.4a1.77,1.77,0,0,0-1.5-.9,1,1,0,0,0-.75.28.75.75,0,0,0-.23.54.67.67,0,0,0,.35.6c.15.11.3.15.82.43l1.25.62a5,5,0,0,1,1.48,1,2.6,2.6,0,0,1,.77,1.95,3.48,3.48,0,0,1-.92,2.4,3.76,3.76,0,0,1-2.95,1.17,3.64,3.64,0,0,1-2.27-.67,4.12,4.12,0,0,1-1.35-1.93l2-.95a2.76,2.76,0,0,0,.57,1,1.5,1.5,0,0,0,1.08.4,1.47,1.47,0,0,0,1-.35,1.22,1.22,0,0,0,.34-.82,1.11,1.11,0,0,0-.32-.8,3.15,3.15,0,0,0-1-.65l-.9-.43a5.15,5.15,0,0,1-1.45-.9,2.27,2.27,0,0,1-.75-1.77,3.3,3.3,0,0,1,.88-2.25,3.37,3.37,0,0,1,2.57-1,3.29,3.29,0,0,1,1.95.55,3.75,3.75,0,0,1,1.2,1.3Z"/><path d="M789.63,366.45a1.5,1.5,0,1,1-1.5,1.5A1.5,1.5,0,0,1,789.63,366.45Z"/><path d="M802.32,361.85a4.12,4.12,0,0,0-3-1.3,3.12,3.12,0,0,0-2.32.93,3.32,3.32,0,0,0-.9,2.42,3.49,3.49,0,0,0,.94,2.52,3.19,3.19,0,0,0,2.23.85,4.09,4.09,0,0,0,3-1.35v2.73a5.78,5.78,0,0,1-3.19.82,5.13,5.13,0,0,1-4-1.55,5.45,5.45,0,0,1-1.5-3.95,5.61,5.61,0,0,1,1.6-4.07,6.25,6.25,0,0,1,7.09-.8Z"/><path d="M807.13,358.63v6a3.06,3.06,0,0,0,.44,1.9,2,2,0,0,0,1.6.72,2,2,0,0,0,1.6-.72,3,3,0,0,0,.45-1.9v-6h2.45v6.09a4.41,4.41,0,0,1-1.12,3.45,4.8,4.8,0,0,1-3.42,1.3,4.61,4.61,0,0,1-3.33-1.3,4.41,4.41,0,0,1-1.12-3.45v-6.09Z"/><path d="M816.78,358.63h2.44v.95a4.27,4.27,0,0,1,1-.88,2.87,2.87,0,0,1,1.5-.35,3.61,3.61,0,0,1,1.92.5l-1,2.22a2.29,2.29,0,0,0-1.25-.37,1.92,1.92,0,0,0-1.52.58,3.35,3.35,0,0,0-.68,2.42v5.45h-2.44Z"/><path d="M829.17,361.4a1.76,1.76,0,0,0-1.5-.9,1,1,0,0,0-.75.28.79.79,0,0,0-.22.54.67.67,0,0,0,.35.6c.15.11.3.15.83.43l1.25.62a5.18,5.18,0,0,1,1.47,1,2.6,2.6,0,0,1,.77,1.95,3.52,3.52,0,0,1-.92,2.4,3.76,3.76,0,0,1-3,1.17,3.63,3.63,0,0,1-2.27-.67,4.12,4.12,0,0,1-1.35-1.93l2-.95a2.63,2.63,0,0,0,.57,1,1.5,1.5,0,0,0,1.08.4,1.42,1.42,0,0,0,1-.35,1.24,1.24,0,0,0,.36-.82,1.16,1.16,0,0,0-.33-.8,3.15,3.15,0,0,0-1-.65l-.9-.43a5.15,5.15,0,0,1-1.45-.9,2.27,2.27,0,0,1-.75-1.77,3.3,3.3,0,0,1,.88-2.25,3.37,3.37,0,0,1,2.57-1,3.29,3.29,0,0,1,1.95.55,3.75,3.75,0,0,1,1.2,1.3Z"/><path d="M835,366.45a1.5,1.5,0,1,1-1.49,1.5A1.5,1.5,0,0,1,835,366.45Z"/><path d="M842,374.87h-2.45V358.63H842v1.15a4,4,0,0,1,3.13-1.43,5.15,5.15,0,0,1,5.12,5.47,5.33,5.33,0,0,1-5.1,5.65,4.19,4.19,0,0,1-3.15-1.55ZM841.87,364a3,3,0,0,0,3,3.32,3.07,3.07,0,0,0,2.92-3.35c0-1.87-1.15-3.37-2.92-3.37C843.3,360.55,841.87,361.65,841.87,364Z"/><path d="M855.27,358.63v6a3.07,3.07,0,0,0,.45,1.9,2.14,2.14,0,0,0,3.2,0,3,3,0,0,0,.45-1.9v-6h2.45v6.09a4.41,4.41,0,0,1-1.12,3.45,4.8,4.8,0,0,1-3.43,1.3,4.6,4.6,0,0,1-3.32-1.3,4.38,4.38,0,0,1-1.13-3.45v-6.09Z"/><path d="M867.37,359.85a3.84,3.84,0,0,1,3.13-1.5c2.77,0,5.12,2.1,5.12,5.52,0,2.9-1.85,5.6-5.1,5.6a4,4,0,0,1-3.15-1.42v1.1h-2.45V350.93h2.45Zm-.15,4.1a3,3,0,0,0,3,3.32,3.07,3.07,0,0,0,2.92-3.35c0-1.87-1.15-3.37-2.92-3.37C868.65,360.55,867.22,361.65,867.22,364Z"/><path d="M879.62,366.45a1.5,1.5,0,1,1-1.5,1.5A1.5,1.5,0,0,1,879.62,366.45Z"/><path d="M884.17,358.63h2.45v.95a4.27,4.27,0,0,1,1-.88,2.87,2.87,0,0,1,1.5-.35,3.61,3.61,0,0,1,1.92.5l-1,2.22a2.29,2.29,0,0,0-1.25-.37,1.9,1.9,0,0,0-1.52.58,3.35,3.35,0,0,0-.68,2.42v5.45h-2.45Z"/><path d="M902.67,363.9a5.63,5.63,0,1,1-5.62-5.55A5.47,5.47,0,0,1,902.67,363.9Zm-2.5,0a3.13,3.13,0,1,0-3.12,3.35A3,3,0,0,0,900.17,363.92Z"/><path d="M908.27,363.37v-4a3.29,3.29,0,0,0,.85.12,3.42,3.42,0,0,0,2.35-.82,2,2,0,0,0,.58-1.38,1.7,1.7,0,0,0-.43-1.17,1.63,1.63,0,0,0-1.2-.48,1.41,1.41,0,0,0-1.07.43,1.78,1.78,0,0,0-.45,1.25h-4.4a5.35,5.35,0,0,1,1.5-3.55,6,6,0,0,1,4.35-1.63,6.23,6.23,0,0,1,4.42,1.63,4.87,4.87,0,0,1,1.58,3.57,4.82,4.82,0,0,1-1.2,3.15,5.31,5.31,0,0,1-2.8,1.6v1.32Zm.33,5.38a2.55,2.55,0,0,1-.78-1.83,2.67,2.67,0,0,1,2.58-2.6,2.63,2.63,0,0,1,1.87.8,2.4,2.4,0,0,1,.73,1.8,2.42,2.42,0,0,1-.75,1.83,2.59,2.59,0,0,1-1.83.77A2.52,2.52,0,0,1,908.6,368.75Z"/><path d="M1080.68,801.42h1.8v2.35h-1.8v3.15h-2.45v-3.15H1070l10.7-14.74Zm-2.45.05V796.1l-3.8,5.37Z"/><path d="M1086.68,804.22a1.5,1.5,0,1,1-1.5,1.5A1.51,1.51,0,0,1,1086.68,804.22Z"/><path d="M1107.43,804.12h-6l-1.13,2.8h-4.57l6.4-16.67h4.72l6.27,16.67h-4.62Zm-1.15-3.3-1.88-5.39-1.82,5.39Z"/><path d="M1127.27,806.92h-4V805.7a4.11,4.11,0,0,1-3.38,1.6,5.36,5.36,0,0,1-3.92-1.55,6.15,6.15,0,0,1-1.8-4.45,6.08,6.08,0,0,1,1.82-4.42,5.72,5.72,0,0,1,4-1.5,4.41,4.41,0,0,1,3.33,1.45V788.7h4Zm-4.72-3.7a2.64,2.64,0,0,0,.85-1.9,3,3,0,0,0-.75-1.8,2.56,2.56,0,0,0-3.6,0,2.74,2.74,0,0,0-.77,1.9,2.56,2.56,0,0,0,.77,1.75,2.48,2.48,0,0,0,1.78.75A2.68,2.68,0,0,0,1122.55,803.22Z"/><path d="M1130,795.75h4v1.83a3.6,3.6,0,0,1,1.57-1.55,4.32,4.32,0,0,1,2.08-.45l.8,0v3.77a3.54,3.54,0,0,0-1.73-.4,2.63,2.63,0,0,0-1.82.6,3.37,3.37,0,0,0-.9,2.55v4.77h-4Z"/><path d="M1152.1,802.07h-8.32a2.82,2.82,0,0,0,.7,1.88,2.25,2.25,0,0,0,1.65.55,3.24,3.24,0,0,0,1.3-.3,1.9,1.9,0,0,0,.7-.75H1152a5,5,0,0,1-1.35,2.3,6.06,6.06,0,0,1-4.55,1.55,6.35,6.35,0,0,1-4.62-1.7,5.85,5.85,0,0,1-1.65-4.23,6,6,0,0,1,1.67-4.32,6.31,6.31,0,0,1,4.58-1.62,6.12,6.12,0,0,1,4.3,1.52,6.27,6.27,0,0,1,1.77,4.7Zm-3.67-2.3a2.67,2.67,0,0,0-.65-1.19,2.33,2.33,0,0,0-1.65-.61,2.15,2.15,0,0,0-1.63.61,2.32,2.32,0,0,0-.6,1.19Z"/><path d="M1155.13,803.22a5.8,5.8,0,0,0,1.6.83,5.33,5.33,0,0,0,1.55.27,1.65,1.65,0,0,0,1-.3.61.61,0,0,0,.2-.52.57.57,0,0,0-.2-.5,2.43,2.43,0,0,0-1-.4l-1-.25a3.64,3.64,0,0,1-2-1,2.71,2.71,0,0,1-.72-1.92,4,4,0,0,1,1-2.72,5.62,5.62,0,0,1,4-1.35,9.31,9.31,0,0,1,3.57.72l-1.35,2.55a5.51,5.51,0,0,0-2.1-.55,1.59,1.59,0,0,0-.92.23.59.59,0,0,0-.35.55.65.65,0,0,0,.47.62c.38.15.7.15,1.33.32l.72.2a4.57,4.57,0,0,1,1.65.88,3.15,3.15,0,0,1,.85,2.22,3.75,3.75,0,0,1-1.12,2.78,5.81,5.81,0,0,1-4.13,1.4,8.3,8.3,0,0,1-4.5-1.3Z"/><path d="M1174.15,795.75h4v11.17h-4V805.7a4.17,4.17,0,0,1-3.47,1.6,5.35,5.35,0,0,1-4-1.78,5.65,5.65,0,0,1-1.6-4.1,6.19,6.19,0,0,1,1.73-4.47,5.74,5.74,0,0,1,4-1.57,4.4,4.4,0,0,1,3.35,1.45Zm-4.2,3.75a2.5,2.5,0,0,0,0,3.65,2.79,2.79,0,0,0,1.8.75,2.55,2.55,0,0,0,1.79-.78,2.39,2.39,0,0,0,.75-1.8,2.48,2.48,0,0,0-.77-1.82,2.52,2.52,0,0,0-3.55,0Z"/><path d="M1191.43,790.25v16.67h-4.33V790.25Z"/><path d="M1199.25,801.4v5.52h-4.32V790.25h6.89a5.78,5.78,0,0,1,4.23,1.5,5.17,5.17,0,0,1,1.55,4,5.43,5.43,0,0,1-1.48,4.15,5.56,5.56,0,0,1-4.14,1.45Zm0-3.5h1.45a2.83,2.83,0,0,0,1.82-.52,1.91,1.91,0,0,0,.55-1.53,2,2,0,0,0-.5-1.5,2.55,2.55,0,0,0-1.84-.6h-1.48Z"/><path d="M1224,795.75h4v11.17h-4V805.7a4.2,4.2,0,0,1-3.48,1.6,5.33,5.33,0,0,1-4-1.78,5.65,5.65,0,0,1-1.6-4.1,6.19,6.19,0,0,1,1.73-4.47,5.74,5.74,0,0,1,4-1.57,4.41,4.41,0,0,1,3.35,1.45Zm-4.2,3.75a2.51,2.51,0,0,0,0,3.65,2.83,2.83,0,0,0,1.8.75,2.57,2.57,0,0,0,1.8-.78,2.43,2.43,0,0,0,.75-1.8,2.48,2.48,0,0,0-.77-1.82,2.52,2.52,0,0,0-3.55,0Z"/><path d="M1240.57,788.7v18.22h-4V788.7Z"/><path d="M1247.3,795.75V802a2.11,2.11,0,0,0,.6,1.62,2.06,2.06,0,0,0,1.4.43,1.85,1.85,0,0,0,1.42-.48,2.07,2.07,0,0,0,.58-1.57v-6.25h4v7a3.84,3.84,0,0,1-1.08,3,6.35,6.35,0,0,1-4.82,1.58c-1.68,0-3.73-.18-5.05-1.6a4,4,0,0,1-1-3v-7Z"/><path d="M1260.05,788.85a2.25,2.25,0,1,1-2.25,2.25A2.24,2.24,0,0,1,1260.05,788.85Zm2,6.9v11.17h-4V795.75Z"/><path d="M1278.92,799.63a4.07,4.07,0,0,0-3-1.3,3.16,3.16,0,0,0-2.33.92,3.36,3.36,0,0,0-.9,2.42,3.52,3.52,0,0,0,1,2.53,3.22,3.22,0,0,0,2.23.85,4.09,4.09,0,0,0,3-1.35v2.72a5.7,5.7,0,0,1-3.2.83,5.13,5.13,0,0,1-4-1.55,5.49,5.49,0,0,1-1.5-4,5.65,5.65,0,0,1,1.6-4.08,5.75,5.75,0,0,1,4.23-1.54,5.57,5.57,0,0,1,2.87.75Z"/><path d="M1285.87,799.17a1.75,1.75,0,0,0-1.5-.89,1,1,0,0,0-.75.27.81.81,0,0,0-.22.55.66.66,0,0,0,.35.6c.15.1.3.15.82.42l1.25.63a5.06,5.06,0,0,1,1.48,1,2.63,2.63,0,0,1,.77,1.95,3.51,3.51,0,0,1-.92,2.4,3.77,3.77,0,0,1-3,1.18,3.6,3.6,0,0,1-2.28-.68,4.09,4.09,0,0,1-1.35-1.92l2-.95a2.78,2.78,0,0,0,.58,1,1.5,1.5,0,0,0,1.07.4,1.48,1.48,0,0,0,1-.35,1.25,1.25,0,0,0,.35-.83,1.15,1.15,0,0,0-.32-.8,3.32,3.32,0,0,0-1-.65l-.9-.42a5.24,5.24,0,0,1-1.45-.9,2.3,2.3,0,0,1-.75-1.77,3.26,3.26,0,0,1,.87-2.25,3.41,3.41,0,0,1,2.58-1,3.29,3.29,0,0,1,2,.55,3.61,3.61,0,0,1,1.2,1.29Z"/><path d="M1291.72,804.22a1.5,1.5,0,1,1-1.5,1.5A1.5,1.5,0,0,1,1291.72,804.22Z"/><path d="M1304.42,799.63a4.07,4.07,0,0,0-3-1.3,3.16,3.16,0,0,0-2.33.92,3.36,3.36,0,0,0-.9,2.42,3.52,3.52,0,0,0,1,2.53,3.22,3.22,0,0,0,2.23.85,4.09,4.09,0,0,0,3-1.35v2.72a5.7,5.7,0,0,1-3.2.83,5.13,5.13,0,0,1-4-1.55,5.49,5.49,0,0,1-1.5-4,5.65,5.65,0,0,1,1.6-4.08,5.75,5.75,0,0,1,4.23-1.54,5.57,5.57,0,0,1,2.87.75Z"/><path d="M1309.22,796.4v6a3.06,3.06,0,0,0,.45,1.9,2.12,2.12,0,0,0,3.2,0,3,3,0,0,0,.45-1.9v-6h2.45v6.1a4.42,4.42,0,0,1-1.12,3.45,4.8,4.8,0,0,1-3.43,1.3,4.64,4.64,0,0,1-3.32-1.3,4.39,4.39,0,0,1-1.13-3.45v-6.1Z"/><path d="M1318.87,796.4h2.45v1a4.45,4.45,0,0,1,1-.87,2.77,2.77,0,0,1,1.5-.35,3.61,3.61,0,0,1,1.92.5l-1,2.22a2.23,2.23,0,0,0-1.25-.38,1.9,1.9,0,0,0-1.52.58,3.35,3.35,0,0,0-.68,2.42v5.45h-2.45Z"/><path d="M1331.27,799.17a1.75,1.75,0,0,0-1.5-.89,1,1,0,0,0-.75.27.81.81,0,0,0-.22.55.66.66,0,0,0,.35.6c.15.1.3.15.82.42l1.25.63a5.06,5.06,0,0,1,1.48,1,2.63,2.63,0,0,1,.77,1.95,3.51,3.51,0,0,1-.92,2.4,3.77,3.77,0,0,1-3,1.18,3.6,3.6,0,0,1-2.28-.68,4.09,4.09,0,0,1-1.35-1.92l2-.95a2.78,2.78,0,0,0,.58,1,1.5,1.5,0,0,0,1.07.4,1.48,1.48,0,0,0,1-.35,1.25,1.25,0,0,0,.35-.83,1.15,1.15,0,0,0-.32-.8,3.32,3.32,0,0,0-1.05-.65l-.9-.42a5.24,5.24,0,0,1-1.45-.9,2.3,2.3,0,0,1-.75-1.77,3.26,3.26,0,0,1,.87-2.25,3.41,3.41,0,0,1,2.58-1,3.29,3.29,0,0,1,2,.55,3.61,3.61,0,0,1,1.2,1.29Z"/><path d="M1337.12,804.22a1.5,1.5,0,1,1-1.5,1.5A1.5,1.5,0,0,1,1337.12,804.22Z"/><path d="M1344.12,812.65h-2.45V796.4h2.45v1.15a4,4,0,0,1,3.13-1.42,5.14,5.14,0,0,1,5.12,5.47,5.33,5.33,0,0,1-5.1,5.65,4.19,4.19,0,0,1-3.15-1.55Zm-.15-10.93a3,3,0,0,0,3,3.33,3.07,3.07,0,0,0,2.92-3.35c0-1.88-1.15-3.37-2.92-3.37C1345.4,798.33,1344,799.42,1344,801.72Z"/><path d="M1357.37,796.4v6a3.06,3.06,0,0,0,.45,1.9,2.12,2.12,0,0,0,3.2,0,3,3,0,0,0,.45-1.9v-6h2.45v6.1a4.42,4.42,0,0,1-1.12,3.45,4.8,4.8,0,0,1-3.43,1.3,4.64,4.64,0,0,1-3.32-1.3,4.39,4.39,0,0,1-1.13-3.45v-6.1Z"/><path d="M1369.47,797.63a3.84,3.84,0,0,1,3.13-1.5c2.77,0,5.12,2.09,5.12,5.52,0,2.9-1.85,5.6-5.1,5.6a4.06,4.06,0,0,1-3.15-1.43v1.1H1367V788.7h2.45Zm-.15,4.09a3,3,0,0,0,3,3.33,3.07,3.07,0,0,0,2.92-3.35c0-1.88-1.15-3.37-2.92-3.37C1370.75,798.33,1369.32,799.42,1369.32,801.72Z"/><path d="M1381.72,804.22a1.5,1.5,0,1,1-1.5,1.5A1.5,1.5,0,0,1,1381.72,804.22Z"/><path d="M1386.27,796.4h2.45v1a4.45,4.45,0,0,1,1-.87,2.77,2.77,0,0,1,1.5-.35,3.61,3.61,0,0,1,1.92.5l-1,2.22a2.23,2.23,0,0,0-1.25-.38,1.9,1.9,0,0,0-1.52.58,3.35,3.35,0,0,0-.68,2.42v5.45h-2.45Z"/><path d="M1404.77,801.67a5.63,5.63,0,1,1-5.62-5.54A5.47,5.47,0,0,1,1404.77,801.67Zm-2.5,0a3.13,3.13,0,1,0-3.12,3.35A3,3,0,0,0,1402.27,801.7Z"/><path d="M1152.2,832.07h-8.32a2.82,2.82,0,0,0,.7,1.88,2.25,2.25,0,0,0,1.65.55,3.21,3.21,0,0,0,1.29-.3,1.91,1.91,0,0,0,.71-.75h3.82a5.14,5.14,0,0,1-1.35,2.3,6.09,6.09,0,0,1-4.55,1.55,6.35,6.35,0,0,1-4.62-1.7,5.85,5.85,0,0,1-1.65-4.23,6,6,0,0,1,1.67-4.32,6.31,6.31,0,0,1,4.58-1.62,6.09,6.09,0,0,1,4.29,1.52,6.24,6.24,0,0,1,1.78,4.7Zm-3.68-2.3a2.58,2.58,0,0,0-.65-1.19,2.3,2.3,0,0,0-1.64-.61,2.15,2.15,0,0,0-1.63.61,2.32,2.32,0,0,0-.6,1.19Z"/><path d="M1155.23,833.22a5.8,5.8,0,0,0,1.6.83,5.33,5.33,0,0,0,1.55.27,1.65,1.65,0,0,0,1-.3.64.64,0,0,0,.2-.52.6.6,0,0,0-.2-.5,2.43,2.43,0,0,0-1.05-.4l-1-.25a3.64,3.64,0,0,1-2-1,2.71,2.71,0,0,1-.72-1.92,4,4,0,0,1,1-2.72,5.6,5.6,0,0,1,4-1.35,9.35,9.35,0,0,1,3.57.72l-1.35,2.55a5.56,5.56,0,0,0-2.1-.55,1.57,1.57,0,0,0-.92.23.6.6,0,0,0-.36.55.66.66,0,0,0,.48.62c.37.15.7.15,1.32.32l.73.2a4.74,4.74,0,0,1,1.65.88,3.15,3.15,0,0,1,.85,2.22,3.76,3.76,0,0,1-1.13,2.78,5.79,5.79,0,0,1-4.12,1.4,8.3,8.3,0,0,1-4.5-1.3Z"/><path d="M1170,829v7.9h-4V829h-1.28v-3.27H1166v-3.67h4v3.67h2.28V829Z"/><path d="M1185.65,832.07h-8.33a2.87,2.87,0,0,0,.7,1.88,2.25,2.25,0,0,0,1.65.55,3.24,3.24,0,0,0,1.3-.3,1.83,1.83,0,0,0,.7-.75h3.83a5.14,5.14,0,0,1-1.35,2.3,6.09,6.09,0,0,1-4.55,1.55,6.33,6.33,0,0,1-4.62-1.7,5.85,5.85,0,0,1-1.66-4.23,5.94,5.94,0,0,1,1.68-4.32,6.27,6.27,0,0,1,4.57-1.62,6.11,6.11,0,0,1,4.3,1.52,6.24,6.24,0,0,1,1.78,4.7Zm-3.68-2.3a2.67,2.67,0,0,0-.65-1.19,2.32,2.32,0,0,0-1.65-.61,2.13,2.13,0,0,0-1.62.61,2.18,2.18,0,0,0-.6,1.19Z"/><path d="M1198.65,822.6h-2.9l1.4-2.35h4v16.67h-2.55Z"/><path d="M1214.05,831.42h1.8v2.35h-1.8v3.15h-2.45v-3.15h-8.25l10.7-14.74Zm-2.45.05V826.1l-3.8,5.37Z"/><path d="M1220.72,822.6h-2.9l1.4-2.35h4v16.67h-2.55Z"/><path d="M1230.22,834.22a1.5,1.5,0,1,1-1.49,1.5A1.5,1.5,0,0,1,1230.22,834.22Z"/><path d="M1244.82,829.6a4,4,0,0,1,.75,2.5,5,5,0,0,1-1.32,3.55,5.74,5.74,0,0,1-7.85,0,5,5,0,0,1-1.33-3.55,4,4,0,0,1,.75-2.5,4.25,4.25,0,0,1,1.75-1.35,3.37,3.37,0,0,1-1.47-1.25,4.29,4.29,0,0,1-.6-2.27,4.83,4.83,0,1,1,9.65,0,4.39,4.39,0,0,1-.6,2.27,3.41,3.41,0,0,1-1.48,1.25A4.12,4.12,0,0,1,1244.82,829.6Zm-6.47.52a3,3,0,0,0,0,4,2.78,2.78,0,0,0,4,0,3,3,0,0,0,0-4,2.92,2.92,0,0,0-4,0Zm.15-7.22a2.62,2.62,0,0,0-.7,1.85,2.45,2.45,0,0,0,.67,1.75,2.66,2.66,0,0,0,3.7,0,2.41,2.41,0,0,0,.68-1.75,2.66,2.66,0,0,0-.7-1.85,2.82,2.82,0,0,0-3.65,0Z"/><path d="M1258.77,822.6h-5.15l-.82,2.78a6.64,6.64,0,0,1,.77,0,5.49,5.49,0,0,1,3.85,1.47,5.69,5.69,0,0,1,1.63,4.27,6,6,0,0,1-1.7,4.43,7.17,7.17,0,0,1-7.83,1,6.06,6.06,0,0,1-2-1.93l1.92-1.6a3.62,3.62,0,0,0,3.45,2,3.53,3.53,0,0,0,2.55-.93,3.87,3.87,0,0,0,1.08-2.82,3.54,3.54,0,0,0-1-2.7,4,4,0,0,0-2.73-.92,5.21,5.21,0,0,0-2,.34,7.54,7.54,0,0,0-1.47.75l2.47-8.42h6.9Z"/><path d="M1264.05,834.22a1.5,1.5,0,1,1-1.5,1.5A1.51,1.51,0,0,1,1264.05,834.22Z"/><path d="M1279.1,836.92h-11.2l5.77-7c.58-.7,1.45-1.79,2-2.59a4.11,4.11,0,0,0,.88-2.4,2.61,2.61,0,0,0-2.78-2.7,3,3,0,0,0-3,3h-2.45a6.06,6.06,0,0,1,1.4-3.65,5,5,0,0,1,3.9-1.62c3.55,0,5.38,2.42,5.38,5a6.17,6.17,0,0,1-1.2,3.5,34.81,34.81,0,0,1-2.38,3l-2.6,3.07h6.23Z"/><path d="M1293.3,836.92h-11.2l5.77-7c.58-.7,1.45-1.79,2-2.59a4.11,4.11,0,0,0,.88-2.4,2.61,2.61,0,0,0-2.78-2.7,3,3,0,0,0-3,3h-2.45a6,6,0,0,1,1.41-3.65,5,5,0,0,1,3.89-1.62c3.55,0,5.38,2.42,5.38,5a6.17,6.17,0,0,1-1.2,3.5,34.81,34.81,0,0,1-2.38,3l-2.6,3.07h6.23Z"/><path d="M1304.92,831.42h1.8v2.35h-1.8v3.15h-2.45v-3.15h-8.24L1304.92,819Zm-2.45.05V826.1l-3.79,5.37Z"/><path d="M1310.93,834.22a1.5,1.5,0,1,1-1.5,1.5A1.51,1.51,0,0,1,1310.93,834.22Z"/><path d="M1316.92,822.6H1314l1.4-2.35h4v16.67h-2.55Z"/><path d="M1333.67,829.6a4,4,0,0,1,.75,2.5,5,5,0,0,1-1.32,3.55,5.74,5.74,0,0,1-7.85,0,5,5,0,0,1-1.32-3.55,4,4,0,0,1,.75-2.5,4.12,4.12,0,0,1,1.75-1.35A3.41,3.41,0,0,1,1325,827a4.39,4.39,0,0,1-.6-2.27,4.83,4.83,0,1,1,9.65,0,4.39,4.39,0,0,1-.6,2.27,3.41,3.41,0,0,1-1.48,1.25A4.12,4.12,0,0,1,1333.67,829.6Zm-6.47.52a3,3,0,0,0,0,4,2.77,2.77,0,0,0,4,0,3,3,0,0,0,0-4,2.92,2.92,0,0,0-4,0Zm.15-7.22a2.66,2.66,0,0,0-.7,1.85,2.41,2.41,0,0,0,.68,1.75,2.62,2.62,0,0,0,1.85.75,2.65,2.65,0,0,0,1.84-.75,2.41,2.41,0,0,0,.68-1.75,2.66,2.66,0,0,0-.7-1.85,2.82,2.82,0,0,0-3.65,0Z"/></svg>