<svg id="Layer_1" data-name="Layer 1" xmlns="http://www.w3.org/2000/svg" viewBox="0 0 1197 1083"><title>Cap 11 -</title><path d="M761.32,289.81a6.47,6.47,0,0,1,4.89,1.77,6.59,6.59,0,0,1,1.71,4.5,5.77,5.77,0,0,1-1.59,4.17,5.61,5.61,0,0,1-2.76,1.38l6.27,8.19h-6.45l-5-7.68v7.68h-5.19v-20Zm-2.91,9h1a3.9,3.9,0,0,0,2.52-.81,2.49,2.49,0,0,0,.66-1.68,2.36,2.36,0,0,0-.69-1.68,3.52,3.52,0,0,0-2.49-.78h-1Z"/><path d="M785.08,308.05a9.16,9.16,0,0,1-12,0,6.89,6.89,0,0,1,0-9.87,8.33,8.33,0,0,1,6-2.22,8.47,8.47,0,0,1,6,2.22,6.92,6.92,0,0,1,0,9.87ZM777,300.91a3,3,0,0,0,0,4.32,3,3,0,0,0,4.28,0,3,3,0,0,0,.93-2.13,3.07,3.07,0,0,0-5.21-2.19Z"/><path d="M794.71,296.41v7.5a2.57,2.57,0,0,0,.72,1.95,2.48,2.48,0,0,0,1.68.51,2.24,2.24,0,0,0,1.71-.57,2.49,2.49,0,0,0,.69-1.89v-7.5h4.8v8.37a4.6,4.6,0,0,1-1.29,3.6c-1.65,1.71-4,1.89-5.79,1.89-2,0-4.47-.21-6.06-1.92a4.82,4.82,0,0,1-1.26-3.57v-8.37Z"/><path d="M812.92,300.34v9.48h-4.8v-9.48h-1.53v-3.93h1.53V292h4.8v4.41h2.73v3.93Z"/><path d="M831.67,304h-10a3.39,3.39,0,0,0,.84,2.25,2.7,2.7,0,0,0,2,.66,3.79,3.79,0,0,0,1.56-.36,2.23,2.23,0,0,0,.84-.9h4.59a6,6,0,0,1-1.62,2.76c-1,1-2.55,1.86-5.46,1.86a7.61,7.61,0,0,1-5.55-2,7,7,0,0,1-2-5.07,7.16,7.16,0,0,1,2-5.19,7.55,7.55,0,0,1,5.49-2,7.35,7.35,0,0,1,5.16,1.83,7.51,7.51,0,0,1,2.13,5.64Zm-4.41-2.76a3.22,3.22,0,0,0-.78-1.44,2.8,2.8,0,0,0-2-.72,2.58,2.58,0,0,0-2,.72,2.74,2.74,0,0,0-.72,1.44Z"/><path d="M834.43,296.41h4.8v2.19a4.33,4.33,0,0,1,1.89-1.86,5.24,5.24,0,0,1,2.49-.54l1,.06v4.53a4.23,4.23,0,0,0-2.07-.48,3.14,3.14,0,0,0-2.19.72,4,4,0,0,0-1.08,3.06v5.73h-4.8Z"/><path d="M757.37,325.5h-2.9l1.4-2.35h4v16.67h-2.55Z"/><path d="M766.77,338.3a12,12,0,0,1,0-13.62,4.86,4.86,0,0,1,7.55,0,12,12,0,0,1,0,13.62,4.86,4.86,0,0,1-7.55,0Zm1.53-11.8a11.38,11.38,0,0,0,0,10,2.52,2.52,0,0,0,4.5,0,11.38,11.38,0,0,0,0-10,2.53,2.53,0,0,0-4.5,0Z"/><path d="M780.65,337.12a1.5,1.5,0,1,1-1.5,1.5A1.51,1.51,0,0,1,780.65,337.12Z"/><path d="M786.65,325.5h-2.9l1.4-2.35h4.05v16.67h-2.55Z"/><path d="M796.15,337.12a1.5,1.5,0,1,1-1.5,1.5A1.51,1.51,0,0,1,796.15,337.12Z"/><path d="M802.15,325.5h-2.9l1.4-2.35h4.05v16.67h-2.55Z"/><path d="M811.65,337.12a1.5,1.5,0,1,1-1.5,1.5A1.51,1.51,0,0,1,811.65,337.12Z"/><path d="M817.65,325.5h-2.9l1.4-2.35h4.05v16.67h-2.55Z"/><rect x="449.47" y="29.55" width="297" height="70" rx="12" ry="12" style="fill:none;stroke:#4fc2c9;stroke-miterlimit:10;stroke-width:5px"/><path d="M549.09,54.32v20H543.9v-20Z"/><path d="M552.84,60.92h4.8V62.6a5.06,5.06,0,0,1,4.26-2,5.42,5.42,0,0,1,4,1.44,4.62,4.62,0,0,1,1.26,3.75v8.52h-4.8V67.55a3.85,3.85,0,0,0-.6-2.61,2,2,0,0,0-1.53-.57,2.63,2.63,0,0,0-1.77.63,3.08,3.08,0,0,0-.78,2.13v7.2h-4.8Z"/><path d="M575.7,64.85v9.48h-4.8V64.85h-1.53V60.92h1.53V56.51h4.8v4.41h2.73v3.93Z"/><path d="M594.45,68.51h-10a3.39,3.39,0,0,0,.84,2.25,2.7,2.7,0,0,0,2,.66,3.79,3.79,0,0,0,1.56-.36,2.23,2.23,0,0,0,.84-.9h4.59a6,6,0,0,1-1.62,2.76c-1,1-2.55,1.86-5.46,1.86a7.61,7.61,0,0,1-5.55-2,7,7,0,0,1-2-5.07,7.16,7.16,0,0,1,2-5.19,7.55,7.55,0,0,1,5.49-1.95,7.35,7.35,0,0,1,5.16,1.83A7.51,7.51,0,0,1,594.45,68ZM590,65.75a3.22,3.22,0,0,0-.78-1.44,2.8,2.8,0,0,0-2-.72,2.58,2.58,0,0,0-1.95.72,2.74,2.74,0,0,0-.72,1.44Z"/><path d="M597.21,60.92H602v2.19a4.33,4.33,0,0,1,1.89-1.86,5.24,5.24,0,0,1,2.49-.54l1,.06V65.3a4.23,4.23,0,0,0-2.07-.48,3.14,3.14,0,0,0-2.19.72A4,4,0,0,0,602,68.6v5.73h-4.8Z"/><path d="M609.48,60.92h4.8V62.6a5.06,5.06,0,0,1,4.26-2,5.42,5.42,0,0,1,4,1.44,4.62,4.62,0,0,1,1.26,3.75v8.52H619V67.55a3.85,3.85,0,0,0-.6-2.61,2,2,0,0,0-1.53-.57,2.63,2.63,0,0,0-1.77.63,3.08,3.08,0,0,0-.78,2.13v7.2h-4.8Z"/><path d="M641.25,68.51h-10a3.39,3.39,0,0,0,.84,2.25,2.7,2.7,0,0,0,2,.66,3.79,3.79,0,0,0,1.56-.36,2.23,2.23,0,0,0,.84-.9h4.59a6,6,0,0,1-1.62,2.76c-1,1-2.55,1.86-5.46,1.86a7.61,7.61,0,0,1-5.55-2,7,7,0,0,1-2-5.07,7.16,7.16,0,0,1,2-5.19A7.55,7.55,0,0,1,634,60.53a7.35,7.35,0,0,1,5.16,1.83A7.51,7.51,0,0,1,641.25,68Zm-4.41-2.76a3.22,3.22,0,0,0-.78-1.44,2.8,2.8,0,0,0-2-.72,2.58,2.58,0,0,0-2,.72,2.74,2.74,0,0,0-.72,1.44Z"/><path d="M649.32,64.85v9.48h-4.8V64.85H643V60.92h1.53V56.51h4.8v4.41h2.73v3.93Z"/><rect x="505.9" y="700.45" width="185.46" height="56.5" rx="22.5" ry="22.5" style="fill:none;stroke:#f7931f;stroke-miterlimit:10;stroke-width:5px"/><polygon points="623.36 736.92 572.86 736.8 572.84 744.12 557.34 728.54 572.92 713.03 572.9 719.98 623.4 720.1 623.42 712.79 638.92 728.37 623.34 743.87 623.36 736.92" style="fill:none;stroke:#f7931f;stroke-miterlimit:10;stroke-width:5px"/><path d="M562.05,676.77a5.89,5.89,0,0,0,3.83,1.7,2.18,2.18,0,0,0,1.67-.58,1.49,1.49,0,0,0,.43-1,1.32,1.32,0,0,0-.48-1,5.94,5.94,0,0,0-2.15-.87l-1.12-.35a5.47,5.47,0,0,1-2.4-1.35,4.19,4.19,0,0,1-1-2.95,5.45,5.45,0,0,1,1.52-4,5.88,5.88,0,0,1,4.28-1.58,11.76,11.76,0,0,1,5.14,1.35l-1.72,3.38a4.38,4.38,0,0,0-2.85-1.13,2.06,2.06,0,0,0-1.42.5,1.25,1.25,0,0,0-.43.9,1.09,1.09,0,0,0,.23.75,2.69,2.69,0,0,0,1.45.75l1.32.4a6.37,6.37,0,0,1,3,1.65,3.93,3.93,0,0,1,1.08,3,5.65,5.65,0,0,1-1.58,4.2,6.43,6.43,0,0,1-4.92,1.7,8.87,8.87,0,0,1-3.27-.55,11.64,11.64,0,0,1-2.53-1.32Z"/><path d="M578,670.6l2.65,5.89,2.82-5.89h2.45l2.83,6.07,2.8-6.07H596l-5.85,11.17h-2.7l-2.8-6.15-2.68,6.15h-2.69l-5.75-11.17Z"/><path d="M599.33,663.7a2.25,2.25,0,1,1-2.25,2.25A2.24,2.24,0,0,1,599.33,663.7Zm2,6.9v11.17h-4V670.6Z"/><path d="M608.48,673.87v7.9h-4v-7.9H603.2V670.6h1.28v-3.68h4v3.68h2.27v3.27Z"/><path d="M620.7,681.52a6,6,0,0,1-2.78.62,6.13,6.13,0,0,1-4.39-1.7,5.83,5.83,0,0,1-1.73-4.17,6.08,6.08,0,0,1,1.8-4.32,6.45,6.45,0,0,1,4.5-1.7,5.72,5.72,0,0,1,2.6.62v3.35a3.63,3.63,0,0,0-2.08-.73,2.62,2.62,0,0,0-2,.78,2.75,2.75,0,0,0-.77,1.93,2.9,2.9,0,0,0,.7,1.87,2.7,2.7,0,0,0,2,.85,3.07,3.07,0,0,0,2.05-.75Z"/><path d="M623,663.55h4V672a4.78,4.78,0,0,1,1.25-1.1,5.14,5.14,0,0,1,5.6.64,3.92,3.92,0,0,1,1,3.13v7.1h-4v-5.65a3.3,3.3,0,0,0-.5-2.17,1.56,1.56,0,0,0-1.27-.48,2.09,2.09,0,0,0-1.45.48,2.41,2.41,0,0,0-.68,1.82v6h-4Z"/><polygon points="615.68 631.92 615.68 523.69 631.28 523.69 598.13 490.53 564.97 523.69 580.57 523.69 580.57 631.92 615.68 631.92" style="fill:none;stroke:#3a5c84;stroke-miterlimit:10;stroke-width:5px"/><polygon points="615.52 255.92 615.52 147.69 631.13 147.69 597.97 114.53 564.82 147.69 580.42 147.69 580.42 255.92 615.52 255.92" style="fill:none;stroke:#3a5c84;stroke-miterlimit:10;stroke-width:5px"/><line x1="1136.63" y1="825.95" x2="1136.63" y2="924.95" style="fill:none;stroke:#f4c240;stroke-miterlimit:10;stroke-width:5px"/><rect x="826.13" y="391.95" width="257" height="96.5" rx="12" ry="12" style="fill:none;stroke:#f4c240;stroke-miterlimit:10;stroke-width:5px"/><path d="M879.65,447.68H866.28l4.22-4.43a27.54,27.54,0,0,0,3.42-4.22,4.71,4.71,0,0,0,.9-2.6,2.5,2.5,0,0,0-.5-1.6,1.61,1.61,0,0,0-1.22-.5,1.81,1.81,0,0,0-1.45.67,4.11,4.11,0,0,0-.6,2.05h-4.48a6.68,6.68,0,0,1,1.85-4.62,7.18,7.18,0,0,1,9.43-.07,5.55,5.55,0,0,1,1.62,4.09A6.47,6.47,0,0,1,877,441.4l-2.8,2.6h5.45Z"/><path d="M882.6,447.38a2.55,2.55,0,0,1-.78-1.83,2.5,2.5,0,0,1,.78-1.82,2.53,2.53,0,0,1,1.82-.78,2.62,2.62,0,0,1,1.85.8,2.4,2.4,0,0,1,.73,1.8,2.42,2.42,0,0,1-.75,1.83,2.59,2.59,0,0,1-1.83.77A2.52,2.52,0,0,1,882.6,447.38Z"/><path d="M899.4,453.4h-4V436.5h4v1.23a4.15,4.15,0,0,1,3.42-1.6,5.56,5.56,0,0,1,4,1.62,6.35,6.35,0,0,1-.1,8.75,5.35,5.35,0,0,1-3.83,1.55,4.75,4.75,0,0,1-3.47-1.45Zm.65-13.12a2.72,2.72,0,0,0-.78,1.85,2.66,2.66,0,0,0,.78,1.77,2.52,2.52,0,0,0,1.8.75,2.38,2.38,0,0,0,1.77-.75,2.61,2.61,0,0,0,.78-1.77,2.72,2.72,0,0,0-.78-1.85,2.38,2.38,0,0,0-1.77-.75A2.52,2.52,0,0,0,900.05,440.28Z"/><path d="M912.8,429.61a2.25,2.25,0,1,1-2.25,2.25A2.24,2.24,0,0,1,912.8,429.61Zm2,6.89v11.18h-4V436.5Z"/><path d="M917.52,436.5h4v1.4a4.22,4.22,0,0,1,3.55-1.65,4.53,4.53,0,0,1,3.3,1.2,3.86,3.86,0,0,1,1,3.13v7.1h-4V442a3.19,3.19,0,0,0-.5-2.18,1.65,1.65,0,0,0-1.27-.47,2.2,2.2,0,0,0-1.48.52,2.58,2.58,0,0,0-.65,1.78v6h-4Z"/><path d="M944.72,436.5V447a6,6,0,0,1-1.52,4.62,6.67,6.67,0,0,1-4.93,1.8,6.84,6.84,0,0,1-5.22-2,4.08,4.08,0,0,1-1.23-2.33h4.45a1.72,1.72,0,0,0,1.88,1.15,2.41,2.41,0,0,0,1.77-.62,2.69,2.69,0,0,0,.8-2.08v-1.12a4.26,4.26,0,0,1-3.35,1.47,5.57,5.57,0,0,1-4.12-1.57,5.91,5.91,0,0,1-1.55-4.08,6.39,6.39,0,0,1,1.65-4.37,5.58,5.58,0,0,1,4-1.7,4.36,4.36,0,0,1,3.32,1.47V436.5Zm-8.15,3.75a2.65,2.65,0,0,0-.77,1.8,2.63,2.63,0,0,0,.77,1.83,2.55,2.55,0,0,0,1.8.72,2.61,2.61,0,0,0,1.8-.75,2.66,2.66,0,0,0,.75-1.8,2.83,2.83,0,0,0-.8-1.82,2.54,2.54,0,0,0-1.77-.73A2.41,2.41,0,0,0,936.57,440.25Z"/><path d="M964.52,440.18a4.05,4.05,0,0,1,1.27,2.95,4.53,4.53,0,0,1-1.34,3.15,6.88,6.88,0,0,1-5.05,1.77,6.72,6.72,0,0,1-5-1.75,4.61,4.61,0,0,1-1.37-3.17,4.52,4.52,0,0,1,1.22-3,5.63,5.63,0,0,1,2.1-1.23,4.48,4.48,0,0,1-1.5-.95,3.65,3.65,0,0,1-1.12-2.65,4.32,4.32,0,0,1,1.37-3.14,6.58,6.58,0,0,1,4.45-1.53,5.92,5.92,0,0,1,4.3,1.6,4.21,4.21,0,0,1,1.23,3,3.51,3.51,0,0,1-1,2.6,4.67,4.67,0,0,1-1.7,1A5.16,5.16,0,0,1,964.52,440.18Zm-6.5,1.05a1.92,1.92,0,0,0,0,2.77,2,2,0,0,0,1.42.6,1.85,1.85,0,0,0,1.4-.57,1.91,1.91,0,0,0,.6-1.43,1.78,1.78,0,0,0-.6-1.37,2,2,0,0,0-1.4-.58A2.09,2.09,0,0,0,958,441.23Zm.08-7.12a1.87,1.87,0,0,0-.5,1.27,1.89,1.89,0,0,0,.52,1.2,1.81,1.81,0,0,0,1.33.55,1.67,1.67,0,0,0,1.22-.5,1.75,1.75,0,0,0,0-2.6,1.7,1.7,0,0,0-1.2-.5A1.79,1.79,0,0,0,958.1,434.11Z"/><path d="M968.9,447.38a2.55,2.55,0,0,1-.78-1.83,2.5,2.5,0,0,1,.78-1.82,2.53,2.53,0,0,1,1.82-.78,2.62,2.62,0,0,1,1.85.8,2.4,2.4,0,0,1,.73,1.8,2.42,2.42,0,0,1-.75,1.83,2.59,2.59,0,0,1-1.83.77A2.52,2.52,0,0,1,968.9,447.38Z"/><path d="M987.1,440.18a4.05,4.05,0,0,1,1.27,2.95,4.5,4.5,0,0,1-1.35,3.15,6.83,6.83,0,0,1-5,1.77,6.69,6.69,0,0,1-5-1.75,4.62,4.62,0,0,1-1.38-3.17,4.53,4.53,0,0,1,1.23-3,5.48,5.48,0,0,1,2.1-1.23,4.29,4.29,0,0,1-1.5-.95,3.62,3.62,0,0,1-1.13-2.65,4.29,4.29,0,0,1,1.38-3.14,6.54,6.54,0,0,1,4.45-1.53,5.94,5.94,0,0,1,4.3,1.6,4.25,4.25,0,0,1,1.22,3,3.55,3.55,0,0,1-1,2.6,4.67,4.67,0,0,1-1.7,1A5.22,5.22,0,0,1,987.1,440.18Zm-6.5,1.05a1.93,1.93,0,0,0,0,2.77,2,2,0,0,0,1.43.6,1.87,1.87,0,0,0,1.4-.57,1.91,1.91,0,0,0,.6-1.43,1.78,1.78,0,0,0-.6-1.37,2,2,0,0,0-1.4-.58A2.07,2.07,0,0,0,980.6,441.23Zm.07-7.12a1.74,1.74,0,0,0,0,2.47,1.78,1.78,0,0,0,1.32.55,1.67,1.67,0,0,0,1.23-.5,1.77,1.77,0,0,0,0-2.6,1.71,1.71,0,0,0-1.2-.5A1.8,1.8,0,0,0,980.67,434.11Z"/><path d="M991.47,447.38a2.59,2.59,0,0,1-.77-1.83,2.65,2.65,0,0,1,2.6-2.6,2.63,2.63,0,0,1,1.85.8,2.61,2.61,0,0,1,0,3.63,2.55,2.55,0,0,1-3.65,0Z"/><path d="M1009.67,440.18a4,4,0,0,1,1.28,2.95,4.54,4.54,0,0,1-1.35,3.15,6.88,6.88,0,0,1-5.05,1.77,6.72,6.72,0,0,1-5-1.75,4.61,4.61,0,0,1-1.37-3.17,4.52,4.52,0,0,1,1.22-3,5.63,5.63,0,0,1,2.1-1.23,4.48,4.48,0,0,1-1.5-.95,3.65,3.65,0,0,1-1.12-2.65,4.32,4.32,0,0,1,1.37-3.14,6.58,6.58,0,0,1,4.45-1.53,5.94,5.94,0,0,1,4.3,1.6,4.25,4.25,0,0,1,1.23,3,3.55,3.55,0,0,1-1,2.6,4.67,4.67,0,0,1-1.7,1A5.16,5.16,0,0,1,1009.67,440.18Zm-6.5,1.05a1.92,1.92,0,0,0,0,2.77,2,2,0,0,0,1.42.6,1.85,1.85,0,0,0,1.4-.57,1.91,1.91,0,0,0,.6-1.43,1.78,1.78,0,0,0-.6-1.37,2,2,0,0,0-1.4-.58A2.09,2.09,0,0,0,1003.17,441.23Zm.08-7.12a1.87,1.87,0,0,0-.5,1.27,1.89,1.89,0,0,0,.52,1.2,1.81,1.81,0,0,0,1.33.55,1.67,1.67,0,0,0,1.22-.5,1.75,1.75,0,0,0,0-2.6,1.7,1.7,0,0,0-1.2-.5A1.79,1.79,0,0,0,1003.25,434.11Z"/><path d="M1014.05,447.38a2.55,2.55,0,0,1-.78-1.83,2.5,2.5,0,0,1,.78-1.82,2.53,2.53,0,0,1,1.82-.78,2.62,2.62,0,0,1,1.85.8,2.4,2.4,0,0,1,.73,1.8,2.42,2.42,0,0,1-.75,1.83,2.59,2.59,0,0,1-1.83.77A2.52,2.52,0,0,1,1014.05,447.38Z"/><path d="M1032.25,440.18a4.05,4.05,0,0,1,1.27,2.95,4.54,4.54,0,0,1-1.35,3.15,6.83,6.83,0,0,1-5.05,1.77,6.69,6.69,0,0,1-5-1.75,4.62,4.62,0,0,1-1.38-3.17,4.53,4.53,0,0,1,1.23-3,5.48,5.48,0,0,1,2.1-1.23,4.29,4.29,0,0,1-1.5-.95,3.62,3.62,0,0,1-1.13-2.65,4.29,4.29,0,0,1,1.38-3.14,6.54,6.54,0,0,1,4.45-1.53,5.94,5.94,0,0,1,4.3,1.6,4.25,4.25,0,0,1,1.22,3,3.51,3.51,0,0,1-1,2.6,4.63,4.63,0,0,1-1.69,1A5.22,5.22,0,0,1,1032.25,440.18Zm-6.5,1.05a1.93,1.93,0,0,0,0,2.77,2,2,0,0,0,1.43.6,1.87,1.87,0,0,0,1.4-.57,1.91,1.91,0,0,0,.6-1.43,1.78,1.78,0,0,0-.6-1.37,2,2,0,0,0-1.4-.58A2.07,2.07,0,0,0,1025.75,441.23Zm.07-7.12a1.74,1.74,0,0,0,0,2.47,1.78,1.78,0,0,0,1.32.55,1.67,1.67,0,0,0,1.23-.5,1.77,1.77,0,0,0,0-2.6,1.71,1.71,0,0,0-1.2-.5A1.8,1.8,0,0,0,1025.82,434.11Z"/><line x1="726.13" y1="409.45" x2="825.13" y2="409.45" style="fill:none;stroke:#f4c240;stroke-miterlimit:10;stroke-width:5px"/><path d="M669.34,318.58a3.25,3.25,0,1,0,4.6-4.6,42.3,42.3,0,0,0-59.75,0,3.27,3.27,0,0,0-1,2.3,3.25,3.25,0,0,0,5.55,2.3A35.78,35.78,0,0,1,669.34,318.58Z" style="fill:#91c54f"/><path d="M643.82,334.11a9.71,9.71,0,0,1,6.9,2.86,3.25,3.25,0,1,0,4.59-4.6,16.25,16.25,0,0,0-23,0,3.27,3.27,0,0,0-1,2.3,3.21,3.21,0,0,0,1,2.3,3.26,3.26,0,0,0,4.59,0A9.71,9.71,0,0,1,643.82,334.11Z" style="fill:#91c54f"/><path d="M659.9,327.77a3.25,3.25,0,1,0,4.6-4.6,29.3,29.3,0,0,0-41.37,0,3.27,3.27,0,0,0-1,2.3,3.25,3.25,0,0,0,5.55,2.3A22.77,22.77,0,0,1,659.9,327.77Z" style="fill:#91c54f"/><rect x="499.65" y="390.81" width="185.46" height="45.14" rx="22.5" ry="22.5" style="fill:none;stroke:#91c54f;stroke-miterlimit:10;stroke-width:5px"/><circle cx="518.14" cy="413.65" r="5.98" style="fill:none;stroke:#91c54f;stroke-miterlimit:10;stroke-width:5px"/><circle cx="544.97" cy="413.65" r="5.98" style="fill:none;stroke:#91c54f;stroke-miterlimit:10;stroke-width:5px"/><circle cx="571.8" cy="413.65" r="5.98" style="fill:none;stroke:#91c54f;stroke-miterlimit:10;stroke-width:5px"/><circle cx="598.63" cy="413.65" r="5.98" style="fill:none;stroke:#91c54f;stroke-miterlimit:10;stroke-width:5px"/><rect x="621.47" y="410.93" width="52.21" height="6.53" rx="3.26" ry="3.26" style="fill:#91c54f"/><rect x="618.21" y="362.53" width="52.21" height="6.53" rx="3.26" ry="3.26" transform="translate(278.52 1010.11) rotate(-90)" style="fill:#91c54f"/><rect x="464.88" y="276.95" width="263" height="193" rx="12" ry="12" style="fill:none;stroke:#3a5c84;stroke-miterlimit:10;stroke-width:5px"/><rect x="105.13" y="666.1" width="148" height="89.21" rx="12" ry="12" style="fill:none;stroke:#91c54f;stroke-miterlimit:10;stroke-width:5px"/><rect x="155.3" y="754.8" width="47.64" height="16.22" rx="4.38" ry="4.38" style="fill:#91c54f"/><rect x="124.39" y="769.5" width="109.48" height="22.3" rx="6.03" ry="6.03" style="fill:none;stroke:#91c54f;stroke-miterlimit:10;stroke-width:5px"/><circle cx="136.55" cy="777.61" r="2.03" style="fill:#91c54f"/><circle cx="142.37" cy="777.61" r="2.03" style="fill:#91c54f"/><circle cx="136.55" cy="783.69" r="2.03" style="fill:#91c54f"/><circle cx="142.37" cy="783.69" r="2.03" style="fill:#91c54f"/><rect x="195.34" y="778.62" width="31.42" height="3.04" rx="0.82" ry="0.82" style="fill:none;stroke:#91c54f;stroke-miterlimit:10;stroke-width:5px"/><path d="M156.1,848.19v6.63h-5.19v-20h8.28a6.89,6.89,0,0,1,5.07,1.8,6.2,6.2,0,0,1,1.86,4.86,6.5,6.5,0,0,1-1.77,5,6.66,6.66,0,0,1-5,1.74Zm0-4.2h1.74a3.39,3.39,0,0,0,2.19-.63,2.29,2.29,0,0,0,.66-1.83,2.43,2.43,0,0,0-.6-1.8,3,3,0,0,0-2.22-.72H156.1Z"/><path d="M183.25,854.28a12.36,12.36,0,0,1-4.5,1,10.88,10.88,0,0,1-7.74-3,10.5,10.5,0,0,1-3-7.29,10.5,10.5,0,0,1,10.59-10.5,12.4,12.4,0,0,1,4.68,1v6.21a5.57,5.57,0,0,0-4.53-2.19,5.07,5.07,0,0,0-3.6,1.32,5.59,5.59,0,0,0-1.74,4.11,5.52,5.52,0,0,0,1.62,3.9,5.59,5.59,0,0,0,3.72,1.38,5.87,5.87,0,0,0,4.53-2.1Z"/><path d="M198.46,839.22h-2.85v-4.41h8v20h-5.19Z"/><path d="M146.51,870.5h-2.9l1.4-2.35h4.05v16.67h-2.55Z"/><path d="M155.91,883.3a12,12,0,0,1,0-13.62,4.86,4.86,0,0,1,7.55,0,12,12,0,0,1,0,13.62,4.86,4.86,0,0,1-7.55,0Zm1.53-11.8a11.38,11.38,0,0,0,0,10,2.52,2.52,0,0,0,4.5,0,11.38,11.38,0,0,0,0-10,2.53,2.53,0,0,0-4.5,0Z"/><path d="M169.79,882.12a1.5,1.5,0,1,1-1.5,1.5A1.51,1.51,0,0,1,169.79,882.12Z"/><path d="M175.79,870.5h-2.9l1.4-2.35h4.05v16.67h-2.55Z"/><path d="M185.29,882.12a1.5,1.5,0,1,1-1.5,1.5A1.51,1.51,0,0,1,185.29,882.12Z"/><path d="M191.29,870.5h-2.9l1.4-2.35h4v16.67h-2.54Z"/><path d="M200.79,882.12a1.5,1.5,0,1,1-1.5,1.5A1.51,1.51,0,0,1,200.79,882.12Z"/><path d="M205.49,872.4a4.91,4.91,0,0,1,1.42-3.25,5,5,0,0,1,3.65-1.27,4.64,4.64,0,0,1,3.6,1.37,4.36,4.36,0,0,1,1.2,3.18,4,4,0,0,1-.58,2.2,3.88,3.88,0,0,1-1.5,1.4,3.35,3.35,0,0,1,1.65,1.32,4.57,4.57,0,0,1,.7,2.57,5.21,5.21,0,0,1-1.42,3.73,5.57,5.57,0,0,1-4.08,1.45,4.81,4.81,0,0,1-3.72-1.4,6.07,6.07,0,0,1-1.42-3.4h2.45a3.24,3.24,0,0,0,.89,1.8,2.9,2.9,0,0,0,2,.75,3,3,0,0,0,1.95-.7,3.18,3.18,0,0,0,.87-2.35,2.66,2.66,0,0,0-.75-2,3,3,0,0,0-2.15-.75h-.5v-2.14h.35a2.91,2.91,0,0,0,2.13-.73,2.47,2.47,0,0,0,.65-1.77,2.32,2.32,0,0,0-.65-1.68,2.47,2.47,0,0,0-1.78-.62,2.43,2.43,0,0,0-1.85.67,2.91,2.91,0,0,0-.69,1.6Z"/><polygon points="335.43 750.78 443.67 750.78 443.67 766.38 476.82 733.23 443.67 700.08 443.67 715.68 335.43 715.68 335.43 750.78" style="fill:none;stroke:#3a5c84;stroke-miterlimit:10;stroke-width:5px"/><rect x="54.63" y="924.45" width="257" height="129" rx="12" ry="12" style="fill:none;stroke:#f4c240;stroke-miterlimit:10;stroke-width:5px"/><path d="M100,967.18H97.6v-3.67h6.7v16.67H100Z"/><path d="M109.55,979.88a2.55,2.55,0,0,1-.78-1.83,2.5,2.5,0,0,1,.78-1.82,2.53,2.53,0,0,1,1.82-.78,2.62,2.62,0,0,1,1.85.8,2.4,2.4,0,0,1,.73,1.8,2.42,2.42,0,0,1-.75,1.83,2.59,2.59,0,0,1-1.83.77A2.52,2.52,0,0,1,109.55,979.88Z"/><path d="M126.35,985.9h-4V969h4v1.23a4.15,4.15,0,0,1,3.42-1.6,5.56,5.56,0,0,1,4,1.62,6.35,6.35,0,0,1-.1,8.75,5.35,5.35,0,0,1-3.83,1.55,4.75,4.75,0,0,1-3.47-1.45Zm.65-13.12a2.72,2.72,0,0,0-.78,1.85,2.66,2.66,0,0,0,.78,1.77,2.52,2.52,0,0,0,1.8.75,2.38,2.38,0,0,0,1.77-.75,2.61,2.61,0,0,0,.78-1.77,2.72,2.72,0,0,0-.78-1.85,2.38,2.38,0,0,0-1.77-.75A2.52,2.52,0,0,0,127,972.78Z"/><path d="M139.75,962.11a2.25,2.25,0,1,1-2.25,2.25A2.24,2.24,0,0,1,139.75,962.11Zm2,6.89v11.18h-4V969Z"/><path d="M144.47,969h4v1.4a4.22,4.22,0,0,1,3.55-1.65,4.53,4.53,0,0,1,3.3,1.2,3.86,3.86,0,0,1,1.05,3.13v7.1h-4v-5.65a3.19,3.19,0,0,0-.5-2.18,1.65,1.65,0,0,0-1.27-.47,2.2,2.2,0,0,0-1.48.52,2.58,2.58,0,0,0-.65,1.78v6h-4Z"/><path d="M171.67,969v10.48a6,6,0,0,1-1.52,4.62,6.67,6.67,0,0,1-4.93,1.8,6.84,6.84,0,0,1-5.22-2,4.08,4.08,0,0,1-1.23-2.33h4.45a1.72,1.72,0,0,0,1.88,1.15,2.41,2.41,0,0,0,1.77-.62,2.69,2.69,0,0,0,.8-2.08v-1.12a4.26,4.26,0,0,1-3.35,1.47,5.57,5.57,0,0,1-4.12-1.57,5.91,5.91,0,0,1-1.55-4.08,6.39,6.39,0,0,1,1.65-4.37,5.58,5.58,0,0,1,4-1.7,4.36,4.36,0,0,1,3.32,1.47V969Zm-8.15,3.75a2.65,2.65,0,0,0-.77,1.8,2.63,2.63,0,0,0,.77,1.83,2.55,2.55,0,0,0,1.8.72,2.61,2.61,0,0,0,1.8-.75,2.66,2.66,0,0,0,.75-1.8,2.83,2.83,0,0,0-.8-1.82,2.54,2.54,0,0,0-1.77-.73A2.41,2.41,0,0,0,163.52,972.75Z"/><path d="M184.72,967.18h-2.37v-3.67h6.7v16.67h-4.33Z"/><path d="M203.8,978.65a6.52,6.52,0,0,1-9.2,0,10.59,10.59,0,0,1,0-13.62,6.52,6.52,0,0,1,9.2,0,10.62,10.62,0,0,1,0,13.62Zm-5.93-11.12c-.9.77-1.45,2.8-1.45,4.35,0,1.32.48,3.5,1.45,4.35a2.05,2.05,0,0,0,1.33.52,2,2,0,0,0,1.32-.52c.93-.8,1.45-2.9,1.45-4.33s-.57-3.6-1.45-4.37a2,2,0,0,0-1.32-.53A2.06,2.06,0,0,0,197.87,967.53Z"/><path d="M208.67,979.88a2.59,2.59,0,0,1-.77-1.83,2.65,2.65,0,0,1,2.6-2.6,2.63,2.63,0,0,1,1.85.8,2.61,2.61,0,0,1,0,3.63,2.55,2.55,0,0,1-3.65,0Z"/><path d="M218.12,967.18h-2.37v-3.67h6.7v16.67h-4.33Z"/><path d="M227.7,979.88a2.55,2.55,0,0,1-.78-1.83,2.5,2.5,0,0,1,.78-1.82,2.53,2.53,0,0,1,1.82-.78,2.62,2.62,0,0,1,1.85.8,2.4,2.4,0,0,1,.73,1.8,2.42,2.42,0,0,1-.75,1.83,2.59,2.59,0,0,1-1.83.77A2.52,2.52,0,0,1,227.7,979.88Z"/><path d="M237.15,967.18h-2.38v-3.67h6.7v16.67h-4.32Z"/><path d="M246.72,979.88a2.59,2.59,0,0,1-.77-1.83,2.65,2.65,0,0,1,2.6-2.6,2.63,2.63,0,0,1,1.85.8,2.61,2.61,0,0,1,0,3.63,2.55,2.55,0,0,1-3.65,0Z"/><path d="M266.35,980.18H253l4.23-4.43a27.54,27.54,0,0,0,3.42-4.22,4.71,4.71,0,0,0,.9-2.6,2.5,2.5,0,0,0-.5-1.6,1.61,1.61,0,0,0-1.22-.5,1.81,1.81,0,0,0-1.45.67,4.11,4.11,0,0,0-.6,2h-4.48a6.68,6.68,0,0,1,1.85-4.62,7.18,7.18,0,0,1,9.43-.07,5.55,5.55,0,0,1,1.62,4.09,6.47,6.47,0,0,1-2.47,4.95l-2.8,2.6h5.45Z"/><path d="M108.15,1010.18H94.77l4.23-4.43a27.54,27.54,0,0,0,3.42-4.22,4.71,4.71,0,0,0,.9-2.6,2.5,2.5,0,0,0-.5-1.6,1.61,1.61,0,0,0-1.22-.5,1.81,1.81,0,0,0-1.45.67,4.11,4.11,0,0,0-.6,2H95.07a6.68,6.68,0,0,1,1.85-4.62,7.18,7.18,0,0,1,9.43-.07A5.55,5.55,0,0,1,108,999a6.47,6.47,0,0,1-2.47,4.95l-2.8,2.6h5.45Z"/><path d="M111.1,1009.88a2.55,2.55,0,0,1-.78-1.83,2.5,2.5,0,0,1,.78-1.82,2.53,2.53,0,0,1,1.82-.78,2.62,2.62,0,0,1,1.85.8,2.4,2.4,0,0,1,.73,1.8,2.42,2.42,0,0,1-.75,1.83,2.59,2.59,0,0,1-1.83.77A2.52,2.52,0,0,1,111.1,1009.88Z"/><path d="M127.9,1015.9h-4V999h4v1.23a4.15,4.15,0,0,1,3.42-1.6,5.56,5.56,0,0,1,4,1.62,6.35,6.35,0,0,1-.1,8.75,5.35,5.35,0,0,1-3.83,1.55,4.75,4.75,0,0,1-3.47-1.45Zm.65-13.12a2.72,2.72,0,0,0-.78,1.85,2.66,2.66,0,0,0,.78,1.77,2.52,2.52,0,0,0,1.8.75,2.38,2.38,0,0,0,1.77-.75,2.61,2.61,0,0,0,.78-1.77,2.72,2.72,0,0,0-.78-1.85,2.38,2.38,0,0,0-1.77-.75A2.52,2.52,0,0,0,128.55,1002.78Z"/><path d="M141.3,992.11a2.25,2.25,0,1,1-2.25,2.25A2.24,2.24,0,0,1,141.3,992.11Zm2,6.89v11.18h-4V999Z"/><path d="M146,999h4v1.4a4.22,4.22,0,0,1,3.55-1.65,4.53,4.53,0,0,1,3.3,1.2,3.86,3.86,0,0,1,1,3.13v7.1h-4v-5.65a3.19,3.19,0,0,0-.5-2.18,1.65,1.65,0,0,0-1.27-.47,2.2,2.2,0,0,0-1.48.52,2.58,2.58,0,0,0-.65,1.78v6h-4Z"/><path d="M173.22,999v10.48a6,6,0,0,1-1.52,4.62,6.67,6.67,0,0,1-4.93,1.8,6.84,6.84,0,0,1-5.22-2,4.08,4.08,0,0,1-1.23-2.33h4.45a1.72,1.72,0,0,0,1.88,1.15,2.41,2.41,0,0,0,1.77-.62,2.69,2.69,0,0,0,.8-2.08v-1.12a4.26,4.26,0,0,1-3.35,1.47,5.57,5.57,0,0,1-4.12-1.57,5.91,5.91,0,0,1-1.55-4.08,6.39,6.39,0,0,1,1.65-4.37,5.58,5.58,0,0,1,4.05-1.7,4.36,4.36,0,0,1,3.32,1.47V999Zm-8.15,3.75a2.65,2.65,0,0,0-.77,1.8,2.63,2.63,0,0,0,.77,1.83,2.55,2.55,0,0,0,1.8.72,2.61,2.61,0,0,0,1.8-.75,2.66,2.66,0,0,0,.75-1.8,2.83,2.83,0,0,0-.8-1.82,2.54,2.54,0,0,0-1.77-.73A2.41,2.41,0,0,0,165.07,1002.75Z"/><path d="M193,1002.68a4,4,0,0,1,1.28,3,4.54,4.54,0,0,1-1.35,3.15,6.88,6.88,0,0,1-5,1.77,6.72,6.72,0,0,1-5-1.75,4.61,4.61,0,0,1-1.37-3.17,4.52,4.52,0,0,1,1.22-3,5.63,5.63,0,0,1,2.1-1.23,4.48,4.48,0,0,1-1.5-.95,3.65,3.65,0,0,1-1.12-2.65,4.32,4.32,0,0,1,1.37-3.14,6.58,6.58,0,0,1,4.45-1.53,5.92,5.92,0,0,1,4.3,1.6,4.21,4.21,0,0,1,1.23,3,3.51,3.51,0,0,1-1,2.6,4.67,4.67,0,0,1-1.7,1A5.16,5.16,0,0,1,193,1002.68Zm-6.5,1.05a1.92,1.92,0,0,0,0,2.77,2,2,0,0,0,1.42.6,1.85,1.85,0,0,0,1.4-.57,1.91,1.91,0,0,0,.6-1.43,1.78,1.78,0,0,0-.6-1.37,2,2,0,0,0-1.4-.58A2.09,2.09,0,0,0,186.52,1003.73Zm.08-7.12a1.87,1.87,0,0,0-.5,1.27,1.89,1.89,0,0,0,.52,1.2,1.81,1.81,0,0,0,1.33.55,1.67,1.67,0,0,0,1.22-.5,1.75,1.75,0,0,0,0-2.6,1.7,1.7,0,0,0-1.2-.5A1.79,1.79,0,0,0,186.6,996.61Z"/><path d="M197.4,1009.88a2.55,2.55,0,0,1-.78-1.83,2.5,2.5,0,0,1,.78-1.82,2.53,2.53,0,0,1,1.82-.78,2.62,2.62,0,0,1,1.85.8,2.4,2.4,0,0,1,.73,1.8,2.42,2.42,0,0,1-.75,1.83,2.59,2.59,0,0,1-1.83.77A2.52,2.52,0,0,1,197.4,1009.88Z"/><path d="M215.6,1002.68a4.05,4.05,0,0,1,1.27,3,4.5,4.5,0,0,1-1.35,3.15,6.83,6.83,0,0,1-5.05,1.77,6.69,6.69,0,0,1-5-1.75,4.62,4.62,0,0,1-1.38-3.17,4.53,4.53,0,0,1,1.23-3,5.48,5.48,0,0,1,2.1-1.23,4.29,4.29,0,0,1-1.5-.95,3.62,3.62,0,0,1-1.13-2.65,4.29,4.29,0,0,1,1.38-3.14,6.54,6.54,0,0,1,4.45-1.53,5.94,5.94,0,0,1,4.3,1.6,4.25,4.25,0,0,1,1.22,3,3.55,3.55,0,0,1-1,2.6,4.67,4.67,0,0,1-1.7,1A5.22,5.22,0,0,1,215.6,1002.68Zm-6.5,1.05a1.93,1.93,0,0,0,0,2.77,2,2,0,0,0,1.43.6,1.87,1.87,0,0,0,1.4-.57,1.91,1.91,0,0,0,.6-1.43,1.78,1.78,0,0,0-.6-1.37,2,2,0,0,0-1.4-.58A2.07,2.07,0,0,0,209.1,1003.73Zm.07-7.12a1.74,1.74,0,0,0,0,2.47,1.78,1.78,0,0,0,1.32.55,1.67,1.67,0,0,0,1.23-.5,1.77,1.77,0,0,0,0-2.6,1.71,1.71,0,0,0-1.2-.5A1.8,1.8,0,0,0,209.17,996.61Z"/><path d="M220,1009.88a2.59,2.59,0,0,1-.77-1.83,2.65,2.65,0,0,1,2.6-2.6,2.63,2.63,0,0,1,1.85.8,2.61,2.61,0,0,1,0,3.63,2.55,2.55,0,0,1-3.65,0Z"/><path d="M238.17,1002.68a4.05,4.05,0,0,1,1.27,3,4.53,4.53,0,0,1-1.34,3.15,6.88,6.88,0,0,1-5,1.77,6.72,6.72,0,0,1-5-1.75,4.61,4.61,0,0,1-1.37-3.17,4.52,4.52,0,0,1,1.22-3,5.63,5.63,0,0,1,2.1-1.23,4.48,4.48,0,0,1-1.5-.95,3.65,3.65,0,0,1-1.12-2.65,4.32,4.32,0,0,1,1.37-3.14,6.58,6.58,0,0,1,4.45-1.53,5.92,5.92,0,0,1,4.3,1.6,4.21,4.21,0,0,1,1.23,3,3.55,3.55,0,0,1-1,2.6,4.67,4.67,0,0,1-1.7,1A5.16,5.16,0,0,1,238.17,1002.68Zm-6.5,1.05a1.92,1.92,0,0,0,0,2.77,2,2,0,0,0,1.42.6,1.85,1.85,0,0,0,1.4-.57,1.91,1.91,0,0,0,.6-1.43,1.78,1.78,0,0,0-.6-1.37,2,2,0,0,0-1.4-.58A2.09,2.09,0,0,0,231.67,1003.73Zm.08-7.12a1.87,1.87,0,0,0-.5,1.27,1.89,1.89,0,0,0,.52,1.2,1.81,1.81,0,0,0,1.33.55,1.67,1.67,0,0,0,1.22-.5,1.75,1.75,0,0,0,0-2.6,1.7,1.7,0,0,0-1.2-.5A1.79,1.79,0,0,0,231.75,996.61Z"/><path d="M242.55,1009.88a2.55,2.55,0,0,1-.78-1.83,2.5,2.5,0,0,1,.78-1.82,2.53,2.53,0,0,1,1.82-.78,2.62,2.62,0,0,1,1.85.8,2.4,2.4,0,0,1,.73,1.8,2.42,2.42,0,0,1-.75,1.83,2.59,2.59,0,0,1-1.83.77A2.52,2.52,0,0,1,242.55,1009.88Z"/><path d="M260.75,1002.68a4.05,4.05,0,0,1,1.27,3,4.54,4.54,0,0,1-1.35,3.15,6.83,6.83,0,0,1-5.05,1.77,6.69,6.69,0,0,1-5-1.75,4.62,4.62,0,0,1-1.38-3.17,4.53,4.53,0,0,1,1.23-3,5.48,5.48,0,0,1,2.1-1.23,4.29,4.29,0,0,1-1.5-.95A3.62,3.62,0,0,1,250,997.8a4.29,4.29,0,0,1,1.38-3.14,6.54,6.54,0,0,1,4.45-1.53,5.94,5.94,0,0,1,4.3,1.6,4.25,4.25,0,0,1,1.22,3,3.51,3.51,0,0,1-1,2.6,4.55,4.55,0,0,1-1.69,1A5.22,5.22,0,0,1,260.75,1002.68Zm-6.5,1.05a1.93,1.93,0,0,0,0,2.77,2,2,0,0,0,1.43.6,1.87,1.87,0,0,0,1.4-.57,1.91,1.91,0,0,0,.6-1.43,1.78,1.78,0,0,0-.6-1.37,2,2,0,0,0-1.4-.58A2.07,2.07,0,0,0,254.25,1003.73Zm.07-7.12a1.74,1.74,0,0,0,0,2.47,1.78,1.78,0,0,0,1.32.55,1.67,1.67,0,0,0,1.23-.5,1.77,1.77,0,0,0,0-2.6,1.71,1.71,0,0,0-1.2-.5A1.8,1.8,0,0,0,254.32,996.61Z"/><line x1="85.63" y1="824.45" x2="85.63" y2="923.45" style="fill:none;stroke:#f4c240;stroke-miterlimit:10;stroke-width:5px"/><rect x="47.88" y="631.95" width="263" height="193" rx="12" ry="12" style="fill:none;stroke:#3a5c84;stroke-miterlimit:10;stroke-width:5px"/><rect x="952.13" y="665.1" width="148" height="89.21" rx="12" ry="12" style="fill:none;stroke:#91c54f;stroke-miterlimit:10;stroke-width:5px"/><rect x="1002.3" y="753.8" width="47.64" height="16.22" rx="4.38" ry="4.38" style="fill:#91c54f"/><rect x="971.39" y="768.5" width="109.48" height="22.3" rx="6.03" ry="6.03" style="fill:none;stroke:#91c54f;stroke-miterlimit:10;stroke-width:5px"/><circle cx="983.55" cy="776.61" r="2.03" style="fill:#91c54f"/><circle cx="989.37" cy="776.61" r="2.03" style="fill:#91c54f"/><circle cx="983.55" cy="782.69" r="2.03" style="fill:#91c54f"/><circle cx="989.37" cy="782.69" r="2.03" style="fill:#91c54f"/><rect x="1042.34" y="777.62" width="31.42" height="3.04" rx="0.82" ry="0.82" style="fill:none;stroke:#91c54f;stroke-miterlimit:10;stroke-width:5px"/><path d="M1003.1,847.19v6.63h-5.19v-20h8.28a6.89,6.89,0,0,1,5.07,1.8,6.2,6.2,0,0,1,1.86,4.86,6.5,6.5,0,0,1-1.77,5,6.66,6.66,0,0,1-5,1.74Zm0-4.2h1.74a3.39,3.39,0,0,0,2.19-.63,2.29,2.29,0,0,0,.66-1.83,2.43,2.43,0,0,0-.6-1.8,3,3,0,0,0-2.22-.72h-1.77Z"/><path d="M1030.25,853.28a12.36,12.36,0,0,1-4.5,1,10.88,10.88,0,0,1-7.74-3,10.5,10.5,0,0,1-3-7.29,10.5,10.5,0,0,1,10.59-10.5,12.4,12.4,0,0,1,4.68,1v6.21a5.57,5.57,0,0,0-4.53-2.19,5.07,5.07,0,0,0-3.6,1.32,5.59,5.59,0,0,0-1.74,4.11,5.52,5.52,0,0,0,1.62,3.9,5.59,5.59,0,0,0,3.72,1.38,5.87,5.87,0,0,0,4.53-2.1Z"/><path d="M1055.27,853.82h-16l5.07-5.31a33.14,33.14,0,0,0,4.11-5.07,5.63,5.63,0,0,0,1.08-3.12,3,3,0,0,0-.6-1.92,2,2,0,0,0-1.47-.6,2.15,2.15,0,0,0-1.74.81,5,5,0,0,0-.72,2.46h-5.37a8,8,0,0,1,2.22-5.55,8.62,8.62,0,0,1,11.31-.09,6.68,6.68,0,0,1,2,4.92c0,2.52-1.17,4.26-3,5.94l-3.36,3.12h6.54Z"/><path d="M993.51,869.5h-2.9l1.4-2.35h4v16.67h-2.55Z"/><path d="M1002.91,882.3a12,12,0,0,1,0-13.62,4.86,4.86,0,0,1,7.55,0,12,12,0,0,1,0,13.62,4.86,4.86,0,0,1-7.55,0Zm1.53-11.8a11.38,11.38,0,0,0,0,10,2.52,2.52,0,0,0,4.5,0,11.38,11.38,0,0,0,0-10,2.53,2.53,0,0,0-4.5,0Z"/><path d="M1016.79,881.12a1.5,1.5,0,1,1-1.5,1.5A1.51,1.51,0,0,1,1016.79,881.12Z"/><path d="M1022.79,869.5h-2.9l1.4-2.35h4v16.67h-2.55Z"/><path d="M1032.29,881.12a1.5,1.5,0,1,1-1.5,1.5A1.51,1.51,0,0,1,1032.29,881.12Z"/><path d="M1038.29,869.5h-2.9l1.4-2.35h4v16.67h-2.54Z"/><path d="M1047.79,881.12a1.5,1.5,0,1,1-1.5,1.5A1.51,1.51,0,0,1,1047.79,881.12Z"/><path d="M1062.83,883.82h-11.19l5.77-7c.57-.7,1.45-1.8,2-2.59a4.19,4.19,0,0,0,.87-2.4,2.6,2.6,0,0,0-2.77-2.7,3,3,0,0,0-3,3h-2.45a6.06,6.06,0,0,1,1.4-3.65,5,5,0,0,1,3.9-1.62c3.55,0,5.37,2.42,5.37,5a6.12,6.12,0,0,1-1.2,3.5,34.46,34.46,0,0,1-2.37,3l-2.6,3.07h6.22Z"/><polygon points="730.43 748.78 838.67 748.78 838.67 764.38 871.82 731.23 838.67 698.08 838.67 713.68 730.43 713.68 730.43 748.78" style="fill:none;stroke:#3a5c84;stroke-miterlimit:10;stroke-width:5px"/><rect x="894.13" y="922.95" width="257" height="96.5" rx="12" ry="12" style="fill:none;stroke:#f4c240;stroke-miterlimit:10;stroke-width:5px"/><path d="M939.47,965.68H937.1V962h6.7v16.67h-4.33Z"/><path d="M949.05,978.38a2.55,2.55,0,0,1-.77-1.83,2.5,2.5,0,0,1,.77-1.82,2.53,2.53,0,0,1,1.82-.78,2.62,2.62,0,0,1,1.85.8,2.4,2.4,0,0,1,.73,1.8,2.42,2.42,0,0,1-.75,1.83,2.59,2.59,0,0,1-1.83.77A2.52,2.52,0,0,1,949.05,978.38Z"/><path d="M965.85,984.4h-4V967.5h4v1.23a4.15,4.15,0,0,1,3.42-1.6,5.56,5.56,0,0,1,4,1.62,6.35,6.35,0,0,1-.1,8.75,5.35,5.35,0,0,1-3.83,1.55,4.75,4.75,0,0,1-3.47-1.45Zm.65-13.12a2.72,2.72,0,0,0-.78,1.85,2.66,2.66,0,0,0,.78,1.77,2.52,2.52,0,0,0,1.8.75,2.38,2.38,0,0,0,1.77-.75,2.61,2.61,0,0,0,.78-1.77,2.72,2.72,0,0,0-.78-1.85,2.38,2.38,0,0,0-1.77-.75A2.52,2.52,0,0,0,966.5,971.28Z"/><path d="M979.25,960.61a2.25,2.25,0,1,1-2.25,2.25A2.24,2.24,0,0,1,979.25,960.61Zm2,6.89v11.18h-4V967.5Z"/><path d="M984,967.5h4v1.4a4.22,4.22,0,0,1,3.55-1.65,4.53,4.53,0,0,1,3.3,1.2,3.86,3.86,0,0,1,1,3.13v7.1h-4V973a3.19,3.19,0,0,0-.5-2.18,1.65,1.65,0,0,0-1.27-.47,2.2,2.2,0,0,0-1.48.52,2.58,2.58,0,0,0-.65,1.78v6h-4Z"/><path d="M1011.17,967.5V978a6,6,0,0,1-1.52,4.62,6.67,6.67,0,0,1-4.93,1.8,6.84,6.84,0,0,1-5.22-2,4.08,4.08,0,0,1-1.23-2.33h4.45a1.72,1.72,0,0,0,1.88,1.15,2.41,2.41,0,0,0,1.77-.62,2.69,2.69,0,0,0,.8-2.08v-1.12a4.26,4.26,0,0,1-3.35,1.47,5.57,5.57,0,0,1-4.12-1.57,5.91,5.91,0,0,1-1.55-4.08,6.39,6.39,0,0,1,1.65-4.37,5.58,5.58,0,0,1,4.05-1.7,4.36,4.36,0,0,1,3.32,1.47V967.5Zm-8.15,3.75a2.65,2.65,0,0,0-.77,1.8,2.63,2.63,0,0,0,.77,1.83,2.55,2.55,0,0,0,1.8.72,2.61,2.61,0,0,0,1.8-.75,2.66,2.66,0,0,0,.75-1.8,2.83,2.83,0,0,0-.8-1.82,2.54,2.54,0,0,0-1.77-.73A2.41,2.41,0,0,0,1003,971.25Z"/><path d="M1024.22,965.68h-2.37V962h6.7v16.67h-4.33Z"/><path d="M1043.3,977.15a6.52,6.52,0,0,1-9.2,0,10.59,10.59,0,0,1,0-13.62,6.52,6.52,0,0,1,9.2,0,10.62,10.62,0,0,1,0,13.62ZM1037.37,966c-.9.77-1.45,2.8-1.45,4.35,0,1.32.48,3.5,1.45,4.35a2.05,2.05,0,0,0,1.33.52,2,2,0,0,0,1.32-.52c.93-.8,1.45-2.9,1.45-4.33s-.57-3.6-1.45-4.37a2,2,0,0,0-1.32-.53A2.06,2.06,0,0,0,1037.37,966Z"/><path d="M1048.17,978.38a2.59,2.59,0,0,1-.77-1.83,2.65,2.65,0,0,1,2.6-2.6,2.63,2.63,0,0,1,1.85.8,2.61,2.61,0,0,1,0,3.63,2.55,2.55,0,0,1-3.65,0Z"/><path d="M1057.62,965.68h-2.37V962h6.7v16.67h-4.33Z"/><path d="M1067.2,978.38a2.55,2.55,0,0,1-.78-1.83,2.5,2.5,0,0,1,.78-1.82A2.53,2.53,0,0,1,1069,974a2.62,2.62,0,0,1,1.85.8,2.4,2.4,0,0,1,.73,1.8,2.42,2.42,0,0,1-.75,1.83,2.59,2.59,0,0,1-1.83.77A2.52,2.52,0,0,1,1067.2,978.38Z"/><path d="M1076.65,965.68h-2.38V962h6.7v16.67h-4.32Z"/><path d="M1086.22,978.38a2.59,2.59,0,0,1-.77-1.83,2.65,2.65,0,0,1,2.6-2.6,2.63,2.63,0,0,1,1.85.8,2.61,2.61,0,0,1,0,3.63,2.55,2.55,0,0,1-3.65,0Z"/><path d="M1105.85,978.68h-13.38l4.23-4.43a27.54,27.54,0,0,0,3.42-4.22,4.71,4.71,0,0,0,.9-2.6,2.5,2.5,0,0,0-.5-1.6,1.61,1.61,0,0,0-1.22-.5,1.81,1.81,0,0,0-1.45.67,4.11,4.11,0,0,0-.6,2h-4.48a6.68,6.68,0,0,1,1.85-4.62,7.18,7.18,0,0,1,9.43-.07,5.55,5.55,0,0,1,1.62,4.09,6.47,6.47,0,0,1-2.47,4.95l-2.8,2.6h5.45Z"/><rect x="894.88" y="630.95" width="263" height="193" rx="12" ry="12" style="fill:none;stroke:#3a5c84;stroke-miterlimit:10;stroke-width:5px"/></svg>