<?xml version="1.0" encoding="UTF-8" standalone="no"?>
<svg
   xmlns:dc="http://purl.org/dc/elements/1.1/"
   xmlns:cc="http://creativecommons.org/ns#"
   xmlns:rdf="http://www.w3.org/1999/02/22-rdf-syntax-ns#"
   xmlns:svg="http://www.w3.org/2000/svg"
   xmlns="http://www.w3.org/2000/svg"
   xmlns:sodipodi="http://sodipodi.sourceforge.net/DTD/sodipodi-0.dtd"
   xmlns:inkscape="http://www.inkscape.org/namespaces/inkscape"
   id="Layer_1"
   data-name="Layer 1"
   viewBox="0 0 1861.0436 425.08728"
   version="1.1"
   sodipodi:docname="internet-amazon-service.svg"
   width="1861.0436"
   height="425.08728"
   inkscape:version="0.92.3 (2405546, 2018-03-11)">
  <metadata
     id="metadata413">
    <rdf:RDF>
      <cc:Work
         rdf:about="">
        <dc:format>image/svg+xml</dc:format>
        <dc:type
           rdf:resource="http://purl.org/dc/dcmitype/StillImage" />
      </cc:Work>
    </rdf:RDF>
  </metadata>
  <defs
     id="defs411" />
  <sodipodi:namedview
     pagecolor="#ffffff"
     bordercolor="#666666"
     borderopacity="1"
     objecttolerance="10"
     gridtolerance="10"
     guidetolerance="10"
     inkscape:pageopacity="0"
     inkscape:pageshadow="2"
     inkscape:window-width="1853"
     inkscape:window-height="1019"
     id="namedview409"
     showgrid="false"
     inkscape:zoom="0.2029703"
     inkscape:cx="1000.9461"
     inkscape:cy="267.54363"
     inkscape:window-x="67"
     inkscape:window-y="33"
     inkscape:window-maximized="1"
     inkscape:current-layer="Layer_1" />
  <title
     id="title2">Capitolul11</title>
  <path
     d="m 853.96363,261.66363 v 23.38 h -6.06 v -23.38 z"
     id="path4"
     inkscape:connector-curvature="0" />
  <path
     d="m 858.33363,269.36363 h 5.6 v 2 a 5.91,5.91 0 0 1 5,-2.31 6.34,6.34 0 0 1 4.62,1.68 c 1.3,1.31 1.49,2.62 1.49,4.31 v 10 h -5.61 v -7.91 c 0,-0.91 0,-2.28 -0.7,-3 a 2.32,2.32 0 0 0 -1.78,-0.66 3.08,3.08 0 0 0 -2.07,0.73 3.61,3.61 0 0 0 -0.91,2.49 v 8.35 h -5.6 z"
     id="path6"
     inkscape:connector-curvature="0" />
  <path
     d="m 885.04363,273.95363 v 11.09 h -5.6 v -11.09 h -1.78 v -4.59 h 1.78 v -5.14 h 5.6 v 5.14 h 3.19 v 4.59 z"
     id="path8"
     inkscape:connector-curvature="0" />
  <path
     d="m 906.88363,278.22363 h -11.66 a 4,4 0 0 0 1,2.62 3.15,3.15 0 0 0 2.31,0.77 4.33,4.33 0 0 0 1.82,-0.42 2.57,2.57 0 0 0 1,-1 h 5.36 a 7.1,7.1 0 0 1 -1.89,3.22 c -1.16,1.12 -3,2.17 -6.37,2.17 a 8.86,8.86 0 0 1 -6.48,-2.38 8.2,8.2 0 0 1 -2.31,-5.91 8.34,8.34 0 0 1 2.35,-6.06 8.79,8.79 0 0 1 6.4,-2.27 8.56,8.56 0 0 1 6,2.13 8.75,8.75 0 0 1 2.49,6.58 z m -5.15,-3.18 a 3.73,3.73 0 0 0 -0.91,-1.68 3.23,3.23 0 0 0 -2.31,-0.84 3,3 0 0 0 -2.27,0.84 3.12,3.12 0 0 0 -0.84,1.68 z"
     id="path10"
     inkscape:connector-curvature="0" />
  <path
     d="m 910.10363,269.36363 h 5.6 v 2.56 a 5,5 0 0 1 2.2,-2.17 6.07,6.07 0 0 1 2.91,-0.63 l 1.12,0.07 v 5.28 a 5,5 0 0 0 -2.42,-0.56 3.68,3.68 0 0 0 -2.55,0.84 4.73,4.73 0 0 0 -1.26,3.57 v 6.72 h -5.6 z"
     id="path12"
     inkscape:connector-curvature="0" />
  <path
     d="m 924.41363,269.36363 h 5.6 v 2 a 5.91,5.91 0 0 1 5,-2.31 6.34,6.34 0 0 1 4.62,1.68 c 1.33,1.33 1.47,2.66 1.47,4.38 v 9.93 h -5.6 v -7.91 c 0,-0.91 0,-2.28 -0.7,-3 a 2.32,2.32 0 0 0 -1.78,-0.66 3.08,3.08 0 0 0 -2.07,0.73 3.61,3.61 0 0 0 -0.91,2.49 v 8.35 h -5.6 z"
     id="path14"
     inkscape:connector-curvature="0" />
  <path
     d="m 961.48363,278.22363 h -11.66 a 4,4 0 0 0 1,2.62 3.15,3.15 0 0 0 2.31,0.77 4.33,4.33 0 0 0 1.82,-0.42 2.57,2.57 0 0 0 1,-1 h 5.36 a 7.1,7.1 0 0 1 -1.89,3.22 c -1.16,1.12 -3,2.17 -6.37,2.17 a 8.86,8.86 0 0 1 -6.48,-2.38 8.2,8.2 0 0 1 -2.31,-5.91 8.34,8.34 0 0 1 2.35,-6.06 8.79,8.79 0 0 1 6.4,-2.27 8.56,8.56 0 0 1 6,2.13 8.75,8.75 0 0 1 2.49,6.58 z m -5.15,-3.22 a 3.73,3.73 0 0 0 -0.91,-1.68 3.23,3.23 0 0 0 -2.31,-0.84 3,3 0 0 0 -2.27,0.84 3.12,3.12 0 0 0 -0.8,1.72 z"
     id="path16"
     inkscape:connector-curvature="0" />
  <path
     d="m 970.89363,273.95363 v 11.09 h -5.6 v -11.09 h -1.78 v -4.59 h 1.78 v -5.14 h 5.6 v 5.14 h 3.15 v 4.59 z"
     id="path18"
     inkscape:connector-curvature="0" />
  <path
     d="m 1257.1436,278.04363 a 8.18,8.18 0 0 0 5.35,2.38 3.09,3.09 0 0 0 2.35,-0.81 2.08,2.08 0 0 0 0.59,-1.47 1.82,1.82 0 0 0 -0.66,-1.4 8.5,8.5 0 0 0 -3,-1.22 l -1.58,-0.49 a 7.7,7.7 0 0 1 -3.36,-1.89 5.88,5.88 0 0 1 -1.33,-4.13 7.6,7.6 0 0 1 2.14,-5.64 8.23,8.23 0 0 1 6,-2.2 16.43,16.43 0 0 1 7.21,1.88 l -2.41,4.73 a 6.21,6.21 0 0 0 -4,-1.58 2.93,2.93 0 0 0 -2,0.71 1.71,1.71 0 0 0 -0.59,1.26 1.59,1.59 0 0 0 0.31,1 3.89,3.89 0 0 0 2,1.05 l 1.86,0.56 a 8.84,8.84 0 0 1 4.23,2.31 5.5,5.5 0 0 1 1.51,4.16 7.91,7.91 0 0 1 -2.21,5.88 c -2,2 -4.41,2.38 -6.89,2.38 a 12.52,12.52 0 0 1 -4.59,-0.77 16.56,16.56 0 0 1 -3.53,-1.85 z"
     id="path20"
     inkscape:connector-curvature="0" />
  <path
     d="m 1291.6536,278.22363 h -11.61 a 4,4 0 0 0 1,2.62 3.15,3.15 0 0 0 2.31,0.77 4.33,4.33 0 0 0 1.82,-0.42 2.57,2.57 0 0 0 1,-1 h 5.36 a 7.1,7.1 0 0 1 -1.89,3.22 c -1.16,1.12 -3,2.17 -6.37,2.17 a 8.86,8.86 0 0 1 -6.48,-2.38 8.2,8.2 0 0 1 -2.31,-5.91 8.34,8.34 0 0 1 2.35,-6.06 8.79,8.79 0 0 1 6.4,-2.27 8.56,8.56 0 0 1 6,2.13 8.75,8.75 0 0 1 2.49,6.58 z m -5.15,-3.22 a 3.73,3.73 0 0 0 -0.91,-1.68 3.23,3.23 0 0 0 -2.31,-0.84 3,3 0 0 0 -2.27,0.84 3.12,3.12 0 0 0 -0.84,1.68 z"
     id="path22"
     inkscape:connector-curvature="0" />
  <path
     d="m 1294.8736,269.36363 h 5.6 v 2.56 a 5,5 0 0 1 2.2,-2.17 6.07,6.07 0 0 1 2.91,-0.63 l 1.12,0.07 v 5.28 a 5,5 0 0 0 -2.42,-0.56 3.68,3.68 0 0 0 -2.55,0.84 4.73,4.73 0 0 0 -1.26,3.57 v 6.72 h -5.6 z"
     id="path24"
     inkscape:connector-curvature="0" />
  <path
     d="m 1313.5236,269.36363 3.75,8 3.81,-8 h 6.23 l -8.15,15.68 h -3.82 l -8.09,-15.65 z"
     id="path26"
     inkscape:connector-curvature="0" />
  <path
     d="m 1344.9536,278.22363 h -11.65 a 3.91,3.91 0 0 0 1,2.62 3.14,3.14 0 0 0 2.3,0.77 4.34,4.34 0 0 0 1.83,-0.42 2.64,2.64 0 0 0 1,-1 h 5.35 a 6.92,6.92 0 0 1 -1.89,3.22 c -1.15,1.12 -3,2.17 -6.37,2.17 a 8.88,8.88 0 0 1 -6.48,-2.38 8.2,8.2 0 0 1 -2.31,-5.91 8.34,8.34 0 0 1 2.35,-6.06 8.81,8.81 0 0 1 6.41,-2.27 8.57,8.57 0 0 1 6,2.13 8.77,8.77 0 0 1 2.48,6.58 z m -5.14,-3.22 a 3.73,3.73 0 0 0 -0.91,-1.68 3.25,3.25 0 0 0 -2.32,-0.84 3,3 0 0 0 -2.27,0.84 3.19,3.19 0 0 0 -0.84,1.68 z"
     id="path28"
     inkscape:connector-curvature="0" />
  <path
     d="m 1348.1736,269.36363 h 5.6 v 2.56 a 5.06,5.06 0 0 1 2.21,-2.17 6,6 0 0 1 2.9,-0.63 l 1.12,0.07 v 5.28 a 5,5 0 0 0 -2.42,-0.56 3.68,3.68 0 0 0 -2.55,0.84 4.73,4.73 0 0 0 -1.26,3.57 v 6.72 h -5.6 z"
     id="path30"
     inkscape:connector-curvature="0" />
  <path
     d="m 1675.0936,315.09363 h -8.47 l -1.58,3.95 h -6.4 l 9,-23.35 h 6.61 l 8.79,23.35 h -6.48 z m -1.61,-4.62 -2.63,-7.56 -2.55,7.56 z"
     id="path32"
     inkscape:connector-curvature="0" />
  <path
     d="m 1685.1736,303.36363 h 5.6 v 1.89 a 6,6 0 0 1 4.69,-2.17 6.43,6.43 0 0 1 3,0.7 5,5 0 0 1 2.17,2.24 5.59,5.59 0 0 1 2.13,-2.17 6.39,6.39 0 0 1 3.28,-0.81 6.18,6.18 0 0 1 4.34,1.44 5.74,5.74 0 0 1 1.47,4.3 v 10.26 h -5.6 v -7.74 c 0,-1.64 -0.17,-2.76 -0.81,-3.36 a 2,2 0 0 0 -1.47,-0.52 2.23,2.23 0 0 0 -1.64,0.63 4,4 0 0 0 -1,3 v 8 h -5.6 v -7.74 c 0,-1.5 -0.1,-2.69 -0.73,-3.36 a 2.19,2.19 0 0 0 -1.68,-0.63 2,2 0 0 0 -1.54,0.56 4.63,4.63 0 0 0 -1,3.43 v 7.73 h -5.6 z"
     id="path34"
     inkscape:connector-curvature="0" />
  <path
     d="m 1727.8336,303.36363 h 5.6 v 15.68 h -5.6 v -1.72 a 5.82,5.82 0 0 1 -4.86,2.24 7.51,7.51 0 0 1 -5.64,-2.48 7.92,7.92 0 0 1 -2.24,-5.74 8.67,8.67 0 0 1 2.42,-6.27 8,8 0 0 1 5.63,-2.21 6.16,6.16 0 0 1 4.69,2 z m -5.88,5.25 a 3.67,3.67 0 0 0 -1.12,2.56 3.59,3.59 0 0 0 1.09,2.55 3.91,3.91 0 0 0 2.52,1.05 3.59,3.59 0 0 0 2.52,-1.08 3.4,3.4 0 0 0 1,-2.52 3.45,3.45 0 0 0 -1.09,-2.56 3.56,3.56 0 0 0 -5,0 z"
     id="path36"
     inkscape:connector-curvature="0" />
  <path
     d="m 1745.4436,314.42363 h 6.54 v 4.62 h -15.94 l 7.38,-11.06 h -6.3 v -4.59 h 15.61 z"
     id="path38"
     inkscape:connector-curvature="0" />
  <path
     d="m 1771.1336,316.94363 a 10.71,10.71 0 0 1 -14,0 8.08,8.08 0 0 1 0,-11.51 10.68,10.68 0 0 1 14,0 8.08,8.08 0 0 1 0,11.51 z m -9.49,-8.33 a 3.48,3.48 0 0 0 0,5 3.51,3.51 0 0 0 5,0 3.43,3.43 0 0 0 1.08,-2.48 3.81,3.81 0 0 0 -1.08,-2.56 3.61,3.61 0 0 0 -5,0 z"
     id="path40"
     inkscape:connector-curvature="0" />
  <path
     d="m 1776.7636,303.36363 h 5.6 v 2 a 5.91,5.91 0 0 1 5,-2.31 6.34,6.34 0 0 1 4.62,1.68 c 1.33,1.33 1.47,2.66 1.47,4.38 v 9.93 h -5.6 v -7.91 c 0,-0.91 0,-2.28 -0.7,-3 a 2.32,2.32 0 0 0 -1.78,-0.66 3.08,3.08 0 0 0 -2.07,0.73 3.61,3.61 0 0 0 -0.91,2.49 v 8.35 h -5.6 z"
     id="path42"
     inkscape:connector-curvature="0" />
  <path
     d="m 1635.4336,353.27363 v 7.77 h -6.05 v -23.38 h 9.66 a 8.08,8.08 0 0 1 5.92,2.1 7.24,7.24 0 0 1 2.17,5.67 7.58,7.58 0 0 1 -2.07,5.81 7.75,7.75 0 0 1 -5.81,2 z m 0,-4.9 h 2 a 4,4 0 0 0 2.56,-0.73 2.7,2.7 0 0 0 0.77,-2.14 2.83,2.83 0 0 0 -0.7,-2.1 3.58,3.58 0 0 0 -2.59,-0.84 h -2.07 z"
     id="path44"
     inkscape:connector-curvature="0" />
  <path
     d="m 1649.8236,345.36363 h 5.6 v 2.56 a 5,5 0 0 1 2.2,-2.17 6.07,6.07 0 0 1 2.91,-0.63 l 1.12,0.07 v 5.28 a 4.93,4.93 0 0 0 -2.41,-0.56 3.69,3.69 0 0 0 -2.56,0.84 4.73,4.73 0 0 0 -1.26,3.57 v 6.72 h -5.6 z"
     id="path46"
     inkscape:connector-curvature="0" />
  <path
     d="m 1666.9336,335.70363 a 3.15,3.15 0 1 1 -3.15,3.15 3.14,3.14 0 0 1 3.15,-3.15 z m 2.8,9.66 v 15.68 h -5.6 v -15.68 z"
     id="path48"
     inkscape:connector-curvature="0" />
  <path
     d="m 1673.5536,345.36363 h 5.6 v 1.89 a 6,6 0 0 1 4.69,-2.17 6.43,6.43 0 0 1 3,0.7 4.91,4.91 0 0 1 2.2,2.26 5.54,5.54 0 0 1 2.14,-2.17 6.33,6.33 0 0 1 3.25,-0.77 6.16,6.16 0 0 1 4.34,1.44 5.74,5.74 0 0 1 1.47,4.3 v 10.2 h -5.6 v -7.74 c 0,-1.64 -0.17,-2.76 -0.8,-3.36 a 2.06,2.06 0 0 0 -1.47,-0.52 2.26,2.26 0 0 0 -1.65,0.63 4,4 0 0 0 -1,3 v 8 h -5.68 v -7.74 c 0,-1.5 -0.1,-2.69 -0.73,-3.36 a 2.19,2.19 0 0 0 -1.68,-0.63 2,2 0 0 0 -1.54,0.56 4.63,4.63 0 0 0 -1,3.43 v 7.73 h -5.6 z"
     id="path50"
     inkscape:connector-curvature="0" />
  <path
     d="m 1720.7036,354.22363 h -11.66 a 3.91,3.91 0 0 0 1,2.62 3.15,3.15 0 0 0 2.31,0.77 4.33,4.33 0 0 0 1.82,-0.42 2.64,2.64 0 0 0 1,-1 h 5.36 a 7,7 0 0 1 -1.9,3.22 c -1.15,1.12 -3,2.17 -6.37,2.17 a 8.84,8.84 0 0 1 -6.47,-2.38 8.16,8.16 0 0 1 -2.31,-5.91 8.37,8.37 0 0 1 2.34,-6.06 8.83,8.83 0 0 1 6.41,-2.27 8.57,8.57 0 0 1 6,2.13 8.75,8.75 0 0 1 2.49,6.58 z m -5.15,-3.22 a 3.73,3.73 0 0 0 -0.91,-1.68 3.25,3.25 0 0 0 -2.31,-0.84 3,3 0 0 0 -2.28,0.84 3.27,3.27 0 0 0 -0.84,1.68 z"
     id="path52"
     inkscape:connector-curvature="0" />
  <path
     d="m 1736.7636,337.66363 5.6,14.21 5.67,-14.21 h 6.58 l -9.94,23.38 h -4.73 l -9.8,-23.35 z"
     id="path54"
     inkscape:connector-curvature="0" />
  <path
     d="m 1759.3336,335.70363 a 3.15,3.15 0 1 1 -3.15,3.15 3.14,3.14 0 0 1 3.15,-3.15 z m 2.8,9.66 v 15.68 h -5.6 v -15.68 z"
     id="path56"
     inkscape:connector-curvature="0" />
  <path
     d="m 1783.6636,361.04363 h -5.62 v -1.72 a 5.75,5.75 0 0 1 -4.73,2.24 7.46,7.46 0 0 1 -5.49,-2.17 8.87,8.87 0 0 1 0,-12.42 8,8 0 0 1 5.53,-2.11 6.19,6.19 0 0 1 4.66,2 v -11.37 h 5.6 z m -6.62,-5.18 a 3.75,3.75 0 0 0 1.19,-2.66 4.07,4.07 0 0 0 -1,-2.52 3.39,3.39 0 0 0 -2.55,-1.05 3.44,3.44 0 0 0 -2.49,1 3.84,3.84 0 0 0 -1.08,2.66 3.53,3.53 0 0 0 1.08,2.45 3.48,3.48 0 0 0 2.49,1.05 3.82,3.82 0 0 0 2.36,-0.96 z"
     id="path58"
     inkscape:connector-curvature="0" />
  <path
     d="m 1804.1036,354.22363 h -11.66 a 4,4 0 0 0 1,2.62 3.15,3.15 0 0 0 2.31,0.77 4.33,4.33 0 0 0 1.82,-0.42 2.57,2.57 0 0 0 1,-1 h 5.36 a 7.1,7.1 0 0 1 -1.89,3.22 c -1.16,1.12 -3,2.17 -6.37,2.17 a 8.86,8.86 0 0 1 -6.48,-2.38 8.2,8.2 0 0 1 -2.31,-5.91 8.34,8.34 0 0 1 2.35,-6.06 8.79,8.79 0 0 1 6.4,-2.27 8.56,8.56 0 0 1 6,2.13 8.75,8.75 0 0 1 2.49,6.58 z m -5.15,-3.22 a 3.73,3.73 0 0 0 -0.91,-1.68 3.23,3.23 0 0 0 -2.31,-0.84 3,3 0 0 0 -2.27,0.84 3.12,3.12 0 0 0 -0.84,1.68 z"
     id="path60"
     inkscape:connector-curvature="0" />
  <path
     d="m 1823.0436,358.94363 a 10.71,10.71 0 0 1 -14,0 8.08,8.08 0 0 1 0,-11.51 10.68,10.68 0 0 1 14,0 8.08,8.08 0 0 1 0,11.51 z m -9.49,-8.33 a 3.48,3.48 0 0 0 0,5 3.51,3.51 0 0 0 5,0 3.43,3.43 0 0 0 1.08,-2.48 3.81,3.81 0 0 0 -1.08,-2.56 3.61,3.61 0 0 0 -5,0 z"
     id="path62"
     inkscape:connector-curvature="0" />
  <path
     d="m 978.76363,154.59363 c -0.39,-29.88 -24.71,-54.999997 -54.69,-54.999997 a 57.44,57.44 0 0 0 -46.93,25.209997 27.48,27.48 0 0 0 -42.68,22.89 c 0,0.53 0.05,1 0.08,1.56 0.03,0.56 -0.08,1.26 -0.08,1.88 -13.7,6.57 -24,22.18 -24,38.32 a 40.81,40.81 0 0 0 40.69,40.69 h 84.2 c 0.47,0 0.93,0 1.4,-0.07 0.47,-0.07 0.93,0.07 1.41,0.07 h 33.67 a 38,38 0 0 0 37.88997,-37.88 c -0.05,-18.43 -13.42997,-34.37 -30.95997,-37.67 z"
     style="fill:none;stroke:#7383bf;stroke-width:6.87114334px;stroke-linecap:round;stroke-miterlimit:10"
     id="path204"
     inkscape:connector-curvature="0" />
  <path
     d="m 978.76363,154.59363 a 66.22,66.22 0 0 0 -17.19,0"
     style="fill:none;stroke:#7383bf;stroke-width:6.87114334px;stroke-linecap:round;stroke-miterlimit:10"
     id="path206"
     inkscape:connector-curvature="0" />
  <path
     d="m 834.46363,147.72363 a 27.5,27.5 0 0 1 55,0"
     style="fill:none;stroke:#7383bf;stroke-width:6.87114334px;stroke-linecap:round;stroke-miterlimit:10"
     id="path208"
     inkscape:connector-curvature="0" />
  <path
     d="m 391.63363,275.36363 v -20 h 5.19 l 9.57,12.24 v -12.25 h 5.19 v 20 h -5.19 l -9.57,-12.24 v 12.24 z"
     id="path210"
     inkscape:connector-curvature="0" />
  <path
     d="m 425.71363,261.95363 h 4.8 v 13.41 h -4.8 v -1.47 a 5,5 0 0 1 -4.17,1.92 6.42,6.42 0 0 1 -4.83,-2.13 6.76,6.76 0 0 1 -1.92,-4.92 7.42,7.42 0 0 1 2.07,-5.37 6.9,6.9 0 0 1 4.83,-1.89 5.31,5.31 0 0 1 4,1.74 z m -5,4.5 a 3.14,3.14 0 0 0 -1,2.19 3.09,3.09 0 0 0 0.93,2.19 3.37,3.37 0 0 0 2.16,0.9 3.08,3.08 0 0 0 2.16,-0.93 2.91,2.91 0 0 0 0.9,-2.16 3,3 0 0 0 -0.93,-2.19 3,3 0 0 0 -4.26,0 z"
     id="path212"
     inkscape:connector-curvature="0" />
  <path
     d="m 437.53363,261.95363 3.21,6.87 3.27,-6.87 h 5.34 l -7,13.41 h -3.27 l -6.93,-13.41 z"
     id="path214"
     inkscape:connector-curvature="0" />
  <path
     d="m 453.40363,253.67363 a 2.7,2.7 0 1 1 -2.7,2.7 2.69,2.69 0 0 1 2.7,-2.7 z m 2.4,8.28 v 13.41 h -4.76 v -13.41 z"
     id="path216"
     inkscape:connector-curvature="0" />
  <path
     d="m 474.16363,261.95363 v 12.57 c 0,2 -0.18,3.84 -1.83,5.55 a 8,8 0 0 1 -5.91,2.16 8.22,8.22 0 0 1 -6.27,-2.37 4.88,4.88 0 0 1 -1.47,-2.79 h 5.36 a 2.06,2.06 0 0 0 2.25,1.38 2.92,2.92 0 0 0 2.13,-0.75 3.23,3.23 0 0 0 1,-2.49 v -1.35 a 5.1,5.1 0 0 1 -4,1.77 6.68,6.68 0 0 1 -4.95,-1.89 7.08,7.08 0 0 1 -1.86,-4.89 7.73,7.73 0 0 1 2,-5.25 6.74,6.74 0 0 1 4.86,-2 5.24,5.24 0 0 1 4,1.77 v -1.38 z m -9.78,4.5 a 3,3 0 0 0 0,4.35 3,3 0 0 0 2.16,0.87 3.07,3.07 0 0 0 3.06,-3.06 3.44,3.44 0 0 0 -1,-2.19 3,3 0 0 0 -2.13,-0.87 2.86,2.86 0 0 0 -2.09,0.9 z"
     id="path218"
     inkscape:connector-curvature="0" />
  <path
     d="m 487.84363,261.95363 h 4.8 v 13.41 h -4.8 v -1.47 a 5,5 0 0 1 -4.17,1.92 6.42,6.42 0 0 1 -4.83,-2.13 6.76,6.76 0 0 1 -1.92,-4.92 7.42,7.42 0 0 1 2.07,-5.37 6.9,6.9 0 0 1 4.83,-1.89 5.31,5.31 0 0 1 4,1.74 z m -5,4.5 a 3.14,3.14 0 0 0 -1,2.19 3.09,3.09 0 0 0 0.93,2.19 3.37,3.37 0 0 0 2.16,0.9 3.08,3.08 0 0 0 2.16,-0.93 2.91,2.91 0 0 0 0.9,-2.16 3,3 0 0 0 -0.93,-2.19 3,3 0 0 0 -4.26,0 z"
     id="path220"
     inkscape:connector-curvature="0" />
  <path
     d="m 501.25363,265.88363 v 9.48 h -4.8 v -9.48 h -1.53 v -3.93 h 1.53 v -4.41 h 4.8 v 4.41 h 2.73 v 3.93 z"
     id="path222"
     inkscape:connector-curvature="0" />
  <path
     d="m 519.28363,273.59363 a 9.18,9.18 0 0 1 -12,0 6.92,6.92 0 0 1 0,-9.87 8.37,8.37 0 0 1 6,-2.22 8.47,8.47 0 0 1 6,2.22 6.92,6.92 0 0 1 0,9.87 z m -8.13,-7.14 a 3.06,3.06 0 0 0 2.16,5.22 3.05,3.05 0 0 0 2.13,-0.9 3,3 0 0 0 0.93,-2.13 3.26,3.26 0 0 0 -0.93,-2.19 3.08,3.08 0 0 0 -4.29,0 z"
     id="path224"
     inkscape:connector-curvature="0" />
  <path
     d="m 524.11363,261.95363 h 4.8 v 2.19 a 4.33,4.33 0 0 1 1.89,-1.86 5.24,5.24 0 0 1 2.49,-0.54 l 1,0.06 v 4.53 a 4.23,4.23 0 0 0 -2.07,-0.48 3.14,3.14 0 0 0 -2.19,0.72 4,4 0 0 0 -1.08,3.06 v 5.73 h -4.8 z"
     id="path226"
     inkscape:connector-curvature="0" />
  <path
     d="m 549.16363,253.49363 h 3.93 l -15.36,27.55 h -3.9 z"
     id="path228"
     inkscape:connector-curvature="0" />
  <path
     d="m 380.56363,311.36363 v -20 h 7.74 a 5.61,5.61 0 0 1 4.38,1.56 5.41,5.41 0 0 1 1.23,3.75 5.19,5.19 0 0 1 -0.57,2.46 3.15,3.15 0 0 1 -1.62,1.56 5,5 0 0 1 2.73,1.2 5,5 0 0 1 1.35,3.66 5.43,5.43 0 0 1 -1.47,3.93 7.52,7.52 0 0 1 -5.43,1.89 z m 5.19,-12.12 h 1 a 2.74,2.74 0 0 0 2,-0.63 1.94,1.94 0 0 0 0.48,-1.32 2.06,2.06 0 0 0 -0.48,-1.35 2.75,2.75 0 0 0 -2,-0.6 h -1 z m 0,8.07 h 1.17 c 1.44,0 2.64,-0.15 3.21,-0.81 a 2,2 0 0 0 0.42,-1.29 2,2 0 0 0 -0.51,-1.44 c -0.63,-0.63 -1.92,-0.66 -3.21,-0.66 h -1.08 z"
     id="path230"
     inkscape:connector-curvature="0" />
  <path
     d="m 398.65363,297.95363 h 4.8 v 2.19 a 4.33,4.33 0 0 1 1.89,-1.86 5.24,5.24 0 0 1 2.49,-0.54 l 1,0.06 v 4.53 a 4.23,4.23 0 0 0 -2.07,-0.48 3.14,3.14 0 0 0 -2.19,0.72 4,4 0 0 0 -1.08,3.06 v 5.73 h -4.8 z"
     id="path232"
     inkscape:connector-curvature="0" />
  <path
     d="m 423.82363,309.59363 a 9.18,9.18 0 0 1 -12,0 6.92,6.92 0 0 1 0,-9.87 8.37,8.37 0 0 1 6,-2.22 8.47,8.47 0 0 1 6,2.22 6.92,6.92 0 0 1 0,9.87 z m -8.13,-7.14 a 3.06,3.06 0 0 0 2.16,5.22 3.05,3.05 0 0 0 2.13,-0.9 3,3 0 0 0 0.93,-2.13 3.26,3.26 0 0 0 -0.93,-2.19 3.08,3.08 0 0 0 -4.29,0 z"
     id="path234"
     inkscape:connector-curvature="0" />
  <path
     d="m 432.37363,297.95363 3.18,7.08 3.39,-7.08 h 2.94 l 3.39,7.29 3.36,-7.29 h 5.34 l -7,13.41 h -3.24 l -3.36,-7.38 -3.21,7.38 h -3.24 l -6.88,-13.41 z"
     id="path236"
     inkscape:connector-curvature="0" />
  <path
     d="m 456.49363,306.92363 a 6.87,6.87 0 0 0 1.92,1 6.25,6.25 0 0 0 1.86,0.33 2,2 0 0 0 1.23,-0.36 0.77,0.77 0 0 0 0.24,-0.63 0.71,0.71 0 0 0 -0.24,-0.6 3,3 0 0 0 -1.26,-0.48 l -1.26,-0.3 a 4.31,4.31 0 0 1 -2.34,-1.17 3.24,3.24 0 0 1 -0.87,-2.31 4.79,4.79 0 0 1 1.26,-3.27 6.77,6.77 0 0 1 4.8,-1.62 11.07,11.07 0 0 1 4.29,0.87 l -1.62,3.06 a 6.64,6.64 0 0 0 -2.52,-0.66 2,2 0 0 0 -1.11,0.27 0.72,0.72 0 0 0 -0.42,0.66 0.78,0.78 0 0 0 0.57,0.75 c 0.45,0.18 0.84,0.18 1.59,0.39 l 0.87,0.24 a 5.67,5.67 0 0 1 2,1.05 3.79,3.79 0 0 1 1,2.67 4.48,4.48 0 0 1 -1.35,3.33 7,7 0 0 1 -5,1.68 9.89,9.89 0 0 1 -5.4,-1.56 z"
     id="path238"
     inkscape:connector-curvature="0" />
  <path
     d="m 483.16363,305.54363 h -10 a 3.39,3.39 0 0 0 0.84,2.25 2.7,2.7 0 0 0 2,0.66 3.79,3.79 0 0 0 1.56,-0.36 2.23,2.23 0 0 0 0.84,-0.9 h 4.59 a 6,6 0 0 1 -1.62,2.76 c -1,1 -2.55,1.86 -5.46,1.86 a 7.61,7.61 0 0 1 -5.55,-2 7,7 0 0 1 -2,-5.07 7.16,7.16 0 0 1 2,-5.19 7.55,7.55 0 0 1 5.49,-2 7.35,7.35 0 0 1 5.16,1.83 7.51,7.51 0 0 1 2.13,5.64 z m -4.41,-2.76 a 3.22,3.22 0 0 0 -0.78,-1.44 2.8,2.8 0 0 0 -2,-0.72 2.58,2.58 0 0 0 -2,0.72 2.74,2.74 0 0 0 -0.72,1.44 z"
     id="path240"
     inkscape:connector-curvature="0" />
  <path
     d="m 485.92363,297.95363 h 4.8 v 2.19 a 4.33,4.33 0 0 1 1.89,-1.86 5.24,5.24 0 0 1 2.49,-0.54 l 1,0.06 v 4.53 a 4.23,4.23 0 0 0 -2.07,-0.48 3.14,3.14 0 0 0 -2.19,0.72 4,4 0 0 0 -1.08,3.06 v 5.73 h -4.8 z"
     id="path242"
     inkscape:connector-curvature="0" />
  <path
     d="m 508.90363,297.95363 3.14,7.09 3.39,-7.08 h 2.94 l 3.39,7.29 3.36,-7.29 h 5.34 l -7,13.41 h -3.22 l -3.36,-7.38 -3.21,7.38 h -3.24 l -6.9,-13.41 z"
     id="path244"
     inkscape:connector-curvature="0" />
  <path
     d="m 546.37363,305.54363 h -10 a 3.39,3.39 0 0 0 0.84,2.25 2.7,2.7 0 0 0 2,0.66 3.79,3.79 0 0 0 1.56,-0.36 2.23,2.23 0 0 0 0.84,-0.9 h 4.59 a 6,6 0 0 1 -1.62,2.76 c -1,1 -2.55,1.86 -5.46,1.86 a 7.61,7.61 0 0 1 -5.55,-2 7,7 0 0 1 -2,-5.07 7.16,7.16 0 0 1 2,-5.19 7.55,7.55 0 0 1 5.49,-2 7.35,7.35 0 0 1 5.16,1.83 7.51,7.51 0 0 1 2.13,5.64 z m -4.41,-2.76 a 3.22,3.22 0 0 0 -0.78,-1.44 2.8,2.8 0 0 0 -2,-0.72 2.58,2.58 0 0 0 -1.95,0.72 2.74,2.74 0 0 0 -0.72,1.44 z"
     id="path246"
     inkscape:connector-curvature="0" />
  <path
     d="m 553.93363,289.49363 v 9.75 a 5.31,5.31 0 0 1 4,-1.74 6.86,6.86 0 0 1 4.74,1.8 7.31,7.31 0 0 1 2.19,5.31 7.4,7.4 0 0 1 -2.16,5.34 6.42,6.42 0 0 1 -4.71,1.86 4.92,4.92 0 0 1 -4.05,-1.92 v 1.47 h -4.8 v -21.87 z m 5.11,17.34 a 3,3 0 0 0 0.93,-2.1 3.29,3.29 0 0 0 -0.93,-2.28 3.08,3.08 0 0 0 -4.32,0 3.51,3.51 0 0 0 -0.9,2.16 3.22,3.22 0 0 0 1,2.28 3.28,3.28 0 0 0 2.07,0.81 3,3 0 0 0 2.15,-0.87 z"
     id="path248"
     inkscape:connector-curvature="0" />
  <rect
     x="400.89365"
     y="116.90362"
     width="142.83"
     height="96"
     rx="12"
     ry="12"
     style="fill:none;stroke:#f4c240;stroke-width:5px;stroke-miterlimit:10"
     id="rect250" />
  <line
     x1="400.70364"
     y1="137.78363"
     x2="543.53363"
     y2="137.78363"
     style="fill:none;stroke:#f4c240;stroke-width:5px;stroke-miterlimit:10"
     id="line252" />
  <circle
     cx="512.89362"
     cy="127.04363"
     r="3.1199999"
     style="fill:#f4c240"
     id="circle254" />
  <circle
     cx="523.04364"
     cy="127.04363"
     r="3.1199999"
     style="fill:#f4c240"
     id="circle256" />
  <circle
     cx="532.41364"
     cy="127.04363"
     r="3.1199999"
     style="fill:#f4c240"
     id="circle258" />
  <rect
     x="1238.7736"
     y="144.79364"
     width="136.39999"
     height="39.709999"
     rx="5.7199998"
     ry="5.7199998"
     style="fill:none;stroke:#f7931f;stroke-width:5px;stroke-miterlimit:10"
     id="rect260" />
  <circle
     cx="1262.0836"
     cy="164.64365"
     r="9.21"
     style="fill:none;stroke:#f7931f;stroke-width:5px;stroke-miterlimit:10"
     id="circle262" />
  <circle
     cx="1325.6736"
     cy="164.93365"
     r="2.8800001"
     style="fill:none;stroke:#f7931f;stroke-width:5px;stroke-miterlimit:10"
     id="circle264" />
  <circle
     cx="1335.4536"
     cy="164.93365"
     r="2.8800001"
     style="fill:none;stroke:#f7931f;stroke-width:5px;stroke-miterlimit:10"
     id="circle266" />
  <circle
     cx="1345.8136"
     cy="164.93365"
     r="2.8800001"
     style="fill:none;stroke:#f7931f;stroke-width:5px;stroke-miterlimit:10"
     id="circle268" />
  <circle
     cx="1356.1736"
     cy="164.93365"
     r="2.8800001"
     style="fill:none;stroke:#f7931f;stroke-width:5px;stroke-miterlimit:10"
     id="circle270" />
  <rect
     x="1238.7736"
     y="185.01364"
     width="136.39999"
     height="39.709999"
     rx="5.7199998"
     ry="5.7199998"
     style="fill:none;stroke:#f7931f;stroke-width:5px;stroke-miterlimit:10"
     id="rect272" />
  <circle
     cx="1262.0836"
     cy="204.87366"
     r="9.21"
     style="fill:none;stroke:#f7931f;stroke-width:5px;stroke-miterlimit:10"
     id="circle274" />
  <circle
     cx="1325.6736"
     cy="205.15363"
     r="2.8800001"
     style="fill:none;stroke:#f7931f;stroke-width:5px;stroke-miterlimit:10"
     id="circle276" />
  <circle
     cx="1335.4536"
     cy="205.15363"
     r="2.8800001"
     style="fill:none;stroke:#f7931f;stroke-width:5px;stroke-miterlimit:10"
     id="circle278" />
  <circle
     cx="1345.8136"
     cy="205.15363"
     r="2.8800001"
     style="fill:none;stroke:#f7931f;stroke-width:5px;stroke-miterlimit:10"
     id="circle280" />
  <circle
     cx="1356.1736"
     cy="205.15363"
     r="2.8800001"
     style="fill:none;stroke:#f7931f;stroke-width:5px;stroke-miterlimit:10"
     id="circle282" />
  <rect
     x="1238.7736"
     y="105.08364"
     width="136.39999"
     height="39.709999"
     rx="5.7199998"
     ry="5.7199998"
     style="fill:none;stroke:#f7931f;stroke-width:5px;stroke-miterlimit:10"
     id="rect284" />
  <circle
     cx="1262.0836"
     cy="124.93365"
     r="9.21"
     style="fill:none;stroke:#f7931f;stroke-width:5px;stroke-miterlimit:10"
     id="circle286" />
  <circle
     cx="1325.6736"
     cy="125.22363"
     r="2.8800001"
     style="fill:none;stroke:#f7931f;stroke-width:5px;stroke-miterlimit:10"
     id="circle288" />
  <circle
     cx="1335.4536"
     cy="125.22363"
     r="2.8800001"
     style="fill:none;stroke:#f7931f;stroke-width:5px;stroke-miterlimit:10"
     id="circle290" />
  <circle
     cx="1345.8136"
     cy="125.22363"
     r="2.8800001"
     style="fill:none;stroke:#f7931f;stroke-width:5px;stroke-miterlimit:10"
     id="circle292" />
  <circle
     cx="1356.1736"
     cy="125.22363"
     r="2.8800001"
     style="fill:none;stroke:#f7931f;stroke-width:5px;stroke-miterlimit:10"
     id="circle294" />
  <rect
     x="1595.5436"
     y="68.403618"
     width="263"
     height="193"
     rx="12"
     ry="12"
     style="fill:none;stroke:#3a5c84;stroke-width:5px;stroke-miterlimit:10"
     id="rect296" />
  <line
     x1="1649.7435"
     y1="141.34363"
     x2="1682.0736"
     y2="141.34363"
     style="fill:none;stroke:#91c54f;stroke-width:3.49492311px;stroke-miterlimit:10"
     id="line298" />
  <line
     x1="1649.7435"
     y1="132.97363"
     x2="1682.0736"
     y2="132.97363"
     style="fill:none;stroke:#91c54f;stroke-width:3.49492311px;stroke-miterlimit:10"
     id="line300" />
  <line
     x1="1649.7435"
     y1="124.61364"
     x2="1682.0736"
     y2="124.61364"
     style="fill:none;stroke:#91c54f;stroke-width:3.49492311px;stroke-miterlimit:10"
     id="line302" />
  <line
     x1="1649.7435"
     y1="116.24364"
     x2="1682.0736"
     y2="116.24364"
     style="fill:none;stroke:#91c54f;stroke-width:3.49492311px;stroke-miterlimit:10"
     id="line304" />
  <line
     x1="1649.7435"
     y1="107.88363"
     x2="1663.0836"
     y2="107.88363"
     style="fill:none;stroke:#91c54f;stroke-width:3.49492311px;stroke-miterlimit:10"
     id="line306" />
  <path
     d="m 1680.3836,104.87363 a 4.52,4.52 0 0 1 -4.51,-4.51 v -8.459997 h -28 a 4.52,4.52 0 0 0 -4.51,4.51 v 47.369997 a 4.52,4.52 0 0 0 4.51,4.51 h 36.09 a 4.52,4.52 0 0 0 4.51,-4.51 v -38.91 z"
     style="fill:none;stroke:#91c54f;stroke-width:3.49492311px;stroke-miterlimit:10"
     id="path308"
     inkscape:connector-curvature="0" />
  <line
     x1="1726.7435"
     y1="128.34363"
     x2="1759.0736"
     y2="128.34363"
     style="fill:none;stroke:#91c54f;stroke-width:3.49492311px;stroke-miterlimit:10"
     id="line310" />
  <line
     x1="1726.7435"
     y1="119.97363"
     x2="1759.0736"
     y2="119.97363"
     style="fill:none;stroke:#91c54f;stroke-width:3.49492311px;stroke-miterlimit:10"
     id="line312" />
  <line
     x1="1726.7435"
     y1="111.61364"
     x2="1759.0736"
     y2="111.61364"
     style="fill:none;stroke:#91c54f;stroke-width:3.49492311px;stroke-miterlimit:10"
     id="line314" />
  <line
     x1="1726.7435"
     y1="103.24364"
     x2="1759.0736"
     y2="103.24364"
     style="fill:none;stroke:#91c54f;stroke-width:3.49492311px;stroke-miterlimit:10"
     id="line316" />
  <line
     x1="1726.7435"
     y1="94.883629"
     x2="1740.0836"
     y2="94.883629"
     style="fill:none;stroke:#91c54f;stroke-width:3.49492311px;stroke-miterlimit:10"
     id="line318" />
  <path
     d="m 1757.3836,91.873633 a 4.52,4.52 0 0 1 -4.51,-4.51 v -8.46 h -28 a 4.52,4.52 0 0 0 -4.51,4.51 v 47.369997 a 4.52,4.52 0 0 0 4.51,4.51 h 36.09 a 4.52,4.52 0 0 0 4.51,-4.51 V 91.873633 Z"
     style="fill:none;stroke:#91c54f;stroke-width:3.49492311px;stroke-miterlimit:10"
     id="path320"
     inkscape:connector-curvature="0" />
  <line
     x1="1801.7435"
     y1="167.34363"
     x2="1834.0736"
     y2="167.34363"
     style="fill:none;stroke:#91c54f;stroke-width:3.49492311px;stroke-miterlimit:10"
     id="line322" />
  <line
     x1="1801.7435"
     y1="158.97363"
     x2="1834.0736"
     y2="158.97363"
     style="fill:none;stroke:#91c54f;stroke-width:3.49492311px;stroke-miterlimit:10"
     id="line324" />
  <line
     x1="1801.7435"
     y1="150.61365"
     x2="1834.0736"
     y2="150.61365"
     style="fill:none;stroke:#91c54f;stroke-width:3.49492311px;stroke-miterlimit:10"
     id="line326" />
  <line
     x1="1801.7435"
     y1="142.24365"
     x2="1834.0736"
     y2="142.24365"
     style="fill:none;stroke:#91c54f;stroke-width:3.49492311px;stroke-miterlimit:10"
     id="line328" />
  <line
     x1="1801.7435"
     y1="133.88364"
     x2="1815.0836"
     y2="133.88364"
     style="fill:none;stroke:#91c54f;stroke-width:3.49492311px;stroke-miterlimit:10"
     id="line330" />
  <path
     d="m 1832.3836,130.87363 a 4.52,4.52 0 0 1 -4.51,-4.51 v -8.46 h -28 a 4.52,4.52 0 0 0 -4.51,4.51 v 47.37 a 4.52,4.52 0 0 0 4.51,4.51 h 36.09 a 4.52,4.52 0 0 0 4.51,-4.51 v -38.91 z"
     style="fill:none;stroke:#91c54f;stroke-width:3.49492311px;stroke-miterlimit:10"
     id="path332"
     inkscape:connector-curvature="0" />
  <line
     x1="1765.7435"
     y1="231.34363"
     x2="1798.0736"
     y2="231.34363"
     style="fill:none;stroke:#91c54f;stroke-width:3.49492311px;stroke-miterlimit:10"
     id="line334" />
  <line
     x1="1765.7435"
     y1="222.97363"
     x2="1798.0736"
     y2="222.97363"
     style="fill:none;stroke:#91c54f;stroke-width:3.49492311px;stroke-miterlimit:10"
     id="line336" />
  <line
     x1="1765.7435"
     y1="214.61365"
     x2="1798.0736"
     y2="214.61365"
     style="fill:none;stroke:#91c54f;stroke-width:3.49492311px;stroke-miterlimit:10"
     id="line338" />
  <line
     x1="1765.7435"
     y1="206.24365"
     x2="1798.0736"
     y2="206.24365"
     style="fill:none;stroke:#91c54f;stroke-width:3.49492311px;stroke-miterlimit:10"
     id="line340" />
  <line
     x1="1765.7435"
     y1="197.88367"
     x2="1779.0836"
     y2="197.88367"
     style="fill:none;stroke:#91c54f;stroke-width:3.49492311px;stroke-miterlimit:10"
     id="line342" />
  <path
     d="m 1796.3836,194.87363 a 4.52,4.52 0 0 1 -4.51,-4.51 v -8.46 h -28 a 4.52,4.52 0 0 0 -4.51,4.51 v 47.37 a 4.52,4.52 0 0 0 4.51,4.51 h 36.09 a 4.52,4.52 0 0 0 4.51,-4.51 v -38.91 z"
     style="fill:none;stroke:#91c54f;stroke-width:3.49492311px;stroke-miterlimit:10"
     id="path344"
     inkscape:connector-curvature="0" />
  <line
     x1="1702.7435"
     y1="238.34363"
     x2="1735.0736"
     y2="238.34363"
     style="fill:none;stroke:#91c54f;stroke-width:3.49492311px;stroke-miterlimit:10"
     id="line346" />
  <line
     x1="1702.7435"
     y1="229.97363"
     x2="1735.0736"
     y2="229.97363"
     style="fill:none;stroke:#91c54f;stroke-width:3.49492311px;stroke-miterlimit:10"
     id="line348" />
  <line
     x1="1702.7435"
     y1="221.61365"
     x2="1735.0736"
     y2="221.61365"
     style="fill:none;stroke:#91c54f;stroke-width:3.49492311px;stroke-miterlimit:10"
     id="line350" />
  <line
     x1="1702.7435"
     y1="213.24365"
     x2="1735.0736"
     y2="213.24365"
     style="fill:none;stroke:#91c54f;stroke-width:3.49492311px;stroke-miterlimit:10"
     id="line352" />
  <line
     x1="1702.7435"
     y1="204.88367"
     x2="1716.0836"
     y2="204.88367"
     style="fill:none;stroke:#91c54f;stroke-width:3.49492311px;stroke-miterlimit:10"
     id="line354" />
  <path
     d="m 1733.3836,201.87363 a 4.52,4.52 0 0 1 -4.51,-4.51 v -8.46 h -28 a 4.52,4.52 0 0 0 -4.51,4.51 v 47.37 a 4.52,4.52 0 0 0 4.51,4.51 h 36.09 a 4.52,4.52 0 0 0 4.51,-4.51 v -38.91 z"
     style="fill:none;stroke:#91c54f;stroke-width:3.49492311px;stroke-miterlimit:10"
     id="path356"
     inkscape:connector-curvature="0" />
  <line
     x1="1626.7435"
     y1="221.34363"
     x2="1659.0736"
     y2="221.34363"
     style="fill:none;stroke:#91c54f;stroke-width:3.49492311px;stroke-miterlimit:10"
     id="line358" />
  <line
     x1="1626.7435"
     y1="212.97363"
     x2="1659.0736"
     y2="212.97363"
     style="fill:none;stroke:#91c54f;stroke-width:3.49492311px;stroke-miterlimit:10"
     id="line360" />
  <line
     x1="1626.7435"
     y1="204.61365"
     x2="1659.0736"
     y2="204.61365"
     style="fill:none;stroke:#91c54f;stroke-width:3.49492311px;stroke-miterlimit:10"
     id="line362" />
  <line
     x1="1626.7435"
     y1="196.24365"
     x2="1659.0736"
     y2="196.24365"
     style="fill:none;stroke:#91c54f;stroke-width:3.49492311px;stroke-miterlimit:10"
     id="line364" />
  <line
     x1="1626.7435"
     y1="187.88364"
     x2="1640.0836"
     y2="187.88364"
     style="fill:none;stroke:#91c54f;stroke-width:3.49492311px;stroke-miterlimit:10"
     id="line366" />
  <path
     d="m 1657.3836,184.87363 a 4.52,4.52 0 0 1 -4.51,-4.51 v -8.46 h -28 a 4.52,4.52 0 0 0 -4.51,4.51 v 47.37 a 4.52,4.52 0 0 0 4.51,4.51 h 36.09 a 4.52,4.52 0 0 0 4.51,-4.51 v -38.91 z"
     style="fill:none;stroke:#91c54f;stroke-width:3.49492311px;stroke-miterlimit:10"
     id="path368"
     inkscape:connector-curvature="0" />
  <polygon
     points="415.67,522.01 448.82,488.86 415.67,455.7 415.67,471.31 307.43,471.31 307.43,506.41 415.67,506.41 "
     style="fill:none;stroke:#3a5c84;stroke-width:5px;stroke-miterlimit:10"
     id="polygon370"
     transform="translate(-82.956367,-323.95637)" />
  <polygon
     points="824,522.01 857.15,488.86 824,455.7 824,471.31 715.76,471.31 715.76,506.41 824,506.41 "
     style="fill:none;stroke:#3a5c84;stroke-width:5px;stroke-miterlimit:10"
     id="polygon372"
     transform="translate(-82.956367,-323.95637)" />
  <polygon
     points="1248.33,522.01 1281.49,488.86 1248.33,455.7 1248.33,471.31 1140.1,471.31 1140.1,506.41 1248.33,506.41 "
     style="fill:none;stroke:#3a5c84;stroke-width:5px;stroke-miterlimit:10"
     id="polygon374"
     transform="translate(-82.956367,-323.95637)" />
  <polygon
     points="1609.67,522.01 1642.82,488.86 1609.67,455.7 1609.67,471.31 1501.43,471.31 1501.43,506.41 1609.67,506.41 "
     style="fill:none;stroke:#3a5c84;stroke-width:5px;stroke-miterlimit:10"
     id="polygon376"
     transform="translate(-82.956367,-323.95637)" />
  <rect
     x="2.5436332"
     y="2.5436332"
     width="588"
     height="420"
     rx="12"
     ry="12"
     style="fill:none;stroke:#3a5c84;stroke-width:5.08726645px;stroke-miterlimit:10"
     id="rect378" />
  <rect
     x="36.163635"
     y="102.05364"
     width="148"
     height="89.209999"
     rx="12"
     ry="12"
     style="fill:none;stroke:#666666;stroke-width:5px;stroke-miterlimit:10"
     id="rect380" />
  <rect
     x="86.343636"
     y="190.75366"
     width="47.639999"
     height="16.219999"
     rx="4.3800001"
     ry="4.3800001"
     style="fill:#666666"
     id="rect382" />
  <rect
     x="55.433632"
     y="205.45361"
     width="109.48"
     height="22.299999"
     rx="6.0300002"
     ry="6.0300002"
     style="fill:none;stroke:#666666;stroke-width:5px;stroke-miterlimit:10"
     id="rect384" />
  <circle
     cx="67.593636"
     cy="213.56366"
     r="2.03"
     style="fill:#666666"
     id="circle386" />
  <circle
     cx="73.413628"
     cy="213.56366"
     r="2.03"
     style="fill:#666666"
     id="circle388" />
  <circle
     cx="67.593636"
     cy="219.64362"
     r="2.03"
     style="fill:#666666"
     id="circle390" />
  <circle
     cx="73.413628"
     cy="219.64362"
     r="2.03"
     style="fill:#666666"
     id="circle392" />
  <rect
     x="126.38363"
     y="214.57367"
     width="31.42"
     height="3.04"
     rx="0.81999999"
     ry="0.81999999"
     style="fill:none;stroke:#666666;stroke-width:5px;stroke-miterlimit:10"
     id="rect394" />
  <path
     d="m 71.463633,269.36363 a 7,7 0 0 0 4.59,2 2.63,2.63 0 0 0 2,-0.69 1.79,1.79 0 0 0 0.51,-1.26 1.56,1.56 0 0 0 -0.57,-1.2 7.21,7.21 0 0 0 -2.58,-1.05 l -1.35,-0.42 a 6.54,6.54 0 0 1 -2.88,-1.62 5,5 0 0 1 -1.14,-3.54 6.54,6.54 0 0 1 1.83,-4.83 7.05,7.05 0 0 1 5.13,-1.89 14.06,14.06 0 0 1 6.18,1.62 l -2.07,4 a 5.28,5.28 0 0 0 -3.42,-1.35 2.49,2.49 0 0 0 -1.71,0.6 1.48,1.48 0 0 0 -0.51,1.08 1.34,1.34 0 0 0 0.27,0.9 3.28,3.28 0 0 0 1.74,0.9 l 1.59,0.48 a 7.64,7.64 0 0 1 3.63,2 4.72,4.72 0 0 1 1.29,3.57 6.78,6.78 0 0 1 -1.89,5 7.76,7.76 0 0 1 -5.91,2 10.7,10.7 0 0 1 -3.93,-0.66 14,14 0 0 1 -3,-1.59 z"
     id="path396"
     inkscape:connector-curvature="0" />
  <path
     d="m 92.133633,265.88363 v 9.48 h -4.8 v -9.48 h -1.53 v -3.93 h 1.53 v -4.41 h 4.8 v 4.41 h 2.73 v 3.93 z"
     id="path398"
     inkscape:connector-curvature="0" />
  <path
     d="m 107.04363,261.95363 h 4.8 v 13.41 h -4.8 v -1.47 a 5,5 0 0 1 -4.17,1.92 6.42,6.42 0 0 1 -4.829997,-2.13 6.76,6.76 0 0 1 -1.92,-4.92 7.42,7.42 0 0 1 2.07,-5.37 6.9,6.9 0 0 1 4.829997,-1.89 5.31,5.31 0 0 1 4,1.74 z m -5,4.5 a 3.14,3.14 0 0 0 -1,2.19 3.09,3.09 0 0 0 0.93,2.19 3.37,3.37 0 0 0 2.16,0.9 3.08,3.08 0 0 0 2.16,-0.93 2.91,2.91 0 0 0 0.9,-2.16 3,3 0 0 0 -0.93,-2.19 3,3 0 0 0 -4.26,0 z"
     id="path400"
     inkscape:connector-curvature="0" />
  <path
     d="m 120.45363,265.88363 v 9.48 h -4.8 v -9.48 h -1.53 v -3.93 h 1.53 v -4.41 h 4.8 v 4.41 h 2.73 v 3.93 z m -4.62,11 4.5,0.48 -3.06,5.52 -3,-0.36 z"
     id="path402"
     inkscape:connector-curvature="0" />
  <path
     d="m 127.38363,253.67363 a 2.7,2.7 0 1 1 -2.7,2.7 2.69,2.69 0 0 1 2.7,-2.7 z m 2.4,8.28 v 13.41 h -4.8 v -13.41 z"
     id="path404"
     inkscape:connector-curvature="0" />
  <path
     d="m 147.27363,269.54363 h -10 a 3.39,3.39 0 0 0 0.84,2.25 2.7,2.7 0 0 0 2,0.66 3.79,3.79 0 0 0 1.56,-0.36 2.23,2.23 0 0 0 0.84,-0.9 h 4.59 a 6,6 0 0 1 -1.62,2.76 c -1,1 -2.55,1.86 -5.46,1.86 a 7.61,7.61 0 0 1 -5.55,-2 7,7 0 0 1 -2,-5.07 7.16,7.16 0 0 1 2,-5.19 7.55,7.55 0 0 1 5.49,-2 7.35,7.35 0 0 1 5.16,1.83 7.51,7.51 0 0 1 2.13,5.64 z m -4.41,-2.76 a 3.22,3.22 0 0 0 -0.78,-1.44 2.8,2.8 0 0 0 -2,-0.72 2.58,2.58 0 0 0 -1.95,0.72 2.74,2.74 0 0 0 -0.72,1.44 z"
     id="path406"
     inkscape:connector-curvature="0" />
</svg>
