<svg id="Layer_1" data-name="Layer 1" xmlns="http://www.w3.org/2000/svg" viewBox="0 0 2266 1176"><title>Capitolul11</title><rect x="472.71" y="966.4" width="148" height="89.21" rx="12" ry="12" style="fill:none;stroke:#91c54f;stroke-miterlimit:10;stroke-width:5px"/><rect x="522.89" y="1055.1" width="47.64" height="16.22" rx="4.38" ry="4.38" style="fill:#91c54f"/><rect x="491.97" y="1069.8" width="109.48" height="22.3" rx="6.03" ry="6.03" style="fill:none;stroke:#91c54f;stroke-miterlimit:10;stroke-width:5px"/><circle cx="504.14" cy="1077.91" r="2.03" style="fill:#91c54f"/><circle cx="509.95" cy="1077.91" r="2.03" style="fill:#91c54f"/><circle cx="504.14" cy="1083.99" r="2.03" style="fill:#91c54f"/><circle cx="509.95" cy="1083.99" r="2.03" style="fill:#91c54f"/><rect x="562.93" y="1078.92" width="31.42" height="3.04" rx="0.82" ry="0.82" style="fill:none;stroke:#91c54f;stroke-miterlimit:10;stroke-width:5px"/><polygon points="561.49 380.05 561.49 288.92 574.63 288.92 546.71 261 518.8 288.92 531.93 288.92 531.93 380.05 561.49 380.05" style="fill:none;stroke:#3a5c84;stroke-miterlimit:10;stroke-width:5px"/><polygon points="781.43 190.65 889.67 190.65 889.67 206.25 922.82 173.1 889.67 139.95 889.67 155.55 781.43 155.55 781.43 190.65" style="fill:none;stroke:#3a5c84;stroke-miterlimit:10;stroke-width:5px"/><polygon points="660.46 191.98 696.7 191.98 696.7 197.2 707.8 186.1 696.7 175 696.7 180.22 660.46 180.22 660.46 191.98" style="fill:none;stroke:#3a5c84;stroke-miterlimit:10;stroke-width:1.67413130402565px"/><polygon points="1324.43 190.65 1432.67 190.65 1432.67 206.25 1465.82 173.1 1432.67 139.95 1432.67 155.55 1324.43 155.55 1324.43 190.65" style="fill:none;stroke:#3a5c84;stroke-miterlimit:10;stroke-width:5px"/><path d="M613.08,671.16H494.64v-12.6a7.55,7.55,0,0,0-7.56-7.56H466.92a2.52,2.52,0,0,0-2.52,2.52V663.6a2.52,2.52,0,0,0,2.52,2.52h12.6V774.48A2.52,2.52,0,0,0,482,777h10.08a2.52,2.52,0,0,0,2.52-2.52V756.84h27.72a2.52,2.52,0,0,0,2.52-2.52v-7.56H540v7.56a2.52,2.52,0,0,0,2.52,2.52h70.56a2.52,2.52,0,0,0,2.52-2.52V673.68A2.52,2.52,0,0,0,613.08,671.16ZM489.6,772h-5V663.6a2.52,2.52,0,0,0-2.52-2.52h-12.6v-5h17.64a2.52,2.52,0,0,1,2.52,2.52Zm5-70.56h5v25.2h-5Zm115.92,50.4h-5V741.72h-5V751.8h-5V741.72h-5V751.8h-5V741.72h-5V751.8h-5V741.72h-5V751.8h-5V741.72h-5V751.8h-5V741.72h-5V751.8h-5v-7.56a2.52,2.52,0,0,0-2.52-2.52H522.36a2.52,2.52,0,0,0-2.52,2.52v7.56h-25.2V731.64h7.56a2.52,2.52,0,0,0,2.52-2.52V698.88a2.52,2.52,0,0,0-2.52-2.52h-7.56V676.2H610.56Z" style="fill:#c13018"/><path d="M332.56,1031.75a9.35,9.35,0,0,0,6.12,2.72,3.51,3.51,0,0,0,2.68-.92,2.39,2.39,0,0,0,.68-1.68,2.08,2.08,0,0,0-.76-1.6,9.45,9.45,0,0,0-3.44-1.39l-1.8-.57a8.59,8.59,0,0,1-3.84-2.15,6.71,6.71,0,0,1-1.52-4.72,8.72,8.72,0,0,1,2.44-6.44,9.41,9.41,0,0,1,6.84-2.52,18.74,18.74,0,0,1,8.24,2.16l-2.76,5.4a7,7,0,0,0-4.56-1.8,3.32,3.32,0,0,0-2.28.8,2,2,0,0,0-.68,1.44,1.78,1.78,0,0,0,.36,1.2,4.38,4.38,0,0,0,2.32,1.2l2.12.64a10.19,10.19,0,0,1,4.84,2.64,6.28,6.28,0,0,1,1.72,4.75,9,9,0,0,1-2.52,6.72c-2.28,2.28-5,2.72-7.88,2.72a14.26,14.26,0,0,1-5.24-.88,18.63,18.63,0,0,1-4-2.12Z"/><path d="M360.12,1027.12v12.63h-6.4v-12.63h-2v-5.24h2V1016h6.4v5.88h3.64v5.24Z"/><path d="M380,1021.88h6.4v17.87H380v-2a6.68,6.68,0,0,1-5.56,2.56,8.56,8.56,0,0,1-6.44-2.84,9,9,0,0,1-2.56-6.56,9.87,9.87,0,0,1,2.76-7.15,9.2,9.2,0,0,1,6.44-2.52,7.08,7.08,0,0,1,5.36,2.32Zm-6.72,6a4,4,0,0,0,0,5.83,4.49,4.49,0,0,0,2.88,1.2,4.1,4.1,0,0,0,2.88-1.24,4,4,0,0,0,0-5.79,4,4,0,0,0-5.68,0Z"/><path d="M397.88,1027.12v12.63h-6.4v-12.63h-2v-5.24h2V1016h6.4v5.88h3.64v5.24Zm-6.16,14.63,6,.64-4.08,7.36-4-.48Z"/><path d="M407.12,1010.84a3.6,3.6,0,1,1-3.6,3.6A3.59,3.59,0,0,1,407.12,1010.84Zm3.2,11v17.87h-6.4v-17.87Z"/><path d="M433.63,1032H420.32a4.52,4.52,0,0,0,1.12,3,3.6,3.6,0,0,0,2.64.88,5,5,0,0,0,2.08-.48,3,3,0,0,0,1.12-1.2h6.11a8,8,0,0,1-2.16,3.68c-1.31,1.28-3.4,2.48-7.27,2.48a10.14,10.14,0,0,1-7.4-2.72,9.36,9.36,0,0,1-2.64-6.76,9.54,9.54,0,0,1,2.68-6.91,10.07,10.07,0,0,1,7.32-2.6,9.77,9.77,0,0,1,6.87,2.44,10,10,0,0,1,2.84,7.51Zm-5.88-3.68a4.16,4.16,0,0,0-1-1.91,3.69,3.69,0,0,0-2.63-1,3.4,3.4,0,0,0-2.6,1,3.62,3.62,0,0,0-1,1.91Z"/><path d="M172.72,712.32v8.84H165.8V694.48h11a9.19,9.19,0,0,1,6.76,2.4,8.27,8.27,0,0,1,2.48,6.48,8.67,8.67,0,0,1-2.36,6.64,8.88,8.88,0,0,1-6.64,2.32Zm0-5.6H175a4.52,4.52,0,0,0,2.92-.84,3.05,3.05,0,0,0,.88-2.44,3.24,3.24,0,0,0-.8-2.4,4.07,4.07,0,0,0-3-1h-2.36Z"/><path d="M195.56,692v29.16h-6.4V692Z"/><path d="M213.76,703.28h6.4v17.88h-6.4v-2a6.68,6.68,0,0,1-5.56,2.56,8.56,8.56,0,0,1-6.44-2.84,9,9,0,0,1-2.56-6.56A9.89,9.89,0,0,1,202,705.2a9.2,9.2,0,0,1,6.44-2.52,7.08,7.08,0,0,1,5.36,2.32Zm-6.72,6a4.18,4.18,0,0,0-1.28,2.92,4.12,4.12,0,0,0,1.24,2.92,4.49,4.49,0,0,0,2.88,1.2,4.1,4.1,0,0,0,2.88-1.24,3.88,3.88,0,0,0,1.2-2.88,4,4,0,0,0-1.24-2.92,4.06,4.06,0,0,0-5.68,0Z"/><path d="M238.08,720.76a9.49,9.49,0,0,1-4.44,1,9.88,9.88,0,0,1-7-2.72,9.36,9.36,0,0,1-2.76-6.68,9.74,9.74,0,0,1,2.88-6.92,10.31,10.31,0,0,1,7.2-2.72,9.17,9.17,0,0,1,4.16,1v5.36a5.7,5.7,0,0,0-3.32-1.16,4.19,4.19,0,0,0-3.12,1.24,4.35,4.35,0,0,0-1.24,3.08,4.59,4.59,0,0,0,1.12,3,4.34,4.34,0,0,0,3.28,1.36,4.84,4.84,0,0,0,3.28-1.2Z"/><path d="M255.56,703.28H262v17.88h-6.4v-2a6.68,6.68,0,0,1-5.56,2.56,8.56,8.56,0,0,1-6.44-2.84,9,9,0,0,1-2.56-6.56,9.89,9.89,0,0,1,2.76-7.16,9.2,9.2,0,0,1,6.44-2.52,7.08,7.08,0,0,1,5.36,2.32Zm3.52-9.2a6.31,6.31,0,0,1-1.76,4.36,8.41,8.41,0,0,1-10.4,0,6.31,6.31,0,0,1-1.76-4.36h4.12a2.78,2.78,0,0,0,.8,1.64,3.25,3.25,0,0,0,4.08,0,2.78,2.78,0,0,0,.8-1.64Zm-10.24,15.2a4.18,4.18,0,0,0-1.28,2.92,4.12,4.12,0,0,0,1.24,2.92,4.49,4.49,0,0,0,2.88,1.2,4.1,4.1,0,0,0,2.88-1.24,3.88,3.88,0,0,0,1.2-2.88,4,4,0,0,0-1.24-2.92,4.06,4.06,0,0,0-5.68,0Z"/><path d="M295.91,721.16h-6.4v-2a6.54,6.54,0,0,1-5.39,2.56,8.56,8.56,0,0,1-6.28-2.48,9.86,9.86,0,0,1-2.88-7.12,9.74,9.74,0,0,1,2.92-7.08,9.14,9.14,0,0,1,6.32-2.4,7,7,0,0,1,5.31,2.32V692h6.4Zm-7.55-5.92a4.28,4.28,0,0,0,1.35-3,4.62,4.62,0,0,0-1.2-2.88,4.09,4.09,0,0,0-5.75,0,4.39,4.39,0,0,0-1.24,3,4,4,0,0,0,1.24,2.8,4,4,0,0,0,2.84,1.2A4.39,4.39,0,0,0,288.36,715.24Z"/><path d="M319.27,713.4H306a4.52,4.52,0,0,0,1.12,3,3.59,3.59,0,0,0,2.63.88,5,5,0,0,0,2.08-.48,3,3,0,0,0,1.13-1.2H319a8,8,0,0,1-2.16,3.68c-1.32,1.28-3.4,2.48-7.27,2.48a10.14,10.14,0,0,1-7.4-2.72,9.36,9.36,0,0,1-2.64-6.76,9.54,9.54,0,0,1,2.68-6.92,10.07,10.07,0,0,1,7.32-2.6,9.79,9.79,0,0,1,6.87,2.44,10,10,0,0,1,2.84,7.52Zm-5.88-3.68a4.29,4.29,0,0,0-1-1.92,3.71,3.71,0,0,0-2.64-1,3.43,3.43,0,0,0-2.59,1,3.65,3.65,0,0,0-1,1.92Z"/><path d="M332.28,703.28h6.39v2.92a5.77,5.77,0,0,1,2.52-2.48,7,7,0,0,1,3.32-.72c.16,0,.44,0,1.28.08v6a5.65,5.65,0,0,0-2.76-.64,4.19,4.19,0,0,0-2.92,1,5.4,5.4,0,0,0-1.44,4.08v7.64h-6.39Z"/><path d="M367.59,713.4H354.27a4.52,4.52,0,0,0,1.12,3,3.6,3.6,0,0,0,2.64.88,5,5,0,0,0,2.08-.48,3,3,0,0,0,1.12-1.2h6.12a8,8,0,0,1-2.16,3.68c-1.32,1.28-3.4,2.48-7.28,2.48a10.14,10.14,0,0,1-7.4-2.72,9.41,9.41,0,0,1-2.63-6.76,9.58,9.58,0,0,1,2.67-6.92,10.07,10.07,0,0,1,7.32-2.6,9.8,9.8,0,0,1,6.88,2.44,10,10,0,0,1,2.84,7.52Zm-5.88-3.68a4.29,4.29,0,0,0-1-1.92,3.73,3.73,0,0,0-2.64-1,3.44,3.44,0,0,0-2.6,1,3.65,3.65,0,0,0-1,1.92Z"/><path d="M378.35,708.52v12.64H372V708.52h-2v-5.24h2V697.4h6.39v5.88H382v5.24Zm-6.16,14.64,6,.64-4.08,7.36-4-.48Z"/><path d="M403.35,713.4H390a4.52,4.52,0,0,0,1.12,3,3.6,3.6,0,0,0,2.64.88,5,5,0,0,0,2.08-.48,3,3,0,0,0,1.12-1.2h6.12a8,8,0,0,1-2.16,3.68c-1.32,1.28-3.4,2.48-7.28,2.48a10.14,10.14,0,0,1-7.4-2.72,9.36,9.36,0,0,1-2.64-6.76,9.54,9.54,0,0,1,2.68-6.92,10.07,10.07,0,0,1,7.32-2.6,9.8,9.8,0,0,1,6.88,2.44,10,10,0,0,1,2.84,7.52Zm-5.88-3.68a4.29,4.29,0,0,0-1-1.92,3.73,3.73,0,0,0-2.64-1,3.44,3.44,0,0,0-2.6,1,3.65,3.65,0,0,0-1,1.92Z"/><path d="M420.87,703.28h6.4v17.88h-6.4v-2a6.68,6.68,0,0,1-5.56,2.56,8.56,8.56,0,0,1-6.44-2.84,9,9,0,0,1-2.56-6.56,9.89,9.89,0,0,1,2.76-7.16,9.2,9.2,0,0,1,6.44-2.52,7.08,7.08,0,0,1,5.36,2.32Zm-6.72,6a4.18,4.18,0,0,0-1.28,2.92,4.12,4.12,0,0,0,1.24,2.92,4.49,4.49,0,0,0,2.88,1.2,4.1,4.1,0,0,0,2.88-1.24,3.88,3.88,0,0,0,1.2-2.88,4,4,0,0,0-1.24-2.92,4.06,4.06,0,0,0-5.68,0Z"/><path d="M170.24,742.48l4.64,17.24,5.64-17.24H186l5.24,17.24,5-17.24h7.24L195,769.16H188l-4.84-15.44L178,769.16h-7l-8-26.68Z"/><path d="M209,740.24a3.6,3.6,0,1,1-3.6,3.6A3.59,3.59,0,0,1,209,740.24Zm3.2,11v17.88h-6.4V751.28Z"/><path d="M216.32,755.76h10.12v5.32H216.32Z"/><path d="M246.52,748.36h-8.36v4.44h7.6v5.88h-7.6v10.48h-6.92V742.48h15.28Z"/><path d="M252.84,740.24a3.6,3.6,0,1,1-3.6,3.6A3.59,3.59,0,0,1,252.84,740.24Zm3.2,11v17.88h-6.4V751.28Z"/><path d="M310.56,463.16a9.35,9.35,0,0,0,6.12,2.72,3.51,3.51,0,0,0,2.68-.92,2.39,2.39,0,0,0,.68-1.68,2.08,2.08,0,0,0-.76-1.6,9.61,9.61,0,0,0-3.44-1.4l-1.8-.56a8.71,8.71,0,0,1-3.84-2.16,6.71,6.71,0,0,1-1.52-4.72,8.72,8.72,0,0,1,2.44-6.44,9.41,9.41,0,0,1,6.84-2.52A18.74,18.74,0,0,1,326.2,446l-2.76,5.4a7,7,0,0,0-4.56-1.8,3.32,3.32,0,0,0-2.28.8,2,2,0,0,0-.68,1.44,1.78,1.78,0,0,0,.36,1.2,4.38,4.38,0,0,0,2.32,1.2l2.12.64a10.19,10.19,0,0,1,4.84,2.64,6.3,6.3,0,0,1,1.72,4.76,9,9,0,0,1-2.52,6.72c-2.28,2.28-5,2.72-7.88,2.72a14.26,14.26,0,0,1-5.24-.88,18.63,18.63,0,0,1-4-2.12Z"/><path d="M336,453.28l4.24,9.44,4.52-9.44h3.92L353.2,463l4.47-9.72h7.12l-9.35,17.88h-4.32l-4.48-9.84-4.28,9.84H338l-9.2-17.88Z"/><path d="M370.2,442.24a3.6,3.6,0,1,1-3.6,3.6A3.59,3.59,0,0,1,370.2,442.24Zm3.2,11v17.88H367V453.28Z"/><path d="M384.84,458.52v12.64h-6.4V458.52h-2v-5.24h2V447.4h6.4v5.88h3.64v5.24Z"/><path d="M404.4,470.76a9.49,9.49,0,0,1-4.44,1,9.88,9.88,0,0,1-7-2.72,9.36,9.36,0,0,1-2.76-6.68,9.74,9.74,0,0,1,2.88-6.92,10.31,10.31,0,0,1,7.2-2.72,9.2,9.2,0,0,1,4.16,1v5.36a5.7,5.7,0,0,0-3.32-1.16,4.19,4.19,0,0,0-3.12,1.24,4.35,4.35,0,0,0-1.24,3.08,4.59,4.59,0,0,0,1.12,3,4.34,4.34,0,0,0,3.28,1.36,4.84,4.84,0,0,0,3.28-1.2Z"/><path d="M408,442h6.4v13.52a7.64,7.64,0,0,1,2-1.76,8.17,8.17,0,0,1,8.95,1c1.6,1.6,1.68,3.28,1.68,5v11.36h-6.4v-9c0-1.32-.08-2.68-.79-3.48a2.57,2.57,0,0,0-2.05-.76,3.42,3.42,0,0,0-2.31.76,3.89,3.89,0,0,0-1.08,2.92v9.6H408Z"/><path d="M264.6,131.48a8.62,8.62,0,0,1,6.52,2.36,8.78,8.78,0,0,1,2.28,6,7.7,7.7,0,0,1-2.12,5.56,7.47,7.47,0,0,1-3.68,1.84L276,158.16h-8.6l-6.64-10.24v10.24H253.8V131.48Zm-3.88,12H262a5.2,5.2,0,0,0,3.36-1.08,3.32,3.32,0,0,0,.88-2.24,3.15,3.15,0,0,0-.92-2.24,4.7,4.7,0,0,0-3.32-1h-1.32Z"/><path d="M284.68,140.28v10a3.43,3.43,0,0,0,1,2.6,3.31,3.31,0,0,0,2.24.68,3,3,0,0,0,2.28-.76,3.32,3.32,0,0,0,.92-2.52v-10h6.4v11.16a6.14,6.14,0,0,1-1.72,4.8c-2.2,2.28-5.28,2.52-7.72,2.52-2.68,0-6-.28-8.08-2.56a6.43,6.43,0,0,1-1.68-4.76V140.28Z"/><path d="M309,145.52v12.64h-6.4V145.52h-2v-5.24h2V134.4H309v5.88h3.64v5.24Z"/><path d="M334,150.4H320.64a4.52,4.52,0,0,0,1.12,3,3.6,3.6,0,0,0,2.64.88,5,5,0,0,0,2.08-.48,3,3,0,0,0,1.12-1.2h6.11a7.91,7.91,0,0,1-2.15,3.68c-1.32,1.28-3.4,2.48-7.28,2.48a10.14,10.14,0,0,1-7.4-2.72,9.36,9.36,0,0,1-2.64-6.76,9.54,9.54,0,0,1,2.68-6.92,10.07,10.07,0,0,1,7.32-2.6,9.8,9.8,0,0,1,6.88,2.44,10,10,0,0,1,2.84,7.52Zm-5.88-3.68a4.29,4.29,0,0,0-1-1.92,3.73,3.73,0,0,0-2.64-1,3.44,3.44,0,0,0-2.6,1,3.65,3.65,0,0,0-1,1.92Z"/><path d="M337.64,140.28H344v2.92a5.77,5.77,0,0,1,2.52-2.48,7,7,0,0,1,3.32-.72c.16,0,.44,0,1.28.08v6a5.65,5.65,0,0,0-2.76-.64,4.19,4.19,0,0,0-2.92,1,5.4,5.4,0,0,0-1.44,4.08v7.64h-6.4Z"/><path d="M371,129h5.23L355.8,165.68h-5.2Z"/><path d="M266.6,191h13.76c0,5.28-1.08,9-4.28,12a13,13,0,0,1-9.4,3.36,13.78,13.78,0,0,1-10.24-4,13.44,13.44,0,0,1-3.84-9.64,13.9,13.9,0,0,1,4-10,15.51,15.51,0,0,1,17.56-2.12,13.07,13.07,0,0,1,4.76,5.48l-6.6,2.72a6.53,6.53,0,0,0-1.92-2.68,5.59,5.59,0,0,0-3.72-1.32,6.44,6.44,0,0,0-4.56,1.84,9,9,0,0,0-2.32,6.12,8.35,8.35,0,0,0,2.12,5.76,6.31,6.31,0,0,0,4.88,2,5.71,5.71,0,0,0,3.84-1.24,4.75,4.75,0,0,0,1.64-3H266.6Z"/><path d="M298,188.28h6.4v17.88H298v-2a6.68,6.68,0,0,1-5.56,2.56,8.56,8.56,0,0,1-6.44-2.84,9,9,0,0,1-2.56-6.56,9.89,9.89,0,0,1,2.76-7.16,9.2,9.2,0,0,1,6.44-2.52A7.08,7.08,0,0,1,298,190Zm-6.72,6A4.18,4.18,0,0,0,290,197.2a4.12,4.12,0,0,0,1.24,2.92,4.49,4.49,0,0,0,2.88,1.2,4.1,4.1,0,0,0,2.88-1.24,3.88,3.88,0,0,0,1.2-2.88,4,4,0,0,0-1.24-2.92,4.06,4.06,0,0,0-5.68,0Z"/><path d="M315.88,193.52v12.64h-6.4V193.52h-2v-5.24h2V182.4h6.4v5.88h3.64v5.24Z"/><path d="M340.87,198.4H327.56a4.52,4.52,0,0,0,1.12,3,3.6,3.6,0,0,0,2.64.88,5,5,0,0,0,2.08-.48,3,3,0,0,0,1.12-1.2h6.11a8,8,0,0,1-2.16,3.68c-1.31,1.28-3.39,2.48-7.27,2.48a10.14,10.14,0,0,1-7.4-2.72,9.36,9.36,0,0,1-2.64-6.76,9.54,9.54,0,0,1,2.68-6.92,10.07,10.07,0,0,1,7.32-2.6A9.8,9.8,0,0,1,338,190.2a10,10,0,0,1,2.83,7.52ZM335,194.72a4.39,4.39,0,0,0-1-1.92,3.73,3.73,0,0,0-2.64-1,3.44,3.44,0,0,0-2.6,1,3.65,3.65,0,0,0-1,1.92Z"/><path d="M349.52,188.28l4.24,9.44,4.51-9.44h3.92l4.52,9.72,4.48-9.72h7.12L369,206.16h-4.32l-4.48-9.84-4.27,9.84h-4.32l-9.2-17.88Z"/><path d="M392.87,188.28h6.4v17.88h-6.4v-2a6.66,6.66,0,0,1-5.55,2.56,8.56,8.56,0,0,1-6.44-2.84,9,9,0,0,1-2.56-6.56,9.89,9.89,0,0,1,2.76-7.16,9.2,9.2,0,0,1,6.43-2.52,7.08,7.08,0,0,1,5.36,2.32Zm-6.71,6a4.18,4.18,0,0,0-1.28,2.92,4.12,4.12,0,0,0,1.24,2.92,4.47,4.47,0,0,0,2.88,1.2,4.08,4.08,0,0,0,2.87-1.24,3.88,3.88,0,0,0,1.2-2.88,4,4,0,0,0-1.24-2.92,4,4,0,0,0-5.67,0Z"/><path d="M410.12,203.72l-8.64-15.44h7.44l4.75,9.16,4.64-9.16h7.32l-14.35,27h-7.16Z"/><path d="M1084.1,251.48a8.62,8.62,0,0,1,6.52,2.36,8.78,8.78,0,0,1,2.28,6,7.7,7.7,0,0,1-2.12,5.56,7.47,7.47,0,0,1-3.68,1.84l8.36,10.92h-8.6l-6.64-10.24v10.24h-6.92V251.48Zm-3.88,12h1.32a5.2,5.2,0,0,0,3.36-1.08,3.32,3.32,0,0,0,.88-2.24,3.15,3.15,0,0,0-.92-2.24,4.7,4.7,0,0,0-3.32-1h-1.32Z"/><path d="M1104.18,260.28v10a3.43,3.43,0,0,0,1,2.6,3.31,3.31,0,0,0,2.24.68,3,3,0,0,0,2.28-.76,3.32,3.32,0,0,0,.92-2.52v-10h6.4v11.16a6.14,6.14,0,0,1-1.72,4.8c-2.2,2.28-5.28,2.52-7.72,2.52-2.68,0-6-.28-8.08-2.56a6.43,6.43,0,0,1-1.68-4.76V260.28Z"/><path d="M1128.46,265.52v12.64h-6.4V265.52h-2v-5.24h2V254.4h6.4v5.88h3.64v5.24Z"/><path d="M1153.46,270.4h-13.32a4.52,4.52,0,0,0,1.12,3,3.6,3.6,0,0,0,2.64.88,5,5,0,0,0,2.08-.48,3,3,0,0,0,1.12-1.2h6.11a7.91,7.91,0,0,1-2.15,3.68c-1.32,1.28-3.4,2.48-7.28,2.48a10.14,10.14,0,0,1-7.4-2.72,9.36,9.36,0,0,1-2.64-6.76,9.54,9.54,0,0,1,2.68-6.92,10.07,10.07,0,0,1,7.32-2.6,9.8,9.8,0,0,1,6.88,2.44,10,10,0,0,1,2.84,7.52Zm-5.88-3.68a4.29,4.29,0,0,0-1-1.92,3.73,3.73,0,0,0-2.64-1,3.44,3.44,0,0,0-2.6,1,3.65,3.65,0,0,0-1,1.92Z"/><path d="M1157.14,260.28h6.4v2.92a5.77,5.77,0,0,1,2.52-2.48,7,7,0,0,1,3.32-.72c.16,0,.44,0,1.28.08v6a5.65,5.65,0,0,0-2.76-.64,4.19,4.19,0,0,0-2.92,1,5.4,5.4,0,0,0-1.44,4.08v7.64h-6.4Z"/><polygon points="562.93 464.15 530.47 464.07 530.46 468.77 520.49 458.76 530.51 448.79 530.5 453.26 562.96 453.33 562.97 448.63 572.93 458.65 562.92 468.62 562.93 464.15" style="fill:none;stroke:#f7931f;stroke-miterlimit:10;stroke-width:3.21418609013491px"/><path d="M579.63,564.73c-.31-.26-31.27-25.8-61.84,0l4.62,5.46c25.91-21.85,51.54-.89,52.61,0Z" style="fill:#c13018"/><path d="M533.22,580.85c15.22-13.69,30.36-.56,31,0l4.78-5.33a29.77,29.77,0,0,0-40.55,0Z" style="fill:#c13018"/><path d="M590.61,557.8c-.77-.77-18.82-18.95-43.35-18.95-14.54,0-28.15,6.38-40.45,18.95l5.12,5C522.81,551.68,534.68,546,547.2,546h0c21.46,0,38.09,16.64,38.25,16.81Z" style="fill:#c13018"/><path d="M575.73,713.33c-.22-.18-22.27-18.36-44,0l3.28,3.9c18.45-15.56,36.7-.64,37.47,0Z" style="fill:#c13018"/><path d="M542.68,724.81c10.84-9.75,21.62-.4,22.07,0l3.4-3.79a21.19,21.19,0,0,0-28.87,0Z" style="fill:#c13018"/><path d="M583.55,708.4c-.55-.55-13.4-13.49-30.87-13.49-10.35,0-20,4.54-28.8,13.49l3.64,3.57c7.75-7.93,16.2-12,25.12-12h0c15.28,0,27.12,11.85,27.24,12Z" style="fill:#c13018"/><rect x="1638.73" y="706.8" width="136.4" height="39.71" rx="5.72" ry="5.72" style="fill:none;stroke:#91c54f;stroke-miterlimit:10;stroke-width:5px"/><circle cx="1662.04" cy="726.66" r="9.21" style="fill:none;stroke:#91c54f;stroke-miterlimit:10;stroke-width:5px"/><circle cx="1725.63" cy="726.95" r="2.88" style="fill:none;stroke:#91c54f;stroke-miterlimit:10;stroke-width:5px"/><circle cx="1735.41" cy="726.95" r="2.88" style="fill:none;stroke:#91c54f;stroke-miterlimit:10;stroke-width:5px"/><circle cx="1745.77" cy="726.95" r="2.88" style="fill:none;stroke:#91c54f;stroke-miterlimit:10;stroke-width:5px"/><circle cx="1756.13" cy="726.95" r="2.88" style="fill:none;stroke:#91c54f;stroke-miterlimit:10;stroke-width:5px"/><rect x="1638.73" y="747.03" width="136.4" height="39.71" rx="5.72" ry="5.72" style="fill:none;stroke:#91c54f;stroke-miterlimit:10;stroke-width:5px"/><circle cx="1662.04" cy="766.88" r="9.21" style="fill:none;stroke:#91c54f;stroke-miterlimit:10;stroke-width:5px"/><circle cx="1725.63" cy="767.17" r="2.88" style="fill:none;stroke:#91c54f;stroke-miterlimit:10;stroke-width:5px"/><circle cx="1735.41" cy="767.17" r="2.88" style="fill:none;stroke:#91c54f;stroke-miterlimit:10;stroke-width:5px"/><circle cx="1745.77" cy="767.17" r="2.88" style="fill:none;stroke:#91c54f;stroke-miterlimit:10;stroke-width:5px"/><circle cx="1756.13" cy="767.17" r="2.88" style="fill:none;stroke:#91c54f;stroke-miterlimit:10;stroke-width:5px"/><rect x="1638.73" y="667.09" width="136.4" height="39.71" rx="5.72" ry="5.72" style="fill:none;stroke:#91c54f;stroke-miterlimit:10;stroke-width:5px"/><circle cx="1662.04" cy="686.95" r="9.21" style="fill:none;stroke:#91c54f;stroke-miterlimit:10;stroke-width:5px"/><circle cx="1725.63" cy="687.24" r="2.88" style="fill:none;stroke:#91c54f;stroke-miterlimit:10;stroke-width:5px"/><circle cx="1735.41" cy="687.24" r="2.88" style="fill:none;stroke:#91c54f;stroke-miterlimit:10;stroke-width:5px"/><circle cx="1745.77" cy="687.24" r="2.88" style="fill:none;stroke:#91c54f;stroke-miterlimit:10;stroke-width:5px"/><circle cx="1756.13" cy="687.24" r="2.88" style="fill:none;stroke:#91c54f;stroke-miterlimit:10;stroke-width:5px"/><rect x="68.5" y="63" width="668.5" height="1065" rx="12" ry="12" style="fill:none;stroke:#636868;stroke-miterlimit:10;stroke-width:4.39004895859364px"/><rect x="1511.58" y="62.77" width="668.5" height="1065.23" rx="12" ry="12" style="fill:none;stroke:#636868;stroke-miterlimit:10;stroke-width:4.390523731127px"/><path d="M965.08,175.32a2.36,2.36,0,0,1,2.4-2.52,2.52,2.52,0,1,1-2.4,2.52Z"/><path d="M973.36,175.32a2.36,2.36,0,0,1,2.4-2.52,2.52,2.52,0,1,1-2.4,2.52Z"/><path d="M981.64,175.32a2.36,2.36,0,0,1,2.4-2.52,2.52,2.52,0,1,1-2.4,2.52Z"/><path d="M989.92,175.32a2.36,2.36,0,0,1,2.4-2.52,2.52,2.52,0,1,1-2.4,2.52Z"/><path d="M1241.08,175.32a2.36,2.36,0,0,1,2.4-2.52,2.52,2.52,0,1,1-2.4,2.52Z"/><path d="M1249.36,175.32a2.36,2.36,0,0,1,2.4-2.52,2.52,2.52,0,1,1-2.4,2.52Z"/><path d="M1257.64,175.32a2.36,2.36,0,0,1,2.4-2.52,2.52,2.52,0,1,1-2.4,2.52Z"/><path d="M1265.92,175.32a2.36,2.36,0,0,1,2.4-2.52,2.52,2.52,0,1,1-2.4,2.52Z"/><rect x="471.71" y="154.91" width="150" height="56.01" rx="12" ry="12" style="fill:none;stroke:#3a5c84;stroke-miterlimit:10;stroke-width:5px"/><rect x="489.21" y="211.5" width="18" height="10" rx="5" ry="5" style="fill:none;stroke:#3a5c84;stroke-miterlimit:10;stroke-width:5px"/><rect x="592.21" y="211.5" width="18" height="10" rx="5" ry="5" style="fill:none;stroke:#3a5c84;stroke-miterlimit:10;stroke-width:5px"/><circle cx="490.5" cy="195.64" r="5.32" style="fill:#3a5c84"/><circle cx="505.76" cy="195.64" r="5.32" style="fill:#3a5c84"/><circle cx="521.39" cy="195.66" r="5.32" style="fill:#3a5c84"/><rect x="559.5" y="180.73" width="45.21" height="4.38" rx="0.82" ry="0.82" style="fill:none;stroke:#3a5c84;stroke-miterlimit:10;stroke-width:5px"/><path d="M504.21,123.05V98.5a3.5,3.5,0,0,0-7,0v24.55a3,3,0,0,0-2.5,3v26a3,3,0,0,0,3,3h6a3,3,0,0,0,3-3V126A3,3,0,0,0,504.21,123.05Z" style="fill:none;stroke:#3a5c84;stroke-miterlimit:10;stroke-width:5px"/><path d="M596.21,123.05V98.5a3.5,3.5,0,0,0-7,0v24.55a3,3,0,0,0-2.5,3v26a3,3,0,0,0,3,3h6a3,3,0,0,0,3-3V126A3,3,0,0,0,596.21,123.05Z" style="fill:none;stroke:#3a5c84;stroke-miterlimit:10;stroke-width:5px"/><path d="M1845.6,157.48a8.62,8.62,0,0,1,6.52,2.36,8.78,8.78,0,0,1,2.28,6,7.7,7.7,0,0,1-2.12,5.56,7.47,7.47,0,0,1-3.68,1.84l8.36,10.92h-8.6l-6.64-10.24v10.24h-6.92V157.48Zm-3.88,12H1843a5.2,5.2,0,0,0,3.36-1.08,3.32,3.32,0,0,0,.88-2.24,3.15,3.15,0,0,0-.92-2.24,4.7,4.7,0,0,0-3.32-1h-1.32Z"/><path d="M1865.68,166.28v10a3.43,3.43,0,0,0,1,2.6,3.31,3.31,0,0,0,2.24.68,3,3,0,0,0,2.28-.76,3.32,3.32,0,0,0,.92-2.52v-10h6.4v11.16a6.14,6.14,0,0,1-1.72,4.8c-2.2,2.28-5.28,2.52-7.72,2.52-2.68,0-6-.28-8.08-2.56a6.43,6.43,0,0,1-1.68-4.76V166.28Z"/><path d="M1890,171.52v12.64h-6.4V171.52h-2v-5.24h2V160.4h6.4v5.88h3.64v5.24Z"/><path d="M1915,176.4h-13.32a4.52,4.52,0,0,0,1.12,3,3.6,3.6,0,0,0,2.64.88,5,5,0,0,0,2.08-.48,3,3,0,0,0,1.12-1.2h6.11a7.91,7.91,0,0,1-2.15,3.68c-1.32,1.28-3.4,2.48-7.28,2.48a10.14,10.14,0,0,1-7.4-2.72,9.36,9.36,0,0,1-2.64-6.76,9.54,9.54,0,0,1,2.68-6.92,10.07,10.07,0,0,1,7.32-2.6,9.8,9.8,0,0,1,6.88,2.44,10,10,0,0,1,2.84,7.52Zm-5.88-3.68a4.29,4.29,0,0,0-1-1.92,3.73,3.73,0,0,0-2.64-1,3.44,3.44,0,0,0-2.6,1,3.65,3.65,0,0,0-1,1.92Z"/><path d="M1918.64,166.28h6.4v2.92a5.77,5.77,0,0,1,2.52-2.48,7,7,0,0,1,3.32-.72c.16,0,.44,0,1.28.08v6a5.65,5.65,0,0,0-2.76-.64,4.19,4.19,0,0,0-2.92,1,5.4,5.4,0,0,0-1.44,4.08v7.64h-6.4Z"/><path d="M1952,155h5.23l-20.47,36.68h-5.2Z"/><path d="M1847.6,217h13.76c0,5.28-1.08,9-4.28,12a13,13,0,0,1-9.4,3.36,13.78,13.78,0,0,1-10.24-4,13.44,13.44,0,0,1-3.84-9.64,13.9,13.9,0,0,1,4-10,15.51,15.51,0,0,1,17.56-2.12,13.07,13.07,0,0,1,4.76,5.48l-6.6,2.72a6.53,6.53,0,0,0-1.92-2.68,5.59,5.59,0,0,0-3.72-1.32,6.44,6.44,0,0,0-4.56,1.84,9,9,0,0,0-2.32,6.12,8.35,8.35,0,0,0,2.12,5.76,6.31,6.31,0,0,0,4.88,2,5.71,5.71,0,0,0,3.84-1.24,4.75,4.75,0,0,0,1.64-3h-5.68Z"/><path d="M1879,214.28h6.4v17.88H1879v-2a6.68,6.68,0,0,1-5.56,2.56,8.56,8.56,0,0,1-6.44-2.84,9,9,0,0,1-2.56-6.56,9.89,9.89,0,0,1,2.76-7.16,9.2,9.2,0,0,1,6.44-2.52A7.08,7.08,0,0,1,1879,216Zm-6.72,6a4.18,4.18,0,0,0-1.28,2.92,4.12,4.12,0,0,0,1.24,2.92,4.49,4.49,0,0,0,2.88,1.2,4.1,4.1,0,0,0,2.88-1.24,3.88,3.88,0,0,0,1.2-2.88,4,4,0,0,0-1.24-2.92,4.06,4.06,0,0,0-5.68,0Z"/><path d="M1896.88,219.52v12.64h-6.4V219.52h-2v-5.24h2V208.4h6.4v5.88h3.64v5.24Z"/><path d="M1921.87,224.4h-13.31a4.52,4.52,0,0,0,1.12,3,3.6,3.6,0,0,0,2.64.88,5,5,0,0,0,2.08-.48,3,3,0,0,0,1.12-1.2h6.11a8,8,0,0,1-2.16,3.68c-1.31,1.28-3.39,2.48-7.27,2.48a10.14,10.14,0,0,1-7.4-2.72,9.36,9.36,0,0,1-2.64-6.76,9.54,9.54,0,0,1,2.68-6.92,10.07,10.07,0,0,1,7.32-2.6,9.8,9.8,0,0,1,6.88,2.44,10,10,0,0,1,2.83,7.52Zm-5.87-3.68a4.39,4.39,0,0,0-1-1.92,3.73,3.73,0,0,0-2.64-1,3.44,3.44,0,0,0-2.6,1,3.65,3.65,0,0,0-1,1.92Z"/><path d="M1930.52,214.28l4.24,9.44,4.51-9.44h3.92l4.52,9.72,4.48-9.72h7.12L1950,232.16h-4.32l-4.48-9.84-4.27,9.84h-4.32l-9.2-17.88Z"/><path d="M1973.87,214.28h6.4v17.88h-6.4v-2a6.66,6.66,0,0,1-5.55,2.56,8.56,8.56,0,0,1-6.44-2.84,9,9,0,0,1-2.56-6.56,9.89,9.89,0,0,1,2.76-7.16,9.2,9.2,0,0,1,6.43-2.52,7.08,7.08,0,0,1,5.36,2.32Zm-6.71,6a4.18,4.18,0,0,0-1.28,2.92,4.12,4.12,0,0,0,1.24,2.92,4.47,4.47,0,0,0,2.88,1.2,4.08,4.08,0,0,0,2.87-1.24,3.88,3.88,0,0,0,1.2-2.88,4,4,0,0,0-1.24-2.92,4,4,0,0,0-5.67,0Z"/><path d="M1991.12,229.72l-8.64-15.44h7.44l4.75,9.16,4.64-9.16h7.32l-14.35,27h-7.16Z"/><path d="M1836.56,467.16a9.35,9.35,0,0,0,6.12,2.72,3.51,3.51,0,0,0,2.68-.92,2.39,2.39,0,0,0,.68-1.68,2.08,2.08,0,0,0-.76-1.6,9.61,9.61,0,0,0-3.44-1.4l-1.8-.56a8.71,8.71,0,0,1-3.84-2.16,6.71,6.71,0,0,1-1.52-4.72,8.72,8.72,0,0,1,2.44-6.44,9.41,9.41,0,0,1,6.84-2.52,18.74,18.74,0,0,1,8.24,2.16l-2.76,5.4a7,7,0,0,0-4.56-1.8,3.32,3.32,0,0,0-2.28.8,2,2,0,0,0-.68,1.44,1.78,1.78,0,0,0,.36,1.2,4.38,4.38,0,0,0,2.32,1.2l2.12.64a10.19,10.19,0,0,1,4.84,2.64,6.3,6.3,0,0,1,1.72,4.76,9,9,0,0,1-2.52,6.72c-2.28,2.28-5,2.72-7.88,2.72a14.26,14.26,0,0,1-5.24-.88,18.63,18.63,0,0,1-4-2.12Z"/><path d="M1862,457.28l4.24,9.44,4.52-9.44h3.92l4.52,9.72,4.47-9.72h7.12l-9.35,17.88h-4.32l-4.48-9.84-4.28,9.84H1864l-9.2-17.88Z"/><path d="M1896.2,446.24a3.6,3.6,0,1,1-3.6,3.6A3.59,3.59,0,0,1,1896.2,446.24Zm3.2,11v17.88H1893V457.28Z"/><path d="M1910.84,462.52v12.64h-6.4V462.52h-2v-5.24h2V451.4h6.4v5.88h3.64v5.24Z"/><path d="M1930.4,474.76a9.49,9.49,0,0,1-4.44,1,9.88,9.88,0,0,1-7-2.72,9.36,9.36,0,0,1-2.76-6.68,9.74,9.74,0,0,1,2.88-6.92,10.31,10.31,0,0,1,7.2-2.72,9.2,9.2,0,0,1,4.16,1v5.36a5.7,5.7,0,0,0-3.32-1.16,4.19,4.19,0,0,0-3.12,1.24,4.35,4.35,0,0,0-1.24,3.08,4.59,4.59,0,0,0,1.12,3,4.34,4.34,0,0,0,3.28,1.36,4.84,4.84,0,0,0,3.28-1.2Z"/><path d="M1934,446h6.4v13.52a7.64,7.64,0,0,1,2-1.76,8.17,8.17,0,0,1,9,1c1.6,1.6,1.68,3.28,1.68,5v11.36h-6.4v-9c0-1.32-.08-2.68-.79-3.48a2.57,2.57,0,0,0-2.05-.76,3.42,3.42,0,0,0-2.31.76,3.89,3.89,0,0,0-1.08,2.92v9.6H1934Z"/><path d="M1836.56,737.16a9.35,9.35,0,0,0,6.12,2.72,3.51,3.51,0,0,0,2.68-.92,2.39,2.39,0,0,0,.68-1.68,2.08,2.08,0,0,0-.76-1.6,9.61,9.61,0,0,0-3.44-1.4l-1.8-.56a8.71,8.71,0,0,1-3.84-2.16,6.71,6.71,0,0,1-1.52-4.72,8.72,8.72,0,0,1,2.44-6.44,9.41,9.41,0,0,1,6.84-2.52,18.74,18.74,0,0,1,8.24,2.16l-2.76,5.4a7,7,0,0,0-4.56-1.8,3.32,3.32,0,0,0-2.28.8,2,2,0,0,0-.68,1.44,1.78,1.78,0,0,0,.36,1.2,4.38,4.38,0,0,0,2.32,1.2l2.12.64a10.19,10.19,0,0,1,4.84,2.64,6.3,6.3,0,0,1,1.72,4.76,9,9,0,0,1-2.52,6.72c-2.28,2.28-5,2.72-7.88,2.72a14.26,14.26,0,0,1-5.24-.88,18.63,18.63,0,0,1-4-2.12Z"/><path d="M1876,737.4h-13.32a4.52,4.52,0,0,0,1.12,3,3.6,3.6,0,0,0,2.64.88,5,5,0,0,0,2.08-.48,3,3,0,0,0,1.12-1.2h6.12a8,8,0,0,1-2.16,3.68c-1.32,1.28-3.4,2.48-7.28,2.48a10.14,10.14,0,0,1-7.4-2.72,9.36,9.36,0,0,1-2.64-6.76,9.54,9.54,0,0,1,2.68-6.92,10.07,10.07,0,0,1,7.32-2.6,9.8,9.8,0,0,1,6.88,2.44,10,10,0,0,1,2.84,7.52Zm-5.88-3.68a4.29,4.29,0,0,0-1-1.92,3.73,3.73,0,0,0-2.64-1,3.44,3.44,0,0,0-2.6,1,3.65,3.65,0,0,0-1,1.92Z"/><path d="M1879.68,727.28h6.4v2.92a5.77,5.77,0,0,1,2.52-2.48,7,7,0,0,1,3.32-.72c.16,0,.44,0,1.28.08v6a5.65,5.65,0,0,0-2.76-.64,4.19,4.19,0,0,0-2.92,1,5.4,5.4,0,0,0-1.44,4.08v7.64h-6.4Z"/><path d="M1901,727.28l4.28,9.16,4.36-9.16h7.12l-9.32,17.88h-4.36l-9.24-17.88Z"/><path d="M1936.92,737.4H1923.6a4.52,4.52,0,0,0,1.12,3,3.6,3.6,0,0,0,2.64.88,5,5,0,0,0,2.08-.48,3,3,0,0,0,1.12-1.2h6.12a8,8,0,0,1-2.16,3.68c-1.32,1.28-3.4,2.48-7.28,2.48a10.14,10.14,0,0,1-7.4-2.72,9.36,9.36,0,0,1-2.64-6.76,9.54,9.54,0,0,1,2.68-6.92,10.07,10.07,0,0,1,7.32-2.6,9.8,9.8,0,0,1,6.88,2.44,10,10,0,0,1,2.84,7.52Zm-5.88-3.68a4.29,4.29,0,0,0-1-1.92,3.73,3.73,0,0,0-2.64-1,3.44,3.44,0,0,0-2.6,1,3.65,3.65,0,0,0-1,1.92Z"/><path d="M1940.6,727.28h6.4v2.92a5.77,5.77,0,0,1,2.52-2.48,7,7,0,0,1,3.32-.72c.16,0,.44,0,1.28.08v6a5.65,5.65,0,0,0-2.76-.64,4.19,4.19,0,0,0-2.92,1,5.4,5.4,0,0,0-1.44,4.08v7.64h-6.4Z"/><rect x="1632" y="166.91" width="150" height="56.01" rx="12" ry="12" style="fill:none;stroke:#3a5c84;stroke-miterlimit:10;stroke-width:5px"/><rect x="1649.5" y="223.5" width="18" height="10" rx="5" ry="5" style="fill:none;stroke:#3a5c84;stroke-miterlimit:10;stroke-width:5px"/><rect x="1752.5" y="223.5" width="18" height="10" rx="5" ry="5" style="fill:none;stroke:#3a5c84;stroke-miterlimit:10;stroke-width:5px"/><circle cx="1650.79" cy="207.64" r="5.32" style="fill:#3a5c84"/><circle cx="1666.05" cy="207.64" r="5.32" style="fill:#3a5c84"/><circle cx="1681.68" cy="207.66" r="5.32" style="fill:#3a5c84"/><rect x="1719.79" y="192.73" width="45.21" height="4.38" rx="0.82" ry="0.82" style="fill:none;stroke:#3a5c84;stroke-miterlimit:10;stroke-width:5px"/><path d="M1664.5,135.05V110.5a3.5,3.5,0,0,0-7,0v24.55A3,3,0,0,0,1655,138v26a3,3,0,0,0,3,3h6a3,3,0,0,0,3-3V138A3,3,0,0,0,1664.5,135.05Z" style="fill:none;stroke:#3a5c84;stroke-miterlimit:10;stroke-width:5px"/><path d="M1756.5,135.05V110.5a3.5,3.5,0,0,0-7,0v24.55A3,3,0,0,0,1747,138v26a3,3,0,0,0,3,3h6a3,3,0,0,0,3-3V138A3,3,0,0,0,1756.5,135.05Z" style="fill:none;stroke:#3a5c84;stroke-miterlimit:10;stroke-width:5px"/><rect x="1046" y="151.76" width="150" height="56.01" rx="12" ry="12" style="fill:none;stroke:#3a5c84;stroke-miterlimit:10;stroke-width:5px"/><rect x="1063.5" y="208.35" width="18" height="10" rx="5" ry="5" style="fill:none;stroke:#3a5c84;stroke-miterlimit:10;stroke-width:5px"/><rect x="1166.5" y="208.35" width="18" height="10" rx="5" ry="5" style="fill:none;stroke:#3a5c84;stroke-miterlimit:10;stroke-width:5px"/><circle cx="1064.79" cy="192.49" r="5.32" style="fill:#3a5c84"/><circle cx="1080.05" cy="192.49" r="5.32" style="fill:#3a5c84"/><circle cx="1095.68" cy="192.51" r="5.32" style="fill:#3a5c84"/><rect x="1133.79" y="177.59" width="45.21" height="4.38" rx="0.82" ry="0.82" style="fill:none;stroke:#3a5c84;stroke-miterlimit:10;stroke-width:5px"/><path d="M1078.5,119.9V95.35a3.5,3.5,0,1,0-7,0V119.9a3,3,0,0,0-2.5,2.95v26a3,3,0,0,0,3,3h6a3,3,0,0,0,3-3v-26A3,3,0,0,0,1078.5,119.9Z" style="fill:none;stroke:#3a5c84;stroke-miterlimit:10;stroke-width:5px"/><path d="M1170.5,119.9V95.35a3.5,3.5,0,1,0-7,0V119.9a3,3,0,0,0-2.5,2.95v26a3,3,0,0,0,3,3h6a3,3,0,0,0,3-3v-26A3,3,0,0,0,1170.5,119.9Z" style="fill:none;stroke:#3a5c84;stroke-miterlimit:10;stroke-width:5px"/><rect x="471.71" y="430.91" width="150" height="56.01" rx="12" ry="12" style="fill:none;stroke:#f7931f;stroke-miterlimit:10;stroke-width:5px"/><rect x="489.21" y="487.5" width="18" height="10" rx="5" ry="5" style="fill:none;stroke:#f7931f;stroke-miterlimit:10;stroke-width:5px"/><rect x="592.21" y="487.5" width="18" height="10" rx="5" ry="5" style="fill:none;stroke:#f7931f;stroke-miterlimit:10;stroke-width:5px"/><polygon points="1692.35 276 1692.35 367.14 1679.21 367.14 1707.13 395.05 1735.04 367.14 1721.9 367.14 1721.9 276 1692.35 276" style="fill:none;stroke:#3a5c84;stroke-miterlimit:10;stroke-width:5px"/><polygon points="1723.22 472.15 1690.76 472.07 1690.75 476.77 1680.78 466.76 1690.8 456.79 1690.79 461.26 1723.25 461.33 1723.26 456.63 1733.23 466.65 1723.21 476.62 1723.22 472.15" style="fill:none;stroke:#f7931f;stroke-miterlimit:10;stroke-width:3.21418609013491px"/><rect x="1632" y="438.91" width="150" height="56.01" rx="12" ry="12" style="fill:none;stroke:#f7931f;stroke-miterlimit:10;stroke-width:5px"/><rect x="1649.5" y="495.5" width="18" height="10" rx="5" ry="5" style="fill:none;stroke:#f7931f;stroke-miterlimit:10;stroke-width:5px"/><rect x="1752.5" y="495.5" width="18" height="10" rx="5" ry="5" style="fill:none;stroke:#f7931f;stroke-miterlimit:10;stroke-width:5px"/><rect x="1702.46" y="528.79" width="9" height="115.21" rx="4.5" ry="4.5" transform="translate(3413.92 1172.79) rotate(180)" style="fill:#f7931f"/><polygon points="1549.45 202.98 1585.69 202.98 1585.69 208.2 1596.8 197.1 1585.69 186 1585.69 191.22 1549.45 191.22 1549.45 202.98" style="fill:none;stroke:#3a5c84;stroke-miterlimit:10;stroke-width:1.67413130402565px"/><rect x="130" y="621" width="554" height="489" rx="12" ry="12" style="fill:none;stroke:#636868;stroke-miterlimit:10;stroke-width:4.4808099302512px"/><rect x="541.44" y="784" width="10.54" height="162.54" rx="4.5" ry="4.5" transform="translate(1093.43 1730.54) rotate(180)" style="fill:#91c54f"/></svg>