<svg id="Layer_1" data-name="Layer 1" xmlns="http://www.w3.org/2000/svg" viewBox="0 0 1378 888"><title>Capitolul11</title><rect x="308.13" y="654.4" width="148" height="89.21" rx="12" ry="12" style="fill:none;stroke:#91c54f;stroke-miterlimit:10;stroke-width:5px"/><rect x="358.3" y="743.1" width="47.64" height="16.22" rx="4.38" ry="4.38" style="fill:#91c54f"/><rect x="327.39" y="757.8" width="109.48" height="22.3" rx="6.03" ry="6.03" style="fill:none;stroke:#91c54f;stroke-miterlimit:10;stroke-width:5px"/><circle cx="339.55" cy="765.91" r="2.03" style="fill:#91c54f"/><circle cx="345.37" cy="765.91" r="2.03" style="fill:#91c54f"/><circle cx="339.55" cy="771.99" r="2.03" style="fill:#91c54f"/><circle cx="345.37" cy="771.99" r="2.03" style="fill:#91c54f"/><rect x="398.34" y="766.92" width="31.42" height="3.04" rx="0.82" ry="0.82" style="fill:none;stroke:#91c54f;stroke-miterlimit:10;stroke-width:5px"/><path d="M862.58,221.79C861.34,127.6,784.7,48.55,690.22,48.55,630,48.55,573.51,81.09,542.3,128a86.6,86.6,0,0,0-134.51,72.16c0,1.65.15,3.27.25,4.91-.11,2-.25,4-.25,5.92C364.61,231.67,332,280.88,332,331.75,332,402.29,389.71,460,460.25,460H725.6c1.5,0,2.95-.17,4.42-.23s2.94.23,4.43.23H840.59C906.26,460,960,406.26,960,340.59,960,282.44,917.84,232.2,862.58,221.79Z" style="fill:none;stroke:#7383bf;stroke-linecap:round;stroke-miterlimit:10;stroke-width:21.6551723480225px"/><path d="M862.58,221.79s-27.44-4.06-54.17,0" style="fill:none;stroke:#7383bf;stroke-linecap:round;stroke-miterlimit:10;stroke-width:21.6551723480225px"/><path d="M407.79,200.14a86.62,86.62,0,1,1,173.24,0" style="fill:none;stroke:#7383bf;stroke-linecap:round;stroke-miterlimit:10;stroke-width:21.6551723480225px"/><path d="M554.58,287.72v40H544.2v-40Z"/><path d="M562.08,300.92h9.6v3.36a10.11,10.11,0,0,1,8.52-4,10.85,10.85,0,0,1,7.92,2.88c2.28,2.28,2.52,4.56,2.52,7.5v17H581V314.18c0-1.56.06-3.9-1.2-5.22a4,4,0,0,0-3.06-1.14,5.25,5.25,0,0,0-3.54,1.26,6.17,6.17,0,0,0-1.56,4.26v14.4h-9.6Z"/><path d="M607.8,308.78v19h-9.6v-19h-3.06v-7.86h3.06V292.1h9.6v8.82h5.46v7.86Z"/><path d="M645.3,316.1h-20a6.77,6.77,0,0,0,1.68,4.5,5.39,5.39,0,0,0,4,1.32,7.57,7.57,0,0,0,3.12-.72,4.47,4.47,0,0,0,1.68-1.8h9.18a12.06,12.06,0,0,1-3.24,5.52c-2,1.92-5.1,3.72-10.92,3.72-3.54,0-7.8-.78-11.1-4.08a14,14,0,0,1-4-10.14,14.31,14.31,0,0,1,4-10.38c2.22-2.16,5.7-3.9,11-3.9A14.69,14.69,0,0,1,641,303.8c3.78,3.6,4.26,8.28,4.26,11.28Zm-8.82-5.52a6.44,6.44,0,0,0-1.56-2.88,5.59,5.59,0,0,0-4-1.44,5.16,5.16,0,0,0-3.9,1.44,5.47,5.47,0,0,0-1.44,2.88Z"/><path d="M650.82,300.92h9.6v4.38a8.65,8.65,0,0,1,3.78-3.72,10.47,10.47,0,0,1,5-1.08c.24,0,.66.06,1.92.12v9.06a8.47,8.47,0,0,0-4.14-1,6.29,6.29,0,0,0-4.38,1.44c-2,1.86-2.16,4.68-2.16,6.12v11.46h-9.6Z"/><path d="M675.36,300.92H685v3.36a10.11,10.11,0,0,1,8.52-4,10.85,10.85,0,0,1,7.92,2.88c2.28,2.28,2.52,4.56,2.52,7.5v17h-9.6V314.18c0-1.56.06-3.9-1.2-5.22a4,4,0,0,0-3.06-1.14,5.25,5.25,0,0,0-3.54,1.26,6.17,6.17,0,0,0-1.56,4.26v14.4h-9.6Z"/><path d="M738.9,316.1h-20a6.77,6.77,0,0,0,1.68,4.5,5.39,5.39,0,0,0,4,1.32,7.57,7.57,0,0,0,3.12-.72,4.47,4.47,0,0,0,1.68-1.8h9.18a12.06,12.06,0,0,1-3.24,5.52c-2,1.92-5.1,3.72-10.92,3.72-3.54,0-7.8-.78-11.1-4.08a14,14,0,0,1-4-10.14,14.31,14.31,0,0,1,4-10.38c2.22-2.16,5.7-3.9,11-3.9a14.69,14.69,0,0,1,10.32,3.66c3.78,3.6,4.26,8.28,4.26,11.28Zm-8.82-5.52a6.44,6.44,0,0,0-1.56-2.88,5.59,5.59,0,0,0-4-1.44,5.16,5.16,0,0,0-3.9,1.44,5.47,5.47,0,0,0-1.44,2.88Z"/><path d="M755,308.78v19h-9.6v-19h-3.06v-7.86h3.06V292.1H755v8.82h5.46v7.86Z"/><rect x="1052.73" y="695.8" width="136.4" height="39.71" rx="5.72" ry="5.72" style="fill:none;stroke:#f7931f;stroke-miterlimit:10;stroke-width:5px"/><circle cx="1076.04" cy="715.66" r="9.21" style="fill:none;stroke:#f7931f;stroke-miterlimit:10;stroke-width:5px"/><circle cx="1139.63" cy="715.95" r="2.88" style="fill:none;stroke:#f7931f;stroke-miterlimit:10;stroke-width:5px"/><circle cx="1149.41" cy="715.95" r="2.88" style="fill:none;stroke:#f7931f;stroke-miterlimit:10;stroke-width:5px"/><circle cx="1159.77" cy="715.95" r="2.88" style="fill:none;stroke:#f7931f;stroke-miterlimit:10;stroke-width:5px"/><circle cx="1170.13" cy="715.95" r="2.88" style="fill:none;stroke:#f7931f;stroke-miterlimit:10;stroke-width:5px"/><rect x="1052.73" y="736.03" width="136.4" height="39.71" rx="5.72" ry="5.72" style="fill:none;stroke:#f7931f;stroke-miterlimit:10;stroke-width:5px"/><circle cx="1076.04" cy="755.88" r="9.21" style="fill:none;stroke:#f7931f;stroke-miterlimit:10;stroke-width:5px"/><circle cx="1139.63" cy="756.17" r="2.88" style="fill:none;stroke:#f7931f;stroke-miterlimit:10;stroke-width:5px"/><circle cx="1149.41" cy="756.17" r="2.88" style="fill:none;stroke:#f7931f;stroke-miterlimit:10;stroke-width:5px"/><circle cx="1159.77" cy="756.17" r="2.88" style="fill:none;stroke:#f7931f;stroke-miterlimit:10;stroke-width:5px"/><circle cx="1170.13" cy="756.17" r="2.88" style="fill:none;stroke:#f7931f;stroke-miterlimit:10;stroke-width:5px"/><rect x="1052.73" y="656.09" width="136.4" height="39.71" rx="5.72" ry="5.72" style="fill:none;stroke:#f7931f;stroke-miterlimit:10;stroke-width:5px"/><circle cx="1076.04" cy="675.95" r="9.21" style="fill:none;stroke:#f7931f;stroke-miterlimit:10;stroke-width:5px"/><circle cx="1139.63" cy="676.24" r="2.88" style="fill:none;stroke:#f7931f;stroke-miterlimit:10;stroke-width:5px"/><circle cx="1149.41" cy="676.24" r="2.88" style="fill:none;stroke:#f7931f;stroke-miterlimit:10;stroke-width:5px"/><circle cx="1159.77" cy="676.24" r="2.88" style="fill:none;stroke:#f7931f;stroke-miterlimit:10;stroke-width:5px"/><circle cx="1170.13" cy="676.24" r="2.88" style="fill:none;stroke:#f7931f;stroke-miterlimit:10;stroke-width:5px"/><rect x="460.5" y="474" width="9.5" height="165" rx="4.5" ry="4.5" transform="translate(340.58 -158.07) rotate(30)" style="fill:#91c54f"/><rect x="238.5" y="378" width="9.5" height="165" rx="4.5" ry="4.5" transform="translate(424.55 -27.72) rotate(48.22)" style="fill:#c13018"/><rect x="735.5" y="481" width="9.5" height="165" rx="4.5" ry="4.5" transform="translate(-67.29 101.57) rotate(-7.51)" style="fill:#3a5c84"/><rect x="1056.5" y="364" width="9.5" height="165" rx="4.5" ry="4.5" transform="translate(1865.23 -377.65) rotate(111.47)" style="fill:#666"/><rect x="973.46" y="460.79" width="9" height="201.75" rx="4.5" ry="4.5" transform="translate(2092.07 386.65) rotate(141.2)" style="fill:#f7931f"/><path d="M779,668.69H726a8.05,8.05,0,0,0-8,8V779.65a8.06,8.06,0,0,0,8,8H779a8.05,8.05,0,0,0,8-8V676.73A8.05,8.05,0,0,0,779,668.69Zm-35,5.79h17a1,1,0,0,1,0,1.95H744a1,1,0,0,1,0-1.95Zm8.49,109.19a4,4,0,1,1,4-4A4,4,0,0,1,752.5,783.67Zm29-10.86H723.53V681.44h57.94Z" style="fill:#3a5c84"/><rect x="740" y="671.69" width="26" height="7" style="fill:#3a5c84"/><rect x="747" y="773.69" width="12" height="11" style="fill:#3a5c84"/><g id="Layer_8" data-name="Layer 8"><path d="M1319.22,433.79H1167.16a3.77,3.77,0,0,0-3.77,3.77V542.49a3.77,3.77,0,0,0,3.77,3.77h57.18v9c0,.14,0,.26,0,.39h-8.21a3.46,3.46,0,0,0,0,6.91h55.93a3.46,3.46,0,0,0,0-6.91h-8.21c0-.13,0-.25,0-.39v-9h55.3a3.77,3.77,0,0,0,3.77-3.77V437.56A3.77,3.77,0,0,0,1319.22,433.79Zm-6.91,92.26a3.77,3.77,0,0,1-3.77,3.77h-130.7a3.77,3.77,0,0,1-3.77-3.77V446.48a3.77,3.77,0,0,1,3.77-3.77h130.7a3.77,3.77,0,0,1,3.77,3.77v79.57Z" style="fill:#666"/></g><path d="M133.32,509.37H97.53a5.38,5.38,0,0,0-5.37,5.37v46.52a5.38,5.38,0,0,0,5.37,5.37h35.79a5.37,5.37,0,0,0,5.36-5.37V514.74A5.37,5.37,0,0,0,133.32,509.37ZM97.53,513h35.79a1.79,1.79,0,0,1,1.79,1.79v37.58h-6.06l-4.87-9.75a1.72,1.72,0,0,0-1.68-1,1.81,1.81,0,0,0-1.59,1.12L118.82,548l-1.8-3.59a1.79,1.79,0,0,0-3.32.31L111.61,552l-3.46-9.24a1.8,1.8,0,0,0-3.38.06l-3.17,9.52H95.74V514.74A1.79,1.79,0,0,1,97.53,513Zm35.79,50.1H97.53a1.79,1.79,0,0,1-1.79-1.79v-5.37h7.15a1.78,1.78,0,0,0,1.7-1.22l2-5.94,3.6,9.58a1.78,1.78,0,0,0,1.67,1.16h.07a1.77,1.77,0,0,0,1.65-1.3l2.32-8.1,1.52,3a1.73,1.73,0,0,0,1.68,1,1.79,1.79,0,0,0,1.58-1.12l2.1-5.25,3.59,7.18a1.79,1.79,0,0,0,1.6,1h7.16v5.37a1.79,1.79,0,0,1-1.79,1.79Z" style="fill:#c13018"/><path d="M147.63,529.05a5.38,5.38,0,0,0,5.37-5.37v-3.57a5.38,5.38,0,0,0-5.37-5.37h-1.79a12.55,12.55,0,0,0-10.73-12.39v-18a1.79,1.79,0,0,0-1.79-1.79H97.53a1.79,1.79,0,0,0-1.79,1.79v18A12.55,12.55,0,0,0,85,514.74v46.52a12.55,12.55,0,0,0,10.74,12.39v18a1.79,1.79,0,0,0,1.79,1.79h35.79a1.79,1.79,0,0,0,1.79-1.79v-18a12.55,12.55,0,0,0,10.73-12.39h1.79a5.38,5.38,0,0,0,5.37-5.37v-3.57a5.38,5.38,0,0,0-5.37-5.37h-1.79v-17.9Zm0-10.73a1.79,1.79,0,0,1,1.79,1.79v3.57a1.79,1.79,0,0,1-1.79,1.79h-1.79v-7.15Zm-16.1-32.21v16.1H99.32v-16.1ZM99.32,589.89v-16.1h32.21v16.1Zm42.94-28.63a9,9,0,0,1-8.94,9H97.53a9,9,0,0,1-9-9V514.74a9,9,0,0,1,9-8.95h35.79a9,9,0,0,1,8.94,8.95Zm5.37-10.73a1.79,1.79,0,0,1,1.79,1.79v3.57a1.79,1.79,0,0,1-1.79,1.79h-1.79v-7.15Z" style="fill:#c13018"/><path d="M348.85,817.23a5.84,5.84,0,0,0,3.82,1.7,2.21,2.21,0,0,0,1.68-.58,1.48,1.48,0,0,0,.42-1.05,1.3,1.3,0,0,0-.47-1,6.1,6.1,0,0,0-2.15-.87l-1.13-.35a5.52,5.52,0,0,1-2.4-1.35,4.2,4.2,0,0,1-.95-3,5.45,5.45,0,0,1,1.53-4,5.87,5.87,0,0,1,4.27-1.57,11.63,11.63,0,0,1,5.15,1.35l-1.72,3.37a4.42,4.42,0,0,0-2.85-1.12,2.09,2.09,0,0,0-1.43.5,1.22,1.22,0,0,0-.42.9,1.15,1.15,0,0,0,.22.75,2.79,2.79,0,0,0,1.45.75l1.33.4a6.29,6.29,0,0,1,3,1.65,3.93,3.93,0,0,1,1.08,3,5.65,5.65,0,0,1-1.58,4.2,6.47,6.47,0,0,1-4.92,1.7,9,9,0,0,1-3.28-.55,11.64,11.64,0,0,1-2.52-1.33Z"/><path d="M366.07,814.33v7.89h-4v-7.89H360.8v-3.28h1.28v-3.67h4v3.67h2.28v3.28Z"/><path d="M378.5,811.05h4v11.17h-4V821a4.2,4.2,0,0,1-3.48,1.6,5.35,5.35,0,0,1-4-1.77,5.64,5.64,0,0,1-1.6-4.1,6.19,6.19,0,0,1,1.72-4.48,5.76,5.76,0,0,1,4-1.57,4.41,4.41,0,0,1,3.35,1.45Zm-4.2,3.75a2.63,2.63,0,0,0-.8,1.83,2.55,2.55,0,0,0,.77,1.82,2.83,2.83,0,0,0,1.8.75,2.56,2.56,0,0,0,1.8-.77,2.43,2.43,0,0,0,.75-1.8,2.49,2.49,0,0,0-.77-1.83,2.57,2.57,0,0,0-1.8-.72A2.54,2.54,0,0,0,374.3,814.8Z"/><path d="M389.67,814.33v7.89h-4v-7.89H384.4v-3.28h1.27v-3.67h4v3.67H392v3.28Zm-3.85,9.14,3.75.4-2.55,4.6-2.5-.3Z"/><path d="M395.45,804.15a2.25,2.25,0,1,1-2.25,2.25A2.24,2.24,0,0,1,395.45,804.15Zm2,6.9v11.17h-4V811.05Z"/><path d="M412,817.38H403.7a2.78,2.78,0,0,0,.7,1.87,2.25,2.25,0,0,0,1.65.55,3.07,3.07,0,0,0,1.3-.3,1.9,1.9,0,0,0,.7-.75h3.82a4.91,4.91,0,0,1-1.35,2.3A6.06,6.06,0,0,1,406,822.6a6.35,6.35,0,0,1-4.62-1.7,5.84,5.84,0,0,1-1.65-4.22,6,6,0,0,1,1.67-4.33,6.31,6.31,0,0,1,4.58-1.62,6.12,6.12,0,0,1,4.3,1.52A6.27,6.27,0,0,1,412,817Zm-3.67-2.3a2.66,2.66,0,0,0-.65-1.2,2.31,2.31,0,0,0-1.65-.6,2.14,2.14,0,0,0-1.63.6,2.36,2.36,0,0,0-.6,1.2Z"/><path d="M47.85,620.23a5.84,5.84,0,0,0,3.82,1.7,2.21,2.21,0,0,0,1.68-.58,1.48,1.48,0,0,0,.42-1.05,1.3,1.3,0,0,0-.47-1,6.1,6.1,0,0,0-2.15-.87L50,618.08a5.52,5.52,0,0,1-2.4-1.35,4.2,4.2,0,0,1-.95-3,5.45,5.45,0,0,1,1.53-4,5.87,5.87,0,0,1,4.27-1.57,11.63,11.63,0,0,1,5.15,1.35L55.9,612.9a4.42,4.42,0,0,0-2.85-1.12,2.09,2.09,0,0,0-1.43.5,1.22,1.22,0,0,0-.42.9,1.15,1.15,0,0,0,.22.75,2.79,2.79,0,0,0,1.45.75l1.33.4a6.29,6.29,0,0,1,3,1.65,3.93,3.93,0,0,1,1.08,3,5.65,5.65,0,0,1-1.58,4.2,6.47,6.47,0,0,1-4.92,1.7,9,9,0,0,1-3.28-.55A11.64,11.64,0,0,1,46,623.72Z"/><path d="M60.65,614.05h4v1.35A4.29,4.29,0,0,1,68,613.85a4.61,4.61,0,0,1,2.15.5A3.57,3.57,0,0,1,71.7,616a4,4,0,0,1,1.52-1.55,4.55,4.55,0,0,1,2.33-.55,4.46,4.46,0,0,1,3.1,1,4.09,4.09,0,0,1,1,3.07v7.27h-4V619.7a3.33,3.33,0,0,0-.58-2.4,1.44,1.44,0,0,0-1.05-.37,1.59,1.59,0,0,0-1.17.45,2.83,2.83,0,0,0-.73,2.12v5.72h-4V619.7a3.59,3.59,0,0,0-.52-2.4,1.57,1.57,0,0,0-1.2-.45,1.41,1.41,0,0,0-1.1.4,3.31,3.31,0,0,0-.7,2.45v5.52h-4Z"/><path d="M91.12,614.05h4v11.17h-4V624a4.17,4.17,0,0,1-3.47,1.6,5.37,5.37,0,0,1-4-1.77,5.68,5.68,0,0,1-1.6-4.1,6.2,6.2,0,0,1,1.73-4.48,5.74,5.74,0,0,1,4-1.57,4.4,4.4,0,0,1,3.35,1.45Zm-4.2,3.75a2.63,2.63,0,0,0-.8,1.83,2.56,2.56,0,0,0,.78,1.82,2.79,2.79,0,0,0,1.8.75,2.56,2.56,0,0,0,1.8-.77,2.43,2.43,0,0,0,.75-1.8,2.46,2.46,0,0,0-.78-1.83,2.55,2.55,0,0,0-3.55,0Z"/><path d="M97.88,614.05h4v1.83a3.61,3.61,0,0,1,1.58-1.55,4.28,4.28,0,0,1,2.07-.45l.8,0v3.77a3.52,3.52,0,0,0-1.72-.4,2.66,2.66,0,0,0-1.83.6,3.38,3.38,0,0,0-.9,2.55v4.77h-4Z"/><path d="M112.9,617.33v7.89h-4v-7.89h-1.28v-3.28h1.28v-3.67h4v3.67h2.27v3.28Z"/><path d="M120,614.05l2.65,5.9,2.83-5.9H128l2.82,6.08,2.8-6.08H138l-5.85,11.17h-2.7l-2.8-6.14L124,625.22h-2.7l-5.75-11.17Z"/><path d="M147.12,614.05h4v11.17h-4V624a4.17,4.17,0,0,1-3.47,1.6,5.37,5.37,0,0,1-4-1.77,5.68,5.68,0,0,1-1.6-4.1,6.2,6.2,0,0,1,1.73-4.48,5.74,5.74,0,0,1,4-1.57,4.4,4.4,0,0,1,3.35,1.45Zm-4.2,3.75a2.63,2.63,0,0,0-.8,1.83,2.56,2.56,0,0,0,.78,1.82,2.79,2.79,0,0,0,1.8.75,2.56,2.56,0,0,0,1.8-.77,2.43,2.43,0,0,0,.75-1.8,2.46,2.46,0,0,0-.78-1.83,2.55,2.55,0,0,0-3.55,0Z"/><path d="M158.3,617.33v7.89h-4v-7.89H153v-3.28h1.28v-3.67h4v3.67h2.27v3.28Z"/><path d="M170.52,625a5.87,5.87,0,0,1-2.77.63,6.18,6.18,0,0,1-4.4-1.7,5.83,5.83,0,0,1-1.73-4.17,6.12,6.12,0,0,1,1.8-4.33,6.45,6.45,0,0,1,4.5-1.7,5.75,5.75,0,0,1,2.6.63v3.35a3.51,3.51,0,0,0-2.07-.73,2.62,2.62,0,0,0-1.95.78,2.71,2.71,0,0,0-.78,1.92,2.91,2.91,0,0,0,.7,1.88,2.73,2.73,0,0,0,2.05.85,3,3,0,0,0,2.05-.75Z"/><path d="M172.8,607h4v8.45a5,5,0,0,1,1.25-1.1,5.1,5.1,0,0,1,5.59.65,3.9,3.9,0,0,1,1.05,3.13v7.09h-4v-5.64a3.33,3.33,0,0,0-.5-2.18,1.61,1.61,0,0,0-1.28-.47,2.14,2.14,0,0,0-1.45.47,2.45,2.45,0,0,0-.67,1.83v6h-4Z"/><path d="M697.36,822.22V805.55H703a9.32,9.32,0,0,1,6.62,2.3,8.15,8.15,0,0,1,2.32,6.08,7.69,7.69,0,0,1-2.17,5.77,9,9,0,0,1-6.4,2.52Zm4.33-3.67h.87a5,5,0,0,0,3.65-1.2,4.52,4.52,0,0,0,1.28-3.42,5,5,0,0,0-1.3-3.65,4.87,4.87,0,0,0-3.45-1h-1Z"/><path d="M716.36,804.15a2.25,2.25,0,1,1-2.25,2.25A2.24,2.24,0,0,1,716.36,804.15Zm2,6.9v11.17h-4V811.05Z"/><path d="M721.81,818.53a5.64,5.64,0,0,0,1.6.82,5.09,5.09,0,0,0,1.55.28,1.75,1.75,0,0,0,1-.3.67.67,0,0,0,.2-.53.61.61,0,0,0-.2-.5,2.56,2.56,0,0,0-1-.4l-1.05-.25a3.55,3.55,0,0,1-1.95-1,2.7,2.7,0,0,1-.73-1.93,4,4,0,0,1,1-2.72,5.62,5.62,0,0,1,4-1.35,9.26,9.26,0,0,1,3.57.72L728.49,814a5.56,5.56,0,0,0-2.1-.55,1.71,1.71,0,0,0-.93.23.6.6,0,0,0-.35.55.65.65,0,0,0,.48.62c.37.15.7.15,1.32.33l.73.2a4.89,4.89,0,0,1,1.65.87,3.22,3.22,0,0,1,.85,2.23A3.73,3.73,0,0,1,729,821.2a5.81,5.81,0,0,1-4.12,1.4,8.28,8.28,0,0,1-4.5-1.3Z"/><path d="M736.19,828h-4v-16.9h4v1.23a4.15,4.15,0,0,1,3.42-1.6,5.55,5.55,0,0,1,4,1.62,6.35,6.35,0,0,1-.1,8.75,5.37,5.37,0,0,1-3.82,1.55,4.75,4.75,0,0,1-3.47-1.45Zm.65-13.12a2.72,2.72,0,0,0-.78,1.85,2.66,2.66,0,0,0,.78,1.77,2.52,2.52,0,0,0,1.8.75,2.4,2.4,0,0,0,1.77-.75,2.65,2.65,0,0,0,.77-1.77,2.71,2.71,0,0,0-.77-1.85,2.4,2.4,0,0,0-1.77-.75A2.52,2.52,0,0,0,736.84,814.83Z"/><path d="M758.83,820.75a7.64,7.64,0,0,1-10,0,5.77,5.77,0,0,1,0-8.22,7.64,7.64,0,0,1,10,0,5.75,5.75,0,0,1,0,8.22Zm-6.77-6a2.49,2.49,0,0,0,0,3.6,2.51,2.51,0,0,0,3.58,0,2.44,2.44,0,0,0,.77-1.77,2.72,2.72,0,0,0-.77-1.83,2.59,2.59,0,0,0-3.58,0Z"/><path d="M768.69,819h4.67v3.27H762l5.27-7.89h-4.5v-3.28h11.15Z"/><path d="M777.79,804.15a2.25,2.25,0,1,1-2.25,2.25A2.24,2.24,0,0,1,777.79,804.15Zm2,6.9v11.17h-4V811.05Z"/><path d="M786.94,814.33v7.89h-4v-7.89h-1.28v-3.28h1.28v-3.67h4v3.67h2.27v3.28Z"/><path d="M792.71,804.15a2.25,2.25,0,1,1-2.25,2.25A2.24,2.24,0,0,1,792.71,804.15Zm2,6.9v11.17h-4V811.05Z"/><path d="M800.53,811.05l2.68,5.73,2.72-5.73h4.45l-5.82,11.17h-2.73l-5.77-11.17Z"/><path d="M721.4,841.05h4v1.35a4.29,4.29,0,0,1,3.35-1.55,4.61,4.61,0,0,1,2.15.5,3.57,3.57,0,0,1,1.55,1.6A4,4,0,0,1,734,841.4a4.55,4.55,0,0,1,2.33-.55,4.46,4.46,0,0,1,3.1,1,4.09,4.09,0,0,1,1.05,3.07v7.27h-4V846.7a3.33,3.33,0,0,0-.58-2.4,1.44,1.44,0,0,0-1-.37,1.59,1.59,0,0,0-1.17.45,2.83,2.83,0,0,0-.73,2.12v5.72h-4V846.7a3.59,3.59,0,0,0-.52-2.4,1.57,1.57,0,0,0-1.2-.45,1.41,1.41,0,0,0-1.1.4,3.31,3.31,0,0,0-.7,2.45v5.52h-4Z"/><path d="M754.47,850.75a7.64,7.64,0,0,1-10,0,5.75,5.75,0,0,1,0-8.22,7.64,7.64,0,0,1,10,0,5.75,5.75,0,0,1,0,8.22Zm-6.77-6a2.47,2.47,0,0,0,0,3.6,2.5,2.5,0,0,0,3.57,0,2.45,2.45,0,0,0,.78-1.77,2.73,2.73,0,0,0-.78-1.83,2.57,2.57,0,0,0-3.57,0Z"/><path d="M762.5,834v8.13a4.39,4.39,0,0,1,3.32-1.45,5.71,5.71,0,0,1,3.95,1.5,6.05,6.05,0,0,1,1.83,4.42,6.18,6.18,0,0,1-1.8,4.45,5.38,5.38,0,0,1-3.93,1.55,4.09,4.09,0,0,1-3.37-1.6v1.22h-4V834Zm4.22,14.45a2.49,2.49,0,0,0,.78-1.75,2.75,2.75,0,0,0-.78-1.9,2.57,2.57,0,0,0-3.6,0,2.9,2.9,0,0,0-.75,1.8,2.72,2.72,0,0,0,.85,1.9,2.78,2.78,0,0,0,1.73.67A2.48,2.48,0,0,0,766.72,848.45Z"/><path d="M775.9,834.15a2.25,2.25,0,1,1-2.25,2.25A2.24,2.24,0,0,1,775.9,834.15Zm2,6.9v11.17h-4V841.05Z"/><path d="M784.62,834v18.22h-4V834Z"/><path d="M1086.85,811.23a5.84,5.84,0,0,0,3.82,1.7,2.21,2.21,0,0,0,1.68-.58,1.48,1.48,0,0,0,.42-1.05,1.3,1.3,0,0,0-.47-1,6.1,6.1,0,0,0-2.15-.87l-1.13-.35a5.52,5.52,0,0,1-2.4-1.35,4.2,4.2,0,0,1-.95-3,5.45,5.45,0,0,1,1.53-4,5.87,5.87,0,0,1,4.27-1.57,11.63,11.63,0,0,1,5.15,1.35l-1.72,3.37a4.42,4.42,0,0,0-2.85-1.12,2.09,2.09,0,0,0-1.43.5,1.22,1.22,0,0,0-.42.9,1.15,1.15,0,0,0,.22.75,2.79,2.79,0,0,0,1.45.75l1.33.4a6.29,6.29,0,0,1,3,1.65,3.93,3.93,0,0,1,1.08,3,5.65,5.65,0,0,1-1.58,4.2,6.47,6.47,0,0,1-4.92,1.7,9,9,0,0,1-3.28-.55,11.64,11.64,0,0,1-2.52-1.33Z"/><path d="M1111.5,811.38h-8.33a2.83,2.83,0,0,0,.7,1.87,2.25,2.25,0,0,0,1.65.55,3.07,3.07,0,0,0,1.3-.3,1.83,1.83,0,0,0,.7-.75h3.83a5.09,5.09,0,0,1-1.35,2.3,6.09,6.09,0,0,1-4.55,1.55,6.33,6.33,0,0,1-4.62-1.7,5.84,5.84,0,0,1-1.66-4.22,6,6,0,0,1,1.68-4.33,6.27,6.27,0,0,1,4.57-1.62,6.11,6.11,0,0,1,4.3,1.52,6.24,6.24,0,0,1,1.78,4.7Zm-3.68-2.3a2.66,2.66,0,0,0-.65-1.2,2.3,2.3,0,0,0-1.65-.6,2.12,2.12,0,0,0-1.62.6,2.21,2.21,0,0,0-.6,1.2Z"/><path d="M1113.8,805.05h4v1.83a3.6,3.6,0,0,1,1.57-1.55,4.32,4.32,0,0,1,2.08-.45l.8,0v3.77a3.54,3.54,0,0,0-1.73-.4,2.63,2.63,0,0,0-1.82.6,3.38,3.38,0,0,0-.9,2.55v4.77h-4Z"/><path d="M1127.12,805.05l2.68,5.73,2.72-5.73H1137l-5.82,11.17h-2.73l-5.77-11.17Z"/><path d="M1149.57,811.38h-8.32a2.78,2.78,0,0,0,.7,1.87,2.25,2.25,0,0,0,1.65.55,3.07,3.07,0,0,0,1.3-.3,1.9,1.9,0,0,0,.7-.75h3.82a4.91,4.91,0,0,1-1.35,2.3,6.06,6.06,0,0,1-4.55,1.55,6.35,6.35,0,0,1-4.62-1.7,5.84,5.84,0,0,1-1.65-4.22,6,6,0,0,1,1.67-4.33,6.31,6.31,0,0,1,4.58-1.62,6.12,6.12,0,0,1,4.3,1.52,6.27,6.27,0,0,1,1.77,4.7Zm-3.67-2.3a2.66,2.66,0,0,0-.65-1.2,2.31,2.31,0,0,0-1.65-.6,2.14,2.14,0,0,0-1.63.6,2.36,2.36,0,0,0-.6,1.2Z"/><path d="M1151.87,805.05h4v1.83a3.61,3.61,0,0,1,1.58-1.55,4.28,4.28,0,0,1,2.07-.45l.8,0v3.77a3.52,3.52,0,0,0-1.72-.4,2.66,2.66,0,0,0-1.83.6,3.38,3.38,0,0,0-.9,2.55v4.77h-4Z"/><path d="M1195.85,593.23a5.84,5.84,0,0,0,3.82,1.7,2.21,2.21,0,0,0,1.68-.58,1.48,1.48,0,0,0,.42-1.05,1.3,1.3,0,0,0-.47-1,6.1,6.1,0,0,0-2.15-.87l-1.13-.35a5.52,5.52,0,0,1-2.4-1.35,4.2,4.2,0,0,1-.95-3,5.45,5.45,0,0,1,1.53-4,5.87,5.87,0,0,1,4.27-1.57,11.63,11.63,0,0,1,5.15,1.35l-1.72,3.37a4.42,4.42,0,0,0-2.85-1.12,2.09,2.09,0,0,0-1.43.5,1.22,1.22,0,0,0-.42.9,1.15,1.15,0,0,0,.22.75,2.79,2.79,0,0,0,1.45.75l1.33.4a6.29,6.29,0,0,1,3,1.65,3.93,3.93,0,0,1,1.08,3,5.65,5.65,0,0,1-1.58,4.2,6.47,6.47,0,0,1-4.92,1.7,9,9,0,0,1-3.28-.55,11.64,11.64,0,0,1-2.52-1.33Z"/><path d="M1208.65,587.05h4v1.35a4.29,4.29,0,0,1,3.35-1.55,4.61,4.61,0,0,1,2.15.5,3.57,3.57,0,0,1,1.55,1.6,4,4,0,0,1,1.52-1.55,4.55,4.55,0,0,1,2.33-.55,4.46,4.46,0,0,1,3.1,1,4.09,4.09,0,0,1,1,3.07v7.27h-4V592.7a3.33,3.33,0,0,0-.58-2.4,1.44,1.44,0,0,0-1-.37,1.59,1.59,0,0,0-1.17.45,2.83,2.83,0,0,0-.73,2.12v5.72h-4V592.7a3.59,3.59,0,0,0-.52-2.4,1.57,1.57,0,0,0-1.2-.45,1.41,1.41,0,0,0-1.1.4,3.31,3.31,0,0,0-.7,2.45v5.52h-4Z"/><path d="M1239.12,587.05h4v11.17h-4V597a4.17,4.17,0,0,1-3.47,1.6,5.37,5.37,0,0,1-4-1.77,5.68,5.68,0,0,1-1.6-4.1,6.2,6.2,0,0,1,1.73-4.48,5.74,5.74,0,0,1,4-1.57,4.4,4.4,0,0,1,3.35,1.45Zm-4.2,3.75a2.63,2.63,0,0,0-.8,1.83,2.56,2.56,0,0,0,.78,1.82,2.79,2.79,0,0,0,1.8.75,2.56,2.56,0,0,0,1.8-.77,2.43,2.43,0,0,0,.75-1.8,2.46,2.46,0,0,0-.78-1.83,2.55,2.55,0,0,0-3.55,0Z"/><path d="M1245.88,587.05h4v1.83a3.61,3.61,0,0,1,1.58-1.55,4.28,4.28,0,0,1,2.07-.45l.8,0v3.77a3.52,3.52,0,0,0-1.72-.4,2.66,2.66,0,0,0-1.83.6,3.38,3.38,0,0,0-.9,2.55v4.77h-4Z"/><path d="M1260.9,590.33v7.89h-4v-7.89h-1.28v-3.28h1.28v-3.67h4v3.67h2.27v3.28Z"/><path d="M1277.17,585.23v13h-4.32v-13h-3.55v-3.68h11.42v3.68Z"/><path d="M1285.62,581.55l4,10.15,4.05-10.15h4.7l-7.1,16.67h-3.37l-7-16.67Z"/><rect x="96" y="534" width="39" height="26" style="fill:#fff"/><rect x="95.75" y="551" width="2" height="7" style="fill:#fff"/><rect x="146.5" y="510" width="16" height="57" style="fill:#fff"/></svg>