<svg id="Layer_1" data-name="Layer 1" xmlns="http://www.w3.org/2000/svg" viewBox="0 0 2883 2010"><title>Capitolul11</title><rect x="491.13" y="335.4" width="148" height="89.21" rx="12" ry="12" style="fill:none;stroke:#91c54f;stroke-miterlimit:10;stroke-width:5px"/><rect x="541.3" y="424.1" width="47.64" height="16.22" rx="4.38" ry="4.38" style="fill:#91c54f"/><rect x="510.39" y="438.8" width="109.48" height="22.3" rx="6.03" ry="6.03" style="fill:none;stroke:#91c54f;stroke-miterlimit:10;stroke-width:5px"/><circle cx="522.55" cy="446.91" r="2.03" style="fill:#91c54f"/><circle cx="528.37" cy="446.91" r="2.03" style="fill:#91c54f"/><circle cx="522.55" cy="452.99" r="2.03" style="fill:#91c54f"/><circle cx="528.37" cy="452.99" r="2.03" style="fill:#91c54f"/><rect x="581.34" y="447.92" width="31.42" height="3.04" rx="0.82" ry="0.82" style="fill:none;stroke:#91c54f;stroke-miterlimit:10;stroke-width:5px"/><rect x="433.88" y="301.25" width="263" height="193" rx="12" ry="12" style="fill:none;stroke:#3a5c84;stroke-miterlimit:10;stroke-width:5px"/><rect x="655.5" y="670.5" width="263" height="193" rx="12" ry="12" style="fill:none;stroke:#3a5c84;stroke-miterlimit:10;stroke-width:5px"/><path d="M513.56,271.16a9.35,9.35,0,0,0,6.12,2.72,3.51,3.51,0,0,0,2.68-.92,2.39,2.39,0,0,0,.68-1.68,2.08,2.08,0,0,0-.76-1.6,9.61,9.61,0,0,0-3.44-1.4l-1.8-.56a8.71,8.71,0,0,1-3.84-2.16,6.71,6.71,0,0,1-1.52-4.72,8.72,8.72,0,0,1,2.44-6.44,9.41,9.41,0,0,1,6.84-2.52A18.74,18.74,0,0,1,529.2,254l-2.76,5.4a7,7,0,0,0-4.56-1.8,3.32,3.32,0,0,0-2.28.8,2,2,0,0,0-.68,1.44,1.78,1.78,0,0,0,.36,1.2,4.38,4.38,0,0,0,2.32,1.2l2.12.64a10.19,10.19,0,0,1,4.84,2.64,6.3,6.3,0,0,1,1.72,4.76,9,9,0,0,1-2.52,6.72c-2.28,2.28-5,2.72-7.88,2.72a14.26,14.26,0,0,1-5.24-.88,18.63,18.63,0,0,1-4-2.12Z"/><path d="M541.12,266.52v12.64h-6.4V266.52h-2v-5.24h2V255.4h6.4v5.88h3.64v5.24Z"/><path d="M561,261.28h6.4v17.88H561v-2a6.68,6.68,0,0,1-5.56,2.56,8.56,8.56,0,0,1-6.44-2.84,9,9,0,0,1-2.56-6.56,9.89,9.89,0,0,1,2.76-7.16,9.2,9.2,0,0,1,6.44-2.52A7.08,7.08,0,0,1,561,263Zm-6.72,6A4.18,4.18,0,0,0,553,270.2a4.12,4.12,0,0,0,1.24,2.92,4.49,4.49,0,0,0,2.88,1.2,4.1,4.1,0,0,0,2.88-1.24,3.88,3.88,0,0,0,1.2-2.88,4,4,0,0,0-1.24-2.92,4.06,4.06,0,0,0-5.68,0Z"/><path d="M578.88,266.52v12.64h-6.4V266.52h-2v-5.24h2V255.4h6.4v5.88h3.64v5.24Zm-6.16,14.64,6,.64-4.08,7.36-4-.48Z"/><path d="M588.12,250.24a3.6,3.6,0,1,1-3.6,3.6A3.59,3.59,0,0,1,588.12,250.24Zm3.2,11v17.88h-6.4V261.28Z"/><path d="M614.63,271.4H601.32a4.52,4.52,0,0,0,1.12,3,3.6,3.6,0,0,0,2.64.88,5,5,0,0,0,2.08-.48,3,3,0,0,0,1.12-1.2h6.11a8,8,0,0,1-2.16,3.68c-1.31,1.28-3.4,2.48-7.27,2.48a10.14,10.14,0,0,1-7.4-2.72,9.36,9.36,0,0,1-2.64-6.76,9.54,9.54,0,0,1,2.68-6.92,10.07,10.07,0,0,1,7.32-2.6,9.77,9.77,0,0,1,6.87,2.44,10,10,0,0,1,2.84,7.52Zm-5.88-3.68a4.2,4.2,0,0,0-1-1.92,3.69,3.69,0,0,0-2.63-1,3.44,3.44,0,0,0-2.6,1,3.65,3.65,0,0,0-1,1.92Z"/><path d="M467.56,1343.16a9.35,9.35,0,0,0,6.12,2.72,3.51,3.51,0,0,0,2.68-.92,2.39,2.39,0,0,0,.68-1.68,2.08,2.08,0,0,0-.76-1.6,9.61,9.61,0,0,0-3.44-1.4l-1.8-.56a8.71,8.71,0,0,1-3.84-2.16,6.71,6.71,0,0,1-1.52-4.72,8.72,8.72,0,0,1,2.44-6.44,9.41,9.41,0,0,1,6.84-2.52,18.74,18.74,0,0,1,8.24,2.16l-2.76,5.4a7,7,0,0,0-4.56-1.8,3.32,3.32,0,0,0-2.28.8,2,2,0,0,0-.68,1.44,1.78,1.78,0,0,0,.36,1.2,4.38,4.38,0,0,0,2.32,1.2l2.12.64a10.19,10.19,0,0,1,4.84,2.64,6.3,6.3,0,0,1,1.72,4.76,9,9,0,0,1-2.52,6.72c-2.28,2.28-5,2.72-7.88,2.72a14.26,14.26,0,0,1-5.24-.88,18.63,18.63,0,0,1-4-2.12Z"/><path d="M495.12,1338.52v12.64h-6.4v-12.64h-2v-5.24h2v-5.88h6.4v5.88h3.64v5.24Z"/><path d="M515,1333.28h6.4v17.88H515v-2a6.68,6.68,0,0,1-5.56,2.56,8.56,8.56,0,0,1-6.44-2.84,9,9,0,0,1-2.56-6.56,9.89,9.89,0,0,1,2.76-7.16,9.2,9.2,0,0,1,6.44-2.52A7.08,7.08,0,0,1,515,1335Zm-6.72,6a4.18,4.18,0,0,0-1.28,2.92,4.12,4.12,0,0,0,1.24,2.92,4.49,4.49,0,0,0,2.88,1.2,4.1,4.1,0,0,0,2.88-1.24,3.88,3.88,0,0,0,1.2-2.88,4,4,0,0,0-1.24-2.92,4.06,4.06,0,0,0-5.68,0Z"/><path d="M532.88,1338.52v12.64h-6.4v-12.64h-2v-5.24h2v-5.88h6.4v5.88h3.64v5.24Zm-6.16,14.64,6,.64-4.08,7.36-4-.48Z"/><path d="M542.12,1322.24a3.6,3.6,0,1,1-3.6,3.6A3.59,3.59,0,0,1,542.12,1322.24Zm3.2,11v17.88h-6.4v-17.88Z"/><path d="M568.63,1343.4H555.32a4.52,4.52,0,0,0,1.12,3,3.6,3.6,0,0,0,2.64.88,5,5,0,0,0,2.08-.48,3,3,0,0,0,1.12-1.2h6.11a8,8,0,0,1-2.16,3.68c-1.31,1.28-3.4,2.48-7.27,2.48a10.14,10.14,0,0,1-7.4-2.72,9.36,9.36,0,0,1-2.64-6.76,9.54,9.54,0,0,1,2.68-6.92,10.07,10.07,0,0,1,7.32-2.6,9.77,9.77,0,0,1,6.87,2.44,10,10,0,0,1,2.84,7.52Zm-5.88-3.68a4.2,4.2,0,0,0-1-1.92,3.69,3.69,0,0,0-2.63-1,3.44,3.44,0,0,0-2.6,1,3.65,3.65,0,0,0-1,1.92Z"/><path d="M959.56,271.16a9.35,9.35,0,0,0,6.12,2.72,3.51,3.51,0,0,0,2.68-.92,2.39,2.39,0,0,0,.68-1.68,2.08,2.08,0,0,0-.76-1.6,9.61,9.61,0,0,0-3.44-1.4l-1.8-.56a8.71,8.71,0,0,1-3.84-2.16,6.71,6.71,0,0,1-1.52-4.72,8.72,8.72,0,0,1,2.44-6.44,9.41,9.41,0,0,1,6.84-2.52A18.74,18.74,0,0,1,975.2,254l-2.76,5.4a7,7,0,0,0-4.56-1.8,3.32,3.32,0,0,0-2.28.8,2,2,0,0,0-.68,1.44,1.78,1.78,0,0,0,.36,1.2,4.38,4.38,0,0,0,2.32,1.2l2.12.64a10.19,10.19,0,0,1,4.84,2.64,6.3,6.3,0,0,1,1.72,4.76,9,9,0,0,1-2.52,6.72c-2.28,2.28-5,2.72-7.88,2.72a14.26,14.26,0,0,1-5.24-.88,18.63,18.63,0,0,1-4-2.12Z"/><path d="M987.12,266.52v12.64h-6.4V266.52h-2v-5.24h2V255.4h6.4v5.88h3.64v5.24Z"/><path d="M1007,261.28h6.4v17.88H1007v-2a6.68,6.68,0,0,1-5.56,2.56,8.56,8.56,0,0,1-6.44-2.84,9,9,0,0,1-2.56-6.56,9.89,9.89,0,0,1,2.76-7.16,9.2,9.2,0,0,1,6.44-2.52A7.08,7.08,0,0,1,1007,263Zm-6.72,6A4.18,4.18,0,0,0,999,270.2a4.12,4.12,0,0,0,1.24,2.92,4.49,4.49,0,0,0,2.88,1.2,4.1,4.1,0,0,0,2.88-1.24,3.88,3.88,0,0,0,1.2-2.88,4,4,0,0,0-1.24-2.92,4.06,4.06,0,0,0-5.68,0Z"/><path d="M1024.88,266.52v12.64h-6.4V266.52h-2v-5.24h2V255.4h6.4v5.88h3.64v5.24Zm-6.16,14.64,6,.64-4.08,7.36-4-.48Z"/><path d="M1034.12,250.24a3.6,3.6,0,1,1-3.6,3.6A3.59,3.59,0,0,1,1034.12,250.24Zm3.2,11v17.88h-6.4V261.28Z"/><path d="M1060.63,271.4h-13.31a4.52,4.52,0,0,0,1.12,3,3.6,3.6,0,0,0,2.64.88,5,5,0,0,0,2.08-.48,3,3,0,0,0,1.12-1.2h6.11a8,8,0,0,1-2.16,3.68c-1.31,1.28-3.4,2.48-7.27,2.48a10.14,10.14,0,0,1-7.4-2.72,9.36,9.36,0,0,1-2.64-6.76,9.54,9.54,0,0,1,2.68-6.92,10.07,10.07,0,0,1,7.32-2.6,9.77,9.77,0,0,1,6.87,2.44,10,10,0,0,1,2.84,7.52Zm-5.88-3.68a4.2,4.2,0,0,0-1-1.92,3.69,3.69,0,0,0-2.63-1,3.44,3.44,0,0,0-2.6,1,3.65,3.65,0,0,0-1,1.92Z"/><path d="M752.6,882.48a8.62,8.62,0,0,1,6.52,2.36,8.78,8.78,0,0,1,2.28,6,7.7,7.7,0,0,1-2.12,5.56,7.47,7.47,0,0,1-3.68,1.84L764,909.16h-8.6l-6.64-10.24v10.24H741.8V882.48Zm-3.88,12H750a5.2,5.2,0,0,0,3.36-1.08,3.32,3.32,0,0,0,.88-2.24,3.15,3.15,0,0,0-.92-2.24,4.7,4.7,0,0,0-3.32-1h-1.32Z"/><path d="M772.68,891.28v10a3.43,3.43,0,0,0,1,2.6,3.31,3.31,0,0,0,2.24.68,3,3,0,0,0,2.28-.76,3.32,3.32,0,0,0,.92-2.52v-10h6.4v11.16a6.14,6.14,0,0,1-1.72,4.8c-2.2,2.28-5.28,2.52-7.72,2.52-2.68,0-6-.28-8.08-2.56a6.43,6.43,0,0,1-1.68-4.76V891.28Z"/><path d="M797,896.52v12.64h-6.4V896.52h-2v-5.24h2V885.4H797v5.88h3.64v5.24Z"/><path d="M822,901.4H808.64a4.52,4.52,0,0,0,1.12,3,3.6,3.6,0,0,0,2.64.88,5,5,0,0,0,2.08-.48,3,3,0,0,0,1.12-1.2h6.11a7.91,7.91,0,0,1-2.15,3.68c-1.32,1.28-3.4,2.48-7.28,2.48a10.14,10.14,0,0,1-7.4-2.72,9.36,9.36,0,0,1-2.64-6.76,9.54,9.54,0,0,1,2.68-6.92,10.07,10.07,0,0,1,7.32-2.6,9.8,9.8,0,0,1,6.88,2.44,10,10,0,0,1,2.84,7.52Zm-5.88-3.68a4.29,4.29,0,0,0-1-1.92,3.73,3.73,0,0,0-2.64-1,3.44,3.44,0,0,0-2.6,1,3.65,3.65,0,0,0-1,1.92Z"/><path d="M825.64,891.28H832v2.92a5.77,5.77,0,0,1,2.52-2.48,7,7,0,0,1,3.32-.72c.16,0,.44,0,1.28.08v6a5.65,5.65,0,0,0-2.76-.64,4.19,4.19,0,0,0-2.92,1,5.4,5.4,0,0,0-1.44,4.08v7.64h-6.4Z"/><path d="M1027.6,1324.48a8.62,8.62,0,0,1,6.52,2.36,8.78,8.78,0,0,1,2.28,6,7.7,7.7,0,0,1-2.12,5.56,7.47,7.47,0,0,1-3.68,1.84l8.36,10.92h-8.6l-6.64-10.24v10.24h-6.92v-26.68Zm-3.88,12H1025a5.2,5.2,0,0,0,3.36-1.08,3.32,3.32,0,0,0,.88-2.24,3.15,3.15,0,0,0-.92-2.24,4.7,4.7,0,0,0-3.32-1h-1.32Z"/><path d="M1047.68,1333.28v10a3.43,3.43,0,0,0,1,2.6,3.31,3.31,0,0,0,2.24.68,3,3,0,0,0,2.28-.76,3.32,3.32,0,0,0,.92-2.52v-10h6.4v11.16a6.14,6.14,0,0,1-1.72,4.8c-2.2,2.28-5.28,2.52-7.72,2.52-2.68,0-6-.28-8.08-2.56a6.43,6.43,0,0,1-1.68-4.76v-11.16Z"/><path d="M1072,1338.52v12.64h-6.4v-12.64h-2v-5.24h2v-5.88h6.4v5.88h3.64v5.24Z"/><path d="M1097,1343.4h-13.32a4.52,4.52,0,0,0,1.12,3,3.6,3.6,0,0,0,2.64.88,5,5,0,0,0,2.08-.48,3,3,0,0,0,1.12-1.2h6.11a7.91,7.91,0,0,1-2.15,3.68c-1.32,1.28-3.4,2.48-7.28,2.48a10.14,10.14,0,0,1-7.4-2.72,9.36,9.36,0,0,1-2.64-6.76,9.54,9.54,0,0,1,2.68-6.92,10.07,10.07,0,0,1,7.32-2.6,9.8,9.8,0,0,1,6.88,2.44,10,10,0,0,1,2.84,7.52Zm-5.88-3.68a4.29,4.29,0,0,0-1-1.92,3.73,3.73,0,0,0-2.64-1,3.44,3.44,0,0,0-2.6,1,3.65,3.65,0,0,0-1,1.92Z"/><path d="M1100.64,1333.28h6.4v2.92a5.77,5.77,0,0,1,2.52-2.48,7,7,0,0,1,3.32-.72c.16,0,.44,0,1.28.08v6a5.65,5.65,0,0,0-2.76-.64,4.19,4.19,0,0,0-2.92,1,5.4,5.4,0,0,0-1.44,4.08v7.64h-6.4Z"/><rect x="2398.13" y="1241.4" width="148" height="89.21" rx="12" ry="12" style="fill:none;stroke:#91c54f;stroke-miterlimit:10;stroke-width:5px"/><rect x="2448.3" y="1330.1" width="47.64" height="16.22" rx="4.38" ry="4.38" style="fill:#91c54f"/><rect x="2417.39" y="1344.8" width="109.48" height="22.3" rx="6.03" ry="6.03" style="fill:none;stroke:#91c54f;stroke-miterlimit:10;stroke-width:5px"/><circle cx="2429.55" cy="1352.91" r="2.03" style="fill:#91c54f"/><circle cx="2435.37" cy="1352.91" r="2.03" style="fill:#91c54f"/><circle cx="2429.55" cy="1358.99" r="2.03" style="fill:#91c54f"/><circle cx="2435.37" cy="1358.99" r="2.03" style="fill:#91c54f"/><rect x="2488.34" y="1353.92" width="31.42" height="3.04" rx="0.82" ry="0.82" style="fill:none;stroke:#91c54f;stroke-miterlimit:10;stroke-width:5px"/><rect x="2340.88" y="1207.25" width="263" height="193" rx="12" ry="12" style="fill:none;stroke:#3a5c84;stroke-miterlimit:10;stroke-width:5px"/><rect x="2406.13" y="1640.4" width="148" height="89.21" rx="12" ry="12" style="fill:none;stroke:#91c54f;stroke-miterlimit:10;stroke-width:5px"/><rect x="2456.3" y="1729.1" width="47.64" height="16.22" rx="4.38" ry="4.38" style="fill:#91c54f"/><rect x="2425.39" y="1743.8" width="109.48" height="22.3" rx="6.03" ry="6.03" style="fill:none;stroke:#91c54f;stroke-miterlimit:10;stroke-width:5px"/><circle cx="2437.55" cy="1751.91" r="2.03" style="fill:#91c54f"/><circle cx="2443.37" cy="1751.91" r="2.03" style="fill:#91c54f"/><circle cx="2437.55" cy="1757.99" r="2.03" style="fill:#91c54f"/><circle cx="2443.37" cy="1757.99" r="2.03" style="fill:#91c54f"/><rect x="2496.34" y="1752.92" width="31.42" height="3.04" rx="0.82" ry="0.82" style="fill:none;stroke:#91c54f;stroke-miterlimit:10;stroke-width:5px"/><rect x="2348.88" y="1606.25" width="263" height="193" rx="12" ry="12" style="fill:none;stroke:#3a5c84;stroke-miterlimit:10;stroke-width:5px"/><rect x="937.13" y="335.4" width="148" height="89.21" rx="12" ry="12" style="fill:none;stroke:#91c54f;stroke-miterlimit:10;stroke-width:5px"/><rect x="987.3" y="424.1" width="47.64" height="16.22" rx="4.38" ry="4.38" style="fill:#91c54f"/><rect x="956.39" y="438.8" width="109.48" height="22.3" rx="6.03" ry="6.03" style="fill:none;stroke:#91c54f;stroke-miterlimit:10;stroke-width:5px"/><circle cx="968.55" cy="446.91" r="2.03" style="fill:#91c54f"/><circle cx="974.37" cy="446.91" r="2.03" style="fill:#91c54f"/><circle cx="968.55" cy="452.99" r="2.03" style="fill:#91c54f"/><circle cx="974.37" cy="452.99" r="2.03" style="fill:#91c54f"/><rect x="1027.34" y="447.92" width="31.42" height="3.04" rx="0.82" ry="0.82" style="fill:none;stroke:#91c54f;stroke-miterlimit:10;stroke-width:5px"/><rect x="879.88" y="301.25" width="263" height="193" rx="12" ry="12" style="fill:none;stroke:#3a5c84;stroke-miterlimit:10;stroke-width:5px"/><rect x="2336.13" y="360.4" width="148" height="89.21" rx="12" ry="12" style="fill:none;stroke:#91c54f;stroke-miterlimit:10;stroke-width:5px"/><rect x="2386.3" y="449.1" width="47.64" height="16.22" rx="4.38" ry="4.38" style="fill:#91c54f"/><rect x="2355.39" y="463.8" width="109.48" height="22.3" rx="6.03" ry="6.03" style="fill:none;stroke:#91c54f;stroke-miterlimit:10;stroke-width:5px"/><circle cx="2367.55" cy="471.91" r="2.03" style="fill:#91c54f"/><circle cx="2373.37" cy="471.91" r="2.03" style="fill:#91c54f"/><circle cx="2367.55" cy="477.99" r="2.03" style="fill:#91c54f"/><circle cx="2373.37" cy="477.99" r="2.03" style="fill:#91c54f"/><rect x="2426.34" y="472.92" width="31.42" height="3.04" rx="0.82" ry="0.82" style="fill:none;stroke:#91c54f;stroke-miterlimit:10;stroke-width:5px"/><rect x="2278.88" y="326.25" width="263" height="193" rx="12" ry="12" style="fill:none;stroke:#3a5c84;stroke-miterlimit:10;stroke-width:5px"/><rect x="1936.5" y="326.5" width="263" height="193" rx="12" ry="12" style="fill:none;stroke:#3a5c84;stroke-miterlimit:10;stroke-width:5px"/><path d="M357.53,1234.07h6.14v6.13h-6.14Z"/><rect x="1999.73" y="405.8" width="136.4" height="39.71" rx="5.72" ry="5.72" style="fill:none;stroke:#f7931f;stroke-miterlimit:10;stroke-width:5px"/><circle cx="2023.04" cy="425.66" r="9.21" style="fill:none;stroke:#f7931f;stroke-miterlimit:10;stroke-width:5px"/><circle cx="2086.63" cy="425.95" r="2.88" style="fill:none;stroke:#f7931f;stroke-miterlimit:10;stroke-width:5px"/><circle cx="2096.41" cy="425.95" r="2.88" style="fill:none;stroke:#f7931f;stroke-miterlimit:10;stroke-width:5px"/><circle cx="2106.77" cy="425.95" r="2.88" style="fill:none;stroke:#f7931f;stroke-miterlimit:10;stroke-width:5px"/><circle cx="2117.13" cy="425.95" r="2.88" style="fill:none;stroke:#f7931f;stroke-miterlimit:10;stroke-width:5px"/><rect x="1999.73" y="446.03" width="136.4" height="39.71" rx="5.72" ry="5.72" style="fill:none;stroke:#f7931f;stroke-miterlimit:10;stroke-width:5px"/><circle cx="2023.04" cy="465.88" r="9.21" style="fill:none;stroke:#f7931f;stroke-miterlimit:10;stroke-width:5px"/><circle cx="2086.63" cy="466.17" r="2.88" style="fill:none;stroke:#f7931f;stroke-miterlimit:10;stroke-width:5px"/><circle cx="2096.41" cy="466.17" r="2.88" style="fill:none;stroke:#f7931f;stroke-miterlimit:10;stroke-width:5px"/><circle cx="2106.77" cy="466.17" r="2.88" style="fill:none;stroke:#f7931f;stroke-miterlimit:10;stroke-width:5px"/><circle cx="2117.13" cy="466.17" r="2.88" style="fill:none;stroke:#f7931f;stroke-miterlimit:10;stroke-width:5px"/><rect x="1999.73" y="366.09" width="136.4" height="39.71" rx="5.72" ry="5.72" style="fill:none;stroke:#f7931f;stroke-miterlimit:10;stroke-width:5px"/><circle cx="2023.04" cy="385.95" r="9.21" style="fill:none;stroke:#f7931f;stroke-miterlimit:10;stroke-width:5px"/><circle cx="2086.63" cy="386.24" r="2.88" style="fill:none;stroke:#f7931f;stroke-miterlimit:10;stroke-width:5px"/><circle cx="2096.41" cy="386.24" r="2.88" style="fill:none;stroke:#f7931f;stroke-miterlimit:10;stroke-width:5px"/><circle cx="2106.77" cy="386.24" r="2.88" style="fill:none;stroke:#f7931f;stroke-miterlimit:10;stroke-width:5px"/><circle cx="2117.13" cy="386.24" r="2.88" style="fill:none;stroke:#f7931f;stroke-miterlimit:10;stroke-width:5px"/><rect x="1968.5" y="1423.5" width="263" height="193" rx="12" ry="12" style="fill:none;stroke:#3a5c84;stroke-miterlimit:10;stroke-width:5px"/><rect x="712" y="763.91" width="150" height="56.01" rx="12" ry="12" style="fill:none;stroke:#c13018;stroke-miterlimit:10;stroke-width:5px"/><rect x="729.5" y="820.5" width="18" height="10" rx="5" ry="5" style="fill:none;stroke:#c13018;stroke-miterlimit:10;stroke-width:5px"/><rect x="832.5" y="820.5" width="18" height="10" rx="5" ry="5" style="fill:none;stroke:#c13018;stroke-miterlimit:10;stroke-width:5px"/><circle cx="730.79" cy="804.64" r="5.32" style="fill:#c13018"/><circle cx="746.05" cy="804.64" r="5.32" style="fill:#c13018"/><circle cx="761.68" cy="804.66" r="5.32" style="fill:#c13018"/><rect x="799.79" y="789.73" width="45.21" height="4.38" rx="0.82" ry="0.82" style="fill:none;stroke:#c13018;stroke-miterlimit:10;stroke-width:5px"/><path d="M744.5,732.05V707.5a3.5,3.5,0,0,0-7,0v24.55a3,3,0,0,0-2.5,3v26a3,3,0,0,0,3,3h6a3,3,0,0,0,3-3V735A3,3,0,0,0,744.5,732.05Z" style="fill:none;stroke:#c13018;stroke-miterlimit:10;stroke-width:5px"/><path d="M836.5,732.05V707.5a3.5,3.5,0,0,0-7,0v24.55a3,3,0,0,0-2.5,3v26a3,3,0,0,0,3,3h6a3,3,0,0,0,3-3V735A3,3,0,0,0,836.5,732.05Z" style="fill:none;stroke:#c13018;stroke-miterlimit:10;stroke-width:5px"/><rect x="565" y="515.79" width="9.46" height="278.21" rx="4.5" ry="4.5" transform="translate(1139.46 1309.79) rotate(180)" style="fill:#3a5c84"/><rect x="595.71" y="753.93" width="9.99" height="70.16" rx="4.5" ry="4.5" transform="translate(-188.3 1389.71) rotate(-90)" style="fill:#3a5c84"/><rect x="999.32" y="501.79" width="9.46" height="278.21" rx="4.5" ry="4.5" style="fill:#3a5c84"/><rect x="968.08" y="739.93" width="9.99" height="70.16" rx="4.5" ry="4.5" transform="translate(198.07 1748.08) rotate(-90)" style="fill:#3a5c84"/><rect x="438.13" y="1407.4" width="148" height="89.21" rx="12" ry="12" style="fill:none;stroke:#91c54f;stroke-miterlimit:10;stroke-width:5px"/><rect x="488.3" y="1496.1" width="47.64" height="16.22" rx="4.38" ry="4.38" style="fill:#91c54f"/><rect x="457.39" y="1510.8" width="109.48" height="22.3" rx="6.03" ry="6.03" style="fill:none;stroke:#91c54f;stroke-miterlimit:10;stroke-width:5px"/><circle cx="469.55" cy="1518.91" r="2.03" style="fill:#91c54f"/><circle cx="475.37" cy="1518.91" r="2.03" style="fill:#91c54f"/><circle cx="469.55" cy="1524.99" r="2.03" style="fill:#91c54f"/><circle cx="475.37" cy="1524.99" r="2.03" style="fill:#91c54f"/><rect x="528.34" y="1519.92" width="31.42" height="3.04" rx="0.82" ry="0.82" style="fill:none;stroke:#91c54f;stroke-miterlimit:10;stroke-width:5px"/><rect x="380.88" y="1373.25" width="263" height="193" rx="12" ry="12" style="fill:none;stroke:#3a5c84;stroke-miterlimit:10;stroke-width:5px"/><rect x="941.5" y="1373.5" width="263" height="193" rx="12" ry="12" style="fill:none;stroke:#3a5c84;stroke-miterlimit:10;stroke-width:5px"/><rect x="998" y="1466.91" width="150" height="56.01" rx="12" ry="12" style="fill:none;stroke:#c13018;stroke-miterlimit:10;stroke-width:5px"/><rect x="1015.5" y="1523.5" width="18" height="10" rx="5" ry="5" style="fill:none;stroke:#c13018;stroke-miterlimit:10;stroke-width:5px"/><rect x="1118.5" y="1523.5" width="18" height="10" rx="5" ry="5" style="fill:none;stroke:#c13018;stroke-miterlimit:10;stroke-width:5px"/><circle cx="1016.79" cy="1507.64" r="5.32" style="fill:#c13018"/><circle cx="1032.05" cy="1507.64" r="5.32" style="fill:#c13018"/><circle cx="1047.68" cy="1507.66" r="5.32" style="fill:#c13018"/><rect x="1085.79" y="1492.73" width="45.21" height="4.38" rx="0.82" ry="0.82" style="fill:none;stroke:#c13018;stroke-miterlimit:10;stroke-width:5px"/><path d="M1030.5,1435.05V1410.5a3.5,3.5,0,0,0-7,0v24.55a3,3,0,0,0-2.5,3v26a3,3,0,0,0,3,3h6a3,3,0,0,0,3-3v-26A3,3,0,0,0,1030.5,1435.05Z" style="fill:none;stroke:#c13018;stroke-miterlimit:10;stroke-width:5px"/><path d="M1122.5,1435.05V1410.5a3.5,3.5,0,0,0-7,0v24.55a3,3,0,0,0-2.5,3v26a3,3,0,0,0,3,3h6a3,3,0,0,0,3-3v-26A3,3,0,0,0,1122.5,1435.05Z" style="fill:none;stroke:#c13018;stroke-miterlimit:10;stroke-width:5px"/><rect x="1964.5" y="1113.5" width="263" height="193" rx="12" ry="12" style="fill:none;stroke:#3a5c84;stroke-miterlimit:10;stroke-width:5px"/><rect x="2021" y="1206.91" width="150" height="56.01" rx="12" ry="12" style="fill:none;stroke:#c13018;stroke-miterlimit:10;stroke-width:5px"/><rect x="2038.5" y="1263.5" width="18" height="10" rx="5" ry="5" style="fill:none;stroke:#c13018;stroke-miterlimit:10;stroke-width:5px"/><rect x="2141.5" y="1263.5" width="18" height="10" rx="5" ry="5" style="fill:none;stroke:#c13018;stroke-miterlimit:10;stroke-width:5px"/><circle cx="2039.79" cy="1247.64" r="5.32" style="fill:#c13018"/><circle cx="2055.05" cy="1247.64" r="5.32" style="fill:#c13018"/><circle cx="2070.68" cy="1247.66" r="5.32" style="fill:#c13018"/><rect x="2108.79" y="1232.73" width="45.21" height="4.38" rx="0.82" ry="0.82" style="fill:none;stroke:#c13018;stroke-miterlimit:10;stroke-width:5px"/><path d="M2053.5,1175.05V1150.5a3.5,3.5,0,0,0-7,0v24.55a3,3,0,0,0-2.5,3v26a3,3,0,0,0,3,3h6a3,3,0,0,0,3-3v-26A3,3,0,0,0,2053.5,1175.05Z" style="fill:none;stroke:#c13018;stroke-miterlimit:10;stroke-width:5px"/><path d="M2145.5,1175.05V1150.5a3.5,3.5,0,0,0-7,0v24.55a3,3,0,0,0-2.5,3v26a3,3,0,0,0,3,3h6a3,3,0,0,0,3-3v-26A3,3,0,0,0,2145.5,1175.05Z" style="fill:none;stroke:#c13018;stroke-miterlimit:10;stroke-width:5px"/><rect x="1915.5" y="629.5" width="263" height="193" rx="12" ry="12" style="fill:none;stroke:#3a5c84;stroke-miterlimit:10;stroke-width:5px"/><rect x="1972" y="728.91" width="150" height="56.01" rx="12" ry="12" style="fill:none;stroke:#c13018;stroke-miterlimit:10;stroke-width:5px"/><rect x="1989.5" y="785.5" width="18" height="10" rx="5" ry="5" style="fill:none;stroke:#c13018;stroke-miterlimit:10;stroke-width:5px"/><rect x="2092.5" y="785.5" width="18" height="10" rx="5" ry="5" style="fill:none;stroke:#c13018;stroke-miterlimit:10;stroke-width:5px"/><circle cx="1990.79" cy="769.64" r="5.32" style="fill:#c13018"/><circle cx="2006.05" cy="769.64" r="5.32" style="fill:#c13018"/><circle cx="2021.68" cy="769.66" r="5.32" style="fill:#c13018"/><rect x="2059.79" y="754.73" width="45.21" height="4.38" rx="0.82" ry="0.82" style="fill:none;stroke:#c13018;stroke-miterlimit:10;stroke-width:5px"/><path d="M2004.5,697.05V672.5a3.5,3.5,0,0,0-7,0v24.55a3,3,0,0,0-2.5,3v26a3,3,0,0,0,3,3h6a3,3,0,0,0,3-3V700A3,3,0,0,0,2004.5,697.05Z" style="fill:none;stroke:#c13018;stroke-miterlimit:10;stroke-width:5px"/><path d="M2096.5,697.05V672.5a3.5,3.5,0,0,0-7,0v24.55a3,3,0,0,0-2.5,3v26a3,3,0,0,0,3,3h6a3,3,0,0,0,3-3V700A3,3,0,0,0,2096.5,697.05Z" style="fill:none;stroke:#c13018;stroke-miterlimit:10;stroke-width:5px"/><rect x="778.58" y="1366.21" width="9.83" height="221.75" rx="4.5" ry="4.5" transform="translate(2260.58 693.58) rotate(90)" style="fill:#3a5c84"/><rect x="342" y="210" width="876" height="721" rx="12" ry="12" style="fill:none;stroke:#636868;stroke-miterlimit:10;stroke-width:5px"/><rect x="308.5" y="1256" width="960" height="387.5" rx="12" ry="12" style="fill:none;stroke:#636868;stroke-miterlimit:10;stroke-width:4.30794952602441px"/><rect x="1725" y="221" width="867" height="672" rx="12" ry="12" style="fill:none;stroke:#636868;stroke-miterlimit:10;stroke-width:5px"/><rect x="2304" y="645" width="213" height="11" rx="5.5" ry="5.5" transform="translate(3061 -1760) rotate(90)" style="fill:#3a5c84"/><rect x="2203" y="746" width="213" height="11" rx="5.5" ry="5.5" transform="translate(4619 1503) rotate(-180)" style="fill:#3a5c84"/><path d="M2365.56,302.16a9.35,9.35,0,0,0,6.12,2.72,3.51,3.51,0,0,0,2.68-.92,2.39,2.39,0,0,0,.68-1.68,2.08,2.08,0,0,0-.76-1.6,9.61,9.61,0,0,0-3.44-1.4l-1.8-.56a8.71,8.71,0,0,1-3.84-2.16,6.71,6.71,0,0,1-1.52-4.72,8.72,8.72,0,0,1,2.44-6.44,9.41,9.41,0,0,1,6.84-2.52,18.74,18.74,0,0,1,8.24,2.16l-2.76,5.4a7,7,0,0,0-4.56-1.8,3.32,3.32,0,0,0-2.28.8,2,2,0,0,0-.68,1.44,1.78,1.78,0,0,0,.36,1.2,4.38,4.38,0,0,0,2.32,1.2l2.12.64a10.19,10.19,0,0,1,4.84,2.64,6.3,6.3,0,0,1,1.72,4.76,9,9,0,0,1-2.52,6.72c-2.28,2.28-5,2.72-7.88,2.72a14.26,14.26,0,0,1-5.24-.88,18.63,18.63,0,0,1-4-2.12Z"/><path d="M2393.12,297.52v12.64h-6.4V297.52h-2v-5.24h2V286.4h6.4v5.88h3.64v5.24Z"/><path d="M2413,292.28h6.4v17.88H2413v-2a6.68,6.68,0,0,1-5.56,2.56,8.56,8.56,0,0,1-6.44-2.84,9,9,0,0,1-2.56-6.56,9.89,9.89,0,0,1,2.76-7.16,9.2,9.2,0,0,1,6.44-2.52A7.08,7.08,0,0,1,2413,294Zm-6.72,6a4.18,4.18,0,0,0-1.28,2.92,4.12,4.12,0,0,0,1.24,2.92,4.49,4.49,0,0,0,2.88,1.2,4.1,4.1,0,0,0,2.88-1.24,3.88,3.88,0,0,0,1.2-2.88,4,4,0,0,0-1.24-2.92,4.06,4.06,0,0,0-5.68,0Z"/><path d="M2430.88,297.52v12.64h-6.4V297.52h-2v-5.24h2V286.4h6.4v5.88h3.64v5.24Zm-6.16,14.64,6,.64-4.08,7.36-4-.48Z"/><path d="M2440.12,281.24a3.6,3.6,0,1,1-3.6,3.6A3.59,3.59,0,0,1,2440.12,281.24Zm3.2,11v17.88h-6.4V292.28Z"/><path d="M2466.63,302.4h-13.31a4.52,4.52,0,0,0,1.12,3,3.6,3.6,0,0,0,2.64.88,5,5,0,0,0,2.08-.48,3,3,0,0,0,1.12-1.2h6.11a8,8,0,0,1-2.16,3.68c-1.31,1.28-3.4,2.48-7.27,2.48a10.14,10.14,0,0,1-7.4-2.72,9.36,9.36,0,0,1-2.64-6.76,9.54,9.54,0,0,1,2.68-6.92,10.07,10.07,0,0,1,7.32-2.6,9.77,9.77,0,0,1,6.87,2.44,10,10,0,0,1,2.84,7.52Zm-5.88-3.68a4.2,4.2,0,0,0-1-1.92,3.69,3.69,0,0,0-2.63-1,3.44,3.44,0,0,0-2.6,1,3.65,3.65,0,0,0-1,1.92Z"/><path d="M1941.6,584.48a8.62,8.62,0,0,1,6.52,2.36,8.78,8.78,0,0,1,2.28,6,7.7,7.7,0,0,1-2.12,5.56,7.47,7.47,0,0,1-3.68,1.84l8.36,10.92h-8.6l-6.64-10.24v10.24h-6.92V584.48Zm-3.88,12H1939a5.2,5.2,0,0,0,3.36-1.08,3.32,3.32,0,0,0,.88-2.24,3.15,3.15,0,0,0-.92-2.24,4.7,4.7,0,0,0-3.32-1h-1.32Z"/><path d="M1961.68,593.28v10a3.43,3.43,0,0,0,1,2.6,3.31,3.31,0,0,0,2.24.68,3,3,0,0,0,2.28-.76,3.32,3.32,0,0,0,.92-2.52v-10h6.4v11.16a6.14,6.14,0,0,1-1.72,4.8c-2.2,2.28-5.28,2.52-7.72,2.52-2.68,0-6-.28-8.08-2.56a6.43,6.43,0,0,1-1.68-4.76V593.28Z"/><path d="M1986,598.52v12.64h-6.4V598.52h-2v-5.24h2V587.4h6.4v5.88h3.64v5.24Z"/><path d="M2011,603.4h-13.32a4.52,4.52,0,0,0,1.12,3,3.6,3.6,0,0,0,2.64.88,5,5,0,0,0,2.08-.48,3,3,0,0,0,1.12-1.2h6.11a7.91,7.91,0,0,1-2.15,3.68c-1.32,1.28-3.4,2.48-7.28,2.48a10.14,10.14,0,0,1-7.4-2.72,9.36,9.36,0,0,1-2.64-6.76,9.54,9.54,0,0,1,2.68-6.92,10.07,10.07,0,0,1,7.32-2.6,9.8,9.8,0,0,1,6.88,2.44,10,10,0,0,1,2.84,7.52Zm-5.88-3.68a4.29,4.29,0,0,0-1-1.92,3.73,3.73,0,0,0-2.64-1,3.44,3.44,0,0,0-2.6,1,3.65,3.65,0,0,0-1,1.92Z"/><path d="M2014.64,593.28h6.4v2.92a5.77,5.77,0,0,1,2.52-2.48,7,7,0,0,1,3.32-.72c.16,0,.44,0,1.28.08v6a5.65,5.65,0,0,0-2.76-.64,4.19,4.19,0,0,0-2.92,1,5.4,5.4,0,0,0-1.44,4.08v7.64h-6.4Z"/><path d="M2005.56,302.16a9.35,9.35,0,0,0,6.12,2.72,3.51,3.51,0,0,0,2.68-.92,2.39,2.39,0,0,0,.68-1.68,2.08,2.08,0,0,0-.76-1.6,9.61,9.61,0,0,0-3.44-1.4l-1.8-.56a8.71,8.71,0,0,1-3.84-2.16,6.71,6.71,0,0,1-1.52-4.72,8.72,8.72,0,0,1,2.44-6.44,9.41,9.41,0,0,1,6.84-2.52,18.74,18.74,0,0,1,8.24,2.16l-2.76,5.4a7,7,0,0,0-4.56-1.8,3.32,3.32,0,0,0-2.28.8,2,2,0,0,0-.68,1.44,1.78,1.78,0,0,0,.36,1.2,4.38,4.38,0,0,0,2.32,1.2l2.12.64a10.19,10.19,0,0,1,4.84,2.64,6.3,6.3,0,0,1,1.72,4.76,9,9,0,0,1-2.52,6.72c-2.28,2.28-5,2.72-7.88,2.72a14.26,14.26,0,0,1-5.24-.88,18.63,18.63,0,0,1-4-2.12Z"/><path d="M2045,302.4h-13.32a4.52,4.52,0,0,0,1.12,3,3.6,3.6,0,0,0,2.64.88,5,5,0,0,0,2.08-.48,3,3,0,0,0,1.12-1.2h6.12a8,8,0,0,1-2.16,3.68c-1.32,1.28-3.4,2.48-7.28,2.48a10.14,10.14,0,0,1-7.4-2.72,9.36,9.36,0,0,1-2.64-6.76,9.54,9.54,0,0,1,2.68-6.92,10.07,10.07,0,0,1,7.32-2.6,9.8,9.8,0,0,1,6.88,2.44,10,10,0,0,1,2.84,7.52Zm-5.88-3.68a4.29,4.29,0,0,0-1-1.92,3.73,3.73,0,0,0-2.64-1,3.44,3.44,0,0,0-2.6,1,3.65,3.65,0,0,0-1,1.92Z"/><path d="M2048.68,292.28h6.4v2.92a5.77,5.77,0,0,1,2.52-2.48,7,7,0,0,1,3.32-.72c.16,0,.44,0,1.28.08v6a5.65,5.65,0,0,0-2.76-.64,4.19,4.19,0,0,0-2.92,1,5.4,5.4,0,0,0-1.44,4.08v7.64h-6.4Z"/><path d="M2070,292.28l4.28,9.16,4.36-9.16h7.12l-9.32,17.88h-4.36l-9.24-17.88Z"/><path d="M2105.92,302.4H2092.6a4.52,4.52,0,0,0,1.12,3,3.6,3.6,0,0,0,2.64.88,5,5,0,0,0,2.08-.48,3,3,0,0,0,1.12-1.2h6.12a8,8,0,0,1-2.16,3.68c-1.32,1.28-3.4,2.48-7.28,2.48a10.14,10.14,0,0,1-7.4-2.72,9.36,9.36,0,0,1-2.64-6.76,9.54,9.54,0,0,1,2.68-6.92,10.07,10.07,0,0,1,7.32-2.6,9.8,9.8,0,0,1,6.88,2.44,10,10,0,0,1,2.84,7.52Zm-5.88-3.68a4.29,4.29,0,0,0-1-1.92,3.73,3.73,0,0,0-2.64-1,3.44,3.44,0,0,0-2.6,1,3.65,3.65,0,0,0-1,1.92Z"/><path d="M2109.6,292.28h6.4v2.92a5.77,5.77,0,0,1,2.52-2.48,7,7,0,0,1,3.32-.72c.16,0,.44,0,1.28.08v6a5.65,5.65,0,0,0-2.76-.64,4.19,4.19,0,0,0-2.92,1,5.4,5.4,0,0,0-1.44,4.08v7.64h-6.4Z"/><polygon points="2116.22 1521.15 2083.76 1521.07 2083.75 1525.77 2073.78 1515.76 2083.8 1505.79 2083.79 1510.26 2116.25 1510.34 2116.26 1505.63 2126.23 1515.65 2116.21 1525.62 2116.22 1521.15" style="fill:none;stroke:#f7931f;stroke-miterlimit:10;stroke-width:3.21418609013491px"/><rect x="2025" y="1487.91" width="150" height="56.01" rx="12" ry="12" style="fill:none;stroke:#f7931f;stroke-miterlimit:10;stroke-width:5px"/><rect x="2042.5" y="1544.5" width="18" height="10" rx="5" ry="5" style="fill:none;stroke:#f7931f;stroke-miterlimit:10;stroke-width:5px"/><rect x="2145.5" y="1544.5" width="18" height="10" rx="5" ry="5" style="fill:none;stroke:#f7931f;stroke-miterlimit:10;stroke-width:5px"/><rect x="2212.58" y="1618.21" width="9.83" height="221.75" rx="4.5" ry="4.5" transform="translate(3946.58 -488.42) rotate(90)" style="fill:#3a5c84"/><rect x="2106.58" y="1643" width="9.42" height="89.96" rx="4.5" ry="4.5" transform="translate(4222.58 3375.96) rotate(180)" style="fill:#3a5c84"/><rect x="2371.54" y="1396.21" width="9.83" height="221.75" rx="4.5" ry="4.5" transform="translate(3883.54 -869.37) rotate(90)" style="fill:#3a5c84"/><rect x="2477.96" y="1421" width="9.42" height="89.96" rx="4.5" ry="4.5" style="fill:#3a5c84"/><rect x="2095.58" y="1321" width="9.42" height="89.96" rx="4.5" ry="4.5" transform="translate(4200.58 2731.96) rotate(180)" style="fill:#3a5c84"/><rect x="1709.5" y="1061" width="1052.5" height="836" rx="12" ry="12" style="fill:none;stroke:#636868;stroke-miterlimit:10;stroke-width:5.39506698638771px"/><path d="M2419.56,1173.16a9.35,9.35,0,0,0,6.12,2.72,3.51,3.51,0,0,0,2.68-.92,2.39,2.39,0,0,0,.68-1.68,2.08,2.08,0,0,0-.76-1.6,9.61,9.61,0,0,0-3.44-1.4l-1.8-.56a8.71,8.71,0,0,1-3.84-2.16,6.71,6.71,0,0,1-1.52-4.72,8.72,8.72,0,0,1,2.44-6.44,9.41,9.41,0,0,1,6.84-2.52,18.74,18.74,0,0,1,8.24,2.16l-2.76,5.4a7,7,0,0,0-4.56-1.8,3.32,3.32,0,0,0-2.28.8,2,2,0,0,0-.68,1.44,1.78,1.78,0,0,0,.36,1.2,4.38,4.38,0,0,0,2.32,1.2l2.12.64a10.19,10.19,0,0,1,4.84,2.64,6.3,6.3,0,0,1,1.72,4.76,9,9,0,0,1-2.52,6.72c-2.28,2.28-5,2.72-7.88,2.72a14.26,14.26,0,0,1-5.24-.88,18.63,18.63,0,0,1-4-2.12Z"/><path d="M2447.12,1168.52v12.64h-6.4v-12.64h-2v-5.24h2v-5.88h6.4v5.88h3.64v5.24Z"/><path d="M2467,1163.28h6.4v17.88H2467v-2a6.68,6.68,0,0,1-5.56,2.56,8.56,8.56,0,0,1-6.44-2.84,9,9,0,0,1-2.56-6.56,9.89,9.89,0,0,1,2.76-7.16,9.2,9.2,0,0,1,6.44-2.52A7.08,7.08,0,0,1,2467,1165Zm-6.72,6a4.18,4.18,0,0,0-1.28,2.92,4.12,4.12,0,0,0,1.24,2.92,4.49,4.49,0,0,0,2.88,1.2,4.1,4.1,0,0,0,2.88-1.24,3.88,3.88,0,0,0,1.2-2.88,4,4,0,0,0-1.24-2.92,4.06,4.06,0,0,0-5.68,0Z"/><path d="M2484.88,1168.52v12.64h-6.4v-12.64h-2v-5.24h2v-5.88h6.4v5.88h3.64v5.24Zm-6.16,14.64,6,.64-4.08,7.36-4-.48Z"/><path d="M2494.12,1152.24a3.6,3.6,0,1,1-3.6,3.6A3.59,3.59,0,0,1,2494.12,1152.24Zm3.2,11v17.88h-6.4v-17.88Z"/><path d="M2520.63,1173.4h-13.31a4.52,4.52,0,0,0,1.12,3,3.6,3.6,0,0,0,2.64.88,5,5,0,0,0,2.08-.48,3,3,0,0,0,1.12-1.2h6.11a8,8,0,0,1-2.16,3.68c-1.31,1.28-3.4,2.48-7.27,2.48a10.14,10.14,0,0,1-7.4-2.72,9.36,9.36,0,0,1-2.64-6.76,9.54,9.54,0,0,1,2.68-6.92,10.07,10.07,0,0,1,7.32-2.6,9.77,9.77,0,0,1,6.87,2.44,10,10,0,0,1,2.84,7.52Zm-5.88-3.68a4.2,4.2,0,0,0-1-1.92,3.69,3.69,0,0,0-2.63-1,3.44,3.44,0,0,0-2.6,1,3.65,3.65,0,0,0-1,1.92Z"/><path d="M2428.56,1837.16a9.35,9.35,0,0,0,6.12,2.72,3.51,3.51,0,0,0,2.68-.92,2.39,2.39,0,0,0,.68-1.68,2.08,2.08,0,0,0-.76-1.6,9.61,9.61,0,0,0-3.44-1.4l-1.8-.56a8.71,8.71,0,0,1-3.84-2.16,6.71,6.71,0,0,1-1.52-4.72,8.72,8.72,0,0,1,2.44-6.44,9.41,9.41,0,0,1,6.84-2.52,18.74,18.74,0,0,1,8.24,2.16l-2.76,5.4a7,7,0,0,0-4.56-1.8,3.32,3.32,0,0,0-2.28.8,2,2,0,0,0-.68,1.44,1.78,1.78,0,0,0,.36,1.2,4.38,4.38,0,0,0,2.32,1.2l2.12.64a10.19,10.19,0,0,1,4.84,2.64,6.3,6.3,0,0,1,1.72,4.76,9,9,0,0,1-2.52,6.72c-2.28,2.28-5,2.72-7.88,2.72a14.26,14.26,0,0,1-5.24-.88,18.63,18.63,0,0,1-4-2.12Z"/><path d="M2456.12,1832.52v12.64h-6.4v-12.64h-2v-5.24h2v-5.88h6.4v5.88h3.64v5.24Z"/><path d="M2476,1827.28h6.4v17.88H2476v-2a6.68,6.68,0,0,1-5.56,2.56,8.56,8.56,0,0,1-6.44-2.84,9,9,0,0,1-2.56-6.56,9.89,9.89,0,0,1,2.76-7.16,9.2,9.2,0,0,1,6.44-2.52A7.08,7.08,0,0,1,2476,1829Zm-6.72,6a4.18,4.18,0,0,0-1.28,2.92,4.12,4.12,0,0,0,1.24,2.92,4.49,4.49,0,0,0,2.88,1.2,4.1,4.1,0,0,0,2.88-1.24,3.88,3.88,0,0,0,1.2-2.88,4,4,0,0,0-1.24-2.92,4.06,4.06,0,0,0-5.68,0Z"/><path d="M2493.88,1832.52v12.64h-6.4v-12.64h-2v-5.24h2v-5.88h6.4v5.88h3.64v5.24Zm-6.16,14.64,6,.64-4.08,7.36-4-.48Z"/><path d="M2503.12,1816.24a3.6,3.6,0,1,1-3.6,3.6A3.59,3.59,0,0,1,2503.12,1816.24Zm3.2,11v17.88h-6.4v-17.88Z"/><path d="M2529.63,1837.4h-13.31a4.52,4.52,0,0,0,1.12,3,3.6,3.6,0,0,0,2.64.88,5,5,0,0,0,2.08-.48,3,3,0,0,0,1.12-1.2h6.11a8,8,0,0,1-2.16,3.68c-1.31,1.28-3.4,2.48-7.27,2.48a10.14,10.14,0,0,1-7.4-2.72,9.36,9.36,0,0,1-2.64-6.76,9.54,9.54,0,0,1,2.68-6.92,10.07,10.07,0,0,1,7.32-2.6,9.77,9.77,0,0,1,6.87,2.44,10,10,0,0,1,2.84,7.52Zm-5.88-3.68a4.2,4.2,0,0,0-1-1.92,3.69,3.69,0,0,0-2.63-1,3.44,3.44,0,0,0-2.6,1,3.65,3.65,0,0,0-1,1.92Z"/><path d="M1821.56,1529.16a9.35,9.35,0,0,0,6.12,2.72,3.51,3.51,0,0,0,2.68-.92,2.39,2.39,0,0,0,.68-1.68,2.08,2.08,0,0,0-.76-1.6,9.61,9.61,0,0,0-3.44-1.4l-1.8-.56a8.71,8.71,0,0,1-3.84-2.16,6.71,6.71,0,0,1-1.52-4.72,8.72,8.72,0,0,1,2.44-6.44,9.41,9.41,0,0,1,6.84-2.52,18.74,18.74,0,0,1,8.24,2.16l-2.76,5.4a7,7,0,0,0-4.56-1.8,3.32,3.32,0,0,0-2.28.8,2,2,0,0,0-.68,1.44,1.78,1.78,0,0,0,.36,1.2,4.38,4.38,0,0,0,2.32,1.2l2.12.64a10.19,10.19,0,0,1,4.84,2.64,6.3,6.3,0,0,1,1.72,4.76,9,9,0,0,1-2.52,6.72c-2.28,2.28-5,2.72-7.88,2.72a14.26,14.26,0,0,1-5.24-.88,18.63,18.63,0,0,1-4-2.12Z"/><path d="M1847,1519.28l4.24,9.44,4.52-9.44h3.92l4.52,9.72,4.47-9.72h7.12l-9.35,17.88h-4.32l-4.48-9.84-4.28,9.84H1849l-9.2-17.88Z"/><path d="M1881.2,1508.24a3.6,3.6,0,1,1-3.6,3.6A3.59,3.59,0,0,1,1881.2,1508.24Zm3.2,11v17.88H1878v-17.88Z"/><path d="M1895.84,1524.52v12.64h-6.4v-12.64h-2v-5.24h2v-5.88h6.4v5.88h3.64v5.24Z"/><path d="M1915.4,1536.76a9.49,9.49,0,0,1-4.44,1,9.88,9.88,0,0,1-7-2.72,9.36,9.36,0,0,1-2.76-6.68,9.74,9.74,0,0,1,2.88-6.92,10.31,10.31,0,0,1,7.2-2.72,9.2,9.2,0,0,1,4.16,1v5.36a5.7,5.7,0,0,0-3.32-1.16,4.19,4.19,0,0,0-3.12,1.24,4.35,4.35,0,0,0-1.24,3.08,4.59,4.59,0,0,0,1.12,3,4.34,4.34,0,0,0,3.28,1.36,4.84,4.84,0,0,0,3.28-1.2Z"/><path d="M1919,1508h6.4v13.52a7.64,7.64,0,0,1,2-1.76,8.17,8.17,0,0,1,9,1c1.6,1.6,1.68,3.28,1.68,5v11.36h-6.4v-9c0-1.32-.08-2.68-.79-3.48a2.57,2.57,0,0,0-2.05-.76,3.42,3.42,0,0,0-2.31.76,3.89,3.89,0,0,0-1.08,2.92v9.6H1919Z"/><path d="M1851.6,1190.48a8.62,8.62,0,0,1,6.52,2.36,8.78,8.78,0,0,1,2.28,6,7.7,7.7,0,0,1-2.12,5.56,7.47,7.47,0,0,1-3.68,1.84l8.36,10.92h-8.6l-6.64-10.24v10.24h-6.92v-26.68Zm-3.88,12H1849a5.2,5.2,0,0,0,3.36-1.08,3.32,3.32,0,0,0,.88-2.24,3.15,3.15,0,0,0-.92-2.24,4.7,4.7,0,0,0-3.32-1h-1.32Z"/><path d="M1871.68,1199.28v10a3.43,3.43,0,0,0,1,2.6,3.31,3.31,0,0,0,2.24.68,3,3,0,0,0,2.28-.76,3.32,3.32,0,0,0,.92-2.52v-10h6.4v11.16a6.14,6.14,0,0,1-1.72,4.8c-2.2,2.28-5.28,2.52-7.72,2.52-2.68,0-6-.28-8.08-2.56a6.43,6.43,0,0,1-1.68-4.76v-11.16Z"/><path d="M1896,1204.52v12.64h-6.4v-12.64h-2v-5.24h2v-5.88h6.4v5.88h3.64v5.24Z"/><path d="M1921,1209.4h-13.32a4.52,4.52,0,0,0,1.12,3,3.6,3.6,0,0,0,2.64.88,5,5,0,0,0,2.08-.48,3,3,0,0,0,1.12-1.2h6.11a7.91,7.91,0,0,1-2.15,3.68c-1.32,1.28-3.4,2.48-7.28,2.48a10.14,10.14,0,0,1-7.4-2.72,9.36,9.36,0,0,1-2.64-6.76,9.54,9.54,0,0,1,2.68-6.92,10.07,10.07,0,0,1,7.32-2.6,9.8,9.8,0,0,1,6.88,2.44,10,10,0,0,1,2.84,7.52Zm-5.88-3.68a4.29,4.29,0,0,0-1-1.92,3.73,3.73,0,0,0-2.64-1,3.44,3.44,0,0,0-2.6,1,3.65,3.65,0,0,0-1,1.92Z"/><path d="M1924.64,1199.28h6.4v2.92a5.77,5.77,0,0,1,2.52-2.48,7,7,0,0,1,3.32-.72c.16,0,.44,0,1.28.08v6a5.65,5.65,0,0,0-2.76-.64,4.19,4.19,0,0,0-2.92,1,5.4,5.4,0,0,0-1.44,4.08v7.64h-6.4Z"/><path d="M1437.47,585.42a4.16,4.16,0,0,1,2.92-7.08,4.2,4.2,0,0,1,3,1.28,4.15,4.15,0,0,1,0,5.8,4.1,4.1,0,0,1-2.92,1.24A4.05,4.05,0,0,1,1437.47,585.42Z"/><path d="M1449.59,585.42a4.16,4.16,0,0,1,2.92-7.08,4.2,4.2,0,0,1,3,1.28,4.15,4.15,0,0,1,0,5.8,4.1,4.1,0,0,1-2.92,1.24A4.05,4.05,0,0,1,1449.59,585.42Z"/><path d="M1461.71,585.42a4.16,4.16,0,0,1,2.92-7.08,4.2,4.2,0,0,1,3,1.28,4.15,4.15,0,0,1,0,5.8,4.1,4.1,0,0,1-2.92,1.24A4.05,4.05,0,0,1,1461.71,585.42Z"/><path d="M1473.83,585.42a4.16,4.16,0,0,1,2.92-7.08,4.2,4.2,0,0,1,3,1.28,4.15,4.15,0,0,1,0,5.8,4.1,4.1,0,0,1-2.92,1.24A4.05,4.05,0,0,1,1473.83,585.42Z"/><path d="M1486,585.42a4.16,4.16,0,0,1,2.92-7.08,4.2,4.2,0,0,1,3,1.28,4.15,4.15,0,0,1,0,5.8,4.1,4.1,0,0,1-2.92,1.24A4.05,4.05,0,0,1,1486,585.42Z"/><path d="M1498.07,585.42a4.16,4.16,0,0,1,2.92-7.08,4.2,4.2,0,0,1,3,1.28,4.15,4.15,0,0,1,0,5.8,4.1,4.1,0,0,1-2.92,1.24A4.05,4.05,0,0,1,1498.07,585.42Z"/><path d="M1510.19,585.42a4.16,4.16,0,0,1,2.92-7.08,4.2,4.2,0,0,1,3,1.28,4.15,4.15,0,0,1,0,5.8,4.1,4.1,0,0,1-2.92,1.24A4.05,4.05,0,0,1,1510.19,585.42Z"/><path d="M826,1092.58a4.16,4.16,0,0,1-2.92,7.08,4.2,4.2,0,0,1-3-1.28,4.15,4.15,0,0,1,0-5.8,4.1,4.1,0,0,1,2.92-1.24A4.05,4.05,0,0,1,826,1092.58Z"/><path d="M813.87,1092.58a4.16,4.16,0,0,1-2.92,7.08,4.2,4.2,0,0,1-3-1.28,4.15,4.15,0,0,1,0-5.8,4.1,4.1,0,0,1,2.92-1.24A4.05,4.05,0,0,1,813.87,1092.58Z"/><path d="M801.75,1092.58a4.16,4.16,0,0,1-2.92,7.08,4.2,4.2,0,0,1-3-1.28,4.15,4.15,0,0,1,0-5.8,4.1,4.1,0,0,1,2.92-1.24A4.05,4.05,0,0,1,801.75,1092.58Z"/><path d="M789.63,1092.58a4.16,4.16,0,0,1-2.92,7.08,4.2,4.2,0,0,1-3-1.28,4.15,4.15,0,0,1,0-5.8,4.1,4.1,0,0,1,2.92-1.24A4.05,4.05,0,0,1,789.63,1092.58Z"/><path d="M777.51,1092.58a4.16,4.16,0,0,1-2.92,7.08,4.2,4.2,0,0,1-3-1.28,4.15,4.15,0,0,1,0-5.8,4.1,4.1,0,0,1,2.92-1.24A4.05,4.05,0,0,1,777.51,1092.58Z"/><path d="M765.39,1092.58a4.16,4.16,0,0,1-2.92,7.08,4.2,4.2,0,0,1-3-1.28,4.15,4.15,0,0,1,0-5.8,4.1,4.1,0,0,1,2.92-1.24A4.05,4.05,0,0,1,765.39,1092.58Z"/><path d="M753.27,1092.58a4.16,4.16,0,0,1-2.92,7.08,4.2,4.2,0,0,1-3-1.28,4.15,4.15,0,0,1,0-5.8,4.1,4.1,0,0,1,2.92-1.24A4.05,4.05,0,0,1,753.27,1092.58Z"/><path d="M1531,1479.7a4.16,4.16,0,0,1-2.92,7.08,4.2,4.2,0,0,1-3-1.28,4.15,4.15,0,0,1,0-5.8,4.1,4.1,0,0,1,2.92-1.24A4.05,4.05,0,0,1,1531,1479.7Z"/><path d="M1518.87,1479.7a4.16,4.16,0,0,1-2.92,7.08,4.2,4.2,0,0,1-3-1.28,4.15,4.15,0,0,1,0-5.8,4.1,4.1,0,0,1,2.92-1.24A4.05,4.05,0,0,1,1518.87,1479.7Z"/><path d="M1506.75,1479.7a4.16,4.16,0,0,1-2.92,7.08,4.2,4.2,0,0,1-3-1.28,4.15,4.15,0,0,1,0-5.8,4.1,4.1,0,0,1,2.92-1.24A4.05,4.05,0,0,1,1506.75,1479.7Z"/><path d="M1494.63,1479.7a4.16,4.16,0,0,1-2.92,7.08,4.2,4.2,0,0,1-3-1.28,4.15,4.15,0,0,1,0-5.8,4.1,4.1,0,0,1,2.92-1.24A4.05,4.05,0,0,1,1494.63,1479.7Z"/><path d="M1482.51,1479.7a4.16,4.16,0,0,1-2.92,7.08,4.2,4.2,0,0,1-3-1.28,4.15,4.15,0,0,1,0-5.8,4.1,4.1,0,0,1,2.92-1.24A4.05,4.05,0,0,1,1482.51,1479.7Z"/><path d="M1470.39,1479.7a4.16,4.16,0,0,1-2.92,7.08,4.2,4.2,0,0,1-3-1.28,4.15,4.15,0,0,1,0-5.8,4.1,4.1,0,0,1,2.92-1.24A4.05,4.05,0,0,1,1470.39,1479.7Z"/><path d="M1458.27,1479.7a4.16,4.16,0,0,1-2.92,7.08,4.2,4.2,0,0,1-3-1.28,4.15,4.15,0,0,1,0-5.8,4.1,4.1,0,0,1,2.92-1.24A4.05,4.05,0,0,1,1458.27,1479.7Z"/><rect x="67" y="61" width="2758" height="1901" rx="12" ry="12" style="fill:none;stroke:#636868;stroke-miterlimit:10;stroke-width:5px"/><path d="M169.44,1826v53.36H155.6V1826Z"/><path d="M179.44,1843.56h12.8V1848a13.49,13.49,0,0,1,11.36-5.28c3.68,0,7.6.88,10.56,3.84s3.36,6.08,3.36,10v22.72h-12.8v-18.08c0-2.08.08-5.2-1.6-7a5.36,5.36,0,0,0-4.08-1.52,7,7,0,0,0-4.72,1.68,8.22,8.22,0,0,0-2.08,5.68v19.2h-12.8Z"/><path d="M240.4,1854v25.28H227.6V1854h-4.08v-10.48h4.08V1831.8h12.8v11.76h7.28V1854Z"/><path d="M290.4,1863.8H263.76a9,9,0,0,0,2.24,6c.8.8,2.4,1.76,5.28,1.76a10.1,10.1,0,0,0,4.16-1,6,6,0,0,0,2.24-2.4h12.24a16.07,16.07,0,0,1-4.32,7.36c-2.64,2.56-6.8,5-14.56,5-4.72,0-10.4-1-14.8-5.44a18.73,18.73,0,0,1-5.28-13.52,19.09,19.09,0,0,1,5.36-13.84c3-2.88,7.6-5.2,14.64-5.2,4.16,0,9.52.88,13.76,4.88,5,4.8,5.68,11,5.68,15Zm-11.76-7.36a8.58,8.58,0,0,0-2.08-3.84,7.46,7.46,0,0,0-5.28-1.92,6.88,6.88,0,0,0-5.2,1.92,7.3,7.3,0,0,0-1.92,3.84Z"/><path d="M297.76,1843.56h12.8v5.84a11.54,11.54,0,0,1,5-5,14,14,0,0,1,6.64-1.44c.32,0,.88.08,2.56.16v12.08a11.29,11.29,0,0,0-5.52-1.28,8.39,8.39,0,0,0-5.84,1.92c-2.72,2.48-2.88,6.24-2.88,8.16v15.28h-12.8Z"/><path d="M330.48,1843.56h12.8V1848a13.49,13.49,0,0,1,11.36-5.28c3.68,0,7.6.88,10.56,3.84s3.36,6.08,3.36,10v22.72h-12.8v-18.08c0-2.08.08-5.2-1.6-7a5.36,5.36,0,0,0-4.08-1.52,7,7,0,0,0-4.72,1.68,8.22,8.22,0,0,0-2.08,5.68v19.2h-12.8Z"/><path d="M415.2,1863.8H388.56a9.07,9.07,0,0,0,2.23,6c.81.8,2.41,1.76,5.29,1.76a10.1,10.1,0,0,0,4.16-1,6,6,0,0,0,2.24-2.4h12.24a16.07,16.07,0,0,1-4.32,7.36c-2.64,2.56-6.8,5-14.56,5-4.72,0-10.4-1-14.8-5.44a18.69,18.69,0,0,1-5.29-13.52,19.09,19.09,0,0,1,5.37-13.84c3-2.88,7.6-5.2,14.64-5.2,4.16,0,9.52.88,13.76,4.88,5,4.8,5.68,11,5.68,15Zm-11.76-7.36a8.58,8.58,0,0,0-2.08-3.84,7.46,7.46,0,0,0-5.28-1.92,6.88,6.88,0,0,0-5.2,1.92,7.3,7.3,0,0,0-1.92,3.84Z"/><path d="M436.71,1854v25.28h-12.8V1854h-4.08v-10.48h4.08V1831.8h12.8v11.76H444V1854Z"/><rect x="1239" y="576" width="168" height="14" rx="7" ry="7" style="fill:#3a5c84"/><rect x="1540" y="576" width="168" height="14" rx="7" ry="7" style="fill:#3a5c84"/><path d="M1438.93,996.4a4,4,0,0,1,2.87-5.08,4,4,0,0,1,3.15.35,4.22,4.22,0,0,1,2,2.57,4.16,4.16,0,0,1-2.89,5,4,4,0,0,1-5.08-2.87Z"/><path d="M1449.48,1002.36a4.16,4.16,0,0,1,6-4.73,4.15,4.15,0,0,1,2,2.57,3.8,3.8,0,0,1-.4,3.07,3.91,3.91,0,0,1-2.48,2,4.08,4.08,0,0,1-5.09-2.87Z"/><path d="M1460,1008.31a4,4,0,0,1,2.87-5.08,4,4,0,0,1,3.15.35,4.19,4.19,0,0,1,2,2.57,4.16,4.16,0,0,1-2.88,5,4.11,4.11,0,0,1-3.16-.35A4.06,4.06,0,0,1,1460,1008.31Z"/><path d="M1470.6,1014.27a4,4,0,0,1,.35-3.15,4.22,4.22,0,0,1,5.67-1.58,4.22,4.22,0,0,1,2,2.57,3.85,3.85,0,0,1-.41,3.07,3.91,3.91,0,0,1-2.48,2,4.09,4.09,0,0,1-3.15-.36A4,4,0,0,1,1470.6,1014.27Z"/><path d="M1481.15,1020.22a4.06,4.06,0,0,1,2.87-5.08,4,4,0,0,1,3.15.35,4.19,4.19,0,0,1,1.95,2.57,4.14,4.14,0,0,1-2.88,5,4.06,4.06,0,0,1-5.09-2.87Z"/><path d="M1491.71,1026.18a4.16,4.16,0,0,1,6-4.73,4.22,4.22,0,0,1,2,2.57,3.8,3.8,0,0,1-.41,3.07,3.87,3.87,0,0,1-2.48,2,4.09,4.09,0,0,1-3.15-.36A4,4,0,0,1,1491.71,1026.18Z"/><path d="M1502.26,1032.13a4.17,4.17,0,0,1,6-4.73,4.2,4.2,0,0,1,1.94,2.57,4.14,4.14,0,0,1-2.88,5,4.06,4.06,0,0,1-5.09-2.87Z"/><rect x="1256.42" y="931.05" width="168" height="14" rx="7" ry="7" transform="translate(633.88 -537.57) rotate(29.43)" style="fill:#3a5c84"/><rect x="1518.58" y="1078.95" width="168" height="14" rx="7" ry="7" transform="translate(740.38 -647.3) rotate(29.43)" style="fill:#3a5c84"/><rect x="1299" y="1475.29" width="108.18" height="14.65" rx="7" ry="7" style="fill:#3a5c84"/><rect x="1571.82" y="1475.29" width="108.18" height="14.65" rx="7" ry="7" style="fill:#3a5c84"/><path d="M2239,981.7a4.16,4.16,0,0,1-2.92,7.08,4.2,4.2,0,0,1-3-1.28,4.15,4.15,0,0,1,0-5.8,4.1,4.1,0,0,1,2.92-1.24A4.05,4.05,0,0,1,2239,981.7Z"/><path d="M2226.87,981.7a4.16,4.16,0,0,1-2.92,7.08,4.2,4.2,0,0,1-3-1.28,4.15,4.15,0,0,1,0-5.8,4.1,4.1,0,0,1,2.92-1.24A4.05,4.05,0,0,1,2226.87,981.7Z"/><path d="M2214.75,981.7a4.16,4.16,0,0,1-2.92,7.08,4.2,4.2,0,0,1-3-1.28,4.15,4.15,0,0,1,0-5.8,4.1,4.1,0,0,1,2.92-1.24A4.05,4.05,0,0,1,2214.75,981.7Z"/><path d="M2202.63,981.7a4.16,4.16,0,0,1-2.92,7.08,4.2,4.2,0,0,1-3-1.28,4.15,4.15,0,0,1,0-5.8,4.1,4.1,0,0,1,2.92-1.24A4.05,4.05,0,0,1,2202.63,981.7Z"/><path d="M2190.51,981.7a4.16,4.16,0,0,1-2.92,7.08,4.2,4.2,0,0,1-3-1.28,4.15,4.15,0,0,1,0-5.8,4.1,4.1,0,0,1,2.92-1.24A4.05,4.05,0,0,1,2190.51,981.7Z"/><path d="M2178.39,981.7a4.16,4.16,0,0,1-2.92,7.08,4.2,4.2,0,0,1-3-1.28,4.15,4.15,0,0,1,0-5.8,4.1,4.1,0,0,1,2.92-1.24A4.05,4.05,0,0,1,2178.39,981.7Z"/><path d="M2166.27,981.7a4.16,4.16,0,0,1-2.92,7.08,4.2,4.2,0,0,1-3-1.28,4.15,4.15,0,0,1,0-5.8,4.1,4.1,0,0,1,2.92-1.24A4.05,4.05,0,0,1,2166.27,981.7Z"/><rect x="741.22" y="994.63" width="94.57" height="15.31" rx="7" ry="7" transform="translate(1790.78 213.78) rotate(90)" style="fill:#3a5c84"/><rect x="741.22" y="1181.06" width="94.57" height="15.31" rx="7" ry="7" transform="translate(1977.22 400.22) rotate(90)" style="fill:#3a5c84"/><rect x="2193" y="908" width="14" height="54" rx="7" ry="7" style="fill:#3a5c84"/><rect x="2193" y="1002" width="14" height="54" rx="7" ry="7" style="fill:#3a5c84"/><rect x="2077" y="533" width="11" height="87" rx="5.5" ry="5.5" style="fill:#3a5c84"/></svg>