<svg id="Layer_1" data-name="Layer 1" xmlns="http://www.w3.org/2000/svg" viewBox="0 0 2610 528"><title>Capitolul11</title><path d="M425.92,366V342.62h7.95c2.34,0,6.26.32,9.27,3.22a11.41,11.41,0,0,1,3.26,8.51,10.73,10.73,0,0,1-3,8.08,12.65,12.65,0,0,1-9,3.54Zm6.06-5.15h1.22a7,7,0,0,0,5.11-1.68,6.34,6.34,0,0,0,1.79-4.79,7,7,0,0,0-1.82-5.11,6.81,6.81,0,0,0-4.83-1.47H432Z"/><path d="M452.52,340.66a3.15,3.15,0,1,1-3.15,3.15A3.14,3.14,0,0,1,452.52,340.66Zm2.8,9.66V366h-5.6V350.32Z"/><path d="M460.15,360.79a7.93,7.93,0,0,0,2.24,1.15,7.17,7.17,0,0,0,2.17.39,2.42,2.42,0,0,0,1.44-.42.93.93,0,0,0,.28-.74.85.85,0,0,0-.28-.7,3.56,3.56,0,0,0-1.47-.56l-1.47-.35a5,5,0,0,1-2.73-1.36,3.78,3.78,0,0,1-1-2.7,5.61,5.61,0,0,1,1.47-3.81,7.88,7.88,0,0,1,5.6-1.9,13,13,0,0,1,5,1l-1.89,3.57a7.77,7.77,0,0,0-2.94-.77,2.38,2.38,0,0,0-1.3.32.84.84,0,0,0-.49.77.91.91,0,0,0,.67.87c.52.21,1,.21,1.85.46l1,.28a6.78,6.78,0,0,1,2.31,1.22,4.44,4.44,0,0,1,1.19,3.12,5.21,5.21,0,0,1-1.58,3.88c-1.82,1.82-4.48,2-5.77,2a11.49,11.49,0,0,1-6.3-1.82Z"/><path d="M480.28,374h-5.6V350.32h5.6V352a5.83,5.83,0,0,1,4.79-2.25,7.78,7.78,0,0,1,5.57,2.28,8.88,8.88,0,0,1-.14,12.25,7.5,7.5,0,0,1-5.36,2.17,6.66,6.66,0,0,1-4.86-2Zm.91-18.37a3.81,3.81,0,0,0-1.09,2.59,3.73,3.73,0,0,0,1.09,2.48,3.54,3.54,0,0,0,2.52,1.05,3.35,3.35,0,0,0,2.48-1.05,3.67,3.67,0,0,0,1.09-2.48,3.81,3.81,0,0,0-1.09-2.59,3.35,3.35,0,0,0-2.48-1.05A3.54,3.54,0,0,0,481.19,355.61Z"/><path d="M512,363.9a10.71,10.71,0,0,1-14,0,8.08,8.08,0,0,1,0-11.51,10.68,10.68,0,0,1,14,0,8.08,8.08,0,0,1,0,11.51Zm-9.49-8.33a3.48,3.48,0,0,0,0,5,3.51,3.51,0,0,0,5,0,3.43,3.43,0,0,0,1.08-2.48,3.81,3.81,0,0,0-1.08-2.56,3.61,3.61,0,0,0-5,0Z"/><path d="M525.78,361.38h6.54V366H516.4l7.38-11.06h-6.3v-4.59h15.61Z"/><path d="M538.52,340.66a3.15,3.15,0,1,1-3.15,3.15A3.14,3.14,0,0,1,538.52,340.66Zm2.8,9.66V366h-5.61V350.32Z"/><path d="M551.33,354.91V366h-5.6V354.91h-1.79v-4.59h1.79v-5.14h5.6v5.14h3.18v4.59Z"/><path d="M559.41,340.66a3.15,3.15,0,1,1-3.15,3.15A3.14,3.14,0,0,1,559.41,340.66Zm2.8,9.66V366h-5.6V350.32Z"/><path d="M570.37,350.32l3.74,8,3.82-8h6.23L576,366h-3.81l-8.09-15.65Z"/><path d="M458.31,408l4-23.35h6L473,397.08l5-12.46H484l3.5,23.35h-6.05l-1.72-13.44L474.13,408h-2.41l-5.39-13.44-2,13.44Z"/><path d="M506.62,405.9a10.71,10.71,0,0,1-14,0,8.05,8.05,0,0,1,0-11.51,9.76,9.76,0,0,1,7-2.6,9.89,9.89,0,0,1,7,2.6,8.08,8.08,0,0,1,0,11.51Zm-9.49-8.33a3.46,3.46,0,0,0,0,5,3.5,3.5,0,0,0,5,0,3.44,3.44,0,0,0,1.09-2.48,3.82,3.82,0,0,0-1.09-2.56,3.6,3.6,0,0,0-5,0Z"/><path d="M517.85,382.45v11.38a6.17,6.17,0,0,1,4.65-2A8,8,0,0,1,528,393.9a8.52,8.52,0,0,1,2.55,6.19,8.64,8.64,0,0,1-2.52,6.23,7.48,7.48,0,0,1-5.5,2.17,5.73,5.73,0,0,1-4.72-2.24V408h-5.6V382.45Zm5.91,20.23a3.5,3.5,0,0,0,1.09-2.45,3.85,3.85,0,0,0-1.09-2.66,3.6,3.6,0,0,0-5,0,4.07,4.07,0,0,0-1.05,2.52,3.79,3.79,0,0,0,1.19,2.66,3.87,3.87,0,0,0,2.42.94A3.47,3.47,0,0,0,523.76,402.68Z"/><path d="M536.61,382.66a3.15,3.15,0,1,1-3.15,3.15A3.14,3.14,0,0,1,536.61,382.66Zm2.8,9.66V408h-5.6V392.32Z"/><path d="M548.82,382.45V408h-5.6V382.45Z"/><path d="M749.61,342.62a7.55,7.55,0,0,1,5.71,2.07,7.66,7.66,0,0,1,2,5.25,6.71,6.71,0,0,1-1.85,4.86,6.52,6.52,0,0,1-3.22,1.61l7.31,9.56H752l-5.81-9v9h-6.06V342.62Zm-3.39,10.47h1.15a4.55,4.55,0,0,0,2.94-.95,2.86,2.86,0,0,0,.77-2,2.77,2.77,0,0,0-.8-2,4.12,4.12,0,0,0-2.91-.91h-1.15Z"/><path d="M767.18,350.32v8.75a3,3,0,0,0,.84,2.28,2.9,2.9,0,0,0,2,.59,2.64,2.64,0,0,0,2-.66,2.91,2.91,0,0,0,.8-2.21v-8.75h5.6v9.77a5.37,5.37,0,0,1-1.5,4.2c-1.93,2-4.62,2.2-6.76,2.2-2.34,0-5.21-.24-7.07-2.24a5.62,5.62,0,0,1-1.47-4.16v-9.77Z"/><path d="M788.43,354.91V366h-5.6V354.91H781v-4.59h1.79v-5.14h5.6v5.14h3.18v4.59Z"/><path d="M810.3,359.18H798.65a3.91,3.91,0,0,0,1,2.62,3.15,3.15,0,0,0,2.31.77,4.33,4.33,0,0,0,1.82-.42,2.64,2.64,0,0,0,1-1h5.35a6.92,6.92,0,0,1-1.89,3.22c-1.15,1.12-3,2.17-6.37,2.17a8.84,8.84,0,0,1-6.47-2.38,8.16,8.16,0,0,1-2.31-5.91,8.37,8.37,0,0,1,2.34-6.06,8.83,8.83,0,0,1,6.41-2.27,8.57,8.57,0,0,1,6,2.13,8.77,8.77,0,0,1,2.48,6.58ZM805.16,356a3.73,3.73,0,0,0-.91-1.68,3.25,3.25,0,0,0-2.31-.84,3,3,0,0,0-2.28.84,3.27,3.27,0,0,0-.84,1.68Z"/><path d="M813.52,350.32h5.6v2.56a5.06,5.06,0,0,1,2.21-2.17,6,6,0,0,1,2.9-.63l1.12.07v5.28a4.93,4.93,0,0,0-2.41-.56,3.71,3.71,0,0,0-2.56.84,4.73,4.73,0,0,0-1.26,3.57V366h-5.6Z"/><path d="M1307.61,339.62a7.55,7.55,0,0,1,5.71,2.07,7.66,7.66,0,0,1,2,5.25,6.71,6.71,0,0,1-1.85,4.86,6.52,6.52,0,0,1-3.22,1.61l7.31,9.56H1310l-5.81-9v9h-6.06V339.62Zm-3.39,10.47h1.15a4.55,4.55,0,0,0,2.94-.95,2.86,2.86,0,0,0,.77-2,2.77,2.77,0,0,0-.8-2,4.12,4.12,0,0,0-2.91-.91h-1.15Z"/><path d="M1325.18,347.32v8.75a3,3,0,0,0,.84,2.28,2.9,2.9,0,0,0,2,.59,2.64,2.64,0,0,0,2-.66,2.91,2.91,0,0,0,.8-2.21v-8.75h5.6v9.77a5.37,5.37,0,0,1-1.5,4.2c-1.93,2-4.62,2.2-6.76,2.2-2.34,0-5.21-.24-7.07-2.24a5.62,5.62,0,0,1-1.47-4.16v-9.77Z"/><path d="M1346.43,351.91V363h-5.6V351.91H1339v-4.59h1.79v-5.14h5.6v5.14h3.18v4.59Z"/><path d="M1368.3,356.18h-11.65a3.91,3.91,0,0,0,1,2.62,3.15,3.15,0,0,0,2.31.77,4.33,4.33,0,0,0,1.82-.42,2.64,2.64,0,0,0,1-1h5.35a6.92,6.92,0,0,1-1.89,3.22c-1.15,1.12-3,2.17-6.37,2.17a8.84,8.84,0,0,1-6.47-2.38,8.16,8.16,0,0,1-2.31-5.91,8.37,8.37,0,0,1,2.34-6.06,8.83,8.83,0,0,1,6.41-2.27,8.57,8.57,0,0,1,6,2.13,8.77,8.77,0,0,1,2.48,6.58Zm-5.14-3.22a3.73,3.73,0,0,0-.91-1.68,3.25,3.25,0,0,0-2.31-.84,3,3,0,0,0-2.28.84,3.27,3.27,0,0,0-.84,1.68Z"/><path d="M1371.52,347.32h5.6v2.56a5.06,5.06,0,0,1,2.21-2.17,6,6,0,0,1,2.9-.63l1.12.07v5.28a4.93,4.93,0,0,0-2.41-.56,3.71,3.71,0,0,0-2.56.84,4.73,4.73,0,0,0-1.26,3.57V363h-5.6Z"/><path d="M1679.89,356a8.18,8.18,0,0,0,5.35,2.38,3.09,3.09,0,0,0,2.35-.81,2.08,2.08,0,0,0,.59-1.47,1.82,1.82,0,0,0-.66-1.4,8.5,8.5,0,0,0-3-1.22l-1.58-.49a7.7,7.7,0,0,1-3.36-1.89,5.88,5.88,0,0,1-1.33-4.13,7.6,7.6,0,0,1,2.14-5.64,8.23,8.23,0,0,1,6-2.2,16.43,16.43,0,0,1,7.21,1.88l-2.41,4.73a6.21,6.21,0,0,0-4-1.58,2.93,2.93,0,0,0-2,.71,1.71,1.71,0,0,0-.59,1.26,1.59,1.59,0,0,0,.31,1,3.89,3.89,0,0,0,2,1.05l1.86.56a8.84,8.84,0,0,1,4.23,2.31,5.5,5.5,0,0,1,1.51,4.16,7.91,7.91,0,0,1-2.21,5.88c-2,2-4.41,2.38-6.89,2.38a12.52,12.52,0,0,1-4.59-.77,16.56,16.56,0,0,1-3.53-1.85Z"/><path d="M1702.15,347.32l3.71,8.26,4-8.26h3.43l4,8.51,3.92-8.51h6.23L1719.16,363h-3.78l-3.92-8.61-3.75,8.61h-3.78l-8-15.65Z"/><path d="M1732.07,337.66a3.15,3.15,0,1,1-3.15,3.15A3.14,3.14,0,0,1,1732.07,337.66Zm2.8,9.66V363h-5.6V347.32Z"/><path d="M1744.88,351.91V363h-5.6V351.91h-1.78v-4.59h1.78v-5.14h5.6v5.14h3.19v4.59Z"/><path d="M1762,362.62a8.37,8.37,0,0,1-3.89.87,8.63,8.63,0,0,1-6.16-2.38,8.16,8.16,0,0,1-2.41-5.84,8.54,8.54,0,0,1,2.51-6.06,9.07,9.07,0,0,1,6.31-2.38,8,8,0,0,1,3.64.88v4.69a5,5,0,0,0-2.91-1,3.67,3.67,0,0,0-2.73,1.09,3.79,3.79,0,0,0-1.08,2.69,4,4,0,0,0,1,2.63,3.78,3.78,0,0,0,2.87,1.19,4.28,4.28,0,0,0,2.87-1.05Z"/><path d="M1765.18,337.45h5.6v11.83a7.11,7.11,0,0,1,1.75-1.54,7.16,7.16,0,0,1,7.84.91,5.46,5.46,0,0,1,1.47,4.38V363h-5.6v-7.91a4.66,4.66,0,0,0-.7-3.05,2.22,2.22,0,0,0-1.78-.66,3,3,0,0,0-2,.66,3.47,3.47,0,0,0-.94,2.56V363h-5.6Z"/><path d="M91.43,362.05H83L81.38,366H75l9-23.35h6.61L99.34,366H92.87Zm-1.61-4.62-2.63-7.56-2.55,7.56Z"/><path d="M107.11,374h-5.6V350.32h5.6V352a5.83,5.83,0,0,1,4.79-2.25,7.78,7.78,0,0,1,5.57,2.28,8.88,8.88,0,0,1-.14,12.25,7.5,7.5,0,0,1-5.36,2.17,6.66,6.66,0,0,1-4.86-2Zm.91-18.37a3.81,3.81,0,0,0-1.09,2.59,3.73,3.73,0,0,0,1.09,2.48,3.54,3.54,0,0,0,2.52,1.05,3.35,3.35,0,0,0,2.48-1.05,3.67,3.67,0,0,0,1.09-2.48,3.81,3.81,0,0,0-1.09-2.59,3.35,3.35,0,0,0-2.48-1.05A3.54,3.54,0,0,0,108,355.61Z"/><path d="M128.67,340.45V366h-5.6V340.45Z"/><path d="M135.28,340.66a3.15,3.15,0,1,1-3.15,3.15A3.14,3.14,0,0,1,135.28,340.66Zm2.8,9.66V366h-5.6V350.32Z"/><path d="M153.73,365.62a8.37,8.37,0,0,1-3.89.87,8.63,8.63,0,0,1-6.16-2.38,8.16,8.16,0,0,1-2.41-5.84,8.51,8.51,0,0,1,2.52-6.06,9,9,0,0,1,6.3-2.38,8,8,0,0,1,3.64.88v4.69a5,5,0,0,0-2.91-1,3.67,3.67,0,0,0-2.73,1.09,3.79,3.79,0,0,0-1.08,2.69,4,4,0,0,0,1,2.63,3.78,3.78,0,0,0,2.87,1.19,4.28,4.28,0,0,0,2.87-1.05Z"/><path d="M169,350.32h5.61V366H169v-1.72a5.82,5.82,0,0,1-4.86,2.24,7.51,7.51,0,0,1-5.64-2.48,7.92,7.92,0,0,1-2.24-5.74A8.67,8.67,0,0,1,158.7,352a8,8,0,0,1,5.63-2.21,6.16,6.16,0,0,1,4.69,2Zm-5.88,5.25a3.67,3.67,0,0,0-1.12,2.56,3.59,3.59,0,0,0,1.09,2.55,3.91,3.91,0,0,0,2.52,1.05,3.59,3.59,0,0,0,2.52-1.08,3.4,3.4,0,0,0,1-2.52,3.45,3.45,0,0,0-1.09-2.56,3.56,3.56,0,0,0-5,0Z"/><path d="M184.67,354.91V366h-5.6V354.91h-1.79v-4.59h1.79v-5.14h5.6v5.14h3.18v4.59Zm-5.39,12.81,5.25.56L181,374.72l-3.5-.42Z"/><path d="M192.75,340.66a3.15,3.15,0,1,1-3.15,3.15A3.14,3.14,0,0,1,192.75,340.66Zm2.8,9.66V366H190V350.32Z"/><path d="M216,359.18H204.3a4,4,0,0,0,1,2.62,3.15,3.15,0,0,0,2.31.77,4.33,4.33,0,0,0,1.82-.42,2.57,2.57,0,0,0,1-1h5.36a7.1,7.1,0,0,1-1.89,3.22c-1.16,1.12-3,2.17-6.37,2.17a8.86,8.86,0,0,1-6.48-2.38,8.2,8.2,0,0,1-2.31-5.91,8.34,8.34,0,0,1,2.35-6.06,8.79,8.79,0,0,1,6.4-2.27,8.56,8.56,0,0,1,6,2.13,8.75,8.75,0,0,1,2.49,6.58ZM210.81,356a3.73,3.73,0,0,0-.91-1.68,3.23,3.23,0,0,0-2.31-.84,3,3,0,0,0-2.27.84,3.12,3.12,0,0,0-.84,1.68Z"/><path d="M116.94,407.62a8.34,8.34,0,0,1-3.88.87,8.61,8.61,0,0,1-6.16-2.38,8.17,8.17,0,0,1-2.42-5.84,8.55,8.55,0,0,1,2.52-6.06,9,9,0,0,1,6.3-2.38,8,8,0,0,1,3.64.88v4.69a4.93,4.93,0,0,0-2.9-1,3.67,3.67,0,0,0-2.73,1.09,3.8,3.8,0,0,0-1.09,2.69,4.06,4.06,0,0,0,1,2.63,3.82,3.82,0,0,0,2.87,1.19,4.25,4.25,0,0,0,2.87-1.05Z"/><path d="M125.73,382.45V408h-5.6V382.45Z"/><path d="M132.34,382.66a3.15,3.15,0,1,1-3.15,3.15A3.14,3.14,0,0,1,132.34,382.66Zm2.8,9.66V408h-5.6V392.32Z"/><path d="M155.55,401.18H143.89a4,4,0,0,0,1,2.62,3.15,3.15,0,0,0,2.31.77,4.33,4.33,0,0,0,1.82-.42,2.57,2.57,0,0,0,1-1h5.36a7.1,7.1,0,0,1-1.89,3.22c-1.16,1.12-3,2.17-6.37,2.17a8.86,8.86,0,0,1-6.48-2.38,8.2,8.2,0,0,1-2.31-5.91,8.34,8.34,0,0,1,2.35-6.06,8.79,8.79,0,0,1,6.4-2.27,8.56,8.56,0,0,1,6,2.13,8.75,8.75,0,0,1,2.49,6.58ZM150.4,398a3.73,3.73,0,0,0-.91-1.68,3.23,3.23,0,0,0-2.31-.84,3,3,0,0,0-2.27.84,3.12,3.12,0,0,0-.84,1.68Z"/><path d="M158.77,392.32h5.6v2a5.9,5.9,0,0,1,5-2.31,6.35,6.35,0,0,1,4.62,1.68c1.33,1.33,1.47,2.66,1.47,4.38V408h-5.6v-7.91c0-.91,0-2.28-.7-3.05a2.36,2.36,0,0,0-1.79-.66,3,3,0,0,0-2.06.73,3.61,3.61,0,0,0-.91,2.49V408h-5.6Z"/><path d="M185.44,396.91V408h-5.6V396.91h-1.79v-4.59h1.79v-5.14h5.6v5.14h3.18v4.59Z"/><path d="M2049.1,368a8.18,8.18,0,0,0,5.35,2.38,3.09,3.09,0,0,0,2.35-.81,2.08,2.08,0,0,0,.59-1.47,1.82,1.82,0,0,0-.66-1.4,8.5,8.5,0,0,0-3-1.22l-1.58-.49a7.7,7.7,0,0,1-3.36-1.89,5.88,5.88,0,0,1-1.33-4.13,7.6,7.6,0,0,1,2.14-5.64,8.23,8.23,0,0,1,6-2.2,16.43,16.43,0,0,1,7.21,1.88l-2.41,4.73a6.21,6.21,0,0,0-4-1.58,2.93,2.93,0,0,0-2,.71,1.71,1.71,0,0,0-.59,1.26,1.59,1.59,0,0,0,.31,1,3.89,3.89,0,0,0,2,1.05l1.86.56a8.84,8.84,0,0,1,4.23,2.31,5.5,5.5,0,0,1,1.51,4.16,7.91,7.91,0,0,1-2.21,5.88c-2,2-4.41,2.38-6.89,2.38a12.52,12.52,0,0,1-4.59-.77,16.56,16.56,0,0,1-3.53-1.85Z"/><path d="M2083.61,368.18H2072a4,4,0,0,0,1,2.62,3.15,3.15,0,0,0,2.31.77,4.33,4.33,0,0,0,1.82-.42,2.57,2.57,0,0,0,1-1h5.36a7.1,7.1,0,0,1-1.89,3.22c-1.16,1.12-3,2.17-6.37,2.17a8.86,8.86,0,0,1-6.48-2.38,8.2,8.2,0,0,1-2.31-5.91,8.34,8.34,0,0,1,2.35-6.06,8.79,8.79,0,0,1,6.4-2.27,8.56,8.56,0,0,1,6,2.13,8.75,8.75,0,0,1,2.49,6.58Zm-5.15-3.22a3.73,3.73,0,0,0-.91-1.68,3.23,3.23,0,0,0-2.31-.84,3,3,0,0,0-2.27.84,3.12,3.12,0,0,0-.84,1.68Z"/><path d="M2086.83,359.32h5.6v2.56a5,5,0,0,1,2.2-2.17,6.07,6.07,0,0,1,2.91-.63l1.12.07v5.28a5,5,0,0,0-2.42-.56,3.68,3.68,0,0,0-2.55.84,4.73,4.73,0,0,0-1.26,3.57V375h-5.6Z"/><path d="M2105.48,359.32l3.75,8,3.81-8h6.23L2111.12,375h-3.82l-8.09-15.65Z"/><path d="M2136.91,368.18h-11.65a3.91,3.91,0,0,0,1,2.62,3.14,3.14,0,0,0,2.3.77,4.34,4.34,0,0,0,1.83-.42,2.64,2.64,0,0,0,1-1h5.35a6.92,6.92,0,0,1-1.89,3.22c-1.15,1.12-3,2.17-6.37,2.17a8.88,8.88,0,0,1-6.48-2.38,8.2,8.2,0,0,1-2.31-5.91,8.34,8.34,0,0,1,2.35-6.06,8.81,8.81,0,0,1,6.41-2.27,8.57,8.57,0,0,1,6,2.13,8.77,8.77,0,0,1,2.48,6.58Zm-5.14-3.22a3.73,3.73,0,0,0-.91-1.68,3.25,3.25,0,0,0-2.32-.84,3,3,0,0,0-2.27.84,3.19,3.19,0,0,0-.84,1.68Z"/><path d="M2140.13,359.32h5.6v2.56a5.06,5.06,0,0,1,2.21-2.17,6,6,0,0,1,2.9-.63l1.12.07v5.28a5,5,0,0,0-2.42-.56,3.68,3.68,0,0,0-2.55.84,4.73,4.73,0,0,0-1.26,3.57V375h-5.6Z"/><rect x="74.68" y="200.35" width="142.83" height="96" rx="12" ry="12" style="fill:none;stroke:#f4c240;stroke-miterlimit:10;stroke-width:5px"/><line x1="74.48" y1="221.23" x2="217.31" y2="221.23" style="fill:none;stroke:#f4c240;stroke-miterlimit:10;stroke-width:5px"/><circle cx="186.68" cy="210.5" r="3.12" style="fill:#f4c240"/><circle cx="196.82" cy="210.5" r="3.12" style="fill:#f4c240"/><circle cx="206.19" cy="210.5" r="3.12" style="fill:#f4c240"/><rect x="2030.73" y="230.8" width="136.4" height="39.71" rx="5.72" ry="5.72" style="fill:none;stroke:#f7931f;stroke-miterlimit:10;stroke-width:5px"/><circle cx="2054.04" cy="250.66" r="9.21" style="fill:none;stroke:#f7931f;stroke-miterlimit:10;stroke-width:5px"/><circle cx="2117.63" cy="250.95" r="2.88" style="fill:none;stroke:#f7931f;stroke-miterlimit:10;stroke-width:5px"/><circle cx="2127.41" cy="250.95" r="2.88" style="fill:none;stroke:#f7931f;stroke-miterlimit:10;stroke-width:5px"/><circle cx="2137.77" cy="250.95" r="2.88" style="fill:none;stroke:#f7931f;stroke-miterlimit:10;stroke-width:5px"/><circle cx="2148.13" cy="250.95" r="2.88" style="fill:none;stroke:#f7931f;stroke-miterlimit:10;stroke-width:5px"/><rect x="2030.73" y="271.03" width="136.4" height="39.71" rx="5.72" ry="5.72" style="fill:none;stroke:#f7931f;stroke-miterlimit:10;stroke-width:5px"/><circle cx="2054.04" cy="290.88" r="9.21" style="fill:none;stroke:#f7931f;stroke-miterlimit:10;stroke-width:5px"/><circle cx="2117.63" cy="291.17" r="2.88" style="fill:none;stroke:#f7931f;stroke-miterlimit:10;stroke-width:5px"/><circle cx="2127.41" cy="291.17" r="2.88" style="fill:none;stroke:#f7931f;stroke-miterlimit:10;stroke-width:5px"/><circle cx="2137.77" cy="291.17" r="2.88" style="fill:none;stroke:#f7931f;stroke-miterlimit:10;stroke-width:5px"/><circle cx="2148.13" cy="291.17" r="2.88" style="fill:none;stroke:#f7931f;stroke-miterlimit:10;stroke-width:5px"/><rect x="2030.73" y="191.09" width="136.4" height="39.71" rx="5.72" ry="5.72" style="fill:none;stroke:#f7931f;stroke-miterlimit:10;stroke-width:5px"/><circle cx="2054.04" cy="210.95" r="9.21" style="fill:none;stroke:#f7931f;stroke-miterlimit:10;stroke-width:5px"/><circle cx="2117.63" cy="211.24" r="2.88" style="fill:none;stroke:#f7931f;stroke-miterlimit:10;stroke-width:5px"/><circle cx="2127.41" cy="211.24" r="2.88" style="fill:none;stroke:#f7931f;stroke-miterlimit:10;stroke-width:5px"/><circle cx="2137.77" cy="211.24" r="2.88" style="fill:none;stroke:#f7931f;stroke-miterlimit:10;stroke-width:5px"/><circle cx="2148.13" cy="211.24" r="2.88" style="fill:none;stroke:#f7931f;stroke-miterlimit:10;stroke-width:5px"/><polygon points="272.43 265.91 380.67 265.91 380.67 281.51 413.82 248.35 380.67 215.2 380.67 230.8 272.43 230.8 272.43 265.91" style="fill:none;stroke:#3a5c84;stroke-miterlimit:10;stroke-width:5px"/><polygon points="2206.43 271.85 2314.67 271.85 2314.67 287.46 2347.82 254.3 2314.67 221.15 2314.67 236.75 2206.43 236.75 2206.43 271.85" style="fill:none;stroke:#3a5c84;stroke-miterlimit:10;stroke-width:5px"/><polygon points="1467.43 281.85 1575.67 281.85 1575.67 297.46 1608.82 264.3 1575.67 231.15 1575.67 246.75 1467.43 246.75 1467.43 281.85" style="fill:none;stroke:#3a5c84;stroke-miterlimit:10;stroke-width:5px"/><polygon points="1850.43 281.85 1958.67 281.85 1958.67 297.46 1991.82 264.3 1958.67 231.15 1958.67 246.75 1850.43 246.75 1850.43 281.85" style="fill:none;stroke:#3a5c84;stroke-miterlimit:10;stroke-width:5px"/><path d="M524.69,191.85H474.31a7.66,7.66,0,0,0-7.63,7.64v97.73a7.65,7.65,0,0,0,7.63,7.63h50.38a7.64,7.64,0,0,0,7.63-7.63V199.49A7.66,7.66,0,0,0,524.69,191.85Zm-33.25,5.51h16.12a.93.93,0,0,1,0,1.85H491.44a.93.93,0,0,1,0-1.85ZM499.5,301a3.82,3.82,0,1,1,3.82-3.82A3.82,3.82,0,0,1,499.5,301ZM527,290.73H472V204h55Z" style="fill:#91c54f"/><path d="M615.83,279.58c.25-.32,24.2-32.52-3.1-61.76l-5.23,4.88c23.13,24.78,3.48,51.44,2.64,52.55Z" style="fill:#3a5c84"/><path d="M597.4,234c14.44,14.52,2.08,30.29,1.56,31l5.56,4.5a29.77,29.77,0,0,0-2-40.5Z" style="fill:#3a5c84"/><path d="M623.3,290.2c.73-.81,18-19.75,16.75-44.25-.73-14.52-7.78-27.79-21-39.44l-4.74,5.36c11.66,10.31,17.91,21.88,18.56,34.38v.05C634,267.74,618.2,285.18,618,285.35Z" style="fill:#3a5c84"/><path d="M1046,268.92a2.6,2.6,0,0,1,1.83-4.42,2.63,2.63,0,0,1,1.85.8,2.6,2.6,0,0,1,0,3.62,2.53,2.53,0,0,1-1.82.78A2.55,2.55,0,0,1,1046,268.92Z"/><path d="M1053.55,268.92a2.54,2.54,0,0,1,0-3.64,2.53,2.53,0,0,1,1.82-.78,2.62,2.62,0,0,1,1.85.8,2.58,2.58,0,0,1,0,3.62,2.56,2.56,0,0,1-1.83.78A2.53,2.53,0,0,1,1053.55,268.92Z"/><path d="M1061.13,268.92a2.6,2.6,0,0,1,1.82-4.42,2.63,2.63,0,0,1,1.85.8,2.6,2.6,0,0,1,0,3.62,2.51,2.51,0,0,1-3.64,0Z"/><path d="M2402.43,360.05H2394l-1.58,3.92H2386l9-23.35h6.61l8.79,23.35h-6.47Zm-1.61-4.62-2.63-7.56-2.55,7.56Z"/><path d="M2418.11,372h-5.6V348.32h5.6V350a5.83,5.83,0,0,1,4.79-2.25,7.78,7.78,0,0,1,5.57,2.28,8.88,8.88,0,0,1-.14,12.25,7.5,7.5,0,0,1-5.36,2.17,6.66,6.66,0,0,1-4.86-2Zm.91-18.37a3.81,3.81,0,0,0-1.09,2.59,3.73,3.73,0,0,0,1.09,2.48,3.54,3.54,0,0,0,2.52,1.05,3.35,3.35,0,0,0,2.48-1.05,3.67,3.67,0,0,0,1.09-2.48,3.81,3.81,0,0,0-1.09-2.59,3.35,3.35,0,0,0-2.48-1.05A3.54,3.54,0,0,0,2419,353.61Z"/><path d="M2439.67,338.45V364h-5.6V338.45Z"/><path d="M2446.28,338.66a3.15,3.15,0,1,1-3.15,3.15A3.14,3.14,0,0,1,2446.28,338.66Zm2.8,9.66V364h-5.6V348.32Z"/><path d="M2464.73,363.62a8.37,8.37,0,0,1-3.89.87,8.63,8.63,0,0,1-6.16-2.38,8.16,8.16,0,0,1-2.41-5.84,8.51,8.51,0,0,1,2.52-6.06,9,9,0,0,1,6.3-2.38,7.91,7.91,0,0,1,3.64.88v4.69a5,5,0,0,0-2.91-1,3.67,3.67,0,0,0-2.73,1.09,3.79,3.79,0,0,0-1.08,2.69,4,4,0,0,0,1,2.63,3.78,3.78,0,0,0,2.87,1.19,4.28,4.28,0,0,0,2.87-1.05Z"/><path d="M2480,348.32h5.61V364H2480v-1.72a5.82,5.82,0,0,1-4.86,2.24,7.51,7.51,0,0,1-5.64-2.48,7.92,7.92,0,0,1-2.24-5.74,8.67,8.67,0,0,1,2.42-6.27,8,8,0,0,1,5.63-2.21,6.16,6.16,0,0,1,4.69,2Zm-5.88,5.25a3.67,3.67,0,0,0-1.12,2.56,3.59,3.59,0,0,0,1.09,2.55,3.91,3.91,0,0,0,2.52,1.05,3.59,3.59,0,0,0,2.52-1.08,3.4,3.4,0,0,0,1-2.52,3.45,3.45,0,0,0-1.09-2.56,3.56,3.56,0,0,0-5,0Z"/><path d="M2495.67,352.91V364h-5.6V352.91h-1.79v-4.59h1.79v-5.15h5.6v5.15h3.18v4.59Zm-5.39,12.81,5.25.56-3.57,6.44-3.5-.42Z"/><path d="M2503.75,338.66a3.15,3.15,0,1,1-3.15,3.15A3.14,3.14,0,0,1,2503.75,338.66Zm2.8,9.66V364H2501V348.32Z"/><path d="M2527,357.18H2515.3a4,4,0,0,0,1,2.62,3.15,3.15,0,0,0,2.31.77,4.33,4.33,0,0,0,1.82-.42,2.57,2.57,0,0,0,1-1h5.36a7.1,7.1,0,0,1-1.89,3.22c-1.16,1.12-3,2.17-6.37,2.17a8.86,8.86,0,0,1-6.48-2.38,8.2,8.2,0,0,1-2.31-5.91,8.34,8.34,0,0,1,2.35-6.06,8.79,8.79,0,0,1,6.4-2.27,8.56,8.56,0,0,1,6,2.13,8.75,8.75,0,0,1,2.49,6.58Zm-5.15-3.22a3.73,3.73,0,0,0-.91-1.68,3.23,3.23,0,0,0-2.31-.84,3,3,0,0,0-2.27.84,3.12,3.12,0,0,0-.84,1.68Z"/><path d="M2408.45,400.79a7.8,7.8,0,0,0,2.24,1.15,7.12,7.12,0,0,0,2.17.39,2.39,2.39,0,0,0,1.43-.42.9.9,0,0,0,.28-.74.82.82,0,0,0-.28-.7,3.56,3.56,0,0,0-1.47-.56l-1.47-.35a5,5,0,0,1-2.73-1.36,3.82,3.82,0,0,1-1-2.7,5.56,5.56,0,0,1,1.47-3.81,7.88,7.88,0,0,1,5.6-1.9,12.77,12.77,0,0,1,5,1l-1.89,3.57a7.72,7.72,0,0,0-2.94-.77,2.35,2.35,0,0,0-1.29.32.83.83,0,0,0-.49.77.9.9,0,0,0,.66.87c.53.21,1,.21,1.86.46l1,.28a6.6,6.6,0,0,1,2.31,1.22,4.44,4.44,0,0,1,1.19,3.12,5.21,5.21,0,0,1-1.57,3.88c-1.82,1.82-4.48,2-5.78,2a11.51,11.51,0,0,1-6.3-1.82Z"/><path d="M2439.56,399.18h-11.65a3.91,3.91,0,0,0,1,2.62,3.15,3.15,0,0,0,2.31.77,4.33,4.33,0,0,0,1.82-.42,2.64,2.64,0,0,0,1-1h5.35a6.92,6.92,0,0,1-1.89,3.22c-1.15,1.12-3,2.17-6.37,2.17a8.84,8.84,0,0,1-6.47-2.38,8.16,8.16,0,0,1-2.31-5.91,8.37,8.37,0,0,1,2.34-6.06,8.83,8.83,0,0,1,6.41-2.27,8.57,8.57,0,0,1,6,2.13,8.77,8.77,0,0,1,2.48,6.58Zm-5.14-3.22a3.73,3.73,0,0,0-.91-1.68,3.25,3.25,0,0,0-2.31-.84,3,3,0,0,0-2.28.84,3.27,3.27,0,0,0-.84,1.68Z"/><path d="M2442.78,390.32h5.6v2.56a5.06,5.06,0,0,1,2.21-2.17,6,6,0,0,1,2.9-.63l1.12.07v5.28a4.93,4.93,0,0,0-2.41-.56,3.71,3.71,0,0,0-2.56.84,4.73,4.73,0,0,0-1.26,3.57V406h-5.6Z"/><path d="M2461.44,390.32l3.74,8,3.82-8h6.23L2467.07,406h-3.81l-8.09-15.65Z"/><path d="M2492.87,399.18h-11.66a4,4,0,0,0,1,2.62,3.15,3.15,0,0,0,2.31.77,4.33,4.33,0,0,0,1.82-.42,2.57,2.57,0,0,0,1-1h5.36a7.1,7.1,0,0,1-1.89,3.22c-1.16,1.12-3,2.17-6.37,2.17a8.86,8.86,0,0,1-6.48-2.38,8.2,8.2,0,0,1-2.31-5.91,8.34,8.34,0,0,1,2.35-6.06,8.79,8.79,0,0,1,6.4-2.27,8.56,8.56,0,0,1,6,2.13,8.75,8.75,0,0,1,2.49,6.58Zm-5.15-3.22a3.73,3.73,0,0,0-.91-1.68,3.23,3.23,0,0,0-2.31-.84,3,3,0,0,0-2.27.84,3.12,3.12,0,0,0-.84,1.68Z"/><path d="M2496.09,390.32h5.6v2.56a5,5,0,0,1,2.2-2.17,6.07,6.07,0,0,1,2.91-.63l1.12.07v5.28a5,5,0,0,0-2.42-.56,3.68,3.68,0,0,0-2.55.84,4.73,4.73,0,0,0-1.26,3.57V406h-5.6Z"/><rect x="2385.68" y="203.23" width="142.83" height="96" rx="12" ry="12" style="fill:none;stroke:#f4c240;stroke-miterlimit:10;stroke-width:5px"/><line x1="2385.48" y1="224.11" x2="2528.31" y2="224.11" style="fill:none;stroke:#f4c240;stroke-miterlimit:10;stroke-width:5px"/><circle cx="2497.68" cy="213.38" r="3.12" style="fill:#f4c240"/><circle cx="2507.82" cy="213.38" r="3.12" style="fill:#f4c240"/><circle cx="2517.19" cy="213.38" r="3.12" style="fill:#f4c240"/><rect x="702" y="245.01" width="150" height="56.01" rx="12" ry="12" style="fill:none;stroke:#c13018;stroke-miterlimit:10;stroke-width:5px"/><rect x="719.5" y="301.6" width="18" height="10" rx="5" ry="5" style="fill:none;stroke:#c13018;stroke-miterlimit:10;stroke-width:5px"/><rect x="822.5" y="301.6" width="18" height="10" rx="5" ry="5" style="fill:none;stroke:#c13018;stroke-miterlimit:10;stroke-width:5px"/><circle cx="720.79" cy="285.75" r="5.32" style="fill:#c13018"/><circle cx="736.05" cy="285.75" r="5.32" style="fill:#c13018"/><circle cx="751.68" cy="285.76" r="5.32" style="fill:#c13018"/><rect x="789.79" y="270.84" width="45.21" height="4.38" rx="0.82" ry="0.82" style="fill:none;stroke:#c13018;stroke-miterlimit:10;stroke-width:5px"/><path d="M734.5,213.16V188.6a3.5,3.5,0,0,0-7,0v24.56a3,3,0,0,0-2.5,2.94v26a3,3,0,0,0,3,3h6a3,3,0,0,0,3-3v-26A3,3,0,0,0,734.5,213.16Z" style="fill:none;stroke:#c13018;stroke-miterlimit:10;stroke-width:5px"/><path d="M826.5,213.16V188.6a3.5,3.5,0,0,0-7,0v24.56a3,3,0,0,0-2.5,2.94v26a3,3,0,0,0,3,3h6a3,3,0,0,0,3-3v-26A3,3,0,0,0,826.5,213.16Z" style="fill:none;stroke:#c13018;stroke-miterlimit:10;stroke-width:5px"/><rect x="1260" y="242.01" width="150" height="56.01" rx="12" ry="12" style="fill:none;stroke:#c13018;stroke-miterlimit:10;stroke-width:5px"/><rect x="1277.5" y="298.6" width="18" height="10" rx="5" ry="5" style="fill:none;stroke:#c13018;stroke-miterlimit:10;stroke-width:5px"/><rect x="1380.5" y="298.6" width="18" height="10" rx="5" ry="5" style="fill:none;stroke:#c13018;stroke-miterlimit:10;stroke-width:5px"/><circle cx="1278.79" cy="282.75" r="5.32" style="fill:#c13018"/><circle cx="1294.05" cy="282.75" r="5.32" style="fill:#c13018"/><circle cx="1309.68" cy="282.76" r="5.32" style="fill:#c13018"/><rect x="1347.79" y="267.84" width="45.21" height="4.38" rx="0.82" ry="0.82" style="fill:none;stroke:#c13018;stroke-miterlimit:10;stroke-width:5px"/><path d="M1292.5,210.16V185.6a3.5,3.5,0,1,0-7,0v24.56a3,3,0,0,0-2.5,2.94v26a3,3,0,0,0,3,3h6a3,3,0,0,0,3-3v-26A3,3,0,0,0,1292.5,210.16Z" style="fill:none;stroke:#c13018;stroke-miterlimit:10;stroke-width:5px"/><path d="M1384.5,210.16V185.6a3.5,3.5,0,1,0-7,0v24.56a3,3,0,0,0-2.5,2.94v26a3,3,0,0,0,3,3h6a3,3,0,0,0,3-3v-26A3,3,0,0,0,1384.5,210.16Z" style="fill:none;stroke:#c13018;stroke-miterlimit:10;stroke-width:5px"/><polygon points="1746.22 267.3 1713.76 267.22 1713.75 271.92 1703.78 261.91 1713.8 251.94 1713.79 256.4 1746.25 256.48 1746.26 251.78 1756.23 261.8 1746.21 271.76 1746.22 267.3" style="fill:none;stroke:#f7931f;stroke-miterlimit:10;stroke-width:3.21418609013491px"/><rect x="1655" y="234.06" width="150" height="56.01" rx="12" ry="12" style="fill:none;stroke:#f7931f;stroke-miterlimit:10;stroke-width:5px"/><rect x="1672.5" y="290.65" width="18" height="10" rx="5" ry="5" style="fill:none;stroke:#f7931f;stroke-miterlimit:10;stroke-width:5px"/><rect x="1775.5" y="290.65" width="18" height="10" rx="5" ry="5" style="fill:none;stroke:#f7931f;stroke-miterlimit:10;stroke-width:5px"/><rect x="889" y="264" width="94" height="10" rx="5" ry="5" style="fill:#3a5c84"/><rect x="1133" y="261" width="94" height="10" rx="5" ry="5" style="fill:#3a5c84"/><rect x="39" y="58.5" width="972" height="406.5" rx="12" ry="12" style="fill:none;stroke:#636868;stroke-miterlimit:10;stroke-width:5.38079840293162px"/><rect x="1099.5" y="58.5" width="1472" height="407" rx="12" ry="12" style="fill:none;stroke:#636868;stroke-miterlimit:10;stroke-width:5.38410661007042px"/><path d="M410.29,77.7A7.56,7.56,0,0,1,416,79.76,7.71,7.71,0,0,1,418,85a6.72,6.72,0,0,1-1.86,4.87,6.6,6.6,0,0,1-3.22,1.61l7.32,9.56h-7.53l-5.81-9v9h-6.06V77.7ZM406.9,88.16h1.15a4.58,4.58,0,0,0,2.95-.94,2.94,2.94,0,0,0,.76-2,2.73,2.73,0,0,0-.8-2,4.12,4.12,0,0,0-2.91-.91H406.9Z"/><path d="M438.86,94.25H427.2a3.91,3.91,0,0,0,1,2.63,3.15,3.15,0,0,0,2.31.77,4.33,4.33,0,0,0,1.82-.42,2.64,2.64,0,0,0,1-1h5.36a7.1,7.1,0,0,1-1.89,3.22c-1.16,1.12-3,2.17-6.38,2.17a8.84,8.84,0,0,1-6.47-2.38,8.16,8.16,0,0,1-2.31-5.91,8.37,8.37,0,0,1,2.34-6.06,8.83,8.83,0,0,1,6.41-2.28,8.57,8.57,0,0,1,6,2.14,8.75,8.75,0,0,1,2.49,6.58ZM433.71,91a3.76,3.76,0,0,0-.91-1.69,3.28,3.28,0,0,0-2.31-.84,3,3,0,0,0-2.28.84,3.18,3.18,0,0,0-.83,1.69Z"/><path d="M448.27,90v11.07h-5.6V90h-1.79V85.4h1.79V80.25h5.6V85.4h3.19V90Zm-5.39,12.82,5.25.56-3.57,6.44-3.5-.42Z"/><path d="M470.14,94.25H458.49a3.91,3.91,0,0,0,1,2.63,3.15,3.15,0,0,0,2.31.77,4.33,4.33,0,0,0,1.82-.42,2.64,2.64,0,0,0,1-1h5.35A6.92,6.92,0,0,1,468,99.4c-1.15,1.12-3,2.17-6.37,2.17a8.84,8.84,0,0,1-6.47-2.38,8.16,8.16,0,0,1-2.31-5.91,8.37,8.37,0,0,1,2.34-6.06,8.83,8.83,0,0,1,6.41-2.28,8.58,8.58,0,0,1,6,2.14,8.73,8.73,0,0,1,2.48,6.58ZM465,91a3.76,3.76,0,0,0-.91-1.69,3.29,3.29,0,0,0-2.31-.84,3,3,0,0,0-2.28.84,3.26,3.26,0,0,0-.84,1.69Z"/><path d="M485.47,85.4h5.6v15.65h-5.6V99.33a5.82,5.82,0,0,1-4.86,2.24A7.51,7.51,0,0,1,475,99.09a7.93,7.93,0,0,1-2.24-5.75,8.64,8.64,0,0,1,2.42-6.26,8,8,0,0,1,5.63-2.21,6.2,6.2,0,0,1,4.69,2Zm-5.88,5.25a3.65,3.65,0,0,0-1.12,2.56,3.59,3.59,0,0,0,1.09,2.55,3.91,3.91,0,0,0,2.52,1,3.59,3.59,0,0,0,2.52-1.08,3.42,3.42,0,0,0,1-2.52,3.45,3.45,0,0,0-1.09-2.56,3.54,3.54,0,0,0-5,0Z"/><path d="M508.68,75.53v25.52h-5.6V75.53Z"/><path d="M528.24,99a10.7,10.7,0,0,1-14,0,8.06,8.06,0,0,1,0-11.52,9.75,9.75,0,0,1,7-2.59,9.89,9.89,0,0,1,7,2.59,8.06,8.06,0,0,1,0,11.52Zm-9.48-8.33a3.46,3.46,0,0,0,0,5,3.5,3.5,0,0,0,5,0,3.44,3.44,0,0,0,1.09-2.48,3.59,3.59,0,0,0-6.09-2.56Z"/><path d="M545.71,100.7a8.37,8.37,0,0,1-3.89.87,8.63,8.63,0,0,1-6.16-2.38,8.17,8.17,0,0,1-2.41-5.85,8.51,8.51,0,0,1,2.52-6,9,9,0,0,1,6.3-2.38,8,8,0,0,1,3.64.87v4.69a5.05,5.05,0,0,0-2.91-1,3.67,3.67,0,0,0-2.73,1.08,3.81,3.81,0,0,0-1.08,2.7,4,4,0,0,0,1,2.63,3.78,3.78,0,0,0,2.87,1.19,4.28,4.28,0,0,0,2.87-1Z"/><path d="M561,85.4h5.6v15.65H561V99.33a5.82,5.82,0,0,1-4.86,2.24,7.51,7.51,0,0,1-5.64-2.48,7.93,7.93,0,0,1-2.24-5.75,8.64,8.64,0,0,1,2.42-6.26,8,8,0,0,1,5.63-2.21,6.2,6.2,0,0,1,4.69,2Zm-5.88,5.25A3.65,3.65,0,0,0,554,93.21a3.59,3.59,0,0,0,1.09,2.55,3.91,3.91,0,0,0,2.52,1,3.59,3.59,0,0,0,2.52-1.08,3.42,3.42,0,0,0,1-2.52,3.45,3.45,0,0,0-1.09-2.56,3.54,3.54,0,0,0-5,0Z"/><path d="M576.05,75.53v25.52h-5.6V75.53Z"/><path d="M592,85.4h5.6v15.65H592V99.33a5.84,5.84,0,0,1-4.87,2.24,7.49,7.49,0,0,1-5.63-2.48,7.89,7.89,0,0,1-2.24-5.75,8.64,8.64,0,0,1,2.41-6.26,8.07,8.07,0,0,1,5.64-2.21,6.22,6.22,0,0,1,4.69,2Zm3.08-8.05a5.55,5.55,0,0,1-1.54,3.81,7.34,7.34,0,0,1-9.1,0,5.46,5.46,0,0,1-1.54-3.81h3.6a2.4,2.4,0,0,0,.7,1.43,2.84,2.84,0,0,0,3.57,0,2.4,2.4,0,0,0,.7-1.43Zm-9,13.3A3.65,3.65,0,0,0,585,93.21a3.58,3.58,0,0,0,1.08,2.55,4,4,0,0,0,2.52,1,3.59,3.59,0,0,0,2.52-1.08,3.42,3.42,0,0,0,1-2.52,3.48,3.48,0,0,0-1.08-2.56,3.54,3.54,0,0,0-5,0Z"/><path d="M1749.91,100.42a14.45,14.45,0,0,1-5.25,1.15,12.71,12.71,0,0,1-9-3.5,12.28,12.28,0,0,1-3.53-8.51,12.24,12.24,0,0,1,12.35-12.25,14.57,14.57,0,0,1,5.46,1.19v7.25a6.49,6.49,0,0,0-5.28-2.56,5.93,5.93,0,0,0-4.2,1.54,6.5,6.5,0,0,0-2,4.8,6,6,0,0,0,6.23,6.16,6.86,6.86,0,0,0,5.28-2.45Z"/><path d="M1769.83,94.25h-11.66a4,4,0,0,0,1,2.63,3.15,3.15,0,0,0,2.31.77,4.33,4.33,0,0,0,1.82-.42,2.57,2.57,0,0,0,1-1h5.36a7.1,7.1,0,0,1-1.89,3.22c-1.16,1.12-3,2.17-6.37,2.17a8.86,8.86,0,0,1-6.48-2.38,8.2,8.2,0,0,1-2.31-5.91,8.34,8.34,0,0,1,2.35-6.06,8.79,8.79,0,0,1,6.4-2.28,8.57,8.57,0,0,1,6,2.14,8.75,8.75,0,0,1,2.49,6.58ZM1764.68,91a3.76,3.76,0,0,0-.91-1.69,3.28,3.28,0,0,0-2.31-.84,3,3,0,0,0-2.27.84,3.12,3.12,0,0,0-.84,1.69Z"/><path d="M1773.05,85.4h5.6v2a5.9,5.9,0,0,1,5-2.31,6.31,6.31,0,0,1,4.62,1.68c1.33,1.33,1.47,2.66,1.47,4.37v10h-5.6V93.13c0-.91,0-2.27-.7-3a2.37,2.37,0,0,0-1.79-.67,3.05,3.05,0,0,0-2.06.74,3.58,3.58,0,0,0-.91,2.48v8.41h-5.6Z"/><path d="M1799.72,90v11.07h-5.6V90h-1.79V85.4h1.79V80.25h5.6V85.4h3.18V90Z"/><path d="M1805,85.4h5.6V88a5.06,5.06,0,0,1,2.21-2.17,6.15,6.15,0,0,1,2.9-.63c.14,0,.39,0,1.12.07v5.29a4.93,4.93,0,0,0-2.41-.56,3.66,3.66,0,0,0-2.56.84,4.73,4.73,0,0,0-1.26,3.57v6.69H1805Z"/><path d="M1824.92,85.4v8.75a3,3,0,0,0,.84,2.28,2.88,2.88,0,0,0,2,.59,2.62,2.62,0,0,0,2-.66,2.92,2.92,0,0,0,.81-2.21V85.4h5.6v9.77a5.38,5.38,0,0,1-1.51,4.2c-1.92,2-4.62,2.2-6.75,2.2-2.35,0-5.22-.24-7.07-2.24a5.59,5.59,0,0,1-1.48-4.16V85.4Z"/><path d="M1865.83,101.05h-5.6V99.33a5.75,5.75,0,0,1-4.73,2.24A7.46,7.46,0,0,1,1850,99.4,8.89,8.89,0,0,1,1850,87a8,8,0,0,1,5.53-2.1,6.22,6.22,0,0,1,4.66,2V75.53h5.6Zm-6.62-5.18a3.76,3.76,0,0,0,1.2-2.66,4.08,4.08,0,0,0-1.06-2.53,3.59,3.59,0,0,0-5,0,3.84,3.84,0,0,0-1.08,2.66,3.53,3.53,0,0,0,1.08,2.45,3.48,3.48,0,0,0,2.49,1A3.82,3.82,0,0,0,1859.21,95.87Z"/><path d="M1886.27,94.25h-11.66a4,4,0,0,0,1,2.63,3.15,3.15,0,0,0,2.31.77,4.33,4.33,0,0,0,1.82-.42,2.57,2.57,0,0,0,1-1h5.36a7,7,0,0,1-1.89,3.22c-1.16,1.12-3,2.17-6.37,2.17a8.86,8.86,0,0,1-6.48-2.38,8.2,8.2,0,0,1-2.31-5.91,8.34,8.34,0,0,1,2.35-6.06,8.79,8.79,0,0,1,6.4-2.28,8.57,8.57,0,0,1,6,2.14,8.75,8.75,0,0,1,2.49,6.58ZM1881.12,91a3.76,3.76,0,0,0-.91-1.69,3.28,3.28,0,0,0-2.31-.84,3,3,0,0,0-2.27.84,3.12,3.12,0,0,0-.84,1.69Z"/><path d="M1915.35,101.05h-5.6V99.33a5.73,5.73,0,0,1-4.72,2.24,7.48,7.48,0,0,1-5.5-2.17,8.64,8.64,0,0,1-2.52-6.23,8.53,8.53,0,0,1,2.56-6.2,8,8,0,0,1,5.53-2.1,6.2,6.2,0,0,1,4.65,2V75.53h5.6Zm-6.61-5.18a3.79,3.79,0,0,0,1.19-2.66,4.12,4.12,0,0,0-1-2.53,3.45,3.45,0,0,0-2.56-1.05,3.42,3.42,0,0,0-2.48,1,3.85,3.85,0,0,0-1.09,2.66,3.66,3.66,0,0,0,3.57,3.5A3.87,3.87,0,0,0,1908.74,95.87Z"/><path d="M1931.31,85.4h5.6v15.65h-5.6V99.33a5.82,5.82,0,0,1-4.86,2.24,7.51,7.51,0,0,1-5.64-2.48,7.93,7.93,0,0,1-2.24-5.75,8.64,8.64,0,0,1,2.42-6.26,8,8,0,0,1,5.63-2.21,6.2,6.2,0,0,1,4.69,2Zm-5.88,5.25a3.65,3.65,0,0,0-1.12,2.56,3.59,3.59,0,0,0,1.09,2.55,3.91,3.91,0,0,0,2.52,1,3.59,3.59,0,0,0,2.52-1.08,3.42,3.42,0,0,0,1-2.52,3.45,3.45,0,0,0-1.09-2.56,3.54,3.54,0,0,0-5,0Z"/><path d="M1947,90v11.07h-5.6V90h-1.79V85.4h1.79V80.25h5.6V85.4h3.18V90Z"/><path d="M1968.83,94.25h-11.65a3.91,3.91,0,0,0,1,2.63,3.15,3.15,0,0,0,2.31.77,4.33,4.33,0,0,0,1.82-.42,2.64,2.64,0,0,0,1-1h5.35a6.92,6.92,0,0,1-1.89,3.22c-1.15,1.12-3,2.17-6.37,2.17a8.84,8.84,0,0,1-6.47-2.38,8.16,8.16,0,0,1-2.31-5.91,8.37,8.37,0,0,1,2.34-6.06,8.83,8.83,0,0,1,6.41-2.28,8.58,8.58,0,0,1,6,2.14,8.77,8.77,0,0,1,2.48,6.58ZM1963.69,91a3.76,3.76,0,0,0-.91-1.69,3.29,3.29,0,0,0-2.31-.84,3,3,0,0,0-2.28.84,3.26,3.26,0,0,0-.84,1.69Z"/></svg>