<svg id="Layer_1" data-name="Layer 1" xmlns="http://www.w3.org/2000/svg" viewBox="0 0 1112 872"><title>Cap 11 -</title><path d="M228.22,194.83a3.25,3.25,0,0,0,4.59-4.6,42.29,42.29,0,0,0-59.74,0,3.27,3.27,0,0,0-.95,2.3,3.25,3.25,0,0,0,5.54,2.3A35.79,35.79,0,0,1,228.22,194.83Z" style="fill:#91c54f"/><path d="M202.7,210.36a9.69,9.69,0,0,1,6.89,2.86,3.25,3.25,0,0,0,4.6-4.6,16.26,16.26,0,0,0-23,0,3.25,3.25,0,1,0,4.6,4.6A9.71,9.71,0,0,1,202.7,210.36Z" style="fill:#91c54f"/><path d="M218.78,204a3.25,3.25,0,0,0,4.59-4.6,29.28,29.28,0,0,0-41.36,0,3.27,3.27,0,0,0-.95,2.3,3.25,3.25,0,0,0,5.54,2.3A22.78,22.78,0,0,1,218.78,204Z" style="fill:#91c54f"/><rect x="58.52" y="267.06" width="185.46" height="45.14" rx="22.5" ry="22.5" style="fill:none;stroke:#91c54f;stroke-miterlimit:10;stroke-width:5px"/><circle cx="77.01" cy="289.9" r="5.98" style="fill:none;stroke:#91c54f;stroke-miterlimit:10;stroke-width:5px"/><circle cx="103.84" cy="289.9" r="5.98" style="fill:none;stroke:#91c54f;stroke-miterlimit:10;stroke-width:5px"/><circle cx="130.67" cy="289.9" r="5.98" style="fill:none;stroke:#91c54f;stroke-miterlimit:10;stroke-width:5px"/><circle cx="157.5" cy="289.9" r="5.98" style="fill:none;stroke:#91c54f;stroke-miterlimit:10;stroke-width:5px"/><rect x="180.35" y="287.18" width="52.21" height="6.53" rx="3.26" ry="3.26" style="fill:#91c54f"/><rect x="177.08" y="238.78" width="52.21" height="6.53" rx="3.26" ry="3.26" transform="translate(-38.86 445.23) rotate(-90)" style="fill:#91c54f"/><rect x="801.75" y="143.2" width="263" height="193" rx="12" ry="12" style="fill:none;stroke:#3a5c84;stroke-miterlimit:10;stroke-width:5px"/><rect x="859" y="177.35" width="148" height="89.21" rx="12" ry="12" style="fill:none;stroke:#91c54f;stroke-miterlimit:10;stroke-width:5px"/><rect x="909.18" y="266.05" width="47.64" height="16.22" rx="4.38" ry="4.38" style="fill:#91c54f"/><rect x="878.26" y="280.75" width="109.48" height="22.3" rx="6.03" ry="6.03" style="fill:none;stroke:#91c54f;stroke-miterlimit:10;stroke-width:5px"/><circle cx="890.42" cy="288.86" r="2.03" style="fill:#91c54f"/><circle cx="896.24" cy="288.86" r="2.03" style="fill:#91c54f"/><circle cx="890.42" cy="294.94" r="2.03" style="fill:#91c54f"/><circle cx="896.24" cy="294.94" r="2.03" style="fill:#91c54f"/><rect x="949.22" y="289.87" width="31.42" height="3.04" rx="0.82" ry="0.82" style="fill:none;stroke:#91c54f;stroke-miterlimit:10;stroke-width:5px"/><path d="M126.24,361.06a6.47,6.47,0,0,1,4.89,1.77,6.58,6.58,0,0,1,1.7,4.5,5.81,5.81,0,0,1-1.58,4.17,5.65,5.65,0,0,1-2.76,1.38l6.26,8.19h-6.44l-5-7.68v7.68h-5.19v-20Zm-2.91,9h1a3.86,3.86,0,0,0,2.51-.81,2.45,2.45,0,0,0,.67-1.68,2.36,2.36,0,0,0-.69-1.68,3.52,3.52,0,0,0-2.49-.78h-1Z"/><path d="M150,379.3a9.18,9.18,0,0,1-12,0,6.92,6.92,0,0,1,0-9.87,8.37,8.37,0,0,1,6-2.22,8.47,8.47,0,0,1,6,2.22,6.94,6.94,0,0,1,0,9.87Zm-8.13-7.14a3.06,3.06,0,0,0,2.16,5.22,3.05,3.05,0,0,0,2.13-.9,3,3,0,0,0,.92-2.13,3.24,3.24,0,0,0-.92-2.19,3.08,3.08,0,0,0-4.29,0Z"/><path d="M159.63,367.66v7.5a2.53,2.53,0,0,0,.72,1.95,2.47,2.47,0,0,0,1.67.51,2.23,2.23,0,0,0,1.71-.57,2.49,2.49,0,0,0,.69-1.89v-7.5h4.8V376a4.6,4.6,0,0,1-1.29,3.6c-1.65,1.71-4,1.89-5.78,1.89-2,0-4.47-.21-6.07-1.92a4.85,4.85,0,0,1-1.25-3.57v-8.37Z"/><path d="M177.83,371.59v9.48H173v-9.48H171.5v-3.93H173v-4.41h4.79v4.41h2.73v3.93Z"/><path d="M196.58,375.25h-10a3.39,3.39,0,0,0,.84,2.25,2.7,2.7,0,0,0,2,.66,3.79,3.79,0,0,0,1.56-.36,2.23,2.23,0,0,0,.84-.9h4.59a6,6,0,0,1-1.62,2.76c-1,1-2.55,1.86-5.46,1.86a7.61,7.61,0,0,1-5.55-2,7,7,0,0,1-2-5.07,7.16,7.16,0,0,1,2-5.19,7.55,7.55,0,0,1,5.49-2,7.35,7.35,0,0,1,5.16,1.83,7.51,7.51,0,0,1,2.13,5.64Zm-4.41-2.76a3.22,3.22,0,0,0-.78-1.44,2.8,2.8,0,0,0-2-.72,2.58,2.58,0,0,0-1.95.72,2.74,2.74,0,0,0-.72,1.44Z"/><path d="M199.34,367.66h4.8v2.19A4.33,4.33,0,0,1,206,368a5.24,5.24,0,0,1,2.49-.54l1,.06V372a4.23,4.23,0,0,0-2.07-.48,3.14,3.14,0,0,0-2.19.72,4,4,0,0,0-1.08,3.06v5.73h-4.8Z"/><path d="M73.1,409.55a12,12,0,0,1,0-13.62,4.86,4.86,0,0,1,7.55,0,12,12,0,0,1,0,13.62,4.86,4.86,0,0,1-7.55,0Zm1.53-11.8a11.38,11.38,0,0,0,0,10,2.52,2.52,0,0,0,4.49,0,11.38,11.38,0,0,0,0-10,2.52,2.52,0,0,0-4.49,0Z"/><path d="M87.3,409.55a12,12,0,0,1,0-13.62,4.86,4.86,0,0,1,7.55,0,12,12,0,0,1,0,13.62,4.86,4.86,0,0,1-7.55,0Zm1.52-11.8a11.47,11.47,0,0,0,0,10,2.52,2.52,0,0,0,4.5,0,11.38,11.38,0,0,0,0-10,2.53,2.53,0,0,0-4.5,0Z"/><path d="M101.17,400.27a1.5,1.5,0,1,1-1.49,1.5A1.5,1.5,0,0,1,101.17,400.27Zm0,8.13a1.5,1.5,0,1,1-1.49,1.5A1.5,1.5,0,0,1,101.17,408.4Z"/><path d="M107.5,409.55a12,12,0,0,1,0-13.62,4.86,4.86,0,0,1,7.55,0,12,12,0,0,1,0,13.62,4.86,4.86,0,0,1-7.55,0Zm1.52-11.8a11.47,11.47,0,0,0,0,10,2.52,2.52,0,0,0,4.5,0,11.38,11.38,0,0,0,0-10,2.53,2.53,0,0,0-4.5,0Z"/><path d="M121.7,409.55a12,12,0,0,1,0-13.62,4.86,4.86,0,0,1,7.55,0,12,12,0,0,1,0,13.62,4.86,4.86,0,0,1-7.55,0Zm1.52-11.8a11.38,11.38,0,0,0,0,10,2.52,2.52,0,0,0,4.5,0,11.38,11.38,0,0,0,0-10,2.53,2.53,0,0,0-4.5,0Z"/><path d="M135.57,400.27a1.5,1.5,0,1,1-1.5,1.5A1.5,1.5,0,0,1,135.57,400.27Zm0,8.13a1.5,1.5,0,1,1-1.5,1.5A1.5,1.5,0,0,1,135.57,408.4Z"/><path d="M141.9,409.55a12,12,0,0,1,0-13.62,4.86,4.86,0,0,1,7.55,0,12,12,0,0,1,0,13.62,4.86,4.86,0,0,1-7.55,0Zm1.52-11.8a11.38,11.38,0,0,0,0,10,2.52,2.52,0,0,0,4.5,0,11.38,11.38,0,0,0,0-10,2.53,2.53,0,0,0-4.5,0Z"/><path d="M162.47,403.77a4.12,4.12,0,0,0-3-1.3,3.16,3.16,0,0,0-2.33.93,3.36,3.36,0,0,0-.9,2.42,3.52,3.52,0,0,0,.95,2.53,3.22,3.22,0,0,0,2.23.85,4.09,4.09,0,0,0,3-1.35v2.72a5.7,5.7,0,0,1-3.2.83,5.13,5.13,0,0,1-4-1.55,5.49,5.49,0,0,1-1.5-4,5.65,5.65,0,0,1,1.6-4.08,5.75,5.75,0,0,1,4.23-1.55,5.67,5.67,0,0,1,2.87.75Z"/><path d="M166.27,400.27a1.5,1.5,0,1,1-1.5,1.5A1.5,1.5,0,0,1,166.27,400.27Zm0,8.13a1.5,1.5,0,1,1-1.5,1.5A1.5,1.5,0,0,1,166.27,408.4Z"/><path d="M178.52,400.55H181v10.52h-2.45V410a4,4,0,0,1-3.15,1.43c-3.25,0-5.1-2.7-5.1-5.6,0-3.43,2.35-5.53,5.13-5.53a3.83,3.83,0,0,1,3.12,1.5Zm-5.75,5.3a3.08,3.08,0,0,0,2.93,3.35,3,3,0,0,0,3-3.33c0-2.3-1.42-3.4-3-3.4C173.92,402.47,172.77,404,172.77,405.85Z"/><path d="M186.52,401.77a3.84,3.84,0,0,1,3.13-1.5c2.77,0,5.12,2.1,5.12,5.53,0,2.9-1.85,5.6-5.1,5.6a4.06,4.06,0,0,1-3.15-1.43v1.1h-2.45V392.85h2.45Zm-.15,4.1a3,3,0,0,0,3,3.33,3.07,3.07,0,0,0,2.92-3.35c0-1.88-1.15-3.38-2.92-3.38C187.8,402.47,186.37,403.57,186.37,405.87Z"/><path d="M198.77,400.27a1.5,1.5,0,1,1-1.5,1.5A1.5,1.5,0,0,1,198.77,400.27Zm0,8.13a1.5,1.5,0,1,1-1.5,1.5A1.5,1.5,0,0,1,198.77,408.4Z"/><path d="M211.47,403.77a4.12,4.12,0,0,0-3-1.3,3.16,3.16,0,0,0-2.33.93,3.36,3.36,0,0,0-.9,2.42,3.52,3.52,0,0,0,.95,2.53,3.22,3.22,0,0,0,2.23.85,4.09,4.09,0,0,0,3-1.35v2.72a5.7,5.7,0,0,1-3.2.83,5.13,5.13,0,0,1-4-1.55,5.49,5.49,0,0,1-1.5-4,5.65,5.65,0,0,1,1.6-4.08,5.75,5.75,0,0,1,4.23-1.55,5.67,5.67,0,0,1,2.87.75Z"/><path d="M221.52,392.85H224v18.22h-2.45V410a4,4,0,0,1-3.15,1.43c-3.25,0-5.1-2.7-5.1-5.6,0-3.43,2.35-5.53,5.13-5.53a3.83,3.83,0,0,1,3.12,1.5Zm-5.75,13a3.08,3.08,0,0,0,2.93,3.35,3,3,0,0,0,3-3.33c0-2.3-1.42-3.4-3-3.4C216.92,402.47,215.77,404,215.77,405.85Z"/><path d="M228.52,400.27a1.5,1.5,0,1,1-1.5,1.5A1.5,1.5,0,0,1,228.52,400.27Zm0,8.13a1.5,1.5,0,1,1-1.5,1.5A1.5,1.5,0,0,1,228.52,408.4Z"/><path d="M241.22,403.77a4.12,4.12,0,0,0-3-1.3,3.16,3.16,0,0,0-2.33.93,3.36,3.36,0,0,0-.9,2.42,3.52,3.52,0,0,0,.95,2.53,3.22,3.22,0,0,0,2.23.85,4.09,4.09,0,0,0,3-1.35v2.72a5.7,5.7,0,0,1-3.2.83,5.13,5.13,0,0,1-4-1.55,5.49,5.49,0,0,1-1.5-4,5.65,5.65,0,0,1,1.6-4.08,5.75,5.75,0,0,1,4.23-1.55,5.67,5.67,0,0,1,2.87.75Z"/><path d="M248.27,396.75h-2.9l1.4-2.35h4v16.67h-2.55Z"/><path d="M110.26,426.75h-2.9l1.4-2.35h4v16.67h-2.55Z"/><path d="M118.41,440.27l3.93-5a4.13,4.13,0,0,1-.9.1,5.37,5.37,0,0,1-3.9-1.55A5.2,5.2,0,0,1,116,430a6,6,0,0,1,1.65-4.17,6.36,6.36,0,0,1,8.6-.05,5.23,5.23,0,0,1,1.45,3.77,6.49,6.49,0,0,1-.8,3.17,16.71,16.71,0,0,1-2,3l-4.63,5.95Zm5.83-8.1a3.67,3.67,0,0,0,1-2.47,3.31,3.31,0,0,0-1-2.37,3.44,3.44,0,0,0-4.75,0,3.38,3.38,0,0,0,2.35,5.84A3.33,3.33,0,0,0,124.24,432.17Z"/><path d="M140.14,441.07h-11.2l5.77-7c.58-.7,1.45-1.8,2-2.6a4.08,4.08,0,0,0,.88-2.39,2.61,2.61,0,0,0-2.78-2.7,3,3,0,0,0-2.95,3h-2.45a6.06,6.06,0,0,1,1.4-3.65,5,5,0,0,1,3.9-1.62c3.55,0,5.38,2.42,5.38,5a6.19,6.19,0,0,1-1.2,3.5,34.81,34.81,0,0,1-2.38,3l-2.6,3.07h6.23Z"/><path d="M145.29,438.37a1.5,1.5,0,1,1-1.5,1.5A1.51,1.51,0,0,1,145.29,438.37Z"/><path d="M151.29,426.75h-2.9l1.4-2.35h4.05v16.67h-2.55Z"/><path d="M167,425.2l-4,5a5.52,5.52,0,0,1,1.05-.09,5.17,5.17,0,0,1,3.85,1.54,5.74,5.74,0,0,1,1.47,3.9,5.53,5.53,0,0,1-5.94,5.78,5.62,5.62,0,0,1-4.3-1.63,5.25,5.25,0,0,1-1.45-3.77,6.52,6.52,0,0,1,.8-3.2,16.26,16.26,0,0,1,2-3l4.63-5.95Zm-5.83,8a3.48,3.48,0,0,0-1,2.48,3.54,3.54,0,0,0,1,2.47,3.85,3.85,0,0,0,2.4.93,3.42,3.42,0,0,0,2.35-.93,3.64,3.64,0,0,0,1-2.47,3.68,3.68,0,0,0-1-2.48,3.47,3.47,0,0,0-2.35-.92A3.66,3.66,0,0,0,161.16,433.22Z"/><path d="M182.23,433.75a4,4,0,0,1,.75,2.5,5,5,0,0,1-1.32,3.55,5.74,5.74,0,0,1-7.85,0,5,5,0,0,1-1.32-3.55,3.94,3.94,0,0,1,2.5-3.85,3.41,3.41,0,0,1-1.48-1.25,4.41,4.41,0,0,1-.6-2.27,4.83,4.83,0,1,1,9.65,0,4.41,4.41,0,0,1-.6,2.27,3.37,3.37,0,0,1-1.47,1.25A4,4,0,0,1,182.23,433.75Zm-6.47.52a3,3,0,0,0,0,4,2.78,2.78,0,0,0,4,0,3,3,0,0,0,0-4,2.92,2.92,0,0,0-4,0Zm.15-7.22a2.66,2.66,0,0,0-.7,1.85,2.45,2.45,0,0,0,.68,1.75,2.66,2.66,0,0,0,3.7,0,2.49,2.49,0,0,0,.67-1.75,2.61,2.61,0,0,0-4.35-1.85Z"/><path d="M187.84,438.37a1.5,1.5,0,1,1-1.5,1.5A1.51,1.51,0,0,1,187.84,438.37Z"/><path d="M194.16,439.55a12,12,0,0,1,0-13.62,4.86,4.86,0,0,1,7.55,0,12,12,0,0,1,0,13.62,4.86,4.86,0,0,1-7.55,0Zm1.53-11.8a11.38,11.38,0,0,0,0,10,2.52,2.52,0,0,0,4.49,0,11.38,11.38,0,0,0,0-10,2.52,2.52,0,0,0-4.49,0Z"/><path d="M208,438.37a1.5,1.5,0,1,1-1.5,1.5A1.51,1.51,0,0,1,208,438.37Z"/><path d="M214,426.75h-2.89l1.4-2.35h4v16.67H214Z"/><path d="M926,359.44v6.63h-5.18v-20h8.27a6.88,6.88,0,0,1,5.07,1.8,6.17,6.17,0,0,1,1.86,4.86,6.47,6.47,0,0,1-1.77,5,6.64,6.64,0,0,1-5,1.74Zm0-4.2h1.74a3.4,3.4,0,0,0,2.2-.63,2.28,2.28,0,0,0,.65-1.83,2.43,2.43,0,0,0-.6-1.8,3,3,0,0,0-2.21-.72H926Z"/><path d="M953.13,365.53a12.44,12.44,0,0,1-4.5,1,10.91,10.91,0,0,1-7.75-3,10.53,10.53,0,0,1-3-7.29,10.48,10.48,0,0,1,10.59-10.5,12.48,12.48,0,0,1,4.68,1V353a5.59,5.59,0,0,0-4.54-2.19,5,5,0,0,0-3.59,1.32,5.6,5.6,0,0,0-1.75,4.11,5.14,5.14,0,0,0,5.34,5.28,5.89,5.89,0,0,0,4.54-2.1Z"/><path d="M968.33,350.47h-2.85v-4.41h8v20h-5.19Z"/><path d="M859.1,394.55a12,12,0,0,1,0-13.62,4.86,4.86,0,0,1,7.55,0,12,12,0,0,1,0,13.62,4.86,4.86,0,0,1-7.55,0Zm1.53-11.8a11.38,11.38,0,0,0,0,10,2.52,2.52,0,0,0,4.49,0,11.38,11.38,0,0,0,0-10,2.52,2.52,0,0,0-4.49,0Z"/><path d="M873.3,394.55a12,12,0,0,1,0-13.62,4.86,4.86,0,0,1,7.55,0,12,12,0,0,1,0,13.62,4.86,4.86,0,0,1-7.55,0Zm1.52-11.8a11.47,11.47,0,0,0,0,10,2.52,2.52,0,0,0,4.5,0,11.38,11.38,0,0,0,0-10,2.53,2.53,0,0,0-4.5,0Z"/><path d="M887.17,385.27a1.5,1.5,0,1,1-1.49,1.5A1.5,1.5,0,0,1,887.17,385.27Zm0,8.13a1.5,1.5,0,1,1-1.49,1.5A1.5,1.5,0,0,1,887.17,393.4Z"/><path d="M893.5,394.55a12,12,0,0,1,0-13.62,4.86,4.86,0,0,1,7.55,0,12,12,0,0,1,0,13.62,4.86,4.86,0,0,1-7.55,0Zm1.52-11.8a11.47,11.47,0,0,0,0,10,2.52,2.52,0,0,0,4.5,0,11.38,11.38,0,0,0,0-10,2.53,2.53,0,0,0-4.5,0Z"/><path d="M907.7,394.55a12,12,0,0,1,0-13.62,4.86,4.86,0,0,1,7.55,0,12,12,0,0,1,0,13.62,4.86,4.86,0,0,1-7.55,0Zm1.52-11.8a11.38,11.38,0,0,0,0,10,2.52,2.52,0,0,0,4.5,0,11.38,11.38,0,0,0,0-10,2.53,2.53,0,0,0-4.5,0Z"/><path d="M921.57,385.27a1.5,1.5,0,1,1-1.5,1.5A1.5,1.5,0,0,1,921.57,385.27Zm0,8.13a1.5,1.5,0,1,1-1.5,1.5A1.5,1.5,0,0,1,921.57,393.4Z"/><path d="M927.9,394.55a12,12,0,0,1,0-13.62,4.86,4.86,0,0,1,7.55,0,12,12,0,0,1,0,13.62,4.86,4.86,0,0,1-7.55,0Zm1.52-11.8a11.38,11.38,0,0,0,0,10,2.52,2.52,0,0,0,4.5,0,11.38,11.38,0,0,0,0-10,2.53,2.53,0,0,0-4.5,0Z"/><path d="M948.47,388.77a4.14,4.14,0,0,0-3-1.29,3.16,3.16,0,0,0-2.33.92,3.36,3.36,0,0,0-.9,2.42,3.52,3.52,0,0,0,1,2.53,3.22,3.22,0,0,0,2.23.85,4.09,4.09,0,0,0,3-1.35v2.72a5.7,5.7,0,0,1-3.2.83,5.13,5.13,0,0,1-4-1.55,5.49,5.49,0,0,1-1.5-4,5.65,5.65,0,0,1,1.6-4.08,5.75,5.75,0,0,1,4.23-1.55,5.67,5.67,0,0,1,2.87.75Z"/><path d="M952.27,385.27a1.5,1.5,0,1,1-1.5,1.5A1.5,1.5,0,0,1,952.27,385.27Zm0,8.13a1.5,1.5,0,1,1-1.5,1.5A1.5,1.5,0,0,1,952.27,393.4Z"/><path d="M964.52,385.55H967v10.52h-2.45V395a4,4,0,0,1-3.15,1.43c-3.25,0-5.1-2.7-5.1-5.6,0-3.43,2.35-5.53,5.13-5.53a3.86,3.86,0,0,1,3.12,1.5Zm-5.75,5.3a3.08,3.08,0,0,0,2.93,3.35,3,3,0,0,0,3-3.33c0-2.3-1.42-3.39-3-3.39C959.92,387.48,958.77,389,958.77,390.85Z"/><path d="M972.52,386.77a3.87,3.87,0,0,1,3.13-1.5c2.77,0,5.12,2.1,5.12,5.53,0,2.9-1.85,5.6-5.1,5.6a4.06,4.06,0,0,1-3.15-1.43v1.1h-2.45V377.85h2.45Zm-.15,4.1a3,3,0,0,0,3,3.33,3.07,3.07,0,0,0,2.92-3.35c0-1.88-1.15-3.37-2.92-3.37C973.8,387.48,972.37,388.57,972.37,390.87Z"/><path d="M984.77,385.27a1.5,1.5,0,1,1-1.5,1.5A1.5,1.5,0,0,1,984.77,385.27Zm0,8.13a1.5,1.5,0,1,1-1.5,1.5A1.5,1.5,0,0,1,984.77,393.4Z"/><path d="M997.47,388.77a4.14,4.14,0,0,0-3-1.29,3.16,3.16,0,0,0-2.33.92,3.36,3.36,0,0,0-.9,2.42,3.52,3.52,0,0,0,1,2.53,3.22,3.22,0,0,0,2.23.85,4.09,4.09,0,0,0,3-1.35v2.72a5.7,5.7,0,0,1-3.2.83,5.13,5.13,0,0,1-4-1.55,5.49,5.49,0,0,1-1.5-4,5.65,5.65,0,0,1,1.6-4.08,5.75,5.75,0,0,1,4.23-1.55,5.67,5.67,0,0,1,2.87.75Z"/><path d="M1007.52,377.85H1010v18.22h-2.45V395a4,4,0,0,1-3.15,1.43c-3.25,0-5.1-2.7-5.1-5.6,0-3.43,2.35-5.53,5.13-5.53a3.86,3.86,0,0,1,3.12,1.5Zm-5.75,13a3.08,3.08,0,0,0,2.93,3.35,3,3,0,0,0,3-3.33c0-2.3-1.42-3.39-3-3.39C1002.92,387.48,1001.77,389,1001.77,390.85Z"/><path d="M1014.52,385.27a1.5,1.5,0,1,1-1.5,1.5A1.5,1.5,0,0,1,1014.52,385.27Zm0,8.13a1.5,1.5,0,1,1-1.5,1.5A1.5,1.5,0,0,1,1014.52,393.4Z"/><path d="M1027.22,388.77a4.14,4.14,0,0,0-3-1.29,3.16,3.16,0,0,0-2.33.92,3.36,3.36,0,0,0-.9,2.42,3.52,3.52,0,0,0,1,2.53,3.22,3.22,0,0,0,2.23.85,4.09,4.09,0,0,0,3-1.35v2.72a5.7,5.7,0,0,1-3.2.83,5.13,5.13,0,0,1-4-1.55,5.49,5.49,0,0,1-1.5-4,5.65,5.65,0,0,1,1.6-4.08,5.75,5.75,0,0,1,4.23-1.55,5.67,5.67,0,0,1,2.87.75Z"/><path d="M1029.72,383.65a4.91,4.91,0,0,1,1.43-3.25,5,5,0,0,1,3.65-1.27,4.64,4.64,0,0,1,3.6,1.37,4.36,4.36,0,0,1,1.2,3.18,4,4,0,0,1-.58,2.2,3.84,3.84,0,0,1-1.5,1.39,3.41,3.41,0,0,1,1.65,1.33,4.57,4.57,0,0,1,.7,2.57,5.21,5.21,0,0,1-1.42,3.73,5.57,5.57,0,0,1-4.08,1.45,4.8,4.8,0,0,1-3.72-1.4,6.15,6.15,0,0,1-1.43-3.4h2.45a3.31,3.31,0,0,0,.9,1.8,2.88,2.88,0,0,0,2,.75,3,3,0,0,0,2-.7,3.18,3.18,0,0,0,.87-2.35,2.66,2.66,0,0,0-.75-2,3,3,0,0,0-2.15-.75h-.5v-2.14h.35a2.91,2.91,0,0,0,2.13-.73,2.47,2.47,0,0,0,.65-1.77,2.32,2.32,0,0,0-.65-1.68,2.47,2.47,0,0,0-1.78-.62,2.43,2.43,0,0,0-1.85.67,3,3,0,0,0-.7,1.6Z"/><path d="M894.64,411.75h-2.9l1.4-2.35h4.05v16.67h-2.55Z"/><path d="M902.79,425.27l3.92-5a4.07,4.07,0,0,1-.9.1,5.41,5.41,0,0,1-3.9-1.55,5.19,5.19,0,0,1-1.52-3.8,6,6,0,0,1,1.65-4.17,6.34,6.34,0,0,1,8.59-.05,5.23,5.23,0,0,1,1.45,3.77,6.59,6.59,0,0,1-.79,3.17,17.28,17.28,0,0,1-2,3l-4.62,5.95Zm5.82-8.1a3.64,3.64,0,0,0,1-2.47,3.28,3.28,0,0,0-1-2.37,3.5,3.5,0,0,0-2.37-.95,3.57,3.57,0,0,0-2.38.95,3.48,3.48,0,0,0-1,2.45,3.23,3.23,0,0,0,3.32,3.39A3.33,3.33,0,0,0,908.61,417.17Z"/><path d="M924.51,426.07h-11.2l5.78-7c.57-.7,1.45-1.8,2-2.6a4.14,4.14,0,0,0,.87-2.39,2.6,2.6,0,0,0-2.77-2.7,3,3,0,0,0-3,3h-2.45a6,6,0,0,1,1.4-3.65,5,5,0,0,1,3.9-1.62c3.55,0,5.37,2.42,5.37,5a6.12,6.12,0,0,1-1.2,3.5,34.46,34.46,0,0,1-2.37,3l-2.6,3.07h6.22Z"/><path d="M929.66,423.37a1.5,1.5,0,1,1-1.5,1.5A1.5,1.5,0,0,1,929.66,423.37Z"/><path d="M935.66,411.75h-2.9l1.4-2.35h4.05v16.67h-2.55Z"/><path d="M951.36,410.2l-4,5a5.45,5.45,0,0,1,1.05-.09,5.19,5.19,0,0,1,3.85,1.54,5.74,5.74,0,0,1,1.47,3.9,5.55,5.55,0,0,1-6,5.78,5.64,5.64,0,0,1-4.3-1.63,5.3,5.3,0,0,1-1.45-3.77,6.63,6.63,0,0,1,.8-3.2,16.81,16.81,0,0,1,2-3l4.62-5.95Zm-5.82,8a3.49,3.49,0,0,0-1,2.48,3.55,3.55,0,0,0,1,2.47,3.81,3.81,0,0,0,2.4.93,3.46,3.46,0,0,0,2.35-.93,3.67,3.67,0,0,0,1-2.47,3.72,3.72,0,0,0-1-2.48,3.49,3.49,0,0,0-2.35-.92A3.66,3.66,0,0,0,945.54,418.22Z"/><path d="M966.61,418.75a4,4,0,0,1,.75,2.5A5,5,0,0,1,966,424.8a5.74,5.74,0,0,1-7.85,0,5,5,0,0,1-1.33-3.55,3.94,3.94,0,0,1,2.5-3.85,3.37,3.37,0,0,1-1.47-1.25,4.32,4.32,0,0,1-.6-2.27,4.82,4.82,0,1,1,9.64,0,4.32,4.32,0,0,1-.6,2.27,3.32,3.32,0,0,1-1.47,1.25A4.09,4.09,0,0,1,966.61,418.75Zm-6.47.52a3,3,0,0,0,0,4,2.78,2.78,0,0,0,4,0,3,3,0,0,0,0-4,2.92,2.92,0,0,0-4,0Zm.15-7.22a2.62,2.62,0,0,0-.7,1.85,2.49,2.49,0,0,0,.67,1.75,2.66,2.66,0,0,0,3.7,0,2.44,2.44,0,0,0,.67-1.75,2.35,2.35,0,0,0-2.52-2.52A2.61,2.61,0,0,0,960.29,412.05Z"/><path d="M972.21,423.37a1.5,1.5,0,1,1-1.5,1.5A1.5,1.5,0,0,1,972.21,423.37Z"/><path d="M978.54,424.55a12,12,0,0,1,0-13.62,4.85,4.85,0,0,1,7.54,0,12,12,0,0,1,0,13.62,4.85,4.85,0,0,1-7.54,0Zm1.52-11.8a11.38,11.38,0,0,0,0,10,2.52,2.52,0,0,0,4.5,0,11.38,11.38,0,0,0,0-10,2.53,2.53,0,0,0-4.5,0Z"/><path d="M992.41,423.37a1.5,1.5,0,1,1-1.5,1.5A1.5,1.5,0,0,1,992.41,423.37Z"/><path d="M1006.61,420.57h1.8v2.35h-1.8v3.15h-2.45v-3.15h-8.25l10.7-14.74Zm-2.45.05v-5.37l-3.8,5.37Z"/><rect x="755.75" y="543.2" width="263" height="193" rx="12" ry="12" style="fill:none;stroke:#3a5c84;stroke-miterlimit:10;stroke-width:5px"/><rect x="813" y="577.35" width="148" height="89.21" rx="12" ry="12" style="fill:none;stroke:#91c54f;stroke-miterlimit:10;stroke-width:5px"/><rect x="863.18" y="666.05" width="47.64" height="16.22" rx="4.38" ry="4.38" style="fill:#91c54f"/><rect x="832.26" y="680.75" width="109.48" height="22.3" rx="6.03" ry="6.03" style="fill:none;stroke:#91c54f;stroke-miterlimit:10;stroke-width:5px"/><circle cx="844.42" cy="688.86" r="2.03" style="fill:#91c54f"/><circle cx="850.24" cy="688.86" r="2.03" style="fill:#91c54f"/><circle cx="844.42" cy="694.94" r="2.03" style="fill:#91c54f"/><circle cx="850.24" cy="694.94" r="2.03" style="fill:#91c54f"/><rect x="903.22" y="689.87" width="31.42" height="3.04" rx="0.82" ry="0.82" style="fill:none;stroke:#91c54f;stroke-miterlimit:10;stroke-width:5px"/><path d="M880,759.44v6.63h-5.18v-20h8.27a6.88,6.88,0,0,1,5.07,1.8,6.17,6.17,0,0,1,1.86,4.86,6.47,6.47,0,0,1-1.77,5,6.64,6.64,0,0,1-5,1.74Zm0-4.2h1.74a3.4,3.4,0,0,0,2.2-.63,2.28,2.28,0,0,0,.65-1.83,2.43,2.43,0,0,0-.6-1.8,3,3,0,0,0-2.21-.72H880Z"/><path d="M907.13,765.53a12.44,12.44,0,0,1-4.5,1,10.91,10.91,0,0,1-7.75-3,10.53,10.53,0,0,1-3-7.29,10.48,10.48,0,0,1,10.59-10.5,12.48,12.48,0,0,1,4.68,1V753a5.59,5.59,0,0,0-4.54-2.19,5,5,0,0,0-3.59,1.32,5.6,5.6,0,0,0-1.75,4.11,5.14,5.14,0,0,0,5.34,5.28,5.89,5.89,0,0,0,4.54-2.1Z"/><path d="M932.14,766.07h-16l5.07-5.31a33.14,33.14,0,0,0,4.11-5.07,5.63,5.63,0,0,0,1.08-3.12,3,3,0,0,0-.6-1.92,1.94,1.94,0,0,0-1.46-.6,2.19,2.19,0,0,0-1.75.81,5,5,0,0,0-.72,2.46h-5.36a8,8,0,0,1,2.21-5.55,8.62,8.62,0,0,1,11.31-.09,6.68,6.68,0,0,1,1.95,4.92c0,2.52-1.17,4.26-3,5.94l-3.36,3.12h6.54Z"/><path d="M813.1,794.55a12,12,0,0,1,0-13.62,4.86,4.86,0,0,1,7.55,0,12,12,0,0,1,0,13.62,4.86,4.86,0,0,1-7.55,0Zm1.53-11.8a11.38,11.38,0,0,0,0,10,2.52,2.52,0,0,0,4.49,0,11.38,11.38,0,0,0,0-10,2.52,2.52,0,0,0-4.49,0Z"/><path d="M827.3,794.55a12,12,0,0,1,0-13.62,4.86,4.86,0,0,1,7.55,0,12,12,0,0,1,0,13.62,4.86,4.86,0,0,1-7.55,0Zm1.52-11.8a11.47,11.47,0,0,0,0,10,2.52,2.52,0,0,0,4.5,0,11.38,11.38,0,0,0,0-10,2.53,2.53,0,0,0-4.5,0Z"/><path d="M841.17,785.27a1.5,1.5,0,1,1-1.49,1.5A1.5,1.5,0,0,1,841.17,785.27Zm0,8.13a1.5,1.5,0,1,1-1.49,1.5A1.5,1.5,0,0,1,841.17,793.4Z"/><path d="M847.5,794.55a12,12,0,0,1,0-13.62,4.86,4.86,0,0,1,7.55,0,12,12,0,0,1,0,13.62,4.86,4.86,0,0,1-7.55,0Zm1.52-11.8a11.47,11.47,0,0,0,0,10,2.52,2.52,0,0,0,4.5,0,11.38,11.38,0,0,0,0-10,2.53,2.53,0,0,0-4.5,0Z"/><path d="M861.7,794.55a12,12,0,0,1,0-13.62,4.86,4.86,0,0,1,7.55,0,12,12,0,0,1,0,13.62,4.86,4.86,0,0,1-7.55,0Zm1.52-11.8a11.38,11.38,0,0,0,0,10,2.52,2.52,0,0,0,4.5,0,11.38,11.38,0,0,0,0-10,2.53,2.53,0,0,0-4.5,0Z"/><path d="M875.57,785.27a1.5,1.5,0,1,1-1.5,1.5A1.5,1.5,0,0,1,875.57,785.27Zm0,8.13a1.5,1.5,0,1,1-1.5,1.5A1.5,1.5,0,0,1,875.57,793.4Z"/><path d="M881.9,794.55a12,12,0,0,1,0-13.62,4.86,4.86,0,0,1,7.55,0,12,12,0,0,1,0,13.62,4.86,4.86,0,0,1-7.55,0Zm1.52-11.8a11.38,11.38,0,0,0,0,10,2.52,2.52,0,0,0,4.5,0,11.38,11.38,0,0,0,0-10,2.53,2.53,0,0,0-4.5,0Z"/><path d="M902.47,788.77a4.12,4.12,0,0,0-3-1.3,3.16,3.16,0,0,0-2.33.93,3.36,3.36,0,0,0-.9,2.42,3.52,3.52,0,0,0,1,2.53,3.22,3.22,0,0,0,2.23.85,4.09,4.09,0,0,0,3-1.35v2.72a5.7,5.7,0,0,1-3.2.83,5.13,5.13,0,0,1-4-1.55,5.49,5.49,0,0,1-1.5-4,5.65,5.65,0,0,1,1.6-4.08,5.75,5.75,0,0,1,4.23-1.55,5.67,5.67,0,0,1,2.87.75Z"/><path d="M906.27,785.27a1.5,1.5,0,1,1-1.5,1.5A1.5,1.5,0,0,1,906.27,785.27Zm0,8.13a1.5,1.5,0,1,1-1.5,1.5A1.5,1.5,0,0,1,906.27,793.4Z"/><path d="M918.52,785.55H921v10.52h-2.45V795a4,4,0,0,1-3.15,1.43c-3.25,0-5.1-2.7-5.1-5.6,0-3.43,2.35-5.53,5.13-5.53a3.83,3.83,0,0,1,3.12,1.5Zm-5.75,5.3a3.08,3.08,0,0,0,2.93,3.35,3,3,0,0,0,3-3.33c0-2.3-1.42-3.4-3-3.4C913.92,787.47,912.77,789,912.77,790.85Z"/><path d="M926.52,786.77a3.84,3.84,0,0,1,3.13-1.5c2.77,0,5.12,2.1,5.12,5.53,0,2.9-1.85,5.6-5.1,5.6a4.06,4.06,0,0,1-3.15-1.43v1.1h-2.45V777.85h2.45Zm-.15,4.1a3,3,0,0,0,3,3.33,3.07,3.07,0,0,0,2.92-3.35c0-1.88-1.15-3.38-2.92-3.38C927.8,787.47,926.37,788.57,926.37,790.87Z"/><path d="M938.77,785.27a1.5,1.5,0,1,1-1.5,1.5A1.5,1.5,0,0,1,938.77,785.27Zm0,8.13a1.5,1.5,0,1,1-1.5,1.5A1.5,1.5,0,0,1,938.77,793.4Z"/><path d="M951.47,788.77a4.12,4.12,0,0,0-3-1.3,3.16,3.16,0,0,0-2.33.93,3.36,3.36,0,0,0-.9,2.42,3.52,3.52,0,0,0,1,2.53,3.22,3.22,0,0,0,2.23.85,4.09,4.09,0,0,0,3-1.35v2.72a5.7,5.7,0,0,1-3.2.83,5.13,5.13,0,0,1-4-1.55,5.49,5.49,0,0,1-1.5-4,5.65,5.65,0,0,1,1.6-4.08,5.75,5.75,0,0,1,4.23-1.55,5.67,5.67,0,0,1,2.87.75Z"/><path d="M961.52,777.85H964v18.22h-2.45V795a4,4,0,0,1-3.15,1.43c-3.25,0-5.1-2.7-5.1-5.6,0-3.43,2.35-5.53,5.13-5.53a3.83,3.83,0,0,1,3.12,1.5Zm-5.75,13a3.08,3.08,0,0,0,2.93,3.35,3,3,0,0,0,3-3.33c0-2.3-1.42-3.4-3-3.4C956.92,787.47,955.77,789,955.77,790.85Z"/><path d="M968.52,785.27a1.5,1.5,0,1,1-1.5,1.5A1.5,1.5,0,0,1,968.52,785.27Zm0,8.13a1.5,1.5,0,1,1-1.5,1.5A1.5,1.5,0,0,1,968.52,793.4Z"/><path d="M981.22,788.77a4.12,4.12,0,0,0-3-1.3,3.16,3.16,0,0,0-2.33.93,3.36,3.36,0,0,0-.9,2.42,3.52,3.52,0,0,0,1,2.53,3.22,3.22,0,0,0,2.23.85,4.09,4.09,0,0,0,3-1.35v2.72a5.7,5.7,0,0,1-3.2.83,5.13,5.13,0,0,1-4-1.55,5.49,5.49,0,0,1-1.5-4,5.65,5.65,0,0,1,1.6-4.08,5.75,5.75,0,0,1,4.23-1.55,5.67,5.67,0,0,1,2.87.75Z"/><path d="M993.22,790.57H995v2.35h-1.8v3.15h-2.45v-3.15h-8.25l10.7-14.74Zm-2.45,0v-5.37l-3.8,5.37Z"/><path d="M848.64,811.75h-2.9l1.4-2.35h4.05v16.67h-2.55Z"/><path d="M856.79,825.27l3.92-5a4.07,4.07,0,0,1-.9.1,5.41,5.41,0,0,1-3.9-1.55,5.19,5.19,0,0,1-1.52-3.8,6,6,0,0,1,1.65-4.17,6.34,6.34,0,0,1,8.59-.05,5.23,5.23,0,0,1,1.45,3.77,6.59,6.59,0,0,1-.79,3.17,17.28,17.28,0,0,1-2,3l-4.62,5.95Zm5.82-8.1a3.64,3.64,0,0,0,1-2.47,3.28,3.28,0,0,0-1-2.37,3.5,3.5,0,0,0-2.37-1,3.57,3.57,0,0,0-2.38,1,3.48,3.48,0,0,0-1,2.45,3.23,3.23,0,0,0,3.32,3.39A3.33,3.33,0,0,0,862.61,817.17Z"/><path d="M878.51,826.07h-11.2l5.78-7c.57-.7,1.45-1.8,2-2.6a4.14,4.14,0,0,0,.87-2.39,2.6,2.6,0,0,0-2.77-2.7,3,3,0,0,0-3,3h-2.45a6,6,0,0,1,1.4-3.65,5,5,0,0,1,3.9-1.62c3.55,0,5.37,2.42,5.37,5a6.12,6.12,0,0,1-1.2,3.5,34.46,34.46,0,0,1-2.37,3l-2.6,3.07h6.22Z"/><path d="M883.66,823.37a1.5,1.5,0,1,1-1.5,1.5A1.5,1.5,0,0,1,883.66,823.37Z"/><path d="M889.66,811.75h-2.9l1.4-2.35h4.05v16.67h-2.55Z"/><path d="M905.36,810.2l-4,5a5.45,5.45,0,0,1,1.05-.09,5.19,5.19,0,0,1,3.85,1.54,5.74,5.74,0,0,1,1.47,3.9,5.55,5.55,0,0,1-6,5.78,5.64,5.64,0,0,1-4.3-1.63,5.3,5.3,0,0,1-1.45-3.77,6.63,6.63,0,0,1,.8-3.2,16.81,16.81,0,0,1,2-3l4.62-5.95Zm-5.82,8a3.49,3.49,0,0,0-1,2.48,3.55,3.55,0,0,0,1,2.47,3.81,3.81,0,0,0,2.4.93,3.46,3.46,0,0,0,2.35-.93,3.67,3.67,0,0,0,1-2.47,3.72,3.72,0,0,0-1-2.48,3.49,3.49,0,0,0-2.35-.92A3.66,3.66,0,0,0,899.54,818.22Z"/><path d="M920.61,818.75a4,4,0,0,1,.75,2.5A5,5,0,0,1,920,824.8a5.74,5.74,0,0,1-7.85,0,5,5,0,0,1-1.33-3.55,3.94,3.94,0,0,1,2.5-3.85,3.37,3.37,0,0,1-1.47-1.25,4.32,4.32,0,0,1-.6-2.27,4.82,4.82,0,1,1,9.64,0,4.32,4.32,0,0,1-.6,2.27,3.32,3.32,0,0,1-1.47,1.25A4.09,4.09,0,0,1,920.61,818.75Zm-6.47.52a3,3,0,0,0,0,4,2.78,2.78,0,0,0,4,0,3,3,0,0,0,0-4,2.92,2.92,0,0,0-4,0Zm.15-7.22a2.62,2.62,0,0,0-.7,1.85,2.49,2.49,0,0,0,.67,1.75,2.66,2.66,0,0,0,3.7,0,2.44,2.44,0,0,0,.67-1.75,2.35,2.35,0,0,0-2.52-2.52A2.61,2.61,0,0,0,914.29,812.05Z"/><path d="M926.21,823.37a1.5,1.5,0,1,1-1.5,1.5A1.5,1.5,0,0,1,926.21,823.37Z"/><path d="M932.54,824.55a12,12,0,0,1,0-13.62,4.85,4.85,0,0,1,7.54,0,12,12,0,0,1,0,13.62,4.85,4.85,0,0,1-7.54,0Zm1.52-11.8a11.38,11.38,0,0,0,0,10,2.52,2.52,0,0,0,4.5,0,11.38,11.38,0,0,0,0-10,2.53,2.53,0,0,0-4.5,0Z"/><path d="M946.41,823.37a1.5,1.5,0,1,1-1.5,1.5A1.5,1.5,0,0,1,946.41,823.37Z"/><path d="M951.11,813.65a4.91,4.91,0,0,1,1.43-3.25,5,5,0,0,1,3.64-1.27,4.61,4.61,0,0,1,3.6,1.37,4.31,4.31,0,0,1,1.2,3.17,4.1,4.1,0,0,1-.57,2.21,3.91,3.91,0,0,1-1.5,1.39,3.46,3.46,0,0,1,1.65,1.33,4.65,4.65,0,0,1,.7,2.57,5.21,5.21,0,0,1-1.43,3.73,5.55,5.55,0,0,1-4.07,1.45A4.79,4.79,0,0,1,952,825a6.15,6.15,0,0,1-1.43-3.4h2.45a3.31,3.31,0,0,0,.9,1.8,2.85,2.85,0,0,0,2,.75,3,3,0,0,0,1.95-.7,3.14,3.14,0,0,0,.88-2.35,2.66,2.66,0,0,0-.75-2,3,3,0,0,0-2.15-.75h-.5v-2.15h.35a2.88,2.88,0,0,0,2.12-.72,2.49,2.49,0,0,0,.65-1.78,2.27,2.27,0,0,0-.65-1.67,2.86,2.86,0,0,0-3.62,0,3,3,0,0,0-.7,1.6Z"/><rect x="62.75" y="556.2" width="263" height="193" rx="12" ry="12" style="fill:none;stroke:#3a5c84;stroke-miterlimit:10;stroke-width:5px"/><rect x="120" y="590.35" width="148" height="89.21" rx="12" ry="12" style="fill:none;stroke:#91c54f;stroke-miterlimit:10;stroke-width:5px"/><rect x="170.18" y="679.05" width="47.64" height="16.22" rx="4.38" ry="4.38" style="fill:#91c54f"/><rect x="139.26" y="693.75" width="109.48" height="22.3" rx="6.03" ry="6.03" style="fill:none;stroke:#91c54f;stroke-miterlimit:10;stroke-width:5px"/><circle cx="151.42" cy="701.86" r="2.03" style="fill:#91c54f"/><circle cx="157.24" cy="701.86" r="2.03" style="fill:#91c54f"/><circle cx="151.42" cy="707.94" r="2.03" style="fill:#91c54f"/><circle cx="157.24" cy="707.94" r="2.03" style="fill:#91c54f"/><rect x="210.22" y="702.87" width="31.42" height="3.04" rx="0.82" ry="0.82" style="fill:none;stroke:#91c54f;stroke-miterlimit:10;stroke-width:5px"/><path d="M167,772.44v6.63h-5.19v-20h8.27a6.88,6.88,0,0,1,5.07,1.8,6.2,6.2,0,0,1,1.86,4.86,6.53,6.53,0,0,1-1.76,5,6.66,6.66,0,0,1-5,1.74Zm0-4.2h1.74a3.4,3.4,0,0,0,2.19-.63,2.28,2.28,0,0,0,.65-1.83,2.43,2.43,0,0,0-.6-1.8,3,3,0,0,0-2.21-.72H167Z"/><path d="M194.12,778.53a12.35,12.35,0,0,1-4.49,1,10.88,10.88,0,0,1-7.74-3,10.5,10.5,0,0,1-3-7.29,10.5,10.5,0,0,1,10.58-10.5,12.4,12.4,0,0,1,4.68,1V766a5.57,5.57,0,0,0-4.53-2.19,5,5,0,0,0-3.59,1.32,5.6,5.6,0,0,0-1.75,4.11,5.14,5.14,0,0,0,5.34,5.28,5.86,5.86,0,0,0,4.53-2.1Z"/><path d="M208.46,772.23a3.12,3.12,0,0,0,.81,2,2.76,2.76,0,0,0,2,.78,2.66,2.66,0,0,0,2-.87,2.35,2.35,0,0,0,.6-1.65,2.29,2.29,0,0,0-.78-1.77,3.14,3.14,0,0,0-1.92-.57,2.65,2.65,0,0,0-.87.12v-3.51a2.54,2.54,0,0,0,2.13-.51,1.88,1.88,0,0,0,.66-1.41,2.22,2.22,0,0,0-.54-1.44,2.15,2.15,0,0,0-1.47-.54,2,2,0,0,0-1.44.51,2.52,2.52,0,0,0-.69,1.77h-4.82a7.06,7.06,0,0,1,1.94-4.59,8,8,0,0,1,10.26-.18,5.44,5.44,0,0,1,1.62,3.87,4.82,4.82,0,0,1-.6,2.46,3.43,3.43,0,0,1-1.53,1.53,4.9,4.9,0,0,1,2.37,1.83,5.06,5.06,0,0,1,.84,2.94,6,6,0,0,1-1.77,4.38,8.2,8.2,0,0,1-6,2.13,7.84,7.84,0,0,1-8.22-7.29Z"/><path d="M100.1,807.55a12,12,0,0,1,0-13.62,4.86,4.86,0,0,1,7.55,0,12,12,0,0,1,0,13.62,4.86,4.86,0,0,1-7.55,0Zm1.53-11.8a11.38,11.38,0,0,0,0,10,2.52,2.52,0,0,0,4.49,0,11.38,11.38,0,0,0,0-10,2.52,2.52,0,0,0-4.49,0Z"/><path d="M114.3,807.55a12,12,0,0,1,0-13.62,4.86,4.86,0,0,1,7.55,0,12,12,0,0,1,0,13.62,4.86,4.86,0,0,1-7.55,0Zm1.52-11.8a11.47,11.47,0,0,0,0,10,2.52,2.52,0,0,0,4.5,0,11.38,11.38,0,0,0,0-10,2.53,2.53,0,0,0-4.5,0Z"/><path d="M128.17,798.27a1.5,1.5,0,1,1-1.49,1.5A1.5,1.5,0,0,1,128.17,798.27Zm0,8.13a1.5,1.5,0,1,1-1.49,1.5A1.5,1.5,0,0,1,128.17,806.4Z"/><path d="M134.5,807.55a12,12,0,0,1,0-13.62,4.86,4.86,0,0,1,7.55,0,12,12,0,0,1,0,13.62,4.86,4.86,0,0,1-7.55,0Zm1.52-11.8a11.47,11.47,0,0,0,0,10,2.52,2.52,0,0,0,4.5,0,11.38,11.38,0,0,0,0-10,2.53,2.53,0,0,0-4.5,0Z"/><path d="M148.7,807.55a12,12,0,0,1,0-13.62,4.86,4.86,0,0,1,7.55,0,12,12,0,0,1,0,13.62,4.86,4.86,0,0,1-7.55,0Zm1.52-11.8a11.38,11.38,0,0,0,0,10,2.52,2.52,0,0,0,4.5,0,11.38,11.38,0,0,0,0-10,2.53,2.53,0,0,0-4.5,0Z"/><path d="M162.57,798.27a1.5,1.5,0,1,1-1.5,1.5A1.5,1.5,0,0,1,162.57,798.27Zm0,8.13a1.5,1.5,0,1,1-1.5,1.5A1.5,1.5,0,0,1,162.57,806.4Z"/><path d="M168.9,807.55a12,12,0,0,1,0-13.62,4.86,4.86,0,0,1,7.55,0,12,12,0,0,1,0,13.62,4.86,4.86,0,0,1-7.55,0Zm1.52-11.8a11.38,11.38,0,0,0,0,10,2.52,2.52,0,0,0,4.5,0,11.38,11.38,0,0,0,0-10,2.53,2.53,0,0,0-4.5,0Z"/><path d="M189.47,801.77a4.12,4.12,0,0,0-3-1.3,3.16,3.16,0,0,0-2.33.93,3.36,3.36,0,0,0-.9,2.42,3.52,3.52,0,0,0,.95,2.53,3.22,3.22,0,0,0,2.23.85,4.09,4.09,0,0,0,3-1.35v2.72a5.7,5.7,0,0,1-3.2.83,5.13,5.13,0,0,1-4-1.55,5.49,5.49,0,0,1-1.5-4,5.65,5.65,0,0,1,1.6-4.08,5.75,5.75,0,0,1,4.23-1.55,5.67,5.67,0,0,1,2.87.75Z"/><path d="M193.27,798.27a1.5,1.5,0,1,1-1.5,1.5A1.5,1.5,0,0,1,193.27,798.27Zm0,8.13a1.5,1.5,0,1,1-1.5,1.5A1.5,1.5,0,0,1,193.27,806.4Z"/><path d="M205.52,798.55H208v10.52h-2.45V808a4,4,0,0,1-3.15,1.43c-3.25,0-5.1-2.7-5.1-5.6,0-3.43,2.35-5.53,5.13-5.53a3.83,3.83,0,0,1,3.12,1.5Zm-5.75,5.3a3.08,3.08,0,0,0,2.93,3.35,3,3,0,0,0,3-3.33c0-2.3-1.42-3.4-3-3.4C200.92,800.47,199.77,802,199.77,803.85Z"/><path d="M213.52,799.77a3.84,3.84,0,0,1,3.13-1.5c2.77,0,5.12,2.1,5.12,5.53,0,2.9-1.85,5.6-5.1,5.6a4.06,4.06,0,0,1-3.15-1.43v1.1h-2.45V790.85h2.45Zm-.15,4.1a3,3,0,0,0,3,3.33,3.07,3.07,0,0,0,2.92-3.35c0-1.88-1.15-3.38-2.92-3.38C214.8,800.47,213.37,801.57,213.37,803.87Z"/><path d="M225.77,798.27a1.5,1.5,0,1,1-1.5,1.5A1.5,1.5,0,0,1,225.77,798.27Zm0,8.13a1.5,1.5,0,1,1-1.5,1.5A1.5,1.5,0,0,1,225.77,806.4Z"/><path d="M238.47,801.77a4.12,4.12,0,0,0-3-1.3,3.16,3.16,0,0,0-2.33.93,3.36,3.36,0,0,0-.9,2.42,3.52,3.52,0,0,0,.95,2.53,3.22,3.22,0,0,0,2.23.85,4.09,4.09,0,0,0,3-1.35v2.72a5.7,5.7,0,0,1-3.2.83,5.13,5.13,0,0,1-4-1.55,5.49,5.49,0,0,1-1.5-4,5.65,5.65,0,0,1,1.6-4.08,5.75,5.75,0,0,1,4.23-1.55,5.67,5.67,0,0,1,2.87.75Z"/><path d="M248.52,790.85H251v18.22h-2.45V808a4,4,0,0,1-3.15,1.43c-3.25,0-5.1-2.7-5.1-5.6,0-3.43,2.35-5.53,5.13-5.53a3.83,3.83,0,0,1,3.12,1.5Zm-5.75,13a3.08,3.08,0,0,0,2.93,3.35,3,3,0,0,0,3-3.33c0-2.3-1.42-3.4-3-3.4C243.92,800.47,242.77,802,242.77,803.85Z"/><path d="M255.52,798.27a1.5,1.5,0,1,1-1.5,1.5A1.5,1.5,0,0,1,255.52,798.27Zm0,8.13a1.5,1.5,0,1,1-1.5,1.5A1.5,1.5,0,0,1,255.52,806.4Z"/><path d="M268.22,801.77a4.12,4.12,0,0,0-3-1.3,3.16,3.16,0,0,0-2.33.93,3.36,3.36,0,0,0-.9,2.42,3.52,3.52,0,0,0,1,2.53,3.22,3.22,0,0,0,2.23.85,4.09,4.09,0,0,0,3-1.35v2.72a5.7,5.7,0,0,1-3.2.83,5.13,5.13,0,0,1-4-1.55,5.49,5.49,0,0,1-1.5-4,5.65,5.65,0,0,1,1.6-4.08,5.75,5.75,0,0,1,4.23-1.55,5.67,5.67,0,0,1,2.87.75Z"/><path d="M281.07,809.07h-11.2l5.78-7c.57-.7,1.45-1.8,2-2.6a4.14,4.14,0,0,0,.87-2.39,2.6,2.6,0,0,0-2.77-2.7,3,3,0,0,0-2.95,3h-2.45a6,6,0,0,1,1.4-3.65,5,5,0,0,1,3.9-1.62c3.55,0,5.37,2.42,5.37,5a6.12,6.12,0,0,1-1.2,3.5,34.46,34.46,0,0,1-2.37,3l-2.6,3.07h6.22Z"/><path d="M135.64,824.75h-2.9l1.4-2.35h4.05v16.67h-2.55Z"/><path d="M143.79,838.27l3.92-5a4.07,4.07,0,0,1-.9.1,5.41,5.41,0,0,1-3.9-1.55,5.19,5.19,0,0,1-1.52-3.8,6,6,0,0,1,1.65-4.17,6.36,6.36,0,0,1,8.6-.05,5.27,5.27,0,0,1,1.44,3.77,6.59,6.59,0,0,1-.79,3.17,17.28,17.28,0,0,1-2,3l-4.62,5.95Zm5.82-8.1a3.64,3.64,0,0,0,1-2.47,3.28,3.28,0,0,0-1-2.37,3.5,3.5,0,0,0-2.37-1,3.57,3.57,0,0,0-2.38,1,3.48,3.48,0,0,0-1,2.45,3.23,3.23,0,0,0,3.32,3.39A3.33,3.33,0,0,0,149.61,830.17Z"/><path d="M165.51,839.07h-11.2l5.78-7c.57-.7,1.45-1.8,2-2.6a4.14,4.14,0,0,0,.87-2.39,2.6,2.6,0,0,0-2.77-2.7,3,3,0,0,0-2.95,3h-2.45a6,6,0,0,1,1.4-3.65,5,5,0,0,1,3.9-1.62c3.55,0,5.37,2.42,5.37,5a6.12,6.12,0,0,1-1.2,3.5,34.46,34.46,0,0,1-2.37,3l-2.6,3.07h6.22Z"/><path d="M170.66,836.37a1.5,1.5,0,1,1-1.5,1.5A1.5,1.5,0,0,1,170.66,836.37Z"/><path d="M176.66,824.75h-2.9l1.4-2.35h4.05v16.67h-2.55Z"/><path d="M192.36,823.2l-4,5a5.45,5.45,0,0,1,1.05-.09,5.19,5.19,0,0,1,3.85,1.54,5.74,5.74,0,0,1,1.47,3.9,5.55,5.55,0,0,1-5.95,5.78,5.64,5.64,0,0,1-4.3-1.63,5.3,5.3,0,0,1-1.45-3.77,6.63,6.63,0,0,1,.8-3.2,16.81,16.81,0,0,1,2-3l4.62-5.95Zm-5.82,8a3.49,3.49,0,0,0-1,2.48,3.55,3.55,0,0,0,1,2.47,3.81,3.81,0,0,0,2.4.93,3.46,3.46,0,0,0,2.35-.93,3.67,3.67,0,0,0,1-2.47,3.72,3.72,0,0,0-1-2.48,3.49,3.49,0,0,0-2.35-.92A3.66,3.66,0,0,0,186.54,831.22Z"/><path d="M207.61,831.75a4,4,0,0,1,.75,2.5A5,5,0,0,1,207,837.8a5.74,5.74,0,0,1-7.85,0,5,5,0,0,1-1.33-3.55,3.94,3.94,0,0,1,2.5-3.85,3.37,3.37,0,0,1-1.47-1.25,4.32,4.32,0,0,1-.6-2.27,4.82,4.82,0,1,1,9.64,0,4.32,4.32,0,0,1-.6,2.27,3.32,3.32,0,0,1-1.47,1.25A4,4,0,0,1,207.61,831.75Zm-6.47.52a3,3,0,0,0,0,4,2.78,2.78,0,0,0,4,0,3,3,0,0,0,0-4,2.92,2.92,0,0,0-4,0Zm.15-7.22a2.62,2.62,0,0,0-.7,1.85,2.49,2.49,0,0,0,.67,1.75,2.66,2.66,0,0,0,3.7,0,2.45,2.45,0,0,0,.68-1.75,2.66,2.66,0,0,0-.7-1.85,2.82,2.82,0,0,0-3.65,0Z"/><path d="M213.21,836.37a1.5,1.5,0,1,1-1.5,1.5A1.5,1.5,0,0,1,213.21,836.37Z"/><path d="M219.54,837.55a12,12,0,0,1,0-13.62,4.85,4.85,0,0,1,7.54,0,12,12,0,0,1,0,13.62,4.85,4.85,0,0,1-7.54,0Zm1.52-11.8a11.38,11.38,0,0,0,0,10,2.52,2.52,0,0,0,4.5,0,11.38,11.38,0,0,0,0-10,2.53,2.53,0,0,0-4.5,0Z"/><path d="M233.41,836.37a1.5,1.5,0,1,1-1.5,1.5A1.5,1.5,0,0,1,233.41,836.37Z"/><path d="M248.46,839.07h-11.2l5.77-7c.58-.7,1.45-1.8,2-2.6a4.08,4.08,0,0,0,.88-2.39,2.61,2.61,0,0,0-2.78-2.7,3,3,0,0,0-2.94,3h-2.45a6,6,0,0,1,1.4-3.65,5,5,0,0,1,3.89-1.62c3.55,0,5.38,2.42,5.38,5a6.19,6.19,0,0,1-1.2,3.5,34.81,34.81,0,0,1-2.38,3l-2.6,3.07h6.23Z"/><line x1="612.5" y1="468.7" x2="612.5" y2="601.7" style="fill:none;stroke:#3a5c84;stroke-miterlimit:10;stroke-width:5px"/><line x1="755.5" y1="598.7" x2="612.5" y2="598.7" style="fill:none;stroke:#3a5c84;stroke-miterlimit:10;stroke-width:5px"/><line x1="469.5" y1="468.7" x2="469.5" y2="601.7" style="fill:none;stroke:#3a5c84;stroke-miterlimit:10;stroke-width:5px"/><line x1="326.5" y1="598.7" x2="469.5" y2="598.7" style="fill:none;stroke:#3a5c84;stroke-miterlimit:10;stroke-width:5px"/><line x1="136.5" y1="153.7" x2="136.5" y2="56.7" style="fill:none;stroke:#4fc2c9;stroke-miterlimit:10;stroke-width:5px"/><line x1="255.5" y1="58.7" x2="134.5" y2="58.7" style="fill:none;stroke:#4fc2c9;stroke-miterlimit:10;stroke-width:5px"/><line x1="286.5" y1="266.7" x2="475.5" y2="266.7" style="fill:none;stroke:#3a5c84;stroke-miterlimit:10;stroke-width:5px"/><line x1="472.5" y1="412.7" x2="472.5" y2="266.7" style="fill:none;stroke:#3a5c84;stroke-miterlimit:10;stroke-width:5px"/><line x1="800.5" y1="266.7" x2="611.5" y2="266.7" style="fill:none;stroke:#3a5c84;stroke-miterlimit:10;stroke-width:5px"/><line x1="614.5" y1="412.7" x2="614.5" y2="266.7" style="fill:none;stroke:#3a5c84;stroke-miterlimit:10;stroke-width:5px"/><rect x="257.19" y="21.8" width="297" height="70" rx="12" ry="12" style="fill:none;stroke:#4fc2c9;stroke-miterlimit:10;stroke-width:5px"/><path d="M356.81,46.57v20h-5.19v-20Z"/><path d="M360.56,53.17h4.8v1.68a5.06,5.06,0,0,1,4.26-2,5.42,5.42,0,0,1,4,1.44,4.62,4.62,0,0,1,1.26,3.75v8.52H370V59.8a3.85,3.85,0,0,0-.6-2.61,2,2,0,0,0-1.53-.57,2.63,2.63,0,0,0-1.77.63,3.08,3.08,0,0,0-.78,2.13v7.2h-4.8Z"/><path d="M383.42,57.1v9.48h-4.8V57.1h-1.53V53.17h1.53V48.76h4.8v4.41h2.73V57.1Z"/><path d="M402.17,60.76h-10A3.39,3.39,0,0,0,393,63a2.7,2.7,0,0,0,2,.66,3.79,3.79,0,0,0,1.56-.36,2.23,2.23,0,0,0,.84-.9H402a6,6,0,0,1-1.62,2.76c-1,1-2.55,1.86-5.46,1.86a7.61,7.61,0,0,1-5.55-2,7,7,0,0,1-2-5.07,7.16,7.16,0,0,1,2-5.19,7.55,7.55,0,0,1,5.49-1.95A7.35,7.35,0,0,1,400,54.61a7.51,7.51,0,0,1,2.13,5.64ZM397.76,58a3.22,3.22,0,0,0-.78-1.44,2.8,2.8,0,0,0-2-.72,2.58,2.58,0,0,0-1.95.72,2.74,2.74,0,0,0-.72,1.44Z"/><path d="M404.93,53.17h4.8v2.19a4.33,4.33,0,0,1,1.89-1.86,5.24,5.24,0,0,1,2.49-.54l1,.06v4.53a4.23,4.23,0,0,0-2.07-.48,3.14,3.14,0,0,0-2.19.72,4,4,0,0,0-1.08,3.06v5.73h-4.8Z"/><path d="M417.2,53.17H422v1.68a5.06,5.06,0,0,1,4.26-2,5.42,5.42,0,0,1,4,1.44,4.62,4.62,0,0,1,1.26,3.75v8.52h-4.8V59.8a3.85,3.85,0,0,0-.6-2.61,2,2,0,0,0-1.53-.57,2.63,2.63,0,0,0-1.77.63,3.08,3.08,0,0,0-.78,2.13v7.2h-4.8Z"/><path d="M449,60.76H439a3.39,3.39,0,0,0,.84,2.25,2.7,2.7,0,0,0,2,.66,3.79,3.79,0,0,0,1.56-.36,2.23,2.23,0,0,0,.84-.9h4.59a6,6,0,0,1-1.62,2.76c-1,1-2.55,1.86-5.46,1.86a7.61,7.61,0,0,1-5.55-2,7,7,0,0,1-2-5.07,7.16,7.16,0,0,1,2-5.19,7.55,7.55,0,0,1,5.49-1.95,7.35,7.35,0,0,1,5.16,1.83A7.51,7.51,0,0,1,449,60.25ZM444.56,58a3.22,3.22,0,0,0-.78-1.44,2.8,2.8,0,0,0-2-.72,2.58,2.58,0,0,0-1.95.72,2.74,2.74,0,0,0-.72,1.44Z"/><path d="M457,57.1v9.48h-4.8V57.1h-1.53V53.17h1.53V48.76H457v4.41h2.73V57.1Z"/><rect x="23.75" y="153.2" width="263" height="193" rx="12" ry="12" style="fill:none;stroke:#3a5c84;stroke-miterlimit:10;stroke-width:5px"/><rect x="449.77" y="412.7" width="185.46" height="56.5" rx="22.5" ry="22.5" style="fill:none;stroke:#f7931f;stroke-miterlimit:10;stroke-width:5px"/><polygon points="567.23 449.18 516.74 449.05 516.72 456.37 501.21 440.79 516.79 425.28 516.78 432.23 567.27 432.35 567.29 425.04 582.8 440.62 567.22 456.12 567.23 449.18" style="fill:none;stroke:#f7931f;stroke-miterlimit:10;stroke-width:5px"/><path d="M505.93,389a5.84,5.84,0,0,0,3.82,1.7,2.21,2.21,0,0,0,1.68-.58,1.52,1.52,0,0,0,.42-1.05,1.3,1.3,0,0,0-.47-1,6.1,6.1,0,0,0-2.15-.87l-1.13-.35a5.42,5.42,0,0,1-2.4-1.35,4.19,4.19,0,0,1-.95-2.95,5.41,5.41,0,0,1,1.53-4,5.88,5.88,0,0,1,4.27-1.58,11.8,11.8,0,0,1,5.15,1.35L514,381.7a4.37,4.37,0,0,0-2.84-1.13,2.09,2.09,0,0,0-1.43.5,1.24,1.24,0,0,0-.42.9,1.13,1.13,0,0,0,.22.75,2.79,2.79,0,0,0,1.45.75l1.32.4a6.45,6.45,0,0,1,3,1.65,3.92,3.92,0,0,1,1.07,3,5.64,5.64,0,0,1-1.57,4.2,6.45,6.45,0,0,1-4.92,1.7,9,9,0,0,1-3.28-.55,11.91,11.91,0,0,1-2.52-1.32Z"/><path d="M521.83,382.85l2.65,5.89,2.82-5.89h2.45l2.82,6.07,2.8-6.07h4.45L534,394h-2.7l-2.8-6.15L525.8,394h-2.7l-5.75-11.17Z"/><path d="M543.2,376A2.25,2.25,0,1,1,541,378.2,2.24,2.24,0,0,1,543.2,376Zm2,6.9V394h-4V382.85Z"/><path d="M552.35,386.12V394h-4v-7.9h-1.27v-3.27h1.27v-3.68h4v3.68h2.28v3.27Z"/><path d="M564.57,393.77a6,6,0,0,1-2.77.62,6.16,6.16,0,0,1-4.4-1.7,5.82,5.82,0,0,1-1.72-4.17,6.05,6.05,0,0,1,1.8-4.32,6.42,6.42,0,0,1,4.49-1.7,5.72,5.72,0,0,1,2.6.62v3.35a3.57,3.57,0,0,0-2.07-.73,2.62,2.62,0,0,0-2,.78,2.71,2.71,0,0,0-.78,1.92,2.91,2.91,0,0,0,.7,1.88,2.73,2.73,0,0,0,2,.85,3,3,0,0,0,2.05-.75Z"/><path d="M566.85,375.8h4v8.45a4.62,4.62,0,0,1,1.25-1.1,5.12,5.12,0,0,1,5.6.65,3.89,3.89,0,0,1,1,3.12V394h-4v-5.65a3.33,3.33,0,0,0-.5-2.18,1.61,1.61,0,0,0-1.28-.47,2.2,2.2,0,0,0-1.45.47,2.45,2.45,0,0,0-.67,1.83v6h-4Z"/></svg>