<svg id="Layer_1" data-name="Layer 1" xmlns="http://www.w3.org/2000/svg" viewBox="0 0 1558 618"><title>Capitolul11</title><path d="M146.62,420a8.18,8.18,0,0,0,5.35,2.38,3.09,3.09,0,0,0,2.35-.81,2.08,2.08,0,0,0,.59-1.47,1.82,1.82,0,0,0-.66-1.4,8.5,8.5,0,0,0-3-1.22l-1.58-.49a7.7,7.7,0,0,1-3.36-1.89,5.88,5.88,0,0,1-1.33-4.13,7.6,7.6,0,0,1,2.14-5.64,8.21,8.21,0,0,1,6-2.2A16.43,16.43,0,0,1,160.3,405l-2.41,4.73a6.21,6.21,0,0,0-4-1.58,2.93,2.93,0,0,0-2,.71,1.71,1.71,0,0,0-.59,1.26,1.59,1.59,0,0,0,.31,1,3.89,3.89,0,0,0,2,1.05l1.86.56a8.84,8.84,0,0,1,4.23,2.31,5.5,5.5,0,0,1,1.51,4.16,7.91,7.91,0,0,1-2.21,5.88c-2,2-4.41,2.38-6.89,2.38a12.52,12.52,0,0,1-4.59-.77,16.56,16.56,0,0,1-3.53-1.85Z"/><path d="M170.73,415.91V427h-5.6V415.91h-1.79v-4.59h1.79v-5.14h5.6v5.14h3.19v4.59Z"/><path d="M188.13,411.32h5.6V427h-5.6v-1.72a5.84,5.84,0,0,1-4.87,2.24,7.49,7.49,0,0,1-5.63-2.48,7.89,7.89,0,0,1-2.25-5.74A8.67,8.67,0,0,1,177.8,413a8.07,8.07,0,0,1,5.64-2.21,6.18,6.18,0,0,1,4.69,2Zm-5.88,5.25a3.63,3.63,0,0,0-1.12,2.56,3.58,3.58,0,0,0,1.08,2.55,3.93,3.93,0,0,0,2.52,1.05,3.59,3.59,0,0,0,2.52-1.08,3.4,3.4,0,0,0,1.05-2.52,3.48,3.48,0,0,0-1.08-2.56,3.56,3.56,0,0,0-5,0Z"/><path d="M203.77,415.91V427h-5.6V415.91h-1.79v-4.59h1.79v-5.14h5.6v5.14H207v4.59Zm-5.39,12.81,5.25.56-3.57,6.44-3.5-.42Z"/><path d="M211.85,401.66a3.15,3.15,0,1,1-3.15,3.15A3.14,3.14,0,0,1,211.85,401.66Zm2.8,9.66V427h-5.6V411.32Z"/><path d="M235.06,420.18H223.4a4,4,0,0,0,1,2.62,3.18,3.18,0,0,0,2.32.77,4.39,4.39,0,0,0,1.82-.42,2.64,2.64,0,0,0,1-1h5.35a6.92,6.92,0,0,1-1.89,3.22c-1.15,1.12-3,2.17-6.37,2.17a8.88,8.88,0,0,1-6.48-2.38,8.2,8.2,0,0,1-2.31-5.91,8.34,8.34,0,0,1,2.35-6.06,8.79,8.79,0,0,1,6.4-2.27,8.58,8.58,0,0,1,6,2.13,8.77,8.77,0,0,1,2.48,6.58ZM229.92,417a3.73,3.73,0,0,0-.91-1.68,3.26,3.26,0,0,0-2.31-.84,3,3,0,0,0-2.28.84,3.19,3.19,0,0,0-.84,1.68Z"/><path d="M509.85,395.62a7.55,7.55,0,0,1,5.71,2.07,7.66,7.66,0,0,1,2,5.25,6.71,6.71,0,0,1-1.85,4.86,6.52,6.52,0,0,1-3.22,1.61l7.31,9.56h-7.52l-5.81-9v9H500.4V395.62Zm-3.39,10.47h1.15a4.55,4.55,0,0,0,2.94-.95,2.86,2.86,0,0,0,.77-2,2.77,2.77,0,0,0-.8-2,4.12,4.12,0,0,0-2.91-.91h-1.15Z"/><path d="M527.42,403.32v8.75a3,3,0,0,0,.84,2.28,2.9,2.9,0,0,0,2,.59,2.64,2.64,0,0,0,2-.66,2.91,2.91,0,0,0,.8-2.21v-8.75h5.61v9.77a5.38,5.38,0,0,1-1.51,4.2c-1.93,2-4.62,2.2-6.76,2.2-2.34,0-5.21-.24-7.07-2.24a5.62,5.62,0,0,1-1.47-4.16v-9.77Z"/><path d="M548.67,407.91V419h-5.6V407.91h-1.79v-4.59h1.79v-5.14h5.6v5.14h3.18v4.59Z"/><path d="M570.54,412.18H558.89a3.91,3.91,0,0,0,1,2.62,3.15,3.15,0,0,0,2.31.77,4.33,4.33,0,0,0,1.82-.42,2.64,2.64,0,0,0,1-1h5.35a6.92,6.92,0,0,1-1.89,3.22c-1.15,1.12-3,2.17-6.37,2.17a8.84,8.84,0,0,1-6.47-2.38,8.16,8.16,0,0,1-2.31-5.91,8.37,8.37,0,0,1,2.34-6.06,8.83,8.83,0,0,1,6.41-2.27,8.57,8.57,0,0,1,6,2.13,8.77,8.77,0,0,1,2.48,6.58ZM565.4,409a3.73,3.73,0,0,0-.91-1.68,3.25,3.25,0,0,0-2.31-.84,3,3,0,0,0-2.28.84,3.27,3.27,0,0,0-.84,1.68Z"/><path d="M573.76,403.32h5.6v2.56a5.06,5.06,0,0,1,2.21-2.17,6,6,0,0,1,2.9-.63l1.12.07v5.28a4.93,4.93,0,0,0-2.41-.56,3.71,3.71,0,0,0-2.56.84,4.73,4.73,0,0,0-1.26,3.57V419h-5.6Z"/><path d="M603,393.45h4.58l-17.92,32.1H585.1Z"/><path d="M491.06,447.74h12c0,4.62-.94,7.91-3.74,10.5a11.42,11.42,0,0,1-8.23,2.94,12,12,0,0,1-9-3.47,11.75,11.75,0,0,1-3.36-8.43,12.16,12.16,0,0,1,3.5-8.75,13.6,13.6,0,0,1,15.37-1.86,11.41,11.41,0,0,1,4.16,4.79l-5.78,2.39a5.65,5.65,0,0,0-1.68-2.35,4.86,4.86,0,0,0-3.25-1.15,5.6,5.6,0,0,0-4,1.61,7.83,7.83,0,0,0-2,5.35,7.3,7.3,0,0,0,1.85,5,5.53,5.53,0,0,0,4.27,1.79,5,5,0,0,0,3.37-1.09,4.12,4.12,0,0,0,1.43-2.59h-5Z"/><path d="M518.53,445.32h5.6V461h-5.6v-1.72a5.82,5.82,0,0,1-4.86,2.24A7.51,7.51,0,0,1,508,459a7.92,7.92,0,0,1-2.24-5.74,8.67,8.67,0,0,1,2.42-6.27,8,8,0,0,1,5.63-2.21,6.16,6.16,0,0,1,4.69,2Zm-5.88,5.25a3.67,3.67,0,0,0-1.12,2.56,3.59,3.59,0,0,0,1.09,2.55,3.91,3.91,0,0,0,2.52,1.05,3.59,3.59,0,0,0,2.52-1.08,3.4,3.4,0,0,0,1.05-2.52,3.45,3.45,0,0,0-1.09-2.56,3.56,3.56,0,0,0-5,0Z"/><path d="M534.18,449.91V461h-5.6V449.91h-1.79v-4.59h1.79v-5.14h5.6v5.14h3.18v4.59Z"/><path d="M556.05,454.18H544.4a3.91,3.91,0,0,0,1,2.62,3.15,3.15,0,0,0,2.31.77,4.33,4.33,0,0,0,1.82-.42,2.64,2.64,0,0,0,1-1h5.35a6.92,6.92,0,0,1-1.89,3.22c-1.15,1.12-3,2.17-6.37,2.17a8.84,8.84,0,0,1-6.47-2.38,8.16,8.16,0,0,1-2.31-5.91,8.37,8.37,0,0,1,2.34-6.06,8.83,8.83,0,0,1,6.41-2.27,8.57,8.57,0,0,1,6,2.13,8.77,8.77,0,0,1,2.48,6.58ZM550.91,451a3.73,3.73,0,0,0-.91-1.68,3.25,3.25,0,0,0-2.31-.84,3,3,0,0,0-2.28.84,3.27,3.27,0,0,0-.84,1.68Z"/><path d="M563.61,445.32l3.71,8.26,4-8.26h3.43l3.95,8.51,3.92-8.51h6.23L580.62,461h-3.78l-3.92-8.61L569.18,461H565.4l-8-15.65Z"/><path d="M601.55,445.32h5.6V461h-5.6v-1.72a5.82,5.82,0,0,1-4.86,2.24,7.51,7.51,0,0,1-5.64-2.48,7.92,7.92,0,0,1-2.24-5.74,8.67,8.67,0,0,1,2.42-6.27,8,8,0,0,1,5.63-2.21,6.16,6.16,0,0,1,4.69,2Zm-5.88,5.25a3.67,3.67,0,0,0-1.12,2.56,3.59,3.59,0,0,0,1.09,2.55,3.91,3.91,0,0,0,2.52,1.05,3.59,3.59,0,0,0,2.52-1.08,3.4,3.4,0,0,0,1.05-2.52,3.45,3.45,0,0,0-1.09-2.56,3.56,3.56,0,0,0-5,0Z"/><path d="M616.64,458.83l-7.56-13.51h6.51l4.16,8,4.06-8h6.41L617.65,469h-6.26Z"/><path d="M1162,335.24v30h-7.79v-30Z"/><path d="M1167.57,345.14h7.2v2.52a7.59,7.59,0,0,1,6.39-3,8.15,8.15,0,0,1,5.94,2.16c1.71,1.71,1.89,3.42,1.89,5.63v12.78h-7.2V355.09c0-1.17,0-2.93-.9-3.92a3,3,0,0,0-2.29-.85,4,4,0,0,0-2.66.94,4.64,4.64,0,0,0-1.17,3.2v10.8h-7.2Z"/><path d="M1201.86,351v14.22h-7.2V351h-2.29v-5.9h2.29v-6.61h7.2v6.61h4.1V351Z"/><path d="M1230,356.53h-15a5.08,5.08,0,0,0,1.26,3.37,4,4,0,0,0,3,1,5.6,5.6,0,0,0,2.34-.54,3.32,3.32,0,0,0,1.26-1.35h6.89a9.11,9.11,0,0,1-2.43,4.14c-1.49,1.44-3.83,2.79-8.19,2.79a11.4,11.4,0,0,1-8.33-3.06,10.54,10.54,0,0,1-3-7.6,10.72,10.72,0,0,1,3-7.79c1.66-1.62,4.27-2.92,8.23-2.92a11,11,0,0,1,7.74,2.74,11.25,11.25,0,0,1,3.2,8.46Zm-6.62-4.14a4.8,4.8,0,0,0-1.17-2.16,4.17,4.17,0,0,0-3-1.08,3.84,3.84,0,0,0-2.92,1.08,4,4,0,0,0-1.08,2.16Z"/><path d="M1234.13,345.14h7.2v3.29a6.48,6.48,0,0,1,2.83-2.79,7.82,7.82,0,0,1,3.74-.81c.18,0,.49,0,1.44.09v6.79a6.36,6.36,0,0,0-3.11-.72,4.73,4.73,0,0,0-3.28,1.08,6.08,6.08,0,0,0-1.62,4.59v8.6h-7.2Z"/><path d="M1252.53,345.14h7.2v2.52a7.59,7.59,0,0,1,6.39-3,8.15,8.15,0,0,1,5.94,2.16c1.71,1.71,1.89,3.42,1.89,5.63v12.78h-7.2V355.09c0-1.17,0-2.93-.9-3.92a3,3,0,0,0-2.29-.85,4,4,0,0,0-2.66.94,4.64,4.64,0,0,0-1.17,3.2v10.8h-7.2Z"/><path d="M1300.19,356.53h-15a5.08,5.08,0,0,0,1.26,3.37,4,4,0,0,0,3,1,5.6,5.6,0,0,0,2.34-.54A3.32,3.32,0,0,0,1293,359h6.89a9.11,9.11,0,0,1-2.43,4.14c-1.49,1.44-3.83,2.79-8.19,2.79a11.4,11.4,0,0,1-8.33-3.06,10.54,10.54,0,0,1-3-7.6,10.72,10.72,0,0,1,3-7.79c1.66-1.62,4.27-2.92,8.23-2.92a11,11,0,0,1,7.74,2.74,11.25,11.25,0,0,1,3.2,8.46Zm-6.62-4.14a4.8,4.8,0,0,0-1.17-2.16,4.17,4.17,0,0,0-3-1.08,3.84,3.84,0,0,0-2.92,1.08,4,4,0,0,0-1.08,2.16Z"/><path d="M1312.29,351v14.22h-7.2V351h-2.29v-5.9h2.29v-6.61h7.2v6.61h4.1V351Z"/><rect x="117.13" y="256.4" width="148" height="89.21" rx="12" ry="12" style="fill:none;stroke:#666;stroke-miterlimit:10;stroke-width:5px"/><rect x="167.3" y="345.1" width="47.64" height="16.22" rx="4.38" ry="4.38" style="fill:#666"/><rect x="136.39" y="359.8" width="109.48" height="22.3" rx="6.03" ry="6.03" style="fill:none;stroke:#666;stroke-miterlimit:10;stroke-width:5px"/><circle cx="148.55" cy="367.91" r="2.03" style="fill:#666"/><circle cx="154.37" cy="367.91" r="2.03" style="fill:#666"/><circle cx="148.55" cy="373.99" r="2.03" style="fill:#666"/><circle cx="154.37" cy="373.99" r="2.03" style="fill:#666"/><rect x="207.34" y="368.92" width="31.42" height="3.04" rx="0.82" ry="0.82" style="fill:none;stroke:#666;stroke-miterlimit:10;stroke-width:5px"/><path d="M1424.37,279.12c-1.09-82.79-68.45-152.28-151.5-152.28-52.91,0-102.59,28.6-130,69.82a76.12,76.12,0,0,0-118.23,63.43c0,1.45.13,2.87.22,4.32-.1,1.73-.22,3.48-.22,5.19C986.67,287.8,958,331.06,958,375.77c0,62,50.73,112.73,112.73,112.73H1304c1.31,0,2.59-.15,3.88-.2s2.58.2,3.9.2H1405c57.73,0,105-47.23,105-105C1510,332.43,1472.94,288.27,1424.37,279.12Z" style="fill:none;stroke:#7383bf;stroke-linecap:round;stroke-miterlimit:10;stroke-width:19.0344825397033px"/><path d="M1424.37,279.12s-24.12-3.57-47.61,0" style="fill:none;stroke:#7383bf;stroke-linecap:round;stroke-miterlimit:10;stroke-width:19.0344825397033px"/><path d="M1024.62,260.09a76.14,76.14,0,0,1,152.28,0" style="fill:none;stroke:#7383bf;stroke-linecap:round;stroke-miterlimit:10;stroke-width:19.0344825397033px"/><polygon points="303.43 338.83 411.67 338.83 411.67 354.43 444.82 321.28 411.67 288.12 411.67 303.72 303.43 303.72 303.43 338.83" style="fill:none;stroke:#3a5c84;stroke-miterlimit:10;stroke-width:5px"/><polygon points="749.76 325.83 858 325.83 858 341.43 891.15 308.28 858 275.12 858 290.72 749.76 290.72 749.76 325.83" style="fill:none;stroke:#3a5c84;stroke-miterlimit:10;stroke-width:5px"/><rect x="59.5" y="41.5" width="609" height="547" rx="12" ry="12" style="fill:none;stroke:#3a5c84;stroke-miterlimit:10;stroke-width:4.81027524003988px"/><path d="M320.1,220.43h-6.05l-1.13,2.79h-4.57l6.4-16.67h4.72l6.28,16.67h-4.63Zm-1.15-3.3-1.88-5.4-1.82,5.4Z"/><path d="M340,223.22h-4V222a4.11,4.11,0,0,1-3.38,1.6,5.36,5.36,0,0,1-3.92-1.55,6.18,6.18,0,0,1-1.8-4.45,6.08,6.08,0,0,1,1.82-4.42,5.72,5.72,0,0,1,3.95-1.5,4.41,4.41,0,0,1,3.33,1.45V205h4Zm-4.73-3.69a2.68,2.68,0,0,0,.85-1.9,2.9,2.9,0,0,0-.75-1.8,2.42,2.42,0,0,0-1.82-.75,2.46,2.46,0,0,0-1.78.72,2.74,2.74,0,0,0-.77,1.9,2.52,2.52,0,0,0,.77,1.75,2.48,2.48,0,0,0,1.78.75A2.73,2.73,0,0,0,335.22,219.53Z"/><path d="M342.7,212.05h4v1.83a3.6,3.6,0,0,1,1.57-1.55,4.32,4.32,0,0,1,2.08-.45l.8.05v3.77a3.54,3.54,0,0,0-1.73-.4,2.63,2.63,0,0,0-1.82.6,3.38,3.38,0,0,0-.9,2.55v4.77h-4Z"/><path d="M364.77,218.38h-8.32a2.78,2.78,0,0,0,.7,1.87,2.25,2.25,0,0,0,1.65.55,3.07,3.07,0,0,0,1.3-.3,1.9,1.9,0,0,0,.7-.75h3.82a4.91,4.91,0,0,1-1.35,2.3,6.06,6.06,0,0,1-4.55,1.55,6.35,6.35,0,0,1-4.62-1.7,5.88,5.88,0,0,1-1.65-4.22,6,6,0,0,1,1.68-4.33,6.27,6.27,0,0,1,4.57-1.62,6.12,6.12,0,0,1,4.3,1.52,6.27,6.27,0,0,1,1.77,4.7Zm-3.67-2.3a2.66,2.66,0,0,0-.65-1.2,2.31,2.31,0,0,0-1.65-.6,2.14,2.14,0,0,0-1.63.6,2.36,2.36,0,0,0-.6,1.2Z"/><path d="M367.8,219.53a5.52,5.52,0,0,0,1.6.82,5,5,0,0,0,1.55.28,1.72,1.72,0,0,0,1-.3.64.64,0,0,0,.2-.53.58.58,0,0,0-.2-.5,2.56,2.56,0,0,0-1.05-.4l-1.05-.25a3.55,3.55,0,0,1-1.95-1,2.74,2.74,0,0,1-.72-1.93,4,4,0,0,1,1.05-2.72,5.62,5.62,0,0,1,4-1.35,9.31,9.31,0,0,1,3.57.72L374.47,215a5.51,5.51,0,0,0-2.1-.55,1.67,1.67,0,0,0-.92.23.59.59,0,0,0-.35.55.64.64,0,0,0,.47.62c.38.15.7.15,1.33.33l.72.2a4.71,4.71,0,0,1,1.65.87,3.17,3.17,0,0,1,.85,2.23A3.73,3.73,0,0,1,375,222.2a5.81,5.81,0,0,1-4.13,1.4,8.25,8.25,0,0,1-4.49-1.3Z"/><path d="M386.82,212.05h4v11.17h-4V222a4.17,4.17,0,0,1-3.47,1.6,5.37,5.37,0,0,1-4-1.77,5.68,5.68,0,0,1-1.6-4.1,6.2,6.2,0,0,1,1.73-4.48,5.74,5.74,0,0,1,4-1.57,4.4,4.4,0,0,1,3.35,1.45Zm2.2-5.75a3.92,3.92,0,0,1-1.1,2.73,5.28,5.28,0,0,1-6.5,0,4,4,0,0,1-1.1-2.73h2.58a1.76,1.76,0,0,0,.5,1,2,2,0,0,0,1.27.45,2.07,2.07,0,0,0,1.28-.45,1.76,1.76,0,0,0,.5-1Zm-6.4,9.5a2.63,2.63,0,0,0-.8,1.83,2.56,2.56,0,0,0,.78,1.82,2.79,2.79,0,0,0,1.8.75,2.56,2.56,0,0,0,1.8-.77,2.43,2.43,0,0,0,.75-1.8,2.46,2.46,0,0,0-.78-1.83,2.55,2.55,0,0,0-3.55,0Z"/><path d="M404.1,206.55v16.67h-4.33V206.55Z"/><path d="M411.92,217.7v5.52H407.6V206.55h6.9a5.75,5.75,0,0,1,4.22,1.5,5.17,5.17,0,0,1,1.55,4,5.4,5.4,0,0,1-1.47,4.15,5.53,5.53,0,0,1-4.15,1.45Zm0-3.5h1.45a2.87,2.87,0,0,0,1.83-.52,1.94,1.94,0,0,0,.55-1.53,2,2,0,0,0-.5-1.5,2.56,2.56,0,0,0-1.85-.6h-1.48Z"/><path d="M319.55,266.09h-4.8V245.82h4.8v1.47a5,5,0,0,1,4.11-1.92,6.64,6.64,0,0,1,4.76,1.95,7.6,7.6,0,0,1-.12,10.49,6.43,6.43,0,0,1-4.59,1.86,5.69,5.69,0,0,1-4.16-1.74Zm.78-15.75a3.29,3.29,0,0,0-.93,2.22,3.24,3.24,0,0,0,.93,2.13,3.07,3.07,0,0,0,2.16.9,2.9,2.9,0,0,0,2.13-.9,3.14,3.14,0,0,0,.92-2.13,3.32,3.32,0,0,0-.92-2.22,2.93,2.93,0,0,0-2.13-.89A3.1,3.1,0,0,0,320.33,250.34Z"/><path d="M333.23,245.82H338V248a4.25,4.25,0,0,1,1.89-1.85,5.06,5.06,0,0,1,2.48-.54l1,.06v4.53a4.16,4.16,0,0,0-2.07-.49,3.16,3.16,0,0,0-2.19.72A4.05,4.05,0,0,0,338,253.5v5.72h-4.8Z"/><path d="M347.89,237.54a2.7,2.7,0,1,1-2.7,2.7A2.69,2.69,0,0,1,347.89,237.54Zm2.4,8.28v13.4H345.5v-13.4Z"/><path d="M357.29,245.82l3.21,6.86,3.26-6.86h5.34l-7,13.4h-3.27l-6.92-13.4Z"/><path d="M381.13,245.82h4.8v13.4h-4.8v-1.47a5,5,0,0,1-4.17,1.92,6.4,6.4,0,0,1-4.82-2.13,6.74,6.74,0,0,1-1.92-4.91,7.45,7.45,0,0,1,2.07-5.38,6.94,6.94,0,0,1,4.83-1.88,5.26,5.26,0,0,1,4,1.74Zm-5,4.5a3.16,3.16,0,0,0-1,2.18,3,3,0,0,0,.94,2.19,3.37,3.37,0,0,0,2.15.9,3.09,3.09,0,0,0,2.16-.92,3,3,0,0,0,0-4.35,3,3,0,0,0-2.16-.87A3.09,3.09,0,0,0,376.09,250.32Z"/><path d="M394.54,249.75v9.47h-4.79v-9.47h-1.54v-3.93h1.54v-4.41h4.79v4.41h2.73v3.93Z"/><path d="M409.45,245.82h4.8v13.4h-4.8v-1.47a5,5,0,0,1-4.17,1.92,6.39,6.39,0,0,1-4.82-2.13,6.74,6.74,0,0,1-1.92-4.91,7.44,7.44,0,0,1,2.06-5.38,6.94,6.94,0,0,1,4.83-1.88,5.31,5.31,0,0,1,4,1.74Zm2.64-6.9a4.73,4.73,0,0,1-1.32,3.27,6.31,6.31,0,0,1-7.8,0,4.78,4.78,0,0,1-1.32-3.27h3.09a2.08,2.08,0,0,0,.6,1.23,2.44,2.44,0,0,0,3.06,0,2.08,2.08,0,0,0,.6-1.23Zm-7.68,11.4a3.12,3.12,0,0,0-1,2.18,3.06,3.06,0,0,0,.93,2.19,3.37,3.37,0,0,0,2.16.9,3.11,3.11,0,0,0,2.16-.92,3,3,0,0,0,0-4.35,3,3,0,0,0-2.16-.87A3.07,3.07,0,0,0,404.41,250.32Z"/><path d="M751.34,186.59h-8.47l-1.57,3.92h-6.41l9-23.34h6.62l8.78,23.34h-6.47ZM749.73,182l-2.62-7.56L744.55,182Z"/><path d="M779.13,190.51h-5.6V188.8a5.73,5.73,0,0,1-4.72,2.24,7.52,7.52,0,0,1-5.5-2.17,8.66,8.66,0,0,1-2.52-6.23,8.53,8.53,0,0,1,2.56-6.2,8,8,0,0,1,5.53-2.1,6.2,6.2,0,0,1,4.65,2V165h5.6Zm-6.61-5.18a3.75,3.75,0,0,0,1.19-2.66,4.12,4.12,0,0,0-1.05-2.52,3.45,3.45,0,0,0-2.56-1.05,3.42,3.42,0,0,0-2.48,1,3.85,3.85,0,0,0-1.09,2.66,3.54,3.54,0,0,0,1.09,2.45,3.47,3.47,0,0,0,2.48,1.05A3.83,3.83,0,0,0,772.52,185.33Z"/><path d="M783,174.87h5.6v2.55a5.06,5.06,0,0,1,2.21-2.17,6.15,6.15,0,0,1,2.9-.63c.14,0,.39,0,1.12.07V180a4.93,4.93,0,0,0-2.41-.56,3.66,3.66,0,0,0-2.56.84,4.72,4.72,0,0,0-1.26,3.57v6.68H783Z"/><path d="M813.89,183.72H802.23a4,4,0,0,0,1,2.63,3.15,3.15,0,0,0,2.31.77,4.51,4.51,0,0,0,1.82-.42,2.57,2.57,0,0,0,1-1h5.36a7.15,7.15,0,0,1-1.89,3.22c-1.16,1.12-3,2.17-6.37,2.17a8.9,8.9,0,0,1-6.48-2.38,8.23,8.23,0,0,1-2.31-5.92,8.33,8.33,0,0,1,2.35-6.05,8.79,8.79,0,0,1,6.4-2.28,8.57,8.57,0,0,1,6,2.14,8.75,8.75,0,0,1,2.49,6.58Zm-5.15-3.22a3.78,3.78,0,0,0-.91-1.68,3.28,3.28,0,0,0-2.31-.84,3,3,0,0,0-2.27.84,3.12,3.12,0,0,0-.84,1.68Z"/><path d="M818.12,185.33a8.23,8.23,0,0,0,2.24,1.16,7.46,7.46,0,0,0,2.17.38,2.36,2.36,0,0,0,1.44-.42.9.9,0,0,0,.28-.73.84.84,0,0,0-.28-.7,3.43,3.43,0,0,0-1.47-.56l-1.47-.35a5.07,5.07,0,0,1-2.74-1.37,3.79,3.79,0,0,1-1-2.69,5.62,5.62,0,0,1,1.47-3.82,7.92,7.92,0,0,1,5.6-1.89,12.83,12.83,0,0,1,5,1l-1.89,3.57a7.77,7.77,0,0,0-2.94-.77,2.38,2.38,0,0,0-1.3.31.85.85,0,0,0-.49.77.92.92,0,0,0,.67.88c.52.21,1,.21,1.85.45l1,.28a6.63,6.63,0,0,1,2.31,1.23,4.41,4.41,0,0,1,1.19,3.11,5.25,5.25,0,0,1-1.58,3.89c-1.82,1.82-4.48,2-5.77,2a11.58,11.58,0,0,1-6.3-1.82Z"/><path d="M844.75,174.87h5.61v15.64h-5.61V188.8a5.84,5.84,0,0,1-4.86,2.24,7.49,7.49,0,0,1-5.64-2.49,7.9,7.9,0,0,1-2.24-5.74,8.64,8.64,0,0,1,2.42-6.26,8,8,0,0,1,5.63-2.21,6.2,6.2,0,0,1,4.69,2Zm3.09-8.05a5.5,5.5,0,0,1-1.55,3.81,7.34,7.34,0,0,1-9.1,0,5.55,5.55,0,0,1-1.54-3.81h3.61a2.4,2.4,0,0,0,.7,1.43,2.84,2.84,0,0,0,3.57,0,2.4,2.4,0,0,0,.7-1.43Zm-9,13.3a3.5,3.5,0,0,0,0,5.11,3.93,3.93,0,0,0,2.52,1.05,3.6,3.6,0,0,0,2.52-1.09,3.4,3.4,0,0,0,1-2.52,3.45,3.45,0,0,0-1.09-2.55,3.52,3.52,0,0,0-5,0Z"/><path d="M868.94,167.17v23.34h-6.06V167.17Z"/><path d="M879.89,182.78v7.73h-6V167.17h9.66a8,8,0,0,1,5.91,2.1,7.24,7.24,0,0,1,2.17,5.67,7.59,7.59,0,0,1-2.06,5.81,7.79,7.79,0,0,1-5.81,2Zm0-4.9h2a4,4,0,0,0,2.56-.74,2.68,2.68,0,0,0,.77-2.13,2.83,2.83,0,0,0-.7-2.1,3.54,3.54,0,0,0-2.59-.84h-2.07Z"/><path d="M754,247.67h-6.4v-27H754v2a6.68,6.68,0,0,1,5.48-2.56,8.89,8.89,0,0,1,6.36,2.6,10.14,10.14,0,0,1-.16,14,8.59,8.59,0,0,1-6.12,2.48,7.57,7.57,0,0,1-5.56-2.32Zm1-21a4.36,4.36,0,0,0-1.24,3,4.32,4.32,0,0,0,1.24,2.84,4.09,4.09,0,0,0,2.88,1.2,3.86,3.86,0,0,0,2.84-1.2,4.23,4.23,0,0,0,1.24-2.84,4.36,4.36,0,0,0-1.24-3,3.86,3.86,0,0,0-2.84-1.2A4.09,4.09,0,0,0,755,226.68Z"/><path d="M778.64,220.64v10a3.43,3.43,0,0,0,1,2.6,3.31,3.31,0,0,0,2.24.68,3,3,0,0,0,2.28-.76,3.32,3.32,0,0,0,.92-2.52v-10h6.4V231.8a6.11,6.11,0,0,1-1.72,4.79c-2.2,2.29-5.28,2.52-7.72,2.52-2.68,0-6-.28-8.08-2.56a6.39,6.39,0,0,1-1.68-4.75V220.64Z"/><path d="M802.24,209.36v13a7.07,7.07,0,0,1,5.32-2.32,9.14,9.14,0,0,1,6.32,2.4,10.13,10.13,0,0,1,0,14.19,8.56,8.56,0,0,1-6.28,2.48,6.53,6.53,0,0,1-5.4-2.56v2h-6.4V209.36ZM809,232.48a4,4,0,0,0,1.24-2.8,4.39,4.39,0,0,0-1.24-3,4.1,4.1,0,0,0-5.76,0,4.68,4.68,0,0,0-1.2,2.88,4.29,4.29,0,0,0,1.36,3,4.37,4.37,0,0,0,2.76,1.08A4,4,0,0,0,809,232.48Z"/><path d="M826.88,209.36v29.15h-6.4V209.36Z"/><path d="M834.44,209.6a3.6,3.6,0,1,1-3.6,3.6A3.59,3.59,0,0,1,834.44,209.6Zm3.2,11v17.87h-6.4V220.64Z"/><path d="M855.52,238.11a9.49,9.49,0,0,1-4.44,1,9.88,9.88,0,0,1-7-2.72,9.33,9.33,0,0,1-2.76-6.67,9.74,9.74,0,0,1,2.88-6.92,10.31,10.31,0,0,1,7.2-2.72,9.17,9.17,0,0,1,4.16,1v5.36a5.7,5.7,0,0,0-3.32-1.16,4.19,4.19,0,0,0-3.12,1.24,4.35,4.35,0,0,0-1.24,3.08,4.59,4.59,0,0,0,1.12,3,4.34,4.34,0,0,0,3.28,1.36,4.84,4.84,0,0,0,3.28-1.2Z"/><path d="M873,220.64h6.39v17.87H873v-2a6.68,6.68,0,0,1-5.56,2.56,8.58,8.58,0,0,1-6.44-2.83,9,9,0,0,1-2.56-6.56,9.89,9.89,0,0,1,2.76-7.16,9.2,9.2,0,0,1,6.44-2.52,7.08,7.08,0,0,1,5.36,2.32Zm3.51-9.2a6.27,6.27,0,0,1-1.76,4.36,8.4,8.4,0,0,1-10.39,0,6.31,6.31,0,0,1-1.76-4.36h4.12a2.78,2.78,0,0,0,.8,1.64,3.25,3.25,0,0,0,4.08,0,2.78,2.78,0,0,0,.8-1.64Zm-10.23,15.2a4.18,4.18,0,0,0-1.28,2.92,4.12,4.12,0,0,0,1.24,2.92,4.49,4.49,0,0,0,2.88,1.2,4.1,4.1,0,0,0,2.88-1.24,3.88,3.88,0,0,0,1.2-2.88,4,4,0,0,0-1.24-2.92,4.06,4.06,0,0,0-5.68,0Z"/><rect x="474" y="286.91" width="150" height="56.01" rx="12" ry="12" style="fill:none;stroke:#c13018;stroke-miterlimit:10;stroke-width:5px"/><rect x="491.5" y="343.5" width="18" height="10" rx="5" ry="5" style="fill:none;stroke:#c13018;stroke-miterlimit:10;stroke-width:5px"/><rect x="594.5" y="343.5" width="18" height="10" rx="5" ry="5" style="fill:none;stroke:#c13018;stroke-miterlimit:10;stroke-width:5px"/><circle cx="492.79" cy="327.64" r="5.32" style="fill:#c13018"/><circle cx="508.05" cy="327.64" r="5.32" style="fill:#c13018"/><circle cx="523.68" cy="327.66" r="5.32" style="fill:#c13018"/><rect x="561.79" y="312.73" width="45.21" height="4.38" rx="0.82" ry="0.82" style="fill:none;stroke:#c13018;stroke-miterlimit:10;stroke-width:5px"/><path d="M506.5,255.05V230.5a3.5,3.5,0,0,0-7,0v24.55A3,3,0,0,0,497,258v26a3,3,0,0,0,3,3h6a3,3,0,0,0,3-3V258A3,3,0,0,0,506.5,255.05Z" style="fill:none;stroke:#c13018;stroke-miterlimit:10;stroke-width:5px"/><path d="M598.5,255.05V230.5a3.5,3.5,0,0,0-7,0v24.55A3,3,0,0,0,589,258v26a3,3,0,0,0,3,3h6a3,3,0,0,0,3-3V258A3,3,0,0,0,598.5,255.05Z" style="fill:none;stroke:#c13018;stroke-miterlimit:10;stroke-width:5px"/><path d="M274.4,74.17a7.57,7.57,0,0,1,5.71,2.06,7.7,7.7,0,0,1,2,5.25,6.76,6.76,0,0,1-1.85,4.87A6.6,6.6,0,0,1,277,88l7.31,9.55h-7.52l-5.81-9v9H265V74.17ZM271,84.63h1.15a4.54,4.54,0,0,0,2.94-.94,2.9,2.9,0,0,0,.77-2,2.77,2.77,0,0,0-.8-2,4.12,4.12,0,0,0-2.91-.91H271Z"/><path d="M303,90.72H291.31a4,4,0,0,0,1,2.63,3.15,3.15,0,0,0,2.31.77,4.51,4.51,0,0,0,1.82-.42,2.64,2.64,0,0,0,1-1h5.35a7,7,0,0,1-1.89,3.22c-1.15,1.12-3,2.17-6.37,2.17A8.88,8.88,0,0,1,288,95.66a8.19,8.19,0,0,1-2.31-5.92,8.36,8.36,0,0,1,2.34-6,8.83,8.83,0,0,1,6.41-2.28,8.58,8.58,0,0,1,6,2.14A8.77,8.77,0,0,1,303,90.13Zm-5.14-3.22a3.78,3.78,0,0,0-.91-1.68A3.29,3.29,0,0,0,294.6,85a3,3,0,0,0-2.28.84,3.27,3.27,0,0,0-.84,1.68Z"/><path d="M312.38,86.45V97.51h-5.6V86.45H305V81.87h1.79V76.72h5.6v5.15h3.18v4.58ZM307,99.26l5.25.57-3.57,6.44-3.5-.42Z"/><path d="M334.25,90.72H322.59a4,4,0,0,0,1,2.63,3.13,3.13,0,0,0,2.31.77,4.51,4.51,0,0,0,1.82-.42,2.64,2.64,0,0,0,1-1H334a7,7,0,0,1-1.89,3.22C331,97,329.18,98,325.78,98a8.9,8.9,0,0,1-6.48-2.38A8.23,8.23,0,0,1,317,89.74a8.33,8.33,0,0,1,2.35-6,8.81,8.81,0,0,1,6.41-2.28,8.58,8.58,0,0,1,6,2.14,8.77,8.77,0,0,1,2.48,6.58Zm-5.14-3.22a3.78,3.78,0,0,0-.91-1.68,3.29,3.29,0,0,0-2.31-.84,3,3,0,0,0-2.28.84,3.27,3.27,0,0,0-.84,1.68Z"/><path d="M349.58,81.87h5.6V97.51h-5.6V95.8A5.86,5.86,0,0,1,344.71,98a7.49,7.49,0,0,1-5.63-2.49,7.86,7.86,0,0,1-2.24-5.74,8.64,8.64,0,0,1,2.41-6.26,8.07,8.07,0,0,1,5.64-2.21,6.2,6.2,0,0,1,4.69,2Zm-5.88,5.25a3.65,3.65,0,0,0-1.12,2.55,3.59,3.59,0,0,0,1.09,2.56,3.91,3.91,0,0,0,2.52,1,3.63,3.63,0,0,0,2.52-1.09,3.4,3.4,0,0,0,1.05-2.52,3.48,3.48,0,0,0-1.09-2.55,3.54,3.54,0,0,0-5,0Z"/><path d="M372.78,72V97.51h-5.6V72Z"/><path d="M392.35,95.45a10.71,10.71,0,0,1-14,0A7.83,7.83,0,0,1,376,89.67a7.75,7.75,0,0,1,2.41-5.74,9.78,9.78,0,0,1,7-2.59,9.92,9.92,0,0,1,7,2.59,7.75,7.75,0,0,1,2.41,5.74A7.83,7.83,0,0,1,392.35,95.45Zm-9.49-8.33a3.55,3.55,0,1,0,5,5A3.47,3.47,0,0,0,389,89.67a3.78,3.78,0,0,0-1.08-2.55,3.59,3.59,0,0,0-5,0Z"/><path d="M409.81,97.17a8.34,8.34,0,0,1-3.88.87,8.65,8.65,0,0,1-6.16-2.38,8.21,8.21,0,0,1-2.42-5.85,8.53,8.53,0,0,1,2.52-6,9,9,0,0,1,6.3-2.38,8,8,0,0,1,3.64.87v4.69a5,5,0,0,0-2.9-1A3.67,3.67,0,0,0,404.18,87a3.83,3.83,0,0,0-1.09,2.7,4,4,0,0,0,1,2.62,3.82,3.82,0,0,0,2.87,1.19,4.2,4.2,0,0,0,2.87-1Z"/><path d="M425.11,81.87h5.6V97.51h-5.6V95.8A5.87,5.87,0,0,1,420.24,98a7.47,7.47,0,0,1-5.63-2.49,7.86,7.86,0,0,1-2.24-5.74,8.64,8.64,0,0,1,2.41-6.26,8.07,8.07,0,0,1,5.64-2.21,6.22,6.22,0,0,1,4.69,2Zm-5.88,5.25a3.52,3.52,0,0,0,0,5.11,4,4,0,0,0,2.52,1,3.6,3.6,0,0,0,2.52-1.09,3.4,3.4,0,0,0,1-2.52,3.47,3.47,0,0,0-1.08-2.55,3.54,3.54,0,0,0-5,0Z"/><path d="M440.16,72V97.51h-5.6V72Z"/><path d="M456.08,81.87h5.6V97.51h-5.6V95.8A5.84,5.84,0,0,1,451.22,98a7.49,7.49,0,0,1-5.64-2.49,7.9,7.9,0,0,1-2.24-5.74,8.64,8.64,0,0,1,2.42-6.26,8,8,0,0,1,5.63-2.21,6.2,6.2,0,0,1,4.69,2Zm3.08-8.05a5.46,5.46,0,0,1-1.54,3.81,7.34,7.34,0,0,1-9.1,0A5.55,5.55,0,0,1,447,73.82h3.61a2.4,2.4,0,0,0,.7,1.43,2.84,2.84,0,0,0,3.57,0,2.4,2.4,0,0,0,.7-1.43Zm-9,13.3a3.51,3.51,0,0,0,0,5.11,3.91,3.91,0,0,0,2.52,1,3.6,3.6,0,0,0,2.52-1.09,3.4,3.4,0,0,0,1.05-2.52,3.45,3.45,0,0,0-1.09-2.55,3.54,3.54,0,0,0-5,0Z"/></svg>