<svg id="Layer_1" data-name="Layer 1" xmlns="http://www.w3.org/2000/svg" viewBox="0 0 1466 940"><title>Capitolul11</title><rect x="114.13" y="375.1" width="148" height="89.21" rx="12" ry="12" style="fill:none;stroke:#91c54f;stroke-miterlimit:10;stroke-width:5px"/><rect x="164.3" y="463.8" width="47.64" height="16.22" rx="4.38" ry="4.38" style="fill:#91c54f"/><rect x="133.39" y="478.5" width="109.48" height="22.3" rx="6.03" ry="6.03" style="fill:none;stroke:#91c54f;stroke-miterlimit:10;stroke-width:5px"/><circle cx="34.55" cy="486.61" r="2.03" style="fill:#91c54f"/><circle cx="151.37" cy="486.61" r="2.03" style="fill:#91c54f"/><circle cx="34.55" cy="492.69" r="2.03" style="fill:#91c54f"/><circle cx="151.37" cy="492.69" r="2.03" style="fill:#91c54f"/><rect x="204.34" y="487.62" width="31.42" height="3.04" rx="0.82" ry="0.82" style="fill:none;stroke:#91c54f;stroke-miterlimit:10;stroke-width:5px"/><polygon points="318.25 405.12 391.55 405.12 391.55 415.68 414 393.23 391.55 370.78 391.55 381.34 318.25 381.34 318.25 405.12" style="fill:none;stroke:#c13018;stroke-miterlimit:10;stroke-width:5px"/><polygon points="318.25 486.12 391.55 486.12 391.55 496.68 414 474.23 391.55 451.78 391.55 462.34 318.25 462.34 318.25 486.12" style="fill:none;stroke:#f4c240;stroke-miterlimit:10;stroke-width:5px"/><rect x="1266.13" y="42.1" width="148" height="89.21" rx="12" ry="12" style="fill:none;stroke:#91c54f;stroke-miterlimit:10;stroke-width:5px"/><rect x="1316.3" y="130.8" width="47.64" height="16.22" rx="4.38" ry="4.38" style="fill:#91c54f"/><rect x="1285.39" y="145.5" width="109.48" height="22.3" rx="6.03" ry="6.03" style="fill:none;stroke:#91c54f;stroke-miterlimit:10;stroke-width:5px"/><circle cx="1297.55" cy="153.61" r="2.03" style="fill:#91c54f"/><circle cx="1303.37" cy="153.61" r="2.03" style="fill:#91c54f"/><circle cx="1297.55" cy="159.69" r="2.03" style="fill:#91c54f"/><circle cx="1303.37" cy="159.69" r="2.03" style="fill:#91c54f"/><rect x="1356.34" y="154.62" width="31.42" height="3.04" rx="0.82" ry="0.82" style="fill:none;stroke:#91c54f;stroke-miterlimit:10;stroke-width:5px"/><rect x="1276.13" y="643.1" width="148" height="89.21" rx="12" ry="12" style="fill:none;stroke:#91c54f;stroke-miterlimit:10;stroke-width:5px"/><rect x="1326.3" y="731.8" width="47.64" height="16.22" rx="4.38" ry="4.38" style="fill:#91c54f"/><rect x="1295.39" y="746.5" width="109.48" height="22.3" rx="6.03" ry="6.03" style="fill:none;stroke:#91c54f;stroke-miterlimit:10;stroke-width:5px"/><circle cx="1307.55" cy="754.61" r="2.03" style="fill:#91c54f"/><circle cx="1313.37" cy="754.61" r="2.03" style="fill:#91c54f"/><circle cx="1307.55" cy="760.69" r="2.03" style="fill:#91c54f"/><circle cx="1313.37" cy="760.69" r="2.03" style="fill:#91c54f"/><rect x="1366.34" y="755.62" width="31.42" height="3.04" rx="0.82" ry="0.82" style="fill:none;stroke:#91c54f;stroke-miterlimit:10;stroke-width:5px"/><rect x="456.71" y="400.91" width="150" height="56.01" rx="12" ry="12" style="fill:none;stroke:#3a5c84;stroke-miterlimit:10;stroke-width:5px"/><rect x="474.21" y="457.5" width="18" height="10" rx="5" ry="5" style="fill:none;stroke:#3a5c84;stroke-miterlimit:10;stroke-width:5px"/><rect x="577.21" y="457.5" width="18" height="10" rx="5" ry="5" style="fill:none;stroke:#3a5c84;stroke-miterlimit:10;stroke-width:5px"/><circle cx="475.5" cy="441.64" r="5.32" style="fill:#3a5c84"/><circle cx="490.76" cy="441.64" r="5.32" style="fill:#3a5c84"/><circle cx="506.39" cy="441.66" r="5.32" style="fill:#3a5c84"/><rect x="544.5" y="426.73" width="45.21" height="4.38" rx="0.82" ry="0.82" style="fill:none;stroke:#3a5c84;stroke-miterlimit:10;stroke-width:5px"/><path d="M489.21,369.05V344.5a3.5,3.5,0,0,0-7,0v24.55a3,3,0,0,0-2.5,2.95v26a3,3,0,0,0,3,3h6a3,3,0,0,0,3-3V372A3,3,0,0,0,489.21,369.05Z" style="fill:none;stroke:#3a5c84;stroke-miterlimit:10;stroke-width:5px"/><path d="M581.21,369.05V344.5a3.5,3.5,0,0,0-7,0v24.55a3,3,0,0,0-2.5,2.95v26a3,3,0,0,0,3,3h6a3,3,0,0,0,3-3V372A3,3,0,0,0,581.21,369.05Z" style="fill:none;stroke:#3a5c84;stroke-miterlimit:10;stroke-width:5px"/><rect x="926.71" y="101.91" width="150" height="56.01" rx="12" ry="12" style="fill:none;stroke:#3a5c84;stroke-miterlimit:10;stroke-width:5px"/><rect x="944.21" y="158.5" width="18" height="10" rx="5" ry="5" style="fill:none;stroke:#3a5c84;stroke-miterlimit:10;stroke-width:5px"/><rect x="1047.21" y="158.5" width="18" height="10" rx="5" ry="5" style="fill:none;stroke:#3a5c84;stroke-miterlimit:10;stroke-width:5px"/><circle cx="945.5" cy="142.64" r="5.32" style="fill:#3a5c84"/><circle cx="960.76" cy="142.64" r="5.32" style="fill:#3a5c84"/><circle cx="976.39" cy="142.66" r="5.32" style="fill:#3a5c84"/><rect x="1014.5" y="127.73" width="45.21" height="4.38" rx="0.82" ry="0.82" style="fill:none;stroke:#3a5c84;stroke-miterlimit:10;stroke-width:5px"/><path d="M959.21,70.05V45.5a3.5,3.5,0,0,0-7,0V70.05a3,3,0,0,0-2.5,3V99a3,3,0,0,0,3,3h6a3,3,0,0,0,3-3V73A3,3,0,0,0,959.21,70.05Z" style="fill:none;stroke:#3a5c84;stroke-miterlimit:10;stroke-width:5px"/><path d="M1051.21,70.05V45.5a3.5,3.5,0,0,0-7,0V70.05a3,3,0,0,0-2.5,3V99a3,3,0,0,0,3,3h6a3,3,0,0,0,3-3V73A3,3,0,0,0,1051.21,70.05Z" style="fill:none;stroke:#3a5c84;stroke-miterlimit:10;stroke-width:5px"/><rect x="926.71" y="687.91" width="150" height="56.01" rx="12" ry="12" style="fill:none;stroke:#3a5c84;stroke-miterlimit:10;stroke-width:5px"/><rect x="944.21" y="744.5" width="18" height="10" rx="5" ry="5" style="fill:none;stroke:#3a5c84;stroke-miterlimit:10;stroke-width:5px"/><rect x="1047.21" y="744.5" width="18" height="10" rx="5" ry="5" style="fill:none;stroke:#3a5c84;stroke-miterlimit:10;stroke-width:5px"/><circle cx="945.5" cy="728.64" r="5.32" style="fill:#3a5c84"/><circle cx="960.76" cy="728.64" r="5.32" style="fill:#3a5c84"/><circle cx="976.39" cy="728.66" r="5.32" style="fill:#3a5c84"/><rect x="1014.5" y="713.73" width="45.21" height="4.38" rx="0.82" ry="0.82" style="fill:none;stroke:#3a5c84;stroke-miterlimit:10;stroke-width:5px"/><path d="M959.21,656.05V631.5a3.5,3.5,0,0,0-7,0v24.55a3,3,0,0,0-2.5,3v26a3,3,0,0,0,3,3h6a3,3,0,0,0,3-3V659A3,3,0,0,0,959.21,656.05Z" style="fill:none;stroke:#3a5c84;stroke-miterlimit:10;stroke-width:5px"/><path d="M1051.21,656.05V631.5a3.5,3.5,0,0,0-7,0v24.55a3,3,0,0,0-2.5,3v26a3,3,0,0,0,3,3h6a3,3,0,0,0,3-3V659A3,3,0,0,0,1051.21,656.05Z" style="fill:none;stroke:#3a5c84;stroke-miterlimit:10;stroke-width:5px"/><path d="M149,532.23a5.89,5.89,0,0,0,3.83,1.7,2.18,2.18,0,0,0,1.67-.58,1.49,1.49,0,0,0,.43-1.05,1.32,1.32,0,0,0-.48-1,5.94,5.94,0,0,0-2.15-.87l-1.12-.35a5.47,5.47,0,0,1-2.4-1.35,4.2,4.2,0,0,1-1-3,5.49,5.49,0,0,1,1.52-4,5.88,5.88,0,0,1,4.28-1.57,11.66,11.66,0,0,1,5.15,1.35L157,524.9a4.41,4.41,0,0,0-2.85-1.12,2.06,2.06,0,0,0-1.42.5,1.23,1.23,0,0,0-.43.9,1.1,1.1,0,0,0,.23.75,2.69,2.69,0,0,0,1.45.75l1.32.4a6.37,6.37,0,0,1,3,1.65,3.92,3.92,0,0,1,1.07,3,5.64,5.64,0,0,1-1.57,4.2,6.49,6.49,0,0,1-4.93,1.7,8.87,8.87,0,0,1-3.27-.55,11.64,11.64,0,0,1-2.53-1.32Z"/><path d="M166.19,529.33v7.89h-4v-7.89h-1.28v-3.28h1.28v-3.67h4v3.67h2.27v3.28Z"/><path d="M178.61,526.05h4v11.17h-4V536a4.17,4.17,0,0,1-3.47,1.6,5.37,5.37,0,0,1-4-1.77,5.67,5.67,0,0,1-1.6-4.1,6.2,6.2,0,0,1,1.73-4.48,5.74,5.74,0,0,1,4-1.57,4.4,4.4,0,0,1,3.35,1.45Zm-4.2,3.75a2.63,2.63,0,0,0-.8,1.83,2.56,2.56,0,0,0,.78,1.82,2.79,2.79,0,0,0,1.8.75,2.56,2.56,0,0,0,1.8-.77,2.43,2.43,0,0,0,.75-1.8,2.46,2.46,0,0,0-.78-1.83,2.55,2.55,0,0,0-3.55,0Z"/><path d="M189.79,529.33v7.89h-4v-7.89h-1.28v-3.28h1.28v-3.67h4v3.67h2.27v3.28Zm-3.85,9.14,3.75.4-2.55,4.6-2.5-.3Z"/><path d="M195.56,519.15a2.25,2.25,0,1,1-2.25,2.25A2.24,2.24,0,0,1,195.56,519.15Zm2,6.9v11.17h-4V526.05Z"/><path d="M208.94,526.05h4v11.17h-4V536a4.2,4.2,0,0,1-3.48,1.6,5.35,5.35,0,0,1-4-1.77,5.63,5.63,0,0,1-1.6-4.1,6.19,6.19,0,0,1,1.72-4.48,5.76,5.76,0,0,1,4-1.57,4.41,4.41,0,0,1,3.35,1.45Zm-4.2,3.75a2.63,2.63,0,0,0-.8,1.83,2.55,2.55,0,0,0,.77,1.82,2.83,2.83,0,0,0,1.8.75,2.56,2.56,0,0,0,1.8-.77,2.43,2.43,0,0,0,.75-1.8,2.49,2.49,0,0,0-.77-1.83,2.57,2.57,0,0,0-1.8-.72A2.54,2.54,0,0,0,204.74,529.8Z"/><path d="M232.06,534.43H226l-1.12,2.79h-4.58l6.4-16.67h4.72l6.28,16.67h-4.63Zm-1.15-3.3-1.87-5.4-1.83,5.4Z"/><path d="M1298.11,214.23a5.89,5.89,0,0,0,3.83,1.7,2.18,2.18,0,0,0,1.67-.58,1.49,1.49,0,0,0,.43-1,1.32,1.32,0,0,0-.48-1,5.94,5.94,0,0,0-2.15-.87l-1.12-.35a5.47,5.47,0,0,1-2.4-1.35,4.2,4.2,0,0,1-1-2.95,5.49,5.49,0,0,1,1.52-4,5.88,5.88,0,0,1,4.28-1.57,11.59,11.59,0,0,1,5.14,1.35l-1.72,3.37a4.41,4.41,0,0,0-2.85-1.12,2.06,2.06,0,0,0-1.42.5,1.23,1.23,0,0,0-.43.9,1.1,1.1,0,0,0,.23.75,2.69,2.69,0,0,0,1.45.75l1.32.4a6.37,6.37,0,0,1,3,1.65,4,4,0,0,1,1.07,3,5.64,5.64,0,0,1-1.57,4.2,6.49,6.49,0,0,1-4.93,1.7,8.87,8.87,0,0,1-3.27-.55,11.64,11.64,0,0,1-2.53-1.32Z"/><path d="M1315.34,211.33v7.89h-4v-7.89h-1.28v-3.28h1.28v-3.67h4v3.67h2.27v3.28Z"/><path d="M1327.76,208.05h4v11.17h-4V218a4.17,4.17,0,0,1-3.47,1.6,5.37,5.37,0,0,1-4-1.77,5.67,5.67,0,0,1-1.6-4.1,6.2,6.2,0,0,1,1.73-4.48,5.74,5.74,0,0,1,4-1.57,4.4,4.4,0,0,1,3.35,1.45Zm-4.2,3.75a2.63,2.63,0,0,0-.8,1.83,2.56,2.56,0,0,0,.78,1.82,2.79,2.79,0,0,0,1.8.75,2.56,2.56,0,0,0,1.8-.77,2.56,2.56,0,0,0,0-3.63,2.55,2.55,0,0,0-3.55,0Z"/><path d="M1338.94,211.33v7.89h-4v-7.89h-1.28v-3.28h1.28v-3.67h4v3.67h2.27v3.28Zm-3.85,9.14,3.75.4-2.55,4.6-2.5-.3Z"/><path d="M1344.71,201.15a2.25,2.25,0,1,1-2.25,2.25A2.24,2.24,0,0,1,1344.71,201.15Zm2,6.9v11.17h-4V208.05Z"/><path d="M1358.08,208.05h4v11.17h-4V218a4.17,4.17,0,0,1-3.47,1.6,5.35,5.35,0,0,1-4-1.77,5.63,5.63,0,0,1-1.6-4.1,6.19,6.19,0,0,1,1.72-4.48,5.76,5.76,0,0,1,4-1.57,4.37,4.37,0,0,1,3.34,1.45Zm-4.19,3.75a2.63,2.63,0,0,0-.8,1.83,2.55,2.55,0,0,0,.77,1.82,2.83,2.83,0,0,0,1.8.75,2.56,2.56,0,0,0,1.8-.77,2.43,2.43,0,0,0,.75-1.8,2.49,2.49,0,0,0-.77-1.83,2.57,2.57,0,0,0-1.8-.72A2.54,2.54,0,0,0,1353.89,211.8Z"/><path d="M1371,219.22V202.55h6.45a4.68,4.68,0,0,1,3.64,1.3,4.5,4.5,0,0,1,1,3.13,4.34,4.34,0,0,1-.48,2.05,2.63,2.63,0,0,1-1.35,1.3,4.16,4.16,0,0,1,2.28,1,4.2,4.2,0,0,1,1.12,3,4.53,4.53,0,0,1-1.22,3.27,6.28,6.28,0,0,1-4.53,1.57Zm4.32-10.09h.8a2.27,2.27,0,0,0,1.65-.53,1.62,1.62,0,0,0,.4-1.1,1.7,1.7,0,0,0-.4-1.12,2.26,2.26,0,0,0-1.65-.5h-.8Zm0,6.72h1c1.2,0,2.2-.12,2.67-.67a1.64,1.64,0,0,0,.35-1.08,1.71,1.71,0,0,0-.43-1.2c-.52-.52-1.6-.55-2.67-.55h-.9Z"/><path d="M969,202.55A5.36,5.36,0,0,1,973,204a5.48,5.48,0,0,1,1.43,3.75,4.79,4.79,0,0,1-1.33,3.47,4.61,4.61,0,0,1-2.3,1.15l5.23,6.82h-5.38l-4.15-6.39v6.39H962.2V202.55ZM966.52,210h.83a3.26,3.26,0,0,0,2.1-.68A2.08,2.08,0,0,0,970,208a2,2,0,0,0-.58-1.4,2.92,2.92,0,0,0-2.07-.65h-.83Z"/><path d="M981.5,208.05v6.25a2.14,2.14,0,0,0,.6,1.63,2.05,2.05,0,0,0,1.4.42,1.87,1.87,0,0,0,1.42-.47,2.09,2.09,0,0,0,.58-1.58v-6.25h4v7a3.82,3.82,0,0,1-1.08,3,6.35,6.35,0,0,1-4.82,1.58c-1.68,0-3.72-.18-5.05-1.6a4,4,0,0,1-1-3v-7Z"/><path d="M996.67,211.33v7.89h-4v-7.89H991.4v-3.28h1.27v-3.67h4v3.67H999v3.28Z"/><path d="M1012.3,214.38H1004a2.83,2.83,0,0,0,.7,1.87,2.25,2.25,0,0,0,1.65.55,3.07,3.07,0,0,0,1.3-.3,1.83,1.83,0,0,0,.7-.75h3.83a5.09,5.09,0,0,1-1.35,2.3,6.09,6.09,0,0,1-4.55,1.55,6.33,6.33,0,0,1-4.62-1.7,5.82,5.82,0,0,1-1.66-4.22,6,6,0,0,1,1.68-4.33,6.27,6.27,0,0,1,4.57-1.62,6.11,6.11,0,0,1,4.3,1.52,6.24,6.24,0,0,1,1.78,4.7Zm-3.68-2.3a2.66,2.66,0,0,0-.65-1.2,2.3,2.3,0,0,0-1.65-.6,2.12,2.12,0,0,0-1.62.6,2.21,2.21,0,0,0-.6,1.2Z"/><path d="M1014.6,208.05h4v1.83a3.6,3.6,0,0,1,1.57-1.55,4.32,4.32,0,0,1,2.08-.45l.8.05v3.77a3.54,3.54,0,0,0-1.73-.4,2.63,2.63,0,0,0-1.82.6,3.38,3.38,0,0,0-.9,2.55v4.77h-4Z"/><path d="M1032.12,214.23a5.89,5.89,0,0,0,3.83,1.7,2.18,2.18,0,0,0,1.67-.58,1.49,1.49,0,0,0,.43-1,1.32,1.32,0,0,0-.48-1,5.94,5.94,0,0,0-2.15-.87l-1.12-.35a5.47,5.47,0,0,1-2.4-1.35,4.2,4.2,0,0,1-1-2.95,5.49,5.49,0,0,1,1.52-4,5.88,5.88,0,0,1,4.28-1.57,11.66,11.66,0,0,1,5.15,1.35l-1.73,3.37a4.41,4.41,0,0,0-2.85-1.12,2.06,2.06,0,0,0-1.42.5,1.23,1.23,0,0,0-.43.9,1.1,1.1,0,0,0,.23.75,2.69,2.69,0,0,0,1.45.75l1.32.4a6.37,6.37,0,0,1,3,1.65,3.92,3.92,0,0,1,1.07,3,5.64,5.64,0,0,1-1.57,4.2,6.49,6.49,0,0,1-4.93,1.7,8.87,8.87,0,0,1-3.27-.55,11.64,11.64,0,0,1-2.53-1.32Z"/><path d="M971.2,793.55a5.36,5.36,0,0,1,4.07,1.48,5.48,5.48,0,0,1,1.43,3.75,4.79,4.79,0,0,1-1.33,3.47,4.61,4.61,0,0,1-2.3,1.15l5.23,6.82h-5.38l-4.15-6.39v6.39h-4.32V793.55ZM968.77,801h.83a3.26,3.26,0,0,0,2.1-.68,2.08,2.08,0,0,0,.55-1.4,2,2,0,0,0-.58-1.4,2.92,2.92,0,0,0-2.07-.65h-.83Z"/><path d="M983.75,799.05v6.25a2.14,2.14,0,0,0,.6,1.63,2.05,2.05,0,0,0,1.4.42,1.87,1.87,0,0,0,1.42-.47,2.09,2.09,0,0,0,.58-1.58v-6.25h4v7a3.82,3.82,0,0,1-1.08,3,6.35,6.35,0,0,1-4.82,1.58c-1.68,0-3.72-.18-5.05-1.6a4,4,0,0,1-1-3v-7Z"/><path d="M998.92,802.33v7.89h-4v-7.89h-1.27v-3.28h1.27v-3.67h4v3.67h2.28v3.28Z"/><path d="M1014.55,805.38h-8.33a2.83,2.83,0,0,0,.7,1.87,2.25,2.25,0,0,0,1.65.55,3.07,3.07,0,0,0,1.3-.3,1.83,1.83,0,0,0,.7-.75h3.83a5.09,5.09,0,0,1-1.35,2.3,6.09,6.09,0,0,1-4.55,1.55,6.33,6.33,0,0,1-4.62-1.7,5.82,5.82,0,0,1-1.66-4.22,6,6,0,0,1,1.68-4.33,6.27,6.27,0,0,1,4.57-1.62,6.11,6.11,0,0,1,4.3,1.52,6.24,6.24,0,0,1,1.78,4.7Zm-3.68-2.3a2.66,2.66,0,0,0-.65-1.2,2.3,2.3,0,0,0-1.65-.6,2.12,2.12,0,0,0-1.62.6,2.21,2.21,0,0,0-.6,1.2Z"/><path d="M1016.85,799.05h4v1.83a3.6,3.6,0,0,1,1.57-1.55,4.32,4.32,0,0,1,2.08-.45l.8,0v3.77a3.54,3.54,0,0,0-1.73-.4,2.63,2.63,0,0,0-1.82.6,3.38,3.38,0,0,0-.9,2.55v4.77h-4Z"/><path d="M1039.57,797.23v13h-4.32v-13h-3.55v-3.68h11.42v3.68Z"/><path d="M498.25,505.55a5.36,5.36,0,0,1,4.07,1.48,5.48,5.48,0,0,1,1.43,3.75,4.79,4.79,0,0,1-1.33,3.47,4.61,4.61,0,0,1-2.3,1.15l5.23,6.82H500l-4.15-6.39v6.39H491.5V505.55ZM495.82,513h.83a3.26,3.26,0,0,0,2.1-.68,2.08,2.08,0,0,0,.55-1.4,2,2,0,0,0-.58-1.4,2.92,2.92,0,0,0-2.07-.65h-.83Z"/><path d="M510.8,511.05v6.25a2.14,2.14,0,0,0,.6,1.63,2.05,2.05,0,0,0,1.4.42,1.87,1.87,0,0,0,1.42-.47,2.09,2.09,0,0,0,.58-1.58v-6.25h4v7a3.82,3.82,0,0,1-1.08,3,6.35,6.35,0,0,1-4.82,1.58c-1.68,0-3.73-.18-5-1.6a4,4,0,0,1-1.05-3v-7Z"/><path d="M526,514.33v7.89h-4v-7.89H520.7v-3.28H522v-3.67h4v3.67h2.28v3.28Z"/><path d="M541.6,517.38h-8.33a2.83,2.83,0,0,0,.7,1.87,2.25,2.25,0,0,0,1.65.55,3.07,3.07,0,0,0,1.3-.3,1.83,1.83,0,0,0,.7-.75h3.83a5.09,5.09,0,0,1-1.35,2.3,6.09,6.09,0,0,1-4.55,1.55,6.37,6.37,0,0,1-4.63-1.7,5.86,5.86,0,0,1-1.64-4.22,6,6,0,0,1,1.67-4.33,6.27,6.27,0,0,1,4.57-1.62,6.11,6.11,0,0,1,4.3,1.52,6.24,6.24,0,0,1,1.78,4.7Zm-3.68-2.3a2.66,2.66,0,0,0-.65-1.2,2.3,2.3,0,0,0-1.65-.6,2.12,2.12,0,0,0-1.62.6,2.21,2.21,0,0,0-.6,1.2Z"/><path d="M543.9,511.05h4v1.83a3.6,3.6,0,0,1,1.57-1.55,4.32,4.32,0,0,1,2.08-.45l.8.05v3.77a3.54,3.54,0,0,0-1.73-.4,2.63,2.63,0,0,0-1.82.6,3.38,3.38,0,0,0-.9,2.55v4.77h-4Z"/><path d="M567.07,505.55a5.39,5.39,0,0,1,4.08,1.48,5.47,5.47,0,0,1,1.42,3.75,4.83,4.83,0,0,1-1.32,3.47,4.65,4.65,0,0,1-2.3,1.15l5.22,6.82H568.8l-4.15-6.39v6.39h-4.33V505.55ZM564.65,513h.82a3.25,3.25,0,0,0,2.1-.68,2,2,0,0,0,.55-1.4,2,2,0,0,0-.57-1.4,3,3,0,0,0-2.08-.65h-.82Z"/><path d="M1308.47,805.23a5.89,5.89,0,0,0,3.83,1.7,2.18,2.18,0,0,0,1.67-.58,1.49,1.49,0,0,0,.43-1.05,1.32,1.32,0,0,0-.48-1,5.94,5.94,0,0,0-2.15-.87l-1.12-.35a5.47,5.47,0,0,1-2.4-1.35,4.2,4.2,0,0,1-1-3,5.49,5.49,0,0,1,1.52-4,5.88,5.88,0,0,1,4.28-1.57,11.66,11.66,0,0,1,5.15,1.35l-1.73,3.37a4.41,4.41,0,0,0-2.85-1.12,2.06,2.06,0,0,0-1.42.5,1.23,1.23,0,0,0-.43.9,1.1,1.1,0,0,0,.23.75,2.69,2.69,0,0,0,1.45.75l1.32.4a6.37,6.37,0,0,1,3,1.65,3.92,3.92,0,0,1,1.07,3,5.64,5.64,0,0,1-1.57,4.2,6.49,6.49,0,0,1-4.93,1.7,8.9,8.9,0,0,1-3.27-.55,11.91,11.91,0,0,1-2.52-1.32Z"/><path d="M1325.7,802.33v7.89h-4v-7.89h-1.27v-3.28h1.27v-3.67h4v3.67H1328v3.28Z"/><path d="M1338.12,799.05h4v11.17h-4V809a4.17,4.17,0,0,1-3.47,1.6,5.34,5.34,0,0,1-4-1.77,5.63,5.63,0,0,1-1.6-4.1,6.19,6.19,0,0,1,1.72-4.48,5.74,5.74,0,0,1,4-1.57,4.4,4.4,0,0,1,3.35,1.45Zm-4.2,3.75a2.63,2.63,0,0,0-.8,1.83,2.56,2.56,0,0,0,.78,1.82,2.79,2.79,0,0,0,1.8.75,2.56,2.56,0,0,0,1.8-.77,2.43,2.43,0,0,0,.75-1.8,2.46,2.46,0,0,0-.78-1.83,2.55,2.55,0,0,0-3.55,0Z"/><path d="M1349.3,802.33v7.89h-4v-7.89H1344v-3.28h1.27v-3.67h4v3.67h2.27v3.28Zm-3.85,9.14,3.75.4-2.55,4.6-2.5-.3Z"/><path d="M1355.07,792.15a2.25,2.25,0,1,1-2.25,2.25A2.24,2.24,0,0,1,1355.07,792.15Zm2,6.9v11.17h-4V799.05Z"/><path d="M1368.45,799.05h4v11.17h-4V809a4.2,4.2,0,0,1-3.48,1.6,5.35,5.35,0,0,1-4-1.77,5.67,5.67,0,0,1-1.6-4.1,6.19,6.19,0,0,1,1.72-4.48,5.76,5.76,0,0,1,4-1.57,4.41,4.41,0,0,1,3.35,1.45Zm-4.2,3.75a2.63,2.63,0,0,0-.8,1.83,2.55,2.55,0,0,0,.77,1.82,2.83,2.83,0,0,0,1.8.75,2.56,2.56,0,0,0,1.8-.77,2.43,2.43,0,0,0,.75-1.8,2.49,2.49,0,0,0-.77-1.83,2.57,2.57,0,0,0-1.8-.72A2.54,2.54,0,0,0,1364.25,802.8Z"/><path d="M1393.37,809.77a10.18,10.18,0,0,1-3.75.83,9.08,9.08,0,0,1-6.45-2.5,8.75,8.75,0,0,1-2.52-6.07,8.74,8.74,0,0,1,8.82-8.75,10.24,10.24,0,0,1,3.9.85v5.17a4.65,4.65,0,0,0-3.77-1.82,4.2,4.2,0,0,0-3,1.1,4.63,4.63,0,0,0-1.45,3.42,4.27,4.27,0,0,0,4.45,4.4,4.86,4.86,0,0,0,3.77-1.75Z"/><rect x="648" y="425" width="96" height="11" rx="5.5" ry="5.5" style="fill:#3a5c84"/><rect x="445" y="418" width="587" height="11" rx="5.5" ry="5.5" transform="translate(315 1162) rotate(-90)" style="fill:#3a5c84"/><polygon points="784.75 149.12 858.05 149.12 858.05 159.68 880.5 137.23 858.05 114.78 858.05 125.34 784.75 125.34 784.75 149.12" style="fill:none;stroke:#c13018;stroke-miterlimit:10;stroke-width:5px"/><polygon points="1133.25 149.12 1206.55 149.12 1206.55 159.68 1229 137.23 1206.55 114.78 1206.55 125.34 1133.25 125.34 1133.25 149.12" style="fill:none;stroke:#c13018;stroke-miterlimit:10;stroke-width:5px"/><polygon points="1133.25 730.12 1206.55 730.12 1206.55 740.68 1229 718.23 1206.55 695.78 1206.55 706.34 1133.25 706.34 1133.25 730.12" style="fill:none;stroke:#f4c240;stroke-miterlimit:10;stroke-width:5px"/><polygon points="784.75 726.12 858.05 726.12 858.05 736.68 880.5 714.23 858.05 691.78 858.05 702.34 784.75 702.34 784.75 726.12" style="fill:none;stroke:#f4c240;stroke-miterlimit:10;stroke-width:5px"/><polygon points="41 794.77 87.45 794.77 87.45 801.47 101.68 787.24 87.45 773.01 87.45 779.7 41 779.7 41 794.77" style="fill:none;stroke:#c13018;stroke-miterlimit:10;stroke-width:3.16899991035461px"/><path d="M149.93,794.88a14.3,14.3,0,0,1-5.25,1.16,12.71,12.71,0,0,1-9-3.5,12.28,12.28,0,0,1-3.53-8.51,12.24,12.24,0,0,1,12.35-12.25,14.57,14.57,0,0,1,5.46,1.19v7.25a6.49,6.49,0,0,0-5.28-2.56,5.93,5.93,0,0,0-4.2,1.54,6.5,6.5,0,0,0-2,4.8,6.43,6.43,0,0,0,1.89,4.55,6.52,6.52,0,0,0,4.34,1.61,6.86,6.86,0,0,0,5.28-2.45Z"/><path d="M169,793.45a10.71,10.71,0,0,1-14,0,7.8,7.8,0,0,1-2.42-5.78,7.72,7.72,0,0,1,2.42-5.74,9.78,9.78,0,0,1,7-2.59,9.92,9.92,0,0,1,7,2.59,7.75,7.75,0,0,1,2.41,5.74A7.83,7.83,0,0,1,169,793.45Zm-9.49-8.33a3.55,3.55,0,1,0,5,5,3.47,3.47,0,0,0,1.08-2.49,3.78,3.78,0,0,0-1.08-2.55,3.59,3.59,0,0,0-5,0Z"/><path d="M174.64,779.87h5.6v1.89a6,6,0,0,1,4.69-2.17,6.31,6.31,0,0,1,3,.7,4.81,4.81,0,0,1,2.17,2.24,5.47,5.47,0,0,1,2.14-2.17,6.33,6.33,0,0,1,3.25-.77,6.2,6.2,0,0,1,4.34,1.43,5.76,5.76,0,0,1,1.47,4.31v10.18h-5.6v-7.73c0-1.65-.17-2.77-.8-3.36a2.06,2.06,0,0,0-1.47-.53,2.3,2.3,0,0,0-1.65.63,4,4,0,0,0-1,3v8h-5.6v-7.73c0-1.51-.11-2.7-.74-3.36a2.15,2.15,0,0,0-1.68-.63,2,2,0,0,0-1.54.56c-1,.94-1,2.45-1,3.43v7.73h-5.6Z"/><path d="M210.79,779.87v8.75a3,3,0,0,0,.84,2.27,2.92,2.92,0,0,0,2,.6,2.59,2.59,0,0,0,2-.67,2.9,2.9,0,0,0,.81-2.2v-8.75H222v9.76a5.37,5.37,0,0,1-1.51,4.2c-1.92,2-4.62,2.21-6.75,2.21-2.35,0-5.22-.25-7.08-2.24a5.63,5.63,0,0,1-1.47-4.17v-9.76Z"/><path d="M225.84,779.87h5.6v2a5.91,5.91,0,0,1,5-2.31A6.31,6.31,0,0,1,241,781.2c1.33,1.33,1.47,2.66,1.47,4.37v9.94h-5.6V787.6c0-.91,0-2.27-.7-3a2.37,2.37,0,0,0-1.79-.67,3,3,0,0,0-2.06.74,3.55,3.55,0,0,0-.92,2.48v8.4h-5.6Z"/><path d="M249.12,770.21a3.15,3.15,0,1,1-3.15,3.15A3.14,3.14,0,0,1,249.12,770.21Zm2.8,9.66v15.64h-5.6V779.87Z"/><path d="M267.57,795.16a8.28,8.28,0,0,1-3.89.88,8.65,8.65,0,0,1-6.16-2.38,8.21,8.21,0,0,1-2.42-5.85,8.53,8.53,0,0,1,2.52-6,9,9,0,0,1,6.3-2.38,8.05,8.05,0,0,1,3.65.87v4.69a5.05,5.05,0,0,0-2.91-1,3.67,3.67,0,0,0-2.73,1.08,3.83,3.83,0,0,0-1.09,2.7,4,4,0,0,0,1,2.62,3.82,3.82,0,0,0,2.87,1.19,4.23,4.23,0,0,0,2.88-1Z"/><path d="M282.86,779.87h5.6v15.64h-5.6V793.8A5.87,5.87,0,0,1,278,796a7.47,7.47,0,0,1-5.63-2.49,7.86,7.86,0,0,1-2.24-5.74,8.64,8.64,0,0,1,2.41-6.26,8.07,8.07,0,0,1,5.64-2.21,6.22,6.22,0,0,1,4.69,2ZM277,785.12a3.52,3.52,0,0,0,0,5.11,4,4,0,0,0,2.52,1,3.6,3.6,0,0,0,2.52-1.09,3.4,3.4,0,0,0,1-2.52,3.47,3.47,0,0,0-1.08-2.55,3.54,3.54,0,0,0-5,0Z"/><path d="M298.5,784.45v11.06h-5.6V784.45h-1.78v-4.58h1.78v-5.15h5.6v5.15h3.19v4.58Zm-5.39,12.81,5.25.56-3.57,6.45-3.5-.42Z"/><path d="M306.59,770.21a3.15,3.15,0,1,1-3.15,3.15A3.14,3.14,0,0,1,306.59,770.21Zm2.8,9.66v15.64h-5.6V779.87Z"/><path d="M329.79,788.72H318.14a4,4,0,0,0,1,2.63,3.15,3.15,0,0,0,2.31.77,4.51,4.51,0,0,0,1.82-.42,2.64,2.64,0,0,0,1-1.05h5.36a7.09,7.09,0,0,1-1.9,3.22c-1.15,1.12-3,2.17-6.37,2.17a8.88,8.88,0,0,1-6.47-2.38,8.19,8.19,0,0,1-2.31-5.92,8.36,8.36,0,0,1,2.34-6,8.83,8.83,0,0,1,6.41-2.28,8.58,8.58,0,0,1,6,2.14,8.77,8.77,0,0,1,2.48,6.58Zm-5.14-3.22a3.78,3.78,0,0,0-.91-1.68,3.29,3.29,0,0,0-2.31-.84,3,3,0,0,0-2.28.84,3.27,3.27,0,0,0-.84,1.68Z"/><path d="M355.94,791.59h-8.47l-1.58,3.92h-6.4l9-23.34h6.61l8.79,23.34h-6.48ZM354.33,787l-2.63-7.56L349.15,787Z"/><path d="M366.72,783.79h8.85v4.65h-8.85Z"/><path d="M379.77,795.51V772.17h9a6.52,6.52,0,0,1,5.11,1.82,6.28,6.28,0,0,1,1.44,4.37,6,6,0,0,1-.67,2.87,3.64,3.64,0,0,1-1.89,1.82,5.82,5.82,0,0,1,3.19,1.4,5.9,5.9,0,0,1,1.57,4.27,6.37,6.37,0,0,1-1.71,4.59,8.8,8.8,0,0,1-6.34,2.2Zm6.06-14.14H387a3.22,3.22,0,0,0,2.31-.73,2.3,2.3,0,0,0,.56-1.54,2.41,2.41,0,0,0-.56-1.58,3.25,3.25,0,0,0-2.31-.7h-1.12Zm0,9.42h1.36c1.68,0,3.08-.18,3.75-.95a2.26,2.26,0,0,0,.49-1.5,2.37,2.37,0,0,0-.6-1.68c-.73-.74-2.24-.77-3.74-.77h-1.26Z"/><polygon points="41 864.26 87.45 864.26 87.45 870.96 101.68 856.73 87.45 842.5 87.45 849.2 41 849.2 41 864.26" style="fill:none;stroke:#f4c240;stroke-miterlimit:10;stroke-width:3.16899991035461px"/><path d="M149.93,864.38a14.3,14.3,0,0,1-5.25,1.16,12.71,12.71,0,0,1-9-3.5,12.29,12.29,0,0,1-3.53-8.51,12.24,12.24,0,0,1,12.35-12.25,14.37,14.37,0,0,1,5.46,1.19v7.24a6.5,6.5,0,0,0-5.28-2.55,5.89,5.89,0,0,0-4.2,1.54,6.5,6.5,0,0,0-2,4.79,6.41,6.41,0,0,0,1.89,4.55,6.48,6.48,0,0,0,4.34,1.62,6.86,6.86,0,0,0,5.28-2.45Z"/><path d="M169,863a10.71,10.71,0,0,1-14,0,7.8,7.8,0,0,1-2.42-5.78,7.72,7.72,0,0,1,2.42-5.74,9.78,9.78,0,0,1,7-2.59,9.88,9.88,0,0,1,7,2.59,7.75,7.75,0,0,1,2.41,5.74A7.83,7.83,0,0,1,169,863Zm-9.49-8.34a3.56,3.56,0,1,0,5,5,3.47,3.47,0,0,0,1.08-2.49,3.81,3.81,0,0,0-1.08-2.56,3.61,3.61,0,0,0-5,0Z"/><path d="M174.64,849.36h5.6v1.89a6,6,0,0,1,4.69-2.17,6.43,6.43,0,0,1,3,.7,4.86,4.86,0,0,1,2.17,2.24,5.54,5.54,0,0,1,2.14-2.17,6.33,6.33,0,0,1,3.25-.77,6.21,6.21,0,0,1,4.34,1.44,5.74,5.74,0,0,1,1.47,4.3V865h-5.6v-7.74c0-1.64-.17-2.76-.8-3.36a2.06,2.06,0,0,0-1.47-.52,2.26,2.26,0,0,0-1.65.63,4,4,0,0,0-1,3v8h-5.6v-7.74c0-1.5-.11-2.69-.74-3.36a2.19,2.19,0,0,0-1.68-.63,2,2,0,0,0-1.54.56,4.63,4.63,0,0,0-1,3.43V865h-5.6Z"/><path d="M210.79,849.36v8.76a3,3,0,0,0,.84,2.27,2.92,2.92,0,0,0,2,.6,2.59,2.59,0,0,0,2-.67,2.91,2.91,0,0,0,.81-2.2v-8.76H222v9.77a5.37,5.37,0,0,1-1.51,4.2c-1.92,2-4.62,2.21-6.75,2.21-2.35,0-5.22-.25-7.08-2.24a5.63,5.63,0,0,1-1.47-4.17v-9.77Z"/><path d="M225.84,849.36h5.6v2a5.91,5.91,0,0,1,5-2.31,6.35,6.35,0,0,1,4.62,1.68c1.33,1.33,1.47,2.66,1.47,4.38V865h-5.6V857.1c0-.91,0-2.28-.7-3.05a2.36,2.36,0,0,0-1.79-.66,3,3,0,0,0-2.06.73,3.57,3.57,0,0,0-.92,2.49V865h-5.6Z"/><path d="M249.12,839.7a3.15,3.15,0,1,1-3.15,3.15A3.14,3.14,0,0,1,249.12,839.7Zm2.8,9.66V865h-5.6V849.36Z"/><path d="M267.57,864.66a8.28,8.28,0,0,1-3.89.88,8.65,8.65,0,0,1-6.16-2.38,8.21,8.21,0,0,1-2.42-5.85,8.55,8.55,0,0,1,2.52-6.06,9,9,0,0,1,6.3-2.38,8.08,8.08,0,0,1,3.65.88v4.69a5,5,0,0,0-2.91-1,3.67,3.67,0,0,0-2.73,1.09,3.81,3.81,0,0,0-1.09,2.7,4,4,0,0,0,1,2.62,3.82,3.82,0,0,0,2.87,1.19,4.23,4.23,0,0,0,2.88-1Z"/><path d="M282.86,849.36h5.6V865h-5.6V863.3a5.87,5.87,0,0,1-4.87,2.24,7.47,7.47,0,0,1-5.63-2.49,7.86,7.86,0,0,1-2.24-5.74,8.67,8.67,0,0,1,2.41-6.27,8.06,8.06,0,0,1,5.64-2.2,6.18,6.18,0,0,1,4.69,2ZM277,854.61a3.67,3.67,0,0,0-1.12,2.56,3.62,3.62,0,0,0,1.08,2.56,4,4,0,0,0,2.52,1,3.6,3.6,0,0,0,2.52-1.09,3.4,3.4,0,0,0,1-2.52,3.49,3.49,0,0,0-1.08-2.56,3.56,3.56,0,0,0-5,0Z"/><path d="M298.5,854V865h-5.6V854h-1.78v-4.59h1.78v-5.14h5.6v5.14h3.19V854Zm-5.39,12.81,5.25.56-3.57,6.44-3.5-.42Z"/><path d="M306.59,839.7a3.15,3.15,0,1,1-3.15,3.15A3.14,3.14,0,0,1,306.59,839.7Zm2.8,9.66V865h-5.6V849.36Z"/><path d="M329.79,858.22H318.14a4,4,0,0,0,1,2.63,3.15,3.15,0,0,0,2.31.77,4.51,4.51,0,0,0,1.82-.42,2.64,2.64,0,0,0,1-1.05h5.36a7.09,7.09,0,0,1-1.9,3.22c-1.15,1.12-3,2.17-6.37,2.17a8.88,8.88,0,0,1-6.47-2.38,8.19,8.19,0,0,1-2.31-5.92,8.37,8.37,0,0,1,2.34-6.06,8.83,8.83,0,0,1,6.41-2.27,8.57,8.57,0,0,1,6,2.13,8.79,8.79,0,0,1,2.48,6.59ZM324.65,855a3.73,3.73,0,0,0-.91-1.68,3.25,3.25,0,0,0-2.31-.84,3,3,0,0,0-2.28.84,3.27,3.27,0,0,0-.84,1.68Z"/><path d="M355.94,861.09h-8.47L345.89,865h-6.4l9-23.35h6.61L363.85,865h-6.48Zm-1.61-4.62-2.63-7.56-2.55,7.56Z"/><path d="M366.72,853.28h8.85v4.66h-8.85Z"/><path d="M396.54,864.38a14.38,14.38,0,0,1-5.25,1.16,12.69,12.69,0,0,1-9-3.5,12.26,12.26,0,0,1-3.54-8.51,12.26,12.26,0,0,1,12.36-12.25,14.37,14.37,0,0,1,5.46,1.19v7.24a6.51,6.51,0,0,0-5.29-2.55,5.89,5.89,0,0,0-4.2,1.54,6.54,6.54,0,0,0-2,4.79,6.45,6.45,0,0,0,1.89,4.55,6.52,6.52,0,0,0,4.34,1.62,6.88,6.88,0,0,0,5.29-2.45Z"/><path d="M51.93,687.79v23.4h9.36v6.61H44.15v-30Z"/><path d="M86,709.08H71a5.07,5.07,0,0,0,1.26,3.37,4,4,0,0,0,3,1,5.6,5.6,0,0,0,2.34-.54,3.38,3.38,0,0,0,1.26-1.35h6.88a9,9,0,0,1-2.43,4.14c-1.48,1.44-3.82,2.79-8.19,2.79a11.42,11.42,0,0,1-8.32-3.06,10.53,10.53,0,0,1-3-7.61,10.75,10.75,0,0,1,3-7.78c1.67-1.62,4.28-2.92,8.24-2.92a11,11,0,0,1,7.74,2.74A11.27,11.27,0,0,1,86,708.31Zm-6.61-4.14a4.8,4.8,0,0,0-1.17-2.16,4.18,4.18,0,0,0-3-1.08,3.86,3.86,0,0,0-2.93,1.08,4.18,4.18,0,0,0-1.08,2.16Z"/><path d="M112.73,697.69v18.85c0,3-.27,5.76-2.75,8.33a12,12,0,0,1-8.86,3.24c-3.74,0-6.84-1-9.41-3.56a7.29,7.29,0,0,1-2.2-4.18h8c.27.81,1,2.07,3.37,2.07a4.39,4.39,0,0,0,3.2-1.13,4.84,4.84,0,0,0,1.44-3.73v-2a7.65,7.65,0,0,1-6,2.66,10.05,10.05,0,0,1-7.43-2.83A10.64,10.64,0,0,1,89.28,708a11.6,11.6,0,0,1,3-7.87,10.11,10.11,0,0,1,7.29-3.06,7.88,7.88,0,0,1,6,2.65v-2.07Zm-14.67,6.75a4.5,4.5,0,0,0,0,6.52,4.53,4.53,0,0,0,3.24,1.31,4.61,4.61,0,0,0,4.59-4.59,5.18,5.18,0,0,0-1.44-3.28,4.57,4.57,0,0,0-3.2-1.31A4.3,4.3,0,0,0,98.06,704.44Z"/><path d="M139,709.08H124a5.12,5.12,0,0,0,1.26,3.37,4,4,0,0,0,3,1,5.6,5.6,0,0,0,2.34-.54,3.32,3.32,0,0,0,1.26-1.35h6.89a9.16,9.16,0,0,1-2.43,4.14c-1.49,1.44-3.83,2.79-8.19,2.79a11.44,11.44,0,0,1-8.33-3.06,10.57,10.57,0,0,1-3-7.61,10.71,10.71,0,0,1,3-7.78c1.66-1.62,4.27-2.92,8.23-2.92a11,11,0,0,1,7.74,2.74,11.25,11.25,0,0,1,3.2,8.46Zm-6.62-4.14a4.8,4.8,0,0,0-1.17-2.16,4.17,4.17,0,0,0-3-1.08,3.84,3.84,0,0,0-2.92,1.08,4,4,0,0,0-1.08,2.16Z"/><path d="M143.15,697.69h7.2v2.52a7.58,7.58,0,0,1,6.39-3,8.16,8.16,0,0,1,5.94,2.16c1.71,1.71,1.89,3.42,1.89,5.63V717.8h-7.2V707.64c0-1.17,0-2.93-.9-3.92a3,3,0,0,0-2.3-.85,3.92,3.92,0,0,0-2.65.94,4.63,4.63,0,0,0-1.17,3.19v10.8h-7.2Z"/><path d="M192.24,717.8H185v-2.2a7.37,7.37,0,0,1-6.07,2.88,9.66,9.66,0,0,1-7.07-2.79,11.11,11.11,0,0,1-3.24-8,10.92,10.92,0,0,1,3.29-8,10.28,10.28,0,0,1,7.11-2.7,7.93,7.93,0,0,1,6,2.61V685h7.2Zm-8.5-6.65a4.86,4.86,0,0,0,1.53-3.42,5.24,5.24,0,0,0-1.35-3.24,4.62,4.62,0,0,0-6.48,0,4.94,4.94,0,0,0-1.4,3.42,4.53,4.53,0,0,0,1.4,3.15,4.46,4.46,0,0,0,3.19,1.35A5,5,0,0,0,183.74,711.15Z"/><path d="M212.76,697.69H220V717.8h-7.2v-2.2a7.51,7.51,0,0,1-6.25,2.88,9.63,9.63,0,0,1-7.25-3.2,10.15,10.15,0,0,1-2.88-7.37,11.14,11.14,0,0,1,3.11-8.06,10.34,10.34,0,0,1,7.24-2.83,7.93,7.93,0,0,1,6,2.61Zm4-10.35a7.07,7.07,0,0,1-2,4.91,9.48,9.48,0,0,1-11.7,0,7.17,7.17,0,0,1-2-4.91h4.64a3.15,3.15,0,0,0,.9,1.85,3.66,3.66,0,0,0,4.59,0,3.15,3.15,0,0,0,.9-1.85Zm-11.52,17.1a4.72,4.72,0,0,0-1.44,3.29,4.64,4.64,0,0,0,1.4,3.28,5,5,0,0,0,3.24,1.35,4.62,4.62,0,0,0,3.24-1.4,4.34,4.34,0,0,0,1.35-3.23,4.44,4.44,0,0,0-1.4-3.29,4.58,4.58,0,0,0-6.39,0Z"/><path d="M41,723.43v-2.25H222.44v2.25Z"/></svg>