<svg id="Layer_1" data-name="Layer 1" xmlns="http://www.w3.org/2000/svg" viewBox="0 0 2053 1305"><title>Capitolul11</title><rect x="71.09" y="1099.5" width="599.55" height="140" rx="12" ry="12" style="fill:none;stroke:#636868;stroke-miterlimit:10;stroke-width:5px"/><rect x="283.09" y="1099.5" width="599.55" height="140" rx="12" ry="12" style="fill:none;stroke:#c13018;stroke-miterlimit:10;stroke-width:5px"/><rect x="480.95" y="1099.5" width="599.55" height="140" rx="12" ry="12" style="fill:#fff;stroke:#91c54f;stroke-miterlimit:10;stroke-width:5.02915525768348px"/><rect x="283.09" y="840.5" width="599.55" height="140" rx="12" ry="12" style="fill:none;stroke:#c13018;stroke-miterlimit:10;stroke-width:5px"/><rect x="480.95" y="840.5" width="599.55" height="140" rx="12" ry="12" style="fill:none;stroke:#91c54f;stroke-miterlimit:10;stroke-width:5.02915525768348px"/><rect x="484.95" y="584.5" width="599.55" height="140" rx="12" ry="12" style="fill:none;stroke:#91c54f;stroke-miterlimit:10;stroke-width:5.02915525768348px"/><rect x="670.79" y="584.5" width="599.55" height="140" rx="12" ry="12" style="fill:none;stroke:#f7931f;stroke-miterlimit:10;stroke-width:5px"/><polygon points="1397.69 311.61 1397.69 247.18 1406.98 247.18 1387.24 227.44 1367.51 247.18 1376.8 247.18 1376.8 311.61 1397.69 311.61" style="fill:none;stroke:#4fc2c9;stroke-miterlimit:10;stroke-width:5px"/><polygon points="964.56 227.44 964.56 291.87 955.27 291.87 975.01 311.61 994.74 291.87 985.45 291.87 985.45 227.44 964.56 227.44" style="fill:none;stroke:#4fc2c9;stroke-miterlimit:10;stroke-width:5px"/><rect x="879.86" y="69.5" width="599.55" height="140" rx="12" ry="12" style="fill:none;stroke:#4fc2c9;stroke-miterlimit:10;stroke-width:5px"/><rect x="670.79" y="328.5" width="599.55" height="140" rx="12" ry="12" style="fill:none;stroke:#f7931f;stroke-miterlimit:10;stroke-width:5px"/><path d="M1549.46,152.76h-10.89l-2,5h-8.23l11.51-30h8.51l11.29,30h-8.32Zm-2.07-5.93-3.37-9.72-3.29,9.72Z"/><path d="M1569.62,168.11h-7.2V137.69h7.2v2.21a7.52,7.52,0,0,1,6.17-2.88,10,10,0,0,1,7.15,2.92,11.42,11.42,0,0,1-.18,15.75,9.68,9.68,0,0,1-6.88,2.79,8.56,8.56,0,0,1-6.26-2.61Zm1.17-23.62a4.52,4.52,0,0,0,0,6.52,4.6,4.6,0,0,0,3.24,1.35,4.34,4.34,0,0,0,3.2-1.35,4.77,4.77,0,0,0,1.39-3.19,4.87,4.87,0,0,0-1.39-3.33,4.34,4.34,0,0,0-3.2-1.35A4.6,4.6,0,0,0,1570.79,144.49Z"/><path d="M1597.34,125v32.8h-7.2V125Z"/><path d="M1605.85,125.27a4,4,0,1,1-4,4A4,4,0,0,1,1605.85,125.27Zm3.6,12.42V157.8h-7.2V137.69Z"/><path d="M1629.56,157.35a10.61,10.61,0,0,1-5,1.13,11.12,11.12,0,0,1-7.92-3.06,10.51,10.51,0,0,1-3.11-7.51,11,11,0,0,1,3.24-7.79,11.6,11.6,0,0,1,8.1-3.06,10.34,10.34,0,0,1,4.68,1.13v6a6.42,6.42,0,0,0-3.73-1.3,4.68,4.68,0,0,0-3.51,1.4,4.87,4.87,0,0,0-1.4,3.46,5.16,5.16,0,0,0,1.26,3.37,4.87,4.87,0,0,0,3.69,1.53,5.44,5.44,0,0,0,3.69-1.34Z"/><path d="M1649.23,137.69h7.2V157.8h-7.2v-2.2a7.54,7.54,0,0,1-6.26,2.88,9.63,9.63,0,0,1-7.24-3.19,10.15,10.15,0,0,1-2.88-7.38,11.14,11.14,0,0,1,3.1-8.06,10.36,10.36,0,0,1,7.25-2.83,8,8,0,0,1,6,2.61Zm-7.56,6.75a4.7,4.7,0,0,0-1.44,3.28,4.62,4.62,0,0,0,1.39,3.29,5.08,5.08,0,0,0,3.24,1.35,4.58,4.58,0,0,0,3.24-1.4,4.37,4.37,0,0,0,1.35-3.24,4.46,4.46,0,0,0-1.39-3.28,4.58,4.58,0,0,0-6.39,0Z"/><path d="M1669.34,143.58V157.8h-7.2V143.58h-2.29v-5.89h2.29v-6.61h7.2v6.61h4.1v5.89Zm-6.93,16.47,6.75.72-4.59,8.28-4.5-.54Z"/><path d="M1679.74,125.27a4,4,0,1,1-4,4A4,4,0,0,1,1679.74,125.27Zm3.6,12.42V157.8h-7.2V137.69Z"/><path d="M1709.57,149.08h-15a5.05,5.05,0,0,0,1.26,3.37,4,4,0,0,0,3,1,5.77,5.77,0,0,0,2.34-.54,3.38,3.38,0,0,0,1.26-1.35h6.88a9,9,0,0,1-2.43,4.14c-1.48,1.44-3.82,2.79-8.19,2.79a11.42,11.42,0,0,1-8.32-3.06,10.5,10.5,0,0,1-3-7.6,10.76,10.76,0,0,1,3-7.79c1.67-1.62,4.28-2.92,8.24-2.92a11,11,0,0,1,7.74,2.74,11.27,11.27,0,0,1,3.19,8.46Zm-6.61-4.14a4.8,4.8,0,0,0-1.17-2.16,4.18,4.18,0,0,0-3-1.08,3.86,3.86,0,0,0-2.93,1.08,4.18,4.18,0,0,0-1.08,2.16Z"/><path d="M1111.39,145.36v9.94h-7.79v-30H1116a10.38,10.38,0,0,1,7.61,2.7,9.3,9.3,0,0,1,2.79,7.29c0,2.39-.32,5.18-2.66,7.47a10,10,0,0,1-7.47,2.61Zm0-6.3H1114a5.08,5.08,0,0,0,3.28-.94,3.43,3.43,0,0,0,1-2.75,3.64,3.64,0,0,0-.9-2.7,4.6,4.6,0,0,0-3.33-1.08h-2.65Z"/><path d="M1144.91,135.19h7.2V155.3h-7.2v-2.2a7.51,7.51,0,0,1-6.25,2.88,9.65,9.65,0,0,1-7.25-3.19,10.19,10.19,0,0,1-2.88-7.38,11.14,11.14,0,0,1,3.11-8.06,10.34,10.34,0,0,1,7.24-2.83,7.93,7.93,0,0,1,6,2.61Zm-7.56,6.75a4.7,4.7,0,0,0-1.44,3.28,4.63,4.63,0,0,0,1.4,3.29,5,5,0,0,0,3.24,1.35,4.58,4.58,0,0,0,3.24-1.4,4.37,4.37,0,0,0,1.35-3.24,4.43,4.43,0,0,0-1.4-3.28,4.58,4.58,0,0,0-6.39,0Z"/><path d="M1164.31,152.56l-9.72-17.37H1163l5.35,10.31,5.22-10.31h8.24l-16.16,30.42h-8Z"/><path d="M1191.44,122.5v32.8h-7.2V122.5Z"/><path d="M1216.6,152.65a13.77,13.77,0,0,1-18,0,10.06,10.06,0,0,1-3.1-7.43,10,10,0,0,1,3.1-7.37,12.57,12.57,0,0,1,9-3.33,12.7,12.7,0,0,1,9,3.33,10,10,0,0,1,3.1,7.37A10.06,10.06,0,0,1,1216.6,152.65Zm-12.2-10.71a4.57,4.57,0,1,0,6.44,6.48,4.42,4.42,0,0,0,1.39-3.2,4.59,4.59,0,0,0-4.59-4.58A5,5,0,0,0,1204.4,141.94Z"/><path d="M1239.41,135.19h7.2V155.3h-7.2v-2.2a7.51,7.51,0,0,1-6.25,2.88,9.65,9.65,0,0,1-7.25-3.19,10.19,10.19,0,0,1-2.88-7.38,11.14,11.14,0,0,1,3.11-8.06,10.34,10.34,0,0,1,7.24-2.83,7.93,7.93,0,0,1,6,2.61Zm-7.56,6.75a4.7,4.7,0,0,0-1.44,3.28,4.63,4.63,0,0,0,1.4,3.29,5,5,0,0,0,3.24,1.35,4.58,4.58,0,0,0,3.24-1.4,4.37,4.37,0,0,0,1.35-3.24,4.43,4.43,0,0,0-1.4-3.28,4.58,4.58,0,0,0-6.39,0Z"/><path d="M1274.33,155.3h-7.2v-2.2a7.37,7.37,0,0,1-6.07,2.88,9.62,9.62,0,0,1-7.07-2.79,11.11,11.11,0,0,1-3.24-8,10.92,10.92,0,0,1,3.29-8,10.28,10.28,0,0,1,7.11-2.7,7.93,7.93,0,0,1,6,2.61V122.5h7.2Zm-8.5-6.66a4.83,4.83,0,0,0,1.53-3.42A5.24,5.24,0,0,0,1266,142a4.62,4.62,0,0,0-6.48-.05,4.94,4.94,0,0,0-1.4,3.42,4.51,4.51,0,0,0,1.4,3.15,4.46,4.46,0,0,0,3.19,1.35A4.92,4.92,0,0,0,1265.83,148.64Z"/><polygon points="1397.69 567.61 1397.69 503.18 1406.98 503.18 1387.24 483.44 1367.51 503.18 1376.8 503.18 1376.8 567.61 1397.69 567.61" style="fill:none;stroke:#4fc2c9;stroke-miterlimit:10;stroke-width:5px"/><polygon points="964.56 483.44 964.56 547.87 955.27 547.87 975.01 567.61 994.74 547.87 985.45 547.87 985.45 483.44 964.56 483.44" style="fill:none;stroke:#4fc2c9;stroke-miterlimit:10;stroke-width:5px"/><rect x="875.79" y="584.5" width="599.55" height="140" rx="12" ry="12" style="fill:#fff;stroke:#4fc2c9;stroke-miterlimit:10;stroke-width:5px"/><path d="M1530.45,650.51V627.17h6.06l11.16,14.28V627.17h6.06v23.34h-6.06l-11.16-14.28v14.28Z"/><path d="M1560.9,625.21a3.15,3.15,0,1,1-3.15,3.15A3.14,3.14,0,0,1,1560.9,625.21Zm2.8,9.66v15.64h-5.6V634.87Z"/><path d="M1571.86,634.87l3.74,8,3.82-8h6.23l-8.16,15.64h-3.81l-8.09-15.64Z"/><path d="M1603.29,643.72h-11.66a4,4,0,0,0,1,2.63,3.15,3.15,0,0,0,2.31.77,4.51,4.51,0,0,0,1.82-.42,2.57,2.57,0,0,0,1-1.05h5.36a7.15,7.15,0,0,1-1.89,3.22c-1.16,1.12-3,2.17-6.37,2.17a8.89,8.89,0,0,1-6.48-2.38,8.23,8.23,0,0,1-2.31-5.92,8.33,8.33,0,0,1,2.35-6,8.79,8.79,0,0,1,6.4-2.28,8.57,8.57,0,0,1,6,2.14,8.75,8.75,0,0,1,2.49,6.58Zm-5.15-3.22a3.78,3.78,0,0,0-.91-1.68,3.28,3.28,0,0,0-2.31-.84,3,3,0,0,0-2.27.84,3.12,3.12,0,0,0-.84,1.68Z"/><path d="M1612.1,625v25.51h-5.6V625Z"/><path d="M1621.52,634.87v8.75a3,3,0,0,0,.84,2.27,2.91,2.91,0,0,0,2,.6,2.61,2.61,0,0,0,2-.67,2.89,2.89,0,0,0,.8-2.2v-8.75h5.6v9.76a5.36,5.36,0,0,1-1.5,4.2c-1.93,2-4.62,2.21-6.76,2.21-2.34,0-5.21-.25-7.07-2.24a5.63,5.63,0,0,1-1.47-4.17v-9.76Z"/><path d="M1642.17,625v25.51h-5.6V625Z"/><path d="M1663.48,632.31v18.2h-6v-18.2h-5v-5.14h16v5.14Z"/><path d="M1670.62,634.87h5.6v2.55a5.06,5.06,0,0,1,2.21-2.17,6.15,6.15,0,0,1,2.9-.63c.14,0,.39,0,1.12.07V640a4.93,4.93,0,0,0-2.41-.56,3.66,3.66,0,0,0-2.56.84,4.72,4.72,0,0,0-1.26,3.57v6.68h-5.6Z"/><path d="M1697.05,634.87h5.6v15.64h-5.6V648.8a5.87,5.87,0,0,1-4.87,2.24,7.47,7.47,0,0,1-5.63-2.49,7.86,7.86,0,0,1-2.24-5.74,8.64,8.64,0,0,1,2.41-6.26,8.07,8.07,0,0,1,5.64-2.21,6.22,6.22,0,0,1,4.69,2Zm-5.88,5.25a3.52,3.52,0,0,0,0,5.11,4,4,0,0,0,2.52,1,3.6,3.6,0,0,0,2.52-1.09,3.4,3.4,0,0,0,1-2.52,3.47,3.47,0,0,0-1.08-2.55,3.54,3.54,0,0,0-5,0Z"/><path d="M1706.5,634.87h5.6v2a5.9,5.9,0,0,1,5-2.31,6.31,6.31,0,0,1,4.62,1.68c1.33,1.33,1.47,2.66,1.47,4.37v9.94h-5.6V642.6c0-.91,0-2.27-.7-3a2.37,2.37,0,0,0-1.79-.67,3.05,3.05,0,0,0-2.06.74,3.58,3.58,0,0,0-.91,2.48v8.4h-5.6Z"/><path d="M1728,645.33a8.09,8.09,0,0,0,2.24,1.16,7.41,7.41,0,0,0,2.17.38,2.33,2.33,0,0,0,1.43-.42.87.87,0,0,0,.28-.73.81.81,0,0,0-.28-.7,3.43,3.43,0,0,0-1.47-.56l-1.47-.35a5.08,5.08,0,0,1-2.73-1.37,3.79,3.79,0,0,1-1-2.69,5.57,5.57,0,0,1,1.47-3.82,7.92,7.92,0,0,1,5.6-1.89,12.77,12.77,0,0,1,5,1l-1.89,3.57a7.72,7.72,0,0,0-2.94-.77,2.35,2.35,0,0,0-1.29.31.84.84,0,0,0-.49.77.91.91,0,0,0,.66.88c.53.21,1,.21,1.86.45l1,.28a6.45,6.45,0,0,1,2.31,1.23,4.41,4.41,0,0,1,1.19,3.11,5.25,5.25,0,0,1-1.57,3.89c-1.82,1.82-4.48,2-5.78,2a11.6,11.6,0,0,1-6.3-1.82Z"/><path d="M1748.11,658.53h-5.6V634.87h5.6v1.71a5.87,5.87,0,0,1,4.8-2.24,7.78,7.78,0,0,1,5.56,2.28,8.88,8.88,0,0,1-.14,12.25A7.53,7.53,0,0,1,1753,651a6.66,6.66,0,0,1-4.87-2Zm.91-18.38a3.53,3.53,0,0,0,0,5.08,3.62,3.62,0,0,0,2.52,1,3.41,3.41,0,0,0,2.49-1,3.73,3.73,0,0,0,1.08-2.49,3.82,3.82,0,0,0-1.08-2.59,3.41,3.41,0,0,0-2.49-1A3.62,3.62,0,0,0,1749,640.15Z"/><path d="M1779.82,648.45a10.71,10.71,0,0,1-14,0,7.83,7.83,0,0,1-2.41-5.78,7.75,7.75,0,0,1,2.41-5.74,10.71,10.71,0,0,1,14,0,7.72,7.72,0,0,1,2.42,5.74A7.8,7.8,0,0,1,1779.82,648.45Zm-9.49-8.33a3.57,3.57,0,0,0,2.53,6.09,3.56,3.56,0,0,0,2.48-1.05,3.48,3.48,0,0,0,1.09-2.49,3.6,3.6,0,0,0-3.57-3.57A3.9,3.9,0,0,0,1770.33,640.12Z"/><path d="M1785.45,634.87h5.6v2.55a5.11,5.11,0,0,1,2.21-2.17,6.19,6.19,0,0,1,2.91-.63c.14,0,.38,0,1.12.07V640a5,5,0,0,0-2.42-.56,3.63,3.63,0,0,0-2.55.84,4.73,4.73,0,0,0-1.27,3.57v6.68h-5.6Z"/><path d="M1806.49,639.45v11.06h-5.6V639.45h-1.79v-4.58h1.79v-5.15h5.6v5.15h3.19v4.58Z"/><path d="M1532.85,685.21a16.34,16.34,0,0,1-2.45-5.59,20.85,20.85,0,0,1-.73-5.85,21.72,21.72,0,0,1,.93-6.55,22.46,22.46,0,0,1,2.25-4.93l2.82,1.5a21.53,21.53,0,0,0-1.85,4.53,23.14,23.14,0,0,0-.7,5.32,26.92,26.92,0,0,0,.6,5.18,17.56,17.56,0,0,0,2,4.89Z"/><path d="M1544.9,667.52v13h-4.33v-13H1537v-3.68h11.43v3.68Z"/><path d="M1562.35,680.06a10.26,10.26,0,0,1-3.75.83,9.06,9.06,0,0,1-6.45-2.5,8.72,8.72,0,0,1-2.53-6.07,8.76,8.76,0,0,1,8.83-8.75,10.24,10.24,0,0,1,3.9.85v5.17a4.65,4.65,0,0,0-3.78-1.82,4.2,4.2,0,0,0-3,1.1,4.67,4.67,0,0,0-1.45,3.42,4.27,4.27,0,0,0,4.45,4.4,4.89,4.89,0,0,0,3.78-1.75Z"/><path d="M1569.42,675v5.52h-4.32V663.84h6.9a5.75,5.75,0,0,1,4.22,1.5,5.17,5.17,0,0,1,1.55,4,5.44,5.44,0,0,1-1.47,4.15,5.53,5.53,0,0,1-4.15,1.45Zm0-3.5h1.45a2.87,2.87,0,0,0,1.83-.52,1.94,1.94,0,0,0,.55-1.53,2,2,0,0,0-.5-1.5,2.56,2.56,0,0,0-1.85-.6h-1.48Z"/><path d="M1579.45,676.34h3.75l-4.3,7.9h-2.58Z"/><path d="M1596.35,663.84v9.88a3.34,3.34,0,0,0,.85,2.57,3.1,3.1,0,0,0,2,.8,3.18,3.18,0,0,0,2-.72,3.69,3.69,0,0,0,1-3v-9.5h4.32v9.58a6.77,6.77,0,0,1-1.87,5.4,7.22,7.22,0,0,1-5.5,2.07,7.43,7.43,0,0,1-5.52-2c-1.45-1.57-1.63-3.7-1.63-5.47v-9.58Z"/><path d="M1610.05,680.51V663.84h5.67a9.32,9.32,0,0,1,6.62,2.3,8.16,8.16,0,0,1,2.33,6.08,7.66,7.66,0,0,1-2.18,5.77,9.07,9.07,0,0,1-6.4,2.52Zm4.32-3.67h.88a5,5,0,0,0,3.64-1.2,4.52,4.52,0,0,0,1.28-3.42,5,5,0,0,0-1.3-3.65,4.86,4.86,0,0,0-3.45-1.05h-1.05Z"/><path d="M1631.75,675v5.52h-4.33V663.84h6.9a5.75,5.75,0,0,1,4.22,1.5,5.17,5.17,0,0,1,1.55,4,5.4,5.4,0,0,1-1.47,4.15,5.53,5.53,0,0,1-4.15,1.45Zm0-3.5h1.45A2.84,2.84,0,0,0,1635,671a1.94,1.94,0,0,0,.55-1.53,2,2,0,0,0-.5-1.5,2.56,2.56,0,0,0-1.85-.6h-1.47Z"/><path d="M1641.82,683.71a17.26,17.26,0,0,0,2-4.89,26.15,26.15,0,0,0,.6-5.18,23.14,23.14,0,0,0-.7-5.32,21,21,0,0,0-1.85-4.53l2.83-1.5a21.15,21.15,0,0,1,3.17,11.5,20.8,20.8,0,0,1-.73,5.83,16.51,16.51,0,0,1-2.44,5.59Z"/><polygon points="1397.69 823.61 1397.69 759.18 1406.98 759.18 1387.24 739.45 1367.51 759.18 1376.8 759.18 1376.8 823.61 1397.69 823.61" style="fill:none;stroke:#4fc2c9;stroke-miterlimit:10;stroke-width:5px"/><polygon points="964.56 739.45 964.56 803.87 955.27 803.87 975.01 823.61 994.74 803.87 985.45 803.87 985.45 739.45 964.56 739.45" style="fill:none;stroke:#4fc2c9;stroke-miterlimit:10;stroke-width:5px"/><rect x="670.79" y="840.5" width="599.55" height="140" rx="12" ry="12" style="fill:none;stroke:#f7931f;stroke-miterlimit:10;stroke-width:5px"/><rect x="875.79" y="840.5" width="599.55" height="140" rx="12" ry="12" style="fill:#fff;stroke:#4fc2c9;stroke-miterlimit:10;stroke-width:5px"/><path d="M1530.45,909.51V886.17h6.06l11.16,14.28V886.17h6.06v23.34h-6.06l-11.16-14.28v14.28Z"/><path d="M1560.9,884.21a3.15,3.15,0,1,1-3.15,3.15A3.14,3.14,0,0,1,1560.9,884.21Zm2.8,9.66v15.64h-5.6V893.87Z"/><path d="M1571.86,893.87l3.74,8,3.82-8h6.23l-8.16,15.64h-3.81l-8.09-15.64Z"/><path d="M1603.29,902.72h-11.66a4,4,0,0,0,1,2.63,3.15,3.15,0,0,0,2.31.77,4.51,4.51,0,0,0,1.82-.42,2.57,2.57,0,0,0,1-1.05h5.36a7.15,7.15,0,0,1-1.89,3.22c-1.16,1.12-3,2.17-6.37,2.17a8.89,8.89,0,0,1-6.48-2.38,8.23,8.23,0,0,1-2.31-5.92,8.33,8.33,0,0,1,2.35-6,8.79,8.79,0,0,1,6.4-2.28,8.57,8.57,0,0,1,6,2.14,8.75,8.75,0,0,1,2.49,6.58Zm-5.15-3.22a3.78,3.78,0,0,0-.91-1.68,3.28,3.28,0,0,0-2.31-.84,3,3,0,0,0-2.27.84,3.12,3.12,0,0,0-.84,1.68Z"/><path d="M1612.1,884v25.51h-5.6V884Z"/><path d="M1621.52,893.87v8.75a3,3,0,0,0,.84,2.27,2.91,2.91,0,0,0,2,.6,2.61,2.61,0,0,0,2-.67,2.89,2.89,0,0,0,.8-2.2v-8.75h5.6v9.76a5.36,5.36,0,0,1-1.5,4.2c-1.93,2-4.62,2.21-6.76,2.21-2.34,0-5.21-.25-7.07-2.24a5.63,5.63,0,0,1-1.47-4.17v-9.76Z"/><path d="M1642.17,884v25.51h-5.6V884Z"/><path d="M1660.72,886.17v23.34h-6.06V886.17Z"/><path d="M1665.09,893.87h5.6v2a5.91,5.91,0,0,1,5-2.31,6.34,6.34,0,0,1,4.63,1.68c1.33,1.33,1.46,2.66,1.46,4.37v9.94h-5.6V901.6c0-.91,0-2.27-.7-3a2.33,2.33,0,0,0-1.78-.67,3.08,3.08,0,0,0-2.07.74,3.58,3.58,0,0,0-.91,2.48v8.4h-5.6Z"/><path d="M1691.76,898.45v11.06h-5.6V898.45h-1.78v-4.58h1.78v-5.15h5.6v5.15H1695v4.58Z"/><path d="M1713.64,902.72H1702a4,4,0,0,0,1,2.63,3.15,3.15,0,0,0,2.31.77,4.51,4.51,0,0,0,1.82-.42,2.57,2.57,0,0,0,1-1.05h5.36a7.15,7.15,0,0,1-1.89,3.22c-1.16,1.12-3,2.17-6.37,2.17a8.9,8.9,0,0,1-6.48-2.38,8.23,8.23,0,0,1-2.31-5.92,8.33,8.33,0,0,1,2.35-6,8.79,8.79,0,0,1,6.4-2.28,8.57,8.57,0,0,1,6,2.14,8.75,8.75,0,0,1,2.49,6.58Zm-5.15-3.22a3.78,3.78,0,0,0-.91-1.68,3.28,3.28,0,0,0-2.31-.84,3,3,0,0,0-2.27.84,3.12,3.12,0,0,0-.84,1.68Z"/><path d="M1716.86,893.87h5.6v2.55a5,5,0,0,1,2.2-2.17,6.19,6.19,0,0,1,2.91-.63c.14,0,.38,0,1.12.07V899a5,5,0,0,0-2.42-.56,3.63,3.63,0,0,0-2.55.84,4.72,4.72,0,0,0-1.26,3.57v6.68h-5.6Z"/><path d="M1731.17,893.87h5.6v2a5.91,5.91,0,0,1,5-2.31,6.3,6.3,0,0,1,4.62,1.68c1.33,1.33,1.47,2.66,1.47,4.37v9.94h-5.6V901.6c0-.91,0-2.27-.7-3a2.33,2.33,0,0,0-1.78-.67,3.08,3.08,0,0,0-2.07.74,3.58,3.58,0,0,0-.91,2.48v8.4h-5.6Z"/><path d="M1768.24,902.72h-11.66a4,4,0,0,0,1,2.63,3.15,3.15,0,0,0,2.31.77,4.51,4.51,0,0,0,1.82-.42,2.57,2.57,0,0,0,1-1.05H1768a7.15,7.15,0,0,1-1.89,3.22c-1.16,1.12-3,2.17-6.37,2.17a8.9,8.9,0,0,1-6.48-2.38,8.23,8.23,0,0,1-2.31-5.92,8.33,8.33,0,0,1,2.35-6,8.79,8.79,0,0,1,6.4-2.28,8.57,8.57,0,0,1,6,2.14,8.75,8.75,0,0,1,2.49,6.58Zm-5.15-3.22a3.78,3.78,0,0,0-.91-1.68,3.28,3.28,0,0,0-2.31-.84,3,3,0,0,0-2.27.84,3.12,3.12,0,0,0-.84,1.68Z"/><path d="M1777.65,898.45v11.06h-5.6V898.45h-1.78v-4.58h1.78v-5.15h5.6v5.15h3.19v4.58Z"/><path d="M1532.85,944.21a16.34,16.34,0,0,1-2.45-5.59,20.85,20.85,0,0,1-.73-5.85,21.72,21.72,0,0,1,.93-6.55,22.46,22.46,0,0,1,2.25-4.93l2.82,1.5a21.53,21.53,0,0,0-1.85,4.53,23.14,23.14,0,0,0-.7,5.32,26.92,26.92,0,0,0,.6,5.18,17.56,17.56,0,0,0,2,4.89Z"/><path d="M1542.92,922.84v16.67h-4.32V922.84Z"/><path d="M1550.75,934v5.52h-4.33V922.84h6.9a5.78,5.78,0,0,1,4.23,1.5,5.17,5.17,0,0,1,1.55,4,5.41,5.41,0,0,1-1.48,4.15,5.53,5.53,0,0,1-4.15,1.45Zm0-3.5h1.45A2.83,2.83,0,0,0,1554,930a1.9,1.9,0,0,0,.55-1.53,2,2,0,0,0-.5-1.5,2.56,2.56,0,0,0-1.85-.6h-1.47Z"/><path d="M1560.82,942.71a17.26,17.26,0,0,0,2-4.89,26.15,26.15,0,0,0,.6-5.18,23.14,23.14,0,0,0-.7-5.32,21,21,0,0,0-1.85-4.53l2.83-1.5a22.93,22.93,0,0,1,2.25,4.93,22.43,22.43,0,0,1,.92,6.57,20.82,20.82,0,0,1-.72,5.83,16.73,16.73,0,0,1-2.45,5.59Z"/><rect x="670.79" y="1099.5" width="599.55" height="140" rx="12" ry="12" style="fill:none;stroke:#f7931f;stroke-miterlimit:10;stroke-width:5px"/><polygon points="1397.69 1082.11 1397.69 1017.68 1406.98 1017.68 1387.24 997.95 1367.51 1017.68 1376.8 1017.68 1376.8 1082.11 1397.69 1082.11" style="fill:none;stroke:#4fc2c9;stroke-miterlimit:10;stroke-width:5px"/><polygon points="964.56 997.95 964.56 1062.37 955.27 1062.37 975.01 1082.11 994.74 1062.37 985.45 1062.37 985.45 997.95 964.56 997.95" style="fill:none;stroke:#4fc2c9;stroke-miterlimit:10;stroke-width:5px"/><rect x="875.79" y="1099.5" width="599.55" height="140" rx="12" ry="12" style="fill:#fff;stroke:#4fc2c9;stroke-miterlimit:10;stroke-width:5px"/><path d="M1530.45,1166.51v-23.34h6.06l11.16,14.28v-14.28h6.06v23.34h-6.06l-11.16-14.28v14.28Z"/><path d="M1560.9,1141.21a3.15,3.15,0,1,1-3.15,3.15A3.14,3.14,0,0,1,1560.9,1141.21Zm2.8,9.66v15.64h-5.6v-15.64Z"/><path d="M1571.86,1150.87l3.74,8,3.82-8h6.23l-8.16,15.64h-3.81l-8.09-15.64Z"/><path d="M1603.29,1159.72h-11.66a4,4,0,0,0,1,2.63,3.15,3.15,0,0,0,2.31.77,4.51,4.51,0,0,0,1.82-.42,2.57,2.57,0,0,0,1-1h5.36a7.15,7.15,0,0,1-1.89,3.22c-1.16,1.12-3,2.17-6.37,2.17a8.89,8.89,0,0,1-6.48-2.38,8.23,8.23,0,0,1-2.31-5.92,8.33,8.33,0,0,1,2.35-6,8.79,8.79,0,0,1,6.4-2.28,8.57,8.57,0,0,1,6,2.14,8.75,8.75,0,0,1,2.49,6.58Zm-5.15-3.22a3.78,3.78,0,0,0-.91-1.68,3.28,3.28,0,0,0-2.31-.84,3,3,0,0,0-2.27.84,3.12,3.12,0,0,0-.84,1.68Z"/><path d="M1612.1,1141v25.51h-5.6V1141Z"/><path d="M1621.52,1150.87v8.75a3,3,0,0,0,.84,2.27,2.91,2.91,0,0,0,2,.6,2.61,2.61,0,0,0,2-.67,2.89,2.89,0,0,0,.8-2.2v-8.75h5.6v9.76a5.36,5.36,0,0,1-1.5,4.2c-1.93,2-4.62,2.21-6.76,2.21-2.34,0-5.21-.25-7.07-2.24a5.63,5.63,0,0,1-1.47-4.17v-9.76Z"/><path d="M1642.17,1141v25.51h-5.6V1141Z"/><path d="M1660.72,1143.17v18.2H1668v5.14h-13.34v-23.34Z"/><path d="M1687.18,1159.72h-11.66a4,4,0,0,0,1,2.63,3.15,3.15,0,0,0,2.31.77,4.51,4.51,0,0,0,1.82-.42,2.57,2.57,0,0,0,1-1H1687a7.15,7.15,0,0,1-1.89,3.22c-1.16,1.12-3,2.17-6.37,2.17a8.9,8.9,0,0,1-6.48-2.38,8.23,8.23,0,0,1-2.31-5.92,8.33,8.33,0,0,1,2.35-6,8.79,8.79,0,0,1,6.4-2.28,8.57,8.57,0,0,1,6,2.14,8.75,8.75,0,0,1,2.49,6.58Zm-5.15-3.22a3.78,3.78,0,0,0-.91-1.68,3.28,3.28,0,0,0-2.31-.84,3,3,0,0,0-2.27.84,3.12,3.12,0,0,0-.84,1.68Z"/><path d="M1708,1150.87v14.66c0,2.35-.21,4.48-2.13,6.48a9.34,9.34,0,0,1-6.9,2.52,9.62,9.62,0,0,1-7.31-2.76,5.71,5.71,0,0,1-1.72-3.26h6.23c.21.63.77,1.61,2.63,1.61a3.39,3.39,0,0,0,2.48-.87,3.76,3.76,0,0,0,1.12-2.91v-1.58a6,6,0,0,1-4.69,2.07,7.76,7.76,0,0,1-5.77-2.21,8.25,8.25,0,0,1-2.17-5.7,9,9,0,0,1,2.31-6.13,7.87,7.87,0,0,1,5.67-2.38,6.08,6.08,0,0,1,4.65,2.07v-1.61Zm-11.41,5.25a3.52,3.52,0,0,0,0,5.07,3.53,3.53,0,0,0,2.52,1,3.71,3.71,0,0,0,2.52-1,3.75,3.75,0,0,0,1-2.52,4,4,0,0,0-1.12-2.56,3.54,3.54,0,0,0-2.48-1A3.33,3.33,0,0,0,1696.59,1156.12Z"/><path d="M1724,1150.87h5.6v15.64H1724v-1.71a5.84,5.84,0,0,1-4.86,2.24,7.49,7.49,0,0,1-5.64-2.49,7.9,7.9,0,0,1-2.24-5.74,8.64,8.64,0,0,1,2.42-6.26,8,8,0,0,1,5.63-2.21,6.2,6.2,0,0,1,4.69,2Zm3.08-8a5.46,5.46,0,0,1-1.54,3.81,7.34,7.34,0,0,1-9.1,0,5.55,5.55,0,0,1-1.54-3.81h3.61a2.4,2.4,0,0,0,.7,1.43,2.84,2.84,0,0,0,3.57,0,2.4,2.4,0,0,0,.7-1.43Zm-9,13.3a3.51,3.51,0,0,0,0,5.11,3.91,3.91,0,0,0,2.52,1,3.6,3.6,0,0,0,2.52-1.09,3.4,3.4,0,0,0,1.05-2.52,3.45,3.45,0,0,0-1.09-2.55,3.54,3.54,0,0,0-5,0Z"/><path d="M1739.61,1155.45v11.06H1734v-11.06h-1.79v-4.58H1734v-5.15h5.6v5.15h3.18v4.58Z"/><path d="M1750.49,1150.87v8.75a3,3,0,0,0,.84,2.27,2.91,2.91,0,0,0,2,.6,2.61,2.61,0,0,0,2-.67,2.89,2.89,0,0,0,.8-2.2v-8.75h5.6v9.76a5.36,5.36,0,0,1-1.5,4.2c-1.93,2-4.62,2.21-6.76,2.21-2.34,0-5.21-.25-7.07-2.24a5.63,5.63,0,0,1-1.47-4.17v-9.76Z"/><path d="M1765.54,1150.87h5.6v2.55a5.06,5.06,0,0,1,2.21-2.17,6.15,6.15,0,0,1,2.9-.63c.14,0,.39,0,1.12.07V1156a4.93,4.93,0,0,0-2.41-.56,3.66,3.66,0,0,0-2.56.84,4.72,4.72,0,0,0-1.26,3.57v6.68h-5.6Z"/><path d="M1792,1150.87h5.6v15.64H1792v-1.71a5.87,5.87,0,0,1-4.87,2.24,7.5,7.5,0,0,1-5.64-2.49,7.9,7.9,0,0,1-2.24-5.74,8.64,8.64,0,0,1,2.42-6.26,8.07,8.07,0,0,1,5.64-2.21,6.22,6.22,0,0,1,4.69,2Zm3.08-8a5.55,5.55,0,0,1-1.54,3.81,7.34,7.34,0,0,1-9.1,0,5.46,5.46,0,0,1-1.54-3.81h3.6a2.4,2.4,0,0,0,.7,1.43,2.84,2.84,0,0,0,3.57,0,2.4,2.4,0,0,0,.7-1.43Zm-9,13.3a3.52,3.52,0,0,0,0,5.11,4,4,0,0,0,2.52,1,3.6,3.6,0,0,0,2.52-1.09,3.4,3.4,0,0,0,1.05-2.52,3.47,3.47,0,0,0-1.08-2.55,3.54,3.54,0,0,0-5,0Z"/><path d="M1827.28,1166.51h-5.6v-1.71A5.75,5.75,0,0,1,1817,1167a7.5,7.5,0,0,1-5.49-2.17,8.89,8.89,0,0,1,0-12.43,8,8,0,0,1,5.53-2.1,6.2,6.2,0,0,1,4.66,2V1141h5.6Zm-6.61-5.18a3.75,3.75,0,0,0,1.19-2.66,4.07,4.07,0,0,0-1.06-2.52,3.59,3.59,0,0,0-5,0,3.84,3.84,0,0,0-1.08,2.66,3.57,3.57,0,0,0,1.08,2.45,3.48,3.48,0,0,0,2.49,1A3.83,3.83,0,0,0,1820.67,1161.33Z"/><path d="M1847.72,1159.72h-11.66a4,4,0,0,0,1,2.63,3.15,3.15,0,0,0,2.31.77,4.51,4.51,0,0,0,1.82-.42,2.57,2.57,0,0,0,1-1h5.36a7.06,7.06,0,0,1-1.89,3.22c-1.16,1.12-3,2.17-6.37,2.17a8.9,8.9,0,0,1-6.48-2.38,8.23,8.23,0,0,1-2.31-5.92,8.33,8.33,0,0,1,2.35-6,8.79,8.79,0,0,1,6.4-2.28,8.57,8.57,0,0,1,6,2.14,8.75,8.75,0,0,1,2.49,6.58Zm-5.15-3.22a3.78,3.78,0,0,0-.91-1.68,3.28,3.28,0,0,0-2.31-.84,3,3,0,0,0-2.27.84,3.12,3.12,0,0,0-.84,1.68Z"/><path d="M1876.8,1166.51h-5.6v-1.71a5.73,5.73,0,0,1-4.72,2.24,7.52,7.52,0,0,1-5.5-2.17,8.66,8.66,0,0,1-2.52-6.23,8.53,8.53,0,0,1,2.56-6.2,8,8,0,0,1,5.53-2.1,6.2,6.2,0,0,1,4.65,2V1141h5.6Zm-6.61-5.18a3.75,3.75,0,0,0,1.19-2.66,4.12,4.12,0,0,0-1.05-2.52,3.45,3.45,0,0,0-2.56-1.05,3.42,3.42,0,0,0-2.48,1,3.85,3.85,0,0,0-1.09,2.66,3.54,3.54,0,0,0,1.09,2.45,3.47,3.47,0,0,0,2.48,1A3.83,3.83,0,0,0,1870.19,1161.33Z"/><path d="M1892.76,1150.87h5.6v15.64h-5.6v-1.71a5.84,5.84,0,0,1-4.86,2.24,7.49,7.49,0,0,1-5.64-2.49,7.9,7.9,0,0,1-2.24-5.74,8.64,8.64,0,0,1,2.42-6.26,8,8,0,0,1,5.63-2.21,6.2,6.2,0,0,1,4.69,2Zm-5.88,5.25a3.51,3.51,0,0,0,0,5.11,3.91,3.91,0,0,0,2.52,1,3.6,3.6,0,0,0,2.52-1.09,3.4,3.4,0,0,0,1-2.52,3.45,3.45,0,0,0-1.09-2.55,3.54,3.54,0,0,0-5,0Z"/><path d="M1908.41,1155.45v11.06h-5.6v-11.06H1901v-4.58h1.79v-5.15h5.6v5.15h3.18v4.58Z"/><path d="M1930.28,1159.72h-11.65a4,4,0,0,0,1,2.63,3.15,3.15,0,0,0,2.31.77,4.51,4.51,0,0,0,1.82-.42,2.64,2.64,0,0,0,1-1h5.35a7,7,0,0,1-1.89,3.22c-1.15,1.12-3,2.17-6.37,2.17a8.88,8.88,0,0,1-6.47-2.38,8.19,8.19,0,0,1-2.31-5.92,8.36,8.36,0,0,1,2.34-6,8.83,8.83,0,0,1,6.41-2.28,8.58,8.58,0,0,1,6,2.14,8.77,8.77,0,0,1,2.48,6.58Zm-5.14-3.22a3.78,3.78,0,0,0-.91-1.68,3.29,3.29,0,0,0-2.31-.84,3,3,0,0,0-2.28.84,3.27,3.27,0,0,0-.84,1.68Z"/><path d="M1532.85,1201.21a16.34,16.34,0,0,1-2.45-5.59,20.85,20.85,0,0,1-.73-5.85,21.72,21.72,0,0,1,.93-6.55,22.46,22.46,0,0,1,2.25-4.93l2.82,1.5a21.53,21.53,0,0,0-1.85,4.53,23.14,23.14,0,0,0-.7,5.32,26.92,26.92,0,0,0,.6,5.18,17.56,17.56,0,0,0,2,4.89Z"/><path d="M1548.07,1183.52h-5.15v2.77h4.88V1190h-4.88v2.87h5.15v3.67h-9.47v-16.67h9.47Z"/><path d="M1554.87,1188.62v7.89h-4v-7.89h-1.27v-3.28h1.27v-3.67h4v3.67h2.28v3.28Z"/><path d="M1558.65,1178.29h4v8.45a5,5,0,0,1,1.25-1.1,5.12,5.12,0,0,1,5.6.65,3.89,3.89,0,0,1,1,3.13v7.09h-4v-5.64a3.33,3.33,0,0,0-.5-2.18,1.61,1.61,0,0,0-1.28-.47,2.14,2.14,0,0,0-1.45.47,2.45,2.45,0,0,0-.67,1.83v6h-4Z"/><path d="M1584.62,1191.67h-8.32a2.78,2.78,0,0,0,.7,1.87,2.25,2.25,0,0,0,1.65.55,3.07,3.07,0,0,0,1.3-.3,1.9,1.9,0,0,0,.7-.75h3.82a5,5,0,0,1-1.35,2.3,6.06,6.06,0,0,1-4.55,1.55,6.35,6.35,0,0,1-4.62-1.7,5.84,5.84,0,0,1-1.65-4.22,6,6,0,0,1,1.67-4.33,6.31,6.31,0,0,1,4.58-1.62,6.12,6.12,0,0,1,4.3,1.52,6.27,6.27,0,0,1,1.77,4.7Zm-3.67-2.3a2.66,2.66,0,0,0-.65-1.2,2.31,2.31,0,0,0-1.65-.6,2.14,2.14,0,0,0-1.63.6,2.36,2.36,0,0,0-.6,1.2Z"/><path d="M1586.92,1185.34h4v1.83a3.61,3.61,0,0,1,1.58-1.55,4.28,4.28,0,0,1,2.07-.45l.8,0V1189a3.52,3.52,0,0,0-1.72-.4,2.66,2.66,0,0,0-1.83.6,3.38,3.38,0,0,0-.9,2.55v4.77h-4Z"/><path d="M1597.15,1185.34h4v1.4a4.21,4.21,0,0,1,3.55-1.65,4.52,4.52,0,0,1,3.29,1.2,3.86,3.86,0,0,1,1,3.13v7.09h-4v-5.64a3.19,3.19,0,0,0-.5-2.18,1.65,1.65,0,0,0-1.27-.47,2.17,2.17,0,0,0-1.47.52,2.58,2.58,0,0,0-.65,1.78v6h-4Z"/><path d="M1623.62,1191.67h-8.32a2.78,2.78,0,0,0,.7,1.87,2.25,2.25,0,0,0,1.65.55,3.07,3.07,0,0,0,1.3-.3,1.9,1.9,0,0,0,.7-.75h3.82a5.09,5.09,0,0,1-1.35,2.3,6.07,6.07,0,0,1-4.55,1.55,6.35,6.35,0,0,1-4.62-1.7,5.84,5.84,0,0,1-1.65-4.22,6,6,0,0,1,1.67-4.33,6.31,6.31,0,0,1,4.58-1.62,6.09,6.09,0,0,1,4.29,1.52,6.24,6.24,0,0,1,1.78,4.7Zm-3.67-2.3a2.67,2.67,0,0,0-.66-1.2,2.28,2.28,0,0,0-1.64-.6,2.14,2.14,0,0,0-1.63.6,2.36,2.36,0,0,0-.6,1.2Z"/><path d="M1630.35,1188.62v7.89h-4v-7.89h-1.28v-3.28h1.28v-3.67h4v3.67h2.27v3.28Z"/><path d="M1633.92,1199.71a17.26,17.26,0,0,0,1.95-4.89,26.15,26.15,0,0,0,.6-5.18,23.14,23.14,0,0,0-.7-5.32,21,21,0,0,0-1.85-4.53l2.83-1.5a22.91,22.91,0,0,1,2.24,4.93,22.44,22.44,0,0,1,.93,6.57,20.8,20.8,0,0,1-.73,5.83,16.51,16.51,0,0,1-2.44,5.59Z"/><rect x="875.79" y="328.5" width="599.55" height="140" rx="12" ry="12" style="fill:#fff;stroke:#4fc2c9;stroke-miterlimit:10;stroke-width:5px"/><path d="M1530.45,394.51V371.17h6.06l11.16,14.28V371.17h6.06v23.34h-6.06l-11.16-14.28v14.28Z"/><path d="M1560.9,369.21a3.15,3.15,0,1,1-3.15,3.15A3.14,3.14,0,0,1,1560.9,369.21Zm2.8,9.66v15.64h-5.6V378.87Z"/><path d="M1571.86,378.87l3.74,8,3.82-8h6.23l-8.16,15.64h-3.81l-8.09-15.64Z"/><path d="M1603.29,387.72h-11.66a4,4,0,0,0,1,2.63,3.15,3.15,0,0,0,2.31.77,4.51,4.51,0,0,0,1.82-.42,2.57,2.57,0,0,0,1-1.05h5.36a7.15,7.15,0,0,1-1.89,3.22c-1.16,1.12-3,2.17-6.37,2.17a8.89,8.89,0,0,1-6.48-2.38,8.23,8.23,0,0,1-2.31-5.92,8.33,8.33,0,0,1,2.35-6.05,8.79,8.79,0,0,1,6.4-2.28,8.57,8.57,0,0,1,6,2.14,8.75,8.75,0,0,1,2.49,6.58Zm-5.15-3.22a3.78,3.78,0,0,0-.91-1.68,3.28,3.28,0,0,0-2.31-.84,3,3,0,0,0-2.27.84,3.12,3.12,0,0,0-.84,1.68Z"/><path d="M1612.1,369v25.51h-5.6V369Z"/><path d="M1621.52,378.87v8.75a3,3,0,0,0,.84,2.27,2.91,2.91,0,0,0,2,.6,2.61,2.61,0,0,0,2-.67,2.89,2.89,0,0,0,.8-2.2v-8.75h5.6v9.76a5.36,5.36,0,0,1-1.5,4.2c-1.93,2-4.62,2.21-6.76,2.21-2.34,0-5.21-.25-7.07-2.24a5.63,5.63,0,0,1-1.47-4.17v-9.76Z"/><path d="M1642.17,369v25.51h-5.6V369Z"/><path d="M1668.91,390.59h-8.47l-1.58,3.92h-6.4l9-23.34H1668l8.79,23.34h-6.48ZM1667.3,386l-2.63-7.56-2.55,7.56Z"/><path d="M1684.59,402.53H1679V378.87h5.6v1.71a5.85,5.85,0,0,1,4.79-2.24,7.78,7.78,0,0,1,5.57,2.28,8.88,8.88,0,0,1-.14,12.25,7.54,7.54,0,0,1-5.36,2.17,6.66,6.66,0,0,1-4.86-2Zm.91-18.38a3.83,3.83,0,0,0-1.09,2.59,3.78,3.78,0,0,0,1.09,2.49,3.58,3.58,0,0,0,2.52,1,3.39,3.39,0,0,0,2.48-1,3.7,3.7,0,0,0,1.09-2.49,3.83,3.83,0,0,0-1.09-2.59,3.39,3.39,0,0,0-2.48-1A3.58,3.58,0,0,0,1685.5,384.15Z"/><path d="M1706.15,369v25.51h-5.6V369Z"/><path d="M1712.76,369.21a3.15,3.15,0,1,1-3.15,3.15A3.14,3.14,0,0,1,1712.76,369.21Zm2.8,9.66v15.64H1710V378.87Z"/><path d="M1731.21,394.17a8.37,8.37,0,0,1-3.89.87,8.67,8.67,0,0,1-6.16-2.38,8.2,8.2,0,0,1-2.41-5.85,8.49,8.49,0,0,1,2.52-6.05,9,9,0,0,1,6.3-2.38,8,8,0,0,1,3.64.87v4.69a5.05,5.05,0,0,0-2.91-1,3.67,3.67,0,0,0-2.73,1.08,3.81,3.81,0,0,0-1.08,2.7,4,4,0,0,0,1,2.62,3.78,3.78,0,0,0,2.87,1.19,4.23,4.23,0,0,0,2.87-1Z"/><path d="M1746.5,378.87h5.6v15.64h-5.6V392.8a5.84,5.84,0,0,1-4.86,2.24,7.49,7.49,0,0,1-5.64-2.49,7.9,7.9,0,0,1-2.24-5.74,8.64,8.64,0,0,1,2.42-6.26,8,8,0,0,1,5.63-2.21,6.2,6.2,0,0,1,4.69,2Zm-5.88,5.25a3.51,3.51,0,0,0,0,5.11,3.91,3.91,0,0,0,2.52,1,3.6,3.6,0,0,0,2.52-1.09,3.4,3.4,0,0,0,1-2.52,3.45,3.45,0,0,0-1.09-2.55,3.54,3.54,0,0,0-5,0Z"/><path d="M1762.15,383.45v11.06h-5.6V383.45h-1.79v-4.58h1.79v-5.15h5.6v5.15h3.18v4.58Zm-5.39,12.81,5.25.57-3.57,6.44-3.5-.42Z"/><path d="M1770.23,369.21a3.15,3.15,0,1,1-3.15,3.15A3.14,3.14,0,0,1,1770.23,369.21Zm2.8,9.66v15.64h-5.6V378.87Z"/><path d="M1793.44,387.72h-11.66a4,4,0,0,0,1,2.63,3.15,3.15,0,0,0,2.31.77,4.51,4.51,0,0,0,1.82-.42,2.57,2.57,0,0,0,1-1.05h5.36a7.15,7.15,0,0,1-1.89,3.22c-1.16,1.12-3,2.17-6.37,2.17a8.9,8.9,0,0,1-6.48-2.38,8.23,8.23,0,0,1-2.31-5.92,8.33,8.33,0,0,1,2.35-6.05,8.79,8.79,0,0,1,6.4-2.28,8.57,8.57,0,0,1,6,2.14,8.75,8.75,0,0,1,2.49,6.58Zm-5.15-3.22a3.78,3.78,0,0,0-.91-1.68,3.28,3.28,0,0,0-2.31-.84,3,3,0,0,0-2.27.84,3.12,3.12,0,0,0-.84,1.68Z"/><path d="M1532.85,429.21a16.34,16.34,0,0,1-2.45-5.59,20.85,20.85,0,0,1-.73-5.85,21.72,21.72,0,0,1,.93-6.55,22.46,22.46,0,0,1,2.25-4.93l2.82,1.5a21.53,21.53,0,0,0-1.85,4.53,23.14,23.14,0,0,0-.7,5.32,26.92,26.92,0,0,0,.6,5.18,17.56,17.56,0,0,0,2,4.89Z"/><path d="M1542.92,414.07h6.25v-6.23h4.35v16.67h-4.35v-6.74h-6.25v6.74h-4.32V407.84h4.32Z"/><path d="M1563.32,411.52v13H1559v-13h-3.55v-3.68h11.42v3.68Z"/><path d="M1576.22,411.52v13h-4.32v-13h-3.55v-3.68h11.42v3.68Z"/><path d="M1586,419v5.52h-4.32V407.84h6.9a5.76,5.76,0,0,1,4.22,1.5,5.17,5.17,0,0,1,1.55,4.05,5.44,5.44,0,0,1-1.47,4.15,5.53,5.53,0,0,1-4.15,1.45Zm0-3.5h1.45a2.87,2.87,0,0,0,1.83-.52,1.94,1.94,0,0,0,.55-1.53,2,2,0,0,0-.5-1.5,2.56,2.56,0,0,0-1.85-.6H1586Z"/><path d="M1596.05,420.34h3.75l-4.3,7.9h-2.58Z"/><path d="M1608.62,424.51V407.84h5.67a9.33,9.33,0,0,1,6.63,2.3,8.15,8.15,0,0,1,2.32,6.08,7.69,7.69,0,0,1-2.17,5.77,9.08,9.08,0,0,1-6.4,2.52Zm4.33-3.67h.87a5,5,0,0,0,3.65-1.2,4.52,4.52,0,0,0,1.27-3.42,5,5,0,0,0-1.3-3.65,4.83,4.83,0,0,0-3.44-1.05h-1Z"/><path d="M1626,424.51V407.84h4.32l8,10.2v-10.2h4.33v16.67h-4.33l-8-10.19v10.19Z"/><path d="M1647.22,419.52a5.89,5.89,0,0,0,3.83,1.7,2.18,2.18,0,0,0,1.67-.58,1.48,1.48,0,0,0,.42-1.05,1.3,1.3,0,0,0-.47-1,5.94,5.94,0,0,0-2.15-.87l-1.12-.35A5.47,5.47,0,0,1,1647,416a4.2,4.2,0,0,1-1-2.95,5.49,5.49,0,0,1,1.52-4,5.88,5.88,0,0,1,4.28-1.57,11.59,11.59,0,0,1,5.14,1.35l-1.72,3.37a4.41,4.41,0,0,0-2.85-1.12,2.06,2.06,0,0,0-1.42.5,1.23,1.23,0,0,0-.43.9,1.1,1.1,0,0,0,.23.75,2.69,2.69,0,0,0,1.45.75l1.32.4a6.29,6.29,0,0,1,3,1.65,3.93,3.93,0,0,1,1.08,3,5.65,5.65,0,0,1-1.58,4.2,6.46,6.46,0,0,1-4.92,1.7,8.87,8.87,0,0,1-3.27-.55,11.39,11.39,0,0,1-2.53-1.33Z"/><path d="M1661.27,420.34H1665l-4.3,7.9h-2.57Z"/><path d="M1683.39,411.52h-5.22v2.77h4.75V418h-4.75v6.54h-4.32V407.84h9.54Z"/><path d="M1692.27,411.52v13H1688v-13h-3.55v-3.68h11.42v3.68Z"/><path d="M1702.07,419v5.52h-4.32V407.84h6.89a5.78,5.78,0,0,1,4.23,1.5,5.17,5.17,0,0,1,1.55,4.05,5.41,5.41,0,0,1-1.48,4.15,5.53,5.53,0,0,1-4.15,1.45Zm0-3.5h1.45a2.83,2.83,0,0,0,1.82-.52,1.9,1.9,0,0,0,.55-1.53,2,2,0,0,0-.5-1.5,2.56,2.56,0,0,0-1.85-.6h-1.47Z"/><path d="M1712.09,420.34h3.75l-4.3,7.9H1709Z"/><path d="M1725.77,419.52a5.84,5.84,0,0,0,3.82,1.7,2.21,2.21,0,0,0,1.68-.58,1.48,1.48,0,0,0,.42-1.05,1.3,1.3,0,0,0-.47-1,6.1,6.1,0,0,0-2.15-.87l-1.13-.35a5.52,5.52,0,0,1-2.4-1.35,4.2,4.2,0,0,1-1-2.95,5.45,5.45,0,0,1,1.53-4,5.87,5.87,0,0,1,4.27-1.57,11.63,11.63,0,0,1,5.15,1.35l-1.72,3.37a4.42,4.42,0,0,0-2.85-1.12,2.09,2.09,0,0,0-1.43.5,1.22,1.22,0,0,0-.42.9,1.15,1.15,0,0,0,.22.75,2.79,2.79,0,0,0,1.45.75l1.33.4a6.29,6.29,0,0,1,3,1.65,3.93,3.93,0,0,1,1.08,3,5.65,5.65,0,0,1-1.58,4.2,6.47,6.47,0,0,1-4.92,1.7,9,9,0,0,1-3.28-.55,11.64,11.64,0,0,1-2.52-1.33Z"/><path d="M1739.42,419.52a5.84,5.84,0,0,0,3.82,1.7,2.21,2.21,0,0,0,1.68-.58,1.48,1.48,0,0,0,.42-1.05,1.3,1.3,0,0,0-.47-1,6.1,6.1,0,0,0-2.15-.87l-1.13-.35a5.52,5.52,0,0,1-2.4-1.35,4.19,4.19,0,0,1-.94-2.95,5.45,5.45,0,0,1,1.52-4,5.87,5.87,0,0,1,4.27-1.57,11.63,11.63,0,0,1,5.15,1.35l-1.72,3.37a4.42,4.42,0,0,0-2.85-1.12,2.09,2.09,0,0,0-1.43.5,1.22,1.22,0,0,0-.42.9,1.15,1.15,0,0,0,.22.75,2.79,2.79,0,0,0,1.45.75l1.33.4a6.29,6.29,0,0,1,3,1.65,3.93,3.93,0,0,1,1.08,3,5.65,5.65,0,0,1-1.58,4.2,6.47,6.47,0,0,1-4.92,1.7,9,9,0,0,1-3.28-.55,11.64,11.64,0,0,1-2.52-1.33Z"/><path d="M1756.92,414.07h6.25v-6.23h4.35v16.67h-4.35v-6.74h-6.25v6.74h-4.32V407.84h4.32Z"/><path d="M1771.89,420.34h3.75l-4.3,7.9h-2.57Z"/><path d="M1784.47,424.51V407.84h5.67a9.33,9.33,0,0,1,6.63,2.3,8.15,8.15,0,0,1,2.32,6.08,7.69,7.69,0,0,1-2.17,5.77,9.08,9.08,0,0,1-6.4,2.52Zm4.32-3.67h.88a5,5,0,0,0,3.65-1.2,4.52,4.52,0,0,0,1.27-3.42,5,5,0,0,0-1.3-3.65,4.84,4.84,0,0,0-3.45-1.05h-1Z"/><path d="M1806.17,414.07h6.25v-6.23h4.35v16.67h-4.35v-6.74h-6.25v6.74h-4.33V407.84h4.33Z"/><path d="M1832.24,424.06a10.18,10.18,0,0,1-3.75.83,9.08,9.08,0,0,1-6.45-2.5,8.75,8.75,0,0,1-2.52-6.07,8.74,8.74,0,0,1,8.82-8.75,10.24,10.24,0,0,1,3.9.85v5.17a4.65,4.65,0,0,0-3.77-1.82,4.2,4.2,0,0,0-3,1.1,4.63,4.63,0,0,0-1.45,3.42,4.27,4.27,0,0,0,4.45,4.4,4.86,4.86,0,0,0,3.77-1.75Z"/><path d="M1839.32,419v5.52H1835V407.84h6.9a5.78,5.78,0,0,1,4.23,1.5,5.17,5.17,0,0,1,1.55,4.05,5.41,5.41,0,0,1-1.48,4.15A5.53,5.53,0,0,1,1842,419Zm0-3.5h1.45a2.83,2.83,0,0,0,1.82-.52,1.9,1.9,0,0,0,.55-1.53,2,2,0,0,0-.5-1.5,2.56,2.56,0,0,0-1.85-.6h-1.47Z"/><path d="M1849.34,420.34h3.75l-4.3,7.9h-2.57Z"/><path d="M1863,419.52a5.84,5.84,0,0,0,3.82,1.7,2.21,2.21,0,0,0,1.68-.58,1.48,1.48,0,0,0,.42-1.05,1.3,1.3,0,0,0-.47-1,6.1,6.1,0,0,0-2.15-.87l-1.13-.35a5.52,5.52,0,0,1-2.4-1.35,4.2,4.2,0,0,1-1-2.95,5.45,5.45,0,0,1,1.53-4,5.87,5.87,0,0,1,4.27-1.57,11.66,11.66,0,0,1,5.15,1.35l-1.72,3.37a4.42,4.42,0,0,0-2.85-1.12,2.09,2.09,0,0,0-1.43.5,1.22,1.22,0,0,0-.42.9,1.15,1.15,0,0,0,.22.75,2.79,2.79,0,0,0,1.45.75l1.33.4a6.29,6.29,0,0,1,3,1.65,3.92,3.92,0,0,1,1.07,3,5.64,5.64,0,0,1-1.57,4.2,6.47,6.47,0,0,1-4.92,1.7,9,9,0,0,1-3.28-.55,11.64,11.64,0,0,1-2.52-1.33Z"/><path d="M1876.19,424.51V407.84h4.33l8,10.2v-10.2h4.32v16.67h-4.32l-8-10.19v10.19Z"/><path d="M1895.57,424.51l2.82-16.67h4.28l3.37,8.9,3.57-8.9h4.33l2.5,16.67h-4.33l-1.22-9.59-4,9.59h-1.73l-3.85-9.59-1.42,9.59Z"/><path d="M1923.52,419v5.52h-4.33V407.84h6.9a5.78,5.78,0,0,1,4.23,1.5,5.17,5.17,0,0,1,1.55,4.05,5.41,5.41,0,0,1-1.48,4.15,5.53,5.53,0,0,1-4.15,1.45Zm0-3.5H1925a2.83,2.83,0,0,0,1.82-.52,1.9,1.9,0,0,0,.55-1.53,2,2,0,0,0-.5-1.5,2.56,2.56,0,0,0-1.85-.6h-1.47Z"/><path d="M1933.54,420.34h3.75l-4.3,7.9h-2.57Z"/><path d="M1950.44,407.84v13h5.2v3.67h-9.52V407.84Z"/><path d="M1957.87,424.51V407.84h5.67a9.32,9.32,0,0,1,6.62,2.3,8.16,8.16,0,0,1,2.33,6.08,7.66,7.66,0,0,1-2.18,5.77,9.06,9.06,0,0,1-6.39,2.52Zm4.32-3.67h.88a5,5,0,0,0,3.64-1.2,4.52,4.52,0,0,0,1.28-3.42,5,5,0,0,0-1.3-3.65,4.84,4.84,0,0,0-3.45-1.05h-1Z"/><path d="M1984.49,421.71h-6l-1.12,2.8h-4.58l6.4-16.67h4.72l6.28,16.67h-4.63Zm-1.15-3.29-1.88-5.4-1.82,5.4Z"/><path d="M1996.39,419v5.52h-4.32V407.84H1999a5.77,5.77,0,0,1,4.23,1.5,5.17,5.17,0,0,1,1.55,4.05,5.41,5.41,0,0,1-1.48,4.15,5.51,5.51,0,0,1-4.14,1.45Zm0-3.5h1.45a2.87,2.87,0,0,0,1.83-.52,1.92,1.92,0,0,0,.54-1.53,2,2,0,0,0-.5-1.5,2.54,2.54,0,0,0-1.84-.6h-1.48Z"/><path d="M2006.47,427.71a17.56,17.56,0,0,0,2-4.89,26.92,26.92,0,0,0,.6-5.18,23.14,23.14,0,0,0-.7-5.32,21.53,21.53,0,0,0-1.85-4.53l2.82-1.5a20.93,20.93,0,0,1,3.17,11.5,20.82,20.82,0,0,1-.72,5.83,16.34,16.34,0,0,1-2.45,5.59Z"/><path d="M751.06,389.92H743.8l-1.35,3.36H737l7.68-20h5.67l7.52,20h-5.54Zm-1.38-4-2.25-6.48L745.24,386Z"/><path d="M759.7,379.87h4.8v1.68a5.06,5.06,0,0,1,4.26-2,5.39,5.39,0,0,1,4,1.44,4.6,4.6,0,0,1,1.27,3.75v8.52h-4.8V386.5a3.85,3.85,0,0,0-.6-2.61,2,2,0,0,0-1.53-.57,2.63,2.63,0,0,0-1.77.63,3.08,3.08,0,0,0-.78,2.13v7.2h-4.8Z"/><path d="M782.56,383.8v9.48h-4.8V383.8h-1.53v-3.93h1.53v-4.41h4.8v4.41h2.73v3.93Z"/><path d="M801.3,387.46h-10a3.34,3.34,0,0,0,.84,2.25,2.69,2.69,0,0,0,2,.66,3.85,3.85,0,0,0,1.57-.36,2.23,2.23,0,0,0,.84-.9h4.59a6,6,0,0,1-1.63,2.76c-1,1-2.54,1.86-5.46,1.86a7.6,7.6,0,0,1-5.54-2,7,7,0,0,1-2-5.07,7.16,7.16,0,0,1,2-5.19,7.55,7.55,0,0,1,5.49-1.95,7.32,7.32,0,0,1,5.15,1.83A7.51,7.51,0,0,1,801.3,387Zm-4.4-2.76a3.32,3.32,0,0,0-.78-1.44,2.8,2.8,0,0,0-2-.72,2.57,2.57,0,0,0-1.94.72,2.82,2.82,0,0,0-.73,1.44Z"/><path d="M809.38,383.8v9.48h-4.8V383.8H803v-3.93h1.54v-4.41h4.8v4.41h2.72v3.93Z"/><path d="M705,418.48v-14h3.63l6.7,8.57v-8.57h3.63v14H715.3l-6.7-8.57v8.57Z"/><path d="M723.24,403.3a1.89,1.89,0,1,1-1.89,1.89A1.88,1.88,0,0,1,723.24,403.3Zm1.68,5.79v9.39h-3.36v-9.39Z"/><path d="M729.81,409.09l2.25,4.81,2.29-4.81h3.74l-4.9,9.39H730.9l-4.85-9.39Z"/><path d="M748.67,414.41h-7a2.37,2.37,0,0,0,.59,1.57,1.88,1.88,0,0,0,1.38.46,2.63,2.63,0,0,0,1.09-.25,1.51,1.51,0,0,0,.59-.63h3.21a4.13,4.13,0,0,1-1.13,1.93,5.09,5.09,0,0,1-3.82,1.3,5.32,5.32,0,0,1-3.88-1.42,4.93,4.93,0,0,1-1.39-3.55,5,5,0,0,1,1.41-3.63,5.25,5.25,0,0,1,3.84-1.37,5.14,5.14,0,0,1,3.61,1.28,5.27,5.27,0,0,1,1.49,3.95Zm-3.09-1.94a2.22,2.22,0,0,0-.54-1,2,2,0,0,0-1.39-.51,1.79,1.79,0,0,0-1.36.51,2,2,0,0,0-.51,1Z"/><path d="M754,403.17v15.31H750.6V403.17Z"/><path d="M770,416.13h-5.08l-.95,2.35h-3.84l5.37-14h4l5.27,14h-3.88Zm-1-2.77-1.57-4.54-1.54,4.54Z"/><path d="M779.42,423.29h-3.36v-14.2h3.36v1a3.5,3.5,0,0,1,2.87-1.34,4.68,4.68,0,0,1,3.34,1.36,5.33,5.33,0,0,1-.08,7.35,4.51,4.51,0,0,1-3.22,1.3,4,4,0,0,1-2.91-1.21Zm.54-11a2.29,2.29,0,0,0-.65,1.56,2.27,2.27,0,0,0,.65,1.49,2.15,2.15,0,0,0,1.51.63,2,2,0,0,0,1.49-.63,2.23,2.23,0,0,0,.66-1.49,2.3,2.3,0,0,0-.66-1.56,2,2,0,0,0-1.49-.63A2.2,2.2,0,0,0,780,412.26Z"/><path d="M792.35,403.17v15.31H789V403.17Z"/><path d="M796.32,403.3a1.89,1.89,0,1,1-1.89,1.89A1.88,1.88,0,0,1,796.32,403.3Zm1.68,5.79v9.39h-3.36v-9.39Z"/><path d="M807.39,418.27a5,5,0,0,1-2.33.52,5.19,5.19,0,0,1-3.7-1.42,4.92,4.92,0,0,1-1.45-3.51,5.11,5.11,0,0,1,1.51-3.63,5.44,5.44,0,0,1,3.78-1.43,4.85,4.85,0,0,1,2.19.53v2.81a3,3,0,0,0-1.75-.61,2.17,2.17,0,0,0-1.63.65,2.25,2.25,0,0,0-.65,1.62,2.39,2.39,0,0,0,.58,1.57,2.28,2.28,0,0,0,1.73.72,2.57,2.57,0,0,0,1.72-.63Z"/><path d="M816.56,409.09h3.36v9.39h-3.36v-1a3.49,3.49,0,0,1-2.91,1.34,4.47,4.47,0,0,1-3.38-1.49,4.69,4.69,0,0,1-1.35-3.44,5.19,5.19,0,0,1,1.45-3.76,4.83,4.83,0,0,1,3.38-1.32,3.69,3.69,0,0,1,2.81,1.22ZM813,412.24a2.12,2.12,0,0,0,0,3.07,2.36,2.36,0,0,0,1.51.63,2.16,2.16,0,0,0,1.51-.65,2.07,2.07,0,0,0,.63-1.51,2.12,2.12,0,0,0-.65-1.54,2.18,2.18,0,0,0-1.51-.61A2.15,2.15,0,0,0,813,412.24Z"/><path d="M826,411.84v6.64h-3.36v-6.64h-1.07v-2.75h1.07V406H826v3.08h1.91v2.75Zm-3.23,7.69,3.15.34-2.14,3.86-2.1-.25Z"/><path d="M830.8,403.3a1.89,1.89,0,1,1-1.89,1.89A1.88,1.88,0,0,1,830.8,403.3Zm1.68,5.79v9.39h-3.36v-9.39Z"/><path d="M844.72,414.41h-7a2.37,2.37,0,0,0,.59,1.57,1.89,1.89,0,0,0,1.39.46,2.66,2.66,0,0,0,1.09-.25,1.57,1.57,0,0,0,.59-.63h3.21a4.17,4.17,0,0,1-1.14,1.93,5.09,5.09,0,0,1-3.82,1.3,5.32,5.32,0,0,1-3.88-1.42,4.93,4.93,0,0,1-1.39-3.55,5,5,0,0,1,1.41-3.63,5.26,5.26,0,0,1,3.84-1.37,5.14,5.14,0,0,1,3.61,1.28,5.23,5.23,0,0,1,1.49,3.95Zm-3.08-1.94a2.34,2.34,0,0,0-.55-1,2,2,0,0,0-1.38-.51,1.81,1.81,0,0,0-1.37.51,1.87,1.87,0,0,0-.5,1Z"/><path d="M751.06,645.92H743.8l-1.35,3.36H737l7.68-20h5.67l7.52,20h-5.54Zm-1.38-4-2.25-6.48L745.24,642Z"/><path d="M759.7,635.87h4.8v1.68a5.06,5.06,0,0,1,4.26-2,5.39,5.39,0,0,1,4,1.44,4.6,4.6,0,0,1,1.27,3.75v8.52h-4.8V642.5a3.85,3.85,0,0,0-.6-2.61,2,2,0,0,0-1.53-.57,2.63,2.63,0,0,0-1.77.63,3.08,3.08,0,0,0-.78,2.13v7.2h-4.8Z"/><path d="M782.56,639.8v9.48h-4.8V639.8h-1.53v-3.93h1.53v-4.41h4.8v4.41h2.73v3.93Z"/><path d="M801.3,643.46h-10a3.34,3.34,0,0,0,.84,2.25,2.69,2.69,0,0,0,2,.66,3.85,3.85,0,0,0,1.57-.36,2.23,2.23,0,0,0,.84-.9h4.59a6,6,0,0,1-1.63,2.76c-1,1-2.54,1.86-5.46,1.86a7.6,7.6,0,0,1-5.54-2,7,7,0,0,1-2-5.07,7.16,7.16,0,0,1,2-5.19,7.55,7.55,0,0,1,5.49-1.95,7.32,7.32,0,0,1,5.15,1.83A7.51,7.51,0,0,1,801.3,643Zm-4.4-2.76a3.32,3.32,0,0,0-.78-1.44,2.8,2.8,0,0,0-2-.72,2.57,2.57,0,0,0-1.94.72,2.82,2.82,0,0,0-.73,1.44Z"/><path d="M809.38,639.8v9.48h-4.8V639.8H803v-3.93h1.54v-4.41h4.8v4.41h2.72v3.93Z"/><path d="M705,674.48v-14h3.63l6.7,8.57v-8.57h3.63v14H715.3l-6.7-8.57v8.57Z"/><path d="M723.24,659.3a1.89,1.89,0,1,1-1.89,1.89A1.88,1.88,0,0,1,723.24,659.3Zm1.68,5.79v9.39h-3.36v-9.39Z"/><path d="M729.81,665.09l2.25,4.81,2.29-4.81h3.74l-4.9,9.39H730.9l-4.85-9.39Z"/><path d="M748.67,670.41h-7a2.37,2.37,0,0,0,.59,1.57,1.88,1.88,0,0,0,1.38.46,2.63,2.63,0,0,0,1.09-.25,1.51,1.51,0,0,0,.59-.63h3.21a4.13,4.13,0,0,1-1.13,1.93,5.09,5.09,0,0,1-3.82,1.3,5.32,5.32,0,0,1-3.88-1.42,4.93,4.93,0,0,1-1.39-3.55,5,5,0,0,1,1.41-3.63,5.25,5.25,0,0,1,3.84-1.37,5.14,5.14,0,0,1,3.61,1.28,5.27,5.27,0,0,1,1.49,3.95Zm-3.09-1.94a2.22,2.22,0,0,0-.54-1,2,2,0,0,0-1.39-.51,1.79,1.79,0,0,0-1.36.51,2,2,0,0,0-.51,1Z"/><path d="M754,659.17v15.31H750.6V659.17Z"/><path d="M770,672.13h-5.08l-.95,2.35h-3.84l5.37-14h4l5.27,14h-3.88Zm-1-2.77-1.57-4.54-1.54,4.54Z"/><path d="M779.42,679.29h-3.36v-14.2h3.36v1a3.5,3.5,0,0,1,2.87-1.34,4.68,4.68,0,0,1,3.34,1.36,5.33,5.33,0,0,1-.08,7.35,4.51,4.51,0,0,1-3.22,1.3,4,4,0,0,1-2.91-1.21Zm.54-11a2.29,2.29,0,0,0-.65,1.56,2.27,2.27,0,0,0,.65,1.49,2.15,2.15,0,0,0,1.51.63,2,2,0,0,0,1.49-.63,2.23,2.23,0,0,0,.66-1.49,2.3,2.3,0,0,0-.66-1.56,2,2,0,0,0-1.49-.63A2.2,2.2,0,0,0,780,668.26Z"/><path d="M792.35,659.17v15.31H789V659.17Z"/><path d="M796.32,659.3a1.89,1.89,0,1,1-1.89,1.89A1.88,1.88,0,0,1,796.32,659.3Zm1.68,5.79v9.39h-3.36v-9.39Z"/><path d="M807.39,674.27a5,5,0,0,1-2.33.52,5.19,5.19,0,0,1-3.7-1.42,4.92,4.92,0,0,1-1.45-3.51,5.11,5.11,0,0,1,1.51-3.63,5.44,5.44,0,0,1,3.78-1.43,4.85,4.85,0,0,1,2.19.53v2.81a3,3,0,0,0-1.75-.61,2.17,2.17,0,0,0-1.63.65,2.25,2.25,0,0,0-.65,1.62,2.39,2.39,0,0,0,.58,1.57,2.28,2.28,0,0,0,1.73.72,2.57,2.57,0,0,0,1.72-.63Z"/><path d="M816.56,665.09h3.36v9.39h-3.36v-1a3.49,3.49,0,0,1-2.91,1.34,4.47,4.47,0,0,1-3.38-1.49,4.69,4.69,0,0,1-1.35-3.44,5.19,5.19,0,0,1,1.45-3.76,4.83,4.83,0,0,1,3.38-1.32,3.69,3.69,0,0,1,2.81,1.22ZM813,668.24a2.12,2.12,0,0,0,0,3.07,2.36,2.36,0,0,0,1.51.63,2.16,2.16,0,0,0,1.51-.65,2.07,2.07,0,0,0,.63-1.51,2.12,2.12,0,0,0-.65-1.54,2.18,2.18,0,0,0-1.51-.61A2.15,2.15,0,0,0,813,668.24Z"/><path d="M826,667.84v6.64h-3.36v-6.64h-1.07v-2.75h1.07V662H826v3.08h1.91v2.75Zm-3.23,7.69,3.15.34-2.14,3.86-2.1-.25Z"/><path d="M830.8,659.3a1.89,1.89,0,1,1-1.89,1.89A1.88,1.88,0,0,1,830.8,659.3Zm1.68,5.79v9.39h-3.36v-9.39Z"/><path d="M844.72,670.41h-7a2.37,2.37,0,0,0,.59,1.57,1.89,1.89,0,0,0,1.39.46,2.66,2.66,0,0,0,1.09-.25,1.57,1.57,0,0,0,.59-.63h3.21a4.17,4.17,0,0,1-1.14,1.93,5.09,5.09,0,0,1-3.82,1.3,5.32,5.32,0,0,1-3.88-1.42,4.93,4.93,0,0,1-1.39-3.55,5,5,0,0,1,1.41-3.63,5.26,5.26,0,0,1,3.84-1.37,5.14,5.14,0,0,1,3.61,1.28,5.23,5.23,0,0,1,1.49,3.95Zm-3.08-1.94a2.34,2.34,0,0,0-.55-1,2,2,0,0,0-1.38-.51,1.81,1.81,0,0,0-1.37.51,1.87,1.87,0,0,0-.5,1Z"/><path d="M559.06,646.14H551.8l-1.35,3.36H545l7.68-20h5.67l7.52,20h-5.54Zm-1.38-4-2.25-6.48-2.19,6.48Z"/><path d="M567.7,636.09h4.8v1.68a5.06,5.06,0,0,1,4.26-2,5.39,5.39,0,0,1,4,1.44A4.6,4.6,0,0,1,582,641v8.52h-4.8v-6.78a3.85,3.85,0,0,0-.6-2.61,2,2,0,0,0-1.53-.57,2.63,2.63,0,0,0-1.77.63,3.08,3.08,0,0,0-.78,2.13v7.2h-4.8Z"/><path d="M590.56,640v9.48h-4.8V640h-1.53v-3.93h1.53v-4.41h4.8v4.41h2.73V640Z"/><path d="M609.3,643.68h-10a3.34,3.34,0,0,0,.84,2.25,2.69,2.69,0,0,0,2,.66,3.85,3.85,0,0,0,1.57-.36,2.23,2.23,0,0,0,.84-.9h4.59a6,6,0,0,1-1.63,2.76c-1,1-2.54,1.86-5.46,1.86a7.6,7.6,0,0,1-5.54-2,7,7,0,0,1-2-5.07,7.16,7.16,0,0,1,2-5.19A7.55,7.55,0,0,1,602,635.7a7.32,7.32,0,0,1,5.15,1.83,7.51,7.51,0,0,1,2.13,5.64Zm-4.4-2.76a3.32,3.32,0,0,0-.78-1.44,2.8,2.8,0,0,0-2-.72,2.57,2.57,0,0,0-1.94.72,2.82,2.82,0,0,0-.73,1.44Z"/><path d="M617.38,640v9.48h-4.8V640H611v-3.93h1.54v-4.41h4.8v4.41h2.72V640Z"/><path d="M508.43,674.7v-14h3.64l6.69,8.56V660.7h3.64v14h-3.64l-6.69-8.57v8.57Z"/><path d="M526.7,659.52a1.89,1.89,0,1,1-1.89,1.89A1.88,1.88,0,0,1,526.7,659.52Zm1.68,5.79v9.39H525v-9.39Z"/><path d="M533.28,665.31l2.24,4.81,2.29-4.81h3.74l-4.89,9.39h-2.29l-4.85-9.39Z"/><path d="M552.13,670.63h-7a2.37,2.37,0,0,0,.59,1.57,1.89,1.89,0,0,0,1.39.46,2.66,2.66,0,0,0,1.09-.25,1.51,1.51,0,0,0,.59-.63H552a4.22,4.22,0,0,1-1.13,1.93,5.14,5.14,0,0,1-3.83,1.31,5.33,5.33,0,0,1-3.88-1.43,4.93,4.93,0,0,1-1.39-3.55,5,5,0,0,1,1.41-3.63A5.26,5.26,0,0,1,547,665a5.14,5.14,0,0,1,3.61,1.28,5.23,5.23,0,0,1,1.49,3.95Zm-3.08-1.93a2.32,2.32,0,0,0-.55-1,2,2,0,0,0-1.38-.51,1.81,1.81,0,0,0-1.37.51,1.9,1.9,0,0,0-.5,1Z"/><path d="M557.43,659.39V674.7h-3.36V659.39Z"/><path d="M570.22,663.78V674.7h-3.64V663.78h-3V660.7h9.6v3.08Z"/><path d="M574.5,665.31h3.36v1.54a3,3,0,0,1,1.32-1.3,3.6,3.6,0,0,1,1.75-.38l.67,0v3.17a3,3,0,0,0-1.45-.34,2.2,2.2,0,0,0-1.53.51,2.81,2.81,0,0,0-.76,2.14v4H574.5Z"/><path d="M590.35,665.31h3.36v9.39h-3.36v-1a3.5,3.5,0,0,1-2.91,1.35,4.52,4.52,0,0,1-3.39-1.5,4.72,4.72,0,0,1-1.34-3.44,5.19,5.19,0,0,1,1.45-3.76,4.87,4.87,0,0,1,3.38-1.32,3.69,3.69,0,0,1,2.81,1.22Zm-3.52,3.15a2.23,2.23,0,0,0-.68,1.54,2.18,2.18,0,0,0,.66,1.53,2.31,2.31,0,0,0,1.51.63,2.16,2.16,0,0,0,1.51-.65,2.07,2.07,0,0,0,.63-1.51,2.12,2.12,0,0,0-.65-1.54,2.18,2.18,0,0,0-1.51-.6A2.14,2.14,0,0,0,586.83,668.46Z"/><path d="M596,665.31h3.35v1.18a3.55,3.55,0,0,1,3-1.38,3.83,3.83,0,0,1,2.77,1,3.24,3.24,0,0,1,.88,2.63v6h-3.36V670a2.7,2.7,0,0,0-.42-1.83,1.4,1.4,0,0,0-1.07-.4,1.84,1.84,0,0,0-1.24.44,2.14,2.14,0,0,0-.55,1.49v5H596Z"/><path d="M608.92,671.59a4.77,4.77,0,0,0,1.34.7,4.63,4.63,0,0,0,1.3.23,1.46,1.46,0,0,0,.87-.26.54.54,0,0,0,.16-.44.52.52,0,0,0-.16-.42,2.09,2.09,0,0,0-.89-.33l-.88-.21A3.13,3.13,0,0,1,609,670a2.3,2.3,0,0,1-.6-1.62,3.35,3.35,0,0,1,.88-2.29,4.75,4.75,0,0,1,3.36-1.13,7.79,7.79,0,0,1,3,.61l-1.13,2.14a4.71,4.71,0,0,0-1.77-.46,1.41,1.41,0,0,0-.78.19.49.49,0,0,0-.29.46.54.54,0,0,0,.4.52c.31.13.59.13,1.11.28l.61.17a4,4,0,0,1,1.39.73,2.67,2.67,0,0,1,.71,1.87,3.15,3.15,0,0,1-.94,2.33A4.91,4.91,0,0,1,611.5,675a6.93,6.93,0,0,1-3.78-1.1Z"/><path d="M621,679.51h-3.36v-14.2H621v1a3.52,3.52,0,0,1,2.88-1.34,4.66,4.66,0,0,1,3.34,1.37,5.33,5.33,0,0,1-.09,7.34,4.5,4.5,0,0,1-3.21,1.31A4,4,0,0,1,621,673.8Zm.55-11a2.1,2.1,0,0,0,0,3,2.13,2.13,0,0,0,1.51.63,2,2,0,0,0,1.49-.63,2.2,2.2,0,0,0,.65-1.49,2.27,2.27,0,0,0-.65-1.55,2,2,0,0,0-1.49-.63A2.13,2.13,0,0,0,621.54,668.49Z"/><path d="M640,673.46a6.41,6.41,0,0,1-8.38,0,4.84,4.84,0,0,1,0-6.91,5.89,5.89,0,0,1,4.18-1.55,6,6,0,0,1,4.2,1.55,4.84,4.84,0,0,1,0,6.91Zm-5.69-5a2.09,2.09,0,0,0,0,3,2.1,2.1,0,0,0,3,0A2.08,2.08,0,0,0,638,670a2.28,2.28,0,0,0-.65-1.54,2.17,2.17,0,0,0-3,0Z"/><path d="M643.4,665.31h3.36v1.54a3,3,0,0,1,1.32-1.3,3.61,3.61,0,0,1,1.74-.38l.68,0v3.17a3,3,0,0,0-1.45-.34,2.2,2.2,0,0,0-1.53.51,2.81,2.81,0,0,0-.76,2.14v4H643.4Z"/><path d="M656,668.07v6.63h-3.36v-6.63h-1.07v-2.76h1.07v-3.08H656v3.08h1.91v2.76Z"/><path d="M555.06,902.14H547.8l-1.35,3.36H541l7.68-20h5.67l7.52,20h-5.54Zm-1.38-4-2.25-6.48-2.19,6.48Z"/><path d="M563.7,892.09h4.8v1.68a5.06,5.06,0,0,1,4.26-2,5.39,5.39,0,0,1,4,1.44A4.6,4.6,0,0,1,578,897v8.52h-4.8v-6.78a3.85,3.85,0,0,0-.6-2.61,2,2,0,0,0-1.53-.57,2.63,2.63,0,0,0-1.77.63,3.08,3.08,0,0,0-.78,2.13v7.2h-4.8Z"/><path d="M586.56,896v9.48h-4.8V896h-1.53v-3.93h1.53v-4.41h4.8v4.41h2.73V896Z"/><path d="M605.3,899.68h-10a3.34,3.34,0,0,0,.84,2.25,2.69,2.69,0,0,0,2,.66,3.85,3.85,0,0,0,1.57-.36,2.23,2.23,0,0,0,.84-.9h4.59a6,6,0,0,1-1.63,2.76c-1,1-2.54,1.86-5.46,1.86a7.6,7.6,0,0,1-5.54-2,7,7,0,0,1-2-5.07,7.16,7.16,0,0,1,2-5.19A7.55,7.55,0,0,1,598,891.7a7.32,7.32,0,0,1,5.15,1.83,7.51,7.51,0,0,1,2.13,5.64Zm-4.4-2.76a3.32,3.32,0,0,0-.78-1.44,2.8,2.8,0,0,0-2-.72,2.57,2.57,0,0,0-1.94.72,2.82,2.82,0,0,0-.73,1.44Z"/><path d="M613.38,896v9.48h-4.8V896H607v-3.93h1.54v-4.41h4.8v4.41h2.72V896Z"/><path d="M504.43,930.7v-14h3.64l6.69,8.56V916.7h3.64v14h-3.64l-6.69-8.57v8.57Z"/><path d="M522.7,915.52a1.89,1.89,0,1,1-1.89,1.89A1.88,1.88,0,0,1,522.7,915.52Zm1.68,5.79v9.39H521v-9.39Z"/><path d="M529.28,921.31l2.24,4.81,2.29-4.81h3.74l-4.89,9.39h-2.29l-4.85-9.39Z"/><path d="M548.13,926.63h-7a2.37,2.37,0,0,0,.59,1.57,1.89,1.89,0,0,0,1.39.46,2.66,2.66,0,0,0,1.09-.25,1.51,1.51,0,0,0,.59-.63H548a4.22,4.22,0,0,1-1.13,1.93,5.14,5.14,0,0,1-3.83,1.31,5.33,5.33,0,0,1-3.88-1.43,4.93,4.93,0,0,1-1.39-3.55,5,5,0,0,1,1.41-3.63A5.26,5.26,0,0,1,543,921a5.14,5.14,0,0,1,3.61,1.28,5.23,5.23,0,0,1,1.49,3.95Zm-3.08-1.93a2.32,2.32,0,0,0-.55-1,2,2,0,0,0-1.38-.51,1.81,1.81,0,0,0-1.37.51,1.9,1.9,0,0,0-.5,1Z"/><path d="M553.43,915.39V930.7h-3.36V915.39Z"/><path d="M566.22,919.78V930.7h-3.64V919.78h-3V916.7h9.6v3.08Z"/><path d="M570.5,921.31h3.36v1.54a3,3,0,0,1,1.32-1.3,3.6,3.6,0,0,1,1.75-.38l.67,0v3.17a3,3,0,0,0-1.45-.34,2.2,2.2,0,0,0-1.53.51,2.81,2.81,0,0,0-.76,2.14v4H570.5Z"/><path d="M586.35,921.31h3.36v9.39h-3.36v-1a3.5,3.5,0,0,1-2.91,1.35,4.52,4.52,0,0,1-3.39-1.5,4.72,4.72,0,0,1-1.34-3.44,5.19,5.19,0,0,1,1.45-3.76,4.87,4.87,0,0,1,3.38-1.32,3.69,3.69,0,0,1,2.81,1.22Zm-3.52,3.15a2.23,2.23,0,0,0-.68,1.54,2.18,2.18,0,0,0,.66,1.53,2.31,2.31,0,0,0,1.51.63,2.16,2.16,0,0,0,1.51-.65,2.07,2.07,0,0,0,.63-1.51,2.12,2.12,0,0,0-.65-1.54,2.18,2.18,0,0,0-1.51-.6A2.14,2.14,0,0,0,582.83,924.46Z"/><path d="M592,921.31h3.35v1.18a3.55,3.55,0,0,1,3-1.38,3.83,3.83,0,0,1,2.77,1,3.24,3.24,0,0,1,.88,2.63v6h-3.36V926a2.7,2.7,0,0,0-.42-1.83,1.4,1.4,0,0,0-1.07-.4,1.84,1.84,0,0,0-1.24.44,2.14,2.14,0,0,0-.55,1.49v5H592Z"/><path d="M604.92,927.59a4.77,4.77,0,0,0,1.34.7,4.63,4.63,0,0,0,1.3.23,1.46,1.46,0,0,0,.87-.26.54.54,0,0,0,.16-.44.52.52,0,0,0-.16-.42,2.09,2.09,0,0,0-.89-.33l-.88-.21A3.13,3.13,0,0,1,605,926a2.3,2.3,0,0,1-.6-1.62,3.35,3.35,0,0,1,.88-2.29,4.75,4.75,0,0,1,3.36-1.13,7.79,7.79,0,0,1,3,.61l-1.13,2.14a4.71,4.71,0,0,0-1.77-.46,1.41,1.41,0,0,0-.78.19.49.49,0,0,0-.29.46.54.54,0,0,0,.4.52c.31.13.59.13,1.11.28l.61.17a4,4,0,0,1,1.39.73,2.67,2.67,0,0,1,.71,1.87,3.15,3.15,0,0,1-.94,2.33A4.91,4.91,0,0,1,607.5,931a6.93,6.93,0,0,1-3.78-1.1Z"/><path d="M617,935.51h-3.36v-14.2H617v1a3.52,3.52,0,0,1,2.88-1.34,4.66,4.66,0,0,1,3.34,1.37,5.33,5.33,0,0,1-.09,7.34,4.5,4.5,0,0,1-3.21,1.31A4,4,0,0,1,617,929.8Zm.55-11a2.1,2.1,0,0,0,0,3,2.13,2.13,0,0,0,1.51.63,2,2,0,0,0,1.49-.63,2.2,2.2,0,0,0,.65-1.49,2.27,2.27,0,0,0-.65-1.55,2,2,0,0,0-1.49-.63A2.13,2.13,0,0,0,617.54,924.49Z"/><path d="M636,929.46a6.41,6.41,0,0,1-8.38,0,4.84,4.84,0,0,1,0-6.91,5.89,5.89,0,0,1,4.18-1.55,6,6,0,0,1,4.2,1.55,4.84,4.84,0,0,1,0,6.91Zm-5.69-5a2.09,2.09,0,0,0,0,3,2.1,2.1,0,0,0,3,0A2.08,2.08,0,0,0,634,926a2.28,2.28,0,0,0-.65-1.54,2.17,2.17,0,0,0-3,0Z"/><path d="M639.4,921.31h3.36v1.54a3,3,0,0,1,1.32-1.3,3.61,3.61,0,0,1,1.74-.38l.68,0v3.17a3,3,0,0,0-1.45-.34,2.2,2.2,0,0,0-1.53.51,2.81,2.81,0,0,0-.76,2.14v4H639.4Z"/><path d="M652,924.07v6.63h-3.36v-6.63h-1.07v-2.76h1.07v-3.08H652v3.08h1.91v2.76Z"/><path d="M360.06,904.39H352.8l-1.35,3.36H346l7.68-20h5.67l7.52,20h-5.54Zm-1.38-4L356.43,894l-2.19,6.48Z"/><path d="M368.7,894.34h4.8V896a5.06,5.06,0,0,1,4.26-2,5.39,5.39,0,0,1,3.95,1.44,4.6,4.6,0,0,1,1.27,3.75v8.52h-4.8V901a3.85,3.85,0,0,0-.6-2.61,2,2,0,0,0-1.53-.57,2.63,2.63,0,0,0-1.77.63,3.08,3.08,0,0,0-.78,2.13v7.2h-4.8Z"/><path d="M391.56,898.27v9.48h-4.8v-9.48h-1.53v-3.93h1.53v-4.41h4.8v4.41h2.73v3.93Z"/><path d="M410.3,901.93h-10a3.34,3.34,0,0,0,.84,2.25,2.69,2.69,0,0,0,2,.66,3.85,3.85,0,0,0,1.57-.36,2.23,2.23,0,0,0,.84-.9h4.59a6,6,0,0,1-1.63,2.76c-1,1-2.54,1.86-5.46,1.86a7.6,7.6,0,0,1-5.54-2,7,7,0,0,1-2-5.07,7.16,7.16,0,0,1,2-5.19A7.55,7.55,0,0,1,403,894a7.32,7.32,0,0,1,5.15,1.83,7.51,7.51,0,0,1,2.13,5.64Zm-4.4-2.76a3.32,3.32,0,0,0-.78-1.44,2.8,2.8,0,0,0-2-.72,2.57,2.57,0,0,0-1.94.72,2.82,2.82,0,0,0-.73,1.44Z"/><path d="M418.38,898.27v9.48h-4.8v-9.48H412v-3.93h1.54v-4.41h4.8v4.41h2.72v3.93Z"/><path d="M318.09,933v-14h3.63l6.7,8.57v-8.57h3.63v14h-3.63l-6.7-8.57V933Z"/><path d="M336.36,917.77a1.89,1.89,0,1,1-1.89,1.89A1.88,1.88,0,0,1,336.36,917.77Zm1.68,5.79V933h-3.36v-9.39Z"/><path d="M342.93,923.56l2.25,4.81,2.28-4.81h3.74L346.31,933H344l-4.85-9.39Z"/><path d="M361.79,928.87h-7a2.37,2.37,0,0,0,.59,1.58,1.89,1.89,0,0,0,1.39.46,2.66,2.66,0,0,0,1.09-.25,1.64,1.64,0,0,0,.59-.63h3.21a4.27,4.27,0,0,1-1.13,1.93,5.13,5.13,0,0,1-3.82,1.3,5.32,5.32,0,0,1-3.89-1.43,4.9,4.9,0,0,1-1.38-3.54,5,5,0,0,1,1.4-3.64,5.32,5.32,0,0,1,3.84-1.36,5.16,5.16,0,0,1,3.62,1.28,5.27,5.27,0,0,1,1.49,3.95Zm-3.09-1.93a2.18,2.18,0,0,0-.55-1,2,2,0,0,0-1.38-.5,1.84,1.84,0,0,0-1.37.5,1.93,1.93,0,0,0-.5,1Z"/><path d="M367.08,917.64V933h-3.36V917.64Z"/><path d="M378.21,918.94v14h-3.63v-14Z"/><path d="M380.84,923.56h3.36v1.18a3.53,3.53,0,0,1,3-1.39,3.79,3.79,0,0,1,2.77,1,3.23,3.23,0,0,1,.88,2.62v6h-3.36V928.2a2.69,2.69,0,0,0-.42-1.82A1.38,1.38,0,0,0,386,926a1.81,1.81,0,0,0-1.24.44,2.12,2.12,0,0,0-.54,1.49v5h-3.36Z"/><path d="M396.84,926.31V933h-3.36v-6.64h-1.07v-2.75h1.07v-3.09h3.36v3.09h1.91v2.75Z"/><path d="M410,928.87h-7a2.37,2.37,0,0,0,.59,1.58,1.88,1.88,0,0,0,1.38.46,2.63,2.63,0,0,0,1.09-.25,1.64,1.64,0,0,0,.59-.63h3.21A4.18,4.18,0,0,1,408.7,932a5.09,5.09,0,0,1-3.82,1.3,5.29,5.29,0,0,1-3.88-1.43,4.9,4.9,0,0,1-1.39-3.54,5,5,0,0,1,1.41-3.64,5.29,5.29,0,0,1,3.84-1.36,5.14,5.14,0,0,1,3.61,1.28,5.27,5.27,0,0,1,1.49,3.95Zm-3.09-1.93a2.26,2.26,0,0,0-.54-1,2,2,0,0,0-1.39-.5,1.82,1.82,0,0,0-1.36.5,2,2,0,0,0-.51,1Z"/><path d="M411.89,923.56h3.36v1.53a3,3,0,0,1,1.33-1.3,3.68,3.68,0,0,1,1.74-.38c.08,0,.23,0,.67.05v3.17a2.89,2.89,0,0,0-1.45-.34,2.19,2.19,0,0,0-1.53.5,2.83,2.83,0,0,0-.76,2.15v4h-3.36Z"/><path d="M420.48,923.56h3.36v1.18a3.54,3.54,0,0,1,3-1.39,3.8,3.8,0,0,1,2.78,1,3.26,3.26,0,0,1,.88,2.62v6h-3.36V928.2a2.69,2.69,0,0,0-.42-1.82,1.4,1.4,0,0,0-1.07-.4,1.79,1.79,0,0,0-1.24.44,2.13,2.13,0,0,0-.55,1.49v5h-3.36Z"/><path d="M442.72,928.87h-7a2.37,2.37,0,0,0,.59,1.58,1.88,1.88,0,0,0,1.38.46,2.63,2.63,0,0,0,1.09-.25,1.64,1.64,0,0,0,.59-.63h3.21a4.18,4.18,0,0,1-1.13,1.93,5.09,5.09,0,0,1-3.82,1.3,5.32,5.32,0,0,1-3.89-1.43,4.94,4.94,0,0,1-1.38-3.54,5,5,0,0,1,1.41-3.64,5.29,5.29,0,0,1,3.84-1.36,5.14,5.14,0,0,1,3.61,1.28,5.27,5.27,0,0,1,1.49,3.95Zm-3.09-1.93a2.26,2.26,0,0,0-.54-1,2,2,0,0,0-1.39-.5,1.8,1.8,0,0,0-1.36.5,2,2,0,0,0-.51,1Z"/><path d="M448.37,926.31V933H445v-6.64h-1.07v-2.75H445v-3.09h3.36v3.09h1.91v2.75Z"/><path d="M359.06,1166H351.8l-1.35,3.36H345l7.68-20h5.67l7.52,20h-5.54Zm-1.38-4-2.25-6.48-2.19,6.48Z"/><path d="M367.7,1155.93h4.8v1.68a5.06,5.06,0,0,1,4.26-2,5.39,5.39,0,0,1,3.95,1.44,4.6,4.6,0,0,1,1.27,3.75v8.52h-4.8v-6.78a3.85,3.85,0,0,0-.6-2.61,2,2,0,0,0-1.53-.57,2.63,2.63,0,0,0-1.77.63,3.08,3.08,0,0,0-.78,2.13v7.2h-4.8Z"/><path d="M390.56,1159.86v9.48h-4.8v-9.48h-1.53v-3.93h1.53v-4.41h4.8v4.41h2.73v3.93Z"/><path d="M409.3,1163.52h-10a3.34,3.34,0,0,0,.84,2.25,2.69,2.69,0,0,0,2,.66,3.85,3.85,0,0,0,1.57-.36,2.23,2.23,0,0,0,.84-.9h4.59a6,6,0,0,1-1.63,2.76c-1,1-2.54,1.86-5.46,1.86a7.6,7.6,0,0,1-5.54-2,7,7,0,0,1-2-5.07,7.16,7.16,0,0,1,2-5.19,7.55,7.55,0,0,1,5.49-2,7.32,7.32,0,0,1,5.15,1.83,7.51,7.51,0,0,1,2.13,5.64Zm-4.4-2.76a3.32,3.32,0,0,0-.78-1.44,2.8,2.8,0,0,0-2-.72,2.57,2.57,0,0,0-1.94.72,2.82,2.82,0,0,0-.73,1.44Z"/><path d="M417.38,1159.86v9.48h-4.8v-9.48H411v-3.93h1.54v-4.41h4.8v4.41h2.72v3.93Z"/><path d="M317.09,1194.54v-14h3.63l6.7,8.57v-8.57h3.63v14h-3.63l-6.7-8.57v8.57Z"/><path d="M335.36,1179.36a1.89,1.89,0,1,1-1.89,1.89A1.88,1.88,0,0,1,335.36,1179.36Zm1.68,5.79v9.39h-3.36v-9.39Z"/><path d="M341.93,1185.15l2.25,4.81,2.28-4.81h3.74l-4.89,9.39H343l-4.85-9.39Z"/><path d="M360.79,1190.46h-7a2.37,2.37,0,0,0,.59,1.58,1.89,1.89,0,0,0,1.39.46,2.66,2.66,0,0,0,1.09-.25,1.64,1.64,0,0,0,.59-.63h3.21a4.27,4.27,0,0,1-1.13,1.93,5.13,5.13,0,0,1-3.82,1.3,5.32,5.32,0,0,1-3.89-1.43,4.9,4.9,0,0,1-1.38-3.54,5,5,0,0,1,1.4-3.64,5.32,5.32,0,0,1,3.84-1.36,5.16,5.16,0,0,1,3.62,1.28,5.27,5.27,0,0,1,1.49,3.95Zm-3.09-1.93a2.18,2.18,0,0,0-.55-1,2,2,0,0,0-1.38-.5,1.84,1.84,0,0,0-1.37.5,1.93,1.93,0,0,0-.5,1Z"/><path d="M366.08,1179.23v15.31h-3.36v-15.31Z"/><path d="M377.21,1180.53v14h-3.63v-14Z"/><path d="M379.84,1185.15h3.36v1.18a3.53,3.53,0,0,1,3-1.39,3.79,3.79,0,0,1,2.77,1,3.22,3.22,0,0,1,.88,2.62v6h-3.36v-4.75a2.73,2.73,0,0,0-.42-1.83,1.41,1.41,0,0,0-1.07-.39,1.81,1.81,0,0,0-1.24.44,2.12,2.12,0,0,0-.54,1.49v5h-3.36Z"/><path d="M395.84,1187.9v6.64h-3.36v-6.64h-1.07v-2.75h1.07v-3.09h3.36v3.09h1.91v2.75Z"/><path d="M409,1190.46h-7a2.37,2.37,0,0,0,.59,1.58,1.88,1.88,0,0,0,1.38.46,2.63,2.63,0,0,0,1.09-.25,1.64,1.64,0,0,0,.59-.63h3.21a4.18,4.18,0,0,1-1.13,1.93,5.09,5.09,0,0,1-3.82,1.3,5.29,5.29,0,0,1-3.88-1.43,4.9,4.9,0,0,1-1.39-3.54,5,5,0,0,1,1.41-3.64,5.29,5.29,0,0,1,3.84-1.36,5.14,5.14,0,0,1,3.61,1.28,5.27,5.27,0,0,1,1.49,3.95Zm-3.09-1.93a2.26,2.26,0,0,0-.54-1,2,2,0,0,0-1.39-.5,1.82,1.82,0,0,0-1.36.5,2,2,0,0,0-.51,1Z"/><path d="M410.89,1185.15h3.36v1.53a3,3,0,0,1,1.33-1.3,3.68,3.68,0,0,1,1.74-.38c.08,0,.23,0,.67,0v3.17a2.89,2.89,0,0,0-1.45-.34,2.19,2.19,0,0,0-1.53.5,2.83,2.83,0,0,0-.76,2.15v4h-3.36Z"/><path d="M419.48,1185.15h3.36v1.18a3.54,3.54,0,0,1,3-1.39,3.8,3.8,0,0,1,2.78,1,3.25,3.25,0,0,1,.88,2.62v6h-3.36v-4.75a2.73,2.73,0,0,0-.42-1.83,1.43,1.43,0,0,0-1.07-.39,1.79,1.79,0,0,0-1.24.44,2.13,2.13,0,0,0-.55,1.49v5h-3.36Z"/><path d="M441.72,1190.46h-7a2.37,2.37,0,0,0,.59,1.58,1.88,1.88,0,0,0,1.38.46,2.63,2.63,0,0,0,1.09-.25,1.64,1.64,0,0,0,.59-.63h3.21a4.18,4.18,0,0,1-1.13,1.93,5.09,5.09,0,0,1-3.82,1.3,5.32,5.32,0,0,1-3.89-1.43,4.94,4.94,0,0,1-1.38-3.54,5,5,0,0,1,1.41-3.64,5.29,5.29,0,0,1,3.84-1.36,5.14,5.14,0,0,1,3.61,1.28,5.27,5.27,0,0,1,1.49,3.95Zm-3.09-1.93a2.26,2.26,0,0,0-.54-1,2,2,0,0,0-1.39-.5,1.8,1.8,0,0,0-1.36.5,2,2,0,0,0-.51,1Z"/><path d="M447.37,1187.9v6.64H444v-6.64h-1.07v-2.75H444v-3.09h3.36v3.09h1.91v2.75Z"/><path d="M156.06,1151.13H148.8l-1.35,3.36H142l7.68-20h5.67l7.52,20h-5.54Zm-1.38-4-2.25-6.48-2.19,6.48Z"/><path d="M164.7,1141.08h4.8v1.68a5.06,5.06,0,0,1,4.26-2,5.39,5.39,0,0,1,4,1.44A4.6,4.6,0,0,1,179,1146v8.52h-4.8v-6.78a3.85,3.85,0,0,0-.6-2.61,2,2,0,0,0-1.53-.57,2.63,2.63,0,0,0-1.77.63,3.08,3.08,0,0,0-.78,2.13v7.2h-4.8Z"/><path d="M187.56,1145v9.48h-4.8V1145h-1.53v-3.93h1.53v-4.41h4.8v4.41h2.73V1145Z"/><path d="M206.3,1148.67h-10a3.34,3.34,0,0,0,.84,2.25,2.69,2.69,0,0,0,2,.66,3.85,3.85,0,0,0,1.57-.36,2.23,2.23,0,0,0,.84-.9h4.59a6,6,0,0,1-1.63,2.76c-1,1-2.54,1.86-5.46,1.86a7.6,7.6,0,0,1-5.54-2,7,7,0,0,1-2-5.07,7.16,7.16,0,0,1,2-5.19,7.55,7.55,0,0,1,5.49-2,7.32,7.32,0,0,1,5.15,1.83,7.51,7.51,0,0,1,2.13,5.64Zm-4.4-2.76a3.32,3.32,0,0,0-.78-1.44,2.8,2.8,0,0,0-2-.72,2.57,2.57,0,0,0-1.94.72,2.82,2.82,0,0,0-.73,1.44Z"/><path d="M214.38,1145v9.48h-4.8V1145H208v-3.93h1.54v-4.41h4.8v4.41h2.72V1145Z"/><path d="M155.17,1179.69v-14h3.63l6.7,8.57v-8.57h3.63v14H165.5l-6.7-8.57v8.57Z"/><path d="M173.44,1164.51a1.89,1.89,0,1,1-1.89,1.89A1.88,1.88,0,0,1,173.44,1164.51Zm1.68,5.79v9.39h-3.36v-9.39Z"/><path d="M180,1170.3l2.25,4.81,2.29-4.81h3.74l-4.9,9.39h-2.28l-4.85-9.39Z"/><path d="M198.87,1175.62h-7a2.37,2.37,0,0,0,.59,1.57,1.88,1.88,0,0,0,1.38.46,2.67,2.67,0,0,0,1.1-.25,1.49,1.49,0,0,0,.58-.63h3.22a4.26,4.26,0,0,1-1.14,1.93,5.09,5.09,0,0,1-3.82,1.3,5.32,5.32,0,0,1-3.88-1.42,4.93,4.93,0,0,1-1.39-3.55,5,5,0,0,1,1.41-3.63,5.25,5.25,0,0,1,3.84-1.37,5.14,5.14,0,0,1,3.61,1.28,5.27,5.27,0,0,1,1.49,4Zm-3.08-1.94a2.34,2.34,0,0,0-.55-1,2,2,0,0,0-1.39-.51,1.8,1.8,0,0,0-1.36.51,2,2,0,0,0-.51,1Z"/><path d="M204.16,1164.38v15.31H200.8v-15.31Z"/><path d="M100.79,1190.89v10.91h4.37v3.09h-8v-14Z"/><path d="M116.67,1200.82h-7a2.41,2.41,0,0,0,.58,1.57,1.89,1.89,0,0,0,1.39.46,2.66,2.66,0,0,0,1.09-.25,1.57,1.57,0,0,0,.59-.63h3.21a4.22,4.22,0,0,1-1.13,1.93,5.09,5.09,0,0,1-3.82,1.3,5.35,5.35,0,0,1-3.89-1.42,5.33,5.33,0,0,1,0-7.18,5.29,5.29,0,0,1,3.85-1.37,5.15,5.15,0,0,1,3.61,1.28,5.27,5.27,0,0,1,1.49,4Zm-3.09-1.94a2.22,2.22,0,0,0-.54-1,2,2,0,0,0-1.39-.51,1.77,1.77,0,0,0-1.36.51,1.81,1.81,0,0,0-.51,1Z"/><path d="M129.16,1195.5v8.8a5,5,0,0,1-1.28,3.89,5.62,5.62,0,0,1-4.13,1.51,5.73,5.73,0,0,1-4.39-1.66,3.35,3.35,0,0,1-1-2h3.74a1.44,1.44,0,0,0,1.57,1,2,2,0,0,0,1.49-.52,2.26,2.26,0,0,0,.67-1.75v-.94a3.57,3.57,0,0,1-2.81,1.24,4.65,4.65,0,0,1-3.46-1.32,5,5,0,0,1-1.31-3.43,5.39,5.39,0,0,1,1.39-3.67,4.69,4.69,0,0,1,3.4-1.43,3.66,3.66,0,0,1,2.79,1.24v-1Zm-6.84,3.15a2.11,2.11,0,0,0,0,3,2.13,2.13,0,0,0,1.51.61,2.15,2.15,0,0,0,2.14-2.14,2.41,2.41,0,0,0-.67-1.54,2.12,2.12,0,0,0-1.49-.61A2,2,0,0,0,122.32,1198.65Z"/><path d="M138.74,1195.5h3.36v9.39h-3.36v-1a3.51,3.51,0,0,1-2.92,1.34,4.47,4.47,0,0,1-3.38-1.49,4.72,4.72,0,0,1-1.34-3.44,5.23,5.23,0,0,1,1.44-3.76,4.84,4.84,0,0,1,3.39-1.32,3.71,3.71,0,0,1,2.81,1.22Zm-3.53,3.15a2.2,2.2,0,0,0-.67,1.54,2.17,2.17,0,0,0,.65,1.53,2.33,2.33,0,0,0,1.51.63,2.14,2.14,0,0,0,1.51-.65,2,2,0,0,0,.63-1.51,2.08,2.08,0,0,0-.65-1.54,2.12,2.12,0,0,0-3,0Z"/><path d="M148.13,1198.25v6.64h-3.36v-6.64H143.7v-2.75h1.07v-3.08h3.36v3.08H150v2.75Z"/><path d="M154.66,1195.5v5.25a1.81,1.81,0,0,0,.5,1.37,1.78,1.78,0,0,0,1.18.36,1.57,1.57,0,0,0,1.19-.4,1.76,1.76,0,0,0,.49-1.33v-5.25h3.36v5.86a3.23,3.23,0,0,1-.91,2.52,5.33,5.33,0,0,1-4.05,1.32c-1.41,0-3.13-.14-4.24-1.34a3.36,3.36,0,0,1-.88-2.5v-5.86Z"/><path d="M163.69,1195.5h3.36V1197a3,3,0,0,1,1.32-1.3,3.56,3.56,0,0,1,1.74-.38l.67,0v3.17a3,3,0,0,0-1.45-.34,2.22,2.22,0,0,0-1.53.51,2.84,2.84,0,0,0-.75,2.14v4h-3.36Z"/><path d="M179.54,1195.5h3.36v9.39h-3.36v-1a3.5,3.5,0,0,1-2.92,1.34,4.49,4.49,0,0,1-3.38-1.49,4.72,4.72,0,0,1-1.34-3.44,5.19,5.19,0,0,1,1.45-3.76,4.79,4.79,0,0,1,3.38-1.32,3.71,3.71,0,0,1,2.81,1.22Zm1.85-4.83a3.29,3.29,0,0,1-.93,2.29,4.38,4.38,0,0,1-5.45,0,3.29,3.29,0,0,1-.93-2.29h2.16a1.52,1.52,0,0,0,.42.87,1.75,1.75,0,0,0,2.15,0,1.52,1.52,0,0,0,.42-.87Zm-5.38,8a2.2,2.2,0,0,0-.67,1.54,2.17,2.17,0,0,0,.65,1.53,2.36,2.36,0,0,0,1.51.63,2.16,2.16,0,0,0,1.52-.65,2.07,2.07,0,0,0,.63-1.51,2.09,2.09,0,0,0-.66-1.54,2.14,2.14,0,0,0-1.51-.61A2.17,2.17,0,0,0,176,1198.65Z"/><path d="M200.73,1204.89h-3.36v-1a3.43,3.43,0,0,1-2.84,1.34,4.48,4.48,0,0,1-3.29-1.3,5.32,5.32,0,0,1,0-7.45,4.8,4.8,0,0,1,3.32-1.26,3.71,3.71,0,0,1,2.79,1.22v-6.83h3.36Zm-4-3.11a2.25,2.25,0,0,0,.71-1.59,2.45,2.45,0,0,0-.63-1.52,2.15,2.15,0,0,0-3,0,2.31,2.31,0,0,0-.65,1.6,2.13,2.13,0,0,0,.65,1.47,2.09,2.09,0,0,0,1.49.63A2.27,2.27,0,0,0,196.76,1201.78Z"/><path d="M213,1200.82h-7a2.37,2.37,0,0,0,.59,1.57,1.88,1.88,0,0,0,1.38.46,2.67,2.67,0,0,0,1.1-.25,1.49,1.49,0,0,0,.58-.63h3.22a4.26,4.26,0,0,1-1.14,1.93,5.05,5.05,0,0,1-3.82,1.3,5.32,5.32,0,0,1-3.88-1.42,4.93,4.93,0,0,1-1.39-3.55,5,5,0,0,1,1.41-3.63,5.25,5.25,0,0,1,3.84-1.37,5.14,5.14,0,0,1,3.61,1.28,5.27,5.27,0,0,1,1.49,4Zm-3.08-1.94a2.34,2.34,0,0,0-.55-1,2,2,0,0,0-1.39-.51,1.8,1.8,0,0,0-1.36.51,1.87,1.87,0,0,0-.5,1Z"/><path d="M230.44,1204.89h-3.36v-1a3.42,3.42,0,0,1-2.83,1.34,4.49,4.49,0,0,1-3.3-1.3,5.17,5.17,0,0,1-1.51-3.73,5.12,5.12,0,0,1,1.53-3.72,4.82,4.82,0,0,1,3.32-1.26,3.71,3.71,0,0,1,2.79,1.22v-6.83h3.36Zm-4-3.11a2.26,2.26,0,0,0,.72-1.59,2.51,2.51,0,0,0-.63-1.52,2.16,2.16,0,0,0-3,0,2.35,2.35,0,0,0-.65,1.6,2.19,2.19,0,0,0,2.15,2.1A2.24,2.24,0,0,0,226.47,1201.78Z"/><path d="M240,1195.5h3.36v9.39H240v-1a3.51,3.51,0,0,1-2.92,1.34,4.47,4.47,0,0,1-3.38-1.49,4.72,4.72,0,0,1-1.34-3.44,5.23,5.23,0,0,1,1.44-3.76,4.84,4.84,0,0,1,3.39-1.32,3.71,3.71,0,0,1,2.81,1.22Zm-3.53,3.15a2.2,2.2,0,0,0-.67,1.54,2.17,2.17,0,0,0,.65,1.53,2.33,2.33,0,0,0,1.51.63,2.14,2.14,0,0,0,1.51-.65,2,2,0,0,0,.63-1.51,2.08,2.08,0,0,0-.65-1.54,2.12,2.12,0,0,0-3,0Z"/><path d="M249.41,1198.25v6.64h-3.36v-6.64H245v-2.75h1.08v-3.08h3.36v3.08h1.91v2.75Z"/><path d="M262.53,1200.82h-7a2.37,2.37,0,0,0,.59,1.57,1.85,1.85,0,0,0,1.38.46,2.66,2.66,0,0,0,1.09-.25,1.57,1.57,0,0,0,.59-.63h3.21a4.13,4.13,0,0,1-1.13,1.93,5.07,5.07,0,0,1-3.82,1.3,5.35,5.35,0,0,1-3.89-1.42,5.33,5.33,0,0,1,0-7.18,5.29,5.29,0,0,1,3.85-1.37,5.14,5.14,0,0,1,3.61,1.28,5.27,5.27,0,0,1,1.49,4Zm-3.09-1.94a2.22,2.22,0,0,0-.54-1,2,2,0,0,0-1.39-.51,1.77,1.77,0,0,0-1.36.51,2,2,0,0,0-.51,1Z"/><path d="M555.06,1163.73H547.8l-1.35,3.36H541l7.68-20h5.67l7.52,20h-5.54Zm-1.38-4-2.25-6.48-2.19,6.48Z"/><path d="M563.7,1153.68h4.8v1.68a5.06,5.06,0,0,1,4.26-2,5.39,5.39,0,0,1,4,1.44,4.6,4.6,0,0,1,1.27,3.75v8.52h-4.8v-6.78a3.85,3.85,0,0,0-.6-2.61,2,2,0,0,0-1.53-.57,2.63,2.63,0,0,0-1.77.63,3.08,3.08,0,0,0-.78,2.13v7.2h-4.8Z"/><path d="M586.56,1157.61v9.48h-4.8v-9.48h-1.53v-3.93h1.53v-4.41h4.8v4.41h2.73v3.93Z"/><path d="M605.3,1161.27h-10a3.34,3.34,0,0,0,.84,2.25,2.69,2.69,0,0,0,2,.66,3.85,3.85,0,0,0,1.57-.36,2.23,2.23,0,0,0,.84-.9h4.59a6,6,0,0,1-1.63,2.76c-1,1-2.54,1.86-5.46,1.86a7.6,7.6,0,0,1-5.54-2,7,7,0,0,1-2-5.07,7.16,7.16,0,0,1,2-5.19,7.55,7.55,0,0,1,5.49-2,7.32,7.32,0,0,1,5.15,1.83,7.51,7.51,0,0,1,2.13,5.64Zm-4.4-2.76a3.32,3.32,0,0,0-.78-1.44,2.8,2.8,0,0,0-2-.72,2.57,2.57,0,0,0-1.94.72,2.82,2.82,0,0,0-.73,1.44Z"/><path d="M613.38,1157.61v9.48h-4.8v-9.48H607v-3.93h1.54v-4.41h4.8v4.41h2.72v3.93Z"/><path d="M504.43,1192.29v-14h3.64l6.69,8.56v-8.56h3.64v14h-3.64l-6.69-8.57v8.57Z"/><path d="M522.7,1177.11a1.89,1.89,0,1,1-1.89,1.89A1.88,1.88,0,0,1,522.7,1177.11Zm1.68,5.79v9.39H521v-9.39Z"/><path d="M529.28,1182.9l2.24,4.81,2.29-4.81h3.74l-4.89,9.39h-2.29l-4.85-9.39Z"/><path d="M548.13,1188.22h-7a2.37,2.37,0,0,0,.59,1.57,1.89,1.89,0,0,0,1.39.46,2.66,2.66,0,0,0,1.09-.25,1.51,1.51,0,0,0,.59-.63H548a4.22,4.22,0,0,1-1.13,1.93,5.14,5.14,0,0,1-3.83,1.31,5.33,5.33,0,0,1-3.88-1.43,4.93,4.93,0,0,1-1.39-3.55,5,5,0,0,1,1.41-3.63,5.26,5.26,0,0,1,3.84-1.37,5.14,5.14,0,0,1,3.61,1.28,5.23,5.23,0,0,1,1.49,3.95Zm-3.08-1.93a2.32,2.32,0,0,0-.55-1,2,2,0,0,0-1.38-.51,1.81,1.81,0,0,0-1.37.51,1.9,1.9,0,0,0-.5,1Z"/><path d="M553.43,1177v15.31h-3.36V1177Z"/><path d="M566.22,1181.37v10.92h-3.64v-10.92h-3v-3.08h9.6v3.08Z"/><path d="M570.5,1182.9h3.36v1.54a3,3,0,0,1,1.32-1.3,3.6,3.6,0,0,1,1.75-.38l.67,0V1186a3,3,0,0,0-1.45-.34,2.2,2.2,0,0,0-1.53.51,2.81,2.81,0,0,0-.76,2.14v4H570.5Z"/><path d="M586.35,1182.9h3.36v9.39h-3.36v-1a3.5,3.5,0,0,1-2.91,1.35,4.52,4.52,0,0,1-3.39-1.5,4.72,4.72,0,0,1-1.34-3.44,5.19,5.19,0,0,1,1.45-3.76,4.87,4.87,0,0,1,3.38-1.32,3.69,3.69,0,0,1,2.81,1.22Zm-3.52,3.15a2.23,2.23,0,0,0-.68,1.54,2.18,2.18,0,0,0,.66,1.53,2.31,2.31,0,0,0,1.51.63,2.16,2.16,0,0,0,1.51-.65,2.07,2.07,0,0,0,.63-1.51,2.12,2.12,0,0,0-.65-1.54,2.18,2.18,0,0,0-1.51-.6A2.14,2.14,0,0,0,582.83,1186.05Z"/><path d="M592,1182.9h3.35v1.18a3.55,3.55,0,0,1,3-1.38,3.83,3.83,0,0,1,2.77,1,3.24,3.24,0,0,1,.88,2.63v6h-3.36v-4.75a2.69,2.69,0,0,0-.42-1.82,1.4,1.4,0,0,0-1.07-.4,1.84,1.84,0,0,0-1.24.44,2.14,2.14,0,0,0-.55,1.49v5H592Z"/><path d="M604.92,1189.18a4.77,4.77,0,0,0,1.34.7,4.63,4.63,0,0,0,1.3.23,1.46,1.46,0,0,0,.87-.26.54.54,0,0,0,.16-.44.52.52,0,0,0-.16-.42,2.09,2.09,0,0,0-.89-.33l-.88-.21a3.13,3.13,0,0,1-1.64-.82,2.3,2.3,0,0,1-.6-1.62,3.35,3.35,0,0,1,.88-2.29,4.75,4.75,0,0,1,3.36-1.13,7.79,7.79,0,0,1,3,.61l-1.13,2.14a4.71,4.71,0,0,0-1.77-.46,1.41,1.41,0,0,0-.78.19.49.49,0,0,0-.29.46.54.54,0,0,0,.4.52c.31.13.59.13,1.11.28l.61.17a4,4,0,0,1,1.39.73,2.67,2.67,0,0,1,.71,1.87,3.15,3.15,0,0,1-.94,2.33,4.91,4.91,0,0,1-3.47,1.18,6.93,6.93,0,0,1-3.78-1.1Z"/><path d="M617,1197.1h-3.36v-14.2H617v1a3.52,3.52,0,0,1,2.88-1.34,4.66,4.66,0,0,1,3.34,1.37,5.33,5.33,0,0,1-.09,7.34,4.5,4.5,0,0,1-3.21,1.31,4,4,0,0,1-2.92-1.22Zm.55-11a2.1,2.1,0,0,0,0,3,2.13,2.13,0,0,0,1.51.63,2,2,0,0,0,1.49-.63,2.2,2.2,0,0,0,.65-1.49,2.27,2.27,0,0,0-.65-1.55,2,2,0,0,0-1.49-.63A2.13,2.13,0,0,0,617.54,1186.08Z"/><path d="M636,1191.05a6.41,6.41,0,0,1-8.38,0,4.84,4.84,0,0,1,0-6.91,5.89,5.89,0,0,1,4.18-1.55,6,6,0,0,1,4.2,1.55,4.84,4.84,0,0,1,0,6.91Zm-5.69-5a2.09,2.09,0,0,0,0,3,2.1,2.1,0,0,0,3,0,2.08,2.08,0,0,0,.65-1.49,2.28,2.28,0,0,0-.65-1.54,2.17,2.17,0,0,0-3,0Z"/><path d="M639.4,1182.9h3.36v1.54a3,3,0,0,1,1.32-1.3,3.61,3.61,0,0,1,1.74-.38l.68,0V1186a3,3,0,0,0-1.45-.34,2.2,2.2,0,0,0-1.53.51,2.81,2.81,0,0,0-.76,2.14v4H639.4Z"/><path d="M652,1185.66v6.63h-3.36v-6.63h-1.07v-2.76h1.07v-3.08H652v3.08h1.91v2.76Z"/><path d="M751.06,901.92H743.8l-1.35,3.36H737l7.68-20h5.67l7.52,20h-5.54Zm-1.38-4-2.25-6.48L745.24,898Z"/><path d="M759.7,891.87h4.8v1.68a5.06,5.06,0,0,1,4.26-2,5.39,5.39,0,0,1,4,1.44,4.6,4.6,0,0,1,1.27,3.75v8.52h-4.8V898.5a3.85,3.85,0,0,0-.6-2.61,2,2,0,0,0-1.53-.57,2.63,2.63,0,0,0-1.77.63,3.08,3.08,0,0,0-.78,2.13v7.2h-4.8Z"/><path d="M782.56,895.8v9.48h-4.8V895.8h-1.53v-3.93h1.53v-4.41h4.8v4.41h2.73v3.93Z"/><path d="M801.3,899.46h-10a3.34,3.34,0,0,0,.84,2.25,2.69,2.69,0,0,0,2,.66,3.85,3.85,0,0,0,1.57-.36,2.23,2.23,0,0,0,.84-.9h4.59a6,6,0,0,1-1.63,2.76c-1,1-2.54,1.86-5.46,1.86a7.6,7.6,0,0,1-5.54-2,7,7,0,0,1-2-5.07,7.16,7.16,0,0,1,2-5.19,7.55,7.55,0,0,1,5.49-1.95,7.32,7.32,0,0,1,5.15,1.83A7.51,7.51,0,0,1,801.3,899Zm-4.4-2.76a3.32,3.32,0,0,0-.78-1.44,2.8,2.8,0,0,0-2-.72,2.57,2.57,0,0,0-1.94.72,2.82,2.82,0,0,0-.73,1.44Z"/><path d="M809.38,895.8v9.48h-4.8V895.8H803v-3.93h1.54v-4.41h4.8v4.41h2.72v3.93Z"/><path d="M705,930.48v-14h3.63l6.7,8.57v-8.57h3.63v14H715.3l-6.7-8.57v8.57Z"/><path d="M723.24,915.3a1.89,1.89,0,1,1-1.89,1.89A1.88,1.88,0,0,1,723.24,915.3Zm1.68,5.79v9.39h-3.36v-9.39Z"/><path d="M729.81,921.09l2.25,4.81,2.29-4.81h3.74l-4.9,9.39H730.9l-4.85-9.39Z"/><path d="M748.67,926.41h-7a2.37,2.37,0,0,0,.59,1.57,1.88,1.88,0,0,0,1.38.46,2.63,2.63,0,0,0,1.09-.25,1.51,1.51,0,0,0,.59-.63h3.21a4.13,4.13,0,0,1-1.13,1.93,5.09,5.09,0,0,1-3.82,1.3,5.32,5.32,0,0,1-3.88-1.42,4.93,4.93,0,0,1-1.39-3.55,5,5,0,0,1,1.41-3.63,5.25,5.25,0,0,1,3.84-1.37,5.14,5.14,0,0,1,3.61,1.28,5.27,5.27,0,0,1,1.49,3.95Zm-3.09-1.94a2.22,2.22,0,0,0-.54-1,2,2,0,0,0-1.39-.51,1.79,1.79,0,0,0-1.36.51,2,2,0,0,0-.51,1Z"/><path d="M754,915.17v15.31H750.6V915.17Z"/><path d="M770,928.13h-5.08l-.95,2.35h-3.84l5.37-14h4l5.27,14h-3.88Zm-1-2.77-1.57-4.54-1.54,4.54Z"/><path d="M779.42,935.29h-3.36v-14.2h3.36v1a3.5,3.5,0,0,1,2.87-1.34,4.68,4.68,0,0,1,3.34,1.36,5.33,5.33,0,0,1-.08,7.35,4.51,4.51,0,0,1-3.22,1.3,4,4,0,0,1-2.91-1.21Zm.54-11a2.29,2.29,0,0,0-.65,1.56,2.27,2.27,0,0,0,.65,1.49,2.15,2.15,0,0,0,1.51.63,2,2,0,0,0,1.49-.63,2.23,2.23,0,0,0,.66-1.49,2.3,2.3,0,0,0-.66-1.56,2,2,0,0,0-1.49-.63A2.2,2.2,0,0,0,780,924.26Z"/><path d="M792.35,915.17v15.31H789V915.17Z"/><path d="M796.32,915.3a1.89,1.89,0,1,1-1.89,1.89A1.88,1.88,0,0,1,796.32,915.3Zm1.68,5.79v9.39h-3.36v-9.39Z"/><path d="M807.39,930.27a5,5,0,0,1-2.33.52,5.19,5.19,0,0,1-3.7-1.42,4.92,4.92,0,0,1-1.45-3.51,5.11,5.11,0,0,1,1.51-3.63,5.44,5.44,0,0,1,3.78-1.43,4.85,4.85,0,0,1,2.19.53v2.81a3,3,0,0,0-1.75-.61,2.17,2.17,0,0,0-1.63.65,2.25,2.25,0,0,0-.65,1.62,2.39,2.39,0,0,0,.58,1.57,2.28,2.28,0,0,0,1.73.72,2.57,2.57,0,0,0,1.72-.63Z"/><path d="M816.56,921.09h3.36v9.39h-3.36v-1a3.49,3.49,0,0,1-2.91,1.34,4.47,4.47,0,0,1-3.38-1.49,4.69,4.69,0,0,1-1.35-3.44,5.19,5.19,0,0,1,1.45-3.76,4.83,4.83,0,0,1,3.38-1.32,3.69,3.69,0,0,1,2.81,1.22ZM813,924.24a2.12,2.12,0,0,0,0,3.07,2.36,2.36,0,0,0,1.51.63,2.16,2.16,0,0,0,1.51-.65,2.07,2.07,0,0,0,.63-1.51,2.12,2.12,0,0,0-.65-1.54,2.18,2.18,0,0,0-1.51-.61A2.15,2.15,0,0,0,813,924.24Z"/><path d="M826,923.84v6.64h-3.36v-6.64h-1.07v-2.75h1.07V918H826v3.08h1.91v2.75Zm-3.23,7.69,3.15.34-2.14,3.86-2.1-.25Z"/><path d="M830.8,915.3a1.89,1.89,0,1,1-1.89,1.89A1.88,1.88,0,0,1,830.8,915.3Zm1.68,5.79v9.39h-3.36v-9.39Z"/><path d="M844.72,926.41h-7a2.37,2.37,0,0,0,.59,1.57,1.89,1.89,0,0,0,1.39.46,2.66,2.66,0,0,0,1.09-.25,1.57,1.57,0,0,0,.59-.63h3.21a4.17,4.17,0,0,1-1.14,1.93,5.09,5.09,0,0,1-3.82,1.3,5.32,5.32,0,0,1-3.88-1.42,4.93,4.93,0,0,1-1.39-3.55,5,5,0,0,1,1.41-3.63,5.26,5.26,0,0,1,3.84-1.37,5.14,5.14,0,0,1,3.61,1.28,5.23,5.23,0,0,1,1.49,3.95Zm-3.08-1.94a2.34,2.34,0,0,0-.55-1,2,2,0,0,0-1.38-.51,1.81,1.81,0,0,0-1.37.51,1.87,1.87,0,0,0-.5,1Z"/><path d="M751.06,1163.51H743.8l-1.35,3.36H737l7.68-20h5.67l7.52,20h-5.54Zm-1.38-4-2.25-6.48-2.19,6.48Z"/><path d="M759.7,1153.46h4.8v1.68a5.06,5.06,0,0,1,4.26-2,5.39,5.39,0,0,1,4,1.44,4.6,4.6,0,0,1,1.27,3.75v8.52h-4.8v-6.78a3.85,3.85,0,0,0-.6-2.61,2,2,0,0,0-1.53-.57,2.63,2.63,0,0,0-1.77.63,3.08,3.08,0,0,0-.78,2.13v7.2h-4.8Z"/><path d="M782.56,1157.39v9.48h-4.8v-9.48h-1.53v-3.93h1.53v-4.41h4.8v4.41h2.73v3.93Z"/><path d="M801.3,1161.05h-10a3.34,3.34,0,0,0,.84,2.25,2.69,2.69,0,0,0,2,.66,3.85,3.85,0,0,0,1.57-.36,2.23,2.23,0,0,0,.84-.9h4.59a6,6,0,0,1-1.63,2.76c-1,1-2.54,1.86-5.46,1.86a7.6,7.6,0,0,1-5.54-2,7,7,0,0,1-2-5.07,7.16,7.16,0,0,1,2-5.19,7.55,7.55,0,0,1,5.49-2,7.32,7.32,0,0,1,5.15,1.83,7.51,7.51,0,0,1,2.13,5.64Zm-4.4-2.76a3.32,3.32,0,0,0-.78-1.44,2.8,2.8,0,0,0-2-.72,2.57,2.57,0,0,0-1.94.72,2.82,2.82,0,0,0-.73,1.44Z"/><path d="M809.38,1157.39v9.48h-4.8v-9.48H803v-3.93h1.54v-4.41h4.8v4.41h2.72v3.93Z"/><path d="M705,1192.07v-14h3.63l6.7,8.57v-8.57h3.63v14H715.3l-6.7-8.57v8.57Z"/><path d="M723.24,1176.89a1.89,1.89,0,1,1-1.89,1.89A1.88,1.88,0,0,1,723.24,1176.89Zm1.68,5.79v9.39h-3.36v-9.39Z"/><path d="M729.81,1182.68l2.25,4.81,2.29-4.81h3.74l-4.9,9.39H730.9l-4.85-9.39Z"/><path d="M748.67,1188h-7a2.37,2.37,0,0,0,.59,1.57,1.88,1.88,0,0,0,1.38.46,2.63,2.63,0,0,0,1.09-.25,1.51,1.51,0,0,0,.59-.63h3.21a4.13,4.13,0,0,1-1.13,1.93,5.09,5.09,0,0,1-3.82,1.3,5.32,5.32,0,0,1-3.88-1.42,4.93,4.93,0,0,1-1.39-3.55,5,5,0,0,1,1.41-3.63,5.25,5.25,0,0,1,3.84-1.37,5.14,5.14,0,0,1,3.61,1.28,5.27,5.27,0,0,1,1.49,4Zm-3.09-1.94a2.22,2.22,0,0,0-.54-1,2,2,0,0,0-1.39-.51,1.79,1.79,0,0,0-1.36.51,2,2,0,0,0-.51,1Z"/><path d="M754,1176.76v15.31H750.6v-15.31Z"/><path d="M770,1189.72h-5.08l-.95,2.35h-3.84l5.37-14h4l5.27,14h-3.88Zm-1-2.77-1.57-4.54-1.54,4.54Z"/><path d="M779.42,1196.88h-3.36v-14.2h3.36v1a3.5,3.5,0,0,1,2.87-1.34,4.68,4.68,0,0,1,3.34,1.36,5.33,5.33,0,0,1-.08,7.35,4.51,4.51,0,0,1-3.22,1.3,4,4,0,0,1-2.91-1.21Zm.54-11a2.29,2.29,0,0,0-.65,1.56,2.27,2.27,0,0,0,.65,1.49,2.15,2.15,0,0,0,1.51.63,2,2,0,0,0,1.49-.63,2.23,2.23,0,0,0,.66-1.49,2.3,2.3,0,0,0-.66-1.56,2,2,0,0,0-1.49-.63A2.2,2.2,0,0,0,780,1185.85Z"/><path d="M792.35,1176.76v15.31H789v-15.31Z"/><path d="M796.32,1176.89a1.89,1.89,0,1,1-1.89,1.89A1.88,1.88,0,0,1,796.32,1176.89Zm1.68,5.79v9.39h-3.36v-9.39Z"/><path d="M807.39,1191.86a5,5,0,0,1-2.33.52,5.19,5.19,0,0,1-3.7-1.42,4.92,4.92,0,0,1-1.45-3.51,5.11,5.11,0,0,1,1.51-3.63,5.44,5.44,0,0,1,3.78-1.43,4.85,4.85,0,0,1,2.19.53v2.81a3,3,0,0,0-1.75-.61,2.17,2.17,0,0,0-1.63.65,2.25,2.25,0,0,0-.65,1.62,2.39,2.39,0,0,0,.58,1.57,2.28,2.28,0,0,0,1.73.72,2.57,2.57,0,0,0,1.72-.63Z"/><path d="M816.56,1182.68h3.36v9.39h-3.36v-1a3.49,3.49,0,0,1-2.91,1.34,4.47,4.47,0,0,1-3.38-1.49,4.69,4.69,0,0,1-1.35-3.44,5.19,5.19,0,0,1,1.45-3.76,4.83,4.83,0,0,1,3.38-1.32,3.69,3.69,0,0,1,2.81,1.22Zm-3.52,3.15a2.12,2.12,0,0,0,0,3.07,2.36,2.36,0,0,0,1.51.63,2.16,2.16,0,0,0,1.51-.65,2.07,2.07,0,0,0,.63-1.51,2.12,2.12,0,0,0-.65-1.54,2.18,2.18,0,0,0-1.51-.61A2.15,2.15,0,0,0,813,1185.83Z"/><path d="M826,1185.43v6.64h-3.36v-6.64h-1.07v-2.75h1.07v-3.08H826v3.08h1.91v2.75Zm-3.23,7.69,3.15.34-2.14,3.86-2.1-.25Z"/><path d="M830.8,1176.89a1.89,1.89,0,1,1-1.89,1.89A1.88,1.88,0,0,1,830.8,1176.89Zm1.68,5.79v9.39h-3.36v-9.39Z"/><path d="M844.72,1188h-7a2.37,2.37,0,0,0,.59,1.57,1.89,1.89,0,0,0,1.39.46,2.66,2.66,0,0,0,1.09-.25,1.57,1.57,0,0,0,.59-.63h3.21a4.17,4.17,0,0,1-1.14,1.93,5.09,5.09,0,0,1-3.82,1.3,5.32,5.32,0,0,1-3.88-1.42,4.93,4.93,0,0,1-1.39-3.55,5,5,0,0,1,1.41-3.63,5.26,5.26,0,0,1,3.84-1.37,5.14,5.14,0,0,1,3.61,1.28,5.23,5.23,0,0,1,1.49,4Zm-3.08-1.94a2.34,2.34,0,0,0-.55-1,2,2,0,0,0-1.38-.51,1.81,1.81,0,0,0-1.37.51,1.87,1.87,0,0,0-.5,1Z"/><path d="M1111.39,402.36v9.94h-7.79v-30H1116a10.38,10.38,0,0,1,7.61,2.7,9.3,9.3,0,0,1,2.79,7.29c0,2.39-.32,5.18-2.66,7.47a10,10,0,0,1-7.47,2.61Zm0-6.3H1114a5.08,5.08,0,0,0,3.28-.94,3.43,3.43,0,0,0,1-2.75,3.64,3.64,0,0,0-.9-2.7,4.6,4.6,0,0,0-3.33-1.08h-2.65Z"/><path d="M1144.91,392.19h7.2V412.3h-7.2v-2.2a7.51,7.51,0,0,1-6.25,2.88,9.65,9.65,0,0,1-7.25-3.19,10.19,10.19,0,0,1-2.88-7.38,11.14,11.14,0,0,1,3.11-8.06,10.34,10.34,0,0,1,7.24-2.83,7.93,7.93,0,0,1,6,2.61Zm-7.56,6.75a4.7,4.7,0,0,0-1.44,3.28,4.63,4.63,0,0,0,1.4,3.29,5,5,0,0,0,3.24,1.35,4.58,4.58,0,0,0,3.24-1.4,4.37,4.37,0,0,0,1.35-3.24,4.43,4.43,0,0,0-1.4-3.28,4.58,4.58,0,0,0-6.39,0Z"/><path d="M1164.31,409.56l-9.72-17.37H1163l5.35,10.31,5.22-10.31h8.24l-16.16,30.42h-8Z"/><path d="M1191.44,379.5v32.8h-7.2V379.5Z"/><path d="M1216.6,409.65a13.77,13.77,0,0,1-18,0,10.06,10.06,0,0,1-3.1-7.43,10,10,0,0,1,3.1-7.37,12.57,12.57,0,0,1,9-3.33,12.7,12.7,0,0,1,9,3.33,10,10,0,0,1,3.1,7.37A10.06,10.06,0,0,1,1216.6,409.65Zm-12.2-10.71a4.57,4.57,0,1,0,6.44,6.48,4.42,4.42,0,0,0,1.39-3.2,4.59,4.59,0,0,0-4.59-4.58A5,5,0,0,0,1204.4,398.94Z"/><path d="M1239.41,392.19h7.2V412.3h-7.2v-2.2a7.51,7.51,0,0,1-6.25,2.88,9.65,9.65,0,0,1-7.25-3.19,10.19,10.19,0,0,1-2.88-7.38,11.14,11.14,0,0,1,3.11-8.06,10.34,10.34,0,0,1,7.24-2.83,7.93,7.93,0,0,1,6,2.61Zm-7.56,6.75a4.7,4.7,0,0,0-1.44,3.28,4.63,4.63,0,0,0,1.4,3.29,5,5,0,0,0,3.24,1.35,4.58,4.58,0,0,0,3.24-1.4,4.37,4.37,0,0,0,1.35-3.24,4.43,4.43,0,0,0-1.4-3.28,4.58,4.58,0,0,0-6.39,0Z"/><path d="M1274.33,412.3h-7.2v-2.2a7.37,7.37,0,0,1-6.07,2.88,9.62,9.62,0,0,1-7.07-2.79,11.11,11.11,0,0,1-3.24-8,10.92,10.92,0,0,1,3.29-8,10.28,10.28,0,0,1,7.11-2.7,7.93,7.93,0,0,1,6,2.61V379.5h7.2Zm-8.5-6.66a4.83,4.83,0,0,0,1.53-3.42A5.24,5.24,0,0,0,1266,399a4.62,4.62,0,0,0-6.48-.05,4.94,4.94,0,0,0-1.4,3.42,4.51,4.51,0,0,0,1.4,3.15,4.46,4.46,0,0,0,3.19,1.35A4.92,4.92,0,0,0,1265.83,405.64Z"/><path d="M1111.39,660.36v9.94h-7.79v-30H1116a10.38,10.38,0,0,1,7.61,2.7,9.3,9.3,0,0,1,2.79,7.29c0,2.39-.32,5.18-2.66,7.47a10,10,0,0,1-7.47,2.61Zm0-6.3H1114a5.08,5.08,0,0,0,3.28-.94,3.43,3.43,0,0,0,1-2.75,3.64,3.64,0,0,0-.9-2.7,4.6,4.6,0,0,0-3.33-1.08h-2.65Z"/><path d="M1144.91,650.19h7.2V670.3h-7.2v-2.2a7.51,7.51,0,0,1-6.25,2.88,9.65,9.65,0,0,1-7.25-3.19,10.19,10.19,0,0,1-2.88-7.38,11.14,11.14,0,0,1,3.11-8.06,10.34,10.34,0,0,1,7.24-2.83,7.93,7.93,0,0,1,6,2.61Zm-7.56,6.75a4.7,4.7,0,0,0-1.44,3.28,4.63,4.63,0,0,0,1.4,3.29,5,5,0,0,0,3.24,1.35,4.58,4.58,0,0,0,3.24-1.4,4.37,4.37,0,0,0,1.35-3.24,4.43,4.43,0,0,0-1.4-3.28,4.58,4.58,0,0,0-6.39,0Z"/><path d="M1164.31,667.56l-9.72-17.37H1163l5.35,10.31,5.22-10.31h8.24l-16.16,30.42h-8Z"/><path d="M1191.44,637.5v32.8h-7.2V637.5Z"/><path d="M1216.6,667.65a13.77,13.77,0,0,1-18,0,10.06,10.06,0,0,1-3.1-7.43,10,10,0,0,1,3.1-7.37,12.57,12.57,0,0,1,9-3.33,12.7,12.7,0,0,1,9,3.33,10,10,0,0,1,3.1,7.37A10.06,10.06,0,0,1,1216.6,667.65Zm-12.2-10.71a4.57,4.57,0,1,0,6.44,6.48,4.42,4.42,0,0,0,1.39-3.2,4.59,4.59,0,0,0-4.59-4.58A5,5,0,0,0,1204.4,656.94Z"/><path d="M1239.41,650.19h7.2V670.3h-7.2v-2.2a7.51,7.51,0,0,1-6.25,2.88,9.65,9.65,0,0,1-7.25-3.19,10.19,10.19,0,0,1-2.88-7.38,11.14,11.14,0,0,1,3.11-8.06,10.34,10.34,0,0,1,7.24-2.83,7.93,7.93,0,0,1,6,2.61Zm-7.56,6.75a4.7,4.7,0,0,0-1.44,3.28,4.63,4.63,0,0,0,1.4,3.29,5,5,0,0,0,3.24,1.35,4.58,4.58,0,0,0,3.24-1.4,4.37,4.37,0,0,0,1.35-3.24,4.43,4.43,0,0,0-1.4-3.28,4.58,4.58,0,0,0-6.39,0Z"/><path d="M1274.33,670.3h-7.2v-2.2a7.37,7.37,0,0,1-6.07,2.88,9.62,9.62,0,0,1-7.07-2.79,11.11,11.11,0,0,1-3.24-8,10.92,10.92,0,0,1,3.29-8,10.28,10.28,0,0,1,7.11-2.7,7.93,7.93,0,0,1,6,2.61V637.5h7.2Zm-8.5-6.66a4.83,4.83,0,0,0,1.53-3.42A5.24,5.24,0,0,0,1266,657a4.62,4.62,0,0,0-6.48,0,4.94,4.94,0,0,0-1.4,3.42,4.51,4.51,0,0,0,1.4,3.15,4.46,4.46,0,0,0,3.19,1.35A4.92,4.92,0,0,0,1265.83,663.64Z"/><path d="M1111.39,912.36v9.94h-7.79v-30H1116a10.38,10.38,0,0,1,7.61,2.7,9.3,9.3,0,0,1,2.79,7.29c0,2.39-.32,5.18-2.66,7.47a10,10,0,0,1-7.47,2.61Zm0-6.3H1114a5.08,5.08,0,0,0,3.28-.94,3.43,3.43,0,0,0,1-2.75,3.64,3.64,0,0,0-.9-2.7,4.6,4.6,0,0,0-3.33-1.08h-2.65Z"/><path d="M1144.91,902.19h7.2V922.3h-7.2v-2.2a7.51,7.51,0,0,1-6.25,2.88,9.65,9.65,0,0,1-7.25-3.19,10.19,10.19,0,0,1-2.88-7.38,11.14,11.14,0,0,1,3.11-8.06,10.34,10.34,0,0,1,7.24-2.83,7.93,7.93,0,0,1,6,2.61Zm-7.56,6.75a4.7,4.7,0,0,0-1.44,3.28,4.63,4.63,0,0,0,1.4,3.29,5,5,0,0,0,3.24,1.35,4.58,4.58,0,0,0,3.24-1.4,4.37,4.37,0,0,0,1.35-3.24,4.43,4.43,0,0,0-1.4-3.28,4.58,4.58,0,0,0-6.39,0Z"/><path d="M1164.31,919.56l-9.72-17.37H1163l5.35,10.31,5.22-10.31h8.24l-16.16,30.42h-8Z"/><path d="M1191.44,889.5v32.8h-7.2V889.5Z"/><path d="M1216.6,919.65a13.77,13.77,0,0,1-18,0,10.06,10.06,0,0,1-3.1-7.43,10,10,0,0,1,3.1-7.37,12.57,12.57,0,0,1,9-3.33,12.7,12.7,0,0,1,9,3.33,10,10,0,0,1,3.1,7.37A10.06,10.06,0,0,1,1216.6,919.65Zm-12.2-10.71a4.57,4.57,0,1,0,6.44,6.48,4.42,4.42,0,0,0,1.39-3.2,4.59,4.59,0,0,0-4.59-4.58A5,5,0,0,0,1204.4,908.94Z"/><path d="M1239.41,902.19h7.2V922.3h-7.2v-2.2a7.51,7.51,0,0,1-6.25,2.88,9.65,9.65,0,0,1-7.25-3.19,10.19,10.19,0,0,1-2.88-7.38,11.14,11.14,0,0,1,3.11-8.06,10.34,10.34,0,0,1,7.24-2.83,7.93,7.93,0,0,1,6,2.61Zm-7.56,6.75a4.7,4.7,0,0,0-1.44,3.28,4.63,4.63,0,0,0,1.4,3.29,5,5,0,0,0,3.24,1.35,4.58,4.58,0,0,0,3.24-1.4,4.37,4.37,0,0,0,1.35-3.24,4.43,4.43,0,0,0-1.4-3.28,4.58,4.58,0,0,0-6.39,0Z"/><path d="M1274.33,922.3h-7.2v-2.2a7.37,7.37,0,0,1-6.07,2.88,9.62,9.62,0,0,1-7.07-2.79,11.11,11.11,0,0,1-3.24-8,10.92,10.92,0,0,1,3.29-8,10.28,10.28,0,0,1,7.11-2.7,7.93,7.93,0,0,1,6,2.61V889.5h7.2Zm-8.5-6.66a4.83,4.83,0,0,0,1.53-3.42A5.24,5.24,0,0,0,1266,909a4.62,4.62,0,0,0-6.48,0,4.94,4.94,0,0,0-1.4,3.42,4.51,4.51,0,0,0,1.4,3.15,4.46,4.46,0,0,0,3.19,1.35A4.92,4.92,0,0,0,1265.83,915.64Z"/><path d="M1111.39,1177.36v9.94h-7.79v-30H1116a10.38,10.38,0,0,1,7.61,2.7,9.3,9.3,0,0,1,2.79,7.29c0,2.39-.32,5.18-2.66,7.47a10,10,0,0,1-7.47,2.61Zm0-6.3H1114a5.08,5.08,0,0,0,3.28-.94,3.43,3.43,0,0,0,1-2.75,3.64,3.64,0,0,0-.9-2.7,4.6,4.6,0,0,0-3.33-1.08h-2.65Z"/><path d="M1144.91,1167.19h7.2v20.11h-7.2v-2.2a7.51,7.51,0,0,1-6.25,2.88,9.65,9.65,0,0,1-7.25-3.19,10.19,10.19,0,0,1-2.88-7.38,11.14,11.14,0,0,1,3.11-8.06,10.34,10.34,0,0,1,7.24-2.83,7.93,7.93,0,0,1,6,2.61Zm-7.56,6.75a4.7,4.7,0,0,0-1.44,3.28,4.63,4.63,0,0,0,1.4,3.29,5,5,0,0,0,3.24,1.35,4.58,4.58,0,0,0,3.24-1.4,4.37,4.37,0,0,0,1.35-3.24,4.43,4.43,0,0,0-1.4-3.28,4.58,4.58,0,0,0-6.39,0Z"/><path d="M1164.31,1184.56l-9.72-17.37H1163l5.35,10.31,5.22-10.31h8.24l-16.16,30.42h-8Z"/><path d="M1191.44,1154.5v32.8h-7.2v-32.8Z"/><path d="M1216.6,1184.65a13.77,13.77,0,0,1-18,0,10.06,10.06,0,0,1-3.1-7.43,10,10,0,0,1,3.1-7.37,12.57,12.57,0,0,1,9-3.33,12.7,12.7,0,0,1,9,3.33,10,10,0,0,1,3.1,7.37A10.06,10.06,0,0,1,1216.6,1184.65Zm-12.2-10.71a4.57,4.57,0,1,0,6.44,6.48,4.42,4.42,0,0,0,1.39-3.2,4.59,4.59,0,0,0-4.59-4.58A5,5,0,0,0,1204.4,1173.94Z"/><path d="M1239.41,1167.19h7.2v20.11h-7.2v-2.2a7.51,7.51,0,0,1-6.25,2.88,9.65,9.65,0,0,1-7.25-3.19,10.19,10.19,0,0,1-2.88-7.38,11.14,11.14,0,0,1,3.11-8.06,10.34,10.34,0,0,1,7.24-2.83,7.93,7.93,0,0,1,6,2.61Zm-7.56,6.75a4.7,4.7,0,0,0-1.44,3.28,4.63,4.63,0,0,0,1.4,3.29,5,5,0,0,0,3.24,1.35,4.58,4.58,0,0,0,3.24-1.4,4.37,4.37,0,0,0,1.35-3.24,4.43,4.43,0,0,0-1.4-3.28,4.58,4.58,0,0,0-6.39,0Z"/><path d="M1274.33,1187.3h-7.2v-2.2a7.37,7.37,0,0,1-6.07,2.88,9.62,9.62,0,0,1-7.07-2.79,11.11,11.11,0,0,1-3.24-8,10.92,10.92,0,0,1,3.29-8,10.28,10.28,0,0,1,7.11-2.7,7.93,7.93,0,0,1,6,2.61V1154.5h7.2Zm-8.5-6.66a4.83,4.83,0,0,0,1.53-3.42A5.24,5.24,0,0,0,1266,1174a4.62,4.62,0,0,0-6.48,0,4.94,4.94,0,0,0-1.4,3.42,4.51,4.51,0,0,0,1.4,3.15,4.46,4.46,0,0,0,3.19,1.35A4.92,4.92,0,0,0,1265.83,1180.64Z"/></svg>