<svg id="Layer_1" data-name="Layer 1" xmlns="http://www.w3.org/2000/svg" viewBox="0 0 1062 768"><title>Cap 5 -</title><rect x="253.97" y="535.8" width="181.28" height="57.45" rx="12" ry="12" transform="translate(689.22 1129.05) rotate(180)" style="fill:none;stroke:#4fc2c9;stroke-miterlimit:10;stroke-width:5.52520743241889px"/><line x1="423.86" y1="582.31" x2="423.86" y2="546.74" style="fill:none;stroke:#4fc2c9;stroke-miterlimit:10;stroke-width:5.52520743241889px"/><rect x="56.97" y="535.8" width="181.28" height="57.45" rx="12" ry="12" style="fill:none;stroke:#4fc2c9;stroke-miterlimit:10;stroke-width:5.52520743241889px"/><line x1="68.35" y1="546.74" x2="68.35" y2="582.31" style="fill:none;stroke:#4fc2c9;stroke-miterlimit:10;stroke-width:5.52520743241889px"/><path d="M40,430.29a7.12,7.12,0,0,1-3.33.75,7.41,7.41,0,0,1-5.28-2,7,7,0,0,1-2.07-5,7.3,7.3,0,0,1,2.16-5.19,7.73,7.73,0,0,1,5.4-2,6.88,6.88,0,0,1,3.12.75v4a4.28,4.28,0,0,0-2.49-.87,3.15,3.15,0,0,0-2.34.93,3.26,3.26,0,0,0-.93,2.31,3.44,3.44,0,0,0,.84,2.25,3.26,3.26,0,0,0,2.46,1,3.63,3.63,0,0,0,2.46-.9Z"/><path d="M57,424.77H47a3.39,3.39,0,0,0,.84,2.25,2.7,2.7,0,0,0,2,.66,3.79,3.79,0,0,0,1.56-.36,2.23,2.23,0,0,0,.84-.9h4.59a6,6,0,0,1-1.62,2.76c-1,1-2.55,1.86-5.46,1.86a7.61,7.61,0,0,1-5.55-2,7,7,0,0,1-2-5.07,7.16,7.16,0,0,1,2-5.19,7.55,7.55,0,0,1,5.49-1.95,7.35,7.35,0,0,1,5.16,1.83A7.51,7.51,0,0,1,57,424.26ZM52.58,422a3.22,3.22,0,0,0-.78-1.44,2.8,2.8,0,0,0-2-.72,2.58,2.58,0,0,0-2,.72,2.74,2.74,0,0,0-.72,1.44Z"/><path d="M59.75,417.18h4.8v2.19a4.33,4.33,0,0,1,1.89-1.86,5.24,5.24,0,0,1,2.49-.54l1,.06v4.53a4.23,4.23,0,0,0-2.07-.48,3.14,3.14,0,0,0-2.19.72,4,4,0,0,0-1.08,3.06v5.73h-4.8Z"/><path d="M86.24,424.77h-10a3.39,3.39,0,0,0,.84,2.25,2.7,2.7,0,0,0,2,.66,3.79,3.79,0,0,0,1.56-.36,2.23,2.23,0,0,0,.84-.9h4.59a6,6,0,0,1-1.62,2.76c-1,1-2.55,1.86-5.46,1.86a7.61,7.61,0,0,1-5.55-2,7,7,0,0,1-2-5.07,7.16,7.16,0,0,1,2-5.19A7.55,7.55,0,0,1,79,416.79a7.35,7.35,0,0,1,5.16,1.83,7.51,7.51,0,0,1,2.13,5.64ZM81.83,422a3.22,3.22,0,0,0-.78-1.44,2.8,2.8,0,0,0-2-.72,2.58,2.58,0,0,0-1.95.72A2.74,2.74,0,0,0,76.4,422Z"/><path d="M89,417.18h4.8v2.19a4.33,4.33,0,0,1,1.89-1.86,5.24,5.24,0,0,1,2.49-.54l1,.06v4.53a4.23,4.23,0,0,0-2.07-.48,3.14,3.14,0,0,0-2.19.72,4,4,0,0,0-1.08,3.06v5.73H89Z"/><path d="M115.49,424.77h-10a3.39,3.39,0,0,0,.84,2.25,2.7,2.7,0,0,0,2,.66,3.79,3.79,0,0,0,1.56-.36,2.23,2.23,0,0,0,.84-.9h4.59a6,6,0,0,1-1.62,2.76c-1,1-2.55,1.86-5.46,1.86a7.61,7.61,0,0,1-5.55-2,7,7,0,0,1-2-5.07,7.16,7.16,0,0,1,2-5.19,7.55,7.55,0,0,1,5.49-1.95,7.35,7.35,0,0,1,5.16,1.83,7.51,7.51,0,0,1,2.13,5.64ZM111.08,422a3.22,3.22,0,0,0-.78-1.44,2.8,2.8,0,0,0-2-.72,2.58,2.58,0,0,0-1.95.72,2.74,2.74,0,0,0-.72,1.44Z"/><polygon points="394.25 342.3 394.6 451.65 410.37 451.6 376.98 485.2 343.38 451.81 359.14 451.76 358.79 342.42 394.25 342.3" style="fill:none;stroke:#3a5c84;stroke-miterlimit:10;stroke-width:7px"/><polygon points="130.25 485.2 129.9 375.85 114.13 375.9 147.52 342.3 181.12 375.69 165.36 375.74 165.71 485.08 130.25 485.2" style="fill:none;stroke:#3a5c84;stroke-miterlimit:10;stroke-width:7px"/><rect x="28.75" y="506.75" width="440" height="162" rx="12" ry="12" style="fill:none;stroke:#91c54f;stroke-miterlimit:10;stroke-width:7px"/><rect x="42.25" y="15.75" width="440" height="304.5" rx="12" ry="12" style="fill:none;stroke:#4fc2c9;stroke-miterlimit:10;stroke-width:7.57503647819426px"/><path d="M190.18,630.11V642a4,4,0,0,0,1,3.09,3.69,3.69,0,0,0,4.86.09,4.38,4.38,0,0,0,1.17-3.63v-11.4h5.19V641.6c0,2.1-.09,4.29-2.25,6.48a8.64,8.64,0,0,1-6.6,2.49,8.93,8.93,0,0,1-6.63-2.4c-1.74-1.89-1.95-4.44-1.95-6.57V630.11Z"/><path d="M211.48,640.64v9.48h-4.8v-9.48h-1.53v-3.93h1.53V632.3h4.8v4.41h2.73v3.93Z"/><path d="M218.41,628.43a2.7,2.7,0,1,1-2.7,2.7A2.69,2.69,0,0,1,218.41,628.43Zm2.4,8.28v13.41H216V636.71Z"/><path d="M228.88,628.25v21.87h-4.8V628.25Z"/><path d="M234.55,628.43a2.7,2.7,0,1,1-2.7,2.7A2.68,2.68,0,0,1,234.55,628.43Zm2.4,8.28v13.41h-4.8V636.71Z"/><path d="M247.2,646.19h5.61v3.93H239.17l6.32-9.48h-5.4v-3.93h13.38Z"/><path d="M266.1,636.71h4.8v13.41h-4.8v-1.47a5,5,0,0,1-4.17,1.92,6.42,6.42,0,0,1-4.83-2.13,6.76,6.76,0,0,1-1.92-4.92,7.46,7.46,0,0,1,2.07-5.37,6.9,6.9,0,0,1,4.83-1.89,5.31,5.31,0,0,1,4,1.74Zm-5,4.5a3.14,3.14,0,0,0-1,2.19,3.09,3.09,0,0,0,.93,2.19,3.37,3.37,0,0,0,2.16.9,3.08,3.08,0,0,0,2.16-.93,2.91,2.91,0,0,0,.9-2.16,3,3,0,0,0-.93-2.19,3,3,0,0,0-4.26,0Z"/><path d="M279.51,640.64v9.48h-4.79v-9.48h-1.54v-3.93h1.54V632.3h4.79v4.41h2.73v3.93Z"/><path d="M297.54,648.35a9.18,9.18,0,0,1-12,0,6.92,6.92,0,0,1,0-9.87,8.37,8.37,0,0,1,6-2.22,8.47,8.47,0,0,1,6,2.22,6.92,6.92,0,0,1,0,9.87Zm-8.13-7.14a3.06,3.06,0,0,0,2.16,5.22,3.05,3.05,0,0,0,2.13-.9,3,3,0,0,0,.93-2.13,3.26,3.26,0,0,0-.93-2.19,3.08,3.08,0,0,0-4.29,0Z"/><path d="M302.37,636.71h4.8v2.19a4.33,4.33,0,0,1,1.89-1.86,5.24,5.24,0,0,1,2.49-.54l1,.06v4.53a4.23,4.23,0,0,0-2.07-.48,3.14,3.14,0,0,0-2.19.72,4,4,0,0,0-1.08,3.06v5.73h-4.8Z"/><path d="M171.74,56.12v-20h7.74a5.61,5.61,0,0,1,4.38,1.56,5.41,5.41,0,0,1,1.23,3.75,5.19,5.19,0,0,1-.57,2.46,3.15,3.15,0,0,1-1.62,1.56,5,5,0,0,1,2.73,1.2A5,5,0,0,1,187,50.3a5.43,5.43,0,0,1-1.47,3.93,7.52,7.52,0,0,1-5.43,1.89ZM176.93,44h1a2.74,2.74,0,0,0,2-.63,1.94,1.94,0,0,0,.48-1.32,2.06,2.06,0,0,0-.48-1.35,2.75,2.75,0,0,0-2-.6h-1Zm0,8.07h1.17c1.44,0,2.64-.15,3.21-.81a2,2,0,0,0,.42-1.29,2,2,0,0,0-.51-1.44c-.63-.63-1.92-.66-3.21-.66h-1.08Z"/><path d="M200.21,42.71H205V56.12h-4.8V54.65A5,5,0,0,1,196,56.57a6.42,6.42,0,0,1-4.83-2.13,6.76,6.76,0,0,1-1.92-4.92,7.42,7.42,0,0,1,2.07-5.37,6.9,6.9,0,0,1,4.83-1.89,5.31,5.31,0,0,1,4,1.74Zm-5,4.5a3.14,3.14,0,0,0-1,2.19,3.09,3.09,0,0,0,.93,2.19,3.37,3.37,0,0,0,2.16.9,3.08,3.08,0,0,0,2.16-.93,2.91,2.91,0,0,0,.9-2.16,3,3,0,0,0-.93-2.19,3,3,0,0,0-4.26,0Z"/><path d="M215.3,52.19h5.61v3.93H207.26l6.33-9.48h-5.4V42.71h13.38Z"/><path d="M234.2,42.71H239V56.12h-4.8V54.65A5,5,0,0,1,230,56.57a6.42,6.42,0,0,1-4.83-2.13,6.76,6.76,0,0,1-1.92-4.92,7.42,7.42,0,0,1,2.07-5.37,6.9,6.9,0,0,1,4.83-1.89,5.31,5.31,0,0,1,4,1.74Zm2.64-6.9a4.73,4.73,0,0,1-1.32,3.27,6.31,6.31,0,0,1-7.8,0,4.73,4.73,0,0,1-1.32-3.27h3.09a2.08,2.08,0,0,0,.6,1.23,2.44,2.44,0,0,0,3.06,0,2.08,2.08,0,0,0,.6-1.23Zm-7.68,11.4a3.14,3.14,0,0,0-1,2.19,3.09,3.09,0,0,0,.93,2.19,3.37,3.37,0,0,0,2.16.9,3.08,3.08,0,0,0,2.16-.93,2.91,2.91,0,0,0,.9-2.16,3,3,0,0,0-.93-2.19,3,3,0,0,0-4.26,0Z"/><path d="M264.47,56.12h-4.8V54.65a4.92,4.92,0,0,1-4.05,1.92,6.42,6.42,0,0,1-4.71-1.86,7.4,7.4,0,0,1-2.16-5.34,7.31,7.31,0,0,1,2.19-5.31,6.86,6.86,0,0,1,4.74-1.8,5.31,5.31,0,0,1,4,1.74V34.25h4.8Zm-5.67-4.44a3.22,3.22,0,0,0,1-2.28,3.51,3.51,0,0,0-.9-2.16,3.08,3.08,0,0,0-4.32,0,3.29,3.29,0,0,0-.93,2.28,3,3,0,0,0,.93,2.1,3,3,0,0,0,2.13.9A3.28,3.28,0,0,0,258.8,51.68Z"/><path d="M282,50.3H272a3.39,3.39,0,0,0,.84,2.25,2.7,2.7,0,0,0,2,.66,3.79,3.79,0,0,0,1.56-.36,2.23,2.23,0,0,0,.84-.9h4.59a6,6,0,0,1-1.62,2.76c-1,1-2.55,1.86-5.46,1.86a7.61,7.61,0,0,1-5.55-2,7,7,0,0,1-2-5.07,7.16,7.16,0,0,1,2-5.19,7.55,7.55,0,0,1,5.49-2,7.35,7.35,0,0,1,5.16,1.83A7.51,7.51,0,0,1,282,49.79Zm-4.41-2.76a3.22,3.22,0,0,0-.78-1.44,2.8,2.8,0,0,0-2-.72,2.58,2.58,0,0,0-1.95.72,2.74,2.74,0,0,0-.72,1.44Z"/><path d="M306.92,56.12h-4.8V54.65a4.92,4.92,0,0,1-4.05,1.92,6.42,6.42,0,0,1-4.71-1.86,7.4,7.4,0,0,1-2.16-5.34,7.31,7.31,0,0,1,2.19-5.31,6.86,6.86,0,0,1,4.74-1.8,5.31,5.31,0,0,1,4,1.74V34.25h4.8Zm-5.67-4.44a3.22,3.22,0,0,0,1-2.28,3.51,3.51,0,0,0-.9-2.16,3.08,3.08,0,0,0-4.32,0,3.29,3.29,0,0,0-.93,2.28,3,3,0,0,0,.93,2.1,3,3,0,0,0,2.13.9A3.28,3.28,0,0,0,301.25,51.68Z"/><path d="M320.6,42.71h4.8V56.12h-4.8V54.65a5,5,0,0,1-4.17,1.92,6.42,6.42,0,0,1-4.83-2.13,6.76,6.76,0,0,1-1.92-4.92,7.42,7.42,0,0,1,2.07-5.37,6.9,6.9,0,0,1,4.83-1.89,5.31,5.31,0,0,1,4,1.74Zm-5,4.5a3.14,3.14,0,0,0-1,2.19,3.09,3.09,0,0,0,.93,2.19,3.37,3.37,0,0,0,2.16.9,3.08,3.08,0,0,0,2.16-.93,2.91,2.91,0,0,0,.9-2.16,3,3,0,0,0-.93-2.19,3,3,0,0,0-4.26,0Z"/><path d="M334,46.64v9.48h-4.8V46.64h-1.53V42.71h1.53V38.3H334v4.41h2.73v3.93Z"/><path d="M352.76,50.3h-10a3.39,3.39,0,0,0,.84,2.25,2.7,2.7,0,0,0,2,.66,3.79,3.79,0,0,0,1.56-.36A2.23,2.23,0,0,0,348,52h4.59A6,6,0,0,1,351,54.71c-1,1-2.55,1.86-5.46,1.86a7.61,7.61,0,0,1-5.55-2,7,7,0,0,1-2-5.07,7.16,7.16,0,0,1,2-5.19,7.55,7.55,0,0,1,5.49-2,7.35,7.35,0,0,1,5.16,1.83,7.51,7.51,0,0,1,2.13,5.64Zm-4.41-2.76a3.22,3.22,0,0,0-.78-1.44,2.8,2.8,0,0,0-2-.72,2.58,2.58,0,0,0-1.95.72,2.74,2.74,0,0,0-.72,1.44Z"/><path d="M305.35,568.61v6.63h-5.19v-20h8.28a6.89,6.89,0,0,1,5.07,1.8,6.2,6.2,0,0,1,1.86,4.86,6.5,6.5,0,0,1-1.77,5,6.66,6.66,0,0,1-5,1.74Zm0-4.2h1.74a3.39,3.39,0,0,0,2.19-.63,2.29,2.29,0,0,0,.66-1.83,2.43,2.43,0,0,0-.6-1.8,3,3,0,0,0-2.22-.72h-1.77Z"/><path d="M327.7,561.83h4.8v13.41h-4.8v-1.47a5,5,0,0,1-4.17,1.92,6.42,6.42,0,0,1-4.83-2.13,6.76,6.76,0,0,1-1.92-4.92,7.42,7.42,0,0,1,2.07-5.37,6.9,6.9,0,0,1,4.83-1.89,5.31,5.31,0,0,1,4,1.74Zm-5,4.5a3.14,3.14,0,0,0-1,2.19,3.09,3.09,0,0,0,.93,2.19,3.37,3.37,0,0,0,2.16.9,3.08,3.08,0,0,0,2.16-.93,2.91,2.91,0,0,0,.9-2.16,3,3,0,0,0-.93-2.19,3,3,0,0,0-4.26,0Z"/><path d="M335.8,561.83h4.8V564a4.33,4.33,0,0,1,1.89-1.86,5.24,5.24,0,0,1,2.49-.54l1,.06v4.53a4.23,4.23,0,0,0-2.07-.48,3.14,3.14,0,0,0-2.19.72,4,4,0,0,0-1.08,3.06v5.73h-4.8Z"/><path d="M361,573.47a9.18,9.18,0,0,1-12,0,6.92,6.92,0,0,1,0-9.87,8.37,8.37,0,0,1,6-2.22,8.47,8.47,0,0,1,6,2.22,6.92,6.92,0,0,1,0,9.87Zm-8.13-7.14a3.06,3.06,0,0,0,2.16,5.22,3.05,3.05,0,0,0,2.13-.9,3,3,0,0,0,.93-2.13,3.26,3.26,0,0,0-.93-2.19,3.08,3.08,0,0,0-4.29,0Z"/><path d="M370.6,553.37v21.87h-4.8V553.37Z"/><path d="M384.25,561.83h4.8v13.41h-4.8v-1.47a5,5,0,0,1-4.17,1.92,6.42,6.42,0,0,1-4.83-2.13,6.76,6.76,0,0,1-1.92-4.92,7.42,7.42,0,0,1,2.07-5.37,6.9,6.9,0,0,1,4.83-1.89,5.31,5.31,0,0,1,4,1.74Zm2.64-6.9a4.73,4.73,0,0,1-1.32,3.27,6.31,6.31,0,0,1-7.8,0,4.73,4.73,0,0,1-1.32-3.27h3.09a2.08,2.08,0,0,0,.6,1.23,2.44,2.44,0,0,0,3.06,0,2.08,2.08,0,0,0,.6-1.23Zm-7.68,11.4a3.14,3.14,0,0,0-1,2.19,3.09,3.09,0,0,0,.93,2.19,3.37,3.37,0,0,0,2.16.9,3.08,3.08,0,0,0,2.16-.93,2.91,2.91,0,0,0,.9-2.16,3,3,0,0,0-.93-2.19,3,3,0,0,0-4.26,0Z"/><path d="M96,555.23v11.85a4,4,0,0,0,1,3.09,3.69,3.69,0,0,0,4.86.09,4.38,4.38,0,0,0,1.17-3.63v-11.4h5.19v11.49c0,2.1-.09,4.29-2.25,6.48a8.64,8.64,0,0,1-6.6,2.49,8.93,8.93,0,0,1-6.63-2.4c-1.74-1.89-2-4.44-2-6.57V555.23Z"/><path d="M117.33,565.76v9.48h-4.8v-9.48H111v-3.93h1.53v-4.41h4.8v4.41h2.73v3.93Z"/><path d="M124.26,553.55a2.7,2.7,0,1,1-2.7,2.7A2.69,2.69,0,0,1,124.26,553.55Zm2.4,8.28v13.41h-4.8V561.83Z"/><path d="M134.73,553.37v21.87h-4.8V553.37Z"/><path d="M140.4,553.55a2.7,2.7,0,1,1-2.7,2.7A2.69,2.69,0,0,1,140.4,553.55Zm2.4,8.28v13.41H138V561.83Z"/><path d="M153.06,571.31h5.61v3.93H145l6.33-9.48H146v-3.93h13.38Z"/><path d="M172,561.83h4.8v13.41H172v-1.47a5,5,0,0,1-4.17,1.92,6.42,6.42,0,0,1-4.83-2.13,6.76,6.76,0,0,1-1.92-4.92,7.42,7.42,0,0,1,2.07-5.37,6.9,6.9,0,0,1,4.83-1.89,5.31,5.31,0,0,1,4,1.74Zm-5,4.5a3.14,3.14,0,0,0-1,2.19,3.09,3.09,0,0,0,.93,2.19,3.37,3.37,0,0,0,2.16.9,3.08,3.08,0,0,0,2.16-.93,2.91,2.91,0,0,0,.9-2.16,3,3,0,0,0-.93-2.19,3,3,0,0,0-4.26,0Z"/><path d="M185.37,565.76v9.48h-4.8v-9.48H179v-3.93h1.53v-4.41h4.8v4.41h2.73v3.93Z"/><path d="M203.4,573.47a9.18,9.18,0,0,1-12,0,6.92,6.92,0,0,1,0-9.87,8.37,8.37,0,0,1,6-2.22,8.47,8.47,0,0,1,6,2.22,6.92,6.92,0,0,1,0,9.87Zm-8.13-7.14a3.06,3.06,0,0,0,2.16,5.22,3.05,3.05,0,0,0,2.13-.9,3,3,0,0,0,.93-2.13,3.26,3.26,0,0,0-.93-2.19,3.08,3.08,0,0,0-4.29,0Z"/><path d="M208.23,561.83H213V564a4.33,4.33,0,0,1,1.89-1.86,5.24,5.24,0,0,1,2.49-.54l1,.06v4.53a4.23,4.23,0,0,0-2.07-.48,3.14,3.14,0,0,0-2.19.72,4,4,0,0,0-1.08,3.06v5.73h-4.8Z"/><rect x="220.25" y="711.25" width="41" height="41" rx="12" ry="12" style="fill:none;stroke:#636868;stroke-miterlimit:10;stroke-width:3px"/><rect x="138.55" y="221.25" width="237" height="69" rx="12" ry="12" style="fill:none;stroke:#f7931f;stroke-miterlimit:10;stroke-width:7px"/><circle cx="179.05" cy="255.75" r="16" style="fill:none;stroke:#f7931f;stroke-miterlimit:10;stroke-width:7px"/><circle cx="289.55" cy="256.25" r="5" style="fill:#f7931f"/><circle cx="306.55" cy="256.25" r="5" style="fill:#f7931f"/><circle cx="324.55" cy="256.25" r="5" style="fill:#f7931f"/><circle cx="342.55" cy="256.25" r="5" style="fill:#f7931f"/><line x1="90.84" y1="146.04" x2="120.66" y2="146.04" style="fill:none;stroke:#3a5c84;stroke-miterlimit:10;stroke-width:4.02260291576386px"/><line x1="90.84" y1="138.33" x2="120.66" y2="138.33" style="fill:none;stroke:#3a5c84;stroke-miterlimit:10;stroke-width:4.02260291576386px"/><line x1="90.84" y1="130.61" x2="120.66" y2="130.61" style="fill:none;stroke:#3a5c84;stroke-miterlimit:10;stroke-width:4.02260291576386px"/><line x1="90.84" y1="122.9" x2="120.66" y2="122.9" style="fill:none;stroke:#3a5c84;stroke-miterlimit:10;stroke-width:4.02260291576386px"/><line x1="90.84" y1="115.18" x2="103.15" y2="115.18" style="fill:none;stroke:#3a5c84;stroke-miterlimit:10;stroke-width:4.02260291576386px"/><path d="M119.1,112.41a4.17,4.17,0,0,1-4.16-4.16v-7.8H89.11A4.17,4.17,0,0,0,85,104.61v43.68a4.17,4.17,0,0,0,4.16,4.16h33.28a4.17,4.17,0,0,0,4.16-4.16V112.41Z" style="fill:none;stroke:#3a5c84;stroke-miterlimit:10;stroke-width:4.02260291576386px"/><line x1="169.09" y1="146.04" x2="198.91" y2="146.04" style="fill:none;stroke:#3a5c84;stroke-miterlimit:10;stroke-width:4.02260291576386px"/><line x1="169.09" y1="138.33" x2="198.91" y2="138.33" style="fill:none;stroke:#3a5c84;stroke-miterlimit:10;stroke-width:4.02260291576386px"/><line x1="169.09" y1="130.61" x2="198.91" y2="130.61" style="fill:none;stroke:#3a5c84;stroke-miterlimit:10;stroke-width:4.02260291576386px"/><line x1="169.09" y1="122.9" x2="198.91" y2="122.9" style="fill:none;stroke:#3a5c84;stroke-miterlimit:10;stroke-width:4.02260291576386px"/><line x1="169.09" y1="115.18" x2="181.4" y2="115.18" style="fill:none;stroke:#3a5c84;stroke-miterlimit:10;stroke-width:4.02260291576386px"/><path d="M197.35,112.41a4.17,4.17,0,0,1-4.16-4.16v-7.8H167.36a4.17,4.17,0,0,0-4.16,4.16v43.68a4.17,4.17,0,0,0,4.16,4.16h33.28a4.17,4.17,0,0,0,4.16-4.16V112.41Z" style="fill:none;stroke:#3a5c84;stroke-miterlimit:10;stroke-width:4.02260291576386px"/><line x1="247.34" y1="146.04" x2="277.16" y2="146.04" style="fill:none;stroke:#3a5c84;stroke-miterlimit:10;stroke-width:4.02260291576386px"/><line x1="247.34" y1="138.33" x2="277.16" y2="138.33" style="fill:none;stroke:#3a5c84;stroke-miterlimit:10;stroke-width:4.02260291576386px"/><line x1="247.34" y1="130.61" x2="277.16" y2="130.61" style="fill:none;stroke:#3a5c84;stroke-miterlimit:10;stroke-width:4.02260291576386px"/><line x1="247.34" y1="122.9" x2="277.16" y2="122.9" style="fill:none;stroke:#3a5c84;stroke-miterlimit:10;stroke-width:4.02260291576386px"/><line x1="247.34" y1="115.18" x2="259.65" y2="115.18" style="fill:none;stroke:#3a5c84;stroke-miterlimit:10;stroke-width:4.02260291576386px"/><path d="M275.6,112.41a4.17,4.17,0,0,1-4.16-4.16v-7.8H245.61a4.17,4.17,0,0,0-4.16,4.16v43.68a4.17,4.17,0,0,0,4.16,4.16h33.28a4.17,4.17,0,0,0,4.16-4.16V112.41Z" style="fill:none;stroke:#3a5c84;stroke-miterlimit:10;stroke-width:4.02260291576386px"/><line x1="325.59" y1="146.04" x2="355.41" y2="146.04" style="fill:none;stroke:#3a5c84;stroke-miterlimit:10;stroke-width:4.02260291576386px"/><line x1="325.59" y1="138.33" x2="355.41" y2="138.33" style="fill:none;stroke:#3a5c84;stroke-miterlimit:10;stroke-width:4.02260291576386px"/><line x1="325.59" y1="130.61" x2="355.41" y2="130.61" style="fill:none;stroke:#3a5c84;stroke-miterlimit:10;stroke-width:4.02260291576386px"/><line x1="325.59" y1="122.9" x2="355.41" y2="122.9" style="fill:none;stroke:#3a5c84;stroke-miterlimit:10;stroke-width:4.02260291576386px"/><line x1="325.59" y1="115.18" x2="337.9" y2="115.18" style="fill:none;stroke:#3a5c84;stroke-miterlimit:10;stroke-width:4.02260291576386px"/><path d="M353.85,112.41a4.17,4.17,0,0,1-4.16-4.16v-7.8H323.86a4.17,4.17,0,0,0-4.16,4.16v43.68a4.17,4.17,0,0,0,4.16,4.16h33.28a4.17,4.17,0,0,0,4.16-4.16V112.41Z" style="fill:none;stroke:#3a5c84;stroke-miterlimit:10;stroke-width:4.02260291576386px"/><line x1="403.84" y1="146.04" x2="433.66" y2="146.04" style="fill:none;stroke:#3a5c84;stroke-miterlimit:10;stroke-width:4.02260291576386px"/><line x1="403.84" y1="138.33" x2="433.66" y2="138.33" style="fill:none;stroke:#3a5c84;stroke-miterlimit:10;stroke-width:4.02260291576386px"/><line x1="403.84" y1="130.61" x2="433.66" y2="130.61" style="fill:none;stroke:#3a5c84;stroke-miterlimit:10;stroke-width:4.02260291576386px"/><line x1="403.84" y1="122.9" x2="433.66" y2="122.9" style="fill:none;stroke:#3a5c84;stroke-miterlimit:10;stroke-width:4.02260291576386px"/><line x1="403.84" y1="115.18" x2="416.15" y2="115.18" style="fill:none;stroke:#3a5c84;stroke-miterlimit:10;stroke-width:4.02260291576386px"/><path d="M432.1,112.41a4.17,4.17,0,0,1-4.16-4.16v-7.8H402.11a4.17,4.17,0,0,0-4.16,4.16v43.68a4.17,4.17,0,0,0,4.16,4.16h33.28a4.17,4.17,0,0,0,4.16-4.16V112.41Z" style="fill:none;stroke:#3a5c84;stroke-miterlimit:10;stroke-width:4.02260291576386px"/><line x1="259.55" y1="218.25" x2="259.55" y2="192.25" style="fill:none;stroke:#f7931f;stroke-miterlimit:10;stroke-width:7px"/><line x1="103.05" y1="192.25" x2="103.05" y2="166.25" style="fill:none;stroke:#f7931f;stroke-miterlimit:10;stroke-width:7px"/><line x1="181.3" y1="192.25" x2="181.3" y2="166.25" style="fill:none;stroke:#f7931f;stroke-miterlimit:10;stroke-width:7px"/><line x1="259.55" y1="192.25" x2="259.55" y2="166.25" style="fill:none;stroke:#f7931f;stroke-miterlimit:10;stroke-width:7px"/><line x1="337.8" y1="192.25" x2="337.8" y2="166.25" style="fill:none;stroke:#f7931f;stroke-miterlimit:10;stroke-width:7px"/><line x1="416.05" y1="192.25" x2="416.05" y2="166.25" style="fill:none;stroke:#f7931f;stroke-miterlimit:10;stroke-width:7px"/><line x1="101.05" y1="188.75" x2="419.05" y2="188.75" style="fill:none;stroke:#f7931f;stroke-miterlimit:10;stroke-width:7px"/><ellipse cx="458.17" cy="387.08" rx="10.08" ry="10.02" style="fill:none;stroke:#f7931f;stroke-miterlimit:10;stroke-width:3.5180000000000002px"/><rect x="416.85" y="408.3" width="41.83" height="3.02" rx="1.51" ry="1.51" transform="translate(-161.56 429.57) rotate(-45)" style="fill:#f7931f"/><rect x="427.68" y="419.14" width="2.02" height="8.57" rx="1.01" ry="1.01" transform="translate(-173.84 427.15) rotate(-45)" style="fill:#f7931f"/><rect x="431.39" y="415.83" width="2.02" height="10.52" rx="1.01" ry="1.01" transform="translate(-171.11 429.09) rotate(-45)" style="fill:#f7931f"/><rect x="434.67" y="412.55" width="2.02" height="10.52" rx="1.01" ry="1.01" transform="translate(-167.83 430.45) rotate(-45)" style="fill:#f7931f"/><path d="M596,432.29a7.12,7.12,0,0,1-3.33.75,7.41,7.41,0,0,1-5.28-2,7,7,0,0,1-2.07-5,7.3,7.3,0,0,1,2.16-5.19,7.73,7.73,0,0,1,5.4-2,6.88,6.88,0,0,1,3.12.75v4a4.28,4.28,0,0,0-2.49-.87,3.15,3.15,0,0,0-2.34.93,3.26,3.26,0,0,0-.93,2.31,3.44,3.44,0,0,0,.84,2.25,3.26,3.26,0,0,0,2.46,1,3.63,3.63,0,0,0,2.46-.9Z"/><path d="M613,426.77H603a3.39,3.39,0,0,0,.84,2.25,2.7,2.7,0,0,0,2,.66,3.79,3.79,0,0,0,1.56-.36,2.23,2.23,0,0,0,.84-.9h4.59a6,6,0,0,1-1.62,2.76c-1,1-2.55,1.86-5.46,1.86a7.61,7.61,0,0,1-5.55-2,7,7,0,0,1-2-5.07,7.16,7.16,0,0,1,2-5.19,7.55,7.55,0,0,1,5.49-1.95,7.35,7.35,0,0,1,5.16,1.83,7.51,7.51,0,0,1,2.13,5.64ZM608.58,424a3.22,3.22,0,0,0-.78-1.44,2.8,2.8,0,0,0-2-.72,2.58,2.58,0,0,0-2,.72,2.74,2.74,0,0,0-.72,1.44Z"/><path d="M615.75,419.18h4.8v2.19a4.33,4.33,0,0,1,1.89-1.86,5.24,5.24,0,0,1,2.49-.54l1,.06v4.53a4.23,4.23,0,0,0-2.07-.48,3.14,3.14,0,0,0-2.19.72,4,4,0,0,0-1.08,3.06v5.73h-4.8Z"/><path d="M642.24,426.77h-10a3.39,3.39,0,0,0,.84,2.25,2.7,2.7,0,0,0,2,.66,3.79,3.79,0,0,0,1.56-.36,2.23,2.23,0,0,0,.84-.9h4.59a6,6,0,0,1-1.62,2.76c-1,1-2.55,1.86-5.46,1.86a7.61,7.61,0,0,1-5.55-2,7,7,0,0,1-2-5.07,7.16,7.16,0,0,1,2-5.19,7.55,7.55,0,0,1,5.49-1.95,7.35,7.35,0,0,1,5.16,1.83,7.51,7.51,0,0,1,2.13,5.64ZM637.83,424a3.22,3.22,0,0,0-.78-1.44,2.8,2.8,0,0,0-2-.72,2.58,2.58,0,0,0-2,.72,2.74,2.74,0,0,0-.72,1.44Z"/><path d="M645,419.18h4.8v2.19a4.33,4.33,0,0,1,1.89-1.86,5.24,5.24,0,0,1,2.49-.54l1,.06v4.53a4.23,4.23,0,0,0-2.07-.48,3.14,3.14,0,0,0-2.19.72,4,4,0,0,0-1.08,3.06v5.73H645Z"/><path d="M671.49,426.77h-10a3.39,3.39,0,0,0,.84,2.25,2.7,2.7,0,0,0,2,.66,3.79,3.79,0,0,0,1.56-.36,2.23,2.23,0,0,0,.84-.9h4.59a6,6,0,0,1-1.62,2.76c-1,1-2.55,1.86-5.46,1.86a7.61,7.61,0,0,1-5.55-2,7,7,0,0,1-2-5.07,7.16,7.16,0,0,1,2-5.19,7.55,7.55,0,0,1,5.49-1.95,7.35,7.35,0,0,1,5.16,1.83,7.51,7.51,0,0,1,2.13,5.64ZM667.08,424a3.22,3.22,0,0,0-.78-1.44,2.8,2.8,0,0,0-2-.72,2.58,2.58,0,0,0-2,.72,2.74,2.74,0,0,0-.72,1.44Z"/><polygon points="681.25 485.2 680.9 375.85 665.13 375.9 698.52 342.3 732.12 375.69 716.36 375.74 716.71 485.08 681.25 485.2" style="fill:none;stroke:#3a5c84;stroke-miterlimit:10;stroke-width:7px"/><polygon points="945.25 342.3 945.6 451.65 961.37 451.6 927.98 485.2 894.38 451.81 910.14 451.76 909.79 342.42 945.25 342.3" style="fill:none;stroke:#3a5c84;stroke-miterlimit:10;stroke-width:7px"/><rect x="579.75" y="506.75" width="440" height="162" rx="12" ry="12" style="fill:none;stroke:#91c54f;stroke-miterlimit:10;stroke-width:7px"/><rect x="593.25" y="15.75" width="440" height="304.5" rx="12" ry="12" style="fill:none;stroke:#4fc2c9;stroke-miterlimit:10;stroke-width:7.57503647819426px"/><path d="M741.18,630.11V642a4,4,0,0,0,1,3.09,3.69,3.69,0,0,0,4.86.09,4.38,4.38,0,0,0,1.17-3.63v-11.4h5.19V641.6c0,2.1-.09,4.29-2.25,6.48a8.64,8.64,0,0,1-6.6,2.49,8.93,8.93,0,0,1-6.63-2.4c-1.74-1.89-2-4.44-2-6.57V630.11Z"/><path d="M762.48,640.64v9.48h-4.8v-9.48h-1.53v-3.93h1.53V632.3h4.8v4.41h2.73v3.93Z"/><path d="M769.41,628.43a2.7,2.7,0,1,1-2.7,2.7A2.69,2.69,0,0,1,769.41,628.43Zm2.4,8.28v13.41H767V636.71Z"/><path d="M779.88,628.25v21.87h-4.8V628.25Z"/><path d="M785.55,628.43a2.7,2.7,0,1,1-2.7,2.7A2.68,2.68,0,0,1,785.55,628.43Zm2.4,8.28v13.41h-4.8V636.71Z"/><path d="M798.2,646.19h5.61v3.93H790.17l6.32-9.48h-5.4v-3.93h13.38Z"/><path d="M817.1,636.71h4.8v13.41h-4.8v-1.47a5,5,0,0,1-4.17,1.92,6.42,6.42,0,0,1-4.83-2.13,6.76,6.76,0,0,1-1.92-4.92,7.46,7.46,0,0,1,2.07-5.37,6.9,6.9,0,0,1,4.83-1.89,5.31,5.31,0,0,1,4,1.74Zm-5,4.5a3.14,3.14,0,0,0-1,2.19,3.09,3.09,0,0,0,.93,2.19,3.37,3.37,0,0,0,2.16.9,3.08,3.08,0,0,0,2.16-.93,2.91,2.91,0,0,0,.9-2.16,3,3,0,0,0-.93-2.19,3,3,0,0,0-4.26,0Z"/><path d="M830.51,640.64v9.48h-4.79v-9.48h-1.54v-3.93h1.54V632.3h4.79v4.41h2.73v3.93Z"/><path d="M848.54,648.35a9.18,9.18,0,0,1-12,0,6.92,6.92,0,0,1,0-9.87,8.37,8.37,0,0,1,6-2.22,8.47,8.47,0,0,1,6,2.22,6.92,6.92,0,0,1,0,9.87Zm-8.13-7.14a3.06,3.06,0,0,0,2.16,5.22,3.05,3.05,0,0,0,2.13-.9,3,3,0,0,0,.93-2.13,3.26,3.26,0,0,0-.93-2.19,3.08,3.08,0,0,0-4.29,0Z"/><path d="M853.37,636.71h4.8v2.19a4.33,4.33,0,0,1,1.89-1.86,5.24,5.24,0,0,1,2.49-.54l1,.06v4.53a4.23,4.23,0,0,0-2.07-.48,3.14,3.14,0,0,0-2.19.72,4,4,0,0,0-1.08,3.06v5.73h-4.8Z"/><path d="M722.74,56.12v-20h7.74a5.61,5.61,0,0,1,4.38,1.56,5.41,5.41,0,0,1,1.23,3.75,5.19,5.19,0,0,1-.57,2.46,3.15,3.15,0,0,1-1.62,1.56,5,5,0,0,1,2.73,1.2A5,5,0,0,1,738,50.3a5.43,5.43,0,0,1-1.47,3.93,7.52,7.52,0,0,1-5.43,1.89ZM727.93,44h1a2.74,2.74,0,0,0,2-.63,1.94,1.94,0,0,0,.48-1.32,2.06,2.06,0,0,0-.48-1.35,2.75,2.75,0,0,0-2-.6h-1Zm0,8.07h1.17c1.44,0,2.64-.15,3.21-.81a2,2,0,0,0,.42-1.29,2,2,0,0,0-.51-1.44c-.63-.63-1.92-.66-3.21-.66h-1.08Z"/><path d="M751.21,42.71H756V56.12h-4.8V54.65A5,5,0,0,1,747,56.57a6.42,6.42,0,0,1-4.83-2.13,6.76,6.76,0,0,1-1.92-4.92,7.42,7.42,0,0,1,2.07-5.37,6.9,6.9,0,0,1,4.83-1.89,5.31,5.31,0,0,1,4,1.74Zm-5,4.5a3.14,3.14,0,0,0-1,2.19,3.09,3.09,0,0,0,.93,2.19,3.37,3.37,0,0,0,2.16.9,3.08,3.08,0,0,0,2.16-.93,2.91,2.91,0,0,0,.9-2.16,3,3,0,0,0-.93-2.19,3,3,0,0,0-4.26,0Z"/><path d="M766.3,52.19h5.61v3.93H758.26l6.33-9.48h-5.4V42.71h13.38Z"/><path d="M785.2,42.71H790V56.12h-4.8V54.65A5,5,0,0,1,781,56.57a6.42,6.42,0,0,1-4.83-2.13,6.76,6.76,0,0,1-1.92-4.92,7.42,7.42,0,0,1,2.07-5.37,6.9,6.9,0,0,1,4.83-1.89,5.31,5.31,0,0,1,4,1.74Zm2.64-6.9a4.73,4.73,0,0,1-1.32,3.27,6.31,6.31,0,0,1-7.8,0,4.73,4.73,0,0,1-1.32-3.27h3.09a2.08,2.08,0,0,0,.6,1.23,2.44,2.44,0,0,0,3.06,0,2.08,2.08,0,0,0,.6-1.23Zm-7.68,11.4a3.14,3.14,0,0,0-1,2.19,3.09,3.09,0,0,0,.93,2.19,3.37,3.37,0,0,0,2.16.9,3.08,3.08,0,0,0,2.16-.93,2.91,2.91,0,0,0,.9-2.16,3,3,0,0,0-.93-2.19,3,3,0,0,0-4.26,0Z"/><path d="M815.47,56.12h-4.8V54.65a4.92,4.92,0,0,1-4,1.92,6.42,6.42,0,0,1-4.71-1.86,7.4,7.4,0,0,1-2.16-5.34,7.31,7.31,0,0,1,2.19-5.31,6.86,6.86,0,0,1,4.74-1.8,5.31,5.31,0,0,1,4,1.74V34.25h4.8Zm-5.67-4.44a3.22,3.22,0,0,0,1-2.28,3.51,3.51,0,0,0-.9-2.16,3.08,3.08,0,0,0-4.32,0,3.29,3.29,0,0,0-.93,2.28,3,3,0,0,0,.93,2.1,3,3,0,0,0,2.13.9A3.28,3.28,0,0,0,809.8,51.68Z"/><path d="M833,50.3H823a3.39,3.39,0,0,0,.84,2.25,2.7,2.7,0,0,0,2,.66,3.79,3.79,0,0,0,1.56-.36,2.23,2.23,0,0,0,.84-.9h4.59a6,6,0,0,1-1.62,2.76c-1,1-2.55,1.86-5.46,1.86a7.61,7.61,0,0,1-5.55-2,7,7,0,0,1-2-5.07,7.16,7.16,0,0,1,2-5.19,7.55,7.55,0,0,1,5.49-2,7.35,7.35,0,0,1,5.16,1.83A7.51,7.51,0,0,1,833,49.79Zm-4.41-2.76a3.22,3.22,0,0,0-.78-1.44,2.8,2.8,0,0,0-2-.72,2.58,2.58,0,0,0-2,.72,2.74,2.74,0,0,0-.72,1.44Z"/><path d="M857.92,56.12h-4.8V54.65a4.92,4.92,0,0,1-4,1.92,6.42,6.42,0,0,1-4.71-1.86,7.4,7.4,0,0,1-2.16-5.34,7.31,7.31,0,0,1,2.19-5.31,6.86,6.86,0,0,1,4.74-1.8,5.31,5.31,0,0,1,4,1.74V34.25h4.8Zm-5.67-4.44a3.22,3.22,0,0,0,1-2.28,3.51,3.51,0,0,0-.9-2.16,3.08,3.08,0,0,0-4.32,0,3.29,3.29,0,0,0-.93,2.28,3,3,0,0,0,.93,2.1,3,3,0,0,0,2.13.9A3.28,3.28,0,0,0,852.25,51.68Z"/><path d="M871.6,42.71h4.8V56.12h-4.8V54.65a5,5,0,0,1-4.17,1.92,6.42,6.42,0,0,1-4.83-2.13,6.76,6.76,0,0,1-1.92-4.92,7.42,7.42,0,0,1,2.07-5.37,6.9,6.9,0,0,1,4.83-1.89,5.31,5.31,0,0,1,4,1.74Zm-5,4.5a3.14,3.14,0,0,0-1,2.19,3.09,3.09,0,0,0,.93,2.19,3.37,3.37,0,0,0,2.16.9,3.08,3.08,0,0,0,2.16-.93,2.91,2.91,0,0,0,.9-2.16,3,3,0,0,0-.93-2.19,3,3,0,0,0-4.26,0Z"/><path d="M885,46.64v9.48h-4.8V46.64h-1.53V42.71h1.53V38.3H885v4.41h2.73v3.93Z"/><path d="M903.76,50.3h-10a3.39,3.39,0,0,0,.84,2.25,2.7,2.7,0,0,0,2,.66,3.79,3.79,0,0,0,1.56-.36A2.23,2.23,0,0,0,899,52h4.59A6,6,0,0,1,902,54.71c-1,1-2.55,1.86-5.46,1.86a7.61,7.61,0,0,1-5.55-2,7,7,0,0,1-2-5.07,7.16,7.16,0,0,1,2-5.19,7.55,7.55,0,0,1,5.49-2,7.35,7.35,0,0,1,5.16,1.83,7.51,7.51,0,0,1,2.13,5.64Zm-4.41-2.76a3.22,3.22,0,0,0-.78-1.44,2.8,2.8,0,0,0-2-.72,2.58,2.58,0,0,0-2,.72,2.74,2.74,0,0,0-.72,1.44Z"/><rect x="689.55" y="221.25" width="237" height="69" rx="12" ry="12" style="fill:none;stroke:#f7931f;stroke-miterlimit:10;stroke-width:7px"/><circle cx="730.05" cy="255.75" r="16" style="fill:none;stroke:#f7931f;stroke-miterlimit:10;stroke-width:7px"/><circle cx="840.55" cy="256.25" r="5" style="fill:#f7931f"/><circle cx="857.55" cy="256.25" r="5" style="fill:#f7931f"/><circle cx="875.55" cy="256.25" r="5" style="fill:#f7931f"/><circle cx="893.55" cy="256.25" r="5" style="fill:#f7931f"/><line x1="641.84" y1="146.04" x2="671.66" y2="146.04" style="fill:none;stroke:#91c54f;stroke-miterlimit:10;stroke-width:4px"/><line x1="641.84" y1="138.33" x2="671.66" y2="138.33" style="fill:none;stroke:#91c54f;stroke-miterlimit:10;stroke-width:4px"/><line x1="641.84" y1="130.61" x2="671.66" y2="130.61" style="fill:none;stroke:#91c54f;stroke-miterlimit:10;stroke-width:4px"/><line x1="641.84" y1="122.9" x2="671.66" y2="122.9" style="fill:none;stroke:#91c54f;stroke-miterlimit:10;stroke-width:4px"/><line x1="641.84" y1="115.18" x2="654.15" y2="115.18" style="fill:none;stroke:#91c54f;stroke-miterlimit:10;stroke-width:4px"/><path d="M670.1,112.41a4.17,4.17,0,0,1-4.16-4.16v-7.8H640.11a4.17,4.17,0,0,0-4.16,4.16v43.68a4.17,4.17,0,0,0,4.16,4.16h33.28a4.17,4.17,0,0,0,4.16-4.16V112.41Z" style="fill:none;stroke:#91c54f;stroke-miterlimit:10;stroke-width:4px"/><line x1="982.84" y1="427.04" x2="1012.66" y2="427.04" style="fill:none;stroke:#91c54f;stroke-miterlimit:10;stroke-width:4px"/><line x1="982.84" y1="419.33" x2="1012.66" y2="419.33" style="fill:none;stroke:#91c54f;stroke-miterlimit:10;stroke-width:4px"/><line x1="982.84" y1="411.61" x2="1012.66" y2="411.61" style="fill:none;stroke:#91c54f;stroke-miterlimit:10;stroke-width:4px"/><line x1="982.84" y1="403.9" x2="1012.66" y2="403.9" style="fill:none;stroke:#91c54f;stroke-miterlimit:10;stroke-width:4px"/><line x1="982.84" y1="396.18" x2="995.15" y2="396.18" style="fill:none;stroke:#91c54f;stroke-miterlimit:10;stroke-width:4px"/><path d="M1011.1,393.41a4.17,4.17,0,0,1-4.16-4.16v-7.8H981.11a4.17,4.17,0,0,0-4.16,4.16v43.68a4.17,4.17,0,0,0,4.16,4.16h33.28a4.17,4.17,0,0,0,4.16-4.16V393.41Z" style="fill:none;stroke:#91c54f;stroke-miterlimit:10;stroke-width:4px"/><line x1="778.84" y1="577.04" x2="808.66" y2="577.04" style="fill:none;stroke:#91c54f;stroke-miterlimit:10;stroke-width:4px"/><line x1="778.84" y1="569.33" x2="808.66" y2="569.33" style="fill:none;stroke:#91c54f;stroke-miterlimit:10;stroke-width:4px"/><line x1="778.84" y1="561.61" x2="808.66" y2="561.61" style="fill:none;stroke:#91c54f;stroke-miterlimit:10;stroke-width:4px"/><line x1="778.84" y1="553.9" x2="808.66" y2="553.9" style="fill:none;stroke:#91c54f;stroke-miterlimit:10;stroke-width:4px"/><line x1="778.84" y1="546.18" x2="791.15" y2="546.18" style="fill:none;stroke:#91c54f;stroke-miterlimit:10;stroke-width:4px"/><path d="M807.1,543.41a4.17,4.17,0,0,1-4.16-4.16v-7.8H777.11a4.17,4.17,0,0,0-4.16,4.16v43.68a4.17,4.17,0,0,0,4.16,4.16h33.28a4.17,4.17,0,0,0,4.16-4.16V543.41Z" style="fill:none;stroke:#91c54f;stroke-miterlimit:10;stroke-width:4px"/><line x1="720.09" y1="146.04" x2="749.91" y2="146.04" style="fill:none;stroke:#3a5c84;stroke-miterlimit:10;stroke-width:4.02260291576386px"/><line x1="720.09" y1="138.33" x2="749.91" y2="138.33" style="fill:none;stroke:#3a5c84;stroke-miterlimit:10;stroke-width:4.02260291576386px"/><line x1="720.09" y1="130.61" x2="749.91" y2="130.61" style="fill:none;stroke:#3a5c84;stroke-miterlimit:10;stroke-width:4.02260291576386px"/><line x1="720.09" y1="122.9" x2="749.91" y2="122.9" style="fill:none;stroke:#3a5c84;stroke-miterlimit:10;stroke-width:4.02260291576386px"/><line x1="720.09" y1="115.18" x2="732.4" y2="115.18" style="fill:none;stroke:#3a5c84;stroke-miterlimit:10;stroke-width:4.02260291576386px"/><path d="M748.35,112.41a4.17,4.17,0,0,1-4.16-4.16v-7.8H718.36a4.17,4.17,0,0,0-4.16,4.16v43.68a4.17,4.17,0,0,0,4.16,4.16h33.28a4.17,4.17,0,0,0,4.16-4.16V112.41Z" style="fill:none;stroke:#3a5c84;stroke-miterlimit:10;stroke-width:4.02260291576386px"/><line x1="798.34" y1="146.04" x2="828.16" y2="146.04" style="fill:none;stroke:#3a5c84;stroke-miterlimit:10;stroke-width:4.02260291576386px"/><line x1="798.34" y1="138.33" x2="828.16" y2="138.33" style="fill:none;stroke:#3a5c84;stroke-miterlimit:10;stroke-width:4.02260291576386px"/><line x1="798.34" y1="130.61" x2="828.16" y2="130.61" style="fill:none;stroke:#3a5c84;stroke-miterlimit:10;stroke-width:4.02260291576386px"/><line x1="798.34" y1="122.9" x2="828.16" y2="122.9" style="fill:none;stroke:#3a5c84;stroke-miterlimit:10;stroke-width:4.02260291576386px"/><line x1="798.34" y1="115.18" x2="810.65" y2="115.18" style="fill:none;stroke:#3a5c84;stroke-miterlimit:10;stroke-width:4.02260291576386px"/><path d="M826.6,112.41a4.17,4.17,0,0,1-4.16-4.16v-7.8H796.61a4.17,4.17,0,0,0-4.16,4.16v43.68a4.17,4.17,0,0,0,4.16,4.16h33.28a4.17,4.17,0,0,0,4.16-4.16V112.41Z" style="fill:none;stroke:#3a5c84;stroke-miterlimit:10;stroke-width:4.02260291576386px"/><line x1="876.59" y1="146.04" x2="906.41" y2="146.04" style="fill:none;stroke:#3a5c84;stroke-miterlimit:10;stroke-width:4.02260291576386px"/><line x1="876.59" y1="138.33" x2="906.41" y2="138.33" style="fill:none;stroke:#3a5c84;stroke-miterlimit:10;stroke-width:4.02260291576386px"/><line x1="876.59" y1="130.61" x2="906.41" y2="130.61" style="fill:none;stroke:#3a5c84;stroke-miterlimit:10;stroke-width:4.02260291576386px"/><line x1="876.59" y1="122.9" x2="906.41" y2="122.9" style="fill:none;stroke:#3a5c84;stroke-miterlimit:10;stroke-width:4.02260291576386px"/><line x1="876.59" y1="115.18" x2="888.9" y2="115.18" style="fill:none;stroke:#3a5c84;stroke-miterlimit:10;stroke-width:4.02260291576386px"/><path d="M904.85,112.41a4.17,4.17,0,0,1-4.16-4.16v-7.8H874.86a4.17,4.17,0,0,0-4.16,4.16v43.68a4.17,4.17,0,0,0,4.16,4.16h33.28a4.17,4.17,0,0,0,4.16-4.16V112.41Z" style="fill:none;stroke:#3a5c84;stroke-miterlimit:10;stroke-width:4.02260291576386px"/><line x1="954.84" y1="146.04" x2="984.66" y2="146.04" style="fill:none;stroke:#3a5c84;stroke-miterlimit:10;stroke-width:4.02260291576386px"/><line x1="954.84" y1="138.33" x2="984.66" y2="138.33" style="fill:none;stroke:#3a5c84;stroke-miterlimit:10;stroke-width:4.02260291576386px"/><line x1="954.84" y1="130.61" x2="984.66" y2="130.61" style="fill:none;stroke:#3a5c84;stroke-miterlimit:10;stroke-width:4.02260291576386px"/><line x1="954.84" y1="122.9" x2="984.66" y2="122.9" style="fill:none;stroke:#3a5c84;stroke-miterlimit:10;stroke-width:4.02260291576386px"/><line x1="954.84" y1="115.18" x2="967.15" y2="115.18" style="fill:none;stroke:#3a5c84;stroke-miterlimit:10;stroke-width:4.02260291576386px"/><path d="M983.1,112.41a4.17,4.17,0,0,1-4.16-4.16v-7.8H953.11a4.17,4.17,0,0,0-4.16,4.16v43.68a4.17,4.17,0,0,0,4.16,4.16h33.28a4.17,4.17,0,0,0,4.16-4.16V112.41Z" style="fill:none;stroke:#3a5c84;stroke-miterlimit:10;stroke-width:4.02260291576386px"/><line x1="810.55" y1="218.25" x2="810.55" y2="192.25" style="fill:none;stroke:#f7931f;stroke-miterlimit:10;stroke-width:7px"/><line x1="654.05" y1="192.25" x2="654.05" y2="166.25" style="fill:none;stroke:#f7931f;stroke-miterlimit:10;stroke-width:7px"/><line x1="732.3" y1="192.25" x2="732.3" y2="166.25" style="fill:none;stroke:#f7931f;stroke-miterlimit:10;stroke-width:7px"/><line x1="810.55" y1="192.25" x2="810.55" y2="166.25" style="fill:none;stroke:#f7931f;stroke-miterlimit:10;stroke-width:7px"/><line x1="888.8" y1="192.25" x2="888.8" y2="166.25" style="fill:none;stroke:#f7931f;stroke-miterlimit:10;stroke-width:7px"/><line x1="967.05" y1="192.25" x2="967.05" y2="166.25" style="fill:none;stroke:#f7931f;stroke-miterlimit:10;stroke-width:7px"/><line x1="652.05" y1="188.75" x2="970.05" y2="188.75" style="fill:none;stroke:#f7931f;stroke-miterlimit:10;stroke-width:7px"/><ellipse cx="638.17" cy="613.08" rx="10.08" ry="10.02" style="fill:none;stroke:#f7931f;stroke-miterlimit:10;stroke-width:3.5180000000000002px"/><rect x="596.85" y="634.3" width="41.83" height="3.02" rx="1.51" ry="1.51" transform="translate(-268.65 623.05) rotate(-45)" style="fill:#f7931f"/><rect x="607.68" y="645.14" width="2.02" height="8.57" rx="1.01" ry="1.01" transform="translate(-280.93 620.62) rotate(-45)" style="fill:#f7931f"/><rect x="611.39" y="641.83" width="2.02" height="10.52" rx="1.01" ry="1.01" transform="translate(-278.19 622.56) rotate(-45)" style="fill:#f7931f"/><rect x="614.67" y="638.55" width="2.02" height="10.52" rx="1.01" ry="1.01" transform="translate(-274.91 623.92) rotate(-45)" style="fill:#f7931f"/><rect x="777.25" y="711.25" width="41" height="41" rx="12" ry="12" style="fill:none;stroke:#636868;stroke-miterlimit:10;stroke-width:3px"/><path d="M239.58,726.15h-2.85v-4.4h8v20h-5.19Z"/><path d="M805.77,742h-16l5.07-5.31a33.14,33.14,0,0,0,4.11-5.07,5.63,5.63,0,0,0,1.08-3.12,3,3,0,0,0-.6-1.92,2,2,0,0,0-1.47-.6,2.15,2.15,0,0,0-1.74.81,5,5,0,0,0-.72,2.46h-5.37a8,8,0,0,1,2.22-5.55,8.61,8.61,0,0,1,11.3-.09,6.65,6.65,0,0,1,1.95,4.92c0,2.52-1.17,4.26-3,5.94l-3.35,3.12h6.53Z"/></svg>