<svg id="Layer_1" data-name="Layer 1" xmlns="http://www.w3.org/2000/svg" viewBox="0 0 962 599"><title>Cap 5 -</title><path d="M170.61,255.43c-.27.2-.54.38-.81.56l-.39.25c-.35.22-.72.43-1.09.63l-.25.13a19.43,19.43,0,0,1-2.66,1.12l-.09,0c-.48.16-1,.3-1.45.42h0a15.15,15.15,0,0,1-1.49.31h0c-.47.07-1,.13-1.43.17l-.25,0c-.48,0-1,.06-1.43.06s-1,0-1.44-.06l-.25,0q-.72-.06-1.44-.18H156a18.57,18.57,0,0,1-3-.74l-.09,0c-.48-.16-.95-.34-1.42-.54h0a14,14,0,0,1-1.3-.62l-.16-.08c-.39-.21-.77-.43-1.15-.67l-.33-.21c-.35-.23-.69-.46-1-.71l-.1-.08.07,0,6-3.28a3.22,3.22,0,0,0,1.68-2.83v-2.74l-.18-.21a12.92,12.92,0,0,1-2.28-4.74l-.07-.3-.26-.17a1.26,1.26,0,0,1-.58-1.06v-2.69a1.23,1.23,0,0,1,.42-.93l.25-.23v-4.34a4.62,4.62,0,0,1,1.07-3.32c1.1-1.25,3-1.89,5.6-1.89s4.49.63,5.59,1.88a4.66,4.66,0,0,1,1.08,3.33V236l.25.23a1.21,1.21,0,0,1,.43.93v2.7a1.28,1.28,0,0,1-.9,1.2l-.38.11-.12.38a14.28,14.28,0,0,1-1.9,3.83c-.2.28-.4.53-.56.72l-.19.22v2.81a3.2,3.2,0,0,0,1.78,2.88l6.44,3.22.12.07Z" style="fill:none;stroke:#636868;stroke-miterlimit:10;stroke-width:3.18670179172047px"/><circle cx="159.17" cy="238.59" r="21.64" style="fill:none;stroke:#636868;stroke-miterlimit:10;stroke-width:3.18670179172047px"/><path d="M168.39,388.23c-.26.2-.53.38-.81.56-.12.09-.25.17-.38.25-.36.22-.72.43-1.1.63l-.24.13a20,20,0,0,1-2.66,1.12l-.1,0c-.47.16-1,.3-1.44.42h0a15.15,15.15,0,0,1-1.49.31h0c-.47.07-.94.13-1.42.17l-.26,0c-.47,0-.94.06-1.42.06s-1,0-1.44-.06l-.25,0c-.48,0-1-.1-1.44-.18h-.06a19,19,0,0,1-3-.74l-.09,0c-.47-.16-.95-.34-1.41-.54h0a14,14,0,0,1-1.3-.62l-.17-.08c-.39-.21-.77-.43-1.14-.67l-.33-.21c-.35-.23-.69-.46-1-.71l-.1-.08.07,0,6-3.28a3.24,3.24,0,0,0,1.68-2.83v-2.74l-.18-.21a12.74,12.74,0,0,1-2.28-4.74l-.07-.3-.26-.17a1.25,1.25,0,0,1-.59-1.06v-2.69a1.21,1.21,0,0,1,.43-.93l.25-.23v-4.34a4.59,4.59,0,0,1,1.06-3.32c1.1-1.25,3-1.89,5.61-1.89s4.49.63,5.59,1.88a4.66,4.66,0,0,1,1.08,3.33v4.34l.25.23a1.23,1.23,0,0,1,.42.93v2.7a1.28,1.28,0,0,1-.9,1.2l-.37.11-.13.38a13.71,13.71,0,0,1-1.9,3.83,7,7,0,0,1-.56.72l-.18.22v2.81a3.2,3.2,0,0,0,1.78,2.88l6.44,3.22.12.07Z" style="fill:none;stroke:#636868;stroke-miterlimit:10;stroke-width:3.18670179172047px"/><circle cx="156.96" cy="371.39" r="21.64" style="fill:none;stroke:#636868;stroke-miterlimit:10;stroke-width:3.18670179172047px"/><path d="M168.39,319.62c-.26.19-.53.38-.81.56l-.38.24c-.36.23-.72.44-1.1.64l-.24.12a20,20,0,0,1-2.66,1.13l-.1,0c-.47.16-1,.3-1.44.42h0c-.49.12-1,.22-1.49.31h0c-.47.08-.94.14-1.42.18l-.26,0c-.47,0-.94.06-1.42.06s-1,0-1.44-.06l-.25,0c-.48-.05-1-.1-1.44-.18h-.06a20.15,20.15,0,0,1-3-.74l-.09,0c-.47-.16-.95-.34-1.41-.54h0c-.44-.19-.87-.4-1.3-.62l-.17-.09c-.39-.2-.77-.43-1.14-.66l-.33-.21c-.35-.23-.69-.47-1-.71l-.1-.08.07-.05,6-3.28a3.22,3.22,0,0,0,1.68-2.82v-2.75l-.18-.21a12.65,12.65,0,0,1-2.28-4.73l-.07-.3-.26-.17a1.26,1.26,0,0,1-.59-1.06v-2.7a1.24,1.24,0,0,1,.43-.93l.25-.22v-4.34a4.59,4.59,0,0,1,1.06-3.32c1.1-1.26,3-1.89,5.61-1.89s4.49.63,5.59,1.87a4.68,4.68,0,0,1,1.08,3.34v4.34l.25.22a1.26,1.26,0,0,1,.42.93V304a1.26,1.26,0,0,1-.9,1.2l-.37.12-.13.37a13.64,13.64,0,0,1-1.9,3.84,7,7,0,0,1-.56.72l-.18.21v2.82a3.2,3.2,0,0,0,1.78,2.88l6.44,3.22.12.06Z" style="fill:none;stroke:#636868;stroke-miterlimit:10;stroke-width:3.18670179172047px"/><path d="M153,314.82l-.5.35-.24.15c-.22.13-.45.27-.68.39l-.16.08a13.93,13.93,0,0,1-1.64.7l-.06,0-.9.26h0c-.3.07-.61.14-.92.19h0c-.29.05-.59.08-.88.11h-.16c-.3,0-.59,0-.89,0s-.6,0-.89,0h-.16c-.3,0-.59-.06-.89-.11h0a11.79,11.79,0,0,1-1.84-.46l0,0c-.3-.1-.59-.21-.88-.33h0a8.34,8.34,0,0,1-.8-.38l-.11-.05c-.24-.13-.47-.27-.71-.42l-.2-.13c-.22-.14-.43-.29-.64-.44l-.06,0,.05,0,3.73-2a2,2,0,0,0,1-1.76v-1.7l-.1-.13a7.72,7.72,0,0,1-1.42-2.94l-.05-.18-.16-.11a.8.8,0,0,1-.36-.66v-1.67a.78.78,0,0,1,.26-.58l.16-.14V300a2.77,2.77,0,0,1,.65-2.06,5.73,5.73,0,0,1,6.95,0,2.9,2.9,0,0,1,.67,2.07v2.69l.15.14a.79.79,0,0,1,.27.58v1.67a.79.79,0,0,1-.56.75l-.24.07-.07.24a8.91,8.91,0,0,1-1.18,2.37c-.13.18-.25.33-.35.45l-.12.13v1.75a2,2,0,0,0,1.11,1.79l4,2a1.46,1.46,0,0,0,.07-.3S153,314.78,153,314.82Z" style="fill:none;stroke:#636868;stroke-miterlimit:10;stroke-width:1.97784942907131px"/><path d="M175.12,314.82l-.5.35-.24.15c-.22.13-.45.27-.68.39l-.15.08a13.39,13.39,0,0,1-1.65.7l-.06,0-.9.26h0c-.31.07-.62.14-.93.19h0c-.29.05-.58.08-.88.11h-.16c-.29,0-.59,0-.88,0s-.6,0-.9,0H167c-.3,0-.6-.06-.9-.11h0a11.67,11.67,0,0,1-1.83-.46l-.06,0c-.3-.1-.59-.21-.88-.33h0a7.49,7.49,0,0,1-.81-.38l-.1-.05c-.24-.13-.48-.27-.71-.42l-.21-.13c-.21-.14-.43-.29-.63-.44l-.06,0,0,0,3.74-2a2,2,0,0,0,1-1.76v-1.7l-.11-.13a7.89,7.89,0,0,1-1.42-2.94l0-.18-.16-.11a.78.78,0,0,1-.37-.66v-1.67a.79.79,0,0,1,.27-.58l.15-.14V300a2.86,2.86,0,0,1,.66-2.06,4.44,4.44,0,0,1,3.48-1.18,4.49,4.49,0,0,1,3.47,1.17,2.81,2.81,0,0,1,.66,2.07v2.69l.16.14a.78.78,0,0,1,.26.58v1.67a.79.79,0,0,1-.56.75l-.23.07-.08.24a8.62,8.62,0,0,1-1.18,2.37,3.73,3.73,0,0,1-.35.45l-.11.13v1.75a2,2,0,0,0,1.1,1.79l4,2,.08,0Z" style="fill:none;stroke:#636868;stroke-miterlimit:10;stroke-width:1.97784942907131px"/><circle cx="156.96" cy="302.78" r="21.64" style="fill:none;stroke:#636868;stroke-miterlimit:10;stroke-width:3.18670179172047px"/><rect x="44.5" y="38.81" width="848.81" height="422.75" rx="12" ry="12" style="fill:none;stroke:#4fc2c9;stroke-miterlimit:10;stroke-width:7px"/><path d="M313.64,56.81H306.7V60.5H313v4.88H306.7v8.7H301V51.93h12.69Z"/><path d="M318.88,50.07a3,3,0,1,1-3,3A3,3,0,0,1,318.88,50.07Zm2.66,9.17V74.08h-5.31V59.24Z"/><path d="M330.47,49.87V74.08h-5.31V49.87Z"/><path d="M349.82,67.64H338.77a3.76,3.76,0,0,0,.93,2.49,3,3,0,0,0,2.19.73,4.33,4.33,0,0,0,1.73-.4,2.52,2.52,0,0,0,.93-1h5.08a6.78,6.78,0,0,1-1.8,3.06c-1.09,1.06-2.82,2.06-6,2.06a8.43,8.43,0,0,1-6.14-2.26,7.76,7.76,0,0,1-2.19-5.61A8,8,0,0,1,335.68,61a8.38,8.38,0,0,1,6.08-2.16,8.15,8.15,0,0,1,5.71,2,8.3,8.3,0,0,1,2.35,6.24Zm-4.88-3.06a3.53,3.53,0,0,0-.86-1.59,3.09,3.09,0,0,0-2.19-.8,2.84,2.84,0,0,0-2.16.8,3.08,3.08,0,0,0-.8,1.59Z"/><path d="M374.62,70.36h-8l-1.49,3.72H359l8.5-22.15h6.27l8.34,22.15H376ZM373.1,66l-2.49-7.18L368.18,66Z"/><path d="M395.41,73.75a8,8,0,0,1-3.69.83,8.18,8.18,0,0,1-5.84-2.26,7.76,7.76,0,0,1-2.29-5.55A8,8,0,0,1,386,61a8.53,8.53,0,0,1,6-2.26,7.7,7.7,0,0,1,3.46.83v4.45a4.74,4.74,0,0,0-2.76-1,3.45,3.45,0,0,0-2.59,1,3.61,3.61,0,0,0-1,2.55,3.8,3.8,0,0,0,.93,2.49,3.61,3.61,0,0,0,2.72,1.13,4,4,0,0,0,2.73-1Z"/><path d="M409.65,73.75a8,8,0,0,1-3.69.83,8.2,8.2,0,0,1-5.84-2.26,7.8,7.8,0,0,1-2.29-5.55A8.09,8.09,0,0,1,400.22,61a8.54,8.54,0,0,1,6-2.26,7.66,7.66,0,0,1,3.45.83v4.45a4.74,4.74,0,0,0-2.76-1,3.45,3.45,0,0,0-2.59,1,3.61,3.61,0,0,0-1,2.55,3.8,3.8,0,0,0,.93,2.49,3.63,3.63,0,0,0,2.73,1.13,4,4,0,0,0,2.72-1Z"/><path d="M428.41,67.64H417.35a3.76,3.76,0,0,0,.93,2.49,3,3,0,0,0,2.19.73,4.33,4.33,0,0,0,1.73-.4,2.45,2.45,0,0,0,.93-1h5.08a6.68,6.68,0,0,1-1.8,3.06c-1.09,1.06-2.82,2.06-6,2.06a8.44,8.44,0,0,1-6.14-2.26A7.8,7.8,0,0,1,412,66.71,8,8,0,0,1,414.26,61a8.4,8.4,0,0,1,6.08-2.16,8.13,8.13,0,0,1,5.71,2,8.31,8.31,0,0,1,2.36,6.24Zm-4.88-3.06a3.65,3.65,0,0,0-.87-1.59,3.08,3.08,0,0,0-2.19-.8,2.86,2.86,0,0,0-2.16.8,3.07,3.07,0,0,0-.79,1.59Z"/><path d="M432.42,69.16a7.44,7.44,0,0,0,2.13,1.1,6.93,6.93,0,0,0,2.06.36,2.31,2.31,0,0,0,1.36-.39.87.87,0,0,0,.26-.7.8.8,0,0,0-.26-.67,3.56,3.56,0,0,0-1.4-.53L435.18,68a4.83,4.83,0,0,1-2.59-1.29,3.58,3.58,0,0,1-1-2.56A5.29,5.29,0,0,1,433,60.53a7.5,7.5,0,0,1,5.31-1.79,12.17,12.17,0,0,1,4.75,1l-1.79,3.39a7.22,7.22,0,0,0-2.79-.73,2.24,2.24,0,0,0-1.23.3.78.78,0,0,0-.46.73.87.87,0,0,0,.63.83c.49.2.93.2,1.76.43l1,.26a6.12,6.12,0,0,1,2.19,1.17,4.17,4.17,0,0,1,1.13,3A5,5,0,0,1,442,72.72a7.75,7.75,0,0,1-5.48,1.86,11,11,0,0,1-6-1.73Z"/><path d="M447.16,69.16a7.44,7.44,0,0,0,2.13,1.1,6.93,6.93,0,0,0,2.06.36,2.29,2.29,0,0,0,1.36-.39.87.87,0,0,0,.26-.7.8.8,0,0,0-.26-.67,3.56,3.56,0,0,0-1.4-.53L449.92,68a4.83,4.83,0,0,1-2.59-1.29,3.58,3.58,0,0,1-1-2.56,5.29,5.29,0,0,1,1.39-3.62,7.5,7.5,0,0,1,5.31-1.79,12.17,12.17,0,0,1,4.75,1L456,63.09a7.22,7.22,0,0,0-2.79-.73,2.24,2.24,0,0,0-1.23.3.78.78,0,0,0-.46.73.87.87,0,0,0,.63.83c.49.2.93.2,1.76.43l1,.26a6.12,6.12,0,0,1,2.19,1.17,4.17,4.17,0,0,1,1.13,3,5,5,0,0,1-1.49,3.69,7.75,7.75,0,0,1-5.48,1.86,11,11,0,0,1-6-1.73Z"/><path d="M485.08,73.48a13.68,13.68,0,0,1-5,1.1,12,12,0,0,1-8.57-3.33,11.57,11.57,0,0,1-3.35-8.06A11.61,11.61,0,0,1,479.9,51.57a13.74,13.74,0,0,1,5.18,1.12v6.88a6.18,6.18,0,0,0-5-2.43,5.61,5.61,0,0,0-4,1.46,6.21,6.21,0,0,0-1.93,4.55A5.69,5.69,0,0,0,480.06,69a6.5,6.5,0,0,0,5-2.33Z"/><path d="M503.17,72.12a10.15,10.15,0,0,1-13.25,0,7.67,7.67,0,0,1,0-10.93,10.18,10.18,0,0,1,13.25,0,7.67,7.67,0,0,1,0,10.93Zm-9-7.9a3.29,3.29,0,0,0,0,4.78,3.4,3.4,0,0,0,2.39,1,3.37,3.37,0,0,0,2.36-1,3.26,3.26,0,0,0,1-2.36,3.56,3.56,0,0,0-1-2.42,3.39,3.39,0,0,0-4.75,0Z"/><path d="M508.52,59.24h5.31v1.85a5.61,5.61,0,0,1,4.71-2.19,6,6,0,0,1,4.39,1.6,5.11,5.11,0,0,1,1.39,4.15v9.43H519V66.57a4.27,4.27,0,0,0-.67-2.89,2.21,2.21,0,0,0-1.69-.63,2.9,2.9,0,0,0-2,.7,3.42,3.42,0,0,0-.86,2.36v8h-5.31Z"/><path d="M533.81,63.58v10.5H528.5V63.58h-1.69V59.24h1.69V54.35h5.31v4.89h3v4.34Z"/><path d="M538.83,59.24h5.31v2.42a4.75,4.75,0,0,1,2.09-2.06A5.83,5.83,0,0,1,549,59c.13,0,.36,0,1.06.07v5a4.76,4.76,0,0,0-2.29-.53,3.49,3.49,0,0,0-2.43.8,4.51,4.51,0,0,0-1.19,3.39v6.34h-5.31Z"/><path d="M566.68,72.12a10.14,10.14,0,0,1-13.24,0,7.42,7.42,0,0,1-2.3-5.48,7.34,7.34,0,0,1,2.3-5.45,9.25,9.25,0,0,1,6.6-2.45,9.36,9.36,0,0,1,6.64,2.45,7.34,7.34,0,0,1,2.3,5.45A7.42,7.42,0,0,1,566.68,72.12Zm-9-7.9A3.38,3.38,0,0,0,560.08,70a3.36,3.36,0,0,0,2.35-1,3.26,3.26,0,0,0,1-2.36,3.56,3.56,0,0,0-1-2.42,3.38,3.38,0,0,0-4.74,0Z"/><path d="M577.34,49.87V74.08H572V49.87Z"/><path d="M594.94,51.93V69.2h6.9v4.88H589.19V51.93Z"/><path d="M607,50.07a3,3,0,1,1-3,3A3,3,0,0,1,607,50.07Zm2.66,9.17V74.08H604.3V59.24Z"/><path d="M614.19,69.16a7.44,7.44,0,0,0,2.13,1.1,6.92,6.92,0,0,0,2,.36,2.35,2.35,0,0,0,1.37-.39.87.87,0,0,0,.26-.7.8.8,0,0,0-.26-.67,3.62,3.62,0,0,0-1.4-.53L617,68a4.79,4.79,0,0,1-2.59-1.29,3.58,3.58,0,0,1-1-2.56,5.3,5.3,0,0,1,1.4-3.62,7.5,7.5,0,0,1,5.31-1.79,12.17,12.17,0,0,1,4.75,1l-1.79,3.39a7.22,7.22,0,0,0-2.79-.73,2.24,2.24,0,0,0-1.23.3.78.78,0,0,0-.47.73.88.88,0,0,0,.63.83c.5.2.93.2,1.76.43l1,.26a6.2,6.2,0,0,1,2.19,1.17,4.17,4.17,0,0,1,1.13,3,5,5,0,0,1-1.5,3.69,7.74,7.74,0,0,1-5.48,1.86,11,11,0,0,1-6-1.73Z"/><path d="M633.85,63.58v10.5h-5.32V63.58h-1.69V59.24h1.69V54.35h5.32v4.89h3v4.34Z"/><line x1="468.91" y1="100.78" x2="468.91" y2="461.55" style="fill:none;stroke:#4fc2c9;stroke-miterlimit:10;stroke-width:3px"/><path d="M145.48,139.57v13.12a4.47,4.47,0,0,0,1.13,3.42,4.13,4.13,0,0,0,2.72,1.06,4.2,4.2,0,0,0,2.66-1c1.32-1.17,1.29-2.79,1.29-4V139.57H159v12.72c0,2.32-.1,4.75-2.49,7.17a9.58,9.58,0,0,1-7.31,2.75c-3.49,0-6-1.19-7.34-2.65-1.92-2.09-2.16-4.92-2.16-7.27V139.57Z"/><path d="M169.05,151.22v10.5h-5.31v-10.5H162v-4.34h1.7V142h5.31v4.89h3v4.34Z"/><path d="M176.72,137.71a3,3,0,1,1-3,3A3,3,0,0,1,176.72,137.71Zm2.66,9.17v14.84h-5.32V146.88Z"/><path d="M188.31,137.51v24.21H183V137.51Z"/><path d="M194.58,137.71a3,3,0,1,1-3,3A3,3,0,0,1,194.58,137.71Zm2.66,9.17v14.84h-5.32V146.88Z"/><path d="M208.59,157.37h6.21v4.35H199.69l7-10.5h-6v-4.34h14.81Z"/><path d="M229.51,146.88h5.31v14.84h-5.31v-1.63a5.56,5.56,0,0,1-4.62,2.12,7.1,7.1,0,0,1-5.34-2.35,7.49,7.49,0,0,1-2.13-5.45,8.21,8.21,0,0,1,2.29-5.94,7.64,7.64,0,0,1,5.35-2.09,5.9,5.9,0,0,1,4.45,1.92Zm-5.58,5a3.46,3.46,0,0,0-1.06,2.42,3.4,3.4,0,0,0,1,2.42,3.72,3.72,0,0,0,2.39,1,3.44,3.44,0,0,0,2.39-1,3.37,3.37,0,0,0,0-4.81,3.36,3.36,0,0,0-2.39-1A3.4,3.4,0,0,0,223.93,151.86Z"/><path d="M244.35,151.22v10.5H239v-10.5h-1.69v-4.34H239V142h5.32v4.89h3v4.34Z"/><path d="M264.3,159.76a10.18,10.18,0,0,1-13.25,0,7.67,7.67,0,0,1,0-10.93,10.18,10.18,0,0,1,13.25,0,7.67,7.67,0,0,1,0,10.93Zm-9-7.9a3.29,3.29,0,0,0,0,4.78,3.4,3.4,0,0,0,2.39,1,3.37,3.37,0,0,0,2.36-1,3.3,3.3,0,0,0,1-2.36,3.6,3.6,0,0,0-1-2.42,3.39,3.39,0,0,0-4.75,0Z"/><path d="M269.64,146.88H275v2.42a4.75,4.75,0,0,1,2.09-2.06,5.82,5.82,0,0,1,2.75-.6c.14,0,.37,0,1.07.07v5a4.76,4.76,0,0,0-2.29-.53,3.49,3.49,0,0,0-2.43.8,4.47,4.47,0,0,0-1.19,3.39v6.34h-5.32Z"/><path d="M305.1,137.51h4.35l-17,30.45h-4.31Z"/><path d="M332.13,149.17h11.42c0,4.38-.9,7.5-3.55,10a10.82,10.82,0,0,1-7.81,2.79,11.44,11.44,0,0,1-8.5-3.29,11.16,11.16,0,0,1-3.18-8,11.52,11.52,0,0,1,3.32-8.3,12.84,12.84,0,0,1,14.57-1.76,10.75,10.75,0,0,1,4,4.55l-5.47,2.25a5.34,5.34,0,0,0-1.6-2.22,4.63,4.63,0,0,0-3.09-1.1,5.34,5.34,0,0,0-3.78,1.53,7.45,7.45,0,0,0-1.93,5.08,6.9,6.9,0,0,0,1.76,4.78,5.23,5.23,0,0,0,4.05,1.69,4.75,4.75,0,0,0,3.19-1,4,4,0,0,0,1.36-2.46h-4.71Z"/><path d="M346.7,146.88H352v2.42a4.81,4.81,0,0,1,2.09-2.06,5.83,5.83,0,0,1,2.76-.6c.13,0,.37,0,1.06.07v5a4.68,4.68,0,0,0-2.29-.53,3.45,3.45,0,0,0-2.42.8,4.48,4.48,0,0,0-1.2,3.39v6.34H346.7Z"/><path d="M365.59,146.88v8.3a2.83,2.83,0,0,0,.8,2.15,2.72,2.72,0,0,0,1.86.57,2.5,2.5,0,0,0,1.89-.63,2.77,2.77,0,0,0,.76-2.09v-8.3h5.32v9.26a5.08,5.08,0,0,1-1.43,4c-1.83,1.9-4.38,2.09-6.41,2.09-2.22,0-4.95-.23-6.71-2.12a5.33,5.33,0,0,1-1.39-4v-9.26Z"/><path d="M385.18,169.32h-5.31V146.88h5.31v1.62a5.56,5.56,0,0,1,4.55-2.12,7.37,7.37,0,0,1,5.28,2.16,8.41,8.41,0,0,1-.14,11.62,7.14,7.14,0,0,1-5.08,2.05,6.29,6.29,0,0,1-4.61-1.92Zm.86-17.43a3.64,3.64,0,0,0-1,2.46,3.58,3.58,0,0,0,1,2.35,3.41,3.41,0,0,0,2.39,1,3.22,3.22,0,0,0,2.36-1,3.52,3.52,0,0,0,1-2.35,3.64,3.64,0,0,0-1-2.46,3.22,3.22,0,0,0-2.36-1A3.41,3.41,0,0,0,386,151.89Z"/><path d="M620.59,153.38v7.34h-5.75V138.57H624a7.67,7.67,0,0,1,5.61,2,6.89,6.89,0,0,1,2.06,5.38,7.22,7.22,0,0,1-2,5.51,7.37,7.37,0,0,1-5.52,1.93Zm0-4.65h1.92a3.78,3.78,0,0,0,2.43-.7,2.54,2.54,0,0,0,.73-2,2.67,2.67,0,0,0-.67-2,3.37,3.37,0,0,0-2.46-.8h-1.95Z"/><path d="M649.57,154.28H638.51a3.78,3.78,0,0,0,.93,2.49,3,3,0,0,0,2.19.73,4.27,4.27,0,0,0,1.73-.4,2.45,2.45,0,0,0,.93-1h5.08a6.74,6.74,0,0,1-1.79,3.06c-1.1,1.06-2.82,2.05-6.05,2.05a8.45,8.45,0,0,1-6.14-2.25,7.8,7.8,0,0,1-2.19-5.61,7.92,7.92,0,0,1,2.23-5.75,8.35,8.35,0,0,1,6.07-2.16,8.13,8.13,0,0,1,5.71,2,8.31,8.31,0,0,1,2.36,6.24Zm-4.88-3.06a3.63,3.63,0,0,0-.86-1.59,3.1,3.1,0,0,0-2.2-.8,2.82,2.82,0,0,0-2.15.8,3,3,0,0,0-.8,1.59Z"/><path d="M652.62,145.88h5.32v2.42a4.75,4.75,0,0,1,2.09-2.06,5.79,5.79,0,0,1,2.75-.6c.14,0,.37,0,1.07.07v5a4.77,4.77,0,0,0-2.3-.53,3.47,3.47,0,0,0-2.42.8,4.47,4.47,0,0,0-1.19,3.39v6.34h-5.32Z"/><path d="M666.2,145.88h5.31v1.79a5.71,5.71,0,0,1,4.45-2.06,6.07,6.07,0,0,1,2.86.66,4.73,4.73,0,0,1,2.06,2.13,5.3,5.3,0,0,1,2-2.06,6,6,0,0,1,3.09-.73,5.93,5.93,0,0,1,4.12,1.36,5.45,5.45,0,0,1,1.39,4.08v9.67h-5.31v-7.34c0-1.56-.17-2.62-.76-3.19a2,2,0,0,0-1.4-.5,2.16,2.16,0,0,0-1.56.6,3.77,3.77,0,0,0-1,2.82v7.61H676.2v-7.34c0-1.43-.1-2.56-.7-3.19a2.06,2.06,0,0,0-1.6-.6,1.86,1.86,0,0,0-1.46.54,4.37,4.37,0,0,0-.93,3.25v7.34H666.2Z"/><path d="M697.84,136.71a3,3,0,1,1-3,3A3,3,0,0,1,697.84,136.71Zm2.66,9.17v14.84h-5.31V145.88Z"/><path d="M705.08,155.8a7.39,7.39,0,0,0,2.12,1.1,7,7,0,0,0,2.06.36,2.29,2.29,0,0,0,1.36-.39.85.85,0,0,0,.27-.7.78.78,0,0,0-.27-.67,3.51,3.51,0,0,0-1.39-.53l-1.4-.33a4.83,4.83,0,0,1-2.59-1.29,3.62,3.62,0,0,1-1-2.56,5.3,5.3,0,0,1,1.4-3.62,7.5,7.5,0,0,1,5.31-1.79,12.22,12.22,0,0,1,4.75,1l-1.8,3.39a7.18,7.18,0,0,0-2.79-.73,2.29,2.29,0,0,0-1.22.29.81.81,0,0,0-.47.74.88.88,0,0,0,.63.83c.5.19.93.19,1.76.43l1,.26a6.4,6.4,0,0,1,2.2,1.16,4.21,4.21,0,0,1,1.13,3,5,5,0,0,1-1.5,3.69,7.74,7.74,0,0,1-5.48,1.85,10.9,10.9,0,0,1-6-1.72Z"/><path d="M721.51,136.71a3,3,0,1,1-3,3A3,3,0,0,1,721.51,136.71Zm2.66,9.17v14.84h-5.31V145.88Z"/><path d="M733.1,145.88v8.3a2.83,2.83,0,0,0,.8,2.15,2.71,2.71,0,0,0,1.86.57,2.5,2.5,0,0,0,1.89-.63,2.77,2.77,0,0,0,.76-2.09v-8.3h5.31v9.26a5.11,5.11,0,0,1-1.42,4c-1.83,1.9-4.39,2.09-6.41,2.09-2.23,0-4.95-.23-6.71-2.12a5.33,5.33,0,0,1-1.39-4v-9.26Z"/><path d="M747.37,145.88h5.32v1.85a5.61,5.61,0,0,1,4.71-2.19,6,6,0,0,1,4.38,1.6,5.09,5.09,0,0,1,1.4,4.15v9.43h-5.31v-7.51c0-.86,0-2.16-.67-2.89a2.23,2.23,0,0,0-1.69-.63,2.9,2.9,0,0,0-2,.7,3.42,3.42,0,0,0-.86,2.36v8h-5.32Z"/><path d="M769.45,136.71a3,3,0,1,1-3,3A3,3,0,0,1,769.45,136.71Zm2.66,9.17v14.84H766.8V145.88Z"/><rect x="498.71" y="224.51" width="102.13" height="32.36" rx="12" ry="12" style="fill:none;stroke:#4fc2c9;stroke-miterlimit:10;stroke-width:3.1126395890722px"/><rect x="614.91" y="225.06" width="102.13" height="32.36" rx="12" ry="12" style="fill:none;stroke:#4fc2c9;stroke-miterlimit:10;stroke-width:3.1126395890722px"/><rect x="735.54" y="224.51" width="131.47" height="32.36" rx="12" ry="12" style="fill:none;stroke:#4fc2c9;stroke-miterlimit:10;stroke-width:3.53156682900765px"/><circle cx="515.2" cy="240.69" r="8.85" style="fill:#c13018"/><path d="M538.23,238.7h3.54v1.61a3.18,3.18,0,0,1,1.4-1.37,3.82,3.82,0,0,1,1.83-.4c.09,0,.25,0,.71.05v3.34a3.12,3.12,0,0,0-1.53-.35,2.29,2.29,0,0,0-1.61.53,3,3,0,0,0-.8,2.26v4.23h-3.54Z"/><path d="M557.77,244.3H550.4A2.5,2.5,0,0,0,551,246a2,2,0,0,0,1.46.49,2.76,2.76,0,0,0,1.16-.27,1.66,1.66,0,0,0,.62-.66h3.38a4.35,4.35,0,0,1-1.19,2,5.38,5.38,0,0,1-4,1.38,5.62,5.62,0,0,1-4.1-1.51,5.19,5.19,0,0,1-1.46-3.74,5.29,5.29,0,0,1,1.48-3.83,5.58,5.58,0,0,1,4.06-1.44,5.39,5.39,0,0,1,3.8,1.35,5.52,5.52,0,0,1,1.57,4.16Zm-3.25-2a2.4,2.4,0,0,0-.58-1.06,2,2,0,0,0-1.46-.53,1.91,1.91,0,0,0-1.44.53,2.09,2.09,0,0,0-.53,1.06Z"/><path d="M567.47,238.7H571v9.9h-3.54v-1.09a3.7,3.7,0,0,1-3.08,1.42,4.73,4.73,0,0,1-3.56-1.57,5,5,0,0,1-1.42-3.64,5.46,5.46,0,0,1,1.53-4,5.08,5.08,0,0,1,3.56-1.39,3.93,3.93,0,0,1,3,1.28ZM563.75,242a2.3,2.3,0,0,0-.71,1.62,2.25,2.25,0,0,0,.69,1.61,2.43,2.43,0,0,0,1.59.67,2.31,2.31,0,0,0,1.6-.69,2.25,2.25,0,0,0,0-3.21,2.25,2.25,0,0,0-3.14,0Z"/><path d="M584.65,248.6H581.1v-1.09a3.64,3.64,0,0,1-3,1.42,4.73,4.73,0,0,1-3.47-1.38,5.6,5.6,0,0,1,0-7.86,5.09,5.09,0,0,1,3.5-1.32,3.89,3.89,0,0,1,2.94,1.28v-7.2h3.55Zm-4.19-3.28a2.36,2.36,0,0,0,.75-1.68,2.62,2.62,0,0,0-.66-1.6,2.28,2.28,0,0,0-3.19,0,2.43,2.43,0,0,0-.69,1.68,2.25,2.25,0,0,0,.69,1.55,2.19,2.19,0,0,0,1.57.67A2.44,2.44,0,0,0,580.46,245.32Z"/><circle cx="631.82" cy="241.24" r="8.85" style="fill:#91c54f"/><path d="M654.6,239.19l2.35,5.22,2.5-5.22h2.17l2.5,5.38,2.48-5.38h3.94l-5.18,9.89H663l-2.48-5.44-2.37,5.44h-2.39l-5.09-9.89Z"/><path d="M671.75,239.19h3.54v1.61a3.22,3.22,0,0,1,1.4-1.37,3.83,3.83,0,0,1,1.84-.4l.71,0v3.35a3.12,3.12,0,0,0-1.53-.36,2.35,2.35,0,0,0-1.62.53,3,3,0,0,0-.8,2.26v4.23h-3.54Z"/><path d="M682.58,233.07a2,2,0,1,1-2,2A2,2,0,0,1,682.58,233.07Zm1.77,6.12v9.89h-3.54v-9.89Z"/><path d="M690.68,242.09v7h-3.54v-7H686v-2.9h1.13v-3.26h3.54v3.26h2v2.9Z"/><path d="M704.51,244.79h-7.37a2.5,2.5,0,0,0,.62,1.66,2,2,0,0,0,1.46.48,2.8,2.8,0,0,0,1.15-.26A1.59,1.59,0,0,0,701,246h3.39a4.4,4.4,0,0,1-1.19,2,5.4,5.4,0,0,1-4,1.37,5.6,5.6,0,0,1-4.1-1.5,5.19,5.19,0,0,1-1.46-3.74,5.29,5.29,0,0,1,1.48-3.83,5.57,5.57,0,0,1,4-1.44,5.41,5.41,0,0,1,3.81,1.35,5.51,5.51,0,0,1,1.57,4.16Zm-3.25-2a2.3,2.3,0,0,0-.58-1.06,2,2,0,0,0-1.46-.53,1.89,1.89,0,0,0-1.44.53,2.05,2.05,0,0,0-.53,1.06Z"/><circle cx="755.77" cy="240.69" r="8.85" style="fill:#91c54f"/><path d="M786.3,242.81h-7.38a2.52,2.52,0,0,0,.62,1.66A2,2,0,0,0,781,245a2.87,2.87,0,0,0,1.16-.26,1.76,1.76,0,0,0,.62-.67h3.38a4.37,4.37,0,0,1-1.19,2,5.37,5.37,0,0,1-4,1.37,5.65,5.65,0,0,1-4.1-1.5,5.19,5.19,0,0,1-1.46-3.74,5.28,5.28,0,0,1,1.48-3.83,5.58,5.58,0,0,1,4.06-1.44,5.39,5.39,0,0,1,3.8,1.35,5.51,5.51,0,0,1,1.58,4.16Zm-3.26-2a2.38,2.38,0,0,0-.57-1.06,2.07,2.07,0,0,0-1.47-.54,1.91,1.91,0,0,0-1.44.54,2.05,2.05,0,0,0-.53,1.06Z"/><path d="M791.83,241.72l-4-4.52h4.6l1.71,2,1.75-2h4.58l-4.09,4.52,5,5.38h-4.69l-2.52-2.94-2.53,2.94h-4.69Z"/><path d="M812.19,242.81h-7.37a2.52,2.52,0,0,0,.62,1.66,2,2,0,0,0,1.46.48,2.8,2.8,0,0,0,1.15-.26,1.69,1.69,0,0,0,.62-.67h3.39a4.5,4.5,0,0,1-1.2,2,5.37,5.37,0,0,1-4,1.37,5.62,5.62,0,0,1-4.09-1.5,5.19,5.19,0,0,1-1.46-3.74,5.28,5.28,0,0,1,1.48-3.83,5.55,5.55,0,0,1,4-1.44,5.41,5.41,0,0,1,3.81,1.35,5.54,5.54,0,0,1,1.57,4.16Zm-3.25-2a2.3,2.3,0,0,0-.58-1.06,2.05,2.05,0,0,0-1.46-.54,1.9,1.9,0,0,0-1.44.54,2.05,2.05,0,0,0-.53,1.06Z"/><path d="M821.71,246.88a5.31,5.31,0,0,1-2.46.55,5.5,5.5,0,0,1-3.9-1.5,5.18,5.18,0,0,1-1.52-3.7,5.37,5.37,0,0,1,1.59-3.83,5.68,5.68,0,0,1,4-1.51,5,5,0,0,1,2.31.56v3a3.2,3.2,0,0,0-1.84-.64,2.32,2.32,0,0,0-1.73.69,2.44,2.44,0,0,0-.68,1.7,2.52,2.52,0,0,0,.62,1.66,2.36,2.36,0,0,0,1.81.76,2.66,2.66,0,0,0,1.82-.67Z"/><path d="M827.26,237.2v5.54a1.91,1.91,0,0,0,.53,1.44,1.83,1.83,0,0,0,1.24.37,1.62,1.62,0,0,0,1.26-.42,1.8,1.8,0,0,0,.51-1.39V237.2h3.55v6.18a3.43,3.43,0,0,1-1,2.66,5.67,5.67,0,0,1-4.28,1.39c-1.48,0-3.3-.15-4.47-1.41a3.59,3.59,0,0,1-.93-2.64V237.2Z"/><path d="M840.7,240.1v7h-3.55v-7H836v-2.9h1.13V234h3.55v3.25h2v2.9Z"/><path d="M854.53,242.81h-7.37a2.52,2.52,0,0,0,.62,1.66,2,2,0,0,0,1.46.48,2.8,2.8,0,0,0,1.15-.26A1.69,1.69,0,0,0,851,244h3.39a4.5,4.5,0,0,1-1.2,2,5.37,5.37,0,0,1-4,1.37,5.64,5.64,0,0,1-4.09-1.5,5.19,5.19,0,0,1-1.46-3.74,5.28,5.28,0,0,1,1.48-3.83,5.55,5.55,0,0,1,4-1.44,5.41,5.41,0,0,1,3.81,1.35,5.54,5.54,0,0,1,1.57,4.16Zm-3.25-2a2.3,2.3,0,0,0-.58-1.06,2,2,0,0,0-1.46-.54,1.9,1.9,0,0,0-1.44.54,2.05,2.05,0,0,0-.53,1.06Z"/><rect x="498.71" y="290.51" width="102.13" height="32.36" rx="12" ry="12" style="fill:none;stroke:#4fc2c9;stroke-miterlimit:10;stroke-width:3.1126395890722px"/><rect x="614.91" y="291.06" width="102.13" height="32.36" rx="12" ry="12" style="fill:none;stroke:#4fc2c9;stroke-miterlimit:10;stroke-width:3.1126395890722px"/><rect x="735.54" y="290.51" width="131.47" height="32.36" rx="12" ry="12" style="fill:none;stroke:#4fc2c9;stroke-miterlimit:10;stroke-width:3.53156682900765px"/><circle cx="515.2" cy="306.69" r="8.85" style="fill:#c13018"/><path d="M538.23,304.7h3.54v1.61a3.18,3.18,0,0,1,1.4-1.37,3.82,3.82,0,0,1,1.83-.4c.09,0,.25,0,.71,0v3.34a3.12,3.12,0,0,0-1.53-.35,2.29,2.29,0,0,0-1.61.53,3,3,0,0,0-.8,2.26v4.23h-3.54Z"/><path d="M557.77,310.3H550.4A2.5,2.5,0,0,0,551,312a2,2,0,0,0,1.46.49,2.76,2.76,0,0,0,1.16-.27,1.66,1.66,0,0,0,.62-.66h3.38a4.35,4.35,0,0,1-1.19,2,5.38,5.38,0,0,1-4,1.38,5.62,5.62,0,0,1-4.1-1.51,5.19,5.19,0,0,1-1.46-3.74,5.29,5.29,0,0,1,1.48-3.83,5.58,5.58,0,0,1,4.06-1.44,5.39,5.39,0,0,1,3.8,1.35,5.52,5.52,0,0,1,1.57,4.16Zm-3.25-2a2.4,2.4,0,0,0-.58-1.06,2,2,0,0,0-1.46-.53,1.91,1.91,0,0,0-1.44.53,2.09,2.09,0,0,0-.53,1.06Z"/><path d="M567.47,304.7H571v9.9h-3.54v-1.09a3.7,3.7,0,0,1-3.08,1.42,4.73,4.73,0,0,1-3.56-1.57,5,5,0,0,1-1.42-3.64,5.46,5.46,0,0,1,1.53-4,5.08,5.08,0,0,1,3.56-1.39,3.93,3.93,0,0,1,3,1.28ZM563.75,308a2.3,2.3,0,0,0-.71,1.62,2.25,2.25,0,0,0,.69,1.61,2.43,2.43,0,0,0,1.59.67,2.31,2.31,0,0,0,1.6-.69,2.25,2.25,0,0,0,0-3.21,2.25,2.25,0,0,0-3.14,0Z"/><path d="M584.65,314.6H581.1v-1.09a3.64,3.64,0,0,1-3,1.42,4.73,4.73,0,0,1-3.47-1.38,5.6,5.6,0,0,1,0-7.86,5.09,5.09,0,0,1,3.5-1.32,3.89,3.89,0,0,1,2.94,1.28v-7.2h3.55Zm-4.19-3.28a2.36,2.36,0,0,0,.75-1.68,2.62,2.62,0,0,0-.66-1.6,2.28,2.28,0,0,0-3.19,0,2.43,2.43,0,0,0-.69,1.68,2.25,2.25,0,0,0,.69,1.55,2.19,2.19,0,0,0,1.57.67A2.44,2.44,0,0,0,580.46,311.32Z"/><circle cx="631.82" cy="307.24" r="8.85" style="fill:#91c54f"/><path d="M654.6,305.19l2.35,5.22,2.5-5.22h2.17l2.5,5.38,2.48-5.38h3.94l-5.18,9.89H663l-2.48-5.44-2.37,5.44h-2.39l-5.09-9.89Z"/><path d="M671.75,305.19h3.54v1.61a3.22,3.22,0,0,1,1.4-1.37,3.83,3.83,0,0,1,1.84-.4l.71,0v3.35a3.12,3.12,0,0,0-1.53-.36,2.35,2.35,0,0,0-1.62.53,3,3,0,0,0-.8,2.26v4.23h-3.54Z"/><path d="M682.58,299.07a2,2,0,1,1-2,2A2,2,0,0,1,682.58,299.07Zm1.77,6.12v9.89h-3.54v-9.89Z"/><path d="M690.68,308.09v7h-3.54v-7H686v-2.9h1.13v-3.26h3.54v3.26h2v2.9Z"/><path d="M704.51,310.79h-7.37a2.5,2.5,0,0,0,.62,1.66,2,2,0,0,0,1.46.48,2.8,2.8,0,0,0,1.15-.26A1.59,1.59,0,0,0,701,312h3.39a4.4,4.4,0,0,1-1.19,2,5.4,5.4,0,0,1-4,1.37,5.6,5.6,0,0,1-4.1-1.5,5.19,5.19,0,0,1-1.46-3.74,5.29,5.29,0,0,1,1.48-3.83,5.57,5.57,0,0,1,4-1.44,5.41,5.41,0,0,1,3.81,1.35,5.51,5.51,0,0,1,1.57,4.16Zm-3.25-2a2.3,2.3,0,0,0-.58-1.06,2,2,0,0,0-1.46-.53,1.89,1.89,0,0,0-1.44.53,2.05,2.05,0,0,0-.53,1.06Z"/><circle cx="755.77" cy="306.69" r="8.85" style="fill:#c13018"/><path d="M786.3,308.81h-7.38a2.52,2.52,0,0,0,.62,1.66A2,2,0,0,0,781,311a2.87,2.87,0,0,0,1.16-.26,1.76,1.76,0,0,0,.62-.67h3.38a4.37,4.37,0,0,1-1.19,2,5.37,5.37,0,0,1-4,1.37,5.65,5.65,0,0,1-4.1-1.5,5.19,5.19,0,0,1-1.46-3.74,5.28,5.28,0,0,1,1.48-3.83,5.58,5.58,0,0,1,4.06-1.44,5.39,5.39,0,0,1,3.8,1.35,5.51,5.51,0,0,1,1.58,4.16Zm-3.26-2a2.38,2.38,0,0,0-.57-1.06,2.07,2.07,0,0,0-1.47-.54,1.91,1.91,0,0,0-1.44.54,2.05,2.05,0,0,0-.53,1.06Z"/><path d="M791.83,307.72l-4-4.52h4.6l1.71,2,1.75-2h4.58l-4.09,4.52,5,5.38h-4.69l-2.52-2.94-2.53,2.94h-4.69Z"/><path d="M812.19,308.81h-7.37a2.52,2.52,0,0,0,.62,1.66,2,2,0,0,0,1.46.48,2.8,2.8,0,0,0,1.15-.26,1.69,1.69,0,0,0,.62-.67h3.39a4.5,4.5,0,0,1-1.2,2,5.37,5.37,0,0,1-4,1.37,5.62,5.62,0,0,1-4.09-1.5,5.19,5.19,0,0,1-1.46-3.74,5.28,5.28,0,0,1,1.48-3.83,5.55,5.55,0,0,1,4-1.44,5.41,5.41,0,0,1,3.81,1.35,5.54,5.54,0,0,1,1.57,4.16Zm-3.25-2a2.3,2.3,0,0,0-.58-1.06,2.05,2.05,0,0,0-1.46-.54,1.9,1.9,0,0,0-1.44.54,2.05,2.05,0,0,0-.53,1.06Z"/><path d="M821.71,312.88a5.31,5.31,0,0,1-2.46.55,5.5,5.5,0,0,1-3.9-1.5,5.18,5.18,0,0,1-1.52-3.7,5.37,5.37,0,0,1,1.59-3.83,5.68,5.68,0,0,1,4-1.51,5,5,0,0,1,2.31.56v3a3.2,3.2,0,0,0-1.84-.64,2.32,2.32,0,0,0-1.73.69,2.44,2.44,0,0,0-.68,1.7,2.52,2.52,0,0,0,.62,1.66,2.36,2.36,0,0,0,1.81.76,2.66,2.66,0,0,0,1.82-.67Z"/><path d="M827.26,303.2v5.54a1.91,1.91,0,0,0,.53,1.44,1.83,1.83,0,0,0,1.24.37,1.62,1.62,0,0,0,1.26-.42,1.8,1.8,0,0,0,.51-1.39V303.2h3.55v6.18a3.43,3.43,0,0,1-1,2.66,5.67,5.67,0,0,1-4.28,1.39c-1.48,0-3.3-.15-4.47-1.41a3.59,3.59,0,0,1-.93-2.64V303.2Z"/><path d="M840.7,306.1v7h-3.55v-7H836v-2.9h1.13V300h3.55v3.25h2v2.9Z"/><path d="M854.53,308.81h-7.37a2.52,2.52,0,0,0,.62,1.66,2,2,0,0,0,1.46.48,2.8,2.8,0,0,0,1.15-.26A1.69,1.69,0,0,0,851,310h3.39a4.5,4.5,0,0,1-1.2,2,5.37,5.37,0,0,1-4,1.37,5.64,5.64,0,0,1-4.09-1.5,5.19,5.19,0,0,1-1.46-3.74,5.28,5.28,0,0,1,1.48-3.83,5.55,5.55,0,0,1,4-1.44,5.41,5.41,0,0,1,3.81,1.35,5.54,5.54,0,0,1,1.57,4.16Zm-3.25-2a2.3,2.3,0,0,0-.58-1.06,2,2,0,0,0-1.46-.54,1.9,1.9,0,0,0-1.44.54,2.05,2.05,0,0,0-.53,1.06Z"/><rect x="498.71" y="356.51" width="102.13" height="32.36" rx="12" ry="12" style="fill:none;stroke:#4fc2c9;stroke-miterlimit:10;stroke-width:3.1126395890722px"/><rect x="614.91" y="357.06" width="102.13" height="32.36" rx="12" ry="12" style="fill:none;stroke:#4fc2c9;stroke-miterlimit:10;stroke-width:3.1126395890722px"/><rect x="735.54" y="356.51" width="131.47" height="32.36" rx="12" ry="12" style="fill:none;stroke:#4fc2c9;stroke-miterlimit:10;stroke-width:3.53156682900765px"/><circle cx="515.2" cy="372.69" r="8.85" style="fill:#c13018"/><path d="M538.23,370.7h3.54v1.61a3.18,3.18,0,0,1,1.4-1.37,3.82,3.82,0,0,1,1.83-.4c.09,0,.25,0,.71,0v3.34a3.12,3.12,0,0,0-1.53-.35,2.29,2.29,0,0,0-1.61.53,3,3,0,0,0-.8,2.26v4.23h-3.54Z"/><path d="M557.77,376.3H550.4A2.5,2.5,0,0,0,551,378a2,2,0,0,0,1.46.49,2.76,2.76,0,0,0,1.16-.27,1.66,1.66,0,0,0,.62-.66h3.38a4.35,4.35,0,0,1-1.19,2,5.38,5.38,0,0,1-4,1.38,5.62,5.62,0,0,1-4.1-1.51,5.19,5.19,0,0,1-1.46-3.74,5.29,5.29,0,0,1,1.48-3.83,5.58,5.58,0,0,1,4.06-1.44,5.39,5.39,0,0,1,3.8,1.35,5.52,5.52,0,0,1,1.57,4.16Zm-3.25-2a2.4,2.4,0,0,0-.58-1.06,2,2,0,0,0-1.46-.53,1.91,1.91,0,0,0-1.44.53,2.09,2.09,0,0,0-.53,1.06Z"/><path d="M567.47,370.7H571v9.9h-3.54v-1.09a3.7,3.7,0,0,1-3.08,1.42,4.73,4.73,0,0,1-3.56-1.57,5,5,0,0,1-1.42-3.64,5.46,5.46,0,0,1,1.53-4,5.08,5.08,0,0,1,3.56-1.39,3.93,3.93,0,0,1,3,1.28ZM563.75,374a2.3,2.3,0,0,0-.71,1.62,2.25,2.25,0,0,0,.69,1.61,2.43,2.43,0,0,0,1.59.67,2.31,2.31,0,0,0,1.6-.69,2.25,2.25,0,0,0,0-3.21,2.25,2.25,0,0,0-3.14,0Z"/><path d="M584.65,380.6H581.1v-1.09a3.64,3.64,0,0,1-3,1.42,4.73,4.73,0,0,1-3.47-1.38,5.6,5.6,0,0,1,0-7.86,5.09,5.09,0,0,1,3.5-1.32,3.89,3.89,0,0,1,2.94,1.28v-7.2h3.55Zm-4.19-3.28a2.36,2.36,0,0,0,.75-1.68,2.62,2.62,0,0,0-.66-1.6,2.28,2.28,0,0,0-3.19,0,2.43,2.43,0,0,0-.69,1.68,2.25,2.25,0,0,0,.69,1.55,2.19,2.19,0,0,0,1.57.67A2.44,2.44,0,0,0,580.46,377.32Z"/><circle cx="631.82" cy="373.24" r="8.85" style="fill:#c13018"/><path d="M654.6,371.19l2.35,5.22,2.5-5.22h2.17l2.5,5.38,2.48-5.38h3.94l-5.18,9.89H663l-2.48-5.44-2.37,5.44h-2.39l-5.09-9.89Z"/><path d="M671.75,371.19h3.54v1.61a3.22,3.22,0,0,1,1.4-1.37,3.83,3.83,0,0,1,1.84-.4l.71,0v3.35a3.12,3.12,0,0,0-1.53-.36,2.35,2.35,0,0,0-1.62.53,3,3,0,0,0-.8,2.26v4.23h-3.54Z"/><path d="M682.58,365.07a2,2,0,1,1-2,2A2,2,0,0,1,682.58,365.07Zm1.77,6.12v9.89h-3.54v-9.89Z"/><path d="M690.68,374.09v7h-3.54v-7H686v-2.9h1.13v-3.26h3.54v3.26h2v2.9Z"/><path d="M704.51,376.79h-7.37a2.5,2.5,0,0,0,.62,1.66,2,2,0,0,0,1.46.48,2.8,2.8,0,0,0,1.15-.26A1.59,1.59,0,0,0,701,378h3.39a4.4,4.4,0,0,1-1.19,2,5.4,5.4,0,0,1-4,1.37,5.6,5.6,0,0,1-4.1-1.5,5.19,5.19,0,0,1-1.46-3.74,5.29,5.29,0,0,1,1.48-3.83,5.57,5.57,0,0,1,4-1.44,5.41,5.41,0,0,1,3.81,1.35,5.51,5.51,0,0,1,1.57,4.16Zm-3.25-2a2.3,2.3,0,0,0-.58-1.06,2,2,0,0,0-1.46-.53,1.89,1.89,0,0,0-1.44.53,2.05,2.05,0,0,0-.53,1.06Z"/><circle cx="755.77" cy="372.69" r="8.85" style="fill:#c13018"/><path d="M786.3,374.81h-7.38a2.52,2.52,0,0,0,.62,1.66A2,2,0,0,0,781,377a2.87,2.87,0,0,0,1.16-.26,1.76,1.76,0,0,0,.62-.67h3.38a4.37,4.37,0,0,1-1.19,2,5.37,5.37,0,0,1-4,1.37,5.65,5.65,0,0,1-4.1-1.5,5.19,5.19,0,0,1-1.46-3.74,5.28,5.28,0,0,1,1.48-3.83,5.58,5.58,0,0,1,4.06-1.44,5.39,5.39,0,0,1,3.8,1.35,5.51,5.51,0,0,1,1.58,4.16Zm-3.26-2a2.38,2.38,0,0,0-.57-1.06,2.07,2.07,0,0,0-1.47-.54,1.91,1.91,0,0,0-1.44.54,2.05,2.05,0,0,0-.53,1.06Z"/><path d="M791.83,373.72l-4-4.52h4.6l1.71,2,1.75-2h4.58l-4.09,4.52,5,5.38h-4.69l-2.52-2.94-2.53,2.94h-4.69Z"/><path d="M812.19,374.81h-7.37a2.52,2.52,0,0,0,.62,1.66,2,2,0,0,0,1.46.48,2.8,2.8,0,0,0,1.15-.26,1.69,1.69,0,0,0,.62-.67h3.39a4.5,4.5,0,0,1-1.2,2,5.37,5.37,0,0,1-4,1.37,5.62,5.62,0,0,1-4.09-1.5,5.19,5.19,0,0,1-1.46-3.74,5.28,5.28,0,0,1,1.48-3.83,5.55,5.55,0,0,1,4-1.44,5.41,5.41,0,0,1,3.81,1.35,5.54,5.54,0,0,1,1.57,4.16Zm-3.25-2a2.3,2.3,0,0,0-.58-1.06,2.05,2.05,0,0,0-1.46-.54,1.9,1.9,0,0,0-1.44.54,2.05,2.05,0,0,0-.53,1.06Z"/><path d="M821.71,378.88a5.31,5.31,0,0,1-2.46.55,5.5,5.5,0,0,1-3.9-1.5,5.18,5.18,0,0,1-1.52-3.7,5.37,5.37,0,0,1,1.59-3.83,5.68,5.68,0,0,1,4-1.51,5,5,0,0,1,2.31.56v3a3.2,3.2,0,0,0-1.84-.64,2.32,2.32,0,0,0-1.73.69,2.44,2.44,0,0,0-.68,1.7,2.52,2.52,0,0,0,.62,1.66,2.36,2.36,0,0,0,1.81.76,2.66,2.66,0,0,0,1.82-.67Z"/><path d="M827.26,369.2v5.54a1.91,1.91,0,0,0,.53,1.44,1.83,1.83,0,0,0,1.24.37,1.62,1.62,0,0,0,1.26-.42,1.8,1.8,0,0,0,.51-1.39V369.2h3.55v6.18a3.43,3.43,0,0,1-1,2.66,5.67,5.67,0,0,1-4.28,1.39c-1.48,0-3.3-.15-4.47-1.41a3.59,3.59,0,0,1-.93-2.64V369.2Z"/><path d="M840.7,372.1v7h-3.55v-7H836v-2.9h1.13V366h3.55v3.25h2v2.9Z"/><path d="M854.53,374.81h-7.37a2.52,2.52,0,0,0,.62,1.66,2,2,0,0,0,1.46.48,2.8,2.8,0,0,0,1.15-.26A1.69,1.69,0,0,0,851,376h3.39a4.5,4.5,0,0,1-1.2,2,5.37,5.37,0,0,1-4,1.37,5.64,5.64,0,0,1-4.09-1.5,5.19,5.19,0,0,1-1.46-3.74,5.28,5.28,0,0,1,1.48-3.83,5.55,5.55,0,0,1,4-1.44,5.41,5.41,0,0,1,3.81,1.35,5.54,5.54,0,0,1,1.57,4.16Zm-3.25-2a2.3,2.3,0,0,0-.58-1.06,2,2,0,0,0-1.46-.54,1.9,1.9,0,0,0-1.44.54,2.05,2.05,0,0,0-.53,1.06Z"/><line x1="44.5" y1="272.19" x2="893.32" y2="272.19" style="fill:none;stroke:#4fc2c9;stroke-miterlimit:10;stroke-width:3px"/><line x1="44.5" y1="207.02" x2="893.32" y2="207.02" style="fill:none;stroke:#4fc2c9;stroke-miterlimit:10;stroke-width:3px"/><line x1="43.5" y1="337.35" x2="892.32" y2="337.35" style="fill:none;stroke:#4fc2c9;stroke-miterlimit:10;stroke-width:3px"/><path d="M215.51,436a2.31,2.31,0,0,1,1.62-3.92,2.33,2.33,0,0,1,1.64.71,2.31,2.31,0,0,1,0,3.21,2.25,2.25,0,0,1-3.24,0Z"/><path d="M222.22,436a2.31,2.31,0,0,1,1.62-3.92,2.33,2.33,0,0,1,1.64.71,2.17,2.17,0,0,1,.64,1.6,2.13,2.13,0,0,1-.67,1.61,2.24,2.24,0,0,1-3.23,0Z"/><path d="M228.93,436a2.31,2.31,0,0,1,1.61-3.92,2.31,2.31,0,0,1,1.64.71,2.31,2.31,0,0,1,0,3.21,2.24,2.24,0,0,1-3.23,0Z"/><path d="M681.51,436a2.31,2.31,0,0,1,1.62-3.92,2.33,2.33,0,0,1,1.64.71,2.31,2.31,0,0,1,0,3.21,2.25,2.25,0,0,1-3.24,0Z"/><path d="M688.22,436a2.31,2.31,0,0,1,1.62-3.92,2.33,2.33,0,0,1,1.64.71,2.17,2.17,0,0,1,.64,1.6,2.13,2.13,0,0,1-.67,1.61,2.24,2.24,0,0,1-3.23,0Z"/><path d="M694.93,436a2.31,2.31,0,0,1,1.61-3.92,2.31,2.31,0,0,1,1.64.71,2.31,2.31,0,0,1,0,3.21,2.24,2.24,0,0,1-3.23,0Z"/><path d="M203.2,245.84V231.08h5.71a4.12,4.12,0,0,1,3.23,1.15,4,4,0,0,1,.91,2.77,3.81,3.81,0,0,1-.42,1.81,2.3,2.3,0,0,1-1.19,1.15,3.62,3.62,0,0,1,2,.89,3.7,3.7,0,0,1,1,2.7,4,4,0,0,1-1.09,2.9,5.55,5.55,0,0,1-4,1.39ZM207,236.9h.71a2,2,0,0,0,1.46-.47,1.43,1.43,0,0,0,.35-1,1.54,1.54,0,0,0-.35-1,2,2,0,0,0-1.46-.44H207Zm0,5.95h.86a3.24,3.24,0,0,0,2.37-.59,1.43,1.43,0,0,0,.31-1,1.5,1.5,0,0,0-.37-1.06,3.62,3.62,0,0,0-2.37-.49H207Z"/><path d="M226.51,244.54a6.78,6.78,0,0,1-8.84,0,5,5,0,0,1-1.52-3.66,4.89,4.89,0,0,1,1.52-3.63,6.22,6.22,0,0,1,4.41-1.63,6.28,6.28,0,0,1,4.43,1.63,4.9,4.9,0,0,1,1.53,3.63A5,5,0,0,1,226.51,244.54Zm-6-5.27a2.19,2.19,0,0,0,0,3.19,2.23,2.23,0,0,0,3.17,0,2.2,2.2,0,0,0,.68-1.58,2.39,2.39,0,0,0-.68-1.61,2.28,2.28,0,0,0-3.17,0Z"/><path d="M233.61,229.7v7.2a3.91,3.91,0,0,1,2.95-1.28,5,5,0,0,1,3.49,1.32,5.4,5.4,0,0,1,1.62,3.92,5.48,5.48,0,0,1-1.59,3.94,4.74,4.74,0,0,1-3.48,1.38,3.65,3.65,0,0,1-3-1.42v1.08h-3.54V229.7Zm3.74,12.8A2.21,2.21,0,0,0,238,241a2.43,2.43,0,0,0-.69-1.68,2.17,2.17,0,0,0-1.57-.64,2.14,2.14,0,0,0-1.61.66,2.57,2.57,0,0,0-.67,1.59,2.4,2.4,0,0,0,.75,1.69,2.46,2.46,0,0,0,1.53.6A2.18,2.18,0,0,0,237.35,242.5Z"/><path d="M211,305h7.61c0,2.92-.59,5-2.36,6.64a7.21,7.21,0,0,1-5.21,1.86,7.6,7.6,0,0,1-5.66-2.19A7.43,7.43,0,0,1,203.2,306a7.71,7.71,0,0,1,2.21-5.54,8.57,8.57,0,0,1,9.72-1.17,7.26,7.26,0,0,1,2.64,3l-3.66,1.51a3.53,3.53,0,0,0-1.06-1.49,3.1,3.1,0,0,0-2.06-.73,3.56,3.56,0,0,0-2.52,1,5,5,0,0,0-1.28,3.39,4.61,4.61,0,0,0,1.17,3.19,3.49,3.49,0,0,0,2.7,1.12,3.21,3.21,0,0,0,2.13-.68,2.64,2.64,0,0,0,.9-1.64H211Z"/><path d="M220.66,303.45h3.55v1.62a3.15,3.15,0,0,1,1.39-1.37,3.83,3.83,0,0,1,1.84-.4l.71,0v3.35a3.12,3.12,0,0,0-1.53-.36,2.35,2.35,0,0,0-1.62.53,3,3,0,0,0-.79,2.26v4.23h-3.55Z"/><path d="M233.26,303.45V309a1.88,1.88,0,0,0,.53,1.44,1.82,1.82,0,0,0,1.24.37,1.64,1.64,0,0,0,1.26-.42,1.84,1.84,0,0,0,.51-1.39v-5.54h3.54v6.18a3.39,3.39,0,0,1-1,2.66,5.65,5.65,0,0,1-4.27,1.39c-1.49,0-3.3-.15-4.48-1.41a3.59,3.59,0,0,1-.93-2.64v-6.18Z"/><path d="M246.32,318.42h-3.55v-15h3.55v1.09a3.68,3.68,0,0,1,3-1.42,4.91,4.91,0,0,1,3.52,1.44,5.61,5.61,0,0,1-.09,7.75,4.78,4.78,0,0,1-3.39,1.37,4.19,4.19,0,0,1-3.07-1.28Zm.57-11.62a2.23,2.23,0,0,0,0,3.21,2.27,2.27,0,0,0,1.6.66,2.13,2.13,0,0,0,1.57-.66,2.23,2.23,0,0,0,0-3.21,2.14,2.14,0,0,0-1.57-.67A2.28,2.28,0,0,0,246.89,306.8Z"/><path d="M265.53,301.84h-2.11v-3.26h5.94v14.77h-3.83Z"/><path d="M213.61,380.59h-5.36l-1,2.48H203.2l5.67-14.77h4.18l5.56,14.77h-4.1Zm-1-2.92-1.66-4.78-1.62,4.78Z"/><path d="M223.52,366.93v16.14H220V366.93Z"/><path d="M227.7,367.06a2,2,0,1,1-2,2A2,2,0,0,1,227.7,367.06Zm1.77,6.11v9.9h-3.54v-9.9Z"/><path d="M239.37,382.85a5.31,5.31,0,0,1-2.46.55,5.5,5.5,0,0,1-3.9-1.5,5.18,5.18,0,0,1-1.52-3.7,5.37,5.37,0,0,1,1.59-3.83,5.68,5.68,0,0,1,4-1.51,5,5,0,0,1,2.31.56v3a3.2,3.2,0,0,0-1.84-.64,2.32,2.32,0,0,0-1.73.69,2.44,2.44,0,0,0-.68,1.7,2.52,2.52,0,0,0,.62,1.66,2.36,2.36,0,0,0,1.81.76,2.66,2.66,0,0,0,1.82-.67Z"/><path d="M251.87,378.78H244.5a2.52,2.52,0,0,0,.62,1.66,2,2,0,0,0,1.46.48,2.8,2.8,0,0,0,1.15-.26,1.62,1.62,0,0,0,.62-.67h3.39a4.37,4.37,0,0,1-1.19,2,5.4,5.4,0,0,1-4,1.37,5.65,5.65,0,0,1-4.1-1.5,5.21,5.21,0,0,1-1.46-3.74,5.28,5.28,0,0,1,1.48-3.83,5.57,5.57,0,0,1,4.05-1.44,5.39,5.39,0,0,1,3.81,1.35,5.5,5.5,0,0,1,1.57,4.16Zm-3.25-2a2.3,2.3,0,0,0-.58-1.06,2,2,0,0,0-1.46-.54,1.9,1.9,0,0,0-1.44.54,2,2,0,0,0-.53,1.06Z"/><circle cx="619.5" cy="501.27" r="11" style="fill:#91c54f"/><path d="M656.81,507.32h-7.26l-1.35,3.36h-5.49l7.68-20h5.67l7.53,20H658Zm-1.38-4-2.25-6.48L651,503.36Z"/><path d="M665.45,497.27h4.8v2.19a4.33,4.33,0,0,1,1.89-1.86,5.24,5.24,0,0,1,2.49-.54l1,.06v4.53a4.23,4.23,0,0,0-2.07-.48,3.14,3.14,0,0,0-2.19.72,4,4,0,0,0-1.08,3.06v5.73h-4.8Z"/><path d="M691.94,504.86H682a3.39,3.39,0,0,0,.84,2.25,2.7,2.7,0,0,0,2,.66,3.79,3.79,0,0,0,1.56-.36,2.23,2.23,0,0,0,.84-.9h4.59a6,6,0,0,1-1.62,2.76c-1,1-2.55,1.86-5.46,1.86a7.61,7.61,0,0,1-5.55-2,7,7,0,0,1-2-5.07,7.16,7.16,0,0,1,2-5.19,7.55,7.55,0,0,1,5.49-1.95,7.35,7.35,0,0,1,5.16,1.83,7.51,7.51,0,0,1,2.13,5.64Zm-4.41-2.76a3.22,3.22,0,0,0-.78-1.44,2.8,2.8,0,0,0-2-.72,2.58,2.58,0,0,0-1.95.72,2.74,2.74,0,0,0-.72,1.44Z"/><path d="M706.49,517.55h-4.8V497.27h4.8v1.47a5,5,0,0,1,4.11-1.92,6.67,6.67,0,0,1,4.77,1.95,7.61,7.61,0,0,1-.12,10.5,6.44,6.44,0,0,1-4.59,1.86,5.71,5.71,0,0,1-4.17-1.74Zm.78-15.75a3.27,3.27,0,0,0-.93,2.22,3.24,3.24,0,0,0,.93,2.13,3.07,3.07,0,0,0,2.16.9,2.9,2.9,0,0,0,2.13-.9,3.17,3.17,0,0,0,.93-2.13,3.27,3.27,0,0,0-.93-2.22,2.9,2.9,0,0,0-2.13-.9A3.07,3.07,0,0,0,707.27,501.8Z"/><path d="M734.39,504.86h-10a3.39,3.39,0,0,0,.84,2.25,2.7,2.7,0,0,0,2,.66,3.79,3.79,0,0,0,1.56-.36,2.23,2.23,0,0,0,.84-.9h4.59a6,6,0,0,1-1.62,2.76c-1,1-2.55,1.86-5.46,1.86a7.61,7.61,0,0,1-5.55-2,7,7,0,0,1-2-5.07,7.16,7.16,0,0,1,2-5.19,7.55,7.55,0,0,1,5.49-1.95,7.35,7.35,0,0,1,5.16,1.83,7.51,7.51,0,0,1,2.13,5.64ZM730,502.1a3.22,3.22,0,0,0-.78-1.44,2.8,2.8,0,0,0-2-.72,2.58,2.58,0,0,0-2,.72,2.74,2.74,0,0,0-.72,1.44Z"/><path d="M737.15,497.27H742v2.19a4.33,4.33,0,0,1,1.89-1.86,5.24,5.24,0,0,1,2.49-.54l1,.06v4.53a4.23,4.23,0,0,0-2.07-.48,3.14,3.14,0,0,0-2.19.72A4,4,0,0,0,742,505v5.73h-4.8Z"/><path d="M749.42,497.27h4.8v1.62a5.15,5.15,0,0,1,4-1.86,5.46,5.46,0,0,1,2.58.6,4.19,4.19,0,0,1,1.86,1.92,4.71,4.71,0,0,1,1.83-1.86,5.44,5.44,0,0,1,2.79-.66,5.33,5.33,0,0,1,3.72,1.23,4.93,4.93,0,0,1,1.26,3.69v8.73h-4.8v-6.63c0-1.41-.15-2.37-.69-2.88a1.75,1.75,0,0,0-1.26-.45,1.94,1.94,0,0,0-1.41.54,3.43,3.43,0,0,0-.87,2.55v6.87h-4.8v-6.63a4.29,4.29,0,0,0-.63-2.88,1.86,1.86,0,0,0-1.44-.54,1.69,1.69,0,0,0-1.32.48,4,4,0,0,0-.84,2.94v6.63h-4.8Z"/><path d="M778,489a2.7,2.7,0,1,1-2.7,2.7A2.69,2.69,0,0,1,778,489Zm2.4,8.28v13.41h-4.8V497.27Z"/><path d="M784.55,506.24a6.87,6.87,0,0,0,1.92,1,6.25,6.25,0,0,0,1.86.33,2,2,0,0,0,1.23-.36.77.77,0,0,0,.24-.63.71.71,0,0,0-.24-.6,3,3,0,0,0-1.26-.48l-1.26-.3A4.31,4.31,0,0,1,784.7,504a3.24,3.24,0,0,1-.87-2.31,4.79,4.79,0,0,1,1.26-3.27,6.77,6.77,0,0,1,4.8-1.62,11.07,11.07,0,0,1,4.29.87l-1.62,3.06a6.64,6.64,0,0,0-2.52-.66,2,2,0,0,0-1.11.27.72.72,0,0,0-.42.66.78.78,0,0,0,.57.75c.45.18.84.18,1.59.39l.87.24a5.67,5.67,0,0,1,2,1.05,3.79,3.79,0,0,1,1,2.67,4.48,4.48,0,0,1-1.35,3.33,7,7,0,0,1-5,1.68,9.89,9.89,0,0,1-5.4-1.56Z"/><path d="M799.4,489a2.7,2.7,0,1,1-2.7,2.7A2.69,2.69,0,0,1,799.4,489Zm2.4,8.28v13.41H797V497.27Z"/><path d="M809.87,497.27v7.5a2.57,2.57,0,0,0,.72,2,2.48,2.48,0,0,0,1.68.51,2.24,2.24,0,0,0,1.71-.57,2.49,2.49,0,0,0,.69-1.89v-7.5h4.8v8.37a4.6,4.6,0,0,1-1.29,3.6c-1.65,1.71-4,1.89-5.79,1.89-2,0-4.47-.21-6.06-1.92a4.82,4.82,0,0,1-1.26-3.57v-8.37Z"/><path d="M822.77,497.27h4.8V499a5.06,5.06,0,0,1,4.26-2,5.42,5.42,0,0,1,4,1.44,4.62,4.62,0,0,1,1.26,3.75v8.52h-4.8V503.9a3.85,3.85,0,0,0-.6-2.61,2,2,0,0,0-1.53-.57,2.63,2.63,0,0,0-1.77.63,3.08,3.08,0,0,0-.78,2.13v7.2h-4.8Z"/><path d="M854.54,504.86h-10a3.39,3.39,0,0,0,.84,2.25,2.7,2.7,0,0,0,2,.66,3.79,3.79,0,0,0,1.56-.36,2.23,2.23,0,0,0,.84-.9h4.59a6,6,0,0,1-1.62,2.76c-1,1-2.55,1.86-5.46,1.86a7.61,7.61,0,0,1-5.55-2,7,7,0,0,1-2-5.07,7.16,7.16,0,0,1,2-5.19,7.55,7.55,0,0,1,5.49-1.95,7.35,7.35,0,0,1,5.16,1.83,7.51,7.51,0,0,1,2.13,5.64Zm-4.41-2.76a3.22,3.22,0,0,0-.78-1.44,2.8,2.8,0,0,0-2-.72,2.58,2.58,0,0,0-2,.72,2.74,2.74,0,0,0-.72,1.44Z"/><path d="M867.68,497.27h4.8v13.41h-4.8v-1.47a5,5,0,0,1-4.17,1.92,6.42,6.42,0,0,1-4.83-2.13,6.76,6.76,0,0,1-1.92-4.92,7.42,7.42,0,0,1,2.07-5.37,6.9,6.9,0,0,1,4.83-1.89,5.31,5.31,0,0,1,4,1.74Zm-5,4.5a3.14,3.14,0,0,0-1,2.19,3.09,3.09,0,0,0,.93,2.19,3.37,3.37,0,0,0,2.16.9,3.08,3.08,0,0,0,2.16-.93,2.91,2.91,0,0,0,.9-2.16,3,3,0,0,0-.93-2.19,3,3,0,0,0-4.26,0Z"/><circle cx="619.5" cy="542.63" r="11" style="fill:#c13018"/><path d="M644.6,553.32v-20h5.19l9.57,12.24V533.31h5.19v20h-5.19l-9.57-12.24v12.24Z"/><path d="M673.1,539.91v7.5a2.57,2.57,0,0,0,.72,2,2.48,2.48,0,0,0,1.68.51,2.24,2.24,0,0,0,1.71-.57,2.49,2.49,0,0,0,.69-1.89v-7.5h4.8v8.37a4.6,4.6,0,0,1-1.29,3.6c-1.65,1.71-4,1.89-5.79,1.89-2,0-4.47-.21-6.06-1.92a4.82,4.82,0,0,1-1.26-3.57v-8.37Z"/><path d="M703.37,539.91h4.8v13.41h-4.8v-1.47a5,5,0,0,1-4.17,1.92,6.42,6.42,0,0,1-4.83-2.13,6.76,6.76,0,0,1-1.92-4.92,7.42,7.42,0,0,1,2.07-5.37,6.9,6.9,0,0,1,4.83-1.89,5.31,5.31,0,0,1,4,1.74Zm-5,4.5a3.14,3.14,0,0,0-1,2.19,3.09,3.09,0,0,0,.93,2.19,3.37,3.37,0,0,0,2.16.9,3.08,3.08,0,0,0,2.16-.93,2.91,2.91,0,0,0,.9-2.16,3,3,0,0,0-.93-2.19,3,3,0,0,0-4.26,0Z"/><path d="M711.47,539.91h4.8v2.19a4.33,4.33,0,0,1,1.89-1.86,5.24,5.24,0,0,1,2.49-.54l1,.06v4.53a4.23,4.23,0,0,0-2.07-.48,3.14,3.14,0,0,0-2.19.72,4,4,0,0,0-1.08,3.06v5.73h-4.8Z"/><path d="M738,547.5H728a3.39,3.39,0,0,0,.84,2.25,2.7,2.7,0,0,0,2,.66,3.79,3.79,0,0,0,1.56-.36,2.23,2.23,0,0,0,.84-.9h4.59a6,6,0,0,1-1.62,2.76c-1,1-2.55,1.86-5.46,1.86a7.61,7.61,0,0,1-5.55-2,7,7,0,0,1-2-5.07,7.16,7.16,0,0,1,2-5.19,7.55,7.55,0,0,1,5.49-2,7.35,7.35,0,0,1,5.16,1.83A7.51,7.51,0,0,1,738,547Zm-4.41-2.76a3.22,3.22,0,0,0-.78-1.44,2.8,2.8,0,0,0-2-.72,2.58,2.58,0,0,0-1.95.72,2.74,2.74,0,0,0-.72,1.44Z"/><path d="M752.51,560.19h-4.8V539.91h4.8v1.47a5,5,0,0,1,4.11-1.92,6.67,6.67,0,0,1,4.77,1.95,7.61,7.61,0,0,1-.12,10.5,6.44,6.44,0,0,1-4.59,1.86,5.71,5.71,0,0,1-4.17-1.74Zm.78-15.75a3.27,3.27,0,0,0-.93,2.22,3.24,3.24,0,0,0,.93,2.13,3.07,3.07,0,0,0,2.16.9,2.9,2.9,0,0,0,2.13-.9,3.17,3.17,0,0,0,.93-2.13,3.27,3.27,0,0,0-.93-2.22,2.9,2.9,0,0,0-2.13-.9A3.07,3.07,0,0,0,753.29,544.44Z"/><path d="M780.41,547.5h-10a3.39,3.39,0,0,0,.84,2.25,2.7,2.7,0,0,0,2,.66,3.79,3.79,0,0,0,1.56-.36,2.23,2.23,0,0,0,.84-.9h4.59a6,6,0,0,1-1.62,2.76c-1,1-2.55,1.86-5.46,1.86a7.61,7.61,0,0,1-5.55-2,7,7,0,0,1-2-5.07,7.16,7.16,0,0,1,2-5.19,7.55,7.55,0,0,1,5.49-2,7.35,7.35,0,0,1,5.16,1.83,7.51,7.51,0,0,1,2.13,5.64ZM776,544.74a3.22,3.22,0,0,0-.78-1.44,2.8,2.8,0,0,0-2-.72,2.58,2.58,0,0,0-2,.72,2.74,2.74,0,0,0-.72,1.44Z"/><path d="M783.17,539.91H788v2.19a4.33,4.33,0,0,1,1.89-1.86,5.24,5.24,0,0,1,2.49-.54l1,.06v4.53a4.23,4.23,0,0,0-2.07-.48,3.14,3.14,0,0,0-2.19.72,4,4,0,0,0-1.08,3.06v5.73h-4.8Z"/><path d="M795.44,539.91h4.8v1.62a5.15,5.15,0,0,1,4-1.86,5.46,5.46,0,0,1,2.58.6,4.19,4.19,0,0,1,1.86,1.92,4.71,4.71,0,0,1,1.83-1.86,5.44,5.44,0,0,1,2.79-.66A5.33,5.33,0,0,1,817,540.9a4.93,4.93,0,0,1,1.26,3.69v8.73h-4.8v-6.63c0-1.41-.15-2.37-.69-2.88a1.75,1.75,0,0,0-1.26-.45,1.94,1.94,0,0,0-1.41.54,3.43,3.43,0,0,0-.87,2.55v6.87h-4.8v-6.63a4.29,4.29,0,0,0-.63-2.88,1.86,1.86,0,0,0-1.44-.54,1.69,1.69,0,0,0-1.32.48,4,4,0,0,0-.84,2.94v6.63h-4.8Z"/><path d="M824,531.63a2.7,2.7,0,1,1-2.7,2.7A2.69,2.69,0,0,1,824,531.63Zm2.4,8.28v13.41h-4.8V539.91Z"/><path d="M830.57,548.88a6.87,6.87,0,0,0,1.92,1,6.25,6.25,0,0,0,1.86.33,2,2,0,0,0,1.23-.36.77.77,0,0,0,.24-.63.71.71,0,0,0-.24-.6,3,3,0,0,0-1.26-.48l-1.26-.3a4.31,4.31,0,0,1-2.34-1.17,3.24,3.24,0,0,1-.87-2.31,4.79,4.79,0,0,1,1.26-3.27,6.77,6.77,0,0,1,4.8-1.62,11.07,11.07,0,0,1,4.29.87l-1.62,3.06a6.64,6.64,0,0,0-2.52-.66A2,2,0,0,0,835,543a.72.72,0,0,0-.42.66.78.78,0,0,0,.57.75c.45.18.84.18,1.59.39l.87.24a5.67,5.67,0,0,1,2,1.05,3.79,3.79,0,0,1,1,2.67,4.48,4.48,0,0,1-1.35,3.33,7,7,0,0,1-5,1.68,9.89,9.89,0,0,1-5.4-1.56Z"/><path d="M845.42,531.63a2.7,2.7,0,1,1-2.7,2.7A2.69,2.69,0,0,1,845.42,531.63Zm2.4,8.28v13.41H843V539.91Z"/><path d="M855.89,539.91v7.5a2.57,2.57,0,0,0,.72,2,2.48,2.48,0,0,0,1.68.51,2.24,2.24,0,0,0,1.71-.57,2.49,2.49,0,0,0,.69-1.89v-7.5h4.8v8.37a4.6,4.6,0,0,1-1.29,3.6c-1.65,1.71-4,1.89-5.79,1.89-2,0-4.47-.21-6.06-1.92a4.82,4.82,0,0,1-1.26-3.57v-8.37Z"/><path d="M868.79,539.91h4.8v1.68a5.06,5.06,0,0,1,4.26-2,5.42,5.42,0,0,1,4,1.44,4.62,4.62,0,0,1,1.26,3.75v8.52h-4.8v-6.78a3.85,3.85,0,0,0-.6-2.61,2,2,0,0,0-1.53-.57,2.63,2.63,0,0,0-1.77.63,3.08,3.08,0,0,0-.78,2.13v7.2h-4.8Z"/><path d="M900.56,547.5h-10a3.39,3.39,0,0,0,.84,2.25,2.7,2.7,0,0,0,2,.66,3.79,3.79,0,0,0,1.56-.36,2.23,2.23,0,0,0,.84-.9h4.59a6,6,0,0,1-1.62,2.76c-1,1-2.55,1.86-5.46,1.86a7.61,7.61,0,0,1-5.55-2,7,7,0,0,1-2-5.07,7.16,7.16,0,0,1,2-5.19,7.55,7.55,0,0,1,5.49-2,7.35,7.35,0,0,1,5.16,1.83,7.51,7.51,0,0,1,2.13,5.64Zm-4.41-2.76a3.22,3.22,0,0,0-.78-1.44,2.8,2.8,0,0,0-2-.72,2.58,2.58,0,0,0-1.95.72,2.74,2.74,0,0,0-.72,1.44Z"/><path d="M913.7,539.91h4.8v13.41h-4.8v-1.47a5,5,0,0,1-4.17,1.92,6.42,6.42,0,0,1-4.83-2.13,6.76,6.76,0,0,1-1.92-4.92,7.42,7.42,0,0,1,2.07-5.37,6.9,6.9,0,0,1,4.83-1.89,5.31,5.31,0,0,1,4,1.74Zm-5,4.5a3.14,3.14,0,0,0-1,2.19,3.09,3.09,0,0,0,.93,2.19,3.37,3.37,0,0,0,2.16.9,3.08,3.08,0,0,0,2.16-.93,2.91,2.91,0,0,0,.9-2.16,3,3,0,0,0-.93-2.19,3,3,0,0,0-4.26,0Z"/></svg>