<svg id="Layer_1" data-name="Layer 1" xmlns="http://www.w3.org/2000/svg" viewBox="0 0 1043 894"><title>Cap 5 -</title><rect x="382.24" y="403.23" width="237" height="69" rx="12" ry="12" style="fill:none;stroke:#f7931f;stroke-miterlimit:10;stroke-width:7px"/><circle cx="422.74" cy="437.73" r="16" style="fill:none;stroke:#f7931f;stroke-miterlimit:10;stroke-width:7px"/><circle cx="533.24" cy="438.23" r="5" style="fill:#f7931f"/><circle cx="550.24" cy="438.23" r="5" style="fill:#f7931f"/><circle cx="568.24" cy="438.23" r="5" style="fill:#f7931f"/><circle cx="586.24" cy="438.23" r="5" style="fill:#f7931f"/><circle cx="352.16" cy="138.26" r="10.08" style="fill:none;stroke:#f7931f;stroke-miterlimit:10;stroke-width:3.528px"/><rect x="310.84" y="159.43" width="41.83" height="3.02" rx="1.51" ry="1.51" transform="translate(-16.64 281.72) rotate(-45)" style="fill:#f7931f"/><rect x="321.67" y="170.27" width="2.02" height="8.57" rx="1.01" ry="1.01" transform="translate(-28.91 279.29) rotate(-45)" style="fill:#f7931f"/><rect x="325.39" y="166.96" width="2.02" height="10.52" rx="1.01" ry="1.01" transform="translate(-26.18 281.23) rotate(-45)" style="fill:#f7931f"/><rect x="328.66" y="163.68" width="2.02" height="10.52" rx="1.01" ry="1.01" transform="translate(-22.9 282.59) rotate(-45)" style="fill:#f7931f"/><circle cx="513.66" cy="138.26" r="10.08" style="fill:none;stroke:#f7931f;stroke-miterlimit:10;stroke-width:3.528px"/><rect x="472.34" y="159.43" width="41.83" height="3.02" rx="1.51" ry="1.51" transform="translate(30.67 395.92) rotate(-45)" style="fill:#f7931f"/><rect x="483.17" y="170.27" width="2.02" height="8.57" rx="1.01" ry="1.01" transform="translate(18.39 393.49) rotate(-45)" style="fill:#f7931f"/><rect x="486.89" y="166.96" width="2.02" height="10.52" rx="1.01" ry="1.01" transform="translate(21.12 395.43) rotate(-45)" style="fill:#f7931f"/><rect x="490.16" y="163.68" width="2.02" height="10.52" rx="1.01" ry="1.01" transform="translate(24.4 396.79) rotate(-45)" style="fill:#f7931f"/><circle cx="432.91" cy="138.26" r="10.08" style="fill:none;stroke:#f7931f;stroke-miterlimit:10;stroke-width:3.528px"/><rect x="391.59" y="159.43" width="41.83" height="3.02" rx="1.51" ry="1.51" transform="translate(7.02 338.82) rotate(-45)" style="fill:#f7931f"/><rect x="402.42" y="170.27" width="2.02" height="8.57" rx="1.01" ry="1.01" transform="translate(-5.26 336.39) rotate(-45)" style="fill:#f7931f"/><rect x="406.14" y="166.96" width="2.02" height="10.52" rx="1.01" ry="1.01" transform="translate(-2.53 338.33) rotate(-45)" style="fill:#f7931f"/><rect x="409.41" y="163.68" width="2.02" height="10.52" rx="1.01" ry="1.01" transform="translate(0.75 339.69) rotate(-45)" style="fill:#f7931f"/><circle cx="594.41" cy="138.26" r="10.08" style="fill:none;stroke:#f7931f;stroke-miterlimit:10;stroke-width:3.528px"/><rect x="553.09" y="159.43" width="41.83" height="3.02" rx="1.51" ry="1.51" transform="translate(54.32 453.02) rotate(-45)" style="fill:#f7931f"/><rect x="563.92" y="170.27" width="2.02" height="8.57" rx="1.01" ry="1.01" transform="translate(42.04 450.59) rotate(-45)" style="fill:#f7931f"/><rect x="567.64" y="166.96" width="2.02" height="10.52" rx="1.01" ry="1.01" transform="translate(44.78 452.53) rotate(-45)" style="fill:#f7931f"/><rect x="570.91" y="163.68" width="2.02" height="10.52" rx="1.01" ry="1.01" transform="translate(48.05 453.89) rotate(-45)" style="fill:#f7931f"/><circle cx="675.16" cy="138.26" r="10.08" style="fill:none;stroke:#f7931f;stroke-miterlimit:10;stroke-width:3.528px"/><rect x="633.84" y="159.43" width="41.83" height="3.02" rx="1.51" ry="1.51" transform="translate(77.97 510.12) rotate(-45)" style="fill:#f7931f"/><rect x="644.67" y="170.27" width="2.02" height="8.57" rx="1.01" ry="1.01" transform="translate(65.69 507.69) rotate(-45)" style="fill:#f7931f"/><rect x="648.39" y="166.96" width="2.02" height="10.52" rx="1.01" ry="1.01" transform="translate(68.43 509.63) rotate(-45)" style="fill:#f7931f"/><rect x="651.66" y="163.68" width="2.02" height="10.52" rx="1.01" ry="1.01" transform="translate(71.7 510.99) rotate(-45)" style="fill:#f7931f"/><path d="M83.7,840.41H76.44l-1.35,3.36H69.6l7.68-20H83l7.53,20H84.93Zm-1.38-4L80.07,830l-2.19,6.48Z"/><path d="M97.14,850.64h-4.8V830.36h4.8v1.47a5,5,0,0,1,4.11-1.92,6.67,6.67,0,0,1,4.77,2,7.61,7.61,0,0,1-.12,10.5,6.44,6.44,0,0,1-4.59,1.86,5.71,5.71,0,0,1-4.17-1.74Zm.78-15.75a3.27,3.27,0,0,0-.93,2.22,3.24,3.24,0,0,0,.93,2.13,3.07,3.07,0,0,0,2.16.9,2.9,2.9,0,0,0,2.13-.9,3.17,3.17,0,0,0,.93-2.13,3.27,3.27,0,0,0-.93-2.22,2.9,2.9,0,0,0-2.13-.9A3.07,3.07,0,0,0,97.92,834.89Z"/><path d="M115.62,821.9v21.87h-4.8V821.9Z"/><path d="M121.29,822.08a2.7,2.7,0,1,1-2.7,2.7A2.69,2.69,0,0,1,121.29,822.08Zm2.4,8.28v13.41h-4.8V830.36Z"/><path d="M137.1,843.47a7.12,7.12,0,0,1-3.33.75,7.41,7.41,0,0,1-5.28-2,7,7,0,0,1-2.07-5,7.3,7.3,0,0,1,2.16-5.19,7.73,7.73,0,0,1,5.4-2,6.88,6.88,0,0,1,3.12.75v4a4.28,4.28,0,0,0-2.49-.87,3.15,3.15,0,0,0-2.34.93,3.26,3.26,0,0,0-.93,2.31,3.44,3.44,0,0,0,.84,2.25,3.26,3.26,0,0,0,2.46,1,3.63,3.63,0,0,0,2.46-.9Z"/><path d="M150.21,830.36H155v13.41h-4.8V842.3a5,5,0,0,1-4.17,1.92,6.42,6.42,0,0,1-4.83-2.13,6.76,6.76,0,0,1-1.92-4.92,7.42,7.42,0,0,1,2.07-5.37,6.9,6.9,0,0,1,4.83-1.89,5.31,5.31,0,0,1,4,1.74Zm-5,4.5a3.14,3.14,0,0,0-1,2.19,3.09,3.09,0,0,0,.93,2.19,3.37,3.37,0,0,0,2.16.9,3.08,3.08,0,0,0,2.16-.93,2.91,2.91,0,0,0,.9-2.16,3,3,0,0,0-.93-2.19,3,3,0,0,0-4.26,0Z"/><path d="M163.62,834.29v9.48h-4.8v-9.48h-1.53v-3.93h1.53V826h4.8v4.41h2.73v3.93Zm-4.62,11,4.5.48-3.06,5.52-3-.36Z"/><path d="M170.55,822.08a2.7,2.7,0,1,1-2.7,2.7A2.69,2.69,0,0,1,170.55,822.08Zm2.4,8.28v13.41h-4.8V830.36Z"/><path d="M190.44,838h-10a3.39,3.39,0,0,0,.84,2.25,2.7,2.7,0,0,0,2,.66,3.79,3.79,0,0,0,1.56-.36,2.23,2.23,0,0,0,.84-.9h4.59a6,6,0,0,1-1.62,2.76c-1,1-2.55,1.86-5.46,1.86a7.61,7.61,0,0,1-5.55-2,7,7,0,0,1-2-5.07,7.16,7.16,0,0,1,2-5.19,7.55,7.55,0,0,1,5.49-1.95,7.35,7.35,0,0,1,5.16,1.83,7.51,7.51,0,0,1,2.13,5.64ZM186,835.19a3.22,3.22,0,0,0-.78-1.44,2.8,2.8,0,0,0-2-.72,2.58,2.58,0,0,0-2,.72,2.74,2.74,0,0,0-.72,1.44Z"/><path d="M205.56,828.17h-2.85v-4.41h8v20h-5.19Z"/><path d="M800.55,840.41h-7.26l-1.35,3.36h-5.49l7.68-20h5.67l7.53,20h-5.55Zm-1.38-4L796.92,830l-2.19,6.48Z"/><path d="M814,850.64h-4.8V830.36H814v1.47a5,5,0,0,1,4.11-1.92,6.67,6.67,0,0,1,4.77,2,7.61,7.61,0,0,1-.12,10.5,6.44,6.44,0,0,1-4.59,1.86,5.71,5.71,0,0,1-4.17-1.74Zm.78-15.75a3.27,3.27,0,0,0-.93,2.22,3.24,3.24,0,0,0,.93,2.13,3.07,3.07,0,0,0,2.16.9,2.9,2.9,0,0,0,2.13-.9,3.17,3.17,0,0,0,.93-2.13,3.27,3.27,0,0,0-.93-2.22,2.9,2.9,0,0,0-2.13-.9A3.07,3.07,0,0,0,814.77,834.89Z"/><path d="M832.47,821.9v21.87h-4.8V821.9Z"/><path d="M838.14,822.08a2.7,2.7,0,1,1-2.7,2.7A2.69,2.69,0,0,1,838.14,822.08Zm2.4,8.28v13.41h-4.8V830.36Z"/><path d="M854,843.47a7.12,7.12,0,0,1-3.33.75,7.41,7.41,0,0,1-5.28-2,7,7,0,0,1-2.07-5,7.3,7.3,0,0,1,2.16-5.19,7.73,7.73,0,0,1,5.4-2,6.88,6.88,0,0,1,3.12.75v4a4.28,4.28,0,0,0-2.49-.87,3.15,3.15,0,0,0-2.34.93,3.26,3.26,0,0,0-.93,2.31,3.44,3.44,0,0,0,.84,2.25,3.26,3.26,0,0,0,2.46,1,3.63,3.63,0,0,0,2.46-.9Z"/><path d="M867.06,830.36h4.8v13.41h-4.8V842.3a5,5,0,0,1-4.17,1.92,6.42,6.42,0,0,1-4.83-2.13,6.76,6.76,0,0,1-1.92-4.92,7.42,7.42,0,0,1,2.07-5.37,6.9,6.9,0,0,1,4.83-1.89,5.31,5.31,0,0,1,4,1.74Zm-5,4.5a3.14,3.14,0,0,0-1,2.19,3.09,3.09,0,0,0,.93,2.19,3.37,3.37,0,0,0,2.16.9,3.08,3.08,0,0,0,2.16-.93,2.91,2.91,0,0,0,.9-2.16,3,3,0,0,0-.93-2.19,3,3,0,0,0-4.26,0Z"/><path d="M880.47,834.29v9.48h-4.8v-9.48h-1.53v-3.93h1.53V826h4.8v4.41h2.73v3.93Zm-4.62,11,4.5.48-3.06,5.52-3-.36Z"/><path d="M887.4,822.08a2.7,2.7,0,1,1-2.7,2.7A2.69,2.69,0,0,1,887.4,822.08Zm2.4,8.28v13.41H885V830.36Z"/><path d="M907.29,838h-10a3.39,3.39,0,0,0,.84,2.25,2.7,2.7,0,0,0,2,.66,3.79,3.79,0,0,0,1.56-.36,2.23,2.23,0,0,0,.84-.9h4.59a6,6,0,0,1-1.62,2.76c-1,1-2.55,1.86-5.46,1.86a7.61,7.61,0,0,1-5.55-2,7,7,0,0,1-2-5.07,7.16,7.16,0,0,1,2-5.19A7.55,7.55,0,0,1,900,830a7.35,7.35,0,0,1,5.16,1.83,7.51,7.51,0,0,1,2.13,5.64Zm-4.41-2.76a3.22,3.22,0,0,0-.78-1.44,2.8,2.8,0,0,0-2-.72,2.58,2.58,0,0,0-2,.72,2.74,2.74,0,0,0-.72,1.44Z"/><path d="M921.54,836.93a3.12,3.12,0,0,0,.81,2,2.76,2.76,0,0,0,2,.78,2.66,2.66,0,0,0,2-.87,2.35,2.35,0,0,0,.6-1.65,2.29,2.29,0,0,0-.78-1.77,3.14,3.14,0,0,0-1.92-.57,2.65,2.65,0,0,0-.87.12v-3.51a2.54,2.54,0,0,0,2.13-.51,1.88,1.88,0,0,0,.66-1.41,2.22,2.22,0,0,0-.54-1.44,2.15,2.15,0,0,0-1.47-.54,2,2,0,0,0-1.44.51,2.52,2.52,0,0,0-.69,1.77h-4.83a7.11,7.11,0,0,1,2-4.59,8,8,0,0,1,10.26-.18,5.44,5.44,0,0,1,1.62,3.87,4.82,4.82,0,0,1-.6,2.46,3.43,3.43,0,0,1-1.53,1.53,4.9,4.9,0,0,1,2.37,1.83,5.06,5.06,0,0,1,.84,2.94,6,6,0,0,1-1.77,4.38,8.2,8.2,0,0,1-6,2.13,8.09,8.09,0,0,1-5.73-2.07,8,8,0,0,1-2.49-5.22Z"/><path d="M443.39,840.41h-7.26l-1.35,3.36h-5.49l7.68-20h5.67l7.53,20h-5.55Zm-1.38-4L439.76,830l-2.19,6.48Z"/><path d="M456.83,850.64H452V830.36h4.8v1.47a5,5,0,0,1,4.11-1.92,6.67,6.67,0,0,1,4.77,2,7.61,7.61,0,0,1-.12,10.5,6.44,6.44,0,0,1-4.59,1.86,5.71,5.71,0,0,1-4.17-1.74Zm.78-15.75a3.27,3.27,0,0,0-.93,2.22,3.24,3.24,0,0,0,.93,2.13,3.07,3.07,0,0,0,2.16.9,2.9,2.9,0,0,0,2.13-.9,3.17,3.17,0,0,0,.93-2.13,3.27,3.27,0,0,0-.93-2.22,2.9,2.9,0,0,0-2.13-.9A3.07,3.07,0,0,0,457.61,834.89Z"/><path d="M475.31,821.9v21.87h-4.8V821.9Z"/><path d="M481,822.08a2.7,2.7,0,1,1-2.7,2.7A2.69,2.69,0,0,1,481,822.08Zm2.4,8.28v13.41h-4.8V830.36Z"/><path d="M496.79,843.47a7.12,7.12,0,0,1-3.33.75,7.41,7.41,0,0,1-5.28-2,7,7,0,0,1-2.07-5,7.3,7.3,0,0,1,2.16-5.19,7.73,7.73,0,0,1,5.4-2,6.88,6.88,0,0,1,3.12.75v4a4.28,4.28,0,0,0-2.49-.87,3.15,3.15,0,0,0-2.34.93,3.26,3.26,0,0,0-.93,2.31,3.44,3.44,0,0,0,.84,2.25,3.26,3.26,0,0,0,2.46,1,3.63,3.63,0,0,0,2.46-.9Z"/><path d="M509.9,830.36h4.8v13.41h-4.8V842.3a5,5,0,0,1-4.17,1.92,6.42,6.42,0,0,1-4.83-2.13,6.76,6.76,0,0,1-1.92-4.92,7.42,7.42,0,0,1,2.07-5.37,6.9,6.9,0,0,1,4.83-1.89,5.31,5.31,0,0,1,4,1.74Zm-5,4.5a3.14,3.14,0,0,0-1,2.19,3.09,3.09,0,0,0,.93,2.19,3.37,3.37,0,0,0,2.16.9,3.08,3.08,0,0,0,2.16-.93,2.91,2.91,0,0,0,.9-2.16,3,3,0,0,0-.93-2.19,3,3,0,0,0-4.26,0Z"/><path d="M523.31,834.29v9.48h-4.8v-9.48H517v-3.93h1.53V826h4.8v4.41H526v3.93Zm-4.62,11,4.5.48-3.06,5.52-3-.36Z"/><path d="M530.24,822.08a2.7,2.7,0,1,1-2.7,2.7A2.69,2.69,0,0,1,530.24,822.08Zm2.4,8.28v13.41h-4.8V830.36Z"/><path d="M550.13,838h-10a3.39,3.39,0,0,0,.84,2.25,2.7,2.7,0,0,0,2,.66,3.79,3.79,0,0,0,1.56-.36,2.23,2.23,0,0,0,.84-.9H550a6,6,0,0,1-1.62,2.76c-1,1-2.55,1.86-5.46,1.86a7.61,7.61,0,0,1-5.55-2,7,7,0,0,1-2-5.07,7.16,7.16,0,0,1,2-5.19,7.55,7.55,0,0,1,5.49-1.95A7.35,7.35,0,0,1,548,831.8a7.51,7.51,0,0,1,2.13,5.64Zm-4.41-2.76a3.22,3.22,0,0,0-.78-1.44,2.8,2.8,0,0,0-2-.72,2.58,2.58,0,0,0-2,.72,2.74,2.74,0,0,0-.72,1.44Z"/><path d="M575.06,843.77H559l5.07-5.31a33.14,33.14,0,0,0,4.11-5.07,5.63,5.63,0,0,0,1.08-3.12,3,3,0,0,0-.6-1.92,2,2,0,0,0-1.47-.6,2.15,2.15,0,0,0-1.74.81,5,5,0,0,0-.72,2.46h-5.37a8,8,0,0,1,2.22-5.55,8.62,8.62,0,0,1,11.31-.09,6.68,6.68,0,0,1,2,4.92c0,2.52-1.17,4.26-3,5.94l-3.36,3.12h6.54Z"/><rect x="276.74" y="312.23" width="455" height="193.5" rx="12" ry="12" style="fill:none;stroke:#4fc2c9;stroke-miterlimit:10;stroke-width:5.84004410153842px"/><rect x="276.74" y="42.73" width="455" height="161" rx="12" ry="12" style="fill:none;stroke:#4fc2c9;stroke-miterlimit:10;stroke-width:5.32707216411855px"/><path d="M367.34,82.1v-20h7.74a5.61,5.61,0,0,1,4.38,1.56,5.41,5.41,0,0,1,1.23,3.75,5.19,5.19,0,0,1-.57,2.46,3.15,3.15,0,0,1-1.62,1.56,5,5,0,0,1,2.73,1.2,5,5,0,0,1,1.35,3.66,5.43,5.43,0,0,1-1.47,3.93,7.52,7.52,0,0,1-5.43,1.89ZM372.53,70h1a2.74,2.74,0,0,0,2-.63A1.94,1.94,0,0,0,376,68a2.06,2.06,0,0,0-.48-1.35,2.75,2.75,0,0,0-2-.6h-1Zm0,8.07h1.17c1.44,0,2.64-.15,3.21-.81a2,2,0,0,0,.42-1.29,2,2,0,0,0-.51-1.44c-.63-.63-1.92-.66-3.21-.66h-1.08Z"/><path d="M395.81,68.69h4.8V82.1h-4.8V80.63a5,5,0,0,1-4.17,1.92,6.42,6.42,0,0,1-4.83-2.13,6.76,6.76,0,0,1-1.92-4.92A7.42,7.42,0,0,1,387,70.13a6.9,6.9,0,0,1,4.83-1.89,5.31,5.31,0,0,1,4,1.74Zm-5,4.5a3.14,3.14,0,0,0-1,2.19,3.09,3.09,0,0,0,.93,2.19,3.37,3.37,0,0,0,2.16.9,3.08,3.08,0,0,0,2.16-.93,2.91,2.91,0,0,0,.9-2.16,3,3,0,0,0-.93-2.19,3,3,0,0,0-4.26,0Z"/><path d="M410.9,78.17h5.61V82.1H402.86l6.33-9.48h-5.4V68.69h13.38Z"/><path d="M429.8,68.69h4.8V82.1h-4.8V80.63a5,5,0,0,1-4.17,1.92,6.42,6.42,0,0,1-4.83-2.13,6.76,6.76,0,0,1-1.92-4.92A7.42,7.42,0,0,1,421,70.13a6.9,6.9,0,0,1,4.83-1.89,5.31,5.31,0,0,1,4,1.74Zm2.64-6.9a4.73,4.73,0,0,1-1.32,3.27,6.31,6.31,0,0,1-7.8,0A4.73,4.73,0,0,1,422,61.79h3.09a2.08,2.08,0,0,0,.6,1.23,2.44,2.44,0,0,0,3.06,0,2.08,2.08,0,0,0,.6-1.23Zm-7.68,11.4a3.14,3.14,0,0,0-1,2.19,3.09,3.09,0,0,0,.93,2.19,3.37,3.37,0,0,0,2.16.9,3.08,3.08,0,0,0,2.16-.93,2.91,2.91,0,0,0,.9-2.16,3,3,0,0,0-.93-2.19,3,3,0,0,0-4.26,0Z"/><path d="M460.07,82.1h-4.8V80.63a4.92,4.92,0,0,1-4,1.92,6.42,6.42,0,0,1-4.71-1.86,7.4,7.4,0,0,1-2.16-5.34A7.31,7.31,0,0,1,446.54,70a6.86,6.86,0,0,1,4.74-1.8,5.31,5.31,0,0,1,4,1.74V60.23h4.8Zm-5.67-4.44a3.22,3.22,0,0,0,1-2.28,3.51,3.51,0,0,0-.9-2.16,3.08,3.08,0,0,0-4.32,0,3.29,3.29,0,0,0-.93,2.28,3,3,0,0,0,.93,2.1,3,3,0,0,0,2.13.9A3.28,3.28,0,0,0,454.4,77.66Z"/><path d="M477.59,76.28h-10a3.39,3.39,0,0,0,.84,2.25,2.7,2.7,0,0,0,2,.66,3.79,3.79,0,0,0,1.56-.36,2.23,2.23,0,0,0,.84-.9h4.59a6,6,0,0,1-1.62,2.76c-1,1-2.55,1.86-5.46,1.86a7.61,7.61,0,0,1-5.55-2,7,7,0,0,1-2-5.07,7.16,7.16,0,0,1,2-5.19,7.55,7.55,0,0,1,5.49-2,7.35,7.35,0,0,1,5.16,1.83,7.51,7.51,0,0,1,2.13,5.64Zm-4.41-2.76a3.22,3.22,0,0,0-.78-1.44,2.8,2.8,0,0,0-2-.72,2.58,2.58,0,0,0-1.95.72,2.74,2.74,0,0,0-.72,1.44Z"/><path d="M502.52,82.1h-4.8V80.63a4.92,4.92,0,0,1-4.05,1.92A6.42,6.42,0,0,1,489,80.69a7.4,7.4,0,0,1-2.16-5.34A7.31,7.31,0,0,1,489,70a6.86,6.86,0,0,1,4.74-1.8,5.31,5.31,0,0,1,4,1.74V60.23h4.8Zm-5.67-4.44a3.22,3.22,0,0,0,1-2.28,3.51,3.51,0,0,0-.9-2.16,3.08,3.08,0,0,0-4.32,0,3.29,3.29,0,0,0-.93,2.28,3,3,0,0,0,.93,2.1,3,3,0,0,0,2.13.9A3.28,3.28,0,0,0,496.85,77.66Z"/><path d="M516.2,68.69H521V82.1h-4.8V80.63A5,5,0,0,1,512,82.55a6.42,6.42,0,0,1-4.83-2.13,6.76,6.76,0,0,1-1.92-4.92,7.42,7.42,0,0,1,2.07-5.37,6.9,6.9,0,0,1,4.83-1.89,5.31,5.31,0,0,1,4,1.74Zm-5,4.5a3.14,3.14,0,0,0-1,2.19,3.09,3.09,0,0,0,.93,2.19,3.37,3.37,0,0,0,2.16.9,3.08,3.08,0,0,0,2.16-.93,2.91,2.91,0,0,0,.9-2.16,3,3,0,0,0-.93-2.19,3,3,0,0,0-4.26,0Z"/><path d="M529.61,72.62V82.1h-4.8V72.62h-1.53V68.69h1.53V64.28h4.8v4.41h2.73v3.93Z"/><path d="M548.36,76.28h-10a3.39,3.39,0,0,0,.84,2.25,2.7,2.7,0,0,0,2,.66,3.79,3.79,0,0,0,1.56-.36,2.23,2.23,0,0,0,.84-.9h4.59a6,6,0,0,1-1.62,2.76c-1,1-2.55,1.86-5.46,1.86a7.61,7.61,0,0,1-5.55-2,7,7,0,0,1-2-5.07,7.16,7.16,0,0,1,2-5.19,7.55,7.55,0,0,1,5.49-2,7.35,7.35,0,0,1,5.16,1.83,7.51,7.51,0,0,1,2.13,5.64ZM544,73.52a3.22,3.22,0,0,0-.78-1.44,2.8,2.8,0,0,0-2-.72,2.58,2.58,0,0,0-2,.72,2.74,2.74,0,0,0-.72,1.44Z"/><path d="M562.91,89h-4.8V68.69h4.8v1.47A5,5,0,0,1,567,68.24a6.67,6.67,0,0,1,4.77,2,7.61,7.61,0,0,1-.12,10.5,6.44,6.44,0,0,1-4.59,1.86,5.71,5.71,0,0,1-4.17-1.74Zm.78-15.75a3.27,3.27,0,0,0-.93,2.22,3.24,3.24,0,0,0,.93,2.13,3.07,3.07,0,0,0,2.16.9,2.9,2.9,0,0,0,2.13-.9,3.17,3.17,0,0,0,.93-2.13,3.27,3.27,0,0,0-.93-2.22,2.9,2.9,0,0,0-2.13-.9A3.07,3.07,0,0,0,563.69,73.22Z"/><path d="M587,68.69h4.8V82.1H587V80.63a5,5,0,0,1-4.17,1.92A6.42,6.42,0,0,1,578,80.42a6.76,6.76,0,0,1-1.92-4.92,7.42,7.42,0,0,1,2.07-5.37A6.9,6.9,0,0,1,583,68.24,5.31,5.31,0,0,1,587,70Zm-5,4.5a3.14,3.14,0,0,0-1,2.19,3.09,3.09,0,0,0,.93,2.19,3.37,3.37,0,0,0,2.16.9,3.08,3.08,0,0,0,2.16-.93,2.91,2.91,0,0,0,.9-2.16,3,3,0,0,0-.93-2.19,3,3,0,0,0-4.26,0Z"/><path d="M595.07,68.69h4.8v2.19A4.33,4.33,0,0,1,601.76,69a5.24,5.24,0,0,1,2.49-.54l1,.06v4.53a4.23,4.23,0,0,0-2.07-.48,3.14,3.14,0,0,0-2.19.72,4,4,0,0,0-1.08,3.06V82.1h-4.8Z"/><path d="M620.24,80.33a9.18,9.18,0,0,1-12,0,6.92,6.92,0,0,1,0-9.87,8.37,8.37,0,0,1,6-2.22,8.47,8.47,0,0,1,6,2.22,6.92,6.92,0,0,1,0,9.87Zm-8.13-7.14a3.06,3.06,0,0,0,2.16,5.22,3.05,3.05,0,0,0,2.13-.9,3,3,0,0,0,.93-2.13,3.26,3.26,0,0,0-.93-2.19,3.08,3.08,0,0,0-4.29,0Z"/><path d="M629.87,60.23V82.1h-4.8V60.23Z"/><path d="M647.36,76.28h-10a3.39,3.39,0,0,0,.84,2.25,2.7,2.7,0,0,0,2,.66,3.79,3.79,0,0,0,1.56-.36,2.23,2.23,0,0,0,.84-.9h4.59a6,6,0,0,1-1.62,2.76c-1,1-2.55,1.86-5.46,1.86a7.61,7.61,0,0,1-5.55-2,7,7,0,0,1-2-5.07,7.16,7.16,0,0,1,2-5.19,7.55,7.55,0,0,1,5.49-2,7.35,7.35,0,0,1,5.16,1.83,7.51,7.51,0,0,1,2.13,5.64ZM643,73.52a3.22,3.22,0,0,0-.78-1.44,2.8,2.8,0,0,0-2-.72,2.58,2.58,0,0,0-2,.72,2.74,2.74,0,0,0-.72,1.44Z"/><path d="M338.66,355.1a7,7,0,0,0,4.59,2,2.63,2.63,0,0,0,2-.69,1.79,1.79,0,0,0,.51-1.26,1.56,1.56,0,0,0-.57-1.2,7.21,7.21,0,0,0-2.58-1.05l-1.35-.42a6.54,6.54,0,0,1-2.88-1.62,5,5,0,0,1-1.14-3.54,6.54,6.54,0,0,1,1.83-4.83,7.05,7.05,0,0,1,5.13-1.89,14.06,14.06,0,0,1,6.18,1.62l-2.07,4.05A5.28,5.28,0,0,0,344.9,345a2.49,2.49,0,0,0-1.71.6,1.48,1.48,0,0,0-.51,1.08,1.34,1.34,0,0,0,.27.9,3.28,3.28,0,0,0,1.74.9l1.59.48a7.64,7.64,0,0,1,3.63,2,4.72,4.72,0,0,1,1.29,3.57,6.78,6.78,0,0,1-1.89,5,7.76,7.76,0,0,1-5.91,2,10.7,10.7,0,0,1-3.93-.66,14,14,0,0,1-3-1.59Z"/><path d="M368.24,355.28h-10a3.39,3.39,0,0,0,.84,2.25,2.7,2.7,0,0,0,2,.66,3.79,3.79,0,0,0,1.56-.36,2.23,2.23,0,0,0,.84-.9h4.59a6,6,0,0,1-1.62,2.76c-1,1-2.55,1.86-5.46,1.86a7.61,7.61,0,0,1-5.55-2,7,7,0,0,1-2-5.07,7.16,7.16,0,0,1,2-5.19A7.55,7.55,0,0,1,361,347.3a7.35,7.35,0,0,1,5.16,1.83,7.51,7.51,0,0,1,2.13,5.64Zm-4.41-2.76a3.22,3.22,0,0,0-.78-1.44,2.8,2.8,0,0,0-2-.72,2.58,2.58,0,0,0-1.95.72,2.74,2.74,0,0,0-.72,1.44Z"/><path d="M371,347.69h4.8v2.19a4.33,4.33,0,0,1,1.89-1.86,5.24,5.24,0,0,1,2.49-.54l1,.06v4.53a4.23,4.23,0,0,0-2.07-.48,3.14,3.14,0,0,0-2.19.72,4,4,0,0,0-1.08,3.06v5.73H371Z"/><path d="M387,347.69l3.21,6.87,3.27-6.87h5.34l-7,13.41h-3.27l-6.93-13.41Z"/><path d="M402.86,339.41a2.7,2.7,0,1,1-2.7,2.7A2.69,2.69,0,0,1,402.86,339.41Zm2.4,8.28V361.1h-4.8V347.69Z"/><path d="M418.67,360.8a7.12,7.12,0,0,1-3.33.75,7.41,7.41,0,0,1-5.28-2,7,7,0,0,1-2.07-5,7.3,7.3,0,0,1,2.16-5.19,7.73,7.73,0,0,1,5.4-2,6.88,6.88,0,0,1,3.12.75v4a4.28,4.28,0,0,0-2.49-.87,3.15,3.15,0,0,0-2.34.93,3.26,3.26,0,0,0-.93,2.31,3.44,3.44,0,0,0,.84,2.25,3.26,3.26,0,0,0,2.46,1,3.63,3.63,0,0,0,2.46-.9Z"/><path d="M423.8,339.41a2.7,2.7,0,1,1-2.7,2.7A2.69,2.69,0,0,1,423.8,339.41Zm2.4,8.28V361.1h-4.8V347.69Z"/><path d="M434.27,347.69v7.5a2.57,2.57,0,0,0,.72,1.95,2.48,2.48,0,0,0,1.68.51,2.24,2.24,0,0,0,1.71-.57,2.49,2.49,0,0,0,.69-1.89v-7.5h4.8v8.37a4.6,4.6,0,0,1-1.29,3.6c-1.65,1.71-4,1.89-5.79,1.89-2,0-4.47-.21-6.06-1.92a4.82,4.82,0,0,1-1.26-3.57v-8.37Z"/><path d="M469.34,361.1h-4.8v-1.47a4.92,4.92,0,0,1-4.05,1.92,6.42,6.42,0,0,1-4.71-1.86,7.4,7.4,0,0,1-2.16-5.34,7.31,7.31,0,0,1,2.19-5.31,6.86,6.86,0,0,1,4.74-1.8,5.31,5.31,0,0,1,4,1.74v-9.75h4.8Zm-5.67-4.44a3.22,3.22,0,0,0,1-2.28,3.51,3.51,0,0,0-.9-2.16,3.08,3.08,0,0,0-4.32,0,3.29,3.29,0,0,0-.93,2.28,3,3,0,0,0,.93,2.1,3,3,0,0,0,2.13.9A3.28,3.28,0,0,0,463.67,356.66Z"/><path d="M486.86,355.28h-10a3.39,3.39,0,0,0,.84,2.25,2.7,2.7,0,0,0,2,.66,3.79,3.79,0,0,0,1.56-.36,2.23,2.23,0,0,0,.84-.9h4.59a6,6,0,0,1-1.62,2.76c-1,1-2.55,1.86-5.46,1.86a7.61,7.61,0,0,1-5.55-2,7,7,0,0,1-2-5.07,7.16,7.16,0,0,1,2-5.19,7.55,7.55,0,0,1,5.49-1.95,7.35,7.35,0,0,1,5.16,1.83,7.51,7.51,0,0,1,2.13,5.64Zm-4.41-2.76a3.22,3.22,0,0,0-.78-1.44,2.8,2.8,0,0,0-2-.72,2.58,2.58,0,0,0-1.95.72,2.74,2.74,0,0,0-.72,1.44Z"/><path d="M507,347.69h4.8V361.1H507v-1.47a5,5,0,0,1-4.17,1.92,6.42,6.42,0,0,1-4.83-2.13,6.76,6.76,0,0,1-1.92-4.92,7.42,7.42,0,0,1,2.07-5.37,6.9,6.9,0,0,1,4.83-1.89,5.31,5.31,0,0,1,4,1.74Zm-5,4.5a3.14,3.14,0,0,0-1,2.19,3.09,3.09,0,0,0,.93,2.19,3.37,3.37,0,0,0,2.16.9,3.08,3.08,0,0,0,2.16-.93,2.91,2.91,0,0,0,.9-2.16,3,3,0,0,0-.93-2.19,3,3,0,0,0-4.26,0Z"/><path d="M519.89,347.69v7.5a2.57,2.57,0,0,0,.72,1.95,2.48,2.48,0,0,0,1.68.51,2.24,2.24,0,0,0,1.71-.57,2.49,2.49,0,0,0,.69-1.89v-7.5h4.8v8.37a4.6,4.6,0,0,1-1.29,3.6c-1.65,1.71-4,1.89-5.79,1.89-2,0-4.47-.21-6.06-1.92a4.82,4.82,0,0,1-1.26-3.57v-8.37Z"/><path d="M538.1,351.62v9.48h-4.8v-9.48h-1.53v-3.93h1.53v-4.41h4.8v4.41h2.73v3.93Z"/><path d="M556.85,355.28h-10a3.39,3.39,0,0,0,.84,2.25,2.7,2.7,0,0,0,2,.66,3.79,3.79,0,0,0,1.56-.36,2.23,2.23,0,0,0,.84-.9h4.59a6,6,0,0,1-1.62,2.76c-1,1-2.55,1.86-5.46,1.86a7.61,7.61,0,0,1-5.55-2,7,7,0,0,1-2-5.07,7.16,7.16,0,0,1,2-5.19,7.55,7.55,0,0,1,5.49-1.95,7.35,7.35,0,0,1,5.16,1.83,7.51,7.51,0,0,1,2.13,5.64Zm-4.41-2.76a3.22,3.22,0,0,0-.78-1.44,2.8,2.8,0,0,0-2-.72,2.58,2.58,0,0,0-1.95.72,2.74,2.74,0,0,0-.72,1.44Z"/><path d="M559.61,347.69h4.8v1.68a5.06,5.06,0,0,1,4.26-2,5.42,5.42,0,0,1,4,1.44,4.62,4.62,0,0,1,1.26,3.75v8.52h-4.8v-6.78a3.85,3.85,0,0,0-.6-2.61,2,2,0,0,0-1.53-.57,2.63,2.63,0,0,0-1.77.63,3.08,3.08,0,0,0-.78,2.13v7.2h-4.8Z"/><path d="M582.47,351.62v9.48h-4.8v-9.48h-1.53v-3.93h1.53v-4.41h4.8v4.41h2.73v3.93Z"/><path d="M589.4,339.41a2.7,2.7,0,1,1-2.7,2.7A2.69,2.69,0,0,1,589.4,339.41Zm2.4,8.28V361.1H587V347.69Z"/><path d="M600.23,351.62v9.48h-4.8v-9.48h-1.68v-3.93h1.68V346a6.77,6.77,0,0,1,1.83-5.25,7.6,7.6,0,0,1,5.28-1.89,8.08,8.08,0,0,1,5.37,1.8,6.11,6.11,0,0,1,1.68,4.5v.69h-4.8v-.45a2.78,2.78,0,0,0-.6-1.8,2.45,2.45,0,0,0-1.68-.6,2.29,2.29,0,0,0-1.65.69,2.76,2.76,0,0,0-.63,2.07v1.89h3.36v3.93Zm9.36-3.93V361.1h-4.8V347.69Z"/><path d="M622.73,360.8a7.12,7.12,0,0,1-3.33.75,7.41,7.41,0,0,1-5.28-2,7,7,0,0,1-2.07-5,7.3,7.3,0,0,1,2.16-5.19,7.73,7.73,0,0,1,5.4-2,6.88,6.88,0,0,1,3.12.75v4a4.28,4.28,0,0,0-2.49-.87,3.15,3.15,0,0,0-2.34.93,3.26,3.26,0,0,0-.93,2.31,3.44,3.44,0,0,0,.84,2.25,3.26,3.26,0,0,0,2.46,1,3.63,3.63,0,0,0,2.46-.9Z"/><path d="M635.84,347.69h4.8V361.1h-4.8v-1.47a5,5,0,0,1-4.17,1.92,6.42,6.42,0,0,1-4.83-2.13,6.76,6.76,0,0,1-1.92-4.92,7.42,7.42,0,0,1,2.07-5.37,6.9,6.9,0,0,1,4.83-1.89,5.31,5.31,0,0,1,4,1.74Zm-5,4.5a3.14,3.14,0,0,0-1,2.19,3.09,3.09,0,0,0,.93,2.19,3.37,3.37,0,0,0,2.16.9,3.08,3.08,0,0,0,2.16-.93,2.91,2.91,0,0,0,.9-2.16,3,3,0,0,0-.93-2.19,3,3,0,0,0-4.26,0Z"/><path d="M643.94,347.69h4.8v2.19a4.33,4.33,0,0,1,1.89-1.86,5.24,5.24,0,0,1,2.49-.54l1,.06v4.53a4.23,4.23,0,0,0-2.07-.48,3.14,3.14,0,0,0-2.19.72,4,4,0,0,0-1.08,3.06v5.73h-4.8Z"/><path d="M670.43,355.28h-10a3.39,3.39,0,0,0,.84,2.25,2.7,2.7,0,0,0,2,.66,3.79,3.79,0,0,0,1.56-.36,2.23,2.23,0,0,0,.84-.9h4.59a6,6,0,0,1-1.62,2.76c-1,1-2.55,1.86-5.46,1.86a7.61,7.61,0,0,1-5.55-2,7,7,0,0,1-2-5.07,7.16,7.16,0,0,1,2-5.19,7.55,7.55,0,0,1,5.49-1.95,7.35,7.35,0,0,1,5.16,1.83,7.51,7.51,0,0,1,2.13,5.64ZM666,352.52a3.22,3.22,0,0,0-.78-1.44,2.8,2.8,0,0,0-2-.72,2.58,2.58,0,0,0-2,.72,2.74,2.74,0,0,0-.72,1.44Z"/><polygon points="550.75 689.8 550.93 633.1 559.1 633.12 541.79 615.7 524.37 633.01 532.54 633.03 532.36 689.74 550.75 689.8" style="fill:none;stroke:#91c54f;stroke-miterlimit:10;stroke-width:5px"/><polygon points="453.6 615.67 453.41 672.37 445.24 672.34 462.55 689.77 479.98 672.45 471.8 672.43 471.99 615.73 453.6 615.67" style="fill:none;stroke:#4fc2c9;stroke-miterlimit:10;stroke-width:5px"/><circle cx="428.16" cy="633.26" r="10.08" style="fill:none;stroke:#f7931f;stroke-miterlimit:10;stroke-width:3.528px"/><rect x="386.84" y="654.43" width="41.83" height="3.02" rx="1.51" ry="1.51" transform="translate(-344.39 480.44) rotate(-45)" style="fill:#f7931f"/><rect x="397.67" y="665.27" width="2.02" height="8.57" rx="1.01" ry="1.01" transform="translate(-356.67 478.02) rotate(-45)" style="fill:#f7931f"/><rect x="401.39" y="661.96" width="2.02" height="10.52" rx="1.01" ry="1.01" transform="translate(-353.93 479.96) rotate(-45)" style="fill:#f7931f"/><rect x="404.66" y="658.68" width="2.02" height="10.52" rx="1.01" ry="1.01" transform="translate(-350.66 481.32) rotate(-45)" style="fill:#f7931f"/><rect x="431.51" y="710.23" width="142.83" height="96" rx="12" ry="12" style="fill:none;stroke:#91c54f;stroke-miterlimit:10;stroke-width:5px"/><line x1="431.32" y1="731.11" x2="574.15" y2="731.11" style="fill:none;stroke:#91c54f;stroke-miterlimit:10;stroke-width:5px"/><circle cx="543.51" cy="720.38" r="3.12" style="fill:#91c54f"/><circle cx="553.66" cy="720.38" r="3.12" style="fill:#91c54f"/><circle cx="563.02" cy="720.38" r="3.12" style="fill:#91c54f"/><path d="M575,669.8a7.12,7.12,0,0,1-3.33.75,7.41,7.41,0,0,1-5.28-2,7,7,0,0,1-2.07-5,7.3,7.3,0,0,1,2.16-5.19,7.73,7.73,0,0,1,5.4-2A6.88,6.88,0,0,1,575,657v4a4.28,4.28,0,0,0-2.49-.87,3.15,3.15,0,0,0-2.34.93,3.26,3.26,0,0,0-.93,2.31,3.44,3.44,0,0,0,.84,2.25,3.26,3.26,0,0,0,2.46,1,3.63,3.63,0,0,0,2.46-.9Z"/><path d="M592,664.28H582a3.39,3.39,0,0,0,.84,2.25,2.7,2.7,0,0,0,2,.66,3.79,3.79,0,0,0,1.56-.36,2.23,2.23,0,0,0,.84-.9h4.59a6,6,0,0,1-1.62,2.76c-1,1-2.55,1.86-5.46,1.86a7.61,7.61,0,0,1-5.55-2,7,7,0,0,1-2-5.07,7.16,7.16,0,0,1,2-5.19,7.55,7.55,0,0,1,5.49-2,7.35,7.35,0,0,1,5.16,1.83,7.51,7.51,0,0,1,2.13,5.64Zm-4.41-2.76a3.22,3.22,0,0,0-.78-1.44,2.8,2.8,0,0,0-2-.72,2.58,2.58,0,0,0-1.95.72,2.74,2.74,0,0,0-.72,1.44Z"/><path d="M594.74,656.69h4.8v2.19a4.33,4.33,0,0,1,1.89-1.86,5.24,5.24,0,0,1,2.49-.54l1,.06v4.53a4.23,4.23,0,0,0-2.07-.48,3.14,3.14,0,0,0-2.19.72,4,4,0,0,0-1.08,3.06v5.73h-4.8Z"/><path d="M621.23,664.28h-10a3.39,3.39,0,0,0,.84,2.25,2.7,2.7,0,0,0,2,.66,3.79,3.79,0,0,0,1.56-.36,2.23,2.23,0,0,0,.84-.9h4.59a6,6,0,0,1-1.62,2.76c-1,1-2.55,1.86-5.46,1.86a7.61,7.61,0,0,1-5.55-2,7,7,0,0,1-2-5.07,7.16,7.16,0,0,1,2-5.19,7.55,7.55,0,0,1,5.49-2,7.35,7.35,0,0,1,5.16,1.83,7.51,7.51,0,0,1,2.13,5.64Zm-4.41-2.76a3.22,3.22,0,0,0-.78-1.44,2.8,2.8,0,0,0-2-.72,2.58,2.58,0,0,0-1.95.72,2.74,2.74,0,0,0-.72,1.44Z"/><path d="M624,656.69h4.8v2.19a4.33,4.33,0,0,1,1.89-1.86,5.24,5.24,0,0,1,2.49-.54l1,.06v4.53a4.23,4.23,0,0,0-2.07-.48,3.14,3.14,0,0,0-2.19.72,4,4,0,0,0-1.08,3.06v5.73H624Z"/><path d="M650.48,664.28h-10a3.39,3.39,0,0,0,.84,2.25,2.7,2.7,0,0,0,2,.66,3.79,3.79,0,0,0,1.56-.36,2.23,2.23,0,0,0,.84-.9h4.59a6,6,0,0,1-1.62,2.76c-1,1-2.55,1.86-5.46,1.86a7.61,7.61,0,0,1-5.55-2,7,7,0,0,1-2-5.07,7.16,7.16,0,0,1,2-5.19,7.55,7.55,0,0,1,5.49-2,7.35,7.35,0,0,1,5.16,1.83,7.51,7.51,0,0,1,2.13,5.64Zm-4.41-2.76a3.22,3.22,0,0,0-.78-1.44,2.8,2.8,0,0,0-2-.72,2.58,2.58,0,0,0-1.95.72,2.74,2.74,0,0,0-.72,1.44Z"/><rect x="792.85" y="710.23" width="142.83" height="96" rx="12" ry="12" style="fill:none;stroke:#636868;stroke-miterlimit:10;stroke-width:5px"/><line x1="792.66" y1="731.11" x2="935.49" y2="731.11" style="fill:none;stroke:#636868;stroke-miterlimit:10;stroke-width:5px"/><circle cx="904.85" cy="720.38" r="3.12" style="fill:#636868"/><circle cx="915" cy="720.38" r="3.12" style="fill:#636868"/><circle cx="924.37" cy="720.38" r="3.12" style="fill:#636868"/><polygon points="912.75 689.8 912.93 633.1 921.1 633.12 903.79 615.7 886.37 633.01 894.54 633.03 894.36 689.74 912.75 689.8" style="fill:none;stroke:#636868;stroke-miterlimit:10;stroke-width:5px"/><polygon points="815.6 615.67 815.41 672.37 807.24 672.34 824.55 689.77 841.98 672.45 833.8 672.43 833.99 615.73 815.6 615.67" style="fill:none;stroke:#4fc2c9;stroke-miterlimit:10;stroke-width:5px"/><circle cx="790.16" cy="633.26" r="10.08" style="fill:none;stroke:#f7931f;stroke-miterlimit:10;stroke-width:3.528px"/><rect x="748.84" y="654.43" width="41.83" height="3.02" rx="1.51" ry="1.51" transform="translate(-238.37 736.42) rotate(-45)" style="fill:#f7931f"/><rect x="759.67" y="665.27" width="2.02" height="8.57" rx="1.01" ry="1.01" transform="translate(-250.65 733.99) rotate(-45)" style="fill:#f7931f"/><rect x="763.39" y="661.96" width="2.02" height="10.52" rx="1.01" ry="1.01" transform="translate(-247.91 735.93) rotate(-45)" style="fill:#f7931f"/><rect x="766.66" y="658.68" width="2.02" height="10.52" rx="1.01" ry="1.01" transform="translate(-244.63 737.29) rotate(-45)" style="fill:#f7931f"/><path d="M937,669.8a7.12,7.12,0,0,1-3.33.75,7.41,7.41,0,0,1-5.28-2,7,7,0,0,1-2.07-5,7.3,7.3,0,0,1,2.16-5.19,7.73,7.73,0,0,1,5.4-2A6.88,6.88,0,0,1,937,657v4a4.28,4.28,0,0,0-2.49-.87,3.15,3.15,0,0,0-2.34.93,3.26,3.26,0,0,0-.93,2.31,3.44,3.44,0,0,0,.84,2.25,3.26,3.26,0,0,0,2.46,1,3.63,3.63,0,0,0,2.46-.9Z"/><path d="M954,664.28H944a3.39,3.39,0,0,0,.84,2.25,2.7,2.7,0,0,0,2,.66,3.79,3.79,0,0,0,1.56-.36,2.23,2.23,0,0,0,.84-.9h4.59a6,6,0,0,1-1.62,2.76c-1,1-2.55,1.86-5.46,1.86a7.61,7.61,0,0,1-5.55-2,7,7,0,0,1-2-5.07,7.16,7.16,0,0,1,2-5.19,7.55,7.55,0,0,1,5.49-2,7.35,7.35,0,0,1,5.16,1.83,7.51,7.51,0,0,1,2.13,5.64Zm-4.41-2.76a3.22,3.22,0,0,0-.78-1.44,2.8,2.8,0,0,0-2-.72,2.58,2.58,0,0,0-1.95.72,2.74,2.74,0,0,0-.72,1.44Z"/><path d="M956.74,656.69h4.8v2.19a4.33,4.33,0,0,1,1.89-1.86,5.24,5.24,0,0,1,2.49-.54l1,.06v4.53a4.23,4.23,0,0,0-2.07-.48,3.14,3.14,0,0,0-2.19.72,4,4,0,0,0-1.08,3.06v5.73h-4.8Z"/><path d="M983.23,664.28h-10a3.39,3.39,0,0,0,.84,2.25,2.7,2.7,0,0,0,2,.66,3.79,3.79,0,0,0,1.56-.36,2.23,2.23,0,0,0,.84-.9h4.59a6,6,0,0,1-1.62,2.76c-1,1-2.55,1.86-5.46,1.86a7.61,7.61,0,0,1-5.55-2,7,7,0,0,1-2-5.07,7.16,7.16,0,0,1,2-5.19,7.55,7.55,0,0,1,5.49-2,7.35,7.35,0,0,1,5.16,1.83,7.51,7.51,0,0,1,2.13,5.64Zm-4.41-2.76a3.22,3.22,0,0,0-.78-1.44,2.8,2.8,0,0,0-2-.72,2.58,2.58,0,0,0-1.95.72,2.74,2.74,0,0,0-.72,1.44Z"/><path d="M986,656.69h4.8v2.19a4.33,4.33,0,0,1,1.89-1.86,5.24,5.24,0,0,1,2.49-.54l1,.06v4.53a4.23,4.23,0,0,0-2.07-.48,3.14,3.14,0,0,0-2.19.72,4,4,0,0,0-1.08,3.06v5.73H986Z"/><path d="M1012.48,664.28h-10a3.39,3.39,0,0,0,.84,2.25,2.7,2.7,0,0,0,2,.66,3.79,3.79,0,0,0,1.56-.36,2.23,2.23,0,0,0,.84-.9h4.59a6,6,0,0,1-1.62,2.76c-1,1-2.55,1.86-5.46,1.86a7.61,7.61,0,0,1-5.55-2,7,7,0,0,1-2-5.07,7.16,7.16,0,0,1,2-5.19,7.55,7.55,0,0,1,5.49-2,7.35,7.35,0,0,1,5.16,1.83,7.51,7.51,0,0,1,2.13,5.64Zm-4.41-2.76a3.22,3.22,0,0,0-.78-1.44,2.8,2.8,0,0,0-2-.72,2.58,2.58,0,0,0-1.95.72,2.74,2.74,0,0,0-.72,1.44Z"/><rect x="68.85" y="710.23" width="142.83" height="96" rx="12" ry="12" style="fill:none;stroke:#f4c240;stroke-miterlimit:10;stroke-width:5px"/><line x1="68.66" y1="731.11" x2="211.49" y2="731.11" style="fill:none;stroke:#f4c240;stroke-miterlimit:10;stroke-width:5px"/><circle cx="180.85" cy="720.38" r="3.12" style="fill:#f4c240"/><circle cx="191" cy="720.38" r="3.12" style="fill:#f4c240"/><circle cx="200.37" cy="720.38" r="3.12" style="fill:#f4c240"/><polygon points="188.75 689.8 188.93 633.1 197.1 633.12 179.79 615.7 162.37 633.01 170.54 633.03 170.36 689.74 188.75 689.8" style="fill:none;stroke:#f4c240;stroke-miterlimit:10;stroke-width:5px"/><polygon points="91.6 615.67 91.41 672.37 83.24 672.34 100.55 689.77 117.98 672.45 109.8 672.43 109.99 615.73 91.6 615.67" style="fill:none;stroke:#4fc2c9;stroke-miterlimit:10;stroke-width:5px"/><circle cx="66.16" cy="633.26" r="10.08" style="fill:none;stroke:#f7931f;stroke-miterlimit:10;stroke-width:3.528px"/><rect x="24.84" y="654.43" width="41.83" height="3.02" rx="1.51" ry="1.51" transform="translate(-450.42 224.47) rotate(-45)" style="fill:#f7931f"/><rect x="35.67" y="665.27" width="2.02" height="8.57" rx="1.01" ry="1.01" transform="translate(-462.7 222.04) rotate(-45)" style="fill:#f7931f"/><rect x="39.39" y="661.96" width="2.02" height="10.52" rx="1.01" ry="1.01" transform="translate(-459.96 223.98) rotate(-45)" style="fill:#f7931f"/><rect x="42.66" y="658.68" width="2.02" height="10.52" rx="1.01" ry="1.01" transform="translate(-456.69 225.34) rotate(-45)" style="fill:#f7931f"/><path d="M213,669.8a7.12,7.12,0,0,1-3.33.75,7.41,7.41,0,0,1-5.28-2,7,7,0,0,1-2.07-5,7.3,7.3,0,0,1,2.16-5.19,7.73,7.73,0,0,1,5.4-2A6.88,6.88,0,0,1,213,657v4a4.28,4.28,0,0,0-2.49-.87,3.15,3.15,0,0,0-2.34.93,3.26,3.26,0,0,0-.93,2.31,3.44,3.44,0,0,0,.84,2.25,3.26,3.26,0,0,0,2.46,1,3.63,3.63,0,0,0,2.46-.9Z"/><path d="M230,664.28H220a3.39,3.39,0,0,0,.84,2.25,2.7,2.7,0,0,0,2,.66,3.79,3.79,0,0,0,1.56-.36,2.23,2.23,0,0,0,.84-.9h4.59a6,6,0,0,1-1.62,2.76c-1,1-2.55,1.86-5.46,1.86a7.61,7.61,0,0,1-5.55-2,7,7,0,0,1-2-5.07,7.16,7.16,0,0,1,2-5.19,7.55,7.55,0,0,1,5.49-2,7.35,7.35,0,0,1,5.16,1.83,7.51,7.51,0,0,1,2.13,5.64Zm-4.41-2.76a3.22,3.22,0,0,0-.78-1.44,2.8,2.8,0,0,0-2-.72,2.58,2.58,0,0,0-1.95.72,2.74,2.74,0,0,0-.72,1.44Z"/><path d="M232.74,656.69h4.8v2.19a4.33,4.33,0,0,1,1.89-1.86,5.24,5.24,0,0,1,2.49-.54l1,.06v4.53a4.23,4.23,0,0,0-2.07-.48,3.14,3.14,0,0,0-2.19.72,4,4,0,0,0-1.08,3.06v5.73h-4.8Z"/><path d="M259.23,664.28h-10a3.39,3.39,0,0,0,.84,2.25,2.7,2.7,0,0,0,2,.66,3.79,3.79,0,0,0,1.56-.36,2.23,2.23,0,0,0,.84-.9h4.59a6,6,0,0,1-1.62,2.76c-1,1-2.55,1.86-5.46,1.86a7.61,7.61,0,0,1-5.55-2,7,7,0,0,1-2-5.07,7.16,7.16,0,0,1,2-5.19,7.55,7.55,0,0,1,5.49-2,7.35,7.35,0,0,1,5.16,1.83,7.51,7.51,0,0,1,2.13,5.64Zm-4.41-2.76a3.22,3.22,0,0,0-.78-1.44,2.8,2.8,0,0,0-2-.72,2.58,2.58,0,0,0-1.95.72,2.74,2.74,0,0,0-.72,1.44Z"/><path d="M262,656.69h4.8v2.19a4.33,4.33,0,0,1,1.89-1.86,5.24,5.24,0,0,1,2.49-.54l1,.06v4.53a4.23,4.23,0,0,0-2.07-.48,3.14,3.14,0,0,0-2.19.72,4,4,0,0,0-1.08,3.06v5.73H262Z"/><path d="M288.48,664.28h-10a3.39,3.39,0,0,0,.84,2.25,2.7,2.7,0,0,0,2,.66,3.79,3.79,0,0,0,1.56-.36,2.23,2.23,0,0,0,.84-.9h4.59a6,6,0,0,1-1.62,2.76c-1,1-2.55,1.86-5.46,1.86a7.61,7.61,0,0,1-5.55-2,7,7,0,0,1-2-5.07,7.16,7.16,0,0,1,2-5.19,7.55,7.55,0,0,1,5.49-2,7.35,7.35,0,0,1,5.16,1.83,7.51,7.51,0,0,1,2.13,5.64Zm-4.41-2.76a3.22,3.22,0,0,0-.78-1.44,2.8,2.8,0,0,0-2-.72,2.58,2.58,0,0,0-1.95.72,2.74,2.74,0,0,0-.72,1.44Z"/><circle cx="504.24" cy="575.23" r="23" style="fill:#91c54f"/><line x1="504.24" y1="509.23" x2="504.24" y2="552.23" style="fill:none;stroke:#4fc2c9;stroke-miterlimit:10;stroke-width:5px"/><polyline points="735.24 461.23 865.74 461.23 865.74 553.23" style="fill:none;stroke:#4fc2c9;stroke-miterlimit:10;stroke-width:5px"/><circle cx="865.74" cy="553.23" r="23" style="fill:#636868"/><polyline points="276.74 461.23 146.24 461.23 146.24 553.23" style="fill:none;stroke:#4fc2c9;stroke-miterlimit:10;stroke-width:5px"/><circle cx="146.24" cy="553.23" r="23" style="fill:#f4c240"/><polygon points="495.97 282.14 496.09 232.83 488.94 232.81 504.16 217.67 519.3 232.89 512.51 232.87 512.39 282.18 519.54 282.2 504.32 297.34 489.18 282.13 495.97 282.14" style="fill:none;stroke:#4fc2c9;stroke-miterlimit:10;stroke-width:5.84004410153842px"/></svg>