<svg id="Layer_1" data-name="Layer 1" xmlns="http://www.w3.org/2000/svg" viewBox="0 0 1366 768"><title>Cap 5 -</title><line x1="669.74" y1="165.59" x2="715.99" y2="165.59" style="fill:none;stroke:#91c54f;stroke-miterlimit:10;stroke-width:5px"/><line x1="669.74" y1="153.62" x2="715.99" y2="153.62" style="fill:none;stroke:#91c54f;stroke-miterlimit:10;stroke-width:5px"/><line x1="669.74" y1="141.65" x2="715.99" y2="141.65" style="fill:none;stroke:#91c54f;stroke-miterlimit:10;stroke-width:5px"/><line x1="669.74" y1="129.68" x2="715.99" y2="129.68" style="fill:none;stroke:#91c54f;stroke-miterlimit:10;stroke-width:5px"/><line x1="669.74" y1="117.72" x2="688.83" y2="117.72" style="fill:none;stroke:#91c54f;stroke-miterlimit:10;stroke-width:5px"/><path d="M713.57,113.41a6.47,6.47,0,0,1-6.45-6.45V94.86H667.05a6.47,6.47,0,0,0-6.46,6.45v67.77a6.48,6.48,0,0,0,6.46,6.46h51.63a6.48,6.48,0,0,0,6.46-6.46V113.41Z" style="fill:none;stroke:#91c54f;stroke-miterlimit:10;stroke-width:5px"/><path d="M754,133.79h4.8v1.68a5.06,5.06,0,0,1,4.26-2,5.42,5.42,0,0,1,4,1.44,4.62,4.62,0,0,1,1.26,3.75v8.52h-4.8v-6.78a3.85,3.85,0,0,0-.6-2.61,2,2,0,0,0-1.53-.57,2.63,2.63,0,0,0-1.77.63,3.08,3.08,0,0,0-.78,2.13v7.2H754Z"/><path d="M785,145.43a9.18,9.18,0,0,1-12,0,6.92,6.92,0,0,1,0-9.87,8.37,8.37,0,0,1,6-2.22,8.47,8.47,0,0,1,6,2.22,6.92,6.92,0,0,1,0,9.87Zm-8.13-7.14a3.06,3.06,0,0,0,2.16,5.22,3.05,3.05,0,0,0,2.13-.9,3,3,0,0,0,.93-2.13,3.26,3.26,0,0,0-.93-2.19,3.08,3.08,0,0,0-4.29,0Z"/><path d="M795.17,137.72v9.48h-4.8v-9.48h-1.53v-3.93h1.53v-4.41h4.8v4.41h2.73v3.93Z"/><path d="M813.92,141.38h-10a3.39,3.39,0,0,0,.84,2.25,2.7,2.7,0,0,0,2,.66,3.79,3.79,0,0,0,1.56-.36,2.23,2.23,0,0,0,.84-.9h4.59a6,6,0,0,1-1.62,2.76c-1,1-2.55,1.86-5.46,1.86a7.61,7.61,0,0,1-5.55-2,7,7,0,0,1-2-5.07,7.16,7.16,0,0,1,2-5.19,7.55,7.55,0,0,1,5.49-1.95,7.35,7.35,0,0,1,5.16,1.83,7.51,7.51,0,0,1,2.13,5.64Zm-4.41-2.76a3.22,3.22,0,0,0-.78-1.44,2.8,2.8,0,0,0-2-.72,2.58,2.58,0,0,0-2,.72,2.74,2.74,0,0,0-.72,1.44Z"/><path d="M817.4,146.84a3.12,3.12,0,0,1,2.19-5.31,3.15,3.15,0,0,1,2.22,1,3.12,3.12,0,0,1,0,4.35,3.07,3.07,0,0,1-2.19.93A3,3,0,0,1,817.4,146.84Z"/><path d="M830.81,139.91l-5.43-6.12h6.24l2.31,2.76,2.37-2.76h6.21L837,139.91l6.72,7.29h-6.36l-3.42-4-3.42,4h-6.36Z"/><path d="M850.13,125.33V147.2h-4.8V125.33Z"/><path d="M854.27,142.76a6.87,6.87,0,0,0,1.92,1,6.25,6.25,0,0,0,1.86.33,2,2,0,0,0,1.23-.36.77.77,0,0,0,.24-.63.71.71,0,0,0-.24-.6A3,3,0,0,0,858,142l-1.26-.3a4.31,4.31,0,0,1-2.34-1.17,3.24,3.24,0,0,1-.87-2.31,4.79,4.79,0,0,1,1.26-3.27,6.77,6.77,0,0,1,4.8-1.62,11.07,11.07,0,0,1,4.29.87l-1.62,3.06a6.64,6.64,0,0,0-2.52-.66,2,2,0,0,0-1.11.27.72.72,0,0,0-.42.66.78.78,0,0,0,.57.75c.45.18.84.18,1.59.39l.87.24a5.67,5.67,0,0,1,2,1.05,3.79,3.79,0,0,1,1,2.67,4.48,4.48,0,0,1-1.35,3.33,7,7,0,0,1-4.95,1.68,9.89,9.89,0,0,1-5.4-1.56Z"/><path d="M800.66,577.32c-.42.31-.85.6-1.29.89l-.61.39c-.57.35-1.15.69-1.74,1l-.4.2a30.82,30.82,0,0,1-4.23,1.79l-.15,0c-.76.25-1.53.48-2.31.67h0c-.78.19-1.58.36-2.38.49h-.07c-.75.12-1.51.21-2.27.28l-.4,0c-.76,0-1.51.09-2.27.09s-1.54,0-2.3-.09l-.4,0c-.77-.07-1.53-.16-2.29-.29h-.1a31.94,31.94,0,0,1-4.72-1.18l-.14,0c-.76-.26-1.52-.55-2.26-.86h0c-.71-.3-1.39-.64-2.07-1l-.27-.14c-.62-.33-1.22-.69-1.82-1.06l-.53-.34c-.55-.36-1.09-.73-1.62-1.13l-.16-.13.11-.06,9.59-5.23a5.14,5.14,0,0,0,2.68-4.51v-4.36l-.27-.34a20.17,20.17,0,0,1-3.64-7.54l-.11-.48-.42-.27a2,2,0,0,1-.93-1.68v-4.3a2,2,0,0,1,.68-1.49l.4-.36v-6.75l0-.16a7.32,7.32,0,0,1,1.7-5.29c1.75-2,4.76-3,8.93-3s7.15,1,8.9,3a7.42,7.42,0,0,1,1.72,5.31v6.92l.4.36a2,2,0,0,1,.67,1.48v4.3a2,2,0,0,1-1.43,1.91l-.6.18-.2.6a22.34,22.34,0,0,1-3,6.11c-.32.44-.63.84-.9,1.15l-.3.34v4.49a5.09,5.09,0,0,0,2.84,4.58l10.26,5.13.2.1Z" style="fill:none;stroke:#636868;stroke-miterlimit:10;stroke-width:5px"/><circle cx="782.45" cy="550.49" r="34.47" style="fill:none;stroke:#636868;stroke-miterlimit:10;stroke-width:5px"/><rect x="510.24" y="297.5" width="364.5" height="64" rx="12" ry="12" style="fill:none;stroke:#f7931f;stroke-miterlimit:10;stroke-width:5px"/><polygon points="791.51 475.06 791.69 418.36 799.86 418.39 782.55 400.97 765.13 418.28 773.3 418.3 773.12 475 791.51 475.06" style="fill:none;stroke:#636868;stroke-miterlimit:10;stroke-width:5px"/><polygon points="623.51 475.06 623.69 418.36 631.86 418.39 614.55 400.97 597.13 418.28 605.3 418.3 605.12 475 623.51 475.06" style="fill:none;stroke:#3a5c84;stroke-miterlimit:10;stroke-width:5px"/><polygon points="701.51 273.56 701.69 216.86 709.86 216.89 692.55 199.47 675.13 216.78 683.3 216.8 683.12 273.5 701.51 273.56" style="fill:none;stroke:#f7931f;stroke-miterlimit:10;stroke-width:5px"/><rect x="560.38" y="513.74" width="104.21" height="73.51" rx="12" ry="12" style="fill:none;stroke:#3a5c84;stroke-miterlimit:10;stroke-width:5px"/><path d="M592.55,543.07a3.93,3.93,0,0,1-1.06,2.88.27.27,0,0,0,0,.27l1.29,2.7a.21.21,0,0,0,.24.14,3.93,3.93,0,0,1,4.2,3.79.26.26,0,0,0,.16.22l2.82,1s0,0,.05,0a.18.18,0,0,0,.23-.08,4.33,4.33,0,0,1,.58-.55l0,0,.29-.19a1.71,1.71,0,0,1,.23-.13l.11-.06a3.9,3.9,0,0,1,4.39.67.22.22,0,0,0,.27,0l2.7-1.29h0a.24.24,0,0,0,.14-.23,3.94,3.94,0,0,1,1-2.91,3.88,3.88,0,0,1,1.5-1l.08,0,.15,0,.25-.07h0a4.79,4.79,0,0,1,.76-.1.23.23,0,0,0,.22-.16l1-2.82a.25.25,0,0,0-.07-.26,3.91,3.91,0,0,1-.3-5.65.23.23,0,0,0,0-.27L613,537h0l-.4-.85-.07-.07h0l0,0-.1,0h0a3.93,3.93,0,0,1-4.2-3.79A.26.26,0,0,0,608,532l-2.82-1a.2.2,0,0,0-.26.07h0a4.08,4.08,0,0,1-.89.77l-.07,0c-.09.06-.18.1-.27.15a3.76,3.76,0,0,1-1.52.39,3.89,3.89,0,0,1-2.88-1,.23.23,0,0,0-.27,0l-2.7,1.29a.23.23,0,0,0-.13.23,4,4,0,0,1-1,2.91,3.92,3.92,0,0,1-2.79,1.29.22.22,0,0,0-.22.16l-.69,2h0l-.31.89a.25.25,0,0,0,.07.26A4,4,0,0,1,592.55,543.07Zm6.13-4.78,0,0A3.23,3.23,0,0,1,599,538l.19-.16a.47.47,0,0,0,.09-.06,5.81,5.81,0,1,1,5.83,10,4.89,4.89,0,0,1-.48.2h0a5.82,5.82,0,0,1-5.93-9.73Z" style="fill:#3a5c84"/><path d="M606.05,564.21a5,5,0,0,1-1.35,3.7.32.32,0,0,0-.06.35l1.66,3.47a.27.27,0,0,0,.3.18,5,5,0,0,1,3.73,1.28,5,5,0,0,1,1.67,3.58.31.31,0,0,0,.2.28l3.62,1.28h.07a.25.25,0,0,0,.29-.1,5.12,5.12,0,0,1,.76-.71l0,0,.37-.26.3-.16a.61.61,0,0,1,.14-.07,4.94,4.94,0,0,1,1.93-.51,5.1,5.1,0,0,1,3.71,1.36.26.26,0,0,0,.34,0l3.47-1.65h0a.31.31,0,0,0,.18-.29,5,5,0,0,1,3.2-5.06l.11,0,.2-.06.31-.09h0a5.15,5.15,0,0,1,1-.13.33.33,0,0,0,.28-.21l1.28-3.63a.28.28,0,0,0-.09-.33,5,5,0,0,1-.38-7.25.32.32,0,0,0,.06-.35l-1.14-2.38h0l-.52-1.09a.26.26,0,0,0-.09-.09h0l0,0a.17.17,0,0,0-.12,0h0a5,5,0,0,1-5.4-4.87.32.32,0,0,0-.21-.28l-3.62-1.28a.26.26,0,0,0-.34.09h0a4.91,4.91,0,0,1-1.16,1l-.09.05-.33.19a5.07,5.07,0,0,1-5.66-.85.29.29,0,0,0-.34,0l-3.47,1.65a.31.31,0,0,0-.18.3,5,5,0,0,1-4.86,5.4.27.27,0,0,0-.28.21l-.89,2.51h0l-.4,1.14a.34.34,0,0,0,.09.34A5,5,0,0,1,606.05,564.21Zm7.88-6.14.05,0a3.07,3.07,0,0,1,.34-.29l.25-.21.11-.07a7.47,7.47,0,1,1,7.49,12.84,6.57,6.57,0,0,1-.61.26h0a7.47,7.47,0,0,1-7.61-12.49Z" style="fill:#3a5c84"/><path d="M611.47,530.88a2.65,2.65,0,0,1-.72,2,.15.15,0,0,0,0,.18l.88,1.85a.14.14,0,0,0,.16.09,2.62,2.62,0,0,1,2,.68,2.71,2.71,0,0,1,.89,1.9.15.15,0,0,0,.1.15l1.93.68h0a.15.15,0,0,0,.16,0,2.4,2.4,0,0,1,.4-.38h0l.19-.14.16-.08.08,0a2.53,2.53,0,0,1,1-.27,2.67,2.67,0,0,1,2,.72.13.13,0,0,0,.18,0l1.84-.88h0a.16.16,0,0,0,.1-.16,2.63,2.63,0,0,1,.68-2,2.66,2.66,0,0,1,1-.7l.06,0,.1,0,.17,0h0a4.34,4.34,0,0,1,.52-.07.17.17,0,0,0,.15-.11l.68-1.92a.18.18,0,0,0-.05-.18,2.67,2.67,0,0,1-.2-3.85.17.17,0,0,0,0-.18l-.61-1.27h0l-.27-.58,0,0h0l-.06,0h0a2.68,2.68,0,0,1-2.87-2.58.15.15,0,0,0-.11-.15l-1.92-.68a.14.14,0,0,0-.18,0h0a2.76,2.76,0,0,1-.61.52l0,0-.18.09a2.46,2.46,0,0,1-1,.27,2.65,2.65,0,0,1-2-.72.17.17,0,0,0-.18,0l-1.85.88a.16.16,0,0,0-.09.16,2.67,2.67,0,0,1-2.58,2.86c-.05,0-.11,0-.15.11l-.47,1.33h0l-.21.6a.17.17,0,0,0,0,.18A2.7,2.7,0,0,1,611.47,530.88Zm4.18-3.25,0,0,.18-.15a.69.69,0,0,1,.13-.11l.06,0a4,4,0,1,1,4,6.82,2.26,2.26,0,0,1-.33.13h0a4,4,0,0,1-4-6.63Z" style="fill:#3a5c84"/><path d="M571,617.59v7.07h-5.53V603.32h8.83a7.37,7.37,0,0,1,5.41,1.92,6.62,6.62,0,0,1,2,5.18,6.9,6.9,0,0,1-1.89,5.31,7.12,7.12,0,0,1-5.31,1.86Zm0-4.48h1.86a3.68,3.68,0,0,0,2.34-.67,2.45,2.45,0,0,0,.7-2,2.56,2.56,0,0,0-.64-1.92,3.22,3.22,0,0,0-2.37-.77H571Z"/><path d="M584.12,610.36h5.12v2.33a4.55,4.55,0,0,1,2-2,5.56,5.56,0,0,1,2.66-.58c.12,0,.35,0,1,.07V615a4.48,4.48,0,0,0-2.21-.51,3.3,3.3,0,0,0-2.33.77,4.29,4.29,0,0,0-1.15,3.26v6.11h-5.12Z"/><path d="M611,622.77a9.77,9.77,0,0,1-12.76,0,7.12,7.12,0,0,1-2.21-5.28,7,7,0,0,1,2.21-5.24,8.88,8.88,0,0,1,6.36-2.37,9,9,0,0,1,6.4,2.37,7,7,0,0,1,2.21,5.24A7.12,7.12,0,0,1,611,622.77Zm-8.67-7.61a3.25,3.25,0,1,0,4.58,4.6,3.14,3.14,0,0,0,1-2.27,3.45,3.45,0,0,0-1-2.33,3.28,3.28,0,0,0-4.58,0Z"/><path d="M626.93,624.34a7.59,7.59,0,0,1-3.55.8,7.86,7.86,0,0,1-5.63-2.18,7.45,7.45,0,0,1-2.21-5.34,7.8,7.8,0,0,1,2.3-5.54,8.26,8.26,0,0,1,5.76-2.17,7.34,7.34,0,0,1,3.33.8V615a4.56,4.56,0,0,0-2.65-.93,3.36,3.36,0,0,0-2.5,1,3.48,3.48,0,0,0-1,2.46,3.71,3.71,0,0,0,.89,2.4,3.47,3.47,0,0,0,2.63,1.09,3.88,3.88,0,0,0,2.62-1Z"/><path d="M645,618.45H634.36a3.6,3.6,0,0,0,.89,2.4,2.87,2.87,0,0,0,2.11.71,4.13,4.13,0,0,0,1.67-.39,2.32,2.32,0,0,0,.89-1h4.9a6.5,6.5,0,0,1-1.73,2.95c-1.06,1-2.72,2-5.82,2a8.11,8.11,0,0,1-5.92-2.18,7.45,7.45,0,0,1-2.11-5.4,7.64,7.64,0,0,1,2.14-5.54,8.06,8.06,0,0,1,5.86-2.08,7.84,7.84,0,0,1,5.5,1.95,8,8,0,0,1,2.27,6Zm-4.7-2.94a3.5,3.5,0,0,0-.83-1.54,3,3,0,0,0-2.12-.76,2.78,2.78,0,0,0-2.08.76,2.92,2.92,0,0,0-.76,1.54Z"/><path d="M648.88,619.92a7.27,7.27,0,0,0,2,1.06,6.78,6.78,0,0,0,2,.35,2.17,2.17,0,0,0,1.32-.38.84.84,0,0,0,.25-.67.76.76,0,0,0-.25-.64,3.1,3.1,0,0,0-1.35-.51l-1.34-.33a4.59,4.59,0,0,1-2.5-1.24,3.5,3.5,0,0,1-.93-2.47,5.1,5.1,0,0,1,1.35-3.48,7.23,7.23,0,0,1,5.12-1.73,11.84,11.84,0,0,1,4.57.92l-1.72,3.27a7.11,7.11,0,0,0-2.69-.7,2.21,2.21,0,0,0-1.19.28.78.78,0,0,0-.44.71.84.84,0,0,0,.6.8c.48.19.9.19,1.7.41l.93.26a6,6,0,0,1,2.11,1.12,4.06,4.06,0,0,1,1.09,2.85,4.8,4.8,0,0,1-1.44,3.55,7.47,7.47,0,0,1-5.28,1.79,10.57,10.57,0,0,1-5.76-1.66Z"/><polygon points="172.24 406.78 172.42 350.08 180.59 350.1 163.28 332.68 145.86 349.99 154.03 350.02 153.85 406.72 172.24 406.78" style="fill:none;stroke:#3a5c84;stroke-miterlimit:10;stroke-width:5px"/><line x1="140.47" y1="294.8" x2="186.73" y2="294.8" style="fill:none;stroke:#91c54f;stroke-miterlimit:10;stroke-width:5px"/><line x1="140.47" y1="282.83" x2="186.73" y2="282.83" style="fill:none;stroke:#91c54f;stroke-miterlimit:10;stroke-width:5px"/><line x1="140.47" y1="270.87" x2="186.73" y2="270.87" style="fill:none;stroke:#91c54f;stroke-miterlimit:10;stroke-width:5px"/><line x1="140.47" y1="258.9" x2="186.73" y2="258.9" style="fill:none;stroke:#91c54f;stroke-miterlimit:10;stroke-width:5px"/><line x1="140.47" y1="246.93" x2="159.57" y2="246.93" style="fill:none;stroke:#91c54f;stroke-miterlimit:10;stroke-width:5px"/><path d="M184.31,242.63a6.48,6.48,0,0,1-6.46-6.46v-12.1H137.78a6.47,6.47,0,0,0-6.45,6.46V298.3a6.47,6.47,0,0,0,6.45,6.45h51.64a6.47,6.47,0,0,0,6.45-6.45V242.63Z" style="fill:none;stroke:#91c54f;stroke-miterlimit:10;stroke-width:5px"/><path d="M220.72,268h4.8v1.68a5.06,5.06,0,0,1,4.26-2,5.42,5.42,0,0,1,4,1.44A4.62,4.62,0,0,1,235,272.9v8.52h-4.8v-6.78a3.85,3.85,0,0,0-.6-2.61,2,2,0,0,0-1.53-.57,2.63,2.63,0,0,0-1.77.63,3.08,3.08,0,0,0-.78,2.13v7.2h-4.8Z"/><path d="M251.77,279.65a9.18,9.18,0,0,1-12,0,6.92,6.92,0,0,1,0-9.87,8.37,8.37,0,0,1,6-2.22,8.47,8.47,0,0,1,6,2.22,6.92,6.92,0,0,1,0,9.87Zm-8.13-7.14a3.06,3.06,0,0,0,2.16,5.22,3.05,3.05,0,0,0,2.13-.9,3,3,0,0,0,.93-2.13,3.26,3.26,0,0,0-.93-2.19,3.08,3.08,0,0,0-4.29,0Z"/><path d="M261.91,271.94v9.48h-4.8v-9.48h-1.53V268h1.53V263.6h4.8V268h2.73v3.93Z"/><path d="M280.66,275.6h-10a3.39,3.39,0,0,0,.84,2.25,2.7,2.7,0,0,0,2,.66,3.79,3.79,0,0,0,1.56-.36,2.23,2.23,0,0,0,.84-.9h4.59a6,6,0,0,1-1.62,2.76c-1,1-2.55,1.86-5.46,1.86a7.61,7.61,0,0,1-5.55-2,7,7,0,0,1-2-5.07,7.16,7.16,0,0,1,2-5.19,7.55,7.55,0,0,1,5.49-1.95,7.35,7.35,0,0,1,5.16,1.83,7.51,7.51,0,0,1,2.13,5.64Zm-4.41-2.76a3.22,3.22,0,0,0-.78-1.44,2.8,2.8,0,0,0-2-.72,2.58,2.58,0,0,0-1.95.72,2.74,2.74,0,0,0-.72,1.44Z"/><path d="M284.14,281.06a3.12,3.12,0,0,1,2.19-5.31,3.15,3.15,0,0,1,2.22,1,3.12,3.12,0,0,1,0,4.35,3.07,3.07,0,0,1-2.19.93A3,3,0,0,1,284.14,281.06Z"/><path d="M297.55,274.13,292.12,268h6.24l2.31,2.76L303,268h6.21l-5.55,6.12,6.72,7.29h-6.36l-3.42-4-3.42,4h-6.36Z"/><path d="M316.87,259.55v21.87h-4.8V259.55Z"/><path d="M321,277a6.87,6.87,0,0,0,1.92,1,6.25,6.25,0,0,0,1.86.33,2,2,0,0,0,1.23-.36.77.77,0,0,0,.24-.63.71.71,0,0,0-.24-.6,3,3,0,0,0-1.26-.48l-1.26-.3a4.31,4.31,0,0,1-2.34-1.17,3.24,3.24,0,0,1-.87-2.31,4.79,4.79,0,0,1,1.26-3.27,6.77,6.77,0,0,1,4.8-1.62,11.07,11.07,0,0,1,4.29.87L329,271.49a6.64,6.64,0,0,0-2.52-.66,2,2,0,0,0-1.11.27.72.72,0,0,0-.42.66.78.78,0,0,0,.57.75c.45.18.84.18,1.59.39l.87.24a5.67,5.67,0,0,1,2,1.05,3.79,3.79,0,0,1,1,2.67,4.48,4.48,0,0,1-1.35,3.33,7,7,0,0,1-4.95,1.68,9.89,9.89,0,0,1-5.4-1.56Z"/><rect x="111.12" y="434.95" width="104.21" height="73.51" rx="12" ry="12" style="fill:none;stroke:#3a5c84;stroke-miterlimit:10;stroke-width:5px"/><path d="M143.29,464.28a3.94,3.94,0,0,1-1,2.89.25.25,0,0,0-.05.27l1.29,2.7a.22.22,0,0,0,.24.14,3.92,3.92,0,0,1,4.2,3.78.25.25,0,0,0,.16.22l2.82,1h0a.2.2,0,0,0,.23-.08,3.78,3.78,0,0,1,.58-.55l0,0,.29-.2a1.67,1.67,0,0,1,.23-.12.24.24,0,0,1,.11-.06,3.75,3.75,0,0,1,1.5-.39,3.9,3.9,0,0,1,2.89,1.05.2.2,0,0,0,.27,0l2.7-1.29h0a.22.22,0,0,0,.14-.23,3.89,3.89,0,0,1,2.5-3.93l.08,0,.15,0,.25-.08h0a3.66,3.66,0,0,1,.75-.1.26.26,0,0,0,.22-.17l1-2.82a.26.26,0,0,0-.07-.26,3.9,3.9,0,0,1-.3-5.64.23.23,0,0,0,0-.27l-.88-1.86h0l-.4-.84a.16.16,0,0,0-.07-.07h0l0,0a.13.13,0,0,0-.1,0h0a3.92,3.92,0,0,1-4.2-3.78.22.22,0,0,0-.16-.22l-2.82-1a.2.2,0,0,0-.26.07h0a4,4,0,0,1-.89.76l-.07,0-.26.14a3.9,3.9,0,0,1-4.41-.66.26.26,0,0,0-.27,0l-2.7,1.29a.23.23,0,0,0-.13.24,3.93,3.93,0,0,1-3.79,4.2.21.21,0,0,0-.22.16l-.69,1.95h0l-.31.88a.27.27,0,0,0,.07.27A3.9,3.9,0,0,1,143.29,464.28Zm6.13-4.77,0,0,.27-.22.19-.16L150,459a5.81,5.81,0,1,1,5.83,10l-.48.2h0a5.82,5.82,0,0,1-5.93-9.72Z" style="fill:#3a5c84"/><path d="M156.79,485.42a5,5,0,0,1-1.35,3.71.32.32,0,0,0-.06.35l1.66,3.46c.1.2.21.19.3.18a5,5,0,0,1,5.4,4.86.32.32,0,0,0,.2.28l3.63,1.28h.06a.24.24,0,0,0,.29-.11,4.58,4.58,0,0,1,.76-.7s0,0,0,0l.36-.25a2.19,2.19,0,0,1,.3-.16l.14-.08a5,5,0,0,1,5.64.86.27.27,0,0,0,.34.05l3.47-1.66h0a.3.3,0,0,0,.18-.3,5,5,0,0,1,1.28-3.73,5,5,0,0,1,1.92-1.32l.12-.05.19-.06.31-.09h0a5.26,5.26,0,0,1,1-.13.3.3,0,0,0,.28-.21l1.29-3.62a.32.32,0,0,0-.1-.34,5,5,0,0,1-.37-7.25.32.32,0,0,0,0-.34L183,477.62h0l-.52-1.08a.34.34,0,0,0-.08-.09l0,0,0,0-.12,0h0a5,5,0,0,1-5.4-4.86.3.3,0,0,0-.21-.28L173,469.93a.28.28,0,0,0-.34.08h0a5.21,5.21,0,0,1-1.16,1l-.08,0-.34.19a4.91,4.91,0,0,1-1.95.51,5.06,5.06,0,0,1-3.71-1.36.32.32,0,0,0-.34-.05L161.59,472a.32.32,0,0,0-.18.3,5,5,0,0,1-4.86,5.39.28.28,0,0,0-.28.21l-.89,2.51h0l-.4,1.13a.33.33,0,0,0,.09.34A5.06,5.06,0,0,1,156.79,485.42Zm7.88-6.13.05-.05.34-.29c.09-.07.16-.14.25-.2l.11-.08a7.47,7.47,0,1,1,7.49,12.85,6.5,6.5,0,0,1-.61.25h0a7.47,7.47,0,0,1-7.61-12.49Z" style="fill:#3a5c84"/><path d="M162.21,452.1a2.67,2.67,0,0,1-.72,2,.17.17,0,0,0,0,.18l.88,1.84a.16.16,0,0,0,.16.1,2.65,2.65,0,0,1,2,.67,2.73,2.73,0,0,1,.89,1.9.17.17,0,0,0,.11.16l1.92.67h0a.14.14,0,0,0,.16-.06,2.34,2.34,0,0,1,.4-.37l0,0,.19-.13.16-.09.08,0a2.56,2.56,0,0,1,1-.26,2.63,2.63,0,0,1,2,.72.14.14,0,0,0,.18,0l1.84-.88h0a.16.16,0,0,0,.1-.16,2.62,2.62,0,0,1,.68-2,2.56,2.56,0,0,1,1-.7l.06,0,.1,0,.17,0h0a2.25,2.25,0,0,1,.52-.07.17.17,0,0,0,.15-.11l.68-1.93a.16.16,0,0,0-.05-.17,2.7,2.7,0,0,1-.92-1.88,2.64,2.64,0,0,1,.72-2,.19.19,0,0,0,0-.19l-.61-1.26h0l-.27-.57a.08.08,0,0,0-.05-.05h0l0,0a.07.07,0,0,0-.06,0h0a2.65,2.65,0,0,1-2-.68,2.69,2.69,0,0,1-.89-1.9.16.16,0,0,0-.11-.15l-1.92-.68a.13.13,0,0,0-.18.05h0a2.8,2.8,0,0,1-.61.53l0,0-.18.1a2.62,2.62,0,0,1-1,.27,2.67,2.67,0,0,1-2-.72.15.15,0,0,0-.18,0l-1.84.88a.17.17,0,0,0-.1.16,2.67,2.67,0,0,1-2.58,2.86.16.16,0,0,0-.15.12l-.47,1.33h0l-.21.61a.18.18,0,0,0,0,.18A2.68,2.68,0,0,1,162.21,452.1Zm4.18-3.26,0,0,.18-.16a.69.69,0,0,0,.13-.11l.06,0a4,4,0,0,1,6.05,4.55,3.94,3.94,0,0,1-2.07,2.27l-.33.14h0a4,4,0,0,1-4-6.63Z" style="fill:#3a5c84"/><path d="M238.52,475.92V483H233L233,461.66l8.83,0a7.32,7.32,0,0,1,5.42,1.91,6.6,6.6,0,0,1,2,5.17,7,7,0,0,1-1.88,5.32,7.11,7.11,0,0,1-5.3,1.87Zm0-4.48h1.85a3.66,3.66,0,0,0,2.34-.67,2.47,2.47,0,0,0,.7-2,2.63,2.63,0,0,0-.64-1.92,3.28,3.28,0,0,0-2.37-.76H238.5Z"/><path d="M251.66,468.66l5.12,0V471a4.63,4.63,0,0,1,2-2,5.56,5.56,0,0,1,2.66-.58l1,.06v4.83a4.52,4.52,0,0,0-2.21-.5,3.35,3.35,0,0,0-2.33.77,4.31,4.31,0,0,0-1.15,3.27l0,6.11h-5.12Z"/><path d="M278.53,481a9.8,9.8,0,0,1-12.77,0,7.38,7.38,0,0,1,0-10.53,9.79,9.79,0,0,1,12.77,0,7.07,7.07,0,0,1,2.22,5.24A7.17,7.17,0,0,1,278.53,481Zm-8.69-7.59a3.25,3.25,0,1,0,4.59,4.59,3.11,3.11,0,0,0,1-2.27,3.45,3.45,0,0,0-1-2.33,3.27,3.27,0,0,0-4.58,0Z"/><path d="M294.5,482.55a7.59,7.59,0,0,1-3.55.8,7.91,7.91,0,0,1-5.64-2.16,7.49,7.49,0,0,1-2.21-5.34,7.75,7.75,0,0,1,2.29-5.54,8.27,8.27,0,0,1,5.75-2.19,7.34,7.34,0,0,1,3.33.8v4.28a4.56,4.56,0,0,0-2.66-.92,3.36,3.36,0,0,0-2.49,1,3.48,3.48,0,0,0-1,2.46,3.66,3.66,0,0,0,.9,2.4,3.48,3.48,0,0,0,2.63,1.08,3.84,3.84,0,0,0,2.62-1Z"/><path d="M312.57,476.62l-10.66,0a3.61,3.61,0,0,0,.9,2.4,2.89,2.89,0,0,0,2.12.7,4,4,0,0,0,1.66-.39,2.32,2.32,0,0,0,.89-1h4.9a6.46,6.46,0,0,1-1.72,2.95c-1.06,1-2.72,2-5.82,2a8.09,8.09,0,0,1-5.93-2.16,7.49,7.49,0,0,1-2.12-5.4,7.68,7.68,0,0,1,2.13-5.54,8,8,0,0,1,5.85-2.09,7.79,7.79,0,0,1,5.51,1.94,8,8,0,0,1,2.29,6Zm-4.71-2.93a3.42,3.42,0,0,0-.84-1.54,3,3,0,0,0-2.11-.76,2.75,2.75,0,0,0-2.08.77,2.92,2.92,0,0,0-.76,1.54Z"/><path d="M316.44,478.08a7.54,7.54,0,0,0,2.05,1.06,6.76,6.76,0,0,0,2,.34,2.22,2.22,0,0,0,1.31-.38.85.85,0,0,0,.25-.68.78.78,0,0,0-.25-.64,3.23,3.23,0,0,0-1.35-.5L319.1,477a4.59,4.59,0,0,1-2.5-1.24,3.5,3.5,0,0,1-.94-2.47,5.14,5.14,0,0,1,1.34-3.49,7.28,7.28,0,0,1,5.12-1.74,11.84,11.84,0,0,1,4.57.92L325,472.21a7.06,7.06,0,0,0-2.69-.7,2.17,2.17,0,0,0-1.18.29.77.77,0,0,0-.45.71.86.86,0,0,0,.61.8c.48.19.9.19,1.7.41l.93.25a5.9,5.9,0,0,1,2.11,1.12,4,4,0,0,1,1.1,2.84,4.82,4.82,0,0,1-1.43,3.56,7.47,7.47,0,0,1-5.28,1.8,10.54,10.54,0,0,1-5.76-1.65Z"/><rect x="58.26" y="171.79" width="343" height="389" rx="12" ry="12" style="fill:none;stroke:#4fc2c9;stroke-miterlimit:10;stroke-width:5.75515596852621px"/><polygon points="1097.24 406.78 1097.42 350.08 1105.59 350.1 1088.28 332.68 1070.86 349.99 1079.03 350.02 1078.85 406.72 1097.24 406.78" style="fill:none;stroke:#91c54f;stroke-miterlimit:10;stroke-width:5px"/><line x1="1065.47" y1="294.79" x2="1111.73" y2="294.79" style="fill:none;stroke:#91c54f;stroke-miterlimit:10;stroke-width:5px"/><line x1="1065.47" y1="282.82" x2="1111.73" y2="282.82" style="fill:none;stroke:#91c54f;stroke-miterlimit:10;stroke-width:5px"/><line x1="1065.47" y1="270.84" x2="1111.73" y2="270.84" style="fill:none;stroke:#91c54f;stroke-miterlimit:10;stroke-width:5px"/><line x1="1065.47" y1="258.86" x2="1111.73" y2="258.86" style="fill:none;stroke:#91c54f;stroke-miterlimit:10;stroke-width:5px"/><line x1="1065.47" y1="246.88" x2="1084.57" y2="246.88" style="fill:none;stroke:#91c54f;stroke-miterlimit:10;stroke-width:5px"/><path d="M1109.31,242.57a6.48,6.48,0,0,1-6.46-6.46V224h-40.07a6.47,6.47,0,0,0-6.45,6.46v67.83a6.47,6.47,0,0,0,6.45,6.46h51.64a6.47,6.47,0,0,0,6.45-6.46V242.57Z" style="fill:none;stroke:#91c54f;stroke-miterlimit:10;stroke-width:5px"/><path d="M1145.72,268h4.8v1.68a5.06,5.06,0,0,1,4.26-2,5.42,5.42,0,0,1,4,1.44,4.62,4.62,0,0,1,1.26,3.75v8.52h-4.8v-6.78a3.85,3.85,0,0,0-.6-2.61,2,2,0,0,0-1.53-.57,2.63,2.63,0,0,0-1.77.63,3.08,3.08,0,0,0-.78,2.13v7.2h-4.8Z"/><path d="M1176.77,279.65a9.18,9.18,0,0,1-12,0,6.92,6.92,0,0,1,0-9.87,8.37,8.37,0,0,1,6-2.22,8.47,8.47,0,0,1,6,2.22,6.92,6.92,0,0,1,0,9.87Zm-8.13-7.14a3.06,3.06,0,0,0,2.16,5.22,3.05,3.05,0,0,0,2.13-.9,3,3,0,0,0,.93-2.13,3.26,3.26,0,0,0-.93-2.19,3.08,3.08,0,0,0-4.29,0Z"/><path d="M1186.91,271.94v9.48h-4.8v-9.48h-1.53V268h1.53V263.6h4.8V268h2.73v3.93Z"/><path d="M1205.66,275.6h-10a3.39,3.39,0,0,0,.84,2.25,2.7,2.7,0,0,0,2,.66,3.79,3.79,0,0,0,1.56-.36,2.23,2.23,0,0,0,.84-.9h4.59a6,6,0,0,1-1.62,2.76c-1,1-2.55,1.86-5.46,1.86a7.61,7.61,0,0,1-5.55-2,7,7,0,0,1-2-5.07,7.16,7.16,0,0,1,2-5.19,7.55,7.55,0,0,1,5.49-1.95,7.35,7.35,0,0,1,5.16,1.83,7.51,7.51,0,0,1,2.13,5.64Zm-4.41-2.76a3.22,3.22,0,0,0-.78-1.44,2.8,2.8,0,0,0-2-.72,2.58,2.58,0,0,0-2,.72,2.74,2.74,0,0,0-.72,1.44Z"/><path d="M1209.14,281.06a3.12,3.12,0,0,1,2.19-5.31,3.15,3.15,0,0,1,2.22,1,3.12,3.12,0,0,1,0,4.35,3.07,3.07,0,0,1-2.19.93A3,3,0,0,1,1209.14,281.06Z"/><path d="M1222.55,274.13l-5.43-6.12h6.24l2.31,2.76L1228,268h6.21l-5.55,6.12,6.72,7.29h-6.36l-3.42-4-3.42,4h-6.36Z"/><path d="M1241.87,259.55v21.87h-4.8V259.55Z"/><path d="M1246,277a6.87,6.87,0,0,0,1.92,1,6.25,6.25,0,0,0,1.86.33,2,2,0,0,0,1.23-.36.77.77,0,0,0,.24-.63.71.71,0,0,0-.24-.6,3,3,0,0,0-1.26-.48l-1.26-.3a4.31,4.31,0,0,1-2.34-1.17,3.24,3.24,0,0,1-.87-2.31,4.79,4.79,0,0,1,1.26-3.27,6.77,6.77,0,0,1,4.8-1.62,11.07,11.07,0,0,1,4.29.87l-1.62,3.06a6.64,6.64,0,0,0-2.52-.66,2,2,0,0,0-1.11.27.72.72,0,0,0-.42.66.78.78,0,0,0,.57.75c.45.18.84.18,1.59.39l.87.24a5.67,5.67,0,0,1,2,1.05,3.79,3.79,0,0,1,1,2.67,4.48,4.48,0,0,1-1.35,3.33,7,7,0,0,1-5,1.68,9.89,9.89,0,0,1-5.4-1.56Z"/><rect x="1036.12" y="434.95" width="104.21" height="73.51" rx="12" ry="12" style="fill:none;stroke:#3a5c84;stroke-miterlimit:10;stroke-width:5px"/><path d="M1068.29,464.28a3.94,3.94,0,0,1-1,2.89.25.25,0,0,0,0,.27l1.29,2.7a.22.22,0,0,0,.24.14,3.92,3.92,0,0,1,4.2,3.78.25.25,0,0,0,.16.22l2.82,1h0a.2.2,0,0,0,.23-.08,3.78,3.78,0,0,1,.58-.55l0,0,.29-.2a1.67,1.67,0,0,1,.23-.12.24.24,0,0,1,.11-.06,3.75,3.75,0,0,1,1.5-.39,3.9,3.9,0,0,1,2.89,1.05.2.2,0,0,0,.27,0l2.7-1.29h0a.22.22,0,0,0,.14-.23,3.89,3.89,0,0,1,2.5-3.93l.08,0,.15,0,.25-.08h0a3.66,3.66,0,0,1,.75-.1.26.26,0,0,0,.22-.17l1-2.82a.26.26,0,0,0-.07-.26,3.9,3.9,0,0,1-.3-5.64.23.23,0,0,0,0-.27l-.88-1.86h0l-.4-.84a.16.16,0,0,0-.07-.07h0l0,0a.13.13,0,0,0-.1,0h0a3.92,3.92,0,0,1-4.2-3.78.22.22,0,0,0-.16-.22l-2.82-1a.2.2,0,0,0-.26.07h0a4,4,0,0,1-.89.76l-.07,0-.26.14a3.9,3.9,0,0,1-4.41-.66.26.26,0,0,0-.27,0l-2.7,1.29a.23.23,0,0,0-.13.24,3.93,3.93,0,0,1-3.79,4.2.21.21,0,0,0-.22.16l-.69,1.95h0l-.31.88a.27.27,0,0,0,.07.27A3.9,3.9,0,0,1,1068.29,464.28Zm6.13-4.77,0,0,.27-.22.19-.16.09-.06a5.81,5.81,0,1,1,5.83,10l-.48.2h0a5.82,5.82,0,0,1-5.93-9.72Z" style="fill:#3a5c84"/><path d="M1081.79,485.42a5,5,0,0,1-1.35,3.71.32.32,0,0,0-.06.35l1.66,3.46c.1.2.21.19.3.18a5,5,0,0,1,5.4,4.86.32.32,0,0,0,.2.28l3.63,1.28h.06a.24.24,0,0,0,.29-.11,4.58,4.58,0,0,1,.76-.7s0,0,0,0l.36-.25a2.19,2.19,0,0,1,.3-.16l.14-.08a5,5,0,0,1,5.64.86.27.27,0,0,0,.34.05l3.47-1.66h0a.3.3,0,0,0,.18-.3,5,5,0,0,1,1.28-3.73,5,5,0,0,1,1.92-1.32l.12-.05.19-.06.31-.09h0a5.26,5.26,0,0,1,1-.13.3.3,0,0,0,.28-.21l1.29-3.62a.32.32,0,0,0-.1-.34,5,5,0,0,1-.37-7.25.32.32,0,0,0,.05-.34l-1.14-2.39h0l-.52-1.08a.34.34,0,0,0-.08-.09l0,0,0,0-.12,0h0a5,5,0,0,1-5.4-4.86.3.3,0,0,0-.21-.28l-3.62-1.28a.28.28,0,0,0-.34.08h0a5.21,5.21,0,0,1-1.16,1l-.08,0-.34.19a4.91,4.91,0,0,1-2,.51,5.06,5.06,0,0,1-3.71-1.36.32.32,0,0,0-.34-.05l-3.47,1.66a.32.32,0,0,0-.18.3,5,5,0,0,1-4.86,5.39.28.28,0,0,0-.28.21l-.89,2.51h0l-.4,1.13a.33.33,0,0,0,.09.34A5.06,5.06,0,0,1,1081.79,485.42Zm7.88-6.13,0-.05.34-.29c.09-.07.16-.14.25-.2l.11-.08a7.47,7.47,0,1,1,7.49,12.85,6.5,6.5,0,0,1-.61.25h0a7.47,7.47,0,0,1-7.61-12.49Z" style="fill:#3a5c84"/><path d="M1087.21,452.1a2.67,2.67,0,0,1-.72,2,.17.17,0,0,0,0,.18l.88,1.84a.16.16,0,0,0,.16.1,2.65,2.65,0,0,1,2,.67,2.73,2.73,0,0,1,.89,1.9.17.17,0,0,0,.11.16l1.92.67h0a.14.14,0,0,0,.16-.06,2.34,2.34,0,0,1,.4-.37l0,0,.19-.13.16-.09.08,0a2.56,2.56,0,0,1,1-.26,2.63,2.63,0,0,1,2,.72.14.14,0,0,0,.18,0l1.84-.88h0a.16.16,0,0,0,.1-.16,2.62,2.62,0,0,1,.68-2,2.56,2.56,0,0,1,1-.7l.06,0,.1,0,.17,0h0a2.25,2.25,0,0,1,.52-.07.17.17,0,0,0,.15-.11l.68-1.93a.16.16,0,0,0,0-.17,2.7,2.7,0,0,1-.92-1.88,2.64,2.64,0,0,1,.72-2,.19.19,0,0,0,0-.19l-.61-1.26h0l-.27-.57a.08.08,0,0,0,0-.05h0l0,0a.07.07,0,0,0-.06,0h0a2.65,2.65,0,0,1-2-.68,2.69,2.69,0,0,1-.89-1.9.16.16,0,0,0-.11-.15l-1.92-.68a.13.13,0,0,0-.18.05h0a2.8,2.8,0,0,1-.61.53l0,0-.18.1a2.62,2.62,0,0,1-1,.27,2.67,2.67,0,0,1-2-.72.15.15,0,0,0-.18,0l-1.84.88a.17.17,0,0,0-.1.16,2.67,2.67,0,0,1-2.58,2.86.16.16,0,0,0-.15.12l-.47,1.33h0l-.21.61a.18.18,0,0,0,0,.18A2.68,2.68,0,0,1,1087.21,452.1Zm4.18-3.26,0,0,.18-.16a.69.69,0,0,0,.13-.11l.06,0a4,4,0,0,1,6,4.55,3.94,3.94,0,0,1-2.07,2.27l-.33.14h0a4,4,0,0,1-4-6.63Z" style="fill:#3a5c84"/><path d="M1163.51,475.8v7.07H1158V461.53h8.83a7.33,7.33,0,0,1,5.4,1.92,6.6,6.6,0,0,1,2,5.19,7,7,0,0,1-1.89,5.31,7.1,7.1,0,0,1-5.31,1.85Zm0-4.48h1.86a3.59,3.59,0,0,0,2.33-.67,2.45,2.45,0,0,0,.71-1.95,2.62,2.62,0,0,0-.64-1.92,3.27,3.27,0,0,0-2.37-.77h-1.89Z"/><path d="M1176.66,468.57h5.12v2.34a4.7,4.7,0,0,1,2-2,5.68,5.68,0,0,1,2.66-.57l1,.06v4.83a4.52,4.52,0,0,0-2.21-.51,3.35,3.35,0,0,0-2.33.77,4.31,4.31,0,0,0-1.16,3.26v6.11h-5.12Z"/><path d="M1203.51,481a9.82,9.82,0,0,1-12.77,0,7.17,7.17,0,0,1-2.2-5.28,7.09,7.09,0,0,1,2.2-5.25,9.79,9.79,0,0,1,12.77,0,7.05,7.05,0,0,1,2.21,5.25A7.14,7.14,0,0,1,1203.51,481Zm-8.67-7.62a3.18,3.18,0,0,0,0,4.61,3.21,3.21,0,0,0,4.58,0,3.16,3.16,0,0,0,1-2.27,3.48,3.48,0,0,0-1-2.34,3.28,3.28,0,0,0-4.58,0Z"/><path d="M1219.48,482.55a7.51,7.51,0,0,1-3.55.8,7.88,7.88,0,0,1-5.63-2.17,7.45,7.45,0,0,1-2.21-5.34,7.79,7.79,0,0,1,2.3-5.54,8.27,8.27,0,0,1,5.76-2.18,7.34,7.34,0,0,1,3.33.8v4.29a4.57,4.57,0,0,0-2.66-.93,3.32,3.32,0,0,0-2.49,1,3.44,3.44,0,0,0-1,2.46,3.65,3.65,0,0,0,.89,2.4,3.48,3.48,0,0,0,2.63,1.09,3.88,3.88,0,0,0,2.62-1Z"/><path d="M1237.56,476.67H1226.9a3.61,3.61,0,0,0,.9,2.4,2.88,2.88,0,0,0,2.11.7,4.06,4.06,0,0,0,1.67-.38,2.53,2.53,0,0,0,.89-1h4.9a6.52,6.52,0,0,1-1.73,2.94c-1.06,1-2.72,2-5.82,2a8.1,8.1,0,0,1-5.92-2.17,7.49,7.49,0,0,1-2.12-5.41,7.6,7.6,0,0,1,2.15-5.53,8,8,0,0,1,5.85-2.08,7.84,7.84,0,0,1,5.51,1.95,8,8,0,0,1,2.27,6Zm-4.71-2.95a3.28,3.28,0,0,0-.83-1.53,3,3,0,0,0-2.11-.77,2.73,2.73,0,0,0-2.08.77,2.93,2.93,0,0,0-.77,1.53Z"/><path d="M1241.43,478.14a7.11,7.11,0,0,0,2,1.05,6.5,6.5,0,0,0,2,.36,2.13,2.13,0,0,0,1.31-.39.79.79,0,0,0,.26-.67.75.75,0,0,0-.26-.64,3.13,3.13,0,0,0-1.34-.51l-1.34-.32a4.62,4.62,0,0,1-2.5-1.25,3.47,3.47,0,0,1-.93-2.46,5.11,5.11,0,0,1,1.35-3.49,7.2,7.2,0,0,1,5.12-1.73,11.8,11.8,0,0,1,4.57.93l-1.73,3.26a7.06,7.06,0,0,0-2.68-.7,2.18,2.18,0,0,0-1.19.29.76.76,0,0,0-.45.7.84.84,0,0,0,.61.8c.48.19.9.19,1.7.42l.93.25a6.33,6.33,0,0,1,2.11,1.12,4.08,4.08,0,0,1,1.09,2.85,4.78,4.78,0,0,1-1.44,3.55,7.42,7.42,0,0,1-5.28,1.79,10.57,10.57,0,0,1-5.76-1.66Z"/><rect x="983.26" y="171.79" width="343" height="389" rx="12" ry="12" style="fill:none;stroke:#4fc2c9;stroke-miterlimit:10;stroke-width:5.75515596852621px"/><rect x="461" y="72.5" width="485" height="595" rx="12" ry="12" style="fill:none;stroke:#4fc2c9;stroke-miterlimit:10;stroke-width:5.85744696472034px"/><rect x="209.26" y="594.75" width="41" height="41" rx="12" ry="12" style="fill:none;stroke:#636868;stroke-miterlimit:10;stroke-width:3px"/><path d="M228.59,609.65h-2.85v-4.4h8v20h-5.19Z"/><path d="M725.24,603.86v11.85a4,4,0,0,0,1,3.09,3.69,3.69,0,0,0,4.86.09,4.38,4.38,0,0,0,1.17-3.63v-11.4h5.19v11.49c0,2.1-.09,4.29-2.25,6.48a8.64,8.64,0,0,1-6.6,2.49,8.93,8.93,0,0,1-6.63-2.4c-1.74-1.89-2-4.44-2-6.57V603.86Z"/><path d="M746.54,614.39v9.48h-4.8v-9.48h-1.53v-3.93h1.53v-4.41h4.8v4.41h2.73v3.93Z"/><path d="M753.47,602.18a2.7,2.7,0,1,1-2.7,2.7A2.69,2.69,0,0,1,753.47,602.18Zm2.4,8.28v13.41h-4.8V610.46Z"/><path d="M763.94,602v21.87h-4.8V602Z"/><path d="M769.61,602.18a2.7,2.7,0,1,1-2.7,2.7A2.69,2.69,0,0,1,769.61,602.18Zm2.4,8.28v13.41h-4.8V610.46Z"/><path d="M782.27,619.94h5.61v3.93H774.23l6.33-9.48h-5.4v-3.93h13.38Z"/><path d="M801.17,610.46H806v13.41h-4.8V622.4a5,5,0,0,1-4.17,1.92,6.42,6.42,0,0,1-4.83-2.13,6.76,6.76,0,0,1-1.92-4.92,7.42,7.42,0,0,1,2.07-5.37,6.9,6.9,0,0,1,4.83-1.89,5.31,5.31,0,0,1,4,1.74Zm-5,4.5a3.14,3.14,0,0,0-1,2.19,3.09,3.09,0,0,0,.93,2.19,3.37,3.37,0,0,0,2.16.9,3.08,3.08,0,0,0,2.16-.93,2.91,2.91,0,0,0,.9-2.16,3,3,0,0,0-.93-2.19,3,3,0,0,0-4.26,0Z"/><path d="M814.58,614.39v9.48h-4.8v-9.48h-1.53v-3.93h1.53v-4.41h4.8v4.41h2.73v3.93Z"/><path d="M832.61,622.1a9.18,9.18,0,0,1-12,0,6.92,6.92,0,0,1,0-9.87,8.37,8.37,0,0,1,6-2.22,8.47,8.47,0,0,1,6,2.22,6.92,6.92,0,0,1,0,9.87ZM824.48,615a3.06,3.06,0,0,0,2.16,5.22,3.05,3.05,0,0,0,2.13-.9,3,3,0,0,0,.93-2.13,3.26,3.26,0,0,0-.93-2.19,3.08,3.08,0,0,0-4.29,0Z"/><path d="M837.44,610.46h4.8v2.19a4.33,4.33,0,0,1,1.89-1.86,5.24,5.24,0,0,1,2.49-.54l1,.06v4.53a4.23,4.23,0,0,0-2.07-.48,3.14,3.14,0,0,0-2.19.72,4,4,0,0,0-1.08,3.06v5.73h-4.8Z"/><rect x="683" y="695.5" width="41" height="41" rx="12" ry="12" style="fill:none;stroke:#636868;stroke-miterlimit:10;stroke-width:3px"/><path d="M711.52,726.23h-16l5.06-5.31a33.28,33.28,0,0,0,4.12-5.07,5.63,5.63,0,0,0,1.07-3.12,3,3,0,0,0-.6-1.92,1.94,1.94,0,0,0-1.46-.6,2.17,2.17,0,0,0-1.75.81,5.05,5.05,0,0,0-.71,2.46h-5.38a8,8,0,0,1,2.22-5.55,8.62,8.62,0,0,1,11.31-.09,6.68,6.68,0,0,1,1.95,4.92c0,2.52-1.17,4.26-3,5.94L705,721.82h6.53Z"/><rect x="1134.26" y="594.75" width="41" height="41" rx="12" ry="12" style="fill:none;stroke:#636868;stroke-miterlimit:10;stroke-width:3px"/><path d="M1151.91,618.28a3.12,3.12,0,0,0,.81,2,2.76,2.76,0,0,0,2,.78,2.66,2.66,0,0,0,2-.87,2.35,2.35,0,0,0,.6-1.65,2.29,2.29,0,0,0-.78-1.77,3.14,3.14,0,0,0-1.92-.57,2.65,2.65,0,0,0-.87.12v-3.51a2.54,2.54,0,0,0,2.13-.51,1.88,1.88,0,0,0,.66-1.41,2.22,2.22,0,0,0-.54-1.44,2.15,2.15,0,0,0-1.47-.54,2,2,0,0,0-1.44.51,2.52,2.52,0,0,0-.69,1.77h-4.83a7.11,7.11,0,0,1,1.95-4.59,8,8,0,0,1,10.26-.18,5.44,5.44,0,0,1,1.62,3.87,4.82,4.82,0,0,1-.6,2.46,3.43,3.43,0,0,1-1.53,1.53,4.9,4.9,0,0,1,2.37,1.83,5.06,5.06,0,0,1,.84,2.94,6,6,0,0,1-1.77,4.38,8.2,8.2,0,0,1-6,2.13,8.09,8.09,0,0,1-5.73-2.07,8,8,0,0,1-2.49-5.22Z"/><path d="M1135.89,386.35a12,12,0,0,1-15.78,0,10.47,10.47,0,0,1,0-15,12,12,0,0,1,15.78,0,10.47,10.47,0,0,1,0,15ZM1124,375a5.49,5.49,0,0,0-1.59,3.93,5.09,5.09,0,0,0,1.59,3.72,5.68,5.68,0,0,0,4,1.59,5.44,5.44,0,0,0,5.64-5.4A5.4,5.4,0,0,0,1132,375a6,6,0,0,0-4-1.59A5.76,5.76,0,0,0,1124,375Z"/><path d="M1147.53,377.11l6.36-8.25h6.42l-8,9.48,8.67,10.53h-6.72l-6.78-8.67v8.67h-5.19v-20h5.19Z"/><path d="M626.48,333.49v6.63h-5.19v-20h8.28a6.89,6.89,0,0,1,5.07,1.8,6.2,6.2,0,0,1,1.86,4.86,6.5,6.5,0,0,1-1.77,5,6.66,6.66,0,0,1-5,1.74Zm0-4.2h1.74a3.39,3.39,0,0,0,2.19-.63,2.29,2.29,0,0,0,.66-1.83,2.43,2.43,0,0,0-.6-1.8,3,3,0,0,0-2.22-.72h-1.77Z"/><path d="M652.67,334.3h-10a3.39,3.39,0,0,0,.84,2.25,2.7,2.7,0,0,0,2,.66,3.79,3.79,0,0,0,1.56-.36,2.23,2.23,0,0,0,.84-.9h4.59a6,6,0,0,1-1.62,2.76c-1,1-2.55,1.86-5.46,1.86a7.61,7.61,0,0,1-5.55-2,7,7,0,0,1-2-5.07,7.16,7.16,0,0,1,2-5.19,7.55,7.55,0,0,1,5.49-1.95,7.35,7.35,0,0,1,5.16,1.83,7.51,7.51,0,0,1,2.13,5.64Zm-4.41-2.76a3.22,3.22,0,0,0-.78-1.44,2.8,2.8,0,0,0-2-.72,2.58,2.58,0,0,0-2,.72,2.74,2.74,0,0,0-.72,1.44Z"/><path d="M655.43,326.71h4.8v2.19a4.33,4.33,0,0,1,1.89-1.86,5.24,5.24,0,0,1,2.49-.54l1,.06v4.53a4.23,4.23,0,0,0-2.07-.48,3.14,3.14,0,0,0-2.19.72,4,4,0,0,0-1.08,3.06v5.73h-4.8Z"/><path d="M667.7,326.71h4.8v1.62a5.15,5.15,0,0,1,4-1.86,5.46,5.46,0,0,1,2.58.6A4.19,4.19,0,0,1,681,329a4.71,4.71,0,0,1,1.83-1.86,5.44,5.44,0,0,1,2.79-.66,5.33,5.33,0,0,1,3.72,1.23,4.93,4.93,0,0,1,1.26,3.69v8.73h-4.8v-6.63c0-1.41-.15-2.37-.69-2.88a1.75,1.75,0,0,0-1.26-.45,1.94,1.94,0,0,0-1.41.54,3.43,3.43,0,0,0-.87,2.55v6.87h-4.8v-6.63a4.29,4.29,0,0,0-.63-2.88,1.86,1.86,0,0,0-1.44-.54,1.69,1.69,0,0,0-1.32.48,4,4,0,0,0-.84,2.94v6.63h-4.8Z"/><path d="M696.29,318.43a2.7,2.7,0,1,1-2.7,2.7A2.69,2.69,0,0,1,696.29,318.43Zm2.4,8.28v13.41h-4.8V326.71Z"/><path d="M702.83,335.68a6.87,6.87,0,0,0,1.92,1,6.25,6.25,0,0,0,1.86.33,2,2,0,0,0,1.23-.36.77.77,0,0,0,.24-.63.71.71,0,0,0-.24-.6,3,3,0,0,0-1.26-.48l-1.26-.3a4.31,4.31,0,0,1-2.34-1.17,3.24,3.24,0,0,1-.87-2.31,4.79,4.79,0,0,1,1.26-3.27,6.77,6.77,0,0,1,4.8-1.62,11.07,11.07,0,0,1,4.29.87l-1.62,3.06a6.64,6.64,0,0,0-2.52-.66,2,2,0,0,0-1.11.27.72.72,0,0,0-.42.66.78.78,0,0,0,.57.75c.45.18.84.18,1.59.39l.87.24a5.67,5.67,0,0,1,2,1.05,3.79,3.79,0,0,1,1,2.67,4.48,4.48,0,0,1-1.35,3.33,7,7,0,0,1-5,1.68,9.89,9.89,0,0,1-5.4-1.56Z"/><path d="M717.68,318.43a2.7,2.7,0,1,1-2.7,2.7A2.69,2.69,0,0,1,717.68,318.43Zm2.4,8.28v13.41h-4.8V326.71Z"/><path d="M728.15,326.71v7.5a2.57,2.57,0,0,0,.72,2,2.48,2.48,0,0,0,1.68.51,2.24,2.24,0,0,0,1.71-.57,2.49,2.49,0,0,0,.69-1.89v-7.5h4.8v8.37a4.6,4.6,0,0,1-1.29,3.6c-1.65,1.71-4,1.89-5.79,1.89-2,0-4.47-.21-6.06-1.92a4.82,4.82,0,0,1-1.26-3.57v-8.37Z"/><path d="M741.05,326.71h4.8v1.68a5.06,5.06,0,0,1,4.26-2,5.42,5.42,0,0,1,4,1.44,4.62,4.62,0,0,1,1.26,3.75v8.52h-4.8v-6.78a3.85,3.85,0,0,0-.6-2.61,2,2,0,0,0-1.53-.57,2.63,2.63,0,0,0-1.77.63,3.08,3.08,0,0,0-.78,2.13v7.2h-4.8Z"/><path d="M761,318.43a2.7,2.7,0,1,1-2.7,2.7A2.69,2.69,0,0,1,761,318.43Zm2.4,8.28v13.41h-4.8V326.71Z"/></svg>