<svg id="Layer_1" data-name="Layer 1" xmlns="http://www.w3.org/2000/svg" viewBox="0 0 1308 628"><title>Cap 5 -</title><line x1="187" y1="384.5" x2="89" y2="384.5" style="fill:none;stroke:#f7931f;stroke-miterlimit:10;stroke-width:5px"/><rect x="402.17" y="57.93" width="351.74" height="351.74" rx="12" ry="12" style="fill:none;stroke:#4fc2c9;stroke-miterlimit:10;stroke-width:8.16568257325069px"/><rect x="186.61" y="225.26" width="351.74" height="351.74" rx="12" ry="12" style="fill:none;stroke:#f7931f;stroke-miterlimit:10;stroke-width:8.53736102581024px"/><rect x="402.6" y="225.26" width="556.64" height="351.74" rx="12" ry="12" style="fill:none;stroke:#3a5c84;stroke-miterlimit:10;stroke-width:8.53736102581024px"/><path d="M1201.46,103.33h8.81c0,3.39-.69,5.79-2.74,7.69a8.32,8.32,0,0,1-6,2.15,8.81,8.81,0,0,1-6.56-2.53,8.62,8.62,0,0,1-2.46-6.18,8.92,8.92,0,0,1,2.56-6.4,9.95,9.95,0,0,1,11.25-1.36,8.44,8.44,0,0,1,3,3.51l-4.23,1.74a4.11,4.11,0,0,0-1.23-1.71,3.56,3.56,0,0,0-2.38-.85,4.1,4.1,0,0,0-2.92,1.18,5.77,5.77,0,0,0-1.49,3.92,5.34,5.34,0,0,0,1.36,3.69,4,4,0,0,0,3.12,1.3,3.63,3.63,0,0,0,2.46-.79,3,3,0,0,0,1-1.9h-3.63Z"/><path d="M1212.7,101.57h4.1v1.87a3.72,3.72,0,0,1,1.61-1.59,4.53,4.53,0,0,1,2.13-.46l.82,0v3.87a3.67,3.67,0,0,0-1.77-.41,2.67,2.67,0,0,0-1.87.61,3.47,3.47,0,0,0-.92,2.62V113h-4.1Z"/><path d="M1227.27,101.57V108a2.21,2.21,0,0,0,.62,1.67,2.09,2.09,0,0,0,1.43.43,1.93,1.93,0,0,0,1.46-.48,2.15,2.15,0,0,0,.59-1.62v-6.4h4.1v7.15a3.94,3.94,0,0,1-1.1,3.07,6.54,6.54,0,0,1-4.95,1.61c-1.71,0-3.81-.18-5.17-1.64a4.1,4.1,0,0,1-1.08-3v-7.15Z"/><path d="M1242.38,118.89h-4.1V101.57h4.1v1.25a4.3,4.3,0,0,1,3.51-1.64,5.73,5.73,0,0,1,4.08,1.67,6.5,6.5,0,0,1-.11,9,5.5,5.5,0,0,1-3.92,1.58,4.87,4.87,0,0,1-3.56-1.48Zm.67-13.45a2.79,2.79,0,0,0-.8,1.89,2.73,2.73,0,0,0,.8,1.82,2.61,2.61,0,0,0,1.84.77,2.46,2.46,0,0,0,1.82-.77,2.69,2.69,0,0,0,.8-1.82,2.79,2.79,0,0,0-.8-1.89,2.46,2.46,0,0,0-1.82-.77A2.61,2.61,0,0,0,1243.05,105.44Z"/><path d="M1264.61,99.7h-2.43V95.93H1269V113h-4.43Z"/><path d="M280.73,407.65v11.76a4.94,4.94,0,0,1-1.46,4.1,5.53,5.53,0,0,1-4.17,1.61,4.48,4.48,0,0,1-2.69-.77,6,6,0,0,1-1.69-1.74l2.89-3a2.39,2.39,0,0,0,.62,1.36,1.62,1.62,0,0,0,.84.3,1.31,1.31,0,0,0,.77-.28,2.6,2.6,0,0,0,.46-1.72V407.65Z"/><path d="M295.46,423.22a7.82,7.82,0,0,1-10.22,0,5.89,5.89,0,0,1,0-8.42,7.12,7.12,0,0,1,5.1-1.9,7.23,7.23,0,0,1,5.12,1.9,5.89,5.89,0,0,1,0,8.42Zm-6.94-6.09a2.6,2.6,0,1,0,3.66,3.69A2.52,2.52,0,0,0,293,419a2.74,2.74,0,0,0-.8-1.87,2.61,2.61,0,0,0-3.66,0Z"/><path d="M299.58,406.06h4.1v8.66a5,5,0,0,1,1.28-1.13,4.64,4.64,0,0,1,2.36-.56,4.59,4.59,0,0,1,3.38,1.23,4,4,0,0,1,1.08,3.2v7.28h-4.1V419a3.41,3.41,0,0,0-.51-2.23,1.63,1.63,0,0,0-1.31-.49,2.2,2.2,0,0,0-1.49.49,2.49,2.49,0,0,0-.69,1.87v6.15h-4.1Z"/><path d="M314.57,413.28h4.09v1.44A4.31,4.31,0,0,1,322.3,413a4.6,4.6,0,0,1,3.38,1.23,3.93,3.93,0,0,1,1.08,3.2v7.28h-4.1V419a3.27,3.27,0,0,0-.51-2.23,1.73,1.73,0,0,0-1.31-.49,2.22,2.22,0,0,0-1.51.54,2.63,2.63,0,0,0-.67,1.82v6.15h-4.09Z"/><path d="M450.59,320.8V303.71h6.61a4.8,4.8,0,0,1,3.74,1.33,4.62,4.62,0,0,1,1.05,3.21,4.54,4.54,0,0,1-.48,2.1,2.72,2.72,0,0,1-1.39,1.33,4.2,4.2,0,0,1,2.33,1,4.28,4.28,0,0,1,1.16,3.13,4.63,4.63,0,0,1-1.26,3.35,6.4,6.4,0,0,1-4.64,1.62ZM455,310.45h.82a2.35,2.35,0,0,0,1.7-.54,1.65,1.65,0,0,0,.4-1.13,1.78,1.78,0,0,0-.4-1.15,2.39,2.39,0,0,0-1.7-.51H455Zm0,6.89h1c1.23,0,2.26-.13,2.74-.69a1.64,1.64,0,0,0,.36-1.1,1.75,1.75,0,0,0-.43-1.23c-.54-.54-1.64-.57-2.74-.57H455Z"/><path d="M477.56,319.29a7.85,7.85,0,0,1-10.22,0,5.74,5.74,0,0,1-1.77-4.23,5.68,5.68,0,0,1,1.77-4.2,7.82,7.82,0,0,1,10.22,0,5.64,5.64,0,0,1,1.77,4.2A5.7,5.7,0,0,1,477.56,319.29Zm-6.94-6.1a2.55,2.55,0,0,0,0,3.69,2.57,2.57,0,0,0,3.67,0,2.53,2.53,0,0,0,.79-1.82,2.63,2.63,0,0,0-4.46-1.87Z"/><path d="M485.78,302.12v8.33a4.53,4.53,0,0,1,3.41-1.49,5.85,5.85,0,0,1,4.05,1.54,6.24,6.24,0,0,1,1.87,4.53,6.31,6.31,0,0,1-1.84,4.56,5.47,5.47,0,0,1-4,1.59,4.2,4.2,0,0,1-3.46-1.64v1.26h-4.09V302.12Zm4.33,14.81a2.58,2.58,0,0,0,.8-1.79,2.82,2.82,0,0,0-.8-1.95,2.49,2.49,0,0,0-1.82-.74,2.52,2.52,0,0,0-1.87.77,3,3,0,0,0-.76,1.84,2.75,2.75,0,0,0,.87,1.95,2.8,2.8,0,0,0,1.76.69A2.56,2.56,0,0,0,490.11,316.93Z"/><path d="M625.79,309.39h-6.2l-1.15,2.87h-4.69l6.56-17.09h4.84l6.43,17.09h-4.74ZM624.61,306l-1.92-5.53L620.82,306Z"/><path d="M637.26,293.58v18.68h-4.1V293.58Z"/><path d="M642.1,293.74a2.31,2.31,0,1,1-2.3,2.3A2.3,2.3,0,0,1,642.1,293.74Zm2,7.07v11.45h-4.1V300.81Z"/><path d="M655.6,312a6.07,6.07,0,0,1-2.84.65,6.3,6.3,0,0,1-4.51-1.75,6,6,0,0,1-1.77-4.28,6.21,6.21,0,0,1,1.85-4.43,6.61,6.61,0,0,1,4.61-1.74,5.87,5.87,0,0,1,2.66.64v3.43a3.67,3.67,0,0,0-2.12-.74,2.68,2.68,0,0,0-2,.8,2.75,2.75,0,0,0-.8,2,2.93,2.93,0,0,0,.72,1.92,2.79,2.79,0,0,0,2.1.87,3.1,3.1,0,0,0,2.1-.77Z"/><path d="M670.07,307.29h-8.53a2.85,2.85,0,0,0,.72,1.92,2.29,2.29,0,0,0,1.69.57,3.28,3.28,0,0,0,1.33-.31,1.93,1.93,0,0,0,.72-.77h3.92a5.2,5.2,0,0,1-1.38,2.36,6.24,6.24,0,0,1-4.67,1.59,6.5,6.5,0,0,1-4.74-1.75,6,6,0,0,1-1.69-4.33,6.1,6.1,0,0,1,1.72-4.43,6.46,6.46,0,0,1,4.69-1.66,6.25,6.25,0,0,1,4.4,1.56,6.39,6.39,0,0,1,1.82,4.82Zm-3.76-2.36a2.75,2.75,0,0,0-.67-1.23,2.42,2.42,0,0,0-1.69-.61,2.2,2.2,0,0,0-1.66.61,2.33,2.33,0,0,0-.62,1.23Z"/><path d="M537.3,149.54v13.32h-4.43V149.54h-3.64v-3.77h11.71v3.77Z"/><path d="M553.16,161.35a7.87,7.87,0,0,1-10.23,0,5.93,5.93,0,0,1,0-8.43,7.84,7.84,0,0,1,10.23,0,5.93,5.93,0,0,1,0,8.43Zm-6.95-6.1a2.6,2.6,0,1,0,3.67,3.69,2.53,2.53,0,0,0,.79-1.82,2.77,2.77,0,0,0-.79-1.87,2.65,2.65,0,0,0-3.67,0Z"/><path d="M557.28,151.41h4.09v1.38a4.41,4.41,0,0,1,3.44-1.59,4.67,4.67,0,0,1,2.2.51,3.59,3.59,0,0,1,1.59,1.64,4.09,4.09,0,0,1,1.56-1.59,4.66,4.66,0,0,1,2.38-.56,4.57,4.57,0,0,1,3.18,1.05,4.19,4.19,0,0,1,1.08,3.15v7.46h-4.1V157.2a3.39,3.39,0,0,0-.59-2.46,1.48,1.48,0,0,0-1.08-.39,1.66,1.66,0,0,0-1.2.46,2.94,2.94,0,0,0-.74,2.18v5.87H565V157.2a3.65,3.65,0,0,0-.54-2.46,1.58,1.58,0,0,0-1.23-.47,1.45,1.45,0,0,0-1.13.41,3.4,3.4,0,0,0-.72,2.52v5.66h-4.09Z"/><rect x="826.63" y="76" width="132.33" height="122.08" rx="12" ry="12" style="fill:none;stroke:#c13018;stroke-miterlimit:10;stroke-width:7px"/><line x1="401.75" y1="97.2" x2="298.45" y2="97.2" style="fill:none;stroke:#4fc2c9;stroke-miterlimit:10;stroke-width:5px"/><line x1="261.5" y1="137.5" x2="261.5" y2="224.5" style="fill:none;stroke:#f7931f;stroke-miterlimit:10;stroke-width:5px"/><line x1="1098.5" y1="107.22" x2="1169.5" y2="107.22" style="fill:none;stroke:#4fc2c9;stroke-miterlimit:10;stroke-width:8.16568257325069px"/><path d="M1202,138.07h8.81c0,3.38-.69,5.79-2.74,7.69a8.37,8.37,0,0,1-6,2.15,8.81,8.81,0,0,1-6.56-2.54,8.6,8.6,0,0,1-2.46-6.17,8.93,8.93,0,0,1,2.56-6.41,9.95,9.95,0,0,1,11.25-1.36,8.44,8.44,0,0,1,3,3.51l-4.23,1.75a4.15,4.15,0,0,0-1.23-1.72,3.56,3.56,0,0,0-2.38-.85,4.14,4.14,0,0,0-2.92,1.18,5.77,5.77,0,0,0-1.49,3.92,5.32,5.32,0,0,0,1.36,3.69,4,4,0,0,0,3.12,1.31,3.64,3.64,0,0,0,2.46-.8,3,3,0,0,0,1-1.89H1202Z"/><path d="M1213.2,136.3h4.1v1.87a3.72,3.72,0,0,1,1.61-1.59,4.53,4.53,0,0,1,2.13-.46c.1,0,.28,0,.82,0V140a3.67,3.67,0,0,0-1.77-.41,2.68,2.68,0,0,0-1.87.62,3.45,3.45,0,0,0-.92,2.61v4.89h-4.1Z"/><path d="M1227.77,136.3v6.41a2.18,2.18,0,0,0,.62,1.66,2.1,2.1,0,0,0,1.43.44,1.9,1.9,0,0,0,1.46-.49,2.13,2.13,0,0,0,.59-1.61V136.3h4.1v7.15a3.94,3.94,0,0,1-1.1,3.07,6.55,6.55,0,0,1-4.95,1.62c-1.71,0-3.81-.18-5.17-1.64a4.13,4.13,0,0,1-1.08-3.05V136.3Z"/><path d="M1242.88,153.62h-4.1V136.3h4.1v1.26a4.28,4.28,0,0,1,3.51-1.64,5.73,5.73,0,0,1,4.08,1.66,6.5,6.5,0,0,1-.11,9,5.51,5.51,0,0,1-3.92,1.59,4.89,4.89,0,0,1-3.56-1.49Zm.67-13.45a2.82,2.82,0,0,0-.8,1.9,2.77,2.77,0,0,0,.8,1.82,2.64,2.64,0,0,0,1.84.76,2.49,2.49,0,0,0,1.82-.76,2.71,2.71,0,0,0,.8-1.82,2.82,2.82,0,0,0-.8-1.9,2.46,2.46,0,0,0-1.82-.77A2.61,2.61,0,0,0,1243.55,140.17Z"/><path d="M1273.49,147.75h-13.71l4.33-4.53a28.26,28.26,0,0,0,3.51-4.33,4.82,4.82,0,0,0,.93-2.66,2.54,2.54,0,0,0-.52-1.64,1.64,1.64,0,0,0-1.25-.52,1.86,1.86,0,0,0-1.49.69,4.2,4.2,0,0,0-.61,2.1h-4.59a6.78,6.78,0,0,1,1.9-4.73,6.48,6.48,0,0,1,4.84-1.85,6.55,6.55,0,0,1,4.82,1.77,5.71,5.71,0,0,1,1.66,4.2,6.65,6.65,0,0,1-2.53,5.07l-2.87,2.67h5.58Z"/><line x1="1099" y1="141.95" x2="1170" y2="141.95" style="fill:none;stroke:#f7931f;stroke-miterlimit:10;stroke-width:8.53736102581024px"/><path d="M1202,175.07h8.81c0,3.38-.69,5.79-2.74,7.69a8.37,8.37,0,0,1-6,2.15,8.81,8.81,0,0,1-6.56-2.54,8.6,8.6,0,0,1-2.46-6.17,8.93,8.93,0,0,1,2.56-6.41,9.95,9.95,0,0,1,11.25-1.36,8.44,8.44,0,0,1,3,3.51l-4.23,1.75a4.15,4.15,0,0,0-1.23-1.72,3.56,3.56,0,0,0-2.38-.85,4.14,4.14,0,0,0-2.92,1.18,5.77,5.77,0,0,0-1.49,3.92,5.32,5.32,0,0,0,1.36,3.69,4,4,0,0,0,3.12,1.31,3.64,3.64,0,0,0,2.46-.8,3,3,0,0,0,1-1.89H1202Z"/><path d="M1213.2,173.3h4.1v1.87a3.72,3.72,0,0,1,1.61-1.59,4.53,4.53,0,0,1,2.13-.46c.1,0,.28,0,.82,0V177a3.67,3.67,0,0,0-1.77-.41,2.68,2.68,0,0,0-1.87.62,3.45,3.45,0,0,0-.92,2.61v4.89h-4.1Z"/><path d="M1227.77,173.3v6.41a2.18,2.18,0,0,0,.62,1.66,2.1,2.1,0,0,0,1.43.44,1.9,1.9,0,0,0,1.46-.49,2.13,2.13,0,0,0,.59-1.61V173.3h4.1v7.15a3.94,3.94,0,0,1-1.1,3.07,6.55,6.55,0,0,1-4.95,1.62c-1.71,0-3.81-.18-5.17-1.64a4.13,4.13,0,0,1-1.08-3.05V173.3Z"/><path d="M1242.88,190.62h-4.1V173.3h4.1v1.26a4.28,4.28,0,0,1,3.51-1.64,5.73,5.73,0,0,1,4.08,1.66,6.5,6.5,0,0,1-.11,9,5.51,5.51,0,0,1-3.92,1.59,4.89,4.89,0,0,1-3.56-1.49Zm.67-13.45a2.82,2.82,0,0,0-.8,1.9,2.77,2.77,0,0,0,.8,1.82,2.64,2.64,0,0,0,1.84.76,2.49,2.49,0,0,0,1.82-.76,2.71,2.71,0,0,0,.8-1.82,2.82,2.82,0,0,0-.8-1.9,2.46,2.46,0,0,0-1.82-.77A2.61,2.61,0,0,0,1243.55,177.17Z"/><path d="M1264.37,178.91a2.69,2.69,0,0,0,.69,1.72,2.36,2.36,0,0,0,1.74.66,2.28,2.28,0,0,0,1.75-.74,2,2,0,0,0,.51-1.41,2,2,0,0,0-.67-1.51,2.66,2.66,0,0,0-1.64-.49,2.17,2.17,0,0,0-.74.11v-3a2.16,2.16,0,0,0,1.82-.44,1.58,1.58,0,0,0,.56-1.2,1.89,1.89,0,0,0-.46-1.23,1.84,1.84,0,0,0-1.25-.46,1.75,1.75,0,0,0-1.23.43,2.15,2.15,0,0,0-.59,1.52h-4.13a6,6,0,0,1,1.67-3.92,6.83,6.83,0,0,1,8.76-.16,4.68,4.68,0,0,1,1.38,3.31,4.06,4.06,0,0,1-.51,2.1,2.89,2.89,0,0,1-1.31,1.3,4.27,4.27,0,0,1,2,1.57,4.33,4.33,0,0,1,.71,2.51,5.14,5.14,0,0,1-1.51,3.74,7.85,7.85,0,0,1-10,.05,6.78,6.78,0,0,1-2.12-4.46Z"/><line x1="1099" y1="178.95" x2="1170" y2="178.95" style="fill:none;stroke:#3a5c84;stroke-miterlimit:10;stroke-width:8.53736102581024px"/><path d="M1202,209.07h8.81c0,3.38-.69,5.79-2.74,7.69a8.37,8.37,0,0,1-6,2.15,8.81,8.81,0,0,1-6.56-2.54,8.6,8.6,0,0,1-2.46-6.17,8.93,8.93,0,0,1,2.56-6.41,9.95,9.95,0,0,1,11.25-1.36,8.44,8.44,0,0,1,3,3.51l-4.23,1.75a4.15,4.15,0,0,0-1.23-1.72,3.56,3.56,0,0,0-2.38-.85,4.14,4.14,0,0,0-2.92,1.18,5.77,5.77,0,0,0-1.49,3.92,5.32,5.32,0,0,0,1.36,3.69,4,4,0,0,0,3.12,1.31,3.64,3.64,0,0,0,2.46-.8,3,3,0,0,0,1-1.89H1202Z"/><path d="M1213.2,207.3h4.1v1.87a3.72,3.72,0,0,1,1.61-1.59,4.53,4.53,0,0,1,2.13-.46c.1,0,.28,0,.82,0V211a3.67,3.67,0,0,0-1.77-.41,2.68,2.68,0,0,0-1.87.62,3.45,3.45,0,0,0-.92,2.61v4.89h-4.1Z"/><path d="M1227.77,207.3v6.41a2.18,2.18,0,0,0,.62,1.66,2.1,2.1,0,0,0,1.43.44,1.9,1.9,0,0,0,1.46-.49,2.13,2.13,0,0,0,.59-1.61V207.3h4.1v7.15a3.94,3.94,0,0,1-1.1,3.07,6.55,6.55,0,0,1-4.95,1.62c-1.71,0-3.81-.18-5.17-1.64a4.13,4.13,0,0,1-1.08-3.05V207.3Z"/><path d="M1242.88,224.62h-4.1V207.3h4.1v1.26a4.28,4.28,0,0,1,3.51-1.64,5.73,5.73,0,0,1,4.08,1.66,6.5,6.5,0,0,1-.11,9,5.51,5.51,0,0,1-3.92,1.59,4.89,4.89,0,0,1-3.56-1.49Zm.67-13.45a2.82,2.82,0,0,0-.8,1.9,2.77,2.77,0,0,0,.8,1.82,2.64,2.64,0,0,0,1.84.76,2.49,2.49,0,0,0,1.82-.76,2.71,2.71,0,0,0,.8-1.82,2.82,2.82,0,0,0-.8-1.9,2.46,2.46,0,0,0-1.82-.77A2.61,2.61,0,0,0,1243.55,211.17Z"/><path d="M1271.77,212.12h2.08v3.4h-2.08v3.23h-4.09v-3.23h-8.28v-2.84l6.58-11h5.79Zm-4.09,0v-7l-4,7Z"/><line x1="1099" y1="212.95" x2="1170" y2="212.95" style="fill:none;stroke:#c13018;stroke-miterlimit:10;stroke-width:7px"/><line x1="242.78" y1="127.79" x2="289.03" y2="127.79" style="fill:none;stroke:#91c54f;stroke-miterlimit:10;stroke-width:5px"/><line x1="242.78" y1="115.82" x2="289.03" y2="115.82" style="fill:none;stroke:#91c54f;stroke-miterlimit:10;stroke-width:5px"/><line x1="242.78" y1="103.85" x2="289.03" y2="103.85" style="fill:none;stroke:#91c54f;stroke-miterlimit:10;stroke-width:5px"/><line x1="242.78" y1="91.88" x2="289.03" y2="91.88" style="fill:none;stroke:#91c54f;stroke-miterlimit:10;stroke-width:5px"/><line x1="242.78" y1="79.92" x2="261.87" y2="79.92" style="fill:none;stroke:#91c54f;stroke-miterlimit:10;stroke-width:5px"/><path d="M286.61,75.61a6.47,6.47,0,0,1-6.45-6.45V57.06H240.09a6.47,6.47,0,0,0-6.46,6.45v67.77a6.48,6.48,0,0,0,6.46,6.46h51.63a6.48,6.48,0,0,0,6.46-6.46V75.61Z" style="fill:none;stroke:#91c54f;stroke-miterlimit:10;stroke-width:5px"/><path d="M183.54,175.46h4.8v2.19a4.33,4.33,0,0,1,1.89-1.86,5.24,5.24,0,0,1,2.49-.54l1,.06v4.53a4.23,4.23,0,0,0-2.07-.48,3.14,3.14,0,0,0-2.19.72,4,4,0,0,0-1.08,3.06v5.73h-4.8Z"/><path d="M210,183.05H200a3.39,3.39,0,0,0,.84,2.25,2.7,2.7,0,0,0,2,.66,3.79,3.79,0,0,0,1.56-.36,2.23,2.23,0,0,0,.84-.9h4.59a6,6,0,0,1-1.62,2.76c-1,1-2.55,1.86-5.46,1.86a7.58,7.58,0,0,1-5.54-2,7,7,0,0,1-2-5.07,7.15,7.15,0,0,1,2-5.19,7.55,7.55,0,0,1,5.49-2,7.35,7.35,0,0,1,5.16,1.83,7.51,7.51,0,0,1,2.13,5.64Zm-4.41-2.76a3.22,3.22,0,0,0-.78-1.44,2.8,2.8,0,0,0-2-.72,2.58,2.58,0,0,0-2,.72,2.74,2.74,0,0,0-.72,1.44Z"/><path d="M223.17,175.46H228v13.41h-4.8V187.4a5,5,0,0,1-4.17,1.92,6.42,6.42,0,0,1-4.83-2.13,6.76,6.76,0,0,1-1.92-4.92,7.46,7.46,0,0,1,2.07-5.37,6.9,6.9,0,0,1,4.83-1.89,5.31,5.31,0,0,1,4,1.74Zm-5,4.5a3.14,3.14,0,0,0-1,2.19,3.09,3.09,0,0,0,.93,2.19,3.37,3.37,0,0,0,2.16.9,3.08,3.08,0,0,0,2.16-.93,2.91,2.91,0,0,0,.9-2.16,3,3,0,0,0-.93-2.19,3,3,0,0,0-4.26,0Z"/><path d="M246.45,188.87h-4.8V187.4a4.92,4.92,0,0,1-4.05,1.92,6.38,6.38,0,0,1-4.7-1.86,7.59,7.59,0,0,1,0-10.65,6.86,6.86,0,0,1,4.74-1.8,5.31,5.31,0,0,1,4,1.74V167h4.8Zm-5.67-4.44a3.22,3.22,0,0,0,1-2.28,3.51,3.51,0,0,0-.9-2.16,3.08,3.08,0,0,0-4.32,0,3.29,3.29,0,0,0-.93,2.28,3,3,0,0,0,.93,2.1,3,3,0,0,0,2.13.9A3.28,3.28,0,0,0,240.78,184.43Z"/><path d="M980.54,269.46h4.8v2.19a4.33,4.33,0,0,1,1.89-1.86,5.26,5.26,0,0,1,2.49-.54l1,.06v4.53a4.18,4.18,0,0,0-2.06-.48,3.17,3.17,0,0,0-2.2.72,4,4,0,0,0-1.08,3.06v5.73h-4.8Z"/><path d="M1007,277.05H997a3.39,3.39,0,0,0,.84,2.25,2.73,2.73,0,0,0,2,.66,3.78,3.78,0,0,0,1.55-.36,2.23,2.23,0,0,0,.84-.9h4.59a6,6,0,0,1-1.62,2.76c-1,1-2.55,1.86-5.45,1.86a7.63,7.63,0,0,1-5.56-2,7.06,7.06,0,0,1-2-5.07,7.15,7.15,0,0,1,2-5.19,7.59,7.59,0,0,1,5.49-1.95,7.35,7.35,0,0,1,5.16,1.83,7.51,7.51,0,0,1,2.13,5.64Zm-4.4-2.76a3.24,3.24,0,0,0-.79-1.44,2.79,2.79,0,0,0-2-.72,2.59,2.59,0,0,0-2,.72,2.73,2.73,0,0,0-.71,1.44Z"/><path d="M1020.17,269.46h4.8v13.41h-4.8V281.4a5,5,0,0,1-4.17,1.92,6.42,6.42,0,0,1-4.83-2.13,6.76,6.76,0,0,1-1.92-4.92,7.46,7.46,0,0,1,2.07-5.37,6.9,6.9,0,0,1,4.83-1.89,5.31,5.31,0,0,1,4,1.74Zm-5,4.5a3.14,3.14,0,0,0-1,2.19,3.09,3.09,0,0,0,.93,2.19,3.42,3.42,0,0,0,2.16.9,3.08,3.08,0,0,0,2.16-.93,2.91,2.91,0,0,0,.9-2.16,3,3,0,0,0-.93-2.19,3,3,0,0,0-4.26,0Z"/><path d="M1043.45,282.87h-4.8V281.4a4.91,4.91,0,0,1-4.05,1.92,6.42,6.42,0,0,1-4.71-1.86,7.61,7.61,0,0,1,0-10.65,6.86,6.86,0,0,1,4.74-1.8,5.29,5.29,0,0,1,4,1.74V261h4.8Zm-5.66-4.44a3.25,3.25,0,0,0,1-2.28,3.51,3.51,0,0,0-.9-2.16,2.9,2.9,0,0,0-2.19-.9,3,3,0,0,0-2.13.87,3.29,3.29,0,0,0-.93,2.28,3.07,3.07,0,0,0,.93,2.1,3,3,0,0,0,2.13.9A3.33,3.33,0,0,0,1037.79,278.43Z"/><path d="M68.13,365.05h-10A3.39,3.39,0,0,0,59,367.3a2.7,2.7,0,0,0,2,.66,3.79,3.79,0,0,0,1.56-.36,2.23,2.23,0,0,0,.84-.9H68a6,6,0,0,1-1.63,2.76c-1,1-2.54,1.86-5.45,1.86a7.61,7.61,0,0,1-5.55-2,7,7,0,0,1-2-5.07,7.16,7.16,0,0,1,2-5.19,7.55,7.55,0,0,1,5.49-1.95A7.31,7.31,0,0,1,66,358.9a7.47,7.47,0,0,1,2.13,5.64Zm-4.4-2.76a3.32,3.32,0,0,0-.78-1.44,2.8,2.8,0,0,0-2-.72,2.58,2.58,0,0,0-1.95.72,2.74,2.74,0,0,0-.72,1.44Z"/><path d="M75.64,363.58l-5.43-6.12h6.24l2.31,2.76,2.37-2.76h6.2l-5.54,6.12,6.71,7.29H82.15l-3.42-4-3.42,4H69Z"/><path d="M103.23,365.05h-10a3.39,3.39,0,0,0,.84,2.25,2.7,2.7,0,0,0,2,.66,3.79,3.79,0,0,0,1.56-.36,2.23,2.23,0,0,0,.84-.9h4.59a6,6,0,0,1-1.62,2.76c-1,1-2.55,1.86-5.46,1.86a7.61,7.61,0,0,1-5.55-2,7,7,0,0,1-2-5.07,7.16,7.16,0,0,1,2-5.19A7.55,7.55,0,0,1,96,357.07a7.31,7.31,0,0,1,5.15,1.83,7.47,7.47,0,0,1,2.13,5.64Zm-4.4-2.76a3.22,3.22,0,0,0-.78-1.44,2.8,2.8,0,0,0-2-.72,2.58,2.58,0,0,0-1.95.72,2.74,2.74,0,0,0-.72,1.44Z"/><path d="M116.14,370.57a7.12,7.12,0,0,1-3.33.75,7.41,7.41,0,0,1-5.28-2,7,7,0,0,1-2.07-5,7.3,7.3,0,0,1,2.16-5.19,7.73,7.73,0,0,1,5.4-2,6.88,6.88,0,0,1,3.12.75v4a4.28,4.28,0,0,0-2.49-.87,3.15,3.15,0,0,0-2.34.93,3.26,3.26,0,0,0-.93,2.31,3.44,3.44,0,0,0,.84,2.25,3.26,3.26,0,0,0,2.46,1,3.63,3.63,0,0,0,2.46-.9Z"/><path d="M123.67,357.46V365a2.53,2.53,0,0,0,.72,2,2.47,2.47,0,0,0,1.67.51,2.23,2.23,0,0,0,1.71-.57,2.45,2.45,0,0,0,.69-1.89v-7.5h4.8v8.37a4.6,4.6,0,0,1-1.29,3.6c-1.65,1.71-4,1.89-5.78,1.89-2,0-4.47-.21-6.06-1.92a4.82,4.82,0,0,1-1.26-3.57v-8.37Z"/><path d="M141.88,361.39v9.48h-4.8v-9.48h-1.54v-3.93h1.54v-4.41h4.8v4.41h2.72v3.93Z"/><path d="M160.62,365.05h-10a3.39,3.39,0,0,0,.84,2.25,2.7,2.7,0,0,0,2,.66,3.79,3.79,0,0,0,1.56-.36,2.23,2.23,0,0,0,.84-.9h4.59a6,6,0,0,1-1.62,2.76c-1,1-2.55,1.86-5.46,1.86a7.61,7.61,0,0,1-5.55-2,7,7,0,0,1-2-5.07,7.16,7.16,0,0,1,2-5.19,7.55,7.55,0,0,1,5.49-1.95,7.35,7.35,0,0,1,5.16,1.83,7.51,7.51,0,0,1,2.13,5.64Zm-4.41-2.76a3.22,3.22,0,0,0-.78-1.44,2.8,2.8,0,0,0-2-.72,2.58,2.58,0,0,0-1.95.72,2.74,2.74,0,0,0-.72,1.44Z"/><path d="M318.31,65.46l3.18,7.08,3.39-7.08h2.93l3.39,7.29,3.36-7.29h5.34l-7,13.41h-3.23l-3.36-7.38-3.21,7.38h-3.24l-6.9-13.41Z"/><path d="M341.56,65.46h4.79v2.19a4.29,4.29,0,0,1,1.9-1.86,5.17,5.17,0,0,1,2.48-.54l1,.06v4.53a4.22,4.22,0,0,0-2.06-.48,3.14,3.14,0,0,0-2.19.72,4.06,4.06,0,0,0-1.09,3.06v5.73h-4.79Z"/><path d="M356.23,57.18a2.7,2.7,0,1,1-2.7,2.7A2.68,2.68,0,0,1,356.23,57.18Zm2.4,8.28V78.87h-4.8V65.46Z"/><path d="M367.21,69.39v9.48h-4.8V69.39h-1.53V65.46h1.53V61.05h4.8v4.41h2.72v3.93Z"/><path d="M386,73.05H376a3.39,3.39,0,0,0,.84,2.25,2.7,2.7,0,0,0,2,.66,3.79,3.79,0,0,0,1.56-.36,2.23,2.23,0,0,0,.84-.9h4.59a6,6,0,0,1-1.62,2.76c-1,1-2.55,1.86-5.46,1.86a7.57,7.57,0,0,1-5.54-2,7,7,0,0,1-2-5.07,7.15,7.15,0,0,1,2-5.19,7.55,7.55,0,0,1,5.49-2,7.35,7.35,0,0,1,5.16,1.83A7.51,7.51,0,0,1,386,72.54Zm-4.41-2.76a3.22,3.22,0,0,0-.78-1.44,2.8,2.8,0,0,0-2-.72,2.58,2.58,0,0,0-1.95.72,2.74,2.74,0,0,0-.72,1.44Z"/><line x1="91.5" y1="457.5" x2="91.5" y2="384.5" style="fill:none;stroke:#f7931f;stroke-miterlimit:10;stroke-width:5px"/><line x1="963" y1="293.5" x2="1061" y2="293.5" style="fill:none;stroke:#3a5c84;stroke-miterlimit:10;stroke-width:5px"/><line x1="1058.5" y1="366.5" x2="1058.5" y2="293.5" style="fill:none;stroke:#3a5c84;stroke-miterlimit:10;stroke-width:5px"/><line x1="69.74" y1="530.59" x2="115.99" y2="530.59" style="fill:none;stroke:#91c54f;stroke-miterlimit:10;stroke-width:5px"/><line x1="69.74" y1="518.62" x2="115.99" y2="518.62" style="fill:none;stroke:#91c54f;stroke-miterlimit:10;stroke-width:5px"/><line x1="69.74" y1="506.65" x2="115.99" y2="506.65" style="fill:none;stroke:#91c54f;stroke-miterlimit:10;stroke-width:5px"/><line x1="69.74" y1="494.68" x2="115.99" y2="494.68" style="fill:none;stroke:#91c54f;stroke-miterlimit:10;stroke-width:5px"/><line x1="69.74" y1="482.72" x2="88.83" y2="482.72" style="fill:none;stroke:#91c54f;stroke-miterlimit:10;stroke-width:5px"/><path d="M113.57,478.41a6.47,6.47,0,0,1-6.45-6.45v-12.1H67.05a6.47,6.47,0,0,0-6.46,6.45v67.77a6.48,6.48,0,0,0,6.46,6.46h51.63a6.48,6.48,0,0,0,6.46-6.46V478.41Z" style="fill:none;stroke:#91c54f;stroke-miterlimit:10;stroke-width:5px"/><line x1="1040.74" y1="437.59" x2="1086.99" y2="437.59" style="fill:none;stroke:#91c54f;stroke-miterlimit:10;stroke-width:5px"/><line x1="1040.74" y1="425.62" x2="1086.99" y2="425.62" style="fill:none;stroke:#91c54f;stroke-miterlimit:10;stroke-width:5px"/><line x1="1040.74" y1="413.65" x2="1086.99" y2="413.65" style="fill:none;stroke:#91c54f;stroke-miterlimit:10;stroke-width:5px"/><line x1="1040.74" y1="401.68" x2="1086.99" y2="401.68" style="fill:none;stroke:#91c54f;stroke-miterlimit:10;stroke-width:5px"/><line x1="1040.74" y1="389.72" x2="1059.83" y2="389.72" style="fill:none;stroke:#91c54f;stroke-miterlimit:10;stroke-width:5px"/><path d="M1084.57,385.41a6.47,6.47,0,0,1-6.45-6.45v-12.1h-40.07a6.47,6.47,0,0,0-6.46,6.45v67.77a6.48,6.48,0,0,0,6.46,6.46h51.63a6.48,6.48,0,0,0,6.46-6.46V385.41Z" style="fill:none;stroke:#91c54f;stroke-miterlimit:10;stroke-width:5px"/><path d="M54.09,561.27H47.82v3.33h5.7V569h-5.7v7.86H42.63v-20H54.09Z"/><path d="M58.83,555.18a2.7,2.7,0,1,1-2.7,2.7A2.68,2.68,0,0,1,58.83,555.18Zm2.4,8.28v13.41h-4.8V563.46Z"/><path d="M65.37,572.43a6.87,6.87,0,0,0,1.92,1,6.14,6.14,0,0,0,1.86.33,2.07,2.07,0,0,0,1.23-.36.79.79,0,0,0,.23-.63.73.73,0,0,0-.23-.6,3.09,3.09,0,0,0-1.27-.48l-1.26-.3a4.26,4.26,0,0,1-2.33-1.17,3.2,3.2,0,0,1-.87-2.31,4.79,4.79,0,0,1,1.26-3.27,6.75,6.75,0,0,1,4.8-1.62,11.05,11.05,0,0,1,4.28.87l-1.61,3.06a6.74,6.74,0,0,0-2.53-.66,2,2,0,0,0-1.1.27.72.72,0,0,0-.42.66.77.77,0,0,0,.57.75c.44.18.83.18,1.58.39l.87.24a5.67,5.67,0,0,1,2,1,3.79,3.79,0,0,1,1,2.67A4.48,4.48,0,0,1,74,575.64a7,7,0,0,1-4.94,1.68,9.85,9.85,0,0,1-5.4-1.56Zm2.34,5.94,4.5.48-3.06,5.52-3-.36Z"/><path d="M80.21,555.18a2.7,2.7,0,1,1-2.7,2.7A2.69,2.69,0,0,1,80.21,555.18Zm2.4,8.28v13.41h-4.8V563.46Z"/><path d="M100.1,571.05h-10A3.39,3.39,0,0,0,91,573.3a2.7,2.7,0,0,0,2,.66,3.79,3.79,0,0,0,1.56-.36,2.23,2.23,0,0,0,.84-.9h4.59a6,6,0,0,1-1.62,2.76c-1,1-2.55,1.86-5.46,1.86a7.61,7.61,0,0,1-5.55-2,7,7,0,0,1-2-5.07,7.16,7.16,0,0,1,2-5.19,7.55,7.55,0,0,1,5.49-1.95A7.35,7.35,0,0,1,98,564.9a7.51,7.51,0,0,1,2.13,5.64Zm-4.41-2.76a3.22,3.22,0,0,0-.78-1.44,2.8,2.8,0,0,0-2-.72,2.58,2.58,0,0,0-2,.72,2.74,2.74,0,0,0-.72,1.44Z"/><path d="M102.86,563.46h4.8v2.19a4.33,4.33,0,0,1,1.89-1.86,5.24,5.24,0,0,1,2.49-.54l1,.06v4.53a4.23,4.23,0,0,0-2.07-.48,3.14,3.14,0,0,0-2.19.72,4,4,0,0,0-1.08,3.06v5.73h-4.8Z"/><path d="M137.3,576.87H121.25l5.07-5.31a33.14,33.14,0,0,0,4.11-5.07,5.63,5.63,0,0,0,1.08-3.12,3,3,0,0,0-.6-1.92,2,2,0,0,0-1.47-.6,2.15,2.15,0,0,0-1.74.81,5,5,0,0,0-.72,2.46h-5.37a8,8,0,0,1,2.22-5.55,8.62,8.62,0,0,1,11.31-.09,6.68,6.68,0,0,1,2,4.92c0,2.52-1.17,4.26-3,5.94l-3.36,3.12h6.54Z"/><path d="M143.09,44.27h-6.27V47.6h5.7V52h-5.7v7.86h-5.19v-20h11.46Z"/><path d="M147.83,38.18a2.7,2.7,0,1,1-2.7,2.7A2.68,2.68,0,0,1,147.83,38.18Zm2.4,8.28V59.87h-4.8V46.46Z"/><path d="M154.37,55.43a6.87,6.87,0,0,0,1.92,1,6.14,6.14,0,0,0,1.86.33,2.07,2.07,0,0,0,1.23-.36.79.79,0,0,0,.23-.63.73.73,0,0,0-.23-.6,3.09,3.09,0,0,0-1.27-.48l-1.26-.3a4.26,4.26,0,0,1-2.33-1.17,3.2,3.2,0,0,1-.87-2.31,4.79,4.79,0,0,1,1.26-3.27,6.75,6.75,0,0,1,4.8-1.62,11.05,11.05,0,0,1,4.28.87l-1.61,3.06a6.74,6.74,0,0,0-2.53-.66,2,2,0,0,0-1.1.27.72.72,0,0,0-.42.66.77.77,0,0,0,.57.75c.44.18.83.18,1.58.39l.87.24a5.67,5.67,0,0,1,2,1,3.79,3.79,0,0,1,1,2.67A4.48,4.48,0,0,1,163,58.64a7,7,0,0,1-4.94,1.68,9.85,9.85,0,0,1-5.4-1.56Zm2.34,5.94,4.5.48-3.06,5.52-3-.36Z"/><path d="M169.21,38.18a2.7,2.7,0,1,1-2.7,2.7A2.69,2.69,0,0,1,169.21,38.18Zm2.4,8.28V59.87h-4.8V46.46Z"/><path d="M189.1,54.05h-10A3.39,3.39,0,0,0,180,56.3a2.7,2.7,0,0,0,2,.66,3.79,3.79,0,0,0,1.56-.36,2.23,2.23,0,0,0,.84-.9h4.59a6,6,0,0,1-1.62,2.76c-1,1-2.55,1.86-5.46,1.86a7.61,7.61,0,0,1-5.55-2,7,7,0,0,1-2-5.07,7.16,7.16,0,0,1,2-5.19,7.55,7.55,0,0,1,5.49-2A7.35,7.35,0,0,1,187,47.9a7.51,7.51,0,0,1,2.13,5.64Zm-4.41-2.76a3.22,3.22,0,0,0-.78-1.44,2.8,2.8,0,0,0-2-.72,2.58,2.58,0,0,0-2,.72,2.74,2.74,0,0,0-.72,1.44Z"/><path d="M191.86,46.46h4.8v2.19a4.33,4.33,0,0,1,1.89-1.86,5.24,5.24,0,0,1,2.49-.54l1,.06v4.53a4.23,4.23,0,0,0-2.07-.48,3.14,3.14,0,0,0-2.19.72,4,4,0,0,0-1.08,3.06v5.73h-4.8Z"/><path d="M216.49,44.27h-2.85V39.86h8v20h-5.19Z"/><path d="M1030.09,471.27h-6.27v3.33h5.7V479h-5.7v7.86h-5.19v-20h11.46Z"/><path d="M1034.83,465.18a2.7,2.7,0,1,1-2.7,2.7A2.69,2.69,0,0,1,1034.83,465.18Zm2.39,8.28v13.41h-4.79V473.46Z"/><path d="M1041.37,482.43a6.87,6.87,0,0,0,1.92,1,6.13,6.13,0,0,0,1.85.33,2.08,2.08,0,0,0,1.24-.36.8.8,0,0,0,.24-.63.74.74,0,0,0-.24-.6,3.1,3.1,0,0,0-1.26-.48l-1.26-.3a4.28,4.28,0,0,1-2.34-1.17,3.21,3.21,0,0,1-.88-2.31,4.8,4.8,0,0,1,1.27-3.27,6.74,6.74,0,0,1,4.8-1.62,11.05,11.05,0,0,1,4.28.87l-1.61,3.06a6.74,6.74,0,0,0-2.52-.66,2,2,0,0,0-1.11.27.7.7,0,0,0-.42.66.77.77,0,0,0,.56.75c.45.18.84.18,1.59.39l.88.24a5.62,5.62,0,0,1,2,1.05,3.79,3.79,0,0,1,1,2.67,4.48,4.48,0,0,1-1.35,3.33,7,7,0,0,1-5,1.68,9.87,9.87,0,0,1-5.39-1.56Zm2.34,5.94,4.5.48-3.07,5.52-3-.36Z"/><path d="M1056.21,465.18a2.7,2.7,0,1,1-2.7,2.7A2.69,2.69,0,0,1,1056.21,465.18Zm2.4,8.28v13.41h-4.8V473.46Z"/><path d="M1076.1,481.05h-10a3.39,3.39,0,0,0,.84,2.25,2.7,2.7,0,0,0,2,.66,3.79,3.79,0,0,0,1.56-.36,2.23,2.23,0,0,0,.84-.9h4.59a6,6,0,0,1-1.62,2.76c-1,1-2.55,1.86-5.46,1.86a7.61,7.61,0,0,1-5.55-2,7,7,0,0,1-2-5.07,7.16,7.16,0,0,1,2-5.19,7.55,7.55,0,0,1,5.49-1.95,7.35,7.35,0,0,1,5.16,1.83,7.51,7.51,0,0,1,2.13,5.64Zm-4.41-2.76a3.22,3.22,0,0,0-.78-1.44,2.8,2.8,0,0,0-2-.72,2.58,2.58,0,0,0-2,.72,2.74,2.74,0,0,0-.72,1.44Z"/><path d="M1078.86,473.46h4.8v2.19a4.33,4.33,0,0,1,1.89-1.86,5.24,5.24,0,0,1,2.49-.54l1,.06v4.53a4.23,4.23,0,0,0-2.07-.48,3.14,3.14,0,0,0-2.19.72,4,4,0,0,0-1.08,3.06v5.73h-4.8Z"/><path d="M1102.62,480a3.12,3.12,0,0,0,.81,2,2.76,2.76,0,0,0,2,.78,2.66,2.66,0,0,0,2-.87,2.35,2.35,0,0,0,.6-1.65,2.29,2.29,0,0,0-.78-1.77,3.14,3.14,0,0,0-1.92-.57,2.65,2.65,0,0,0-.87.12v-3.51a2.54,2.54,0,0,0,2.13-.51,1.88,1.88,0,0,0,.66-1.41,2.22,2.22,0,0,0-.54-1.44,2.15,2.15,0,0,0-1.47-.54,2,2,0,0,0-1.44.51,2.52,2.52,0,0,0-.69,1.77h-4.83a7.11,7.11,0,0,1,2-4.59,8,8,0,0,1,10.26-.18,5.44,5.44,0,0,1,1.62,3.87,4.82,4.82,0,0,1-.6,2.46,3.43,3.43,0,0,1-1.53,1.53,4.9,4.9,0,0,1,2.37,1.83,5.06,5.06,0,0,1,.84,2.94,6,6,0,0,1-1.77,4.38,8.2,8.2,0,0,1-6,2.13,8.09,8.09,0,0,1-5.73-2.07,8,8,0,0,1-2.49-5.22Z"/></svg>