<svg id="Layer_1" data-name="Layer 1" xmlns="http://www.w3.org/2000/svg" viewBox="0 0 1220 587"><title>Cap 5 -</title><polygon points="294.18 304.97 294.02 353.79 286.98 353.77 301.89 368.77 316.89 353.86 309.85 353.84 310.01 305.02 294.18 304.97" style="fill:none;stroke:#4fc2c9;stroke-miterlimit:10;stroke-width:3.12524304943689px"/><polygon points="115.16 102.18 148.28 102.29 148.26 107.06 158.44 96.95 148.33 86.78 148.31 91.55 115.19 91.44 115.16 102.18" style="fill:none;stroke:#4fc2c9;stroke-miterlimit:10;stroke-width:2.12007354573541px"/><polygon points="115.16 149.18 148.28 149.29 148.26 154.06 158.44 143.95 148.33 133.78 148.31 138.55 115.19 138.44 115.16 149.18" style="fill:none;stroke:#4fc2c9;stroke-miterlimit:10;stroke-width:2.12007354573541px"/><polygon points="115.16 195.53 148.28 195.63 148.26 200.41 158.44 190.29 148.33 180.12 148.31 184.89 115.19 184.78 115.16 195.53" style="fill:none;stroke:#4fc2c9;stroke-miterlimit:10;stroke-width:2.12007354573541px"/><path d="M285.6,247.47h32.67v17.18H285.6Z"/><path d="M51.6,86.47H84.27v17.18H51.6Z"/><path d="M399.27,227.65h20.66v9.43a18.63,18.63,0,0,1,8.14-8,22.51,22.51,0,0,1,10.72-2.32c.51,0,1.42.13,4.13.25v19.5a18.3,18.3,0,0,0-8.91-2.06c-2.71,0-6.46.39-9.43,3.1-4.39,4-4.65,10.07-4.65,13.17v24.67H399.27Z"/><path d="M468.11,227.65l13.68,30.48,14.6-30.48H509L523.64,259l14.46-31.38h23l-30.22,57.73h-14l-14.46-31.77-13.82,31.77H474.69L445,227.65Z"/><path d="M589.89,254l-23.37-26.35h26.86l9.94,11.88,10.2-11.88h26.74L616.37,254l28.92,31.38H617.92L603.19,268.2l-14.72,17.18H561.09Z"/><path d="M705.38,227.65H726v9.43a18.63,18.63,0,0,1,8.14-8,22.51,22.51,0,0,1,10.72-2.32c.51,0,1.42.13,4.13.25v19.5a18.34,18.34,0,0,0-8.91-2.06c-2.71,0-6.46.39-9.43,3.1-4.39,4-4.65,10.07-4.65,13.17v24.67H705.38Z"/><path d="M774.21,227.65l13.69,30.48,14.6-30.48h12.65L829.75,259l14.46-31.38h23L837,285.38H823l-14.46-31.77-13.82,31.77h-14l-29.7-57.73Z"/><path d="M873.66,247.93h32.67V265.1H873.66Z"/><path d="M980.17,227.65h20.67v9.43a18.56,18.56,0,0,1,8.13-8,22.54,22.54,0,0,1,10.72-2.32c.52,0,1.42.13,4.13.25v19.5a18.3,18.3,0,0,0-8.91-2.06c-2.71,0-6.45.39-9.43,3.1-4.39,4-4.64,10.07-4.64,13.17v24.67H980.17Z"/><path d="M1038.42,247.47h32.67v17.18h-32.67Z"/><path d="M1084,247.47h32.67v17.18H1084Z"/><line x1="400.88" y1="379.93" x2="643.68" y2="379.93" style="fill:none;stroke:#4fc2c9;stroke-miterlimit:10;stroke-width:6.02697122097015px"/><line x1="643.68" y1="350.23" x2="643.68" y2="382.95" style="fill:none;stroke:#4fc2c9;stroke-miterlimit:10;stroke-width:6.02697122097015px"/><line x1="400.88" y1="350.23" x2="400.88" y2="382.95" style="fill:none;stroke:#4fc2c9;stroke-miterlimit:10;stroke-width:6.02697122097015px"/><line x1="688.45" y1="379.93" x2="916.4" y2="379.93" style="fill:none;stroke:#4fc2c9;stroke-miterlimit:10;stroke-width:5.83971290222502px"/><line x1="916.4" y1="350.23" x2="916.4" y2="382.95" style="fill:none;stroke:#4fc2c9;stroke-miterlimit:10;stroke-width:5.83971290222502px"/><line x1="688.45" y1="350.23" x2="688.45" y2="382.95" style="fill:none;stroke:#4fc2c9;stroke-miterlimit:10;stroke-width:5.83971290222502px"/><line x1="958.03" y1="379.93" x2="1138.4" y2="379.93" style="fill:none;stroke:#4fc2c9;stroke-miterlimit:10;stroke-width:5.19471961040746px"/><line x1="1138.4" y1="350.23" x2="1138.4" y2="382.95" style="fill:none;stroke:#4fc2c9;stroke-miterlimit:10;stroke-width:5.19471961040746px"/><line x1="958.03" y1="350.23" x2="958.03" y2="382.95" style="fill:none;stroke:#4fc2c9;stroke-miterlimit:10;stroke-width:5.19471961040746px"/><path d="M291.57,397.55V411H287.1V397.55h-3.67v-3.8h11.81v3.8Z"/><path d="M298.9,392.3a2.33,2.33,0,1,1-2.32,2.33A2.32,2.32,0,0,1,298.9,392.3Zm2.07,7.13V411h-4.13V399.43Z"/><path d="M307.92,416.9h-4.13V399.43h4.13v1.27a4.29,4.29,0,0,1,3.54-1.65,5.75,5.75,0,0,1,4.11,1.67,6.58,6.58,0,0,1-.11,9,5.57,5.57,0,0,1-3.95,1.6,4.93,4.93,0,0,1-3.59-1.5Zm.67-13.57a2.81,2.81,0,0,0-.8,1.91,2.78,2.78,0,0,0,.8,1.84,2.63,2.63,0,0,0,1.86.77,2.52,2.52,0,0,0,1.84-.77,2.79,2.79,0,0,0,.8-1.84,2.86,2.86,0,0,0-.8-1.91,2.52,2.52,0,0,0-1.84-.77A2.63,2.63,0,0,0,308.59,403.33Z"/><path d="M281,428.54h-5.4v2.87h4.91v3.8h-4.91V442h-4.47V424.74H281Z"/><path d="M285.11,423.3a2.33,2.33,0,1,1-2.32,2.32A2.32,2.32,0,0,1,285.11,423.3Zm2.07,7.13V442h-4.13V430.43Z"/><path d="M290.74,438.15a5.93,5.93,0,0,0,1.66.85,5.07,5.07,0,0,0,1.6.29,1.78,1.78,0,0,0,1.06-.31.66.66,0,0,0,.2-.54.61.61,0,0,0-.2-.52,2.56,2.56,0,0,0-1.09-.41l-1.08-.26a3.75,3.75,0,0,1-2-1,2.8,2.8,0,0,1-.75-2,4.09,4.09,0,0,1,1.09-2.81,5.81,5.81,0,0,1,4.13-1.4,9.66,9.66,0,0,1,3.7.75l-1.4,2.63a5.88,5.88,0,0,0-2.17-.56,1.73,1.73,0,0,0-1,.23.62.62,0,0,0-.36.57.67.67,0,0,0,.49.64c.39.16.73.16,1.37.34l.75.21a4.81,4.81,0,0,1,1.71.9,3.26,3.26,0,0,1,.88,2.3,3.88,3.88,0,0,1-1.17,2.87,6,6,0,0,1-4.26,1.44,8.55,8.55,0,0,1-4.65-1.34Zm2,5.12,3.87.41L294,448.43l-2.59-.31Z"/><path d="M303.53,423.3a2.33,2.33,0,1,1-2.33,2.32A2.31,2.31,0,0,1,303.53,423.3Zm2.07,7.13V442h-4.14V430.43Z"/><path d="M320.65,437h-8.6a2.93,2.93,0,0,0,.73,1.94,2.28,2.28,0,0,0,1.7.57,3.31,3.31,0,0,0,1.34-.31,1.91,1.91,0,0,0,.73-.78h3.95a5.19,5.19,0,0,1-1.39,2.38,6.29,6.29,0,0,1-4.71,1.6,6.55,6.55,0,0,1-4.78-1.75,6.55,6.55,0,0,1,0-8.84,6.5,6.5,0,0,1,4.73-1.68,6.34,6.34,0,0,1,4.44,1.58,6.44,6.44,0,0,1,1.83,4.85Zm-3.79-2.37a2.83,2.83,0,0,0-.67-1.24,2.4,2.4,0,0,0-1.71-.62,2.22,2.22,0,0,0-1.68.62,2.39,2.39,0,0,0-.62,1.24Z"/><path d="M323,430.43h4.13v1.88a3.79,3.79,0,0,1,1.63-1.6,4.57,4.57,0,0,1,2.14-.46l.83.05v3.9a3.69,3.69,0,0,0-1.78-.41,2.69,2.69,0,0,0-1.89.62,3.47,3.47,0,0,0-.93,2.63V442H323Z"/><path d="M76,39.55V53H71.52V39.55H67.85v-3.8H79.66v3.8Z"/><path d="M83.33,34.3A2.33,2.33,0,1,1,81,36.63,2.32,2.32,0,0,1,83.33,34.3Zm2.06,7.13V53H81.26V41.43Z"/><path d="M92.34,58.9H88.21V41.43h4.13V42.7A4.31,4.31,0,0,1,95.88,41,5.75,5.75,0,0,1,100,42.72a6.58,6.58,0,0,1-.11,9.05,5.57,5.57,0,0,1-3.95,1.6,4.93,4.93,0,0,1-3.59-1.5ZM93,45.33a2.86,2.86,0,0,0-.8,1.91,2.78,2.78,0,0,0,.8,1.84,2.65,2.65,0,0,0,1.86.77,2.5,2.5,0,0,0,1.84-.77,2.74,2.74,0,0,0,.8-1.84,2.86,2.86,0,0,0-.8-1.91,2.5,2.5,0,0,0-1.84-.77A2.65,2.65,0,0,0,93,45.33Z"/><path d="M114.58,44.82V53h-4.13V44.82H109V41.43h1.45V40A5.82,5.82,0,0,1,112,35.49a6.58,6.58,0,0,1,4.55-1.63,6.92,6.92,0,0,1,4.62,1.55,5.25,5.25,0,0,1,1.45,3.88v.59h-4.13v-.39a2.39,2.39,0,0,0-.52-1.55,2.13,2.13,0,0,0-1.45-.51,2,2,0,0,0-1.42.59,2.38,2.38,0,0,0-.54,1.78v1.63h2.89v3.39Zm8.06-3.39V53h-4.13V41.43Z"/><path d="M126,49.16a6,6,0,0,0,1.65.85,5.46,5.46,0,0,0,1.61.28,1.66,1.66,0,0,0,1.05-.31.63.63,0,0,0,.21-.54.6.6,0,0,0-.21-.52,2.52,2.52,0,0,0-1.08-.41l-1.09-.26a3.68,3.68,0,0,1-2-1,2.77,2.77,0,0,1-.75-2,4.1,4.1,0,0,1,1.09-2.82,5.82,5.82,0,0,1,4.13-1.4,9.6,9.6,0,0,1,3.69.75l-1.39,2.64a5.69,5.69,0,0,0-2.17-.57,1.79,1.79,0,0,0-1,.23.62.62,0,0,0-.36.57.68.68,0,0,0,.49.65c.39.15.72.15,1.37.33l.75.21a4.83,4.83,0,0,1,1.7.9,3.28,3.28,0,0,1,.88,2.3,3.85,3.85,0,0,1-1.16,2.87,6,6,0,0,1-4.26,1.45A8.48,8.48,0,0,1,124.5,52Zm2,5.11,3.87.41-2.63,4.76-2.59-.31Z"/><path d="M138.76,34.3a2.33,2.33,0,1,1-2.33,2.33A2.32,2.32,0,0,1,138.76,34.3Zm2.06,7.13V53h-4.13V41.43Z"/><path d="M155.88,48h-8.6a2.94,2.94,0,0,0,.72,1.94,2.38,2.38,0,0,0,1.71.56,3.14,3.14,0,0,0,1.34-.31,2,2,0,0,0,.73-.77h3.95a5.19,5.19,0,0,1-1.4,2.38,6.29,6.29,0,0,1-4.7,1.6,6.56,6.56,0,0,1-4.78-1.76,6,6,0,0,1-1.7-4.37,6.14,6.14,0,0,1,1.73-4.46,6.49,6.49,0,0,1,4.73-1.68,6.32,6.32,0,0,1,4.44,1.57,6.46,6.46,0,0,1,1.83,4.86Zm-3.79-2.38a2.85,2.85,0,0,0-.68-1.24,2.41,2.41,0,0,0-1.7-.62,2.22,2.22,0,0,0-1.68.62,2.39,2.39,0,0,0-.62,1.24Z"/><path d="M158.26,41.43h4.13v1.89a3.68,3.68,0,0,1,1.63-1.6,4.46,4.46,0,0,1,2.14-.47c.11,0,.29,0,.83,0v3.9a3.73,3.73,0,0,0-1.78-.41,2.73,2.73,0,0,0-1.89.62,3.48,3.48,0,0,0-.93,2.63V53h-4.13Z"/><path d="M169.44,45.62a2.67,2.67,0,0,1-.8-1.89A2.75,2.75,0,0,1,171.33,41a2.72,2.72,0,0,1,1.91.83,2.48,2.48,0,0,1,.75,1.86,2.5,2.5,0,0,1-.78,1.89,2.62,2.62,0,0,1-3.77,0Zm0,7a2.63,2.63,0,0,1,0-3.78,2.62,2.62,0,0,1,1.89-.8,2.72,2.72,0,0,1,1.91.83,2.48,2.48,0,0,1,.75,1.86,2.5,2.5,0,0,1-.78,1.89,2.62,2.62,0,0,1-3.77,0Z"/><line x1="371.15" y1="487.58" x2="1168.4" y2="487.58" style="fill:none;stroke:#4fc2c9;stroke-miterlimit:10;stroke-width:5.73120941823925px"/><line x1="1168.4" y1="457.88" x2="1168.4" y2="490.59" style="fill:none;stroke:#4fc2c9;stroke-miterlimit:10;stroke-width:5.73120941823925px"/><line x1="371.15" y1="457.88" x2="371.15" y2="490.59" style="fill:none;stroke:#4fc2c9;stroke-miterlimit:10;stroke-width:5.73120941823925px"/><path d="M766.27,514.11H760L758.85,517h-4.72l6.61-17.23h4.88L772.11,517h-4.78Zm-1.19-3.41-1.94-5.58-1.88,5.58Z"/><path d="M777.84,498.17V517h-4.13V498.17Z"/><path d="M784.79,498.17V517h-4.14V498.17Z"/><path d="M758,552.85a16.85,16.85,0,0,1-2.53-5.79,21.28,21.28,0,0,1-.75-6,22.69,22.69,0,0,1,.95-6.77,24,24,0,0,1,2.33-5.09l2.92,1.55a21.68,21.68,0,0,0-1.91,4.68,23.61,23.61,0,0,0-.73,5.5,27.8,27.8,0,0,0,.62,5.35,17.87,17.87,0,0,0,2,5.06Z"/><path d="M772.46,536.45h4.13V548h-4.13v-1.26a4.31,4.31,0,0,1-3.59,1.65,5.53,5.53,0,0,1-4.16-1.83,5.84,5.84,0,0,1-1.65-4.24,6.38,6.38,0,0,1,1.78-4.62,5.94,5.94,0,0,1,4.16-1.63,4.57,4.57,0,0,1,3.46,1.5Zm-4.34,3.87a2.59,2.59,0,0,0,0,3.77,2.89,2.89,0,0,0,1.86.78,2.67,2.67,0,0,0,1.86-.8,2.51,2.51,0,0,0,.78-1.86,2.59,2.59,0,0,0-.8-1.89,2.66,2.66,0,0,0-1.86-.75A2.63,2.63,0,0,0,768.12,540.32Z"/><path d="M779.22,551.3a17.87,17.87,0,0,0,2-5.06,27,27,0,0,0,.62-5.35,24.15,24.15,0,0,0-.72-5.5,22.22,22.22,0,0,0-1.92-4.68l2.92-1.55a21.53,21.53,0,0,1,3.28,11.89,21.59,21.59,0,0,1-.74,6,17.06,17.06,0,0,1-2.54,5.79Z"/><path d="M1030.57,408.81a10.28,10.28,0,0,1-13.58,0,9,9,0,0,1,0-12.89,10.28,10.28,0,0,1,13.58,0,9,9,0,0,1,0,12.89Zm-10.28-9.74a4.73,4.73,0,0,0-1.37,3.38,4.41,4.41,0,0,0,1.37,3.21,4.9,4.9,0,0,0,3.49,1.37,4.7,4.7,0,0,0,4.86-4.65,4.66,4.66,0,0,0-1.4-3.31,5.16,5.16,0,0,0-3.46-1.37A5,5,0,0,0,1020.29,399.07Z"/><path d="M1040.31,402.82V411h-4.13v-8.16h-1.32v-3.39h1.32v-3.79h4.13v3.79h2.35v3.39Z"/><path d="M1044.21,392.15h4.13v8.73a5.12,5.12,0,0,1,1.29-1.14,4.75,4.75,0,0,1,2.38-.57,4.65,4.65,0,0,1,3.41,1.24,4,4,0,0,1,1.09,3.23V411h-4.14v-5.84a3.48,3.48,0,0,0-.51-2.25,1.65,1.65,0,0,0-1.32-.49,2.24,2.24,0,0,0-1.5.49,2.54,2.54,0,0,0-.7,1.89V411h-4.13Z"/><path d="M1071.05,406h-8.6a2.94,2.94,0,0,0,.72,1.94,2.35,2.35,0,0,0,1.7.56,3.18,3.18,0,0,0,1.35-.31,1.86,1.86,0,0,0,.72-.77h4a5.24,5.24,0,0,1-1.39,2.38,6.3,6.3,0,0,1-4.7,1.6,6.55,6.55,0,0,1-4.78-1.76,6,6,0,0,1-1.71-4.37,6.18,6.18,0,0,1,1.73-4.46,6.52,6.52,0,0,1,4.73-1.68,6.31,6.31,0,0,1,4.44,1.57,6.47,6.47,0,0,1,1.84,4.86Zm-3.8-2.38a2.73,2.73,0,0,0-.67-1.24,2.42,2.42,0,0,0-1.71-.62,2.19,2.19,0,0,0-1.67.62,2.25,2.25,0,0,0-.62,1.24Z"/><path d="M1073.42,399.43h4.14v1.89a3.66,3.66,0,0,1,1.62-1.6,4.47,4.47,0,0,1,2.15-.47c.1,0,.28,0,.82.05v3.9a3.65,3.65,0,0,0-1.78-.41,2.7,2.7,0,0,0-1.88.62,3.49,3.49,0,0,0-.93,2.64V411h-4.14Z"/><path d="M1035.88,446.83a16.88,16.88,0,0,1-2.53-5.78,21.4,21.4,0,0,1-.75-6.05,22.63,22.63,0,0,1,1-6.77,23.45,23.45,0,0,1,2.32-5.09l2.92,1.55a21.68,21.68,0,0,0-1.91,4.68,23.61,23.61,0,0,0-.72,5.5,27,27,0,0,0,.62,5.35,17.83,17.83,0,0,0,2,5.06Z"/><path d="M1053.06,440.45a7.91,7.91,0,0,1-10.31,0,6,6,0,0,1,0-8.5,7.23,7.23,0,0,1,5.14-1.91,7.33,7.33,0,0,1,5.17,1.91,6,6,0,0,1,0,8.5Zm-7-6.15a2.66,2.66,0,0,0-.8,1.89,2.62,2.62,0,0,0,4.49,1.83,2.53,2.53,0,0,0,.8-1.83,2.65,2.65,0,0,0-2.63-2.64A2.85,2.85,0,0,0,1046.06,434.3Z"/><path d="M1057,445.28a17.83,17.83,0,0,0,2-5.06,27,27,0,0,0,.62-5.35,24.15,24.15,0,0,0-.72-5.5,21.68,21.68,0,0,0-1.91-4.68l2.92-1.55a21.76,21.76,0,0,1,3.28,11.89,21.33,21.33,0,0,1-.75,6,16.88,16.88,0,0,1-2.53,5.78Z"/><path d="M76.23,154h-4.8v-1.47a4.92,4.92,0,0,1-4.05,1.92,6.42,6.42,0,0,1-4.71-1.86,7.4,7.4,0,0,1-2.16-5.34A7.31,7.31,0,0,1,62.7,142a6.86,6.86,0,0,1,4.74-1.8,5.31,5.31,0,0,1,4,1.74v-9.75h4.8Zm-5.67-4.44a3.22,3.22,0,0,0,1-2.28,3.51,3.51,0,0,0-.9-2.16,3.08,3.08,0,0,0-4.32,0,3.29,3.29,0,0,0-.93,2.28,3,3,0,0,0,.93,2.1,3,3,0,0,0,2.13.9A3.28,3.28,0,0,0,70.56,149.59Z"/><path d="M190.21,93.55V103h-4.8V93.55h-1.68V89.62h1.68V88a6.77,6.77,0,0,1,1.83-5.25,7.6,7.6,0,0,1,5.28-1.89,8.08,8.08,0,0,1,5.37,1.8,6.11,6.11,0,0,1,1.68,4.5v.69h-4.8v-.45a2.78,2.78,0,0,0-.6-1.8,2.45,2.45,0,0,0-1.68-.6,2.29,2.29,0,0,0-1.65.69,2.76,2.76,0,0,0-.63,2.07v1.89h3.36v3.93Zm9.36-3.93V103h-4.8V89.62Z"/><path d="M203.44,98.59a6.87,6.87,0,0,0,1.92,1,6.25,6.25,0,0,0,1.86.33,2,2,0,0,0,1.23-.36.77.77,0,0,0,.24-.63.71.71,0,0,0-.24-.6,3,3,0,0,0-1.26-.48l-1.26-.3a4.31,4.31,0,0,1-2.34-1.17,3.24,3.24,0,0,1-.87-2.31A4.79,4.79,0,0,1,204,90.79a6.77,6.77,0,0,1,4.8-1.62,11.07,11.07,0,0,1,4.29.87l-1.62,3.06a6.64,6.64,0,0,0-2.52-.66,2,2,0,0,0-1.11.27.72.72,0,0,0-.42.66.78.78,0,0,0,.57.75c.45.18.84.18,1.59.39l.87.24a5.67,5.67,0,0,1,2,1,3.79,3.79,0,0,1,1,2.67,4.48,4.48,0,0,1-1.35,3.33,7,7,0,0,1-5,1.68,9.89,9.89,0,0,1-5.4-1.56Zm2.34,5.94,4.5.48-3.06,5.52-3-.36Z"/><path d="M218.29,81.34a2.7,2.7,0,1,1-2.7,2.7A2.69,2.69,0,0,1,218.29,81.34Zm2.4,8.28V103h-4.8V89.62Z"/><path d="M238.18,97.21h-10a3.39,3.39,0,0,0,.84,2.25,2.7,2.7,0,0,0,2,.66,3.79,3.79,0,0,0,1.56-.36,2.23,2.23,0,0,0,.84-.9H238a6,6,0,0,1-1.62,2.76c-1,1-2.55,1.86-5.46,1.86a7.61,7.61,0,0,1-5.55-2,7,7,0,0,1-2-5.07,7.16,7.16,0,0,1,2-5.19,7.55,7.55,0,0,1,5.49-2,7.35,7.35,0,0,1,5.16,1.83,7.51,7.51,0,0,1,2.13,5.64Zm-4.41-2.76A3.22,3.22,0,0,0,233,93a2.8,2.8,0,0,0-2-.72,2.58,2.58,0,0,0-1.95.72,2.74,2.74,0,0,0-.72,1.44Z"/><path d="M240.94,89.62h4.8v2.19A4.33,4.33,0,0,1,247.63,90a5.24,5.24,0,0,1,2.49-.54l1,.06V94a4.23,4.23,0,0,0-2.07-.48,3.14,3.14,0,0,0-2.19.72,4,4,0,0,0-1.08,3.06V103h-4.8Z"/><path d="M200.23,154h-4.8v-1.47a4.92,4.92,0,0,1-4.05,1.92,6.42,6.42,0,0,1-4.71-1.86,7.4,7.4,0,0,1-2.16-5.34A7.31,7.31,0,0,1,186.7,142a6.86,6.86,0,0,1,4.74-1.8,5.31,5.31,0,0,1,4,1.74v-9.75h4.8Zm-5.67-4.44a3.22,3.22,0,0,0,1-2.28,3.51,3.51,0,0,0-.9-2.16,3.08,3.08,0,0,0-4.32,0,3.29,3.29,0,0,0-.93,2.28,3,3,0,0,0,.93,2.1,3,3,0,0,0,2.13.9A3.28,3.28,0,0,0,194.56,149.59Z"/><path d="M205.93,132.34a2.7,2.7,0,1,1-2.7,2.7A2.69,2.69,0,0,1,205.93,132.34Zm2.4,8.28V154h-4.8V140.62Z"/><path d="M211.6,140.62h4.8v2.19a4.33,4.33,0,0,1,1.89-1.86,5.24,5.24,0,0,1,2.49-.54l1,.06V145a4.23,4.23,0,0,0-2.07-.48,3.14,3.14,0,0,0-2.19.72,4,4,0,0,0-1.08,3.06V154h-4.8Z"/><path d="M238.09,148.21h-10a3.39,3.39,0,0,0,.84,2.25,2.7,2.7,0,0,0,2,.66,3.79,3.79,0,0,0,1.56-.36,2.23,2.23,0,0,0,.84-.9h4.59a6,6,0,0,1-1.62,2.76c-1,1-2.55,1.86-5.46,1.86a7.61,7.61,0,0,1-5.55-2,7,7,0,0,1-2-5.07,7.16,7.16,0,0,1,2-5.19,7.55,7.55,0,0,1,5.49-2,7.35,7.35,0,0,1,5.16,1.83,7.51,7.51,0,0,1,2.13,5.64Zm-4.41-2.76a3.22,3.22,0,0,0-.78-1.44,2.8,2.8,0,0,0-2-.72A2.58,2.58,0,0,0,229,144a2.74,2.74,0,0,0-.72,1.44Z"/><path d="M251,153.73a7.12,7.12,0,0,1-3.33.75,7.41,7.41,0,0,1-5.28-2,7,7,0,0,1-2.07-5,7.3,7.3,0,0,1,2.16-5.19,7.73,7.73,0,0,1,5.4-2A6.88,6.88,0,0,1,251,141v4a4.28,4.28,0,0,0-2.49-.87,3.15,3.15,0,0,0-2.34.93,3.26,3.26,0,0,0-.93,2.31,3.44,3.44,0,0,0,.84,2.25,3.26,3.26,0,0,0,2.46,1,3.63,3.63,0,0,0,2.46-.9Z"/><path d="M259.33,144.55V154h-4.8v-9.48H253v-3.93h1.53v-4.41h4.8v4.41h2.73v3.93Z"/><path d="M277.36,152.26a9.18,9.18,0,0,1-12,0,6.92,6.92,0,0,1,0-9.87,8.37,8.37,0,0,1,6-2.22,8.47,8.47,0,0,1,6,2.22,6.92,6.92,0,0,1,0,9.87Zm-8.13-7.14a3.06,3.06,0,0,0,2.16,5.22,3.05,3.05,0,0,0,2.13-.9,3,3,0,0,0,.93-2.13,3.26,3.26,0,0,0-.93-2.19,3.08,3.08,0,0,0-4.29,0Z"/><path d="M282.19,140.62H287v2.19a4.33,4.33,0,0,1,1.89-1.86,5.24,5.24,0,0,1,2.49-.54l1,.06V145a4.23,4.23,0,0,0-2.07-.48,3.14,3.14,0,0,0-2.19.72A4,4,0,0,0,287,148.3V154h-4.8Z"/><line x1="603.4" y1="217.16" x2="603.4" y2="132.16" style="fill:none;stroke:#4fc2c9;stroke-miterlimit:10;stroke-width:6.02697122097015px"/><line x1="809.4" y1="217.16" x2="809.4" y2="132.16" style="fill:none;stroke:#4fc2c9;stroke-miterlimit:10;stroke-width:6.02697122097015px"/><line x1="994.4" y1="217.16" x2="994.4" y2="132.16" style="fill:none;stroke:#4fc2c9;stroke-miterlimit:10;stroke-width:6.02697122097015px"/><path d="M73.52,179.33V201.2h-4.8V179.33Z"/><path d="M192.52,179.33V201.2h-4.8V179.33Z"/><path d="M198.19,179.51a2.7,2.7,0,1,1-2.7,2.7A2.69,2.69,0,0,1,198.19,179.51Zm2.4,8.28V201.2h-4.8V187.79Z"/><path d="M203.86,187.79h4.8v1.68a5.06,5.06,0,0,1,4.26-2,5.42,5.42,0,0,1,4,1.44,4.62,4.62,0,0,1,1.26,3.75v8.52h-4.8v-6.78a3.85,3.85,0,0,0-.6-2.61,2,2,0,0,0-1.53-.57,2.63,2.63,0,0,0-1.77.63,3.08,3.08,0,0,0-.78,2.13v7.2h-4.8Z"/><path d="M226.21,179.33v13.29l4.53-4.83h6.51L230.92,194l6.84,7.23H231.1l-4.89-5.49v5.49h-4.8V179.33Z"/><path d="M500.93,392.15V402a3.4,3.4,0,0,0,.85,2.58,3.14,3.14,0,0,0,2.05.79,3.1,3.1,0,0,0,2-.72,3.65,3.65,0,0,0,1-3v-9.5h4.32v9.57a6.78,6.78,0,0,1-1.88,5.4,7.19,7.19,0,0,1-5.49,2.07,7.46,7.46,0,0,1-5.53-2c-1.45-1.57-1.62-3.69-1.62-5.47v-9.57Z"/><path d="M515,405.12a5.64,5.64,0,0,0,1.6.82,5.09,5.09,0,0,0,1.55.28,1.75,1.75,0,0,0,1-.3.67.67,0,0,0,.2-.53.61.61,0,0,0-.2-.5,2.71,2.71,0,0,0-1-.4l-1.05-.25a3.55,3.55,0,0,1-1.95-1,2.67,2.67,0,0,1-.73-1.92,4,4,0,0,1,1-2.73,5.67,5.67,0,0,1,4-1.35A9.14,9.14,0,0,1,523,398l-1.35,2.55a5.56,5.56,0,0,0-2.1-.55,1.71,1.71,0,0,0-.93.22.61.61,0,0,0-.35.55.66.66,0,0,0,.48.63c.37.15.7.15,1.32.32l.73.2a4.74,4.74,0,0,1,1.65.88,3.13,3.13,0,0,1,.85,2.22,3.71,3.71,0,0,1-1.13,2.77,5.81,5.81,0,0,1-4.12,1.4,8.19,8.19,0,0,1-4.5-1.3Z"/><path d="M537.2,404h-8.32a2.83,2.83,0,0,0,.7,1.87,2.25,2.25,0,0,0,1.65.55,3.07,3.07,0,0,0,1.3-.3,1.83,1.83,0,0,0,.7-.75h3.82a4.91,4.91,0,0,1-1.35,2.3,6,6,0,0,1-4.54,1.55,6.33,6.33,0,0,1-4.63-1.7,5.86,5.86,0,0,1-1.65-4.22,5.94,5.94,0,0,1,1.68-4.32,6.27,6.27,0,0,1,4.57-1.63,6.12,6.12,0,0,1,4.3,1.53,6.27,6.27,0,0,1,1.77,4.7Zm-3.67-2.3a2.71,2.71,0,0,0-.65-1.2,2.35,2.35,0,0,0-1.65-.6,2.16,2.16,0,0,0-1.62.6,2.21,2.21,0,0,0-.6,1.2Z"/><path d="M539.51,397.65h4v1.82a3.6,3.6,0,0,1,1.57-1.55,4.44,4.44,0,0,1,2.08-.45c.1,0,.27,0,.8,0v3.78a3.54,3.54,0,0,0-1.73-.4,2.59,2.59,0,0,0-1.82.6,3.35,3.35,0,0,0-.9,2.55v4.77h-4Z"/><path d="M510.23,443.52a16.69,16.69,0,0,1-2.45-5.6,20.87,20.87,0,0,1-.72-5.85,22.17,22.17,0,0,1,.92-6.55,23.07,23.07,0,0,1,2.25-4.92l2.83,1.5a20.93,20.93,0,0,0-1.85,4.52,23.22,23.22,0,0,0-.7,5.33,26,26,0,0,0,.6,5.17,17.31,17.31,0,0,0,1.95,4.9Z"/><path d="M519.61,427.65v6.24a2.13,2.13,0,0,0,.6,1.63,2.05,2.05,0,0,0,1.4.42,1.87,1.87,0,0,0,1.42-.47,2.09,2.09,0,0,0,.58-1.58v-6.24h4v7a3.84,3.84,0,0,1-1.07,3,6.38,6.38,0,0,1-4.82,1.57c-1.68,0-3.73-.17-5.05-1.6a4,4,0,0,1-1-3v-7Z"/><path d="M530.16,442a17.61,17.61,0,0,0,2-4.9,26.81,26.81,0,0,0,.6-5.17,23.22,23.22,0,0,0-.7-5.33,21.45,21.45,0,0,0-1.85-4.52l2.82-1.5a21,21,0,0,1,3.18,11.5,20.78,20.78,0,0,1-.73,5.82,16.3,16.3,0,0,1-2.45,5.6Z"/><path d="M774.89,399.75h8.6c0,3.3-.68,5.64-2.68,7.49a8.11,8.11,0,0,1-5.87,2.1,8.63,8.63,0,0,1-6.4-2.47,8.39,8.39,0,0,1-2.4-6,8.68,8.68,0,0,1,2.5-6.25,9.7,9.7,0,0,1,11-1.33,8.2,8.2,0,0,1,3,3.43l-4.13,1.7a4,4,0,0,0-1.2-1.68,3.48,3.48,0,0,0-2.32-.82,4,4,0,0,0-2.85,1.15,5.63,5.63,0,0,0-1.45,3.82,5.24,5.24,0,0,0,1.32,3.6,4,4,0,0,0,3,1.27,3.56,3.56,0,0,0,2.4-.77,3,3,0,0,0,1-1.85h-3.55Z"/><path d="M785.87,398h4v1.83a3.6,3.6,0,0,1,1.57-1.55,4.28,4.28,0,0,1,2.07-.45l.8,0v3.77a3.52,3.52,0,0,0-1.72-.4,2.62,2.62,0,0,0-1.82.6,3.37,3.37,0,0,0-.9,2.55v4.77h-4Z"/><path d="M806.84,407.72a7.64,7.64,0,0,1-10,0,5.75,5.75,0,0,1,0-8.22,7,7,0,0,1,5-1.85,7.06,7.06,0,0,1,5,1.85,5.77,5.77,0,0,1,0,8.22Zm-6.77-6a2.47,2.47,0,0,0,0,3.6,2.5,2.5,0,0,0,3.57,0,2.47,2.47,0,0,0,.77-1.77,2.72,2.72,0,0,0-.77-1.83,2.57,2.57,0,0,0-3.57,0Z"/><path d="M814.87,398v6.25a2.11,2.11,0,0,0,.6,1.62,2.06,2.06,0,0,0,1.4.43,1.85,1.85,0,0,0,1.42-.48,2.06,2.06,0,0,0,.58-1.57V398h4v7a3.82,3.82,0,0,1-1.07,3,6.38,6.38,0,0,1-4.83,1.58c-1.67,0-3.72-.18-5-1.6a4,4,0,0,1-1-3v-7Z"/><path d="M829.62,414.92h-4V398h4v1.23a4.15,4.15,0,0,1,3.42-1.6,5.55,5.55,0,0,1,4,1.62,6.35,6.35,0,0,1-.1,8.75,5.39,5.39,0,0,1-3.82,1.55,4.75,4.75,0,0,1-3.47-1.45Zm.65-13.12a2.72,2.72,0,0,0-.78,1.84,2.68,2.68,0,0,0,.78,1.78,2.56,2.56,0,0,0,1.8.75,2.42,2.42,0,0,0,1.77-.75,2.69,2.69,0,0,0,.78-1.78,2.72,2.72,0,0,0-.78-1.84,2.38,2.38,0,0,0-1.77-.75A2.52,2.52,0,0,0,830.27,401.8Z"/><path d="M790.73,443.89a16.3,16.3,0,0,1-2.45-5.6,20.73,20.73,0,0,1-.73-5.84,21.72,21.72,0,0,1,.93-6.55,22.46,22.46,0,0,1,2.25-4.93l2.82,1.5A21.53,21.53,0,0,0,791.7,427a23.14,23.14,0,0,0-.7,5.32,26.72,26.72,0,0,0,.6,5.17,17.5,17.5,0,0,0,1.95,4.9Z"/><path d="M808.68,428v10.47a6,6,0,0,1-1.53,4.63,6.65,6.65,0,0,1-4.92,1.8,6.87,6.87,0,0,1-5.23-2,4,4,0,0,1-1.22-2.32h4.45a1.71,1.71,0,0,0,1.87,1.15,2.45,2.45,0,0,0,1.78-.63,2.69,2.69,0,0,0,.8-2.07v-1.13a4.24,4.24,0,0,1-3.35,1.48,5.56,5.56,0,0,1-4.13-1.58,5.89,5.89,0,0,1-1.55-4.07,6.44,6.44,0,0,1,1.65-4.37,5.61,5.61,0,0,1,4.05-1.7,4.39,4.39,0,0,1,3.33,1.47V428Zm-8.15,3.75a2.49,2.49,0,0,0,0,3.62,2.51,2.51,0,0,0,1.8.73,2.56,2.56,0,0,0,2.55-2.55,2.88,2.88,0,0,0-.8-1.82,2.54,2.54,0,0,0-1.78-.73A2.39,2.39,0,0,0,800.53,431.77Z"/><path d="M811.23,442.39a17.5,17.5,0,0,0,1.95-4.9,26.72,26.72,0,0,0,.6-5.17,23.14,23.14,0,0,0-.7-5.32,21.53,21.53,0,0,0-1.85-4.53l2.82-1.5a21,21,0,0,1,3.18,11.5,20.68,20.68,0,0,1-.73,5.82,16.3,16.3,0,0,1-2.45,5.6Z"/><path d="M483.14,105.71h-10A3.39,3.39,0,0,0,474,108a2.7,2.7,0,0,0,2,.66,3.79,3.79,0,0,0,1.56-.36,2.23,2.23,0,0,0,.84-.9H483a6,6,0,0,1-1.62,2.76c-1,1-2.55,1.86-5.46,1.86a7.61,7.61,0,0,1-5.55-2,7,7,0,0,1-2-5.07,7.16,7.16,0,0,1,2-5.19,7.55,7.55,0,0,1,5.49-2A7.35,7.35,0,0,1,481,99.56a7.51,7.51,0,0,1,2.13,5.64ZM478.73,103a3.22,3.22,0,0,0-.78-1.44,2.8,2.8,0,0,0-2-.72,2.58,2.58,0,0,0-2,.72,2.74,2.74,0,0,0-.72,1.44Z"/><path d="M490.64,104.24l-5.43-6.12h6.24l2.31,2.76,2.37-2.76h6.21l-5.55,6.12,6.72,7.29h-6.36l-3.42-4-3.42,4H484Z"/><path d="M518.24,105.71h-10a3.39,3.39,0,0,0,.84,2.25,2.7,2.7,0,0,0,2,.66,3.79,3.79,0,0,0,1.56-.36,2.23,2.23,0,0,0,.84-.9h4.59a6,6,0,0,1-1.62,2.76c-1,1-2.55,1.86-5.46,1.86a7.61,7.61,0,0,1-5.55-2,7,7,0,0,1-2-5.07,7.16,7.16,0,0,1,2-5.19,7.55,7.55,0,0,1,5.49-2,7.35,7.35,0,0,1,5.16,1.83,7.51,7.51,0,0,1,2.13,5.64ZM513.83,103a3.22,3.22,0,0,0-.78-1.44,2.8,2.8,0,0,0-2-.72,2.58,2.58,0,0,0-1.95.72,2.74,2.74,0,0,0-.72,1.44Z"/><path d="M531.14,111.23a7.12,7.12,0,0,1-3.33.75,7.41,7.41,0,0,1-5.28-2,7,7,0,0,1-2.07-5,7.3,7.3,0,0,1,2.16-5.19,7.73,7.73,0,0,1,5.4-2,6.88,6.88,0,0,1,3.12.75v4a4.28,4.28,0,0,0-2.49-.87,3.15,3.15,0,0,0-2.34.93,3.26,3.26,0,0,0-.93,2.31,3.44,3.44,0,0,0,.84,2.25,3.26,3.26,0,0,0,2.46,1,3.63,3.63,0,0,0,2.46-.9Z"/><path d="M538.67,98.12v7.5a2.57,2.57,0,0,0,.72,1.95,2.48,2.48,0,0,0,1.68.51,2.24,2.24,0,0,0,1.71-.57,2.49,2.49,0,0,0,.69-1.89v-7.5h4.8v8.37a4.6,4.6,0,0,1-1.29,3.6c-1.65,1.71-4,1.89-5.79,1.89-2,0-4.47-.21-6.06-1.92a4.82,4.82,0,0,1-1.26-3.57V98.12Z"/><path d="M556.88,102.05v9.48h-4.8v-9.48h-1.53V98.12h1.53V93.71h4.8v4.41h2.73v3.93Z"/><path d="M575.63,105.71h-10a3.39,3.39,0,0,0,.84,2.25,2.7,2.7,0,0,0,2,.66,3.79,3.79,0,0,0,1.56-.36,2.23,2.23,0,0,0,.84-.9h4.59a6,6,0,0,1-1.62,2.76c-1,1-2.55,1.86-5.46,1.86a7.61,7.61,0,0,1-5.55-2,7,7,0,0,1-2-5.07,7.16,7.16,0,0,1,2-5.19,7.55,7.55,0,0,1,5.49-2,7.35,7.35,0,0,1,5.16,1.83,7.51,7.51,0,0,1,2.13,5.64ZM571.22,103a3.22,3.22,0,0,0-.78-1.44,2.8,2.8,0,0,0-2-.72,2.58,2.58,0,0,0-2,.72,2.74,2.74,0,0,0-.72,1.44Z"/><path d="M589.55,117.17a19.8,19.8,0,0,1-2.94-6.72,25,25,0,0,1-.87-7,26.33,26.33,0,0,1,1.11-7.86,27.31,27.31,0,0,1,2.7-5.91l3.39,1.8a25.47,25.47,0,0,0-2.22,5.43,27.82,27.82,0,0,0-.84,6.39,31.72,31.72,0,0,0,.72,6.21,20.88,20.88,0,0,0,2.34,5.88Z"/><path d="M601,104.24l-5.43-6.12h6.24l2.31,2.76,2.37-2.76h6.21l-5.55,6.12,6.72,7.29h-6.36l-3.42-4-3.42,4h-6.36Z"/><path d="M615.32,115.37a20.88,20.88,0,0,0,2.34-5.88,31.72,31.72,0,0,0,.72-6.21,27.82,27.82,0,0,0-.84-6.39,25.47,25.47,0,0,0-2.22-5.43l3.39-1.8a27.31,27.31,0,0,1,2.7,5.91,27,27,0,0,1,1.11,7.89,24.9,24.9,0,0,1-.87,7,19.8,19.8,0,0,1-2.94,6.72Z"/><path d="M709.61,98.12l3.18,7.08,3.39-7.08h2.94l3.39,7.29,3.36-7.29h5.34l-7,13.41H721l-3.36-7.38-3.21,7.38h-3.24l-6.9-13.41Z"/><path d="M732.86,98.12h4.8v2.19a4.33,4.33,0,0,1,1.89-1.86,5.24,5.24,0,0,1,2.49-.54l1,.06v4.53a4.23,4.23,0,0,0-2.07-.48,3.14,3.14,0,0,0-2.19.72,4,4,0,0,0-1.08,3.06v5.73h-4.8Z"/><path d="M747.53,89.84a2.7,2.7,0,1,1-2.7,2.7A2.69,2.69,0,0,1,747.53,89.84Zm2.4,8.28v13.41h-4.8V98.12Z"/><path d="M758.51,102.05v9.48h-4.8v-9.48h-1.53V98.12h1.53V93.71h4.8v4.41h2.73v3.93Z"/><path d="M777.26,105.71h-10a3.39,3.39,0,0,0,.84,2.25,2.7,2.7,0,0,0,2,.66,3.79,3.79,0,0,0,1.56-.36,2.23,2.23,0,0,0,.84-.9h4.59a6,6,0,0,1-1.62,2.76c-1,1-2.55,1.86-5.46,1.86a7.61,7.61,0,0,1-5.55-2,7,7,0,0,1-2-5.07,7.16,7.16,0,0,1,2-5.19,7.55,7.55,0,0,1,5.49-2,7.35,7.35,0,0,1,5.16,1.83,7.51,7.51,0,0,1,2.13,5.64ZM772.85,103a3.22,3.22,0,0,0-.78-1.44,2.8,2.8,0,0,0-2-.72,2.58,2.58,0,0,0-2,.72,2.74,2.74,0,0,0-.72,1.44Z"/><path d="M791.18,117.17a19.8,19.8,0,0,1-2.94-6.72,25,25,0,0,1-.87-7,26.33,26.33,0,0,1,1.11-7.86,27.31,27.31,0,0,1,2.7-5.91l3.39,1.8a25.47,25.47,0,0,0-2.22,5.43,27.82,27.82,0,0,0-.84,6.39,31.72,31.72,0,0,0,.72,6.21,20.88,20.88,0,0,0,2.34,5.88Z"/><path d="M801.35,98.12l3.18,7.08,3.39-7.08h2.94l3.39,7.29,3.36-7.29H823l-7,13.41h-3.24l-3.36-7.38-3.21,7.38h-3.24L796,98.12Z"/><path d="M824.36,115.37a20.88,20.88,0,0,0,2.34-5.88,31.72,31.72,0,0,0,.72-6.21,27.82,27.82,0,0,0-.84-6.39,25.47,25.47,0,0,0-2.22-5.43l3.39-1.8a27.31,27.31,0,0,1,2.7,5.91,27,27,0,0,1,1.11,7.89,24.9,24.9,0,0,1-.87,7,19.8,19.8,0,0,1-2.94,6.72Z"/><path d="M906.2,98.12H911v2.19a4.33,4.33,0,0,1,1.89-1.86,5.24,5.24,0,0,1,2.49-.54l1,.06v4.53a4.23,4.23,0,0,0-2.07-.48,3.14,3.14,0,0,0-2.19.72A4,4,0,0,0,911,105.8v5.73h-4.8Z"/><path d="M932.69,105.71h-10a3.39,3.39,0,0,0,.84,2.25,2.7,2.7,0,0,0,2,.66,3.79,3.79,0,0,0,1.56-.36,2.23,2.23,0,0,0,.84-.9h4.59a6,6,0,0,1-1.62,2.76c-1,1-2.55,1.86-5.46,1.86a7.61,7.61,0,0,1-5.55-2,7,7,0,0,1-2-5.07,7.16,7.16,0,0,1,2-5.19,7.55,7.55,0,0,1,5.49-2,7.35,7.35,0,0,1,5.16,1.83,7.51,7.51,0,0,1,2.13,5.64ZM928.28,103a3.22,3.22,0,0,0-.78-1.44,2.8,2.8,0,0,0-2-.72,2.58,2.58,0,0,0-1.95.72,2.74,2.74,0,0,0-.72,1.44Z"/><path d="M945.83,98.12h4.8v13.41h-4.8v-1.47a5,5,0,0,1-4.17,1.92,6.42,6.42,0,0,1-4.83-2.13,6.76,6.76,0,0,1-1.92-4.92A7.42,7.42,0,0,1,937,99.56a6.9,6.9,0,0,1,4.83-1.89,5.31,5.31,0,0,1,4,1.74Zm-5,4.5a3.14,3.14,0,0,0-1,2.19,3.09,3.09,0,0,0,.93,2.19,3.37,3.37,0,0,0,2.16.9,3.08,3.08,0,0,0,2.16-.93,2.91,2.91,0,0,0,.9-2.16,3,3,0,0,0-.93-2.19,3,3,0,0,0-4.26,0Z"/><path d="M969.11,111.53h-4.8v-1.47a4.92,4.92,0,0,1-4,1.92,6.42,6.42,0,0,1-4.71-1.86,7.4,7.4,0,0,1-2.16-5.34,7.31,7.31,0,0,1,2.19-5.31,6.86,6.86,0,0,1,4.74-1.8,5.31,5.31,0,0,1,4,1.74V89.66h4.8Zm-5.67-4.44a3.22,3.22,0,0,0,1-2.28,3.51,3.51,0,0,0-.9-2.16,3.08,3.08,0,0,0-4.32,0,3.29,3.29,0,0,0-.93,2.28,3,3,0,0,0,.93,2.1,3,3,0,0,0,2.13.9A3.28,3.28,0,0,0,963.44,107.09Z"/><path d="M983.57,117.17a19.8,19.8,0,0,1-2.94-6.72,25,25,0,0,1-.87-7,26.33,26.33,0,0,1,1.11-7.86,27.31,27.31,0,0,1,2.7-5.91l3.39,1.8a25.47,25.47,0,0,0-2.22,5.43,27.82,27.82,0,0,0-.84,6.39,31.72,31.72,0,0,0,.72,6.21,20.88,20.88,0,0,0,2.34,5.88Z"/><path d="M990,98.12h4.8v2.19a4.33,4.33,0,0,1,1.89-1.86,5.24,5.24,0,0,1,2.49-.54l1,.06v4.53a4.23,4.23,0,0,0-2.07-.48,3.14,3.14,0,0,0-2.19.72,4,4,0,0,0-1.08,3.06v5.73H990Z"/><path d="M1002.05,115.37a20.88,20.88,0,0,0,2.34-5.88,31.72,31.72,0,0,0,.72-6.21,27.82,27.82,0,0,0-.84-6.39,25.47,25.47,0,0,0-2.22-5.43l3.39-1.8a27.31,27.31,0,0,1,2.7,5.91,27,27,0,0,1,1.11,7.89,24.9,24.9,0,0,1-.87,7,19.8,19.8,0,0,1-2.94,6.72Z"/></svg>