<svg id="Layer_1" data-name="Layer 1" xmlns="http://www.w3.org/2000/svg" viewBox="0 0 1791 788"><title>Diagrame Carte USO -Extras</title><polygon points="270.66 346.99 331.34 346.99 331.34 355.73 349.92 337.15 331.34 318.56 331.34 327.31 270.66 327.31 270.66 346.99" style="fill:none;stroke:#3a5c84;stroke-miterlimit:10;stroke-width:5px"/><polygon points="640.66 346.99 701.34 346.99 701.34 355.73 719.92 337.15 701.34 318.56 701.34 327.31 640.66 327.31 640.66 346.99" style="fill:none;stroke:#3a5c84;stroke-miterlimit:10;stroke-width:5px"/><polygon points="1051.41 252.51 1094.32 209.6 1100.5 215.78 1100.5 189.5 1074.21 189.5 1080.4 195.69 1037.49 238.59 1051.41 252.51" style="fill:none;stroke:#3a5c84;stroke-miterlimit:10;stroke-width:5px"/><polygon points="1037.49 436.41 1080.4 479.31 1074.21 485.5 1100.5 485.5 1100.5 459.21 1094.32 465.4 1051.41 422.49 1037.49 436.41" style="fill:none;stroke:#3a5c84;stroke-miterlimit:10;stroke-width:5px"/><polygon points="1348.84 560.32 1409.52 560.32 1409.52 569.06 1428.11 550.48 1409.52 531.89 1409.52 540.64 1348.84 540.64 1348.84 560.32" style="fill:none;stroke:#3a5c84;stroke-miterlimit:10;stroke-width:5px"/><path d="M47,456.05v15.8A5.39,5.39,0,0,0,48.39,476a4.9,4.9,0,0,0,6.47.12c1.6-1.4,1.56-3.36,1.56-4.84v-15.2h6.92v15.32c0,2.8-.12,5.72-3,8.64-2.24,2.28-5,3.32-8.79,3.32-4.2,0-7.2-1.44-8.84-3.2-2.32-2.52-2.6-5.92-2.6-8.76V456.05Z"/><path d="M75.43,470.09v12.64H69V470.09H67v-5.24h2V459h6.4v5.88h3.64v5.24Z"/><path d="M84.67,453.81a3.6,3.6,0,1,1-3.6,3.6A3.59,3.59,0,0,1,84.67,453.81Zm3.2,11v17.88h-6.4V464.85Z"/><path d="M98.63,453.57v29.16h-6.4V453.57Z"/><path d="M106.19,453.81a3.6,3.6,0,1,1-3.6,3.6A3.59,3.59,0,0,1,106.19,453.81Zm3.2,11v17.88H103V464.85Z"/><path d="M123.06,477.49h7.48v5.24H112.35l8.43-12.64h-7.19v-5.24h17.83Z"/><path d="M148.26,464.85h6.4v17.88h-6.4v-2a6.68,6.68,0,0,1-5.56,2.56,8.54,8.54,0,0,1-6.43-2.84,9,9,0,0,1-2.56-6.56,9.89,9.89,0,0,1,2.76-7.16,9.18,9.18,0,0,1,6.43-2.52,7.08,7.08,0,0,1,5.36,2.32Zm-6.72,6a4.18,4.18,0,0,0-1.28,2.92,4.12,4.12,0,0,0,1.24,2.92,4.49,4.49,0,0,0,2.88,1.2,4.1,4.1,0,0,0,2.88-1.24,3.88,3.88,0,0,0,1.2-2.88,4,4,0,0,0-1.24-2.92,4.06,4.06,0,0,0-5.68,0Z"/><path d="M166.14,470.09v12.64h-6.39V470.09h-2v-5.24h2V459h6.39v5.88h3.64v5.24Z"/><path d="M190.18,480.37a12.24,12.24,0,0,1-16,0,9.25,9.25,0,0,1,0-13.16,11.16,11.16,0,0,1,8-3,11.3,11.3,0,0,1,8,3,9.22,9.22,0,0,1,0,13.16Zm-10.84-9.52a4.08,4.08,0,0,0,2.88,7,4.07,4.07,0,0,0,2.84-1.2,3.94,3.94,0,0,0,1.24-2.84,4.34,4.34,0,0,0-1.24-2.92,4.11,4.11,0,0,0-5.72,0Z"/><path d="M196.63,464.85H203v2.92a5.77,5.77,0,0,1,2.52-2.48,7,7,0,0,1,3.32-.72c.16,0,.44,0,1.28.08v6a5.65,5.65,0,0,0-2.76-.64,4.19,4.19,0,0,0-2.92,1,5.4,5.4,0,0,0-1.44,4.08v7.64h-6.39Z"/><path d="M404.9,482.73l4.52-26.68h6.84l5.4,14.24,5.72-14.24h6.92l4,26.68h-6.91l-2-15.36L423,482.73h-2.76l-6.16-15.36-2.28,15.36Z"/><path d="M455.94,464.85h6.4v17.88h-6.4v-2a6.68,6.68,0,0,1-5.56,2.56,8.56,8.56,0,0,1-6.44-2.84,9,9,0,0,1-2.56-6.56,9.89,9.89,0,0,1,2.76-7.16,9.2,9.2,0,0,1,6.44-2.52,7.08,7.08,0,0,1,5.36,2.32Zm-6.72,6a4.18,4.18,0,0,0-1.28,2.92,4.12,4.12,0,0,0,1.24,2.92,4.49,4.49,0,0,0,2.88,1.2,4.1,4.1,0,0,0,2.88-1.24,3.88,3.88,0,0,0,1.2-2.88,4,4,0,0,0-1.24-2.92,4.06,4.06,0,0,0-5.68,0Z"/><path d="M466.74,464.85h6.4v2.24a6.74,6.74,0,0,1,5.68-2.64,7.23,7.23,0,0,1,5.28,1.92c1.52,1.52,1.68,3,1.68,5v11.36h-6.4v-9c0-1,0-2.6-.8-3.48a2.68,2.68,0,0,0-2-.76,3.5,3.5,0,0,0-2.36.84,4.11,4.11,0,0,0-1,2.84v9.6h-6.4Z"/><path d="M504,464.85h6.4v17.88H504v-2a6.68,6.68,0,0,1-5.56,2.56,8.56,8.56,0,0,1-6.44-2.84,9,9,0,0,1-2.56-6.56,9.89,9.89,0,0,1,2.76-7.16,9.2,9.2,0,0,1,6.44-2.52,7.08,7.08,0,0,1,5.36,2.32Zm-6.72,6a4.18,4.18,0,0,0-1.28,2.92,4.12,4.12,0,0,0,1.24,2.92,4.49,4.49,0,0,0,2.88,1.2,4.1,4.1,0,0,0,2.88-1.24,3.88,3.88,0,0,0,1.2-2.88,4,4,0,0,0-1.24-2.92,4.06,4.06,0,0,0-5.68,0Z"/><path d="M534.89,464.85v16.76c0,2.68-.24,5.12-2.43,7.4a10.66,10.66,0,0,1-7.88,2.88,11,11,0,0,1-8.36-3.16,6.5,6.5,0,0,1-2-3.72h7.12c.24.72.88,1.84,3,1.84a3.89,3.89,0,0,0,2.84-1,4.3,4.3,0,0,0,1.28-3.32v-1.8a6.8,6.8,0,0,1-5.36,2.36,8.91,8.91,0,0,1-6.6-2.52,9.44,9.44,0,0,1-2.48-6.52,10.31,10.31,0,0,1,2.64-7,9,9,0,0,1,6.48-2.72,7,7,0,0,1,5.32,2.36v-1.84Zm-13,6a4,4,0,0,0,0,5.8,4,4,0,0,0,2.88,1.16,4.1,4.1,0,0,0,4.08-4.08,4.59,4.59,0,0,0-1.28-2.92,4.06,4.06,0,0,0-2.84-1.16A3.81,3.81,0,0,0,521.86,470.85Z"/><path d="M558.25,475H544.94a4.52,4.52,0,0,0,1.12,3,3.6,3.6,0,0,0,2.64.88,5,5,0,0,0,2.08-.48,2.89,2.89,0,0,0,1.11-1.2H558a8,8,0,0,1-2.16,3.68c-1.31,1.28-3.39,2.48-7.27,2.48a10.14,10.14,0,0,1-7.4-2.72,9.36,9.36,0,0,1-2.64-6.76,9.54,9.54,0,0,1,2.68-6.92,10.07,10.07,0,0,1,7.32-2.6,9.76,9.76,0,0,1,6.87,2.44,10,10,0,0,1,2.84,7.52Zm-5.87-3.68a4.29,4.29,0,0,0-1-1.92,3.73,3.73,0,0,0-2.64-1,3.44,3.44,0,0,0-2.6,1,3.65,3.65,0,0,0-1,1.92Z"/><path d="M561.94,464.85h6.4v2.92a5.77,5.77,0,0,1,2.52-2.48,7,7,0,0,1,3.32-.72c.16,0,.44,0,1.28.08v6a5.65,5.65,0,0,0-2.76-.64,4.19,4.19,0,0,0-2.92,1,5.4,5.4,0,0,0-1.44,4.08v7.64h-6.4Z"/><path d="M410.7,530.73h-6.4v-2a6.56,6.56,0,0,1-5.4,2.56,8.56,8.56,0,0,1-6.28-2.48,9.86,9.86,0,0,1-2.88-7.12,9.74,9.74,0,0,1,2.92-7.08,9.14,9.14,0,0,1,6.32-2.4,7.07,7.07,0,0,1,5.32,2.32v-13h6.4Zm-7.56-5.92a4.29,4.29,0,0,0,1.36-3,4.68,4.68,0,0,0-1.2-2.88,4.1,4.1,0,0,0-5.76,0,4.39,4.39,0,0,0-1.24,3,4,4,0,0,0,1.24,2.8,4,4,0,0,0,2.84,1.2A4.37,4.37,0,0,0,403.14,524.81Z"/><path d="M434.06,523H420.74a4.52,4.52,0,0,0,1.12,3,3.6,3.6,0,0,0,2.64.88,5,5,0,0,0,2.08-.48,3,3,0,0,0,1.12-1.2h6.12a8,8,0,0,1-2.16,3.68c-1.32,1.28-3.4,2.48-7.28,2.48a10.14,10.14,0,0,1-7.4-2.72,9.36,9.36,0,0,1-2.64-6.76,9.54,9.54,0,0,1,2.68-6.92,10.07,10.07,0,0,1,7.32-2.6,9.8,9.8,0,0,1,6.88,2.44,10,10,0,0,1,2.84,7.52Zm-5.88-3.68a4.29,4.29,0,0,0-1-1.92,3.73,3.73,0,0,0-2.64-1,3.44,3.44,0,0,0-2.6,1,3.65,3.65,0,0,0-1,1.92Z"/><path d="M454.58,521.89v8.84h-6.92V504.05h11a9.19,9.19,0,0,1,6.76,2.4,8.27,8.27,0,0,1,2.48,6.48,8.67,8.67,0,0,1-2.36,6.64,8.88,8.88,0,0,1-6.64,2.32Zm0-5.6h2.32a4.52,4.52,0,0,0,2.92-.84,3.05,3.05,0,0,0,.88-2.44,3.24,3.24,0,0,0-.8-2.4,4.07,4.07,0,0,0-3-1h-2.36Z"/><path d="M484.38,512.85h6.4v17.88h-6.4v-2a6.68,6.68,0,0,1-5.56,2.56,8.56,8.56,0,0,1-6.44-2.84,9,9,0,0,1-2.56-6.56,9.89,9.89,0,0,1,2.76-7.16,9.2,9.2,0,0,1,6.44-2.52,7.08,7.08,0,0,1,5.36,2.32Zm-6.72,6a4.18,4.18,0,0,0-1.28,2.92,4.12,4.12,0,0,0,1.24,2.92,4.49,4.49,0,0,0,2.88,1.2,4.1,4.1,0,0,0,2.88-1.24,3.88,3.88,0,0,0,1.2-2.88,4,4,0,0,0-1.24-2.92,4.06,4.06,0,0,0-5.68,0Z"/><path d="M508.7,530.33a9.49,9.49,0,0,1-4.44,1,9.88,9.88,0,0,1-7-2.72,9.36,9.36,0,0,1-2.76-6.68,9.74,9.74,0,0,1,2.88-6.92,10.31,10.31,0,0,1,7.2-2.72,9.17,9.17,0,0,1,4.16,1v5.36a5.7,5.7,0,0,0-3.32-1.16,4.19,4.19,0,0,0-3.12,1.24,4.35,4.35,0,0,0-1.24,3.08,4.59,4.59,0,0,0,1.12,3,4.34,4.34,0,0,0,3.28,1.36,4.84,4.84,0,0,0,3.28-1.2Z"/><path d="M512.34,501.57h6.4v13.52a7.81,7.81,0,0,1,2-1.76,8.19,8.19,0,0,1,9,1c1.6,1.6,1.68,3.28,1.68,5v11.36H525v-9c0-1.32-.08-2.68-.8-3.48a2.54,2.54,0,0,0-2-.76,3.43,3.43,0,0,0-2.32.76,3.89,3.89,0,0,0-1.08,2.92v9.6h-6.4Z"/><path d="M553.89,523H540.58a4.52,4.52,0,0,0,1.12,3,3.6,3.6,0,0,0,2.64.88,5,5,0,0,0,2.08-.48,3,3,0,0,0,1.12-1.2h6.11a8,8,0,0,1-2.15,3.68c-1.32,1.28-3.4,2.48-7.28,2.48a10.14,10.14,0,0,1-7.4-2.72,9.36,9.36,0,0,1-2.64-6.76,9.54,9.54,0,0,1,2.68-6.92,10.07,10.07,0,0,1,7.32-2.6,9.8,9.8,0,0,1,6.88,2.44,10,10,0,0,1,2.83,7.52ZM548,519.29a4.29,4.29,0,0,0-1-1.92,3.73,3.73,0,0,0-2.64-1,3.44,3.44,0,0,0-2.6,1,3.65,3.65,0,0,0-1,1.92Z"/><path d="M564.66,518.09v12.64h-6.4V518.09h-2v-5.24h2V507h6.4v5.88h3.64v5.24Z"/><path d="M589.65,523H576.34a4.52,4.52,0,0,0,1.12,3,3.6,3.6,0,0,0,2.64.88,5,5,0,0,0,2.08-.48,3,3,0,0,0,1.12-1.2h6.11a8,8,0,0,1-2.16,3.68c-1.31,1.28-3.39,2.48-7.27,2.48a10.14,10.14,0,0,1-7.4-2.72,9.36,9.36,0,0,1-2.64-6.76,9.54,9.54,0,0,1,2.68-6.92,10.07,10.07,0,0,1,7.32-2.6,9.76,9.76,0,0,1,6.87,2.44,10,10,0,0,1,2.84,7.52Zm-5.87-3.68a4.29,4.29,0,0,0-1-1.92,3.73,3.73,0,0,0-2.64-1,3.44,3.44,0,0,0-2.6,1,3.65,3.65,0,0,0-1,1.92Z"/><path d="M790,456.05a8.62,8.62,0,0,1,6.52,2.36,8.78,8.78,0,0,1,2.28,6,7.7,7.7,0,0,1-2.12,5.56,7.47,7.47,0,0,1-3.68,1.84l8.36,10.92h-8.6l-6.64-10.24v10.24H779.2V456.05Zm-3.88,12h1.32a5.2,5.2,0,0,0,3.36-1.08,3.32,3.32,0,0,0,.88-2.24,3.15,3.15,0,0,0-.92-2.24,4.7,4.7,0,0,0-3.32-1h-1.32Z"/><path d="M822.64,475H809.32a4.52,4.52,0,0,0,1.12,3,3.6,3.6,0,0,0,2.64.88,5,5,0,0,0,2.08-.48,3,3,0,0,0,1.12-1.2h6.12a8,8,0,0,1-2.16,3.68c-1.32,1.28-3.4,2.48-7.28,2.48a10.14,10.14,0,0,1-7.4-2.72,9.36,9.36,0,0,1-2.64-6.76,9.54,9.54,0,0,1,2.68-6.92,10.07,10.07,0,0,1,7.32-2.6,9.8,9.8,0,0,1,6.88,2.44,10,10,0,0,1,2.84,7.52Zm-5.88-3.68a4.29,4.29,0,0,0-1-1.92,3.73,3.73,0,0,0-2.64-1,3.44,3.44,0,0,0-2.6,1,3.65,3.65,0,0,0-1,1.92Z"/><path d="M832.72,491.89h-6.4v-27h6.4v2a6.68,6.68,0,0,1,5.48-2.56,8.89,8.89,0,0,1,6.36,2.6,10.15,10.15,0,0,1-.16,14,8.59,8.59,0,0,1-6.12,2.48,7.61,7.61,0,0,1-5.56-2.32Zm1-21a4.36,4.36,0,0,0-1.24,3,4.32,4.32,0,0,0,1.24,2.84,4.09,4.09,0,0,0,2.88,1.2,3.86,3.86,0,0,0,2.84-1.2,4.23,4.23,0,0,0,1.24-2.84,4.36,4.36,0,0,0-1.24-3,3.86,3.86,0,0,0-2.84-1.2A4.09,4.09,0,0,0,833.76,470.89Z"/><path d="M869,480.37a12.24,12.24,0,0,1-16,0,9.22,9.22,0,0,1,0-13.16,11.16,11.16,0,0,1,8-3,11.3,11.3,0,0,1,8,3,9.22,9.22,0,0,1,0,13.16Zm-10.84-9.52a4.08,4.08,0,0,0,2.88,7,4.07,4.07,0,0,0,2.84-1.2,3.94,3.94,0,0,0,1.24-2.84,4.34,4.34,0,0,0-1.24-2.92,4.11,4.11,0,0,0-5.72,0Z"/><path d="M876.56,476.81a9.16,9.16,0,0,0,2.56,1.32,8.33,8.33,0,0,0,2.48.44,2.71,2.71,0,0,0,1.64-.48,1,1,0,0,0,.32-.84,1,1,0,0,0-.32-.8,4,4,0,0,0-1.68-.64l-1.68-.4a5.75,5.75,0,0,1-3.12-1.56,4.32,4.32,0,0,1-1.16-3.08,6.39,6.39,0,0,1,1.68-4.36c1.36-1.4,3.76-2.16,6.4-2.16a14.76,14.76,0,0,1,5.72,1.16l-2.16,4.08a8.86,8.86,0,0,0-3.36-.88,2.7,2.7,0,0,0-1.48.36,1,1,0,0,0-.56.88,1,1,0,0,0,.76,1c.6.24,1.12.24,2.12.52l1.16.32a7.56,7.56,0,0,1,2.64,1.4,5.06,5.06,0,0,1,1.36,3.56,6,6,0,0,1-1.8,4.44c-2.08,2.08-5.12,2.24-6.6,2.24a13.19,13.19,0,0,1-7.2-2.08Z"/><path d="M896.36,453.81a3.6,3.6,0,1,1-3.6,3.6A3.59,3.59,0,0,1,896.36,453.81Zm3.2,11v17.88h-6.4V464.85Z"/><path d="M911,470.09v12.64h-6.4V470.09h-2v-5.24h2V459H911v5.88h3.64v5.24Z"/><path d="M935,480.37a12.24,12.24,0,0,1-16,0,9.22,9.22,0,0,1,0-13.16,11.16,11.16,0,0,1,8-3,11.3,11.3,0,0,1,8,3,9.22,9.22,0,0,1,0,13.16Zm-10.84-9.52a4.08,4.08,0,0,0,2.88,7,4.07,4.07,0,0,0,2.84-1.2,3.94,3.94,0,0,0,1.24-2.84,4.34,4.34,0,0,0-1.24-2.92,4.11,4.11,0,0,0-5.72,0Z"/><path d="M941.48,464.85h6.4v2.92a5.77,5.77,0,0,1,2.52-2.48,7,7,0,0,1,3.32-.72c.16,0,.44,0,1.28.08v6a5.65,5.65,0,0,0-2.76-.64,4.19,4.19,0,0,0-2.92,1,5.4,5.4,0,0,0-1.44,4.08v7.64h-6.4Z"/><path d="M965.28,480.29l-8.64-15.44h7.44l4.76,9.16,4.64-9.16h7.32l-14.36,27h-7.16Z"/><path d="M1128.05,54.73l4.52-26.68h6.84l5.4,14.24,5.72-14.24h6.92l4,26.68h-6.92l-2-15.36-6.44,15.36h-2.76l-6.16-15.36-2.28,15.36Z"/><path d="M1184.21,47h-13.32a4.52,4.52,0,0,0,1.12,3,3.6,3.6,0,0,0,2.64.88,5,5,0,0,0,2.08-.48,3,3,0,0,0,1.12-1.2H1184a8,8,0,0,1-2.16,3.68c-1.32,1.28-3.4,2.48-7.28,2.48a10.14,10.14,0,0,1-7.4-2.72,9.36,9.36,0,0,1-2.64-6.76,9.54,9.54,0,0,1,2.68-6.92,10.07,10.07,0,0,1,7.32-2.6,9.8,9.8,0,0,1,6.88,2.44,10,10,0,0,1,2.84,7.52Zm-5.88-3.68a4.29,4.29,0,0,0-1-1.92,3.73,3.73,0,0,0-2.64-1,3.44,3.44,0,0,0-2.6,1,3.65,3.65,0,0,0-1,1.92Z"/><path d="M1195,42.09V54.73h-6.4V42.09h-2V36.85h2V31h6.4v5.88h3.64v5.24Z"/><path d="M1214.85,36.85h6.4V54.73h-6.4v-2a6.68,6.68,0,0,1-5.56,2.56,8.56,8.56,0,0,1-6.44-2.84,9,9,0,0,1-2.56-6.56,9.89,9.89,0,0,1,2.76-7.16,9.2,9.2,0,0,1,6.44-2.52,7.08,7.08,0,0,1,5.36,2.32Zm-6.72,6a4.18,4.18,0,0,0-1.28,2.92,4.12,4.12,0,0,0,1.24,2.92,4.49,4.49,0,0,0,2.88,1.2,4.1,4.1,0,0,0,2.88-1.24,3.88,3.88,0,0,0,1.2-2.88,4,4,0,0,0-1.24-2.92,4.06,4.06,0,0,0-5.68,0Z"/><path d="M1245.89,54.73h-6.4v-2a6.56,6.56,0,0,1-5.4,2.56,8.56,8.56,0,0,1-6.28-2.48,9.86,9.86,0,0,1-2.88-7.12,9.74,9.74,0,0,1,2.92-7.08,9.14,9.14,0,0,1,6.32-2.4,7.07,7.07,0,0,1,5.32,2.32v-13h6.4Zm-7.56-5.92a4.29,4.29,0,0,0,1.36-3,4.68,4.68,0,0,0-1.2-2.88,4.1,4.1,0,0,0-5.76,0,4.39,4.39,0,0,0-1.24,3,4,4,0,0,0,1.24,2.8,4,4,0,0,0,2.84,1.2A4.37,4.37,0,0,0,1238.33,48.81Z"/><path d="M1264.13,36.85h6.4V54.73h-6.4v-2a6.68,6.68,0,0,1-5.56,2.56,8.56,8.56,0,0,1-6.44-2.84,9,9,0,0,1-2.56-6.56,9.89,9.89,0,0,1,2.76-7.16,9.2,9.2,0,0,1,6.44-2.52,7.08,7.08,0,0,1,5.36,2.32Zm-6.72,6a4.18,4.18,0,0,0-1.28,2.92,4.12,4.12,0,0,0,1.24,2.92,4.49,4.49,0,0,0,2.88,1.2,4.1,4.1,0,0,0,2.88-1.24,3.88,3.88,0,0,0,1.2-2.88,4,4,0,0,0-1.24-2.92,4.06,4.06,0,0,0-5.68,0Z"/><path d="M1282,42.09V54.73h-6.4V42.09h-2V36.85h2V31h6.4v5.88h3.64v5.24Z"/><path d="M1307,47h-13.32a4.52,4.52,0,0,0,1.12,3,3.6,3.6,0,0,0,2.64.88,5,5,0,0,0,2.08-.48,3,3,0,0,0,1.12-1.2h6.12a8,8,0,0,1-2.16,3.68c-1.32,1.28-3.4,2.48-7.28,2.48a10.14,10.14,0,0,1-7.4-2.72,9.36,9.36,0,0,1-2.64-6.76,9.54,9.54,0,0,1,2.68-6.92,10.07,10.07,0,0,1,7.32-2.6,9.8,9.8,0,0,1,6.88,2.44,10,10,0,0,1,2.84,7.52Zm-5.88-3.68a4.29,4.29,0,0,0-1-1.92,3.73,3.73,0,0,0-2.64-1,3.44,3.44,0,0,0-2.6,1,3.65,3.65,0,0,0-1,1.92Z"/><path d="M1153.35,652.89v8.84h-6.92V635.05h11a9.19,9.19,0,0,1,6.76,2.4,8.27,8.27,0,0,1,2.48,6.48,8.67,8.67,0,0,1-2.36,6.64,8.88,8.88,0,0,1-6.64,2.32Zm0-5.6h2.32a4.52,4.52,0,0,0,2.92-.84,3.05,3.05,0,0,0,.88-2.44,3.24,3.24,0,0,0-.8-2.4,4.07,4.07,0,0,0-3-1h-2.36Z"/><path d="M1183.15,643.85h6.4v17.88h-6.4v-2a6.68,6.68,0,0,1-5.56,2.56,8.56,8.56,0,0,1-6.44-2.84,9,9,0,0,1-2.56-6.56,9.89,9.89,0,0,1,2.76-7.16,9.2,9.2,0,0,1,6.44-2.52,7.08,7.08,0,0,1,5.36,2.32Zm-6.72,6a4.18,4.18,0,0,0-1.28,2.92,4.12,4.12,0,0,0,1.24,2.92,4.49,4.49,0,0,0,2.88,1.2,4.1,4.1,0,0,0,2.88-1.24,3.88,3.88,0,0,0,1.2-2.88,4,4,0,0,0-1.24-2.92,4.06,4.06,0,0,0-5.68,0Z"/><path d="M1207.47,661.33a9.49,9.49,0,0,1-4.44,1,9.88,9.88,0,0,1-7-2.72,9.36,9.36,0,0,1-2.76-6.68,9.74,9.74,0,0,1,2.88-6.92,10.31,10.31,0,0,1,7.2-2.72,9.17,9.17,0,0,1,4.16,1v5.36a5.7,5.7,0,0,0-3.32-1.16,4.19,4.19,0,0,0-3.12,1.24,4.35,4.35,0,0,0-1.24,3.08,4.59,4.59,0,0,0,1.12,3,4.34,4.34,0,0,0,3.28,1.36,4.84,4.84,0,0,0,3.28-1.2Z"/><path d="M1211.11,632.57h6.4v13.52a7.81,7.81,0,0,1,2-1.76,8.19,8.19,0,0,1,9,1c1.6,1.6,1.68,3.28,1.68,5v11.36h-6.4v-9c0-1.32-.08-2.68-.8-3.48a2.54,2.54,0,0,0-2-.76,3.43,3.43,0,0,0-2.32.76,3.89,3.89,0,0,0-1.08,2.92v9.6h-6.4Z"/><path d="M1252.67,654h-13.32a4.52,4.52,0,0,0,1.12,3,3.6,3.6,0,0,0,2.64.88,5,5,0,0,0,2.08-.48,3,3,0,0,0,1.12-1.2h6.12a8,8,0,0,1-2.16,3.68c-1.32,1.28-3.4,2.48-7.28,2.48a10.14,10.14,0,0,1-7.4-2.72,9.36,9.36,0,0,1-2.64-6.76,9.54,9.54,0,0,1,2.68-6.92,10.07,10.07,0,0,1,7.32-2.6,9.8,9.8,0,0,1,6.88,2.44,10,10,0,0,1,2.84,7.52Zm-5.88-3.68a4.29,4.29,0,0,0-1-1.92,3.73,3.73,0,0,0-2.64-1,3.44,3.44,0,0,0-2.6,1,3.65,3.65,0,0,0-1,1.92Z"/><path d="M1263.43,649.09v12.64H1257V649.09h-2v-5.24h2V638h6.4v5.88h3.64v5.24Z"/><path d="M1288.43,654h-13.32a4.52,4.52,0,0,0,1.12,3,3.6,3.6,0,0,0,2.64.88,5,5,0,0,0,2.08-.48,3,3,0,0,0,1.12-1.2h6.12a8,8,0,0,1-2.16,3.68c-1.32,1.28-3.4,2.48-7.28,2.48a10.14,10.14,0,0,1-7.4-2.72,9.36,9.36,0,0,1-2.64-6.76,9.54,9.54,0,0,1,2.68-6.92,10.07,10.07,0,0,1,7.32-2.6,9.8,9.8,0,0,1,6.88,2.44,10,10,0,0,1,2.84,7.52Zm-5.88-3.68a4.29,4.29,0,0,0-1-1.92,3.73,3.73,0,0,0-2.64-1,3.44,3.44,0,0,0-2.6,1,3.65,3.65,0,0,0-1,1.92Z"/><path d="M1508.36,703.73V677.05h9.08c2.68,0,7.16.36,10.6,3.68a13,13,0,0,1,3.72,9.72,12.3,12.3,0,0,1-3.48,9.24,14.49,14.49,0,0,1-10.24,4Zm6.92-5.88h1.4a8,8,0,0,0,5.84-1.92,7.27,7.27,0,0,0,2-5.48,8,8,0,0,0-2.08-5.84,7.77,7.77,0,0,0-5.52-1.68h-1.68Z"/><path d="M1554.52,696H1541.2a4.52,4.52,0,0,0,1.12,3,3.6,3.6,0,0,0,2.64.88,5,5,0,0,0,2.08-.48,3,3,0,0,0,1.12-1.2h6.12a8,8,0,0,1-2.16,3.68c-1.32,1.28-3.4,2.48-7.28,2.48a10.14,10.14,0,0,1-7.4-2.72,9.36,9.36,0,0,1-2.64-6.76,9.54,9.54,0,0,1,2.68-6.92,10.07,10.07,0,0,1,7.32-2.6,9.8,9.8,0,0,1,6.88,2.44,10,10,0,0,1,2.84,7.52Zm-5.88-3.68a4.29,4.29,0,0,0-1-1.92,3.73,3.73,0,0,0-2.64-1,3.44,3.44,0,0,0-2.6,1,3.65,3.65,0,0,0-1,1.92Z"/><path d="M1564.6,712.89h-6.4v-27h6.4v2a6.68,6.68,0,0,1,5.48-2.56,8.89,8.89,0,0,1,6.36,2.6,10.15,10.15,0,0,1-.16,14,8.59,8.59,0,0,1-6.12,2.48,7.61,7.61,0,0,1-5.56-2.32Zm1-21a4.36,4.36,0,0,0-1.24,3,4.32,4.32,0,0,0,1.24,2.84,4.09,4.09,0,0,0,2.88,1.2,3.86,3.86,0,0,0,2.84-1.2,4.23,4.23,0,0,0,1.24-2.84,4.36,4.36,0,0,0-1.24-3,3.86,3.86,0,0,0-2.84-1.2A4.09,4.09,0,0,0,1565.64,691.89Z"/><path d="M1601.8,696h-13.32a4.52,4.52,0,0,0,1.12,3,3.6,3.6,0,0,0,2.64.88,5,5,0,0,0,2.08-.48,3,3,0,0,0,1.12-1.2h6.12a8,8,0,0,1-2.16,3.68c-1.32,1.28-3.4,2.48-7.28,2.48a10.14,10.14,0,0,1-7.4-2.72,9.36,9.36,0,0,1-2.64-6.76,9.54,9.54,0,0,1,2.68-6.92,10.07,10.07,0,0,1,7.32-2.6,9.8,9.8,0,0,1,6.88,2.44,10,10,0,0,1,2.84,7.52Zm-5.88-3.68a4.29,4.29,0,0,0-1-1.92,3.73,3.73,0,0,0-2.64-1,3.44,3.44,0,0,0-2.6,1,3.65,3.65,0,0,0-1,1.92Z"/><path d="M1605.48,685.85h6.4v2.24a6.74,6.74,0,0,1,5.68-2.64,7.23,7.23,0,0,1,5.28,1.92c1.52,1.52,1.68,3,1.68,5v11.36h-6.4v-9c0-1,0-2.6-.8-3.48a2.68,2.68,0,0,0-2-.76,3.5,3.5,0,0,0-2.36.84,4.11,4.11,0,0,0-1,2.84v9.6h-6.4Z"/><path d="M1649.12,703.73h-6.4v-2a6.56,6.56,0,0,1-5.4,2.56,8.56,8.56,0,0,1-6.28-2.48,9.86,9.86,0,0,1-2.88-7.12,9.74,9.74,0,0,1,2.92-7.08,9.14,9.14,0,0,1,6.32-2.4,7.07,7.07,0,0,1,5.32,2.32v-13h6.4Zm-7.56-5.92a4.29,4.29,0,0,0,1.36-3,4.68,4.68,0,0,0-1.2-2.88,4.1,4.1,0,0,0-5.76,0,4.39,4.39,0,0,0-1.24,3,4,4,0,0,0,1.24,2.8,4,4,0,0,0,2.84,1.2A4.37,4.37,0,0,0,1641.56,697.81Z"/><path d="M1672.48,696h-13.32a4.52,4.52,0,0,0,1.12,3,3.6,3.6,0,0,0,2.64.88,5,5,0,0,0,2.08-.48,3,3,0,0,0,1.12-1.2h6.12a8,8,0,0,1-2.16,3.68c-1.32,1.28-3.4,2.48-7.28,2.48a10.14,10.14,0,0,1-7.4-2.72,9.36,9.36,0,0,1-2.64-6.76,9.54,9.54,0,0,1,2.68-6.92,10.07,10.07,0,0,1,7.32-2.6,9.8,9.8,0,0,1,6.88,2.44,10,10,0,0,1,2.84,7.52Zm-5.88-3.68a4.29,4.29,0,0,0-1-1.92,3.73,3.73,0,0,0-2.64-1,3.44,3.44,0,0,0-2.6,1,3.65,3.65,0,0,0-1,1.92Z"/><path d="M1676.16,685.85h6.4v2.24a6.74,6.74,0,0,1,5.68-2.64,7.23,7.23,0,0,1,5.28,1.92c1.52,1.52,1.68,3,1.68,5v11.36h-6.4v-9c0-1,0-2.6-.8-3.48a2.68,2.68,0,0,0-2-.76,3.5,3.5,0,0,0-2.36.84,4.11,4.11,0,0,0-1,2.84v9.6h-6.4Z"/><path d="M1706.64,691.09v12.64h-6.4V691.09h-2v-5.24h2V680h6.4v5.88h3.64v5.24Zm-6.16,14.64,6,.64-4.08,7.36-4-.48Z"/><path d="M1731.64,696h-13.32a4.52,4.52,0,0,0,1.12,3,3.6,3.6,0,0,0,2.64.88,5,5,0,0,0,2.08-.48,3,3,0,0,0,1.12-1.2h6.12a8,8,0,0,1-2.16,3.68c-1.32,1.28-3.4,2.48-7.28,2.48a10.14,10.14,0,0,1-7.4-2.72,9.36,9.36,0,0,1-2.64-6.76,9.54,9.54,0,0,1,2.68-6.92,10.07,10.07,0,0,1,7.32-2.6,9.8,9.8,0,0,1,6.88,2.44,10,10,0,0,1,2.84,7.52Zm-5.88-3.68a4.29,4.29,0,0,0-1-1.92,3.73,3.73,0,0,0-2.64-1,3.44,3.44,0,0,0-2.6,1,3.65,3.65,0,0,0-1,1.92Z"/><path d="M1554.22,760.89h-6.4v-27h6.4v2a6.68,6.68,0,0,1,5.48-2.56,8.89,8.89,0,0,1,6.36,2.6,10.15,10.15,0,0,1-.16,14,8.59,8.59,0,0,1-6.12,2.48,7.61,7.61,0,0,1-5.56-2.32Zm1-21a4.36,4.36,0,0,0-1.24,3,4.32,4.32,0,0,0,1.24,2.84,4.09,4.09,0,0,0,2.88,1.2,3.86,3.86,0,0,0,2.84-1.2,4.23,4.23,0,0,0,1.24-2.84,4.36,4.36,0,0,0-1.24-3,3.86,3.86,0,0,0-2.84-1.2A4.09,4.09,0,0,0,1555.26,739.89Z"/><path d="M1586.3,733.85h6.4v17.88h-6.4v-2a6.68,6.68,0,0,1-5.56,2.56,8.56,8.56,0,0,1-6.44-2.84,9,9,0,0,1-2.56-6.56,9.89,9.89,0,0,1,2.76-7.16,9.2,9.2,0,0,1,6.44-2.52,7.08,7.08,0,0,1,5.36,2.32Zm-6.72,6a4.18,4.18,0,0,0-1.28,2.92,4.12,4.12,0,0,0,1.24,2.92,4.49,4.49,0,0,0,2.88,1.2,4.1,4.1,0,0,0,2.88-1.24,3.88,3.88,0,0,0,1.2-2.88,4,4,0,0,0-1.24-2.92,4.06,4.06,0,0,0-5.68,0Z"/><path d="M1610.62,751.33a9.49,9.49,0,0,1-4.44,1,9.88,9.88,0,0,1-7-2.72,9.36,9.36,0,0,1-2.76-6.68,9.74,9.74,0,0,1,2.88-6.92,10.31,10.31,0,0,1,7.2-2.72,9.17,9.17,0,0,1,4.16,1v5.36a5.7,5.7,0,0,0-3.32-1.16,4.19,4.19,0,0,0-3.12,1.24,4.35,4.35,0,0,0-1.24,3.08,4.59,4.59,0,0,0,1.12,3,4.34,4.34,0,0,0,3.28,1.36,4.84,4.84,0,0,0,3.28-1.2Z"/><path d="M1614.26,722.57h6.4v13.52a7.81,7.81,0,0,1,2-1.76,8.19,8.19,0,0,1,9,1c1.6,1.6,1.68,3.28,1.68,5v11.36h-6.4v-9c0-1.32-.08-2.68-.8-3.48a2.54,2.54,0,0,0-2-.76,3.43,3.43,0,0,0-2.32.76,3.89,3.89,0,0,0-1.08,2.92v9.6h-6.4Z"/><path d="M1655.82,744H1642.5a4.52,4.52,0,0,0,1.12,3,3.6,3.6,0,0,0,2.64.88,5,5,0,0,0,2.08-.48,3,3,0,0,0,1.12-1.2h6.12a8,8,0,0,1-2.16,3.68c-1.32,1.28-3.4,2.48-7.28,2.48a10.14,10.14,0,0,1-7.4-2.72,9.36,9.36,0,0,1-2.64-6.76,9.54,9.54,0,0,1,2.68-6.92,10.07,10.07,0,0,1,7.32-2.6,9.8,9.8,0,0,1,6.88,2.44,10,10,0,0,1,2.84,7.52Zm-5.88-3.68a4.29,4.29,0,0,0-1-1.92,3.73,3.73,0,0,0-2.64-1,3.44,3.44,0,0,0-2.6,1,3.65,3.65,0,0,0-1,1.92Z"/><path d="M1666.58,739.09v12.64h-6.4V739.09h-2v-5.24h2V728h6.4v5.88h3.64v5.24Z"/><path d="M1691.58,744h-13.32a4.52,4.52,0,0,0,1.12,3,3.6,3.6,0,0,0,2.64.88,5,5,0,0,0,2.08-.48,3,3,0,0,0,1.12-1.2h6.12a8,8,0,0,1-2.16,3.68c-1.32,1.28-3.4,2.48-7.28,2.48a10.14,10.14,0,0,1-7.4-2.72,9.36,9.36,0,0,1-2.64-6.76,9.54,9.54,0,0,1,2.68-6.92,10.07,10.07,0,0,1,7.32-2.6,9.8,9.8,0,0,1,6.88,2.44,10,10,0,0,1,2.84,7.52Zm-5.88-3.68a4.29,4.29,0,0,0-1-1.92,3.73,3.73,0,0,0-2.64-1,3.44,3.44,0,0,0-2.6,1,3.65,3.65,0,0,0-1,1.92Z"/><path d="M1220.66,146.61a13,13,0,1,0,13,13A13,13,0,0,0,1220.66,146.61Z" style="fill:none;stroke:#3a5c84;stroke-miterlimit:10;stroke-width:6.71554560391629px"/><path d="M1250.44,154.05a1.86,1.86,0,0,0-1.86-1.86h-4.92a25,25,0,0,0-1.47-3.55l3.47-3.48a1.85,1.85,0,0,0,0-2.63l-7.89-7.9a1.87,1.87,0,0,0-2.63,0l-3.48,3.48a23.91,23.91,0,0,0-3.55-1.47v-4.92a1.86,1.86,0,0,0-1.86-1.86h-11.17a1.86,1.86,0,0,0-1.86,1.86v4.92a23.91,23.91,0,0,0-3.55,1.47l-3.48-3.48a1.87,1.87,0,0,0-2.63,0l-7.89,7.9a1.85,1.85,0,0,0,0,2.63l3.47,3.48-.45.91a24.81,24.81,0,0,0-1,2.64h-4.92a1.86,1.86,0,0,0-1.86,1.86v11.17a1.87,1.87,0,0,0,1.86,1.86h4.92a25,25,0,0,0,1.47,3.55l-3.47,3.48a1.85,1.85,0,0,0,0,2.63l7.89,7.89a1.85,1.85,0,0,0,2.63,0l3.48-3.47a25,25,0,0,0,3.55,1.47v4.91a1.87,1.87,0,0,0,1.86,1.87h11.17a1.87,1.87,0,0,0,1.86-1.87v-4.91a25,25,0,0,0,3.55-1.47l3.48,3.47a1.85,1.85,0,0,0,2.63,0l7.89-7.89a1.85,1.85,0,0,0,0-2.63l-3.47-3.48a25,25,0,0,0,1.47-3.55h4.92a1.87,1.87,0,0,0,1.86-1.86Z" style="fill:none;stroke:#3a5c84;stroke-miterlimit:10;stroke-width:6.71554560391629px"/><rect x="1153.06" y="84.53" width="128.94" height="128.94" rx="12" ry="12" style="fill:none;stroke:#3a5c84;stroke-miterlimit:10;stroke-width:6.71554560391629px"/><circle cx="1163.13" cy="95.95" r="4.03" style="fill:#3a5c84"/><circle cx="1175.89" cy="95.95" r="4.03" style="fill:#3a5c84"/><circle cx="1188.65" cy="95.95" r="4.03" style="fill:#3a5c84"/><line x1="1165.82" y1="109.38" x2="1251.78" y2="109.38" style="fill:none;stroke:#3a5c84;stroke-miterlimit:10;stroke-width:6.71554560391629px"/><line x1="1165.82" y1="118.11" x2="1185.3" y2="118.11" style="fill:none;stroke:#3a5c84;stroke-miterlimit:10;stroke-width:6.71554560391629px"/><line x1="1165.82" y1="126.17" x2="1185.3" y2="126.17" style="fill:none;stroke:#3a5c84;stroke-miterlimit:10;stroke-width:6.71554560391629px"/><line x1="1250.44" y1="202.72" x2="1269.91" y2="202.72" style="fill:none;stroke:#3a5c84;stroke-miterlimit:10;stroke-width:6.71554560391629px"/><path d="M502,325.66a4.53,4.53,0,0,1-1.23,3.34.31.31,0,0,0-.05.31l1.5,3.13a.24.24,0,0,0,.27.16,4.53,4.53,0,0,1,4.86,4.38.3.3,0,0,0,.18.26l3.26,1.15h.07a.24.24,0,0,0,.26-.1,4.07,4.07,0,0,1,.68-.63l0,0,.33-.22.27-.15.13-.07a4.51,4.51,0,0,1,5.08.78.24.24,0,0,0,.31,0l3.13-1.49h0a.26.26,0,0,0,.15-.27,4.56,4.56,0,0,1,1.16-3.36,4.63,4.63,0,0,1,1.74-1.19l.1,0,.17-.05.28-.08h0a4.15,4.15,0,0,1,.87-.12.28.28,0,0,0,.26-.19l1.16-3.26a.28.28,0,0,0-.09-.3,4.54,4.54,0,0,1-.33-6.54.29.29,0,0,0,0-.31l-1-2.15h0l-.47-1s0-.05-.07-.08h0s0,0,0,0a.23.23,0,0,0-.11,0h0a4.53,4.53,0,0,1-4.86-4.38.29.29,0,0,0-.19-.26l-3.26-1.15a.24.24,0,0,0-.31.07h0a4.42,4.42,0,0,1-1,.89l-.08,0-.3.17a4.51,4.51,0,0,1-1.76.46,4.57,4.57,0,0,1-3.34-1.23.27.27,0,0,0-.31-.05l-3.13,1.49a.3.3,0,0,0-.16.27,4.52,4.52,0,0,1-4.38,4.86.26.26,0,0,0-.26.19l-.8,2.26h0l-.36,1a.28.28,0,0,0,.08.3A4.55,4.55,0,0,1,502,325.66Zm7.1-5.53.05,0,.31-.26.22-.18.1-.07a6.73,6.73,0,1,1,6.74,11.59,5.25,5.25,0,0,1-.55.22h0a6.74,6.74,0,0,1-6.85-11.27Z" style="fill:#3a5c84"/><path d="M517.63,350.14a5.84,5.84,0,0,1-1.57,4.29.38.38,0,0,0-.07.41l1.92,4a.31.31,0,0,0,.35.21,5.82,5.82,0,0,1,6.24,5.63.39.39,0,0,0,.24.33l4.19,1.48H529a.3.3,0,0,0,.33-.12,6.2,6.2,0,0,1,.88-.82l0,0c.14-.11.28-.2.42-.29l.35-.19.16-.09a5.8,5.8,0,0,1,6.53,1,.32.32,0,0,0,.4.06l4-1.91h0a.36.36,0,0,0,.2-.35,5.88,5.88,0,0,1,1.49-4.32,5.8,5.8,0,0,1,2.23-1.52l.13-.05.22-.07.36-.11h.06a6.86,6.86,0,0,1,1.12-.15.35.35,0,0,0,.33-.24l1.49-4.19a.36.36,0,0,0-.11-.39,5.82,5.82,0,0,1-.43-8.4.33.33,0,0,0,.06-.39L548,341.14h0l-.6-1.25a.27.27,0,0,0-.1-.11v0l-.06,0a.22.22,0,0,0-.13,0h0a5.83,5.83,0,0,1-6.24-5.63.35.35,0,0,0-.24-.33l-4.19-1.49a.33.33,0,0,0-.4.1h0a5.79,5.79,0,0,1-1.34,1.13l-.1.06a3.72,3.72,0,0,1-.39.21,5.7,5.7,0,0,1-2.26.59,5.85,5.85,0,0,1-4.29-1.57.37.37,0,0,0-.4-.07l-4,1.92a.36.36,0,0,0-.2.35,5.82,5.82,0,0,1-5.63,6.24.32.32,0,0,0-.33.24l-1,2.9h0l-.47,1.31a.37.37,0,0,0,.1.39A5.84,5.84,0,0,1,517.63,350.14Zm9.12-7.09.06-.05.4-.34.29-.23a.94.94,0,0,1,.12-.09,8.65,8.65,0,1,1,8.67,14.88,7.06,7.06,0,0,1-.71.29h0a8.65,8.65,0,0,1-8.8-14.47Z" style="fill:#3a5c84"/><path d="M523.93,311.57a3.09,3.09,0,0,1-.83,2.28.2.2,0,0,0,0,.21l1,2.13c.06.12.13.12.19.11a3.1,3.1,0,0,1,3.31,3,.19.19,0,0,0,.13.18l2.22.79h0a.16.16,0,0,0,.18-.07,3.2,3.2,0,0,1,.47-.43l0,0,.22-.15.19-.1.08-.05a3.07,3.07,0,0,1,1.19-.3,3.11,3.11,0,0,1,2.28.83.15.15,0,0,0,.21,0l2.13-1h0a.17.17,0,0,0,.1-.18,3.13,3.13,0,0,1,.79-2.3,3.23,3.23,0,0,1,1.19-.81l.07,0,.11,0,.2-.06h0a2.89,2.89,0,0,1,.59-.08.21.21,0,0,0,.18-.13l.79-2.23a.19.19,0,0,0-.06-.2,3.09,3.09,0,0,1-.23-4.46.18.18,0,0,0,0-.21l-.69-1.47h0l-.32-.67s0,0,0-.06h0l0,0s0,0-.07,0h0a3.1,3.1,0,0,1-3.31-3,.17.17,0,0,0-.13-.17l-2.22-.79a.16.16,0,0,0-.21.05h0a3.38,3.38,0,0,1-.71.6l-.05,0-.21.11a2.78,2.78,0,0,1-1.2.31,3.09,3.09,0,0,1-2.28-.83.18.18,0,0,0-.21,0l-2.13,1a.21.21,0,0,0-.11.19,3.11,3.11,0,0,1-.79,2.29,3,3,0,0,1-2.2,1,.18.18,0,0,0-.17.13l-.55,1.54h0l-.25.69a.2.2,0,0,0,.06.21A3.12,3.12,0,0,1,523.93,311.57Zm4.85-3.77,0,0,.21-.18.15-.13.07,0a4.59,4.59,0,1,1,4.6,7.9c-.13.05-.25.11-.38.15h0a4.6,4.6,0,0,1-4.67-7.69Z" style="fill:#3a5c84"/><path d="M497.22,399.51l-64.83-11.57a11,11,0,0,1-11-11V279.69a11,11,0,0,1,11-11l64.83-16.21a11,11,0,0,1,11,11v125A11,11,0,0,1,497.22,399.51Z" style="fill:#eb6a38"/><rect x="482.75" y="266.96" width="75.25" height="118.08" rx="7" ry="7" style="fill:none;stroke:#eb6a38;stroke-miterlimit:10;stroke-width:8.10366196916839px"/><rect x="51.13" y="268.4" width="148" height="89.21" rx="12" ry="12" style="fill:none;stroke:#f7931f;stroke-miterlimit:10;stroke-width:5px"/><rect x="101.3" y="357.1" width="47.64" height="16.22" rx="4.38" ry="4.38" style="fill:#f7931f"/><rect x="70.39" y="371.8" width="109.48" height="22.3" rx="6.03" ry="6.03" style="fill:none;stroke:#f7931f;stroke-miterlimit:10;stroke-width:5px"/><circle cx="82.55" cy="379.91" r="2.03" style="fill:#f7931f"/><circle cx="88.37" cy="379.91" r="2.03" style="fill:#f7931f"/><circle cx="82.55" cy="385.99" r="2.03" style="fill:#f7931f"/><circle cx="88.37" cy="385.99" r="2.03" style="fill:#f7931f"/><rect x="141.34" y="380.92" width="31.42" height="3.04" rx="0.82" ry="0.82" style="fill:none;stroke:#f7931f;stroke-miterlimit:10;stroke-width:5px"/><path d="M1208.44,501.28l-7.74-24.58h-45.15c-7,0-12.69,8.29-12.69,18.43V570.4c0,10.14,5.71,18.44,12.69,18.44h123.76c7,0,12.69-8.3,12.69-18.44V501.28Z" style="fill:none;stroke:#91c54f;stroke-miterlimit:10;stroke-width:7.62852711588225px"/><line x1="1232.16" y1="551.04" x2="1252.25" y2="551.04" style="fill:none;stroke:#91c54f;stroke-miterlimit:10;stroke-width:7.62852711588225px"/><line x1="1232.16" y1="560.56" x2="1280.81" y2="560.56" style="fill:none;stroke:#91c54f;stroke-miterlimit:10;stroke-width:7.62852711588225px"/><line x1="1232.16" y1="570.08" x2="1279.76" y2="570.08" style="fill:none;stroke:#91c54f;stroke-miterlimit:10;stroke-width:7.62852711588225px"/><path d="M948.72,321.92C948.33,292,924,267,894,267a57.43,57.43,0,0,0-46.93,25.2,27.48,27.48,0,0,0-42.68,22.9c0,.52.05,1,.08,1.56s-.08,1.25-.08,1.87c-13.7,6.57-24,22.19-24,38.33a40.81,40.81,0,0,0,40.69,40.69h84.2c.47,0,.93-.05,1.4-.07s.93.07,1.41.07h33.67a38,38,0,0,0,37.89-37.89C979.63,341.16,966.25,325.22,948.72,321.92Z" style="fill:none;stroke:#7383bf;stroke-linecap:round;stroke-miterlimit:10;stroke-width:6.87114341474086px"/><path d="M948.72,321.92a66.22,66.22,0,0,0-17.19,0" style="fill:none;stroke:#7383bf;stroke-linecap:round;stroke-miterlimit:10;stroke-width:6.87114341474086px"/><path d="M804.42,315.05a27.49,27.49,0,1,1,55,0" style="fill:none;stroke:#7383bf;stroke-linecap:round;stroke-miterlimit:10;stroke-width:6.87114341474086px"/><rect x="1488.5" y="450.36" width="263" height="193" rx="12" ry="12" style="fill:none;stroke:#3a5c84;stroke-miterlimit:10;stroke-width:5px"/><line x1="1542.7" y1="523.3" x2="1575.03" y2="523.3" style="fill:none;stroke:#91c54f;stroke-miterlimit:10;stroke-width:3.49492311477661px"/><line x1="1542.7" y1="514.93" x2="1575.03" y2="514.93" style="fill:none;stroke:#91c54f;stroke-miterlimit:10;stroke-width:3.49492311477661px"/><line x1="1542.7" y1="506.57" x2="1575.03" y2="506.57" style="fill:none;stroke:#91c54f;stroke-miterlimit:10;stroke-width:3.49492311477661px"/><line x1="1542.7" y1="498.2" x2="1575.03" y2="498.2" style="fill:none;stroke:#91c54f;stroke-miterlimit:10;stroke-width:3.49492311477661px"/><line x1="1542.7" y1="489.84" x2="1556.04" y2="489.84" style="fill:none;stroke:#91c54f;stroke-miterlimit:10;stroke-width:3.49492311477661px"/><path d="M1573.34,486.83a4.52,4.52,0,0,1-4.51-4.51v-8.46h-28a4.52,4.52,0,0,0-4.51,4.51v47.37a4.52,4.52,0,0,0,4.51,4.51h36.09a4.52,4.52,0,0,0,4.51-4.51V486.83Z" style="fill:none;stroke:#91c54f;stroke-miterlimit:10;stroke-width:3.49492311477661px"/><line x1="1619.7" y1="510.3" x2="1652.03" y2="510.3" style="fill:none;stroke:#91c54f;stroke-miterlimit:10;stroke-width:3.49492311477661px"/><line x1="1619.7" y1="501.93" x2="1652.03" y2="501.93" style="fill:none;stroke:#91c54f;stroke-miterlimit:10;stroke-width:3.49492311477661px"/><line x1="1619.7" y1="493.57" x2="1652.03" y2="493.57" style="fill:none;stroke:#91c54f;stroke-miterlimit:10;stroke-width:3.49492311477661px"/><line x1="1619.7" y1="485.2" x2="1652.03" y2="485.2" style="fill:none;stroke:#91c54f;stroke-miterlimit:10;stroke-width:3.49492311477661px"/><line x1="1619.7" y1="476.84" x2="1633.04" y2="476.84" style="fill:none;stroke:#91c54f;stroke-miterlimit:10;stroke-width:3.49492311477661px"/><path d="M1650.34,473.83a4.52,4.52,0,0,1-4.51-4.51v-8.46h-28a4.52,4.52,0,0,0-4.51,4.51v47.37a4.52,4.52,0,0,0,4.51,4.51h36.09a4.52,4.52,0,0,0,4.51-4.51V473.83Z" style="fill:none;stroke:#91c54f;stroke-miterlimit:10;stroke-width:3.49492311477661px"/><line x1="1694.7" y1="549.3" x2="1727.03" y2="549.3" style="fill:none;stroke:#91c54f;stroke-miterlimit:10;stroke-width:3.49492311477661px"/><line x1="1694.7" y1="540.93" x2="1727.03" y2="540.93" style="fill:none;stroke:#91c54f;stroke-miterlimit:10;stroke-width:3.49492311477661px"/><line x1="1694.7" y1="532.57" x2="1727.03" y2="532.57" style="fill:none;stroke:#91c54f;stroke-miterlimit:10;stroke-width:3.49492311477661px"/><line x1="1694.7" y1="524.2" x2="1727.03" y2="524.2" style="fill:none;stroke:#91c54f;stroke-miterlimit:10;stroke-width:3.49492311477661px"/><line x1="1694.7" y1="515.84" x2="1708.04" y2="515.84" style="fill:none;stroke:#91c54f;stroke-miterlimit:10;stroke-width:3.49492311477661px"/><path d="M1725.34,512.83a4.52,4.52,0,0,1-4.51-4.51v-8.46h-28a4.52,4.52,0,0,0-4.51,4.51v47.37a4.52,4.52,0,0,0,4.51,4.51h36.09a4.52,4.52,0,0,0,4.51-4.51V512.83Z" style="fill:none;stroke:#91c54f;stroke-miterlimit:10;stroke-width:3.49492311477661px"/><line x1="1658.7" y1="613.3" x2="1691.03" y2="613.3" style="fill:none;stroke:#91c54f;stroke-miterlimit:10;stroke-width:3.49492311477661px"/><line x1="1658.7" y1="604.93" x2="1691.03" y2="604.93" style="fill:none;stroke:#91c54f;stroke-miterlimit:10;stroke-width:3.49492311477661px"/><line x1="1658.7" y1="596.57" x2="1691.03" y2="596.57" style="fill:none;stroke:#91c54f;stroke-miterlimit:10;stroke-width:3.49492311477661px"/><line x1="1658.7" y1="588.2" x2="1691.03" y2="588.2" style="fill:none;stroke:#91c54f;stroke-miterlimit:10;stroke-width:3.49492311477661px"/><line x1="1658.7" y1="579.84" x2="1672.04" y2="579.84" style="fill:none;stroke:#91c54f;stroke-miterlimit:10;stroke-width:3.49492311477661px"/><path d="M1689.34,576.83a4.52,4.52,0,0,1-4.51-4.51v-8.46h-28a4.52,4.52,0,0,0-4.51,4.51v47.37a4.52,4.52,0,0,0,4.51,4.51h36.09a4.52,4.52,0,0,0,4.51-4.51V576.83Z" style="fill:none;stroke:#91c54f;stroke-miterlimit:10;stroke-width:3.49492311477661px"/><line x1="1595.7" y1="620.3" x2="1628.03" y2="620.3" style="fill:none;stroke:#91c54f;stroke-miterlimit:10;stroke-width:3.49492311477661px"/><line x1="1595.7" y1="611.93" x2="1628.03" y2="611.93" style="fill:none;stroke:#91c54f;stroke-miterlimit:10;stroke-width:3.49492311477661px"/><line x1="1595.7" y1="603.57" x2="1628.03" y2="603.57" style="fill:none;stroke:#91c54f;stroke-miterlimit:10;stroke-width:3.49492311477661px"/><line x1="1595.7" y1="595.2" x2="1628.03" y2="595.2" style="fill:none;stroke:#91c54f;stroke-miterlimit:10;stroke-width:3.49492311477661px"/><line x1="1595.7" y1="586.84" x2="1609.04" y2="586.84" style="fill:none;stroke:#91c54f;stroke-miterlimit:10;stroke-width:3.49492311477661px"/><path d="M1626.34,583.83a4.52,4.52,0,0,1-4.51-4.51v-8.46h-28a4.52,4.52,0,0,0-4.51,4.51v47.37a4.52,4.52,0,0,0,4.51,4.51h36.09a4.52,4.52,0,0,0,4.51-4.51V583.83Z" style="fill:none;stroke:#91c54f;stroke-miterlimit:10;stroke-width:3.49492311477661px"/><line x1="1519.7" y1="603.3" x2="1552.03" y2="603.3" style="fill:none;stroke:#91c54f;stroke-miterlimit:10;stroke-width:3.49492311477661px"/><line x1="1519.7" y1="594.93" x2="1552.03" y2="594.93" style="fill:none;stroke:#91c54f;stroke-miterlimit:10;stroke-width:3.49492311477661px"/><line x1="1519.7" y1="586.57" x2="1552.03" y2="586.57" style="fill:none;stroke:#91c54f;stroke-miterlimit:10;stroke-width:3.49492311477661px"/><line x1="1519.7" y1="578.2" x2="1552.03" y2="578.2" style="fill:none;stroke:#91c54f;stroke-miterlimit:10;stroke-width:3.49492311477661px"/><line x1="1519.7" y1="569.84" x2="1533.04" y2="569.84" style="fill:none;stroke:#91c54f;stroke-miterlimit:10;stroke-width:3.49492311477661px"/><path d="M1550.34,566.83a4.52,4.52,0,0,1-4.51-4.51v-8.46h-28a4.52,4.52,0,0,0-4.51,4.51v47.37a4.52,4.52,0,0,0,4.51,4.51h36.09a4.52,4.52,0,0,0,4.51-4.51V566.83Z" style="fill:none;stroke:#91c54f;stroke-miterlimit:10;stroke-width:3.49492311477661px"/></svg>