<svg id="Layer_1" data-name="Layer 1" xmlns="http://www.w3.org/2000/svg" viewBox="0 0 1786 1209"><title>Diagrame Carte USO -Extras</title><polygon points="889.66 301.41 889.66 362.09 880.91 362.09 899.5 380.67 918.08 362.09 909.34 362.09 909.34 301.41 889.66 301.41" style="fill:none;stroke:#3a5c84;stroke-miterlimit:10;stroke-width:5px"/><polygon points="176.45 442.41 176.45 503.09 167.71 503.09 186.29 521.67 204.88 503.09 196.13 503.09 196.13 442.41 176.45 442.41" style="fill:none;stroke:#3a5c84;stroke-miterlimit:10;stroke-width:5px"/><polygon points="646.49 442.41 646.49 503.09 637.75 503.09 656.33 521.67 674.92 503.09 666.17 503.09 666.17 442.41 646.49 442.41" style="fill:none;stroke:#3a5c84;stroke-miterlimit:10;stroke-width:5px"/><polygon points="1123.83 442.41 1123.83 503.09 1115.08 503.09 1133.67 521.67 1152.25 503.09 1143.51 503.09 1143.51 442.41 1123.83 442.41" style="fill:none;stroke:#3a5c84;stroke-miterlimit:10;stroke-width:5px"/><polygon points="1601.16 438.41 1601.16 499.09 1592.41 499.09 1611 517.67 1629.59 499.09 1620.84 499.09 1620.84 438.41 1601.16 438.41" style="fill:none;stroke:#3a5c84;stroke-miterlimit:10;stroke-width:5px"/><path d="M853,44.57v8.84H846.1V26.73h11a9.19,9.19,0,0,1,6.76,2.4,8.27,8.27,0,0,1,2.48,6.48A8.67,8.67,0,0,1,864,42.25a8.88,8.88,0,0,1-6.64,2.32Zm0-5.6h2.32a4.52,4.52,0,0,0,2.92-.84,3.05,3.05,0,0,0,.88-2.44,3.24,3.24,0,0,0-.8-2.4,4.07,4.07,0,0,0-3-1H853Z"/><path d="M882.82,35.53h6.4V53.41h-6.4v-2A6.68,6.68,0,0,1,877.26,54a8.53,8.53,0,0,1-6.43-2.84,9,9,0,0,1-2.56-6.56A9.89,9.89,0,0,1,871,37.45a9.16,9.16,0,0,1,6.43-2.52,7.08,7.08,0,0,1,5.36,2.32Zm-6.72,6a4.18,4.18,0,0,0-1.28,2.92,4.12,4.12,0,0,0,1.24,2.92,4.49,4.49,0,0,0,2.88,1.2,4.1,4.1,0,0,0,2.88-1.24,3.88,3.88,0,0,0,1.2-2.88,4,4,0,0,0-1.24-2.92,4.06,4.06,0,0,0-5.68,0Z"/><path d="M907.14,53a9.49,9.49,0,0,1-4.44,1,9.85,9.85,0,0,1-7-2.72,9.36,9.36,0,0,1-2.76-6.68,9.74,9.74,0,0,1,2.88-6.92A10.27,10.27,0,0,1,903,35a9.17,9.17,0,0,1,4.16,1v5.36a5.7,5.7,0,0,0-3.32-1.16,4.19,4.19,0,0,0-3.12,1.24,4.35,4.35,0,0,0-1.24,3.08,4.59,4.59,0,0,0,1.12,3,4.34,4.34,0,0,0,3.28,1.36,4.84,4.84,0,0,0,3.28-1.2Z"/><path d="M910.79,24.25h6.39V37.77a7.81,7.81,0,0,1,2-1.76,8.19,8.19,0,0,1,9,1c1.6,1.6,1.68,3.28,1.68,5V53.41h-6.4v-9c0-1.32-.08-2.68-.8-3.48a2.54,2.54,0,0,0-2-.76,3.43,3.43,0,0,0-2.32.76,3.89,3.89,0,0,0-1.08,2.92v9.6h-6.39Z"/><path d="M952.34,45.65H939a4.52,4.52,0,0,0,1.12,3,3.6,3.6,0,0,0,2.64.88,5,5,0,0,0,2.08-.48,3,3,0,0,0,1.12-1.2h6.12a8,8,0,0,1-2.16,3.68c-1.32,1.28-3.4,2.48-7.28,2.48a10.14,10.14,0,0,1-7.4-2.72,9.36,9.36,0,0,1-2.63-6.76,9.54,9.54,0,0,1,2.67-6.92,10.07,10.07,0,0,1,7.32-2.6,9.8,9.8,0,0,1,6.88,2.44A10,10,0,0,1,952.34,45ZM946.46,42a4.29,4.29,0,0,0-1-1.92,3.73,3.73,0,0,0-2.64-1,3.44,3.44,0,0,0-2.6,1,3.65,3.65,0,0,0-1,1.92Z"/><path d="M963.1,40.77V53.41h-6.4V40.77h-2V35.53h2V29.65h6.4v5.88h3.64v5.24Z"/><path d="M137.14,1098.93h-8.36v4.44h7.6v5.88h-7.6v10.48h-6.92v-26.68h15.28Z"/><path d="M143.46,1090.81a3.6,3.6,0,1,1-3.6,3.6A3.59,3.59,0,0,1,143.46,1090.81Zm3.2,11v17.88h-6.4v-17.88Z"/><path d="M152.18,1113.81a9.16,9.16,0,0,0,2.56,1.32,8.33,8.33,0,0,0,2.48.44,2.71,2.71,0,0,0,1.64-.48,1,1,0,0,0,.32-.84,1,1,0,0,0-.32-.8,4,4,0,0,0-1.68-.64l-1.68-.4a5.75,5.75,0,0,1-3.12-1.56,4.32,4.32,0,0,1-1.16-3.08,6.39,6.39,0,0,1,1.68-4.36c1.36-1.4,3.76-2.16,6.4-2.16a14.76,14.76,0,0,1,5.72,1.16l-2.16,4.08a8.86,8.86,0,0,0-3.36-.88,2.7,2.7,0,0,0-1.48.36,1,1,0,0,0-.56.88,1,1,0,0,0,.76,1c.6.24,1.12.24,2.12.52l1.16.32a7.56,7.56,0,0,1,2.64,1.4,5.06,5.06,0,0,1,1.36,3.56,6,6,0,0,1-1.8,4.44c-2.08,2.08-5.12,2.24-6.6,2.24a13.19,13.19,0,0,1-7.2-2.08Zm3.12,7.92,6,.64-4.08,7.36-4-.48Z"/><path d="M172,1090.81a3.6,3.6,0,1,1-3.6,3.6A3.59,3.59,0,0,1,172,1090.81Zm3.2,11v17.88h-6.4v-17.88Z"/><path d="M198.5,1112H185.18a4.52,4.52,0,0,0,1.12,3,3.6,3.6,0,0,0,2.64.88,5,5,0,0,0,2.08-.48,3,3,0,0,0,1.12-1.2h6.12a8,8,0,0,1-2.16,3.68c-1.32,1.28-3.4,2.48-7.28,2.48a10.14,10.14,0,0,1-7.4-2.72,9.36,9.36,0,0,1-2.64-6.76,9.54,9.54,0,0,1,2.68-6.92,10.07,10.07,0,0,1,7.32-2.6,9.8,9.8,0,0,1,6.88,2.44,10,10,0,0,1,2.84,7.52Zm-5.88-3.68a4.29,4.29,0,0,0-1-1.92,3.73,3.73,0,0,0-2.64-1,3.44,3.44,0,0,0-2.6,1,3.65,3.65,0,0,0-1,1.92Z"/><path d="M202.18,1101.85h6.4v2.92a5.77,5.77,0,0,1,2.52-2.48,7,7,0,0,1,3.32-.72c.16,0,.44,0,1.28.08v6a5.65,5.65,0,0,0-2.76-.64,4.19,4.19,0,0,0-2.92,1,5.4,5.4,0,0,0-1.44,4.08v7.64h-6.4Z"/><path d="M237.5,1112H224.18a4.52,4.52,0,0,0,1.12,3,3.6,3.6,0,0,0,2.64.88,5,5,0,0,0,2.08-.48,3,3,0,0,0,1.12-1.2h6.12a8,8,0,0,1-2.16,3.68c-1.32,1.28-3.4,2.48-7.28,2.48a10.14,10.14,0,0,1-7.4-2.72,9.36,9.36,0,0,1-2.64-6.76,9.54,9.54,0,0,1,2.68-6.92,10.07,10.07,0,0,1,7.32-2.6,9.8,9.8,0,0,1,6.88,2.44,10,10,0,0,1,2.84,7.52Zm-5.88-3.68a4.29,4.29,0,0,0-1-1.92,3.73,3.73,0,0,0-2.64-1,3.44,3.44,0,0,0-2.6,1,3.65,3.65,0,0,0-1,1.92Z"/><path d="M91.8,1160H78.48a4.52,4.52,0,0,0,1.12,3,3.6,3.6,0,0,0,2.64.88,5,5,0,0,0,2.08-.48,3,3,0,0,0,1.12-1.2h6.12a8,8,0,0,1-2.16,3.68c-1.32,1.28-3.4,2.48-7.28,2.48a10.14,10.14,0,0,1-7.4-2.72,9.36,9.36,0,0,1-2.64-6.76,9.54,9.54,0,0,1,2.68-6.92,10.07,10.07,0,0,1,7.32-2.6,9.8,9.8,0,0,1,6.88,2.44,10,10,0,0,1,2.84,7.52Zm-5.88-3.68a4.29,4.29,0,0,0-1-1.92,3.73,3.73,0,0,0-2.64-1,3.44,3.44,0,0,0-2.6,1,3.65,3.65,0,0,0-1,1.92Z"/><path d="M101.8,1158l-7.24-8.16h8.32l3.08,3.68,3.16-3.68h8.28L110,1158l9,9.72h-8.48l-4.56-5.32-4.56,5.32H92.88Z"/><path d="M138.6,1160H125.28a4.52,4.52,0,0,0,1.12,3,3.6,3.6,0,0,0,2.64.88,5,5,0,0,0,2.08-.48,3,3,0,0,0,1.12-1.2h6.12a8,8,0,0,1-2.16,3.68c-1.32,1.28-3.4,2.48-7.28,2.48a10.14,10.14,0,0,1-7.4-2.72,9.36,9.36,0,0,1-2.64-6.76,9.54,9.54,0,0,1,2.68-6.92,10.07,10.07,0,0,1,7.32-2.6,9.8,9.8,0,0,1,6.88,2.44,10,10,0,0,1,2.84,7.52Zm-5.88-3.68a4.29,4.29,0,0,0-1-1.92,3.73,3.73,0,0,0-2.64-1,3.44,3.44,0,0,0-2.6,1,3.65,3.65,0,0,0-1,1.92Z"/><path d="M155.8,1167.33a9.49,9.49,0,0,1-4.44,1,9.88,9.88,0,0,1-7-2.72,9.36,9.36,0,0,1-2.76-6.68,9.74,9.74,0,0,1,2.88-6.92,10.31,10.31,0,0,1,7.2-2.72,9.17,9.17,0,0,1,4.16,1v5.36a5.7,5.7,0,0,0-3.32-1.16,4.19,4.19,0,0,0-3.12,1.24,4.35,4.35,0,0,0-1.24,3.08,4.59,4.59,0,0,0,1.12,3,4.34,4.34,0,0,0,3.28,1.36,4.84,4.84,0,0,0,3.28-1.2Z"/><path d="M165.84,1149.85v10a3.43,3.43,0,0,0,1,2.6,3.31,3.31,0,0,0,2.24.68,3,3,0,0,0,2.28-.76,3.32,3.32,0,0,0,.92-2.52v-10h6.4V1161a6.14,6.14,0,0,1-1.72,4.8c-2.2,2.28-5.28,2.52-7.72,2.52-2.68,0-6-.28-8.08-2.56a6.43,6.43,0,0,1-1.68-4.76v-11.16Z"/><path d="M190.12,1155.09v12.64h-6.4v-12.64h-2v-5.24h2V1144h6.4v5.88h3.64v5.24Z"/><path d="M210,1149.85h6.4v17.88H210v-2a6.68,6.68,0,0,1-5.56,2.56,8.56,8.56,0,0,1-6.44-2.84,9,9,0,0,1-2.56-6.56,9.89,9.89,0,0,1,2.76-7.16,9.2,9.2,0,0,1,6.44-2.52,7.08,7.08,0,0,1,5.36,2.32Zm-6.72,6a4.18,4.18,0,0,0-1.28,2.92,4.12,4.12,0,0,0,1.24,2.92,4.49,4.49,0,0,0,2.88,1.2,4.1,4.1,0,0,0,2.88-1.24,3.88,3.88,0,0,0,1.2-2.88,4,4,0,0,0-1.24-2.92,4.06,4.06,0,0,0-5.68,0Z"/><path d="M227.2,1138.57v13a7.07,7.07,0,0,1,5.32-2.32,9.14,9.14,0,0,1,6.32,2.4,9.74,9.74,0,0,1,2.92,7.08,9.86,9.86,0,0,1-2.88,7.12,8.56,8.56,0,0,1-6.28,2.48,6.56,6.56,0,0,1-5.4-2.56v2h-6.4v-29.16Zm6.76,23.12a4,4,0,0,0,1.24-2.8,4.39,4.39,0,0,0-1.24-3,4.1,4.1,0,0,0-5.76,0,4.68,4.68,0,0,0-1.2,2.88,4.29,4.29,0,0,0,1.36,3,4.37,4.37,0,0,0,2.76,1.08A4,4,0,0,0,234,1161.69Z"/><path d="M248.64,1138.81a3.6,3.6,0,1,1-3.6,3.6A3.59,3.59,0,0,1,248.64,1138.81Zm3.2,11v17.88h-6.4v-17.88Z"/><path d="M262.6,1138.57v29.16h-6.4v-29.16Z"/><path d="M285.92,1160H272.6a4.52,4.52,0,0,0,1.12,3,3.6,3.6,0,0,0,2.64.88,5,5,0,0,0,2.08-.48,3,3,0,0,0,1.12-1.2h6.12a8,8,0,0,1-2.16,3.68c-1.32,1.28-3.4,2.48-7.28,2.48a10.14,10.14,0,0,1-7.4-2.72,9.36,9.36,0,0,1-2.64-6.76,9.54,9.54,0,0,1,2.68-6.92,10.07,10.07,0,0,1,7.32-2.6,9.8,9.8,0,0,1,6.88,2.44,10,10,0,0,1,2.84,7.52Zm-5.88-3.68a4.29,4.29,0,0,0-1-1.92,3.73,3.73,0,0,0-2.64-1,3.44,3.44,0,0,0-2.6,1,3.65,3.65,0,0,0-1,1.92Z"/><path d="M614.45,1098.93H606.1v4.44h7.59v5.88H606.1v10.48h-6.92v-26.68h15.27Z"/><path d="M620.78,1090.81a3.6,3.6,0,1,1-3.6,3.6A3.58,3.58,0,0,1,620.78,1090.81Zm3.19,11v17.88h-6.39v-17.88Z"/><path d="M629.5,1113.81a9.16,9.16,0,0,0,2.56,1.32,8.21,8.21,0,0,0,2.47.44,2.71,2.71,0,0,0,1.64-.48,1,1,0,0,0,.32-.84,1,1,0,0,0-.32-.8,4,4,0,0,0-1.68-.64l-1.68-.4a5.73,5.73,0,0,1-3.11-1.56,4.32,4.32,0,0,1-1.16-3.08,6.39,6.39,0,0,1,1.68-4.36c1.36-1.4,3.75-2.16,6.39-2.16a14.76,14.76,0,0,1,5.72,1.16l-2.16,4.08a8.86,8.86,0,0,0-3.36-.88,2.7,2.7,0,0,0-1.48.36,1,1,0,0,0-.56.88,1,1,0,0,0,.76,1c.6.24,1.12.24,2.12.52l1.16.32a7.56,7.56,0,0,1,2.64,1.4,5.06,5.06,0,0,1,1.36,3.56,6,6,0,0,1-1.8,4.44c-2.08,2.08-5.12,2.24-6.6,2.24a13.16,13.16,0,0,1-7.19-2.08Zm3.12,7.92,6,.64-4.08,7.36-4-.48Z"/><path d="M649.29,1090.81a3.6,3.6,0,1,1-3.59,3.6A3.59,3.59,0,0,1,649.29,1090.81Zm3.2,11v17.88H646.1v-17.88Z"/><path d="M675.81,1112H662.49a4.52,4.52,0,0,0,1.12,3,3.6,3.6,0,0,0,2.64.88,5,5,0,0,0,2.08-.48,3,3,0,0,0,1.12-1.2h6.12a8,8,0,0,1-2.16,3.68c-1.32,1.28-3.4,2.48-7.28,2.48a10.14,10.14,0,0,1-7.4-2.72,9.36,9.36,0,0,1-2.63-6.76,9.54,9.54,0,0,1,2.67-6.92,10.07,10.07,0,0,1,7.32-2.6,9.8,9.8,0,0,1,6.88,2.44,10,10,0,0,1,2.84,7.52Zm-5.88-3.68a4.29,4.29,0,0,0-1-1.92,3.73,3.73,0,0,0-2.64-1,3.44,3.44,0,0,0-2.6,1,3.65,3.65,0,0,0-1,1.92Z"/><path d="M679.49,1101.85h6.4v2.92a5.77,5.77,0,0,1,2.52-2.48,7,7,0,0,1,3.32-.72c.16,0,.44,0,1.28.08v6a5.65,5.65,0,0,0-2.76-.64,4.19,4.19,0,0,0-2.92,1,5.4,5.4,0,0,0-1.44,4.08v7.64h-6.4Z"/><path d="M714.81,1112H701.49a4.52,4.52,0,0,0,1.12,3,3.6,3.6,0,0,0,2.64.88,5,5,0,0,0,2.08-.48,3,3,0,0,0,1.12-1.2h6.12a8,8,0,0,1-2.16,3.68c-1.32,1.28-3.4,2.48-7.28,2.48a10.14,10.14,0,0,1-7.4-2.72,9.36,9.36,0,0,1-2.64-6.76,9.54,9.54,0,0,1,2.68-6.92,10.07,10.07,0,0,1,7.32-2.6,9.8,9.8,0,0,1,6.88,2.44,10,10,0,0,1,2.84,7.52Zm-5.88-3.68a4.29,4.29,0,0,0-1-1.92,3.73,3.73,0,0,0-2.64-1,3.44,3.44,0,0,0-2.6,1,3.65,3.65,0,0,0-1,1.92Z"/><path d="M608,1167.73h-6.4v-2a6.56,6.56,0,0,1-5.4,2.56,8.56,8.56,0,0,1-6.27-2.48,9.86,9.86,0,0,1-2.88-7.12,9.74,9.74,0,0,1,2.92-7.08,9.12,9.12,0,0,1,6.31-2.4,7.07,7.07,0,0,1,5.32,2.32v-13H608Zm-7.56-5.92a4.29,4.29,0,0,0,1.36-3,4.68,4.68,0,0,0-1.2-2.88,4.1,4.1,0,0,0-5.76,0,4.43,4.43,0,0,0-1.23,3,4,4,0,0,0,1.23,2.8,4,4,0,0,0,2.84,1.2A4.37,4.37,0,0,0,600.39,1161.81Z"/><path d="M631.31,1160H618a4.52,4.52,0,0,0,1.12,3,3.6,3.6,0,0,0,2.64.88,5,5,0,0,0,2.08-.48,3,3,0,0,0,1.12-1.2h6.12a8,8,0,0,1-2.16,3.68c-1.32,1.28-3.4,2.48-7.28,2.48a10.1,10.1,0,0,1-7.39-2.72,9.36,9.36,0,0,1-2.64-6.76,9.54,9.54,0,0,1,2.68-6.92,10,10,0,0,1,7.31-2.6,9.8,9.8,0,0,1,6.88,2.44,10,10,0,0,1,2.84,7.52Zm-5.88-3.68a4.29,4.29,0,0,0-1-1.92,3.73,3.73,0,0,0-2.64-1,3.44,3.44,0,0,0-2.6,1,3.65,3.65,0,0,0-1,1.92Z"/><path d="M664.55,1167.73h-6.4v-2a6.56,6.56,0,0,1-5.4,2.56,8.56,8.56,0,0,1-6.28-2.48,9.85,9.85,0,0,1-2.87-7.12,9.74,9.74,0,0,1,2.91-7.08,9.14,9.14,0,0,1,6.32-2.4,7.07,7.07,0,0,1,5.32,2.32v-13h6.4Zm-7.56-5.92a4.29,4.29,0,0,0,1.36-3,4.68,4.68,0,0,0-1.2-2.88,4.1,4.1,0,0,0-5.76,0,4.39,4.39,0,0,0-1.24,3,4,4,0,0,0,1.24,2.8,4,4,0,0,0,2.84,1.2A4.37,4.37,0,0,0,657,1161.81Z"/><path d="M682.79,1149.85h6.4v17.88h-6.4v-2a6.68,6.68,0,0,1-5.56,2.56,8.56,8.56,0,0,1-6.44-2.84,9,9,0,0,1-2.56-6.56,9.89,9.89,0,0,1,2.76-7.16,9.2,9.2,0,0,1,6.44-2.52,7.08,7.08,0,0,1,5.36,2.32Zm-6.72,6a4.18,4.18,0,0,0-1.28,2.92,4.12,4.12,0,0,0,1.24,2.92,4.49,4.49,0,0,0,2.88,1.2,4.1,4.1,0,0,0,2.88-1.24,3.88,3.88,0,0,0,1.2-2.88,4,4,0,0,0-1.24-2.92,4.06,4.06,0,0,0-5.68,0Z"/><path d="M700.67,1155.09v12.64h-6.4v-12.64h-2v-5.24h2V1144h6.4v5.88h3.64v5.24Z"/><path d="M725.67,1160H712.35a4.52,4.52,0,0,0,1.12,3,3.6,3.6,0,0,0,2.64.88,5,5,0,0,0,2.08-.48,3,3,0,0,0,1.12-1.2h6.12a8,8,0,0,1-2.16,3.68c-1.32,1.28-3.4,2.48-7.28,2.48a10.14,10.14,0,0,1-7.4-2.72,9.36,9.36,0,0,1-2.64-6.76,9.54,9.54,0,0,1,2.68-6.92,10.07,10.07,0,0,1,7.32-2.6,9.8,9.8,0,0,1,6.88,2.44,10,10,0,0,1,2.84,7.52Zm-5.88-3.68a4.29,4.29,0,0,0-1-1.92,3.73,3.73,0,0,0-2.64-1,3.44,3.44,0,0,0-2.6,1,3.65,3.65,0,0,0-1,1.92Z"/><path d="M1521.52,1119.73l4.52-26.68h6.84l5.4,14.24,5.72-14.24h6.92l4,26.68H1548l-2-15.36-6.44,15.36h-2.76l-6.16-15.36-2.28,15.36Z"/><path d="M1577.68,1112h-13.32a4.52,4.52,0,0,0,1.12,3,3.6,3.6,0,0,0,2.64.88,5,5,0,0,0,2.08-.48,3,3,0,0,0,1.12-1.2h6.12a8,8,0,0,1-2.16,3.68c-1.32,1.28-3.4,2.48-7.28,2.48a10.14,10.14,0,0,1-7.4-2.72,9.36,9.36,0,0,1-2.64-6.76,9.54,9.54,0,0,1,2.68-6.92,10.07,10.07,0,0,1,7.32-2.6,9.8,9.8,0,0,1,6.88,2.44,10,10,0,0,1,2.84,7.52Zm-5.88-3.68a4.29,4.29,0,0,0-1-1.92,3.73,3.73,0,0,0-2.64-1,3.44,3.44,0,0,0-2.6,1,3.65,3.65,0,0,0-1,1.92Z"/><path d="M1588.44,1107.09v12.64H1582v-12.64h-2v-5.24h2V1096h6.4v5.88h3.64v5.24Z"/><path d="M1608.32,1101.85h6.4v17.88h-6.4v-2a6.68,6.68,0,0,1-5.56,2.56,8.56,8.56,0,0,1-6.44-2.84,9,9,0,0,1-2.56-6.56,9.89,9.89,0,0,1,2.76-7.16,9.2,9.2,0,0,1,6.44-2.52,7.08,7.08,0,0,1,5.36,2.32Zm-6.72,6a4.18,4.18,0,0,0-1.28,2.92,4.12,4.12,0,0,0,1.24,2.92,4.49,4.49,0,0,0,2.88,1.2,4.1,4.1,0,0,0,2.88-1.24,3.88,3.88,0,0,0,1.2-2.88,4,4,0,0,0-1.24-2.92,4.06,4.06,0,0,0-5.68,0Z"/><path d="M1639.36,1119.73H1633v-2a6.56,6.56,0,0,1-5.4,2.56,8.56,8.56,0,0,1-6.28-2.48,9.86,9.86,0,0,1-2.88-7.12,9.74,9.74,0,0,1,2.92-7.08,9.14,9.14,0,0,1,6.32-2.4,7.07,7.07,0,0,1,5.32,2.32v-13h6.4Zm-7.56-5.92a4.29,4.29,0,0,0,1.36-3,4.68,4.68,0,0,0-1.2-2.88,4.1,4.1,0,0,0-5.76,0,4.39,4.39,0,0,0-1.24,3,4,4,0,0,0,1.24,2.8,4,4,0,0,0,2.84,1.2A4.37,4.37,0,0,0,1631.8,1113.81Z"/><path d="M1657.6,1101.85h6.4v17.88h-6.4v-2a6.68,6.68,0,0,1-5.56,2.56,8.56,8.56,0,0,1-6.44-2.84,9,9,0,0,1-2.56-6.56,9.89,9.89,0,0,1,2.76-7.16,9.2,9.2,0,0,1,6.44-2.52,7.08,7.08,0,0,1,5.36,2.32Zm-6.72,6a4.18,4.18,0,0,0-1.28,2.92,4.12,4.12,0,0,0,1.24,2.92,4.49,4.49,0,0,0,2.88,1.2,4.1,4.1,0,0,0,2.88-1.24,3.88,3.88,0,0,0,1.2-2.88,4,4,0,0,0-1.24-2.92,4.06,4.06,0,0,0-5.68,0Z"/><path d="M1675.48,1107.09v12.64h-6.4v-12.64h-2v-5.24h2V1096h6.4v5.88h3.64v5.24Z"/><path d="M1700.48,1112h-13.32a4.52,4.52,0,0,0,1.12,3,3.6,3.6,0,0,0,2.64.88,5,5,0,0,0,2.08-.48,3,3,0,0,0,1.12-1.2h6.12a8,8,0,0,1-2.16,3.68c-1.32,1.28-3.4,2.48-7.28,2.48a10.14,10.14,0,0,1-7.4-2.72,9.36,9.36,0,0,1-2.64-6.76,9.54,9.54,0,0,1,2.68-6.92,10.07,10.07,0,0,1,7.32-2.6,9.8,9.8,0,0,1,6.88,2.44,10,10,0,0,1,2.84,7.52Zm-5.88-3.68a4.29,4.29,0,0,0-1-1.92,3.73,3.73,0,0,0-2.64-1,3.44,3.44,0,0,0-2.6,1,3.65,3.65,0,0,0-1,1.92Z"/><rect x="771.63" y="73.75" width="263" height="193" rx="12" ry="12" style="fill:none;stroke:#3a5c84;stroke-miterlimit:10;stroke-width:5px"/><rect x="47.5" y="558.5" width="263" height="497" rx="12" ry="12" style="fill:none;stroke:#3a5c84;stroke-miterlimit:10;stroke-width:5px"/><rect x="524.83" y="558.5" width="263" height="497" rx="12" ry="12" style="fill:none;stroke:#3a5c84;stroke-miterlimit:10;stroke-width:5px"/><rect x="1479.5" y="558.5" width="263" height="497" rx="12" ry="12" style="fill:none;stroke:#3a5c84;stroke-miterlimit:10;stroke-width:5px"/><rect x="46.93" y="401.57" width="1705.14" height="14" rx="7" ry="7" transform="translate(-3.21 7.13) rotate(-0.45)" style="fill:#3a5c84"/><line x1="613.76" y1="723.42" x2="692.03" y2="723.42" style="fill:none;stroke:#f7931f;stroke-miterlimit:10;stroke-width:7.24700021743774px"/><line x1="613.76" y1="703.17" x2="692.03" y2="703.17" style="fill:none;stroke:#f7931f;stroke-miterlimit:10;stroke-width:7.24700021743774px"/><line x1="613.76" y1="682.92" x2="692.03" y2="682.92" style="fill:none;stroke:#f7931f;stroke-miterlimit:10;stroke-width:7.24700021743774px"/><line x1="613.76" y1="662.67" x2="692.03" y2="662.67" style="fill:none;stroke:#f7931f;stroke-miterlimit:10;stroke-width:7.24700021743774px"/><line x1="613.76" y1="642.42" x2="646.07" y2="642.42" style="fill:none;stroke:#f7931f;stroke-miterlimit:10;stroke-width:7.24700021743774px"/><path d="M687.93,635.14A11,11,0,0,1,677,624.22V603.74h-67.8a11,11,0,0,0-10.92,10.92V729.34a11,11,0,0,0,10.92,10.92h87.37a11,11,0,0,0,10.92-10.92v-94.2Z" style="fill:none;stroke:#f7931f;stroke-miterlimit:10;stroke-width:7.24700021743774px"/><line x1="613.76" y1="970.42" x2="692.03" y2="970.42" style="fill:none;stroke:#f7931f;stroke-miterlimit:10;stroke-width:7.24675068816495px"/><line x1="613.76" y1="950.17" x2="692.03" y2="950.17" style="fill:none;stroke:#f7931f;stroke-miterlimit:10;stroke-width:7.24675068816495px"/><line x1="613.76" y1="929.92" x2="692.03" y2="929.92" style="fill:none;stroke:#f7931f;stroke-miterlimit:10;stroke-width:7.24675068816495px"/><line x1="613.76" y1="909.67" x2="692.03" y2="909.67" style="fill:none;stroke:#f7931f;stroke-miterlimit:10;stroke-width:7.24675068816495px"/><line x1="613.76" y1="889.42" x2="646.07" y2="889.42" style="fill:none;stroke:#f7931f;stroke-miterlimit:10;stroke-width:7.24675068816495px"/><path d="M687.93,882.14A11,11,0,0,1,677,871.22V850.74h-67.8a11,11,0,0,0-10.92,10.92V976.34a11,11,0,0,0,10.92,10.92h87.37a11,11,0,0,0,10.92-10.92v-94.2Z" style="fill:none;stroke:#f7931f;stroke-miterlimit:10;stroke-width:7.24675068816495px"/><path d="M1091.79,1098.93h-8.36v4.44h7.6v5.88h-7.6v10.48h-6.92v-26.68h15.28Z"/><path d="M1098.11,1090.81a3.6,3.6,0,1,1-3.6,3.6A3.59,3.59,0,0,1,1098.11,1090.81Zm3.2,11v17.88h-6.4v-17.88Z"/><path d="M1106.83,1113.81a9.16,9.16,0,0,0,2.56,1.32,8.33,8.33,0,0,0,2.48.44,2.71,2.71,0,0,0,1.64-.48,1,1,0,0,0,.32-.84,1,1,0,0,0-.32-.8,4,4,0,0,0-1.68-.64l-1.68-.4a5.75,5.75,0,0,1-3.12-1.56,4.32,4.32,0,0,1-1.16-3.08,6.39,6.39,0,0,1,1.68-4.36c1.36-1.4,3.76-2.16,6.4-2.16a14.76,14.76,0,0,1,5.72,1.16l-2.16,4.08a8.86,8.86,0,0,0-3.36-.88,2.7,2.7,0,0,0-1.48.36,1,1,0,0,0-.56.88,1,1,0,0,0,.76,1c.6.24,1.12.24,2.12.52l1.16.32a7.56,7.56,0,0,1,2.64,1.4,5.06,5.06,0,0,1,1.36,3.56,6,6,0,0,1-1.8,4.44c-2.08,2.08-5.12,2.24-6.6,2.24a13.19,13.19,0,0,1-7.2-2.08Zm3.12,7.92,6,.64-4.08,7.36-4-.48Z"/><path d="M1126.63,1090.81a3.6,3.6,0,1,1-3.6,3.6A3.59,3.59,0,0,1,1126.63,1090.81Zm3.2,11v17.88h-6.4v-17.88Z"/><path d="M1153.14,1112h-13.31a4.52,4.52,0,0,0,1.12,3,3.6,3.6,0,0,0,2.64.88,5,5,0,0,0,2.08-.48,3,3,0,0,0,1.12-1.2h6.11a8,8,0,0,1-2.15,3.68c-1.33,1.28-3.4,2.48-7.28,2.48a10.14,10.14,0,0,1-7.4-2.72,9.36,9.36,0,0,1-2.64-6.76,9.54,9.54,0,0,1,2.68-6.92,10.07,10.07,0,0,1,7.32-2.6,9.76,9.76,0,0,1,6.87,2.44,10,10,0,0,1,2.84,7.52Zm-5.87-3.68a4.29,4.29,0,0,0-1-1.92,3.73,3.73,0,0,0-2.64-1,3.44,3.44,0,0,0-2.6,1,3.65,3.65,0,0,0-1,1.92Z"/><path d="M1156.83,1101.85h6.4v2.92a5.77,5.77,0,0,1,2.52-2.48,7,7,0,0,1,3.32-.72c.16,0,.44,0,1.27.08v6a5.56,5.56,0,0,0-2.75-.64,4.19,4.19,0,0,0-2.92,1,5.4,5.4,0,0,0-1.44,4.08v7.64h-6.4Z"/><path d="M1192.14,1112h-13.31a4.52,4.52,0,0,0,1.12,3,3.6,3.6,0,0,0,2.64.88,5,5,0,0,0,2.08-.48,3,3,0,0,0,1.12-1.2h6.11a8,8,0,0,1-2.16,3.68c-1.32,1.28-3.4,2.48-7.27,2.48a10.14,10.14,0,0,1-7.4-2.72,9.36,9.36,0,0,1-2.64-6.76,9.54,9.54,0,0,1,2.68-6.92,10.07,10.07,0,0,1,7.32-2.6,9.77,9.77,0,0,1,6.87,2.44,10,10,0,0,1,2.84,7.52Zm-5.88-3.68a4.18,4.18,0,0,0-1-1.92,3.73,3.73,0,0,0-2.64-1,3.44,3.44,0,0,0-2.6,1,3.65,3.65,0,0,0-1,1.92Z"/><path d="M1019.57,1167.73h-6.4v-2a6.56,6.56,0,0,1-5.4,2.56,8.56,8.56,0,0,1-6.28-2.48,9.86,9.86,0,0,1-2.88-7.12,9.74,9.74,0,0,1,2.92-7.08,9.14,9.14,0,0,1,6.32-2.4,7.07,7.07,0,0,1,5.32,2.32v-13h6.4Zm-7.56-5.92a4.29,4.29,0,0,0,1.36-3,4.68,4.68,0,0,0-1.2-2.88,4.1,4.1,0,0,0-5.76,0,4.39,4.39,0,0,0-1.24,3,4,4,0,0,0,1.24,2.8,4,4,0,0,0,2.84,1.2A4.37,4.37,0,0,0,1012,1161.81Z"/><path d="M1042.93,1160h-13.32a4.52,4.52,0,0,0,1.12,3,3.6,3.6,0,0,0,2.64.88,5,5,0,0,0,2.08-.48,3,3,0,0,0,1.12-1.2h6.12a8,8,0,0,1-2.16,3.68c-1.32,1.28-3.4,2.48-7.28,2.48a10.14,10.14,0,0,1-7.4-2.72,9.36,9.36,0,0,1-2.64-6.76,9.54,9.54,0,0,1,2.68-6.92,10.07,10.07,0,0,1,7.32-2.6,9.8,9.8,0,0,1,6.88,2.44,10,10,0,0,1,2.84,7.52Zm-5.88-3.68a4.29,4.29,0,0,0-1-1.92,3.73,3.73,0,0,0-2.64-1,3.44,3.44,0,0,0-2.6,1,3.65,3.65,0,0,0-1,1.92Z"/><path d="M1069.45,1167.33a9.49,9.49,0,0,1-4.44,1,9.88,9.88,0,0,1-7-2.72,9.36,9.36,0,0,1-2.76-6.68,9.74,9.74,0,0,1,2.88-6.92,10.31,10.31,0,0,1,7.2-2.72,9.17,9.17,0,0,1,4.16,1v5.36a5.7,5.7,0,0,0-3.32-1.16,4.19,4.19,0,0,0-3.12,1.24,4.35,4.35,0,0,0-1.24,3.08,4.59,4.59,0,0,0,1.12,3,4.34,4.34,0,0,0,3.28,1.36,4.84,4.84,0,0,0,3.28-1.2Z"/><path d="M1091.09,1165.37a12.24,12.24,0,0,1-16,0,9.22,9.22,0,0,1,0-13.16,11.16,11.16,0,0,1,8-3,11.3,11.3,0,0,1,8,3,9.25,9.25,0,0,1,0,13.16Zm-10.84-9.52a4.08,4.08,0,0,0,2.88,7,4.07,4.07,0,0,0,2.84-1.2,3.94,3.94,0,0,0,1.24-2.84,4.34,4.34,0,0,0-1.24-2.92,4.11,4.11,0,0,0-5.72,0Z"/><path d="M1097.53,1149.85h6.4v2.24a6.74,6.74,0,0,1,5.68-2.64,7.19,7.19,0,0,1,5.27,1.92c1.52,1.52,1.68,3,1.68,5v11.36h-6.39v-9c0-1,0-2.6-.8-3.48a2.68,2.68,0,0,0-2-.76,3.5,3.5,0,0,0-2.36.84,4.11,4.11,0,0,0-1,2.84v9.6h-6.4Z"/><path d="M1127.81,1155.09v12.64h-6.4v-12.64h-2.24v-5.24h2.24v-2.2c0-2.4.32-5,2.44-7a10.13,10.13,0,0,1,7-2.52c2.52,0,5.47.76,7.15,2.4a8.14,8.14,0,0,1,2.24,6v.92h-6.4v-.6a3.74,3.74,0,0,0-.79-2.4,3.26,3.26,0,0,0-2.24-.8,3.05,3.05,0,0,0-2.2.92,3.68,3.68,0,0,0-.84,2.76v2.52h4.48v5.24Zm12.47-5.24v17.88h-6.4v-17.88Z"/><path d="M1164.4,1149.85v16.76c0,2.68-.24,5.12-2.44,7.4a10.65,10.65,0,0,1-7.87,2.88,11,11,0,0,1-8.36-3.16,6.5,6.5,0,0,1-2-3.72h7.12c.24.72.88,1.84,3,1.84a3.89,3.89,0,0,0,2.84-1,4.31,4.31,0,0,0,1.29-3.32v-1.8a6.8,6.8,0,0,1-5.36,2.36,8.91,8.91,0,0,1-6.6-2.52,9.44,9.44,0,0,1-2.48-6.52,10.31,10.31,0,0,1,2.64-7,9,9,0,0,1,6.48-2.72,7,7,0,0,1,5.32,2.36v-1.84Zm-13,6a4,4,0,0,0,0,5.8,4,4,0,0,0,2.88,1.16,4.24,4.24,0,0,0,2.88-1.2,4.31,4.31,0,0,0,1.19-2.88,4.63,4.63,0,0,0-1.27-2.92,4.06,4.06,0,0,0-2.84-1.16A3.81,3.81,0,0,0,1151.37,1155.85Z"/><path d="M1175.21,1149.85v10a3.43,3.43,0,0,0,1,2.6,3.27,3.27,0,0,0,2.23.68,3,3,0,0,0,2.28-.76,3.32,3.32,0,0,0,.92-2.52v-10h6.4V1161a6.14,6.14,0,0,1-1.72,4.8c-2.2,2.28-5.28,2.52-7.72,2.52-2.68,0-6-.28-8.07-2.56a6.43,6.43,0,0,1-1.68-4.76v-11.16Z"/><path d="M1192.41,1149.85h6.4v2.92a5.77,5.77,0,0,1,2.52-2.48,6.94,6.94,0,0,1,3.31-.72c.16,0,.44,0,1.28.08v6a5.63,5.63,0,0,0-2.75-.64,4.19,4.19,0,0,0-2.92,1,5.4,5.4,0,0,0-1.44,4.08v7.64h-6.4Z"/><path d="M1222.6,1149.85h6.4v17.88h-6.4v-2a6.67,6.67,0,0,1-5.55,2.56,8.56,8.56,0,0,1-6.44-2.84,9,9,0,0,1-2.56-6.56,9.89,9.89,0,0,1,2.76-7.16,9.2,9.2,0,0,1,6.44-2.52,7.07,7.07,0,0,1,5.35,2.32Zm-6.72,6a4.21,4.21,0,0,0-1.27,2.92,4.16,4.16,0,0,0,1.23,2.92,4.52,4.52,0,0,0,2.88,1.2,4.1,4.1,0,0,0,2.88-1.24,3.88,3.88,0,0,0,1.2-2.88,4,4,0,0,0-1.24-2.92,4.06,4.06,0,0,0-5.68,0Z"/><path d="M1233.41,1149.85h6.4v2.92a5.77,5.77,0,0,1,2.52-2.48,6.94,6.94,0,0,1,3.31-.72c.16,0,.44,0,1.28.08v6a5.63,5.63,0,0,0-2.75-.64,4.19,4.19,0,0,0-2.92,1,5.4,5.4,0,0,0-1.44,4.08v7.64h-6.4Z"/><path d="M1268.72,1160h-13.31a4.52,4.52,0,0,0,1.12,3,3.56,3.56,0,0,0,2.64.88,5,5,0,0,0,2.07-.48,3,3,0,0,0,1.12-1.2h6.12a8,8,0,0,1-2.16,3.68c-1.32,1.28-3.4,2.48-7.27,2.48a10.14,10.14,0,0,1-7.4-2.72,9.36,9.36,0,0,1-2.64-6.76,9.54,9.54,0,0,1,2.68-6.92,10.07,10.07,0,0,1,7.32-2.6,9.79,9.79,0,0,1,6.87,2.44,10,10,0,0,1,2.84,7.52Zm-5.88-3.68a4.29,4.29,0,0,0-1-1.92,3.71,3.71,0,0,0-2.63-1,3.44,3.44,0,0,0-2.6,1,3.65,3.65,0,0,0-1,1.92Z"/><rect x="1002.17" y="558.5" width="263" height="497" rx="12" ry="12" style="fill:none;stroke:#3a5c84;stroke-miterlimit:10;stroke-width:5px"/><path d="M894.44,138.28,886.7,113.7H841.55c-7,0-12.69,8.29-12.69,18.43V207.4c0,10.14,5.71,18.44,12.69,18.44H965.31c7,0,12.69-8.3,12.69-18.44V138.28Z" style="fill:none;stroke:#91c54f;stroke-miterlimit:10;stroke-width:7.62852711588225px"/><line x1="918.16" y1="188.04" x2="938.25" y2="188.04" style="fill:none;stroke:#91c54f;stroke-miterlimit:10;stroke-width:7.62852711588225px"/><line x1="918.16" y1="197.56" x2="966.81" y2="197.56" style="fill:none;stroke:#91c54f;stroke-miterlimit:10;stroke-width:7.62852711588225px"/><line x1="918.16" y1="207.08" x2="965.76" y2="207.08" style="fill:none;stroke:#91c54f;stroke-miterlimit:10;stroke-width:7.62852711588225px"/><path d="M1613.66,669.61a13,13,0,1,0,13,13A13,13,0,0,0,1613.66,669.61Z" style="fill:none;stroke:#3a5c84;stroke-miterlimit:10;stroke-width:6.71554560391629px"/><path d="M1643.44,677.05a1.86,1.86,0,0,0-1.86-1.86h-4.92a25,25,0,0,0-1.47-3.55l3.47-3.48a1.85,1.85,0,0,0,0-2.63l-7.89-7.9a1.87,1.87,0,0,0-2.63,0l-3.48,3.48a23.91,23.91,0,0,0-3.55-1.47v-4.92a1.86,1.86,0,0,0-1.86-1.86h-11.17a1.86,1.86,0,0,0-1.86,1.86v4.92a23.91,23.91,0,0,0-3.55,1.47l-3.48-3.48a1.87,1.87,0,0,0-2.63,0l-7.89,7.9a1.85,1.85,0,0,0,0,2.63l3.47,3.48-.45.91a24.81,24.81,0,0,0-1,2.64h-4.92a1.86,1.86,0,0,0-1.86,1.86v11.17a1.87,1.87,0,0,0,1.86,1.86h4.92a25,25,0,0,0,1.47,3.55l-3.47,3.48a1.85,1.85,0,0,0,0,2.63l7.89,7.89a1.85,1.85,0,0,0,2.63,0l3.48-3.47a25,25,0,0,0,3.55,1.47v4.91a1.87,1.87,0,0,0,1.86,1.87h11.17a1.87,1.87,0,0,0,1.86-1.87v-4.91a25,25,0,0,0,3.55-1.47l3.48,3.47a1.85,1.85,0,0,0,2.63,0l7.89-7.89a1.85,1.85,0,0,0,0-2.63l-3.47-3.48a25,25,0,0,0,1.47-3.55h4.92a1.87,1.87,0,0,0,1.86-1.86Z" style="fill:none;stroke:#3a5c84;stroke-miterlimit:10;stroke-width:6.71554560391629px"/><rect x="1546.06" y="607.53" width="128.94" height="128.94" rx="12" ry="12" style="fill:none;stroke:#3a5c84;stroke-miterlimit:10;stroke-width:6.71554560391629px"/><circle cx="1556.13" cy="618.95" r="4.03" style="fill:#3a5c84"/><circle cx="1568.89" cy="618.95" r="4.03" style="fill:#3a5c84"/><circle cx="1581.65" cy="618.95" r="4.03" style="fill:#3a5c84"/><line x1="1558.82" y1="632.38" x2="1644.78" y2="632.38" style="fill:none;stroke:#3a5c84;stroke-miterlimit:10;stroke-width:6.71554560391629px"/><line x1="1558.82" y1="641.11" x2="1578.3" y2="641.11" style="fill:none;stroke:#3a5c84;stroke-miterlimit:10;stroke-width:6.71554560391629px"/><line x1="1558.82" y1="649.17" x2="1578.3" y2="649.17" style="fill:none;stroke:#3a5c84;stroke-miterlimit:10;stroke-width:6.71554560391629px"/><line x1="1643.44" y1="725.72" x2="1662.91" y2="725.72" style="fill:none;stroke:#3a5c84;stroke-miterlimit:10;stroke-width:6.71554560391629px"/><path d="M1613.66,916.61a13,13,0,1,0,13,13A13,13,0,0,0,1613.66,916.61Z" style="fill:none;stroke:#3a5c84;stroke-miterlimit:10;stroke-width:6.71554560391629px"/><path d="M1643.44,924.05a1.86,1.86,0,0,0-1.86-1.86h-4.92a25,25,0,0,0-1.47-3.55l3.47-3.48a1.85,1.85,0,0,0,0-2.63l-7.89-7.9a1.87,1.87,0,0,0-2.63,0l-3.48,3.48a23.91,23.91,0,0,0-3.55-1.47v-4.92a1.86,1.86,0,0,0-1.86-1.86h-11.17a1.86,1.86,0,0,0-1.86,1.86v4.92a23.91,23.91,0,0,0-3.55,1.47l-3.48-3.48a1.87,1.87,0,0,0-2.63,0l-7.89,7.9a1.85,1.85,0,0,0,0,2.63l3.47,3.48-.45.91a24.81,24.81,0,0,0-1,2.64h-4.92a1.86,1.86,0,0,0-1.86,1.86v11.17a1.87,1.87,0,0,0,1.86,1.86h4.92a25,25,0,0,0,1.47,3.55l-3.47,3.48a1.85,1.85,0,0,0,0,2.63l7.89,7.89a1.85,1.85,0,0,0,2.63,0l3.48-3.47a25,25,0,0,0,3.55,1.47v4.91a1.87,1.87,0,0,0,1.86,1.87h11.17a1.87,1.87,0,0,0,1.86-1.87v-4.91a25,25,0,0,0,3.55-1.47l3.48,3.47a1.85,1.85,0,0,0,2.63,0l7.89-7.89a1.85,1.85,0,0,0,0-2.63l-3.47-3.48a25,25,0,0,0,1.47-3.55h4.92a1.87,1.87,0,0,0,1.86-1.86Z" style="fill:none;stroke:#3a5c84;stroke-miterlimit:10;stroke-width:6.71554560391629px"/><rect x="1546.06" y="854.53" width="128.94" height="128.94" rx="12" ry="12" style="fill:none;stroke:#3a5c84;stroke-miterlimit:10;stroke-width:6.71554560391629px"/><circle cx="1556.13" cy="865.95" r="4.03" style="fill:#3a5c84"/><circle cx="1568.89" cy="865.95" r="4.03" style="fill:#3a5c84"/><circle cx="1581.65" cy="865.95" r="4.03" style="fill:#3a5c84"/><line x1="1558.82" y1="879.38" x2="1644.78" y2="879.38" style="fill:none;stroke:#3a5c84;stroke-miterlimit:10;stroke-width:6.71554560391629px"/><line x1="1558.82" y1="888.11" x2="1578.3" y2="888.11" style="fill:none;stroke:#3a5c84;stroke-miterlimit:10;stroke-width:6.71554560391629px"/><line x1="1558.82" y1="896.17" x2="1578.3" y2="896.17" style="fill:none;stroke:#3a5c84;stroke-miterlimit:10;stroke-width:6.71554560391629px"/><line x1="1643.44" y1="972.72" x2="1662.91" y2="972.72" style="fill:none;stroke:#3a5c84;stroke-miterlimit:10;stroke-width:6.71554560391629px"/><path d="M189,671.66a4.53,4.53,0,0,1-1.23,3.34.31.31,0,0,0,0,.31l1.5,3.13a.24.24,0,0,0,.27.16,4.53,4.53,0,0,1,4.86,4.38.3.3,0,0,0,.18.26l3.26,1.15h.07a.24.24,0,0,0,.26-.1,4.07,4.07,0,0,1,.68-.63l0,0,.33-.22.27-.15.13-.07a4.51,4.51,0,0,1,5.08.78.24.24,0,0,0,.31,0l3.13-1.49h0a.26.26,0,0,0,.15-.27,4.56,4.56,0,0,1,1.16-3.36,4.63,4.63,0,0,1,1.74-1.19l.1,0,.17,0,.28-.08h.05a4.15,4.15,0,0,1,.87-.12.28.28,0,0,0,.26-.19l1.16-3.26a.28.28,0,0,0-.09-.3,4.54,4.54,0,0,1-.33-6.54.29.29,0,0,0,0-.31l-1-2.15h0l-.47-1s0,0-.07-.08h0s0,0,0,0a.23.23,0,0,0-.11,0h0a4.53,4.53,0,0,1-4.86-4.38.29.29,0,0,0-.19-.26l-3.26-1.15a.24.24,0,0,0-.31.07h0a4.42,4.42,0,0,1-1,.89l-.08,0-.3.17a4.51,4.51,0,0,1-1.76.46,4.57,4.57,0,0,1-3.34-1.23.27.27,0,0,0-.31,0l-3.13,1.49a.3.3,0,0,0-.16.27,4.52,4.52,0,0,1-4.38,4.86.26.26,0,0,0-.26.19l-.8,2.26h0l-.36,1a.28.28,0,0,0,.08.3A4.55,4.55,0,0,1,189,671.66Zm7.1-5.53,0,0,.31-.26.22-.18.1-.07a6.73,6.73,0,1,1,6.74,11.59,5.25,5.25,0,0,1-.55.22h0a6.74,6.74,0,0,1-6.85-11.27Z" style="fill:#3a5c84"/><path d="M204.63,696.14a5.84,5.84,0,0,1-1.57,4.29.38.38,0,0,0-.07.41l1.92,4a.31.31,0,0,0,.35.21,5.82,5.82,0,0,1,6.24,5.63.39.39,0,0,0,.24.33l4.19,1.48H216a.3.3,0,0,0,.33-.12,6.2,6.2,0,0,1,.88-.82l0,0c.14-.11.28-.2.42-.29l.35-.19.16-.09a5.8,5.8,0,0,1,6.53,1,.32.32,0,0,0,.4.06l4-1.91h0a.36.36,0,0,0,.2-.35,5.88,5.88,0,0,1,1.49-4.32,5.8,5.8,0,0,1,2.23-1.52l.13,0,.22-.07.36-.11h.06a6.86,6.86,0,0,1,1.12-.15.35.35,0,0,0,.33-.24l1.49-4.19a.36.36,0,0,0-.11-.39,5.82,5.82,0,0,1-.43-8.4.33.33,0,0,0,.06-.39L235,687.14h0l-.6-1.25a.27.27,0,0,0-.1-.11v0l-.06,0a.22.22,0,0,0-.13,0h-.05a5.83,5.83,0,0,1-6.24-5.63.35.35,0,0,0-.24-.33l-4.19-1.49a.33.33,0,0,0-.4.1h0a5.79,5.79,0,0,1-1.34,1.13l-.1.06-.39.21a5.7,5.7,0,0,1-2.26.59,5.85,5.85,0,0,1-4.29-1.57.37.37,0,0,0-.4-.07l-4,1.92a.36.36,0,0,0-.2.35,5.82,5.82,0,0,1-5.63,6.24.32.32,0,0,0-.33.24l-1,2.9h0l-.47,1.31a.37.37,0,0,0,.1.39A5.84,5.84,0,0,1,204.63,696.14Zm9.12-7.09.06,0,.4-.34.29-.23.12-.09a8.65,8.65,0,1,1,8.67,14.88,7.06,7.06,0,0,1-.71.29h0a8.65,8.65,0,0,1-8.8-14.47Z" style="fill:#3a5c84"/><path d="M210.93,657.57a3.09,3.09,0,0,1-.83,2.28.2.2,0,0,0,0,.21l1,2.13c.06.12.13.12.19.11a3.1,3.1,0,0,1,3.31,3,.19.19,0,0,0,.13.18l2.22.79h0a.16.16,0,0,0,.18-.07,3.2,3.2,0,0,1,.47-.43l0,0,.22-.15.19-.1.08,0a3.07,3.07,0,0,1,1.19-.3,3.11,3.11,0,0,1,2.28.83.15.15,0,0,0,.21,0l2.13-1h0a.17.17,0,0,0,.1-.18,3.13,3.13,0,0,1,.79-2.3,3.23,3.23,0,0,1,1.19-.81l.07,0,.11,0,.2-.06h0a2.89,2.89,0,0,1,.59-.08.21.21,0,0,0,.18-.13l.79-2.23a.19.19,0,0,0-.06-.2,3.09,3.09,0,0,1-.23-4.46.18.18,0,0,0,0-.21l-.69-1.47h0l-.32-.67s0,0-.05-.06h0l0,0s0,0-.07,0h0a3.1,3.1,0,0,1-3.31-3,.17.17,0,0,0-.13-.17l-2.22-.79a.16.16,0,0,0-.21.05h0a3.38,3.38,0,0,1-.71.6l-.05,0-.21.11a2.78,2.78,0,0,1-1.2.31,3.09,3.09,0,0,1-2.28-.83.18.18,0,0,0-.21,0l-2.13,1a.21.21,0,0,0-.11.19,3.11,3.11,0,0,1-.79,2.29,3,3,0,0,1-2.2,1,.18.18,0,0,0-.17.13l-.55,1.54h0l-.25.69a.2.2,0,0,0,.06.21A3.12,3.12,0,0,1,210.93,657.57Zm4.85-3.77,0,0,.21-.18.15-.13.07,0a4.59,4.59,0,1,1,4.6,7.9c-.13,0-.25.11-.38.15h0a4.6,4.6,0,0,1-4.67-7.69Z" style="fill:#3a5c84"/><path d="M184.22,745.51l-64.83-11.57a11,11,0,0,1-11-11V625.69a11,11,0,0,1,11-11l64.83-16.21a11,11,0,0,1,11,11v125A11,11,0,0,1,184.22,745.51Z" style="fill:#eb6a38"/><rect x="169.75" y="612.96" width="75.25" height="118.08" rx="7" ry="7" style="fill:none;stroke:#eb6a38;stroke-miterlimit:10;stroke-width:8.10366196916839px"/><path d="M117.11,683.51a3.85,3.85,0,0,1,2.7-6.55,3.93,3.93,0,0,1,2.75,1.18,3.85,3.85,0,0,1,0,5.37,3.76,3.76,0,0,1-5.41,0Z" style="fill:#fff"/><path d="M142,664.69h-7.63v4.12h7.22v5.44h-7.22v4.26H142V684H128V659.25h14Z" style="fill:#fff"/><path d="M153.19,670.77l-7.93-11.52h7.93l3.67,6.41,3.81-6.41h7.89l-8,11.52L169.86,684h-7.78l-5.26-8-5.55,8h-7.75Z" style="fill:#fff"/><path d="M186.49,664.69h-7.63v4.12h7.23v5.44h-7.23v4.26h7.63V684h-14V659.25h14Z" style="fill:#fff"/><path d="M189,918.66a4.53,4.53,0,0,1-1.23,3.34.31.31,0,0,0,0,.31l1.5,3.13a.24.24,0,0,0,.27.16,4.53,4.53,0,0,1,4.86,4.38.3.3,0,0,0,.18.26l3.26,1.15h.07a.24.24,0,0,0,.26-.1,4.07,4.07,0,0,1,.68-.63l0,0,.33-.22.27-.15.13-.07a4.51,4.51,0,0,1,5.08.78.24.24,0,0,0,.31,0l3.13-1.49h0a.26.26,0,0,0,.15-.27,4.56,4.56,0,0,1,1.16-3.36,4.63,4.63,0,0,1,1.74-1.19l.1,0,.17,0,.28-.08h.05a4.15,4.15,0,0,1,.87-.12.28.28,0,0,0,.26-.19l1.16-3.26a.28.28,0,0,0-.09-.3,4.54,4.54,0,0,1-.33-6.54.29.29,0,0,0,0-.31l-1-2.15h0l-.47-1s0,0-.07-.08h0s0,0,0,0a.23.23,0,0,0-.11,0h0a4.53,4.53,0,0,1-4.86-4.38.29.29,0,0,0-.19-.26l-3.26-1.15a.24.24,0,0,0-.31.07h0a4.42,4.42,0,0,1-1,.89l-.08,0-.3.17a4.51,4.51,0,0,1-1.76.46,4.57,4.57,0,0,1-3.34-1.23.27.27,0,0,0-.31,0l-3.13,1.49a.3.3,0,0,0-.16.27,4.52,4.52,0,0,1-4.38,4.86.26.26,0,0,0-.26.19l-.8,2.26h0l-.36,1a.28.28,0,0,0,.08.3A4.55,4.55,0,0,1,189,918.66Zm7.1-5.53,0,0,.31-.26.22-.18.1-.07a6.73,6.73,0,1,1,6.74,11.59,5.25,5.25,0,0,1-.55.22h0a6.74,6.74,0,0,1-6.85-11.27Z" style="fill:#3a5c84"/><path d="M204.63,943.14a5.84,5.84,0,0,1-1.57,4.29.38.38,0,0,0-.07.41l1.92,4a.31.31,0,0,0,.35.21,5.82,5.82,0,0,1,6.24,5.63.39.39,0,0,0,.24.33l4.19,1.48H216a.3.3,0,0,0,.33-.12,6.2,6.2,0,0,1,.88-.82l0,0c.14-.11.28-.2.42-.29l.35-.19.16-.09a5.8,5.8,0,0,1,6.53,1,.32.32,0,0,0,.4.06l4-1.91h0a.36.36,0,0,0,.2-.35,5.88,5.88,0,0,1,1.49-4.32,5.8,5.8,0,0,1,2.23-1.52l.13,0,.22-.07.36-.11h.06a6.86,6.86,0,0,1,1.12-.15.35.35,0,0,0,.33-.24l1.49-4.19a.36.36,0,0,0-.11-.39,5.82,5.82,0,0,1-.43-8.4.33.33,0,0,0,.06-.39L235,934.14h0l-.6-1.25a.27.27,0,0,0-.1-.11v0l-.06,0a.22.22,0,0,0-.13,0h-.05a5.83,5.83,0,0,1-6.24-5.63.35.35,0,0,0-.24-.33l-4.19-1.49a.33.33,0,0,0-.4.1h0a5.79,5.79,0,0,1-1.34,1.13l-.1.06-.39.21a5.7,5.7,0,0,1-2.26.59,5.85,5.85,0,0,1-4.29-1.57.37.37,0,0,0-.4-.07l-4,1.92a.36.36,0,0,0-.2.35,5.82,5.82,0,0,1-5.63,6.24.32.32,0,0,0-.33.24l-1,2.9h0l-.47,1.31a.37.37,0,0,0,.1.39A5.84,5.84,0,0,1,204.63,943.14Zm9.12-7.09.06,0,.4-.34.29-.23.12-.09a8.65,8.65,0,1,1,8.67,14.88,7.06,7.06,0,0,1-.71.29h0a8.65,8.65,0,0,1-8.8-14.47Z" style="fill:#3a5c84"/><path d="M210.93,904.57a3.09,3.09,0,0,1-.83,2.28.2.2,0,0,0,0,.21l1,2.13c.06.12.13.12.19.11a3.1,3.1,0,0,1,3.31,3,.19.19,0,0,0,.13.18l2.22.79h0a.16.16,0,0,0,.18-.07,3.2,3.2,0,0,1,.47-.43l0,0,.22-.15.19-.1.08,0a3.07,3.07,0,0,1,1.19-.3,3.11,3.11,0,0,1,2.28.83.15.15,0,0,0,.21,0l2.13-1h0a.17.17,0,0,0,.1-.18,3.13,3.13,0,0,1,.79-2.3,3.23,3.23,0,0,1,1.19-.81l.07,0,.11,0,.2-.06h0a2.89,2.89,0,0,1,.59-.08.21.21,0,0,0,.18-.13l.79-2.23a.19.19,0,0,0-.06-.2,3.09,3.09,0,0,1-.23-4.46.18.18,0,0,0,0-.21l-.69-1.47h0l-.32-.67s0,0-.05-.06h0l0,0s0,0-.07,0h0a3.1,3.1,0,0,1-3.31-3,.17.17,0,0,0-.13-.17l-2.22-.79a.16.16,0,0,0-.21.05h0a3.38,3.38,0,0,1-.71.6l-.05,0-.21.11a2.78,2.78,0,0,1-1.2.31,3.09,3.09,0,0,1-2.28-.83.18.18,0,0,0-.21,0l-2.13,1a.21.21,0,0,0-.11.19,3.11,3.11,0,0,1-.79,2.29,3,3,0,0,1-2.2,1,.18.18,0,0,0-.17.13l-.55,1.54h0l-.25.69a.2.2,0,0,0,.06.21A3.12,3.12,0,0,1,210.93,904.57Zm4.85-3.77,0,0,.21-.18.15-.13.07,0a4.59,4.59,0,1,1,4.6,7.9c-.13,0-.25.11-.38.15h0a4.6,4.6,0,0,1-4.67-7.69Z" style="fill:#3a5c84"/><path d="M184.22,992.51l-64.83-11.57a11,11,0,0,1-11-11V872.69a11,11,0,0,1,11-11l64.83-16.21a11,11,0,0,1,11,11v125A11,11,0,0,1,184.22,992.51Z" style="fill:#eb6a38"/><rect x="169.75" y="859.96" width="75.25" height="118.08" rx="7" ry="7" style="fill:none;stroke:#eb6a38;stroke-miterlimit:10;stroke-width:8.10366196916839px"/><path d="M117.11,930.51a3.85,3.85,0,0,1,2.7-6.55,3.93,3.93,0,0,1,2.75,1.18,3.85,3.85,0,0,1,0,5.37,3.76,3.76,0,0,1-5.41,0Z" style="fill:#fff"/><path d="M142,911.69h-7.63v4.12h7.22v5.44h-7.22v4.26H142V931H128V906.25h14Z" style="fill:#fff"/><path d="M153.19,917.77l-7.93-11.52h7.93l3.67,6.41,3.81-6.41h7.89l-8,11.52L169.86,931h-7.78l-5.26-8-5.55,8h-7.75Z" style="fill:#fff"/><path d="M186.49,911.69h-7.63v4.12h7.23v5.44h-7.23v4.26h7.63V931h-14V906.25h14Z" style="fill:#fff"/><path d="M1168.43,635.14a11,11,0,0,1-10.92-10.92V603.74h-67.8a11,11,0,0,0-10.92,10.92V729.34a11,11,0,0,0,10.92,10.92h87.37A11,11,0,0,0,1188,729.34v-94.2Z" style="fill:none;stroke:#c13018;stroke-miterlimit:10;stroke-width:7.24700021743774px"/><path d="M1129.2,652.18,1153,676a6.33,6.33,0,0,1,0,8.92l-23.78,23.78a6.32,6.32,0,0,1-8.91,0V652.18A6.32,6.32,0,0,1,1129.2,652.18Z" style="fill:#c93335"/><path d="M1168.43,882.14a11,11,0,0,1-10.92-10.92V850.74h-67.8a11,11,0,0,0-10.92,10.92V976.34a11,11,0,0,0,10.92,10.92h87.37A11,11,0,0,0,1188,976.34v-94.2Z" style="fill:none;stroke:#c13018;stroke-miterlimit:10;stroke-width:7.24700021743774px"/><path d="M1129.2,899.18,1153,923a6.33,6.33,0,0,1,0,8.92l-23.78,23.78a6.32,6.32,0,0,1-8.91,0V899.18A6.32,6.32,0,0,1,1129.2,899.18Z" style="fill:#c93335"/></svg>