<svg id="Layer_1" data-name="Layer 1" xmlns="http://www.w3.org/2000/svg" viewBox="0 0 833 1366"><title>Cap 6 -</title><polygon points="271.97 174.63 272.36 243.75 262.39 243.8 283.68 264.85 304.73 243.56 294.77 243.62 294.38 174.51 271.97 174.63" style="fill:none;stroke:#91c54f;stroke-miterlimit:10;stroke-width:5px"/><polygon points="276.02 1082.63 276.41 1151.75 266.45 1151.8 287.74 1172.85 308.79 1151.57 298.82 1151.62 298.44 1082.51 276.02 1082.63" style="fill:none;stroke:#4fc2c9;stroke-miterlimit:10;stroke-width:5px"/><polygon points="276.02 416.63 276.41 485.75 266.45 485.8 287.74 506.85 308.79 485.56 298.82 485.62 298.44 416.51 276.02 416.63" style="fill:none;stroke:#3a5c84;stroke-miterlimit:10;stroke-width:5px"/><polygon points="276.02 622.63 276.41 691.75 266.45 691.8 287.74 712.85 308.79 691.57 298.82 691.62 298.44 622.51 276.02 622.63" style="fill:none;stroke:#3a5c84;stroke-miterlimit:10;stroke-width:5px"/><polygon points="276.02 826.63 276.41 895.75 266.45 895.8 287.74 916.85 308.79 895.57 298.82 895.62 298.44 826.51 276.02 826.63" style="fill:none;stroke:#3a5c84;stroke-miterlimit:10;stroke-width:5px"/><polygon points="559.51 962.25 490.4 962.64 490.34 952.68 469.29 973.97 490.58 995.02 490.52 985.05 559.63 984.67 559.51 962.25" style="fill:none;stroke:#3a5c84;stroke-miterlimit:10;stroke-width:5px"/><line x1="263.7" y1="105.59" x2="309.95" y2="105.59" style="fill:none;stroke:#91c54f;stroke-miterlimit:10;stroke-width:5px"/><line x1="263.7" y1="93.62" x2="309.95" y2="93.62" style="fill:none;stroke:#91c54f;stroke-miterlimit:10;stroke-width:5px"/><line x1="263.7" y1="81.65" x2="309.95" y2="81.65" style="fill:none;stroke:#91c54f;stroke-miterlimit:10;stroke-width:5px"/><line x1="263.7" y1="69.68" x2="309.95" y2="69.68" style="fill:none;stroke:#91c54f;stroke-miterlimit:10;stroke-width:5px"/><line x1="263.7" y1="57.72" x2="282.79" y2="57.72" style="fill:none;stroke:#91c54f;stroke-miterlimit:10;stroke-width:5px"/><path d="M307.53,53.41A6.47,6.47,0,0,1,301.08,47V34.86H261a6.47,6.47,0,0,0-6.46,6.45v67.77a6.48,6.48,0,0,0,6.46,6.46h51.63a6.48,6.48,0,0,0,6.46-6.46V53.41Z" style="fill:none;stroke:#91c54f;stroke-miterlimit:10;stroke-width:5px"/><path d="M243,133h4.8v10.14a5.85,5.85,0,0,1,1.5-1.32,6.14,6.14,0,0,1,6.72.78,4.68,4.68,0,0,1,1.26,3.75v8.52h-4.8v-6.78a4,4,0,0,0-.6-2.61,1.9,1.9,0,0,0-1.53-.57,2.57,2.57,0,0,0-1.74.57,2.92,2.92,0,0,0-.81,2.19v7.2H243Z"/><path d="M274.18,149.05h-10a3.39,3.39,0,0,0,.84,2.25,2.7,2.7,0,0,0,2,.66,3.79,3.79,0,0,0,1.56-.36,2.23,2.23,0,0,0,.84-.9H274a6,6,0,0,1-1.62,2.76c-1,1-2.55,1.86-5.46,1.86a7.61,7.61,0,0,1-5.55-2,7,7,0,0,1-2-5.07,7.16,7.16,0,0,1,2-5.19,7.55,7.55,0,0,1,5.49-2,7.35,7.35,0,0,1,5.16,1.83,7.51,7.51,0,0,1,2.13,5.64Zm-4.41-2.76a3.22,3.22,0,0,0-.78-1.44,2.8,2.8,0,0,0-2-.72,2.58,2.58,0,0,0-1.95.72,2.74,2.74,0,0,0-.72,1.44Z"/><path d="M281.74,133v21.87h-4.8V133Z"/><path d="M289.81,133v21.87H285V133Z"/><path d="M306.58,153.1a9.18,9.18,0,0,1-12,0,6.92,6.92,0,0,1,0-9.87,8.37,8.37,0,0,1,6-2.22,8.47,8.47,0,0,1,6,2.22,6.92,6.92,0,0,1,0,9.87ZM298.45,146a3.06,3.06,0,0,0,2.16,5.22,3.05,3.05,0,0,0,2.13-.9,3,3,0,0,0,.93-2.13,3.26,3.26,0,0,0-.93-2.19,3.08,3.08,0,0,0-4.29,0Z"/><path d="M312.13,154.51a3.12,3.12,0,0,1,2.19-5.31,3.15,3.15,0,0,1,2.22,1,3.12,3.12,0,0,1,0,4.35,3.07,3.07,0,0,1-2.19.93A3,3,0,0,1,312.13,154.51Z"/><path d="M330.64,154.57a7.12,7.12,0,0,1-3.33.75,7.41,7.41,0,0,1-5.28-2,7,7,0,0,1-2.07-5,7.3,7.3,0,0,1,2.16-5.19,7.73,7.73,0,0,1,5.4-2,6.88,6.88,0,0,1,3.12.75v4a4.28,4.28,0,0,0-2.49-.87,3.15,3.15,0,0,0-2.34.93,3.26,3.26,0,0,0-.93,2.31,3.44,3.44,0,0,0,.84,2.25,3.26,3.26,0,0,0,2.46,1,3.63,3.63,0,0,0,2.46-.9Z"/><path d="M375,1239h4.8v10.14a5.85,5.85,0,0,1,1.5-1.32,6.14,6.14,0,0,1,6.72.78,4.68,4.68,0,0,1,1.26,3.75v8.52h-4.8v-6.78a4,4,0,0,0-.6-2.61,1.9,1.9,0,0,0-1.53-.57,2.57,2.57,0,0,0-1.74.57,2.92,2.92,0,0,0-.81,2.19v7.2H375Z"/><path d="M406.12,1255.05h-10a3.39,3.39,0,0,0,.84,2.25,2.7,2.7,0,0,0,2,.66,3.79,3.79,0,0,0,1.56-.36,2.23,2.23,0,0,0,.84-.9h4.59a6,6,0,0,1-1.62,2.76c-1,1-2.55,1.86-5.46,1.86a7.61,7.61,0,0,1-5.55-2,7,7,0,0,1-2-5.07,7.16,7.16,0,0,1,2-5.19,7.55,7.55,0,0,1,5.49-2,7.35,7.35,0,0,1,5.16,1.83,7.51,7.51,0,0,1,2.13,5.64Zm-4.41-2.76a3.22,3.22,0,0,0-.78-1.44,2.8,2.8,0,0,0-2-.72,2.58,2.58,0,0,0-1.95.72,2.74,2.74,0,0,0-.72,1.44Z"/><path d="M413.68,1239v21.87h-4.8V1239Z"/><path d="M421.75,1239v21.87H417V1239Z"/><path d="M438.52,1259.1a9.18,9.18,0,0,1-12,0,6.92,6.92,0,0,1,0-9.87,8.37,8.37,0,0,1,6-2.22,8.47,8.47,0,0,1,6,2.22,6.92,6.92,0,0,1,0,9.87Zm-8.13-7.14a3.06,3.06,0,0,0,2.16,5.22,3.05,3.05,0,0,0,2.13-.9,3,3,0,0,0,.93-2.13,3.26,3.26,0,0,0-.93-2.19,3.08,3.08,0,0,0-4.29,0Z"/><path d="M298.34,1252.7a3.9,3.9,0,0,1-1.06,2.89.26.26,0,0,0,0,.27l1.29,2.7a.21.21,0,0,0,.23.14,4,4,0,0,1,2.91,1,3.9,3.9,0,0,1,1.29,2.79.26.26,0,0,0,.16.22l2.82,1H306a.2.2,0,0,0,.23-.08,3.43,3.43,0,0,1,.59-.55l0,0,.29-.2a2.53,2.53,0,0,1,.23-.12.3.3,0,0,1,.11-.06,3.75,3.75,0,0,1,1.51-.39,3.9,3.9,0,0,1,2.88,1.06.22.22,0,0,0,.27,0l2.7-1.29h0a.22.22,0,0,0,.13-.23,4,4,0,0,1,1-2.91,4,4,0,0,1,1.5-1l.09,0,.15,0,.24-.08h0a3.86,3.86,0,0,1,.76-.1.26.26,0,0,0,.22-.17l1-2.82a.26.26,0,0,0-.07-.26,3.89,3.89,0,0,1-.29-5.64.26.26,0,0,0,0-.27l-.89-1.86h0l-.4-.84-.07-.07h0l0,0a.1.1,0,0,0-.09,0h0a3.9,3.9,0,0,1-2.9-1,4,4,0,0,1-1.3-2.79.24.24,0,0,0-.16-.22l-2.82-1a.21.21,0,0,0-.26.07h0a3.83,3.83,0,0,1-.9.76l-.07,0-.26.15a4,4,0,0,1-1.52.39,4,4,0,0,1-2.89-1.06.24.24,0,0,0-.27,0l-2.7,1.29a.23.23,0,0,0-.13.23,4,4,0,0,1-1,2.91,3.92,3.92,0,0,1-2.79,1.29c-.07,0-.16,0-.22.16l-.69,2h0l-.32.88a.27.27,0,0,0,.07.27A3.92,3.92,0,0,1,298.34,1252.7Zm6.14-4.77,0,0,.27-.23.2-.16.08,0a5.81,5.81,0,1,1,5.83,10l-.48.2h0a5.82,5.82,0,0,1-5.92-9.73Z" style="fill:#3a5c84"/><path d="M311.83,1273.86a5.06,5.06,0,0,1-1.36,3.7.32.32,0,0,0-.06.35l1.66,3.47a.27.27,0,0,0,.3.18,5,5,0,0,1,3.73,1.28,5.05,5.05,0,0,1,1.66,3.58.32.32,0,0,0,.2.28l3.63,1.29h.06a.25.25,0,0,0,.29-.1,5.12,5.12,0,0,1,.76-.71l0,0,.36-.25.3-.16.14-.08a5.15,5.15,0,0,1,1.93-.5,5,5,0,0,1,3.71,1.37.27.27,0,0,0,.34,0l3.47-1.66h0a.3.3,0,0,0,.18-.3,5,5,0,0,1,1.28-3.73,5.2,5.2,0,0,1,1.93-1.32l.11,0,.19-.06.32-.09h.05a5.15,5.15,0,0,1,1-.13.32.32,0,0,0,.28-.21l1.29-3.62a.32.32,0,0,0-.1-.34,5,5,0,0,1-.37-7.25.29.29,0,0,0,.05-.34l-1.13-2.39h0l-.52-1.08a.22.22,0,0,0-.09-.1h0l0,0c-.05,0-.09,0-.12,0h0a5.09,5.09,0,0,1-3.73-1.28,5,5,0,0,1-1.66-3.59.33.33,0,0,0-.21-.28l-3.62-1.28a.26.26,0,0,0-.34.08h0a4.94,4.94,0,0,1-1.15,1l-.09,0-.34.19a5.05,5.05,0,0,1-5.65-.85.32.32,0,0,0-.35-.06l-3.47,1.65a.33.33,0,0,0-.17.31,5,5,0,0,1-4.87,5.39.27.27,0,0,0-.28.21l-.89,2.5h0L310,1270a.33.33,0,0,0,.09.34A5.09,5.09,0,0,1,311.83,1273.86Zm7.88-6.13,0,0,.35-.29c.08-.06.16-.14.25-.2l.11-.08a7.47,7.47,0,1,1,7.48,12.86c-.2.09-.41.18-.61.25h0a7.47,7.47,0,0,1-7.6-12.5Z" style="fill:#3a5c84"/><path d="M317.27,1240.54a2.63,2.63,0,0,1-.72,2,.19.19,0,0,0,0,.19l.88,1.84c.05.1.11.1.16.09a2.68,2.68,0,0,1,2.86,2.59.19.19,0,0,0,.11.15l1.92.68h0a.13.13,0,0,0,.15,0,2.86,2.86,0,0,1,.4-.38h0l.2-.14.16-.08.07,0a2.62,2.62,0,0,1,1-.27,2.71,2.71,0,0,1,2,.72.13.13,0,0,0,.18,0l1.84-.88h0a.16.16,0,0,0,.09-.16,2.67,2.67,0,0,1,.69-2,2.56,2.56,0,0,1,1-.7l.06,0,.1,0,.17,0h0a3,3,0,0,1,.52-.07.17.17,0,0,0,.15-.11l.68-1.92a.17.17,0,0,0,0-.18,2.67,2.67,0,0,1-.2-3.85.15.15,0,0,0,0-.18l-.6-1.27h0l-.28-.57a.1.1,0,0,0,0,0h0l0,0h-.09a2.67,2.67,0,0,1-2.86-2.58.15.15,0,0,0-.11-.15l-1.92-.68a.14.14,0,0,0-.18,0h0a3,3,0,0,1-.61.52l-.05,0-.18.1a2.62,2.62,0,0,1-1,.26,2.65,2.65,0,0,1-2-.72.17.17,0,0,0-.18,0l-1.85.88a.18.18,0,0,0-.09.16,2.7,2.7,0,0,1-.68,2,2.66,2.66,0,0,1-1.9.88.16.16,0,0,0-.15.11l-.47,1.34h0l-.22.6a.19.19,0,0,0,.05.19A2.66,2.66,0,0,1,317.27,1240.54Zm4.19-3.26,0,0,.18-.15.14-.11a.1.1,0,0,1,.05,0,4,4,0,1,1,4,6.82,2.26,2.26,0,0,1-.33.13h0a4,4,0,0,1-4-6.64Z" style="fill:#3a5c84"/><path d="M294.2,1316.5l-56-10a9.5,9.5,0,0,1-9.5-9.5v-84a9.5,9.5,0,0,1,9.5-9.5l56-14a9.5,9.5,0,0,1,9.5,9.5v108A9.5,9.5,0,0,1,294.2,1316.5Z" style="fill:#eb6a38"/><rect x="281.7" y="1202" width="65" height="102" rx="7" ry="7" style="fill:none;stroke:#eb6a38;stroke-miterlimit:10;stroke-width:7px"/><path d="M236.23,1262.94a3.22,3.22,0,0,1-1-2.33,3.27,3.27,0,0,1,1-2.34,3.21,3.21,0,0,1,2.33-1,3.37,3.37,0,0,1,2.37,1,3.32,3.32,0,0,1,0,4.64,3.26,3.26,0,0,1-2.34,1A3.23,3.23,0,0,1,236.23,1262.94Z" style="fill:#fff"/><path d="M257.76,1246.69h-6.59v3.55h6.24v4.7h-6.24v3.68h6.59v4.71H245.63V1242h12.13Z" style="fill:#fff"/><path d="M267.39,1251.94l-6.84-10h6.84l3.17,5.53,3.3-5.53h6.81l-6.94,10,8.06,11.39h-6.72l-4.54-6.95-4.8,6.95H259Z" style="fill:#fff"/><path d="M296.16,1246.69h-6.59v3.55h6.24v4.7h-6.24v3.68h6.59v4.71H284V1242h12.13Z" style="fill:#fff"/><rect x="130.94" y="317.5" width="311.56" height="84" rx="12" ry="12" style="fill:none;stroke:#3a5c84;stroke-miterlimit:10;stroke-width:5px"/><path d="M166.72,359.29h-4.8V339h4.8v1.47a5,5,0,0,1,4.11-1.92,6.67,6.67,0,0,1,4.77,1.95,7.61,7.61,0,0,1-.12,10.5,6.44,6.44,0,0,1-4.59,1.86,5.71,5.71,0,0,1-4.17-1.74Zm.78-15.75a3.27,3.27,0,0,0-.93,2.22,3.24,3.24,0,0,0,.93,2.13,3.07,3.07,0,0,0,2.16.9,2.9,2.9,0,0,0,2.13-.9,3.17,3.17,0,0,0,.93-2.13,3.27,3.27,0,0,0-.93-2.22,2.9,2.9,0,0,0-2.13-.9A3.07,3.07,0,0,0,167.5,343.54Z"/><path d="M180.4,339h4.8v2.19a4.33,4.33,0,0,1,1.89-1.86,5.24,5.24,0,0,1,2.49-.54l1,.06v4.53a4.23,4.23,0,0,0-2.07-.48,3.14,3.14,0,0,0-2.19.72,4,4,0,0,0-1.08,3.06v5.73h-4.8Z"/><path d="M206.89,346.6h-10a3.39,3.39,0,0,0,.84,2.25,2.7,2.7,0,0,0,2,.66,3.79,3.79,0,0,0,1.56-.36,2.23,2.23,0,0,0,.84-.9h4.59a6,6,0,0,1-1.62,2.76c-1,1-2.55,1.86-5.46,1.86a7.61,7.61,0,0,1-5.55-2,7,7,0,0,1-2-5.07,7.16,7.16,0,0,1,2-5.19,7.55,7.55,0,0,1,5.49-1.95,7.35,7.35,0,0,1,5.16,1.83,7.51,7.51,0,0,1,2.13,5.64Zm-4.41-2.76a3.22,3.22,0,0,0-.78-1.44,2.8,2.8,0,0,0-2-.72,2.58,2.58,0,0,0-1.95.72,2.74,2.74,0,0,0-.72,1.44Z"/><path d="M214.45,359.29h-4.8V339h4.8v1.47a5,5,0,0,1,4.11-1.92,6.67,6.67,0,0,1,4.77,1.95,7.61,7.61,0,0,1-.12,10.5,6.44,6.44,0,0,1-4.59,1.86,5.71,5.71,0,0,1-4.17-1.74Zm.78-15.75a3.27,3.27,0,0,0-.93,2.22,3.24,3.24,0,0,0,.93,2.13,3.07,3.07,0,0,0,2.16.9,2.9,2.9,0,0,0,2.13-.9,3.17,3.17,0,0,0,.93-2.13,3.27,3.27,0,0,0-.93-2.22,2.9,2.9,0,0,0-2.13-.9A3.07,3.07,0,0,0,215.23,343.54Z"/><path d="M228.13,339h4.8v2.19a4.33,4.33,0,0,1,1.89-1.86,5.24,5.24,0,0,1,2.49-.54l1,.06v4.53a4.23,4.23,0,0,0-2.07-.48,3.14,3.14,0,0,0-2.19.72,4,4,0,0,0-1.08,3.06v5.73h-4.8Z"/><path d="M253.3,350.65a9.18,9.18,0,0,1-12,0,6.92,6.92,0,0,1,0-9.87,8.37,8.37,0,0,1,6-2.22,8.47,8.47,0,0,1,6,2.22,6.92,6.92,0,0,1,0,9.87Zm-8.13-7.14a3.06,3.06,0,0,0,2.16,5.22,3.05,3.05,0,0,0,2.13-.9,3,3,0,0,0,.93-2.13,3.26,3.26,0,0,0-.93-2.19,3.08,3.08,0,0,0-4.29,0Z"/><path d="M268.27,352.12a7.12,7.12,0,0,1-3.33.75,7.41,7.41,0,0,1-5.28-2,7,7,0,0,1-2.07-5,7.3,7.3,0,0,1,2.16-5.19,7.73,7.73,0,0,1,5.4-2,6.88,6.88,0,0,1,3.12.75v4a4.28,4.28,0,0,0-2.49-.87,3.15,3.15,0,0,0-2.34.93,3.26,3.26,0,0,0-.93,2.31,3.44,3.44,0,0,0,.84,2.25,3.26,3.26,0,0,0,2.46,1,3.63,3.63,0,0,0,2.46-.9Z"/><path d="M285.22,346.6h-10a3.39,3.39,0,0,0,.84,2.25,2.7,2.7,0,0,0,2,.66,3.79,3.79,0,0,0,1.56-.36,2.23,2.23,0,0,0,.84-.9H285a6,6,0,0,1-1.62,2.76c-1,1-2.55,1.86-5.46,1.86a7.61,7.61,0,0,1-5.55-2,7,7,0,0,1-2-5.07,7.16,7.16,0,0,1,2-5.19,7.55,7.55,0,0,1,5.49-1.95,7.35,7.35,0,0,1,5.16,1.83,7.51,7.51,0,0,1,2.13,5.64Zm-4.41-2.76a3.22,3.22,0,0,0-.78-1.44,2.8,2.8,0,0,0-2-.72,2.58,2.58,0,0,0-1.95.72,2.74,2.74,0,0,0-.72,1.44Z"/><path d="M288.85,348a6.87,6.87,0,0,0,1.92,1,6.25,6.25,0,0,0,1.86.33,2,2,0,0,0,1.23-.36.77.77,0,0,0,.24-.63.71.71,0,0,0-.24-.6,3,3,0,0,0-1.26-.48l-1.26-.3a4.31,4.31,0,0,1-2.34-1.17,3.24,3.24,0,0,1-.87-2.31,4.79,4.79,0,0,1,1.26-3.27,6.77,6.77,0,0,1,4.8-1.62,11.07,11.07,0,0,1,4.29.87l-1.62,3.06a6.64,6.64,0,0,0-2.52-.66,2,2,0,0,0-1.11.27.72.72,0,0,0-.42.66.78.78,0,0,0,.57.75c.45.18.84.18,1.59.39l.87.24a5.67,5.67,0,0,1,2,1.05,3.79,3.79,0,0,1,1,2.67,4.48,4.48,0,0,1-1.35,3.33,7,7,0,0,1-4.95,1.68,9.89,9.89,0,0,1-5.4-1.56Z"/><path d="M314.8,350.65a9.18,9.18,0,0,1-12,0,6.92,6.92,0,0,1,0-9.87,8.37,8.37,0,0,1,6-2.22,8.47,8.47,0,0,1,6,2.22,6.92,6.92,0,0,1,0,9.87Zm-8.13-7.14a3.06,3.06,0,0,0,2.16,5.22,3.05,3.05,0,0,0,2.13-.9,3,3,0,0,0,.93-2.13,3.26,3.26,0,0,0-.93-2.19,3.08,3.08,0,0,0-4.29,0Z"/><path d="M319.63,339h4.8v2.19a4.33,4.33,0,0,1,1.89-1.86,5.24,5.24,0,0,1,2.49-.54l1,.06v4.53a4.23,4.23,0,0,0-2.07-.48,3.14,3.14,0,0,0-2.19.72,4,4,0,0,0-1.08,3.06v5.73h-4.8Z"/><path d="M343.06,358.06a19.8,19.8,0,0,1-2.94-6.72,25,25,0,0,1-.87-7,26.33,26.33,0,0,1,1.11-7.86,27.31,27.31,0,0,1,2.7-5.91l3.39,1.8a25.47,25.47,0,0,0-2.22,5.43,27.82,27.82,0,0,0-.84,6.39,31.72,31.72,0,0,0,.72,6.21,20.88,20.88,0,0,0,2.34,5.88Z"/><path d="M359.65,352.12a7.12,7.12,0,0,1-3.33.75,7.41,7.41,0,0,1-5.28-2,7,7,0,0,1-2.07-5,7.3,7.3,0,0,1,2.16-5.19,7.73,7.73,0,0,1,5.4-2,6.88,6.88,0,0,1,3.12.75v4a4.28,4.28,0,0,0-2.49-.87,3.15,3.15,0,0,0-2.34.93,3.26,3.26,0,0,0-.93,2.31,3.44,3.44,0,0,0,.84,2.25,3.26,3.26,0,0,0,2.46,1,3.63,3.63,0,0,0,2.46-.9Z"/><path d="M367.18,359.29h-4.8V339h4.8v1.47a5,5,0,0,1,4.11-1.92,6.67,6.67,0,0,1,4.77,1.95,7.61,7.61,0,0,1-.12,10.5,6.44,6.44,0,0,1-4.59,1.86,5.71,5.71,0,0,1-4.17-1.74Zm.78-15.75a3.27,3.27,0,0,0-.93,2.22,3.24,3.24,0,0,0,.93,2.13,3.07,3.07,0,0,0,2.16.9,2.9,2.9,0,0,0,2.13-.9,3.17,3.17,0,0,0,.93-2.13,3.27,3.27,0,0,0-.93-2.22,2.9,2.9,0,0,0-2.13-.9A3.07,3.07,0,0,0,368,343.54Z"/><path d="M385.66,359.29h-4.8V339h4.8v1.47a5,5,0,0,1,4.11-1.92,6.67,6.67,0,0,1,4.77,1.95,7.61,7.61,0,0,1-.12,10.5,6.44,6.44,0,0,1-4.59,1.86,5.71,5.71,0,0,1-4.17-1.74Zm.78-15.75a3.27,3.27,0,0,0-.93,2.22,3.24,3.24,0,0,0,.93,2.13,3.07,3.07,0,0,0,2.16.9,2.9,2.9,0,0,0,2.13-.9,3.17,3.17,0,0,0,.93-2.13,3.27,3.27,0,0,0-.93-2.22,2.9,2.9,0,0,0-2.13-.9A3.07,3.07,0,0,0,386.44,343.54Z"/><path d="M399.1,356.26a20.88,20.88,0,0,0,2.34-5.88,31.72,31.72,0,0,0,.72-6.21,27.82,27.82,0,0,0-.84-6.39,25.47,25.47,0,0,0-2.22-5.43l3.39-1.8a27.31,27.31,0,0,1,2.7,5.91,27,27,0,0,1,1.11,7.89,24.9,24.9,0,0,1-.87,7,19.8,19.8,0,0,1-2.94,6.72Z"/><path d="M273.16,378.37h7.59v4h-7.59Z"/><path d="M295.72,372.82h-6.18v3.33h5.85v4.41h-5.85V384h6.18v4.41H284.35v-20h11.37Z"/><rect x="130.94" y="522.5" width="311.56" height="84" rx="12" ry="12" style="fill:none;stroke:#3a5c84;stroke-miterlimit:10;stroke-width:5px"/><path d="M184.63,557.12a7.12,7.12,0,0,1-3.33.75,7.41,7.41,0,0,1-5.28-2,7,7,0,0,1-2.06-5,7.29,7.29,0,0,1,2.15-5.19,7.75,7.75,0,0,1,5.4-2,6.88,6.88,0,0,1,3.12.75v4a4.28,4.28,0,0,0-2.49-.87,3.15,3.15,0,0,0-2.34.93,3.26,3.26,0,0,0-.93,2.31,3.44,3.44,0,0,0,.84,2.25,3.26,3.26,0,0,0,2.46,1,3.63,3.63,0,0,0,2.46-.9Z"/><path d="M200.86,555.65a9.18,9.18,0,0,1-12,0,6.92,6.92,0,0,1,0-9.87,8.37,8.37,0,0,1,6-2.22,8.47,8.47,0,0,1,6,2.22,6.92,6.92,0,0,1,0,9.87Zm-8.13-7.14a3.06,3.06,0,0,0,2.16,5.22,3.05,3.05,0,0,0,2.13-.9,3,3,0,0,0,.93-2.13,3.26,3.26,0,0,0-.93-2.19,3.08,3.08,0,0,0-4.29,0Z"/><path d="M205.69,544h4.8v1.62a5.15,5.15,0,0,1,4-1.86,5.46,5.46,0,0,1,2.58.6,4.19,4.19,0,0,1,1.86,1.92,4.71,4.71,0,0,1,1.83-1.86,5.44,5.44,0,0,1,2.79-.66,5.33,5.33,0,0,1,3.72,1.23,4.93,4.93,0,0,1,1.26,3.69v8.73h-4.8v-6.63c0-1.41-.15-2.37-.69-2.88a1.75,1.75,0,0,0-1.26-.45,1.94,1.94,0,0,0-1.41.54,3.43,3.43,0,0,0-.87,2.55v6.87h-4.8v-6.63a4.29,4.29,0,0,0-.63-2.88,1.86,1.86,0,0,0-1.44-.54,1.69,1.69,0,0,0-1.32.48,4,4,0,0,0-.84,2.94v6.63h-4.8Z"/><path d="M236.68,564.29h-4.8V544h4.8v1.47a5,5,0,0,1,4.11-1.92,6.67,6.67,0,0,1,4.77,2,7.61,7.61,0,0,1-.12,10.5,6.44,6.44,0,0,1-4.59,1.86,5.71,5.71,0,0,1-4.17-1.74Zm.78-15.75a3.27,3.27,0,0,0-.93,2.22,3.24,3.24,0,0,0,.93,2.13,3.07,3.07,0,0,0,2.16.9,2.9,2.9,0,0,0,2.13-.9,3.17,3.17,0,0,0,.93-2.13,3.27,3.27,0,0,0-.93-2.22,2.9,2.9,0,0,0-2.13-.9A3.07,3.07,0,0,0,237.46,548.54Z"/><path d="M252.76,535.73a2.7,2.7,0,1,1-2.7,2.7A2.69,2.69,0,0,1,252.76,535.73Zm2.4,8.28v13.41h-4.8V544Z"/><path d="M263.23,535.55v21.87h-4.8V535.55Z"/><path d="M276.88,544h4.8v13.41h-4.8V556a5,5,0,0,1-4.17,1.92,6.42,6.42,0,0,1-4.83-2.13,6.76,6.76,0,0,1-1.92-4.92,7.42,7.42,0,0,1,2.07-5.37,6.9,6.9,0,0,1,4.83-1.89,5.31,5.31,0,0,1,4,1.74Zm-5,4.5a3.14,3.14,0,0,0-1,2.19,3.09,3.09,0,0,0,.93,2.19,3.37,3.37,0,0,0,2.16.9,3.08,3.08,0,0,0,2.16-.93,2.91,2.91,0,0,0,.9-2.16,3,3,0,0,0-.93-2.19,3,3,0,0,0-4.26,0Z"/><path d="M290.29,547.94v9.48h-4.8v-9.48H284V544h1.53V539.6h4.8V544H293v3.93Z"/><path d="M308.32,555.65a9.18,9.18,0,0,1-12,0,6.92,6.92,0,0,1,0-9.87,8.37,8.37,0,0,1,6-2.22,8.47,8.47,0,0,1,6,2.22,6.92,6.92,0,0,1,0,9.87Zm-8.13-7.14a3.06,3.06,0,0,0,2.16,5.22,3.05,3.05,0,0,0,2.13-.9,3,3,0,0,0,.93-2.13,3.26,3.26,0,0,0-.93-2.19,3.08,3.08,0,0,0-4.29,0Z"/><path d="M313.15,544H318v2.19a4.33,4.33,0,0,1,1.89-1.86,5.24,5.24,0,0,1,2.49-.54l1,.06v4.53a4.23,4.23,0,0,0-2.07-.48,3.14,3.14,0,0,0-2.19.72,4,4,0,0,0-1.08,3.06v5.73h-4.8Z"/><path d="M336.58,563.06a19.8,19.8,0,0,1-2.94-6.72,25,25,0,0,1-.87-7,26.33,26.33,0,0,1,1.11-7.86,27.31,27.31,0,0,1,2.7-5.91l3.39,1.8a25.47,25.47,0,0,0-2.22,5.43,27.82,27.82,0,0,0-.84,6.39,31.72,31.72,0,0,0,.72,6.21,20.88,20.88,0,0,0,2.34,5.88Z"/><path d="M353.17,557.12a7.12,7.12,0,0,1-3.33.75,7.41,7.41,0,0,1-5.28-2,7,7,0,0,1-2.07-5,7.3,7.3,0,0,1,2.16-5.19,7.73,7.73,0,0,1,5.4-2,6.88,6.88,0,0,1,3.12.75v4a4.28,4.28,0,0,0-2.49-.87,3.15,3.15,0,0,0-2.34.93,3.26,3.26,0,0,0-.93,2.31,3.44,3.44,0,0,0,.84,2.25,3.26,3.26,0,0,0,2.46,1,3.63,3.63,0,0,0,2.46-.9Z"/><path d="M366,557.12a7.12,7.12,0,0,1-3.33.75,7.41,7.41,0,0,1-5.28-2,7,7,0,0,1-2.07-5,7.3,7.3,0,0,1,2.16-5.19,7.73,7.73,0,0,1,5.4-2,6.88,6.88,0,0,1,3.12.75v4a4.28,4.28,0,0,0-2.49-.87,3.15,3.15,0,0,0-2.34.93,3.26,3.26,0,0,0-.93,2.31,3.44,3.44,0,0,0,.84,2.25,3.26,3.26,0,0,0,2.46,1,3.63,3.63,0,0,0,2.46-.9Z"/><path d="M374.14,541.82h-2.85v-4.41h8v20h-5.19Z"/><path d="M386.53,561.26a20.88,20.88,0,0,0,2.34-5.88,31.72,31.72,0,0,0,.72-6.21,27.82,27.82,0,0,0-.84-6.39,25.47,25.47,0,0,0-2.22-5.43l3.39-1.8a27.31,27.31,0,0,1,2.7,5.91,27,27,0,0,1,1.11,7.89,24.9,24.9,0,0,1-.87,7,19.8,19.8,0,0,1-2.94,6.72Z"/><path d="M271.93,583.37h7.59v4h-7.59Z"/><path d="M284.44,587.42a7,7,0,0,0,4.59,2,2.63,2.63,0,0,0,2-.69,1.79,1.79,0,0,0,.51-1.26,1.56,1.56,0,0,0-.57-1.2,7.21,7.21,0,0,0-2.58-1l-1.35-.42a6.54,6.54,0,0,1-2.88-1.62,5,5,0,0,1-1.14-3.54,6.54,6.54,0,0,1,1.83-4.83A7.05,7.05,0,0,1,290,573a14.06,14.06,0,0,1,6.18,1.62l-2.07,4a5.28,5.28,0,0,0-3.42-1.35,2.49,2.49,0,0,0-1.71.6,1.48,1.48,0,0,0-.51,1.08,1.34,1.34,0,0,0,.27.9,3.28,3.28,0,0,0,1.74.9l1.59.48a7.64,7.64,0,0,1,3.63,2,4.72,4.72,0,0,1,1.29,3.57,6.78,6.78,0,0,1-1.89,5,7.76,7.76,0,0,1-5.91,2,10.7,10.7,0,0,1-3.93-.66,14,14,0,0,1-3-1.59Z"/><rect x="130.94" y="726.5" width="311.56" height="84" rx="12" ry="12" style="fill:none;stroke:#3a5c84;stroke-miterlimit:10;stroke-width:5px"/><path d="M199.5,748h4.8v13.41h-4.8V760a5,5,0,0,1-4.17,1.92,6.42,6.42,0,0,1-4.83-2.13,6.76,6.76,0,0,1-1.92-4.92,7.42,7.42,0,0,1,2.07-5.37,6.9,6.9,0,0,1,4.83-1.89,5.31,5.31,0,0,1,4,1.74Zm-5,4.5a3.14,3.14,0,0,0-1,2.19,3.09,3.09,0,0,0,.93,2.19,3.37,3.37,0,0,0,2.16.9,3.08,3.08,0,0,0,2.16-.93,2.91,2.91,0,0,0,.9-2.16,3,3,0,0,0-.93-2.19,3,3,0,0,0-4.26,0Z"/><path d="M208.47,757a6.87,6.87,0,0,0,1.92,1,6.25,6.25,0,0,0,1.86.33,2,2,0,0,0,1.23-.36.77.77,0,0,0,.24-.63.71.71,0,0,0-.24-.6,3,3,0,0,0-1.26-.48l-1.26-.3a4.31,4.31,0,0,1-2.34-1.17,3.24,3.24,0,0,1-.87-2.31,4.79,4.79,0,0,1,1.26-3.27,6.77,6.77,0,0,1,4.8-1.62,11.07,11.07,0,0,1,4.29.87l-1.62,3.06a6.64,6.64,0,0,0-2.52-.66,2,2,0,0,0-1.11.27.72.72,0,0,0-.42.66.78.78,0,0,0,.57.75c.45.18.84.18,1.59.39l.87.24a5.67,5.67,0,0,1,2,1.05,3.79,3.79,0,0,1,1,2.67,4.48,4.48,0,0,1-1.35,3.33,7,7,0,0,1-5,1.68,9.89,9.89,0,0,1-5.4-1.56Z"/><path d="M231.3,748h4.8v13.41h-4.8V760a5,5,0,0,1-4.17,1.92,6.42,6.42,0,0,1-4.83-2.13,6.76,6.76,0,0,1-1.92-4.92,7.42,7.42,0,0,1,2.07-5.37,6.9,6.9,0,0,1,4.83-1.89,5.31,5.31,0,0,1,4,1.74Zm-5,4.5a3.14,3.14,0,0,0-1,2.19,3.09,3.09,0,0,0,.93,2.19,3.37,3.37,0,0,0,2.16.9,3.08,3.08,0,0,0,2.16-.93,2.91,2.91,0,0,0,.9-2.16,3,3,0,0,0-.93-2.19,3,3,0,0,0-4.26,0Z"/><path d="M239.4,748h4.8v1.62a5.15,5.15,0,0,1,4-1.86,5.46,5.46,0,0,1,2.58.6,4.19,4.19,0,0,1,1.86,1.92,4.71,4.71,0,0,1,1.83-1.86,5.44,5.44,0,0,1,2.79-.66A5.33,5.33,0,0,1,261,749a4.93,4.93,0,0,1,1.26,3.69v8.73h-4.8v-6.63c0-1.41-.15-2.37-.69-2.88a1.75,1.75,0,0,0-1.26-.45,1.94,1.94,0,0,0-1.41.54,3.43,3.43,0,0,0-.87,2.55v6.87h-4.8v-6.63a4.29,4.29,0,0,0-.63-2.88,1.86,1.86,0,0,0-1.44-.54,1.69,1.69,0,0,0-1.32.48,4,4,0,0,0-.84,2.94v6.63h-4.8Z"/><path d="M270.39,739.55v9.75a5.31,5.31,0,0,1,4-1.74,6.86,6.86,0,0,1,4.74,1.8,7.31,7.31,0,0,1,2.19,5.31,7.4,7.4,0,0,1-2.16,5.34,6.42,6.42,0,0,1-4.71,1.86,4.92,4.92,0,0,1-4.05-1.92v1.47h-4.8V739.55Zm5.07,17.34a3,3,0,0,0,.93-2.1,3.29,3.29,0,0,0-.93-2.28,3.08,3.08,0,0,0-4.32,0,3.51,3.51,0,0,0-.9,2.16,3.22,3.22,0,0,0,1,2.28,3.28,3.28,0,0,0,2.07.81A3,3,0,0,0,275.46,756.89Z"/><path d="M288.87,739.55v21.87h-4.8V739.55Z"/><path d="M305.64,759.65a9.18,9.18,0,0,1-12,0,6.92,6.92,0,0,1,0-9.87,8.37,8.37,0,0,1,6-2.22,8.47,8.47,0,0,1,6,2.22,6.92,6.92,0,0,1,0,9.87Zm-8.13-7.14a3.06,3.06,0,0,0,2.16,5.22,3.05,3.05,0,0,0,2.13-.9,3,3,0,0,0,.93-2.13,3.26,3.26,0,0,0-.93-2.19,3.08,3.08,0,0,0-4.29,0Z"/><path d="M310.47,748h4.8v2.19a4.33,4.33,0,0,1,1.89-1.86,5.24,5.24,0,0,1,2.49-.54l1,.06v4.53a4.23,4.23,0,0,0-2.07-.48,3.14,3.14,0,0,0-2.19.72,4,4,0,0,0-1.08,3.06v5.73h-4.8Z"/><path d="M333.9,767.06a19.8,19.8,0,0,1-2.94-6.72,25,25,0,0,1-.87-7,26.33,26.33,0,0,1,1.11-7.86,27.31,27.31,0,0,1,2.7-5.91l3.39,1.8a25.47,25.47,0,0,0-2.22,5.43,27.82,27.82,0,0,0-.84,6.39,31.72,31.72,0,0,0,.72,6.21,20.88,20.88,0,0,0,2.34,5.88Z"/><path d="M350.73,748h4.8v13.41h-4.8V760a5,5,0,0,1-4.17,1.92,6.42,6.42,0,0,1-4.83-2.13,6.76,6.76,0,0,1-1.92-4.92,7.42,7.42,0,0,1,2.07-5.37,6.9,6.9,0,0,1,4.83-1.89,5.31,5.31,0,0,1,4,1.74Zm-5,4.5a3.14,3.14,0,0,0-1,2.19,3.09,3.09,0,0,0,.93,2.19,3.37,3.37,0,0,0,2.16.9,3.08,3.08,0,0,0,2.16-.93,2.91,2.91,0,0,0,.9-2.16,3,3,0,0,0-.93-2.19,3,3,0,0,0-4.26,0Z"/><path d="M359.7,757a6.87,6.87,0,0,0,1.92,1,6.25,6.25,0,0,0,1.86.33,2,2,0,0,0,1.23-.36.77.77,0,0,0,.24-.63.71.71,0,0,0-.24-.6,3,3,0,0,0-1.26-.48l-1.26-.3a4.31,4.31,0,0,1-2.34-1.17,3.24,3.24,0,0,1-.87-2.31,4.79,4.79,0,0,1,1.26-3.27,6.77,6.77,0,0,1,4.8-1.62,11.11,11.11,0,0,1,4.29.87l-1.62,3.06a6.69,6.69,0,0,0-2.52-.66,2,2,0,0,0-1.11.27.72.72,0,0,0-.42.66.78.78,0,0,0,.57.75c.45.18.84.18,1.59.39l.87.24a5.67,5.67,0,0,1,2,1.05,3.79,3.79,0,0,1,1,2.67,4.45,4.45,0,0,1-1.36,3.33,6.94,6.94,0,0,1-4.94,1.68,9.89,9.89,0,0,1-5.4-1.56Z"/><path d="M371.91,765.26a20.88,20.88,0,0,0,2.34-5.88,32.51,32.51,0,0,0,.71-6.21,28.37,28.37,0,0,0-.83-6.39,26,26,0,0,0-2.22-5.43l3.38-1.8a24.91,24.91,0,0,1,3.81,13.8,24.9,24.9,0,0,1-.87,7,19.6,19.6,0,0,1-2.94,6.72Z"/><path d="M274.06,787.37h7.59v4h-7.59Z"/><path d="M294.94,797.12a7.12,7.12,0,0,1-3.33.75,7.41,7.41,0,0,1-5.28-2,7,7,0,0,1-2.07-5,7.3,7.3,0,0,1,2.16-5.19,7.73,7.73,0,0,1,5.4-2,6.88,6.88,0,0,1,3.12.75v4a4.28,4.28,0,0,0-2.49-.87,3.15,3.15,0,0,0-2.34.93,3.26,3.26,0,0,0-.93,2.31A3.44,3.44,0,0,0,290,793a3.26,3.26,0,0,0,2.46,1,3.63,3.63,0,0,0,2.46-.9Z"/><rect x="130.94" y="930.5" width="311.56" height="84" rx="12" ry="12" style="fill:none;stroke:#3a5c84;stroke-miterlimit:10;stroke-width:5px"/><rect x="512.21" y="708" width="239.06" height="159" rx="12" ry="12" style="fill:none;stroke:#e34758;stroke-miterlimit:10;stroke-width:5px"/><path d="M223.17,958.55v21.87h-4.8V958.55Z"/><path d="M228.84,958.73a2.7,2.7,0,1,1-2.7,2.7A2.69,2.69,0,0,1,228.84,958.73Zm2.4,8.28v13.41h-4.8V967Z"/><path d="M234.51,967h4.8v1.68a5.06,5.06,0,0,1,4.26-2,5.42,5.42,0,0,1,4,1.44,4.62,4.62,0,0,1,1.26,3.75v8.52H244v-6.78a3.85,3.85,0,0,0-.6-2.61,2,2,0,0,0-1.53-.57,2.63,2.63,0,0,0-1.77.63,3.08,3.08,0,0,0-.78,2.13v7.2h-4.8Z"/><path d="M256.86,958.55v13.29l4.53-4.83h6.51l-6.33,6.18,6.84,7.23h-6.66l-4.89-5.49v5.49h-4.8V958.55Z"/><path d="M283.71,974.6h-10a3.39,3.39,0,0,0,.84,2.25,2.7,2.7,0,0,0,2,.66,3.79,3.79,0,0,0,1.56-.36,2.23,2.23,0,0,0,.84-.9h4.59a6,6,0,0,1-1.62,2.76c-1,1-2.55,1.86-5.46,1.86a7.61,7.61,0,0,1-5.55-2,7,7,0,0,1-2-5.07,7.16,7.16,0,0,1,2-5.19,7.55,7.55,0,0,1,5.49-2,7.35,7.35,0,0,1,5.16,1.83,7.51,7.51,0,0,1,2.13,5.64Zm-4.41-2.76a3.22,3.22,0,0,0-.78-1.44,2.8,2.8,0,0,0-2-.72,2.58,2.58,0,0,0-2,.72,2.74,2.74,0,0,0-.72,1.44Z"/><path d="M286.47,967h4.8v2.19a4.33,4.33,0,0,1,1.89-1.86,5.24,5.24,0,0,1,2.49-.54l1,.06v4.53a4.23,4.23,0,0,0-2.07-.48,3.14,3.14,0,0,0-2.19.72,4,4,0,0,0-1.08,3.06v5.73h-4.8Z"/><path d="M309.9,986.06a19.8,19.8,0,0,1-2.94-6.72,25,25,0,0,1-.87-7,26.33,26.33,0,0,1,1.11-7.86,27.31,27.31,0,0,1,2.7-5.91l3.39,1.8a25.47,25.47,0,0,0-2.22,5.43,27.82,27.82,0,0,0-.84,6.39,31.72,31.72,0,0,0,.72,6.21,20.88,20.88,0,0,0,2.34,5.88Z"/><path d="M321.15,958.55v21.87h-4.8V958.55Z"/><path d="M339.6,980.42h-4.8V979a4.92,4.92,0,0,1-4.05,1.92A6.42,6.42,0,0,1,326,979a7.4,7.4,0,0,1-2.16-5.34,7.31,7.31,0,0,1,2.19-5.31,6.86,6.86,0,0,1,4.74-1.8,5.31,5.31,0,0,1,4,1.74v-9.75h4.8ZM333.93,976a3.22,3.22,0,0,0,1-2.28,3.51,3.51,0,0,0-.9-2.16,3.08,3.08,0,0,0-4.32,0,3.29,3.29,0,0,0-.93,2.28,3,3,0,0,0,.93,2.1,3,3,0,0,0,2.13.9A3.28,3.28,0,0,0,333.93,976Z"/><path d="M342.66,984.26a20.88,20.88,0,0,0,2.34-5.88,31.72,31.72,0,0,0,.72-6.21,27.82,27.82,0,0,0-.84-6.39,25.47,25.47,0,0,0-2.22-5.43l3.39-1.8a27.31,27.31,0,0,1,2.7,5.91,27,27,0,0,1,1.11,7.89,24.9,24.9,0,0,1-.87,7,19.8,19.8,0,0,1-2.94,6.72Z"/><path d="M328.21,444.05H333v10.14a5.85,5.85,0,0,1,1.5-1.32,6.14,6.14,0,0,1,6.72.78,4.68,4.68,0,0,1,1.26,3.75v8.52h-4.8v-6.78a4,4,0,0,0-.6-2.61,1.9,1.9,0,0,0-1.53-.57,2.57,2.57,0,0,0-1.74.57,2.92,2.92,0,0,0-.81,2.19v7.2h-4.8Z"/><path d="M359.38,460.1h-10a3.39,3.39,0,0,0,.84,2.25,2.7,2.7,0,0,0,2,.66,3.79,3.79,0,0,0,1.56-.36,2.23,2.23,0,0,0,.84-.9h4.59a6,6,0,0,1-1.62,2.76c-1,1-2.55,1.86-5.46,1.86a7.61,7.61,0,0,1-5.55-2,7,7,0,0,1-2-5.07,7.16,7.16,0,0,1,2-5.19,7.55,7.55,0,0,1,5.49-1.95,7.35,7.35,0,0,1,5.16,1.83,7.51,7.51,0,0,1,2.13,5.64ZM355,457.34a3.22,3.22,0,0,0-.78-1.44,2.8,2.8,0,0,0-2-.72,2.58,2.58,0,0,0-1.95.72,2.74,2.74,0,0,0-.72,1.44Z"/><path d="M366.94,444.05v21.87h-4.8V444.05Z"/><path d="M375,444.05v21.87h-4.8V444.05Z"/><path d="M391.78,464.15a9.18,9.18,0,0,1-12,0,6.92,6.92,0,0,1,0-9.87,8.37,8.37,0,0,1,6-2.22,8.47,8.47,0,0,1,6,2.22,6.92,6.92,0,0,1,0,9.87ZM383.65,457a3.06,3.06,0,0,0,2.16,5.22,3.05,3.05,0,0,0,2.13-.9,3,3,0,0,0,.93-2.13,3.26,3.26,0,0,0-.93-2.19,3.08,3.08,0,0,0-4.29,0Z"/><path d="M397.33,465.56a3.12,3.12,0,0,1,2.19-5.31,3.15,3.15,0,0,1,2.22,1,3.12,3.12,0,0,1,0,4.35,3.07,3.07,0,0,1-2.19.93A3,3,0,0,1,397.33,465.56Z"/><path d="M408.1,444.23a2.7,2.7,0,1,1-2.7,2.7A2.69,2.69,0,0,1,408.1,444.23Zm2.4,8.28v13.41h-4.8V452.51Z"/><path d="M328.21,652.05H333v10.14a5.85,5.85,0,0,1,1.5-1.32,6.14,6.14,0,0,1,6.72.78,4.68,4.68,0,0,1,1.26,3.75v8.52h-4.8v-6.78a4,4,0,0,0-.6-2.61,1.9,1.9,0,0,0-1.53-.57,2.57,2.57,0,0,0-1.74.57,2.92,2.92,0,0,0-.81,2.19v7.2h-4.8Z"/><path d="M359.38,668.1h-10a3.39,3.39,0,0,0,.84,2.25,2.7,2.7,0,0,0,2,.66,3.79,3.79,0,0,0,1.56-.36,2.23,2.23,0,0,0,.84-.9h4.59a6,6,0,0,1-1.62,2.76c-1,1-2.55,1.86-5.46,1.86a7.61,7.61,0,0,1-5.55-2,7,7,0,0,1-2-5.07,7.16,7.16,0,0,1,2-5.19,7.55,7.55,0,0,1,5.49-2,7.35,7.35,0,0,1,5.16,1.83,7.51,7.51,0,0,1,2.13,5.64ZM355,665.34a3.22,3.22,0,0,0-.78-1.44,2.8,2.8,0,0,0-2-.72,2.58,2.58,0,0,0-1.95.72,2.74,2.74,0,0,0-.72,1.44Z"/><path d="M366.94,652.05v21.87h-4.8V652.05Z"/><path d="M375,652.05v21.87h-4.8V652.05Z"/><path d="M391.78,672.15a9.18,9.18,0,0,1-12,0,6.92,6.92,0,0,1,0-9.87,8.37,8.37,0,0,1,6-2.22,8.47,8.47,0,0,1,6,2.22,6.92,6.92,0,0,1,0,9.87ZM383.65,665a3.06,3.06,0,0,0,2.16,5.22,3.05,3.05,0,0,0,2.13-.9,3,3,0,0,0,.93-2.13,3.26,3.26,0,0,0-.93-2.19,3.08,3.08,0,0,0-4.29,0Z"/><path d="M397.33,673.56a3.12,3.12,0,0,1,2.19-5.31,3.15,3.15,0,0,1,2.22,1,3.12,3.12,0,0,1,0,4.35,3.07,3.07,0,0,1-2.19.93A3,3,0,0,1,397.33,673.56Z"/><path d="M406.57,669.48a6.87,6.87,0,0,0,1.92,1,6.25,6.25,0,0,0,1.86.33,2,2,0,0,0,1.23-.36.77.77,0,0,0,.24-.63.71.71,0,0,0-.24-.6,3,3,0,0,0-1.26-.48l-1.26-.3a4.31,4.31,0,0,1-2.34-1.17,3.24,3.24,0,0,1-.87-2.31,4.79,4.79,0,0,1,1.26-3.27,6.77,6.77,0,0,1,4.8-1.62,11.07,11.07,0,0,1,4.29.87L414.58,664a6.64,6.64,0,0,0-2.52-.66,2,2,0,0,0-1.11.27.72.72,0,0,0-.42.66.78.78,0,0,0,.57.75c.45.18.84.18,1.59.39l.87.24a5.67,5.67,0,0,1,2,1.05,3.79,3.79,0,0,1,1,2.67,4.48,4.48,0,0,1-1.35,3.33,7,7,0,0,1-4.95,1.68,9.89,9.89,0,0,1-5.4-1.56Z"/><path d="M328.21,858.05H333v10.14a5.85,5.85,0,0,1,1.5-1.32,6.14,6.14,0,0,1,6.72.78,4.68,4.68,0,0,1,1.26,3.75v8.52h-4.8v-6.78a4,4,0,0,0-.6-2.61,1.9,1.9,0,0,0-1.53-.57,2.57,2.57,0,0,0-1.74.57,2.92,2.92,0,0,0-.81,2.19v7.2h-4.8Z"/><path d="M359.38,874.1h-10a3.39,3.39,0,0,0,.84,2.25,2.7,2.7,0,0,0,2,.66,3.79,3.79,0,0,0,1.56-.36,2.23,2.23,0,0,0,.84-.9h4.59a6,6,0,0,1-1.62,2.76c-1,1-2.55,1.86-5.46,1.86a7.61,7.61,0,0,1-5.55-2,7,7,0,0,1-2-5.07,7.16,7.16,0,0,1,2-5.19,7.55,7.55,0,0,1,5.49-2,7.35,7.35,0,0,1,5.16,1.83,7.51,7.51,0,0,1,2.13,5.64ZM355,871.34a3.22,3.22,0,0,0-.78-1.44,2.8,2.8,0,0,0-2-.72,2.58,2.58,0,0,0-1.95.72,2.74,2.74,0,0,0-.72,1.44Z"/><path d="M366.94,858.05v21.87h-4.8V858.05Z"/><path d="M375,858.05v21.87h-4.8V858.05Z"/><path d="M391.78,878.15a9.18,9.18,0,0,1-12,0,6.92,6.92,0,0,1,0-9.87,8.37,8.37,0,0,1,6-2.22,8.47,8.47,0,0,1,6,2.22,6.92,6.92,0,0,1,0,9.87ZM383.65,871a3.06,3.06,0,0,0,2.16,5.22,3.05,3.05,0,0,0,2.13-.9,3,3,0,0,0,.93-2.13,3.26,3.26,0,0,0-.93-2.19,3.08,3.08,0,0,0-4.29,0Z"/><path d="M397.33,879.56a3.12,3.12,0,0,1,2.19-5.31,3.15,3.15,0,0,1,2.22,1,3.12,3.12,0,0,1,0,4.35,3.07,3.07,0,0,1-2.19.93A3,3,0,0,1,397.33,879.56Z"/><path d="M419.2,878.15a9.18,9.18,0,0,1-12,0,6.92,6.92,0,0,1,0-9.87,8.37,8.37,0,0,1,6-2.22,8.47,8.47,0,0,1,6,2.22,6.92,6.92,0,0,1,0,9.87ZM411.07,871a3.06,3.06,0,0,0,2.16,5.22,3.05,3.05,0,0,0,2.13-.9,3,3,0,0,0,.93-2.13,3.26,3.26,0,0,0-.93-2.19,3.08,3.08,0,0,0-4.29,0Z"/><rect x="33" y="287" width="767.5" height="767.5" rx="12" ry="12" style="fill:none;stroke:#4fc2c9;stroke-miterlimit:10;stroke-width:5px"/><path d="M569.79,798.21v-20h7.74a5.61,5.61,0,0,1,4.38,1.56,5.41,5.41,0,0,1,1.23,3.75,5.19,5.19,0,0,1-.57,2.46,3.15,3.15,0,0,1-1.62,1.56,5,5,0,0,1,2.73,1.2,5,5,0,0,1,1.35,3.66,5.43,5.43,0,0,1-1.47,3.93,7.52,7.52,0,0,1-5.43,1.89ZM575,786.09h1a2.74,2.74,0,0,0,2-.63,1.94,1.94,0,0,0,.48-1.32,2.06,2.06,0,0,0-.48-1.35,2.75,2.75,0,0,0-2-.6h-1Zm0,8.07h1.17c1.44,0,2.64-.15,3.21-.81a2,2,0,0,0,.42-1.29,2,2,0,0,0-.51-1.44c-.63-.63-1.92-.66-3.21-.66H575Z"/><path d="M590.28,776.52a2.7,2.7,0,1,1-2.7,2.7A2.69,2.69,0,0,1,590.28,776.52Zm2.4,8.28v13.41h-4.8V784.8Z"/><path d="M600.75,776.34v9.75a5.31,5.31,0,0,1,4-1.74,6.86,6.86,0,0,1,4.74,1.8,7.31,7.31,0,0,1,2.19,5.31,7.4,7.4,0,0,1-2.16,5.34,6.42,6.42,0,0,1-4.71,1.86,4.92,4.92,0,0,1-4-1.92v1.47H596V776.34Zm5.07,17.34a3,3,0,0,0,.93-2.1,3.29,3.29,0,0,0-.93-2.28,3.08,3.08,0,0,0-4.32,0,3.51,3.51,0,0,0-.9,2.16,3.22,3.22,0,0,0,1,2.28,3.28,3.28,0,0,0,2.07.81A3,3,0,0,0,605.82,793.68Z"/><path d="M619.23,776.34v21.87h-4.8V776.34Z"/><path d="M624.9,776.52a2.7,2.7,0,1,1-2.7,2.7A2.69,2.69,0,0,1,624.9,776.52Zm2.4,8.28v13.41h-4.8V784.8Z"/><path d="M644.07,796.44a9.18,9.18,0,0,1-12,0,6.92,6.92,0,0,1,0-9.87,8.37,8.37,0,0,1,6-2.22,8.47,8.47,0,0,1,6,2.22,6.92,6.92,0,0,1,0,9.87Zm-8.13-7.14a3.06,3.06,0,0,0,2.16,5.22,3.05,3.05,0,0,0,2.13-.9,3,3,0,0,0,.93-2.13,3.26,3.26,0,0,0-.93-2.19,3.08,3.08,0,0,0-4.29,0Z"/><path d="M654.21,788.73v9.48h-4.8v-9.48h-1.53V784.8h1.53v-4.41h4.8v4.41h2.73v3.93Z"/><path d="M673,792.39H663a3.39,3.39,0,0,0,.84,2.25,2.7,2.7,0,0,0,2,.66,3.79,3.79,0,0,0,1.56-.36,2.23,2.23,0,0,0,.84-.9h4.59a6,6,0,0,1-1.62,2.76c-1,1-2.55,1.86-5.46,1.86a7.61,7.61,0,0,1-5.55-2,7,7,0,0,1-2-5.07,7.16,7.16,0,0,1,2-5.19,7.55,7.55,0,0,1,5.49-2,7.35,7.35,0,0,1,5.16,1.83,7.51,7.51,0,0,1,2.13,5.64Zm-4.41-2.76a3.22,3.22,0,0,0-.78-1.44,2.8,2.8,0,0,0-2-.72,2.58,2.58,0,0,0-1.95.72,2.74,2.74,0,0,0-.72,1.44Z"/><path d="M685.86,797.91a7.12,7.12,0,0,1-3.33.75,7.41,7.41,0,0,1-5.28-2,7,7,0,0,1-2.07-5,7.3,7.3,0,0,1,2.16-5.19,7.73,7.73,0,0,1,5.4-2,6.88,6.88,0,0,1,3.12.75v4a4.28,4.28,0,0,0-2.49-.87,3.15,3.15,0,0,0-2.34.93,3.26,3.26,0,0,0-.93,2.31,3.44,3.44,0,0,0,.84,2.25,3.26,3.26,0,0,0,2.46,1,3.63,3.63,0,0,0,2.46-.9Z"/><path d="M691,776.52a2.7,2.7,0,1,1-2.7,2.7A2.69,2.69,0,0,1,691,776.52Zm2.4,8.28v13.41h-4.8V784.8Z"/><line x1="638" y1="867" x2="638" y2="965" style="fill:none;stroke:#e34758;stroke-miterlimit:10;stroke-width:5px"/><circle cx="638" cy="972" r="17" style="fill:#e34758"/></svg>