<svg id="Layer_1" data-name="Layer 1" xmlns="http://www.w3.org/2000/svg" viewBox="0 0 1366 284"><title>Cap 6 -</title><polygon points="208.61 133.18 317.96 132.57 318.04 148.33 351.35 114.65 317.67 81.35 317.76 97.11 208.41 97.72 208.61 133.18" style="fill:none;stroke:#3a5c84;stroke-miterlimit:10;stroke-width:5px"/><polygon points="659.61 133.18 768.96 132.57 769.04 148.33 802.35 114.65 768.67 81.35 768.76 97.11 659.41 97.72 659.61 133.18" style="fill:none;stroke:#3a5c84;stroke-miterlimit:10;stroke-width:5px"/><polygon points="1008.61 133.18 1117.96 132.57 1118.04 148.33 1151.35 114.65 1117.67 81.35 1117.76 97.11 1008.41 97.72 1008.61 133.18" style="fill:none;stroke:#3a5c84;stroke-miterlimit:10;stroke-width:5px"/><rect x="830.11" y="66.34" width="142.83" height="96" rx="12" ry="12" style="fill:none;stroke:#4fc2c9;stroke-miterlimit:10;stroke-width:5px"/><line x1="829.92" y1="87.22" x2="972.75" y2="87.22" style="fill:none;stroke:#4fc2c9;stroke-miterlimit:10;stroke-width:5px"/><circle cx="942.11" cy="76.49" r="3.12" style="fill:#4fc2c9"/><circle cx="952.26" cy="76.49" r="3.12" style="fill:#4fc2c9"/><circle cx="961.63" cy="76.49" r="3.12" style="fill:#4fc2c9"/><path d="M147,88.84a37,37,0,1,0-47.44,35.5,11.91,11.91,0,0,0-3.56,8.5v14a12,12,0,0,0,12,12h4a12,12,0,0,0,12-12v-14a11.91,11.91,0,0,0-3.56-8.5A37,37,0,0,0,147,88.84Z" style="fill:none;stroke:#f4c240;stroke-miterlimit:10;stroke-width:5px"/><line x1="95" y1="134.84" x2="124" y2="134.84" style="fill:none;stroke:#f4c240;stroke-miterlimit:10;stroke-width:5px"/><rect x="107.5" y="25.34" width="4" height="14" rx="2" ry="2" style="fill:none;stroke:#f4c240;stroke-miterlimit:10;stroke-width:5px"/><rect x="158.5" y="90.34" width="14" height="4" rx="2" ry="2" style="fill:none;stroke:#f4c240;stroke-miterlimit:10;stroke-width:5px"/><rect x="44.5" y="90.34" width="14" height="4" rx="2" ry="2" style="fill:none;stroke:#f4c240;stroke-miterlimit:10;stroke-width:5px"/><rect x="61.5" y="44.34" width="4" height="14" rx="2" ry="2" transform="translate(-17.7 59.94) rotate(-45)" style="fill:none;stroke:#f4c240;stroke-miterlimit:10;stroke-width:5px"/><rect x="146.5" y="128.34" width="4" height="14" rx="2" ry="2" transform="translate(-52.21 144.65) rotate(-45)" style="fill:none;stroke:#f4c240;stroke-miterlimit:10;stroke-width:5px"/><rect x="56.5" y="133.34" width="14" height="4" rx="2" ry="2" transform="translate(-77.1 84.54) rotate(-45)" style="fill:none;stroke:#f4c240;stroke-miterlimit:10;stroke-width:5px"/><rect x="141.5" y="49.34" width="14" height="4" rx="2" ry="2" transform="translate(7.19 120.04) rotate(-45)" style="fill:none;stroke:#f4c240;stroke-miterlimit:10;stroke-width:5px"/><path d="M506.5,44.34h-99a12,12,0,0,0-12,12v72a12,12,0,0,0,12,12h7.41l19.59,19.59,19.59-19.59H506.5a12,12,0,0,0,12-12v-72A12,12,0,0,0,506.5,44.34Z" style="fill:none;stroke:#eb6a38;stroke-miterlimit:10;stroke-width:5px"/><path d="M513.5,58.34h99a12,12,0,0,1,12,12v72a12,12,0,0,1-12,12h-7.41L585.5,173.93l-19.59-19.59H513.5a12,12,0,0,1-12-12v-72A12,12,0,0,1,513.5,58.34Z" style="fill:none;stroke:#eb6a38;stroke-miterlimit:10;stroke-width:5px"/><path d="M466.5,113.93c-4.11,1.49-6.37,2-8.93,2a21.58,21.58,0,0,1-15.36-6,20.84,20.84,0,0,1-6-14.47,20.83,20.83,0,0,1,21-20.83,24.52,24.52,0,0,1,9.29,2V89a11.06,11.06,0,0,0-9-4.34,10,10,0,0,0-7.14,2.62,11.1,11.1,0,0,0-3.46,8.15,10.18,10.18,0,0,0,10.6,10.48,11.67,11.67,0,0,0,9-4.16Z"/><path d="M537,91.52v16.71c0,2.25-.18,3.92-2.08,5.82a7.84,7.84,0,0,1-5.93,2.29,6.45,6.45,0,0,1-3.82-1.09,8.64,8.64,0,0,1-2.4-2.48l4.11-4.22a3.39,3.39,0,0,0,.87,1.93,2.19,2.19,0,0,0,1.21.44,1.81,1.81,0,0,0,1.09-.4,3.78,3.78,0,0,0,.65-2.44V91.52Z"/><path d="M554.14,99.53H560v16.26h-5.82V114a6.07,6.07,0,0,1-5.06,2.33,7.8,7.8,0,0,1-5.86-2.58,8.24,8.24,0,0,1-2.33-6,9,9,0,0,1,2.51-6.52A8.4,8.4,0,0,1,549.26,99a6.46,6.46,0,0,1,4.88,2.11ZM548,105a3.65,3.65,0,0,0,0,5.31,4.11,4.11,0,0,0,2.62,1.09,3.74,3.74,0,0,0,2.62-1.13,3.53,3.53,0,0,0,1.09-2.62,3.59,3.59,0,0,0-1.13-2.65,3.68,3.68,0,0,0-5.17,0Z"/><path d="M568.48,99.53l3.89,8.33,4-8.33h6.48l-8.48,16.26h-4L562,99.53Z"/><path d="M597.41,99.53h5.82v16.26h-5.82V114a6.07,6.07,0,0,1-5.06,2.33,7.8,7.8,0,0,1-5.86-2.58,8.24,8.24,0,0,1-2.33-6,9,9,0,0,1,2.51-6.52A8.4,8.4,0,0,1,592.53,99a6.46,6.46,0,0,1,4.88,2.11ZM591.29,105a3.65,3.65,0,0,0,0,5.31,4.11,4.11,0,0,0,2.62,1.09,3.74,3.74,0,0,0,2.62-1.13,3.53,3.53,0,0,0,1.09-2.62,3.59,3.59,0,0,0-1.13-2.65,3.68,3.68,0,0,0-5.17,0Z"/><rect x="1175.5" y="53.34" width="146" height="88" rx="12" ry="12" style="fill:none;stroke:#91c54f;stroke-miterlimit:10;stroke-width:5px"/><rect x="1225" y="140.84" width="47" height="16" rx="8" ry="8" style="fill:#91c54f"/><rect x="1194.5" y="155.34" width="108" height="22" rx="8" ry="8" style="fill:none;stroke:#91c54f;stroke-miterlimit:10;stroke-width:5px"/><circle cx="1206.5" cy="163.34" r="2" style="fill:#91c54f"/><circle cx="1206.5" cy="169.34" r="2" style="fill:#91c54f"/><ellipse cx="1211.75" cy="163.59" rx="1.25" ry="2.25" transform="translate(239.24 904.75) rotate(-45)" style="fill:#91c54f"/><circle cx="1212.5" cy="169.34" r="2" style="fill:#91c54f"/><rect x="1264.5" y="164.34" width="31" height="3" rx="1.5" ry="1.5" style="fill:#91c54f"/><path d="M84.38,202.2v20H79.19v-20Z"/><path d="M103.31,222.21h-4.8v-1.47a4.92,4.92,0,0,1-4.05,1.92,6.42,6.42,0,0,1-4.71-1.86,7.4,7.4,0,0,1-2.16-5.34,7.31,7.31,0,0,1,2.19-5.31,6.86,6.86,0,0,1,4.74-1.8,5.31,5.31,0,0,1,4,1.74v-9.75h4.8Zm-5.67-4.44a3.22,3.22,0,0,0,1-2.28,3.51,3.51,0,0,0-.9-2.16,3.08,3.08,0,0,0-4.32,0,3.29,3.29,0,0,0-.93,2.28,3,3,0,0,0,.93,2.1,3,3,0,0,0,2.13.9A3.28,3.28,0,0,0,97.64,217.77Z"/><path d="M120.83,216.39h-10a3.39,3.39,0,0,0,.84,2.25,2.7,2.7,0,0,0,2,.66,3.79,3.79,0,0,0,1.56-.36,2.23,2.23,0,0,0,.84-.9h4.59A6,6,0,0,1,119,220.8c-1,1-2.55,1.86-5.46,1.86a7.61,7.61,0,0,1-5.55-2,7,7,0,0,1-2-5.07,7.16,7.16,0,0,1,2-5.19,7.55,7.55,0,0,1,5.49-2,7.35,7.35,0,0,1,5.16,1.83,7.51,7.51,0,0,1,2.13,5.64Zm-4.41-2.76a3.22,3.22,0,0,0-.78-1.44,2.8,2.8,0,0,0-2-.72,2.58,2.58,0,0,0-2,.72,2.74,2.74,0,0,0-.72,1.44Z"/><path d="M137.81,216.39h-10a3.39,3.39,0,0,0,.84,2.25,2.7,2.7,0,0,0,2,.66,3.79,3.79,0,0,0,1.56-.36,2.23,2.23,0,0,0,.84-.9h4.59A6,6,0,0,1,136,220.8c-1,1-2.55,1.86-5.46,1.86a7.61,7.61,0,0,1-5.55-2,7,7,0,0,1-2-5.07,7.16,7.16,0,0,1,2-5.19,7.55,7.55,0,0,1,5.49-2,7.35,7.35,0,0,1,5.16,1.83,7.51,7.51,0,0,1,2.13,5.64Zm-4.41-2.76a3.22,3.22,0,0,0-.78-1.44,2.8,2.8,0,0,0-2-.72,2.58,2.58,0,0,0-1.95.72,2.74,2.74,0,0,0-.72,1.44Z"/><path d="M470.21,202.2v15.6h6.24v4.41H465v-20Z"/><path d="M481.07,200.52a2.7,2.7,0,1,1-2.7,2.7A2.68,2.68,0,0,1,481.07,200.52Zm2.4,8.28v13.41h-4.8V208.8Z"/><path d="M486.74,208.8h4.79v1.62a5.17,5.17,0,0,1,4-1.86,5.46,5.46,0,0,1,2.58.6,4.19,4.19,0,0,1,1.86,1.92,4.71,4.71,0,0,1,1.83-1.86,5.44,5.44,0,0,1,2.79-.66,5.33,5.33,0,0,1,3.72,1.23,4.93,4.93,0,0,1,1.26,3.69v8.73h-4.8v-6.63c0-1.41-.15-2.37-.69-2.88a1.75,1.75,0,0,0-1.26-.45,1.94,1.94,0,0,0-1.41.54,3.43,3.43,0,0,0-.87,2.55v6.87h-4.8v-6.63a4.35,4.35,0,0,0-.62-2.88,1.87,1.87,0,0,0-1.44-.54,1.7,1.7,0,0,0-1.33.48,4,4,0,0,0-.84,2.94v6.63h-4.79Z"/><path d="M517.72,200.34v9.75a5.31,5.31,0,0,1,4-1.74,6.86,6.86,0,0,1,4.74,1.8,7.31,7.31,0,0,1,2.19,5.31,7.4,7.4,0,0,1-2.16,5.34,6.42,6.42,0,0,1-4.71,1.86,4.92,4.92,0,0,1-4-1.92v1.47h-4.8V200.34Zm5.07,17.34a3,3,0,0,0,.93-2.1,3.29,3.29,0,0,0-.93-2.28,3.08,3.08,0,0,0-4.32,0,3.51,3.51,0,0,0-.9,2.16,3.22,3.22,0,0,0,1,2.28,3.28,3.28,0,0,0,2.07.81A3,3,0,0,0,522.79,217.68Z"/><path d="M541.78,208.8h4.8v13.41h-4.8v-1.47a5,5,0,0,1-4.17,1.92,6.42,6.42,0,0,1-4.83-2.13,6.76,6.76,0,0,1-1.92-4.92,7.42,7.42,0,0,1,2.07-5.37,6.9,6.9,0,0,1,4.83-1.89,5.31,5.31,0,0,1,4,1.74Zm-5,4.5a3.14,3.14,0,0,0-1,2.19,3.09,3.09,0,0,0,.93,2.19,3.37,3.37,0,0,0,2.16.9,3.08,3.08,0,0,0,2.16-.93,2.91,2.91,0,0,0,.9-2.16,3,3,0,0,0-.93-2.19,3,3,0,0,0-4.26,0Z"/><path d="M552.28,200.52a2.7,2.7,0,1,1-2.7,2.7A2.69,2.69,0,0,1,552.28,200.52Zm2.4,8.28v20.28h-4.8V208.8Z"/><path d="M846.86,213.72v6.63h-5.19v-20H850a6.89,6.89,0,0,1,5.07,1.8,6.2,6.2,0,0,1,1.86,4.86,6.5,6.5,0,0,1-1.77,5,6.66,6.66,0,0,1-5,1.74Zm0-4.2h1.74a3.39,3.39,0,0,0,2.19-.63,2.29,2.29,0,0,0,.66-1.83,2.43,2.43,0,0,0-.6-1.8,3,3,0,0,0-2.22-.72h-1.77Z"/><path d="M859.19,206.94H864v2.19a4.33,4.33,0,0,1,1.89-1.86,5.24,5.24,0,0,1,2.49-.54l1,.06v4.53a4.23,4.23,0,0,0-2.07-.48,3.14,3.14,0,0,0-2.19.72,4,4,0,0,0-1.08,3.06v5.73h-4.8Z"/><path d="M884.36,218.58a9.18,9.18,0,0,1-12,0,6.92,6.92,0,0,1,0-9.87,8.37,8.37,0,0,1,6-2.22,8.47,8.47,0,0,1,6,2.22,6.92,6.92,0,0,1,0,9.87Zm-8.13-7.14a3.06,3.06,0,0,0,2.16,5.22,3.05,3.05,0,0,0,2.13-.9,3,3,0,0,0,.93-2.13,3.26,3.26,0,0,0-.93-2.19,3.08,3.08,0,0,0-4.29,0Z"/><path d="M904.28,206.94v12.57c0,2-.18,3.84-1.83,5.55a8,8,0,0,1-5.91,2.16,8.22,8.22,0,0,1-6.27-2.37,4.88,4.88,0,0,1-1.47-2.79h5.34a2.06,2.06,0,0,0,2.25,1.38,2.92,2.92,0,0,0,2.13-.75,3.23,3.23,0,0,0,1-2.49v-1.35a5.1,5.1,0,0,1-4,1.77,6.68,6.68,0,0,1-5-1.89,7.08,7.08,0,0,1-1.86-4.89,7.73,7.73,0,0,1,2-5.25,6.74,6.74,0,0,1,4.86-2,5.24,5.24,0,0,1,4,1.77v-1.38Zm-9.78,4.5a3,3,0,0,0,0,4.35,3,3,0,0,0,2.16.87,3.07,3.07,0,0,0,3.06-3.06,3.44,3.44,0,0,0-1-2.19,3,3,0,0,0-2.13-.87A2.86,2.86,0,0,0,894.5,211.44Z"/><path d="M907.58,206.94h4.8v2.19a4.33,4.33,0,0,1,1.89-1.86,5.24,5.24,0,0,1,2.49-.54l1,.06v4.53a4.23,4.23,0,0,0-2.07-.48,3.14,3.14,0,0,0-2.19.72,4,4,0,0,0-1.08,3.06v5.73h-4.8Z"/><path d="M930.23,206.94H935v13.41h-4.8v-1.47a5,5,0,0,1-4.17,1.92,6.42,6.42,0,0,1-4.83-2.13,6.76,6.76,0,0,1-1.92-4.92,7.42,7.42,0,0,1,2.07-5.37,6.9,6.9,0,0,1,4.83-1.89,5.31,5.31,0,0,1,4,1.74Zm-5,4.5a3.14,3.14,0,0,0-1,2.19,3.09,3.09,0,0,0,.93,2.19,3.37,3.37,0,0,0,2.16.9,3.08,3.08,0,0,0,2.16-.93,2.91,2.91,0,0,0,.9-2.16,3,3,0,0,0-.93-2.19,3,3,0,0,0-4.26,0Z"/><path d="M938.33,206.94h4.8v1.62a5.15,5.15,0,0,1,4-1.86,5.46,5.46,0,0,1,2.58.6,4.19,4.19,0,0,1,1.86,1.92,4.71,4.71,0,0,1,1.83-1.86,5.44,5.44,0,0,1,2.79-.66,5.33,5.33,0,0,1,3.72,1.23,4.93,4.93,0,0,1,1.26,3.69v8.73h-4.8v-6.63c0-1.41-.15-2.37-.69-2.88a1.75,1.75,0,0,0-1.26-.45,1.94,1.94,0,0,0-1.41.54,3.43,3.43,0,0,0-.87,2.55v6.87h-4.8v-6.63a4.29,4.29,0,0,0-.63-2.88,1.86,1.86,0,0,0-1.44-.54,1.69,1.69,0,0,0-1.32.48,4,4,0,0,0-.84,2.94v6.63h-4.8Z"/><path d="M1184.89,216.21a7,7,0,0,0,4.59,2,2.63,2.63,0,0,0,2-.69,1.79,1.79,0,0,0,.51-1.26,1.56,1.56,0,0,0-.57-1.2,7.21,7.21,0,0,0-2.58-1l-1.35-.42a6.54,6.54,0,0,1-2.88-1.62,5,5,0,0,1-1.14-3.54,6.54,6.54,0,0,1,1.83-4.83,7.05,7.05,0,0,1,5.13-1.89,14.06,14.06,0,0,1,6.18,1.62l-2.07,4a5.28,5.28,0,0,0-3.42-1.35,2.49,2.49,0,0,0-1.71.6,1.48,1.48,0,0,0-.51,1.08,1.34,1.34,0,0,0,.27.9,3.28,3.28,0,0,0,1.74.9l1.59.48a7.64,7.64,0,0,1,3.63,2,4.72,4.72,0,0,1,1.29,3.57,6.78,6.78,0,0,1-1.89,5,7.76,7.76,0,0,1-5.91,2,10.7,10.7,0,0,1-3.93-.66,14,14,0,0,1-3-1.59Z"/><path d="M1202.65,200.52a2.7,2.7,0,1,1-2.7,2.7A2.69,2.69,0,0,1,1202.65,200.52Zm2.4,8.28v13.41h-4.8V208.8Z"/><path d="M1209.19,217.77a6.87,6.87,0,0,0,1.92,1,6.25,6.25,0,0,0,1.86.33,2,2,0,0,0,1.23-.36.77.77,0,0,0,.24-.63.71.71,0,0,0-.24-.6,3,3,0,0,0-1.26-.48l-1.26-.3a4.31,4.31,0,0,1-2.34-1.17,3.24,3.24,0,0,1-.87-2.31,4.79,4.79,0,0,1,1.26-3.27,6.77,6.77,0,0,1,4.8-1.62,11.07,11.07,0,0,1,4.29.87l-1.62,3.06a6.64,6.64,0,0,0-2.52-.66,2,2,0,0,0-1.11.27.72.72,0,0,0-.42.66.78.78,0,0,0,.57.75c.45.18.84.18,1.59.39l.87.24a5.67,5.67,0,0,1,2,1,3.79,3.79,0,0,1,1,2.67,4.48,4.48,0,0,1-1.35,3.33,7,7,0,0,1-4.95,1.68,9.89,9.89,0,0,1-5.4-1.56Z"/><path d="M1227,212.73v9.48h-4.8v-9.48h-1.53V208.8h1.53v-4.41h4.8v4.41h2.72v3.93Z"/><path d="M1245.69,216.39h-10a3.38,3.38,0,0,0,.83,2.25,2.73,2.73,0,0,0,2,.66,3.78,3.78,0,0,0,1.55-.36,2.23,2.23,0,0,0,.84-.9h4.59a6,6,0,0,1-1.62,2.76c-1,1-2.55,1.86-5.45,1.86a7.64,7.64,0,0,1-5.56-2,7.06,7.06,0,0,1-2-5.07,7.16,7.16,0,0,1,2-5.19,7.54,7.54,0,0,1,5.48-2,7.35,7.35,0,0,1,5.16,1.83,7.47,7.47,0,0,1,2.13,5.64Zm-4.4-2.76a3.24,3.24,0,0,0-.79-1.44,2.77,2.77,0,0,0-2-.72,2.59,2.59,0,0,0-2,.72,2.8,2.8,0,0,0-.71,1.44Z"/><path d="M1248.46,208.8h4.79v1.62a5.17,5.17,0,0,1,4-1.86,5.45,5.45,0,0,1,2.57.6,4.19,4.19,0,0,1,1.86,1.92,4.71,4.71,0,0,1,1.83-1.86,5.44,5.44,0,0,1,2.79-.66,5.33,5.33,0,0,1,3.72,1.23,4.93,4.93,0,0,1,1.26,3.69v8.73h-4.8v-6.63c0-1.41-.15-2.37-.69-2.88a1.75,1.75,0,0,0-1.26-.45,1.94,1.94,0,0,0-1.41.54,3.41,3.41,0,0,0-.86,2.55v6.87h-4.81v-6.63a4.35,4.35,0,0,0-.62-2.88,1.89,1.89,0,0,0-1.44-.54,1.7,1.7,0,0,0-1.33.48,4,4,0,0,0-.84,2.94v6.63h-4.79Z"/><path d="M1296.81,222.21H1292v-1.47a4.92,4.92,0,0,1-4,1.92,6.42,6.42,0,0,1-4.71-1.86,7.4,7.4,0,0,1-2.16-5.34,7.31,7.31,0,0,1,2.19-5.31,6.86,6.86,0,0,1,4.74-1.8,5.31,5.31,0,0,1,4,1.74v-9.75h4.8Zm-5.67-4.44a3.22,3.22,0,0,0,1-2.28,3.51,3.51,0,0,0-.9-2.16,3.08,3.08,0,0,0-4.32,0,3.29,3.29,0,0,0-.93,2.28,3,3,0,0,0,.93,2.1,3,3,0,0,0,2.13.9A3.28,3.28,0,0,0,1291.14,217.77Z"/><path d="M1314.33,216.39h-10a3.39,3.39,0,0,0,.84,2.25,2.7,2.7,0,0,0,2,.66,3.79,3.79,0,0,0,1.56-.36,2.23,2.23,0,0,0,.84-.9h4.59a6,6,0,0,1-1.62,2.76c-1,1-2.55,1.86-5.46,1.86a7.61,7.61,0,0,1-5.55-2,7,7,0,0,1-2-5.07,7.16,7.16,0,0,1,2-5.19,7.55,7.55,0,0,1,5.49-2,7.35,7.35,0,0,1,5.16,1.83,7.51,7.51,0,0,1,2.13,5.64Zm-4.41-2.76a3.22,3.22,0,0,0-.78-1.44,2.8,2.8,0,0,0-2-.72,2.58,2.58,0,0,0-2,.72,2.74,2.74,0,0,0-.72,1.44Z"/><path d="M1223.49,257.67a12.31,12.31,0,0,1-4.49,1,10.88,10.88,0,0,1-7.74-3,10.45,10.45,0,0,1-3-7.29,10.5,10.5,0,0,1,10.58-10.5,12.37,12.37,0,0,1,4.68,1v6.21a5.57,5.57,0,0,0-4.53-2.19,5,5,0,0,0-3.59,1.32,5.33,5.33,0,0,0,3.59,9.39,5.85,5.85,0,0,0,4.53-2.1Z"/><path d="M1236.72,244.8h4.8v13.41h-4.8v-1.47a5,5,0,0,1-4.17,1.92,6.45,6.45,0,0,1-4.83-2.13,6.81,6.81,0,0,1-1.92-4.92,7.38,7.38,0,0,1,2.08-5.37,6.9,6.9,0,0,1,4.83-1.89,5.28,5.28,0,0,1,4,1.74Zm-5,4.5a3.15,3.15,0,0,0-1,2.19,3.06,3.06,0,0,0,.94,2.19,3.34,3.34,0,0,0,2.15.9,3.06,3.06,0,0,0,2.16-.93,2.91,2.91,0,0,0,.91-2.16,3,3,0,0,0-.93-2.19,3,3,0,0,0-4.26,0Z"/><path d="M1249.63,236.34v21.87h-4.8V236.34Z"/><path d="M1263,257.91a7.14,7.14,0,0,1-3.33.75,7.41,7.41,0,0,1-5.29-2,7.05,7.05,0,0,1-2.06-5,7.3,7.3,0,0,1,2.16-5.19,7.71,7.71,0,0,1,5.39-2,7,7,0,0,1,3.13.75v4a4.34,4.34,0,0,0-2.5-.87,3.1,3.1,0,0,0-2.33.93,3.22,3.22,0,0,0-.93,2.31,3.39,3.39,0,0,0,.84,2.25,3.22,3.22,0,0,0,2.45,1,3.67,3.67,0,0,0,2.47-.9Z"/><path d="M1270.56,244.8v7.5a2.55,2.55,0,0,0,.73,1.95,2.44,2.44,0,0,0,1.67.51,2.24,2.24,0,0,0,1.71-.57,2.49,2.49,0,0,0,.69-1.89v-7.5h4.8v8.37a4.6,4.6,0,0,1-1.29,3.6c-1.65,1.71-4,1.89-5.79,1.89-2,0-4.46-.21-6.06-1.92a4.82,4.82,0,0,1-1.26-3.57V244.8Z"/><path d="M1288.26,236.34v21.87h-4.8V236.34Z"/></svg>