<svg id="Layer_1" data-name="Layer 1" xmlns="http://www.w3.org/2000/svg" viewBox="0 0 1182 292"><title>Cap 7 -</title><polygon points="251.33 137.63 359.57 137.63 359.57 153.23 392.72 120.08 359.57 86.92 359.57 102.52 251.33 102.52 251.33 137.63" style="fill:none;stroke:#636868;stroke-miterlimit:10;stroke-width:10px"/><polygon points="836.33 137.63 944.57 137.63 944.57 153.23 977.72 120.08 944.57 86.92 944.57 102.52 836.33 102.52 836.33 137.63" style="fill:none;stroke:#f4c240;stroke-miterlimit:10;stroke-width:10px"/><rect x="431.02" y="78.08" width="355" height="84" rx="12" ry="12" style="fill:none;stroke:#f4c240;stroke-miterlimit:10;stroke-width:10px"/><path d="M519.17,114.37h-7.32v3.88h6.66v5.15h-6.66v9.17H505.8V109.22h13.37Z"/><path d="M524.7,107.26a3.15,3.15,0,1,1-3.15,3.15A3.14,3.14,0,0,1,524.7,107.26Zm2.8,9.66v15.65h-5.6V116.92Z"/><path d="M536.91,107.05v25.52h-5.6V107.05Z"/><path d="M546.93,121.51v11.06h-5.61V121.51h-1.78v-4.59h1.78v-5.14h5.61v5.14h3.18v4.59Z"/><path d="M552.21,116.92h5.6v2.56a5,5,0,0,1,2.2-2.17,6.07,6.07,0,0,1,2.91-.63l1.12.07V122a5,5,0,0,0-2.42-.56,3.63,3.63,0,0,0-2.55.84,4.72,4.72,0,0,0-1.26,3.57v6.68h-5.6Z"/><path d="M572.12,116.92v8.76A3,3,0,0,0,573,128a2.91,2.91,0,0,0,2,.6,2.61,2.61,0,0,0,2-.67,2.89,2.89,0,0,0,.8-2.2v-8.76h5.61v9.77a5.37,5.37,0,0,1-1.51,4.2c-1.93,2-4.62,2.21-6.76,2.21-2.34,0-5.21-.25-7.07-2.24a5.63,5.63,0,0,1-1.47-4.17v-9.77Z"/><path d="M613,132.57h-5.6v-1.71a5.75,5.75,0,0,1-4.73,2.24,7.5,7.5,0,0,1-5.49-2.17,8.89,8.89,0,0,1,0-12.43,8,8,0,0,1,5.53-2.1,6.18,6.18,0,0,1,4.66,2V107.05H613Zm-6.62-5.18a3.71,3.71,0,0,0,1.19-2.66,4.12,4.12,0,0,0-1.05-2.52,3.39,3.39,0,0,0-2.55-1,3.48,3.48,0,0,0-2.49,1,3.88,3.88,0,0,0-1.08,2.67,3.57,3.57,0,0,0,1.08,2.45,3.48,3.48,0,0,0,2.49,1A3.78,3.78,0,0,0,606.42,127.39Z"/><path d="M633.48,125.78H621.82a4,4,0,0,0,1,2.63,3.15,3.15,0,0,0,2.31.77,4.51,4.51,0,0,0,1.82-.42,2.57,2.57,0,0,0,1-1h5.36a7.15,7.15,0,0,1-1.89,3.22c-1.16,1.12-3,2.17-6.37,2.17a8.9,8.9,0,0,1-6.48-2.38,8.23,8.23,0,0,1-2.31-5.92,8.31,8.31,0,0,1,2.35-6,8.75,8.75,0,0,1,6.4-2.28,8.56,8.56,0,0,1,6,2.13,8.78,8.78,0,0,1,2.49,6.59Zm-5.15-3.22a3.73,3.73,0,0,0-.91-1.68,3.23,3.23,0,0,0-2.31-.84,3,3,0,0,0-2.27.84,3.12,3.12,0,0,0-.84,1.68Z"/><path d="M654.2,114.37v18.2h-6.06v-18.2h-5v-5.15h16v5.15Z"/><path d="M676.18,125.78H664.52a4,4,0,0,0,1,2.63,3.15,3.15,0,0,0,2.31.77,4.51,4.51,0,0,0,1.82-.42,2.57,2.57,0,0,0,1-1H676a7.15,7.15,0,0,1-1.89,3.22c-1.16,1.12-3,2.17-6.37,2.17a8.9,8.9,0,0,1-6.48-2.38,8.23,8.23,0,0,1-2.31-5.92,8.31,8.31,0,0,1,2.35-6,8.75,8.75,0,0,1,6.4-2.28,8.56,8.56,0,0,1,6,2.13,8.78,8.78,0,0,1,2.49,6.59ZM671,122.56a3.73,3.73,0,0,0-.91-1.68,3.23,3.23,0,0,0-2.31-.84,3,3,0,0,0-2.27.84,3.12,3.12,0,0,0-.84,1.68Z"/><path d="M684.93,124.07l-6.34-7.15h7.28l2.7,3.22,2.76-3.22h7.25l-6.48,7.15,7.84,8.5h-7.42l-4-4.65-4,4.65h-7.42Z"/><path d="M708.06,121.51v11.06h-5.6V121.51h-1.78v-4.59h1.78v-5.14h5.6v5.14h3.19v4.59Z"/><rect x="60.94" y="47.08" width="146" height="146" rx="12" ry="12" style="fill:none;stroke:#636868;stroke-miterlimit:10;stroke-width:10px"/><line x1="108" y1="100.47" x2="129.42" y2="100.47" style="fill:none;stroke:#3a5c84;stroke-miterlimit:10;stroke-width:7px"/><path d="M157.17,95.64a7.26,7.26,0,0,1-7.24-7.24V74.83H105a7.26,7.26,0,0,0-7.24,7.24v76a7.26,7.26,0,0,0,7.24,7.24H162.9a7.26,7.26,0,0,0,7.24-7.24V95.64Z" style="fill:none;stroke:#3a5c84;stroke-miterlimit:10;stroke-width:7px"/><path d="M113.85,133.34v9H109.3v-9h-1.44v-3.72h1.44v-4.17h4.55v4.17h2.58v3.72Z" style="fill:#3a5c84"/><path d="M131.58,136.8h-9.45a3.21,3.21,0,0,0,.8,2.13,2.51,2.51,0,0,0,1.87.63,3.65,3.65,0,0,0,1.48-.34,2.15,2.15,0,0,0,.79-.86h4.34a5.61,5.61,0,0,1-1.53,2.62,6.93,6.93,0,0,1-5.16,1.75,7.18,7.18,0,0,1-5.25-1.92,6.64,6.64,0,0,1-1.88-4.8,6.8,6.8,0,0,1,1.9-4.91,7.16,7.16,0,0,1,5.2-1.85,7,7,0,0,1,4.88,1.74,7.07,7.07,0,0,1,2,5.33Zm-4.17-2.61a3,3,0,0,0-.74-1.36,2.6,2.6,0,0,0-1.87-.68,2.43,2.43,0,0,0-1.84.68,2.48,2.48,0,0,0-.68,1.36Z" style="fill:#3a5c84"/><path d="M138.68,135.41l-5.13-5.79h5.9l2.18,2.61,2.25-2.61h5.87l-5.25,5.79,6.36,6.9h-6l-3.23-3.78-3.24,3.78h-6Z" style="fill:#3a5c84"/><path d="M157.45,133.34v9H152.9v-9h-1.44v-3.72h1.44v-4.17h4.55v4.17H160v3.72Z" style="fill:#3a5c84"/><line x1="1032" y1="100.47" x2="1053.42" y2="100.47" style="fill:none;stroke:#3a5c84;stroke-miterlimit:10;stroke-width:7px"/><path d="M1081.17,95.64a7.26,7.26,0,0,1-7.24-7.24V74.83h-45a7.26,7.26,0,0,0-7.24,7.24v76a7.26,7.26,0,0,0,7.24,7.24h57.92a7.26,7.26,0,0,0,7.24-7.24V95.64Z" style="fill:none;stroke:#3a5c84;stroke-miterlimit:10;stroke-width:7px"/><path d="M1037.85,133.34v9h-4.55v-9h-1.44v-3.72h1.44v-4.17h4.55v4.17h2.58v3.72Z" style="fill:#3a5c84"/><path d="M1055.58,136.8h-9.45a3.21,3.21,0,0,0,.8,2.13,2.51,2.51,0,0,0,1.87.63,3.65,3.65,0,0,0,1.48-.34,2.15,2.15,0,0,0,.79-.86h4.34a5.61,5.61,0,0,1-1.53,2.62,6.93,6.93,0,0,1-5.16,1.75,7.18,7.18,0,0,1-5.25-1.92,6.64,6.64,0,0,1-1.88-4.8,6.8,6.8,0,0,1,1.9-4.91,7.16,7.16,0,0,1,5.2-1.85,7,7,0,0,1,4.88,1.74,7.07,7.07,0,0,1,2,5.33Zm-4.17-2.61a3,3,0,0,0-.74-1.36,2.6,2.6,0,0,0-1.87-.68,2.43,2.43,0,0,0-1.84.68,2.48,2.48,0,0,0-.68,1.36Z" style="fill:#3a5c84"/><path d="M1062.68,135.41l-5.13-5.79h5.9l2.18,2.61,2.25-2.61h5.87l-5.25,5.79,6.36,6.9h-6l-3.23-3.78-3.24,3.78h-6Z" style="fill:#3a5c84"/><path d="M1081.45,133.34v9h-4.55v-9h-1.44v-3.72h1.44v-4.17h4.55v4.17H1084v3.72Z" style="fill:#3a5c84"/><path d="M60.41,224.47v20H55.22v-20Z"/><path d="M64.16,231.07H69v1.68a5,5,0,0,1,4.26-2,5.38,5.38,0,0,1,4,1.44A4.61,4.61,0,0,1,78.44,236v8.51h-4.8V237.7a3.89,3.89,0,0,0-.6-2.62,2,2,0,0,0-1.53-.57,2.68,2.68,0,0,0-1.77.63,3.08,3.08,0,0,0-.78,2.13v7.2h-4.8Z"/><path d="M87,235v9.47h-4.8V235H80.69v-3.93h1.53v-4.41H87v4.41h2.73V235Z"/><path d="M91.55,231.07h4.8v2.18a4.3,4.3,0,0,1,1.89-1.85,5.12,5.12,0,0,1,2.49-.54l1,.06v4.53a4.2,4.2,0,0,0-2.07-.49,3.14,3.14,0,0,0-2.19.72,4.07,4.07,0,0,0-1.08,3.07v5.72h-4.8Z"/><path d="M114.2,231.07H119v13.4h-4.8V243a5,5,0,0,1-4.17,1.92,6.42,6.42,0,0,1-4.83-2.13,6.75,6.75,0,0,1-1.92-4.92,7.42,7.42,0,0,1,2.07-5.37,6.94,6.94,0,0,1,4.83-1.88,5.31,5.31,0,0,1,4,1.74Zm-5,4.5a3.12,3.12,0,0,0-1,2.18,3.08,3.08,0,0,0,.93,2.19,3.37,3.37,0,0,0,2.16.9,3.11,3.11,0,0,0,2.16-.92,3,3,0,0,0,0-4.35,3,3,0,0,0-2.16-.87A3.07,3.07,0,0,0,109.16,235.57Z"/><path d="M122.3,231.07h4.8v2.18A4.3,4.3,0,0,1,129,231.4a5.12,5.12,0,0,1,2.49-.54l1,.06v4.53a4.2,4.2,0,0,0-2.07-.49,3.14,3.14,0,0,0-2.19.72,4.07,4.07,0,0,0-1.08,3.07v5.72h-4.8Z"/><path d="M148.79,238.66h-10a3.38,3.38,0,0,0,.84,2.24,2.65,2.65,0,0,0,2,.66,3.72,3.72,0,0,0,1.56-.35,2.33,2.33,0,0,0,.84-.91h4.59a6,6,0,0,1-1.62,2.76c-1,1-2.55,1.86-5.46,1.86a7.61,7.61,0,0,1-5.55-2,7,7,0,0,1-2-5.07,7.17,7.17,0,0,1,2-5.19,7.55,7.55,0,0,1,5.49-2,7.35,7.35,0,0,1,5.16,1.83,7.51,7.51,0,0,1,2.13,5.64Zm-4.41-2.77a3.18,3.18,0,0,0-.78-1.43,2.8,2.8,0,0,0-2-.72,2.58,2.58,0,0,0-2,.72,2.71,2.71,0,0,0-.72,1.43Z"/><path d="M163.85,235v9.47h-4.8V235h-1.53v-3.93h1.53v-4.41h4.8v4.41h2.73V235Z"/><path d="M182.6,238.66h-10a3.38,3.38,0,0,0,.84,2.24,2.65,2.65,0,0,0,2,.66,3.72,3.72,0,0,0,1.56-.35,2.33,2.33,0,0,0,.84-.91h4.59a6,6,0,0,1-1.62,2.76c-1,1-2.55,1.86-5.46,1.86a7.61,7.61,0,0,1-5.55-2,7,7,0,0,1-2-5.07,7.17,7.17,0,0,1,2-5.19,7.55,7.55,0,0,1,5.49-2,7.35,7.35,0,0,1,5.16,1.83,7.51,7.51,0,0,1,2.13,5.64Zm-4.41-2.77a3.18,3.18,0,0,0-.78-1.43,2.8,2.8,0,0,0-2-.72,2.58,2.58,0,0,0-2,.72,2.71,2.71,0,0,0-.72,1.43Z"/><path d="M190.1,237.18l-5.43-6.11h6.24l2.31,2.76,2.37-2.76h6.21l-5.55,6.11,6.72,7.29h-6.36l-3.42-4-3.42,4h-6.36Z"/><path d="M209.93,235v9.47h-4.8V235H203.6v-3.93h1.53v-4.41h4.8v4.41h2.73V235Z"/><path d="M994.3,217.42v20h-5.19v-20Z"/><path d="M1012.27,231.61h-10a3.34,3.34,0,0,0,.84,2.24,2.65,2.65,0,0,0,2,.66,3.72,3.72,0,0,0,1.56-.35,2.33,2.33,0,0,0,.84-.91h4.59a6,6,0,0,1-1.62,2.76c-1,1-2.55,1.86-5.46,1.86a7.61,7.61,0,0,1-5.55-2,7,7,0,0,1-2-5.07,7.13,7.13,0,0,1,2-5.18,7.55,7.55,0,0,1,5.49-2,7.36,7.36,0,0,1,5.16,1.84,7.47,7.47,0,0,1,2.13,5.63Zm-4.41-2.77a3.18,3.18,0,0,0-.78-1.43,2.8,2.8,0,0,0-2-.72,2.58,2.58,0,0,0-2,.72,2.74,2.74,0,0,0-.72,1.43Z"/><path d="M1015.9,233a6.84,6.84,0,0,0,1.92,1,6.25,6.25,0,0,0,1.86.33,2.1,2.1,0,0,0,1.23-.35.78.78,0,0,0,.24-.63.73.73,0,0,0-.24-.61,3.13,3.13,0,0,0-1.26-.47l-1.26-.31a4.25,4.25,0,0,1-2.34-1.17,3.22,3.22,0,0,1-.87-2.3,4.77,4.77,0,0,1,1.26-3.27,6.77,6.77,0,0,1,4.8-1.62,11.07,11.07,0,0,1,4.29.87l-1.62,3.06a6.65,6.65,0,0,0-2.52-.67,1.94,1.94,0,0,0-1.11.28.7.7,0,0,0-.42.66.78.78,0,0,0,.57.75c.45.18.84.18,1.59.39l.87.24a5.51,5.51,0,0,1,2,1,3.78,3.78,0,0,1,1,2.67,4.5,4.5,0,0,1-1.35,3.33,7,7,0,0,1-4.95,1.67,9.89,9.89,0,0,1-5.4-1.56Zm2.34,5.93,4.5.48-3.06,5.52-3-.36Z"/><path d="M1030.75,215.74a2.7,2.7,0,1,1-2.7,2.7A2.69,2.69,0,0,1,1030.75,215.74Zm2.4,8.28v13.4h-4.8V224Z"/><path d="M1036.42,224h4.8v2.19a4.33,4.33,0,0,1,1.89-1.86,5.24,5.24,0,0,1,2.49-.54l1,.06v4.53a4.23,4.23,0,0,0-2.07-.48,3.13,3.13,0,0,0-2.19.71,4.07,4.07,0,0,0-1.08,3.07v5.72h-4.8Z"/><path d="M1062.91,231.61h-10a3.34,3.34,0,0,0,.84,2.24,2.65,2.65,0,0,0,2,.66,3.72,3.72,0,0,0,1.56-.35,2.33,2.33,0,0,0,.84-.91h4.59a6,6,0,0,1-1.62,2.76c-1,1-2.55,1.86-5.46,1.86a7.61,7.61,0,0,1-5.55-2,7,7,0,0,1-2-5.07,7.13,7.13,0,0,1,2-5.18,7.55,7.55,0,0,1,5.49-2,7.36,7.36,0,0,1,5.16,1.84,7.47,7.47,0,0,1,2.13,5.63Zm-4.41-2.77a3.18,3.18,0,0,0-.78-1.43,2.8,2.8,0,0,0-2-.72,2.58,2.58,0,0,0-2,.72,2.74,2.74,0,0,0-.72,1.43Z"/><path d="M1078,228v9.47h-4.8V228h-1.53V224h1.53v-4.41h4.8V224h2.73V228Z"/><path d="M1096.72,231.61h-10a3.34,3.34,0,0,0,.84,2.24,2.65,2.65,0,0,0,2,.66,3.72,3.72,0,0,0,1.56-.35,2.33,2.33,0,0,0,.84-.91h4.59a6,6,0,0,1-1.62,2.76c-1,1-2.55,1.86-5.46,1.86a7.61,7.61,0,0,1-5.55-2,7,7,0,0,1-2-5.07,7.13,7.13,0,0,1,2-5.18,7.55,7.55,0,0,1,5.49-2,7.36,7.36,0,0,1,5.16,1.84,7.47,7.47,0,0,1,2.13,5.63Zm-4.41-2.77a3.18,3.18,0,0,0-.78-1.43,2.8,2.8,0,0,0-2-.72,2.58,2.58,0,0,0-2,.72,2.74,2.74,0,0,0-.72,1.43Z"/><path d="M1104.22,230.13l-5.43-6.11H1105l2.31,2.76,2.37-2.76h6.21l-5.55,6.11,6.72,7.29h-6.36l-3.42-4-3.42,4h-6.36Z"/><path d="M1124.05,228v9.47h-4.8V228h-1.53V224h1.53v-4.41h4.8V224h2.73V228Z"/></svg>