<svg id="Layer_1" data-name="Layer 1" xmlns="http://www.w3.org/2000/svg" viewBox="0 0 636 719"><title>Cap 7</title><rect x="41.91" y="509.75" width="552.5" height="166" rx="12" ry="12" style="fill:none;stroke:#91c54f;stroke-miterlimit:10;stroke-width:5px"/><rect x="41.59" y="43.25" width="552.5" height="196" rx="12" ry="12" style="fill:none;stroke:#3a5c84;stroke-miterlimit:10;stroke-width:5px"/><path d="M330.37,600.17c-.36.27-.74.53-1.12.77l-.52.34c-.5.31-1,.6-1.51.87l-.35.18a27.13,27.13,0,0,1-3.65,1.54l-.14,0c-.66.22-1.32.41-2,.58h0c-.68.17-1.37.31-2.06.42H319c-.65.11-1.31.18-2,.24l-.35,0c-.65,0-1.3.08-2,.08s-1.33,0-2-.08l-.34,0q-1-.09-2-.24l-.09,0a25.9,25.9,0,0,1-4.08-1l-.13,0q-1-.33-1.95-.75h0c-.61-.26-1.2-.55-1.79-.86l-.23-.12c-.54-.28-1.06-.59-1.58-.92l-.46-.29c-.47-.31-.94-.64-1.4-1l-.14-.11.1-.05,8.3-4.53a4.45,4.45,0,0,0,2.31-3.9v-3.77l-.24-.3a17.32,17.32,0,0,1-3.15-6.52l-.1-.41-.35-.24a1.72,1.72,0,0,1-.81-1.46v-3.71a1.75,1.75,0,0,1,.58-1.29l.35-.31v-6a6.35,6.35,0,0,1,1.47-4.58c1.51-1.72,4.11-2.6,7.72-2.6s6.19.87,7.71,2.58a6.47,6.47,0,0,1,1.48,4.6v6l.35.31a1.75,1.75,0,0,1,.58,1.29v3.72a1.76,1.76,0,0,1-1.24,1.65l-.52.16-.17.52a19.44,19.44,0,0,1-2.62,5.28,10.82,10.82,0,0,1-.77,1l-.26.3v3.88a4.42,4.42,0,0,0,2.45,4l8.89,4.44.16.09Z" style="fill:none;stroke:#636868;stroke-miterlimit:10;stroke-width:4.39231681637576px"/><circle cx="314.61" cy="575.29" r="29.82" style="fill:none;stroke:#636868;stroke-miterlimit:10;stroke-width:4.39231681637576px"/><path d="M267.81,625v9.94a3.4,3.4,0,0,0,.86,2.59,3.08,3.08,0,0,0,4.07.08,3.68,3.68,0,0,0,1-3.05V625h4.35v9.64a6.81,6.81,0,0,1-1.89,5.43,7.22,7.22,0,0,1-5.53,2.09,7.51,7.51,0,0,1-5.57-2c-1.46-1.59-1.63-3.73-1.63-5.51V625Z"/><path d="M285.68,633.8v8h-4v-8h-1.28v-3.29h1.28v-3.7h4v3.7H288v3.29Z"/><path d="M291.49,623.56a2.27,2.27,0,1,1-2.26,2.27A2.26,2.26,0,0,1,291.49,623.56Zm2,7v11.24h-4V630.51Z"/><path d="M300.28,623.41v18.34h-4V623.41Z"/><path d="M305,623.56a2.27,2.27,0,1,1-2.26,2.27A2.26,2.26,0,0,1,305,623.56Zm2,7v11.24h-4V630.51Z"/><path d="M315.65,638.46h4.71v3.29H308.91l5.31-8h-4.53v-3.29h11.22Z"/><path d="M331.51,630.51h4v11.24h-4v-1.23a4.21,4.21,0,0,1-3.5,1.61,5.39,5.39,0,0,1-4.05-1.78,5.7,5.7,0,0,1-1.61-4.13,6.26,6.26,0,0,1,1.73-4.51,5.82,5.82,0,0,1,4.06-1.58,4.45,4.45,0,0,1,3.37,1.46Zm-4.23,3.77a2.66,2.66,0,0,0-.81,1.84,2.59,2.59,0,0,0,.78,1.83,2.82,2.82,0,0,0,1.82.76,2.61,2.61,0,0,0,1.81-.78,2.45,2.45,0,0,0,.75-1.81,2.48,2.48,0,0,0-.78-1.84,2.56,2.56,0,0,0-1.81-.73A2.59,2.59,0,0,0,327.28,634.28Z"/><path d="M342.76,633.8v8h-4v-8h-1.28v-3.29h1.28v-3.7h4v3.7h2.29v3.29Z"/><path d="M357.88,640.27a7.7,7.7,0,0,1-10,0,5.63,5.63,0,0,1-1.74-4.15,5.57,5.57,0,0,1,1.74-4.13,7,7,0,0,1,5-1.86,7.1,7.1,0,0,1,5,1.86,5.57,5.57,0,0,1,1.74,4.13A5.63,5.63,0,0,1,357.88,640.27Zm-6.82-6a2.49,2.49,0,0,0,0,3.62,2.51,2.51,0,0,0,3.6,0,2.47,2.47,0,0,0,.78-1.78,2.58,2.58,0,0,0-2.57-2.57A2.77,2.77,0,0,0,351.06,634.28Z"/><path d="M361.93,630.51h4v1.83a3.64,3.64,0,0,1,1.58-1.56,4.51,4.51,0,0,1,2.09-.45l.81,0v3.8a3.59,3.59,0,0,0-1.74-.4,2.63,2.63,0,0,0-1.84.6A3.41,3.41,0,0,0,366,637v4.8h-4Z"/><rect x="437.77" y="349.16" width="142.61" height="48.85" rx="12" ry="12" style="fill:none;stroke:#f7931f;stroke-miterlimit:10;stroke-width:3.46613782269829px"/><path d="M483.94,377.53a5.84,5.84,0,0,0,3.85,1.72,2.19,2.19,0,0,0,1.68-.58,1.51,1.51,0,0,0,.43-1.06,1.3,1.3,0,0,0-.48-1,6.16,6.16,0,0,0-2.16-.88l-1.13-.35a5.46,5.46,0,0,1-2.42-1.36,4.24,4.24,0,0,1-.95-3,5.49,5.49,0,0,1,1.53-4.05,5.94,5.94,0,0,1,4.3-1.58,11.83,11.83,0,0,1,5.19,1.35l-1.74,3.4a4.43,4.43,0,0,0-2.87-1.13,2.09,2.09,0,0,0-1.43.5,1.25,1.25,0,0,0-.43.91,1.09,1.09,0,0,0,.23.75A2.67,2.67,0,0,0,489,372l1.33.4a6.46,6.46,0,0,1,3,1.66,4,4,0,0,1,1.09,3,5.66,5.66,0,0,1-1.59,4.22,6.48,6.48,0,0,1-5,1.71,9,9,0,0,1-3.29-.55,11.37,11.37,0,0,1-2.54-1.33Z"/><path d="M496.82,364.22h4v8.51a4.88,4.88,0,0,1,1.26-1.11,4.55,4.55,0,0,1,2.31-.55,4.49,4.49,0,0,1,3.32,1.21,3.9,3.9,0,0,1,1.06,3.14v7.15h-4v-5.69a3.36,3.36,0,0,0-.5-2.19,1.59,1.59,0,0,0-1.28-.48,2.17,2.17,0,0,0-1.46.48,2.46,2.46,0,0,0-.68,1.84v6h-4Z"/><path d="M523,377.68h-8.38a2.88,2.88,0,0,0,.7,1.89,2.3,2.3,0,0,0,1.67.56,3.14,3.14,0,0,0,1.3-.31,1.91,1.91,0,0,0,.71-.75h3.85a5.06,5.06,0,0,1-1.36,2.31,6.1,6.1,0,0,1-4.58,1.56,6.38,6.38,0,0,1-4.66-1.71,5.92,5.92,0,0,1-1.66-4.25,6,6,0,0,1,1.69-4.35,6.31,6.31,0,0,1,4.6-1.64,6.16,6.16,0,0,1,4.33,1.54,6.28,6.28,0,0,1,1.79,4.73Zm-3.7-2.31a2.69,2.69,0,0,0-.65-1.21,2.34,2.34,0,0,0-1.66-.6,2.16,2.16,0,0,0-1.64.6,2.24,2.24,0,0,0-.6,1.21Z"/><path d="M529.31,364.22v18.35h-4V364.22Z"/><path d="M536.08,364.22v18.35h-4V364.22Z"/><polygon points="519.9 489.72 519.58 431.75 527.93 431.7 510.08 414.04 492.42 431.9 500.77 431.85 501.1 489.83 519.9 489.72" style="fill:none;stroke:#91c54f;stroke-miterlimit:10;stroke-width:5px"/><polygon points="378.67 585.76 436.65 585.76 436.65 594.12 454.4 576.36 436.65 558.6 436.65 566.96 378.67 566.96 378.67 585.76" style="fill:none;stroke:#636868;stroke-miterlimit:10;stroke-width:4.39231681637576px"/><polygon points="369.57 170.44 290.21 170.89 290.15 159.45 265.98 183.89 290.42 208.06 290.36 196.63 369.71 196.18 369.57 170.44" style="fill:none;stroke:#c13018;stroke-miterlimit:10;stroke-width:5px"/><polygon points="111.32 305.07 111.96 418.44 95.62 418.54 130.54 453.07 165.07 418.15 148.73 418.24 148.09 304.86 111.32 305.07" style="fill:none;stroke:#3a5c84;stroke-miterlimit:10;stroke-width:8.20226881056589px"/><polygon points="179.25 588.76 237.23 588.76 237.23 597.12 254.99 579.36 237.23 561.6 237.23 569.96 179.25 569.96 179.25 588.76" style="fill:none;stroke:#3a5c84;stroke-miterlimit:10;stroke-width:4.19434378951085px"/><polygon points="519.9 332.72 519.58 274.75 527.93 274.7 510.08 257.04 492.42 274.9 500.77 274.85 501.1 332.83 519.9 332.72" style="fill:none;stroke:#3a5c84;stroke-miterlimit:10;stroke-width:4.19434378951085px"/><path d="M470.37,125.56a5.94,5.94,0,0,1-2.79.63,6.2,6.2,0,0,1-4.43-1.71,5.91,5.91,0,0,1-1.74-4.21,6.13,6.13,0,0,1,1.81-4.35,6.48,6.48,0,0,1,4.53-1.71,5.82,5.82,0,0,1,2.62.63v3.37a3.59,3.59,0,0,0-2.09-.73,2.63,2.63,0,0,0-2,.78,2.7,2.7,0,0,0-.78,1.94,2.88,2.88,0,0,0,.7,1.89,2.74,2.74,0,0,0,2.06.85,3,3,0,0,0,2.07-.75Z"/><path d="M484,124.33a7.7,7.7,0,0,1-10,0,5.64,5.64,0,0,1-1.73-4.16,5.54,5.54,0,0,1,1.73-4.12,7,7,0,0,1,5-1.87,7.1,7.1,0,0,1,5,1.87,5.54,5.54,0,0,1,1.74,4.12A5.61,5.61,0,0,1,484,124.33Zm-6.82-6a2.59,2.59,0,0,0-.78,1.83,2.61,2.61,0,0,0,.78,1.79,2.58,2.58,0,0,0,1.81.75,2.55,2.55,0,0,0,1.79-.75,2.5,2.5,0,0,0,.78-1.79,2.58,2.58,0,0,0-2.57-2.56A2.79,2.79,0,0,0,477.16,118.34Z"/><path d="M488,114.56h4v1.36a4.32,4.32,0,0,1,3.37-1.56,4.69,4.69,0,0,1,2.17.5,3.56,3.56,0,0,1,1.56,1.61,4,4,0,0,1,1.53-1.56,4.61,4.61,0,0,1,2.34-.55,4.5,4.5,0,0,1,3.12,1,4.13,4.13,0,0,1,1.06,3.1v7.32h-4v-5.56a3.33,3.33,0,0,0-.58-2.42,1.44,1.44,0,0,0-1.05-.37,1.63,1.63,0,0,0-1.19.45,2.9,2.9,0,0,0-.73,2.14v5.76h-4v-5.56a3.63,3.63,0,0,0-.53-2.42,1.58,1.58,0,0,0-1.21-.45,1.43,1.43,0,0,0-1.1.4,3.31,3.31,0,0,0-.71,2.47v5.56h-4Z"/><path d="M518.71,114.56h4v11.25h-4v-1.23a4.21,4.21,0,0,1-3.5,1.61,5.42,5.42,0,0,1-4.05-1.79,5.69,5.69,0,0,1-1.61-4.13,6.21,6.21,0,0,1,1.74-4.5,5.76,5.76,0,0,1,4.05-1.59,4.48,4.48,0,0,1,3.37,1.46Zm-4.23,3.78a2.53,2.53,0,0,0,0,3.67,2.84,2.84,0,0,0,1.81.75,2.58,2.58,0,0,0,1.81-.77,2.55,2.55,0,0,0,0-3.65,2.56,2.56,0,0,0-3.58,0Z"/><path d="M525.51,114.56h4V116a4.24,4.24,0,0,1,3.58-1.66,4.56,4.56,0,0,1,3.32,1.21,3.88,3.88,0,0,1,1.05,3.14v7.15h-4v-5.69a3.29,3.29,0,0,0-.5-2.19,1.71,1.71,0,0,0-1.29-.47,2.18,2.18,0,0,0-1.48.52,2.57,2.57,0,0,0-.66,1.79v6h-4Z"/><path d="M553,125.81h-4v-1.23a4.11,4.11,0,0,1-3.39,1.61,5.38,5.38,0,0,1-3.95-1.56,6.23,6.23,0,0,1-1.81-4.48,6.17,6.17,0,0,1,1.83-4.46,5.79,5.79,0,0,1,4-1.51,4.43,4.43,0,0,1,3.34,1.46v-8.17h4Zm-4.75-3.72a2.75,2.75,0,0,0,.85-1.92,3,3,0,0,0-.75-1.81,2.48,2.48,0,0,0-1.84-.75,2.43,2.43,0,0,0-1.79.73,2.75,2.75,0,0,0-.78,1.91,2.62,2.62,0,0,0,2.57,2.51A2.81,2.81,0,0,0,548.21,122.09Z"/><path d="M564.44,114.56h4v11.25h-4v-1.23a4.21,4.21,0,0,1-3.5,1.61,5.4,5.4,0,0,1-4.05-1.79,5.69,5.69,0,0,1-1.61-4.13,6.25,6.25,0,0,1,1.73-4.5,5.78,5.78,0,0,1,4-1.59,4.49,4.49,0,0,1,3.38,1.46Zm2.21-5.78a3.94,3.94,0,0,1-1.11,2.74,5.3,5.3,0,0,1-6.54,0,4,4,0,0,1-1.11-2.74h2.6a1.76,1.76,0,0,0,.5,1,2.07,2.07,0,0,0,1.28.45,2.1,2.1,0,0,0,1.29-.45,1.76,1.76,0,0,0,.5-1Zm16,30a3.92,3.92,0,0,1-1.11,2.74,5.26,5.26,0,0,1-6.54,0,4,4,0,0,1-1.11-2.74h2.6a1.76,1.76,0,0,0,.5,1,2,2,0,0,0,1.28.45,2,2,0,0,0,1.29-.45,1.76,1.76,0,0,0,.5-1Zm-22.44-20.41a2.64,2.64,0,0,0-.81,1.83,2.61,2.61,0,0,0,.78,1.84,2.86,2.86,0,0,0,1.82.75,2.6,2.6,0,0,0,1.81-.77,2.56,2.56,0,0,0,0-3.65,2.52,2.52,0,0,0-1.81-.73A2.55,2.55,0,0,0,560.21,118.34Z"/><path d="M447.64,137.82a2.27,2.27,0,1,1-2.26,2.26A2.25,2.25,0,0,1,447.64,137.82Zm2,6.94V156h-4V144.76Z"/><path d="M452.4,144.76h4v1.41a4.23,4.23,0,0,1,3.57-1.66,4.55,4.55,0,0,1,3.32,1.21,3.85,3.85,0,0,1,1.06,3.14V156h-4v-5.69a3.23,3.23,0,0,0-.5-2.19,1.69,1.69,0,0,0-1.28-.47,2.23,2.23,0,0,0-1.49.52,2.61,2.61,0,0,0-.65,1.79v6h-4Z"/><path d="M471.58,148.06V156h-4v-7.95h-1.28v-3.3h1.28v-3.7h4v3.7h2.29v3.3Z"/><path d="M487.3,151.13h-8.38a2.81,2.81,0,0,0,.71,1.88,2.21,2.21,0,0,0,1.66.56,3.28,3.28,0,0,0,1.31-.3,1.86,1.86,0,0,0,.7-.76h3.85a5,5,0,0,1-1.36,2.32,6.11,6.11,0,0,1-4.57,1.56,6.36,6.36,0,0,1-4.66-1.72,5.86,5.86,0,0,1-1.66-4.25,6,6,0,0,1,1.69-4.35,6.31,6.31,0,0,1,4.6-1.64,6.17,6.17,0,0,1,4.33,1.54,6.31,6.31,0,0,1,1.78,4.73Zm-3.7-2.32a2.74,2.74,0,0,0-.65-1.21,2.38,2.38,0,0,0-1.66-.6,2.2,2.2,0,0,0-1.64.6,2.43,2.43,0,0,0-.6,1.21Z"/><path d="M489.62,144.76h4v1.84a3.59,3.59,0,0,1,1.58-1.56,4.4,4.4,0,0,1,2.09-.46l.81.06v3.8a3.47,3.47,0,0,0-1.74-.41,2.65,2.65,0,0,0-1.84.61,3.4,3.4,0,0,0-.9,2.56V156h-4Z"/><path d="M503.94,161.77h-4v-17h4V146a4.21,4.21,0,0,1,3.45-1.61,5.59,5.59,0,0,1,4,1.64,6.39,6.39,0,0,1-.1,8.81,5.42,5.42,0,0,1-3.85,1.56,4.79,4.79,0,0,1-3.5-1.46Zm.65-13.21a2.52,2.52,0,0,0,0,3.65,2.58,2.58,0,0,0,1.82.75,2.41,2.41,0,0,0,1.78-.75,2.66,2.66,0,0,0,.78-1.79,2.7,2.7,0,0,0-.78-1.86,2.41,2.41,0,0,0-1.78-.75A2.58,2.58,0,0,0,504.59,148.56Z"/><path d="M515.42,144.76h4v1.84A3.56,3.56,0,0,1,521,145a4.34,4.34,0,0,1,2.09-.46l.8.06v3.8a3.4,3.4,0,0,0-1.74-.41,2.64,2.64,0,0,0-1.83.61,3.37,3.37,0,0,0-.91,2.56V156h-4Z"/><path d="M537.64,151.13h-8.38A2.8,2.8,0,0,0,530,153a2.23,2.23,0,0,0,1.66.56,3.28,3.28,0,0,0,1.31-.3,1.86,1.86,0,0,0,.7-.76h3.85a5,5,0,0,1-1.35,2.32,6.14,6.14,0,0,1-4.58,1.56,6.38,6.38,0,0,1-4.66-1.72,5.86,5.86,0,0,1-1.66-4.25,6,6,0,0,1,1.69-4.35,6.31,6.31,0,0,1,4.6-1.64,6.16,6.16,0,0,1,4.33,1.54,6.32,6.32,0,0,1,1.79,4.73Zm-3.7-2.32a2.66,2.66,0,0,0-.66-1.21,2.38,2.38,0,0,0-1.66-.6,2.17,2.17,0,0,0-1.63.6,2.36,2.36,0,0,0-.61,1.21Z"/><path d="M544.41,148.06V156h-4v-7.95H539.1v-3.3h1.28v-3.7h4v3.7h2.29v3.3Z"/><path d="M556.91,144.76h4V156h-4v-1.23a4.2,4.2,0,0,1-3.49,1.61,5.42,5.42,0,0,1-4.06-1.79,5.69,5.69,0,0,1-1.61-4.13,6.25,6.25,0,0,1,1.74-4.5,5.78,5.78,0,0,1,4-1.59,4.48,4.48,0,0,1,3.37,1.46Zm-4.22,3.78a2.58,2.58,0,0,0-.81,1.83,2.61,2.61,0,0,0,.78,1.84,2.84,2.84,0,0,0,1.81.75,2.53,2.53,0,0,0,1.81-.78,2.4,2.4,0,0,0,.76-1.81,2.46,2.46,0,0,0-.78-1.83,2.56,2.56,0,0,0-1.81-.73A2.52,2.52,0,0,0,552.69,148.54Z"/><path d="M568.16,148.06V156h-4v-7.95h-1.29v-3.3h1.29v-3.7h4v3.7h2.29v3.3Z"/><path d="M580.67,144.76h4V156h-4v-1.23a4.21,4.21,0,0,1-3.5,1.61,5.4,5.4,0,0,1-4-1.79,5.69,5.69,0,0,1-1.61-4.13,6.21,6.21,0,0,1,1.74-4.5,5.76,5.76,0,0,1,4-1.59,4.48,4.48,0,0,1,3.37,1.46Zm-4.23,3.78a2.61,2.61,0,0,0-.8,1.83,2.57,2.57,0,0,0,.78,1.84,2.81,2.81,0,0,0,1.81.75,2.55,2.55,0,0,0,1.81-.78,2.44,2.44,0,0,0,.76-1.81,2.48,2.48,0,0,0-.79-1.83,2.52,2.52,0,0,0-1.81-.73A2.55,2.55,0,0,0,576.44,148.54Z"/><path d="M77.44,630.51h4v1.83a3.66,3.66,0,0,1,1.59-1.56,4.46,4.46,0,0,1,2.09-.45c.1,0,.27,0,.8,0v3.8a3.55,3.55,0,0,0-1.74-.4,2.62,2.62,0,0,0-1.83.6,3.38,3.38,0,0,0-.91,2.57v4.8h-4Z"/><path d="M99.66,636.87H91.28a2.83,2.83,0,0,0,.7,1.89,2.28,2.28,0,0,0,1.66.55A3.11,3.11,0,0,0,95,639a1.91,1.91,0,0,0,.71-.75H99.5a4.93,4.93,0,0,1-1.35,2.31,6.1,6.1,0,0,1-4.58,1.56,6.41,6.41,0,0,1-4.66-1.71,5.88,5.88,0,0,1-1.66-4.25,6,6,0,0,1,1.69-4.35,6.31,6.31,0,0,1,4.6-1.64,6.19,6.19,0,0,1,4.33,1.53,6.33,6.33,0,0,1,1.79,4.73ZM96,634.56a2.61,2.61,0,0,0-.66-1.21,2.34,2.34,0,0,0-1.66-.6,2.13,2.13,0,0,0-1.63.6,2.29,2.29,0,0,0-.61,1.21Z"/><path d="M107.84,638.46h4.7v3.29H101.09l5.31-8h-4.53v-3.29H113.1Z"/><path d="M119,630.51v6.29a2.18,2.18,0,0,0,.6,1.63,2.05,2.05,0,0,0,1.41.43,1.89,1.89,0,0,0,1.44-.48,2.09,2.09,0,0,0,.58-1.58v-6.29h4v7a3.86,3.86,0,0,1-1.08,3,6.43,6.43,0,0,1-4.86,1.58c-1.68,0-3.75-.18-5.08-1.61a4.05,4.05,0,0,1-1.06-3v-7Z"/><path d="M133.86,623.41v18.34h-4V623.41Z"/><path d="M141.06,633.8v8h-4v-8h-1.28v-3.29H137v-3.7h4v3.7h2.28v3.29Z"/><path d="M153.56,630.51h4v11.24h-4v-1.23a4.21,4.21,0,0,1-3.5,1.61,5.38,5.38,0,0,1-4.05-1.79,5.66,5.66,0,0,1-1.61-4.12,6.22,6.22,0,0,1,1.74-4.51,5.8,5.8,0,0,1,4.05-1.58,4.45,4.45,0,0,1,3.37,1.46Zm-4.23,3.77a2.65,2.65,0,0,0-.8,1.84,2.59,2.59,0,0,0,.78,1.83,2.79,2.79,0,0,0,1.81.76,2.58,2.58,0,0,0,1.81-.78,2.45,2.45,0,0,0,.76-1.81,2.48,2.48,0,0,0-.78-1.84,2.56,2.56,0,0,0-3.58,0Z"/><path d="M164.81,633.8v8h-4v-8H159.5v-3.29h1.28v-3.7h4v3.7h2.29v3.29Z"/><path d="M522.11,207.62h-4v-8.05h4a8.06,8.06,0,1,0-8.05-8v4H506v-4a8.05,8.05,0,1,0-8.05,8h4v8.05h-4a8.06,8.06,0,1,0,8.05,8.06h0v-4h8.06v4h0a8.06,8.06,0,1,0,8.06-8.06Zm0-20.13a4,4,0,0,1,0,8h-4v-4A4,4,0,0,1,522.11,187.49Zm-28.19,4a4,4,0,0,1,8.06,0v4h-4A4,4,0,0,1,493.92,191.52Zm4,28.18a4,4,0,1,1,0-8h4v4A4,4,0,0,1,498,219.7ZM506,207.62v-8.05h8.06v8.05Zm16.11,12.08a4,4,0,0,1-4-4h0v-4h4a4,4,0,0,1,0,8Z" style="fill:#c13018"/><path d="M467.06,641.5a6,6,0,0,1-2.8.63,6.2,6.2,0,0,1-4.42-1.71,5.87,5.87,0,0,1-1.74-4.2,6.12,6.12,0,0,1,1.81-4.35,6.49,6.49,0,0,1,4.53-1.72,5.82,5.82,0,0,1,2.62.63v3.38a3.59,3.59,0,0,0-2.09-.73,2.63,2.63,0,0,0-2,.77,2.73,2.73,0,0,0-.78,1.94,2.88,2.88,0,0,0,.7,1.89,2.74,2.74,0,0,0,2.06.86,3.06,3.06,0,0,0,2.07-.76Z"/><path d="M480.67,640.27a7.7,7.7,0,0,1-10,0,5.82,5.82,0,0,1,0-8.28,7,7,0,0,1,5-1.86,7.1,7.1,0,0,1,5,1.86,5.57,5.57,0,0,1,1.74,4.13A5.63,5.63,0,0,1,480.67,640.27Zm-6.82-6a2.57,2.57,0,0,0,1.81,4.38,2.56,2.56,0,0,0,1.79-.76,2.47,2.47,0,0,0,.78-1.78,2.58,2.58,0,0,0-2.57-2.57A2.79,2.79,0,0,0,473.85,634.28Z"/><path d="M484.72,630.51h4v1.36a4.32,4.32,0,0,1,3.37-1.56,4.57,4.57,0,0,1,2.17.5,3.56,3.56,0,0,1,1.56,1.61,3.94,3.94,0,0,1,1.53-1.56,4.61,4.61,0,0,1,2.34-.55,4.45,4.45,0,0,1,3.12,1,4.11,4.11,0,0,1,1.06,3.09v7.32h-4v-5.56c0-1.18-.12-2-.58-2.41a1.46,1.46,0,0,0-1.05-.38,1.67,1.67,0,0,0-1.19.45,2.93,2.93,0,0,0-.73,2.14v5.76h-4v-5.56a3.6,3.6,0,0,0-.53-2.41,1.54,1.54,0,0,0-1.21-.45,1.39,1.39,0,0,0-1.1.4,3.3,3.3,0,0,0-.71,2.46v5.56h-4Z"/><path d="M515.4,630.51h4v11.24h-4v-1.23a4.21,4.21,0,0,1-3.5,1.61,5.38,5.38,0,0,1-4-1.79,5.66,5.66,0,0,1-1.61-4.12,6.22,6.22,0,0,1,1.74-4.51,5.8,5.8,0,0,1,4-1.58,4.45,4.45,0,0,1,3.37,1.46Zm-4.23,3.77a2.65,2.65,0,0,0-.8,1.84,2.54,2.54,0,0,0,.78,1.83,2.79,2.79,0,0,0,1.81.76,2.59,2.59,0,0,0,1.81-.78,2.45,2.45,0,0,0,.76-1.81,2.48,2.48,0,0,0-.78-1.84,2.56,2.56,0,0,0-3.58,0Z"/><path d="M522.2,630.51h4v1.41a4.26,4.26,0,0,1,3.58-1.67,4.56,4.56,0,0,1,3.32,1.21,3.9,3.9,0,0,1,1,3.15v7.14h-4v-5.68a3.22,3.22,0,0,0-.51-2.19,1.68,1.68,0,0,0-1.28-.48,2.18,2.18,0,0,0-1.48.53,2.56,2.56,0,0,0-.66,1.78v6h-4Z"/><path d="M549.65,641.75h-4v-1.23a4.11,4.11,0,0,1-3.39,1.61,5.38,5.38,0,0,1-4-1.56,6.39,6.39,0,0,1,0-8.93,5.74,5.74,0,0,1,4-1.51,4.44,4.44,0,0,1,3.34,1.46v-8.18h4ZM544.89,638a2.69,2.69,0,0,0,.86-1.91,2.93,2.93,0,0,0-.75-1.81,2.58,2.58,0,0,0-3.63,0,2.77,2.77,0,0,0-.78,1.91,2.63,2.63,0,0,0,2.57,2.52A2.71,2.71,0,0,0,544.89,638Z"/><path d="M561.13,630.51h4v11.24h-4v-1.23a4.21,4.21,0,0,1-3.5,1.61,5.37,5.37,0,0,1-4-1.79,5.66,5.66,0,0,1-1.61-4.12,6.26,6.26,0,0,1,1.73-4.51,5.82,5.82,0,0,1,4-1.58,4.45,4.45,0,0,1,3.38,1.46Zm2.21-5.79a3.92,3.92,0,0,1-1.11,2.74,5.3,5.3,0,0,1-6.54,0,4,4,0,0,1-1.11-2.74h2.6a1.76,1.76,0,0,0,.5,1,2,2,0,0,0,1.28.45,2,2,0,0,0,1.29-.45,1.76,1.76,0,0,0,.5-1Zm-6.44,9.56a2.66,2.66,0,0,0-.81,1.84,2.59,2.59,0,0,0,.78,1.83,2.82,2.82,0,0,0,1.82.76,2.61,2.61,0,0,0,1.81-.78,2.45,2.45,0,0,0,.75-1.81,2.48,2.48,0,0,0-.78-1.84,2.55,2.55,0,0,0-3.57,0Z"/><path d="M523.58,580.51h-4v-8h4a8.06,8.06,0,1,0-8.05-8.06v4h-8.06v-4a8.05,8.05,0,1,0-8.05,8.06h4v8h-4a8,8,0,1,0,8.05,8h0v-4h8.06v4h0a8,8,0,1,0,8.05-8Zm0-20.13a4,4,0,1,1,0,8h-4v-4A4,4,0,0,1,523.58,560.38Zm-28.19,4a4,4,0,0,1,8.06,0v4h-4A4,4,0,0,1,495.39,564.4Zm4,28.19a4,4,0,1,1,0-8.06h4v4A4,4,0,0,1,499.42,592.59Zm8.05-12.08v-8h8.06v8Zm16.11,12.08a4,4,0,0,1-4-4h0v-4h4a4,4,0,0,1,0,8.06Z" style="fill:#c13018"/><rect x="484.58" y="549.56" width="54.09" height="53.84" rx="12" ry="12" style="fill:none;stroke:#c13018;stroke-miterlimit:10;stroke-width:3px"/><line x1="101.9" y1="601.92" x2="142.63" y2="601.92" style="fill:none;stroke:#3a5c84;stroke-miterlimit:10;stroke-width:5px"/><line x1="101.9" y1="591.38" x2="142.63" y2="591.38" style="fill:none;stroke:#3a5c84;stroke-miterlimit:10;stroke-width:5px"/><line x1="101.9" y1="580.84" x2="142.63" y2="580.84" style="fill:none;stroke:#3a5c84;stroke-miterlimit:10;stroke-width:5px"/><line x1="101.9" y1="570.3" x2="142.63" y2="570.3" style="fill:none;stroke:#3a5c84;stroke-miterlimit:10;stroke-width:5px"/><line x1="101.9" y1="559.76" x2="118.72" y2="559.76" style="fill:none;stroke:#3a5c84;stroke-miterlimit:10;stroke-width:5px"/><path d="M140.5,556a5.7,5.7,0,0,1-5.68-5.68V539.63H99.53a5.7,5.7,0,0,0-5.68,5.69V605a5.7,5.7,0,0,0,5.68,5.69H145a5.71,5.71,0,0,0,5.69-5.69V556Z" style="fill:none;stroke:#3a5c84;stroke-miterlimit:10;stroke-width:5px"/><path d="M101.77,197.43v9.12a12,12,0,0,0,12,12h29.68a12,12,0,0,0,12-12v-9.12Z" style="fill:none;stroke:#000;stroke-miterlimit:10;stroke-width:4.39999997615814px"/><polygon points="123.73 174.47 123.89 204.63 119.55 204.65 128.84 213.84 138.02 204.55 133.68 204.57 133.51 174.42 123.73 174.47" style="fill:#3a5c84"/><path d="M214.51,74a5.84,5.84,0,0,0,3.82,1.7A2.21,2.21,0,0,0,220,75.1a1.48,1.48,0,0,0,.42-1,1.3,1.3,0,0,0-.47-1,6.1,6.1,0,0,0-2.15-.87l-1.13-.35a5.52,5.52,0,0,1-2.4-1.35,4.2,4.2,0,0,1-.95-3,5.45,5.45,0,0,1,1.53-4,5.87,5.87,0,0,1,4.27-1.57,11.63,11.63,0,0,1,5.15,1.35l-1.72,3.37a4.42,4.42,0,0,0-2.85-1.12,2.09,2.09,0,0,0-1.43.5,1.22,1.22,0,0,0-.42.9,1.15,1.15,0,0,0,.22.75,2.79,2.79,0,0,0,1.45.75l1.33.4a6.29,6.29,0,0,1,3,1.65,3.93,3.93,0,0,1,1.08,3,5.65,5.65,0,0,1-1.58,4.2,6.47,6.47,0,0,1-4.92,1.7,9,9,0,0,1-3.28-.55,11.64,11.64,0,0,1-2.52-1.33Z"/><path d="M229.31,60.9a2.25,2.25,0,1,1-2.25,2.25A2.24,2.24,0,0,1,229.31,60.9Zm2,6.9V79h-4V67.8Z"/><path d="M234.76,75.28a5.52,5.52,0,0,0,1.6.82,5,5,0,0,0,1.55.28,1.72,1.72,0,0,0,1-.3.64.64,0,0,0,.2-.53.58.58,0,0,0-.2-.5,2.56,2.56,0,0,0-1.05-.4l-1-.25a3.55,3.55,0,0,1-2-1,2.74,2.74,0,0,1-.72-1.93,4,4,0,0,1,1.05-2.72,5.62,5.62,0,0,1,4-1.35,9.31,9.31,0,0,1,3.57.72l-1.35,2.55a5.51,5.51,0,0,0-2.1-.55,1.67,1.67,0,0,0-.92.23.59.59,0,0,0-.35.55.64.64,0,0,0,.47.62c.38.15.7.15,1.33.33l.72.2a4.71,4.71,0,0,1,1.65.87,3.17,3.17,0,0,1,.85,2.23A3.73,3.73,0,0,1,242,78a5.81,5.81,0,0,1-4.13,1.4,8.3,8.3,0,0,1-4.5-1.3Z"/><path d="M249.56,71.08V79h-4V71.08h-1.28V67.8h1.28V64.13h4V67.8h2.27v3.28Z"/><path d="M265.18,74.13h-8.32a2.78,2.78,0,0,0,.7,1.87,2.25,2.25,0,0,0,1.65.55,3.07,3.07,0,0,0,1.3-.3,1.9,1.9,0,0,0,.7-.75H265a4.91,4.91,0,0,1-1.35,2.3,6.06,6.06,0,0,1-4.55,1.55,6.35,6.35,0,0,1-4.62-1.7,5.84,5.84,0,0,1-1.65-4.22,6,6,0,0,1,1.67-4.33,6.31,6.31,0,0,1,4.58-1.62,6.12,6.12,0,0,1,4.3,1.52,6.27,6.27,0,0,1,1.77,4.7Zm-3.67-2.3a2.66,2.66,0,0,0-.65-1.2,2.31,2.31,0,0,0-1.65-.6,2.14,2.14,0,0,0-1.63.6,2.36,2.36,0,0,0-.6,1.2Z"/><path d="M267.48,67.8h4v1.35a4.29,4.29,0,0,1,3.35-1.55,4.61,4.61,0,0,1,2.15.5,3.46,3.46,0,0,1,1.55,1.6,4,4,0,0,1,1.53-1.55,4.51,4.51,0,0,1,2.32-.55,4.46,4.46,0,0,1,3.1,1,4.09,4.09,0,0,1,1,3.07V79h-4V73.45a3.34,3.34,0,0,0-.57-2.4,1.48,1.48,0,0,0-1-.37,1.61,1.61,0,0,0-1.18.45,2.86,2.86,0,0,0-.72,2.12V79h-4V73.45a3.59,3.59,0,0,0-.53-2.4,1.57,1.57,0,0,0-1.2-.45,1.44,1.44,0,0,0-1.1.4,3.31,3.31,0,0,0-.7,2.45V79h-4Z"/><path d="M307.78,79h-4V77.75a4.09,4.09,0,0,1-3.37,1.6,5.38,5.38,0,0,1-3.93-1.55,6.18,6.18,0,0,1-1.8-4.45,6.05,6.05,0,0,1,1.83-4.42,5.71,5.71,0,0,1,3.95-1.5,4.39,4.39,0,0,1,3.32,1.45V60.75h4Zm-4.72-3.69a2.72,2.72,0,0,0,.85-1.9,2.9,2.9,0,0,0-.75-1.8,2.57,2.57,0,0,0-3.6,0,2.75,2.75,0,0,0-.78,1.9,2.62,2.62,0,0,0,2.55,2.5A2.78,2.78,0,0,0,303.06,75.28Z"/><path d="M322.38,74.13h-8.32a2.78,2.78,0,0,0,.7,1.87,2.25,2.25,0,0,0,1.65.55,3.07,3.07,0,0,0,1.3-.3,1.9,1.9,0,0,0,.7-.75h3.82a4.91,4.91,0,0,1-1.35,2.3,6.06,6.06,0,0,1-4.55,1.55,6.35,6.35,0,0,1-4.62-1.7,5.84,5.84,0,0,1-1.65-4.22,6,6,0,0,1,1.67-4.33,6.31,6.31,0,0,1,4.58-1.62,6.12,6.12,0,0,1,4.3,1.52,6.27,6.27,0,0,1,1.77,4.7Zm-3.67-2.3a2.66,2.66,0,0,0-.65-1.2,2.31,2.31,0,0,0-1.65-.6,2.14,2.14,0,0,0-1.63.6,2.36,2.36,0,0,0-.6,1.2Z"/><path d="M341.76,77.5a7.65,7.65,0,0,1-10,0,5.77,5.77,0,0,1,0-8.22,7.65,7.65,0,0,1,10,0,5.77,5.77,0,0,1,0,8.22Zm-6.78-6a2.49,2.49,0,0,0,0,3.6,2.51,2.51,0,0,0,3.58,0,2.44,2.44,0,0,0,.77-1.77,2.72,2.72,0,0,0-.77-1.83,2.59,2.59,0,0,0-3.58,0Z"/><path d="M349.78,84.7h-4V67.8h4V69a4.17,4.17,0,0,1,3.43-1.6,5.55,5.55,0,0,1,4,1.62,6.35,6.35,0,0,1-.1,8.75,5.39,5.39,0,0,1-3.82,1.55,4.76,4.76,0,0,1-3.48-1.45Zm.65-13.12a2.51,2.51,0,0,0,0,3.62,2.55,2.55,0,0,0,1.8.75A2.41,2.41,0,0,0,354,75.2a2.65,2.65,0,0,0,.77-1.77,2.71,2.71,0,0,0-.77-1.85,2.41,2.41,0,0,0-1.78-.75A2.55,2.55,0,0,0,350.43,71.58Z"/><path d="M373,74.13h-8.32a2.78,2.78,0,0,0,.7,1.87,2.25,2.25,0,0,0,1.65.55,3.07,3.07,0,0,0,1.3-.3,1.9,1.9,0,0,0,.7-.75h3.82a5.09,5.09,0,0,1-1.35,2.3A6.06,6.06,0,0,1,367,79.35a6.35,6.35,0,0,1-4.62-1.7,5.84,5.84,0,0,1-1.65-4.22,6,6,0,0,1,1.67-4.33A6.31,6.31,0,0,1,367,67.48a6.12,6.12,0,0,1,4.3,1.52A6.27,6.27,0,0,1,373,73.7Zm-3.67-2.3a2.66,2.66,0,0,0-.65-1.2,2.31,2.31,0,0,0-1.65-.6,2.14,2.14,0,0,0-1.63.6,2.36,2.36,0,0,0-.6,1.2Z"/><path d="M375.33,67.8h4v1.83a3.61,3.61,0,0,1,1.58-1.55,4.28,4.28,0,0,1,2.07-.45l.8.05v3.77a3.52,3.52,0,0,0-1.72-.4,2.66,2.66,0,0,0-1.83.6,3.38,3.38,0,0,0-.9,2.55V79h-4Z"/><path d="M394.2,67.8h4V79h-4V77.75a4.17,4.17,0,0,1-3.47,1.6,5.35,5.35,0,0,1-4-1.77,5.64,5.64,0,0,1-1.6-4.1A6.19,6.19,0,0,1,386.83,69a5.76,5.76,0,0,1,4-1.57,4.37,4.37,0,0,1,3.34,1.45ZM390,71.55a2.63,2.63,0,0,0-.8,1.83A2.55,2.55,0,0,0,390,75.2a2.83,2.83,0,0,0,1.8.75,2.56,2.56,0,0,0,1.8-.77,2.43,2.43,0,0,0,.75-1.8,2.49,2.49,0,0,0-.77-1.83,2.57,2.57,0,0,0-1.8-.72A2.54,2.54,0,0,0,390,71.55Z"/><path d="M401,67.8h4v1.83a3.6,3.6,0,0,1,1.57-1.55,4.32,4.32,0,0,1,2.08-.45l.8.05v3.77a3.54,3.54,0,0,0-1.73-.4,2.63,2.63,0,0,0-1.82.6,3.38,3.38,0,0,0-.9,2.55V79h-4Z"/><path d="M423,74.13h-8.32a2.78,2.78,0,0,0,.7,1.87,2.25,2.25,0,0,0,1.65.55,3.07,3.07,0,0,0,1.3-.3,1.9,1.9,0,0,0,.7-.75h3.82a5.09,5.09,0,0,1-1.35,2.3A6.07,6.07,0,0,1,417,79.35a6.35,6.35,0,0,1-4.62-1.7,5.84,5.84,0,0,1-1.65-4.22,6,6,0,0,1,1.67-4.33A6.31,6.31,0,0,1,417,67.48,6.09,6.09,0,0,1,421.25,69,6.24,6.24,0,0,1,423,73.7Zm-3.67-2.3a2.67,2.67,0,0,0-.66-1.2,2.28,2.28,0,0,0-1.64-.6,2.14,2.14,0,0,0-1.63.6,2.36,2.36,0,0,0-.6,1.2Z"/><path d="M99.34,144.23h4v11.25h-4v-1.23a4.21,4.21,0,0,1-3.5,1.61,5.37,5.37,0,0,1-4-1.79A5.68,5.68,0,0,1,90.18,150a6.26,6.26,0,0,1,1.73-4.51A5.78,5.78,0,0,1,96,143.86a4.45,4.45,0,0,1,3.37,1.46ZM95.11,148a2.66,2.66,0,0,0-.81,1.83,2.58,2.58,0,0,0,.79,1.84,2.82,2.82,0,0,0,1.81.76,2.59,2.59,0,0,0,1.81-.78,2.56,2.56,0,0,0,0-3.65,2.55,2.55,0,0,0-3.57,0Z"/><path d="M114.64,155.23a6,6,0,0,1-2.8.63,6.2,6.2,0,0,1-4.42-1.71,5.87,5.87,0,0,1-1.74-4.2,6.14,6.14,0,0,1,1.81-4.36,6.48,6.48,0,0,1,4.53-1.71,5.82,5.82,0,0,1,2.62.63v3.37a3.59,3.59,0,0,0-2.09-.73,2.63,2.63,0,0,0-2,.78,2.72,2.72,0,0,0-.78,1.94,2.88,2.88,0,0,0,.7,1.89,2.74,2.74,0,0,0,2.06.85,3,3,0,0,0,2.07-.75Z"/><path d="M121.63,147.53v7.95h-4v-7.95h-1.28v-3.3h1.28v-3.7h4v3.7h2.29v3.3Zm-3.87,9.21,3.77.4L119,161.77l-2.52-.3Z"/><path d="M127.45,137.29a2.27,2.27,0,1,1-2.27,2.26A2.25,2.25,0,0,1,127.45,137.29Zm2,6.94v11.25h-4V144.23Z"/><path d="M136.23,144.23v6.29a2.19,2.19,0,0,0,.6,1.64,2.11,2.11,0,0,0,1.41.43,1.89,1.89,0,0,0,1.44-.48,2.1,2.1,0,0,0,.58-1.59v-6.29h4v7a3.84,3.84,0,0,1-1.08,3,6.4,6.4,0,0,1-4.86,1.59c-1.68,0-3.75-.18-5.08-1.61a4.09,4.09,0,0,1-1.06-3v-7Z"/><path d="M147.05,144.23h4v1.41a4.23,4.23,0,0,1,3.57-1.66,4.55,4.55,0,0,1,3.32,1.21,3.86,3.86,0,0,1,1.06,3.14v7.15h-4v-5.69a3.23,3.23,0,0,0-.5-2.19,1.69,1.69,0,0,0-1.28-.47,2.18,2.18,0,0,0-1.49.53,2.56,2.56,0,0,0-.65,1.78v6h-4Z"/><path d="M173.7,150.6h-8.38a2.86,2.86,0,0,0,.71,1.89,2.26,2.26,0,0,0,1.66.55,3.31,3.31,0,0,0,1.31-.3,1.93,1.93,0,0,0,.7-.76h3.85a5.13,5.13,0,0,1-1.36,2.32,6.14,6.14,0,0,1-4.58,1.56,6.38,6.38,0,0,1-4.65-1.71,5.91,5.91,0,0,1-1.66-4.26,6,6,0,0,1,1.68-4.35,6.36,6.36,0,0,1,4.61-1.63,6.14,6.14,0,0,1,4.32,1.53,6.28,6.28,0,0,1,1.79,4.73Zm-3.7-2.32a2.71,2.71,0,0,0-.65-1.2,2.35,2.35,0,0,0-1.66-.61,2.17,2.17,0,0,0-1.64.61,2.21,2.21,0,0,0-.6,1.2Z"/></svg>