<svg id="Layer_1" data-name="Layer 1" xmlns="http://www.w3.org/2000/svg" viewBox="0 0 672 1185"><title>Cap 9</title><rect x="199.73" y="42.84" width="285.82" height="70.85" rx="12" ry="12" transform="translate(685.29 156.53) rotate(180)" style="fill:none;stroke:#f4c240;stroke-miterlimit:10;stroke-width:5px"/><polygon points="326.6 130.52 327.07 215.43 314.83 215.5 340.99 241.37 366.85 215.21 354.61 215.28 354.14 130.36 326.6 130.52" style="fill:none;stroke:#f4c240;stroke-miterlimit:10;stroke-width:5px"/><polygon points="326.6 708.52 327.07 793.43 314.83 793.5 340.99 819.37 366.85 793.21 354.61 793.28 354.14 708.36 326.6 708.52" style="fill:none;stroke:#91c54f;stroke-miterlimit:10;stroke-width:5px"/><polygon points="326.6 462.52 327.07 547.43 314.83 547.5 340.99 573.37 366.85 547.21 354.61 547.28 354.14 462.36 326.6 462.52" style="fill:none;stroke:#c13018;stroke-miterlimit:10;stroke-width:5px"/><rect x="197.94" y="834.99" width="285.82" height="70.85" rx="12" ry="12" transform="translate(681.69 1740.82) rotate(180)" style="fill:none;stroke:#4fc2c9;stroke-miterlimit:10;stroke-width:5px"/><rect x="61.09" y="256.55" width="559.51" height="182" rx="12" ry="12" style="fill:none;stroke:#c13018;stroke-miterlimit:10;stroke-width:5px"/><path d="M411.83,649.62v-20h7.74a5.61,5.61,0,0,1,4.38,1.56,5.41,5.41,0,0,1,1.23,3.75,5.19,5.19,0,0,1-.57,2.46,3.15,3.15,0,0,1-1.62,1.56,5,5,0,0,1,2.73,1.2,5,5,0,0,1,1.35,3.66,5.43,5.43,0,0,1-1.47,3.93,7.52,7.52,0,0,1-5.43,1.89ZM417,637.5h1a2.74,2.74,0,0,0,2-.63,1.94,1.94,0,0,0,.48-1.32,2.06,2.06,0,0,0-.48-1.35,2.75,2.75,0,0,0-2-.6h-1Zm0,8.07h1.17c1.44,0,2.64-.15,3.21-.81a2,2,0,0,0,.42-1.29,2,2,0,0,0-.51-1.44c-.63-.63-1.92-.66-3.21-.66H417Z"/><path d="M443.42,647.85a9.18,9.18,0,0,1-12,0,6.92,6.92,0,0,1,0-9.87,8.37,8.37,0,0,1,6-2.22,8.47,8.47,0,0,1,6,2.22,6.92,6.92,0,0,1,0,9.87Zm-8.13-7.14a3.06,3.06,0,0,0,2.16,5.22,3.05,3.05,0,0,0,2.13-.9,3,3,0,0,0,.93-2.13,3.26,3.26,0,0,0-.93-2.19,3.08,3.08,0,0,0-4.29,0Z"/><path d="M461.75,647.85a9.18,9.18,0,0,1-12,0,6.92,6.92,0,0,1,0-9.87,8.37,8.37,0,0,1,6-2.22,8.47,8.47,0,0,1,6,2.22,6.92,6.92,0,0,1,0,9.87Zm-8.13-7.14a3.06,3.06,0,0,0,2.16,5.22,3.05,3.05,0,0,0,2.13-.9,3,3,0,0,0,.93-2.13,3.26,3.26,0,0,0-.93-2.19,3.08,3.08,0,0,0-4.29,0Z"/><path d="M471.89,640.14v9.48h-4.8v-9.48h-1.53v-3.93h1.53V631.8h4.8v4.41h2.73v3.93Z"/><path d="M481.22,627.75v21.87h-4.8V627.75Z"/><path d="M498,647.85a9.18,9.18,0,0,1-12,0,6.92,6.92,0,0,1,0-9.87,8.37,8.37,0,0,1,6-2.22,8.47,8.47,0,0,1,6,2.22,6.92,6.92,0,0,1,0,9.87Zm-8.13-7.14a3.06,3.06,0,0,0,2.16,5.22,3.05,3.05,0,0,0,2.13-.9,3,3,0,0,0,.93-2.13,3.26,3.26,0,0,0-.93-2.19,3.08,3.08,0,0,0-4.29,0Z"/><path d="M513.2,636.21H518v13.41h-4.8v-1.47a5,5,0,0,1-4.17,1.92,6.42,6.42,0,0,1-4.83-2.13,6.76,6.76,0,0,1-1.92-4.92,7.42,7.42,0,0,1,2.07-5.37,6.9,6.9,0,0,1,4.83-1.89,5.31,5.31,0,0,1,4,1.74Zm-5,4.5a3.14,3.14,0,0,0-1,2.19,3.09,3.09,0,0,0,.93,2.19,3.37,3.37,0,0,0,2.16.9,3.08,3.08,0,0,0,2.16-.93,2.91,2.91,0,0,0,.9-2.16,3,3,0,0,0-.93-2.19,3,3,0,0,0-4.26,0Z"/><path d="M536.48,649.62h-4.8v-1.47a4.92,4.92,0,0,1-4,1.92,6.42,6.42,0,0,1-4.71-1.86,7.4,7.4,0,0,1-2.16-5.34,7.31,7.31,0,0,1,2.19-5.31,6.86,6.86,0,0,1,4.74-1.8,5.31,5.31,0,0,1,4,1.74v-9.75h4.8Zm-5.67-4.44a3.22,3.22,0,0,0,1-2.28,3.51,3.51,0,0,0-.9-2.16,3.08,3.08,0,0,0-4.32,0,3.29,3.29,0,0,0-.93,2.28,3,3,0,0,0,.93,2.1,3,3,0,0,0,2.13.9A3.28,3.28,0,0,0,530.81,645.18Z"/><path d="M554,643.8H544a3.39,3.39,0,0,0,.84,2.25,2.7,2.7,0,0,0,2,.66,3.79,3.79,0,0,0,1.56-.36,2.23,2.23,0,0,0,.84-.9h4.59a6,6,0,0,1-1.62,2.76c-1,1-2.55,1.86-5.46,1.86a7.61,7.61,0,0,1-5.55-2,7,7,0,0,1-2-5.07,7.16,7.16,0,0,1,2-5.19,7.55,7.55,0,0,1,5.49-1.95,7.35,7.35,0,0,1,5.16,1.83,7.51,7.51,0,0,1,2.13,5.64ZM549.59,641a3.22,3.22,0,0,0-.78-1.44,2.8,2.8,0,0,0-2-.72,2.58,2.58,0,0,0-2,.72,2.74,2.74,0,0,0-.72,1.44Z"/><path d="M556.76,636.21h4.8v2.19a4.33,4.33,0,0,1,1.89-1.86,5.24,5.24,0,0,1,2.49-.54l1,.06v4.53a4.23,4.23,0,0,0-2.07-.48,3.14,3.14,0,0,0-2.19.72,4,4,0,0,0-1.08,3.06v5.73h-4.8Z"/><path d="M487.83,204.62v-20h6.81a11.16,11.16,0,0,1,7.95,2.76,9.77,9.77,0,0,1,2.79,7.29,9.23,9.23,0,0,1-2.61,6.93,10.87,10.87,0,0,1-7.68,3Zm5.19-4.41h1.05a6,6,0,0,0,4.38-1.44,5.45,5.45,0,0,0,1.53-4.11,6,6,0,0,0-1.56-4.38,5.83,5.83,0,0,0-4.14-1.26H493Z"/><path d="M510.63,182.93a2.7,2.7,0,1,1-2.7,2.7A2.69,2.69,0,0,1,510.63,182.93Zm2.4,8.28v13.41h-4.8V191.21Z"/><path d="M517.17,200.18a6.87,6.87,0,0,0,1.92,1,6.25,6.25,0,0,0,1.86.33,2,2,0,0,0,1.23-.36.77.77,0,0,0,.24-.63.71.71,0,0,0-.24-.6,3,3,0,0,0-1.26-.48l-1.26-.3a4.31,4.31,0,0,1-2.34-1.17,3.24,3.24,0,0,1-.87-2.31,4.79,4.79,0,0,1,1.26-3.27,6.77,6.77,0,0,1,4.8-1.62,11.07,11.07,0,0,1,4.29.87l-1.62,3.06a6.64,6.64,0,0,0-2.52-.66,2,2,0,0,0-1.11.27.72.72,0,0,0-.42.66.78.78,0,0,0,.57.75c.45.18.84.18,1.59.39l.87.24a5.67,5.67,0,0,1,2,1,3.79,3.79,0,0,1,1,2.67,4.48,4.48,0,0,1-1.35,3.33,7,7,0,0,1-4.95,1.68,9.89,9.89,0,0,1-5.4-1.56Z"/><path d="M534.42,211.49h-4.8V191.21h4.8v1.47a5,5,0,0,1,4.11-1.92,6.67,6.67,0,0,1,4.77,2,7.61,7.61,0,0,1-.12,10.5,6.44,6.44,0,0,1-4.59,1.86,5.71,5.71,0,0,1-4.17-1.74Zm.78-15.75a3.27,3.27,0,0,0-.93,2.22,3.24,3.24,0,0,0,.93,2.13,3.07,3.07,0,0,0,2.16.9,2.9,2.9,0,0,0,2.13-.9,3.17,3.17,0,0,0,.93-2.13,3.27,3.27,0,0,0-.93-2.22,2.9,2.9,0,0,0-2.13-.9A3.07,3.07,0,0,0,535.2,195.74Z"/><path d="M561.6,202.85a9.18,9.18,0,0,1-12,0,6.92,6.92,0,0,1,0-9.87,8.37,8.37,0,0,1,6-2.22,8.47,8.47,0,0,1,6,2.22,6.92,6.92,0,0,1,0,9.87Zm-8.13-7.14a3.06,3.06,0,0,0,2.16,5.22,3.05,3.05,0,0,0,2.13-.9,3,3,0,0,0,.93-2.13,3.26,3.26,0,0,0-.93-2.19,3.08,3.08,0,0,0-4.29,0Z"/><path d="M573.42,200.69H579v3.93H565.38l6.33-9.48h-5.4v-3.93h13.38Z"/><path d="M584.34,182.93a2.7,2.7,0,1,1-2.7,2.7A2.69,2.69,0,0,1,584.34,182.93Zm2.4,8.28v13.41h-4.8V191.21Z"/><path d="M595.32,195.14v9.48h-4.8v-9.48H589v-3.93h1.53V186.8h4.8v4.41h2.73v3.93Z"/><path d="M602.25,182.93a2.7,2.7,0,1,1-2.7,2.7A2.69,2.69,0,0,1,602.25,182.93Zm2.4,8.28v13.41h-4.8V191.21Z"/><path d="M611.64,191.21l3.21,6.87,3.27-6.87h5.34l-7,13.41H613.2l-6.93-13.41Z"/><path d="M638.58,198.8h-10a3.39,3.39,0,0,0,.84,2.25,2.7,2.7,0,0,0,2,.66,3.79,3.79,0,0,0,1.56-.36,2.23,2.23,0,0,0,.84-.9h4.59a6,6,0,0,1-1.62,2.76c-1,1-2.55,1.86-5.46,1.86a7.61,7.61,0,0,1-5.55-2,7,7,0,0,1-2-5.07,7.16,7.16,0,0,1,2-5.19,7.55,7.55,0,0,1,5.49-2,7.35,7.35,0,0,1,5.16,1.83,7.51,7.51,0,0,1,2.13,5.64ZM634.17,196a3.22,3.22,0,0,0-.78-1.44,2.8,2.8,0,0,0-2-.72,2.58,2.58,0,0,0-1.95.72,2.74,2.74,0,0,0-.72,1.44Z"/><path d="M492.18,218.75v9.75a5.31,5.31,0,0,1,4-1.74,6.86,6.86,0,0,1,4.74,1.8,7.31,7.31,0,0,1,2.19,5.31,7.4,7.4,0,0,1-2.16,5.34,6.42,6.42,0,0,1-4.71,1.86,4.92,4.92,0,0,1-4.05-1.92v1.47h-4.8V218.75Zm5.07,17.34a3,3,0,0,0,.93-2.1,3.29,3.29,0,0,0-.93-2.28,3.08,3.08,0,0,0-4.32,0,3.51,3.51,0,0,0-.9,2.16,3.22,3.22,0,0,0,1,2.28,3.28,3.28,0,0,0,2.07.81A3,3,0,0,0,497.25,236.09Z"/><path d="M519.36,238.85a9.18,9.18,0,0,1-12,0,6.92,6.92,0,0,1,0-9.87,8.37,8.37,0,0,1,6-2.22,8.47,8.47,0,0,1,6,2.22,6.92,6.92,0,0,1,0,9.87Zm-8.13-7.14a3.06,3.06,0,0,0,2.16,5.22,3.05,3.05,0,0,0,2.13-.9,3,3,0,0,0,.93-2.13,3.26,3.26,0,0,0-.93-2.19,3.08,3.08,0,0,0-4.29,0Z"/><path d="M537.69,238.85a9.18,9.18,0,0,1-12,0,6.92,6.92,0,0,1,0-9.87,8.37,8.37,0,0,1,6-2.22,8.47,8.47,0,0,1,6,2.22,6.92,6.92,0,0,1,0,9.87Zm-8.13-7.14a3.06,3.06,0,0,0,2.16,5.22,3.05,3.05,0,0,0,2.13-.9,3,3,0,0,0,.93-2.13,3.26,3.26,0,0,0-.93-2.19,3.08,3.08,0,0,0-4.29,0Z"/><path d="M547.83,231.14v9.48H543v-9.48H541.5v-3.93H543V222.8h4.8v4.41h2.73v3.93Z"/><path d="M562.74,227.21h4.8v13.41h-4.8v-1.47a5,5,0,0,1-4.17,1.92,6.42,6.42,0,0,1-4.83-2.13,6.76,6.76,0,0,1-1.92-4.92,7.42,7.42,0,0,1,2.07-5.37,6.9,6.9,0,0,1,4.83-1.89,5.31,5.31,0,0,1,4,1.74Zm-5,4.5a3.14,3.14,0,0,0-1,2.19,3.09,3.09,0,0,0,.93,2.19,3.37,3.37,0,0,0,2.16.9,3.08,3.08,0,0,0,2.16-.93,2.91,2.91,0,0,0,.9-2.16,3,3,0,0,0-.93-2.19,3,3,0,0,0-4.26,0Z"/><path d="M575.64,218.75v9.75a5.31,5.31,0,0,1,4-1.74,6.86,6.86,0,0,1,4.74,1.8,7.31,7.31,0,0,1,2.19,5.31,7.4,7.4,0,0,1-2.16,5.34,6.42,6.42,0,0,1-4.71,1.86,4.92,4.92,0,0,1-4.05-1.92v1.47h-4.8V218.75Zm5.07,17.34a3,3,0,0,0,.93-2.1,3.29,3.29,0,0,0-.93-2.28,3.08,3.08,0,0,0-4.32,0,3.51,3.51,0,0,0-.9,2.16,3.22,3.22,0,0,0,1,2.28,3.28,3.28,0,0,0,2.07.81A3,3,0,0,0,580.71,236.09Z"/><path d="M594.12,218.75v21.87h-4.8V218.75Z"/><path d="M599.79,218.93a2.7,2.7,0,1,1-2.7,2.7A2.69,2.69,0,0,1,599.79,218.93Zm2.4,8.28v13.41h-4.8V227.21Z"/><path d="M610.26,218.75v21.87h-4.8V218.75Z"/><path d="M627.75,234.8h-10a3.39,3.39,0,0,0,.84,2.25,2.7,2.7,0,0,0,2,.66,3.79,3.79,0,0,0,1.56-.36,2.23,2.23,0,0,0,.84-.9h4.59a6,6,0,0,1-1.62,2.76c-1,1-2.55,1.86-5.46,1.86a7.61,7.61,0,0,1-5.55-2,7,7,0,0,1-2-5.07,7.16,7.16,0,0,1,2-5.19,7.55,7.55,0,0,1,5.49-2,7.35,7.35,0,0,1,5.16,1.83,7.51,7.51,0,0,1,2.13,5.64ZM623.34,232a3.22,3.22,0,0,0-.78-1.44,2.8,2.8,0,0,0-2-.72,2.58,2.58,0,0,0-2,.72,2.74,2.74,0,0,0-.72,1.44Z"/><path d="M345.48,636.91a9.7,9.7,0,1,0,9.7,9.7A9.7,9.7,0,0,0,345.48,636.91Z" style="fill:none;stroke:#91c54f;stroke-miterlimit:10;stroke-width:5px"/><path d="M367.65,642.45a1.38,1.38,0,0,0-1.39-1.38H362.6a18,18,0,0,0-1.09-2.65l2.59-2.59a1.39,1.39,0,0,0,0-2L358.22,628a1.39,1.39,0,0,0-2,0l-2.59,2.59a18,18,0,0,0-2.65-1.09v-3.66a1.38,1.38,0,0,0-1.38-1.39h-8.31a1.39,1.39,0,0,0-1.39,1.39v3.66a18.46,18.46,0,0,0-2.65,1.09L334.71,628a1.39,1.39,0,0,0-2,0l-5.88,5.88a1.39,1.39,0,0,0,0,2l2.59,2.59-.34.68a19.54,19.54,0,0,0-.76,2H324.7a1.38,1.38,0,0,0-1.38,1.38v8.31a1.38,1.38,0,0,0,1.38,1.39h3.66a18.51,18.51,0,0,0,1.1,2.65l-2.59,2.58a1.39,1.39,0,0,0,0,2l5.88,5.88a1.39,1.39,0,0,0,2,0l2.58-2.59a18.51,18.51,0,0,0,2.65,1.1v3.66a1.38,1.38,0,0,0,1.39,1.38h8.31a1.38,1.38,0,0,0,1.38-1.38v-3.66a18,18,0,0,0,2.65-1.1l2.59,2.59a1.39,1.39,0,0,0,2,0l5.88-5.88a1.39,1.39,0,0,0,0-2l-2.59-2.58a18.46,18.46,0,0,0,1.09-2.65h3.66a1.39,1.39,0,0,0,1.39-1.39Z" style="fill:none;stroke:#91c54f;stroke-miterlimit:10;stroke-width:5px"/><rect x="295.15" y="590.69" width="96" height="96" rx="12" ry="12" style="fill:none;stroke:#91c54f;stroke-miterlimit:10;stroke-width:5px"/><circle cx="307.65" cy="599.19" r="3" style="fill:#91c54f"/><circle cx="317.15" cy="599.19" r="3" style="fill:#91c54f"/><circle cx="326.65" cy="599.19" r="3" style="fill:#91c54f"/><line x1="304.65" y1="609.19" x2="368.65" y2="609.19" style="fill:none;stroke:#91c54f;stroke-miterlimit:10;stroke-width:5px"/><line x1="304.65" y1="615.69" x2="319.15" y2="615.69" style="fill:none;stroke:#91c54f;stroke-miterlimit:10;stroke-width:5px"/><line x1="304.65" y1="621.69" x2="319.15" y2="621.69" style="fill:none;stroke:#91c54f;stroke-miterlimit:10;stroke-width:5px"/><line x1="367.65" y1="678.69" x2="382.15" y2="678.69" style="fill:none;stroke:#91c54f;stroke-miterlimit:10;stroke-width:5px"/><rect x="36.03" y="1025.93" width="104.21" height="73.51" rx="12" ry="12" style="fill:none;stroke:#3a5c84;stroke-miterlimit:10;stroke-width:5px"/><path d="M68.2,1055.26a4,4,0,0,1-1.06,2.89.25.25,0,0,0,0,.26l1.29,2.7a.21.21,0,0,0,.24.14,3.93,3.93,0,0,1,4.2,3.79.24.24,0,0,0,.16.22l2.82,1h0a.17.17,0,0,0,.22-.07,4.45,4.45,0,0,1,.59-.56l0,0,.29-.19a1.71,1.71,0,0,1,.23-.13l.11-.06a3.9,3.9,0,0,1,4.39.67.22.22,0,0,0,.27,0l2.7-1.29h0a.24.24,0,0,0,.14-.23,3.93,3.93,0,0,1,2.49-3.94l.09,0,.15,0,.24-.07h0a4.79,4.79,0,0,1,.76-.1.23.23,0,0,0,.22-.16l1-2.82a.25.25,0,0,0-.07-.26,3.91,3.91,0,0,1-.3-5.65.24.24,0,0,0,0-.27l-.88-1.85h0l-.4-.84a.27.27,0,0,0-.07-.08h0l0,0-.09,0h0a3.93,3.93,0,0,1-4.2-3.79.26.26,0,0,0-.16-.22l-2.82-1a.21.21,0,0,0-.27.06h0a3.91,3.91,0,0,1-.9.77l-.06,0c-.09.06-.18.1-.27.15a3.76,3.76,0,0,1-1.52.39,3.89,3.89,0,0,1-2.88-1,.24.24,0,0,0-.27,0l-2.7,1.29a.25.25,0,0,0-.14.23,3.9,3.9,0,0,1-3.78,4.2.22.22,0,0,0-.22.16l-.69,2h0l-.31.89a.23.23,0,0,0,.07.26A4,4,0,0,1,68.2,1055.26Zm6.13-4.78,0,0a3.23,3.23,0,0,1,.27-.23l.19-.16.08-.06a5.82,5.82,0,1,1,5.84,10,4.78,4.78,0,0,1-.48.19h0a5.82,5.82,0,0,1-5.93-9.73Z" style="fill:#3a5c84"/><path d="M81.7,1076.4a5.09,5.09,0,0,1-1.35,3.71.31.31,0,0,0-.06.34l1.66,3.47a.27.27,0,0,0,.3.18,5,5,0,0,1,3.73,1.28,5,5,0,0,1,1.67,3.58.31.31,0,0,0,.2.28l3.62,1.28h.07a.26.26,0,0,0,.29-.1,5.12,5.12,0,0,1,.76-.71l0,0a4.17,4.17,0,0,1,.37-.26l.3-.16.14-.07a4.94,4.94,0,0,1,1.93-.51,5.11,5.11,0,0,1,3.71,1.36.26.26,0,0,0,.34,0l3.47-1.65h0a.3.3,0,0,0,.17-.3,5,5,0,0,1,3.21-5.06l.11,0,.2-.06.31-.09h0a5.15,5.15,0,0,1,1-.13.34.34,0,0,0,.28-.21l1.28-3.63a.3.3,0,0,0-.09-.33,5,5,0,0,1-.38-7.25.29.29,0,0,0,0-.34l-1.13-2.39h0l-.51-1.09a.26.26,0,0,0-.09-.09h0l0,0a.17.17,0,0,0-.12,0h0a5.11,5.11,0,0,1-3.73-1.28,5.05,5.05,0,0,1-1.66-3.58.32.32,0,0,0-.21-.29l-3.62-1.28a.26.26,0,0,0-.34.09h0a4.68,4.68,0,0,1-1.15,1l-.09,0-.33.19a5.27,5.27,0,0,1-2,.51,5.07,5.07,0,0,1-3.7-1.36.3.3,0,0,0-.35,0L86.5,1063a.31.31,0,0,0-.18.3,5,5,0,0,1-4.86,5.4.27.27,0,0,0-.28.21l-.89,2.51h0l-.41,1.14a.32.32,0,0,0,.1.34A5,5,0,0,1,81.7,1076.4Zm7.88-6.14,0,0,.35-.29.25-.21.11-.07a7.47,7.47,0,1,1,7.49,12.85l-.61.25h0a7.47,7.47,0,0,1-7.61-12.49Z" style="fill:#3a5c84"/><path d="M87.12,1043.07a2.68,2.68,0,0,1-.72,2,.17.17,0,0,0,0,.19l.88,1.84a.14.14,0,0,0,.16.09,2.67,2.67,0,0,1,2.86,2.58.18.18,0,0,0,.11.15l1.93.68h0a.15.15,0,0,0,.16,0,2.4,2.4,0,0,1,.4-.38h0l.19-.14.16-.08.07,0a2.62,2.62,0,0,1,1-.27,2.71,2.71,0,0,1,2,.72.13.13,0,0,0,.18,0l1.84-.88h0a.15.15,0,0,0,.09-.15,2.69,2.69,0,0,1,.69-2,2.66,2.66,0,0,1,1-.7l.06,0,.1,0,.16,0h0a4.34,4.34,0,0,1,.52-.07.17.17,0,0,0,.15-.11l.68-1.92a.18.18,0,0,0-.05-.18,2.65,2.65,0,0,1-.2-3.85.17.17,0,0,0,0-.18l-.6-1.27h0l-.27-.58,0,0h0l0,0-.06,0h0a2.67,2.67,0,0,1-2.86-2.58.15.15,0,0,0-.11-.15l-1.92-.68a.14.14,0,0,0-.18,0h0a3,3,0,0,1-.61.52l0,0-.18.1a2.81,2.81,0,0,1-1,.27,2.73,2.73,0,0,1-2-.72.17.17,0,0,0-.19,0l-1.84.88a.17.17,0,0,0-.09.16A2.67,2.67,0,0,1,87,1039a.16.16,0,0,0-.15.11l-.47,1.33h0l-.21.6a.17.17,0,0,0,0,.18A2.74,2.74,0,0,1,87.12,1043.07Zm4.18-3.25,0,0,.19-.15a.69.69,0,0,1,.13-.11l.06,0a4,4,0,1,1,4,6.82,2.26,2.26,0,0,1-.33.13h0a4,4,0,0,1-4-6.63Z" style="fill:#3a5c84"/><path d="M32.42,1134.61v7.07H26.89v-21.34h8.83a7.34,7.34,0,0,1,5.41,1.92,6.62,6.62,0,0,1,2,5.18,6.94,6.94,0,0,1-1.89,5.32,7.09,7.09,0,0,1-5.31,1.85Zm0-4.48h1.86a3.62,3.62,0,0,0,2.34-.67,2.44,2.44,0,0,0,.7-2,2.57,2.57,0,0,0-.64-1.92,3.26,3.26,0,0,0-2.37-.77H32.42Z"/><path d="M45.58,1127.38H50.7v2.34a4.63,4.63,0,0,1,2-2,5.68,5.68,0,0,1,2.66-.57l1,.06v4.83a4.48,4.48,0,0,0-2.21-.51,3.35,3.35,0,0,0-2.33.77,4.29,4.29,0,0,0-1.15,3.26v6.11H45.58Z"/><path d="M72.42,1139.8a8.58,8.58,0,0,1-6.4,2.36,8.55,8.55,0,0,1-6.36-2.36,7.14,7.14,0,0,1-2.21-5.28,7.05,7.05,0,0,1,2.21-5.25A8.92,8.92,0,0,1,66,1126.9a9,9,0,0,1,6.4,2.37,7.05,7.05,0,0,1,2.21,5.25A7.14,7.14,0,0,1,72.42,1139.8Zm-8.67-7.62a3.18,3.18,0,0,0,0,4.61,3.21,3.21,0,0,0,4.58,0,3.16,3.16,0,0,0,1-2.27,3.48,3.48,0,0,0-1-2.34,3.28,3.28,0,0,0-4.58,0Z"/><path d="M88.39,1141.36a7.47,7.47,0,0,1-3.55.8,7.9,7.9,0,0,1-5.63-2.17,7.45,7.45,0,0,1-2.21-5.34,7.79,7.79,0,0,1,2.3-5.54,8.27,8.27,0,0,1,5.76-2.18,7.34,7.34,0,0,1,3.33.8V1132a4.56,4.56,0,0,0-2.65-.93,3.36,3.36,0,0,0-2.5,1,3.52,3.52,0,0,0-1,2.47,3.71,3.71,0,0,0,.89,2.4,3.5,3.5,0,0,0,2.63,1.09,3.88,3.88,0,0,0,2.62-1Z"/><path d="M106.47,1135.48H95.82a3.62,3.62,0,0,0,.89,2.4,2.88,2.88,0,0,0,2.11.7,4.06,4.06,0,0,0,1.67-.38,2.45,2.45,0,0,0,.89-1h4.9a6.34,6.34,0,0,1-1.73,2.94c-1,1-2.72,2-5.82,2a8.1,8.1,0,0,1-5.92-2.17,7.49,7.49,0,0,1-2.11-5.41,7.6,7.6,0,0,1,2.14-5.53A8,8,0,0,1,98.7,1127a7.84,7.84,0,0,1,5.5,2,8,8,0,0,1,2.27,6Zm-4.7-3a3.47,3.47,0,0,0-.83-1.53,3,3,0,0,0-2.12-.77,2.74,2.74,0,0,0-2.08.77,2.85,2.85,0,0,0-.76,1.53Z"/><path d="M110.34,1137a7.24,7.24,0,0,0,2,1,6.51,6.51,0,0,0,2,.36,2.17,2.17,0,0,0,1.31-.39.81.81,0,0,0,.25-.67.77.77,0,0,0-.25-.64,3.23,3.23,0,0,0-1.35-.51l-1.34-.32a4.65,4.65,0,0,1-2.5-1.25,3.48,3.48,0,0,1-.92-2.46,5.1,5.1,0,0,1,1.34-3.49,7.23,7.23,0,0,1,5.12-1.73,11.8,11.8,0,0,1,4.57.93l-1.72,3.26a7.11,7.11,0,0,0-2.69-.7,2.09,2.09,0,0,0-1.18.29.76.76,0,0,0-.45.7.82.82,0,0,0,.61.8c.47.19.89.19,1.69.42l.93.25a6.16,6.16,0,0,1,2.11,1.12,4.08,4.08,0,0,1,1.09,2.85,4.78,4.78,0,0,1-1.44,3.55,7.42,7.42,0,0,1-5.28,1.79,10.57,10.57,0,0,1-5.76-1.66Z"/><path d="M136.81,1125.05h-3v-4.71h8.57v21.34h-5.53Z"/><rect x="537.03" y="1025.93" width="104.21" height="73.51" rx="12" ry="12" style="fill:none;stroke:#3a5c84;stroke-miterlimit:10;stroke-width:5px"/><path d="M569.2,1055.26a4,4,0,0,1-1.06,2.89.25.25,0,0,0,0,.26l1.29,2.7a.21.21,0,0,0,.24.14,3.93,3.93,0,0,1,4.2,3.79.24.24,0,0,0,.16.22l2.82,1h.05a.17.17,0,0,0,.22-.07,4.45,4.45,0,0,1,.59-.56l0,0,.29-.19a1.71,1.71,0,0,1,.23-.13l.11-.06a3.9,3.9,0,0,1,4.39.67.22.22,0,0,0,.27,0l2.7-1.29h0a.24.24,0,0,0,.14-.23,3.93,3.93,0,0,1,2.49-3.94l.09,0,.15,0,.24-.07h0a4.79,4.79,0,0,1,.76-.1.23.23,0,0,0,.22-.16l1-2.82a.25.25,0,0,0-.07-.26,3.91,3.91,0,0,1-.3-5.65.24.24,0,0,0,0-.27l-.88-1.85h0l-.4-.84a.27.27,0,0,0-.07-.08h0l0,0-.09,0h0a3.93,3.93,0,0,1-4.2-3.79.26.26,0,0,0-.16-.22l-2.82-1a.21.21,0,0,0-.27.06h0a3.91,3.91,0,0,1-.9.77l-.06,0c-.09.06-.18.1-.27.15a3.76,3.76,0,0,1-1.52.39,3.89,3.89,0,0,1-2.88-1,.24.24,0,0,0-.27,0l-2.7,1.29a.25.25,0,0,0-.14.23,3.9,3.9,0,0,1-3.78,4.2.22.22,0,0,0-.22.16l-.69,2h0l-.31.89a.23.23,0,0,0,.07.26A4,4,0,0,1,569.2,1055.26Zm6.13-4.78,0,0a3.23,3.23,0,0,1,.27-.23l.19-.16.08-.06a5.82,5.82,0,1,1,5.84,10,4.78,4.78,0,0,1-.48.19h0a5.82,5.82,0,0,1-5.93-9.73Z" style="fill:#3a5c84"/><path d="M582.7,1076.4a5.09,5.09,0,0,1-1.35,3.71.31.31,0,0,0-.06.34l1.66,3.47a.27.27,0,0,0,.3.18,5,5,0,0,1,3.73,1.28,5,5,0,0,1,1.67,3.58.31.31,0,0,0,.2.28l3.62,1.28h.07a.26.26,0,0,0,.29-.1,5.12,5.12,0,0,1,.76-.71l0,0a4.17,4.17,0,0,1,.37-.26l.3-.16.14-.07a4.94,4.94,0,0,1,1.93-.51,5.11,5.11,0,0,1,3.71,1.36.26.26,0,0,0,.34,0l3.47-1.65h0a.3.3,0,0,0,.17-.3,5,5,0,0,1,3.21-5.06l.11,0,.2-.06.31-.09H608a5.15,5.15,0,0,1,1-.13.34.34,0,0,0,.28-.21l1.28-3.63a.3.3,0,0,0-.09-.33,5,5,0,0,1-.38-7.25.29.29,0,0,0,0-.34l-1.13-2.39h0l-.51-1.09a.26.26,0,0,0-.09-.09h0l-.05,0a.17.17,0,0,0-.12,0h0a5.11,5.11,0,0,1-3.73-1.28,5.05,5.05,0,0,1-1.66-3.58.32.32,0,0,0-.21-.29l-3.62-1.28a.26.26,0,0,0-.34.09h0a4.68,4.68,0,0,1-1.15,1l-.09,0-.33.19a5.27,5.27,0,0,1-2,.51,5.07,5.07,0,0,1-3.7-1.36.3.3,0,0,0-.35,0L587.5,1063a.31.31,0,0,0-.18.3,5,5,0,0,1-4.86,5.4.27.27,0,0,0-.28.21l-.89,2.51h0l-.41,1.14a.32.32,0,0,0,.1.34A5,5,0,0,1,582.7,1076.4Zm7.88-6.14,0,0,.35-.29.25-.21.11-.07a7.47,7.47,0,1,1,7.49,12.85l-.61.25h0a7.47,7.47,0,0,1-7.61-12.49Z" style="fill:#3a5c84"/><path d="M588.12,1043.07a2.68,2.68,0,0,1-.72,2,.17.17,0,0,0,0,.19l.88,1.84a.14.14,0,0,0,.16.09,2.67,2.67,0,0,1,2.86,2.58.18.18,0,0,0,.11.15l1.93.68h0a.15.15,0,0,0,.16,0,2.4,2.4,0,0,1,.4-.38h0l.19-.14.16-.08.07,0a2.62,2.62,0,0,1,1-.27,2.71,2.71,0,0,1,2,.72.13.13,0,0,0,.18,0l1.84-.88h0a.15.15,0,0,0,.09-.15,2.69,2.69,0,0,1,.69-2,2.66,2.66,0,0,1,1-.7l.06,0,.1,0,.16,0h0a4.34,4.34,0,0,1,.52-.07.17.17,0,0,0,.15-.11l.68-1.92a.18.18,0,0,0,0-.18,2.65,2.65,0,0,1-.2-3.85.17.17,0,0,0,0-.18l-.6-1.27h0l-.27-.58,0,0h0l0,0-.06,0h0a2.67,2.67,0,0,1-2.86-2.58.15.15,0,0,0-.11-.15l-1.92-.68a.14.14,0,0,0-.18,0h0a3,3,0,0,1-.61.52l0,0-.18.1a2.81,2.81,0,0,1-1,.27,2.73,2.73,0,0,1-2-.72.17.17,0,0,0-.19,0l-1.84.88a.17.17,0,0,0-.09.16A2.67,2.67,0,0,1,588,1039a.16.16,0,0,0-.15.11l-.47,1.33h0l-.21.6a.17.17,0,0,0,.05.18A2.74,2.74,0,0,1,588.12,1043.07Zm4.18-3.25,0,0,.19-.15a.69.69,0,0,1,.13-.11l.06,0a4,4,0,1,1,4,6.82,2.26,2.26,0,0,1-.33.13h0a4,4,0,0,1-4-6.63Z" style="fill:#3a5c84"/><line x1="340.84" y1="906.19" x2="340.84" y2="974.19" style="fill:none;stroke:#4fc2c9;stroke-miterlimit:10;stroke-width:5px"/><line x1="89.84" y1="970.69" x2="591.84" y2="970.69" style="fill:none;stroke:#4fc2c9;stroke-miterlimit:10;stroke-width:5px"/><line x1="91.15" y1="968.19" x2="91.15" y2="1008.19" style="fill:none;stroke:#4fc2c9;stroke-miterlimit:10;stroke-width:5px"/><line x1="341.15" y1="970.19" x2="341.15" y2="1020.19" style="fill:none;stroke:#4fc2c9;stroke-miterlimit:10;stroke-width:5px"/><line x1="592.15" y1="968.19" x2="592.15" y2="1017.19" style="fill:none;stroke:#4fc2c9;stroke-miterlimit:10;stroke-width:5px"/><rect x="289.04" y="1025.93" width="104.21" height="73.51" rx="12" ry="12" style="fill:none;stroke:#3a5c84;stroke-miterlimit:10;stroke-width:5px"/><path d="M321.21,1055.26a3.92,3.92,0,0,1-1,2.89.23.23,0,0,0,0,.26l1.29,2.7c.07.15.16.15.23.14a4,4,0,0,1,2.91,1,3.9,3.9,0,0,1,1.29,2.79.28.28,0,0,0,.16.22l2.82,1h.06a.18.18,0,0,0,.22-.07,3.91,3.91,0,0,1,.59-.56l0,0,.28-.19.23-.13.11-.06a3.92,3.92,0,0,1,4.4.67.2.2,0,0,0,.26,0l2.7-1.29h0a.22.22,0,0,0,.13-.23,4,4,0,0,1,1-2.91,4.07,4.07,0,0,1,1.5-1l.09,0,.15,0,.24-.07h0a4.67,4.67,0,0,1,.75-.1.22.22,0,0,0,.22-.16l1-2.82a.21.21,0,0,0-.07-.26,4,4,0,0,1-1.35-2.76,3.93,3.93,0,0,1,1.06-2.89.26.26,0,0,0,0-.27l-.89-1.85h0l-.4-.84s-.05,0-.07-.08h0l0,0-.09,0h0a4,4,0,0,1-2.91-1,3.92,3.92,0,0,1-1.29-2.79.25.25,0,0,0-.17-.22l-2.82-1a.2.2,0,0,0-.26.06h0a3.91,3.91,0,0,1-.9.77l-.07,0a2.2,2.2,0,0,1-.26.15,3.8,3.8,0,0,1-1.52.39,3.88,3.88,0,0,1-2.88-1,.24.24,0,0,0-.27,0l-2.7,1.29a.25.25,0,0,0-.14.23,3.9,3.9,0,0,1-3.78,4.2.22.22,0,0,0-.22.16l-.69,2h0l-.32.89a.25.25,0,0,0,.07.26A3.9,3.9,0,0,1,321.21,1055.26Zm6.14-4.78,0,0,.27-.23.19-.16.09-.06a5.82,5.82,0,1,1,5.83,10,3.85,3.85,0,0,1-.47.19h0a5.82,5.82,0,0,1-5.92-9.73Z" style="fill:#3a5c84"/><path d="M334.72,1076.4a5.06,5.06,0,0,1-1.36,3.71.32.32,0,0,0-.05.34l1.66,3.47a.27.27,0,0,0,.3.18,5,5,0,0,1,3.73,1.28,5,5,0,0,1,1.66,3.58.34.34,0,0,0,.21.28l3.62,1.28h.07a.26.26,0,0,0,.29-.1,5.58,5.58,0,0,1,.75-.71l0,0a3.09,3.09,0,0,1,.37-.26l.29-.16.15-.07a4.94,4.94,0,0,1,1.93-.51,5.11,5.11,0,0,1,3.71,1.36.26.26,0,0,0,.34,0l3.47-1.65h0a.32.32,0,0,0,.17-.3,5,5,0,0,1,3.21-5.06l.11,0,.19-.06.32-.09H360a5,5,0,0,1,1-.13.34.34,0,0,0,.29-.21l1.28-3.63a.31.31,0,0,0-.09-.33,5,5,0,0,1-.38-7.25.3.3,0,0,0,.05-.34l-1.14-2.39h0l-.51-1.09s-.06-.06-.09-.09h0l-.05,0a.17.17,0,0,0-.12,0h0a5,5,0,0,1-5.39-4.86.34.34,0,0,0-.21-.29l-3.63-1.28a.26.26,0,0,0-.33.09h0a4.68,4.68,0,0,1-1.15,1l-.09,0-.34.19a5.22,5.22,0,0,1-2,.51,5.06,5.06,0,0,1-3.7-1.36.3.3,0,0,0-.35,0l-3.47,1.65a.32.32,0,0,0-.17.3,5,5,0,0,1-4.86,5.4.29.29,0,0,0-.29.21l-.88,2.51h0l-.4,1.14a.34.34,0,0,0,.09.34A5.05,5.05,0,0,1,334.72,1076.4Zm7.87-6.14.05,0,.35-.29.24-.21.12-.07a7.47,7.47,0,1,1,7.49,12.85l-.61.25h0a7.48,7.48,0,0,1-7.62-12.49Z" style="fill:#3a5c84"/><path d="M340.13,1043.07a2.67,2.67,0,0,1-.71,2,.17.17,0,0,0,0,.19l.88,1.84a.14.14,0,0,0,.16.09,2.69,2.69,0,0,1,2,.68,2.66,2.66,0,0,1,.88,1.9.16.16,0,0,0,.11.15l1.92.68h0a.13.13,0,0,0,.15,0,2.86,2.86,0,0,1,.4-.38h0l.2-.14.15-.08.08,0a2.62,2.62,0,0,1,1-.27,2.73,2.73,0,0,1,2,.72.13.13,0,0,0,.18,0l1.84-.88h0a.15.15,0,0,0,.09-.15,2.66,2.66,0,0,1,1.7-2.69l.06,0,.11,0,.16,0h0a4.18,4.18,0,0,1,.51-.07.15.15,0,0,0,.15-.11l.68-1.92a.16.16,0,0,0,0-.18,2.66,2.66,0,0,1-.21-3.85.15.15,0,0,0,0-.18l-.6-1.27h0l-.28-.58,0,0h0l0,0-.07,0h0a2.72,2.72,0,0,1-2-.68,2.68,2.68,0,0,1-.88-1.9.16.16,0,0,0-.11-.15l-1.93-.68a.15.15,0,0,0-.18,0h0a2.81,2.81,0,0,1-.62.52l0,0-.18.1a2.86,2.86,0,0,1-1,.27,2.71,2.71,0,0,1-2-.72.17.17,0,0,0-.19,0l-1.84.88a.15.15,0,0,0-.09.16,2.72,2.72,0,0,1-.68,2,2.66,2.66,0,0,1-1.9.88.16.16,0,0,0-.15.11l-.47,1.33h0l-.22.6a.19.19,0,0,0,0,.18A2.66,2.66,0,0,1,340.13,1043.07Zm4.19-3.25,0,0,.18-.15.14-.11,0,0a4,4,0,1,1,4,6.82,2.15,2.15,0,0,1-.32.13h0a4,4,0,0,1-4-6.63Z" style="fill:#3a5c84"/><path d="M289.91,1134.63v6.63h-5.19v-20H293a6.89,6.89,0,0,1,5.07,1.8,6.2,6.2,0,0,1,1.86,4.86,6.5,6.5,0,0,1-1.77,5,6.66,6.66,0,0,1-5,1.74Zm0-4.2h1.74a3.39,3.39,0,0,0,2.19-.63,2.29,2.29,0,0,0,.66-1.83,2.43,2.43,0,0,0-.6-1.8,3,3,0,0,0-2.22-.72h-1.77Z"/><path d="M302.24,1127.85H307V1130a4.33,4.33,0,0,1,1.89-1.86,5.24,5.24,0,0,1,2.49-.54l1,.06v4.53a4.23,4.23,0,0,0-2.07-.48,3.14,3.14,0,0,0-2.19.72,4,4,0,0,0-1.08,3.06v5.73h-4.8Z"/><path d="M327.41,1139.49a9.18,9.18,0,0,1-12,0,6.92,6.92,0,0,1,0-9.87,8.37,8.37,0,0,1,6-2.22,8.47,8.47,0,0,1,6,2.22,6.92,6.92,0,0,1,0,9.87Zm-8.13-7.14a3.06,3.06,0,0,0,2.16,5.22,3.05,3.05,0,0,0,2.13-.9,3,3,0,0,0,.93-2.13,3.26,3.26,0,0,0-.93-2.19,3.08,3.08,0,0,0-4.29,0Z"/><path d="M342.38,1141a7.12,7.12,0,0,1-3.33.75,7.41,7.41,0,0,1-5.28-2,7,7,0,0,1-2.07-5,7.3,7.3,0,0,1,2.16-5.19,7.73,7.73,0,0,1,5.4-2,6.88,6.88,0,0,1,3.12.75v4a4.28,4.28,0,0,0-2.49-.87,3.15,3.15,0,0,0-2.34.93,3.26,3.26,0,0,0-.93,2.31,3.44,3.44,0,0,0,.84,2.25,3.26,3.26,0,0,0,2.46,1,3.63,3.63,0,0,0,2.46-.9Z"/><path d="M359.33,1135.44h-10a3.39,3.39,0,0,0,.84,2.25,2.7,2.7,0,0,0,2,.66,3.79,3.79,0,0,0,1.56-.36,2.23,2.23,0,0,0,.84-.9h4.59a6,6,0,0,1-1.62,2.76c-1,1-2.55,1.86-5.46,1.86a7.61,7.61,0,0,1-5.55-2,7,7,0,0,1-2-5.07,7.16,7.16,0,0,1,2-5.19,7.55,7.55,0,0,1,5.49-2,7.35,7.35,0,0,1,5.16,1.83,7.51,7.51,0,0,1,2.13,5.64Zm-4.41-2.76a3.22,3.22,0,0,0-.78-1.44,2.8,2.8,0,0,0-2-.72,2.58,2.58,0,0,0-2,.72,2.74,2.74,0,0,0-.72,1.44Z"/><path d="M363,1136.82a6.87,6.87,0,0,0,1.92,1,6.25,6.25,0,0,0,1.86.33,2,2,0,0,0,1.23-.36.77.77,0,0,0,.24-.63.71.71,0,0,0-.24-.6,3,3,0,0,0-1.26-.48l-1.26-.3a4.31,4.31,0,0,1-2.34-1.17,3.24,3.24,0,0,1-.87-2.31,4.79,4.79,0,0,1,1.26-3.27,6.77,6.77,0,0,1,4.8-1.62,11.07,11.07,0,0,1,4.29.87l-1.62,3.06a6.64,6.64,0,0,0-2.52-.66,2,2,0,0,0-1.11.27.72.72,0,0,0-.42.66.78.78,0,0,0,.57.75c.45.18.84.18,1.59.39l.87.24a5.67,5.67,0,0,1,2,1,3.79,3.79,0,0,1,1,2.67,4.48,4.48,0,0,1-1.35,3.33,7,7,0,0,1-5,1.68,9.89,9.89,0,0,1-5.4-1.56Z"/><path d="M397.58,1141.26H381.53l5.07-5.31a33.14,33.14,0,0,0,4.11-5.07,5.63,5.63,0,0,0,1.08-3.12,3,3,0,0,0-.6-1.92,2,2,0,0,0-1.47-.6,2.15,2.15,0,0,0-1.74.81,5,5,0,0,0-.72,2.46h-5.37a8,8,0,0,1,2.22-5.55,8.62,8.62,0,0,1,11.31-.09,6.68,6.68,0,0,1,1.95,4.92c0,2.52-1.17,4.26-3,5.94l-3.36,3.12h6.54Z"/><path d="M538.34,1134.4V1141h-5.19v-20h8.28a6.89,6.89,0,0,1,5.07,1.8,6.2,6.2,0,0,1,1.86,4.86,6.5,6.5,0,0,1-1.77,5,6.66,6.66,0,0,1-5,1.74Zm0-4.2h1.74a3.39,3.39,0,0,0,2.19-.63,2.29,2.29,0,0,0,.66-1.83,2.43,2.43,0,0,0-.6-1.8,3,3,0,0,0-2.22-.72h-1.77Z"/><path d="M550.67,1127.62h4.8v2.19a4.33,4.33,0,0,1,1.89-1.86,5.24,5.24,0,0,1,2.49-.54l1,.06V1132a4.23,4.23,0,0,0-2.07-.48,3.14,3.14,0,0,0-2.19.72,4,4,0,0,0-1.08,3.06V1141h-4.8Z"/><path d="M575.84,1139.26a9.18,9.18,0,0,1-12,0,6.92,6.92,0,0,1,0-9.87,8.37,8.37,0,0,1,6-2.22,8.47,8.47,0,0,1,6,2.22,6.92,6.92,0,0,1,0,9.87Zm-8.13-7.14a3.06,3.06,0,0,0,2.16,5.22,3.05,3.05,0,0,0,2.13-.9,3,3,0,0,0,.93-2.13,3.26,3.26,0,0,0-.93-2.19,3.08,3.08,0,0,0-4.29,0Z"/><path d="M590.81,1140.73a7.12,7.12,0,0,1-3.33.75,7.41,7.41,0,0,1-5.28-2,7,7,0,0,1-2.07-5,7.3,7.3,0,0,1,2.16-5.19,7.73,7.73,0,0,1,5.4-2,6.88,6.88,0,0,1,3.12.75v4a4.28,4.28,0,0,0-2.49-.87,3.15,3.15,0,0,0-2.34.93,3.26,3.26,0,0,0-.93,2.31,3.44,3.44,0,0,0,.84,2.25,3.26,3.26,0,0,0,2.46,1,3.63,3.63,0,0,0,2.46-.9Z"/><path d="M607.76,1135.21h-10a3.39,3.39,0,0,0,.84,2.25,2.7,2.7,0,0,0,2,.66,3.79,3.79,0,0,0,1.56-.36,2.23,2.23,0,0,0,.84-.9h4.59a6,6,0,0,1-1.62,2.76c-1,1-2.55,1.86-5.46,1.86a7.61,7.61,0,0,1-5.55-2,7,7,0,0,1-2-5.07,7.16,7.16,0,0,1,2-5.19,7.55,7.55,0,0,1,5.49-2,7.35,7.35,0,0,1,5.16,1.83,7.51,7.51,0,0,1,2.13,5.64Zm-4.41-2.76a3.22,3.22,0,0,0-.78-1.44,2.8,2.8,0,0,0-2-.72,2.58,2.58,0,0,0-2,.72,2.74,2.74,0,0,0-.72,1.44Z"/><path d="M611.39,1136.59a6.87,6.87,0,0,0,1.92,1,6.25,6.25,0,0,0,1.86.33,2,2,0,0,0,1.23-.36.77.77,0,0,0,.24-.63.71.71,0,0,0-.24-.6,3,3,0,0,0-1.26-.48l-1.26-.3a4.31,4.31,0,0,1-2.34-1.17,3.24,3.24,0,0,1-.87-2.31,4.79,4.79,0,0,1,1.26-3.27,6.77,6.77,0,0,1,4.8-1.62,11.07,11.07,0,0,1,4.29.87l-1.62,3.06a6.64,6.64,0,0,0-2.52-.66,2,2,0,0,0-1.11.27.72.72,0,0,0-.42.66.78.78,0,0,0,.57.75c.45.18.84.18,1.59.39l.87.24a5.67,5.67,0,0,1,2,1,3.79,3.79,0,0,1,1,2.67,4.48,4.48,0,0,1-1.35,3.33,7,7,0,0,1-4.95,1.68,9.89,9.89,0,0,1-5.4-1.56Z"/><path d="M630.83,1127.62h4.8v1.68a5.06,5.06,0,0,1,4.26-2,5.42,5.42,0,0,1,4,1.44,4.62,4.62,0,0,1,1.26,3.75V1141h-4.8v-6.78a3.85,3.85,0,0,0-.6-2.61,2,2,0,0,0-1.53-.57,2.63,2.63,0,0,0-1.77.63,3.08,3.08,0,0,0-.78,2.13v7.2h-4.8Z"/><path d="M458.69,1070a3.12,3.12,0,0,1,2.19-5.31,3.15,3.15,0,0,1,2.22,1,3.12,3.12,0,0,1,0,4.35,3.07,3.07,0,0,1-2.19.93A3,3,0,0,1,458.69,1070Z"/><path d="M467.78,1070a3.12,3.12,0,0,1,2.19-5.31,3.11,3.11,0,0,1,2.21,1,2.84,2.84,0,0,1,.88,2.16,2.9,2.9,0,0,1-.9,2.19,3.07,3.07,0,0,1-2.19.93A3,3,0,0,1,467.78,1070Z"/><path d="M476.87,1070a3.12,3.12,0,0,1,2.19-5.31,3.11,3.11,0,0,1,2.21,1,2.84,2.84,0,0,1,.87,2.16,2.9,2.9,0,0,1-.89,2.19,3.07,3.07,0,0,1-2.19.93A3,3,0,0,1,476.87,1070Z"/><circle cx="525.59" cy="347.55" r="47" style="fill:none;stroke:#3a5c84;stroke-miterlimit:10;stroke-width:5px"/><circle cx="525.59" cy="347.55" r="11" style="fill:none;stroke:#3a5c84;stroke-miterlimit:10;stroke-width:5px"/><rect x="278.97" y="289.05" width="100" height="117" rx="12" ry="12" style="fill:none;stroke:#3a5c84;stroke-miterlimit:10;stroke-width:5px"/><circle cx="289.97" cy="300.05" r="4" style="fill:none;stroke:#3a5c84;stroke-miterlimit:10;stroke-width:2px"/><circle cx="367.97" cy="300.05" r="4" style="fill:none;stroke:#3a5c84;stroke-miterlimit:10;stroke-width:2px"/><circle cx="367.97" cy="395.05" r="4" style="fill:none;stroke:#3a5c84;stroke-miterlimit:10;stroke-width:2px"/><circle cx="289.97" cy="395.05" r="4" style="fill:none;stroke:#3a5c84;stroke-miterlimit:10;stroke-width:2px"/><circle cx="328.97" cy="338.28" r="28" style="fill:none;stroke:#3a5c84;stroke-miterlimit:10;stroke-width:5px"/><circle cx="328.97" cy="338.28" r="4" style="fill:none;stroke:#3a5c84;stroke-miterlimit:10;stroke-width:5px"/><circle cx="325.97" cy="361.78" r="13" style="fill:#fff"/><path d="M329,356l-18.38,12.94a8,8,0,1,0,9,9.06l13.66-17.76A3,3,0,0,0,329,356Z" style="fill:none;stroke:#3a5c84;stroke-miterlimit:10;stroke-width:5px"/><line x1="316.47" y1="397.55" x2="341.47" y2="397.55" style="fill:none;stroke:#3a5c84;stroke-miterlimit:10;stroke-width:5px"/><rect x="109.1" y="326.94" width="46.5" height="68.42" rx="12" ry="12" style="fill:none;stroke:#3a5c84;stroke-miterlimit:10;stroke-width:5px"/><rect x="115.57" y="303.02" width="32.55" height="23.91" rx="5" ry="5" style="fill:none;stroke:#3a5c84;stroke-miterlimit:10;stroke-width:5px"/><rect x="123.21" y="308.01" width="3.99" height="3.99" style="fill:#3a5c84"/><rect x="136.5" y="308.01" width="3.99" height="3.99" style="fill:#3a5c84"/><path d="M216.84,871.91a7,7,0,0,0,4.59,2,2.63,2.63,0,0,0,2-.69A1.79,1.79,0,0,0,224,872a1.56,1.56,0,0,0-.57-1.2,7.21,7.21,0,0,0-2.58-1l-1.35-.42a6.54,6.54,0,0,1-2.88-1.62,5,5,0,0,1-1.14-3.54,6.54,6.54,0,0,1,1.83-4.83,7.05,7.05,0,0,1,5.13-1.89,14.06,14.06,0,0,1,6.18,1.62l-2.07,4a5.28,5.28,0,0,0-3.42-1.35,2.49,2.49,0,0,0-1.71.6,1.48,1.48,0,0,0-.51,1.08,1.34,1.34,0,0,0,.27.9,3.28,3.28,0,0,0,1.74.9l1.59.48a7.64,7.64,0,0,1,3.63,2,4.72,4.72,0,0,1,1.29,3.57,6.78,6.78,0,0,1-1.89,5,7.76,7.76,0,0,1-5.91,2,10.7,10.7,0,0,1-3.93-.66,14,14,0,0,1-3-1.59Z"/><path d="M234.6,856.22a2.7,2.7,0,1,1-2.7,2.7A2.69,2.69,0,0,1,234.6,856.22Zm2.4,8.28v13.41h-4.8V864.5Z"/><path d="M241.14,873.47a6.87,6.87,0,0,0,1.92,1,6.25,6.25,0,0,0,1.86.33,2,2,0,0,0,1.23-.36.77.77,0,0,0,.24-.63.71.71,0,0,0-.24-.6,3,3,0,0,0-1.26-.48l-1.26-.3a4.31,4.31,0,0,1-2.34-1.17,3.24,3.24,0,0,1-.87-2.31,4.79,4.79,0,0,1,1.26-3.27,6.77,6.77,0,0,1,4.8-1.62,11.07,11.07,0,0,1,4.29.87L249.15,868a6.64,6.64,0,0,0-2.52-.66,2,2,0,0,0-1.11.27.72.72,0,0,0-.42.66.78.78,0,0,0,.57.75c.45.18.84.18,1.59.39l.87.24a5.67,5.67,0,0,1,2,1,3.79,3.79,0,0,1,1,2.67,4.48,4.48,0,0,1-1.35,3.33,7,7,0,0,1-4.95,1.68,9.89,9.89,0,0,1-5.4-1.56Z"/><path d="M258.9,868.43v9.48h-4.8v-9.48h-1.53V864.5h1.53v-4.41h4.8v4.41h2.73v3.93Z"/><path d="M277.65,872.09h-10a3.39,3.39,0,0,0,.84,2.25,2.7,2.7,0,0,0,2,.66,3.79,3.79,0,0,0,1.56-.36,2.23,2.23,0,0,0,.84-.9h4.59a6,6,0,0,1-1.62,2.76c-1,1-2.55,1.86-5.46,1.86a7.61,7.61,0,0,1-5.55-2,7,7,0,0,1-2-5.07,7.16,7.16,0,0,1,2-5.19,7.55,7.55,0,0,1,5.49-1.95,7.35,7.35,0,0,1,5.16,1.83,7.51,7.51,0,0,1,2.13,5.64Zm-4.41-2.76a3.22,3.22,0,0,0-.78-1.44,2.8,2.8,0,0,0-2-.72,2.58,2.58,0,0,0-2,.72,2.74,2.74,0,0,0-.72,1.44Z"/><path d="M280.41,864.5h4.8v1.62a5.15,5.15,0,0,1,4-1.86,5.46,5.46,0,0,1,2.58.6,4.19,4.19,0,0,1,1.86,1.92,4.71,4.71,0,0,1,1.83-1.86,5.44,5.44,0,0,1,2.79-.66,5.33,5.33,0,0,1,3.72,1.23,4.93,4.93,0,0,1,1.26,3.69v8.73h-4.8v-6.63c0-1.41-.15-2.37-.69-2.88a1.75,1.75,0,0,0-1.26-.45,1.94,1.94,0,0,0-1.41.54,3.43,3.43,0,0,0-.87,2.55v6.87h-4.8v-6.63a4.29,4.29,0,0,0-.63-2.88,1.86,1.86,0,0,0-1.44-.54,1.69,1.69,0,0,0-1.32.48,4,4,0,0,0-.84,2.94v6.63h-4.8Z"/><path d="M328.77,877.91H324v-1.47a4.92,4.92,0,0,1-4.05,1.92,6.42,6.42,0,0,1-4.71-1.86,7.4,7.4,0,0,1-2.16-5.34,7.31,7.31,0,0,1,2.19-5.31,6.86,6.86,0,0,1,4.74-1.8,5.31,5.31,0,0,1,4,1.74V856h4.8Zm-5.67-4.44a3.22,3.22,0,0,0,1-2.28,3.51,3.51,0,0,0-.9-2.16,3.08,3.08,0,0,0-4.32,0,3.29,3.29,0,0,0-.93,2.28,3,3,0,0,0,.93,2.1,3,3,0,0,0,2.13.9A3.28,3.28,0,0,0,323.1,873.47Z"/><path d="M346.29,872.09h-10a3.39,3.39,0,0,0,.84,2.25,2.7,2.7,0,0,0,2,.66,3.79,3.79,0,0,0,1.56-.36,2.23,2.23,0,0,0,.84-.9h4.59a6,6,0,0,1-1.62,2.76c-1,1-2.55,1.86-5.46,1.86a7.61,7.61,0,0,1-5.55-2,7,7,0,0,1-2-5.07,7.16,7.16,0,0,1,2-5.19,7.55,7.55,0,0,1,5.49-1.95,7.35,7.35,0,0,1,5.16,1.83,7.51,7.51,0,0,1,2.13,5.64Zm-4.41-2.76a3.22,3.22,0,0,0-.78-1.44,2.8,2.8,0,0,0-2-.72,2.58,2.58,0,0,0-1.95.72,2.74,2.74,0,0,0-.72,1.44Z"/><path d="M369.54,876.14a9.18,9.18,0,0,1-12,0,6.92,6.92,0,0,1,0-9.87,8.37,8.37,0,0,1,6-2.22,8.47,8.47,0,0,1,6,2.22,6.92,6.92,0,0,1,0,9.87ZM361.41,869a3.06,3.06,0,0,0,2.16,5.22,3.05,3.05,0,0,0,2.13-.9,3,3,0,0,0,.93-2.13,3.26,3.26,0,0,0-.93-2.19,3.08,3.08,0,0,0-4.29,0Z"/><path d="M379.17,884.78h-4.8V864.5h4.8V866a5,5,0,0,1,4.11-1.92,6.67,6.67,0,0,1,4.77,2,7.61,7.61,0,0,1-.12,10.5,6.44,6.44,0,0,1-4.59,1.86,5.71,5.71,0,0,1-4.17-1.74ZM380,869a3.27,3.27,0,0,0-.93,2.22,3.24,3.24,0,0,0,.93,2.13,3.07,3.07,0,0,0,2.16.9,2.9,2.9,0,0,0,2.13-.9,3.17,3.17,0,0,0,.93-2.13,3.27,3.27,0,0,0-.93-2.22,2.9,2.9,0,0,0-2.13-.9A3.07,3.07,0,0,0,380,869Z"/><path d="M407.07,872.09h-10a3.39,3.39,0,0,0,.84,2.25,2.7,2.7,0,0,0,2,.66,3.79,3.79,0,0,0,1.56-.36,2.23,2.23,0,0,0,.84-.9h4.59a6,6,0,0,1-1.62,2.76c-1,1-2.55,1.86-5.46,1.86a7.61,7.61,0,0,1-5.55-2,7,7,0,0,1-2-5.07,7.16,7.16,0,0,1,2-5.19,7.55,7.55,0,0,1,5.49-1.95,7.35,7.35,0,0,1,5.16,1.83,7.51,7.51,0,0,1,2.13,5.64Zm-4.41-2.76a3.22,3.22,0,0,0-.78-1.44,2.8,2.8,0,0,0-2-.72,2.58,2.58,0,0,0-1.95.72,2.74,2.74,0,0,0-.72,1.44Z"/><path d="M409.83,864.5h4.8v2.19a4.33,4.33,0,0,1,1.89-1.86,5.24,5.24,0,0,1,2.49-.54l1,.06v4.53a4.23,4.23,0,0,0-2.07-.48,3.14,3.14,0,0,0-2.19.72,4,4,0,0,0-1.08,3.06v5.73h-4.8Z"/><path d="M432.48,864.5h4.8v13.41h-4.8v-1.47a5,5,0,0,1-4.17,1.92,6.42,6.42,0,0,1-4.83-2.13,6.76,6.76,0,0,1-1.92-4.92,7.42,7.42,0,0,1,2.07-5.37,6.9,6.9,0,0,1,4.83-1.89,5.31,5.31,0,0,1,4,1.74Zm-5,4.5a3.14,3.14,0,0,0-1,2.19,3.09,3.09,0,0,0,.93,2.19,3.37,3.37,0,0,0,2.16.9,3.08,3.08,0,0,0,2.16-.93,2.91,2.91,0,0,0,.9-2.16,3,3,0,0,0-.93-2.19,3,3,0,0,0-4.26,0Z"/><path d="M440.58,864.5h4.8v2.19a4.33,4.33,0,0,1,1.89-1.86,5.24,5.24,0,0,1,2.49-.54l1,.06v4.53a4.23,4.23,0,0,0-2.07-.48,3.14,3.14,0,0,0-2.19.72,4,4,0,0,0-1.08,3.06v5.73h-4.8Z"/><path d="M467.06,872.09h-10a3.39,3.39,0,0,0,.84,2.25,2.69,2.69,0,0,0,2,.66,3.85,3.85,0,0,0,1.57-.36,2.23,2.23,0,0,0,.84-.9h4.59a6,6,0,0,1-1.63,2.76c-1,1-2.54,1.86-5.45,1.86a7.61,7.61,0,0,1-5.55-2,7,7,0,0,1-2-5.07,7.16,7.16,0,0,1,2-5.19,7.55,7.55,0,0,1,5.49-1.95,7.31,7.31,0,0,1,5.15,1.83,7.51,7.51,0,0,1,2.13,5.64Zm-4.4-2.76a3.32,3.32,0,0,0-.78-1.44,2.8,2.8,0,0,0-2-.72,2.57,2.57,0,0,0-1.94.72,2.82,2.82,0,0,0-.73,1.44Z"/><path d="M230.84,73.37h-6.27V76.7h5.7v4.41h-5.7V89h-5.19V69h11.46Z"/><path d="M235.58,67.28a2.7,2.7,0,1,1-2.7,2.7A2.69,2.69,0,0,1,235.58,67.28Zm2.4,8.28V89h-4.8V75.56Z"/><path d="M241.25,75.56h4.8v2.19a4.33,4.33,0,0,1,1.89-1.86,5.24,5.24,0,0,1,2.49-.54l1,.06v4.53a4.23,4.23,0,0,0-2.07-.48,3.14,3.14,0,0,0-2.19.72,4,4,0,0,0-1.08,3.06V89h-4.8Z"/><path d="M253.52,75.56h4.8v1.62a5.15,5.15,0,0,1,4-1.86,5.46,5.46,0,0,1,2.58.6,4.24,4.24,0,0,1,1.86,1.92A4.71,4.71,0,0,1,268.61,76a5.42,5.42,0,0,1,2.79-.66,5.31,5.31,0,0,1,3.71,1.23,4.89,4.89,0,0,1,1.26,3.69V89h-4.8V82.34c0-1.41-.14-2.37-.68-2.88a1.77,1.77,0,0,0-1.26-.45,1.94,1.94,0,0,0-1.41.54,3.39,3.39,0,0,0-.87,2.55V89h-4.8V82.34a4.29,4.29,0,0,0-.63-2.88,1.86,1.86,0,0,0-1.44-.54,1.69,1.69,0,0,0-1.32.48,4,4,0,0,0-.84,2.94V89h-4.8Z"/><path d="M283.43,75.56l3.18,7.08L290,75.56h2.94l3.39,7.29,3.36-7.29H305L298,89h-3.24l-3.36-7.38L288.2,89H285l-6.89-13.41Z"/><path d="M316,75.56h4.79V89H316V87.5a5,5,0,0,1-4.17,1.92A6.42,6.42,0,0,1,307,87.29,6.76,6.76,0,0,1,305,82.37,7.42,7.42,0,0,1,307.1,77a6.9,6.9,0,0,1,4.83-1.89,5.31,5.31,0,0,1,4,1.74Zm-5.05,4.5a3.17,3.17,0,0,0-.95,2.19,3.09,3.09,0,0,0,.93,2.19,3.37,3.37,0,0,0,2.16.9,3.08,3.08,0,0,0,2.16-.93,3,3,0,0,0,.9-2.16,3,3,0,0,0-.93-2.19,3.05,3.05,0,0,0-4.27,0Z"/><path d="M324.05,75.56h4.8v2.19a4.28,4.28,0,0,1,1.89-1.86,5.17,5.17,0,0,1,2.48-.54l1,.06v4.53a4.2,4.2,0,0,0-2.07-.48,3.16,3.16,0,0,0-2.19.72,4,4,0,0,0-1.07,3.06V89h-4.8Z"/><path d="M350.53,83.15h-10a3.39,3.39,0,0,0,.84,2.25,2.7,2.7,0,0,0,2,.66,3.79,3.79,0,0,0,1.56-.36,2.23,2.23,0,0,0,.84-.9h4.59a6,6,0,0,1-1.62,2.76c-1,1-2.55,1.86-5.46,1.86a7.61,7.61,0,0,1-5.55-2,7,7,0,0,1-2-5.07,7.16,7.16,0,0,1,2-5.19,7.55,7.55,0,0,1,5.49-2A7.35,7.35,0,0,1,348.4,77a7.51,7.51,0,0,1,2.13,5.64Zm-4.41-2.76a3.22,3.22,0,0,0-.78-1.44,2.8,2.8,0,0,0-2-.72,2.58,2.58,0,0,0-1.95.72,2.74,2.74,0,0,0-.72,1.44Z"/><path d="M375.46,89h-4.8V87.5a4.92,4.92,0,0,1-4.05,1.92,6.42,6.42,0,0,1-4.71-1.86,7.4,7.4,0,0,1-2.16-5.34,7.31,7.31,0,0,1,2.19-5.31,6.86,6.86,0,0,1,4.74-1.8,5.31,5.31,0,0,1,4,1.74V67.1h4.8Zm-5.67-4.44a3.22,3.22,0,0,0,1-2.28,3.51,3.51,0,0,0-.9-2.16,3.08,3.08,0,0,0-4.32,0,3.29,3.29,0,0,0-.93,2.28,3,3,0,0,0,.93,2.1,3,3,0,0,0,2.13.9A3.28,3.28,0,0,0,369.79,84.53Z"/><path d="M393,83.15H383a3.39,3.39,0,0,0,.84,2.25,2.7,2.7,0,0,0,2,.66,3.79,3.79,0,0,0,1.56-.36,2.23,2.23,0,0,0,.84-.9h4.59a6,6,0,0,1-1.62,2.76c-1,1-2.55,1.86-5.46,1.86a7.61,7.61,0,0,1-5.55-2,7,7,0,0,1-2-5.07,7.16,7.16,0,0,1,2-5.19,7.55,7.55,0,0,1,5.49-2A7.35,7.35,0,0,1,390.85,77,7.51,7.51,0,0,1,393,82.64Zm-4.41-2.76a3.22,3.22,0,0,0-.78-1.44,2.8,2.8,0,0,0-2-.72,2.58,2.58,0,0,0-1.95.72,2.74,2.74,0,0,0-.72,1.44Z"/><path d="M407.53,67.1v9.75a5.31,5.31,0,0,1,4-1.74,6.86,6.86,0,0,1,4.74,1.8,7.31,7.31,0,0,1,2.19,5.31,7.4,7.4,0,0,1-2.16,5.34,6.42,6.42,0,0,1-4.71,1.86,4.92,4.92,0,0,1-4.05-1.92V89h-4.8V67.1Zm5.07,17.34a3,3,0,0,0,.93-2.1,3.29,3.29,0,0,0-.93-2.28,3.08,3.08,0,0,0-4.32,0,3.51,3.51,0,0,0-.9,2.16,3.22,3.22,0,0,0,1,2.28,3.28,3.28,0,0,0,2.07.81A3,3,0,0,0,412.6,84.44Z"/><path d="M434.71,87.2a9.18,9.18,0,0,1-12,0,6.92,6.92,0,0,1,0-9.87,8.37,8.37,0,0,1,6-2.22,8.47,8.47,0,0,1,6,2.22,6.92,6.92,0,0,1,0,9.87Zm-8.13-7.14a3.06,3.06,0,0,0,2.16,5.22,3.05,3.05,0,0,0,2.13-.9,3,3,0,0,0,.93-2.13,3.26,3.26,0,0,0-.93-2.19,3.08,3.08,0,0,0-4.29,0Z"/><path d="M453,87.2a9.18,9.18,0,0,1-12,0,6.92,6.92,0,0,1,0-9.87,8.37,8.37,0,0,1,6-2.22,8.47,8.47,0,0,1,6,2.22,6.92,6.92,0,0,1,0,9.87Zm-8.13-7.14a3.06,3.06,0,0,0,2.16,5.22,3.05,3.05,0,0,0,2.13-.9,3,3,0,0,0,.93-2.13,3.26,3.26,0,0,0-.93-2.19,3.08,3.08,0,0,0-4.29,0Z"/><path d="M463.18,79.49V89h-4.8V79.49h-1.53V75.56h1.53V71.15h4.8v4.41h2.73v3.93Z"/></svg>