<svg id="Layer_1" data-name="Layer 1" xmlns="http://www.w3.org/2000/svg" viewBox="0 0 1248 756"><title>Cap 10 -</title><line x1="435" y1="53.5" x2="754.5" y2="52.5" style="fill:none;stroke:#000;stroke-miterlimit:10;stroke-width:5px"/><line x1="452.5" y1="111.5" x2="752.5" y2="543.5" style="fill:none;stroke:#000;stroke-miterlimit:10;stroke-width:5px"/><rect x="40.61" y="183.57" width="413" height="160" rx="12" ry="12" style="fill:none;stroke:#4fc2c9;stroke-miterlimit:10;stroke-width:5px"/><path d="M195.1,248.07v6.18h-4.84V235.58H198a6.44,6.44,0,0,1,4.73,1.68,5.81,5.81,0,0,1,1.73,4.54,6,6,0,0,1-1.65,4.64,6.22,6.22,0,0,1-4.65,1.63Zm0-3.92h1.63a3.18,3.18,0,0,0,2-.59,2.13,2.13,0,0,0,.62-1.71,2.3,2.3,0,0,0-.56-1.68,2.85,2.85,0,0,0-2.08-.67H195.1Z"/><path d="M216,241.74h4.48v12.52H216v-1.37a4.7,4.7,0,0,1-3.89,1.79,6,6,0,0,1-4.51-2,6.34,6.34,0,0,1-1.79-4.59,6.93,6.93,0,0,1,1.93-5,6.48,6.48,0,0,1,4.51-1.76A4.93,4.93,0,0,1,216,243Zm-4.7,4.2a2.81,2.81,0,0,0,0,4.09,3.12,3.12,0,0,0,2,.84,2.88,2.88,0,0,0,2-.87,2.72,2.72,0,0,0,.84-2,2.78,2.78,0,0,0-.87-2.05,2.84,2.84,0,0,0-4,0Z"/><path d="M223.52,241.74H228v2a4.05,4.05,0,0,1,1.77-1.74,4.91,4.91,0,0,1,2.32-.5c.11,0,.31,0,.9,0v4.23a4,4,0,0,0-1.94-.45,2.93,2.93,0,0,0-2,.68,3.77,3.77,0,0,0-1,2.85v5.35h-4.48Z"/><path d="M240.35,245.41v8.85h-4.48v-8.85h-1.43v-3.67h1.43v-4.11h4.48v4.12h2.55v3.66Z"/><path d="M246.82,234a2.52,2.52,0,1,1-2.52,2.52A2.51,2.51,0,0,1,246.82,234Zm2.24,7.73v12.51h-4.48V241.75Z"/><path d="M257.07,245.42v8.84h-4.48v-8.84h-1.42v-3.67h1.43v-4.12h4.48v4.12h2.54v3.67Zm-4.32,10.24,4.2.45-2.85,5.15-2.81-.33Z"/><path d="M263.53,234a2.52,2.52,0,1,1-2.52,2.52A2.51,2.51,0,0,1,263.53,234Zm2.24,7.73v12.52h-4.48V241.75Z"/><path d="M278.51,241.75H283v12.52h-4.48V252.9a4.69,4.69,0,0,1-3.89,1.79,6,6,0,0,1-4.51-2,6.34,6.34,0,0,1-1.79-4.59,7,7,0,0,1,1.93-5,6.48,6.48,0,0,1,4.51-1.76,4.93,4.93,0,0,1,3.75,1.63Zm-4.7,4.2a2.81,2.81,0,0,0,0,4.09,3.15,3.15,0,0,0,2,.84,2.88,2.88,0,0,0,2-.87,2.72,2.72,0,0,0,.84-2,2.76,2.76,0,0,0-.86-2.05,2.89,2.89,0,0,0-2-.81A2.83,2.83,0,0,0,273.81,246Z"/><path d="M306.76,254.27h-15l4.74-5a30.21,30.21,0,0,0,3.83-4.73,5.18,5.18,0,0,0,1-2.91,2.82,2.82,0,0,0-.56-1.79,1.82,1.82,0,0,0-1.37-.56,2,2,0,0,0-1.62.75,4.67,4.67,0,0,0-.68,2.3h-5a7.43,7.43,0,0,1,2.07-5.18,8.06,8.06,0,0,1,10.56-.08,6.2,6.2,0,0,1,1.82,4.59,7.24,7.24,0,0,1-2.77,5.54l-3.14,2.91h6.1Z"/><path d="M186.29,267.44H190l-14.34,25.68H172Z"/><path d="M207.34,287.86h-4.48v-1.38a4.57,4.57,0,0,1-3.78,1.79,6,6,0,0,1-4.39-1.73,6.91,6.91,0,0,1-2-5,6.81,6.81,0,0,1,2.05-4.95,6.37,6.37,0,0,1,4.42-1.68,5,5,0,0,1,3.73,1.62v-9.1h4.48Zm-5.29-4.15a3,3,0,0,0,1-2.13,3.29,3.29,0,0,0-.84-2,2.89,2.89,0,0,0-4,0,3.08,3.08,0,0,0-.86,2.13,2.86,2.86,0,0,0,.86,2,2.82,2.82,0,0,0,2,.84A3,3,0,0,0,202.05,283.71Z"/><path d="M223.7,282.43h-9.33a3.15,3.15,0,0,0,.79,2.1,2.51,2.51,0,0,0,1.84.61,3.62,3.62,0,0,0,1.46-.33,2.06,2.06,0,0,0,.78-.84h4.29a5.65,5.65,0,0,1-1.51,2.57,6.8,6.8,0,0,1-5.1,1.74,7.11,7.11,0,0,1-5.18-1.91,6.55,6.55,0,0,1-1.85-4.73,6.67,6.67,0,0,1,1.88-4.84,7,7,0,0,1,5.12-1.82,6.86,6.86,0,0,1,4.82,1.71,7,7,0,0,1,2,5.26Zm-4.12-2.58a2.89,2.89,0,0,0-.73-1.34,2.6,2.6,0,0,0-1.84-.68,2.38,2.38,0,0,0-1.82.68,2.56,2.56,0,0,0-.68,1.34Z"/><path d="M229.75,275.34l3,6.42,3-6.42h5l-6.53,12.51H231.2l-6.47-12.52Z"/><path d="M254.25,267.45h3.67l-14.35,25.68h-3.63Z"/><path d="M261.94,283.72a6.7,6.7,0,0,0,1.8.93,6,6,0,0,0,1.73.3,1.91,1.91,0,0,0,1.15-.33.71.71,0,0,0,.22-.59.65.65,0,0,0-.22-.56,2.8,2.8,0,0,0-1.18-.45l-1.17-.28a4,4,0,0,1-2.18-1.09,3,3,0,0,1-.82-2.16,4.48,4.48,0,0,1,1.18-3.05,6.31,6.31,0,0,1,4.48-1.51,10.23,10.23,0,0,1,4,.81l-1.51,2.86a6.17,6.17,0,0,0-2.35-.62,2,2,0,0,0-1,.25.68.68,0,0,0-.39.62.73.73,0,0,0,.53.7c.42.17.79.17,1.49.36l.81.23a5.27,5.27,0,0,1,1.85,1,3.57,3.57,0,0,1,.95,2.49,4.22,4.22,0,0,1-1.26,3.11,6.55,6.55,0,0,1-4.62,1.57,9.38,9.38,0,0,1-5-1.46Z"/><path d="M287.73,287.87h-4.48V286.5a4.6,4.6,0,0,1-3.78,1.79,6,6,0,0,1-4.39-1.74,6.91,6.91,0,0,1-2-5,6.82,6.82,0,0,1,2.05-5,6.41,6.41,0,0,1,4.42-1.68,4.93,4.93,0,0,1,3.72,1.63v-9.1h4.48Zm-5.29-4.15a3,3,0,0,0,.95-2.12,3.28,3.28,0,0,0-.84-2,2.87,2.87,0,0,0-4,0,3.11,3.11,0,0,0-.87,2.13,2.83,2.83,0,0,0,.87,2,2.76,2.76,0,0,0,2,.84A3.06,3.06,0,0,0,282.44,283.72Z"/><path d="M300.5,275.36H305v12.51H300.5V286.5a4.67,4.67,0,0,1-3.89,1.79,6,6,0,0,1-4.51-2,6.32,6.32,0,0,1-1.79-4.59,6.92,6.92,0,0,1,1.93-5,6.44,6.44,0,0,1,4.51-1.77,4.93,4.93,0,0,1,3.75,1.63Zm-4.7,4.19a2.92,2.92,0,0,0-.9,2.05,2.87,2.87,0,0,0,.87,2,3.12,3.12,0,0,0,2,.84,2.84,2.84,0,0,0,2-.87,2.7,2.7,0,0,0,.84-2,2.76,2.76,0,0,0-.87-2,2.83,2.83,0,0,0-2-.82A2.88,2.88,0,0,0,295.8,279.55Z"/><path d="M322.23,287.87h-15l4.73-4.95a31.93,31.93,0,0,0,3.84-4.73,5.32,5.32,0,0,0,1-2.92,2.82,2.82,0,0,0-.56-1.79,1.84,1.84,0,0,0-1.38-.56,2,2,0,0,0-1.62.76,4.63,4.63,0,0,0-.67,2.29h-5a7.4,7.4,0,0,1,2.07-5.18,8,8,0,0,1,10.55-.08A6.22,6.22,0,0,1,322,275.3a7.27,7.27,0,0,1-2.77,5.55l-3.14,2.91h6.11Z"/><rect x="40.61" y="343.57" width="413" height="129" rx="12" ry="12" style="fill:none;stroke:#4fc2c9;stroke-miterlimit:10;stroke-width:5px"/><path d="M195.11,392.58v6.18h-4.84V380.09H198a6.4,6.4,0,0,1,4.73,1.68,5.8,5.8,0,0,1,1.73,4.53,6.05,6.05,0,0,1-1.65,4.65,6.21,6.21,0,0,1-4.65,1.63Zm0-3.92h1.63a3.18,3.18,0,0,0,2-.59,2.14,2.14,0,0,0,.62-1.71,2.27,2.27,0,0,0-.56-1.68,2.85,2.85,0,0,0-2.08-.67h-1.65Z"/><path d="M216,386.25h4.48v12.51H216v-1.37a4.66,4.66,0,0,1-3.89,1.79,6,6,0,0,1-4.51-2,6.3,6.3,0,0,1-1.79-4.59,6.92,6.92,0,0,1,1.93-5,6.48,6.48,0,0,1,4.51-1.76,4.93,4.93,0,0,1,3.75,1.62Zm-4.7,4.2a2.79,2.79,0,0,0,0,4.08,3.15,3.15,0,0,0,2,.84,2.86,2.86,0,0,0,2-.86,2.84,2.84,0,0,0,0-4.06,2.81,2.81,0,0,0-4,0Z"/><path d="M223.53,386.25H228v2a4.05,4.05,0,0,1,1.77-1.74,4.91,4.91,0,0,1,2.32-.5l.9.06v4.22a4,4,0,0,0-1.94-.44,2.92,2.92,0,0,0-2,.67,3.79,3.79,0,0,0-1,2.86v5.34h-4.48Z"/><path d="M240.36,389.92v8.84h-4.48v-8.84h-1.43v-3.67h1.43v-4.12h4.48v4.12h2.55v3.67Z"/><path d="M246.83,378.52a2.52,2.52,0,1,1-2.52,2.52A2.51,2.51,0,0,1,246.83,378.52Zm2.24,7.73v12.51h-4.48V386.25Z"/><path d="M257.08,389.92v8.84H252.6v-8.84h-1.43v-3.67h1.43v-4.12h4.48v4.12h2.54v3.67Zm-4.32,10.24,4.2.45-2.85,5.15-2.8-.33Z"/><path d="M263.54,378.52A2.52,2.52,0,1,1,261,381,2.51,2.51,0,0,1,263.54,378.52Zm2.24,7.73v12.51H261.3V386.25Z"/><path d="M278.52,386.25H283v12.51h-4.48v-1.37a4.66,4.66,0,0,1-3.89,1.79,6,6,0,0,1-4.51-2,6.3,6.3,0,0,1-1.79-4.59,7,7,0,0,1,1.93-5,6.48,6.48,0,0,1,4.51-1.76,4.93,4.93,0,0,1,3.75,1.62Zm-4.7,4.2a2.79,2.79,0,0,0,0,4.08,3.15,3.15,0,0,0,2,.84,2.85,2.85,0,0,0,2-.86,2.71,2.71,0,0,0,.84-2,2.74,2.74,0,0,0-.86-2,2.82,2.82,0,0,0-4,0Z"/><path d="M296.81,392.38a2.92,2.92,0,0,0,.75,1.87,2.58,2.58,0,0,0,1.91.73,2.48,2.48,0,0,0,1.9-.81,2.2,2.2,0,0,0,.56-1.54,2.12,2.12,0,0,0-.73-1.65,2.92,2.92,0,0,0-1.79-.53,2.3,2.3,0,0,0-.81.11v-3.28a2.4,2.4,0,0,0,2-.47,1.74,1.74,0,0,0,.61-1.32,2.07,2.07,0,0,0-.5-1.34,2,2,0,0,0-1.37-.51,1.91,1.91,0,0,0-1.35.48,2.34,2.34,0,0,0-.64,1.65h-4.51a6.62,6.62,0,0,1,1.82-4.28,7.48,7.48,0,0,1,9.58-.17,5.08,5.08,0,0,1,1.51,3.61,4.53,4.53,0,0,1-.56,2.3,3.29,3.29,0,0,1-1.43,1.43,4.54,4.54,0,0,1,2.21,1.7,4.68,4.68,0,0,1,.79,2.75,5.62,5.62,0,0,1-1.65,4.08,7.66,7.66,0,0,1-5.58,2,7.53,7.53,0,0,1-5.34-1.93,7.44,7.44,0,0,1-2.33-4.87Z"/><path d="M186.31,412H190l-14.33,25.68H172Z"/><path d="M207.36,432.36h-4.48V431a4.6,4.6,0,0,1-3.78,1.79,6,6,0,0,1-4.39-1.73,6.91,6.91,0,0,1-2-5,6.83,6.83,0,0,1,2-4.95,6.41,6.41,0,0,1,4.43-1.68,4.93,4.93,0,0,1,3.72,1.62V412h4.48Zm-5.29-4.14a3,3,0,0,0,1-2.13,3.23,3.23,0,0,0-.84-2,2.69,2.69,0,0,0-2-.84,2.75,2.75,0,0,0-2,.81,3.06,3.06,0,0,0-.87,2.12,2.8,2.8,0,0,0,.87,2,2.76,2.76,0,0,0,2,.84A3.05,3.05,0,0,0,202.07,428.22Z"/><path d="M223.71,426.93h-9.32a3.17,3.17,0,0,0,.78,2.1,2.52,2.52,0,0,0,1.85.62,3.55,3.55,0,0,0,1.46-.34,2.06,2.06,0,0,0,.78-.84h4.29a5.66,5.66,0,0,1-1.52,2.58,6.81,6.81,0,0,1-5.09,1.73,7.1,7.1,0,0,1-5.18-1.9,6.55,6.55,0,0,1-1.85-4.73,6.67,6.67,0,0,1,1.88-4.85,7,7,0,0,1,5.12-1.82,6.87,6.87,0,0,1,4.82,1.71,7,7,0,0,1,2,5.26Zm-4.11-2.58a3,3,0,0,0-.73-1.34,2.6,2.6,0,0,0-1.85-.67,2.41,2.41,0,0,0-1.82.67,2.51,2.51,0,0,0-.67,1.34Z"/><path d="M229.76,419.85l3,6.41,3.05-6.41h5l-6.52,12.51h-3.05l-6.47-12.51Z"/><path d="M254.26,412h3.67l-14.34,25.68H240Z"/><path d="M262,428.22a6.34,6.34,0,0,0,1.79.92,5.72,5.72,0,0,0,1.74.31,1.85,1.85,0,0,0,1.15-.34.72.72,0,0,0,.22-.58.67.67,0,0,0-.22-.56,2.68,2.68,0,0,0-1.18-.45l-1.17-.28a4,4,0,0,1-2.19-1.09,3.08,3.08,0,0,1-.81-2.16,4.48,4.48,0,0,1,1.18-3.05,6.31,6.31,0,0,1,4.48-1.51,10.32,10.32,0,0,1,4,.81l-1.51,2.85a6.41,6.41,0,0,0-2.35-.61,1.88,1.88,0,0,0-1,.25.68.68,0,0,0-.39.62.74.74,0,0,0,.53.7c.42.16.78.16,1.48.36l.82.22a5.39,5.39,0,0,1,1.84,1,3.54,3.54,0,0,1,1,2.5,4.17,4.17,0,0,1-1.26,3.1,6.51,6.51,0,0,1-4.62,1.57,9.26,9.26,0,0,1-5-1.45Z"/><path d="M287.75,432.36h-4.48V431a4.6,4.6,0,0,1-3.78,1.79,6,6,0,0,1-4.4-1.73,6.91,6.91,0,0,1-2-5,6.79,6.79,0,0,1,2-4.95,6.39,6.39,0,0,1,4.43-1.68,4.94,4.94,0,0,1,3.72,1.62V412h4.48Zm-5.29-4.14a3,3,0,0,0,1-2.13,3.23,3.23,0,0,0-.84-2,2.69,2.69,0,0,0-2-.84,2.74,2.74,0,0,0-2,.81,3,3,0,0,0-.87,2.12,2.8,2.8,0,0,0,.87,2,2.75,2.75,0,0,0,2,.84A3.08,3.08,0,0,0,282.46,428.22Z"/><path d="M300.52,419.85H305v12.51h-4.48V431a4.67,4.67,0,0,1-3.89,1.79,6,6,0,0,1-4.51-2,6.26,6.26,0,0,1-1.79-4.59,6.92,6.92,0,0,1,1.93-5,6.44,6.44,0,0,1,4.51-1.76,5,5,0,0,1,3.75,1.62Zm-4.71,4.2a2.93,2.93,0,0,0-.89,2,2.87,2.87,0,0,0,.87,2,3.12,3.12,0,0,0,2,.84,2.87,2.87,0,0,0,2-.86,2.84,2.84,0,0,0,0-4.06,2.85,2.85,0,0,0-4,0Z"/><path d="M312.28,426a2.92,2.92,0,0,0,.75,1.87,2.58,2.58,0,0,0,1.91.73,2.48,2.48,0,0,0,1.9-.81,2.2,2.2,0,0,0,.56-1.54,2.12,2.12,0,0,0-.73-1.65,2.92,2.92,0,0,0-1.79-.53,2.56,2.56,0,0,0-.81.11v-3.28a2.4,2.4,0,0,0,2-.47,1.76,1.76,0,0,0,.61-1.32,2.07,2.07,0,0,0-.5-1.34,2,2,0,0,0-1.37-.51,1.91,1.91,0,0,0-1.35.48,2.34,2.34,0,0,0-.64,1.65H308.3a6.62,6.62,0,0,1,1.82-4.28,7.48,7.48,0,0,1,9.58-.17,5.08,5.08,0,0,1,1.51,3.61,4.53,4.53,0,0,1-.56,2.3,3.22,3.22,0,0,1-1.43,1.42,4.55,4.55,0,0,1,2.21,1.71,4.68,4.68,0,0,1,.79,2.75,5.62,5.62,0,0,1-1.65,4.08,7.66,7.66,0,0,1-5.58,2,7.53,7.53,0,0,1-5.34-1.93,7.44,7.44,0,0,1-2.33-4.87Z"/><rect x="40.61" y="47.5" width="413" height="54" rx="12" ry="12" style="fill:#636868"/><path d="M217.47,83.84l3.16-18.68h4.79l3.78,10,4-10h4.84l2.8,18.68H236l-1.38-10.75-4.5,10.75h-1.94l-4.31-10.75-1.59,10.75Z" style="fill:#fff"/><path d="M243.93,83.84V65.16h7.22a5.24,5.24,0,0,1,4.09,1.46,5,5,0,0,1,1.15,3.5,4.83,4.83,0,0,1-.53,2.29,2.94,2.94,0,0,1-1.51,1.46A4.58,4.58,0,0,1,256.89,75a4.68,4.68,0,0,1,1.26,3.42,5.05,5.05,0,0,1-1.37,3.66,7,7,0,0,1-5.07,1.77Zm4.84-11.31h.9a2.59,2.59,0,0,0,1.85-.59,1.8,1.8,0,0,0,.45-1.23,1.9,1.9,0,0,0-.45-1.26,2.57,2.57,0,0,0-1.85-.56h-.9Zm0,7.53h1.1c1.34,0,2.46-.14,3-.76a1.77,1.77,0,0,0,.39-1.2,1.91,1.91,0,0,0-.47-1.35c-.59-.58-1.79-.61-3-.61h-1Z" style="fill:#fff"/><path d="M268.79,65.16a6.07,6.07,0,0,1,4.57,1.65A6.18,6.18,0,0,1,275,71a5.42,5.42,0,0,1-1.48,3.9,5.16,5.16,0,0,1-2.58,1.28l5.86,7.65h-6l-4.65-7.17v7.17h-4.85V65.16Zm-2.71,8.37H267a3.61,3.61,0,0,0,2.35-.75,2.31,2.31,0,0,0,.62-1.57,2.2,2.2,0,0,0-.64-1.57,3.29,3.29,0,0,0-2.33-.73h-.92Z" style="fill:#fff"/><rect x="40.61" y="104.57" width="413" height="79" rx="12" ry="12" style="fill:none;stroke:#4fc2c9;stroke-miterlimit:10;stroke-width:5px"/><path d="M197.25,128.57v6.19h-4.84V116.09h7.73a6.4,6.4,0,0,1,4.73,1.68,5.76,5.76,0,0,1,1.74,4.53A6.06,6.06,0,0,1,205,127a6.19,6.19,0,0,1-4.64,1.62Zm0-3.92h1.63a3.16,3.16,0,0,0,2-.58,2.14,2.14,0,0,0,.62-1.71,2.27,2.27,0,0,0-.56-1.68,2.84,2.84,0,0,0-2.07-.67h-1.66Z"/><path d="M218.11,122.25h4.48v12.51h-4.48v-1.37a4.66,4.66,0,0,1-3.89,1.79,6,6,0,0,1-4.51-2,6.3,6.3,0,0,1-1.79-4.59,7,7,0,0,1,1.93-5,6.48,6.48,0,0,1,4.51-1.76,4.93,4.93,0,0,1,3.75,1.62Zm-4.7,4.2a2.79,2.79,0,0,0,0,4.08,3.15,3.15,0,0,0,2,.84,2.85,2.85,0,0,0,2-.86,2.71,2.71,0,0,0,.84-2,2.74,2.74,0,0,0-.86-2,2.82,2.82,0,0,0-4,0Z"/><path d="M225.67,122.25h4.48v2a4.1,4.1,0,0,1,1.77-1.74,4.91,4.91,0,0,1,2.32-.5l.9.06v4.22a4,4,0,0,0-1.93-.44,2.94,2.94,0,0,0-2.05.67,3.78,3.78,0,0,0-1,2.85v5.35h-4.48Z"/><path d="M242.5,125.91v8.85H238v-8.85h-1.43v-3.66H238v-4.12h4.48v4.12h2.55v3.66Z"/><path d="M249,114.52a2.52,2.52,0,1,1-2.52,2.52A2.51,2.51,0,0,1,249,114.52Zm2.24,7.73v12.51h-4.48V122.25Z"/><path d="M259.22,125.91v8.85h-4.48v-8.85h-1.43v-3.66h1.43v-4.12h4.48v4.12h2.55v3.66Zm-4.31,10.25,4.2.45-2.86,5.15-2.8-.33Z"/><path d="M265.69,114.52a2.52,2.52,0,1,1-2.52,2.52A2.51,2.51,0,0,1,265.69,114.52Zm2.24,7.73v12.51h-4.48V122.25Z"/><path d="M280.67,122.25h4.48v12.51h-4.48v-1.37a4.68,4.68,0,0,1-3.9,1.79,6,6,0,0,1-4.5-2,6.27,6.27,0,0,1-1.8-4.59,6.92,6.92,0,0,1,1.94-5,6.43,6.43,0,0,1,4.5-1.76,5,5,0,0,1,3.76,1.62Zm-4.71,4.2a2.93,2.93,0,0,0-.89,2,2.86,2.86,0,0,0,.86,2,3.15,3.15,0,0,0,2,.84,2.87,2.87,0,0,0,2-.86,2.84,2.84,0,0,0,0-4.06,2.82,2.82,0,0,0-4,0Z"/><path d="M299.76,120.2H297.1v-4.11h7.51v18.67h-4.85Z"/><path d="M188.45,148h3.67l-14.34,25.68h-3.64Z"/><path d="M209.5,168.36H205V167a4.6,4.6,0,0,1-3.78,1.79,6,6,0,0,1-4.39-1.73,6.93,6.93,0,0,1-2-5,6.81,6.81,0,0,1,2-4.95,6.37,6.37,0,0,1,4.42-1.68,4.93,4.93,0,0,1,3.72,1.62V148h4.48Zm-5.29-4.14a3,3,0,0,0,.95-2.13,3.28,3.28,0,0,0-.84-2,2.86,2.86,0,0,0-4,0,3.06,3.06,0,0,0-.87,2.12,2.92,2.92,0,0,0,2.86,2.8A3,3,0,0,0,204.21,164.22Z"/><path d="M225.86,162.93h-9.33a3.13,3.13,0,0,0,.79,2.1,2.51,2.51,0,0,0,1.84.62,3.52,3.52,0,0,0,1.46-.34,2.06,2.06,0,0,0,.78-.84h4.29a5.72,5.72,0,0,1-1.51,2.58,6.84,6.84,0,0,1-5.1,1.73,7.1,7.1,0,0,1-5.18-1.9,6.55,6.55,0,0,1-1.85-4.73,6.72,6.72,0,0,1,1.88-4.85,7,7,0,0,1,5.12-1.82,6.87,6.87,0,0,1,4.82,1.71,7,7,0,0,1,2,5.26Zm-4.12-2.58A3,3,0,0,0,221,159a2.6,2.6,0,0,0-1.85-.67,2.41,2.41,0,0,0-1.82.67,2.66,2.66,0,0,0-.67,1.34Z"/><path d="M231.9,155.85l3,6.41,3-6.41h5l-6.53,12.51h-3l-6.47-12.51Z"/><path d="M256.4,148h3.67l-14.33,25.68H242.1Z"/><path d="M264.1,164.22a6.39,6.39,0,0,0,1.8.92,5.71,5.71,0,0,0,1.73.31,1.85,1.85,0,0,0,1.15-.34.68.68,0,0,0,.22-.58.64.64,0,0,0-.22-.56,2.68,2.68,0,0,0-1.18-.45l-1.17-.28a4,4,0,0,1-2.19-1.09,3.08,3.08,0,0,1-.81-2.16,4.48,4.48,0,0,1,1.18-3.05,6.31,6.31,0,0,1,4.48-1.51,10.28,10.28,0,0,1,4,.81l-1.51,2.85a6.22,6.22,0,0,0-2.35-.61,1.88,1.88,0,0,0-1,.25.68.68,0,0,0-.39.62.73.73,0,0,0,.53.7c.42.16.79.16,1.49.36l.81.22a5.44,5.44,0,0,1,1.85,1,3.58,3.58,0,0,1,.95,2.5,4.17,4.17,0,0,1-1.26,3.1,6.51,6.51,0,0,1-4.62,1.57,9.26,9.26,0,0,1-5-1.45Z"/><path d="M289.89,168.36h-4.48V167a4.6,4.6,0,0,1-3.78,1.79,6,6,0,0,1-4.39-1.73,6.93,6.93,0,0,1-2-5,6.84,6.84,0,0,1,2-4.95,6.41,6.41,0,0,1,4.43-1.68,4.93,4.93,0,0,1,3.72,1.62V148h4.48Zm-5.29-4.14a3,3,0,0,0,.95-2.13,3.28,3.28,0,0,0-.84-2,2.86,2.86,0,0,0-4,0,3.06,3.06,0,0,0-.87,2.12,2.8,2.8,0,0,0,.87,2,2.76,2.76,0,0,0,2,.84A3.05,3.05,0,0,0,284.6,164.22Z"/><path d="M302.66,155.85h4.48v12.51h-4.48V167a4.67,4.67,0,0,1-3.89,1.79,6,6,0,0,1-4.51-2,6.3,6.3,0,0,1-1.79-4.59,6.92,6.92,0,0,1,1.93-5,6.46,6.46,0,0,1,4.51-1.76,5,5,0,0,1,3.75,1.62Zm-4.7,4.2a2.79,2.79,0,0,0,0,4.08,3.12,3.12,0,0,0,2,.84,2.87,2.87,0,0,0,2-.86,2.84,2.84,0,0,0,0-4.06,2.81,2.81,0,0,0-4,0Z"/><path d="M315.23,153.8h-2.66v-4.11h7.51v18.67h-4.85Z"/><rect x="40.61" y="472.41" width="413" height="164" rx="12" ry="12" style="fill:none;stroke:#636868;stroke-miterlimit:10;stroke-width:5px"/><rect x="59.36" y="490.91" width="39" height="131" rx="12" ry="12" style="fill:#e34758"/><rect x="115.86" y="491.41" width="39" height="82" rx="12" ry="12" style="fill:#e34758"/><rect x="326.86" y="491.41" width="108" height="82" rx="12" ry="12" style="fill:#e34758"/><rect x="166.86" y="489.41" width="141" height="48" rx="12" ry="12" style="fill:#e34758"/><rect x="752.5" y="47.5" width="457" height="508.5" rx="12" ry="12" style="fill:none;stroke:#91c54f;stroke-miterlimit:10;stroke-width:5px"/><rect x="792.5" y="77.5" width="387" height="68" rx="12" ry="12" style="fill:none;stroke:#4fc2c9;stroke-miterlimit:10;stroke-width:5px"/><rect x="792.5" y="163.5" width="387" height="68" rx="12" ry="12" style="fill:none;stroke:#4fc2c9;stroke-miterlimit:10;stroke-width:5px"/><rect x="792.5" y="249.5" width="387" height="68" rx="12" ry="12" style="fill:none;stroke:#4fc2c9;stroke-miterlimit:10;stroke-width:5px"/><rect x="792.5" y="344.5" width="387" height="183" rx="12" ry="12" style="fill:none;stroke:#f7931f;stroke-miterlimit:10;stroke-width:5px"/><line x1="862" y1="605.04" x2="921" y2="605.04" style="fill:none;stroke:#636868;stroke-miterlimit:10;stroke-width:10px"/><path d="M939.49,612V593.28h6.36a10.42,10.42,0,0,1,7.42,2.57,9.13,9.13,0,0,1,2.6,6.81,8.59,8.59,0,0,1-2.43,6.46,10.14,10.14,0,0,1-7.17,2.83Zm4.85-4.11h1a5.61,5.61,0,0,0,4.09-1.35,5.1,5.1,0,0,0,1.42-3.83,5.6,5.6,0,0,0-1.45-4.09,5.43,5.43,0,0,0-3.87-1.18h-1.17Z"/><path d="M960.77,591.71a2.52,2.52,0,1,1-2.52,2.52A2.51,2.51,0,0,1,960.77,591.71Zm2.24,7.73V612h-4.48V599.44Z"/><path d="M966.88,607.81a6.21,6.21,0,0,0,1.79.92,5.72,5.72,0,0,0,1.74.31,1.84,1.84,0,0,0,1.14-.34.69.69,0,0,0,.23-.58.65.65,0,0,0-.23-.56,2.63,2.63,0,0,0-1.17-.45l-1.18-.28a4.08,4.08,0,0,1-2.18-1.09,3,3,0,0,1-.81-2.16,4.47,4.47,0,0,1,1.17-3.05,6.31,6.31,0,0,1,4.48-1.51,10.34,10.34,0,0,1,4,.81l-1.52,2.85a6.17,6.17,0,0,0-2.35-.61,1.85,1.85,0,0,0-1,.25.67.67,0,0,0-.4.62.75.75,0,0,0,.54.7c.42.16.78.16,1.48.36l.81.22a5.34,5.34,0,0,1,1.85,1,3.53,3.53,0,0,1,1,2.5,4.14,4.14,0,0,1-1.26,3.1,6.48,6.48,0,0,1-4.62,1.57,9.28,9.28,0,0,1-5-1.45Z"/><path d="M983,618.36H978.5V599.44H983v1.37a4.67,4.67,0,0,1,3.83-1.79,6.22,6.22,0,0,1,4.46,1.82,7.11,7.11,0,0,1-.12,9.8,6,6,0,0,1-4.28,1.73,5.34,5.34,0,0,1-3.89-1.62Zm.73-14.7a3.07,3.07,0,0,0-.87,2.08,3,3,0,0,0,.87,2,2.82,2.82,0,0,0,2,.84,2.66,2.66,0,0,0,2-.84,2.93,2.93,0,0,0,.87-2,3.07,3.07,0,0,0-.87-2.08,2.7,2.7,0,0,0-2-.84A2.86,2.86,0,0,0,983.71,603.66Z"/><path d="M1008.35,610.3a8.58,8.58,0,0,1-11.18,0,6.46,6.46,0,0,1,0-9.21,7.83,7.83,0,0,1,5.58-2.07,7.92,7.92,0,0,1,5.6,2.07,6.46,6.46,0,0,1,0,9.21Zm-7.59-6.66a2.84,2.84,0,1,0,4,4,2.76,2.76,0,0,0,.87-2,2.88,2.88,0,0,0-2.86-2.86A3.08,3.08,0,0,0,1000.76,603.64Z"/><path d="M1019.38,608.28h5.23V612h-12.74l5.91-8.85h-5v-3.66h12.49Z"/><path d="M1029.57,591.71a2.52,2.52,0,1,1-2.52,2.52A2.51,2.51,0,0,1,1029.57,591.71Zm2.24,7.73V612h-4.48V599.44Z"/><path d="M1039.82,603.1V612h-4.48V603.1h-1.43v-3.66h1.43v-4.12h4.48v4.12h2.55v3.66Z"/><path d="M1046.29,591.71a2.52,2.52,0,1,1-2.53,2.52A2.51,2.51,0,0,1,1046.29,591.71Zm2.23,7.73V612H1044V599.44Z"/><path d="M1055.05,599.44l3,6.41,3.06-6.41h5L1059.56,612h-3.06L1050,599.44Z"/><line x1="862" y1="644.58" x2="921" y2="644.58" style="fill:none;stroke:#4fc2c9;stroke-miterlimit:10;stroke-width:10px"/><path d="M943.84,645v6.19H939V632.53h7.73a6.42,6.42,0,0,1,4.73,1.68,5.78,5.78,0,0,1,1.74,4.54,6.1,6.1,0,0,1-1.65,4.65,6.25,6.25,0,0,1-4.65,1.62Zm0-3.92h1.62a3.19,3.19,0,0,0,2-.59,2.16,2.16,0,0,0,.61-1.71,2.25,2.25,0,0,0-.56-1.68,2.83,2.83,0,0,0-2.07-.67h-1.65Z"/><path d="M964.7,638.69h4.48v12.52H964.7v-1.38a4.68,4.68,0,0,1-3.89,1.8,6,6,0,0,1-4.51-2,6.3,6.3,0,0,1-1.79-4.59,6.93,6.93,0,0,1,1.93-5,6.44,6.44,0,0,1,4.51-1.76,5,5,0,0,1,3.75,1.63Zm-4.7,4.2a2.81,2.81,0,0,0,0,4.09,3.12,3.12,0,0,0,2,.84,2.88,2.88,0,0,0,2-.87,2.73,2.73,0,0,0,.84-2,2.77,2.77,0,0,0-.87-2,2.84,2.84,0,0,0-4,0Z"/><path d="M972.26,638.69h4.48v2A4,4,0,0,1,978.5,639a4.84,4.84,0,0,1,2.33-.51l.89.06v4.23a4,4,0,0,0-1.93-.45,2.91,2.91,0,0,0-2,.67,3.76,3.76,0,0,0-1,2.86v5.35h-4.48Z"/><path d="M989.09,642.36v8.85h-4.48v-8.85h-1.43v-3.67h1.43v-4.12h4.48v4.12h2.54v3.67Z"/><path d="M995.55,631a2.52,2.52,0,1,1-2.52,2.52A2.51,2.51,0,0,1,995.55,631Zm2.24,7.73v12.52h-4.48V638.69Z"/><path d="M1005.8,642.36v8.85h-4.48v-8.85h-1.43v-3.67h1.43v-4.12h4.48v4.12h2.55v3.67Zm-4.31,10.25,4.2.44-2.86,5.16-2.8-.34Z"/><path d="M1012.27,631a2.52,2.52,0,1,1-2.52,2.52A2.51,2.51,0,0,1,1012.27,631Zm2.24,7.73v12.52H1010V638.69Z"/><path d="M1030.83,645.78h-9.32a3.14,3.14,0,0,0,.78,2.09,2.52,2.52,0,0,0,1.85.62,3.55,3.55,0,0,0,1.46-.34,2,2,0,0,0,.78-.83h4.29a5.69,5.69,0,0,1-1.52,2.57,6.77,6.77,0,0,1-5.09,1.74,7.11,7.11,0,0,1-5.18-1.91A6.55,6.55,0,0,1,1017,645a6.63,6.63,0,0,1,1.88-4.84,7,7,0,0,1,5.12-1.82,6.86,6.86,0,0,1,4.82,1.7,7,7,0,0,1,2,5.27Zm-4.11-2.58a2.89,2.89,0,0,0-.73-1.34,2.62,2.62,0,0,0-1.85-.68,2.41,2.41,0,0,0-1.82.68,2.48,2.48,0,0,0-.67,1.34Z"/><path d="M1045.2,645v6.19h-4.85V632.53h7.73a6.42,6.42,0,0,1,4.73,1.68,5.78,5.78,0,0,1,1.74,4.54,6.1,6.1,0,0,1-1.65,4.65,6.25,6.25,0,0,1-4.65,1.62Zm0-3.92h1.62a3.19,3.19,0,0,0,2-.59,2.16,2.16,0,0,0,.61-1.71,2.25,2.25,0,0,0-.56-1.68,2.83,2.83,0,0,0-2.07-.67h-1.65Z"/><path d="M1056.71,638.69h4.48v2A4,4,0,0,1,1063,639a4.8,4.8,0,0,1,2.32-.51l.9.06v4.23a4,4,0,0,0-1.93-.45,2.94,2.94,0,0,0-2,.67,3.79,3.79,0,0,0-1,2.86v5.35h-4.48Z"/><path d="M1070.4,631a2.52,2.52,0,1,1-2.52,2.52A2.51,2.51,0,0,1,1070.4,631Zm2.24,7.73v12.52h-4.48V638.69Z"/><path d="M1075.69,638.69h4.48v1.51a4.79,4.79,0,0,1,3.75-1.73,5,5,0,0,1,2.41.56,3.9,3.9,0,0,1,1.74,1.79,4.36,4.36,0,0,1,1.7-1.74,5.14,5.14,0,0,1,2.61-.61,5,5,0,0,1,3.47,1.14,4.62,4.62,0,0,1,1.18,3.45v8.15h-4.48V645c0-1.32-.14-2.21-.65-2.69a1.65,1.65,0,0,0-1.17-.42,1.82,1.82,0,0,0-1.32.5,3.19,3.19,0,0,0-.81,2.38v6.42h-4.48V645a4,4,0,0,0-.59-2.69,1.73,1.73,0,0,0-1.34-.5,1.58,1.58,0,0,0-1.24.45,3.7,3.7,0,0,0-.78,2.74v6.19h-4.48Z"/><path d="M1109.82,638.69h4.48v12.52h-4.48v-1.38a4.67,4.67,0,0,1-3.89,1.8,6,6,0,0,1-4.51-2,6.34,6.34,0,0,1-1.79-4.59,6.93,6.93,0,0,1,1.93-5,6.48,6.48,0,0,1,4.51-1.76,4.93,4.93,0,0,1,3.75,1.63Zm-4.7,4.2a2.81,2.81,0,0,0,0,4.09,3.15,3.15,0,0,0,2,.84,2.88,2.88,0,0,0,2-.87,2.73,2.73,0,0,0,.84-2,2.77,2.77,0,0,0-.87-2,2.84,2.84,0,0,0-4,0Z"/><path d="M1117.38,638.69h4.48v2a4,4,0,0,1,1.77-1.74,4.8,4.8,0,0,1,2.32-.51l.9.06v4.23a4,4,0,0,0-1.94-.45,2.92,2.92,0,0,0-2,.67,3.8,3.8,0,0,0-1,2.86v5.35h-4.48Z"/><path d="M1138.52,638.69H1143v12.52h-4.48v-1.38a4.67,4.67,0,0,1-3.89,1.8,6,6,0,0,1-4.51-2,6.34,6.34,0,0,1-1.79-4.59,6.93,6.93,0,0,1,1.93-5,6.48,6.48,0,0,1,4.51-1.76,4.93,4.93,0,0,1,3.75,1.63Zm2.47-6.44a4.38,4.38,0,0,1-1.24,3,5.89,5.89,0,0,1-7.28,0,4.44,4.44,0,0,1-1.23-3h2.89a1.9,1.9,0,0,0,.56,1.15,2.28,2.28,0,0,0,2.85,0,1.9,1.9,0,0,0,.56-1.15Zm-7.17,10.64a2.81,2.81,0,0,0,0,4.09,3.15,3.15,0,0,0,2,.84,2.88,2.88,0,0,0,2-.87,2.73,2.73,0,0,0,.84-2,2.77,2.77,0,0,0-.87-2,2.84,2.84,0,0,0-4,0Z"/><line x1="862" y1="684.13" x2="921" y2="684.13" style="fill:none;stroke:#f7931f;stroke-miterlimit:10;stroke-width:10px"/><path d="M943.84,684.57v6.19H939V672.08h7.73a6.42,6.42,0,0,1,4.73,1.68,5.78,5.78,0,0,1,1.74,4.54,6.07,6.07,0,0,1-1.65,4.64,6.22,6.22,0,0,1-4.65,1.63Zm0-3.92h1.62a3.19,3.19,0,0,0,2-.59,2.16,2.16,0,0,0,.61-1.71,2.25,2.25,0,0,0-.56-1.68,2.83,2.83,0,0,0-2.07-.67h-1.65Z"/><path d="M964.7,678.24h4.48v12.52H964.7v-1.38a4.68,4.68,0,0,1-3.89,1.8,6,6,0,0,1-4.51-2,6.3,6.3,0,0,1-1.79-4.59,6.93,6.93,0,0,1,1.93-5,6.44,6.44,0,0,1,4.51-1.76,5,5,0,0,1,3.75,1.62Zm-4.71,4.2a3,3,0,0,0-.89,2,2.9,2.9,0,0,0,.87,2,3.12,3.12,0,0,0,2,.84,2.88,2.88,0,0,0,2-.87,2.73,2.73,0,0,0,.84-2,2.77,2.77,0,0,0-.87-2,2.85,2.85,0,0,0-4,0Z"/><path d="M972.26,678.24h4.48v2a4,4,0,0,1,1.76-1.73,4.84,4.84,0,0,1,2.33-.51l.89.06v4.23a4,4,0,0,0-1.93-.45,2.91,2.91,0,0,0-2,.67,3.76,3.76,0,0,0-1,2.86v5.35h-4.48Z"/><path d="M989.09,681.91v8.85h-4.48v-8.85h-1.43v-3.67h1.43v-4.12h4.48v4.12h2.54v3.67Z"/><path d="M995.55,670.51A2.52,2.52,0,1,1,993,673,2.51,2.51,0,0,1,995.55,670.51Zm2.24,7.73v12.52h-4.48V678.24Z"/><path d="M1005.8,681.91v8.85h-4.48v-8.85h-1.43v-3.67h1.43v-4.12h4.48v4.12h2.55v3.67Zm-4.31,10.25,4.2.44-2.86,5.16-2.8-.34Z"/><path d="M1012.27,670.51a2.52,2.52,0,1,1-2.52,2.52A2.51,2.51,0,0,1,1012.27,670.51Zm2.24,7.73v12.52H1010V678.24Z"/><path d="M1030.83,685.32h-9.32a3.15,3.15,0,0,0,.78,2.1,2.52,2.52,0,0,0,1.85.62,3.55,3.55,0,0,0,1.46-.34,1.94,1.94,0,0,0,.78-.84h4.29a5.66,5.66,0,0,1-1.52,2.58,6.77,6.77,0,0,1-5.09,1.74,7.11,7.11,0,0,1-5.18-1.91,6.55,6.55,0,0,1-1.85-4.73,6.63,6.63,0,0,1,1.88-4.84,7,7,0,0,1,5.12-1.82,6.86,6.86,0,0,1,4.82,1.7,7,7,0,0,1,2,5.27Zm-4.11-2.57a3,3,0,0,0-.73-1.35,2.65,2.65,0,0,0-1.85-.67,2.44,2.44,0,0,0-1.82.67,2.54,2.54,0,0,0-.67,1.35Z"/><path d="M1051,676.2h-5.76v3.1h5.46v4.12h-5.46v3.22H1051v4.12h-10.61V672.08H1051Z"/><path d="M1058.33,684l-5.07-5.71h5.82l2.16,2.58,2.21-2.58h5.8l-5.18,5.71,6.27,6.81h-5.93l-3.2-3.73-3.19,3.73h-5.94Z"/><path d="M1076.84,681.91v8.85h-4.48v-8.85h-1.43v-3.67h1.43v-4.12h4.48v4.12h2.54v3.67Z"/><path d="M1083.3,670.51a2.52,2.52,0,1,1-2.52,2.52A2.51,2.51,0,0,1,1083.3,670.51Zm2.24,7.73v12.52h-4.48V678.24Z"/><path d="M1088.6,678.24h4.48v1.57a4.7,4.7,0,0,1,4-1.85,5.09,5.09,0,0,1,3.7,1.34,4.33,4.33,0,0,1,1.17,3.5v8h-4.48v-6.33a3.6,3.6,0,0,0-.56-2.44,1.86,1.86,0,0,0-1.42-.53,2.47,2.47,0,0,0-1.66.59,2.91,2.91,0,0,0-.72,2v6.72h-4.48Z"/><path d="M1105.79,686.61a6.5,6.5,0,0,0,1.79.93,6,6,0,0,0,1.74.3,1.9,1.9,0,0,0,1.14-.33.72.72,0,0,0,.23-.59.66.66,0,0,0-.23-.56,2.76,2.76,0,0,0-1.17-.45l-1.18-.28a4,4,0,0,1-2.18-1.09,3,3,0,0,1-.81-2.16,4.47,4.47,0,0,1,1.17-3,6.31,6.31,0,0,1,4.48-1.51,10.34,10.34,0,0,1,4,.81l-1.52,2.86a6.17,6.17,0,0,0-2.35-.62,1.94,1.94,0,0,0-1,.25.67.67,0,0,0-.4.62.74.74,0,0,0,.54.7c.42.17.78.17,1.48.36l.81.23a5.18,5.18,0,0,1,1.85,1,3.53,3.53,0,0,1,.95,2.49,4.18,4.18,0,0,1-1.26,3.11,6.53,6.53,0,0,1-4.62,1.57,9.22,9.22,0,0,1-5-1.46Z"/><path d="M1127.1,678.24h4.48v12.52h-4.48v-1.38a4.69,4.69,0,0,1-3.9,1.8,6,6,0,0,1-4.5-2,6.3,6.3,0,0,1-1.8-4.59,6.93,6.93,0,0,1,1.94-5,6.43,6.43,0,0,1,4.5-1.76,5,5,0,0,1,3.76,1.62Zm2.46-6.44a4.44,4.44,0,0,1-1.23,3.05,5.89,5.89,0,0,1-7.28,0,4.39,4.39,0,0,1-1.23-3.05h2.88a2,2,0,0,0,.56,1.15,2.29,2.29,0,0,0,2.86,0,2,2,0,0,0,.56-1.15Zm-7.17,10.64a3,3,0,0,0-.89,2,2.89,2.89,0,0,0,.86,2,3.15,3.15,0,0,0,2,.84,2.88,2.88,0,0,0,2-.87,2.73,2.73,0,0,0,.84-2,2.77,2.77,0,0,0-.87-2,2.89,2.89,0,0,0-2-.81A2.85,2.85,0,0,0,1122.39,682.44Z"/><line x1="862" y1="723.68" x2="921" y2="723.68" style="fill:none;stroke:#e34758;stroke-miterlimit:10;stroke-width:10px"/><path d="M943.84,724.12v6.18H939V711.63h7.73a6.42,6.42,0,0,1,4.73,1.68,5.78,5.78,0,0,1,1.74,4.53,6.09,6.09,0,0,1-1.65,4.65,6.22,6.22,0,0,1-4.65,1.63Zm0-3.92h1.62a3.19,3.19,0,0,0,2-.59,2.17,2.17,0,0,0,.61-1.71,2.24,2.24,0,0,0-.56-1.68,2.83,2.83,0,0,0-2.07-.67h-1.65Z"/><path d="M964.7,717.79h4.48V730.3H964.7v-1.37a4.67,4.67,0,0,1-3.89,1.79,6,6,0,0,1-4.51-2,6.3,6.3,0,0,1-1.79-4.6,6.92,6.92,0,0,1,1.93-5,6.44,6.44,0,0,1,4.51-1.76A5,5,0,0,1,964.7,719ZM960,722a3,3,0,0,0-.89,2,2.91,2.91,0,0,0,.87,2.05,3.17,3.17,0,0,0,2,.84,2.88,2.88,0,0,0,2-.87,2.73,2.73,0,0,0,.84-2,2.76,2.76,0,0,0-.87-2,2.85,2.85,0,0,0-4,0Z"/><path d="M972.26,717.79h4.48v2a4,4,0,0,1,1.76-1.73,4.84,4.84,0,0,1,2.33-.51l.89.06v4.23a3.83,3.83,0,0,0-1.93-.45,2.91,2.91,0,0,0-2,.67,3.76,3.76,0,0,0-1,2.86v5.34h-4.48Z"/><path d="M989.09,721.46v8.84h-4.48v-8.84h-1.43v-3.67h1.43v-4.12h4.48v4.12h2.54v3.67Z"/><path d="M995.55,710.06a2.52,2.52,0,1,1-2.52,2.52A2.51,2.51,0,0,1,995.55,710.06Zm2.24,7.73V730.3h-4.48V717.79Z"/><path d="M1005.8,721.46v8.84h-4.48v-8.84h-1.43v-3.67h1.43v-4.12h4.48v4.12h2.55v3.67Zm-4.31,10.25,4.2.44-2.86,5.15L1000,737Z"/><path d="M1012.27,710.06a2.52,2.52,0,1,1-2.52,2.52A2.51,2.51,0,0,1,1012.27,710.06Zm2.24,7.73V730.3H1010V717.79Z"/><path d="M1030.83,724.87h-9.32a3.17,3.17,0,0,0,.78,2.1,2.52,2.52,0,0,0,1.85.62,3.55,3.55,0,0,0,1.46-.34,2.06,2.06,0,0,0,.78-.84h4.29a5.66,5.66,0,0,1-1.52,2.58,6.81,6.81,0,0,1-5.09,1.73,7.1,7.1,0,0,1-5.18-1.9,6.55,6.55,0,0,1-1.85-4.73,6.63,6.63,0,0,1,1.88-4.84,7,7,0,0,1,5.12-1.83,6.87,6.87,0,0,1,4.82,1.71,7,7,0,0,1,2,5.27Zm-4.11-2.57A3,3,0,0,0,1026,721a2.6,2.6,0,0,0-1.85-.67,2.44,2.44,0,0,0-1.82.67,2.54,2.54,0,0,0-.67,1.35Z"/><path d="M1045.2,711.63v14.56H1051v4.11h-10.67V711.63Z"/><path d="M1065.69,728.65a8.57,8.57,0,0,1-11.17,0,6.46,6.46,0,0,1,0-9.21,7.82,7.82,0,0,1,5.57-2.07,7.9,7.9,0,0,1,5.6,2.07,6.17,6.17,0,0,1,1.93,4.59A6.25,6.25,0,0,1,1065.69,728.65ZM1058.1,722a2.86,2.86,0,0,0-.86,2,2.9,2.9,0,0,0,2.88,2.83,2.85,2.85,0,0,0,2-.84,2.76,2.76,0,0,0,.87-2,3,3,0,0,0-.87-2,2.89,2.89,0,0,0-4,0Z"/><path d="M1084.28,717.79v11.73c0,1.88-.16,3.58-1.7,5.18a7.5,7.5,0,0,1-5.52,2,7.65,7.65,0,0,1-5.85-2.22,4.54,4.54,0,0,1-1.38-2.6h5a1.93,1.93,0,0,0,2.1,1.29,2.73,2.73,0,0,0,2-.7,3,3,0,0,0,.89-2.32V728.9a4.75,4.75,0,0,1-3.75,1.66,6.22,6.22,0,0,1-4.62-1.77,6.6,6.6,0,0,1-1.73-4.56,7.22,7.22,0,0,1,1.84-4.9,6.32,6.32,0,0,1,4.54-1.91,4.87,4.87,0,0,1,3.72,1.66v-1.29Zm-9.12,4.2a2.8,2.8,0,0,0,0,4.06,2.8,2.8,0,0,0,2,.81A2.87,2.87,0,0,0,1080,724a3.23,3.23,0,0,0-.9-2,2.85,2.85,0,0,0-2-.81A2.64,2.64,0,0,0,1075.16,722Z"/><path d="M1089.6,710.06a2.52,2.52,0,1,1-2.52,2.52A2.51,2.51,0,0,1,1089.6,710.06Zm2.24,7.73V730.3h-4.48V717.79Z"/><path d="M1104.36,730a6.6,6.6,0,0,1-3.11.7,6.93,6.93,0,0,1-4.93-1.9,6.58,6.58,0,0,1-1.93-4.68,6.82,6.82,0,0,1,2-4.84,7.2,7.2,0,0,1,5-1.9,6.43,6.43,0,0,1,2.91.7v3.75A4,4,0,0,0,1102,721a3,3,0,0,0-2.19.86,3.09,3.09,0,0,0-.87,2.16,3.24,3.24,0,0,0,.79,2.1,3,3,0,0,0,2.29,1,3.39,3.39,0,0,0,2.3-.84Z"/><path d="M1116.59,717.79h4.49V730.3h-4.49v-1.37a4.65,4.65,0,0,1-3.89,1.79,6,6,0,0,1-4.5-2,6.31,6.31,0,0,1-1.8-4.6,7,7,0,0,1,1.93-5,6.48,6.48,0,0,1,4.51-1.76,4.93,4.93,0,0,1,3.75,1.62Zm2.47-6.44a4.44,4.44,0,0,1-1.23,3,5.89,5.89,0,0,1-7.28,0,4.35,4.35,0,0,1-1.23-3h2.88a1.9,1.9,0,0,0,.56,1.15,2.29,2.29,0,0,0,1.43.5,2.34,2.34,0,0,0,1.43-.5,1.89,1.89,0,0,0,.55-1.15ZM1111.89,722a3,3,0,0,0-.89,2,2.9,2.9,0,0,0,.86,2.05,3.2,3.2,0,0,0,2,.84,2.9,2.9,0,0,0,2-.87,2.73,2.73,0,0,0,.84-2,2.76,2.76,0,0,0-.87-2,2.89,2.89,0,0,0-2-.81A2.85,2.85,0,0,0,1111.89,722Z"/><path d="M944.5,116.2v5.52h-4.32V105.05h6.9a5.76,5.76,0,0,1,4.22,1.5,5.17,5.17,0,0,1,1.55,4,5.44,5.44,0,0,1-1.47,4.15,5.53,5.53,0,0,1-4.15,1.45Zm0-3.5H946a2.87,2.87,0,0,0,1.83-.52,1.94,1.94,0,0,0,.55-1.53,2,2,0,0,0-.5-1.5,2.56,2.56,0,0,0-1.85-.6H944.5Z"/><path d="M954.78,110.55h4v1.83a3.6,3.6,0,0,1,1.57-1.55,4.31,4.31,0,0,1,2.07-.45l.8.05v3.77a3.45,3.45,0,0,0-1.72-.4,2.63,2.63,0,0,0-1.82.6,3.38,3.38,0,0,0-.9,2.55v4.77h-4Z"/><path d="M967,103.65a2.25,2.25,0,1,1-2.25,2.25A2.24,2.24,0,0,1,967,103.65Zm2,6.9v11.17h-4V110.55Z"/><path d="M971.73,110.55h4v1.35a4.26,4.26,0,0,1,3.34-1.55,4.61,4.61,0,0,1,2.15.5,3.46,3.46,0,0,1,1.55,1.6,4,4,0,0,1,1.53-1.55,4.51,4.51,0,0,1,2.32-.55,4.43,4.43,0,0,1,3.1,1,4.09,4.09,0,0,1,1,3.07v7.27h-4V116.2a3.34,3.34,0,0,0-.57-2.4,1.48,1.48,0,0,0-1.05-.37,1.61,1.61,0,0,0-1.18.45,2.86,2.86,0,0,0-.72,2.12v5.72h-4V116.2a3.59,3.59,0,0,0-.53-2.4,1.56,1.56,0,0,0-1.2-.45,1.44,1.44,0,0,0-1.1.4,3.34,3.34,0,0,0-.69,2.45v5.52h-4Z"/><path d="M1002.2,110.55h4v11.17h-4V120.5a4.2,4.2,0,0,1-3.48,1.6,5.35,5.35,0,0,1-4-1.77,5.67,5.67,0,0,1-1.6-4.1,6.2,6.2,0,0,1,1.73-4.48,5.72,5.72,0,0,1,4-1.57,4.41,4.41,0,0,1,3.35,1.45ZM998,114.3a2.63,2.63,0,0,0-.8,1.83A2.55,2.55,0,0,0,998,118a2.83,2.83,0,0,0,1.8.75,2.56,2.56,0,0,0,1.8-.77,2.43,2.43,0,0,0,.75-1.8,2.49,2.49,0,0,0-.77-1.83,2.57,2.57,0,0,0-1.8-.72A2.54,2.54,0,0,0,998,114.3Z"/><path d="M1009,110.55h4v1.83a3.6,3.6,0,0,1,1.57-1.55,4.32,4.32,0,0,1,2.08-.45l.8.05v3.77a3.54,3.54,0,0,0-1.73-.4,2.63,2.63,0,0,0-1.82.6,3.38,3.38,0,0,0-.9,2.55v4.77h-4Z"/><path d="M1027.82,110.55h4v11.17h-4V120.5a4.17,4.17,0,0,1-3.47,1.6,5.34,5.34,0,0,1-4-1.77,5.63,5.63,0,0,1-1.6-4.1,6.19,6.19,0,0,1,1.72-4.48,5.75,5.75,0,0,1,4-1.57,4.4,4.4,0,0,1,3.35,1.45Zm2.2-5.75a3.92,3.92,0,0,1-1.1,2.73,5.28,5.28,0,0,1-6.5,0,4,4,0,0,1-1.09-2.73h2.57a1.76,1.76,0,0,0,.5,1,2,2,0,0,0,1.27.45,2.07,2.07,0,0,0,1.28-.45,1.76,1.76,0,0,0,.5-1Zm-6.4,9.5a2.63,2.63,0,0,0-.8,1.83,2.56,2.56,0,0,0,.78,1.82,2.79,2.79,0,0,0,1.8.75,2.56,2.56,0,0,0,1.8-.77,2.43,2.43,0,0,0,.75-1.8,2.46,2.46,0,0,0-.78-1.83,2.55,2.55,0,0,0-3.55,0Z"/><path d="M944.5,201.2v5.52h-4.32V190.05h6.9a5.76,5.76,0,0,1,4.22,1.5,5.17,5.17,0,0,1,1.55,4,5.44,5.44,0,0,1-1.47,4.15,5.53,5.53,0,0,1-4.15,1.45Zm0-3.5H946a2.87,2.87,0,0,0,1.83-.52,1.94,1.94,0,0,0,.55-1.53,2,2,0,0,0-.5-1.5,2.56,2.56,0,0,0-1.85-.6H944.5Z"/><path d="M954.78,195.55h4v1.83a3.6,3.6,0,0,1,1.57-1.55,4.31,4.31,0,0,1,2.07-.45l.8.05v3.77a3.45,3.45,0,0,0-1.72-.4,2.63,2.63,0,0,0-1.82.6,3.38,3.38,0,0,0-.9,2.55v4.77h-4Z"/><path d="M967,188.65a2.25,2.25,0,1,1-2.25,2.25A2.24,2.24,0,0,1,967,188.65Zm2,6.9v11.17h-4V195.55Z"/><path d="M971.73,195.55h4v1.35a4.26,4.26,0,0,1,3.34-1.55,4.61,4.61,0,0,1,2.15.5,3.46,3.46,0,0,1,1.55,1.6,4,4,0,0,1,1.53-1.55,4.51,4.51,0,0,1,2.32-.55,4.43,4.43,0,0,1,3.1,1,4.09,4.09,0,0,1,1,3.07v7.27h-4V201.2a3.34,3.34,0,0,0-.57-2.4,1.48,1.48,0,0,0-1.05-.37,1.61,1.61,0,0,0-1.18.45,2.86,2.86,0,0,0-.72,2.12v5.72h-4V201.2a3.59,3.59,0,0,0-.53-2.4,1.56,1.56,0,0,0-1.2-.45,1.44,1.44,0,0,0-1.1.4,3.34,3.34,0,0,0-.69,2.45v5.52h-4Z"/><path d="M1002.2,195.55h4v11.17h-4V205.5a4.2,4.2,0,0,1-3.48,1.6,5.35,5.35,0,0,1-4-1.77,5.67,5.67,0,0,1-1.6-4.1,6.2,6.2,0,0,1,1.73-4.48,5.72,5.72,0,0,1,4-1.57,4.41,4.41,0,0,1,3.35,1.45ZM998,199.3a2.63,2.63,0,0,0-.8,1.83A2.55,2.55,0,0,0,998,203a2.83,2.83,0,0,0,1.8.75,2.56,2.56,0,0,0,1.8-.77,2.43,2.43,0,0,0,.75-1.8,2.49,2.49,0,0,0-.77-1.83,2.57,2.57,0,0,0-1.8-.72A2.54,2.54,0,0,0,998,199.3Z"/><path d="M1009,195.55h4v1.83a3.6,3.6,0,0,1,1.57-1.55,4.32,4.32,0,0,1,2.08-.45l.8.05v3.77a3.54,3.54,0,0,0-1.73-.4,2.63,2.63,0,0,0-1.82.6,3.38,3.38,0,0,0-.9,2.55v4.77h-4Z"/><path d="M1027.82,195.55h4v11.17h-4V205.5a4.17,4.17,0,0,1-3.47,1.6,5.34,5.34,0,0,1-4-1.77,5.63,5.63,0,0,1-1.6-4.1,6.19,6.19,0,0,1,1.72-4.48,5.75,5.75,0,0,1,4-1.57,4.4,4.4,0,0,1,3.35,1.45Zm2.2-5.75a3.92,3.92,0,0,1-1.1,2.73,5.28,5.28,0,0,1-6.5,0,4,4,0,0,1-1.09-2.73h2.57a1.76,1.76,0,0,0,.5,1,2,2,0,0,0,1.27.45,2.07,2.07,0,0,0,1.28-.45,1.76,1.76,0,0,0,.5-1Zm-6.4,9.5a2.63,2.63,0,0,0-.8,1.83,2.56,2.56,0,0,0,.78,1.82,2.79,2.79,0,0,0,1.8.75,2.56,2.56,0,0,0,1.8-.77,2.43,2.43,0,0,0,.75-1.8,2.46,2.46,0,0,0-.78-1.83,2.55,2.55,0,0,0-3.55,0Z"/><path d="M944.5,285.2v5.52h-4.32V274.05h6.9a5.76,5.76,0,0,1,4.22,1.5,5.17,5.17,0,0,1,1.55,4.05,5.44,5.44,0,0,1-1.47,4.15,5.53,5.53,0,0,1-4.15,1.45Zm0-3.5H946a2.87,2.87,0,0,0,1.83-.52,1.94,1.94,0,0,0,.55-1.53,2,2,0,0,0-.5-1.5,2.56,2.56,0,0,0-1.85-.6H944.5Z"/><path d="M954.78,279.55h4v1.83a3.6,3.6,0,0,1,1.57-1.55,4.31,4.31,0,0,1,2.07-.45l.8.05v3.77a3.45,3.45,0,0,0-1.72-.4,2.63,2.63,0,0,0-1.82.6,3.38,3.38,0,0,0-.9,2.55v4.77h-4Z"/><path d="M967,272.65a2.25,2.25,0,1,1-2.25,2.25A2.24,2.24,0,0,1,967,272.65Zm2,6.9v11.17h-4V279.55Z"/><path d="M971.73,279.55h4v1.35a4.26,4.26,0,0,1,3.34-1.55,4.61,4.61,0,0,1,2.15.5,3.46,3.46,0,0,1,1.55,1.6,4,4,0,0,1,1.53-1.55,4.51,4.51,0,0,1,2.32-.55,4.43,4.43,0,0,1,3.1,1,4.09,4.09,0,0,1,1,3.07v7.27h-4V285.2a3.34,3.34,0,0,0-.57-2.4,1.48,1.48,0,0,0-1.05-.37,1.61,1.61,0,0,0-1.18.45,2.86,2.86,0,0,0-.72,2.12v5.72h-4V285.2a3.59,3.59,0,0,0-.53-2.4,1.56,1.56,0,0,0-1.2-.45,1.44,1.44,0,0,0-1.1.4,3.34,3.34,0,0,0-.69,2.45v5.52h-4Z"/><path d="M1002.2,279.55h4v11.17h-4V289.5a4.2,4.2,0,0,1-3.48,1.6,5.35,5.35,0,0,1-4-1.77,5.67,5.67,0,0,1-1.6-4.1,6.2,6.2,0,0,1,1.73-4.48,5.72,5.72,0,0,1,4-1.57,4.41,4.41,0,0,1,3.35,1.45ZM998,283.3a2.63,2.63,0,0,0-.8,1.83A2.55,2.55,0,0,0,998,287a2.83,2.83,0,0,0,1.8.75,2.56,2.56,0,0,0,1.8-.77,2.43,2.43,0,0,0,.75-1.8,2.49,2.49,0,0,0-.77-1.83,2.57,2.57,0,0,0-1.8-.72A2.54,2.54,0,0,0,998,283.3Z"/><path d="M1009,279.55h4v1.83a3.6,3.6,0,0,1,1.57-1.55,4.32,4.32,0,0,1,2.08-.45l.8.05v3.77a3.54,3.54,0,0,0-1.73-.4,2.63,2.63,0,0,0-1.82.6,3.38,3.38,0,0,0-.9,2.55v4.77h-4Z"/><path d="M1027.82,279.55h4v11.17h-4V289.5a4.17,4.17,0,0,1-3.47,1.6,5.34,5.34,0,0,1-4-1.77,5.63,5.63,0,0,1-1.6-4.1,6.19,6.19,0,0,1,1.72-4.48,5.75,5.75,0,0,1,4-1.57,4.4,4.4,0,0,1,3.35,1.45Zm2.2-5.75a3.92,3.92,0,0,1-1.1,2.73,5.28,5.28,0,0,1-6.5,0,4,4,0,0,1-1.09-2.73h2.57a1.76,1.76,0,0,0,.5,1,2,2,0,0,0,1.27.45,2.07,2.07,0,0,0,1.28-.45,1.76,1.76,0,0,0,.5-1Zm-6.4,9.5a2.63,2.63,0,0,0-.8,1.83,2.56,2.56,0,0,0,.78,1.82,2.79,2.79,0,0,0,1.8.75,2.56,2.56,0,0,0,1.8-.77,2.43,2.43,0,0,0,.75-1.8,2.46,2.46,0,0,0-.78-1.83,2.55,2.55,0,0,0-3.55,0Z"/><path d="M958.22,365.23h-5.15V368H958v3.68h-4.88v2.87h5.15v3.67h-9.47V361.55h9.47Z"/><path d="M964.8,372.15l-4.53-5.1h5.2l1.93,2.3,2-2.3h5.18l-4.63,5.1,5.6,6.07h-5.3l-2.85-3.32-2.85,3.32h-5.3Z"/><path d="M981.32,370.33v7.89h-4v-7.89h-1.27v-3.28h1.27v-3.67h4v3.67h2.28v3.28Z"/><path d="M987.1,360.15a2.25,2.25,0,1,1-2.25,2.25A2.24,2.24,0,0,1,987.1,360.15Zm2,6.9v11.17h-4V367.05Z"/><path d="M991.82,367.05h4v1.4a4.22,4.22,0,0,1,3.55-1.65,4.53,4.53,0,0,1,3.3,1.2,3.86,3.86,0,0,1,1.05,3.13v7.09h-4v-5.64a3.19,3.19,0,0,0-.5-2.18,1.65,1.65,0,0,0-1.27-.47,2.2,2.2,0,0,0-1.48.52,2.58,2.58,0,0,0-.65,1.78v6h-4Z"/><path d="M1007.17,374.53a5.64,5.64,0,0,0,1.6.82,5.09,5.09,0,0,0,1.55.28,1.75,1.75,0,0,0,1-.3.67.67,0,0,0,.2-.53.61.61,0,0,0-.2-.5,2.56,2.56,0,0,0-1.05-.4l-1-.25a3.55,3.55,0,0,1-2-1,2.7,2.7,0,0,1-.73-1.93,4,4,0,0,1,1-2.72,5.62,5.62,0,0,1,4-1.35,9.37,9.37,0,0,1,3.58.72l-1.35,2.55a5.56,5.56,0,0,0-2.1-.55,1.71,1.71,0,0,0-.93.23.6.6,0,0,0-.35.55.65.65,0,0,0,.48.62c.37.15.7.15,1.32.33l.73.2a4.89,4.89,0,0,1,1.65.87,3.17,3.17,0,0,1,.85,2.23,3.73,3.73,0,0,1-1.13,2.77,5.81,5.81,0,0,1-4.12,1.4,8.28,8.28,0,0,1-4.5-1.3Z"/><path d="M1026.2,367.05h4v11.17h-4V377a4.2,4.2,0,0,1-3.48,1.6,5.35,5.35,0,0,1-4-1.77,5.63,5.63,0,0,1-1.6-4.1,6.19,6.19,0,0,1,1.72-4.48,5.76,5.76,0,0,1,4-1.57,4.41,4.41,0,0,1,3.35,1.45Zm2.19-5.75a3.92,3.92,0,0,1-1.1,2.73,5.26,5.26,0,0,1-6.49,0,3.92,3.92,0,0,1-1.1-2.73h2.57a1.76,1.76,0,0,0,.5,1,2.07,2.07,0,0,0,1.28.45,2,2,0,0,0,1.27-.45,1.76,1.76,0,0,0,.5-1Zm-6.39,9.5a2.63,2.63,0,0,0-.8,1.83,2.55,2.55,0,0,0,.77,1.82,2.83,2.83,0,0,0,1.8.75,2.56,2.56,0,0,0,1.8-.77,2.43,2.43,0,0,0,.75-1.8,2.49,2.49,0,0,0-.77-1.83,2.57,2.57,0,0,0-1.8-.72A2.54,2.54,0,0,0,1022,370.8Z"/><rect x="835.52" y="425.78" width="60" height="93" rx="12" ry="12" style="fill:none;stroke:#e34758;stroke-miterlimit:10;stroke-width:5px"/><path d="M855,504h13v-5.2h3.67v9.52H855Z"/><path d="M870.22,485.69a7.64,7.64,0,0,1,0,10,5.57,5.57,0,0,1-4.13,1.73,5.51,5.51,0,0,1-4.1-1.73,7,7,0,0,1-1.85-5,7.06,7.06,0,0,1,1.85-5,5.51,5.51,0,0,1,4.1-1.73A5.57,5.57,0,0,1,870.22,485.69Zm-6,6.77a2.56,2.56,0,0,0,1.82.78,2.59,2.59,0,0,0,1.78-.78,2.5,2.5,0,0,0,0-3.57,2.49,2.49,0,0,0-1.78-.78,2.58,2.58,0,0,0-2.55,2.55A2.74,2.74,0,0,0,864.27,492.46Z"/><path d="M860.52,469.09H871a6,6,0,0,1,4.62,1.52,6.67,6.67,0,0,1,1.8,4.93,6.84,6.84,0,0,1-2,5.22,4.06,4.06,0,0,1-2.32,1.23v-4.45a1.72,1.72,0,0,0,1.15-1.88,2.42,2.42,0,0,0-.63-1.77,2.65,2.65,0,0,0-2.07-.8h-1.13a4.24,4.24,0,0,1,1.48,3.35,5.53,5.53,0,0,1-1.58,4.12,5.89,5.89,0,0,1-4.07,1.55,6.44,6.44,0,0,1-4.38-1.65,5.62,5.62,0,0,1-1.7-4,4.34,4.34,0,0,1,1.48-3.32h-1.15Zm3.75,8.15a2.64,2.64,0,0,0,1.8.77,2.6,2.6,0,0,0,1.82-.77,2.52,2.52,0,0,0,.73-1.8,2.65,2.65,0,0,0-.75-1.8,2.68,2.68,0,0,0-1.8-.75,2.86,2.86,0,0,0-1.83.8,2.53,2.53,0,0,0-.72,1.77A2.38,2.38,0,0,0,864.27,477.24Z"/><path d="M853.62,464.34a2.25,2.25,0,1,1,2.25,2.25A2.24,2.24,0,0,1,853.62,464.34Zm6.9-2h11.17v4H860.52Z"/><path d="M871.44,451.16a5.9,5.9,0,0,1,.63,2.78,6.2,6.2,0,0,1-1.7,4.4,5.86,5.86,0,0,1-4.18,1.72,6.05,6.05,0,0,1-4.32-1.8,6.45,6.45,0,0,1-1.7-4.5,5.72,5.72,0,0,1,.62-2.6h3.35a3.63,3.63,0,0,0-.72,2.08,2.62,2.62,0,0,0,.77,1.95,2.73,2.73,0,0,0,1.93.77,2.83,2.83,0,0,0,1.87-.7,2.7,2.7,0,0,0,.85-2.05,3,3,0,0,0-.75-2Z"/><path d="M860.52,440.24v-4h11.17v4h-1.22a4.17,4.17,0,0,1,1.6,3.47,5.35,5.35,0,0,1-1.78,4,5.65,5.65,0,0,1-4.1,1.6,6.17,6.17,0,0,1-4.47-1.73,5.74,5.74,0,0,1-1.58-4,4.43,4.43,0,0,1,1.45-3.35Zm-5.75-2.2a3.86,3.86,0,0,1,2.72,1.1,5.24,5.24,0,0,1,0,6.5,4,4,0,0,1-2.72,1.1v-2.58a1.71,1.71,0,0,0,1-.5,2,2,0,0,0,.45-1.27,2,2,0,0,0-.45-1.28,1.71,1.71,0,0,0-1-.5Zm9.5,6.4a2.5,2.5,0,0,0,3.65,0,2.79,2.79,0,0,0,.75-1.8,2.57,2.57,0,0,0-.78-1.8,2.43,2.43,0,0,0-1.8-.75,2.46,2.46,0,0,0-1.82.78,2.52,2.52,0,0,0,0,3.55Z"/><rect x="916.85" y="425.78" width="60" height="93" rx="12" ry="12" style="fill:none;stroke:#e34758;stroke-miterlimit:10;stroke-width:5px"/><path d="M936.35,504h13v-5.2H953v9.52H936.35Z"/><path d="M951.55,485.69a7.64,7.64,0,0,1,0,10,5.57,5.57,0,0,1-4.12,1.73,5.51,5.51,0,0,1-4.1-1.73,7.64,7.64,0,0,1,0-10,5.51,5.51,0,0,1,4.1-1.73A5.57,5.57,0,0,1,951.55,485.69Zm-5.95,6.77a2.47,2.47,0,0,0,3.6,0,2.5,2.5,0,0,0,0-3.57,2.45,2.45,0,0,0-1.77-.78,2.73,2.73,0,0,0-1.83.78,2.57,2.57,0,0,0,0,3.57Z"/><path d="M941.85,469.09h10.48a6,6,0,0,1,4.62,1.52,6.67,6.67,0,0,1,1.8,4.93,6.85,6.85,0,0,1-2,5.22,4.06,4.06,0,0,1-2.32,1.23v-4.45a1.72,1.72,0,0,0,1.15-1.88,2.42,2.42,0,0,0-.63-1.77,2.65,2.65,0,0,0-2.07-.8h-1.13a4.24,4.24,0,0,1,1.48,3.35,5.53,5.53,0,0,1-1.58,4.12,5.87,5.87,0,0,1-4.07,1.55,6.39,6.39,0,0,1-4.37-1.65,5.58,5.58,0,0,1-1.7-4,4.36,4.36,0,0,1,1.47-3.32h-1.15Zm3.75,8.15a2.65,2.65,0,0,0,1.8.77,2.63,2.63,0,0,0,1.83-.77,2.55,2.55,0,0,0,.72-1.8,2.56,2.56,0,0,0-2.55-2.55,2.83,2.83,0,0,0-1.82.8,2.54,2.54,0,0,0-.73,1.77A2.41,2.41,0,0,0,945.6,477.24Z"/><path d="M935,464.34a2.25,2.25,0,1,1,2.25,2.25A2.24,2.24,0,0,1,935,464.34Zm6.9-2H953v4H941.85Z"/><path d="M952.77,451.16a5.9,5.9,0,0,1,.63,2.78,6.2,6.2,0,0,1-1.7,4.4,5.86,5.86,0,0,1-4.17,1.72,6.08,6.08,0,0,1-4.33-1.8,6.45,6.45,0,0,1-1.7-4.5,5.75,5.75,0,0,1,.63-2.6h3.35a3.56,3.56,0,0,0-.73,2.08,2.62,2.62,0,0,0,.78,1.95,2.7,2.7,0,0,0,1.92.77,2.86,2.86,0,0,0,1.88-.7,2.7,2.7,0,0,0,.84-2.05,3,3,0,0,0-.75-2Z"/><path d="M941.85,440.24v-4H953v4H951.8a4.17,4.17,0,0,1,1.6,3.47,5.35,5.35,0,0,1-1.78,4,5.63,5.63,0,0,1-4.09,1.6,6.2,6.2,0,0,1-4.48-1.73,5.74,5.74,0,0,1-1.57-4,4.4,4.4,0,0,1,1.45-3.35ZM936.1,438a3.92,3.92,0,0,1,2.73,1.1,5.28,5.28,0,0,1,0,6.5,4,4,0,0,1-2.73,1.1v-2.58a1.76,1.76,0,0,0,1-.5,2,2,0,0,0,.45-1.27,2.07,2.07,0,0,0-.45-1.28,1.76,1.76,0,0,0-1-.5Zm9.5,6.4a2.63,2.63,0,0,0,1.83.8,2.56,2.56,0,0,0,1.82-.78,2.79,2.79,0,0,0,.75-1.8,2.56,2.56,0,0,0-.77-1.8,2.43,2.43,0,0,0-1.8-.75,2.46,2.46,0,0,0-1.83.78,2.55,2.55,0,0,0,0,3.55Z"/><rect x="998.18" y="425.78" width="60" height="93" rx="12" ry="12" style="fill:none;stroke:#e34758;stroke-miterlimit:10;stroke-width:5px"/><path d="M1017.69,504h13v-5.2h3.68v9.52h-16.67Z"/><path d="M1032.88,485.69a7.64,7.64,0,0,1,0,10,5.75,5.75,0,0,1-8.22,0,7,7,0,0,1-1.85-5,7.06,7.06,0,0,1,1.85-5,5.75,5.75,0,0,1,8.22,0Zm-6,6.77a2.47,2.47,0,0,0,3.6,0,2.5,2.5,0,0,0,0-3.57,2.45,2.45,0,0,0-1.77-.78,2.73,2.73,0,0,0-1.83.78,2.57,2.57,0,0,0,0,3.57Z"/><path d="M1023.19,469.09h10.47a6,6,0,0,1,4.62,1.52,6.67,6.67,0,0,1,1.8,4.93,6.84,6.84,0,0,1-2,5.22,4.08,4.08,0,0,1-2.33,1.23v-4.45a1.72,1.72,0,0,0,1.15-1.88,2.41,2.41,0,0,0-.62-1.77,2.69,2.69,0,0,0-2.08-.8h-1.12a4.26,4.26,0,0,1,1.47,3.35,5.57,5.57,0,0,1-1.57,4.12,5.91,5.91,0,0,1-4.08,1.55,6.39,6.39,0,0,1-4.37-1.65,5.62,5.62,0,0,1-1.7-4,4.34,4.34,0,0,1,1.48-3.32h-1.15Zm3.74,8.15a2.65,2.65,0,0,0,1.8.77,2.63,2.63,0,0,0,1.83-.77,2.55,2.55,0,0,0,.72-1.8,2.61,2.61,0,0,0-.75-1.8,2.66,2.66,0,0,0-1.8-.75,2.83,2.83,0,0,0-1.82.8,2.54,2.54,0,0,0-.73,1.77A2.41,2.41,0,0,0,1026.93,477.24Z"/><path d="M1016.29,464.34a2.25,2.25,0,1,1,2.25,2.25A2.24,2.24,0,0,1,1016.29,464.34Zm6.9-2h11.17v4h-11.17Z"/><path d="M1034.11,451.16a6,6,0,0,1,.62,2.78,6.16,6.16,0,0,1-1.7,4.4,5.82,5.82,0,0,1-4.17,1.72,6,6,0,0,1-4.32-1.8,6.45,6.45,0,0,1-1.7-4.5,5.72,5.72,0,0,1,.62-2.6h3.35a3.56,3.56,0,0,0-.73,2.08,2.62,2.62,0,0,0,.78,1.95,2.7,2.7,0,0,0,1.92.77,2.86,2.86,0,0,0,1.88-.7,2.7,2.7,0,0,0,.85-2.05,3.07,3.07,0,0,0-.75-2Z"/><path d="M1023.19,440.24v-4h11.17v4h-1.23a4.15,4.15,0,0,1,1.6,3.47,5.37,5.37,0,0,1-1.77,4,5.67,5.67,0,0,1-4.1,1.6,6.22,6.22,0,0,1-4.48-1.73,5.78,5.78,0,0,1-1.57-4,4.4,4.4,0,0,1,1.45-3.35Zm-5.75-2.2a3.88,3.88,0,0,1,2.72,1.1,5.24,5.24,0,0,1,0,6.5,4,4,0,0,1-2.72,1.1v-2.58a1.71,1.71,0,0,0,1-.5,2,2,0,0,0,.45-1.27,2,2,0,0,0-.45-1.28,1.71,1.71,0,0,0-1-.5Zm9.49,6.4a2.63,2.63,0,0,0,1.83.8,2.56,2.56,0,0,0,1.82-.78,2.79,2.79,0,0,0,.75-1.8,2.56,2.56,0,0,0-.77-1.8,2.43,2.43,0,0,0-1.8-.75,2.46,2.46,0,0,0-1.83.78,2.55,2.55,0,0,0,0,3.55Z"/><rect x="1079.52" y="425.78" width="60" height="93" rx="12" ry="12" style="fill:none;stroke:#e34758;stroke-miterlimit:10;stroke-width:5px"/><path d="M1099,504h13v-5.2h3.67v9.52H1099Z"/><path d="M1114.22,485.69a7.64,7.64,0,0,1,0,10,5.57,5.57,0,0,1-4.13,1.73,5.51,5.51,0,0,1-4.1-1.73,7,7,0,0,1-1.85-5,7.06,7.06,0,0,1,1.85-5,5.51,5.51,0,0,1,4.1-1.73A5.57,5.57,0,0,1,1114.22,485.69Zm-6,6.77a2.56,2.56,0,0,0,1.82.78,2.59,2.59,0,0,0,1.78-.78,2.5,2.5,0,0,0,0-3.57,2.49,2.49,0,0,0-1.78-.78,2.58,2.58,0,0,0-2.55,2.55A2.74,2.74,0,0,0,1108.27,492.46Z"/><path d="M1104.52,469.09H1115a6,6,0,0,1,4.62,1.52,6.67,6.67,0,0,1,1.8,4.93,6.84,6.84,0,0,1-2,5.22,4.06,4.06,0,0,1-2.32,1.23v-4.45a1.72,1.72,0,0,0,1.15-1.88,2.42,2.42,0,0,0-.63-1.77,2.65,2.65,0,0,0-2.07-.8h-1.13a4.24,4.24,0,0,1,1.48,3.35,5.53,5.53,0,0,1-1.58,4.12,5.89,5.89,0,0,1-4.07,1.55,6.44,6.44,0,0,1-4.38-1.65,5.62,5.62,0,0,1-1.7-4,4.34,4.34,0,0,1,1.48-3.32h-1.15Zm3.75,8.15a2.64,2.64,0,0,0,1.8.77,2.6,2.6,0,0,0,1.82-.77,2.52,2.52,0,0,0,.73-1.8,2.65,2.65,0,0,0-.75-1.8,2.68,2.68,0,0,0-1.8-.75,2.86,2.86,0,0,0-1.83.8,2.53,2.53,0,0,0-.72,1.77A2.38,2.38,0,0,0,1108.27,477.24Z"/><path d="M1097.62,464.34a2.25,2.25,0,1,1,2.25,2.25A2.24,2.24,0,0,1,1097.62,464.34Zm6.9-2h11.17v4h-11.17Z"/><path d="M1115.44,451.16a5.9,5.9,0,0,1,.63,2.78,6.2,6.2,0,0,1-1.7,4.4,5.86,5.86,0,0,1-4.18,1.72,6.05,6.05,0,0,1-4.32-1.8,6.45,6.45,0,0,1-1.7-4.5,5.72,5.72,0,0,1,.62-2.6h3.35a3.63,3.63,0,0,0-.72,2.08,2.62,2.62,0,0,0,.77,1.95,2.73,2.73,0,0,0,1.93.77,2.83,2.83,0,0,0,1.87-.7,2.7,2.7,0,0,0,.85-2.05,3,3,0,0,0-.75-2Z"/><path d="M1104.52,440.24v-4h11.17v4h-1.22a4.17,4.17,0,0,1,1.6,3.47,5.35,5.35,0,0,1-1.78,4,5.65,5.65,0,0,1-4.1,1.6,6.17,6.17,0,0,1-4.47-1.73,5.74,5.74,0,0,1-1.58-4,4.43,4.43,0,0,1,1.45-3.35Zm-5.75-2.2a3.86,3.86,0,0,1,2.72,1.1,5.24,5.24,0,0,1,0,6.5,4,4,0,0,1-2.72,1.1v-2.58a1.71,1.71,0,0,0,1-.5,2,2,0,0,0,.45-1.27,2,2,0,0,0-.45-1.28,1.71,1.71,0,0,0-1-.5Zm9.5,6.4a2.5,2.5,0,0,0,3.65,0,2.79,2.79,0,0,0,.75-1.8,2.57,2.57,0,0,0-.78-1.8,2.43,2.43,0,0,0-1.8-.75,2.46,2.46,0,0,0-1.82.78,2.52,2.52,0,0,0,0,3.55Z"/></svg>