<svg id="Layer_1" data-name="Layer 1" xmlns="http://www.w3.org/2000/svg" viewBox="0 0 1428 1523"><title>Cap 10 -</title><rect x="70" y="66.75" width="490" height="437" rx="12" ry="12" style="fill:none;stroke:#636868;stroke-miterlimit:10;stroke-width:7px"/><path d="M288.79,447.61a6.43,6.43,0,0,1,4.88,1.77,6.59,6.59,0,0,1,1.71,4.5,5.77,5.77,0,0,1-1.59,4.17,5.62,5.62,0,0,1-2.75,1.38l6.26,8.19h-6.45l-5-7.68v7.68h-5.19v-20Zm-2.91,9h1a3.87,3.87,0,0,0,2.51-.81,2.49,2.49,0,0,0,.66-1.68,2.32,2.32,0,0,0-.69-1.68,3.5,3.5,0,0,0-2.48-.78h-1Z"/><path d="M309.42,454.21h4.8v13.41h-4.8v-1.47a5,5,0,0,1-4.16,1.92,6.42,6.42,0,0,1-4.83-2.13,6.76,6.76,0,0,1-1.92-4.92,7.42,7.42,0,0,1,2.07-5.37,6.9,6.9,0,0,1,4.83-1.89,5.3,5.3,0,0,1,4,1.74Zm-5,4.5a3.14,3.14,0,0,0-1,2.19,3.09,3.09,0,0,0,.93,2.19,3.37,3.37,0,0,0,2.16.9,3.06,3.06,0,0,0,2.15-.93,2.88,2.88,0,0,0,.91-2.16,3,3,0,0,0-.93-2.19,3,3,0,0,0-4.26,0Z"/><path d="M319.93,445.93a2.7,2.7,0,1,1-2.7,2.7A2.69,2.69,0,0,1,319.93,445.93Zm2.4,8.28v13.41h-4.8V454.21Z"/><path d="M340.77,467.62H336v-1.47a4.91,4.91,0,0,1-4.05,1.92,6.4,6.4,0,0,1-4.7-1.86,7.4,7.4,0,0,1-2.16-5.34,7.31,7.31,0,0,1,2.19-5.31,6.82,6.82,0,0,1,4.73-1.8,5.31,5.31,0,0,1,4,1.74v-9.75h4.8Zm-5.67-4.44a3.23,3.23,0,0,0,1-2.28,3.46,3.46,0,0,0-.91-2.16,2.9,2.9,0,0,0-2.18-.9,2.94,2.94,0,0,0-2.13.87A3.29,3.29,0,0,0,330,461a3,3,0,0,0,.93,2.1,3,3,0,0,0,2.13.9A3.27,3.27,0,0,0,335.1,463.18Z"/><path d="M363.93,465.79a7.81,7.81,0,0,1-11,0,12.7,12.7,0,0,1,0-16.35,7.81,7.81,0,0,1,11,0,12.74,12.74,0,0,1,0,16.35Zm-7.11-13.35c-1.08.93-1.74,3.36-1.74,5.22,0,1.59.57,4.2,1.74,5.22a2.32,2.32,0,0,0,3.18,0c1.11-1,1.74-3.48,1.74-5.19s-.69-4.32-1.74-5.25a2.32,2.32,0,0,0-3.18,0Z"/><rect x="106" y="92.75" width="172" height="315.17" rx="12" ry="12" style="fill:none;stroke:#4fc2c9;stroke-miterlimit:10;stroke-width:5px"/><rect x="133" y="120.34" width="118" height="56" rx="12" ry="12" style="fill:none;stroke:#91c54f;stroke-miterlimit:10;stroke-width:5px"/><rect x="133" y="188.34" width="118" height="56" rx="12" ry="12" style="fill:none;stroke:#91c54f;stroke-miterlimit:10;stroke-width:5px"/><rect x="133" y="256.34" width="118" height="56" rx="12" ry="12" style="fill:none;stroke:#91c54f;stroke-miterlimit:10;stroke-width:5px"/><rect x="133" y="324.34" width="118" height="56" rx="12" ry="12" style="fill:none;stroke:#91c54f;stroke-miterlimit:10;stroke-width:5px"/><rect x="350" y="92.75" width="172" height="315.17" rx="12" ry="12" style="fill:none;stroke:#4fc2c9;stroke-miterlimit:10;stroke-width:5px"/><rect x="377" y="120.34" width="118" height="56" rx="12" ry="12" style="fill:none;stroke:#91c54f;stroke-miterlimit:10;stroke-width:5px"/><rect x="377" y="188.34" width="118" height="56" rx="12" ry="12" style="fill:none;stroke:#91c54f;stroke-miterlimit:10;stroke-width:5px"/><rect x="377" y="256.34" width="118" height="56" rx="12" ry="12" style="fill:none;stroke:#91c54f;stroke-miterlimit:10;stroke-width:5px"/><rect x="377" y="324.34" width="118" height="56" rx="12" ry="12" style="fill:none;stroke:#91c54f;stroke-miterlimit:10;stroke-width:5px"/><path d="M195.66,155H188.4l-1.35,3.36h-5.49l7.68-20h5.67l7.53,20h-5.55Zm-1.38-4L192,144.54,189.84,151Z"/><path d="M428.38,158.34v-20h7.74a5.61,5.61,0,0,1,4.38,1.56,5.41,5.41,0,0,1,1.23,3.75,5.19,5.19,0,0,1-.57,2.46,3.15,3.15,0,0,1-1.62,1.56,5,5,0,0,1,2.73,1.2,5,5,0,0,1,1.35,3.66,5.43,5.43,0,0,1-1.47,3.93,7.52,7.52,0,0,1-5.43,1.89Zm5.19-12.12h1a2.74,2.74,0,0,0,2-.63,1.94,1.94,0,0,0,.48-1.32,2.06,2.06,0,0,0-.48-1.35,2.75,2.75,0,0,0-2-.6h-1Zm0,8.07h1.17c1.44,0,2.64-.15,3.21-.81a2,2,0,0,0,.42-1.29,2,2,0,0,0-.51-1.44c-.63-.63-1.92-.66-3.21-.66h-1.08Z"/><path d="M199.63,225.74a12.35,12.35,0,0,1-4.49,1,10.88,10.88,0,0,1-7.74-3,10.5,10.5,0,0,1-3-7.29A10.5,10.5,0,0,1,195,205.94a12.4,12.4,0,0,1,4.68,1v6.21A5.57,5.57,0,0,0,195.1,211a5,5,0,0,0-3.59,1.32,5.6,5.6,0,0,0-1.75,4.11,5.14,5.14,0,0,0,5.34,5.28,5.86,5.86,0,0,0,4.53-2.1Z"/><path d="M427.23,226.34v-20H434a11.16,11.16,0,0,1,8,2.76,9.77,9.77,0,0,1,2.79,7.29,9.23,9.23,0,0,1-2.61,6.93,10.87,10.87,0,0,1-7.68,3Zm5.18-4.41h1.06a6,6,0,0,0,4.37-1.44,5.45,5.45,0,0,0,1.53-4.11,6,6,0,0,0-1.56-4.38,5.81,5.81,0,0,0-4.13-1.26h-1.27Z"/><path d="M197.68,278.74H191.5v3.33h5.85v4.41H191.5v3.45h6.18v4.41H186.32v-20h11.36Z"/><path d="M441.73,278.74h-6.27v3.33h5.7v4.41h-5.7v7.86h-5.19v-20h11.46Z"/><path d="M192.09,351.14h10.32c0,3.95-.81,6.77-3.21,9a9.77,9.77,0,0,1-7,2.52,10.33,10.33,0,0,1-7.68-3,10.08,10.08,0,0,1-2.88-7.22,10.41,10.41,0,0,1,3-7.5,11.63,11.63,0,0,1,13.17-1.59,9.8,9.8,0,0,1,3.57,4.11l-5,2a4.9,4.9,0,0,0-1.44-2,4.2,4.2,0,0,0-2.79-1,4.83,4.83,0,0,0-3.42,1.38,6.74,6.74,0,0,0-1.74,4.58,6.22,6.22,0,0,0,1.59,4.32,4.74,4.74,0,0,0,3.66,1.54,4.3,4.3,0,0,0,2.88-.94,3.53,3.53,0,0,0,1.23-2.21h-4.26Z"/><path d="M432.23,349.8h7.5v-7.47H445v20h-5.22v-8.1h-7.5v8.1h-5.18v-20h5.18Z"/><rect x="868" y="66.75" width="490" height="437" rx="12" ry="12" style="fill:none;stroke:#636868;stroke-miterlimit:10;stroke-width:7px"/><path d="M1086.79,447.61a6.43,6.43,0,0,1,4.88,1.77,6.59,6.59,0,0,1,1.71,4.5,5.73,5.73,0,0,1-1.59,4.17,5.62,5.62,0,0,1-2.75,1.38l6.26,8.19h-6.44l-5-7.68v7.68h-5.19v-20Zm-2.91,9h1a3.89,3.89,0,0,0,2.51-.81,2.44,2.44,0,0,0,.66-1.68,2.39,2.39,0,0,0-.68-1.68,3.54,3.54,0,0,0-2.49-.78h-1Z"/><path d="M1107.42,454.21h4.8v13.41h-4.8v-1.47a5,5,0,0,1-4.16,1.92,6.41,6.41,0,0,1-4.83-2.13,6.72,6.72,0,0,1-1.92-4.92,7.42,7.42,0,0,1,2.07-5.37,6.88,6.88,0,0,1,4.83-1.89,5.28,5.28,0,0,1,4,1.74Zm-5,4.5a3.12,3.12,0,0,0-1,2.19,3.09,3.09,0,0,0,.93,2.19,3.37,3.37,0,0,0,2.16.9,3.06,3.06,0,0,0,2.15-.93,2.88,2.88,0,0,0,.91-2.16,3,3,0,0,0-.94-2.19,3,3,0,0,0-2.15-.87A3.09,3.09,0,0,0,1102.38,458.71Z"/><path d="M1117.93,445.93a2.7,2.7,0,1,1-2.7,2.7A2.69,2.69,0,0,1,1117.93,445.93Zm2.4,8.28v13.41h-4.8V454.21Z"/><path d="M1138.77,467.62H1134v-1.47a4.9,4.9,0,0,1-4,1.92,6.42,6.42,0,0,1-4.71-1.86,7.44,7.44,0,0,1-2.16-5.34,7.31,7.31,0,0,1,2.2-5.31,6.82,6.82,0,0,1,4.73-1.8,5.29,5.29,0,0,1,4,1.74v-9.75h4.8Zm-5.66-4.44a3.26,3.26,0,0,0,1-2.28,3.46,3.46,0,0,0-.91-2.16,2.9,2.9,0,0,0-2.18-.9,2.94,2.94,0,0,0-2.13.87A3.3,3.3,0,0,0,1128,461a3,3,0,0,0,.94,2.1,3,3,0,0,0,2.13.9A3.32,3.32,0,0,0,1133.11,463.18Z"/><path d="M1154.43,452h-2.85v-4.41h8.05v20h-5.2Z"/><rect x="904" y="92.75" width="172" height="315.17" rx="12" ry="12" style="fill:none;stroke:#91c54f;stroke-miterlimit:10;stroke-width:5px"/><rect x="931" y="120.34" width="118" height="56" rx="12" ry="12" style="fill:none;stroke:#4fc2c9;stroke-miterlimit:10;stroke-width:5px"/><rect x="931" y="188.34" width="118" height="56" rx="12" ry="12" style="fill:none;stroke:#4fc2c9;stroke-miterlimit:10;stroke-width:5px"/><rect x="931" y="256.34" width="118" height="56" rx="12" ry="12" style="fill:none;stroke:#4fc2c9;stroke-miterlimit:10;stroke-width:5px"/><rect x="931" y="324.34" width="118" height="56" rx="12" ry="12" style="fill:none;stroke:#4fc2c9;stroke-miterlimit:10;stroke-width:5px"/><rect x="1148" y="92.75" width="172" height="315.17" rx="12" ry="12" style="fill:none;stroke:#91c54f;stroke-miterlimit:10;stroke-width:5px"/><rect x="1175" y="120.34" width="118" height="56" rx="12" ry="12" style="fill:none;stroke:#4fc2c9;stroke-miterlimit:10;stroke-width:5px"/><rect x="1175" y="188.34" width="118" height="56" rx="12" ry="12" style="fill:none;stroke:#4fc2c9;stroke-miterlimit:10;stroke-width:5px"/><rect x="1175" y="256.34" width="118" height="56" rx="12" ry="12" style="fill:none;stroke:#4fc2c9;stroke-miterlimit:10;stroke-width:5px"/><rect x="1175" y="324.34" width="118" height="56" rx="12" ry="12" style="fill:none;stroke:#4fc2c9;stroke-miterlimit:10;stroke-width:5px"/><path d="M993.66,155H986.4l-1.35,3.36h-5.49l7.68-20h5.67l7.53,20h-5.55Zm-1.38-4L990,144.54,987.84,151Z"/><path d="M982.38,226.34v-20h7.74a5.61,5.61,0,0,1,4.38,1.56,5.41,5.41,0,0,1,1.23,3.75,5.19,5.19,0,0,1-.57,2.46,3.15,3.15,0,0,1-1.62,1.56,5,5,0,0,1,2.73,1.2,5,5,0,0,1,1.35,3.66,5.43,5.43,0,0,1-1.47,3.93,7.52,7.52,0,0,1-5.43,1.89Zm5.19-12.12h1a2.74,2.74,0,0,0,2-.63,1.94,1.94,0,0,0,.48-1.32,2.06,2.06,0,0,0-.48-1.35,2.75,2.75,0,0,0-2-.6h-1Zm0,8.07h1.17c1.44,0,2.64-.15,3.21-.81a2,2,0,0,0,.42-1.29,2,2,0,0,0-.51-1.44c-.63-.63-1.92-.66-3.21-.66h-1.08Z"/><path d="M997.63,293.74a12.36,12.36,0,0,1-4.5,1,10.88,10.88,0,0,1-7.74-3,10.53,10.53,0,0,1-3-7.29A10.48,10.48,0,0,1,993,273.94a12.4,12.4,0,0,1,4.68,1v6.21A5.57,5.57,0,0,0,993.1,279a5.07,5.07,0,0,0-3.6,1.32,5.59,5.59,0,0,0-1.74,4.11,5.52,5.52,0,0,0,1.62,3.9,5.59,5.59,0,0,0,3.72,1.38,5.87,5.87,0,0,0,4.53-2.1Z"/><path d="M981.23,362.34v-20H988a11.15,11.15,0,0,1,8,2.76,9.77,9.77,0,0,1,2.79,7.29,9.23,9.23,0,0,1-2.61,6.93,10.87,10.87,0,0,1-7.68,3Zm5.19-4.41h1.05a6,6,0,0,0,4.38-1.44,5.45,5.45,0,0,0,1.52-4.11,5.94,5.94,0,0,0-1.56-4.38,5.79,5.79,0,0,0-4.13-1.26h-1.26Z"/><path d="M1237.66,155h-7.26l-1.35,3.36h-5.49l7.68-20h5.67l7.53,20h-5.55Zm-1.38-4-2.25-6.48-2.19,6.48Z"/><path d="M1226.38,226.34v-20h7.74a5.61,5.61,0,0,1,4.38,1.56,5.41,5.41,0,0,1,1.23,3.75,5.19,5.19,0,0,1-.57,2.46,3.15,3.15,0,0,1-1.62,1.56,5,5,0,0,1,2.73,1.2,5,5,0,0,1,1.35,3.66,5.43,5.43,0,0,1-1.47,3.93,7.52,7.52,0,0,1-5.43,1.89Zm5.19-12.12h1a2.74,2.74,0,0,0,2-.63,1.94,1.94,0,0,0,.48-1.32,2.06,2.06,0,0,0-.48-1.35,2.75,2.75,0,0,0-2-.6h-1Zm0,8.07h1.17c1.44,0,2.64-.15,3.21-.81a2,2,0,0,0,.42-1.29,2,2,0,0,0-.51-1.44c-.63-.63-1.92-.66-3.21-.66h-1.08Z"/><path d="M1241.63,293.74a12.36,12.36,0,0,1-4.5,1,10.88,10.88,0,0,1-7.74-3,10.53,10.53,0,0,1-3-7.29,10.48,10.48,0,0,1,10.58-10.5,12.4,12.4,0,0,1,4.68,1v6.21a5.57,5.57,0,0,0-4.53-2.19,5.07,5.07,0,0,0-3.6,1.32,5.59,5.59,0,0,0-1.74,4.11,5.52,5.52,0,0,0,1.62,3.9,5.59,5.59,0,0,0,3.72,1.38,5.87,5.87,0,0,0,4.53-2.1Z"/><path d="M1225.23,362.34v-20h6.8a11.15,11.15,0,0,1,8,2.76,9.77,9.77,0,0,1,2.79,7.29,9.23,9.23,0,0,1-2.61,6.93,10.87,10.87,0,0,1-7.68,3Zm5.19-4.41h1a6,6,0,0,0,4.38-1.44,5.45,5.45,0,0,0,1.52-4.11,5.94,5.94,0,0,0-1.56-4.38,5.79,5.79,0,0,0-4.13-1.26h-1.26Z"/><path d="M683,872.61a6.43,6.43,0,0,1,4.88,1.77,6.59,6.59,0,0,1,1.71,4.5,5.73,5.73,0,0,1-1.59,4.17,5.62,5.62,0,0,1-2.75,1.38l6.26,8.19h-6.44l-5-7.68v7.68h-5.19v-20Zm-2.91,9h1a3.89,3.89,0,0,0,2.51-.81,2.44,2.44,0,0,0,.66-1.68,2.39,2.39,0,0,0-.68-1.68,3.54,3.54,0,0,0-2.49-.78h-1Z"/><path d="M703.67,879.21h4.8v13.41h-4.8v-1.47a5,5,0,0,1-4.16,1.92,6.41,6.41,0,0,1-4.83-2.13,6.72,6.72,0,0,1-1.92-4.92,7.42,7.42,0,0,1,2.07-5.37,6.88,6.88,0,0,1,4.83-1.89,5.28,5.28,0,0,1,4,1.74Zm-5,4.5a3.12,3.12,0,0,0-1,2.19,3.09,3.09,0,0,0,.93,2.19,3.37,3.37,0,0,0,2.16.9,3.06,3.06,0,0,0,2.15-.93,2.88,2.88,0,0,0,.91-2.16,3,3,0,0,0-.94-2.19,3,3,0,0,0-2.15-.87A3.09,3.09,0,0,0,698.63,883.71Z"/><path d="M714.18,870.93a2.7,2.7,0,1,1-2.7,2.7A2.69,2.69,0,0,1,714.18,870.93Zm2.4,8.28v13.41h-4.8V879.21Z"/><path d="M735,892.62h-4.8v-1.47a4.9,4.9,0,0,1-4.05,1.92,6.42,6.42,0,0,1-4.71-1.86,7.44,7.44,0,0,1-2.16-5.34,7.31,7.31,0,0,1,2.2-5.31,6.82,6.82,0,0,1,4.73-1.8,5.29,5.29,0,0,1,4,1.74v-9.75H735Zm-5.66-4.44a3.26,3.26,0,0,0,1-2.28,3.46,3.46,0,0,0-.91-2.16,2.9,2.9,0,0,0-2.18-.9,2.94,2.94,0,0,0-2.13.87,3.3,3.3,0,0,0-.94,2.28,3,3,0,0,0,.94,2.1,3,3,0,0,0,2.13.9A3.32,3.32,0,0,0,729.36,888.18Z"/><path d="M758.51,877h-6.93l-.36,2.22a11.15,11.15,0,0,1,1.62-.15,7.16,7.16,0,0,1,5.29,2,6.55,6.55,0,0,1,1.83,4.74,7,7,0,0,1-1.92,5,8.37,8.37,0,0,1-6.25,2.25,12.18,12.18,0,0,1-6.75-1.8l.79-4.86a9.71,9.71,0,0,0,2.39,1.62,7.47,7.47,0,0,0,3,.69,3.58,3.58,0,0,0,2.61-1,3,3,0,0,0,.79-2,2.83,2.83,0,0,0-1-2.16,5.76,5.76,0,0,0-3.6-1,8,8,0,0,0-3.68.84l1.74-10.77h10.4Z"/><rect x="424.25" y="611.34" width="118" height="56" rx="12" ry="12" style="fill:none;stroke:#4fc2c9;stroke-miterlimit:10;stroke-width:5px"/><rect x="656.25" y="611.34" width="118" height="56" rx="12" ry="12" style="fill:none;stroke:#4fc2c9;stroke-miterlimit:10;stroke-width:5px"/><rect x="888.25" y="611.34" width="118" height="56" rx="12" ry="12" style="fill:#f7931f"/><path d="M486.91,646h-7.26l-1.35,3.36h-5.49l7.68-20h5.67l7.53,20h-5.55Zm-1.38-4-2.25-6.48L481.09,642Z"/><path d="M707.63,649.34v-20h7.74a5.61,5.61,0,0,1,4.38,1.56,5.41,5.41,0,0,1,1.23,3.75,5.19,5.19,0,0,1-.57,2.46,3.15,3.15,0,0,1-1.62,1.56,5,5,0,0,1,2.73,1.2,5,5,0,0,1,1.35,3.66,5.43,5.43,0,0,1-1.47,3.93,7.52,7.52,0,0,1-5.43,1.89Zm5.19-12.12h1a2.74,2.74,0,0,0,2-.63,1.94,1.94,0,0,0,.48-1.32,2.06,2.06,0,0,0-.48-1.35,2.75,2.75,0,0,0-2-.6h-1Zm0,8.07H714c1.44,0,2.64-.15,3.21-.81a2,2,0,0,0,.42-1.29,2,2,0,0,0-.51-1.44c-.63-.63-1.92-.66-3.21-.66h-1.08Z"/><path d="M938.4,642.71v6.63h-5.19v-20h8.28a6.89,6.89,0,0,1,5.07,1.8,6.2,6.2,0,0,1,1.86,4.86,6.5,6.5,0,0,1-1.77,5,6.66,6.66,0,0,1-5,1.74Zm0-4.2h1.74a3.39,3.39,0,0,0,2.19-.63,2.29,2.29,0,0,0,.66-1.83,2.43,2.43,0,0,0-.6-1.8,3,3,0,0,0-2.22-.72H938.4Z" style="fill:#fff"/><path d="M956.1,633.74h-2.85v-4.41h8v20H956.1Z" style="fill:#fff"/><rect x="366.25" y="557.75" width="695.5" height="365.5" rx="12" ry="12" style="fill:none;stroke:#636868;stroke-miterlimit:10;stroke-width:6.40178393329579px"/><rect x="397.25" y="583.75" width="172" height="245" rx="12" ry="12" style="fill:none;stroke:#3a5c84;stroke-miterlimit:10;stroke-width:5px"/><rect x="424.25" y="679.34" width="118" height="56" rx="12" ry="12" style="fill:none;stroke:#4fc2c9;stroke-miterlimit:10;stroke-width:5px"/><rect x="424.25" y="747.34" width="118" height="56" rx="12" ry="12" style="fill:#f7931f"/><rect x="629.25" y="583.75" width="172" height="245" rx="12" ry="12" style="fill:none;stroke:#3a5c84;stroke-miterlimit:10;stroke-width:5px"/><rect x="656.25" y="679.34" width="118" height="56" rx="12" ry="12" style="fill:#f7931f"/><rect x="656.25" y="747.34" width="118" height="56" rx="12" ry="12" style="fill:none;stroke:#4fc2c9;stroke-miterlimit:10;stroke-width:5px"/><rect x="861.25" y="583.75" width="172" height="245" rx="12" ry="12" style="fill:none;stroke:#3a5c84;stroke-miterlimit:10;stroke-width:5px"/><rect x="888.25" y="679.34" width="118" height="56" rx="12" ry="12" style="fill:none;stroke:#4fc2c9;stroke-miterlimit:10;stroke-width:5px"/><rect x="888.25" y="747.34" width="118" height="56" rx="12" ry="12" style="fill:none;stroke:#4fc2c9;stroke-miterlimit:10;stroke-width:5px"/><path d="M490.88,716.74a12.35,12.35,0,0,1-4.49,1,10.88,10.88,0,0,1-7.74-3,10.5,10.5,0,0,1-3-7.29,10.72,10.72,0,0,1,3-7.38,10.6,10.6,0,0,1,7.56-3.12,12.33,12.33,0,0,1,4.67,1v6.21a5.55,5.55,0,0,0-4.53-2.19,5,5,0,0,0-3.59,1.32,5.59,5.59,0,0,0-1.74,4.11,5.52,5.52,0,0,0,1.62,3.9,5.58,5.58,0,0,0,3.71,1.38,5.87,5.87,0,0,0,4.53-2.1Z"/><path d="M720.93,769.74h-6.18v3.33h5.85v4.41h-5.85v3.45h6.18v4.41H709.57v-20h11.36Z"/><path d="M953,769.74h-6.27v3.33h5.7v4.41h-5.7v7.86h-5.19v-20H953Z"/><path d="M938.48,717.34v-20h6.81a11.17,11.17,0,0,1,8,2.76,9.76,9.76,0,0,1,2.78,7.29,9.26,9.26,0,0,1-2.6,6.93,10.87,10.87,0,0,1-7.68,3Zm5.19-4.41h1.05a5.94,5.94,0,0,0,4.37-1.44,5.45,5.45,0,0,0,1.54-4.11,6,6,0,0,0-1.56-4.38,5.87,5.87,0,0,0-4.15-1.26h-1.25Z"/><path d="M704.09,710.93v6.63H698.9v-20h8.28a6.89,6.89,0,0,1,5.07,1.8,6.2,6.2,0,0,1,1.86,4.86,6.5,6.5,0,0,1-1.77,5,6.69,6.69,0,0,1-5,1.73Zm0-4.19h1.74a3.39,3.39,0,0,0,2.19-.63,2.29,2.29,0,0,0,.66-1.83,2.43,2.43,0,0,0-.6-1.8,3,3,0,0,0-2.22-.72h-1.77Z" style="fill:#fff"/><path d="M731.6,717.56H715.55l5.07-5.3a33.14,33.14,0,0,0,4.11-5.07,5.63,5.63,0,0,0,1.08-3.12,3,3,0,0,0-.6-1.92,2,2,0,0,0-1.47-.6,2.15,2.15,0,0,0-1.74.81,5,5,0,0,0-.72,2.46h-5.37a8,8,0,0,1,2.22-5.55,8.62,8.62,0,0,1,11.31-.09,6.68,6.68,0,0,1,1.95,4.92c0,2.52-1.17,4.26-3,5.94l-3.36,3.12h6.54Z" style="fill:#fff"/><path d="M472.1,778.71v6.63h-5.18v-20h8.27a6.88,6.88,0,0,1,5.07,1.8,6.2,6.2,0,0,1,1.86,4.86,6.5,6.5,0,0,1-1.77,5,6.64,6.64,0,0,1-5,1.74Zm0-4.2h1.75a3.4,3.4,0,0,0,2.19-.63,2.28,2.28,0,0,0,.65-1.83,2.43,2.43,0,0,0-.6-1.8,3,3,0,0,0-2.21-.72H472.1Z" style="fill:#fff"/><path d="M488.94,778.5a3,3,0,0,0,.81,2,2.73,2.73,0,0,0,2,.78,2.66,2.66,0,0,0,2-.87,2.35,2.35,0,0,0,.6-1.65,2.29,2.29,0,0,0-.78-1.77,3.14,3.14,0,0,0-1.92-.57,2.73,2.73,0,0,0-.87.12V773a2.54,2.54,0,0,0,2.13-.51,1.88,1.88,0,0,0,.66-1.41,2.22,2.22,0,0,0-.54-1.44,2.15,2.15,0,0,0-1.47-.54,2,2,0,0,0-1.44.51,2.56,2.56,0,0,0-.69,1.77h-4.82a7.06,7.06,0,0,1,1.95-4.59,8,8,0,0,1,10.25-.18,5.44,5.44,0,0,1,1.62,3.87,4.82,4.82,0,0,1-.6,2.46,3.43,3.43,0,0,1-1.53,1.53,4.9,4.9,0,0,1,2.37,1.83,5.06,5.06,0,0,1,.84,2.94,6,6,0,0,1-1.77,4.38,8.2,8.2,0,0,1-6,2.13,7.82,7.82,0,0,1-8.21-7.29Z" style="fill:#fff"/><rect x="149.5" y="968.25" width="1129" height="488" rx="12" ry="12" style="fill:none;stroke:#636868;stroke-miterlimit:10;stroke-width:11.2283557362619px"/><path d="M671.3,1394.61a6.43,6.43,0,0,1,4.88,1.77,6.59,6.59,0,0,1,1.71,4.5,5.77,5.77,0,0,1-1.59,4.17,5.62,5.62,0,0,1-2.75,1.38l6.26,8.19h-6.45l-5-7.68v7.68H663.2v-20Zm-2.91,9h1a3.92,3.92,0,0,0,2.52-.81,2.53,2.53,0,0,0,.65-1.68,2.32,2.32,0,0,0-.69-1.68,3.5,3.5,0,0,0-2.48-.78h-1Z"/><path d="M691.93,1401.21h4.8v13.41h-4.8v-1.47a5,5,0,0,1-4.16,1.92,6.42,6.42,0,0,1-4.83-2.13A6.76,6.76,0,0,1,681,1408a7.42,7.42,0,0,1,2.07-5.37,6.9,6.9,0,0,1,4.83-1.89,5.3,5.3,0,0,1,4,1.74Zm-5,4.5a3,3,0,0,0,0,4.38,3.42,3.42,0,0,0,2.17.9,3.1,3.1,0,0,0,2.16-.93,2.91,2.91,0,0,0,.9-2.16,3,3,0,0,0-.93-2.19,3.11,3.11,0,0,0-2.16-.87A3.07,3.07,0,0,0,686.9,1405.71Z"/><path d="M702.44,1392.93a2.7,2.7,0,1,1-2.7,2.7A2.69,2.69,0,0,1,702.44,1392.93Zm2.4,8.28v13.41H700v-13.41Z"/><path d="M723.28,1414.62h-4.8v-1.47a4.91,4.91,0,0,1-4.05,1.92,6.4,6.4,0,0,1-4.7-1.86,7.4,7.4,0,0,1-2.16-5.34,7.31,7.31,0,0,1,2.19-5.31,6.82,6.82,0,0,1,4.73-1.8,5.31,5.31,0,0,1,4,1.74v-9.75h4.8Zm-5.67-4.44a3.23,3.23,0,0,0,1-2.28,3.57,3.57,0,0,0-.9-2.16,2.94,2.94,0,0,0-2.19-.9,3,3,0,0,0-2.14.87,3.33,3.33,0,0,0-.92,2.28,3.11,3.11,0,0,0,3.06,3A3.27,3.27,0,0,0,717.61,1410.18Z"/><path d="M739,1399H736.1v-4.41h8v20H739Z"/><path d="M761.83,1412.79a7.82,7.82,0,0,1-11,0,12.74,12.74,0,0,1,0-16.35,7.82,7.82,0,0,1,11,0,12.74,12.74,0,0,1,0,16.35Zm-7.11-13.35c-1.08.93-1.74,3.36-1.74,5.22,0,1.59.57,4.2,1.74,5.22a2.32,2.32,0,0,0,3.18,0c1.11-1,1.74-3.48,1.74-5.19s-.69-4.32-1.74-5.25a2.32,2.32,0,0,0-3.18,0Z"/><rect x="224.75" y="1025.75" width="172" height="315.17" rx="12" ry="12" style="fill:none;stroke:#91c54f;stroke-miterlimit:10;stroke-width:5px"/><rect x="251.75" y="1053.34" width="118" height="56" rx="12" ry="12" style="fill:none;stroke:#4fc2c9;stroke-miterlimit:10;stroke-width:5px"/><rect x="251.75" y="1121.34" width="118" height="56" rx="12" ry="12" style="fill:none;stroke:#4fc2c9;stroke-miterlimit:10;stroke-width:5px"/><rect x="251.75" y="1189.34" width="118" height="56" rx="12" ry="12" style="fill:none;stroke:#4fc2c9;stroke-miterlimit:10;stroke-width:5px"/><rect x="251.75" y="1257.34" width="118" height="56" rx="12" ry="12" style="fill:none;stroke:#4fc2c9;stroke-miterlimit:10;stroke-width:5px"/><rect x="468.75" y="1025.75" width="172" height="315.17" rx="12" ry="12" style="fill:none;stroke:#91c54f;stroke-miterlimit:10;stroke-width:5px"/><rect x="495.75" y="1053.34" width="118" height="56" rx="12" ry="12" style="fill:none;stroke:#4fc2c9;stroke-miterlimit:10;stroke-width:5px"/><rect x="495.75" y="1121.34" width="118" height="56" rx="12" ry="12" style="fill:none;stroke:#4fc2c9;stroke-miterlimit:10;stroke-width:5px"/><rect x="495.75" y="1189.34" width="118" height="56" rx="12" ry="12" style="fill:none;stroke:#4fc2c9;stroke-miterlimit:10;stroke-width:5px"/><rect x="495.75" y="1257.34" width="118" height="56" rx="12" ry="12" style="fill:none;stroke:#4fc2c9;stroke-miterlimit:10;stroke-width:5px"/><path d="M314.41,1088h-7.26l-1.35,3.36h-5.49l7.68-20h5.67l7.53,20h-5.55Zm-1.38-4-2.25-6.48-2.19,6.48Z"/><path d="M303.13,1159.34v-20h7.74a5.61,5.61,0,0,1,4.38,1.56,5.41,5.41,0,0,1,1.23,3.75,5.19,5.19,0,0,1-.57,2.46,3.15,3.15,0,0,1-1.62,1.56,5,5,0,0,1,2.73,1.2,5,5,0,0,1,1.35,3.66,5.43,5.43,0,0,1-1.47,3.93,7.52,7.52,0,0,1-5.43,1.89Zm5.19-12.12h1a2.74,2.74,0,0,0,2-.63,1.94,1.94,0,0,0,.48-1.32,2.06,2.06,0,0,0-.48-1.35,2.75,2.75,0,0,0-2-.6h-1Zm0,8.07h1.17c1.44,0,2.64-.15,3.21-.81a2,2,0,0,0,.42-1.29,2,2,0,0,0-.51-1.44c-.63-.63-1.92-.66-3.21-.66h-1.08Z"/><path d="M318.38,1226.74a12.36,12.36,0,0,1-4.5,1,10.88,10.88,0,0,1-7.74-3,10.53,10.53,0,0,1-3-7.29,10.48,10.48,0,0,1,10.58-10.5,12.4,12.4,0,0,1,4.68,1v6.21a5.57,5.57,0,0,0-4.53-2.19,5.07,5.07,0,0,0-3.6,1.32,5.59,5.59,0,0,0-1.74,4.11,5.52,5.52,0,0,0,1.62,3.9,5.59,5.59,0,0,0,3.72,1.38,5.87,5.87,0,0,0,4.53-2.1Z"/><path d="M302,1295.34v-20h6.8a11.15,11.15,0,0,1,8,2.76,9.77,9.77,0,0,1,2.79,7.29,9.23,9.23,0,0,1-2.61,6.93,10.87,10.87,0,0,1-7.68,3Zm5.19-4.41h1.05a6,6,0,0,0,4.38-1.44,5.45,5.45,0,0,0,1.52-4.11,5.94,5.94,0,0,0-1.56-4.38,5.79,5.79,0,0,0-4.13-1.26h-1.26Z"/><path d="M558.41,1088h-7.26l-1.35,3.36h-5.49l7.68-20h5.67l7.53,20h-5.55Zm-1.38-4-2.25-6.48-2.19,6.48Z"/><path d="M547.13,1159.34v-20h7.74a5.61,5.61,0,0,1,4.38,1.56,5.41,5.41,0,0,1,1.23,3.75,5.19,5.19,0,0,1-.57,2.46,3.15,3.15,0,0,1-1.62,1.56,5,5,0,0,1,2.73,1.2,5,5,0,0,1,1.35,3.66,5.43,5.43,0,0,1-1.47,3.93,7.52,7.52,0,0,1-5.43,1.89Zm5.19-12.12h1a2.74,2.74,0,0,0,2-.63,1.94,1.94,0,0,0,.48-1.32,2.06,2.06,0,0,0-.48-1.35,2.75,2.75,0,0,0-2-.6h-1Zm0,8.07h1.17c1.44,0,2.64-.15,3.21-.81a2,2,0,0,0,.42-1.29,2,2,0,0,0-.51-1.44c-.63-.63-1.92-.66-3.21-.66h-1.08Z"/><path d="M562.38,1226.74a12.36,12.36,0,0,1-4.5,1,10.88,10.88,0,0,1-7.74-3,10.53,10.53,0,0,1-3-7.29,10.48,10.48,0,0,1,10.58-10.5,12.4,12.4,0,0,1,4.68,1v6.21a5.57,5.57,0,0,0-4.53-2.19,5.07,5.07,0,0,0-3.6,1.32,5.59,5.59,0,0,0-1.74,4.11,5.52,5.52,0,0,0,1.62,3.9,5.59,5.59,0,0,0,3.72,1.38,5.87,5.87,0,0,0,4.53-2.1Z"/><path d="M546,1295.34v-20h6.8a11.15,11.15,0,0,1,8,2.76,9.77,9.77,0,0,1,2.79,7.29,9.23,9.23,0,0,1-2.61,6.93,10.87,10.87,0,0,1-7.68,3Zm5.19-4.41h1.05a6,6,0,0,0,4.38-1.44,5.45,5.45,0,0,0,1.52-4.11,5.94,5.94,0,0,0-1.56-4.38,5.79,5.79,0,0,0-4.13-1.26h-1.26Z"/><rect x="203.75" y="1012.75" width="455" height="350" rx="12" ry="12" style="fill:none;stroke:#3a5c84;stroke-miterlimit:10;stroke-width:5px"/><rect x="787.75" y="1025.75" width="172" height="315.17" rx="12" ry="12" style="fill:none;stroke:#91c54f;stroke-miterlimit:10;stroke-width:5px"/><rect x="814.75" y="1053.34" width="118" height="56" rx="12" ry="12" style="fill:none;stroke:#4fc2c9;stroke-miterlimit:10;stroke-width:5px"/><rect x="814.75" y="1121.34" width="118" height="56" rx="12" ry="12" style="fill:none;stroke:#4fc2c9;stroke-miterlimit:10;stroke-width:5px"/><rect x="814.75" y="1189.34" width="118" height="56" rx="12" ry="12" style="fill:none;stroke:#4fc2c9;stroke-miterlimit:10;stroke-width:5px"/><rect x="814.75" y="1257.34" width="118" height="56" rx="12" ry="12" style="fill:none;stroke:#4fc2c9;stroke-miterlimit:10;stroke-width:5px"/><rect x="1031.75" y="1025.75" width="172" height="315.17" rx="12" ry="12" style="fill:none;stroke:#91c54f;stroke-miterlimit:10;stroke-width:5px"/><rect x="1058.75" y="1053.34" width="118" height="56" rx="12" ry="12" style="fill:none;stroke:#4fc2c9;stroke-miterlimit:10;stroke-width:5px"/><rect x="1058.75" y="1121.34" width="118" height="56" rx="12" ry="12" style="fill:none;stroke:#4fc2c9;stroke-miterlimit:10;stroke-width:5px"/><rect x="1058.75" y="1189.34" width="118" height="56" rx="12" ry="12" style="fill:none;stroke:#4fc2c9;stroke-miterlimit:10;stroke-width:5px"/><rect x="1058.75" y="1257.34" width="118" height="56" rx="12" ry="12" style="fill:none;stroke:#4fc2c9;stroke-miterlimit:10;stroke-width:5px"/><rect x="769.25" y="1013.25" width="455" height="350" rx="12" ry="12" style="fill:none;stroke:#3a5c84;stroke-miterlimit:10;stroke-width:5px"/><path d="M879.43,1075.74h-6.18v3.33h5.85v4.41h-5.85v3.45h6.18v4.41H868.07v-20h11.36Z"/><path d="M879.48,1143.74h-6.27v3.33h5.7v4.41h-5.7v7.86H868v-20h11.46Z"/><path d="M873.84,1216.14h10.32c0,3.95-.81,6.77-3.21,9a9.77,9.77,0,0,1-7.05,2.52,10.33,10.33,0,0,1-7.68-3,10.08,10.08,0,0,1-2.88-7.22,10.41,10.41,0,0,1,3-7.5,11.63,11.63,0,0,1,13.17-1.59,9.8,9.8,0,0,1,3.57,4.11l-5,2a4.9,4.9,0,0,0-1.44-2,4.2,4.2,0,0,0-2.79-1,4.83,4.83,0,0,0-3.42,1.38,6.74,6.74,0,0,0-1.74,4.58,6.22,6.22,0,0,0,1.59,4.32,4.74,4.74,0,0,0,3.66,1.54,4.3,4.3,0,0,0,2.88-.94,3.53,3.53,0,0,0,1.23-2.21h-4.26Z"/><path d="M870,1282.8h7.5v-7.47h5.22v20h-5.22v-8.1H870v8.1H864.8v-20H870Z"/><path d="M1124.43,1075.74h-6.18v3.33h5.85v4.41h-5.85v3.45h6.18v4.41h-11.36v-20h11.36Z"/><path d="M1124.48,1143.74h-6.27v3.33h5.7v4.41h-5.7v7.86H1113v-20h11.46Z"/><path d="M1118.84,1216.14h10.32c0,3.95-.81,6.77-3.21,9a9.77,9.77,0,0,1-7,2.52,10.33,10.33,0,0,1-7.68-3,10.08,10.08,0,0,1-2.88-7.22,10.41,10.41,0,0,1,3-7.5,11.63,11.63,0,0,1,13.17-1.59,9.8,9.8,0,0,1,3.57,4.11l-4.95,2a4.9,4.9,0,0,0-1.44-2,4.2,4.2,0,0,0-2.79-1,4.83,4.83,0,0,0-3.42,1.38,6.74,6.74,0,0,0-1.74,4.58,6.22,6.22,0,0,0,1.59,4.32,4.74,4.74,0,0,0,3.66,1.54,4.3,4.3,0,0,0,2.88-.94,3.53,3.53,0,0,0,1.23-2.21h-4.26Z"/><path d="M1115,1282.8h7.5v-7.47h5.22v20h-5.22v-8.1H1115v8.1h-5.18v-20H1115Z"/></svg>